<svg id="Capa_1" enable-background="new 0 0 512 512" height="512" viewBox="0 0 512 512" width="512" xmlns="http://www.w3.org/2000/svg"><g><path d="m407 53.5h-302c-57.897 0-105 47.103-105 105v30c0 8.284 6.716 15 15 15h482c8.284 0 15-6.716 15-15v-30c0-57.897-47.103-105-105-105z" fill="#79d9ff"/><path d="m512 158.5v30c0 8.28-6.72 15-15 15h-241.05v-150h151.05c57.9 0 105 47.1 105 105z" fill="#5cb4ff"/><path d="m449.31 450.21c-2.54 5.08-7.73 8.29-13.41 8.29h-360c-5.75 0-10.99-3.29-13.5-8.46-.24-.99-34.07-60.77-4.5-132.71l48-116.79v-87.04c0-8.284 6.716-15 15-15h45.1c8.284 0 15 6.716 15 15v30c0 8.284 6.716 15 15 15h119.9c8.284 0 15-6.716 15-15v-30c0-8.284 6.716-15 15-15h45c8.284 0 15 6.716 15 15v87l48.07 115.4c18.06 43.35 16.36 92.31-4.66 134.31z" fill="#f0f7ff"/><path d="m449.31 450.21c-2.54 5.08-7.73 8.29-13.41 8.29h-179.95v-300h59.95c8.28 0 15-6.72 15-15v-30c0-8.28 6.72-15 15-15h45c8.28 0 15 6.72 15 15v87l48.07 115.4c18.06 43.35 16.36 92.31-4.66 134.31z" fill="#dfe7f4"/><circle cx="195.95" cy="233.5" fill="#5cb4ff" r="15"/><circle cx="255.95" cy="233.5" fill="#5cb4ff" r="15"/><path d="m270.95 233.5c0 8.28-6.72 15-15 15v-30c8.28 0 15 6.72 15 15z" fill="#489cff"/><circle cx="315.95" cy="233.5" fill="#489cff" r="15"/><circle cx="195.95" cy="293.5" fill="#5cb4ff" r="15"/><circle cx="255.95" cy="293.5" fill="#5cb4ff" r="15"/><path d="m270.95 293.5c0 8.28-6.72 15-15 15v-30c8.28 0 15 6.72 15 15z" fill="#489cff"/><circle cx="315.95" cy="293.5" fill="#489cff" r="15"/><circle cx="195.95" cy="353.5" fill="#5cb4ff" r="15"/><circle cx="255.95" cy="353.5" fill="#5cb4ff" r="15"/><g fill="#489cff"><path d="m270.95 353.5c0 8.28-6.72 15-15 15v-30c8.28 0 15 6.72 15 15z"/><circle cx="315.95" cy="353.5" r="15"/></g></g></svg>