<svg xmlns="http://www.w3.org/2000/svg" viewBox="0 0 300 199"><defs/><path fill="#564135" d="M0 0h300v199H0z"/><g transform="translate(.6 .6) scale(1.17188)"><circle r="1" fill="#bfd5e2" fill-opacity=".5" transform="rotate(7.4 -632 1244.4) scale(102.41626 52.11206)"/><circle r="1" fill="#fefff3" fill-opacity=".5" transform="matrix(13.95387 -.87096 7.02901 112.61413 146.1 78.2)"/><circle r="1" fill="#00070c" fill-opacity=".6" transform="rotate(-64.2 140 30.5) scale(27.92279 69.23798)"/><ellipse cx="202" cy="50" fill="#3e2d13" fill-opacity=".5" rx="30" ry="38"/><circle r="1" fill="#fffdff" fill-opacity=".5" transform="matrix(-12.42093 1.17356 -2.9218 -30.92435 185.8 118.3)"/><circle r="1" fill="#58686f" fill-opacity=".5" transform="rotate(-13.4 361.6 -263.1) scale(55.57664 42.11696)"/><circle r="1" fill="#c5c99a" fill-opacity=".4" transform="matrix(-5.78856 78.8951 -27.65685 -2.0292 146 36.6)"/><path fill="#a58892" fill-opacity=".6" d="M239.5-23.7L272.2 23l-23.7 16.7L215.8-7z"/><circle cx="140" cy="166" r="25" fill="#97e2ff" fill-opacity=".3"/><circle r="1" fill="#2b3049" fill-opacity=".5" transform="rotate(67.2 -.4 251.7) scale(63.51284 16.07524)"/><ellipse cx="190" cy="24" fill="#cab281" fill-opacity=".4" rx="7" ry="71"/><ellipse cx="166" cy="146" fill="#060609" fill-opacity=".5" rx="8" ry="16"/><circle r="1" fill="#d5cab4" fill-opacity=".4" transform="rotate(-141.2 142.7 11.1) scale(28.40286 19.64474)"/><path fill="#134771" fill-opacity=".3" d="M124.6 101.4l5.5 51.7-52.7 5.5-5.5-51.7z"/><circle r="1" fill="#2e3b32" fill-opacity=".5" transform="matrix(-46.91735 -16.24659 10.7779 -31.12473 73.4 24.8)"/><path fill="#2b1a0e" fill-opacity=".7" d="M245.7 57.7l-31 11.3-18.4-50.7 31-11.3z"/><path fill="#aac9d7" fill-opacity=".6" d="M-13.7 148.8l15-5.5 12.4 33.9-15 5.5z"/><circle r="1" fill="#7f8998" fill-opacity=".5" transform="matrix(-46.23774 -11.07865 5.1215 -21.37502 81 93.1)"/><path fill="#463508" fill-opacity=".4" d="M156 37h31v22h-31z"/><path fill="#70533a" fill-opacity=".7" d="M271 90l-36-7 22-99z"/><path fill="#0f1413" fill-opacity=".6" d="M246 139.1l-9.3 9L220 131l9.3-9z"/><path fill="#fffeff" fill-opacity=".4" d="M138 152l25 17-7-58z"/><path fill="#622a00" fill-opacity=".3" d="M131 2h86v13h-86z"/><path fill="#141817" fill-opacity=".4" d="M84 155L-16 40 9 165z"/><path fill="#36566a" fill-opacity=".6" d="M131 136l24 49-64-56z"/><path fill="#afd5aa" fill-opacity=".4" d="M228.2 149.4l-2.7-6.7 45.5 22.1v7.9z"/><ellipse cx="141" cy="78" fill="#cacace" fill-opacity=".4" rx="19" ry="61"/><path fill="#73697f" d="M220.4 100.2l3 57.6-21.1-65.4L234.6 58z"/><path fill="#d0cfdb" fill-opacity=".5" d="M180 141l26 6-25-95z"/><path fill="#412614" fill-opacity=".7" d="M176.7 12.2l12.4 48-3.8-4.1-10.4 30.3z"/><path fill="#fde4d6" fill-opacity=".6" d="M176.5 2.8l12-7.5L246-16 188.9 3z"/><path fill="#b1bb8b" fill-opacity=".3" d="M211 67.4l-26-55.6 4 56.1 15.3 4.2z"/><circle r="1" fill="#5e9841" fill-opacity=".4" transform="matrix(5.96173 -17.6097 15.99571 5.41531 127.8 14.1)"/><circle r="1" fill="#3b474c" fill-opacity=".5" transform="matrix(-3.5605 .46243 -7.42574 -57.17505 118 92.8)"/><path fill="#302425" fill-opacity=".6" d="M208 80l-29-8 17 17z"/><path fill="#120808" fill-opacity=".3" d="M217.2 88.8l-2.4 8-15.1 24.5 9.6-35.1z"/><path fill="#9aa0d8" fill-opacity=".4" d="M249.6-9.3l-7.1 25-22.1-6.4 7.1-25z"/><path fill="#f4edf1" fill-opacity=".3" d="M235.6 185h-89l15-57.8-26 25.9z"/><path fill="#1a130f" fill-opacity=".5" d="M74.2 109.2l.4-6.5 34.3 82.3L5.5 154.5z"/><path fill="#bec096" fill-opacity=".4" d="M167.7 15.6l-32-9.4 6.9 53.5 3.2 8.1z"/><circle r="1" fill="#010a15" fill-opacity=".6" transform="rotate(-55.6 251 -115.2) scale(5.34692 9.60883)"/><circle r="1" fill="#d89071" fill-opacity=".3" transform="rotate(-118.2 141.5 -53) scale(29.08506 10.66311)"/><path fill="#1e2429" fill-opacity=".9" d="M271 147.1v19.4l-48.3-27.9-.5-14.7z"/><path fill="#d6d4d2" fill-opacity=".5" d="M174 91h32v13h-32z"/><path fill="#160000" fill-opacity=".4" d="M219 157h29v13h-29z"/><path fill="#969c98" fill-opacity=".5" d="M195.2 163.2L214 166l-1.2 8.9L194 172z"/><path fill="#9794d1" fill-opacity=".4" d="M216 104.4L228.4 59l9.6 2.6-12.2 45.4z"/><circle r="1" fill="#847f6b" fill-opacity=".5" transform="matrix(-6.88407 -22.5333 14.9658 -4.57215 45.5 74.7)"/><path fill="#0e0c13" fill-opacity=".5" d="M225.1 68.6l-16.7-44.2 26 25.4-40.1 39.3z"/><path fill="#d7d1c6" fill-opacity=".4" d="M159.9 144.1L116.3 37l38.3-14-3.3 19.4z"/><path fill="#00141a" fill-opacity=".4" d="M125.5 160.3l-50.7 15.1-7.7-.3 28.8-38.7z"/><path fill="#857d83" fill-opacity=".4" d="M199 147l-39-33 18 35z"/><path fill="#9d937a" fill-opacity=".7" d="M271 167.4l-39.7-69.6 10.9-12.9L271 185z"/><path fill="#3c3527" fill-opacity=".5" d="M253.3 70.7L248 88l-15.3-4.6L238 66z"/><circle r="1" fill="#3a2010" fill-opacity=".6" transform="matrix(-7.62502 9.60864 -11.4572 -9.09196 206.2 16)"/><path fill="#9c945f" fill-opacity=".5" d="M155 18h20v43h-20z"/><ellipse cx="10" cy="16" fill="#3c4541" fill-opacity=".5" rx="18" ry="66"/><ellipse cx="216" cy="167" fill="#e1d8f1" fill-opacity=".2" rx="2" ry="65"/><circle r="1" fill="#1d1c1d" fill-opacity=".5" transform="matrix(10.83895 10.80118 -4.77956 4.79627 170 150.5)"/><path fill="#c1c4f8" fill-opacity=".2" d="M228.7 82.9l-13.6 31.2 9.1 7.6 19.6-5.2z"/><path fill="#577684" fill-opacity=".5" d="M0 164h39v6H0z"/><path fill="#789fc2" fill-opacity=".6" d="M114 164h18v6h-18z"/><path fill="#d4c3b4" fill-opacity=".5" d="M271 56.8l-19.1 13.4 19.1 7.6L247.2 53z"/><path fill="#698aa3" fill-opacity=".4" d="M102 111h18v38h-18z"/><path fill="#33353b" fill-opacity=".5" d="M164 185h-24l-10-36z"/></g></svg>