<svg xmlns="http://www.w3.org/2000/svg" viewBox="0 0 300 199"><defs/><path fill="#323d62" d="M0 0h300v199H0z"/><g transform="translate(.6 .6) scale(1.17188)"><circle r="1" fill="#fff3d7" fill-opacity=".8" transform="matrix(-67.28763 245.96214 -68.35298 -18.69926 58 99.3)"/><circle r="1" fill="#fdbf52" fill-opacity=".5" transform="matrix(16.99643 19.67322 -53.91874 46.58241 225 152.2)"/><circle cx="158" r="54" fill="#a89a6f" fill-opacity=".8"/><circle r="1" fill="#7a7966" fill-opacity=".9" transform="matrix(-13.78922 -41.06522 23.56556 -7.91304 139.9 115.2)"/><circle r="1" fill="#4a380e" fill-opacity=".7" transform="matrix(35.32799 22.07538 -43.8848 70.23035 217.3 73.1)"/><circle r="1" fill="#fff" fill-opacity=".6" transform="rotate(-10.4 602.2 -395.8) scale(31.59782 97.88419)"/><ellipse cx="19" cy="147" fill="#8f7154" fill-opacity=".5" rx="23" ry="67"/><circle r="1" fill="#fffed2" fill-opacity=".6" transform="matrix(4.86677 .73814 -5.39967 35.60135 242 124)"/><path fill="#fff" fill-opacity=".5" d="M134 115h34v15h-34z"/><circle r="1" fill="#633106" fill-opacity=".9" transform="matrix(9.77506 1.80662 -12.8851 69.7175 255 136.7)"/><ellipse cx="185" cy="102" fill="#000b0d" fill-opacity=".7" rx="48" ry="15"/><path fill="#131700" fill-opacity=".5" d="M116 136h67v34h-67z"/><circle r="1" fill="#6f522a" fill-opacity=".6" transform="rotate(-114.4 123.8 -57.4) scale(70.27839 28.15131)"/><path fill="#ffe695" fill-opacity=".5" d="M183 142h53v21h-53z"/><ellipse cy="18" fill="#907452" fill-opacity=".8" rx="12" ry="46"/><circle r="1" fill="#e9efea" fill-opacity=".3" transform="matrix(-11.74634 -26.08891 64.5303 -29.05428 104.2 53.1)"/><path fill="#282725" fill-opacity=".6" d="M126 71l64-22-63 44z"/><path fill="#040303" fill-opacity=".6" d="M239.8 111l-32 14.2L180.2 63l32-14.3z"/><path fill="#ffffd6" fill-opacity=".2" d="M182.9 91.2l11-60.2-36.2 48.9-92.2 40z"/><path fill="#f6d8b5" fill-opacity=".8" d="M248.5 99.7l-9.3-10-3.4 4.7 11.9 29.4z"/><path fill="#f0e6d6" fill-opacity=".5" d="M156.3 161l8.7-4.4-.1-6.7-20.3.6z"/><ellipse cx="26" cy="28" fill="#bbaf9e" fill-opacity=".6" rx="18" ry="104"/><path fill="#181e00" fill-opacity=".5" d="M128.8 141.1l-16.3-51.9 6.4 95.8 69.9-2.1z"/><path fill="#fffffd" fill-opacity=".6" d="M108.5 78.8L122.4 211l-20.9 2.2L87.6 81z"/><path fill="#0f2e36" fill-opacity=".5" d="M168 107h68v33h-68z"/><path fill="#372103" fill-opacity=".4" d="M130.8 53.9l32-2.8-8.8 57.7-9.2-73.5z"/><path fill="#b0a19b" fill-opacity=".5" d="M207 123h25v10h-25z"/><circle r="1" fill="#808467" fill-opacity=".5" transform="matrix(1.73923 -25.19628 8.90653 .6148 238 31.7)"/><circle r="1" fill="#7c5938" fill-opacity=".3" transform="matrix(14.59792 -4.665 7.45773 23.33706 19.3 151.1)"/><path fill="#e9e9e2" fill-opacity=".6" d="M113 16L51 5l70 84z"/><path fill="#6c716f" fill-opacity=".6" d="M140.7 102.8L108.6-2.6 119.3-16l1.1 89.1z"/><path fill="#8d5f27" d="M200.5 159.1L188.2 185l-.7-30.6 3.7 1.3z"/><ellipse cx="207" cy="150" fill="#1c0000" fill-opacity=".5" rx="15" ry="2"/><path fill="#dcffff" fill-opacity=".6" d="M189 123l-10-2 1-6z"/><path fill="#fffffd" fill-opacity=".3" d="M116 94l20 31-1-32z"/><path fill="#ffffea" fill-opacity=".5" d="M141 88h10v9h-10z"/><path fill="#ffffd1" fill-opacity=".6" d="M185 143h51v5h-51z"/><path fill="#fffffd" fill-opacity=".5" d="M38.2 181l13-66.8 14.6 2.9-13 66.7z"/><path fill="#0e0a00" fill-opacity=".7" d="M154.4 55.6l6.3 10 25.2 4.1-18.1-17.4z"/><path fill="#060e05" fill-opacity=".6" d="M166 175.8l4.7-56.2 36.6 21.5L201 114z"/><path fill="#7c7e4f" fill-opacity=".6" d="M173.9 118.2l-7.1 23.2-53.5 3.9 39-13z"/><path fill="#212024" fill-opacity=".8" d="M185.8 119.8L141 95l-11-28.6 12.8 45.7z"/><path fill="#fff" fill-opacity=".5" d="M138 113h25l-10 18z"/><path fill="#390e00" fill-opacity=".4" d="M251 81l-35 16 39-65z"/><path fill="#f2f1ef" fill-opacity=".6" d="M44 56l25 30-34 35z"/><circle r="1" fill="#c2b08d" fill-opacity=".6" transform="matrix(-5.21024 -3.28444 18.56312 -29.44744 52.2 169)"/><circle r="1" fill="#ffd8a2" fill-opacity=".6" transform="matrix(-10.44682 48.83877 -4.36065 -.93276 233 165)"/><path fill="#c1c0b2" fill-opacity=".6" d="M123.3 92l-8-38 39 13.1-37.9-37z"/><circle r="1" fill="#cbc3af" fill-opacity=".5" transform="matrix(-5.48762 -1.19568 9.34957 -42.91018 68.5 20)"/><circle r="1" fill="#a9977e" fill-opacity=".5" transform="matrix(7.72226 4.4405 -10.2635 17.84878 35.7 42.3)"/><path fill="#eff6fa" fill-opacity=".6" d="M13.7 9l-3.5-20.1L44.7-16 16.3 15.9z"/><path fill="#211300" fill-opacity=".5" d="M168 99.1l-21.8-17.6L150 77l21.8 17.6z"/><circle r="1" fill="#948158" fill-opacity=".3" transform="matrix(23.58626 -11.75968 16.33644 32.76582 181.5 24.6)"/><path fill="#562700" fill-opacity=".6" d="M233-16h-20l-2 71z"/><path fill="#bea77c" fill-opacity=".4" d="M153 85l18-5-7-12z"/><path fill-opacity=".4" d="M113 89h20v4h-20z"/><ellipse cx="123" cy="9" fill="#5e5230" fill-opacity=".2" rx="20" ry="17"/><path fill="#040e0c" fill-opacity=".7" d="M119 147h29v23h-29z"/><path fill="#fddcb5" fill-opacity=".5" d="M233.9 98.1l9.7-9.6-7.4 88.9 14-66.1z"/><path fill="#ecffff" fill-opacity=".5" d="M228.3 119.2l1.3 6.9-3.9.7-1.3-6.9z"/><path fill="#fff59d" fill-opacity=".6" d="M192.3 184.3l11.6-32 3.8 1.4-11.6 32z"/><path fill="#ebeeef" fill-opacity=".6" d="M121 85l-47 3 53-20z"/><path fill="#dbedf0" fill-opacity=".3" d="M-6 185l13-69.1-23 47.9 38.3-10.5z"/><path fill="#051815" fill-opacity=".6" d="M186 142V75l55 28z"/><path fill="#1a0f0b" fill-opacity=".6" d="M233 139l1-9-17 3z"/></g></svg>