<svg xmlns="http://www.w3.org/2000/svg" viewBox="0 0 300 199"><defs/><path fill="#455c35" d="M0 0h300v199H0z"/><g transform="translate(.6 .6) scale(1.17188)"><circle r="1" fill="#e7edef" fill-opacity=".8" transform="matrix(-7.31463 -34.7104 144.51024 -30.45308 196.2 0)"/><ellipse cx="170" cy="151" fill="#1b1902" fill-opacity=".5" rx="255" ry="42"/><circle r="1" fill="#819177" fill-opacity=".8" transform="matrix(37.42655 -18.0927 9.36367 19.36967 48.8 30.5)"/><ellipse cx="145" cy="60" fill="#272b26" fill-opacity=".5" rx="46" ry="28"/><path fill="#bf9bb4" fill-opacity=".6" d="M245.1 90.3l-59.5 7.8-6.4-24.1 85.2 13.6z"/><path fill="#fbfbfe" fill-opacity=".6" d="M139 0h107v33H139z"/><ellipse cx="4" cy="124" fill="#000a00" fill-opacity=".4" rx="45" ry="81"/><path fill="#f3fafd" fill-opacity=".5" d="M77 21h32v33H77z"/><path fill="#f6f6f2" fill-opacity=".6" d="M55.7 51.5L27.8 20.1l13.4-4.6-18 39.2z"/><ellipse cx="247" cy="63" fill="#000e00" fill-opacity=".5" rx="49" ry="17"/><path fill="#8d9c86" fill-opacity=".8" d="M209.7 23.3l-96.4 21.2-5.6-8.3 119.9 3.9z"/><path fill="#1b2811" fill-opacity=".5" d="M63 79L57-3l40 98z"/><path fill="#fff" fill-opacity=".6" d="M54 21l8 9-17 23z"/><path fill="#efd7fc" fill-opacity=".5" d="M189 61h9v21h-9z"/><circle r="1" fill="#5d5a36" fill-opacity=".6" transform="matrix(51.50653 -9.25488 3.71348 20.66676 138.4 106.1)"/><path fill="#072000" fill-opacity=".7" d="M-16-16l43 4.4 10.9 28.4-19.1 1.4z"/><path fill="#102b02" fill-opacity=".9" d="M40.1 24.8l6.5-3.7L51.1 34l-6.8 6.4z"/><path fill="#031237" fill-opacity=".6" d="M86 76l17 20 37-40z"/><path fill="#204407" fill-opacity=".5" d="M86 14L63-13 46 12z"/><ellipse cx="134" cy="51" fill="#444f38" fill-opacity=".6" rx="7" ry="28"/><circle cx="143" cy="89" r="7" fill="#ffd2da" fill-opacity=".4"/><path fill="#26361f" fill-opacity=".6" d="M156.4 105.4l34.5-45.7 61.8 21.1L182 26.3z"/><path fill="#fffbfb" fill-opacity=".3" d="M241.9 45l19.4-61-145.5 54.8 115.6-10.3z"/><circle r="1" fill="#baa7be" fill-opacity=".7" transform="matrix(2.74279 .18922 -.5452 7.90286 84.8 73.1)"/><path fill="#e8edea" fill-opacity=".9" d="M111 42.4L71.7 15.1l-1.4 7.5L97 50.9z"/><path fill="#f1fcff" fill-opacity=".4" d="M14.7 26L4.4 11.4 9.3 8l10.3 14.8z"/><path fill="#274512" fill-opacity=".6" d="M72.2 27.6l8.8 8.2-21.2 22.6-8.8-8.2z"/><ellipse cx="45" cy="167" fill="#000502" fill-opacity=".6" rx="70" ry="12"/><path fill="#22321e" fill-opacity=".6" d="M232 26.8l-41.6 63.7 1.3-7.1 62.7-4.1z"/><path fill="#f9c5cb" fill-opacity=".4" d="M123.6 84.6l-2.8 7.9-9.7 2.5 2.9-11.2z"/><ellipse cx="129" cy="83" fill="#000012" fill-opacity=".8" rx="7" ry="12"/><circle r="1" fill="#c6cfbb" fill-opacity=".5" transform="matrix(-1.00802 -2.9685 16.91825 -5.74499 46.3 20.5)"/><path fill="#cedce4" fill-opacity=".8" d="M173.3 4.7L78.8-16l-10 12.3 39.9 36.8z"/><circle r="1" fill="#4e5027" fill-opacity=".5" transform="matrix(.8276 -15.79158 71.84816 3.7654 187.7 133.4)"/><path fill="#34421d" fill-opacity=".5" d="M2 37L-16-1l57 45z"/><ellipse cx="51" cy="110" fill="#3a4920" fill-opacity=".7" rx="21" ry="30"/><path fill="#dfe7da" fill-opacity=".7" d="M51.6 33.1l-3.2-14.7 39 34.3-14.6-16.4z"/><path fill="#5f7551" fill-opacity=".7" d="M20.6 76.8L7.8 60.6l80-12.2-58 9.6z"/><circle r="1" fill="#f5f5f5" fill-opacity=".5" transform="matrix(-6.87367 -33.06187 10.33633 -2.14896 215 3.9)"/><ellipse cx="228" cy="88" fill="#ffffed" fill-opacity=".3" rx="35" ry="3"/><path fill="#0a1500" fill-opacity=".5" d="M257.8 124.3l-36.6-5.8 3-18.8 36.6 5.8z"/><path fill="#e7b7ff" fill-opacity=".4" d="M156 70h7v8h-7z"/><path fill="#8eb293" fill-opacity=".4" d="M113 166.3l-22.1-36.1 12.5 18.1 14.7 13.1z"/><path fill="#1b2e11" fill-opacity=".3" d="M255.6 75.9L217 80l-5.2-62.8-9.1 15.7z"/><path fill="#ebede8" fill-opacity=".6" d="M49.5 51.1l13.2-19-18.3 9.5-16.2-12.5z"/><path fill="#1f3b08" fill-opacity=".2" d="M92 72l43 4-20-51z"/><path fill="#f7fcff" fill-opacity=".4" d="M38.3 23l-25.7 4-1-6 25.8-4z"/><path fill="#809075" d="M37 21l9.3-2.1L32.8-16h7.6z"/><path fill="#4c5154" fill-opacity=".5" d="M249 17l22 1-30 19z"/><path fill="#f3f7f9" fill-opacity=".5" d="M83.9 52.7L74.5 45l17.6-21.8 9.4 7.6z"/><path fill="#9282b0" fill-opacity=".5" d="M198 65l1 33-27-18z"/><path fill="#d596a1" fill-opacity=".4" d="M133.2 78.5l4.2-2.6 3.7-15.9-7 3.6z"/><path fill="#432e2b" fill-opacity=".7" d="M174.1 66.7l42.6 8.1-34.7-2.1-8.2 28.3z"/><path fill="#eef2f2" fill-opacity=".5" d="M154.1-14.5l-7.7 56.8-16.1-23.8 78 13z"/><path fill="#929a89" fill-opacity=".5" d="M8 30L7 47l25-2z"/><path fill="#af977d" fill-opacity=".4" d="M83.9 102.3L64.8 91.5 82 83l-14.5-.6z"/><path fill="#0a2600" fill-opacity=".6" d="M54 60l1 31-8-26z"/><path fill="#99726b" fill-opacity=".7" d="M263.9 79.7l-52.6 2.4 59.7 7.8v19.7z"/><ellipse cx="160" cy="142" fill="#b0bd94" fill-opacity=".5" rx="5" ry="3"/><path fill="#3f5b19" fill-opacity=".6" d="M85 5l-8 6 10 13z"/><path fill="#032108" fill-opacity=".2" d="M129.3 20.1l9.4 14.4-5 27.3-12 43.6z"/><path fill="#eef1e9" fill-opacity=".5" d="M39 56L14 42l26 6z"/><path fill="#fffffb" fill-opacity=".5" d="M186 62.7l12-.4v5l-12 .4z"/><path fill="#363327" fill-opacity=".5" d="M89 44h6v51h-6z"/><path fill="#f3f3f3" fill-opacity=".7" d="M216.6-16L238 38.5l33-53-126.4 43.7z"/></g></svg>