<svg xmlns="http://www.w3.org/2000/svg" viewBox="0 0 300 199"><defs/><path fill="#7a4938" d="M0 0h300v199H0z"/><g transform="translate(.6 .6) scale(1.17188)"><circle cx="190" cy="14" r="159" fill="#969095" fill-opacity=".8"/><circle r="1" fill="#060017" fill-opacity=".7" transform="matrix(22.0437 -59.07734 21.91054 8.17554 87 127.1)"/><circle r="1" fill="#f6e0ed" fill-opacity=".8" transform="rotate(-141.4 67 -9) scale(33.21841 24.68553)"/><circle r="1" fill="#461107" fill-opacity=".7" transform="matrix(25.00263 -11.8817 14.66303 30.85538 233.4 5.5)"/><ellipse cx="21" cy="67" fill="#010000" fill-opacity=".8" rx="21" ry="28"/><circle r="1" fill="#451300" fill-opacity=".6" transform="matrix(-28.5436 9.6898 -5.69626 -16.77968 167.4 68.6)"/><circle cy="129" r="43" fill="#a3d8f9" fill-opacity=".3"/><circle r="1" fill="#a0aea6" fill-opacity=".7" transform="rotate(-104.8 9.6 12.4) scale(20.16935 132.97081)"/><path fill="#bbcfdc" fill-opacity=".5" d="M177 85h61v80h-61z"/><path fill="#d7ecfe" fill-opacity=".7" d="M90.2 185l11.7-38.2 24.4 30.2 82.6-4.6z"/><path fill="#906b61" fill-opacity=".7" d="M171 101l46 42-185-18z"/><circle r="1" fill="#fafff4" fill-opacity=".4" transform="matrix(3.25438 17.3451 -29.2183 5.48209 60 78.8)"/><path fill="#00001c" fill-opacity=".6" d="M57 185l61-48-83 7z"/><path fill="#e8ddd0" fill-opacity=".6" d="M145.9 87l-.8 15.9-35-1.8.8-16z"/><path fill="#5e3434" fill-opacity=".5" d="M60 21h40v44H60z"/><circle r="1" fill="#d0bcb2" fill-opacity=".3" transform="matrix(61.58292 30.49892 -11.99202 24.2141 193.7 27.3)"/><circle cx="226" cy="29" r="19" fill="#824138" fill-opacity=".8"/><path fill="#3c4754" fill-opacity=".5" d="M231.2 96.3l23.3-5.8 14.3 57.2-23.3 5.8z"/><circle r="1" fill="#000026" fill-opacity=".6" transform="matrix(21.13726 -12.73258 5.3885 8.94541 84.6 102.7)"/><circle r="1" fill="#5f2c1c" fill-opacity=".5" transform="matrix(-11.14976 -21.78855 10.33516 -5.28877 146 73.8)"/><path fill="#c0c7bd" fill-opacity=".5" d="M88 68l-34 56-11-71z"/><circle r="1" fill="#140503" fill-opacity=".9" transform="matrix(-3.37567 10.75956 -60.2472 -18.90176 255 6.3)"/><path fill="#c7d2dc" fill-opacity=".5" d="M240 121l15 64-82-111z"/><path fill="#73605c" d="M154 134l-52 47 35 4z"/><path fill="#dbdadc" fill-opacity=".6" d="M32.2 108.9l11.7 24-28.2-26.4 24.1-12.2z"/><circle r="1" fill="#fff" fill-opacity=".5" transform="matrix(-1.49864 19.71759 -14.23708 -1.0821 111.9 32.3)"/><path fill="#eef2ff" fill-opacity=".4" d="M161 146l30-12 11 51z"/><circle r="1" fill="#686a6f" fill-opacity=".7" transform="matrix(-18.1624 -14.97193 18.62204 -22.59034 20.2 159.3)"/><circle cx="108" cy="71" r="17" fill="#3d0000" fill-opacity=".3"/><path fill="#000516" fill-opacity=".7" d="M116.5 135.3l6.5-9.1-42 16.5L18.5 185z"/><path fill="#c4ebff" fill-opacity=".3" d="M200.7 82.6l-5.9-94.9 12.5 52.8 30.8 18.4z"/><circle r="1" fill="#915f56" fill-opacity=".5" transform="matrix(4.24804 -6.12555 25.0895 17.39946 163.9 23.8)"/><path fill="#002028" fill-opacity=".7" d="M50.2 96.6l-3.6 20.7-10.8-2 3.6-20.6z"/><circle r="1" fill="#6b6c54" fill-opacity=".6" transform="matrix(-3.836 1.62039 -7.3567 -17.41574 216.4 103.6)"/><path fill="#341b00" fill-opacity=".6" d="M160 163h21v7h-21z"/><path fill="#7f5d57" d="M142 136.6l-32.6-7.7.8-30.1 31.3 4.5z"/><path fill="#000020" fill-opacity=".5" d="M103 64L69 99l42 17z"/><path fill="#c3cec7" fill-opacity=".5" d="M22.2 20L-.5 57.9-20.2 46 2.5 8.2z"/><circle r="1" fill="#7c7f89" fill-opacity=".8" transform="rotate(31.4 -184.8 465.5) scale(19.07964 15.946)"/><path fill="#c1c7c7" fill-opacity=".7" d="M100 20l20-19-73 8z"/><ellipse cx="36" cy="68" fill="#522319" fill-opacity=".6" rx="7" ry="24"/><circle r="1" fill="#f7ecf5" fill-opacity=".8" transform="matrix(5.25204 -24.99616 10.72834 2.25417 132.8 0)"/><path fill="#fbfdff" fill-opacity=".6" d="M195 84l-23-5 41 29z"/><path fill="#faffff" fill-opacity=".4" d="M96 185v-24l20-25z"/><circle r="1" fill="#e9fefe" fill-opacity=".3" transform="matrix(14.02972 .47152 -.3328 9.9023 163.4 43.6)"/><ellipse cx="34" cy="4" fill="#89897a" fill-opacity=".7" rx="20" ry="38"/><path fill="#391501" fill-opacity=".3" d="M151.1 81.6l82.5-.3-42.3 3.2 8.3-50.2z"/><path fill="#2a3849" fill-opacity=".5" d="M58 22h21v22H58z"/><path fill="#1e0801" fill-opacity=".7" d="M148.7 86.8l15.2-8.8-9.5 21.4.3 9.5z"/><path fill="#88513f" fill-opacity=".6" d="M112 72l70-17-58-5z"/><circle cy="95" r="13" fill="#b5e1eb" fill-opacity=".4"/><path fill="#fff4e9" fill-opacity=".2" d="M133.4 164.4l15.4-67.7 16.7 43-37.4-6.2z"/><path fill="#afa59c" fill-opacity=".9" d="M61.1 84.7l-40.5 23.5 49.3-49.6-28.1-9.8z"/><ellipse cx="167" cy="129" fill="#7e3b14" fill-opacity=".4" rx="9" ry="17"/><circle r="1" fill="#bac9bc" fill-opacity=".5" transform="matrix(-10.23704 13.45671 -19.29039 -14.67494 181.3 7.6)"/><ellipse cx="127" cy="159" fill="#2f1e17" fill-opacity=".5" rx="20" ry="4"/><path fill="#955044" fill-opacity=".5" d="M20 124h50v18H20z"/><path fill="#beb0ac" d="M112.7 97l12.4-15.3 3.7-15 5.7 28.1z"/><circle cx="93" cy="121" r="9" fill="#c18178" fill-opacity=".6"/><path fill-opacity=".5" d="M26 41v57l-37-28z"/><circle r="1" fill="#995347" fill-opacity=".5" transform="rotate(-78 67.8 -21) scale(15.87485 22.6669)"/><path fill="#9fa7b6" fill-opacity=".5" d="M246 124l-53 36-19-27z"/><path fill="#fef5fe" fill-opacity=".3" d="M109.2 136.1l23.1-2.1 38.3 51-30.7-35.9z"/><path fill="#aca9c3" fill-opacity=".5" d="M156 177.2l3.1-23.7-16.1 11.1-38.8-2.8z"/><path fill="#adccdd" fill-opacity=".4" d="M231.1 46.3L274 32.4l5 15.3-43 13.9z"/></g></svg>