<svg xmlns="http://www.w3.org/2000/svg" viewBox="0 0 300 199"><defs/><path fill="#543c2b" d="M0 0h300v199H0z"/><g transform="translate(.6 .6) scale(1.17188)"><path fill="#f3c2b1" fill-opacity=".6" d="M123 182l83 3-68-201z"/><ellipse cx="226" cy="49" fill="#08080a" fill-opacity=".6" rx="33" ry="106"/><path fill="#1d1614" fill-opacity=".6" d="M109 178l38-100-163 86z"/><circle r="1" fill="#f1ffff" fill-opacity=".5" transform="rotate(-74 164.8 -16.2) scale(63.0549 7.62961)"/><circle r="1" fill="#905d41" fill-opacity=".8" transform="matrix(-11.3615 1.10586 -12.69426 -130.41932 179.2 95.6)"/><circle r="1" fill="#efd8c4" fill-opacity=".5" transform="matrix(-7.30632 -56.25552 7.8183 -1.01542 136.5 30.4)"/><circle r="1" fill="#822912" fill-opacity=".5" transform="matrix(-3.58723 -24.5896 9.41222 -1.3731 154.5 142.6)"/><circle r="1" fill="#b7a2a4" fill-opacity=".6" transform="rotate(167.4 114.9 98.3) scale(71.3882 7.68943)"/><path fill="#412c22" fill-opacity=".7" d="M-16 185L95 32.6l56.6 59.1-31.4 21.6z"/><circle r="1" fill="#b07b5b" fill-opacity=".6" transform="matrix(-5.72651 1.98298 -22.38447 -64.6425 159.4 50.2)"/><ellipse cx="136" cy="149" fill="#e4eeff" fill-opacity=".4" rx="9" ry="41"/><circle r="1" fill="#ecd5ca" fill-opacity=".8" transform="matrix(10.91642 -4.40747 1.89102 4.68367 136.7 35.5)"/><path fill="#e0dfe9" fill-opacity=".6" d="M169.6 177l-11.5-3.2 8.3-28.9 11.5 3.3z"/><circle r="1" fill="#492619" fill-opacity=".5" transform="rotate(-172.5 54.4 6.6) scale(30.31233 11.20969)"/><path fill="#84472f" fill-opacity=".5" d="M238 185l-60-23-22-74z"/><circle r="1" fill="#0f1212" fill-opacity=".5" transform="matrix(-16.42233 -7.2431 19.48351 -44.17503 93 121.6)"/><path fill="#794b38" fill-opacity=".5" d="M258.3 161.8l-21.7 3.8-7-39.4 21.8-3.8z"/><path fill="#71452e" fill-opacity=".7" d="M124.3 38.7l18.5 57-17 5.6-18.6-57z"/><path fill="#42271e" fill-opacity=".6" d="M188.5-14.1l22.9 125.9-45.9-62.6 21.3-4.6z"/><path fill="#fbffff" fill-opacity=".5" d="M135 130l-10 19-1-8z"/><ellipse cx="172" cy="26" fill="#c9b493" fill-opacity=".5" rx="5" ry="18"/><path fill="#f3ebf1" fill-opacity=".5" d="M159.9 111.4l-17 8.6-6.8-13.4 17-8.6z"/><circle r="1" fill="#4e3229" fill-opacity=".6" transform="matrix(7.90584 .637 -4.41302 54.77101 198.2 138.6)"/><circle r="1" fill="#201b16" fill-opacity=".5" transform="rotate(173.1 48.8 29.3) scale(6.25647 62.40457)"/><path fill="#eee5dd" fill-opacity=".6" d="M134.3 26.5l10.9-7 6.5 10-10.9 7z"/><path fill="#f6e9ef" fill-opacity=".5" d="M157.7 121.3l1.9-.6 6.7 22-1.9.6z"/><path fill="#ffdac3" fill-opacity=".3" d="M131.2 74.2l17.6-20.4 24.1 64.4-11.3-50.5z"/><path fill="#4a3524" fill-opacity=".5" d="M166 38L134 4l33-1z"/><circle r="1" fill="#cfccd1" fill-opacity=".8" transform="rotate(-143.8 91.4 63.7) scale(7.10944 22.68514)"/><path fill="#a16140" fill-opacity=".5" d="M200 87l-22 72-23-66z"/><path fill="#6c452e" fill-opacity=".6" d="M123 79l28 3v9z"/><path fill="#6b301f" fill-opacity=".5" d="M163.8 139l3.9 14.4-13.5 3.7-3.9-14.5z"/><circle r="1" fill="#4d352b" fill-opacity=".5" transform="matrix(-75.95395 52.8226 -14.50874 -20.8622 17.8 142)"/><path fill="#ad7655" fill-opacity=".4" d="M141.3 48.2l15.6-63-26.3 6.4 72.1 114.3z"/><path fill="#3d2b25" fill-opacity=".7" d="M133.3 68.1l-13.9 100.5-45.4 5.2 55.6-39.7z"/><ellipse cx="206" cy="169" fill="#916970" fill-opacity=".5" rx="5" ry="28"/><circle r="1" fill="#1e1713" fill-opacity=".4" transform="rotate(162 110.6 32.6) scale(35.90084 103.87211)"/><circle r="1" fill="#f3e0d9" fill-opacity=".5" transform="matrix(-2.78555 -28.33303 3.19633 -.31425 137 52.3)"/><path fill="#ebdfdf" fill-opacity=".6" d="M154 112l-13-10 14-12z"/><path fill="#593422" fill-opacity=".7" d="M138.6 21.9l-22.3 23.6-9.3-6.1L93.2-6.2z"/><circle cx="18" cy="42" r="75" fill="#4e332b" fill-opacity=".5"/><path fill="#090f12" fill-opacity=".3" d="M129.1 154.5l-14.2 15.3 6.7-52.6-59.8 12.5z"/><path fill="#a7654b" fill-opacity=".7" d="M144.3 131.1l21.8 48.4-17-4.4-2.4-10.2z"/><path fill="#b08264" fill-opacity=".5" d="M180 102l-19 14 16 45z"/><path fill="#5e392a" fill-opacity=".4" d="M265 114l-37 59 12-67z"/><path fill="#251d18" fill-opacity=".6" d="M228.4 168.9l-9.8-13.4-20.4-23.2L258 27.4z"/><path fill="#533323" fill-opacity=".8" d="M114.3 81.2l10 37 13.1-10.8 8.4-17.1z"/><path fill="#bcd9f4" fill-opacity=".3" d="M234 165h22v5h-22z"/><path fill="#4a3529" fill-opacity=".5" d="M186.2 86.8l10.2-6.3 25.4 40.7-10.2 6.3z"/><path fill="#c6ab8c" fill-opacity=".6" d="M131.8 16.7l-11-30 9.4-3.4 11 30z"/><path fill="#e2e9ef" fill-opacity=".5" d="M125 150l10-42 14-1z"/><path fill="#caa890" fill-opacity=".5" d="M163 75l3-18 12 39z"/><path fill="#c36d53" fill-opacity=".4" d="M143 123l2 24 14-40z"/><ellipse cx="186" fill="#f8bc83" fill-opacity=".1" rx="29" ry="12"/><circle r="1" fill="#783829" fill-opacity=".5" transform="rotate(-2.1 4416 -4245) scale(2.79711 44.80997)"/><path fill="#030000" fill-opacity=".2" d="M149.1-.5L46.7-16l105.6 6 31.3 90.2z"/><path fill="#512e24" fill-opacity=".5" d="M176 10l8 22-7 2z"/><path fill="#8b553d" fill-opacity=".9" d="M185.2 73.7l-2.5-16.3L172.1 81l10.2 15.7z"/><path fill="#a02a01" fill-opacity=".2" d="M157.1 104.5l-1.9-47 12.1 62.7-11.1-12.8z"/><path fill="#ffe9ef" fill-opacity=".5" d="M153 81h2v21h-2z"/><path fill="#d08452" fill-opacity=".3" d="M144.6 29.4l19.4 7.9-8.6 21.3-19.4-7.9z"/><path fill="#ffeaff" fill-opacity=".6" d="M161.4 83.5l-1.8-16.9 1-.1 1.8 16.9z"/><path fill="#d6daea" fill-opacity=".4" d="M161 157h10v13h-10z"/><path fill="#94775e" d="M151.7-16l-.4 37.1-6.2-36.1-10.2 35z"/><path fill="#ffffe7" fill-opacity=".5" d="M157 113h3v6h-3z"/></g></svg>