<svg xmlns="http://www.w3.org/2000/svg" viewBox="0 0 300 199"><defs/><path fill="#493e34" d="M0 0h300v199H0z"/><g transform="translate(.6 .6) scale(1.17188)"><circle cx="229" cy="112" r="107" fill="#d9dbe7" fill-opacity=".6"/><circle r="1" fill="#836c66" fill-opacity=".9" transform="matrix(-53.02389 21.10077 -10.91682 -27.43276 139.1 99.7)"/><circle cx="86" r="69" fill="#030003" fill-opacity=".7"/><path fill="#ebf5ff" fill-opacity=".5" d="M207 89l64-95-146 56z"/><circle r="1" fill="#31362d" fill-opacity=".6" transform="matrix(-31.56223 4.94251 -7.14515 -45.62797 255 127.6)"/><circle r="1" fill="#d1dce9" fill-opacity=".5" transform="rotate(-68.2 196 -47.2) scale(50.0717 32.79758)"/><path fill="#0a0410" fill-opacity=".6" d="M233.5-10.1L77.9 16.1l62.9 3.7 80.4-3.4z"/><circle r="1" fill="#101629" fill-opacity=".9" transform="rotate(-120.2 81 -2.3) scale(17.22917 15.46651)"/><path fill="#774638" fill-opacity=".6" d="M89.6 173.4l55.9-105 23 12.2-56 105z"/><path fill="#a1a0a0" fill-opacity=".5" d="M21 47.1l38.6 10.4L55 74.9 16.4 64.5z"/><circle r="1" fill="#0e0602" transform="matrix(-7.04146 15.64859 -65.7121 -29.56874 0 .3)"/><path fill="#f7ffff" fill-opacity=".3" d="M217 70l-39-57-42 28z"/><ellipse cy="168" fill="#0c0100" fill-opacity=".5" rx="89" ry="19"/><circle r="1" fill="#92d2e8" fill-opacity=".2" transform="matrix(16.93567 18.9036 -14.09909 12.63133 108.7 99.7)"/><circle cx="185" cy="92" r="11" fill="#63362d" fill-opacity=".7"/><ellipse cy="102" fill="#231610" fill-opacity=".6" rx="17" ry="56"/><circle r="1" fill="#9ba5ac" fill-opacity=".5" transform="matrix(20.79814 2.95473 -5.3033 37.32955 227.8 75.2)"/><path fill="#c7d1de" fill-opacity=".8" d="M269 25l-1-41-80 60z"/><path fill="#586469" fill-opacity=".4" d="M128.6 31.5l24.1 9.8-9.3 23.2-24.1-9.8z"/><path fill="#b58071" fill-opacity=".7" d="M179.2 92.6l-30.9-24.8 15.3-4.2 26.6 4.2z"/><path fill="#bbbfc8" fill-opacity=".8" d="M117.5 185l43.3-86.1 11 5.6 46 30z"/><path fill="#0c0c00" fill-opacity=".3" d="M215.8 113.6l-4.5 21.3 56.4-3.1-3.6 53.2z"/><ellipse cx="73" cy="44" fill="#2f201a" rx="13" ry="47"/><path fill="#00010f" fill-opacity=".6" d="M83.9 57.5L134.4-16 99.2 78.3l53.5-16.7z"/><path fill="#6c4e41" fill-opacity=".9" d="M231.4 10.9l-42.4.4 35.5-11 21.6 1.3z"/><path fill="#585344" fill-opacity=".3" d="M-8 33l151 99-23 53z"/><ellipse cx="183" cy="6" fill="#000114" fill-opacity=".7" rx="16" ry="11"/><path fill="#b0b6bf" fill-opacity=".8" d="M205.8 109.4l55-88.8-37.2 14.6-31.5 70.3z"/><circle r="1" fill="#000007" fill-opacity=".5" transform="matrix(-15.95203 61.44363 -24.62458 -6.39305 113.2 11.2)"/><path fill="#757972" fill-opacity=".5" d="M271 47l-48 93-21-24z"/><path fill="#eff1ed" fill-opacity=".3" d="M43.6 66.4l-10.1-8.2 7-8.6 10 8.2z"/><circle r="1" fill="#9aa9b3" fill-opacity=".4" transform="matrix(-2.7941 -28.49644 25.70466 -2.52036 216.2 166)"/><path fill="#250e06" fill-opacity=".4" d="M168.6 91.8l-42.8 45.3 5.8 6.9 32-62.2z"/><path fill="#38231a" fill-opacity=".6" d="M29 52L15 22l45 30z"/><path fill="#c5cfdd" fill-opacity=".4" d="M167.1 20.6l-34.3 61.5 26.7-28.7 44-34.4z"/><path fill="#230f1f" fill-opacity=".5" d="M126 74h12v14h-12z"/><path fill="#000002" fill-opacity=".5" d="M211 19l4-4-16-2z"/><path fill="#3a2620" fill-opacity=".9" d="M41.8-7.6L-16-12.2 74.9-16l16.6 82z"/><path fill="#eef2f2" fill-opacity=".6" d="M196.8 74l-19.3-8.3 11.7-27.6 19.3 8.2z"/><path fill="#5c6773" fill-opacity=".5" d="M167.5-7.6L164.3 10l-13.8-2.5 3.2-17.7z"/><path fill="#9a5c4f" fill-opacity=".5" d="M105.2 156.7L80 181.1l31-7.4 13.3-43z"/><path fill="#0c0300" fill-opacity=".7" d="M24 24l41 1 7 31z"/><path fill="#484d4f" fill-opacity=".6" d="M125.8 57.1l8 3.3 11.8-28.8-27.9 17.3z"/><circle cx="36" cy="129" r="29" fill="#4d4b3d" fill-opacity=".5"/><path fill="#c2c2c2" fill-opacity=".4" d="M141.7 47.9l10.1-6 20.6 24.8-47.9-10.1z"/><path fill="#010c24" fill-opacity=".6" d="M116.2 65.3l-35.5 4.2 45.7 12.3 20.3-21.3z"/><path fill="#ddc9c1" fill-opacity=".1" d="M106.6 89.7l-9.1 65.4 30.2-44 33.9-33.3z"/><ellipse cy="86" fill="#110704" fill-opacity=".3" rx="38" ry="14"/><path fill="#06060e" fill-opacity=".7" d="M163.6 16.2l-13.9 17.6L76.5 5.1 123.7-16z"/><path fill="#615b60" fill-opacity=".4" d="M-10.6 37l14.5 8 61.3 47.4L4.5 24.6z"/><path fill="#727a82" fill-opacity=".4" d="M245.3 150.6l-7.9-1.6-23.5 10 33.3 26z"/><path fill="#181511" fill-opacity=".4" d="M271 136l-30.3 49h28.9l-30-44z"/><path fill="#61352f" fill-opacity=".4" d="M190.3 102l-8.9-32-8.8.5 22.2 14.9z"/><circle r="1" fill="#b0b5bc" fill-opacity=".5" transform="matrix(-21.20723 38.10187 -11.67764 -6.4997 194 168.9)"/><path fill="#78899b" fill-opacity=".3" d="M271 4.7v59.7l-55-17.8 41.3-19.4z"/><path fill="#f0957c" fill-opacity=".2" d="M192.6 20.6L199 4.7l32.6 9.4-23-2.7z"/><path fill="#787d76" fill-opacity=".3" d="M244 107l-65 2 32 18z"/><ellipse cx="181" cy="47" fill="#e4e9ed" fill-opacity=".5" rx="30" ry="11"/><path fill="#333c43" fill-opacity=".5" d="M127.7 34.9l-5.4 24.9L177 11.2l-58.9 36.2z"/><path fill="#939da5" fill-opacity=".7" d="M182.4 16.3l-11.2.8-18.8 18.6-11.7 17.5z"/><path fill="#5b4036" fill-opacity=".8" d="M127.6 161.8L150 101l-39.2 66 13.1 14.1z"/><path fill="#bac6d6" fill-opacity=".6" d="M223 12l7 10-44 13z"/><path fill="#382d22" fill-opacity=".6" d="M86.8 173.9l-34.3-22.4 8.7-13.4 34.3 22.4z"/><path fill="#3c352c" fill-opacity=".5" d="M38 61l-43 61 27 35z"/><path fill="#bebbcb" fill-opacity=".5" d="M139.9 85.7l4.4-16.7 29.6-26.2L138 70.7z"/></g></svg>