<svg xmlns="http://www.w3.org/2000/svg" viewBox="0 0 300 199"><defs/><path fill="#533d37" d="M0 0h300v199H0z"/><g transform="translate(.6 .6) scale(1.17188)"><circle r="1" fill="#ccbab5" fill-opacity=".6" transform="matrix(-70.64735 -32.04706 20.74178 -45.72499 111 106.4)"/><circle r="1" fill="#040200" fill-opacity=".8" transform="rotate(3 -241.8 2722) scale(255 36.74097)"/><circle r="1" fill="#f4fdfa" fill-opacity=".6" transform="matrix(8.04323 -17.40714 31.47324 14.54268 61 95.3)"/><circle cx="36" cy="147" r="41" fill="#0b0200" fill-opacity=".5"/><circle r="1" fill="#b1c6da" fill-opacity=".5" transform="matrix(-6.20531 47.94692 -12.8828 -1.6673 253.3 100.6)"/><circle r="1" fill="#040000" fill-opacity=".6" transform="rotate(-116.5 35.3 5.7) scale(30.97096 70.66642)"/><circle r="1" fill="#5d3937" fill-opacity=".5" transform="rotate(-156.9 82.5 40.9) scale(58.49816 26.72139)"/><circle r="1" fill="#ffe5bb" fill-opacity=".3" transform="rotate(-44.4 124.9 -96) scale(36.31483 21.66888)"/><circle cx="202" cy="51" r="43" fill="#0d0703" fill-opacity=".6"/><circle cx="132" cy="164" r="26" fill="#bac7d9" fill-opacity=".5"/><ellipse cx="242" cy="152" fill="#71757f" fill-opacity=".8" rx="15" ry="56"/><path fill="#bfada9" fill-opacity=".9" d="M180.6 99.7l-23.7-11-65.7-35.8 80.2 29.7z"/><ellipse cy="58" fill="#0f0701" fill-opacity=".7" rx="25" ry="99"/><path fill="#f7ffff" fill-opacity=".5" d="M74 67h15v61H74z"/><path fill="#341b21" fill-opacity=".7" d="M154.3 103.1l11.2-4.4 8.8 12.9-20.2 27.4z"/><ellipse cx="129" cy="98" fill="#00001b" fill-opacity=".5" rx="7" ry="18"/><path fill="#dce1e0" fill-opacity=".5" d="M25 87l70 47-16-75z"/><circle r="1" fill="#321c14" fill-opacity=".7" transform="matrix(-34.36824 -30.90388 6.71577 -7.46862 139 46)"/><path fill="#f5faff" fill-opacity=".5" d="M255 95l-7-25 11-26z"/><path fill="#d6a7a6" fill-opacity=".5" d="M160 79l-14 70-11-44z"/><path fill="#5c3e24" fill-opacity=".5" d="M104 17l13 12-40 43z"/><path fill="#8f4f3a" fill-opacity=".6" d="M89 176.6l10-82.4 10 1.2-10 82.4z"/><path fill="#e4b99f" fill-opacity=".4" d="M109 26L90 64l33 53z"/><circle r="1" fill="#484a47" fill-opacity=".6" transform="rotate(-12.1 804.4 -855.5) scale(36.05656 30.59711)"/><path fill="#9b8f81" fill-opacity=".7" d="M66 75h5v50h-5z"/><path fill="#2e1c0f" fill-opacity=".5" d="M90.3 144.8l-28.2-20.9-78.1 25.6L75.4 185z"/><path fill="#413b38" fill-opacity=".7" d="M254.3 127.9l16.7-7-17.7-5-48.3 6.8z"/><path fill="#796b54" fill-opacity=".5" d="M38 131l22-9-35-35z"/><circle r="1" fill="#b2bac8" fill-opacity=".6" transform="matrix(1.0703 -5.8793 22.29963 4.05955 252.5 136.6)"/><path fill="#200f09" fill-opacity=".6" d="M154 79l71-31-80-11z"/><ellipse cx="89" cy="122" fill="#eff2ec" fill-opacity=".6" rx="6" ry="16"/><path fill="#d3e2e9" fill-opacity=".5" d="M112 122h7v23h-7z"/><path fill="#e1e1df" fill-opacity=".9" d="M84.1 82.3l24.7-21.9-43.2 15.3.9-10.3z"/><ellipse cx="53" cy="51" fill="#190c06" fill-opacity=".5" rx="29" ry="14"/><path fill="#c5c5e1" fill-opacity=".5" d="M159.7 94.8l-7.9-6.2 10.5-13.4 7.9 6.2z"/><path fill="#8d5a52" fill-opacity=".5" d="M91 72h21v9H91z"/><path fill="#3c332e" fill-opacity=".6" d="M248.5 94.2l-42.3-10.1-41.9-23.3 39.6 77.6z"/><path fill="#522e38" fill-opacity=".5" d="M125 86l34 39 1-17z"/><path fill="#e0e0d9" fill-opacity=".4" d="M49.3 69.8l-18.1 5.3 23.9 46.2 19.8-9.9z"/><path fill="#0c0009" fill-opacity=".2" d="M147.4 135.5l-27.9 7.7 3.8 26.5 3.6-59.5z"/><ellipse cx="233" cy="146" fill="#372d2a" fill-opacity=".6" rx="20" ry="5"/><path fill="#8b8c88" fill-opacity=".5" d="M185 94l-25 76-4-32z"/><path fill="#f3c1b6" fill-opacity=".3" d="M158 123.3l-19.6 34.6 6.5-49.4-18.5 12.2z"/><path fill="#7b849a" fill-opacity=".4" d="M202 153l28 29 41-24z"/><path fill="#55120c" fill-opacity=".5" d="M96.6 100.8l-5.9 1-3.3-18.6 5.9-1z"/><path fill="#ffe1c3" fill-opacity=".5" d="M122 73h29v7h-29z"/><path fill="#86777b" fill-opacity=".5" d="M147.4 85.1l27.7 23.7 13.4 14.1-.6-28.5z"/><path fill="#a6b0ca" fill-opacity=".5" d="M249 102l22 7-53 10z"/><path fill="#90624f" fill-opacity=".6" d="M109 156l-45-37 40 58z"/><path fill="#663421" fill-opacity=".6" d="M149.5 78.2L118.1 93l19.2 4.5 10.1-9.5z"/><path fill="#37261a" fill-opacity=".5" d="M110.1 17.8L36.7 76l57.2-32.6 50.5-13.2z"/><path fill="#fee0db" fill-opacity=".2" d="M165.5 99.5l-26.5 10 12.2-30.8 1.4 14.2z"/><circle cx="213" r="67" fill="#070707" fill-opacity=".5"/><circle r="1" fill="#a27c50" fill-opacity=".6" transform="matrix(2.54821 -3.20171 15.89603 12.65151 127.5 58)"/><path fill="#ffd8c4" fill-opacity=".5" d="M100.6 84.3l16 5.6-1.2 3.8-16-5.6z"/><path fill="#b9866e" fill-opacity=".5" d="M119.7 92.7l-24.3 45.9 17.2-.4 15.6-70.4z"/><path fill="#111007" fill-opacity=".2" d="M140 165h99v5h-99z"/><path fill="#0161ae" fill-opacity=".3" d="M130.9 97.2l21.1 2.4-35.6 11.7 7.5 43.2z"/><path fill="#ab9574" fill-opacity=".5" d="M92.1 43.2L141 73.9l-38.7-34.6-40 50.8z"/><path fill="#814838" fill-opacity=".6" d="M112.9 91.5l-13.5.4-11.2 2.3 12.2 37z"/><path fill="#7a6960" fill-opacity=".5" d="M251 46h5v11h-5z"/><path fill="#23090a" fill-opacity=".5" d="M163.5 129.3l10.6-21.2-.9-5.7-7.9 4.1z"/><path fill="#f9ffff" fill-opacity=".5" d="M81.1 60.8l1 2.8-17.2 5.6-1-2.8z"/><path fill="#440002" fill-opacity=".3" d="M111.7 69.7l-.2.7-5.9-3.6 10.9 27.9z"/><path fill="#1d0400" fill-opacity=".5" d="M85.9 61.2l2.4-7.6 3.8 1.2-2.4 7.6z"/></g></svg>