<svg xmlns="http://www.w3.org/2000/svg" viewBox="0 0 300 199"><defs/><path fill="#4d312c" d="M0 0h300v199H0z"/><g transform="translate(.6 .6) scale(1.17188)"><circle r="1" fill="#dfdde2" fill-opacity=".6" transform="matrix(254.00963 -22.45236 3.42826 38.78484 167.6 9.2)"/><circle r="1" fill="#8d8281" fill-opacity=".6" transform="rotate(-16.9 357.1 -104.5) scale(106.79334 55.08223)"/><circle r="1" fill="#baa08b" fill-opacity=".6" transform="matrix(32.53272 96.11379 -13.8179 4.6771 224.2 65.7)"/><path fill="#26232a" fill-opacity=".7" d="M28 128h55v42H28z"/><path fill="#a7a9b9" fill-opacity=".4" d="M61 97h72v37H61z"/><ellipse cx="173" cy="169" fill="#867273" fill-opacity=".6" rx="83" ry="14"/><circle r="1" fill="#b5afa9" fill-opacity=".6" transform="matrix(17.90743 -1.3791 3.55856 46.2073 33.7 50)"/><circle r="1" fill="#dda797" fill-opacity=".5" transform="matrix(10.99757 40.42798 -7.83307 2.13082 15.6 135.6)"/><path fill="#5f5350" fill-opacity=".6" d="M212 34l7 64L96 50z"/><ellipse cx="53" cy="105" fill="#131317" fill-opacity=".7" rx="8" ry="30"/><path fill="#a7cac1" fill-opacity=".5" d="M172 123.2l-13-.4 1-28 13 .4z"/><circle r="1" fill="#3e0100" fill-opacity=".6" transform="rotate(-73.3 130.3 -41.8) scale(9.22586 19.162)"/><ellipse cx="78" cy="67" fill="#0a1318" fill-opacity=".5" rx="26" ry="9"/><path fill="#fafbf5" fill-opacity=".7" d="M131.8-12.3l22-.4.4 25-22 .4z"/><ellipse cx="246" cy="74" fill="#2d2721" fill-opacity=".8" rx="14" ry="21"/><path fill="#774328" fill-opacity=".7" d="M243 158l-10-70-42 11z"/><circle r="1" fill="#f6e1dc" fill-opacity=".4" transform="matrix(-8.1089 -12.3851 7.0905 -4.64237 70 99)"/><path fill="#969089" fill-opacity=".5" d="M166.1 71.3l49.7-16.2-11.8 51.7 67-94.1z"/><ellipse cx="245" cy="125" fill="#fffac0" fill-opacity=".3" rx="8" ry="35"/><ellipse cx="123" cy="124" fill="#c7c9ce" fill-opacity=".5" rx="4" ry="25"/><path fill="#4e4a50" d="M69.7 171.4l22.1-85.5-31.2 57.7-28.3-22.3z"/><path fill="#f6f0fa" fill-opacity=".4" d="M59 123.2L31.5 116l10.6 21.2 12.5-17.6z"/><path fill="#cec0ce" fill-opacity=".6" d="M224-16l47 21-98 34z"/><path fill="#190001" fill-opacity=".5" d="M12.7 119.2L40 169.3l13.1-14.5-1.6-13.7z"/><path fill="#f9ffff" fill-opacity=".5" d="M22 146h6v24h-6z"/><path fill="#ad161a" fill-opacity=".6" d="M17 105h6v61h-6z"/><path fill="#171511" fill-opacity=".5" d="M154.7 117.3l66 11.7-3.4 19.7-66-11.7z"/><path fill="#050607" fill-opacity=".6" d="M149.5 60.3l-1.1 12.4H178l-4.2 26.9z"/><ellipse cx="219" cy="155" fill="#554c4d" fill-opacity=".7" rx="161" ry="7"/><circle r="1" fill="#3b0f09" fill-opacity=".4" transform="matrix(1.88796 36.04541 -2.08015 .10895 104.8 115.1)"/><path fill="#9f0305" fill-opacity=".5" d="M136 91h13v43h-13z"/><path fill="#b4aca5" d="M17.1 120.8L1.3 165.2l16.2-28.3-24.4-23z"/><path fill="#987366" fill-opacity=".7" d="M123.7 60.4l-59 34.8 51.5 1.4-23.9-57.8z"/><circle r="1" fill="#411200" fill-opacity=".6" transform="matrix(3.66824 -.9182 2.30272 9.19952 19.4 0)"/><path fill="#283a50" fill-opacity=".7" d="M-16 182l25.2-41.9-.2-9.5-19.1-20.1z"/><ellipse cx="88" cy="51" fill="#786a65" fill-opacity=".5" rx="83" ry="7"/><path fill="#908e8c" fill-opacity=".5" d="M182 60.4l4.9 27.6-8.9 1.6-4.9-27.6z"/><path fill="#170a08" fill-opacity=".7" d="M125.5 78.9l-9.8 22.3 24.1-3.5-4.8 17.1z"/><path fill="#1d1a16" fill-opacity=".5" d="M169.1 97.2l37.8.4-21.7-53.7L212 79.6z"/><circle r="1" fill="#c4c8d1" fill-opacity=".5" transform="matrix(1.03302 8.01227 -51.76469 6.67404 48.6 27.2)"/><path fill="#412219" fill-opacity=".7" d="M-16 154.5L8.7 51.3 7.6 96.6-16 92.7z"/><ellipse cx="116" cy="123" fill="#3f231c" fill-opacity=".5" rx="2" ry="49"/><path fill="#661c00" fill-opacity=".3" d="M227.7 34.3l2-15.9-36.6 20-32.5 18.3z"/><path fill="#ccb6ae" fill-opacity=".5" d="M226 54l10-22-40 25z"/><path fill="#200" fill-opacity=".6" d="M226.5 99h-5V81h5z"/><path fill="#dacebc" fill-opacity=".6" d="M0 153h16v8H0z"/><path fill="#abb3b9" fill-opacity=".4" d="M87 86h12v48H87z"/><path fill="#493f40" fill-opacity=".9" d="M89.4 100l-9.1 18.4-1.9-56.3-7 20.9z"/><path fill="#332b2d" fill-opacity=".5" d="M103.6 160.6l-45.4-23.2 8.2-16 45.4 23.2z"/><path fill="#cfd9e0" fill-opacity=".5" d="M129 100h3v37h-3z"/><path fill="#1b1519" fill-opacity=".5" d="M37 112l23-43-3 50z"/><path fill="#161518" fill-opacity=".4" d="M118.9 63.6l8.2 11 13.6 1.7-3.3-12.8z"/><path fill="#0c0a06" fill-opacity=".6" d="M14 58.5h2l-2 39h-2z"/><path fill="#baa294" fill-opacity=".7" d="M0 96h39v3H0z"/><path fill="#ac9fa7" fill-opacity=".5" d="M24 127l35-7-36-3z"/><circle r="1" fill="#273134" fill-opacity=".4" transform="matrix(-9.13682 -14.85169 21.04794 -12.94878 253.5 55.7)"/><path fill="#c9cad5" fill-opacity=".5" d="M58 89l8 25 16-5z"/><path fill="#e1cbad" fill-opacity=".5" d="M10 38h2v57h-2z"/><ellipse cx="55" cy="145" fill="#bebfc6" fill-opacity=".6" rx="2" ry="10"/><ellipse cx="158" cy="26" fill="#ceb4bf" fill-opacity=".3" rx="26" ry="25"/><path fill="#2c211d" fill-opacity=".9" d="M146.7 58.8l2.3 41.1 9.6 45.1-1.7-82.2z"/><circle r="1" fill="#895a5d" fill-opacity=".4" transform="matrix(.53795 2.9851 -30.95235 5.57797 163.1 36)"/><path fill="#8c919b" fill-opacity=".7" d="M25.8 141.5l4.3 6.6-17.5-8-28.2-21.4z"/><path fill="#cba46b" fill-opacity=".5" d="M-14 100h31l2 30z"/><path fill="#060104" fill-opacity=".5" d="M47 131h8v23h-8z"/></g></svg>