<svg xmlns="http://www.w3.org/2000/svg" viewBox="0 0 300 199"><defs/><path fill="#5f382f" d="M0 0h300v199H0z"/><g transform="translate(.6 .6) scale(1.17188)"><circle r="1" fill="#e9fbfb" fill-opacity=".6" transform="rotate(76.9 45.1 84) scale(50.46296 235.79983)"/><ellipse cx="62" cy="137" fill="#848289" fill-opacity=".6" rx="105" ry="100"/><ellipse cx="236" cy="129" fill="#000003" fill-opacity=".7" rx="74" ry="69"/><circle r="1" fill="#f0dfe4" fill-opacity=".7" transform="matrix(24.3644 73.73076 -15.41958 5.09542 83.2 36.7)"/><circle r="1" fill="#050a12" fill-opacity=".7" transform="matrix(-27.98354 11.26457 -7.50047 -18.63274 60.7 96.8)"/><path fill="#313a4e" fill-opacity=".6" d="M187 55l-43-12-24 87z"/><ellipse cx="30" cy="23" fill="#e1e6ec" fill-opacity=".9" rx="76" ry="12"/><path fill="#e0d9db" fill-opacity=".4" d="M185 73l60-29-111-60z"/><path fill="#67e6fe" fill-opacity=".5" d="M177 173l-31-61-5 72z"/><ellipse cx="96" cy="114" fill="#f9abae" fill-opacity=".8" rx="14" ry="18"/><circle r="1" fill="#8b7c62" fill-opacity=".7" transform="rotate(-162.7 20.5 30.7) scale(36.84872 29.6454)"/><path fill="#3d170f" fill-opacity=".7" d="M197 39h11v58h-11z"/><circle r="1" fill="#beecf4" fill-opacity=".4" transform="matrix(67.1221 34.14292 -3.62711 7.1306 0 106.2)"/><circle r="1" fill="#eaedfc" fill-opacity=".6" transform="matrix(4.98442 18.59884 -29.21194 7.8287 154.7 22)"/><ellipse cx="124" cy="152" fill="#cd000c" fill-opacity=".4" rx="16" ry="48"/><ellipse cx="76" cy="113" fill="#000215" fill-opacity=".8" rx="5" ry="31"/><circle r="1" fill="#818475" fill-opacity=".4" transform="rotate(-93 114.6 -103) scale(53.5609 30.14224)"/><ellipse cx="81" fill="#e0e7ef" fill-opacity=".8" rx="44" ry="27"/><ellipse cx="91" cy="169" fill="#0f1a1e" fill-opacity=".4" rx="21" ry="42"/><path fill="#f7b3b2" fill-opacity=".5" d="M229.4 82.9L213.6 75l43.2 9.1L271 98.3z"/><path fill="#ff6e97" fill-opacity=".5" d="M120.1 125.5l22.3 10.4-22.6 25.4-14.2 7.3z"/><circle r="1" fill="#6c808a" fill-opacity=".7" transform="matrix(13.83651 22.1572 -25.63521 16.00842 45.6 143.9)"/><ellipse cx="165" cy="55" fill="#030000" fill-opacity=".6" rx="7" ry="10"/><path fill-opacity=".5" d="M155-1.8l-34.5 18.3-1.4-2.7 34.4-18.3z"/><ellipse cx="134" cy="166" fill="#1a0000" fill-opacity=".5" rx="11" ry="19"/><path fill="#efebf9" fill-opacity=".5" d="M21 77l4 41 11-46z"/><path fill-opacity=".6" d="M246 33h10v51h-10z"/><path fill-opacity=".5" d="M12 95h12v16H12z"/><path fill="#bd9f8e" fill-opacity=".5" d="M86 6l24 106 36-41z"/><circle r="1" fill="#514d4c" fill-opacity=".6" transform="matrix(7.02907 -1.5583 6.06435 27.35453 212 98.6)"/><path fill="#2f241e" fill-opacity=".5" d="M152 114h23v31h-23z"/><path fill="#29567b" fill-opacity=".6" d="M135 59h28v38h-28z"/><path fill="#3a3b3a" fill-opacity=".6" d="M191.9-3.7l27.8-8 4.4 15.4-27.8 8z"/><path fill="#f7ede2" fill-opacity=".5" d="M64 51l16 21 74-35z"/><path fill="#4c381e" fill-opacity=".5" d="M40.4 71.8L6.9 66l2.7-15.7L43.1 56z"/><path fill="#e6e8f0" fill-opacity=".6" d="M180.2 2.7L166.8-16l-19.1 73.5 12.4-5.3z"/><ellipse cx="25" cy="7" fill="#000826" fill-opacity=".3" rx="12" ry="6"/><path fill="#05080a" fill-opacity=".5" d="M30 97h54v21H30z"/><path fill="#303c3c" fill-opacity=".9" d="M24 126.1l-27.1 22.3L5 124.9l16.4 1.3z"/><path fill="#b2b0a4" fill-opacity=".5" d="M207 18h26v43h-26z"/><path fill="#fbdfeb" fill-opacity=".3" d="M83.8 115.7L77 140.6l6.5 9.5 21.8-112.4z"/><circle r="1" fill="#2d1d20" fill-opacity=".6" transform="matrix(3.18478 -2.57747 13.31514 16.45245 134.1 101)"/><path fill="#ffb0a2" fill-opacity=".4" d="M215.1 57l-31.9 21 3.1-45.1L168.2 78z"/><circle cx="59" cy="128" r="14" fill="#9db0ac" fill-opacity=".5"/><path fill="#979398" fill-opacity=".7" d="M145.6 144.2l30.5-3-13.8 9.5L128.8 97z"/><path fill="#fff" fill-opacity=".4" d="M-9 83l-7 38 33-8z"/><path fill="#421705" fill-opacity=".5" d="M110 105h23v22h-23z"/><circle r="1" fill="#010000" fill-opacity=".7" transform="matrix(-4.78231 33.60227 -50.70876 -7.21693 222.2 161.6)"/><path fill="#5f1400" fill-opacity=".3" d="M185.7 68.2l23.8-6.5-5.4-23.7-14.8 4.3z"/><path fill="#1f0102" fill-opacity=".5" d="M168 75h36v69h-36z"/><path fill="#f5fbef" fill-opacity=".5" d="M49.8 51.7l76.5-46.6L55.1 43l-13.9 4.4z"/><path fill="#292930" fill-opacity=".5" d="M41.7 160l-26.9 25L97 154l9.9 29.3z"/><path fill="#d8abaf" fill-opacity=".7" d="M127.7 101.5l-7.3 10.7-16.8-44.5-32.4 2.9z"/><ellipse cx="24" cy="111" fill="#f6f5f7" fill-opacity=".5" rx="4" ry="15"/><path fill="#c8b3a9" fill-opacity=".7" d="M84 32l21 38 51-36z"/><path fill="#380800" fill-opacity=".5" d="M141 56h37v7h-37z"/><ellipse cx="123" cy="70" fill="#3b1e00" fill-opacity=".3" rx="5" ry="23"/><path fill="#b8897f" fill-opacity=".6" d="M237.3 61.2l3.7-18.7.3-5.8 6.2 23.3z"/><circle cx="151" cy="105" r="6" fill="#ffb8b0" fill-opacity=".5"/><path fill="#df8f8c" fill-opacity=".5" d="M224 77h10v9h-10z"/><path fill-opacity=".5" d="M124.7 107.8l2.6-1.6 18 30-2.6 1.6z"/><path fill="#989897" fill-opacity=".9" d="M121 1.1l5.9 32.8-28.5 1.2 21.2-15.4z"/><path fill="#a4d8df" fill-opacity=".5" d="M163 150l-3 19-32-42z"/><path fill="#e7f9ff" fill-opacity=".6" d="M181 23l-14 12 17 16z"/><path fill="#584634" fill-opacity=".6" d="M51 87L39 54l-3 51z"/></g></svg>