<svg xmlns="http://www.w3.org/2000/svg" viewBox="0 0 300 199"><defs/><path fill="#564336" d="M0 0h300v199H0z"/><g transform="translate(.6 .6) scale(1.17188)"><circle cx="105" cy="93" r="85" fill="#8a9284" fill-opacity=".7"/><circle r="1" fill="#ffecd6" fill-opacity=".5" transform="matrix(-11.9382 .53669 -5.95762 -132.52267 230 86.9)"/><ellipse cx="145" cy="169" fill="#ecf1fe" fill-opacity=".6" rx="27" ry="59"/><circle r="1" fill="#030000" fill-opacity=".5" transform="rotate(-33.9 316.6 -248.2) scale(24.77428 40.45291)"/><circle r="1" fill="#e4be94" fill-opacity=".6" transform="matrix(-37.67116 -3.18492 1.5528 -18.36655 211.1 0)"/><circle cx="96" cy="14" r="79" fill="#6a6d5d"/><ellipse cx="68" cy="148" fill="#eef2fc" fill-opacity=".6" rx="7" ry="56"/><circle r="1" fill="#bea285" transform="rotate(77.1 85.5 183.7) scale(10.59944 28.47754)"/><path fill="#ffdcb8" fill-opacity=".5" d="M58 7h29v39H58z"/><ellipse cx="6" cy="148" fill="#150200" fill-opacity=".4" rx="32" ry="90"/><path fill="#c1cfdc" fill-opacity=".9" d="M99.8 167.2l-2.7-8.5 51.6-27.9-2.5 45.7z"/><path fill="#2d1702" fill-opacity=".6" d="M94.7 156l-7.5-14 30-16 7.6 14z"/><circle r="1" fill="#2f3329" fill-opacity=".5" transform="matrix(48.457 12.8995 -5.78513 21.73188 164.7 28.5)"/><circle r="1" fill="#c1b3b3" fill-opacity=".5" transform="matrix(.65397 33.27708 -10.26269 .20168 97 83)"/><path fill="#c3b1a7" fill-opacity=".9" d="M183.8 185l-10.4-36.3-37.1-68.4-5.3 28z"/><circle r="1" fill="#193624" fill-opacity=".6" transform="rotate(148.4 26.2 43.1) scale(12.76088 24.40507)"/><path fill="#125a4b" fill-opacity=".5" d="M67 82l-26 3 12 95z"/><path fill="#81c3bc" fill-opacity=".4" d="M42 140l12-73-36-28z"/><path fill="#4f3011" fill-opacity=".4" d="M142.7 52.8l15 27-38.4 21.4-15-27z"/><path fill="#1e2d2b" fill-opacity=".6" d="M-16 61l67-36-67-23z"/><circle r="1" fill="#a54b10" fill-opacity=".5" transform="rotate(172.5 38.2 75) scale(5.92931 50.61157)"/><circle r="1" fill="#97826d" fill-opacity=".8" transform="rotate(-98.9 40.4 -34.5) scale(17.5572 43.11664)"/><ellipse cx="173" cy="88" fill="#e2dac4" fill-opacity=".3" rx="8" ry="29"/><path fill="#b99a7b" fill-opacity=".7" d="M132.3-16l73 38.5L237.9 33l10.9-25.1z"/><path fill="#3d3734" fill-opacity=".5" d="M271 77.3l-34.8-3.6 6 72 11 39.3z"/><path fill="#1c1808" fill-opacity=".5" d="M178 97h43v66h-43z"/><ellipse cx="229" cy="130" fill="#c5cae1" fill-opacity=".3" rx="8" ry="57"/><path fill="#4f4c31" fill-opacity=".9" d="M206.9 62.8l-9.6 79.6 25.7-14.3-10.8 5.7z"/><path fill="#c7d7e8" fill-opacity=".8" d="M116.9 184.7l32.8-61.3-13.1-20.6-5.3 14.6z"/><path fill="#593933" fill-opacity=".4" d="M105 104h20v34h-20z"/><path fill="#e6fcff" fill-opacity=".5" d="M65.8 26.3l8 12.7-7.6 4.7-8-12.7z"/><circle r="1" fill="#50839b" fill-opacity=".4" transform="matrix(6.4517 -17.79572 35.96106 13.03742 30.2 0)"/><path fill="#34192b" fill-opacity=".6" d="M48 151h14v19H48z"/><path fill="#cfded7" fill-opacity=".5" d="M84 58h22v8H84z"/><path fill="#a49f8f" fill-opacity=".4" d="M186 97l-40-17 51-36z"/><path fill="#d3955c" fill-opacity=".6" d="M45 160l-1-25-10 44z"/><path fill="#120602" fill-opacity=".9" d="M250 187.5l-3-35.9 13-1.1 3 35.9z"/><path fill="#c09f88" fill-opacity=".6" d="M69.8 89.2l6-.3 4.4 83.9-6 .3z"/><path fill="#644e46" fill-opacity=".5" d="M148.5 105.9l13.3-9 15.7 23.2-13.3 9z"/><circle r="1" fill="#250e03" fill-opacity=".7" transform="matrix(11.61118 .2635 -.55596 24.49892 19.8 155.4)"/><path fill="#4d453e" fill-opacity=".5" d="M-30.4 95.2l34.8-40 34 29.6-34.8 40z"/><path fill="#d8fbd1" fill-opacity=".4" d="M108.4 125.7l-14.1 2.7-7.3 3 7.8 6.6z"/><path fill="#d8a099" fill-opacity=".5" d="M187 102h6v9h-6z"/><path fill="#e4bea1" fill-opacity=".6" d="M215.4 27.1l13.7-2.7 5.5 28.5-13.7 2.7z"/><path fill="#180200" fill-opacity=".4" d="M99.4 142.6l7.4 12.8 7.7-4.4 12.7-22.6z"/><path fill="#190f07" fill-opacity=".9" d="M222 151.7L170.7 126l12.3 32.4 40.9 26.6z"/><path fill="#30352c" fill-opacity=".6" d="M184 16l36 88-5-80z"/><path fill="#000f0e" fill-opacity=".4" d="M257-16l8 56-25 2z"/><path fill="#ffffef" fill-opacity=".4" d="M243 53h13v9h-13z"/><circle cx="144" cy="99" r="7" fill="#ffdfcb" fill-opacity=".5"/><path fill="#4a6150" fill-opacity=".9" d="M39.5 53.8l16.3-16.3 12.7 12.7-16.3 16.3z"/><path fill="#acc4b1" fill-opacity=".5" d="M20.7 45.6l5.7-4 23 32.8-5.8 4z"/><path fill="#1b2e1b" fill-opacity=".5" d="M95 89L58 61l18 28z"/><path fill="#b5997c" fill-opacity=".4" d="M157 185l24-22-32-65z"/><circle r="1" fill="#606154" fill-opacity=".6" transform="matrix(-13.86273 -3.48208 6.39785 -25.4709 113.8 39)"/><path fill="#865835" fill-opacity=".7" d="M96 143.6l4 38.7-20 2.1-4-38.7z"/><path fill="#d0ae8d" fill-opacity=".5" d="M88.7-.4l170.7-1.2-92.2 10.7.8-6.3z"/><ellipse cx="237" cy="87" fill="#9e7152" fill-opacity=".4" rx="4" ry="67"/><path fill="#938b74" fill-opacity=".6" d="M146.1 57.1l9.1-8.2.9-12.7 21.9 85.2z"/><path fill="#474932" fill-opacity=".5" d="M164 6l45 42-47 13z"/><circle r="1" fill="#d1b983" fill-opacity=".5" transform="rotate(52.4 0 98.9) scale(15.91292 5.84007)"/><path fill="#5e5a47" d="M108.6 117.2l12.8 13.6-32.4-8.3-1.5-1.4z"/><path fill="#627b73" fill-opacity=".8" d="M35.3 28.9l32.2 19.6-8.2-13.6-33.1 28.4z"/><path fill="#fbbe7e" fill-opacity=".5" d="M184 167h13v3h-13z"/><path fill="#b9c8d8" fill-opacity=".5" d="M68.2 47.4l-3.8 1-16.6-61.8 3.8-1z"/></g></svg>