<svg xmlns="http://www.w3.org/2000/svg" viewBox="0 0 300 199"><defs/><path fill="#422426" d="M0 0h300v199H0z"/><g transform="translate(.6 .6) scale(1.17188)"><circle cx="141" cy="47" r="135" fill="#dfe4d1" fill-opacity=".5"/><circle r="1" fill="#070f17" fill-opacity=".6" transform="matrix(48.48596 -20.22317 33.91029 81.30146 179.1 160.4)"/><path fill="#fbfeff" fill-opacity=".8" d="M27 131.8L10.3-4.2 39-7.8l16.7 136z"/><path fill="#e5f6ff" fill-opacity=".7" d="M68 58l39 127-47-7z"/><ellipse cx="189" cy="36" fill="#fbe3bc" fill-opacity=".6" rx="18" ry="87"/><circle r="1" fill="#f2fcf5" fill-opacity=".5" transform="matrix(-31.11456 -15.44527 12.40366 -24.98723 109.3 21.7)"/><ellipse cx="57" cy="11" fill="#510008" fill-opacity=".6" rx="9" ry="143"/><path fill="#00000b" fill-opacity=".6" d="M153 51h22v119h-22z"/><circle r="1" fill-opacity=".5" transform="matrix(-9.98403 1.6852 -10.30275 -61.03898 8.3 72.2)"/><circle r="1" fill="#ebcaa4" fill-opacity=".6" transform="rotate(135.1 100.8 95.1) scale(27.00979 43.35241)"/><path fill="#f1fffd" fill-opacity=".5" d="M121 98h17v23h-17z"/><path fill="#f4f7f9" fill-opacity=".6" d="M30.5-25.8L46 62.8l-28.6 5L2-20.8z"/><circle r="1" fill="#110005" fill-opacity=".5" transform="matrix(-2.32457 -13.05008 73.88313 -13.1606 208.8 148.5)"/><path fill="#c2bbbc" fill-opacity=".8" d="M207.3 126.2l16.1 13 2.5.8 32.6-45.7z"/><path fill="#282e3a" fill-opacity=".7" d="M137.4 13.3l28.2 5.1-31.1 78.3 37.6-40.4z"/><path fill="#280800" fill-opacity=".5" d="M106.2 83.7l14.7-17.4 15.6 32-59.9-1.8z"/><path fill-opacity=".6" d="M213.6 95l3.6 25.7-16.8 2.4-3.6-25.8z"/><circle r="1" fill="#e1c190" fill-opacity=".6" transform="matrix(-64.9418 -18.83186 5.70548 -19.6754 187 5.2)"/><ellipse cx="8" cy="150" fill="#090000" fill-opacity=".5" rx="20" ry="70"/><path fill="#794700" fill-opacity=".4" d="M205.7 57.8l-1.3-24 68-3.6 1.2 24z"/><circle cx="189" cy="30" r="29" fill="#e1cba8" fill-opacity=".5"/><path fill="#34250f" fill-opacity=".4" d="M128.9 110.5l21 68.8-26.8 8.2-21-68.8z"/><path fill="#a4b2be" fill-opacity=".7" d="M86 114h15v56H86z"/><circle r="1" fill="#440711" fill-opacity=".6" transform="rotate(81.7 9.2 47) scale(69.07242 6.12332)"/><path fill="#bdbbb5" fill-opacity=".7" d="M175 112.8l-1-31 19-.6 1 31z"/><path fill="#fcfdfb" fill-opacity=".7" d="M68 75.7l4.4-16.5L84 62.3l-4.4 16.5z"/><path fill="#745d51" d="M121.1 128.6L97 114.3l-15.6-6.7-1-31.1z"/><path fill="#3c73c7" fill-opacity=".3" d="M137.9 103.1l8.6 66.3 10.9-58.3-1.1-77z"/><path fill="#492716" fill-opacity=".6" d="M73.2 44.5L90 43.3l1.9 7.5 1.7 15.8z"/><ellipse cx="67" fill="#8a816c" fill-opacity=".7" rx="8" ry="73"/><path fill="#49616c" fill-opacity=".5" d="M43.4 119.7l19.2 62.9-6.3-6.4L33 129.3z"/><ellipse cx="214" cy="169" fill="#534e4c" fill-opacity=".8" rx="19" ry="11"/><path fill="#200a0e" fill-opacity=".7" d="M-16 185l48-17L9 22z"/><ellipse cx="51" cy="82" fill="#ff80a6" fill-opacity=".3" rx="5" ry="52"/><path fill="#3a1200" fill-opacity=".6" d="M160.3 39.4l-10 1-2.6-25.8 10-1z"/><ellipse cx="191" cy="147" fill="#080a05" fill-opacity=".6" rx="34" ry="17"/><path fill="#0d0000" fill-opacity=".4" d="M116 65h10v30h-10z"/><path fill="#dcccbe" fill-opacity=".5" d="M148 51l-38-18 51 7z"/><path fill="#d1d4e0" fill-opacity=".5" d="M215 94.7l-1.8 10.7 13.6 34.9 15.9-49.5z"/><path fill-opacity=".5" d="M247 91h4v10h-4z"/><circle cx="145" cy="144" r="5" fill="#ffc9c0" fill-opacity=".6"/><circle r="1" fill="#3d1118" fill-opacity=".7" transform="rotate(-127.6 165.2 16.2) scale(30.83979 27.98635)"/><circle cx="188" cy="120" r="10" fill="#846e51" fill-opacity=".7"/><path fill="#c8cac0" fill-opacity=".6" d="M139.1 65.4L53.4-16l144.5 2.6-68.4 34.6z"/><ellipse cx="255" cy="2" fill="#c6a370" fill-opacity=".6" rx="75" ry="30"/><path fill="#e9e9ea" fill-opacity=".6" d="M7 0h37v17H7z"/><path fill-opacity=".5" d="M118 122h21v13h-21z"/><path fill="#6f6458" fill-opacity=".7" d="M123.8 139.2l-4.6-6.5L88.3 185H138z"/><path fill="#f1f7fb" fill-opacity=".3" d="M61.3 130.8l9.6-65 23.4 72.1L67.2 185z"/><path fill="#c5a986" fill-opacity=".9" d="M206.5 57.1L195.9 96l62.9-9.1 12.2-34z"/><path fill="#decfb5" fill-opacity=".7" d="M149-16l26.1 79.3 33.2-20.1-16.8-16.6z"/><path fill="#c5d3cf" fill-opacity=".5" d="M107 101h32v13h-32z"/><path fill="#e6e6e7" fill-opacity=".6" d="M46 27.8l-29.9 27 4.3 36.9L52 118.6z"/><path fill="#190306" fill-opacity=".3" d="M68.8 82.2l-6.9 20.7-.9 5.5L52.7-16z"/><path fill="#37251e" fill-opacity=".5" d="M100 98.5l47-13.7-30.4 12.3L79.3 115z"/><ellipse cx="99" cy="65" fill="#041519" fill-opacity=".5" rx="2" ry="16"/><path fill="#000305" fill-opacity=".5" d="M158.6 66.5l5.9 24.8 12.4-25-14.9-24z"/><path fill="#7c4400" fill-opacity=".4" d="M139 54.3l2 25 2.8 3.3 6.7-52.6z"/><ellipse cx="39" cy="150" fill="#03100e" fill-opacity=".6" rx="3" ry="25"/><path fill="#c4c1b0" fill-opacity=".7" d="M104.4 70.2L117 73l-1.5 6.9L103 77z"/><path fill="#2b021a" fill-opacity=".5" d="M53 127h8v28h-8z"/><path fill="#070800" fill-opacity=".5" d="M142.7 12l14-1 .6 9-14 1z"/><path fill="#0b0e0f" fill-opacity=".6" d="M180 124l-12-47-21 108z"/><circle r="1" fill="#e6e7e7" fill-opacity=".6" transform="matrix(10.98128 43.7768 -17.18766 4.31147 25 12.3)"/><path fill="#a9a89f" fill-opacity=".4" d="M72 0h27v42H72z"/></g></svg>