<svg xmlns="http://www.w3.org/2000/svg" viewBox="0 0 300 199"><defs/><path fill="#3e2e24" d="M0 0h300v199H0z"/><g transform="translate(.6 .6) scale(1.17188)"><circle r="1" fill="#d8ecf6" fill-opacity=".5" transform="rotate(73.9 24.8 125) scale(43.53656 92.32826)"/><circle cx="141" r="138" fill="#919584" fill-opacity=".3"/><circle r="1" fill="#4e4945" fill-opacity=".9" transform="matrix(-9.86125 -28.15931 80.3065 -28.12294 199.5 98)"/><circle r="1" fill="#e3effd" fill-opacity=".4" transform="matrix(-3.25447 -39.98006 17.70363 -1.44112 146.7 64.7)"/><ellipse cx="23" cy="128" fill="#64381e" rx="40" ry="84"/><ellipse cx="167" cy="32" fill="#16130a" fill-opacity=".7" rx="5" ry="51"/><circle r="1" fill="#dfe7f5" fill-opacity=".4" transform="matrix(-4.16882 -38.57213 15.96163 -1.72511 107.8 74)"/><ellipse cx="245" cy="118" fill="#cc732b" fill-opacity=".4" rx="14" ry="123"/><circle r="1" fill="#181c23" fill-opacity=".6" transform="rotate(-80.6 157.2 -17.9) scale(29.11226 55.03119)"/><circle r="1" fill="#dcdad1" fill-opacity=".5" transform="matrix(-.65785 -3.2747 37.15054 -7.46315 70 41.4)"/><ellipse cx="184" cy="19" fill="#232a2e" fill-opacity=".6" rx="10" ry="30"/><path fill="#bcbfca" fill-opacity=".5" d="M194 11h27v53h-27z"/><path fill-opacity=".5" d="M115.5 1.3l15 84.7-4 .7-15-84.7z"/><circle r="1" fill="#5e758a" fill-opacity=".5" transform="matrix(17.4549 -25.34548 12.4835 8.59713 200.7 98.6)"/><circle r="1" fill="#784120" fill-opacity=".7" transform="rotate(-20.9 203.8 -47.1) scale(16.0185 122.29575)"/><path fill="#9aaabc" fill-opacity=".5" d="M54 63l52 56H64z"/><path fill="#afbdb1" fill-opacity=".5" d="M54.5 60.4l3.7-12.5-1.8-21-18.9 7z"/><path fill="#f5f6f8" fill-opacity=".6" d="M174 42h8v29h-8z"/><ellipse cx="184" cy="36" fill="#2a2b28" rx="2" ry="39"/><ellipse cx="232" cy="35" fill="#050000" fill-opacity=".6" rx="3" ry="52"/><path fill="#5c6e7e" fill-opacity=".5" d="M169 118l8-27-74-9z"/><path fill="#534533" fill-opacity=".6" d="M84.8 57.2L77.5 73l-10.3-1.3-4-36.7z"/><path fill="#c6c9cc" fill-opacity=".5" d="M226.8 56.5l-3-.2 5.4-60.8 3 .2z"/><path fill="#647258" d="M123.9 28l37.4-7.4-2.5-5L128.1-16z"/><path fill="#e7e4e0" fill-opacity=".5" d="M133 54h32v26h-32z"/><path fill="#2b1301" fill-opacity=".5" d="M201.3 72.7l.7-10 92.7 6.6-.7 10z"/><path fill="#b38354" fill-opacity=".6" d="M240.6 28.3l-2.2-6.4-4.2 48.5L271 24.5z"/><ellipse cx="228" cy="103" fill="#1e0f00" fill-opacity=".6" rx="3" ry="47"/><path fill="#001328" fill-opacity=".5" d="M54.5 58.8L37.3 44.2l11.6 32.3 14.9 48.6z"/><circle r="1" fill="#4b4a50" fill-opacity=".5" transform="matrix(.5542 3.31173 -23.96227 4.0099 209.6 31.6)"/><path fill="#e6e1db" fill-opacity=".4" d="M99.6 84.5l24.4-.4-1.7-12.8-46.2-31.4z"/><path fill="#9baaba" fill-opacity=".5" d="M96 107l-34 27 33-14z"/><path fill-opacity=".5" d="M114.7-6.8l12.5 71-4 .6-12.4-71z"/><path fill="#fef4eb" fill-opacity=".3" d="M54.5 75.7l-7-17 20.7 55.4-4.4-60z"/><circle r="1" fill="#201602" fill-opacity=".4" transform="rotate(151.2 -19.4 75.6) scale(18.00302 92.2563)"/><path fill="#422d27" fill-opacity=".6" d="M89 47.7l-9.6 19.8 17-25.4-10-.8z"/><path fill="#bcbea2" fill-opacity=".5" d="M65 24h32v5H65z"/><path fill="#0a0700" fill-opacity=".5" d="M166 59h7v32h-7z"/><path fill="#282528" fill-opacity=".6" d="M126.1 100.8l-1-39.1L153.4 185l24.2-69.4z"/><circle r="1" fill="#1e252f" fill-opacity=".5" transform="matrix(28.42414 27.07749 -22.1154 23.21527 110.9 155.2)"/><circle r="1" fill="#5a3923" fill-opacity=".8" transform="matrix(-5.43169 -11.76444 73.69216 -34.02397 255 148.3)"/><path fill="#c9925a" fill-opacity=".4" d="M248 125l2-37-21 57z"/><ellipse cx="75" cy="5" fill="#0b7800" fill-opacity=".2" rx="54" ry="15"/><path fill="#526272" fill-opacity=".5" d="M201 72h23v64h-23z"/><path fill="#b5b2af" fill-opacity=".6" d="M126 26h37v33h-37z"/><path fill="#cfccca" fill-opacity=".6" d="M187 43l4 23 22-8z"/><path fill="#262a1d" fill-opacity=".7" d="M163 30l21-46-28 2z"/><path fill="#1e1100" fill-opacity=".5" d="M238.3 2.2L206.4-16l28.3 28.6.9 41.9z"/><ellipse cx="172" cy="34" fill="#f0e8e0" fill-opacity=".4" rx="2" ry="24"/><path fill="#ac9579" fill-opacity=".4" d="M170.5 109.9l14.1-29.4-7.3-3.4-13.1 40.9z"/><circle r="1" fill="#7e8688" fill-opacity=".5" transform="rotate(-146.1 57 32.2) scale(19.6053 18.46879)"/><ellipse cx="187" cy="31" fill="#a2a4a2" rx="1" ry="17"/><path fill="#65809a" fill-opacity=".5" d="M164 76v33l-36-14z"/><path fill="#bec0d0" fill-opacity=".5" d="M59.6 49.7l-13.1-3 6 14.9 8-23.4z"/><path fill="#636f57" d="M39.3 6.5l24 7.3-15 7.8 15.8 51.3z"/><circle r="1" fill="#2a1f0a" fill-opacity=".5" transform="rotate(123.4 70.9 93.7) scale(26.36457 3.24204)"/><path fill="#8a552e" fill-opacity=".5" d="M232.3 176.6l4.5-147.2-9.4 111.1 1.1 2.7z"/><path fill="#a2a8a4" d="M94.3-16l-7.9 4.7 29.9 102.6-24.5-79.5z"/><path fill="#2b383e" fill-opacity=".7" d="M208 25l12-41h-14z"/><path fill="#181711" fill-opacity=".5" d="M42.2 35.8L27.5 15.3l45.8 120-35.4-82.4z"/><path fill="#1d1f22" fill-opacity=".5" d="M142.4 15l4.2 29.8-1 .1-4.2-29.7z"/><circle r="1" fill="#b4babc" fill-opacity=".6" transform="matrix(-6.36507 -51.5588 .99247 -.12252 141 32)"/><path fill="#1e251a" fill-opacity=".5" d="M128.6 26.8L110 31.5l16.9-34.2L100.7-16z"/><circle r="1" fill="#562c13" fill-opacity=".6" transform="matrix(-.98747 -.1578 11.18223 -69.97154 252 9.4)"/><path fill="#b9b8b4" fill-opacity=".8" d="M122 74.5l-36.1-7.7-5-3.2L116 27.7z"/></g></svg>