<svg xmlns="http://www.w3.org/2000/svg" viewBox="0 0 299 449"><defs/><path fill="#54423a" d="M0 0h299v449H0z"/><g transform="translate(.9 .9) scale(1.7539)"><circle r="1" fill="#fff" fill-opacity=".7" transform="matrix(-16.11524 -169.23445 38.32148 -3.64914 48.3 75.2)"/><circle r="1" fill="#250700" fill-opacity=".5" transform="matrix(62.93658 -120.38657 6.91514 3.61515 77.4 157.4)"/><circle r="1" fill="#f2f3f3" fill-opacity=".6" transform="matrix(-20.81786 128.07112 -17.61561 -2.8634 71.1 64.5)"/><path fill="#e9eae7" fill-opacity=".7" d="M19 55h33v147H19z"/><circle cx="11" cy="241" r="45" fill="#010000" fill-opacity=".6"/><ellipse cx="77" cy="222" fill="#c9cfef" fill-opacity=".5" rx="25" ry="35"/><path fill="#1e0000" fill-opacity=".6" d="M93-16l46 27-34 96z"/><ellipse cx="6" cy="150" fill="#0c0000" fill-opacity=".8" rx="9" ry="83"/><circle r="1" fill="#0d0604" fill-opacity=".8" transform="matrix(-6.828 -49.8456 20.22189 -2.77005 169.8 225.1)"/><path fill="#9c7f73" fill-opacity=".7" d="M68 145l64-47-43-2z"/><circle r="1" fill="#3d1f17" fill-opacity=".7" transform="rotate(-163.9 57.9 64.6) scale(21.3726 23.29901)"/><circle r="1" fill="#736268" fill-opacity=".7" transform="rotate(102 -28.4 150.6) scale(48.96274 20.79793)"/><path fill="#160000" fill-opacity=".8" d="M-12.7 5.7L2 4l10.6 86.4L-2 92z"/><path fill="#d6dee0" fill-opacity=".6" d="M3 3l95-19-79 173z"/><path fill="#f2ede8" fill-opacity=".5" d="M23 210l-9-110 59 63z"/><ellipse cx="14" cy="205" fill="#100000" fill-opacity=".7" rx="7" ry="44"/><path fill="#655a68" fill-opacity=".4" d="M30.8 193.6l26.1 1.9L36.5 271l48.4-12z"/><ellipse cx="170" cy="67" fill="#716756" fill-opacity=".5" rx="26" ry="97"/><path fill="#c5b4ac" fill-opacity=".6" d="M84.1-9.9l5.2-6.1 6.8 55.9-26.4 119.3z"/><path fill="#f5f7f6" fill-opacity=".4" d="M43 64l62 46-66 17z"/><circle r="1" fill="#fff" fill-opacity=".5" transform="matrix(-12.02733 15.5309 -5.3812 -4.16726 67.9 200)"/><ellipse cx="36" cy="35" fill="#311a00" fill-opacity=".2" rx="4" ry="130"/><ellipse cx="112" cy="72" fill="#0c0400" fill-opacity=".4" rx="29" ry="15"/><circle r="1" fill="#a39698" fill-opacity=".5" transform="matrix(5.3922 -.32216 1.03081 17.25336 116.5 107.2)"/><path fill="#150101" fill-opacity=".7" d="M-16 261.3l94.5-84.7-17.4 11.5-27.3 79z"/><path fill="#aba4b5" fill-opacity=".6" d="M92.1 161.1l-3.4 40.4 4.4 32.3-27.9 15.6z"/><circle r="1" fill="#cbe1f4" fill-opacity=".5" transform="matrix(12.4266 -4.35173 1.39155 3.97364 168.2 146.5)"/><path fill="#8b7b84" fill-opacity=".6" d="M110 174h18v46h-18z"/><path fill="#38130a" fill-opacity=".6" d="M79 133l-12 52 23-38z"/><circle r="1" fill="#1b0000" fill-opacity=".5" transform="matrix(-2.21 -30.09458 5.98318 -.43938 2.2 45.2)"/><circle r="1" fill="#4f3d31" fill-opacity=".6" transform="matrix(13.36363 -2.54925 9.27368 48.61435 135.4 36)"/><path fill="#311508" fill-opacity=".5" d="M109 100.6l-22.4 73.2 1.5-25.3 19.3 44.8z"/><path fill="#be7861" fill-opacity=".4" d="M31.5 197.5l23.7 7-34 9.8 5.8-12.8z"/><ellipse cx="110" cy="22" fill="#0c0000" fill-opacity=".6" rx="9" ry="32"/><path fill="#d2dee6" fill-opacity=".7" d="M19 99L3-4 30 9z"/><path fill="#c48859" fill-opacity=".5" d="M98.5 104.4L81.1 68.6l4 26.1 7.8 16.5z"/><ellipse cx="112" cy="59" fill="#dbbf7c" fill-opacity=".4" rx="3" ry="6"/><path fill="#fefbfa" fill-opacity=".6" d="M65 203l22-26-3-19z"/><path fill="#3d2b24" fill-opacity=".7" d="M138.9 264.6l6.3-106.8 12.1 71.8 3.8 41.4z"/><circle r="1" fill="#a16d59" fill-opacity=".5" transform="rotate(112.5 -20.7 104.2) scale(49.48218 3.10154)"/><circle r="1" fill="#eff7ff" fill-opacity=".3" transform="matrix(-1.89878 -16.2282 16.72547 -1.95696 70.4 213.3)"/><ellipse cx="163" cy="174" fill="#483a30" fill-opacity=".4" rx="42" ry="22"/><path fill-opacity=".5" d="M102.5 84.2l2.2-17.9 28.8 3.5-2.2 17.9z"/><path fill="#fff" fill-opacity=".4" d="M42 97h21v76H42z"/><ellipse cx="64" cy="42" fill="#dadde1" fill-opacity=".5" rx="24" ry="51"/><path fill="#050000" fill-opacity=".9" d="M153 194l29 10-16 67z"/><circle r="1" fill="#544b53" fill-opacity=".6" transform="rotate(43.7 -265.5 257.3) scale(17.15809 38.43691)"/><path fill="#180002" fill-opacity=".6" d="M11.9 85.6l11.6 154.2L-16 271 3.6 3.8z"/><ellipse cx="98" cy="48" fill="#6a181d" fill-opacity=".5" rx="4" ry="53"/><path fill="#4e362f" fill-opacity=".8" d="M115.4 115.5l26.5 13.5 2.2 33-36.3-7.4z"/><path fill="#d2d2fd" fill-opacity=".1" d="M114.5 229.2l-2.9-18.7-1.6-59.4 7.4-17.3z"/><path fill="#664b40" fill-opacity=".4" d="M112.2 236.9L81 188.3 96 169l14.8 23.3z"/><circle r="1" fill="#9e988d" fill-opacity=".4" transform="matrix(2.44532 83.81548 -2.2381 .0653 33 6.3)"/><path fill="#bf9181" fill-opacity=".3" d="M76.4 138.3l18.7-151 .6 57.6-3.1 31.7z"/><path fill="#707281" fill-opacity=".5" d="M58.3 261.2l-12-33 9.4-3.4 12 33z"/><path fill="#e3e2dc" fill-opacity=".3" d="M45.4 208.2l10.7-17.8-42-154.7 4.5 148.6z"/><path fill="#3b1500" fill-opacity=".5" d="M111 95l-4 16-6-22z"/><ellipse cx="87" cy="124" fill="#686870" fill-opacity=".3" rx="14" ry="11"/><path fill="#4c342e" fill-opacity=".4" d="M107.5 193.4l-18.8-78.8-3 54.9 22.8 40.6z"/><path fill="#633425" fill-opacity=".5" d="M73 162l-31 49 24-21z"/><path fill="#7e8788" fill-opacity=".6" d="M161 180h4v7h-4z"/><path fill="#cac4c3" fill-opacity=".4" d="M67.2-16l23.4 40.7 5.9 33.4-20.8 10.1z"/><circle r="1" fill="#dde2e5" fill-opacity=".5" transform="matrix(13.05659 66.36136 -11.43693 2.25021 59.5 58.5)"/><path fill="#987b76" fill-opacity=".4" d="M94.4 173.9l-10.6-18.6 4 49 14.4 7.4z"/><path fill="#9da8ce" fill-opacity=".3" d="M74.3 267.9l-14.6-14.2L87 226.5l-39.2-9.4z"/></g></svg>