<svg xmlns="http://www.w3.org/2000/svg" viewBox="0 0 300 199"><defs/><path fill="#344146" d="M0 0h300v199H0z"/><g transform="translate(.6 .6) scale(1.17188)"><circle r="1" fill="#9c9787" fill-opacity=".6" transform="matrix(-52.06128 -68.3402 202.84575 -154.52705 100 51.7)"/><ellipse cx="171" cy="145" fill-opacity=".7" rx="30" ry="72"/><ellipse cx="55" cy="169" fill="#cae1f6" fill-opacity=".6" rx="42" ry="27"/><circle r="1" fill="#1f0000" fill-opacity=".6" transform="rotate(45.3 17 64.6) scale(54.30321 11.161)"/><ellipse cx="101" cy="12" fill="#bde8ff" fill-opacity=".5" rx="19" ry="38"/><circle cx="230" cy="78" r="55" fill="#8e8b73" fill-opacity=".5"/><path fill="#d2cbdf" fill-opacity=".4" d="M30 164.2l-2-116 22-.4 2 116z"/><circle r="1" fill="#080804" fill-opacity=".7" transform="rotate(40.3 -156 253) scale(27.18144 22.44453)"/><circle r="1" fill="#000620" fill-opacity=".5" transform="rotate(14.2 -562.5 115.9) scale(13.05075 28.10934)"/><ellipse cx="146" cy="67" fill="#352e38" fill-opacity=".6" rx="33" ry="18"/><circle r="1" fill="#ebf9ff" fill-opacity=".6" transform="matrix(2.31657 -.34511 4.76399 31.97815 226.7 151.8)"/><circle r="1" fill="#010100" fill-opacity=".9" transform="matrix(-31.28582 -46.0357 17.70922 -12.03517 192.4 148.5)"/><circle r="1" fill="#00050a" fill-opacity=".7" transform="matrix(-9.133 -.81416 1.79135 -20.09476 2.3 71)"/><path fill-opacity=".7" d="M231 136h25v32h-25z"/><path fill="#19defa" fill-opacity=".3" d="M155.4 140.7l-30 .6-.8-48 30-.6z"/><path fill="#07251c" fill-opacity=".4" d="M67 109L53 74l102 56z"/><path fill="#2d3000" fill-opacity=".7" d="M96.1 144.6l-7.7 15.2-12.5-6.4 7.7-15.2z"/><circle r="1" fill="#290300" fill-opacity=".6" transform="matrix(7.6912 -3.3602 21.45784 49.11504 68 15.2)"/><path fill="#ffd5d8" fill-opacity=".5" d="M111.4 134.6L69 146.8l-4.5-15.4 42.3-12.2z"/><circle r="1" fill="#b7beb9" fill-opacity=".5" transform="matrix(20.76083 26.00664 -7.64886 6.106 116 89.1)"/><path fill="#c6dffd" fill-opacity=".4" d="M230.3 92.3l15.3 17-25.3 18.7 1.9 11.2z"/><circle r="1" fill="#f07449" fill-opacity=".3" transform="matrix(17.14709 -11.09295 21.53867 33.29372 59.9 53.6)"/><ellipse cx="169" cy="26" fill="#a5ad87" fill-opacity=".5" rx="52" ry="20"/><path fill="#a6afbb" d="M60.3 110l-19.8-3.5-18.8 50 36.4-30.9z"/><path fill="#adb9c1" fill-opacity=".6" d="M214 89l-14-12 1 48z"/><path fill="#a09893" fill-opacity=".7" d="M156 99.2l-12 .6-2-37 12-.6z"/><circle r="1" fill="#3f3f25" fill-opacity=".4" transform="matrix(-11.80548 .24759 -1.961 -93.50397 248.5 58.6)"/><path fill="#ccd5ee" fill-opacity=".5" d="M99 170l-9-23 11-14z"/><path fill="#021022" fill-opacity=".5" d="M8 118.1l-20.7 9.1 45.3 11.5-.1-13.2z"/><path fill="#a98474" fill-opacity=".9" d="M16.7 117.8l29.9-9.6-24.6-34-26.2 23.7z"/><circle r="1" fill="#313809" fill-opacity=".5" transform="matrix(68.8442 1.68252 -.14646 5.9926 194.6 0)"/><path fill="#d6fae0" fill-opacity=".4" d="M81.4 94.5l23.3-4-2.7-7.6-22.6-3.2z"/><path fill="#2b0800" fill-opacity=".7" d="M35 8l18.4-4.6L57 18l-18.4 4.6z"/><path fill="#321305" fill-opacity=".5" d="M104.4 53l9.5-7.3 19.7 25.2-9.5 7.4z"/><circle r="1" fill="#606c54" fill-opacity=".7" transform="matrix(73.75819 -24.2812 2.63719 8.0109 23.6 4)"/><path fill="#9b987f" fill-opacity=".6" d="M145 35l-15 38-15-39z"/><path fill="#060000" fill-opacity=".5" d="M167 67l-29-7 13-13z"/><path fill="#28767f" fill-opacity=".8" d="M148.4 109.4l-4.3-2.8-26.7 20.7 14.8 23.8z"/><circle r="1" fill="#3a464a" fill-opacity=".5" transform="rotate(-134 59.4 49.2) scale(6.9424 28.30039)"/><path fill="#9bb3c3" fill-opacity=".8" d="M75.8-1.6l43-10.4.9 51.2-28.2 17.4z"/><path fill="#572a09" fill-opacity=".5" d="M44.3-10.8l55 81.8-21.5.1-21.9-60.8z"/><circle r="1" fill="#dba590" fill-opacity=".5" transform="matrix(11.16778 29.22455 -4.61268 1.76268 64.1 50.8)"/><path fill="#9da4a3" fill-opacity=".6" d="M173 102.4l20.7-32.2-11.5 5-3.8 32.7z"/><circle r="1" fill="#000100" fill-opacity=".4" transform="matrix(18.77642 9.12252 -30.39505 62.5606 163.3 160.2)"/><path fill="#070f01" fill-opacity=".6" d="M94 107l1-15 17 12z"/><path fill="#002252" fill-opacity=".5" d="M158 62h21v27h-21z"/><path fill="#c0c1cb" fill-opacity=".7" d="M23.4 86.5l8-28 17.2 5-8 28z"/><ellipse cx="226" cy="43" fill="#797d62" fill-opacity=".5" rx="24" ry="39"/><path fill="#ffe2ef" fill-opacity=".5" d="M103 108h22v4h-22z"/><path fill="#281f00" fill-opacity=".5" d="M258-6L244 96l27-44z"/><path fill="#322b24" fill-opacity=".6" d="M126.1 59.6l3.9 33.8-31.6-48.8-2.1 14z"/><circle r="1" fill="#7f422e" fill-opacity=".5" transform="matrix(-10.67399 -30.00726 4.37385 -1.55584 58.4 80)"/><path fill="#aecbde" fill-opacity=".6" d="M0 141h9v7H0z"/><path fill="#2a140e" fill-opacity=".8" d="M65.2-10l20.7 39.7L88.7 67l-23-55.3z"/><path fill="#c9e0f1" fill-opacity=".4" d="M87 132l-18-6-21 54z"/><path fill-opacity=".5" d="M219 107.8L208.6 185l-96.3-15.4L226.7 115z"/><path fill="#b9eafd" fill-opacity=".2" d="M116.9 22.1L95 97.9l-3.1 18.4-11.4 1.5z"/><circle r="1" fill="#307f79" fill-opacity=".5" transform="rotate(91.7 9.7 107.3) scale(6.24765 13.62601)"/><path fill="#111623" fill-opacity=".8" d="M144.6 58.6l-9.1 30.3-3.8-4.9 4.1-23.9z"/><path fill="#ffe7e2" fill-opacity=".3" d="M98.6 62.2l30.5 32 1.3-38.1 7.6 64.8z"/><path fill="#373207" fill-opacity=".5" d="M90 158l4-22-11 3z"/><path fill="#2e2202" fill-opacity=".5" d="M213.3 74.3L229.9 63l-9.5 10.3-4.6 23.8z"/><path fill="#c0d3f8" fill-opacity=".3" d="M227 101.5l5.6 35.4 3.7-28.1 34.7-7.2z"/><path fill="#000a01" fill-opacity=".5" d="M130.1 115.6L100 166l24.1 19-7.1-74.9z"/><circle r="1" fill="#798a69" fill-opacity=".7" transform="matrix(11.90824 -9.68937 18.4361 22.65799 17 33.2)"/></g></svg>