<svg xmlns="http://www.w3.org/2000/svg" viewBox="0 0 300 199"><defs/><path fill="#543933" d="M0 0h300v199H0z"/><g transform="translate(.6 .6) scale(1.17188)"><circle r="1" fill="#dad6d9" fill-opacity=".6" transform="matrix(-70.82101 76.86598 -51.246 -47.21586 150.3 77.9)"/><circle r="1" fill="#d8e4eb" fill-opacity=".8" transform="rotate(174.1 70.3 19.4) scale(24.80517 93.02815)"/><ellipse cx="42" cy="131" fill="#8f7e7a" fill-opacity=".7" rx="150" ry="44"/><circle r="1" fill="#def8ff" fill-opacity=".6" transform="matrix(-67.44199 38.63847 -5.31206 -9.272 211.7 81)"/><circle r="1" fill="#002166" fill-opacity=".7" transform="matrix(24.27375 17.89615 -50.88055 69.0127 219.1 139.5)"/><circle r="1" fill-opacity=".7" transform="matrix(-26.15276 .86758 -2.39128 -72.08423 25.9 41.6)"/><ellipse cx="210" cy="9" fill="#440700" fill-opacity=".5" rx="48" ry="31"/><ellipse cx="104" cy="62" fill="#290600" fill-opacity=".4" rx="18" ry="51"/><path fill="#eef8ff" fill-opacity=".7" d="M11.2 103.7l3.9 13.1-31.1 6.6V10.6z"/><path fill="#200f10" fill-opacity=".8" d="M43.4 142.7L18 133-4.8-16l38.7 116.9z"/><ellipse cx="48" cy="119" fill="#fae4de" fill-opacity=".5" rx="8" ry="28"/><path fill="#060117" fill-opacity=".6" d="M149.8 176.6l-44.4 8.4 29.5-31.4 12.5-5.9z"/><ellipse cx="4" cy="142" fill="#e3fef8" fill-opacity=".4" rx="31" ry="9"/><circle r="1" fill="#efeaef" fill-opacity=".4" transform="matrix(-25.65882 11.53153 -12.8315 -28.5514 191.9 76.9)"/><path fill="#c4c0c0" fill-opacity=".6" d="M90 109.9l5 70.8-21 1.4-5-70.8z"/><circle r="1" fill="#01102d" fill-opacity=".9" transform="matrix(-17.40845 -14.83967 45.04154 -52.83832 237.1 163.8)"/><circle r="1" fill-opacity=".5" transform="matrix(-11.8909 10.55723 -13.65704 -15.3823 97.5 29.2)"/><path fill-opacity=".5" d="M0 162h45v8H0z"/><path fill="#d8ebed" fill-opacity=".4" d="M158 3L78-7l65 45z"/><path fill="#eedde0" fill-opacity=".6" d="M126 154l-41 2 43-27z"/><path fill="#635d50" fill-opacity=".6" d="M158 101l37 12.5 1.9 15.6-42-22.6z"/><path fill="#7c4632" fill-opacity=".5" d="M49 99l63-35-59 75z"/><ellipse cx="190" cy="51" fill="#c28672" fill-opacity=".3" rx="44" ry="25"/><path fill="#e1ffff" fill-opacity=".5" d="M204 75l-10 48 42-63z"/><path fill="#cab9b8" fill-opacity=".8" d="M50.3 159.3l9.3 25.7-14-87.7-10.3 2.6z"/><path fill="#321d01" fill-opacity=".3" d="M128.7 99l5.9 30-63.5 31.5 33-23.1z"/><path fill="#160d0f" fill-opacity=".8" d="M20.3 101.6l27.6-8.7 25.2-19-78-80.5z"/><ellipse cx="136" cy="68" fill="#def1fe" fill-opacity=".6" rx="12" ry="37"/><path fill="#c8b1a3" fill-opacity=".5" d="M98 62L58 96l23-51z"/><path fill="#8b816f" fill-opacity=".5" d="M66 67L88-9 53 47z"/><circle r="1" fill="#c4dbff" fill-opacity=".6" transform="matrix(-4.36829 -5.65478 36.73444 -28.37717 232.5 72.9)"/><path fill="#6b4539" fill-opacity=".5" d="M220 63l-8-73 45 56z"/><circle cx="155" cy="144" r="7" fill="#290000" fill-opacity=".5"/><path fill="#cfd3d7" fill-opacity=".5" d="M135 110h34v18h-34z"/><ellipse cx="38" cy="28" fill="#13090c" fill-opacity=".7" rx="19" ry="44"/><path fill="#644e4f" d="M174.8 161.4l-6-29.8 17.7 10.9-34 24.4z"/><circle r="1" fill="#0f4892" fill-opacity=".5" transform="rotate(124.4 63.6 119.4) scale(67.58135 9.83535)"/><path fill="#761213" fill-opacity=".5" d="M167 0h14v35h-14z"/><path fill="#87786b" fill-opacity=".7" d="M131 105l-40 45 23-91z"/><circle r="1" fill="#d8c2c2" fill-opacity=".6" transform="matrix(-1.9041 -4.75933 41.85805 -16.74649 63 169)"/><circle r="1" fill="#1e2727" fill-opacity=".6" transform="matrix(-42.3955 -20.53478 8.75886 -18.08328 244.7 6.4)"/><path fill="#5e1c10" fill-opacity=".4" d="M58 170l5-56 10 29z"/><path fill="#d3d3d7" fill-opacity=".3" d="M115 32h84v30h-84z"/><path fill="#efffff" fill-opacity=".5" d="M21 150h9v9h-9z"/><path fill="#dbdbdf" fill-opacity=".6" d="M55 92.1l-1-1.6 17-10.6 1 1.6z"/><circle r="1" fill="#c2cacd" transform="matrix(17.36982 -.00391 .0037 16.4584 178 92.9)"/><path fill="#f4fdff" fill-opacity=".5" d="M127 161l-10-15 2 17z"/><path fill="#fcd8e3" fill-opacity=".3" d="M169.8 169.1l2.6-15.6-6-14.2-9.9 11.9z"/><path fill="#412825" fill-opacity=".7" d="M33.7 174.2l11.9-25.8 6.6 18.7-20.3-21.6z"/><path fill="#4f403c" d="M51.5 162.4l6.4 18.9-21.8-64.5-.2 18.2z"/><path fill="#614137" fill-opacity=".6" d="M89 45l25-21 13 76z"/><path fill="#d7cdcd" fill-opacity=".4" d="M43.5 112.6l7.6-17-21.6 4.2 18.8 20.8z"/><ellipse cx="68" cy="60" fill="#433227" fill-opacity=".8" rx="5" ry="19"/><path fill="#282d12" fill-opacity=".5" d="M160.6 55.6l1.7 9.9-4.9.9-1.7-9.9z"/><path fill="#836e68" d="M113 158.7l-4.4-4.5L53.3 185l78.6-1.7z"/><path fill="#d3f4ff" fill-opacity=".3" d="M67.2 132.2l6.5-29 14.5 24.9-13.4 8.3z"/><ellipse cx="181" cy="63" fill="#7b3e2b" fill-opacity=".3" rx="7" ry="15"/><path fill="#cbbaa4" fill-opacity=".5" d="M60 37l-8 16 12-1z"/><path fill="#5e2f20" fill-opacity=".5" d="M136 162l-13-15 40 11z"/><path fill="#928b88" d="M13.2 140l-19.6 15.9L34 141.7 4.1 165.6z"/><path fill="#080b09" fill-opacity=".6" d="M77 13h32v16H77z"/><path fill="#2a0f05" fill-opacity=".5" d="M134 127l-4-24-4 22z"/><ellipse cx="94" cy="91" fill="#784d3f" fill-opacity=".6" rx="14" ry="19"/><path fill="#ad7061" fill-opacity=".3" d="M187.6 22.3L181.4-16l70 66.4-41.9 19z"/><path fill="#080000" fill-opacity=".5" d="M22.7 129.4l3.8-19.6 14.8 2.8-3.8 19.6z"/></g></svg>