<svg xmlns="http://www.w3.org/2000/svg" viewBox="0 0 300 199"><defs/><path fill="#4b294b" d="M0 0h300v199H0z"/><g transform="translate(.6 .6) scale(1.17188)"><path fill="#679aff" fill-opacity=".6" d="M190 54L41 16l93 159z"/><circle r="1" fill="#070831" fill-opacity=".7" transform="rotate(-57 161.4 -11) scale(51.06955 28.85219)"/><circle r="1" fill="#0f030f" fill-opacity=".7" transform="rotate(-158.4 129 34.2) scale(43.37524 242.08449)"/><circle r="1" fill="#0093ff" fill-opacity=".7" transform="matrix(10.15522 -34.652 19.82507 5.81 124.5 152)"/><circle r="1" fill="#00030f" fill-opacity=".7" transform="matrix(-14.56102 -130.53922 27.59445 -3.07803 17.4 98.6)"/><circle r="1" fill="#7c8fff" fill-opacity=".6" transform="rotate(119.2 19.5 41.1) scale(27.20099 18.98893)"/><ellipse cx="159" cy="77" fill="#6658be" fill-opacity=".6" rx="25" ry="52"/><path fill="#0067ff" fill-opacity=".6" d="M53 79h17v29H53z"/><circle r="1" fill="#bda7ff" fill-opacity=".5" transform="matrix(11.1718 37.59795 -13.66068 4.05911 123.3 58.8)"/><circle r="1" fill="#3e2472" fill-opacity=".6" transform="matrix(14.03322 -17.76913 35.71453 28.20564 193.7 96.8)"/><path fill="#4afffc" fill-opacity=".6" d="M128.3 92.7l13.4 4-16 52.6-13.4-4z"/><path fill="#141625" fill-opacity=".8" d="M87.4 34l9.8 13.4L112.3 7 44.1-16z"/><path fill="#433d40" d="M138.7-.5l-35.8-5 28.2 51.2 21.5 6.3z"/><circle r="1" fill="#a9a6fb" fill-opacity=".8" transform="matrix(14.4008 13.62 -7.78047 8.2265 81.4 46.8)"/><circle cx="52" cy="93" r="35" fill="#172d6f" fill-opacity=".4"/><circle r="1" fill="#201a0d" fill-opacity=".5" transform="rotate(38.5 76 261.7) scale(86.35437 16.06573)"/><path fill="#9e8fa5" fill-opacity=".9" d="M43.3 22.6l-12.6-8.2L33.1.8 32.4-9z"/><ellipse cx="159" cy="34" fill="#c8c4fc" fill-opacity=".5" rx="13" ry="7"/><path fill="#9e9bef" fill-opacity=".5" d="M120 93l-13-21 84-26z"/><path fill="#5a121b" fill-opacity=".4" d="M86.8 57.9L20.2 92.2l90.1-37-3.7 28.4z"/><path fill="#0c0e3a" fill-opacity=".4" d="M145 119h56v51h-56z"/><path fill="#2a2148" d="M128.4 93.4l-13.5 31-65.2 5.7-15.2-20.9z"/><path fill="#361c3d" fill-opacity=".8" d="M70.5 9L47.3 36.6 33.5 25 56.7-2.6z"/><ellipse cx="169" cy="15" fill="#d8dec6" fill-opacity=".6" rx="2" ry="21"/><path fill="#dabdf1" fill-opacity=".6" d="M107.6 35.5l11.1-14.6-5 29.5-27.1 10.2z"/><path fill="#1c0004" fill-opacity=".5" d="M95.8 90.6L68.6 65.1l2.4 44.7 22.6-5.9z"/><ellipse cx="147" cy="14" fill="#d0efaa" fill-opacity=".5" rx="3" ry="22"/><circle r="1" fill="#0f0a0c" fill-opacity=".7" transform="rotate(82.6 94.4 164.2) scale(56.54832 25.6149)"/><path fill="#dafeec" fill-opacity=".6" d="M129.4 120.5l3.5-14.1-7.4-8.9-4.2 25.1z"/><path fill="#0000a4" fill-opacity=".4" d="M87 157h61v13H87z"/><path fill="#016cff" fill-opacity=".5" d="M68 81l-1 26-23-14z"/><path fill="#3f3da2" fill-opacity=".5" d="M154 148l25-104 32 5z"/><circle r="1" fill="#600438" fill-opacity=".5" transform="rotate(74 53.3 185.2) scale(49.77166 13.82014)"/><ellipse cx="198" cy="93" fill="#7573f6" fill-opacity=".5" rx="7" ry="10"/><path fill="#2c194e" fill-opacity=".6" d="M161.4 24.2L157.6 68l-3-.2 3.8-43.8z"/><circle r="1" fill="#07080a" fill-opacity=".6" transform="matrix(60.18521 -23.38292 11.10267 28.57712 206 169)"/><circle r="1" fill="#2a67e5" fill-opacity=".4" transform="rotate(-160.8 33.3 21.4) scale(13.22584 20.67025)"/><circle r="1" fill="#030500" fill-opacity=".6" transform="matrix(-25.29966 -15.86314 18.9543 -30.22966 1.2 46)"/><path fill="#7188f1" fill-opacity=".4" d="M188.3 109.9l-83.5-20.1L119.5 64l60.2 37.7z"/><path fill="#ffc8ff" fill-opacity=".4" d="M66 26l8.3-5.5L86 37.9l-8.3 5.6z"/><path fill="#8e9eff" fill-opacity=".6" d="M84 51h10v33H84z"/><path fill="#3f3474" fill-opacity=".6" d="M102.9 114.8l-19.4 4.3-44.9-14.3-27.9-19.9z"/><path fill="#5a6294" fill-opacity=".6" d="M195 13l31-4-10-25z"/><circle r="1" fill="#0099fb" fill-opacity=".4" transform="rotate(94 -5 134.3) scale(15.08759 20.00365)"/><path fill="#000300" fill-opacity=".7" d="M172-1.5l27.7-11.7 6.2 14.7-27.6 11.7z"/><path fill="#282e30" fill-opacity=".7" d="M98 0h13v35H98z"/><path fill="#8f7fd6" fill-opacity=".5" d="M198 51l-36 2-3-15z"/><path fill="#513669" fill-opacity=".6" d="M92 112l11-56 12 50z"/><path fill="#8e4d50" fill-opacity=".5" d="M202.9 39.6l11.3-22.7-14.9-8.1-2.1 30.6z"/><path fill="#3a312e" fill-opacity=".6" d="M148.7-3l-30.8-7.1 35.7 55.4-12.5 20.2z"/><path fill="#001977" fill-opacity=".4" d="M149 78l24 18 27-32z"/><ellipse cx="70" cy="5" fill="#00061b" fill-opacity=".6" rx="32" ry="6"/><path fill="#494dcb" fill-opacity=".5" d="M135 137.4l15-12.4 42.3-16.5-55.6-12.6z"/><path fill="#281c15" fill-opacity=".6" d="M170 16l22 22-16 11z"/><path fill="#03071d" fill-opacity=".5" d="M182 98h15v28h-15z"/><path fill="#4b2b4d" fill-opacity=".9" d="M160.3 159.5l-5.8 8.8-11.1-40.6 15.8-1.5z"/><path fill="#f7dbf4" fill-opacity=".5" d="M152 74l-17-4 17-8z"/><circle r="1" fill="#140d30" fill-opacity=".6" transform="matrix(-46.02776 -37.49782 8.6838 -10.65918 62 142.2)"/><circle r="1" fill="#b26bb3" fill-opacity=".5" transform="rotate(-138.7 30 -1.7) scale(1.22715 10.76082)"/><path fill="#ad2081" fill-opacity=".5" d="M222 97l4 25-13 5z"/><path fill="#633b87" fill-opacity=".5" d="M93.5 127.7l18.7-63.6 8 8.9-3.7-38z"/><path fill="#3f3e50" d="M107.8-12.6l3.7 1.8L101 45.5l-2.8 5.8z"/><path fill="#231b41" fill-opacity=".6" d="M15 116l-31-23 81-18z"/><path fill="#e4defd" fill-opacity=".4" d="M114.3 29.4l16.1 10.1-27.8-4.1 8.9 23.5z"/><path fill="#cdb7ff" fill-opacity=".5" d="M152 30h4v34h-4z"/></g></svg>