<svg xmlns="http://www.w3.org/2000/svg" viewBox="0 0 300 199"><defs/><path fill="#603630" d="M0 0h300v199H0z"/><g transform="translate(.6 .6) scale(1.17188)"><circle r="1" fill="#021518" fill-opacity=".6" transform="matrix(-39.99687 134.4287 -230.50413 -68.5824 121.7 29.8)"/><circle r="1" fill="#8f765a" fill-opacity=".7" transform="matrix(62.59528 11.48838 -2.16443 11.79306 77.6 107.4)"/><path fill="#e1d2be" fill-opacity=".5" d="M210 126l-82-11 79 33z"/><path fill="#eefff8" fill-opacity=".7" d="M271 103v32l-27 1z"/><circle r="1" fill="#171518" fill-opacity=".9" transform="matrix(12.8849 -172.26674 13.9521 1.04356 127.2 112.4)"/><path fill="#c3cdc0" fill-opacity=".5" d="M94 65.6l2-20.9 16 1.7-2.2 20.9z"/><circle r="1" fill="#000002" fill-opacity=".5" transform="matrix(-14.937 -27.74877 60.59724 -32.61912 5 60.4)"/><path fill="#dfb389" fill-opacity=".4" d="M116.5 116.7l-21.9-14.9-39.9.7 30.6 20.1z"/><circle cx="221" cy="79" r="52" fill="#08070b" fill-opacity=".5"/><path fill="#5f5652" fill-opacity=".7" d="M220.3 123.1l-65.9-5.9-13.5-2.6-4.9 19.8z"/><path fill="#a1b574" fill-opacity=".6" d="M19 146l-35-19 4 58z"/><path fill="#040909" fill-opacity=".7" d="M82.2 59.5l6.5 4.6-96.9 138.4-6.5-4.6z"/><path fill="#6d6e5c" fill-opacity=".5" d="M200 145l21 18 24-20z"/><path fill="#a99675" fill-opacity=".5" d="M59.7 93.2l-27.1 15-6.3-11.4 27.1-15z"/><path fill="#e3d7bc" fill-opacity=".5" d="M167 128h37l-6 12z"/><path fill="#121315" fill-opacity=".6" d="M164.6 47.1l-70.8 6L140 96l-40.4 14.8z"/><path fill="#667d42" fill-opacity=".6" d="M8 185l20-35 125 35z"/><path fill="#feeed1" fill-opacity=".3" d="M118.8 53.7l-3.4-6.9-17.7-4.4 4.7 9.4z"/><path fill="#9b7e53" fill-opacity=".8" d="M10.7 102.7l18.2-10.9L50.3 103l-4.5 8.1z"/><circle r="1" fill="#050809" fill-opacity=".4" transform="rotate(9.2 -934 1028) scale(75.5772 23.0006)"/><path fill="#f5f0ff" fill-opacity=".5" d="M109 5l-4-21 11 21z"/><path fill="#7a7b79" fill-opacity=".5" d="M198.2 81.9l-9.2-.7-16.9-3.9-10.3-10z"/><ellipse cx="164" cy="33" fill="#08060a" fill-opacity=".5" rx="118" ry="11"/><path fill="#e5ffff" fill-opacity=".5" d="M104 60.4l-1.3 6.9-8.8-1.7 1.4-6.9z"/><circle r="1" fill="#0d0d10" fill-opacity=".6" transform="matrix(138.79725 18.5195 -1.35016 10.119 70.2 72)"/><path fill="#e5a990" fill-opacity=".3" d="M89.2 95.5l27.7 24.8-16.1 5.8-3.4-47z"/><path fill="#fdd5b6" fill-opacity=".3" d="M158.2 122l-21.7 13.6 6.8-20.1 11 2.6z"/><circle r="1" fill="#9898b1" fill-opacity=".6" transform="matrix(-5.84114 -7.28604 1.01693 -.81526 189 8.5)"/><path fill="#0f1115" fill-opacity=".5" d="M88.2 77.3l-.4 24-32-.6.4-24z"/><path fill="#302c34" fill-opacity=".8" d="M175.9 143.5l-22.6-52 34.4 29.6-45.9 13.7z"/><ellipse cx="136" cy="96" fill="#1b1a1f" fill-opacity=".8" rx="37" ry="20"/><path fill="#faffff" fill-opacity=".6" d="M255 113h1v20h-1z"/><path fill="#121711" fill-opacity=".5" d="M63 123l-71 2 63 38z"/><path fill="#fff8f5" fill-opacity=".5" d="M238 6l-5 7 1-5z"/><path fill="#bf9a6d" fill-opacity=".5" d="M58.7 115.8l3-15.8 21.6 4.2-3 15.8z"/><path fill="#d7b49d" fill-opacity=".1" d="M158 53.1l53.4 2.6-15.9 10.9-40.1-5.5z"/><path fill="#343a37" fill-opacity=".7" d="M222.7 135.6l-22.3 12.8 24.6 1.7 46-14.3z"/><ellipse cx="6" cy="46" fill="#0d0c0f" fill-opacity=".7" rx="21" ry="59"/><ellipse cx="187" cy="132" fill="#cabfb0" fill-opacity=".6" rx="9" ry="7"/><path fill="#242429" fill-opacity=".6" d="M243.6 136l-90.9-19.3-29.8-3.6v-37z"/><path fill-opacity=".5" d="M212 117h8v33h-8z"/><path fill="#2c2926" d="M105.5 29L94.8 57.9l-46-5.3 53.9-15z"/><path fill="#6f6651" fill-opacity=".3" d="M175.8 143.8l81.7 13.4-43.8-.2-2.5-30.1z"/><ellipse cx="17" cy="119" fill="#4d5149" fill-opacity=".5" rx="21" ry="4"/><path fill="#83221e" fill-opacity=".5" d="M248.5 82.4l2.9 1.8-16.4 5.3 9.5-12.8z"/><path fill="#c6cbe7" fill-opacity=".4" d="M171.5 102v6h-3v-6z"/><path fill="#101012" fill-opacity=".6" d="M155 105l71-4-111-52z"/><path fill="#313235" fill-opacity=".7" d="M15.3 93.4h24.3l10.8-8.3 18.5-16.4z"/><circle r="1" fill="#000003" fill-opacity=".5" transform="rotate(85.3 34 217.5) scale(9.54947 23.80263)"/><path fill="#fff" fill-opacity=".3" d="M180.8 77.5l18.6 4-.2 1-18.6-4z"/><path fill="#282b27" fill-opacity=".8" d="M-8.7 114.2l26.9 5.6-6.7 27.4-3.4-5.2z"/><path fill="#fbeec9" fill-opacity=".1" d="M236.1 139l-14-2.2 1.1 7.6-7.8 25.9z"/><path fill="#404a62" fill-opacity=".3" d="M92 24.2l-11.6-3.1-11.5-5.8L178.6-16z"/><path fill="#1a1a1b" fill-opacity=".6" d="M207.1 185l-1.2-38.2-39.7 2.2 24.8-12.1z"/><path fill="#967760" fill-opacity=".4" d="M105.8 113.1l6.7 19.5-41-23.5 21.4-15.5z"/><path fill="#171616" fill-opacity=".8" d="M100.3 185l33.9-53-46.3-9-23.8-7.7z"/><path fill="#fff" fill-opacity=".5" d="M205 134h2v10h-2z"/><path fill="#131213" fill-opacity=".7" d="M218 24.3L77.5 61.4 167 49.7l17.4 17z"/><path fill="#c5cbfe" fill-opacity=".2" d="M201 4.7l-20.2 6.8L196.6-.8 180.4 19z"/><path fill="#e7ddb8" fill-opacity=".5" d="M78 110.4l8.8 8.2-2.8 3-8.8-8.2z"/><circle r="1" fill="#f1ecda" fill-opacity=".6" transform="rotate(-99.9 72.2 -19.6) scale(2.80076 4.87329)"/><path fill="#8d8b63" fill-opacity=".5" d="M74 160.5l-9.8 20.8-8.1-3.8 9.7-20.8z"/><path fill="#101012" d="M215.6 62l-31 29.9-3.3 18 73 3.7z"/><circle r="1" fill="#6a654c" fill-opacity=".4" transform="matrix(-10.91666 .20961 -.07154 -3.72572 32.4 16.3)"/><path fill="#c7c3ae" fill-opacity=".5" d="M47.7 91l4.2-4.3 6.4 6.4-4.2 4.2z"/></g></svg>