<svg xmlns="http://www.w3.org/2000/svg" viewBox="0 0 300 199"><defs/><path fill="#444" d="M0 0h300v199H0z"/><g transform="translate(.6 .6) scale(1.17188)"><ellipse cx="116" cy="165" fill="#fcfcfc" fill-opacity=".4" rx="59" ry="66"/><circle r="1" fill="#f9f9f9" fill-opacity=".5" transform="matrix(25.29798 32.52868 -16.64517 12.94517 218.6 143.8)"/><ellipse cx="19" cy="76" fill="#f1f1f1" fill-opacity=".5" rx="32" ry="25"/><circle cx="76" cy="17" r="27" fill="#fff" fill-opacity=".5"/><circle r="1" fill="#bebebe" fill-opacity=".6" transform="matrix(-9.47752 -24.66218 60.73398 -23.33967 30.3 169)"/><circle r="1" fill="#040404" fill-opacity=".5" transform="matrix(7.632 49.87539 -84.48648 12.92825 218.9 29.5)"/><path fill="#010101" fill-opacity=".4" d="M121.9 154.7l-98-45.6 10.2-21.8 98 45.6z"/><circle cx="13" cy="17" r="34" fill-opacity=".7"/><circle r="1" fill="#f1f1f1" fill-opacity=".5" transform="rotate(-40.3 252.9 -128.4) scale(12.4599 51.25826)"/><path fill="#d3d3d3" fill-opacity=".5" d="M192 78h12v46h-12z"/><ellipse cx="129" cy="34" fill="#fff" fill-opacity=".4" rx="5" ry="28"/><path fill="#090909" fill-opacity=".6" d="M211 124h39v9h-39z"/><path fill="#0f0f0f" fill-opacity=".6" d="M151 16h35v105h-35z"/><path fill="#4e4e4e" d="M92.2 174.9l32.5 10.1-.2-64.5 7.6 15.7z"/><path fill="#a1a1a1" fill-opacity=".5" d="M51 78l30 28 47-41z"/><circle cx="231" cy="147" r="16" fill="#fcfcfc" fill-opacity=".5"/><circle r="1" fill="#0c0c0c" fill-opacity=".6" transform="matrix(11.03112 14.4519 -20.30125 15.49592 37.9 120.4)"/><path fill="#bebebe" fill-opacity=".3" d="M119.8 66.2l30.7 26-51-17.6L74.2-16z"/><path fill="#9b9b9b" fill-opacity=".6" d="M51 0h14v58H51z"/><path fill="#2b2b2b" fill-opacity=".7" d="M208 53h48v64h-48z"/><ellipse cx="115" cy="13" fill-opacity=".5" rx="12" ry="32"/><path fill="#070707" fill-opacity=".4" d="M56.2 156.5l-15.6 10.4L65.1 185l8.1-14.1z"/><path fill="#0a0a0a" fill-opacity=".6" d="M100.5 51.1l-36-6.5 2.2 43 28.9-35.1z"/><path fill="#0f0f0f" fill-opacity=".5" d="M165 89h14v57h-14z"/><circle r="1" fill="#d7d7d7" fill-opacity=".8" transform="rotate(84.9 -1.7 115.7) scale(11.75538 11.764)"/><path fill="#f2f2f2" fill-opacity=".4" d="M72.1 95L51 81.2l-10.9.2 15.1-13.5z"/><circle r="1" fill="#4d4d4d" fill-opacity=".6" transform="matrix(12.84663 -6.52611 11.1584 21.96528 203 67.7)"/><circle r="1" fill="#c8c8c8" fill-opacity=".6" transform="matrix(12.52537 -39.05885 14.40566 4.6196 147.7 160.2)"/><path fill="#656565" d="M114.7 153.8l-4.6-33.4-46.8-42.9 29.9 59.6z"/><path fill="#5b5b5b" fill-opacity=".5" d="M168 148l65 8-46-24z"/><circle r="1" fill="#c3c3c3" fill-opacity=".5" transform="matrix(-49.20952 20.96091 -2.43889 -5.72573 23.7 153.5)"/><path fill="#0e0e0e" fill-opacity=".6" d="M242.8 156.8l7.5-2.9 9 23.3-7.6 2.9z"/><path fill="#e0e0e0" fill-opacity=".3" d="M150.5 96.4L145 84.7l-.7-6.8-34.5 55.4z"/><path fill="#0b0b0b" fill-opacity=".8" d="M50.9 35.1l-3.2 16.5.2 12.3L.6 8.5z"/><path fill="#e0e0e0" fill-opacity=".5" d="M26 47l15 7-41 5z"/><ellipse cx="223" cy="163" fill="#d3d3d3" fill-opacity=".5" rx="20" ry="8"/><path fill="#383838" fill-opacity=".7" d="M90.3 66h10l-.6 30h-10z"/><ellipse cx="132" cy="9" fill="#7e7e7e" fill-opacity=".9" rx="4" ry="21"/><path fill="#313131" fill-opacity=".4" d="M81 127h52v14H81z"/><path fill="#b3b3b3" fill-opacity=".7" d="M108.7 154.3l-6.9-6.7 9.2-6.6 9.1 1.6z"/><path fill="#fff" fill-opacity=".4" d="M80 77h7v9h-7z"/><path fill="#878787" fill-opacity=".3" d="M68.7 62.4L44.5 31.1 20.3 16l36.4-6.6z"/><ellipse cx="162" cy="12" fill="#212121" fill-opacity=".6" rx="27" ry="89"/><path fill="#171717" fill-opacity=".6" d="M71 100l-1 31-86-26z"/><circle cx="83" cy="4" r="21" fill="#bababa" fill-opacity=".5"/><circle cx="141" cy="122" r="12" fill="#e2e2e2" fill-opacity=".5"/><path fill="#0a0a0a" fill-opacity=".6" d="M172.4 103.7l-32.1 7.5-.7-3 32.1-7.4z"/><path fill="#242424" fill-opacity=".8" d="M182.3 133l-10.6 12-8.5-16.3 33-46.2z"/><path fill="#111" fill-opacity=".5" d="M206 153l-25 19 2-18z"/><path fill="#3b3b3b" d="M271 183.5l-25.1-53-24.2 3.3 17.8-65.2z"/><path fill="#797979" fill-opacity=".5" d="M193.2 136V92.4l-18.7 73.8-20.1 1.6z"/><path fill="#6f6f6f" fill-opacity=".5" d="M119.3 145.3l21 4.2-10.3-28.2-5.6-4.7z"/><path fill="#232323" fill-opacity=".6" d="M100.2-4l1 .1L97.8 34l-1-.1z"/><path fill="#9e9e9e" fill-opacity=".5" d="M-14 136.6l-2-7.7 30-7.5 2 7.7z"/><path fill="#bebebe" fill-opacity=".6" d="M196 138.9l.7-58.6 13.1 43.4 8.9 26.6z"/><path fill-opacity=".1" d="M16 163h119v7H16z"/><path fill="#fff" fill-opacity=".4" d="M124 37h4v19h-4z"/><path fill="#898989" fill-opacity=".6" d="M204.2 99.3l2.3 18.2 1.6-42.7L217 79z"/><path fill="#e6e6e6" fill-opacity=".2" d="M31.8 150.9l-18.7 11.8-5.5-19.5 15.6-7.6z"/><path fill="#171717" fill-opacity=".6" d="M82 124L3 139l49-58z"/><path fill="#fafafa" fill-opacity=".4" d="M55.7 39.4l2.1 1.3 8.4 15.9-11.5-4.1z"/><path fill="#050505" fill-opacity=".5" d="M211 85h11v31h-11z"/><path fill="#bbb" fill-opacity=".6" d="M184.8 167l-45.9-22.4 41.6 7.3L149 185z"/><path fill="#010101" fill-opacity=".5" d="M124.1 97.3l-14.8-10.6 5.7-6.8 15.8 7.7z"/><path fill="#c8c8c8" fill-opacity=".4" d="M50 141.2l11.1-10.1L93 144.5l9.7 32.8z"/></g></svg>