<svg xmlns="http://www.w3.org/2000/svg" viewBox="0 0 300 199"><defs/><path fill="#493d57" d="M0 0h300v199H0z"/><g transform="translate(.6 .6) scale(1.17188)"><circle r="1" fill="#e1dccc" fill-opacity=".7" transform="rotate(-67.8 45.7 -33.1) scale(105.46135 80.19444)"/><circle cx="217" cy="27" r="75" fill="#140300"/><circle r="1" fill="#cf8e77" fill-opacity=".7" transform="rotate(-112.1 151.5 -1) scale(20.77426 88.82316)"/><path fill="#dfecee" fill-opacity=".8" d="M-16 88v97l57-7z"/><ellipse cx="101" cy="90" fill="#7f654f" fill-opacity=".8" rx="23" ry="83"/><circle r="1" fill="#e4f5ff" fill-opacity=".5" transform="matrix(10.87224 107.03518 -27.09513 2.75222 45 32.6)"/><circle r="1" fill="#230200" fill-opacity=".6" transform="rotate(67.2 4 194.3) scale(13.35741 54.69922)"/><path fill="#ffffed" fill-opacity=".5" d="M153 66l8 35-42-16z"/><ellipse cx="247" cy="133" fill="#cca9ce" fill-opacity=".6" rx="13" ry="32"/><path fill-opacity=".6" d="M21 145l72 8-20 32zm75.5-78.5h25v21h-25z"/><ellipse cx="90" cy="41" fill="#8d6440" rx="22" ry="11"/><circle r="1" fill="#e7f3ff" fill-opacity=".6" transform="rotate(134.4 -6.2 45.4) scale(18.21671 31.97649)"/><path fill="#fcfffa" fill-opacity=".4" d="M107.4 75.6l17.7-32.9-37-.4-4.6-11.9z"/><path fill="#644401" fill-opacity=".4" d="M22.1 34.8L33 58.3l-49-11.7 1.1-16.4z"/><ellipse cy="6" fill="#050000" fill-opacity=".5" rx="13" ry="11"/><path fill="#4e5f5c" fill-opacity=".5" d="M51.6 157.8l-59.3-56.6 36.7 6.7 66.4 25.9z"/><path fill="#ffd0bb" fill-opacity=".5" d="M89 77l-20-3 31 55z"/><path fill="#889c8a" fill-opacity=".7" d="M99.9 172l38.3-22.5 6.3-10.3-37.5 4.5z"/><path fill="#ac3f04" fill-opacity=".5" d="M84 7h65v12H84z"/><circle r="1" fill="#842602" fill-opacity=".4" transform="matrix(-14.56077 -13.41524 26.47973 -28.74085 206.3 159.7)"/><path fill="#f1e8db" fill-opacity=".7" d="M100.2 25.9l-40.5-8.5 25.8 16.5 13.8 1.7z"/><path fill="#ffe0ba" fill-opacity=".5" d="M129.7 180.1l-5.6-5.7 48.2-46.5 5.6 5.7z"/><path fill="#fafef8" fill-opacity=".4" d="M143.6 32L140 51.2 106.1 20l-1.1-2.4z"/><path fill="#b4b9c0" fill-opacity=".9" d="M5 158l51 27-16-27z"/><circle r="1" fill="#290b01" fill-opacity=".8" transform="matrix(-21.22711 11.33422 -11.6623 -21.84153 193.3 101)"/><path fill="#9ea4ab" d="M124.8 70.4l-5.4 13.8 17.9 11.9-17.1-52.3z"/><path fill="#b96630" fill-opacity=".5" d="M161 99l-26-54 44 46z"/><path fill="#241d1c" d="M134.3 93.4l-30.5 14.2-14.3-18.7 20.1 9.4z"/><circle r="1" fill="#090e17" fill-opacity=".7" transform="matrix(4.18184 .01533 -.0229 6.24822 78.2 68.5)"/><ellipse cx="76" cy="54" fill="#d2dae3" fill-opacity=".9" rx="37" ry="3"/><ellipse cx="135" cy="65" fill-opacity=".6" rx="7" ry="12"/><path fill="#0c1e28" fill-opacity=".6" d="M79.7 111.7l14.3 23-3.5 8.4-23.2 15.4z"/><path fill="#bbb3b4" fill-opacity=".8" d="M114.5 117L69 83.9l1.5 31.1 45.4-11.2z"/><ellipse cx="93" fill="#f3f5ff" fill-opacity=".6" rx="22" ry="9"/><path fill="#12130c" fill-opacity=".5" d="M25.6 156.3L4.9 114.9l6.9-.5 55 57.7z"/><circle r="1" fill="#625e3d" fill-opacity=".5" transform="matrix(16.44214 -21.04499 13.17554 10.29386 138.6 116.3)"/><circle r="1" fill="#edf8ff" fill-opacity=".5" transform="rotate(-39.1 33.1 -36.9) scale(28.93577 12.04024)"/><circle r="1" fill="#07000c" fill-opacity=".7" transform="rotate(97.8 21.3 60.8) scale(4.10742 8.14857)"/><path fill="#d6e0e8" fill-opacity=".5" d="M141.8 41.6l-21.4 14.6 3.3-44.9 12 .8z"/><path fill="#310c18" fill-opacity=".9" d="M188.7 161.8l-8.4 15.1 40.4-19.3 19.7 6.8z"/><path fill="#000206" fill-opacity=".7" d="M115.8 87.1l8.6-19-7.6-8.2-8.9 12.2z"/><path fill="#c35e10" fill-opacity=".6" d="M91 32l15 17 24-14z"/><path fill="#3d2b5b" fill-opacity=".7" d="M221.4 116.8l-4.4 17 54-59.7-3.9-3z"/><path fill="#1d0600" fill-opacity=".6" d="M227.8 101.9l-112.7 13.7 38 6 11.7 11.4z"/><path fill="#ff2000" fill-opacity=".5" d="M85 24.4l-2.6-10.7 16.5-4 2.7 10.6z"/><path fill="#ac7355" fill-opacity=".9" d="M229.2 136.6l-50.5-9.8-19.2 20.2-22.9 38z"/><path fill="#784013" fill-opacity=".6" d="M94.7 176.3l-10.2-4 22.8-56.6 10.2 4z"/><path fill="#021c21" fill-opacity=".5" d="M127.6 169.7l-6.3-7.4-1.1-2.9 27.3-11.4z"/><ellipse cx="111" cy="91" fill="#edac7e" fill-opacity=".5" rx="11" ry="6"/><ellipse cx="8" cy="155" fill="#fff" fill-opacity=".6" rx="5" ry="23"/><path fill="#959a9f" fill-opacity=".6" d="M75 120.9l-25.1 27-6.9-27.3 44.1-20.2z"/><ellipse cx="227" cy="119" fill="#8a86ff" fill-opacity=".3" rx="20" ry="9"/><circle r="1" fill="#081d27" fill-opacity=".3" transform="matrix(1.71115 9.16565 -13.2747 2.47827 89.1 67.3)"/><path fill="#000603" fill-opacity=".5" d="M66 139.1l19.1-26.6 10.5 2.6-12.5 9z"/><path fill="#848d7a" fill-opacity=".6" d="M113.2 134.4l-3.2 11.4 39.4-27.6-19.3.7z"/><ellipse cx="255" cy="134" fill="#c4bdbc" fill-opacity=".8" rx="17" ry="16"/><path fill="#9b6b6b" fill-opacity=".7" d="M70.1 24.4L68.6 14l14.8-5.9-18.1-3.2z"/><path fill="#a6b0b3" fill-opacity=".5" d="M64 148l-3-12 15 1z"/><path fill-opacity=".5" d="M165.2 78.4l-22.1-28.9-4-35L176-16z"/><path fill="#dee3e7" fill-opacity=".7" d="M122.9 12.3l6.3 38.2L63 61.3l78.2-19.5z"/><circle r="1" fill="#a54e6f" fill-opacity=".5" transform="matrix(-23.99983 -7.72402 2.52296 -7.83925 245.7 156.7)"/><path fill="#4f1a00" fill-opacity=".6" d="M125 129h31v12h-31z"/><path fill="#95a6b5" fill-opacity=".6" d="M11.8 63.7l33.1-13-12.6-5.9L-16 55.7z"/><path fill="#001228" fill-opacity=".9" d="M-16 139l22 1-22-13z"/></g></svg>