<svg xmlns="http://www.w3.org/2000/svg" viewBox="0 0 299 449"><defs/><path fill="#3f3f3f" d="M0 0h299v449H0z"/><g transform="translate(.9 .9) scale(1.7539)"><circle r="1" fill="#efefef" fill-opacity=".6" transform="rotate(-143.1 77.9 -12.7) scale(170 75.46378)"/><ellipse cx="60" cy="73" fill="#b3b3b3" fill-opacity=".7" rx="28" ry="236"/><path fill-opacity=".6" d="M106 33h31v223h-31z"/><circle r="1" fill="#f9f9f9" fill-opacity=".8" transform="matrix(1.71974 -32.10563 13.90912 .74504 162.4 130.7)"/><circle cx="60" cy="56" r="18" fill="#181818" fill-opacity=".9"/><path fill="#fff" fill-opacity=".5" d="M66 95l54-13L91 6z"/><ellipse cx="1" cy="152" fill="#0b0b0b" fill-opacity=".9" rx="30" ry="254"/><circle r="1" fill="#fff" fill-opacity=".6" transform="matrix(-11.476 -44.88072 31.8405 -8.14162 166.5 58)"/><path fill="#ededed" fill-opacity=".7" d="M32.3 74.5L49.2 73l10.5 120.5-16.9 1.5z"/><path fill-opacity=".7" d="M104 88h45v128h-45z"/><circle r="1" fill="#252525" fill-opacity=".6" transform="matrix(12.52212 -6.1817 19.28324 39.06162 70.1 125.8)"/><ellipse cx="71" cy="24" fill="#fff" fill-opacity=".7" rx="40" ry="13"/><path fill="#b7b7b7" d="M97.4 145.6l-7.9-7.1-6.1-8.6 21.9-17.5z"/><ellipse cx="157" cy="230" fill="#030303" fill-opacity=".6" rx="43" ry="70"/><circle r="1" fill="#050505" fill-opacity=".3" transform="rotate(87.7 36 37.5) scale(12.38562 93.15189)"/><path fill="#e6e6e6" fill-opacity=".8" d="M34.6 83.7L55.5 22l45.8 34.3-67-38.8z"/><circle r="1" fill="#727272" fill-opacity=".7" transform="matrix(-18.14039 -1.33176 5.17708 -70.51864 78.3 234)"/><circle r="1" fill="#010101" fill-opacity=".4" transform="matrix(14.82516 6.66523 -8.2661 18.38591 118.1 50.6)"/><path fill="#fff" fill-opacity=".5" d="M71 149l-36 13v-40z"/><circle r="1" fill="#fefefe" fill-opacity=".7" transform="matrix(13.00551 8.78263 -6.67159 9.87943 143 29.5)"/><path fill="#e6e6e6" fill-opacity=".7" d="M186 160L148 31l2 129z"/><path fill="#323232" fill-opacity=".6" d="M64.6 80.6l17.2-18.5-10.4-32.3-20.2 60.3z"/><path fill="#f9f9f9" fill-opacity=".5" d="M95 109l-18 13.9 4.8-10.5 7.5-10.1z"/><path fill="#151515" fill-opacity=".7" d="M80 96l64-13-1 46z"/><path fill="#040404" fill-opacity=".6" d="M146.3 133.1l-52 11.9-27.2 11.7 86.6 24.5z"/><path fill="#fafafa" fill-opacity=".4" d="M81 8h24v78H81z"/><circle r="1" fill="#6e6e6e" fill-opacity=".6" transform="rotate(166.6 10 130.4) scale(14.31914 40.32735)"/><path fill="#bdbdbd" fill-opacity=".4" d="M128 70l-67 1 52 24z"/><path fill="#1d1d1d" fill-opacity=".4" d="M145 142h26v4h-26z"/><circle r="1" fill="#b5b5b5" fill-opacity=".5" transform="rotate(-70.8 154.5 51.4) scale(41.44517 6.02438)"/><path fill="#2e2e2e" fill-opacity=".6" d="M59 102h21v40H59z"/><path fill="#f8f8f8" fill-opacity=".6" d="M137.9 45.1l-8.5 27 33.8-16.7-2.5-42.6z"/><path fill-opacity=".4" d="M53.3 74.3l-14.2-11 21.6-27.6 14.2 11z"/><path fill="#060606" fill-opacity=".5" d="M9 195l15 76 17-93z"/><path fill="#fefefe" fill-opacity=".5" d="M67.4 77.2L81.3 79l-2.7 21.9L64.7 99z"/><ellipse cx="31" cy="109" fill="#4f4f4f" fill-opacity=".7" rx="3" ry="57"/><path fill="#303030" fill-opacity=".5" d="M71 136l74-54h-31z"/><path fill="#f0f0f0" fill-opacity=".3" d="M34 72h22v97H34z"/><path fill="#e9e9e9" fill-opacity=".7" d="M101.8 108.1l2 .6-5.6 19.2-2-.6z"/><path fill="#565656" fill-opacity=".6" d="M101.1 58.8l9.7 13.4 25-.7L107 38.8z"/><ellipse cx="164" cy="42" fill="#4c4c4c" fill-opacity=".3" rx="2" ry="69"/><path fill-opacity=".3" d="M120 62l-5-53 22 41z"/><ellipse cy="156" fill="#2c2c2c" fill-opacity=".5" rx="9" ry="83"/><path fill="#f6f6f6" fill-opacity=".5" d="M76 11h34v24H76z"/><path fill="#595959" fill-opacity=".6" d="M110.5 217.6l-44.3-62-9 24.5 17.4-46.7z"/><path fill="#fff" fill-opacity=".6" d="M102 121l-5 16-10-12z"/><circle r="1" fill="#919191" fill-opacity=".6" transform="matrix(-1.86682 .0554 -.53942 -18.1748 72.4 25.3)"/><circle r="1" fill="#010101" fill-opacity=".5" transform="rotate(-158.9 76.7 46.6) scale(16.95397 26.9913)"/><path fill="#353535" fill-opacity=".9" d="M29.3 91.5l3.4-67.6-2.5-33.2-5.3 10.4z"/><circle cx="90" cy="95" r="9" fill="#373737" fill-opacity=".5"/><path fill="#4c4c4c" fill-opacity=".5" d="M84.1 61.7l-7.8 10.2-23.2 11.8 2.5-21.5z"/><ellipse cx="33" cy="147" fill="#797979" fill-opacity=".7" rx="2" ry="33"/><circle r="1" fill="#efefef" fill-opacity=".5" transform="matrix(17.28111 25.5603 -6.67916 4.51573 94 60.7)"/><ellipse cx="43" cy="144" fill="#8b8b8b" fill-opacity=".4" rx="11" ry="4"/><path fill="#fff" fill-opacity=".5" d="M94 104.1L78.5 117l-2.5-3.1L91.4 101z"/><path fill="#8d8d8d" fill-opacity=".7" d="M109.7 29.2l1.7-19.9 17 1.5-1.8 19.9z"/><path fill="#151515" fill-opacity=".5" d="M99.6 119.7l-22.8 10.1-2.4-5.5 22.8-10.1z"/><path fill="#0f0f0f" fill-opacity=".3" d="M146 85l-22 25 3-50z"/><path fill="#444" fill-opacity=".5" d="M100.6 81.4l1-2.4 11.8 13.9-2.6 22z"/><path fill="#030303" fill-opacity=".9" d="M134 189l-17 46 34 36z"/><path fill="#a0a0a0" fill-opacity=".5" d="M50 234l34-67-44 23z"/><path fill="#444" fill-opacity=".4" d="M46.6 97.2l30 2.6-1.2 13-30-2.6z"/><ellipse cx="128" cy="45" fill="#060606" fill-opacity=".6" rx="8" ry="10"/><circle r="1" fill="#262626" fill-opacity=".5" transform="matrix(-.06434 -9.2164 6.48842 -.0453 47.4 63)"/><path fill="#fff" fill-opacity=".4" d="M67.1 22.4l-34.9 37 14.3-2.9-5.2-42z"/></g></svg>