<svg xmlns="http://www.w3.org/2000/svg" viewBox="0 0 299 449"><defs/><path fill="#2e3848" d="M0 0h299v449H0z"/><g transform="translate(.9 .9) scale(1.7539)"><ellipse cx="24" cy="115" fill="#cab89f" fill-opacity=".7" rx="89" ry="150"/><circle r="1" fill="#f1ebd9" fill-opacity=".7" transform="matrix(26.73817 -2.3151 6.7639 78.11933 26.8 130.3)"/><circle cx="117" cy="61" r="66" fill="#050000" fill-opacity=".4"/><circle r="1" fill="#1f1611" fill-opacity=".7" transform="rotate(-6.8 1488.4 -500.8) scale(10.30343 98.87485)"/><circle r="1" fill="#e9e9ed" fill-opacity=".6" transform="rotate(173.4 43.2 82.7) scale(12.60587 59.51126)"/><ellipse cx="133" cy="128" fill="#000001" fill-opacity=".7" rx="14" ry="255"/><circle cx="32" cy="243" r="40" fill="#ffe5b2" fill-opacity=".4"/><circle r="1" fill="#040000" fill-opacity=".8" transform="matrix(-17.54305 7.1147 -8.52682 -21.02497 87 234.5)"/><path fill="#f5e1b9" fill-opacity=".8" d="M69 163l-57-34 51 13z"/><path fill="#ebf1f3" fill-opacity=".8" d="M102.3 172.5l-12.6 34.8-16-5.8 12.6-34.8z"/><path fill="#adada8" fill-opacity=".6" d="M58.7 25.5L54.2-.1l53.1-9.4 4.5 25.6z"/><path fill="#000a19" fill-opacity=".5" d="M73.5 165.7L47.1 123l14.2-24.8 31.1 74.3z"/><path fill="#534231" fill-opacity=".6" d="M29.5-14.9L19 51.3l-40.5-6.4L-11-21.3z"/><path fill="#d4d6d3" fill-opacity=".8" d="M45.9 57.6l11.6 33-10.7 56.3L-16 77z"/><circle r="1" fill="#02060c" fill-opacity=".6" transform="matrix(-16.88909 -166.26996 20.48814 -2.0811 170 124.3)"/><ellipse cx="108" cy="69" fill="#6a6360" fill-opacity=".6" rx="9" ry="96"/><path fill="#150900" fill-opacity=".5" d="M-12 100l-4 125 25-43z"/><path fill="#cdbdb3" fill-opacity=".7" d="M108 108.3l-31.5-9.4-.1 23.9 25.9 7.1z"/><path fill="#1f0800" fill-opacity=".4" d="M51 43h24v51H51z"/><ellipse cx="39" cy="221" fill="#ccb590" fill-opacity=".6" rx="26" ry="59"/><circle r="1" fill="#8b8372" fill-opacity=".6" transform="rotate(-56.6 227.3 85.8) scale(54.96141 8.71406)"/><circle r="1" fill="#fee9c6" fill-opacity=".6" transform="matrix(-7.04896 -5.56693 56.49055 -71.52945 0 238.6)"/><ellipse cx="151" cy="242" fill="#222a37" fill-opacity=".8" rx="14" ry="161"/><path fill="#eeeee2" fill-opacity=".5" d="M47.1 72.1L60.5 106 7.8 151l-3.4-29.4z"/><path fill="#cc984a" fill-opacity=".6" d="M29 119.6l10.8-2 3.3 18.8-10.9 2z"/><path fill-opacity=".5" d="M88 156l-22 57 4-61z"/><path fill-opacity=".6" d="M97 78H84l15 22z"/><path fill="#906858" fill-opacity=".6" d="M72.8 109.3l41.4-4-57.5-13.9L87.3 154z"/><path fill="#e2eaeb" fill-opacity=".4" d="M114.9 234.3l-8.1-12.8-22.4-42.2 10.5-42.4z"/><path fill="#40362f" fill-opacity=".7" d="M49.1 46L99.6 6l-.2 14.4-46.6 53.4z"/><path fill="#a29b91" fill-opacity=".7" d="M19.8 17.8l-8.9 12.1 45.7 13.6 46.1-45z"/><path fill="#000004" fill-opacity=".5" d="M51 113h19v26H51z"/><path fill="#5b4632" fill-opacity=".3" d="M-16 238.1l9.9-36.4 65-53.7L39 177.2z"/><circle r="1" fill="#fde3b3" fill-opacity=".5" transform="rotate(14.6 -887.4 319.5) scale(7.1729 35.51124)"/><path fill="#afb8bc" fill-opacity=".6" d="M5 53h33v46H5z"/><path fill="#f1e6c3" fill-opacity=".8" d="M69 163.9l-4.9-18.3-8-6 2.1 17.3z"/><ellipse cx="110" cy="147" fill="#515459" fill-opacity=".6" rx="3" ry="140"/><path fill="#b7966c" fill-opacity=".6" d="M56 271l9-65 9 50z"/><path fill="#39271b" fill-opacity=".4" d="M79.7 91.9L54.3 83 41.9 8.7l29.8 111.8z"/><path fill="#f5fcfe" fill-opacity=".4" d="M89.7 193.9l4.9 24-20.9-28.1 22.7-34.6z"/><path fill="#070100" fill-opacity=".8" d="M66.5 210.4l.4-14.9 50.5 75.5-40.1-6.8z"/><path fill="#000001" fill-opacity=".3" d="M114.2 271l36.2-131.9-58.3 8.7 26.9-23.5z"/><path fill="#d5d6d6" fill-opacity=".7" d="M79.8 96.3l-2.9 12.2L108 222.9l.5-37.1z"/><path fill="#34200d" fill-opacity=".4" d="M66.1 204.2l13.8-1.8L48.4 134l15 60z"/><path fill="#463b2d" fill-opacity=".3" d="M-16 37.9L26.6 58l15-25.7L.3 34.5z"/><circle r="1" fill="#e29d79" fill-opacity=".4" transform="matrix(9.68385 19.85483 -2.76527 1.34871 88.1 97.4)"/><path fill="#a66158" fill-opacity=".5" d="M61 150l25-12 4 8z"/><path fill="#151d2a" fill-opacity=".7" d="M79.5 177.3l-8.9 16.8 17.6-28.4-15.5-28.2z"/><path fill="#faf9e9" fill-opacity=".6" d="M40 95h11v43H40z"/><path fill="#6a6f71" fill-opacity=".6" d="M74 200l15 16 18 2z"/><path fill="#c9d1d0" fill-opacity=".5" d="M35.2 51.1L35 59l20.9 40-12.5-65.4z"/><circle r="1" fill="#857d72" fill-opacity=".7" transform="rotate(-109 21.2 -10.8) scale(12.8315 27.93961)"/><path fill="#dfeaef" fill-opacity=".4" d="M107 94l-14 42-15 1z"/><ellipse cx="170" cy="1" fill="#000309" fill-opacity=".7" rx="12" ry="144"/><path fill="#fff5d6" fill-opacity=".5" d="M4.6 169.4l38.3-31.2-10.7 5.6-10.5-50z"/><path fill="#ecd4b2" fill-opacity=".5" d="M51.7 132.7l4.3 35.7-39.7 4.9-4.3-35.7z"/><path fill="#60534a" fill-opacity=".7" d="M79 26h34v41H79z"/><ellipse cx="118" cy="70" fill="#262b31" fill-opacity=".5" rx="4" ry="254"/><ellipse cx="134" cy="87" fill-opacity=".6" rx="8" ry="127"/><path fill="#272928" fill-opacity=".5" d="M5 178l-5-48-16 61z"/><ellipse cx="38" cy="164" fill="#bc9f77" fill-opacity=".5" rx="2" ry="47"/><path fill="#5d4e4a" fill-opacity=".9" d="M82.7 125l.9 1.8-15 32.4 10.2-30.5z"/><path fill="#b4b5b2" d="M37.9 63.3L-.6 45.6l-8.9-.8 43 28.2z"/><circle r="1" fill="#b4b5b4" fill-opacity=".4" transform="matrix(15.46652 -20.99235 6.15592 4.53549 65.1 20.7)"/><circle r="1" fill="#a0a6a6" fill-opacity=".6" transform="rotate(18 -525 83) scale(1 45.37408)"/></g></svg>