<svg xmlns="http://www.w3.org/2000/svg" viewBox="0 0 300 199"><defs/><path fill="#634e40" d="M0 0h300v199H0z"/><g transform="translate(.6 .6) scale(1.17188)"><ellipse cx="123" cy="38" fill="#b6b3bb" fill-opacity=".6" rx="119" ry="42"/><ellipse cx="234" cy="150" fill="#010605" fill-opacity=".7" rx="58" ry="57"/><circle r="1" fill="#adbccf" fill-opacity=".7" transform="matrix(-1.3298 -29.28464 26.68477 -1.21175 12.2 87.7)"/><path fill="#000005" fill-opacity=".6" d="M60 46l58 139-71-52z"/><circle r="1" fill="#85817c" fill-opacity=".7" transform="matrix(20.039 -94.2761 29.92399 6.36054 144.5 88.4)"/><path fill-opacity=".6" d="M130 11h36v20h-36z"/><path fill="#f2f8f5" fill-opacity=".5" d="M143.3 91.5l9.9-56.2 29.5 5.2-9.9 56.2z"/><circle cx="91" cy="32" r="31" fill="#dbc6d4" fill-opacity=".6"/><circle r="1" fill-opacity=".8" transform="matrix(-13.2981 -1.70905 5.43908 -42.32143 255 14.5)"/><circle r="1" fill="#525951" fill-opacity=".5" transform="matrix(16.23669 3.91751 -21.98335 91.11311 217.3 49.5)"/><circle r="1" fill="#3e5255" fill-opacity=".7" transform="matrix(-8.26604 -13.2324 37.58089 -23.47607 96.8 134.7)"/><path fill="#290000" fill-opacity=".5" d="M125 61h23v19h-23z"/><path fill="#000501" fill-opacity=".7" d="M238.7 97.8l1.9-37.4-20.4 4.6-1.5 20z"/><path fill="#132511" fill-opacity=".6" d="M151.3 88l33.7 97-20.7-27-12.5-8.9z"/><path fill="#363c29" d="M190.6 77.2l-3.6 74.4-4.3-88.9 29.7 6.2z"/><ellipse cx="102" cy="94" fill="#170000" fill-opacity=".8" rx="8" ry="18"/><path fill="#b3b7b6" fill-opacity=".5" d="M147 89l-50 96 46-34z"/><path fill-opacity=".4" d="M24.8 133.7l45.3-39.3 19 21.9L44 155.6z"/><path fill="#250200" fill-opacity=".5" d="M165.5 23.8l.9-30.7-42.7 38.8-39.2-9.1z"/><path fill="#948c8b" fill-opacity=".7" d="M98 67l-85-7L-6-1z"/><path fill="#404964" fill-opacity=".7" d="M57.5 104.8L15.9 80.2l-29.7-55.7 8.3 53.1z"/><path fill="#f4ffe9" fill-opacity=".3" d="M-16 74.1l35.2 60.6 30.8-26-4.7-2.9z"/><path fill="#041c25" fill-opacity=".6" d="M103.1 126.3l21.6-4.2 4.2 21.6-21.6 4.2z"/><ellipse cx="239" cy="159" fill-opacity=".7" rx="73" ry="16"/><path fill="#accbc5" fill-opacity=".4" d="M166.8-2.2l62.6-13.3 3.8 17.7-62.6 13.3z"/><path fill="#ffd0ce" fill-opacity=".5" d="M107.6 90.2l12.8 22.3-4.7-16.8 19.9-36z"/><path fill="#b0a3ab" fill-opacity=".9" d="M108.2-3.7l-34.9 42 55.3-20.5 19.3-8.2z"/><circle r="1" fill="#000404" fill-opacity=".5" transform="matrix(-23.3581 10.90827 -2.66058 -5.69716 228.5 14)"/><path fill="#effff3" fill-opacity=".2" d="M159 142.9l22.2 3.4-35.7-109 20.9 101.1z"/><path fill="#b1b0bf" fill-opacity=".6" d="M242.8 19.8L237 52.3l-11.8-2 5.8-32.6z"/><circle r="1" fill="#442c25" fill-opacity=".5" transform="matrix(-3.85548 .63296 -6.15596 -37.49721 27 33.4)"/><path fill="#faf6fe" fill-opacity=".6" d="M84.7 98.5l4.3-2.4 6.3 11.4-4.3 2.4z"/><path fill="#837d70" fill-opacity=".5" d="M109 143l-110 5 39 18z"/><path fill="#fbffff" fill-opacity=".5" d="M222 60l15-13-6 16z"/><path fill="#1f1b1f" fill-opacity=".5" d="M35.8 99.5l50.3-29.1-34.4-8-14.1 20z"/><path fill-opacity=".6" d="M110 185H-2l108-33z"/><path fill-opacity=".5" d="M63.7 86.8l49.2 47.9-62-.4L11.7 185z"/><path fill="#ffe7fc" fill-opacity=".6" d="M89.3 20.3L67.7 41l-9-9.4L80.3 11z"/><path fill="#001c30" fill-opacity=".5" d="M0 151.3L-13 122l21-9.4L21 142z"/><path fill="#8c917d" d="M228.4 10.9l-10.5 7.8 8.1-33.6 22.2-1.1z"/><circle cx="103" cy="120" r="8" fill="#7fc7d8" fill-opacity=".5"/><path fill="#6d6b5e" fill-opacity=".3" d="M248.1 137.4l-54.3-3.8-14.4-7.3-23.8-62.2z"/><path fill="#ebffe7" fill-opacity=".2" d="M123.3 132.7l20.8 1.4 77.8-117.8-70.3 124.1z"/><path fill="#cfd2d7" fill-opacity=".5" d="M34 20h11v38H34z"/><path fill="#c8cfba" fill-opacity=".5" d="M47 120l-8-14 10-17z"/><path fill="#25324a" fill-opacity=".6" d="M26.8 86.6l-14.1.4-1 4.6 1.5 8.2z"/><circle cx="196" cy="18" r="5" fill-opacity=".5"/><path fill="#5a2504" fill-opacity=".5" d="M39 107l20 43-38-43z"/><circle r="1" fill-opacity=".7" transform="matrix(-3.29076 -2.18928 11.504 -17.29196 246 47.5)"/><path fill="#806964" d="M83.3 91.2L65.1 62.4l27.1 9.1-26.8 15.2z"/><path fill="#651608" fill-opacity=".4" d="M120.8 81l28.7-18.4 1.1 4.2-14.9 32.1z"/><path fill="#c7d0db" fill-opacity=".6" d="M13.4 84.6L23 32.1l.8 40.2L36 82z"/><path fill="#fef1fe" fill-opacity=".2" d="M145.8 51.3l-26.4-24.9 40 58.2 9.3-73z"/><path fill-opacity=".4" d="M237.6 33.1l-5.3 18.3-1.9-.5 5.3-18.3z"/><path fill="#300000" fill-opacity=".4" d="M145.8 49.8l9.4-15.9 13.5-35.3-37 22.2z"/><path fill="#000d1d" fill-opacity=".6" d="M211 0h8v23h-8z"/><path fill="#fbfee0" fill-opacity=".2" d="M211.9 42.9L180.5-1.6l5 40.4 25.9 48.4z"/><path fill="#080101" fill-opacity=".7" d="M81.9 88.1L76 92.5 42.1 78.9 96.8 143z"/><path fill="#10180a" fill-opacity=".6" d="M242.2 89.5l-31.7-38.3 15.8-3.4-4.7 11.4z"/><path fill="#b56450" fill-opacity=".6" d="M153 30l-49-3 48 19z"/><path fill="#304026" fill-opacity=".7" d="M155.2 86.9l2.5 31.3-7.9 5.9-3.3-16.7z"/><path fill="#746567" fill-opacity=".6" d="M59 77L35-2l27-14z"/><path fill="#bebdc1" fill-opacity=".5" d="M70 49h65v13H70z"/><path fill="#d39a9d" fill-opacity=".6" d="M117 114l21-19-27-2z"/><path fill="#2d1a16" fill-opacity=".5" d="M178.9 36.4l-10.7-8 11-7.4 2.5 3.7z"/></g></svg>