<svg xmlns="http://www.w3.org/2000/svg" viewBox="0 0 300 199"><defs/><path fill="#2c3956" d="M0 0h300v199H0z"/><g transform="translate(.6 .6) scale(1.17188)"><circle cx="143" cy="61" r="166" fill="#2c1600" fill-opacity=".6"/><path fill="#ebe1dc" fill-opacity=".6" d="M86 68.5v-33h30v33z"/><circle r="1" fill="#9c7964" fill-opacity=".4" transform="matrix(62.88144 15.56158 -8.09363 32.70483 59.1 75)"/><path fill="#080609" fill-opacity=".9" d="M-16 42l86-58 193 37z"/><path fill="#b6b1bc" fill-opacity=".5" d="M189 133l-47 5 32-39z"/><circle r="1" fill="#eb9969" fill-opacity=".3" transform="matrix(-20.95661 -9.95284 14.41841 -30.35927 200.4 60.4)"/><circle r="1" fill="#000004" fill-opacity=".6" transform="matrix(42.35802 -69.49813 20.87685 12.72412 125.3 123.5)"/><circle cx="250" cy="64" r="7" fill="#dcf8ff" fill-opacity=".6"/><path fill="#fffcd7" fill-opacity=".5" d="M50.7 44.4l-44.5 7-.9-5.8 44.5-7z"/><path fill="#150b0a" fill-opacity=".6" d="M76 78l-8-60-43 58z"/><ellipse cx="167" cy="9" fill="#080609" fill-opacity=".8" rx="249" ry="25"/><circle r="1" fill="#08080b" fill-opacity=".6" transform="matrix(-6.65485 22.00376 -124.19981 -37.56319 71 134.7)"/><path fill="#bbb" fill-opacity=".4" d="M212 140l10 45 8-34z"/><path fill="#b4afab" fill-opacity=".5" d="M102 73L69 34l42 6z"/><circle cx="182" cy="149" r="6" fill="#dcdddf" fill-opacity=".5"/><path fill="#110b0a" fill-opacity=".7" d="M201 101l55 84 15-109z"/><path fill="#0c0a0b" fill-opacity=".9" d="M117 12h28v158h-28z"/><path fill="#a99995" fill-opacity=".3" d="M103 91L29 80l78 40z"/><ellipse cx="155" cy="130" fill="#ffeee4" fill-opacity=".5" rx="5" ry="10"/><path fill="#a0907b" fill-opacity=".5" d="M145 41h23v12h-23z"/><path fill="#debc95" fill-opacity=".6" d="M20 59l-36 15 36-3z"/><circle r="1" fill="#00060a" fill-opacity=".7" transform="rotate(83.3 65.4 146) scale(10.82844 9.06933)"/><path fill="#cd8f63" fill-opacity=".4" d="M193 29l-26 61 33-42z"/><path fill="#040101" fill-opacity=".5" d="M151.1 148.7l15.2-18.4 90 1.7-99.2 17.9z"/><path fill="#ac917b" fill-opacity=".5" d="M40 86L3 93V81z"/><path fill="#070508" fill-opacity=".7" d="M150 64l41-80-32 21z"/><path fill="#4d484a" fill-opacity=".4" d="M0 34h120v7H0z"/><ellipse cx="231" cy="56" fill="#cba6a3" fill-opacity=".6" rx="3" ry="9"/><path fill="#92857f" fill-opacity=".6" d="M27.1 112.3l8.6-30.2 16.8 22.7-.1-27.3z"/><path fill="#110f0e" fill-opacity=".9" d="M-16 105.8l53.2 2.7-12.4 4.4 10.1-25.2z"/><path fill="#221b1b" fill-opacity=".9" d="M46.4 77l18.4 17.5L35.3 185 61.7 74.9z"/><circle r="1" fill="#433c36" fill-opacity=".5" transform="rotate(140.3 -20.6 80.7) scale(38.39636 15.15134)"/><path fill="#cdada6" fill-opacity=".4" d="M81.6 84.8l-7.3-6.5 1.2-13.1L89 80.5z"/><path fill="#1e1412" fill-opacity=".5" d="M89.6 94.6l4.6-10.5 35.7 59.3L75.8 40.2z"/><path fill="#ed8856" fill-opacity=".3" d="M73.1 87.9l30.9 20.6 9.8-27.2 6.8 25.8z"/><path fill="#060a0c" fill-opacity=".6" d="M178.2 23l13 5.5L163.7 93l-13-5.5z"/><path fill="#bdafa5" fill-opacity=".6" d="M150.8 130l7.2 5.1-5.5-18.2 25.5 11.4z"/><path fill="#434d65" fill-opacity=".7" d="M180.4 104.5l4.3 16.2 15.6 18.7-42.6-24.9z"/><path fill="#030308" fill-opacity=".7" d="M100 171l99-20 33 34z"/><path fill="#151314" fill-opacity=".6" d="M34 107h61v63H34z"/><circle r="1" fill="#c0c7e0" fill-opacity=".4" transform="matrix(-6.54826 -4.58514 1.98069 -2.82871 175.9 109.5)"/><circle r="1" fill="#1a0d08" fill-opacity=".6" transform="matrix(1.33658 4.32366 -11.75413 3.63357 33.2 54)"/><path fill="#584f56" fill-opacity=".6" d="M202.2 77.6L271 64.8l-29.9 12.4 8-24.4z"/><path fill="#d09355" fill-opacity=".6" d="M153.4 47.1l-8.7 13.7 3.9-20.6 7.7 9.8z"/><path fill="#7e4f39" fill-opacity=".7" d="M172.6 46.4l36.5-11.7 20.7 36.9-13.4-13.9z"/><path fill="#114278" fill-opacity=".6" d="M107 136l-15-22 14 1z"/><path fill="#f3caa7" fill-opacity=".4" d="M33 43L-1 54l15-15z"/><path fill="#98b8da" fill-opacity=".5" d="M165 38l-7 13 6 4z"/><path fill="#cab898" fill-opacity=".5" d="M177 60h15v9h-15z"/><path fill="#221409" fill-opacity=".4" d="M31.3 83.1l34.5-43.2 21 3.4L-2.9 82z"/><ellipse cx="76" cy="65" fill="#937d7d" fill-opacity=".7" rx="3" ry="19"/><path fill="#d1cbc2" fill-opacity=".5" d="M89 41l-2-5-14 3z"/><path fill="#0b080a" fill-opacity=".6" d="M-16 77l31-43-9-50z"/><path fill="#160f12" fill-opacity=".4" d="M94.2 80.1l-2.1-23.2 13 35.7L68 87z"/><path fill="#090502" fill-opacity=".6" d="M195 130l-1-31-13 26z"/><path fill="#010207" fill-opacity=".5" d="M163 108l8 13-41-11z"/><path fill="#857769" fill-opacity=".3" d="M242.9 146.1l-17.7 16.4-15.4-2.3 7.9-19.3z"/><path fill="#28190f" fill-opacity=".5" d="M106 65h15v20h-15z"/><circle r="1" fill="#676568" fill-opacity=".5" transform="rotate(-101.1 121.8 25) scale(1 20.22335)"/><path fill="#bfbdbc" fill-opacity=".6" d="M115.1 61.2l-.2-13-3.5-5.5-28 13.7z"/><path fill="#b08a93" fill-opacity=".5" d="M89 61h4v17h-4z"/><path fill="#c7bcaf" fill-opacity=".5" d="M45 85v15l14-10z"/><path fill="#1d110e" fill-opacity=".5" d="M44 84l-1 8-19-1z"/><path fill="#b9bcbd" fill-opacity=".5" d="M31.9 105l-3.5-2L36 89l3.5 2z"/><path fill="#1d1b1f" fill-opacity=".5" d="M215.6 32.9l59.1-10.4 3.7 20.6-59.1 10.4z"/></g></svg>