<svg xmlns="http://www.w3.org/2000/svg" viewBox="0 0 300 199"><defs/><path fill="#5c4239" d="M0 0h300v199H0z"/><g transform="translate(.6 .6) scale(1.17188)"><circle r="1" fill="#f0f2f0" fill-opacity=".8" transform="matrix(-8.30335 -94.90768 74.05204 -6.47871 27.6 90)"/><circle r="1" fill="#dee5d3" fill-opacity=".5" transform="matrix(4.90088 104.8543 -10.68755 .49953 114.7 80.4)"/><path fill="#edffff" fill-opacity=".6" d="M240 69l-15 80-36-9z"/><ellipse cx="248" cy="79" fill="#00000c" fill-opacity=".7" rx="17" ry="169"/><circle r="1" fill="#feafb4" fill-opacity=".6" transform="rotate(-125.4 104.4 6.3) scale(16.70723 12.62649)"/><path fill="#06030a" fill-opacity=".9" d="M190 76l50-88 31 53z"/><circle r="1" fill="#a69f92" fill-opacity=".7" transform="rotate(16.8 -289.1 378.4) scale(11.07346 85.19263)"/><path fill="#f6ebc7" fill-opacity=".5" d="M229 54h11v40h-11z"/><circle r="1" fill="#0c040a" fill-opacity=".6" transform="rotate(119.6 35 132.4) scale(32.32823 40.43353)"/><circle r="1" fill="#161211" fill-opacity=".5" transform="matrix(-24.42299 -11.51836 27.17654 -57.62382 161.6 21.6)"/><circle r="1" fill="#c49a7d" fill-opacity=".5" transform="matrix(-46.37308 -49.72904 8.28158 -7.7227 77 31.5)"/><path fill="#c1cdb3" fill-opacity=".5" d="M209.2.3l9.6-10L222 19l-21.8 35.5z"/><path fill-opacity=".7" d="M93 145.6l21 .8-1 26-21-.8z"/><circle r="1" fill="#0e0000" fill-opacity=".7" transform="matrix(-5.43311 -28.48136 10.5306 -2.00882 92.7 7.1)"/><ellipse cx="193" cy="94" fill="#734334" fill-opacity=".8" rx="21" ry="35"/><circle r="1" fill="#00000f" fill-opacity=".7" transform="matrix(.41244 -63.58068 26.37679 .1711 255 140.7)"/><path fill="#87745e" fill-opacity=".8" d="M112 140l-5-73-19 79z"/><path fill="#100c09" fill-opacity=".6" d="M130 70h13v81h-13z"/><ellipse cx="23" cy="70" fill="#e4e6e8" fill-opacity=".5" rx="37" ry="71"/><ellipse cx="126" cy="157" fill="#f4f2e9" fill-opacity=".7" rx="2" ry="23"/><ellipse cx="114" cy="3" fill="#b1ac9e" rx="9" ry="110"/><path fill-opacity=".4" d="M208 78h22v14h-22z"/><path fill="#b37168" fill-opacity=".8" d="M179.8 109.6l-15 24.2 7.1-71.7-20.3 10.8z"/><ellipse cx="115" cy="15" fill="#30312e" fill-opacity=".4" rx="3" ry="55"/><path fill="#dad5c8" fill-opacity=".6" d="M215.7 102.3l3.3-11.5 17.3 5-3.3 11.4z"/><path fill="#1a0900" fill-opacity=".8" d="M76.4-9.5L102 4 91.6 23.5 66 10z"/><path fill="#c6c1aa" fill-opacity=".6" d="M221.4 65.5l15.7 3.3-2.5 11.7-15.7-3.3z"/><path fill="#c8f3f9" fill-opacity=".3" d="M228.6 139.9l-45.9 3.2-1.3-19 45.9-3.2z"/><path fill="#0b090c" fill-opacity=".8" d="M222.8 20.1l-14.2 63.4 40.6-42 6.6 38z"/><circle r="1" fill="#eae5d8" fill-opacity=".5" transform="rotate(86.5 -3.6 117) scale(172.33494 2.16989)"/><path fill="#0c031c" fill-opacity=".5" d="M180 140l54 45 37-27z"/><path fill="#9f7a62" d="M67 20.7L50-6.6l40.8 35-2.8 6.8z"/><path fill="#b8ad97" fill-opacity=".6" d="M235.2 73.2l6.7-27.1 3 .7-6.8 27.1z"/><path fill="#231101" fill-opacity=".8" d="M51.3-16l53.3 58.1 1.3-7.2L98.1-11z"/><path fill="#ada69c" fill-opacity=".8" d="M104.1 132.4l12.5 16.2 3-1-46.5-9.7z"/><path fill="#322a18" d="M184.8 51.8l-16.4-8.7 7.5 23 13.4 8.3z"/><circle r="1" fill="#040006" fill-opacity=".7" transform="matrix(23.58677 -21.68934 3.2442 3.52801 87.2 169)"/><path fill="#c67f76" fill-opacity=".4" d="M206 106l-4-17-47 36z"/><path fill="#030206" fill-opacity=".5" d="M208.6 108l1.8 14.9-9 1-1.8-14.8z"/><path fill="#3a2a24" fill-opacity=".7" d="M215-9l-88 91-5-98z"/><path fill-opacity=".5" d="M173 115l1 12 21-5z"/><path fill="#cfcec9" fill-opacity=".7" d="M218.4 91l17.2 5.3-16 52.6-17.2-5.2z"/><ellipse cx="117" cy="85" fill="#1e1d00" fill-opacity=".2" rx="5" ry="30"/><path fill="#352722" fill-opacity=".7" d="M127.1 117.2l43.4-7.9-7.5 6-34.7 67.3z"/><path fill="#452203" fill-opacity=".2" d="M112.9 144.6l-1.4-32.3-1.6-2.6-24.1-9.1z"/><ellipse cx="119" cy="14" fill="#d7d1c4" fill-opacity=".5" rx="4" ry="42"/><path fill="#211f1c" fill-opacity=".5" d="M118 137.7l1-.1 5 34.7-1 .1z"/><path fill-opacity=".5" d="M209 81h21v9h-21z"/><path fill="#4b493f" fill-opacity=".6" d="M112.3 38.5l-2.6-77h4l2.6 77z"/><path fill="#c9c4b8" fill-opacity=".5" d="M72 71l1 82 36-102z"/><path fill="#ecbdbf" fill-opacity=".5" d="M147 101l-3-16 20 1z"/><path fill="#70807b" fill-opacity=".5" d="M201.6 119.8l-2 21.2 13.1 7.4-39.6-10.3z"/><circle r="1" fill="#e7e4d9" fill-opacity=".5" transform="rotate(171.7 53.5 14.3) scale(3.65068 23.82873)"/><path fill="#ebe9e3" fill-opacity=".5" d="M44 146l-1-75 48-33z"/><path fill="#01000e" fill-opacity=".7" d="M256 14l7 147-28-57z"/><path fill="#924d34" fill-opacity=".4" d="M211 115l-41-61-6 35z"/><path fill="#a48369" fill-opacity=".5" d="M103.5 81L88.1 63.8l-2.3-10.1L97 46.1z"/><circle cx="167" cy="122" r="5" fill="#e09dae" fill-opacity=".6"/><path fill="#040203" fill-opacity=".5" d="M212.2 78.3l-19.5-26.8 60.3-3.1-36.5-20.7z"/><path fill="#97948c" fill-opacity=".8" d="M87.2 160.8l14.8-60.6 1.9-17.8-33.1 96z"/><circle r="1" fill="#9fa489" fill-opacity=".4" transform="matrix(-11.24734 2.9154 -2.67295 -10.31198 218 6.6)"/><path fill="#433e37" fill-opacity=".6" d="M168 11h35v40h-35z"/><path fill="#3c2722" d="M213.2 65.2l-8.4 60.2 12.1-31.8-11.6 1.6z"/><path fill="#b9b0a0" fill-opacity=".6" d="M222 114l16-23-1-32z"/><path fill="#5f1a04" fill-opacity=".4" d="M169.3 89.9l24.8 33.7L181 84.9l-9.3 4.6z"/></g></svg>