<svg xmlns="http://www.w3.org/2000/svg" viewBox="0 0 300 199"><defs/><path fill="#4c4639" d="M0 0h300v199H0z"/><g transform="translate(.6 .6) scale(1.17188)"><circle r="1" fill="#fcfaef" fill-opacity=".6" transform="matrix(-244.4024 -50.29346 20.28496 -98.5753 146.3 64.2)"/><path fill="#2d210e" fill-opacity=".6" d="M119 54.7l2 108-34 .6-2-108z"/><path fill="#fffffd" fill-opacity=".8" d="M65 112h22v58H65z"/><path fill="#645b39" fill-opacity=".8" d="M114.2 88.9L-6.3 54.6l8.2-12.7 119.2 14.6z"/><ellipse cx="11" cy="94" fill="#fcf4e8" fill-opacity=".7" rx="37" ry="34"/><circle r="1" fill="#f1feff" fill-opacity=".5" transform="matrix(-69.18856 -11.4534 5.22166 -31.54341 223.4 27.4)"/><circle r="1" fill="#eff8ff" fill-opacity=".6" transform="matrix(60.00954 -5.99576 2.37936 23.81419 226.1 150.2)"/><path fill="#301708" fill-opacity=".5" d="M0 127h65v29H0z"/><circle cx="175" cy="57" r="11" fill="#3c0000" fill-opacity=".6"/><circle r="1" fill="#e3eae6" fill-opacity=".6" transform="matrix(1.3866 26.70133 -77.77362 4.0388 65.8 15)"/><path fill="#f7f2e7" fill-opacity=".8" d="M0 85h111v10H0z"/><circle r="1" fill="#8e7e68" fill-opacity=".9" transform="matrix(-17.08094 .68604 -1.49867 -37.3136 143.4 157.5)"/><path fill="#421f00" fill-opacity=".5" d="M191 99h27v18h-27z"/><ellipse cy="98" fill="#a06e34" fill-opacity=".4" rx="133" ry="6"/><ellipse cx="148" cy="55" fill="#0a0000" fill-opacity=".5" rx="9" ry="7"/><circle r="1" fill="#fffcfa" fill-opacity=".6" transform="rotate(-10.4 675 -230) scale(34.22342 7.71396)"/><path fill="#000d16" fill-opacity=".5" d="M260.2 113.5l-18.7 5.5 6.5-33.4 4.3 19.9z"/><path fill="#eff1ee" fill-opacity=".7" d="M188.2 121.4l-34.3-7.6 16.1-36 13.3 13.1z"/><path fill="#957a51" fill-opacity=".6" d="M54 49L31 81l66-2z"/><path fill="#2f481b" fill-opacity=".6" d="M-11 56l37-17 27 26z"/><ellipse cx="186" cy="75" fill="#784008" fill-opacity=".6" rx="5" ry="15"/><path fill="#504433" fill-opacity=".7" d="M86 109h29v61H86z"/><path fill="#977650" fill-opacity=".6" d="M127 119h99v7h-99z"/><path fill="#ffae56" fill-opacity=".3" d="M61 185l-71-20 77-18z"/><circle r="1" fill="#e1e7ee" fill-opacity=".6" transform="matrix(-13.2732 -15.4174 8.52417 -7.33865 141 87.3)"/><path fill="#756e6f" fill-opacity=".5" d="M0 132h43v10H0z"/><path fill="#fff" fill-opacity=".5" d="M229 126h27v34h-27z"/><path fill="#c9ccc2" fill-opacity=".7" d="M170-15l-63 68-78-8z"/><path fill="#fff" fill-opacity=".6" d="M0 63h33v29H0z"/><path fill="#000005" fill-opacity=".5" d="M225 80h22v3h-22z"/><path fill="#13010a" fill-opacity=".4" d="M173 118.3l-.4 6.8-14.8-10.1 6.1 19.4z"/><circle r="1" fill="#c3caca" fill-opacity=".7" transform="matrix(3.74809 -15.17825 63.13683 15.5909 246.5 65.8)"/><path fill="#1d1711" fill-opacity=".6" d="M142.1 157.8l1.4 4.8 2.7-.4 2.5-34.5z"/><path fill="#f9f8f5" fill-opacity=".8" d="M80.2 125l-86.7-17.3 6.6-6.1-16.1 26.7z"/><path fill-opacity=".5" d="M149 49l-7 14-2-9z"/><circle r="1" fill="#cccbc9" fill-opacity=".7" transform="matrix(23.2532 -11.7931 13.37304 26.3685 191 153.3)"/><path fill="#969a8e" fill-opacity=".7" d="M212 82l-29 6 29 24z"/><path fill="#17120b" fill-opacity=".4" d="M92 141l10-15 25 39z"/><path fill="#434649" fill-opacity=".5" d="M100 54h21v33h-21z"/><path fill="#cba88e" fill-opacity=".6" d="M174.1 80.3l-20 6.2-8.2-26.8 20-6.2z"/><path fill="#0b0200" fill-opacity=".3" d="M53 153l14.8-27.9-23.5 14.5-60.3 7.1z"/><circle r="1" fill="#000b05" fill-opacity=".7" transform="matrix(.26526 -3.34989 4.70275 .37238 204 113.5)"/><circle r="1" fill="#dde1e2" fill-opacity=".7" transform="rotate(109.5 110.8 85.2) scale(24.25077 49.56667)"/><path fill="#cf8269" fill-opacity=".4" d="M128 100l38 46-9-43z"/><path fill="#8f7b53" fill-opacity=".8" d="M16.8 52.7l26.1-3.1 2.2 32.6 54.6-23.3z"/><ellipse cx="255" cy="112" fill-opacity=".5" rx="15" ry="3"/><ellipse cx="134" cy="151" fill="#a59e86" fill-opacity=".6" rx="8" ry="34"/><circle cx="75" cy="162" r="12" fill="#fff" fill-opacity=".4"/><path fill="#031600" fill-opacity=".5" d="M0 56h32v5H0z"/><path fill="#b0b5af" fill-opacity=".9" d="M218.1 97.9l29.9 13-1.5-18.6-63.9-34.1z"/><path fill="#683a00" fill-opacity=".5" d="M170.6 70.7l-2.9-26.9 17.6 11.6.9 11.4z"/><ellipse cx="37" cy="87" fill="#feffff" fill-opacity=".6" rx="68" ry="4"/><path fill="#82592e" fill-opacity=".5" d="M87 149h35v21H87z"/><circle r="1" fill="#e0e6e2" fill-opacity=".4" transform="matrix(11.0303 -12.91482 45.97501 39.26637 17 9.3)"/><path fill="#e7d3ac" fill-opacity=".5" d="M197.8 122.9l37.3-10 29.6 9 6.3 4z"/><path fill="#385462" fill-opacity=".4" d="M90 133l33 12-3-69z"/><circle cx="161" cy="31" r="18" fill="#cbcec5" fill-opacity=".6"/><path fill="#91967e" fill-opacity=".4" d="M142.3 26l-18.7 67.5-7.8-37.2 18.6-26.1z"/><path fill="#000002" fill-opacity=".5" d="M250 98l-6-11 3-6z"/><path fill="#643904" fill-opacity=".3" d="M190.6 117.5l-3.2-10 13.6-19-1 30.2z"/><path fill="#602409" fill-opacity=".4" d="M147 137l-2-22 14 34z"/><ellipse cx="37" cy="108" fill="#dcd3ca" fill-opacity=".4" rx="50" ry="7"/><path fill="#866c4b" fill-opacity=".6" d="M77 54h19v31H77z"/><path fill="#647345" fill-opacity=".8" d="M25.1 38.3L-16 53.2l23.3-2 8 5.3z"/><path fill="#d7c6a2" fill-opacity=".3" d="M94.1 106.5l-9.5 55.6-.1-48.1-38.3 6.7z"/></g></svg>