<svg xmlns="http://www.w3.org/2000/svg" viewBox="0 0 300 199"><defs/><path fill="#322c51" d="M0 0h300v199H0z"/><g transform="translate(.6 .6) scale(1.17188)"><path fill="#a66592" fill-opacity=".9" d="M199.8 92.3l-88.2 64.1L12.2 19.7l88.2-64.1z"/><circle r="1" fill="#ffffef" fill-opacity=".6" transform="matrix(13.09157 -1.98521 4.90124 32.3215 131.2 163.3)"/><circle r="1" fill="#971b8b" fill-opacity=".7" transform="matrix(-21.51816 6.82596 -52.743 -166.26698 184 113.5)"/><circle r="1" fill="#2d0003" fill-opacity=".8" transform="matrix(-13.96402 36.7042 -20.22158 -7.69325 52.1 95.5)"/><circle r="1" fill="#200" fill-opacity=".8" transform="matrix(-28.5074 11.44524 -19.63296 -48.90107 213 51)"/><circle r="1" fill="#f0b8a6" fill-opacity=".6" transform="rotate(-125.4 12.7 -.1) scale(54.21952 22.63291)"/><circle r="1" fill="#480004" fill-opacity=".8" transform="rotate(-168.8 28.7 72.8) scale(35.16249 62.76224)"/><path fill="#d7cfba" fill-opacity=".8" d="M75.1 66.9L83.4 92l26.9-15.4-59.8-38.9z"/><circle r="1" fill="#c5ffc8" fill-opacity=".6" transform="rotate(51.8 -38 176) scale(14.53404 19.04153)"/><circle r="1" fill="#d035d3" fill-opacity=".5" transform="matrix(19.38158 -.43983 .95985 42.29672 195.5 169.2)"/><path fill="#4f093f" fill-opacity=".9" d="M115.6 93.2l-59.3 16.6L65.2 92l46.6-7.3z"/><path fill="#ba97ff" fill-opacity=".8" d="M271 53v68l-24-2z"/><ellipse cx="77" cy="7" fill="#ff7bb9" fill-opacity=".6" rx="12" ry="40"/><ellipse cx="151" cy="27" fill="#311051" fill-opacity=".5" rx="29" ry="16"/><path fill="#42c293" fill-opacity=".4" d="M176 76l-5 60-30-35z"/><ellipse cx="56" cy="3" fill="#000f27" fill-opacity=".5" rx="8" ry="30"/><path fill="#d3ddc6" fill-opacity=".5" d="M77 103h25v22H77z"/><path fill-opacity=".5" d="M262 99l-82 19 47 5z"/><path fill="#c20083" fill-opacity=".4" d="M179.4 116.7l-34.2-83.1 67.5 58.7 10.8 19z"/><path fill="#2a1c3b" fill-opacity=".6" d="M133.4 112.1l-44 3.4 49.2 11.6 3.3-8z"/><ellipse cx="101" cy="156" fill="#5a3544" fill-opacity=".8" rx="19" ry="17"/><path fill="#591483" fill-opacity=".6" d="M271 48l-19 20-45-75z"/><path fill="#aba3ff" fill-opacity=".4" d="M10.5 100.3L23 91l10.2-1.4-11.3 17.8z"/><path fill-opacity=".5" d="M71 126h26v13H71z"/><circle r="1" fill="#fc9fa9" fill-opacity=".6" transform="rotate(-29.4 13.7 -52) scale(15.85739 38.60329)"/><path fill="#7f0762" fill-opacity=".6" d="M104.2 81L93.7 20.4l16.5 37.4 3.2 31z"/><ellipse cx="128" cy="156" fill="#ffdadc" fill-opacity=".6" rx="7" ry="35"/><path fill="#b6004d" fill-opacity=".5" d="M183 31l11 60-34-34z"/><path fill="#cec4c1" fill-opacity=".5" d="M167 113l-30-1-27-44z"/><circle r="1" fill="#b50006" fill-opacity=".5" transform="matrix(13.3483 -10.95451 9.45694 11.52348 35 167)"/><path fill="#6c20e6" fill-opacity=".5" d="M249 53h7v55h-7z"/><circle r="1" fill="#832653" fill-opacity=".5" transform="rotate(-18.7 356.7 44.5) scale(18.50267 33.19083)"/><circle r="1" fill="#300033" fill-opacity=".5" transform="matrix(17.25762 -7.06759 17.88738 43.67736 234.6 139.9)"/><path fill="#000135" fill-opacity=".5" d="M109-13L91 32l1-25z"/><circle r="1" fill="#060000" fill-opacity=".6" transform="matrix(-19.57735 -28.98128 15.1275 -10.21889 223 53)"/><path fill="#d330da" fill-opacity=".5" d="M175 83h17v32h-17z"/><path fill="#714e87" fill-opacity=".7" d="M146.6 52l32 27.5-7.6 30.4-37.3-24z"/><circle r="1" fill="#000002" fill-opacity=".4" transform="matrix(16.84989 -26.5686 8.27568 5.24846 56.5 89.8)"/><ellipse cx="117" cy="22" fill="#c204ff" fill-opacity=".2" rx="19" ry="32"/><ellipse cx="248" cy="16" fill="#160032" fill-opacity=".6" rx="12" ry="22"/><path fill="#100000" fill-opacity=".6" d="M147.8 128l16-1.9 2.4 19.9-16 1.9z"/><path fill="#644a6a" fill-opacity=".6" d="M54.4 71.2l-2.1 1.2-61.5-84.3L41.5 75z"/><path fill="#cf98bb" fill-opacity=".6" d="M95 133h46v9H95z"/><path fill="#e781ab" fill-opacity=".5" d="M108 76L81 48 80 4z"/><path fill="#47375a" fill-opacity=".6" d="M74.2 53.6l-11.8-8-12.8-28.5 5-29.2z"/><path fill="#642d8a" fill-opacity=".8" d="M174 24l23-40h-70z"/><path fill="#f7006b" fill-opacity=".5" d="M148 48l3-35 14 50z"/><path fill="#b5c4b7" fill-opacity=".8" d="M151.3 126.4l-30.6-40-44 30.5 54.2-10.8z"/><path fill="#dcffcc" fill-opacity=".5" d="M77 70h26v17H77z"/><circle r="1" fill="#2a0000" fill-opacity=".5" transform="rotate(63.4 -117.3 88.3) scale(10.3218 65.33182)"/><path fill="#010907" fill-opacity=".4" d="M146.5 124.5l112.1-12.3-104.6 4.9-.6 6z"/><path fill="#450000" fill-opacity=".4" d="M190.5-16l-7.4 90.7 18.7 25.1 19.7-5.4z"/><path fill="#240700" fill-opacity=".6" d="M129 117l-14 11 5 4z"/><circle r="1" fill="#ae9da6" fill-opacity=".5" transform="matrix(-1.72206 10.4021 -19.21735 -3.18141 51 49.4)"/><path fill="#510e03" fill-opacity=".5" d="M20 79L6 104l-7-37z"/><path fill="#1a0832" fill-opacity=".7" d="M252.5 90.6l-16.3 55.9-12.4-40.2 10.1-33.4z"/><path fill="#faeaa8" fill-opacity=".5" d="M-8 73l19-2-26-13z"/><path fill="#92f9ba" fill-opacity=".4" d="M180.3 130.8l-10.4-8.7-.1-.8-23.1 3.2z"/><ellipse cx="175" cy="41" fill="#7a66db" fill-opacity=".5" rx="7" ry="5"/><circle r="1" fill="#16190c" fill-opacity=".5" transform="matrix(-17.19555 .12005 -.01325 -1.89815 93.2 127.7)"/><circle r="1" fill="#7e1186" fill-opacity=".6" transform="matrix(2.23335 -.6947 11.92932 38.35132 237 163.3)"/><path fill="#92d2ff" fill-opacity=".5" d="M27 96l-14 7 5-12z"/><path fill="#e4ffde" fill-opacity=".5" d="M113 101l9-18-9-7z"/><path fill="#31000d" fill-opacity=".5" d="M132.7 106.6l10.1 20.8-12.4-6.7-6.9-1.4z"/><path fill="#debeff" fill-opacity=".6" d="M255 110l-8 11-3-3z"/></g></svg>