<svg xmlns="http://www.w3.org/2000/svg" viewBox="0 0 300 199"><defs/><path fill="#353e55" d="M0 0h300v199H0z"/><g transform="translate(.6 .6) scale(1.17188)"><circle r="1" fill="#d4bea0" fill-opacity=".8" transform="matrix(-49.86862 -92.23008 224.31039 -121.28417 123.3 46.9)"/><circle r="1" fill="#3e0907" fill-opacity=".8" transform="rotate(-13.9 571.5 -741.4) scale(30.72365 90.9541)"/><circle r="1" fill="#ffffe3" fill-opacity=".7" transform="matrix(3.08442 56.95222 -95.95076 5.1965 69.5 7.7)"/><circle r="1" fill="#692700" fill-opacity=".5" transform="matrix(-19.43564 60.14534 -20.09213 -6.49266 46.5 121.9)"/><circle r="1" fill="#dfeef9" fill-opacity=".6" transform="matrix(28.65949 40.77832 -19.92404 14.00285 232.4 68.9)"/><circle r="1" fill="#c8c0b4" fill-opacity=".8" transform="rotate(147.3 52.2 107) scale(17.73452 84.6782)"/><circle r="1" fill="#320000" fill-opacity=".6" transform="matrix(7.68877 -32.51174 66.46266 15.71789 225.3 144.4)"/><circle r="1" fill="#fbf4dd" fill-opacity=".3" transform="matrix(-19.32202 -38.75398 27.0449 -13.48409 144 55)"/><path fill="#360000" fill-opacity=".5" d="M31 85h16v85H31z"/><path fill="#532c00" fill-opacity=".6" d="M146.6 107.2L93.2 68.4l4.2-5.6 53.4 38.8z"/><circle r="1" fill="#d5a750" fill-opacity=".7" transform="matrix(-5.58945 13.46958 -15.85445 -6.5791 39.9 44)"/><ellipse cx="172" cy="15" fill="#462814" fill-opacity=".6" rx="10" ry="14"/><path fill="#3f0909" fill-opacity=".5" d="M220 80l-69-19 96 124z"/><circle r="1" fill="#544c39" fill-opacity=".7" transform="matrix(.768 8.1245 -23.13093 2.18652 76.8 125)"/><path fill="#e1c3ad" fill-opacity=".6" d="M51 180v-51l107 25z"/><circle r="1" fill="#c0e7ee" fill-opacity=".3" transform="rotate(74.3 101 162.9) scale(105.81803 23.49272)"/><circle r="1" fill="#a18970" transform="matrix(-16.16988 -5.96002 17.43666 -47.30668 6.2 169)"/><path fill="#b7d9e9" fill-opacity=".5" d="M105 104h57v25h-57z"/><circle r="1" fill="#9e7435" fill-opacity=".5" transform="matrix(-51.4936 18.0328 -4.43162 -12.65471 67.8 81.3)"/><ellipse cx="188" cy="45" fill="#12211f" fill-opacity=".6" rx="11" ry="18"/><path fill="#d9dfdf" fill-opacity=".7" d="M97-3l59-13-5 110z"/><path fill="#571a05" fill-opacity=".6" d="M45.3 129.5l-15.9 1.7-4.7-44.7 15.9-1.7z"/><path fill="#3d0000" fill-opacity=".6" d="M163 99h54v60h-54z"/><path fill="#7a7f86" fill-opacity=".6" d="M195 48h15v30h-15z"/><path fill="#643510" fill-opacity=".6" d="M-16 136.4l11.3 23.1 45.8-5.1-26.8-8.1z"/><path fill="#000007" fill-opacity=".5" d="M6 62h3v57H6z"/><circle r="1" fill="#ae9289" fill-opacity=".9" transform="rotate(-150.2 110.7 61) scale(10.56104 6.96565)"/><path fill="#a2d0c7" fill-opacity=".5" d="M13 58h14v87H13z"/><ellipse cx="74" cy="93" fill="#b08846" fill-opacity=".8" rx="10" ry="31"/><circle r="1" fill="#054c51" fill-opacity=".5" transform="matrix(-6.6237 1.58674 -1.10319 -4.60516 142 117.5)"/><path fill="#a4b6b5" fill-opacity=".6" d="M259 149l10-129-45-36z"/><path fill="#845e42" fill-opacity=".5" d="M121 134.8L52.3 152l-1.3-4.8 69-17.2z"/><path fill="#f3e9c7" fill-opacity=".8" d="M0 0h25v62H0z"/><path fill="#f3f3ec" fill-opacity=".6" d="M86 50l27-32L0-16z"/><path fill="#c0dcd0" fill-opacity=".6" d="M27 61h18v23H27z"/><path fill="#ffedc8" fill-opacity=".5" d="M161.3 102L147 97.4l3.7-11.4 14.3 4.6z"/><path fill="#7f5640" fill-opacity=".5" d="M179 118l-29-58 28-46z"/><path fill="#8bb3c1" fill-opacity=".5" d="M84 79h27v43H84z"/><circle r="1" fill="#fceff5" fill-opacity=".5" transform="matrix(10.70547 -2.44006 6.25469 27.44175 229.6 78.8)"/><path fill="#d0acc1" fill-opacity=".4" d="M57 95.6l-8.5-21.5.7.6 1.7 54.5z"/><path fill="#6c192b" fill-opacity=".8" d="M207.1 72.7l16.4 58 11.6.7-14.2-49.1z"/><path fill="#b7c8c6" fill-opacity=".5" d="M179.5-.2l24.4-11.4 18.6 39.8-24.4 11.4z"/><ellipse cx="240" cy="169" fill="#16140b" fill-opacity=".6" rx="15" ry="62"/><path fill="#363e29" fill-opacity=".3" d="M155.1 102.5L74.8 66.3l15.8-5.5 39.3 42.8z"/><path fill="#e4e6e5" fill-opacity=".5" d="M151 113h10v38h-10z"/><path fill="#00021c" fill-opacity=".5" d="M4 110L1 97l6 4z"/><path fill="#bcefff" fill-opacity=".4" d="M3.4 116l11.5-1.8-30.9 41.5L8.8 37.5z"/><path fill="#e3cfbd" fill-opacity=".8" d="M98.8 143.9l-48.7 16 91.2-10 20.2-12.7z"/><path fill="#fcd382" fill-opacity=".3" d="M95.1 62.7l18.5-27.3 47.3 31.9-18.5 27.3z"/><ellipse cx="10" cy="166" fill="#c8905e" fill-opacity=".6" rx="23" ry="11"/><path fill="#52a1d4" fill-opacity=".5" d="M8 63l28 2-6 18z"/><path fill="#f5f5f2" fill-opacity=".4" d="M210 68l50 56-51-104z"/><path fill="#0b4a73" fill-opacity=".5" d="M252.4 102.6l-2.7-.2L271 80.9v83.9z"/><circle r="1" fill="#020a11" fill-opacity=".6" transform="matrix(-1.28966 -2.70382 7.94506 -3.7896 79.1 126)"/><ellipse cx="39" cy="63" fill="#e99a21" fill-opacity=".5" rx="3" ry="21"/><ellipse cx="143" fill="#cedbe5" fill-opacity=".6" rx="21" ry="54"/><path fill="#272813" fill-opacity=".3" d="M195.3 65.5l-40.1 10.1 3.3 12.4 48.2 32.9z"/><path fill="#994706" fill-opacity=".4" d="M103.4 176.8l-1.7-6.8 35-8.8 1.6 6.8z"/><path fill="#372d1e" fill-opacity=".5" d="M135 134h16v3h-16z"/><path fill="#d9e4e3" fill-opacity=".5" d="M73 135.1l-13.6 9.4-7.6 6.5 2.9-18.7z"/><path fill="#f4eac6" fill-opacity=".7" d="M49 63l39-2-26-39z"/><path fill="#1b0000" fill-opacity=".5" d="M7 62h4v14H7z"/><path fill="#9b8876" fill-opacity=".4" d="M95.5 119.9l-3.3-9.6 45.1 25.7-81.5 16.2z"/><path fill="#c3c7d1" fill-opacity=".5" d="M15.6 144l10.3 5.7 4-8.1-3.5-22.9z"/><path fill="#9f5f03" fill-opacity=".5" d="M46.2 82.6l-.4-19 16-.2.4 19z"/></g></svg>