<svg xmlns="http://www.w3.org/2000/svg" viewBox="0 0 300 199"><defs/><path fill="#503a2c" d="M0 0h300v199H0z"/><g transform="translate(.6 .6) scale(1.17188)"><ellipse cx="90" cy="61" fill="#ecf3f1" fill-opacity=".7" rx="79" ry="16"/><ellipse cx="214" cy="85" fill="#000307" fill-opacity=".9" rx="51" ry="169"/><circle cx="83" cy="153" r="88" fill="#000c1d" fill-opacity=".5"/><circle r="1" fill="#000006" fill-opacity=".6" transform="matrix(-2.9269 -32.11865 124.65487 -11.35952 91.5 13.9)"/><ellipse cx="34" cy="71" fill="#fffff8" fill-opacity=".5" rx="20" ry="27"/><path fill="#fff" fill-opacity=".5" d="M124 47h40v32h-40z"/><circle r="1" fill="#fcf2d8" fill-opacity=".8" transform="rotate(127.7 30.5 54.2) scale(18.22381 14.2694)"/><path fill="#10161b" fill-opacity=".8" d="M128.5 73.4l-7.7-18.6-99.6 120.3L134 185z"/><path fill="#e2e9ef" fill-opacity=".8" d="M14 47.1l2.9 35.6 92.4-35-53.8-.7z"/><path fill="#0c1117" fill-opacity=".9" d="M-16 102l37 83L10-16z"/><path fill="#0a0a09" fill-opacity=".9" d="M79.7 114.2L53.9 73.9l17.8-14.2 12.6 56.5z"/><path fill="#826c44" fill-opacity=".9" d="M18.7 97.6l-2.9-13.2 43.6-6.2L64.7 99z"/><circle r="1" fill="#fff9bf" fill-opacity=".3" transform="matrix(-15.1369 -8.1063 10.65823 -19.90214 138.4 67.6)"/><ellipse cx="84" cy="23" fill="#070c10" fill-opacity=".7" rx="212" ry="24"/><path fill="#cda74e" fill-opacity=".4" d="M92 100.6l-13.4-6.7L89 73.4l21.5-8z"/><path fill="#aabcbe" fill-opacity=".5" d="M12.5 28.3L60.2 64 4.1 27.3l-.6-2.1z"/><circle cx="154" cy="132" r="39" fill="#0c1829" fill-opacity=".6"/><path fill="#feffff" fill-opacity=".5" d="M138 47h25v28h-25z"/><path fill="#8f8246" fill-opacity=".4" d="M164.6 92l-38.8 4.5-2.3-32.1 45.3 17.4z"/><path fill="#2c210d" fill-opacity=".4" d="M58.5 57L47.8 83.5l85.9 1.8-70 9.7z"/><path fill="#f0f9ff" fill-opacity=".6" d="M30 48h133v8H30z"/><circle cx="53" cy="169" r="72" fill="#0c1420" fill-opacity=".6"/><path fill="#8c9796" fill-opacity=".5" d="M147 39l20-12-10 12z"/><path fill-opacity=".5" d="M119 55l-1 62-13-35z"/><path fill="#25364e" fill-opacity=".5" d="M120 112h50v21h-50z"/><circle r="1" fill="#f1ebdd" fill-opacity=".6" transform="matrix(-22.00342 11.8972 -4.0616 -7.51177 97 61.5)"/><path fill="#e8eae8" fill-opacity=".6" d="M65 54L23 80l18 1z"/><path fill="#1b2534" fill-opacity=".6" d="M15 118h88v22H15z"/><path fill="#12100c" fill-opacity=".6" d="M55.8 88.2l.3-22.3 20.5 1.6-4.7-5.6z"/><ellipse cx="140" cy="100" fill="#060706" fill-opacity=".8" rx="105" ry="4"/><ellipse cx="12" cy="43" fill="#060709" fill-opacity=".9" rx="255" ry="3"/><path fill="#b5965a" fill-opacity=".5" d="M17 88h21v11H17z"/><path fill="#dffff5" fill-opacity=".3" d="M27.6 38.2l-8 .1L6.2 26.6l9.7 4.6z"/><path fill="#856c35" fill-opacity=".4" d="M92 75h16v21H92z"/><path fill="#d3ba7d" fill-opacity=".5" d="M81.5 75.4l.5 6.3 14.9-2.1 22.3-19.9z"/><ellipse cx="74" cy="160" fill="#0b0d12" fill-opacity=".5" rx="142" ry="17"/><ellipse cx="165" cy="86" fill="#303d4e" fill-opacity=".3" rx="3" ry="43"/><ellipse cx="29" cy="104" fill="#0b0c0c" fill-opacity=".9" rx="58" ry="5"/><path fill-opacity=".5" d="M61 73l20 1-5 40z"/><circle cx="119" cy="58" r="4" fill-opacity=".5"/><path fill="#323018" fill-opacity=".3" d="M31.9 79.1l29.2 40.2-15.5-32 6-8.3z"/><path fill="#484d41" fill-opacity=".5" d="M117 84h44v11h-44z"/><path fill="#efefee" fill-opacity=".7" d="M76.2 50.7L21.6 61.8 63 59.1 105.8 73z"/><circle r="1" fill="#050201" fill-opacity=".5" transform="matrix(17.71716 50.3106 -69.85028 24.59817 246.8 50.1)"/><path fill="#18120c" fill-opacity=".7" d="M97 94.4L71.1 76l16.7 8.7 15 9z"/><path fill="#020100" fill-opacity=".5" d="M73.8 120.9l-2.7 19.8-11-1.6 2.8-19.8z"/><path fill="#fff" fill-opacity=".4" d="M111 51h5v13h-5z"/><path fill="#11151e" fill-opacity=".5" d="M150 43L61 30l92-11z"/><ellipse cx="13" cy="76" fill="#324163" fill-opacity=".5" rx="2" ry="24"/><path fill="#899198" fill-opacity=".5" d="M79 92h17v4H79z"/><path fill="#0e1119" fill-opacity=".4" d="M170 167l-14-76 83 28z"/><circle r="1" fill="#86766d" fill-opacity=".5" transform="matrix(9.39118 -.6537 .2618 3.7611 60 95)"/><path fill="#171000" fill-opacity=".5" d="M2 83h53v1H2z"/><path fill="#eee2d7" fill-opacity=".4" d="M138 66h26v11h-26z"/><path fill="#253854" fill-opacity=".5" d="M22 109h49v4H22z"/><path fill-opacity=".5" d="M124.3 57.4l-11.8 26.5-2.8-1.3 11.8-26.5z"/><path fill="#ebeeef" fill-opacity=".9" d="M123.5 47.5l1.2 17.1 37.8 7.5-1.7-24.3z"/><circle r="1" fill="#050404" fill-opacity=".5" transform="matrix(-6.18431 .48723 -4.72793 -60.01093 2.3 53.2)"/><circle r="1" fill="#9a772e" fill-opacity=".4" transform="matrix(-8.17607 -1.92997 1.65432 -7.0083 128 77.1)"/><path fill="#fae5c1" fill-opacity=".5" d="M90 52h14v21H90z"/><path fill="#080703" fill-opacity=".5" d="M68.3 69.6l-18.2-1.8 39 21.2 6.4 2.3z"/><path fill="#110c07" fill-opacity=".6" d="M108.6 78.1l-13.1 23.2L107.9 69l14.3-8.3z"/><path fill="#322714" fill-opacity=".8" d="M195.8 74.5l-56.5 6.9H87.8l74.6-1.8z"/><ellipse cx="70" cy="65" fill-opacity=".5" rx="5" ry="4"/><path fill="#202f42" fill-opacity=".5" d="M83 106h21v17H83z"/></g></svg>