<svg xmlns="http://www.w3.org/2000/svg" viewBox="0 0 300 199"><defs/><path fill="#4e413c" d="M0 0h300v199H0z"/><g transform="translate(.6 .6) scale(1.17188)"><circle r="1" fill="#ede8e7" fill-opacity=".7" transform="matrix(17.878 96.97066 -56.26083 10.37253 59.2 101.4)"/><ellipse cx="234" cy="118" fill="#06060a" fill-opacity=".8" rx="73" ry="121"/><circle r="1" fill="#a69687" fill-opacity=".5" transform="matrix(4.62918 -31.73186 98.89148 14.4267 82.4 18.3)"/><path fill="#fff" fill-opacity=".5" d="M138 58h19v43h-19z"/><circle r="1" fill="#655d5a" fill-opacity=".9" transform="matrix(-10.0054 -16.94665 34.73412 -20.50721 0 149.5)"/><path fill="#e5ecf2" fill-opacity=".5" d="M124 134l-24-83-116 74z"/><path fill="#000010" fill-opacity=".6" d="M104 62l35-23-18 60z"/><circle r="1" fill="#3e2421" fill-opacity=".5" transform="rotate(-98 48.7 -17.6) scale(37.14655 6.42923)"/><path fill="#d9b3ba" fill-opacity=".5" d="M144 118l19 2-20 43z"/><circle r="1" fill="#756953" fill-opacity=".8" transform="matrix(-29.07675 56.82095 -7.76395 -3.97301 0 52.4)"/><path fill="#430f00" fill-opacity=".3" d="M16.6 137.6l55.3 21.8-15.8-25.6-32-19.7z"/><path fill="#000209" fill-opacity=".8" d="M132 111l15 59-33 15z"/><path fill="#153348" fill-opacity=".4" d="M191-16l2 156-51-28z"/><path fill="#0d1829" fill-opacity=".9" d="M151 136h30v34h-30z"/><path fill="#f2ffff" fill-opacity=".5" d="M159 59l-22 4 10 34z"/><path fill="#d7e2ec" fill-opacity=".7" d="M22 160h91v10H22z"/><circle r="1" fill="#7ea991" fill-opacity=".4" transform="matrix(2.14766 -10.10394 25.16497 5.34898 144.6 102)"/><circle r="1" fill="#12100e" fill-opacity=".5" transform="matrix(-6.53711 -1.86214 8.6887 -30.50194 18.6 153)"/><path fill="#a7816f" fill-opacity=".5" d="M144 10h40v41h-40z"/><circle r="1" fill="#dce8ed" fill-opacity=".5" transform="matrix(-11.79116 .90728 -2.67389 -34.75028 27.3 84.8)"/><ellipse cx="4" cy="119" fill="#999d9e" fill-opacity=".6" rx="6" ry="57"/><circle r="1" fill="#2c2821" transform="rotate(-153.5 106 -18.5) scale(25.76669 21.78104)"/><ellipse cx="101" cy="16" fill="#97f0fe" fill-opacity=".2" rx="25" ry="48"/><path fill="#eaab93" fill-opacity=".5" d="M82.7 76L60 83.8 17.3-40 40-47.8z"/><path fill="#668193" fill-opacity=".6" d="M98.9 154.2l10.5 21 14.2-28.3 2.2-21.2z"/><ellipse cx="233" cy="140" fill="#0e0200" fill-opacity=".6" rx="27" ry="105"/><path fill="#e7eef1" fill-opacity=".5" d="M36.8 111.2l73.6-56-26.1 70.4-40.8-16.5z"/><path fill="#b8baa1" fill-opacity=".5" d="M163 95l-23-14-24 20z"/><path fill="#111d2c" fill-opacity=".9" d="M162.9 41l57.4 36-69 10.1 10.4-20.3z"/><path fill="#000c20" fill-opacity=".5" d="M113 49h23v39h-23z"/><path fill="#193f43" fill-opacity=".4" d="M116.4 119.2l55.8-7.3-16.4-5.1-42-13.4z"/><ellipse cx="155" cy="26" fill="#cf917a" fill-opacity=".6" rx="9" ry="23"/><circle r="1" fill="#ebf3fa" fill-opacity=".6" transform="matrix(-.71347 -18.97815 13.33532 -.50133 87 169)"/><circle r="1" fill="#c3927d" fill-opacity=".8" transform="matrix(6.8112 6.2852 -8.68067 9.40716 68.4 151)"/><path fill="#b1817c" fill-opacity=".7" d="M141.2 133.5l-5.4-23 26.1 17.3-4.8 8.1z"/><path fill="#381406" fill-opacity=".5" d="M139.8 44l4.4-36.6L164 3.9 138.1-16z"/><path fill="#d9f8ff" fill-opacity=".4" d="M140.5 149.5l7.9 19-3.7-33.5-.6 15.1z"/><path fill="#4d4442" fill-opacity=".7" d="M77 22l-10.7-4.7L40.5-16h31.7z"/><path fill="#bec2c7" fill-opacity=".4" d="M30 114h94v21H30z"/><path fill="#d4cdd0" fill-opacity=".7" d="M53.1 103.7l-23 16.8L43 37.8l6.3-22.9z"/><path fill="#03111f" fill-opacity=".7" d="M138 73.5l2.2 7.7-18.2 5.3-2.2-7.7z"/><path fill="#1f0907" fill-opacity=".8" d="M182 126h74v44h-74z"/><path fill="#a9dafd" fill-opacity=".4" d="M161.9 37.6L160.8 66l-3.1-18.1-4 1.7z"/><path fill="#1c160a" fill-opacity=".6" d="M164 0h8v19h-8z"/><path fill="#6f7261" fill-opacity=".5" d="M209 44h6v29h-6z"/><path fill="#d3dde3" fill-opacity=".6" d="M45.7-26.8L22.2 83.7l-3.9-.9L41.8-27.7z"/><path fill="#0c1b2f" fill-opacity=".7" d="M172 139l34-32-55 2z"/><path fill="#c9d1d6" fill-opacity=".7" d="M54.1 152.5l-24.8-5.4L12.7 185l58.2-13.1z"/><ellipse cx="177" fill="#666c63" fill-opacity=".7" rx="7" ry="49"/><path fill="#c5c8ce" fill-opacity=".5" d="M115 86L83 60l-8-72z"/><path fill="#846d64" fill-opacity=".5" d="M35 17h6v41h-6z"/><path fill="#bb8265" fill-opacity=".4" d="M53 59l14 18 11-65z"/><path fill="#090000" fill-opacity=".4" d="M185 30h24v49h-24z"/><circle r="1" fill="#121f2f" transform="matrix(20.38126 .79274 -.87122 22.3988 180 89)"/><path fill="#452c23" fill-opacity=".5" d="M31.5 138.6l-7.6-26.4 2.7 5.5-24.4 29.4z"/><circle r="1" fill="#19251d" fill-opacity=".6" transform="rotate(154.3 50.4 75.3) scale(3.0825 35.20995)"/><path fill="#aab8bd" fill-opacity=".6" d="M16 83l-2 50-20-22z"/><path fill="#2a0e03" fill-opacity=".1" d="M199.4 37.5l-61.2-15.4 2.3-26.8L135 44z"/><path fill="#00152b" fill-opacity=".2" d="M85.3 8.2l-18 36.9 10 9.8L82.4 44z"/><path fill="#f5c5ae" fill-opacity=".5" d="M152 5h11v8h-11z"/><path fill="#000611" fill-opacity=".6" d="M114 158h30v12h-30z"/><path fill="#7a7c71" fill-opacity=".7" d="M79-16h69l-41.8 83.8-7.9-22.2z"/><path fill="#cfe6f6" fill-opacity=".5" d="M137 59h23v7h-23z"/><path fill="#000500" fill-opacity=".6" d="M150.5 100.3l2.2-5.6 2.8 1-2.2 5.6z"/><path fill="#2d2c2d" fill-opacity=".5" d="M241 105l1-25 27 1-1 25z"/></g></svg>