<svg xmlns="http://www.w3.org/2000/svg" viewBox="0 0 300 199"><defs/><path fill="#62422c" d="M0 0h300v199H0z"/><g transform="translate(.6 .6) scale(1.17188)"><circle r="1" fill="#ddeaef" fill-opacity=".7" transform="matrix(-24.92092 3.17604 -13.88966 -108.98577 137 133.5)"/><ellipse cx="88" cy="33" fill="#8f8880" fill-opacity=".6" rx="209" ry="53"/><circle r="1" fill="#00215c" fill-opacity=".7" transform="matrix(77.61648 12.6906 -7.43964 45.50132 17.6 126.3)"/><circle r="1" fill="#000915" fill-opacity=".6" transform="matrix(52.21662 29.09009 -20.20489 36.2677 215.1 131.9)"/><path fill="#f5c6b9" fill-opacity=".7" d="M33.3 111.4l16-48.4 22.6 31.3-5.5-12.6z"/><ellipse cx="141" cy="164" fill="#e2ffff" fill-opacity=".4" rx="29" ry="65"/><circle cx="81" cy="123" r="40" fill="#1b0c00" fill-opacity=".4"/><circle r="1" fill="#e3ecfa" fill-opacity=".4" transform="matrix(12.06602 20.35059 -13.97275 8.28455 219.7 68.6)"/><circle r="1" fill="#4188ff" fill-opacity=".5" transform="matrix(-8.6258 13.8197 -22.79712 -14.2292 16.8 90)"/><circle r="1" fill="#3a1d00" fill-opacity=".4" transform="matrix(53.91375 -17.6696 6.40243 19.53519 96 11.2)"/><path fill="#f5f6fc" fill-opacity=".5" d="M124.4 76.4L154.5 185l-3.6-94.5 23-34.8z"/><path fill="#fff" fill-opacity=".5" d="M253 57.5L237.2 61 233 42.4l15.6-3.6z"/><path fill="#293341" fill-opacity=".6" d="M153.7 79.7l2.4 46.1 72-47.7-7.5-9.3z"/><path fill="#d2b4a7" fill-opacity=".8" d="M26.2 73.1L6.7 74l26-59.9-15.2 1.4z"/><ellipse cx="64" cy="143" fill="#040505" fill-opacity=".8" rx="18" ry="53"/><circle r="1" fill="#76604c" fill-opacity=".5" transform="matrix(19.16047 -50.60878 14.33532 5.42735 103.4 125.8)"/><ellipse cx="255" cy="98" fill="#00040b" fill-opacity=".8" rx="11" ry="37"/><path fill="#160900" fill-opacity=".6" d="M58.9 45.7L31.8 57.3 45.2 92l-9.7-6.7z"/><path fill="#000919" fill-opacity=".5" d="M179 185L160 48l30 50z"/><path fill="#9b7859" fill-opacity=".6" d="M67 40h83v30H67z"/><path fill="#471e00" fill-opacity=".5" d="M258.8 17.8l4.3 14.4-45.9 14-4.3-14.4z"/><path fill="#d6eefd" fill-opacity=".7" d="M175.6 70.6l-2.7-1.3 13.1-3.6-5.8 20z"/><circle r="1" fill="#abd6fe" fill-opacity=".5" transform="matrix(4.99806 6.70233 -11.18245 8.33897 162.3 18.8)"/><circle r="1" fill="#886958" fill-opacity=".5" transform="rotate(94.2 47.6 154.8) scale(52.57371 5.05851)"/><path fill="#010000" fill-opacity=".6" d="M79 75l-19 1-2-19z"/><circle r="1" fill="#00279a" fill-opacity=".5" transform="rotate(-123.6 52 65.8) scale(31.8517 16.53434)"/><circle r="1" fill="#ecffff" fill-opacity=".6" transform="matrix(-13.18798 -1.69521 .9038 -7.03121 210.2 55.9)"/><ellipse cx="96" cy="56" fill="#feffee" fill-opacity=".7" rx="10" ry="4"/><path fill="#3d0e00" fill-opacity=".6" d="M.4 37.6l16.2 5.2-9 27.6-16.2-5.2z"/><path fill="#97a7b0" fill-opacity=".7" d="M232.9 74.7l7.7 24.9 5.7-10.1h-42.6z"/><path fill="#0b1320" fill-opacity=".5" d="M185 43h11v90h-11z"/><path fill="#a0b6a8" fill-opacity=".5" d="M0 11h43v28H0z"/><path fill="#9a765f" fill-opacity=".5" d="M165 88l5 62-23-61z"/><path fill-opacity=".5" d="M262.2 117.8l-23.7 42.8-36.7-20.4 23.7-42.8z"/><path fill="#ffeae1" fill-opacity=".5" d="M73 78v14L51 82z"/><path fill="#e8f7fd" fill-opacity=".4" d="M140.7 30.2l-12.5-13.5 6.5 27.1-23.8-9.3z"/><path fill="#a0ccdd" fill-opacity=".4" d="M231 22l-39 2 71-25z"/><path fill="#6dd1e2" fill-opacity=".5" d="M87.3 126.5l-4.4 19.7 13.1-6-5.2-10.6z"/><ellipse cx="79" cy="97" fill="#000007" fill-opacity=".5" rx="8" ry="21"/><circle r="1" fill="#d2c9c2" fill-opacity=".3" transform="matrix(-13.06139 11.59644 -7.03547 -7.92424 106.5 80.8)"/><path fill="#693c1e" fill-opacity=".7" d="M201 184l56 1-54-51z"/><path fill="#daebf7" fill-opacity=".6" d="M233.7 81.9l-6.5-2.5 15-39.3 6.6 2.5z"/><path fill="#fffcde" fill-opacity=".5" d="M11 163l-8 4 4-12z"/><path fill="#fff5cf" fill-opacity=".6" d="M44 102l4-15-15 10z"/><path fill="#411900" fill-opacity=".3" d="M122.2 71.4l33-18.9-8.8 21L118 38.2z"/><path fill="#622817" fill-opacity=".5" d="M231.7 30.4l-16.3 17.1 16.7 12.3L217.7 86z"/><path fill="#ccc0ac" fill-opacity=".4" d="M191.8 58.1l21.9-37.6-29.4 6.7 41 67.4z"/><path fill="#000006" fill-opacity=".6" d="M203 94h34v14h-34z"/><path fill="#60482c" fill-opacity=".5" d="M46 0h44v54H46z"/><path fill="#fbdbd2" fill-opacity=".6" d="M26.7 11.9l-5.3 50.4-12.3-2.8L27 40.3z"/><path fill="#010d19" fill-opacity=".5" d="M271 45.1v24.7l-29.1 14.8-10.4-4.2z"/><path fill="#e3eef9" fill-opacity=".5" d="M137 54l-19 131 42-9z"/><path fill="#4c3223" d="M180 150.9l.1-24.9 6.2-6 5.5 62.7z"/><circle r="1" fill="#96a4ae" fill-opacity=".6" transform="matrix(6.08591 -31.37435 5.3558 1.0389 117.6 153.5)"/><path fill="#673e1b" fill-opacity=".7" d="M147.5 52.5l-8.6 15 57.5-29.9-35.9 11.6z"/><path fill="#f3dfb1" fill-opacity=".7" d="M90 42.4l16.4.1-8-7.4.3-.9z"/><path fill="#d4cbc5" fill-opacity=".4" d="M201 114l13-8-7 20z"/><path fill="#f2f7fc" fill-opacity=".5" d="M153.4 68.8l25.7-15-11.4 12.7-13.2-6.6z"/><circle r="1" fill="#fbc3ae" fill-opacity=".5" transform="matrix(4.06724 -16.55662 5.53209 1.359 53.6 72.6)"/><path fill="#030000" fill-opacity=".6" d="M88 117l10 26 4-20z"/><path fill="#554636" fill-opacity=".5" d="M124 31L11 0l174-16z"/><path fill="#0a1b2d" fill-opacity=".8" d="M178.4 91.9L174 62.6l-10.7 4-1.8 19.1z"/><path fill="#423730" fill-opacity=".5" d="M173.7 2.2l23-18.2-.2 33.6L181.3 28z"/><path fill="#725036" fill-opacity=".7" d="M129.9 92.2l-12 34.4-10.4 58.4-4.6-79.8z"/><path fill="#544630" fill-opacity=".6" d="M40.3 39.6l-9 1.5-3.6-20.7 9-1.5z"/></g></svg>