<svg xmlns="http://www.w3.org/2000/svg" viewBox="0 0 300 199"><defs/><path fill="#3b271f" d="M0 0h300v199H0z"/><g transform="translate(.6 .6) scale(1.17188)"><circle r="1" fill="#dee7eb" fill-opacity=".7" transform="rotate(-83.4 55.2 2.1) scale(69.0192 106.95109)"/><ellipse cx="61" cy="108" fill="#000104" fill-opacity=".9" rx="31" ry="39"/><circle r="1" fill="#c5cdda" fill-opacity=".5" transform="matrix(-14.6559 1.02484 -8.13777 -116.3755 223.2 115.6)"/><circle r="1" fill="#fafdfe" fill-opacity=".6" transform="rotate(-22.3 120.2 -41.7) scale(121.23473 37.37966)"/><ellipse cx="121" cy="108" fill="#b6b4af" fill-opacity=".4" rx="31" ry="104"/><circle r="1" fill-opacity=".7" transform="matrix(-3.12927 -11.89077 8.73266 -2.29815 61.4 58.7)"/><ellipse cx="111" cy="44" fill="#191612" fill-opacity=".7" rx="5" ry="75"/><ellipse cx="167" cy="37" fill="#090000" fill-opacity=".6" rx="30" ry="58"/><path fill="#fff" fill-opacity=".8" d="M0 4h28v119H0z"/><path fill="#fff" fill-opacity=".6" d="M71 8h33v67H71z"/><ellipse cx="229" cy="65" fill="#787e87" fill-opacity=".3" rx="36" ry="161"/><path fill="#fff" fill-opacity=".5" d="M117 31h26v73h-26z"/><ellipse cx="118" cy="118" fill="#fffffd" fill-opacity=".7" rx="27" ry="5"/><ellipse cx="178" cy="169" fill="#0b0000" fill-opacity=".8" rx="18" ry="169"/><path fill="#734e38" fill-opacity=".8" d="M165.5 76l-12.1 37.9L131.9 20l30.9 32.6z"/><path fill-opacity=".5" d="M51 185l71-59-95-12z"/><ellipse cx="32" cy="10" fill="#000917" fill-opacity=".4" rx="3" ry="162"/><ellipse cx="97" cy="65" fill="#fff" fill-opacity=".5" rx="9" ry="59"/><path fill="#1f0400" fill-opacity=".5" d="M110 112l40-3-37-7z"/><path fill="#fff" fill-opacity=".5" d="M38 120l7 1-3-14zM118 8h13v97h-13z"/><circle r="1" fill="#412f28" fill-opacity=".6" transform="matrix(-24.91935 -11.72616 18.99067 -40.35723 135.7 166)"/><path fill-opacity=".6" d="M32 77h54v34H32z"/><circle r="1" fill="#acb9be" fill-opacity=".6" transform="matrix(16.50907 -18.27095 4.6059 4.16175 101.8 156.6)"/><path fill="#fff" fill-opacity=".6" d="M34 7h51v39H34z"/><circle r="1" fill="#c4b1a3" fill-opacity=".4" transform="matrix(11.38961 63.3008 -6.30785 1.13496 255 30.2)"/><path fill="#f4f0ea" fill-opacity=".5" d="M124 89h31v14h-31z"/><path fill-opacity=".4" d="M133 0h70v32h-70z"/><ellipse cx="61" cy="52" fill-opacity=".6" rx="10" ry="6"/><circle r="1" fill="#000001" transform="matrix(-21.40407 .22415 -.73225 -69.92257 62.2 161.7)"/><path fill="#3f3737" fill-opacity=".9" d="M227 43.7l7.4-38 18.9 52.2-15.5 72z"/><path fill="#fff" fill-opacity=".5" d="M83 123l3-7-5-4z"/><ellipse cx="79" fill="#424d4a" fill-opacity=".5" rx="61" ry="2"/><path fill="#fefffe" fill-opacity=".5" d="M39.5 29.8l17.6 37.7-5.4 5.9-9 5.5z"/><ellipse cx="213" cy="79" fill="#cac4c6" fill-opacity=".5" rx="3" ry="65"/><path fill="#f5f8f8" fill-opacity=".7" d="M0 26h31v73H0z"/><ellipse cx="204" cy="72" fill="#26242b" fill-opacity=".4" rx="6" ry="112"/><ellipse cx="196" cy="107" fill="#f1ffff" fill-opacity=".2" rx="3" ry="27"/><path fill="#100300" fill-opacity=".7" d="M199.7 185l-6.8-113.3-29.7 59.7-22.9 11.2z"/><path fill="#f6fafc" fill-opacity=".6" d="M105 0L62 31l44 87z"/><circle r="1" fill="#2b4756" fill-opacity=".4" transform="matrix(-24.12654 12.62804 -17.3761 -33.19795 12.8 158.3)"/><circle r="1" fill="#7a6e6d" fill-opacity=".6" transform="matrix(-9.66107 -55.54153 3.21984 -.56007 250.6 127.9)"/><ellipse cx="115" cy="103" fill="#3a362e" fill-opacity=".3" rx="2" ry="124"/><circle r="1" fill="#554d4d" fill-opacity=".4" transform="matrix(-6.77658 .5581 -3.45857 -41.9948 217.6 14.5)"/><circle cx="124" cy="15" r="11" fill="#efffff" fill-opacity=".4"/><path fill="#2d0900" fill-opacity=".5" d="M138 20l14 51 3-25z"/><path fill="#e99c58" fill-opacity=".1" d="M167 121l-8.9-66.5-40.5 119.2-6.7 11.3z"/><path fill="#fff" fill-opacity=".4" d="M26 124l6-44-48 41z"/><path fill="#000002" fill-opacity=".6" d="M84 107h8v26h-8z"/><path fill="#5b564c" fill-opacity=".5" d="M115.4 114.2l-10.3-41.9 2.9 45.6 10.9-46.8z"/><path fill="#544f4e" fill-opacity=".7" d="M123.7 125l-15.3 1.3 24.3 58.7 39.8-9.7z"/><path fill="#3f342d" fill-opacity=".8" d="M145.6 125.7l-15.1-2.7-50.7 42.2 25.7-42.9z"/><path fill="#fff" fill-opacity=".6" d="M93 97h14v26H93z"/><path fill="#1f0000" fill-opacity=".5" d="M88 185l31-16-3-15z"/><ellipse cx="125" cy="118" fill="#f0e8cd" fill-opacity=".4" rx="24" ry="5"/><ellipse cx="59" cy="72" fill="#030002" fill-opacity=".5" rx="4" ry="27"/><path fill="#ada8aa" fill-opacity=".4" d="M131.8 89.4l-5-42.3 24.9 63.4-.7-27.4z"/><path fill="#581f00" fill-opacity=".3" d="M174.7 121.3l23.5-3.2-53.5-22.9 3.5 46.6z"/><path fill="#fcffff" fill-opacity=".5" d="M34 46h17v27H34z"/><ellipse cx="110" fill="#36322d" fill-opacity=".2" rx="5" ry="141"/><path fill="#d6e3e9" fill-opacity=".6" d="M101.2 86.1l2.1-11.5-27.1-10.7-7.6 8.5z"/><path fill="#fff" fill-opacity=".5" d="M40 112h3v13h-3z"/><path fill="#7b4c3f" fill-opacity=".5" d="M70 51v21l-9-7z"/><ellipse cx="227" cy="97" fill="#cdb3af" fill-opacity=".2" rx="3" ry="85"/><path fill="#fdfefe" fill-opacity=".4" d="M33 5h69v38H33z"/></g></svg>