<svg xmlns="http://www.w3.org/2000/svg" viewBox="0 0 300 199"><defs/><path fill="#273a54" d="M0 0h300v199H0z"/><g transform="translate(.6 .6) scale(1.17188)"><ellipse cx="48" cy="29" fill="#c5e6f1" fill-opacity=".7" rx="93" ry="38"/><circle r="1" fill="#53c5e5" fill-opacity=".5" transform="matrix(-.73893 -24.42595 106.94829 -3.23536 236.3 48.1)"/><ellipse cx="15" cy="152" fill="#aa847b" fill-opacity=".7" rx="75" ry="27"/><circle r="1" fill="#25333b" fill-opacity=".5" transform="matrix(6.2026 25.85388 -47.48755 11.39274 82.6 73.2)"/><circle r="1" fill="#6c2e18" fill-opacity=".6" transform="matrix(-22.08682 14.1319 -24.3428 -38.04547 145.8 8)"/><circle cx="249" r="24" fill="#bab3b4" fill-opacity=".6"/><ellipse cx="51" cy="11" fill="#c7f0ff" fill-opacity=".5" rx="42" ry="39"/><circle cx="135" cy="131" r="75" fill="#2b2627" fill-opacity=".5"/><circle r="1" fill="#ffebe4" fill-opacity=".7" transform="matrix(-19.93742 -2.7749 1.27235 -9.14176 131.3 44.7)"/><circle r="1" fill="#7e8590" fill-opacity=".5" transform="rotate(137.6 -7.6 43.6) scale(15.14808 60.13001)"/><path fill="#00bbf7" fill-opacity=".5" d="M235.3 22.5l-67.2 11.7 39.5 24.6L271 31.7z"/><path fill="#101215" fill-opacity=".5" d="M180 125l91 33-47-105z"/><circle r="1" fill="#5a4545" fill-opacity=".5" transform="matrix(93.76153 54.11814 -9.4903 16.44226 49 126.8)"/><path fill="#000002" fill-opacity=".6" d="M-5 31L-16 4l28-7z"/><path fill="#ffa9ff" fill-opacity=".5" d="M109 93h15v8h-15z"/><circle r="1" fill="#b09291" fill-opacity=".6" transform="rotate(11.5 -784.7 185) scale(62.04781 17.75595)"/><path fill="#5d98be" fill-opacity=".6" d="M0 58h73v12H0z"/><path fill="#709db7" fill-opacity=".5" d="M268.7 125.3l-40.2-66.9 12.8-7.7 40.2 66.9z"/><path fill="#827774" fill-opacity=".5" d="M94 57l18-59 39 8z"/><circle r="1" fill="#1d1310" fill-opacity=".6" transform="rotate(-65.5 146.3 -19.7) scale(12.9281 69.10204)"/><path fill="#d5e3ef" fill-opacity=".3" d="M205 14l-36 3 12-27z"/><circle r="1" fill="#2a0808" fill-opacity=".5" transform="rotate(97.3 72.5 79.3) scale(50.88392 7.64449)"/><path fill="#186995" fill-opacity=".5" d="M170 38h28v53h-28z"/><path fill="#904539" fill-opacity=".3" d="M258.6 50.5l-22-2.9-51 20.6 47.8 13.1z"/><circle r="1" fill="#7f7d8f" fill-opacity=".5" transform="rotate(116.1 -8.5 94.5) scale(6.37068 26.12075)"/><circle r="1" fill="#00172c" fill-opacity=".5" transform="matrix(-66.56079 24.18776 -5.7882 -15.92816 173.8 120.6)"/><circle r="1" fill="#0f1112" fill-opacity=".7" transform="matrix(23.4506 2.69717 -1.56342 13.5932 244.1 169)"/><path fill="#6fbee3" fill-opacity=".7" d="M39.5 59.6l-3.2-29.3-15.7 4.5L4 74.7z"/><path fill="#45231a" fill-opacity=".7" d="M233 22.1h-26.3L191.2-16l40.6 27.2z"/><path fill="#232123" fill-opacity=".7" d="M46.7 136.9l-48.9-21.3L63.5 153l30.6 9.3z"/><path fill="#fff9e7" fill-opacity=".5" d="M143 8h6v11h-6z"/><path fill="#2e1b13" fill-opacity=".5" d="M36.2 59.5l-8.4 3.9 97.8 114-9.5-41.4z"/><path fill="#bbeffb" fill-opacity=".3" d="M51 0h68v29H51z"/><ellipse cx="167" cy="163" fill="#5f4c52" fill-opacity=".6" rx="37" ry="9"/><ellipse cx="45" cy="114" fill="#d8d2ff" fill-opacity=".2" rx="23" ry="8"/><path fill="#0064aa" fill-opacity=".6" d="M138.6 119.1l41.5-11 1.3 4.8-41.5 11z"/><path fill="#ffdcd5" fill-opacity=".3" d="M146.4 59.6l14.3-14.4-36.8-22.4-5.8 24.3z"/><path fill="#e2f3ff" fill-opacity=".3" d="M26.7 30.1l21 40.7L66 81.6l2.1-.6z"/><path fill="#174164" fill-opacity=".3" d="M86 37h26v82H86z"/><path fill="#345268" d="M123.9 87.1l24.6 9.3-.1-20.6L180.7 92z"/><path fill="#783329" fill-opacity=".5" d="M189.7 20.1L160-11.7l31-3.8-53.4 99.8z"/><circle r="1" fill="#3edff0" fill-opacity=".5" transform="rotate(-15.1 358.4 -92.1) scale(10.16504 2.94893)"/><ellipse cx="218" cy="61" fill-opacity=".6" rx="9" ry="4"/><path fill="#00508a" fill-opacity=".4" d="M98.7 68.5L48.8 44.1l2 19.2 9.3-.7z"/><path fill="#fa87fa" fill-opacity=".4" d="M105.6 91.6l14.4 12.2 11.6-2.2-16.2-9.3z"/><path fill="#0ff" fill-opacity=".6" d="M183 90.4l17.7-3.8.2 1-17.6 3.8z"/><path fill="#0b90ce" fill-opacity=".4" d="M248.1 85.7l-37.7-18.2 30.3 2.6L271 54z"/><path fill="#230d0d" fill-opacity=".5" d="M134.8.1l19.9 40 33.2-15.9-55.9-1.1z"/><path fill="#00bbf0" fill-opacity=".4" d="M271 22l-93 50 34-38z"/><path fill="#6b98ba" fill-opacity=".5" d="M239.7 29.7l-49 2.6-.4-8 49-2.6z"/><path fill="#13090d" fill-opacity=".5" d="M182.2-16L129.3 5.7l18.1-.4 12.8 31.5z"/><path fill="#2b150d" fill-opacity=".3" d="M117.6 51.5l29.8 51.3 3.7-91.7-5.3 46.6z"/><circle r="1" fill="#554f4e" fill-opacity=".6" transform="rotate(-162.8 63 -1.4) scale(2.78569 21.55843)"/><circle r="1" fill="#f6fcff" fill-opacity=".5" transform="matrix(4.8459 -.8839 2.64777 14.51605 42.6 49)"/><path fill="#0c141e" fill-opacity=".6" d="M151 93h79v13h-79z"/><path fill="#221c1d" fill-opacity=".8" d="M84.9 136.3L7.7 118.7l129.8 18.2-1.5 14.8z"/><path fill="#005284" fill-opacity=".6" d="M269.8 33.9l-44.5 12.6 26.8 5.1 4 36.4z"/><path fill="#9b959a" fill-opacity=".6" d="M265 55l-35-5 1 18z"/><path fill="#9b7974" fill-opacity=".7" d="M-7 116l64 34h-73z"/><path fill="#02acf5" fill-opacity=".4" d="M200 14L184 4l4-17z"/><path fill="#29252c" fill-opacity=".4" d="M161.1 95.1l51.4-19.7-27.5-9.7 19.5-5.5z"/><path fill="#532f35" fill-opacity=".5" d="M148 74l33-31-17 29z"/><path fill="#a4a3ab" fill-opacity=".5" d="M271 9l-49-2 11-23z"/><path fill="#272329" fill-opacity=".7" d="M112.1 51.8l68.2 23.9-87.9 5.7 38 19.1z"/><circle r="1" fill="#99a6b6" fill-opacity=".7" transform="matrix(-16.59965 -8.68132 6.15508 -11.7692 103.8 0)"/></g></svg>