<svg xmlns="http://www.w3.org/2000/svg" viewBox="0 0 300 199"><defs/><path fill="#7d5b3e" d="M0 0h300v199H0z"/><g transform="translate(.6 .6) scale(1.17188)"><circle r="1" fill="#e7eeee" fill-opacity=".7" transform="matrix(240.13326 5.86873 -2.40358 98.3484 117 89)"/><path fill-opacity=".7" d="M122 72l-19 65 82 15z"/><path fill="#4f5141" fill-opacity=".6" d="M38.9 157.2l-13.8-48.9 41.4 4.3 6.6 26.3z"/><circle r="1" fill="#f8ffff" fill-opacity=".6" transform="matrix(-2.18603 112.96275 -30.23866 -.58517 9.5 54.3)"/><circle r="1" fill="#764d05" fill-opacity=".7" transform="matrix(-1.80127 -13.682 22.78069 -2.99913 103.5 49.6)"/><circle r="1" fill="#ebeef8" fill-opacity=".5" transform="matrix(-35.07683 -28.06623 51.77147 -64.70336 240.5 118.4)"/><ellipse cx="160" cy="80" fill="#a18175" fill-opacity=".8" rx="12" ry="53"/><path fill="#000001" fill-opacity=".7" d="M-3.9 83.5l-4-20.7L4 60.5l4 20.7z"/><circle r="1" fill="#fffff4" fill-opacity=".4" transform="rotate(-84.1 115.6 14.5) scale(71.61651 17.78958)"/><ellipse cx="222" cy="105" fill="#2e1703" fill-opacity=".5" rx="8" ry="12"/><path fill-opacity=".5" d="M106 145l28-77 16 67z"/><ellipse cx="84" cy="169" fill="#dfe0e3" fill-opacity=".9" rx="121" ry="19"/><circle r="1" fill="#ebedeb" fill-opacity=".5" transform="matrix(2.51196 24.8359 -95.3579 9.64472 84.6 10.4)"/><path fill="#f2e0b9" fill-opacity=".7" d="M129.3 62.7L96 61l-62.6 65.5 90.1-40.2z"/><path fill="#c9a650" fill-opacity=".4" d="M175 11h52v68h-52z"/><path fill="#23141f" fill-opacity=".5" d="M104.4 109.7l8.3-18.9 54.5 53-54.7 5z"/><circle r="1" fill="#f1f2ef" fill-opacity=".6" transform="matrix(-15.20208 51.98705 -22.78463 -6.6627 250.3 56)"/><circle cx="161" cy="40" r="9" fill="#160f0e" fill-opacity=".6"/><circle r="1" fill="#000200" fill-opacity=".5" transform="matrix(-2.03842 6.29851 -12.82994 -4.15221 44 138.1)"/><ellipse cx="193" cy="19" fill="#fefcef" fill-opacity=".5" rx="9" ry="46"/><path fill="#eff3fa" fill-opacity=".6" d="M82 107L7 97 1 18z"/><path fill="#fff7f7" fill-opacity=".4" d="M141.9 28.5l17-.9 3.2 62-17 .8z"/><path fill="#c3b7ae" fill-opacity=".8" d="M171 124l-4 9.3-22-9.4 4-9.2z"/><path fill="#865f2c" fill-opacity=".6" d="M87.2 64.4L122 30.9l17.2 50.9 3.9-31.2z"/><path fill="#0d0213" fill-opacity=".5" d="M162 135h17v21h-17z"/><path fill="#a79694" fill-opacity=".7" d="M114 149l13-11 31 9z"/><ellipse cx="179" cy="39" fill="#564c30" fill-opacity=".5" rx="4" ry="28"/><path fill="#3f5738" fill-opacity=".5" d="M47.1 109.1l-22.7 19.7-.4-17.5 27-4.7z"/><path fill="#fbfeff" fill-opacity=".6" d="M43 154l-59 10V87z"/><path fill="#c59f45" fill-opacity=".3" d="M43.9 70.2L56 83.3l28.3 2.4L100.1 25z"/><path fill="#190e11" fill-opacity=".6" d="M105 116.3l57.8-14.5-12.7 15L116.8 93z"/><path fill="#f3f5f8" fill-opacity=".5" d="M183 122l22-34-27-10z"/><circle cx="243" r="10" fill="#002f40" fill-opacity=".6"/><path fill="#fff" fill-opacity=".6" d="M139.9 72l7.2 31.3-3 .6-7.2-31.2z"/><path fill="#f2f0f4" fill-opacity=".5" d="M58 88h3v77h-3z"/><path fill-opacity=".5" d="M134 107h13v37h-13z"/><ellipse cy="71" fill-opacity=".5" rx="4" ry="15"/><circle r="1" fill="#e6e8ea" fill-opacity=".8" transform="rotate(-86.4 39.3 10.8) scale(62.43207 20.67914)"/><path fill="#907958" fill-opacity=".5" d="M205.2 71.9l-2 14L167.5 57 150 41.7z"/><ellipse cx="161" cy="39" fill="#020200" fill-opacity=".5" rx="9" ry="5"/><path fill="#485340" fill-opacity=".5" d="M44.4 110.6l-10-15 3.2-2.2 10 15z"/><circle cx="150" cy="158" r="14" fill="#e3e4e9" fill-opacity=".5"/><ellipse cx="221" cy="23" fill="#d6b66a" fill-opacity=".3" rx="16" ry="64"/><ellipse cx="248" cy="91" fill="#ecedf3" fill-opacity=".7" rx="10" ry="63"/><path fill="#6e4b27" fill-opacity=".4" d="M87.2 32.3l1.9 25.9 51-10 4.2 20.2z"/><path fill="#21301e" fill-opacity=".5" d="M22 135h44v4H22z"/><path fill="#524551" fill-opacity=".7" d="M108.4 100.6l14.1 48.1-18.8-2.5 5.6-33.6z"/><ellipse cx="106" cy="71" fill="#ffefa4" fill-opacity=".4" rx="30" ry="13"/><ellipse cx="231" cy="137" fill="#92939d" fill-opacity=".3" rx="9" ry="27"/><path fill="#c7a28d" d="M53.6 102.7l4.1 6.4-13.3 22.3-4-14.1z"/><path fill="#a27867" fill-opacity=".6" d="M162 126l15-50-30 9z"/><path fill="#130d0e" fill-opacity=".6" d="M131.3 80.2l-20.8 20.3 27.6 47.5L126 71.8z"/><path fill="#dacfb1" fill-opacity=".6" d="M45 7h31v54H45z"/><path fill="#bab4b1" fill-opacity=".9" d="M146.8 121.4l-5.4-14.4 2 6.2 71.1 44.8z"/><path fill="#e5e6eb" fill-opacity=".7" d="M82 99h23v49H82z"/><path fill="#f3ebe8" fill-opacity=".5" d="M143 68l17 22 3-17z"/><path fill="#8a8391" fill-opacity=".6" d="M135.7 100.6L131.4 76l3-.6 4.2 24.6z"/><circle r="1" fill="#cfcfd0" transform="rotate(-60.2 81.3 -121.5) scale(29.56133 24.52894)"/><path fill="#fff" fill-opacity=".5" d="M213 118h10v52h-10z"/><path fill="#313221" fill-opacity=".5" d="M50 118h7v30h-7z"/><path fill="#daa28b" fill-opacity=".5" d="M156 41h7v31h-7z"/><path fill="#dde0e0" fill-opacity=".5" d="M253 6l-29 11 47 86z"/><path fill="#f6f1e0" fill-opacity=".6" d="M93.3 27.7l-22 1.5-2.6-36.9 22-1.5z"/><path fill="#dbdbdd" fill-opacity=".6" d="M17 184l43-41 119 12z"/><path fill="#ebebec" fill-opacity=".5" d="M35.9 144.3L6.1 121.1 3.3 78.8l9 13.4z"/></g></svg>