<svg xmlns="http://www.w3.org/2000/svg" viewBox="0 0 300 199"><defs/><path fill="#49282a" d="M0 0h300v199H0z"/><g transform="translate(.6 .6) scale(1.17188)"><circle r="1" fill="#e4f3ff" fill-opacity=".6" transform="rotate(177.2 77.4 26.8) scale(143.8571 75.99321)"/><circle r="1" fill="#1a0d09" fill-opacity=".7" transform="matrix(43.67936 28.69198 -6.3824 9.71628 28.7 35)"/><circle r="1" fill-opacity=".6" transform="matrix(-9.74174 -34.65736 12.05692 -3.38905 209.8 14.2)"/><circle r="1" fill="#dbe0ea" fill-opacity=".8" transform="matrix(-33.91357 43.7764 -83.279 -64.51622 112.4 8.7)"/><ellipse cx="177" cy="117" fill="#73606e" fill-opacity=".7" rx="128" ry="19"/><path fill="#d1d4d9" fill-opacity=".7" d="M10.2 97.1l20.5-8.6 2.9-31.4-27.8-8.5z"/><path fill="#202634" d="M256.8 72.9l-.6 24.6L264.4-16l-19.1 44.1z"/><circle r="1" fill="#97abc1" fill-opacity=".5" transform="matrix(15.66765 -4.02277 10.97755 42.75474 140.2 169.3)"/><circle r="1" fill="#070f16" fill-opacity=".6" transform="matrix(-13.47298 -3.035 20.23496 -89.82691 24.3 157.9)"/><ellipse cx="21" cy="28" fill="#241916" fill-opacity=".9" rx="22" ry="23"/><circle r="1" fill="#330609" fill-opacity=".5" transform="matrix(10.64449 3.30106 -9.27069 29.89391 109.3 123.7)"/><path fill="#dfe4ea" fill-opacity=".7" d="M43.9 22.1L46 43l109.7 4.6L33.2-16z"/><ellipse cx="194" cy="156" fill="#01191f" fill-opacity=".6" rx="41" ry="21"/><path fill="#210f08" fill-opacity=".5" d="M210-9.4l-11.4 53.2 15.4 7.9L226.3 33z"/><circle cx="88" cy="81" r="29" fill="#c4c0c5" fill-opacity=".6"/><circle r="1" fill="#1b3549" fill-opacity=".6" transform="matrix(-21.84748 8.81923 -18.4829 -45.78687 63.6 148.4)"/><path fill="#c8c6ce" fill-opacity=".5" d="M242 114l10-70L37 67z"/><path fill="#cfe5ff" fill-opacity=".5" d="M218.6 16.4L230.2-16 241-2.4 254 94z"/><circle r="1" fill="#f4fdff" fill-opacity=".4" transform="matrix(.7077 9.19747 -23.50795 1.80884 25 62)"/><path fill="#00080c" fill-opacity=".6" d="M-7 169.5l36.4-45 39.7 32-36.5 45z"/><path fill="#c8c8cd" fill-opacity=".5" d="M205 23l-29 84-53-4z"/><path fill="#404867" fill-opacity=".6" d="M81 97l-40 38 64-3z"/><circle r="1" fill="#5e4356" fill-opacity=".5" transform="matrix(29.06784 9.26754 -1.0407 3.26417 87 60)"/><path fill="#63525a" fill-opacity=".8" d="M244 92h12v57h-12z"/><path fill="#73616f" d="M202.5 142.2l9.3.1-19.4-48.1-11.5 1.3z"/><path fill="#645a5c" fill-opacity=".7" d="M2.7 82.8l35.5-6.6-32.8-5.9 19.3 50.4z"/><path fill="#dbdee1" fill-opacity=".5" d="M43.3 98.8l61 2.1-30.8-40-13 5.7z"/><path fill="#4a3942" fill-opacity=".6" d="M35.3 89.2l-3.2-16.7 18.6-3.7 3.2 16.7z"/><path fill="#cecbde" fill-opacity=".4" d="M29 62l12 38L7 89z"/><path fill="#46728a" fill-opacity=".5" d="M15 113.4l-2 38-16-.8 2-38z"/><path fill="#e2e9fc" fill-opacity=".4" d="M153.3 123.2l9-.4.4 14-9 .4z"/><circle r="1" fill="#312f2e" fill-opacity=".8" transform="matrix(-17.97992 -18.55383 15.56598 -15.08448 228.2 151.6)"/><circle r="1" fill="#534a51" fill-opacity=".4" transform="matrix(.21132 .97742 -72.36589 15.64606 148.6 48.9)"/><path fill="#322422" fill-opacity=".6" d="M70.7 65L-8.6 36.6l77.8 17.5-17.9 15z"/><ellipse cx="183" cy="119" fill="#865d6d" fill-opacity=".5" rx="104" ry="8"/><path fill="#310002" fill-opacity=".6" d="M90.4 180.3l4.4-35.7 24.8 3-4.4 35.8z"/><ellipse cx="18" cy="107" fill="#2d211a" fill-opacity=".7" rx="40" ry="10"/><path fill="#bebfd4" fill-opacity=".4" d="M77.5 110.2l-20-30 12.9-23.7L55.3 118z"/><path fill="#c2d3ee" fill-opacity=".7" d="M224.8 32.8l-1.7-48.7 32.1 19.7-11.8 24z"/><path fill="#d6e3f5" fill-opacity=".6" d="M204.3 33.7l-10 4.8-16.6-34.2 10-4.8z"/><path fill="#27231d" fill-opacity=".4" d="M221-7l1 52-33-46z"/><path fill="#211815" fill-opacity=".6" d="M-6.3 32L-18-2l46.3-16L40 16z"/><path fill="#99b7d9" fill-opacity=".4" d="M47 138l9-11-10-3z"/><path fill="#27141f" fill-opacity=".4" d="M209 33h42v3h-42z"/><path fill="#4e3334" fill-opacity=".4" d="M143.5 130.4l-31.8 8.2L92 114.8l21.1-11.5z"/><path fill="#8c7482" d="M147.5 120.2l40.3 10-24.1-23.9-4.6-13.2z"/><path fill="#00040a" fill-opacity=".6" d="M176 163.2l-18.8 2.4-3.3-26.8 18.9-2.4z"/><path fill="#fffffc" fill-opacity=".3" d="M37 80L6 96l1-12z"/><path fill="#c1bfc5" fill-opacity=".6" d="M194 69l-53 42-36-54z"/><path fill="#e8f2f6" fill-opacity=".5" d="M46 57l27 22-40-16z"/><path fill="#3a2e38" fill-opacity=".5" d="M21.2 130.9L3.8 64.2l16.8 45.5 63.8 13.9z"/><path fill="#4b5b61" fill-opacity=".5" d="M175 130h7v40h-7z"/><path fill="#cffaff" fill-opacity=".2" d="M-16 51.2L1.5 72.5l11.1-17 26.8-3.4z"/><path fill="#000006" fill-opacity=".5" d="M196 128l15 51-29-29z"/><path fill="#c4ccd9" fill-opacity=".6" d="M251.6 86.4l-37-1.9 1.8-33 37 2z"/><path fill="#dcdad8" fill-opacity=".5" d="M84 109l36-39-20 39z"/><path fill="#424e50" fill-opacity=".6" d="M261 115.1l17.9 25.4-32 22.4-17.8-25.4z"/><path fill="#e1dde1" fill-opacity=".5" d="M182.8 94.3l1.4 12.1-56.5-23.2-36-19.6z"/><path fill="#57475a" fill-opacity=".7" d="M35.2 68.9L54.6 74 9.8 99.5l33.8 1.1z"/><path fill="#71595c" fill-opacity=".7" d="M44.5 46l51.8 20.7L37 31.8 42.3 16z"/><path fill="#434146" fill-opacity=".8" d="M6.3 63.2l2.3-1.9L-16 19.8 9 31z"/><circle r="1" fill="#88757b" fill-opacity=".4" transform="matrix(.34802 -1.22181 139.99356 39.87594 38 79.7)"/><path fill="#b3a3ae" fill-opacity=".5" d="M230 83h16v31h-16z"/><ellipse cx="211" cy="70" fill="#240009" fill-opacity=".2" rx="2" ry="31"/><path fill="#eff0e9" fill-opacity=".5" d="M44 88l23 1-17 10z"/></g></svg>