<svg xmlns="http://www.w3.org/2000/svg" viewBox="0 0 300 199"><defs/><path fill="#2f3865" d="M0 0h300v199H0z"/><g transform="translate(.6 .6) scale(1.17188)"><circle cx="103" cy="130" r="188" fill="#efbb94" fill-opacity=".6"/><circle r="1" fill="#edf8f9" fill-opacity=".6" transform="matrix(20.02414 79.13462 -67.94346 17.19234 39.4 85.2)"/><circle cx="185" cy="49" r="74" fill="#6b4333" fill-opacity=".7"/><circle cx="129" cy="169" r="50" fill="#610007" fill-opacity=".6"/><path fill="#fff" fill-opacity=".8" d="M275.3 166l-52.5 7.4-8-57.4 52.4-7.4z"/><path fill="#5f4336" fill-opacity=".8" d="M12.4 51L120-16H41.6L30.1 10.5z"/><circle r="1" fill="#edb69d" fill-opacity=".6" transform="matrix(12.61186 38.10809 -25.28116 8.3668 210.2 8.8)"/><ellipse cx="255" cy="68" fill="#041b00" fill-opacity=".6" rx="32" ry="42"/><path fill="#553d2b" fill-opacity=".6" d="M33 107.3L-9.3 136-25 112.7 17.3 84z"/><circle r="1" fill="#f9fafa" fill-opacity=".7" transform="matrix(-7.0463 -23.48655 53.35998 -16.00876 42.8 58)"/><circle r="1" fill="#38030a" fill-opacity=".8" transform="rotate(152.5 62.8 75.4) scale(44.40712 11.6867)"/><path fill="#a40d20" fill-opacity=".6" d="M206.5 115l24 35.7-39 26.3-24-35.7z"/><circle r="1" fill="#eefbff" fill-opacity=".6" transform="matrix(-5.31752 -6.69158 18.64687 -14.81789 172 127.5)"/><path fill="#170b00" fill-opacity=".8" d="M79.1 9.2L95.8 28 117-16 83.7-1.8z"/><ellipse cx="51" cy="167" fill="#f8fbfb" fill-opacity=".9" rx="30" ry="14"/><path fill-opacity=".6" d="M-16 178l42 3-15-43z"/><circle r="1" fill="#f3f3f2" fill-opacity=".9" transform="matrix(-23.0163 49.9093 -14.28417 -6.58732 10.3 14.9)"/><circle r="1" fill="#d779a1" fill-opacity=".5" transform="rotate(15.6 -154.9 747.7) scale(23.05475 14.33715)"/><circle r="1" fill="#eff4f7" fill-opacity=".5" transform="matrix(-20.37296 -35.57319 23.8794 -13.67586 60.4 108.4)"/><path fill="#7c292f" fill-opacity=".7" d="M85 176.4l28.1-2.7 62.2-60.5-104.4 34z"/><circle r="1" fill="#5a1200" fill-opacity=".4" transform="matrix(-22.69956 17.90743 -11.12138 -14.09753 164.6 38)"/><path fill="#f5f5f4" fill-opacity=".9" d="M212.6 161.5l43.8-22.1 12.5 41.5-85.6 4.1z"/><path fill="#fcffff" fill-opacity=".6" d="M99.4 45.7L73.3 58.4 56.6 24.3l26.1-12.7z"/><path fill="#433b2d" fill-opacity=".5" d="M63 156l-12-17-20 6z"/><path fill="#39090d" fill-opacity=".7" d="M189.3 168.4l-35.7-4.7-27.8-46 2.2-3.3z"/><circle cx="97" cy="104" r="25" fill="#b4b6bf" fill-opacity=".6"/><path fill="#2e0e03" fill-opacity=".5" d="M61.3-16L34.7 3.3 17.5 41.4l35.3-18.9z"/><path fill="#f9ffff" fill-opacity=".4" d="M259.8 120.6l11.2 46.7-67.2-46.2 2.7-11.9z"/><path fill="#1e1900" fill-opacity=".8" d="M128.2-1.3l16-13.5 13.6 16-16 13.6z"/><path fill="#32080c" fill-opacity=".8" d="M169.1 97.6l32.8 19.7-2.6-10.9-23.4-26.2z"/><path fill="#d5bf8b" fill-opacity=".6" d="M105 25h39v12h-39z"/><path fill="#ecebeb" fill-opacity=".8" d="M34.7 110.2L-2.9 56.3l60.2-34.2L68.6-16z"/><path fill="#fcfaf9" fill-opacity=".7" d="M237.3 1.4L228.8 15l-10.1-6.4L227.2-5z"/><path fill="#9e8873" fill-opacity=".4" d="M52 140l-46 7-8-95z"/><circle r="1" fill="#909d7c" fill-opacity=".5" transform="matrix(-3.46589 -1.04062 9.51626 -31.69493 251.2 80.8)"/><path fill="#909693" fill-opacity=".5" d="M135.3 111.3l-12.5-21.6 26-15 12.4 21.6z"/><path fill="#0e0800" fill-opacity=".5" d="M216.5 75.8l23-43.3 22 11.7-23 43.3z"/><path fill="#000505" fill-opacity=".3" d="M34.9 96.2L3.2 114.4l7.8 29L-8.3 113z"/><path fill="#f4f4f4" fill-opacity=".7" d="M49.7 131.8l40.1-17.2 12.4 15.8-40.9 25.3z"/><path fill="#fff" fill-opacity=".5" d="M178 129l-14 16-6-17z"/><circle cx="131" cy="60" r="25" fill="#303e29" fill-opacity=".3"/><path fill="#864011" fill-opacity=".5" d="M266-16l-62 47 67-20z"/><circle r="1" fill="#616246" fill-opacity=".7" transform="matrix(-6.49943 6.73035 -13.43425 -12.9733 232.4 97)"/><path fill="#ac5855" fill-opacity=".5" d="M169.8 39.7l32.4 34 27.7-16.2 2.5-20.3z"/><path fill="#f9d5b6" fill-opacity=".2" d="M271 41l-49.6-57-46.2 50.8 52.2-20.1z"/><path fill="#bfa28e" fill-opacity=".5" d="M72.4 4.3L59.2-8.1l1.6 28.2-20 7.2z"/><ellipse cx="185" cy="118" fill="#dcd9de" fill-opacity=".8" rx="10" ry="4"/><circle r="1" fill="#f6f8f9" fill-opacity=".6" transform="rotate(-134.8 55.1 76.2) scale(22.34046 15.40583)"/><path fill="#665635" fill-opacity=".4" d="M94.7 40.5l-11-33.2 14.5 16.6 8.9 37.2z"/><circle r="1" fill="#a34f39" fill-opacity=".6" transform="matrix(-.2528 5.9969 -17.42734 -.73467 178.3 7.9)"/><circle r="1" fill="#913039" fill-opacity=".6" transform="matrix(2.91453 -13.76538 20.7619 4.39589 96.5 153.8)"/><path fill="#6a5850" fill-opacity=".6" d="M130.1 123.8l-22.4-61.5 71.9 14.5-51.8 13.7z"/><path fill="#2d1f00" fill-opacity=".4" d="M256 47l-8-26-21 14z"/><path fill="#fcffff" fill-opacity=".6" d="M160.3 127.6l2.6 3-9.2 7.8-2.6-3z"/><path fill="#b1afb5" fill-opacity=".5" d="M125 109l-17-41-53 47z"/><path fill="#2a0205" fill-opacity=".4" d="M177.7 84.6l13 13.2-26.5 28.3-34.8-2.3z"/><circle r="1" fill="#7f6966" fill-opacity=".5" transform="matrix(-3.38088 19.98896 -16.3802 -2.7705 217.3 96.7)"/><ellipse cx="91" cy="68" fill="#c8c9cb" fill-opacity=".8" rx="12" ry="19"/><path fill="#f0f3da" fill-opacity=".4" d="M102-16l26 16-3 10z"/><path fill="#772905" fill-opacity=".3" d="M200.3 29.8l-4.1 4.2L165 66.7 136.5-16z"/><path fill="#42191a" fill-opacity=".6" d="M131.7 111.9l25.5 38.2 4.8-11.4-51.3-11.7z"/><path fill="#f3c2b5" fill-opacity=".6" d="M217 31l2 22 6-18z"/><circle r="1" fill="#c6bb88" fill-opacity=".6" transform="matrix(1.18266 9.93714 -4.05288 .48235 131.7 29)"/><path fill="#ffa394" fill-opacity=".3" d="M271 10l-21 9 16 72z"/><path fill="#8a2f34" fill-opacity=".8" d="M116.9 125.7L80.6 185h84l-31.9-56.5z"/></g></svg>