<svg xmlns="http://www.w3.org/2000/svg" viewBox="0 0 300 199"><defs/><path fill="#80603c" d="M0 0h300v199H0z"/><g transform="translate(.6 .6) scale(1.17188)"><circle r="1" fill="#cacbc4" fill-opacity=".7" transform="matrix(-196.59717 -162.40244 61.68613 -74.67448 161.4 44)"/><circle cx="68" cy="92" r="62" fill="#6c5a3e" fill-opacity=".6"/><path fill="#7e6448" d="M164.4 22.9l-92 25.9 132.7 10.8-9.9-21.5z"/><ellipse cx="226" cy="2" fill="#e6f3fb" fill-opacity=".5" rx="43" ry="53"/><ellipse cx="229" cy="129" fill="#593306" fill-opacity=".6" rx="22" ry="18"/><path fill="#d5dbd8" fill-opacity=".6" d="M20-16l191 37-227 17z"/><circle r="1" fill="#ebddd6" fill-opacity=".5" transform="matrix(-18.7481 -2.97178 13.34533 -84.19184 141 130)"/><circle r="1" fill="#eefcff" fill-opacity=".6" transform="matrix(1.5061 -14.52336 66.20567 6.86564 244.3 163.3)"/><circle r="1" fill="#c0d6d7" fill-opacity=".5" transform="matrix(-5.02222 -95.82964 9.29543 -.48715 0 102)"/><ellipse cx="185" cy="107" fill="#e1d8cf" fill-opacity=".8" rx="13" ry="49"/><path fill="#0f0500" fill-opacity=".6" d="M126.7 62.2l25-38.9 17.8 5.9 1.1 4.5z"/><circle r="1" fill="#694413" fill-opacity=".5" transform="matrix(-4.12916 -35.6873 5.89161 -.68168 201.7 86.3)"/><circle r="1" fill="#b79b82" fill-opacity=".8" transform="matrix(-27.11337 27.8631 -17.75852 -17.28068 140.3 154.5)"/><path fill="#33210d" fill-opacity=".5" d="M0 127h122v13H0z"/><circle cx="27" cy="58" r="24" fill="#5f5b4d" fill-opacity=".8"/><path fill="#937e5b" fill-opacity=".7" d="M3 108l144-66-35 67z"/><ellipse cx="145" cy="87" fill="#e9f7ff" fill-opacity=".5" rx="17" ry="23"/><path fill="#070200" fill-opacity=".5" d="M245 117l-2-17 14-7z"/><path fill="#2a241a" fill-opacity=".7" d="M239.9 130.6l-43.4-4.1 24.9 7.4 9.1 11.5z"/><circle r="1" fill="#c0c6c5" fill-opacity=".6" transform="rotate(-152.8 131.8 1.9) scale(53.95972 26.16306)"/><circle r="1" fill="#cbccc4" fill-opacity=".7" transform="matrix(13.27502 20.13263 -24.43546 16.11222 137.5 7)"/><ellipse cx="171" cy="70" fill="#b58f75" fill-opacity=".5" rx="12" ry="39"/><path fill="#b39675" fill-opacity=".7" d="M213.1 129.3l19.3 17.2-47.8.4-69.1 6.9z"/><path fill="#453118" fill-opacity=".5" d="M105.2 149.8L30.1 122l92.6 11.1 10.7-38.3z"/><circle r="1" fill="#8f7751" fill-opacity=".8" transform="matrix(9.56597 -24.40948 25.40388 9.95567 109.7 58.9)"/><circle r="1" fill="#daf7ff" fill-opacity=".1" transform="rotate(70.2 -100 98.2) scale(67.35349 21.06853)"/><path fill="#977d5c" fill-opacity=".9" d="M237.7 127.1l-24.7-8 5.3-16.2 24.7 8z"/><path fill="#ebf8fd" fill-opacity=".4" d="M172 97h27v43h-27z"/><ellipse cx="63" cy="72" fill="#a68b5f" fill-opacity=".6" rx="17" ry="34"/><path fill="#cfb19a" d="M166.1 99.3l-46.3 38.2-11 24.4 25.7-13.8z"/><path fill="#cbcbc4" fill-opacity=".7" d="M0 0h122v34H0z"/><circle r="1" fill="#95734b" fill-opacity=".7" transform="matrix(-78.30507 -6.52398 1.36623 -16.39836 63 169)"/><circle r="1" fill="#bfbfb3" fill-opacity=".7" transform="matrix(10.31281 -12.96498 17.14044 13.63412 175.7 13.3)"/><path fill="#5f2a00" fill-opacity=".5" d="M204.9 70.7l-6.2 3.3-21.6-40.7 6.2-3.3z"/><ellipse cx="27" cy="89" fill="#505554" fill-opacity=".4" rx="20" ry="54"/><path fill="#95541d" fill-opacity=".6" d="M251 147l-19-1 12-31z"/><path fill="#644f3d" fill-opacity=".7" d="M85 83l35 54-34-19z"/><path fill="#16140b" fill-opacity=".6" d="M212 124.2l.9 5.9-10.9 1.7-.9-5.9z"/><path fill="#d9e0db" fill-opacity=".5" d="M174.2 139l33.3-28.8 7.5 16.4-48.8-24.9z"/><path fill="#87755e" fill-opacity=".5" d="M180.4 65.4l-19.9 2.7L180.1-3l-12.8 23z"/><path fill="#000c10" fill-opacity=".5" d="M198 100h6v14h-6z"/><circle cx="154" cy="34" r="9" fill="#010000" fill-opacity=".6"/><path fill="#775532" fill-opacity=".5" d="M149.8 129.2l-27 63.5-4.6-2 27-63.4z"/><path fill="#dee2e5" fill-opacity=".4" d="M164.6 45.7l-5.1 59.7-33.9 15.2L146 50z"/><path fill="#d8cbb9" fill-opacity=".5" d="M-16 155.1V146l31.9-4.6 3.8 6.6z"/><path fill="#bbbfb5" fill-opacity=".7" d="M-1.1 129l-6-.4L1 11l6 .5z"/><path fill="#3e3927" fill-opacity=".6" d="M162 148h4v18h-4z"/><path fill="#acafa9" fill-opacity=".6" d="M235.6 43.2l12.1 47.9-9.2 35.5-32.4-63.7z"/><path fill="#d2bda2" fill-opacity=".8" d="M176.3 126.7l-7.6 17.7 34.4 32.3-41.4 7.2z"/><path fill="#7a603f" fill-opacity=".6" d="M78.6 37.3l23.7-5.1-20.2 101.2-2.7-48.6z"/><circle cx="177" cy="74" r="8" fill="#dbccbd" fill-opacity=".7"/><circle r="1" fill-opacity=".5" transform="matrix(-7.67473 -.61173 .44568 -5.59148 229.3 136)"/><path fill="#acaea8" fill-opacity=".7" d="M249 102h7v35h-7z"/><path fill="#a08c67" fill-opacity=".4" d="M91 63h40v48H91z"/><path fill="#200f00" fill-opacity=".5" d="M34 129h67v6H34z"/><circle r="1" fill="#1c2122" fill-opacity=".3" transform="rotate(84.6 -39.4 52.1) scale(9.0061 12.72451)"/><path fill="#291705" fill-opacity=".5" d="M98 112l-1 25 8-20z"/><path fill="#ae8461" fill-opacity=".4" d="M192 73l-46 42 15 10z"/><path fill="#9a8e78" fill-opacity=".2" d="M29.8 55.4l51 45-66.3 23 20.6-35.7z"/><path fill="#6d4115" fill-opacity=".5" d="M200.7 40.4l-19 19.5 1.3-9.4 1.9-18.6z"/><circle r="1" fill="#cba383" fill-opacity=".5" transform="matrix(-3.11646 -13.68 3.52305 -.8026 176.6 42)"/><path fill="#736145" fill-opacity=".5" d="M46.8 73.7L4.7 36.6l37.2-2 17.8 4.8z"/><path fill="#8b9085" fill-opacity=".5" d="M213.4 115.5l20.7-33.3 1.3 25.1-41.3-9.1z"/><ellipse cx="38" cy="118" fill="#140700" fill-opacity=".3" rx="2" ry="31"/><path fill="#000f1a" fill-opacity=".2" d="M160 96l5.6-7.2 7.5 12.7-2.9 1.9z"/></g></svg>