<svg xmlns="http://www.w3.org/2000/svg" viewBox="0 0 300 199"><defs/><path fill="#4f3c2f" d="M0 0h300v199H0z"/><g transform="translate(.6 .6) scale(1.17188)"><circle r="1" fill="#ffeee8" fill-opacity=".6" transform="matrix(57.17419 -53.33575 40.98804 43.93785 163.8 133.5)"/><circle cx="59" cy="116" r="43" fill="#b68e8b" fill-opacity=".5"/><path fill="#f2fcfb" fill-opacity=".7" d="M237 0h19v44h-19z"/><ellipse cx="167" cy="20" fill="#887669" fill-opacity=".7" rx="43" ry="59"/><circle r="1" fill="#fff9f5" fill-opacity=".5" transform="matrix(-6.7847 17.30405 -61.10085 -23.9569 222.3 160.4)"/><path fill="#a69f7f" fill-opacity=".5" d="M21 0h77v32H21z"/><ellipse cx="229" cy="114" fill="#472110" fill-opacity=".7" rx="8" ry="43"/><path fill="#e6e8e0" fill-opacity=".4" d="M96.8 111.8L77.3 69.9l-34.7.8L58 109.8z"/><circle r="1" fill="#977462" transform="matrix(33.7675 -9.30112 5.86983 21.31027 114.8 169.4)"/><path fill="#ecfdff" fill-opacity=".5" d="M190 96h31v63h-31z"/><circle r="1" fill="#0a040a" fill-opacity=".7" transform="matrix(-6.45104 -6.59874 5.7214 -5.59334 155.6 124.6)"/><path fill="#ddcbbf" fill-opacity=".6" d="M103 66h10v68h-10z"/><path fill="#290e01" fill-opacity=".6" d="M155 100l25-53-24 3z"/><circle r="1" fill="#6b1a0a" fill-opacity=".5" transform="rotate(-40.4 175 -1.8) scale(14.05739 32.24557)"/><path fill="#f9c1a4" fill-opacity=".5" d="M126 41h10v44h-10z"/><path fill="#9a7763" fill-opacity=".6" d="M271 59l-83 27-7-43z"/><path fill="#faf9fa" fill-opacity=".3" d="M90.4 180.5l1.7 4.5 55.2-112.5 14.4 33.3z"/><path fill="#ad958d" fill-opacity=".9" d="M49.1 166.2l-14.8-28.1-2.5-.2 59.5 4.9z"/><path fill="#cfd0bc" fill-opacity=".5" d="M128 0h24v27h-24z"/><ellipse cx="116" cy="27" fill="#040100" fill-opacity=".5" rx="12" ry="45"/><circle r="1" fill="#340e00" fill-opacity=".6" transform="rotate(118.5 36.4 133.4) scale(5.84828 9.35541)"/><path fill="#c9b39d" fill-opacity=".9" d="M255.6 143.6l5.6 1.9 9.8 21.3-48.2-6z"/><path fill="#110003" fill-opacity=".3" d="M109.9 177.3l9.3-8.4-28.9-21.4 5.8-70.3z"/><circle r="1" fill="#e6eefa" fill-opacity=".5" transform="matrix(-8.3056 -4.32362 12.21544 -23.46564 169.7 96)"/><path fill="#aebaad" fill-opacity=".4" d="M194.3-13.3l32 .6-.6 36-32-.6z"/><path fill="#a6836e" fill-opacity=".9" d="M70.4 134.1l10.7-82.7-10.2-16.9-.8 5z"/><path fill="#561500" fill-opacity=".5" d="M174 131l3-23 18 8z"/><path fill="#3a261a" fill-opacity=".6" d="M226 31l-24 48-13-57z"/><path fill="#290b00" fill-opacity=".3" d="M166 47l-24-2-28 74z"/><path fill="#020000" fill-opacity=".5" d="M103 108L79 73l8-41z"/><ellipse cx="24" cy="63" fill="#4a4837" fill-opacity=".5" rx="26" ry="93"/><path fill="#0d0500" fill-opacity=".5" d="M241 72h15v49h-15z"/><path fill="#fffde5" fill-opacity=".5" d="M220 102l-15-36 11 3z"/><path fill="#1c1c16" fill-opacity=".4" d="M266.6 20.4L245.1-10l22.4 13.1-27.2 4.6z"/><path fill="#e6f3fa" fill-opacity=".5" d="M49 83h13v19H49z"/><path fill="#e4c6bc" fill-opacity=".5" d="M162.2 185l-9.5-9.4-19.4-72 32.1 42.4z"/><path fill="#b7a588" fill-opacity=".5" d="M67.1-10.2l31-.6.8 41-31 .6z"/><path fill="#1a1d0f" fill-opacity=".4" d="M14 19L69-5l-2 21z"/><path fill="#fff" fill-opacity=".5" d="M118 180l-24-19-29 14z"/><ellipse cx="187" cy="48" fill="#ffbda6" fill-opacity=".4" rx="7" ry="17"/><path fill="#ffecd6" fill-opacity=".5" d="M37.5 108l2.8-1 6.2 19-2.8 1z"/><path fill="#1b0300" fill-opacity=".6" d="M218 129h20l-2 24z"/><path fill="#533c2f" d="M187.5 68.5l-55.4 1.6 47.4-35-.2 18.7z"/><path fill="#270100" fill-opacity=".3" d="M135.3 102.7l32.3 20-50.5 60.7 35.8-53.7z"/><path fill="#ffd5d3" fill-opacity=".6" d="M24.9 119.4l-7-.9 1.2-9.9 7 .9z"/><path fill="#d4d7dd" fill-opacity=".5" d="M14 153h5v14h-5z"/><path fill="#eefbff" fill-opacity=".5" d="M132 107.6l8.1 24.7-38.8-20.6V132z"/><circle r="1" fill="#8b7b64" fill-opacity=".6" transform="matrix(60.33665 -.73719 .09132 7.4746 30.2 26.2)"/><path fill="#dcdddf" fill-opacity=".6" d="M175.2 137.1l37.8-39-1.6-16.3 13.7 37.1z"/><path fill="#621000" fill-opacity=".5" d="M80 132l-32-17 18 27z"/><path fill="#8c6b5b" fill-opacity=".5" d="M136 78l-11-27-11 78z"/><path fill="#b0886d" fill-opacity=".6" d="M215 94.5l-32.2-5.9L213 77.4l-23.7 45.5z"/><ellipse cx="199" cy="169" fill="#d2d5d6" rx="18" ry="17"/><path fill="#243445" fill-opacity=".5" d="M55 185l38-29-29-5z"/><path fill-opacity=".6" d="M214 26h10v28h-10z"/><circle r="1" fill="#b1a09c" fill-opacity=".5" transform="matrix(-9.83834 -33.42306 5.5124 -1.62262 139.6 102.9)"/><path fill="#081e2e" fill-opacity=".6" d="M48.6 169.4l-20.5-25.1L4.5 185-16 156.4z"/><path fill="#f5fdff" fill-opacity=".5" d="M204.6 107l-5.2-19.3-14.1 12.2 1.9 2.9z"/><path fill="#dee0e3" fill-opacity=".8" d="M164 113.5l-18-37.1 9.8-2.5-15.9 23z"/><path fill="#d1d4d2" fill-opacity=".4" d="M241 27h13v34h-13z"/><path fill="#532115" fill-opacity=".5" d="M126.8 152.2l28.4 32.8-14.7-34-5.1 34z"/><path fill="#776b59" fill-opacity=".7" d="M270.6 155.7l-45.7-37.1 23.1 3.7-7 15.8z"/><path fill="#5f1f00" fill-opacity=".5" d="M228.5 185l-5.5-31.3-6.8 16.9 23.5 8.7z"/><path fill="#f9e3e6" fill-opacity=".2" d="M58.6 167.4l.8-6.8-.7-19.9-29.4-10.1z"/><path fill-opacity=".5" d="M151 119l18-1-12 16z"/></g></svg>