<svg xmlns="http://www.w3.org/2000/svg" viewBox="0 0 300 199"><defs/><path fill="#3b3b3b" d="M0 0h300v199H0z"/><g transform="translate(.6 .6) scale(1.17188)"><circle r="1" fill="#cecece" fill-opacity=".5" transform="matrix(44.73379 21.33692 -32.55995 68.26336 141 101.6)"/><circle r="1" fill="#070707" fill-opacity=".7" transform="matrix(85.63762 -7.42099 5.20482 60.06322 10.8 114.8)"/><circle r="1" fill="#fff" fill-opacity=".5" transform="rotate(106.3 -2 130.3) scale(46.92408 20.94314)"/><circle r="1" fill-opacity=".6" transform="matrix(20.22237 -.09282 .66798 145.52797 234 143.8)"/><circle r="1" fill="#d8d8d8" fill-opacity=".6" transform="rotate(-59.9 131.7 -65.8) scale(14.55964 35.31903)"/><circle r="1" fill="#fff" fill-opacity=".7" transform="matrix(.71919 -5.05326 26.837 3.81947 0 42.1)"/><circle r="1" fill="#070707" fill-opacity=".7" transform="rotate(-133.5 17.5 1) scale(44.98289 23.03851)"/><circle r="1" fill="#121212" fill-opacity=".4" transform="matrix(-54.7349 44.34445 -11.55096 -14.2575 179.7 21.2)"/><path fill="#fff" fill-opacity=".7" d="M266.4 56.7l-25.8-7.9 3-9.5 25.8 7.9z"/><path fill="#181818" fill-opacity=".5" d="M247 121l-96 13-9 31z"/><path fill="#232323" fill-opacity=".6" d="M45 140l84-13 7-28z"/><path fill-opacity=".7" d="M214 2L78 23 49-16z"/><path fill="#fff" fill-opacity=".5" d="M102 28.6l-47.7-3.2 85-3.6-4.6 5.7z"/><path fill="#aaa" fill-opacity=".6" d="M132 81h69v38h-69z"/><ellipse cx="86" cy="155" fill="#505050" fill-opacity=".6" rx="17" ry="113"/><path fill="#fff" fill-opacity=".5" d="M78 170l11-35 5 11z"/><path fill="#ededed" fill-opacity=".4" d="M126.4 81.3L97 42.2l29.7 1.3L88 75.3z"/><path fill="#bababa" fill-opacity=".9" d="M208.9 80.8l9.4-1-3.3-12.2-9.2 1z"/><path fill="#0e0e0e" fill-opacity=".5" d="M197 21l27 13-41 81z"/><path fill="#f1f1f1" fill-opacity=".4" d="M192.1 26.1l.9 27.3-8.3 26.6-4.4-50.9z"/><path fill="#fff" fill-opacity=".5" d="M105 129h20v41h-20z"/><circle r="1" fill="#e7e7e7" fill-opacity=".5" transform="rotate(131.8 114.6 51.3) scale(31.37515 2.2756)"/><path fill="#3a3a3a" fill-opacity=".5" d="M112.2 99.9l10.8.9 12.4 41.2-5.7 13.3z"/><path fill="#e8e8e8" fill-opacity=".5" d="M57.4 2.5L78 27l-5.4 4.5L52 7z"/><path fill="#0e0e0e" fill-opacity=".8" d="M271 21l-76 22 51-58z"/><ellipse cx="169" cy="26" fill="#fdfdfd" fill-opacity=".6" rx="13" ry="2"/><circle r="1" fill="#fff" fill-opacity=".4" transform="rotate(-60.3 98.5 -32.6) scale(14.18794 3.06054)"/><path fill="#2a2a2a" fill-opacity=".9" d="M83.1 153l18 31.7.5-38.4-39.7 28.5z"/><ellipse cx="139" cy="117" fill="#dbdbdb" fill-opacity=".7" rx="6" ry="37"/><path fill="#0e0e0e" fill-opacity=".5" d="M99.1 173.7l8.1-51.1L-16 142.4l98.5-56.2z"/><path fill="#767676" fill-opacity=".7" d="M120.2 104.4l14.1-81.3 32.1 34.3-12.1-12.2z"/><ellipse cx="181" fill="#030303" fill-opacity=".6" rx="39" ry="24"/><path fill="#a1a1a1" fill-opacity=".3" d="M158.9 136.2l45.4 48.8-25.3-50.3-13.2 50.3z"/><path fill="#f6f6f6" fill-opacity=".4" d="M64.8 172.9l5.7-18.1 11.2-4.5.7-.8z"/><path fill="#020202" fill-opacity=".5" d="M175 80l10-17-16 11z"/><path fill="#afafaf" fill-opacity=".5" d="M204.5 119.8l10-3.4-7.1-32.2 1.1 1.5z"/><ellipse cx="69" cy="46" fill="#bdbdbd" fill-opacity=".5" rx="6" ry="9"/><path fill="#121212" fill-opacity=".5" d="M231 185l40-84-109 34z"/><path fill="#d0d0d0" fill-opacity=".4" d="M103.2 117.3l9.9-36.7 7.7 2-9.9 36.8z"/><path fill="#a2a2a2" fill-opacity=".5" d="M116.8 32.6L144 11l9 5-29.8 7.3z"/><path fill="#0a0a0a" fill-opacity=".5" d="M143 27l-88 6 46 10z"/><circle r="1" fill="#0f0f0f" fill-opacity=".9" transform="rotate(-8.5 82.2 -75.4) scale(37.41752 26.05187)"/><path fill="#f9f9f9" fill-opacity=".5" d="M91 43h45v3H91z"/><circle cx="45" cy="169" r="5" fill="#bababa" fill-opacity=".6"/><path fill="#141414" fill-opacity=".5" d="M133.4 55.6l-63-2.2.2-5 63 2.2z"/><path fill="#dcdcdc" fill-opacity=".5" d="M169 44h27v8h-27z"/><path fill="#fafafa" fill-opacity=".4" d="M173 109h9v22h-9z"/><path fill="#131313" fill-opacity=".4" d="M89.4 164.7l-13.8-47.3-6.5-75.9-81.7 11.3z"/><path fill="#868686" d="M166.7 107.5l-5.9-27.2 35 20.5 7.4-21.2z"/><ellipse cx="182" cy="81" fill="#d2d2d2" fill-opacity=".6" rx="3" ry="22"/><ellipse cx="41" cy="46" fill="#7a7a7a" fill-opacity=".5" rx="5" ry="9"/><ellipse cx="100" cy="25" fill="#d2d2d2" fill-opacity=".4" rx="34" ry="3"/><path fill="#adadad" fill-opacity=".3" d="M-3 102.2l32.1 4.8 23.6 1.1-21-6z"/><path fill="#979797" fill-opacity=".7" d="M70.4 73.1l18.8 1.4 20.3-25.4-6.5 34.1z"/><path fill="#202020" fill-opacity=".6" d="M246.6 20.2L168.3 40l-6.4-15.3 61.5 37.5z"/><path fill="#313131" fill-opacity=".6" d="M178.2 47.9l-3.8-1.2 9.4-30.6 3.8 1.2z"/><path fill="#202020" fill-opacity=".5" d="M162 149l-17 36 2-48z"/><path fill="#ededed" fill-opacity=".2" d="M136.9 102.1l-22.8-54.9L100.6 70l4.4 29.6z"/><path fill="#a6a6a6" fill-opacity=".4" d="M192 32l3-14-27 26z"/><path fill="#828282" fill-opacity=".6" d="M258 100.6l13 14.9-23.6-50.7 23.6-5.1z"/><path fill="#282828" fill-opacity=".8" d="M183 119h27v33h-27z"/><path fill="#bbb" fill-opacity=".6" d="M142.6 150.2l2.2 34.8 4-91-21.8 34.4z"/><path fill="#fff" fill-opacity=".5" d="M81.7 162.5L73.2 176l-.9-.5 8.5-13.5z"/><path fill="#0c0c0c" fill-opacity=".4" d="M189.1 95.5l4.7 10-11 5-4.6-10z"/><ellipse cx="252" cy="150" fill="#141414" fill-opacity=".9" rx="46" ry="47"/></g></svg>