<svg xmlns="http://www.w3.org/2000/svg" viewBox="0 0 300 199"><defs/><path fill="#543529" d="M0 0h300v199H0z"/><g transform="translate(.6 .6) scale(1.17188)"><circle r="1" fill="#cbc2bc" fill-opacity=".5" transform="matrix(-56.07663 235.38506 -131.7268 -31.38175 116.8 166.6)"/><ellipse cx="28" cy="110" fill="#ecf4ff" fill-opacity=".5" rx="27" ry="43"/><path fill="#fff" fill-opacity=".5" d="M198 141l-46-32 85-48z"/><circle r="1" fill="#290e00" fill-opacity=".3" transform="matrix(-4.14382 -33.54908 164.24205 -20.28637 147.9 39.1)"/><circle r="1" fill="#d1c8c4" fill-opacity=".7" transform="matrix(33.59478 7.4067 -17.17514 77.90175 255 148.9)"/><circle r="1" fill="#3e2810" fill-opacity=".5" transform="matrix(-31.6244 -5.13158 5.6037 -34.53393 110.7 148.5)"/><circle r="1" fill="#2d0100" fill-opacity=".7" transform="matrix(5.71818 -18.82076 11.44546 3.4774 173.8 151)"/><ellipse cx="32" cy="49" fill="#f2e4e2" fill-opacity=".4" rx="9" ry="169"/><circle r="1" fill="#eae9e9" fill-opacity=".7" transform="matrix(-6.92191 1.81593 -6.54532 -24.94927 160 85.4)"/><ellipse cx="180" cy="74" fill="#603826" fill-opacity=".8" rx="14" ry="28"/><path fill="#140500" fill-opacity=".6" d="M97 84l-8-73 22-17z"/><path fill="#fff" fill-opacity=".6" d="M170.6 12.7l-.2-17 19-.4.2 17z"/><path fill="#220c04" fill-opacity=".7" d="M62 83.1L37.7 61.4l16-31.6 16.1 61.5z"/><path fill="#090000" fill-opacity=".5" d="M213.2 54.5L204-3.8l16.8-2.7 9.2 58.3z"/><path fill="#6c2002" fill-opacity=".4" d="M271 131.4l-1.3-2.8-59.9-9.6-14.8 35.7z"/><path fill="#c2c3bf" fill-opacity=".7" d="M196.5 53.5L159.1 37l17.3-9.3 19.8 18.2z"/><ellipse cx="53" cy="166" fill="#1d0200" fill-opacity=".4" rx="12" ry="33"/><path fill="#c5b3b1" fill-opacity=".7" d="M81 185L27 61l42 30z"/><path fill="#dbd8db" fill-opacity=".5" d="M219 53l-33 30 48 40z"/><path fill="#dbac99" fill-opacity=".7" d="M135 49.2l-14.9 6-13-32.4 14.8-6z"/><path fill="#e09e8c" fill-opacity=".4" d="M243.7 2.2l14.8 35-20.2 8.6-14.8-35z"/><path fill-opacity=".5" d="M5 11h17v57H5z"/><circle r="1" fill="#3b2e21" fill-opacity=".6" transform="matrix(-24.63581 36.6092 -7.71534 -5.19197 146.4 38.6)"/><ellipse cx="15" cy="138" fill="#a29faa" fill-opacity=".6" rx="32" ry="26"/><path fill="#f6d6d6" fill-opacity=".5" d="M196 185l22-35.6 1 24.9-30.6-31.5z"/><path fill="#fff" fill-opacity=".6" d="M138 18l-3-34-20 3z"/><path fill="#c1aba4" fill-opacity=".7" d="M90.2 116.4L78.5 48.7l2.4 40.7L39.7 80z"/><ellipse cx="124" cy="107" fill="#5b2e18" fill-opacity=".6" rx="5" ry="43"/><path fill="#c7ad92" fill-opacity=".6" d="M148 150l16-61-37-29z"/><path fill="#fff" fill-opacity=".5" d="M144-13l14-3-13 32z"/><ellipse cx="13" cy="98" fill="#d7dadc" fill-opacity=".5" rx="38" ry="24"/><path fill="#e0f5fe" fill-opacity=".4" d="M61.4 59.8l10.9-10 25.5-4.2-14 8.8z"/><path fill="#fae1d1" fill-opacity=".5" d="M109 82l17 27h-18z"/><path fill="#2a1910" fill-opacity=".8" d="M18.6 79.3L18-5.8l23.3 17.4-36.5-.8z"/><path fill="#e8f1f7" fill-opacity=".5" d="M165 102h42v26h-42z"/><path fill="#5b4739" d="M141.4 23.8L122.9 2.7l-17.2 2 76.5 80.2z"/><path fill="#a7b0ae" fill-opacity=".5" d="M59 0h33v26H59z"/><path fill="#ccefd2" fill-opacity=".4" d="M23.8 2L-5 16l-8.8-18L15-16z"/><path fill="#edddd2" fill-opacity=".4" d="M149.1 164l7.8-11.1 34 32.1-55.5-16.6z"/><path fill="#f1fafe" fill-opacity=".6" d="M239.8 94.3l12.9 22.3 18.3-17V84.4z"/><path fill="#490300" fill-opacity=".3" d="M182.2 156.4l18.7-37.3-78.4 63.3 33.2-41.8z"/><path fill="#350d02" fill-opacity=".3" d="M89.9 162.1l-16-61.1-30.5 17.4L58.9 91z"/><path fill="#2c0a00" fill-opacity=".6" d="M41 6.4l16.4 30.9-4.4 2.3L36.6 8.7z"/><path fill="#2c180a" fill-opacity=".5" d="M110 57L88 78l6-77z"/><ellipse cx="36" cy="37" fill="#c08e7c" fill-opacity=".7" rx="12" ry="15"/><circle r="1" fill="#dae9f4" fill-opacity=".4" transform="matrix(9.71805 -19.66298 14.5683 7.2001 228.8 166.3)"/><path fill="#eeedd1" fill-opacity=".5" d="M129.1 128.2l-2.6-5.4 14.4-7 2.6 5.4z"/><circle r="1" fill="#ecf2f7" fill-opacity=".6" transform="rotate(-60.2 158.3 54.4) scale(15.5274 3.99556)"/><path fill="#754b3e" fill-opacity=".7" d="M29.8 49.3L11.3 96.6l9.6-36.9-1.2-54.4z"/><path fill="#3c2916" fill-opacity=".5" d="M205 52l-79-9 66 35z"/><path fill="#252217" fill-opacity=".5" d="M173-16l-5 49.3L150.4.4l-5.9 44.7z"/><path fill="#8a6b5f" fill-opacity=".7" d="M103 59l-18 71 22 55z"/><path fill="#310902" fill-opacity=".5" d="M117 109l-21 30 40-27z"/><path fill="#2c1a0d" fill-opacity=".4" d="M227.8 14L271 7.8l-71.8 21.8L217.4-16z"/><path fill="#020000" fill-opacity=".5" d="M125 66l10-39 4 26z"/><path fill="#a00a00" fill-opacity=".6" d="M-1.5 169.1L43.2 185 26 171.4l-4.9-8.2z"/><path fill="#a9b1a8" fill-opacity=".6" d="M155-22.9h1l5 69.8h-1z"/><path fill="#a86c50" fill-opacity=".6" d="M241.2 43.4L271 54.9l-12.2 31.7L229 75.1z"/><path fill="#8b372b" fill-opacity=".7" d="M172.6 96L189 81.5l2.3 18.1-8.6 5.2z"/><path fill="#97958d" fill-opacity=".4" d="M207.7 53l-4.4-59-12.1 62.9L101.7 15z"/><path fill="#150111" fill-opacity=".1" d="M11.7 76.3L-16 134.9l47 22.4-23.1-47.1z"/><path fill="#200003" fill-opacity=".5" d="M83 155.6l-6.6-30.2 13.7 12.9.6-1.5z"/><path fill="#ffe5d4" fill-opacity=".5" d="M44 27L33 9l-11 7z"/><path fill="#452f22" fill-opacity=".9" d="M108.4 48.6l-47 12.6L86.8 60l5 24.7z"/><path fill="#3b0b01" fill-opacity=".7" d="M166.5 139.3l26.7-5.9-24.4 48.3 23.8 3.3z"/></g></svg>