<svg xmlns="http://www.w3.org/2000/svg" viewBox="0 0 300 199"><defs/><path fill="#2d4555" d="M0 0h300v199H0z"/><g transform="translate(.6 .6) scale(1.17188)"><circle r="1" fill="#f5ceb6" fill-opacity=".7" transform="matrix(7.94216 -45.9599 150.44612 25.99803 193.2 19.8)"/><circle r="1" fill="#9c735d" fill-opacity=".8" transform="matrix(15.41215 27.30359 -43.22221 24.3978 172.1 66)"/><circle r="1" fill="#d4eefa" fill-opacity=".7" transform="matrix(23.94088 -.4775 .59603 29.88299 4.2 6.3)"/><circle r="1" fill="#fefffc" fill-opacity=".7" transform="rotate(-61.6 116.6 -178) scale(29.39069 177.83157)"/><ellipse cx="208" cy="126" fill="#531f00" fill-opacity=".5" rx="53" ry="73"/><path fill="#fffff6" fill-opacity=".4" d="M146.3 78.4l5.9-92.1-29.4 89.2L160.4 185z"/><path fill="#a37966" d="M142.1 29.4L98.5 59 76.3 32.5 96.8-16z"/><circle cx="23" cy="117" r="83" fill="#00385e" fill-opacity=".6"/><path fill="#af7947" fill-opacity=".5" d="M217 48l41.6 31.3L231 116l-41.5-31.3z"/><ellipse cx="179" cy="41" fill="#7b5441" fill-opacity=".7" rx="30" ry="17"/><circle r="1" fill="#b95d36" fill-opacity=".5" transform="matrix(-8.41612 -37.1504 10.53553 -2.38674 149.8 140)"/><ellipse cx="194" cy="157" fill="#00132b" fill-opacity=".7" rx="31" ry="39"/><circle r="1" fill="#faf4e9" fill-opacity=".6" transform="rotate(-48.5 197.1 -250.7) scale(14.48137 55.70278)"/><ellipse cx="162" cy="16" fill="#fef9ef" fill-opacity=".8" rx="24" ry="11"/><circle r="1" fill="#31cbff" fill-opacity=".2" transform="rotate(45.6 -61 65.3) scale(46.08226 23.45832)"/><circle r="1" fill="#fffffe" fill-opacity=".7" transform="matrix(-3.57776 -13.65112 8.46419 -2.21834 137 78.3)"/><path fill="#04142b" fill-opacity=".6" d="M13 102l80 83-109-38z"/><path fill="#040001" fill-opacity=".5" d="M139.5 57.1l-15.6 15.1-21.4-.3 4.1-35.8z"/><circle r="1" fill="#00112b" fill-opacity=".6" transform="rotate(40.6 -31.6 112.6) scale(39.30732 11.84311)"/><path fill="#fff" fill-opacity=".4" d="M176.3 50l-10.6-21.6-24.6 37.3-16.4-34.6z"/><path fill="#0f0602" fill-opacity=".6" d="M176 105l-7 32-30-32z"/><path fill="#aec5d0" fill-opacity=".8" d="M45.8-16H75L33.4 1.1l30 14.3z"/><ellipse cx="189" cy="69" fill="#69432b" fill-opacity=".7" rx="13" ry="46"/><path fill="#ebeee4" fill-opacity=".5" d="M156.6 102.8l-13.9 5.6-9.3-23.2 13.9-5.6z"/><path fill="#41210d" fill-opacity=".6" d="M271 180.7l-32.4-52.5-20.8-76.6 46 70z"/><path fill="#305971" fill-opacity=".4" d="M92.5 66.5l52.8 41.3-35.8 45.7-52.8-41.3z"/><path fill="#b49082" fill-opacity=".8" d="M43-16l59 77-3-65z"/><path fill="#844a30" fill-opacity=".5" d="M143.4 35.2l-39.8-2.7 1.2-14.7 28.5-.4z"/><path fill="#175c7f" fill-opacity=".7" d="M66.4 21.6l2.3 7.7-34.4-10.7L23.7-7.2z"/><path fill="#b98770" fill-opacity=".6" d="M182.7 77.6l-48.5 24.5 32.4-14 .1-68.7z"/><path fill="#203e59" fill-opacity=".6" d="M184 128l65 54-18-56z"/><path fill="#fff" fill-opacity=".5" d="M124 46l31-23-22 30z"/><path fill="#a87e69" fill-opacity=".9" d="M162.3 152.9L152 166l-11.6-59.2 17.8 22.6z"/><path fill-opacity=".6" d="M128 100l-26-39 9-15z"/><circle r="1" fill="#000521" fill-opacity=".5" transform="matrix(-4.85254 1.58973 -11.25209 -34.34626 91.5 153.8)"/><path fill="#fcaf5d" fill-opacity=".4" d="M234.5 61.2L223.6 63l41.7 41.4-6.8-20.4z"/><path fill="#77332e" fill-opacity=".4" d="M145 50h16v28h-16z"/><path fill="#181a21" fill-opacity=".5" d="M58-16h25L60 8z"/><path fill="#4a2a23" fill-opacity=".7" d="M158.9 159.4l-24.1-28.2 19 53.8-26.7-49.6z"/><circle r="1" fill="#896647" fill-opacity=".6" transform="rotate(170.1 102.7 45.4) scale(11.75094 37.10888)"/><path fill="#704a2b" fill-opacity=".7" d="M240.3 130.5l12.2 8-23.4-4.4L176.3 52z"/><path fill="#f8f2e9" fill-opacity=".8" d="M148-16l-8 55 79-55z"/><path fill="#f7d3cc" fill-opacity=".5" d="M136 59h32v6h-32z"/><path fill="#0d2d41" fill-opacity=".5" d="M128 88l11 16-8 17z"/><path fill="#100" fill-opacity=".3" d="M218 121l-19-3-16-49z"/><path fill="#e4ba9d" fill-opacity=".5" d="M252 161h4v9h-4z"/><path fill-opacity=".4" d="M169 174l45-4-54-36z"/><circle r="1" fill="#fafffd" fill-opacity=".5" transform="matrix(12.01373 -21.41285 2.30665 1.29415 136.6 66.6)"/><ellipse cx="114" fill="#b88b78" fill-opacity=".7" rx="31" ry="15"/><path fill="#061322" fill-opacity=".5" d="M91.7 79.6L97.6 53 54.8 63.6l26.6 14.8z"/><path fill="#0d4f74" fill-opacity=".6" d="M20 99l95 38-73-89z"/><path fill="#c18853" fill-opacity=".3" d="M17 148l-1 23 17-3z"/><path fill="#f29470" fill-opacity=".5" d="M138.8 142.9l9.7 14-3.3 2.2-9.7-14z"/><path fill="#7bacc3" fill-opacity=".2" d="M82.9 150l-7.7 4.7L52.7 170l24.2-45.7z"/><path fill="#022c4e" fill-opacity=".5" d="M123 51l16 3-23 18z"/><ellipse cx="105" cy="137" fill="#275b7a" fill-opacity=".7" rx="9" ry="27"/><path fill="#00305f" fill-opacity=".4" d="M69 63L20 27l10-14z"/><path fill="#be9389" fill-opacity=".9" d="M175.3 52.7l-8.2-20.1-23.1 10 21.9 4.7z"/><path fill="#f1ede7" fill-opacity=".7" d="M243.2 69.5l-35.7-35-93-50.5L271 4.9z"/><path fill="#3c1900" fill-opacity=".3" d="M149.4 38.7l27.3-12.1-14.2-2.4-15.8 25.9z"/><path fill="#3f0105" fill-opacity=".3" d="M158.9 76.6l6.2-34.8-11.3 8.3 15.6 33.1z"/><path fill="#49200c" fill-opacity=".6" d="M156 93l27-6-9 19z"/><circle r="1" fill="#f4522b" fill-opacity=".4" transform="rotate(164 60.8 71.7) scale(4.36106 8.98977)"/><path fill="#d8e5eb" fill-opacity=".5" d="M21 19l-37 14h34z"/><path fill="#858177" fill-opacity=".5" d="M82.3 81.8L94 84.5l-2.3 9.7L80 91.5z"/></g></svg>