<svg xmlns="http://www.w3.org/2000/svg" viewBox="0 0 300 199"><defs/><path fill="#5e3a3e" d="M0 0h300v199H0z"/><g transform="translate(.6 .6) scale(1.17188)"><ellipse cx="101" cy="24" fill="#eedecd" fill-opacity=".7" rx="60" ry="112"/><path fill="#fdfff5" fill-opacity=".6" d="M96 48L213-5-16 5z"/><ellipse cx="18" cy="116" fill="#070400" fill-opacity=".8" rx="29" ry="61"/><circle r="1" fill="#090000" fill-opacity=".5" transform="matrix(-18.26592 -28.78076 49.91963 -31.68186 183.6 57.3)"/><circle r="1" fill="#ffe9be" fill-opacity=".4" transform="matrix(-15.04246 21.52086 -53.35486 -37.2935 234 131.2)"/><path fill="#ffefa8" fill-opacity=".6" d="M182.6-38.5L277.9 10l-14.5 28.5L168.1-10z"/><circle r="1" fill="#890000" fill-opacity=".7" transform="matrix(-45.84067 9.8117 -7.03853 -32.8843 172 155.9)"/><circle r="1" fill="#c68d6d" fill-opacity=".6" transform="matrix(-53.75658 37.78075 -11.19727 -15.9321 100.5 137.6)"/><path fill="#693017" fill-opacity=".5" d="M25.3 17.5L-16 78.3l85.7-11 73.8 13.2z"/><path fill="#f3fffb" fill-opacity=".4" d="M48 71h76v39H48z"/><path fill="#bd8a3e" fill-opacity=".9" d="M258.2-16l-2.9 126-10.9-35.8-2.1-82.1z"/><circle r="1" fill="#b18168" fill-opacity=".7" transform="rotate(71.2 16.9 23.6) scale(20.79167 58.81551)"/><path fill="#241100" fill-opacity=".4" d="M199.7 119.2l50.8-18.4 5.8 16-50.8 18.4z"/><path fill="#cd997d" fill-opacity=".6" d="M194 133l53-59-81 35z"/><circle r="1" fill="#dea89e" fill-opacity=".6" transform="rotate(29.8 -152.8 299.7) scale(30.20389 12.20826)"/><path fill="#58371e" fill-opacity=".4" d="M115 128l-32 57-18-79z"/><path fill="#f6b5a8" fill-opacity=".5" d="M166 80l-59-25 30-28z"/><path fill-opacity=".4" d="M13 23l33 120V48z"/><path fill="#d9dcdc" fill-opacity=".5" d="M213.6 142.5l7.3-12.1 50.1-10.5-37.5 39z"/><circle r="1" fill="#130300" fill-opacity=".5" transform="matrix(33.65164 24.07399 -16.68544 23.32362 205.6 39.7)"/><path fill="#2b1109" fill-opacity=".8" d="M139.3 88.1l-15.6-17.2 12.4-.3 48.3 13.1z"/><ellipse cy="51" fill="#df7b3f" fill-opacity=".4" rx="21" ry="27"/><path fill="#f6f9f6" fill-opacity=".3" d="M165 46L26 32l108-48z"/><circle r="1" fill="#582516" fill-opacity=".4" transform="rotate(-103.5 76.2 -10.3) scale(15.78124 7.79447)"/><circle r="1" fill="#ed9f87" fill-opacity=".4" transform="matrix(-5.59012 -5.66664 40.5139 -39.96687 96.1 121.2)"/><path fill="#6d341e" d="M-16 180.7l42.5 4.3-16-28.6-11.8-17.6z"/><circle r="1" fill="#001917" fill-opacity=".4" transform="matrix(23.44268 -20.24383 11.86235 13.7368 51 136)"/><path fill="#dbe0d8" fill-opacity=".5" d="M47 57h14v54H47z"/><path fill="#dde8e4" fill-opacity=".6" d="M178.4-13.3l56.1 9.9-3 16.7-56-9.9z"/><ellipse cx="163" cy="99" fill="#1a0000" fill-opacity=".7" rx="7" ry="25"/><path fill="#0e0000" fill-opacity=".4" d="M107 68H62l24-11z"/><path fill="#e6a898" fill-opacity=".5" d="M116 90h37v24h-37z"/><circle r="1" fill="#240f02" fill-opacity=".4" transform="matrix(4.50308 3.97222 -20.8863 23.67759 82 161.4)"/><path fill="#dfdbd1" fill-opacity=".9" d="M138 30l8-36 69-10z"/><path fill="#371e0a" fill-opacity=".6" d="M189 92l-32-66 34-23z"/><path fill-opacity=".5" d="M146 51l32 26-25-35z"/><path fill="#966436" fill-opacity=".5" d="M229.7 62.8L266 94.3l-21.6 24.9L208 87.7z"/><ellipse cx="34" cy="76" fill="#000102" fill-opacity=".6" rx="14" ry="26"/><path fill="#e29d8a" fill-opacity=".6" d="M162 32l2 23-27-35z"/><circle r="1" fill="#b97b70" fill-opacity=".5" transform="matrix(48.84431 11.26912 -1.16079 5.03126 120.1 62.6)"/><circle r="1" fill="#8b7f5a" fill-opacity=".6" transform="matrix(-13.7293 -1.9051 3.34114 -24.0783 115.9 146.4)"/><path fill="#a78e80" fill-opacity=".9" d="M246 185l12-36-30-22z"/><path fill="#534e30" fill-opacity=".5" d="M222.1 172.2l-28.5-36.6 8.4-26.7 22.4 48.5z"/><path fill="#723824" fill-opacity=".6" d="M58.5 46.7L23.3 25l-11.8-3.6 36.8 41.5z"/><path fill="#2e0c00" fill-opacity=".4" d="M180.2 159l65.4-51.7L231 68.7l3.8 35.2z"/><path fill="#900001" fill-opacity=".5" d="M142.6 122.5l13.7-10.6 30.4 21.6-44.8-8.2z"/><path fill="#edbfb4" fill-opacity=".4" d="M168 119l43-9-6-26z"/><ellipse cx="255" cy="129" fill="#e4f0ff" fill-opacity=".5" rx="12" ry="10"/><circle r="1" fill="#dab8ab" fill-opacity=".7" transform="rotate(-69.4 97.4 -82.8) scale(17.49817 13.34316)"/><path fill="#c99085" fill-opacity=".6" d="M67.9 39.2l34.7 10.2 1 .9-60.9 13.2z"/><path fill="#d57d64" fill-opacity=".4" d="M21 186.1l77.1-77 14.9 14.8-77.1 77z"/><circle r="1" fill="#4e0000" fill-opacity=".5" transform="matrix(25.18333 13.39021 -6.67787 12.55924 203 168.7)"/><path fill="#814225" fill-opacity=".8" d="M23.5 74.3l-11.7 5.6L-10 64l-6-22.3z"/><circle r="1" fill="#000002" fill-opacity=".5" transform="matrix(-24.75802 -14.5513 9.06037 -15.4156 25.1 141)"/><path fill="#735744" fill-opacity=".5" d="M122 68h8v16h-8z"/><path fill="#bd7f6d" fill-opacity=".5" d="M229 69l6 34-28 22z"/><path fill="#e1e8e1" fill-opacity=".5" d="M49 69h48v20H49z"/><path fill="#be694a" fill-opacity=".5" d="M120 92h32v6h-32z"/><path fill="#cef1f2" fill-opacity=".2" d="M260.9 161.9l-6.1-58-28.2 20.3 44.4-15.8z"/><path fill="#e0e6e1" fill-opacity=".6" d="M82 84h54v6H82z"/><path fill="#900005" fill-opacity=".5" d="M134 128l-15 57 101-13z"/><path fill="#e7eae4" fill-opacity=".7" d="M126.7 52.2L59 30.5 84-16h65z"/><ellipse cx="216" cy="41" fill="#0c0000" fill-opacity=".4" rx="18" ry="28"/><path fill="#dbb9b2" fill-opacity=".5" d="M137.7 130.2l15 5-32.5-37-14.5 21.2z"/><path fill="#e1f0ff" fill-opacity=".5" d="M217 139l7-12 11 34z"/></g></svg>