<svg xmlns="http://www.w3.org/2000/svg" viewBox="0 0 300 199"><defs/><path fill="#44433e" d="M0 0h300v199H0z"/><g transform="translate(.6 .6) scale(1.17188)"><circle r="1" fill="#f8f4e9" fill-opacity=".7" transform="matrix(51.22765 120.10154 -54.52468 23.25675 144 113)"/><circle r="1" fill="#8c8d85" fill-opacity=".5" transform="rotate(48.6 -13.1 292.9) scale(111.03516 38.42892)"/><path fill="#f3f4f0" fill-opacity=".9" d="M95 185l4-50 133 50z"/><circle r="1" fill="#fbfcf7" fill-opacity=".6" transform="matrix(21.49482 -4.96247 15.8097 68.47932 102.4 43.7)"/><path fill="#fff" fill-opacity=".7" d="M207.1 146.7l-21.8 2.3-4.4-41.7 21.8-2.3z"/><circle r="1" fill="#06090a" fill-opacity=".5" transform="rotate(123.3 -1 50.5) scale(63.45396 17.83868)"/><circle r="1" fill="#5a6256" fill-opacity=".5" transform="matrix(2.73676 -8.27518 113.70534 37.60445 142.4 142.7)"/><path fill="#404036" fill-opacity=".5" d="M186 88L119-16l86 56z"/><circle r="1" fill="#260903" fill-opacity=".5" transform="matrix(-5.16748 -3.96515 11.9549 -15.57994 180.6 104.3)"/><ellipse cx="153" cy="113" fill="#fffef6" fill-opacity=".7" rx="13" ry="23"/><path fill="#e2e4df" fill-opacity=".8" d="M188.2 79.4l9.7-12L203 98l-2.9 18.9z"/><circle r="1" fill="#5b5f52" fill-opacity=".6" transform="matrix(-2.80325 -37.66344 22.29695 -1.65954 75.1 139.4)"/><ellipse cx="249" cy="30" fill="#00000e" fill-opacity=".4" rx="20" ry="43"/><path fill="#eeefeb" fill-opacity=".9" d="M206.1 154.6L90.4 109.1l89 19.5 18.2-40.2z"/><path fill="#34180e" fill-opacity=".5" d="M175.2 129.5l-15.6-33.6 7.2-3.4 15.6 33.6z"/><circle r="1" fill="#707560" fill-opacity=".6" transform="matrix(-5.49363 -29.35495 6.03657 -1.12971 72.7 82.5)"/><path fill="#180e07" fill-opacity=".5" d="M173 62l21 36-9-43z"/><path fill="#ffe0c7" fill-opacity=".3" d="M183.3 119.1l-4.7-71.6-31.2-.6 43.1 84.6z"/><circle r="1" fill="#59392a" fill-opacity=".5" transform="matrix(-.47859 -2.9549 28.39424 -4.59886 164 69.6)"/><circle r="1" fill="#783c00" fill-opacity=".3" transform="matrix(-5.15102 -.4054 1.17039 -14.8712 138.8 92.9)"/><path fill="#76827c" fill-opacity=".6" d="M206 69h17v101h-17z"/><path fill="#0a0a09" fill-opacity=".7" d="M81.5-26.8L54.3 91l-9.8-2.3L71.7-29z"/><path fill="#817e63" fill-opacity=".4" d="M124 88.9l-51.7 35.7L98.6 185 96 144.9z"/><ellipse cx="12" cy="111" fill="#1f2323" fill-opacity=".3" rx="54" ry="121"/><ellipse cx="92" cy="63" fill="#f1f1ee" fill-opacity=".5" rx="12" ry="42"/><path fill="#f3e4d8" fill-opacity=".7" d="M166.9 105.8L125 127.3l18-23.4 12.3-30.1z"/><path fill="#340000" fill-opacity=".4" d="M165 77l6 27-12-15z"/><path fill="#394037" fill-opacity=".6" d="M130.2-13.4L154-5.6l-6.2 19L124 5.6z"/><path fill="#c5c0b2" d="M114.1 66.4L130 83l28.4-29.7-47 9.2z"/><circle r="1" fill="#304449" fill-opacity=".3" transform="matrix(-62.75381 12.34698 -6.88917 -35.01437 255 167.1)"/><ellipse cx="114" cy="21" fill="#e8eaeb" fill-opacity=".4" rx="33" ry="14"/><path fill="#a3aca4" fill-opacity=".4" d="M215.9 64.3l-9.6 94.9-7.5-79.5-10.1-15.5z"/><circle r="1" fill="#394142" fill-opacity=".7" transform="matrix(25.46387 -25.91854 21.57546 21.19698 211 24.2)"/><circle r="1" fill-opacity=".5" transform="matrix(-.81046 -6.90524 26.10313 -3.0637 33.2 83.8)"/><circle r="1" fill="#bfc0b9" fill-opacity=".4" transform="matrix(5.0186 6.30925 -15.38993 12.2417 168.5 56)"/><path fill="#383836" fill-opacity=".7" d="M39.7 172.3l-66.3-9.3 10.9-77.3L50.6 95z"/><ellipse cx="176" cy="89" fill="#ffceb7" fill-opacity=".5" rx="7" ry="16"/><circle r="1" fill="#66726e" fill-opacity=".6" transform="rotate(130.1 100.4 101.4) scale(15.51332 46.29377)"/><ellipse cx="144" cy="140" fill="#fff" fill-opacity=".1" rx="28" ry="30"/><path fill="#271814" fill-opacity=".3" d="M177.5 102.1l-15.8 22.2 30.5-25.6-2.6-16.9z"/><path fill="#f2cdb4" fill-opacity=".5" d="M139.5 74.7l38.7 1.4-13.6-7.1-5 36.4z"/><path fill-opacity=".5" d="M238 70l-4.3-18.4 24.3-5.7 4.3 18.5z"/><path fill="#e5e2d8" fill-opacity=".8" d="M124.7 93L105 110.1l30.5-1.6-2.6-18.4z"/><path fill="#41423d" fill-opacity=".6" d="M5 78l42-19 27-73z"/><path fill="#edefea" fill-opacity=".7" d="M179.5 108.4l10.8 33.1-18.5-4.5 27-36.3z"/><path fill="#0d0d0b" fill-opacity=".8" d="M61.5 85.3l4.8-56.4-38.8 51.9 7.8 7.1z"/><path fill="#6c6a4b" fill-opacity=".4" d="M124 125l-21-9-17 23z"/><path fill="#8b7256" fill-opacity=".8" d="M140.7 108.8l-3.7 3.1 1.9-35.7 2.7-13.2z"/><path fill="#575952" fill-opacity=".3" d="M170.2 14.7l68.3 20-43.9 15-48.5-2.3z"/><path fill="#7b827e" fill-opacity=".8" d="M67.8 35.6l13 10.3-6.2-22.8 3.1-26.3z"/><path fill="#4b2215" fill-opacity=".5" d="M148 70h16v5h-16z"/><path fill="#1e1c18" fill-opacity=".3" d="M169 65l41.4-24.7 4.3-25.7-38.9 65.2z"/><path fill="#b3a58f" fill-opacity=".5" d="M129.6 41.3l4.1 28.4 29.6-45.2-7.3-3.8z"/><path fill="#f8f7ee" fill-opacity=".5" d="M131 69h7v18h-7z"/><path fill="#d8d6d2" fill-opacity=".6" d="M162.8 55.1l.4 13-22 .8-.4-13z"/><path fill="#f3f6f2" fill-opacity=".6" d="M147.3 103.2l-22.9 22.2 84.1 26.1-47.6-35.5z"/><circle r="1" fill="#7a837f" fill-opacity=".5" transform="matrix(-2.09534 8.83884 -16.36072 -3.87849 190.2 156.9)"/><path fill="#202529" fill-opacity=".5" d="M213.3-16l19.4 13.4 15 9.6L210 26.7z"/><path fill="#3d3932" fill-opacity=".5" d="M180 126v-23l-15 15z"/><path fill="#e8e9e5" fill-opacity=".7" d="M116 105.4L73.8 26.2 120.9-16l-8 45.7z"/><path fill="#fffffc" fill-opacity=".6" d="M193 71h4v30h-4z"/><path fill="#8f8d84" fill-opacity=".5" d="M187.5 42.8l-35.7 6.7 37.2 9.8-24.4-23.7z"/><ellipse cx="75" cy="82" fill="#7b7a61" fill-opacity=".4" rx="7" ry="13"/><circle r="1" fill="#a28666" fill-opacity=".6" transform="matrix(-2.74646 -3.5153 2.66062 -2.0787 144.3 93.6)"/><path fill="#e3e3df" fill-opacity=".6" d="M95.9 27.2l13.7-12.7-35.8 41.9L91 108.6z"/></g></svg>