<svg xmlns="http://www.w3.org/2000/svg" viewBox="0 0 300 199"><defs/><path fill="#496c3b" d="M0 0h300v199H0z"/><g transform="translate(.6 .6) scale(1.17188)"><ellipse cx="15" cy="69" fill="#ebd2ea" fill-opacity=".6" rx="220" ry="155"/><circle r="1" fill="#050000" fill-opacity=".7" transform="matrix(-13.56913 -3.58512 7.61682 -28.82849 77 91.4)"/><ellipse cx="110" cy="160" fill="#fbfbff" fill-opacity=".7" rx="44" ry="57"/><path fill="#767470" fill-opacity=".6" d="M154 30h94v115h-94z"/><path fill="#250015" fill-opacity=".6" d="M250 106L271-6l-51 6z"/><ellipse cx="167" cy="56" fill="#355024" fill-opacity=".7" rx="13" ry="36"/><path fill="#e8e0dd" fill-opacity=".3" d="M172 185L12-16l188 129z"/><circle r="1" fill="#edeeef" fill-opacity=".6" transform="rotate(-104.8 76.6 -59) scale(24.85053 69.03888)"/><circle r="1" fill="#c3b8ce" fill-opacity=".6" transform="matrix(-7.90967 2.20842 -15.43568 -55.28439 236.8 91.8)"/><path fill="#271911" fill-opacity=".8" d="M99.4 30.3l15.7-.7 10.4 21.5-9.9.8z"/><path fill="#140b0c" fill-opacity=".7" d="M93.3 84l3.3-24-31.1 65 1.4 17.7z"/><path fill="#001700" fill-opacity=".5" d="M176 75h17v21h-17z"/><path fill="#edf1fe" fill-opacity=".5" d="M2.7 85.7l-33.1-7.6L-2.7-41.7l33.1 7.6z"/><path fill="#574f58" fill-opacity=".7" d="M190 179l29-109 35 115z"/><path fill="#d3d4cc" fill-opacity=".5" d="M179 0h23v74h-23z"/><path fill="#68624f" fill-opacity=".4" d="M15 63l-1-40 59 50z"/><path fill="#e0e0e1" fill-opacity=".5" d="M123 0h34v57h-34z"/><path fill="#b4b4b6" fill-opacity=".8" d="M191 237.4l-25.7-132.6 21.6-4.2 25.8 132.6z"/><path fill="#989688" fill-opacity=".5" d="M121 104l38-31 12 84z"/><ellipse cx="113" cy="125" fill="#f7f7f8" fill-opacity=".6" rx="9" ry="52"/><circle cx="162" cy="28" r="10" fill="#435a31" fill-opacity=".5"/><circle r="1" fill="#e7e7ea" fill-opacity=".8" transform="matrix(32.07834 25.39283 -13.09713 16.5454 149.5 164.3)"/><path fill="#aaa7b1" fill-opacity=".6" d="M227 50L190-4l31-3z"/><path fill="#5f625c" fill-opacity=".5" d="M27 180l-43-20 61 2z"/><path fill-opacity=".5" d="M65 67h16v25H65z"/><circle r="1" fill="#b9b8b1" fill-opacity=".8" transform="matrix(-.98823 .15299 -26.86903 -173.56335 202 118)"/><path fill="#8f849a" fill-opacity=".6" d="M271 140l-41-32 30 74z"/><circle r="1" fill="#001b00" fill-opacity=".3" transform="matrix(-15.15654 -1.89893 1.02194 -8.15674 174.8 50.2)"/><circle r="1" fill="#767060" fill-opacity=".5" transform="rotate(144.9 34.8 13) scale(12.43394 17.58)"/><path fill="#d5d4d6" fill-opacity=".7" d="M99 85l-5 100-49-7z"/><path fill="#c0bec5" fill-opacity=".6" d="M58.9 69l6.7 8.1 18.2-49.6L12.1-16z"/><path fill="#b1b6a9" fill-opacity=".8" d="M186.1 80.4l-1-27.1-1.4 2.4-12.6 5.7z"/><path fill="#27111e" fill-opacity=".7" d="M265.2 123.4l-9.5 3.1-13-40 9.6-3z"/><path fill="#9c8c8a" fill-opacity=".5" d="M80 43l3 35 13-13z"/><path fill="#dde3cf" fill-opacity=".5" d="M169 85h18v3h-18z"/><circle r="1" fill="#5a5c5b" fill-opacity=".6" transform="rotate(169.2 103.3 26.1) scale(1.95842 122.09746)"/><path fill="#163306" fill-opacity=".5" d="M185.6 106.2l10.7-19.8-33.7 7 17.8-1.1z"/><path fill="#cfcabd" fill-opacity=".5" d="M144.2 65.2l66.4-78.9L169.5 42 82.8 70.6z"/><path fill="#b3b0ab" fill-opacity=".6" d="M74.1 83.3l-4.1 36-86-43.4 71.1 95z"/><path fill="#0b0216" fill-opacity=".5" d="M264.8 184.7l-14.3.3-20.2-75.6 4.1 27.8z"/><path fill-opacity=".3" d="M74.6 92.5L95.9 72l-3.5 23.6L72 137.3z"/><path fill="#878478" fill-opacity=".7" d="M7.9 63.2L52.7 53l-4.9-14.5L14.4 33z"/><path fill="#0b2e00" fill-opacity=".3" d="M201.6 85.7L185 88.8l-40.1-33 11.3.3z"/><path fill="#d8dad8" fill-opacity=".5" d="M164 0h37v24h-37z"/><circle r="1" fill="#fafbf8" fill-opacity=".5" transform="matrix(-2.09857 -.4346 23.02851 -111.20047 .1 90.8)"/><path fill="#b6b4ac" fill-opacity=".8" d="M146.7 53l24 54.9-44.3-1.9-13.1-26.3z"/><circle cx="38" cy="9" r="22" fill="#c8c7ce" fill-opacity=".5"/><circle r="1" fill="#c2c3c5" fill-opacity=".5" transform="matrix(3.15322 -.93403 14.45001 48.78242 232.3 89)"/><circle cx="85" cy="73" r="4" fill="#fbf9ff" fill-opacity=".4"/><ellipse cy="149" fill="#9b9c98" fill-opacity=".6" rx="56" ry="17"/><path fill-opacity=".5" d="M112 41h12v6h-12z"/><path fill="#cfc1b7" d="M98.8 72.8l29.8 2.5L110 43.6 87 58.4z"/><circle r="1" fill="#090400" fill-opacity=".5" transform="matrix(1.64081 .69316 -3.93778 9.32127 68 131.8)"/><path fill="#15131d" fill-opacity=".7" d="M230.6 185l-.2-44.3 7.3 36.7-19.9 7.6z"/><path fill="#341a0b" fill-opacity=".3" d="M79 54.9l13 10.8L81.3 70 87 44.2z"/><path fill="#9a3203" fill-opacity=".2" d="M100.1 109.8l7.4-41.9-9.9-31.3 9-10.9z"/><circle r="1" fill="#878675" fill-opacity=".4" transform="matrix(-7.23643 2.28164 -15.4889 -49.1245 210.9 91.5)"/><path fill="#403e37" fill-opacity=".5" d="M204 122l14 63 5-54z"/><path fill="#f0f7ed" fill-opacity=".4" d="M177.7 13.8l1-.2 7.6 72.6-1 .2z"/><circle r="1" fill="#d7d6d3" fill-opacity=".3" transform="matrix(18.82825 2.67966 -2.27103 15.9571 129.1 64.7)"/><path fill="#140b0f" fill-opacity=".7" d="M66.7 66.9l11.4 40.6 13.7-41.9 2.5 19.6z"/><path fill="#838071" fill-opacity=".3" d="M143.6 116.1l4-36.4 22.6 73.1-15.3-11z"/><path fill="#a9ac94" fill-opacity=".6" d="M172 88l-8-15 19 16z"/><path fill="#e6e5e5" fill-opacity=".6" d="M99.7 102.7L94.3 185l-7.1-74.7 15.7-48.7z"/><path fill="#aeacb1" fill-opacity=".6" d="M214 37l22 28-18-71z"/></g></svg>