<svg xmlns="http://www.w3.org/2000/svg" viewBox="0 0 299 449"><defs/><path fill="#3a3131" d="M0 0h299v449H0z"/><g transform="translate(.9 .9) scale(1.7539)"><circle r="1" fill="#c1b9b8" fill-opacity=".8" transform="rotate(-103.5 93.6 23.7) scale(154.40711 165.63194)"/><circle r="1" fill="#f4fcff" fill-opacity=".5" transform="matrix(-.19022 108.9878 -31.1769 -.05441 86.5 211.5)"/><circle r="1" fill="#614d46" fill-opacity=".6" transform="matrix(11.8874 -4.2715 17.50966 48.72852 58.4 33.9)"/><circle r="1" fill="#675c5a" fill-opacity=".5" transform="matrix(-22.82667 7.00504 -22.54936 -73.47948 19.7 203.4)"/><circle r="1" fill="#462819" fill-opacity=".7" transform="rotate(-126.8 63 10.8) scale(19.95247 7.703)"/><path fill="#5c5655" fill-opacity=".7" d="M186 206.7L154.7 271l1-40.9 11.5-81.4z"/><ellipse cx="5" cy="207" fill-opacity=".8" rx="4" ry="22"/><path fill="#675651" fill-opacity=".6" d="M13-12l4 108-33-107z"/><path fill="#f5f4f3" fill-opacity=".5" d="M70 87l36-4-21 88z"/><circle r="1" fill="#dacbc5" fill-opacity=".5" transform="rotate(-95 116.4 -8.5) scale(38.07162 23.71383)"/><path fill="#42342c" fill-opacity=".6" d="M74 116l-10 17 4-38z"/><circle r="1" fill="#d5c4bf" fill-opacity=".5" transform="matrix(-27.64656 41.29794 -9.60473 -6.4298 39.4 128.1)"/><ellipse cx="128" fill="#331000" fill-opacity=".1" rx="89" ry="27"/><path fill="#d1ccd1" fill-opacity=".5" d="M-5 245l35 1-5-37z"/><path fill="#7f7572" fill-opacity=".9" d="M24.5 247L71 99.8l-17.7 74.9-4.7 58.1z"/><path fill="#2b1c1a" fill-opacity=".5" d="M-12.4 142.7l21.3 23.7-.4-46.9-15.2 33.4z"/><path fill="#d3cac8" fill-opacity=".7" d="M126.4-16l-7.9 37.2 20.1 60.3-3-54.9z"/><ellipse cx="19" cy="253" fill="#5a5246" fill-opacity=".7" rx="27" ry="6"/><path fill="#554038" fill-opacity=".6" d="M43.5 17.4l4 .4-5 46.8-4-.4z"/><path fill="#161010" fill-opacity=".5" d="M112 133l-6-31-4 15z"/><path fill="#130907" fill-opacity=".2" d="M113.5 220l41.8-40.2 16.3-21.1-4.6 23.2z"/><path fill="#d5caca" fill-opacity=".6" d="M9 30l29 97-1-61z"/><path fill="#c7b9b6" fill-opacity=".6" d="M46.6 209.8l-5.3 6-64-57.6 5.4-6z"/><path fill="#e2e5f0" fill-opacity=".3" d="M157 180l-61 91 61-47z"/><path fill="#4b3730" fill-opacity=".4" d="M115.5-16l5.8 81.9-9.7-47.3-6.2-34.6z"/><path fill="#140300" fill-opacity=".3" d="M99.4 53.8L61.1 75.5l19.4 19.4L70.7 56z"/><path fill="#ced2db" fill-opacity=".6" d="M22 244l59 7-5-19z"/><path fill="#e0d6d2" fill-opacity=".5" d="M52 56h11v37H52z"/><path fill="#141a1f" fill-opacity=".2" d="M124.6 221.9l-1.1-36-10.1 32.3 55.7 52.8z"/><path fill="#635e5c" fill-opacity=".5" d="M109 128l19 29-4 17z"/><ellipse cx="83" cy="71" fill="#db9b80" fill-opacity=".6" rx="7" ry="10"/><ellipse cx="70" cy="38" fill="#ad9e9b" fill-opacity=".6" rx="9" ry="25"/><path fill="#4f4744" fill-opacity=".7" d="M150.7-6.8L89.4-3.7 155.3-16l-3.2 62.3z"/><path fill="#786d68" fill-opacity=".6" d="M163 98h8v39h-8z"/><circle r="1" fill="#b7a6a1" fill-opacity=".6" transform="matrix(16.01709 16.2011 -8.51147 8.4148 32 172.2)"/><path fill-opacity=".5" d="M47 196h2v34h-2z"/><circle r="1" fill="#8c7d79" fill-opacity=".5" transform="matrix(4.89591 -3.27148 12.16285 18.20222 38.2 152.2)"/><circle cx="83" cy="191" r="33" fill="#d6d7de" fill-opacity=".6"/><path fill="#bcbec6" fill-opacity=".6" d="M69.7 173.6l-12 81.4-12.8 4.6 7.7-71.2z"/><path fill="#350e00" fill-opacity=".2" d="M53.3 57.4L45.5 114l.2-14.9-3.5-21.7z"/><path fill="#3d2e23" fill-opacity=".3" d="M109 57L98 92 86 53z"/><path fill="#11141b" fill-opacity=".5" d="M12.9 228.5l-25.6 2.9L2 226.1l-.2-46.9z"/><ellipse cx="58" fill="#513e38" fill-opacity=".5" rx="6" ry="45"/><path fill="#aeafb9" fill-opacity=".6" d="M90 223l25 42-39-6z"/><path fill="#a69c9d" fill-opacity=".6" d="M6.7 177.3l19 19.7-5.2 46.6-9.9-7.3z"/><path fill="#cdc3c0" fill-opacity=".8" d="M127.2 84.1l-13.4-20L106.6-4l-.3 19.1z"/><path fill="#494243" fill-opacity=".5" d="M32 244l-3-28 17 17z"/><path fill="#8f8282" fill-opacity=".8" d="M6.4 148.7L3.5 94.3l14.7 25.8.4-3.5z"/><path fill="#cfcacd" fill-opacity=".5" d="M118 104l41 7-36 49z"/><path fill="#341c12" fill-opacity=".3" d="M3.8 135.1l-12.5 5.8 28.4 48.9-17.9-68.3z"/><circle r="1" fill="#e1e6ee" fill-opacity=".6" transform="matrix(7.90743 39.84797 -6.0299 1.19657 112.3 230.6)"/><path fill="#685b58" fill-opacity=".6" d="M9 80L6 55l20 41z"/><path fill="#201411" fill-opacity=".5" d="M-6-9l-1 37L8 46z"/><path fill="#ddddde" fill-opacity=".5" d="M73 85h30v97H73z"/><path fill="#441c03" fill-opacity=".2" d="M41.4 104.8l-16 4.6 17.9-13 41-17.8z"/><path fill="#97430e" fill-opacity=".2" d="M107.6 93.2l52.5 11.3-50.4-4.2-49.6-46z"/><path fill="#0c0400" fill-opacity=".5" d="M84.9 52.9l9.7 7.5.5 7.2-18.4-9z"/><path fill="#848b91" fill-opacity=".6" d="M151 271l-24-39 34 12z"/><path fill="#b4acab" fill-opacity=".9" d="M186 120.6l-20.9 47.6-20.1 21.4-5.4-27.1z"/><path fill="#9c908d" fill-opacity=".9" d="M123.5 93.9l-16-47.5-4-60.8-9 67.9z"/><path fill="#381000" fill-opacity=".1" d="M28.6 231.5l11.1-32.2-55.7-64.9 39.9 59.2z"/><path fill="#dbe1e4" fill-opacity=".4" d="M7.2 230.8l-10.9 28.7 4.5-89.6.2 67.2z"/><circle r="1" fill="#221e1e" fill-opacity=".6" transform="matrix(2.19368 8.80651 -.97035 .24171 118 148.3)"/><ellipse cx="79" cy="21" fill="#695148" fill-opacity=".4" rx="2" ry="30"/><path fill="#dad2d2" fill-opacity=".4" d="M45.2 140.8L9.3 127.7l.9 26.3 44.9-61.6z"/></g></svg>