<svg xmlns="http://www.w3.org/2000/svg" viewBox="0 0 300 199"><defs/><path fill="#603832" d="M0 0h300v199H0z"/><g transform="translate(.6 .6) scale(1.17188)"><circle r="1" fill="#043a2f" fill-opacity=".8" transform="matrix(249.99077 -50.29526 17.0991 84.99042 136 121.5)"/><circle r="1" fill="#20fac3" fill-opacity=".5" transform="matrix(33.40843 46.49276 -20.1334 14.46731 121.5 70.4)"/><circle r="1" fill="#020100" fill-opacity=".6" transform="matrix(29.11764 -45.77684 174.1467 110.77089 62.3 146.9)"/><circle r="1" fill="#ff3d25" fill-opacity=".6" transform="matrix(6.99148 .06461 -.31341 33.91433 169.3 124.5)"/><path fill="#129a89" fill-opacity=".5" d="M182 31l-21 72L7 44z"/><circle r="1" fill="#0f1111" fill-opacity=".8" transform="matrix(-19.20307 137.53754 -26.4037 -3.6865 234.2 121)"/><path fill="#e88763" fill-opacity=".5" d="M99.5 39.1L84.2 27.6l81.3-9.3-37.8 28.4z"/><circle r="1" fill="#0e2b34" fill-opacity=".7" transform="matrix(-58.5954 9.91067 -2.55268 -15.09237 31.6 52.1)"/><path fill="#cac1fc" fill-opacity=".6" d="M65.5 58.5L77.6 60l.7 13.4-24.5-11.3z"/><ellipse cx="53" cy="19" fill="#f0563e" fill-opacity=".5" rx="25" ry="13"/><circle r="1" fill="#81fff2" fill-opacity=".5" transform="rotate(84.5 22.9 88) scale(7.16657 16.07868)"/><path fill="#00ad7b" fill-opacity=".5" d="M119 62h42v66h-42z"/><path fill="#00c18f" fill-opacity=".6" d="M183.3 109.3l11.9-1.4 3.5 28.8-11.9 1.4z"/><path fill="#006773" fill-opacity=".6" d="M181 34l37 48-1-53z"/><path fill="#dd4537" fill-opacity=".6" d="M256-2l-35-14-63 38z"/><path fill="#0d5331" fill-opacity=".5" d="M119.6 10.5L79.5 43.6l-6.6-55L179.6-6z"/><circle r="1" fill="#1a3d33" fill-opacity=".5" transform="matrix(37.17352 7.6201 -4.65728 22.71985 84 96.3)"/><circle r="1" fill="#00f7bc" fill-opacity=".5" transform="rotate(115.9 67 68.8) scale(3.82922 16.54867)"/><ellipse cx="255" cy="24" fill="#062432" fill-opacity=".6" rx="60" ry="17"/><path fill="#000a00" fill-opacity=".4" d="M136.5 38.6l21.4 5.3-4.4 17.5-21.4-5.3z"/><ellipse cx="116" cy="11" fill="#fa9269" fill-opacity=".3" rx="31" ry="4"/><path fill="#01b28c" fill-opacity=".9" d="M172.6 55.8L126 80l-1.1 15.1 47.4-22.3z"/><path fill-opacity=".4" d="M105 152l55-31 14 64z"/><ellipse cx="206" cy="81" fill="#1db4b1" fill-opacity=".5" rx="6" ry="9"/><path fill="#f95e3b" fill-opacity=".5" d="M171.2 72.5l-5.8 34.3-3.9 19.4 10.2 5z"/><path fill="#33201c" fill-opacity=".7" d="M154 185l19.7-40.9 39.6 4.6 6.1 36.3z"/><circle r="1" fill="#1a1910" fill-opacity=".6" transform="rotate(3.6 -1587.8 3629.3) scale(31.72657 20.49532)"/><path fill="#c0cffe" fill-opacity=".4" d="M58.7 76.5l-1.1-13.8L71 58.9l4.3-1.5z"/><path fill="#beb0ff" fill-opacity=".6" d="M251 38l20-16v31z"/><path fill="#cfd3bd" fill-opacity=".5" d="M102 55h31v6h-31z"/><circle r="1" fill="#010c07" fill-opacity=".8" transform="matrix(22.2021 5.29768 -7.38963 30.96926 240.7 152.7)"/><path fill="#09ccb0" fill-opacity=".8" d="M117.9 54.6l1.7-9.7-12.3 1.1 7.3 20.3z"/><path fill="#99443f" fill-opacity=".3" d="M229.9 88.5l-2-5.6 21-22.5.8 17.9z"/><path fill="#b29c78" fill-opacity=".5" d="M90 23h41v16H90z"/><path fill="#075e9b" fill-opacity=".4" d="M178 32h58v9h-58z"/><ellipse cx="81" cy="17" fill="#00432c" fill-opacity=".7" rx="4" ry="67"/><path fill="#000504" fill-opacity=".6" d="M-13 170l-6.9-79.6L31 85.9l7 79.7z"/><path fill="#004837" fill-opacity=".5" d="M85 17h55v5H85z"/><path fill="#544740" fill-opacity=".6" d="M179.9 38.5L204.2 9l-50 19.1-13 .1z"/><path fill="#001a13" fill-opacity=".6" d="M175 38l1 38 22-26z"/><path fill="#402d22" fill-opacity=".5" d="M176.1 173.3l-8.9-1.4 10.7-67.2 8.9 1.4z"/><path fill="#8b3936" fill-opacity=".7" d="M-16 19l81 16L43 4z"/><circle r="1" fill="#1f2223" fill-opacity=".4" transform="matrix(8.95448 -16.95154 35.57856 18.79402 20.4 53.3)"/><path fill="#69607b" fill-opacity=".2" d="M48.4 115.7l4.5-29.8 16.3-6.5-15.8 45.8z"/><path fill="#fc6033" fill-opacity=".4" d="M76.5 33.3l.4-15.1-24.2-7.8L34.5.6z"/><ellipse cx="77" cy="32" fill="#3a7a5e" fill-opacity=".3" rx="42" ry="4"/><path fill="#32170d" fill-opacity=".4" d="M98.8 115.2L117.1 94l5.2 31.9-14.9 57z"/><path fill="#f0552c" fill-opacity=".5" d="M159.4 131.7l5.9 5.3 12.9-26.6-9.5-3.2z"/><path fill="#010" fill-opacity=".2" d="M37-16L-16 4l119 7z"/><path fill="#00dfa1" fill-opacity=".5" d="M187 93l8-4-3-6z"/><circle r="1" fill="#003621" fill-opacity=".4" transform="matrix(35.50967 -9.18343 .55516 2.14664 154 14)"/><path fill="#ff3b29" fill-opacity=".4" d="M121 28h37l15-15z"/><path fill="#b34134" fill-opacity=".6" d="M141.7 13.1l-1.8-5.7 34.4-10.5 1.8 5.7z"/><path fill="#025071" fill-opacity=".6" d="M39 46h49v8H39z"/><circle r="1" fill="#14160e" fill-opacity=".5" transform="matrix(66.62902 -11.09157 1.0357 6.2216 243.3 15.3)"/><path fill="#3f7e67" fill-opacity=".7" d="M152.6 22l-26.8 38.9-3.3-8.8-7.7 4.4z"/><path fill="#00c0a0" fill-opacity=".7" d="M83.9 61.4l25.9-10 8.7-10.5-19.2 4.8z"/><path fill="#090000" fill-opacity=".2" d="M167.1 82.8l-13.1 7 4.9 72.1 3.2-41.2z"/><path fill="#0a2e32" fill-opacity=".7" d="M176.6 52l-34.4-9.4 16.1 20.3 30-20.2z"/><path fill="#00b68f" fill-opacity=".7" d="M136 99L90.8 61.7l32.7 2.9 33.3 7z"/><path fill="#7dd6a0" fill-opacity=".3" d="M193 8l14 2-31 13z"/><path fill="#525248" fill-opacity=".6" d="M-16 43.3L7.2 45l66.4-9.3-3.5-4.6z"/><path fill="#003e25" fill-opacity=".3" d="M105.5 75l-9.1 90.6-16.1-93 7.9-9.7z"/><path fill="#152b27" fill-opacity=".6" d="M70.7 65l6.5 36.5-8 1.4-6.4-36.4z"/><path fill="#00e4a2" fill-opacity=".5" d="M181 74h5v7h-5z"/></g></svg>