<svg xmlns="http://www.w3.org/2000/svg" viewBox="0 0 300 199"><defs/><path fill="#5f3b32" d="M0 0h300v199H0z"/><g transform="translate(.6 .6) scale(1.17188)"><circle r="1" fill="#cad7e8" fill-opacity=".9" transform="rotate(-91.9 62.8 18.2) scale(255 63.61115)"/><circle r="1" fill="#e9f5fd" fill-opacity=".8" transform="matrix(-86.7528 -95.34009 28.45606 -25.89302 244.3 9.4)"/><circle r="1" fill="#f0f4f4" transform="rotate(-115.2 58.1 -34.9) scale(23.71367 34.19072)"/><path fill="#191214" fill-opacity=".9" d="M271 169.2L97.2 35.8l.4 23.5 25.6 79.7z"/><circle r="1" fill="#00091e" fill-opacity=".6" transform="rotate(68.5 38 201.9) scale(67.77433 39.77005)"/><circle r="1" fill="#3a425a" fill-opacity=".6" transform="matrix(19.00233 20.7374 -9.81908 8.99753 57.6 148.8)"/><ellipse cx="92" cy="139" fill="#a6afc6" fill-opacity=".9" rx="28" ry="37"/><circle r="1" fill="#c98672" fill-opacity=".5" transform="matrix(27.63575 -32.12953 14.07723 12.10833 147 51.6)"/><circle r="1" fill="#ebf8ff" fill-opacity=".9" transform="matrix(-28.63743 14.65452 -13.19417 -25.78368 48 18.4)"/><circle r="1" fill="#110d12" fill-opacity=".9" transform="rotate(-142.3 128.5 41.7) scale(119.95476 26.905)"/><path fill="#6f7080" fill-opacity=".6" d="M26.5 50.2l-3.1 15-1.1 15.3 61.9-32.7z"/><path fill="#fff" fill-opacity=".6" d="M159.1 79.9l-13.6-3.2 3.4-14.6 13.6 3.2z"/><path fill="#eef8ff" fill-opacity=".5" d="M45 185L3-4l-19 151z"/><circle r="1" fill="#fdb0a2" fill-opacity=".3" transform="matrix(-22.22409 -12.3441 8.61552 -15.51121 138.4 159.2)"/><path fill="#fafdfd" fill-opacity=".8" d="M243 53l-45-37 36-32z"/><circle r="1" fill="#7f91a8" fill-opacity=".5" transform="matrix(-4.14403 8.68814 -20.9231 -9.9798 251.5 64.5)"/><path fill="#fff" fill-opacity=".6" d="M133 26l5-16-37-11z"/><path fill="#b9bccd" fill-opacity=".9" d="M-16 74.8v5.3l140.4 74.3-13-53.9z"/><path fill="#754635" fill-opacity=".5" d="M93.9 33.2l24 42.3 30.3 5.7-2.4-49.7z"/><path fill="#222d35" fill-opacity=".5" d="M205 47L134-9l57-7z"/><path fill="#f6faff" fill-opacity=".6" d="M45.1 99l2.7 30-23 2-2.6-30z"/><circle r="1" fill="#13141e" fill-opacity=".7" transform="rotate(-143.2 137.3 24) scale(87.75289 39.17899)"/><path fill="#e69a89" fill-opacity=".5" d="M179 26l-12.3 26.2L145 42.1l12.3-26.3z"/><path fill="#838e9d" fill-opacity=".6" d="M258.6 112.7L271 40.9 230.9-16 248 24.6z"/><path fill="#ba806c" fill-opacity=".5" d="M150.3 125.1l-13.4 19.1-22.9 14.2 30.6-34.7z"/><path fill="#e1efff" fill-opacity=".4" d="M81 16h18v92H81z"/><circle r="1" fill="#4a5164" fill-opacity=".4" transform="matrix(-10.9075 5.65391 -12.56276 -24.23603 62.6 159.3)"/><path fill="#1b0d05" fill-opacity=".5" d="M120.9 24.9l3.5 34.6-28.3-14.9.4 8z"/><path fill="#151a1c" fill-opacity=".5" d="M128 31l24-40 2 39z"/><path fill="#de9784" fill-opacity=".5" d="M129 29l9 30-15 13z"/><path fill-opacity=".5" d="M118 80h21v56h-21z"/><circle r="1" fill="#9ea3ba" fill-opacity=".8" transform="matrix(-13.92412 7.68653 -10.36418 -18.77469 63.9 120.5)"/><path fill="#030b0f" fill-opacity=".5" d="M79 0h2v31h-2z"/><path fill="#04020d" fill-opacity=".4" d="M120.6 185l5.4-34.4L89.1 185l-5.9-24z"/><circle r="1" fill="#19202d" fill-opacity=".7" transform="matrix(-22.7328 13.93067 -17.68189 -28.85422 198.4 58.2)"/><path fill="#a5371a" fill-opacity=".4" d="M30.1 56.1l3.3 18.8L48 68.7 33.1 50.3z"/><circle r="1" fill="#f4f5f6" fill-opacity=".6" transform="matrix(-13.4433 10.978 -12.02863 -14.72988 214.5 11.9)"/><path fill="#7fa8c6" fill-opacity=".6" d="M57.3 62.7l19.5-7.9 23.6-22.5-54.6 14.8z"/><path fill="#606573" fill-opacity=".5" d="M224-19.7l11 79.2-1 .2-11-79.2z"/><path fill="#2a3243" fill-opacity=".6" d="M236.5 64.1l-84.2 20.1 74.4-47.3 1.2 12.8z"/><path fill="#090000" fill-opacity=".6" d="M101.1 77.9l33.7 54.7-30.6-84.7-4.9 21.8z"/><ellipse cx="170" cy="60" fill="#030709" fill-opacity=".3" rx="19" ry="8"/><path fill-opacity=".4" d="M142.2 151.3l48 22.4-.4 1-48-22.4z"/><path fill="#301d14" fill-opacity=".4" d="M97.5 66.1l15-40.5 14.3-3.3-26.7 50.9z"/><path fill="#f9ffff" fill-opacity=".6" d="M80.9-13.7l3.9 53.1 54.7-30.9-4.9 17z"/><path fill="#1c0000" fill-opacity=".4" d="M141 61l-7.8-29 3.8-1 7.8 29z"/><path fill="#7b7764" fill-opacity=".4" d="M-3 95.7V99l6.9-19.9L17.2 83z"/><path fill="#eaf6ff" fill-opacity=".5" d="M54.3 168.5l-7.9 6.2-22.7-29.2 7.9-6.2z"/><path fill-opacity=".5" d="M112.4 89.6l8.7 57.2 22.1-23.1 6.3-43.1z"/><path fill="#cdd0df" fill-opacity=".8" d="M95.6 48.8L48.8 67.6-16 104.8l73.2-4.3z"/><path fill="#e8f6ff" fill-opacity=".6" d="M9.5 4.8L-16 77.2l41 3.5-6-5.7z"/><path fill="#d2dfec" fill-opacity=".7" d="M9.3-16l9.9 67.3 20.3-20.5 4.9 37.5z"/><circle cx="104" cy="42" r="3" fill="#f1dbff" fill-opacity=".5"/><path fill="#dc8476" fill-opacity=".3" d="M124.7 143.7l48.5 12.6-19 28.7 7.7-24.9z"/><path fill="#fc996d" fill-opacity=".4" d="M108.8 60.4l-1.7-3 11.6 1.2.5 14.3z"/><path fill="#f5feff" fill-opacity=".5" d="M150.6 65.8l11.2 5.3-3 6.2-11.3 1.1z"/><circle r="1" fill="#484e60" fill-opacity=".5" transform="matrix(2.31233 -5.24275 20.0735 8.85347 51.1 141.4)"/><path fill="#011d2a" fill-opacity=".3" d="M14 15.4L8-5.4l9.6 64.6.6 1.8z"/><path fill="#f2f2f4" fill-opacity=".5" d="M234.6 56.8L204.2-.9l30.2 48 16.7 8z"/><path fill="#11121b" fill-opacity=".5" d="M177 24h29v29h-29z"/><path fill="#f0feff" fill-opacity=".4" d="M84 82l4 50-12-24z"/><path fill="#f9ffff" fill-opacity=".6" d="M250 0h3v25h-3z"/><ellipse cx="80" cy="21" fill="#6a6969" fill-opacity=".4" rx="2" ry="37"/><circle r="1" fill="#725e59" fill-opacity=".5" transform="matrix(5.67913 -5.1576 14.00486 15.421 182.2 0)"/><path fill="#ecf7ff" fill-opacity=".8" d="M25 0h53v38H25z"/></g></svg>