<svg xmlns="http://www.w3.org/2000/svg" viewBox="0 0 300 199"><defs/><path fill="#3b495e" d="M0 0h300v199H0z"/><g transform="translate(.6 .6) scale(1.17188)"><circle r="1" fill="#ffce86" fill-opacity=".6" transform="rotate(-62 163.7 -56.7) scale(110.69949 46.9346)"/><circle r="1" fill="#090000" fill-opacity=".9" transform="matrix(-44.91439 208.02834 -38.97011 -8.41385 239 85.6)"/><circle r="1" fill="#000415" fill-opacity=".9" transform="matrix(35.59467 -5.71803 39.24675 244.31055 20.1 94.8)"/><ellipse cx="90" cy="34" fill="#885e25" fill-opacity=".7" rx="43" ry="115"/><circle r="1" fill="#d3bd98" fill-opacity=".7" transform="rotate(12.3 -475 802) scale(30.22779 57.2009)"/><circle r="1" fill="#d1aa68" fill-opacity=".6" transform="matrix(-18.1942 6.09065 -11.48825 -34.31808 77 101.8)"/><circle r="1" fill="#986a2c" fill-opacity=".7" transform="rotate(-103.7 81 -48.8) scale(19.73957 57.14759)"/><path fill-opacity=".4" d="M139 50L97 78 10-16z"/><path fill="#dff1ff" fill-opacity=".5" d="M134 83l37 17-54 42z"/><ellipse cx="216" cy="57" fill="#0e0605" fill-opacity=".9" rx="14" ry="164"/><path fill="#a07c43" fill-opacity=".8" d="M191 185L69 143l39-20z"/><path fill="#feeccb" fill-opacity=".4" d="M193.2 116.4l12.7-96.7-20.7-2.6-8.9 48.4z"/><path fill="#fff3d9" fill-opacity=".6" d="M89 185l-22-42 68 25z"/><circle r="1" fill="#0a0400" fill-opacity=".6" transform="matrix(-4.51112 -4.35634 41.5808 -43.05818 75.3 13.6)"/><path fill="#937141" fill-opacity=".8" d="M85.5 60.5l94.6-50.9-91.3 12.8 2.3-20.2z"/><path fill="#0c0404" fill-opacity=".7" d="M169 177l47-120 55 109z"/><path fill="#010818" fill-opacity=".8" d="M-16 136.4l73.9-33.9 17.4 66.9 3.8 15.6z"/><path fill="#00000c" fill-opacity=".5" d="M119 41L89 67l47-14z"/><circle r="1" fill="#a6834b" fill-opacity=".4" transform="matrix(13.95074 -5.92116 20.43962 48.1574 150.6 57.3)"/><path fill="#dee2ee" fill-opacity=".6" d="M114.6 115.3l48.3-8.8-30 31.9-21.2-14z"/><path fill="#200500" fill-opacity=".4" d="M118-4l121 25-52-31z"/><circle r="1" fill="#190000" fill-opacity=".3" transform="matrix(-5.991 4.45608 -16.88242 -22.69763 113.4 86)"/><ellipse cx="68" cy="51" fill="#976b30" fill-opacity=".6" rx="11" ry="29"/><path fill="#c8a872" fill-opacity=".6" d="M143.5 136.8l-63-6.2 94.6 46.8.4-97z"/><circle r="1" fill="#080403" fill-opacity=".6" transform="matrix(3.52158 -.29612 3.17273 37.73074 83.4 36.6)"/><path fill="#d5a459" fill-opacity=".4" d="M68 5L49 29l3-45z"/><path fill="#b08d55" fill-opacity=".6" d="M50.9 74.5l46.6 2.6 10.9 1.2-38 67.3z"/><path fill="#613113" fill-opacity=".5" d="M107 74l19 31-28 30z"/><path fill="#dadee5" fill-opacity=".6" d="M142 112l-18-22 17-9z"/><path fill="#030712" fill-opacity=".7" d="M103.3 78.2l19.4-40.4 3.2 4.9-39.4 21.4z"/><path fill="#4a2b06" fill-opacity=".4" d="M144.9 170.7L63 140.9l2-5.6 81.8 29.8z"/><ellipse cx="127" cy="69" fill="#b09161" fill-opacity=".6" rx="17" ry="10"/><ellipse cx="20" fill="#020e20" fill-opacity=".8" rx="28" ry="100"/><path fill="#663f0a" fill-opacity=".4" d="M61 0h141v12H61z"/><path fill="#140a09" fill-opacity=".7" d="M202 59.9l-1 35.4 62.3-25L203.5 18z"/><circle r="1" fill="#e2caa1" fill-opacity=".5" transform="matrix(-4.29085 21.28023 -7.92902 -1.59877 189.7 92)"/><path fill="#d8bb89" fill-opacity=".6" d="M195.3 101.4l-19.2 59.9-2.2 5.6-18.3-31.5z"/><path fill="#000107" fill-opacity=".5" d="M41.3 68.3l34.3-55.5-18.4 7-10.6 20.6z"/><path fill="#8d6549" fill-opacity=".7" d="M165.6 83.6l-29.1-3.3-17.5 19-4-24.9z"/><path fill="#7b5334" fill-opacity=".5" d="M136 136l9 1 7-17z"/><path fill="#c09e67" fill-opacity=".4" d="M95 144l10-67-38 28z"/><path fill="#a78858" fill-opacity=".5" d="M202 15l-68 16-1 34z"/><path fill="#ebd8ba" fill-opacity=".5" d="M94 154l-14 25-10-39z"/><path fill="#15283e" fill-opacity=".6" d="M61.4 116.2l-.7 27.9-17.8-93.3 5.8 11.7z"/><path fill="#d9d9da" fill-opacity=".8" d="M117.4 117.1l10.9 24.2 24.1-22.4-15.9-19.4z"/><path fill-opacity=".7" d="M-14.8 39.7l40 .7-.4 20-40-.8z"/><path fill="#d2b992" fill-opacity=".4" d="M201.2 16.8l2.4 16.9-24.8 3.5-2.4-16.9z"/><path fill="#071830" fill-opacity=".7" d="M38.3 66.5L-16 53.9l14.4 68.3L55.4-16z"/><circle cx="121" cy="50" r="10" fill="#000722" fill-opacity=".5"/><path fill="#9c763e" fill-opacity=".5" d="M53.4 81.2L50 58.4 76.7 35 63.6 98.4z"/><path fill="#cfd3d8" fill-opacity=".6" d="M136.5 76.6l-6.6 42.8 20.5-13.9 17.8-.9z"/><path fill="#a87f43" fill-opacity=".4" d="M86.4 33.8l19.4-4.9 5.8 23.3-19.4 4.9z"/><path fill="#000007" fill-opacity=".7" d="M28.3 131.8L45.8 185l-34.7-47.9 13.8-56.7z"/><path fill="#7e6047" fill-opacity=".5" d="M136 76l19 5-5 5z"/><path fill="#dcc8a9" fill-opacity=".6" d="M174.1 109.9l14.5-77.5 12.9-9.3-1.4 53.5z"/><path fill="#7e4e27" fill-opacity=".5" d="M131 102l-27 25 12-49z"/><path fill="#775423" fill-opacity=".5" d="M120.2 81.5L65.3 62.2 74 74.5 96.3 82z"/><ellipse cx="82" cy="34" fill="#000002" fill-opacity=".7" rx="3" ry="18"/><path fill="#160a06" fill-opacity=".5" d="M198 98l-29 87h24z"/><circle r="1" fill="#ceb68c" fill-opacity=".5" transform="rotate(5.1 -707 2020.3) scale(7.64029 33.3716)"/><path fill="#1a0c00" fill-opacity=".5" d="M132-16l139 63-77.5-38.3-40.2-6.4z"/><ellipse cx="153" cy="14" fill="#8c683a" fill-opacity=".5" rx="45" ry="7"/><path fill="#7a5729" fill-opacity=".4" d="M120.4 6.9l-12.6 2.2-26.6-2 6.9 36.6z"/><ellipse cx="239" cy="13" fill="#030000" fill-opacity=".4" rx="38" ry="19"/><path fill="#0c2441" fill-opacity=".3" d="M50 51l-5-28-61 5z"/></g></svg>