<svg xmlns="http://www.w3.org/2000/svg" viewBox="0 0 300 199"><defs/><path fill="#633c40" d="M0 0h300v199H0z"/><g transform="translate(.6 .6) scale(1.17188)"><circle r="1" fill="#dbcabe" fill-opacity=".6" transform="matrix(-53.77505 -42.49254 134.5751 -170.30715 145.4 51.4)"/><circle cx="213" cy="124" r="41" fill="#947998" fill-opacity=".8"/><path fill="#0b1104" fill-opacity=".5" d="M178 63l36-79 38 109z"/><circle r="1" fill="#030700" fill-opacity=".7" transform="matrix(-22.79748 -9.19075 17.10155 -42.42009 22.3 91)"/><ellipse cx="126" cy="34" fill="#fcefc6" fill-opacity=".5" rx="72" ry="26"/><path fill="#e0ffff" fill-opacity=".5" d="M-28 169.4l59.2-46.2 30.7 39.4-59 46.2z"/><path fill="#ffffc7" fill-opacity=".6" d="M271 53l-46-20 5-49z"/><circle r="1" fill="#893400" fill-opacity=".4" transform="matrix(19.7924 10.66065 -15.81192 29.35619 57.6 107.5)"/><circle r="1" fill="#ffffd2" fill-opacity=".5" transform="matrix(-5.83801 -.8727 4.651 -31.11307 4.5 45)"/><ellipse cx="167" cy="137" fill="#735774" fill-opacity=".7" rx="31" ry="44"/><circle r="1" fill="#c8aac8" fill-opacity=".5" transform="matrix(17.85103 46.35039 -23.99881 9.24271 126.6 101.5)"/><ellipse cx="98" fill="#5f686e" rx="74" ry="8"/><path fill="#cbaacb" fill-opacity=".7" d="M81.4 74.8l102.9-4.7 38.8 14.2 39.9 33.9z"/><path fill="#47392f" fill-opacity=".9" d="M78 3.1l11.3 25.6-21.5-3.3-80.1-6.9z"/><ellipse cx="201" cy="136" fill="#020119" fill-opacity=".6" rx="43" ry="4"/><circle cx="79" cy="61" r="9" fill="#290900" fill-opacity=".6"/><circle r="1" fill="#f9fbf2" fill-opacity=".5" transform="matrix(-49.1992 12.81543 -2.78164 -10.67888 127 20.5)"/><ellipse cx="220" cy="150" fill="#552b3c" fill-opacity=".8" rx="107" ry="4"/><circle r="1" fill="#181b11" fill-opacity=".5" transform="rotate(-44.6 203.7 -254.3) scale(22.60894 36.51141)"/><circle r="1" fill="#181914" fill-opacity=".8" transform="matrix(1.47877 21.69141 -14.08144 .95998 27.8 39)"/><path fill="#ffc3a8" fill-opacity=".5" d="M60.2 28.3l44.2 1.1-6.2 16.1-52.4 28.4z"/><circle cx="212" cy="5" r="15" fill="#252c2d" fill-opacity=".7"/><circle r="1" fill="#e6e3f8" fill-opacity=".5" transform="matrix(-.05576 -3.54926 21.66406 -.34033 192.3 127.7)"/><circle r="1" fill="#896292" fill-opacity=".5" transform="matrix(-34.01963 12.81297 -7.48685 -19.87829 121.7 157.6)"/><path fill-opacity=".6" d="M41 112l-57 44 36-97z"/><path fill="#65483c" fill-opacity=".8" d="M164.7 66.6l17-13.5 85.4 47.8L206.7 78z"/><path fill="#a55d42" fill-opacity=".6" d="M107.3 95.7L14.9 68.1l77.3 48.4 6.4 6.8z"/><ellipse cx="188" cy="119" fill="#310003" fill-opacity=".5" rx="38" ry="3"/><path fill="#deab99" fill-opacity=".7" d="M101.3 118.2L85 177l-28.2-5.5 19.3-60.2z"/><circle r="1" fill="#d7c796" fill-opacity=".5" transform="rotate(144.3 66.4 44.2) scale(66.0374 16.59645)"/><path fill="#cabb9e" fill-opacity=".9" d="M-9.6 23.9L17.8 21-16 75.2l27.7-19.1z"/><circle r="1" fill="#012331" fill-opacity=".7" transform="matrix(9.18457 14.55677 -16.10948 10.16424 5 3.7)"/><path fill="#aea6c0" fill-opacity=".6" d="M198 155.3l-30.1 4 4 7.3 86-8.5z"/><path fill="#c7c1bf" fill-opacity=".6" d="M217 33.8l-43.4 15.5 37.4-9.4 42.1-1.3z"/><circle r="1" fill="#00001e" fill-opacity=".5" transform="matrix(20.64851 -4.4032 .54005 2.53251 115.8 168.9)"/><ellipse cx="233" cy="169" fill="#000b29" fill-opacity=".6" rx="59" ry="6"/><path fill="#cedcf9" fill-opacity=".5" d="M65 169l-56 3 18-53z"/><path fill="#d5cce3" fill-opacity=".5" d="M105 156h47v7h-47z"/><path fill="#2a2439" fill-opacity=".5" d="M159 95h9v75h-9z"/><path fill="#7d4f35" fill-opacity=".5" d="M70.3 116.8L19 43.2l36.5 94.4 26.6 8.2z"/><path fill="#998365" d="M249-9h12v48h-12z"/><path fill="#ffd7b1" fill-opacity=".4" d="M138.1 59.9L123 80.5l-71.9.7 17.4-10.7z"/><path fill="#e0e0f8" fill-opacity=".5" d="M207.3 123.4l37.9 3.3-.5 6-37.9-3.4z"/><ellipse cx="202" cy="113" fill="#be96b0" fill-opacity=".9" rx="31" ry="3"/><ellipse cx="131" cy="138" fill="#342342" fill-opacity=".5" rx="20" ry="3"/><path fill="#7f1d3b" fill-opacity=".6" d="M120 121h28v5h-28z"/><path fill="#ffdfed" fill-opacity=".3" d="M112.4 144.3l49.3 8.8-12.2-10.3-28.7-5.1z"/><path fill="#dbb477" fill-opacity=".3" d="M-3.9 73.9l9 .3-1.2 34-9-.4z"/><path fill="#120329" fill-opacity=".5" d="M168 105h48v3h-48z"/><ellipse cx="159" fill="#000a00" fill-opacity=".4" rx="41" ry="3"/><circle r="1" fill="#bea983" fill-opacity=".5" transform="matrix(27.02189 -15.75728 8.01757 13.7492 169.7 37.7)"/><ellipse cx="74" fill="#bdc2d3" fill-opacity=".3" rx="36" ry="6"/><path fill="#ffffc9" fill-opacity=".5" d="M228.9 2.8L247.2 8 241 29.2 222.8 24z"/><path fill="#d4bdd5" fill-opacity=".6" d="M213 100l-31-7-20 10z"/><circle r="1" fill-opacity=".5" transform="matrix(-2.37194 -.68524 1.4523 -5.0271 97.8 60.4)"/><ellipse cx="186" cy="94" fill="#8c2e4c" fill-opacity=".5" rx="21" ry="3"/><circle r="1" fill="#9c88b1" fill-opacity=".7" transform="rotate(-101.9 177.7 -41.5) scale(16.35889 11.6111)"/><path fill="#d9a6c3" fill-opacity=".4" d="M190 139h39v7h-39z"/><circle r="1" fill="#132021" fill-opacity=".5" transform="matrix(-24.50744 -34.4893 14.06663 -9.99548 255 75.8)"/><circle r="1" fill="#db9a7e" fill-opacity=".5" transform="matrix(16.72521 24.17955 -3.70043 2.55962 53 149.5)"/><path fill="#e9e3ff" fill-opacity=".3" d="M141.1 126.3l25.5 11.4-12.2-.2-40.8-6z"/><path fill="#f1f3f7" fill-opacity=".6" d="M75.4 120.5l3.4-9 11.4 2.2.9 5z"/><path fill="#2c0709" fill-opacity=".4" d="M237.2 145.8l-98.8 8.3 20.1 8.7 25.6-7z"/><path fill="#563c31" fill-opacity=".6" d="M89 15l-2 15L53-3z"/><circle r="1" fill="#213942" fill-opacity=".5" transform="matrix(-.48746 -3.14881 48.65084 -7.53155 140.2 2.1)"/></g></svg>