<svg xmlns="http://www.w3.org/2000/svg" viewBox="0 0 300 199"><defs/><path fill="#6c3d33" d="M0 0h300v199H0z"/><g transform="translate(.6 .6) scale(1.17188)"><circle r="1" fill="#b3bfc0" fill-opacity=".8" transform="matrix(-67.25305 -226.62286 79.81546 -23.6862 80.3 12.8)"/><circle r="1" fill="#b3b5ba" fill-opacity=".7" transform="matrix(-96.37354 -14.61304 8.4844 -55.95495 213.2 27.4)"/><ellipse cx="226" cy="116" fill="#000203" fill-opacity=".9" rx="47" ry="33"/><ellipse cx="21" cy="125" fill="#000305" fill-opacity=".7" rx="67" ry="13"/><path fill="#a9c2dc" fill-opacity=".7" d="M44.5 132.8l22.4 32-43.4 30.4-22.4-32z"/><circle r="1" fill="#4f1c0c" fill-opacity=".5" transform="matrix(-37.5214 4.36713 -2.05679 -17.67143 182.9 43.5)"/><ellipse cx="135" cy="108" fill="#fcfeee" fill-opacity=".5" rx="39" ry="40"/><path fill="#d8f9ff" fill-opacity=".5" d="M183 148h48v22h-48z"/><path fill="#4b0d00" fill-opacity=".4" d="M80 12l64 49-61 5z"/><ellipse cx="8" cy="110" fill="#0c0b0c" rx="12" ry="43"/><path fill="#282a29" fill-opacity=".9" d="M221-16L29.6 8.3l-2.8-1.1L10.9-16z"/><path fill="#c1dcea" fill-opacity=".5" d="M77 7L-9 6l91 114z"/><path fill="#efffff" fill-opacity=".5" d="M206 64h50v21h-50z"/><path fill="#59484c" fill-opacity=".7" d="M179 163l-70 22-33-34z"/><circle r="1" fill="#e4edf3" fill-opacity=".5" transform="rotate(140.7 67.4 32.6) scale(31.24382 25.1807)"/><circle r="1" fill="#000001" fill-opacity=".9" transform="matrix(-12.87964 -1.48296 5.4046 -46.93947 255 127.7)"/><path fill="#82928a" fill-opacity=".7" d="M84.5 63.1l1.3-29.4 27.1 80.8-43.5 47.3z"/><circle r="1" fill="#d2eaf9" fill-opacity=".6" transform="matrix(16.90057 -11.48562 7.18787 10.57663 247 26.5)"/><ellipse cx="84" cy="19" fill="#292416" fill-opacity=".6" rx="4" ry="71"/><ellipse cx="181" cy="80" fill="#74a2b0" fill-opacity=".5" rx="13" ry="35"/><path fill="#7c6b65" fill-opacity=".7" d="M162 127l7 41-57 11z"/><circle r="1" fill="#ebdab7" fill-opacity=".6" transform="matrix(30.31064 -14.84903 12.1394 24.77962 121.2 128.7)"/><circle r="1" fill="#111012" transform="matrix(-10.36794 -13.29234 22.92005 -17.87749 11.3 136.5)"/><path fill="#b6c9ce" fill-opacity=".7" d="M9 51.8l125.5 71.6L-4.1 59.9.7 36.1z"/><path fill="#500c00" fill-opacity=".5" d="M149 34l50-9 13 33z"/><path fill="#bbc2c7" fill-opacity=".5" d="M230 156l7-28 3 16z"/><circle r="1" fill="#c46b6a" fill-opacity=".5" transform="matrix(12.64942 -8.43293 5.41295 8.11945 142.5 119)"/><path fill="#c9c1cd" fill-opacity=".4" d="M-13.7 138.2l-2-3.4 43.4-25 2 3.4z"/><path fill="#b99f96" fill-opacity=".9" d="M91.3 33.1L92.9-16l39 67.1-39.6-13.2z"/><path fill="#f4ffff" fill-opacity=".3" d="M98 128.3l99.2-82.4-33.6 5.2 13.7 50.3z"/><path fill-opacity=".6" d="M17 123.8L64.8 135l20.4-22.5-51.9 8z"/><circle r="1" fill="#380000" fill-opacity=".6" transform="matrix(-1.81904 .1685 -2.13493 -23.04816 172.6 9.6)"/><path fill="#b5c5cd" fill-opacity=".6" d="M21 54h61v55H21z"/><path fill="#7a230b" fill-opacity=".5" d="M143 48l6 28-23-24z"/><path fill="#b96b5d" fill-opacity=".6" d="M208 42h48v18h-48z"/><ellipse cy="52" fill="#5d707d" fill-opacity=".6" rx="37" ry="7"/><path fill="#a1a4b6" fill-opacity=".8" d="M40 134h24v36H40z"/><circle r="1" fill="#050d11" fill-opacity=".8" transform="rotate(46.8 -.5 273.4) scale(8.94558 6.95682)"/><path fill="#455761" fill-opacity=".4" d="M176.4 62.1l1.7 60.5 6.3 31.1 15.4-100.4z"/><circle r="1" fill="#9b5c46" fill-opacity=".5" transform="rotate(-24.9 67 -303.5) scale(6.61838 17.64615)"/><circle r="1" fill="#c6edef" fill-opacity=".5" transform="matrix(1.89771 -20.31627 7.16055 .66886 183.4 5.7)"/><path fill="#85614f" fill-opacity=".6" d="M81 163.5L94.9 94l-20 22.7-5.1 27.7z"/><path fill-opacity=".6" d="M185 111h43v35h-43z"/><path fill="#383538" fill-opacity=".4" d="M238.5 21.5h-17v-27h17z"/><path fill="#cdeaff" fill-opacity=".5" d="M95 97l77-14-55-23z"/><ellipse cx="110" cy="169" fill="#0e0108" fill-opacity=".7" rx="14" ry="5"/><path fill="#000001" fill-opacity=".7" d="M239 84h17v71h-17z"/><circle r="1" fill="#3fc0d0" fill-opacity=".4" transform="matrix(9.64898 -1.32175 2.97114 21.68985 101 102.6)"/><path fill="#fff" fill-opacity=".5" d="M238 161h5v9h-5z"/><circle r="1" fill="#e2e4ec" fill-opacity=".6" transform="matrix(7.0546 -1.49462 9.14651 43.17143 14.9 0)"/><path fill="#a4b7c6" fill-opacity=".5" d="M85 47l55 51-50-24z"/><path fill="#6e493a" d="M79.1 37.9l36 8.9 23 10.7-38.6 2.2z"/><path fill="#d4e0ea" fill-opacity=".5" d="M164 103h13v49h-13z"/><path fill="#ffe9fb" fill-opacity=".3" d="M259.2 88.8L209 30.7l3.9 38.3 53.6-9.4z"/><path fill="#6c392e" fill-opacity=".6" d="M107.4 21.4l-3.3 11.2-2.4-40.4.2-8.2z"/><path fill="#c8d2da" d="M218.9 28.3l39.5-4.2-21.5 18.1-16.9-9.3z"/><circle cx="130" cy="32" r="17" fill="#deeef7" fill-opacity=".5"/><path fill="#96856d" d="M164.9 77.7L160 29.1l9.5 44.7 4.2 11.6z"/><path fill="#edfdff" fill-opacity=".5" d="M28 54L5 61l19 15z"/><path fill="#fffde0" fill-opacity=".5" d="M98 155l-.9-16 41-2 .8 16z"/><path fill="#ccd4da" fill-opacity=".5" d="M185 147h21v12h-21z"/><circle r="1" fill="#887774" fill-opacity=".8" transform="matrix(-26.40876 -13.45593 7.68069 -15.0742 166.4 169)"/><path fill="#735b5b" fill-opacity=".7" d="M223.7 37.3L180.9 3.2 206 40.1l65 14.4z"/><path fill-opacity=".5" d="M38.3 111.5l-5.9-4.4-48.4 70.7L38.3 135z"/><path fill="#b0c1cf" fill-opacity=".3" d="M45 154.1l-9-39.6 67 1.9-62.1-11.3z"/></g></svg>