<svg xmlns="http://www.w3.org/2000/svg" viewBox="0 0 300 199"><defs/><path fill="#59312e" d="M0 0h300v199H0z"/><g transform="translate(.6 .6) scale(1.17188)"><circle r="1" fill="#c4cfc5" fill-opacity=".4" transform="rotate(-79.7 155.5 -33.5) scale(101.46005 135.27036)"/><circle r="1" fill="#c2bbba" fill-opacity=".7" transform="rotate(167.7 33.5 53.8) scale(49.36756 21.21372)"/><circle r="1" fill="#290908" fill-opacity=".6" transform="matrix(-4.09176 19.48859 -29.58571 -6.21171 104.2 144.1)"/><circle r="1" fill="#cadbe6" fill-opacity=".6" transform="rotate(87.5 1.6 178.5) scale(10.90154 80.69866)"/><circle r="1" fill="#312821" fill-opacity=".9" transform="matrix(6.39566 -20.33723 16.97751 5.3391 105.3 27.2)"/><ellipse cx="145" cy="50" fill="#99a8a0" fill-opacity=".4" rx="28" ry="61"/><ellipse cx="222" cy="23" fill="#3b4b49" fill-opacity=".6" rx="69" ry="32"/><circle r="1" fill="#5a312a" fill-opacity=".3" transform="matrix(-5.0513 26.73326 -84.44485 -15.95602 175.1 132.9)"/><circle r="1" fill="#0a5733" fill-opacity=".4" transform="rotate(-84.4 41 22.3) scale(113.93046 19.4493)"/><path fill="#d6cfc7" fill-opacity=".7" d="M199.8 67.9l-9-43.5-5.5 8.5 4.2 36.4z"/><ellipse cx="97" cy="82" fill="#2a1811" fill-opacity=".4" rx="5" ry="169"/><path fill="#e4ebea" fill-opacity=".4" d="M33.3 122.4l58.9-44.8-.6-46.6-30.8 54.3z"/><path fill="#6c5e4d" fill-opacity=".6" d="M36 65.1l16.6-93.5 41.3 7.3-16.5 93.5z"/><path fill="#ffe2df" fill-opacity=".3" d="M148.9 89.7L138.4 77l26.1-13.9L163 172z"/><path fill="#fff" fill-opacity=".4" d="M103.8 97.6l7.5-2.8 12.9 33.6-7.5 2.8z"/><path fill="#e0ddda" fill-opacity=".7" d="M75.6 114l-1.7-25.9-44.4 12.4.9 18.6z"/><path fill="#3b231a" fill-opacity=".4" d="M180 76l-44 76 54-1z"/><ellipse cx="78" cy="92" fill="#462315" fill-opacity=".4" rx="4" ry="37"/><circle r="1" fill="#5d3e34" fill-opacity=".5" transform="matrix(-50.5545 -1.67707 .4521 -13.62813 252.2 74.6)"/><path fill="#d9dde4" fill-opacity=".5" d="M78 33h8v49h-8z"/><path fill="#070003" fill-opacity=".5" d="M203 150h53v7h-53z"/><circle cx="105" cy="77" r="8" fill="#d4d7e1" fill-opacity=".6"/><path fill="#2f190d" fill-opacity=".6" d="M166 73h15v14h-15z"/><ellipse cx="121" cy="66" fill="#2a0b00" fill-opacity=".3" rx="18" ry="9"/><path fill="#262a27" fill-opacity=".6" d="M134.2 46.9L132 31.1l13.8-2 2.2 15.8z"/><path fill="#724237" fill-opacity=".6" d="M53.4 184.1l54.9-15.7-32-28.4-21-4.4z"/><path fill="#cfd1d9" fill-opacity=".6" d="M153 82h15v24h-15z"/><path fill="#e5f2ed" fill-opacity=".5" d="M280.8 46.9l-62.1 19-1.5-4.8 62.1-19z"/><path fill="#faf4e4" fill-opacity=".4" d="M178.4 50.9l-28.8-10.8 24.2 27.2 8.5 3.5z"/><path fill="#804d2f" fill-opacity=".6" d="M205 176l-12-40-2 49z"/><path fill="#ebead7" fill-opacity=".3" d="M131.6 45.8l-11.1 30-5.3-23.8 15.4-33.8z"/><path fill="#2c1101" fill-opacity=".4" d="M181.9 22.4l10.2 57.8-25.6-59.8L179.4-16z"/><path fill="#32100b" fill-opacity=".6" d="M116 153.4l-15.8-68.8-.1 37.4-26 18.3z"/><circle r="1" fill="#d2a99c" fill-opacity=".5" transform="rotate(76.1 -6.9 171.2) scale(29.69408 3.15592)"/><circle r="1" fill="#88685f" fill-opacity=".7" transform="matrix(-12.13202 37.3385 -40.216 -13.06697 222 109)"/><path fill="#d5f5ff" fill-opacity=".2" d="M106 156h128v14H106z"/><path fill="#253724" fill-opacity=".4" d="M2.6 19.6L43 8l18.4 64.4L21 84z"/><path fill="#44484f" d="M202.6 11.5l-2.3 42.4 11.7 4 49.5-55.2z"/><path fill="#8c7c71" fill-opacity=".8" d="M54.1 114.4l24.1 3.3L36.4 184l-2.3-63.1z"/><path fill-opacity=".5" d="M148 106l-6-23 7 5z"/><ellipse cy="121" fill="#7d8a66" fill-opacity=".5" rx="10" ry="25"/><path fill="#fc9" fill-opacity=".2" d="M180.1 21.7L147 40l44-30.1 15.6 59.4z"/><path fill="#1e221f" d="M104.4 37.9L126.1-16H83.9l8.4 42z"/><path fill="#dfd8d3" fill-opacity=".5" d="M81 104h17v15H81z"/><path fill-opacity=".5" d="M116 62l5 18-10-8z"/><path fill="#5c3021" fill-opacity=".4" d="M143 33l19 23-16 11z"/><circle r="1" fill="#d1d7d4" fill-opacity=".5" transform="matrix(-18.80615 4.5079 -.51682 -2.15608 220.3 61.3)"/><path fill="#35261f" fill-opacity=".6" d="M205 67l56-12-25 15z"/><path fill="#061528" fill-opacity=".3" d="M285.6 37.5l-83.7 14.7-3.5-19.7 83.7-14.7z"/><path fill="#465332" fill-opacity=".5" d="M9 118h24v52H9z"/><path fill="#d6d4d1" fill-opacity=".9" d="M69.4 76L73 58.4l1.4 17.4-19 33.6z"/><circle r="1" fill="#6f5241" fill-opacity=".5" transform="matrix(-12.85885 -4.12853 12.65053 -39.4018 62.2 52.1)"/><path fill="#a69c9e" d="M134.1 74.5l-4.4 26.8-4.7 2.1-17.9-12.2z"/><path fill="#597891" fill-opacity=".4" d="M237.8 20.2l-20.3 23.4-11.3-9.8 20.3-23.4z"/><path fill="#a7a3a8" fill-opacity=".4" d="M20 78l31 3-11 19z"/><path fill="#231e25" fill-opacity=".4" d="M156.5 154.9l-11.7-1.1.7-68.5 14.5 62.1z"/><path fill="#2f422a" fill-opacity=".7" d="M81.4 180.4l-7-15L54.1 185l.2-32.3z"/><path fill="#2c150b" fill-opacity=".5" d="M222 64.3l.4 1.9-54.3 13.5-.5-1.9z"/><path fill="#a3a9b1" fill-opacity=".5" d="M135 2l18 40 6-12z"/><path fill="#5a563f" fill-opacity=".9" d="M100.8 52.8l-5.3-21.2-23-9.2-6.1-4.2z"/><path fill="#7e5845" d="M203.1 174.6l-19.4-151 7.7 135 5.4 26.4z"/><path fill="#f0f8fd" fill-opacity=".3" d="M145.3 62.4l-7.1.8 4.5-26.1 2.8 18.5z"/><path fill="#662f24" fill-opacity=".5" d="M98.8 113.4l-6.7-39.6 25.5 60.1-39.6-4.4z"/><path fill="#c49fac" fill-opacity=".5" d="M232 14l8-7-6-14z"/><path fill="#001306" fill-opacity=".3" d="M215 14L162 0l109-12z"/></g></svg>