<svg xmlns="http://www.w3.org/2000/svg" viewBox="0 0 300 199"><defs/><path fill="#514225" d="M0 0h300v199H0z"/><g transform="translate(.6 .6) scale(1.17188)"><circle r="1" fill="#c7e0e8" fill-opacity=".6" transform="rotate(-166.9 78 9) scale(255 61.7756)"/><circle r="1" fill="#7a7f66" transform="matrix(-38.10491 -11.21489 25.73183 -87.42927 63.7 93.8)"/><path fill="#1e1b02" fill-opacity=".7" d="M110.4 185l69.4-117.9-59.7 4.7-41.8-30.9z"/><circle r="1" fill="#ecfdff" fill-opacity=".4" transform="matrix(-32.61905 -7.98238 16.1369 -65.94155 229.5 56.8)"/><path fill="#1c2c28" fill-opacity=".8" d="M228 180l-41-96-97 93z"/><circle r="1" fill="#ecfaff" fill-opacity=".5" transform="matrix(-14.9996 -2.13476 5.46196 -38.37771 38 34.3)"/><circle r="1" fill="#003413" fill-opacity=".7" transform="rotate(169.5 37.7 30.7) scale(34.83168 13.30112)"/><circle r="1" fill="#f9f9ff" fill-opacity=".4" transform="matrix(-11.85228 -45.1782 8.5345 -2.23899 55 110.4)"/><circle r="1" fill="#b7baba" fill-opacity=".8" transform="matrix(96.6136 -8.4526 3.55419 40.62452 193.5 11.1)"/><path fill-opacity=".9" d="M-2.6 78.2l23.7 95-18.5 4.6-23.7-95z"/><path fill-opacity=".5" d="M163 68h33v14h-33z"/><circle r="1" fill="#1e2f35" fill-opacity=".9" transform="rotate(170.3 111.9 87) scale(62.08703 34.55825)"/><path fill="#d3e8f0" fill-opacity=".6" d="M59 24h31v16H59z"/><path fill="#010000" fill-opacity=".5" d="M-20.3 28.5l33-48.9 11.6 7.9-33 48.9z"/><path fill="#a68e68" fill-opacity=".6" d="M103.1 97.5L98 68.8l31.8-47.7 34.7 19.5z"/><circle r="1" fill="#c9d6ee" fill-opacity=".6" transform="matrix(17.00808 10.10705 -17.55367 29.53923 222.4 94)"/><ellipse cx="75" cy="161" fill="#ccbc9f" fill-opacity=".3" rx="22" ry="67"/><path fill="#cfb3ae" fill-opacity=".6" d="M155.9 89.5l-6.6-8.3 62.7 5.7-48.5 5.7z"/><circle r="1" fill="#070300" fill-opacity=".7" transform="matrix(-11.35193 -10.27186 17.60906 -19.46064 130.8 94.4)"/><path fill="#5d9590" fill-opacity=".7" d="M240 0h16v40h-16z"/><path fill="azure" fill-opacity=".5" d="M100 0h15v41h-15z"/><ellipse cx="204" cy="34" fill="#d2d3e0" fill-opacity=".5" rx="30" ry="38"/><path fill="#696043" fill-opacity=".8" d="M23.9 58.6l4.7-8-38.9 2.5L34.4 185z"/><circle cx="35" cy="90" r="9" fill="#cecbc4" fill-opacity=".7"/><path fill="#005510" fill-opacity=".3" d="M98.2 39.7l4.6-24.9-53.4 17.9L72.7-16z"/><path fill="#b7c1c5" fill-opacity=".9" d="M55.3 32.3l-44.8-25L3.7 41l43.5 19.3z"/><path fill="#3b501c" fill-opacity=".4" d="M55 112l6-54 72-30z"/><path fill="#102810" fill-opacity=".8" d="M89.8 68.5l-13.1 9.2 16.5-53.2 5.9-1.4z"/><path fill="#000703" fill-opacity=".3" d="M69.7-8L58.1 30.8 71.5 80 46.9 52.4z"/><circle r="1" fill="#4d3902" fill-opacity=".5" transform="rotate(164.8 13.4 62.2) scale(3.77036 21.53644)"/><path fill="#4c4d30" fill-opacity=".9" d="M48.4 83.6L-7.9 65.4 7 26.7l-23 13.1z"/><ellipse cx="239" cy="141" fill="#010d15" fill-opacity=".7" rx="8" ry="30"/><path fill="#7c8460" fill-opacity=".8" d="M75.4 106.7L79 60.3 30.5 93.2l35.6-10.8z"/><path fill="#4e5a6c" fill-opacity=".8" d="M262 146.2l-15.4 8.6 13.7-67.3-20 39.5z"/><path fill="#dbe3ff" fill-opacity=".3" d="M18.4 64.1l24.3 10.1 17.5 102.7-3.7-112.4z"/><path fill="#dde9ea" fill-opacity=".5" d="M82 43l10-17-25-6z"/><path fill="#c3ceda" fill-opacity=".6" d="M195 107l-1-48 61 53z"/><ellipse cx="232" cy="32" fill="#a9998c" fill-opacity=".5" rx="38" ry="8"/><path fill="#d1dcdb" fill-opacity=".5" d="M84.7 25.8L70.1-16 68.8 4l17.7 17.7z"/><path fill="#c09584" d="M153 88.8l11.4 2.6-9.4-18.2-2.6 10.6z"/><path fill="#29623e" fill-opacity=".7" d="M59.7 88.6l7.9-44.9 5.6-17.2 2.1 33.8z"/><path fill="#322013" fill-opacity=".2" d="M180.2-11.1L186.6 1l-13.7 35.2-7.4-19.5z"/><path fill="#292213" fill-opacity=".6" d="M152.4 74.1l25.4-12.8-4.2 24.4-8.2.8z"/><path fill="#61552f" fill-opacity=".5" d="M66.7 112.5L47.3 98.6l-34.1 50.6 48.6-62.7z"/><path fill="#d6cccf" fill-opacity=".5" d="M87 80h3v47h-3z"/><path fill="#23250c" fill-opacity=".7" d="M195 94l-96 25-1 66z"/><path fill="#dfe5eb" fill-opacity=".5" d="M38 0h17v43H38z"/><path fill="#546d46" d="M96-6.8l2.2 38.6 1.5-3.5L86.8-7.8z"/><path fill="#b7c4d1" fill-opacity=".9" d="M260 93.8l-54.1 27.9 29-2.3.3-44.3z"/><ellipse cx="223" cy="19" fill="#f0fcff" fill-opacity=".5" rx="24" ry="5"/><path fill="#d5dadb" fill-opacity=".6" d="M175.4 78.2l13.7 6.1-2.5 5.5-13.7-6.1z"/><path fill="#a79580" fill-opacity=".7" d="M131 72l35-6-47-59z"/><circle r="1" fill="#26350c" fill-opacity=".4" transform="matrix(-.6755 2.7789 -18.44574 -4.48386 9.9 7.4)"/><circle r="1" fill="#707055" fill-opacity=".6" transform="matrix(-7.20007 -20.07942 16.07872 -5.7655 81 162.6)"/><path fill="#685d2d" fill-opacity=".7" d="M62.4 181.2l-20.6-79.6-2.9 8 7.5 43.7z"/><path fill="#eff2ed" fill-opacity=".5" d="M130.5 16l8.1-32-4.7 19.3-25.4.1z"/><path fill="#44a1ca" fill-opacity=".6" d="M237.2 9.2L218.4-16H271l-12.3 29.8z"/><path fill="#191704" fill-opacity=".3" d="M202.1 94l-22.7-30.8-5.8-27.4 2.4 38.8z"/><path fill="#c9d1dc" fill-opacity=".6" d="M253.1 120.9L233.9 19.1l-39.1 61.4 55.3 38.7z"/><path fill="#085f12" fill-opacity=".4" d="M58 14h46v8H58z"/><path fill="#c0c5c4" d="M53 142.1l-1.7 6.4 19.4-3.2 1.4-9.2z"/><path fill="#243738" d="M202.4 118.9l-.7-6-49.5 34.2 86 15.8z"/><path fill="#101926" fill-opacity=".5" d="M252.3 118l.2-22.4 18.5 30.5-49.2-1.4z"/><path fill="#e2ba7e" fill-opacity=".3" d="M123 42.2L96.7 79.6l-1.9-23.3 17.6 29.5z"/><path fill="#7e6d4c" d="M43.8 174.2L23.1 72.9l14.3-3L13.9 88z"/></g></svg>