<svg xmlns="http://www.w3.org/2000/svg" viewBox="0 0 300 199"><defs/><path fill="#453635" d="M0 0h300v199H0z"/><g transform="translate(.6 .6) scale(1.17188)"><circle r="1" fill="#aa978f" fill-opacity=".6" transform="matrix(-3.62482 49.35326 -23.3018 -1.71143 159.8 112.5)"/><circle r="1" fill="#00060e" fill-opacity=".7" transform="matrix(-51.06285 140.35426 -41.25257 -15.00827 241.7 107)"/><path fill="#938797" fill-opacity=".6" d="M221 30l-21 64-32-107z"/><circle r="1" fill="#0e1215" fill-opacity=".7" transform="rotate(12.6 -45.7 603.6) scale(40.40631 47.52298)"/><circle cx="80" cy="147" r="61" fill="#00091a" fill-opacity=".5"/><path fill="#eec6cd" fill-opacity=".5" d="M77.5 49.7l15.8-2.4L74.5.6l-6.6 5.1z"/><circle r="1" fill="#e4cdbf" fill-opacity=".5" transform="matrix(-9.00327 11.50886 -4.60393 -3.60161 89.5 78.4)"/><circle r="1" fill="#030b0b" fill-opacity=".5" transform="rotate(-163 16.9 8.5) scale(40.07466 28.53948)"/><path fill="#ae8d6e" fill-opacity=".4" d="M127 47l39 78 19-72z"/><path fill="#b0c9e7" fill-opacity=".5" d="M24.6 124.3L14 121.6l9.5-37.9L34 86.4z"/><path fill="#bcdcff" fill-opacity=".5" d="M198 48l23-21-20 56z"/><ellipse cx="170" cy="128" fill="#acadc0" fill-opacity=".6" rx="13" ry="21"/><circle r="1" fill="#000506" fill-opacity=".5" transform="rotate(-105.1 56.7 3) scale(31.88762 13.90733)"/><ellipse cx="4" cy="151" fill="#131521" rx="24" ry="26"/><path fill="#fff9b7" fill-opacity=".4" d="M59.5 144.7l-3-2.8 16-16.6 3 2.8z"/><path fill="#00071b" fill-opacity=".6" d="M190.2 114.3l-11.7-2.7 9.3-40 11.7 2.8z"/><path fill="#060508" fill-opacity=".6" d="M120 58h16v112h-16z"/><circle r="1" fill="#090d15" fill-opacity=".5" transform="rotate(-80.1 102.7 -69.8) scale(31.17573 10.48319)"/><path fill="#000405" fill-opacity=".5" d="M0 50h22v39H0z"/><path fill="#352524" fill-opacity=".6" d="M172.5 171.1L138 149l15.6-4.6 13.8 4.4z"/><circle r="1" fill="#311c16" fill-opacity=".4" transform="matrix(28.16705 -56.43413 8.7829 4.38366 216 0)"/><path fill="#735848" d="M168.7 103.9L141 67l19.4 62.1-21-30.7z"/><path fill="#e2c082" fill-opacity=".6" d="M161 52h21v10h-21z"/><circle r="1" fill="#694e53" fill-opacity=".5" transform="matrix(5.91812 .8627 -9.30578 63.83777 105.2 124.2)"/><path fill="#fffff6" fill-opacity=".5" d="M12 118l-7 6-16-2z"/><ellipse cx="29" cy="61" fill="#e78a70" fill-opacity=".4" rx="8" ry="12"/><path fill="#e2dbc9" fill-opacity=".5" d="M168.8 89l13.4-9.6-31-4.3 5.1 16.7z"/><path fill="#f9c886" fill-opacity=".2" d="M142.1 41.9l2 51.5-8.5-31.7-13.4-20.3z"/><path fill="#6b7886" fill-opacity=".4" d="M208.8 25.6l57.7-6.1.7 7-57.7 6z"/><path fill="#acafc0" fill-opacity=".8" d="M210.5 30.2l-6 44.8-3.7 17.6-8.5 18.1z"/><path fill="#bca59e" fill-opacity=".9" d="M97.5 64.2l4.8.7-6 15.5-18.1 8z"/><path fill="#000e1c" fill-opacity=".5" d="M140 23h39v28h-39z"/><path fill="#362a22" fill-opacity=".5" d="M172 54.2l11.7 34.6 17-47.8-32.9 38.4z"/><ellipse cx="173" cy="169" fill="#7c6575" fill-opacity=".9" rx="3" ry="32"/><path fill="#7a5551" fill-opacity=".8" d="M204-16h-33l15 79z"/><circle r="1" fill="#0c090e" fill-opacity=".7" transform="matrix(3.2884 37.5865 -18.36759 1.60696 125.6 167.5)"/><circle r="1" fill="#000805" fill-opacity=".5" transform="rotate(133.4 116.8 53) scale(19.66596 6.18126)"/><path fill="#161d2c" fill-opacity=".6" d="M198.3 85.3l-22.4 14.6 13.7 40.7 5.4-82.9z"/><circle r="1" fill="#1b55b1" fill-opacity=".2" transform="matrix(-5.68579 2.53166 -21.75467 -48.85823 35.2 160.1)"/><path fill="#000209" fill-opacity=".5" d="M17 96l-5 27-14-21z"/><path fill="#e2d3e9" fill-opacity=".4" d="M140 145l10-2-9-30z"/><circle r="1" fill="#0d090d" fill-opacity=".5" transform="rotate(148.5 47.5 19.7) scale(15.54241 46.26305)"/><path fill="#16212e" fill-opacity=".5" d="M23.4 125.2L5.9 185 92.3 69.8l-48.3.1z"/><ellipse cx="90" cy="120" fill="#00080c" fill-opacity=".5" rx="10" ry="35"/><path fill="#ffc29e" fill-opacity=".5" d="M61 138h5v7h-5z"/><path fill="#ae909a" fill-opacity=".6" d="M87.7 20l-6.2 16.9L68.3 32l6.2-17z"/><circle r="1" fill="#0f0e0f" fill-opacity=".5" transform="matrix(-7.3323 -1.5051 6.19458 -30.17762 130.8 98.7)"/><path fill="#1f1c19" fill-opacity=".7" d="M24.6 19.4l74.6 37.5-35 48.8 6.4-116.3z"/><path fill="#00000a" fill-opacity=".4" d="M148.4 104.3l-1.3-5.8 22.5-4.8 1.3 5.8z"/><path fill="#b2b8ca" fill-opacity=".6" d="M156 107l16 23-2-30z"/><path fill="#15181e" fill-opacity=".8" d="M144.4 73.2L129.5-16 175 18l3.4 15.8z"/><path fill="#6174a3" fill-opacity=".4" d="M236.8 21.3l-31.4 33.3-8.4-13.4 22.8-17.9z"/><path fill="#98855c" fill-opacity=".4" d="M148 154.6l15 5.7-5 13.1-15-5.7z"/><path fill="#794c27" fill-opacity=".5" d="M151 60l9-1 4 22z"/><path fill="#4c4943" fill-opacity=".7" d="M52.8 38.8l-1.6 31-12-.6 1.6-31z"/><path fill="#7f8693" fill-opacity=".4" d="M15 132l28-62-23 19z"/><path fill="#6e5c53" fill-opacity=".9" d="M134 127l8.3 25.5-2.9-35.9-1.9-12.4z"/><path fill="#191a1e" fill-opacity=".9" d="M201.5 90.8l13.3-40.3 28.5-34.7-50.2 163.9z"/><path fill="#161615" fill-opacity=".6" d="M196.5 83.3l-6.9 16.1-13.8-36.8 3.1-4.9z"/><circle r="1" fill="#090a12" fill-opacity=".5" transform="rotate(17.7 -268.6 845.6) scale(29.43879 87.38276)"/><path fill="#ffefc4" fill-opacity=".4" d="M139 59h3v16h-3z"/><circle cx="96" cy="65" r="4" fill="#c4a2aa" fill-opacity=".6"/><path fill="#070e15" fill-opacity=".5" d="M105 65l-28 50 19 19z"/><path fill="#b69a9d" fill-opacity=".6" d="M88.1 40.5l-6.2 7.8-10-32.7-2.1-23.4z"/><path fill="#959ec5" fill-opacity=".6" d="M188.2 71.1l3 1.9 21.7-44.6-1.5 25.7z"/></g></svg>