<svg xmlns="http://www.w3.org/2000/svg" viewBox="0 0 300 199"><defs/><path fill="#544530" d="M0 0h300v199H0z"/><g transform="translate(.6 .6) scale(1.17188)"><circle r="1" fill="#d1d6da" fill-opacity=".6" transform="matrix(-241.78656 -64.66103 18.21002 -68.0926 201.4 90.8)"/><circle cx="51" cy="169" r="76" fill="#00000d" fill-opacity=".6"/><circle r="1" fill="#484011" fill-opacity=".5" transform="rotate(41 47 201) scale(27.78623 64.95301)"/><circle cx="213" cy="94" r="80" fill="#bcb8b7" fill-opacity=".7"/><path fill="#a2b5d0" fill-opacity=".5" d="M36 23l-52 75 93 13z"/><circle r="1" fill="#695634" fill-opacity=".5" transform="rotate(-67.4 205.5 -139) scale(34.2551 21.61524)"/><circle r="1" fill="#f5fbff" fill-opacity=".6" transform="matrix(7.90767 -1.93059 11.6258 47.6192 85.8 42.4)"/><path fill="#000d0f" fill-opacity=".7" d="M170.6 194.5L9.3 119.3l10.1-21.8 161.3 75.2z"/><path fill="#081004" fill-opacity=".5" d="M116 119l-11-35-14 44z"/><path fill="#271e0f" fill-opacity=".6" d="M139 0h117v17H139z"/><circle r="1" fill="#cfcdd0" fill-opacity=".5" transform="matrix(-12.85484 -15.6791 67.18782 -55.0853 173 81.4)"/><path fill="#001413" fill-opacity=".7" d="M134.6 185l-75.9-57.3-29.9-39-44.8 77.8z"/><circle r="1" fill="#935246" fill-opacity=".4" transform="matrix(10.11788 -2.22939 11.21603 50.9029 68 56.4)"/><path fill="#93a6c7" fill-opacity=".5" d="M66.5 89.5v25h-29v-25z"/><circle r="1" fill="#8e8e8f" fill-opacity=".6" transform="matrix(-36.01512 -10.8736 4.83233 -16.00546 168.5 148.5)"/><circle r="1" fill="#757a5a" fill-opacity=".6" transform="matrix(9.83922 -2.27793 10.6908 46.17744 12.6 15.3)"/><path fill="#b3bfca" fill-opacity=".8" d="M-.3 38.6l-15.7 62 17.8 5.6 18.6-14.7z"/><circle r="1" fill="#bfbcbd" fill-opacity=".8" transform="rotate(144.1 110.3 54) scale(19.31231 20.23509)"/><ellipse cx="118" cy="14" fill="#717657" fill-opacity=".5" rx="27" ry="65"/><path fill="#a18d65" fill-opacity=".6" d="M125 19h40v31h-40z"/><path fill="#403229" fill-opacity=".5" d="M70 96h21v32H70z"/><circle r="1" fill="#e6effc" fill-opacity=".6" transform="matrix(4.99304 24.05162 -2.48786 .51647 89.3 83.5)"/><ellipse cx="66" cy="60" fill="#e3b9b4" fill-opacity=".5" rx="6" ry="20"/><path fill="#7b7f7e" fill-opacity=".6" d="M218.3 185l-101.9-45 17.1-47.8-28.2 29.8z"/><path fill="#200800" fill-opacity=".6" d="M72.3 77.9l.4-14 7 .2-.4 14z"/><circle r="1" fill="#ebfafd" fill-opacity=".3" transform="matrix(13.2019 -5.67361 4.02253 9.36 67 9.9)"/><path fill="#481806" fill-opacity=".5" d="M57 24h10v17H57z"/><path fill="#051413" fill-opacity=".9" d="M54.4 121.1L-16 106.8 48.3 185l35.1-80.4z"/><path fill="#3a2b17" fill-opacity=".5" d="M143 0h67v19h-67z"/><path fill="#b5c4e2" fill-opacity=".5" d="M205 185l14-47 52 13z"/><path fill="#b7bdd0" fill-opacity=".7" d="M50.4 100.4L20.5 5l15.9 10.6 14.3 31.8z"/><ellipse cx="180" cy="75" fill="#d4d2d2" fill-opacity=".4" rx="21" ry="46"/><path fill="#ab9c88" fill-opacity=".4" d="M202 80l64-11-89 86z"/><path fill="#917676" fill-opacity=".6" d="M61.3 90.6l-8-38.2 33.8 57.4-2 4.9z"/><path fill="#000400" fill-opacity=".6" d="M106 98l-34 51 21-12z"/><path fill="#5d5949" fill-opacity=".4" d="M43.9 92.6L22.5 66.9l7.1 18-21.1 24.2z"/><path fill="#686844" fill-opacity=".5" d="M100 80l61-31-65-24z"/><path fill="#040d0d" fill-opacity=".9" d="M10.5 185l182.4-13.9-42.8-6.8-22.6-21.2z"/><circle cx="255" cy="169" r="4" fill="#00130d" fill-opacity=".7"/><path fill="#e3eafc" fill-opacity=".3" d="M86.3 14l13.3 76.9 12.3-12.1-20.8 39.1z"/><path fill="#1a1403" fill-opacity=".6" d="M227.8 7.6l11.6-21 42.8 23.8-11.6 21z"/><path fill="#041d37" fill-opacity=".3" d="M94.3 41.2l.4-5 12.5-14.3 17 11.5z"/><path fill="#564038" fill-opacity=".7" d="M73.5 128l18.7-.4-19.9-63 19.1 39.9z"/><path fill="#a6976c" fill-opacity=".5" d="M101 64h14v31h-14z"/><path fill="#cac6cc" fill-opacity=".4" d="M209 36l29 45 22-61z"/><path fill="#0f1b15" fill-opacity=".5" d="M0 116.2l41.4 5.9-5.4-29-21.6 7.1z"/><path fill="#945a4e" fill-opacity=".5" d="M76.6 31.3L60.3 27l1.4 14.1 17.2 6.1z"/><path fill="#a6a091" fill-opacity=".5" d="M127 70l-4 50 53-96z"/><path fill="#585b4c" fill-opacity=".3" d="M124.2 144l17.3-25.6 8.3 5.5-17.3 25.7z"/><path fill="#7f5e30" fill-opacity=".5" d="M112 56l56-28-46 47z"/><path fill="#2b0000" fill-opacity=".5" d="M146.4 18.7l-.8-21 14-.4.8 21z"/><path fill="#848262" fill-opacity=".5" d="M41 20L23-4l50 30z"/><circle cx="104" cy="7" r="20" fill="#81958c" fill-opacity=".4"/><path fill="#cca499" fill-opacity=".5" d="M61 74l15 17-3-46z"/><path fill="#aea592" fill-opacity=".5" d="M224 12l-18 34-4-26z"/><path fill="#404440" fill-opacity=".6" d="M94.4 132.8l20.2-10.9-16.1-43.1 5.5 27z"/><path fill="#1d280b" fill-opacity=".5" d="M118 31h4v25h-4z"/><path fill="#381d15" fill-opacity=".5" d="M75 40.1l3 21.3 1.7 18.9-4.6-5.5z"/><path fill="#9d8e69" fill-opacity=".4" d="M132.4 12.2L125 56.4l63.8-40.1-32.1 8.5z"/><path fill="#8e979d" fill-opacity=".5" d="M21 95l22-8-20-33z"/><path fill="#b5b1a9" fill-opacity=".4" d="M144.3 64.9l-44 19.4 92.3 55.4-54.2 10.9z"/><path fill="#041414" fill-opacity=".6" d="M0 114h78v30H0z"/><path fill="#2b1910" fill-opacity=".4" d="M54 17l5 19 5-7z"/><circle r="1" fill="#433d29" fill-opacity=".8" transform="matrix(12.29628 -4.25645 5.09838 14.7285 175.4 4.3)"/><circle cx="254" cy="108" r="18" fill="#807159" fill-opacity=".5"/></g></svg>