<svg xmlns="http://www.w3.org/2000/svg" viewBox="0 0 300 199"><defs/><path fill="#3c3c3c" d="M0 0h300v199H0z"/><g transform="translate(.6 .6) scale(1.17188)"><circle r="1" fill="#fff" fill-opacity=".6" transform="rotate(-14.7 148 -270.8) scale(48.12078 112.08872)"/><ellipse cx="204" cy="110" fill="#020202" fill-opacity=".9" rx="76" ry="169"/><circle r="1" fill-opacity=".5" transform="matrix(149.71827 44.64752 -10.74933 36.04614 0 132.3)"/><circle r="1" fill="#818181" fill-opacity=".8" transform="matrix(-6.35223 32.97886 -24.79065 -4.77506 104 116.7)"/><circle cx="76" cy="23" r="51" fill="#ebebeb" fill-opacity=".5"/><path fill="#fff" fill-opacity=".3" d="M64 138.7l-17.6 1.1-8.5-2L62.2 20.1z"/><circle r="1" fill-opacity=".8" transform="matrix(-15.10833 -104.00696 13.74874 -1.99718 0 17.3)"/><path fill="#efefef" fill-opacity=".5" d="M18.9 25.6l7-.2 1.2 71-7 .2z"/><circle r="1" fill="#323232" fill-opacity=".7" transform="matrix(-6.96612 -1.43964 4.29503 -20.78281 100.6 81.8)"/><path fill="#b7b7b7" fill-opacity=".4" d="M168.5 35l-22 1-1-21 22-1z"/><path fill="#181818" fill-opacity=".9" d="M150.4-16L128 12.8l-4.9 57.4 17.2 33.8z"/><path fill="#545454" fill-opacity=".4" d="M54.8 40.2l.4-11 74 2.6-.4 11z"/><path fill="#f0f0f0" fill-opacity=".9" d="M84.1 85.4l14.4-33.6-51.9-10.1 3.8 43.8z"/><path fill="#d3d3d3" fill-opacity=".5" d="M127 82l-19 37 21 20z"/><path fill="#bdbdbd" fill-opacity=".6" d="M53 112L27 52l44 53z"/><path fill="#505050" fill-opacity=".7" d="M44.3 42l7.3 59.5-4 .5-7.2-59.5z"/><ellipse cx="98" cy="119" fill="#424242" fill-opacity=".7" rx="5" ry="26"/><circle r="1" fill-opacity=".8" transform="matrix(27.9759 61.02613 -20.95312 9.60543 12 144.5)"/><path fill="#d5d5d5" fill-opacity=".5" d="M17 0h110v25H17z"/><path fill-opacity=".6" d="M49 120L28 59l3 74z"/><ellipse cx="98" cy="1" fill="#898989" fill-opacity=".6" rx="37" ry="7"/><path fill="#f0f0f0" fill-opacity=".5" d="M55.2 114.9l44-11.3-54.9-2 2.7 11.7z"/><path fill="#343434" fill-opacity=".5" d="M89.3 130l-11.8 12.2L56.7 122l11.8-12.2z"/><path fill-opacity=".7" d="M45.8 194l-4-38.7 108.4-11.4 4 38.8z"/><path fill="#202020" fill-opacity=".5" d="M82.9 91.5L106.1 72l4.7-2.9-3.9-10.5z"/><ellipse cx="224" cy="74" fill="#515151" fill-opacity=".6" rx="2" ry="73"/><path fill="#949494" fill-opacity=".6" d="M93.9 152.2l4.7-115.4-16.9 110.3 9.4 3.1z"/><path fill="#fff" fill-opacity=".3" d="M101.5 54l21.9 28.6-1.5-78.7 8.4 38.8z"/><path fill="#a8a8a8" fill-opacity=".5" d="M23.2 110.4l-3-33.8 5.4-25.1 3 66.3z"/><path fill="#eee" fill-opacity=".6" d="M110.2 14.9L33.3 4l9.4 24 58.7 1.5z"/><path fill="#1a1a1a" fill-opacity=".4" d="M153.5 32.5l-117-2v-1l117 2z"/><path fill="#060606" fill-opacity=".6" d="M32.8 48.3l-1 8.6-8.5-6 1.8-9.3z"/><path fill="#151515" fill-opacity=".5" d="M179.3 30.8L123.6 44l-.8 14.3.4 22z"/><path fill="#060606" fill-opacity=".7" d="M168 11l-21 11-18-34z"/><path fill="#c1c1c1" fill-opacity=".7" d="M57.3 117.2l-9.5-12.1-4.6-58.9-14.7 12.3z"/><path fill="#fdfdfd" fill-opacity=".3" d="M88.6 105.8l-19.2-7 8.3 36.4-14.1 4.5z"/><path fill="#222" fill-opacity=".5" d="M83 86h4v19h-4z"/><path fill="#fff" fill-opacity=".5" d="M118 93h11v10h-11z"/><path fill="#434343" fill-opacity=".5" d="M134 89l-17-7-3 10z"/><path fill="#a6a6a6" fill-opacity=".5" d="M125.9 107l1.3 36.5-12.7 1.3-10-57.6z"/><path fill="#040404" fill-opacity=".8" d="M-16 107l37-12-8-110z"/><path fill="#1c1c1c" fill-opacity=".4" d="M84.9 115.2l-30.3 5.7 27 14.5 4.1-16.5z"/><ellipse cx="20" cy="6" fill="#8a8a8a" fill-opacity=".6" rx="4" ry="60"/><path fill="#fff" fill-opacity=".4" d="M110 55h5v36h-5z"/><path fill-opacity=".4" d="M124 107L232-16l-63 192zm-61 4l12 46-17-1z"/><path fill-opacity=".1" d="M52.5 102.2l-7.7-15.6 25 1.5 2.3 12.1z"/><path fill="#7b7b7b" fill-opacity=".6" d="M158 37.4l-11 1.1-1-9.9 11-1.1z"/><path fill="#fff" fill-opacity=".3" d="M64 119.5l30-23.3-1.6-7.9-13 31.3z"/><path fill="#050505" fill-opacity=".5" d="M32 113l22 16-19-60z"/><path fill="#adadad" fill-opacity=".6" d="M55 132l-21-4 9 8z"/><path fill="#222" fill-opacity=".8" d="M126.6 24.7l8.6-33.1-1.9 100.7-3.2 6.5z"/><path fill="#050505" fill-opacity=".4" d="M105 73L85 86l6-9z"/><path fill-opacity=".6" d="M23 137l25-1 21 13z"/><path fill="#d6d6d6" fill-opacity=".4" d="M126.8 44.2l-24.7-27.9 38-27.3-15.5 22.1z"/><path fill="#fff" fill-opacity=".5" d="M122.8 53.3l-4.4 30.8 7.7-1.2-7-24.9z"/><path fill="#bababa" fill-opacity=".5" d="M47 33h30v15H47z"/><ellipse cx="224" cy="41" fill="#fff" fill-opacity=".2" rx="1" ry="49"/><ellipse cx="116" cy="62" fill="#9b9b9b" fill-opacity=".9" rx="2" ry="16"/><path fill="#f5f5f5" fill-opacity=".2" d="M49.9 143.8l7.3-11.9 1.4-24.5.3-7.3z"/><path fill="#040404" fill-opacity=".3" d="M69 31.8v-1l78 1.4v1z"/><ellipse cx="255" cy="125" fill="#040404" fill-opacity=".7" rx="32" ry="115"/><path fill="#636363" fill-opacity=".6" d="M37.5 151.5v-5h13v5z"/><path fill="#606060" fill-opacity=".5" d="M95.9 101.3l-1.5-62.9 11.9 73-21.2-4.4z"/><ellipse cx="223" cy="147" fill="#878787" fill-opacity=".4" rx="1" ry="36"/></g></svg>