<svg xmlns="http://www.w3.org/2000/svg" viewBox="0 0 300 199"><defs/><path fill="#5d4537" d="M0 0h300v199H0z"/><g transform="translate(.6 .6) scale(1.17188)"><path fill="#f7f4f3" fill-opacity=".6" d="M238 79.5l43 29-85 126-43-29z"/><circle r="1" fill="#c6d0c2" fill-opacity=".5" transform="matrix(-6.10398 16.54695 -65.20147 -24.05206 204.6 39.5)"/><circle cx="74" cy="113" r="102" fill="#192b36" fill-opacity=".5"/><circle r="1" fill="#a3acca" fill-opacity=".5" transform="matrix(3.04494 -34.75377 18.1278 1.58826 69.1 87.2)"/><ellipse cx="206" cy="151" fill="#fbffff" fill-opacity=".4" rx="23" ry="33"/><ellipse cx="204" cy="15" fill="#b3ac97" fill-opacity=".8" rx="14" ry="33"/><circle r="1" fill="#907d6e" fill-opacity=".8" transform="rotate(5.1 -1458 2919.4) scale(20.1428 43.67301)"/><circle r="1" fill="#e9dbec" fill-opacity=".4" transform="matrix(6.52173 14.78674 -23.16088 10.21516 232.1 61.3)"/><ellipse cx="161" cy="132" fill="#1a0001" fill-opacity=".6" rx="16" ry="67"/><circle r="1" fill="#972b2b" fill-opacity=".5" transform="matrix(-.86597 62.0166 -13.41933 -.18738 181.2 76.3)"/><path fill="#edd1bf" fill-opacity=".5" d="M119.3 141l-19 11-7.6-13 19-11z"/><path fill="#1b2328" fill-opacity=".9" d="M237 0h19v45h-19z"/><path fill="#e3ffff" fill-opacity=".4" d="M165 58h14v17h-14z"/><circle r="1" fill="#070707" fill-opacity=".4" transform="rotate(-16.3 355 -57.7) scale(22.15096 56.11607)"/><path fill="#590000" fill-opacity=".3" d="M223.7 85.4l10.2 27.8-17.1 10.7-58.1-11.7z"/><ellipse cx="105" cy="162" fill="#131214" fill-opacity=".7" rx="51" ry="14"/><path fill="#dfd2cc" fill-opacity=".4" d="M127 157l8-49-13 26z"/><path fill="#b4d8ff" fill-opacity=".6" d="M53 88.6l8-22.7 16 5.5-7.8 22.7z"/><path fill="#ffbdaf" fill-opacity=".4" d="M7.4 103.9l-12.8 35 29.8-22.8-9.1 9.4z"/><path fill="#fbfffd" fill-opacity=".5" d="M151 12l-20 10 23 4z"/><circle r="1" fill="#526a81" fill-opacity=".6" transform="rotate(71.2 -12.6 16) scale(28.39103 11.2451)"/><circle r="1" fill="#92643e" fill-opacity=".4" transform="matrix(-6.2092 2.25997 -20.23594 -55.59779 74.1 63.1)"/><ellipse cx="229" cy="68" fill="#200c1b" fill-opacity=".5" rx="3" ry="22"/><path fill="#516953" fill-opacity=".5" d="M153 0h38v55h-38z"/><path fill="#756b5b" fill-opacity=".5" d="M199.9 127.5l-33.4 15.8 18.6 41.7H182z"/><path fill="#e4e9f1" fill-opacity=".6" d="M241.9 44.2l-11.1-2.9 3 24.9 37.2-1.6z"/><ellipse cx="61" cy="120" fill="#255489" fill-opacity=".6" rx="6" ry="32"/><path fill-opacity=".5" d="M229 82l-17 39 2-35z"/><path fill="#453c14" fill-opacity=".4" d="M198 36h11v23h-11z"/><ellipse cx="236" cy="95" fill="#e9d5d5" fill-opacity=".5" rx="6" ry="23"/><circle cx="118" cy="119" r="11" fill-opacity=".5"/><path fill="#a0724d" fill-opacity=".5" d="M140.6 67l2.7 31-12 1-2.6-31z"/><path fill="#e8d7c7" fill-opacity=".4" d="M161 15h9v32h-9z"/><path fill="#e3d9d9" fill-opacity=".5" d="M127 101h-8l14 16z"/><circle r="1" fill="#515c4d" fill-opacity=".8" transform="matrix(-41.8481 11.35082 -5.85101 -21.57145 125 0)"/><path fill="#692607" fill-opacity=".5" d="M249.3 98.1l11.8 8.2-19.5 20.2-.2-7.2z"/><path fill="#fff" fill-opacity=".5" d="M181 23l-4-12h6z"/><path fill="#b4f2ff" fill-opacity=".5" d="M68 106h9v14h-9z"/><path fill="#595044" d="M74.4 72l10.4 4.5-2-92.5-4.6 73z"/><path fill="#443b34" d="M247.9 64l23.1 41.6-32.6-37 8.1-2.3z"/><circle cx="152" cy="145" r="25" fill="#252220" fill-opacity=".5"/><path fill="#c8b4a7" fill-opacity=".4" d="M107 148l26-20-48 14z"/><path fill="#2a1407" fill-opacity=".5" d="M217.7 48l-.4-22h5l.4 22z"/><path fill="#e6ebf6" fill-opacity=".5" d="M188 169.8l15.2-49.8 26.8 8.2-15.2 49.8z"/><ellipse cx="180" cy="105" fill="#9a0005" fill-opacity=".4" rx="13" ry="29"/><circle r="1" fill="#22323a" fill-opacity=".5" transform="rotate(-114.1 26.1 -9.2) scale(13.67034 35.19028)"/><path fill="#a1a0a4" fill-opacity=".5" d="M98 119l-16 25-2-14z"/><circle r="1" fill="#2a2c2d" fill-opacity=".8" transform="matrix(3.0053 -22.82756 16.90272 2.22528 238.6 6.5)"/><path fill="#030508" fill-opacity=".5" d="M149 65h18v69h-18z"/><ellipse cx="194" cy="41" fill="#fdfff0" fill-opacity=".5" rx="3" ry="13"/><path fill="#edded7" fill-opacity=".5" d="M87 104h6v9h-6z"/><circle r="1" fill="#0f1613" fill-opacity=".5" transform="rotate(-94.8 71.8 -25.3) scale(23.10093 11.93462)"/><circle r="1" fill="#342518" fill-opacity=".4" transform="matrix(7.73818 -21.85166 5.63144 1.99422 178.8 37.5)"/><ellipse cx="185" cy="86" fill="#df3f42" fill-opacity=".4" rx="5" ry="32"/><circle r="1" fill="#192617" fill-opacity=".5" transform="rotate(60.5 -129.6 81) scale(19.88472 61.19886)"/><path fill="#c2a391" fill-opacity=".5" d="M208.1 42.6l7.6 1.3-7.2 42.9 12.5-5.5z"/><circle r="1" fill="#939090" transform="matrix(9.24074 16.10172 -29.70526 17.04778 255 169)"/><path fill="#535640" fill-opacity=".7" d="M112.5 54.5l-.1-7.3 63.8-29.4-39.5 40.1z"/><path fill="#ec996f" fill-opacity=".5" d="M114.8 62l.4 22h-4l-.4-22z"/><path fill="#b58777" fill-opacity=".5" d="M249 91l-20.3-5.4L231 77l20.3 5.5z"/><path fill="#c6836f" fill-opacity=".5" d="M59 50h19v12H59z"/><path fill="#1d1916" fill-opacity=".6" d="M63 60L39 86l12-38z"/><path fill="#182021" fill-opacity=".9" d="M255.3 53.5l-11.7-27.2 3.2-19.9L271 34.3z"/><path fill="#f3f8ff" fill-opacity=".4" d="M220.9 2.7l17.1-12-52.4 17 20.2-2.3z"/><path fill="#cac8bc" fill-opacity=".6" d="M223.7 24l-37.4 11.3-1.4-4.4 4.8-3.3z"/></g></svg>