<svg xmlns="http://www.w3.org/2000/svg" viewBox="0 0 300 199"><defs/><path fill="#7a573c" d="M0 0h300v199H0z"/><g transform="translate(.6 .6) scale(1.17188)"><circle r="1" fill="#c8ced9" fill-opacity=".6" transform="rotate(-74.1 129.7 -7) scale(94.73699 254.99999)"/><circle r="1" fill="#fffff7" fill-opacity=".7" transform="matrix(-20.57089 3.3925 -16.66772 -101.06688 234 137.6)"/><ellipse cx="159" cy="46" fill="#63615b" fill-opacity=".6" rx="91" ry="61"/><circle r="1" fill="#faf7f8" fill-opacity=".6" transform="matrix(-26.2213 62.99262 -27.66506 -11.51585 14.7 91.6)"/><ellipse cx="186" cy="169" fill="#361901" fill-opacity=".6" rx="29" ry="30"/><circle r="1" fill="#071f20" fill-opacity=".5" transform="matrix(-28.82342 1.4453 -.9365 -18.67668 99.3 74.6)"/><circle r="1" fill="#fff6e0" fill-opacity=".4" transform="matrix(12.01863 .10489 -1.02594 117.5609 233.9 54.6)"/><path fill="#392719" fill-opacity=".5" d="M141.4 33.1l60.9 90.6 5.3-8.2-8.9-63.9z"/><circle r="1" fill="#dff0f9" fill-opacity=".5" transform="matrix(-11.4073 -17.57593 11.7916 -7.65309 137.2 56.7)"/><circle cx="139" cy="12" r="26" fill="#02192c" fill-opacity=".4"/><circle r="1" fill="#a7a8ad" fill-opacity=".7" transform="matrix(55.99486 -50.59524 16.42449 18.17734 23.8 5.5)"/><path fill="#440400" fill-opacity=".6" d="M84 0h15v46H84z"/><circle r="1" fill="#b37740" fill-opacity=".6" transform="rotate(-125.1 139 -32.4) scale(30.44145 19.7682)"/><circle r="1" fill="#911d00" fill-opacity=".4" transform="matrix(-18.55078 -.42098 .31606 -13.92732 64.4 89.3)"/><path fill="#b7b5b9" d="M102.6 101.6l-61.9 6.6 80.2 12.9 21.8-47z"/><circle r="1" fill="#edf6fc" fill-opacity=".7" transform="matrix(18.2772 48.62572 -12.01207 4.51504 6.7 161.4)"/><path fill="#f0ebf6" fill-opacity=".4" d="M135 185l53-94-45 10z"/><path fill="#fff" fill-opacity=".5" d="M118 56l-21-3 8-15z"/><path fill="#5b4534" d="M174.7 114.8l2.6 66.9 39.9-22.2-24.7-12.5z"/><path fill="#615d66" fill-opacity=".6" d="M96 185l38-92 7 44z"/><ellipse cx="240" cy="138" fill="#fff" fill-opacity=".4" rx="46" ry="18"/><path fill="#f49d7e" fill-opacity=".4" d="M48 12h34v64H48z"/><path fill="#fffffd" fill-opacity=".5" d="M239 68h10v30h-10z"/><path fill="#b47d63" fill-opacity=".5" d="M9 125l59-34-45 74z"/><path fill-opacity=".5" d="M72 67l56 5-28-16z"/><path fill="#bfd9de" fill-opacity=".3" d="M83 72h21v40H83z"/><path fill="#fff" fill-opacity=".5" d="M224 66l-19 7 11-33z"/><path fill="#d4d7dc" fill-opacity=".8" d="M47.9 129.7l3.5 25 21.8 21.6-30.5-3.2z"/><ellipse cx="251" cy="84" fill="#8d4e15" fill-opacity=".5" rx="4" ry="37"/><ellipse cx="7" cy="85" fill="#f3fcff" fill-opacity=".6" rx="13" ry="38"/><circle r="1" fill="#343e34" fill-opacity=".5" transform="matrix(5.98368 5.34 -18.1554 20.34386 173 76.2)"/><ellipse cx="204" cy="26" fill="#8a7c6a" fill-opacity=".8" rx="13" ry="26"/><ellipse cx="95" cy="148" fill="#8f888e" fill-opacity=".6" rx="39" ry="28"/><path fill="#473521" fill-opacity=".6" d="M41.2 185H4.3l16.1-2.6 23.4-32.9z"/><path fill="#79441a" fill-opacity=".6" d="M217.6-6.1l47.9 7.6-5 116L237.1 23z"/><path fill="#e2c0b3" fill-opacity=".6" d="M10.6 118.4L53.5 63 48 101.3l-23.8 51.3z"/><path fill="#d8733f" fill-opacity=".4" d="M170 78l41 40-12 19z"/><circle r="1" fill="#f5f7f7" fill-opacity=".8" transform="rotate(-18.5 562.9 -650) scale(19.2927 54.06794)"/><path fill="#dfe9f4" fill-opacity=".6" d="M165 185l-21-43-20 31z"/><path fill="#d0eeff" fill-opacity=".2" d="M121.2 54.4L156 83.2 103 2.3 99.3 55z"/><path fill="#691f0f" fill-opacity=".4" d="M67.2 24.5l3.7 13.2L75.8 18 26.5-9.6z"/><path fill="#edc6b1" fill-opacity=".5" d="M24.9-16l29.8 31.3 23.2 31.8-9.6 20z"/><path fill="#edc1b3" fill-opacity=".6" d="M165 96l29 45 13-8z"/><path fill="#c09b71" fill-opacity=".7" d="M236.5 76.7l-38.4 1.2 32.2 13.2 15.2-15.2z"/><path fill="#2f0a00" fill-opacity=".5" d="M52 33l8 24-7-6z"/><path fill="#261703" fill-opacity=".5" d="M174 80l34 34-24-44z"/><ellipse cx="163" cy="34" fill="#506d80" fill-opacity=".4" rx="12" ry="37"/><path fill="#481e01" fill-opacity=".3" d="M6.2 125.6l22.7 32.2-6.5 3.2-7.8-13.9z"/><path fill="#091e1c" fill-opacity=".4" d="M128.9 59.7l-7-3.4-17.4 40.4 15.3-5z"/><path fill="#fcffff" fill-opacity=".5" d="M56 20L40 33l-4 36z"/><path fill="#feb997" fill-opacity=".4" d="M222.6-13.7L205.1 9.7l33.4 18.1-9.5-15.6z"/><path fill="#524849" fill-opacity=".7" d="M135.4 88.1l1.1 54.5-6.5-28.7-.5 14.7z"/><path fill="#6e3319" fill-opacity=".4" d="M27.6 157.9l4.8-4.3 5.7-6.2 9.7-45.1z"/><path fill="#82a4a6" fill-opacity=".6" d="M125.7 88.4l.6-18 32 1.2-.6 18z"/><path fill="#3f1100" fill-opacity=".4" d="M84 86l-18 19 11-40z"/><path fill="#5e524a" d="M206.7 72.3l-10.3 12.9-25.8-27.8 38-2.6z"/><path fill="#b3816c" fill-opacity=".4" d="M155 120l19-45 16 22z"/><path fill="#a35b3c" fill-opacity=".5" d="M77.1 60.2l3.1-35.9 18.4 24.9L97 55z"/><path fill="#f4f9ff" fill-opacity=".5" d="M86.6 101.5l-13-3.7-.3 9.4 15-19.2z"/><path fill="#f0eae9" fill-opacity=".6" d="M220.6 87.8l50.4 52.7-32 4.3-36-59.3z"/><path fill="#5a412e" fill-opacity=".6" d="M218.8 167.4l-46.2-24.7 11.7-3.1 31 13.7z"/><path fill="#feffff" fill-opacity=".5" d="M210 58l7-22 12-3z"/><path fill="#9c6b3c" fill-opacity=".6" d="M223 44h33v21h-33z"/><path fill="#b7a6a2" fill-opacity=".4" d="M18.1 56.3l17 33.8 31-22.5 32.4 21.9z"/><path fill="#806f5c" fill-opacity=".6" d="M214.4 39.7l-11.7-17.4 14.9-10 11.7 17.4z"/></g></svg>