<svg xmlns="http://www.w3.org/2000/svg" viewBox="0 0 300 199"><defs/><path fill="#402c23" d="M0 0h300v199H0z"/><g transform="translate(.6 .6) scale(1.17188)"><circle r="1" fill="#f4f2f6" fill-opacity=".8" transform="rotate(151 52 102.1) scale(94.35226 72.92567)"/><circle r="1" fill="#c6b0a7" fill-opacity=".9" transform="matrix(31.34303 -17.65663 18.47988 32.80443 170.6 95.6)"/><circle r="1" fill="#ffd2bc" fill-opacity=".4" transform="matrix(-17.51428 .15779 -.33884 -37.6112 159.4 64.5)"/><circle cx="217" cy="157" r="39" fill="#dce3e8" fill-opacity=".4"/><path fill="#782d18" fill-opacity=".6" d="M154.8 137.3l17.9-1.5 2.5 28.9-17.9 1.5z"/><circle cx="88" cy="52" r="61" fill="#5e4d42" fill-opacity=".6"/><circle r="1" fill="#e8f3fc" fill-opacity=".5" transform="rotate(17 -459.8 449) scale(33.20994 49.56474)"/><path fill="#5e3f2d" fill-opacity=".7" d="M176 0h71v74h-71z"/><path fill="#0f1100" fill-opacity=".6" d="M205 77h51v29h-51z"/><path fill="#1c0c02" fill-opacity=".6" d="M58.8 163.9l-37.5 31.4-68.1-81.2 37.5-31.4z"/><path fill="#513c2f" fill-opacity=".8" d="M110 0h30v101h-30z"/><path fill="#d7c0b6" fill-opacity=".5" d="M140 69h68v20h-68z"/><path fill="#484b4c" fill-opacity=".8" d="M48.3 130.5l59.1-44.6 10.3 13.6-59.1 44.6z"/><path fill="#796459" fill-opacity=".6" d="M271 173.3l-51.8-52 6.4 14.7 26.9 49z"/><circle r="1" fill="#2b1705" fill-opacity=".5" transform="matrix(8.69161 -.94306 3.42833 31.59693 187.6 47.5)"/><path fill="#7b432a" fill-opacity=".5" d="M162 134l-3-32-12 3z"/><path fill="#d7d7db" fill-opacity=".7" d="M157.2 104.1l31.3 80.9 56.2-18.2-26.6-29.3z"/><circle cx="255" cy="95" r="35" fill="#161807" fill-opacity=".6"/><path fill="#f5b7a1" fill-opacity=".6" d="M154.4 55.8l-.2 1.8 2.2-25.8 14.2 16.4z"/><path fill="#7c5a43" fill-opacity=".5" d="M186-16L97 1l117 10z"/><path fill="#7a655c" fill-opacity=".4" d="M78.6 12.5L65.2 32.4 25.4 5.5l13.4-19.9z"/><path fill="#512d19" fill-opacity=".5" d="M147.7 44.7l14.6 12.5 1 10.1-35.1-13.5z"/><circle r="1" fill="#311e0f" fill-opacity=".4" transform="matrix(20.79693 -28.62452 42.43052 30.82758 9.5 48.2)"/><ellipse cx="143" cy="101" fill="#e8e3e6" fill-opacity=".7" rx="3" ry="33"/><circle r="1" fill="#d7e3ec" fill-opacity=".5" transform="matrix(14.64419 -11.6903 4.91316 6.15461 68.7 164.8)"/><path fill="#581200" fill-opacity=".4" d="M160 154.8l-7.8 30.2 21.1-28.2-13.5-11.9z"/><path fill="#7a6b65" fill-opacity=".6" d="M81 68h26v12H81z"/><circle r="1" fill="#895e3c" fill-opacity=".5" transform="matrix(3.36808 -23.37287 3.85455 .55545 204.8 88.5)"/><circle r="1" fill="#604f47" fill-opacity=".6" transform="matrix(-5.29112 -8.45971 33.44756 -20.91976 237.9 52.6)"/><path fill="#c4ada7" fill-opacity=".6" d="M159.9 119.7l20 21.1-31.9 2 10.4 29.6z"/><path fill="#563a2a" fill-opacity=".7" d="M158.6 21.1L97.8 70.9l39.5 19.7 1.7-7.5z"/><path fill="#dbdee3" fill-opacity=".5" d="M150 64.7l17.4 39.3-7.3 3.3L142.6 68z"/><path fill="#aba7a7" fill-opacity=".5" d="M241 133l-16-21-10 22z"/><circle r="1" fill="#e5eaee" fill-opacity=".5" transform="matrix(10.74033 .81456 -2.5743 33.94334 183.3 167)"/><path fill="#fbc7a3" fill-opacity=".3" d="M192.7 64.9l13 .2-.4 18-13-.2z"/><path fill="#564b48" fill-opacity=".6" d="M44 98h53v20H44z"/><path fill="#dbd1ce" fill-opacity=".6" d="M175 87l17-13-20 57z"/><path fill="#8a7b7d" fill-opacity=".3" d="M102 90l3.9-7 34 19-3.8 7z"/><path fill="#a3806d" fill-opacity=".5" d="M190 73l6 17-13 28z"/><path fill="#ceccce" fill-opacity=".6" d="M144 144l6-47-39 8z"/><path fill="#772d13" fill-opacity=".1" d="M145.4 108.8l16.1 32.2 8.8-75.7 5 35.7z"/><path fill="#35302b" fill-opacity=".5" d="M18 130h46v25H18z"/><path fill="#814c2d" fill-opacity=".5" d="M163.8 24.2l33.4 51.3-2.6-7.7L165.8 48z"/><path fill="#784a33" fill-opacity=".4" d="M218 21l-13 35 60 9z"/><path fill="#2a240d" fill-opacity=".4" d="M223.1 109.2L271 70.5l-17.4 73.2 3.3 6.6z"/><path fill="#43799c" fill-opacity=".5" d="M209 69h21v4h-21z"/><path fill="#0f0900" fill-opacity=".4" d="M202.3 50.4L175 14.6l14.4 46.6 12.4-4z"/><path fill="#f1c0ae" fill-opacity=".4" d="M164.9 43.2l-9.4 14.4-.7-19 14.4-3.2z"/><circle r="1" fill="#c1cfd7" fill-opacity=".5" transform="matrix(8.19404 -14.24988 6.82416 3.92407 77.5 142.6)"/><path fill="#dabbb1" fill-opacity=".5" d="M147 66h35v15h-35z"/><circle r="1" fill="#190401" fill-opacity=".7" transform="matrix(-37.42332 1.49608 -.37112 -9.28335 19 169)"/><path fill="#bc8a78" fill-opacity=".5" d="M145.3 102l27.3 47.4-26.8-13.3 12.2-3.7z"/><path fill="#d1d2d6" fill-opacity=".8" d="M197 109l-1 60 48 2z"/><path fill="#286d8c" fill-opacity=".2" d="M73.4 112.2l39.8 1.5-17.4.4-40.1 40z"/><path fill="#0a1b30" fill-opacity=".5" d="M254 78l1-12-41-1z"/><path fill="#491a09" fill-opacity=".5" d="M93 100h21v6H93z"/><path fill="#231c07" fill-opacity=".5" d="M262 107l-58-5 17-29z"/><path fill="#7c4437" fill-opacity=".5" d="M169 144h6v12h-6z"/><path fill="#b0805d" fill-opacity=".5" d="M165 59l-13 4-2 12z"/><path fill="#42403e" fill-opacity=".6" d="M246 0h8v63h-8z"/><path fill="#452b1a" fill-opacity=".6" d="M204 8l45-10-7 30z"/><path fill="#cfd2d8" fill-opacity=".5" d="M120 101l30 14-50-4z"/><circle r="1" fill="#5f453a" fill-opacity=".4" transform="matrix(12.6986 10.20144 -5.3276 6.63172 255 169)"/><path fill="#0c0800" fill-opacity=".2" d="M161.1 112.3l-11.8-13.5 5-2.4 2.3 23.6z"/><path fill="#817668" fill-opacity=".7" d="M97.8 1.8l84.8-5.1-104.2-7.2 5.9 12.1z"/></g></svg>