<svg xmlns="http://www.w3.org/2000/svg" viewBox="0 0 300 199"><defs/><path fill="#304053" d="M0 0h300v199H0z"/><g transform="translate(.6 .6) scale(1.17188)"><circle r="1" fill="#d5dae0" fill-opacity=".8" transform="rotate(129.7 -9.8 41.3) scale(255 76.65831)"/><circle r="1" fill="#c9ced5" fill-opacity=".7" transform="rotate(-15.4 342 -786.5) scale(52.45134 254.99998)"/><ellipse cx="125" cy="91" fill="#090000" fill-opacity=".7" rx="54" ry="47"/><circle r="1" fill="#e8f2fa" fill-opacity=".7" transform="matrix(57.29311 122.17291 -17.48703 8.20056 53.8 121.2)"/><ellipse cx="141" cy="145" fill="#070506" fill-opacity=".9" rx="39" ry="84"/><circle r="1" fill="#3b3438" fill-opacity=".5" transform="matrix(10.97064 34.58384 -18.30671 5.80723 242.7 137)"/><path fill="#e6eef5" fill-opacity=".6" d="M219 19L85-16-16 62z"/><ellipse cx="198" cy="146" fill="#e6effa" fill-opacity=".4" rx="18" ry="169"/><circle r="1" fill="#6b7f95" fill-opacity=".8" transform="matrix(-9.77471 21.12912 -56.23844 -26.01692 22.6 161.8)"/><ellipse cx="114" cy="53" fill="#6d5856" fill-opacity=".9" rx="33" ry="10"/><ellipse cx="226" cy="70" fill="#4e4d54" fill-opacity=".5" rx="10" ry="76"/><circle r="1" fill="#c8e6fc" fill-opacity=".6" transform="matrix(-12.45128 .97994 -4.91666 -62.47206 245 25)"/><path fill="#d8e2eb" fill-opacity=".7" d="M87.7 65.7L10.8-16 8 133.9l74.9-57.4z"/><path fill="#c6d0da" fill-opacity=".9" d="M134-16l-10 85L84-4z"/><ellipse cx="104" cy="108" fill="#130c0f" fill-opacity=".6" rx="21" ry="63"/><path fill="#130601" fill-opacity=".6" d="M124.3 142.3l47.8-90.5 3.5-.9-25.4-22.5z"/><path fill="#ebeff2" fill-opacity=".5" d="M44 105h34v49H44z"/><ellipse cx="73" cy="33" fill="#fffffd" fill-opacity=".8" rx="13" ry="27"/><path fill="#b2bfcc" d="M112.5 23.8L149.8 10l43.7-26 7.7 57.9z"/><circle r="1" fill="#e4e3ea" fill-opacity=".5" transform="matrix(26.40649 69.93995 -7.23064 2.73 219 157.6)"/><path fill="#76797f" fill-opacity=".9" d="M150.5-16l7.3 3.6 29.1 95.3-9.7-10.2z"/><circle r="1" fill="#30353e" fill-opacity=".5" transform="matrix(2.5144 -.2751 6.53633 59.74036 212.4 17)"/><path fill="#968284" fill-opacity=".6" d="M71.9 72.2l40 1.7-48.7 10.6-4.6-51.4z"/><path fill="#a3a8b2" fill-opacity=".7" d="M250.3 140l-9 .8-3.6-40.8 9-.8z"/><circle r="1" fill="#2d201b" fill-opacity=".6" transform="matrix(-8.8002 -9.75005 10.17574 -9.18442 96.8 55.8)"/><circle r="1" fill="#636671" fill-opacity=".5" transform="rotate(76.8 54.5 147.7) scale(34.43731 2.25347)"/><ellipse cx="36" cy="44" fill="#526078" fill-opacity=".3" rx="3" ry="43"/><path fill="#3c4752" fill-opacity=".5" d="M207 111L185-66.7l2-.3 21.8 177.7z"/><path fill="#86909c" d="M35.9 67.5l-2.4 28.8-9.5 51.3L40.2 23.3z"/><ellipse cx="199" cy="31" fill="#fff" fill-opacity=".3" rx="10" ry="63"/><path fill-opacity=".5" d="M73 80h94v23H73z"/><circle r="1" fill="#7a4435" fill-opacity=".6" transform="matrix(-11.54694 16.78317 -7.53775 -5.18602 137.3 51.2)"/><path fill="#47617d" fill-opacity=".4" d="M-16 170l66-31-25-9z"/><path fill="#bebabe" fill-opacity=".7" d="M174 58.7l-3.8-3.2 17.2 37-23.2-30.9z"/><ellipse cx="186" cy="110" fill="#7b7c8a" fill-opacity=".3" rx="9" ry="62"/><path fill="#ecf7ff" fill-opacity=".5" d="M0 103h26v27H0z"/><path fill="#241e1e" fill-opacity=".5" d="M224 140l37 45-19-5z"/><ellipse cx="23" cy="27" fill="#eaf9ff" fill-opacity=".5" rx="13" ry="56"/><path fill="#8b8890" fill-opacity=".6" d="M120.1 58.1l3.6 15.2-7.7-2.6-2.9-56z"/><path fill="#858e9d" d="M35.9 162.1l56.1 2.7 16.6 20.2-122.5-22.2z"/><path fill="#7b92a8" fill-opacity=".6" d="M13.1 63.3L8.7 95l-15.8-2.3L-2.7 61z"/><path fill="#323e50" fill-opacity=".4" d="M107.4-13.6l3.5-1.5 4 51.4-1.3-4.1z"/><circle r="1" fill="#69707d" fill-opacity=".5" transform="matrix(2.4431 -.4484 5.36665 29.24058 180.7 29.7)"/><path fill="#fff" fill-opacity=".5" d="M102-16l-5 49 21 19z"/><path fill="#4f5963" fill-opacity=".6" d="M5.9 86l1-.2L22 152l-1 .2z"/><ellipse cx="53" cy="84" fill="#f1f7fb" fill-opacity=".7" rx="8" ry="51"/><path fill="#d3d7de" fill-opacity=".5" d="M63 106h16v47H63z"/><path fill="#c9d5df" fill-opacity=".7" d="M220.6 121.9l-6.3-60.8-4-13.3 8.6 79.2z"/><path fill="#eff" fill-opacity=".6" d="M213-16.3l7 56.5-1 .1-7-56.5z"/><path fill="#869cb5" fill-opacity=".7" d="M34 185l14-47H24z"/><path fill="#94a5b8" fill-opacity=".6" d="M31-17.5h24v35H31z"/><path fill="#fefeff" fill-opacity=".5" d="M82-13l-36-3 35 90z"/><circle r="1" fill="#201e23" fill-opacity=".4" transform="matrix(-11.00958 -181.71945 .99817 -.06047 132.3 36.1)"/><path fill="#070000" fill-opacity=".1" d="M217.9 80.7L226 163l1.7-132.2L250 110z"/><path fill="#b6b3b5" fill-opacity=".5" d="M87 27L73 2l36 18z"/><path fill="#8d939f" fill-opacity=".4" d="M236.4 29.5l21.2 63.7-38-43.2 11 80.7z"/><path fill="#fbb2b6" fill-opacity=".2" d="M86.9 72.3l-12 23.2 3.3-29.2 45 9z"/><circle r="1" fill="#edffff" fill-opacity=".4" transform="matrix(4.53503 34.41375 -4.45867 .58756 191.1 29.7)"/><path fill="#56606f" fill-opacity=".4" d="M139 0h2v40h-2z"/><path fill="#d7e8f2" fill-opacity=".6" d="M165.6 41.3l-3.7-3.7-14.2-14.8L152.6-8z"/><ellipse cy="7" fill="#aac0d4" fill-opacity=".8" rx="6" ry="32"/><ellipse cx="146" cy="82" fill-opacity=".6" rx="29" ry="22"/><path fill="#1b181b" fill-opacity=".4" d="M182.2 110.3l-7.1 23.2-62.7-14.6L181 95.5z"/><ellipse cx="73" cy="145" fill="#fbfdff" fill-opacity=".7" rx="2" ry="21"/><circle r="1" fill="#e9f6ff" fill-opacity=".2" transform="rotate(-87.6 79.7 -55.7) scale(15.27008 14.65159)"/></g></svg>