<svg xmlns="http://www.w3.org/2000/svg" viewBox="0 0 300 199"><defs/><path fill="#4b4236" d="M0 0h300v199H0z"/><g transform="translate(.6 .6) scale(1.17188)"><ellipse cx="52" cy="112" fill="#e4ded9" fill-opacity=".6" rx="89" ry="41"/><circle r="1" fill="#110501" fill-opacity=".9" transform="rotate(108.2 74.5 138.1) scale(255 57.09084)"/><path fill="#e9f3e8" fill-opacity=".6" d="M47.2-16.2l2.4 28-50.8 4.4-2.4-28z"/><circle cx="154" cy="39" r="64" fill="#2b2418" fill-opacity=".6"/><circle r="1" fill="#beb4ae" fill-opacity=".4" transform="matrix(31.73402 32.5222 -54.19887 52.88536 50.6 123.4)"/><circle r="1" fill="#beb8ab" fill-opacity=".4" transform="matrix(-9.63304 -8.3063 24.90551 -28.88356 157.5 103.8)"/><ellipse cx="124" cy="156" fill="#1d0a00" fill-opacity=".5" rx="37" ry="28"/><circle r="1" fill="#000600" fill-opacity=".3" transform="matrix(42.3657 -22.03191 14.19442 27.2948 26.8 62.5)"/><circle r="1" fill="#fff8f8" fill-opacity=".5" transform="rotate(-48.9 131.3 -13.4) scale(34.37858 9.41971)"/><path fill="#634433" fill-opacity=".7" d="M25.3 128.6l.8-4.2 28.7-3.2L-16 177z"/><path fill="#0c0000" fill-opacity=".5" d="M96 102h12v16H96z"/><path fill="#7f857a" fill-opacity=".5" d="M138.1 16.6L109 27.4 90.3 47.3l-36-23z"/><ellipse cx="78" cy="119" fill="#e9f3fe" fill-opacity=".4" rx="22" ry="18"/><path fill="#e1e1e4" fill-opacity=".5" d="M109 105h38v20h-38z"/><path fill="#717264" fill-opacity=".6" d="M0 63h57v21H0z"/><circle r="1" fill="#040300" fill-opacity=".6" transform="rotate(-174.4 86.6 10.6) scale(11.02364 35.61836)"/><circle r="1" fill="#676a69" fill-opacity=".5" transform="matrix(-35.84464 5.99834 -3.61152 -21.58157 63.5 162.3)"/><path fill="#311200" fill-opacity=".5" d="M108 94h45v7h-45z"/><ellipse cx="82" cy="68" fill="#510e00" fill-opacity=".5" rx="3" ry="22"/><circle r="1" fill="#1f0300" fill-opacity=".6" transform="matrix(-13.87679 7.98596 -8.99159 -15.62422 108.2 58.5)"/><circle r="1" fill="#110b01" fill-opacity=".4" transform="matrix(2.22856 -14.7246 50.42937 7.63246 25.8 40.4)"/><path fill="#a8795a" fill-opacity=".8" d="M63.5 59.5l53.9 32.7-2.4-20.1 12.9 13.5z"/><path fill="#ffe0c9" fill-opacity=".5" d="M105 99l-15 5 1-45z"/><circle r="1" fill="#c2b7b9" fill-opacity=".4" transform="matrix(16.2724 4.60883 -1.69139 5.97178 140.9 127)"/><path fill="#abb4b7" fill-opacity=".5" d="M-9.8 185l52.4-35.2L-16 160l61.3 25z"/><path fill="#010902" fill-opacity=".4" d="M109.2-16L97.5 17.2l-48.1 6.1 19-39.1z"/><path fill="#17191a" fill-opacity=".4" d="M-6 185l60-44-28 44z"/><path fill="#63513f" fill-opacity=".5" d="M140.2 138.3l-34.5 17.8-6.7-30.2 22.3-3.4z"/><path fill="#1b0a00" fill-opacity=".6" d="M184 52l-63 30 8 19z"/><path fill="#615945" fill-opacity=".6" d="M133.7 82.1l-7.4-23.4 39-4.2-28.8 26.3z"/><circle r="1" fill="#d7e6ee" fill-opacity=".2" transform="matrix(-12.59113 8.30232 -25.97094 -39.387 69.3 169)"/><path fill="#4d1a14" fill-opacity=".5" d="M22.9 147.8l-.9-3.9-16.5.6L-4.9 159z"/><ellipse cx="177" cy="167" fill="#0a0000" fill-opacity=".5" rx="52" ry="29"/><path fill="#4f4a3c" fill-opacity=".6" d="M179.9 93.7l-13.8-10 20-27.4 13.8 10z"/><circle r="1" fill="#0b0504" fill-opacity=".9" transform="rotate(-121.7 136 -27.1) scale(21.85008 55.34331)"/><ellipse cx="222" cy="6" fill="#1e170b" rx="21" ry="59"/><path fill="#edb8a5" fill-opacity=".3" d="M82.5 107.3l-6.6-58.9-24.1 42-2.2-9.6z"/><path fill="#471a00" fill-opacity=".4" d="M131 87l-37 26 14-18z"/><path fill="#443222" fill-opacity=".5" d="M161.7 145.9l-14.1-50.5-31.5-.8 60.4 30.4z"/><path fill="#4d3e30" fill-opacity=".7" d="M107.5 129.1L98.1 185l-22.9-39.1 48.4.1z"/><path fill="#d8d6d4" fill-opacity=".4" d="M104.5 131L117 97.2l26.8 7-6.4 3z"/><path fill="#f6fdff" fill-opacity=".5" d="M57.8 82l8.5 10.2-38.7 25.4 15.8-24.7z"/><path fill="#7d4925" fill-opacity=".4" d="M90.4 33.4l21.4 79.7-3.6-56.3-32.4 20.9z"/><path fill="#bbc0c2" fill-opacity=".8" d="M86.4 144.6l-41.2-11.5 9.2-5.8 50.5 9.2z"/><circle cx="114" cy="89" r="4" fill="#feeee8" fill-opacity=".6"/><path fill="#180e08" fill-opacity=".9" d="M48.4 39.2l26 8.1-10.7 13.4-5.7 9.5z"/><path fill="#b1b7aa" fill-opacity=".5" d="M85 20h37v4H85z"/><ellipse cx="16" cy="14" fill="#787e77" fill-opacity=".5" rx="32" ry="4"/><path fill="#716b59" fill-opacity=".3" d="M52.2 49l2.4 22.8-30.8 3.3-2.4-23z"/><path fill="#767064" fill-opacity=".9" d="M54.3 124.8l-33.4 19.6 28.6-20.1 8.5-16.2z"/><path fill="#100e02" fill-opacity=".4" d="M186 56l13-27L97 40z"/><circle r="1" fill="#3e3b2e" fill-opacity=".7" transform="rotate(128.8 67.7 35.3) scale(21.40472 31.81412)"/><path fill="#94958d" fill-opacity=".7" d="M61.4 78.7L9.9 111.8l-23.5 28.1 1.2-40.9z"/><path fill="#696864" fill-opacity=".5" d="M41 161.6l-4.9-6.3 26.8-21 5 6.4z"/><path fill="#5c6057" fill-opacity=".4" d="M100 31L81 54v-70z"/><path fill="#c0c4c2" fill-opacity=".6" d="M17.6 141.3L7.5 137l12.9-30.3 10.1 4.3z"/><ellipse cx="78" cy="69" fill="#b47b67" fill-opacity=".8" rx="4" ry="10"/><path fill="#201b0f" fill-opacity=".4" d="M54 17l-70 42 89-13z"/><path fill="#d3a98a" fill-opacity=".6" d="M114 96.9L91.7 107 58.1 75.1l36 20.1z"/><circle r="1" fill="#1f0300" fill-opacity=".5" transform="matrix(-.72897 34.86654 -64.3215 -1.3448 225.6 128)"/><path fill="#0b0000" fill-opacity=".4" d="M133 87l-14-50-22 21z"/><ellipse cx="82" cy="80" fill="#411907" fill-opacity=".7" rx="2" ry="9"/><path fill="#000304" fill-opacity=".7" d="M228.5 71l24-89.8 29 7.8-24 89.8z"/><path fill="#140e00" fill-opacity=".4" d="M103.4 116.2l13.7 11.1-17.5-21-1.1 3.1z"/><path fill="#e2e7eb" fill-opacity=".3" d="M45.3 131.3l-1.5-1.8 54.5-6.2-76.5 25.1z"/></g></svg>