<svg xmlns="http://www.w3.org/2000/svg" viewBox="0 0 300 199"><defs/><path fill="#30373d" d="M0 0h300v199H0z"/><g transform="translate(.6 .6) scale(1.17188)"><circle r="1" fill="#b2a294" fill-opacity=".7" transform="matrix(12.02328 73.92577 -170.63526 27.75211 24.4 74.2)"/><circle r="1" fill="#f3faf7" fill-opacity=".9" transform="matrix(2.36666 35.71198 -34.87636 2.31128 9 80.1)"/><circle r="1" fill="#381600" fill-opacity=".7" transform="rotate(-106.6 90 24.8) scale(83.1553 26.14009)"/><circle r="1" fill="#ddf3fe" fill-opacity=".5" transform="matrix(34.45494 1.41814 -.98686 23.9766 27.7 151.6)"/><path fill="#fbffff" fill-opacity=".8" d="M55 10l24-26 51 22z"/><path fill="#1e1916" fill-opacity=".5" d="M131 41l-71-2 143 60z"/><circle r="1" fill="#ff9c64" fill-opacity=".5" transform="matrix(-34.95617 -20.13466 8.48658 -14.73372 170.3 45)"/><ellipse cx="159" cy="6" fill="#230400" fill-opacity=".6" rx="34" ry="12"/><path fill="#ffe4cf" fill-opacity=".7" d="M202.3 176.9l-30.5-6 2-9.8 30.4 6z"/><circle r="1" fill="#95b6c7" fill-opacity=".5" transform="rotate(-100.8 120.3 8) scale(54.21498 9.81577)"/><circle r="1" fill="#9e6647" fill-opacity=".9" transform="matrix(14.07599 -4.57357 8.25477 25.40556 102.8 70.1)"/><circle r="1" fill="#110b0d" fill-opacity=".6" transform="rotate(79.2 29.3 200.2) scale(73.37974 22.66514)"/><circle r="1" fill="#c6bcab" fill-opacity=".5" transform="matrix(-6.54757 -22.85687 7.31643 -2.09586 232.9 73.3)"/><circle r="1" fill="#1a2227" fill-opacity=".6" transform="matrix(-70.3897 -29.67127 1.97923 -4.69536 20 37.7)"/><circle r="1" fill="#955e33" fill-opacity=".5" transform="matrix(-12.31008 -.58933 3.2519 -67.92659 58 130.5)"/><circle r="1" fill="#6da8cd" fill-opacity=".5" transform="matrix(-11.07685 18.63476 -44.17082 -26.25596 30.2 12)"/><circle r="1" fill="#001022" fill-opacity=".5" transform="rotate(-101.7 54.7 59) scale(7.67613 31.17209)"/><ellipse cx="225" cy="18" fill="#565959" fill-opacity=".7" rx="29" ry="37"/><path fill="#c2e9ff" fill-opacity=".6" d="M38.9 121.7l8.3 17.1-52.1 25.5-8.3-17.1z"/><circle r="1" fill="#dde4e0" fill-opacity=".7" transform="matrix(-13.9908 5.62426 -3.27704 -8.1519 36.8 102)"/><path fill="#060000" fill-opacity=".5" d="M108.2 170.4l-22.6-58.8 26.2-10 22.6 58.8z"/><circle r="1" fill="#99502c" fill-opacity=".7" transform="rotate(147.1 86.4 42.6) scale(7.17176 25.31668)"/><path fill="#fed5bc" fill-opacity=".6" d="M172.4 82.9L168.5 65l38.1-8.4-23.7 18.1z"/><path fill="#0b0701" fill-opacity=".5" d="M53.5 141.7L-16 177.9l8.6-10 57.1-29z"/><circle r="1" fill="#fabfa1" fill-opacity=".5" transform="matrix(7.89878 -2.85932 8.92316 24.64995 144.4 34.6)"/><path fill="#c9f1ff" fill-opacity=".4" d="M133.6 88.7l-6.1-9-14.6 28.2L154 104z"/><path fill="#4d5f69" fill-opacity=".7" d="M123 118l77-55-60 75z"/><ellipse cx="44" cy="68" fill="#1d2b33" fill-opacity=".5" rx="3" ry="28"/><path fill="#ffb391" fill-opacity=".5" d="M194 167h35v3h-35z"/><circle r="1" fill="#160200" fill-opacity=".6" transform="rotate(-93.7 98.8 -84) scale(31.72095 8.11662)"/><path fill="#ecffff" fill-opacity=".6" d="M142 74h9v9h-9z"/><path fill="#1b2825" fill-opacity=".5" d="M152 64h17v25h-17z"/><path fill="#4e6f7f" fill-opacity=".4" d="M92.5 13.8l35.2-7.5 9.8 46-35.2 7.4z"/><path fill="#f9fcff" fill-opacity=".5" d="M0 50h42v26H0z"/><path fill="#26322f" fill-opacity=".5" d="M24.6-16l4.2 19.1 26.5.3 35-5.2z"/><path fill="#050308" fill-opacity=".5" d="M148 135h19v35h-19z"/><path fill="#222f35" fill-opacity=".5" d="M113 56l33-3-5 39z"/><circle r="1" fill="#e2c49b" fill-opacity=".4" transform="rotate(-174.2 26.3 58.2) scale(2.37616 68.81653)"/><path fill="#2d0b00" fill-opacity=".6" d="M75 38h15v25H75z"/><ellipse cx="106" fill="#f3f4f4" fill-opacity=".9" rx="22" ry="8"/><path fill="#291300" fill-opacity=".5" d="M164.3 27.8l-5.9-2.5-29.7-36 44.8 9.6z"/><ellipse cx="253" cy="78" fill="#1a0e02" fill-opacity=".5" rx="14" ry="26"/><path fill="#d99d76" fill-opacity=".5" d="M88.1 61.2L88 48.3 109.8 70l-7.3 21.8z"/><ellipse cx="136" cy="100" fill="#90b0c2" fill-opacity=".5" rx="28" ry="9"/><path fill="#3e4449" fill-opacity=".9" d="M271 146l-25-25-15 64z"/><ellipse cx="56" cy="95" fill="#9d7959" fill-opacity=".9" rx="6" ry="39"/><path fill="#acc9de" fill-opacity=".5" d="M46 171l-7-20-42 21z"/><path fill="#f5f7f7" fill-opacity=".9" d="M12 44L-4 79l4-39z"/><circle r="1" fill="#855734" fill-opacity=".6" transform="matrix(6.57187 28.24011 -4.20567 .97872 79 91)"/><path fill="#1a0e06" fill-opacity=".5" d="M139 185l-74-49 52-28z"/><path fill="#2c3a43" fill-opacity=".6" d="M55.3 44.4L44.5 83.3 43 50.5l-59-25.1z"/><circle r="1" fill="#b4714a" fill-opacity=".6" transform="matrix(-3.29443 7.57667 -14.91376 -6.48469 156.5 54.2)"/><circle r="1" fill="#1d0b03" fill-opacity=".5" transform="rotate(170.8 29.9 50) scale(2.20027 32.62422)"/><path fill="#c7c0b3" fill-opacity=".4" d="M244.9 105l-25.5-36.1 22.2 12.7-2.4 21.1z"/><path fill="#fff" fill-opacity=".4" d="M133 31l-1-17 9 9z"/><path fill="#fff" fill-opacity=".6" d="M124 82h10v7h-10z"/><path fill="#dde6e5" fill-opacity=".8" d="M36.9 108.9l-51.4 14.7 53.6-68.8 3.1 62.4z"/><path fill="#c47e57" fill-opacity=".5" d="M194.5 50.8l-17.6-38.5-8.6 1.2-14.6 51.2z"/><path fill="#7a97a7" fill-opacity=".5" d="M39 10h64v28H39z"/><path fill="#d6f0fe" fill-opacity=".3" d="M127.1 73.3l3.7-2.6L158.5 93l-15.6-18.9z"/><path fill="#ffe5d3" fill-opacity=".5" d="M137 37l18-8-20 21z"/><path fill="#62422d" fill-opacity=".5" d="M105.5 99.2l57.9-18.1-45.3 18.3-66-57z"/><path fill="#323944" fill-opacity=".6" d="M166 83h20v81h-20z"/><path fill="#131212" fill-opacity=".7" d="M232.3 181.4l8.3-75.1-11.9-25.9-15.7 33.3z"/><path fill="#8b674c" fill-opacity=".9" d="M50.3 109.2l5.2 13.1-4.5 29-6.8-6.8z"/></g></svg>