<svg xmlns="http://www.w3.org/2000/svg" viewBox="0 0 300 199"><defs/><path fill="#2f513b" d="M0 0h300v199H0z"/><g transform="translate(.6 .6) scale(1.17188)"><circle r="1" fill="#fffff5" fill-opacity=".4" transform="matrix(52.40928 -48.70171 6.6643 7.17164 224.6 129.4)"/><circle r="1" fill="#c4c5b6" fill-opacity=".4" transform="matrix(32.6547 39.05459 -14.14503 11.82708 205.7 84)"/><path fill="#14180a" fill-opacity=".7" d="M95 252.7L-78 96.8 35-28.7l173.2 155.9z"/><ellipse cx="254" fill="#dbe2f5" fill-opacity=".8" rx="8" ry="35"/><path fill="#ecaea1" fill-opacity=".6" d="M187.6 29.2l-4-5.8-17.2 60.8 26.1-13.1z"/><path fill="#f0e5ff" fill-opacity=".5" d="M135 5l21-21-14 38z"/><path fill="#8e4e39" fill-opacity=".6" d="M132 94l53-61-20 57z"/><path fill="#f2e0dc" fill-opacity=".6" d="M169 170l56-47-15 30z"/><circle r="1" fill="#191502" fill-opacity=".4" transform="matrix(21.63915 -18.9034 52.32057 59.89258 200.3 0)"/><circle cx="62" cy="25" r="76" fill="#1c2e25" fill-opacity=".7"/><circle r="1" fill="#46674e" fill-opacity=".8" transform="rotate(132.8 97.8 123.8) scale(94.76489 22.74585)"/><path fill="#d5d0d5" fill-opacity=".7" d="M251 76h5v26h-5z"/><ellipse cx="178" cy="116" fill="#253904" fill-opacity=".3" rx="40" ry="30"/><path fill="#31533b" fill-opacity=".6" d="M215 90l38 15-50-85z"/><circle r="1" fill="#326359" fill-opacity=".5" transform="matrix(-6.98354 -8.40516 12.8929 -10.71225 69 40.1)"/><circle r="1" fill="#44281f" fill-opacity=".6" transform="matrix(26.37058 -25.54854 6.63506 6.84854 154.4 61)"/><path fill="#e2f1ff" fill-opacity=".6" d="M188 36l-1-12-9 6z"/><circle r="1" fill="#152100" fill-opacity=".5" transform="rotate(-129.7 89.7 32.7) scale(58.39867 31.83333)"/><path fill="#d3c9bc" fill-opacity=".5" d="M183.4 185l-42-8.7 22.9-5.3 50.4-38.3z"/><path fill="#1f381d" fill-opacity=".7" d="M237 33L211.8-3.3l-73.3-4 22.5 29z"/><path fill="#f7ffff" fill-opacity=".3" d="M185.3 39.1l11.8 48.1-17.9-35.9-9.9 16.7z"/><path fill="#593f34" fill-opacity=".6" d="M23.1 79.4L39.6 111 46 96.2l1.3-9.1z"/><path fill="#4b6f4e" fill-opacity=".4" d="M223 113l-47-44 47 76z"/><path fill="#5a9a8e" fill-opacity=".4" d="M207 46l-21 28 41 43z"/><path fill="#7b6a43" fill-opacity=".5" d="M188 74l-58 12 18 12z"/><path fill="#ffccab" fill-opacity=".3" d="M249.8 101.4l-17.3 4.3-28.8 34.7 9.3 8.9z"/><ellipse cy="111" fill="#0e1813" fill-opacity=".5" rx="26" ry="84"/><circle r="1" fill="#27483f" fill-opacity=".3" transform="matrix(25.98891 1.08926 -1.76878 42.2017 61.7 20.5)"/><path fill="#cbd5e5" fill-opacity=".4" d="M245-16l26 41-22 5z"/><circle cx="143" cy="9" r="7" fill="#cecedd" fill-opacity=".4"/><circle r="1" fill="#2c3b24" fill-opacity=".6" transform="matrix(-1.81308 19.28072 -16.73058 -1.57327 191.5 126.2)"/><path fill="#142a14" fill-opacity=".5" d="M99 71.3l19.4-39.5 30.5 14.9-19.3 39.5z"/><ellipse cx="245" cy="55" fill="#2d442d" fill-opacity=".5" rx="20" ry="27"/><path fill="#f69441" fill-opacity=".2" d="M167.1 70.9l-7.3 15.8 22.6-2-13.8-30.8z"/><ellipse cx="185" cy="48" fill="#fce4df" fill-opacity=".6" rx="4" ry="7"/><circle r="1" fill="#3c2929" fill-opacity=".6" transform="matrix(2.69956 18.28139 -7.10234 1.04878 197.3 37.9)"/><path fill="#dde6ef" fill-opacity=".5" d="M206.4 152.4l3.9-21.6 9.6 12.8-10.4 7.2z"/><path fill="#536a59" fill-opacity=".5" d="M177 28.6l-29.4 28.6 6.4-30.1 43.2 19.5z"/><path fill="#2f3f2e" fill-opacity=".8" d="M243 49h8v50h-8z"/><path fill="#48664e" fill-opacity=".4" d="M207 152l49 15-63-2z"/><ellipse cx="18" cy="7" fill="#150b0e" fill-opacity=".6" rx="9" ry="22"/><path fill="#3f654a" fill-opacity=".4" d="M224.2 114.7l-52.9-43.6 45 63-.4 2.7z"/><path fill="#e7ecfa" fill-opacity=".3" d="M191.4 153.6l-9.7 31.4 19-30.6 12.7-14.6z"/><circle r="1" fill="#a9f5d6" fill-opacity=".2" transform="rotate(-49.2 171.5 -107.5) scale(4.91329 5.72505)"/><circle cx="66" cy="155" r="57" fill="#182316" fill-opacity=".7"/><path fill="#202600" fill-opacity=".3" d="M130 185l55-88-35-21z"/><path fill="#766a31" fill-opacity=".3" d="M180.9 165.1l-7.6 4.4L143 185l60.4-47z"/><circle r="1" fill="#7fa296" fill-opacity=".7" transform="rotate(-170.8 101.3 28.2) scale(8.28427 9.19167)"/><path fill="#3f0035" fill-opacity=".2" d="M249.9 18.5L179.8-16h70.5l.1 34.8z"/><path fill="#244631" fill-opacity=".3" d="M108.3 49.2l86.1-27-64.6-24 33.8-1.1z"/><path fill="#bc6b6a" fill-opacity=".5" d="M29 85l4 6 2-8z"/><path fill="#1e0401" fill-opacity=".4" d="M168 71l-26-13 20 1z"/><path fill="#3f6c53" fill-opacity=".3" d="M226 71l-24-38 13 85z"/><path fill="#9f6653" fill-opacity=".5" d="M169 65l25-7-29-2z"/><circle r="1" fill="#cad7f8" fill-opacity=".1" transform="rotate(90.1 59.1 168) scale(5.67707 19.03467)"/><path fill="#e2e5ee" fill-opacity=".5" d="M252 83h4v12h-4z"/><path fill="#2b4b35" fill-opacity=".5" d="M224.4 184.7l46.6-72.3v61.9L238.6 185z"/><path fill="#1e2a12" fill-opacity=".5" d="M185 153l-23-18 58-15z"/><path fill="#3e342e" fill-opacity=".4" d="M251 96V71l-11 31z"/><path fill="#e3ecfa" fill-opacity=".5" d="M251 18l14 18-14-52z"/><circle r="1" fill="#374c3b" fill-opacity=".7" transform="matrix(27.02336 22.2569 -.63575 .7719 245 99)"/><path fill="#24181b" fill-opacity=".5" d="M159.8 52.5l15.3-15.8 5 4.8L165 57.3z"/><circle cx="180" cy="29" r="3" fill="#c2cacc" fill-opacity=".5"/><path fill="#250108" fill-opacity=".4" d="M120.2 27.2l11.2-3.6 6.5-11.4-6.6-7.5z"/><circle r="1" fill="#76786b" fill-opacity=".7" transform="matrix(-.92732 1.36271 -3.72952 -2.53793 150.9 53)"/></g></svg>