<svg xmlns="http://www.w3.org/2000/svg" viewBox="0 0 300 199"><defs/><path fill="#3b4346" d="M0 0h300v199H0z"/><g transform="translate(.6 .6) scale(1.17188)"><circle r="1" fill="#ffead1" fill-opacity=".6" transform="matrix(244.49903 72.42391 -27.05323 91.33018 141.4 57.4)"/><ellipse cx="144" cy="123" fill="#837460" fill-opacity=".9" rx="90" ry="56"/><ellipse cx="31" cy="14" fill="#ecf3f3" fill-opacity=".7" rx="102" ry="33"/><ellipse cx="251" cy="13" fill="#f7f8f8" fill-opacity=".9" rx="21" ry="158"/><path fill="#253137" fill-opacity=".8" d="M72 185L35 99l99 11z"/><circle r="1" fill="#fdf0d1" fill-opacity=".5" transform="matrix(51.69587 3.38264 -.99569 15.21682 109.9 93)"/><circle r="1" fill="#feeac4" fill-opacity=".7" transform="matrix(34.68393 -41.14217 8.47541 7.145 115.8 152.7)"/><circle r="1" fill="#713100" fill-opacity=".6" transform="matrix(2.39704 31.56697 -11.09853 .84277 57 62.8)"/><circle r="1" fill="#190600" fill-opacity=".5" transform="matrix(-20.18253 14.53748 -10.5968 -14.71165 187.8 110.2)"/><circle r="1" fill="#ddecd3" fill-opacity=".6" transform="rotate(51 -107.8 68.2) scale(19.56862 26.31238)"/><circle r="1" fill="#dce0e2" fill-opacity=".6" transform="matrix(-10.90307 -27.63781 43.55172 -17.18108 198.3 25)"/><path fill="#262610" fill-opacity=".9" d="M84 77.8l11.2-14.7-11.7-6.7-10.9-.9z"/><path fill="#c0bdad" fill-opacity=".8" d="M153 182l11-53-26-39z"/><circle r="1" fill-opacity=".5" transform="matrix(-15.38532 29.97268 -27.92433 -14.33387 10.2 156.4)"/><path fill="#f5f7f5" fill-opacity=".8" d="M218 143l-1 23 54 19z"/><circle r="1" fill="#915914" fill-opacity=".6" transform="rotate(177.4 43.8 20.1) scale(3.70029 19.26537)"/><path fill="#010000" fill-opacity=".6" d="M147 185l-3-52-20 30z"/><path fill-opacity=".6" d="M33 67L15 56l-19 4z"/><ellipse cx="101" cy="62" fill="#f0f0ea" fill-opacity=".7" rx="8" ry="38"/><circle cx="203" cy="94" r="34" fill="#8b2600" fill-opacity=".2"/><circle r="1" fill="#00030e" fill-opacity=".6" transform="matrix(.09947 -6.14164 15.38563 .24918 0 81.6)"/><path fill="#eaf5fd" fill-opacity=".5" d="M45-16l-60 59 62 29z"/><circle r="1" fill="#c6c5b6" fill-opacity=".7" transform="matrix(-10.81695 -32.31917 16.97165 -5.68026 128 29.5)"/><path fill="#905835" fill-opacity=".6" d="M209 77.5L106.2 61.4l4.3 19.4 36.9 6.4z"/><ellipse cx="65" cy="117" fill="#010000" fill-opacity=".9" rx="10" ry="14"/><circle r="1" fill="#f3e7cc" fill-opacity=".5" transform="rotate(170.6 34 49.5) scale(31.80121 8.79158)"/><ellipse cx="110" cy="31" fill="#1d292d" fill-opacity=".6" rx="2" ry="24"/><ellipse cx="152" fill="#a34b18" fill-opacity=".5" rx="13" ry="20"/><ellipse cx="25" cy="75" fill-opacity=".6" rx="3" ry="7"/><path fill="#f9ffff" fill-opacity=".5" d="M91-13L74 74 52-16z"/><circle r="1" fill="#786348" fill-opacity=".7" transform="matrix(30.89988 -2.0934 1.43126 21.12624 193.4 134)"/><path fill="#bc8867" fill-opacity=".7" d="M235 72l-28 27 26 54z"/><ellipse cx="96" cy="128" fill="#5b6b6f" fill-opacity=".6" rx="22" ry="13"/><path fill="#040500" fill-opacity=".7" d="M201.4 107l-34.2-7.5L207 89.4l-.2 25.9z"/><path fill="#c0a998" fill-opacity=".6" d="M209 7l29 72-41-18z"/><path fill-opacity=".8" d="M124 126.7l-12-7.2 6-10.2 12 7.2z"/><path fill="#c6b18e" fill-opacity=".6" d="M150 121l22-32-86-1z"/><path fill="#794306" fill-opacity=".5" d="M70.1 85.3l-13.6 3.2-10.6-45.8 13.6-3.2z"/><path fill="#10160c" fill-opacity=".5" d="M26.8 140l3.6-25.8 12.8 1.8-3.6 25.8z"/><ellipse cx="177" cy="46" fill="#c7cdcc" fill-opacity=".6" rx="22" ry="27"/><path fill="#d7deca" fill-opacity=".6" d="M-14 102l61-34-43 51z"/><path fill="#fcefda" fill-opacity=".5" d="M112.8 146.9l12.9 15.3-34.5 29-12.9-15.4z"/><circle cx="84" cy="68" r="8" fill-opacity=".6"/><circle r="1" fill="#968267" fill-opacity=".9" transform="rotate(5.6 -1558.3 2113.4) scale(16.81717 26.02769)"/><circle cx="19" cy="117" r="12" fill="#919990" fill-opacity=".6"/><ellipse cx="244" cy="54" fill="#e1e5e2" fill-opacity=".6" rx="26" ry="18"/><path fill-opacity=".6" d="M-16 64l19-7 18 4z"/><circle r="1" fill="#c7a08f" fill-opacity=".5" transform="matrix(-7.75269 -18.99738 6.9946 -2.85444 239.2 151.5)"/><path fill="#daebee" fill-opacity=".5" d="M9.4 63.9L-16 66l35 14.3.3-16.1z"/><path fill="#d8dad8" fill-opacity=".7" d="M154.2 47.3l18.7-28.5 98.1-1.5L170.6-16z"/><path fill="#fff" fill-opacity=".4" d="M263 49l-34 77 29 33z"/><path fill="#c1c1b9" d="M145.8 155.3l1.9-37 8.8 13.3-1.9 45z"/><path fill="#f7fdff" fill-opacity=".6" d="M106-8L56-9l53 48z"/><path fill="#e5eae7" fill-opacity=".6" d="M111 0h6v38h-6z"/><path fill="#4c4835" fill-opacity=".4" d="M157.4 103.4l69.2 26.8-41.2-33.9-17.3 76.2z"/><path fill="#e7e7cb" fill-opacity=".4" d="M73.1 102.8L16.5 80l26.9 30.8-25.8-11.5z"/><path fill="#ebdfce" fill-opacity=".3" d="M87.6 65l19.8 52.7 7.4-16.5-6.1-47.2z"/><path fill="#bda275" fill-opacity=".9" d="M146.5 127.9l11.2-10.5-2.6-12.7-37.7-9.7z"/><path fill="#c0c3bd" fill-opacity=".9" d="M45.7 65.2l3.5 14.2-6.2 5.9L8.8 45.2z"/><circle r="1" fill="#e5ebee" fill-opacity=".7" transform="matrix(-50.69445 8.31463 -8.26017 -50.36242 0 6.2)"/><path fill="#0a1312" fill-opacity=".7" d="M26.4 64l-32.8-2.4L14.4 59l14.9 17.8z"/><path fill="#956344" fill-opacity=".4" d="M207.8 117.7l22.9-43-50.8 23L206.1 29z"/><path fill="#ebf2f2" fill-opacity=".8" d="M66.1 43.7l16.3-5 3.5 11.6-16.3 5z"/><path fill="#504032" fill-opacity=".4" d="M112.3 79.1l21.6 3.3-31.8-42.7 20.2 17.6z"/><path fill="#787833" fill-opacity=".5" d="M95.2 72l-5.7-9.5-18.8-2.3L92 45.1z"/></g></svg>