<svg xmlns="http://www.w3.org/2000/svg" viewBox="0 0 300 199"><defs/><path fill="#644e38" d="M0 0h300v199H0z"/><g transform="translate(.6 .6) scale(1.17188)"><ellipse cx="69" cy="138" fill="#f7f6fc" fill-opacity=".6" rx="35" ry="102"/><path fill="#f5cca1" fill-opacity=".4" d="M265.4 169.3l-67 2.3-5.8-168.9 67-2.3z"/><circle r="1" fill="#e7e2fe" fill-opacity=".7" transform="rotate(123.3 63.2 83.6) scale(23.77812 11.90653)"/><circle r="1" fill="#cac5c4" fill-opacity=".7" transform="matrix(25.1028 -11.33435 35.83469 79.36503 97.9 150)"/><circle r="1" fill="#000042" fill-opacity=".5" transform="matrix(-19.46926 -48.2991 18.88213 -7.61135 122.9 94.5)"/><circle r="1" fill="#b68760" fill-opacity=".6" transform="rotate(93.6 52.5 62) scale(29.12323 44.83994)"/><ellipse cx="10" cy="73" fill="#000309" fill-opacity=".7" rx="19" ry="31"/><path fill="#000010" fill-opacity=".4" d="M193-16l-1 77-63 10z"/><path fill="#77725c" fill-opacity=".7" d="M57 83L24 185 25 6z"/><path fill="#937f50" fill-opacity=".8" d="M146 122h110v48H146z"/><circle r="1" fill="#927d76" fill-opacity=".7" transform="matrix(-12.4484 -.23902 .54085 -28.16772 100.7 131.2)"/><circle r="1" fill="#e2f1fa" fill-opacity=".5" transform="rotate(-101.2 94.4 44.4) scale(36.7096 22.68895)"/><path fill-opacity=".5" d="M160.6 112.5l23-32.8 13.8 9.8-23 32.8z"/><ellipse cx="139" cy="160" fill="#09122c" fill-opacity=".8" rx="7" ry="99"/><path fill="#a97d6e" fill-opacity=".9" d="M61.9 19.8L81.1 6.7v42.9l-17.6-6.1z"/><path fill="#f8fafa" fill-opacity=".5" d="M30.4 23.4L21.9 17l-2.4 15.7 9.3 10.1z"/><path fill="#fff" fill-opacity=".4" d="M155.6 94l21.1-29 9.7 7-21.1 29z"/><path fill="#bcc6cf" fill-opacity=".5" d="M176 30h7v23h-7z"/><path fill="#e1f7f0" fill-opacity=".4" d="M138.2 177L94 189.9 85.8 161l44.2-12.7z"/><path fill="#ffe2af" fill-opacity=".5" d="M124 80l3 11 8-10z"/><circle r="1" fill="#a65d49" fill-opacity=".5" transform="matrix(-3.07881 3.45895 -20.41243 -18.16912 70.5 102.5)"/><path fill="#00183b" fill-opacity=".6" d="M142.6 182.2L119 59.8l-18.4-37.9-11.5 32z"/><path fill="#0c0b15" fill-opacity=".5" d="M195.4 77.9l-18.9-14.6 12.6-52.6 5.2 35.1z"/><path fill="#f0daf3" fill-opacity=".5" d="M147 73h18v18h-18z"/><path fill="#a07d7f" fill-opacity=".7" d="M121 26l-26-9 39 57z"/><path fill="#9a9c57" fill-opacity=".4" d="M33.3 200.9l-42.9-3 6.3-88.8 42.9 3z"/><circle r="1" fill="#b8967f" fill-opacity=".6" transform="rotate(-97.3 135.6 -68) scale(59.49929 22.46617)"/><path fill="#2c0506" fill-opacity=".3" d="M271 116.8v14.8l-113.5-15-26.7-2.1z"/><path fill="#211716" fill-opacity=".5" d="M57.2 79l-51 9.7 4.6-69.4 23.3 50.9z"/><path fill="#12090d" fill-opacity=".4" d="M90.8-16L38.3 55.2-9.4 27.6 27 39.7z"/><path fill-opacity=".5" d="M110 5h17v7h-17z"/><path fill="#f7fffc" fill-opacity=".4" d="M87.7 57.9L62.1 45.2l8 46.9 22.3 25.2z"/><path fill="#0e2b37" fill-opacity=".4" d="M86.7 141.9l14.4-11.6 36.6-16.5 6.9 7.8z"/><path fill="#a6a9be" fill-opacity=".5" d="M27 58.3l22.5-8.1 9.8-8.3-20.6 27.9z"/><path fill="#b4c0cd" fill-opacity=".5" d="M37.6 82.2l21.9.1-34.9 96.9 30.8-16.3z"/><path fill="#dfd2e4" fill-opacity=".8" d="M182.7 73.6l-17.4 29.6-2.1-41.5 8.5-.8z"/><path fill="#a1794e" fill-opacity=".8" d="M143.3 70.1l9-75.1-18.9-11 5.6 76.7z"/><path fill="#a5aab1" fill-opacity=".6" d="M176.3 32.9l6.2 20.8-22.9 43.1L174 72.4z"/><path fill="#1e1d22" fill-opacity=".7" d="M169.6 122.6l-34.1-38.5 31.7 18 30.1-43.4z"/><circle r="1" fill="#503917" fill-opacity=".5" transform="matrix(-6.28443 1.84057 -8.86416 -30.26572 31.5 86.2)"/><ellipse cx="134" cy="61" fill="#00113e" fill-opacity=".6" rx="4" ry="19"/><ellipse cx="255" cy="45" fill="#6f2800" fill-opacity=".2" rx="10" ry="97"/><path fill="#e4f2ff" fill-opacity=".5" d="M119 40l3 19-10-22z"/><path fill="#c9f9ff" fill-opacity=".4" d="M100.4 132.5l4.6-28.4 10 21.7-.8-5.1z"/><path fill="#20110d" fill-opacity=".6" d="M162 3h12v57h-12z"/><circle cx="30" cy="116" r="6" fill="#daf0dd" fill-opacity=".5"/><path fill="#42282a" fill-opacity=".5" d="M13.3 141.4l-5.4-30.5 12.8-2.3 5.4 30.5z"/><path fill="#461a27" fill-opacity=".7" d="M122.1 41.9l-4 3.1 11.8 16-4.7 18.8z"/><path fill="#735137" d="M57.2 4.6l-5.8 27.3L-16-7.3 78 .2z"/><circle r="1" fill="#ac8971" fill-opacity=".7" transform="matrix(26.284 15.15596 -9.05126 15.697 219.4 14.2)"/><path fill="#0d0000" fill-opacity=".5" d="M83 30l14 21-20-14z"/><path fill="#ae826c" fill-opacity=".5" d="M93 64l11 38-20-31z"/><path fill="#b67941" fill-opacity=".2" d="M134.6 43.7l69.5-20.3-76.3-17.6-5.2-21.8z"/><path fill="#3d1d03" fill-opacity=".5" d="M196 103l-18 18 15-63z"/><path fill="#010f16" fill-opacity=".5" d="M157.2 71.2l-13-5.5 10.6-24.9 13 5.5z"/><path fill="#000007" fill-opacity=".3" d="M77.8 3.6l5.6 9.8L56.8-16l-2.7 43.5z"/><path fill="#8c4438" fill-opacity=".5" d="M86 120l13-8 3 28z"/><path fill="#e1ab95" fill-opacity=".5" d="M63 111l4-76-19 15z"/><path fill="#251428" fill-opacity=".4" d="M50.4 62.8L41 55.6 45.2 76l1.8-9.8z"/><circle r="1" fill="#aba072" fill-opacity=".3" transform="rotate(170.8 95.3 92.7) scale(44.83904 27.3597)"/><path fill="#191e34" fill-opacity=".9" d="M106.7 96.8l39.7 12.4-22.5-75.4 25.3 50.1z"/><path fill="#b89981" fill-opacity=".6" d="M246 118.1l-49.8-4.3 1.8-20 49.8 4.4z"/><path fill="#d8f6ff" fill-opacity=".6" d="M124.9 45.3l5.2 15.1-1 .3-5.2-15.1z"/><path fill="#956958" fill-opacity=".5" d="M13 80l5-6-16 2z"/><path fill="#b28770" fill-opacity=".5" d="M74.6 56L71 44.4 85.4 40 89 51.5z"/></g></svg>