<svg xmlns="http://www.w3.org/2000/svg" viewBox="0 0 300 199"><defs/><path fill="#343a54" d="M0 0h300v199H0z"/><g transform="translate(.6 .6) scale(1.17188)"><circle r="1" fill="#f2dba0" fill-opacity=".6" transform="matrix(-132.48377 -39.17211 70.21022 -237.45755 170.7 84.6)"/><circle r="1" fill="#dfe7dd" fill-opacity=".6" transform="rotate(-57.4 87.3 -134.8) scale(38.71021 86.73576)"/><ellipse cx="87" cy="169" fill="#0b3048" fill-opacity=".7" rx="50" ry="22"/><ellipse cx="14" cy="37" fill="#946a31" fill-opacity=".6" rx="90" ry="41"/><ellipse cx="193" cy="151" fill="#1f3032" fill-opacity=".8" rx="36" ry="11"/><circle r="1" fill="#8c5d34" fill-opacity=".7" transform="matrix(-50.1267 -21.36014 10.38696 -24.3755 138 80.8)"/><ellipse cx="68" cy="101" fill="#d0dfca" fill-opacity=".7" rx="27" ry="38"/><path fill="#dffbff" fill-opacity=".6" d="M140 85l22 100-41-53z"/><circle r="1" fill="#928343" fill-opacity=".5" transform="matrix(-24.51122 -7.23667 20.71108 -70.15017 9 137.2)"/><circle r="1" fill="#663c10" fill-opacity=".6" transform="matrix(8.22453 -7.88882 34.9943 36.4835 251 153.4)"/><circle r="1" fill="#cdb997" fill-opacity=".6" transform="matrix(-30.3425 23.1986 -20.3848 -26.6622 219 89)"/><circle r="1" fill="#3c330d" fill-opacity=".5" transform="matrix(7.48235 38.8393 -18.6354 3.5901 255 16.3)"/><path fill="#6095bc" fill-opacity=".4" d="M199 174L97 119l-69 17z"/><ellipse cy="68" fill="#47645e" fill-opacity=".7" rx="33" ry="51"/><path fill="#9ea5b0" fill-opacity=".7" d="M240 148.9l2.4 13.8L206 169l-2.4-13.8z"/><path fill="#ffe5ff" fill-opacity=".6" d="M204 135l-9-26 34 31z"/><path fill="#000200" fill-opacity=".5" d="M180.8 122.4l4.1-8 14.3 7.2-4.1 8z"/><path fill="#111419" fill-opacity=".5" d="M157.5 146l51.6-7.6-16.9 42.4-37.5-62.4z"/><circle r="1" fill="#b04b00" fill-opacity=".4" transform="matrix(-7.1609 -1.64501 17.92422 -78.02578 31.6 96.8)"/><path fill="#2f1b00" fill-opacity=".5" d="M117 79h9v43h-9z"/><ellipse cx="171" cy="169" fill="#d6ffff" fill-opacity=".4" rx="14" ry="16"/><circle r="1" fill="#9b6d3c" fill-opacity=".8" transform="matrix(-46.42154 -56.114 18.15137 -15.01612 50.8 14.5)"/><circle r="1" fill="#5b98a3" fill-opacity=".5" transform="matrix(10.00948 2.7947 -14.73788 52.78517 0 140.3)"/><path fill="#c2c6aa" fill-opacity=".8" d="M94 78L50 50l-14 89z"/><ellipse cx="185" cy="12" fill="#e2ebf0" fill-opacity=".4" rx="42" ry="26"/><path fill="#f0feff" fill-opacity=".6" d="M157.8 147.3l-.8-14.5-26-23.5 14.6 40.5z"/><path fill-opacity=".6" d="M177.5 72.3l1.6 7.8-16.6 3.6-1.6-7.8z"/><path fill="#102b3d" fill-opacity=".4" d="M91.1 123.9l13.5-12.4-43.9 51.9 49.2 7.3z"/><path fill="#a36d36" fill-opacity=".9" d="M121.7 47.8l-14.2 54.9-11.1 8.3-2.2-82.5z"/><path fill="#3b2003" fill-opacity=".6" d="M22.1 122.3L2.5 173.4l24-97.4 4.6 7.2z"/><path fill="#bcbaa3" fill-opacity=".6" d="M124 51L49-16l180 82z"/><path fill="#052834" fill-opacity=".6" d="M256.2 177.3l-16.4-4.4 6-22.2 16.4 4.4z"/><path fill="#548997" fill-opacity=".5" d="M76 145l-39-19-13 47z"/><path fill="#995f2c" fill-opacity=".6" d="M181 66l61 15-35 1z"/><path fill="#3d291f" fill-opacity=".8" d="M134.8 69.2l-12.7 4.5L140 88.2l3.2-.7z"/><path fill="#232f27" fill-opacity=".6" d="M175.8 150l-15.1-15.3-8.9 23.2.8 3.3z"/><ellipse cx="110" cy="116" fill="#bfcdb7" fill-opacity=".6" rx="4" ry="32"/><path fill="#a8abcd" fill-opacity=".6" d="M209.3 108.9l-24.1-20.5-21.5 58.1 20.2-32.6z"/><path fill="#edd9f6" fill-opacity=".5" d="M182.1 133l10.6 14.1 12.9-30.9 6.3 7.7z"/><circle r="1" fill="#965116" fill-opacity=".5" transform="matrix(-.50023 1.55804 -52.87638 -16.97675 221.8 94.6)"/><path fill="#b9beab" fill-opacity=".7" d="M217 73l41 8-58-93z"/><circle r="1" fill="#40405d" fill-opacity=".5" transform="matrix(6.03919 2.69498 -7.36926 16.51377 174.2 105.2)"/><path fill="#a88e78" d="M137 90.3l-3.4-11.4-10 24.6 12.9 10.1z"/><circle r="1" fill="#180a03" fill-opacity=".6" transform="rotate(-155.2 144.7 50.3) scale(33.79026 2.81165)"/><circle r="1" fill="#b99256" fill-opacity=".6" transform="rotate(98.2 -60.5 90.1) scale(57.88025 6.00674)"/><path fill="#ffdee8" fill-opacity=".4" d="M170.4 134.2l-12.8-13.9 28.8-.4-6.9.5z"/><path fill="#000208" fill-opacity=".3" d="M226.4 170.9l-24.6-40.4-7.6 14.2-33.2-2.3z"/><circle r="1" fill="#d37a1f" fill-opacity=".4" transform="matrix(-67.0549 -42.71042 2.67145 -4.19414 57.9 42.5)"/><path fill="#ffcaff" fill-opacity=".5" d="M216 147l-13-24 25 16z"/><path fill="#9c6835" fill-opacity=".6" d="M271 159.5l-25.2-36.8-41.6-.2 66.8 43.4z"/><path fill="#a0b3c2" fill-opacity=".7" d="M115.2 155.4l-2.6 4.5-13-17.1-30.9-37.6z"/><path fill="#461600" fill-opacity=".3" d="M157.9 135.7l-5.7-6-10.4-16.8 10.4-29z"/><path fill="#fffac4" fill-opacity=".4" d="M259 134l-35-36 24 6z"/><path fill="#bfddd0" fill-opacity=".5" d="M229 160h27v4h-27z"/><path fill="#ba9051" fill-opacity=".9" d="M215.5 82.6l13.2.8 39.2-.6 3.1 13.4z"/><path fill="#673b0b" fill-opacity=".6" d="M248.8 103.1l5 16.8 5 4.6-5.9-19.8z"/><path fill="#d8c688" fill-opacity=".3" d="M152 88l-21-30 38 11z"/><circle r="1" fill="#331000" fill-opacity=".4" transform="matrix(14.78527 -55.56713 2.2107 .58822 35 55)"/><path fill="#f2efd0" fill-opacity=".4" d="M80 76h16v19H80z"/><path fill="#29455c" fill-opacity=".5" d="M95.8 153.3l37.2-8.8-11.7 17.7-7.6-11z"/><path fill="#96b3bc" fill-opacity=".5" d="M100 125l16-14 33 67z"/><path fill="#2e2722" fill-opacity=".5" d="M219 67l3-6-10 3z"/><path fill="#bccbbb" fill-opacity=".5" d="M238.7 148.6l6 14.9-19.4 7.9-6-14.9z"/><path fill="#531700" fill-opacity=".5" d="M127.7 60.2l-84-75.6.6-.8 84 75.6z"/><path fill="#321300" fill-opacity=".6" d="M18.2 138L6.6 181.3 1.8 180l11.6-43.5z"/></g></svg>