<svg xmlns="http://www.w3.org/2000/svg" viewBox="0 0 300 199"><defs/><path fill="#2c3148" d="M0 0h300v199H0z"/><g transform="translate(.6 .6) scale(1.17188)"><circle r="1" fill="#d1bc9d" fill-opacity=".6" transform="matrix(-30.19056 75.86553 -25.79243 -10.26406 193.1 17)"/><circle r="1" fill="#0a0400" fill-opacity=".6" transform="matrix(-13.02706 -78.69007 32.7403 -5.42012 242 95.2)"/><circle r="1" fill="#3b2a08" fill-opacity=".4" transform="matrix(90.4642 49.216 -59.01586 108.4774 66.4 78)"/><ellipse cx="182" cy="162" fill="#6a6b65" fill-opacity=".7" rx="32" ry="80"/><ellipse cx="132" cy="24" fill="#88908d" fill-opacity=".5" rx="8" ry="89"/><ellipse cx="197" cy="27" fill="#faf5f2" fill-opacity=".4" rx="13" ry="34"/><circle r="1" fill="#080008" fill-opacity=".5" transform="matrix(-19.90466 2.05695 -7.82438 -75.71492 94.7 123.1)"/><circle r="1" fill="#71786f" fill-opacity=".6" transform="matrix(4.5914 14.04739 -44.99845 14.70776 158.5 6)"/><path fill="#beccf6" fill-opacity=".6" d="M161 102h8v38h-8z"/><circle r="1" fill="#4a342d" transform="matrix(-10.3091 -8.71187 6.20464 -7.3422 196.4 72.3)"/><path fill="#917472" fill-opacity=".9" d="M141.1 87.7l-2.7 21-14-14-4.1-24.4z"/><circle r="1" fill="#5f716e" fill-opacity=".4" transform="matrix(-20.77212 6.15298 -9.99665 -33.74812 49.7 10)"/><path fill="#cbbab6" fill-opacity=".4" d="M183.1 65.7l13.3 26.2-46.5-11.6 63-68.8z"/><ellipse cx="145" cy="57" fill-opacity=".6" rx="7" ry="36"/><ellipse cx="133" cy="125" fill="#121021" fill-opacity=".6" rx="27" ry="23"/><path fill="#fe935f" fill-opacity=".2" d="M118.2 1.6L104 43.1l-10.4 1.4 27.3 23.1z"/><path fill="#583e27" fill-opacity=".6" d="M211 9h45v27h-45z"/><path fill="#0c0d0e" fill-opacity=".7" d="M167.9 124l81.8-104.9 14.2 99.7L173 89.5z"/><path fill="#99c0ba" fill-opacity=".6" d="M181 105l7 11 26-19z"/><path fill="#ffe4ca" fill-opacity=".5" d="M151 142l2 17 12-6z"/><circle r="1" fill="#140b03" fill-opacity=".6" transform="rotate(-84.7 54 -37.9) scale(25.52861 15.677)"/><path fill="#661800" fill-opacity=".3" d="M137.8 185l42.1-74.6 10.6 50.4-10.2 24.2z"/><path fill="#775141" d="M149.7 94.5l3.7-14.8 21.1-5-4.4 19z"/><path fill="#4b5151" d="M154.1 68.2l-1.2-62.7 12.9 31.1 13.6 10.1z"/><path fill="#fffbec" fill-opacity=".6" d="M139.3 91.6L126 96.2l-1.3-3.8 13.3-4.6z"/><path fill="#476662" fill-opacity=".6" d="M181 131l32-38 7 92z"/><circle r="1" fill="#93876c" fill-opacity=".5" transform="matrix(-.7645 24.56873 -3.8066 -.11845 255 16.3)"/><path fill="#251905" fill-opacity=".6" d="M240.5 28.2L254 5.8l-9.8-11-22.8 10.1z"/><path fill="#000d2d" fill-opacity=".5" d="M167 149l-29-13 11-55z"/><path fill="#d5d1cc" fill-opacity=".6" d="M183 66l19-46 12 17z"/><path fill="#704c40" fill-opacity=".5" d="M138.1 151.7l-4 33.3-15.5-32 4.8-16.7z"/><circle r="1" fill="#4b2c20" fill-opacity=".4" transform="matrix(-8.98774 -8.2044 28.85531 -31.61035 112 22.3)"/><path fill="#a09b84" fill-opacity=".5" d="M163 4h29v37h-29z"/><path fill="#fff" fill-opacity=".5" d="M134 117h5v4h-5z"/><path fill="#a96051" fill-opacity=".6" d="M194.2 80.3l17.1-46.2-7.9 37.5-12.3 31.3z"/><ellipse cx="221" cy="164" fill="#31332b" fill-opacity=".6" rx="13" ry="21"/><path fill="#15192f" fill-opacity=".6" d="M204 101l-26-1-12-18z"/><path fill="#cb9b7e" fill-opacity=".6" d="M160 63l-2 29-7-16z"/><path fill="#bbc1c9" fill-opacity=".5" d="M172.6 84l6-10.4 14.8 8.5-6 10.3z"/><path fill="#080000" fill-opacity=".5" d="M175.7 44.2l-.4 8-9-.4.4-8z"/><path fill="#ebb7a0" fill-opacity=".5" d="M163.7 149.3l-3.6 13.5-7.8-2 3.6-13.6z"/><circle r="1" fill="#232326" fill-opacity=".5" transform="matrix(32.27727 .84468 -1.71867 65.67477 7.5 117.6)"/><path fill="#ffc0ab" fill-opacity=".2" d="M197.6 17.3l15.2-11 12.3 30.1-2.9-52.4z"/><circle cx="142" cy="17" r="7" fill="#81a6aa" fill-opacity=".5"/><path fill="#151217" fill-opacity=".5" d="M161.9 185l-21.3-51.3-5.6 33.6-64.3-16.5z"/><path fill="#c6d2f4" fill-opacity=".5" d="M147 144l10 1-9 3z"/><path fill="#b6b2af" fill-opacity=".5" d="M137.3 119h-3l.4-22h3z"/><path fill="#0f0e0d" fill-opacity=".7" d="M271 104.1l-36.9-71.7-29.8 27-3.3 39.3z"/><path fill="#393c3b" fill-opacity=".5" d="M76 161L9-7l64 42z"/><path fill="#0d170e" fill-opacity=".5" d="M190 77l-9-17 15 5z"/><path fill="#090300" fill-opacity=".4" d="M127 98h8v44h-8z"/><path fill="#bfeceb" fill-opacity=".2" d="M132 88.6l-23.2-35.9 9.9-13.5.5 27.9z"/><path fill="#e2cba2" fill-opacity=".5" d="M118 9l-4 8 7 3z"/><path fill="#54767c" fill-opacity=".6" d="M215.7 201.4l-12.7 2.9-20.7-89.7 12.7-2.9z"/><path fill="#543937" fill-opacity=".4" d="M162.9 110l2.2-38.2 13.7 8.6-1.9-17.9z"/><circle r="1" fill="#0c0b0b" fill-opacity=".6" transform="matrix(-7.99932 -114.73716 22.21389 -1.54872 255 154.3)"/><path fill="#533f2a" fill-opacity=".8" d="M217.5 34l-4.6-50-.3 30.6 2 33.6z"/><circle r="1" fill="#dff4ff" fill-opacity=".4" transform="matrix(-2.98415 -6.25999 2.43007 -1.15842 163.9 121)"/><path fill="#2e1c28" fill-opacity=".4" d="M131 86.7l-22.6 19.7-37.4-43 22.6-19.8z"/><path fill="#030807" fill-opacity=".4" d="M133.8 7.7L71 4.5l7.9 24.4 39.5-17.1z"/><path fill="#2a3d76" fill-opacity=".5" d="M158.1 143.1l-12.8-15.4 3.8 11.4-24.2 13.6z"/><ellipse cx="124" cy="48" fill="#1f1f22" fill-opacity=".6" rx="2" ry="27"/><path fill="#0b0a0c" fill-opacity=".5" d="M78 192.1l-2-122 16-.2 2 122z"/><ellipse cx="134" cy="39" fill="#758d93" fill-opacity=".6" rx="3" ry="25"/><path fill="#b7b1a2" fill-opacity=".4" d="M176.4 43.7l-8.3-11.4 27.1-9.2-14.3 64.4z"/></g></svg>