<svg xmlns="http://www.w3.org/2000/svg" viewBox="0 0 300 199"><defs/><path fill="#253541" d="M0 0h300v199H0z"/><g transform="translate(.6 .6) scale(1.17188)"><circle r="1" fill="#dff4f9" fill-opacity=".6" transform="matrix(5.38353 50.25083 -122.46079 13.11962 122.6 27.7)"/><path fill="#160f0c" fill-opacity=".9" d="M19 38h23v132H19z"/><circle r="1" fill="#fdeeda" fill-opacity=".7" transform="matrix(-16.47507 -21.2 28.0876 -21.82759 74.5 53.2)"/><path fill="#0c0909" fill-opacity=".8" d="M271 183l-287-19L237 51z"/><circle r="1" fill="#39749d" fill-opacity=".8" transform="matrix(89.24673 38.46316 -13.50522 31.3364 230.6 20.5)"/><circle r="1" fill="#21201f" fill-opacity=".8" transform="matrix(21.8888 15.2131 -16.74123 24.08748 156.8 90.9)"/><path fill="#e7ded3" fill-opacity=".5" d="M188 55L-6-16l77 95z"/><path fill="#f3d3b2" fill-opacity=".7" d="M20.5 25.7l-2 59-11-.4 2-59z"/><circle r="1" fill="#100f10" transform="rotate(48.2 -140.7 88.5) scale(55.53521 38.91222)"/><path fill="#131927" fill-opacity=".8" d="M5 77.3l-14.9-.8 4.8-91.8 15 .8z"/><path fill="#74a2b8" fill-opacity=".5" d="M173.5 78.2L91.7-16l102.4 37.7 41.7 26z"/><path fill="#ffd89c" fill-opacity=".5" d="M31 70h26v12H31z"/><circle r="1" fill="#542d0f" fill-opacity=".4" transform="matrix(46.16056 -9.4754 4.63802 22.59468 73 101.2)"/><circle r="1" fill="#58abdb" fill-opacity=".3" transform="matrix(73.43847 11.75816 -3.79971 23.73202 112.4 17.1)"/><ellipse cx="113" cy="66" fill="#ffcd87" fill-opacity=".4" rx="30" ry="14"/><ellipse cx="73" cy="93" fill="#cb9762" fill-opacity=".5" rx="21" ry="3"/><circle r="1" fill="#060d17" fill-opacity=".8" transform="matrix(-10.2344 12.73977 -47.75549 -38.36401 255 98)"/><path fill-opacity=".4" d="M18 43h26v17H18z"/><path fill="#1f1a16" d="M36.2 36.8l-6.6-3.1 5 30.5L47.7 129z"/><ellipse cx="233" fill="#003c7b" fill-opacity=".3" rx="70" ry="16"/><circle cx="28" cy="16" r="18" fill="#bfb8b8" fill-opacity=".7"/><path fill="#d09d78" fill-opacity=".4" d="M109.9 77.3l50.1-28 17.7 30.6 37.5-32.8z"/><path fill="#111621" fill-opacity=".8" d="M15.2-28l11 4.7L2.8 32l-11-4.7z"/><circle r="1" fill="#1f1c1b" fill-opacity=".5" transform="matrix(-56.43605 38.9003 -10.435 -15.13898 114.7 105.2)"/><path fill="#588aa7" fill-opacity=".6" d="M254.9 29l-73.2 32.7 72.6-9.5L68.5-4.1z"/><path fill="#64574a" d="M15.3 81.7l10.8-6.6-.5 11-17.8-1.9z"/><circle r="1" fill="#d6cfca" fill-opacity=".6" transform="rotate(-42.8 64.4 -49.7) scale(17.9554 8.72265)"/><path fill="#fff5e3" fill-opacity=".5" d="M46.4 40.5l72.7 21.6-77.7 18.1-.4-8.7z"/><path fill="#d3c1ae" fill-opacity=".7" d="M27.2 7.3l-14.5 75-4.1-16.1-1.2-2.7z"/><path fill="#afaaa3" fill-opacity=".5" d="M165 53l55-26-47 49z"/><ellipse cx="152" cy="86" fill="#00040a" fill-opacity=".5" rx="103" ry="3"/><path fill="#0b0c0e" fill-opacity=".6" d="M254.4 71.6L252.5 2l14.4 175.6-105-23.7z"/><path fill="#f0cb93" fill-opacity=".5" d="M40.8 72.2l27.7 2.6 11 9.4-13.1-1z"/><ellipse cx="108" cy="78" fill="#9b6c46" fill-opacity=".4" rx="28" ry="4"/><circle r="1" fill="#493e36" fill-opacity=".7" transform="matrix(4.11583 .49792 -.85236 7.04568 32.8 39)"/><circle r="1" fill="#b1c2cb" fill-opacity=".3" transform="matrix(-5.36284 14.8147 -75.81788 -27.44569 90.8 26.9)"/><path fill="#e6cdb4" fill-opacity=".5" d="M95 47h48v26H95z"/><circle r="1" fill="#06050a" fill-opacity=".8" transform="matrix(.40901 15.61946 -7.22025 .18907 27.4 60.4)"/><path fill="#1d1d1e" fill-opacity=".5" d="M81.3 183.5l27-90.3L159 59.9l12.9 4.2z"/><path fill="#ffe0bd" fill-opacity=".3" d="M34 60.4l3.4 19.7-4.3 6.2-.4-5.8z"/><path fill="#e2c5a3" fill-opacity=".4" d="M8.4 39.3L7.3 56.9l.2 23.2L21.4 72z"/><path fill="#ad774c" fill-opacity=".3" d="M48.1 111.1l-.7-3.3 31.7-3.9 20.1 5.3z"/><path fill="#0c0a0c" fill-opacity=".7" d="M5 164l15-94 15 115z"/><path fill="#0b2139" fill-opacity=".6" d="M200 60h40v16h-40z"/><ellipse cx="173" cy="99" fill="#3b3b3b" fill-opacity=".5" rx="36" ry="3"/><path fill="#6a7d88" fill-opacity=".3" d="M224 41l30 33-2-46z"/><circle r="1" fill="#f0d5af" fill-opacity=".5" transform="rotate(-93 57.7 10.7) scale(14.7434 9.40552)"/><circle r="1" fill="#191a1f" fill-opacity=".6" transform="matrix(36.17428 23.04556 -5.03951 7.91045 45.3 118.5)"/><ellipse cx="61" cy="93" fill="#b18b64" fill-opacity=".6" rx="22" ry="2"/><ellipse cx="67" cy="62" fill="#f4faff" fill-opacity=".5" rx="18" ry="10"/><circle r="1" fill="#397fa9" fill-opacity=".5" transform="matrix(5.50586 11.3612 -20.63074 9.99807 174 9.5)"/><path fill="#c9bfb9" fill-opacity=".6" d="M7 22h43v11H7z"/><circle r="1" fill="#286a97" fill-opacity=".5" transform="matrix(5.95323 28.49651 -12.32352 2.57452 202.5 2)"/><path fill="#37281c" fill-opacity=".5" d="M78 77h17v31H78z"/><path fill="#ecd5b3" fill-opacity=".5" d="M107.8 79.8l-24.5-6.6 12-22.7.4 31.7z"/><path fill-opacity=".4" d="M19 43h21v21H19z"/><path fill="#7fa9be" fill-opacity=".5" d="M172.2 53.5l-18-30.1 63.5 9.8-8.5 10.1z"/><path fill="#c9af9b" fill-opacity=".5" d="M118 75h15v4h-15z"/><path fill="#9d9284" fill-opacity=".7" d="M170.4 76.6l28.1-14.1 10.4-5.9-39.5 6.2z"/><ellipse cx="200" cy="82" fill="#000207" fill-opacity=".4" rx="64" ry="6"/><path fill="#241f1d" fill-opacity=".3" d="M24.3 98.8L38.7 77l20.8 14.1 8.5 23.7z"/><path fill="#cabaac" fill-opacity=".5" d="M21.9 29.2L36.7 46 18.1 30.8 14 58.1z"/><path fill="none" stroke="#45382a" stroke-opacity=".5" stroke-width=".5" d="M166.6 71.7q-37.7 2-60.3 4"/><path fill="#091c33" fill-opacity=".5" d="M235.8 80l-12.6-9.8 11-14.2 12.6 9.8z"/><path fill="#d0c2b5" fill-opacity=".4" d="M106 55l48-11 30 18z"/></g></svg>