<svg xmlns="http://www.w3.org/2000/svg" viewBox="0 0 300 199"><defs/><path fill="#563430" d="M0 0h300v199H0z"/><g transform="translate(.6 .6) scale(1.17188)"><circle r="1" fill="#c0c7c2" fill-opacity=".5" transform="rotate(-97.4 138.3 -10.7) scale(123.56373 188.39722)"/><ellipse cx="18" cy="93" fill="#5c554e" rx="38" ry="65"/><path fill="#d9ebfa" fill-opacity=".5" d="M24 135l81 50 158-26z"/><ellipse cx="74" cy="57" fill="#f2fdfc" fill-opacity=".4" rx="19" ry="32"/><path fill="#1a191a" fill-opacity=".6" d="M93 35h34v43H93z"/><ellipse cx="173" cy="30" fill="#d0c8bc" fill-opacity=".5" rx="59" ry="15"/><path fill="#dfe3e2" fill-opacity=".6" d="M186 13h16v73h-16z"/><ellipse cx="8" cy="73" fill="#c3afb0" fill-opacity=".6" rx="5" ry="50"/><circle r="1" fill="#cbf3f8" fill-opacity=".5" transform="rotate(-178.4 21.9 -.3) scale(30.99447 6.05885)"/><ellipse cx="214" cy="139" fill="#4b1714" fill-opacity=".3" rx="92" ry="10"/><path fill="#c7c3be" fill-opacity=".9" d="M131.1 89.3l12.7-9.9-.7-41.4-13.2-19.4z"/><path fill="#383843" fill-opacity=".5" d="M256.8 110.1l-16 1.4-7.6-87.6 16-1.4z"/><ellipse cx="227" cy="96" fill="#fcfcff" fill-opacity=".4" rx="13" ry="17"/><circle r="1" fill="#673a2f" fill-opacity=".6" transform="matrix(-9.31217 -27.66758 10.75054 -3.61834 158.5 59.8)"/><circle r="1" fill="#47352e" fill-opacity=".7" transform="matrix(.58634 -10.87223 35.2844 1.90288 34.4 129.9)"/><ellipse cx="145" cy="6" fill="#564039" fill-opacity=".6" rx="84" ry="9"/><circle r="1" fill="#16361f" fill-opacity=".7" transform="matrix(7.66432 29.38087 -13.2396 3.4537 33.1 38.5)"/><ellipse cx="240" cy="16" fill="#c9c7bd" fill-opacity=".7" rx="50" ry="7"/><circle r="1" fill="#cac6bb" fill-opacity=".6" transform="rotate(176.1 42.4 17.3) scale(38.76298 7.38422)"/><path fill="#d4c4bf" fill-opacity=".5" d="M100 81h28v30h-28z"/><ellipse cx="195" cy="115" fill="#7c554d" fill-opacity=".6" rx="23" ry="30"/><path fill="#c9c9c6" fill-opacity=".7" d="M95 87l-49-1 39-43z"/><circle r="1" fill="#614d3f" fill-opacity=".5" transform="rotate(-91.1 49.3 -31.9) scale(7.63786 52.39174)"/><ellipse cx="58" cy="168" fill="#adb1b7" fill-opacity=".6" rx="58" ry="15"/><circle cx="166" cy="101" r="9" fill="#faf9f8" fill-opacity=".5"/><path fill="#031a3c" fill-opacity=".3" d="M205.3 78.8l7.4-60.3 7.1 48.2 48.9 10.2z"/><circle r="1" fill="#ac928d" transform="matrix(11.58744 3.2263 -4.4563 16.00508 171.7 44.5)"/><path fill="#74483d" fill-opacity=".5" d="M131 87h23v57h-23z"/><circle r="1" fill="#d6dad9" fill-opacity=".5" transform="matrix(60.99658 -2.02346 .0477 1.43764 231.9 84.8)"/><ellipse cx="79" cy="111" fill="#967268" fill-opacity=".7" rx="30" ry="25"/><path fill="#afafb4" fill-opacity=".7" d="M271 165l-96-20-44 40z"/><ellipse cx="249" cy="127" fill="#6b5355" fill-opacity=".7" rx="18" ry="26"/><ellipse cx="228" cy="127" fill="#b38e8b" fill-opacity=".7" rx="7" ry="19"/><circle r="1" fill="#443c36" fill-opacity=".7" transform="matrix(240.5475 -26.4554 .23957 2.17831 119.5 19)"/><path fill="#03070b" fill-opacity=".5" d="M95 39l13 15 22-21z"/><ellipse cx="92" cy="137" fill="#54342d" fill-opacity=".6" rx="29" ry="3"/><path fill="#939194" fill-opacity=".9" d="M200.4 49.5l-.8-24 30-1 .8 24z"/><path fill="#c5c0b6" fill-opacity=".8" d="M91.7 24.3L189.9 13l45.8 10.3-78.2 6z"/><ellipse cx="3" cy="69" fill="#381f1d" fill-opacity=".5" rx="3" ry="41"/><path fill="#1e0004" fill-opacity=".3" d="M21.6 162.6l36.2-35.5-62.2 20.5-1.7-25.5z"/><path fill="#c0a29b" fill-opacity=".5" d="M13 95.2l5.3 21.3-25.3 6.3-5.3-21.3z"/><ellipse cx="16" cy="12" fill="#103923" fill-opacity=".4" rx="37" ry="10"/><path fill="#d5dbe6" fill-opacity=".5" d="M5 26h6v31H5z"/><path fill="#21120f" fill-opacity=".5" d="M176 142h46v6h-46z"/><path fill="#2d322a" fill-opacity=".6" d="M43 118.9l-11.5-3.5-1.6-31.7 13.7-9.6z"/><path fill="#a97d6f" fill-opacity=".5" d="M93 106h80v32H93z"/><path fill="#bcbcbb" fill-opacity=".5" d="M46 28h46v14H46z"/><path fill="#bdc1c6" fill-opacity=".5" d="M74-16L29 9 97-3z"/><path fill="#9ca28c" fill-opacity=".5" d="M25 80l-1-20 20 13z"/><circle r="1" fill="#765748" fill-opacity=".6" transform="matrix(-1.17054 -33.16387 2.49363 -.08801 37.2 152)"/><path fill="#abaaa5" d="M271 22.7l-17.3 40.9L255.3 6l-35.8 6.3z"/><circle cx="177" cy="84" r="6" fill="#e5eae8" fill-opacity=".5"/><path fill="#c3c7cb" fill-opacity=".5" d="M39 146h130v13H39z"/><path fill="#2c4f3e" fill-opacity=".3" d="M60 62.1l4.8-13.4-16-3.5-28.2 30.6z"/><path fill="#826256" fill-opacity=".5" d="M48.6 25.1l-1.5-11.9L147.4.9l1.5 11.9z"/><path fill="#8f806e" d="M90.6 35.6l1.1 32.2 4.4 38-2.2-65.9z"/><path fill="#64372e" fill-opacity=".5" d="M147 60h31v18h-31z"/><path fill="#100606" fill-opacity=".5" d="M52 88h46v2H52z"/><path fill="#100300" fill-opacity=".5" d="M237 146h19v6h-19z"/><path fill="#1c2939" fill-opacity=".4" d="M223 80.2l25.5-28.3 4.3 18.6-11.8 7.4z"/><path fill="#d1d5fd" fill-opacity=".2" d="M226.1 30.1l21.1 57.5-25.8-38.4-3.6-16.2z"/><path fill="#816d6c" fill-opacity=".7" d="M271-3.5L152.6 9.9l10.5 1.3L271-.4z"/><circle r="1" fill="#080502" fill-opacity=".4" transform="matrix(.51008 2.77923 -82.99055 15.23162 94.6 2.5)"/><ellipse cx="4" cy="97" fill="#020000" fill-opacity=".3" rx="3" ry="18"/><path fill-opacity=".5" d="M199 167h6v3h-6z"/></g></svg>