<svg xmlns="http://www.w3.org/2000/svg" viewBox="0 0 300 199"><defs/><path fill="#554536" d="M0 0h300v199H0z"/><g transform="translate(.6 .6) scale(1.17188)"><ellipse cx="103" cy="142" fill="#bcb0be" fill-opacity=".6" rx="228" ry="49"/><circle r="1" fill="#ebfffd" fill-opacity=".8" transform="matrix(29.0725 3.9788 -5.61061 40.99586 11 35)"/><circle r="1" fill="#acb3b7" fill-opacity=".8" transform="rotate(143.8 38.6 73) scale(28.87802 57.42329)"/><circle r="1" fill="#320d00" fill-opacity=".5" transform="matrix(45.38013 -12.01003 6.55473 24.7672 33.8 169)"/><ellipse cx="216" cy="2" fill="#c7e9ed" fill-opacity=".6" rx="72" ry="8"/><ellipse cx="32" cy="85" fill="#728070" fill-opacity=".7" rx="51" ry="25"/><circle r="1" fill="#1f0900" fill-opacity=".6" transform="matrix(5.38236 -27.75467 35.74112 6.93114 124.8 33.6)"/><circle r="1" fill="#6d1a00" fill-opacity=".4" transform="rotate(117.5 62.4 115.4) scale(104.71322 17.32593)"/><ellipse cx="240" cy="157" fill="#ebbfda" fill-opacity=".5" rx="39" ry="43"/><path fill="#111102" fill-opacity=".4" d="M65.9 140.1l-2.7-30.2L25 82.5l56.5 4.6z"/><circle r="1" fill="#3e2006" fill-opacity=".8" transform="matrix(19.5513 -22.89163 16.63111 14.20431 161.2 71.7)"/><path fill="#e7d0c3" fill-opacity=".4" d="M70 70l31 43-19-95z"/><circle r="1" fill="#a0b9c9" fill-opacity=".6" transform="matrix(104.50672 53.93881 -5.26846 10.20766 84.1 145.1)"/><circle r="1" fill="#8a9399" fill-opacity=".5" transform="matrix(3.91748 37.61323 -8.97825 .9351 127.5 74.5)"/><path fill="#2e2118" fill-opacity=".5" d="M48 113h44v13H48z"/><circle r="1" fill="#f5ffff" fill-opacity=".6" transform="matrix(35.63421 -72.73847 15.39636 7.5426 7.9 27.3)"/><ellipse cx="36" cy="32" fill="#9eb49a" fill-opacity=".5" rx="7" ry="46"/><circle r="1" fill="#53310d" fill-opacity=".7" transform="matrix(-81.91749 -35.19161 10.45744 -24.34236 225.8 71.5)"/><path fill="#0b0200" fill-opacity=".5" d="M98 10h24v59H98z"/><ellipse cx="64" cy="23" fill="#231e0c" fill-opacity=".6" rx="14" ry="49"/><path fill="#dceffd" fill-opacity=".6" d="M96.1 89.1l-17.9 24.4 42.5-37.2-6.2-12.7z"/><path fill="#3d3424" fill-opacity=".9" d="M70.8 52.4L91 2 39.4 75.5l48.3-16.1z"/><path fill="#b9c5c9" d="M38.7 114.3l-2 27.6 18.4-39.4-71.1 10.9z"/><path fill="#fff" fill-opacity=".4" d="M52.7 82.1l-1.8-5.7 34.4-10.5 1.8 5.7z"/><circle r="1" fill="#bcd8f4" fill-opacity=".4" transform="rotate(19.8 -389 363.3) scale(11.48903 59.998)"/><path fill="#b47d85" fill-opacity=".5" d="M267 108l-80 68 9-86z"/><ellipse cx="208" cy="34" fill="#7b5323" fill-opacity=".4" rx="49" ry="26"/><circle r="1" fill="#350e00" fill-opacity=".4" transform="matrix(15.811 -5.90374 4.60316 12.32788 45.4 152)"/><path fill="#959295" fill-opacity=".5" d="M115 178l43-23-31-109z"/><path fill="#cbd9e2" fill-opacity=".8" d="M94.6 118.3l-23.8-13.2 1.2-3.6 21.4.4z"/><ellipse cx="163" cy="105" fill="#ceeedf" fill-opacity=".4" rx="20" ry="9"/><path fill="#794321" fill-opacity=".5" d="M86 45h18v25H86z"/><path fill="#ece1e2" fill-opacity=".5" d="M63 104l-10-6 5 29z"/><ellipse cx="140" cy="4" fill="#776f59" fill-opacity=".6" rx="27" ry="5"/><ellipse cx="69" cy="95" fill="#000500" fill-opacity=".5" rx="13" ry="5"/><circle r="1" fill="#6c7478" fill-opacity=".7" transform="matrix(1.25984 -11.5573 23.84042 2.5988 0 147.6)"/><ellipse cx="197" cy="86" fill="#2e1400" fill-opacity=".5" rx="58" ry="8"/><circle r="1" fill="#a7b7b7" fill-opacity=".5" transform="matrix(34.41043 44.30985 -4.51934 3.50966 23.2 98)"/><circle r="1" fill="#65694d" fill-opacity=".6" transform="matrix(-7.53634 2.2988 -7.26691 -23.82376 47.5 42)"/><path fill="#edffff" fill-opacity=".5" d="M87 97l-2-35-12 3z"/><path fill="#d0c5d3" fill-opacity=".5" d="M265.4 168.1l-38.9-3.4 4.1-46.8 38.9 3.4z"/><path fill="#321804" fill-opacity=".8" d="M136.2 52.7l4.5 47.7 31.7-9.3L129 9.8z"/><path fill="#f5d2b3" fill-opacity=".5" d="M80 24h7v13h-7z"/><path fill="#472303" fill-opacity=".6" d="M136.2 40.5L139 8.6l32.8 2.9-2.8 31.9z"/><path fill="#834e45" fill-opacity=".6" d="M159.5 155l28.9-65 20 9-28.8 64.8z"/><path fill="#040000" fill-opacity=".5" d="M118.1 48.2l-42-63.1 9.1 35.7 37.5 51.1z"/><path fill-opacity=".4" d="M51 109.7l6 .8-2 13.8-6-.8z"/><path fill="#7a4d35" fill-opacity=".6" d="M92 84l-2 14-5-4z"/><path fill="#bdd6ec" fill-opacity=".5" d="M90.3 194.5L74 133.6l7.7-2L98 192.3z"/><path fill="#4f3323" fill-opacity=".7" d="M70.6 117.4l16.8-4.4-8.4-2.7L56.8 94z"/><path fill="#959dab" d="M133.1 185h-14.6l-31.4-29.8 15.2-3.2z"/><path fill="#926957" fill-opacity=".7" d="M36.4 185l41-33.5-21 7.7-44.6 22.7z"/><path fill="#9bada2" fill-opacity=".5" d="M5 62l33-16 5 28z"/><circle r="1" fill="#1c1509" fill-opacity=".5" transform="matrix(-.94505 -31.84214 5.69651 -.16907 61.7 42.7)"/><path fill="#f1b69a" fill-opacity=".5" d="M87 38.6l-5.6 17.5-3.8-.1-2.9-15.8z"/><path fill="#716f53" fill-opacity=".4" d="M8 66h36v31H8z"/><circle r="1" fill="#40250d" fill-opacity=".5" transform="rotate(-21.6 321.9 -589.6) scale(11.56933 39.53528)"/><path fill="#212c1b" fill-opacity=".5" d="M38.7 104.9l45.6-11.7-7.2-10.6-25 9.1z"/><path fill="#cfe1f1" fill-opacity=".5" d="M94 122l23 5-11 27z"/><path fill="#97a4b3" fill-opacity=".7" d="M106.1 123.6l23.8-36.8-6.6-19-34.2 49.3z"/><path fill="#2e1204" fill-opacity=".5" d="M65.3 154l-45.7 20.4-2.9-6.4 45.7-20.4z"/><path fill="#92a6b0" fill-opacity=".5" d="M45.7 106.6l-26.2 48.6-21.9-48.8-13.6 15.9z"/><ellipse cx="94" cy="76" fill="#edb387" fill-opacity=".5" rx="6" ry="14"/><path fill="#bbd4d9" fill-opacity=".4" d="M247 7l-58 1 23-24z"/><ellipse cx="67" cy="30" fill="#88724d" fill-opacity=".4" rx="2" ry="61"/></g></svg>