<svg xmlns="http://www.w3.org/2000/svg" viewBox="0 0 300 199"><defs/><path fill="#482c23" d="M0 0h300v199H0z"/><g transform="translate(.6 .6) scale(1.17188)"><ellipse cx="150" cy="70" fill="#e1c5ab" fill-opacity=".6" rx="255" ry="109"/><circle r="1" fill="#000010" fill-opacity=".6" transform="matrix(-2.80485 53.51977 -21.45967 -1.12465 129.8 97.6)"/><circle r="1" fill="#1f0600" fill-opacity=".6" transform="matrix(27.5367 -7.37113 5.1635 19.28953 202.5 64.4)"/><circle r="1" fill="#cfe2f9" fill-opacity=".6" transform="rotate(10.7 -787 984.1) scale(31.78334 56.44011)"/><circle r="1" fill="#ebefec" fill-opacity=".7" transform="matrix(10.40927 -116.78829 13.28732 1.1843 248 101.7)"/><ellipse cx="221" cy="98" fill="#753418" fill-opacity=".7" rx="11" ry="88"/><ellipse cy="69" fill="#521500" fill-opacity=".6" rx="18" ry="48"/><circle r="1" fill="#effcfe" fill-opacity=".5" transform="matrix(-55.53906 7.1635 -2.19408 -17.01086 140.8 0)"/><ellipse cx="26" cy="26" fill="#fffde9" fill-opacity=".5" rx="14" ry="52"/><circle r="1" fill="#efece0" fill-opacity=".4" transform="rotate(68.8 -76 101.3) scale(29.34339 26.19046)"/><circle r="1" fill="#d88235" fill-opacity=".5" transform="matrix(-13.87706 -71.3913 29.15107 -5.6664 88.6 79.3)"/><path fill="#46351d" fill-opacity=".5" d="M65.6 91.1L48.7 26.7 35.1 82.4-13.7 102z"/><path fill="#080d2d" fill-opacity=".6" d="M157 114l-38 49 12-135z"/><path fill="#d8d3d8" fill-opacity=".5" d="M158 79h28v74h-28z"/><path fill="#322732" fill-opacity=".5" d="M195 138l20 47 8-111z"/><circle r="1" fill="#d1bb9d" fill-opacity=".6" transform="matrix(19.47261 3.6266 -7.49815 40.26053 196.3 9.8)"/><circle r="1" fill="#efcda1" fill-opacity=".4" transform="rotate(-177.1 28.4 4.2) scale(65.10932 22.34968)"/><path fill="#0e0308" fill-opacity=".4" d="M103 65h96v13h-96z"/><ellipse cx="46" cy="167" fill="#975137" fill-opacity=".8" rx="50" ry="5"/><path fill="#d6c0cc" fill-opacity=".4" d="M212.1 90.2l-11.9-31.3-6.7 60-3.7 42.7z"/><path fill="#b3632b" fill-opacity=".7" d="M244.5-16l-8.2 105.3-10.8 55.7-.1-152z"/><path fill="#230a03" fill-opacity=".4" d="M167.2 31.5L138 20.8l4.7-2.1-11.1 16.9z"/><path fill="#dad032" fill-opacity=".6" d="M243 46h13v24h-13z"/><path fill="#866124" fill-opacity=".7" d="M259.1 2.2l-2.2 32-6-.4 2.2-32z"/><circle r="1" fill="#903d11" fill-opacity=".5" transform="matrix(10.99154 58.73278 -4.58244 .85758 75 130.3)"/><path fill="#5f2b18" fill-opacity=".7" d="M17 53l-31 30 40 13z"/><circle r="1" fill="#ac5b1f" fill-opacity=".6" transform="matrix(6.50611 -.91232 6.07665 43.33503 56.8 5.3)"/><circle r="1" fill="#d0b794" fill-opacity=".4" transform="matrix(-60.38635 32.30108 -14.09268 -26.34604 6.5 135.7)"/><path fill="#d3ced6" fill-opacity=".8" d="M271 163.3L226.5 185l3.2-40.3 8.9-76.6z"/><circle r="1" fill="#96582b" fill-opacity=".5" transform="matrix(-3.39027 .01705 -.21791 -43.33298 108.3 27.8)"/><path fill="#000600" fill-opacity=".5" d="M40 35h15v10H40z"/><path fill="#cebca3" fill-opacity=".7" d="M17.7 52.6l45.2-6.1-28.6 17.1 27.4 4.9z"/><path fill="#d4bb9e" fill-opacity=".6" d="M145 67l46-32h-44z"/><ellipse cx="150" cy="104" fill="#5b3d27" fill-opacity=".7" rx="8" ry="20"/><path fill="#e1deda" fill-opacity=".8" d="M254-3.1l-8 1.7-3.5 21.8-7.2 82.8z"/><path fill="#c4a99b" fill-opacity=".5" d="M88 131h31v31H88z"/><ellipse cx="124" cy="169" fill="#35262a" fill-opacity=".6" rx="6" ry="126"/><path fill="#000608" fill-opacity=".6" d="M178 51h19v27h-19z"/><path fill="#0a0516" fill-opacity=".5" d="M232.9-37L222 65.3l-3-.3 11-102.4z"/><path fill="#071201" fill-opacity=".4" d="M58.6 86.1l6.1-11.8-29.1-5.8-1.6 9.2z"/><path fill="#e7dccc" fill-opacity=".4" d="M110 38l12 30-6-63z"/><path fill="#925138" fill-opacity=".4" d="M100 59h21v82h-21z"/><path fill="#e7e5e3" fill-opacity=".3" d="M76 165H50l14-77z"/><path fill="#d8d7dd" fill-opacity=".4" d="M24 27h10v61H24z"/><path fill="#dea45c" fill-opacity=".5" d="M62 24l35 4-7 109z"/><circle r="1" fill="#b4c0ce" fill-opacity=".4" transform="matrix(-4.64208 29.86911 -10.7567 -1.67174 144 158.1)"/><circle r="1" fill-opacity=".7" transform="matrix(3.49405 .38698 -.75733 6.83795 205.8 121.8)"/><path fill="#80757a" fill-opacity=".5" d="M194.8 143.1l21.2-28.2-5.3 62.6-20.2-26.2z"/><path fill="#dccbb1" fill-opacity=".6" d="M38-16l20 50-71-22z"/><path fill="#01103a" fill-opacity=".8" d="M123.5 84l-1.7-36.8 19.1 5.6-2.6 77.2z"/><path fill="#9b7865" fill-opacity=".6" d="M182.4 90.7l.2 8-39 .6-.2-8z"/><path fill="#dedddc" fill-opacity=".5" d="M154 78h30v14h-30z"/><path fill="#efbc6c" fill-opacity=".4" d="M123 92h5v17h-5z"/><circle r="1" fill="#dedcdf" fill-opacity=".5" transform="rotate(-98.8 37.8 -30.1) scale(21.62989 5.76146)"/><path fill="#9d684b" fill-opacity=".5" d="M106 30h46v10h-46z"/><path fill="#0c0202" fill-opacity=".4" d="M222.8 63.1l-21.9 17.1-7.6 8.5-10.3-5.2z"/><circle r="1" fill="#cea89b" fill-opacity=".6" transform="rotate(101 71.4 115.4) scale(8.25648 1)"/><circle r="1" fill="#f8d3d6" fill-opacity=".5" transform="matrix(13.13228 -5.25254 1.46733 3.66859 199 89.2)"/><path fill="#ecd5ac" fill-opacity=".4" d="M215.6 29.2L213.4 55l-3-.3 2.2-25.9z"/><path fill="#9d5829" fill-opacity=".6" d="M69 107l13 77 7-36z"/><path fill="#eeece0" fill-opacity=".5" d="M151 23h24v4h-24z"/><path fill="#461531" fill-opacity=".4" d="M193.9 94l.8-1.3-3.9 18.1-10.3-8.1z"/><path fill="#88684a" fill-opacity=".6" d="M140.6 35.2l45.8-5.5 2.1-45.7-3.6 37.9z"/><path fill="#f1ead3" fill-opacity=".3" d="M89 121.8l17.8 77-5.8 1.4-17.8-77z"/><path fill="#d3ebff" fill-opacity=".3" d="M148.7 18l-21.3 14.3 12.5-37.6L212.6-16z"/></g></svg>