<svg xmlns="http://www.w3.org/2000/svg" viewBox="0 0 300 199"><defs/><path fill="#563a31" d="M0 0h300v199H0z"/><g transform="translate(.6 .6) scale(1.17188)"><circle r="1" fill="#f7e4c1" fill-opacity=".6" transform="rotate(-86.2 57.2 -39.6) scale(61.58998 152.5122)"/><path fill="#a8a099" fill-opacity=".7" d="M172 185L55 65l129 40z"/><path fill="#1c0b10" fill-opacity=".6" d="M59 33h30v43H59z"/><path fill="#070d10" fill-opacity=".8" d="M142 114L39 185l118-36z"/><circle r="1" fill="#000c16" fill-opacity=".6" transform="rotate(72 -59.1 116.5) scale(55.18487 37.25546)"/><circle r="1" fill="#ffefc8" fill-opacity=".6" transform="matrix(-74.27344 33.77394 -9.59434 -21.09923 44.1 24.3)"/><ellipse cx="255" cy="34" fill="#9b8e84" fill-opacity=".8" rx="20" ry="75"/><circle r="1" fill="#679aa1" fill-opacity=".5" transform="matrix(-4.10765 -81.08623 20.4492 -1.03591 17.2 137.8)"/><ellipse cx="222" cy="139" fill="#001625" fill-opacity=".6" rx="28" ry="79"/><path fill="#734e2e" fill-opacity=".5" d="M205.2-16l-94.3 78.2 21.2 50.2 13-13.8z"/><circle r="1" fill="#b7c5cf" fill-opacity=".6" transform="matrix(24.0789 -20.1527 14.0774 16.82 158.2 169)"/><path fill="#e8d9d2" fill-opacity=".4" d="M152 156l8-110 38-17z"/><path fill="#f9e0c0" fill-opacity=".5" d="M103 13h10v129h-10z"/><path fill="#f5fafb" fill-opacity=".5" d="M57 71l3-46L6 56z"/><path fill="#755a40" fill-opacity=".7" d="M205.3-16l55.4 25.3 9-25.3-93 54.7z"/><path fill="#da9b93" fill-opacity=".5" d="M75 55h29v40H75z"/><path fill="#67492f" fill-opacity=".7" d="M149.1 49.7l16.2 42-22.4 8.6-16.2-42z"/><circle r="1" fill="#646455" fill-opacity=".5" transform="matrix(17.73582 70.8175 -6.68679 1.67467 187.1 129.8)"/><path fill="#fed9c9" fill-opacity=".5" d="M136.6 106.5l21.4 41.2 9.5-35.5-15.3-17.1z"/><ellipse cx="20" cy="77" fill="#5f7476" fill-opacity=".6" rx="45" ry="12"/><path fill="#e9ce99" fill-opacity=".6" d="M125 47L75 29.7 89-11l50 17.3z"/><circle cx="72" cy="47" r="14" fill-opacity=".4"/><circle r="1" fill="#111417" fill-opacity=".6" transform="matrix(-22.40538 19.14788 -50.26392 -58.81497 86.7 155)"/><path fill="#86878b" d="M160.6 149.5l14.8-28.5 17.8 64-31.2-26.8z"/><circle r="1" fill="#1f2324" fill-opacity=".8" transform="rotate(102.4 65.3 125.8) scale(21.35429 16.24485)"/><path fill="#feffff" fill-opacity=".4" d="M134.5 159.6l22.5-11 14.5 29.8-22.5 11z"/><path fill="#d8bc9f" fill-opacity=".5" d="M106 140l-8-45 44 17z"/><path fill="#121923" fill-opacity=".7" d="M245 112.5l41.2 68.6-47.2 28.4-41.2-68.6z"/><path fill="#422216" fill-opacity=".5" d="M134.6 46.7l-6.5 64.5 16.1-8.5-.1 3.5z"/><ellipse cx="114" cy="83" fill="#4b524d" fill-opacity=".4" rx="4" ry="40"/><path fill="#9b8e86" fill-opacity=".8" d="M271 72l-43-37 34 114z"/><path fill="#241e20" fill-opacity=".5" d="M8.9 181.5l-12.8-11.1 19-22 12.8 11.2z"/><path fill="#c0afa4" fill-opacity=".7" d="M239.6 4.4l-86.5 49.3 25.5 86.3-8.6-63.3z"/><path fill="#857268" fill-opacity=".8" d="M233.5 34.4l-99.8 46.3 107-54.3-15.4 8.5z"/><circle r="1" fill="#b19263" fill-opacity=".6" transform="matrix(-16.36265 -11.37953 27.07581 -38.93237 159 9.8)"/><circle r="1" fill="#29333a" fill-opacity=".5" transform="matrix(4.87372 -.85462 9.5485 54.4529 184.6 134.8)"/><path fill="#7b8c88" fill-opacity=".6" d="M-8 127l14 19 36-64z"/><path fill="#1e201f" fill-opacity=".7" d="M78.6 88.5l12 17.1 28.9 57.2-60.4-93.4z"/><path fill="#ece6de" fill-opacity=".5" d="M-16 40l73 8 4 26z"/><circle r="1" fill="#dec191" fill-opacity=".6" transform="matrix(-108.82458 20.22531 -2.68082 -14.42447 53.9 7.2)"/><path fill="#e4fbff" fill-opacity=".5" d="M79.9 77.7l10 23.1-24.5-27 6.5 5.4z"/><path fill="#232321" fill-opacity=".7" d="M83.4 34.4l14.4 3.3-39.5 10.6 4.2 38.5z"/><path fill="#b27368" fill-opacity=".5" d="M73 53h30v24H73z"/><circle r="1" fill="#dcb070" fill-opacity=".3" transform="matrix(11.13768 58.24105 -3.28421 .62805 197.4 160.2)"/><path fill="#151618" fill-opacity=".5" d="M125.8 185L87.6 94.5l14.6 10.7-80.6 31.9z"/><path fill="#111212" fill-opacity=".5" d="M147 121l-57 31h64z"/><path fill="#c3b7b8" fill-opacity=".5" d="M171.2 79.1L166.5 67l52.3-20.1 4.7 12.1z"/><ellipse cx="19" cy="78" fill="#6c786c" fill-opacity=".3" rx="24" ry="22"/><path fill="#ebccb9" fill-opacity=".4" d="M93.9 87l39.4-46.1-26 45 7 53z"/><path fill="#253b2f" fill-opacity=".6" d="M24 138l-7-17 9-14z"/><path fill="#5b4a3f" fill-opacity=".4" d="M241.1 28.2L271 7.7 251-.5 271 88z"/><path fill="#d3d4d6" fill-opacity=".9" d="M174.7 168l-16.3 10.2 3.8-41.6-18.9 26.4z"/><path fill="#f0d4a8" fill-opacity=".5" d="M120 97h8v29h-8z"/><path fill="#a79589" fill-opacity=".8" d="M234.1 19.2l-13.2 41 32-7.7-7.7-17.8z"/><circle r="1" fill="#f0dfc1" fill-opacity=".5" transform="matrix(-.9191 -6.12595 30.26185 -4.54026 72.3 28)"/><path fill="#a68965" fill-opacity=".5" d="M140 87l4-33 8 40z"/><path fill="#4e2d13" fill-opacity=".5" d="M137 76l31 30-10-20z"/><circle r="1" fill="#0a0f0d" fill-opacity=".5" transform="rotate(169.8 94 64.7) scale(6.49306 29.18068)"/><path fill="#6d4e34" fill-opacity=".7" d="M119.5 65.7l20.8-16.8 22 19.1-9.7 4.7z"/><path fill="#d0dbe1" fill-opacity=".3" d="M16.5 92.5l-10.7 8.6-1.6-20.6-19.5 1.1z"/><path fill="#222221" fill-opacity=".8" d="M186.4 74.1l-7.2 2.9 20.6 22.7 27.3-40.3z"/><circle r="1" fill="#50302a" fill-opacity=".4" transform="rotate(-113 78.2 18.3) scale(21.27131 2.12956)"/><circle r="1" fill="#79747f" fill-opacity=".4" transform="matrix(5.82918 16.34024 -9.77304 3.48642 28.8 155.5)"/><path fill="#715947" d="M174.4 79l-2-4.5 18.6 34.4-7.9-29.2z"/><path fill="#26303a" fill-opacity=".5" d="M246 114l-21-62-26 69z"/></g></svg>