<svg xmlns="http://www.w3.org/2000/svg" viewBox="0 0 300 199"><defs/><path fill="#4f3630" d="M0 0h300v199H0z"/><g transform="translate(.6 .6) scale(1.17188)"><circle r="1" fill="#dcd8d1" fill-opacity=".6" transform="matrix(-74.43478 -171.65892 115.00093 -49.86673 123.4 106.2)"/><ellipse cx="35" cy="30" fill="#ede8e3" fill-opacity=".5" rx="105" ry="48"/><ellipse cx="231" cy="141" fill="#cbe0fd" fill-opacity=".6" rx="26" ry="54"/><circle r="1" fill="#38190a" fill-opacity=".5" transform="matrix(5.22262 10.8504 -79.14504 38.09488 178.2 39.6)"/><circle r="1" fill="#271104" fill-opacity=".7" transform="matrix(-17.04672 -8.41648 6.88366 -13.94216 222.5 70.2)"/><path fill="#5e3328" fill-opacity=".6" d="M210.3 175.2l-73 12.9-7.6-43.3 73-12.9z"/><path fill="#1e0a00" fill-opacity=".4" d="M-16 76l99 43-4-38z"/><path fill="#b8ad9e" fill-opacity=".8" d="M129.1 71.2l139.4-61.1 2.5 4.4L202.9 63z"/><path fill="#654839" fill-opacity=".6" d="M154.5 112.2l25.7-8.6-5.2-43.3-29.6 16.8z"/><path fill="#725748" fill-opacity=".6" d="M0 146h85v24H0z"/><path fill="#c9d0de" fill-opacity=".8" d="M212 97.1l-60.8 38.1 88.1-8.1-31.3 6.3z"/><circle r="1" fill="#b7b6b9" fill-opacity=".7" transform="matrix(-79.1416 23.29264 -8.20825 -27.88925 158.6 0)"/><path fill="#1e0400" fill-opacity=".5" d="M65-4l10 25 14-8z"/><path fill="#d7d5d1" fill-opacity=".7" d="M29.7 89l-2.6 45.2-21.2 14.5L3 106.4z"/><path fill="#5a5847" d="M47.6 88l-9.3-10.2 9.3 64.3L59.1 113z"/><circle r="1" fill="#030000" fill-opacity=".5" transform="rotate(-28.2 143.2 -366.8) scale(51.29756 3.31887)"/><ellipse cx="133" cy="131" fill="#96776b" fill-opacity=".9" rx="13" ry="53"/><path fill="#eff0eb" fill-opacity=".5" d="M77 129l15-40 9 34z"/><path fill="#e7f4ff" fill-opacity=".5" d="M78 165h95v5H78z"/><path fill="#5e5441" fill-opacity=".9" d="M3.6 158L-16 70.5l61.1 13.1-41.2 16.9z"/><path fill="#604739" fill-opacity=".9" d="M259 110.3l5.1-40L203.4 90l17.7-23.8z"/><path fill="#5d3525" fill-opacity=".5" d="M65.3 86.9L114 63.2l4.8 10L70 96.7z"/><path fill="#e4d8d4" fill-opacity=".4" d="M70 87l-7 60-9-51z"/><path fill="#f1f4ef" fill-opacity=".5" d="M36 112h10v38H36z"/><path fill="#dec8c3" fill-opacity=".5" d="M160 78h41v17h-41z"/><path fill="#32201e" fill-opacity=".5" d="M208.8 163.9l4.4-1-185.9-5.8 178.4 11.2z"/><path fill="#290c00" fill-opacity=".3" d="M145.7 54.1l10.3 67.4 21.3-.8-13.6-10.3z"/><path fill="#4f260d" fill-opacity=".5" d="M36 122H0v-4h36z"/><path fill="#2f180d" fill-opacity=".5" d="M14 142h21v8H14z"/><circle r="1" fill="#fae9c5" fill-opacity=".4" transform="matrix(-1.38964 -3.58304 47.12839 -18.27823 127.8 77.5)"/><ellipse cx="56" cy="52" fill="#cfc8be" fill-opacity=".6" rx="51" ry="29"/><circle r="1" fill="#5a4036" fill-opacity=".5" transform="matrix(4.0328 7.50734 -60.75248 32.63512 225.4 17.8)"/><path fill-opacity=".4" d="M232 36l30-4 2 38z"/><path fill="#bdbab8" fill-opacity=".6" d="M122.8 56.2l-14-25.3 52.4-29.1 14 25.3z"/><ellipse cx="32" cy="125" fill="#67412e" fill-opacity=".6" rx="2" ry="41"/><path fill="#3f2e24" fill-opacity=".8" d="M223.8 82.6l10.5-24.8-13.8-7.1L201.1 82z"/><circle cx="81" cy="154" r="8" fill="#2b0400" fill-opacity=".4"/><path fill="#754025" fill-opacity=".5" d="M123 99l-4-19 20 5z"/><path fill="#bec3ce" fill-opacity=".7" d="M197.6 107.8L219 82.7l52 30.7-61.7 51.1z"/><path fill="#240b00" fill-opacity=".3" d="M162.3 76.9l11.2-14.5.5 44.8 13.6-1.7z"/><path fill="#875947" fill-opacity=".6" d="M135 138l24-7 39 20z"/><path fill="#f6ecc9" fill-opacity=".3" d="M115.8 123.9l62.9-17.8-55 11.6-9.5-51.6z"/><path fill="#fbefca" fill-opacity=".4" d="M142 76h8v39h-8z"/><path fill="#785c53" fill-opacity=".8" d="M153.9 124.6l-18.8-4.1-48.3 8.6 81.9-17.3z"/><path fill="#aca296" fill-opacity=".8" d="M231.3 28l9.8 37.2-2.3 5.6-15.3-37.6z"/><path fill="#e7e7e5" fill-opacity=".6" d="M19 93h12v25H19z"/><path fill="#f9ffff" fill-opacity=".3" d="M63.2 129.2l-12.5 24.1 1.4-33.1 12.8 2z"/><path fill="#373a28" fill-opacity=".4" d="M38 89l23 18-10 28z"/><path fill="#2a1700" fill-opacity=".2" d="M98.1 95.1l14.1-8.1 4.3 46.5-.3-36.1z"/><path fill="#d6cfd2" fill-opacity=".4" d="M101.6 163.1l-21.2-.4-38.3 8.7 101-6.3z"/><path fill="#c9ccd6" fill-opacity=".9" d="M167.5 135.3l23.3-2.3 27.6-20.5-64.7 11.9z"/><path fill="#b27d59" fill-opacity=".5" d="M64.1 108.4L85.4 185l-21.3-16.3.3-32.1z"/><path fill="#d0d1d1" fill-opacity=".4" d="M80.2 94.1l41.7 5.7-15.9 11.9-24.4-3.7z"/><path fill="#3b2a23" fill-opacity=".5" d="M161.3 35.7l-.3 9L59.1 91.5l51.5-28z"/><path fill="#c7c0be" fill-opacity=".6" d="M60 119.2l-.3-27.3 4.3-1.5 4.2 33.5z"/><path fill="#cab8b7" fill-opacity=".5" d="M73.9 143.9l48-13-42.1-1.6-3.9-22.4z"/><path fill="#090000" fill-opacity=".3" d="M154.4 72.3l6.8 21-7.6 2.4-6.8-21z"/><ellipse cx="72" cy="103" fill="#643316" fill-opacity=".4" rx="8" ry="14"/><path fill="#6c5044" d="M235.1 17.4l-4.8 6.6-18.9-6.9 18.1-8.7z"/><path fill="#c49d86" fill-opacity=".5" d="M189 70l-26 12-5 24z"/><path fill="#351e13" fill-opacity=".5" d="M69 83l-20 4-20-9z"/><path fill="#836454" fill-opacity=".6" d="M117.7 65.6l3.8 8.1-27.2 12.7-3.8-8.1z"/><path fill="#c7beb4" fill-opacity=".4" d="M194.3 44.1l-17.7 8.6 8.7 55.8 21.1-18.9z"/><path fill="#482e26" fill-opacity=".5" d="M55 147h10v20H55z"/><circle r="1" fill="#bab6bb" fill-opacity=".6" transform="rotate(3.5 -2650.6 3121.1) scale(108.23537 1)"/></g></svg>