<svg xmlns="http://www.w3.org/2000/svg" viewBox="0 0 299 449"><defs/><path fill="#473221" d="M0 0h299v449H0z"/><g transform="translate(.9 .9) scale(1.7539)"><circle r="1" fill="#d6d6d5" fill-opacity=".7" transform="rotate(54.6 -177 141.8) scale(153.15416 60.70284)"/><circle r="1" fill="#f1ffff" fill-opacity=".5" transform="matrix(-17.56222 62.06358 -28.2428 -7.9919 45 215)"/><ellipse cx="23" cy="115" fill="#673e23" fill-opacity=".8" rx="18" ry="72"/><path fill="#dac2b3" fill-opacity=".6" d="M84 143H42l24-75z"/><ellipse cy="104" fill="#d1d7d8" fill-opacity=".7" rx="6" ry="108"/><circle r="1" fill="#222019" fill-opacity=".8" transform="rotate(166.5 69.4 85.6) scale(44.56047 116.91421)"/><circle r="1" fill="#7e634c" fill-opacity=".5" transform="rotate(63.7 -118 195) scale(98.85846 17.15584)"/><path fill="#6c4a35" fill-opacity=".8" d="M7 220l4-156 34 88z"/><circle r="1" fill="#d5d1cb" fill-opacity=".7" transform="rotate(49.4 -103.3 123.9) scale(5.74384 29.28963)"/><circle r="1" fill="#eff" fill-opacity=".5" transform="matrix(12.392 3.6002 -11.63923 40.06248 33.7 202.2)"/><ellipse cx="42" fill="#2e1a08" fill-opacity=".7" rx="12" ry="125"/><path fill="#dff1f4" fill-opacity=".8" d="M17 207l20 33-38 31z"/><path fill="#4d3120" fill-opacity=".5" d="M52.5 136.2l-2.8 15.9-34.6 42.2 15.3-36.4z"/><path fill="#4a4442" fill-opacity=".8" d="M19.7 199.2L-16 222.1l27.7-3.6 2.3-4.4z"/><path fill="#373027" fill-opacity=".5" d="M70 129l59 78 9-223z"/><circle r="1" fill="#080800" fill-opacity=".7" transform="rotate(165 70 125) scale(23.12499 36.01917)"/><circle r="1" fill="#1c130a" fill-opacity=".6" transform="matrix(-15.92789 9.5982 -12.68554 -21.05122 93.5 82.2)"/><path fill="#865531" fill-opacity=".3" d="M73 97h14v121H73z"/><path fill="#fff" fill-opacity=".5" d="M128 2l-4 8 1-9z"/><path fill="#bdbdbf" fill-opacity=".4" d="M59.5 104.1L45.8 119l37.7 152L61.8 68.1z"/><circle r="1" fill="#84522d" fill-opacity=".5" transform="matrix(4.52986 42.1284 -11.73924 1.26226 17.5 68)"/><circle r="1" fill="#8997a9" fill-opacity=".4" transform="matrix(18.47991 -16.56027 34.18911 38.15227 106.8 251.4)"/><path fill="#54351b" fill-opacity=".6" d="M66 96L46 80l-17 42z"/><circle r="1" fill="#29291c" fill-opacity=".5" transform="matrix(-92.7672 22.09927 -4.88292 -20.49726 157.7 20.9)"/><path fill="#6e5443" fill-opacity=".4" d="M102 111l-60 28 63-2z"/><ellipse cx="61" cy="78" fill="#f7d0b0" fill-opacity=".4" rx="5" ry="9"/><path fill="#dee1e5" fill-opacity=".6" d="M51.8 198l-1.6-83.7-14 27.6 29.8 4.2z"/><path fill="#ffffdc" fill-opacity=".6" d="M96 4L86-16l2 15z"/><path fill="#dff0f9" fill-opacity=".4" d="M0 220h40v14H0z"/><path fill="#abb1a1" fill-opacity=".5" d="M156 50l8-7-10-1z"/><path fill="#925538" fill-opacity=".6" d="M75 102l-7.9.9-2.2-21 8-.8z"/><path fill="#fff" fill-opacity=".6" d="M121.2 6.8l2-5.6 5.6 2-2 5.6z"/><path fill="#9a6a39" fill-opacity=".4" d="M95 164.6l-29.3-22 16.2 43.5 35.7 17.7z"/><path fill="#f4ffff" fill-opacity=".4" d="M47.3 133.2l18.5-22.8 12.5-8.9-14.5 24.1z"/><circle r="1" fill="#150f00" fill-opacity=".3" transform="matrix(27.25341 -21.8956 19.46935 24.23347 57 0)"/><path fill="#393528" fill-opacity=".6" d="M186 60L89 18l5 56z"/><path fill="#bdc7d0" fill-opacity=".5" d="M9 201l-25 25 22-96z"/><path fill="#5f3f27" fill-opacity=".7" d="M18.7 140.3L53.6 155l-19-15.9 20.8-34.4z"/><path fill="#5b6466" fill-opacity=".7" d="M2 271.5l-9-1.4 5-31.6 9 1.4z"/><path fill="#9a8669" fill-opacity=".7" d="M5 21l-21-10L2-16z"/><path fill="#eefeff" fill-opacity=".5" d="M55 142l-24 51 27-28z"/><path fill="#bec8d8" fill-opacity=".4" d="M29 248l44-87 1 110z"/><ellipse cx="11" cy="173" fill="#68544a" fill-opacity=".5" rx="5" ry="48"/><path fill="#b3825e" fill-opacity=".6" d="M50 124l23-41-3 21z"/><path fill="#1b0e00" fill-opacity=".4" d="M72.7 49.3L61.9 65.2l34.2 56.3-.3-37.7z"/><ellipse cx="169" cy="51" fill="#2c2418" fill-opacity=".8" rx="9" ry="71"/><path fill="#b29a98" fill-opacity=".6" d="M50 144l4-14-14 12z"/><path fill="#3f342b" fill-opacity=".5" d="M78 152l55 32-29-106z"/><path fill="#ffffde" fill-opacity=".7" d="M90.1-3l2.7 7.6-.9.3-2.7-7.5z"/><path fill="#62402a" fill-opacity=".9" d="M24.9 77.6l14.7 72.6L8.8 219l31.4-106.7z"/><path fill="#3c2717" fill-opacity=".8" d="M33.6 164.1l13.5-18.6 3.3 2.4-13.5 18.6z"/><path fill="#ffe2c7" fill-opacity=".3" d="M68.6 109.8L70.1 99l-26.7 30 21.3-40.4z"/><ellipse cy="141" fill="#bfc4c7" fill-opacity=".5" rx="7" ry="71"/><ellipse cx="16" cy="20" fill="#6c3d1a" fill-opacity=".3" rx="13" ry="65"/><path fill="#774e31" fill-opacity=".4" d="M6 60h29v62H6z"/><path fill="#342d1f" fill-opacity=".6" d="M97.7-9.5l27.2 6.8-6.6 26.2-27.2-6.8z"/><circle cx="158" cy="46" r="2" fill="#fffffb" fill-opacity=".8"/><path fill="#251e12" fill-opacity=".7" d="M158.8 9.3l-72-16.6.4-2 72 16.6z"/><path fill="#9a918c" fill-opacity=".6" d="M115.4 226.8l-33.5 10.3-7.3-24 33.5-10.2z"/><path fill="#655a4d" fill-opacity=".5" d="M111.2 209.3l34.6 61.7 4.3-23.5-23.9-37.2z"/><path fill="#9ca3a9" fill-opacity=".5" d="M71 185h9v71h-9z"/><path fill="#e5f5f8" fill-opacity=".5" d="M32 232l14-76-18 26z"/><path fill="#6c452d" fill-opacity=".5" d="M84.3 109.8l-23-44.3 20 20.4-15 13.1z"/><path fill="#a19485" fill-opacity=".6" d="M77 130.4l-13.7 43.9 8.5-44.3-25.7 2z"/><circle r="1" fill="#1f1104" fill-opacity=".4" transform="matrix(29.79813 20.88345 -8.4548 12.06397 170 178.8)"/></g></svg>