<svg xmlns="http://www.w3.org/2000/svg" viewBox="0 0 300 199"><defs/><path fill="#293959" d="M0 0h300v199H0z"/><g transform="translate(.6 .6) scale(1.17188)"><circle cx="129" cy="169" r="137" fill="#170b00" fill-opacity=".8"/><circle r="1" fill="#e3a08b" fill-opacity=".4" transform="rotate(-163.2 69.5 -7.7) scale(41.21556 78.57811)"/><ellipse cx="57" cy="9" fill="#f0f6f8" fill-opacity=".8" rx="11" ry="16"/><circle r="1" fill="#ffeabb" fill-opacity=".5" transform="matrix(-18.37468 5.25449 -9.1095 -31.85548 254 35.8)"/><ellipse cx="22" cy="68" fill="#140c00" fill-opacity=".6" rx="25" ry="169"/><circle r="1" fill="#3b211e" fill-opacity=".7" transform="matrix(-39.77975 37.81522 -24.92213 -26.21686 182.4 52.4)"/><path fill="#ff816d" fill-opacity=".4" d="M191.9-38.2L186 45.6l-49.9-3.4 5.9-83.8z"/><ellipse cx="5" cy="77" fill="#fff" fill-opacity=".6" rx="9" ry="5"/><circle r="1" fill="#020000" fill-opacity=".5" transform="matrix(-131.66281 21.08897 -6.27247 -39.16037 179.3 142.3)"/><path fill="azure" fill-opacity=".6" d="M96 35h14v10H96z"/><circle r="1" fill="#080000" fill-opacity=".6" transform="rotate(94.6 83.4 118.3) scale(46.10554 14.77987)"/><path fill="#373e42" fill-opacity=".7" d="M171 91l-56-81-14 91z"/><circle r="1" fill="#bdd8e6" fill-opacity=".6" transform="matrix(-2.56726 -.0597 .37585 -16.16188 179.9 67.4)"/><ellipse cx="60" cy="52" fill="#186fb2" fill-opacity=".6" rx="5" ry="30"/><ellipse cx="232" cy="76" fill="#3c262f" fill-opacity=".5" rx="20" ry="32"/><path fill-opacity=".5" d="M67 21l1 95 29-97z"/><path fill="#d7ada1" fill-opacity=".5" d="M91 0h93v11H91z"/><path fill="#0b0404" fill-opacity=".4" d="M145 96l33-46-24-40z"/><path fill="#bea778" fill-opacity=".3" d="M222 0h34v47h-34z"/><circle cx="127" cy="75" r="5" fill="#d9e0f2" fill-opacity=".6"/><path fill="#786f6d" d="M96.8 29l-3.3-5.8L148-13 88.9 12.5z"/><path fill="#fafafa" fill-opacity=".5" d="M48 3h6v26h-6z"/><path fill="#1c5681" d="M80-16l9.9 32-23.3 2.4 1.8-19.6z"/><path fill="#e4dacf" fill-opacity=".6" d="M192.2-12.3l30.1-3.7h42.5L224.5 4.8z"/><path fill="#32372e" fill-opacity=".5" d="M13 51h45v43H13z"/><path fill="#ffbebf" fill-opacity=".5" d="M150.7 21.3l-17.4-4.7 8-29.9 17.4 4.7z"/><path fill="#8ce7fe" fill-opacity=".2" d="M110.3 5L97.7 52.8l-.8 42.3 11.2-18.4z"/><path fill="#141a1e" fill-opacity=".4" d="M111 14h10v140h-10z"/><path fill="#799cea" fill-opacity=".2" d="M216.8 78.4l-7.3 9.6 7.9 5.1 22.7-4.8z"/><path fill="#beac92" fill-opacity=".2" d="M166.6 75.5l-4 37.8L180 94.1l-67.2-7z"/><path fill="#d2e0e2" fill-opacity=".5" d="M92 13h13v8H92z"/><circle r="1" fill="#ba7369" fill-opacity=".4" transform="rotate(-46.8 102.5 -138.6) scale(17.78734 8.62459)"/><path fill="#0e0000" fill-opacity=".4" d="M267.7-8.5l-44.9 29.3-8.6 54.9L190 16.8z"/><path fill="#5199ce" fill-opacity=".6" d="M196 13l-2-20 17-4z"/><path fill="#160e08" fill-opacity=".5" d="M52 30L-7-16 50 84z"/><circle r="1" fill="#000a14" fill-opacity=".5" transform="rotate(45.8 7.4 220.8) scale(25.97313 7.10206)"/><path fill="#ffefef" fill-opacity=".3" d="M249.2 76.3l10.1-55.5L271 97.3v-7z"/><path fill="#f89e9e" fill-opacity=".5" d="M180 0h5v30h-5z"/><ellipse cx="178" cy="62" fill="#ccd4da" fill-opacity=".4" rx="3" ry="11"/><circle r="1" fill="#060000" fill-opacity=".7" transform="matrix(-9.04766 29.35873 -50.5492 -15.57807 178 145.6)"/><path fill="#dad8dc" fill-opacity=".5" d="M107 23l-9 22 14-5z"/><path fill="#753c3e" fill-opacity=".7" d="M171.8-5.7l24.8 75.8-5.3-38.9-18.7 17.2z"/><circle cx="151" cy="105" r="4" fill="#c68175" fill-opacity=".5"/><circle r="1" fill="#110905" fill-opacity=".7" transform="rotate(-79.9 112 48.8) scale(49.8705 96.87767)"/><path fill="#1a191a" fill-opacity=".6" d="M234 80h22v43h-22z"/><path fill="#e7c6ad" fill-opacity=".6" d="M109.3 4.9L91.7 6.8l1-4.8 27.9-16.6z"/><path fill="#272a35" fill-opacity=".6" d="M105.7 108.2l9.7-109.5-14.3 10.7 22.1 16z"/><path fill="#010505" fill-opacity=".6" d="M85.4 56.3L89.1.8l10.7 119.7-13.1 1.6z"/><path fill="#222631" fill-opacity=".7" d="M151.3 92.3l49-6.5-12.2-22.1-20.4 28.5z"/><path fill="#100" fill-opacity=".5" d="M218.7 85.6L183.1-4.1l5.9 40.4L217.7-16z"/><path fill="#9e524f" fill-opacity=".6" d="M162 46l7-32-14-9z"/><circle r="1" fill="#000004" fill-opacity=".5" transform="matrix(-5.76676 3.26356 -12.47684 -22.0468 0 53.2)"/><path fill="#cbd2ec" fill-opacity=".4" d="M246.6 50.6l4.3-11.6-17.5 1.2L254 58z"/><ellipse cx="51" cy="63" fill="#c47577" fill-opacity=".5" rx="2" ry="10"/><path fill="#83797b" fill-opacity=".5" d="M241 14l-10 25-21 10z"/><circle cx="58" cy="30" r="8" fill="#21669c" fill-opacity=".6"/><path fill="#252d30" fill-opacity=".4" d="M63.6 20.7l44.1 28.5-39.5 25.6L109.5 19z"/><path fill="#010604" fill-opacity=".4" d="M179.9 61.1l-55.1-20.7 11.2 29-2.9-25.9z"/><circle cx="205" cy="58" r="20" fill="#380009" fill-opacity=".5"/><path fill="#341503" fill-opacity=".5" d="M139 69l17-49-1 88z"/><path fill="#9ea6ad" fill-opacity=".5" d="M110 6l30 11V-3z"/><path fill="#1f5580" fill-opacity=".6" d="M68.2.6l-2.8 34.7 4.3 19.5-13.5 36.7z"/><path fill="#1d0900" fill-opacity=".4" d="M156.2 131.5l25.6-89.7-7.1-37.3 1.3 38.9z"/><path fill-opacity=".5" d="M48 72l8 11-39-7z"/><path fill="#000402" fill-opacity=".6" d="M174.6 90.7l28.4-8.8 12.5-8.9-44.6 50.3z"/></g></svg>