<svg xmlns="http://www.w3.org/2000/svg" viewBox="0 0 300 199"><defs/><path fill="#65472d" d="M0 0h300v199H0z"/><g transform="translate(.6 .6) scale(1.17188)"><circle r="1" fill="#dfe2d8" fill-opacity=".6" transform="matrix(89.58421 18.67097 -36.6044 175.6297 51 88.4)"/><circle r="1" fill="#edece2" fill-opacity=".7" transform="matrix(-17.61305 35.8119 -80.78192 -39.73026 221.2 18.5)"/><ellipse cx="165" cy="116" fill="#000205" fill-opacity=".9" rx="23" ry="85"/><circle r="1" fill="#211a16" fill-opacity=".6" transform="rotate(118 30.9 69) scale(43.83933 16.79848)"/><ellipse cx="251" cy="145" fill="#b6b9be" fill-opacity=".6" rx="45" ry="28"/><path fill="#261b01" fill-opacity=".6" d="M0 55l61 23-76 21z"/><path fill="#f5efe6" fill-opacity=".6" d="M51.3 115.1l86.9-13.7 6.5 41.5-86.9 13.7z"/><ellipse cx="73" cy="16" fill="#fffff9" fill-opacity=".6" rx="13" ry="79"/><circle r="1" fill="#fffff4" fill-opacity=".6" transform="rotate(-16.7 74.5 -18.1) scale(12.68811 57.43194)"/><path fill="#000821" fill-opacity=".6" d="M110 58l19-42 31 2z"/><circle r="1" fill="#9eabb7" fill-opacity=".4" transform="matrix(-13.24716 -1.57963 6.03786 -50.63504 206 96.2)"/><path fill="#a08c76" fill-opacity=".5" d="M94.5 197.7l-16.5-43 63.5-24.4 16.5 43z"/><circle r="1" fill="#faf0e1" fill-opacity=".7" transform="matrix(-56.6775 -129.20398 14.6435 -6.42362 13.2 168.7)"/><circle r="1" fill-opacity=".6" transform="matrix(-10.28198 11.45945 -33.9718 -30.48116 197 165.5)"/><circle r="1" fill="#958371" fill-opacity=".6" transform="matrix(-.72169 41.34534 -13.68397 -.23885 247.3 56.4)"/><path fill="#302a0f" fill-opacity=".8" d="M41.2 41.1l-7.7-6.8-1.4-19.2 17.7 22.5z"/><path fill="#321800" fill-opacity=".3" d="M129.3 97.4l-51.8.2L4 115.4l22.3 13.3z"/><path fill="#fffff6" fill-opacity=".3" d="M162.8 108.1l-25.3-87.7L117 99.2l41.1.6z"/><path fill="#ebede5" fill-opacity=".5" d="M213-16l13 86-66-76z"/><path fill="#72675c" d="M200.5 42.4l-18.6-11.7 13.5 65 5.8-67.4z"/><circle r="1" fill="#6c4827" fill-opacity=".6" transform="matrix(19.24762 44.69248 -6.31346 2.719 44.8 169)"/><path fill="#180800" fill-opacity=".7" d="M240.1 124.4l-9.6 6.4 4 14.4 6.1-4z"/><circle r="1" fill="#faf3e7" fill-opacity=".6" transform="matrix(-1.77187 -6.47434 34.30171 -9.38756 47.2 91.7)"/><path fill="#020407" fill-opacity=".8" d="M192 67.9l-31.7-47.1-16.5-6.6 30.1 165z"/><circle r="1" fill="#877b6a" transform="matrix(-15.68642 18.61104 -6.01724 -5.07166 101.2 55.4)"/><path fill-opacity=".7" d="M105.5 103l25.3-78 5.7 2-25.3 78z"/><path fill="#281301" fill-opacity=".6" d="M229 1l-11 12 9 8z"/><ellipse cx="19" cy="5" fill="#fff6df" fill-opacity=".4" rx="83" ry="11"/><path fill="#e1dad1" fill-opacity=".7" d="M141.6 97.7l-82.7 71.5L70.4 185l-31.3-61.1z"/><path fill-opacity=".7" d="M249.3 124l10-1 1.4 13-10 1z"/><path fill-opacity=".5" d="M245 86l-9-36 15 13z"/><path fill="#fff" fill-opacity=".4" d="M234 64l13-9-15 32z"/><path fill="#140c08" fill-opacity=".5" d="M198 124l30 9-22-38z"/><path fill="#f9fafa" fill-opacity=".7" d="M245 150.7l-2.8-3.9-.1-22.2 21.6 56.2z"/><path fill="#9d8d6a" fill-opacity=".6" d="M19 76l47-3-38-48z"/><path fill="#3d3012" fill-opacity=".6" d="M0 55h13v42H0z"/><ellipse cx="144" cy="5" fill="#fffbe8" fill-opacity=".5" rx="17" ry="11"/><path fill="#f2f9fd" fill-opacity=".4" d="M271 73.3l-30.7 24L271 44.9l-21.6 90.7z"/><path fill="#020208" fill-opacity=".8" d="M144.8 75.9l45.2 5.9-9-44.6-33.1 15.1z"/><ellipse cx="251" cy="103" fill="#140000" fill-opacity=".8" rx="5" ry="13"/><path fill="#f9f9ef" fill-opacity=".6" d="M228.7-8.8l33-2.3 1.6 24-33 2.2z"/><path fill="#8e7b6a" fill-opacity=".7" d="M157.8 176.8l-58.9 22.6-14.7-38.2 58.9-22.6z"/><path fill="#cabcab" fill-opacity=".4" d="M104.1 102.4l3.3-9.8-55.2-34.4 2.5 30.7z"/><path fill="#dbd4cb" fill-opacity=".8" d="M139.5 26.7L130 53.4l9.9 66.1 8.2-82.8z"/><path fill="#dbd8d5" fill-opacity=".7" d="M232.8 49.8l9-9.5-21.2 36 5.3-40.9z"/><path fill="#090103" fill-opacity=".7" d="M228.1 119.4l-6.8-.7L231.9 58l-13.7 26.1z"/><path fill="#050000" fill-opacity=".7" d="M21 80.6l30.2-7 1.8 7.8-30.2 7z"/><path fill="#b8ad9d" fill-opacity=".7" d="M197.4 81l-37.8-97 39.6 86.3 20 9.4z"/><path fill="#9c5e2e" fill-opacity=".4" d="M261 42l-17-31-30 28z"/><circle r="1" fill="#c1bbb1" fill-opacity=".4" transform="matrix(-37.65713 -23.89167 3.01172 -4.74695 221.8 155)"/><path fill="#fdfdff" fill-opacity=".7" d="M258.3 115.5l1.7 5.8-18.3 5.2-1.7-5.8z"/><path fill="#352b24" fill-opacity=".6" d="M217 51l8 3-12 23z"/><path fill="#fffffa" fill-opacity=".3" d="M202.7 113.6l19.9-2.1.7 7-19.9 2z"/><circle r="1" fill="#d9b88a" fill-opacity=".5" transform="rotate(77.6 20 139.8) scale(9.07231 4.75395)"/><path fill="#060604" fill-opacity=".7" d="M140.6 112.5l24.7-77.9 29 95.8-47.7-67.7z"/><circle r="1" fill="#100504" fill-opacity=".7" transform="rotate(89.5 67.7 167.5) scale(16.44967 3.64209)"/><path fill="#1b110c" fill-opacity=".9" d="M192.2 87.3l1 3.5-1.4 9.3 12.3-19.9z"/><path fill="#e8f2f2" fill-opacity=".3" d="M212.4 77l2.9 39.1 17.7-37-2.6 33.6z"/><circle r="1" fill="#cdcbc4" fill-opacity=".6" transform="matrix(-1.45701 .13516 -5.89734 -63.5714 243.6 121.3)"/><path fill="#f5f2f4" fill-opacity=".5" d="M214.4 75.4l-12.9-38.5 22.8 32.5-8.7-27z"/><path fill="#c0b09e" fill-opacity=".7" d="M135.8-.9l30.5 34.3L271 6.1l-98.1 34.4z"/><path fill="#2d241e" fill-opacity=".5" d="M200 41l-16-5 26 39z"/><path fill="#fefcf6" fill-opacity=".5" d="M262.7 106.1l-19.3-63 3.9-1.2 19.3 63z"/><path fill-opacity=".6" d="M86 108.9l-.8-7 22.8-2.8.8 7z"/><path fill="#1c0300" fill-opacity=".6" d="M248.4 147.5l4.5-5 18.1 2.6-2.6 20.2z"/></g></svg>