<svg xmlns="http://www.w3.org/2000/svg" viewBox="0 0 300 199"><defs/><path fill="#36414e" d="M0 0h300v199H0z"/><g transform="translate(.6 .6) scale(1.17188)"><circle r="1" fill="#ffdde4" fill-opacity=".6" transform="matrix(-18.94026 3.5788 -10.46964 -55.40899 176.2 94.5)"/><circle r="1" fill-opacity=".8" transform="matrix(-90.42029 -5.02397 3.52116 -63.37307 73.6 161.5)"/><circle r="1" fill="#8f8b78" fill-opacity=".6" transform="rotate(-4.3 553.7 -1505) scale(181.34517 25.1615)"/><path fill-opacity=".7" d="M195 50.6l67.8-4.8L273 193.4l-67.9 4.8z"/><ellipse cx="105" cy="104" fill="#050601" fill-opacity=".9" rx="36" ry="20"/><circle r="1" fill="#bf9fad" fill-opacity=".5" transform="rotate(170 76 66.9) scale(31.15834 17.53613)"/><circle r="1" fill="#dbd4c1" fill-opacity=".5" transform="matrix(5.24492 -8.1166 28.58122 18.4691 160 56.8)"/><circle r="1" fill="#3f403a" fill-opacity=".8" transform="rotate(-134.8 17.8 26.4) scale(66.01723 22.48478)"/><ellipse cx="174" cy="161" fill="#010000" fill-opacity=".7" rx="255" ry="12"/><ellipse cx="111" cy="19" fill="#a2aeab" fill-opacity=".5" rx="10" ry="59"/><ellipse cx="48" cy="38" fill="#eff6ff" fill-opacity=".6" rx="25" ry="3"/><path fill="#060501" fill-opacity=".7" d="M200.2 54.6l.2 130.4 48.3-78.1-66.8-26.3z"/><path fill="#282424" fill-opacity=".8" d="M143.9 56.6l-20.2 4.8 41 30.4-7.1-20.9z"/><path fill="#3a2e11" fill-opacity=".4" d="M55 41h48v48H55z"/><circle r="1" fill="#2b1b0c" fill-opacity=".5" transform="matrix(-31.3319 21.05873 -4.64288 -6.90783 177 21.2)"/><path fill="#e4edec" fill-opacity=".4" d="M244.8 76l-7.3 20.7-5.8-16.9 10.5-6.6z"/><circle r="1" fill="#748fad" fill-opacity=".4" transform="matrix(-38.35055 19.93402 -11.74832 -22.60228 239 22.7)"/><path fill="#ddc4d6" fill-opacity=".5" d="M199.5 148l-33.7-39.7 1-61 31.4 48.4z"/><path fill="#7e7077" fill-opacity=".6" d="M196.5 174.6l7.8 10.4-58.5-62.9 10-35.4z"/><circle r="1" fill="#8b948c" fill-opacity=".5" transform="matrix(5.9313 -4.68427 19.8654 25.15396 124.4 70)"/><circle r="1" fill="#131507" fill-opacity=".5" transform="matrix(-110.36006 38.66863 -5.70138 -16.2717 30.8 0)"/><path fill="#434645" d="M154.5 19.1l-39.3-30.8 2.1 27.7 1.6 8.3z"/><path fill="#586369" fill-opacity=".6" d="M70 96L5 94l10 19z"/><circle r="1" fill="#f9fbab" fill-opacity=".5" transform="matrix(-43.78616 15.74703 -.46752 -1.3 22.3 23.5)"/><path fill="#b5c7c4" fill-opacity=".3" d="M10.6 40.2l25.8-19.3L104.3 33l-32.4 9.4z"/><path fill="#161111" fill-opacity=".8" d="M41.4 73.5l-48.1 9.2 33.1 3 59.8-12z"/><path fill="#feeac0" fill-opacity=".2" d="M125.5 65.6l-92.8 8 15.7-25.8 11.3 15.4z"/><path fill="#ffe4a8" fill-opacity=".4" d="M117.4 52.5l22.1-27.4 16.2 33-1.5-3.1z"/><path fill="#f1b399" fill-opacity=".5" d="M187.8 71.5l-.6-31h5l.6 31z"/><path fill="#391900" fill-opacity=".3" d="M179.4 29.1l-55.2 11.2 50.3-24.7-38.7 68.3z"/><path fill="#223231" fill-opacity=".6" d="M71.9 15.8l16.2-31.4 11.2 42.4L44 18.3z"/><path fill="#9b9e95" fill-opacity=".9" d="M84 32.8l9.1 28.3-5.5 1.9-4.5-15.2z"/><path fill="#010f00" fill-opacity=".5" d="M129 68L96 79l-10 58z"/><circle cx="230" cy="166" r="39" fill-opacity=".6"/><path fill="#98a2a0" fill-opacity=".4" d="M157 21l50-23-14-14z"/><ellipse cx="18" cy="135" fill="#010100" fill-opacity=".8" rx="116" ry="23"/><path fill="#ffb399" fill-opacity=".6" d="M177.1 46.5l-7.3-3 5-12 7.4 3z"/><path fill-opacity=".5" d="M42 72h6v45h-6z"/><path fill="#150d00" fill-opacity=".6" d="M102.6 68.8l1.9-9.6-5.3-22-7.4 6.4z"/><path fill="#060905" fill-opacity=".5" d="M24 41h15v21H24z"/><ellipse cx="165" cy="24" fill="#1b110b" fill-opacity=".5" rx="3" ry="27"/><path fill="#8d9794" fill-opacity=".6" d="M121.2 29.4L84.8-16 125 67.2l-21.8 12.6z"/><circle cx="50" cy="56" r="4" fill="#eafbff" fill-opacity=".7"/><path fill="#31272a" fill-opacity=".8" d="M207.6 71.7L224 42.3l3.8 37.4-14.3 19.5z"/><path fill="#050401" fill-opacity=".9" d="M171.8 180.7l8.3-30.7-15.7-1.5-4 33.2z"/><path fill="#9da6ac" fill-opacity=".5" d="M138 76h9v16h-9z"/><path fill="#0d170d" fill-opacity=".7" d="M138.4 114.3l17.9-30.4-18.6 15.3-63.1-36.5z"/><path fill="#060400" fill-opacity=".6" d="M183.4 68.2l14 27.3 21.6 79.2-7.1-95.4z"/><path fill="#fcfafa" fill-opacity=".6" d="M153 51.8l-5 3.2-11-16.8 5-3.2z"/><circle r="1" fill="#eac0b7" fill-opacity=".5" transform="matrix(.39012 -8.11005 2.71802 .13075 159.3 43.2)"/><path fill="#f1eb8b" fill-opacity=".3" d="M56.5 8.4l22.7-4.9-9.9 6.7-42.7 12.3z"/><path fill="#d7ebff" fill-opacity=".2" d="M47.5 103.9l14.6-1.2-10.6-28.1 3.3-10.5z"/><path fill="#8e8a96" fill-opacity=".6" d="M144.6 142.1l20.6-25.4 1-28.9-9.1-4.4z"/><path fill="#43464b" fill-opacity=".6" d="M155 105.9l-2.5 13.3-17.8 14.1-6.2-13.7z"/><path fill="#221800" fill-opacity=".4" d="M179.3-7.3L92.2-16l64.2 29.4 13-3.7z"/><path fill-opacity=".7" d="M246.7 54l11.1 17.3-26.9 6.1 5.9-32z"/><circle r="1" fill="#1d1c12" fill-opacity=".5" transform="matrix(2.04788 3.92217 -38.47635 20.08967 208 3.1)"/><path fill="#000e1a" fill-opacity=".4" d="M143.2 82.9l16.6-11.2 5 7.4-16.6 11.2z"/><path fill="#a1a895" fill-opacity=".5" d="M173.3 16.1L160.7 13l-15.9-2.7 12.3 13.4z"/><path fill="#c4cad0" fill-opacity=".8" d="M165.1 47.4l-3.4 10.4 9.8 34.8 16.9-9.8z"/><ellipse cx="47" cy="32" fill="#353c25" fill-opacity=".5" rx="11" ry="3"/><path fill="#707d82" fill-opacity=".6" d="M74 68h5v24h-5z"/><path fill="#190000" fill-opacity=".3" d="M145.3 40.3l50 16.6-9.3 3.5-38.8-27.5z"/><path fill="#ffeee1" fill-opacity=".6" d="M189 165l-5.3-4.5 1.3-1.5 5.3 4.5z"/><path fill="#51524a" fill-opacity=".6" d="M10 42h54v9H10z"/></g></svg>