<svg xmlns="http://www.w3.org/2000/svg" viewBox="0 0 299 449"><defs/><path fill="#583b35" d="M0 0h299v449H0z"/><g transform="translate(.9 .9) scale(1.7539)"><circle r="1" fill="#a9adaf" fill-opacity=".6" transform="matrix(-21.01225 168.69643 -127.67097 -15.90226 72.4 120.7)"/><circle r="1" fill="#00000f" fill-opacity=".8" transform="matrix(-17.43019 4.02716 -12.83417 -55.5484 170 187.9)"/><path fill="#1f0906" fill-opacity=".6" d="M61 68l110 105L63-16z"/><ellipse cx="129" cy="222" fill="#ebf3f8" fill-opacity=".5" rx="27" ry="85"/><circle r="1" fill="#1d0900" fill-opacity=".7" transform="matrix(-8.40978 -36.43865 22.48601 -5.1896 0 62.2)"/><circle r="1" fill="#d4d5e1" fill-opacity=".7" transform="matrix(19.15802 -6.22479 48.84519 150.33068 157.7 27.7)"/><circle r="1" fill="#c7d1d9" fill-opacity=".5" transform="matrix(1.1447 -69.15632 33.63798 .55679 10.4 175.5)"/><circle r="1" fill="#503225" fill-opacity=".6" transform="matrix(33.83969 -46.20396 13.1112 9.60262 116 119.6)"/><path fill="#f2e4da" fill-opacity=".6" d="M41 110l43-24 15 40z"/><ellipse cx="85" cy="5" fill="#513429" fill-opacity=".8" rx="27" ry="26"/><circle r="1" fill="#a5a4a3" fill-opacity=".8" transform="matrix(-27.7249 -28.91125 16.56947 -15.88955 36.1 27.8)"/><path fill="#070c1f" fill-opacity=".9" d="M157 136h14v120h-14z"/><circle r="1" fill="#67331e" fill-opacity=".6" transform="matrix(42.45994 18.32081 -2.84904 6.60287 69.8 135.6)"/><circle r="1" fill="#3d2419" fill-opacity=".7" transform="matrix(-3.00149 -7.17529 14.8994 -6.23256 57.7 67.4)"/><path fill="#714b38" fill-opacity=".6" d="M61 141l-37-27L7 45z"/><circle r="1" fill="#a5a69f" fill-opacity=".6" transform="rotate(-161.7 61.5 109.8) scale(23.78896 68.54345)"/><path fill="#b6b4b9" fill-opacity=".8" d="M114.3-16l-4.7 82.3-8.1-46.5 69.6 17.6z"/><path fill="#170002" fill-opacity=".5" d="M90.5 37.3l21.8 76.3-18.5-2.9-4.4-59.6z"/><path fill="#501100" fill-opacity=".5" d="M141 32L93 15l31 23z"/><path fill="#6b595d" fill-opacity=".6" d="M130 138l28-29L75 8z"/><circle r="1" fill="#c28e74" fill-opacity=".5" transform="rotate(140.3 5.3 57.8) scale(12.00511 47.76563)"/><ellipse cx="142" cy="251" fill="#bcbfc5" fill-opacity=".6" rx="16" ry="80"/><path fill="#d1cddb" fill-opacity=".5" d="M157 45h14v91h-14z"/><path fill="#acacb1" fill-opacity=".7" d="M33.7 126.3L9.3 90-16 271l80.7-126.8z"/><path fill="#43281d" fill-opacity=".6" d="M100 138l54-51-12-21z"/><path fill="#e3e8ff" fill-opacity=".5" d="M115.8 38l-6.2 18-11.4-4 6.2-18z"/><ellipse cx="3" cy="62" fill="#030300" fill-opacity=".5" rx="8" ry="37"/><path fill="#86828b" fill-opacity=".5" d="M186 89l-60 22 23 26z"/><path fill="#020b11" fill-opacity=".4" d="M141 135h30v23h-30z"/><path fill="#f5f3ff" fill-opacity=".5" d="M184.2 82.7L134 37.8l9.6-3.2 17.5 7.9z"/><ellipse cx="68" cy="104" fill="#f4ffff" fill-opacity=".1" rx="29" ry="18"/><path fill="#3e2e28" fill-opacity=".7" d="M61 31l72-47H60z"/><path fill="#b46545" fill-opacity=".3" d="M77.5 40.2L74.7 8.4l29.8-2.6 2.8 31.8z"/><path fill="#9f6e62" fill-opacity=".4" d="M144 112.3l21.9-42.1-18.3-13.6L150 103z"/><ellipse cx="61" cy="49" fill="#aeb3b7" fill-opacity=".6" rx="13" ry="4"/><path fill="#593a25" fill-opacity=".2" d="M126 124H59l6 47z"/><circle r="1" fill="#b27254" fill-opacity=".4" transform="matrix(7.5501 -5.12078 20.0554 29.56978 27.8 55.6)"/><path fill="#2e1818" fill-opacity=".5" d="M82 90l18 5-1-71z"/><circle r="1" fill="#665968" fill-opacity=".5" transform="matrix(-11.81979 28.30021 -9.88117 -4.12694 121.4 59.3)"/><circle r="1" fill="#37251a" fill-opacity=".5" transform="matrix(-3.2625 1.62963 -12.16938 -24.36304 19.5 92.2)"/><path fill="#9a9891" fill-opacity=".6" d="M141.6 157.1l-20.2-31 5-3.2 20.2 31z"/><circle cx="89" cy="117" r="11" fill="#bfbfba" fill-opacity=".5"/><circle r="1" fill="#898b80" fill-opacity=".5" transform="rotate(-55.8 217 34.2) scale(45.02012 25.3286)"/><path fill="#e0e9ed" fill-opacity=".2" d="M85.5 92.8L64 65.5l2.7 30.4 22.1 28.7z"/><path fill="#9ea3a5" fill-opacity=".6" d="M39 47L-16 6 65-7z"/><path fill="#f6f6ff" fill-opacity=".5" d="M186 138.4l-29.5-64.2L186 99.9l-24.9 27.6z"/><path fill="#ffeee7" fill-opacity=".3" d="M113.1 33.2l-.3 7.9-6.2-1.9-7.8-35.1z"/><circle r="1" fill="#150d0e" fill-opacity=".5" transform="rotate(124.5 25.3 81) scale(7.71131 13.81246)"/><path fill="#908a97" fill-opacity=".6" d="M136 130l20 5 17-26z"/><path fill="#53352c" fill-opacity=".6" d="M96 122h18v31H96z"/><path fill="#0d1020" fill-opacity=".5" d="M151.9 178.1l12 92.9L186 129.9l-44.1 9.9z"/><path fill="#2d1b06" fill-opacity=".2" d="M71.7 86.3L28.3 72.8 95.7 39 65.8 67.1z"/><path fill="#d09a82" fill-opacity=".5" d="M41.3 66.1l-4.9 6.7L7.1 28.4l4.3 3.2z"/><path fill="#aaaeb4" fill-opacity=".7" d="M112 15.2l-.9-22 71-2.4.8 22z"/><circle r="1" fill="#9e7861" fill-opacity=".5" transform="rotate(-154.2 78.4 42.1) scale(3.84435 12.97777)"/><path fill="#b9bad7" fill-opacity=".5" d="M136 57l6 8 8-32z"/><ellipse cx="150" cy="239" fill="#b0b4bb" fill-opacity=".9" rx="7" ry="42"/><ellipse cx="143" cy="218" fill="#d5d5da" fill-opacity=".6" rx="4" ry="51"/><path fill="#92948e" fill-opacity=".5" d="M7.2 245l54.9-51 32.7 35-54.9 51.2z"/><ellipse cx="104" cy="217" fill="#aea9a7" fill-opacity=".3" rx="12" ry="64"/><path fill="#a1a2a6" fill-opacity=".7" d="M39.2 137.4l-13.9 7.1-41.3-33.4 29.5-18z"/><path fill="#b8bcb6" fill-opacity=".3" d="M107.2 125.9l-34-23 44.4 18.4-5.5.1z"/><path fill="#0c0e22" fill-opacity=".8" d="M186 264l-27-25-4 32z"/><path fill="#70646e" fill-opacity=".5" d="M156.6 74.6l-20.8 2.7-15.2 22.7-22.9-40.3z"/><path fill="#ceccce" fill-opacity=".5" d="M137 149l19 47-48-42z"/></g></svg>