<svg xmlns="http://www.w3.org/2000/svg" viewBox="0 0 300 199"><defs/><path fill="#494843" d="M0 0h300v199H0z"/><g transform="translate(.6 .6) scale(1.17188)"><circle r="1" fill="#d6c6b0" fill-opacity=".9" transform="matrix(-36.51436 156.9111 -234.63555 -54.6014 85.6 34)"/><circle r="1" fill="#96631e" fill-opacity=".5" transform="rotate(162.6 78.5 67) scale(113.13384 43.77293)"/><circle r="1" fill="#e8ebfa" fill-opacity=".7" transform="rotate(-18.8 132.2 -181.4) scale(255 50.88696)"/><circle r="1" fill="#eaebe9" fill-opacity=".6" transform="matrix(35.82032 133.4158 -35.84658 9.62432 11 121.2)"/><path fill="#fbffff" fill-opacity=".6" d="M244.4 169.2l-74 2.6-.8-23 74-2.6z"/><path fill="#144c62" fill-opacity=".7" d="M123 152h27v18h-27z"/><circle r="1" fill="#aeb0b3" fill-opacity=".5" transform="matrix(5.77213 23.37017 -75.4601 18.63767 179.9 52.8)"/><ellipse cx="116" cy="105" fill="#3e2400" fill-opacity=".2" rx="52" ry="20"/><ellipse cx="235" cy="131" fill="#c98729" fill-opacity=".4" rx="100" ry="14"/><path fill="#9c5100" fill-opacity=".5" d="M65.2 177.1L61 185l15.3-73.8 1.1 55.5z"/><path fill="#cabab0" fill-opacity=".8" d="M172.5 120.8l-1.7 4.5 15.2-.5-15.1-59.2z"/><path fill="#af7734" fill-opacity=".6" d="M150 81h15v89h-15z"/><circle r="1" fill="#eca950" fill-opacity=".5" transform="matrix(-20.11876 -55.88201 10.80166 -3.88884 249.5 156.4)"/><path fill="#b27b39" d="M110.8 185l-6.3-91.1-4.7 80.8L81.5 185z"/><path fill="#ecd3a3" fill-opacity=".3" d="M119 163l-38-9 47-38z"/><circle r="1" fill="#9e8a61" fill-opacity=".5" transform="matrix(29.55919 -1.9115 .83993 12.98845 247.6 47.7)"/><circle r="1" fill="#e0dee5" fill-opacity=".6" transform="matrix(3.71944 28.25194 -25.38533 3.34204 208 12.3)"/><circle r="1" fill="#d27609" fill-opacity=".5" transform="matrix(6.39233 25.8506 -7.3185 1.80972 228.8 88.9)"/><circle r="1" fill="#755538" fill-opacity=".6" transform="matrix(-69.7799 10.28401 -.18681 -1.26756 161.7 133.8)"/><ellipse cx="51" cy="128" fill="#c9c7b4" fill-opacity=".5" rx="19" ry="44"/><path fill="#da9430" fill-opacity=".6" d="M87 142h88v7H87z"/><path fill="#9fc9db" fill-opacity=".3" d="M152.6 147.9l.2 37.1-17.3-30-10.7-3.9z"/><circle r="1" fill="#e4ad56" fill-opacity=".5" transform="rotate(171.9 97.2 76) scale(44.49932 7.91058)"/><path fill="#422321" fill-opacity=".3" d="M157 135l-2-19 35 15z"/><circle r="1" fill-opacity=".5" transform="matrix(2.9948 -.03842 .13135 10.2391 128.1 165.3)"/><path fill="#e7eded" fill-opacity=".4" d="M164 147h73v23h-73z"/><path fill="#45291f" fill-opacity=".4" d="M170.1 68.5l1.8-5.7 4.6-4L188.9 69z"/><path fill="#d7e2d8" fill-opacity=".5" d="M84 152h16v18H84z"/><circle r="1" fill="#cac5c7" fill-opacity=".5" transform="matrix(-9.83791 -19.72182 51.34578 -25.61302 135.3 46)"/><path fill="#c1b6b2" fill-opacity=".5" d="M161.2 35.2l-43 40.9 42-6.1 31.1 50.1z"/><ellipse cx="42" cy="39" fill="#eae6ea" fill-opacity=".5" rx="35" ry="46"/><ellipse cx="131" cy="82" fill="#909585" fill-opacity=".5" rx="33" ry="8"/><circle r="1" fill="#9f632e" fill-opacity=".6" transform="matrix(68.38989 -21.29158 .58114 1.86666 146.6 92.6)"/><ellipse cx="116" cy="158" fill="#a8c9d9" fill-opacity=".6" rx="7" ry="8"/><circle r="1" fill="#ebefee" fill-opacity=".5" transform="matrix(8.93136 51.70703 -20.64703 3.56636 5.4 164.2)"/><path fill="#adb3ab" fill-opacity=".2" d="M160 63l-97 58-79-23z"/><path fill="#804716" fill-opacity=".3" d="M72 137l-1-25 82-6z"/><path fill="#fff" fill-opacity=".5" d="M118 125h7v9h-7z"/><path fill="#fcdcbb" fill-opacity=".3" d="M104.2 125.5l-18.1 3.9-6.4 9.4 18.2 3.1z"/><ellipse cx="106" cy="169" fill="#8b4817" fill-opacity=".5" rx="3" ry="44"/><path fill="#7a6750" fill-opacity=".5" d="M181 109l14 21 29-3z"/><path fill="#e1eefa" fill-opacity=".3" d="M167.5 75l38.8-8.9-14.4 6.6-27.5 10.5z"/><path fill="#b39e79" fill-opacity=".6" d="M279.3 106.7L246 117l-15.2-49.7L264 57z"/><path fill="#c99241" fill-opacity=".8" d="M75.4 146.3l-4.6 7.2 101.9-6.1 30.2-16.1z"/><path fill="#712a05" fill-opacity=".4" d="M253.4 155.9l-4.4-13.3 7.6-2.5 4.4 13.3z"/><path fill="#b8813a" fill-opacity=".7" d="M241.8 96l2.4-24.6-56.3 13.7 68.9-21.9z"/><path fill="#edc99e" fill-opacity=".6" d="M249.5 201.7L233 140l13.5-3.6L263 198z"/><path fill="#a0e2ff" fill-opacity=".2" d="M228.5 108.1l-21.6-23 14.4-7.1-1.1 49.5z"/><path fill="#e2edfe" fill-opacity=".4" d="M174.5 132.6l1-33.2-8.4-3.8 12.8-4.6z"/><path fill="#7a4e27" fill-opacity=".5" d="M134.8 137.3l2.5-19.8 9.9 1.2-2.5 19.8z"/><circle r="1" fill="#c0bfc8" fill-opacity=".6" transform="matrix(-7.87447 -8.48888 19.83788 -18.40205 255 7.4)"/><path fill="#a66d3d" fill-opacity=".6" d="M185 76l14-5-20 38z"/><path fill="#642d0f" fill-opacity=".7" d="M157.6 124.4l-4.2-34.7 1-.1 4.2 34.7z"/><path fill="#d9953c" fill-opacity=".5" d="M152 113l-1 56 19 16z"/><path fill="#efefee" fill-opacity=".5" d="M234.3 142.5l3.2 25.8-25.8 3.2-3.2-25.8z"/><path fill="#abb296" fill-opacity=".5" d="M75 153h12v17H75z"/><path fill="#a67f4d" fill-opacity=".8" d="M246.6 117.1L234.3 92l10.3 34.1 16.5-3.9z"/><circle r="1" fill="#bf7b2f" fill-opacity=".6" transform="matrix(-72.03913 22.5521 -.67455 -2.15474 231.7 63.7)"/><path fill="#9a825e" fill-opacity=".6" d="M194 130l-9-47 43 34z"/><path fill="#e1bb8b" fill-opacity=".5" d="M133 136l-22 4 19-11z"/><path fill="#200000" fill-opacity=".1" d="M178.3 72.8l-10.8-20.3 6.2-3.3 10.8 20.3z"/><path fill="#73744b" fill-opacity=".5" d="M102 104L90 92l39-2z"/><path fill="#e9eeff" fill-opacity=".4" d="M178.8 122.2l1.2 3.5 9.9-.7-13.3-15.1z"/><path fill="#989179" fill-opacity=".6" d="M159 92h3v35h-3z"/><path fill="#e0d1bc" fill-opacity=".8" d="M119.3 124.2l2.4-4.7 3.7 15.1h-8.9z"/></g></svg>