<svg xmlns="http://www.w3.org/2000/svg" viewBox="0 0 299 449"><defs/><path fill="#634034" d="M0 0h299v449H0z"/><g transform="translate(.9 .9) scale(1.7539)"><circle r="1" fill="#abb1b1" fill-opacity=".9" transform="matrix(151.83972 .77903 -.5908 115.15183 26.5 83.3)"/><ellipse cx="119" cy="192" fill-opacity=".8" rx="22" ry="25"/><path fill="#827e7b" d="M186 65L74 55l106 203z"/><circle r="1" fill="#d0d8de" fill-opacity=".6" transform="rotate(172.5 13.7 42) scale(38.97184 104.25135)"/><ellipse cx="90" cy="149" fill="#806d63" rx="13" ry="103"/><circle r="1" fill="#3c3d32" fill-opacity=".8" transform="matrix(-18.84259 7.15763 -5.31822 -14.0003 151.7 26.8)"/><path fill="#827165" d="M37.8 271l59-61.8 89.2 30.3-76.9-4.1z"/><ellipse cx="136" cy="54" fill="#fcfff0" fill-opacity=".7" rx="42" ry="6"/><circle r="1" fill="#848f7f" fill-opacity=".5" transform="matrix(2.2746 26.25637 -50.1684 4.34612 13.6 223)"/><circle r="1" fill="#bebdc9" fill-opacity=".5" transform="matrix(-18.9072 4.92496 -9.64265 -37.01869 130.6 134)"/><circle r="1" fill="#2b1f13" fill-opacity=".7" transform="matrix(-4.6256 6.61452 -15.86249 -11.0928 124.2 87)"/><path fill="#474e54" d="M95.2 251.3l90.8-54.2-25.3 72.7 25.3-97.6z"/><circle r="1" fill="#004339" fill-opacity=".5" transform="matrix(13.45245 -3.1907 4.61162 19.44326 69 198.2)"/><path fill="#434a3f" fill-opacity=".3" d="M1.4 114L-.3 89l42.9-3 1.7 25z"/><path fill="#5b1d0d" fill-opacity=".5" d="M87.6 103.9l-16.8 31.6 32.2.3 2.3-38.2z"/><path fill="#eaffff" fill-opacity=".4" d="M36 148l55 45 6-20z"/><circle r="1" fill="#632007" fill-opacity=".5" transform="matrix(13.3649 18.00297 -3.25078 2.41329 76.3 44.6)"/><circle r="1" fill="#001c07" fill-opacity=".5" transform="rotate(144.6 -26.7 132) scale(28.28571 10.91224)"/><path fill="#494224" fill-opacity=".5" d="M156 62h15v50h-15z"/><path fill="#a7abaa" fill-opacity=".5" d="M155 135l-20 94 35-59z"/><path fill="#543319" fill-opacity=".5" d="M90 171l-70 32-11 35z"/><circle r="1" fill="#d2e6f2" fill-opacity=".4" transform="rotate(8 -412.9 249) scale(52.18049 18.9181)"/><circle r="1" fill="#91aab7" fill-opacity=".5" transform="matrix(2.33593 10.67396 -89.52567 19.59215 132.5 2.5)"/><path fill-opacity=".7" d="M98 176l44 13-10 41z"/><path fill="#c0aba4" fill-opacity=".4" d="M-8 212l-8-88 89 63z"/><path fill="#2d484b" fill-opacity=".5" d="M-8 19l25 13 9-8z"/><path fill="#1d1600" fill-opacity=".3" d="M12.7 168.3l10.2 88.5 4.3-91.1-8.7 4.7z"/><path fill="#e3ffcc" fill-opacity=".2" d="M73.9 219.3l-51.7 7.4 14.3 29.8 5.6-45.8z"/><path fill="#ccc7d4" fill-opacity=".5" d="M89 220l44 11-19-17z"/><path fill="#abb0bc" fill-opacity=".6" d="M102 76.5l42.5 42.4-10.6 10.6-42.4-42.4z"/><path fill="#916961" fill-opacity=".8" d="M68.8 165l4.1-41.1 43.5 19.9-21.1 20.9z"/><circle r="1" fill="#f7ffe3" fill-opacity=".6" transform="matrix(-6.086 42.24807 -7.03507 -1.01343 39 13.5)"/><path fill="#001700" fill-opacity=".7" d="M161 271l-66-29-8 29z"/><path fill="#b8dbff" fill-opacity=".4" d="M4 244l-20-22 40 18z"/><path fill="#f8ffed" fill-opacity=".7" d="M186 60.4l-54.4-4.2-33.1-2.3 5.5-12.2z"/><circle r="1" fill="#b7b4b7" fill-opacity=".9" transform="matrix(31.17192 -.97962 1.03444 32.91651 14.8 141)"/><path fill="#eff7ff" fill-opacity=".6" d="M44 104h7v77h-7z"/><circle r="1" fill="#b5bfc3" fill-opacity=".6" transform="matrix(-14.01117 4.0835 -12.98891 -44.56716 61.7 73)"/><path fill="#000009" fill-opacity=".4" d="M100.3 174.6l13.4-9.4 35.1 13.9L97 220.7z"/><path fill="#521a07" fill-opacity=".5" d="M135 148h8v15h-8z"/><circle r="1" fill="#00112a" fill-opacity=".5" transform="matrix(-5.8864 21.03897 -4.45062 -1.24522 158 207)"/><path fill="#fffff9" fill-opacity=".3" d="M100 143l-46-11 6 30z"/><path fill-opacity=".4" d="M70 205l16 19-24 12z"/><circle r="1" fill="#edc6f3" fill-opacity=".4" transform="matrix(-9.1024 .45725 -.19932 -3.96775 151.2 229.1)"/><circle r="1" fill="#3f3831" fill-opacity=".4" transform="matrix(18.54313 -6.89613 4.48589 12.0622 138.5 75)"/><path fill="#5a4b39" fill-opacity=".6" d="M156.8 112.9l-3.2 13.2 10.4 14.1-24.8-14z"/><path fill="#efdfc1" fill-opacity=".4" d="M160.2 96.2l-23.6 15 10.6 7-7.3-28.7z"/><circle r="1" fill="#005f98" fill-opacity=".6" transform="matrix(7.25416 5.12873 -3.86692 5.46943 78 201.1)"/><path fill="#aca78f" fill-opacity=".5" d="M97.5 182.7l-37.3 6 27.2 9.4-3.9 72.9z"/><path fill="#003519" fill-opacity=".5" d="M30.6 193.3L7.3 231l46.6 22.3L16.1 271z"/><path fill="#00111d" fill-opacity=".6" d="M6 188l6 1-6 9z"/><circle r="1" fill="#0b0000" fill-opacity=".8" transform="matrix(-3.08841 4.67207 -6.9271 -4.57908 117.7 83.8)"/><path fill="#6b432f" fill-opacity=".9" d="M79.8 53.6l11.4 28 11.2-6.9L64 29.4z"/><path fill="#525914" fill-opacity=".5" d="M52 174h15v6H52z"/><path fill="#fffff5" fill-opacity=".5" d="M0 39h40v10H0z"/><path fill="#7c8791" fill-opacity=".7" d="M140.4-16L94.5 56 83.1 45.2 130-16z"/><path fill="#cfcad7" fill-opacity=".4" d="M162 200l23 60-1-55z"/><path fill="#3d2013" fill-opacity=".7" d="M89.4 123.5l-6.8 1.2 4.1-25.2 11.3-2z"/><path fill="#aeb8c1" fill-opacity=".7" d="M88.4 76.9L61.9 91.6 45.8 20l30.4 27.4z"/><path fill="#310c00" fill-opacity=".3" d="M166 167l-20 1 16-11z"/><path fill="#ff8d9f" fill-opacity=".3" d="M22.1 211.1l-38.1 7 22.1-16.9L24.8 180z"/><path fill="#f1f4f5" fill-opacity=".8" d="M56.9 150.6l10.8-7.5-12.8 25.8 24.3 6.2z"/><path fill="#b1af8e" fill-opacity=".5" d="M40 214h21v15H40z"/><path fill="#b5bbbb" fill-opacity=".6" d="M172.9 112l-11.1 13.5 22.7 63.6-28.5-69.8z"/><path fill="#dbe6d0" fill-opacity=".9" d="M104.5 42.9L143-15.3l-41.9 69.7 12.1-6.8z"/></g></svg>