<svg xmlns="http://www.w3.org/2000/svg" viewBox="0 0 300 199"><defs/><path fill="#444" d="M0 0h300v199H0z"/><g transform="translate(.6 .6) scale(1.17188)"><circle r="1" fill="#fff" fill-opacity=".7" transform="matrix(17.34488 69.54253 -43.80657 10.92597 160.2 146)"/><circle r="1" fill="#bebebe" fill-opacity=".5" transform="matrix(49.44494 2.5913 -1.18963 22.6995 75.8 135.3)"/><circle r="1" fill="#010101" fill-opacity=".8" transform="matrix(3.85856 54.43986 -30.86034 2.1873 233.8 33.7)"/><ellipse cy="35" fill-opacity=".6" rx="40" ry="169"/><circle r="1" fill="#b6b6b6" fill-opacity=".6" transform="matrix(-16.00768 7.53264 -12.47271 -26.50586 211 101.4)"/><circle r="1" fill="#080808" fill-opacity=".7" transform="rotate(142.5 71 34.5) scale(21.62011 41.27664)"/><circle r="1" fill="#fcfcfc" fill-opacity=".6" transform="matrix(-24.68147 10.1565 -26.37738 -64.10004 183.4 169)"/><ellipse cx="158" cy="90" fill="#c8c8c8" fill-opacity=".8" rx="12" ry="31"/><path fill-opacity=".6" d="M39 0h29v49H39z"/><path fill-opacity=".3" d="M89 87.1l10-34.6L149 67l-10 34.6z"/><circle r="1" fill="#a4a4a4" fill-opacity=".7" transform="rotate(-137.2 47.1 56) scale(23.51629 13.56314)"/><path fill-opacity=".3" d="M108 134h34v36h-34z"/><path fill="#b2b2b2" fill-opacity=".5" d="M142 42l-28 17-14-31z"/><path fill="#0c0c0c" fill-opacity=".7" d="M186.7 81.2l12.4 44.5-50.9-90.9 24.1-39.5z"/><path fill="#fdfdfd" fill-opacity=".5" d="M191 67l19 10-8 36z"/><path fill="#5f5f5f" fill-opacity=".4" d="M230 39l41 129-72-22z"/><circle r="1" fill="#0b0b0b" fill-opacity=".7" transform="matrix(-19.8639 -12.38727 6.10217 -9.78528 47.6 100.5)"/><circle r="1" fill="#818181" fill-opacity=".5" transform="matrix(9.13813 13.65038 -43.73366 29.27713 115.4 101.5)"/><circle r="1" fill="#868686" fill-opacity=".5" transform="rotate(49.6 11.5 105.5) scale(16.96234 19.34457)"/><circle r="1" fill="#040404" fill-opacity=".8" transform="rotate(74.3 -103.6 81.6) scale(112.48778 30.09969)"/><path fill="#fdfdfd" fill-opacity=".6" d="M105.3 161l-24.7 24 4.9-15.9 25.8 1.4z"/><path fill="#141414" fill-opacity=".9" d="M248.1 126l22.9 8.1v11.7l-55.7-15.5z"/><path fill-opacity=".5" d="M116 97l-7-56-13 34z"/><ellipse cx="193" cy="58" fill="#777" fill-opacity=".7" rx="9" ry="23"/><circle r="1" fill-opacity=".6" transform="matrix(-46.0874 8.9068 -.67999 -3.51853 84.5 165)"/><path fill="#8a8a8a" d="M271 85.3l-32.2 3.4-24.5 3 56.7 6.4z"/><path fill="#c7c7c7" fill-opacity=".6" d="M167 119l-15-72 55 87z"/><path fill-opacity=".7" d="M154 67.4l-8.4-39.2-4.1 25.3-17.6 20.9z"/><path fill="#272727" fill-opacity=".9" d="M15.8 10.5L174.7-16l-37.4 50.3-40.7-23.7z"/><path fill="#fff" fill-opacity=".4" d="M115 39l15-11-23 6z"/><path fill-opacity=".6" d="M196 75l29-91 46 44z"/><path fill="#f6f6f6" fill-opacity=".1" d="M39.7 68.1l-21.9 38.3L6.5 78.9l57 14z"/><path fill="#868686" fill-opacity=".5" d="M271 151.3l-42.7 4-32.6-22.5-.7-10.1z"/><path fill="#d5d5d5" fill-opacity=".4" d="M83.1 160l-3.8-21.6 25.6-4.5 3.8 21.7z"/><path fill="#060606" fill-opacity=".2" d="M80 133.3L61.4 130 49.3 67.4l45.2 70.5z"/><path fill-opacity=".7" d="M106.1 148.6l7.3 35 6.6-2.8-10.2-41.8z"/><path fill="#747474" fill-opacity=".5" d="M106 96l-4 28-42-75z"/><path fill-opacity=".5" d="M95 48h17v39H95z"/><circle r="1" fill="#c2c2c2" fill-opacity=".4" transform="matrix(22.34107 -23.29705 12.59552 12.07867 137.8 133.1)"/><path fill="#1d1d1d" fill-opacity=".5" d="M225.9 185l-27.2-40.8 37.9 19.9 21.2 2.9z"/><circle r="1" fill="#8e8e8e" fill-opacity=".5" transform="rotate(31.8 -229 158.4) scale(28.27221 9.92505)"/><path fill="#fbfbfb" fill-opacity=".5" d="M174 165l44 13-40-74z"/><path fill-opacity=".7" d="M68.3 161L45 164.6l18.4 7.4 46.4-10.9z"/><path fill="#222" fill-opacity=".9" d="M266 79.2l-8.9-18.8-34.8-23.2 23.9 55z"/><path fill="#7a7a7a" fill-opacity=".5" d="M179 50l29-13-31-6z"/><path fill="#010101" fill-opacity=".6" d="M54 76.3l-7.5-5L58 53.8l7.6 5z"/><path fill="#a3a3a3" fill-opacity=".5" d="M126.3 139.1l23.1.1-35.1-22.7-59.4-.2z"/><path fill="#c6c6c6" fill-opacity=".4" d="M206.1 154.1l-56-117.9 3.5 35.9-22.9 2.7z"/><path fill="#fafafa" fill-opacity=".4" d="M197.2 105.1l12.9-.7-6.9-24.8-8.9 13.8z"/><ellipse cx="55" cy="28" fill-opacity=".7" rx="12" ry="14"/><path fill="#5f5f5f" d="M232.9 92.7l-19 .5 2.7 22.7 54.4 3z"/><path fill="#f7f7f7" fill-opacity=".2" d="M79.7 51.2l1.2-17.7-17.3-12.9 7 17z"/><path fill="#6c6c6c" fill-opacity=".6" d="M136 59l-23 6-2-28z"/><path fill="#222" fill-opacity=".3" d="M74 59l10-29 42 17z"/><path fill="#1f1f1f" fill-opacity=".6" d="M208 81l5 6 7-10z"/><path fill="#1e1e1e" fill-opacity=".6" d="M99 116L71 86l10 22z"/><path fill="#c1c1c1" fill-opacity=".2" d="M44.9 90.6l-4.7-18.4 7.6-17.5 6-2.9z"/><path fill="#3a3a3a" fill-opacity=".5" d="M206.8 132.9l-27.6-71.2 16.6 59.1 18.6.4z"/><path fill="#999" fill-opacity=".7" d="M136.2 53.9l-14.7-12 6.3-7.8 14.7 12z"/><path fill-opacity=".5" d="M117 74l-2 35-13-57z"/><path fill="#5b5b5b" fill-opacity=".4" d="M6.7 159.4L27 143 4.1 185l10.7-28.3z"/><path fill="#6e6e6e" fill-opacity=".7" d="M113.7 158.1l11.5 11.9 16.1-20.8-7.4.2z"/><path fill="#3b3b3b" d="M129.1 33.2L151 15.1l-25.3 17.3-21.3 24.7z"/><path fill="#d2d2d2" fill-opacity=".6" d="M121.3 111.7l33.8 44.4 18 18.5-19.2-81.2z"/><path fill="#646464" fill-opacity=".5" d="M94 101L58 69l35-11z"/></g></svg>