<svg xmlns="http://www.w3.org/2000/svg" viewBox="0 0 300 199"><defs/><path fill="#482f25" d="M0 0h300v199H0z"/><g transform="translate(.6 .6) scale(1.17188)"><circle r="1" fill="#998c8d" fill-opacity=".8" transform="matrix(143.47074 -93.07202 47.26008 72.85153 86.8 27.4)"/><circle r="1" fill="#edecfc" fill-opacity=".6" transform="matrix(15.57756 42.64596 -17.4209 6.36345 141 153.6)"/><circle r="1" fill="#200000" fill-opacity=".6" transform="matrix(-11.75817 -13.45504 21.58343 -18.86146 23.2 64)"/><ellipse cx="60" cy="9" fill="#bfcbd5" fill-opacity=".5" rx="83" ry="33"/><circle r="1" fill="#f5f2f4" fill-opacity=".7" transform="matrix(-14.2562 -13.4556 24.86218 -26.34146 4.3 113.8)"/><circle r="1" fill="#3d150e" fill-opacity=".7" transform="matrix(-19.46293 28.63883 -17.11953 -11.63442 58 116.9)"/><circle r="1" fill="#ebdbdd" fill-opacity=".7" transform="matrix(-14.54806 12.0352 -5.90197 -7.13425 25.2 169)"/><circle r="1" fill="#694138" fill-opacity=".7" transform="matrix(49.17796 -46.01992 19.6338 20.98114 173.2 69)"/><circle r="1" fill="#1a0000" fill-opacity=".9" transform="matrix(14.82083 3.56548 -10.08585 41.92446 182 135.6)"/><circle r="1" fill-opacity=".8" transform="matrix(-17.79292 -5.14203 10.59746 -36.67034 255 146.2)"/><path fill="#eaebe6" fill-opacity=".4" d="M31.5-1.7l72.2 51L54 77.5l9.6-17.2z"/><path fill="#d2afae" fill-opacity=".4" d="M221.5 78.2L234.6 66l54 57.8-13.2 12.2z"/><circle r="1" fill="#0d0009" fill-opacity=".5" transform="rotate(-119.2 87.6 54.4) scale(22.29364 55.73614)"/><path fill="#938381" fill-opacity=".7" d="M159.5 134.4l8.9 7.7L143.9-2l-4.8 99.4z"/><path fill="#b9b2b4" d="M82.3 122.2l17.2-13.7-.9 19.7-17.4 2.1z"/><path fill="#fafdff" fill-opacity=".5" d="M145.6 115.4l18.6 105.4-9.8 1.8-18.6-105.4z"/><circle r="1" fill="#651b09" fill-opacity=".6" transform="matrix(-19.24461 -24.47143 27.6655 -21.75646 189.6 82.4)"/><path fill="#201b2c" fill-opacity=".5" d="M121 33L71 16l34 25z"/><path fill="#3d1101" fill-opacity=".6" d="M53 101.6L-5.6 60.4l34-18.1 10.1-.1z"/><path fill="#320a00" fill-opacity=".7" d="M79.4 65.2L77 71l16.4 14.9-2.3-26.6z"/><circle r="1" fill="#5a545b" fill-opacity=".7" transform="rotate(-100.5 121 -85) scale(10.83809 74.18218)"/><path fill="#adb2ba" fill-opacity=".5" d="M111 43l33-5-34 82z"/><circle r="1" fill="#775e57" fill-opacity=".5" transform="matrix(-10.4646 -11.01236 30.9971 -29.4553 26.5 140)"/><circle r="1" fill="#93040e" fill-opacity=".4" transform="rotate(48.2 -64.5 310.5) scale(17.01989 35.27308)"/><path fill="#b3cae0" fill-opacity=".5" d="M202 108h7v34h-7z"/><circle r="1" fill="#afafb2" fill-opacity=".9" transform="matrix(-2.60811 -12.48432 16.75309 -3.4999 5.7 38)"/><ellipse cx="68" cy="118" fill="#380500" fill-opacity=".7" rx="8" ry="46"/><ellipse cx="125" cy="169" fill="#887880" fill-opacity=".5" rx="13" ry="62"/><path fill="#dddcd9" fill-opacity=".7" d="M62 0h12v69H62z"/><path fill="#5d1a00" fill-opacity=".5" d="M117.3 82.8l-11.6-18.7-2.8 18.6L84 120.2z"/><ellipse cx="168" cy="46" fill="#b7d7e5" fill-opacity=".3" rx="75" ry="5"/><path fill-opacity=".6" d="M210 106h7v64h-7z"/><path fill="#170200" fill-opacity=".4" d="M58.4 54.5l121.1-6.7-8.3 131.7-8.9-123.4z"/><path fill="#ce8c77" fill-opacity=".3" d="M75.2 34.6L.2 95.9l29.7-38.7 30.9 49.9z"/><path fill="#020000" fill-opacity=".7" d="M30.2 52.8L-16 74.5l53.7-35.8 21.1 11.2z"/><path fill="#000012" fill-opacity=".4" d="M161.9 94.8l-9.2 48.8 27 12.7-37.2-28.2z"/><path fill="#e5e4ea" fill-opacity=".6" d="M142 114l22 54-27 14z"/><path fill="#150001" fill-opacity=".6" d="M124.2 77l14-7.6.9 15.5-11 7.2z"/><path fill="#f6bda4" fill-opacity=".5" d="M183 77l1 13 11-6z"/><path fill="#b0bdca" fill-opacity=".6" d="M97 55h22v15H97z"/><path fill="#00030c" fill-opacity=".6" d="M101 115h15v43h-15z"/><ellipse cy="71" fill="#1d0100" fill-opacity=".8" rx="13" ry="17"/><path fill="#e4e9ff" fill-opacity=".4" d="M167.1 121.7l.8 14-11 .6-.8-14z"/><path fill="#a8d5fd" fill-opacity=".2" d="M271 10L169 21l-52-37z"/><circle r="1" fill="#a45d3e" fill-opacity=".4" transform="matrix(-28.7827 14.8041 -5.19114 -10.09282 222.2 72.7)"/><path fill="#c4babc" fill-opacity=".5" d="M72 71l26 12-7 20z"/><circle r="1" fill="#cfa9a0" fill-opacity=".6" transform="matrix(-3.89345 -.13596 .50607 -14.4919 144.8 92.7)"/><path fill="#c87a65" fill-opacity=".5" d="M182 63l-1-23 16 32z"/><path fill="#cdd3de" fill-opacity=".3" d="M94.1 118.7l.4 30 8.6-.2-13.9-67.3z"/><path fill="#2a040e" fill-opacity=".5" d="M210 86h26v37h-26z"/><path fill="#e0dfe3" fill-opacity=".6" d="M-1.4 89.9l33.5 17.6-24.7 22.7-7.5 28.5z"/><path fill="#737686" fill-opacity=".4" d="M72 38.6l40.7-3.4 58 13.2-89.2-59.3z"/><path fill="#c9b3b5" fill-opacity=".5" d="M249 112l-6 1-6 15z"/><path fill="#a62935" fill-opacity=".5" d="M211 146l25-46-2 54z"/><path fill="#352d27" fill-opacity=".5" d="M146 18l56 19-28 4z"/><path fill="#b28b7b" fill-opacity=".5" d="M16 99L9.7 85.1 28 77l6 13.7z"/><path fill="#ccd0dc" fill-opacity=".4" d="M121.4 114.7l-11.3.9 11.4-57.9-16 47.2z"/><path fill-opacity=".6" d="M191.1 112.5l13.4 14.9-35.6 32-13.4-14.8z"/><path fill="#ad6d5b" fill-opacity=".6" d="M63.6 78.7L37.5 60.5l4.4-11.9L58 50.5z"/><ellipse cx="69" cy="159" fill="#270000" fill-opacity=".6" rx="28" ry="16"/><path fill="#010009" fill-opacity=".5" d="M251 171l-35 11-11-40z"/><path fill="#544337" fill-opacity=".5" d="M49 6h10v10H49z"/><path fill="#1f0300" fill-opacity=".6" d="M180.4 120.1l-33.7 1.6 2.8 12.3 30.9-45.8z"/><path fill="#8c8a8b" fill-opacity=".5" d="M148 51l39-4-65-43z"/><path fill="#654035" fill-opacity=".5" d="M43 163l-3-67-24 44z"/></g></svg>