<svg xmlns="http://www.w3.org/2000/svg" viewBox="0 0 299 449"><defs/><path fill="#4f413b" d="M0 0h299v449H0z"/><g transform="translate(.9 .9) scale(1.7539)"><circle r="1" fill="#efeee8" fill-opacity=".7" transform="matrix(-168.17147 -24.86681 23.87081 -161.43565 68.5 133.4)"/><circle r="1" fill="#855427" fill-opacity=".4" transform="rotate(-110.1 80.4 10.7) scale(53.22449 20.74103)"/><path fill="#756f5c" fill-opacity=".5" d="M9 74h19v112H9z"/><circle r="1" fill="#e7e8e9" fill-opacity=".3" transform="rotate(-58.9 243 -29.8) scale(102.40712 68.97575)"/><path fill="#474a39" fill-opacity=".4" d="M60 148h9v49h-9z"/><circle r="1" fill="#e0dcea" fill-opacity=".5" transform="rotate(94.7 -18.5 73.7) scale(22.53167 29.81315)"/><circle r="1" fill="#b39a82" fill-opacity=".5" transform="rotate(-59.2 111.2 -80) scale(15.06826 51.19352)"/><path fill="#441200" fill-opacity=".4" d="M26.3 171.9L9 153.5l13.7 31.7L40.1 173z"/><circle r="1" fill="#c7cad4" fill-opacity=".5" transform="matrix(-8.43093 18.5 -60.21975 -27.44372 150.7 25.9)"/><circle r="1" fill="#c9ac8b" fill-opacity=".5" transform="matrix(-11.96968 -.64825 3.69267 -68.18316 118.3 158.4)"/><path fill="#666759" fill-opacity=".5" d="M68 169l-1-16-41 7z"/><path fill="#6a6156" fill-opacity=".5" d="M90.5 143.7l-6.9-40.4 24.1.2 3.8 11.4z"/><circle r="1" fill="#bfc1c1" fill-opacity=".6" transform="rotate(-65.3 189.2 81.8) scale(28.94996 144.22959)"/><path fill="#fff9f0" fill-opacity=".7" d="M143.6 104.1l-2.7 34.2-9.1-17.8-1.9-11.2z"/><path fill="#8a8b7d" fill-opacity=".6" d="M50.1 199.2l-28.4-41.9 22.9-35.8-41.2-15z"/><path fill="#e6e1e6" fill-opacity=".5" d="M75 144h28v49H75z"/><path fill="#b3b1a7" d="M-4.2 153.1l67.6 15.8-35.8 3.9L1.4 95.9z"/><path fill="#696f6c" fill-opacity=".3" d="M57.9 61.5l40.7-7.2-14.4 52.8 36.1 36.5z"/><path fill="#978674" fill-opacity=".4" d="M99.6 132l4.9-.8 16 100.8-5 .8z"/><path fill="#e1bd9e" fill-opacity=".5" d="M118.2 50.9l29 50.2-17.4 10-29-50.2z"/><path fill="#7e5b46" fill-opacity=".6" d="M114.9 86.1l4.6-3-16.1 4.7L92.5 57z"/><path fill="#abaaa7" fill-opacity=".7" d="M101 33L-1 104l-15-32z"/><circle cx="61" cy="116" r="25" fill="#ccc1c5" fill-opacity=".7"/><path fill="#674c33" fill-opacity=".5" d="M123 137l-5-24 10 18z"/><circle r="1" fill="#c6c9d4" fill-opacity=".5" transform="matrix(-1.42123 -13.29878 50.2169 -5.36664 22.6 19.1)"/><circle cx="155" cy="196" r="42" fill="#d5dcdf" fill-opacity=".3"/><path fill="#d2caca" fill-opacity=".7" d="M28.6 159.5l34.3-6.2-9.9-45.7-26.4 45.2z"/><path fill="#aca091" d="M75 202l-29.6-23.8 14.8-17.4 2.8 24.5z"/><path fill="#fbe3c7" fill-opacity=".6" d="M109 91l8 33 1-21z"/><circle r="1" fill="#2b598a" fill-opacity=".1" transform="matrix(-4.44139 -20.98992 25.12103 -5.31552 158 84)"/><path fill="#d9dde5" fill-opacity=".5" d="M39.5 105.4l-17.7 5.4 21.1-42.5 20.7 5.8z"/><path fill="#dbb99b" fill-opacity=".6" d="M94 71l-5 34 14 1z"/><path fill="#dbd1c6" fill-opacity=".6" d="M122.4 141l-6.3-15.7-1.6 42.1 29.8-4.7z"/><path fill="#69513d" fill-opacity=".4" d="M-11 155l44 28-19-29z"/><path fill="#c8b29a" fill-opacity=".6" d="M84 54l28-35L-2 40z"/><path fill="#ba9d82" fill-opacity=".8" d="M98.5 44.9l-3.4 31.2 31.4-32.3L112.4 30z"/><path fill="#bb9e7b" fill-opacity=".4" d="M152.4 142.9l-6.5 10-24.3-15.8 6.5-10z"/><path fill="#752901" fill-opacity=".2" d="M100.3 116.9l7.9-3.3 2-24-3-22.3z"/><path fill="#949386" fill-opacity=".5" d="M36 64.4l6.7 6L4 113.7l-6.6-6z"/><path fill="#52463d" fill-opacity=".5" d="M84 98l4-13 2 29z"/><path fill="#aaa296" fill-opacity=".6" d="M39 202.3l6.7 3.1 2.3-15.8-36.7-47.7z"/><path fill="#82816f" fill-opacity=".7" d="M18.7 132.8l-3.4-38.9 8-.7 3.4 38.9z"/><path fill="#dda15b" fill-opacity=".4" d="M108 25L68 4l24 2z"/><path fill="#403f3f" fill-opacity=".5" d="M66 160.4l-3 .2-1-19 3-.2z"/><path fill="#c8c6c5" fill-opacity=".5" d="M67 149l75-7-73 28z"/><ellipse cx="17" cy="216" fill="#c7c7c7" fill-opacity=".6" rx="38" ry="19"/><path fill="#868d8b" fill-opacity=".6" d="M152.5 5V-5h27V5z"/><path fill="#d5d8e2" fill-opacity=".6" d="M186 22.9l-29.5 2.9-4.3-6.2L179-2z"/><path fill="#502a20" fill-opacity=".6" d="M19 176l9 6-12-24z"/><path fill="#fffffa" fill-opacity=".2" d="M-16 153.6l17-5.9 14.1-24.3 3.6 20.7z"/><path fill="#99958b" fill-opacity=".6" d="M88 57.1L74.8 81.8 58 73l13.2-24.7z"/><path fill="#b5b6ba" fill-opacity=".5" d="M157 65l-15-81-12 81z"/><path fill="#b0b2b4" fill-opacity=".4" d="M59.4 228L-16 260.3l129.7-16.6.3-30.8z"/><path fill="#a09484" fill-opacity=".5" d="M51.8 108.6l-20.2 31-3.4-2.2 20.2-31z"/><path fill="#8b7c6a" fill-opacity=".6" d="M106 161l2 20 7-16z"/><path fill="#faf0e3" fill-opacity=".3" d="M139 141.5l-20.9-65.9 9.3-12.6 4 58.5z"/><path fill="#e8e2c5" fill-opacity=".5" d="M43.1 183.5l-5.2-14 22.3-5.2-14.8 10.8z"/><path fill="#b9b6b4" fill-opacity=".7" d="M169.1 92.9L134.9 152l8.6-35.4-4.7-35.1z"/><path fill="#e9d5ba" fill-opacity=".5" d="M36.6 34.6L71.1 4.2l-1 8.1-14.8 17.4z"/><path fill="#98938a" fill-opacity=".5" d="M89 117h11v24H89z"/><path fill="#a7592a" fill-opacity=".3" d="M52.9 182.9l-8.2-3.7 4.4-10 8.2 3.6z"/><ellipse cx="116" cy="181" fill="#e7ccaf" fill-opacity=".6" rx="5" ry="17"/><circle r="1" fill="#9da399" fill-opacity=".4" transform="matrix(-20.76937 -14.76003 6.40942 -9.01892 0 168.4)"/><ellipse cx="83" cy="196" fill="#ab9f8c" fill-opacity=".4" rx="30" ry="3"/><path fill="#847e81" fill-opacity=".6" d="M104.2 137.5l.2 1-42.6 6-.2-1z"/></g></svg>