<svg xmlns="http://www.w3.org/2000/svg" viewBox="0 0 299 449"><defs/><path fill="#2b1b15" d="M0 0h299v449H0z"/><g transform="translate(.9 .9) scale(1.7539)"><circle cx="101" cy="137" r="177" fill="#fffffa" fill-opacity=".6"/><ellipse cx="41" cy="101" fill="#6b3307" fill-opacity=".6" rx="27" ry="46"/><circle r="1" fill="#421d0c" fill-opacity=".6" transform="rotate(63.1 -3.5 126.4) scale(30.0666 23.25432)"/><circle cx="156" cy="182" r="66" fill="#dbe4ed" fill-opacity=".5"/><circle r="1" fill="#fdebe4" fill-opacity=".7" transform="rotate(162.4 -6 125) scale(22.09264 50.6763)"/><ellipse cx="12" cy="160" fill="#fffcf9" fill-opacity=".8" rx="10" ry="31"/><path fill="#715142" fill-opacity=".5" d="M25 190l36 59 96 11z"/><circle r="1" fill="#becacf" fill-opacity=".7" transform="matrix(124.00091 -25.90514 7.92187 37.91985 92.5 11.4)"/><circle r="1" fill="#9e7b6a" transform="rotate(56 -32.3 148) scale(34.7458 14.75817)"/><path fill="#130405" fill-opacity=".3" d="M47 166l42-48-35-60z"/><ellipse cx="110" cy="57" fill="#010000" fill-opacity=".8" rx="20" ry="8"/><path fill="#858a8c" fill-opacity=".6" d="M150 165l-6 41 33 38z"/><circle r="1" fill="#b68a5d" fill-opacity=".6" transform="rotate(34.1 -153.9 95.2) scale(22.02042 37.16182)"/><circle cx="101" cy="70" r="8" fill="#fff" fill-opacity=".5"/><path fill="#240700" fill-opacity=".5" d="M120 59h11v53h-11z"/><path fill="#102a3c" fill-opacity=".3" d="M85.4 250.9l-8.8-95.8 17.6 33.7-1 24.3z"/><path fill="#d0d2d6" fill-opacity=".8" d="M105.9 85.6l-15.3 16 63 169.4-78.4-120.7z"/><path fill="#cfeefd" fill-opacity=".3" d="M186 18l-31 145-27-117z"/><path fill="#cdd9e3" fill-opacity=".6" d="M98.1 215.9l28.6 9.3-6.8 20.9-28.6-9.3z"/><path fill="#bec7c6" fill-opacity=".5" d="M49.3 159.6l39 89.5-41-41.4-31.4-89.6z"/><path fill="#a33500" fill-opacity=".2" d="M25.3 239.1L9.1 225.8l22-62.9L49 220.1z"/><ellipse cx="15" cy="255" fill="#fbffff" fill-opacity=".6" rx="52" ry="19"/><path fill="#adb5b6" fill-opacity=".5" d="M67 71l38 23-41 27z"/><path fill="#0c150b" fill-opacity=".4" d="M148 262l-22-28-16 32z"/><ellipse cx="1" cy="192" fill="#00110d" fill-opacity=".4" rx="8" ry="13"/><path fill="#f4ebe2" fill-opacity=".5" d="M14.4 127.9l-23.6 25.2 35.3 69.5-1.8-92.1z"/><path fill="#f1f3f5" fill-opacity=".5" d="M176.2 128l-43 63.8-17.4-11.8 43-63.8z"/><path fill="#806856" fill-opacity=".6" d="M58.8 144.8l11.7 30.4-38-31.3 66.3-34.6z"/><path fill="#090000" fill-opacity=".4" d="M56 127l9-28-34 35z"/><path fill="#321c0d" fill-opacity=".7" d="M31.3 59.5l4.2 9.6 23.1-4.7-14.8-7.6z"/><ellipse cx="157" cy="165" fill="#868b8e" fill-opacity=".6" rx="9" ry="13"/><path fill="#7c4a12" fill-opacity=".5" d="M10 94h16v33H10z"/><path fill="#6d3215" fill-opacity=".4" d="M33.8 197.9L31.3 171l22.4 65.5 35.4 22.4z"/><ellipse cx="78" cy="201" fill="#ebfcff" fill-opacity=".4" rx="6" ry="13"/><path fill="#c4a28e" fill-opacity=".7" d="M113.9 153.8l13.4-23.6-34.9-49.7-.2 29.7z"/><path fill="#f2fbff" fill-opacity=".3" d="M46 208.8l8.6-18.1 1.2-39.5-19.4 14.9z"/><path fill-opacity=".5" d="M84 60l3 10 12-15z"/><ellipse cx="43" cy="88" fill="#d1a9a6" fill-opacity=".4" rx="8" ry="22"/><path fill="#5f2813" fill-opacity=".5" d="M79.8 134.9l-12.7-8 11.1-17.8 12.7 8z"/><path fill="#220400" fill-opacity=".3" d="M138.5 60.9l-32.1 34.2-3.9-10.8-11.9.1z"/><path fill="#865a3b" fill-opacity=".8" d="M59.5 150.8L27.7 84.7l33.5-7.4-35.9 21.4z"/><path fill="#a6adaf" fill-opacity=".5" d="M88.9 140.7l-30.8-17.3 34.5-36-34.2 58.3z"/><path fill="#874f26" fill-opacity=".3" d="M19 181.2l-11.7 2.4 16.1-13.4 22.7 33.4z"/><path fill="#eef6f9" fill-opacity=".5" d="M158 242.5L129.6 271l32.4-53.5 6.3 11.3z"/><path fill="#f6fbfb" fill-opacity=".6" d="M127.3 145.8l-9.5 11 17-44.8 6.7 10.8z"/><circle r="1" fill="#905d45" fill-opacity=".4" transform="matrix(-9.13611 -26.65312 8.67306 -2.97294 117.6 103.3)"/><path fill="#b1b7b8" fill-opacity=".8" d="M69 64l87-46L5 40z"/><path fill="#0b0701" fill-opacity=".6" d="M107.4 46.3l12.9 2.9 12.2 17-1.3 18.7z"/><path fill="#fbb5a3" fill-opacity=".4" d="M79.8 259.6l-2.1-10.8 22.5-4.4 2.1 10.8z"/><path fill-opacity=".5" d="M61.2 87.6L57.9 67l3-.5L64 87z"/><path fill="#332c1e" fill-opacity=".6" d="M97 270l19-19-5-6z"/><path fill="#836045" fill-opacity=".5" d="M166 194l20 38v-65z"/><circle r="1" fill="#c6ced1" fill-opacity=".5" transform="matrix(21.92737 5.34532 -19.6595 80.64649 15.6 0)"/><path fill="#02141e" fill-opacity=".1" d="M113.3 179.5l-2.5 20.2-43.7-63.3-29.6 107.5z"/><path fill="#a8a39f" fill-opacity=".5" d="M37.9 146.6l-12-12.2-9.7 25.4 18.9 18z"/><path fill="#fff1db" fill-opacity=".4" d="M92 64l-1 13 26-10z"/><circle r="1" fill="#b77567" fill-opacity=".5" transform="matrix(3.52184 -1.849 6.12847 11.67302 21.1 222.1)"/><ellipse cx="140" cy="95" fill="#9aa4a8" fill-opacity=".3" rx="11" ry="41"/><path fill="#a1a8b1" fill-opacity=".5" d="M108.3 243.1l-20.4-5.9 3.1-64.6 11.1 44.7z"/><circle r="1" fill="#d88e6a" fill-opacity=".3" transform="rotate(-141.8 70.7 111.2) scale(26.87925 5.79309)"/><path fill="#d6dddd" fill-opacity=".8" d="M170 214.1l-2.5-24.5-10-13.4-1.4 13.6z"/><path fill="#b3966a" fill-opacity=".7" d="M22.3 64l-30.2 84 35.2-76.2 4-14.2z"/><path fill="#7a838a" fill-opacity=".3" d="M138.9 228.9l30.9-15.2-9-16.2-33.1 27.8z"/><path fill="#f5e0d3" fill-opacity=".5" d="M27 190H9l26 49z"/><path fill="#4c1604" fill-opacity=".3" d="M102.8 243.1l-34.3 3.3 8 10.7 9.3-19.8z"/></g></svg>