<svg xmlns="http://www.w3.org/2000/svg" viewBox="0 0 300 199"><defs/><path fill="#523e2d" d="M0 0h300v199H0z"/><g transform="translate(.6 .6) scale(1.17188)"><circle r="1" fill="#fff8ff" fill-opacity=".6" transform="matrix(-35.09385 -30.60236 37.6502 -43.17608 124.9 39.6)"/><circle r="1" fill="#c39f8d" fill-opacity=".5" transform="matrix(-51.51195 5.14158 -13.78503 -138.10815 215.6 83.5)"/><ellipse cx="70" cy="72" fill="#9a8a8d" fill-opacity=".7" rx="110" ry="28"/><ellipse cx="51" cy="67" fill="#e2ffff" fill-opacity=".6" rx="9" ry="29"/><path fill="#f6fff6" fill-opacity=".4" d="M162 131l109 10-66 26z"/><circle r="1" fill="#e6efef" fill-opacity=".6" transform="matrix(-13.68329 -13.30641 49.07958 -50.46964 129.2 18.3)"/><path fill="#320000" fill-opacity=".5" d="M248-16l-26 150-9-84z"/><circle cx="128" cy="121" r="49" fill="#4a2869" fill-opacity=".5"/><path fill="#64453a" d="M105.8 22.1L115.1-7l-13 1.4-23.9-1.7z"/><circle r="1" fill="#b26b42" fill-opacity=".4" transform="rotate(164.6 56.6 50.3) scale(20.85296 46.7883)"/><path fill="#714535" fill-opacity=".9" d="M164.4-16L218 146.1l-24.3-6.4-8.3-33.2z"/><ellipse cx="90" cy="49" fill="#daeeff" fill-opacity=".6" rx="11" ry="43"/><ellipse cx="70" cy="76" fill="#42291f" fill-opacity=".7" rx="7" ry="159"/><path fill="#001854" fill-opacity=".6" d="M141 149l14-107 21 114z"/><path fill="#fac8b2" fill-opacity=".8" d="M153.6 161.9l1 2.8-14.2 20.3 4.9-38.1z"/><circle r="1" fill="#a3c5da" fill-opacity=".5" transform="rotate(-10 620.5 -948.7) scale(8.72733 59.28559)"/><path fill="#32261b" fill-opacity=".5" d="M-1-4l50 121-11-86z"/><path fill="#a8a69d" fill-opacity=".6" d="M288.3 70.6L255.7 165l-34-11.7L254.3 59z"/><path fill="#11052c" fill-opacity=".5" d="M69 137h69v33H69z"/><path fill="#804d5a" fill-opacity=".7" d="M155.3 104.8l-78.9 30.8 26.5-54.3-6.7-32.4z"/><circle r="1" fill="#fff1b4" fill-opacity=".6" transform="matrix(2.62998 .45428 -5.69534 32.9725 247.2 21)"/><path fill="#ffbd9c" fill-opacity=".5" d="M187.9 55.6l-30.7 12.2-19.1 27-21-26.9z"/><path fill="#e7fbff" fill-opacity=".6" d="M103-16l57 66-5-58z"/><path fill="#e6e1c7" fill-opacity=".8" d="M170.4 142.4l6.3-12.4 35 17.2 8.5 13.9z"/><path fill="#512813" fill-opacity=".7" d="M194.6 155.4l11.6-56.5L183.5-16 211 65.7z"/><circle r="1" fill="#486a43" fill-opacity=".8" transform="rotate(-127.3 132 35.4) scale(12.67354 14.35518)"/><path fill="#f9c48a" fill-opacity=".5" d="M209 0h6v54h-6z"/><circle r="1" fill="#c8dfff" fill-opacity=".5" transform="matrix(-10.8899 -33.51567 6.0344 -1.9607 52.5 72.3)"/><path fill="#f2f0e8" fill-opacity=".7" d="M.2-9.5L61.8-16 50.9 7.4 38.8-9z"/><circle r="1" fill="#72553d" fill-opacity=".4" transform="matrix(32.77818 -76.60436 26.24725 11.23091 27.8 167.7)"/><path fill="#979d94" fill-opacity=".3" d="M26 33l-42 79 50-8z"/><path fill="#efc5a8" fill-opacity=".7" d="M128 117l10 12-11-28z"/><ellipse cx="230" cy="8" fill="#370a00" fill-opacity=".4" rx="10" ry="57"/><path fill="#f8c789" fill-opacity=".4" d="M240 30l5 38-15 34z"/><path fill="#502d1c" fill-opacity=".5" d="M193 108h28v35h-28z"/><path fill="#400000" fill-opacity=".5" d="M250 75l-14 27 11-60z"/><path fill="#ffe8ca" fill-opacity=".5" d="M149.6 111l-6.4 2.9-4.8-11 6.4-2.8z"/><path fill="#ccb39f" fill-opacity=".8" d="M147.2 31.3l-.4 24-34-.6.4-24z"/><path fill="#4b1f53" fill-opacity=".6" d="M121.8 99.3l-22.7 11.1-9 36.9 50.9 9.4z"/><ellipse cx="160" cy="85" fill="#001671" fill-opacity=".4" rx="11" ry="19"/><path fill="#7f5137" d="M174.6 28.9l-.2-44.9 36.2 35.5.4-35.3z"/><path fill="#332019" fill-opacity=".4" d="M61.7 127.6l-12.3-10.3L-16 146l56-64.3z"/><path fill="#00062c" fill-opacity=".4" d="M128.2 95.5l43 42.4-4.9 47.1-26.3-53.6z"/><path fill="#000300" fill-opacity=".5" d="M191 165h17v5h-17z"/><path fill="#480e01" fill-opacity=".3" d="M127.4 54.4l-42.7 46.3 53.7-38.3 22-.5z"/><circle r="1" fill="#faf9d6" fill-opacity=".5" transform="matrix(-5.0478 -11.36862 8.47826 -3.76445 208.3 154)"/><circle r="1" fill="#400000" fill-opacity=".4" transform="matrix(10.3973 -53.55144 1.4377 .27914 250 37.5)"/><circle r="1" fill="#bd945f" fill-opacity=".5" transform="rotate(-82.5 162.9 -67.7) scale(29.14731 3.7981)"/><ellipse cx="53" cy="40" fill="#a0a0ab" fill-opacity=".6" rx="6" ry="7"/><path fill="#4c261d" fill-opacity=".6" d="M105.5 32.4l.5-30.3L85.7-16l15.1 34.9z"/><path fill="#7e7061" fill-opacity=".8" d="M218 154h31v16h-31z"/><circle cx="150" cy="101" r="4" fill="#e4cfc1" fill-opacity=".5"/><ellipse cx="100" cy="53" fill="#cdbc9a" fill-opacity=".6" rx="6" ry="16"/><path fill="#918f91" fill-opacity=".6" d="M94.7 1.4L83.3 21.9l-7.1 54.4.1-61.8z"/><circle r="1" fill="#a0754e" fill-opacity=".5" transform="matrix(5.0823 .03997 -.25774 32.77227 214.8 69.2)"/><path fill="#e4f4ff" fill-opacity=".7" d="M156 20L115 1l-10 24z"/><path fill="#934380" fill-opacity=".3" d="M98.4 154.4L45.7 91.7l3.4-1.1 58.8 14.5z"/><path fill="#fffdd8" fill-opacity=".5" d="M237.4 157.3l-16-17.9 5.2-4.7 16 17.9z"/><path fill="#00124d" fill-opacity=".6" d="M133.3 103.5l-1.4-3.8 20.8-7.2 1.4 3.8z"/><path fill="#fec593" fill-opacity=".2" d="M63 133.4l-8 24.4 19.3 6.7-38 20.5z"/><path fill="#998d84" fill-opacity=".9" d="M257 183.9l4.3-167.6-9.4 35.7-15.7 89.3z"/><path fill="#4c1d14" fill-opacity=".6" d="M237.5 52.4l7.8-57.5-43.2 147.8 6.8-2.1z"/><path fill="#bccdda" fill-opacity=".5" d="M157 37h17v31h-17z"/><path fill="#c97c57" fill-opacity=".5" d="M114 88l31 5 2-23z"/><path fill="#101519" fill-opacity=".7" d="M121.2 185h-51l3.6-58.1L87.3 141z"/></g></svg>