<svg xmlns="http://www.w3.org/2000/svg" viewBox="0 0 300 199"><defs/><path fill="#474747" d="M0 0h300v199H0z"/><g transform="translate(.6 .6) scale(1.17188)"><circle cx="100" cy="86" r="216" fill="#fff" fill-opacity=".5"/><path fill="#090909" fill-opacity=".8" d="M101 185l59-146-93-4z"/><circle r="1" fill="#fcfcfc" fill-opacity=".9" transform="matrix(-43.14955 14.85758 -32.28786 -93.77076 28.8 113.6)"/><path fill="#fff" fill-opacity=".6" d="M125.9 165.1l1.2-72 99 1.8-1.2 72z"/><circle r="1" fill-opacity=".7" transform="rotate(145.9 63.3 54.6) scale(15.23037 36.6776)"/><path fill="#fdfdfd" fill-opacity=".6" d="M256 185V80l-91-6z"/><ellipse cx="103" cy="135" fill="#181818" fill-opacity=".9" rx="20" ry="56"/><circle cx="107" cy="60" r="43" fill="#1c1c1c" fill-opacity=".6"/><circle r="1" fill="#212121" transform="matrix(-8.11141 6.90335 -7.18844 -8.44639 67.5 71)"/><circle r="1" fill="#fff" fill-opacity=".6" transform="matrix(4.7989 -34.28533 14.77475 2.06801 68.8 116.3)"/><circle r="1" fill="#a6a6a6" fill-opacity=".6" transform="matrix(14.02391 -6.42065 3.78664 8.27075 111 38.1)"/><path fill="#f0f0f0" d="M66 53.3L40.9 86.8 5.2 55.1l52-29.5z"/><path fill="#c7c7c7" fill-opacity=".7" d="M154 60.3L176.2-16l-30.8 55.9 17.8 15.8z"/><path fill-opacity=".4" d="M109 51h60v39h-60z"/><circle cx="185" cy="156" r="63" fill="#dbdbdb"/><path fill="#373737" fill-opacity=".4" d="M268.6 87l-75.3-20.2 2-7.8 75.4 20.2z"/><path fill="#fff" fill-opacity=".6" d="M171 57l-5 25 90 24z"/><path fill="#656565" fill-opacity=".4" d="M74 14L-16 4l122 49z"/><path fill="#060606" fill-opacity=".8" d="M112.3 76.9l19.1-40.3 47.1 58.5-6.4 2.4z"/><path fill="#fcfcfc" fill-opacity=".5" d="M142.5 86.9L132.3 185l-8.8-59.1 11.3-41.2z"/><circle r="1" fill="#959595" fill-opacity=".5" transform="matrix(3.06058 -4.77162 55.26064 35.4449 245.4 130.7)"/><path fill-opacity=".3" d="M59 161l78 17-81 7z"/><path fill="#080808" fill-opacity=".3" d="M152.9 25.2l-75.7 6 42.5-17.7-18.8-6.1z"/><circle r="1" fill="#151515" fill-opacity=".8" transform="matrix(5.12551 -25.01828 20.08423 4.11467 112.7 92.8)"/><path fill="#fff" fill-opacity=".6" d="M96 16l13 1-4 8z"/><circle r="1" fill="#aaa" fill-opacity=".5" transform="matrix(38.8397 37.47375 -5.07298 5.25789 208 147.5)"/><path fill="#9c9c9c" d="M-16-9.7l91.8 36.6L64 48.8l39.1-42z"/><path fill="#fff" fill-opacity=".5" d="M243 15h9v23h-9z"/><circle r="1" fill="#f9f9f9" fill-opacity=".5" transform="rotate(-164.6 95.7 -6.7) scale(5.89556 13.73612)"/><path fill="#fff" fill-opacity=".5" d="M249 75l22 44-58-32z"/><circle r="1" fill="#1d1d1d" fill-opacity=".4" transform="rotate(-100.9 126.7 -73.9) scale(44.4628 1)"/><path fill="#090909" fill-opacity=".3" d="M241 42.1l-4.7 12.4L271 34.9l-4.2-5.8z"/><path fill-opacity=".3" d="M202.8 64.3l9.6-29.5 2.8 1-9.6 29.4z"/><path fill="#fefefe" fill-opacity=".6" d="M180.4 71.7l-8.2 39.2 54.8 26L162.7 77z"/><path fill-opacity=".4" d="M160 85.8l-25-14.5 11-19 25 14.4z"/><path fill="#c3c3c3" fill-opacity=".6" d="M103.5 52l-8-1.3 3-16.8 8 1.4z"/><path fill-opacity=".5" d="M112.9 32.8L88.4 18.1 76.8 49.5l17.3-21.2z"/><circle cx="42" cy="120" r="43" fill="#fefefe" fill-opacity=".5"/><circle r="1" fill="#fbfbfb" fill-opacity=".5" transform="matrix(-26.10484 38.86634 -13.68817 -9.19375 137.6 169)"/><path fill="#7a7a7a" fill-opacity=".5" d="M1 164h16v6H1z"/><path fill="#8d8d8d" fill-opacity=".8" d="M184.1-4.1l-30.8 52.8 1.4 13.3L177 34.6z"/><path fill="#303030" fill-opacity=".3" d="M220.1.9l17.8 10.8-15.5 3.6-11.5 19.6z"/><path fill="#575757" fill-opacity=".5" d="M25 11h12v21H25z"/><circle r="1" fill="#e5e5e5" fill-opacity=".5" transform="matrix(-6.24327 19.68127 -3.41309 -1.0827 232 25.8)"/><path fill="#5c5c5c" fill-opacity=".3" d="M235.7 28.3l4.3 28.1-83.7 2 104.6 19.3z"/><path fill="#030303" fill-opacity=".7" d="M108 41.6l-6.2 16.9 41-30.5-10.6 54z"/><path fill="#2f2f2f" fill-opacity=".4" d="M74.3 24.9l-2.8 17.8-9.8-1.6 2.8-17.8z"/><path fill="#fbfbfb" fill-opacity=".9" d="M241.8 151.1l29.2 12-23.1-22.9-58-30.7z"/><path fill="#e7e7e7" fill-opacity=".3" d="M66.2 37.7L88.8 40 73.3 21.6l25.5-7z"/><path fill="#fff" fill-opacity=".6" d="M39.1 20.6l2.9 1-7.1 21.8-2.9-1z"/><path fill="#c6c6c6" d="M142.3 91.6l17.5 1.1-19 34.9-2.9-40.5z"/><path fill="#505050" fill-opacity=".5" d="M160.4-12.7l-14.2 35.3-4.6-2 14.2-35.2z"/><path fill="#ebebeb" fill-opacity=".6" d="M46.2 23l14.6 35.5-.7-42.5-38.5 67.6z"/><path fill="#f9f9f9" fill-opacity=".6" d="M4.7 91.4l73.8-10.5 4 49-2.6 45.4z"/><path fill="#1e1e1e" fill-opacity=".5" d="M83 128h41v34H83z"/><path fill="#bababa" fill-opacity=".9" d="M218.7 108.1l-32.5-3.1 75.1 42.4 9.7-16.3z"/><path fill="#fafafa" fill-opacity=".4" d="M203.1-13l-3.2 31.3 14.5-5.6-.7-28.7z"/><path fill="#060606" fill-opacity=".3" d="M149.4 93l31-2-27.7-15.6-13.6 34.2z"/><path fill="#272727" fill-opacity=".4" d="M123.2 28.6l-2.4-45 4-.2 2.4 45z"/><path fill="#f9f9f9" fill-opacity=".4" d="M108.5-16l35.6 28.9 6.3-21.7L89.9 7.4z"/><ellipse cx="165" cy="42" fill="#fff" fill-opacity=".6" rx="2" ry="7"/><path fill="#a2a2a2" fill-opacity=".5" d="M251.7 185l19.3-10-72.2-49.8 59.4 34.4z"/><circle r="1" fill="#e9e9e9" fill-opacity=".5" transform="matrix(-7.17663 20.88243 -4.1295 -1.41918 160.3 23.3)"/><path fill="#fefefe" fill-opacity=".3" d="M212 42.8L240.4-16h-13.9l-6.7 35.4z"/><path fill="#181818" fill-opacity=".6" d="M124.7 132.3L68.4 62.5l13.4 31.9 7.2-71z"/></g></svg>