<svg xmlns="http://www.w3.org/2000/svg" viewBox="0 0 300 199"><defs/><path fill="#4c2b25" d="M0 0h300v199H0z"/><g transform="translate(.6 .6) scale(1.17188)"><circle r="1" fill="#88999d" fill-opacity=".5" transform="matrix(20.38916 142.58564 -44.78999 6.40478 199.3 80.9)"/><circle r="1" fill="#faffff" fill-opacity=".5" transform="rotate(34.4 9.6 81.5) scale(74.19464 5.43289)"/><circle r="1" fill="#000a0d" fill-opacity=".6" transform="matrix(-32.03042 -10.07548 23.631 -75.124 133 113.3)"/><path fill="#59686d" fill-opacity=".5" d="M50 185L-13 5l120 108z"/><path fill="#fff" fill-opacity=".6" d="M184 46l23-39 46-23z"/><path fill="#fff" fill-opacity=".5" d="M152-16l15 21-17 56z"/><circle r="1" fill-opacity=".5" transform="matrix(-36.09023 43.1546 -12.99323 -10.86625 228.9 32.5)"/><path fill="#bdd2e1" fill-opacity=".7" d="M126.3 30.2l-9.6 1.5-14.9-20.3L94.6-16z"/><path fill="#adb7c0" fill-opacity=".6" d="M230.9 65.3l-16.3-24 11.7 77.5 44.7 40.8z"/><path fill="#f5ded1" fill-opacity=".5" d="M175 75h21v34h-21z"/><path fill="#ecfafd" fill-opacity=".7" d="M-41.6 17.8l88 23.5-.8 3-88-23.6z"/><path fill="#000712" fill-opacity=".5" d="M229-16L175-4l-19 75z"/><circle r="1" fill="#e0f5ff" fill-opacity=".2" transform="matrix(1.66227 -32.71404 20.00443 1.01647 179.8 153.7)"/><ellipse cx="2" cy="141" fill="#000005" fill-opacity=".6" rx="12" ry="94"/><path fill="#000002" fill-opacity=".9" d="M147 63l-43-79 46 1z"/><circle r="1" fill="#000913" fill-opacity=".7" transform="matrix(-4.54288 11.70475 -41.27012 -16.01786 21.1 17.2)"/><path fill="#c8afa0" fill-opacity=".6" d="M79.7 74.7l-.4 27-21-.4.4-27z"/><path fill="#fff" fill-opacity=".5" d="M19-2l10-14 46 46z"/><path fill="#0e0c0b" d="M270.6 65.6l-5.1 53.9-32.8-50-1.9-2.6z"/><circle r="1" fill-opacity=".4" transform="matrix(21.824 -15.7768 30.65351 42.40292 121.8 124.8)"/><path fill="#434145" fill-opacity=".8" d="M271 159.7l-44.5 21-37.4-69.8 81.7 51.3z"/><path fill="#d3f0ff" fill-opacity=".2" d="M1.3 144.2l53.2-118-10.3 42 6 20.3z"/><circle r="1" fill="#0f0300" fill-opacity=".7" transform="rotate(-1 3702 -2979.7) scale(6.55368 19.14419)"/><circle r="1" fill="#cfe1e6" fill-opacity=".5" transform="rotate(158 116.6 45.8) scale(28.28876 1.29979)"/><path fill="#3b2925" fill-opacity=".8" d="M73.3 108.3l-26.4 31-14.4 31.5 3.4-78z"/><path fill="#020408" fill-opacity=".8" d="M-16 41V30.2l46.7 11.5L61.4 56z"/><path fill="#c3b9b6" fill-opacity=".7" d="M199.5 103.2l6-19.7 24.1-14.7-3 11z"/><circle r="1" fill="#072635" fill-opacity=".5" transform="rotate(36.8 4 164) scale(61.46028 9.37615)"/><path fill="#5e4739" d="M202.2 72.6l-59.5 7.8L161 65l41.7-12.5z"/><path fill="#0e1216" fill-opacity=".6" d="M-16 79.7L24.3 60l10 9.1-23.8 40.4z"/><path fill-opacity=".5" d="M219.9 75.8l-13.6 3.6-6.2-23.2 13.6-3.6z"/><path fill="#672000" fill-opacity=".3" d="M221.4 96.5l-71.9 16.8 68.4 21.1 11.9-33.2z"/><path fill="#fff" fill-opacity=".5" d="M244 53l21-5v6z"/><path fill="#a58e88" fill-opacity=".6" d="M195.8 39.3l-53.3-2.1 46-5.9-2.5 52.8z"/><path fill="#fff" fill-opacity=".5" d="M222-7l-26 42 43-39z"/><path fill="#a1aeb6" fill-opacity=".6" d="M97.2 41.2L116 58.3l7.3-6.7 5.3 10.6z"/><path fill="#685650" d="M86.4 51.8l-23.4 8-7.1-23.2-19.7 3.5z"/><ellipse cx="73" cy="152" fill="#67809e" fill-opacity=".2" rx="23" ry="34"/><path fill="#00060c" fill-opacity=".7" d="M201.8 31.8l52-41L271 .6l-36.5 28.1z"/><circle r="1" fill="#f1fcff" fill-opacity=".5" transform="matrix(-33.32235 -20.47582 1.49823 -2.43822 57.2 17.3)"/><path fill="#cca28d" fill-opacity=".3" d="M219.8 126.5l-70.9-27.6 2.6-8.3 21.1 2.1z"/><path fill="#fff" fill-opacity=".4" d="M45.7 56.2L-18 42.7l.2-1L46 55.4z"/><path fill="#6b7681" fill-opacity=".5" d="M223 145l26-49 22 56z"/><path fill="#a19b8c" fill-opacity=".8" d="M166.3 71.8l26.5 24.1-9.7-7.7L152.5 71z"/><path fill="#fbffff" fill-opacity=".6" d="M149-17.2l7-.5 3 44.9-7 .5z"/><path fill="#13242f" fill-opacity=".6" d="M122 60L30 34l34-10z"/><path fill="#011116" fill-opacity=".5" d="M233.3 50.1L271 32.8l-40.3 31.6-.3-53.5z"/><path fill="#ecfdff" fill-opacity=".7" d="M249 39l20-14 2 17z"/><ellipse cx="66" cy="40" fill="#7b7f88" fill-opacity=".4" rx="26" ry="4"/><path fill="#35485d" fill-opacity=".4" d="M7 58l60 127H19z"/><path fill="#aeb1b6" fill-opacity=".8" d="M214.1 49.8l27.1-3.6-19.1 4.3 19.3 67.2z"/><circle r="1" fill="#050908" fill-opacity=".6" transform="matrix(-9.46105 -2.49018 2.7103 -10.2974 82.8 65)"/><path fill="#153b56" fill-opacity=".3" d="M37.2 7.1l69.6 14.2L92.4-16l-42.8 5.2z"/><path fill="#ccb1a6" fill-opacity=".6" d="M184.4 46.1l-15 14.9 24.3-31.1 2.9 33.7z"/><path fill="#46555b" fill-opacity=".5" d="M91 57h48v12H91z"/><circle r="1" fill="#d2d8dd" fill-opacity=".6" transform="rotate(97.4 -9.5 43) scale(1 16.95359)"/><path fill="#989ca3" fill-opacity=".5" d="M230 5h1l-3 42h-1z"/><circle r="1" fill="#00050e" fill-opacity=".5" transform="matrix(-48.59945 -88.2688 11.51259 -6.33866 14.1 162)"/><path fill="#081018" fill-opacity=".5" d="M49 42L-1 23l14-37z"/><circle r="1" fill="#140a06" fill-opacity=".6" transform="rotate(-13.9 498 -271.1) scale(42.56608 3.95145)"/><path fill="#bbb3b2" fill-opacity=".5" d="M51 83L36 68l16 28z"/><path fill="#100000" fill-opacity=".4" d="M219.1 48.2L271 26.6 201.6 44l-.3 47.8z"/><path fill="#200f05" fill-opacity=".6" d="M223.7 129.3l-16.1-6.7-73-24.2 82 35.3z"/><path fill="#fff" fill-opacity=".5" d="M180 55.8l-8.4 3-1.7-4.6 8.5-3z"/><path fill="#ffe2de" fill-opacity=".2" d="M222.4 56.5l-19.2-33.6 2.4 13.1-9.2-3.9z"/></g></svg>