<svg xmlns="http://www.w3.org/2000/svg" viewBox="0 0 300 199"><defs/><path fill="#625037" d="M0 0h300v199H0z"/><g transform="translate(.6 .6) scale(1.17188)"><circle r="1" fill="#c0c0bd" fill-opacity=".7" transform="matrix(23.63176 102.62411 -73.77724 16.98905 56.3 50.5)"/><circle r="1" fill="#e0ecff" fill-opacity=".6" transform="matrix(-20.88014 17.64508 -64.34308 -76.13976 204.1 39.1)"/><ellipse cx="170" cy="93" fill="#00000d" fill-opacity=".6" rx="37" ry="40"/><ellipse cx="127" cy="130" fill="#d0ccc6" fill-opacity=".8" rx="18" ry="15"/><ellipse cx="220" cy="92" fill="#d4d5d7" fill-opacity=".9" rx="13" ry="22"/><circle r="1" fill="#d8d8d6" fill-opacity=".9" transform="matrix(-1.07697 -14.66557 131.0709 -9.62525 80.3 0)"/><circle r="1" fill="#737166" fill-opacity=".9" transform="matrix(28.64008 -51.0466 21.869 12.26976 8.7 124.7)"/><circle r="1" fill="#dcdfe4" fill-opacity=".5" transform="matrix(12.86408 -20.667 6.7738 4.21631 191.7 54.4)"/><circle cx="115" cy="58" r="14" fill="#fffcf4" fill-opacity=".7"/><circle r="1" fill="#000a1a" fill-opacity=".5" transform="matrix(-6.3626 20.57693 -83.89515 -25.94129 222.2 166.9)"/><circle r="1" fill="#626b71" fill-opacity=".7" transform="matrix(49.56438 -25.47263 8.7563 17.03793 231.6 121.7)"/><path fill="#716c60" d="M211.2 32.7L249.7-16l-18.3 50.9-19-1.2z"/><ellipse cx="95" cy="160" fill="#504e4b" fill-opacity=".9" rx="59" ry="19"/><circle r="1" fill="#50402e" fill-opacity=".6" transform="rotate(174.1 10.5 17.5) scale(44.78689 6.94343)"/><path fill-opacity=".7" d="M153 38h25v76h-25z"/><path fill="#dedddb" fill-opacity=".7" d="M93.8 124.1l-64.4 16.8-3.6 8 129.3-19.6z"/><path fill="#0d1211" fill-opacity=".5" d="M238 109h18v56h-18z"/><circle r="1" fill="#2f0500" fill-opacity=".5" transform="matrix(-9.89544 -.74404 .94884 -12.61916 129 38)"/><path fill="#bfc0c3" fill-opacity=".8" d="M186.7-13.3l40.2 66.9 37.6 37L152 28.9z"/><path fill="#3c403e" fill-opacity=".4" d="M121 68h17v58h-17z"/><path fill="#fff" fill-opacity=".4" d="M74.7 83.3l-10.4 27.1-15-5.7 10.4-27.1z"/><path fill="#928c83" fill-opacity=".8" d="M260 8l-8-24-86 13z"/><path fill="#fbf7f5" fill-opacity=".4" d="M63.9 10.3L148-16l-12.6 38.5-14.5-11.6z"/><path fill="#cfcfd0" fill-opacity=".5" d="M200 58l62-16-46 79z"/><path fill="#674323" fill-opacity=".5" d="M91 73h36v10H91z"/><path fill="#767c81" fill-opacity=".5" d="M265 130l-79-25 20 34z"/><path fill="#f9eee5" fill-opacity=".6" d="M102.3 83.9L94.2 90l18.7 5.9 5.3-9.5z"/><path fill="#060c10" fill-opacity=".5" d="M256 31h-47l61-29z"/><path fill="#d8d9db" fill-opacity=".6" d="M180 42v34l14-17z"/><path fill="#f0e8e2" fill-opacity=".6" d="M110.2 51.5l34-3.1L96.5 74l-1.3-13.4z"/><circle cx="194" cy="75" r="11" fill="#09020b" fill-opacity=".5"/><path fill="#5a4c46" d="M126 105.9L153.6 55l3.8-43.6-7.7-2.3z"/><path fill="#2b231b" fill-opacity=".3" d="M65 70l-81 47 27 12z"/><path fill-opacity=".6" d="M136.3 50.7l-4.5-10 11.9-5.4 4.5 10z"/><path fill="#c8a998" fill-opacity=".5" d="M236.4 34.1l-10.5-8.4L246.6-16l-15.3 48.8z"/><circle r="1" fill="#9b9085" fill-opacity=".5" transform="rotate(-55.7 185 -69.4) scale(9.04731 18.33638)"/><path fill="#f2e4dd" fill-opacity=".4" d="M126.2 129.9l-23.8-8 49.5 10.3-27.6 17.3z"/><circle r="1" fill="#4f4c46" fill-opacity=".7" transform="rotate(27.9 -272.7 297.1) scale(31.34572 23.73099)"/><path fill="#868271" fill-opacity=".5" d="M229 118l3-33 39 6z"/><path fill-opacity=".5" d="M133 106l58-4-29-61z"/><path fill="#585956" fill-opacity=".8" d="M21 185l88-46-122 15z"/><path fill="#1f1b0e" fill-opacity=".6" d="M266.2 152.8l1.9 17.9-138.3 14.5-1.9-17.9z"/><path fill="#1d1615" fill-opacity=".7" d="M146.5 137.6l47.6-24.8-7.4 21-38.3 23z"/><circle r="1" fill="#8b887c" fill-opacity=".5" transform="matrix(7.57296 13.72633 -36.00913 19.86662 32.9 80.3)"/><path fill="#bdc0bf" fill-opacity=".2" d="M41.2 98.6L-.7 149.4l45.8-.3 56.1-70.9z"/><path fill="#9c8a77" fill-opacity=".5" d="M62 13h61v32H62z"/><path fill="#fffdfe" fill-opacity=".5" d="M208.7 88.6l2.5 23.3 20.9-18.8-1.2 14.7z"/><path fill="#124561" fill-opacity=".2" d="M75.2 8.3L87.1-3.1 111-16 32.8 1.4z"/><path fill="#00120c" fill-opacity=".4" d="M212.1 32.8l13.4-3.6-1.9-18.5 13.1-2.9z"/><path fill="#293e3c" fill-opacity=".6" d="M210 4h22v8h-22z"/><path fill="#848277" fill-opacity=".6" d="M120.6 104.2l30.4 22.7-54.1-8.1-47.6 3.4z"/><path fill="#ffe1ce" fill-opacity=".3" d="M152.3 165.2l1.5-3.8-11.9-7.3-5.3.2z"/><path fill="#12160f" fill-opacity=".5" d="M271 158.6l-22.2-45.9 22.2-9.5-35.1 11.2z"/><path fill="#9b7165" fill-opacity=".5" d="M130.6 29.5l7.7-12.9 23.1 14-7.7 12.8z"/><ellipse cx="131" cy="57" fill="#ffe0cb" fill-opacity=".3" rx="5" ry="10"/><path fill="#4a3d32" fill-opacity=".6" d="M199 107l-42 25-14-12z"/><path fill-opacity=".4" d="M243 48l9-8-11-1z"/><circle r="1" fill="#7d8082" fill-opacity=".4" transform="rotate(148.3 89.1 91.2) scale(40.69333 8.16803)"/><ellipse cx="170" cy="71" fill="#080306" fill-opacity=".5" rx="9" ry="33"/><path fill="#dededd" fill-opacity=".7" d="M92.7 135.7l-63.2 14.1 36-13.5 27-12z"/><path fill="#f3f0f0" fill-opacity=".7" d="M71 82.7l-13.3 18.5h-3.5l6.8-21z"/><path fill="#15101c" fill-opacity=".6" d="M203 92h6v17h-6z"/><circle r="1" fill="#bba69a" fill-opacity=".5" transform="matrix(5.17263 -3.78569 2.32551 3.1775 255 34.8)"/><circle r="1" fill="#4e5558" fill-opacity=".4" transform="matrix(28.75352 -13.65318 5.99268 12.62056 215.8 143.4)"/><path fill="#070506" fill-opacity=".5" d="M195 88l-64 22 8-42z"/></g></svg>