<svg xmlns="http://www.w3.org/2000/svg" viewBox="0 0 299 449"><defs/><path fill="#45332d" d="M0 0h299v449H0z"/><g transform="translate(.9 .9) scale(1.7539)"><circle r="1" fill="#e4dce0" fill-opacity=".7" transform="rotate(-6.5 1953 -531.9) scale(47.04327 113.25653)"/><ellipse cx="117" cy="139" fill="#7f686f" rx="17" ry="91"/><circle cx="47" r="74" fill="#090600" fill-opacity=".7"/><circle cx="65" cy="250" r="46" fill="#d9e8f5" fill-opacity=".6"/><path fill="#000423" fill-opacity=".5" d="M76 159h95v35H76z"/><circle r="1" fill="#001137" fill-opacity=".7" transform="matrix(14.7371 -169.36002 37.37112 3.2519 170 128.1)"/><circle r="1" fill="#080c13" fill-opacity=".6" transform="rotate(-126.7 64.3 103.4) scale(12.42132 33.2709)"/><circle r="1" fill="#e5efff" fill-opacity=".6" transform="matrix(-6.26641 30.89976 -6.6632 -1.35128 128.6 119.5)"/><circle r="1" fill="#ecb39a" fill-opacity=".5" transform="rotate(25.9 -198.4 184.3) scale(10.74753 57.90927)"/><path fill="#c9cedb" fill-opacity=".9" d="M42.1 223.7l51.3 44.9 31.7-85.2 13.1 30.4z"/><circle r="1" fill="#141009" fill-opacity=".8" transform="matrix(-92.2446 -60.64481 15.44374 -23.4909 140.8 37)"/><path fill="#050208" fill-opacity=".6" d="M67.7 94.9l48.6-1.7-11.7 42.5-31.8-22.5z"/><path fill="#f5d3c4" fill-opacity=".3" d="M38.1 104.8l6.6 48.1 83.4 24 3.5-25z"/><ellipse cx="108" cy="75" fill="#bb7e61" fill-opacity=".6" rx="14" ry="23"/><ellipse cx="10" cy="111" fill="#010" fill-opacity=".3" rx="21" ry="102"/><path fill="#3b1f0f" fill-opacity=".5" d="M84 182l48-35-22 58z"/><path fill="#cbd5df" fill-opacity=".6" d="M34.4 213.1L138.5 271l-45.2-77.7-16.3-.9z"/><path fill="#371509" fill-opacity=".6" d="M53.1 180.5l-7.6-.1 6.1-30.3 1.7 30.2z"/><path fill="#caab7f" fill-opacity=".5" d="M171-16l6.1 30.9-22.7-.6 28.1-28.4z"/><circle r="1" fill="#001757" fill-opacity=".5" transform="matrix(10.81275 19.18955 -15.2016 8.56566 135 236.3)"/><path fill="#fae7fd" fill-opacity=".4" d="M103 172.1l-12.4-26.3 35.2 5.3 12.3-58.5z"/><path fill="#371500" fill-opacity=".3" d="M98.1 184.9l-8-43.2-18.7 14.9 4.1 12.3z"/><circle r="1" fill="#292319" fill-opacity=".6" transform="rotate(123 1.8 48.4) scale(53.91381 23.92446)"/><path fill="#57372b" fill-opacity=".5" d="M100.7 188.1L64 196.3l-37.7 17.8-4.6-17.4z"/><path fill="#052262" fill-opacity=".4" d="M172.7 105.4l-10 52-35.4-6.8 10-52z"/><ellipse cx="81" cy="74" fill="#a97869" fill-opacity=".7" rx="8" ry="22"/><path fill="#ebf9ff" fill-opacity=".4" d="M58 191l27-56-22-22z"/><ellipse cx="115" cy="124" fill="#8f0007" fill-opacity=".6" rx="4" ry="17"/><path fill="#869a57" fill-opacity=".4" d="M-.3 110.7l-15.7 7.1 26.6 9.1 27.1-18.2z"/><circle r="1" fill="#13151c" fill-opacity=".6" transform="matrix(-28.08664 37.4921 -10.60907 -7.94762 3.5 238.8)"/><path fill="#8f9dae" fill-opacity=".6" d="M41.3 200.9l9.8 5L10.7 285l-9.8-5z"/><ellipse cx="170" cy="87" fill="#0d0b00" fill-opacity=".6" rx="35" ry="21"/><path fill="#8d604f" fill-opacity=".6" d="M115.4 54l21 9-6.8 35.7-19.8 12.4z"/><path fill="#ecddde" fill-opacity=".4" d="M79.1 176.3l2.4 16.7-24.8-19.2-2.2-21.6z"/><path fill="#c99884" fill-opacity=".5" d="M70.5 127.6l-33.7-11.4L23 182.5l8.7 19.7z"/><path fill="#cfd6e9" fill-opacity=".8" d="M132.7 118.9l-14.4-11.4 16.8-13.7 2.6 2.8z"/><path fill="#dbcfc9" fill-opacity=".5" d="M82.5 160l-45-43.5 16.8-18.6 6.6 3.5z"/><path fill="#170d0d" fill-opacity=".5" d="M99.4 101.6l28.1 13.6-54.3-2.5 21.4-39.6z"/><path fill="#8699c1" fill-opacity=".6" d="M116 186l1 20 11-31z"/><path fill="#95adc6" fill-opacity=".4" d="M97.7 189.8l14.8 81.2 15.1-19.5-11.1-30z"/><path fill="#c49584" fill-opacity=".6" d="M80.9 81.3l52.7-12.1-63.8 6 11.3-21.9z"/><ellipse cx="111" cy="191" fill="#280000" fill-opacity=".6" rx="5" ry="19"/><circle cx="124" cy="222" r="8" fill="#000017" fill-opacity=".5"/><path fill="#7f6555" fill-opacity=".5" d="M119.3 170.1l31.4-25.2-5.6-.9-59.2 22z"/><path fill="#5d4747" fill-opacity=".5" d="M54 47.9l7.7-9.2L80 54l-7.7 9.2z"/><path fill="#d9b093" fill-opacity=".5" d="M112 53l-14 3 20 24z"/><path fill="#1f2b1a" fill-opacity=".5" d="M67.9 155.3l44.8 22.7-28 4.1-5.5-12.5z"/><path fill="#c49a94" fill-opacity=".6" d="M81 162l21 8 12-9z"/><path fill="#150e09" fill-opacity=".5" d="M91.1 63.1l-39.6-53L104 67.6l-28.4 5.1z"/><path fill="#0a1336" fill-opacity=".7" d="M186 202.3l-19.1 61.5L128 158.5l2.9-19z"/><path fill="#f1afd9" fill-opacity=".5" d="M123 158h6v11h-6z"/><path fill="#e5dcf7" fill-opacity=".5" d="M129 146l-11 4 2-32z"/><path fill="#020518" fill-opacity=".5" d="M94 94h16v34H94z"/><path fill="#f5cfd4" fill-opacity=".5" d="M102 144h25v10h-25z"/><path fill="#725f47" fill-opacity=".5" d="M75 145h22v5H75z"/><path fill="#f0cea8" fill-opacity=".5" d="M-16 118l28 1-18-11z"/><circle r="1" fill="#112a73" fill-opacity=".5" transform="rotate(9.5 -656.3 887.7) scale(5.59082 21.59558)"/><ellipse cx="19" cy="28" fill="#080100" fill-opacity=".4" rx="35" ry="40"/><path fill="#dca28b" fill-opacity=".5" d="M58 191l-31-32 8 39z"/><circle r="1" fill="#d6d8de" fill-opacity=".8" transform="rotate(155 11.6 114.4) scale(19.4752 16.7192)"/><path fill="#ab6e59" fill-opacity=".4" d="M76.9 109.8L57.2 64.2l9.6 56.6 17.6.7z"/><path fill="#1b1206" fill-opacity=".5" d="M34.3 120.6l19-20.1L59.9 62 47.1 42.7z"/><circle r="1" fill="#131e0d" fill-opacity=".4" transform="rotate(-68.9 116.3 65) scale(30.78865 16.26134)"/><path fill="#e9f6fe" fill-opacity=".3" d="M78 118.9l19.8 14.9-3.9 4.9-38 12.6z"/><ellipse cx="140" cy="183" fill="#0c1643" fill-opacity=".5" rx="14" ry="25"/></g></svg>