<svg xmlns="http://www.w3.org/2000/svg" viewBox="0 0 300 199"><defs/><path fill="#3f3f3f" d="M0 0h300v199H0z"/><g transform="translate(.6 .6) scale(1.17188)"><circle r="1" fill="#f0f0f0" fill-opacity=".6" transform="matrix(32.1353 131.82426 -27.41651 6.68343 139 154.7)"/><circle r="1" fill="gray" fill-opacity=".7" transform="matrix(42.35631 7.26712 -6.4889 37.82044 105.8 57.6)"/><path fill="#f3f3f3" fill-opacity=".5" d="M203 115.1l-13.2-9L214.9 69l13.3 9z"/><ellipse cx="205" cy="152" fill="#010101" fill-opacity=".8" rx="34" ry="33"/><circle r="1" fill-opacity=".7" transform="rotate(75.4 -91.9 71) scale(109.62562 38.83274)"/><circle cx="217" r="76" fill="#0f0f0f" fill-opacity=".6"/><path fill-opacity=".5" d="M119 76l-32 63-33-53z"/><ellipse cx="139" cy="168" fill="#ececec" fill-opacity=".6" rx="31" ry="53"/><circle r="1" fill="#060606" fill-opacity=".6" transform="matrix(29.35508 50.09963 -17.69518 10.36821 33.1 18.8)"/><path fill="#f6f6f6" fill-opacity=".5" d="M233 183l9-38 25 10z"/><path fill="#f1f1f1" fill-opacity=".5" d="M128 131l3-73-29 72z"/><circle r="1" fill="#1e1e1e" fill-opacity=".4" transform="rotate(-44.8 166 -153) scale(35.28157 12.14968)"/><path fill="#8a8a8a" fill-opacity=".5" d="M70.4 112.5l-12.5 10-28.3-35 12.5-10z"/><path fill="#969696" fill-opacity=".5" d="M66 25h83v41H66z"/><path fill="#f5f5f5" fill-opacity=".2" d="M198.9 49.6l3.2 75.1-32.3 7 52.4-14.1z"/><path fill-opacity=".5" d="M61.1 111.7l49.5 73.3-15.7-81.9L52.5 185z"/><path fill="#5b5b5b" fill-opacity=".7" d="M217.4 107.4l13.9-74.5 8.6 13.9-4.5 49.6z"/><path fill="#a5a5a5" fill-opacity=".4" d="M4 20l21 48 10-11z"/><path fill="#9c9c9c" fill-opacity=".5" d="M78 140l15 5-11 21z"/><path fill="#070707" fill-opacity=".4" d="M240 0h16v145h-16z"/><path fill="gray" fill-opacity=".6" d="M230.4 125.4l8.2-21.5-26.5-23.7 43.6 42.9z"/><path fill="#1e1e1e" fill-opacity=".6" d="M15 8h132v13H15z"/><ellipse cx="189" cy="64" fill="#363636" fill-opacity=".6" rx="42" ry="20"/><path fill="#171717" fill-opacity=".9" d="M72 86.3L38.2 58.9l52.4 69.4 19.8-33z"/><ellipse cx="81" cy="2" fill="#606060" fill-opacity=".9" rx="43" ry="4"/><path fill-opacity=".7" d="M81.6 171.1l8.2-19.3 16.6 7-8.2 19.4z"/><path fill="#737373" fill-opacity=".8" d="M163 132.4l6.1-28.9-43.1 16.7 29.8-4.3z"/><ellipse cx="176" cy="109" fill="#131313" fill-opacity=".5" rx="7" ry="31"/><circle r="1" fill="#d0d0d0" fill-opacity=".5" transform="rotate(27.7 -142.4 438.6) scale(1 12.95056)"/><circle r="1" fill="#959595" fill-opacity=".6" transform="matrix(24.50173 -1.32697 1.17533 21.70179 109.2 61.5)"/><path fill="#0e0e0e" fill-opacity=".4" d="M189-16L131 91 247-2z"/><path fill="#d1d1d1" fill-opacity=".4" d="M179 98l50-26-1 17z"/><circle r="1" fill="#090909" fill-opacity=".4" transform="rotate(114.4 -44.1 88.4) scale(53.89916 25.50322)"/><path fill="#4f4f4f" fill-opacity=".5" d="M207.1 107l2.3 7.4 12.4-17.3 5.1-22.5z"/><path fill="#f3f3f3" fill-opacity=".5" d="M130 72l-23 30 4 18z"/><ellipse cx="105" cy="125" fill="#bbb" fill-opacity=".5" rx="5" ry="20"/><path fill="#737373" fill-opacity=".5" d="M69 21h79v22H69z"/><ellipse cx="56" cy="44" fill="#171717" fill-opacity=".7" rx="10" ry="44"/><path fill="#272727" d="M150.8 95.7l-4.4-6.1 54.7-1.1-43.2 14.8z"/><path fill="#040404" fill-opacity=".7" d="M61.7 151.9l-9-4.2L68.3 114l9 4.2z"/><circle r="1" fill="#dbdbdb" fill-opacity=".5" transform="matrix(4.41116 -1.09219 12.23544 49.41676 155.2 134.1)"/><path fill="#cacaca" fill-opacity=".5" d="M200 82h9v37h-9z"/><path fill="#1d1d1d" fill-opacity=".5" d="M195 104l-4 24 11-23z"/><circle r="1" fill="#4b4b4b" fill-opacity=".5" transform="matrix(-19.11095 -11.59249 7.53472 -12.42146 187 61)"/><circle r="1" fill="#9b9b9b" fill-opacity=".5" transform="matrix(-9.25601 11.97637 -1.98873 -1.537 46 168)"/><path fill="#070707" fill-opacity=".5" d="M121.2 79l.8.5-13.2 17.6-.8-.6z"/><path fill="#494949" fill-opacity=".5" d="M153 103h8v15h-8z"/><path fill-opacity=".5" d="M93 77l4.8 22.5L91 101l-4.8-22.5z"/><path fill-opacity=".4" d="M82 17h67v5H82z"/><path fill="#575757" fill-opacity=".5" d="M132 74h25v14h-25z"/><path fill="#3c3c3c" fill-opacity=".9" d="M64.3 114l26.3-37.9L71.4 113l-26-40.6z"/><path fill="#979797" fill-opacity=".5" d="M242.1 65.3l-3.6 1.6-8.6-20.2 3.6-1.6z"/><path fill="#fff" fill-opacity=".2" d="M52.5 128.1l26.3-28.8-20.6 29.4-4.7 6.4z"/><circle r="1" fill="#1c1c1c" fill-opacity=".6" transform="rotate(165.6 -3.3 34.7) scale(8.7728 71.84053)"/><path fill="#8f8f8f" fill-opacity=".5" d="M66 65h21v16H66z"/><circle r="1" fill="#848484" fill-opacity=".4" transform="matrix(21.18504 95.55952 -1.6104 .35701 152.2 169)"/><path fill="#787878" fill-opacity=".5" d="M48 79l-3 37-16-41z"/><path fill="#202020" fill-opacity=".8" d="M183 158.2l-2.1-57.1 18.9-7.2-34.5 41.7z"/><circle r="1" fill="#161616" fill-opacity=".6" transform="matrix(7.91032 -1.07929 3.43457 25.17261 157 46.2)"/><path fill="#1d1d1d" d="M8.1 20.9l63.1 76.8L39.6-.7-16-2z"/><path fill="#d4d4d4" fill-opacity=".5" d="M183 121.6l4 1-2 7.8-4-1z"/><path fill="#c9c9c9" fill-opacity=".5" d="M214 119l3-11-9 7z"/><path fill="#6c6c6c" fill-opacity=".5" d="M100.1 142l.1-11.1 12.7 3.1-2.3 21.9z"/><path fill="#d6d6d6" fill-opacity=".4" d="M108 159h64v11h-64z"/><path fill="#0e0e0e" fill-opacity=".6" d="M236.2 120.7l34.8 25-56.7-29-51.1 68.3z"/></g></svg>