<svg xmlns="http://www.w3.org/2000/svg" viewBox="0 0 300 199"><defs/><path fill="#45332c" d="M0 0h300v199H0z"/><g transform="translate(.6 .6) scale(1.17188)"><circle r="1" fill="#fffffc" fill-opacity=".6" transform="matrix(103.148 5.92576 -11.40937 198.59954 170.9 85.2)"/><circle r="1" fill="#3c1f12" fill-opacity=".6" transform="matrix(-19.74073 -11.23756 21.8919 -38.45695 123.8 16.7)"/><circle r="1" fill="#030200" fill-opacity=".7" transform="matrix(-52.5064 10.20621 -17.99992 -92.60156 21 89)"/><circle r="1" fill="#4d180f" fill-opacity=".4" transform="matrix(6.1028 28.22653 -31.43111 6.79565 126 132.8)"/><circle cx="253" cy="97" r="104" fill="#e7ebe6" fill-opacity=".5"/><circle r="1" fill="#868380" fill-opacity=".6" transform="matrix(-6.7647 117.31207 -11.36958 -.65562 73.3 64.1)"/><path fill="#262111" fill-opacity=".6" d="M104 114l-4 28 55-47z"/><path fill="#cca1a8" fill-opacity=".9" d="M120.5 125.6l28.6 7.8-15.7 20.6-20.7-.1z"/><ellipse cx="185" cy="36" fill="#67675c" fill-opacity=".3" rx="10" ry="106"/><ellipse cx="79" cy="169" fill="#fff" fill-opacity=".7" rx="13" ry="20"/><path fill-opacity=".7" d="M108 0h32v12h-32z"/><circle r="1" fill="#090400" fill-opacity=".7" transform="matrix(-24.9004 -1.65388 9.84695 -148.25293 35.5 68.2)"/><ellipse cx="148" cy="68" fill="#fff2e5" fill-opacity=".2" rx="41" ry="53"/><path fill="#f0f1f3" fill-opacity=".8" d="M220 185l-36-41-93 41z"/><ellipse cx="210" cy="78" fill="#fff" fill-opacity=".4" rx="17" ry="44"/><path fill="#836253" fill-opacity=".5" d="M132 38.5L126.5 67 98 61.5l5.5-28.5z"/><circle r="1" fill="#858357" fill-opacity=".6" transform="matrix(4.68597 -26.26176 10.64992 1.9003 255 0)"/><circle r="1" fill="#f3fafb" fill-opacity=".3" transform="matrix(-19.90574 -5.63276 8.3406 -29.47504 101 84.2)"/><circle r="1" fill="#b1afad" fill-opacity=".6" transform="matrix(10.29285 -12.4271 50.52689 41.84934 221.7 150.5)"/><path fill="#040000" fill-opacity=".4" d="M-16 167.1l53.2-92.4 38.2 69.4L55.9 185z"/><circle r="1" fill="#e2e0de" fill-opacity=".9" transform="matrix(17.19861 1.29317 -8.30644 110.47212 214.2 0)"/><path fill="#91958e" fill-opacity=".5" d="M116 59L94 77l10-80z"/><path fill="#693f32" fill-opacity=".6" d="M129 8l-21 8 17 63z"/><path fill="#373d3c" fill-opacity=".6" d="M190 0h2v74h-2z"/><path fill="#979797" fill-opacity=".9" d="M106.1-16l-.3 45.2L66.9-16l9.3 49.7z"/><path fill="#1e1b00" fill-opacity=".3" d="M125.3 169.1l-8.6 15.3 52.2-65.5-38 34.2z"/><path fill="#3f492f" fill-opacity=".6" d="M163.6 153.9L152 130.6l7.6 10-7.5 13.8z"/><path fill="#000100" fill-opacity=".2" d="M100 112.2l11-.4 3 86-11 .4z"/><circle r="1" fill="#f8f9f8" fill-opacity=".6" transform="matrix(-4.06636 4.91393 -26.91888 -22.27583 234.2 131.9)"/><circle cx="143" cy="103" r="5" fill-opacity=".4"/><path fill="#77391e" fill-opacity=".5" d="M120 120h41v10h-41z"/><circle r="1" fill="#1e1b13" fill-opacity=".5" transform="matrix(1.51852 -.0758 1.27587 25.55854 98.3 24.2)"/><path fill="#9e9c90" fill-opacity=".6" d="M162 22l19-38v97z"/><circle r="1" fill="#5b6166" fill-opacity=".5" transform="matrix(.6353 -.77227 35.21411 28.96864 223.9 137.7)"/><ellipse cx="153" cy="61" fill="#dadad9" fill-opacity=".4" rx="23" ry="40"/><ellipse cx="148" cy="5" fill="#272116" fill-opacity=".5" rx="5" ry="14"/><path fill="#fffaff" fill-opacity=".2" d="M161.2 136.1l-16.7 15.8 41.9-9.4-71.8-56.2z"/><path fill="#be927b" fill-opacity=".6" d="M152.7 38.7l-5.9-25.4-4.2-4.4-16.4 7.8z"/><path fill="#000a01" fill-opacity=".5" d="M90.7 134.6l19.7 2.8-12.3-23.5 25.6-.9z"/><path fill="#c8c5c6" fill-opacity=".6" d="M76.3 134.4L80 91.9l20 62.7 5.5-14.7z"/><circle r="1" fill="#c3c3c6" fill-opacity=".6" transform="matrix(-6.8547 -.21542 1.77126 -56.36228 89.4 37.6)"/><path fill="#7b4839" fill-opacity=".4" d="M145.8 119l-40.1-19.1 32.1 49.7-21.6-13.5z"/><path fill="#eae6e6" fill-opacity=".3" d="M181.4 101.8l88.7 79.5-34-15.8-53.7-45.6z"/><path fill="#ffcfdb" fill-opacity=".3" d="M127.8 131.2l28.2.9-48.9 31.4 32.9-12.3z"/><path fill="#6f6761" fill-opacity=".6" d="M71.4 24l8.9 46.9-5.3 79.6L61.6 49.6z"/><path fill="#03260f" fill-opacity=".4" d="M148 160.9l-.1 3.1-7.7-24.5 1.2 24.2z"/><path fill="#342722" fill-opacity=".5" d="M95 116.4l-2.2 8.7-5.8-1.5 2.2-8.7z"/><path fill="#e0dddb" fill-opacity=".5" d="M81.3 117.1l11.4-59.6 1.8 38.3 21.3 15.2z"/><path fill="#ffefff" fill-opacity=".5" d="M123.5 155.7l-7-13.2 8-4.2 7 13.2z"/><ellipse cx="189" cy="75" fill="#020c12" fill-opacity=".4" rx="1" ry="34"/><path fill="#210000" fill-opacity=".2" d="M143.8 153.9l17.9-32.3-4.2 23.4-17.7-8.1z"/><path fill="#adaba4" fill-opacity=".5" d="M201 163l58 22-97-74z"/><path fill="#fff6f2" fill-opacity=".3" d="M116 109.9l14.6-19.8-23.3-13.9 18.6-25.7z"/><path fill="#193512" fill-opacity=".5" d="M160 145l-9 8 8 2z"/><path fill="#fffeff" fill-opacity=".5" d="M146 151h7v13h-7z"/><path fill="#000106" fill-opacity=".4" d="M109 19l48-23-46-11z"/><circle r="1" fill="#181203" fill-opacity=".7" transform="rotate(80 -21.2 27.8) scale(70.94321 27.35987)"/><path fill="#e9e9e8" fill-opacity=".7" d="M157.9 173.1l29.3-34.3-28.2-1.3 9.8-16z"/><path fill="#ddd6d1" fill-opacity=".5" d="M98.6 124.4L104 103l-2.4 4.3L81.8 136z"/><path fill="#0a3200" fill-opacity=".2" d="M233.8-5.8l19 .6-.6 19-19-.6z"/><ellipse cx="97" cy="30" fill="#0b0000" fill-opacity=".4" rx="2" ry="17"/><ellipse cx="186" cy="44" fill="#dadbd8" fill-opacity=".3" rx="3" ry="169"/><path fill="#ececef" fill-opacity=".5" d="M170 117l10-37-19-40z"/><path fill="#c4c0b1" fill-opacity=".5" d="M244 111L232 9l27 11z"/><path fill="#263c1c" fill-opacity=".8" d="M112.7 145.5l-6.3 10.2-5.1-3.2 6.3-10.2z"/></g></svg>