<svg xmlns="http://www.w3.org/2000/svg" viewBox="0 0 300 199"><defs/><path fill="#4b4b4b" d="M0 0h300v199H0z"/><g transform="translate(.6 .6) scale(1.17188)"><path fill="#fff" fill-opacity=".4" d="M33 41h134v46H33z"/><path fill-opacity=".7" d="M271 171l-141 11L262 36z"/><path fill="#b4b4b4" fill-opacity=".7" d="M176 135l-73-8 9 33z"/><circle r="1" fill-opacity=".5" transform="matrix(-4.51755 -44.23206 13.09304 -1.33723 92 115.3)"/><circle r="1" fill="#e9e9e9" fill-opacity=".4" transform="rotate(112.2 96 89.3) scale(12.61504 22.51071)"/><ellipse cx="62" cy="107" fill="#ededed" fill-opacity=".3" rx="16" ry="73"/><ellipse cx="129" cy="109" fill-opacity=".7" rx="30" ry="14"/><path fill="#c6c6c6" fill-opacity=".7" d="M175 135l-36-65 26 7z"/><path fill-opacity=".6" d="M230-22.9l44.1 27.6L254 36.9 209.9 9.3z"/><circle r="1" fill="#0f0f0f" fill-opacity=".5" transform="matrix(-34.79236 77.05653 -19.29875 -8.71372 0 138)"/><path fill="#fafafa" fill-opacity=".6" d="M21 49l39 3-3 26z"/><circle r="1" fill="#1f1f1f" fill-opacity=".7" transform="rotate(-20.5 146 -450.8) scale(33.7593 19.1125)"/><ellipse cx="178" cy="99" fill-opacity=".9" rx="6" ry="30"/><ellipse cx="133" cy="61" fill="#090909" fill-opacity=".7" rx="5" ry="17"/><path fill="#f4f4f4" fill-opacity=".3" d="M182.6 73.4l20.8-54.2 14 5.4-20.8 54.2z"/><path fill="#0c0c0c" fill-opacity=".7" d="M62 54.5l-4.5-2.4 20.1-7.5 9 9.1z"/><path fill="#c3c3c3" fill-opacity=".6" d="M128 85h26v14h-26z"/><path fill-opacity=".6" d="M153 100h6v63h-6z"/><path fill-opacity=".7" d="M79.3 45.7l9.7 62.4-28-17.3 33.8-4.3z"/><ellipse cx="140" cy="169" fill="#0f0f0f" fill-opacity=".9" rx="3" ry="71"/><path fill="#e6e6e6" fill-opacity=".5" d="M148 108l6.8 25-18 23 4.2 3.9z"/><ellipse cy="53" fill-opacity=".7" rx="24" ry="14"/><path fill="#333" fill-opacity=".8" d="M220.8 112.9l2.1-96.6-14.2 35.8-16.1 69.9z"/><path fill="#bdbdbd" fill-opacity=".7" d="M95.9 107.7l3.5-29.8-18.8-37.1L128.5 52z"/><circle r="1" fill-opacity=".7" transform="matrix(6.01798 -2.48795 20.01491 48.41316 102.3 156.1)"/><path fill="#dcdcdc" fill-opacity=".5" d="M104 181l-21-43-4 47z"/><path fill="#b3b3b3" fill-opacity=".5" d="M159 148l3-68 16 60z"/><path fill="#d0d0d0" fill-opacity=".7" d="M55.3 62.4l4.2 5.6-28.8 21.6-4.2-5.6z"/><path fill-opacity=".5" d="M34.5 85.2l7.7-7.7 11.3 11.3-7.7 7.7z"/><ellipse cx="189" cy="87" fill="#a3a3a3" fill-opacity=".5" rx="7" ry="26"/><circle cx="144" cy="52" r="8" fill="#fefefe" fill-opacity=".6"/><path fill="#232323" fill-opacity=".9" d="M205.3 50.4l46.8 38-9.1-50.1-15.4 16.2z"/><path fill="#e7e7e7" fill-opacity=".4" d="M110 153l29-8-37-18z"/><circle r="1" fill="#080808" fill-opacity=".8" transform="rotate(-102.7 131.3 33.6) scale(6.03922 72.8959)"/><ellipse cx="62" cy="6" fill="#757575" fill-opacity=".5" rx="33" ry="23"/><path fill-opacity=".7" d="M149.7 64l-7 5.5-4.4-5.5 7-5.5z"/><path fill="#d8d8d8" fill-opacity=".6" d="M58 51l-36-9 4 17z"/><path fill="#030303" fill-opacity=".4" d="M196.5 68.1l-.8 14.9-22.3-69.4 16 4.6z"/><path fill="#333" fill-opacity=".8" d="M139-16L88 18l153-2z"/><path fill="#dadada" fill-opacity=".6" d="M147.7 37.6L84.4 58l2.4-10.7 7.6-.3z"/><path fill-opacity=".5" d="M74 33h63v5H74z"/><ellipse cy="35" fill="#202020" rx="9" ry="37"/><ellipse cx="116" cy="105" fill-opacity=".6" rx="18" ry="14"/><path fill="#fff" fill-opacity=".2" d="M12.4 89.3l-28.4 1L-.8 74.4l22.5-14.9z"/><circle cx="227" cy="27" r="16" fill="#8b8b8b" fill-opacity=".4"/><path fill="#d4d4d4" fill-opacity=".4" d="M66.2 114.7l13.8 9.7 2-2.3-41.4-76.7z"/><circle r="1" fill="#010101" fill-opacity=".7" transform="matrix(-3.8155 4.08758 -5.72414 -5.34312 34.2 67)"/><ellipse cx="13" cy="8" fill="#9f9f9f" fill-opacity=".5" rx="5" ry="29"/><path fill="#f6f6f6" fill-opacity=".5" d="M221 34h9v18h-9z"/><circle r="1" fill="#1e1e1e" fill-opacity=".5" transform="matrix(-27.22132 7.72694 -15.69926 -55.3071 3.4 141.2)"/><circle r="1" fill-opacity=".5" transform="rotate(4.5 -361.9 666.4) scale(27.04054 2.40088)"/><path fill-opacity=".3" d="M214.6 178.8l-27.4-35.3-35.4-81.7 20.9 17.4z"/><path fill="#262626" fill-opacity=".5" d="M63 55h3v37h-3z"/><path fill-opacity=".6" d="M81 77h14v60H81z"/><path fill="#eee" fill-opacity=".5" d="M95 114l5 2-3-17z"/><path fill="#070707" fill-opacity=".6" d="M215 27l49-17 4 16z"/><path fill-opacity=".5" d="M17.6 28.4l.8-43 6 .2-.8 43z"/><path fill-opacity=".6" d="M246.4 80.8l47.8 11-32.6 141.4-47.8-11z"/><path fill="#f0f0f0" fill-opacity=".5" d="M65 64h18v11H65z"/><path fill="#fcfcfc" fill-opacity=".4" d="M56 47l29-2-33-7z"/><path fill="#686868" fill-opacity=".5" d="M7 34h47v11H7z"/><path fill="#b1b1b1" fill-opacity=".6" d="M110 93L86 65l44-22z"/><path fill-opacity=".4" d="M64.8 75.1l11.6 3-1.2 4.8-11.6-3z"/><path fill="#fff" fill-opacity=".6" d="M183.3 66.6l8 .8-.6 6-8-.8z"/><path fill="silver" fill-opacity=".5" d="M194 22h14v32h-14z"/></g></svg>