<svg xmlns="http://www.w3.org/2000/svg" viewBox="0 0 300 199"><defs/><path fill="#525b31" d="M0 0h300v199H0z"/><g transform="translate(.6 .6) scale(1.17188)"><circle r="1" fill="#f2eefd" fill-opacity=".5" transform="matrix(45.20312 -247.1897 134.4377 24.58437 255 122)"/><circle r="1" fill="#214210" fill-opacity=".7" transform="matrix(11.07413 -51.23025 15.02707 3.2483 235.5 77.3)"/><circle r="1" fill="#596144" fill-opacity=".9" transform="rotate(38.9 -83.8 218) scale(36.94249 29.54367)"/><circle r="1" fill="#d8edf7" fill-opacity=".5" transform="matrix(118.11796 26.20368 -6.42333 28.95435 176.3 0)"/><ellipse cx="103" cy="165" fill="#fffff3" fill-opacity=".3" rx="250" ry="13"/><circle r="1" fill="#001902" fill-opacity=".7" transform="matrix(20.04764 -6.78575 16.1513 47.71697 52 71.9)"/><circle r="1" fill="#e5f5f9" fill-opacity=".7" transform="matrix(-.96225 -4.99081 18.9671 -3.65694 28.8 115.3)"/><circle r="1" fill="#f5dfdc" fill-opacity=".5" transform="matrix(2.29768 -24.01989 56.17497 5.37355 222.8 154)"/><circle r="1" fill="#65a77b" fill-opacity=".4" transform="matrix(-102.94031 -31.66858 7.60017 -24.70473 95.1 23.3)"/><path fill="#26451d" fill-opacity=".7" d="M229.7 98.6l41.3-72-6.2-20.8-63.3 87.6z"/><path fill="#e4e9ee" fill-opacity=".7" d="M220.9 93.2l-3.3 33.1-3.7-2.2-28.1-12.3z"/><path fill="#d8e7e8" fill-opacity=".8" d="M39 95.8l-3.5 6.6-10.4-20.6 11.4 6.3z"/><circle r="1" fill="#103c15" fill-opacity=".6" transform="matrix(15.89458 13.57525 -32.27696 37.79147 21.4 60.7)"/><circle r="1" fill="#ccd5dc" fill-opacity=".5" transform="matrix(26.12241 -37.81528 9.76376 6.7447 199.8 73)"/><path fill="#d0de98" fill-opacity=".6" d="M69.7 11.2l38.4 29.5-38.2-13.9L61 14.6z"/><path fill="#d2a47d" fill-opacity=".4" d="M244 185L92 101l15 61z"/><path fill="#f8fffc" fill-opacity=".3" d="M243 64h13v106h-13z"/><path fill="#161e0e" fill-opacity=".4" d="M116.8 126.7L96.7 93.3l26.5-16 20.1 33.4z"/><path fill="#fff" fill-opacity=".4" d="M58 176l-17-21 15-2z"/><path fill="#dbffff" fill-opacity=".3" d="M6.3 125.7L8 97.1l36.4 33.5 3.2-.1z"/><path fill="#a7c585" fill-opacity=".6" d="M21.1 27.5L19 29.3l-35 37.1 2.4-48.9z"/><path fill="#274d20" fill-opacity=".5" d="M85 185l-5-84-45 30z"/><path fill="#573f3f" fill-opacity=".4" d="M111 93h62v34h-62z"/><path fill="#346636" fill-opacity=".8" d="M21.5 124.3l-18 62.5-25-7.1 18-62.5z"/><circle r="1" fill="#e8ebf1" fill-opacity=".5" transform="rotate(-123 123.3 -66.6) scale(18.65338 49.31127)"/><circle r="1" fill="#879194" fill-opacity=".5" transform="matrix(-3.92909 2.26344 -31.72796 -55.07647 125.3 50.5)"/><circle r="1" fill="#23370d" fill-opacity=".6" transform="matrix(7.80357 14.48596 -7.2441 3.90239 231.3 114)"/><ellipse cx="23" cy="169" fill="#82d4ae" fill-opacity=".4" rx="13" ry="30"/><path fill="#6d8c77" fill-opacity=".7" d="M220.4 73.4l6.8-20.5L271 12.7l-46.1 18.6z"/><circle r="1" fill="#304801" fill-opacity=".6" transform="rotate(147.3 90.3 55.4) scale(3.99956 8.28785)"/><path fill="#838830" fill-opacity=".5" d="M258.3 73.3l-18.3 41-8.3-3.6 18.3-41z"/><path fill="#e1e7e6" fill-opacity=".8" d="M122.1 7.8l15.6 6.9L213 26.4 124.1 5.3z"/><circle r="1" fill="#2a6d37" fill-opacity=".5" transform="rotate(-156.9 53.7 17.6) scale(39.45383 13.23793)"/><circle cx="30" cy="86" r="5" fill="#fff" fill-opacity=".5"/><path fill="#998c6a" fill-opacity=".6" d="M79.2 107.8l27.7 44.4 88.7-38.3-110.8 30.5z"/><path fill="#d8eaf3" fill-opacity=".5" d="M-16 0l38 11-33-22z"/><path fill="#132c07" fill-opacity=".6" d="M261 68.8l-35 30.7-9.4-25-10.8 25.1z"/><path fill="#abbe92" fill-opacity=".5" d="M110.1 111.2L86.2 90.7l-8.4-.8 29.1 37.6z"/><path fill="#153311" fill-opacity=".7" d="M35.5 112.5l-50.1-64.1 36.3 9-9.1 51.8z"/><path fill="#001704" fill-opacity=".5" d="M46 39h21v95H46z"/><circle r="1" fill="#85762c" fill-opacity=".5" transform="matrix(25.11257 -32.72733 1.901 1.45868 172 129)"/><path fill="#004f27" fill-opacity=".4" d="M140.6 31.2l-13.9 14.5-11.6-28.9 27.7 8.3z"/><ellipse cx="192" cy="69" fill="#c5ced2" fill-opacity=".5" rx="30" ry="8"/><path fill="#79717c" fill-opacity=".4" d="M119 93l25-80 30 11z"/><path fill="#e3e6e3" fill-opacity=".6" d="M191.6 108.3l13.4-17-5.1 60.6 17.4-54.3z"/><path fill="#feffff" fill-opacity=".7" d="M63 184l-21-32 38 33z"/><path fill="#fefffd" fill-opacity=".2" d="M9.3 81.8l21.3 50-16.9-23.9-8.9 24.7z"/><path fill="#305e2c" fill-opacity=".4" d="M56 25L-1 5l27 83z"/><path fill="#2c5e13" fill-opacity=".5" d="M61-7l54 57-28-66z"/><path fill="#ddf2e7" fill-opacity=".3" d="M24.3 130.5l24.2-13.4-10.8 16.1-20.2-25.7z"/><path fill="#5c352a" fill-opacity=".4" d="M171.8 73l1.9 12.7-16-15.7-4.1 8.4z"/><path fill="#e8f1ff" fill-opacity=".5" d="M242 121l29-2-17-39z"/><path fill="#f6e8f6" fill-opacity=".4" d="M151.4 84.2l-5.2 14 20-9-9.8-10.4z"/><path fill="#ebeff6" fill-opacity=".5" d="M214 43l25-9-29 1z"/><path fill="#51602f" fill-opacity=".7" d="M39 127.1l39.6 52.3-26.7-19.3 63.3-2.1z"/><path fill="#549958" fill-opacity=".5" d="M109.4 84.6L75.9 47.4l6.7-6 33.5 37.2z"/><circle r="1" fill="#c6dade" fill-opacity=".5" transform="matrix(12.4494 -6.43756 1.77729 3.43704 255 67.7)"/><path fill="#92874c" fill-opacity=".9" d="M138.3 181.1l-1.2-2.5 27.4-41.1-11.4 23.3z"/><circle r="1" fill="#113101" fill-opacity=".5" transform="rotate(52.1 -70 149.1) scale(27.77886 2.43128)"/><path fill="#f4f7fb" fill-opacity=".6" d="M23.4 164l5.9.9 1.6 15.2L9 185z"/><path fill="#d1c7c0" fill-opacity=".7" d="M271 154l-133 31 69-64z"/><path fill="#516f2d" fill-opacity=".4" d="M209.3 42.8l-25.1 14.5-3.5-6 25.1-14.6z"/><path fill="#041c00" fill-opacity=".4" d="M229.3 132.7l7-73.4-15.3 48.4 3 27.5z"/><circle r="1" fill="#81a75c" fill-opacity=".5" transform="matrix(-61.03998 39.49803 -1.87555 -2.89846 54.6 0)"/><path fill="#9ea0a6" fill-opacity=".6" d="M197 19L131 6l19-22z"/></g></svg>