<svg xmlns="http://www.w3.org/2000/svg" viewBox="0 0 299 449"><defs/><path fill="#434344" d="M0 0h299v449H0z"/><g transform="translate(.9 .9) scale(1.7539)"><circle cx="123" cy="120" r="174" fill="#f0f0ef" fill-opacity=".6"/><circle r="1" fill-opacity=".8" transform="matrix(-28.32122 32.69776 -26.1881 -22.68287 95 50.8)"/><circle r="1" fill="#070707" fill-opacity=".7" transform="matrix(30.75613 -2.36251 7.40315 96.37707 59 177.7)"/><ellipse cx="165" cy="162" fill="#fcfcfc" fill-opacity=".8" rx="69" ry="121"/><ellipse cx="20" cy="38" fill="#fff" fill-opacity=".6" rx="36" ry="71"/><circle r="1" fill="#fff" fill-opacity=".6" transform="matrix(18.0722 -2.05908 8.77138 76.98512 9.1 174.5)"/><circle r="1" fill="#fff" fill-opacity=".8" transform="matrix(-18.31342 12.4458 -43.00289 -63.27682 137.4 0)"/><circle cx="64" r="24" fill="#fff" fill-opacity=".9"/><path fill="#0a0a0a" fill-opacity=".8" d="M115.2 86.9l7.8-71.4-67.8 12.1-2.8 22.2z"/><circle r="1" fill="#1b1b1b" fill-opacity=".7" transform="matrix(15.82665 2.53077 -5.17091 32.33728 39.4 127.2)"/><circle r="1" fill="#252525" fill-opacity=".9" transform="matrix(0 -15.0451 12.22661 0 65.5 86.7)"/><circle r="1" fill="#747474" fill-opacity=".6" transform="matrix(-17.17052 -126.99593 8.41953 -1.13837 90 228.3)"/><ellipse cx="97" cy="109" fill="#e2e2e2" fill-opacity=".7" rx="26" ry="18"/><path fill="#dcdcdc" fill-opacity=".8" d="M13.3 121.4l45.6-46.8 4.6-18.5-67.1 5.6z"/><circle r="1" fill="#161616" fill-opacity=".3" transform="rotate(-84.6 174.7 89.5) scale(31.13757 41.76427)"/><path fill="#fefefe" fill-opacity=".9" d="M159.2 7.2l-104 3.6-.4-14 104-3.6z"/><path fill="#fefefe" fill-opacity=".7" d="M144 175.7L132 6.1l26-1.8 11.8 169.6z"/><circle r="1" fill="#292929" fill-opacity=".5" transform="matrix(28.3107 -3.82776 2.7346 20.22548 65 142)"/><path fill="#fcfcfc" fill-opacity=".3" d="M85 152h84v63H85z"/><path fill="#757575" fill-opacity=".2" d="M67 205l115 51-99 15z"/><circle r="1" fill="#f6f6f6" fill-opacity=".7" transform="matrix(-18.43562 -29.36151 27.45636 -17.2394 0 204.8)"/><ellipse cx="43" cy="174" fill="#141414" fill-opacity=".5" rx="8" ry="86"/><ellipse cx="99" cy="35" fill-opacity=".4" rx="26" ry="28"/><circle r="1" fill="#3b3b3b" fill-opacity=".5" transform="matrix(-6.55508 -7.34614 24.18553 -21.58113 107 72.5)"/><ellipse cx="4" cy="111" fill="#eaeaea" fill-opacity=".8" rx="18" ry="117"/><path fill="#747474" fill-opacity=".6" d="M20.1 240.5l-10.8-2.2-25.3 19.6 27.8 2.2z"/><path fill="#3b3b3b" fill-opacity=".4" d="M163.5 245.9l4.9 11-11.9 5.2-4.9-11z"/><ellipse cx="126" cy="73" fill="#292929" fill-opacity=".4" rx="2" ry="19"/><ellipse cx="80" cy="43" fill="#101010" fill-opacity=".4" rx="30" ry="23"/><circle r="1" fill="#fff" fill-opacity=".5" transform="matrix(-18.50777 -5.41205 11.21038 -38.3365 147.4 218)"/><path fill="#fdfdfd" fill-opacity=".7" d="M42.6 80.4L40.2-9.7 73 12.2 48.8 37.5z"/><circle r="1" fill="#dedede" fill-opacity=".7" transform="rotate(-137.8 76.8 34.6) scale(23.62589 27.87466)"/><path fill="#bebebe" fill-opacity=".6" d="M36 78L10-10 39 1z"/><ellipse cx="170" cy="6" fill="#d7d7d7" fill-opacity=".7" rx="10" ry="100"/><path fill="#747474" fill-opacity=".5" d="M57.6 101.4l10-8.4 14.8 17.6-10 8.4z"/><path fill="#ebebeb" fill-opacity=".4" d="M69.7 28.3l-5.8-33 19.8 25.5-16 6.5z"/><ellipse cx="16" cy="75" fill="#d9d9d9" fill-opacity=".7" rx="13" ry="52"/><path fill="#f8f8f8" fill-opacity=".6" d="M105 108L78 87l-1 17z"/><path fill="#232323" fill-opacity=".5" d="M35 216l-13-85 49-14z"/><path fill="#bbb" fill-opacity=".5" d="M88 202h22l20 69z"/><path fill="#e3e3e3" fill-opacity=".8" d="M92.3 162.8l5.2-32.8 9 33.9-6.5 54.6z"/><path fill="#818181" fill-opacity=".6" d="M47 85l1 9-19 5z"/><path fill="#fff" fill-opacity=".7" d="M15.4 43.2l-28 1.5-2.8-56 28-1.4z"/><path fill="#fff" fill-opacity=".4" d="M0 208h34v21H0z"/><path fill="#f7f7f7" fill-opacity=".6" d="M62.3 67.5L43.5 44.3 42.8 78l4.1 5.3z"/><path fill="#848484" fill-opacity=".4" d="M117.9 13.1l12.9 8.9 5.8 21.2-27.8-37.8z"/><path fill="#939393" fill-opacity=".3" d="M105.8 83.3L83 87.5l-11.3 7.7 52.6-28.1z"/><path fill="#1d1d1d" fill-opacity=".5" d="M58.5 71.4L45.7 93.5l49.2-6.7-3.8 9.2z"/><path fill="#e3e3e3" fill-opacity=".9" d="M30.8 196.6L29.4 185l-3.5-22.7-41.9 56.3z"/><path fill-opacity=".4" d="M64.2 21.8l70.1 22.5-22.5 19.9-52.1-20.4z"/><path fill="#1d1d1d" fill-opacity=".9" d="M65.7 52.2l19.7 34.7L132.9 54l-74 10.8z"/><circle r="1" fill="#070707" fill-opacity=".5" transform="matrix(-5.01167 -40.2361 6.08925 -.75846 53.4 253.4)"/><path fill="#bbb" fill-opacity=".4" d="M126.5 105.9l-32 8.8 8 9.1 33.9-.2z"/><path fill="#525252" fill-opacity=".3" d="M71 181h22v75H71z"/><path fill="#f2f2f2" fill-opacity=".4" d="M135.4 74l-61 35.9 49.9-.5-6.9-39.8z"/><path fill="#c5c5c5" fill-opacity=".3" d="M34.9 220l-2.2 39-15 7.5-3.4-26.6z"/><path fill="#acacac" fill-opacity=".3" d="M80.9 153.8l-.6 27.9 23.4-25.5 3.3 14.7z"/><circle r="1" fill="#4b4b4b" fill-opacity=".6" transform="matrix(6.60213 -.10249 .36709 23.64694 55.7 204.6)"/><path fill="#606060" fill-opacity=".6" d="M55 34.2L58 53l-5 .8L50 35z"/><path fill="#f3f3f3" fill-opacity=".8" d="M130.1 58l12.4-20.6-1.3 130.1-11.3-31.7z"/><path fill="#8b8b8b" fill-opacity=".7" d="M76.7 124.2l3 5.3-16.1-21.8 37.8 31.9z"/><path fill="#fff" fill-opacity=".5" d="M0 206h26v31H0z"/><path fill="#050505" fill-opacity=".4" d="M112 86l13-65-16 28z"/><path fill="#292929" fill-opacity=".6" d="M22.6 129.6l2.7-15.4 8.9-10.3 42.4 18.7z"/><circle r="1" fill="#dfdfdf" fill-opacity=".5" transform="matrix(16.63365 .0294 -.01178 6.66102 103.3 206)"/></g></svg>