<svg xmlns="http://www.w3.org/2000/svg" viewBox="0 0 300 199"><defs/><path fill="#6e5135" d="M0 0h300v199H0z"/><g transform="translate(.6 .6) scale(1.17188)"><circle r="1" fill="#efe8e0" fill-opacity=".5" transform="rotate(70.9 -48.6 163) scale(84.442 117.72086)"/><ellipse cx="203" cy="11" fill="#877f6e" rx="51" ry="131"/><path fill="#faffff" fill-opacity=".5" d="M5 151l175-71L78 185z"/><circle cx="113" cy="57" r="36" fill="#e9c3b3" fill-opacity=".4"/><ellipse cx="62" cy="96" fill="#763c09" fill-opacity=".6" rx="42" ry="18"/><path fill="#21190c" fill-opacity=".5" d="M78.7-16l118.6 88.4 28.1 33.6 10.9-30.9z"/><circle r="1" fill="#a18466" fill-opacity=".8" transform="matrix(72.42224 -14.65324 7.09395 35.06117 225.4 158)"/><circle r="1" fill="#e2f3ff" fill-opacity=".6" transform="rotate(-30.4 248.4 -225.8) scale(15.22071 27.99736)"/><circle r="1" fill="#b1c1c1" fill-opacity=".4" transform="matrix(-21.834 -51.20004 23.2415 -9.91122 219.9 18)"/><path fill="#865932" fill-opacity=".6" d="M109.8 135.8L97.1 55.7l-8.8 56.4 17.5 36.6z"/><ellipse cx="132" cy="134" fill="#d4e4f1" fill-opacity=".5" rx="14" ry="55"/><path fill="#010000" fill-opacity=".7" d="M105.7 20.3l-11.4-4.1 27-18.2 25.5 21.5z"/><ellipse cx="39" fill="#868e7e" fill-opacity=".5" rx="71" ry="17"/><circle r="1" fill="#986e3e" fill-opacity=".8" transform="rotate(44.6 -132.4 93.2) scale(17.46424 25.67986)"/><path fill="#3c1702" fill-opacity=".6" d="M100 19.7l11.6 40.4-7.7 2.2-11.5-40.4z"/><path fill="#fff" fill-opacity=".4" d="M223 119h8v51h-8z"/><path fill="#2a0e07" fill-opacity=".4" d="M164 172l12-20-32-38z"/><circle cx="57" cy="148" r="24" fill="#e9eae8" fill-opacity=".8"/><circle r="1" fill="#552a07" fill-opacity=".6" transform="matrix(-6.30627 28.29468 -23.67444 -5.27652 59.1 48.2)"/><circle r="1" fill="#795f40" fill-opacity=".6" transform="matrix(12.59512 -9.51123 20.29844 26.87994 182.2 88.9)"/><path fill="#862a00" fill-opacity=".2" d="M111 127.8L59 185l57.5-17.7 5.6-30z"/><path fill="#ecfaf3" fill-opacity=".5" d="M35 49L6 60l-12-8z"/><path fill="#94a7a9" fill-opacity=".4" d="M190.2 5.7l-18.2 53-30.2-10.4 18.2-53z"/><circle r="1" fill="#11344f" fill-opacity=".5" transform="matrix(-26.8961 .6786 -.50119 -19.86452 4.5 33)"/><path fill="#dfd6cb" fill-opacity=".7" d="M94.8 152.9l-21.1-41-4.7.1 17.2-7.6z"/><path fill="#cfd4d6" fill-opacity=".7" d="M100 128.7l5-23.6-5.7-46.7 43.2 71z"/><path fill="#e3b08f" fill-opacity=".6" d="M82 34h15v50H82z"/><ellipse cx="171" cy="34" fill="#5d5c50" fill-opacity=".5" rx="43" ry="13"/><path fill="#ced4d6" fill-opacity=".7" d="M165.5 143.9l-43.8-105 54.9 90.2 4.5 10.5z"/><path fill-opacity=".5" d="M142.9 56.2l-11.6 3.3-2.2-7.7 11.6-3.3z"/><circle r="1" fill="#b6c2bf" fill-opacity=".5" transform="rotate(-91.1 117 -113.2) scale(7.96526 74.98205)"/><path fill="#dcd0bd" fill-opacity=".7" d="M233.7 74.5L221.8 185l9.8-57.7L245 20.9z"/><ellipse cx="124" cy="61" fill="#c8a588" rx="6" ry="24"/><circle r="1" fill="#663b17" fill-opacity=".7" transform="matrix(30.8016 -3.93597 3.47776 27.2158 50 75.8)"/><path fill="#352d02" fill-opacity=".5" d="M246 9h8v25h-8z"/><path fill="#968063" d="M19.5 139.2L-16 174.4 25.9 185 4.1 136.8z"/><path fill="#604b30" fill-opacity=".6" d="M238 73h18v51h-18z"/><circle r="1" fill="#e1dfd3" fill-opacity=".5" transform="matrix(1.2398 .324 -13.87026 53.07569 147.1 46)"/><circle r="1" fill="#3b1c0c" fill-opacity=".6" transform="matrix(-17.89648 .28147 -.04588 -2.91704 114.2 36.1)"/><path fill="#ffe2cb" fill-opacity=".5" d="M120.1 18.6l10.4 9.4-6.6 7.4-10.4-9.4z"/><path fill="#221200" fill-opacity=".6" d="M234.6 71.6L219 77.5l-48.1-23.9 59.7 16.6z"/><path fill="#92958d" fill-opacity=".9" d="M243.7 60.6l-51.1-2.5 63.5 17.6L258 67z"/><path fill="#49411e" fill-opacity=".5" d="M242 5.4L238 37l-4-.5L238 5z"/><path fill-opacity=".6" d="M255.5 64.3l-6-1.1 5-25.5 6 1.1z"/><path fill="#fff0db" fill-opacity=".5" d="M172.3 54.7l-1 2.8-47.6-18.2 1-2.8z"/><path fill="#260b00" fill-opacity=".6" d="M87.3 23.1l-4.5 13.3-16.1-5.5 4.5-13.3z"/><path fill="#ab8251" fill-opacity=".5" d="M27.1 105.5l41.5 26.8 12.7-35-97.3 55.9z"/><circle cx="146" cy="153" r="14" fill="#a9afae" fill-opacity=".7"/><path fill="#674b39" fill-opacity=".5" d="M95.1 149.2l5.3 1.2v-23.8l20.5 6z"/><path fill="#0a0000" fill-opacity=".5" d="M132.3 5L147 41.6l-9.6 1.2-14.3-38.7z"/><path fill="#58513e" fill-opacity=".6" d="M158.5 77l12.1-3.3-22.7-26.4-1.8 21.5z"/><path fill="#e4d5c9" fill-opacity=".7" d="M27.6 140.8l28.7 27.7L31.4 185l-17.8-44.4z"/><path fill="#4a0500" fill-opacity=".5" d="M111 172l-4-13-31 26z"/><circle r="1" fill="#8f714d" fill-opacity=".5" transform="rotate(56.3 -8.7 245.5) scale(35.81222 18.20737)"/><path fill="#242722" fill-opacity=".6" d="M3.2 58.2l-19.2 9 33.2 11.1 7.9-5.7z"/><path fill="#e7d8c1" fill-opacity=".5" d="M215.7 98.5l16.2 33.3-3.6 1.7-16.2-33.3z"/><path fill="#50524c" fill-opacity=".9" d="M146.2 33l.2 8.6-10-36.7 27.1-20z"/><path fill="#e1f1f4" fill-opacity=".5" d="M218 21h17v9h-17z"/><path fill="#fffff2" fill-opacity=".5" d="M202.4 81.2L173 55.6l.6-.8L203 80.4z"/><path fill="#a8c5d2" fill-opacity=".5" d="M1.2 11.4L-5.1-2l19.9-9.3L21.1 2z"/><path fill="#734a36" fill-opacity=".8" d="M167 143.8l-21.4 37.1 21.8-6.9 12-34.2z"/><path fill="#e7d7c9" fill-opacity=".5" d="M83.2 163.7l52.4-36.7 5.2 7.3L88.4 171z"/><path fill="#403b2b" fill-opacity=".6" d="M147.7 42.2l2.3-5.5 54.3 23-2.3 5.6z"/><ellipse cx="96" cy="96" fill="#7e4b18" fill-opacity=".5" rx="5" ry="29"/><path fill="#eaf0f1" fill-opacity=".5" d="M90 151l-33 28-9-62z"/></g></svg>