<svg xmlns="http://www.w3.org/2000/svg" viewBox="0 0 299 449"><defs/><path fill="#45342a" d="M0 0h299v449H0z"/><g transform="translate(.9 .9) scale(1.7539)"><circle r="1" fill="#faffff" fill-opacity=".7" transform="matrix(33.82712 5.19074 -9.99017 65.10414 148.4 206)"/><ellipse cx="43" cy="250" fill="#fcb860" fill-opacity=".6" rx="47" ry="54"/><circle r="1" fill="#dab9a5" fill-opacity=".5" transform="matrix(17.78527 -7.91805 13.86138 31.13497 129.2 116.6)"/><path fill="#eed8cb" fill-opacity=".5" d="M66.1 61.8l-32-1.7 1.8-32 32 1.8z"/><circle r="1" fill="#000006" fill-opacity=".7" transform="rotate(175.5 4.2 46.7) scale(29.17966 114.97417)"/><ellipse cx="148" cy="32" fill="#849074" fill-opacity=".6" rx="18" ry="51"/><path fill="#b8c3fc" fill-opacity=".4" d="M53 166.9l-21.5-64.5L68.4 142l2.9 69.2z"/><ellipse cx="70" cy="94" fill="#001853" fill-opacity=".5" rx="44" ry="40"/><ellipse cx="94" cy="158" fill="#000c39" fill-opacity=".5" rx="32" ry="45"/><circle r="1" fill="#ba9160" fill-opacity=".7" transform="matrix(4.17316 -15.57275 32.70927 8.76537 120.2 255)"/><circle r="1" fill="#030904" fill-opacity=".5" transform="rotate(-168.9 54.1 12.6) scale(23.10743 72.16491)"/><path fill="#d5a791" fill-opacity=".6" d="M116 67h13v50h-13z"/><path fill="#bfa08c" fill-opacity=".5" d="M64 30l18 75-50-89z"/><ellipse cx="149" cy="176" fill="#c2c7c8" fill-opacity=".6" rx="27" ry="37"/><path fill="#caad99" fill-opacity=".5" d="M151.9 101.3l-.8 23-47-1.6.8-23z"/><path fill="#1d478d" fill-opacity=".6" d="M30 66l3 47 19-63z"/><path fill="#976536" fill-opacity=".8" d="M-16 215.6l85.8-6.5 16.7 21.2L72 184.9z"/><circle r="1" fill="#1048ac" fill-opacity=".5" transform="rotate(-34.7 263.8 -83.3) scale(8.83237 16.4138)"/><path fill="#e9fafe" fill-opacity=".5" d="M154 22h4v45h-4z"/><circle r="1" fill="#c9d2df" fill-opacity=".3" transform="matrix(-32.6205 10.52756 -8.25027 -25.56412 137.7 222.1)"/><path fill="#010701" fill-opacity=".5" d="M150 88h21v52h-21z"/><path fill="#000310" fill-opacity=".5" d="M81 178h27v47H81z"/><ellipse cx="169" cy="47" fill="#02101b" fill-opacity=".7" rx="12" ry="16"/><path fill="#ffd69b" fill-opacity=".6" d="M55.1 153.5l11.3 26.7-5.5 2.3-11.3-26.7z"/><path fill-opacity=".6" d="M42 131l-5 62 18-15z"/><path fill="#ffc9b0" fill-opacity=".5" d="M64.3 132.9l-3.2 17.5L50 135.1l9.7-4.7z"/><path fill="#a1a28f" fill-opacity=".5" d="M51 18L37 50l-6-66z"/><path fill="#161416" fill-opacity=".6" d="M83.4 196.8l50.4-53-8.2-11.4-1.3-14.1z"/><path fill="#85958b" fill-opacity=".7" d="M186 11.1l-13 99.2 11.1-67.8-33.3-31.4z"/><circle r="1" fill="#daae66" fill-opacity=".5" transform="rotate(11.4 -1218.7 439.7) scale(16.92543 42.92117)"/><path fill="#1d0000" fill-opacity=".3" d="M94 85h44v12H94z"/><path fill="#14408d" fill-opacity=".7" d="M74 154.4l-.5 21.8-6.5-3.3-13.9-27.1z"/><ellipse cx="8" cy="11" fill="#120502" fill-opacity=".6" rx="24" ry="194"/><ellipse cx="57" cy="99" fill="#091b49" fill-opacity=".6" rx="16" ry="32"/><path fill="#161815" fill-opacity=".7" d="M53.5 28.4l-4.9 10.7.4-15.9 36.9-3.8z"/><ellipse cx="164" cy="68" fill="#787457" fill-opacity=".9" rx="29" ry="6"/><path fill="#a28560" fill-opacity=".8" d="M161.2 253.2l-69.6-9.6L160 271l26-35.4z"/><path fill="#594833" fill-opacity=".3" d="M117.3 103.1L186 158l-20.4-68.5 8.1 84.5z"/><path fill="#d8b1a2" fill-opacity=".4" d="M133 79l-23 50 10-61z"/><path fill="#0e0000" fill-opacity=".5" d="M59 188h5v20h-5z"/><path fill="#d7bfb0" fill-opacity=".9" d="M62.2 63.2l-6.6-.5L51 35.9l7.2-3.6z"/><path fill="#030407" fill-opacity=".5" d="M109 122l-42-1 35-28z"/><path fill="#551000" fill-opacity=".5" d="M82.1 121.5L68.4 77.1l-1.9-34.8-3.3 35.4z"/><path fill="#4a3a26" fill-opacity=".5" d="M125 72h28v27h-28z"/><path fill="#cebdae" fill-opacity=".5" d="M132 97h15v21h-15z"/><circle r="1" fill="#b67e43" fill-opacity=".6" transform="matrix(2.71673 6.56401 -37.2263 15.40732 20.5 215.8)"/><path fill="#21251a" fill-opacity=".3" d="M59 38L186 3 77-16z"/><path fill="#114592" fill-opacity=".5" d="M31 76l22 66-21-29z"/><path fill="#060910" fill-opacity=".6" d="M59.1 131.3L38.3 104l-.1-5.3L41 70.1z"/><path fill="#5b3400" fill-opacity=".2" d="M135.1 174.3l-1.2-16-21.6 3.4-10.1 53.7z"/><path fill="#b97d3d" fill-opacity=".5" d="M75 223l-19-49 23 24z"/><path fill="#130c04" fill-opacity=".5" d="M88 63h29v33H88z"/><circle r="1" fill="#7c6050" fill-opacity=".5" transform="matrix(-.71431 -4.42983 22.4794 -3.6248 128.5 124.6)"/><path fill="#0b1119" fill-opacity=".5" d="M87 183h16v57H87z"/><path fill="#b18a52" fill-opacity=".8" d="M88.7 213.2l3.3 4.5L62.2 271 87 231.5z"/><path fill="#c9bf9a" fill-opacity=".5" d="M148 28h3v37h-3z"/><path fill="#153470" fill-opacity=".6" d="M72 105l-16 19-6-76z"/><path fill="#ecd3d7" fill-opacity=".5" d="M127 117l-19 1-1-13z"/><path fill="#11100f" fill-opacity=".5" d="M81 82l53-22-68-6z"/><path fill="#ced0d0" fill-opacity=".5" d="M132 143l15 108 19-96z"/><path fill="#0a101f" fill-opacity=".7" d="M82.5 109L80 190.7l-12-53.6-7.2-4.6z"/><ellipse cx="75" cy="89" fill="#effffb" fill-opacity=".3" rx="3" ry="11"/><path fill="#381e08" fill-opacity=".5" d="M-4 209l69-22-51-13z"/><path fill="#6b6744" fill-opacity=".5" d="M160 25l-26 21-5-62z"/><path fill="#d7d7dc" fill-opacity=".5" d="M113 226h9v22h-9z"/></g></svg>