<svg xmlns="http://www.w3.org/2000/svg" viewBox="0 0 300 199"><defs/><path fill="#434444" d="M0 0h300v199H0z"/><g transform="translate(.6 .6) scale(1.17188)"><circle cx="199" cy="9" r="202" fill="#e5e4e4" fill-opacity=".5"/><ellipse cx="134" cy="68" fill="#020202" fill-opacity=".5" rx="74" ry="36"/><circle r="1" fill="#fbfbfb" fill-opacity=".5" transform="matrix(39.9505 123.75735 -19.98282 6.45071 228.6 82.3)"/><circle r="1" fill="#fff" fill-opacity=".5" transform="matrix(-2.04354 20.20457 -54.22115 -5.48407 25.6 21)"/><circle r="1" fill="#e1e1e1" fill-opacity=".7" transform="matrix(2.4097 6.27749 -48.4066 18.58155 16 122)"/><circle r="1" fill="#fefefe" fill-opacity=".5" transform="rotate(-4.4 2262.6 -1174.4) scale(18.53187 56.92506)"/><path fill="#fff" fill-opacity=".6" d="M212.6 16.2l.6 12-145.8 7.6-.6-12z"/><path fill="#0b0a0a" fill-opacity=".7" d="M0 133h58v37H0z"/><path fill="#393939" fill-opacity=".6" d="M179 38h21v132h-21z"/><ellipse cx="77" cy="77" fill="#474747" fill-opacity=".7" rx="18" ry="43"/><circle r="1" fill="#1c1c1c" fill-opacity=".5" transform="matrix(1.47921 4.6475 -51.88618 16.51439 220.6 154.6)"/><circle r="1" fill="#fcfbfb" fill-opacity=".5" transform="matrix(20.08786 -59.25006 3.94453 1.33733 88.3 123.7)"/><circle r="1" fill="#f8f8f8" fill-opacity=".7" transform="rotate(-121.7 153.6 -14) scale(44.72988 19.6395)"/><path fill="#040404" fill-opacity=".3" d="M103 40h38v102h-38z"/><circle r="1" fill="#a4a4a4" fill-opacity=".7" transform="matrix(-18.19452 -18.11381 29.71565 -29.84806 234.5 35.8)"/><path fill="#5c5c5c" d="M27.2 112.3l2.1-20.6L13 41.6l-29 20.9z"/><path fill="#f5f5f5" fill-opacity=".5" d="M68 68l-48 9 7-30z"/><circle cx="255" cy="70" r="14" fill-opacity=".4"/><circle r="1" fill="#fdfdfd" fill-opacity=".7" transform="matrix(6.14173 7.32399 -35.73494 29.96649 225 0)"/><path fill="#fdfdfd" fill-opacity=".3" d="M165.2 111l16.9 24.6-43.1-6.4 26.5-52.7z"/><path fill="#cacaca" fill-opacity=".6" d="M55 153h69v14H55z"/><circle r="1" fill="#5b5b5b" fill-opacity=".5" transform="matrix(22.78159 11.16058 -4.87988 9.96107 .8 20.6)"/><circle r="1" fill="#282828" fill-opacity=".5" transform="matrix(32.24734 7.61495 -3.9206 16.6027 174.2 50.8)"/><path fill="#fff" fill-opacity=".7" d="M30-1l23 36-65-35z"/><circle r="1" fill="#fafafa" fill-opacity=".6" transform="rotate(167.2 111.8 98.1) scale(32.7132 13.3018)"/><path fill="#5f5f5f" fill-opacity=".7" d="M134 72l70-11-30 58z"/><path fill="#dfdfdf" fill-opacity=".6" d="M28 102l33 32 1-38z"/><path fill="#3f3f3f" fill-opacity=".6" d="M62.1 36.6L41.9 49.1l17.8 7.7L158 32.3z"/><ellipse cx="87" fill="#717171" fill-opacity=".4" rx="53" ry="24"/><path fill="#fff" fill-opacity=".6" d="M189.2 22.2l.4 8-108.8 5.6-.4-8z"/><path fill="#8b8b8b" fill-opacity=".7" d="M200 116l44 24-66 17z"/><path fill="#fcfdfd" fill-opacity=".3" d="M115.4 39.9l-4.3 33-14.6 44.4-7.7-7.8z"/><path fill="#373737" fill-opacity=".6" d="M155.4 83.7l-31.5 48.1-7.1 11 13.9 8.1z"/><path fill="#e8e8e8" d="M253.4 56.9L271 7.6 237.6 28l32.6 1.2z"/><path fill-opacity=".6" d="M12 102l12.6-15.5L34 94l-12.6 15.5zm108.8-48.2l22.9 3.8-25.8 40.9-14-6.3z"/><path fill="#fff" fill-opacity=".2" d="M128.4 117l-18.2 6.8 4.3-27.8 25.4 11.6z"/><circle r="1" fill="#020202" fill-opacity=".5" transform="matrix(-12.4531 -3.34063 2.04512 -7.62374 186.7 108.4)"/><path fill="#171717" fill-opacity=".5" d="M200 89l-37-2 3-33z"/><path fill="#d2d2d2" fill-opacity=".7" d="M236.9 37.5l34.1 22-23.8-4.9-4.6 34.2z"/><path fill="#c6c6c6" fill-opacity=".5" d="M162 90h23v8h-23z"/><ellipse cx="122" fill="#080808" fill-opacity=".4" rx="19" ry="8"/><path fill="#3c3c3c" fill-opacity=".4" d="M36 91l-1-20 59 23z"/><circle r="1" fill="#b1b1b1" fill-opacity=".6" transform="matrix(6.248 17.07348 -12.71255 4.65213 214.3 92.4)"/><ellipse cx="74" cy="110" fill="#404040" fill-opacity=".6" rx="13" ry="14"/><path fill="#fff" fill-opacity=".6" d="M92.1 29.7L36.4 40.1l-26.1 3.1L53.7 24z"/><path fill="#595959" fill-opacity=".4" d="M209.9 43.9l-25.8-1.4 78.5-32-48.2 6.7z"/><circle r="1" fill="#fcfcfc" fill-opacity=".5" transform="matrix(-1.54512 -1.47655 23.16386 -24.2396 0 136.4)"/><path fill="#fff" fill-opacity=".6" d="M271 137.1v13.5l-56.6-23.8 50.3-15.7z"/><path fill="#121212" fill-opacity=".7" d="M61 136l-3.9 20.7L18.9 185l28.6-53.8z"/><path fill="#b0b0b0" fill-opacity=".7" d="M156.4 167.2l-38.7 4.2 48.1-18.3 33.3-4.7z"/><circle cx="98" cy="159" r="24" fill="#ccc" fill-opacity=".6"/><path fill="#666" fill-opacity=".5" d="M-16 133l31-18 6-74z"/><path fill="#fff" fill-opacity=".5" d="M214 29h23v5h-23z"/><path fill="#b1b1b1" fill-opacity=".5" d="M145.3 63.4l7.3 14.6-13.7.1 7.4-22.6z"/><path fill="#030303" fill-opacity=".5" d="M189.1 40.6l12.8 9.6-39.1 21.6 6.6-24.8z"/><path fill="#8d8d8d" fill-opacity=".5" d="M197 53l-10 18 20 2z"/><path fill="#171717" fill-opacity=".5" d="M186 139.5l-2.4 8.7-13.5-3.7 2.3-8.7z"/><ellipse cx="144" cy="152" fill="#4e4e4e" fill-opacity=".4" rx="7" ry="19"/><path fill="#c4c4c4" fill-opacity=".7" d="M54.1 92.4L44 82.8l5.6 17 13.7-.3z"/><path fill="#e6e6e6" fill-opacity=".5" d="M179 137l-23-20 1-20z"/><path fill="#afafaf" fill-opacity=".9" d="M205.9-16l-15 35.5-69.5 2 58-9z"/><path fill="#adadad" d="M55.1 99.9l-39.4 30.9 9.4-22 7.7-11.3z"/><path fill="#474747" fill-opacity=".6" d="M150.3 121.1l-26.2-56.7 11.8 9.7 19.4 43.5z"/><path fill="#0d0d0d" fill-opacity=".6" d="M22 146L7 130l29-6z"/></g></svg>