<svg xmlns="http://www.w3.org/2000/svg" viewBox="0 0 300 199"><defs/><path fill="#5a3e33" d="M0 0h300v199H0z"/><g transform="translate(.6 .6) scale(1.17188)"><circle r="1" fill="#969588" fill-opacity=".7" transform="matrix(-4.68353 -27.385 161.21187 -27.5713 113 76)"/><circle r="1" fill="#f2e5cb" fill-opacity=".7" transform="matrix(-75.06113 9.57906 -1.64334 -12.87715 164.4 168.3)"/><ellipse cx="102" cy="14" fill="#462100" fill-opacity=".8" rx="159" ry="27"/><circle r="1" fill="#f1e6c9" fill-opacity=".4" transform="rotate(-73.4 112.5 -57.2) scale(16.47449 41.87491)"/><circle r="1" fill="#4b2000" fill-opacity=".8" transform="rotate(85.7 7.5 153.1) scale(20.45038 172.26661)"/><path fill="#deedfd" fill-opacity=".7" d="M34.5 58.3l46.4 23.3-11.2 7.8-37.2-14.7z"/><circle r="1" fill="#432b21" fill-opacity=".6" transform="matrix(-12.09503 7.15298 -31.64686 -53.51192 77.4 60.8)"/><path fill="#004d72" fill-opacity=".5" d="M78.7 96.1l-7.6 16.3L1.3 80l7.6-16.3z"/><circle r="1" fill="#895e34" fill-opacity=".6" transform="matrix(-6.1652 -31.71718 47.09993 -9.1553 214.4 59.5)"/><circle cx="6" cy="85" r="7" fill="#fff" fill-opacity=".6"/><path fill="#cfe9fa" fill-opacity=".5" d="M106.8 182.4l20.8-25.8 56.4-.6-3.8 29z"/><path fill="#c4eefa" fill-opacity=".8" d="M50.5 104L41 97.1 20.2 94l16.9 12.3z"/><circle r="1" fill="#b98d58" fill-opacity=".5" transform="matrix(-28.81503 21.36713 -7.34461 -9.90471 153 58.5)"/><ellipse cx="9" cy="100" fill="#00364a" fill-opacity=".7" rx="16" ry="7"/><circle r="1" fill="#b3deff" fill-opacity=".4" transform="matrix(-8.08079 12.93196 -15.33969 -9.5853 111.1 69.8)"/><circle r="1" fill="#291214" fill-opacity=".6" transform="rotate(-36.7 181.7 -89) scale(23.73796 5.71098)"/><circle r="1" fill="#d29f6a" fill-opacity=".5" transform="matrix(-32.3767 7.03881 -1.79772 -8.26907 213.7 158.6)"/><ellipse cx="16" cy="13" fill="#613e24" fill-opacity=".7" rx="39" ry="57"/><path fill="#000416" fill-opacity=".6" d="M84.1 53.2l-3.8 15.4-14.4 1L42.3 61z"/><path fill="#73513f" fill-opacity=".7" d="M187.3 85.4l2.3 14.8-166.9 26.4-2.3-14.8z"/><circle r="1" fill="#542c0a" fill-opacity=".9" transform="matrix(-53.93348 -9.23226 6.6834 -39.04344 49.2 169)"/><path fill="#b7c3d8" fill-opacity=".4" d="M75.4 92l26.1-43.5L77 71.9 58.2 86.2z"/><path fill="#efe7d0" fill-opacity=".4" d="M151.7 91.1l28.8-44.2-29.2 19.8L139 88.8z"/><circle r="1" fill="#452000" fill-opacity=".7" transform="matrix(-2.22425 -21.83978 118.89309 -12.10856 246.1 121.8)"/><circle r="1" fill="#361500" fill-opacity=".5" transform="matrix(84.38158 -8.71999 3.04088 29.426 187.5 6)"/><path fill="#865421" fill-opacity=".4" d="M125 78l28-49-11 54z"/><path fill="#b5864e" fill-opacity=".7" d="M127 158l-29 27 7-25z"/><circle r="1" fill="#482200" fill-opacity=".7" transform="matrix(-2.29365 -13.66258 55.2993 -9.28355 88.6 35)"/><path fill="#065e7c" fill-opacity=".7" d="M23.1 80.2l10.9-.1 32.4 8.8L12 96.1z"/><path fill="#542700" fill-opacity=".7" d="M271 185h-55l55-64z"/><path fill="#b5c6ce" fill-opacity=".5" d="M138.2 45.2l1.2 4.8L118 91.2 92.3 51.1z"/><path fill="#e7b277" fill-opacity=".5" d="M232.4 42.2l-36 37.4-18.5-7.9 8.5 10.5z"/><path fill="#dae2ea" fill-opacity=".5" d="M32.4 79.2l.2-15 29 .6-.2 15z"/><path fill="#8e8779" fill-opacity=".8" d="M259.3 78.6l4.2-35.1-18 10.7-.2 19.4z"/><path fill="#613b1b" fill-opacity=".9" d="M196.4 80.3l24.8-1.3-10.7-8.4L242.3 34z"/><path fill="#c9ac82" fill-opacity=".5" d="M151 59.6l29.9 37.3L152.1 40l-27.6 51.2z"/><path fill="#c19f7b" fill-opacity=".7" d="M153.9 154.6l72.2 16.8 24.3-23.9-26.7 4.1z"/><path fill="#764b32" fill-opacity=".6" d="M159.2 39.6l-6.6-2.6 34.8 68 10.9 1.2z"/><path fill="#633917" fill-opacity=".8" d="M269.8 23.2l-47.9 65.3 15.2-31.3L255.9 39z"/><path fill="#b5c0ce" fill-opacity=".5" d="M95.4 71.1l7.5 7.1-57.2.4 30.4 3.6z"/><circle cx="192" cy="67" r="5" fill="#2a1303" fill-opacity=".7"/><path fill="#e0e0dd" fill-opacity=".7" d="M-16 72.6l2.1 21.5 25.4-3.5 3.8-7.4z"/><path fill="#ebd6d0" fill-opacity=".6" d="M21.1 76.8l-2-5.7 5.8-2 2 5.8z"/><path fill="#643200" fill-opacity=".2" d="M56 95l104 21-7 53z"/><path fill="#141b26" fill-opacity=".8" d="M96.1 80.4L80.7 96.7l-1 19.6 1.5-37.1z"/><path fill="#f6dd9d" fill-opacity=".3" d="M225.6 77.2l-3.5-2 18.3-34.4 3.5 2z"/><path fill="#9dcaff" fill-opacity=".2" d="M29.6 102.5l40-3.3L1.8 125-15 107.8z"/><path fill="#66564f" d="M76.5 53.9l12-7.1 8 14.3-18.4-7.7z"/><path fill="#002942" fill-opacity=".5" d="M-8 73h28l-8 7z"/><path fill="#dbfbff" fill-opacity=".6" d="M46.9 104.2L31.5 93.5 21 94.7l16.9 9.9z"/><path fill="#713f18" fill-opacity=".7" d="M184.2 30l4.2-26-10.3 66.5 17.2-34.8z"/><path fill="#fad195" fill-opacity=".4" d="M165.1 77.6l5-36.6 13.2 2.8.6-12.5z"/><path fill="#855730" fill-opacity=".6" d="M153.3 62.6l-32.7 55.9-6 8.7 36.1-75.6z"/><path fill="#00061c" fill-opacity=".5" d="M61.4 71.7l1.2-9.9 22.1-5.5-8.3 19.8z"/><path fill="#0d4e68" fill-opacity=".6" d="M28 82.6l51.6 11.9-38.1 5.7-17.9-43.7z"/><path fill="#e9c391" fill-opacity=".5" d="M191.2 85.4l-1-.5 24.6-50.3 1 .5z"/><path fill="#bccfdf" fill-opacity=".5" d="M78 94l3-16-33-10z"/><path fill="#f8c388" fill-opacity=".3" d="M179.1 73.5l4.3-10.4 23.5-31.6 1.5 2.5z"/><ellipse cx="191" cy="152" fill="#824d18" fill-opacity=".5" rx="17" ry="3"/><ellipse cx="133" cy="166" fill="#e9f7ff" fill-opacity=".5" rx="13" ry="9"/><path fill="#c9ecff" fill-opacity=".5" d="M144 91.4l-4.2-2.7 10.1-16 4.3 2.6z"/><path fill="#828f80" fill-opacity=".4" d="M224 58l47-32-23 3z"/><circle r="1" fill="#6c524c" fill-opacity=".6" transform="rotate(79.8 40.9 159.3) scale(6.79734 90.70321)"/><path fill="#502a0b" fill-opacity=".7" d="M222.7 58.7L258.5-16l-27.2 67.6-29.2 26.2z"/><path fill="#dcc9bb" fill-opacity=".6" d="M131.1 82.8l-5.9-3.3 3 7.6 5.9-.8z"/></g></svg>