<svg xmlns="http://www.w3.org/2000/svg" viewBox="0 0 299 449"><defs/><path fill="#633c31" d="M0 0h299v449H0z"/><g transform="translate(.9 .9) scale(1.7539)"><circle r="1" fill="#b3aba5" fill-opacity=".6" transform="matrix(-134.05194 13.6144 -17.17696 -169.12999 78 150.4)"/><circle r="1" fill="#20180d" fill-opacity=".5" transform="matrix(12.81753 -20.68162 76.91236 47.66678 0 164)"/><circle r="1" fill="#482919" fill-opacity=".6" transform="matrix(21.30253 48.57525 -19.77793 8.67355 84.4 51)"/><circle cx="110" r="31" fill="#e7f4f6" fill-opacity=".7"/><circle r="1" fill="#e6fcff" fill-opacity=".5" transform="rotate(-84.1 205 43.5) scale(49.03294 16.08391)"/><circle r="1" fill="#eeeef5" fill-opacity=".4" transform="matrix(16.24072 -43.66997 14.43728 5.36918 116.9 128.1)"/><path fill="#030608" fill-opacity=".6" d="M-14.7 8.6L5.2 6l11.5 93.3-19.9 2.5z"/><path fill="#dddbdf" fill-opacity=".6" d="M32 86L8 68l42-84z"/><path fill="#281615" fill-opacity=".6" d="M143 175l30 46-24-97z"/><circle r="1" fill="#f7feff" fill-opacity=".4" transform="rotate(-120 89.6 -9.9) scale(11.96737 35.93396)"/><circle r="1" fill="#876455" transform="matrix(26.11044 10.2382 -10.73646 27.38118 62.6 63.8)"/><ellipse cx="49" cy="165" fill="#775955" fill-opacity=".9" rx="19" ry="25"/><circle cx="12" cy="160" r="17" fill="#021b0a" fill-opacity=".7"/><circle r="1" fill="#d1af9a" fill-opacity=".6" transform="rotate(-67.5 119.3 2.6) scale(33.90351 21.90459)"/><path fill="#c2d9e5" fill-opacity=".6" d="M0 110h31v30H0z"/><ellipse cx="72" cy="230" fill="#1c1616" fill-opacity=".7" rx="4" ry="27"/><path fill="#d9dce0" fill-opacity=".5" d="M149 174l-73-65 65 27z"/><ellipse cx="159" cy="220" fill-opacity=".6" rx="4" ry="20"/><path fill="#edf7ff" fill-opacity=".5" d="M70 142h10v52H70z"/><circle cx="34" cy="23" r="28" fill="#c4b2aa" fill-opacity=".5"/><circle r="1" fill="#2c1f1a" fill-opacity=".7" transform="matrix(6.62664 -5.27647 24.42834 30.67921 78.4 23.2)"/><circle r="1" fill="#a8b6bd" fill-opacity=".4" transform="matrix(-27.93102 6.49975 -11.0139 -47.32938 5.1 222.2)"/><ellipse cx="48" cy="215" fill="#473d37" fill-opacity=".8" rx="24" ry="8"/><path fill="#5f2000" fill-opacity=".4" d="M95.6 150.5l25.5-88.6L77.2 150l9.3 27.7z"/><path fill="#331807" fill-opacity=".5" d="M74.5 71.6l-5-10.9L31 93.2l41.3-7.7z"/><path fill="#dbe8f0" fill-opacity=".6" d="M179.2 185.6l6.8-30.9-26.4-8.5 7.5 49.9z"/><path fill="#000c11" fill-opacity=".8" d="M15.6 226.6l1.5 7.9-14.7 2.9-1.5-7.9z"/><ellipse cx="110" cy="197" fill="#b17f64" fill-opacity=".7" rx="29" ry="36"/><path fill="#d1a39a" fill-opacity=".5" d="M28.6 126l11-.8 5.8 82.8-11 .8z"/><circle r="1" fill="#5a351e" fill-opacity=".6" transform="matrix(-8.58183 -3.13075 18.96504 -51.98592 160.5 0)"/><path fill="#000a0f" fill-opacity=".7" d="M52.4 243l-16.3 4.7-2.5-8.7 16.3-4.7z"/><path fill="#dffbff" fill-opacity=".2" d="M52.4 218.1l18.9 17.7-1.7 25.9-84.2-11.5z"/><path fill="#020000" fill-opacity=".5" d="M54 181l14 15-4-47z"/><path fill="#cdcac7" fill-opacity=".9" d="M124.6 39.1l-21 1.7 5.6 5.3L142.3 60z"/><path fill="#ddc8b4" fill-opacity=".4" d="M98 271l-19.5-29.7-6.4-34.5 41.4 3.4z"/><path fill="#d4dee2" fill-opacity=".7" d="M144.5 192.6l-29 71.4 38.9-57.1 3.5-22.7z"/><path fill="#0d0302" fill-opacity=".6" d="M86.7 192.7l.1-6.9-15.6 16.5 18.8 1.2z"/><path fill="#200d00" fill-opacity=".4" d="M103.9 39.7l12.4 64.3-4.5 8.8-22.3-29.1z"/><path fill="#511f08" fill-opacity=".4" d="M120.5 187.1l9-30-12.9.6-15.4 16.6z"/><path fill="#a2593e" fill-opacity=".5" d="M153 53l23 94-39-15z"/><path fill="#713f30" fill-opacity=".5" d="M35 109l10-43 9 93z"/><path fill="#e2dfdb" fill-opacity=".3" d="M130.3 103.8L86 134.3l-17.3-17.9 32.7-3.8z"/><path fill="#240a09" fill-opacity=".5" d="M165 179l-22 11 3-48z"/><path fill="#faf3ec" fill-opacity=".3" d="M130.8 72.5l23.1-2.6-10.2-50 42.3 42z"/><path fill="#7c533f" fill-opacity=".4" d="M35.3 64.6L31 29.8l35.7-4.4L71 60.2z"/><path fill="#2b1f1e" fill-opacity=".6" d="M16 47l-28-60-4 120z"/><circle r="1" fill="#e2a78c" fill-opacity=".4" transform="matrix(-8.95256 -24.69741 5.0715 -1.83837 80.6 63.4)"/><path fill="#06151c" fill-opacity=".7" d="M12 208l-14 3-14-15z"/><path fill="#c8ccca" fill-opacity=".6" d="M98 20h33v13H98z"/><path fill="#f5e8e7" fill-opacity=".2" d="M26.6 99.1l-8.1-10.9-34.5 1.4 68.8-35z"/><path fill-opacity=".6" d="M153.3 136.8l-2.2 3.4-14.4-9 2.2-3.4z"/><path fill="#c5c0c1" fill-opacity=".5" d="M159 170l-8-26 23 6z"/><path fill="#c0b9b9" fill-opacity=".7" d="M12.8 45L4.3-5 58.2 7l-38 .6z"/><path fill="#c1bec2" fill-opacity=".8" d="M140.8 168.4l-5.5-45.2-31.2-6.7 50.5 58.9z"/><ellipse cx="72" cy="12" fill="#21100c" fill-opacity=".5" rx="6" ry="24"/><path fill="#b8b9bb" fill-opacity=".9" d="M28.2 197.5l-1.3-.1-42.9 29.4 36.9-2.6z"/><path fill="#160b0a" fill-opacity=".4" d="M60 214l17 31-5-52z"/><path fill="#c1b8b4" fill-opacity=".7" d="M138.8 50.9l-23.9 54 .5-40.6 4.6-23.9z"/><path fill="#491203" fill-opacity=".3" d="M121.6 205.2l.7-7.7-12.7 19.1-3 35.3z"/><path fill="#00101c" fill-opacity=".7" d="M-4 30l2-34L9 12z"/><path fill="#bdebff" fill-opacity=".4" d="M74.9 215.6l2 22.2L91 201l-15.8 4.9z"/><circle r="1" fill="#d9dcdd" fill-opacity=".6" transform="matrix(-8.10926 6.63133 -5.73839 -7.0173 47.5 15.2)"/><path fill="#966448" fill-opacity=".6" d="M172 35l14-23-78 25z"/><ellipse cx="59" cy="152" fill-opacity=".5" rx="5" ry="7"/><path fill="#b1b7b8" fill-opacity=".7" d="M86.8 26.3l31.8-18.2-30.2 3.6-7 3.2z"/></g></svg>