<svg xmlns="http://www.w3.org/2000/svg" viewBox="0 0 300 199"><defs/><path fill="#56443e" d="M0 0h300v199H0z"/><g transform="translate(.6 .6) scale(1.17188)"><circle r="1" fill="#a7aebf" fill-opacity=".4" transform="matrix(87.90464 -38.4046 22.78334 52.149 214.7 38.7)"/><ellipse cx="139" cy="131" fill="#090504" fill-opacity=".9" rx="43" ry="31"/><path fill="#ffcba3" fill-opacity=".6" d="M8.3 170.7L47 135.9l6.7 7.4L15 178.1z"/><path fill="#fff7a3" fill-opacity=".4" d="M49 104L33 69l-49 4z"/><path fill="#f0f1e4" fill-opacity=".5" d="M139 26h20v49h-20z"/><circle r="1" fill="#d0dad6" fill-opacity=".4" transform="matrix(78.26076 -8.37738 .32968 3.07985 54.6 17.6)"/><circle r="1" fill="#400201" fill-opacity=".7" transform="matrix(-27.6504 19.5052 -14.2881 -20.25466 3.2 142.6)"/><circle r="1" fill="#5d4239" fill-opacity=".6" transform="rotate(137.6 67.6 80) scale(35.65556 21.52706)"/><ellipse cx="128" cy="78" fill="#dc997c" fill-opacity=".7" rx="15" ry="13"/><path fill="#ffdeb6" fill-opacity=".5" d="M51 139.7l-8.4 5.3-11.7-18.7 8.5-5.3z"/><ellipse cx="57" cy="162" fill="#231910" fill-opacity=".7" rx="8" ry="122"/><circle r="1" fill="#828587" fill-opacity=".8" transform="matrix(12.66304 -7.26121 5.50826 9.60602 210.7 110.1)"/><ellipse cx="235" cy="158" fill="#0f121a" fill-opacity=".7" rx="45" ry="9"/><path fill="#070100" fill-opacity=".6" d="M96.6 74.8l19.3 17.3 54.5 34.4-68.8 43.4z"/><path fill="#a48580" fill-opacity=".4" d="M82 157l24-20-47-67z"/><path fill="#ffe9cd" fill-opacity=".6" d="M160.5 105V91h11v14z"/><path fill="#8d939c" d="M217.7 58.1L271 40.3l-15.4 50-8.8-3.7z"/><path fill="#3b3a3a" fill-opacity=".7" d="M49 31h88v34H49z"/><circle r="1" fill="#6e7888" fill-opacity=".5" transform="matrix(-1.95986 -7.26358 49.52387 -13.36257 120.2 15.4)"/><path fill="#da9688" fill-opacity=".6" d="M147.4 180.2l-32.6-10 3.8-12.4 32.6 10z"/><path fill="#070607" fill-opacity=".6" d="M150.6 77.9l-4.2 87.1-40.7-9-6.2-33.4z"/><path fill="#130b22" fill-opacity=".5" d="M213 39l12.7-21.4.5 2.3 44.8-4.5z"/><path fill="#b3b2c9" fill-opacity=".8" d="M225.2 26.7l-60.7 8.8 15.1-10.4 5.4-.5z"/><circle r="1" fill="#d5cffd" fill-opacity=".6" transform="rotate(72.5 97.6 181.5) scale(2.84682 24.91932)"/><path fill="#07010a" fill-opacity=".4" d="M230.1 72.5l12.4 68.9-20.7-44.2-9.1 6.7z"/><ellipse cx="7" cy="77" fill="#fffcd3" fill-opacity=".5" rx="24" ry="4"/><circle r="1" fill="#9f3326" fill-opacity=".4" transform="rotate(-103.4 51.2 49.1) scale(31.27959 14.33769)"/><path fill="#d79779" fill-opacity=".5" d="M190.8 146l-15.9 20.2-14.4 8.2 22.8-30.4z"/><circle r="1" fill="#130900" fill-opacity=".2" transform="matrix(-22.7734 7.26792 -8.37554 -26.24403 183.8 59.2)"/><path fill="#f8e9d7" fill-opacity=".2" d="M79.2 91.4L50.9 82l41 30.8-3.5-39.7z"/><path fill="#1b1608" fill-opacity=".6" d="M88.4 58.6L93.9 37 41.5 76.2l50.3-5.7z"/><path fill="#fff" fill-opacity=".7" d="M211.8 3.6l-.5-6 15-1.2.4 6z"/><path fill="#fffcf1" fill-opacity=".3" d="M5.6 24l79.1-8.7 34.5-1.5-36.8-3.6z"/><path fill="#9f9eac" fill-opacity=".6" d="M219 102h5v49h-5z"/><path fill="#0a0000" fill-opacity=".4" d="M82 6l44 7-13-16z"/><path fill="#b9baab" fill-opacity=".5" d="M148 61h18v22h-18z"/><path fill="#603a1b" fill-opacity=".5" d="M11 79h110v9H11z"/><path fill="#161027" fill-opacity=".4" d="M182.3 139.6l12.9-24.3L159.9 44l1.1-19.9z"/><path fill="#868389" fill-opacity=".5" d="M115 38l12 13-42 8z"/><path fill="#fcb296" fill-opacity=".6" d="M1.9 69.8l-10.4-19L5.1 95.6l4.8-10.2z"/><path fill="#140000" fill-opacity=".7" d="M-15.8 137.5l23.1-13.9 18.5 30.9-23.1 13.9z"/><path fill="#a7e7fe" fill-opacity=".2" d="M70.3-1l21.3 9.7 1-1.3-88.7 8.4z"/><path fill="#dbdce9" fill-opacity=".6" d="M187.3 23.6l-22.1 9.7 49.1-9.4-20.1 12.9z"/><path fill="#352e48" fill-opacity=".5" d="M181 35l10-17 16 3z"/><path fill="#9ca69b" fill-opacity=".4" d="M44 40l20 15-53-16z"/><path fill="#1c0700" fill-opacity=".5" d="M228 127l-3 34 27-46z"/><path fill="#92573c" fill-opacity=".6" d="M129.6 60.1l4.7 19.7-9.3-4.6-66.5 5.3z"/><path fill="#52504b" fill-opacity=".6" d="M35 106h56v20H35z"/><path fill="#6e535b" fill-opacity=".8" d="M206.3 128.1l-19.4 24.7 3.6-39.8 42.8 4.8z"/><path fill="#feae89" fill-opacity=".2" d="M177.8 90.3l-12 30.5-18-22.6L136 104z"/><path fill="#cf0f17" fill-opacity=".4" d="M8.7 185l36.3-4.9 14.2 4.5-15-31.1z"/><path fill="#45413a" fill-opacity=".6" d="M168 55.3l111-21.5 1 4.9-111 21.5z"/><path fill="#e9e6ff" fill-opacity=".5" d="M154.4 27.3l5.4-14 3.8 1.4-5.4 14z"/><circle r="1" fill="#140b0a" fill-opacity=".4" transform="matrix(11.09435 .52047 -1.85966 39.64085 60.4 157)"/><path fill="#fbb4a2" fill-opacity=".3" d="M141.6 77.1l-16.8 30.1-3.2-17.8-16.3-19.9z"/><path fill="#201617" fill-opacity=".6" d="M168 107h11v52h-11z"/><path fill="#f6c4a8" fill-opacity=".7" d="M188.2 95l4.5-2.2 3 6.2-4.4 2.2z"/><path fill="#4d5053" fill-opacity=".7" d="M85.1 16l10.8 24.2-65.1 6.9-17.3-22.5z"/><path fill="#40360c" fill-opacity=".5" d="M36 45l-52 4 28 26z"/><path fill="#141e17" fill-opacity=".5" d="M216 48h3v53h-3z"/><path fill="#433b42" d="M214.2 158.6l-22.3 18.1-59.1 8.3 62.1-25.5z"/><path fill="#8b98a1" fill-opacity=".8" d="M227 76.1l-6.2 13.6-1.8-36.3 40.2-6.3z"/><path fill="#c44a4b" fill-opacity=".5" d="M20.8 149.1l6.8-9.9 1.1-14.7-8.9 2z"/><path fill="#471a09" fill-opacity=".5" d="M94 83h27v25H94z"/><path fill="#fdbca1" fill-opacity=".4" d="M174.5 158.6l6.1 2.7-2.9-23.1 10.3 12.4z"/></g></svg>