<svg xmlns="http://www.w3.org/2000/svg" viewBox="0 0 300 199"><defs/><path fill="#696447" d="M0 0h300v199H0z"/><g transform="translate(.6 .6) scale(1.17188)"><circle r="1" fill="#c29f73" fill-opacity=".8" transform="matrix(-21.64194 183.95849 -174.47515 -20.52627 143 130)"/><path fill="#faffff" fill-opacity=".6" d="M142.2 43.5l26-1 3.6 104-26 1z"/><circle r="1" fill="#ad4b09" fill-opacity=".6" transform="matrix(-12.19338 24.45614 -51.81997 -25.83649 225 141.8)"/><ellipse cx="110" fill="#d5edfc" fill-opacity=".4" rx="36" ry="45"/><circle cx="99" cy="159" r="48" fill="#a44501" fill-opacity=".4"/><circle r="1" fill="#e9d8c3" fill-opacity=".5" transform="matrix(-51.67464 -6.71136 1.95694 -15.0676 228.1 97)"/><circle r="1" fill="#ffe19e" fill-opacity=".5" transform="matrix(13.55972 -7.1199 18.14844 34.56339 22 137.7)"/><path fill="#060007" fill-opacity=".7" d="M147.4 12.1l20 9.3-6.8 14.5-20-9.3z"/><ellipse cx="15" cy="50" fill="#76794b" fill-opacity=".5" rx="92" ry="46"/><circle r="1" fill="#540c00" fill-opacity=".4" transform="rotate(133.8 79.2 72.3) scale(25.29104 11.98813)"/><circle r="1" fill="#35160a" fill-opacity=".7" transform="matrix(-70.46153 -10.15366 .36073 -2.5033 235.1 115.7)"/><path fill="#ccd4d1" fill-opacity=".5" d="M172 24L90-16 230-2z"/><path fill="#f5fefc" fill-opacity=".5" d="M96.2 88.7l11.2-10.9-27.8-3.5-15.5 27.3z"/><ellipse cx="190" cy="161" fill="#c4752e" fill-opacity=".9" rx="55" ry="15"/><circle r="1" fill="#e9922b" fill-opacity=".4" transform="matrix(8.74522 16.14715 -92.8162 50.26881 38.8 134.8)"/><path fill="#e8f0ff" fill-opacity=".6" d="M18.2 185l23.3-53.6-23.6 10.3 28.2 27z"/><circle r="1" fill="#489db7" fill-opacity=".4" transform="rotate(172 49.2 82.8) scale(6.33977 49.02195)"/><path fill="#e4f1f2" fill-opacity=".6" d="M120 102l8 38 5-48z"/><circle r="1" fill="#e4f3ff" fill-opacity=".6" transform="matrix(12.2698 -7.16989 3.63122 6.2141 13.5 118)"/><path fill="#fff0fe" fill-opacity=".5" d="M187 151l-26-20 25 6z"/><path fill="#d6eef4" fill-opacity=".6" d="M75 127l2 20-13-9z"/><path fill="#7f4527" fill-opacity=".5" d="M143 109.2l-1.5 65.5-32.3-26.5-17-6z"/><circle r="1" fill="#86754b" fill-opacity=".5" transform="matrix(-42.99626 .43875 -.1665 -16.3171 237 69.7)"/><path fill="#d1d0c8" fill-opacity=".7" d="M131.2 87.4l-35.3 22.2.7-8.7L192.5 51z"/><circle r="1" fill="#d76910" fill-opacity=".5" transform="matrix(-10.76267 3.22876 -11.87734 -39.59162 87.7 133.7)"/><path fill="#696338" fill-opacity=".6" d="M116.8 73.8l-27.6-5 4-22.6 27.6 5z"/><path fill="#0a0d29" fill-opacity=".6" d="M79 147l-15-4 13 19z"/><path fill="#e1dee1" fill-opacity=".8" d="M162.8 29.3l9 102.3-22.8 22-7.8-13z"/><ellipse cx="136" cy="53" fill="#afaa8f" fill-opacity=".8" rx="13" ry="24"/><path fill="#ba5700" fill-opacity=".4" d="M42 145l-41 7 13 24z"/><path fill="#6b280e" fill-opacity=".5" d="M171 124.6l-1.8-16.9 21.9-2.3 1.7 16.9z"/><ellipse cx="242" cy="23" fill="#99a580" fill-opacity=".4" rx="78" ry="25"/><path fill="#98d9fd" fill-opacity=".3" d="M31.4 136.5l42.5-22.7.2 9.2-56.5 30.8z"/><path fill="#f4ffff" fill-opacity=".7" d="M-5.8 159.6l8.5-2.7 3.1 9.5-8.5 2.7z"/><circle r="1" fill="#b2ab93" fill-opacity=".6" transform="matrix(7.39296 -7.95577 32.1376 29.8641 77.9 16.6)"/><ellipse cx="159" cy="55" fill="#ebf3fe" fill-opacity=".5" rx="11" ry="19"/><path fill="#f3a61a" fill-opacity=".5" d="M-3.6 135.6L64 102.7l5.7 11.7L2 147.3z"/><path fill="#7e4a2e" fill-opacity=".8" d="M6.8 165.9L-16 118.1 25.6 185l-33.4-8.8z"/><path fill="#dde0ec" fill-opacity=".5" d="M111.2 130.3l-10 .4-.4-11 10-.4z"/><path fill="#ffa425" fill-opacity=".4" d="M53.9 185h-12l30.5-31.4-19.1-14.3z"/><path fill="#400c02" fill-opacity=".5" d="M143 110l-7 15 1-35z"/><path fill="#e0ecff" fill-opacity=".5" d="M45.1 185H25.6l3.2-23.2 16.8-13.7z"/><circle cx="41" cy="87" r="22" fill="#76674d" fill-opacity=".4"/><path fill="#21b6bf" fill-opacity=".5" d="M106 166l21 19-21-46z"/><path fill="#cdf7ff" fill-opacity=".4" d="M127 99h4v53h-4z"/><path fill="#a96133" fill-opacity=".7" d="M160.8 149.2l49.7-16.6-34.1-22.3 4.9 42.6z"/><path fill="#774b29" fill-opacity=".6" d="M170.3 56.9l16.6 18.6L209 57.1l-7.7-16.8z"/><path fill="#fff" fill-opacity=".5" d="M182 142l-17 3 7-13z"/><path fill="#00051e" fill-opacity=".5" d="M104 114h7v6h-7z"/><circle r="1" fill="#cdcac0" fill-opacity=".6" transform="matrix(-3.5775 -12.17449 36.46314 -10.71478 156.7 0)"/><ellipse cx="117" cy="137" fill="#163036" fill-opacity=".6" rx="3" ry="13"/><circle r="1" fill="#0c080e" fill-opacity=".5" transform="matrix(-6.17383 5.50068 -3.24966 -3.64734 147.6 21)"/><path fill="#d3cfd1" fill-opacity=".5" d="M140 88l5 33 26-61z"/><ellipse cx="113" cy="127" fill="#da7e2b" fill-opacity=".6" rx="3" ry="29"/><path fill="#feffff" fill-opacity=".5" d="M78 93l29-12-25 2z"/><path fill="#9c4920" fill-opacity=".4" d="M128.5 123.6l18.7 46.7-14.5-83.9 13.4-7.4z"/><path fill="#b6570b" fill-opacity=".4" d="M137 76l-48 24 25-26z"/><ellipse cx="102" cy="117" fill="#d8f2f4" fill-opacity=".5" rx="3" ry="6"/><circle r="1" fill="#928858" fill-opacity=".7" transform="matrix(-16.43937 22.81752 -45.01769 -32.43396 20.1 20.7)"/><path fill="#cb7426" fill-opacity=".8" d="M60.4 140.3l41.9-28.8-17.4-18.2 1.4 24.9z"/><path fill="#233e28" fill-opacity=".5" d="M45 182l7-18-4-11z"/><path fill="#fff4fc" fill-opacity=".5" d="M147 76l-15-10 7 11z"/><path fill="#e2972d" fill-opacity=".7" d="M31.1 181.8l-17.6-57.3-7.3 3.9 9.1 56.6z"/><path fill="#fff" fill-opacity=".5" d="M67 115h5v8h-5z"/><circle r="1" fill="#e9a435" fill-opacity=".5" transform="matrix(-2.25555 6.54565 -30.5665 -10.53283 218.8 169)"/></g></svg>