<svg xmlns="http://www.w3.org/2000/svg" viewBox="0 0 300 199"><defs/><path fill="#50362c" d="M0 0h300v199H0z"/><g transform="translate(.6 .6) scale(1.17188)"><circle cx="95" cy="35" r="125" fill="#cfcdb5" fill-opacity=".6"/><circle r="1" fill="#f1f7ff" fill-opacity=".7" transform="rotate(42.8 -95.4 68.8) scale(42.43993 35.02856)"/><circle cx="64" cy="159" r="48" fill="#5d5a5b"/><circle r="1" fill="#e3ecfd" fill-opacity=".6" transform="matrix(5.04591 24.36578 -21.78118 4.51066 143.2 131.9)"/><circle cx="200" cy="76" r="60" fill="#705f45" fill-opacity=".7"/><circle r="1" fill="#f6dbb9" fill-opacity=".7" transform="matrix(-82.82023 9.17418 -2.56982 -23.19911 132.9 0)"/><ellipse cx="204" cy="51" fill="#ceb8ad" fill-opacity=".6" rx="6" ry="143"/><path fill="#70481f" fill-opacity=".7" d="M-13.7 7.9l12-20.8 81.4 47-12 20.8z"/><circle r="1" fill="#002b31" fill-opacity=".4" transform="matrix(15.33532 -34.60272 12.70642 5.63127 114.2 113.3)"/><path fill="#0f2a13" fill-opacity=".6" d="M78.5 55v80h-13V55z"/><circle r="1" fill="#d7defe" fill-opacity=".5" transform="matrix(5.55424 6.989 -22.85857 18.16597 40.2 166)"/><circle r="1" fill="#845d17" fill-opacity=".5" transform="rotate(-119.2 93.8 -25.2) scale(28.97825 37.14868)"/><path fill="#181514" fill-opacity=".5" d="M169 89h30v63h-30z"/><path fill="#e6e7e9" fill-opacity=".7" d="M81.6 140.9l7.8-10.9-8.2-38.3 1.2 41.8z"/><ellipse cx="233" cy="149" fill="#003233" fill-opacity=".4" rx="18" ry="67"/><path fill="#dadce0" fill-opacity=".6" d="M64 111L2 23l-17 106z"/><circle r="1" fill="#4a3f40" fill-opacity=".8" transform="matrix(-33.30723 12.59245 -6.9063 -18.26726 26.7 140.8)"/><path fill="#f4f4fd" fill-opacity=".5" d="M129 155.1l26.9-48.4-18.3-23.1-14.2 58.4z"/><path fill="#ffd194" fill-opacity=".6" d="M250 35h6v33h-6z"/><ellipse cx="109" cy="80" fill="#bcbcb7" fill-opacity=".4" rx="11" ry="34"/><circle r="1" fill="#e6f5fa" fill-opacity=".7" transform="rotate(-52.9 154.5 76.9) scale(8.33666 4.17282)"/><path fill="#000007" fill-opacity=".6" d="M119 135l7-65 7 29z"/><ellipse cx="43" cy="71" fill="#e3eaf3" fill-opacity=".5" rx="16" ry="29"/><path fill="#433a3b" fill-opacity=".5" d="M0 79h51v4H0z"/><path fill="#dda96e" fill-opacity=".4" d="M185.3-7.4l24.3 84.9-35.1-21.8L255-16z"/><path fill="#a6a3bd" fill-opacity=".5" d="M222 100h13v23h-13z"/><path fill="#463d3d" fill-opacity=".5" d="M23 46h4v37h-4z"/><circle r="1" fill="#4a3025" fill-opacity=".6" transform="matrix(32.88562 -3.46209 1.86189 17.68566 117.4 169)"/><circle r="1" fill="#656660" fill-opacity=".6" transform="rotate(67.2 -31.5 228.6) scale(14.87254 29.86259)"/><path fill="#33593c" fill-opacity=".5" d="M81 114.3l-21 .4-1-57 21-.4z"/><ellipse cx="232" cy="29" fill="#553a15" fill-opacity=".6" rx="27" ry="15"/><ellipse cx="140" cy="144" fill="#dae3f1" fill-opacity=".4" rx="27" ry="10"/><path fill="#f5faff" fill-opacity=".5" d="M24 84.9L-8.2 39.1 50 45.4 12.8 32.3z"/><path fill="#4c4544" fill-opacity=".5" d="M-14 114l10 31 9-71z"/><path fill="#7e7d86" fill-opacity=".8" d="M-16 127.8l4.8-4.2 34.7-12.1 13.6 1.3z"/><circle cx="152" cy="74" r="13" fill="#3b3023" fill-opacity=".5"/><circle r="1" fill="#7d7f88" fill-opacity=".8" transform="matrix(-3.07068 -8.86388 13.29985 -4.60742 67.2 152.9)"/><path fill="#c6ab8b" fill-opacity=".8" d="M73.9 22.6l11.3 39.8 14-18.3L56.7-16z"/><circle r="1" fill="#7d605f" fill-opacity=".5" transform="rotate(107.7 45 118.6) scale(34.50554 12.9527)"/><ellipse cx="206" cy="132" fill="#b4c5ee" fill-opacity=".3" rx="7" ry="23"/><circle r="1" fill="#05000a" fill-opacity=".5" transform="rotate(152.2 -2.3 79.3) scale(29.04601 4.0889)"/><path fill="#3a383b" fill-opacity=".5" d="M45 53h2v37h-2z"/><path fill="#906745" fill-opacity=".8" d="M-16-16l84.4 68.4-38-14.7-46.4-18z"/><circle r="1" fill="#eec69c" fill-opacity=".6" transform="matrix(-3.06765 -20.28392 13.31246 -2.01332 187.5 2.7)"/><path fill="#7a6b4c" fill-opacity=".5" d="M112 159L91 61l-4 74z"/><path fill="#f0e2ca" fill-opacity=".6" d="M82.6 19.2l8.5-24.3 63 13.9-13.7 10.9z"/><path fill="#434848" fill-opacity=".5" d="M66.5 58.2L-7 35.7l.6-2L67 56.4z"/><path fill="#edffff" fill-opacity=".5" d="M-7 185h60l-4-28z"/><path fill="#9e8c64" fill-opacity=".7" d="M110.8 17.1L90.7 27.5l23.1 41.8 37.1 24z"/><path fill="#d7a17d" fill-opacity=".5" d="M193.6 167.5l-.3 5-38.9-2 .3-5z"/><path fill="#b0aa9a" d="M71.9 20.9l-11.6-1.1L6.5-16l71.4 2.3z"/><path fill="#fbfcfb" fill-opacity=".3" d="M29.1 128.7l-1.4-16L43.9 42l3.8 73.5z"/><path fill="#afffd1" fill-opacity=".5" d="M109 108h16v6h-16z"/><path fill="#111a15" fill-opacity=".4" d="M199.6 102.3l.4 46.7-18.7-8.6-16.1-12.4z"/><path fill="#edfcff" fill-opacity=".5" d="M13.3 120.1l-9.2 10.4-5.3 1.3L-16 126z"/><path fill="#dbc7bb" fill-opacity=".5" d="M197 31h7v53h-7z"/><path fill="#7b6049" fill-opacity=".5" d="M205.7 48l4.2 87.8 18.5-60.4 4.1-35.3z"/><path fill="#0147b3" fill-opacity=".4" d="M37.9 163.4l3.7-6.1-22.9 3.4L-16 185z"/><ellipse cx="52" cy="78" fill="#d7e0e8" fill-opacity=".6" rx="6" ry="34"/><path fill="#4f4a4b" fill-opacity=".5" d="M26 78h2v74h-2z"/><path fill="#443432" fill-opacity=".8" d="M77.2 139.2l4.5-18.4-5.2-51.6L61 143.6z"/><path fill="#180a12" fill-opacity=".5" d="M239.2 132.1l-8.1 46.6-12.8-33.9-.8-29.5z"/><path fill="#fff7ff" fill-opacity=".3" d="M106 143h9v13h-9z"/><circle cx="3" cy="61" r="19" fill="#fdfffd" fill-opacity=".5"/><ellipse cx="137" cy="31" fill="#3e1100" fill-opacity=".2" rx="63" ry="3"/></g></svg>