<svg xmlns="http://www.w3.org/2000/svg" viewBox="0 0 300 199"><defs/><path fill="#394366" d="M0 0h300v199H0z"/><g transform="translate(.6 .6) scale(1.17188)"><circle r="1" fill="#f9e7be" fill-opacity=".6" transform="matrix(35.90131 100.93934 -174.99593 62.24118 53.7 69.2)"/><circle r="1" fill="#272000" fill-opacity=".7" transform="matrix(-2.74367 -28.49412 132.37898 -12.74665 225.8 147)"/><circle r="1" fill="#827a69" fill-opacity=".9" transform="rotate(94.6 64.2 135.3) scale(26.59339 84.17088)"/><circle r="1" fill="#e5eae9" fill-opacity=".5" transform="rotate(-151.3 48.2 9.4) scale(44.47575 76.9362)"/><circle cx="17" cy="136" r="52" fill="#001264" fill-opacity=".2"/><circle r="1" fill="#7e6533" fill-opacity=".8" transform="matrix(-21.11801 -.41165 1.10524 -56.69964 247.5 25.3)"/><circle r="1" fill="#f9e0e5" fill-opacity=".3" transform="matrix(-8.7455 -70.84233 25.3973 -3.1353 97.5 138.8)"/><circle r="1" fill="#2f1510" fill-opacity=".8" transform="rotate(-93.9 127.5 1.8) scale(18.68451 5.12725)"/><path fill="#00000a" fill-opacity=".5" d="M162 69l40-16-32 46z"/><path fill="#2c1500" fill-opacity=".7" d="M17.8 84.7l-7.6 30-26.2-7.1.4-16.1z"/><ellipse cx="232" cy="136" fill="#1b1c00" fill-opacity=".8" rx="60" ry="26"/><path fill="#d5ccad" fill-opacity=".6" d="M204 0h23v113h-23z"/><ellipse cx="155" cy="110" fill="#cdd1d2" fill-opacity=".5" rx="15" ry="29"/><path fill="#110002" fill-opacity=".7" d="M128.5 59.5l17.8 12.9-8.8 12.1-17.8-12.9z"/><circle r="1" fill="#9f6e10" fill-opacity=".5" transform="matrix(4.35837 45.26342 -12.88938 1.2411 190.9 23.9)"/><path fill="#fee5bb" fill-opacity=".6" d="M151.1 72.9l12.7-9.4 21.3 6.3-32.3-37.9z"/><circle r="1" fill="#b0c3cb" fill-opacity=".5" transform="matrix(-3.32994 -39.5294 24.46265 -2.06072 41.8 84.6)"/><path fill="#ccd1cf" fill-opacity=".5" d="M184 75h18v42h-18z"/><path fill="#f7fafc" fill-opacity=".6" d="M65 0h19v85H65z"/><path fill="#553500" fill-opacity=".4" d="M14-6.2L8.9 42.6-14 40.2l5.1-48.8z"/><ellipse cx="79" cy="131" fill="#f5ffff" fill-opacity=".6" rx="10" ry="17"/><path fill="#3f4033" fill-opacity=".4" d="M206 101l17-38-29 3z"/><path fill="#141500" fill-opacity=".6" d="M231 98h25v72h-25z"/><path fill="#244888" fill-opacity=".5" d="M34 126h33v22H34z"/><path fill="#7d6339" fill-opacity=".3" d="M110.3 30l8.4-11.1-60.3 17.9 72.1 15.5z"/><path fill="#d25a52" fill-opacity=".5" d="M0 161h128v9H0z"/><path fill="#c7ab71" fill-opacity=".5" d="M196 5l-59-16 38 86z"/><path fill="#ada89a" d="M128.5 119l18.7-17.9-46.1-49.2 2.3 31.9z"/><circle r="1" fill="#796458" fill-opacity=".5" transform="matrix(14.03335 -12.63568 14.329 15.91396 108.2 155.8)"/><path fill="#d7d6db" fill-opacity=".5" d="M148 124l-11 16 44-17z"/><path fill="#b9c0c3" fill-opacity=".8" d="M12-15l53 73-17 72z"/><path fill="#fcfdfc" fill-opacity=".8" d="M11.2 60.8l-19.5 4.1-3-13.7 19.6-4.1z"/><path fill="#c8cac1" fill-opacity=".4" d="M15 167.2l-4.8-30.6-26.2-31.5 48.7 23z"/><path fill="#00020f" fill-opacity=".6" d="M173 100l7-33-20 32z"/><path fill="#a6a292" fill-opacity=".7" d="M245.6 94l-34-1.1.8-21 34 1.2z"/><path fill="#150d00" fill-opacity=".6" d="M227 46h8v25h-8z"/><path fill="#1e1900" fill-opacity=".6" d="M176 116h64v8h-64z"/><circle r="1" fill="#151c00" fill-opacity=".6" transform="matrix(-12.58567 10.6551 -17.3977 -20.54994 150.3 161.5)"/><path fill="#2b1d25" fill-opacity=".5" d="M127.7 71.2l3 14.3 13.8.2 8.9-24.4z"/><path fill="#f9fdff" fill-opacity=".6" d="M63.8 18.8l15.4 7.6 23.8-3L86.5-6z"/><path fill="#fff4d5" fill-opacity=".4" d="M116 19h21v41h-21z"/><path fill="#1f0505" fill-opacity=".5" d="M199 57l-2.2 18-15.8-2 2.2-18z"/><circle cx="56" cy="164" r="6" fill="#f5c8cc" fill-opacity=".7"/><path fill="#b9a57f" fill-opacity=".5" d="M106.9 21.5L102.6-5l40.5-6.4 4.3 26.6z"/><path fill="#386398" fill-opacity=".3" d="M15.8 159.8l52.4-11.9L79 101.2l-7-4.9z"/><path fill="#9c9b97" fill-opacity=".8" d="M173.9 103.9l41.1 11.6 10.6-6-46.1-31z"/><path fill="#d6d5cb" fill-opacity=".5" d="M101 87h27v45h-27z"/><path fill="#77756a" fill-opacity=".8" d="M104.5 76.3l21.3-5.4 1.7 6.8-21.3 5.4z"/><path fill="#ece0c1" fill-opacity=".5" d="M203 28h23v36h-23z"/><path fill="#242708" fill-opacity=".5" d="M165.3 121.8l-4.9 13.6-10 2.6 27.1 47z"/><path fill="#bbb9b6" fill-opacity=".8" d="M152.9 128.9l-2.1-49.6 28.3 46.4.7 3z"/><path fill="#e9e2b4" fill-opacity=".5" d="M259.5 10.1l11.5 2.3-30.3-4.7-14.2 4.6z"/><circle r="1" fill="#bfc8c7" fill-opacity=".5" transform="rotate(-177.5 80.2 40.1) scale(7.32388 10.89934)"/><path fill="#696856" fill-opacity=".4" d="M1.4 91.8l15.2-3.5 6.7-24.6-13.7-.5z"/><path fill="#00072e" fill-opacity=".3" d="M159.3 75.8l20.3 8.3-11.2-28.4-16.1 22.1z"/><path fill="#ffffe8" fill-opacity=".4" d="M152.2 70.6L147 46l12.8-2.7L165 68z"/><ellipse cx="3" cy="164" fill="#695954" fill-opacity=".7" rx="6" ry="22"/><path fill="#cdb693" fill-opacity=".5" d="M139 45L98 62l11-37z"/><path fill="#fff" fill-opacity=".5" d="M86.4 45l13 1.1-1.8 21-13-1.2z"/><path fill="#9c926f" fill-opacity=".6" d="M138.7 72.4l2.8-48.1 25.8-3.4-5.6-.9z"/><path fill="#646874" fill-opacity=".6" d="M33 98l12 46-22-34z"/><path fill="#575756" fill-opacity=".7" d="M217.4 90.7l-21.9 7.5 4.6-1.9 1.4-25.1z"/><circle cx="100" cy="30" r="5" fill="#2e3a3c" fill-opacity=".5"/><path fill="#43443b" fill-opacity=".5" d="M183 110l-8 9 3-21z"/><path fill="#140f03" fill-opacity=".4" d="M114.3 82.8l-9.2-12.1 2.8 11 4.9 6.2z"/></g></svg>