<svg xmlns="http://www.w3.org/2000/svg" viewBox="0 0 300 199"><defs/><path fill="#553c2f" d="M0 0h300v199H0z"/><g transform="translate(.6 .6) scale(1.17188)"><circle r="1" fill="#7e8b84" fill-opacity=".8" transform="rotate(-5.7 377.5 -2146.5) scale(255 118.08456)"/><circle r="1" fill="#0a2b2f" fill-opacity=".7" transform="rotate(58.1 -49.4 167.8) scale(39.08001 80.02693)"/><circle r="1" fill="#fff6ec" fill-opacity=".5" transform="matrix(15.92672 .33362 -2.3084 110.202 255.2 40.5)"/><ellipse cx="12" cy="97" fill="#ece2db" fill-opacity=".6" rx="69" ry="27"/><ellipse cx="17" cy="44" fill-opacity=".4" rx="82" ry="32"/><circle r="1" fill="#ffd7b1" fill-opacity=".4" transform="rotate(52.5 37.7 106.1) scale(28.0065 44.7647)"/><circle r="1" fill="#0d0000" fill-opacity=".6" transform="matrix(13.14284 -6.04046 9.24774 20.12125 222.1 53.5)"/><circle r="1" fill="#ffc17f" fill-opacity=".5" transform="matrix(4.01883 16.44036 -44.94244 10.98613 200.8 138.4)"/><path fill="#ffe0d0" fill-opacity=".5" d="M202.5 32.6l17 55.5-24 7.3-17-55.5z"/><path fill-opacity=".5" d="M175.5 100l41.6-5.8 3.4 23.8-41.6 5.8z"/><circle r="1" fill="#001117" fill-opacity=".5" transform="matrix(-7.28553 -14.88039 96.85332 -47.41996 29.5 153.5)"/><path fill="#edebe8" fill-opacity=".5" d="M210-6.9l34.6 10-8.6 29.8-34.6-10z"/><ellipse cx="85" cy="71" fill="#002427" fill-opacity=".6" rx="13" ry="25"/><path fill="#abc5b6" fill-opacity=".5" d="M99 43h33v46H99z"/><ellipse cx="145" cy="60" fill="#1b595c" fill-opacity=".7" rx="20" ry="33"/><circle r="1" fill="#e9fcff" fill-opacity=".5" transform="matrix(5.17952 -6.13734 24.67315 20.82255 56.5 80.9)"/><path fill="#380000" fill-opacity=".5" d="M69 16h22v22H69z"/><path fill="#051317" fill-opacity=".6" d="M18 170l2-75 33 76z"/><path fill="#eaf7f1" fill-opacity=".5" d="M0 70h12v69H0z"/><circle r="1" fill="#af5e21" fill-opacity=".5" transform="matrix(2.44703 22.8974 -79.58464 8.50514 211.3 166.3)"/><path fill="#e2cfae" fill-opacity=".5" d="M158 24L-12 5l135-21z"/><path fill="#2b2827" fill-opacity=".5" d="M63 15L0 14l21 86z"/><path fill-opacity=".6" d="M153 16.2l-10.8-9 12.9-15.4 10.7 9z"/><path fill="#fff" fill-opacity=".5" d="M269 161l1 6-51 10-1-6z"/><path fill="#2a333a" fill-opacity=".7" d="M150.3 11.6L186.9 25 139 69.5l42.5-22.2z"/><path fill="#2c2e18" fill-opacity=".6" d="M112 20h21v12h-21z"/><path fill="#e9f4ff" fill-opacity=".5" d="M180 14l-21-2 30-28z"/><path fill="#ffa652" fill-opacity=".3" d="M73 156l-32 29 96-21z"/><path fill="#ffebeb" fill-opacity=".5" d="M152 28h17v12h-17z"/><path fill="#005f68" fill-opacity=".5" d="M73.6 78.2L47 73.5l3.4-19.7L77 58.5z"/><path fill="#feffff" fill-opacity=".6" d="M90 33l22-3-4-35z"/><path fill="#f6f1f7" fill-opacity=".3" d="M80 96.4L46.1 132 38 46.9 24.4 58.8z"/><path fill="#d7eff6" fill-opacity=".6" d="M61 3l8 21-6 16z"/><path fill="#fffdff" fill-opacity=".6" d="M118.7 81.6l4.5-5.4 10 8.2-4.4 5.4z"/><ellipse cx="219" cy="44" fill="#000002" fill-opacity=".5" rx="7" ry="20"/><path fill="#243230" fill-opacity=".6" d="M156 45h10v100h-10z"/><path fill="#fffffb" fill-opacity=".6" d="M139 9L63-12l87-4z"/><path fill="#b76300" fill-opacity=".5" d="M108 6h24v10h-24z"/><ellipse cx="196" cy="133" fill="#e2c4ad" fill-opacity=".5" rx="24" ry="12"/><path fill="#f2aa6c" fill-opacity=".7" d="M2 46V12l-18 38z"/><path fill="#29352b" fill-opacity=".5" d="M105 78l12.6-15.5L127 70l-12.6 15.5z"/><circle r="1" fill="#c8a277" fill-opacity=".5" transform="matrix(-18.58718 10.79524 -5.53316 -9.52697 223.6 77.8)"/><path fill="#24b3b9" fill-opacity=".5" d="M110.3 49.2l1.4-20 22 1.6-1.4 20z"/><path fill="#210300" fill-opacity=".4" d="M231 89l-10.5 28.3-21 1.3-8.9-19.7z"/><path fill="#1d383e" fill-opacity=".6" d="M90.3 167.6L80.2 95.3l49.5-7 10.1 72.4z"/><path fill="#031615" fill-opacity=".5" d="M17 14h44v22H17z"/><ellipse cx="193" cy="5" fill="#3a2815" fill-opacity=".5" rx="8" ry="18"/><path fill="#246368" fill-opacity=".5" d="M130 62h25v98h-25z"/><path fill="#ae9277" fill-opacity=".8" d="M-16 91.7l26.4-5.6L55 59.2 27.6 93.4z"/><ellipse cx="251" cy="104" fill="#d4d3d1" fill-opacity=".7" rx="18" ry="27"/><path fill="#bc702d" fill-opacity=".7" d="M271 163v-37l-27 6z"/><path fill="#196269" fill-opacity=".5" d="M55 34l39 62-75-61z"/><path fill="#dfc2b6" fill-opacity=".4" d="M230 91l-27-43-39 6z"/><circle r="1" fill="#651b13" fill-opacity=".4" transform="rotate(120.7 35 35.5) scale(20.39773 8.80521)"/><circle r="1" fill="#c6ae9e" fill-opacity=".7" transform="matrix(4.86865 -11.2724 14.08614 6.08393 193.6 41.3)"/><path fill="#fff" fill-opacity=".5" d="M50 78h25v17H50z"/><path fill="#b9ad7b" fill-opacity=".5" d="M110 46l-7-22-41 24z"/><path fill="#1c2929" fill-opacity=".8" d="M100.8 148.8l-67.4 25.6L77 103.6l6.6-7.9z"/><path fill="#f7eae6" fill-opacity=".5" d="M123 47l-21 4 24 11z"/><path fill="#858d5b" fill-opacity=".7" d="M20 115l-24 27 17 1z"/><circle r="1" fill="#c5c7c3" fill-opacity=".7" transform="rotate(146.7 124.1 49.5) scale(30.99038 45.4118)"/><path fill="#decfbf" fill-opacity=".5" d="M8 4h37v10H8z"/><circle cx="218" cy="51" r="13" fill="#121116" fill-opacity=".5"/><circle r="1" fill="#e49b46" fill-opacity=".5" transform="rotate(-117.6 82.7 65.4) scale(2.74642 25.93582)"/><path fill="#2b3d3c" fill-opacity=".7" d="M146.7 34.1l3.9 49.5 24.6-55.3 7.1 28.4z"/></g></svg>