<svg xmlns="http://www.w3.org/2000/svg" viewBox="0 0 300 199"><defs/><path fill="#494e27" d="M0 0h300v199H0z"/><g transform="translate(.6 .6) scale(1.17188)"><circle r="1" fill="#a9a3a9" fill-opacity=".8" transform="matrix(-8.31185 -153.47383 210.34439 -11.39184 124.5 34.3)"/><circle r="1" fill="#262802" fill-opacity=".9" transform="matrix(-42.18334 3.24583 -1.25374 -16.29386 35 83.3)"/><circle r="1" fill="#e1dcde" fill-opacity=".6" transform="matrix(38.46605 -47.84212 33.69396 27.09064 111.3 30.2)"/><circle r="1" fill="#4b4e4a" fill-opacity=".6" transform="matrix(27.10143 79.60037 -27.05 9.20968 221 155.9)"/><ellipse cx="91" cy="119" fill="#0c0e09" fill-opacity=".4" rx="18" ry="27"/><path fill="#5b544b" fill-opacity=".6" d="M101.8 46.2l9.7 17.5-25.3 14-9.7-17.4z"/><circle r="1" fill="#f5e9fc" fill-opacity=".6" transform="matrix(5.53706 6.48107 -48.13498 41.12383 192.8 15)"/><path fill="#1f0f13" fill-opacity=".4" d="M245.8 6.3L257 34l-28.8 11.6L217 18z"/><ellipse cx="3" cy="24" fill="#eef9ff" fill-opacity=".5" rx="14" ry="28"/><path fill="#e7e5ee" fill-opacity=".6" d="M108 90h28v38h-28z"/><circle r="1" fill="#422718" fill-opacity=".4" transform="rotate(-28 222.1 -258.5) scale(31.26874 9.06063)"/><circle r="1" fill="#bbc5cc" fill-opacity=".6" transform="rotate(-54.2 149.7 28) scale(44.01617 16.36201)"/><path fill="#531714" fill-opacity=".5" d="M160 4l54-20-47 38z"/><circle r="1" fill="#614623" fill-opacity=".5" transform="rotate(115.5 21.2 22.2) scale(32.86404 7.54308)"/><path fill="#cdd7de" fill-opacity=".5" d="M-21.5 79.9l-4-14.5 87-23.3 4 14.5z"/><path fill="#6e5b52" d="M264.1 45.9l6.9 71.9-19.9-55.1-92.7 33.4z"/><path fill="#e0d1cc" fill-opacity=".6" d="M216.2 65.9L185 76.6l-9.2-26.5L207 39.4z"/><path fill="#e9dfdf" fill-opacity=".4" d="M99.9 135.6l1.4-29.3-11.7 8.5-8.4 14.6z"/><circle r="1" fill="#bcc6d0" fill-opacity=".4" transform="rotate(-146.8 140 12.4) scale(39.03038 22.51219)"/><path fill="#1a1b1f" fill-opacity=".5" d="M-6.6 76l28.5-33.6 4.4-14.3L-3 65.2z"/><ellipse cx="113" cy="9" fill="#dee0e5" fill-opacity=".6" rx="39" ry="29"/><path fill="#e0ddd5" fill-opacity=".5" d="M25 47l-3-63 28 3z"/><path fill="#dedce6" fill-opacity=".5" d="M81.9 79.3L150 39.9l-41.4 57.9-26.8-35.2z"/><path fill="#947161" fill-opacity=".4" d="M108.8 67.5L95.6 51.2l25.6-20.7 13.2 16.3z"/><path fill="#4e534c" fill-opacity=".5" d="M56 132h71v12H56z"/><circle r="1" fill="#676765" fill-opacity=".9" transform="rotate(-175.5 117.5 80) scale(53.89806 22.47457)"/><path fill="#cea697" fill-opacity=".7" d="M176.2 88.6l-31.4-27.8 25.8 8 99-37.8z"/><ellipse cx="90" cy="158" fill="#a5aaad" fill-opacity=".5" rx="88" ry="16"/><path fill="#141b1a" fill-opacity=".4" d="M137 71h4v77h-4z"/><ellipse cx="58" cy="2" fill="#856c58" fill-opacity=".7" rx="17" ry="24"/><path fill="#b1a1b7" fill-opacity=".5" d="M236.8 9.9l-5.9 12-79 34L230-11.6z"/><ellipse cx="39" cy="118" fill="#b2b6ba" fill-opacity=".8" rx="32" ry="17"/><circle r="1" fill="#2f271d" fill-opacity=".4" transform="matrix(15.2982 2.23177 -1.21709 8.34283 0 133)"/><path fill-opacity=".3" d="M107 94l-1 21-31-11z"/><path fill="#aab0b4" fill-opacity=".5" d="M187.7 110.8L164 153.7l-29.7-16.5L158 94.3z"/><path fill="#05150e" fill-opacity=".1" d="M216 26.3l44.3 4.9-73.1 35.9 18.5-28z"/><path fill="#323539" fill-opacity=".5" d="M18 14h7v34h-7z"/><circle r="1" fill="#222100" fill-opacity=".5" transform="matrix(31.22328 -5.85089 3.22386 17.20414 34 82.8)"/><path fill="#36361b" fill-opacity=".4" d="M65 158l8-3-12-24z"/><path fill="#dde2eb" fill-opacity=".4" d="M27.7 53.3L8.3 74.7l-18.6 14.1 28.2-44z"/><path fill="#55544e" fill-opacity=".4" d="M163.6 96.4l-2.7-20-14.7-8.3-36.6 12.7z"/><path fill="#d0d7d9" fill-opacity=".5" d="M37.5 40.8L88.6 9.7 52.5 39.5l1.7 2.7z"/><circle r="1" fill="#050503" fill-opacity=".4" transform="matrix(6.4295 -5.52757 1.34514 1.56463 56.9 38.9)"/><path fill="#2e311e" fill-opacity=".4" d="M144 145.6l-2.4 4.4-25.6-13.6 2.4-4.4z"/><path fill="#040908" fill-opacity=".3" d="M35.3 50L5.8 44.6l26.8.5 16.3-34.5z"/><circle r="1" fill="#54554f" fill-opacity=".5" transform="matrix(13.31134 18.08378 -18.98399 13.97397 211.7 135.6)"/><path fill="#d9dbd8" fill-opacity=".5" d="M24 5h10v40H24z"/><path fill="#100f08" fill-opacity=".5" d="M77.2 107.3l5 .6-3.4 32.8-5-.6z"/><path fill="#77836c" fill-opacity=".2" d="M91.9 85.7l-27.5 8.2-10-24.8 39.5-19.3z"/><path fill="#c7cdd3" fill-opacity=".5" d="M67.7 106.7L62 96.1l20.3-10.8L88 95.9z"/><path fill="#dad0ff" fill-opacity=".3" d="M257.8-30.1l16.4 53.5-22 6.7-16.4-53.5z"/><path fill="#be7f72" fill-opacity=".5" d="M154.8 3.5l16.3-13.2-8.5 28.6-10.7 1.3z"/><circle cx="185" cy="57" r="9" fill="#e3fcff" fill-opacity=".4"/><path fill="#070b01" fill-opacity=".2" d="M84.4 62.1l20.2-8.3 13 8.9-37.4 2z"/><path fill="#b8b1b6" fill-opacity=".5" d="M139.2 130.1l-18.8 12.1-10.4-9.8L95.8 185z"/><path fill="#d0d2d2" fill-opacity=".4" d="M101.9-16L47.1 57.9 64.2 68l61.7-33.3z"/><path fill="#2d2d2c" fill-opacity=".5" d="M100.6 143.9l1.9-45 5.4 31.3 4.3.4z"/><path fill="#81675c" fill-opacity=".7" d="M168.9 89.6l44.4 37.4-22.2-18.6-8.3-27.1z"/><path fill="#d7d7e0" fill-opacity=".7" d="M104 94.1l33.4-48.2L88.7 80l10.6 13.1z"/><path fill="#ffecf5" fill-opacity=".3" d="M148.3 38.1L98.8 81.7l83.8-55.6-65.5-16.8z"/><path fill="#fff" fill-opacity=".4" d="M98 110h2v28h-2z"/><path fill="#a5abae" fill-opacity=".8" d="M-16 144.6l103.5-.4-85.7 20.2-17.8 4.2z"/><path fill="#b7b9bd" fill-opacity=".5" d="M68 89l-25 15 30 37z"/><path fill="#746a68" fill-opacity=".6" d="M176.3 46.4l2.3 13.1-1.6 7.1-28.6-6.4z"/><path fill="#010204" fill-opacity=".3" d="M19.6 27.4l10.2-1.3L23.4 37l-6.9-53z"/></g></svg>