<svg xmlns="http://www.w3.org/2000/svg" viewBox="0 0 299 449"><defs/><path fill="#8a6643" d="M0 0h299v449H0z"/><g transform="translate(.9 .9) scale(1.7539)"><circle r="1" fill="#edece6" fill-opacity=".7" transform="matrix(-47.72743 55.27602 -128.67252 -111.10077 56.2 208.5)"/><circle r="1" fill="#d4ebf4" fill-opacity=".7" transform="matrix(41.65084 -71.62407 25.1183 14.6068 14.8 36.8)"/><path fill="#474a3f" fill-opacity=".7" d="M128 97h43v124h-43z"/><ellipse cx="92" cy="162" fill="#b8a693" rx="28" ry="41"/><path fill="#f9fdfb" fill-opacity=".7" d="M9 168l-15 94 73-2z"/><circle r="1" fill="#111f23" fill-opacity=".4" transform="matrix(19.58746 67.42046 -22.25472 6.4656 116.1 89.1)"/><circle r="1" fill="#8de3f9" fill-opacity=".2" transform="rotate(-63 102.3 -122) scale(65.06452 82.32065)"/><path fill="#452805" fill-opacity=".6" d="M101.8 167.4l-19.3 28.1 1.9 4.8 34.4-9.1z"/><path fill="#fff1d6" fill-opacity=".4" d="M106 164h65v16h-65z"/><path fill="#ffe5d4" fill-opacity=".4" d="M64 51h18v39H64z"/><circle r="1" fill="#6d3508" fill-opacity=".5" transform="rotate(72.3 -45.5 88.3) scale(26.63139 17.47916)"/><ellipse cx="21" cy="144" fill="#fffcf7" fill-opacity=".5" rx="12" ry="39"/><circle r="1" fill="#665026" fill-opacity=".5" transform="matrix(-7.34858 -.84013 2.02385 -17.70261 2 173.8)"/><path fill="#f3dfd3" fill-opacity=".6" d="M79.1 113l10.2-6.3 37.6 60.2-10.2 6.4z"/><circle cx="89" cy="9" r="39" fill="#3b5362" fill-opacity=".3"/><ellipse cx="166" cy="240" fill="#ddd7ca" fill-opacity=".6" rx="45" ry="26"/><path fill="#361800" fill-opacity=".5" d="M76 89l110 58-43 23z"/><path fill="#a26837" fill-opacity=".4" d="M47.6 197.9l-8.7 2.3-14.5-54 8.7-2.4z"/><path fill="#35595d" fill-opacity=".7" d="M141 177.2l49.9 2.6-1.9 35-49.9-2.6z"/><path fill="#3f1e00" fill-opacity=".6" d="M54 32h38v16H54z"/><circle r="1" fill="#ac9e7d" fill-opacity=".7" transform="matrix(-19.048 6.8577 -29.85127 -82.91509 165.3 27.1)"/><circle r="1" fill="#a1987c" fill-opacity=".6" transform="matrix(-15.87016 27.95518 -10.81214 -6.13805 25.6 82.4)"/><circle r="1" fill="#d9d1c5" fill-opacity=".6" transform="rotate(-157.9 54.2 94.5) scale(8.02864 66.27056)"/><path fill="#ce9e7c" fill-opacity=".5" d="M123.4 231l11.9-23.6 6.8-32.4-24.3-33.1z"/><circle r="1" fill="#7c4b3a" fill-opacity=".3" transform="matrix(-11.50435 25.90936 -14.3712 -6.38115 70.8 131)"/><circle r="1" fill="#f0fcff" fill-opacity=".6" transform="matrix(-5.66423 .14656 -.52373 -20.2404 49.2 162.2)"/><circle r="1" fill="#deeef1" fill-opacity=".3" transform="matrix(-25.1154 18.65309 -6.11753 -8.23693 36.8 34.3)"/><ellipse cx="124" cy="74" fill="#605a4b" fill-opacity=".6" rx="20" ry="47"/><path fill="#643a16" fill-opacity=".4" d="M14 73.5l8.7 10.6L46.6 99l33.6-31.7z"/><ellipse cx="70" cy="209" fill="#efd7c7" fill-opacity=".7" rx="53" ry="9"/><path fill="#80a6a1" fill-opacity=".5" d="M186 185.7l-33.8 18.4-11.6-18.5 9 3.4z"/><path fill="#441907" fill-opacity=".6" d="M70.2 119.3l5.8 8.6 3.3-10.2 26.5-54.4z"/><circle r="1" fill="#392002" fill-opacity=".5" transform="matrix(3.52253 .56329 -1.98098 12.38812 97.6 173.4)"/><path fill="#fcd5c2" fill-opacity=".4" d="M64.4 71.9l-1.1 23.7-2.2-43.9 21.1-3.6z"/><ellipse cx="6" cy="86" fill="#b7b9b2" fill-opacity=".8" rx="13" ry="32"/><path fill="#d3967a" fill-opacity=".5" d="M61 82l10.7-5.3L83 100l-10.8 5.2z"/><path fill="#d7d4ce" fill-opacity=".5" d="M83 181l-27-60 42 36z"/><circle r="1" fill="#54260a" fill-opacity=".5" transform="rotate(-98.5 88 4.4) scale(27.58459 10.07035)"/><path fill="#9d826d" fill-opacity=".6" d="M176.1 221.9l-51-2.5-42.1-1.2 37.9 6z"/><path fill="#74512b" fill-opacity=".6" d="M119.4 193.9l29.8-26.4-29.3-33.1 19.4 49.6z"/><circle r="1" fill="#e7ddc2" fill-opacity=".5" transform="rotate(176 79.8 88.7) scale(18.60005 4.97414)"/><path fill="#011514" fill-opacity=".4" d="M156 213.5l-21.3-22.2 51.3-9.1-46.9-.8z"/><ellipse cx="25" cy="179" fill="#efd1bb" fill-opacity=".6" rx="9" ry="36"/><ellipse cx="59" cy="196" fill="#b19675" fill-opacity=".5" rx="28" ry="7"/><circle r="1" fill="#2e3e3c" fill-opacity=".5" transform="rotate(87.5 -31.5 54.6) scale(12.01887 3.89822)"/><ellipse cx="8" cy="239" fill="#f6fcff" fill-opacity=".6" rx="25" ry="33"/><path fill="#46392e" fill-opacity=".6" d="M132.9 216.8l1.1-16.4 52 11.4-74.2-.3z"/><path fill="#d2cdbf" d="M30.6 271l7.5-55.7 3.4 4.6-3.9 51.1z"/><circle cx="166" cy="140" r="8" fill="#060000" fill-opacity=".5"/><ellipse cx="32" cy="93" fill="#a47b42" fill-opacity=".7" rx="8" ry="14"/><circle r="1" fill="#d3dce2" fill-opacity=".5" transform="rotate(-115 26.8 16) scale(25.06751 8.80425)"/><path fill="#c88664" fill-opacity=".5" d="M93.5 75l-6.1-1.4-1.5 1.3 5.4 13.7z"/><path fill="#2b0e00" fill-opacity=".5" d="M48 62l-7 23 6 23z"/><path fill="#dabcaa" fill-opacity=".6" d="M105.9 192.6l35.6-5.5-7.7 5.2-7.6 21.2z"/><path fill="#8c6846" fill-opacity=".4" d="M35 164l1.3-19.1 10 42.9-6.6 11.5z"/><path fill="#94613a" fill-opacity=".5" d="M36 101l34 31 23-2z"/><path fill="#151a06" fill-opacity=".5" d="M126.4 148.1l-1.6-41.2 7 3.8 20.5 37.6z"/><path fill="#8a7344" fill-opacity=".5" d="M-16 200l22 4-14-67z"/><circle r="1" fill="#78644b" fill-opacity=".4" transform="rotate(71.4 1.1 153.8) scale(40.05049 12.59343)"/><path fill="#ca916c" fill-opacity=".5" d="M86.8 53.5l-8.5-11.6-5.6 34.8 18.2-13.6z"/><path fill="#664a2e" fill-opacity=".5" d="M92.1 187.8l6.6-30.8 11.5 26.3 24.6 8.4z"/><ellipse cx="169" cy="158" fill="#634726" fill-opacity=".7" rx="36" ry="8"/><path fill="#52361b" fill-opacity=".6" d="M80.2 26.9l-30.3 7.5 15.4 1.2-7.4 30.2z"/><path fill="#aa9782" fill-opacity=".6" d="M75.4 180.4l-27.2-49.6-10.9-14.6 39.2 25.4z"/><circle r="1" fill="#6a6b64" fill-opacity=".6" transform="matrix(6.7634 -17.14122 31.35954 12.3735 94.5 20.1)"/></g></svg>