<svg xmlns="http://www.w3.org/2000/svg" viewBox="0 0 300 199"><defs/><path fill="#434344" d="M0 0h300v199H0z"/><g transform="translate(.6 .6) scale(1.17188)"><circle r="1" fill="#eaeae9" fill-opacity=".4" transform="rotate(-117.7 55.4 32.4) scale(90.85731 43.68598)"/><ellipse cx="224" cy="126" fill="#050505" fill-opacity=".9" rx="45" ry="169"/><circle r="1" fill="#080806" fill-opacity=".4" transform="rotate(127.4 -6 54.8) scale(76.65605 17.64496)"/><circle r="1" fill="#ababab" fill-opacity=".7" transform="rotate(-58.2 157.3 27.5) scale(67.70325 28.31176)"/><circle r="1" fill="#838382" fill-opacity=".5" transform="matrix(-38.2649 11.47417 -6.39026 -21.31069 170.6 77.7)"/><circle r="1" fill="#050504" fill-opacity=".5" transform="matrix(10.54628 -9.14455 52.5524 60.60793 143.6 148.8)"/><ellipse cx="33" cy="34" fill="#f4f4f3" fill-opacity=".5" rx="32" ry="11"/><ellipse cx="83" cy="89" fill="#eeeeec" fill-opacity=".3" rx="8" ry="169"/><circle r="1" fill="#c3c3c3" fill-opacity=".7" transform="matrix(10.08354 -6.59047 17.04523 26.07952 25.8 36.2)"/><circle r="1" fill-opacity=".4" transform="rotate(3.9 -2251 75.8) scale(15.23506 69.14592)"/><path fill="#fff" fill-opacity=".5" d="M203 76l-19-12 28 5z"/><circle r="1" fill="#121212" fill-opacity=".7" transform="matrix(11.1606 -60.47933 15.88877 2.93205 182 133.4)"/><circle r="1" fill-opacity=".8" transform="matrix(8.50107 -3.479 14.01033 34.23487 134.1 161.8)"/><path fill="#020202" fill-opacity=".6" d="M82.7 31.7l-22.5 9.7-12.8 15.1 22.9 2.9z"/><circle r="1" fill="#343434" transform="rotate(-70.3 127.1 -31.7) scale(21.32541 22.58766)"/><circle r="1" fill="#020202" fill-opacity=".7" transform="matrix(-6.88921 -6.12369 6.2616 -7.04437 21.7 86.5)"/><path fill="#bbb" fill-opacity=".5" d="M30 101l-3 20L5 92z"/><circle r="1" fill-opacity=".3" transform="matrix(-1.773 4.24977 -68.51858 -28.58586 81.6 33.8)"/><circle r="1" fill="#646463" fill-opacity=".8" transform="matrix(11.04033 -19.32486 42.2548 24.14025 68 0)"/><ellipse cx="90" cy="145" fill="#b3b3b3" fill-opacity=".5" rx="26" ry="31"/><path fill="#999" fill-opacity=".5" d="M54 81.4L29.2 129l23.6-73.2 52.5 36z"/><path fill="#888" fill-opacity=".7" d="M163.7 135.9l7.4-46.9-51.9-30.1 14.1-1.9z"/><path fill="#d9d9d9" fill-opacity=".6" d="M33.5 78.2L24.4 74l8.1-18.3 9.1 4.1z"/><path fill="#fefefe" fill-opacity=".5" d="M78 80l12-33-10-8z"/><path fill-opacity=".5" d="M90 36h12v48H90z"/><ellipse cx="185" cy="51" fill="#353534" fill-opacity=".5" rx="27" ry="19"/><path fill="#919191" fill-opacity=".6" d="M198 176l31 9-9-27z"/><path fill="#fff" fill-opacity=".5" d="M116 71h13v5h-13z"/><circle r="1" fill="#787878" fill-opacity=".6" transform="rotate(59.4 -115.2 142.2) scale(39.991 10.25071)"/><path fill="#6f6f6f" fill-opacity=".4" d="M103.3 100.9l1 14.6 82.1 43.9-64.8-52.8z"/><path fill="silver" fill-opacity=".5" d="M165 90h17v11h-17z"/><path fill-opacity=".2" d="M194 173l-98-40 20 52z"/><circle r="1" fill="#010101" fill-opacity=".8" transform="matrix(12.19207 10.39389 -18.23799 21.39323 0 143.2)"/><path fill="#050504" fill-opacity=".5" d="M17-8l47 37L-5 0z"/><path fill-opacity=".3" d="M35.8 69.4l9.8-7.6 4.7 17.4-21.2 27.9z"/><circle r="1" fill="#222221" fill-opacity=".5" transform="matrix(-46.06531 22.39584 -7.02776 -14.45518 147.2 23.3)"/><path fill="#f9f9f8" fill-opacity=".4" d="M146.4 70.7l-20.3-17 3.1.4-7.8 5.8z"/><path fill="#cecece" fill-opacity=".5" d="M28.9 18.1L70 32.7 40.2 61.3 23.8 49.2z"/><path fill-opacity=".8" d="M-2 53l7-69-21 48z"/><path fill="#565656" fill-opacity=".5" d="M232 106l32 28-22-37z"/><path fill-opacity=".6" d="M218.5 174.2l-43.8-32.5-16-41.9 52 46.4z"/><path fill="#a4a4a4" fill-opacity=".6" d="M145.1 78.3l5.5-22 9.1 8.8-11.4 11.8z"/><path fill-opacity=".4" d="M239 95l-25 74-36-102z"/><path fill="#8c8c8c" fill-opacity=".7" d="M8.8 35.4l3 62 18-61.7 22.6 12.8z"/><path fill="#a4a4a4" fill-opacity=".7" d="M202.2 78.7l-3.3-2.4-15-10.2-13.2-18.9z"/><path fill="#252525" fill-opacity=".6" d="M137.5 89.5l8.1-14.7 1.5 81.9-30.6-76z"/><path fill="#777" fill-opacity=".5" d="M160 152h17v8h-17z"/><path fill="#fdfdfd" fill-opacity=".2" d="M37.4 107.9l13.5-6.1-8.1-22.9.8-2.8z"/><path fill="#cfcfcd" fill-opacity=".3" d="M140.7 56.9l6.3-11.8-16.4 3.3 2.5 1.6z"/><path fill="#ddd" fill-opacity=".4" d="M187 114h-6l6 10z"/><path fill="#262626" fill-opacity=".5" d="M159 85l-10-5 34-18z"/><circle cx="244" cy="7" r="52" fill-opacity=".6"/><path fill="#6e6e6e" fill-opacity=".6" d="M65 26L84 9H29z"/><path fill="#bdbdbd" fill-opacity=".4" d="M86 108l37 47-11-28z"/><path fill="#e4e4e4" fill-opacity=".5" d="M124.5 92.2l-.8 1.9-10.2-4.3.8-1.9z"/><ellipse cx="224" cy="22" fill="#656565" fill-opacity=".5" rx="5" ry="7"/><path fill="#b5b5b5" fill-opacity=".7" d="M84.2 115.6l27.7 65.4-22 9.4L62 125z"/><ellipse cx="106" cy="66" fill="#c7c7c6" fill-opacity=".5" rx="2" ry="18"/><path fill="#010100" fill-opacity=".3" d="M108.2 81.3l3.3-49.8L146.2 66l-19.8-10.8z"/><path fill="#313131" d="M25 87.8l-27.3-3.9L27 134.5l-43-38.3z"/><path fill="#9b9b9b" fill-opacity=".5" d="M131 95l10 4-5 14z"/><path fill="#fff" fill-opacity=".3" d="M22.5 47.9L42 58.6l12.8-3-31.2-16.4z"/><path fill="#999998" fill-opacity=".5" d="M145 141l8-15 11 5z"/><circle r="1" fill="#1b1b1b" fill-opacity=".4" transform="matrix(64.29446 14.43925 -.21912 .9757 81.9 95.5)"/><path fill-opacity=".6" d="M124.9 92.3l11.2-10.8-22-4.4-7.5 2.4z"/></g></svg>