<svg xmlns="http://www.w3.org/2000/svg" viewBox="0 0 300 199"><defs/><path fill="#623a37" d="M0 0h300v199H0z"/><g transform="translate(.6 .6) scale(1.17188)"><circle r="1" fill="#b4b5ae" fill-opacity=".8" transform="matrix(-62.3083 121.8611 -186.00128 -95.10355 157.7 79.8)"/><ellipse cx="254" cy="59" fill="#f4f5f4" fill-opacity=".7" rx="26" ry="112"/><ellipse cx="39" cy="142" fill="#766c5f" rx="85" ry="27"/><circle r="1" fill="#0e0406" fill-opacity=".6" transform="matrix(-11.18512 -9.35221 17.57089 -21.01455 157.7 68.6)"/><path fill="#f0f3f8" fill-opacity=".5" d="M190 95l-43 49 102 41z"/><path fill="#3a0001" fill-opacity=".6" d="M210.5-16l5.2 159 13-4-2.2-149.8z"/><circle r="1" fill="#bebebb" fill-opacity=".5" transform="matrix(60.15402 -36.48537 18.08231 29.8126 97.4 42.4)"/><ellipse cx="111" cy="88" fill="#4a2f22" fill-opacity=".8" rx="34" ry="3"/><path fill="#1d0800" fill-opacity=".4" d="M69.7 126.6l45 .8-.4 22-45-.8z"/><circle r="1" fill="#998f81" fill-opacity=".7" transform="matrix(-1.84695 -15.48896 117.2978 -13.98692 27.4 116.7)"/><circle r="1" fill="#bebab9" fill-opacity=".8" transform="matrix(73.3939 5.4138 -1.2768 17.30925 217.1 155.7)"/><circle r="1" fill="#f6fbff" fill-opacity=".5" transform="matrix(-8.7742 9.44216 -21.7496 -20.21097 198 133.1)"/><path fill="#00040b" fill-opacity=".6" d="M160 77.1l-3.4-29.6-8.2-1.8-5 29.4z"/><path fill="#766758" fill-opacity=".6" d="M183.9 100.3l13.8-18.4 26.4 19.8-13.8 18.4z"/><circle r="1" fill="#c4bab1" fill-opacity=".5" transform="matrix(13.39382 29.08338 -21.51057 9.9063 155.4 118.6)"/><path fill="#faffff" fill-opacity=".5" d="M-6 86.5l16.8-2.7 3.2 19.7-16.8 2.7z"/><path fill="#f8e4d5" fill-opacity=".6" d="M165 82l27 23-2-21z"/><path fill="#543f35" fill-opacity=".9" d="M171.1 78.1l-37.9 3.7L57.5 94l74.7-5.8z"/><path fill="#200" fill-opacity=".6" d="M71 108h5v31h-5z"/><path fill="#813917" fill-opacity=".4" d="M188.9 93.3l.2 13-28 .4-.2-13z"/><path fill="#b5b1ad" fill-opacity=".6" d="M78 0h66v82H78z"/><circle r="1" fill="#928774" fill-opacity=".6" transform="matrix(-75.45366 7.2719 -.94423 -9.7974 66.2 164)"/><ellipse cx="255" cy="77" fill="#feffff" fill-opacity=".5" rx="19" ry="64"/><ellipse cx="233" cy="115" fill="#b6a4a0" fill-opacity=".5" rx="6" ry="62"/><path fill="#5c3223" fill-opacity=".5" d="M163.6 29.1L156 53.3l.6-11.5-5.1-8.9z"/><path fill="#4f3929" fill-opacity=".7" d="M75.5 93.9l6.6 10.3 4.9 1-9.3-17.4z"/><path fill="#a8b0b8" fill-opacity=".6" d="M12.2 82l.5 33-4.8 18.2 15.3 8.4z"/><path fill="#b0ada8" d="M155.2 47.3l-24.5 8.9 43.9-44.1-42.8-22.8z"/><path fill="#4d342f" fill-opacity=".5" d="M213 130l-7-21 30 33z"/><ellipse cx="197" fill="#857f71" fill-opacity=".4" rx="13" ry="109"/><path fill="#bcbaba" fill-opacity=".4" d="M164.9 58.5l1.1-73.3 16.3 47.7-29.1 20.8z"/><path fill="#bfad98" fill-opacity=".6" d="M94 90h69v14H94z"/><ellipse cx="229" cy="14" fill="#d4bfb6" fill-opacity=".7" rx="3" ry="63"/><path fill="#706352" fill-opacity=".5" d="M117.8 136.2l9.9-35.5-26.7 35 16.1 20.6z"/><circle r="1" fill="#808888" fill-opacity=".5" transform="rotate(126.2 1.9 8.2) scale(46.27005 16.78785)"/><path fill="#9b8468" fill-opacity=".6" d="M81 115l74-20-49 32z"/><ellipse cx="176" cy="169" fill="#aca49c" fill-opacity=".6" rx="68" ry="12"/><path fill="#a9a6a1" fill-opacity=".8" d="M107.6 83L83 90.1 54.1-13.8 29.5 87.4z"/><path fill="#020003" fill-opacity=".4" d="M175.3 48.7l-1.2 22.2 9.1-1.2-22.8-10.4z"/><path fill="#edeff0" fill-opacity=".6" d="M231.5 157.3l-29.3-41.6-8.4-7-26.4 2.7z"/><path fill="#5d523d" fill-opacity=".4" d="M35 127l-51 34 124-25z"/><path fill="#200" fill-opacity=".5" d="M221 68h2v71h-2z"/><path fill="#c2beb8" fill-opacity=".5" d="M132.5 113l-15.4 36.7 37.4-25.2 12-40.4z"/><path fill="#141316" fill-opacity=".7" d="M143.4 75.9l17.5 12.9-3.8-41.3-10.3 6.8z"/><ellipse cx="216" cy="30" fill="#412020" fill-opacity=".5" rx="3" ry="83"/><path fill="#fffeff" fill-opacity=".3" d="M189 86l-21 10 11-18z"/><ellipse cx="219" cy="96" fill="#ffa9ac" fill-opacity=".3" rx="2" ry="36"/><ellipse cx="226" cy="80" fill="#1d0000" fill-opacity=".3" rx="2" ry="34"/><path fill="#aeaaa5" fill-opacity=".7" d="M179.4 30.3L191 73.1 143 4.4 160.1-10z"/><path fill="#180000" fill-opacity=".4" d="M76 128h40v5H76z"/><path fill="#a49487" fill-opacity=".6" d="M244 138.4l27 22.4-51.5-24.6 2.7 5.7z"/><path fill="#a59086" fill-opacity=".5" d="M150 67h2v25h-2z"/><path fill="#78756b" d="M9.3 108.3l-3.6 13.4-21.7 21.5 10.4-32.9z"/><path fill="#a5a39f" fill-opacity=".4" d="M175.4 150.8l-42.9 19.8 49.2-43.7 10.3 28.8z"/><path fill="#9c9388" fill-opacity=".4" d="M116 56h26v28h-26z"/><path fill="#ab6946" fill-opacity=".4" d="M162.2 74.6l14.4-10.8 7.2 9.6-14.4 10.8z"/><ellipse cx="169" cy="56" fill="#010711" fill-opacity=".6" rx="5" ry="10"/><circle r="1" fill="#730600" fill-opacity=".5" transform="matrix(2.53325 3.84188 -1.66667 1.09897 178.9 99)"/><path fill="#cbbeab" fill-opacity=".4" d="M96 122L70 92l12 32z"/><path fill="#9e9d9b" fill-opacity=".5" d="M-16 43l93 45-17 40z"/><path fill="#dcdcdd" fill-opacity=".5" d="M197 145h48v10h-48z"/><path fill="#928f8a" fill-opacity=".5" d="M19 92h52v38H19z"/><path fill="#fceeed" fill-opacity=".4" d="M231 68h2v67h-2z"/><ellipse cx="223" cy="45" fill="#be9a94" fill-opacity=".4" rx="1" ry="43"/><ellipse cx="2" cy="67" fill="#aab0b2" fill-opacity=".5" rx="16" ry="20"/></g></svg>