<svg xmlns="http://www.w3.org/2000/svg" viewBox="0 0 299 449"><defs/><path fill="#35414e" d="M0 0h299v449H0z"/><g transform="translate(.9 .9) scale(1.7539)"><circle r="1" fill="#ebcbb2" fill-opacity=".6" transform="rotate(-103.2 80 28.5) scale(150.80285 170)"/><circle r="1" fill="#e1f4fb" fill-opacity=".6" transform="matrix(15.77499 -57.98789 73.50171 19.99536 42.1 102.8)"/><circle r="1" fill="#39484d" fill-opacity=".4" transform="rotate(-173.1 48.9 102.1) scale(98.10191 45.90188)"/><path fill-opacity=".6" d="M37.1-23.8l135.6 75.1-5.8 10.5L31.3-13.3z"/><circle r="1" fill="#ed580d" fill-opacity=".5" transform="matrix(-105.47663 -49.85858 6.7651 -14.31169 63 28.5)"/><circle r="1" fill="#ff975f" fill-opacity=".5" transform="rotate(-96.3 128.9 -8) scale(74.22794 31.61779)"/><circle r="1" fill="#7b8a85" fill-opacity=".6" transform="rotate(-104.3 82.4 42.2) scale(10.05903 52.29963)"/><ellipse cx="109" cy="193" fill="#110c0a" fill-opacity=".6" rx="13" ry="26"/><ellipse cx="154" cy="136" fill="#d5f6ff" fill-opacity=".7" rx="6" ry="57"/><path fill="#ebf4f7" fill-opacity=".6" d="M60.5 205.9l.5-11.7 1.9 36 27.3-23.1z"/><ellipse cx="46" cy="78" fill="#eaf0f5" fill-opacity=".6" rx="70" ry="25"/><path fill="#485561" fill-opacity=".4" d="M0 14h11v83H0z"/><path fill="#f4fefe" fill-opacity=".6" d="M34.7 267l-20.6-50.9-3.3 20.1L8.3 271z"/><circle r="1" fill="#20473c" fill-opacity=".5" transform="rotate(101 -10.4 88.2) scale(3.21718 31.45368)"/><circle r="1" fill="#072e41" fill-opacity=".5" transform="matrix(67.18624 27.83095 -1.73866 4.19727 46.8 37.5)"/><ellipse cx="161" cy="196" fill="#561e04" fill-opacity=".3" rx="92" ry="24"/><path fill="#aba296" fill-opacity=".5" d="M108.4 213.2l83.8 19.3-6.6 28.3-83.8-19.3z"/><ellipse cx="129" cy="131" fill="#e97233" fill-opacity=".4" rx="14" ry="84"/><path fill="#eaf2f6" fill-opacity=".6" d="M72 53l-56 63-6-89z"/><ellipse cx="3" cy="192" fill-opacity=".3" rx="8" ry="40"/><path fill="#96bbc6" fill-opacity=".4" d="M11 157h48v68H11z"/><path fill="#bdcacb" fill-opacity=".7" d="M72.4 168.6l44.5-1.9-.5-67.5L84 149.6z"/><ellipse cx="169" cy="147" fill="#ae2500" fill-opacity=".4" rx="8" ry="71"/><circle r="1" fill="#6c8da1" fill-opacity=".6" transform="rotate(-154.9 76.2 -10) scale(67.48429 19.20076)"/><ellipse cx="51" cy="183" fill="#41545b" fill-opacity=".6" rx="55" ry="7"/><path fill="#4a423d" fill-opacity=".6" d="M6.5 121.6l7.2-2.4 19.3 2.7 98.7 17.5z"/><path fill="#1c3f45" fill-opacity=".5" d="M33.8 139.5l.5-8 44 3-.6 8z"/><ellipse cx="140" cy="196" fill="#00061b" fill-opacity=".6" rx="4" ry="18"/><path fill-opacity=".6" d="M57-2l54 21-37-30z"/><path fill="#566266" fill-opacity=".7" d="M51 271l-41-46 73 39z"/><path fill="#fff" fill-opacity=".6" d="M41 161l-2-22 53 10z"/><path fill="#1a2029" fill-opacity=".7" d="M138.9 209.2l47.5 6.7-1.3 8.9-47.5-6.7z"/><path fill="#7c8787" fill-opacity=".8" d="M175.3 61.5L130.4 37 95 20.5l64.7 42.3z"/><path fill="#d4d9d7" fill-opacity=".6" d="M160.6 193.2l.9-52.1-16.7-83.5 6.3 137.7z"/><path fill="#e4e0d6" fill-opacity=".7" d="M135.1 138.1l-67.3-20.4-29.6 5.7 100.2 14.2z"/><path fill="#220c04" fill-opacity=".6" d="M170.3 66.9L31.3-4l.4-.9 139 70.9z"/><path fill="#6f4626" fill-opacity=".3" d="M8 141.5h28v13H8z"/><path fill="#504845" fill-opacity=".7" d="M100 252l16 19 70-36z"/><path fill-opacity=".5" d="M68 205l8-23 5 19z"/><circle r="1" fill="#fa8c50" fill-opacity=".5" transform="matrix(3.8755 -9.8891 75.20236 29.47148 64 30)"/><circle r="1" fill="#c3a08a" fill-opacity=".6" transform="matrix(-.80083 -3.28515 26.4672 -6.452 162.8 251.9)"/><path fill="#000207" fill-opacity=".5" d="M199.8 77.8L80.6 6.2l3.6-6 119.2 71.6z"/><path fill="#f4f6f6" fill-opacity=".5" d="M10.8 155l122.8 11.5-91.3-5.2-28.9 7.2z"/><path fill="#fff" fill-opacity=".5" d="M57 223l27-27-3 21z"/><path fill="#e6ebe9" fill-opacity=".4" d="M103 171l-9 12 2-31z"/><path fill="#c3c9cb" d="M72 185.6l-7.7 33.3-.4-10.7.5-11.9z"/><circle r="1" fill="#252a2c" fill-opacity=".8" transform="matrix(.51497 -1.27067 82.04629 33.25155 36.8 33.6)"/><circle r="1" fill="#edf1f3" fill-opacity=".6" transform="rotate(-168.8 42 43.6) scale(41.87934 17.14059)"/><path fill="#67554e" fill-opacity=".6" d="M116 69h4v143h-4z"/><path fill="#32564b" fill-opacity=".3" d="M53.7 108.8l-2 5.6-25.4-9.2 2-5.6z"/><path fill="#fff3e5" fill-opacity=".5" d="M-16 89l19 53 16-48z"/><path fill="#284855" fill-opacity=".3" d="M16.3 240.8l78.2-6.3-19.4-40.6 65.5 24.8z"/><circle r="1" fill="#ef864c" fill-opacity=".5" transform="matrix(-5.01452 .71367 -7.84472 -55.1199 142.8 152)"/><path fill="#8b918d" fill-opacity=".8" d="M183.1 66l-.4 1L52.9-2l.4-1z"/><path fill="#e2e5df" fill-opacity=".6" d="M121 126.7l-1.7 10-16.7-3.7L-16 114z"/><path fill="#fff" fill-opacity=".7" d="M51 271H11l2-38z"/><path fill="#d6dedd" fill-opacity=".5" d="M61 190l-10 22 5-34z"/><path fill="#848b91" fill-opacity=".6" d="M10 79V15H-9z"/><ellipse cx="37" cy="130" fill="#f5fcf9" fill-opacity=".4" rx="25" ry="3"/><ellipse cx="149" cy="233" fill="#ada69b" fill-opacity=".6" rx="60" ry="5"/><path fill-opacity=".4" d="M80.7 131.3l.2-1 36.4 6.4-.2 1z"/><path fill="#050000" fill-opacity=".5" d="M38 163.5l.1-1 19.9 2-.1 1z"/><path fill="#ecfcff" fill-opacity=".6" d="M148 81h9v37h-9z"/><path fill="#d87d4e" d="M162 143l-2-60 26-42z"/><path fill="#081316" fill-opacity=".4" d="M121 167v50l-19-51z"/></g></svg>