<svg xmlns="http://www.w3.org/2000/svg" viewBox="0 0 299 449"><defs/><path fill="#6a493b" d="M0 0h299v449H0z"/><g transform="translate(.9 .9) scale(1.7539)"><circle r="1" fill="#d9dcdc" fill-opacity=".7" transform="matrix(83.05399 -33.8937 64.23294 157.398 48 152.6)"/><circle r="1" fill="#a5a1a0" transform="matrix(-84.59214 80.27494 -34.93307 -36.81178 116.3 254.8)"/><ellipse cx="130" cy="97" fill="#220d00" fill-opacity=".4" rx="50" ry="65"/><circle cy="155" r="82" fill="#fbfcff" fill-opacity=".4"/><path fill="#1a1406" fill-opacity=".6" d="M7.1-1l22.7 37.8-36.9 22.1-22.7-37.7z"/><circle r="1" fill="#cdd6d8" fill-opacity=".6" transform="matrix(-21.05133 8.71037 -19.12635 -46.2248 65.8 32)"/><circle cx="60" cy="81" r="12" fill-opacity=".4"/><path fill="#bc9b84" fill-opacity=".6" d="M64 96l116 82-145-34z"/><circle r="1" fill="#312b22" fill-opacity=".7" transform="matrix(41.97274 -17.04336 55.75674 137.3123 154.8 47.3)"/><ellipse cx="102" cy="180" fill="#f3e8e1" fill-opacity=".4" rx="30" ry="40"/><ellipse cx="3" cy="224" fill="#e2e3e6" rx="20" ry="165"/><path fill="#220800" fill-opacity=".5" d="M101.7 138.7l6.5-15.8-11.7-3-15.3 27.9z"/><circle r="1" fill="#665a55" fill-opacity=".6" transform="matrix(-9.1899 -5.95756 17.99784 -27.76273 118.8 240.3)"/><path fill="#130708" fill-opacity=".2" d="M46.7 207.2l19.5-4.5 17 74-19.4 4.6z"/><path fill="#dadee0" fill-opacity=".6" d="M85 61l11-41-112 70z"/><path fill="#535045" fill-opacity=".7" d="M92.1-16l29.4 35.9L67 23.2l3.5 24.2z"/><path fill="#534031" fill-opacity=".8" d="M108.5 70.4L167.1-16 106.9-4.2 86 54.8z"/><path fill="#97654a" fill-opacity=".6" d="M145 173l5-50-71-44z"/><ellipse cx="74" cy="103" fill="#dedfdd" fill-opacity=".7" rx="5" ry="68"/><ellipse cx="113" cy="158" fill="#d2b5a1" fill-opacity=".6" rx="19" ry="28"/><path fill="#0e0f05" fill-opacity=".6" d="M80 78h15v11H80z"/><ellipse cx="135" cy="199" fill="#d7d7de" fill-opacity=".4" rx="156" ry="11"/><ellipse cx="51" cy="170" fill="#e8e8e9" fill-opacity=".6" rx="37" ry="28"/><circle r="1" fill="#7d5334" fill-opacity=".5" transform="rotate(-136 50.9 53.4) scale(2.65192 23.34067)"/><path fill="#cfced5" fill-opacity=".6" d="M139 226l-18 45 53-69z"/><path fill="#8c3a05" fill-opacity=".3" d="M26.9 149.2l-3.4 1.1 11-37.8 9.4-2.9z"/><path fill="#d4d6d7" fill-opacity=".6" d="M64.9 46.1L44.3 89 1.9 36-16 43.6z"/><path fill="#160000" fill-opacity=".6" d="M65.4 72.9l-12.3 17-6.5-4.8 12.3-17z"/><path fill="#050a0d" fill-opacity=".4" d="M125.3 73.4L113.6 64l61-75.4L186.5-2z"/><path fill="#efefec" fill-opacity=".6" d="M72 68h29v9H72z"/><path fill="#e8c39c" fill-opacity=".4" d="M112.5 97.7l13.9 13.6L93.9 168l14-39.3z"/><path fill="#85817f" d="M59.6-16L1.2 8.5 1.8-16h13.5z"/><path fill="#6e533c" fill-opacity=".5" d="M186 39l-26.7 1.4-36.1 58.3 46.6-43.8z"/><path fill="#b1b3be" fill-opacity=".5" d="M19 210h36v46H19z"/><circle r="1" fill="#7d5c45" fill-opacity=".6" transform="matrix(12.53566 4.28115 -7.17375 21.00548 103.2 93.5)"/><path fill="#3c3122" fill-opacity=".4" d="M-13.4-13.3L8 39.2l18 1.2L42.5 48z"/><path fill="#35383c" fill-opacity=".9" d="M-16 58.4l21.8.7-3.4-9.8L-16 31.2z"/><circle r="1" fill="#b5bcbe" fill-opacity=".6" transform="rotate(-156.8 21.4 2.4) scale(27.902 19.23016)"/><path fill="#9d9382" d="M65 9l15 22v-47z"/><path fill="#734636" fill-opacity=".4" d="M122.8 173.2l48.9-3.7L97.1 51.9l42.1 96.6z"/><path fill="#ca7f4f" fill-opacity=".4" d="M59.1 102.6l-13.3-4.1 5.1-7.8 18.7-16z"/><circle cx="83" cy="124" r="4" fill="#472a21" fill-opacity=".7"/><path fill="#89807b" fill-opacity=".5" d="M108.2 224.4l77.8-31.6-17.7 12.6-73 46.3z"/><circle r="1" fill="#0c0908" fill-opacity=".3" transform="matrix(11.42714 32.76519 -14.93774 5.20967 170 103.4)"/><path fill="#04222f" fill-opacity=".5" d="M86.4-12.2L81.2-16l.5 42.1 8.1-8.1z"/><path fill="#d1d6d6" fill-opacity=".4" d="M68.4 64L14.7 96.6l87.2-88.7-17.7 32z"/><path fill="#793e0b" fill-opacity=".2" d="M64.9 103l-33.4 45.9 38.8-41.3-1-2.5z"/><path fill="#c2c2be" fill-opacity=".5" d="M79.7 168.9l-35.1-24.3-1.5-8.2 39.4-35.6z"/><path fill="#a8aba6" fill-opacity=".4" d="M17 61h8v67h-8z"/><path fill="#e3e0de" fill-opacity=".7" d="M78.9 85.1l-40 49.2 6.9-55.6-.7 33.1z"/><path fill="#736c6b" fill-opacity=".4" d="M140.4 261l21.8-42.7 5.4 2.7-21.8 42.7z"/><path fill="#d1d3d4" fill-opacity=".6" d="M11.3 40l30.2 67.3 9-76.7L2 75.7z"/><path fill="#b4b1b7" fill-opacity=".7" d="M69.2 204.5L80.8 249l20.3-25.9 28.6-10.6z"/><path fill="#3d3427" fill-opacity=".6" d="M94 10h24v32H94z"/><path fill="#060403" fill-opacity=".5" d="M90 142l4-12 13-3z"/><path fill="#e6e9e9" fill-opacity=".5" d="M80 25h9v51h-9z"/><ellipse cx="92" cy="5" fill="#95a195" fill-opacity=".5" rx="3" ry="34"/><path fill="#d2d1d2" fill-opacity=".6" d="M78 156l48 21-95 37z"/><path fill="#816046" fill-opacity=".4" d="M125.3 35.5l-29.4 21 .7 18.7 36.2-40.8z"/><path fill="#001103" fill-opacity=".5" d="M-4.1 32.3l1.7-3.6 22.5 11-1.7 3.6z"/><path fill="#af9b8b" fill-opacity=".4" d="M62.4 144.6l-47 1.4 19.6-8 65.4-14.2z"/><path fill="#47352c" fill-opacity=".5" d="M113 94l16-28 28 70z"/><path fill="#959072" fill-opacity=".5" d="M129 178h34v11h-34z"/><path fill="#493030" fill-opacity=".5" d="M68 22.9l6.6-2.2L78 31l-6.6 2.2z"/><path fill="#ffebcd" fill-opacity=".5" d="M5 24.4v5l-10 .2v-5z"/></g></svg>