<svg xmlns="http://www.w3.org/2000/svg" viewBox="0 0 300 199"><defs/><path fill="#3f3f3f" d="M0 0h300v199H0z"/><g transform="translate(.6 .6) scale(1.17188)"><circle r="1" fill="#fff" fill-opacity=".8" transform="rotate(-98.1 73.3 23.4) scale(235.89473 69.5597)"/><path fill="#ddd" fill-opacity=".8" d="M169 33l40-49H50z"/><circle r="1" fill-opacity=".6" transform="matrix(-41.9437 129.08943 -53.98902 -17.5421 207.5 122.9)"/><ellipse cx="137" cy="45" fill-opacity=".8" rx="23" ry="27"/><ellipse cx="164" cy="67" fill="#fff" fill-opacity=".7" rx="12" ry="8"/><circle r="1" fill="#595959" fill-opacity=".4" transform="rotate(53.6 -6.8 22) scale(14.69535 45.01416)"/><path fill="#f1f1f1" fill-opacity=".5" d="M137.8 114.3l-1.9 44.7-149.2 4.4 148.6-95.2z"/><path fill="#f6f6f6" fill-opacity=".5" d="M212 69V44l-12 15z"/><path fill="#e4e4e4" fill-opacity=".8" d="M35.2 22.6l9.4 92.8 87-101.4-19.4-2.2z"/><path fill="#dbdbdb" fill-opacity=".6" d="M139.2-16l74 29.1-39.5 5.7L165 55z"/><path fill-opacity=".6" d="M175 16l47 4-55 42z"/><circle r="1" fill="#191919" fill-opacity=".7" transform="matrix(7.15095 -3.93127 4.97177 9.0436 123.5 61.6)"/><ellipse cx="147" cy="112" fill="#0d0d0d" fill-opacity=".7" rx="8" ry="73"/><path fill="#ededed" fill-opacity=".6" d="M152.5 80l29.2-9.1-17.7-12-5.8 4.3z"/><path fill="#585858" fill-opacity=".9" d="M-16 179.2l1.5-16.3L1.3 161l41.3 21.3z"/><ellipse cx="116" cy="169" fill="#9f9f9f" fill-opacity=".7" rx="26" ry="10"/><path fill="#7f7f7f" fill-opacity=".7" d="M197.5-16l4.8 11.2 13.6 31.2-28-17.1z"/><circle r="1" fill="#0a0a0a" fill-opacity=".6" transform="matrix(-13.97303 -75.7851 56.7822 -10.46933 197.4 144.8)"/><circle cx="87" cy="47" r="30" fill="#e0e0e0" fill-opacity=".7"/><circle r="1" fill="#f8f8f8" fill-opacity=".6" transform="matrix(-2.2093 -11.63583 47.46483 -9.0122 60.8 155.8)"/><path fill="#565656" fill-opacity=".6" d="M29.6 13.1l-4.2-7L3.5 30.2-16 50.8z"/><path fill="#e6e6e6" fill-opacity=".6" d="M163 27h4v50h-4z"/><path fill="#030303" fill-opacity=".5" d="M186 49l-33-5 31-7z"/><path fill="#dbdbdb" fill-opacity=".9" d="M158.6 82.3L154 78l.7-14.6 13.2-.8z"/><path fill="#0d0d0d" fill-opacity=".7" d="M196.3 65.9l-30.6-3.6L182 15.7l39.9 6.1z"/><path fill="#f6f6f6" fill-opacity=".5" d="M27-3L-8 18l17 4z"/><circle r="1" fill="#aeaeae" fill-opacity=".7" transform="matrix(-6.37844 -65.85332 2.147 -.20795 68.8 22.5)"/><path fill="#9d9d9d" fill-opacity=".6" d="M100.5 33.7l-6 .5-3-44 6-.4z"/><path fill-opacity=".4" d="M101 163l13 20-31 2z"/><circle r="1" fill="#f3f3f3" fill-opacity=".5" transform="matrix(10.50577 -.42196 2.7655 68.85509 87.5 80)"/><circle r="1" fill="#f8f8f8" fill-opacity=".3" transform="matrix(-10.11102 -15.43611 8.58114 -5.62085 158.5 17.7)"/><path fill="#787878" fill-opacity=".4" d="M142.7 80.4l-14.6 4.8 1 29.3 15-20.2z"/><path fill="#3a3a3a" fill-opacity=".6" d="M217.1 65l-1-22.6-5.8-53 .3 88.5z"/><path fill="#c4c4c4" fill-opacity=".7" d="M113 185h20.6l12.9-8.6-13.3-24.4z"/><circle r="1" fill="#313131" fill-opacity=".5" transform="matrix(1.45323 .7899 -4.87005 8.95977 120.4 169)"/><ellipse cx="17" cy="123" fill="#e5e5e5" fill-opacity=".5" rx="119" ry="32"/><path fill="#b7b7b7" fill-opacity=".4" d="M93.1-16l11.6 190.4 8.9-6.5-4.4-50.4z"/><path fill="#979797" d="M130.1 18.6l-2 4.6v-33.5l6.8 4.1z"/><path fill="#2e2e2e" fill-opacity=".6" d="M202 93l16 40-29-28z"/><path fill="#b0b0b0" fill-opacity=".5" d="M33.4 59l4-.5 9.2 88.5-4 .5z"/><path fill="#e1e1e1" fill-opacity=".6" d="M105 87.3l30.6-5.9-3.2-7.7-30-11.4z"/><path fill="#dbdbdb" d="M178.8 12.3L136.1-16 162 40.5l2.8.6z"/><path fill="#0f0f0f" fill-opacity=".7" d="M118.4 54.5L145.3 18l18 30.9-19.4 35.3z"/><path fill="#f5f5f5" fill-opacity=".5" d="M139 15l1-19-15 25z"/><path fill="#eee" fill-opacity=".5" d="M0 51l35 45-8-73z"/><path fill="#1e1e1e" fill-opacity=".5" d="M17 5l6-15-22-6z"/><path fill="#adadad" fill-opacity=".9" d="M20 32.5L21.6 12l-9.5 20.3L-16 56.5z"/><path fill="#090909" fill-opacity=".7" d="M185.8 40.8l28.8-4.8-18.1-21.2-23 6z"/><circle cx="207" cy="60" r="7" fill="#bfbfbf" fill-opacity=".4"/><ellipse cx="117" fill="#434343" fill-opacity=".4" rx="1" ry="65"/><circle r="1" fill="#a6a6a6" fill-opacity=".5" transform="matrix(.99488 -.10106 6.02653 59.33013 126 124.1)"/><path fill="#e9e9e9" fill-opacity=".5" d="M200 0h3v16h-3z"/><path fill="#c6c6c6" fill-opacity=".7" d="M171 0h20v15h-20z"/><path fill="#fafafa" fill-opacity=".5" d="M104 137l-24-20 13 63z"/><circle r="1" fill="#0c0c0c" fill-opacity=".7" transform="rotate(-113.3 81.1 -24.3) scale(21.33989 18.1221)"/><path fill="#f1f1f1" fill-opacity=".5" d="M50 35.7L31.2 24.3 42 6.3l18.8 11.4z"/><path fill="#1e1e1e" fill-opacity=".3" d="M184.3 57.7l-50.1 73.8.2 25.1 19.6 9.3z"/><path fill="#0d0d0d" fill-opacity=".5" d="M144 41h17v20h-17z"/><path fill="#373737" fill-opacity=".4" d="M28.7 6.5L55.1-16 45.9-3.2 30.5-16z"/><path fill="#0c0c0c" fill-opacity=".5" d="M148 62l-30 5-3-15z"/><path fill="#373737" fill-opacity=".5" d="M85 168h5v2h-5z"/><ellipse cx="77" cy="120" fill="#cacaca" fill-opacity=".6" rx="3" ry="28"/><path fill="#0d0d0d" fill-opacity=".5" d="M164.7 46.1l2.3-6.6 30.3 10.4-2.3 6.6z"/><path fill="#fdfdfd" fill-opacity=".6" d="M164 60V47l3 6z"/><path fill="#eee" fill-opacity=".5" d="M101 16h16v30h-16z"/></g></svg>