<svg xmlns="http://www.w3.org/2000/svg" viewBox="0 0 300 199"><defs/><path fill="#694538" d="M0 0h300v199H0z"/><g transform="translate(.6 .6) scale(1.17188)"><circle r="1" fill="#cae2e8" fill-opacity=".6" transform="matrix(53.80649 5.31202 -21.453 217.30172 87.9 85.3)"/><circle cx="235" cy="81" r="94" fill="#02141b" fill-opacity=".7"/><ellipse cx="165" cy="146" fill="#d0edff" fill-opacity=".5" rx="10" ry="52"/><ellipse cx="7" cy="78" fill="#001429" fill-opacity=".3" rx="55" ry="122"/><path fill="#bfb8ab" fill-opacity=".6" d="M33 0h136v36H33z"/><ellipse cx="125" cy="146" fill="#fbffff" fill-opacity=".5" rx="11" ry="102"/><ellipse cx="112" cy="87" fill="#050003" fill-opacity=".8" rx="3" ry="43"/><circle r="1" fill="#fdffff" fill-opacity=".4" transform="matrix(-7.8048 .99982 -9.80391 -76.53149 101.5 101.5)"/><path fill="#00060d" fill-opacity=".7" d="M151.6 180.2l-18-58 22-111.9-.2 128.1z"/><circle r="1" fill="#372d25" fill-opacity=".4" transform="rotate(-88.5 115.2 27.5) scale(100.25303 6.7921)"/><path fill="#fcfcfe" fill-opacity=".6" d="M79.8 59.2l3.7 31.6-22.5 31 2.3-65z"/><circle r="1" fill="#262427" fill-opacity=".6" transform="rotate(-178.4 66.1 26.9) scale(75.67573 2.56502)"/><ellipse cx="129" cy="94" fill="#2c2829" fill-opacity=".8" rx="84" ry="2"/><ellipse cx="13" cy="48" fill="#171d1e" fill-opacity=".7" rx="18" ry="148"/><path fill-opacity=".6" d="M138.4 30L172 45.5l-11.6 73.1-5.3-102.7z"/><ellipse cx="42" cy="123" fill="#818688" fill-opacity=".7" rx="14" ry="114"/><path fill="#e5f0fa" fill-opacity=".6" d="M111 126h28v28h-28z"/><path fill-opacity=".6" d="M135 45h3v62h-3z"/><path fill="#181d22" fill-opacity=".8" d="M150.2 185l-20.1-23.9 9.1-8.3-4.5-86.6z"/><path fill="#120604" fill-opacity=".6" d="M63 73.8l-2.3-41.1-3.6 49.8.4 42z"/><path fill="#fff" fill-opacity=".5" d="M96 46h13v47H96z"/><path fill="#7d7d7a" fill-opacity=".7" d="M103.5 145.7L72.9 185l-7.7-44.6 19.5-61z"/><path fill="#bfb7ae" fill-opacity=".9" d="M162-16v34L60 26z"/><path fill="#f6f6f9" fill-opacity=".5" d="M114 46h34v9h-34z"/><ellipse cx="161" cy="154" fill="#c3d2e1" fill-opacity=".6" rx="7" ry="31"/><ellipse cx="116" cy="55" fill="#0b070b" fill-opacity=".5" rx="40" ry="2"/><path fill="#211f1e" fill-opacity=".9" d="M175 109h81v61h-81z"/><path fill="#fff" fill-opacity=".5" d="M117 58h17v30h-17z"/><ellipse cx="73" cy="46" fill="#fff" fill-opacity=".6" rx="12" ry="5"/><path fill="#e4e8ef" fill-opacity=".6" d="M113.9 98.4l28.2 1.3-.5-19.3-13.1 57.6z"/><path fill-opacity=".5" d="M110 92h49v4h-49z"/><ellipse cx="86" cy="67" fill="#110400" fill-opacity=".5" rx="2" ry="31"/><path fill="#3b281a" fill-opacity=".5" d="M72 41h45v3H72z"/><path fill="#fffffe" fill-opacity=".4" d="M89.2 71.3l5.2 28.6 15-26-22.8-34z"/><ellipse cx="115" cy="31" fill="#c8b49e" fill-opacity=".5" rx="30" ry="12"/><circle r="1" fill="#c2c6cb" fill-opacity=".5" transform="matrix(3.95621 2.7464 -15.70946 22.62954 67.5 112)"/><ellipse cx="140" cy="76" fill="#fff" fill-opacity=".6" rx="2" ry="19"/><path fill="#cfd9e6" fill-opacity=".5" d="M139 150l-51 32 46-82z"/><path fill="#201e1e" fill-opacity=".8" d="M271 39l-26 98L165-8z"/><path fill="#181213" fill-opacity=".6" d="M135.2 75l-2-.2 3.6-33.8 2 .2z"/><path fill="#000102" fill-opacity=".5" d="M148 23h9v120h-9z"/><path fill="#939292" fill-opacity=".3" d="M230.1 136.6l-5.8-43.9 1.6 51.1L232 185z"/><path fill="#171114" fill-opacity=".6" d="M110 44h4v80h-4z"/><path fill="#fff" fill-opacity=".5" d="M63 56h14v36H63z"/><path fill="#7e8485" fill-opacity=".3" d="M201.8 106.6l27.6.8-4.9-11.7-26.5 3.5z"/><path fill="#5c6368" fill-opacity=".6" d="M173.9 90.1L176 185l-9.9-82.3-5.3-10.4z"/><path fill="#e7f7fe" fill-opacity=".5" d="M53 135h28v4H53z"/><ellipse cx="68" cy="93" fill="#0b0205" fill-opacity=".6" rx="7" ry="2"/><path fill="#e7ecee" fill-opacity=".6" d="M89.6 96l5.6-21.3 10.9 73.4 2.7-51.6z"/><path fill="#86868a" fill-opacity=".6" d="M28 140h29v30H28z"/><ellipse cx="129" cy="44" fill="#211b19" fill-opacity=".8" rx="23" ry="1"/><path fill-opacity=".5" d="M82 63.8l4.7 2-2.8 6.4-4.6-2z"/><path fill="#000a0f" fill-opacity=".1" d="M113 157.9l12.7-3.6-31.9-25.5-39.4-4z"/><path fill-opacity=".4" d="M67 53h41v3H67z"/><path fill="#5d4434" fill-opacity=".4" d="M95 82.8l-6.6-5.7-9.2 3.6 4.1 23.6z"/><ellipse cx="5" cy="10" fill="#242325" fill-opacity=".5" rx="29" ry="161"/><path fill="#030000" fill-opacity=".4" d="M58 34l6 20-5 15z"/><path fill="#888c8d" fill-opacity=".6" d="M31.1 63L37-20.6 60.9-19 55 64.7z"/><path fill-opacity=".5" d="M160 104h3v19h-3z"/><path fill="#f7f8f5" fill-opacity=".6" d="M82 57l-6 38-8-39z"/><ellipse cx="145" cy="125" fill="#02070a" fill-opacity=".7" rx="7" ry="34"/><ellipse cx="158" cy="132" fill="#f2f2f4" fill-opacity=".6" rx="1" ry="27"/><path fill="#f5f4f8" fill-opacity=".6" d="M62 43h23v9H62z"/><path fill="#fcfcf9" fill-opacity=".4" d="M140 151l-41-27 37 1z"/><path fill="#000305" fill-opacity=".5" d="M147 47h22v43h-22z"/></g></svg>