<svg xmlns="http://www.w3.org/2000/svg" viewBox="0 0 299 449"><defs/><path fill="#443a2c" d="M0 0h299v449H0z"/><g transform="translate(.9 .9) scale(1.7539)"><circle r="1" fill="#f9f8ed" fill-opacity=".6" transform="rotate(22.2 -298.9 333.4) scale(29.37331 63.12753)"/><circle r="1" fill="#e4d091" fill-opacity=".6" transform="matrix(-22.86112 -7.29425 40.56186 -127.12603 14.8 146.9)"/><circle r="1" fill="#76766b" fill-opacity=".8" transform="matrix(60.12803 -69.0111 19.74153 17.20041 86.8 197)"/><circle r="1" fill="#1c0a02" transform="matrix(46.67564 -10.131 10.2398 47.17697 116.8 27.9)"/><ellipse cx="61" cy="110" fill="#ffac38" fill-opacity=".4" rx="18" ry="78"/><path fill="#371b00" fill-opacity=".7" d="M-16 35.6l57.2 125.6 8.5-56.3-25.8-13.7z"/><ellipse cx="9" cy="207" fill="#def5e7" fill-opacity=".7" rx="11" ry="33"/><path fill="#fff" fill-opacity=".5" d="M85 80h52v41H85z"/><path fill-opacity=".6" d="M-7 143l46 71 11-22z"/><circle r="1" fill="#d5e6ec" fill-opacity=".3" transform="matrix(10.37615 3.83755 -36.04171 97.4512 64 199.8)"/><circle r="1" fill="#000301" fill-opacity=".8" transform="matrix(8.151 1.53264 -10.8418 57.6595 29.6 204.7)"/><path fill="#ecffff" fill-opacity=".6" d="M-16 112l45 68 3-31z"/><circle r="1" fill="#270900" fill-opacity=".8" transform="rotate(-51.8 27.4 3) scale(46.72267 28.96889)"/><ellipse cx="170" cy="91" fill="#2c0f01" fill-opacity=".8" rx="34" ry="36"/><path fill="#ffd566" fill-opacity=".6" d="M23.8 41.3l30.8 3.8-6.4 51.6-30.8-3.8z"/><circle r="1" fill="#564d3d" fill-opacity=".6" transform="rotate(31.9 -283.6 293.4) scale(21.13908 78.10914)"/><path fill="#f0c879" fill-opacity=".8" d="M52 83.2l16.5 91.9-36.6-123L54.6 8.5z"/><ellipse cx="123" cy="94" fill="#f2f3f1" fill-opacity=".8" rx="11" ry="20"/><path fill-opacity=".6" d="M19 74l-5.3 29.6-20.6-3.7 5.2-29.5z"/><path fill-opacity=".4" d="M53 194l-30-57 24 6z"/><circle r="1" fill="#703d02" fill-opacity=".6" transform="matrix(-6.2686 .59605 -7.51431 -79.02689 64 42.5)"/><circle r="1" fill="#2e443f" fill-opacity=".6" transform="rotate(-31.4 198.4 49.3) scale(3.82492 38.60594)"/><path fill="#e2faed" fill-opacity=".7" d="M28.4 133l-14.2-29-4.8 2.9 9.3 25.8z"/><circle r="1" fill="#feffff" fill-opacity=".4" transform="matrix(-1.54109 8.9608 -19.12774 -3.2896 93 144.3)"/><path fill="#936632" fill-opacity=".5" d="M91.8 69.6l12.6 10.2L52 75.9l58.9 30.9z"/><path fill="#cddcca" fill-opacity=".6" d="M26.6 193.1L-16 261.6l17.8-143-17.8 19.8z"/><path fill="#000606" fill-opacity=".4" d="M-4 231l28 36 46-5z"/><path fill="#3b1300" fill-opacity=".4" d="M93.2 119.3l-28 17.5-6.4-10.1 28-17.5z"/><path fill="#404431" d="M2.4 141.1l21.4 35.6 4.5 17.9-44.3-58.8z"/><circle r="1" fill="#8e4802" fill-opacity=".5" transform="matrix(10.55945 -2.77022 8.5261 32.49957 42 122.1)"/><ellipse cx="168" cy="50" fill="#797368" fill-opacity=".4" rx="10" ry="25"/><circle r="1" fill-opacity=".7" transform="matrix(14.07993 2.23004 -2.91602 18.41101 41 186)"/><path fill="#e5faec" fill-opacity=".6" d="M3.4 114.6l9 17.8-9.8 5-9-17.8z"/><path fill="#522d00" fill-opacity=".7" d="M-.6 66.8l35.2-52.3 10 6.7L9.4 73.5z"/><path fill="#f5b761" fill-opacity=".5" d="M52 81h11v31H52z"/><circle r="1" fill="#1c1809" fill-opacity=".4" transform="matrix(-15.18327 -4.40588 15.58491 -53.70776 162.3 234.7)"/><path fill="#1a0000" fill-opacity=".6" d="M56.1 113.8l4.9-1.2 10.9 43.6-4.9 1.2z"/><path fill="#360c00" fill-opacity=".5" d="M99.1 40.8L114.8 85l-13-7.3-33.2.2z"/><path fill="#e49a30" fill-opacity=".4" d="M38.6 97.4L14 72.8l1.6-12.5 22.3-25z"/><path fill="#696659" fill-opacity=".5" d="M56 246l43-71-25 6z"/><path fill="#7f7562" fill-opacity=".6" d="M141.9 111.2L64 217.1l86.3-89.4-1.8-14.8z"/><path fill="#ffe899" fill-opacity=".5" d="M59.2 103.3l1-.5 18.6 40-1 .4z"/><circle cx="97" cy="1" r="31" fill="#231409"/><path fill="#442803" fill-opacity=".7" d="M71 112.5l-7-3.5-4.5-57.5-.1-23.5z"/><path fill="#160000" fill-opacity=".5" d="M79 89h7v27h-7z"/><circle r="1" fill="#160600" fill-opacity=".6" transform="matrix(19.94823 -75.96988 22.36389 5.87233 147.6 1.4)"/><path fill="#ffaa36" fill-opacity=".2" d="M71.7 70.5L70.2 113 84 82 63 4z"/><ellipse cx="44" cy="63" fill="#ffebb7" fill-opacity=".6" rx="3" ry="35"/><path fill="#0b1003" fill-opacity=".5" d="M12 114l-12-9 16 25z"/><circle r="1" fill="#8aa0a5" fill-opacity=".5" transform="rotate(85 -104.5 143.5) scale(28.66233 9.37361)"/><path fill="#d2e0c8" fill-opacity=".7" d="M24.4 176.2L1 130.7l26 13.6 7.3 9.4z"/><path fill="#eaebe4" fill-opacity=".6" d="M89.1 96l-3.4 14.3 1.5 3.5 39.3 10.9z"/><path fill="#bdbbad" fill-opacity=".5" d="M109 106L97 76l24 9z"/><circle r="1" fill="#4b5948" fill-opacity=".9" transform="matrix(3.552 10.02964 -11.771 4.1687 0 246.4)"/><ellipse cx="27" cy="231" fill-opacity=".5" rx="5" ry="50"/><path fill="#b0b2ab" fill-opacity=".5" d="M47 200l21 9 7-34z"/><circle r="1" fill="#8c541b" fill-opacity=".5" transform="rotate(74.6 -70.8 102.2) scale(46.45561 4.77998)"/><circle r="1" fill="#170300" fill-opacity=".4" transform="matrix(-25.32442 -127.89768 7.8175 -1.5479 163.5 100.5)"/><circle r="1" fill="#ddf4d2" fill-opacity=".5" transform="rotate(-157.9 10 51.6) scale(13.05084 1.96109)"/><path fill="#0c1507" fill-opacity=".5" d="M12.9 131.8L32 142.5l-1 1.7-19-10.7z"/><path fill="#140100" fill-opacity=".7" d="M-29 74.1L7.7-16.7 29-8.1-7.7 82.7z"/><path fill="#020100" fill-opacity=".6" d="M29.4 225.8l26.7-36.7-24.7-68.9 4 3.1z"/><path fill="#2d0c00" fill-opacity=".5" d="M76 56h74v19H76z"/><path fill="#c4d5b3" fill-opacity=".3" d="M13.2 241.6L27 193.1l-13.6 19.6-20.3 17.1z"/><path fill="#f1f4f3" fill-opacity=".5" d="M119 79h17v41h-17z"/></g></svg>