<svg xmlns="http://www.w3.org/2000/svg" viewBox="0 0 299 449"><defs/><path fill="#4c4337" d="M0 0h299v449H0z"/><g transform="translate(.9 .9) scale(1.7539)"><path fill="#f6f5f7" fill-opacity=".6" d="M151 229.2l-40.4 11.5L67 88.8l40.4-11.5z"/><ellipse cx="56" cy="117" fill="#efecf6" fill-opacity=".8" rx="13" ry="23"/><path fill-opacity=".6" d="M25-16h161l-17 202z"/><circle r="1" fill="#020b28" fill-opacity=".6" transform="matrix(-32.56823 -6.19566 11.1502 -58.61243 63.2 208.2)"/><ellipse cx="119" cy="236" fill="#adb1b2" fill-opacity=".6" rx="25" ry="105"/><path fill="#cfdfdb" fill-opacity=".7" d="M0 75h20v21H0z"/><path fill="#13100a" fill-opacity=".9" d="M42 69l144-26L39-16z"/><path fill="#d5c5bd" fill-opacity=".6" d="M52.9 115l51.3-46.8 26.9 165.2L64 61.5z"/><circle r="1" fill="#291d12" transform="matrix(19.54791 -4.513 24.02678 104.0714 169.9 220)"/><path fill="#dcdac7" fill-opacity=".4" d="M49 111l-32 27 8 50z"/><circle r="1" fill="#1a0d0a" fill-opacity=".6" transform="matrix(34.13896 145.6974 -22.9038 5.36668 0 197)"/><path fill="#dad8d5" fill-opacity=".4" d="M82.6 139.4l-7.5 31.4 48.9-6.4-7.9-47.7z"/><path fill="#270e16" fill-opacity=".3" d="M27.8 167.8L72 128.2l80.6-41.4-11.1 13.5z"/><path fill="#4c2b29" fill-opacity=".7" d="M75.4 95.7l-9.3 30.4 1.6-38.5 49.8-30.2z"/><ellipse cx="136" cy="249" fill="#5c6169" fill-opacity=".4" rx="17" ry="55"/><ellipse cx="47" cy="72" fill="#020500" fill-opacity=".6" rx="8" ry="25"/><path fill="#e3e3e4" fill-opacity=".6" d="M72 204h5v12h-5z"/><path fill="#00041e" fill-opacity=".4" d="M42 136h22v120H42z"/><ellipse cy="12" fill="#1c1f10" fill-opacity=".4" rx="29" ry="62"/><path fill="#f0effa" fill-opacity=".4" d="M94 87.6l8.2 30.9-22.2 6-8.2-31z"/><path fill="#010200" fill-opacity=".6" d="M25 123l-39-1 30 28z"/><circle r="1" fill="#9a9da2" fill-opacity=".4" transform="rotate(-135.4 104.5 89.6) scale(22.07784 34.17927)"/><path fill="#828769" fill-opacity=".4" d="M18 59h22v50H18z"/><circle cx="86" cy="164" r="9" fill="#845e59" fill-opacity=".8"/><circle r="1" fill="#9d998b" fill-opacity=".5" transform="rotate(67.2 -119.6 108.1) scale(14.61756 7.69655)"/><path fill="#ebe2e7" fill-opacity=".3" d="M44.9 94.6l8.4 49.7-1.7 3.5 24.8-28.3z"/><path fill="#53524f" fill-opacity=".5" d="M70 213l-11-18 20-37z"/><path fill="#001435" fill-opacity=".6" d="M82 147l-36-4-6 85z"/><ellipse cx="62" cy="241" fill="#0f0d16" fill-opacity=".6" rx="25" ry="31"/><path fill="#781c27" fill-opacity=".5" d="M67 91h7v55h-7z"/><path fill="#231e22" fill-opacity=".4" d="M156 271l-18-1 2-48z"/><circle cx="143" cy="12" r="73" fill="#15120a" fill-opacity=".6"/><path fill="#fff4fa" fill-opacity=".4" d="M95.6 133.8L81 165.6l-1.8-6.6 9.4-27.5z"/><path fill="#b1ae9f" fill-opacity=".5" d="M19 152h24v7H19z"/><path fill="#000300" fill-opacity=".3" d="M125 49v72l-19-6z"/><circle r="1" fill="#362718" fill-opacity=".5" transform="rotate(93 11.5 146) scale(44.5431 25.22392)"/><path fill="#c47b6a" fill-opacity=".5" d="M58 69h18v16H58z"/><path fill="#dadae1" fill-opacity=".8" d="M44.5 109.1l16.6-20.7 5.7 11.9-11.2 41.8z"/><path fill="#06193c" fill-opacity=".6" d="M85 167h10v35H85z"/><path fill="#dc9973" fill-opacity=".4" d="M100 79h11v39h-11z"/><path fill="#241813" fill-opacity=".6" d="M83.5 90.8l-11.8-2.3 6.8-35.3 11.8 2.3z"/><path fill="#796165" fill-opacity=".6" d="M84.3 121.6l-.6 17-8-.2.6-17z"/><ellipse cx="33" cy="144" fill="#5e5545" fill-opacity=".6" rx="4" ry="27"/><path fill="#818483" fill-opacity=".6" d="M143 192l9 44-23 10z"/><path fill="#70726d" fill-opacity=".5" d="M96 171l-2 57 10-25z"/><path fill="#39261c" fill-opacity=".6" d="M13 188h26v68H13z"/><path fill-opacity=".3" d="M50.2 85.2l7.9-1.3 1.7 11L52 96z"/><path fill="#cecac1" fill-opacity=".5" d="M18 49h2v46h-2z"/><path fill="#232014" fill-opacity=".9" d="M17.1 48.7l-1.3 7.7 2.6 18-34.4-1.6z"/><path fill="#1a1311" fill-opacity=".9" d="M154 214h17v42h-17z"/><path fill="#000200" fill-opacity=".5" d="M37 149l7-19 9 12z"/><path fill="#8c887d" fill-opacity=".6" d="M115.2 120.8l-14.6-24.6 24.3 30.6 9.6 21.6z"/><path fill="#353226" fill-opacity=".6" d="M4 109h41v10H4z"/><path fill="#c7ccc5" fill-opacity=".4" d="M94 161l25-39 17 107z"/><path fill="#989391" fill-opacity=".4" d="M75.3 126.7l-4.9-14-4.9 28.3-16.5 2.5z"/><path fill="#eadddb" fill-opacity=".3" d="M48.1 98.6l26.7 22.9-26.7-.7-6-18.6z"/><circle r="1" fill="#02072b" fill-opacity=".5" transform="rotate(99.7 -23.3 106) scale(7.32815 4.86188)"/><path fill="#001944" fill-opacity=".4" d="M76 173h13v83H76z"/><path fill="#a5a4a4" fill-opacity=".6" d="M100 197l3 72 39-77z"/><path fill="#b4aa99" fill-opacity=".5" d="M36 115h3v42h-3z"/><ellipse cx="27" cy="62" fill="#403e2d" fill-opacity=".6" rx="3" ry="44"/><circle cx="65" cy="192" r="4" fill="#91989e" fill-opacity=".5"/><path fill="#181710" fill-opacity=".5" d="M112.4 111l-4.7-54.6 69.4 15.8L99 123.3z"/><path fill="#242015" fill-opacity=".7" d="M47.5 147.7l-7.6 56.8-5.4-41.4 17.6-12.8z"/><path fill="#cdccd3" fill-opacity=".4" d="M70.7 94.2l8.3-5.6 23 10.2-17.9 30.3z"/></g></svg>