<svg xmlns="http://www.w3.org/2000/svg" viewBox="0 0 300 199"><defs/><path fill="#74463a" d="M0 0h300v199H0z"/><g transform="translate(.6 .6) scale(1.17188)"><circle r="1" fill="#caddd7" fill-opacity=".7" transform="matrix(166.68048 -78.43388 85.63553 181.98476 73.2 111.2)"/><circle r="1" fill="#230a02" fill-opacity=".6" transform="rotate(-3.4 1215 -3110) scale(21.27269 34.34882)"/><circle r="1" fill="#100602" fill-opacity=".6" transform="rotate(-64.9 232.3 -71.8) scale(50.53579 21.46634)"/><circle r="1" fill="#e1e4dd" fill-opacity=".5" transform="matrix(-73.07334 165.67945 -52.11302 -22.98458 89 37.8)"/><circle r="1" fill="#120e00" fill-opacity=".5" transform="matrix(-45.27945 -14.9681 5.17164 -15.64455 153.6 162.4)"/><circle r="1" fill="#748485" fill-opacity=".7" transform="matrix(35.4871 -9.32267 21.97737 83.65767 238.2 51.3)"/><path fill="#ebb69d" fill-opacity=".4" d="M132 46h46v107h-46z"/><circle r="1" fill="#edf4fb" fill-opacity=".6" transform="matrix(-10.3624 5.65166 -14.91241 -27.3421 242.6 152.2)"/><circle r="1" fill-opacity=".7" transform="rotate(-110.2 116.3 -38) scale(22.679 9.47162)"/><path fill="#3a0600" fill-opacity=".5" d="M164 125l-3-16-37-6z"/><circle r="1" fill="#ffdbc0" fill-opacity=".6" transform="matrix(10.91093 14.19572 -25.53062 19.62302 186.5 122)"/><path fill="#301f13" fill-opacity=".6" d="M208 123l20-24-12 49z"/><ellipse cx="120" cy="44" fill="#eef5fa" fill-opacity=".4" rx="22" ry="42"/><path fill="#0a1100" fill-opacity=".5" d="M100 175l33-21-13-20z"/><circle r="1" fill="#f9ffff" fill-opacity=".6" transform="matrix(12.19788 -10.69586 6.78225 7.73468 149 88.7)"/><path fill="#c49f7d" fill-opacity=".8" d="M124.9 124.5l-69.5 3 25 21.3 67.8-88.6z"/><path fill="#1a0604" fill-opacity=".4" d="M164.3 37.4l22.4-7.7-18.3 12.8-30.8 26.3z"/><path fill="#1c1710" fill-opacity=".5" d="M147 148.7l-.1-11.9 13.5 9.9L206 185z"/><path fill="#824937" fill-opacity=".7" d="M167.4 95.1l-3.6-38.6-1.7 1.3 23.1 49z"/><path fill="#e8dac6" fill-opacity=".7" d="M101.1 132l47.1 16.7-36.3-50.3 58.9 36.8z"/><circle r="1" fill="#743023" fill-opacity=".5" transform="rotate(-170.4 77.5 22.7) scale(11.95408 6.34977)"/><path fill="#a29f83" fill-opacity=".6" d="M25 131.1l8.7-26.6 12.5 45.8-28.8 24.5z"/><path fill="#2c3033" fill-opacity=".6" d="M212.4 190.4L195.9 163l25.7-15.4 16.5 27.4z"/><circle r="1" fill="#6e7e78" fill-opacity=".5" transform="rotate(-82.1 33.2 -38.1) scale(32.22562 7.67633)"/><ellipse cx="91" cy="169" fill="#9c9878" fill-opacity=".9" rx="49" ry="5"/><path fill="#9b9a91" d="M225 100.3L194.5 90l-3.1-3.3 26.4-5.3z"/><path fill="#d0cdc4" fill-opacity=".7" d="M131.6 145.6l-42.5-38.4 60.4 29.2-11.4 28.3z"/><path fill="#fffdf9" fill-opacity=".3" d="M179.9 52L107.8 9.7l68.3 62-20.3-5.5z"/><ellipse cx="7" cy="36" fill="#90a6a9" fill-opacity=".5" rx="31" ry="38"/><circle cx="195" cy="155" r="5" fill="#b7c3c6" fill-opacity=".5"/><path fill="#fff" fill-opacity=".4" d="M67 165l-13-13 45-4z"/><ellipse cx="112" cy="28" fill="#8a9187" fill-opacity=".5" rx="3" ry="47"/><circle r="1" fill="#a0aba8" fill-opacity=".7" transform="matrix(40.94392 24.6016 -3.38881 5.63993 170 18.5)"/><path fill="#884735" fill-opacity=".5" d="M145 56l9 8-28 32z"/><path fill="#0a0f0d" fill-opacity=".5" d="M177.8 47.7l-18.1-6.2 19-10.4L212 89.7z"/><path fill="#f1f4f4" fill-opacity=".3" d="M65.8 94.6l93.7-38.4-56.3 37.9L59 121.4z"/><circle r="1" fill="#678082" fill-opacity=".5" transform="rotate(-101.2 31.3 38.1) scale(34.16787 8.14672)"/><path fill="#ddae8a" fill-opacity=".5" d="M173 158l42-37-43 10z"/><circle r="1" fill="#824627" fill-opacity=".5" transform="rotate(-162.7 71 51.1) scale(7.4574 3.32629)"/><circle cx="180" cy="93" r="11" fill="#682f1f" fill-opacity=".5"/><path fill="#0d0702" fill-opacity=".5" d="M192.5 85.4L181 75.5l16.4-18.9 11.4 9.9z"/><path fill="#7f4f3d" fill-opacity=".7" d="M127.1 82.1l12.3 30.2 18.5 3.1-27.3-8.3z"/><circle r="1" fill="#667475" fill-opacity=".5" transform="matrix(-17.86255 -77.99198 29.32993 -6.71745 253 23.2)"/><path fill="#ecd7cc" fill-opacity=".5" d="M165 104h32v29h-32z"/><ellipse cx="40" cy="12" fill="#d2d8da" fill-opacity=".8" rx="5" ry="36"/><path fill="#5c3f0f" fill-opacity=".3" d="M36.4 153.2l9.3-8.6-32-10.7 12.7 10.3z"/><path fill="#2b1e1b" fill-opacity=".6" d="M181.3 151.2l22.1 13-4.2 15.4-36.9 3.1z"/><path fill="#e9f7fd" fill-opacity=".2" d="M85.9 79.4L154 48.1l19.2-23.4-43.5 4.5z"/><path fill="#b6ac93" fill-opacity=".8" d="M83.9 99.5l7.4 19.9 23 5.7-6 40.3z"/><circle r="1" fill="#051200" fill-opacity=".4" transform="matrix(5.72516 -2.76662 5.30715 10.98244 125 149.7)"/><circle r="1" fill="#939b97" fill-opacity=".6" transform="rotate(-113.6 123.5 -42.3) scale(60.35737 8.74551)"/><path fill="#d0dae4" fill-opacity=".6" d="M80.3 45.6l3.5-50.9 24 1.7-3.6 50.9z"/><path fill="#21140c" fill-opacity=".4" d="M153.6 60l43.8-2.9L207 84l-26-18.7z"/><path fill="#a2b2b9" fill-opacity=".3" d="M8 0h76v62H8z"/><path fill="#e6e9ea" fill-opacity=".6" d="M226 112l25 73-22-28z"/><path fill="#bfa884" fill-opacity=".4" d="M137 185l-40.8-38.5L78.6 169l64.6-11.9z"/><path fill="#443d37" fill-opacity=".5" d="M203 139l16 46 7-92z"/><path fill="#f3c4b2" fill-opacity=".5" d="M181 64h-15l7 9z"/><path fill="#99a1a4" fill-opacity=".6" d="M271 164l-35-68-11 19z"/><path fill="#b46b1b" fill-opacity=".5" d="M74 128h10v13H74z"/><circle r="1" fill="#31261b" fill-opacity=".5" transform="rotate(-132.3 119.3 41.8) scale(28.65442 2.8494)"/><circle r="1" fill="#abb2af" fill-opacity=".7" transform="matrix(8.51827 -10.08001 27.97567 23.64128 149.7 7)"/><path fill="#eaeaea" fill-opacity=".5" d="M136 89l27 10-7-36z"/><path fill="#d5a176" fill-opacity=".5" d="M202.8 133.7l9.5-32.4-6.4-6.8 22.3.5z"/><path fill="#7c4134" fill-opacity=".5" d="M161.4 78.5l5.9-18 6.6 30L195.7 69z"/></g></svg>