<svg xmlns="http://www.w3.org/2000/svg" viewBox="0 0 299 449"><defs/><path fill="#53443a" d="M0 0h299v449H0z"/><g transform="translate(.9 .9) scale(1.7539)"><circle cx="65" cy="253" r="45" fill="#e4eff0" fill-opacity=".8"/><circle r="1" fill="#ffdecc" fill-opacity=".6" transform="matrix(44.87655 -26.11878 17.61988 30.27398 63.5 130.4)"/><path fill="#d9dde7" fill-opacity=".8" d="M150.8 124l-30.5 57.8L136 97.4l30.7-21.8z"/><circle r="1" fill="#001038" fill-opacity=".8" transform="matrix(-32.83773 131.70495 -33.0764 -8.24687 154.2 212.7)"/><circle r="1" fill="#8e6854" transform="matrix(6.33036 34.49142 -23.88953 4.38455 34.7 186)"/><circle r="1" fill="#02140d" fill-opacity=".6" transform="matrix(-8.22696 20.67344 -117.0089 -46.5635 69.6 0)"/><circle r="1" fill="#c4ceca" fill-opacity=".5" transform="matrix(20.46212 13.39409 -16.42627 25.09437 84 225)"/><ellipse cx="26" cy="37" fill="#121c10" fill-opacity=".6" rx="23" ry="65"/><ellipse cx="68" cy="73" fill="#916552" rx="16" ry="44"/><circle r="1" fill="#d7fcfb" fill-opacity=".7" transform="matrix(-10.60661 3.96565 -17.09416 -45.7204 170 .3)"/><path fill="#ffb283" fill-opacity=".3" d="M101.5 91.4l40.8 18.5 25.2-18-71.1-73.2z"/><path fill="#feffd2" fill-opacity=".3" d="M-11.1 115l101.7 59.6L.9 90l20.4-3z"/><ellipse cx="115" cy="114" fill="#05001b" fill-opacity=".6" rx="12" ry="14"/><path fill="#dbd3ce" fill-opacity=".7" d="M101.3 115l5-19L93 87.5l-43.3 83.1z"/><path fill="#483639" fill-opacity=".5" d="M74 142h50v61H74z"/><path fill="#ffd3f5" fill-opacity=".6" d="M98.1 148.7l-5-12 12.8-5.4 5 12z"/><path fill="#d6dee9" fill-opacity=".5" d="M121.2 188.8L186 40.5v54.6l-37.1-15.8z"/><path fill="#09122d" fill-opacity=".6" d="M110 175h61v70h-61z"/><ellipse cx="21" cy="165" fill="#d8a480" fill-opacity=".5" rx="10" ry="37"/><path fill="#fee4ce" fill-opacity=".5" d="M57 44l26 1-9-16z"/><path fill="#fae4d0" fill-opacity=".4" d="M43.9 142.4l-30.3-7.5 24.3-32.3L76 113.7z"/><path fill="#3a1f1d" fill-opacity=".5" d="M63 190l-12-33-23 28z"/><path fill="#874a32" fill-opacity=".5" d="M42 63h36v46H42z"/><ellipse cx="55" cy="255" fill="#d8e0e1" fill-opacity=".6" rx="40" ry="31"/><path fill="#e5fdfa" fill-opacity=".7" d="M2.2 32.1l3.2 7-21.4 23V37.6z"/><path fill="#fdffff" fill-opacity=".5" d="M77 90h20v12H77z"/><path fill="#c8d36d" fill-opacity=".5" d="M163 161l-15 2 8-9z"/><path fill="#2e1528" fill-opacity=".6" d="M137 110l-30-12 2 49z"/><ellipse cx="149" cy="43" fill="#090001" fill-opacity=".4" rx="15" ry="32"/><path fill="#ba0f14" fill-opacity=".5" d="M118 118h7v68h-7z"/><circle r="1" fill="#8f977c" fill-opacity=".3" transform="matrix(26.47814 -4.56948 2.92045 16.92273 86 204)"/><path fill="#dff" fill-opacity=".4" d="M18 25L33 6l-9 3z"/><path fill="#2e2712" fill-opacity=".5" d="M93.8 117.6l7.5 13.3-19.4 9 7.5 46.9z"/><circle cx="76" cy="167" r="8" fill="#c7a79f" fill-opacity=".5"/><path fill="#f3c5aa" fill-opacity=".5" d="M49.8 200.7l-17.7 6.8-4-10.2 17.8-6.8z"/><path fill="#001f03" fill-opacity=".4" d="M86.5 90.1L73 72.8l16.5-13L103 77.3z"/><circle r="1" fill="#6f5646" fill-opacity=".6" transform="matrix(-4.35807 -8.16194 40.25944 -21.49654 44 210.4)"/><path fill="#f7ebf4" fill-opacity=".5" d="M77 153.9l7-1-28.3-11 4.4 23.7z"/><path fill="#ebf8f6" fill-opacity=".5" d="M144 116l17-31-32 16z"/><path fill="#d69367" fill-opacity=".4" d="M119 65l-26-1 8-36z"/><path fill="#345e0f" fill-opacity=".4" d="M-10.7 153.5l2.6-23.8 52.6-38-6 14z"/><path fill="#316247" fill-opacity=".6" d="M162 82l4-66 20 54z"/><circle r="1" fill="#6f3a29" fill-opacity=".6" transform="matrix(-8.4284 -8.16768 20.41629 -21.06797 124.8 78.5)"/><ellipse cx="89" cy="28" fill="#102f1a" fill-opacity=".7" rx="8" ry="33"/><path fill="#1f190f" fill-opacity=".5" d="M35 91l-51-10L85-16z"/><path fill="#9b4e1b" fill-opacity=".4" d="M49 134l22-8-22 33z"/><path fill="#96ca5c" fill-opacity=".5" d="M0 101h23v17H0z"/><path fill="#b79ec2" fill-opacity=".5" d="M111.2 149.6L115 133l5.8 1.4L117 151z"/><path fill="#f2c9b5" fill-opacity=".5" d="M81 54L69 65l18-3z"/><path fill="#20160e" fill-opacity=".5" d="M64.4 49.8l23.4-5.4 1.8 7.8-23.4 5.4z"/><path fill="#af785a" fill-opacity=".4" d="M37.3 69.4l32.3-33.3-17.7 73.4-13.2-47.8z"/><path fill="#ae8465" fill-opacity=".6" d="M84 105l-28 17 33-3z"/><path fill="#0d3278" fill-opacity=".5" d="M147.3 129.3l20.3-43.5 19 8.9-20.2 43.5z"/><ellipse cx="130" cy="249" fill="#0e2a5e" fill-opacity=".3" rx="26" ry="36"/><path fill="#e7f0ee" fill-opacity=".5" d="M164 91l-19 33 13-52z"/><path fill="#00090a" fill-opacity=".5" d="M99.2 151.4l8.3-3.5 11.3 26.7-8.3 3.5z"/><path fill="#a9b0b1" fill-opacity=".7" d="M113.6 268.5l-9.9-59-29.5 2.1 19.4 17.2z"/><path fill="#81584c" d="M27.3 167.5l54.5-1.1-20.6 12.7-4.6-1z"/><path fill="#243b2e" fill-opacity=".8" d="M150.9 13L35.2-3.5 147.1-13 174 41z"/><path fill="#9da59f" fill-opacity=".7" d="M56 212.9l-19.7 6-15.4 17.2.5 6.3z"/><path fill="#0c1a0a" fill-opacity=".5" d="M98.5 178l-16.7 9.3-6.3-11.4 16.7-9.2z"/><path fill="#fffff4" fill-opacity=".5" d="M4 90h8v5H4z"/><path fill="#613528" fill-opacity=".5" d="M66.9 38.2l8 70.6-14.3-4.4 5.1-56.5z"/><path fill="#decfcb" fill-opacity=".6" d="M47.1 112.3l-24.5 5.4 21.3 43.4 2.1-13z"/><circle r="1" fill="#253524" fill-opacity=".9" transform="matrix(18.49984 6.24227 -7.72048 22.88071 0 66.4)"/></g></svg>