<svg xmlns="http://www.w3.org/2000/svg" viewBox="0 0 300 199"><defs/><path fill="#472c22" d="M0 0h300v199H0z"/><g transform="translate(.6 .6) scale(1.17188)"><circle r="1" fill="#eeddd6" fill-opacity=".5" transform="matrix(150.90857 25.66292 -42.75056 251.39091 144.4 125.1)"/><circle r="1" fill="#261207" fill-opacity=".8" transform="matrix(37.43568 -1.69994 2.9166 64.22871 193.7 29)"/><circle r="1" fill="#eff9f9" fill-opacity=".6" transform="matrix(1.97214 30.74907 -38.3452 2.45933 102 17)"/><path fill="#e1ecf6" fill-opacity=".7" d="M204 143l48 42 19-125z"/><circle r="1" fill="#f9ffff" fill-opacity=".7" transform="rotate(-41.1 276.7 -52.1) scale(22.52209 50.60811)"/><circle r="1" fill="#231000" fill-opacity=".6" transform="rotate(-17 263.8 -446.2) scale(12.63329 21.89134)"/><path fill="#fff7eb" fill-opacity=".5" d="M96 23l48 94-32-4z"/><circle r="1" fill="#441705" fill-opacity=".6" transform="matrix(9.91658 1.5566 -4.2373 26.99446 47.8 19.1)"/><path fill="#442116" fill-opacity=".8" d="M165.7 142.4l2.8 42.6h-27.4l7.8-41.4z"/><circle r="1" fill="#e8eef0" fill-opacity=".7" transform="matrix(-13.54277 2.10758 -3.9015 -25.07005 255 21.4)"/><circle r="1" fill="#faffff" fill-opacity=".5" transform="matrix(-15.3634 25.49147 -12.69395 -7.6505 0 112.5)"/><circle r="1" fill="#ecba9b" fill-opacity=".5" transform="rotate(-52 102.5 -30.8) scale(36.14303 22.09173)"/><circle r="1" fill="#752009" fill-opacity=".4" transform="matrix(-32.80378 -18.75035 5.92812 -10.37127 163 103.2)"/><ellipse cx="8" cy="159" fill="#d8e9ff" fill-opacity=".5" rx="21" ry="25"/><path fill="#190800" fill-opacity=".5" d="M137-16l27 70 60 11z"/><path fill="#5d4439" fill-opacity=".9" d="M193.4 98l49.1-93.5-25 101.2-6.2 9.2z"/><path fill="#590e00" fill-opacity=".3" d="M18 148.7l-6.1-25.6 11.4-26.8 34.4 10.8z"/><path fill="#cdc7ca" fill-opacity=".6" d="M77.4 109.1l19.2 10.7-46 83-19.2-10.6z"/><circle r="1" fill="#99533c" fill-opacity=".5" transform="rotate(-144.8 14 23.6) scale(18.32615 51.02802)"/><path fill="#7d392a" fill-opacity=".6" d="M116 85.7l-5.4 30.6-22.6-4 5.4-30.6z"/><circle r="1" fill="#fffcf6" fill-opacity=".5" transform="matrix(-47.7515 -47.89957 1.99411 -1.98795 203 113.6)"/><path fill="#8e5847" fill-opacity=".9" d="M156 19l-9-26.6L180-19l9.2 26.4z"/><path fill="#fffff6" fill-opacity=".3" d="M170 67l-23-52 9 66z"/><path fill="#652716" fill-opacity=".6" d="M28 149l22-11-16 47z"/><path fill="#ede8d9" fill-opacity=".5" d="M99 20h17v61H99z"/><path fill="#763111" fill-opacity=".5" d="M92 35h6v52h-6z"/><path fill="#efe3dd" fill-opacity=".5" d="M66 49h7v72h-7z"/><circle r="1" fill="#755350" fill-opacity=".4" transform="matrix(15.16803 2.10474 -5.1258 36.93964 144.7 123)"/><path fill="#bdb7b9" d="M45 133.6l-34.2 10.8-15.2-48.8 30 58.3z"/><circle r="1" fill="#aaacca" fill-opacity=".4" transform="matrix(4.4386 -14.08452 35.34812 11.13963 201.6 161.8)"/><ellipse cx="242" cy="64" fill="#978e96" fill-opacity=".5" rx="16" ry="42"/><path fill="#eba992" fill-opacity=".5" d="M30 14l34-27L10 2z"/><path fill="#1d1008" fill-opacity=".5" d="M227 73l-30-87-23 97z"/><path fill="#d1d2d0" fill-opacity=".6" d="M64 0h77v40H64z"/><path fill="#fffbf8" fill-opacity=".4" d="M116 65h11v53h-11z"/><path fill="#b5906e" fill-opacity=".8" d="M105.8 91.7L122 69.5l-7.6-32.7 15.1-3.3z"/><circle r="1" fill="#915941" fill-opacity=".6" transform="rotate(100.2 17.5 72.5) scale(34.26269 4.77155)"/><circle r="1" fill="#f8fbfe" fill-opacity=".5" transform="matrix(-16.68073 4.33512 -8.17794 -31.46722 104.6 169)"/><path fill="#b48773" fill-opacity=".9" d="M92.1 114.8L65.5 130l11.1-27.6-5-57z"/><path fill="#261005" fill-opacity=".4" d="M46 0h10v46H46z"/><path fill="#7d624f" fill-opacity=".9" d="M240 26L221-1l12-7z"/><path fill="#fff9e4" fill-opacity=".4" d="M34 65h13v15H34z"/><path fill="#1f0000" fill-opacity=".5" d="M126 122l-7 10-1-16z"/><ellipse cx="60" cy="101" fill="#c19382" fill-opacity=".7" rx="8" ry="40"/><path fill="#9d624e" fill-opacity=".5" d="M-11 75l37-91 12 125z"/><circle cx="53" cy="160" r="9" fill="#dbe3eb" fill-opacity=".5"/><path fill="#d1c6c4" fill-opacity=".4" d="M125 122.5l12.9 8.7 3.6-5.3 5.6-25.9z"/><path fill="#f4e1cb" fill-opacity=".5" d="M160 83V59l-12 31z"/><path fill="#e9eaeb" fill-opacity=".9" d="M137.9 182.2l9.6-10.9-60.4-18.2-11.7-33.3z"/><circle r="1" fill="#844c3d" fill-opacity=".5" transform="matrix(37.06486 33.73417 -5.02304 5.51898 166.8 110.8)"/><path fill="#f4f0f1" fill-opacity=".4" d="M193.4 96l35 50-5.8 4-35-50z"/><path fill="#634c41" fill-opacity=".9" d="M227.7 72.7l-22-54.2 1.6 9.7 30.1 21.2z"/><path fill="#36251b" fill-opacity=".7" d="M142.5 43.5L154.4 60l-17.6 13.4-11.2-35.1z"/><path fill="#311a0c" fill-opacity=".5" d="M169.7 79.3l3.5-4.8 25.1 18.2-3.5 4.8z"/><path fill="#ac9fa3" d="M169.2 128l-1.2 57h13.2l2.5-54.3z"/><path fill="#060300" fill-opacity=".4" d="M239.1 29.7l-38.5-11.3L187.9-16l48.2 32.4z"/><path fill="#e8e7ea" fill-opacity=".6" d="M11 159l15-11 5 17z"/><path fill="#b3b0b7" fill-opacity=".7" d="M215.7 112.5l29.8-12.5-12.7 35.1-14.9-9.7z"/><path fill="#050000" fill-opacity=".5" d="M164 63l-1-45 14 23z"/><path fill="#fae5d8" fill-opacity=".5" d="M36 92h31v5H36z"/><path fill="#72311a" fill-opacity=".5" d="M162 106l1-36 15 43z"/><path fill="#8b5b4d" fill-opacity=".4" d="M39.9 159.3L73.5 132l.1 12.8-30.6-8.2z"/><path fill="#531500" fill-opacity=".2" d="M50.3 90.8L-16 159.3 70.7 83l-37.8-1.1z"/><path fill="#e0edf9" fill-opacity=".4" d="M8 124l12-22-36-33z"/><path fill="#c7c6ca" fill-opacity=".5" d="M271 7.6l-41 26.6 39.2 26.2L239 81.1z"/></g></svg>