<svg xmlns="http://www.w3.org/2000/svg" viewBox="0 0 299 449"><defs/><path fill="#61432f" d="M0 0h299v449H0z"/><g transform="translate(.9 .9) scale(1.7539)"><circle cy="49" r="158" fill="#d9f1de" fill-opacity=".4"/><path fill="#ffe0b8" fill-opacity=".6" d="M145.8 47.6L-5.8 58.2-9.8.4l151.6-10.6z"/><circle r="1" fill="#2a2f10" fill-opacity=".6" transform="matrix(-38.54979 18.67015 -13.11939 -27.08867 94.2 85.7)"/><circle r="1" fill="#dbe2f3" fill-opacity=".7" transform="matrix(5.22213 21.82485 -25.37024 6.07045 84.6 169)"/><circle r="1" fill="#00041c" fill-opacity=".4" transform="rotate(10.1 -1378 424.8) scale(152.99056 58.46695)"/><circle r="1" fill="#211e0e" fill-opacity=".5" transform="matrix(16.20385 -5.11352 13.85552 43.90575 116.3 130.3)"/><ellipse cx="141" cy="146" fill="#b6b7ba" fill-opacity=".8" rx="5" ry="48"/><circle cx="23" cy="131" r="50" fill="#55645e" fill-opacity=".6"/><path fill="#030300" fill-opacity=".5" d="M180 267l-96-20 102-100z"/><path fill="azure" fill-opacity=".5" d="M42.1 193.3l-3.7-17.6 23.5-5 3.7 17.6z"/><ellipse cy="219" fill="#3c494e" rx="12" ry="128"/><circle r="1" fill="#f9ffff" fill-opacity=".5" transform="rotate(82.1 -79.7 83.2) scale(37.62198 3.28043)"/><circle r="1" fill="#001909" fill-opacity=".4" transform="matrix(4.25674 4.34938 -28.85768 28.24301 41.6 172.3)"/><path fill="#f4f8ff" fill-opacity=".6" d="M70.5 150.6l14.4-24 14.6 8.8-14.4 24z"/><path fill="#433f2f" fill-opacity=".8" d="M149 53h22v116h-22z"/><circle r="1" fill="#a5a293" fill-opacity=".5" transform="matrix(-12.00641 9.33874 -27.47595 -35.32465 36.5 100.8)"/><circle r="1" fill="#35655d" fill-opacity=".5" transform="matrix(11.3635 -16.59596 21.59688 14.7877 48.3 73.6)"/><path fill-opacity=".5" d="M135 114l3 68-29 19z"/><ellipse cx="142" fill="#d9a36e" fill-opacity=".5" rx="15" ry="79"/><ellipse cx="144" cy="186" fill="#bdcce0" fill-opacity=".3" rx="8" ry="28"/><path fill="#baada6" fill-opacity=".6" d="M78.8 94.8l16.8 96.6-5.3-1.1 28.5-4.1z"/><circle r="1" fill="#08320d" fill-opacity=".7" transform="matrix(5.87218 12.09327 -8.0173 3.89299 4.7 105.1)"/><path fill="#a38965" fill-opacity=".4" d="M109 81h40v42h-40z"/><path fill="#4f6d8e" fill-opacity=".3" d="M-5 175l21 96h61z"/><path fill="#cfdae4" fill-opacity=".4" d="M14.8 130.4l6.2 32.2 3 3.7-14.3 47.2z"/><circle r="1" fill="#d6c8b5" fill-opacity=".6" transform="matrix(43.25265 2.58124 -1.51708 25.42105 61.3 32.5)"/><path fill="#010808" fill-opacity=".6" d="M155 160h16v59h-16z"/><path fill="#6d503e" fill-opacity=".8" d="M79.3 225.6l59.1-20.3-45.4-1.2 4 26.4z"/><path fill="#344034" fill-opacity=".5" d="M66.4 158.4l6.9-12.6 17.6-79.1-23.6 29.5z"/><path fill="#827d80" fill-opacity=".6" d="M171.1 149.4l-12.6-19.5-13.5 76.9-1.6-34.6z"/><path fill="#1d1713" fill-opacity=".4" d="M133 75L84 41l48 17z"/><path fill="#002912" fill-opacity=".5" d="M27.9 156.3l2.6-6.5 29.6 12-2.6 6.4z"/><circle r="1" fill="#504e35" fill-opacity=".7" transform="rotate(44.9 -65.8 156.4) scale(44.9967 16.30217)"/><ellipse cx="47" cy="112" fill="#8f949c" fill-opacity=".4" rx="21" ry="31"/><path fill="#c0a98b" fill-opacity=".9" d="M-16 9.2l38 61.9L-13.1 94l40.7-7.1z"/><ellipse cx="24" cy="127" fill="#933a08" fill-opacity=".3" rx="4" ry="50"/><circle r="1" fill="#092b29" fill-opacity=".5" transform="rotate(77.2 -51 47.5) scale(28.09881 1.72059)"/><path fill="#e1c5ac" fill-opacity=".5" d="M135 61h8v58h-8z"/><path fill="#9fffcd" fill-opacity=".5" d="M40 153l-5-7 25 3z"/><ellipse cx="168" cy="62" fill="#161700" fill-opacity=".3" rx="25" ry="15"/><path fill="#22270e" fill-opacity=".3" d="M30 149l27 122-44-65z"/><path fill="#efcdcd" fill-opacity=".4" d="M141.2 210l2.8-2.8 14.8 14.8-2.8 2.8z"/><path fill="#d3dce6" fill-opacity=".7" d="M42.9 185.1L91 129.5l-.6 23.9L74.9 189z"/><ellipse cx="1" cy="225" fill="#fcd7d2" fill-opacity=".4" rx="29" ry="2"/><ellipse cx="124" cy="1" fill="#c47806" fill-opacity=".2" rx="67" ry="6"/><circle r="1" fill="#22140a" fill-opacity=".9" transform="matrix(13.88512 -14.971 12.7604 11.83486 117.7 228.3)"/><path fill="#c9c9da" fill-opacity=".5" d="M41 173h6v27h-6z"/><circle r="1" fill="#f0cea9" fill-opacity=".4" transform="matrix(-37.40954 -37.67162 7.698 -7.64445 99.7 19.5)"/><path fill="#271209" fill-opacity=".6" d="M140.4 180.5l-34.3 25.7-21.4-13.5-2.8 2.2z"/><ellipse cx="1" cy="177" fill="#2b102a" fill-opacity=".4" rx="12" ry="22"/><circle r="1" fill="#233053" fill-opacity=".5" transform="matrix(99.34946 16.08377 -3.20902 19.8221 22 255)"/><path fill="#e0faff" fill-opacity=".5" d="M123 193h8v4h-8z"/><path fill="#b4ae96" fill-opacity=".5" d="M-5 213l12-19 14-2z"/><path fill="#130415" fill-opacity=".4" d="M70.9 136l-32.5 41.4 21-9.1 7.7-15.2z"/><circle r="1" fill="#15131c" fill-opacity=".5" transform="rotate(-73.5 181.5 74.3) scale(9.30772 35.09747)"/><path fill="#0b1400" fill-opacity=".5" d="M126 123h10v70h-10z"/><circle r="1" fill="#374b35" fill-opacity=".6" transform="rotate(-69.5 219.8 -10.9) scale(13.62443 6.64009)"/><path fill="#ddd5d0" fill-opacity=".6" d="M82.1 129.6l-3.3-11.8 11.8-2.1-13.3 51.2z"/><circle r="1" fill="#774d2d" fill-opacity=".3" transform="matrix(-16.64117 32.15213 -14.78865 -7.65425 162 94.3)"/><path fill="#f1c497" fill-opacity=".6" d="M161.2 256.7l-8.7-2.5.3-1 8.7 2.6z"/><path fill="#187237" fill-opacity=".4" d="M38 140h25v9H38z"/><ellipse cx="45" cy="195" fill="#8a543c" fill-opacity=".3" rx="30" ry="7"/><path fill="#ffdfc9" fill-opacity=".4" d="M41.5 44.8L21.2 57.5 8.5 37.2l20.3-12.7z"/><ellipse cx="142" cy="245" fill="#040000" fill-opacity=".5" rx="43" ry="10"/><path fill="#001700" fill-opacity=".4" d="M146.7 113l22.3 27.2 14.3-36.1-31.8 28.9z"/></g></svg>