<svg xmlns="http://www.w3.org/2000/svg" viewBox="0 0 300 199"><defs/><path fill="#715538" d="M0 0h300v199H0z"/><g transform="translate(.6 .6) scale(1.17188)"><ellipse cx="85" cy="51" fill="#b6cef0" fill-opacity=".4" rx="194" ry="120"/><circle r="1" fill="#0a0000" fill-opacity=".6" transform="rotate(110 12.1 79.3) scale(41.35445 17.7358)"/><circle r="1" fill="#c2dbed" fill-opacity=".5" transform="matrix(22.24755 54.24513 -98.50756 40.4009 68.9 6)"/><circle r="1" fill="#1d0000" fill-opacity=".6" transform="matrix(-3.96049 13.05767 -25.30184 -7.67424 164.6 56.5)"/><circle r="1" fill="#aaaec2" fill-opacity=".6" transform="rotate(76.2 10.9 205.9) scale(47.13658 15.2185)"/><circle r="1" fill="#2d0200" fill-opacity=".6" transform="rotate(1.7 -4076.9 2830.7) scale(8.4798 65.29256)"/><path fill="#510900" fill-opacity=".6" d="M189.3 180.6l-80.9-18.7 4.3-18.5 80.9 18.7z"/><path fill="#b0a3a3" fill-opacity=".9" d="M98.5 149.7l9.3 30.8-1.5-88.7-16.7 21.5z"/><path fill="#0b0403" fill-opacity=".5" d="M21.9 111l-.7-13 59-3 .6 13z"/><path fill="#3b2c00" fill-opacity=".7" d="M192-16l79 21-109 1z"/><circle r="1" fill="#f2fdff" fill-opacity=".5" transform="rotate(70.8 -77.5 68.9) scale(14.48601 11.59398)"/><ellipse cx="42" cy="80" fill="#aebbcf" fill-opacity=".6" rx="38" ry="17"/><path fill="#5b1900" fill-opacity=".4" d="M161 98l37-114-90 138z"/><path fill="#190000" fill-opacity=".5" d="M78 68h38v31H78z"/><path fill="#d5d3d7" fill-opacity=".6" d="M132 41v52l-24-45z"/><circle r="1" fill="#e6e1ee" fill-opacity=".5" transform="matrix(-7.29503 -18.3316 7.70816 -3.06745 142 135.6)"/><path fill="#b8c2ca" fill-opacity=".7" d="M165.5 41l-26 1.9-3-44 26-1.8z"/><path fill="#450600" fill-opacity=".3" d="M185 105l-1 71-37-13z"/><path fill="#afb6c1" fill-opacity=".9" d="M256.4 132.2l-20.3 3.6-5.2-23.3-35.3 19.2z"/><path fill="#01060c" fill-opacity=".8" d="M-7.5 103.9l8.9-4.1 67-2.9-49.2 5.7z"/><circle r="1" fill="#3c3b16" fill-opacity=".5" transform="matrix(8.00971 51.14895 -5.94305 .93066 174.7 39.2)"/><circle r="1" fill="#636361" transform="matrix(-16.2825 1.11003 -1.01823 -14.93597 9.3 155.5)"/><ellipse cx="159" cy="52" fill="#030000" fill-opacity=".7" rx="13" ry="10"/><path fill="#6e5f3d" d="M211.1 106.3l-33.7-22.5-1.3-94 19.4 106.8z"/><path fill="#98684d" fill-opacity=".8" d="M161.5 70.9l-9.9-9.3-19.4-29 .6 70.3z"/><path fill="#2a2c2a" fill-opacity=".3" d="M233 112h23v58h-23z"/><path fill="#999285" fill-opacity=".6" d="M76.4 83.9l-7.7 22.2L12.8 185l54-6.3z"/><circle cy="49" r="50" fill="#9ba0a9" fill-opacity=".8"/><circle cx="231" cy="67" r="44" fill="#98885b" fill-opacity=".4"/><path fill-opacity=".5" d="M115 68L99 53l-15 68z"/><path fill="#240500" fill-opacity=".7" d="M78.8 154.5l-7-15.9L87.6 87l2.5 49.1z"/><circle r="1" fill="#e2dde5" fill-opacity=".5" transform="matrix(-2.97779 2.28972 -16.2908 -21.18622 108.7 164.7)"/><path fill="#72634c" fill-opacity=".8" d="M43 185h69l-21-39z"/><path fill="#949399" fill-opacity=".6" d="M234.3 129.8L184 154.5l28 18.8-4.6 11.7z"/><path fill="#683628" fill-opacity=".5" d="M163.1 185l-26.7-48.1-26 6.3 25.4 23.8z"/><path fill="#b3b2bf" fill-opacity=".6" d="M177 86l-3-19-17 31z"/><path fill="#454a4b" fill-opacity=".5" d="M207 132h28v10h-28z"/><path fill="#300" fill-opacity=".5" d="M136 84l-2-25 11 22z"/><ellipse cx="147" cy="101" fill="#4b2c24" fill-opacity=".8" rx="19" ry="3"/><path fill="#bda9a9" fill-opacity=".5" d="M119.5 92.7l7.6 7.7-1 5.4-41.7 11z"/><path fill="#9c2400" fill-opacity=".4" d="M125.7 83.1l-9.2-19.8-16.1 34.4 22.3-4z"/><path fill="#9eacb6" fill-opacity=".6" d="M-31.3 108.9L71.2 98v1l-102.3 11z"/><path fill="#a39b9e" fill-opacity=".9" d="M115.2 123.2l8.7 21.2 17.8-25.1-1.1-8.7z"/><path fill="#aab7b9" fill-opacity=".8" d="M32.7 9.1L122 26.6l49.3 18.6-14.6-57.7z"/><path fill="#724c55" fill-opacity=".4" d="M198 128.3l-38.7 18.9-15.3-31.5 38.7-18.9z"/><path fill-opacity=".5" d="M179 84l1-12-6-11z"/><path fill-opacity=".7" d="M179 76.4L164-.2l1-.2 15 76.6z"/><path fill="#979c8b" fill-opacity=".6" d="M185 6h53v21h-53z"/><path fill="#cdd0cc" fill-opacity=".7" d="M-16 88.7l42 41-8.8 13.6-9.3-22.2z"/><path fill="#70665a" d="M261.1 145.2l-23.3-38.6-33.6 4.4 50.1 2z"/><path fill="#d7c2b0" fill-opacity=".5" d="M156.4 108.1l-12.3-42.4-27.2-35.9L150 86z"/><path fill="#fdffff" fill-opacity=".5" d="M153 143.6l-7.8 2-6.2-23.2 7.8-2z"/><path fill="#a9adb5" fill-opacity=".7" d="M44 24h33v71H44z"/><path fill="#e0e1e4" fill-opacity=".6" d="M92.9 116.2l2.9 19.4 5.4-6.3-2.6-27.2z"/><path fill="#d1c3cd" fill-opacity=".3" d="M174.1 87.1l33.6 36.5 5.2-17.7-59.8-34.4z"/><path fill-opacity=".5" d="M14 163h8v7h-8z"/><path fill="#a5827f" fill-opacity=".4" d="M179 152.6l-13-10.3-33.5 9.2 14.4 6.8z"/><path fill="#acb1b7" fill-opacity=".8" d="M149-3L45 35l42 28z"/><path fill="#cfd4dd" fill-opacity=".6" d="M243.4 133.5l-48.7 6v-1l48.6-6z"/><path fill="#704034" fill-opacity=".5" d="M105.7 110.7l46.7-1.1-19.3-14.1-27.5 39.3z"/><path fill="#4d1500" fill-opacity=".6" d="M182.4 186L165 166.7l18.6-16.7 17.4 19.3z"/><path fill="#ebf4ff" fill-opacity=".5" d="M216 119.9l19 2.3-1 8-19-2.4z"/><circle cx="93" cy="66" r="3" fill="#debccc" fill-opacity=".5"/><path fill="#3d3b25" fill-opacity=".6" d="M9.4 126.9L20 156.7l-5.5 1.8-1.3.9z"/><ellipse cy="160" fill="#d6edff" fill-opacity=".3" rx="19" ry="4"/></g></svg>