<svg xmlns="http://www.w3.org/2000/svg" viewBox="0 0 300 199"><defs/><path fill="#543c37" d="M0 0h300v199H0z"/><g transform="translate(.6 .6) scale(1.17188)"><circle r="1" fill="#dddad5" fill-opacity=".7" transform="matrix(19.58042 -95.71605 249.82621 51.1064 97.7 94.6)"/><ellipse cx="186" cy="21" fill="#390900" fill-opacity=".4" rx="35" ry="169"/><circle r="1" fill="#0c0307" fill-opacity=".6" transform="matrix(-15.67026 -15.7998 25.00831 -24.80329 110.2 110.8)"/><circle r="1" fill="#f8ffff" fill-opacity=".6" transform="rotate(64.9 1.7 66) scale(62.47346 97.14144)"/><ellipse cx="255" cy="37" fill="#d2d4d7" fill-opacity=".9" rx="27" ry="129"/><circle r="1" fill="#d6d7d8" fill-opacity=".9" transform="matrix(26.58052 -12.46025 10.5408 22.48588 235.3 94.2)"/><circle r="1" fill="#f9ffff" fill-opacity=".4" transform="matrix(17.37877 32.57204 -21.71024 11.58347 52.4 138.9)"/><path fill="#2a201a" fill-opacity=".4" d="M149 5h82v47h-82z"/><circle r="1" fill="#fffff5" fill-opacity=".3" transform="rotate(159.7 69.4 48.3) scale(24.37407 29.87323)"/><circle r="1" fill="#443c3a" fill-opacity=".7" transform="rotate(-81.1 128.7 22.8) scale(51.49507 5.20427)"/><circle cx="203" cy="160" r="39" fill="#957e71" fill-opacity=".9"/><path fill="#e4e1e0" fill-opacity=".7" d="M93 135h48v35H93z"/><path fill="#3d3032" fill-opacity=".6" d="M86 143l21-82 40 39z"/><path fill="#9b7a6d" fill-opacity=".9" d="M155 73.5l-9-6.1 33-49 9 6.2z"/><circle r="1" fill="#703f2c" fill-opacity=".5" transform="rotate(126.7 71.5 90) scale(74.4821 14.76122)"/><path fill="#fffffc" fill-opacity=".2" d="M110.5 33.9L90 85.8l55.8-32.7-81.1 103.4z"/><path fill="#d9dada" fill-opacity=".8" d="M166.2-16H45l94.8 108.4 10.2-75z"/><path fill="#c8c9ca" fill-opacity=".8" d="M271 44l-57-60 31 66z"/><path fill="#0d070d" fill-opacity=".6" d="M116 81h16v40h-16z"/><path fill="#3e502e" fill-opacity=".5" d="M84 126L73 89l-5 26z"/><path fill="#000206" fill-opacity=".3" d="M147.5 16.4L248.2-16l-81.8 45-14.2 50z"/><path fill="#a9a6aa" fill-opacity=".6" d="M101.9 110.8l16.6-11.3-3.5-25.2-6.2 48.5z"/><path fill="#ebe9e7" fill-opacity=".5" d="M160.3 103.2l-14.9-3L122 67.6l43.2 10.1z"/><path fill="#000706" fill-opacity=".5" d="M215-3.3l17.5 43.6-7.4 3L207.5-.3z"/><circle cx="108" cy="71" r="9" fill="#9f6d4c" fill-opacity=".6"/><path fill="#e8eae9" fill-opacity=".5" d="M4 22h94v76H4z"/><path fill-opacity=".5" d="M100 121h24v11h-24z"/><path fill="#e1e5e6" fill-opacity=".5" d="M112 74l36-22 4 36z"/><circle r="1" fill="#debea9" fill-opacity=".4" transform="matrix(-9.3273 -4.11695 38.4548 -87.12257 129.5 158)"/><path fill-opacity=".6" d="M162 65l-6 6-3-12z"/><circle r="1" fill="#d2a996" fill-opacity=".5" transform="matrix(.37078 17.70097 -7.38435 .15468 166.9 52.4)"/><ellipse cx="84" cy="165" fill="#090011" fill-opacity=".5" rx="4" ry="30"/><circle r="1" fill="#cccac3" fill-opacity=".7" transform="matrix(38.5149 -19.82756 4.12152 8.00601 35.8 109)"/><path fill="#1b1219" fill-opacity=".6" d="M102 92l22 18-29-4z"/><path fill="#3a1a16" fill-opacity=".6" d="M179 41h12v27h-12z"/><path fill="#576146" fill-opacity=".4" d="M18.7 158.4l-6.3-22.9L-16 179l5.6-10.6z"/><ellipse cx="235" cy="88" fill="#d4d5d7" fill-opacity=".5" rx="19" ry="47"/><path fill="#805649" fill-opacity=".6" d="M180 18h40v20h-40z"/><circle r="1" fill="#784732" fill-opacity=".5" transform="matrix(-36.59059 -29.97632 5.05076 -6.1652 204.7 120.7)"/><path fill="#aa8575" fill-opacity=".4" d="M111.8 141.9l-4 3L86.2 116l4-3z"/><path fill="#d2cfd1" fill-opacity=".5" d="M111.3 77.2l8.1 29.9-10.6-14.2 35.8-66.3z"/><path fill="#b3a8a0" fill-opacity=".5" d="M136.7 156.6l47.7-13.9 44.5 1-45.9-15.6z"/><path fill="#f9fdfc" fill-opacity=".4" d="M82.1 139.1l1.7-14.8-43.9 11L82.6 149z"/><path fill="#dcdad9" d="M92.3 137.8l32.5 21.6L81.4 185l21.7-51.5z"/><path fill="#19210b" fill-opacity=".5" d="M68 116l7-9 8 11z"/><path fill="#52472d" fill-opacity=".5" d="M-15 105l6 11 29-6z"/><path fill="#e0b79d" fill-opacity=".5" d="M67.6 106.1l34.6-4.9-28-11.3 18.2 26.8z"/><path fill="#91614c" fill-opacity=".5" d="M155 103h60v27h-60z"/><path fill="#411712" fill-opacity=".3" d="M204.9 62.8l-14.5 22.4-35.2 14.3 49.2 8.7z"/><path fill="#e3cec6" fill-opacity=".6" d="M145 126l-12-26 10 11z"/><path fill="#322a32" fill-opacity=".7" d="M81.8 184.1l-4.6.9 7.3-54.8 12.7-6z"/><path fill="#e5ded8" fill-opacity=".5" d="M104 107h7v12h-7z"/><path fill="#bd908c" fill-opacity=".6" d="M193 51h8v17h-8z"/><path fill="#eaeded" fill-opacity=".7" d="M3 175.1l69.3-13.2 7.8 3.3L51.5 185z"/><path fill="#0d0e0e" fill-opacity=".7" d="M214.8 14.9l-42 2.2-1.6-32 42-2.2z"/><path fill="#21181c" fill-opacity=".6" d="M143.1 96.4l1 10-19-13.2L111 74.6z"/><circle r="1" fill="#c4a18e" fill-opacity=".6" transform="matrix(5.4841 -4.63544 10.99227 13.00474 136.8 135.2)"/><path fill="#c5c3c5" fill-opacity=".6" d="M118.8 132.6l2.7 52.4 30.8-37.2-55.3-15z"/><path fill="#595c5d" fill-opacity=".6" d="M146.9 50.2L170.3-16 151.9 9.2l-.5 3.5z"/><path fill="#eef0ea" fill-opacity=".5" d="M70 119h8v18h-8z"/><path fill="#10080f" fill-opacity=".5" d="M99 90h5v34h-5z"/><path fill="#382e35" fill-opacity=".8" d="M119 115.7L108 90l-11.1.8 11.4 20z"/><path fill="#110c0d" fill-opacity=".7" d="M102.5 131.4l3.1-8 13.4-16.9 1.4 23.1z"/><path fill="#d7b9ab" fill-opacity=".5" d="M172.7 29l4.5 2.1-14 30-4.4-2.2z"/><circle r="1" fill="#b0a9a7" fill-opacity=".5" transform="matrix(-19.07703 -20.60132 2.40211 -2.22438 189.2 159.3)"/></g></svg>