<svg xmlns="http://www.w3.org/2000/svg" viewBox="0 0 300 199"><defs/><path fill="#3c2c20" d="M0 0h300v199H0z"/><g transform="translate(.6 .6) scale(1.17188)"><circle r="1" fill="#b1aca7" fill-opacity=".9" transform="matrix(-27.0934 149.08536 -170.21794 -30.93384 134 75)"/><circle r="1" fill="#4b321e" fill-opacity=".7" transform="matrix(54.86514 -16.02748 4.53333 15.51846 87.3 124.6)"/><path fill="#1c1310" fill-opacity=".9" d="M179.2 49.4l3.6-8.6 21.6 2 4.9 31.3z"/><circle r="1" fill="#d0e0e7" fill-opacity=".5" transform="matrix(4.27415 -38.66662 148.32307 16.39542 140.3 0)"/><path fill="#5d2e08" fill-opacity=".7" d="M52.3 20.7l16.3 6.7-5.3 27.8-28.9-6.5z"/><path fill="#733114" fill-opacity=".7" d="M26 147l-42-43 61 19z"/><ellipse cx="107" cy="134" fill="#171000" fill-opacity=".3" rx="13" ry="169"/><circle r="1" fill="#dadcdb" fill-opacity=".3" transform="matrix(-58.1417 -41.77905 20.56614 -28.62081 163.3 83.6)"/><circle r="1" fill="#f4f9fd" fill-opacity=".6" transform="matrix(-9.04456 -16.31256 18.09655 -10.0337 35.3 165.6)"/><path fill="#dee1e3" fill-opacity=".7" d="M70.5 141.6L93.9 130l-11.7 55-18.5-15z"/><circle r="1" fill="#ede9e6" fill-opacity=".4" transform="rotate(-5.4 974 -365.4) scale(21.02862 33.73497)"/><circle r="1" fill="#300000" fill-opacity=".3" transform="matrix(-16.48159 -3.62371 4.11775 -18.72862 191.5 56.2)"/><path fill="#825039" d="M37.6 133.2l-6.8-5.3-44.9 57.1L6 170.6z"/><path fill="#947559" fill-opacity=".5" d="M140.7 169.4l-4.8-24.6 83.4-16.2 4.8 24.6z"/><path fill="#e6e6e1" fill-opacity=".5" d="M271 8.3l-86.6 74.6-62.6 67 101.7-78.8z"/><path fill="#e0ecf1" fill-opacity=".5" d="M68 0h29v54H68z"/><path fill="#36200c" fill-opacity=".5" d="M102 183l-7-64 23-27z"/><path fill="#53311d" fill-opacity=".6" d="M69.9 144.6l23.9-27.5-40.4 11.7 6.3 46.6z"/><path fill="#dce3e5" fill-opacity=".6" d="M23 76l40-90L34-1z"/><path fill="#e0d9d2" fill-opacity=".7" d="M190 125l24 44-19 2z"/><path fill="#461b00" fill-opacity=".4" d="M54.3 29.1L83 62l7.2 2.9-24.6 1.2z"/><circle r="1" fill="#7b6f5f" fill-opacity=".6" transform="matrix(2.49966 9.83036 -23.59074 5.99865 125 124.7)"/><path fill="#d2cbc3" fill-opacity=".8" d="M150.5 185l4.5-55.3 10.4 52.6-31.5-28.9z"/><circle r="1" fill="#f2e8dc" fill-opacity=".4" transform="matrix(7.38714 41.47118 -3.79988 .67686 176.7 152.2)"/><path fill="#c0c4c2" fill-opacity=".5" d="M95 106l-37 13L99-14z"/><path fill="#473b2d" fill-opacity=".6" d="M142 113l-21-20-47 21z"/><circle r="1" fill="#593218" fill-opacity=".4" transform="matrix(4.00943 13.28197 -5.2528 1.58567 184.2 144.6)"/><path fill="#513516" fill-opacity=".5" d="M135 157l-3-18 20 20z"/><path fill="#976143" fill-opacity=".6" d="M24.6 113.2l9.9-51 3 .6-10 51z"/><circle r="1" fill="#563c24" fill-opacity=".5" transform="matrix(-5.82738 1.23865 -5.32986 -25.07503 169.4 169)"/><path fill="#796149" fill-opacity=".6" d="M271 118l-39 6 1 12z"/><ellipse cx="207" cy="141" fill="#461f00" fill-opacity=".3" rx="8" ry="14"/><path fill="#2b1600" fill-opacity=".2" d="M69.3 106.6L64 28.9l17.3 101.9 43.6 10.6z"/><ellipse cy="58" fill="#89959d" fill-opacity=".6" rx="23" ry="55"/><ellipse cx="99" cy="12" fill="#37403c" fill-opacity=".6" rx="2" ry="49"/><circle r="1" fill="#bcc4c6" fill-opacity=".4" transform="rotate(-107.2 87.7 -29.5) scale(72.0712 27.48759)"/><circle r="1" fill="#d6d1cb" fill-opacity=".5" transform="matrix(-17.49263 -75.76893 4.48826 -1.0362 230.5 148.7)"/><path fill-opacity=".5" d="M200 40l13 19-37-14z"/><path fill="#524024" fill-opacity=".4" d="M233 70l-20 8 35-32z"/><path fill="#694336" fill-opacity=".6" d="M116.3 66.9l2.8 2.5-15 14.6 18.2-5.7z"/><path fill="#e7d9c9" fill-opacity=".5" d="M110 171v-33l13 47z"/><path fill="#dfe2e0" fill-opacity=".9" d="M46.3 68.7L33.5 48.8l12.1 53.8-20.1 17.1z"/><circle r="1" fill="#cfd5d7" fill-opacity=".9" transform="rotate(139.4 36 19.6) scale(20.44052 18.40409)"/><path fill="#e7d4cb" fill-opacity=".8" d="M20.9 137.9l-31.5 37.9L14.1 137l-3.5-2.1z"/><path fill="#8c3712" fill-opacity=".3" d="M196.5 81.4L181 76.2l3.6-18.6 29.8 8.1z"/><path fill="#735c48" fill-opacity=".4" d="M229.3 111.7l-7.6-15.5-32.6 4.5L200 87.9z"/><ellipse cx="59" cy="126" fill="#4b2f20" fill-opacity=".4" rx="52" ry="7"/><path fill="#512102" fill-opacity=".4" d="M43.2 49.8L60 24.9l10.8 7.3L54 57.1z"/><circle r="1" fill="#b27f45" fill-opacity=".4" transform="rotate(-105.6 41.7 5.4) scale(13.79366 10.91919)"/><path fill="#7b6d5b" fill-opacity=".5" d="M148 44h3v55h-3z"/><path fill="#828c92" fill-opacity=".6" d="M34.1 7.3l-17.8 3.2 2.9 68.1 4.3-17.2z"/><circle r="1" fill="#877461" fill-opacity=".6" transform="matrix(-.6312 -.77563 48.14133 -39.1767 180.7 108.6)"/><path fill="#d2d3cf" fill-opacity=".5" d="M271 11l-64 38 30 6z"/><path fill="#f4d2c9" fill-opacity=".4" d="M171 52h17v7h-17z"/><path fill="#b7bfbf" fill-opacity=".4" d="M137 71.7l12.3 42.9-32.8-21.9-66.9 33.2z"/><path fill="#8d8071" d="M128.4 175.9l-6.5-47.2 25.9-12.2-34.6.3z"/><path fill="#6e533b" fill-opacity=".5" d="M215.2 141.7l6.3 19.2 3.2 4.8 1.3-10.2z"/><path fill="#c4d1d9" fill-opacity=".5" d="M250 165l21-10-32-24z"/><path fill="#907863" fill-opacity=".6" d="M181.2 124.8l19.8 8.4-1.6-13.2-21.8 18.6z"/><path fill="#e1e9ea" fill-opacity=".5" d="M78 146l15-19-30 20z"/><path fill="#e2dbcd" fill-opacity=".5" d="M193.8 184.1l-64 .9-6.8-56.7 12.2 29.9z"/><ellipse cx="47" cy="138" fill="#833f21" fill-opacity=".5" rx="10" ry="11"/><path fill="#fcffff" fill-opacity=".2" d="M188.9 117.7l19.1 4.6 22.1-23.6-9-16.8z"/><path fill="#eae9e8" fill-opacity=".3" d="M39 131l16 54H-2z"/><path fill="#9c7866" fill-opacity=".8" d="M35.2 64.8l-15.1 74.5 10.6-35.8 8.2-25.8z"/></g></svg>