<svg xmlns="http://www.w3.org/2000/svg" viewBox="0 0 299 449"><defs/><path fill="#35474e" d="M0 0h299v449H0z"/><g transform="translate(.9 .9) scale(1.7539)"><circle r="1" fill="#eeede4" fill-opacity=".5" transform="matrix(161.74731 41.5237 -14.6043 56.88813 107.7 44.4)"/><path fill="#ffcc9b" fill-opacity=".7" d="M13 214l67 14-91-124z"/><circle r="1" fill="#e5a474" fill-opacity=".7" transform="rotate(-168.5 69.5 103.4) scale(21.00734 51.97022)"/><circle r="1" fill="#251101" fill-opacity=".7" transform="matrix(-18.02014 -57.80278 15.53412 -4.8428 118.2 104.8)"/><circle r="1" fill-opacity=".6" transform="matrix(29.93196 -4.84592 7.57958 46.81702 64.9 158.5)"/><circle r="1" fill="#0c0701" fill-opacity=".7" transform="matrix(17.49669 -11.5589 6.66124 10.08312 43.7 11.6)"/><ellipse cx="152" cy="34" fill="#aee3ff" fill-opacity=".7" rx="40" ry="53"/><ellipse cy="51" fill="#a7cee2" fill-opacity=".9" rx="29" ry="37"/><path fill="#dca173" d="M34.8 218.2l91.2 23.6 4-32.4-117.5-7.9z"/><circle r="1" fill="#ff9244" fill-opacity=".5" transform="matrix(-14.40455 7.87744 -28.26142 -51.67834 78 66.8)"/><circle r="1" fill="#ffdebb" fill-opacity=".6" transform="matrix(23.47238 -.3549 .2641 17.46737 16.7 152.6)"/><circle r="1" fill="#060b0b" fill-opacity=".7" transform="rotate(115.1 -8.6 73.6) scale(26.10915 40.43385)"/><circle r="1" fill="#d5c8b1" fill-opacity=".4" transform="matrix(27.128 89.28876 -21.1407 6.42303 166.4 132.1)"/><path fill="#191e1e" fill-opacity=".7" d="M77 123h35v84H77z"/><path fill-opacity=".5" d="M58-6l20 19-1 45z"/><path fill="#94e2ff" fill-opacity=".6" d="M76 0h48v45H76z"/><circle r="1" fill="#000608" fill-opacity=".6" transform="matrix(5.97739 -12.7026 37.05032 17.43456 65.4 241.9)"/><path fill="#2b211b" fill-opacity=".7" d="M76 42.5L63.7 72.8 94 38.9l43.8 61.9z"/><circle r="1" fill="#febb86" fill-opacity=".6" transform="rotate(109.8 7.9 41.4) scale(34.46177 16.94325)"/><path fill="#152427" fill-opacity=".6" d="M35 75l3 53-54 9z"/><ellipse cx="143" cy="179" fill-opacity=".6" rx="7" ry="36"/><circle r="1" fill="#18292e" fill-opacity=".6" transform="rotate(-40.7 318 86.9) scale(9.2587 73.39234)"/><ellipse cx="53" cy="174" fill="#000309" fill-opacity=".7" rx="20" ry="14"/><path fill="#ffc686" fill-opacity=".6" d="M107 175l22-7v51z"/><path fill="#4c86a2" fill-opacity=".5" d="M87 240h62v16H87z"/><circle cx="97" cy="103" r="11" fill="#ffd186" fill-opacity=".5"/><path fill="#89c6e6" fill-opacity=".9" d="M-16-23L32.7-5 16 41l-49-17.8z"/><path fill="#1d160e" fill-opacity=".5" d="M139 119L80 41l38 13z"/><path fill="#121a1b" fill-opacity=".6" d="M80 20.8L76.4 9.1 12.6-16l64.2 40.7z"/><circle r="1" fill="#0e1c21" fill-opacity=".8" transform="matrix(-7.60788 -21.31645 21.62125 -7.71667 124.3 147.2)"/><path fill="#ffd5b3" fill-opacity=".6" d="M8 137h23v56H8z"/><ellipse cx="131" cy="219" fill="#d37d4f" fill-opacity=".5" rx="11" ry="31"/><path fill="#875b42" d="M55.7 29.9l5.6 11.8 12.2-14.3.8 5z"/><path fill="#000004" fill-opacity=".6" d="M70 191h46v15H70z"/><path fill="#765c2e" fill-opacity=".3" d="M98 120l86-25-65-10z"/><path fill="#00090c" fill-opacity=".7" d="M27 33L62-7 27 9z"/><path fill="#96ceee" fill-opacity=".5" d="M79 0h81v44H79z"/><path fill="#a64510" fill-opacity=".4" d="M70.5 46L50.7 99.3l-4.8-36.9 28.8 9z"/><path fill="#ffe0a9" fill-opacity=".6" d="M88.3 73.8l4.4 5.4-21 17-4.4-5.4z"/><path fill="#050f14" fill-opacity=".6" d="M41 178L32 77l61 41z"/><path fill="#ffe1c1" fill-opacity=".3" d="M2.3 61.4l49.3 24.2L55.1 13l-50 83.1z"/><circle r="1" fill="#333c3e" fill-opacity=".5" transform="matrix(11.92617 7.92373 -19.58392 29.47617 13 105)"/><path fill="#ffd4b1" fill-opacity=".5" d="M125 246l-46-20h42z"/><path fill="#596667" fill-opacity=".7" d="M151 151h20v62h-20z"/><circle r="1" fill="#283033" fill-opacity=".6" transform="rotate(102.5 -13.7 118.7) scale(42.59353 17.36432)"/><ellipse cx="153" cy="110" fill="#ffe" fill-opacity=".5" rx="17" ry="3"/><path fill="#f2af7c" fill-opacity=".4" d="M73.7 209l-44.6 13.7-8.9-3.8 19.2-33.8z"/><path fill="#000004" fill-opacity=".7" d="M81 271l5-40-31-6z"/><path fill="#8f5228" fill-opacity=".5" d="M34 37l17-22-22 9z"/><path fill="#bdd9eb" fill-opacity=".5" d="M147.5 84.1L98.5 40l18-20.1 49 44.1z"/><ellipse cx="141" fill="#8cc6e4" fill-opacity=".8" rx="74" ry="20"/><path fill="#ffd696" fill-opacity=".5" d="M93 121l10-11-9-13z"/><path fill="#141f22" fill-opacity=".5" d="M58.4 79.2L1.1 134.1 33 138l30 14.6z"/><path fill="#9ecee4" fill-opacity=".8" d="M77 47.9l-.4 2.9 1-27.7L186 14.7z"/><path fill="#9a4e25" fill-opacity=".5" d="M91 222h36v5H91z"/><path fill="#181e1e" fill-opacity=".5" d="M104.6 45.5l15.3 15.3 5.3 15.3-50.1-29z"/><path fill="#cb8f68" fill-opacity=".4" d="M37.8 170l-9.1 20.2-7.1-38.5 15.7-18.4z"/><path fill="#6f3b1c" fill-opacity=".5" d="M120 81L85 45l27 68z"/><path fill="#28331c" fill-opacity=".5" d="M139 91h13v5h-13z"/><path fill="#000106" fill-opacity=".5" d="M148 183.1l-21.5-42.8 21.7 88.8 1.4-23.2z"/><circle cx="79" cy="80" r="12" fill="#ffc290" fill-opacity=".6"/><path fill="#fef5d7" fill-opacity=".4" d="M164.5 102.5l-9.3-2.5L186 69.2v2.4z"/><path fill="#9d5425" fill-opacity=".6" d="M107.8 78.2L81.1 101l.4-2.9-13.3 1.1z"/><path fill="#f3d4b8" fill-opacity=".7" d="M10.5 197.4l13.1-12.5 1.9-14.8-37.7-52z"/><path fill="#000408" fill-opacity=".7" d="M81.7 206.1l-37.3-19-4-50.4L86.7 192z"/></g></svg>