<svg xmlns="http://www.w3.org/2000/svg" viewBox="0 0 299 449"><defs/><path fill="#313848" d="M0 0h299v449H0z"/><g transform="translate(.9 .9) scale(1.7539)"><circle cx="36" cy="217" r="255" fill="#e3f1fe" fill-opacity=".5"/><path fill-opacity=".7" d="M29 146L94 40l31 182z"/><circle r="1" fill="#e5eeff" fill-opacity=".6" transform="matrix(27.34359 -32.58682 89.91654 75.44894 31.3 219.7)"/><path fill="#f1ffff" fill-opacity=".6" d="M171 145.5v71h-48v-71z"/><circle cx="74" cy="165" r="29" fill-opacity=".7"/><path fill="#d7e8ff" fill-opacity=".6" d="M85.9 219.7l-10-26.1 24.2-9.3 10 26.1z"/><circle r="1" fill="#171719" fill-opacity=".9" transform="rotate(-104.8 78.2 14) scale(18.50753 32.8925)"/><circle r="1" fill="#d3dde8" fill-opacity=".5" transform="rotate(-171 24.3 82.8) scale(12.01322 38.33727)"/><path fill="#91b3d3" fill-opacity=".7" d="M78-16l54 45-148 65z"/><path fill="#000206" fill-opacity=".7" d="M115.7 221.5l-3.1-99.9 12.5 63.9L57.5 80.4z"/><circle r="1" fill="#631f09" fill-opacity=".5" transform="rotate(-145.6 48.8 20.8) scale(9.47531 20.38124)"/><path fill="#ccd6e2" fill-opacity=".6" d="M115 68h33v31h-33z"/><ellipse cx="10" cy="81" fill="#a5afbe" fill-opacity=".7" rx="47" ry="28"/><path fill="#475666" d="M118.2 103.2l-35.6 16.4 37 35.8-15.9-54.6z"/><circle r="1" fill="#8d6955" fill-opacity=".6" transform="matrix(7.4038 -12.67922 16.45567 9.609 51.5 113.6)"/><path fill-opacity=".5" d="M77 98l-32 88 52 3z"/><circle r="1" fill="#bdc6e0" fill-opacity=".5" transform="matrix(39.69774 31.01527 -18.60688 23.81573 85.5 229.6)"/><path fill="#e0e3ee" fill-opacity=".5" d="M57 164h4v61h-4z"/><path fill="#fff" fill-opacity=".5" d="M6 153h41v13H6z"/><path fill="#342b23" fill-opacity=".6" d="M150 131l12-4 16 30z"/><circle r="1" fill="#5685c0" fill-opacity=".4" transform="rotate(69.9 -78.5 235.9) scale(26.78826 71.55141)"/><path fill="#9bb8d2" fill-opacity=".5" d="M99 87L84 97l13-19z"/><path fill="#b8ddfa" fill-opacity=".5" d="M105.6 51.4l-37.5-6 2.3-14.8 37.5 6z"/><path fill="#e0ecfd" fill-opacity=".6" d="M124 169l35-28-40 3z"/><ellipse cx="141" cy="189" fill="#dee5f7" fill-opacity=".5" rx="23" ry="20"/><ellipse cx="8" fill="#3c4963" fill-opacity=".4" rx="17" ry="39"/><path fill="#534139" fill-opacity=".5" d="M-16 155l71-6-9-17z"/><circle r="1" fill="#60606d" fill-opacity=".5" transform="matrix(5.13263 -30.81936 10.58853 1.7634 136 14.8)"/><path fill="#dce2ed" fill-opacity=".8" d="M47 184l25 36-88-10z"/><path fill="#03050d" fill-opacity=".6" d="M112 110L93 99l21-24z"/><path fill="#000006" fill-opacity=".6" d="M113.3 211.1l13.6 25.7-3.1-29.9L66.4 83.3z"/><circle r="1" fill="#7d9ab7" fill-opacity=".6" transform="matrix(-57.79715 69.7486 -14.71059 -12.18992 67.6 3.1)"/><path fill="#b7d4eb" fill-opacity=".6" d="M52 23.4l6 55.7-14 1.5-5.8-55.7z"/><path fill="#a96353" fill-opacity=".3" d="M71.7 53.5l32.9 14.8-14 6.7-45.9 6.5z"/><path fill="#120801" fill-opacity=".5" d="M89.3 46.4l8.8 9 .4 8.5-28.2-7.7z"/><path fill="#b5cae0" fill-opacity=".7" d="M-16 35.5L6.2 46.4l7.2 63-7.7.3z"/><path fill="#030407" fill-opacity=".8" d="M120.4 157.2l-3.7-6.1-43.3 38.3 47.7-10.8z"/><circle r="1" fill="#9aa9bf" fill-opacity=".6" transform="matrix(-16.3075 -27.14023 12.85405 -7.72349 115.3 57)"/><path fill="#000104" fill-opacity=".5" d="M64.5 146.2l19.8-47.7-42.1 82 12.8 4.9z"/><circle cx="129" cy="113" r="19" fill="#9e9b9d" fill-opacity=".7"/><ellipse cx="68" cy="95" fill-opacity=".6" rx="19" ry="6"/><circle r="1" fill="#696368" fill-opacity=".6" transform="matrix(-5.05172 -68.15194 1.21665 -.09018 13.4 67.6)"/><path fill="#becddd" fill-opacity=".6" d="M162 54h7v33h-7z"/><path fill="#a0afc8" fill-opacity=".9" d="M102.6 187.3l-43.5 15.3 20.7-12 32.8 71.9z"/><path fill="#a49999" fill-opacity=".5" d="M0 114h41v29H0z"/><path fill="#a1c1dc" fill-opacity=".8" d="M59.6 46.1l14.8-7.2.1 22.2-3.5 1.3z"/><path fill="#020c00" fill-opacity=".4" d="M38.8 105.3l-8.1 7 14.4-3.3-2.4 28.7z"/><path fill="#2a1808" fill-opacity=".4" d="M131 137h27v4h-27z"/><circle r="1" fill="#aec0d5" fill-opacity=".8" transform="matrix(21.60937 -27.90698 14.72487 11.402 4.7 253)"/><path fill="#91b0ce" fill-opacity=".4" d="M104 110l-12 16-9-11z"/><ellipse cx="33" cy="179" fill="#b2c8dc" fill-opacity=".6" rx="13" ry="16"/><path fill="#b9aea3" fill-opacity=".5" d="M44 99h10v17H44z"/><path fill="#030001" fill-opacity=".6" d="M55.6 117.8l54.8 54.9 11.7 24.4-66.2-66.4z"/><ellipse cx="95" cy="9" fill="#6ea6d9" fill-opacity=".5" rx="26" ry="19"/><path fill="#817978" fill-opacity=".5" d="M137 103h26v30h-26z"/><path fill="#837f81" fill-opacity=".6" d="M33.6 28.9l6.8 107.9 1.5-84.2-4.5-11.3z"/><path fill="#bdcee2" fill-opacity=".5" d="M127 141h32v42h-32z"/><path fill="#dcf2ff" fill-opacity=".5" d="M135.4 81.4l3.9 16.7 10.7 6-9.9-33.9z"/><ellipse cx="144" cy="57" fill="#b9cbde" fill-opacity=".5" rx="4" ry="14"/><path fill-opacity=".5" d="M60 170h35v20H60z"/><path fill="#536580" fill-opacity=".5" d="M169 27.7L149.2 14 163-5.7 182.7 8z"/><path fill="#d9e6f5" fill-opacity=".4" d="M34.4 174l-50.3-11 17.5-7.6 51.3-5.6z"/><path fill="#45576d" fill-opacity=".7" d="M115.5 130.4l-2.4 27.4-19.4-18.2 15.8-17.2z"/><path fill-opacity=".6" d="M50 131h6v56h-6z"/><path fill="#71727d" fill-opacity=".4" d="M29.7 74L-16 58.4l31.2 24.1 7.3-27z"/></g></svg>