<svg xmlns="http://www.w3.org/2000/svg" viewBox="0 0 300 199"><defs/><path fill="#4f372b" d="M0 0h300v199H0z"/><g transform="translate(.6 .6) scale(1.17188)"><circle r="1" fill="#fff" fill-opacity=".7" transform="rotate(-178.6 91.7 80.8) scale(118.70631 88.55599)"/><circle cx="114" cy="68" r="44" fill="#c2ada4"/><circle cy="99" r="77" fill="#000a16" fill-opacity=".7"/><path fill-opacity=".3" d="M184-16l59 64-100 70z"/><path fill="#bbacb2" fill-opacity=".5" d="M73.5 75.9L57 14.2 71.1-16 27.3 18.1z"/><ellipse cx="170" cy="151" fill="#eef6ff" fill-opacity=".5" rx="110" ry="33"/><path fill="#98715e" d="M74.5-16l13 35 58.7 34.7-51.1-65.4z"/><path fill="#1e1c10" fill-opacity=".8" d="M162.5 83l46.1-6.6 62.2 4.3-115.3-42z"/><path fill="#322317" fill-opacity=".7" d="M113 0h107v32H113z"/><ellipse cx="215" cy="90" fill="#b8bac3" fill-opacity=".9" rx="29" ry="13"/><path fill="#060c12" fill-opacity=".6" d="M84 115L49 22l10 119z"/><path fill="#c2a199" fill-opacity=".8" d="M133 125l-53-23 133-25z"/><path fill="#ceccce" fill-opacity=".6" d="M76.1 36.8l-11.4 40-4.5-16.9 87.5 48.2z"/><path fill="#ebdfd1" fill-opacity=".5" d="M152 33l-28 54 12-62z"/><path fill="#fff" fill-opacity=".5" d="M46 20l5 28-17-26z"/><path fill="#000101" fill-opacity=".6" d="M94.5 18.2L73.9 44.5l-6.5-5.1-13.7-23z"/><ellipse cx="83" cy="164" fill="#caeaff" fill-opacity=".4" rx="23" ry="44"/><path fill="#06080d" fill-opacity=".7" d="M33 50h27v120H33z"/><ellipse cx="92" cy="5" fill="#ffcab7" fill-opacity=".5" rx="7" ry="11"/><path fill="#aed3f7" fill-opacity=".5" d="M68 41L58 30l5 35z"/><circle r="1" fill="#be9e8b" fill-opacity=".6" transform="rotate(-9.6 516.4 -857.5) scale(11.1741 45.93872)"/><circle r="1" fill="#d4c9c8" fill-opacity=".7" transform="matrix(24.4243 -9.8185 12.78601 31.8062 185.7 123)"/><path fill="#161313" d="M22.4 32.4L35.2 4 7.9-16l15 22.6z"/><path fill="#d0c3bf" fill-opacity=".5" d="M80 45h38v62H80z"/><path fill="#ae6a55" fill-opacity=".6" d="M104 102h53v10h-53z"/><circle r="1" fill="#9c4f34" fill-opacity=".5" transform="matrix(12.81853 -22.97679 16.15591 9.01323 54.4 .8)"/><path fill="#00050a" fill-opacity=".5" d="M62 147l5-90 13 38z"/><ellipse cx="54" cy="113" fill="#0e141c" fill-opacity=".7" rx="32" ry="13"/><circle r="1" fill="#d4d1d9" fill-opacity=".6" transform="rotate(52.1 0 316.9) scale(47.60144 21.43058)"/><path fill="#4a5650" fill-opacity=".4" d="M-7.8 161.1L.4 69.5l6.7 54.9 7.8 43.7z"/><path fill="#1a100f" fill-opacity=".6" d="M264.2 104l-61.7-55.6 9.3-10.4 61.7 55.6z"/><path fill="#3f637e" fill-opacity=".5" d="M194 50.2l-24.9-14.8-6.3 7.8 3.8.6z"/><path fill="#78574c" fill-opacity=".4" d="M99 90L88 64l4 34z"/><path fill="#e4c7bb" fill-opacity=".5" d="M95 24h18v47H95z"/><circle cx="135" cy="158" r="41" fill="#e9eff9" fill-opacity=".4"/><circle r="1" fill="#cdbcb5" fill-opacity=".7" transform="matrix(-13.71957 -1.51783 1.71695 -15.51944 83.9 54.5)"/><path fill="#2d1b0e" fill-opacity=".4" d="M163.9.3L107.6 6l-6.2-10 22.8 43.4z"/><path fill="azure" fill-opacity=".5" d="M26 15l25 13-5 8z"/><path fill="#6c3825" fill-opacity=".5" d="M144.2 88l-3-.2 2.6-29.9 3 .3z"/><path fill="#36261d" fill-opacity=".6" d="M31 23.1L-5.8 38.8-21 2.8l36.8-15.6z"/><path fill="#d2d1d2" fill-opacity=".5" d="M107.6 100.7l-9.5-8.6L90.8 44 149 98.9z"/><circle r="1" fill="#8d9079" fill-opacity=".3" transform="matrix(7.78832 -.16267 .534 25.56752 192.2 88)"/><path fill="#b98d72" fill-opacity=".6" d="M78 40l28-21-19 33z"/><path fill="#a4bacc" fill-opacity=".5" d="M95.3 109.2l-26.1 21.1-8.6 31.8-5.3 22.3z"/><path fill="#090f18" fill-opacity=".5" d="M29.8-16l-1.6 83.1L57 28.9 7.4 68.1z"/><circle r="1" fill="#090500" fill-opacity=".4" transform="matrix(-4.72038 -13.17485 13.49154 -4.83385 170.4 60.3)"/><path fill="#0d0904" fill-opacity=".5" d="M81.8 37l17.6-18.2-45.8.7 4 6.7z"/><ellipse cx="68" cy="50" fill="#000913" fill-opacity=".6" rx="2" ry="34"/><path fill="#ddd2cd" fill-opacity=".6" d="M141.9 30.7l3.9-.7 8.3 47.3-3.9.7z"/><path fill="#8badcb" fill-opacity=".6" d="M4 114l-19-3 16 10z"/><ellipse cx="130" cy="60" fill="#e0dbd8" fill-opacity=".5" rx="11" ry="9"/><path fill="#0d111b" fill-opacity=".6" d="M-15 121l69 64 8-41z"/><circle r="1" fill="#1f1712" fill-opacity=".5" transform="matrix(.99428 25.20397 -8.29272 .32714 254.5 9.6)"/><path fill="#c6a285" fill-opacity=".6" d="M131.6 46.2l-3-16.7 9.8-1.7 3 16.7z"/><path fill="#94a5bb" fill-opacity=".5" d="M67.4 50.4l-2 36.6-4.1-35.1 1.5-23.8z"/><path fill="#242425" fill-opacity=".8" d="M157 42.2l-13.6-15.8 70.7 31.4-28.9-20.5z"/><circle r="1" fill="#cdbdb6" fill-opacity=".5" transform="matrix(4.32843 -1.93744 18.91823 42.26504 188 155.6)"/><path fill="#c1babd" fill-opacity=".6" d="M79 79h13v28H79z"/><path fill="#020005" fill-opacity=".6" d="M52 30h4v47h-4z"/><ellipse cx="175" cy="125" fill="#d7d1d4" fill-opacity=".5" rx="93" ry="9"/><path fill="#483a32" fill-opacity=".7" d="M271 81l-34-12-4-85z"/><circle r="1" fill="#b18170" fill-opacity=".8" transform="matrix(6.61108 5.2024 -1.8526 2.35424 39.5 20.3)"/><path fill="#c4b2a9" fill-opacity=".7" d="M101.7 81.6l21 8.1 28.2 23.8-14.8-42z"/><path fill="#993705" fill-opacity=".2" d="M131.1 118.9l43.1-45.4-17.6 37.5-28 11.9z"/><path fill="#7293af" fill-opacity=".6" d="M0 139h3v9H0z"/></g></svg>