<svg xmlns="http://www.w3.org/2000/svg" viewBox="0 0 300 199"><defs/><path fill="#3e2f26" d="M0 0h300v199H0z"/><g transform="translate(.6 .6) scale(1.17188)"><circle r="1" fill="#ecf7fa" fill-opacity=".8" transform="matrix(119.47712 -103.85988 49.3122 56.7272 23.6 65.9)"/><circle r="1" fill="#e9faff" fill-opacity=".8" transform="matrix(62.07208 4.27354 -8.30286 120.59691 255 46.8)"/><circle r="1" fill="#82878b" transform="rotate(-171.3 40.6 54) scale(37.91593 26.81407)"/><path fill="#8c877a" d="M153.6-29l42.9 19-28 63-43-19z"/><circle r="1" fill="#fbffff" fill-opacity=".8" transform="matrix(25.59557 12.94 -36.91703 73.0226 41.6 49)"/><circle r="1" fill="#522d1f" fill-opacity=".7" transform="matrix(12.67197 -3.23672 4.27897 16.75243 90 51.2)"/><ellipse cx="131" cy="73" fill="#ffffe5" fill-opacity=".7" rx="5" ry="31"/><circle r="1" fill="#94a0a4" fill-opacity=".9" transform="matrix(24.67348 -4.12892 7.64372 45.67707 22.7 169)"/><path fill="#808887" fill-opacity=".9" d="M271 149l-86-53 19 52z"/><path fill="#01070f" fill-opacity=".8" d="M110.9 159.2l-3.3-69.9L90 71l38.7 5.4z"/><ellipse cx="195" cy="72" fill="#917649" fill-opacity=".7" rx="7" ry="77"/><circle cx="255" cy="62" r="54" fill="#eefaff" fill-opacity=".7"/><circle r="1" fill-opacity=".7" transform="matrix(16.7112 -13.60852 27.4161 33.66687 76.7 169)"/><path fill="#fff" fill-opacity=".6" d="M99 7h30v62H99z"/><ellipse cx="154" cy="133" fill="#feeda3" fill-opacity=".5" rx="11" ry="12"/><path fill="#b8c3ce" fill-opacity=".6" d="M90 79h16v64H90z"/><path fill="#4a3e2d" d="M136.2 140.1l21.4-82.8-3.3-34.4-18.9-8z"/><path fill="#060305" fill-opacity=".7" d="M173 137l72 28-165 20z"/><path fill="#ebfdff" fill-opacity=".5" d="M163 87h11v18h-11z"/><circle r="1" fill="#000003" fill-opacity=".8" transform="matrix(-13.81797 8.46766 -10.2214 -16.6798 173.3 68.5)"/><path fill="#fdffff" fill-opacity=".5" d="M156 23h16v29h-16z"/><path fill="#c7effd" fill-opacity=".4" d="M118 166l13-29-22 16z"/><ellipse cx="183" cy="30" fill="#483928" fill-opacity=".9" rx="12" ry="20"/><path fill="#c8d8dc" fill-opacity=".8" d="M174.4-16l73.3 52.8L228.1-16l-60.7 34.8z"/><path fill="#f7fdff" fill-opacity=".7" d="M82 61L13-16l-29 138z"/><path fill="#00060c" fill-opacity=".5" d="M225.9 135.7l-6.1 1.1-26.3-7.2 26.9-9.4z"/><path fill="#b2cadd" fill-opacity=".5" d="M271 184l-39-45-32-3z"/><path fill="#020003" fill-opacity=".2" d="M130.3 183.9L66 75.9l-40.3 59.4 34.4-35.1z"/><ellipse cx="87" cy="13" fill="#e6f1f4" fill-opacity=".9" rx="27" ry="22"/><path fill="#06090e" fill-opacity=".9" d="M111.9 69.6l15.3 12.7-34.4 93.6 45.2-59.1z"/><path fill="#b38e54" fill-opacity=".5" d="M125.3 13.3l6-.8 13.4 110.2-6 .8z"/><path fill="#d1dfe1" fill-opacity=".7" d="M150.2-16l.3 32.4-17.1-2.7L-16 5.9z"/><path fill="#e1ecf4" fill-opacity=".7" d="M51.6 109.6l4.4 19.2 6.9-16.5-.5-6.3z"/><path fill="#aa9c79" fill-opacity=".9" d="M142.4 129.6l27.2-10.4 7.8 6.6-17 3.2z"/><path fill="#030303" fill-opacity=".6" d="M144.8 47l14.2 66.4-7.8 1.7L137 48.6z"/><path fill="#492f25" fill-opacity=".6" d="M94 36v48L77 40z"/><circle cx="85" cy="166" r="25" fill="#000005" fill-opacity=".8"/><path fill="#bdc9d2" fill-opacity=".5" d="M107.2 91.2l1.7 47.5-11.2-25.9L77.8 89z"/><circle r="1" fill="#d8e3e1" fill-opacity=".5" transform="matrix(12.03233 -11.78293 15.66079 15.99227 217.5 104.2)"/><path fill="#fff" fill-opacity=".3" d="M100 51l37 34-14-80z"/><path fill="#26282f" fill-opacity=".5" d="M58.7 131.3l-7 4-16.4-28.6 7-4z"/><path fill="#999da3" fill-opacity=".5" d="M62 118h43v22H62z"/><path fill="#4e2f27" fill-opacity=".5" d="M102.3 82.7l13.3-17.2 12 14.5.1-9.7z"/><circle r="1" fill="#002b50" fill-opacity=".1" transform="matrix(10.6082 6.42456 -13.95574 23.04367 246 141.2)"/><path fill="#fff" fill-opacity=".4" d="M127 92l4-24 6 42z"/><ellipse cx="6" cy="67" fill="#cce0e8" fill-opacity=".6" rx="7" ry="69"/><path fill="#060000" fill-opacity=".8" d="M185 151l-48-9-19 43z"/><ellipse cx="194" cy="69" fill="#9a825a" fill-opacity=".7" rx="5" ry="50"/><path fill="#a7b7bc" fill-opacity=".6" d="M16 144.4l6-22.3 28 7.5-6 22.3z"/><path fill="#392c1f" fill-opacity=".6" d="M172.7 86.4l17 .3-.4 27-17-.4z"/><path fill="#98b1b9" fill-opacity=".5" d="M127 129h4v25h-4z"/><path fill="#cbdbe5" fill-opacity=".5" d="M228.8 158l-26.3-16.4 4.7-7.6 26.3 16.4z"/><path fill="#b9b18c" fill-opacity=".6" d="M147.7 137.7l15.9 3.3-4.1 7-18.2-8.5z"/><path fill-opacity=".5" d="M160 51h30v34h-30z"/><path fill="#060608" fill-opacity=".5" d="M103.8 80.2l55.3 104.5-40.2-113.9-32 7.6z"/><path fill="#f4ebed" fill-opacity=".2" d="M192.5 183.7l-54.3 1.3 29.9-25.8 19.2 25.8z"/><path fill="#fffffe" fill-opacity=".4" d="M118.6 18.4L7.5 75.6l93.2-2.3-116.7-47z"/><path fill="#fff" fill-opacity=".5" d="M184 132h9v2h-9z"/><circle r="1" fill="#232629" fill-opacity=".6" transform="matrix(42.71756 21.85968 -1.69298 3.30837 215 155.2)"/><circle r="1" fill="#000604" fill-opacity=".5" transform="rotate(56.5 1 99) scale(4.92348 9.95244)"/><path fill="#291b0b" fill-opacity=".5" d="M154.5 96.5l10.8 20.3-23.8 12.7-10.8-20.3z"/><path fill="#a1814f" fill-opacity=".4" d="M135 28h5v86h-5z"/><path fill="#160d08" fill-opacity=".3" d="M178.4 95.9l-37.2-82.7 16 17.2-33.1-21.5z"/><path fill="#332829" fill-opacity=".4" d="M45 100l47 4-28-15z"/><path fill="#f3fdff" fill-opacity=".6" d="M101 11h27v57h-27z"/></g></svg>