<svg xmlns="http://www.w3.org/2000/svg" viewBox="0 0 300 199"><defs/><path fill="#4a3d38" d="M0 0h300v199H0z"/><g transform="translate(.6 .6) scale(1.17188)"><ellipse cx="64" cy="88" fill="#f5ecdd" fill-opacity=".6" rx="29" ry="169"/><circle cx="204" cy="145" r="76" fill="#e1d8d8" fill-opacity=".6"/><ellipse cx="253" cy="45" fill="#f9e1d3" fill-opacity=".6" rx="25" ry="169"/><ellipse cx="205" cy="88" fill="#2c241c" fill-opacity=".7" rx="27" ry="54"/><ellipse cx="152" cy="155" fill="#ffeff0" fill-opacity=".6" rx="15" ry="107"/><circle r="1" fill="#e6ddd6" fill-opacity=".4" transform="matrix(-65.15826 99.24624 -24.84742 -16.3131 35.8 143.6)"/><path fill-opacity=".4" d="M65.2 172l49-88.3 36.6 20.3-49 88.3z"/><path fill="#d7c3b3" fill-opacity=".8" d="M12-5l49-11-16 51z"/><circle r="1" fill="#f2c0ab" fill-opacity=".7" transform="matrix(-6.58772 -1.29246 3.46266 -17.64931 131.5 54.8)"/><ellipse cx="117" cy="13" fill="#242b27" fill-opacity=".6" rx="46" ry="24"/><ellipse cx="164" cy="164" fill="#eef7ff" fill-opacity=".5" rx="38" ry="40"/><circle r="1" fill="#cecac4" fill-opacity=".6" transform="matrix(26.38055 -8.60505 10.02637 30.73788 72.1 104.1)"/><circle r="1" fill="#1b1c1a" fill-opacity=".5" transform="matrix(5.70904 -.68778 10.74202 89.16655 207.9 132.8)"/><path fill="#c1a6a0" fill-opacity=".6" d="M201.7 86.6l-32.4-1.3-42.2-11 63.5 41.4z"/><circle r="1" fill="#484b4e" fill-opacity=".6" transform="matrix(24.81312 1.3004 -1.91747 36.58742 17.3 103.7)"/><path fill="#e0c29b" fill-opacity=".8" d="M19 149h44v21H19z"/><circle r="1" fill="#010a0e" fill-opacity=".6" transform="matrix(4.16667 21.49644 -16.6862 3.2343 115.2 85.4)"/><ellipse cx="251" cy="151" fill="#fff" fill-opacity=".5" rx="34" ry="11"/><path fill="#e1cdca" fill-opacity=".7" d="M160.6 103.5l-16 5.5-9.2-26.5 16-5.5z"/><path fill="#221e21" fill-opacity=".5" d="M196 159l-31 1 26-8z"/><path fill="#111924" fill-opacity=".4" d="M137.7 105l-14.2 76.1-44.2-63.3 80.5 1.9z"/><circle r="1" fill="#9e6e58" fill-opacity=".4" transform="rotate(44.5 -4.8 224.4) scale(40.516 12.39957)"/><ellipse cx="231" cy="42" fill="#927b77" fill-opacity=".6" rx="5" ry="85"/><path fill="#6e7a78" fill-opacity=".5" d="M87 33h29v34H87z"/><path fill="#a79289" fill-opacity=".6" d="M239.4 47.7l3 80.1-33.4-6.4 11.5 55.7z"/><path fill="#30302f" fill-opacity=".5" d="M173 111h58v14h-58z"/><ellipse cx="212" cy="24" fill="#332921" fill-opacity=".7" rx="14" ry="93"/><path fill="#ece7e3" fill-opacity=".5" d="M67 142L86 32 57 54z"/><path fill="#f2dac9" fill-opacity=".5" d="M238.7 34.2l17-.3 1.6 88-17 .2z"/><ellipse cx="18" cy="48" fill="#4b5045" fill-opacity=".9" rx="19" ry="41"/><ellipse cx="85" cy="161" fill="#0e2200" fill-opacity=".3" rx="30" ry="10"/><path fill="#2e2c29" fill-opacity=".7" d="M216.8 90.8l-14.4-26.5-37.6 21.3 15.9-1.3z"/><path fill="#a9a89b" fill-opacity=".3" d="M100.7 120.3l-.2-64.8-37 47.8 30.1 53z"/><path fill="#533d33" d="M151.3 68.8l-7.1-7.6-1.8-45.9 2.2 61.1z"/><path fill="#d3c7c5" fill-opacity=".7" d="M29.1 10.8L2.1-1.3l88-14.7 5.6 11.2z"/><path fill="#dfe0ea" fill-opacity=".5" d="M196.9 131.2l-56.1-5.1-17.3 42.8 23.7 16.1z"/><path fill="#0f0a05" fill-opacity=".6" d="M118.3 62.1l-4.9-19 12.3-9 5 11.4z"/><path fill="#fbc3b0" fill-opacity=".4" d="M130.3 46.3l-9 16.3 8.4 5 27-19.7z"/><path fill="#251f1c" fill-opacity=".6" d="M183 58l-14-74-8 94z"/><circle r="1" fill="#63616d" fill-opacity=".5" transform="rotate(-44.5 159 40.6) scale(47.37268 9.25358)"/><path fill="#2c190f" fill-opacity=".5" d="M33 65h4v69h-4z"/><path fill="#9b8980" fill-opacity=".5" d="M46 9h34v18H46z"/><path fill="#0c0f12" fill-opacity=".5" d="M95 133l51-20-28-56z"/><circle r="1" fill="#f8e6d5" fill-opacity=".5" transform="matrix(-9.75382 -35.65395 2.42347 -.66299 224 165.1)"/><path fill="#e28a7f" fill-opacity=".6" d="M162 121l-31 2 17-11z"/><path fill="#a69d9b" fill-opacity=".6" d="M61.7 29.2l33.1-4.5-.7 89.9-9-72.8z"/><path fill="#cfc9ca" fill-opacity=".8" d="M209.1 158.8l-9-7.4-25.2 33.6h8.1z"/><path fill="#312f27" fill-opacity=".4" d="M190.9 130.1l5-24.6 28.2 40.3 8.2-16.3z"/><path fill="#ceb2a6" fill-opacity=".5" d="M182 4h5v11h-5z"/><path fill="#675e5a" d="M208.2 148.6l-25.1-8 29.8 3.3 14.2 41.1z"/><path fill="#a68a7d" fill-opacity=".7" d="M226 28l45-25-45-19z"/><path fill="#483c2f" fill-opacity=".6" d="M208 48h21v75h-21z"/><path fill="#d0bab8" fill-opacity=".6" d="M148.5 112.6L171.4 70l6.7 5.2-41.3 15.9z"/><path fill="#c4c4b3" fill-opacity=".3" d="M13.9 46.6l16.2-5-7.4-13.5-12.6 27z"/><ellipse cx="184" cy="95" fill="#6e615f" fill-opacity=".5" rx="5" ry="36"/><path fill="#000002" fill-opacity=".4" d="M232 158v12h-6v-12z"/><path fill="#333730" fill-opacity=".6" d="M72.9-6.6L142.1 14l-46 35.8L97.2 32z"/><path fill="#818368" fill-opacity=".6" d="M89 126l-26 37 10 16z"/><path fill="#dbc5c1" fill-opacity=".7" d="M38 25h5v71h-5z"/><path fill="#030d00" fill-opacity=".3" d="M14.1 61l3.7 55.2L-16 52.9l2.1 45.2z"/><path fill="#fff" fill-opacity=".5" d="M115 13h6v3h-6z"/><path fill="#deeaff" fill-opacity=".2" d="M10 175l58 1-65-29z"/><path fill="#181c20" fill-opacity=".6" d="M63.1 182l61.2-12.6 1.2-26.7 18.1-37.4z"/><path fill="#d1c3c0" fill-opacity=".7" d="M172.1 146.3l-5-60.9L180.9 98l-30.1 4.4z"/><path fill="#ffd0c6" fill-opacity=".5" d="M191.4 90.5l7.6 4.8-6.4 10.2-7.6-4.8z"/></g></svg>