<svg xmlns="http://www.w3.org/2000/svg" viewBox="0 0 300 199"><defs/><path fill="#624239" d="M0 0h300v199H0z"/><g transform="translate(.6 .6) scale(1.17188)"><ellipse cx="116" cy="105" fill="#f4fbf5" fill-opacity=".5" rx="113" ry="169"/><ellipse cx="40" cy="139" fill="#f9f9f9" fill-opacity=".6" rx="32" ry="50"/><circle r="1" fill="#fff" fill-opacity=".5" transform="rotate(169.7 85.8 20.9) scale(35.39694 71.09395)"/><circle cx="226" cy="153" r="57" fill="#8e7368"/><ellipse cx="104" cy="21" fill="#381a07" fill-opacity=".4" rx="24" ry="101"/><ellipse cx="126" cy="159" fill="#461c12" fill-opacity=".5" rx="15" ry="79"/><circle r="1" fill="#411d07" fill-opacity=".5" transform="matrix(7.80799 -5.56063 27.59763 38.75135 169 109)"/><path fill="#f2f6f9" fill-opacity=".7" d="M33 13.3L65.8 10 69 40.7 36.2 44z"/><circle r="1" fill="#ecebda" fill-opacity=".4" transform="rotate(-179.4 62.8 23.6) scale(27.66744 30.71367)"/><path fill="#61564e" fill-opacity=".8" d="M3 63l22 46-41 29z"/><path fill="#d1cec5" fill-opacity=".8" d="M180 73.2l12.7 39.7-26-.7 95.2 6.4z"/><ellipse cx="91" fill="#290c03" fill-opacity=".5" rx="52" ry="13"/><circle r="1" fill="#60666d" fill-opacity=".7" transform="matrix(3.88534 -39.60557 26.81213 2.6303 237.7 68.2)"/><path fill="#f4fffc" fill-opacity=".5" d="M13.8 58.9L3.4 35.4l48.5 33.4-60.3 5.5z"/><path fill="#3f1b13" fill-opacity=".7" d="M45.4 169.7l52.3-13 3 11.6-52.4 13z"/><path fill="#f1f9ff" fill-opacity=".4" d="M156.5 161.9l-29.8-42.6 18.8-13.2 29.8 42.6z"/><path fill="#4b433b" fill-opacity=".5" d="M78.7 81.9l-39.4 6.9-4-22.7 39.4-6.9z"/><path fill="#edebff" fill-opacity=".3" d="M76.1 163.5l63.4-29.1L74 94.6l10.1-55.2z"/><circle r="1" fill="#474f45" fill-opacity=".8" transform="matrix(-9.445 7.21364 -10.01667 -13.11507 14.3 29.4)"/><path fill="#452b24" fill-opacity=".6" d="M71 6h5v114h-5z"/><circle r="1" fill="#27130b" fill-opacity=".4" transform="matrix(4.22908 -.86632 15.03801 73.41078 108 113)"/><path fill="#7c665a" fill-opacity=".9" d="M-16 170.5L96.5 140 3.8 157.4l14.1-87z"/><path fill="#47241b" fill-opacity=".5" d="M172 113h25v57h-25z"/><circle cx="45" cy="47" r="8" fill="#1f2926" fill-opacity=".7"/><path fill="#eff1f0" fill-opacity=".7" d="M71 110L8 94l23-15z"/><path fill="#fff" fill-opacity=".4" d="M61 80h11v64H61z"/><path fill="#dededf" fill-opacity=".7" d="M56.4 7.9l14.8 57-44-46.2-29.9-6.5z"/><path fill="#1a0601" fill-opacity=".5" d="M160.4 119.3l3.1-6.6 102.6 6.9 4.9 8.1z"/><path fill="#d6d2cb" d="M177.3 80l29.3-96 6.1 80.1 1.5 51.8z"/><ellipse cx="90" cy="37" fill="#4e3026" fill-opacity=".6" rx="7" ry="66"/><path fill="#f9fbfc" fill-opacity=".7" d="M7 161h36v9H7z"/><path fill="#f9ffff" fill-opacity=".6" d="M75 17h5v44h-5z"/><path fill="#fff" fill-opacity=".4" d="M61 47L43 72 9 73z"/><path fill="#baa995" fill-opacity=".6" d="M98 18h13v64H98z"/><path fill="#391c0b" fill-opacity=".4" d="M107 118l-9-27 65-6z"/><path fill="#b8b3a8" fill-opacity=".5" d="M155.3 82L177 67.8 196.7 98 175 112.2z"/><path fill="#4e2726" fill-opacity=".4" d="M143.3 131.3l8.7 2.3-7.3 27-8.7-2.2z"/><circle r="1" fill="#412b1e" fill-opacity=".8" transform="rotate(-179.1 54.5 4.3) scale(17.51178 8.11117)"/><circle r="1" fill="#212629" fill-opacity=".5" transform="rotate(-140.4 125.4 -42.7) scale(41.18119 27.16649)"/><path fill="#502617" fill-opacity=".5" d="M73 96h6v51h-6z"/><path fill="#9d7a4d" fill-opacity=".6" d="M217.7 27.8l5.6 79.8-9 .6-5.6-79.8z"/><ellipse cx="71" cy="155" fill="#fefaf7" fill-opacity=".7" rx="16" ry="6"/><path fill="#f2f6f6" fill-opacity=".5" d="M213 109h43v7h-43z"/><path fill="#2b1713" fill-opacity=".5" d="M74 10L24-16 2-3z"/><circle r="1" fill="#6c554f" fill-opacity=".6" transform="rotate(79.1 -40.9 122.7) scale(22.28283 2.14135)"/><path fill="#171816" fill-opacity=".4" d="M-16 105.2V185 77.6l47.6 39.9z"/><path fill="#3f3930" fill-opacity=".5" d="M50 91L37 68l28 21z"/><path fill="#645047" fill-opacity=".5" d="M45.6 150.4h-1l-4.2-80.8h1z"/><path fill="#d9dbe4" fill-opacity=".4" d="M174.8 139.3l-32.2-29.8 8.1 44.7 19 19.6z"/><path fill="#fafbfa" fill-opacity=".5" d="M12.8 148.8l-4-28.7 48.4-6.9 4 28.7z"/><path fill="#ebf3ef" fill-opacity=".5" d="M6 43l33 1-20 15z"/><circle r="1" fill="#210d05" fill-opacity=".5" transform="rotate(-6.6 1401.7 -944) scale(4.30631 25.63527)"/><path fill="#e2e1df" fill-opacity=".8" d="M65.5 11.4l5.4 54-11.1-5.7L41.4 6.3z"/><ellipse cx="71" cy="9" fill="#412b23" fill-opacity=".6" rx="3" ry="48"/><path fill="#a28556" fill-opacity=".7" d="M209 0h7v30h-7z"/><path fill="#000605" fill-opacity=".5" d="M4 83h15v8H4z"/><path fill="#635043" fill-opacity=".6" d="M12 136l-28-5 15 48z"/><ellipse cx="80" cy="104" fill="#f6eae5" fill-opacity=".6" rx="2" ry="56"/><path fill="#c5cbd7" fill-opacity=".3" d="M75.1 117.4L128 115l-11.7 30 35-3.9z"/><circle r="1" fill="#f3fdff" fill-opacity=".5" transform="rotate(74.3 -41 126.5) scale(20.92722 3.24632)"/><circle r="1" fill="#68422b" fill-opacity=".6" transform="rotate(94.5 -24.8 47.5) scale(2.37822 16.52931)"/><circle r="1" fill="#42576f" fill-opacity=".5" transform="matrix(16.9071 9.26039 -14.68874 26.81787 242 68.2)"/><path fill="#fff" fill-opacity=".5" d="M6 80.1l.5-2L35.9 84l-.4 2z"/><path fill="#8b7666" d="M216.9 101.1l49.6-15-4.6 22.8-45.2-1.5z"/><path fill="#2b362f" fill-opacity=".4" d="M-16 70.3l31.9-13.6-4-26.4 20.6 7.3z"/></g></svg>