<svg xmlns="http://www.w3.org/2000/svg" viewBox="0 0 300 199"><defs/><path fill="#56352b" d="M0 0h300v199H0z"/><g transform="translate(.6 .6) scale(1.17188)"><circle r="1" fill="#f5faf5" fill-opacity=".7" transform="matrix(93.85024 -53.74854 33.31757 58.17575 217.1 144.6)"/><circle r="1" fill="#e9cab2" fill-opacity=".5" transform="rotate(-62.2 87.4 -60.3) scale(51.45708 107.27205)"/><ellipse cx="120" cy="14" fill="#d8cfc1" fill-opacity=".8" rx="21" ry="46"/><circle cx="66" cy="116" r="80" fill="#845c48" fill-opacity=".6"/><circle r="1" fill="#3f231b" fill-opacity=".6" transform="matrix(-15.55667 -30.40057 19.04403 -9.74527 217.2 61)"/><ellipse cx="158" cy="162" fill="#c5e3e8" fill-opacity=".3" rx="198" ry="14"/><path fill="#ada495" fill-opacity=".7" d="M277.1 24.4L245 96.6l-20.1-9L257 15.4z"/><path fill="#980000" fill-opacity=".6" d="M115.8 62L163 78.1 156.1 98 109 81.8z"/><circle r="1" fill="#e3e8e7" fill-opacity=".5" transform="rotate(-39.7 218.3 -207.6) scale(16.91358 36.40388)"/><circle r="1" fill="#37261d" fill-opacity=".8" transform="matrix(-8.04964 20.84618 -33.6241 -12.98375 174 19.1)"/><circle cx="117" cy="129" r="20" fill="#7f0000" fill-opacity=".7"/><circle r="1" fill="#625346" transform="rotate(135.4 4.4 1.8) scale(91.1132 23.60825)"/><path fill="#acb0a6" fill-opacity=".6" d="M63 22.2l-54.6 23 1.2 14.1 17.3 12.1z"/><circle r="1" fill="#f6c6bb" fill-opacity=".6" transform="matrix(11.67471 12.99987 -5.3695 4.82215 99 59.4)"/><path fill="#cdc3b3" d="M90.4 29.9l111.8 50.5-54.7-15.9-15.4 3.9z"/><circle r="1" fill="#e4e5e8" fill-opacity=".5" transform="rotate(-155.1 135.8 37.5) scale(51.16274 31.77909)"/><path fill="#a79877" fill-opacity=".7" d="M104.6 130.3l-11.2-19.5 2.9-59.2-22.7 79.6z"/><path fill="#290e00" fill-opacity=".7" d="M42 107.3l20.2 7.7 23.7 35.8-4.2 8.4z"/><circle r="1" fill="#4e3426" fill-opacity=".6" transform="matrix(43.79172 -43.63912 18.03722 18.1003 10.1 108.5)"/><circle r="1" fill="#280906" fill-opacity=".6" transform="matrix(9.73851 5.39815 -34.894 62.95043 240.6 21.9)"/><path fill="#610703" fill-opacity=".7" d="M110.8 56l.5 40.1 12.9-5.6v-28z"/><path fill="#436000" fill-opacity=".5" d="M139 107h26v9h-26z"/><path fill="#ebf8e6" fill-opacity=".4" d="M175.1 50l3.5 15.7 20 4.3-6.6-16.7z"/><circle r="1" fill="#330400" fill-opacity=".7" transform="matrix(-6.2449 -1.92261 5.55997 -18.05951 69.1 106.9)"/><circle r="1" fill="#7d7061" transform="matrix(-14.07686 30.27942 -23.71344 -11.02434 42.2 162.7)"/><ellipse cx="105" cy="32" fill="#f2ece8" fill-opacity=".5" rx="15" ry="14"/><path fill="#3b1700" fill-opacity=".6" d="M104.8 92.6l-20.6 19 16.8 6.8 19.8 30.7z"/><path fill="#e2d172" fill-opacity=".3" d="M140.5 80.5l-29.2 20.8 42.2 40.5 3.7-38.2z"/><ellipse cx="152" cy="27" fill="#60583e" fill-opacity=".4" rx="15" ry="34"/><circle r="1" fill="#0f0000" fill-opacity=".6" transform="matrix(6.00268 -26.00046 6.91943 1.59748 183.9 21.7)"/><ellipse cx="89" fill="#aa9485" rx="24" ry="13"/><ellipse cx="131" cy="169" fill="#bcb7b2" fill-opacity=".5" rx="37" ry="22"/><path fill="#5a3c2d" d="M-8.1 56.7l-7.9 79.9 65.7-97 8.7 58z"/><ellipse cx="80" cy="69" fill="#421007" fill-opacity=".7" rx="15" ry="3"/><path fill="#d31d04" fill-opacity=".5" d="M150 65l15 37-35-33z"/><ellipse cx="4" cy="151" fill="#121107" fill-opacity=".2" rx="10" ry="106"/><circle r="1" fill="#cbbfa5" fill-opacity=".4" transform="rotate(-144 86.7 -5.4) scale(19.40949 4.39244)"/><circle r="1" fill="#4d3b33" fill-opacity=".5" transform="matrix(-8.3198 -29.79819 5.0851 -1.41979 45.8 3)"/><circle r="1" fill="#a9a196" fill-opacity=".9" transform="matrix(11.17765 -21.44434 16.09785 8.39085 255 72.5)"/><path fill="#520d03" fill-opacity=".4" d="M85.1 84.1l-37.2 12 21.9-18L170 81.6z"/><circle r="1" fill="#e0dfdc" fill-opacity=".5" transform="matrix(-4.49003 -4.7497 21.12041 -19.9657 124.6 16.5)"/><ellipse cx="132" cy="50" fill="#f4f2e5" fill-opacity=".6" rx="7" ry="12"/><path fill="#200" fill-opacity=".7" d="M252-5l-32 64 12-63z"/><path fill="#9a9b8e" fill-opacity=".3" d="M36.2 60.2l22-33-58.3-5.3 13.9 61.9z"/><path fill="#3b0000" fill-opacity=".5" d="M124.6 127.3l-20.8 20.2-10.4-10.8 20.8-20.2z"/><path fill="#432b21" fill-opacity=".5" d="M239 40l-20 48-31-17z"/><path fill="#b52415" fill-opacity=".7" d="M134.5 145.5l-15.7 2.9 8-39.5L137 127z"/><ellipse cx="60" cy="10" fill="#cfb7ab" fill-opacity=".5" rx="3" ry="56"/><ellipse cx="144" cy="110" fill="#464a03" fill-opacity=".7" rx="9" ry="4"/><path fill="#4e4232" fill-opacity=".9" d="M146.8-16L137 25.9l28.9 2.8L179.3-16z"/><path fill="#eceff0" fill-opacity=".3" d="M23.8 63.4l13.6-5.9 1-.4-21.9-20.9z"/><path fill="#b5af9e" fill-opacity=".5" d="M68 122h33v8H68z"/><path fill="#938779" fill-opacity=".7" d="M108.8 163l-12.5-24.5-6.5 1.9-16.4 38.5z"/><path fill="#83705e" fill-opacity=".4" d="M213 87l32-49-9 56z"/><circle r="1" fill="#2c140f" fill-opacity=".5" transform="rotate(120.1 77.5 71) scale(6.83535 18.85206)"/><path fill="#320100" fill-opacity=".5" d="M69.4 150.6l32.6-9.9-29-.6-10.1-41.6z"/><path fill="#925b47" fill-opacity=".7" d="M71.2 23.4l-9.1 14.1L86.4 65l6.2-13z"/><circle r="1" fill="#d5d1cc" fill-opacity=".7" transform="rotate(-23.9 334.7 -393.8) scale(25.14801 24.88466)"/><path fill="#a79c7a" fill-opacity=".7" d="M76.2 95.1l12.4-12.4 8.3 7.8 1 14.3z"/><path fill="#e79f8f" fill-opacity=".3" d="M101.8 91.1l-13-70.4-2.1 47 22.8 3.6z"/><ellipse cx="207" cy="6" fill="#4c2b25" rx="15" ry="62"/><path fill="#966a20" fill-opacity=".5" d="M136.2 73.5l15.2 54.7-15.3-13.8 13.5-16z"/><path fill="#c8d0a6" fill-opacity=".3" d="M142.3 108.4l-29.9-11.3 45.4 3.3 67.9 10.5z"/><path fill="#1b2f04" fill-opacity=".7" d="M165.8 112.2l-4.6 3.1-1.7 1.6-4.2-5.5z"/><path fill="#fffaf4" fill-opacity=".3" d="M111.3 69.3l-31.5-9.7.9-2.9 31.5 9.7z"/></g></svg>