<svg xmlns="http://www.w3.org/2000/svg" viewBox="0 0 300 199"><defs/><path fill="#574632" d="M0 0h300v199H0z"/><g transform="translate(.6 .6) scale(1.17188)"><circle r="1" fill="#fff9ff" fill-opacity=".4" transform="matrix(-7.26563 126.00894 -100.12478 -5.77316 137.3 42.7)"/><ellipse cx="206" cy="31" fill="#fefbed" fill-opacity=".8" rx="27" ry="66"/><ellipse cx="172" cy="50" fill="#230e00" fill-opacity=".5" rx="10" ry="59"/><ellipse cx="112" cy="88" fill="#0f0715" fill-opacity=".6" rx="9" ry="33"/><ellipse cx="46" cy="94" fill="#756158" fill-opacity=".8" rx="32" ry="169"/><ellipse cx="151" cy="32" fill="#fff7e2" fill-opacity=".6" rx="11" ry="43"/><path fill="#372d25" fill-opacity=".8" d="M215 85h41v85h-41z"/><circle r="1" fill="#80696f" fill-opacity=".7" transform="matrix(89.92652 20.4593 -6.94135 30.50993 147.8 164.2)"/><path fill="#473428" fill-opacity=".8" d="M177.2 75.8l-10.8 28-19.6-7.6 10.8-28z"/><path fill="#f2f0ff" fill-opacity=".6" d="M103.1 113l-26.8 10.3.7-23.4 5-21.2z"/><path fill="#e8d0b7" fill-opacity=".6" d="M177.7 15.5l6.3 96.7 29.6 18.2 2-32.1z"/><path fill="#120500" fill-opacity=".5" d="M112.9 101.9l21.3-66.4 9.7 37.9-48.1 2z"/><ellipse cx="126" cy="20" fill="#ffffe1" fill-opacity=".5" rx="5" ry="45"/><circle r="1" fill="#8f7970" fill-opacity=".4" transform="matrix(-91.22175 19.22344 -6.3448 -30.10827 31.6 69.3)"/><ellipse cx="112" cy="15" fill="#fffbdc" fill-opacity=".6" rx="3" ry="36"/><circle r="1" fill="#725b3d" fill-opacity=".7" transform="rotate(152.6 30.9 7.5) scale(57.33587 22.3956)"/><ellipse cx="229" fill="#f4f5f5" fill-opacity=".6" rx="5" ry="83"/><circle r="1" fill="#40382e" fill-opacity=".6" transform="matrix(-7.22773 99.43043 -13.24367 -.9627 247.6 27)"/><path fill="#4f4025" fill-opacity=".6" d="M116 0h5v59h-5z"/><ellipse cx="102" cy="28" fill="#fffde5" fill-opacity=".6" rx="4" ry="18"/><path fill="#574a40" d="M7.8 126.1l79.2-1.9-62.6-16.5-8.8-68.9z"/><path fill="#5a4b33" fill-opacity=".5" d="M161 0h19v93h-19z"/><circle r="1" fill="#b3969f" fill-opacity=".5" transform="matrix(-45.5947 11.57771 -4.53703 -17.86749 169.6 122.4)"/><path fill="#220e08" fill-opacity=".5" d="M180.3 105l-33.5-15.6 3-6.4 33.4 15.6z"/><ellipse cx="107" cy="28" fill="#241500" fill-opacity=".5" rx="2" ry="26"/><path fill="#fadbbf" fill-opacity=".5" d="M141 54h13v31h-13z"/><path fill="#8f7076" fill-opacity=".5" d="M154 83l-35 45-3-38z"/><path fill="#ecfff3" fill-opacity=".2" d="M26.6 109.4l24.9-58.5 1.7-7.6-31.3 49.2z"/><path fill="#7b6b6f" fill-opacity=".6" d="M116.9 169.7l71.1 6.7 30.1-54.4-35.1 11.2z"/><path fill="#645543" fill-opacity=".6" d="M209 111l45-42-29 54z"/><path fill="#836867" fill-opacity=".7" d="M88 73l20 51-2-42z"/><path fill="#452600" fill-opacity=".2" d="M134.6 38.7l16.2-11.9-13.9 34.4-16.3.3z"/><path fill="#a5998a" fill-opacity=".9" d="M144.7 20.3l3.4-21.8-20.8 23.9L83.1-6.9z"/><circle r="1" fill="#5b4f58" fill-opacity=".3" transform="matrix(111.21281 29.3837 -5.90312 22.34242 55.3 158)"/><path fill="#e1daca" fill-opacity=".4" d="M9-57.4L19 57.2l-2 .2L7-57.2z"/><circle r="1" fill="#0f0703" fill-opacity=".4" transform="rotate(117.1 78.8 152.3) scale(9.88292 44.44314)"/><path fill="#f6f9f4" fill-opacity=".5" d="M210 95l29-106-38-1z"/><path fill="#030000" fill-opacity=".5" d="M244 0h4v96h-4z"/><path fill="#241c22" fill-opacity=".9" d="M110.3 74.2l12.8-4.5L97.3 89l9.5-22z"/><path fill="#fffff6" fill-opacity=".6" d="M161.9-7.7l-1.8 34-12-.6 1.8-34z"/><path fill="#35260b" fill-opacity=".5" d="M132 6l11 9-8-31z"/><path fill="#050000" fill-opacity=".5" d="M77 66h6v8h-6z"/><path fill="#e5c7bb" fill-opacity=".5" d="M127.9 62.7l-17.2 8-2.6-5.4 17.2-8z"/><path fill="#26190c" fill-opacity=".6" d="M-14-16L9-3l7 50z"/><path fill="#efe1c3" fill-opacity=".3" d="M177.4 63.7l4.4-70.1L217 88.1 198.6 126z"/><path fill="#e3d9c3" fill-opacity=".9" d="M110.5 41.6l6.2-2.8-.4-26.1-3.7 4.7z"/><path fill="#523a24" fill-opacity=".5" d="M226 118l4-29-15-9z"/><path fill="#6c5b4b" fill-opacity=".5" d="M146.1 44.3l14.7 32.3 22.5 24.2-5.4-26.9z"/><ellipse cx="88" cy="21" fill="#e4d8c0" fill-opacity=".3" rx="16" ry="9"/><path fill="#ffffe7" fill-opacity=".6" d="M131 31l-9-9 9 20z"/><path fill="#44371f" fill-opacity=".5" d="M40 54l15-33 9 8z"/><circle cx="84" cy="79" r="4" fill="#fff5fc" fill-opacity=".5"/><ellipse cx="165" cy="1" fill="#382c21" fill-opacity=".8" rx="2" ry="73"/><path fill="#fefdf6" fill-opacity=".3" d="M163.3 60.3L160.6 37l-2 2.2-41.9-45.9z"/><path fill="#d0b4bc" fill-opacity=".5" d="M72 45h32v5H72z"/><path fill="#000215" fill-opacity=".5" d="M106 72h11v29h-11z"/><path fill="#0c1101" fill-opacity=".4" d="M14.4 113.8l28-9.7-37.9 4.1-13.2 3.9z"/><circle r="1" fill="#685152" fill-opacity=".4" transform="matrix(-12.0231 -5.22278 3.60496 -8.29878 148.4 96.8)"/><path fill="#dee0e4" fill-opacity=".5" d="M215 50h17v33h-17z"/><path fill="#967b76" fill-opacity=".5" d="M103.6 106.7l-38.6 40 127.7 12.6-76.1-36.3z"/><path fill="#cbc4ba" fill-opacity=".5" d="M23.3 96.2l-5.7-49.7-1.8-19 10.3 66.4z"/><path fill="#4b3e2e" fill-opacity=".7" d="M-13.6-16l38.8 123.2-4.1 11.1-4.2-76z"/><path fill="#351f05" fill-opacity=".3" d="M122.8 57.2L108 64.3l11.9-33.9.2 35.9z"/><path fill="#b4a99e" fill-opacity=".6" d="M127.9 21.7l35.3 15-26.7-30.3 27.7 69.8z"/><path fill="#ccb2c0" fill-opacity=".5" d="M170 106h40v17h-40z"/></g></svg>