<svg xmlns="http://www.w3.org/2000/svg" viewBox="0 0 300 199"><defs/><path fill="#55342b" d="M0 0h300v199H0z"/><g transform="translate(.6 .6) scale(1.17188)"><circle r="1" fill="#b7bcbe" fill-opacity=".6" transform="matrix(9.82243 73.61568 -95.52541 12.74581 172.3 133.8)"/><path fill="#d2ffff" fill-opacity=".6" d="M96.1-42.2l24 45-74.2 39.4-24-45z"/><circle r="1" fill="#000108" fill-opacity=".8" transform="rotate(75.9 -33.3 41.8) scale(55.72835 34.49441)"/><ellipse cx="137" fill="#bbe0ff" fill-opacity=".5" rx="24" ry="29"/><ellipse cx="215" cy="17" fill="#00070d" fill-opacity=".8" rx="63" ry="22"/><path fill="#c1d4e4" fill-opacity=".5" d="M248 131l-81-62-85 20z"/><circle r="1" fill="#420c00" fill-opacity=".5" transform="matrix(20.64022 25.80451 -7.56616 6.05194 142.4 117.7)"/><ellipse cx="107" cy="64" fill="#7e645c" fill-opacity=".9" rx="52" ry="17"/><path fill="#816756" fill-opacity=".8" d="M270 37l-4 64-156-56z"/><path fill="#ab938d" fill-opacity=".7" d="M57.9 169.3l89-50.8-113.4 33.2-10 33.3z"/><path fill="#6f9399" fill-opacity=".7" d="M103 33L51 45-4-16z"/><path fill="#625145" fill-opacity=".6" d="M177 172l-31-53 119 55z"/><path fill="#fafeff" fill-opacity=".7" d="M96.2 4.4l-8.5 19.2-54-24 8.6-19.2z"/><circle r="1" fill="#a9a4a9" fill-opacity=".6" transform="matrix(50.2588 -19.45487 2.0061 5.18247 0 133.7)"/><path fill="#000317" fill-opacity=".5" d="M99 8h40v39H99z"/><path fill="#b8c2d1" fill-opacity=".7" d="M94.7 86.3l20.8 3-8.2 58.4-20.8-3z"/><circle r="1" fill="#020100" fill-opacity=".5" transform="matrix(13.33497 9.90913 -24.29583 32.69552 13 158)"/><path fill="#fff" fill-opacity=".6" d="M112 0h50v5h-50z"/><ellipse cx="71" cy="99" fill="#684142" rx="21" ry="24"/><circle r="1" fill="#cc815a" fill-opacity=".5" transform="matrix(40.25668 49.71285 -13.8325 11.20134 149.9 157.3)"/><ellipse cx="154" cy="34" fill="#031723" fill-opacity=".6" rx="47" ry="9"/><path fill="#a4bcd2" fill-opacity=".5" d="M158.4 25.9l-30.1-11-7.9 28.1 33.3-59z"/><circle r="1" fill="#9fa8af" fill-opacity=".5" transform="rotate(-85.4 161.9 -53.8) scale(35.36616 40.09686)"/><path fill="#feeaec" fill-opacity=".3" d="M128.9 51l-46.1-1.1-32.7 53.8 16.6-51.9z"/><path fill="#00283c" fill-opacity=".5" d="M59.8 21.3l-3.2-4.5 29.3 33.3-25.2 4z"/><circle r="1" fill="#d1dfea" fill-opacity=".6" transform="matrix(-5.60455 -16.7007 13.33357 -4.47458 157 97.1)"/><path fill="#fcffff" fill-opacity=".6" d="M12 4l27 15L27 7z"/><path fill="#43271e" fill-opacity=".5" d="M84 139l-21 38 14-62z"/><path fill="#000913" fill-opacity=".4" d="M129.1 36.2l-14.4 12.4-19-1.1 4.4-63.5z"/><path fill-opacity=".5" d="M49.2 113l-62.4 17.9-8-27.9 62.4-17.9z"/><ellipse cx="127" cy="84" fill="#cadce7" fill-opacity=".7" rx="18" ry="8"/><circle r="1" fill="#482a19" fill-opacity=".4" transform="matrix(38.12542 42.34256 -4.63221 4.17087 161.6 133.1)"/><path fill="#673e2b" fill-opacity=".3" d="M236 76l-80-32L48 69z"/><path fill="#d9ecff" fill-opacity=".5" d="M73 32h25v6H73z"/><path fill="#ffc5c8" fill-opacity=".6" d="M123.6 30l-.2-16h7l.2 16z"/><path fill="#8a9195" fill-opacity=".5" d="M271 65l-66 18 43 102z"/><path fill="#000515" fill-opacity=".6" d="M73 39h35v10H73z"/><circle cx="95" cy="156" r="19" fill="#979097" fill-opacity=".6"/><path fill="#001634" fill-opacity=".5" d="M122 78l25-6-17-5z"/><path fill="#cfc1c4" fill-opacity=".5" d="M-16 163.6l35.5-43.5 52.1-6.1-76.8 16.6z"/><path fill="#04352b" fill-opacity=".4" d="M41 14L18 3l21 2z"/><ellipse cx="110" cy="115" fill="#d0c4c9" fill-opacity=".4" rx="12" ry="20"/><path fill="#10161e" fill-opacity=".7" d="M142.5 10.5L129 32l-15.7 14.1 24.3-3z"/><path fill="#fce9eb" fill-opacity=".2" d="M68.4 166.8L11.7 185 48 146.4l1.5 38.6z"/><circle r="1" fill="#101c24" fill-opacity=".7" transform="matrix(5.85579 6.12773 -4.81378 4.60014 96.3 21.8)"/><circle r="1" fill="#0d1319" fill-opacity=".5" transform="matrix(18.64595 -17.39625 40.05502 42.93247 10.2 35.5)"/><path fill="#fff" fill-opacity=".6" d="M116.1 10.5L110.5-.1l19.4-10.4L135.5.1z"/><path fill="#bce1fb" fill-opacity=".3" d="M59.1 36.9L60.6 55l-9.9-5L16.9-1.8z"/><circle r="1" fill="#6e7479" fill-opacity=".4" transform="matrix(-4.9761 14.10356 -46.5449 -16.42221 226.3 158)"/><ellipse cx="131" cy="8" fill="#000003" fill-opacity=".5" rx="11" ry="3"/><path fill="#fcffff" fill-opacity=".5" d="M85 71h4v8h-4z"/><path fill="#debec1" fill-opacity=".5" d="M58 104l-7 10-10 3z"/><path fill="#a9c1d7" fill-opacity=".8" d="M164.2-16L150.3-3.7 129.7 20l34-17.3z"/><path fill="#2b1919" fill-opacity=".5" d="M132 109l22 15-16-30z"/><ellipse cx="79" cy="27" fill="#7c6359" fill-opacity=".6" rx="14" ry="7"/><path fill="#e0eff8" fill-opacity=".6" d="M67 53l13-2-20 10z"/><path fill="#19202a" fill-opacity=".5" d="M93.1 105.8l-21.8 34.6 16.2-34.7L79.4 67z"/><path fill="#baccd7" fill-opacity=".5" d="M111 111L86 90l30-10z"/><path fill="#3a231d" fill-opacity=".7" d="M-8.9 156.8l25.1-29 58.6-8.3L56 144.8z"/><path fill="#eceded" fill-opacity=".5" d="M129 45h16v2h-16z"/><path fill="#655055" fill-opacity=".7" d="M58.6 42.6l9.2 23.5-13.9 25.4-3.7-7z"/><path fill="#b18886" fill-opacity=".5" d="M76.1 105.7l-35.2 18.7-3-3.6 35.6-5.4z"/><path fill="#939faf" fill-opacity=".4" d="M117 4l-44 7 26 3z"/><path fill="#cd2220" fill-opacity=".6" d="M126.1 19.3l-6.4-5.4 8.4-2.6 5.6 5.5z"/><ellipse cx="198" cy="115" fill="#b3b5bc" fill-opacity=".4" rx="41" ry="15"/></g></svg>