<svg xmlns="http://www.w3.org/2000/svg" viewBox="0 0 299 449"><defs/><path fill="#5f5434" d="M0 0h299v449H0z"/><g transform="translate(.9 .9) scale(1.7539)"><path fill="#000004" fill-opacity=".8" d="M-42.4 131.5l159.8-58.1 79 217-159.8 58.2z"/><path fill="#b1aa9a" d="M100.4 118.8l-17.5 8.1-6.7-21.4 4.3-33.8z"/><ellipse cx="65" cy="61" fill-opacity=".9" rx="17" ry="28"/><path fill="#84807d" fill-opacity=".6" d="M24 152L61-7l-77 86z"/><circle r="1" fill="#02030b" fill-opacity=".6" transform="rotate(-23.6 156.6 -392.5) scale(28.12464 152.04948)"/><path fill="#94918d" fill-opacity=".6" d="M135 63.2l-50.6 6.2L79 24.8l50.7-6.2z"/><path fill="#a3a09e" fill-opacity=".5" d="M130 43l16 137 17-67z"/><path fill-opacity=".7" d="M96 69h38v187H96z"/><ellipse cx="97" cy="220" fill="#010202" fill-opacity=".7" rx="170" ry="56"/><circle r="1" fill-opacity=".7" transform="rotate(-65.7 106.1 10.3) scale(34.22784 17.25351)"/><ellipse cx="75" cy="23" fill="#6b675b" fill-opacity=".9" rx="58" ry="13"/><path fill="#e1dacd" fill-opacity=".5" d="M79 89l26-27-37 21z"/><circle r="1" fill="#d2cab8" fill-opacity=".9" transform="rotate(-135.2 64.6 34.5) scale(9.7871 9.63682)"/><circle r="1" fill="#413a2e" fill-opacity=".5" transform="matrix(-12.45624 5.10868 -17.43563 -42.51247 9.4 132.8)"/><path fill="#3b3730" fill-opacity=".8" d="M135.6 164.8l14.8 29.5 25.2-33.7 10.4-21.3z"/><path fill="#b8b3a6" fill-opacity=".3" d="M53 57l-29 70L7 91z"/><path fill="#403e3b" fill-opacity=".6" d="M148.8 67.3l14.6 102L186 90 115.4-16z"/><circle r="1" fill="#7e796b" fill-opacity=".6" transform="matrix(-8.82382 4.22767 -14.83975 -30.97295 140.1 74.4)"/><path fill="#010204" fill-opacity=".6" d="M117.9 61.9l23.9 63.7-58.7-33.4 14.7-21z"/><path fill="#afa693" fill-opacity=".6" d="M120.2 54.4l-35.1-5.5-.7 23.4L78.2 87z"/><path fill="#000002" fill-opacity=".6" d="M48 36l38 11-37 117z"/><path fill="#45454f" fill-opacity=".4" d="M-3 110l-8-121 71-4z"/><circle r="1" fill="#000001" fill-opacity=".5" transform="matrix(-1.8362 -58.42892 26.3201 -.82714 63 157)"/><path fill="#010204" fill-opacity=".6" d="M140 189l-5-94-42 24z"/><circle r="1" fill="#040300" fill-opacity=".5" transform="rotate(-117.8 90.6 -42) scale(111.09899 16.24251)"/><ellipse cx="143" cy="120" fill="#bfb6a0" fill-opacity=".4" rx="5" ry="32"/><path fill="#302e35" fill-opacity=".3" d="M130 45l6-43-40-9z"/><path fill="#e2ddca" fill-opacity=".5" d="M85 86v40L75 97z"/><path fill="#8b867a" fill-opacity=".5" d="M40.4 91.9l11.5-23.4-17.6-33.4L29.1 86z"/><path fill="#8f8979" fill-opacity=".8" d="M122.1 67.6l19.3 12.1L121.9 49l-38.5-1.1z"/><circle r="1" fill="#6f695c" fill-opacity=".5" transform="matrix(67.17466 -80.33999 12.60738 10.54141 31.6 40.3)"/><path fill="#6d685b" fill-opacity=".4" d="M136.5 156.4l4.5 19.8 14-7 14.1-54.9z"/><path fill="#8f8977" fill-opacity=".5" d="M26 76h5v64h-5z"/><circle r="1" fill="#14110d" fill-opacity=".5" transform="rotate(22.2 -387.2 520.6) scale(15.81699 32.35859)"/><circle r="1" fill="#050505" fill-opacity=".9" transform="matrix(12.80894 -2.38665 2.85264 15.30986 46 109)"/><ellipse cx="97" cy="145" fill="#010101" fill-opacity=".7" rx="10" ry="29"/><path fill-opacity=".5" d="M88 77h42v16H88z"/><path fill="#e3ddca" fill-opacity=".5" d="M97 113l-13 13-3-44z"/><path fill="#7b7568" fill-opacity=".4" d="M136.2 52.8l-101-25.2 4.6-18.4 101 25.2z"/><circle r="1" fill-opacity=".5" transform="matrix(-11.92774 -7.45328 2.4057 -3.84993 75.7 46.5)"/><circle r="1" fill="#110d12" fill-opacity=".3" transform="rotate(-113.3 1.6 2.5) scale(11.75401 23.12445)"/><path fill="#433d34" fill-opacity=".5" d="M32.4 143.2l-7.8 9-43-37.4 7.8-9z"/><path fill="#cec3af" fill-opacity=".5" d="M85 74l3 12H72z"/><ellipse cx="76" cy="5" fill="#57544e" fill-opacity=".5" rx="40" ry="10"/><path fill="#635c4e" fill-opacity=".3" d="M29.6 160.5L-16 50.7l59.7 20.4-31.3.2z"/><ellipse cx="112" cy="79" fill-opacity=".4" rx="18" ry="15"/><circle r="1" fill="#615b50" fill-opacity=".5" transform="rotate(-13.8 462.1 -585.5) scale(5.52477 57.54945)"/><path fill="#020203" fill-opacity=".6" d="M50 45h33v30H50z"/><ellipse cx="170" cy="99" fill-opacity=".2" rx="5" ry="255"/><circle r="1" fill="#272620" fill-opacity=".3" transform="rotate(-2 665.5 -502) scale(160.03902 1)"/><path fill="#817b6c" fill-opacity=".6" d="M47.3 25.2l-24 42.4L66 27.5l71.9 40.7z"/><path fill="#040404" fill-opacity=".8" d="M36.6 93.8l22.3-23.6 23.8 52.6-56.4 63z"/><path fill="#bbb09b" fill-opacity=".5" d="M102 64l-21 4 5-17z"/><path fill="#898376" fill-opacity=".7" d="M33.9 97.1l-4.5 31.2L7.3 87.1l40.6-6.3z"/><path fill="#130d02" fill-opacity=".3" d="M1.1 68.7L13 57.2l-2.8 9.1-7 7.8z"/><path fill="#181410" fill-opacity=".6" d="M-16 131l47 36 3 33z"/><path fill="#d2ccba" d="M76.4 102l12.7-7.7 6.2 15.6-7.6 16z"/><path fill="#99907e" fill-opacity=".4" d="M135 77h11v26h-11z"/><path fill="#050505" fill-opacity=".5" d="M98 109h40v147H98zM76.8 84l8.1-26.5-54.8 100.4 21-95.8z"/><path fill="#a59d8a" fill-opacity=".7" d="M82.4 55.2l7 22.1 4.1-12.8 43.3-.5z"/><circle r="1" fill="#695b4a" fill-opacity=".5" transform="matrix(2.2673 -.30364 1.2382 9.24555 134 85.6)"/><path fill="#a09b8f" fill-opacity=".5" d="M43 60h6v15h-6z"/><path fill="#bdb5a2" fill-opacity=".8" d="M84.1 95.3l4.8-20.1-2.4 1.6-14.3 8.8z"/><path fill="#030404" fill-opacity=".5" d="M31 114h50v104H31z"/></g></svg>