<svg xmlns="http://www.w3.org/2000/svg" viewBox="0 0 300 199"><defs/><path fill="#704e41" d="M0 0h300v199H0z"/><g transform="translate(.6 .6) scale(1.17188)"><circle cx="98" r="144" fill="#b7ccc9" fill-opacity=".4"/><circle r="1" fill="#fad79f" fill-opacity=".7" transform="matrix(-84.04901 -1.76058 .58627 -27.98803 212.4 20.6)"/><ellipse cx="109" cy="146" fill="#241616" fill-opacity=".9" rx="13" ry="118"/><circle r="1" fill="#e7f6ff" fill-opacity=".6" transform="matrix(21.29254 -6.7056 9.84924 31.27464 75.7 87)"/><path fill="#1e0001" fill-opacity=".6" d="M53 24l-7 129-17-80z"/><circle r="1" fill="#c1c0c6" fill-opacity=".7" transform="matrix(18.59186 3.68129 -6.30325 31.83372 16.4 103.1)"/><circle cx="63" cy="169" r="41" fill="#0f0d00" fill-opacity=".5"/><circle cx="165" cy="145" r="39" fill="#95837e" fill-opacity=".8"/><path fill="#876350" fill-opacity=".9" d="M180 42h47v128h-47z"/><path fill-opacity=".6" d="M156 50h7v47h-7z"/><circle r="1" fill="#00121b" fill-opacity=".4" transform="rotate(60.6 53.7 254.3) scale(35.67038 26.51904)"/><path fill="#b5ae9d" d="M115.1 80.1l-.9 10 41.5 10.8-1.4-37.4z"/><circle r="1" fill="#38445a" fill-opacity=".3" transform="matrix(-4.06638 -56.72897 105.13936 -7.53648 31.8 17.8)"/><path fill="#e2ede8" fill-opacity=".5" d="M138 13h83v31h-83z"/><path fill="#d4a58d" fill-opacity=".5" d="M81 159l-6-17-38 12z"/><path fill="#cfccd4" fill-opacity=".6" d="M32 143L6 122l30-64z"/><path fill="#24110b" fill-opacity=".8" d="M120.7 122.6l-39.6 27.7 46.8-61.7-.2 46.8z"/><ellipse cx="142" cy="79" fill="#000105" fill-opacity=".7" rx="2" ry="25"/><path fill="#c9cdd1" fill-opacity=".9" d="M52.6 86.6l45.3-22.7v16.6L52.3 130z"/><path fill="#cef" fill-opacity=".5" d="M164 67h16v31h-16z"/><ellipse cx="42" cy="101" fill="#2a0006" fill-opacity=".5" rx="8" ry="64"/><circle r="1" fill="#e0833c" fill-opacity=".5" transform="matrix(-28.80723 17.98872 -5.27693 -8.4505 233 38.8)"/><path fill="#240e09" fill-opacity=".6" d="M198 41h8v74h-8z"/><ellipse cx="213" cy="84" fill="#d8915f" fill-opacity=".7" rx="7" ry="49"/><ellipse cx="67" cy="28" fill="#818087" fill-opacity=".9" rx="53" ry="13"/><ellipse cx="40" cy="168" fill="#000305" fill-opacity=".6" rx="95" ry="9"/><path fill="#cccecf" d="M97.2 120.1l-.1-55.3-37.9 23.6 38.3 47.1z"/><circle r="1" fill="#c0bec1" fill-opacity=".4" transform="matrix(12.19364 -2.04051 6.49833 38.83251 142 139.9)"/><path fill="#674900" fill-opacity=".6" d="M91.4 146.2l-21.6 4.2-5.2-26.6 21.6-4.2z"/><circle r="1" fill="#f6ab5c" fill-opacity=".7" transform="matrix(18.22453 -12.55393 17.2904 25.10045 255 27.7)"/><path fill="#00101f" fill-opacity=".4" d="M141.9 47.6L176 58.7l9.7 55.2-3.9-68.7z"/><path fill="#0d0000" fill-opacity=".5" d="M99 45h22v33H99z"/><path fill="#f1b178" fill-opacity=".6" d="M189 75h67v3h-67z"/><ellipse cx="183" cy="103" fill="#00162d" fill-opacity=".4" rx="27" ry="7"/><path fill="#ada9b1" fill-opacity=".5" d="M101 154h41v4h-41z"/><circle r="1" fill="#f7d666" fill-opacity=".5" transform="matrix(11.33774 9.04266 -16.93373 21.23162 156.2 0)"/><ellipse cx="22" cy="153" fill="#463b32" fill-opacity=".6" rx="25" ry="15"/><circle cx="3" cy="59" r="35" fill="#655b49" fill-opacity=".3"/><ellipse cx="180" cy="20" fill="#9f5319" fill-opacity=".5" rx="11" ry="3"/><path fill="#9ca0a5" fill-opacity=".9" d="M87.9 68.3L80.4 123l.9-62.9 18.7-9z"/><ellipse cx="55" cy="49" fill="#180e01" fill-opacity=".2" rx="69" ry="8"/><path fill="#000002" fill-opacity=".7" d="M83 148l44 14-47 11z"/><circle r="1" fill="#aa735d" fill-opacity=".6" transform="matrix(-20.43333 8.25004 -6.05782 -15.00372 212.7 122)"/><path fill="#87746c" fill-opacity=".7" d="M38.1 143.8l36.6 16.4-3.8-.7-24.4 1.9z"/><path fill="#e1f7fd" fill-opacity=".5" d="M212.4 9.4l-26.2 1.4 40.1 18.9 11-13z"/><path fill="#0f0000" fill-opacity=".5" d="M98 80h15v57H98z"/><path fill="#e7f2ff" fill-opacity=".4" d="M147 102l9-22-11-29z"/><path fill="#f4b460" fill-opacity=".7" d="M213.9 8.7L271 25.3 215.5-16l-53.1 27.9z"/><path fill="#655f63" fill-opacity=".7" d="M137.6-11.8l-2.3 40.5-15.9 14.8-25.9-.1z"/><ellipse cx="50" cy="98" fill="#79565a" fill-opacity=".7" rx="3" ry="34"/><path fill="#080404" fill-opacity=".6" d="M156 47h6v55h-6z"/><path fill="#9cd6fb" fill-opacity=".2" d="M199.1 94.9l-10.2 3.4-1.3-55.4 2.2-36z"/><ellipse cx="157" cy="33" fill="#e9efee" fill-opacity=".5" rx="21" ry="12"/><path fill-opacity=".6" d="M33.2 159l6.7-54.6 5 .6-6.8 54.6z"/><path fill="#7b7d77" fill-opacity=".3" d="M112.1 138.3l7.5-32.3 4.6 40.3-39.6-2.5z"/><circle r="1" fill="#130000" fill-opacity=".4" transform="matrix(2.26511 17.20524 -5.36733 .70662 200.8 59.8)"/><circle cx="57" cy="127" r="5" fill="#d3e8ff" fill-opacity=".5"/><circle cx="237" cy="60" r="13" fill="#151916" fill-opacity=".5"/><path fill="#fff0e1" fill-opacity=".6" d="M116.9 170.3l4-4.5 2.2 2-4 4.4z"/><path fill="#62390f" fill-opacity=".5" d="M173 33l13 1-1-5z"/><path fill="#ccb9a3" fill-opacity=".4" d="M124 49h16v42h-16z"/><ellipse cx="61" cy="94" fill="#707987" fill-opacity=".3" rx="4" ry="34"/><path fill="#2a1513" fill-opacity=".7" d="M32.3 142.6l34.6-15.1 5.1 12.8-39.4 9.4z"/><circle r="1" fill="#7a6761" fill-opacity=".6" transform="matrix(9.41896 28.3596 -13.13358 4.362 173.6 128.7)"/><path fill="#fffffe" fill-opacity=".2" d="M68.7 65.7l12.6 4.4-6.4 56.1-25.8-75.4z"/></g></svg>