<svg xmlns="http://www.w3.org/2000/svg" viewBox="0 0 300 199"><defs/><path fill="#564329" d="M0 0h300v199H0z"/><g transform="translate(.6 .6) scale(1.17188)"><circle r="1" fill="#eae7eb" fill-opacity=".7" transform="rotate(-9.3 727.6 -700.4) scale(47.92556 118.42111)"/><circle r="1" fill="#968d7d" fill-opacity=".6" transform="rotate(165.9 58.3 27) scale(96.52309 52.47431)"/><ellipse cx="241" cy="101" fill="#020003" fill-opacity=".7" rx="30" ry="101"/><circle r="1" fill="#f9faff" fill-opacity=".5" transform="rotate(145.9 48.4 69.8) scale(38.20165 47.68567)"/><ellipse cx="187" cy="78" fill="#7a756b" fill-opacity=".9" rx="25" ry="39"/><circle r="1" fill="#0d0805" fill-opacity=".6" transform="matrix(18.81542 -18.9895 71.64233 70.98555 28.8 157.3)"/><ellipse cx="113" fill="#78705d" fill-opacity=".7" rx="74" ry="31"/><path fill="#887559" fill-opacity=".7" d="M79.8 116.9l-50.5-7.1L34.2 75l50.5 7.1z"/><circle r="1" fill="#070001" fill-opacity=".7" transform="matrix(12.3339 11.85402 -82.45259 85.79057 226.4 141.4)"/><path fill="#614139" fill-opacity=".6" d="M128.5 23.3l10-.5 3 57.9-10 .5z"/><ellipse cx="122" cy="169" fill="#e3f2fe" fill-opacity=".6" rx="37" ry="10"/><circle r="1" fill="#342e27" fill-opacity=".8" transform="matrix(-7.84343 -25.0507 33.29534 -10.42484 245.2 25)"/><path fill="#aa8d7f" fill-opacity=".8" d="M75.4 128l44.6 10.9-49.4 23.3 2.9-7z"/><circle r="1" fill="#8a7c63" fill-opacity=".8" transform="matrix(19.89211 6.17488 -16.13273 51.97091 74 57.4)"/><ellipse cy="104" fill="#0d0604" fill-opacity=".7" rx="7" ry="110"/><ellipse cx="116" cy="51" fill="#dab7b1" fill-opacity=".6" rx="16" ry="25"/><path fill="#89929a" fill-opacity=".9" d="M155 151h22v19h-22z"/><path fill="#e9f6fd" fill-opacity=".6" d="M81 103h71v24H81z"/><path fill="#50432f" fill-opacity=".8" d="M177.3 165.7L204 152l-12.9-29.2-24.6-25.3z"/><circle r="1" fill="#614e39" fill-opacity=".6" transform="matrix(-16.66997 -3.55024 16.58042 -77.85253 32.2 62.3)"/><path fill="#9b9886" fill-opacity=".6" d="M211-16l-2 30 59-30z"/><path fill="#0d111d" fill-opacity=".5" d="M79 144l11 14-11 11z"/><path fill="#6f685b" fill-opacity=".8" d="M191 0h21v122h-21z"/><path fill="#d7b09f" fill-opacity=".8" d="M136.1 77.4l-14.4-53 4.9 75.1L146 77.3z"/><circle r="1" fill="#7f7868" fill-opacity=".8" transform="matrix(14.97792 58.63696 -19.08617 4.87527 171.2 46)"/><path fill="#d2dce2" fill-opacity=".5" d="M115.8 101.7l-42.9 45.2L99.8 44l20.3 119.2z"/><path fill="#e8f6ff" fill-opacity=".3" d="M138.7 19.4l25.2 70.4-45.5 67.1 29.1-85.4z"/><path fill="#d19274" fill-opacity=".4" d="M85 141h57v19H85z"/><path fill="#433317" fill-opacity=".5" d="M17 111h62v18H17z"/><path fill="#ecd1d3" fill-opacity=".5" d="M143 153l28-9-3-30z"/><path fill="#a48b82" fill-opacity=".6" d="M108.7 80l-4.9-1.1 9.5-41 4.9 1.2z"/><path fill="#7c90a2" fill-opacity=".6" d="M71 165l5 20 3-39z"/><path fill="#00182a" fill-opacity=".2" d="M137 75.8V59.5l10.7 5.8 4.8 8.8z"/><path fill="#01274a" fill-opacity=".2" d="M133.5 45.1l-18.1-34.4 26.6 21 7.8 12.5z"/><path fill="#4c3d24" fill-opacity=".9" d="M79.9 106.6L25.8 152l21.7-6.9 26.2 9z"/><path fill="#030001" fill-opacity=".5" d="M213 45l44 83-45-5z"/><ellipse cx="239" cy="81" fill="#5c5c55" fill-opacity=".5" rx="3" ry="18"/><path fill="#edf7fc" fill-opacity=".5" d="M124 159h29v11h-29z"/><path fill="#1c0906" d="M178 158h78v12h-78z"/><path fill="#0c0804" fill-opacity=".4" d="M56 147h16v23H56z"/><path fill="#e8ecf1" fill-opacity=".4" d="M164.1 114.2L114 158.8l15.6-56L154 72z"/><path fill="#370d00" fill-opacity=".1" d="M117.3 166.5l2.9-13.5-20.1 17.6-39-50.2z"/><path fill="#afbcc6" fill-opacity=".5" d="M183 185l-17-30 8-7z"/><path fill="#030000" fill-opacity=".6" d="M7 126l-12 33 24-3z"/><path fill="#19140f" fill-opacity=".5" d="M211.2 12.6l21.7 4L218 27.7v54.1z"/><path fill="#615555" fill-opacity=".5" d="M114 156h25v3h-25z"/><circle r="1" fill="#4b4339" fill-opacity=".5" transform="matrix(-4.39081 -69.79 8.0192 -.50453 12.8 53.4)"/><path fill="#817d71" fill-opacity=".6" d="M171 111l-28-94 48 71z"/><path fill="#4f4d4a" fill-opacity=".5" d="M211 113v30l-34-32z"/><path fill="#b9c4c7" fill-opacity=".6" d="M74.3 150.8l-2.9 12.5 14.3-38-3-27z"/><path fill="#e1b297" fill-opacity=".7" d="M112.9 148.4l-1.9 10h-5.3l-21.1-23.7z"/><path fill="#b4bfc9" fill-opacity=".5" d="M87 158h14v12H87z"/><circle r="1" fill="#7e674a" fill-opacity=".4" transform="matrix(24.08823 -54.61087 10.5779 4.66579 52.9 47.7)"/><path fill="#463821" fill-opacity=".5" d="M-15 163l52-10 7 32z"/><path fill="#626970" fill-opacity=".6" d="M158 153h8v17h-8z"/><path fill="#0a0605" fill-opacity=".7" d="M236.6 141l7.2-77.1L271 38.2l-1.5 145.2z"/><path fill="#edb9a9" fill-opacity=".3" d="M143.8 41.5l-14.6 25.7-24.7-19.3 31.9-.2z"/><path fill="#010000" fill-opacity=".8" d="M68.3 174l-21-1 .4-9 21 1z"/><path fill="#d5dcdf" fill-opacity=".5" d="M105 44L83 94l23 8z"/><path fill="#463422" fill-opacity=".7" d="M235.9 46.9l-24.3 3.4 8.8-18.9 27.4 10.4z"/><path fill="#b8c4cd" fill-opacity=".4" d="M134 144.2l-25.8-8-29.6-14.9 95.5 14.3z"/><path fill="#231703" fill-opacity=".5" d="M30 132h40v5H30z"/><path fill="#aab2b9" fill-opacity=".3" d="M111.6 118.8l-3.4-102.6-19.6 61.4 12.5-10.8z"/><circle r="1" fill="#8f7d62" fill-opacity=".6" transform="matrix(-6.59233 5.87651 -15.12952 -16.97245 65.7 92.6)"/><path fill="#f7ffff" fill-opacity=".6" d="M121.8 150l-.7 5-7-1 .8-5z"/></g></svg>