<svg xmlns="http://www.w3.org/2000/svg" viewBox="0 0 300 199"><defs/><path fill="#5a4328" d="M0 0h300v199H0z"/><g transform="translate(.6 .6) scale(1.17188)"><circle r="1" fill="#dbe4f4" fill-opacity=".5" transform="matrix(95.68508 -66.48128 54.2975 78.14924 72 44)"/><circle r="1" fill="#0a0d12" fill-opacity=".7" transform="rotate(-43.6 308.4 -178.6) scale(30.16683 97.07961)"/><circle cx="184" r="76" fill="#796f65" fill-opacity=".8"/><path fill="#e1e8fd" fill-opacity=".6" d="M202 96.7l12.6-6.9 7.7 41.8-15.3 6.9z"/><circle r="1" fill="#e2d0df" fill-opacity=".5" transform="matrix(16.02629 -2.3123 12.85777 89.1159 67.2 92.7)"/><circle r="1" fill="#070c1a" fill-opacity=".7" transform="matrix(5.78564 67.64955 -19.60098 1.67635 245.6 139.2)"/><circle r="1" fill="#d4e4f2" fill-opacity=".5" transform="rotate(25.1 -21.1 204.4) scale(31.00321 12.79159)"/><circle r="1" fill="#d5d8be" fill-opacity=".6" transform="rotate(107.4 63.7 64.8) scale(3.78861 71.92923)"/><ellipse cx="7" cy="43" fill="#685d2b" fill-opacity=".5" rx="29" ry="37"/><path fill="#2e0c01" fill-opacity=".7" d="M99.8 57.8l-2.5-10.5-25.2-7.7 9.1 19.3z"/><circle r="1" fill="#0b1727" fill-opacity=".5" transform="matrix(-29.58214 -7.06743 1.1413 -4.7771 82.3 8.3)"/><path fill="#e4ded5" fill-opacity=".5" d="M121 58.8l39 1.4-1 29-39-1.4z"/><circle r="1" fill="#404f4f" fill-opacity=".5" transform="matrix(48.9223 21.47539 -10.19082 23.21532 28.8 150.1)"/><circle cx="137" cy="155" r="29" fill="#2b2a2e" fill-opacity=".9"/><circle r="1" fill="#f7f9cf" fill-opacity=".5" transform="matrix(-44.24895 16.79393 -.9259 -2.4396 247.6 27)"/><ellipse cx="86" cy="113" fill="#deaab9" fill-opacity=".5" rx="32" ry="28"/><path fill="#a2a3a2" fill-opacity=".4" d="M251.5 127.4l-13.1-23.6 20.1-11.2 13.1 23.6z"/><path fill="#b9c5cf" fill-opacity=".6" d="M37 9h35v57H37z"/><circle r="1" fill="#4e3a18" fill-opacity=".4" transform="rotate(98.6 54.1 83) scale(14.62237 29.09835)"/><ellipse cx="35" cy="104" fill="#7b786f" fill-opacity=".7" rx="23" ry="30"/><path fill="#0b0900" fill-opacity=".7" d="M271 122.7l-51 11.2-60.3-17.5 89.1 68.6z"/><path fill="#c8d2d9" fill-opacity=".6" d="M102 22h12v50h-12z"/><ellipse cx="201" cy="19" fill="#44312e" fill-opacity=".4" rx="53" ry="11"/><circle r="1" fill="#4a3a2e" fill-opacity=".8" transform="matrix(-23.63563 .83293 -.52236 -14.82279 237 54.5)"/><circle r="1" fill="#524c4c" fill-opacity=".5" transform="rotate(-2 4534.8 -3299.7) scale(53.98155 10.53799)"/><path fill="#26241c" fill-opacity=".7" d="M59.9 149l.1-6.4.4-5.9-74 22.3z"/><path fill="#42474c" fill-opacity=".6" d="M117-14l-4 35L-8-16z"/><circle cx="216" cy="72" r="16" fill="#be7ebb" fill-opacity=".3"/><path fill="#2f2420" d="M217.8 77.7l-8.7.4-12 41.3-40.3-18.5z"/><path fill="#82725b" fill-opacity=".5" d="M159 74h33v22h-33z"/><path fill="#8a7e79" fill-opacity=".6" d="M-10.4 117.3L48 109l4.4 31.6L-6 149z"/><circle r="1" fill="#7e705c" fill-opacity=".7" transform="matrix(-5.87295 1.88177 -9.07674 -28.32816 133.6 101.2)"/><path fill="#e9e8cc" fill-opacity=".8" d="M193.8 40.6l2.3-1.3-77.8-26.9-3.5 5.7z"/><ellipse cx="63" cy="120" fill="#f4ecf2" fill-opacity=".5" rx="5" ry="31"/><path fill="#767471" d="M66.9 4.7L21.9-16 222.5 2.5 105.1 14.2z"/><path fill="#a98172" d="M63.9 106.4l16.7-27.3 1.6-26.6-14 40.3z"/><path fill-opacity=".5" d="M94.5 14L27-4l.6-2L95 12z"/><circle r="1" fill-opacity=".6" transform="matrix(-23.91477 5.97833 -1.21479 -4.85946 126.4 134.2)"/><path fill="#e5ffff" fill-opacity=".2" d="M205.7 114l24-1 .6 17-24 1z"/><circle r="1" fill="#090000" fill-opacity=".5" transform="rotate(82.1 6.9 194.5) scale(9.05913 84.29509)"/><path fill="#f7dfe2" fill-opacity=".7" d="M11 185h90l-16-21z"/><path fill="#311103" fill-opacity=".6" d="M106 46l-36 3 24 12z"/><path fill="#604d11" fill-opacity=".4" d="M113 71.2l7 13.6-16.4 12.1-2.4-26.3z"/><path fill="#d8dbe8" fill-opacity=".5" d="M80 61h27v9H80z"/><path fill="#b8bdc2" d="M114.6 22L93.1 47.7l-4.6-.1L54 8z"/><path fill="#4b452c" fill-opacity=".5" d="M-10.5 31.4l1.1-16 45.9 3.2-1.1 16z"/><path fill="#1f200a" fill-opacity=".6" d="M117.7 82.5l-4.4-62.9h1l4.4 62.8z"/><path fill="#c7bebd" fill-opacity=".4" d="M131.9 53.5l40.9 19.3-78.2 33.3 32 3.5z"/><path fill="#fff" fill-opacity=".2" d="M189.5 55l4.4-20.5 20.6 4.4-4.4 20.6z"/><path fill="#2f2f23" fill-opacity=".6" d="M189 124l47 14-76 18z"/><ellipse cx="68" cy="78" fill="#fffffc" fill-opacity=".5" rx="4" ry="12"/><path fill="#eac6ff" fill-opacity=".5" d="M194 66h20v4h-20z"/><path fill="#b56e6c" fill-opacity=".5" d="M107.4 145.2l2.7 7.9-2.9 13.8-11.8-26.5z"/><circle r="1" fill="#5a4f50" fill-opacity=".7" transform="matrix(-9.82329 -17.97991 33.61028 -18.3629 243.8 5)"/><path fill="#08221e" fill-opacity=".3" d="M27 63.6l37.4 9.7 1.7-6.3 3.8 1.1z"/><path fill="#ffffd9" fill-opacity=".4" d="M182.6 48.2l1.4 3.7-20.6 8L162 56z"/><path fill="#8b7b62" fill-opacity=".5" d="M150 102l9 20-6 7z"/><circle r="1" fill="#8a805f" fill-opacity=".7" transform="matrix(30.02465 -4.4955 4.35642 29.09584 4.2 59.8)"/><path fill="#0a0214" fill-opacity=".6" d="M174.4 91.3l35.9 3.5-5.2-12.6-31.3 20.9z"/><path fill="#232404" fill-opacity=".3" d="M52.8 88.9l3.8 21-4.1 8.7 9.3-39.4z"/><path fill="#b9b092" fill-opacity=".5" d="M118 52h22v28h-22z"/><path fill="#000005" fill-opacity=".7" d="M142.5 139l-2.1-10.8 47.1-9.2 2.1 10.8z"/><circle cx="148" cy="99" r="10" fill="#00001b" fill-opacity=".6"/><path fill="#160201" fill-opacity=".2" d="M212.4 49.2l-57 31.5 25.3-28.5L80.1 9.9z"/><path fill="#c9e5ff" fill-opacity=".2" d="M-16 89.6l23.5 32.5 15-57.6-3.7 29.7z"/></g></svg>