<svg xmlns="http://www.w3.org/2000/svg" viewBox="0 0 300 199"><defs/><path fill="#745338" d="M0 0h300v199H0z"/><g transform="translate(.6 .6) scale(1.17188)"><ellipse cx="176" cy="121" fill="#b7aba5" fill-opacity=".7" rx="214" ry="83"/><path fill="#291811" fill-opacity=".4" d="M97 44L38 152 21 4z"/><path fill="#fffffb" fill-opacity=".5" d="M153 185l54-41-4-160z"/><ellipse cx="2" cy="57" fill="#d3d1dc" fill-opacity=".5" rx="15" ry="120"/><circle cx="221" r="90" fill="#94826d" fill-opacity=".6"/><path fill="#7a5c47" fill-opacity=".7" d="M29 120h72v50H29z"/><path fill="#f3ddce" fill-opacity=".6" d="M149 153l-41-61-6 79z"/><path fill="#ffcdd2" fill-opacity=".4" d="M84.1 11.3L64.7-16 53.9 37.9l24.4 4z"/><circle r="1" fill-opacity=".3" transform="matrix(-55.77276 -4.10292 .94558 -12.85362 42.2 49.2)"/><path fill="#edeff2" fill-opacity=".7" d="M183.6 82.4l-24.7 13.1-8.5-15.9 24.7-13.1z"/><path fill="#f6f0cb" fill-opacity=".6" d="M95.1 109.5l-15 17.4-21.2-18.4 15-17.4z"/><path fill="#d6d7db" fill-opacity=".4" d="M0 66h46v32H0z"/><circle r="1" fill="#d6d2d8" fill-opacity=".5" transform="rotate(-134.2 73.1 5) scale(32.43369 14.37846)"/><path fill="#fffef1" fill-opacity=".5" d="M206 42l-2 71-22-87z"/><circle r="1" fill="#545140" fill-opacity=".5" transform="matrix(-18.7385 -13.24107 17.23367 -24.38875 230.9 75)"/><circle r="1" fill="#bed6df" fill-opacity=".6" transform="matrix(16.80954 5.5056 -7.34299 22.41937 248.3 112.6)"/><path fill="#633622" fill-opacity=".5" d="M220 161l25 24-20-96z"/><path fill="#ffebe3" fill-opacity=".7" d="M76 151h13v19H76z"/><path fill="#916c56" fill-opacity=".9" d="M54.6 60.3l66.9 17.1 29 18.2-103.1.1z"/><path fill="#080200" fill-opacity=".7" d="M63-16H40l1 58z"/><circle r="1" fill="#b1cedc" fill-opacity=".4" transform="matrix(-3.53804 18.20166 -11.71473 -2.27711 106.4 0)"/><path fill="#e3e9f3" fill-opacity=".4" d="M202 82l-79 66 89-18z"/><path fill="#855340" fill-opacity=".6" d="M130.9 107l6.7 1.7-22.5 90.3-6.7-1.7z"/><path fill="#2f0600" fill-opacity=".5" d="M42 149l26 36-4-44z"/><path fill="#672004" fill-opacity=".5" d="M150 118l27-20-35-3z"/><circle r="1" fill="#824830" fill-opacity=".5" transform="matrix(-8.49702 43.71337 -16.33556 -3.17531 162.4 34)"/><path fill="#0b0300" fill-opacity=".5" d="M93-10l-1 59-21 6z"/><path fill="#f6f9eb" fill-opacity=".6" d="M100 104h25v28h-25z"/><ellipse cx="185" cy="65" fill="#aa7c61" fill-opacity=".8" rx="7" ry="28"/><path fill="#0a0001" fill-opacity=".7" d="M28.3 68.5l3.2-56.6L18.4 45l-7.1 8z"/><path fill="#521b02" fill-opacity=".5" d="M107.6 144.3l-17.5 1.9-6.8 6.5 8-41.5z"/><path fill="#949288" fill-opacity=".8" d="M0 128h72v14H0z"/><circle r="1" fill="#8d4431" fill-opacity=".5" transform="matrix(4.02088 4.0839 -25.0568 24.6702 150.5 159.4)"/><path fill="#d6d0cf" fill-opacity=".6" d="M141.1 97.5L137 33.3l9.4 34.5-30.2 48.6z"/><path fill="#22100b" fill-opacity=".4" d="M200 165l9-33-22 36z"/><circle r="1" fill="#fff7f4" fill-opacity=".5" transform="matrix(-24.23966 32.39944 -8.49513 -6.35564 185.2 152.5)"/><circle r="1" fill="#8e8c79" fill-opacity=".7" transform="matrix(20.32668 -23.17418 56.0037 49.12232 224 9.1)"/><path fill="#e4cdc7" fill-opacity=".8" d="M.7 11.8L-16 10.5l36 2.2L2.6-16z"/><path fill="#244a33" fill-opacity=".6" d="M217 0h6v70h-6z"/><circle cx="6" cy="31" r="16" fill="#c19083" fill-opacity=".6"/><path fill="#4c1c1d" fill-opacity=".3" d="M10 144.6l58.5 21L37 140.5l-21.5 40z"/><path fill="#5c5d36" fill-opacity=".5" d="M51.4 108.1l18.2-1.8-10.8 38.5-48.4-36.6z"/><path fill="#51411f" fill-opacity=".5" d="M49.7 78.6l22 5 50 16.7-23.3.8z"/><path fill="#dce4e2" fill-opacity=".5" d="M98 59l10-23 11 58z"/><path fill="#3c1107" fill-opacity=".4" d="M205.3 105.2l3.2-34.1 6.8 71.8 11.7-11.3z"/><path fill="#d2e1e6" fill-opacity=".7" d="M221.1 97.6l.6 20.3-26.3-15.5-17.1 20.1z"/><path fill="#281511" fill-opacity=".5" d="M118 17.3l-30.6 3.8 48.7 11.8L119.5-16z"/><circle r="1" fill="#ffefe6" fill-opacity=".5" transform="matrix(-1.6192 8.1776 -8.98007 -1.7781 71.3 0)"/><ellipse cx="35" cy="10" fill="#84888d" fill-opacity=".6" rx="5" ry="18"/><path fill="#d7dbb4" fill-opacity=".3" d="M96.8 185l-51.3-84.2-15.9-41.7 7-5.3z"/><ellipse cx="255" cy="151" fill="#837e79" rx="22" ry="14"/><path fill="#a0b388" fill-opacity=".6" d="M90 84l35 28-5-25z"/><path fill="#e4cec7" fill-opacity=".7" d="M150.1 118.2L140 162.1l-7 7.3-8.1-17.2z"/><path fill="#e2d6c2" fill-opacity=".7" d="M98.3 105.5l-15.7 22.8-17.2-28.1L85 94.6z"/><path fill="#d79789" fill-opacity=".5" d="M154 4l-4 27-23-29z"/><circle r="1" fill="#48392d" fill-opacity=".6" transform="rotate(161 82.4 16.6) scale(9.48478 24.7832)"/><ellipse cy="74" fill="#d5d9dc" fill-opacity=".8" rx="13" ry="16"/><path fill="#f1e3d7" fill-opacity=".8" d="M204.6 75.7l4.6-12-9.1-25.3-13-13.5z"/><ellipse cx="20" cy="76" fill="#8d736d" fill-opacity=".5" rx="6" ry="18"/><ellipse cx="121" cy="47" fill="#9e897a" fill-opacity=".7" rx="9" ry="14"/><path fill="#a08e88" fill-opacity=".9" d="M173.1 116.5l-53.3 18.4 13.5-22.7 22.3 23.5z"/><path fill="#080000" fill-opacity=".5" d="M255 100h1v57h-1z"/><path fill="#bebdc1" fill-opacity=".6" d="M45 123l-3 28 11-11z"/><path fill="#301b10" fill-opacity=".5" d="M39 18l4 48 39-12z"/><path fill="#e7e6ec" fill-opacity=".4" d="M128.4 72.9l15.9-33.2 1.6 4.7-5.5 61.4z"/></g></svg>