<svg xmlns="http://www.w3.org/2000/svg" viewBox="0 0 300 199"><defs/><path fill="#50362b" d="M0 0h300v199H0z"/><g transform="translate(.6 .6) scale(1.17188)"><circle r="1" fill="#e8ede5" fill-opacity=".6" transform="rotate(.2 -39188 29255) scale(35.53538 255)"/><ellipse cx="239" cy="90" fill="#efd5ae" fill-opacity=".7" rx="22" ry="169"/><circle cx="5" cy="39" r="178" fill="#a3a798" fill-opacity=".4"/><circle r="1" fill="#f9feff" fill-opacity=".6" transform="matrix(.14452 -23.32372 43.2502 .26799 94 142.7)"/><circle r="1" fill="#614932" fill-opacity=".5" transform="matrix(15.6486 -34.4187 52.39901 23.8234 103.9 56.2)"/><ellipse cx="51" fill="#f0d7ad" fill-opacity=".7" rx="70" ry="20"/><circle r="1" fill="#03090f" fill-opacity=".5" transform="matrix(16.9365 1.02907 -2.63812 43.41833 44.4 99.7)"/><ellipse cx="215" fill="#a37f5a" rx="62" ry="15"/><circle r="1" fill="#e2e4e9" fill-opacity=".7" transform="matrix(-9.38387 -40.00834 19.72193 -4.62574 85.2 121.6)"/><circle r="1" fill="#eedec1" fill-opacity=".5" transform="matrix(18.00857 6.42565 -28.92756 81.07259 241 117.6)"/><path fill="#290f00" fill-opacity=".2" d="M174.5 82l-17-52.3L273.5-8l17 52.3z"/><circle r="1" fill="#262426" fill-opacity=".5" transform="rotate(-142.6 89.8 33) scale(28.57536 23.84953)"/><path fill="#fff" fill-opacity=".6" d="M12 72h6v49h-6z"/><path fill="#393c37" fill-opacity=".8" d="M108.2 108.7L87.4 85.9 104 61.1l5.5 25.1z"/><path fill="#ffffc3" fill-opacity=".5" d="M145 26h11v24h-11z"/><path fill="#f7d5a3" fill-opacity=".5" d="M6 1h17v41H6z"/><path fill="#fff" fill-opacity=".4" d="M98 138h51v17H98z"/><ellipse cx="110" cy="25" fill="#f4cda4" fill-opacity=".5" rx="5" ry="73"/><path fill="#998e97" fill-opacity=".7" d="M94 77L54 91l-3-43z"/><path fill="#735338" fill-opacity=".5" d="M109.3 185L211 172.6l22.9-39.8-117.6 23.9z"/><ellipse cx="67" cy="169" fill="#cfd3d9" fill-opacity=".5" rx="22" ry="57"/><circle r="1" fill="#5c472d" fill-opacity=".5" transform="matrix(14.98724 9.65946 -17.0215 26.4099 76 40.6)"/><circle r="1" fill="#acb0be" fill-opacity=".4" transform="matrix(2.7916 -5.98017 18.50753 8.63952 170.2 107.2)"/><ellipse cx="78" cy="74" fill="#fff9ff" fill-opacity=".4" rx="8" ry="12"/><ellipse cx="207" cy="75" fill="#020e10" fill-opacity=".6" rx="9" ry="65"/><circle r="1" fill="#1e2138" fill-opacity=".5" transform="matrix(-4.04558 11.34903 -114.69414 -40.88492 22.2 169)"/><path fill="#382000" fill-opacity=".4" d="M136.4-11.3l21.7 12.5-18.5 32-21.7-12.4z"/><path fill="#141416" fill-opacity=".8" d="M30.5 185l30.9-87.4-31.3-23.8 19.7 68.4z"/><path fill="#000001" fill-opacity=".5" d="M70 85L57 70l1 17z"/><path fill="#958b71" fill-opacity=".6" d="M46 8L27 84 16 17z"/><path fill="#be956b" fill-opacity=".6" d="M172.3 11l7.2 17.9 37.6-38.2L255 13.1z"/><circle r="1" fill="#e8dfd1" fill-opacity=".5" transform="matrix(23.0188 22.16412 -15.71165 16.31752 245.2 115.3)"/><path fill="#e2e4e5" fill-opacity=".8" d="M135 147L90 88l-39 79z"/><ellipse cx="32" cy="142" fill="#524e49" fill-opacity=".6" rx="11" ry="53"/><path fill="#eae2cb" fill-opacity=".5" d="M9 2l47-18 28 40z"/><path fill="#f8ffff" fill-opacity=".6" d="M237 188.8l-14-.7 2-39 14 .8z"/><ellipse cx="193" cy="80" fill="#d4a052" fill-opacity=".3" rx="3" ry="43"/><path fill="#3b362b" fill-opacity=".4" d="M114 49l78 103-70-23z"/><ellipse cx="129" cy="86" fill="#7d8b82" fill-opacity=".7" rx="5" ry="13"/><circle cx="244" cy="66" r="24" fill="#cbab84" fill-opacity=".6"/><path fill="#1b0900" fill-opacity=".2" d="M108.9 115L77.8 53.7l3.3-33.1 27.8 59.6z"/><circle r="1" fill="#f0e9ee" fill-opacity=".5" transform="rotate(173.6 25 35.9) scale(1.60748 19.6907)"/><path fill="#d3eeff" fill-opacity=".1" d="M8.2 77.4l47.6-48.2L25 83.4 16.4 185z"/><path fill="#2d3002" fill-opacity=".4" d="M19.5 64.7L1.8 45.5 21 44.1l4.8 56.6z"/><path fill="#313f56" fill-opacity=".6" d="M122 154h30v16h-30z"/><path fill="#050709" fill-opacity=".5" d="M35 61h16v43H35z"/><ellipse cy="67" fill="#a8faeb" fill-opacity=".2" rx="5" ry="43"/><path fill="#564539" d="M169.7 107.3l16.2.6-6.6-64.1-10.7-29.1z"/><path fill="#0a0d12" fill-opacity=".6" d="M52.7 107l17-27.1 1.6 1-17 27.2z"/><path fill-opacity=".5" d="M60 55l2 20 3-8z"/><ellipse cx="162" cy="28" fill="#91643e" fill-opacity=".6" rx="7" ry="47"/><path fill="#a87f59" fill-opacity=".7" d="M218 9h38v37h-38z"/><path fill="#50563a" fill-opacity=".5" d="M29 24h39v21H29z"/><path fill="#bb7435" fill-opacity=".4" d="M165.6 158.9l60.4-27.6-7.6 53.7-17.8-34.4z"/><circle r="1" fill="#e8c49b" fill-opacity=".6" transform="matrix(-5.55166 -1.53358 3.3668 -12.188 151.7 40.6)"/><path fill="#201b15" fill-opacity=".4" d="M160.8 156.2l61.1-24.1-19.4-19.7-16.9 8.9z"/><circle r="1" fill="#9b816a" fill-opacity=".5" transform="matrix(-31.28431 -43.66528 .8129 -.5824 242 122.9)"/><path fill="#dcdde1" fill-opacity=".7" d="M54.6 135.6l22.6-56.7 45.7 51.1 26.7 11.9z"/><ellipse cx="6" cy="108" fill="#152a2e" fill-opacity=".4" rx="5" ry="18"/><path fill="#c5c7cb" fill-opacity=".5" d="M63.9 86.9L76 185l7.3-93.3-41.9.5z"/><path fill="#c88600" fill-opacity=".2" d="M271 152.3L239.8 185l-1.2-13.9-3.2-31.5z"/><path fill="#f4b158" fill-opacity=".2" d="M129.6 48.2L115.3-16l-13 60.5 21.1 23.9z"/><path fill="#000023" fill-opacity=".2" d="M21 168h101v2H21z"/><path fill="#241e19" d="M217.3 10.2l-20.1 7.1 1.7-9.1 17.5 103.5z"/><path fill="#846d52" fill-opacity=".5" d="M48.4 10.5L-16 26.6l3.6-24.5 64.6 27.4z"/></g></svg>