<svg xmlns="http://www.w3.org/2000/svg" viewBox="0 0 300 199"><defs/><path fill="#5d4e36" d="M0 0h300v199H0z"/><g transform="translate(.6 .6) scale(1.17188)"><circle r="1" fill="#bcbebb" fill-opacity=".7" transform="matrix(-.6773 49.17825 -88.55187 -1.21956 85.8 51.2)"/><circle r="1" fill="#020200" fill-opacity=".7" transform="matrix(-254.02965 22.22471 -3.28587 -37.55762 135.6 146)"/><circle r="1" fill="#dff1fb" fill-opacity=".5" transform="rotate(-32.8 164 -390) scale(22.84969 19.23332)"/><path fill="#301f00" fill-opacity=".7" d="M35.5 79.3l-28.7 4-4.3-30.6 28.7-4z"/><circle r="1" fill="#69675b" fill-opacity=".6" transform="matrix(-13.4809 -29.45505 49.67645 -22.73576 107.9 103.3)"/><ellipse cx="96" cy="44" fill="#dddcd7" fill-opacity=".4" rx="71" ry="26"/><circle r="1" fill="#030100" fill-opacity=".9" transform="matrix(-6.64234 -35.47594 39.05417 -7.31231 29 142.7)"/><path fill-opacity=".9" d="M241 58h15v112h-15z"/><ellipse cx="189" cy="99" fill="#493a1f" fill-opacity=".8" rx="29" ry="49"/><path fill="#e3ecf1" fill-opacity=".4" d="M-13 4l4 35 73-2z"/><path fill="#b3c7c6" fill-opacity=".3" d="M117.1 85.8L11.7 77.7l68.1 54.4 59.5-39.8z"/><path fill="#756f68" fill-opacity=".7" d="M27 0h126v17H27z"/><ellipse cx="71" cy="83" fill="#6b5d44" fill-opacity=".5" rx="7" ry="71"/><path fill="#3e2f27" d="M139.6 72.8l-2.7 37.3 19.2-38.9-12.8-2.5z"/><circle r="1" fill="#040702" fill-opacity=".6" transform="rotate(23.4 -242.5 389.2) scale(69.12094 6.08759)"/><path fill="#a8aaa6" fill-opacity=".5" d="M218 13h20v75h-20z"/><circle r="1" fill-opacity=".9" transform="matrix(-81.22837 -5.44658 1.50759 -22.48368 166.6 169)"/><path fill="#040502" fill-opacity=".6" d="M60.8 108.1l-76.8-4.6 33.1-44.6L23.9 185z"/><path fill="#4e3f1f" fill-opacity=".6" d="M168 0h50v71h-50z"/><path fill="#f0fff3" fill-opacity=".2" d="M17.6 88.3l5.1 12.2 33.8-4.6-4.4-47z"/><path fill="#5d431b" fill-opacity=".5" d="M125.3 142.5L70 160.4l-7.4-22.9 55.2-17.9z"/><path fill="#2c1d0c" fill-opacity=".7" d="M49.5 9.2l-28.8-.1-32.6-1.2 50.6 10.3z"/><path fill-opacity=".7" d="M253 96l6.8 55.5L223 156l-6.9-55.5z"/><path fill="#e7e3dc" fill-opacity=".5" d="M78 54l41 23-33-51z"/><path fill="#fffded" fill-opacity=".2" d="M115.4 82.3l-34 51.7 19.4 8.3L63 108.9z"/><circle r="1" fill="#8d8160" fill-opacity=".5" transform="rotate(93.4 -24.2 30.6) scale(28.74016 7.84438)"/><path fill="#381d02" fill-opacity=".3" d="M103.2 84.3L98.4 64l27.9-8.8-17.7-5.5z"/><path fill="#c1bfba" fill-opacity=".6" d="M121 58l46-39-1 53z"/><path fill="#716748" fill-opacity=".6" d="M265 31l-58 20 57 4z"/><path fill="#1d1c06" fill-opacity=".5" d="M68 82h10v22H68z"/><path fill-opacity=".6" d="M224 78l4-11-1 21z"/><path fill="#382b2a" fill-opacity=".4" d="M106.7 85.1L87.6 59.5l-.2 12.7 23.3 4.1z"/><path fill-opacity=".6" d="M162.2 21.9l-8-.9 1.6-14.9 8 .9z"/><path fill="#9c9f9d" fill-opacity=".4" d="M47 10h105v14H47z"/><path fill="#4e3500" fill-opacity=".4" d="M36.1 77.6l-1.9-31.1-7.1-5.1-16.6 9.7z"/><path fill="#dbecff" fill-opacity=".5" d="M241 84l-8-16-3 15z"/><ellipse cx="153" cy="104" fill="#444c48" fill-opacity=".5" rx="18" ry="22"/><path fill-opacity=".6" d="M265 112l-30-41 13-24z"/><path fill="#d1cec6" fill-opacity=".8" d="M53 66.2l-4.6-9.5-14.5-27.2L37 80.8z"/><path fill="#b6ccd5" fill-opacity=".5" d="M79 84h17v16H79z"/><path fill="#3a1f1b" fill-opacity=".4" d="M144 77.1l20.6 17.2-30.8-10.2-16.6-24.2z"/><circle r="1" fill="#eff4dd" fill-opacity=".4" transform="matrix(-36.95806 7.35943 -.56965 -2.8607 255 11.4)"/><path fill="#060301" fill-opacity=".6" d="M-16 115l71-12 31 82z"/><path fill="#70756c" fill-opacity=".7" d="M223.7-1.4L197.3-16l53.2 22.7-36.8 13z"/><path fill="#69644c" fill-opacity=".8" d="M8.6 111l24.2-12.2L41.7 85l-5.5 22.3z"/><path fill="#b5a48c" fill-opacity=".6" d="M70.7 119.2L53.9 98l21.2 8.4 19.4 15.1z"/><path fill="#4e3819" fill-opacity=".5" d="M64.8 148.3l-13.3-28.9 7.9-10.4 23.9 48.8z"/><path fill="#92918a" fill-opacity=".8" d="M61.3 46.1l48-40.9 38 23.6-78.9-15.6z"/><path fill="#eceff3" fill-opacity=".4" d="M217 30h15v14h-15z"/><path fill="#e7f2ff" fill-opacity=".3" d="M71 18L53 43 18 27z"/><path fill="#4c391a" fill-opacity=".6" d="M105 121l34 11-63 26z"/><path fill="#e9e7e4" d="M79.3 52.2l.4 12 16.8-3.1-3.4-9.1z"/><path fill="#c0b6b5" fill-opacity=".9" d="M152.7 78.9L163.2 68l2.6 3.7-6.4 10z"/><path fill="#413115" fill-opacity=".6" d="M197.8 158.2l20.5-16 2.9-65.5-47.4 30.2z"/><path fill="#311202" fill-opacity=".3" d="M127 89.6l30.8-21.1-43 16.7L125 63z"/><path fill="#7f827e" fill-opacity=".6" d="M167.2 28.9l-20.1 4.3-3.2 21.3 25.1-47z"/><path fill="#2b1b00" fill-opacity=".5" d="M55-8.4L58-6 39 18.4 35.8 16z"/><path fill="#8c866e" fill-opacity=".7" d="M217.7 63.8l27.7-5.7-13.3-21.3 32-.2z"/><path fill="#000401" fill-opacity=".4" d="M203.9 170.8L66.3 98.1l65.5 20.1 6.6-4.4z"/><path fill="#4e665c" fill-opacity=".5" d="M221 85h22v15h-22z"/><path fill="#ccc3bd" fill-opacity=".5" d="M137.1 74.3l-13.8-22 13.6-8.6 13.8 22z"/><path fill="#544529" fill-opacity=".8" d="M222 67l-51-83-3 103z"/><path fill="#ada69c" fill-opacity=".3" d="M33.1 51.2L10.6 11.6l39.7 13.2L-16 62.7z"/><path fill="#b7820e" fill-opacity=".2" d="M42.7 44l19.2 25.5-15.3 14.6 14.1-39.6z"/><ellipse cx="255" cy="17" fill="#04122d" fill-opacity=".3" rx="15" ry="4"/></g></svg>