<svg xmlns="http://www.w3.org/2000/svg" viewBox="0 0 300 199"><defs/><path fill="#2e3948" d="M0 0h300v199H0z"/><g transform="translate(.6 .6) scale(1.17188)"><circle r="1" fill="#f2f0ee" fill-opacity=".8" transform="rotate(-178.5 83 4.6) scale(206.91906 38.16752)"/><circle r="1" fill="#f4f7f2" fill-opacity=".8" transform="matrix(-9.64963 21.17418 -82.9327 -37.79461 235.3 111.2)"/><circle r="1" fill="#fff" fill-opacity=".7" transform="matrix(-30.62167 46.4026 -30.18904 -19.92213 101.1 165)"/><circle r="1" fill="#bdc1c1" fill-opacity=".4" transform="rotate(-168.7 24.1 31) scale(18.81978 68.11289)"/><ellipse cx="124" cy="67" fill="#1a0000" fill-opacity=".4" rx="31" ry="46"/><circle r="1" fill="#ebeadd" fill-opacity=".5" transform="rotate(34.6 -1.1 290.9) scale(10.4329 44.41742)"/><path fill="#eff3f8" fill-opacity=".8" d="M113.6 159.9l14.2-50.2-57.9 32.4-10.5 16.3z"/><ellipse cx="105" cy="4" fill="#edfeff" fill-opacity=".6" rx="82" ry="22"/><circle r="1" fill="#170d02" fill-opacity=".6" transform="matrix(53.60032 37.92145 -11.71995 16.56565 221.5 154.3)"/><path fill="#410804" fill-opacity=".6" d="M94.8 178.5l-2.2-13.8 32.6-5.2 2.2 13.8z"/><path fill="#222527" fill-opacity=".9" d="M171.2 100.9l-8.1-18.3 1.5 1.8L101 96.1z"/><path fill="#f3f5f3" fill-opacity=".8" d="M263.3 124.2l7.7-34.4-54.5-4.8 1.6 34.1z"/><circle r="1" fill-opacity=".5" transform="matrix(10.50273 2.8142 -10.64862 39.74117 110 85.3)"/><path fill="#797778" fill-opacity=".5" d="M91 116l5-77-112-20z"/><path fill="#b4b0a8" fill-opacity=".5" d="M13.8 102.7l-.6 31-21-.4.6-31z"/><path fill-opacity=".5" d="M207 64l-36 2 54 15z"/><circle r="1" fill="#ccc2c4" transform="rotate(-66.2 145.6 -179.2) scale(25.1941 35.07244)"/><path fill="#212223" fill-opacity=".8" d="M126.1 185H23.7l18.6-72.5 31.5 69.3z"/><circle r="1" fill="#b5b4b0" fill-opacity=".3" transform="rotate(68.6 -110 88) scale(10.48259 21.55352)"/><circle cx="109" cy="77" r="21" fill-opacity=".6"/><path fill="#e7ecef" fill-opacity=".6" d="M147 79l13-20 47 32z"/><path fill="#00030a" fill-opacity=".6" d="M147.4 48.2L160 59.6l-7.4 8.2L140 56.4z"/><path fill="#816c5b" fill-opacity=".6" d="M56 41h113v9H56z"/><path fill="#d3d3d9" fill-opacity=".5" d="M152.3 137.3l-24.4-22.8-18.8-8.7 2.9 54.5z"/><path fill="#b5c2ce" fill-opacity=".9" d="M37.1 5.7l19 42.3-3.9 3.1L-16 2.2z"/><circle r="1" fill="#eaf7ff" fill-opacity=".6" transform="matrix(0 16.99345 -26.14908 0 78.7 21.7)"/><path fill="#5e5850" fill-opacity=".6" d="M185 185l-26.4-95.3-4.8-32.7-1.6 86.9z"/><path fill="#627174" fill-opacity=".4" d="M169.2-16l22.5 21.6L223 7.1 269.5-3z"/><path fill="#b9c0c2" fill-opacity=".9" d="M209.1 121l-8.9-28-31.9 11 45 20.5z"/><path fill="#efe5e3" fill-opacity=".5" d="M162 54l77-18-77-40z"/><path fill="#dcd4c4" fill-opacity=".8" d="M213 125l58 9v20z"/><path fill="#272524" fill-opacity=".5" d="M26 150l61-20-21-62z"/><path fill="#20252b" fill-opacity=".5" d="M69 47L53 28l8 38z"/><path fill="#0a0602" fill-opacity=".6" d="M15.2 56.3l-1.7 45.1 11.2-27-5.1-25.5z"/><path fill="#be9179" d="M119.9 44.1l-4.1 8.1-7.6-8.2 7.9-24.7z"/><path fill="#4a4f54" fill-opacity=".7" d="M41 98.8L35.8-2.3l8.6 88.5-.3 10.9z"/><ellipse cx="246" cy="41" fill="#53555d" fill-opacity=".4" rx="36" ry="3"/><ellipse cx="82" cy="167" fill="#fff" fill-opacity=".4" rx="14" ry="36"/><path fill="#787679" fill-opacity=".8" d="M84.8 88.4l-3.6-7.6 9.4-48.5 11.1 7z"/><path fill="#fff5f4" fill-opacity=".5" d="M166.7 23.3l-.8-7L277.3 4.8l.8 7z"/><path fill="#224255" fill-opacity=".6" d="M271 101l-77-54 34 1z"/><path fill="#66727f" fill-opacity=".6" d="M9.5 59l-22.1-6.3 9-31.7 22.2 6.3z"/><path fill="#aeada2" fill-opacity=".6" d="M138 75.1l3.2-11.1 32.3 22.5-5.8 3z"/><ellipse cx="85" cy="109" fill="#6a6b6f" fill-opacity=".6" rx="9" ry="23"/><path fill="#f2f5f2" fill-opacity=".9" d="M197.4 74.9l-29.5-4.4 1.4 24.6 14.9 15.1z"/><path fill="#6e8085" fill-opacity=".4" d="M259 15h-43l-5 15z"/><path fill-opacity=".5" d="M94 54h38v56H94z"/><path fill="#e2eef5" fill-opacity=".6" d="M51.1-16l-8.7 48.8 35.9-20.3-8.1 43.2z"/><ellipse cx="141" cy="119" fill="#958b7f" fill-opacity=".4" rx="3" ry="52"/><path fill="#918a8c" fill-opacity=".7" d="M136.5 17.6L120.2 34l6.2 18 18.4-28z"/><path fill="#320f00" fill-opacity=".4" d="M109 23h14v8h-14z"/><path fill="#6a6056" fill-opacity=".5" d="M139.4 135.2l46.6 15 .9-19.5-36.2 2.4z"/><ellipse cx="156" cy="108" fill="#d7cfbf" fill-opacity=".5" rx="3" ry="9"/><path fill="#f1eeeb" fill-opacity=".5" d="M44 68h6v15h-6z"/><path fill-opacity=".5" d="M97 125l-2-23 15 11z"/><path fill="#8c97a2" fill-opacity=".6" d="M93 103l-6-39H72z"/><path fill="#161311" fill-opacity=".5" d="M153.8 119l-7.1-42.3-4.6 57.7L200 121z"/><path fill="#ecf6f8" fill-opacity=".5" d="M165 52l-13-8 12 23z"/><path fill="#25272a" fill-opacity=".8" d="M131.4 54.3l23.8 16.5-3.8-23.2-19-4.6z"/><path fill-opacity=".4" d="M13.6 91l4-.6 4.8 34.7-4 .5z"/><path fill="#172d32" fill-opacity=".2" d="M163.3 42.5l-14.2 25.7 19.6-19.4 45.2-8z"/><path fill="#b4b4b6" fill-opacity=".6" d="M27 76h13v13H27z"/><path fill="#483731" fill-opacity=".6" d="M105.6 47.4L37.7 67.1l53.2-3.6-7.5-10.6z"/><path fill="#ffebeb" fill-opacity=".4" d="M147 29h107v10H147z"/><path fill="#11222b" fill-opacity=".5" d="M261.7 77.9l-13.7-27-12.5 31.7-70.6-15.2z"/></g></svg>