<svg xmlns="http://www.w3.org/2000/svg" viewBox="0 0 300 199"><defs/><path fill="#5a3727" d="M0 0h300v199H0z"/><g transform="translate(.6 .6) scale(1.17188)"><circle cx="116" cy="112" r="184" fill="#00000f" fill-opacity=".6"/><ellipse cx="178" cy="83" fill="#fec5ca" fill-opacity=".6" rx="17" ry="33"/><circle r="1" fill="#3b6191" fill-opacity=".6" transform="matrix(14.9894 36.1363 -16.26032 6.7448 101.7 1.5)"/><ellipse cx="168" cy="75" fill="#a87b6e" fill-opacity=".3" rx="31" ry="37"/><circle r="1" fill="#000006" fill-opacity=".6" transform="matrix(-26.97109 207.06024 -34.52879 -4.49762 33 99)"/><path fill-opacity=".5" d="M180 52l81-68-9 198z"/><ellipse cx="184" cy="90" fill="#f4caff" fill-opacity=".3" rx="17" ry="22"/><circle r="1" fill="#b2381c" fill-opacity=".5" transform="matrix(6.33335 .7429 -5.26252 44.86417 70.3 152.4)"/><circle r="1" fill-opacity=".5" transform="rotate(150.7 69.2 46.7) scale(6.84056 27.31282)"/><circle r="1" fill="#3f0005" fill-opacity=".5" transform="rotate(177.3 93.6 79.2) scale(36.81394 43.64999)"/><path fill="#6f4535" d="M135.4 89.3l47 35.2-23.9-30.2-47.7-31.4z"/><circle r="1" fill="#0f0003" fill-opacity=".6" transform="matrix(-32.75386 25.03729 -18.94125 -24.77901 135 141)"/><circle r="1" fill="#010717" fill-opacity=".6" transform="rotate(-4.7 228.8 -2141.6) scale(57.2062 22.14561)"/><path fill="#8d6e5c" fill-opacity=".6" d="M156.6 50.3l20.8-9.8 8 17.2-20.8 9.8z"/><path fill="#617a97" fill-opacity=".5" d="M7.4 37.3L-6.7 24.6l5.3-6 14.1 12.8z"/><path fill="#361102" fill-opacity=".5" d="M152 92l25-21h-42z"/><path fill="#502f1c" fill-opacity=".8" d="M59.5 121.9l-13.9-18.4 36.2 11.2-2.4 15.5z"/><circle r="1" fill="#000002" fill-opacity=".5" transform="rotate(24.5 -137.4 266.4) scale(61.1562 8.24603)"/><circle r="1" fill="#010005" fill-opacity=".6" transform="matrix(-42.97702 -65.7235 18.27011 -11.94694 244.6 140)"/><path fill="#bd9375" fill-opacity=".5" d="M21 68l8 12-5-19z"/><path fill="#083265" fill-opacity=".4" d="M116-2l35-8-41 66z"/><path fill="#9a8d97" fill-opacity=".5" d="M100 10l12 12-5-31z"/><path fill="#5d1425" fill-opacity=".5" d="M156 156.5l54.7-5.8 3.3 30.8-54.7 5.8z"/><path fill="#6a4621" fill-opacity=".5" d="M100.4 116.9l13.8-.2 7.9-19.9L92.3 109z"/><path fill="#624a39" fill-opacity=".4" d="M179 59l-17-26 54 12z"/><path fill="#070208" fill-opacity=".8" d="M151.4 48.2l3.2 19.8 15.9-62.3-48.2 33.7z"/><path fill="#9b7c5c" fill-opacity=".6" d="M147 51l11 30-13-17z"/><path fill="#826579" fill-opacity=".9" d="M201 101l-27.4 14.5 16-8.2 3.1-35.1z"/><ellipse cx="176" cy="87" fill="#f1cfca" fill-opacity=".2" rx="11" ry="26"/><path fill="#040208" fill-opacity=".6" d="M145 83l-24-18 9-55z"/><circle cx="47" cy="38" r="9" fill="#44332a" fill-opacity=".5"/><path fill="#240207" fill-opacity=".7" d="M92.6 85.2l11 99.8H74.1l9.4-100.1z"/><circle r="1" fill="#3b0d01" fill-opacity=".4" transform="matrix(-25.67458 38.34833 -8.72218 -5.83958 252.7 68.7)"/><path fill="#715c3c" fill-opacity=".5" d="M80 86L56 76l12-2z"/><circle r="1" fill="#010009" fill-opacity=".6" transform="rotate(9.4 -24.1 142.1) scale(21.17144 30.98138)"/><path fill="#b95957" fill-opacity=".3" d="M198 110.2l-7 5.8-22 2.1-14.2-13.9z"/><path fill="#070208" fill-opacity=".7" d="M188.3 132.9L239.2-16 271 5.6l-52.9 108.8z"/><path fill="#0a040a" fill-opacity=".6" d="M242.5 64l-55.9 5.7 17.7-41-8.7 61.2z"/><path fill="#0f0809" fill-opacity=".5" d="M69 32h41v73H69z"/><path fill="#786855" fill-opacity=".6" d="M113 69l9-4-4-11z"/><path fill="#692218" fill-opacity=".6" d="M91.8 145.3l-29.3 12.6 2.5-17.7 31.2 23.3z"/><path fill="#130000" fill-opacity=".2" d="M178.8 78.2l53.1-33.8-64.6 38.1-21.8-30.3z"/><path fill="#467caa" fill-opacity=".3" d="M88.3 17.8L70.2-6.3l22.1 16L86.5-16z"/><path fill="#0c0000" fill-opacity=".4" d="M194 100l-2 8-4-3z"/><circle r="1" fill="#9c9495" fill-opacity=".6" transform="matrix(1.63837 4.0147 -2.75809 1.12555 99.6 26.5)"/><path fill="#9a8060" fill-opacity=".6" d="M139.7 83.9l-15.2-10.8-4.1.3 23.1 19.4z"/><path fill="#e2cabd" fill-opacity=".4" d="M170 71.4l14.7-4.8-14.7-6.2-7 6.8z"/><circle r="1" fill="#030009" fill-opacity=".5" transform="matrix(23.72827 -19.49031 35.93945 43.7541 20.5 123.7)"/><path fill="#b47ba6" fill-opacity=".5" d="M179 89l18-20-8 40z"/><circle cx="110" cy="169" r="6" fill="#8c2c25" fill-opacity=".5"/><path fill="#73503c" fill-opacity=".7" d="M21.3 66l-4.2-8 3.6-2 4.2 8z"/><ellipse cx="177" cy="131" fill="#1c0003" fill-opacity=".6" rx="14" ry="17"/><path fill="#1d3e6d" fill-opacity=".5" d="M127.8 34.3l-13.7 15.8-9.5-31.8 12.9-.7z"/><circle r="1" fill="#7c8fa0" fill-opacity=".5" transform="matrix(-2.1409 -3.56333 6.11295 -3.67274 195.4 95.8)"/><circle r="1" fill="#cca290" fill-opacity=".5" transform="matrix(-7.07908 12.3793 -6.08317 -3.47865 170 86.9)"/><path fill="#0b050a" fill-opacity=".7" d="M135.8 56.2l-27.5 24.5L159.8 7l50.9.4z"/><path fill="#0a080e" fill-opacity=".5" d="M121.4 8.4l38.7 66.7 12.1 1.3-54.2-56z"/><path fill="#282e44" fill-opacity=".6" d="M135 12h21v8h-21z"/><path fill="#161015" d="M109.8 35.3L59.6 20.9 88-3.6 60.7 50.7z"/><path fill="#948072" fill-opacity=".6" d="M144.8 58l-1.8-1 4.2-9 1.8.8z"/><path fill="#685336" fill-opacity=".6" d="M64.7 76.7l2.3-2 12.3 14.6-2.3 2z"/><path fill="#7a402e" fill-opacity=".6" d="M163.3 98.3l10.8 4.2-26.1 1.1-2.9-21.7z"/><path fill="#985945" fill-opacity=".4" d="M153 77.1l33.3-6-20.4 12 .8-1.7z"/><path fill="#050307" fill-opacity=".8" d="M87.9 83.2l20 83.1 1.5-34.5-24.3-18.2z"/><path fill="#28100d" fill-opacity=".7" d="M136.1 61.8l-11.9-16.1 36.4 41.5-1.9 9.6z"/></g></svg>