<svg xmlns="http://www.w3.org/2000/svg" viewBox="0 0 300 199"><defs/><path fill="#4b5639" d="M0 0h300v199H0z"/><g transform="translate(.6 .6) scale(1.17188)"><circle r="1" fill="#e9b5a8" fill-opacity=".6" transform="rotate(-10.1 550.4 -602.2) scale(29.30226 131.20099)"/><ellipse cx="33" cy="123" fill="#2e150c" fill-opacity=".5" rx="48" ry="166"/><circle r="1" fill="#9acaca" fill-opacity=".5" transform="matrix(14.53946 -2.27682 6.13435 39.17315 185.4 98.8)"/><circle r="1" fill="#4c000a" fill-opacity=".8" transform="rotate(-66.2 229.8 -69) scale(28.31039 52.96776)"/><path fill="#0a0000" fill-opacity=".5" d="M140 0h26v119h-26z"/><path fill="#56513d" fill-opacity=".7" d="M10 95h105v37H10z"/><circle r="1" fill="#ffe1d6" fill-opacity=".3" transform="matrix(-1.41278 18.24628 -35.19535 -2.72512 94.5 70.7)"/><circle r="1" fill="#2a0702" fill-opacity=".5" transform="rotate(138.8 122.2 62) scale(37.56141 183.52648)"/><circle r="1" fill="#c65a16" fill-opacity=".3" transform="matrix(-16.36978 2.08194 -8.98582 -70.65335 227.3 95.5)"/><circle r="1" fill="#e1c1ac" fill-opacity=".5" transform="rotate(129.2 24.4 104.9) scale(43.49824 25.16808)"/><circle r="1" fill="#160000" fill-opacity=".6" transform="matrix(-29.73034 27.13646 -7.72118 -8.45923 73.2 148.2)"/><circle r="1" fill="#211606" fill-opacity=".6" transform="matrix(20.6287 22.99106 -85.27196 76.51015 24.6 22.8)"/><path fill="#010000" fill-opacity=".5" d="M98 43h24v10H98z"/><path fill="#3a2c25" fill-opacity=".8" d="M124.5 123.4l2.4-20.3 44.8 30.7-7.2-33.3z"/><path fill="#d9b49a" fill-opacity=".5" d="M66 15h67v21H66z"/><path fill="#100602" fill-opacity=".6" d="M160.5-14.3l-22.1 27.9L54.1-16 73.3 8.5z"/><path fill="#bf8462" fill-opacity=".5" d="M129 13l1 68 22 1z"/><path fill="#5e8265" fill-opacity=".5" d="M179.8 74.4L148-16l46.7 58.6 6.1 50.6z"/><path fill="#85a49d" fill-opacity=".6" d="M163.4 112.4l24.4-35.1 15.2 62.9 6.8 6.5z"/><ellipse cx="255" cy="44" fill="#00214b" fill-opacity=".4" rx="14" ry="138"/><path fill="#e5c9b8" fill-opacity=".4" d="M103 55h28v46h-28z"/><circle r="1" fill="#4c643f" fill-opacity=".5" transform="matrix(25.51577 -1.74219 2.8301 41.44925 43.8 114.4)"/><path fill="#4b050d" fill-opacity=".6" d="M147 171l57-2-44-55z"/><circle r="1" fill="#e7e0d0" fill-opacity=".5" transform="matrix(-5.80618 -9.09972 13.45795 -8.587 139.1 131.2)"/><path fill="#874d4b" fill-opacity=".4" d="M70 22l43 100-35-5z"/><circle r="1" fill="#080704" fill-opacity=".5" transform="matrix(7.82868 -3.77296 20.6765 42.9026 151 28.4)"/><path fill="#201808" d="M19.3-16L-16 6.8v147.5l41.5-93.4z"/><path fill="#26200e" fill-opacity=".5" d="M199 0h11v111h-11z"/><path fill="#180003" fill-opacity=".4" d="M0 157h90v13H0z"/><path fill="#fff4e0" fill-opacity=".5" d="M145 107l1 7-13-15z"/><path fill="#ccb5a5" fill-opacity=".5" d="M82 107h16v11H82z"/><path fill="#060200" fill-opacity=".6" d="M142.5 83.5l24.9 2.1-1.9 21-24.9-2.2z"/><path fill="#524543" fill-opacity=".6" d="M96 33h26v5H96z"/><path fill="#211611" fill-opacity=".6" d="M94 101h22v7H94z"/><path fill="#d3beab" fill-opacity=".5" d="M118 93L86 19l-3 46z"/><circle r="1" fill="#753725" fill-opacity=".3" transform="matrix(-7.2348 3.925 -7.1304 -13.14319 94.8 150.8)"/><path fill="#4e1113" fill-opacity=".7" d="M186.5 153.2l-29.8 25.2L152 135l37.4-4.3z"/><path fill="#73453f" fill-opacity=".7" d="M69.4 110.7l32.9-13.2L77 82.2l32.1 10.4z"/><path fill="#80877b" fill-opacity=".9" d="M190.6 128.1l-9.5 5.8-18.1-10.3-41.9-6z"/><ellipse cx="77" cy="21" fill="#af8971" fill-opacity=".5" rx="8" ry="17"/><circle r="1" fill="#6b3f19" fill-opacity=".5" transform="matrix(14.02565 -3.62375 8.88357 34.38368 223 33)"/><path fill="#a4775f" fill-opacity=".5" d="M104 147l35-33-18 4z"/><path fill="#050000" fill-opacity=".6" d="M70 136l11.5-17.5 8.4 5.4-11.4 17.6z"/><ellipse cx="39" fill="#a78b55" fill-opacity=".1" rx="12" ry="100"/><path fill="#361109" fill-opacity=".5" d="M118.1 111l-19 24.4-3.2-2.4 19-24.4z"/><path fill="#5e493c" d="M76.6 41.7l6.6 4-3 15.9-16-22.1z"/><path fill="#311812" fill-opacity=".4" d="M216.2 140.7L209.8 73l-6.9 74.5L271 185z"/><path fill-opacity=".5" d="M148.4 115.8l-.7 1.8-22.1-9.4.7-1.8z"/><path fill="#ded3c3" fill-opacity=".5" d="M134.6 114.5l-29.7 45.9 47.3-42.6-1.6 11.3z"/><ellipse cx="219" cy="96" fill="#956e3b" fill-opacity=".5" rx="7" ry="51"/><circle r="1" fill="#896048" fill-opacity=".5" transform="rotate(-101.5 63.4 8.3) scale(17.14365 9.97829)"/><path fill="#ac8466" fill-opacity=".7" d="M133.1 64.8l2.5-28.9 8.4 44.7-26.5 8.2z"/><path fill="#4c3024" fill-opacity=".4" d="M132.4 71.7l45.1 8.3-6.2 16.9-26.5-58.4z"/><path fill="#4b664e" fill-opacity=".7" d="M79.3 122l-19.2-14.7-9.5 30.2 16.1 2.5z"/><path fill="#dcbab3" fill-opacity=".4" d="M103 146l17-46 6 14z"/><path fill="#201b11" fill-opacity=".9" d="M52 59.3l1.5-49.4L59 43.7l21.6 6.6z"/><path fill="#0e537f" fill-opacity=".4" d="M249 109h7v61h-7z"/><path fill="#d1bdae" fill-opacity=".5" d="M131 42L81 81l39 11z"/><path fill="#502f1d" fill-opacity=".4" d="M100 76l-26-9v8z"/><path fill="#658573" fill-opacity=".4" d="M180.9 49.9l12.8 3.6 11.3 53.2-39.5-31.2z"/><ellipse cx="255" cy="10" fill="#17201e" fill-opacity=".7" rx="18" ry="56"/><path fill="#b49d8a" fill-opacity=".7" d="M60 185l93.3-35.8-10.1 35.8-5.2-16z"/><path fill="#1c1b12" fill-opacity=".8" d="M144.1-16l-30.5 8.1 17.8 24.5 37.2 26.3z"/><path fill="#d0fcf4" fill-opacity=".5" d="M82 91h9v3h-9z"/><path fill="#2c2f25" d="M168.5 88.2l-21.1 29.9 34.2 7.3-17.5-11.8z"/></g></svg>