<svg xmlns="http://www.w3.org/2000/svg" viewBox="0 0 300 199"><defs/><path fill="#89623e" d="M0 0h300v199H0z"/><g transform="translate(.6 .6) scale(1.17188)"><ellipse cx="193" cy="58" fill="#ecebe6" fill-opacity=".6" rx="64" ry="169"/><circle r="1" fill="#b6c3ce" fill-opacity=".8" transform="matrix(186.94142 -87.03097 14.2382 30.58348 80.8 3.1)"/><circle r="1" fill="#bac1c5" fill-opacity=".7" transform="matrix(39.45955 7.97835 -6.14168 30.3757 119.3 157.5)"/><path fill="#370600" fill-opacity=".6" d="M42 30h29v115H42z"/><ellipse cx="6" cy="157" fill="#c2dce2" fill-opacity=".6" rx="13" ry="57"/><circle r="1" fill="#22180c" fill-opacity=".7" transform="matrix(4.72067 9.8971 -11.4561 5.46428 246.1 41.7)"/><path fill="#f8ffff" fill-opacity=".6" d="M14 35h21v47H14z"/><circle r="1" fill="#9d8264" fill-opacity=".7" transform="matrix(-29.68558 42.3954 -29.695 -20.79267 231.2 135.6)"/><ellipse cx="127" cy="80" fill-opacity=".6" rx="7" ry="53"/><circle r="1" fill="#f7e6d0" fill-opacity=".5" transform="matrix(-75.30606 100.25792 -18.25205 -13.70954 217.1 25.8)"/><path fill="#bbc1c3" fill-opacity=".9" d="M18 0h135v27H18z"/><path fill="#878269" fill-opacity=".6" d="M70 30l10 141 39-142z"/><path fill="#5d6a6b" fill-opacity=".7" d="M-18.7 34.4l18-6.2 33.4 97.4-18 6.2z"/><path fill="#789091" fill-opacity=".5" d="M46 98l-62 13 52-52z"/><ellipse cx="161" cy="83" fill="#c3bfbd" fill-opacity=".7" rx="22" ry="112"/><circle r="1" fill="#0f0009" fill-opacity=".4" transform="matrix(12.7838 5.98837 -11.04175 23.5716 56.3 56)"/><circle cx="106" cy="95" r="13" fill="#391a19" fill-opacity=".5"/><ellipse cx="134" cy="76" fill="#a4794f" fill-opacity=".8" rx="4" ry="52"/><ellipse cx="252" cy="9" fill="#e8ece9" fill-opacity=".7" rx="25" ry="21"/><path fill="#bbc4c8" fill-opacity=".9" d="M23 34l5-50 72 42z"/><circle r="1" fill="#000008" fill-opacity=".5" transform="matrix(1.04071 23.83624 -3.13072 .13669 122.6 51)"/><path fill="#ac8558" fill-opacity=".6" d="M58 157l-14-39-35 48z"/><circle r="1" fill="#ac5921" fill-opacity=".5" transform="matrix(7.53835 -1.14834 7.07498 46.44404 71.4 119.2)"/><circle cx="23" cy="48" r="17" fill="#ebecec" fill-opacity=".7"/><ellipse cx="5" cy="63" fill="#002140" fill-opacity=".4" rx="3" ry="39"/><path fill="#5e5346" fill-opacity=".6" d="M23 151l-6-56h40z"/><circle r="1" fill="#dfb688" fill-opacity=".5" transform="matrix(-23.5976 41.0375 -14.82359 -8.52394 208.3 9.1)"/><ellipse cx="151" cy="153" fill="#b1b0b0" fill-opacity=".5" rx="50" ry="29"/><circle r="1" fill="#a9b3b2" fill-opacity=".6" transform="matrix(-.02893 32.97982 -2.83327 -.00249 88.2 125.5)"/><path fill="#d3cbc0" fill-opacity=".5" d="M244 18h4v30h-4z"/><ellipse cx="230" cy="79" fill="#e9b486" fill-opacity=".3" rx="28" ry="32"/><path fill="#756354" fill-opacity=".5" d="M92 101h31v30H92z"/><path fill="#682707" fill-opacity=".5" d="M71 167l8-18-39-27z"/><path fill="#dadcd0" fill-opacity=".5" d="M-6 184L17 84l-33 62z"/><ellipse cx="125" cy="78" fill="#020103" fill-opacity=".6" rx="4" ry="54"/><path fill="#827b5c" fill-opacity=".6" d="M70 30h49v32H70z"/><ellipse cx="239" cy="40" fill-opacity=".5" rx="4" ry="9"/><path fill="#908670" fill-opacity=".7" d="M2.8 126.9l30-18.9L22 142.3l3.3 42.7z"/><circle r="1" fill="#d6e2e9" fill-opacity=".5" transform="matrix(-3.37744 2.32125 -10.29064 -14.97298 28 78.3)"/><ellipse cy="8" fill="#8c999b" fill-opacity=".9" rx="12" ry="29"/><ellipse cx="119" cy="72" fill="#4db7ff" fill-opacity=".3" rx="2" ry="35"/><path fill="#1c0000" fill-opacity=".5" d="M114 64h5v31h-5z"/><path fill="#88434e" fill-opacity=".5" d="M40 36h19v22H40z"/><path fill="#000300" fill-opacity=".5" d="M33.3 59.2L60.4 66l-1.7 6.8L31.6 66z"/><circle r="1" fill="#937855" fill-opacity=".5" transform="matrix(21.36234 8.73806 -11.39764 27.86435 237.5 151.8)"/><circle r="1" fill="#d8dddd" fill-opacity=".5" transform="matrix(10.91634 -1.61406 1.37375 9.29104 4.5 148)"/><ellipse cx="225" cy="34" fill="#fffbc6" fill-opacity=".3" rx="10" ry="33"/><circle r="1" fill="#443b2d" fill-opacity=".6" transform="matrix(5.74011 -23.0859 2.37344 .59014 21.5 104.5)"/><path fill="#000010" fill-opacity=".5" d="M119 26h5v30h-5z"/><path fill="#b0b1b0" fill-opacity=".5" d="M79 129h58v15H79z"/><path fill="#1d0002" fill-opacity=".6" d="M65.8 33.6l-7.3-2.3 13.4 64.4L74 80.5z"/><path fill="#0e0000" fill-opacity=".5" d="M249 35h7v18h-7z"/><path fill="#acaeb7" fill-opacity=".5" d="M99 84l-5-27 14 28z"/><path fill="#8f6b49" fill-opacity=".8" d="M129.8 84.6L128.4 26l6.9 6.2 2.4-19.2z"/><path fill="#221410" fill-opacity=".6" d="M96.6 79.3l10.3 13.1-3.8 6.8-9.7-19.8z"/><ellipse cx="7" cy="86" fill="#00000f" fill-opacity=".5" rx="2" ry="16"/><ellipse cx="195" cy="152" fill="#a0978a" fill-opacity=".5" rx="14" ry="47"/><circle r="1" fill="#b4937a" fill-opacity=".4" transform="matrix(-39.00084 16.51484 -10.22561 -24.14843 235 103.6)"/><path fill="#c1976a" fill-opacity=".6" d="M35 138.9l-8.6 29.9 5.8-9.4 26.1 4.8z"/><path fill-opacity=".4" d="M112 58l5 6-21-5z"/><path fill="#c8dfe5" fill-opacity=".5" d="M6 36h7v26H6z"/><circle r="1" fill="#bfb1a2" fill-opacity=".5" transform="matrix(-11.57999 15.90281 -46.71012 -34.01303 153.8 8.8)"/><ellipse cx="21" cy="65" fill="#e8e9e9" fill-opacity=".8" rx="8" ry="10"/><path fill="#541902" fill-opacity=".4" d="M37 159l-23 26h93z"/><path fill="#839090" fill-opacity=".6" d="M-6 60.5l9-.8 3 33.8-9 .8z"/></g></svg>