<svg xmlns="http://www.w3.org/2000/svg" viewBox="0 0 300 199"><defs/><path fill="#65543d" d="M0 0h300v199H0z"/><g transform="translate(.6 .6) scale(1.17188)"><circle r="1" fill="#eef9fe" fill-opacity=".4" transform="matrix(12.6572 -68.10567 156.05442 29.00218 78 30.9)"/><circle r="1" fill="#03060b" fill-opacity=".8" transform="matrix(4.51096 -40.73408 110.61554 12.24975 163.6 153.6)"/><circle cx="71" cy="103" r="33" fill="#001534" fill-opacity=".5"/><ellipse cx="22" cy="29" fill="#efedeb" fill-opacity=".6" rx="49" ry="23"/><circle r="1" fill="#e6f6ff" fill-opacity=".5" transform="rotate(148.7 53.4 57.2) scale(12.60183 52.09329)"/><circle r="1" fill="#8c7f60" fill-opacity=".8" transform="rotate(67.2 72.3 158.4) scale(76.56702 49.46157)"/><circle r="1" fill="#abc3c3" fill-opacity=".4" transform="matrix(28.2204 -9.65799 4.86665 14.22022 36.9 143.7)"/><path fill="#040100" fill-opacity=".7" d="M-2 132l-13-40 73 34z"/><circle r="1" fill="#ffe" fill-opacity=".6" transform="matrix(-101.83823 24.8378 -1.06548 -4.3686 232.3 0)"/><circle r="1" fill="#3d332e" fill-opacity=".9" transform="matrix(-24.25032 41.60858 -21.57415 -12.57385 241.1 122.8)"/><circle r="1" fill="#00001a" fill-opacity=".5" transform="matrix(4.18168 -18.35123 5.76838 1.31444 97.7 70.2)"/><path fill="#fff" fill-opacity=".4" d="M27 119l22-57-29 8z"/><circle r="1" fill="#2d1f0e" fill-opacity=".4" transform="rotate(-101 113.3 -77.8) scale(7.86978 103.67589)"/><path fill="#e1e9fa" fill-opacity=".6" d="M123.3 109L95 92l25.7-43L149 66z"/><path fill-opacity=".7" d="M90 105h47v65H90z"/><path fill="#c3d4ea" fill-opacity=".6" d="M164 96h14v18h-14z"/><path fill="#fdfee8" fill-opacity=".6" d="M87.2-16l72.7 37.5-2.1 1.7-14.9 2.4z"/><path fill="#f0f1e8" fill-opacity=".4" d="M230 185l-18.4-34.7-1.8-22.1 15.6 34.1z"/><path fill="#99a5ae" fill-opacity=".4" d="M161 137l-9-70-13 62z"/><path fill="#877b63" fill-opacity=".7" d="M66.5 111.3L53 114.7l-7.5-30L59 81.3z"/><path fill="#08090a" d="M52.5 184.6l-47.2.4 68.2-10.6-4.9-71.2z"/><path fill-opacity=".7" d="M116 160l100-56-23 81z"/><path fill="#c0b7a1" fill-opacity=".5" d="M218 96h13v19h-13z"/><path fill="#806630" fill-opacity=".6" d="M18.9 52.7l-5 31.6-18.8-3 5-31.6z"/><path fill="#05090c" fill-opacity=".7" d="M223.2 185l-67.9-78.3 1.9-26.8 4.2 27.8z"/><path fill="#00071a" fill-opacity=".6" d="M181.5 96l-16.8-25.7 20.6 52.8 4.8-18.8z"/><ellipse cx="74" cy="62" fill="#937d67" fill-opacity=".7" rx="19" ry="23"/><ellipse cx="81" cy="100" fill="#25486e" fill-opacity=".8" rx="14" ry="19"/><circle r="1" fill="#7a8280" fill-opacity=".5" transform="matrix(-7.67177 -19.95121 36.23563 -13.93356 24.4 152.8)"/><path fill="#f5edf2" fill-opacity=".4" d="M14 0h30v36H14z"/><path fill="#00000a" fill-opacity=".3" d="M139.1 94.9l-94 80.1 50.6-80.6 54.5 28.3z"/><path fill="#dfcad5" fill-opacity=".4" d="M93.3 9.4l18.4 26.3 29-3.3-32.2 58.2z"/><path fill="#0a1114" fill-opacity=".6" d="M229.1 121l21.7 10.1-13.9 30-21.7-10.2z"/><path fill="#1d0702" fill-opacity=".9" d="M271 114V65.7l-55 76.5 17.8-27.3z"/><path fill="#813019" fill-opacity=".3" d="M115.9 42.7l19.5-10.3 10.9 39.8 48.1 4.2z"/><path fill="#dddfdd" fill-opacity=".5" d="M210 126h5v18h-5z"/><path fill="#fbffff" fill-opacity=".5" d="M23.2 56.9l30 34-7.6-15.1-17.5 10.3z"/><path fill="#b1b7be" fill-opacity=".4" d="M174.6 100.5l29.9-5.5-9.4 19.3-11-47.1z"/><path fill="#00061c" fill-opacity=".5" d="M90 100l6-56 7 26z"/><circle r="1" fill="#cad2cd" fill-opacity=".5" transform="matrix(31.66837 -9.02097 1.79297 6.29426 76.4 35.1)"/><path fill-opacity=".5" d="M0 114h76v11H0z"/><path fill="#524b46" fill-opacity=".5" d="M-16 12l34 9-16 6z"/><circle r="1" fill="#746c5f" fill-opacity=".6" transform="matrix(7.4166 2.07075 -3.48845 12.49421 30.4 107)"/><path fill="#d7e3f3" fill-opacity=".6" d="M156.4 75.8l5.3-2.8 16 31.2-5.4 2.8z"/><path fill="#6e7258" fill-opacity=".4" d="M68 162l29 17-21-33z"/><path fill="#384550" fill-opacity=".5" d="M107.9 26.8l30.5-5.4 1.7 9.8-30.5 5.4z"/><path fill="#ada274" fill-opacity=".5" d="M149 28l72 22-64 18z"/><circle r="1" fill="#887952" fill-opacity=".6" transform="matrix(-46.35144 34.30752 -12.5873 -17.00617 244.5 48.6)"/><path fill="#2d1d03" fill-opacity=".7" d="M200.8 99.4l8.2-3.6 10.2 22.8-8.2 3.6z"/><path fill="#b4afb2" fill-opacity=".6" d="M-16 3l60-17 32 34z"/><circle r="1" fill-opacity=".5" transform="matrix(12.8182 -29.66087 25.74926 11.12776 183.1 148)"/><circle r="1" fill="#4e4a4b" fill-opacity=".6" transform="rotate(57.2 25 86.9) scale(3.65989 13.12141)"/><path fill="#6a614a" fill-opacity=".6" d="M88.7 55.9l-33.6-2.2 44.7-18.2-6.7 9.4z"/><path fill="#84818a" fill-opacity=".5" d="M245 119l-2 14 28 8z"/><path fill="#081935" fill-opacity=".2" d="M167.1 89.3l-22-12.2-1.7 18.3-13.9 11.5z"/><path fill="#2e5070" fill-opacity=".9" d="M51.7 84.9l38.2 25.5-6.1 14.3-25.5-55.6z"/><path fill="#d1d8df" fill-opacity=".8" d="M107.8 32.6l29.7 35.8 4.6-20.8-38.2 37.2z"/><path fill="#fff" fill-opacity=".3" d="M153 117l-16-12 13-6z"/><path fill="#111315" fill-opacity=".8" d="M237.3 119.7l17.8 47.2-30.5-47.1 46.4 22z"/><path fill="#a69d7e" fill-opacity=".6" d="M37 54h59v14H37z"/><path fill="#120200" fill-opacity=".3" d="M83.4 84.8l31 22.1 8-22.1-18.3 26.9z"/><path fill="#ada1a0" fill-opacity=".6" d="M227.9 136.3l7.6 4 7.2-4-12.9 7.2z"/><path fill="#c7aa71" fill-opacity=".4" d="M20.3 64.3L24.5 91 7.7 93.7 3.5 67z"/><circle r="1" fill="#fffffb" fill-opacity=".4" transform="rotate(-11.3 169 -841.5) scale(27.91684 3.82164)"/><circle cx="248" cy="144" r="3" fill="#f2f7ff" fill-opacity=".5"/></g></svg>