<svg xmlns="http://www.w3.org/2000/svg" viewBox="0 0 300 199"><defs/><path fill="#552e2c" d="M0 0h300v199H0z"/><g transform="translate(.6 .6) scale(1.17188)"><path fill="#c5dad1" fill-opacity=".4" d="M268 170L-16 10 87 178z"/><circle cx="66" r="116" fill="#7c606d" fill-opacity=".6"/><path fill="#0d0f19" fill-opacity=".8" d="M29 146h85v24H29z"/><circle r="1" fill="#f6e8da" fill-opacity=".4" transform="matrix(-3.0738 -108.45055 7.1983 -.20402 21 96)"/><circle r="1" fill="#e2e9f1" fill-opacity=".6" transform="matrix(14.72737 -.8048 1.52016 27.81783 68.3 114.6)"/><circle r="1" fill="#ececef" fill-opacity=".4" transform="rotate(93 -6 133.9) scale(62.35318 10.50841)"/><ellipse cx="75" cy="1" fill="#e42d7e" fill-opacity=".5" rx="84" ry="22"/><ellipse cx="48" cy="68" fill="#29281f" fill-opacity=".6" rx="22" ry="26"/><path fill="#80bfdd" fill-opacity=".4" d="M271 42.4l-52.1-25.2.6-19.1L271-.1z"/><path fill="#d7f0ea" fill-opacity=".5" d="M176 19h7v66h-7z"/><ellipse cx="215" cy="155" fill="#c8c4bb" fill-opacity=".6" rx="69" ry="7"/><ellipse cx="145" cy="45" fill="#002619" fill-opacity=".4" rx="30" ry="35"/><ellipse cx="207" cy="55" fill="#1b1b1d" fill-opacity=".8" rx="14" ry="89"/><circle cx="180" cy="107" r="33" fill="#4d3731" fill-opacity=".6"/><ellipse cx="41" cy="133" fill="#000914" fill-opacity=".6" rx="12" ry="38"/><ellipse cx="93" cy="64" fill="#112218" fill-opacity=".4" rx="14" ry="32"/><path fill="#94a39a" fill-opacity=".5" d="M222 124l-13-24 59 27z"/><path fill="#27190f" fill-opacity=".8" d="M207.8 127.1l2.7 25.3 60.5-13.1-64-16.1z"/><ellipse cx="6" cy="143" fill="#585246" fill-opacity=".9" rx="12" ry="89"/><path fill="#c5b2a6" fill-opacity=".5" d="M105 90h38v23h-38z"/><path fill="#00070e" fill-opacity=".7" d="M249 35l22 25-43 34z"/><path fill="#b2afb6" fill-opacity=".7" d="M17.5 91.6l-1.5-2 33-44.1 23.1-21.4z"/><path fill="#f6ffff" fill-opacity=".4" d="M225 59h3v52h-3z"/><path fill="#ab9583" fill-opacity=".7" d="M104.9 42.7l5.4 53.8 5.1-76-59.3 80.6z"/><path fill="#0a1012" fill-opacity=".6" d="M55 18.9l32.9 30.7L79 59 46.1 28.4z"/><path fill="#a69f9d" fill-opacity=".5" d="M107 141.4l-26.2-11.8-25.6 27.9 27-7.9z"/><ellipse cx="101" cy="169" fill="#100c1a" fill-opacity=".7" rx="27" ry="5"/><path fill="#d1cfd2" fill-opacity=".6" d="M125.7 57.9l-1.6-1.3 52.2-64.5 1.6 1.3z"/><circle r="1" fill="#c9adb1" fill-opacity=".5" transform="matrix(65.89588 61.4489 -.91972 .98628 54.8 39)"/><path fill="#f4d8ed" fill-opacity=".4" d="M106.6 4.4l.7-.7 66.1 63.9-.7.7z"/><path fill="#0f0a00" fill-opacity=".5" d="M121.9 37.1l21.3-22.5-27.5 64.9-6-10.7z"/><path fill="#afaeb6" fill-opacity=".7" d="M63.8 74.8L30.4 36.4 16.8 99l-5.9-70.6z"/><path fill="#fffeef" fill-opacity=".5" d="M18.2 62l40.2 31.3-.6.8-40.2-31.4z"/><path fill="#b9b2b1" fill-opacity=".7" d="M23 28.8l-8.2 77.8 27.7-2.7L29.7 92z"/><ellipse cx="206" cy="8" fill="#99a9a2" fill-opacity=".5" rx="2" ry="52"/><circle r="1" fill="#dddbe8" fill-opacity=".5" transform="matrix(.72176 -.69214 22.08052 23.02535 163.2 37)"/><ellipse cx="233" cy="20" fill="#251915" fill-opacity=".8" rx="8" ry="7"/><path fill="#a47d8e" d="M128-16L68.7 52.7 23.9 11.9l46.6 44z"/><path fill="#daa890" fill-opacity=".4" d="M271 123.6l-17.3-47.7-2.5 26-2.3 34.1z"/><path fill="#8f5331" fill-opacity=".5" d="M125.5 127.9l-15 24.9-31-74.9 34.8 30z"/><path fill="#9e836c" fill-opacity=".9" d="M3.9 145.6l18.1 36 10.7-83.8-22.8 47.3z"/><circle r="1" fill="#b0958c" fill-opacity=".5" transform="matrix(-45.6351 -43.45772 .68962 -.72417 138.7 55.9)"/><path fill="#001a14" fill-opacity=".3" d="M178.8 49l-39.4 39.3 12.5 36 27.5-25.4z"/><circle r="1" fill="#755a42" fill-opacity=".6" transform="matrix(-15.99558 -14.18882 17.8095 -20.0773 171.4 127.5)"/><ellipse cx="200" cy="55" fill-opacity=".6" rx="6" ry="45"/><path fill="#b0a49d" fill-opacity=".5" d="M176.4 15.5l-50.6 62.3 1.4-10.4 10.3 2.6z"/><circle r="1" fill="#060000" fill-opacity=".5" transform="matrix(-2.33757 .60019 -4.53083 -17.64643 85.3 110.4)"/><path fill-opacity=".7" d="M12 74.4L2.2 85.9-9.9 75.6l9.6-11.5z"/><ellipse cx="208" cy="73" fill="#e1e9df" fill-opacity=".3" rx="2" ry="36"/><path fill="#a2999d" d="M66.3 26.9l50.6 48.7-46.2-49.1L22 82.2z"/><path fill="#bd866e" fill-opacity=".5" d="M232 23h8v42h-8z"/><path fill="#bcb3b5" fill-opacity=".6" d="M184.8 31.5L130 99.1l-.8-.6L184 30.9z"/><path fill="#1d1a23" fill-opacity=".8" d="M-16 18.9l14.3 11 10-14.1 3.6 23.3z"/><path fill="#dbc9c3" fill-opacity=".5" d="M181 62h3v51h-3z"/><path fill="#d3cac1" fill-opacity=".6" d="M114 138l6 27 40-28z"/><path fill="#001310" fill-opacity=".5" d="M152.3 46.2l14-41.4 16 10L192.5-16z"/><circle cx="30" cy="26" r="7" fill-opacity=".5"/><path fill-opacity=".3" d="M148 83.1l-15.4 5.7.4-36 89 90.3z"/><path fill="#040000" fill-opacity=".6" d="M48 55.7l7-9.7 17 12.3-7 9.7z"/><path fill="#b7b1ba" d="M17.3 25.6l8 11.2L-16 68l17.8-5.1z"/><path fill="#9f9fa6" fill-opacity=".7" d="M176.4 34.5l-5.7-48.2 13.9 49.9-36.2-37.6z"/><path fill="#000a0d" fill-opacity=".4" d="M69.6 23.6l9.2 13.9 24.1-16.1 3.1 10.4z"/><path fill-opacity=".4" d="M206-6.6l12-.6 6 115.8-12 .6z"/><path fill="#f8f8fd" fill-opacity=".5" d="M59 163l11 7-3 13z"/><path fill-opacity=".3" d="M68.3 91.1l-43-28.3 2.3-19.1 23.8 20.4z"/></g></svg>