<svg xmlns="http://www.w3.org/2000/svg" viewBox="0 0 300 199"><defs/><path fill="#433526" d="M0 0h300v199H0z"/><g transform="translate(.6 .6) scale(1.17188)"><path fill="#eee8e6" fill-opacity=".5" d="M19 178L262 6-16-10z"/><path fill="#fff" fill-opacity=".5" d="M215 80h16v38h-16z"/><ellipse cx="234" cy="150" fill="#000600" fill-opacity=".7" rx="85" ry="32"/><circle r="1" fill="#c3ddfc" fill-opacity=".5" transform="matrix(25.46145 -9.4877 15.51438 41.6348 91.9 15.8)"/><circle r="1" fill="#ffebff" fill-opacity=".6" transform="matrix(-15.52954 .41619 -.8481 -31.64605 26.3 121.8)"/><circle r="1" fill="#665a48" fill-opacity=".6" transform="rotate(-157.3 96.8 .9) scale(70.43653 20.53331)"/><circle r="1" fill="#453700" fill-opacity=".4" transform="matrix(10.60419 -55.6382 25.99019 4.95352 10.1 24.6)"/><path fill="#010404" fill-opacity=".8" d="M76.1 135.4l139.2-29.8-114 13.3-31.5 3.8z"/><ellipse cx="130" cy="96" fill="#cac0a2" fill-opacity=".5" rx="23" ry="19"/><circle cx="61" cy="35" r="10" fill="#200" fill-opacity=".6"/><circle cx="184" cy="103" r="30" fill="#0a0d10" fill-opacity=".7"/><ellipse cx="57" cy="124" fill="#e3a0c4" fill-opacity=".3" rx="17" ry="84"/><ellipse cx="218" fill="#46443d" fill-opacity=".7" rx="40" ry="14"/><path fill="#f4f6f3" fill-opacity=".5" d="M155 35h16v41h-16z"/><circle r="1" fill="#2a382b" fill-opacity=".7" transform="rotate(26.1 -348.7 151.6) scale(49.05555 8.0239)"/><ellipse cx="253" cy="93" fill="#00020c" fill-opacity=".8" rx="13" ry="39"/><path fill="#8f8a9d" fill-opacity=".7" d="M198.3 51.1l20.8-5.4.4-17.2 26.2 28z"/><path fill="#b1bac8" fill-opacity=".9" d="M39.2 41.7L38.8-16l85.3 74.4-64-34.2z"/><path fill="#796c52" fill-opacity=".9" d="M208.8 24.4l-10.6 47.5-59.4 6.6-2.9 35.8z"/><circle r="1" fill="#ffffdc" fill-opacity=".5" transform="matrix(-55.66596 -19.16733 1.06308 -3.08742 160.4 3.8)"/><path fill="#040000" fill-opacity=".6" d="M94 152h162v18H94z"/><path fill="#fae8f3" fill-opacity=".4" d="M44 82.6l-26.9 22.7 15.7-37.8 1-25.7z"/><path fill="#59403d" d="M235.3 117.7l3.2-64.4-19.8 1.7 10.1 42z"/><ellipse cx="130" cy="139" fill="#354b48" fill-opacity=".6" rx="57" ry="14"/><path fill="#272518" fill-opacity=".4" d="M119.2 15.1l.2-28-32.1 4.3 164.5 42.2z"/><path fill="#232617" fill-opacity=".5" d="M37.9-6L37 16l-55-2 .8-22z"/><path fill="#867659" fill-opacity=".7" d="M77.5 84.5h35v33h-35z"/><path fill="#200700" fill-opacity=".7" d="M64.2 28.7l-21.1 9.2 3.5 3.8 19.1-3.1z"/><path fill="#5e5941" fill-opacity=".7" d="M118.3-4.9l27.4 23.1-16.6-.9-5.5 55.8z"/><path fill="#291f14" fill-opacity=".4" d="M72 55h37v6H72z"/><path fill="#2c2e2c" fill-opacity=".6" d="M260 43l-36-20 47-18z"/><path fill="#d2cca5" fill-opacity=".5" d="M128 32h18v35h-18z"/><circle r="1" fill="#747557" fill-opacity=".5" transform="matrix(5.49626 -2.63337 12.2076 25.47924 70 96)"/><path fill="#e9eac1" fill-opacity=".5" d="M173.4 40.7l-.2-4.7 16.1-4.8 9.9 1.5z"/><path fill="#c3cdd9" fill-opacity=".5" d="M214 82h13v36h-13z"/><path fill="#888f8a" fill-opacity=".5" d="M4.3 138.6l21.4-71.4-40.8-.7 18.9 52.7z"/><path fill="#bebbad" fill-opacity=".7" d="M85 65.4l23.9 28.9 1.2-31.6-48.8 21.7z"/><path fill="#364744" fill-opacity=".7" d="M61 149l6 25 87-45z"/><path fill="#bbc7d2" fill-opacity=".7" d="M111 4l12 50H66z"/><path fill="#e3e1dc" fill-opacity=".4" d="M114 82h16v33h-16z"/><path fill="#daa2ab" fill-opacity=".5" d="M67 175L33 86l4 68z"/><path fill="#6e5f1a" fill-opacity=".4" d="M109 56h20v20h-20z"/><path fill="#b9686e" fill-opacity=".5" d="M32.3 84.6l10.4-3.8 25 68.6-10.4 3.8z"/><path fill="#bfd3de" fill-opacity=".4" d="M51.9 83.2l18.9-26.1 1 2-28.4-22.3z"/><path fill="#70623e" fill-opacity=".5" d="M180.1 99.6l20.5-71.9-31.7 29.4 4.8 20.4z"/><path fill="#96805e" fill-opacity=".7" d="M18.4 80.2L41.3 31-16 42l29.2 16.9z"/><path fill="#f4f8c3" fill-opacity=".5" d="M220.3 23.7l38.1-13.5-30.8 5.5-24.1 3z"/><path fill="#eaebf2" fill-opacity=".5" d="M160.1 62.9l-8.5 12.2-1.3-15.8 22.9-17z"/><path fill="#1d2018" fill-opacity=".8" d="M147 118.4l40.6 36.4 35.1-39.5 1.5 1z"/><path fill="#0b080b" fill-opacity=".5" d="M149 102l92-55-64 80z"/><path fill="#8f583d" fill-opacity=".7" d="M67.2 50.9l-9.3-3.7L62.8 35l9.3 3.7z"/><path fill="#ffffde" fill-opacity=".5" d="M161-.4l-1.6 7.9L123.1.4l1.5-7.9z"/><path fill="#bac7fb" fill-opacity=".4" d="M203.4 48.7l7.1 2.2 25.1-.5 3-6.9z"/><path fill="#c6c5b5" fill-opacity=".5" d="M73 102l-9-35 21 1z"/><ellipse cx="214" cy="88" fill="#cdcecb" fill-opacity=".7" rx="2" ry="8"/><path fill="#623b00" fill-opacity=".2" d="M181.1 18.4l-37 26.6-8.9-21.8 16.4 37.7z"/><path fill="#bdadc8" fill-opacity=".5" d="M34 56.1l43.5 86-25.6 13.3L75.4 122z"/><path fill="#1b170b" fill-opacity=".6" d="M59 70.3l1-.2 5 25.6-1 .2z"/><path fill="#d4d8dc" fill-opacity=".7" d="M156.9 79.2l18.9-7.5-28.7-.1 14.4-24z"/><path fill="#9f6056" fill-opacity=".4" d="M198.9 43.3l29.5 24.6-1.4 21.9-8.5-17z"/><path fill="#d3c2cd" fill-opacity=".5" d="M11 121h40v28H11z"/><path fill="#b5b3a3" fill-opacity=".8" d="M174.2 47l-21.7-13.6-27.5 4.4 26.5 1.5z"/><path fill="#230002" fill-opacity=".5" d="M-2.4 66.5l8.7 1.1 9.1-10.2-31.4 6.5z"/><path fill="#585349" fill-opacity=".5" d="M224 18L147-3l124-5z"/><path fill="#584f44" fill-opacity=".6" d="M193.7 69.6l3-.5 7.6 43.3-3 .5z"/></g></svg>