<svg xmlns="http://www.w3.org/2000/svg" viewBox="0 0 300 199"><defs/><path fill="#3d4145" d="M0 0h300v199H0z"/><g transform="translate(.6 .6) scale(1.17188)"><circle r="1" fill="#fffffb" fill-opacity=".6" transform="matrix(-40.9789 -176.5356 110.02056 -25.53888 84.7 104.5)"/><circle r="1" fill="#687176" fill-opacity=".7" transform="rotate(110.4 45.7 122) scale(40.71818 84.64125)"/><circle r="1" fill="#e9e7e2" fill-opacity=".7" transform="matrix(8.84189 -109.48534 50.50559 4.07876 31.7 100)"/><circle r="1" fill="#0b0709" fill-opacity=".5" transform="matrix(-3.10362 -9.0772 43.82436 -14.98415 186.7 87.8)"/><circle r="1" fill-opacity=".5" transform="matrix(-3.0799 6.22562 -46.80749 -23.15637 157.3 2)"/><circle cx="180" cy="154" r="43" fill="#7f909a" fill-opacity=".8"/><circle r="1" fill="#b1b6c0" fill-opacity=".5" transform="matrix(-6.02604 31.3361 -26.06004 -5.01143 168.5 58.5)"/><circle r="1" fill="#010005" fill-opacity=".6" transform="matrix(-7.96348 2.75037 -14.20701 -41.13527 203.6 53)"/><circle r="1" fill="#512500" fill-opacity=".3" transform="matrix(-43.18863 1.32728 -.1977 -6.43273 105 105.4)"/><circle cx="115" cy="148" r="16" fill="#fdfffd" fill-opacity=".6"/><path fill="#dcd9de" fill-opacity=".4" d="M151.1 48.8l-15.7 54.8L99 93.2l15.7-54.8z"/><circle r="1" fill="#81503d" fill-opacity=".5" transform="matrix(4.1522 -2.74828 19.24035 29.069 92.5 33.3)"/><path fill="#1d1c20" fill-opacity=".5" d="M185 68h55v30h-55z"/><path fill="#180500" fill-opacity=".5" d="M-1 9.7L-5 .5 19-9.7l4 9.2z"/><path fill="#868c83" fill-opacity=".5" d="M44.6 93.7l-37.7 6.6L-9 115.2l53.2-8.4z"/><path fill="#0a0000" fill-opacity=".2" d="M207-16h-91l1 33z"/><path fill="#728691" fill-opacity=".6" d="M76 142h25v28H76z"/><path fill="#f9edd3" fill-opacity=".3" d="M220.6 42.1l-12.4-18.4-21-39.7-16 7.3z"/><path fill="#7f583f" fill-opacity=".6" d="M119.7 102.3l-9.3 23.2-24.1-9.8 9.3-23.2z"/><circle r="1" fill="#dbe1ee" fill-opacity=".5" transform="rotate(-36 80.9 -143.3) scale(11.60091 22.83456)"/><circle r="1" fill="#5c6768" fill-opacity=".3" transform="rotate(-35.6 187.5 -353) scale(30.93086 45.69472)"/><path fill="#a29688" fill-opacity=".4" d="M63.4 10.9L88.8 73l2.4-50.4-71.6 12.7z"/><path fill="#cfc6b8" d="M76.4 147.2l20.5-67.9L86.5 69l-13.6 53.8z"/><path fill="#9fa8b6" fill-opacity=".6" d="M134 5h34v20h-34z"/><path fill="#85959f" fill-opacity=".9" d="M188 185l3-62-94 55z"/><path fill="#efe8dd" fill-opacity=".5" d="M95 125l19-6-4 66z"/><ellipse cx="166" cy="43" fill="#bac0c9" fill-opacity=".5" rx="22" ry="25"/><circle r="1" fill="#979b9e" fill-opacity=".6" transform="matrix(20.17126 -15.59012 6.58244 8.51668 170.4 75.5)"/><circle r="1" fill="#541c00" fill-opacity=".4" transform="matrix(.5186 11.52752 -3.44048 .15478 76.9 0)"/><circle r="1" fill="#485c67" fill-opacity=".6" transform="rotate(97.8 57.7 185.5) scale(55.3985 35.26992)"/><circle cx="30" cy="137" r="31" fill="#f3f6f5" fill-opacity=".3"/><circle r="1" fill="#11120b" fill-opacity=".4" transform="matrix(-19.69586 7.76687 -.86916 -2.20409 133.5 103.8)"/><path fill="#05060c" fill-opacity=".7" d="M205.7 56.7l-55.4-73.4 8-6 55.4 73.4z"/><path fill="#847a69" fill-opacity=".5" d="M111 114h49v21h-49z"/><circle r="1" fill="#f7f4f1" fill-opacity=".5" transform="matrix(-9.71751 5.28222 -15.39112 -28.3145 55.4 61.3)"/><path fill="#e4e2df" fill-opacity=".9" d="M66.6-13.4l5.3 35.6-13.7-5.6-72.9 6.5z"/><path fill="#4b443e" fill-opacity=".6" d="M147 165h20v5h-20z"/><path fill="#fcf6e5" fill-opacity=".6" d="M120.1 118.8l1.9-8.8 5.9 1.2-1.9 8.8z"/><path fill="#ebedf0" fill-opacity=".5" d="M0 9h19v88H0z"/><path fill="#c1c0be" fill-opacity=".5" d="M34.1 95.3l3.3-75.7L6.3 47.3l80.6 58.6z"/><path fill="#a99b84" fill-opacity=".4" d="M196 4l12 38 11-2z"/><circle r="1" fill="#571e14" fill-opacity=".4" transform="matrix(-5.25944 .08558 -.08731 -5.36614 101.9 45.5)"/><path fill="#0e1016" fill-opacity=".7" d="M200.5 14.7l-8.1 61.8 28.8-4-60.4-73z"/><path fill="#969795" fill-opacity=".6" d="M96.3 90.5l12.2 20.2 89.7-49.8-82.8 30.7z"/><path fill="#c0b9b2" fill-opacity=".5" d="M63.4 67.7L69.1 35l67 41.3-15.7 19.2z"/><path fill="#1d2200" fill-opacity=".1" d="M40.1 32.8l2.6-10.9L59.3 2.5 57.5 33z"/><circle r="1" fill="#342600" fill-opacity=".2" transform="matrix(-1.96438 -3.98205 6.02503 -2.9722 72.6 101.8)"/><path fill="#75797a" fill-opacity=".7" d="M209.4 122.3l6.7-30.2-29.2 26.5-42.9 15.5z"/><path fill="#d2d8e1" fill-opacity=".5" d="M123 78l24-4L95 9z"/><path fill="#442518" fill-opacity=".6" d="M87 113l14-21 1 14z"/><circle r="1" fill="#487798" fill-opacity=".3" transform="matrix(-5.11616 -13.83078 47.73108 -17.65626 216 169)"/><path fill="#4a5053" d="M271 136.1l-8.1-35.6-14.9-1-39.2 21.1z"/><circle r="1" fill="#000004" fill-opacity=".5" transform="matrix(14.05261 -1.80708 .46173 3.5906 166 0)"/><path fill="#9a9c9e" fill-opacity=".5" d="M180 39h13v30h-13z"/><circle r="1" fill="#323431" fill-opacity=".4" transform="rotate(-11.8 555.4 -667.9) scale(38.11624 4.33337)"/><path fill="#d9dedd" fill-opacity=".7" d="M6 154h68v16H6z"/><path fill="#87807d" fill-opacity=".5" d="M141.8-2.5l12 33-5.6 2-12-33z"/><path fill="#e9ede6" fill-opacity=".5" d="M123 134h8v21h-8z"/><ellipse cx="226" cy="20" fill="#717575" fill-opacity=".6" rx="14" ry="4"/><path fill="#8da1ae" fill-opacity=".5" d="M158 129l61 10-123 46z"/><path fill="#899494" fill-opacity=".5" d="M21.7 95.2l4.2 8L.3 116.8l-4.2-8z"/><path fill="#949189" fill-opacity=".3" d="M271 67l-3 33-31-33z"/><path fill="#252326" fill-opacity=".5" d="M142.3 106.7l70.4-38 58.3 33.1-87.8-11.1z"/><path fill="#f9f7f6" fill-opacity=".3" d="M63.7 23.8L35.3 52.6l57.5 25.8-20 20.6z"/><path fill="#552523" fill-opacity=".5" d="M105 58l-6-14 8 5z"/></g></svg>