<svg xmlns="http://www.w3.org/2000/svg" viewBox="0 0 299 449"><defs/><path fill="#6d3e38" d="M0 0h299v449H0z"/><g transform="translate(.9 .9) scale(1.7539)"><circle r="1" fill="#b6bdba" fill-opacity=".7" transform="rotate(-68.4 130.2 10.2) scale(170 86.90996)"/><ellipse cx="143" cy="193" fill="#0e1c39" fill-opacity=".9" rx="29" ry="82"/><circle r="1" fill="#fafeff" fill-opacity=".8" transform="rotate(-153.6 72.8 112.6) scale(42.11355 32.44253)"/><circle r="1" fill="#f2fafd" fill-opacity=".6" transform="matrix(4.74369 32.60782 -104.95089 15.26793 164.4 23.5)"/><path fill="#040d26" fill-opacity=".8" d="M75.6 192.6l45.8-10.6 5 21.4L80.6 214z"/><ellipse cx="167" cy="58" fill="#f1f1ef" fill-opacity=".8" rx="23" ry="60"/><path fill-opacity=".6" d="M146 76l-33-13 23-12z"/><path fill="#4b2a2a" fill-opacity=".6" d="M123 155L39 84l81 38z"/><ellipse cx="97" cy="62" fill="#f7fcfd" fill-opacity=".7" rx="15" ry="22"/><circle r="1" fill="#73432e" fill-opacity=".6" transform="matrix(3.48934 25.14632 -17.59588 2.44163 70.7 90.3)"/><circle r="1" fill="#56534e" fill-opacity=".6" transform="matrix(-4.88075 24.20584 -38.09627 -7.68156 3.2 240.4)"/><path fill="#858271" fill-opacity=".6" d="M58-16L0 211-16 43z"/><ellipse cx="125" cy="85" fill="#801d00" fill-opacity=".3" rx="18" ry="30"/><circle r="1" fill="#d1a391" fill-opacity=".6" transform="rotate(20 -397.5 311.3) scale(40.96809 24.77448)"/><path fill="#8a96a0" fill-opacity=".5" d="M145 6.5L81 26 71-6.5 135-26z"/><path fill="#021128" fill-opacity=".6" d="M112.2 115.4l30.7-9.4-47.1 13.7 11.1 28.3z"/><path fill="#f5f9f0" fill-opacity=".4" d="M112 111l-22 11 4-79z"/><path fill="#622f22" fill-opacity=".7" d="M58.9 180.1l16.3 3.4-9.5-27.6-7.1 28.5z"/><circle r="1" fill="#dbdad7" fill-opacity=".4" transform="matrix(-2.59781 10.06898 -74.48428 -19.21707 52.5 210.5)"/><ellipse cx="170" cy="170" fill="#928b76" fill-opacity=".6" rx="7" ry="28"/><circle r="1" fill="#e5e6e5" fill-opacity=".9" transform="rotate(-108.5 86.2 -36.2) scale(26.33517 28.62029)"/><circle r="1" fill="#d5a38a" fill-opacity=".5" transform="matrix(3.98798 -35.13752 10.71204 1.21578 69 110)"/><path fill-opacity=".4" d="M57 68l-6 27 24-30z"/><path fill="#b9b2a9" fill-opacity=".6" d="M82 66l-53-5L83-7z"/><circle r="1" fill="#0b1b41" fill-opacity=".7" transform="rotate(115.7 3.7 164.8) scale(28.55346 32.31345)"/><path fill="#4a301f" fill-opacity=".5" d="M121.4 158.8l3.8 4.7-46.6 37.7-3.8-4.7z"/><circle r="1" fill="#c3c0b6" fill-opacity=".7" transform="rotate(119 46.3 102) scale(8.03312 21.84898)"/><circle cx="106" cy="222" r="13" fill="#e1e1e2" fill-opacity=".6"/><path fill="#030e2b" fill-opacity=".6" d="M179 136l-44-29-18 113z"/><path fill="#f6bc97" fill-opacity=".5" d="M115.2 69.9l9.1-1.7 14.3 2.3L123.1 88z"/><circle r="1" fill="#776142" fill-opacity=".3" transform="matrix(31.60725 27.59015 -13.45577 15.41492 13.6 164.8)"/><path fill="#ffe3fc" fill-opacity=".5" d="M70 157l34 12-21 13z"/><path fill="#120c04" fill-opacity=".5" d="M145 89l-2-27-17-7z"/><path fill="#edeceb" fill-opacity=".5" d="M62 195l81 76H34z"/><path fill="#514014" fill-opacity=".4" d="M80.7 145.2l-9.5 34.2-14.1 4.8L97 145.7z"/><circle r="1" fill="#986c5c" fill-opacity=".8" transform="matrix(-11.22021 -18.31793 11.87152 -7.27162 78.6 108.7)"/><path fill="#bfb6aa" fill-opacity=".6" d="M73 150L23.6 67.7 33 62l49.4 82.3z"/><circle r="1" fill="#3c5c51" fill-opacity=".3" transform="matrix(10.86234 18.96671 -51.3061 29.38328 24.6 7.6)"/><path fill-opacity=".5" d="M141 61l-24-3-8 13z"/><path fill="#fea477" fill-opacity=".4" d="M48.1 162.5l-4.5 24.3L72 206.6l7.2-11.7z"/><path fill="#b57952" fill-opacity=".8" d="M107.4 169.1l-26.1-10.5 8.7-12.2 29.5 25.9z"/><path fill="#75715f" fill-opacity=".9" d="M161.1 178.2l24.9-68-18.9 5 2.9 21z"/><path fill="#211b25" fill-opacity=".7" d="M118.7 131.3l-3.7-1 25.4 19.9-35.9-6.5z"/><path fill="#d5c3c0" fill-opacity=".8" d="M95.7 145.9l18 19.8-15-34.7-29.9 13.3z"/><path fill-opacity=".5" d="M60 68h22v7H60z"/><path fill="#cac8ce" fill-opacity=".8" d="M120 137.2l5.4-17.9L168 77.6l-21.7 17.1z"/><path fill="#0b132c" fill-opacity=".5" d="M170.4 217.8l-99.3-17.7L84 215.3l67.7-79.2z"/><path fill="#dfdddc" fill-opacity=".4" d="M59.9 55.4l56.4 40.1-8.7-27L186-16z"/><path fill="#e3e7e3" fill-opacity=".7" d="M72.5 163.1l-4.2-8.9 18-22.9L83 136z"/><circle r="1" fill="#60000f" fill-opacity=".5" transform="matrix(7.14252 2.87127 -1.05015 2.61233 119.8 123)"/><path fill="#2f0d00" fill-opacity=".4" d="M143.1 82.7l-.3 5-34-2.4.4-5z"/><path fill="#ffddd0" fill-opacity=".4" d="M62 79.9L75.7 74 80 84.1 66.2 90z"/><path fill="#bbb7b2" fill-opacity=".7" d="M60.4 206.1l-47.5 11.2 32.7 16.6 3.1 13.7z"/><path fill="#120700" fill-opacity=".3" d="M47.2 95.8l41.3-4.3 20.5-9.3-38.8 7z"/><circle r="1" fill="#1b150d" fill-opacity=".5" transform="matrix(3.27419 -16.84424 3.03546 .59003 57.6 85.4)"/><path fill="#001226" fill-opacity=".2" d="M149.1-2.6L119.4-16h14L93.1 15.9z"/><circle cx="103" cy="183" r="4" fill="#ffb8dc" fill-opacity=".6"/><circle r="1" fill="#e7baa1" fill-opacity=".5" transform="rotate(101.6 -31.6 97.1) scale(31.07899 7.18223)"/><path fill="#b3ada7" fill-opacity=".5" d="M73.8 10.2l24.9-12-54.3 95.6-26.1.7z"/><path fill="#d4e1fc" fill-opacity=".5" d="M113 118l-3 12 4 9z"/><path fill="#f8c3b1" fill-opacity=".4" d="M74 103l15-14-23 8z"/><path fill="#8c5f4c" fill-opacity=".8" d="M142.3 73.7l-17.7-8.4 24.8 22.4-22.6 28.5z"/><path fill="#1a1b24" fill-opacity=".7" d="M97.2 173.1l7.3 28.6 44.9-48.7-58.7 48.7z"/><path fill="#ffbf9e" fill-opacity=".2" d="M41.1 102.4l87-17.9 14 10.6-31.5-.4z"/><path fill="#b6b4b2" fill-opacity=".7" d="M169.6 131.1l-31.8-26.3 26.2-2.3 22 109.9z"/></g></svg>