<svg xmlns="http://www.w3.org/2000/svg" viewBox="0 0 300 199"><defs/><path fill="#393e4a" d="M0 0h300v199H0z"/><g transform="translate(.6 .6) scale(1.17188)"><circle r="1" fill="#e3dedb" fill-opacity=".7" transform="rotate(-177.7 91.9 7) scale(112.31126 61.7237)"/><ellipse cx="205" cy="116" fill="#7d7375" fill-opacity=".8" rx="45" ry="84"/><ellipse cx="120" cy="4" fill="#fff" fill-opacity=".9" rx="47" ry="21"/><circle cx="31" cy="107" r="65" fill="#150700" fill-opacity=".6"/><circle r="1" fill="#fbffff" fill-opacity=".8" transform="matrix(-13.58874 20.48238 -29.1651 -19.34916 228.8 12)"/><ellipse cx="139" cy="83" fill="#0f0000" fill-opacity=".3" rx="28" ry="55"/><path fill="#bdb6a5" fill-opacity=".5" d="M75 32h51v42H75z"/><ellipse cx="198" cy="104" fill="#ecf1fb" fill-opacity=".8" rx="4" ry="90"/><circle cx="14" cy="23" r="60" fill="#21191c" fill-opacity=".8"/><path fill="#575655" fill-opacity=".6" d="M203 41h48v66h-48z"/><path fill="#c6afa7" fill-opacity=".6" d="M232.8 88.5L271 74.8 248.2 62l-34.8 5.6z"/><ellipse cx="210" cy="102" fill="#0c0e0d" fill-opacity=".6" rx="4" ry="76"/><ellipse cx="181" fill="#8d8797" fill-opacity=".9" rx="17" ry="78"/><circle r="1" fill="#1a1409" fill-opacity=".5" transform="matrix(-39.92898 17.4849 -9.70223 -22.15626 128.4 97.3)"/><circle r="1" fill="#fafcfd" fill-opacity=".8" transform="matrix(-9.45384 -17.48451 24.98626 -13.51002 100.6 8.4)"/><circle r="1" fill="#958f89" fill-opacity=".7" transform="matrix(2.47389 22.05519 -43.78035 4.91075 121.9 50.7)"/><path fill="#220600" fill-opacity=".3" d="M120 127h66v43h-66z"/><path fill="#ddcdae" fill-opacity=".5" d="M158 101h7v41h-7z"/><path fill="#aa926e" fill-opacity=".4" d="M92 122h27v34H92z"/><path fill="#cdbc93" fill-opacity=".4" d="M214 105h33v26h-33z"/><path fill="#030200" fill-opacity=".8" d="M251 146l-2-57 22 5z"/><ellipse cx="102" cy="113" fill="#1d1c1b" fill-opacity=".8" rx="5" ry="36"/><path fill="#30353d" fill-opacity=".7" d="M200.5 76.2l9.7-49.4-8.9 78.9 46.3-4.2z"/><path fill="#001b40" fill-opacity=".3" d="M201 148h43v22h-43z"/><ellipse cx="131" cy="61" fill="#484e4d" fill-opacity=".4" rx="8" ry="39"/><path fill="#f2f6fa" fill-opacity=".8" d="M207.6-2.8L271 .9l-57.3 26.8-20.3 10z"/><path fill="#e8f0ff" fill-opacity=".5" d="M83 62h44v4H83z"/><path fill="#91989b" fill-opacity=".5" d="M76 32h15v48H76z"/><ellipse cx="40" cy="11" fill="#937e92" fill-opacity=".1" rx="10" ry="127"/><path fill="#1b150c" fill-opacity=".5" d="M105 65l6 50 58-11z"/><path fill="#d1bfaa" fill-opacity=".5" d="M107 109h5v27h-5z"/><ellipse cx="171" cy="61" fill="#8c7a81" fill-opacity=".6" rx="8" ry="39"/><path fill="#777" fill-opacity=".5" d="M211 88l60-43-60-10z"/><path fill="#fcffff" fill-opacity=".5" d="M185.3 154.4l.4-13 5 .2-.4 13z"/><path fill="#1f1516" fill-opacity=".6" d="M-3-16l4 201 91-27z"/><path fill="#f2ede9" fill-opacity=".6" d="M227 80h27v4h-27z"/><path fill="#1c1a18" fill-opacity=".8" d="M110.6 113.5l31.5-47.6 5.8.6 11 88.2z"/><path fill="#d4c1ad" fill-opacity=".5" d="M145 28h11v29h-11z"/><path fill="#eadac5" fill-opacity=".5" d="M82 120h4v11h-4z"/><path fill="#6a4a52" fill-opacity=".5" d="M166 100h30v42h-30z"/><path fill="#171712" fill-opacity=".6" d="M48 117l31-20-9-90z"/><path fill="#bda685" fill-opacity=".5" d="M85 149h29v4H85z"/><ellipse cx="197" cy="99" fill="#fff" fill-opacity=".5" rx="2" ry="73"/><path fill="#dbc9b9" fill-opacity=".4" d="M127 64l10 12 1-11z"/><path fill="#a39f91" fill-opacity=".5" d="M201 106h5v41h-5z"/><path fill="#c8b9a7" fill-opacity=".5" d="M93 120h5v27h-5z"/><path fill="#f6fafa" fill-opacity=".8" d="M164.2 20.3l-93.1 8.1 90-44.4L163 1.6z"/><path fill="#ebebe4" fill-opacity=".5" d="M224 64l14 18-13-6z"/><ellipse cx="131" cy="60" fill="#151e43" fill-opacity=".4" rx="33" ry="2"/><path fill="#8c695f" fill-opacity=".5" d="M271 53l-22 4-2 37z"/><path fill="#65677a" fill-opacity=".5" d="M88 160l70 13-87 12z"/><path fill="#8d837e" fill-opacity=".7" d="M169.2 145.5l-7.3-5.8-10.7 2.7 10.4-15.1z"/><path fill="#9a4533" fill-opacity=".6" d="M164.2 46.9l-7.8 7.2-5.9-10.9 14.3 2.8z"/><path fill="#4f333c" fill-opacity=".5" d="M173 156h23v14h-23z"/><circle r="1" fill="#050200" fill-opacity=".5" transform="matrix(-.99997 .00829 -.77412 -93.37181 209.6 120.2)"/><path fill-opacity=".5" d="M113 122h4v17h-4z"/><path fill="#020200" fill-opacity=".5" d="M118 144h8v22h-8z"/><path fill="#8e8a7b" fill-opacity=".5" d="M213 111h28v40h-28z"/><circle r="1" fill="#4d5465" fill-opacity=".7" transform="matrix(10.08715 27.32248 -12.49944 4.61465 247.5 166.9)"/><ellipse cx="178" cy="11" fill="#160712" fill-opacity=".2" rx="2" ry="133"/><path fill="#191a1c" fill-opacity=".5" d="M201 91h28v13h-28z"/><path fill="#9293a2" fill-opacity=".6" d="M164 0h12v58h-12z"/><path fill="#9a8e80" fill-opacity=".8" d="M155.1 115.6l6.6-10.1 2.2.4 3.6 41.6z"/><ellipse cx="40" cy="122" fill="#2e2528" fill-opacity=".5" rx="13" ry="89"/><path fill="#7f777f" fill-opacity=".4" d="M33.5 32.2l7-4.8-9.4 20.7L29.4 28z"/></g></svg>