<svg xmlns="http://www.w3.org/2000/svg" viewBox="0 0 299 449"><defs/><path fill="#604c38" d="M0 0h299v449H0z"/><g transform="translate(.9 .9) scale(1.7539)"><path fill="#e4f2fc" fill-opacity=".8" d="M77 271l79-172 30 153z"/><circle cx="142" cy="37" r="113" fill="#ccc3a3" fill-opacity=".4"/><ellipse cx="53" cy="154" fill="#001621" fill-opacity=".6" rx="27" ry="85"/><path fill="#adc5dc" fill-opacity=".6" d="M106.3 184.9l-31.5-5.6 8.9-50.2 31.5 5.6z"/><path fill="#ffe6b9" fill-opacity=".6" d="M46 26L186 4 3-16z"/><circle r="1" fill="#5a4622" fill-opacity=".7" transform="matrix(-13.07895 -40.30465 47.43969 -15.39428 147 65.5)"/><circle r="1" fill="#030f1e" fill-opacity=".8" transform="matrix(15.53207 -38.46223 14.55032 5.8758 77.6 226.2)"/><path fill="#d2cdcd" fill-opacity=".8" d="M175.4 131.7l-32.6 33.8-30.2-29.2 32.6-33.8z"/><path fill-opacity=".5" d="M92 150h40v20H92z"/><ellipse cx="84" cy="124" fill="#f1f7ff" fill-opacity=".5" rx="5" ry="59"/><circle r="1" fill="#fee1ae" fill-opacity=".4" transform="matrix(8.73205 -1.6289 6.50987 34.89767 56 63.2)"/><circle r="1" fill="#d9c9a7" fill-opacity=".9" transform="matrix(14.15388 18.74656 -25.41996 19.19237 137 0)"/><circle r="1" fill="#5c6461" fill-opacity=".8" transform="rotate(49.8 -235.5 141.9) scale(14.41 36.47891)"/><circle r="1" fill="#262220" fill-opacity=".6" transform="rotate(178.6 1.3 73.9) scale(17.73027 62.64629)"/><path fill-opacity=".5" d="M89.3 124.4l4.9-1 6.5 28.2-4.9 1z"/><circle r="1" fill="#4c8765" fill-opacity=".6" transform="matrix(8.34293 .24806 -1.84103 61.9197 28.9 87.5)"/><path fill="#4a3722" fill-opacity=".7" d="M166 56l-48 72-3-56z"/><circle r="1" fill="#f5beb5" fill-opacity=".5" transform="matrix(11.54983 4.16152 -7.61157 21.12508 86.3 80.2)"/><ellipse cx="54" cy="143" fill="#070c15" fill-opacity=".5" rx="27" ry="46"/><circle cx="88" cy="39" r="27" fill="#505830" fill-opacity=".4"/><path fill="#14191d" fill-opacity=".9" d="M90.8 195.8l42.1-37.8-21.1 31L66 271z"/><path fill="#010208" fill-opacity=".7" d="M96.1 96.6l5.2 27.5 4.7 2.5-1.7-32.4z"/><path fill="#c0cfd9" fill-opacity=".7" d="M70.8 179.7l40.8-15.7-19.4 22.1-.3-46z"/><path fill="#a6adb4" fill-opacity=".9" d="M100.5 114.9L89.6 86.4l5.7 33.5 14.7 79.2z"/><circle r="1" fill="#829098" fill-opacity=".5" transform="matrix(5.21095 2.4299 -24.03986 51.55364 100.5 224)"/><path fill="#d5dbdf" d="M91.7 157.9l-3.1-34.8-7.4-37.3-7.4 8.6z"/><path fill="#152b42" fill-opacity=".4" d="M91.3 119.7L91 94.6l-6.9 5.5-5.6-14.6z"/><path fill="#d9cebb" fill-opacity=".5" d="M67 34L29 60l10 12z"/><path fill="#d4ebf7" fill-opacity=".6" d="M9 241l-8 25 17-26z"/><ellipse cx="12" cy="33" fill="#001e17" fill-opacity=".4" rx="23" ry="14"/><path fill="#ffcca5" fill-opacity=".5" d="M107 94h8v57h-8z"/><path fill="#6d7e6d" fill-opacity=".7" d="M-16 7l49 7-9-30z"/><path fill-opacity=".5" d="M84 52l-16 9 9 7z"/><circle cx="119" cy="161" r="12" fill-opacity=".6"/><circle cx="155" cy="207" r="48" fill="#d6e0e7" fill-opacity=".3"/><path fill="#cbcdcd" fill-opacity=".5" d="M129 123h40v38h-40z"/><path fill="#262926" fill-opacity=".6" d="M26 221l38 18-60 1z"/><ellipse cx="160" fill="#916e3f" fill-opacity=".4" rx="7" ry="123"/><path fill="#768f6a" fill-opacity=".6" d="M18 95L9 46l25 7z"/><path fill="#daf2ff" fill-opacity=".5" d="M73 173h39v8H73z"/><path fill="#6c5438" fill-opacity=".7" d="M107.2 96.6l67.3 18.6-83.7-61.1L131 91.8z"/><path fill-opacity=".5" d="M116 109h8v15h-8z"/><path fill="#e7caa5" fill-opacity=".7" d="M30.3 22.4l2.6 5 123.4-40.2L29.8-16z"/><path fill="#0e1b2b" fill-opacity=".6" d="M100.8 146.9l-3.9.9L85.2 97l3.9-.9z"/><path fill="#385836" fill-opacity=".6" d="M50.5 70.7l-40 3.2 40.7 19.6L12 164.4z"/><path fill="#413f41" d="M45.8 204.2l-20.7-30.1-6.1 32.2 8.2 10.9z"/><path fill="#cad5df" fill-opacity=".5" d="M-22.6 268.2l-.7-.7 48-49.7.6.7z"/><path fill="#00152c" fill-opacity=".4" d="M12 249h72v7H12z"/><path fill="#ebf9d8" fill-opacity=".2" d="M56.4 239.5l-23.8-61.3 21.9 66.2-70.3-2.8z"/><path fill="#373125" fill-opacity=".8" d="M-5.2 30L-16 37.3l30.4 76.8-.1-29.8z"/><path fill-opacity=".4" d="M60 95l14 3 7 26z"/><path fill="#dea38c" fill-opacity=".5" d="M81 58h15v34H81z"/><path fill="#c3babb" fill-opacity=".6" d="M105 124l6 27 15-8z"/><path fill="#91886a" fill-opacity=".5" d="M109.8 94.5l-14.3-7 12.7-26 14.3 7z"/><path fill="#b2b7ba" fill-opacity=".7" d="M146.3 125.3l-9.3 66.8-2.9-22.8-10.7-25.7z"/><path fill="#f3b580" fill-opacity=".3" d="M17.4 214.1L32 127.2l-13.9 28.5 5.8-15.5z"/><path fill="#645835" fill-opacity=".8" d="M159.1 37.7l22.3-28.3-84.8 52 5.1-38z"/><path fill="#1b2732" fill-opacity=".7" d="M108.7 194.2l4-17.7-60.8 38.1 30.8-34.4z"/><path fill="#e4eef5" fill-opacity=".5" d="M90 104.4l8.1 6.5 3.3 30-10.1-45.3z"/><path fill="#cead88" fill-opacity=".5" d="M42 19h21v47H42z"/><path fill="#91896d" fill-opacity=".7" d="M71.5 94.9l-18.4 2 16.6-62.8-2.4 40z"/><path fill="#425241" fill-opacity=".5" d="M18 37h21v21H18z"/><path fill="#dbfdfe" fill-opacity=".5" d="M51 81h11v5H51z"/><path fill="#1c2533" fill-opacity=".6" d="M92 132h6v37h-6z"/><path fill="#c2b49a" fill-opacity=".5" d="M55.1 195.3l-1.9 15-6.5 17.1 7.5-34z"/></g></svg>