<svg xmlns="http://www.w3.org/2000/svg" viewBox="0 0 300 199"><defs/><path fill="#382b1d" d="M0 0h300v199H0z"/><g transform="translate(.6 .6) scale(1.17188)"><circle r="1" fill="#d5cdae" fill-opacity=".6" transform="matrix(164.84875 27.58296 -10.83815 64.77388 141.4 77.6)"/><path fill="#f7faff" fill-opacity=".7" d="M182.9 29l23.9 7.3L185 107l-23.9-7.3z"/><circle r="1" fill="#c08142" fill-opacity=".7" transform="rotate(-11.7 671.6 -115.9) scale(19.19982 35.68016)"/><circle r="1" fill="#e5f2d4" fill-opacity=".6" transform="rotate(88 84.1 163.4) scale(44.71434 22.2687)"/><circle r="1" fill="#070d0d" fill-opacity=".6" transform="rotate(79.9 -21.8 31) scale(64.2987 10.36123)"/><ellipse cx="128" cy="102" fill="#1d190b" fill-opacity=".7" rx="8" ry="43"/><ellipse cx="213" cy="117" fill="#0c1f00" fill-opacity=".4" rx="13" ry="95"/><circle r="1" fill="#c0bc96" fill-opacity=".6" transform="matrix(27.8145 36.1117 -28.3487 21.83515 75 15.1)"/><path fill="#000b0b" fill-opacity=".7" d="M59 115h36v55H59z"/><path fill="#000a0a" fill-opacity=".5" d="M46 57h47v26H46z"/><circle cx="164" cy="130" r="32" fill="#c2b6bf" fill-opacity=".5"/><path fill="#5f5141" d="M166.8 130.6l7.9 19.1L85 137.6l48.6 27.3z"/><path fill="#906a3e" fill-opacity=".7" d="M104-6l33 115-2-117z"/><path fill="#ea9f3f" fill-opacity=".6" d="M98.4 146.7L91 99.3l24.7-4 7.5 47.4z"/><circle r="1" fill="#25170b" fill-opacity=".6" transform="matrix(35.64224 12.54217 -2.90253 8.24839 194.6 20.1)"/><path fill="#000b0e" fill-opacity=".6" d="M175 185l8-37 40-18z"/><path fill="#fafbff" fill-opacity=".6" d="M166.8 38.5l8-17.2 26.4 12.2-8 17.2z"/><path fill="#c4cfad" fill-opacity=".5" d="M229 157l-9-125 51 82z"/><path fill="#b39484" d="M135.2 127L162 15.5 153.1 142l-25.8 16.6z"/><ellipse cx="30" cy="34" fill="#b05302" fill-opacity=".4" rx="10" ry="52"/><path fill="#ecfbfc" fill-opacity=".4" d="M199.9 133.6l-16.6-38.9-4.9 37.7-12.2 36.8z"/><circle r="1" fill="#47160c" fill-opacity=".5" transform="matrix(2.14696 .7697 -12.43687 34.69101 154 108)"/><ellipse cx="39" cy="89" fill="#f6f9fc" fill-opacity=".7" rx="10" ry="6"/><ellipse cy="80" fill="#466a71" fill-opacity=".7" rx="17" ry="34"/><path fill="#dedcdb" fill-opacity=".6" d="M207.7 47.2l-59.8 94.6 30.6-102.4 92.5-.2z"/><circle r="1" fill="#141303" fill-opacity=".5" transform="matrix(-11.55478 -33.87265 5.5254 -1.88485 124 102)"/><path fill="#eeb15a" fill-opacity=".6" d="M24.9 113.2l65.3-15 2.9 12.6-65.3 15z"/><path fill="#c6c4bd" fill-opacity=".5" d="M39 30h75v25H39z"/><circle cx="165" cy="157" r="6" fill="#f7ffff" fill-opacity=".6"/><path fill="#000a0d" fill-opacity=".5" d="M162.6 130.9l-5.1 11.5L91.6 185l89.4-43.1z"/><path fill="#001018" fill-opacity=".6" d="M-9.8 199.3l-15.8-89.6 39.4-7 15.8 89.6z"/><path fill="#f1e5d5" fill-opacity=".4" d="M148.9 87.3l20.8-22.1-40.3-8.1 5.7-37.2z"/><path fill="#110200" fill-opacity=".7" d="M14-16l10 81L6 33z"/><path fill="#c3bca9" fill-opacity=".7" d="M205.8 109.4l-30-14.6 30.3-52.3-8.4 32.7z"/><path fill="#484528" fill-opacity=".7" d="M197.9 131l-9.2-23.8 21 2.2 34.1 73.2z"/><path fill="#e6fef9" fill-opacity=".3" d="M75.5 98l41.2-59 1.2 42.4-2.7-7.7z"/><circle r="1" fill="#6e4b31" fill-opacity=".6" transform="matrix(-4.36254 5.66497 -30.03068 -23.12635 140.2 22)"/><path fill="#403c30" d="M18.5 105.2l8-15.4-28.9 23.6 83.8-14.1z"/><path fill="#0e1d1c" fill-opacity=".8" d="M30 168l79-18 82 35z"/><path fill="#eecdc2" fill-opacity=".6" d="M136 146l13-38-10-33z"/><path fill="#9c8b60" fill-opacity=".7" d="M216 38l41-17 2 14z"/><circle r="1" fill="#33301e" fill-opacity=".6" transform="rotate(-112.7 113.6 -62.2) scale(19.21377 22.12745)"/><path fill="#fbbaa9" fill-opacity=".5" d="M149.4 6.2L160.5 24l-5.9 3.8L143.5 10z"/><path fill="#29322f" fill-opacity=".5" d="M63 51h20v28H63z"/><path fill="#2d2416" fill-opacity=".7" d="M164.3 22.2l73.2 10.5L271-1.7 176.5.8z"/><path fill-opacity=".5" d="M124 151l-1-61 14 33z"/><path fill="#f5eeea" fill-opacity=".5" d="M120 152l24-9-11 14z"/><path fill="#14130c" fill-opacity=".5" d="M55 117h40v27H55z"/><ellipse cx="120" cy="3" fill="#8b2e00" fill-opacity=".4" rx="6" ry="61"/><path fill="#dfe0e1" fill-opacity=".7" d="M177.4 65.8l-11 73.2.3-21.5-15 3.7z"/><circle r="1" fill="#c68d48" fill-opacity=".5" transform="matrix(5.11353 -6.83739 19.73501 14.75938 35.3 124.3)"/><path fill="#706a4c" fill-opacity=".6" d="M136.7 60.3L147 78.6l-23.6 13.1L113 73.4z"/><path fill="#04110a" fill-opacity=".4" d="M88.9 100.8L60.4 89.7l40.8 8.9-33.1.6z"/><path fill="#1b1513" fill-opacity=".4" d="M143 157l34-10-35-9z"/><path fill="#d3d2ce" fill-opacity=".7" d="M201.7 137.2l-27.2 13.3 7.2-53.8 10.1 20.4z"/><ellipse cx="151" cy="145" fill="#d09d94" fill-opacity=".5" rx="2" ry="15"/><path fill="#00161a" fill-opacity=".6" d="M232.1 149.8l23.7-4.1 6 34.5-23.6 4.1z"/><path fill="#e1dde4" fill-opacity=".5" d="M204 64l-41-46 19 52z"/><circle r="1" fill="#011d23" fill-opacity=".6" transform="matrix(32.23168 6.79228 -1.80425 8.56179 156 169)"/><path fill="#742" fill-opacity=".5" d="M34.9-15.8L39 32l-20 1.8L15-14z"/><path fill="#b27b3e" fill-opacity=".9" d="M123.2 143.3l-3.7-12-24.9-8.2 4.2 29.7z"/><ellipse cx="74" cy="5" fill="#988f56" fill-opacity=".5" rx="38" ry="16"/><path fill="#1b201a" fill-opacity=".9" d="M221.4 141.5l12.3 43.5-64.6-4.7 15.5-33.9z"/><path fill="#cbbbb7" fill-opacity=".6" d="M53.4 98.4l-17.2-7.9L20 102.3l33-11.2z"/><path fill="#100000" fill-opacity=".5" d="M19.8 97.4L13.3 56l8.9-1.4L28.7 96z"/></g></svg>