<svg xmlns="http://www.w3.org/2000/svg" viewBox="0 0 300 199"><defs/><path fill="#31404b" d="M0 0h300v199H0z"/><g transform="translate(.6 .6) scale(1.17188)"><circle r="1" fill="#eca87e" fill-opacity=".6" transform="matrix(-77.76217 21.32023 -26.06233 -95.05823 165.3 68.2)"/><circle r="1" fill="#abbabd" fill-opacity=".7" transform="rotate(-5.7 35.3 -413.6) scale(141.56069 29.9868)"/><path fill="#aec2cb" fill-opacity=".7" d="M271 79L147 185l-23-37z"/><circle r="1" fill="#772b00" fill-opacity=".5" transform="matrix(-53.05333 -56.05719 83.51964 -79.04419 53.6 124.9)"/><ellipse cx="6" cy="114" fill="#e6bb88" fill-opacity=".5" rx="11" ry="57"/><circle r="1" fill="#e8a474" fill-opacity=".6" transform="rotate(122 95.1 104.4) scale(35.021 27.1976)"/><circle r="1" fill="#140200" fill-opacity=".7" transform="matrix(33.18201 -17.02611 10.86506 21.1748 53.4 54.4)"/><path fill="#f7ffff" fill-opacity=".6" d="M180.3 126.1L174 93.7l19.7-3.8 6.3 32.4z"/><ellipse cx="241" cy="20" fill="#0f0000" fill-opacity=".7" rx="13" ry="28"/><circle r="1" fill="#253644" fill-opacity=".8" transform="matrix(32.86039 -31.60666 14.51524 15.09102 232.7 142.5)"/><circle r="1" fill="#ffb98c" fill-opacity=".4" transform="matrix(19.14605 -13.4062 31.97899 45.67072 155.5 26.6)"/><path fill="#001024" fill-opacity=".6" d="M160.4 124.6l3.4-21.7 15.8 2.5-3.4 21.7z"/><path fill="#526f7a" fill-opacity=".6" d="M134 69L78 20l40-36z"/><circle r="1" fill="#4f768b" fill-opacity=".5" transform="matrix(11.9297 8.51348 -33.74885 47.2913 177.2 169)"/><circle r="1" fill="#050000" fill-opacity=".5" transform="matrix(18.03626 84.98236 -6.60789 1.40243 81.7 113.7)"/><circle r="1" fill="#b5ddf4" fill-opacity=".5" transform="rotate(-118.1 119 26) scale(11.13728 32.08828)"/><path fill="#b04f18" fill-opacity=".3" d="M264 56l-79-72-35 121z"/><circle r="1" fill="#cf8c6e" fill-opacity=".4" transform="matrix(14.12613 -7.315 16.60597 32.0681 110.9 95.7)"/><circle cx="16" cy="18" r="25" fill="#96afbb" fill-opacity=".5"/><circle r="1" fill="#432c28" fill-opacity=".4" transform="matrix(-30.91486 -24.87236 8.02167 -9.97046 142.4 79.5)"/><path fill="#c78b68" fill-opacity=".8" d="M177 82.4L143.4 54l86.1-70-18 47.2z"/><ellipse cx="9" cy="76" fill="#5f442b" fill-opacity=".9" rx="3" ry="35"/><path fill="#313026" fill-opacity=".4" d="M216 136.9l-6.7 2L188 69.1l6.7-2z"/><path fill="#2d1503" fill-opacity=".5" d="M179.7-15.1l17.6 16.3-13 14-17.6-16.4z"/><path fill="#9ae0fc" fill-opacity=".5" d="M161 129l-13-35 14 2z"/><path fill="#fff" fill-opacity=".5" d="M141 15l-14-31-5 35z"/><path fill="#dcb59a" fill-opacity=".5" d="M271 83l-58 46-1-62z"/><path fill="#b9824f" fill-opacity=".5" d="M65.7 171.2L56 104.9 45.4 64.7l14.8 89.6z"/><path fill="#fdffff" fill-opacity=".6" d="M170 97l28-6-7 24z"/><circle r="1" fill="#441f0e" fill-opacity=".5" transform="matrix(2.29431 4.72495 -26.10711 12.67693 128.9 137.8)"/><path fill="#ac7c63" d="M127.1 56.3l.5-22.3 5.5-23.4 8.4 49.5z"/><circle r="1" fill="#2f0b00" fill-opacity=".5" transform="rotate(-169.4 39.4 37.6) scale(16.02416 29.27875)"/><path fill="#235c6d" fill-opacity=".4" d="M200 120l-55-21 5-17z"/><circle cx="96" cy="49" r="15" fill="#b97250" fill-opacity=".4"/><circle r="1" fill="#949e9c" fill-opacity=".5" transform="matrix(-2.53198 -16.54658 12.14672 -1.85871 132.2 168.9)"/><circle r="1" fill="#080000" fill-opacity=".6" transform="matrix(-10.3684 4.88794 -15.08306 -31.99447 236.8 7.6)"/><ellipse cx="180" cy="169" fill="#4d626d" fill-opacity=".5" rx="29" ry="13"/><path fill="#77472b" fill-opacity=".7" d="M179.6 93.5l27.9-10-.1-20.3-43.8 34.9z"/><path fill="#130000" fill-opacity=".6" d="M64.7 174.6l-4.8 1.2-20.6-82.4 4.8-1.2z"/><path fill="#f4d9b3" fill-opacity=".5" d="M1 146l-17-29L4 64z"/><ellipse cx="36" cy="144" fill="#80573b" fill-opacity=".5" rx="9" ry="39"/><path fill="#e1ad8c" fill-opacity=".6" d="M181.5 23.5L159.1-16l-12.5 58.7 2.2 4.4z"/><path fill="#7c2b08" fill-opacity=".6" d="M203 0h5v25h-5z"/><circle r="1" fill="#001221" fill-opacity=".5" transform="matrix(9.33543 3.01526 -20.54083 63.59563 254.4 149.2)"/><circle r="1" fill="#7e2e0e" fill-opacity=".4" transform="matrix(1.09415 -14.30633 22.96578 1.75642 135.4 73.4)"/><path fill="#421800" fill-opacity=".5" d="M127 22.3l9.1 9.4-.5-12 8.9-1.9z"/><circle r="1" fill="#d8ba9e" fill-opacity=".5" transform="matrix(2.6768 .3064 -2.847 24.87203 8 141.4)"/><path fill="#00232c" fill-opacity=".4" d="M164.8 127l-5.9-24.1 16 4.7 2.9 22.2z"/><path fill="#98b0bc" fill-opacity=".5" d="M168 128h31v27h-31z"/><path fill="#230200" fill-opacity=".6" d="M74.4 118.7l40.3 62.9L81 185l7.3-93.4z"/><path fill="#844b34" fill-opacity=".7" d="M135.3 130.5l18.9.4-1.9-27.7-23.8-57z"/><circle r="1" fill="#082e39" fill-opacity=".6" transform="matrix(3.13744 7.21561 -3.64384 1.58439 202 107.6)"/><path fill="#835b2f" fill-opacity=".4" d="M38 26.2L3.7 57.4l-1.1 51.7 24.9-67.2z"/><path fill="#5b310c" fill-opacity=".4" d="M45.1 59.3L20 76.8 8.1 184l49-113.5z"/><path fill="#5c311a" fill-opacity=".9" d="M128.5 146.2l18.4-14.2-55.3.9 13.5 52.1z"/><path fill="#c79d85" fill-opacity=".6" d="M200.7 96.2l12.6-8.1 18 27.7-12.6 8.1z"/><path fill="#130500" fill-opacity=".7" d="M30.5 37.8l47-10.1 5.8 50.8L19.7 52z"/><path fill="#9c5734" fill-opacity=".5" d="M206.6-19l8.5-2.8L241.4 59l-8.5 2.8z"/><path fill="#ced7da" fill-opacity=".7" d="M157.6 106.1l5.8 39.6-9.6-34.4-.3-9.6z"/><path fill="#371501" fill-opacity=".3" d="M14.5 52.6l-6.4 70.8L2 185l4.5-88z"/><circle r="1" fill="#af6b4d" fill-opacity=".4" transform="rotate(125.6 30.4 80.6) scale(26.23523 23.39008)"/><circle r="1" fill="#bfd2df" fill-opacity=".5" transform="matrix(19.8601 -7.80379 4.3362 11.03532 153.8 142.7)"/><path fill="#fff4d9" fill-opacity=".5" d="M186 118h12v14h-12z"/><path fill="#f6eeeb" fill-opacity=".6" d="M122-15l3 37 12-9z"/><path fill="#7f8b8c" fill-opacity=".5" d="M116-16L87.2 36.8l34.2-2.4-75.7-8.6z"/></g></svg>