<svg xmlns="http://www.w3.org/2000/svg" viewBox="0 0 300 199"><defs/><path fill="#4f433a" d="M0 0h300v199H0z"/><g transform="translate(.6 .6) scale(1.17188)"><circle r="1" fill="#e4e7e4" transform="matrix(-240.74016 49.85489 -11.11072 -53.65163 203 126.4)"/><path fill="ivory" fill-opacity=".4" d="M74.7 72.6l101-120.2 53.6 45-101 120.2z"/><circle r="1" fill="#a39989" fill-opacity=".8" transform="rotate(-79.2 59.2 39) scale(34.50184 78.59271)"/><circle r="1" fill="#505d2f" fill-opacity=".6" transform="matrix(-44.45208 -8.7372 4.10522 -20.88606 178.2 67)"/><circle r="1" fill="#dedbd0" fill-opacity=".8" transform="matrix(27.6272 -26.71222 15.95896 16.50561 248.1 63.9)"/><ellipse cx="129" cy="42" fill="#f9f7f3" fill-opacity=".6" rx="19" ry="25"/><ellipse cx="3" cy="76" fill="#798079" rx="13" ry="115"/><ellipse cx="28" cy="122" fill="#eff3f3" fill-opacity=".8" rx="16" ry="24"/><path fill="#5e4f3e" fill-opacity=".7" d="M110.4 68.5l11.4 22.3-64.2 32.7-11.4-22.3z"/><path fill="#fffff4" fill-opacity=".4" d="M257-4l-81 43-13-42z"/><path fill="#220e01" fill-opacity=".5" d="M3 104.9l6.4-15.7L118.8-11.1 29.4 98.7z"/><path fill="#050f0d" fill-opacity=".5" d="M137.1-26l50.5 87.5L173 70l-50.5-87.5z"/><circle r="1" fill="#020000" fill-opacity=".6" transform="rotate(-65.4 32.7 -25.3) scale(46.26585 15.7272)"/><path fill="#fff" fill-opacity=".5" d="M26 66L10 37 8 89z"/><path fill="#02150f" fill-opacity=".6" d="M193.3 66.9l-14-24.3 61.4-35.5 14 24.3z"/><ellipse cx="101" cy="47" fill="#8c553a" rx="11" ry="26"/><circle r="1" fill="#fff" fill-opacity=".5" transform="matrix(11.84368 -17.96301 4.84678 3.19566 46.9 90.1)"/><path fill="#0b0000" fill-opacity=".6" d="M78 21l17.5 7.4L74 79l-17.5-7.4z"/><ellipse cx="168" cy="145" fill="#f0f2f3" fill-opacity=".7" rx="107" ry="56"/><path fill="#ffffe2" fill-opacity=".5" d="M40 45h10v13H40z"/><path fill="#e2e7e8" fill-opacity=".6" d="M111 20h18v48h-18z"/><circle r="1" fill="#150b05" fill-opacity=".6" transform="rotate(-161.5 46.2 -7.1) scale(16.62527 27.66601)"/><circle r="1" fill="#5a6967" fill-opacity=".9" transform="matrix(18.90636 -25.7379 17.24401 12.66699 1 19.2)"/><path fill="#829757" fill-opacity=".6" d="M174 63h46v24h-46z"/><path fill="#00090f" fill-opacity=".5" d="M157 84l-9-22 36-2z"/><path fill="#fffdfe" fill-opacity=".6" d="M182.6 31.4l26.3-12.2 2.5 5.4-26.3 12.2z"/><path fill="#eceeed" fill-opacity=".7" d="M65.3 121.9L233 145.1l-95.9-67.4-3 4.3z"/><path fill="#68513d" fill-opacity=".6" d="M35 115l75-54-39 54z"/><path fill="#7d725a" fill-opacity=".6" d="M203.2 17.5l1 3.9-41.4 11.1-1-3.9z"/><circle r="1" fill="#47463b" fill-opacity=".7" transform="matrix(4.6932 9.97601 -25.8893 12.1796 183.5 49.2)"/><path fill="#ffe5cb" fill-opacity=".5" d="M94.5 70.6l-13.7 10-5.3-7.2 13.7-10z"/><ellipse cx="139" cy="6" fill="#17231d" fill-opacity=".6" rx="13" ry="8"/><path fill="#c0a37f" fill-opacity=".4" d="M128 52l17-36 14 44z"/><path fill="#ffefd3" fill-opacity=".4" d="M48 103l-1-38 18 12z"/><circle cx="37" cy="144" r="26" fill="#edf0f2" fill-opacity=".6"/><path fill="#010c06" fill-opacity=".5" d="M225.6 11.3l23 17.7-33.2 33.7-7.2-37.4z"/><path fill="#8d9084" fill-opacity=".7" d="M166.3 63.9l-73.5 43.6 28.6-37.2 29.8 14.1z"/><path fill="#ae4c20" fill-opacity=".6" d="M91.6 62.7l-6-.5 2.8-32.9 6 .5z"/><path fill="#ffecd5" fill-opacity=".5" d="M27.1 61.5L2.9 96.4l.9-3.7 11.7-43.3z"/><ellipse cx="2" cy="143" fill="#1f4451" fill-opacity=".2" rx="13" ry="53"/><circle cx="253" cy="12" r="16" fill="#2f4446" fill-opacity=".6"/><circle r="1" fill="#ec9b75" fill-opacity=".4" transform="matrix(-4.81726 -2.78608 6.95519 -12.02585 47.2 47.5)"/><path fill="#eaecea" fill-opacity=".6" d="M51.5 91.9l-17.2 15.7L72.4 185l-62.3-80.2z"/><path fill="#eceeed" fill-opacity=".7" d="M19 138l100-41-62 88z"/><path fill="#f8f3f4" fill-opacity=".2" d="M232.9 51.8l-76.4 89 64.4-14.5L264.6 44z"/><path fill="#ae7b50" fill-opacity=".5" d="M85.6 79.7l-25.8-5.2 5.4 3.7L33 118.1z"/><path fill="#241107" fill-opacity=".5" d="M27 0h36v42H27z"/><path fill="#3d2517" fill-opacity=".5" d="M42.1 76.2l1.3 21-15.9-27.6 82.9-57.9z"/><path fill="#f2ebe4" fill-opacity=".5" d="M188.9 32.2l-21.7 14.5 8.6-10 54.5-27.2z"/><path fill="#6f7872" fill-opacity=".9" d="M135-16h52l-25.9 29.7 2.4 5.5z"/><path fill="#777667" fill-opacity=".4" d="M190.9 43l-26.6 18.8 33.8-10.7 25.5 1.3z"/><path fill="#f7efda" fill-opacity=".2" d="M23.3 25.2L6.5 42l-.1 9.5 7.4 1.6z"/><path fill="#23251a" fill-opacity=".5" d="M158 30l23 1-8 4z"/><path fill="#060000" fill-opacity=".5" d="M52 68.2l13.2-25.9L84 51.8 70.8 77.7z"/><path fill="#090000" fill-opacity=".5" d="M17 49l17-65 4 81z"/><path fill="#e3e0e3" fill-opacity=".4" d="M161 28h43v3h-43z"/><path fill="#0d1300" fill-opacity=".2" d="M220.8 46.6l-1.2 17.2 6 23L175.9 36z"/><path fill="#6f944a" fill-opacity=".7" d="M203.7 69l-26.4 20-9-12 26.4-20z"/><path fill="#79cad4" fill-opacity=".2" d="M60.5 28.9l-.3 24.3 16.2-46-4.7-15.4z"/><path fill="#d9e0e2" fill-opacity=".5" d="M164 11h21v9h-21z"/><path fill="#6b7068" fill-opacity=".7" d="M-10.8 104.9l-5.2 6.6 39.9-9.4 22.7-13.3z"/><path fill="#f6f2f6" fill-opacity=".2" d="M245.6-16l-56.9 3.3 17.5 41.6-28 11z"/><path fill="#241108" fill-opacity=".6" d="M94.9 1.4L75.4 61.3l-14.3-4.7L80.6-3.3z"/><path fill="#5a5147" fill-opacity=".6" d="M102.9-7.4l10.4 54.7-14.4 61.3L111.5 2.3z"/><path fill="#ffd7b2" fill-opacity=".4" d="M82.5 67.1l1.4-5.8 15.6 3.6-1.4 5.8z"/></g></svg>