<svg xmlns="http://www.w3.org/2000/svg" viewBox="0 0 300 199"><defs/><path fill="#313655" d="M0 0h300v199H0z"/><g transform="translate(.6 .6) scale(1.17188)"><ellipse cx="103" cy="22" fill="#bba18d" fill-opacity=".8" rx="228" ry="35"/><ellipse cx="156" cy="169" fill="#b3a6a6" rx="34" ry="124"/><circle r="1" fill="#ffdba9" fill-opacity=".6" transform="rotate(-6 1246.8 -7.5) scale(12.82656 147.20306)"/><ellipse cx="134" cy="45" fill="#7b533e" fill-opacity=".8" rx="37" ry="30"/><path fill-opacity=".5" d="M10 67l151 41-128 77z"/><ellipse cx="223" cy="76" fill="#002460" fill-opacity=".9" rx="25" ry="44"/><circle cx="17" r="47" fill="#d7d8d2" fill-opacity=".8"/><circle cx="155" cy="169" r="40" fill="#e5f1f8" fill-opacity=".7"/><path fill="#ffd9c2" fill-opacity=".6" d="M53.9 50.9L72.5 58 62.1 85.1 43.5 78z"/><path fill="#000004" fill-opacity=".5" d="M196.8 157.7l-25.3-42 25.7-15.4 25.3 42z"/><ellipse cx="255" cy="86" fill="#ff7923" fill-opacity=".6" rx="7" ry="166"/><circle cx="32" cy="59" r="16" fill="#000401" fill-opacity=".6"/><path fill="#b5a4aa" fill-opacity=".5" d="M169 8h35v64h-35z"/><path fill="#deb0a6" fill-opacity=".4" d="M72 32l49 11-15 54z"/><circle r="1" fill="#def0f1" fill-opacity=".5" transform="matrix(-5.2371 -32.40428 13.19783 -2.133 90.8 3.8)"/><path fill="#e27c30" fill-opacity=".6" d="M216.3-1.4l32-1.1 1.4 38-32 1z"/><circle r="1" fill="#020314" fill-opacity=".5" transform="rotate(-64.9 130.1 -127.3) scale(20.41272 4.2617)"/><circle r="1" fill="#6f4407" fill-opacity=".4" transform="rotate(-77.3 75.5 -73.3) scale(33.90888 24.17165)"/><ellipse cx="227" cy="94" fill="#00225b" fill-opacity=".8" rx="25" ry="46"/><path fill="#c7976c" fill-opacity=".6" d="M0 108h24v62H0z"/><path fill="#e7f2fd" fill-opacity=".5" d="M217 14l-15-30-6 82z"/><circle r="1" fill="#d9d9d5" fill-opacity=".6" transform="rotate(91.6 -27.7 32.3) scale(30.28191 9.93522)"/><path fill="#130e0c" fill-opacity=".5" d="M11 76h48v29H11z"/><path fill="#fcd2d1" fill-opacity=".5" d="M144 34h14v20h-14z"/><ellipse cx="164" cy="7" fill="#d7e3e7" fill-opacity=".6" rx="9" ry="22"/><path fill="#da905a" fill-opacity=".8" d="M236 25l21-41 4 123z"/><path fill="#c3c9d0" fill-opacity=".7" d="M131.9 116.5l39.5 5.7 11.3 9.3-69 41.3z"/><ellipse cx="111" cy="34" fill="#00000a" fill-opacity=".6" rx="12" ry="7"/><ellipse cx="209" cy="62" fill="#001b5c" fill-opacity=".5" rx="8" ry="31"/><ellipse cx="219" cy="159" fill="#111633" fill-opacity=".9" rx="23" ry="24"/><ellipse cx="103" cy="123" fill="#011447" fill-opacity=".6" rx="25" ry="33"/><ellipse cx="251" cy="151" fill="#b44c29" fill-opacity=".8" rx="8" ry="24"/><path fill="#c65600" fill-opacity=".7" d="M25 152l-41 17 36 16z"/><path fill="#c18674" fill-opacity=".7" d="M117.8 162.7l-10 21.8-.9-34.2 19 11.4z"/><circle r="1" fill="#07070e" fill-opacity=".5" transform="matrix(1.67068 14.55643 -4.24816 .48757 163.9 42.2)"/><path fill="#00020e" fill-opacity=".5" d="M55.4 47.5l3.6-4.9 35.6 25.9-3.6 4.9z"/><circle cx="130" cy="13" r="16" fill="#b99959" fill-opacity=".7"/><ellipse cx="74" cy="5" fill="#d1d2cc" fill-opacity=".9" rx="24" ry="7"/><path fill="#cd8c76" fill-opacity=".5" d="M153 96h36v19h-36z"/><path fill="#230400" fill-opacity=".4" d="M77.4 23.9l-2 20.6 10.9-23.8-20.9-10.3z"/><path fill="#eadbd2" fill-opacity=".5" d="M165 73l-47-5 51 26z"/><path fill="#000001" fill-opacity=".5" d="M190 102l-12-35 33 31z"/><path fill="#011742" fill-opacity=".7" d="M72 64h24v38H72z"/><path fill="#251e27" fill-opacity=".9" d="M181.4 126.6L195 161l-2.6-47-20.3 3.5z"/><path fill="#060202" fill-opacity=".5" d="M193.2 1.1l-7 1.3-15.4 6.4 24.6-1.7z"/><circle r="1" fill="#591209" fill-opacity=".5" transform="matrix(-6.5824 -10.95494 2.98107 -1.7912 182.4 29.6)"/><path fill="#65534c" fill-opacity=".9" d="M148.3 122.6l8.4-3-15.2-24.5-11.3 7.7z"/><path fill="#c0c5c8" fill-opacity=".5" d="M-7.8 118.5l30 2-2.4 33-30-2z"/><path fill="#c8c4bb" fill-opacity=".8" d="M54 36L5 26l1 27z"/><path fill="#bab8b3" fill-opacity=".7" d="M85.3 65.1L82 6.8l23.3 93.3-5.7-39.4z"/><circle r="1" fill="#cdc7d5" fill-opacity=".6" transform="matrix(12.35592 7.80297 -3.45291 5.46765 60.9 58.9)"/><ellipse cx="53" cy="169" fill="#141113" fill-opacity=".6" rx="30" ry="83"/><ellipse cx="173" cy="48" fill="#c6c0ba" fill-opacity=".8" rx="4" ry="29"/><ellipse cx="91" cy="169" fill="#0a1b47" rx="14" ry="51"/><path fill="#1b1e21" fill-opacity=".6" d="M9.3 105.9l23.6 3.1 12.2-70.5-29.5 14.9z"/><path fill="#0d489c" fill-opacity=".5" d="M250.4 111.7l1.1-33.2-13.7-43.2-9.5 1z"/><path fill="#00022f" fill-opacity=".6" d="M175 58.6l13.2-12.3 4.8 5.1-13.2 12.3z"/><circle cx="100" cy="82" r="7" fill="#ffb795" fill-opacity=".5"/><path fill="#ae8475" fill-opacity=".8" d="M63.3 74.3l11.4-6.8-33.2 3.6 3.6 11.1z"/><path fill="#f3ffff" fill-opacity=".4" d="M205 37l-14 6 8 26z"/><path fill="#382d27" fill-opacity=".6" d="M174.3 6.5l-3.7 9.8 20-14.4-3.6-.2z"/><path fill="#d8dce1" fill-opacity=".7" d="M119.9 162.8l84.7 22.2-8.9-21.1-23-44.1z"/><path fill="#8e6d4d" fill-opacity=".9" d="M16.6 112.6L27 102.2l-2.7 19.7-32.1-4.1z"/><path fill="#1d2026" fill-opacity=".9" d="M18.3 90.8l-8.2 6.1 30.6-56.4 11.7 24.3z"/><path fill="#9f665b" fill-opacity=".8" d="M51 45l31.3-20.2-6.2 15.5-15.5 14.9z"/></g></svg>