<svg xmlns="http://www.w3.org/2000/svg" viewBox="0 0 300 199"><defs/><path fill="#744c3f" d="M0 0h300v199H0z"/><g transform="translate(.6 .6) scale(1.17188)"><circle r="1" fill="#b4c8ce" fill-opacity=".6" transform="matrix(35.13425 16.52915 -51.48427 109.43464 212 27)"/><circle cx="76" cy="35" r="55" fill="#c4cece" fill-opacity=".6"/><circle r="1" fill="#e4ffff" fill-opacity=".6" transform="matrix(42.93551 -18.03295 12.04663 28.6824 255 132)"/><ellipse cx="119" cy="125" fill="#7ad5fb" fill-opacity=".3" rx="80" ry="65"/><ellipse cx="17" cy="58" fill="#a21d24" fill-opacity=".9" rx="24" ry="41"/><path fill="#00051a" fill-opacity=".7" d="M134 9h17v125h-17z"/><ellipse cx="212" cy="84" fill="#835b4d" fill-opacity=".8" rx="29" ry="41"/><circle r="1" fill="#390800" fill-opacity=".5" transform="matrix(8.66373 30.21402 -18.34606 5.26065 91.2 133)"/><circle r="1" fill="#f8d8cb" fill-opacity=".3" transform="matrix(15.73057 144.80237 -16.29297 1.76998 55.8 81.3)"/><circle r="1" fill="#980005" fill-opacity=".6" transform="matrix(31.10868 43.61275 -21.64252 15.43746 15.6 138)"/><circle r="1" fill="#55706e" fill-opacity=".9" transform="matrix(-19.90703 3.45428 -9.82613 -56.62809 162.7 0)"/><ellipse cx="118" cy="80" fill="#000305" fill-opacity=".6" rx="25" ry="11"/><circle r="1" fill="#490800" fill-opacity=".4" transform="matrix(-7.12042 6.75703 -21.46194 -22.61616 88.8 18.6)"/><path fill="#e6fdff" fill-opacity=".4" d="M54 171l68-23 6 25z"/><circle r="1" fill="#cdd3ee" fill-opacity=".5" transform="matrix(10.71126 -5.2706 19.09059 38.7972 175 90.4)"/><path fill="#ffffe5" fill-opacity=".5" d="M207.1-.7L201.7 43 183 40.7 188.3-3z"/><path fill="#dfeee4" fill-opacity=".6" d="M15-16l16 46 73 25z"/><path fill="#e9e9d1" fill-opacity=".8" d="M132.4-12.1L126 18.2l-28.4-6 6.4-30.4z"/><path fill-opacity=".7" d="M219.9 178.8l-24-18 10.2-13.6 24 18z"/><circle r="1" fill="#c4e0eb" fill-opacity=".5" transform="rotate(-59.1 124.2 -218.9) scale(54.84957 20.87765)"/><ellipse cx="120" cy="44" fill="#e2f7fc" fill-opacity=".8" rx="9" ry="10"/><path fill="#000101" fill-opacity=".5" d="M160 134l-25-26 24-1z"/><path fill="#ccc8ca" fill-opacity=".9" d="M47.4 127.9l8.6-25.4-20.1 14.3L67.3 185z"/><path fill="#001d31" fill-opacity=".4" d="M111.1 10.6l41 63.7-12.2-76.5-51.1 83.5z"/><path fill="#432c25" fill-opacity=".9" d="M209.4 75l-36.3-40.7-9.7 18.6 47.5.6z"/><circle r="1" fill="#c3e0d9" fill-opacity=".5" transform="matrix(4.815 -3.09117 24.58077 38.28849 104 106.6)"/><path fill="#b1cec9" fill-opacity=".5" d="M246 74h10v96h-10z"/><path fill="#ffefe7" fill-opacity=".5" d="M141.4 2.4l2.8-7.4 22.4 8.6-2.8 7.4z"/><path fill="#0e1c25" fill-opacity=".6" d="M28.5 40.6l16.7 41L34.8 31 1.7-16z"/><path fill="#844c41" fill-opacity=".6" d="M56 88l35 56-27 8z"/><path fill="#230000" fill-opacity=".7" d="M27 117.5l-8.7 8.2L-9 96.5l8.7-8.2z"/><circle r="1" fill="#693e2b" fill-opacity=".6" transform="rotate(40.8 43.6 117.2) scale(15.50897 28.56418)"/><circle r="1" fill="#845f45" fill-opacity=".5" transform="rotate(-70.5 161.2 -84.1) scale(29.27438 3.83568)"/><circle r="1" fill="#6b8f93" fill-opacity=".5" transform="matrix(-41.94133 -26.84461 13.3584 -20.87082 154.7 155.2)"/><circle r="1" fill="#d6252d" fill-opacity=".5" transform="rotate(152.5 2.8 23.1) scale(13.58338 51.79769)"/><path fill="#cfd8d2" fill-opacity=".8" d="M207.5 141.5L263 85.6l-25.9 67.3-26.3-.8z"/><path fill="#78261b" fill-opacity=".7" d="M201.3 22.2L219 2.8l-.9 14.1-5.2 16.5z"/><path fill="#04969f" fill-opacity=".8" d="M184.6 8.6l-.2 17.5-25.4-7L173.7 3z"/><path fill="#4a1300" fill-opacity=".5" d="M60-16l-17 5 3 31z"/><path fill="#c9d6f5" fill-opacity=".5" d="M160 55h19v75h-19z"/><path fill="#d6d3b5" fill-opacity=".5" d="M100 27L87 11l39 7z"/><path fill="#011f34" fill-opacity=".5" d="M149.4 126.3l-5.3-76.4-64.5 13.9 54.1-1.7z"/><path fill="#d0dde1" fill-opacity=".7" d="M82.3 32.5l16.3 7.1-4.4 13.8-23.3.2z"/><path fill="#2e1c09" fill-opacity=".4" d="M112 153.2L90.3 89.3l-12.7 24.1L97.2 169z"/><path fill="#fff" fill-opacity=".4" d="M68 85.5l6-14.8 24 9.8-6 14.8z"/><path fill="#bccae1" fill-opacity=".8" d="M106.2 166.5l12.1-27.1 10.2 45.6-61-23.5z"/><path fill="#95d0f7" fill-opacity=".3" d="M207.3 80.1l-31.8 92.3-11.3 12.6 33.4-109.6z"/><path fill="#d2eaee" fill-opacity=".5" d="M50.6 103.9l17.5 28-6.7 4.2-17.5-28z"/><circle r="1" fill="#c2d9dc" fill-opacity=".6" transform="rotate(174.9 55.7 42.5) scale(26.86828 1)"/><path fill="#8dada1" fill-opacity=".5" d="M140 85l-25 67-10-54z"/><path fill="#accfe4" fill-opacity=".5" d="M152.9 34.9l4.1-5.5 23.4-.1-24.4-8.6z"/><path fill="#001835" fill-opacity=".4" d="M153 5v30h-26V5z"/><path fill="#300" fill-opacity=".6" d="M12.3 52L4 80.7-12.3 76-4 47.2z"/><path fill="#b87449" fill-opacity=".5" d="M150 75h9v35h-9z"/><ellipse cx="126" cy="65" fill="#d1f2ef" fill-opacity=".6" rx="9" ry="4"/><circle r="1" fill="#915f4e" fill-opacity=".6" transform="matrix(17.9853 -24.88415 14.38457 10.3966 217.8 106)"/><path fill="#655c55" fill-opacity=".8" d="M220.1 126.4l31.8-30.5-23.4-40.5L271 32.5z"/><ellipse cx="251" cy="162" fill="#94a499" fill-opacity=".8" rx="24" ry="9"/><path fill-opacity=".5" d="M92 73h24v6H92z"/><path fill="#b97f67" fill-opacity=".5" d="M16 107l42-4 14-45z"/><path fill="#cddef5" fill-opacity=".6" d="M166 87l22-29-38-4z"/><ellipse cx="46" cy="77" fill="#dbf5fe" fill-opacity=".5" rx="4" ry="14"/><path fill="#906151" fill-opacity=".6" d="M151.2 44.5L169 23.1l4.2 37.9-1.3-.9z"/><path fill="#070000" fill-opacity=".6" d="M187 10l-9-26h-36z"/><ellipse cx="115" cy="85" fill-opacity=".7" rx="18" ry="4"/></g></svg>