<svg xmlns="http://www.w3.org/2000/svg" viewBox="0 0 300 199"><defs/><path fill="#474648" d="M0 0h300v199H0z"/><g transform="translate(.6 .6) scale(1.17188)"><circle cx="130" cy="96" r="175" fill="#fffcf0" fill-opacity=".5"/><circle r="1" fill="#2c1a05" fill-opacity=".5" transform="matrix(13.87635 35.1009 -28.75683 11.36837 150.4 89.8)"/><ellipse cx="126" cy="164" fill="#feffff" fill-opacity=".8" rx="117" ry="22"/><circle r="1" fill="#443526" fill-opacity=".5" transform="matrix(-83.41487 71.4952 -13.87282 -16.1857 12.3 129.5)"/><circle r="1" fill="#eff8fe" fill-opacity=".6" transform="rotate(-31.4 167.8 -408.1) scale(31.21677 218.14805)"/><path fill-opacity=".6" d="M227 155l17-18-27-63z"/><path fill="#fffff3" fill-opacity=".6" d="M54 105l25-23-23 95z"/><path fill="#804600" fill-opacity=".4" d="M174 98h29v45h-29z"/><circle r="1" fill-opacity=".5" transform="matrix(18.84263 -4.54307 1.08424 4.49696 175.3 46.5)"/><circle cx="82" cy="74" r="16" fill="#5a2200" fill-opacity=".6"/><path fill="#000002" fill-opacity=".5" d="M207 39l15 13-3 38z"/><path fill="#3d3c28" fill-opacity=".6" d="M126 114h18v30h-18z"/><path fill="#34373a" fill-opacity=".5" d="M35 80h15v75H35z"/><path fill="#dde2e4" fill-opacity=".8" d="M180.5 42.3l52.4-10.9L271 7.3 175.9-16z"/><circle r="1" fill="#ddd0c7" fill-opacity=".4" transform="matrix(12.30275 -50.0856 15.11809 3.71352 107.8 110.8)"/><path fill="#b4c2c9" fill-opacity=".6" d="M35.2 108.3l-19.4 18.8-9-9.4 19.4-18.8z"/><path fill="#2e3638" fill-opacity=".6" d="M157 122.2l-1-58 23-.4 1 58z"/><path fill="#120702" fill-opacity=".6" d="M118.2 60.8l23.7 3.4-6.4-10.4-7.8-.1z"/><path fill="#ebe6e2" fill-opacity=".9" d="M70.9 185L67.7 84.4l-16.2 56.7-15.7 26z"/><path fill="#152537" fill-opacity=".5" d="M2 128h23v29H2z"/><path fill="#ced2d4" fill-opacity=".4" d="M271 98l-64-87 45 168z"/><path fill="#000002" fill-opacity=".8" d="M2.4 104.1l12.8-5.7 2.4 5.5-12.8 5.7z"/><path fill="#91674c" fill-opacity=".7" d="M82 138.9l26.1-22.8-24.8 3-12.6-2.8z"/><path fill="#000003" fill-opacity=".3" d="M209.7 126.4l26.8 29.9 15.4-32.6-17.6-13z"/><ellipse cx="197" cy="66" fill="#e4f3fe" fill-opacity=".4" rx="16" ry="21"/><circle r="1" fill="#f4efe8" fill-opacity=".7" transform="matrix(-21.15013 3.76741 -2.50521 -14.06418 16.1 169)"/><path fill="#363635" d="M211.5 48l-8.5-7.9h-10l-15 3.4z"/><circle r="1" fill="#bbc2c1" fill-opacity=".5" transform="rotate(-109.7 69.8 -31.8) scale(31.19494 60.31387)"/><path fill-opacity=".5" d="M185 127h9v15h-9z"/><path fill="#fffffc" fill-opacity=".3" d="M165.9 111.6l-1.9 12.9-27.5-7.5 82.5 68z"/><path fill="#68441f" fill-opacity=".5" d="M51.7 91.8L62.3 95l-12 39.2-10.6-3.2z"/><path fill="#fff" fill-opacity=".5" d="M113.8 108.2l15.4 12.9-9 10.7-15.4-12.9z"/><path fill="#42493f" fill-opacity=".6" d="M123.7 135.5l-22.3-14.9 17.7 24.1 54-3.4z"/><path fill="#242422" fill-opacity=".8" d="M214.5 52.9l3.7 14.8 17.1 78.7-15.5-88.7z"/><path fill="#cacbca" d="M108.3 129l-2.9 23.3-29 5.1-37.6-2.8z"/><circle r="1" fill="#a7aba8" fill-opacity=".9" transform="matrix(17.26074 -7.01865 3.98285 9.7949 50.9 68.7)"/><path fill="#d1dcdd" fill-opacity=".5" d="M146 66l4-15h-16z"/><path fill="#614830" fill-opacity=".4" d="M152.8 99.3l8.4-64.6L144 69.5l-35.7 8.7z"/><path fill="#98663b" fill-opacity=".6" d="M95.1 59.5l-7.2 47.2-14.5-6-3.1 22.9z"/><path fill="#b68550" d="M192.6 114.6l3.5 28.7 14.5 1.8-14.2-61.9z"/><path fill="#9ea09d" fill-opacity=".9" d="M33 108l9-80L2 87z"/><path fill="#d3d8da" fill-opacity=".5" d="M229 110L212 7l59 114z"/><path fill="#aba091" fill-opacity=".6" d="M237 130h7v40h-7z"/><path fill="#010708" fill-opacity=".5" d="M181.3 49l-23.8-4-6.6 13.5 36.6-18.9z"/><path fill="#d7e5ea" fill-opacity=".5" d="M156 56h14v8h-14z"/><path fill="#fcf4e5" fill-opacity=".4" d="M78.9 112l-.1-25.4-20 3.7 60 28.2z"/><path fill="#fcfffe" fill-opacity=".6" d="M114 143h87v26h-87z"/><path fill="#040000" fill-opacity=".5" d="M246.6 155L218 124.6l22-3.5-8.2 29.2z"/><path fill="#cdcac4" fill-opacity=".6" d="M225.7 185l.4-48.3-27.2 15 48.7 2.7z"/><circle r="1" fill="#cdd3d8" fill-opacity=".5" transform="matrix(3.62837 28.3239 -8.01402 1.02662 210.9 103.6)"/><circle r="1" fill="#b8c3cd" fill-opacity=".6" transform="matrix(.80736 -17.38301 4.36129 .20256 0 127)"/><path fill="#e2d9bc" fill-opacity=".4" d="M180 81h8v42h-8z"/><path fill="#322615" fill-opacity=".6" d="M84 135h3v12h-3z"/><path fill="#a18866" fill-opacity=".5" d="M150 93l-29-12 26 54z"/><path fill="#40473d" fill-opacity=".3" d="M119.6 13.5l14.7-2.4-4.5-20.5-4.4-6.6z"/><path fill="#dde5e9" fill-opacity=".6" d="M26 168l-1-.2 5-47.7h1z"/><path fill="#d2c1b8" fill-opacity=".4" d="M135.5 65.8L88.2 55.7l44.9 46.7-51.1 5.9z"/><path fill="#0a0d12" fill-opacity=".7" d="M7.4 116.6l-6.5-8.3 24.8-5.2-13.6-3.1z"/><path fill="#2c3430" fill-opacity=".5" d="M51.5 10.4l66.7-17.8.3 1-66.7 17.8z"/><path fill="#564d3e" fill-opacity=".6" d="M118.2 104.6l23.1 11.9-18.2 15.6 15.1 4.2z"/><path fill="#141d0a" fill-opacity=".4" d="M154.3 115.6l12.6-12.8 14.4 1.7-1.5 15.9z"/><circle r="1" fill="#966734" fill-opacity=".5" transform="matrix(-5.57213 -2.84761 10.94052 -21.40812 60.8 89)"/><ellipse cx="94" cy="105" fill="#f4ffff" fill-opacity=".5" rx="5" ry="13"/><path fill="#55310f" fill-opacity=".4" d="M95 71.8l25.9-2.2-58.3 19.6L75.9 54z"/><path fill="#434442" fill-opacity=".7" d="M40 81l17-2-16 58z"/></g></svg>