<svg xmlns="http://www.w3.org/2000/svg" viewBox="0 0 300 199"><defs/><path fill="#594034" d="M0 0h300v199H0z"/><g transform="translate(.6 .6) scale(1.17188)"><circle r="1" fill="#d0d3d7" transform="matrix(33.97381 -40.40538 32.41998 27.2595 117.7 117.5)"/><ellipse cx="207" cy="74" fill="#2a1205" fill-opacity=".8" rx="38" ry="169"/><circle r="1" fill="#0f0200" fill-opacity=".7" transform="matrix(-25.86985 41.89702 -28.05566 -17.32333 37 137.3)"/><ellipse cx="77" cy="79" fill="#fff" fill-opacity=".5" rx="13" ry="19"/><circle cx="155" cy="95" r="20" fill="#e6e8ea" fill-opacity=".7"/><circle r="1" fill="#161303" fill-opacity=".7" transform="matrix(19.216 27.33876 -35.26833 24.78957 158.5 37.8)"/><path fill="#dbe5ec" fill-opacity=".6" d="M74 100h51v70H74z"/><circle cy="67" r="62" fill="#443022" fill-opacity=".9"/><circle cx="255" cy="139" r="18" fill="#a4aab9" fill-opacity=".5"/><ellipse cx="180" cy="154" fill="#280900" fill-opacity=".6" rx="22" ry="54"/><ellipse cx="236" cy="96" fill="#2a0c00" fill-opacity=".9" rx="31" ry="25"/><path fill="#dfb89c" fill-opacity=".5" d="M67.7 81.3l1.7-32 25 1.4-1.8 32z"/><path fill="#d3b093" fill-opacity=".5" d="M223 121l-25-2-14-15z"/><ellipse cx="117" cy="64" fill="#5d6028" fill-opacity=".7" rx="30" ry="9"/><circle r="1" fill="#3d2b20" transform="matrix(34.40344 -3.112 2.4881 27.50612 228.6 10.2)"/><path fill="#cbc6c7" fill-opacity=".5" d="M155.2 71.5l-79.3 1.6 71.8 82.1 29.9-68.5z"/><path fill="#432d1a" fill-opacity=".6" d="M174-16l-66 77-54-51z"/><path fill="#1d0803" fill-opacity=".6" d="M153.9 151.7l88.7 31.5 28.4-22.5-116.5-28.3z"/><circle r="1" fill="#110402" fill-opacity=".7" transform="matrix(54.60466 5.44384 -1.60288 16.07772 175.8 44.2)"/><path fill="#a9b3be" fill-opacity=".4" d="M101 182l52-34-89-2z"/><circle r="1" fill="#130000" fill-opacity=".6" transform="matrix(9.98577 -24.2585 56.88385 23.41567 28.4 168.6)"/><path fill="#050000" fill-opacity=".5" d="M74 104l-10-9 12-6z"/><path fill="#776a68" fill-opacity=".4" d="M232.7 63.5l8.3-25.7 14.3 4.7-8.3 25.7z"/><circle r="1" fill="#ebf3f4" fill-opacity=".4" transform="rotate(-138.6 76.8 42.4) scale(40.87282 18.70176)"/><ellipse cx="165" cy="53" fill="#0c0201" fill-opacity=".6" rx="13" ry="24"/><ellipse cx="57" cy="13" fill="#693e1e" fill-opacity=".3" rx="40" ry="58"/><path fill="#b99889" fill-opacity=".7" d="M157.9 73.5l-31.3-.8 49.8 15.1-2.1-5.9z"/><path fill="#120100" fill-opacity=".8" d="M252 56h4v21h-4z"/><path fill="#7b747c" fill-opacity=".6" d="M75.7 129.3l4 55.7 7-.6-18.8-23.6z"/><circle r="1" fill="#737735" fill-opacity=".6" transform="matrix(22.63532 -8.78577 2.12027 5.46257 120 61.4)"/><path fill="#401b03" fill-opacity=".5" d="M159.4 124L195 73.1 210.6 84 175 134.8z"/><circle r="1" fill="#4b200b" fill-opacity=".5" transform="matrix(-.2472 -14.34736 27.51544 -.47409 221 129.1)"/><path fill="#160000" fill-opacity=".3" d="M85 185l58-27 83 16z"/><path fill="#231f0b" fill-opacity=".6" d="M213 25.7l-93.5 43.9 45.9 5.4-14-91z"/><path fill="#d6c08f" fill-opacity=".3" d="M164.1 159.5l-94-20.6 71.5 15.7 7.3-19.7z"/><path fill="#edf5fa" fill-opacity=".4" d="M163 112l9-28-57-14z"/><path fill="#30383d" fill-opacity=".6" d="M17.8 94.9l32 10.1-65.8 50.4L19.7 90z"/><path fill="#faebe7" fill-opacity=".3" d="M79.9 80.2l8-34 8.2 6.7-22.6 21.3z"/><path fill="#9b9fa7" fill-opacity=".4" d="M253.6 111.7l4.3 45.1-19.6-5.6 32.7-34.4z"/><path fill="#2c1f0c" fill-opacity=".5" d="M87.5 65.3L128 13l23 37.9-43.1 8.4z"/><circle cx="47" cy="137" r="26" fill="#220800" fill-opacity=".5"/><path fill="#170b09" fill-opacity=".5" d="M73 79h6v6h-6z"/><path fill="#936d4f" fill-opacity=".4" d="M48.7 24.9l-14-5.4 8.6-22.4 14 5.4z"/><path fill="#ceb4ae" fill-opacity=".5" d="M96 81L67 46l18 60z"/><path fill="#6b6b72" fill-opacity=".4" d="M121.5 102.2l.8-.7 32.2 38.3-.8.7z"/><path fill="#ffecd3" fill-opacity=".3" d="M188.6 113.1l1-1 11.1-.4 6.8 7.4z"/><path fill="#ede7ec" fill-opacity=".5" d="M66 91l2-23 5 21z"/><path fill="#64564e" fill-opacity=".4" d="M156 28l-36-44 14 42z"/><path fill="#a9b1b8" fill-opacity=".3" d="M73 100h9v55h-9z"/><path fill="#150000" fill-opacity=".4" d="M204.6 76.4L222 33.7l19.5 8L224 84.2z"/><path fill="#4f3a2b" fill-opacity=".7" d="M100-4L57-9l23 71z"/><path fill="#7f4926" fill-opacity=".2" d="M128.5 95.3l21.8 9.8-30.2-20-58.6-29z"/><path fill="#acb1b9" fill-opacity=".5" d="M156.3 144.4l-7.1-2.9-79.5 35.2 63.6-15.5z"/><path fill="#202100" fill-opacity=".5" d="M92 66h8v8h-8z"/><circle r="1" fill="#744c1f" fill-opacity=".5" transform="matrix(-.669 2.34855 -22.12303 -6.30191 218 142.6)"/><path fill="#432214" fill-opacity=".7" d="M175.1 117.9l-25.8 24.9 51.4-23.4L173.6 98z"/><path fill="#864b04" fill-opacity=".4" d="M157.6 144l-9 10.7-6.7 19.8 20-13.8z"/><path fill="#431c00" fill-opacity=".3" d="M52.4 44.5l24.7 20.8L9 79.8l67.9-37.1z"/><path fill="#0b0000" fill-opacity=".7" d="M148 55l23 24-12-85z"/><path fill="#040000" fill-opacity=".5" d="M211 124h26v9h-26z"/><path fill="#c0a493" fill-opacity=".8" d="M96.1 93.4l-7.3-31.7 10.4-12.6-20.5 16.8z"/><circle r="1" fill="#7b6e67" fill-opacity=".5" transform="matrix(-7.74312 -1.64077 .54427 -2.5685 218.8 121.2)"/><path fill="#64723d" fill-opacity=".5" d="M154.6 65.8l-3 5.2-12.2-6.8 3-5.2z"/><ellipse cx="220" cy="28" fill="#4b3932" fill-opacity=".6" rx="24" ry="8"/><path fill="#533d34" fill-opacity=".6" d="M52 71h14v26H52z"/></g></svg>