<svg xmlns="http://www.w3.org/2000/svg" viewBox="0 0 300 199"><defs/><path fill="#5e3c2f" d="M0 0h300v199H0z"/><g transform="translate(.6 .6) scale(1.17188)"><circle r="1" fill="#e2fff3" fill-opacity=".6" transform="matrix(-17.36543 -71.47477 108.20457 -26.28926 57 7.7)"/><circle r="1" fill="#fee9c6" fill-opacity=".6" transform="matrix(81.36806 2.1112 -1.03457 39.8735 203.3 148.2)"/><circle r="1" fill="#d9dfc6" fill-opacity=".5" transform="matrix(-52.23169 -123.05014 22.20045 -9.42353 248.9 36.7)"/><circle r="1" fill="#c2d1ba" fill-opacity=".6" transform="rotate(-102.6 64 35.2) scale(90.94916 15.43951)"/><circle r="1" fill="#bfdfda" fill-opacity=".7" transform="matrix(14.98741 27.26078 -11.88689 6.53516 125.9 57.6)"/><circle r="1" fill="#00000c" fill-opacity=".5" transform="matrix(21.02552 44.08092 -20.59276 9.82224 86 115.6)"/><ellipse cx="197" cy="85" fill="#1c1101" fill-opacity=".5" rx="26" ry="36"/><path fill="#232524" fill-opacity=".8" d="M-16 60.6l23.7 101L48.3 185l-34-118.8z"/><path fill="#21232d" d="M112.7 158.7l-48 26.3 58.8-116.2 15.6 37.6z"/><ellipse cx="152" cy="132" fill="#f0e8de" fill-opacity=".5" rx="28" ry="15"/><circle r="1" fill="#878179" fill-opacity=".8" transform="matrix(31.70226 11.85959 -6.19672 16.56466 94 62.3)"/><circle r="1" fill="#dbeaea" fill-opacity=".6" transform="matrix(5.01454 17.11688 -37.4601 10.97428 146.9 0)"/><path fill="#c2d9cf" fill-opacity=".6" d="M271-4l-38 24-46-24z"/><path fill="#d39d8a" fill-opacity=".4" d="M200.8 119.6l55.3-64.4 14.1-6.5-41.1 68.1z"/><path fill="#2c0e00" fill-opacity=".3" d="M271 22l-70 88L245 7z"/><path fill="#e0dee8" fill-opacity=".6" d="M135 57l3 52 7-24z"/><path fill="#102724" fill-opacity=".5" d="M132 48l91-21-54-20z"/><path fill="#8eac9a" fill-opacity=".5" d="M169 60l-5.7-14L201 30l5.9 13.8z"/><path fill="#bfbca8" fill-opacity=".6" d="M19 0h37v101H19z"/><path fill="#11201b" fill-opacity=".5" d="M143 35h25v83h-25z"/><path fill="#bdc5bd" d="M89.4 42.4L82.3.5 57.1-16 93.3 84.6z"/><ellipse cx="116" cy="163" fill="#061229" fill-opacity=".7" rx="8" ry="89"/><path fill="#290800" fill-opacity=".5" d="M65 44h14v13H65z"/><ellipse cx="81" cy="125" fill="#000e0e" fill-opacity=".4" rx="15" ry="54"/><ellipse cx="97" cy="169" fill="#8a9174" fill-opacity=".5" rx="6" ry="34"/><path fill-opacity=".8" d="M97.4 49.7l13-.4.2 5-13 .4z"/><path fill="#eff" fill-opacity=".4" d="M109 104l4-27-6 13z"/><path fill="#bec9b8" fill-opacity=".6" d="M266.5 9.3l-45-5.8L271 91.7 217.6 18z"/><circle r="1" fill="#9e6649" fill-opacity=".4" transform="matrix(9.9095 -31.62125 9.1903 2.88007 13.2 85.5)"/><ellipse cx="131" cy="67" fill="#d0e0d1" fill-opacity=".4" rx="21" ry="10"/><path fill="#d5c4b0" fill-opacity=".7" d="M258.4 138l-34.8-3 2-23 34.8 3z"/><path fill="#2a2315" fill-opacity=".5" d="M220.3 8.8l10.6 73.4 8.8 9.3-47.2 5.9z"/><path fill="#dbb9a7" fill-opacity=".6" d="M243 90l28-50-39 30z"/><path fill="#eef9f9" fill-opacity=".5" d="M152.9 29L126 46.6l-4.9-7.6L148 21.5z"/><path fill="#dbe7de" fill-opacity=".4" d="M49 13h15v59H49z"/><circle r="1" fill="#000e15" fill-opacity=".6" transform="matrix(11.87254 -7.0605 16.822 28.28692 25.7 158.2)"/><path fill="#c19a77" fill-opacity=".6" d="M126.9 179l-4.6-43.8L143 133l4.6 43.8z"/><path fill="#000019" fill-opacity=".5" d="M142 119l-12-47-10 45z"/><path fill="#937d74" fill-opacity=".8" d="M78.9 87l-9.4-38.6 15.6-.3L96-16z"/><path fill="#000206" fill-opacity=".5" d="M57 79l33 49-20-62z"/><path fill="#8c5026" fill-opacity=".4" d="M165 101l57 10-21 22z"/><path fill="#ecaea9" fill-opacity=".5" d="M76 142h7v6h-7z"/><path fill="#cac4bc" fill-opacity=".7" d="M162.9 135.6l4 42.3-21.1-36.8 32.4-40.3z"/><circle r="1" fill="#6b765f" fill-opacity=".5" transform="matrix(4.75221 26.13263 -13.53238 2.46086 60.6 159.9)"/><path fill="#b9bca9" fill-opacity=".4" d="M33 17h24v127H33z"/><path fill="#324523" fill-opacity=".4" d="M87 11h20v6H87z"/><path fill="#744d3f" d="M248.4 87.9l22.6 34.3-30.2-10.5-3.4-22.3z"/><ellipse cx="249" cy="16" fill-opacity=".6" rx="10" ry="3"/><path fill="#7d2426" fill-opacity=".6" d="M102 76h6v54h-6z"/><path fill="#47291f" fill-opacity=".6" d="M244 40h12v10h-12z"/><path fill="#0f1c2e" fill-opacity=".7" d="M89.4 83.8l12.6-5.2-2.6 28.9-27.1-48.2z"/><ellipse cx="94" cy="44" fill="#edffff" fill-opacity=".4" rx="3" ry="17"/><path fill="#d7fafb" fill-opacity=".5" d="M203.8 35.4l8-.8.4 4-8 .8z"/><path fill="#040000" fill-opacity=".3" d="M172.1 50.2l34.5 44.1.4 20.4-21.7-4.1z"/><path fill="#f1ffff" fill-opacity=".5" d="M61.2 57l1.5-1.2 16.1 19.1-1.5 1.3z"/><path fill="#744f36" fill-opacity=".5" d="M183.6 76l22.3 5L217 67.6l-10.1-7.9z"/><path fill="#c4cec5" fill-opacity=".8" d="M56.7 54.6l15.7-16.4L92.2 6.3 49 19z"/><circle r="1" fill="#aec6bf" fill-opacity=".7" transform="matrix(-11.48219 1.4542 -2.7638 -21.8227 125.4 57.2)"/><path fill="#2c2f1a" fill-opacity=".5" d="M48.8 8.8l-59.5 7.4-.1-1 59.5-7.4z"/><path fill="#10315d" fill-opacity=".4" d="M87.4 86.1l21.3 7.9 16.2-29.6 4.4 33.6z"/><path fill="#eaffff" fill-opacity=".5" d="M140 112l1-20h1l-1 20z"/><path fill="#9d7e5c" fill-opacity=".5" d="M227.2 170.5l-8.2-13.1 33-9.3-1.6 23.7z"/><path fill="#332e25" fill-opacity=".9" d="M172.8 105.3l1.2-19.6-28.4 32.7 24.1-4.6z"/><path fill="#19231d" fill-opacity=".5" d="M174-15l24 49 26 2z"/><path fill="#262417" fill-opacity=".4" d="M195 89.8L136.4 60l1.8-18.6 5.4-7.6z"/></g></svg>