<svg xmlns="http://www.w3.org/2000/svg" viewBox="0 0 299 449"><defs/><path fill="#57423a" d="M0 0h299v449H0z"/><g transform="translate(.9 .9) scale(1.7539)"><circle r="1" fill="#f8fff2" fill-opacity=".6" transform="matrix(56.5314 -20.24117 57.3062 160.04998 68.7 160.7)"/><ellipse cx="94" cy="1" fill="#949790" rx="170" ry="23"/><circle r="1" fill="#5c4d3f" fill-opacity=".8" transform="matrix(-38.5094 9.74438 -6.71983 -26.55652 121.6 133.3)"/><circle cx="86" cy="255" r="114" fill="#ebfffc" fill-opacity=".2"/><path fill="#e0fcf6" fill-opacity=".4" d="M148 84.6l18 43.1 1-76.1L134.5-16z"/><ellipse cy="74" fill="#3e482d" fill-opacity=".5" rx="21" ry="77"/><circle r="1" fill-opacity=".5" transform="matrix(26.65276 -9.54015 12.64352 35.3228 109 56)"/><path fill="#332b14" fill-opacity=".5" d="M61 195l-11 76-10-30z"/><circle r="1" fill="#fffffa" fill-opacity=".4" transform="matrix(-35.20239 -30.95161 25.58757 -29.10167 62.9 181.6)"/><path fill="#f0f6f5" fill-opacity=".5" d="M71-16l6 72L87 2z"/><circle r="1" fill="#d7d5d0" fill-opacity=".5" transform="matrix(-15.55611 -2.99563 16.49065 -85.63471 42.8 96)"/><circle r="1" fill="#91968b" fill-opacity=".5" transform="matrix(71.81033 -88.20561 19.3059 15.7174 121.4 240.7)"/><path fill="#6f6252" fill-opacity=".7" d="M-16 235.4l7.4-3.2L89.6 12.4l-36.4 75z"/><path fill="#493d33" fill-opacity=".5" d="M160.9 16.9L88.4 155.4l88.9.4-56.5 17.4z"/><path fill="#fff" fill-opacity=".4" d="M143 63l20-1-2 52z"/><path fill="#432c19" fill-opacity=".5" d="M65 0h8v70h-8z"/><ellipse cx="83" cy="123" fill="#ffd6cc" fill-opacity=".6" rx="25" ry="6"/><circle r="1" fill="#060605" fill-opacity=".5" transform="matrix(1.9648 -.31673 6.59016 40.88105 33.4 32)"/><path fill-opacity=".4" d="M94.8-18.7l15.9-2 10.5 85.4-15.9 2z"/><path fill="#302616" fill-opacity=".5" d="M81.4 128.5l27.6 23-8.4 10-27.6-23z"/><ellipse cx="57" cy="81" fill="#e6ddd4" fill-opacity=".5" rx="10" ry="89"/><path fill="#3b2d09" fill-opacity=".3" d="M68.2 192.3L35.8 271l17.8-69.2 7.9-22.8z"/><path fill="#f4ffff" fill-opacity=".5" d="M21.3 268.4l-20.6 10-18-36.8 20.6-10z"/><circle r="1" fill="#656e67" fill-opacity=".8" transform="matrix(-13.39722 9.39706 -12.19699 -17.38903 149.6 40.3)"/><circle r="1" fill="#a77b5f" fill-opacity=".6" transform="matrix(1.83168 12.32281 -25.8691 3.84522 95.4 103.8)"/><path fill="#e9e6e6" fill-opacity=".5" d="M166 0v18h-30V0z"/><path fill="#fff" fill-opacity=".5" d="M20.8 152.3l-10-4.8 22.4-45.8 10 4.8z"/><circle r="1" fill="#e4eaef" fill-opacity=".5" transform="matrix(-10.23898 -57.71756 4.85137 -.86062 30 65.3)"/><circle r="1" fill="#6a6055" fill-opacity=".6" transform="rotate(-99.5 50.5 19.8) scale(96.92687 2.1597)"/><path fill="#ffb3e1" fill-opacity=".5" d="M96 138h10v11H96z"/><circle r="1" fill="#9a9079" fill-opacity=".5" transform="rotate(111.4 -32.7 60.2) scale(38.89531 12.93705)"/><path fill="#ffd5b9" fill-opacity=".3" d="M75 64h24v36H75z"/><circle r="1" fill="#5d6252" fill-opacity=".6" transform="matrix(25.2066 -30.68702 19.33172 15.87926 158.4 144)"/><path fill="#a2a090" fill-opacity=".5" d="M155 186l-39-35 35 120z"/><path fill="#200600" fill-opacity=".5" d="M110 152l-7-18 23-17z"/><path fill="#9d9e9c" fill-opacity=".6" d="M95.8 235.1L79 255.2 45.9 271l10.6-46z"/><path fill="#000c09" fill-opacity=".5" d="M168 9h3v112h-3z"/><ellipse cx="133" cy="28" fill="#352e26" fill-opacity=".7" rx="2" ry="77"/><circle r="1" fill="#f0ece9" fill-opacity=".4" transform="matrix(16.80656 -.62792 1.49358 39.97628 81.7 183)"/><circle r="1" fill="#fabad2" fill-opacity=".7" transform="matrix(-1.66214 6.49829 -3.44766 -.88185 101.3 126.2)"/><circle cy="39" r="16" fill="#2b433f" fill-opacity=".5"/><path fill-opacity=".3" d="M120.2 17.3l32.1 76.4 7.2 46-62-114.8z"/><path fill="#d7deda" fill-opacity=".4" d="M95.4 23.7L82 29.6l-8.5 31.6L100.2-16z"/><path fill="#f9f4eb" fill-opacity=".5" d="M28 151l-1 70-12-35z"/><path fill="#5e5b50" d="M-16 228.3l29.8-11.6-5.1-48.9-24.7-48.6z"/><path fill="#e9e4de" fill-opacity=".3" d="M84 220l-30-77 98 41z"/><ellipse cx="71" cy="62" fill="#886547" fill-opacity=".6" rx="3" ry="36"/><circle r="1" fill="#414d45" fill-opacity=".6" transform="matrix(1.69296 35.89912 -7.41225 .34955 167.7 251.6)"/><path fill="#defffc" fill-opacity=".2" d="M186 27.8l-63.5-11.2L137 46.3l8.8-16.2z"/><path fill="#765741" fill-opacity=".4" d="M90.1 9L35.6 125.4l2 .8 5.9-5z"/><path fill="#d3d7d0" fill-opacity=".2" d="M107.3 110.7l31.7-4.2-2.3 15.7-88.8-84.1z"/><path fill="#1a1a17" fill-opacity=".5" d="M64 0h8v26h-8z"/><path fill="#372816" fill-opacity=".5" d="M110.4 105.8l-10.9 11.5 43 10.5-31.3 19.5z"/><path fill="#b2af9e" fill-opacity=".5" d="M45 169l-7 90-11-45z"/><path fill="#333520" fill-opacity=".7" d="M86.5 126.6l-2.8 1.4 5.9 25.3L99 157z"/><path fill="#5a3f31" fill-opacity=".5" d="M114.9 59.8L81 65.3l-3.4-18 43.8 68.9z"/><path fill="#fadcc2" fill-opacity=".4" d="M74 154l-6-91-21 48z"/><path fill="#7e8479" fill-opacity=".4" d="M52 62L30-8l21 22z"/><path fill="#a3a39c" fill-opacity=".4" d="M104.4 19.3L115.3-12l23.2 51.5-2.4-12.3z"/><path fill="#f3f9f1" fill-opacity=".4" d="M5.7 165.5L.2 144.4l5.7 10.2L43 90.2z"/><ellipse cx="21" cy="10" fill="#b5bfbf" fill-opacity=".5" rx="6" ry="49"/><path fill="#b5b4a9" fill-opacity=".7" d="M15.9 220L3.2 246.7l9.3-25.4-23.6 1.4z"/><path fill="#84837a" fill-opacity=".9" d="M89 28.1L87.4-16l-.8 32-15.2 26.4z"/><path fill="#e7e9e7" fill-opacity=".5" d="M97-12L74 37l-1-23z"/><path fill="#f5f3eb" fill-opacity=".5" d="M22.8 167.1l16-37.7 8.4 3.5-16 37.7z"/></g></svg>