<svg xmlns="http://www.w3.org/2000/svg" viewBox="0 0 300 199"><defs/><path fill="#444c4b" d="M0 0h300v199H0z"/><g transform="translate(.6 .6) scale(1.17188)"><circle r="1" fill="#fdfbfb" fill-opacity=".7" transform="rotate(-6.5 852.7 -1209.5) scale(80.82983 136.7889)"/><circle r="1" fill="#020202" fill-opacity=".8" transform="rotate(-94.5 147.9 1.5) scale(61.96938 28.14432)"/><circle r="1" fill-opacity=".9" transform="matrix(36.74428 4.48745 -19.5915 160.41972 21.7 75.3)"/><circle r="1" fill-opacity=".8" transform="matrix(-24.90748 5.07095 -38.68522 -190.0139 244.7 50.2)"/><circle r="1" fill="#f6f6f6" fill-opacity=".8" transform="matrix(59.06162 -77.81082 37.26601 28.28644 125.5 46.5)"/><path fill-opacity=".7" d="M32 121h43v49H32z"/><circle r="1" fill-opacity=".6" transform="rotate(61.1 -8 275.2) scale(36.37801 15.87455)"/><circle r="1" fill="#191919" fill-opacity=".5" transform="matrix(27.60105 13.32341 -8.8551 18.3444 159.2 111.3)"/><circle r="1" fill="#f2f3f3" fill-opacity=".9" transform="matrix(-22.5991 -49.36071 18.3965 -8.42258 184 68.2)"/><path fill="#fff" fill-opacity=".4" d="M74 47h58v123H74z"/><path fill="#fff" fill-opacity=".5" d="M155 117V99l-6 3z"/><path fill="#030608" fill-opacity=".4" d="M87 139h95v7H87z"/><circle r="1" fill="#e7e9e8" fill-opacity=".9" transform="matrix(20.40387 -11.95278 8.8437 15.09654 89.8 3.4)"/><path fill="#999d9f" d="M192.4 30l19.8 9.2-8-55.2-11 4.1z"/><path fill="#0b0d0d" fill-opacity=".5" d="M50 24h34v9H50z"/><path fill="#d3d7d9" fill-opacity=".5" d="M224 73l8 39-54 19z"/><path fill="#c8cacc" fill-opacity=".7" d="M55 104l33 12-35 4z"/><path fill="#070707" fill-opacity=".8" d="M271 118.3l-60.3-1.8 6.3 7.3 10 61.2z"/><path fill="#0d0d0d" fill-opacity=".9" d="M185.3 115l-5.9-17.8-21.3.2 6 87.6z"/><path fill-opacity=".5" d="M187.1 23.7l22 1.9-7.8 6.7-5.6-3.5z"/><path fill="#fff" fill-opacity=".6" d="M169.7 160h5l-.4 18h-5z"/><circle r="1" fill="#8f969d" fill-opacity=".5" transform="rotate(175.3 103.2 83) scale(8.44871 36.16826)"/><path fill="#fbfbfb" fill-opacity=".7" d="M211.2 88.9l-2.4 18.4-45.6-13.4-10.5-34.5z"/><path fill-opacity=".5" d="M138 89h9v81h-9z"/><circle r="1" fill="#fefefe" fill-opacity=".6" transform="matrix(-20.71153 -12.54335 21.08705 -34.81886 108.1 102)"/><path fill="#0a0909" fill-opacity=".8" d="M-16 132l81 53 12-65z"/><path fill="#fdfdfd" fill-opacity=".5" d="M187 36h12v129h-12z"/><path fill="#080808" fill-opacity=".9" d="M254.4-16L205.5.9l26.6 103.7 38.9 66.3z"/><path fill="#fff" fill-opacity=".5" d="M158 161h3v9h-3z"/><path fill-opacity=".6" d="M188 156l-21 4 19-14z"/><path fill="#f3f4f5" fill-opacity=".4" d="M207 19l-1-16-46 30z"/><path fill="#e9e8e8" fill-opacity=".5" d="M156 131h2v20h-2z"/><path fill="#fbfbfb" fill-opacity=".4" d="M157.9 107.9l-3.6-15.3-8.3 12.6 5.6 7.4z"/><circle r="1" fill="#ecf0f1" fill-opacity=".4" transform="matrix(-5.40344 -24.73201 21.22978 -4.63827 93.6 169)"/><path fill="#f7f7f6" fill-opacity=".4" d="M67 107l106-28L64 24z"/><circle r="1" fill="#f9f9f9" fill-opacity=".8" transform="matrix(-.30102 -6.75991 4.8389 -.21548 187.5 132.5)"/><path fill="#fff" fill-opacity=".4" d="M132 143v-28l-54 8z"/><path fill="#eaebea" fill-opacity=".6" d="M114 29L74-16l-8 35z"/><path fill="#060808" fill-opacity=".4" d="M171.3 167.1l-43 12 6.9-78.2 28.6 84.1z"/><path fill="#eee" fill-opacity=".5" d="M147 33h67v29h-67z"/><ellipse cx="57" cy="4" fill="#020101" fill-opacity=".6" rx="10" ry="31"/><path fill="#8d9191" fill-opacity=".3" d="M92.9 135.8L62 115.2l6.6-7.3 19.7 6.3z"/><circle r="1" fill="#d2d6d3" fill-opacity=".3" transform="matrix(-35.15473 -26.6433 21.96522 -28.9822 134.1 5)"/><circle cx="157" cy="90" r="5" fill="#181818" fill-opacity=".7"/><circle r="1" fill="#080707" fill-opacity=".6" transform="matrix(29.10615 -3.54783 3.99355 32.76281 29.3 79.6)"/><ellipse cx="61" cy="109" fill="#f7f9f8" fill-opacity=".5" rx="6" ry="11"/><path fill="#fff" fill-opacity=".5" d="M149 103l5 10V99z"/><path fill="#f8f8f8" fill-opacity=".8" d="M198.6 37.7l-18.4-11.2 22.3 88.4 11.7 3.9z"/><path fill="#a4aaae" fill-opacity=".6" d="M222 68l7 48-14-4z"/><path fill="#0c0c0c" d="M137.3 93.8l-5.8 54 33.3-18.2 26 55.4z"/><path fill="#8f989d" fill-opacity=".5" d="M124.8 185l7.5-81.3-4.8 21.5 9.2 59.8z"/><path fill="#252a2b" fill-opacity=".5" d="M200 22l9 9-21-1z"/><path fill="#fff" fill-opacity=".6" d="M185 159h11v6h-11z"/><path fill-opacity=".5" d="M70 25h14v3H70z"/><path fill="#878b8f" fill-opacity=".6" d="M226 178l-5-20-41 13z"/><path fill-opacity=".4" d="M86 141h23v2H86z"/><path fill="#aeb3b7" fill-opacity=".5" d="M193 123h23v29h-23z"/><path fill="#fff" fill-opacity=".4" d="M181 126l12 37 1-45z"/><path fill="#fdfdfd" fill-opacity=".7" d="M140.6 86.8l-65 54.5 44.8-4.3 8.9-29z"/><path fill="#030303" fill-opacity=".6" d="M188 115l-12-18 6 27z"/><path fill="#f4f5f5" fill-opacity=".8" d="M88.5 121.2l2.4 29.8 26.6 12.2-20.5 3.3z"/><path fill="#202020" fill-opacity=".6" d="M141.8 87.4l20.9 9.7-2.5 5.5-20.9-9.7z"/><ellipse cx="118" cy="50" fill="#ececec" fill-opacity=".4" rx="56" ry="25"/><path fill="#929799" fill-opacity=".5" d="M70 168h41v2H70z"/><path fill="#141414" fill-opacity=".7" d="M151.7 152.3l36.7 1.3-6.6-25-14.1 6.4z"/></g></svg>