<svg xmlns="http://www.w3.org/2000/svg" viewBox="0 0 299 449"><defs/><path fill="#563732" d="M0 0h299v449H0z"/><g transform="translate(.9 .9) scale(1.7539)"><circle r="1" fill="#d1d5d3" fill-opacity=".6" transform="matrix(-111.60588 -23.11247 32.06312 -154.82697 60.5 141.2)"/><path fill="#eae8f2" fill-opacity=".7" d="M75 245L50 60-3 271z"/><circle r="1" fill="#2f2d1f" fill-opacity=".7" transform="matrix(9.17501 -.61334 5.22662 78.18576 10.8 51.3)"/><circle r="1" fill="#fffff5" fill-opacity=".7" transform="matrix(10.61793 -.91028 6.846 79.85515 30.4 25.4)"/><ellipse cx="148" cy="215" fill="#756c6b" fill-opacity=".6" rx="39" ry="234"/><circle r="1" fill="#301306" fill-opacity=".6" transform="rotate(-159.1 36.8 18) scale(20.80999 16.11744)"/><path fill="#e8d5ce" fill-opacity=".4" d="M84 35h40v97H84z"/><ellipse cx="46" cy="1" fill="#534937" fill-opacity=".8" rx="5" ry="58"/><path fill="#6b6243" fill-opacity=".6" d="M73-16l113 28L73 23z"/><path fill="#ffffe4" fill-opacity=".6" d="M53 2h19v28H53z"/><path fill="#927d82" fill-opacity=".9" d="M38 132L5 113l-21 136z"/><circle cx="130" cy="255" r="76" fill="#57616d" fill-opacity=".2"/><path fill="#3f324a" fill-opacity=".5" d="M-16 234l15 28 20-94z"/><path fill="#2a2416" fill-opacity=".5" d="M2.6 115l9.1-47 15.7 3-9.1 47z"/><path fill="#dfb29e" fill-opacity=".4" d="M15.5 165.8l11.2-95.5 59.8-25-73 82.5z"/><path fill="#4b2313" fill-opacity=".4" d="M59 39h22v43H59z"/><path fill="#908183" fill-opacity=".6" d="M98 252l12-172 63-41z"/><circle r="1" fill="#b9b2af" fill-opacity=".6" transform="rotate(-21 400.6 -116.2) scale(10.82372 71.99958)"/><path fill="#a2937f" fill-opacity=".8" d="M84 38l23 16 13-70z"/><path fill="#4a1a00" fill-opacity=".4" d="M77.2 99.2L79.7 85l20.4 8.4 30.3-21.1z"/><path fill="#080600" fill-opacity=".5" d="M74.3 18.8l-7.7-30.7 25 25.5-9.1-4.9z"/><path fill="#cfc9a7" fill-opacity=".4" d="M143 21l22 57-26-9z"/><path fill="#fcf8e7" fill-opacity=".6" d="M21 0h20v69H21z"/><path fill="#cfd0da" fill-opacity=".5" d="M82 99h23v40H82z"/><circle r="1" fill="#ece9f1" fill-opacity=".6" transform="matrix(-24.80615 56.24306 -12.218 -5.38878 37.3 176.9)"/><circle cx="96" cy="70" r="14" fill="#fbece8" fill-opacity=".4"/><ellipse cx="65" cy="228" fill="#c0babe" fill-opacity=".5" rx="12" ry="69"/><path fill="#000409" fill-opacity=".5" d="M54 34h25v17H54z"/><circle r="1" fill="#c8c2d2" fill-opacity=".6" transform="matrix(-1.55184 -6.029 16.43955 -4.23146 8.4 127.4)"/><circle cx="104" cy="30" r="5" fill="#161603" fill-opacity=".5"/><ellipse cx="9" cy="94" fill="#4f483b" fill-opacity=".7" rx="7" ry="27"/><ellipse cx="160" cy="156" fill="#766a70" fill-opacity=".6" rx="22" ry="82"/><path fill="#423516" fill-opacity=".2" d="M99.7 173l-23.5-70.8-30.9 7.9 39.3 29.6z"/><path fill="#29281c" fill-opacity=".6" d="M14 4h5v37h-5z"/><path fill="#f8ffc6" fill-opacity=".2" d="M116.8-7.1l-14.3 57.4 3.6-.9 22.2 26z"/><path fill="#e8e2e7" fill-opacity=".5" d="M58 90h16v13H58z"/><path fill="#534b33" fill-opacity=".7" d="M186 4.1V-16l-32 40.4 4.7 33.9z"/><path fill="#fff5cb" fill-opacity=".6" d="M1 40l-17 35 19 49z"/><path fill="#c19485" fill-opacity=".5" d="M56.3 50.9l23.4 10.4-59 30.3L46 88.2z"/><path fill="#1a2b3e" fill-opacity=".5" d="M183 238.2l4.2 19.5-38.2 8.1-4.2-19.5z"/><circle r="1" fill="#3f412b" fill-opacity=".5" transform="rotate(174.5 25.2 9.3) scale(1.7821 30.66939)"/><path fill="#fffde4" fill-opacity=".4" d="M85 44l-3-34-6 18z"/><path fill="#f9f0e7" fill-opacity=".3" d="M115.5 13.4l-14-4.3L77.2-.4l37.2 24.2z"/><path fill="#41423d" fill-opacity=".3" d="M157.8 72.3l9.2 34.1 19-15.2-70.5-15.6z"/><path fill="#320600" fill-opacity=".2" d="M111.3 51.2l15.1 31.6L90.9 34l-23.4 9.8z"/><path fill="#b0ab99" fill-opacity=".6" d="M153.3 62.2l7.2-3.5 12.2 25.1-7.2 3.5z"/><ellipse cx="133" cy="2" fill="#6c624f" fill-opacity=".6" rx="19" ry="23"/><path fill="#a67970" fill-opacity=".5" d="M41 141l-14-13 5-43z"/><path fill="#d1c3a5" fill-opacity=".4" d="M141 51l-4-30 19 11z"/><path fill="#543525" fill-opacity=".5" d="M89 89l-7-6-5 25z"/><circle r="1" fill="#bcaad1" fill-opacity=".2" transform="matrix(22.98605 22.82017 -12.54328 12.63445 134.2 108.5)"/><path fill="#d5b3a2" fill-opacity=".6" d="M90.6 88.3L65 74.9 94.6 79l20.4-.1z"/><circle r="1" fill="#e9e5ea" fill-opacity=".6" transform="rotate(-151.1 38.5 71.6) scale(7.35081 35.46495)"/><ellipse cx="62" cy="24" fill="#fffff2" fill-opacity=".5" rx="6" ry="9"/><path fill="#2e2a1f" fill-opacity=".5" d="M97.2 18.4L58.2-4l2.6-4.3 39 22.5z"/><path fill="#f7edd3" fill-opacity=".5" d="M83 14h2v51h-2z"/><path fill="#fdd8c9" fill-opacity=".5" d="M19.7 121.4l1 .1-10.4 59.1-1-.1z"/><circle r="1" fill="#a65a3e" fill-opacity=".4" transform="rotate(-165.5 20 74) scale(3.17014 53.55937)"/><ellipse cx="23" cy="77" fill="#262414" fill-opacity=".5" rx="5" ry="6"/><circle r="1" fill="#6f6f70" fill-opacity=".5" transform="rotate(63.6 -133.4 220.8) scale(13.37188 64.19769)"/><circle r="1" fill="#7d7967" fill-opacity=".5" transform="matrix(-4.43204 -.29438 .18346 -2.76215 35.9 15)"/><ellipse cx="145" cy="147" fill="#512a44" fill-opacity=".1" rx="44" ry="17"/><path fill="#4e493c" fill-opacity=".7" d="M.6 78.3L14 64.9l3.4-80.3 5 132.8z"/><circle r="1" fill="#a19796" fill-opacity=".6" transform="matrix(-.2614 -3.00322 31.21411 -2.71682 147.8 176.1)"/><path fill="#d1c0b7" fill-opacity=".6" d="M55.1 48.8L32.6 79.9l-8.4 5.2-2.4 36.5z"/></g></svg>