<svg xmlns="http://www.w3.org/2000/svg" viewBox="0 0 300 199"><defs/><path fill="#443a31" d="M0 0h300v199H0z"/><g transform="translate(.6 .6) scale(1.17188)"><circle r="1" fill="#b7b6b2" fill-opacity=".9" transform="matrix(14.0173 -35.76793 237.41921 93.04357 122.8 79.6)"/><ellipse cx="147" cy="49" fill="#2e281f" fill-opacity=".9" rx="26" ry="27"/><circle r="1" fill="#c3c5b1" fill-opacity=".5" transform="rotate(60.6 52.6 90) scale(40.22428 166.65875)"/><path fill="#c2c9d1" fill-opacity=".7" d="M166 129l68-69 37 59z"/><circle r="1" fill="#0a0604" fill-opacity=".6" transform="matrix(38.02762 -43.36455 26.83685 23.534 230.3 26.9)"/><path fill="#000003" fill-opacity=".5" d="M11.4 199.6l-45.8-90 65-33.2 45.8 90z"/><path fill="#8c7666" fill-opacity=".5" d="M108 110h63v20h-63z"/><path fill="#1f1a14" fill-opacity=".8" d="M201 84.9l.5 5.8 55.8-74-101.8 8.4z"/><path fill="#5c5a4b" fill-opacity=".9" d="M28-24L41.4-4 0 24-13.4 4z"/><path fill="#e0edf9" fill-opacity=".5" d="M87.2 54l28.6-16.5 13 22.5-28.6 16.5z"/><path fill="#c7cbd3" fill-opacity=".6" d="M271 128L151 63l92 105z"/><path fill="#cdc8c2" fill-opacity=".5" d="M18 35l18 59 71 1z"/><path fill="#a29a93" fill-opacity=".9" d="M199 158l-10.1-5.5L149.1 59l57.5 95.7z"/><ellipse cx="229" cy="74" fill="#cfdde6" fill-opacity=".6" rx="8" ry="10"/><circle r="1" fill="#cfddf2" fill-opacity=".5" transform="matrix(-34.67445 36.13221 -9.8037 -9.40816 4.5 42.4)"/><path fill="#817e67" d="M104.2 14.3L38.7-16l55.8 59.5 34.4-22.8z"/><path fill="#21211e" fill-opacity=".6" d="M178.6 152.6l-55.8-25.9 57.5 9.9 9.7 5.6z"/><path fill="#4b423a" fill-opacity=".5" d="M101.4 67.1l10 25.8-93.1 28.2 99.3 35.9z"/><path fill="#000002" fill-opacity=".7" d="M76.8 185.6l-6.5-20 40.9-13.2 6.5 20z"/><path fill="#826337" fill-opacity=".5" d="M1 66h31l22 25z"/><path fill="#d9dee3" fill-opacity=".5" d="M113 78h84v12h-84z"/><path fill="#bbbdc0" fill-opacity=".7" d="M271 76l-96 51 96 40z"/><path fill="#9f988f" d="M167.2 77.7L144 122.3l-29.2 4.1-9.2-6.9z"/><path fill="#918973" fill-opacity=".6" d="M70 71L16 24l65 31z"/><path fill="#c5c8c6" fill-opacity=".7" d="M6.7 85.1l68.1-67.4-15.2-8.3-41.5 76.5z"/><path fill="#111116" fill-opacity=".4" d="M189.6 161.6l35-13.8 35 37.2 11.4-5.2z"/><path fill="#77583f" fill-opacity=".5" d="M136.3 102.5l29.1 43.4 1.2-22.4-27.2-33.8z"/><path fill="#b9a86e" fill-opacity=".2" d="M189.5 13.3L79.6 9.7 228.7-16l-42 52.3z"/><path fill="#060504" fill-opacity=".5" d="M243 44h13v39h-13z"/><path fill="#2d2419" fill-opacity=".5" d="M146 76l92-74-122 27z"/><path fill="#f2f6f8" fill-opacity=".6" d="M166 105l-10-10-8 13z"/><circle r="1" fill="#a59b8f" fill-opacity=".5" transform="matrix(23.97086 44.87693 -.88205 .47115 70.3 118.7)"/><ellipse cx="3" cy="123" fill-opacity=".4" rx="18" ry="42"/><path fill="#8f5f39" fill-opacity=".4" d="M77.1 82.2L79 95.1l25.9-37.8-20.3 14.9z"/><path fill="#c7d3df" fill-opacity=".5" d="M207 111l-27-50-28 10z"/><circle r="1" fill="#b2bac2" fill-opacity=".5" transform="matrix(12.75035 7.43726 -16.65422 28.5518 222.6 93.3)"/><circle r="1" fill="#74745c" fill-opacity=".7" transform="matrix(-4.1278 18.0229 -8.6282 -1.97612 51.5 2.2)"/><path fill="#ddd2d1" fill-opacity=".3" d="M82.4 109.4l18.7-15.8L97 79.4l-28.9 23z"/><circle r="1" fill="#665f56" fill-opacity=".3" transform="matrix(34.0133 -21.80756 5.17628 8.07346 55.7 150.8)"/><path fill="#6a6351" fill-opacity=".6" d="M95 29L81 43l5 6z"/><circle r="1" fill="#13120f" fill-opacity=".5" transform="matrix(-8.13846 -16.46691 5.34168 -2.64002 59.1 115.7)"/><path fill="#101111" fill-opacity=".6" d="M97.3 105.7l6.5 17.8-13.1 4.8-6.5-17.8z"/><ellipse cx="120" cy="115" fill-opacity=".6" rx="2" ry="4"/><path fill="#c5cbcc" fill-opacity=".7" d="M62.5 104.1l29.2-62.5 37 15.6-43.5 13.1z"/><path fill="#b9b0a4" fill-opacity=".5" d="M40.7 96.4l1-.4 15.6 33.6-1 .4z"/><path fill="#302920" fill-opacity=".5" d="M148.6 15.7l42.5 34.9L154.9 71l-31.9-.4z"/><circle r="1" fill="#c9d8e7" fill-opacity=".4" transform="matrix(22.07495 -6.58083 2.24646 7.53559 51.6 25.2)"/><path fill="#26201a" fill-opacity=".7" d="M190 57h17v20h-17z"/><path fill="#8a7852" fill-opacity=".5" d="M27.3 56.1L26.5 82l-5.3-11.7-5.4-17.7z"/><circle r="1" fill="#090706" fill-opacity=".5" transform="matrix(-38.28738 39.30286 -12.36422 -12.04476 239.5 7.7)"/><path fill="#f9e8df" fill-opacity=".3" d="M118.8 132.7l13.9-21.5-28.5-42.1 33.2 23.2z"/><path fill="#977c66" fill-opacity=".7" d="M101.8 80.3l7.7 51.6 2.7-58.2-32.6 2.4z"/><path fill="#a69b89" fill-opacity=".7" d="M86.9 161.6l-4.2-17.5.6-2.4 3.5-11.4z"/><circle cx="250" cy="115" r="3" fill="#000809" fill-opacity=".5"/><circle r="1" fill="#d1d8dd" fill-opacity=".4" transform="matrix(-4.42568 6.01464 -30.4768 -22.42537 46.6 66.4)"/><path fill="#c8baaa" fill-opacity=".5" d="M84.6 165.7l-24-30.8.8-.6 24 30.8z"/><path fill="#222521" fill-opacity=".5" d="M149 141.3l-12.7-9.9 6.8-8.7 12.6 9.9z"/><ellipse cx="228" cy="93" fill="#272e3b" fill-opacity=".5" rx="3" ry="4"/><path fill="#847467" fill-opacity=".9" d="M90.4 108l-6-11.1 1.9 41.2-8.7-48.8z"/><path fill="#bcc3ca" fill-opacity=".6" d="M240.5 77.8l29.4 55-54.5-61.5-19.8 60.9z"/><circle r="1" fill="#8b8275" fill-opacity=".6" transform="matrix(-.99443 .10538 -3.23777 -30.5541 67 110.1)"/><path fill="#aaa89b" d="M70.7 35l-28.4 6.5-18.4-13.2 18.9 32z"/><path fill="#d7e1ee" fill-opacity=".5" d="M30 21l-46 42 30-52z"/><path fill="#b3afb2" fill-opacity=".6" d="M250 165l-37-25 42 10z"/><path fill="#6c6649" fill-opacity=".5" d="M68.5 11l58.3 28.5L213.9-16l-92.2 42.8z"/></g></svg>