<svg xmlns="http://www.w3.org/2000/svg" viewBox="0 0 300 199"><defs/><path fill="#363b55" d="M0 0h300v199H0z"/><g transform="translate(.6 .6) scale(1.17188)"><circle r="1" fill="#d3ae85" fill-opacity=".7" transform="rotate(-67.4 99.7 -103.3) scale(85.04679 41.51188)"/><ellipse cx="46" cy="79" fill="#170900" fill-opacity=".8" rx="59" ry="169"/><path fill="#fde9d5" fill-opacity=".6" d="M234.3 66.8l-20.9 4.6.1-50.4 33.4 15.7z"/><circle r="1" fill="#895429" fill-opacity=".6" transform="rotate(-162.3 90.8 65.8) scale(48.57491 133.59472)"/><ellipse cx="148" cy="8" fill="#ccc6bc" fill-opacity=".8" rx="33" ry="43"/><circle r="1" fill="#9d7556" fill-opacity=".6" transform="matrix(-11.03347 20.11993 -35.02353 -19.2064 132.5 125)"/><circle r="1" fill="#181b22" fill-opacity=".7" transform="matrix(30.01978 22.39519 -24.57814 32.94593 247.2 100.5)"/><path fill="#3f1003" fill-opacity=".5" d="M173 27h17v143h-17z"/><ellipse cx="107" cy="75" fill="#69360e" fill-opacity=".4" rx="13" ry="106"/><circle cx="247" r="34" fill="#421100" fill-opacity=".7"/><path fill="#e2e2da" fill-opacity=".5" d="M134 148l29 4-1-28z"/><path fill="#decfcb" fill-opacity=".6" d="M237.8 50.3l-37.4-9.9-.1-5.1 24.4-14.9z"/><ellipse cx="202" cy="143" fill="#ccb07c" fill-opacity=".5" rx="7" ry="54"/><path fill="#f2d1a5" fill-opacity=".5" d="M40.6 78l4.9 9.5-5.1 14.3 14-.7z"/><circle r="1" fill="#a89e85" fill-opacity=".5" transform="matrix(23.88466 13.53196 -17.72295 31.282 139.9 69.8)"/><path fill="#290603" fill-opacity=".4" d="M135.6 103.8l22.1 11.7-17.3 32.7-22.1-11.7z"/><path fill="#ffb386" fill-opacity=".5" d="M214 6l-24 36 7-58z"/><circle r="1" fill="#2a0800" fill-opacity=".6" transform="rotate(-140.6 107.9 .4) scale(10.92082 29.21182)"/><path fill="#7b4e38" fill-opacity=".6" d="M12.2 64.4l-15 1-5.4-77.8 15-1z"/><path fill="#161315" fill-opacity=".7" d="M212 78h10v92h-10z"/><circle r="1" fill="#000204" fill-opacity=".7" transform="matrix(34.08355 52.09003 -13.26395 8.67886 89.4 163.7)"/><path fill="#7a543a" fill-opacity=".5" d="M116 25L88 55l40 29z"/><path fill="#b39258" fill-opacity=".5" d="M156.6 93.3l-41 35.7-27.2-17.6 79.2-2.8z"/><path fill="#fff18a" fill-opacity=".3" d="M173 93h34v7h-34z"/><path fill="#b8a18f" fill-opacity=".4" d="M118 23h64v23h-64z"/><path fill="#773211" fill-opacity=".5" d="M216 25l28-41-58 49z"/><path fill="#e5e0de" fill-opacity=".6" d="M142.6 147.8l-21.8-2.7.6-5 21.8 2.8z"/><path fill="#bdb3af" fill-opacity=".7" d="M221.6 76.5l-4.6-4.9-6.2-39.2 41.8 4.1z"/><path fill="#120a00" fill-opacity=".5" d="M260 54l11-46-43 62z"/><ellipse cx="180" cy="119" fill="#4e2211" fill-opacity=".7" rx="18" ry="21"/><circle cx="71" cy="20" r="37" fill="#0e0a06" fill-opacity=".6"/><path fill="#beb3a2" fill-opacity=".5" d="M148 144.3l12-32.4 6.9 19.9-1.9 19.4z"/><path fill="#fb7715" fill-opacity=".4" d="M192.2 64.2l-13.4-11.7.7 11.8 9.4 7.7z"/><ellipse cx="141" cy="3" fill="#e9e2d1" fill-opacity=".6" rx="4" ry="62"/><path fill="#c55e00" fill-opacity=".5" d="M142 102l20-10-25-2z"/><path fill="#e2d9d0" fill-opacity=".4" d="M211 127.3l-10 1.2-2-15.8 10-1.2z"/><path fill="#6a7c91" fill-opacity=".4" d="M150.1 52l25.8 3.2-4 32.8-25.8-3.2z"/><circle r="1" fill="#160d06" fill-opacity=".6" transform="rotate(-22.3 293.4 -170) scale(28.0553 14.39654)"/><circle cx="46" cy="93" r="5" fill="#ebd0b3" fill-opacity=".5"/><path fill="#b62e15" fill-opacity=".4" d="M197 10l-2-23-17 28z"/><circle r="1" fill="#8e6440" fill-opacity=".5" transform="matrix(.7538 -7.05343 5.07184 .54202 80.5 84)"/><path fill="#8a805c" fill-opacity=".4" d="M134 24h23v16h-23z"/><path fill="#091514" fill-opacity=".7" d="M192.7 75.8l-18.5-11-1.7 23 23.3 6z"/><path fill="#7e6140" fill-opacity=".6" d="M213 134.6l-2 38-22-1.2 2-38z"/><path fill="#431a13" fill-opacity=".8" d="M173.8 42.6l51.5 60.4-36.6-55.6-18.3 6.7z"/><path fill="#dadfe2" fill-opacity=".4" d="M181.1 2.2L147-16l15.3 64.1 2-8.6z"/><path fill="#e4d5c5" fill-opacity=".5" d="M106 120l5-6-14-5z"/><path fill="#160f08" fill-opacity=".4" d="M-8.6 107.1l126.1-57.4 3.1-13.1-53.8 47.9z"/><path fill="#f7ecb6" fill-opacity=".4" d="M193 146h19v5h-19z"/><path fill="#401717" fill-opacity=".4" d="M128 155l-41-51 19 59z"/><path fill="#c19f60" fill-opacity=".6" d="M209.3 88.1l-5.4 27.3 3.7-1.7-22-15.5z"/><ellipse cx="28" cy="40" fill="#040606" fill-opacity=".6" rx="11" ry="73"/><circle r="1" fill="#7d391e" fill-opacity=".6" transform="matrix(-9.98513 29.67021 -9.66722 -3.25338 167.8 165.4)"/><circle r="1" fill="#ebddd4" fill-opacity=".6" transform="matrix(.17985 -.9837 8.35696 1.52796 136.6 134.9)"/><path fill="#4c2517" fill-opacity=".7" d="M118.6 144.8l.1-20.3 26.5 10.9-1.7-33.9z"/><path fill="#a83d0f" fill-opacity=".3" d="M196.3 31.5l18.1 8.5.3 30.1-4.5 8.4z"/><ellipse cx="60" cy="140" fill="#050607" fill-opacity=".7" rx="22" ry="34"/><path fill="#dcb8a6" fill-opacity=".5" d="M213.7 9.4l-68.9 14.1 51.8 1.1 2-31.7z"/><path fill="#313140" fill-opacity=".5" d="M178 128.1l45.6 25.9-9.2-86 43.3 80.6z"/><path fill="#b57f44" fill-opacity=".4" d="M124 31.1l-7.9-39.6L104.5.2l16.8 41.6z"/><ellipse cx="128" cy="28" fill="#c4d7f1" fill-opacity=".3" rx="5" ry="38"/><path fill="#dacba5" fill-opacity=".2" d="M140.7 88.3l-39.3-15.2 43.4 48.2-28-61.7z"/><ellipse cx="223" cy="41" fill="#e3e2de" fill-opacity=".3" rx="25" ry="4"/><path fill="#f7f4ff" fill-opacity=".4" d="M219 21l14 13-25-2z"/><circle r="1" fill="#4b241c" fill-opacity=".5" transform="matrix(25.38221 -26.74727 3.41345 3.23925 221 13.3)"/></g></svg>