<svg xmlns="http://www.w3.org/2000/svg" viewBox="0 0 300 199"><defs/><path fill="#2a6253" d="M0 0h300v199H0z"/><g transform="translate(.6 .6) scale(1.17188)"><circle cx="65" cy="86" r="218" fill="#190f19" fill-opacity=".8"/><circle r="1" fill="#b6b8be" fill-opacity=".5" transform="matrix(12.96901 -2.20693 6.8165 40.05713 103 96.3)"/><path fill="#fff1f0" fill-opacity=".7" d="M145 73.3l-4.5-15.9-10.4 10.7 4.8 23.2z"/><path fill="#535660" fill-opacity=".6" d="M211 128.4l-32 8-26-104.8 32-8z"/><circle r="1" fill="#000003" fill-opacity=".7" transform="matrix(-55.05428 -248.87204 41.46678 -9.17308 31.5 109.2)"/><circle r="1" fill-opacity=".7" transform="matrix(-18.1147 -7.4755 21.52596 -52.16192 143.6 120.1)"/><path fill="#424148" fill-opacity=".8" d="M162 14L74 98l23-65z"/><path fill="#a2a5a8" fill-opacity=".8" d="M111.5 139.3l10.8-27.7-9.5-8.7-15.1-34.5z"/><circle r="1" fill-opacity=".6" transform="matrix(-7.58968 -1.01069 3.33782 -25.06506 118 76)"/><path fill="#575c65" fill-opacity=".4" d="M85.1 83.3l32.7 42.4-11.4 35-42-72.3z"/><path fill="#f8f2fb" fill-opacity=".2" d="M182.5 115l-24.2-66.1 1.2-10.2 22.8 32.2z"/><circle r="1" fill="#2a2f3b" fill-opacity=".6" transform="rotate(19.8 -275.3 620.9) scale(20.51388 50.31428)"/><path fill="#010203" fill-opacity=".8" d="M233 129l22.8-2.7 5.2 42.6-22.8 2.8z"/><path fill="#fffefc" fill-opacity=".3" d="M125.8 77.6l19.5-18.2-9.7 45 2.8-23.8z"/><circle r="1" fill-opacity=".5" transform="matrix(23.5402 58.9118 -14.10062 5.63438 146.3 138)"/><circle r="1" fill="#d1d2d9" fill-opacity=".3" transform="matrix(4.06757 .65152 -5.26505 32.8708 105.6 78.2)"/><ellipse cx="64" cy="27" fill="#11131b" fill-opacity=".7" rx="15" ry="114"/><path fill="#797172" fill-opacity=".6" d="M144.1 71.3L113.3 33 151 67.4l-14.6 10.1z"/><path fill-opacity=".5" d="M136 39h20v21h-20z"/><path fill="#272931" fill-opacity=".6" d="M226 64.6L207.6 83 110-14.6 128.4-33z"/><ellipse cx="179" cy="107" fill="#8b8e91" fill-opacity=".2" rx="7" ry="60"/><path fill="#bbbcbf" fill-opacity=".5" d="M119.1 118.4l-17-.9.8-14 17 1z"/><path fill="#040507" fill-opacity=".8" d="M121.6 88.7l50.2 8.4-.5 32.7-14.1 55.2z"/><circle r="1" fill="#27282e" fill-opacity=".5" transform="matrix(-21.69593 43.94165 -11.3188 -5.5886 81.6 66.4)"/><circle r="1" fill="#10192a" fill-opacity=".5" transform="matrix(24.02413 13.50862 -26.94306 47.91632 229.7 95.5)"/><path fill="#060403" fill-opacity=".9" d="M143.7 103.7l-31.8-37.4-.7 32.7 15.6 11.6z"/><path fill="#030507" fill-opacity=".6" d="M131.7 109.8L173 87.4l-.1-12.6L154 56.5z"/><path fill="#65656a" fill-opacity=".6" d="M130 36l3 12-31 4z"/><circle r="1" fill="#fff2f0" fill-opacity=".2" transform="matrix(-6.64856 -.53493 .94028 -11.68663 135.9 77.5)"/><path fill="#474650" fill-opacity=".5" d="M139 159l22 18-29-8z"/><path fill="#070606" fill-opacity=".8" d="M142.5 65.7l-7.3-17.1 30.7 26.9-22.8-44.9z"/><path fill="#37373d" fill-opacity=".5" d="M148.7 36.4l64.9 47-67.3-72.6-43.2 16.5z"/><path fill="#8a8991" fill-opacity=".5" d="M167 53l-6 7 18 21z"/><circle r="1" fill="#d6dadf" fill-opacity=".5" transform="rotate(-6.2 713.8 -1232.8) scale(2.94023 12.80655)"/><path fill="#110400" fill-opacity=".5" d="M124.4 51l-9.7 21.6 26.4-8.8-3.6 1.2z"/><circle r="1" fill="#040403" fill-opacity=".7" transform="matrix(-16.37127 -10.50866 12.8425 -20.00713 134.2 135)"/><path fill="#50545b" fill-opacity=".5" d="M84 111l3-36 25 74z"/><path fill="#cccdd3" fill-opacity=".4" d="M108 76l-5 19 7 11z"/><path fill="#43150b" fill-opacity=".4" d="M125.6 84.7l-3.2-16.1 23.4 25.9-23.3-9z"/><circle r="1" fill="#040404" fill-opacity=".8" transform="matrix(31.721 -10.6137 50.75703 151.69677 9.4 109)"/><path fill="#646972" fill-opacity=".5" d="M173.9 100l7.8 1.4-3.6 18.7-7.8-1.5z"/><circle r="1" fill="#050811" fill-opacity=".4" transform="rotate(-139.6 31.1 -5.8) scale(31.23463 43.00003)"/><path fill="#54545c" fill-opacity=".5" d="M191.2 79.6l-29.4-50.5-8.7 31.8 2-6.9z"/><path fill="#7f8189" fill-opacity=".4" d="M114 52l-17 57-4-31z"/><path fill="#f4ffff" fill-opacity=".4" d="M146 69l-9 13.3-5-3.3 9-13.3z"/><circle r="1" fill="#101825" fill-opacity=".5" transform="matrix(-30.93116 12.93879 -32.14063 -76.83465 250.4 61.5)"/><path fill="#4d4e55" fill-opacity=".4" d="M128 34l-48 70 17-52z"/><circle r="1" fill="#252934" fill-opacity=".4" transform="rotate(-81.8 183.2 -43.6) scale(80.79175 22.57012)"/><path fill="#050606" fill-opacity=".8" d="M166.7 139.2l-47.9-20.8 1.8-4.2 29.2-4.7z"/><ellipse cx="175" cy="90" fill="#85868c" fill-opacity=".5" rx="3" ry="12"/><circle cx="116" cy="109" r="4" fill="#dfddd9" fill-opacity=".5"/><path fill="#2b2f37" fill-opacity=".5" d="M119 164l-38-44 26 58z"/><path fill="#43464e" fill-opacity=".5" d="M168 139h9v22h-9z"/><path fill-opacity=".5" d="M96 171l-1-23-8 23z"/><path fill="#050609" fill-opacity=".5" d="M141 78h32v23h-32z"/><circle cx="146" cy="65" r="4" fill="#808384" fill-opacity=".5"/><path fill="#212128" fill-opacity=".4" d="M168.6-12.3l9 21.2L75.4 52.3l-9-21.2z"/><path fill="#767379" fill-opacity=".5" d="M164 55l-7-12-1 10z"/><path fill="#7b7573" fill-opacity=".6" d="M130 45h5v6h-5z"/><ellipse cx="122" cy="59" fill-opacity=".6" rx="9" ry="8"/><ellipse cx="219" cy="169" fill="#000211" fill-opacity=".4" rx="39" ry="3"/><path fill="#71767e" fill-opacity=".4" d="M110.5 144.9L90 90.1l1.7 2.7 19.2 21z"/><circle r="1" fill="#1f120d" fill-opacity=".5" transform="matrix(1.58644 -.02215 .17914 12.82907 112.8 93)"/><path fill="#45464d" fill-opacity=".4" d="M180 60h11v60h-11z"/><circle r="1" fill="#22252d" fill-opacity=".5" transform="rotate(-136.7 93.8 -24.2) scale(44.10854 13.03122)"/></g></svg>