<svg xmlns="http://www.w3.org/2000/svg" viewBox="0 0 299 449"><defs/><path fill="#5f3f2e" d="M0 0h299v449H0z"/><g transform="translate(.9 .9) scale(1.7539)"><circle r="1" fill="#f8f9fc" fill-opacity=".8" transform="matrix(-8.12071 54.7092 -157.40712 -23.3646 75 224.9)"/><circle r="1" fill="#f5ccbf" fill-opacity=".6" transform="matrix(-30.09844 6.2879 -18.39634 -88.05831 98 108.7)"/><circle cx="49" cy="140" r="38" fill="#4d2d13" fill-opacity=".5"/><circle cx="152" cy="160" r="40" fill="#986b40" fill-opacity=".6"/><circle r="1" fill="#031822" fill-opacity=".6" transform="matrix(-17.6753 -28.66258 37.17341 -22.92367 30.8 19.3)"/><path fill="#9bbec8" fill-opacity=".5" d="M150-7l36 12-18 78z"/><path fill="#f1fbfe" fill-opacity=".6" d="M17 154l43 117-76-104z"/><ellipse cx="88" cy="49" fill="#fffff1" fill-opacity=".2" rx="37" ry="18"/><ellipse cx="94" cy="103" fill="#e7baad" fill-opacity=".4" rx="41" ry="22"/><circle cx="45" cy="95" r="33" fill="#090a0e" fill-opacity=".3"/><ellipse cx="107" cy="180" fill="#c2a39b" fill-opacity=".6" rx="43" ry="23"/><path fill="#97a1a3" fill-opacity=".5" d="M9.4 77.7l42.9-12.8-68.3-7.6 27.7 92.4z"/><path fill="#2b1113" fill-opacity=".4" d="M94 65h24v18H94z"/><path fill="#8e6339" fill-opacity=".6" d="M122 153l10-57 33 132z"/><circle r="1" fill="#d98d7a" fill-opacity=".4" transform="matrix(8.01423 -2.2853 4.95916 17.39105 60.5 102.4)"/><circle r="1" fill="#766047" fill-opacity=".7" transform="matrix(-12.47816 36.86515 -18.34624 -6.20986 134.1 27.2)"/><ellipse cx="131" cy="244" fill="#e3e8eb" fill-opacity=".7" rx="120" ry="22"/><path fill-opacity=".5" d="M12 72h13v50H12z"/><circle r="1" fill="#280c00" fill-opacity=".6" transform="matrix(-8.83739 -19.75622 11.75267 -5.25722 168.5 112.4)"/><path fill="#7d4f28" fill-opacity=".6" d="M21 152h61v21H21z"/><path fill="#190c00" fill-opacity=".4" d="M88-5.8l38.3 19.2-37.1 11.8-38.5 4.7z"/><path fill="#e4e9ec" fill-opacity=".5" d="M6 172h58v72H6z"/><path fill="#4b1d08" fill-opacity=".6" d="M135 150l-2-22-21 18z"/><path fill="#fcd8c6" fill-opacity=".3" d="M130.7 79.3l3.7 39-63.7-20.4 23.7-9.1z"/><path fill="#38271e" d="M41.9 79.5l37.4 5-27.8-19.7L59-16z"/><path fill="#9a564a" fill-opacity=".6" d="M79 145l-22-33 45 12z"/><path fill="#130200" fill-opacity=".6" d="M64.3 128.3l18 22.7-9.2 17.5-33-83.1z"/><path fill="#3e4b53" fill-opacity=".6" d="M37-7l57-9-61 56z"/><circle r="1" fill="#d9c5c5" fill-opacity=".6" transform="rotate(-161.6 68.9 86.2) scale(17.73692 28.43115)"/><ellipse cx="74" cy="171" fill="#a37b6d" fill-opacity=".5" rx="15" ry="12"/><path fill="#9ba19f" fill-opacity=".4" d="M6 59h37v14H6z"/><circle r="1" fill="#f1d0ca" fill-opacity=".5" transform="rotate(-28.4 149.8 -164.7) scale(14.35058 14.90278)"/><circle r="1" fill="#e1ba9c" fill-opacity=".5" transform="matrix(-6.03764 -7.2717 20.12162 -16.70684 112.8 130.5)"/><path fill="#edd7d5" fill-opacity=".5" d="M79 73h13v40H79z"/><circle r="1" fill="#787871" fill-opacity=".5" transform="matrix(.76253 4.70799 -23.73388 3.84405 18.8 127.9)"/><circle r="1" fill="#050b15" fill-opacity=".6" transform="rotate(75.2 3 12.5) scale(46.4021 12.9513)"/><path fill="#c29181" fill-opacity=".5" d="M94 79L52 63l14-35z"/><ellipse cx="159" cy="158" fill="#5b2a03" fill-opacity=".5" rx="8" ry="18"/><path fill="#a7844f" fill-opacity=".5" d="M173.9 222.3l-4.2 5.6-21.6-16.2 4.2-5.6z"/><circle cx="167" cy="207" r="10" fill="#f6fffc" fill-opacity=".6"/><path fill="#516875" fill-opacity=".5" d="M155.5 27.6L162.2 3 186-1.5l-64.9.8z"/><path fill="#dddddf" fill-opacity=".4" d="M153 233l-3-49-117 87z"/><circle r="1" fill="#624220" fill-opacity=".5" transform="matrix(6.08521 -11.84054 26.16516 13.44707 32.8 155.7)"/><circle r="1" fill="#946d42" fill-opacity=".5" transform="matrix(-28.52035 -36.81383 4.03824 -3.1285 156 63)"/><path fill="#543113" fill-opacity=".7" d="M132.8 56.4l.9 55.2 36.4-22.8-41.4-44z"/><path fill="#4e6d74" fill-opacity=".5" d="M26 71h8v32h-8z"/><path fill="#7c8993" fill-opacity=".5" d="M8 272.7l-20-26.4 12-9 20 26.4z"/><circle cx="23" cy="140" r="10" fill="#0b0900" fill-opacity=".4"/><path fill="#a37b53" fill-opacity=".4" d="M124.6 200.7l12.4-66.6 34 56.4-24.9.5z"/><path fill="#6d472e" fill-opacity=".9" d="M139.5 83.3L94.1 75l29.5-2.1-20.3-43.7z"/><path fill="#b28850" fill-opacity=".4" d="M151 83l4 54-11-22z"/><circle r="1" fill="#fbffff" fill-opacity=".5" transform="matrix(-8.5503 29.81846 -10.99184 -3.15186 149.7 250.2)"/><path fill="#2e0e00" fill-opacity=".4" d="M32.5 90.4L50 85.7l15.6 58-17.4 4.6z"/><path fill="#573d22" fill-opacity=".7" d="M-16 69.7L13.8 34l1.8 28.6 4.5-4.8z"/><path fill="#bc9688" fill-opacity=".3" d="M71.5 141.1l-12-85.2.1 30.4-6.6 7.6z"/><path fill="#5f0400" fill-opacity=".2" d="M73.7 131.7L63.3 52.1l16.9 69.8 22 5.3z"/><path fill="#2b394c" fill-opacity=".4" d="M111 75.5l-2.2 12.8-9.9-1.8 2.3-12.8z"/><path fill="#d9a795" fill-opacity=".5" d="M118 67l3 8-17-7z"/><ellipse cx="99" cy="222" fill="#dfdfe0" rx="46" ry="13"/><path fill="#7d5124" fill-opacity=".4" d="M186 47.4l-36.2 156.2 9 20.1-2.5-29.9z"/><path fill="#e5edef" fill-opacity=".5" d="M0 160h14v70H0z"/><path fill="#230900" fill-opacity=".5" d="M44 66l2-27 23-26z"/><path fill="#a8846e" fill-opacity=".5" d="M95 163l-2-21-33-23z"/><path fill="#8b6640" fill-opacity=".3" d="M20.7 149.5l21.5-13.4L52.4 152l-37.1 30.2z"/><path fill="#775231" fill-opacity=".4" d="M164.7 43.6L163 81.2l-57.6-36.5 13-60.7z"/></g></svg>