<svg xmlns="http://www.w3.org/2000/svg" viewBox="0 0 300 199"><defs/><path fill="#654b36" d="M0 0h300v199H0z"/><g transform="translate(.6 .6) scale(1.17188)"><circle r="1" fill="#f2faf0" fill-opacity=".6" transform="matrix(205.0001 136.1622 -68.99073 103.86955 114.7 35.2)"/><circle r="1" fill="#2e1e14" fill-opacity=".6" transform="matrix(-4.30319 -20.39781 21.07355 -4.44575 126.1 140.3)"/><circle r="1" fill="#efebe1" fill-opacity=".6" transform="matrix(-7.80038 -6.26075 129.51449 -161.36452 87.1 140.4)"/><circle r="1" fill="#e8e5da" fill-opacity=".6" transform="rotate(-46.6 119.2 -4.8) scale(124.12361 10.50923)"/><ellipse cx="209" cy="128" fill="#28290c" fill-opacity=".5" rx="19" ry="20"/><path fill="#6a401d" fill-opacity=".6" d="M56.8 83.4l5.1-17.2L103 79.8l2.1 19.1z"/><circle r="1" fill="#202b1d" fill-opacity=".6" transform="matrix(-20.24207 .1517 -.184 -24.5546 37.5 148.4)"/><ellipse cx="115" cy="53" fill="#6f5a36" fill-opacity=".5" rx="15" ry="24"/><circle cx="251" cy="162" r="22" fill="#321e07" fill-opacity=".4"/><circle r="1" fill="#f4f3ed" fill-opacity=".6" transform="matrix(10.61808 29.54125 -29.91525 10.7525 12.2 0)"/><circle r="1" fill="#fff" fill-opacity=".3" transform="matrix(6.00787 -7.47205 141.13468 113.47876 133.3 32.8)"/><circle cx="237" cy="84" r="20" fill="#334c61" fill-opacity=".4"/><path fill="#fff" fill-opacity=".5" d="M140 178l18-55 60-45z"/><circle r="1" fill="#fdfefe" fill-opacity=".5" transform="rotate(-55.7 153.2 -207.3) scale(62.08186 4.78702)"/><ellipse cx="172" cy="169" fill="#6d481a" fill-opacity=".5" rx="17" ry="18"/><path fill="#2a1f03" fill-opacity=".3" d="M87.1 105.9l16.7 12-24.3 11.6-25-14.9z"/><ellipse cx="128" cy="125" fill="#988880" fill-opacity=".8" rx="20" ry="15"/><path fill="#fffff9" fill-opacity=".5" d="M191 152h35v18h-35z"/><circle r="1" fill="#5a5733" fill-opacity=".3" transform="matrix(12.59932 -19.18063 23.85413 15.66924 23.5 54.5)"/><path fill="#1a1100" fill-opacity=".6" d="M148.4 144.2l-45.8-5.2 12.2 20.2 15.6 4.1z"/><circle r="1" fill="#fbfbf4" fill-opacity=".5" transform="matrix(53.31187 42.5583 -4.98207 6.24093 201.4 22.2)"/><path fill="#062d42" fill-opacity=".3" d="M213.3-5.3l29.8 12.4-8.3 24.9-18.4-3.1z"/><circle r="1" fill="#ebe5dc" fill-opacity=".5" transform="rotate(128.4 25.3 46) scale(7.29385 145.85165)"/><circle r="1" fill="#7e6d4b" fill-opacity=".3" transform="matrix(-19.62804 .13703 -.17656 -25.28982 160 89.8)"/><circle r="1" fill="#fcfbf8" fill-opacity=".4" transform="matrix(37.9953 -53.00067 5.98032 4.2872 245.6 120.3)"/><path fill="#251900" fill-opacity=".3" d="M56 119.4L43.3 90.8l30.1-23.7L55 92.7z"/><circle r="1" fill="#fffaf8" fill-opacity=".4" transform="matrix(86.28505 69.37496 -3.5691 4.43906 49.8 118.8)"/><path fill="#233d4d" fill-opacity=".5" d="M247 32h9v20h-9z"/><ellipse cx="197" cy="48" fill="#817243" fill-opacity=".3" rx="18" ry="21"/><path fill="#e5f1ff" fill-opacity=".4" d="M80.5 92.2l-22.8-3.5 2.6 25.7 36.3-13.3z"/><path fill="#c7d1c7" fill-opacity=".4" d="M10.5 139.9l-22.7-21.2 13.7-14.6 22.7 21.2z"/><path fill-opacity=".6" d="M227 123l-6-7 2 18z"/><circle r="1" fill="#e5e1d7" fill-opacity=".3" transform="matrix(-7.0073 -9.64472 28.99874 -21.06882 74.7 158.7)"/><path fill="#373929" fill-opacity=".5" d="M27 116L3 183l62-38z"/><path fill="#f3f0e6" fill-opacity=".5" d="M96-16l-4 54 65-54z"/><path fill="#9e9d8e" fill-opacity=".7" d="M208.2 159.7l24.6-70.8-17.9 30.5-11.1 35.2z"/><path fill="#4e2400" fill-opacity=".4" d="M96.2 94.2l2.8-9.1-10.6-15.3-12.9 16.5z"/><circle cx="117" cy="53" r="26" fill="#8c7b53" fill-opacity=".2"/><circle r="1" fill="#e4ded5" fill-opacity=".6" transform="rotate(41.8 -88.4 282.4) scale(73.25317 5.76496)"/><path fill="#4e3f2b" fill-opacity=".5" d="M149.7 146.2l-16.6 18.9-2.9-26.9 22.3-5z"/><path fill="#efebe0" fill-opacity=".4" d="M234 30l-27 66-32 11z"/><path fill="#beb5af" fill-opacity=".4" d="M68.7 128.9l44-5.3-63 21.1-13.8-52.9z"/><ellipse cx="68" cy="20" fill="#988145" fill-opacity=".2" rx="27" ry="14"/><path fill="#e1d9cf" fill-opacity=".7" d="M138.7 178.6l-58.8-44.8 29.9 46.7 52.3-34.9z"/><path fill="#c7bcaa" fill-opacity=".6" d="M104.9 121.7L133 95.9 97.4 144 102 37z"/><path fill="#e7e6df" fill-opacity=".7" d="M264.2-12.5l6.8 36L209.3-16 176.1 9.5z"/><ellipse cx="151" cy="16" fill="#a09162" fill-opacity=".4" rx="19" ry="15"/><path fill="#fffaeb" fill-opacity=".2" d="M174.3 67.8L60.9-16l99.3 52.7 110.8 117z"/><path fill="#e3eef0" fill-opacity=".7" d="M8 77H5l1-28h3z"/><path fill="#302c14" fill-opacity=".5" d="M197 145l12-22-3 27z"/><path fill="#eee9e1" fill-opacity=".4" d="M49 34l38 9-26 29z"/><path fill="#c3b19d" fill-opacity=".5" d="M134 136l-22 2-7-14z"/><path fill="#3a3523" fill-opacity=".5" d="M220 71h5v20h-5z"/><circle cx="1" cy="100" r="6" fill="#556163" fill-opacity=".5"/><path fill="#8b7f5f" fill-opacity=".4" d="M212 105.8l-13.1 46.5-12.9-20 4.5-24.6z"/><path fill="#49544d" fill-opacity=".4" d="M-11.5 40.2L9.2 37l2.3 14.9L-9.2 55z"/><path fill="#79856e" fill-opacity=".3" d="M46.9 119L-9 157.5l-7-1.1 35.2-42z"/><path fill="#483411" fill-opacity=".1" d="M115 92.6L86.2 131l-36.3-26.3 18.2 17.4z"/><path fill="#e4e2de" fill-opacity=".5" d="M2.7 70l35.5 27.7-5 6.3-35.4-27.7z"/><path fill="#011f05" fill-opacity=".5" d="M43 127.1l3.3 12.6-19.3 5.2-3.3-12.6z"/><path fill="#6d4218" fill-opacity=".5" d="M101.4 102.6l-4.1-1.4-6-8.8 1.9-14.1z"/><path fill="#f8f5ec" fill-opacity=".4" d="M203.7 27.2L129.3-16l59.9 19.9 16.1-5.5z"/><ellipse cx="26" cy="58" fill="#5e4d2e" fill-opacity=".4" rx="2" ry="22"/><ellipse cx="111" cy="57" fill="#eee6d8" fill-opacity=".3" rx="3" ry="47"/><ellipse cx="125" cy="51" fill="#220b00" fill-opacity=".3" rx="2" ry="22"/></g></svg>