<svg xmlns="http://www.w3.org/2000/svg" viewBox="0 0 300 199"><defs/><path fill="#444344" d="M0 0h300v199H0z"/><g transform="translate(.6 .6) scale(1.17188)"><circle r="1" fill="#e5e5e5" fill-opacity=".7" transform="rotate(173.8 56 3) scale(252.32879 41.4701)"/><ellipse cx="57" cy="87" fill="#040404" fill-opacity=".8" rx="38" ry="44"/><circle r="1" fill="#f7f8f7" fill-opacity=".6" transform="matrix(19.99606 3.2184 -4.6611 28.95964 0 123.6)"/><ellipse cx="175" cy="17" fill="#2f2f2f" fill-opacity=".9" rx="11" ry="169"/><circle r="1" fill-opacity=".5" transform="matrix(-39.7217 89.40466 -46.97914 -20.87242 235.8 127)"/><ellipse cx="15" cy="27" fill="#f2f2f2" fill-opacity=".7" rx="36" ry="26"/><path fill="#bbbcbb" fill-opacity=".4" d="M119 37h92v33h-92z"/><path fill-opacity=".5" d="M98 21h18v83H98z"/><path fill="#dcdddc" fill-opacity=".4" d="M91 111h22v55H91z"/><circle r="1" fill="#a5a5a5" fill-opacity=".9" transform="matrix(-26.00092 1.56206 -.67236 -11.19157 247.5 27.7)"/><ellipse cx="81" cy="169" fill="#030303" fill-opacity=".9" rx="10" ry="119"/><path fill="#000100" fill-opacity=".6" d="M136 42h21v31h-21z"/><circle r="1" fill="#070807" fill-opacity=".6" transform="matrix(10.36494 -15.4481 34.894 23.41219 130.2 108)"/><path fill-opacity=".6" d="M59 57L17 170l30 15z"/><path fill-opacity=".5" d="M188 23l-19 37 7 51z"/><path fill="#d2d2d2" fill-opacity=".6" d="M135 57l-.9 45.3-21.5-79.2 3.2-39.1z"/><path fill="#bfbfbf" fill-opacity=".9" d="M5 106.7l2.7 18.4L16.2 96 5.5 68.7z"/><path fill="#b2b2b2" fill-opacity=".6" d="M210.8 70.7l2.3 4.1-33.6-7.1 15-51.1z"/><circle r="1" fill="#717171" fill-opacity=".6" transform="matrix(-1.99078 3.6388 -47.27698 -25.86512 210.2 135.3)"/><path fill="#e6e6e6" fill-opacity=".5" d="M165 70l8-22-35-41z"/><path fill="#959595" d="M129.3 132.6L89.5 98.4l6.8 63.8 5-26.8z"/><circle r="1" fill="#010101" fill-opacity=".8" transform="matrix(5.81972 47.39781 -27.09434 3.32677 255 87.7)"/><path fill="#0c0c0c" fill-opacity=".7" d="M117 152l78 4-64 29z"/><path fill="#fcfdfc" fill-opacity=".4" d="M165.8 154.3l-28-9-3.2 11.7 25.9-9.7z"/><path fill="#151515" fill-opacity=".8" d="M5.1 57.6L-16 64.2l64.1-18.6L33.7 151z"/><ellipse cx="58" cy="5" fill="#dcdddc" fill-opacity=".7" rx="79" ry="9"/><path fill-opacity=".6" d="M201 21l19-7-16-1z"/><path fill="#010101" fill-opacity=".4" d="M190.2 33.4l-28.8 16 2-31.6 18.2 43.3z"/><path fill="#a4a4a4" fill-opacity=".5" d="M177 119h37v7h-37z"/><path fill="#606060" d="M118.6 77.4l-8.2-23.7-11.5-16.8 8.9 27z"/><path fill="#ededed" fill-opacity=".5" d="M146.9-8.2l13.7 35.5L118.9 46l4.2 24.2z"/><path fill="#c4c4c4" fill-opacity=".6" d="M58.4 106.8l1.8-1 11.4 23.4-1.8 1z"/><ellipse cx="125" cy="132" fill-opacity=".4" rx="6" ry="63"/><path fill="#fcfcfc" fill-opacity=".6" d="M184.3 175.7l6.9-15.5 4.5 2-6.9 15.6z"/><path fill="#353535" fill-opacity=".9" d="M103.7 52.7L119 41.3 95.8 13.1l4.5-4.2z"/><path fill="#fff" fill-opacity=".4" d="M223 72l5-17 1 19z"/><path fill="#e3e4e3" fill-opacity=".5" d="M249.9-9.1l-72.5 4.2 16.1 23.4 28.9-9.7z"/><path fill="#e0e1e0" fill-opacity=".6" d="M155.5 137.2L154 143l-15.5-4.2 1.5-5.8z"/><path fill="#acacac" fill-opacity=".7" d="M-16 145v-15l52-2z"/><path fill="#252625" fill-opacity=".5" d="M238.4 6.1l3.6 1.7-22.4 48-3.6-1.6z"/><path fill="#c1c1c1" d="M84.1 51.8L74 45.1l-15.8-54 26.4 49.6z"/><path fill="#161616" fill-opacity=".6" d="M189.4 165.7l-16.5-52.4-30 43.9 2.1-20.7z"/><path fill="#fcfefc" fill-opacity=".3" d="M154.9 88.9l-29.5-7.5 5-1 23.1.3z"/><path fill="#636363" fill-opacity=".5" d="M101 95L86 54l3 36z"/><path fill="#878787" fill-opacity=".7" d="M-1.3 185l16.9-47.5.1-1.3-24.2 8.8z"/><path fill="#050805" fill-opacity=".2" d="M125.3 21.3l7.3 17.3L138.8 9l12-25z"/><path fill="#f1f2f1" fill-opacity=".2" d="M216.1 91.6l-8.4 6.2 14.9 11.1-42.7-21.8z"/><path fill="#010201" fill-opacity=".4" d="M100.2 78.2L62.7 34.9l56.5 50.7 21.3-19.8z"/><circle r="1" fill-opacity=".5" transform="matrix(-54.96929 -4.71933 .24429 -2.84536 194.6 75.8)"/><ellipse cx="104" cy="162" fill="#636363" fill-opacity=".7" rx="15" ry="14"/><path fill="#edeeed" fill-opacity=".4" d="M55.3 150.1l2.9-19.8 8.1-4.2-14.2 6.4z"/><path fill="#d2d3d2" fill-opacity=".6" d="M271 27l-36 13-3-14z"/><path fill="#030303" fill-opacity=".6" d="M77 105.4l-4.3-62.5L13.2 98l6.3 17.3z"/><path fill="#1f201f" fill-opacity=".5" d="M0 52h39v22H0z"/><circle cx="125" cy="145" r="12" fill="#181818" fill-opacity=".9"/><path fill="#fff" fill-opacity=".4" d="M131 110l5-1v5z"/><path fill="#0a0b0a" fill-opacity=".4" d="M52 159L3 178l14-46z"/><path fill="#000100" fill-opacity=".5" d="M200.4 42.3l14-13.5 5.1 36.8 21.9-22.7z"/><path fill="#bcbcbc" d="M151.2-15.3l7.7 80.3 15.6-16.9-11.4-5.3z"/><path fill="#111" fill-opacity=".8" d="M155.1 85.3l112.2 38.3-103.7-27.7-9.3-3.6z"/><path fill="#cecece" fill-opacity=".6" d="M147.7 59.9l.6 8-4 .2-.6-8z"/><path fill="#2f2f2f" fill-opacity=".8" d="M113.3 79.2l35.6 15 65.6 35.6-73.1-28.2z"/><path fill="#cbcbcb" fill-opacity=".5" d="M7.4 74.3l15.7 52.9L-16 96l36.2 1.8z"/><path fill="#7b7b7b" d="M159.2 9.6L175.8-16l-18.3 46.4 15.2-21.7z"/><path fill-opacity=".5" d="M173 40h7v57h-7z"/></g></svg>