<svg xmlns="http://www.w3.org/2000/svg" viewBox="0 0 300 199"><defs/><path fill="#5c4137" d="M0 0h300v199H0z"/><g transform="translate(.6 .6) scale(1.17188)"><circle cx="89" cy="107" r="199" fill="#f7fbf7" fill-opacity=".6"/><ellipse cx="93" cy="94" fill="#1b0a02" fill-opacity=".8" rx="29" ry="47"/><circle r="1" fill="#482e21" transform="matrix(16.50808 9.33982 -13.7401 24.28554 200 47.8)"/><circle r="1" fill="#f5f4f2" fill-opacity=".8" transform="rotate(6.3 -502.8 249) scale(44.5797 148.49774)"/><circle r="1" fill="#fffffc" fill-opacity=".4" transform="matrix(5.15791 38.65676 -95.45393 12.73627 200.4 120.8)"/><circle r="1" fill="#5f4d43" fill-opacity=".6" transform="matrix(-28.31777 -6.54102 11.1859 -48.42667 100.4 22.4)"/><ellipse cx="154" cy="59" fill="#e8e9e9" fill-opacity=".8" rx="25" ry="39"/><path fill="#5a3c30" fill-opacity=".5" d="M163 162L54 185l23-67z"/><path fill="#2b0600" fill-opacity=".5" d="M182.4 29.1L298.8 4.4l4.8 22.5-116.4 24.7z"/><circle r="1" fill="#643518" fill-opacity=".5" transform="matrix(-16.99233 -33.4951 7.28844 -3.69748 55 82.9)"/><path fill="#662a14" fill-opacity=".6" d="M180.1 117.4L143.9 156l-8-7.5 36.2-38.7z"/><path fill="#fff" fill-opacity=".7" d="M85 11h10v31H85z"/><circle cx="207" r="24" fill="#fff" fill-opacity=".6"/><path fill="#110500" fill-opacity=".6" d="M130.7 114.1l-56.3 10.1 4.7-67.7L121 79z"/><circle r="1" fill="#f1f6f4" fill-opacity=".5" transform="rotate(126.9 54.4 120.1) scale(109.55638 19.6764)"/><path fill="#fff" fill-opacity=".4" d="M125 162l-25-36 78-31z"/><circle r="1" fill="#926143" fill-opacity=".5" transform="rotate(133.8 103.1 70) scale(57.70474 11.25941)"/><path fill="#581600" fill-opacity=".5" d="M138 18l43-16 3 17z"/><path fill="#f5f9fa" fill-opacity=".6" d="M57 185L7 131l55-32z"/><path fill="#fff" fill-opacity=".6" d="M168.7-10l-1.5 21.9-26-1.8 1.6-22z"/><ellipse cx="27" cy="20" fill="#fff" fill-opacity=".6" rx="47" ry="30"/><path fill="#4e2819" fill-opacity=".5" d="M131 151h20v19h-20z"/><path fill="#52322b" fill-opacity=".6" d="M82 72.4l-13-1L74-.3l13 1z"/><path fill="#e9e9e8" fill-opacity=".7" d="M132 111L203 0l-83 66z"/><path fill="#281508" fill-opacity=".3" d="M233.3 27.7l-36.5-9.4-19.8 20 4.7 47.6z"/><path fill="#fff2e1" fill-opacity=".5" d="M233.9 29.6L271 114l-40-50.7-2.7-45.5z"/><circle cx="75" cy="169" r="13" fill="#2a0600" fill-opacity=".5"/><path fill="#858f92" fill-opacity=".5" d="M-16 124l8 24 35-39z"/><path fill="#110200" fill-opacity=".4" d="M183.9 29.8l25.8 63.6-1.2-51.5 19.6-13.5z"/><path fill="#843e2a" fill-opacity=".6" d="M271 105l-18 18-7-11z"/><path fill="#6f594a" fill-opacity=".5" d="M98 12h36v38H98z"/><path fill="#f9f9f8" fill-opacity=".6" d="M46 57.4L59.9 0 72 66.6l-2.8 11z"/><path fill="#d6d6d2" fill-opacity=".6" d="M209.5 102.5L271 60l-28 62.4-30.8-73.9z"/><circle r="1" fill="#130a04" fill-opacity=".5" transform="matrix(24.31383 -27.54369 15.99077 14.11564 89.6 89.2)"/><path fill="#ac988c" fill-opacity=".4" d="M83 42h48v16H83z"/><ellipse cx="6" cy="169" fill="#979580" fill-opacity=".6" rx="32" ry="5"/><path fill="#e7e2de" fill-opacity=".4" d="M78 124.9L34.2 185 67.4 70.9l-21 39z"/><path fill="#654536" fill-opacity=".7" d="M135.2 106l-68.5 33.1 37.6 11.8-1.7-25.5z"/><path fill="#fff" fill-opacity=".5" d="M165 102h65v12h-65z"/><path fill="#bab9ba" d="M217.1 146.7l30.8-6.2-64.1 44.5 4.7-21.6z"/><path fill="#7c573f" fill-opacity=".5" d="M228 10h28v31h-28z"/><path fill="#2c0400" fill-opacity=".5" d="M224 48h5v19h-5z"/><path fill="#e4eefb" fill-opacity=".5" d="M250 174l-18-59 39 23z"/><path fill="#c28d71" fill-opacity=".5" d="M223.2 50.7L204.8 74l9.8-32.3 34.8-8.2z"/><circle r="1" fill="#f9f7f3" fill-opacity=".7" transform="matrix(9.79238 21.4874 -11.58636 5.28021 172.2 155.3)"/><path fill="#feffff" fill-opacity=".7" d="M-13.4 48.9l45.6-6.4L37.4 79l-45.6 6.4z"/><circle r="1" fill="#bbb8c0" fill-opacity=".4" transform="matrix(23.28465 8.04103 -1.74468 5.05213 108 160.8)"/><path fill="#470800" fill-opacity=".2" d="M185.9 144.1l-6.1-23.6-18.5-.3 3.2 12.1z"/><path fill="#e3dfd8" fill-opacity=".9" d="M189.2-16l46.5 27 9.1-6.9 26.2.5z"/><path fill="#fefefc" fill-opacity=".5" d="M89.7 8.4L82.3 53l14.9-26.3L85.7 8z"/><path fill="#d6d2cb" fill-opacity=".4" d="M164 20h17v84h-17z"/><path fill="#aa5b2f" fill-opacity=".5" d="M247.6 49l16.7 18.6-6 5.4-16.6-18.6z"/><circle r="1" fill="#724c2f" fill-opacity=".5" transform="matrix(-4.3456 .75062 -4.24925 -24.60055 120.8 95.8)"/><path fill="#61564e" fill-opacity=".5" d="M96 21.9l-6.9 40.9 34.2-39.6-41.4-35.4z"/><path fill="#eae9e5" fill-opacity=".4" d="M241.9 11.7l-32.3 14.1L153.7-16l75.8 41.1z"/><path fill="#a68976" fill-opacity=".5" d="M45.5 88.3L31.3 45.8l7.2.9 31.9 33.9z"/><path fill="#3a120d" fill-opacity=".5" d="M260.3 45l-17.1-8.4 6.5-13.5 17.1 8.3z"/><path fill="#e9ebe0" fill-opacity=".5" d="M137 144l-13 21-8-51z"/><circle cx="143" cy="16" r="5" fill="#643928" fill-opacity=".6"/><ellipse cx="139" cy="79" fill="#efefeb" fill-opacity=".7" rx="8" ry="57"/><path fill="#ccbfbb" fill-opacity=".9" d="M-10.9 156.8l62.9.9-2.8-8.5-27.8 12.2z"/><path fill="#59220f" fill-opacity=".4" d="M187 19l-16-5 2-11z"/><path fill="#ebe3d8" fill-opacity=".6" d="M241 85l-13-27 12-27z"/><path fill="#9f8f80" fill-opacity=".6" d="M121 0h14v39h-14z"/><circle r="1" fill="#c1916e" fill-opacity=".5" transform="matrix(2.82544 16.70367 -6.21625 1.05148 109 139.5)"/></g></svg>