<svg xmlns="http://www.w3.org/2000/svg" viewBox="0 0 300 199"><defs/><path fill="#6c3a3a" d="M0 0h300v199H0z"/><g transform="translate(.6 .6) scale(1.17188)"><circle r="1" fill="#cbebf0" fill-opacity=".5" transform="rotate(107.7 75.5 85.6) scale(157.05417 51.09721)"/><path fill="#212a1d" fill-opacity=".9" d="M166 104l105 29-72 52z"/><circle r="1" fill="#796a73" fill-opacity=".7" transform="matrix(-64.96674 -51.54392 27.6261 -34.82035 63.6 64.2)"/><circle r="1" fill="#eff4f3" fill-opacity=".8" transform="matrix(-45.13007 -.99513 .41141 -18.65779 221 0)"/><ellipse cx="147" cy="158" fill="#cbced8" fill-opacity=".7" rx="33" ry="52"/><ellipse cy="116" fill="#031729" fill-opacity=".8" rx="26" ry="58"/><circle r="1" fill="#372d2b" fill-opacity=".5" transform="rotate(90.5 58.9 107.6) scale(12.40754 48.77566)"/><ellipse cx="149" cy="10" fill="#c5cbcb" fill-opacity=".9" rx="16" ry="31"/><ellipse cx="236" cy="139" fill="#1f331b" fill-opacity=".7" rx="50" ry="46"/><circle r="1" fill="#2b4756" fill-opacity=".6" transform="matrix(-17.47261 -46.19362 18.92037 -7.15658 111 17.9)"/><circle r="1" fill="#001524" fill-opacity=".7" transform="matrix(16.95668 6.07137 -9.0834 25.36897 96.1 168.7)"/><path fill="#bec1ca" fill-opacity=".9" d="M188.5 166.7l-1 18.3-86.6-53.2 82.7 19.3z"/><path fill="#aec4f7" fill-opacity=".4" d="M55.3 100.5L38 108 20.7 67.5 38 60z"/><ellipse cx="182" cy="83" fill="#13000c" fill-opacity=".7" rx="3" ry="27"/><ellipse cx="46" cy="138" fill="#9d8854" fill-opacity=".5" rx="24" ry="23"/><path fill="#e7e6e8" fill-opacity=".5" d="M155.5 167.1l-18.1-91.8 45 4.4-12.3-11.9z"/><circle r="1" fill="#574c54" fill-opacity=".9" transform="matrix(-67.43146 46.6623 -18.14812 -26.22577 6.8 32.7)"/><path fill="#f4e8e6" fill-opacity=".5" d="M217 84l-41-45 22 47z"/><ellipse cx="86" cy="97" fill="#d88c99" fill-opacity=".5" rx="13" ry="28"/><circle r="1" fill="#56655e" fill-opacity=".5" transform="matrix(-24.33351 -11.3811 25.1344 -53.73895 247.8 59.5)"/><circle r="1" fill="#955947" fill-opacity=".5" transform="rotate(-106.9 113.3 8.4) scale(38.99395 4.62177)"/><path fill="#320605" fill-opacity=".5" d="M221 54h29v27h-29z"/><path fill="#634138" fill-opacity=".5" d="M151.3 38.2l25.9 13.1-14.5 28.5-25.9-13.1z"/><path fill="#814343" fill-opacity=".6" d="M86 93l34-23 20 53z"/><ellipse cx="92" cy="4" fill="#86bbc3" fill-opacity=".4" rx="6" ry="58"/><path fill="#fff" fill-opacity=".5" d="M3 23h19v5H3z"/><path fill="#323246" fill-opacity=".5" d="M184.4 16.4l14.8-2.6 2.4 13.8-14.8 2.6z"/><ellipse cx="30" cy="160" fill="#07435f" fill-opacity=".3" rx="15" ry="72"/><path fill="#0c0b16" fill-opacity=".6" d="M99 0h12v47H99z"/><path fill="#e7c2ac" fill-opacity=".5" d="M187.7 28.5l.1 44-12.6-25.8 8.1-22.6z"/><path fill="#9990a0" fill-opacity=".6" d="M178 116l-12-13 34 7z"/><path fill="#d4d4d9" fill-opacity=".9" d="M212.2 92.8l-17.1-16.1 7.4-23.8 9.1 18.7z"/><path fill="#041518" fill-opacity=".3" d="M189.5 40.4l28.5 5.5-3.5 17.7-28.5-5.5z"/><path fill="#121a29" d="M22.1 75.9l19.1 43.6-57.2-64L15.8 185z"/><path fill="#848f9a" fill-opacity=".6" d="M31 164l-14-13 12-30z"/><path fill="#1a0d16" fill-opacity=".5" d="M181 84l-7 49 20 30z"/><path fill="#dde0df" fill-opacity=".6" d="M135 0h11v43h-11z"/><path fill="#85726d" fill-opacity=".6" d="M264.6 47l-36.1 14.5-13.1-32.4 36.1-14.6z"/><path fill="#d3c8bb" fill-opacity=".7" d="M221.8 40.7l-9.2-7.3 4.6 47.4 1.4 7.4z"/><circle r="1" fill="#8d2523" fill-opacity=".4" transform="rotate(101.7 15.1 33.5) scale(7.91709 40.26628)"/><ellipse cx="59" cy="142" fill="#bf742d" fill-opacity=".6" rx="12" ry="21"/><path fill="#051408" fill-opacity=".4" d="M77.3 104.5L69 155.2l4-5.9 8.8 5.2z"/><path fill="#3b4f22" fill-opacity=".5" d="M253 104l-30 54-25-67z"/><path fill="#b8cdf2" fill-opacity=".5" d="M128 155l-19-31-3 13z"/><path fill="#6f4e4d" fill-opacity=".5" d="M182 10l-13 41-3-45z"/><path fill="#f9ebe0" fill-opacity=".6" d="M202 47h4v20h-4z"/><path fill="#112e2e" fill-opacity=".4" d="M24 146l111 39H11z"/><ellipse cx="46" cy="44" fill="#55909b" fill-opacity=".4" rx="25" ry="12"/><path fill="#cbd8f5" fill-opacity=".7" d="M131.2 120.4l-12.3 25.2-8-4 12.2-25.2z"/><path fill="#2c382b" fill-opacity=".5" d="M50 144l57-18 2 21z"/><path fill="#7f4f48" fill-opacity=".5" d="M185 80l-16-41 28 35z"/><path fill="#b57e84" fill-opacity=".4" d="M184.8 115.9L130 74.1l-59.8 40.4 61.3-19.7z"/><ellipse cx="113" cy="104" fill="#6b1d18" fill-opacity=".4" rx="6" ry="27"/><path fill="#3b444c" d="M-16 70l36.3-21-6.5-25.8-16.3 20.4z"/><path fill="#354145" fill-opacity=".6" d="M210 12l-2 20-3-14z"/><path fill="#6364b8" fill-opacity=".6" d="M249 64h7v33h-7z"/><path fill="#4e4943" fill-opacity=".4" d="M103.9 90.1l-37.5-5L91 69.7 29 98.3z"/><path fill="#d0dde9" fill-opacity=".5" d="M185 114l1-39 13 34z"/><ellipse cx="240" cy="65" fill="#001110" fill-opacity=".5" rx="2" ry="41"/><path fill="#262e33" fill-opacity=".5" d="M214 44l-1 31-10-35z"/><path fill="#e79797" fill-opacity=".2" d="M111 44.3l-93.9 12 151.8-1.5-41.5 35.6z"/><path fill="#061b21" fill-opacity=".5" d="M168 41l-3 12h-35z"/><path fill="#fed7df" fill-opacity=".2" d="M13 54.8l26.8 25.8-35.9-7.4 24-28.7z"/><path fill="#a79095" fill-opacity=".5" d="M42 94h46v13H42z"/><path fill="#ebeeec" fill-opacity=".7" d="M271-13.5L178.4-16l-9.7 23.7L271 13.3z"/></g></svg>