<svg xmlns="http://www.w3.org/2000/svg" viewBox="0 0 300 199"><defs/><path fill="#502f2b" d="M0 0h300v199H0z"/><g transform="translate(.6 .6) scale(1.17188)"><circle r="1" fill="#c2c1ba" fill-opacity=".7" transform="rotate(-172.2 29.4 51.3) scale(128.72099 108.28517)"/><circle r="1" fill="#c6bda2" fill-opacity=".5" transform="matrix(32.09923 6.76437 -26.62234 126.33208 243.3 87)"/><circle r="1" fill="#444235" fill-opacity=".7" transform="matrix(6.22119 -24.38522 64.45796 16.4446 91.3 18.1)"/><circle cy="105" r="89" fill="#ede8e5" fill-opacity=".5"/><circle r="1" fill="#5e4e45" fill-opacity=".7" transform="rotate(-120.2 112.7 36) scale(30.99583 99.08594)"/><circle r="1" fill="#614236" fill-opacity=".6" transform="matrix(4.50458 -.09436 2.17361 103.76709 39.4 105)"/><ellipse cx="98" cy="96" fill="#280100" fill-opacity=".3" rx="8" ry="79"/><path fill="#e7f2e6" fill-opacity=".5" d="M224 26h16v75h-16z"/><circle r="1" fill="#f0fbfd" fill-opacity=".6" transform="matrix(5.46726 -6.44677 19.84905 16.83322 82.4 1.7)"/><circle r="1" fill="#d8f5df" fill-opacity=".4" transform="rotate(-43.1 151.8 -153) scale(32.16932 20.72101)"/><circle r="1" fill="#09361d" fill-opacity=".6" transform="rotate(177.3 88.6 7.1) scale(68.64447 28.43323)"/><path fill="#fff" fill-opacity=".6" d="M98.5 137l-81.3 36.2-3.7-8.2 81.3-36.2z"/><path fill="#3f1806" fill-opacity=".6" d="M-13.5 161.5l56.7-19.6 2.3 6.6-56.7 19.6z"/><circle r="1" fill="#30452c" fill-opacity=".5" transform="matrix(-23.82826 -25.19767 18.82223 -17.7993 198.6 71.5)"/><ellipse cx="9" cy="84" fill="#694a39" fill-opacity=".7" rx="71" ry="4"/><ellipse cx="255" cy="30" fill="#e8e5db" fill-opacity=".6" rx="36" ry="7"/><path fill="#f4fafc" fill-opacity=".5" d="M0 21h34v57H0z"/><path fill="#ececeb" fill-opacity=".6" d="M45 37h28v101H45z"/><path fill="#31150d" fill-opacity=".5" d="M78 147.5l-4-117h2l4 117z"/><path fill="#c6c1cd" fill-opacity=".5" d="M107 108h51v21h-51z"/><circle r="1" fill="#1c0b0d" fill-opacity=".5" transform="matrix(-19.22549 -8.78757 1.90466 -4.16702 17 12.2)"/><path fill="#3c0a03" fill-opacity=".5" d="M242.7 41.3l21-1.5 3.6 51-21 1.4z"/><path fill="#ab938f" fill-opacity=".5" d="M178.5 139.5l18.1 20.7 29.1-.6-98.5 10.6z"/><ellipse cx="69" cy="169" fill="#91877f" fill-opacity=".9" rx="24" ry="16"/><path fill="#392724" fill-opacity=".6" d="M91.2 68.4l23 85.3L94.4 185l.1-95z"/><path fill="#391a14" fill-opacity=".6" d="M107 50L47-5l70 35z"/><path fill="#563a2e" fill-opacity=".5" d="M114.3 102.6l-8.9-1.4 2.9-13.4 55.3 16.3z"/><path fill="#eaeae5" fill-opacity=".6" d="M31 100.1l5.5 44.7-57.5 7-5.5-44.6z"/><path fill="#ac9f9f" fill-opacity=".7" d="M83.3 36.9l7.6 4.4-100.1-46L59 17.8z"/><path fill="#8a8a6b" fill-opacity=".5" d="M173.7 118.1l50.4-47.8-42.8 20.9-29.8-74.6z"/><path fill="#c9c9c5" fill-opacity=".5" d="M174.4 79.6l-14.2 26.9-3 10.6-42.5-89.6z"/><circle r="1" fill="#216a3f" fill-opacity=".6" transform="matrix(15.80853 -22.75852 11.90295 8.26803 158.7 22)"/><path fill="#593b37" fill-opacity=".6" d="M143 164l-23-2 11-67z"/><circle r="1" fill="#040315" fill-opacity=".5" transform="matrix(7.00546 19.07676 -8.70452 3.19651 192.6 129.5)"/><path fill="#f8f8ff" fill-opacity=".4" d="M101.5 95l-4.2-9.5 22.3 70.9.3-44.1z"/><path fill="#563c39" d="M179.2 164.1l81.3 9.4 10.5-6.8-86.8-5.1z"/><ellipse cx="10" cy="43" fill="#5c4c4b" fill-opacity=".4" rx="2" ry="49"/><path fill="#603e2d" fill-opacity=".5" d="M0 82h82v4H0z"/><ellipse cx="195" cy="37" fill="#0b0707" fill-opacity=".3" rx="21" ry="40"/><path fill="#584334" fill-opacity=".8" d="M233.9 6.4L206 31.5l58.3-12.3L231.5-16z"/><path fill="#f2eff7" fill-opacity=".5" d="M81 46h6v43h-6z"/><path fill="#937c73" fill-opacity=".7" d="M64.3 132.1l16 2.5-18.7 6.9-30.7 13.6z"/><path fill="#c7c0a2" fill-opacity=".5" d="M98 51h8v41h-8z"/><ellipse cx="111" cy="6" fill="#631d11" fill-opacity=".5" rx="11" ry="42"/><ellipse cx="12" cy="122" fill="#8e766b" fill-opacity=".7" rx="2" ry="38"/><path fill="#3c0000" fill-opacity=".6" d="M214 57h12v13h-12z"/><path fill="#e2e4e6" fill-opacity=".6" d="M.9 164.1L94 131.7l-31.9 23.2L-5.3 185z"/><ellipse cx="143" cy="121" fill="#9f796c" fill-opacity=".6" rx="8" ry="34"/><ellipse cx="124" cy="69" fill="#c6c3bf" fill-opacity=".5" rx="13" ry="28"/><path fill="#6a4a47" fill-opacity=".4" d="M77 21h5v115h-5z"/><ellipse cx="91" cy="101" fill="#ab9898" fill-opacity=".8" rx="2" ry="32"/><path fill="#fff" fill-opacity=".5" d="M239.9 101l.3-3.9 26 1.8-.4 4z"/><path fill="#938a82" fill-opacity=".8" d="M110.7 154.3l-21.3 15.8-7.2-28.9L26.6 185z"/><path fill="#c9dcee" fill-opacity=".4" d="M146.8 171.7l-24.8 2.6-.8-8 24.8-2.6z"/><path fill="#e5e5e5" fill-opacity=".4" d="M37.2 84.1l-47-70.9 3.7-5.4 30.6 10.6z"/><path fill="#576d54" fill-opacity=".6" d="M177.1 26.3l-3.3 39.9-1.7 2.2-14.2 7.3z"/><ellipse cx="96" cy="5" fill="#acb5aa" fill-opacity=".8" rx="3" ry="17"/><path fill="#000906" fill-opacity=".4" d="M136 27L92-16h73z"/><ellipse cx="38" cy="56" fill="#593c31" fill-opacity=".4" rx="4" ry="98"/><path fill="#f4f8fa" fill-opacity=".6" d="M42 30h14v19H42z"/><circle r="1" fill="#412c2b" fill-opacity=".5" transform="rotate(112.5 9.2 19.2) scale(2.59597 67.8727)"/><path fill="#7b6355" fill-opacity=".9" d="M-7.8 77.9l35.5 2.5 43.2 3.3-50.3 4.2z"/><path fill="#ae8278" fill-opacity=".5" d="M208 158l38 8-43-56z"/><path fill="#3a2521" fill-opacity=".6" d="M90.7 164.1l-5-20.2 24.2-7 7 7.4z"/><path fill="#c3c0b9" fill-opacity=".7" d="M127.9 106.3l29.5-65.1 3.3-3.1 5.4 11.5z"/></g></svg>