<svg xmlns="http://www.w3.org/2000/svg" viewBox="0 0 300 199"><defs/><path fill="#573429" d="M0 0h300v199H0z"/><g transform="translate(.6 .6) scale(1.17188)"><circle r="1" fill="#d4c0b3" fill-opacity=".6" transform="matrix(209.2792 89.26514 -36.10858 84.65539 105.4 118.4)"/><circle r="1" fill="#3c1c0e" fill-opacity=".6" transform="matrix(19.77179 56.14503 -34.55945 12.1703 102 58)"/><circle r="1" fill="#fff5e9" fill-opacity=".4" transform="matrix(8.6689 46.7732 -112.5744 20.86443 226.2 142)"/><circle cx="186" cy="38" r="56" fill="#81624f" fill-opacity=".7"/><circle r="1" fill="#f8fbed" fill-opacity=".7" transform="matrix(-20.36537 -23.10849 18.9974 -16.7423 0 151.2)"/><circle r="1" fill="#f6c0ad" fill-opacity=".5" transform="matrix(10.63492 -5.40503 15.26574 30.03684 100.4 47)"/><circle r="1" fill="#1e0800" fill-opacity=".5" transform="matrix(-7.70758 .09646 -.47892 -38.2669 40.6 35.1)"/><path fill="#74482e" fill-opacity=".5" d="M169 17h29v135h-29z"/><circle r="1" fill="#e6bdad" fill-opacity=".8" transform="matrix(.77391 11.35219 -15.34615 1.0462 148.2 34.4)"/><circle r="1" fill="#edecf6" fill-opacity=".4" transform="matrix(2.56457 16.10233 -39.14932 6.23519 27.1 93.4)"/><circle r="1" fill="#761101" fill-opacity=".4" transform="matrix(5.6176 -8.0784 42.98291 29.88973 68.6 134.1)"/><circle r="1" fill="#190000" fill-opacity=".3" transform="matrix(.29105 -21.14608 41.29018 .56831 112.1 80.2)"/><path fill="#a8886a" fill-opacity=".7" d="M223 91.4l18-42.3 46 19.5-18 42.3z"/><circle r="1" fill="#f5d6c4" fill-opacity=".7" transform="matrix(16.98425 40.15126 -21.09256 8.9223 225.7 125.9)"/><ellipse cx="18" cy="30" fill="#bed1e3" fill-opacity=".5" rx="14" ry="40"/><circle r="1" fill="#faffff" fill-opacity=".5" transform="matrix(9.29385 -6.93589 28.298 37.91833 134 169)"/><path fill="#860700" fill-opacity=".5" d="M82 128h22v30H82z"/><circle r="1" fill="#020701" fill-opacity=".5" transform="matrix(-22.56792 9.81281 -19.89744 -45.76099 255 10)"/><circle r="1" fill="#c6c7d4" fill-opacity=".6" transform="rotate(-177.4 76.2 66) scale(17.5574 41.68135)"/><circle r="1" fill="#793d2d" fill-opacity=".7" transform="rotate(-148.5 48.6 77.5) scale(6.48513 44.68912)"/><path fill="#ceb1a6" fill-opacity=".9" d="M106.2 126l5.1-22.1L73 139.7l-1.9-8.6z"/><path fill="#a87f68" fill-opacity=".7" d="M171.7 59.1L219.1 185l-23-16.2-54.2-124.4z"/><ellipse cx="58" cy="31" fill="#cf9f8f" fill-opacity=".6" rx="13" ry="28"/><path fill="#472916" fill-opacity=".6" d="M109.4 128.2l1-47L142 39.4l-6.8 69.8z"/><path fill="#fff" fill-opacity=".6" d="M59.8 145.6L47 144.3l1.3-12 12.9 1.4z"/><circle r="1" fill="#4e3729" fill-opacity=".6" transform="matrix(-21.09655 -7.22296 5.24932 -15.33202 217.2 66.3)"/><path fill="#000b18" fill-opacity=".5" d="M2-6l-18 66 20-5z"/><path fill="#fbc6b6" fill-opacity=".4" d="M155.9 76.2l-22.6-41.4 20.7-31-17.8-11.9z"/><path fill="#d0cccb" d="M49.3 66.2L29.7 90.4l13.3 25 12.1-35.6z"/><path fill="#37241a" fill-opacity=".8" d="M54.4-16H91L67.5 75.6l40.4 20.7z"/><path fill="#f2ffff" fill-opacity=".6" d="M186 143l-21 23 32 17z"/><path fill="#e1a694" fill-opacity=".4" d="M108.2 80.7L87 55.4l16.8-14.1L125 66.6z"/><path fill="#1f0000" fill-opacity=".4" d="M20 66.4l17.7 22.7 4.2-37.4L60 62.3z"/><path fill="#74744c" fill-opacity=".5" d="M57 154L21 98l-10 32z"/><path fill="#a79e9f" d="M-16 151l6-97 25 7z"/><path fill="#e2e7d9" fill-opacity=".5" d="M5.5 118.6l40 37-31.4 13.8-28.8-41.7z"/><path fill="#3c2a1c" fill-opacity=".6" d="M40.3-11.4L76.5-3 30.3 15.5l24.6 15.3z"/><path fill="#8a6250" fill-opacity=".6" d="M166.3 160.5L224.2 43 161 153.8l-.9 28z"/><circle cx="90" cy="30" r="9" fill="#f9d8bc" fill-opacity=".5"/><path fill="#2e2116" fill-opacity=".7" d="M127.1 40l13.1-18.7-25.7-23.9 18.2 82.5z"/><path fill="#281205" fill-opacity=".5" d="M92 63h10v53H92z"/><path fill="#ffe9da" fill-opacity=".6" d="M62.4 6l7.2 15.4-10 4.6-7.2-15.4z"/><circle r="1" fill="#ddc3b3" fill-opacity=".5" transform="matrix(-26.70806 -21.72545 3.47557 -4.27268 81.9 108.1)"/><path fill="#463b36" fill-opacity=".4" d="M225.6 25.4L189.7-16h-13.6l3.2 94.7z"/><path fill="#3d2617" fill-opacity=".5" d="M159 68.2l12.3 1.9L119.2 97 76 84.8z"/><path fill="#4f2720" fill-opacity=".4" d="M48 45l33 25 10-30z"/><path fill="#525731" fill-opacity=".6" d="M33.1 121.6l-18 16.5 2.1-16.6 17.1-12.1z"/><path fill="#4d0702" fill-opacity=".3" d="M241.1 173.3l7.7-18.6L264 153l-2.3 6z"/><path fill="#6c0904" fill-opacity=".5" d="M65.6 137.2l-15-26 7.8-4.4 15 26z"/><path fill="#9d846b" fill-opacity=".5" d="M216.4-10.8l24 53.9-2.2 20.5-8.5-8.8z"/><path fill="#e7e2d4" fill-opacity=".7" d="M19.9 120.2L3.1 97.7l.5 12.7 20.2.4z"/><path fill="#845b4c" fill-opacity=".7" d="M127 47L94 37l18-12z"/><path fill="#7c6955" d="M18.8-16l17.9 27.2L48 8.4l9.9-22z"/><path fill="#c7372a" fill-opacity=".4" d="M27 115l-8-13 20-5z"/><path fill="#beb0ae" fill-opacity=".6" d="M150.1 185l33.9-84.1-53.2 28 31.3-45.8z"/><path fill="#593831" fill-opacity=".5" d="M3.4 82.3l4.1-5.9 39.8-16.8 44.6-8z"/><path fill="#f3ffff" fill-opacity=".6" d="M35 76L11 94l1-16z"/><path fill="#2e1208" fill-opacity=".6" d="M41.9 16.8L47 66.5l-7 .7-5-49.7z"/><path fill="#83502d" fill-opacity=".5" d="M252 92h4v32h-4z"/><path fill="#9fc0a6" fill-opacity=".4" d="M40.9 157.4l5.3-35.1-23.5 2.6-2.7 35z"/><path fill="#e6f6fc" fill-opacity=".5" d="M147 185l-7-31-36 3z"/><path fill="#f1d6ca" fill-opacity=".5" d="M94 45l3 13 19-15z"/><path fill="#936850" fill-opacity=".3" d="M161.2 1.6l-1.7 116.6 29.1-10.3 15.9-.5z"/><path fill="#3b211f" fill-opacity=".5" d="M17.2 96.8l-.4 1-26-10.6.4-1z"/><path fill="#dee2e7" fill-opacity=".5" d="M54.9 83L-16 123l47.9-35.1 14.5-22.4z"/></g></svg>