<svg xmlns="http://www.w3.org/2000/svg" viewBox="0 0 299 449"><defs/><path fill="#4b4430" d="M0 0h299v449H0z"/><g transform="translate(.9 .9) scale(1.7539)"><circle r="1" fill="#ddbb93" fill-opacity=".8" transform="matrix(22.5286 -22.52689 44.83474 44.83815 142.7 19.5)"/><circle r="1" fill="#cac39f" fill-opacity=".5" transform="matrix(-20.68862 -21.75785 40.19304 -38.21786 19.6 137.3)"/><ellipse cx="93" cy="236" fill="#000a1c" fill-opacity=".7" rx="78" ry="117"/><path fill="#b66c3e" fill-opacity=".6" d="M186 74L59-16l43 107z"/><path fill="#cce7d7" fill-opacity=".5" d="M185 139l1 70-42-109z"/><path fill="#fcf1fe" fill-opacity=".6" d="M102.6 56.5l14.1 9-9.9 49.2-4.1-37.1z"/><ellipse cx="126" cy="115" fill="#00103c" fill-opacity=".7" rx="19" ry="37"/><ellipse cx="35" cy="239" fill="#0c1213" rx="146" ry="34"/><circle r="1" fill="#6a7f68" fill-opacity=".3" transform="rotate(-127.8 120.6 50) scale(41.6063 35.1124)"/><circle cx="22" cy="150" r="36" fill="#a79a7c" fill-opacity=".4"/><ellipse cy="5" fill="#291000" fill-opacity=".6" rx="21" ry="100"/><circle r="1" fill="#973200" fill-opacity=".4" transform="matrix(52.68831 38.70341 -10.7548 14.64089 60.6 16)"/><ellipse cx="89" cy="112" fill="#0b081d" fill-opacity=".8" rx="14" ry="21"/><path fill="#59553b" fill-opacity=".8" d="M14 69h58v39H14z"/><path fill="#a2561b" fill-opacity=".6" d="M213.9 113l-15.4 19.8L114 66.9l15.4-19.7z"/><path fill="#01113a" fill-opacity=".5" d="M177 101.5l-59.4 91 28.2-68.7L186 92z"/><circle cx="162" cy="27" r="24" fill="#d8d4c0" fill-opacity=".5"/><path fill="#b6b191" fill-opacity=".6" d="M0 108h61v28H0z"/><path fill="#c7c19a" fill-opacity=".5" d="M135.2 178.2l6.1-10.9 7.7 23.6-8.3.6z"/><path fill="#9c4a01" fill-opacity=".5" d="M150.7 15.5l8.8 7.9L186 79.5v10.4z"/><ellipse cx="170" cy="160" fill="#d3f1e0" fill-opacity=".5" rx="3" ry="42"/><circle r="1" fill="#446860" fill-opacity=".5" transform="matrix(24.7595 14.60445 -6.54623 11.09808 16 190.5)"/><path fill="#76401b" fill-opacity=".8" d="M103-16l-8.6 78.7L-16-16l94.1 33.9z"/><path fill="#dde3d2" fill-opacity=".6" d="M124.8 40.7L170 66.6l13.7 12.6L145 56z"/><path fill="#952700" fill-opacity=".5" d="M155.7 20.9L167.5-10l2.8 1-11.8 31z"/><path fill="#020825" fill-opacity=".5" d="M65 217l83-105-110 65z"/><path fill="#090400" fill-opacity=".5" d="M186 117l-41-26 15 27z"/><path fill="#fffaee" fill-opacity=".4" d="M152.6 107.5l4.3 15.8-15.5-19.8 16.6 1z"/><path fill="#a16a36" fill-opacity=".7" d="M103.7 19l29.8 25.4 17.6-58.8-37.6 77.7z"/><path fill="#755a4d" fill-opacity=".7" d="M92.9 124.5l-14.1 25.6-61.4 12.6 26.8 10.2z"/><path fill="#031219" fill-opacity=".6" d="M99.9 48.4l-4.5 1.3-16.2 6.7 37.5-.8z"/><path fill="#a26a36" d="M115.9 1.3L111.6-16l30.1 62.1-9.8-9.1z"/><path fill="#0c1837" fill-opacity=".9" d="M46 155l45.8-64.6-42.3 98.8 40.3-28.1z"/><path fill="#b0a0c0" fill-opacity=".7" d="M107.6 117.2l-2 .3-3.2-18.7 2-.3z"/><circle r="1" fill="#0c1e4a" fill-opacity=".7" transform="matrix(-21.55822 -.60218 .2623 -9.39022 114.5 176)"/><path fill="#cfd9c7" fill-opacity=".5" d="M186 112l-36 27 28 1z"/><path fill="#19180f" fill-opacity=".4" d="M98 61L-11-8l-5 38z"/><path fill="#d5d5c6" fill-opacity=".7" d="M138.2 39.3l28 18.8 3.6-2.4-24.2-43.5z"/><path fill="#edd3d3" fill-opacity=".4" d="M95.2 75.9l20.3-8L102.2 90l-5.6-28.2z"/><path fill="#9a9174" fill-opacity=".6" d="M75.8 107.4l-91.8-1 89.3 9.1L80.7 92z"/><circle r="1" fill="#071d40" fill-opacity=".5" transform="rotate(59.3 -22.8 163.9) scale(28.24266 9.88954)"/><path fill="#d8ddc4" fill-opacity=".5" d="M98.5 26.2l.5-.9 28.5 18.5-.5.9z"/><path fill="#3d5236" fill-opacity=".5" d="M147 143h22v51h-22z"/><path fill="#b7aa8c" d="M111.6-4.1L130.7 36l-25.1-13.6L102 14z"/><path fill="#55401c" fill-opacity=".4" d="M39.5 212.3l-10.6-59.7-30.5-1.5 47.8-4.2z"/><path fill="#122e68" fill-opacity=".6" d="M138.6 98.1l7.6-.3-10.2 48.4 25-13.4z"/><path fill="#833e00" fill-opacity=".5" d="M123.3 33.8l42.9 25.8-1.5 2.6-42.9-25.8z"/><path fill="#c06565" fill-opacity=".4" d="M120.8 150.8l13 5.3-4.6 11-13-5.2z"/><path fill="#0f0b0b" fill-opacity=".5" d="M131 148h18v24h-18z"/><path fill="#feadbd" fill-opacity=".3" d="M56.3 160.6l-4-7.4h.3l-14.2 15.4z"/><path fill="#935727" d="M174.2 109.6L186 80.8l-37.4-21.1-36.1 10.2z"/><ellipse cx="108" cy="77" fill="#fff7ef" fill-opacity=".4" rx="4" ry="19"/><path fill="#98935a" fill-opacity=".2" d="M159.9 185.1l-47.8 12.2.4-9 6.2-6.6z"/><path fill="#452710" fill-opacity=".7" d="M14 51l-30 35 33 22z"/><ellipse cx="136" cy="206" fill="#272e1f" fill-opacity=".6" rx="31" ry="12"/><circle r="1" fill="#09080f" fill-opacity=".6" transform="matrix(-14.03019 -16.3635 29.25132 -25.0803 78 215)"/><path fill="#c1d4cd" fill-opacity=".4" d="M115-16l16 36 19-36z"/><circle cx="101" cy="59" r="5" fill="#dfc0b7" fill-opacity=".4"/><circle r="1" fill="#8c8a6d" fill-opacity=".5" transform="matrix(10.72455 35.5214 -15.80143 4.77073 8.9 148)"/><path fill="#904356" fill-opacity=".3" d="M94.8 79.1l6.5 11.4 12.7 6.9-12.5 35.3z"/><path fill="#aca487" fill-opacity=".8" d="M57.2 140.3l-73.2-37 33.4 4.4 45 6.2z"/><path fill="#e9f8fc" fill-opacity=".3" d="M159.3 23.8L178.5-16l7.5 95.1-26.5-58.2z"/><path fill="#5b563d" fill-opacity=".5" d="M15 55h42v54H15z"/><path fill="#c9c6b3" fill-opacity=".8" d="M144.6 9.5L155.1-16h9.6l-15.8 61.2z"/><path fill="#3e3d17" fill-opacity=".4" d="M85.2 180l8 30-14.4 4-8-30z"/></g></svg>