<svg xmlns="http://www.w3.org/2000/svg" viewBox="0 0 300 199"><defs/><path fill="#39635e" d="M0 0h300v199H0z"/><g transform="translate(.6 .6) scale(1.17188)"><circle cx="19" cy="88" r="167" fill="#e39d8a" fill-opacity=".4"/><circle r="1" fill="#fff6ec" fill-opacity=".5" transform="matrix(17.72918 -78.92639 25.83767 5.8039 248.6 63.9)"/><circle r="1" fill="#190e07" fill-opacity=".5" transform="rotate(169.9 64.6 45.7) scale(84.73685 22.09857)"/><ellipse cx="86" cy="149" fill="#0e1512" fill-opacity=".8" rx="15" ry="37"/><circle r="1" fill="#e9ece6" fill-opacity=".6" transform="matrix(11.60721 -1.38656 8.74065 73.1702 10.5 80.4)"/><ellipse cx="81" cy="10" fill="#f4f3d5" fill-opacity=".5" rx="55" ry="23"/><ellipse cx="197" cy="81" fill="#302b21" rx="16" ry="79"/><circle cx="160" cy="149" r="30" fill="#f3eeff" fill-opacity=".4"/><circle r="1" fill="#a2410c" fill-opacity=".7" transform="matrix(-10.33473 -16.56172 48.74723 -30.4189 242.4 156.7)"/><circle r="1" fill="#b3601e" fill-opacity=".6" transform="matrix(-21.26082 74.14529 -11.4891 -3.29445 221 32.5)"/><ellipse cx="81" cy="42" fill-opacity=".7" rx="16" ry="11"/><path fill="#00070e" fill-opacity=".6" d="M167 99L214-1l-25 142z"/><path fill="#0b0f10" fill-opacity=".7" d="M188.7 140.5l26-20.3 16.6 21.3-26 20.3z"/><circle cx="151" cy="18" r="38" fill="#af9065" fill-opacity=".6"/><ellipse cx="109" cy="121" fill="#b6c1f6" fill-opacity=".6" rx="8" ry="31"/><ellipse cx="35" cy="57" fill="#2e3540" fill-opacity=".6" rx="24" ry="16"/><path fill="#c79f87" fill-opacity=".6" d="M141 76h24v44h-24z"/><path fill="#f9ffff" fill-opacity=".5" d="M2 70l7 41 33-33z"/><circle r="1" fill="#bfc2cb" fill-opacity=".7" transform="matrix(-17.53626 -16.45856 20.28145 -21.60947 237.2 103.9)"/><path fill="#0f0f0b" fill-opacity=".6" d="M130 126l-17-79 36 6z"/><ellipse cx="177" cy="46" fill="#a3b6b2" fill-opacity=".6" rx="7" ry="31"/><path fill="#9fa892" d="M10.2 156.3l3.6-10.5 56.6-8.9 5.5 23.1z"/><path fill="#58362f" d="M31.8 138.6l46.8-3.7 12.6 6.8L37.7 115z"/><path fill="#371600" fill-opacity=".6" d="M164 0h8v84h-8z"/><circle r="1" fill="#f1dcdb" fill-opacity=".6" transform="matrix(14.83513 -9.9234 2.343 3.50272 193.1 169)"/><path fill-opacity=".6" d="M46.3 74l10.5 20.4-7.1 3.7-10.5-20.5z"/><path fill="#f2f1e0" fill-opacity=".5" d="M66 127l-2-33-29 11z"/><path fill="#190e26" fill-opacity=".6" d="M132 151l-9 34-3-58z"/><path fill="#bec2b2" fill-opacity=".6" d="M104 20h30v24h-30z"/><ellipse cx="16" cy="168" fill="#23341c" fill-opacity=".5" rx="118" ry="6"/><path fill="#62675f" fill-opacity=".9" d="M93 119l-35.6-3.2 41.7-34.5 11.8 12.3z"/><circle r="1" fill="#050d0f" fill-opacity=".7" transform="matrix(11.07088 2.5295 -12.18849 53.34553 202.9 0)"/><path fill="#f7f4f6" fill-opacity=".4" d="M25 52L2 49l-4-59z"/><circle r="1" fill="#856630" fill-opacity=".4" transform="matrix(-25.81938 14.54847 -3.83383 -6.80394 18.3 112.4)"/><path fill="#fde6d9" fill-opacity=".4" d="M60.4 71.1l8.4 10.6-13.4 3L42.7 68z"/><path fill="#1b2627" fill-opacity=".6" d="M95.9 85.3l-62.7 20.1 65.3-45.1 32.1 23.6z"/><circle r="1" fill="#bbbcae" fill-opacity=".6" transform="rotate(73 10.6 45.5) scale(32.20973 10.90404)"/><path fill="#7e2c00" fill-opacity=".5" d="M135 0h9v40h-9z"/><path fill="#ada67f" fill-opacity=".6" d="M262.6-9.4l-15.8 68.2-23.4-5.4 15.8-68.2z"/><path fill="#171912" fill-opacity=".5" d="M91 168l11-52-33-6z"/><path fill="#d4ddef" fill-opacity=".5" d="M-2 65l43 28V79z"/><path fill="#393302" fill-opacity=".4" d="M0 108h7v62H0z"/><path fill="#b4aca1" fill-opacity=".6" d="M30.1 118.5l6.1 18.3-34.7 9 2.8-18.3z"/><path fill="#cbc7b5" fill-opacity=".6" d="M171 0h7v39h-7z"/><circle r="1" fill="#b1742f" fill-opacity=".6" transform="rotate(12.8 -17.1 972.5) scale(4.70106 91.64741)"/><path fill="#c4cdb1" fill-opacity=".5" d="M143 31l16 3 2-43z"/><path fill="#cfafac" fill-opacity=".5" d="M97 86L81 98l6 17z"/><path fill="#dbeefc" fill-opacity=".5" d="M129.6 116.3l18.7-4.4-1.8-9.1-4.6 1.1z"/><path fill="#9ba8cc" fill-opacity=".7" d="M99 132.7l18.8-41.9-8.3 53.4-4.7 24z"/><path fill="#252627" fill-opacity=".5" d="M19.3 79l6.5-53 11.6 18.7-9.9 24.1z"/><path fill="#cc9e79" fill-opacity=".3" d="M28.6 82.7l86.1-45.2 1.1-3.1v34.7z"/><path fill="#5e3217" fill-opacity=".7" d="M201.8 124.5l24.6-85L237.8-16 223.2 2.4z"/><path fill="#1c2220" fill-opacity=".7" d="M93.1 74.6l53.3 22.6-14.8 18.1 14.5-57.7z"/><path fill="#666a69" fill-opacity=".9" d="M181.1 126.4l13.3 37.8-47.2 17.6 50.5-30.6z"/><path fill="#102428" fill-opacity=".5" d="M52.6 82.5l54.6 8-57.2 5-19.7-30.7z"/><path fill="#0c3236" fill-opacity=".6" d="M74 69l9 43-17-2z"/><ellipse cx="56" cy="24" fill="#c0c1b2" fill-opacity=".4" rx="35" ry="11"/><path fill="#9fa1c9" fill-opacity=".5" d="M107 113l21 14-14-42z"/><path fill="#faf0ff" fill-opacity=".4" d="M69.3 117.7l2.2 11.6-17.4-6.5 15.4-11z"/><path fill="#1d2727" fill-opacity=".7" d="M199.4 87.2l-39.2-23.4-8.1 5.9 38.1 45.1z"/><path fill="#a9d0ff" fill-opacity=".3" d="M41.9 62.2L58 86.7 45.8 50 27.2 66.4z"/><path fill="#664b3c" fill-opacity=".9" d="M150.6 110.8l4.3-17.1-15.7 4.2-2.1-25.3z"/><path fill="#bdc9c3" fill-opacity=".5" d="M66 150l1-17-49 16z"/><path fill="#98663f" fill-opacity=".5" d="M166 51l-49-4 36 18z"/><path fill="#b7b8b2" fill-opacity=".6" d="M270.2 72.5l-61.1 48.9 9.2-46.2 15.4-47.7z"/></g></svg>