<svg xmlns="http://www.w3.org/2000/svg" viewBox="0 0 300 199"><defs/><path fill="#494138" d="M0 0h300v199H0z"/><g transform="translate(.6 .6) scale(1.17188)"><circle r="1" fill="#edf8fd" fill-opacity=".5" transform="matrix(-56.03103 32.15289 -57.12027 -99.54028 43 98.9)"/><ellipse cx="12" cy="41" fill="#fffff6" fill-opacity=".7" rx="73" ry="33"/><circle r="1" fill="#6e7577" fill-opacity=".7" transform="rotate(116.4 27.4 92.4) scale(121.78917 20.05506)"/><circle r="1" fill="#0a0200" fill-opacity=".7" transform="matrix(4.42676 -28.10673 18.64457 2.93649 103.7 54.6)"/><circle r="1" fill="#010000" fill-opacity=".6" transform="matrix(24.98358 10.87027 -19.75299 45.3991 204.4 26.9)"/><circle r="1" fill="#0d0000" fill-opacity=".5" transform="matrix(87.48725 -5.13918 .38695 6.58727 12.9 82.9)"/><circle r="1" fill="#686f75" fill-opacity=".6" transform="matrix(-74.33107 -3.96846 1.54201 -28.8826 69 169)"/><circle r="1" fill="#454741" fill-opacity=".6" transform="matrix(99.96542 -27.25123 .81852 3.00256 80.8 90)"/><circle r="1" fill="#8c9494" fill-opacity=".6" transform="matrix(35.54327 9.85702 -5.00188 18.03618 92.1 0)"/><path fill="#70838b" fill-opacity=".6" d="M161 150L81 72l101 27z"/><path fill="#000c24" fill-opacity=".7" d="M188 26.8l21 241-15 1.4-21-241z"/><ellipse cx="1" cy="25" fill="#f9f9fa" fill-opacity=".8" rx="41" ry="26"/><path fill="#3d4448" fill-opacity=".8" d="M84 28l-95-41 55-3z"/><path fill-opacity=".7" d="M151-15l10 49 11-50z"/><path fill="#ffb285" fill-opacity=".5" d="M189.1-16h-16l-11.5 55.4-.4 27.4z"/><path fill="#8ad4fd" fill-opacity=".4" d="M128 44l14 37-4-63z"/><path fill="#ff9b60" fill-opacity=".4" d="M145.2-8.3l27 63.5-7.4 3.1-27-63.5z"/><ellipse cx="16" cy="63" fill="#d7cfb3" fill-opacity=".7" rx="70" ry="13"/><circle r="1" fill="#082c43" fill-opacity=".5" transform="matrix(-8.95704 1.78043 -7.98873 -40.19002 153.6 64.5)"/><ellipse cx="254" cy="30" fill="#100900" fill-opacity=".8" rx="6" ry="51"/><path fill="#657174" fill-opacity=".4" d="M197 93h59v42h-59z"/><circle r="1" fill="#011221" fill-opacity=".5" transform="matrix(-8.38834 -12.6734 19.52554 -12.92368 177 147.7)"/><ellipse cx="240" cy="44" fill="#e0bf99" fill-opacity=".4" rx="8" ry="12"/><path fill="#0e0000" fill-opacity=".6" d="M74.5 91.3L2 110.7l-.5-2L74 89.3z"/><path fill="#172d38" fill-opacity=".5" d="M119 124l7 21 45-61z"/><circle r="1" fill="#b7c4d0" fill-opacity=".5" transform="matrix(-7.75735 -13.5638 41.63385 -23.81104 50.5 118.8)"/><path fill="#100600" fill-opacity=".5" d="M90 28h39v49H90z"/><path fill="#f7eeea" fill-opacity=".5" d="M156 164l22 3-13 3z"/><path fill="#d3e8f8" fill-opacity=".5" d="M91.9 79.6l.8 4.9-90.6 16-.8-5z"/><path fill="#919fa3" fill-opacity=".5" d="M96 80h45v42H96z"/><path fill="#42321b" fill-opacity=".6" d="M42.6 86.4l-63 11-2.2-11.8 63-11z"/><path fill="#637074" fill-opacity=".8" d="M155.7 134.1l17.6-62.3 7.4 28-3.7 36.3z"/><path fill-opacity=".6" d="M131.5 23.4l-3.9-24.7 12.9-2 3.9 24.6z"/><path fill="#020000" fill-opacity=".6" d="M205.3 35l-7.7-18.6 7.9-32.4-40.9 52.6z"/><ellipse cx="224" fill="#382e22" rx="25" ry="22"/><path fill="#41718a" fill-opacity=".5" d="M137 23h13v82h-13z"/><path fill="#151310" fill-opacity=".5" d="M271 155.3L226.2 185l-83.4-47.6-16 13z"/><path fill="#6d91a2" fill-opacity=".6" d="M141.4 146l-7.4-5.4-2.4-20.3 5.6-87.3z"/><path fill="#f7f9fd" fill-opacity=".5" d="M47.6 21.9l36.7 4.5L80.4 58l-36.7-4.5z"/><path fill="#010104" fill-opacity=".6" d="M169 93l-11-44-2 33z"/><ellipse cx="82" cy="76" fill="#2f1b00" fill-opacity=".4" rx="42" ry="4"/><path fill="#5a3f1e" fill-opacity=".7" d="M242.5 89.9L258.2 59l-53 3.5 15-22.9z"/><path fill="#0e0100" fill-opacity=".6" d="M119.4 123.6l10-1 1.2 11.8-10 1z"/><path fill="#cd9b85" fill-opacity=".6" d="M159 37h14v20h-14z"/><path fill="#b8b8bb" fill-opacity=".5" d="M75.4 51.9l11 29.5L85.3 34l-7.6-11z"/><path fill="#13110f" fill-opacity=".5" d="M40.9.2l42.9 25.3 1.9 28.7 42.2-17.1z"/><path fill="#788187" fill-opacity=".4" d="M-16 164l152-72-62 93z"/><path fill="#2e2211" fill-opacity=".5" d="M28.7 106l-.3-1 101-29 .2 1z"/><circle r="1" fill="#c7cdce" fill-opacity=".6" transform="matrix(58.76122 -13.17642 .33299 1.485 54.6 92.6)"/><path fill="#9c9995" fill-opacity=".6" d="M161 149l17-4-16-1z"/><path fill="#c4c7ce" fill-opacity=".5" d="M137 148l21 5-9 2z"/><path fill="#191300" fill-opacity=".2" d="M57.1 104.9l-44.2-2.1-28.9 10.7 27.4 3.7z"/><path fill="#0095f5" fill-opacity=".1" d="M177.5 56.3l-30.7 51.3 8.6-27.1 35.9 45z"/><path fill="#020000" fill-opacity=".3" d="M167.2 57.5L243.5 35l-66.2-20.5-2.9 69.8z"/><path fill="#100b08" fill-opacity=".5" d="M124 136l76 19-31 9z"/><path fill-opacity=".4" d="M158 0h5v37h-5z"/><ellipse cx="121" cy="145" fill="#c3b5ad" fill-opacity=".6" rx="3" ry="11"/><path fill="#5c605b" fill-opacity=".5" d="M196 75h23v70h-23z"/><path fill="#fff0e0" fill-opacity=".5" d="M181.4 165.8l-14.6 3.4-.2-1 14.6-3.4z"/><path fill="#62615b" fill-opacity=".5" d="M95 23l41-1-29-24z"/><path fill="#757a6e" fill-opacity=".5" d="M30.4 56.7l30.4-.1 7.5 1.8-38.4-5.2z"/><circle r="1" fill="#393b38" fill-opacity=".4" transform="matrix(11.92993 26.25272 -37.03122 16.82797 234.5 146.5)"/><path fill="#3a2e1c" fill-opacity=".2" d="M12.6 87L9.1 41.2l9.8 52.2 46.4-13.3z"/><path fill="#a3a4a3" fill-opacity=".5" d="M112.5 98L19 106.8l105.2-25.7 8.5.6z"/><path fill="#cdb5a4" fill-opacity=".7" d="M170.3-16l4.4 23-15.4 49.6L171-4.7z"/></g></svg>