<svg xmlns="http://www.w3.org/2000/svg" viewBox="0 0 300 199"><defs/><path fill="#684c32" d="M0 0h300v199H0z"/><g transform="translate(.6 .6) scale(1.17188)"><circle r="1" fill="#dceefc" fill-opacity=".7" transform="rotate(-156.4 19.4 14) scale(41.32565 139.01673)"/><ellipse cx="134" cy="107" fill="#fae6da" fill-opacity=".7" rx="54" ry="26"/><circle r="1" fill="#00000d" fill-opacity=".6" transform="rotate(72.7 -32.4 93.5) scale(17.02616 32.52181)"/><ellipse cx="146" cy="18" fill="#ffceba" fill-opacity=".3" rx="25" ry="114"/><circle r="1" fill="#cacdd4" fill-opacity=".8" transform="matrix(7.07764 23.74222 -24.25724 7.23117 57 58)"/><circle r="1" fill="#b8c4b5" fill-opacity=".4" transform="rotate(-97.5 156.5 -65.8) scale(61.30699 16.0738)"/><circle r="1" fill="#000314" fill-opacity=".5" transform="matrix(-15.1485 -21.31056 29.50868 -20.9761 106.4 29)"/><path fill="#e1d6e8" fill-opacity=".6" d="M88.5 68.9l35.4-.7-19.7 46.4-2.9-16.7z"/><circle r="1" fill="#eaa68c" fill-opacity=".7" transform="rotate(128.2 56.4 52) scale(9.49669 14.88904)"/><path fill="#000c24" fill-opacity=".5" d="M152.6 77.3l2.3-10.5-39.8 22.8-4.5 11.8z"/><path fill="#e7d2c5" fill-opacity=".5" d="M84.2 141l-6.6-24.3L167 74.2l13.2 11.9z"/><path fill="#d7ccb8" fill-opacity=".8" d="M158.6 23.2l-8-39.2H-8.6L128.2 2.8z"/><path fill="#a99f7b" fill-opacity=".7" d="M-7.3 144.8l12.2 37.4 28.6-50.8-19-4.5z"/><path fill="#1a1a23" fill-opacity=".9" d="M91.9 73.1l11 37.6-10.9-9.3-59.6-1.7z"/><circle r="1" fill="#9aad81" fill-opacity=".6" transform="rotate(-163.2 102 -15.1) scale(60.57983 6.93672)"/><circle r="1" fill="#d6ded9" fill-opacity=".7" transform="matrix(13.83658 14.67289 -57.91968 54.61845 68 0)"/><circle r="1" fill="#1d3c2c" fill-opacity=".4" transform="matrix(100.36937 -1.43182 .2152 15.08549 124.8 144.8)"/><circle r="1" fill="#0b0400" fill-opacity=".6" transform="rotate(-74.7 70.9 -74.6) scale(8.64418 26.35675)"/><ellipse cx="168" cy="169" fill="#d5b89b" fill-opacity=".5" rx="51" ry="7"/><path fill="#3c3115" fill-opacity=".6" d="M271 118l-95-25 80-1z"/><path fill="#000004" fill-opacity=".7" d="M91.2 63.7l-1.4-26 29-1.4 1.4 26z"/><circle cx="168" cy="111" r="26" fill="#e8a662" fill-opacity=".4"/><path fill="#f1ffff" fill-opacity=".3" d="M135 89l-32 18 35 35z"/><path fill="#928373" fill-opacity=".5" d="M98 108l-36 50 56-31z"/><path fill="#040b14" fill-opacity=".5" d="M75 128l-43-21 53-41z"/><circle r="1" fill="#d5ba98" fill-opacity=".4" transform="matrix(1.00239 -11.05037 25.57088 2.31955 251 126.2)"/><circle r="1" fill="#1b200b" fill-opacity=".4" transform="matrix(-5.28854 11.99072 -54.23895 -23.92223 244.7 157.9)"/><path fill="#af7c7b" fill-opacity=".7" d="M138.5 55.4l-36.7 16.1 15.5 8.3 16.8 14.7z"/><ellipse cx="18" fill="#094b41" fill-opacity=".5" rx="4" ry="17"/><path fill="#f0e1bf" fill-opacity=".5" d="M156.2 11l50.1-19.5-63.9 9.7-21.8 1.3z"/><path fill="#dcb29a" fill-opacity=".6" d="M156.6 35.9L149.8-16l-3 44.5-34.5.2z"/><path fill="#ecffe8" fill-opacity=".2" d="M210.3-16l35.1 129.3 15-71.5-28 44z"/><path fill="#d7ebff" fill-opacity=".3" d="M128.1 139.7L91.4 75.1 10.7 42.5l98 30.1z"/><circle r="1" fill="#31352e" fill-opacity=".5" transform="matrix(-7.76101 -38.49033 19.87942 -4.0084 49.3 151.1)"/><path fill="#e4ced3" fill-opacity=".6" d="M80 106h12v21H80z"/><circle r="1" fill="#88887d" fill-opacity=".6" transform="matrix(5.52103 -2.93558 6.94341 13.05866 85.3 11.4)"/><ellipse cx="13" cy="75" fill="#afaeba" fill-opacity=".7" rx="48" ry="20"/><path fill="#470000" fill-opacity=".2" d="M202.6 45.9l-70.9 19.4 23.8-32.8 41-7.5z"/><path fill="#f6fff1" fill-opacity=".5" d="M247.9 8.2L239.6-16l7 33.3 13-.2z"/><path fill="#a26948" fill-opacity=".5" d="M157.1 130.5l70.8-5.7-25.7-20.8-44.2 19.9z"/><path fill="#0a0d00" fill-opacity=".6" d="M251.4.3l2.3 2-15.1 17.4-2.3-2z"/><path fill="#aa845a" fill-opacity=".9" d="M169.5 11.8l19.6 12.4-9.9 1.3-22.1-14.7z"/><path fill="#192419" fill-opacity=".5" d="M225.8 30.5l35.3-6.9 1.1 6-35.3 6.8z"/><path fill="#030000" fill-opacity=".4" d="M116.5 76.2l-9 1.5 20.1 10.1-10.6 15.7z"/><path fill="#1e1f27" fill-opacity=".7" d="M41.3 118.7l-4.7-.2-.9-21.9 55.7-32.2z"/><path fill="#280000" fill-opacity=".3" d="M223.2 120.5L194 75.4l27.5-26.5-48 34.6z"/><path fill="#8f6447" fill-opacity=".6" d="M149 32.6l22.3 28.5 8.9-5.7-3.8 54.9z"/><circle r="1" fill="#979a68" fill-opacity=".5" transform="matrix(-2.02085 4.29454 -30.83528 -14.50998 218 11.9)"/><circle r="1" fill="#9b5e2e" fill-opacity=".5" transform="matrix(-11.07345 -50.36496 4.743 -1.04281 224.7 69)"/><path fill="#d3b7ae" d="M106.8 123.9l-10.2-4.8-14.3 7.7 4.3-29z"/><path fill="#e4ecf6" fill-opacity=".5" d="M131.7 80.3l-17.5 39.8 8.4 14.3 13.6-43.7z"/><path fill="#ebc7a4" fill-opacity=".7" d="M131 104.9l27.6-35.3 12.6 41.8-19.2 20.7z"/><circle cx="60" cy="55" r="25" fill="#e9eaef" fill-opacity=".2"/><path fill="#003205" fill-opacity=".3" d="M114.5 136.4l28.1 3.7-42.3 22 13.1-47.7z"/><circle r="1" fill="#332b08" fill-opacity=".6" transform="matrix(-5.64653 .43294 -1.04799 -13.6683 169.8 139.3)"/><path fill="#f1efe8" fill-opacity=".6" d="M48 12h25v26H48z"/><circle cx="60" cy="8" r="4" fill="#494b42" fill-opacity=".5"/><path fill="#4b2400" fill-opacity=".5" d="M219.5 26.6l-21.8-25-23.6 4.8-1.7 1z"/><path fill="#020000" fill-opacity=".5" d="M158 130h-13l3 20z"/><circle r="1" fill="#b5b6c0" fill-opacity=".5" transform="matrix(-5.6356 25.92586 -18.9905 -4.12803 16.1 111.6)"/><path fill="#8b979c" fill-opacity=".6" d="M-.4-16l4.7 125.2L-16 19.7l40.3-5z"/><path fill="#090000" fill-opacity=".4" d="M130.2 76.8l10.2 7.8 35.7-19.2-1.8 8.9z"/><path fill="#aa875e" fill-opacity=".3" d="M202.4 141.7L127.9 185l49.4-81.2L147 185z"/><path fill="#34321d" d="M247 26.9l10.7 13.8-6.2-56.7L271-2z"/><path fill="#edf9fe" fill-opacity=".6" d="M95.1 70.5l15.2 15.3-9.3 2-11-14.7z"/></g></svg>