<svg xmlns="http://www.w3.org/2000/svg" viewBox="0 0 300 199"><defs/><path fill="#323f4d" d="M0 0h300v199H0z"/><g transform="translate(.6 .6) scale(1.17188)"><circle r="1" fill="#c9b9ac" fill-opacity=".7" transform="rotate(69.6 43.8 63) scale(190.88018 255)"/><ellipse cx="145" cy="54" fill="#591d06" fill-opacity=".7" rx="21" ry="32"/><circle r="1" fill="#def" fill-opacity=".5" transform="matrix(-45.1456 36.4765 -15.00014 -18.56511 146.9 130.3)"/><path fill-opacity=".8" d="M208.8 115.6l18.5 4.2-12.1 52.6-18.5-4.2z"/><circle r="1" fill="#631a00" fill-opacity=".5" transform="matrix(-15.07701 1.26404 -3.0998 -36.9734 84.7 48.3)"/><ellipse cx="250" cy="60" fill="#bbc6c8" fill-opacity=".6" rx="18" ry="169"/><circle r="1" fill="#f8feff" fill-opacity=".5" transform="rotate(87.5 -17.8 67) scale(45.98502 12.5331)"/><ellipse cx="198" cy="82" fill="#000103" fill-opacity=".5" rx="13" ry="21"/><path fill="#5d1900" fill-opacity=".5" d="M107 73l4 58-32 54z"/><path fill="#eaf6ff" fill-opacity=".7" d="M117.9 93l15.8 2.5L126 143l-15.8-2.5z"/><circle r="1" fill="#1e1f1d" transform="matrix(-8.07793 9.11927 -3.65109 -3.23416 255 77)"/><ellipse cx="112" cy="38" fill="#dbd8c0" fill-opacity=".5" rx="14" ry="55"/><path fill="#2b0e05" fill-opacity=".5" d="M9-16l32 52-5-41z"/><path fill="#231b2a" fill-opacity=".7" d="M148 81l-15 17 21 7z"/><ellipse cx="173" cy="153" fill="#989ca5" rx="23" ry="30"/><ellipse cx="146" cy="38" fill="#100000" fill-opacity=".5" rx="25" ry="9"/><path fill="#29170f" fill-opacity=".5" d="M14 43h22v19H14z"/><path fill="#e8f2fe" fill-opacity=".6" d="M47 140l-15.5 45 8.5-2.3-25.8-17.9z"/><path fill="#735f52" fill-opacity=".7" d="M209 84L183 3l-10 56z"/><circle r="1" fill="#6a6e62" fill-opacity=".6" transform="matrix(9.55192 -7.76264 15.92656 19.59762 230.3 118.9)"/><path fill="#33260c" fill-opacity=".5" d="M49 123h9v47h-9z"/><circle r="1" fill="#ccd6e3" fill-opacity=".5" transform="matrix(8.79743 -7.97177 24.48639 27.0225 182.2 104)"/><path fill="#191805" fill-opacity=".8" d="M270.4 103.4l-24.1-7.8 6.5 11.2 12.2 33.1z"/><path fill="#4c2811" fill-opacity=".5" d="M57 15h37v21H57z"/><path fill="#162b11" fill-opacity=".3" d="M37.7 149.1L-16 166.7l50.8-55.4L5.2 93.8z"/><path fill="#c1cbcb" fill-opacity=".6" d="M214.7 17l-15.4-33L174.9.4 271 79.2z"/><path fill="#888b8a" d="M245.1 185l-25.7-52.5 5.4 27.9 10.3 20.9z"/><path fill="#d9e2eb" fill-opacity=".6" d="M211.4 82.4l-103.7 83.1 93.6-83.7-16.6-20z"/><circle r="1" fill="#dbdbca" fill-opacity=".5" transform="rotate(14 33.7 275.4) scale(31.83511 13.68588)"/><path fill-opacity=".5" d="M232.5 54.6l5.6 8.3-6.6 4.5-5.6-8.3z"/><path fill="#392800" fill-opacity=".4" d="M205.2 53.7l11.1-14.5 21.4-17.3-8.1-20.5z"/><ellipse cx="96" cy="169" fill="#978180" rx="17" ry="13"/><path fill="#fffbe5" fill-opacity=".6" d="M-7.2 73.5l8-.7 6.4 73.7-8 .7z"/><path fill="#c8d8e5" fill-opacity=".6" d="M205.6 43.7l15.3 21-10.5 7.6-15.3-21z"/><circle r="1" fill="#b3b2c0" fill-opacity=".6" transform="rotate(28.2 -212.3 213.6) scale(13.77887 36.02837)"/><path fill="#cab2a6" fill-opacity=".4" d="M74 86l-61-7 61-58z"/><path fill="#f9ffff" fill-opacity=".6" d="M40 147l7-80 12 30z"/><path fill="#010100" fill-opacity=".8" d="M195.2 169l15.2-52.6 5.2 14.4 17.1 54.2z"/><path fill="#571906" fill-opacity=".4" d="M110 139l-61 17 37 1z"/><path fill="#f1fcfe" fill-opacity=".6" d="M246.5-3.9l-2.9 34.6L230.3 3 262 14.9z"/><path fill-opacity=".5" d="M195 54l2 17 18 8z"/><path fill="#cddbe5" fill-opacity=".7" d="M218.2 20.7l13.4 15.2-28.9-11.1L237.4-16z"/><path fill="#8f624d" fill-opacity=".7" d="M162 56.9l14.9 8.3-21.1 13.7L109 26.3z"/><ellipse cx="175" cy="80" fill-opacity=".6" rx="3" ry="7"/><path fill="#2c2505" fill-opacity=".6" d="M239.5 141.8l6.5-15.3 6.9 28.9 8.8-14.7z"/><path fill="#f8ffff" fill-opacity=".4" d="M225 190.9l34.4-85.3 3.7 1.5-34.5 85.3z"/><path fill="#edf6ff" fill-opacity=".7" d="M262.7 43.8l3.4 23.8-18.8 2.6-3.4-23.8z"/><ellipse cx="172" cy="5" fill="#372300" fill-opacity=".6" rx="3" ry="15"/><path fill="#d7edff" fill-opacity=".4" d="M246.6 76l-1.8 8.3.9 12.8-44-15.5z"/><path fill="#b2b8bc" fill-opacity=".8" d="M239.7 133.8l3.5 1.3-21.1-32.3 20.6 54z"/><path fill="#dce7ef" fill-opacity=".6" d="M168 108.3l-45.8-7-15.8-39.4 40.3 86.1z"/><path fill="#280100" fill-opacity=".5" d="M43 9h6v16h-6z"/><path fill-opacity=".5" d="M183.5 78.1L190 72l20.4 21.9-6.6 6.1z"/><path fill="#031900" fill-opacity=".3" d="M21.6 107.9L6.9 133.8l-.6-19.5L12.1 78z"/><path fill="#f6fff3" fill-opacity=".4" d="M110.3-16l.8 35.2L169.2-16l-67.8 52.8z"/><path fill="#514631" fill-opacity=".7" d="M237.7 57.3l-.6-19.3 4 12.7 4.1 12.9z"/><path fill="#3d4143" d="M228.8 75.1l-6.2 1.5-3.1-10.4-7.7.7z"/><path fill="#f6ffff" fill-opacity=".8" d="M156 185l16-14-5-17z"/><path fill="#3b2b09" fill-opacity=".5" d="M237-16l-25.7 26.9-5.9 9.5 10.1-31.1z"/><path fill="#453100" fill-opacity=".5" d="M162.8-16L157 5.5l.6 7.2 6.3 14.2z"/><path fill="#632a13" fill-opacity=".3" d="M103.5 151.4L118 95l-22.9 28.1-32.4 11.4z"/><path fill="#bdc7c3" fill-opacity=".6" d="M3 12l-18 79 25-2z"/><path fill="#b2bec3" fill-opacity=".5" d="M.4 145.8l31.1-31.1L21.1 185 25 98.4z"/><path fill="#3e4138" fill-opacity=".6" d="M213 95l29 23-17-28z"/><circle r="1" fill="#958473" transform="rotate(-30.2 111.8 -262) scale(10.69198 6.19574)"/></g></svg>