<svg xmlns="http://www.w3.org/2000/svg" viewBox="0 0 300 199"><defs/><path fill="#5e3533" d="M0 0h300v199H0z"/><g transform="translate(.6 .6) scale(1.17188)"><circle r="1" fill="#9da3a8" fill-opacity=".7" transform="matrix(-72.1295 -239.94858 156.92933 -47.17358 106.3 118.5)"/><circle r="1" fill="#583639" fill-opacity=".7" transform="matrix(-15.75742 67.1821 -58.1742 -13.64463 161.2 159.5)"/><ellipse cx="246" cy="116" fill="#d5e1f8" fill-opacity=".4" rx="35" ry="65"/><circle r="1" fill="#9fb9c7" fill-opacity=".4" transform="matrix(2.92962 79.0072 -67.21268 2.49227 34 29)"/><path fill="#c4c2c7" fill-opacity=".7" d="M145.9 144.2L117 101.5l62.6 56.9 3.9-25.9z"/><path fill="#00113d" fill-opacity=".6" d="M99 115l-8-51-21 56z"/><circle r="1" fill="#36291f" fill-opacity=".6" transform="matrix(-15.71306 .96105 -1.99075 -32.54842 152.5 89.5)"/><path fill="#750000" fill-opacity=".4" d="M162 93l28 55 62-38z"/><path fill="#392510" fill-opacity=".5" d="M2 63h39v21H2z"/><ellipse cx="144" cy="8" fill="#c4c8d0" fill-opacity=".8" rx="55" ry="4"/><ellipse cx="51" cy="98" fill="#a9cefa" fill-opacity=".6" rx="11" ry="38"/><ellipse cx="121" cy="102" fill="#9d9d92" fill-opacity=".4" rx="25" ry="55"/><path fill="#130000" fill-opacity=".5" d="M32 108L6 153l-2-25z"/><circle cx="78" cy="80" r="17" fill="#007ad0" fill-opacity=".5"/><path fill="#180700" fill-opacity=".4" d="M49 131h15v39H49z"/><path fill="#f5b868" fill-opacity=".4" d="M65 126h35v44H65z"/><path fill="#000600" fill-opacity=".4" d="M110.7 130.3l18.9-9.4-34.5 25.6 22.1 38.5z"/><circle r="1" fill="#bacad4" fill-opacity=".5" transform="matrix(-.125 -7.9966 50.35114 -.78707 207 0)"/><circle r="1" fill="#ffc3c8" fill-opacity=".4" transform="rotate(171.4 .3 83.5) scale(24.72608 13.02452)"/><circle r="1" fill="#080411" fill-opacity=".5" transform="rotate(-59.1 232.7 -62.9) scale(9.20616 33.49417)"/><circle r="1" fill="#d4e9fc" fill-opacity=".5" transform="matrix(16.37428 13.37808 -22.53541 27.58252 246.6 161.8)"/><path fill="#dad6e1" fill-opacity=".6" d="M146 136h38v9h-38z"/><path fill="#470800" fill-opacity=".6" d="M46.8 141.6L41 143l-9.8-36.7L37 105z"/><ellipse cx="96" cy="33" fill="#060000" fill-opacity=".2" rx="39" ry="11"/><path fill="#bebec5" fill-opacity=".6" d="M229.6 99.3l38.7 24L224 57l-22.9 53.9z"/><path fill="#000b0d" fill-opacity=".4" d="M178.4 104.5l2 24-34.8 3-2-24z"/><circle r="1" fill="#b5abaa" fill-opacity=".5" transform="matrix(-82.73111 16.09788 -6.91068 -35.51573 28.3 13.2)"/><path fill="#e21518" fill-opacity=".5" d="M196 185l-4-72-11 37z"/><path fill="#f8eeef" fill-opacity=".3" d="M146.5 113.5l-11.8 18.1-3.2.9L119.9 80z"/><path fill="#896460" d="M239.1 67.5L271 9.2l-40.8 43.2 20 12.9z"/><path fill="#eaf2fe" fill-opacity=".6" d="M122 146h10v12h-10z"/><path fill="#5c3c38" fill-opacity=".9" d="M32.7 132.7l-7 6.9-13-25.3 5.9-3.7z"/><path fill="#bcced2" fill-opacity=".5" d="M219 148l-18 2 30-32z"/><path fill="#5b4a30" fill-opacity=".3" d="M92.8 57.5l43.1 22L271-12.3l-76.9 72.4z"/><circle cx="128" cy="164" r="8" fill="#000911" fill-opacity=".7"/><path fill="#0a1534" fill-opacity=".5" d="M223 136h10v10h-10z"/><circle r="1" fill="#070c11" fill-opacity=".6" transform="matrix(2.09977 -3.74545 6.45337 3.61788 224.7 108.2)"/><path fill="#39312c" fill-opacity=".5" d="M127 111l30-60 12 28z"/><path fill="#0d0000" fill-opacity=".5" d="M191 156l9-23 6 40z"/><path fill="#413f40" fill-opacity=".5" d="M150 131l-31 14-28-16z"/><path fill="#febca6" fill-opacity=".5" d="M39.6 139.7l-13.2-28.5 4.4 23.1L5.2 185z"/><path fill="#96ffff" fill-opacity=".4" d="M66 91l4-16 16 6z"/><ellipse cx="213" cy="169" fill="#00111c" fill-opacity=".5" rx="7" ry="22"/><path fill="#eea385" fill-opacity=".5" d="M224.2 37L222 22l21.7-3 2.1 14.8z"/><path fill="#71512d" fill-opacity=".5" d="M63 55.7l-42.3-.4 6.2 27.4L3.3 48.6z"/><path fill="#a9aaaf" fill-opacity=".6" d="M17.8 123.2l-13.1 7.3-16.5-29.7 13.1-7.3z"/><path fill="#0b1222" fill-opacity=".5" d="M251 119l-3-9-9 8z"/><circle r="1" fill="#b8b8be" fill-opacity=".5" transform="matrix(-1.05943 -28.08771 6.47416 -.2442 102.6 95.5)"/><path fill="#b4bdce" fill-opacity=".8" d="M271 171l-51.2-40.8-1.2-5.9 21.7-3.6z"/><ellipse cx="136" cy="166" fill="#dff" fill-opacity=".4" rx="2" ry="22"/><path fill="#5f3906" fill-opacity=".2" d="M115.3 30.1L104.4 9.3l-41-.8-17.7 29.8z"/><path fill="#1e1e1a" fill-opacity=".5" d="M214.4 138L197 112.5l6.6-4.5 17.4 25.7z"/><path fill="#04060f" fill-opacity=".6" d="M17.6 135.1l-27.1 27.6 14-9 1.1-25.1z"/><ellipse cx="204" cy="158" fill="#eefdff" fill-opacity=".6" rx="2" ry="7"/><path fill="#041730" fill-opacity=".4" d="M71 90h25v30H71z"/><ellipse cx="35" cy="81" fill="#4c3f34" fill-opacity=".6" rx="2" ry="32"/><path fill="#d1c9d6" fill-opacity=".5" d="M154 135l28 7v18z"/><circle r="1" fill="#e59e82" fill-opacity=".5" transform="matrix(-3.68693 .80669 -2.84436 -12.99997 19.7 137.2)"/><path fill="#664f46" d="M228.1 25.5l9.1-17L271-7.2V7z"/><path fill="#e3e4ea" fill-opacity=".7" d="M271-9.1l-5.1-4.4-112 27.1 41-6.3z"/><path fill="#5b5250" fill-opacity=".8" d="M120.1 146.8l44.6-19.4-56.1 12.6 26-41.2z"/><path fill="#1e3d70" fill-opacity=".6" d="M94 73l-32-7 32-2z"/><path fill="#58554f" fill-opacity=".5" d="M215 92l-26 18 28-44z"/><path fill="#deccb0" fill-opacity=".6" d="M99 79h50v3H99z"/><path fill="#e6bc9f" fill-opacity=".3" d="M180.6 73.4l-18.7-1.6L174 91.3l-44.4 22.4z"/></g></svg>