<svg xmlns="http://www.w3.org/2000/svg" viewBox="0 0 300 199"><defs/><path fill="#44443c" d="M0 0h300v199H0z"/><g transform="translate(.6 .6) scale(1.17188)"><ellipse cx="150" cy="24" fill="#f3f3f7" fill-opacity=".7" rx="179" ry="65"/><ellipse cx="101" cy="76" fill="#1f1f1f" rx="17" ry="38"/><circle cx="137" cy="63" r="98" fill="#fff" fill-opacity=".2"/><path fill="#010100" fill-opacity=".6" d="M24.2 72.6L4.5 59l33.3-47.5L57.5 25z"/><path fill-opacity=".6" d="M105 10l13-26 30 45z"/><circle r="1" fill="#cfcfd7" fill-opacity=".4" transform="matrix(29.30765 22.1652 -19.25104 25.45444 48.3 89.2)"/><circle cx="205" cy="20" r="60" fill="#efefef" fill-opacity=".8"/><path fill-opacity=".5" d="M87 21h19v85H87z"/><path fill="#1e1e20" fill-opacity=".5" d="M127 47h22v61h-22z"/><path fill="#f7f7fe" fill-opacity=".5" d="M144.6 148.5l-20.1 3.6-.7-48.9 26.2 20.4z"/><path fill-opacity=".7" d="M-5 105.3l27 .4-1 63-27-.4z"/><path fill="#dddde1" fill-opacity=".6" d="M175.2 122.7l-2.2-12.2 47.5 1.7-6 6.4z"/><ellipse cx="69" cy="42" fill="#fff" fill-opacity=".5" rx="16" ry="59"/><path fill="#29292f" fill-opacity=".6" d="M238.3 185L271 67l-75.1 29.6 10.4-38.7z"/><ellipse cx="198" cy="141" fill="#dfdfe5" fill-opacity=".6" rx="24" ry="5"/><ellipse cx="101" cy="73" fill-opacity=".7" rx="17" ry="26"/><path fill="#fff" fill-opacity=".6" d="M28.4-7l-4 44.8L-6.3 35l4-44.9z"/><circle r="1" fill="#707074" fill-opacity=".5" transform="rotate(-89.3 84.4 47.2) scale(88.18647 11.14102)"/><path fill="#ededed" fill-opacity=".7" d="M153.9 99.7L203.4 78l-61.9-94 5 47.8z"/><path fill-opacity=".5" d="M148 126h25v21h-25z"/><circle r="1" fill="#a3a3a4" fill-opacity=".6" transform="matrix(8.64207 4.0917 -13.19964 27.8789 4.4 61)"/><path fill="#595959" fill-opacity=".8" d="M151.1 80.5l-11.1-50-19-9.7 22.5-14.3z"/><path fill="#e8e8e8" fill-opacity=".7" d="M43.9 103.3l52-57.1-31-26.8-11.7 102z"/><path fill="#2c2c2d" fill-opacity=".9" d="M77 155h179v15H77z"/><path fill="#fff" fill-opacity=".4" d="M140.7 32.1L80.6-.1l39.6 47.8L146.3 76z"/><path fill="#ececec" fill-opacity=".9" d="M44.8 16.2l33 13.4 36.8-32.2L-16-.1z"/><circle r="1" fill-opacity=".5" transform="rotate(114.2 -22.8 44.3) scale(47.22736 4.456)"/><circle r="1" fill="#868688" fill-opacity=".7" transform="rotate(110.4 23.7 93) scale(24.31037 10.12069)"/><path fill="#ebebeb" fill-opacity=".8" d="M271 6.8l-119.6 5.4-26.6-6.7L102.2-16z"/><path fill="#7e7e80" fill-opacity=".8" d="M68.6 137.4L81 101.3l48 51.7-62.1-.6z"/><circle r="1" fill="#242424" fill-opacity=".6" transform="matrix(9.92692 -2.56728 4.88598 18.89267 38.2 31.7)"/><path fill="#121212" fill-opacity=".6" d="M122.3 93.4l-22.6-72-6.8 26.2-13.3 40.7z"/><path fill="#3a3a3a" d="M42.7 104.6l-13.6-2.8 8.4 28.7 4.1 3.4z"/><circle r="1" fill="#1b1b22" fill-opacity=".5" transform="matrix(-38.47168 3.88416 -.67064 -6.64254 184 129.8)"/><path fill="#262628" fill-opacity=".5" d="M133 52l23 74-24-23z"/><circle r="1" fill="#161614" fill-opacity=".3" transform="matrix(-.12947 11.38015 -9.97611 -.1135 92.3 29.6)"/><path fill="#c7c7cf" fill-opacity=".5" d="M157 95l54 1-28 7z"/><path fill="#ebebeb" fill-opacity=".8" d="M209 6h47v70h-47z"/><path fill="#0f0f11" fill-opacity=".6" d="M64 127.7l47.8-3.4.3 4-47.9 3.4z"/><path fill-opacity=".5" d="M130 48h16v3h-16z"/><path fill="#fff" fill-opacity=".5" d="M45 84l11 14-9 16z"/><path fill="#7d7d7e" fill-opacity=".6" d="M60 182l-23 3-13-85z"/><path fill="#ababab" fill-opacity=".5" d="M82.6 148.8l2.6-31.7-69.2-74 76 56.4z"/><path fill="#fff" fill-opacity=".5" d="M137 23h5v21h-5z"/><path fill="#f7f7fc" fill-opacity=".6" d="M154 149h15v5h-15z"/><path fill="#a1a1a7" fill-opacity=".6" d="M60 139l-6 10 12 10z"/><circle r="1" fill="#828281" fill-opacity=".6" transform="matrix(-5.30234 -27.55052 2.4216 -.46606 238 98)"/><path fill="#989899" fill-opacity=".6" d="M6.4 102l21.3-38.4 7.9 4.3-21.3 38.5z"/><path fill="#565655" fill-opacity=".3" d="M77.6 121.3L40.9 77.1l-2.5-30.6 36.3 63.1z"/><path fill="#252528" fill-opacity=".7" d="M125.8 123.2l-3-2.7-6.3 15.9 6.7 3.6z"/><path fill="#242423" fill-opacity=".4" d="M103.9 14.6l9.8-21 29.2 25.2-9.3 5.1z"/><path fill="#0a0a0b" fill-opacity=".6" d="M113.1 149l-2.3 36-11.9-23.3-44.3 1.8z"/><path fill="#1b1b19" fill-opacity=".5" d="M134 54l-5 14-3-9z"/><ellipse cx="69" cy="49" fill="#efefef" fill-opacity=".6" rx="20" ry="27"/><path fill="#e8e8e7" fill-opacity=".7" d="M103.7 25.3L70.7-16l45.6 38.2L104 40.9z"/><path fill="#e0e0e1" fill-opacity=".5" d="M141.8 111.8l9.7 11.5-15.3 12.9-9.7-11.5z"/><path fill="#e8e8e8" d="M123.5 50.6l-26.2-40 22.1 47.8 22-3.4z"/><path fill="#e4e4e9" fill-opacity=".2" d="M108.3 155.2l-1.9.2 17.4-12.2 2.2 26.3z"/><path fill="#030308" fill-opacity=".2" d="M154.9 98.4L136-11.9l17.4 128.6-36.1-7.9z"/><path fill="#606061" fill-opacity=".7" d="M174.6 129l-43.2-69.1-13.9 35.8 11.3-12.8z"/><path fill="#e2e2e4" fill-opacity=".5" d="M187.5 112.2l6.8-4.1 8.2 13.7-6.8 4.1z"/><path fill="#dddde3" fill-opacity=".5" d="M169.6 154.7v-1l26.8-2.4v1z"/><circle r="1" fill="#e2e2e3" fill-opacity=".6" transform="matrix(-.05082 -.9987 21.59153 -1.0988 91.4 131.5)"/><path fill="#050513" fill-opacity=".3" d="M47.1 131.6l26.4-14.8 3.8 6.9-28.6 28.5z"/><path fill="#0a0a0b" fill-opacity=".4" d="M76.2 84.9L115 55.4 100.7 115l-9.9-14.9z"/></g></svg>