<svg xmlns="http://www.w3.org/2000/svg" viewBox="0 0 300 199"><defs/><path fill="#33512f" d="M0 0h300v199H0z"/><g transform="translate(.6 .6) scale(1.17188)"><circle r="1" fill="#fbedff" fill-opacity=".5" transform="matrix(-26.36911 -10.79835 16.31451 -39.83933 142 169)"/><ellipse cx="80" cy="9" fill="#f7f8fe" fill-opacity=".7" rx="20" ry="14"/><circle r="1" fill="#eebaaf" fill-opacity=".6" transform="matrix(22.6656 -7.81256 3.27956 9.51457 142.1 95.4)"/><path fill="#100504" fill-opacity=".5" d="M229-16l42 96-287 3z"/><circle r="1" fill="#000029" fill-opacity=".7" transform="matrix(2.5752 58.98184 -22.7448 .99306 196.9 138.7)"/><ellipse cx="20" cy="107" fill="#25291a" fill-opacity=".6" rx="79" ry="107"/><circle r="1" fill="#fe8ca8" fill-opacity=".3" transform="matrix(20.41523 -9.2654 11.47652 25.28714 166 78)"/><path fill="#d8ab6b" fill-opacity=".5" d="M218 104h38v21h-38z"/><circle r="1" fill="#786549" fill-opacity=".6" transform="matrix(-28.55376 -27.86445 10.7913 -11.05825 122.1 112.7)"/><ellipse cx="244" cy="150" fill="#1e1d15" fill-opacity=".9" rx="37" ry="25"/><circle r="1" fill="#0d1b0a" fill-opacity=".6" transform="matrix(69.02033 -51.82401 14.43144 19.2201 137.4 12.3)"/><circle cx="255" cy="24" r="77" fill="#192815"/><path fill="#f2fbff" fill-opacity=".6" d="M191.9 73.2L182 85.8l-3.9-3 9.9-12.6z"/><path fill="#edbf9f" fill-opacity=".5" d="M146 51h10v20h-10z"/><circle cx="92" cy="132" r="32" fill="#2a2217" fill-opacity=".5"/><path fill="#afb4b2" fill-opacity=".6" d="M170.8 134.7l-13.7 40.2-56.8.2 60-52.3z"/><path fill="#7a9283" fill-opacity=".7" d="M77.6 33.4l15.7-15.2-13.2 2.4-29.7-17z"/><path fill="#291913" fill-opacity=".7" d="M172 105l-21-72 27 44z"/><path fill="#aea760" fill-opacity=".4" d="M61 116l-7-25 23 20z"/><path fill="#c4ff90" fill-opacity=".3" d="M118.6 77.5l-2 28.1-28.8-12.4 22.5-3.1z"/><path fill="#fefefe" fill-opacity=".5" d="M104-5L79-16l1 40z"/><path fill="#e3ebe9" fill-opacity=".8" d="M75.4 7L68 18.9 58.6 13 66 1.1z"/><circle r="1" fill="#24181d" fill-opacity=".3" transform="rotate(137.3 53 101.7) scale(4.87169 28.2093)"/><path fill="#1b345e" fill-opacity=".8" d="M179.8 95.5l10.4-22.2 25.5 18.1-16.9-.2z"/><circle cy="51" r="52" fill="#172f1a" fill-opacity=".6"/><path fill="#d2c7b5" fill-opacity=".5" d="M126 87h41v9h-41z"/><path fill="#dab6a4" fill-opacity=".3" d="M159.4 58.8l-11-8-14.3.9 26.7 19.7z"/><path fill="#c57e82" fill-opacity=".3" d="M113.6 126.6l28.9-43.3 40.6 43.6L166.6 98z"/><path fill="#1c2513" fill-opacity=".8" d="M120.6 103.1L111.5-16 66.9 103.8l77.4-42.3z"/><path fill="#2d7846" fill-opacity=".3" d="M91.5 18.6l-50.9-5.2-24.5.3 56.6 48.8z"/><path fill="#181f11" fill-opacity=".8" d="M136.5 30.7l40.1-7.3-21.8 58.7 23.7 4.3z"/><circle r="1" fill="#5e4b40" fill-opacity=".5" transform="matrix(1.28377 -11.89964 78.53142 8.4722 18.2 168.4)"/><path fill="#f9f58c" fill-opacity=".3" d="M96.4 110.4L91.6 121l1.9 2 17.4-5.4z"/><path fill="#162213" fill-opacity=".6" d="M93.3 5.7l97.4 54.8 5.9-49.1L95 3.8z"/><path fill="#0e0413" fill-opacity=".6" d="M207.1 134l-30.3 28-13.8-57.1-15.7 11.9z"/><circle cx="39" cy="92" r="3" fill="#eff3d7" fill-opacity=".5"/><path fill="#393b24" fill-opacity=".8" d="M228.1 119l-9.6-38.7-14.4-7.1 18.2 41.1z"/><path fill="#36503e" fill-opacity=".7" d="M56.7-6.6l9.9 14.9L1 15.8l44.2 6.8z"/><path fill="#b6bdbd" fill-opacity=".5" d="M118.8 147l55.4 14.5 6.5 23.5h-76.6z"/><path fill="#b9b174" fill-opacity=".5" d="M271 115.4l-47.3 6.3 23.9-17 22.1 13.7z"/><path fill="#714130" fill-opacity=".6" d="M158.4 70.5l11.1-20.1 20.1 11.1-11.1 20.1z"/><path fill="#141e0b" fill-opacity=".7" d="M113.9 115.5l-31.6-11.3-9.8-23.6L66 65.5z"/><circle r="1" fill="#6f7247" transform="matrix(3.5249 -4.27649 4.82195 3.9745 234 104)"/><circle r="1" fill="#020000" fill-opacity=".5" transform="matrix(-90.28543 -18.30839 1.78878 -8.82112 213.3 0)"/><path fill="#761330" fill-opacity=".3" d="M184.8 118.7l-28.9-22.1-33.7 31.3 2.5 8.9z"/><circle r="1" fill="#1d3f21" fill-opacity=".6" transform="matrix(7.39618 -12.61253 36.53365 21.42388 220.6 31)"/><path fill="#53705d" fill-opacity=".6" d="M98 28h9v12h-9z"/><path fill="#8c593b" fill-opacity=".6" d="M143 81l9-19 2 31z"/><path fill="#bbd9c6" fill-opacity=".4" d="M41 10h4v12h-4z"/><path fill="#27251a" fill-opacity=".6" d="M82 121h29v49H82z"/><ellipse cx="127" cy="72" fill="#150900" fill-opacity=".5" rx="18" ry="13"/><ellipse cx="81" cy="2" fill="#f5f5f5" fill-opacity=".5" rx="4" ry="25"/><path fill="#010d01" fill-opacity=".4" d="M76 14l-7 4 10 3z"/><path fill="#808f85" fill-opacity=".9" d="M64.5-16L80.3 9 68.4 2.1-16-16z"/><path fill="#2f2f25" fill-opacity=".4" d="M135.5 115.3l8-18.8 9.9 30.2 13.2-21.1z"/><path fill="#595c36" fill-opacity=".7" d="M20.8 106.8l13.2 3 7.8-16.5-15 12.3z"/><path fill="#090817" fill-opacity=".5" d="M207.4 103.3l-9.6 19.7-25.2-12.3 9.6-19.7z"/><path fill="#e0ba9c" fill-opacity=".4" d="M151.5 52l8.6 20.3-3.6 1.6-8.6-20.2z"/><ellipse cx="139" cy="92" fill="#dcd6c2" fill-opacity=".5" rx="8" ry="7"/><circle r="1" fill="#1e3d1f" fill-opacity=".7" transform="rotate(72.1 -17.3 70.4) scale(12.08167 28.43837)"/><path fill="#cfafa8" fill-opacity=".5" d="M165 106.3L148.7 90l4.3-4.3 16.3 16.3z"/><path fill="#6d7472" fill-opacity=".5" d="M180 185l-12-53-2 28z"/><path fill="#1c1f14" fill-opacity=".5" d="M271 47.7l-76.7 52.8 42.4-4.3.7 17.8z"/><circle cx="61" cy="11" r="4" fill="#f3f6f8" fill-opacity=".5"/><path fill="#b16d55" fill-opacity=".5" d="M131.6 109.6l-.2 17-9-.2.2-17z"/></g></svg>