<svg xmlns="http://www.w3.org/2000/svg" viewBox="0 0 300 199"><defs/><path fill="#503b2b" d="M0 0h300v199H0z"/><g transform="translate(.6 .6) scale(1.17188)"><circle r="1" fill="#dee6e5" fill-opacity=".6" transform="rotate(77.4 -31.5 88) scale(164.323 90.31211)"/><path fill="#84827e" fill-opacity=".6" d="M70 71l76 114 48-201z"/><ellipse cx="194" cy="156" fill="#a08160" fill-opacity=".5" rx="176" ry="15"/><circle r="1" fill="#edfaff" fill-opacity=".5" transform="matrix(12.66356 144.74519 -14.22533 1.24456 0 92.6)"/><circle r="1" fill="#70786f" fill-opacity=".5" transform="matrix(24.32204 30.89582 -24.09186 18.96578 235.4 24.4)"/><ellipse cx="83" cy="106" fill="#fff" fill-opacity=".6" rx="17" ry="15"/><circle r="1" fill="#b2bdc2" fill-opacity=".7" transform="matrix(-51.02336 41.3179 -30.6136 -37.80465 72.6 -.1)"/><circle r="1" fill="#9eb0b8" fill-opacity=".7" transform="rotate(61.3 76 136.7) scale(39.24463 8.0538)"/><path fill="#715d44" fill-opacity=".8" d="M52.4 133.2l3.4 14.6-30.2 7-3.4-14.6z"/><path fill="#1b242a" fill-opacity=".5" d="M170 48h86v58h-86z"/><ellipse cx="141" cy="18" fill="#000d16" fill-opacity=".5" rx="18" ry="12"/><path fill="#7e543c" fill-opacity=".8" d="M71.9 77.4L81.5 61l25 29.6-35.9-2z"/><circle r="1" fill="#8b7360" fill-opacity=".6" transform="rotate(-31.8 266.6 -187) scale(38.70758 18.21916)"/><ellipse cx="153" cy="53" fill="#18242c" fill-opacity=".6" rx="8" ry="26"/><path fill="#fffff4" fill-opacity=".3" d="M169.8 92l-32.4 50.9-44.3 1.5 71.7-19.9z"/><path fill="#fcdac6" fill-opacity=".3" d="M114.6 70.2L65.5 140l32.7 11.5 4.4-8.2z"/><ellipse cx="138" cy="31" fill="#888c8b" fill-opacity=".9" rx="2" ry="50"/><ellipse cx="200" cy="22" fill="#37424b" fill-opacity=".6" rx="16" ry="64"/><path fill="#5b452d" fill-opacity=".4" d="M101 145h26v20h-26z"/><ellipse cx="112" cy="52" fill="#8e989b" fill-opacity=".7" rx="20" ry="46"/><circle r="1" fill="#b9c3c7" fill-opacity=".4" transform="matrix(20.77959 -.35554 1.08497 63.4106 51.5 68.4)"/><circle cx="172" cy="25" r="16" fill="#94a5ad" fill-opacity=".5"/><circle r="1" fill="#808681" fill-opacity=".7" transform="matrix(7.48888 -.8484 6.563 57.93187 21.9 90.5)"/><path fill="#ddd1c6" fill-opacity=".7" d="M129.7 118.8l2.1-14.1.4 74.6-5.7 5.7z"/><path fill="#e2d3c6" fill-opacity=".4" d="M152.6 121.5L137.3 200l-7.9-1.5 15.3-78.5z"/><path fill="#766b58" fill-opacity=".5" d="M236-16l-26 88 61-27z"/><path fill="#271b12" d="M271 106V48.3l-4.9 37.4L165 87.6z"/><path fill="#644d37" fill-opacity=".5" d="M262.7 145.8l-103.9 5.4-1.5-29 103.9-5.4z"/><ellipse cy="147" fill="#e9eff1" fill-opacity=".6" rx="24" ry="12"/><ellipse cx="165" cy="60" fill="#8e9fa8" fill-opacity=".5" rx="5" ry="37"/><ellipse cx="147" cy="9" fill="#8b8b88" fill-opacity=".7" rx="2" ry="18"/><circle cx="109" cy="121" r="18" fill="#851d00" fill-opacity=".2"/><circle r="1" fill="#d3bb9c" fill-opacity=".6" transform="matrix(.0893 12.59207 -33.76992 .2395 31.4 169)"/><path fill="#282d31" fill-opacity=".4" d="M171 33h33v64h-33z"/><path fill="#d0cfca" fill-opacity=".6" d="M147.2 14.7l8.6 70.5-1 .1-8.6-70.5z"/><ellipse cx="116" cy="152" fill="#f8ebdf" fill-opacity=".6" rx="2" ry="14"/><path fill="#e1ae9c" fill-opacity=".5" d="M76 69.8l6.7-2.1L92 96.2l-6.7 2.1z"/><path fill="#efedea" fill-opacity=".5" d="M67.4 81.5l.8 11 17 72.4 2.3-51z"/><path fill="#321601" fill-opacity=".5" d="M99.9 82.6v8.8l-6.6-.9-9.4-29.1z"/><path fill="#dad6d0" fill-opacity=".6" d="M128.2 145.3l8.6-98.7 1 .1-8.6 98.7z"/><path fill-opacity=".5" d="M139 11h8v18h-8z"/><path fill="#74593e" fill-opacity=".5" d="M87 148h10v22H87z"/><path fill="#0a0e11" fill-opacity=".5" d="M158.2 82.7l-7.3-53-5.7-45.7 14.1 55.2z"/><path fill-opacity=".5" d="M129 0h7v27h-7z"/><path fill="#816950" fill-opacity=".9" d="M248.1 172.8l-.7-17.7-96 5.8L98.9 185z"/><path fill="#848d8e" fill-opacity=".9" d="M112.8 6.3l32.6 36.3-38.5-2.7 28-45.2z"/><circle r="1" fill="#464b4d" transform="rotate(-143.5 90.2 -28.9) scale(36.51028 7.97953)"/><path fill="#bf9d81" fill-opacity=".5" d="M58 106h15v64H58z"/><path fill="#a8b0b2" fill-opacity=".4" d="M16 27h97v39H16z"/><path fill="#332515" fill-opacity=".5" d="M178.2 124l43.3-59.5 6 47.2-64.1-31.8z"/><path fill="#453324" fill-opacity=".5" d="M44.9 137.6l-22.1 5.7 2.3 8.6 7.4-4.8z"/><ellipse cx="99" cy="149" fill="#fffbf2" fill-opacity=".5" rx="2" ry="14"/><circle r="1" fill="#c2c7c7" fill-opacity=".7" transform="matrix(8.84776 23.73002 -27.8284 10.37585 50.2 0)"/><path fill="#4a3725" fill-opacity=".6" d="M153.1 132.7l17.2-26.8 66.8-9.3-76.1 52.5z"/><path fill="#4c4942" fill-opacity=".5" d="M140.9 120.4l8.2-8.5 3.6-31.5-7.4 5z"/><path fill="#491100" fill-opacity=".4" d="M75 75l8 15-11-1z"/><path fill="#b7b7b3" fill-opacity=".6" d="M131.6 79.2l-31.6.4 29.9-4.4 36.3 7.3z"/><path fill="#7c5b3f" fill-opacity=".4" d="M65.8 116.8l9 .4-.6 16-9-.4z"/><path fill="#fdf0e7" fill-opacity=".5" d="M100 139h37v4h-37z"/><circle cx="121" cy="108" r="9" fill="#36412e" fill-opacity=".3"/><path fill="#000407" fill-opacity=".6" d="M138.2 0l-1.1 15.9-10.6 10.5-.7-18.3z"/><path fill="#8e7a62" d="M27.7 153.7l25.4-22.9 3 2.7 1.1 17.9z"/><path fill="#d4d0c6" fill-opacity=".5" d="M145.6 139.7l-1-.2 9.8-61.2 1 .2z"/><path fill="#6f513a" fill-opacity=".5" d="M147 138h4v31h-4z"/><path fill="#d3cec9" fill-opacity=".8" d="M100.3 89.9l9.2 21.5-15.7-12.7-29 51.3z"/></g></svg>