<svg xmlns="http://www.w3.org/2000/svg" viewBox="0 0 300 199"><defs/><path fill="#4c3628" d="M0 0h300v199H0z"/><g transform="translate(.6 .6) scale(1.17188)"><circle r="1" fill="#d5d2c2" fill-opacity=".8" transform="matrix(-52.31821 28.5961 -36.60731 -66.97517 97.4 95.3)"/><circle r="1" fill="#dcffff" fill-opacity=".3" transform="rotate(43.2 -102.2 123.6) scale(24.73529 105.83227)"/><circle r="1" fill="#0c0300" fill-opacity=".7" transform="matrix(-46.62653 21.57477 -70.8708 -153.16317 222 57.3)"/><circle r="1" fill="#9b8066" fill-opacity=".8" transform="matrix(26.43347 22.1018 -31.46702 37.63414 152.5 126.1)"/><ellipse cx="18" cy="38" fill-opacity=".6" rx="22" ry="75"/><path fill="#494e56" fill-opacity=".7" d="M39.7 130.8l40.7 15.9 39.4 37.1L-16 170.9z"/><path fill="#e4dccf" fill-opacity=".5" d="M82 0h20v157H82z"/><path fill="#070400" fill-opacity=".4" d="M140.3 75.2l-13.8-60.7 132.6 59.9-107.6 7.9z"/><circle r="1" fill="#d3ded7" fill-opacity=".5" transform="matrix(15.78283 -4.67509 19.8549 67.029 116.2 158)"/><ellipse cx="46" cy="71" fill="#daedec" fill-opacity=".6" rx="8" ry="38"/><circle r="1" fill="#1b0d06" fill-opacity=".8" transform="matrix(119.20887 -82.8633 13.59926 19.56418 222.2 157)"/><ellipse cx="53" cy="12" fill="#000003" fill-opacity=".5" rx="22" ry="20"/><path fill="#e1ecec" fill-opacity=".4" d="M90.6-6.7L26.2 105.7l27.4 35.4 13.9 2.7z"/><ellipse cx="105" cy="33" fill="#b38863" fill-opacity=".6" rx="9" ry="16"/><circle r="1" fill="#1b0b00" fill-opacity=".6" transform="matrix(17.87798 19.89208 -13.29387 11.94785 111.2 0)"/><path fill="#7accff" fill-opacity=".2" d="M28.7 155.8l-32.6-26.5 25.2-31 32.6 26.4z"/><circle r="1" fill="#947457" fill-opacity=".4" transform="matrix(10.60328 -33.42578 35.09908 11.13408 165.9 113.8)"/><circle r="1" fill="#4c4118" fill-opacity=".5" transform="rotate(-106 92.8 -69.6) scale(23.60244 59.14148)"/><path fill="#460b01" fill-opacity=".4" d="M78.7 156.1l31.3 9.7-47.2 18.3 6.7-53.9z"/><path fill="#b29473" fill-opacity=".5" d="M114 84h21v86h-21z"/><path fill="#ceb799" fill-opacity=".5" d="M122 21l4 76 35 6z"/><circle r="1" fill="#150f10" fill-opacity=".6" transform="matrix(-7.39781 -25.29854 36.82995 -10.76983 1 83.3)"/><ellipse cx="101" cy="102" fill="#eff4ea" fill-opacity=".5" rx="8" ry="44"/><path fill="#8da0a4" fill-opacity=".4" d="M167.7 127.7l12.5 29.5-12 5-12.4-29.4z"/><circle r="1" fill="#3c2c26" fill-opacity=".3" transform="matrix(-5.61288 -39.99077 9.50849 -1.33456 149.3 169)"/><circle r="1" fill="#8aae31" fill-opacity=".5" transform="matrix(-7.28353 5.44878 -3.01177 -4.02592 144 18)"/><circle r="1" fill="#120a05" fill-opacity=".8" transform="matrix(-31.39013 -.93164 .66049 -22.25421 173.9 49)"/><path fill="#415562" fill-opacity=".7" d="M50 156l-58-15 13 44z"/><path fill="#8f4830" fill-opacity=".4" d="M83.7-16L107 13.6 72 33.5l20.2-21.2z"/><path fill="#d4cfbe" fill-opacity=".6" d="M125.5 25.7L84.2 64.8l54.2 25.1-10.8-34.1z"/><circle r="1" fill="#614029" fill-opacity=".5" transform="matrix(25.18032 20.48744 -4.1586 5.11118 172.6 87)"/><path fill="#091825" fill-opacity=".3" d="M0 93h29v25H0z"/><path fill="#a2b8c3" fill-opacity=".6" d="M6 134l14 8 21-24z"/><circle cx="58" cy="28" r="6" fill="#905046" fill-opacity=".5"/><circle r="1" fill="#776f52" fill-opacity=".6" transform="rotate(-148 52.2 72.4) scale(3.87074 32.43711)"/><circle r="1" fill="#eff2e5" fill-opacity=".3" transform="matrix(8.71425 3.93463 -22.98659 50.90965 76.8 67)"/><circle r="1" fill="#0e0704" fill-opacity=".7" transform="matrix(25.5298 16.7006 -30.94024 47.29758 237.9 68.8)"/><path fill="#afbab9" fill-opacity=".5" d="M118.3 185L83 102l-7.9 48.3 22.4 12.3z"/><path fill="#a98463" fill-opacity=".2" d="M102 10l17 24-40 44z"/><circle r="1" fill="#170f08" fill-opacity=".6" transform="matrix(16.24452 20.65383 -17.89374 14.07367 23.6 22.5)"/><path fill="#bbbbb1" fill-opacity=".6" d="M59.8-16l27 41.4-6.1 26.8L73.3-16z"/><path fill="#909e97" fill-opacity=".4" d="M201.8 132l-4.3 4-17.3-18 4.3-4z"/><path fill="#1b1203" fill-opacity=".9" d="M141.1 31l18 10.7-51.4-25.2-6.5-25.9z"/><circle cx="75" cy="20" r="3" fill-opacity=".5"/><path fill="#c1cecb" fill-opacity=".4" d="M54.6 27.2L39.8 44l-5.5 88.7L62 34.9z"/><ellipse cx="139" cy="97" fill="#da6310" fill-opacity=".1" rx="35" ry="34"/><circle cx="112" cy="29" r="7" fill="#8b532f" fill-opacity=".5"/><path fill="#03070f" fill-opacity=".2" d="M24.3 129.5l28.4 4.8-10 15.4 61.6 10.9z"/><path fill="#4a4944" fill-opacity=".4" d="M196.6 136.6l-27.4-15.8 8.3 38 19.9-6.1z"/><path fill="#435768" fill-opacity=".2" d="M37.2 101.8l.4-18.9-15.7 5.6-37.9 62.9z"/><ellipse cx="217" fill="#2e1c13" fill-opacity=".7" rx="76" ry="24"/><circle cx="69" cy="139" r="8" fill="#688699" fill-opacity=".4"/><circle r="1" fill="#ccd0c5" fill-opacity=".5" transform="matrix(-8.73357 -3.64269 7.53898 -18.07519 121.5 46)"/><path fill="#221712" fill-opacity=".4" d="M239.4 177.6l-52.8-64.9 18-18.2-9.4 55.9z"/><path fill="#444d51" fill-opacity=".5" d="M32 120l-5 9-5-24z"/><ellipse cx="80" fill="#00000b" fill-opacity=".6" rx="2" ry="18"/><circle r="1" fill="#cfddda" fill-opacity=".5" transform="matrix(12.76358 -2.27322 2.83154 15.8984 104 144.8)"/><path fill="#1e100c" fill-opacity=".6" d="M143.9 169.4l31-7.7 1.2 4.9-31 7.7z"/><path fill="#a98c70" fill-opacity=".5" d="M129 37l36 63-29-28z"/><path fill="#5d798b" fill-opacity=".4" d="M35 162l12-17-63-9z"/><path fill="#34250b" fill-opacity=".6" d="M184.3-16l-52.8 58.5 28.2 43.8-17.2-33.9z"/><circle r="1" fill="#170e0a" fill-opacity=".6" transform="rotate(-48.7 92.5 30) scale(43.9455 14.63216)"/><circle r="1" fill="#a8937d" fill-opacity=".6" transform="matrix(4.37851 -3.18053 15.46985 21.29671 155.5 124)"/><path fill="#603122" fill-opacity=".6" d="M91.8 17l6-33h.8l6.7 31.7z"/><path fill="#d0c2a8" fill-opacity=".5" d="M97 53l8-35-10-1z"/></g></svg>