<svg xmlns="http://www.w3.org/2000/svg" viewBox="0 0 300 199"><defs/><path fill="#493f31" d="M0 0h300v199H0z"/><g transform="translate(.6 .6) scale(1.17188)"><circle r="1" fill="#e5e3ed" fill-opacity=".5" transform="matrix(-5.74953 -182.95317 40.36874 -1.26864 183.2 79.9)"/><circle r="1" fill="#dde5e9" fill-opacity=".5" transform="matrix(33.5771 -44.09933 27.80689 21.17208 30.7 83)"/><path fill="#eae9ed" fill-opacity=".5" d="M71 100l-9 79L37 54z"/><circle r="1" fill="#d6ccfe" fill-opacity=".4" transform="matrix(-18.58756 1.19535 -1.66021 -25.81606 107.8 105)"/><ellipse cx="198" cy="43" fill="#443e3b" fill-opacity=".7" rx="5" ry="169"/><ellipse cx="110" cy="19" fill="#a5b7c0" fill-opacity=".2" rx="139" ry="45"/><path fill="#504d47" d="M23.6 185l5.2-42.1L50 112.3 22.9 87.9z"/><circle r="1" fill="#e0e3c3" fill-opacity=".4" transform="matrix(-13.30015 8.90367 -10.95171 -16.35947 10.3 133.9)"/><path fill="#554c4b" fill-opacity=".8" d="M267 139L209-3l15 147z"/><path fill="#d2ced0" fill-opacity=".8" d="M225.2 169.6l-7.5 15.4-4-35.8L205-16z"/><ellipse cx="163" cy="116" fill="#e0dde0" fill-opacity=".6" rx="5" ry="118"/><ellipse cx="131" cy="133" fill="#0c1524" fill-opacity=".5" rx="13" ry="75"/><path fill="#000613" fill-opacity=".4" d="M107 185L61.9 65.8l46.5-3-42.9 43z"/><circle r="1" fill="#f6f3f7" fill-opacity=".5" transform="matrix(-3.74375 .13338 -4.62843 -129.91244 186 104.2)"/><circle r="1" fill="#babab7" fill-opacity=".6" transform="matrix(-42.09709 28.28807 -5.95169 -8.85704 41.6 74.1)"/><path fill="#221200" fill-opacity=".5" d="M62.1 32.7l50.9.2 43.9 10.5-144.3-5.1z"/><path fill="#efe8e2" fill-opacity=".4" d="M57 36h7v119h-7z"/><path fill="#565750" fill-opacity=".7" d="M21 73l-37-2 38-87z"/><ellipse cx="201" cy="33" fill-opacity=".5" rx="3" ry="38"/><ellipse cx="159" cy="28" fill="#17110f" fill-opacity=".4" rx="2" ry="49"/><path fill="#00000c" fill-opacity=".5" d="M71 137h73v19H71z"/><circle r="1" fill="#e1d5c7" fill-opacity=".5" transform="matrix(4.87948 -.53542 5.15983 47.02358 151.4 128.5)"/><path fill="#857e74" fill-opacity=".7" d="M64 58h7v110h-7z"/><path fill="#fff9ff" fill-opacity=".2" d="M154.1 112.4L89 82l41.5 88.5-19.7-94.1z"/><path fill="#d7d1d0" fill-opacity=".5" d="M193 0h4v48h-4z"/><ellipse cx="175" cy="140" fill="#dddadd" fill-opacity=".6" rx="3" ry="120"/><ellipse cx="179" cy="100" fill-opacity=".3" rx="2" ry="103"/><path fill="#948f88" d="M153.9 37.8l-25 9.8L151 70.7l6.2 110z"/><path fill="#bebdb1" d="M20.7 94.9L1.2 111.6 7 130.2l16.5-5.9z"/><ellipse cx="170" cy="115" fill="#47443f" fill-opacity=".5" rx="2" ry="90"/><ellipse cx="228" cy="8" fill="#a6a8b1" fill-opacity=".6" rx="3" ry="49"/><path fill="#d8d2cb" fill-opacity=".6" d="M147.2 72.4l9.1-88.4-12.4.5-1.8 19.6z"/><path fill="#c9beae" fill-opacity=".6" d="M21 130h5v38h-5z"/><path fill="#524b4b" fill-opacity=".4" d="M187.2 17.7l17-1.2 6.6 93.8-17 1.2z"/><ellipse cx="244" cy="135" fill="#6b5950" fill-opacity=".8" rx="5" ry="169"/><path fill-opacity=".5" d="M119 65h25v19h-25z"/><path fill="#d4c9c7" fill-opacity=".5" d="M216.4 8l6.1 49.6-3 .4-6-49.6z"/><circle r="1" fill="#7b848d" fill-opacity=".5" transform="matrix(1.86945 -.07772 4.27597 102.85048 230.5 53)"/><path fill="#acafb4" fill-opacity=".5" d="M66 147L18 50l43-15z"/><ellipse cx="209" cy="145" fill="#5a575f" fill-opacity=".6" rx="3" ry="43"/><path fill="#130b0d" fill-opacity=".5" d="M153.5 76.5h-3v-45h3z"/><ellipse cx="39" cy="137" fill="#272224" fill-opacity=".5" rx="12" ry="36"/><path fill="#4d4b69" fill-opacity=".6" d="M82 87l-1 31 26 12z"/><path fill="#231b19" fill-opacity=".7" d="M217.2 73.8l-10.4-99.4 2-.2 10.4 99.4z"/><path fill="#757b75" fill-opacity=".6" d="M51 21h78v12H51z"/><ellipse cx="178" cy="31" fill="#4f4946" fill-opacity=".5" rx="2" ry="65"/><path fill="#120c00" fill-opacity=".5" d="M143 43.3l-27.9.4-.2-11 28-.4z"/><ellipse cx="96" cy="48" fill="#c6c59f" fill-opacity=".3" rx="55" ry="4"/><circle r="1" fill="#c9c6c5" fill-opacity=".5" transform="rotate(175.5 97 8.2) scale(1.52916 71.15121)"/><path fill="#44443f" fill-opacity=".7" d="M6.9 123.6L-16 149.9 13.9 185l-27.3-78z"/><path fill="#171621" fill-opacity=".5" d="M142 149l-69-32-4 43z"/><ellipse cx="236" cy="56" fill="#071424" fill-opacity=".4" rx="3" ry="169"/><ellipse cx="173" cy="42" fill="#dcd6d6" fill-opacity=".5" rx="3" ry="51"/><circle r="1" fill="#1f1b1d" fill-opacity=".6" transform="rotate(87 54.6 177.4) scale(87.1848 1.98066)"/><circle r="1" fill="#282025" fill-opacity=".5" transform="rotate(89.3 113.5 142.9) scale(57.66824 10.15178)"/><path fill="#e1ccc8" fill-opacity=".5" d="M104 107l17-23h-16z"/><ellipse cx="53" cy="63" fill="#5a5756" fill-opacity=".6" rx="1" ry="78"/><path fill="#000305" fill-opacity=".5" d="M89 65l-18 51V66z"/><path fill="#303638" fill-opacity=".5" d="M88 59h28v24H88z"/><path fill="#494335" fill-opacity=".5" d="M94 155h57v15H94z"/><circle r="1" fill="#0a0c0f" fill-opacity=".5" transform="matrix(-1.9926 -29.22854 1.92472 -.13121 200.2 21.8)"/><ellipse cx="203" cy="110" fill="#dad4d0" fill-opacity=".4" rx="2" ry="39"/><path fill="#2e2318" fill-opacity=".6" d="M66 33h50v11H66z"/><ellipse cx="62" cy="137" fill="#e8dbc3" fill-opacity=".4" rx="5" ry="36"/><circle r="1" fill="#625f5d" fill-opacity=".4" transform="matrix(1.73682 52.3319 -3.27286 .10862 171.2 156.6)"/></g></svg>