<svg xmlns="http://www.w3.org/2000/svg" viewBox="0 0 300 199"><defs/><path fill="#3a3530" d="M0 0h300v199H0z"/><g transform="translate(.6 .6) scale(1.17188)"><circle r="1" fill="#ddded7" fill-opacity=".8" transform="matrix(-210.26164 142.46133 -66.71868 -98.47148 130 36)"/><ellipse cx="51" cy="93" fill="#554a2b" fill-opacity=".5" rx="91" ry="28"/><circle r="1" fill="#cececa" fill-opacity=".9" transform="matrix(-19.03875 -3.2083 5.48267 -32.5353 255 105.7)"/><circle r="1" fill-opacity=".6" transform="matrix(9.66828 -2.62681 6.28804 23.14385 200.4 117)"/><circle r="1" fill="#f3fcfd" fill-opacity=".7" transform="matrix(5.19798 46.34105 -71.53372 8.0238 93.1 17.8)"/><circle r="1" fill="#8b8c88" fill-opacity=".7" transform="matrix(-40.03736 34.43756 -10.31534 -11.9927 162.6 168.7)"/><path fill-opacity=".3" d="M161 68l-35-14-15 64z"/><circle r="1" fill="#0a1111" fill-opacity=".5" transform="matrix(-2.94683 24.91198 -3.44144 -.40709 168.4 22.4)"/><ellipse cx="36" cy="161" fill="#e9e6e5" fill-opacity=".5" rx="114" ry="31"/><ellipse cx="197" cy="25" fill="#f1edec" fill-opacity=".5" rx="26" ry="66"/><path fill="#e1ded2" fill-opacity=".4" d="M-16 83.3l32.9 24.2 56.8 10.4 43.1-12.2z"/><path fill="#000204" fill-opacity=".6" d="M235.6 131.1l-11.5-29.7 4 3.9-16.1 9.2z"/><path fill="#3b2207" fill-opacity=".4" d="M18.9 79.3l2.4 22.7L-16 68.6-.6 48.5z"/><path fill="#272004" fill-opacity=".3" d="M50.5 104l-28-45 11-7 28 45z"/><path fill="#020500" fill-opacity=".6" d="M152 79l-2.8-1.3L168.1 39l2.7 1.3z"/><path fill="#413b1d" fill-opacity=".5" d="M131 103L56 88l48-6z"/><ellipse cx="71" cy="58" fill="#e1e8e5" fill-opacity=".4" rx="33" ry="19"/><ellipse cx="214" cy="126" fill="#feffff" fill-opacity=".6" rx="3" ry="8"/><path fill="#030301" fill-opacity=".6" d="M207 114l-16 16 29 17z"/><circle r="1" fill="#26271f" fill-opacity=".5" transform="rotate(70.6 -34.2 125) scale(2.65296 23.43506)"/><path fill="#e6e6e6" fill-opacity=".5" d="M281.5 70.5L237.7 75l-9.2-87.6 43.8-4.6z"/><path fill="#c9c8c3" fill-opacity=".8" d="M99.5 119.3l41.2 65.7 34.6-137.7L138.4 97z"/><circle r="1" fill="#f1f5f5" fill-opacity=".7" transform="matrix(36.53898 57.88647 -15.35739 9.69386 29.8 4.3)"/><path fill="#e7edea" fill-opacity=".8" d="M164.3 38.4l3.6-23.1L76.1-16l78.3 79.7z"/><path fill="#d3d2cd" fill-opacity=".7" d="M172 29l-13 45 35 51z"/><path fill="#f0dec2" fill-opacity=".5" d="M27.3 104.8l-9.2-37 10.6-2.6 9.2 37z"/><circle r="1" fill="#202822" fill-opacity=".5" transform="matrix(2.46638 2.87001 -22.2668 19.1353 130.6 94.8)"/><path fill-opacity=".5" d="M168 0h3v28h-3z"/><ellipse cx="111" cy="75" fill="#9aa083" fill-opacity=".4" rx="38" ry="16"/><path fill="#3f3429" fill-opacity=".3" d="M13 109l39 15 37-7z"/><circle r="1" fill="#e1dedc" fill-opacity=".6" transform="rotate(101.7 69.4 135) scale(22.85131 9.35532)"/><path fill-opacity=".5" d="M219 113h17v19h-17z"/><path fill="#524f4a" fill-opacity=".6" d="M191 133h17v37h-17z"/><path fill="#9ca7ab" fill-opacity=".5" d="M55.2-5.3l29.3 69-3.7 1.6-29.3-69z"/><path fill="#040400" fill-opacity=".5" d="M191.5 95.6l2.9-5.2 12.7 19.4-2.5 9.3z"/><path fill="#121311" d="M199.7 131.5L191.8 93l-1.3 6.9 4.8 36.7z"/><circle cx="6" cy="81" r="5" fill-opacity=".6"/><path fill="#a8b6b5" fill-opacity=".4" d="M97 14l18 54 20-3z"/><path fill="#aab1aa" fill-opacity=".6" d="M11.2 127.7L16.9 7.6l18.3 38.8-17.9 29.2z"/><path fill="#dfe2df" fill-opacity=".6" d="M238 115h18v20h-18z"/><path fill="#e5dac6" fill-opacity=".5" d="M47 86l-1 11-10-3z"/><path fill="#7c7c76" fill-opacity=".6" d="M122 185l59-45 18 41z"/><path fill="#b5a896" fill-opacity=".6" d="M-9.6 114.4l93.6 8.2-.4 5-93.6-8.2z"/><path fill="#97653f" fill-opacity=".5" d="M-3 93l33-11-12-9z"/><ellipse cx="70" cy="105" fill="#d7e6e0" fill-opacity=".3" rx="21" ry="11"/><path fill="#625f59" fill-opacity=".7" d="M256.3 141.6l-41.3-7.3.7-4 41.3 7.4z"/><path fill="#fff" fill-opacity=".4" d="M200 119v-6l-3-3z"/><path fill="#0f0a05" fill-opacity=".3" d="M30.4 111.1l-46.4-4.2 25.6-35L-16 94.4z"/><path fill="#010300" fill-opacity=".4" d="M175.8-16l-11.9 58.2-8.8 34 11.3-32.6z"/><path fill="#000a02" fill-opacity=".2" d="M34.8 76.1v19.6l18-17.1-2 1.6z"/><path fill="#b7b0a4" fill-opacity=".6" d="M225 42h10v67h-10z"/><path fill="#eef3f2" fill-opacity=".4" d="M49.6-16l20.5 49.3-21.7 37.4L-5-15z"/><circle r="1" fill="#cddbdd" fill-opacity=".5" transform="matrix(-6.59404 2.0286 -11.27516 -36.65047 5.6 37.2)"/><path fill="#e0e0d1" fill-opacity=".5" d="M31.1 90.1l-18.1.4 21.6-6-10.9-22.3z"/><path fill="#000502" fill-opacity=".4" d="M70.5 118.9l-10.2-.6 50.3-6.9-16.2 5.8z"/><circle cx="133" cy="67" r="16" fill="#939986" fill-opacity=".5"/><path fill="#f6f2ee" fill-opacity=".3" d="M17.8 98.2l-3.2-22.1-5.8 27.3 33.5 10.1z"/><path fill="#c9c8c4" fill-opacity=".6" d="M194 127l-11.6-63.2-30.5 13.4 39.9 60.9z"/><path fill="#2d3639" fill-opacity=".6" d="M235.1 125.6L232 109l3-.5 3 16.5z"/><path fill="#5c5a56" fill-opacity=".6" d="M208.5 130.5l-10.7 5-19.9 5.5 8.8 44z"/><path fill="#d3d1cd" fill-opacity=".4" d="M226 52l-11 73-41-86z"/><circle r="1" fill="#e9e8e5" fill-opacity=".5" transform="matrix(-21.75615 -12.98167 10.54738 -17.6765 196 3)"/><path fill="#766247" fill-opacity=".7" d="M84.5 84.2l-24.8 1.4-1.1 1.2L44 102.3z"/><path fill="#939c8e" fill-opacity=".3" d="M7.2 9.2l49.1 75.9 21.8-8.5-61.7-11z"/><path fill="#b2ab9f" fill-opacity=".7" d="M221.6-5.5l8.8 53.7 1 59.1-13.9-123.1z"/></g></svg>