<svg xmlns="http://www.w3.org/2000/svg" viewBox="0 0 299 449"><defs/><path fill="#2b3d54" d="M0 0h299v449H0z"/><g transform="translate(.9 .9) scale(1.7539)"><circle r="1" fill="#b5d2d9" fill-opacity=".5" transform="matrix(67.44908 -4.14315 9.14428 148.86579 157.4 144.4)"/><circle r="1" fill="#652c07" fill-opacity=".6" transform="matrix(16.65874 -18.11624 43.02105 39.55988 91.9 124.5)"/><circle r="1" fill="#97d6fa" fill-opacity=".6" transform="rotate(79.8 30.1 147.5) scale(72.14019 47.12985)"/><circle r="1" fill="#fbb287" fill-opacity=".6" transform="matrix(-11.11564 -3.84914 7.32818 -21.1625 73.9 75.6)"/><ellipse cx="62" cy="221" fill="#0b0200" fill-opacity=".6" rx="13" ry="107"/><circle r="1" fill="#4a748f" fill-opacity=".7" transform="matrix(22.90143 -12.49523 39.1386 71.73377 121.6 224.3)"/><path fill="#b78a6d" d="M103 122.4l-8.5-47.2 26.3 7 9.4 42.1z"/><path fill="#0e121b" fill-opacity=".5" d="M-16 93l123 139-113 9z"/><circle r="1" fill="#111016" fill-opacity=".6" transform="matrix(-83.19177 25.25936 -6.89271 -22.70117 35.3 2.7)"/><circle r="1" fill="#4c88ad" fill-opacity=".5" transform="matrix(-20.14911 32.62419 -22.95802 -14.17916 118.3 40)"/><circle r="1" fill="#4e7b9a" fill-opacity=".6" transform="matrix(9.54424 14.71948 -24.82408 16.09615 18.4 83)"/><circle r="1" fill="#ffc094" fill-opacity=".5" transform="matrix(-21.28083 18.3044 -6.28385 -7.30566 164.2 192)"/><path fill="#000001" fill-opacity=".6" d="M156 279.3l-6 1.1-14-71.7 6-1.1z"/><path fill="#401300" fill-opacity=".5" d="M47 38h22v50H47z"/><circle r="1" fill="#79b2d2" fill-opacity=".5" transform="rotate(35.7 -253.5 243) scale(23.78173 13.96125)"/><path fill="#527f9e" fill-opacity=".8" d="M94.7 243.4l-15.5-16.5-7.2 39.6 110.6 4.5z"/><path fill="#ffcdb7" fill-opacity=".5" d="M1 244h13v12H1z"/><path fill="#402312" fill-opacity=".7" d="M52.4 148.2l42.8-64.7 22.8-4-25.7-10.8z"/><ellipse cx="104" cy="139" fill="#250b00" fill-opacity=".5" rx="22" ry="12"/><circle r="1" fill="#365973" fill-opacity=".6" transform="rotate(-121.7 69.2 -38.6) scale(15.96938 70.80934)"/><path fill="#ffd0ac" fill-opacity=".5" d="M69 52l27 17-38-10z"/><path fill="#f8d0b5" fill-opacity=".3" d="M57.4 103.6l44.9-56.5-38.9 69-23-9.2z"/><path fill="#150500" fill-opacity=".7" d="M51.1 65.5l-2.3-23.8L75 35.6l12.8 9z"/><path fill="#505960" fill-opacity=".8" d="M121.2 149.8l49.2 20.2-24.8 26.6 5.7-19.5z"/><path fill="#57240b" fill-opacity=".4" d="M190.3 216.3l-5.8 16-34.8-12.6 5.8-16z"/><circle r="1" fill="#9cc4dc" fill-opacity=".5" transform="rotate(-105.4 167.8 59.6) scale(74.63719 4.94809)"/><path fill="#110700" fill-opacity=".6" d="M54 77L29 98l8 31z"/><circle r="1" fill="#243242" fill-opacity=".6" transform="matrix(15.13162 -120.87777 19.1974 2.40315 35 233.6)"/><path fill="#12161f" fill-opacity=".4" d="M119 160l-16 6 7 33z"/><path fill="#020405" fill-opacity=".6" d="M94.6 225.8l20.7 20.4-20.8-6.6L68.6 193z"/><ellipse cx="76" cy="127" fill="#0d0b01" fill-opacity=".4" rx="12" ry="31"/><path fill="#80a6bd" fill-opacity=".6" d="M114.3 169.6l-21.2-22.9 35.9 53.7 20.2-25.1z"/><path fill="#ffccb5" fill-opacity=".5" d="M103 104h10v23h-10z"/><path fill="#25333f" fill-opacity=".8" d="M150.2 225.9l-.5 45.1-6.9-21.2-6-32.5z"/><ellipse cy="185" fill="#090a12" fill-opacity=".5" rx="12" ry="65"/><path fill="#050000" fill-opacity=".5" d="M110 131l3 22 7-41z"/><path fill="#d78e69" fill-opacity=".6" d="M64.2 69.9l-1.4 13-7-.8 1.4-13z"/><path fill="#89bddb" fill-opacity=".5" d="M101 165l-22-2 34 51z"/><path fill="#cc8e68" fill-opacity=".4" d="M106.3 79.6L158.6 185l-42.8-69.2-32.6-31.4z"/><path fill="#71a8c8" fill-opacity=".6" d="M127 87L94 62l92-71z"/><path fill="#385b71" d="M77.9 156.7l-6.5 18.7 26.3 30-12.5-23.6z"/><path fill="#f9cab0" fill-opacity=".3" d="M38.2 97.2l32.4 18.6-27.3-5.9-1.6-6z"/><path fill="#37556d" fill-opacity=".7" d="M45.1 67.9L-16 92.6l2.6-19.6 68.9-41z"/><path fill="#512303" fill-opacity=".5" d="M78.9 32.9l-3.5 21 15.9 8.9 3.1-8.7z"/><ellipse cx="70" cy="102" fill="#130704" fill-opacity=".5" rx="23" ry="4"/><circle r="1" fill="#2d4969" fill-opacity=".4" transform="matrix(9.51689 -4.11832 13.5151 31.23155 22.5 218.3)"/><ellipse cx="62" cy="187" fill="#030000" fill-opacity=".5" rx="9" ry="33"/><path fill="#0e0501" fill-opacity=".6" d="M52.5 271l-32-12.2-16.7-29.9-13.6-11.2z"/><path fill="#a3d1e8" fill-opacity=".3" d="M133 66h38v89h-38z"/><path fill="#084571" fill-opacity=".4" d="M161.2 160.9l4.5 10.3-9.3 18.8-5.2-47.9z"/><path fill="#ffe2cd" fill-opacity=".5" d="M100 80l14 9-16 5z"/><path fill="#5489ab" fill-opacity=".5" d="M95 71l-5-37 96-43z"/><path fill="#fff9e4" fill-opacity=".3" d="M174.8 179.4l3.6 6-35.2 21.2-3.6-6z"/><path fill="#140000" fill-opacity=".5" d="M92.3 150.4l.9-.5 16.5 29.7-.9.5z"/><path fill="#3c546a" fill-opacity=".3" d="M-6.4 144.6l38.3-37.9 19.2 82.7L65.3 133z"/><path fill="#a0d7ee" fill-opacity=".6" d="M172 250l14-26-24 5z"/><path fill="#986f4d" fill-opacity=".6" d="M150.4 162.9l-31.3-29 7.9-26.8 11.3 59.3z"/><path fill="#659cc0" fill-opacity=".7" d="M137.1 203.2l1.6 13-16 14.1-.5-16.1z"/><path fill="#1b4261" fill-opacity=".5" d="M121 244l-15-1 14-42z"/><path fill="#683f2e" fill-opacity=".5" d="M174.3 193.1l2.8-.1-11.2 1.3-5.7 24.3z"/><path fill="#97afb9" fill-opacity=".2" d="M101.8 172.5l19.2 63.4-49.4-96.2 2.8-27.1z"/><path fill="#ffc9ae" fill-opacity=".4" d="M62.7 51.9l21.5 32-16.5-6.4 21.2-17.6z"/><circle r="1" fill="#283744" fill-opacity=".5" transform="rotate(-105.9 36.5 -11) scale(9.19165 109.63826)"/><path fill="#001a24" fill-opacity=".4" d="M154.4 223.8l17.8 35.7 8.3 11.5h5.5z"/><path fill="#141012" fill-opacity=".6" d="M91 209l-36-23-16 85z"/></g></svg>