<svg xmlns="http://www.w3.org/2000/svg" viewBox="0 0 300 199"><defs/><path fill="#5d3b2d" d="M0 0h300v199H0z"/><g transform="translate(.6 .6) scale(1.17188)"><circle r="1" fill="#d4c3ab" fill-opacity=".7" transform="matrix(-6.17375 -164.01367 90.88208 -3.42095 156.9 90.5)"/><circle r="1" fill="#c4c2bb" fill-opacity=".5" transform="matrix(-220.55233 -109.77743 9.64217 -19.37194 60 91.7)"/><circle r="1" fill="#512f13" fill-opacity=".5" transform="matrix(20.43968 46.24454 -26.72644 11.81285 192.1 69.7)"/><ellipse cx="24" cy="141" fill="#00030e" fill-opacity=".6" rx="35" ry="49"/><path fill="#d8d19e" fill-opacity=".6" d="M13.7 45.4l-27.8-11.2L8.3-21.4l27.8 11.2z"/><circle cx="178" cy="158" r="40" fill="#f9ebe2" fill-opacity=".6"/><path fill="#121516" fill-opacity=".7" d="M25 9l-2 70L91 3z"/><path fill="#d3cac6" d="M71.4 140.4L18.8 59.1 112.9 183l-12.4-57.6z"/><circle r="1" fill="#fff7e8" fill-opacity=".6" transform="matrix(8.81144 -.89503 2.90106 28.56042 127 85.3)"/><circle r="1" fill="#c2bfb5" fill-opacity=".5" transform="matrix(-20.46002 25.06978 -15.1962 -12.40197 239.6 12.3)"/><path fill="#f2fabe" fill-opacity=".5" d="M25.1 73L-16 100.1l33.7-2.3L3.5 32.2z"/><path fill="#3e3120" fill-opacity=".5" d="M205 102.2l13.4-4 22.6 73.6-13.4 4z"/><path fill="#471816" fill-opacity=".5" d="M82.1 66l-16.8 51.7 19.3 31.7-18-80z"/><path fill="#2f4d60" fill-opacity=".4" d="M112 171l-12-94 39 59z"/><circle r="1" fill="#0d151c" fill-opacity=".8" transform="matrix(16.39091 20.75783 -12.27838 9.69532 64.6 163.1)"/><ellipse cx="162" cy="105" fill="#862700" fill-opacity=".3" rx="25" ry="26"/><path fill="#21170c" fill-opacity=".7" d="M78 15l26 6-43-37z"/><path fill="#293f4a" fill-opacity=".5" d="M271 66.6L233.4 22l8.8 78.8 8.3 84.2z"/><circle r="1" fill="#efd575" fill-opacity=".6" transform="rotate(23.1 38.8 293) scale(38.79074 14.08914)"/><circle r="1" fill="#b46c64" fill-opacity=".5" transform="matrix(-7.8195 7.9276 -20.19288 -19.91753 58.9 67.7)"/><path fill="#171a1c" fill-opacity=".8" d="M-16 179.4l43.4-99.5 35.5 47.2 19.8 35.4z"/><path fill="#fac4c6" fill-opacity=".5" d="M159 60h13v26h-13z"/><circle r="1" fill="#ffcba7" fill-opacity=".5" transform="rotate(42.1 3.5 129.7) scale(20.95538 9.73646)"/><path fill="#f6efed" fill-opacity=".6" d="M21 12l31-28-68 12z"/><path fill="#00040b" fill-opacity=".4" d="M20 19h53v32H20z"/><path fill="#ecfaff" fill-opacity=".5" d="M48.8 104.9L27.6 79.6l7.6-6.5 21.2 25.3z"/><circle r="1" fill="#ece7ea" fill-opacity=".6" transform="matrix(11.78423 -3.27568 6.79579 24.44782 203.5 140.2)"/><path fill="#c5a45d" fill-opacity=".5" d="M179 47l-29-63-56 45z"/><ellipse cx="238" cy="169" fill="#828c95" fill-opacity=".6" rx="10" ry="55"/><path fill="#505200" fill-opacity=".4" d="M18 4L-3 92l-13-70z"/><path fill="#ebc9a0" fill-opacity=".6" d="M193 133l-43-14-44 66z"/><path fill="#efd6d0" fill-opacity=".6" d="M117 185L91 91l-7 72z"/><path fill="#0f120a" fill-opacity=".5" d="M40 68L19 37l4 39z"/><path fill="#140100" fill-opacity=".4" d="M182.8 67.8l-22.9-18.9 41.3 55.8 7.2-.8z"/><path fill="#def1f1" fill-opacity=".4" d="M5.9 102.4l4.7-35.8L66 116.5 27.5 75.3z"/><path fill="#fff9e2" fill-opacity=".4" d="M68-16h29l25 52z"/><circle r="1" fill="#5e2b27" fill-opacity=".5" transform="rotate(-26.3 155.2 -164) scale(11.86516 4.20358)"/><path fill="#cac7c9" fill-opacity=".4" d="M219 85l22 26-10-98z"/><path fill-opacity=".7" d="M62.4 118.3l3.9-7 11.3 6.4-3.9 7z"/><path fill="#d8b5ad" d="M58.7 76.5l-5.4-7.7-3 8.7 54.1 40z"/><path fill="#d6e6ef" fill-opacity=".5" d="M59.6 109.7l38.8 73.8-25.8-40.2L36 85.6z"/><path fill="#580b00" fill-opacity=".4" d="M63.6 80.2L66 77l22.4 16.8L86 97z"/><path fill="#120200" fill-opacity=".6" d="M217 128h7v16h-7z"/><path fill="#f5cab2" fill-opacity=".6" d="M104.1 44.7L79.7 70.3l20.4-8.5 9.8-6.1z"/><circle r="1" fill="#361200" fill-opacity=".4" transform="matrix(-20.2137 -7.63812 1.82637 -4.83334 184.6 31.7)"/><path fill="#92706c" fill-opacity=".7" d="M81.6 102.1l-29.7-8.3 17 21.1 16.8 11.6z"/><path fill="#cdbda8" fill-opacity=".4" d="M119.5 132.6l-10.1-14.9 33.1-22.3 10.1 14.9z"/><path fill="#88713a" fill-opacity=".4" d="M104.1 89.5l6.4-73.6L155 77.4 120.6 8.6z"/><path fill="#fcf29a" fill-opacity=".6" d="M135.6 32.4l6.8-26.3-20.5 10.1 25.3 6.3z"/><path fill="#11120e" fill-opacity=".5" d="M48 0h17v57H48z"/><ellipse cx="181" cy="71" fill="#36221d" fill-opacity=".4" rx="6" ry="32"/><path fill="#4d2613" fill-opacity=".7" d="M171.7 59.5l-6.4-2.9-5.6-16.1-4.1 16.8z"/><path fill="#c0b38e" fill-opacity=".3" d="M188.2 70.7l4.9 12.5 19.1 15.4.6-26.6z"/><path fill="#527c3f" fill-opacity=".5" d="M10 82l-26 26L2 43z"/><path fill="#291302" fill-opacity=".4" d="M88.5 5.8l13 10.4 1.8 14.2-19.9-14.9z"/><circle r="1" fill="#bf7061" fill-opacity=".4" transform="rotate(110.7 15.2 61.7) scale(15.42735 19.97022)"/><path fill="#fee785" fill-opacity=".5" d="M7 23l-9 5 25 3z"/><path fill="#4c5254" fill-opacity=".4" d="M119 146l-2 38-20-74z"/><path fill="#7b4017" fill-opacity=".3" d="M170.4 116.7l-38.3-43.6 24.8 49.4 38.4-1.3z"/><circle r="1" fill="#dad9df" fill-opacity=".6" transform="matrix(-24.80323 41.2795 -19.60955 -11.7826 185.4 168)"/><path fill="#fff5d9" fill-opacity=".3" d="M113.2 51.5l13.6 56.6 10-43.9 19-11.3z"/><path fill="#fff" fill-opacity=".5" d="M136 37h7v7h-7z"/><path fill="#ccb9aa" fill-opacity=".4" d="M237.3 5.4L247.4 43 218.5 1.7 238.3-16z"/><path fill="#e5cbac" fill-opacity=".5" d="M213-3.5l-37 17.3-3-6.3 37.2-17.3z"/><ellipse cx="30" cy="43" fill="#1d2125" fill-opacity=".6" rx="9" ry="34"/></g></svg>