<svg xmlns="http://www.w3.org/2000/svg" viewBox="0 0 300 199"><defs/><path fill="#3b4556" d="M0 0h300v199H0z"/><g transform="translate(.6 .6) scale(1.17188)"><circle r="1" fill="#a7abb0" fill-opacity=".9" transform="matrix(-225.18483 42.23433 -24.61307 -131.23185 149.5 58)"/><circle r="1" fill="#252d37" fill-opacity=".6" transform="rotate(-8.4 671 -1549) scale(106.84697 35.17813)"/><circle r="1" fill="#e3f2ff" fill-opacity=".8" transform="matrix(4.4756 -49.17863 204.11597 18.576 56.1 .4)"/><ellipse cx="26" cy="88" fill="#343c3d" fill-opacity=".6" rx="80" ry="33"/><ellipse cx="113" cy="154" fill="#170a04" fill-opacity=".6" rx="28" ry="10"/><path fill="#fff6eb" fill-opacity=".4" d="M-8 123l156-9-118 65z"/><path fill="#00000b" fill-opacity=".6" d="M183.6 83.6l7.7-1.9 27.1 108.7-7.7 1.9z"/><circle r="1" fill="#000013" fill-opacity=".4" transform="matrix(-18.15038 2.2761 -4.63473 -36.95889 183.3 74.4)"/><circle r="1" fill="#ddecfb" fill-opacity=".6" transform="matrix(-17.3068 -7.89972 10.70652 -23.45596 115.5 110.2)"/><ellipse cx="178" cy="123" fill="#00000b" fill-opacity=".7" rx="4" ry="30"/><path fill="#7d7974" fill-opacity=".7" d="M160 52l-5 47-171-49z"/><path fill="#646275" d="M173 147l93 22-40 13z"/><path fill="#fff0e4" fill-opacity=".4" d="M135 117h38v34h-38z"/><path fill="#e9d2c7" fill-opacity=".5" d="M205 117h51v40h-51z"/><path fill="#2c2a32" fill-opacity=".5" d="M45 102h48v17H45z"/><path fill="#282332" fill-opacity=".5" d="M150 185v-25l-39-17z"/><path fill="#d8e6f3" fill-opacity=".9" d="M181 49l74-61 16 49z"/><ellipse cx="49" cy="86" fill="#0a0000" fill-opacity=".4" rx="62" ry="3"/><path fill="#84b6ea" fill-opacity=".4" d="M205 89h51v8h-51z"/><path fill="#b9b0ad" fill-opacity=".8" d="M151 175l-167-46 34 56z"/><path fill="#877070" fill-opacity=".5" d="M179 37h8v51h-8z"/><ellipse cx="68" cy="96" fill="#8bc8ff" fill-opacity=".3" rx="106" ry="5"/><path fill="#666f71" fill-opacity=".9" d="M249.9 78.5l7.6-39.2-64 13.1 25.4 27.3z"/><path fill="#00041a" fill-opacity=".6" d="M206.4 92.6l-14.8 2.3-6-37.5 14.8-2.3z"/><path fill="#000003" fill-opacity=".4" d="M33 70l9 15-29 2z"/><ellipse cx="8" cy="103" fill="#161f2f" fill-opacity=".6" rx="88" ry="3"/><path fill="#0f1929" fill-opacity=".8" d="M175.2 69.1l-24.7 12.4-.7-4.9 20.5-11.3z"/><ellipse cx="163" cy="160" fill="#d8bcaf" fill-opacity=".5" rx="16" ry="35"/><path fill="#f2efe9" fill-opacity=".5" d="M110.1 143.7l4-67.9-13.1 25-20.7 42.8z"/><path fill="#51565d" d="M134.7 97.3L143 117l-.9.5 26-.2z"/><path fill="#261f17" fill-opacity=".6" d="M168 87.5l103-12.1-16.9 8.4-50.7 1.7z"/><path fill="#ecd2c6" fill-opacity=".5" d="M187 112l-4 32 18 16z"/><path fill="#d7d7d8" fill-opacity=".6" d="M9 120h165v11H9z"/><path fill="#797d79" fill-opacity=".8" d="M54 84.1l33.8 2.2 25.6-23.6-126.1-19.2z"/><circle cx="119" cy="56" r="6" fill="#3c1300" fill-opacity=".5"/><path fill="#d9e7f4" fill-opacity=".9" d="M62.2-16l111.4 70 .3-13.3 62.6-29.2z"/><path fill="#e6cdc1" fill-opacity=".6" d="M236 171l-57-9-44 20z"/><ellipse cx="147" cy="86" fill="#240b00" fill-opacity=".5" rx="17" ry="3"/><path fill="#bccadb" fill-opacity=".7" d="M130 86l15 45-42 7z"/><path fill="#78d7ff" fill-opacity=".2" d="M172.2 73.9l-1.4 27-13-.8 1.4-27z"/><circle r="1" fill="#dceaf8" fill-opacity=".5" transform="rotate(-172.1 8.7 11.8) scale(126.45419 22.61596)"/><path fill="#817877" d="M185.8 38.8l-2.1 46.3 6.4-34.4L139 80.9z"/><path fill="#2e2919" fill-opacity=".6" d="M226 112h30v5h-30z"/><path fill="#0f4f7b" fill-opacity=".6" d="M56 84.9l-2.6.8 21.9-2.5-7.6-14.9z"/><path fill="#4d4f66" fill-opacity=".7" d="M237 169l-47-7 19-12z"/><path fill="#030718" fill-opacity=".4" d="M192.5 77.2l14.7 80-11-13.1.3 8.8z"/><path fill="#5a6273" fill-opacity=".6" d="M144.7 168.8l-46-4.6 38.8-8.4 23.1 7.4z"/><ellipse cy="111" fill="#4d4b51" fill-opacity=".6" rx="95" ry="9"/><path fill="#006fc1" fill-opacity=".5" d="M241 76l-17 2 11-17z"/><path fill="#121723" fill-opacity=".8" d="M173.2 110.3l34.2-21.2-60.6-2.8 27.5-3.1z"/><path fill="#20212b" fill-opacity=".7" d="M183.5 137.7l-9.6-20.5.9 17.4 7.3 19.2z"/><path fill="#bfb2af" d="M206 149l65 22-19-40z"/><path fill="#c5b7b4" fill-opacity=".6" d="M207.6 161.1l-9-5.5-13-2.7-2.7-36.6z"/><ellipse cx="110" cy="150" fill="#2b1700" fill-opacity=".4" rx="15" ry="7"/><path fill="#fbf0bb" fill-opacity=".3" d="M209.6 74.3l-8.2-10.5 5.4 16.9 16 2.9z"/><path fill="#1e1913" fill-opacity=".6" d="M252.4 76.4l-19.6-30.2.8-.6 19.6 30.2z"/><path fill="#370900" fill-opacity=".4" d="M175 39h12v8h-12z"/><path fill="#858170" fill-opacity=".6" d="M-16 65l52-11-19 31z"/><ellipse cx="242" cy="99" fill="#071629" fill-opacity=".6" rx="32" ry="2"/><circle r="1" fill="#ceb3aa" fill-opacity=".5" transform="matrix(-35.25901 -8.39988 1.10935 -4.65658 156.3 152.4)"/><path fill="#fee69c" fill-opacity=".2" d="M252 75.9l-19.5-26.1-2.3 4.7L271 109z"/><path fill="#dbd7d5" fill-opacity=".4" d="M258.3 136.1l-50.3-5.9-10.1-15.5 45 6.9z"/><circle r="1" fill="#9ab4d4" fill-opacity=".5" transform="rotate(152.2 48.5 64) scale(7.85806 16.99821)"/><path fill="#878573" d="M26.6 46.8L45 85.1l10.6 2.4-8.8-9.4z"/><path fill="#625a63" fill-opacity=".5" d="M184.4 163.5l-30.4-2.4 20.9-1.2 30.8 5.4z"/></g></svg>