<svg xmlns="http://www.w3.org/2000/svg" viewBox="0 0 300 199"><defs/><path fill="#5b463e" d="M0 0h300v199H0z"/><g transform="translate(.6 .6) scale(1.17188)"><circle r="1" fill="#cfd0cf" fill-opacity=".9" transform="matrix(253.83852 -24.31057 6.84955 71.51949 123 53.1)"/><path fill="#15160e" fill-opacity=".5" d="M50.4-23.1l8.1 154.8-27 1.4-8-154.8z"/><circle r="1" fill="#f4fdff" fill-opacity=".2" transform="matrix(4.49393 -79.67934 144.8937 8.17204 112 84.1)"/><ellipse cx="184" cy="104" fill="#70574d" fill-opacity=".9" rx="11" ry="31"/><path fill="#4d2516" fill-opacity=".6" d="M141 38h10v50h-10z"/><path fill="#a8a6a5" d="M205 0h51v59h-51z"/><path fill="#fff" fill-opacity=".7" d="M52 10l34 46 104-36z"/><ellipse cx="39" cy="41" fill="#3f3f38" fill-opacity=".4" rx="14" ry="70"/><ellipse cx="10" cy="61" fill="#fff" fill-opacity=".6" rx="17" ry="56"/><path fill="#370800" fill-opacity=".5" d="M68 43h9v29h-9z"/><ellipse cx="61" cy="113" fill="#fff" fill-opacity=".5" rx="4" ry="154"/><path fill="#fcfbf9" fill-opacity=".5" d="M155 24h26v71h-26z"/><circle r="1" fill="#000913" fill-opacity=".4" transform="rotate(-115.5 61.2 76.5) scale(8.80416 90.0603)"/><circle r="1" fill="#001119" fill-opacity=".5" transform="matrix(-162.6644 4.25952 -.16775 -6.40603 131.4 168.3)"/><path fill="#6f716d" fill-opacity=".6" d="M207 112l-53 60-78-45z"/><path fill="#f9f6f6" fill-opacity=".4" d="M191 104l23-44 57 61z"/><path fill="#91a3b2" fill-opacity=".5" d="M80 135h47v25H80z"/><path fill="#383230" d="M148.9 185l8.6-48.1-11.9-12.2 2.1 55.7z"/><path fill="#080000" fill-opacity=".5" d="M208 36h8v17h-8z"/><path fill="#95a3a7" fill-opacity=".5" d="M155 130h56v28h-56z"/><path fill="#857163" fill-opacity=".5" d="M44.2 42.7l45.6 30.8-4 5.8-45.6-30.8z"/><path fill="#757a7d" fill-opacity=".3" d="M237 60h19v78h-19z"/><path fill="#181f21" fill-opacity=".5" d="M271 162l-74-42 43 65z"/><path fill="#380300" fill-opacity=".4" d="M114 56l-13 17-15 1z"/><circle r="1" fill="#1b1012" fill-opacity=".8" transform="matrix(-9.568 -14.02817 10.18799 -6.94877 7.6 157.2)"/><ellipse cx="177" cy="37" fill="#e5e6e6" fill-opacity=".8" rx="30" ry="22"/><path fill="#715a57" fill-opacity=".5" d="M200 74l-3-14 32-20z"/><path fill="#927e7a" fill-opacity=".7" d="M150.9 47.5l-10.6 66.4-3.2-36.4 17.5 22z"/><path fill="#f5f6f6" fill-opacity=".8" d="M-8.1 133.2L28 108.3 21.7-12l-5.5 140.4z"/><path fill="#888986" fill-opacity=".6" d="M20.7 166.1l37-74.4-33.3 21.9-3.8-1.4z"/><path fill="#fefefe" fill-opacity=".4" d="M57.6 148.3l27.3-46.6L69 61.4 58.9 76.9z"/><path fill="#322b29" fill-opacity=".8" d="M65.7 129.1l-3.4 5.3L79.8 185l-3.2-54.2z"/><ellipse cx="202" cy="122" fill="#2e1d08" fill-opacity=".3" rx="51" ry="6"/><path fill="#591004" fill-opacity=".5" d="M86.2 86.6l4.5 13.8-1 4.8-7.6-13.5z"/><path fill="#807c70" fill-opacity=".5" d="M118.6-21.3l2-.2 6.8 96.8-2 .2z"/><path fill="#533529" fill-opacity=".6" d="M168.9 92.1l5.2 20.3 3.9 13.9 14.9-12z"/><path fill="#e7feff" fill-opacity=".5" d="M143 148l3 16-11-11z"/><ellipse cx="126" cy="142" fill="#0a0000" fill-opacity=".3" rx="32" ry="4"/><path fill="#8f939f" fill-opacity=".5" d="M6 0h5v42H6z"/><path fill="#faffff" fill-opacity=".6" d="M59 154h7v12h-7z"/><path fill="#cbcdca" fill-opacity=".5" d="M238.6 10.7L229 40.2l-27.6-9L211 1.9z"/><path fill="#fff6e3" fill-opacity=".2" d="M181.7 123.8L59.1 141.9l118.7-8 11.1 35.3z"/><path fill="#6f5446" fill-opacity=".5" d="M140 35h8v47h-8z"/><path fill="#04131d" fill-opacity=".3" d="M159 185l25-6-8-53z"/><path fill="#ebe9e7" fill-opacity=".6" d="M160.4 99.2l-23.8 11.9L185 89.3 141.9 4.4z"/><path fill="#40302a" fill-opacity=".6" d="M84.2 126.7l-14.9 8.4 35.6-5.1 8.2 15.8z"/><path fill="#643d20" fill-opacity=".3" d="M127.7 60.6l-3.5-25.5 4.7 17.3 55.1 8z"/><path fill="#7d7b76" d="M53 63.2l3.3 32.2.1 39.8-25.1 9.7z"/><ellipse cx="168" cy="32" fill="#9a9b96" fill-opacity=".4" rx="3" ry="31"/><path fill="#f5f2ec" fill-opacity=".6" d="M61.1 127.4l116.5-11.6-91.9-.6-25-11.9z"/><path fill="#e9dad6" fill-opacity=".5" d="M207 49l15-9-3 9z"/><path fill="#352e26" fill-opacity=".5" d="M143 119h12v25h-12z"/><circle cx="211" cy="41" r="5" fill="#0f0000" fill-opacity=".5"/><path fill="#918e89" fill-opacity=".7" d="M214 144.4l-1.7 22.1-6.5-33.9-41.9-7.3z"/><path fill="#231f1f" fill-opacity=".7" d="M54 144l-40 18 48 22z"/><path fill="#222019" fill-opacity=".5" d="M103 185h21l10-42z"/><path fill="#f6faf9" fill-opacity=".6" d="M91 110l-2-5.7L125 92l2 5.7z"/><path fill="#60615e" fill-opacity=".7" d="M60.3 53.8L19.9-16l4.2 21.2 1.4 24.9z"/><path fill="#f3f5f6" fill-opacity=".6" d="M123 54.6L82.7 61 77 25.4l40.5-6.4z"/><ellipse cx="88" cy="107" fill="#874b3b" fill-opacity=".5" rx="2" ry="13"/><path fill="#686864" fill-opacity=".5" d="M28 2h25v105H28z"/><path fill="#e7d6b6" fill-opacity=".4" d="M181 138h8v24h-8z"/><path fill="#fff" fill-opacity=".5" d="M57 20h13v25H57z"/><ellipse cx="250" cy="130" fill="#848f8c" fill-opacity=".5" rx="35" ry="5"/><path fill="#fff9f9" fill-opacity=".4" d="M199.3 111l11.9-.1-16.8-45.8-11-11.8z"/></g></svg>