<svg xmlns="http://www.w3.org/2000/svg" viewBox="0 0 300 199"><defs/><path fill="#544a40" d="M0 0h300v199H0z"/><g transform="translate(.6 .6) scale(1.17188)"><circle r="1" fill="#fffdfa" fill-opacity=".5" transform="matrix(-98.05714 -85.08807 37.73731 -43.48921 122.8 66.5)"/><circle r="1" fill="#fff" fill-opacity=".7" transform="matrix(12.45955 10.02837 -36.33195 45.13991 60.5 153.1)"/><path fill="#f2f8ff" fill-opacity=".4" d="M124.5 27.5l99 24.7-14 56.3-99-24.7z"/><circle r="1" fill="#746867" fill-opacity=".9" transform="rotate(69.8 -33.8 173.4) scale(29.5667 69.79541)"/><circle r="1" fill="#2a220b" fill-opacity=".6" transform="matrix(19.28813 -.64156 1.22752 36.9046 91.8 8)"/><path fill="#301100" fill-opacity=".5" d="M83 74L-16 3l7 92z"/><path fill="#e3f3f2" fill-opacity=".6" d="M76 59L63-16l-75 6z"/><path fill="#000206" d="M257 138l-107 47 121-15z"/><path fill="#f3f6f6" fill-opacity=".8" d="M184.4 161.6l-20.9-29.5 16.2.9 26.3 27.5z"/><circle r="1" fill="#340f00" fill-opacity=".6" transform="matrix(41.9226 -27.59468 13.15278 19.98207 11.6 144)"/><path fill="#7d4e41" fill-opacity=".9" d="M140-16l31 71 34-35z"/><circle r="1" fill="#f6ceab" fill-opacity=".6" transform="matrix(5.50624 -18.56508 23.76182 7.04755 89.8 105.2)"/><circle r="1" fill="#150304" fill-opacity=".5" transform="matrix(2.47161 -29.43366 38.96213 3.27174 227.8 14.3)"/><circle r="1" fill="#fdffff" fill-opacity=".6" transform="matrix(-13.47447 -6.86558 4.60023 -9.02845 218 142)"/><circle r="1" fill="#6e7277" fill-opacity=".8" transform="rotate(-42.5 226.8 -249) scale(17.00791 46.75105)"/><path fill="#311f1c" fill-opacity=".5" d="M162 143l-29-59 17-4z"/><path fill="#b4b8b8" fill-opacity=".8" d="M73.4 97.9L153 34.6l2.2-50.6-21.4 9.3z"/><circle r="1" fill="#feffff" fill-opacity=".5" transform="matrix(23.14147 15.25898 -10.58672 16.0556 176.4 84.4)"/><path fill="#50190d" fill-opacity=".7" d="M206.5 132.6l-12.8-25.1-27.1 11.4 33.3 28z"/><ellipse cx="122" cy="108" fill="#ffe4b8" fill-opacity=".7" rx="25" ry="11"/><path fill="#42241a" fill-opacity=".5" d="M83.6 100.8l-5 5.2-8.1 10.2 14.6 10.1z"/><circle r="1" fill="#71634c" fill-opacity=".6" transform="matrix(7.00433 11.84367 -39.39015 23.29527 48.4 88)"/><path fill="#00050e" fill-opacity=".5" d="M200 185l-49-4 11-47z"/><path fill="#581c00" fill-opacity=".5" d="M140 101.3l-40.6-5.7.6-5 40.6 5.8z"/><circle r="1" fill="#63676c" fill-opacity=".8" transform="matrix(24.16084 16.2463 -4.84234 7.20134 224.7 123.6)"/><path fill="#fff" fill-opacity=".5" d="M144.6 35.6l14.5 6.7-17.7 38.1-14.5-6.7z"/><path fill="#fbb598" fill-opacity=".7" d="M154.8 111.4l-3.9-3.8 18.6 27.4.5-33.1z"/><ellipse cx="57" cy="162" fill="#f4ffff" fill-opacity=".5" rx="17" ry="25"/><path fill="#f7e4c2" fill-opacity=".7" d="M26 2l-37 14L8-8z"/><circle cx="109" cy="146" r="24" fill="#7b8084" fill-opacity=".6"/><path fill="#fff" fill-opacity=".6" d="M214 153l-17 9 12-38z"/><ellipse cy="65" fill="#2c1000" fill-opacity=".8" rx="22" ry="35"/><path fill="#33241d" fill-opacity=".9" d="M145 111l19.9-10.2-10.3-3.7-.9 26.2z"/><path fill="#c68c7d" fill-opacity=".6" d="M188.9 52.7L188.6-2l-10.4 5.8L165.3-16z"/><circle r="1" fill="#faffff" fill-opacity=".3" transform="matrix(1.79903 -5.2846 26.18015 8.91245 222.1 106.3)"/><path fill="#6b666b" fill-opacity=".7" d="M117.4 73.4l-4.6-18.2 10.7 18.2 6.2 25.8z"/><ellipse cx="227" cy="51" fill="#535e68" fill-opacity=".4" rx="15" ry="55"/><path fill="#4b4045" fill-opacity=".5" d="M156 68.4l-5.3 20.4-11.6 2.9 29.6-51.2z"/><path fill="#e3fcff" fill-opacity=".5" d="M97 88l-31 23 16-36z"/><ellipse cx="133" cy="123" fill="#452a18" fill-opacity=".3" rx="188" ry="4"/><path fill="#b1bbba" fill-opacity=".7" d="M82.5 52.9L53.3 33.2 63.4-2.7l18 33.8z"/><path fill="#320d00" fill-opacity=".4" d="M145-16l34 67V18z"/><path fill="#716b51" fill-opacity=".5" d="M77 62L18 20l17 57z"/><path fill="#e9eeee" fill-opacity=".7" d="M98.9 124.6l-21.8 4.1-33.2 20L21.4 185z"/><path fill="#dbe1e2" fill-opacity=".9" d="M131.9-16l-3.8 46.5L151.4-16h22.7z"/><path fill="#2d1f00" fill-opacity=".3" d="M87.1-16l10.5 88.4-4.8-14.5-32.6-70.5z"/><path fill="#3e3f49" fill-opacity=".5" d="M101 72l8-7 5 28z"/><path fill="#b57a6e" fill-opacity=".4" d="M152-16l16 62-26-18z"/><path fill="#0a0000" fill-opacity=".4" d="M252 80L241 6l30-18z"/><path fill="#8d9898" fill-opacity=".6" d="M120.5-15.3l6.9 37.9-38.3 32.5 15.2-35.2z"/><path fill="#fcfbff" fill-opacity=".3" d="M174.9 81.2l63 41.6-56.8-64.6-18.5-12.4z"/><path fill="#7d4943" fill-opacity=".8" d="M192 145.5l-7.8-1.5 5.7-29.5 7.9 1.5z"/><path fill="#ffe1bf" fill-opacity=".5" d="M148 99l-58 2 54 14z"/><path fill="#300e02" fill-opacity=".6" d="M219.8-16h-32l4.5 60.8 18.7-2.5z"/><path fill="#8a8f96" fill-opacity=".7" d="M228.1 149.6l-7.6-5.4 50.5-17.8-7.8 7z"/><path fill="#edf3f4" fill-opacity=".4" d="M204.2 154.3l-7.6 10.2-16.2-4.7-18.6-34.9z"/><circle r="1" fill="#381a00" fill-opacity=".6" transform="matrix(-28.19922 25.1246 -16.7228 -18.76925 7.7 155.3)"/><path fill="#060000" fill-opacity=".4" d="M200.9 139.2l-12.4-30.6 4.6-1.8 12.4 30.6z"/><path fill="#502701" fill-opacity=".5" d="M-16 20L15 8l9 52z"/><path fill="#a3a1a1" fill-opacity=".9" d="M97.6 126.1l-23.2-6.5-2.1-4.8-15.4 15.8z"/><path fill="#080e16" fill-opacity=".6" d="M194.2 161.8l-11.5 20.1 25.5-26 55.9 18.9z"/><path fill="#5b595e" fill-opacity=".7" d="M132.5 88.4l2.1-1.6 29.3-14.5-28.8 26.5z"/><path fill="#4b2a08" fill-opacity=".6" d="M69 115l-43 47 32-65z"/><path fill="#975344" fill-opacity=".6" d="M168.4 131.5l.1-27 21.6 2.5-2.2 5.5z"/><path fill="#646363" fill-opacity=".5" d="M237 115l-52-58 25-10z"/></g></svg>