<svg xmlns="http://www.w3.org/2000/svg" viewBox="0 0 300 199"><defs/><path fill="#364f3b" d="M0 0h300v199H0z"/><g transform="translate(.6 .6) scale(1.17188)"><circle r="1" fill="#f5f5eb" fill-opacity=".6" transform="matrix(-50.19812 78.8937 -68.48086 -43.57268 43.1 29.9)"/><circle r="1" fill="#ddcad0" fill-opacity=".6" transform="matrix(-85.31254 -197.87042 41.69785 -17.97818 251.1 58.8)"/><path fill="#e3eadb" fill-opacity=".7" d="M239-16L132 24l-12-40z"/><path fill="#1d0006" fill-opacity=".3" d="M118-16L21 185l229-11z"/><ellipse cx="39" cy="17" fill="#fff" fill-opacity=".7" rx="52" ry="37"/><circle r="1" fill="#889d7c" fill-opacity=".7" transform="rotate(-124.8 45 49.8) scale(41.2347 55.11342)"/><circle r="1" fill="#00000a" fill-opacity=".7" transform="matrix(-14.53991 -34.23912 67.65779 -28.73141 150.5 151.4)"/><path fill="#170e0b" fill-opacity=".5" d="M94.5 21.7L107 28 87.5 66.3 75 60z"/><circle r="1" fill="#106625" fill-opacity=".4" transform="matrix(27.24684 7.0161 -10.29588 39.9838 10.6 115.8)"/><ellipse cx="53" cy="101" fill="#ffdee8" fill-opacity=".3" rx="19" ry="56"/><circle r="1" fill="#cfe0d3" fill-opacity=".3" transform="matrix(-2.54304 66.19726 -19.61426 -.7535 113.6 21.2)"/><circle r="1" fill="#d1d1d1" fill-opacity=".5" transform="matrix(-20.30571 -2.96228 5.1231 -35.11759 226.2 24.8)"/><ellipse cx="180" cy="77" fill="#180010" fill-opacity=".4" rx="22" ry="70"/><path fill="#86ac83" fill-opacity=".6" d="M135.9 102.3l20.3 7.5 8.9-18.9L155 76.1z"/><circle r="1" fill="#73696c" fill-opacity=".5" transform="matrix(41.34465 94.818 -11.00225 4.79744 230.6 119.7)"/><path fill="#eceeec" fill-opacity=".9" d="M97 .7l17.9 11.4L91.3 26 72 23.5z"/><path fill="#999d7b" fill-opacity=".7" d="M156.5 44.2l-46-60.2h10l42 44.3z"/><ellipse cx="165" cy="4" fill="#fcfcff" fill-opacity=".7" rx="22" ry="5"/><path fill="#3b2f2b" fill-opacity=".5" d="M97 65l-29 9 29-53z"/><path fill="#fcffff" fill-opacity=".4" d="M-33.5 109.2L9-13.7l24.6 8.5L-9 117.7z"/><path fill="#693f35" fill-opacity=".5" d="M100 80l35 33-103 49z"/><ellipse cx="70" cy="169" fill="#0f0d0b" fill-opacity=".9" rx="71" ry="12"/><path fill="#386708" fill-opacity=".2" d="M243 9h13v86h-13z"/><path fill="#b9bfae" fill-opacity=".7" d="M41.7 95L10.2 34 80 90.4l-47.5 64.4z"/><circle r="1" fill="#0e0e13" fill-opacity=".9" transform="rotate(-13.4 788.8 -775.6) scale(21.71676 94.44587)"/><path fill="#36683c" fill-opacity=".5" d="M-16 157.8L29.1 107l18.7-6-19.4 48.4z"/><path fill="#a3ab99" fill-opacity=".9" d="M-4.8 161.2l28.7-9.2 19 5.6-58.9 7.9z"/><path fill="#92b992" fill-opacity=".7" d="M28.3 121L-16 110.1l61.4-84.4-44 64.9z"/><path fill="#180103" fill-opacity=".4" d="M147 27l10 48-54 27z"/><path fill="#266229" fill-opacity=".4" d="M53.2-11.8L69-16 67.3 8l-8-3.9z"/><ellipse cx="72" cy="51" fill="#b7c5a9" fill-opacity=".6" rx="11" ry="9"/><path fill="#0f1d55" fill-opacity=".5" d="M53 152l95-41-39 36z"/><circle r="1" fill="#343138" fill-opacity=".6" transform="rotate(-106.8 147.9 -22.8) scale(50.31681 5.63769)"/><path fill="#a2a4a6" d="M235.5 4.5L180.3-16l8 22.4L213 20.5z"/><path fill="#2c2c25" fill-opacity=".3" d="M86.8 30.2l20.8-13-3.4 26.5-24.1 37.9z"/><path fill="#3b3873" fill-opacity=".4" d="M202.5 11.4L199.2 28l-17.7-3.5L184.8 8z"/><path fill="#76513c" fill-opacity=".4" d="M152 54l28-47-25 7z"/><circle r="1" fill="#8c9486" fill-opacity=".5" transform="matrix(22.74544 -71.54168 8.5638 2.72271 129.4 14)"/><path fill="#c0cac6" fill-opacity=".7" d="M211 37l33-53 5 38z"/><circle r="1" fill="#b7cbd4" fill-opacity=".2" transform="matrix(-16.01704 4.64013 -4.15288 -14.33514 236.4 110.6)"/><path fill="#f4f6fa" fill-opacity=".5" d="M31 58l28-2 19-71z"/><path fill="#b26157" fill-opacity=".3" d="M80.3 148.3v-.7l-50.9 14.9L54.1 108z"/><path fill="#04210f" fill-opacity=".4" d="M-16 126l50 1-43-14z"/><path fill="#152b1b" fill-opacity=".5" d="M9.6 155l-13.8-16.7 6.9-1.1 18.2 5.5z"/><path fill="#9bbf8f" fill-opacity=".7" d="M27.1 47.6L-3.3 87l44.1-15.3-6.8 22z"/><path fill="#699367" fill-opacity=".4" d="M129 89h33v15h-33z"/><path fill="#c6ebc1" fill-opacity=".3" d="M105 6l40 17 15-17z"/><path fill="#0a4823" fill-opacity=".4" d="M251 24.5l3.5-40.5H271v53.6z"/><path fill="#49723e" fill-opacity=".5" d="M82-16l37 5-6 18z"/><circle r="1" fill="#64655e" fill-opacity=".5" transform="matrix(-12.83628 -9.26623 19.90601 -27.57531 255 149.5)"/><ellipse cx="171" cy="54" fill="#3e261d" fill-opacity=".5" rx="22" ry="23"/><path fill="#82b984" fill-opacity=".5" d="M2 128.6l23.6 8.1-1.6 4.7-23.6-8.1z"/><path fill="#a29a84" fill-opacity=".4" d="M72.3 114.6l22.2-18.9-38-26.8 16.4-20z"/><circle r="1" fill="#e0c6c7" fill-opacity=".5" transform="rotate(-159.2 32 62.9) scale(3.5454 16.49937)"/><path fill="#10100d" fill-opacity=".9" d="M86.7 150.4l-65.8 12.4 200.9 10.1-12.8-39.7z"/><circle r="1" fill="#bbb296" fill-opacity=".3" transform="matrix(6.7626 9.76642 -25.26139 17.49181 234.1 47.7)"/><path fill="#bfcdba" fill-opacity=".6" d="M7.8 47.5l13.3-9.9 48.7 37.6-9.9 9.6z"/><path fill="#766f6a" fill-opacity=".5" d="M208 87l63 11-2-34z"/><path fill="#070b20" fill-opacity=".5" d="M183 129l4-40-116 67z"/><path fill="#759579" fill-opacity=".5" d="M263 3l-35 10 18 4z"/><path fill="#707067" fill-opacity=".4" d="M90 103.2l2.2-68.1 10.4 32.8 17.6 4.1z"/><path fill="#f0f0f1" fill-opacity=".5" d="M83.4 54.6L33.8-13l9.4 46.5L81.8-16z"/><path fill="#422a15" fill-opacity=".2" d="M58.3 110l9.8 27.1 1.9 14-14.9 27.7z"/><path fill="#edefee" fill-opacity=".9" d="M162.2 13.6l-2.3-1.1L147 8.4 216.2-16z"/><path fill="#f1f1f2" fill-opacity=".7" d="M0 65l-1-81 31 31z"/></g></svg>