<svg xmlns="http://www.w3.org/2000/svg" viewBox="0 0 300 199"><defs/><path fill="#5b4135" d="M0 0h300v199H0z"/><g transform="translate(.6 .6) scale(1.17188)"><ellipse cx="200" cy="55" fill="#e9f8fb" fill-opacity=".7" rx="178" ry="80"/><circle r="1" fill="#929c9d" fill-opacity=".6" transform="matrix(37.40872 -10.326 43.71397 158.36562 61 115)"/><path fill="#7e675c" fill-opacity=".6" d="M105.5 156L119 47l57.6 7L163 163.1z"/><circle r="1" fill="#e7f1f4" fill-opacity=".6" transform="matrix(-13.03394 33.28365 -54.69004 -21.41672 224.5 99)"/><circle r="1" fill="#ebf1ed" fill-opacity=".4" transform="matrix(17.9395 -62.82548 25.97833 7.41798 90.8 66.7)"/><circle r="1" fill="#372929" fill-opacity=".3" transform="matrix(-30.88069 -32.42792 19.01315 -18.10598 29 45.2)"/><path fill="#484836" fill-opacity=".8" d="M271 145l-153-27 87 67z"/><path fill="#fafefa" fill-opacity=".7" d="M159.3 153.3l-.9 5.9-31.7-4.5.9-5.9z"/><ellipse cx="53" cy="3" fill="#e1eef2" fill-opacity=".5" rx="255" ry="4"/><path fill="#e3eaeb" fill-opacity=".7" d="M271 15l-87 7-64-38z"/><path fill="#d9e5ea" fill-opacity=".6" d="M130.6 185l-66.2-28.1-11.6-1.7-.9 24z"/><path fill="#384324" fill-opacity=".4" d="M76 108h24v48H76z"/><path fill="#f0f4fa" fill-opacity=".5" d="M70 116h36v9H70z"/><circle r="1" fill="#010e0b" fill-opacity=".5" transform="matrix(-2.54076 -60.3558 8.74437 -.3681 11.3 158.1)"/><path fill="#2e1400" fill-opacity=".5" d="M174.7 43l-13.1 10.6 10.7 32.2 1.3-41.1z"/><circle r="1" fill="#bdbdbc" fill-opacity=".7" transform="matrix(-4.82503 21.42069 -12.69206 -2.8589 162.2 90.2)"/><path fill="#def7ff" fill-opacity=".6" d="M38.8 164l-8-4.6-4.1-8.1-6.1 10.4z"/><path fill="#73655c" fill-opacity=".6" d="M176.4 111.4l49-8-59.5 4-89.7 34.9z"/><path fill="#c9cfcd" d="M117.7 31.1l21.6 36.3.1-18.3 130.3-7z"/><ellipse cx="239" cy="28" fill="#718c97" fill-opacity=".4" rx="7" ry="88"/><ellipse cx="87" cy="16" fill="#9e9f94" fill-opacity=".7" rx="4" ry="85"/><path fill="#979597" fill-opacity=".5" d="M70 19L27 2l27 164z"/><path fill="#ecf3f5" fill-opacity=".4" d="M55.9 101.6l58.3-53.2 2.5 48.9-11.8 11.6z"/><circle r="1" fill="#5f5c5a" fill-opacity=".7" transform="matrix(11.51661 5.97148 -22.12356 42.6676 6.5 73.1)"/><path fill="#2d1205" fill-opacity=".5" d="M121 51.6l14.4 10.7-5.8-9.7-14 42.5z"/><path fill="#e4e9e9" d="M209.4 106.2l-30.8 6.6 6.5 15 85.9 10.1z"/><path fill="#5c5c56" fill-opacity=".7" d="M-3 126l56 29-15-35z"/><ellipse cx="49" cy="163" fill="#1d0c00" fill-opacity=".6" rx="3" ry="19"/><circle r="1" fill="#391300" fill-opacity=".5" transform="matrix(-.29645 -10.32532 4.53845 -.1303 149.4 69.1)"/><path fill="#9c9a9c" fill-opacity=".5" d="M46 103h32v39H46z"/><path fill="#71777c" fill-opacity=".5" d="M102.7 89h-3l-2.4-70h3z"/><path fill="#fcf9ef" fill-opacity=".5" d="M73 4h10v82H73z"/><path fill="#e3e7e6" fill-opacity=".5" d="M174 34h55v68h-55z"/><path fill="#604333" fill-opacity=".7" d="M97.5 180.1l24.3-60.4 36.1-7.8-34.1 35.8z"/><circle r="1" fill="#dbdddb" fill-opacity=".6" transform="matrix(-6.56234 -31.59458 2.83167 -.58815 161 67.8)"/><path fill="#e1e7e9" fill-opacity=".6" d="M92.2 100.7L95.4-16l5.4 149.9 15.8-18.7z"/><path fill="#38322a" fill-opacity=".3" d="M0 4h29v50H0z"/><ellipse cx="212" cy="26" fill="#818a90" fill-opacity=".6" rx="34" ry="5"/><path fill="#411903" fill-opacity=".3" d="M39.5 113l66.8 1.7L126 87.5l6.3 23z"/><path fill="#cfc9c2" d="M120.2 153.3l32.2 6.6 8.8-3.7-32.7-7.3z"/><path fill="#ab9783" fill-opacity=".6" d="M184 56.6l5 25.5-7 1.3-5-25.5z"/><path fill="#fff6ff" fill-opacity=".2" d="M129 86.5l-29.9 15.4 38.6-34 2.9 71.9z"/><path fill="#f2ffff" fill-opacity=".4" d="M140.3 26.2l58.5-4.8-58.5-7.9-59.9 4.2z"/><ellipse cx="89" cy="143" fill="#010e00" fill-opacity=".2" rx="87" ry="7"/><ellipse cx="235" cy="148" fill="#1c3f43" fill-opacity=".3" rx="2" ry="77"/><circle r="1" fill="#8b9191" fill-opacity=".5" transform="matrix(-1.38342 45.83018 -3.367 -.10164 126.5 12.7)"/><circle r="1" fill="#77807a" fill-opacity=".6" transform="rotate(-172.2 116.4 60.3) scale(53.94359 3.05996)"/><path fill="#8e5f4c" fill-opacity=".5" d="M97.3 118.8l78.2 7.8-31.5 8.9 10.1 18.9z"/><path fill="#b7b8bb" fill-opacity=".3" d="M193.8 167.4l6.2-9.1 18.2 12.3-6.2 9.1z"/><circle r="1" fill="#3a2215" fill-opacity=".6" transform="matrix(8.92348 6.38858 -7.44594 10.40038 159 141.3)"/><path fill-opacity=".5" d="M118 61h4v21h-4z"/><circle r="1" fill="#6e5141" fill-opacity=".7" transform="rotate(13.1 -168.3 662.4) scale(5.40715 7.91885)"/><path fill="#592200" fill-opacity=".2" d="M173.1 54.6l3.8 33.7-24.7-10.5 9.1 9.1z"/><path fill="#22261b" fill-opacity=".5" d="M211 151l47.8 5-1.8 17-47.8-5z"/><ellipse cx="8" cy="34" fill="#88898d" fill-opacity=".5" rx="3" ry="56"/><circle r="1" fill="#959592" fill-opacity=".6" transform="matrix(93.2667 14.58298 -.3195 2.04344 62.7 .7)"/><path fill="#a6b0b7" fill-opacity=".6" d="M182.3 118.5l.7 15.7-26.2-13.4-1.8-16.1z"/><ellipse cx="69" cy="45" fill="#f2f1e7" fill-opacity=".6" rx="2" ry="44"/><path fill="#59666a" fill-opacity=".5" d="M246.5 96.8l.3 2-53.3 8.4-.3-2z"/><path fill="#dce6e7" d="M214.1 17.4L256 21l-2.5-37-7.8 31.8z"/><path fill="#f0f7f7" fill-opacity=".5" d="M228 72l4.4 27.7L180 108l-4.4-27.7z"/><path fill="#9c9a9e" fill-opacity=".4" d="M61 75l13 71-61-83z"/><circle r="1" fill="#5c3424" fill-opacity=".6" transform="matrix(-1.0664 9.0038 -2.86367 -.33917 146.9 100.5)"/><path fill="#f0fbfe" fill-opacity=".5" d="M97 113h27v4H97z"/><path fill="#91989c" fill-opacity=".5" d="M85 28h97v6H85z"/></g></svg>