<svg xmlns="http://www.w3.org/2000/svg" viewBox="0 0 300 199"><defs/><path fill="#474747" d="M0 0h300v199H0z"/><g transform="translate(.6 .6) scale(1.17188)"><circle cx="92" cy="24" r="99" fill="#c9c9c9" fill-opacity=".5"/><circle r="1" fill="#d1d1d1" fill-opacity=".6" transform="rotate(-4.6 713.3 -2938) scale(22.22153 40.22723)"/><circle r="1" fill="#d5d5d5" fill-opacity=".5" transform="matrix(2.09361 -19.59044 52.55793 5.61682 196.4 127.7)"/><ellipse cx="36" cy="149" fill="#010101" fill-opacity=".7" rx="107" ry="28"/><ellipse cx="128" cy="47" fill="#1d1d1d" fill-opacity=".7" rx="17" ry="30"/><circle r="1" fill="#dedede" fill-opacity=".6" transform="matrix(11.5038 -1.97715 7.57418 44.06943 175.6 160.1)"/><circle r="1" fill="#e7e7e7" fill-opacity=".6" transform="matrix(4.3573 11.77931 -105.79207 39.13368 34.5 44)"/><circle r="1" fill="#020202" fill-opacity=".6" transform="matrix(-30.44834 27.78118 -8.4549 -9.26661 23.6 99.8)"/><path fill="#9a9a9a" fill-opacity=".6" d="M63.1 102.7l-14.3 42.4-14.8 3.4-9.5-52.6z"/><path fill-opacity=".6" d="M147 106l1-19-69 23z"/><path fill-opacity=".4" d="M183 15h32v96h-32z"/><circle r="1" fill="#343434" fill-opacity=".5" transform="matrix(2.6675 -13.79762 53.57847 10.35835 37.5 5.2)"/><circle r="1" fill="#e4e4e4" fill-opacity=".4" transform="matrix(-14.60037 3.3397 -17.35709 -75.8812 159.5 18.3)"/><path fill="#fff" fill-opacity=".5" d="M120 94l-32 9-9-92z"/><circle r="1" fill="#f7f7f7" fill-opacity=".6" transform="matrix(-.82968 4.26834 -83.268 -16.18566 18 21.2)"/><path fill="#f2f2f2" fill-opacity=".4" d="M242 18l-129-6 70-16z"/><path fill="#282828" fill-opacity=".6" d="M87.7 117.3l78.5 17.2-126.6-5.6 63.6-32.6z"/><path fill="#333" fill-opacity=".9" d="M130.7 163.7l2-76.9-13.8 17.2-4 65.3z"/><path fill="#121212" fill-opacity=".8" d="M271 109.5l-13.8 17-59.6-21.9-11.5-10.9z"/><path fill="#f7f7f7" fill-opacity=".6" d="M238.7 23.6l-31.5-10.3 27.3-4.4 25.1 8.8z"/><path fill="#1b1b1b" fill-opacity=".6" d="M179.6 36.5l21.1-31.7 34.1 23.3L271 14.5z"/><circle r="1" fill="#141414" fill-opacity=".4" transform="rotate(-176.2 60.8 15.5) scale(20.34507 12.81223)"/><path fill="#fff" fill-opacity=".5" d="M133.4 103.4l18.4 15.4-3.2 3.8-18.4-15.4z"/><path fill="#c3c3c3" fill-opacity=".6" d="M0 32h65v36H0z"/><ellipse cx="225" cy="151" fill="#555" fill-opacity=".8" rx="38" ry="15"/><path fill="#fbfbfb" fill-opacity=".5" d="M97 112l23-9-8 18z"/><path fill="#909090" fill-opacity=".5" d="M212 55h44v31h-44z"/><path fill-opacity=".7" d="M32 126L8 185-16 57z"/><circle r="1" fill-opacity=".6" transform="matrix(8.37415 15.13754 -61.4274 33.98189 57.3 161.1)"/><path fill="#232323" fill-opacity=".5" d="M59.4 32.3l16.9 5.2-92.3-9.9.2-3.7z"/><path fill="#fff" fill-opacity=".5" d="M73 36l68-26-25-7z"/><path fill="#1b1b1b" fill-opacity=".3" d="M182-1L79-16l49 22z"/><path fill="#4c4c4c" fill-opacity=".5" d="M89.2 68.8l-9 20.1-17.4-7.7 9-20.1z"/><path fill="#464646" fill-opacity=".9" d="M109.1 66.1L153 50.6l-12.6-23.1-15 62.6z"/><path fill="#565656" d="M197.8 120.1l-13.4-4.5 6.9-73-19.3 76.3z"/><path fill="#fff" fill-opacity=".5" d="M180 84v4l-62 2v-4z"/><path fill-opacity=".5" d="M14 7l21-4 19 10z"/><path fill="#fff" fill-opacity=".6" d="M139.3 25.6L143 7.9l11.7 2.5-3.7 17.7z"/><path fill="#c8c8c8" fill-opacity=".4" d="M76.8 102.5l-52.3 43.4 25.3-2.8-2.5-45z"/><path fill-opacity=".3" d="M118.4 73.4l47.9 44.7-50-23.5 30.2 89.6z"/><path fill="#010101" fill-opacity=".3" d="M-16 103.2l70.8-4.9L45.9 60-1 148z"/><path fill="#f7f7f7" fill-opacity=".3" d="M56.8 52.1l64.9 12.2-7.5-20.1-38.1 8.7z"/><path fill="#b6b6b6" fill-opacity=".6" d="M187 140l-38-51 19 79z"/><path fill="#efefef" fill-opacity=".5" d="M193.2 141.7l6.9-14.9 19.3 9.8-16 2.4z"/><path fill="#161616" d="M245.8 121.9l-25.1-40.3 50.3 60.1V185z"/><path fill="#f9f9f9" fill-opacity=".4" d="M89 75h30v15H89z"/><path fill="#181818" fill-opacity=".5" d="M163.7 147.2L167 175l-30.8 3.8L133 151z"/><path fill="#9f9f9f" fill-opacity=".9" d="M168.5 6.8l14.1 5.1.1 33.6-30.9-31.9z"/><path fill="#8c8c8c" fill-opacity=".5" d="M122.9 161.4l-.9-22.9-4.5 3.6-3.8 22.2z"/><circle r="1" fill="#b9b9b9" fill-opacity=".6" transform="matrix(9.45105 10.47704 -17.40174 15.69762 255 39.9)"/><path fill="#fff" fill-opacity=".6" d="M176.6-.2l16.6 3.6-1.8 8.8-16.6-3.6z"/><path fill="#5e5e5e" fill-opacity=".7" d="M42.4 77.4L18.5 90 6.8 106.6 5.1 76.2z"/><path fill="#bebebe" d="M192.7 121l-35.3-2.2-2.9 14.9 13.2-.6z"/><path fill="#010101" fill-opacity=".7" d="M0 145h115v25H0z"/><circle r="1" fill="#b2b2b2" fill-opacity=".5" transform="rotate(79.1 -14.8 154.3) scale(6.64226 3.44265)"/><circle r="1" fill-opacity=".6" transform="matrix(-5.53798 1.6563 -4.82377 -16.12868 126.5 141.4)"/><path fill="#242424" fill-opacity=".6" d="M209.9 12.3l-10.2-9.4 60.1-8.3 3.7 5.8z"/><path fill="#3e3e3e" fill-opacity=".4" d="M115.1 82.6l35.6-4.2 7.6-13L172.9 85z"/><path fill="#868686" fill-opacity=".5" d="M114 57.6L55.1 65l-4.8 16.5 59-13.7z"/><path fill="#222" fill-opacity=".6" d="M182 58l49-36-45-6z"/><circle r="1" fill="#a5a5a5" fill-opacity=".5" transform="matrix(-5.96911 8.01776 -24.47768 -18.22328 15.5 63.6)"/><path fill="#bcbcbc" fill-opacity=".4" d="M255 158.1l-23-32.8 5-3.4 23 32.8z"/><path fill="#1e1e1e" fill-opacity=".5" d="M218 171v-16h62v16z"/><path fill="#030303" fill-opacity=".2" d="M232.1 66l-19.5 46.3-52.3 31 74.7-37.7z"/><path fill="#e1e1e1" fill-opacity=".6" d="M167 173v-21l24 11z"/></g></svg>