<svg xmlns="http://www.w3.org/2000/svg" viewBox="0 0 300 196"><defs/><path fill="#364450" d="M0 0h300v196H0z"/><g transform="translate(.6 .6) scale(1.17188)"><circle r="1" fill="#fff9f0" fill-opacity=".7" transform="rotate(-3.3 671 -2323.8) scale(255 50.6564)"/><circle r="1" fill-opacity=".7" transform="matrix(-15.68522 30.59517 -16.08013 -8.2438 55.6 78.4)"/><ellipse cx="101" cy="148" fill="#000001" fill-opacity=".4" rx="206" ry="37"/><path fill="#ffeed7" fill-opacity=".6" d="M0 29h30v71H0z"/><path fill="#dedbd3" d="M112.7 88.5l89.2-64.9-105.8 6.3-23.9 65.7z"/><path fill="#323635" fill-opacity=".7" d="M136.1 66.5l-59.8 69L271 110 153 83.5z"/><circle r="1" fill="#050912" fill-opacity=".7" transform="matrix(6.6764 44.14562 -17.3568 2.62497 58.6 101.1)"/><circle r="1" fill="#d8d8d8" fill-opacity=".7" transform="matrix(-50.9148 -28.96097 9.37665 -16.4846 88.9 40.5)"/><circle cx="31" cy="40" r="26" fill="#dfe2e3" fill-opacity=".7"/><path fill="#192022" fill-opacity=".6" d="M255 76l16 107-89-99z"/><circle r="1" fill="#f8ead7" fill-opacity=".5" transform="rotate(171.5 72.3 37.8) scale(74.47653 7.02486)"/><path fill="#160f0e" fill-opacity=".5" d="M59 44l26 22-62 36z"/><path fill="#cad1d8" fill-opacity=".6" d="M70 0h135v59H70z"/><circle r="1" fill="#7898b0" fill-opacity=".5" transform="matrix(-50.4705 -19.4856 6.66513 -17.26365 228 0)"/><path fill="#fdddba" fill-opacity=".3" d="M75.8 115l29.1-97.3-33.3 73.7 35.5 20.5z"/><path fill="#de9f6b" fill-opacity=".4" d="M147.6 87l-1.4-12.9L290.4 59l1.4 12.9z"/><path fill="#9fa1a7" fill-opacity=".7" d="M115.5 19.2l1.3 2.8-52.2 10.7 21.9 13z"/><path fill="#a7aeb1" fill-opacity=".5" d="M42 104l-26 6 27 4z"/><path fill="#ffecaa" fill-opacity=".5" d="M68 75l48 13-36 5z"/><path fill="#4f4d49" fill-opacity=".7" d="M151.8 86.4l-31 13.8-6.6-14.6 31-13.8z"/><path fill="#fdad6a" fill-opacity=".4" d="M33.2 96.2l-10.4-8.5L-16 71.8v34.9z"/><path fill="#00020c" fill-opacity=".6" d="M50 59h13v109H50z"/><path fill="#394d5c" fill-opacity=".5" d="M74 116h178v6H74z"/><circle cx="46" cy="90" r="16" fill="#051424" fill-opacity=".6"/><circle r="1" fill="#dbdcd9" fill-opacity=".6" transform="rotate(-41.8 75.8 -16.5) scale(71.05666 20.08343)"/><path fill="#f5dabe" fill-opacity=".5" d="M149.8 73.6l35.9-12.4 4.5 13.2-35.9 12.4z"/><path fill="#b0c3d6" fill-opacity=".4" d="M-16-16H98L-16 65z"/><circle r="1" fill="#2e3631" fill-opacity=".5" transform="rotate(146.1 79.1 76.8) scale(31.97347 9.02344)"/><ellipse cx="123" cy="48" fill="#e5e2dc" fill-opacity=".6" rx="23" ry="29"/><path fill="#462a21" fill-opacity=".4" d="M71.4 80.7l-18.3-5.6 30.3-21.8L81 69.7z"/><ellipse cx="196" cy="107" fill="#646665" fill-opacity=".4" rx="61" ry="3"/><ellipse cx="96" cy="99" fill="#222320" fill-opacity=".5" rx="85" ry="3"/><path fill="#08090c" fill-opacity=".7" d="M36.6 71.8l30.7 45.5-6.5-67.9-21.6 18.7z"/><path fill="#dfcec0" fill-opacity=".5" d="M75.4 39.1l73.2 34.1-75.4-14.7-5.7 7.5z"/><circle r="1" fill="#2b333c" fill-opacity=".5" transform="matrix(4.39658 -30.13747 51.84537 7.56342 110 163.5)"/><circle r="1" fill="#abbdc9" fill-opacity=".5" transform="rotate(106.2 79.9 60) scale(13.19721 94.01979)"/><path fill="#8e7165" fill-opacity=".3" d="M232 60h24v15h-24z"/><ellipse cx="122" cy="110" fill="#5a5857" fill-opacity=".9" rx="38" ry="2"/><path fill="#040f19" fill-opacity=".4" d="M172 124h84v16h-84z"/><circle r="1" fill="#d2d0cc" fill-opacity=".6" transform="rotate(-93.5 121.7 -72.2) scale(21.85865 30.31604)"/><path fill="#9eb9d9" fill-opacity=".2" d="M81 114.2l-11.1-15 19.1 5.4 13.5 1.6z"/><ellipse cx="240" cy="93" fill="#171e18" fill-opacity=".5" rx="91" ry="6"/><path fill="#fae9cd" fill-opacity=".5" d="M72.2 89.8l49.3-6.6-29.6-26.8-18.6 23.1z"/><path fill="#eddeca" fill-opacity=".6" d="M-6.8 85.4l36.4 4.5L39.5 68l42.1-48.1z"/><path fill="#080c11" fill-opacity=".5" d="M140 111h111v3H140z"/><path fill="#56534f" fill-opacity=".8" d="M107.1 101.8l17.1-24 25.8-6.3-2.4 12.5z"/><path fill="#2e373d" fill-opacity=".9" d="M46.5 119.9l-48.2 2.5-3.9-24.9 9.9 7.6z"/><path fill="#20100b" fill-opacity=".6" d="M59 46h8v9h-8z"/><path fill="#f6e2c2" fill-opacity=".5" d="M134 67l-26 22-34-15z"/><path fill="#d6bda5" fill-opacity=".5" d="M184.9 82.8l73.6-27.6L181 66.7l-35.4 19.6z"/><ellipse cx="56" cy="128" fill="#0a151e" fill-opacity=".3" rx="150" ry="7"/><path fill="#553223" fill-opacity=".5" d="M75.4 61.4L69.2 84l15 19.7-12.6-8.9z"/><path fill="#6d8697" fill-opacity=".4" d="M262.5-3.9L230.2-.4l29.6 21.9L271 7.1z"/><circle r="1" fill="#ede6da" fill-opacity=".5" transform="matrix(1.07214 -9.5686 20.29836 2.27438 149.2 63.4)"/><path fill="#140705" fill-opacity=".5" d="M70 60h11v9H70z"/><ellipse cx="111" cy="62" fill="#9e8785" fill-opacity=".4" rx="8" ry="3"/><path fill="#0b1107" fill-opacity=".5" d="M246.1 74.9l19 1.3-1.2 17-19-1.4z"/><path fill="#e5e5e4" fill-opacity=".6" d="M63 44l1-21-50 37z"/><path fill="#f0efe5" fill-opacity=".4" d="M78 49.7l11-4.5 15 37.1-11 4.5z"/><path fill="#edc392" fill-opacity=".3" d="M28.4 100.9l6.8-33.6L34 84.9l-50-18.6z"/><path fill="#000410" fill-opacity=".7" d="M48.5 154.8l7.3-25.4 15.4 2.2-27.8 50z"/><path fill="#364047" fill-opacity=".6" d="M180.8 107.6l-.5-6 45-3.2.4 6z"/><path fill="#afa9ab" fill-opacity=".6" d="M170 43l6 11-16 3z"/><path fill="#888f99" fill-opacity=".5" d="M71 29h16v10H71z"/><path fill="#4d3a2c" fill-opacity=".5" d="M107 90l-40 7 36 7z"/></g></svg>