<svg xmlns="http://www.w3.org/2000/svg" viewBox="0 0 300 199"><defs/><path fill="#444" d="M0 0h300v199H0z"/><g transform="translate(.6 .6) scale(1.17188)"><path fill="#e4e4e4" fill-opacity=".5" d="M60.8-6.8l181-6.3 3.4 98-181 6.2z"/><circle r="1" fill="#020202" fill-opacity=".5" transform="matrix(-5.04813 -38.81556 137.36204 -17.8645 200 155.3)"/><circle r="1" fill-opacity=".8" transform="matrix(-14.39582 3.14385 -14.5873 -66.79597 42.8 23)"/><circle r="1" fill="#080808" fill-opacity=".6" transform="matrix(64.60032 -46.42376 18.81471 26.18134 0 144.2)"/><circle r="1" fill="#fafafa" fill-opacity=".5" transform="matrix(2.92021 6.24193 -26.7786 12.52805 69.3 148.4)"/><path fill="#eaeaea" fill-opacity=".3" d="M225-16L48 5l166 35z"/><path fill="#474747" fill-opacity=".5" d="M80 61h173v15H80z"/><path fill="#e5e5e5" fill-opacity=".5" d="M20.1 59.6L38.6 55l5.3 21.4L25.4 81z"/><circle r="1" fill="#3d3d3d" fill-opacity=".9" transform="matrix(-9.771 .27293 -.25608 -9.16781 235 22)"/><ellipse cx="75" cy="67" fill="#2b2b2b" fill-opacity=".3" rx="19" ry="48"/><circle r="1" fill="#d5d5d5" fill-opacity=".2" transform="matrix(-51.91614 21.60113 -7.23383 -17.3858 164.1 78)"/><path fill="#838383" fill-opacity=".5" d="M0 0h23v50H0z"/><ellipse cx="40" cy="19" fill-opacity=".9" rx="17" ry="39"/><path fill-opacity=".6" d="M13 47l-25 43 35-22z"/><ellipse cx="80" fill="#fff" fill-opacity=".5" rx="25" ry="13"/><path fill="#090909" fill-opacity=".9" d="M130 179L-7 149l13 36z"/><ellipse cx="177" cy="79" fill="#f5f5f5" fill-opacity=".6" rx="56" ry="3"/><path fill="#0c0c0c" fill-opacity=".4" d="M223 54l-38 21h38z"/><path fill="#fafafa" fill-opacity=".4" d="M101.2 44.7l-11.8 2-6.6-37.4 11.8-2z"/><path fill="silver" fill-opacity=".5" d="M67.6 158.1l-20.2 6.4L33.3 151l30 1.2z"/><path fill="#090909" fill-opacity=".3" d="M174.9-16l-12.8 74.2-10.7-2.3 24.5-44.4z"/><path fill="#5d5d5d" fill-opacity=".7" d="M237 12h19v74h-19z"/><path fill="#828282" fill-opacity=".6" d="M179.3-12.2l-4 32.8-68.6-8.4 4-32.8z"/><path fill-opacity=".5" d="M87 45h7v34h-7z"/><circle cx="107" cy="43" r="7" fill="#202020" fill-opacity=".5"/><path fill="#f9f9f9" fill-opacity=".5" d="M112 11.7l55.4 12.8-1.3 5.8-55.5-12.8z"/><path fill="#373737" fill-opacity=".4" d="M114 55h29v23h-29z"/><path fill="#a1a1a1" fill-opacity=".5" d="M165 18h52v51h-52z"/><path fill="#c3c3c3" fill-opacity=".5" d="M118 39L92 82l50-44z"/><path fill-opacity=".5" d="M161 72h55v3h-55z"/><path fill="#dedede" fill-opacity=".6" d="M206.8 40.2l30-11 2.4 6.6-30 11z"/><path fill="#343434" fill-opacity=".8" d="M271 103L68 114l51 41z"/><circle r="1" fill="#292929" fill-opacity=".9" transform="matrix(.261 -27.35247 26.57202 .25356 53.9 118)"/><path fill-opacity=".2" d="M135.6 35.3l36.5 27.3L147.3 26-16 16.7z"/><circle r="1" fill="#636363" fill-opacity=".5" transform="matrix(-60.06124 .94352 -.0903 -5.7478 191.1 89.1)"/><circle r="1" fill="#fff" fill-opacity=".5" transform="matrix(21.69363 -6.0269 .79562 2.8638 204.5 12.8)"/><path fill="#afafaf" fill-opacity=".5" d="M72 53h12v23H72z"/><path fill="#383838" fill-opacity=".5" d="M211 43l-29-14 22 20z"/><circle r="1" fill="#9c9c9c" fill-opacity=".4" transform="matrix(9.48294 25.63572 -5.41618 2.0035 24 50.6)"/><path fill="#2c2c2c" fill-opacity=".7" d="M230.4 73.9l12.6-6.8 26.7 26.4-.2 5z"/><path fill="#d0d0d0" fill-opacity=".5" d="M121 66h10v8h-10z"/><path fill="#777" fill-opacity=".7" d="M94.1 12.5L134.3-16l11 9.1-33 22z"/><path fill="#cecece" fill-opacity=".5" d="M139.6 64.6l21 .8-.2 8-21-.8z"/><path fill="#b8b8b8" fill-opacity=".8" d="M89.6 143.8l-15.8-5 10.5-8.6 6.4 8.4z"/><circle r="1" fill="#8f8f8f" fill-opacity=".5" transform="matrix(7.19036 2.89374 -11.10413 27.59154 237.6 48.5)"/><path fill="#0a0a0a" fill-opacity=".3" d="M-5-6l-9 27 42 3z"/><path fill="#222" fill-opacity=".6" d="M86.4 76.3l34.8-3.6.4 3-34.8 3.6z"/><path fill="#cfcfcf" fill-opacity=".3" d="M72.1 40.4l25.4-21.1 67.2-29.5-90.6 58.1z"/><circle r="1" fill="#bdbdbd" fill-opacity=".6" transform="rotate(149.4 109.2 37.2) scale(62.53494 2.92375)"/><path fill="#575757" fill-opacity=".5" d="M60 13h11v45H60z"/><path fill="#8e8e8e" fill-opacity=".5" d="M22.1 80.2l-1-7L46 69.9l1 7z"/><path fill="#737373" fill-opacity=".5" d="M104 84.9l-85.7-.3 84.2 11.3 140.7-11.3z"/><circle r="1" fill="#020202" fill-opacity=".3" transform="rotate(-20 577.7 -596.9) scale(81.65061 20.89174)"/><path fill="#fff" fill-opacity=".6" d="M4.2-4L20.7.1l-1 3.9L3.4-.1z"/><path fill="#020202" fill-opacity=".3" d="M111.1 83.6l7.1-19.9-4-10.8 14 2z"/><path fill="#d1d1d1" fill-opacity=".5" d="M143.5 44.7l-26.3-6.3 12.1 19.8 1 2.6z"/><path fill="#b9b9b9" fill-opacity=".7" d="M182.7-16l4.3 58.6 13.2 4.5-24.6 10z"/><circle cx="230" cy="22" r="5" fill-opacity=".6"/><circle r="1" fill-opacity=".4" transform="matrix(1.31918 -6.85762 5.40096 1.03897 218.5 64.7)"/><path fill="#090909" fill-opacity=".2" d="M213.1 17.9l6.3-5.9-43 14.6 13.1.9z"/><path fill-opacity=".7" d="M14.9 52.5l-9.7-3.9-.6 28.9 19.3-12.3z"/><path fill="#393939" fill-opacity=".4" d="M235.9 47.8l8.4-35.9-59.4 33.8 71.8-50.6z"/><path fill="#a6a6a6" fill-opacity=".5" d="M113.8 72.6l-18.5 4.5-.3-31.6 21.8 10.8z"/><path fill="#dadada" fill-opacity=".7" d="M219.8 47.6l-9.5 3.1-4-12.3 9.4-3.1z"/><path fill="#4c4c4c" fill-opacity=".3" d="M56 96h132v26H56z"/></g></svg>