<svg xmlns="http://www.w3.org/2000/svg" viewBox="0 0 300 199"><defs/><path fill="#4a342b" d="M0 0h300v199H0z"/><g transform="translate(.6 .6) scale(1.17188)"><circle r="1" fill="#e8e7e7" fill-opacity=".6" transform="rotate(-50 181.5 -136.1) scale(225.23142 119.25292)"/><circle r="1" fill="#edf2fb" fill-opacity=".6" transform="matrix(44.75388 48.44526 -37.1522 34.32131 226.6 66.7)"/><circle r="1" fill="#85695c" fill-opacity=".8" transform="matrix(-36.61695 42.86252 -61.7106 -52.71865 90.2 24.5)"/><circle r="1" fill="#80746a" fill-opacity=".6" transform="matrix(28.38817 34.09579 -85.30251 71.02291 44.3 117)"/><circle r="1" fill="#fbfefe" fill-opacity=".5" transform="rotate(-69.6 118.1 -122.5) scale(21.94195 42.6337)"/><circle cx="191" cy="125" r="44" fill="#bbb8bb" fill-opacity=".7"/><path fill="#745246" fill-opacity=".7" d="M26.2 19l140.5 46.7 11.6-22.6-4.1-4.4z"/><path fill="#b59fa7" fill-opacity=".7" d="M-6.1-16L26.1-2.5l30.2 16.1-22 12.4z"/><path fill="#edf7ff" fill-opacity=".3" d="M158.4-16L98.5 26.7 54.4 14.6 120.1-16z"/><circle r="1" fill="#151c21" fill-opacity=".5" transform="matrix(8.04956 2.75985 -2.56044 7.46795 191.7 145)"/><path fill-opacity=".5" d="M136 143h15v14h-15z"/><circle r="1" fill="#615956" fill-opacity=".5" transform="matrix(-4.53244 -4.6365 38.54686 -37.68167 124.4 129.4)"/><circle r="1" fill="#c7bfbb" fill-opacity=".6" transform="rotate(40.7 -136 210.5) scale(71.56573 8.37824)"/><path fill="#000c19" fill-opacity=".6" d="M220 159h16v11h-16z"/><path fill-opacity=".7" d="M18.3 173.8L7.5 172l2.2-13.9 10.8 1.7z"/><path fill-opacity=".5" d="M156 124h13v9h-13z"/><path fill="#785648" d="M112.5 80.1l-8.9-51.7 16.1-16.5 26.7 79.5z"/><circle r="1" fill="#000c10" fill-opacity=".7" transform="matrix(5.5336 -5.46632 3.98008 4.02907 53.2 161.1)"/><path fill="#001624" fill-opacity=".6" d="M213 115.5l2.6 9.6-12.6 3.4-2.6-9.6z"/><path fill="#2b3b4a" fill-opacity=".6" d="M271 108.1l-24.7 3-1.4.1 26.1 32.2z"/><circle cx="243" cy="139" r="8" fill="#1e3644" fill-opacity=".7"/><path fill="#bab0ab" fill-opacity=".8" d="M99.1 106.3L121 82.4l10.9 2.5L136 137z"/><path fill-opacity=".5" d="M91 150h12v12H91z"/><circle r="1" fill="#1d0d03" fill-opacity=".9" transform="matrix(1.42849 -5.98808 9.6289 2.29703 55.7 4)"/><path fill="#f2f2f6" fill-opacity=".4" d="M159.1 70.5l58.2-49.2 22.9 58.4-91 15.4z"/><path fill="#3f2a18" fill-opacity=".5" d="M68 56L15 80l46-42z"/><path fill="#b9b2ad" fill-opacity=".6" d="M73.3 164.5l-47.9-50.9 36.2 15.6 12.9-5.1z"/><path fill="#c4c2bf" fill-opacity=".4" d="M57 73l25-31 17 70z"/><circle r="1" fill="#dbd5da" fill-opacity=".4" transform="matrix(-4.9301 8.96413 -65.4921 -36.01934 223.7 145.6)"/><path fill="#000505" fill-opacity=".7" d="M74.2 132.3l10 .4-.4 9-10-.4z"/><circle r="1" fill="#b7b2a9" fill-opacity=".4" transform="matrix(-47.20672 -69.25063 7.19346 -4.90363 24.3 146)"/><circle r="1" fill="#031114" fill-opacity=".7" transform="rotate(-131.6 52.4 61.7) scale(4.62939 7.0487)"/><path fill="#000207" fill-opacity=".6" d="M125.5 104.6l-9.8 1.7-1.2-6.9 9.8-1.7z"/><path fill="#05120f" fill-opacity=".4" d="M24.5 107.1l-10.2 17.2 27.7-1.4-14.8 13.9z"/><path fill="#fae5d6" fill-opacity=".4" d="M130 28v28l14-41z"/><path fill="#782f0e" fill-opacity=".4" d="M93.4 78.4L77.5 24.9l24.9 22.8-.3 65z"/><path fill="#041f38" fill-opacity=".3" d="M228.7 79.8l15.5 4.9-30.6 17.2 16.5 6.4z"/><path fill="#d3d3da" fill-opacity=".5" d="M112.6 61.1l-18.3 7.6 27.9-16.9-12-15.8z"/><path fill="#474c48" fill-opacity=".6" d="M66 129.8L21 83.1l5-5L71 125z"/><path fill-opacity=".6" d="M164 165h15v5h-15z"/><path fill="#6d5446" fill-opacity=".5" d="M143.3 102.4l45.2 1.9-6.8 12.7L141 80.1z"/><path fill="#3e2e1c" d="M63.7 26l-36.2 9.3L-16-9.8l41.6 56.6z"/><path fill="#1b0f20" fill-opacity=".4" d="M136 41l34 7-21 21z"/><circle r="1" fill="#0e191a" fill-opacity=".8" transform="matrix(-12.16827 6.22682 -1.83094 -3.57798 0 149.2)"/><path fill="#b1a8a2" fill-opacity=".8" d="M-10.1 128.3l63-12 38.5-30.6-14.7 32z"/><circle cx="102" cy="118" r="5" fill-opacity=".5"/><ellipse cx="228" cy="2" fill="#575822" fill-opacity=".2" rx="33" ry="11"/><path fill="#df9f88" fill-opacity=".4" d="M136.6 71.4l21.8-23.3-31.7 7.6 5.5-71.7z"/><path fill-opacity=".6" d="M125 138l-8.9 1-1.2-11 9-1z"/><path fill-opacity=".5" d="M134 111h9v8h-9z"/><path fill="#312518" fill-opacity=".4" d="M49.9 59.6l1.8 29.5 26 8.1-8.4 6.1z"/><circle r="1" fill="#e3dcdf" fill-opacity=".4" transform="matrix(-77.0722 96.91055 -6.33943 -5.0417 181 127.6)"/><path fill="#948178" fill-opacity=".8" d="M66 42l45-58-55 30z"/><path fill="#150900" fill-opacity=".3" d="M112.1 99.1l-27.9 13.1-33.5-41.3 25 34z"/><path fill="#7b7165" fill-opacity=".9" d="M32.5 46.6L86 83.2 52.3 47.9 62 28.4z"/><path fill="#b8aa9e" fill-opacity=".5" d="M15.3 126.3l68-47.6 3.4 5-68 47.6z"/><path fill="#22230d" fill-opacity=".3" d="M-16 116.5l44.5-10.8-12.9-19.6L27.8-16z"/><path fill="#e8eaee" fill-opacity=".4" d="M177.2 4.7l42.3 33.4-88.1-13.2 32.2 15z"/><path fill="#b8acb8" fill-opacity=".4" d="M23 0h17v29H23z"/><path fill="#e1dde1" fill-opacity=".5" d="M146-15l-39 36 10-37z"/><path fill="#e9e9ea" fill-opacity=".4" d="M150.6 108.9l112-97.6-101.2 42.8 30.9 47z"/><path fill="#bcafa6" fill-opacity=".5" d="M-16.6 175l-3.5-5 132.7-93 3.5 5z"/><path fill="#d8d2d4" fill-opacity=".5" d="M124.1 125.8L97.7 132l37.9-39.1 8.3 1.3z"/><path fill="#19170d" fill-opacity=".4" d="M119.2 84.1l11.6-7-17.9-10.4-9.6-47.2z"/><path fill="#653622" fill-opacity=".5" d="M125.3 6.6l1.3 8.8-1.4 42-20.6-31z"/></g></svg>