<svg xmlns="http://www.w3.org/2000/svg" viewBox="0 0 300 199"><defs/><path fill="#644538" d="M0 0h300v199H0z"/><g transform="translate(.6 .6) scale(1.17188)"><circle r="1" fill="#cfe0e3" fill-opacity=".7" transform="matrix(-25.31157 161.63631 -142.09371 -22.25128 26.1 48)"/><circle r="1" fill="#120f17" fill-opacity=".8" transform="matrix(19.51284 -14.7049 18.29236 24.27327 115.9 75.9)"/><path fill="#cee7e6" fill-opacity=".6" d="M256-28.5l41.8 94.1-55.7 24.9-42-94.1z"/><circle r="1" fill="#00010a" fill-opacity=".8" transform="matrix(63.37404 -36.04433 19.54863 34.3709 202 145.3)"/><circle r="1" fill="#f4fefc" fill-opacity=".7" transform="matrix(-55.40962 109.27093 -44.44206 -22.53589 40.7 29.4)"/><ellipse cx="152" cy="34" fill="#917e6c" fill-opacity=".6" rx="24" ry="94"/><circle r="1" fill="#050800" fill-opacity=".5" transform="matrix(18.58557 6.122 -12.63228 38.34989 202.8 61.5)"/><circle r="1" fill="#6d6f69" fill-opacity=".5" transform="rotate(-29.1 307.7 -57.6) scale(39.04727 19.20235)"/><circle r="1" fill="#8cac9d" fill-opacity=".9" transform="matrix(-20.10359 1.15917 -1.1607 -20.13021 74.6 82)"/><circle r="1" fill="#bbbdad" fill-opacity=".5" transform="matrix(-78.68244 44.7653 -5.37614 -9.44945 195.3 14.2)"/><circle r="1" fill="#034ea3" fill-opacity=".3" transform="rotate(121 28.6 108) scale(33.90369 18.38827)"/><circle r="1" fill-opacity=".6" transform="matrix(-7.77086 23.8339 -12.18515 -3.97287 108.2 76)"/><path fill="#c5aa9a" fill-opacity=".9" d="M169.3 113.5l-2.8 4.5 17.4-9.9L140.1 67z"/><path fill="#9fc1bf" fill-opacity=".5" d="M246.5 58.1l-18.8 35.3-14.2-7.5 18.8-35.3z"/><path fill-opacity=".5" d="M90 46h17v16H90z"/><path fill="#e8dcce" fill-opacity=".4" d="M242 148h13v22h-13z"/><circle r="1" fill="#f2f2f9" fill-opacity=".6" transform="matrix(1.86909 28.20155 -32.4207 2.14871 33 101.4)"/><path fill="#fff9fa" fill-opacity=".4" d="M116.6-13.2l7.9 76.3 34.1-46-9.6 60.7z"/><path fill="#fffbef" fill-opacity=".6" d="M2 149h34v21H2z"/><circle r="1" fill="#7b5230" fill-opacity=".6" transform="rotate(-103.1 106.6 -34.3) scale(29.2204 8.44778)"/><path fill="#f8f3f9" fill-opacity=".5" d="M122 52L34 22l63-38z"/><path fill="#e3f0ff" fill-opacity=".6" d="M106 107h10v63h-10z"/><path fill="#03448f" fill-opacity=".5" d="M73.7 126.2l41.5-4.2 17.7 27.2-7.3-28.2z"/><path fill="#b9bbb4" fill-opacity=".5" d="M259 47l-74-31 69-16z"/><path fill="#2a1e14" fill-opacity=".5" d="M178 26h36v77h-36z"/><ellipse cx="243" cy="113" fill="#161d2a" fill-opacity=".6" rx="15" ry="30"/><path fill="#67471d" fill-opacity=".3" d="M131.8-1.7l3.6 58.9L150 20l-.8-35.9z"/><circle r="1" fill="#2c578b" fill-opacity=".4" transform="matrix(7.1025 -3.44267 10.17097 20.98352 138.6 75.6)"/><circle r="1" fill="#e8ddd9" fill-opacity=".5" transform="matrix(.4698 6.89118 -43.06113 2.93561 106.4 110)"/><path fill="#e9eced" fill-opacity=".8" d="M94.5 93.6l-3.5-26-7.4-40.5L62.4-16z"/><ellipse cx="81" cy="90" fill="#58705b" fill-opacity=".5" rx="10" ry="20"/><path fill="#78ace1" fill-opacity=".6" d="M117.1 185l20.7-31.6-19.4-23.9-6.7 7.4z"/><path fill="#543213" fill-opacity=".5" d="M136 108h33v11h-33z"/><path fill="#0e090e" fill-opacity=".5" d="M146 91l-48 11-6-59z"/><circle r="1" fill="#070709" fill-opacity=".6" transform="matrix(16.30635 -33.93162 31.1398 14.9647 175.6 156)"/><path fill="#d8d6d2" fill-opacity=".6" d="M36.6 145.2l-25.5 17.2 50.4-17.7 51.5-18.9z"/><path fill="#352f03" fill-opacity=".3" d="M83.7 120.1l13.1-4.5-2.2 12.8-50.3 10.4z"/><circle r="1" fill="#402c1f" fill-opacity=".5" transform="rotate(22.5 -7.7 532) scale(25.60745 19.26789)"/><circle r="1" fill="#999b84" fill-opacity=".5" transform="matrix(15.78779 25.3115 -14.95807 9.32994 203.1 0)"/><path fill="#957e70" fill-opacity=".7" d="M239.1 143.8l31.9 24.7v-5.3l-33.1-11.6z"/><path fill="#acd3b0" fill-opacity=".5" d="M6 67.7L2.2 47 18 44.3 21.7 65z"/><path fill="#f2b88a" fill-opacity=".3" d="M179.1 92.4L127 124.3l2.6-29.7 17.7.1z"/><circle r="1" fill="#555e61" fill-opacity=".5" transform="rotate(159.9 20.3 80.2) scale(33.57278 4.57104)"/><path fill="#dee5f3" fill-opacity=".5" d="M104.5 97.4l-4.4 46.2-4.4-25.4 30.7 31z"/><path fill="#59593c" fill-opacity=".5" d="M193.6 10.6L179.2-4.2 155 34.4l21-15.7z"/><path fill="#0a080a" fill-opacity=".7" d="M169 116l66 69 11-29z"/><circle r="1" fill="#a0a6a6" fill-opacity=".5" transform="matrix(-19.03254 -12.31729 7.53834 -11.64816 244.4 70.7)"/><path fill="#fde6da" fill-opacity=".5" d="M150.7 64l5.6 31.5-3 .5-5.6-31.5z"/><path fill="#a9c9b1" fill-opacity=".5" d="M37 35L24 7 41-3z"/><path fill="#d0d2e9" fill-opacity=".5" d="M27.7 123.9l-9.5-15.1 101.1-2.6-58.9 20.7z"/><path fill="#2e1e19" fill-opacity=".7" d="M223 102.4l-35.7 9.6-4.4-16.4 35.8-9.6z"/><path fill="#f1f3ff" fill-opacity=".2" d="M153.2-16l-.9 35 26.1 1.9-8.1 21.5z"/><path fill="#54667b" fill-opacity=".5" d="M142 94l4-32-26-3z"/><path fill="#c6c4cc" fill-opacity=".7" d="M118.5-16l-17.7 60.2L135 58.7 89.8 9.9z"/><path fill="#fff" fill-opacity=".5" d="M169 107h10v8h-10z"/><circle r="1" fill="#c7cfd3" fill-opacity=".6" transform="matrix(-24.56374 21.07546 -2.78539 -3.24641 59.8 68.8)"/><path fill="#cbc8ba" fill-opacity=".8" d="M.4 136.5l17.5-4.6-.3 49.6-27.8 3.5z"/><path fill="#f3f2f0" fill-opacity=".5" d="M148.2 80.6l-6.3-44.7 7.5-7.7 3.1.5z"/><path fill="#fffce7" fill-opacity=".5" d="M133 112h2v41h-2z"/><circle r="1" fill="#1c4e88" fill-opacity=".5" transform="matrix(2.34184 -.36075 4.10975 26.67851 129.6 142.4)"/><path fill="#9e8f60" fill-opacity=".3" d="M61.4 120.4l6.3 19.5-54.7 10 28.9-25.4z"/><path fill="#c6cfe8" fill-opacity=".5" d="M68 156l28-7 16 36z"/><path fill="#32d7f0" fill-opacity=".6" d="M7 77l-7 6-16-15z"/><circle r="1" fill="#6c6d7a" fill-opacity=".6" transform="matrix(.9905 -.13744 10.09393 72.74303 98.5 110.7)"/><path fill="#624c36" fill-opacity=".4" d="M194.3 66.9l1.7-19-40.3 1.6 21.6 35.4z"/></g></svg>