<svg xmlns="http://www.w3.org/2000/svg" viewBox="0 0 300 199"><defs/><path fill="#574f30" d="M0 0h300v199H0z"/><g transform="translate(.6 .6) scale(1.17188)"><ellipse cx="107" fill="#e7d2b8" fill-opacity=".6" rx="22" ry="116"/><circle r="1" fill-opacity=".6" transform="rotate(9.8 -840.7 529.3) scale(15.67671 101.71928)"/><circle cx="199" cy="84" r="82" fill="#1c4a60" fill-opacity=".5"/><path fill="#faddd5" fill-opacity=".5" d="M182 0h64v30h-64z"/><circle r="1" fill="#041315" fill-opacity=".7" transform="matrix(-.7915 -22.8668 118.10601 -4.08808 171.8 135.3)"/><circle r="1" fill="#c8976e" fill-opacity=".6" transform="rotate(-100 11.8 -5) scale(36.27411 205.71518)"/><path fill="#beb0a1" fill-opacity=".6" d="M193.8 79.4l-89 14-2.6-16.8 89-14z"/><path fill="#fcc67c" fill-opacity=".6" d="M88.1 62l-28 34.9L81 36.3 126-16z"/><path fill="#dbb7a8" fill-opacity=".5" d="M224 160l-116-1 93 26z"/><ellipse cx="24" cy="110" fill="#611b00" fill-opacity=".5" rx="45" ry="63"/><path fill="#2e0800" fill-opacity=".6" d="M200.4 10.3l19.4-18.8 11.8 12.2-19.4 18.8z"/><ellipse cx="204" cy="54" fill="#000600" fill-opacity=".6" rx="22" ry="16"/><ellipse cx="123" cy="103" fill="#c9b095" fill-opacity=".3" rx="31" ry="28"/><circle r="1" fill="#9a521c" fill-opacity=".5" transform="matrix(-25.8415 93.23817 -12.16255 -3.37092 64.6 48.8)"/><circle r="1" fill-opacity=".6" transform="rotate(-158.5 49 45.8) scale(14.30913 53.49455)"/><circle cx="255" cy="103" r="60" fill="#05505e" fill-opacity=".5"/><path fill-opacity=".4" d="M130.3 32.7l-1.4-20 48.8-3.4 1.4 20z"/><ellipse cx="84" cy="161" fill="#a3724f" fill-opacity=".7" rx="47" ry="5"/><circle r="1" fill="#ebf7f4" fill-opacity=".5" transform="matrix(6.36415 1.59619 -7.05705 28.13706 190.6 8)"/><path fill="#329595" fill-opacity=".6" d="M264 33l-24 41.5L220 63l24-41.5z"/><path fill="#120900" fill-opacity=".6" d="M114 75l19 48 12-22z"/><circle r="1" fill="#eef5f6" fill-opacity=".6" transform="matrix(-2.95845 6.34442 -7.5618 -3.52613 37.2 25.1)"/><path fill="#e1ecf0" fill-opacity=".5" d="M122.6 75l-15.8 2.5-5.4-34.5 15.8-2.5z"/><path fill="#817f73" fill-opacity=".9" d="M130.6 69.9l67.2 39.8-1.2-6.1-8-32.8z"/><ellipse cx="106" cy="141" fill-opacity=".7" rx="52" ry="12"/><path fill="#071112" fill-opacity=".6" d="M188 92l8 70-79-15z"/><path fill="#fff" fill-opacity=".6" d="M230 7h26v5h-26z"/><path fill="#060603" fill-opacity=".9" d="M56.8 117.7l29 44.8L99.2 44.9l8.4-18.4z"/><path fill="#481d00" fill-opacity=".7" d="M66.7 47.6L34.2 10.4l2.5-8.1 40.1 52.8z"/><path fill="#25343d" d="M151.6 74.6l8.5 6.2-1.5-26.7-42-6.9z"/><path fill="#fcf5dc" fill-opacity=".6" d="M93 23l43 13-23-20z"/><path fill="#b6a78a" fill-opacity=".7" d="M127.7 13.2l41.5-2.5L159-16 94.9 1.8z"/><path fill="#7e5128" fill-opacity=".8" d="M194.4 163.9l1.4-11 25.8 3.2-1.4 11z"/><circle r="1" fill="#b0c7ca" fill-opacity=".5" transform="matrix(-24.45845 7.4442 -2.38703 -7.84275 14.5 0)"/><path fill="#bfd1c5" fill-opacity=".3" d="M131.3 125.1l-32.2-15.4-3.7-31.9 15.6-1.6z"/><path fill="#fffdff" fill-opacity=".4" d="M189 91v18l12 2z"/><ellipse cx="13" cy="41" fill="#aeaa92" fill-opacity=".6" rx="11" ry="10"/><path fill="#866e57" fill-opacity=".9" d="M171.4 104.2l-4.9-2.6-2.7-36.8-5.5 55.8z"/><path fill="#803700" fill-opacity=".6" d="M100.6 33l17.7-2.9 1.1 7-17.7 2.8z"/><ellipse cx="255" fill="#372717" fill-opacity=".8" rx="29" ry="5"/><path fill="#1e0807" fill-opacity=".5" d="M121 43h14v30h-14z"/><path fill="#f6eaf0" fill-opacity=".3" d="M145.5 67.3l6.5 10.1-23.5 15.3-6.5-10.1z"/><path fill="#673915" fill-opacity=".7" d="M69.8 50.1l-23 27.8-25-41.9L7.6 21.9z"/><path fill="#bee3fe" fill-opacity=".3" d="M204 169.6l-17.7-8.4-27.2-2.9-44.5 5.5z"/><path fill="#3d1d00" fill-opacity=".6" d="M27 64l-43-13L4 185z"/><path fill="#755d32" fill-opacity=".6" d="M206 24l-26 21 64-17z"/><path fill="#d3d6cb" fill-opacity=".6" d="M212.9 27.3L247-9.1l-9.6 12.5 7.3 13z"/><path fill="#8e5225" fill-opacity=".6" d="M126.6 150.3L8.1 172.9l168.7-7.1-47.9 19.2z"/><circle r="1" fill="#80470c" fill-opacity=".5" transform="rotate(70.6 33 60.8) scale(11.83015 18.84552)"/><ellipse cx="138" cy="124" fill="#aab682" fill-opacity=".5" rx="7" ry="6"/><path fill="#c19f79" fill-opacity=".2" d="M74.9 54.6l-45.1 62.6-1.9 38.3 24.9-19.1z"/><path fill="#e4e2ea" fill-opacity=".5" d="M170 124h3v9h-3z"/><ellipse cx="59" cy="159" fill="#cbe0e9" fill-opacity=".6" rx="13" ry="2"/><path fill="#693000" fill-opacity=".3" d="M106 13l25 6.8 5.7-1.1L99.9 2.8z"/><circle r="1" fill="#13353d" transform="rotate(-154.7 141 37.3) scale(28.41072 32.21952)"/><circle r="1" fill="#21827f" fill-opacity=".5" transform="rotate(93.9 58 94.7) scale(10.68886 14.93388)"/><path fill="#a3a4a4" fill-opacity=".5" d="M217.4-16h8.2L183-8.4 203.2 30z"/><path fill="#341509" fill-opacity=".5" d="M194 8h28v5h-28z"/><path fill-opacity=".5" d="M246 11h10v12h-10z"/><path fill="#94653e" fill-opacity=".7" d="M236 160l-11 25-28-32z"/><path fill="#d0d5cc" fill-opacity=".6" d="M131 36l-3 8-26-4z"/><path fill="#0b1b10" fill-opacity=".3" d="M199.3 119.8l32.9-83.6-43.9 5.8 4.6 50.5z"/><path fill="#e8c786" fill-opacity=".5" d="M56.5 111.7l20-39.4 33.1-86.5-15.8 63.9z"/><path fill="#4e5130" fill-opacity=".9" d="M91 116.2l56.3 13.4-56.7-1.3 6.7-20z"/><path fill="#e4d9ba" fill-opacity=".5" d="M182 66h10v17h-10z"/></g></svg>