<svg xmlns="http://www.w3.org/2000/svg" viewBox="0 0 299 449"><defs/><path fill="#474a38" d="M0 0h299v449H0z"/><g transform="translate(.9 .9) scale(1.7539)"><circle r="1" fill="#fdfeff" fill-opacity=".6" transform="matrix(-10.5882 32.07637 -60.1437 -19.85305 96.6 155.8)"/><circle r="1" fill="#f5cca6" fill-opacity=".7" transform="rotate(52 36.1 151.4) scale(89.25378 54.20881)"/><circle r="1" fill="#f8ffff" fill-opacity=".8" transform="matrix(17.84488 56.25419 -25.75893 8.17121 170 40.5)"/><circle r="1" fill="#000a15" fill-opacity=".6" transform="rotate(111.2 -23.9 153.2) scale(42.34319 79.56846)"/><path fill="#83421a" fill-opacity=".4" d="M186 122l-202 5L58-16z"/><circle r="1" fill="#daddec" fill-opacity=".4" transform="matrix(-22.43659 11.43489 -22.72428 -44.5877 114 151)"/><path fill="#742600" fill-opacity=".5" d="M-16 250L18 22l30 249z"/><circle r="1" fill="#0e0600" fill-opacity=".6" transform="rotate(42.2 -50.6 102.4) scale(40.43166 20.28061)"/><path fill="#aa997b" fill-opacity=".5" d="M31 95h72v45H31z"/><ellipse cx="121" cy="8" fill="#884f20" fill-opacity=".6" rx="10" ry="57"/><path fill="#051020" fill-opacity=".7" d="M142.7 113.1l-.1 27.5-39.4-37.5 9.6-15.3z"/><path fill="#001f24" fill-opacity=".5" d="M166.3 113.4l31.8 8.5-40.4 150.7-31.8-8.5z"/><circle r="1" fill="#c88039" fill-opacity=".5" transform="rotate(43.9 -2.6 87.5) scale(61.99573 8.76551)"/><circle r="1" fill="#6c2f0e" fill-opacity=".6" transform="rotate(-66.9 13.7 .5) scale(156.06132 33.09797)"/><path fill="#747a76" fill-opacity=".6" d="M132 197l-84-17 30-17z"/><path fill="#1f0900" fill-opacity=".4" d="M105.6 70.1L51.4 45.8l37.3 78-40.2 1.5z"/><path fill="#9a8476" d="M105.1 132.5l4.5 4.7-28.7-27.8 15.9-34.3z"/><path fill="#5b1f05" fill-opacity=".5" d="M121.5 35.9L159.2 73l-12.3 28.8 5.9-25.5z"/><path fill="#fffffd" fill-opacity=".5" d="M124 87l14-31-9-7z"/><path fill="#0f2222" fill-opacity=".8" d="M43 199h128v57H43z"/><path fill="#d9bc8a" fill-opacity=".7" d="M132 82.3l1.4 21.3-28-65.2-13.4.1z"/><path fill="#2f251a" fill-opacity=".8" d="M35.3 96.1L99.5 71l6.3-7 10.6 8.5z"/><circle r="1" fill="#e0e5eb" fill-opacity=".5" transform="matrix(13.45735 .01156 -.0246 28.65138 118.7 148.3)"/><path fill="#dae4f6" fill-opacity=".4" d="M42.2 127.5l5.4 35.5 16.5 23.5-7.3-57z"/><path fill="#6e3000" fill-opacity=".5" d="M170 125l16-10-51-39z"/><path fill="#9d976a" fill-opacity=".6" d="M30 100l25-6-18 65z"/><path fill="#21342d" fill-opacity=".9" d="M178.8 120.3l-44.1 16.2 13.8 14.3 37.5 48.9z"/><path fill="#f5f7f3" fill-opacity=".5" d="M133 43l37 42V9z"/><path fill="#291f11" fill-opacity=".6" d="M95 69L23 7l13 89z"/><path fill="#0e1410" fill-opacity=".6" d="M126.4 198.3L67 188.7 36 172l7.4 49.3z"/><path fill="#fbffff" fill-opacity=".4" d="M65 9l11 8-7-14z"/><path fill="#ecefed" fill-opacity=".6" d="M143.9 63.6l.6 15 41.5.4-26.5 10.1z"/><path fill="#dad0c6" fill-opacity=".3" d="M102.1 93.6l-29.2-2.9 12 12.7-12 58z"/><path fill="#250b0b" fill-opacity=".3" d="M91.6 113.9l7.3 15 32.9-22.2-27.4-7z"/><path fill="#793302" fill-opacity=".4" d="M127 33.6L144.3 65l-15.5 25.5 11-24.2z"/><path fill="#593b00" fill-opacity=".2" d="M153.2-16L91.1 14.6l7.1-29.4 43.2 30z"/><circle r="1" fill="#865b32" fill-opacity=".3" transform="matrix(-10.2112 -88.17206 9.99055 -1.157 26.6 101)"/><path fill="#be9a63" fill-opacity=".5" d="M114.3 30.2l-51 11.1 37.3 31.3-2.1-20.7z"/><path fill="#a0adb9" fill-opacity=".6" d="M143 190.8l-29.4 6.3 38.9-40.3 3 12.6z"/><path fill="#855521" fill-opacity=".6" d="M74.8 16.6L95.1-16l-17 42.4L71-16z"/><path fill="#eff" fill-opacity=".5" d="M95.5 30V8h5v22z"/><path fill="#fcffff" fill-opacity=".4" d="M95.6-31.2l4 .8-13.2 61.6-4-.8z"/><path fill="#e8f4bb" fill-opacity=".3" d="M147.2 132.5l4-5.9-9.1-10.5-.1 9.7z"/><circle r="1" fill="#483e28" fill-opacity=".5" transform="matrix(-9.20567 6.22641 -23.5438 -34.80918 54.6 83.1)"/><path fill="#cbdeb5" fill-opacity=".3" d="M162.1 118.5l-28.6-23.9-16.5 3.3 38.2 7.2z"/><path fill="#84695f" d="M107.3 75.7l4.9.9-3.5 19.7-4.9-.9z"/><path fill="#5a2100" fill-opacity=".6" d="M90 14h4v17h-4z"/><circle r="1" fill="#47260c" fill-opacity=".5" transform="matrix(-14.1843 2.53217 -22.63412 -126.78797 10.2 230.9)"/><circle r="1" fill="#d0d4d9" fill-opacity=".5" transform="matrix(-18.12325 -24.1379 17.5611 -13.18525 122.6 155.3)"/><path fill="#8f5628" fill-opacity=".6" d="M58.8-7.1L25.3 10.8l63.2 26L59.1 6.7z"/><circle r="1" fill="#152a29" fill-opacity=".6" transform="rotate(-49.2 311 -82) scale(85.87837 31.26465)"/><path fill="#444840" fill-opacity=".5" d="M55 185l25-10 26 16z"/><path fill="#b8b6b0" fill-opacity=".5" d="M60.1 144.7l22.7-21.4 24 66.2-6.5-.2z"/><path fill="#651f01" fill-opacity=".3" d="M130.6 50.8l27.3 26.7-27.6-37.2-13.2 6z"/><path fill="#222421" fill-opacity=".6" d="M94.6 88.8l6.7 8.4 13.9 21.4 40.1-5.4z"/><path fill="#ffffda" fill-opacity=".4" d="M135.5 85.4l12.6 2 2-14.3-13.2 24.2z"/><path fill="#e4e4cf" fill-opacity=".5" d="M107 25l1 26-10-7z"/><path fill="#4a1b00" fill-opacity=".6" d="M106.8 22.4l-1 .3L99.2-.4l1-.3z"/><path fill="#d8c499" fill-opacity=".5" d="M130 15h14v26h-14z"/><path fill="#8d9491" fill-opacity=".3" d="M66.3 194l-31.5-41.8 108.9 49.1-83.1-53.8z"/><path fill="#a18c61" fill-opacity=".6" d="M86 89l-56 26 2-18z"/><path fill="#a68059" d="M106.3 45.6L113.6 9l27.1-.7-29.9 24.9z"/><path fill="#e9effa" fill-opacity=".2" d="M81.4 164.3l2.2-17-41-20.1-8.4 4.7z"/><path fill="#613b23" fill-opacity=".5" d="M120.1 127.7l-39.4-5.5-5.1-35.9-20.9 27.5z"/><path fill="#e6b562" fill-opacity=".4" d="M133.6 95.2l-18.8-42.6.8 35 3.6 1.9z"/></g></svg>