<svg xmlns="http://www.w3.org/2000/svg" viewBox="0 0 300 199"><defs/><path fill="#735838" d="M0 0h300v199H0z"/><g transform="translate(.6 .6) scale(1.17188)"><circle cx="113" cy="50" r="141" fill="#949291" fill-opacity=".7"/><circle r="1" fill="#d5dae3" fill-opacity=".7" transform="matrix(14.98286 29.15349 -38.06322 19.56184 161 91.5)"/><circle r="1" fill="#2b150f" transform="matrix(-18.91975 -10.0598 8.22113 -15.4617 133.6 38.5)"/><circle r="1" fill="#3f1801" fill-opacity=".5" transform="rotate(-127.6 57.9 4.3) scale(17.29294 50.37516)"/><path fill="#00000e" fill-opacity=".5" d="M269 115l-14 60-50-115z"/><circle r="1" fill="#233f1b" fill-opacity=".7" transform="rotate(-178.2 89.4 79) scale(28.59243 15.28734)"/><path fill="#352600" fill-opacity=".6" d="M144.6 132.5l6.6 15.6-59.8 25.4-6.6-15.6z"/><circle r="1" fill="#b1c0c5" fill-opacity=".5" transform="matrix(-7.33545 -63.70324 22.70563 -2.61456 23 44.2)"/><ellipse cx="163" cy="115" fill="#d5dadf" fill-opacity=".7" rx="17" ry="32"/><circle r="1" fill="#87878d" fill-opacity=".6" transform="matrix(18.08827 -2.62066 6.97512 48.14355 223.6 137.3)"/><path fill="#ffe5d2" fill-opacity=".4" d="M88.4 73.6l17.1 47-16 5.8-17-47z"/><path fill="#081315" fill-opacity=".5" d="M225.4 39.1l11 42.1 16.3-21.6-9.6-19.2z"/><path fill="#956352" fill-opacity=".9" d="M113.3 21.6L83.7 75.4l63.7 11-12.6 11.7z"/><path fill="#d3ebf8" fill-opacity=".5" d="M228 18h28v20h-28z"/><path fill="#d7dce2" fill-opacity=".8" d="M32 177.5l-8.8-45.9 2.4 9.2L58.8 185z"/><path fill="#000004" fill-opacity=".8" d="M248 85l-6 100 29-51z"/><path fill="#4d392e" fill-opacity=".7" d="M202.8 9.5l8.2 36.2 13-18.6-69.4-6.9z"/><path fill="#fff" fill-opacity=".5" d="M114 162h34v8h-34z"/><ellipse cy="137" fill="#0f0400" fill-opacity=".3" rx="26" ry="39"/><path fill="#090000" fill-opacity=".5" d="M22 40h8v24h-8z"/><ellipse cx="184" cy="94" fill="#041924" fill-opacity=".1" rx="17" ry="58"/><path fill="#484d35" fill-opacity=".5" d="M42 39l51 91-39-21z"/><path fill="#deeaee" fill-opacity=".4" d="M143 20l44 8-24 24z"/><path fill="#d58569" fill-opacity=".5" d="M150 58l-63 93 7-107z"/><ellipse cx="85" cy="51" fill="#290000" fill-opacity=".5" rx="8" ry="29"/><path fill="#e8f5fd" fill-opacity=".5" d="M84-16l27.8 29.4 18.4-5.6-1.4-17.7z"/><path fill="#181011" fill-opacity=".8" d="M133.7-16h11.6L129.1 3.5l16.3 34z"/><path fill="#babec3" fill-opacity=".6" d="M151 57l66 81-12-68z"/><circle r="1" fill="#4e1700" fill-opacity=".6" transform="matrix(-6.0748 2.49661 -6.02271 -14.65456 182.4 1.5)"/><path fill="#580c00" fill-opacity=".6" d="M34 124l14 14 1 29z"/><path fill="#010000" fill-opacity=".5" d="M96 27.5l24.4 13.6-6.3 11.4-24.5-13.6z"/><ellipse cx="153" cy="92" fill="#edf5fd" fill-opacity=".6" rx="12" ry="33"/><path fill-opacity=".5" d="M209 0h5v40h-5z"/><path fill="#64554f" fill-opacity=".8" d="M222.8 129.5L271 69.1l-47.8 31.3-20-46.9z"/><path fill="#f4fff8" fill-opacity=".3" d="M193.6 31.8l-5.8-33 44 47.2L195-6.8z"/><path fill="#010000" fill-opacity=".3" d="M223.4 7.2l19.7.9-30.7 30-6-2.8z"/><path fill="#78663e" d="M136 164.4l27.2-15.3-74.4-19.2 32.3 21.6z"/><circle r="1" fill="#f8fbff" fill-opacity=".4" transform="matrix(5.77341 14.37264 -11.45304 4.60063 131.4 106)"/><ellipse cx="55" cy="169" fill="#dde9f2" fill-opacity=".3" rx="42" ry="9"/><path fill="#939697" d="M271 119.2l-26.7-56.4-61-11.9 50.7 1.9z"/><ellipse cx="97" cy="158" fill="#130000" fill-opacity=".5" rx="13" ry="9"/><path fill="#361e06" fill-opacity=".6" d="M73.7 137.9L54 135.2l15.6-7.7 7.3 1.5z"/><path fill="#2f2f27" d="M206.1 28.4l-11.3 7.2 7.8-24.7-7.3 2.1z"/><path fill="#000206" fill-opacity=".7" d="M246.9 45.5l-9.3 14L271 74l-5.6 57.5z"/><path fill-opacity=".5" d="M149 24l3 38-32-38z"/><path fill="#fafdfa" fill-opacity=".4" d="M49 131l29-7-20-11z"/><path fill="#1d1603" fill-opacity=".3" d="M147.9 19.7l46.3 46.8-8.8-2.2-12.6-4z"/><circle cx="136" cy="88" r="5" fill="#000007" fill-opacity=".6"/><path fill="#aaa69b" fill-opacity=".5" d="M27 155l-17-22 47-61z"/><circle cx="170" cy="12" r="6" fill="#edeeff" fill-opacity=".6"/><path fill="#d9e1e5" fill-opacity=".5" d="M248.4 41.4l-14.2 18.3-1.6-3.3 20.1-29.9z"/><path fill="#fbdfeb" fill-opacity=".5" d="M73 40h5v16h-5z"/><path fill="#c4ceda" fill-opacity=".6" d="M7 61h16v37H7z"/><path fill="#929698" fill-opacity=".9" d="M243.6 95.8l-30.5-76.7 11.7 44.5 7.5 25.9z"/><path fill="#d1e2ea" fill-opacity=".5" d="M215.6 21.6l-8.1-1.3-7.1 23.8L226.8-13z"/><path fill="#fff" fill-opacity=".6" d="M152.5 1.4L144 16l-2.5-1.5L150 0z"/><path fill="#0a2900" fill-opacity=".4" d="M132 128h17v14h-17z"/><path fill="#babdb9" fill-opacity=".7" d="M22.1 7.2l16.8 97L38.3-16h-8.4z"/><path fill-opacity=".5" d="M265 40l-15-5 4 16z"/><path fill="#282a38" fill-opacity=".3" d="M187.2 130.1l-18.7 37.6 47.8.6-33.9-78.8z"/><path fill="#eaf4fe" fill-opacity=".4" d="M166.3 42.6l17.1-17.2-21.1 5.7 33.3 27.2z"/><path fill="#350300" fill-opacity=".2" d="M134.9 66.6l-21.4 32.9-14-52.5 39.8 51.7z"/><path fill="#0a1500" fill-opacity=".5" d="M201.6-11.8l18.2 14.2-7.4 9.4-18.2-14.2z"/><path fill="#d99e83" fill-opacity=".5" d="M81 133l52 2-36-54z"/><path fill="#150d03" fill-opacity=".3" d="M6.4 151.2l26.2 17.9-19.4-35.2 18.7 4.3z"/></g></svg>