<svg xmlns="http://www.w3.org/2000/svg" viewBox="0 0 300 199"><defs/><path fill="#444" d="M0 0h300v199H0z"/><g transform="translate(.6 .6) scale(1.17188)"><circle cx="255" cy="40" r="104" fill="#ddd" fill-opacity=".6"/><circle cx="60" cy="153" r="118" fill="#020202" fill-opacity=".7"/><ellipse cx="214" cy="116" fill-opacity=".6" rx="17" ry="63"/><circle r="1" fill="#c6c6c6" fill-opacity=".4" transform="matrix(4.96974 -56.24 22.75253 2.01057 112.6 48.7)"/><ellipse cx="223" cy="14" fill="#f6f6f6" fill-opacity=".7" rx="68" ry="26"/><ellipse cx="175" cy="154" fill="#050505" fill-opacity=".9" rx="50" ry="37"/><ellipse cx="144" cy="39" fill-opacity=".8" rx="11" ry="38"/><circle r="1" fill="#010101" fill-opacity=".7" transform="rotate(-106.4 17 -1) scale(34.31187 32.98269)"/><path fill="#fefefe" fill-opacity=".5" d="M256 158.3l-28.2-6.5L244 81.7l28.2 6.5z"/><circle r="1" fill="#f1f1f1" fill-opacity=".5" transform="matrix(10.86773 -9.17084 15.6511 18.54704 199.6 97.9)"/><circle r="1" fill="#020202" fill-opacity=".4" transform="rotate(-119.2 132.2 -23.6) scale(46.0698 15.38768)"/><path fill="#cfcfcf" fill-opacity=".8" d="M171.8 33.2l-13.6 58.9-5.7-6.3L157.3-16z"/><path fill="#060606" fill-opacity=".5" d="M191 39h65v7h-65z"/><path fill="#020202" fill-opacity=".5" d="M176 69l46 2-42-27z"/><ellipse cx="125" cy="38" fill="#bebebe" fill-opacity=".5" rx="10" ry="52"/><path fill="#0f0f0f" fill-opacity=".8" d="M114 51.3l.9 16-27 1.4-.8-16z"/><path fill="#545454" fill-opacity=".5" d="M84 75h65v34H84z"/><path fill="#f8f8f8" fill-opacity=".4" d="M183.8 58l87.2-8.6-80.4-2.2 22.5 83.9z"/><path fill-opacity=".6" d="M118 92l-134 72 230 21z"/><ellipse cx="186" cy="14" fill="#d5d5d5" fill-opacity=".8" rx="30" ry="29"/><path fill="#020202" fill-opacity=".8" d="M271 170l-34.1-17.1-19.7 32.1h-99.6z"/><path fill="#5a5a5a" fill-opacity=".6" d="M242.1 112.1L219 157.5l-7.1-3.6 23.1-45.4z"/><ellipse cx="123" cy="73" fill="#111" fill-opacity=".5" rx="4" ry="31"/><path fill="#f7f7f7" fill-opacity=".3" d="M218.9 115.7L196.8 73l-39.9 1.4 62.7 19.9z"/><path fill="#aeaeae" fill-opacity=".5" d="M86 73h28v12H86z"/><path fill-opacity=".6" d="M234 95l-42-28 14-13z"/><path fill="#fff" fill-opacity=".5" d="M242 74h14v56h-14z"/><path fill="#3b3b3b" fill-opacity=".5" d="M18 67h32v48H18z"/><path fill="#ededed" fill-opacity=".4" d="M166.1 107.2l20.2 14.5-22.9-63.3 41.4 35.5z"/><path fill="#c5c5c5" fill-opacity=".4" d="M131 43.5L136.1.9l51.5 5.4L72.2-16z"/><path fill="#f4f4f4" fill-opacity=".6" d="M232.7 143.2l2.8 1-8.2 22.6-2.8-1z"/><path fill="#111" fill-opacity=".6" d="M94.2 99.6l13.9-50.4-61.5-13.3 70.8 8.9z"/><path fill="#cbcbcb" fill-opacity=".7" d="M221.3 60.4l24.3 6.6L271 44.2l-68.8 4.5z"/><path fill="#575757" fill-opacity=".7" d="M179.4 122.7l50.8-19.8-37.6 23.9-2.6-27.6z"/><circle r="1" fill="#fcfcfc" fill-opacity=".6" transform="matrix(3.88717 .46074 -1.50684 12.71302 173 61.6)"/><path fill="#010101" fill-opacity=".6" d="M133 41h20v39h-20z"/><path fill="#707070" fill-opacity=".5" d="M104.7.7l13.2 50 9.1-12-63.9.3z"/><ellipse cx="165" cy="105" fill-opacity=".3" rx="3" ry="54"/><path fill="#1a1a1a" fill-opacity=".5" d="M236 111l-33 52 24-101z"/><path fill="#0b0b0b" fill-opacity=".6" d="M163 126.5l-45.2-35-6.3-29.5 33.7 59.7z"/><path fill="#ededed" fill-opacity=".6" d="M271 36l-92 4 50-31z"/><path fill="#a3a3a3" fill-opacity=".5" d="M142 110l-11-3 7-17z"/><path fill="#080808" fill-opacity=".4" d="M211.8 85.2l4.2 4.3-15.8 15.3-4.2-4.3z"/><path fill-opacity=".3" d="M178.1 45.1l-4.3 29.8L188 58l1.8-13.3z"/><path fill="#e1e1e1" fill-opacity=".4" d="M126 46.7l5-.3 3 40.9-5 .3z"/><path fill="#080808" fill-opacity=".3" d="M245.4 163.3l-18-6 10.1-7.7 10.6-21z"/><path fill="#909090" fill-opacity=".5" d="M192.9 35l-4.5-4L223-9l4.5 4z"/><path fill="#ededed" fill-opacity=".3" d="M196.9 43.5l-11.2 31.9 8.9-13-12.3-25.5z"/><path fill="#ececec" fill-opacity=".5" d="M115 43l-25-7 10-4z"/><path fill-opacity=".5" d="M90 74l-106 5 42-48z"/><path fill="#f0f0f0" fill-opacity=".5" d="M213 123l-5 2-2-19z"/><path fill="#ddd" fill-opacity=".4" d="M116 49h6v22h-6z"/><path fill="#aaa" fill-opacity=".5" d="M101.2 104.7l8.8-4.7 2.8 5.3-8.8 4.7z"/><path fill="#adadad" fill-opacity=".4" d="M230.4 127.6l40.6 53.5-22.3-50.8-36.3 19.4z"/><ellipse cx="52" cy="15" fill="#2d2d2d" fill-opacity=".7" rx="15" ry="23"/><path fill="#070707" fill-opacity=".5" d="M135 8h21v38h-21z"/><path fill="#f8f8f8" fill-opacity=".4" d="M193.1 113.8l5.4 11.3 1.4-8-.6-15.1z"/><path fill="#030303" fill-opacity=".6" d="M182 184l39-17-19-56z"/><path fill="#878787" fill-opacity=".5" d="M229.6 101.6l2 5.6-15.2 5.2-2-5.6z"/><path fill="#020202" fill-opacity=".6" d="M199 44l-1 10-2-9z"/><path fill="#cbcbcb" fill-opacity=".5" d="M153 46h11v44h-11z"/><circle cx="103" cy="49" r="3" fill="#fff" fill-opacity=".5"/><circle r="1" fill-opacity=".5" transform="matrix(-11.99513 21.9495 -62.96764 -34.41103 5.2 147.5)"/><path fill="#d5d5d5" fill-opacity=".9" d="M153-4.1l11.3 60.7 27.1-58-63.7 3.6z"/><path fill="#dfdfdf" fill-opacity=".5" d="M155.4 9.8l-3.6 15 36.8-4.1-32.4 39z"/></g></svg>