<svg xmlns="http://www.w3.org/2000/svg" viewBox="0 0 300 199"><defs/><path fill="#514035" d="M0 0h300v199H0z"/><g transform="translate(.6 .6) scale(1.17188)"><circle r="1" fill="#f0faf9" fill-opacity=".6" transform="matrix(18.82087 53.39537 -113.63255 40.05334 152.3 0)"/><circle r="1" fill="#bebfc2" fill-opacity=".4" transform="rotate(-121.6 77.2 44) scale(37.46612 159.25786)"/><circle r="1" fill="#bdd9dd" fill-opacity=".4" transform="rotate(-130.3 120.8 13.7) scale(20.74197 34.15257)"/><path fill="#442d24" fill-opacity=".6" d="M147.1 70.6L124 98.2 84.9 65.4 108 37.8z"/><ellipse cy="50" fill="#dde5eb" fill-opacity=".9" rx="5" ry="45"/><path fill="#c7c6c6" fill-opacity=".9" d="M51.3 76.5l-3.4 15.8L37.7-.4 113.3-16z"/><circle r="1" fill="#070500" fill-opacity=".5" transform="rotate(20.6 -335.8 453.9) scale(18.65398 47.31377)"/><ellipse cx="22" cy="45" fill="#060008" fill-opacity=".6" rx="18" ry="92"/><circle r="1" fill="#fbffff" fill-opacity=".6" transform="matrix(-13.29367 -1.3782 4.70813 -45.41328 193.5 21.5)"/><ellipse cx="92" cy="106" fill="#c7bfc0" fill-opacity=".6" rx="44" ry="12"/><path fill="#817c6a" d="M101.8-11.8l1.6 47.4 19.4 31.2-2.5-81.8z"/><circle r="1" fill="#c6d6c6" fill-opacity=".5" transform="matrix(-16.02934 -25.02216 8.03248 -5.14565 255 37.3)"/><path fill="#f1faf9" fill-opacity=".6" d="M139 11h29v45h-29z"/><path fill="#595142" d="M271 69.5L225.9 94l-67.1-5.1 1.5-15.1z"/><path fill="#5a2300" fill-opacity=".4" d="M107 105h20v35h-20z"/><path fill="#e1e6e4" fill-opacity=".7" d="M62.4 53.8L79 76.2l3.5-11.6-3.4-36.8z"/><path fill="#a2a998" fill-opacity=".5" d="M200 142l-35 23-7-30z"/><path fill="#554544" fill-opacity=".9" d="M69.7 95.8l29.2-48.5 80.9 78.3-72-38.2z"/><path fill="#d8e8e3" fill-opacity=".9" d="M183.7 39.5L216.3 60l-11.7 4.8-15.6-6.6z"/><path fill="#1f2427" fill-opacity=".5" d="M202.5 48l11.7-34 29.3 10-11.7 34z"/><path fill="#120c2c" fill-opacity=".7" d="M244.6 15.7l26.4 7.1V-1l-31.4-15z"/><path fill="#95acbc" fill-opacity=".3" d="M30 103h52v67H30z"/><path fill="#676754" fill-opacity=".7" d="M173 148l74-117-3 74z"/><circle r="1" fill="#0f050a" fill-opacity=".5" transform="matrix(-6.64996 15.60272 -34.26152 -14.60245 1 108)"/><path fill="#2c0d1a" fill-opacity=".4" d="M40.3 49l49-26.3L5.6 47.9l44.7 63z"/><path fill="#d8eaff" fill-opacity=".4" d="M183 129l20-39-35 6z"/><circle r="1" fill="#021034" fill-opacity=".5" transform="matrix(-18.77718 7.96475 -4.45775 -10.50932 76.1 83.1)"/><path fill="#d1b7a8" fill-opacity=".4" d="M109.6 69.7l5.1 9.8-20.3 10.8-5.1-9.8z"/><path fill="#cfd1cb" fill-opacity=".9" d="M79.1 53.7l27-5.7-8.6-64-9.1 82.8z"/><circle r="1" fill="#605f3b" fill-opacity=".5" transform="matrix(-2.539 .19537 -2.54784 -33.11216 130.4 14.8)"/><path fill="#7a7e75" fill-opacity=".6" d="M208.4-9L131 4l-3.4 18.5 5.7-4.3z"/><path fill="#c8c1bc" fill-opacity=".9" d="M127.2 93.4l11.5 21.7-21.6-14.5-53.1 9.9z"/><path fill="#f6fde8" fill-opacity=".5" d="M124 59l10-2-11-35z"/><circle r="1" fill="#211e15" fill-opacity=".6" transform="matrix(44.762 -30.30615 9.84035 14.53413 240.3 162.2)"/><path fill="#dfe3e3" fill-opacity=".8" d="M193.3-16l-12.7 95.4 32.3-65.9L223 7.3z"/><path fill="#90685a" fill-opacity=".8" d="M142.2 106.6l45.7-54.1-23.8-1.3-15.7 75.6z"/><path fill="#c8c8c4" fill-opacity=".7" d="M177.8 20.3l47.9 9.4L248.5-16l-29.9 40.2z"/><ellipse cx="2" cy="169" fill="#bcb5b0" fill-opacity=".6" rx="6" ry="36"/><path fill-opacity=".6" d="M68 57l-10 8v-7z"/><path fill="#1e1a06" fill-opacity=".5" d="M229.2 88.9l-41.1-.3-21.9 8.2-3.9-16.8z"/><path fill="#5b3831" fill-opacity=".6" d="M96.7 104.9l10.1-18.4-1-11.4L87.5 105z"/><path fill="#111c09" fill-opacity=".6" d="M157 125.7l2.7 53.1-26.6 5.4 1.7-69.4z"/><path fill="#9c9ea0" fill-opacity=".9" d="M110.8 123.7L54.7 99.5 2 165.5l63.4-49.6z"/><path fill="#d6e2ff" fill-opacity=".5" d="M77.7 170.1l-13.8 11.6-11.6-13.8 13.8-11.6z"/><path fill="#fff" fill-opacity=".5" d="M242-16l-9 19 9 21z"/><path fill="#9eae9f" fill-opacity=".5" d="M199 67.1l-15.5-9.6-4.1 20.4 18.6 3.8z"/><circle r="1" fill="#6f685e" fill-opacity=".5" transform="rotate(171.5 85 12.6) scale(3.05303 54.4662)"/><path fill="#3b2514" fill-opacity=".4" d="M2.1 151.5l21.2-36.2 22.2-7L13.9 151z"/><path fill="#e6afb2" fill-opacity=".6" d="M171.5 59.8l2 3.4-33 19-2-3.4z"/><path fill="#777569" fill-opacity=".5" d="M123.4 23.7l-43.2 8.1-21.7-.5 47.7-15.8z"/><path fill-opacity=".5" d="M92 51h11v15H92z"/><circle r="1" fill="#4d4d44" fill-opacity=".4" transform="matrix(-3.48629 -2.2037 19.63772 -31.06709 58.1 151.3)"/><ellipse cx="58" cy="17" fill="#796970" fill-opacity=".6" rx="2" ry="28"/><path fill="#fbffff" fill-opacity=".5" d="M64 0h13v24H64z"/><path fill="#edfaff" fill-opacity=".5" d="M68 95h24v6H68z"/><circle r="1" fill="#474a34" fill-opacity=".7" transform="matrix(11.1475 -9.63774 10.15608 11.74705 213.2 80.4)"/><path fill="#ffe3df" fill-opacity=".4" d="M111 95l-3-26 6 10z"/><path fill="#f8bcaa" fill-opacity=".3" d="M28.4 93.1l23.5-14.2L25.8 107l22.6 3.7z"/><path fill="#282724" fill-opacity=".5" d="M98 59h54v7H98z"/><path fill="#928e72" fill-opacity=".6" d="M257 24l14 19-45 18z"/><path fill="#dad6cf" fill-opacity=".3" d="M85.7 63.3L68.3 83.2l4.1-54.3L97 71.2z"/><path fill="#070f0d" fill-opacity=".4" d="M203.2 53.3l-2.6-3.5 42.9-19.2 1.6 15.9z"/><path fill="#f0f7f9" fill-opacity=".6" d="M4.3 88.6l-9-.2.4-27 9 .2z"/><circle r="1" fill="#505659" fill-opacity=".4" transform="matrix(-1.51127 .07745 -3.56257 -69.5146 83.7 57)"/><path fill="#f1f6fa" fill-opacity=".6" d="M102.2 17.6l-14.6 1.8-3.2-31.1L100-16z"/></g></svg>