<svg xmlns="http://www.w3.org/2000/svg" viewBox="0 0 300 199"><defs/><path fill="#4d322b" d="M0 0h300v199H0z"/><g transform="translate(.6 .6) scale(1.17188)"><circle r="1" fill="#a59890" fill-opacity=".8" transform="matrix(-131.03016 -218.76036 100.77359 -60.36002 125 143.7)"/><circle r="1" fill="#e9e8df" fill-opacity=".6" transform="matrix(32.1523 66.82738 -24.96408 12.01083 131.8 22.1)"/><circle r="1" fill="#fff" fill-opacity=".4" transform="matrix(-33.85973 14.68703 -10.95894 -25.26494 41.2 110.8)"/><ellipse cx="94" cy="165" fill="#421a0d" fill-opacity=".5" rx="62" ry="39"/><circle r="1" fill="#31110a" fill-opacity=".7" transform="matrix(-15.98289 3.99826 -9.7069 -38.80296 0 73)"/><ellipse cx="203" cy="36" fill="#404148" fill-opacity=".7" rx="37" ry="50"/><ellipse cx="223" cy="118" fill="#8a6d62" fill-opacity=".9" rx="93" ry="40"/><path fill="#fff8f5" fill-opacity=".4" d="M115.3 138.9L95.4 2.4l34 119.8-5 52.5z"/><path fill="#f6fefe" fill-opacity=".6" d="M37 23L11 43l33 46z"/><ellipse cx="249" cy="90" fill="#fbffff" fill-opacity=".6" rx="100" ry="4"/><circle r="1" fill="#140300" fill-opacity=".5" transform="rotate(176.7 30.5 19.2) scale(7.61678 49.12078)"/><path fill="#330600" fill-opacity=".3" d="M130.5 56.5l28.6 57.1-67.9-32 2.1-20.9z"/><path fill="#5f4940" fill-opacity=".9" d="M48.5 148.9L38.8-15.6l7.8 64.4 4.3 56z"/><path fill="#01140a" fill-opacity=".5" d="M27.2 25.8l25.6-10-3 2.3L-11.3-16z"/><ellipse cx="73" cy="130" fill="#ecdae3" fill-opacity=".5" rx="7" ry="34"/><path fill="#31281e" fill-opacity=".7" d="M13 57h45v6H13z"/><path fill="#d3d0c9" fill-opacity=".6" d="M94 0h72v57H94z"/><circle r="1" fill="#1c0a00" fill-opacity=".7" transform="matrix(1.05875 6.19393 -20.62391 3.52531 81.9 1.6)"/><path fill="#fff" fill-opacity=".6" d="M18 95h27v27H18z"/><path fill="#3e2a22" fill-opacity=".9" d="M92.6 122.3l1.6 39.7-13.3 3.2 4.3-62.6z"/><path fill="#cacfce" fill-opacity=".9" d="M-16 23.6l34.6 28.1L-16-12.1l39.9 35.4z"/><ellipse cx="246" cy="98" fill="#1a0300" fill-opacity=".5" rx="70" ry="4"/><circle r="1" fill="#7d787b" fill-opacity=".5" transform="matrix(-46.59162 10.11074 -2.7403 -12.62767 239.8 26.2)"/><path fill="#522f23" fill-opacity=".6" d="M155 91.2l-1 68-21-.4 1-68z"/><path fill="#421b0c" fill-opacity=".5" d="M50.8 120.3l.8 3-46.4 12.4-.8-3z"/><circle r="1" fill="#fff" fill-opacity=".5" transform="matrix(-21.77089 7.821 -1.65408 -4.60437 36.6 134.3)"/><path fill="#fffdff" fill-opacity=".3" d="M81 95l40-18 12 43z"/><path fill="#fff" fill-opacity=".5" d="M28.1 99.4l-.2 6-22-.8.2-6z"/><circle cx="17" cy="31" r="8" fill="#1b2219" fill-opacity=".6"/><path fill="#000002" fill-opacity=".4" d="M250 40l-1 37-59-9z"/><path fill="#28110c" fill-opacity=".5" d="M63 133.7l4.5 25.6-28.5 5-4.5-25.6z"/><ellipse cx="169" cy="51" fill="#9d7f5b" fill-opacity=".9" rx="3" ry="36"/><path fill="#fdffff" fill-opacity=".8" d="M16-16l21 3v23z"/><circle r="1" fill="#f0f4f4" fill-opacity=".9" transform="matrix(6.0516 3.62736 -2.2171 3.69882 1.4 141.7)"/><path fill="#fff" fill-opacity=".7" d="M49 3.9l2 21.9-4 .3-2-21.9z"/><path fill="#1f0801" fill-opacity=".6" d="M-16 88.7L22.7 69l9 7.1-45.6 33.6z"/><path fill="#0e0000" fill-opacity=".5" d="M124 78l-12.3-18.3L120 54l12.3 18.2z"/><path fill="#0e0f14" fill-opacity=".5" d="M10 154l2-19 14 15z"/><circle r="1" fill="#2c0e03" fill-opacity=".5" transform="matrix(-59.83388 -5.12957 .08542 -.99635 224.4 112.8)"/><path fill="#d8c0c3" fill-opacity=".6" d="M223 3l3 20-8-5z"/><ellipse cx="161" cy="94" fill-opacity=".3" rx="44" ry="3"/><path fill="#42322b" fill-opacity=".7" d="M67 21.9L45.3-16l.8 59.4-12-59.4z"/><path fill="#feffff" fill-opacity=".5" d="M38.1 18.4l5.1 41.7L16 54.7l22.2-19.5z"/><path fill="#351500" fill-opacity=".4" d="M115.8 85.5l-23.3-1.6-5.6-1.3 12.6-21.9z"/><path fill="#290700" fill-opacity=".6" d="M77 91L60 67l12 1z"/><ellipse cx="254" cy="32" fill="#866a44" fill-opacity=".8" rx="4" ry="55"/><circle r="1" fill="#b1a695" fill-opacity=".6" transform="matrix(8.41992 -4.53366 8.64131 16.04865 141.1 75.8)"/><path fill="#543125" fill-opacity=".6" d="M118 143l18-17 6 50z"/><path fill="#0f0902" fill-opacity=".3" d="M171 0h76v18h-76z"/><path fill="#ae887e" fill-opacity=".4" d="M153 99h50v65h-50z"/><path fill="#48453c" fill-opacity=".9" d="M58 24.4L83 55 58.4 36.8l-21-7.5z"/><circle r="1" fill="#b3a997" fill-opacity=".5" transform="matrix(8.62846 3.32334 -20.37705 52.9053 95.3 30)"/><path fill="#fff" fill-opacity=".5" d="M52.4 81L46 76l5.5-7 6.3 5z"/><ellipse cx="166" cy="152" fill="#2e0e05" fill-opacity=".4" rx="2" ry="49"/><circle cx="23" cy="88" r="5" fill="#fff" fill-opacity=".6"/><path fill="#755752" fill-opacity=".6" d="M105 103h8v30h-8z"/><path fill="#cecbc4" fill-opacity=".6" d="M133.6 23L89.8 33l18.6 43.5 1.7-15.8z"/><path fill="#856459" fill-opacity=".5" d="M58 101.6l17.9 83.2-22.3-84.2 17-77.8z"/><path fill="#f5faff" fill-opacity=".3" d="M72.5 143.9l-4.2-31.8.4-11.5-19.1-10.8z"/><path fill="#d5dae6" fill-opacity=".5" d="M116 105h17v26h-17z"/><path fill="#d19a7d" fill-opacity=".5" d="M124 137l-15-3 24 47z"/><path fill="#d5d0ca" fill-opacity=".7" d="M168.3 83.7l-40.6-22.8-24.8-19.7 62.6-32.6z"/><path fill="#ebf2e5" fill-opacity=".4" d="M159 86h63v7h-63z"/><path fill="#afa390" fill-opacity=".5" d="M68 10h31v30H68z"/><ellipse cx="29" cy="68" fill="#fff" fill-opacity=".5" rx="13" ry="3"/></g></svg>