<svg xmlns="http://www.w3.org/2000/svg" viewBox="0 0 299 449"><defs/><path fill="#46542c" d="M0 0h299v449H0z"/><g transform="translate(.9 .9) scale(1.7539)"><circle cx="142" cy="146" r="122" fill="#c99492" fill-opacity=".6"/><circle r="1" fill="#0a0300" fill-opacity=".9" transform="rotate(73.2 -43.3 131.4) scale(36.89976 22.10575)"/><circle r="1" fill="#e2e0e1" fill-opacity=".6" transform="matrix(-44.6228 76.05937 -26.4721 -15.53076 105.3 224.3)"/><ellipse cx="14" cy="192" fill="#050008" fill-opacity=".8" rx="24" ry="73"/><circle r="1" fill="#d28e97" fill-opacity=".6" transform="matrix(-18.6969 -10.19388 36.35222 -66.67469 51.3 47.3)"/><circle r="1" fill="#fbcfc3" fill-opacity=".6" transform="matrix(-13.38598 5.8482 -20.97162 -48.00213 129.6 95.7)"/><path fill="#0b000b" fill-opacity=".7" d="M49.9-13.9l2.2 62-52 1.8-2.2-62z"/><path fill="#6c3d18" fill-opacity=".7" d="M173-27.8L232.4 112 167 139.8 107.6 0z"/><path fill-opacity=".6" d="M84 100l-11 33-18-47z"/><path fill="#e0d2e3" fill-opacity=".5" d="M24.6 37.1L36 102.2l13.1 77.5L7.7 87.4z"/><path fill="#0e0801" fill-opacity=".8" d="M103.9 174.1L82.7 196l-7.9-88.6 52.6 5.8z"/><path fill-opacity=".6" d="M44 108h12v49H44z"/><circle r="1" fill="#060109" fill-opacity=".8" transform="rotate(-102.4 109.6 102.8) scale(63.17706 14.75523)"/><circle r="1" fill="#d5a87c" fill-opacity=".6" transform="matrix(-21.88865 8.77206 -18.71369 -46.6957 154.1 176)"/><circle r="1" fill="#b17940" fill-opacity=".5" transform="matrix(-5.06175 51.74508 -29.55673 -2.89127 90 24.4)"/><circle r="1" fill="#b9a09b" fill-opacity=".7" transform="rotate(-130.3 93.7 103.4) scale(37.51998 17.36165)"/><path fill="#fffff5" fill-opacity=".3" d="M51 123.8l16-6 14 36.4-16 6z"/><path fill="#4e2707" fill-opacity=".8" d="M148.3 27.8l37.7 9.1-48.9-34.7-35.3 44z"/><path fill="#0c0d3a" fill-opacity=".5" d="M.7-9.5l25.1 83.8-18.2-3.4-8.8 109.8z"/><path fill="#171312" fill-opacity=".7" d="M39.1 112.4l13.1 45.4 10.4 5.5-8.2-37.7z"/><path fill="#1b181d" fill-opacity=".7" d="M-16 100l57 68-27-69z"/><ellipse cx="130" cy="201" fill="#cecac9" fill-opacity=".4" rx="22" ry="60"/><circle r="1" fill="#ce936d" fill-opacity=".6" transform="rotate(129.8 -14.4 103.8) scale(16.05276 24.59556)"/><circle r="1" fill="#d6ac9f" fill-opacity=".6" transform="rotate(-55.5 122.6 -74.6) scale(24.94082 14.49874)"/><path fill="#c4cbd1" fill-opacity=".8" d="M16 107.1l29.7 5.6-35-34-6.4.5z"/><circle cx="170" cy="156" r="32" fill="#b25f00" fill-opacity=".3"/><path fill="#ad7c5a" fill-opacity=".5" d="M152 81l-2-54-37 56z"/><path fill="#e1d2c8" fill-opacity=".4" d="M81 164l-29-41 25 75z"/><circle r="1" fill="#c2ccd7" fill-opacity=".5" transform="matrix(-10.75395 24.31957 -28.3372 -12.53051 105 218.7)"/><path fill="#f8dee3" fill-opacity=".5" d="M138 87l-25-1 29 62z"/><circle r="1" fill="#6b390b" fill-opacity=".5" transform="matrix(-9.0737 35.08539 -9.82055 -2.53977 170 238.8)"/><path fill="#8f6f54" fill-opacity=".9" d="M34.2 82.3l53.3-6.8 30.8 27.9 5.2 10.7z"/><path fill="#b78781" fill-opacity=".6" d="M75 68L29 96 71-16z"/><path fill="#4e2101" fill-opacity=".4" d="M90 246h11v10H90z"/><path fill="#ffffd2" fill-opacity=".5" d="M117 17V5l-6 13z"/><path fill="#dea58b" fill-opacity=".6" d="M40 128.1l5-.2 1 34-5 .2z"/><path fill="#d5737b" fill-opacity=".5" d="M18 42h14v13H18z"/><path fill="#c9c7c5" fill-opacity=".7" d="M55 110.7l3.5-8.4-33.4 22.5L12.4 88z"/><path fill="#f2d8e0" fill-opacity=".4" d="M118 161l21-56 18 15z"/><circle r="1" fill="#a3b1d9" fill-opacity=".5" transform="matrix(6.11824 16.99089 -7.70045 2.77286 61.3 243.4)"/><path fill="#11100f" fill-opacity=".7" d="M35 120.3l22.7 20.5-.7 18.1-5-42.2z"/><path fill="#cfaa90" fill-opacity=".4" d="M132.4 82.4l6.2-6.5 49 45.7-6.2 6.5z"/><path fill="#5d360e" fill-opacity=".4" d="M115 37l-5-34-25 81z"/><ellipse cx="67" cy="99" fill-opacity=".4" rx="9" ry="15"/><circle r="1" fill="#070403" fill-opacity=".7" transform="matrix(-2.46125 13.67905 -9.2356 -1.66175 111.8 145.2)"/><path fill="#260e00" fill-opacity=".6" d="M186 49l-8-37-40-2z"/><path fill="#461b00" fill-opacity=".5" d="M147 131h24v6h-24z"/><path fill="#120300" fill-opacity=".3" d="M173.2 29.2l5 85.1-46.1-65.5 31.6 34.3z"/><circle r="1" fill="#d09362" fill-opacity=".5" transform="matrix(20.44258 11.44884 -5.33052 9.51795 70.7 10)"/><path fill="#6c5a2e" fill-opacity=".5" d="M129 121l-20-25 15 50z"/><circle r="1" fill="#140606" fill-opacity=".5" transform="matrix(10.37223 -16.59903 26.7956 16.74375 25.9 19.3)"/><ellipse cx="132" fill="#a67534" fill-opacity=".5" rx="32" ry="10"/><circle r="1" fill="#c7a98b" fill-opacity=".5" transform="rotate(115.5 10.5 148.3) scale(31.81088 16.00328)"/><path fill="#040207" fill-opacity=".9" d="M77 271l-93-14 8-61z"/><path fill="#6a3611" fill-opacity=".6" d="M129 81v-8l16-11z"/><path fill="#da946c" fill-opacity=".5" d="M66 44h60v10H66z"/><path fill="#714138" fill-opacity=".8" d="M70 38l19.7-15.5 4.3 5.6-19.7 15.4z"/><path fill="#2d8800" fill-opacity=".3" d="M104 47L82-7l23 2z"/><path fill="#bf8768" fill-opacity=".7" d="M37.3 186.8l4.4-38.7 14 12.6 25 85z"/><path fill="#150d09" fill-opacity=".5" d="M98.9 176.8l-16.7 3.3-11-57 16.6-3.2z"/><path fill="#ac9bb0" fill-opacity=".7" d="M12.1 83l39.8-18.2 3.3 19.6-33.3-19.5z"/><path fill="#2c1110" fill-opacity=".3" d="M165.1 139.3l20.9-23.9-38.9.8 5.2-36.3z"/><path fill="#ceaca6" fill-opacity=".6" d="M113.5 50.8L132.3 64l-21.8 31.2L91.7 82z"/><path fill="#966057" fill-opacity=".5" d="M61.2 87.7l-10.5 18.1-20-11.5 10.6-18.1z"/><circle r="1" fill="#040606" fill-opacity=".6" transform="rotate(-41.1 177.8 -2.9) scale(7.47509 4.78528)"/></g></svg>