<svg xmlns="http://www.w3.org/2000/svg" viewBox="0 0 300 199"><defs/><path fill="#5c5c34" d="M0 0h300v199H0z"/><g transform="translate(.6 .6) scale(1.17188)"><circle cx="122" r="63" fill="#e8eafc" fill-opacity=".7"/><path fill="#fff" fill-opacity=".5" d="M71 85l-29 67 104-56z"/><circle r="1" fill="#090112" fill-opacity=".6" transform="matrix(82.64799 -128.3638 66.72202 42.95947 200.6 160.7)"/><ellipse cx="25" cy="162" fill="#07080a" rx="85" ry="18"/><circle r="1" fill="#ebeef2" fill-opacity=".7" transform="rotate(-50.4 82.9 -86.8) scale(44.07728 20.8599)"/><ellipse cx="178" fill="#898888" fill-opacity=".8" rx="42" ry="63"/><circle r="1" fill="#c1cafb" fill-opacity=".5" transform="matrix(14.96526 2.58339 -6.86324 39.75794 24.8 21.9)"/><path fill-opacity=".6" d="M46 20L11 40l82-1z"/><circle r="1" fill="#000001" fill-opacity=".6" transform="matrix(-9.40878 -4.18737 11.26485 -25.31147 107.4 67.4)"/><path fill="#b1b7d1" fill-opacity=".6" d="M60 129h64v24H60z"/><ellipse cy="101" fill="#000025" fill-opacity=".4" rx="69" ry="45"/><path fill-opacity=".7" d="M103 155l3-37-23-3z"/><path fill="#ebf0ff" fill-opacity=".6" d="M130.2 98.6l-61-19.7.5 35.8 66.5-.7z"/><ellipse cx="153" cy="67" fill="#000007" fill-opacity=".6" rx="17" ry="21"/><path fill="#fff" fill-opacity=".5" d="M30 0h10v62H30z"/><ellipse cx="179" cy="169" fill-opacity=".7" rx="76" ry="35"/><path fill="#919598" fill-opacity=".7" d="M44.2 86.7l-18.6.5 3.4 47.7-19.2 3z"/><ellipse cx="92" cy="14" fill="#fff" fill-opacity=".4" rx="50" ry="12"/><circle r="1" fill="#fff" fill-opacity=".6" transform="matrix(-7.56828 -.2852 1.05233 -27.92469 128.3 41.4)"/><path fill="#e6ecf0" fill-opacity=".7" d="M87.6 129.5L79 150.8l-30.6-12.3 8.6-21.3z"/><path fill="#0a0402" fill-opacity=".6" d="M-14 63l-2 47 99-43z"/><ellipse cx="128" cy="93" fill="#f9fdff" fill-opacity=".6" rx="9" ry="7"/><path fill="#00010c" fill-opacity=".6" d="M49.7 54L19.1 16.6l2.4 16.5 45.8-15.5z"/><circle r="1" fill="#504b46" fill-opacity=".6" transform="rotate(8 -700 1260.2) scale(38.75489 18.22484)"/><path fill-opacity=".5" d="M51 33h40v9H51z"/><circle r="1" fill="#434040" fill-opacity=".6" transform="matrix(-14.5381 -19.719 58.4594 -43.09999 237 41.7)"/><path fill="#fff" fill-opacity=".5" d="M61.8 54.5L68 39.8l32.2 13.7L94 68.2z"/><path fill="#dae4ff" fill-opacity=".3" d="M46.4 77.2l1.9-22.4-21.5-26.1 9.1 41.7z"/><ellipse cx="148" cy="38" fill="#737671" fill-opacity=".6" rx="8" ry="34"/><path fill="#090207" fill-opacity=".6" d="M86.7 89.4l39.6-3.3-11.7-44.5-5.3 8.9z"/><path fill-opacity=".7" d="M39.1 129l8 15L19 159l-8-15z"/><path fill="#282b2b" fill-opacity=".6" d="M18.6 3.4l3.6-11.8 11.5 74.7-8 6.5z"/><path fill="#c2bfd3" fill-opacity=".5" d="M119 80h30v5h-30z"/><path fill="#f4f8ff" fill-opacity=".5" d="M106.3 153.7l.7-26.5 15.2.6-8.7 25.7z"/><path fill="#c3c8c8" fill-opacity=".6" d="M25 55L15 13l-4 49z"/><path fill="#c5c8cb" fill-opacity=".3" d="M171 75.7l12-48.4 88-39.7L154.7-16z"/><path fill="#fff" fill-opacity=".7" d="M69 0h29v32H69z"/><path fill="#060606" fill-opacity=".9" d="M144.7 174.3L3.9 185l-14.2-46.7 50.3 2.8z"/><path fill="#eff2f2" fill-opacity=".6" d="M128.1 65.3l7.3-14.7 8.7-50.7L115.7 63z"/><path fill="#e5e7ec" fill-opacity=".5" d="M57 86l22 19 9-26z"/><path fill="#000012" fill-opacity=".4" d="M73.2 111.1L146 124l-1.2 6.9L72 118z"/><path fill="#c6ced1" fill-opacity=".5" d="M10 127l12 11 11-21z"/><path fill="#313527" fill-opacity=".4" d="M139.8 4.8L63.5-6l93.4-10-9.7 33.5z"/><path fill="#05000b" fill-opacity=".4" d="M142.7 81.4l32 14.8-7-33L26.2 77z"/><ellipse cy="133" fill="#060004" fill-opacity=".5" rx="7" ry="144"/><path fill="#6f7684" fill-opacity=".5" d="M65-13L41 21l27 4z"/><path fill="#aab2b8" fill-opacity=".4" d="M15 114l1-14 31-13z"/><path fill="#7e8498" fill-opacity=".6" d="M71.2 73.2L53.9 54.1l12.3-16.7-.6-6.6z"/><circle r="1" fill="#ecf0f0" fill-opacity=".7" transform="matrix(.1189 -16.01166 6.44023 .04782 33.9 9.2)"/><path fill="#fbfefc" fill-opacity=".6" d="M95 8h15v44H95z"/><path fill="#030304" fill-opacity=".4" d="M82.1 32.1l5.7 12.6-49.7-11.5-9.8-9.3z"/><path fill="#977358" fill-opacity=".3" d="M244 26h12v86h-12z"/><path fill="#1b1713" fill-opacity=".5" d="M70.5 107.9l-40-7-7.4 15 43.7 1.8z"/><ellipse cx="198" cy="52" fill="#898075" fill-opacity=".5" rx="5" ry="26"/><path fill-opacity=".5" d="M94 121h12v25H94z"/><path fill="#070000" fill-opacity=".4" d="M158.5 46l10.7 15.5-15.5 5.5 2.7-61.5z"/><path fill="#c0c4c4" fill-opacity=".5" d="M150 9h3v61h-3z"/><ellipse cx="151" cy="132" fill="#0a0a08" fill-opacity=".7" rx="30" ry="9"/><path fill="#f4f5f5" fill-opacity=".7" d="M81 9h44L81 36z"/><path fill="#93979f" fill-opacity=".5" d="M115 154l-31-1 21-7z"/><path fill-opacity=".5" d="M53.3 6.9l-1 4.9L38.8 9l1-4.9z"/><path fill="#6a6a6a" fill-opacity=".8" d="M82.1 75.5l11.4-3.3-7.6-8.7-21.1 4.1z"/><path fill-opacity=".3" d="M61.8 154.1l-.9-.3 15.3-36 .9.4z"/><path fill="#726e69" fill-opacity=".6" d="M37 84h32v14H37z"/><circle r="1" fill="#1b1c1c" fill-opacity=".6" transform="matrix(-12.15116 -3.3075 8.13157 -29.87388 228.6 56)"/></g></svg>