<svg xmlns="http://www.w3.org/2000/svg" viewBox="0 0 300 199"><defs/><path fill="#444" d="M0 0h300v199H0z"/><g transform="translate(.6 .6) scale(1.17188)"><circle r="1" fill="#fff" fill-opacity=".6" transform="matrix(-68.03932 -.56152 .22817 -27.64773 150 50)"/><circle r="1" fill="#fdfdfd" fill-opacity=".5" transform="matrix(27.75059 -33.93853 46.3181 37.87303 28.7 137.5)"/><ellipse cx="32" fill="#f4f4f4" fill-opacity=".6" rx="16" ry="48"/><circle r="1" fill-opacity=".7" transform="matrix(-23.12506 -2.02318 5.65763 -64.66701 235.8 72.5)"/><circle r="1" fill="#adadad" fill-opacity=".5" transform="matrix(8.99313 52.06467 -24.92894 4.30598 189 30.8)"/><circle r="1" fill-opacity=".8" transform="matrix(16.92907 -23.93686 11.92777 8.43578 55.7 49.5)"/><circle r="1" fill="#fff" fill-opacity=".2" transform="matrix(6.58516 16.36903 -82.91589 33.35654 78.5 79.6)"/><circle r="1" fill="#fff" fill-opacity=".6" transform="matrix(1.9209 -4.46853 15.34266 6.5954 222.3 136.7)"/><circle r="1" fill="#fff" fill-opacity=".7" transform="rotate(-145.5 49.1 75.4) scale(27.58687 10.12461)"/><path fill="#020202" fill-opacity=".6" d="M24 16l-40-32L11 97z"/><circle r="1" fill="#727272" fill-opacity=".7" transform="matrix(7.53497 -14.98162 100.48302 50.5377 105.6 165.2)"/><path fill="#ededed" fill-opacity=".6" d="M62 116L16 69l17 49z"/><path fill="#c9c9c9" fill-opacity=".5" d="M58 26l3-31 53-11z"/><path fill="#dadada" fill-opacity=".8" d="M93.7 73.6L80.6 31.4l21.1-1.4 11.2 42.3z"/><path fill-opacity=".5" d="M93 21h35v10H93z"/><circle r="1" fill="#535353" fill-opacity=".6" transform="matrix(10.72533 4.52765 -12.45791 29.5109 7 136)"/><path fill="#0f0f0f" fill-opacity=".7" d="M188.6 16.6l-11.7-2.7 1.2-24.7 23.3-5.2z"/><circle r="1" fill="gray" fill-opacity=".7" transform="matrix(-1.13255 5.01087 -40.72332 -9.20426 133.5 17.5)"/><path fill="#232323" fill-opacity=".6" d="M35 32l6 67 26 7z"/><path fill="#1d1d1d" fill-opacity=".9" d="M233.5 91.3l31.8-4 11.2 91.4-31.8 4z"/><path fill="#d9d9d9" fill-opacity=".5" d="M51 22l-36 4 17 23z"/><ellipse cx="148" cy="17" fill="#a6a6a6" fill-opacity=".9" rx="3" ry="60"/><path fill="#d2d2d2" fill-opacity=".9" d="M23-.1l7.5 21.5L11.2 3.6 12.5-16z"/><circle cx="186" cy="48" r="31" fill="#b9b9b9" fill-opacity=".5"/><path fill="#d6d6d6" fill-opacity=".8" d="M-4.8 76.4L29.6 117l16-37.5-53.3 37.7z"/><circle r="1" fill="#1e1e1e" fill-opacity=".5" transform="matrix(-37.2707 -22.3259 8.80987 -14.70714 205.7 152.9)"/><path fill="#0e0e0e" fill-opacity=".7" d="M29.8 81l-1.6-30-16.4-37.1-16.9 28.5z"/><path fill="#020202" fill-opacity=".6" d="M145.7 15.5l2 7.8-35-30 29.7-9.3z"/><path fill="#7d7d7d" fill-opacity=".5" d="M184 9l9 67 28-80z"/><path fill="#0c0c0c" fill-opacity=".7" d="M216 7h40v82h-40z"/><path fill="#e3e3e3" fill-opacity=".4" d="M30 17h5v76h-5z"/><path fill-opacity=".6" d="M155 25l11-7-17-34z"/><path fill="#353535" fill-opacity=".5" d="M206 79l14 51L89 72z"/><path fill="#dcdcdc" fill-opacity=".5" d="M146 109l19 2 16 15z"/><circle cx="241" r="7" fill="#e2e2e2" fill-opacity=".6"/><path fill="#b4b4b4" fill-opacity=".9" d="M65.8 143.2l-.6-34.4-5.4-9.2-3.7 35.9z"/><path fill="#efefef" fill-opacity=".3" d="M7.8 17.7L3.5 6.6l-19.3-18.1-.2 46.1z"/><path fill="#101010" fill-opacity=".4" d="M100.9 89.8l-23-47.7 9-2.1 7.3 57.8z"/><path fill="#2d2d2d" fill-opacity=".8" d="M11.4 95.7l-23.3-32L14 61.8l7 28.7z"/><path fill="#f1f1f1" fill-opacity=".3" d="M133 4L91 20l13-14z"/><path fill="#070707" fill-opacity=".7" d="M216.8 105.6l-15.4-4.2 7.8-29 15.4 4.2z"/><path fill="#0a0a0a" fill-opacity=".6" d="M63.9 19.3L83.1 39 57.8 76 32.9 45.5z"/><path fill="#cacaca" fill-opacity=".7" d="M131.3 64.8L164.8 21l12.3 58.5-47.5-69.3z"/><path fill="#616161" fill-opacity=".8" d="M56.4 11.4L48.8 26l-10-33.4 52.6 21.1z"/><path fill="#d5d5d5" fill-opacity=".6" d="M217 140h23v6h-23z"/><path fill="#dedede" fill-opacity=".3" d="M214.7 62.2l1.5-47.8-12.6 14.8-1.7 53.4z"/><path fill="#484848" fill-opacity=".6" d="M42.9 131.9L10.3 99.4 33 130.6l14.3 15.3z"/><path fill="#888" fill-opacity=".5" d="M74 111L54 76l37 1z"/><path fill="#969696" d="M177.6 50.9l-9.7-27.7L205.5 50l-8.4-47.6z"/><path fill="#010101" fill-opacity=".5" d="M75.6 130.2L96.2 76l1.1 12.8-26.6 26.7z"/><path fill="#f4f4f4" fill-opacity=".4" d="M209.7 105.9l-9.5-4.4-.2-4.4-1.1 13.8z"/><path fill="#0b0b0b" fill-opacity=".5" d="M-1 25l29 2-8-16z"/><path fill="#151515" fill-opacity=".6" d="M215 22h16v108h-16z"/><path fill="#eaeaea" fill-opacity=".3" d="M46.7-15.8l39.6 40.7-28.4-4.2L91.7-6.7z"/><circle r="1" fill="#d3d3d3" fill-opacity=".6" transform="rotate(39 7.7 273.8) scale(13.20527 21.44997)"/><path fill="#020202" fill-opacity=".5" d="M72.3 24.8l45.8-11.2-4.8 16L100.6 19z"/><path fill="#ccc" fill-opacity=".6" d="M36.1 132.2L15.5 65.7 11 60.8l33.6 40.3z"/><path fill-opacity=".5" d="M169 0h2v30h-2z"/><path fill="#020202" fill-opacity=".4" d="M76.9 9.3l35 .6L122.8-16h23.5z"/><path fill="#414141" fill-opacity=".6" d="M197-16l16 39-16-8z"/><ellipse cx="97" cy="136" fill="#4f4f4f" fill-opacity=".8" rx="17" ry="18"/><path fill="#e2e2e2" fill-opacity=".5" d="M120 42h25v31h-25z"/><path fill="#323232" fill-opacity=".6" d="M207 141l-54-34 54 2z"/><path fill="#2d2d2d" fill-opacity=".6" d="M125.9 34.8l5.8-10.1-7.5-5.8-3 11.2z"/><path fill="#d6d6d6" fill-opacity=".5" d="M207 12h10v6h-10z"/></g></svg>