<svg xmlns="http://www.w3.org/2000/svg" viewBox="0 0 299 449"><defs/><path fill="#4e3828" d="M0 0h299v449H0z"/><g transform="translate(.9 .9) scale(1.7539)"><circle r="1" fill="#e3dddd" fill-opacity=".7" transform="matrix(9.40849 141.53052 -39.56139 2.62991 115.8 223)"/><ellipse cx="136" cy="240" fill="#c3c8ca" fill-opacity=".8" rx="73" ry="40"/><circle r="1" fill="#b39986" fill-opacity=".5" transform="matrix(86.07525 70.81555 -17.2769 20.99981 97.7 102.7)"/><path fill="#000d19" fill-opacity=".7" d="M91 172l-107 99L40 68z"/><path fill="#5a5753" fill-opacity=".6" d="M136 158h35v50h-35z"/><path fill="#ceaca2" fill-opacity=".8" d="M48.8 87.8l17.9 28L84 61.4l-13.9-8.8z"/><circle r="1" fill="#06171d" fill-opacity=".4" transform="matrix(27.95441 12.16901 -32.85642 75.4771 159.4 37.8)"/><ellipse cx="22" cy="219" fill="#161b1d" fill-opacity=".9" rx="43" ry="122"/><path fill="#1c0700" fill-opacity=".6" d="M102.4 102.7L83 113l-9.4-17.7L93 85z"/><circle r="1" fill="#d4c8c5" fill-opacity=".8" transform="matrix(18.6284 -12.1773 12.7728 19.53939 98.4 130.4)"/><ellipse cx="91" cy="226" fill="#d2dae3" fill-opacity=".6" rx="25" ry="29"/><path fill="#584221" fill-opacity=".7" d="M18.3 86.2l41.5-71.9 20 11.5-41.6 71.9z"/><circle r="1" fill="#ffc6b4" fill-opacity=".4" transform="matrix(-7.83662 -16.13888 12.0383 -5.84548 104.7 84.5)"/><path fill="#fbd7cd" fill-opacity=".4" d="M165.5 172.4l-14.4-4.1 9.4-32.7 14.4 4.1z"/><circle r="1" fill="#131206" fill-opacity=".4" transform="matrix(-26.7189 59.8923 -20.45678 -9.1261 113.3 4.5)"/><path fill="#b5beac" fill-opacity=".6" d="M121 39l4 26-13-13z"/><path fill="#1b1702" fill-opacity=".4" d="M137.1 220.5l33.7 10.8-33-.4-9.8-15.4z"/><path fill="#041e25" fill-opacity=".4" d="M175.9 133.2l-40.1.4-20.3 7.5 55.8-36.7z"/><path fill="#d59487" fill-opacity=".7" d="M76 178h36v19H76z"/><path fill="#aa907f" d="M149.2 120.3l-32 16.3 4.7-23.1 26.7-2.9z"/><path fill="#040907" fill-opacity=".5" d="M176 248l-28 23-31-9z"/><path fill="#e6ffff" fill-opacity=".5" d="M71.8 122.2l-2.8 1.2-16.8-39.6 2.8-1.2z"/><path fill="#d9d8da" fill-opacity=".6" d="M63.7 248.6l64.2 11.7-1-95.2L69.1 271z"/><path fill="#313330" fill-opacity=".7" d="M155.1 224l30.9-69.1-38.8 3.4 25.5-9.4z"/><path fill="#786031" fill-opacity=".5" d="M18.7 11.2l39.7 66-29.1 17.6-39.7-66z"/><path fill="#000006" fill-opacity=".5" d="M77.2 128.3l-2.8.9-9.6-29.5 2.8-.9z"/><path fill="#15191f" fill-opacity=".9" d="M69.4 219.7l-51.9-12 68.5-34-8.1-33.3z"/><path fill="#cecbcd" fill-opacity=".5" d="M78.3 135.8l-6.7-33.5 42.4 35.9-24.2 43.9z"/><path fill="#515248" fill-opacity=".6" d="M162.5 215.5l-30.7 22.3-2.3-3.3 30.7-22.3z"/><path fill="#121718" fill-opacity=".6" d="M145.6 20.8L160 98.6l-9.9 22.2 35.9-9.7z"/><ellipse cx="151" cy="243" fill="#47463c" fill-opacity=".4" rx="7" ry="6"/><path fill="#2f3433" fill-opacity=".6" d="M181.7 147.9l4.3 16.9-46.2 48.1-.3-9.3z"/><path fill="#cdcecb" fill-opacity=".5" d="M147 136l-17-1 6 45z"/><path fill="#d6e6e9" fill-opacity=".6" d="M57.4 99.4l-9-13.8 4.5.5L73 101.5z"/><path fill="#281f04" fill-opacity=".5" d="M41.8 62.1l27.6-13L36 43.2 92.2-16z"/><ellipse cx="107" cy="170" fill="#e2d8d2" fill-opacity=".5" rx="18" ry="11"/><path fill="#352a21" fill-opacity=".6" d="M137 167l12-20 12 8z"/><ellipse cx="122" cy="76" fill="#5b4537" fill-opacity=".5" rx="8" ry="25"/><circle r="1" fill="#352e10" fill-opacity=".4" transform="matrix(-16.15865 32.91 -12.41187 -6.09417 21.4 11.4)"/><path fill="#dbdcdd" fill-opacity=".5" d="M176.5 233l-23.2-10.6 12.3-14.3-2.2-15.3z"/><path fill="#cb998f" d="M106.1 203.8L73 190.2l3.2-9.6 18.1-5.2z"/><path fill="#a7a59c" fill-opacity=".8" d="M149.5 190.1l-24 14.9 8.7 66-3.4-52.3z"/><path fill="#5d3e2b" fill-opacity=".6" d="M79.2 93.7l-11.5-2.2 29.1 12.9-13.4-53.2z"/><path fill="#d7b8ae" fill-opacity=".7" d="M93.2 73.1l25 94.2-5.7-89.2-33.8-5.9z"/><path fill="#68574a" fill-opacity=".4" d="M144 23l4.7-20.4L176 9l-4.7 20.5z"/><circle cx="67" cy="5" r="3" fill="#f2ffea" fill-opacity=".6"/><path fill="#242119" fill-opacity=".6" d="M155 230l2-.5 4 14.5-2 .5z"/><path fill="#715337" fill-opacity=".5" d="M117.7 145.3l7.8-40.3 8.8 1.7-7.8 40.3z"/><path fill="#5a5a55" fill-opacity=".8" d="M144.7 197.2l-14.8-15 56.1 24-37.8-28.1z"/><path fill="#c8957f" fill-opacity=".7" d="M64.3 52.6L51.5 83.3l14.8 13.9 18-14z"/><path fill="#dcdcd4" fill-opacity=".4" d="M147.4 222.2l17.4-29-31.6 26.5 2.5 2.4z"/><path fill="#96b0c0" fill-opacity=".4" d="M63 234l18-56 5 42z"/><path fill="#c3b2ab" fill-opacity=".7" d="M147.9 177.3l.2 15.7-6.2-10.3-35.6-41.7z"/><path fill="#918b56" fill-opacity=".1" d="M-16 256.2L-2.4 54.8 10 222.2l-2.7 27.5z"/><path fill="#a39d83" fill-opacity=".5" d="M86.1 24.2L96 43.4l1.1-7.9-14.4-8.7z"/><path fill="#fffff9" fill-opacity=".5" d="M39 25l-4-6 6 3z"/><path fill="#5c554f" fill-opacity=".7" d="M124.9 69.5l-30.5 8.9 15.5-9 45 30.1z"/><path fill="#e8eaeb" fill-opacity=".6" d="M152 255l34-18-21-4z"/><path fill="#151613" fill-opacity=".6" d="M128 6h13v67h-13z"/><path fill="#fbd8d1" fill-opacity=".4" d="M148.9 121.1L148 109l-10.9 1.8-1.4 12.8z"/><path fill="#160d00" fill-opacity=".4" d="M76.1 99.3l21.5-4.1-1.5 14.2-15.1 1.4z"/><path fill="#b3ecff" fill-opacity=".5" d="M72 102h5v13h-5z"/><path fill="#464328" fill-opacity=".5" d="M129 237h3v15h-3z"/><path fill="#2d2519" fill-opacity=".8" d="M81.6 15.2l8.9 49.1L62 41.9l-.8 15.5z"/><path fill="#5d4833" fill-opacity=".5" d="M123-14l-14 63 18-4z"/></g></svg>