<svg xmlns="http://www.w3.org/2000/svg" viewBox="0 0 300 199"><defs/><path fill="#6b5237" d="M0 0h300v199H0z"/><g transform="translate(.6 .6) scale(1.17188)"><circle r="1" fill="#edebd2" fill-opacity=".4" transform="matrix(72.52417 76.15788 -184.66382 175.85298 172.6 91.9)"/><ellipse cx="57" cy="51" fill-opacity=".4" rx="63" ry="38"/><ellipse cx="216" cy="59" fill="#222522" fill-opacity=".5" rx="80" ry="21"/><circle r="1" fill="#fff" fill-opacity=".7" transform="matrix(16.66078 -7.95325 14.8555 31.1199 117 1.3)"/><circle r="1" fill="#d9c39e" fill-opacity=".7" transform="matrix(8.26275 -29.01567 157.5705 44.87115 85.8 165.7)"/><path fill="#dce0e1" fill-opacity=".7" d="M50.2-12.4l27.7 6.3-.2 21.6L42 5.7z"/><circle r="1" fill="#e5c89d" fill-opacity=".5" transform="matrix(-136.18226 -24.49631 4.0478 -22.50297 216.1 131.4)"/><circle r="1" fill="#090c0b" fill-opacity=".7" transform="matrix(24.94664 -4.82264 11.0716 57.27132 0 21.3)"/><circle r="1" fill="#fff" fill-opacity=".5" transform="matrix(-2.78234 -36.51998 2.61663 -.19935 106 46.3)"/><path fill="#00181a" fill-opacity=".5" d="M194.1 27l16-25.4L221.8 9l-16 25.4z"/><path fill="#9b7a4d" fill-opacity=".6" d="M-16 118L4 75l160 73z"/><circle r="1" fill="#94b1c1" fill-opacity=".5" transform="matrix(-15.03188 -11.42577 26.68768 -35.1106 170.4 20.2)"/><path fill="#c3ae90" fill-opacity=".4" d="M61.2 42.5l19-28.2 16.6 11.2-19 28.2z"/><circle r="1" fill="#1a1309" fill-opacity=".5" transform="matrix(-8.79396 30.073 -4.6526 -1.36052 91.6 46.7)"/><circle r="1" fill="#7f9dae" fill-opacity=".4" transform="matrix(12.04571 26.0693 -31.91589 14.74721 241.6 31)"/><path fill="#774f23" fill-opacity=".4" d="M30 63h102v31H30z"/><circle r="1" fill="#54361a" fill-opacity=".4" transform="matrix(1.374 -4.53618 80.85101 24.48977 40.8 115.6)"/><ellipse cx="186" cy="66" fill="#3c2209" fill-opacity=".3" rx="48" ry="10"/><path fill="#ceb28b" fill-opacity=".5" d="M256 84l-14 33-86-44z"/><circle r="1" fill="#ffe6dc" fill-opacity=".4" transform="rotate(153.3 58 42) scale(4.02249 26.27916)"/><path fill="#384035" d="M213.6 15.1l-14.8 17.4 17-48.5h-29.9z"/><circle r="1" fill="#c3a777" fill-opacity=".5" transform="rotate(-75.6 112.2 -1) scale(15.00076 44.66166)"/><path fill="#fffff7" fill-opacity=".5" d="M88 58h22v4H88z"/><circle r="1" fill="#8c6d47" fill-opacity=".5" transform="rotate(-165.5 91.8 64.6) scale(107.29674 7.13801)"/><path fill="#47554f" fill-opacity=".5" d="M163 10l-21 5-14-31z"/><path fill="#fce3cd" fill-opacity=".3" d="M77 76.7L83.1 40 71.4 51.3l13.1 24.9z"/><path fill="#c1ab86" fill-opacity=".8" d="M123.8 149.6L-16 103.4 55.4 185-16 142.3z"/><ellipse cx="33" cy="53" fill="#150600" fill-opacity=".4" rx="40" ry="13"/><circle r="1" fill="#221a0b" fill-opacity=".6" transform="matrix(21.66617 3.85933 -.78574 4.4111 44 78.7)"/><path fill="#5f523e" fill-opacity=".6" d="M244.6 30.8L274 36l-8.7 49.2L236 80z"/><path fill="#dfceb4" fill-opacity=".6" d="M197.7 187.2l-81.9-18.9 4.5-19.5 81.9 18.9z"/><path fill="#b8c5ca" fill-opacity=".5" d="M161.1 15.5l-19.3-.6 5.9 43.2 6.1-2.6z"/><circle r="1" fill="#fffae7" fill-opacity=".5" transform="matrix(-.99255 .12187 -4.01597 -32.70746 106.3 51.1)"/><path fill="#fcfffd" fill-opacity=".6" d="M132.7-8.2L143 30.9l-33-12.1.3-34.8z"/><path fill="#a6b1b1" fill-opacity=".7" d="M269.9-16l-32 43.3-15.1-33.4-34.3 22.9z"/><path fill="#252015" fill-opacity=".7" d="M103.8 40.4l-5.9-28.3-7.1 58.2-11.6-15.4z"/><path fill="#654f33" fill-opacity=".5" d="M120-16L45 32l19 21z"/><path fill="#56818f" fill-opacity=".3" d="M59.7 7.1L49.9-16H21.4l3.2 49.5z"/><path fill="#bbaf99" fill-opacity=".9" d="M91.9 23.6L75 61.9 80.2 43l15.7-12z"/><path fill="#70776e" fill-opacity=".4" d="M125 38h127v13H125z"/><path fill="#0a0805" fill-opacity=".6" d="M204.4 52.3l5.5 1-1.2 18.5-11.8-12z"/><path fill="#722600" fill-opacity=".5" d="M114 39l1 15 19 16z"/><path fill="#a17f5d" fill-opacity=".7" d="M123.1 54.9l-11.6-15.7 10.6 39L96.7-16z"/><path fill="#a17d53" fill-opacity=".5" d="M143.1 78.8l-24.3 43.1-16.3-46.2-32.2 11.8z"/><path fill="#fffef6" fill-opacity=".4" d="M85.2 17.6l-2 5.5-11-34.9L54.6 1.4z"/><ellipse cx="4" cy="87" fill="#dec996" fill-opacity=".3" rx="30" ry="6"/><circle r="1" fill="#cebda1" fill-opacity=".4" transform="matrix(-36.08566 -5.0173 3.38052 -24.31355 214.8 133.8)"/><circle r="1" fill="#9c8257" fill-opacity=".5" transform="matrix(-64.62697 -7.0358 .10823 -.99413 20 68.7)"/><path fill="#684823" fill-opacity=".4" d="M266 110.4l-44.5-4.5L49.8 79.6l183.5 24.1z"/><circle cx="217" cy="8" r="5" fill="#000c00" fill-opacity=".4"/><circle r="1" fill="#a69678" fill-opacity=".6" transform="matrix(8.37238 1.50768 -5.56273 30.89068 255 161.8)"/><path fill="#baa279" fill-opacity=".7" d="M38.7 93.8l-27.6 9.6 42.3 8.5 98.9 29.1z"/><path fill="#172833" fill-opacity=".2" d="M144.3 69.9l-1.9-53.5-7.9 34.9-9.4-5.4z"/><circle r="1" fill="#f9ead9" fill-opacity=".5" transform="matrix(-2.55815 -28.93926 1.46749 -.12972 107.6 60.3)"/><path fill="#8b9591" fill-opacity=".5" d="M143.3-3.8L185 18.7l29.2-16.3-30.7 43.8z"/><path fill="#010903" fill-opacity=".3" d="M103.8 22.1l-17.6-.4.1-30.4-23.6 2.5z"/><path fill="#f8e4cf" fill-opacity=".4" d="M121.4 55.1l-24.3 2.5 1.7 5.3 8.6-2.3z"/><path fill="#52391f" fill-opacity=".6" d="M-24.5 108.5l-.8-3 89.8-24 .8 3z"/><path fill="#e5c0a2" fill-opacity=".5" d="M117.4 59l5-.7 4.2 26.6-5 .8z"/><path fill="#cfad81" fill-opacity=".4" d="M135.2 89.8l12.6-15 73.7 25.4-88.1-8.4z"/><path fill="#584026" fill-opacity=".7" d="M116.4 91L38.7 74.5l65.2 12 12.1-5.8z"/><path fill="#acb5b6" fill-opacity=".3" d="M149.9 64.9l24.5-62.6-43.2 51.5 1.1-23.4z"/><path fill="#5e3719" fill-opacity=".5" d="M124 67l16 12-22-32z"/><path fill="#000302" fill-opacity=".5" d="M84 38h20v7H84z"/><path fill="#091413" fill-opacity=".4" d="M209 44l-4-25-7 7z"/></g></svg>