<svg xmlns="http://www.w3.org/2000/svg" viewBox="0 0 300 199"><defs/><path fill="#32353d" d="M0 0h300v199H0z"/><g transform="translate(.6 .6) scale(1.17188)"><circle r="1" fill="#fcede3" fill-opacity=".7" transform="matrix(92.66662 161.031 -55.56008 31.97251 170.3 162.5)"/><path fill="#ebe1dc" fill-opacity=".6" d="M152 108L75 62l-90 99z"/><circle r="1" fill="#bfb7ab" fill-opacity=".9" transform="matrix(63.95037 -127.15116 19.02496 9.56856 254.8 125.4)"/><ellipse cx="120" cy="34" fill="#e8e6e5" fill-opacity=".9" rx="27" ry="41"/><circle r="1" fill="#0c0c0c" fill-opacity=".8" transform="matrix(-17.14781 13.5283 -40.12282 -50.85772 193.5 59.6)"/><circle r="1" fill-opacity=".6" transform="matrix(51.24408 -89.86737 35.40267 20.18728 21.6 41.4)"/><path fill="#f4edec" fill-opacity=".6" d="M-23.4 129.7l37.4-6.6 9.4 53.2-37.4 6.6z"/><circle r="1" fill="#736a5f" fill-opacity=".8" transform="matrix(-6.523 -32.1266 16.54447 -3.3592 89.4 150.9)"/><path fill="#dcd6d5" fill-opacity=".7" d="M180 129l12-39 75 54z"/><circle r="1" fill="#000002" fill-opacity=".4" transform="rotate(-71.2 94.4 31.8) scale(46.33086 9.68255)"/><path fill="#f1edeb" fill-opacity=".6" d="M80 114.5l-43.4 28.7-8.3-18.6 46.2-39.7z"/><circle r="1" fill="#2b1102" fill-opacity=".7" transform="matrix(4.43075 -8.88976 6.5851 3.28209 86.3 59.3)"/><path fill="#682600" fill-opacity=".4" d="M147.3 47.4l3.2 77.3 4.5 6.9 16.2-88.2z"/><circle r="1" fill="#f5f8fd" fill-opacity=".5" transform="rotate(-53.8 68.4 -89.5) scale(74.06543 9.52204)"/><ellipse cx="234" cy="95" fill="#26292d" fill-opacity=".8" rx="10" ry="27"/><path fill="#100e11" fill-opacity=".6" d="M4 0h41v119H4z"/><path fill="#fff5eb" fill-opacity=".6" d="M57.2 163l2 7.7-16.4 4.4-2-7.8z"/><circle r="1" fill="#080706" fill-opacity=".6" transform="rotate(-37 90 -243.2) scale(24.0479 27.07145)"/><circle r="1" fill-opacity=".5" transform="matrix(16.29544 25.30966 -9.57835 6.16695 188.4 70.8)"/><circle r="1" fill="#e7e7e5" fill-opacity=".5" transform="matrix(-2.73828 -9.49546 3.25708 -.93927 74.6 141.8)"/><path fill="#2e2d30" d="M13.9 122.6l-27.2-21.1 43.2 29.3 2.3 54.2z"/><path fill="#6e6457" fill-opacity=".9" d="M66.9 135.7l28.8-18.6-33.8 5.9 1.3 3.5z"/><path fill="#f6f4f2" fill-opacity=".5" d="M59 74h19v46H59z"/><ellipse cx="86" cy="81" fill="#5c1700" fill-opacity=".2" rx="8" ry="34"/><circle r="1" fill="#ebeaeb" fill-opacity=".7" transform="matrix(18.18388 -32.97872 17.00036 9.3737 101.8 15)"/><path fill="#343840" fill-opacity=".6" d="M243 100.6l-10.7 5.5L177-2.6l10.7-5.5z"/><path fill="#efeae7" fill-opacity=".6" d="M84.8 85.2l56.1 4.1-.8 28.4-39.5-58.1z"/><path fill="#875937" fill-opacity=".6" d="M158 46l11 57-26-49z"/><circle r="1" fill="#7b808e" fill-opacity=".5" transform="matrix(-3.56113 -1.04666 25.82812 -87.87736 66.3 49.2)"/><circle r="1" fill="#16110d" fill-opacity=".5" transform="matrix(2.29206 -.23282 2.82842 27.84468 101 152.6)"/><path fill="#e5e1de" d="M143 57.7l7.3-30.6-59.1 47.1 58.3 3.7z"/><path fill="#fff" fill-opacity=".5" d="M90 131h7v14h-7z"/><path fill="#bab6b7" fill-opacity=".6" d="M.9 186.1l-11.2-52.8 25.4-5.4 11.2 52.8z"/><path fill="#ddd8d5" fill-opacity=".5" d="M15.6 121.9l25.7-4.4 9.4 21.4 27.1 2.6z"/><path fill-opacity=".5" d="M82 51l18 4-8-7z"/><path fill="#ab8877" d="M165.4 57.7l-15 27.9-31.7-6.5 44.4 22.7z"/><path fill="#ebe8e8" fill-opacity=".5" d="M146.6 20.6l10.6 22.7-21.8 10.1-10.6-22.7z"/><circle r="1" fill="#20242e" fill-opacity=".6" transform="rotate(14.6 -138.5 252.2) scale(6.59502 64.54712)"/><path fill="#fcf9f5" fill-opacity=".5" d="M247 101l13-44 11 35z"/><path fill="#d4ccc9" fill-opacity=".8" d="M258.2 132.6l-35.8-16.1-49-37.9-13.5 52z"/><path fill="#e4dcdc" fill-opacity=".5" d="M154 98l-44 41-26-66z"/><path fill="#090b0a" fill-opacity=".5" d="M149.8 30.6L167.7-16l62.2 124.8-45.6-21.3z"/><path fill="#b4a07e" fill-opacity=".5" d="M73 185l-12-24 8-4z"/><path fill="#c09071" fill-opacity=".5" d="M93.4 53.5L76.9 82.2l4.7 17.8 18.5-41.6z"/><path fill="#ded0d4" fill-opacity=".8" d="M128.9 171.3l19.8 13.7-9.7-26.2-17.6-46.1z"/><path fill="#fff1d6" fill-opacity=".4" d="M157.6 63l5.4-4.4L184.4 85l-5.4 4.4z"/><path fill="#cec9ca" fill-opacity=".9" d="M32.5 146.3l27.2-8.9 5.3-7.5-33.3-7.5z"/><path fill="#131213" fill-opacity=".5" d="M69 145h7v25h-7z"/><path fill="#2b2924" fill-opacity=".6" d="M64 124l10 5-6 10z"/><circle r="1" fill="#bfb5a9" fill-opacity=".7" transform="matrix(98.17283 -20.88135 3.77454 17.74586 243 148.4)"/><path fill="#060300" fill-opacity=".4" d="M86 134h4v31h-4z"/><circle r="1" fill="#312110" fill-opacity=".5" transform="matrix(-1.98848 -3.75558 6.5076 -3.4456 153 51.4)"/><path fill="#242123" fill-opacity=".6" d="M64.6 159.3l-24.7 7.1L24.6 185l-4.9-46.5z"/><path fill="#292924" fill-opacity=".6" d="M215.5 107.7l26.2.6 22.6-11.7-33.1 23z"/><circle r="1" fill="#2a2d35" fill-opacity=".7" transform="rotate(169.1 115.7 28) scale(35.7848 47.59042)"/><path fill="#f1f1f1" fill-opacity=".5" d="M53 102l31-29-13-18z"/><path fill="#6f693f" fill-opacity=".5" d="M118 82l16-9-2 9z"/><path fill="#e6e3e1" fill-opacity=".7" d="M110 64l37 21-4-55z"/><circle r="1" fill="#8e715f" fill-opacity=".5" transform="matrix(2.78844 1.7154 -9.00754 14.64205 151.4 169)"/><path fill="#e1dde5" fill-opacity=".6" d="M205.1 98.8l-2.9 36.2 46.8-4-16.5 1.6z"/><path fill="#000001" fill-opacity=".5" d="M87.8 50l4.3 4.2L82 64l-4-4.2z"/><path fill="#cbc1ba" fill-opacity=".7" d="M155 102l38 50 8-52z"/><path fill="#b3978e" fill-opacity=".7" d="M85.3 113.8l18.2 12.3-2.8 4.1L82.5 118z"/><path fill="#dbd9d7" fill-opacity=".4" d="M90.6 147.2l-.4-15.4 9.1 13-2.8 7.2z"/><path fill="#e6e4e2" fill-opacity=".6" d="M88 13l47-16 15 31z"/></g></svg>