<svg xmlns="http://www.w3.org/2000/svg" viewBox="0 0 300 199"><defs/><path fill="#6b4b37" d="M0 0h300v199H0z"/><g transform="translate(.6 .6) scale(1.17188)"><circle cx="161" cy="96" r="162" fill="#999997" fill-opacity=".6"/><path fill="#352320" fill-opacity=".6" d="M47 6h27v152H47z"/><circle cx="137" cy="133" r="68" fill="#c3b3ac" fill-opacity=".4"/><ellipse cx="233" cy="83" fill="#472909" fill-opacity=".4" rx="53" ry="40"/><ellipse cx="98" cy="117" fill="#674f40" fill-opacity=".7" rx="78" ry="15"/><path fill="#bab8af" fill-opacity=".6" d="M138-16.4l90.4 17.6-8.4 43.2-90.4-17.6z"/><circle r="1" fill="#e5e3e1" fill-opacity=".5" transform="matrix(31.33657 -15.20035 9.85657 20.31999 203.9 169)"/><circle r="1" fill="#ffede7" fill-opacity=".4" transform="matrix(-21.3566 12.39445 -10.37313 -17.87372 156.4 82.7)"/><circle r="1" fill="#c3c5d4" fill-opacity=".5" transform="matrix(-16.9534 -14.63379 22.83426 -26.45374 3 108.1)"/><ellipse cy="32" fill="#001423" fill-opacity=".5" rx="20" ry="47"/><circle r="1" fill="#4e3f1d" fill-opacity=".5" transform="matrix(6.8091 -35.39117 18.2571 3.51258 101.4 30.4)"/><circle r="1" fill="#3b2928" fill-opacity=".5" transform="matrix(-19.88287 19.30907 -16.2131 -16.6949 23.8 158.1)"/><ellipse cx="150" cy="46" fill="#412511" fill-opacity=".5" rx="24" ry="14"/><path fill="#b2afbf" fill-opacity=".5" d="M20 0h28v72H20z"/><path fill-opacity=".5" d="M49 16h23v42H49z"/><path fill="#ffe3c7" fill-opacity=".5" d="M199.8 89.8l4.5-2.2 19.9 42.6-4.5 2.2z"/><path fill="#645249" fill-opacity=".7" d="M31 74h43v88H31z"/><path fill="#381606" fill-opacity=".7" d="M247 93l23 60-16 11z"/><path fill="#e2d7d3" fill-opacity=".6" d="M103.3 63.8l-7.4 2.5 23.7 35.9-9.5-49.2z"/><path fill="#554639" d="M135.7 35.1l68.9 18.3-6.6 66.2L184.6 59z"/><path fill="#dbeffd" fill-opacity=".3" d="M70.1 162.9l74.1 22.1 45.2-55-92.8 33z"/><path fill="#2e0c00" fill-opacity=".5" d="M128.1 75l-3-15.6 12.8-2.5 3 15.7z"/><path fill="#fdd0bf" fill-opacity=".5" d="M147 139l-24-51 15-3z"/><path fill="#cdb7ad" fill-opacity=".5" d="M59.2 83.4l6.4-8.9 33.2 24.1-6.4 8.9z"/><path fill="#a78f7b" d="M212.5 84.1l-43.2 13.8-13.9 36.5L194 96.7z"/><circle r="1" fill="#692b22" fill-opacity=".6" transform="rotate(119.8 18.7 60.1) scale(6.87331 20.88957)"/><ellipse cx="79" cy="130" fill="#796e69" fill-opacity=".5" rx="107" ry="13"/><path fill="#351a09" fill-opacity=".6" d="M65.9 119L33.1 99.9l-8.6 18.4L126 106.2z"/><ellipse cx="203" cy="23" fill="#454f3d" fill-opacity=".9" rx="2" ry="66"/><path fill="#d3beac" fill-opacity=".9" d="M187.6 91.2l-6.2-1.4 13.6 42.8 17.4 34.8z"/><path fill="#2f0700" fill-opacity=".5" d="M142 103h21v11h-21z"/><path fill-opacity=".6" d="M112 185l16-20-11 1z"/><path fill="#5d4d40" d="M77.9 87.8l28.2-40 14.4 30.4-4.2-34.4z"/><ellipse cy="46" fill="#959698" fill-opacity=".6" rx="23" ry="5"/><path fill="#fff4ee" fill-opacity=".6" d="M67 181l-18-28 3 32z"/><path fill="#d3d9d7" fill-opacity=".3" d="M199.3-22l4.3 61.8-32.9 2.3-4.3-61.9z"/><path fill-opacity=".5" d="M196 161h8v6h-8z"/><path fill-opacity=".6" d="M143 157v4h-10v-4z"/><path fill="#cbc3b8" fill-opacity=".8" d="M217.6 130.5l-27.4-11.4 28.7-3-11.6 12.1z"/><path fill="#8d7971" fill-opacity=".7" d="M146 91.4l-37.3-47.8 20 30.6 32.6 6.7z"/><path fill="#ffffec" fill-opacity=".5" d="M75 101h17v5H75z"/><path fill="#755948" fill-opacity=".8" d="M85.1 138.4l49.6-18.7-2.4-16.8-4.7-9.6z"/><path fill="#64615f" d="M20.4 63.6l-22.2-6.2-14.2-1.6 35.1 24.3z"/><path fill="#3c3a31" fill-opacity=".5" d="M211 149l13-9-22-9z"/><path fill="#d2ebfd" fill-opacity=".4" d="M74.3 161.8l21.3 12.8 2.4-41.5-8.4 20z"/><path fill="#e6fbff" fill-opacity=".5" d="M240 164h16v6h-16z"/><ellipse cx="230" cy="3" fill="#012201" fill-opacity=".4" rx="3" ry="34"/><ellipse cx="166" cy="137" fill="#d8cfc4" fill-opacity=".5" rx="6" ry="26"/><path fill="#a38f7d" d="M203.4 49.7l4.4-16.3 47.9 5.9-7.6 5.2z"/><path fill-opacity=".5" d="M229 117h4v22h-4z"/><circle r="1" fill="#251716" fill-opacity=".4" transform="rotate(-130.9 71 66.2) scale(28.96474 6.37057)"/><path fill-opacity=".5" d="M96 159h13v4H96z"/><path fill="#ecf5f8" fill-opacity=".5" d="M155.5 99l-5.3-9.5 26.3-14.6 5.3 9.6z"/><ellipse cx="79" cy="35" fill="#bbb4c0" fill-opacity=".4" rx="4" ry="37"/><path fill="#030a10" fill-opacity=".3" d="M17.4 48.7L-16 15.4l35.3-25 2.2 36.8z"/><path fill="#89898c" fill-opacity=".6" d="M91.6-16L51.7 9.9l29.1 12.4 14-38.3z"/><path fill="#92969b" fill-opacity=".5" d="M48 120h19v18H48z"/><path fill="#262d31" fill-opacity=".7" d="M145.4 183.7l25.5-19.2-9.7-1.4-3.3 21.9z"/><path fill="#3b2716" fill-opacity=".5" d="M168 136l10-3 5-21z"/><path fill="#353732" fill-opacity=".5" d="M137.9 137.3l-13.1.2-1.6-9.8 12.6-6.3z"/><path fill="#1a0c07" fill-opacity=".6" d="M29.9 185l-17.5-41.7 13.4 14.4 7.3 24z"/><path fill="#291e1c" fill-opacity=".4" d="M86.3 83.6L69.6 97.9l-12.2-4.7 1.5 31.6z"/><path fill="#080404" fill-opacity=".5" d="M153.2 148.8l-6.9 1.4-.1 3.1 12.9-1.2z"/><path fill-opacity=".5" d="M144 56l5 8 1-16z"/><path fill="#ebd6cc" fill-opacity=".4" d="M142.5 47.8l3.4 37.1-10.5-30.3.9 4.3z"/></g></svg>