<svg xmlns="http://www.w3.org/2000/svg" viewBox="0 0 300 199"><defs/><path fill="#654132" d="M0 0h300v199H0z"/><g transform="translate(.6 .6) scale(1.17188)"><circle r="1" fill="#eaf0f7" fill-opacity=".6" transform="matrix(-8.45457 254.8598 -21.60025 -.71655 247.7 65.8)"/><circle r="1" fill="#fffffb" fill-opacity=".7" transform="matrix(-3.1464 40.8911 -14.89234 -1.1459 137.3 135.3)"/><circle r="1" fill="#f0c9ac" fill-opacity=".6" transform="rotate(77.1 11 82.1) scale(42.44506 16.45662)"/><ellipse cx="20" cy="133" fill="#231901" fill-opacity=".6" rx="59" ry="165"/><circle r="1" fill="#4b4d60" fill-opacity=".6" transform="matrix(-23.23487 -7.8194 22.25741 -66.13656 212.7 112.8)"/><circle r="1" fill="#e3fcf8" fill-opacity=".6" transform="matrix(1.10125 -16.51616 10.89185 .72624 95 145.3)"/><circle r="1" fill="#e7dffe" fill-opacity=".3" transform="rotate(-145.7 146.9 25) scale(25.05436 126.95375)"/><path fill="#de9d83" fill-opacity=".5" d="M207.7 107.2l-45.3-56 17.9-14.4 45.3 56z"/><ellipse cx="135" cy="31" fill="#0a1a00" fill-opacity=".3" rx="37" ry="60"/><circle r="1" fill="#081525" fill-opacity=".5" transform="matrix(30.11941 29.59826 -16.30636 16.59347 178.4 108.5)"/><circle r="1" fill="#f2f5e7" fill-opacity=".6" transform="matrix(10.6838 -1.69215 20.67999 130.56832 256 51.8)"/><path fill="#ffe9cc" fill-opacity=".3" d="M116.9 84.3l3.7 100.7 37.2-51.5L142 91.6z"/><path fill="#000702" fill-opacity=".6" d="M65-14.2L86.4 0l16.7 7.9-60.7 14.3z"/><path fill="#593113" fill-opacity=".5" d="M195 43h46v33h-46z"/><path fill="#2f3242" fill-opacity=".7" d="M228.9 86.6l-78.6 61.3 38.8-1 56.4-51.7z"/><path fill="#b79382" fill-opacity=".9" d="M255.8 65.5l-67.2 31.4 11.8-26 30.3 5.5z"/><circle r="1" fill="#010500" fill-opacity=".5" transform="rotate(92.8 92.6 88.2) scale(14.10601 33.76603)"/><ellipse cx="236" cy="16" fill="#d9c8a0" fill-opacity=".5" rx="16" ry="25"/><ellipse cx="115" cy="126" fill="#1f1a09" fill-opacity=".3" rx="13" ry="30"/><path fill="#e7a37f" fill-opacity=".4" d="M197 52.6l-11-19.4-20.9 9.5 17 27.8z"/><path fill="#161928" fill-opacity=".3" d="M235.2 140.6l-79.4-65 93 67.3-22.1 7.5z"/><circle r="1" fill="#f3dad7" fill-opacity=".8" transform="matrix(65.35198 -63.547 10.9868 11.29887 255 154.3)"/><ellipse cx="67" cy="144" fill="#494031" fill-opacity=".5" rx="20" ry="92"/><path fill="#e8c5ad" fill-opacity=".6" d="M92.4 79l12.4-14.3-9.9-39.1L83 82.2z"/><path fill="#542d20" fill-opacity=".5" d="M76 33l14 32-2-27z"/><path fill="#fffef3" fill-opacity=".4" d="M148 114l-39 65 35-10z"/><ellipse cx="131" cy="72" fill="#452e15" fill-opacity=".5" rx="30" ry="18"/><path fill="#f9b0c7" fill-opacity=".3" d="M171.7 151.6l13.3-9.5.9 10.4-16.6 32.5z"/><path fill="#100200" fill-opacity=".3" d="M183.2 74.2l23-2.6-55.5 41.4-11.6-32.5z"/><path fill="#293b57" fill-opacity=".4" d="M172.8 111.2l79.1 1.8 8.7 13.2-23.7-8.1z"/><path fill="#b38459" fill-opacity=".5" d="M243 81l4-35-29-35z"/><path fill="#2f3849" fill-opacity=".4" d="M217 159l-64-31 52-42z"/><path fill="#f6d2b9" fill-opacity=".2" d="M119.2 91.5L105 112.9 55.9 14.5l49.3 61.7z"/><path fill="#241d15" fill-opacity=".6" d="M217.7 44.4l-7.6 27.1L197.8-16l-18.1 36.3z"/><path fill="#321e0d" fill-opacity=".7" d="M98 106.8L82.4 95-16 165.5l97-42.9z"/><path fill="#d4e0d8" fill-opacity=".3" d="M112 141.8l-19.2 16L78 140.2l19.2-16z"/><circle r="1" fill="#fdebde" fill-opacity=".5" transform="matrix(12.1153 26.34053 -5.15493 2.371 141.6 115.7)"/><circle cx="41" cy="91" r="27" fill="#804613" fill-opacity=".3"/><circle r="1" fill="#cb9477" fill-opacity=".5" transform="matrix(-5.5055 38.6837 -5.2599 -.7486 124 138.4)"/><path fill="#343e4f" fill-opacity=".6" d="M163 115l19 26-37 19z"/><path fill="#211509" fill-opacity=".5" d="M44-16L0 1l83 94z"/><circle r="1" fill="#211b12" fill-opacity=".4" transform="matrix(-1.60693 56.43392 -4.95984 -.14123 111.3 162.6)"/><circle r="1" fill="#321700" fill-opacity=".6" transform="matrix(1.63332 92.7868 -23.74307 .41795 5.6 157.7)"/><path fill="#ebd1cf" fill-opacity=".6" d="M241.6 111.1l-16.9 2.7 21.8-13.8 24.5 9.8z"/><path fill="#0b0d18" fill-opacity=".5" d="M177 177l24-38-7 28z"/><path fill="#a25138" fill-opacity=".3" d="M155.8 105.5l20.9 13.2L205.1 65l-57.4 61.2z"/><circle r="1" fill="#6a6b62" fill-opacity=".5" transform="matrix(-5.33367 -2.77653 10.93424 -21.00449 100.4 116)"/><path fill="#ad93a6" fill-opacity=".4" d="M203.1 134.2l24.6 31.2 16.9-20.8-27.5-10.2z"/><circle r="1" fill="#b66361" fill-opacity=".5" transform="matrix(-9.32745 6.15032 -2.32616 -3.5278 213.2 101.8)"/><path fill="#4b2b11" fill-opacity=".5" d="M227 74l9 6V44z"/><path fill="#423024" fill-opacity=".6" d="M101.6 110.2l6.6-6.6-5.1 75.4 25.1-88.1z"/><ellipse cx="157" cy="55" fill="#6f4538" fill-opacity=".4" rx="17" ry="21"/><ellipse cx="228" cy="89" fill="#315791" fill-opacity=".3" rx="30" ry="4"/><path fill="#dab89d" fill-opacity=".8" d="M99.9 41.2L86.1 30.1l-12.2-4.7 15.9-7.3z"/><path fill="#e8cbd8" fill-opacity=".5" d="M203.6 83l19.5-10.3 3.3 6.2-19.5 10.4z"/><path fill="#6f8074" fill-opacity=".4" d="M106.3 145l-14.9 29.6-27.2-67.5 34.6 59.8z"/><circle r="1" fill="#f3eef5" fill-opacity=".3" transform="matrix(-9.26313 -.01575 .07355 -43.26451 253 74)"/><ellipse cx="116" cy="70" fill="#4d3925" fill-opacity=".8" rx="14" ry="16"/><circle cx="80" cy="36" r="6" fill="#2f1a11" fill-opacity=".4"/><path fill="#617ca0" fill-opacity=".5" d="M169 121l-9 12 3 16z"/><path fill="#1c273b" fill-opacity=".5" d="M229.2 98.7l19.1-.4-20.4 10.6-30.5 37.4z"/><path fill="#454659" d="M221.1 156.9l31.2 28.1-42.9-38.6-20.6 15.6z"/><path fill="#1d0b05" fill-opacity=".6" d="M200.3 50l13.3-5.9 5.5 30.5-.1.4z"/><path fill="#ae785b" fill-opacity=".4" d="M70 10l16 3-26 26z"/><path fill="#1e0c00" fill-opacity=".3" d="M136.7 73.7l5.5-19-18.8-9.7L66.7-8.7z"/></g></svg>