<svg xmlns="http://www.w3.org/2000/svg" viewBox="0 0 300 199"><defs/><path fill="#543b33" d="M0 0h300v199H0z"/><g transform="translate(.6 .6) scale(1.17188)"><circle r="1" fill="#e4ecf1" fill-opacity=".5" transform="rotate(-7.6 797.8 -648.1) scale(164.4373 73.32626)"/><circle r="1" fill="#fff" fill-opacity=".5" transform="matrix(24.83783 3.93957 -8.32392 52.47988 57.3 94.7)"/><ellipse cx="52" cy="2" fill="#d4e4f2" fill-opacity=".6" rx="59" ry="10"/><circle r="1" fill="#300" fill-opacity=".3" transform="matrix(-29.16913 -57.45884 14.07914 -7.1473 109.8 108.4)"/><circle r="1" fill="#f6f7eb" fill-opacity=".5" transform="rotate(1.7 -1146.5 4453) scale(13.15224 83.55744)"/><circle r="1" fill="#1d0500" fill-opacity=".4" transform="matrix(18.52538 -46.55224 19.73412 7.85316 107.2 12.6)"/><ellipse cx="6" cy="98" fill="#fff" fill-opacity=".4" rx="15" ry="68"/><circle r="1" fill="#6b6771" fill-opacity=".7" transform="matrix(-19.57208 -27.7452 113.00177 -79.71398 238.5 102.4)"/><ellipse cx="178" cy="63" fill="#dce9fa" fill-opacity=".7" rx="27" ry="20"/><circle r="1" fill="#5b3a2b" fill-opacity=".7" transform="matrix(10.65975 7.0288 -14.78707 22.42577 88.5 114)"/><ellipse cx="25" cy="135" fill="#451300" fill-opacity=".5" rx="7" ry="98"/><path fill="#1b161a" fill-opacity=".6" d="M186.3 17l-2.8 26-37.8-4 2.8-26z"/><path fill="#fffad6" fill-opacity=".4" d="M169 176l-31-44 103 53z"/><path fill="#f3f3f2" fill-opacity=".6" d="M32 46h50v50H32z"/><path fill="#a3a4b7" fill-opacity=".5" d="M244.1 76.2L142.9 97.3l60.8-52.2 33.1-35.9z"/><path fill="#4a3223" fill-opacity=".8" d="M107.6 103.6l15.3.1 25.7 56.4-4.4 18.2z"/><path fill="#26120d" fill-opacity=".6" d="M0 38h118v6H0z"/><path fill="#f8faf9" fill-opacity=".6" d="M0 44h23v47H0z"/><path fill="#3d2719" fill-opacity=".4" d="M151 84l2 51 31 5z"/><ellipse cx="145" cy="106" fill="#d0ccc6" rx="5" ry="39"/><ellipse cx="252" cy="146" fill="#000e20" fill-opacity=".2" rx="38" ry="77"/><ellipse cx="41" cy="102" fill="#765947" fill-opacity=".5" rx="64" ry="4"/><circle r="1" fill="#8794ae" fill-opacity=".7" transform="matrix(-33.64194 -17.53181 7.01839 -13.46764 193.5 111.5)"/><ellipse cx="111" cy="73" fill="#bdaf94" fill-opacity=".5" rx="14" ry="28"/><ellipse cx="116" cy="165" fill="#f7d4bd" fill-opacity=".3" rx="14" ry="45"/><path fill="#402c26" fill-opacity=".7" d="M-.6 9.8l60.7 1.7 65 14.2L58 35.3z"/><path fill="#b6bbc2" fill-opacity=".6" d="M-14.1.8L95 10.4 118.2-16l-13.4 31.5z"/><path fill="#b9bed6" fill-opacity=".4" d="M190 67l-3-71 25 72z"/><path fill="#e2e5f1" fill-opacity=".4" d="M32.4 138.6l49.5-7 3.7 25.8-49.5 7z"/><circle r="1" fill="#8d663e" fill-opacity=".5" transform="matrix(14.87596 -2.77617 21.37091 114.5151 250 60)"/><path fill="#dddad8" d="M.3 101.3l18.4-57 3.5 25.2-.3 31.9z"/><path fill="#4b2b1c" fill-opacity=".6" d="M0 102h20v8H0z"/><path fill="#f7feff" fill-opacity=".6" d="M156 82l-3-40 31 12z"/><path fill="#432719" fill-opacity=".4" d="M100 124l-4-90-22 95z"/><path fill="#cdcac5" fill-opacity=".7" d="M147.5 79.4l-6-95.4L116 43.7l23.8 74.3z"/><path fill="#fff" fill-opacity=".5" d="M62 103h21v6H62z"/><path fill="#593728" fill-opacity=".7" d="M0 166h48v4H0z"/><path fill="#f0eef0" fill-opacity=".4" d="M166.2 167.7l-31.6-28.4 75.1 45.7-30.3-9.5z"/><ellipse cx="35" cy="71" fill="#38211b" fill-opacity=".3" rx="60" ry="2"/><ellipse cx="14" cy="34" fill="#97949c" fill-opacity=".6" rx="40" ry="4"/><path fill="#926020" fill-opacity=".4" d="M146 0h6v84h-6z"/><path fill="#193854" fill-opacity=".3" d="M205.7 49.2l-6.8-.6-6.5-63.1 34 33.6z"/><circle r="1" fill="#172237" fill-opacity=".4" transform="matrix(36.99575 16.25134 -5.24783 11.94656 227.6 156.5)"/><path fill="#4e1400" fill-opacity=".2" d="M154.6 161.4l-61-22.5-10 46.1 46.9-80.2z"/><ellipse cx="57" cy="65" fill="#5c4d49" fill-opacity=".6" rx="1" ry="43"/><circle cx="93" cy="6" r="5" fill-opacity=".5"/><path fill="#cdd1d9" fill-opacity=".5" d="M75-16L90 9-16 7z"/><ellipse cx="58" cy="25" fill="#8e6a60" fill-opacity=".5" rx="35" ry="4"/><path fill="#ededee" fill-opacity=".6" d="M33 45h48v22H33z"/><path fill="#a79784" fill-opacity=".5" d="M98 45h20v55H98z"/><path fill="#f8faff" fill-opacity=".5" d="M51.4 169.4l30.6-4.8.6 4-30.6 4.8z"/><path fill="#2f1709" fill-opacity=".5" d="M101.8 12.6l16 .8-1.6 32-16-.8z"/><path fill="#d1cec9" fill-opacity=".8" d="M128.4 57.7l16.9 89.3 11.5 11.4L146 85.8z"/><path fill="#67463a" fill-opacity=".7" d="M29.4 175.5l-6.6-72 .9 64.6 52.8-7.6z"/><circle r="1" fill="#9b6d52" fill-opacity=".5" transform="rotate(151.1 35.8 75.6) scale(7.69972 21.55935)"/><path fill="#897b77" fill-opacity=".4" d="M34.2 72.6l35-39.2-45.8 42.5-9.9-11z"/><ellipse cx="42" cy="16" fill="#0e0706" fill-opacity=".5" rx="72" ry="4"/><circle r="1" fill="#7a6a65" fill-opacity=".5" transform="matrix(-29.44058 29.64683 -.70957 -.70463 0 94.4)"/><path fill="#613a24" fill-opacity=".2" d="M58.8 107.5l2.3 77.5-5.4-83.3 29.9-40z"/><path fill="#d3dbde" fill-opacity=".5" d="M0 110h18v57H0z"/><ellipse cx="85" cy="77" fill="#39231b" fill-opacity=".7" rx="2" ry="60"/><circle r="1" fill="#3f281f" fill-opacity=".5" transform="matrix(-34.59123 -29.14672 2.55725 -3.03494 157.7 166.2)"/><path fill="#5a433a" fill-opacity=".8" d="M138-11l-23 51 4-48z"/><circle r="1" fill="#704c3b" fill-opacity=".5" transform="rotate(86.5 -16.4 89.6) scale(2.07991 30.59312)"/><path fill="#290000" fill-opacity=".5" d="M71 133.8l-3.7-1.7 9.8-21.9 3.6 1.7z"/></g></svg>