<svg xmlns="http://www.w3.org/2000/svg" viewBox="0 0 300 199"><defs/><path fill="#283848" d="M0 0h300v199H0z"/><g transform="translate(.6 .6) scale(1.17188)"><circle r="1" fill="#f5e7d7" fill-opacity=".6" transform="matrix(97.18433 121.87114 -65.95852 52.59764 89.1 47.3)"/><ellipse cx="69" cy="137" fill="#7d604d" fill-opacity=".7" rx="78" ry="66"/><circle r="1" fill="#847463" fill-opacity=".9" transform="rotate(-7.9 470.6 -1428) scale(68.83584 30.97699)"/><circle r="1" fill="#cef5ff" fill-opacity=".5" transform="matrix(-89.44956 27.97122 -11.70622 -37.43547 77.2 32.4)"/><path fill="#edf7ff" fill-opacity=".4" d="M98 129l-52 45 76-5z"/><circle r="1" fill="#060200" fill-opacity=".8" transform="matrix(-10.22476 -45.0853 16.17904 -3.6692 227.2 141)"/><ellipse cx="26" cy="94" fill="#4a4029" fill-opacity=".8" rx="34" ry="16"/><circle r="1" fill="#d4c8d3" fill-opacity=".4" transform="rotate(-118.4 127.8 13.3) scale(52.53804 28.19781)"/><ellipse cx="153" cy="64" fill="#623222" fill-opacity=".9" rx="12" ry="26"/><circle r="1" fill="#7b4832" fill-opacity=".7" transform="matrix(7.65732 28.7287 -20.48342 5.45963 92.5 94.7)"/><circle r="1" fill="#d5f5fb" fill-opacity=".6" transform="rotate(-73.2 99 -46.1) scale(13.32906 24.27437)"/><path fill="#1e0000" fill-opacity=".5" d="M75 123l9 42-28-17z"/><circle r="1" fill-opacity=".4" transform="matrix(8.09585 39.09338 -5.2696 1.09128 197.3 169)"/><path fill="#afa599" d="M150.9 83l-50.2 3.4 15.7 16 .3 23.3z"/><path fill="#110909" fill-opacity=".6" d="M199.4 103.1l-10.8-29.8 82.4 69.6-49.5 13.7z"/><ellipse cx="126" cy="80" fill="#1e1e1d" fill-opacity=".6" rx="29" ry="4"/><circle r="1" fill="#e9e3da" fill-opacity=".2" transform="matrix(26.22441 -59.17875 26.07552 11.55508 186.8 82.7)"/><circle r="1" fill="#4e2800" fill-opacity=".5" transform="matrix(-1.45863 -14.35996 56.312 -5.71996 220.4 8.4)"/><circle r="1" fill="#e2c2a9" fill-opacity=".5" transform="matrix(6.21342 1.34339 -6.84068 31.6394 60.4 117.8)"/><path fill="#bfd1d7" fill-opacity=".9" d="M164-15l4 55L44 29z"/><path fill-opacity=".7" d="M135.1 57.5l-1.7-9.8 29.5-5.2 1.7 9.8z"/><path fill="#543526" fill-opacity=".6" d="M127.8 174.3l-32-60 12.4-6.6 32 60z"/><path fill="#bdd2da" fill-opacity=".6" d="M196 90l-2 60 19 8z"/><path fill="#c7b0a7" fill-opacity=".6" d="M226 91h9v16h-9z"/><circle cx="255" cy="162" r="14" fill="#d4af84" fill-opacity=".4"/><path fill="#300000" fill-opacity=".6" d="M241 102l-23-27 53 4z"/><circle r="1" fill="#abc4cb" fill-opacity=".7" transform="matrix(58.54868 20.85917 -28.39552 79.70213 .5 0)"/><path fill="#190200" fill-opacity=".7" d="M177.9 177.4l14.8 7.6 46.4-26.3-40.9.8z"/><path fill="#1e1805" fill-opacity=".7" d="M46 86l-22 33-22-1z"/><path fill="#e4dde6" fill-opacity=".5" d="M79 128h24v13H79z"/><path fill="#52170a" fill-opacity=".6" d="M185 79l20 1 3 21z"/><path fill="#0e0b00" fill-opacity=".5" d="M40 96h6v74h-6z"/><circle r="1" fill="#c3a896" fill-opacity=".5" transform="rotate(-103 170.7 -47) scale(13.0421 6.88333)"/><circle r="1" fill-opacity=".5" transform="matrix(-1.31874 -59.75414 .99976 -.02206 169.3 19.8)"/><path fill="#a1a49b" fill-opacity=".5" d="M174.6 20.8l32-1.6.8 16-32 1.6z"/><ellipse cx="34" cy="80" fill="#000006" fill-opacity=".6" rx="48" ry="2"/><path fill="#fff" fill-opacity=".5" d="M57 162h16v8H57z"/><path fill="#000200" fill-opacity=".7" d="M168.4 39.2l1-.1 4.2 39.7-1 .1z"/><path fill="#ffb589" fill-opacity=".4" d="M45.7 167.3l31.7-55.7 2-33.3 13.2 4.5z"/><path fill="#fff3e7" fill-opacity=".2" d="M145.9 53.5L80 78.3l87.3-5.3 4.7-6.3z"/><path fill="#170000" fill-opacity=".5" d="M100 67L66 85l18-21z"/><circle r="1" fill="#6e6353" fill-opacity=".9" transform="matrix(16.79619 -3.39413 5.86035 29.00048 251.2 49.5)"/><path fill="#867c81" fill-opacity=".8" d="M157.8 154.9l-8.1-25.8-20.6 32.6 22 23.3z"/><path fill="#020d19" fill-opacity=".6" d="M247 110l-41 13-3-17z"/><path fill="#767371" fill-opacity=".5" d="M5 121h36v37H5z"/><path fill="#7a2f14" fill-opacity=".5" d="M136 48l32 30-12 15z"/><path fill="#8d797b" fill-opacity=".5" d="M198.5 134.5l-1.2-28.9-9.6 32.7 32.7 42.5z"/><path fill="#20201c" fill-opacity=".4" d="M122.1 153l-1.7 32 15.9-44.8 2.7-28.9z"/><path fill="#92836d" fill-opacity=".8" d="M184.8 34l32.1-3.2 2.8 61-6.9 1.2z"/><path fill="#7a6f61" fill-opacity=".8" d="M46.2 87l18.3 16.4-4.3 4.1-16.3 12.9z"/><path fill="#3e0000" fill-opacity=".5" d="M86 98h9v26h-9z"/><path fill="#c5c3cc" fill-opacity=".6" d="M199.7 102.3l-43.9 71.9 3.5-86.1L177.2 75z"/><path fill="#c0dae1" fill-opacity=".6" d="M111 76L18-16l123 57z"/><path fill="#0c0808" fill-opacity=".9" d="M162.4 43.3l4.8 11.8-30.1-6.6 9.4-7.1z"/><path fill="#421000" fill-opacity=".6" d="M79 115l-6 36-25 11z"/><path fill="#c6dcdf" fill-opacity=".5" d="M41 55h33v23H41z"/><ellipse cx="130" cy="80" fill="#f2f8ff" fill-opacity=".5" rx="16" ry="1"/><path fill="#bfb5b7" fill-opacity=".4" d="M123.4 95.8l-47.2-.2 73.1-14.4 49.4 87.9z"/><path fill="#d3c6c2" fill-opacity=".5" d="M64 93h7v30h-7z"/><path fill="#e6ffff" fill-opacity=".3" d="M212.5 156l-5.4-29.5-5.7 27-11.6 5.2z"/><path fill="#acbcbe" fill-opacity=".6" d="M0 48h27v32H0z"/><path fill="#722d09" fill-opacity=".5" d="M59 119h5v15h-5z"/><path fill="#9b846c" fill-opacity=".3" d="M103 133.4L5.9 97.8-16 131.4l24.9-22.7z"/><ellipse cx="33" cy="84" fill="#61594c" rx="34" ry="3"/><ellipse cx="230" cy="89" fill="#ae9d80" fill-opacity=".3" rx="3" ry="29"/></g></svg>