<svg xmlns="http://www.w3.org/2000/svg" viewBox="0 0 300 199"><defs/><path fill="#734f40" d="M0 0h300v199H0z"/><g transform="translate(.6 .6) scale(1.17188)"><circle r="1" fill="#d6d5cf" fill-opacity=".7" transform="matrix(-6.63794 135.72262 -158.6594 -7.75974 99 82.6)"/><ellipse cx="48" cy="136" fill="#432518" fill-opacity=".7" rx="27" ry="44"/><circle r="1" fill="#351400" fill-opacity=".4" transform="rotate(154.4 98.7 66.5) scale(23.70038 58.98217)"/><ellipse cx="154" cy="56" fill="#562911" fill-opacity=".6" rx="17" ry="47"/><ellipse cx="97" fill="#feffff" fill-opacity=".7" rx="51" ry="44"/><ellipse cx="128" cy="155" fill="#e9eeec" fill-opacity=".7" rx="41" ry="69"/><circle r="1" fill="#fcffff" fill-opacity=".7" transform="matrix(20.33066 .45617 -1.44354 64.3357 8.2 40.4)"/><ellipse cx="198" cy="4" fill="#fcffff" fill-opacity=".6" rx="38" ry="32"/><path fill="#190000" fill-opacity=".4" d="M35 6h17v125H35z"/><path fill="#4a1800" fill-opacity=".5" d="M114.4 59.5l-15.9 62.4-31.6 21.5 22.6-39.6z"/><circle r="1" fill="#fff" fill-opacity=".7" transform="matrix(-14.0013 -4.33412 7.70183 -24.8806 82.6 85.9)"/><path fill="#0d1700" fill-opacity=".5" d="M236 3h20v53h-20z"/><ellipse cx="52" cy="114" fill="#0d0000" fill-opacity=".8" rx="12" ry="22"/><path fill="#0e0000" fill-opacity=".5" d="M28 9h17v24H28z"/><circle r="1" fill="#eee7dc" fill-opacity=".5" transform="matrix(-16.62467 8.32501 -16.24492 -32.44036 255 93.1)"/><path fill="#89614b" fill-opacity=".7" d="M158 100l18 47 33-75z"/><ellipse cx="29" cy="159" fill="#94776a" rx="9" ry="76"/><path fill="#fbffff" fill-opacity=".4" d="M100 115l-61 70 87-1z"/><path fill-opacity=".5" d="M152 13h13v38h-13z"/><path fill="#f1e6db" fill-opacity=".5" d="M150 51l-1 30L83 9z"/><circle r="1" fill="#f0f5f2" fill-opacity=".6" transform="matrix(-3.58921 -31.99856 10.35143 -1.1611 10 145.6)"/><circle r="1" fill="#ede8eb" fill-opacity=".5" transform="rotate(-64.8 218.6 -86.9) scale(30.15635 19.66456)"/><path fill="#462723" fill-opacity=".5" d="M227 137h29v33h-29z"/><circle cx="193" cy="45" r="9" fill="#010000" fill-opacity=".7"/><circle r="1" fill="#fdffff" fill-opacity=".7" transform="rotate(-29.9 116.4 -131) scale(15.75297 13.18463)"/><path fill="#836151" fill-opacity=".8" d="M72.1 65.9l-32.4-10-.7-14.8 47.6 20.3z"/><path fill="#68523b" fill-opacity=".8" d="M264.9 34.9l-67.2 27.5 45.7 84.8-13.7-74.6z"/><path fill="#7d5646" fill-opacity=".6" d="M78.3 66.4l.1-10.6 41.8-21.6-7.6 8.9z"/><circle r="1" fill="#e6d9d0" fill-opacity=".5" transform="matrix(-3.92637 9.92156 -20.30364 -8.03498 177 72.1)"/><path fill="#fefcf1" fill-opacity=".6" d="M212 30h26v17h-26z"/><circle r="1" fill="#f0f5f7" fill-opacity=".7" transform="rotate(143.8 84.8 45.3) scale(13.5259 10.34563)"/><path fill="#f1efec" fill-opacity=".5" d="M57.5 6.2V44l-68.3-16.6 37.4 57.5z"/><path fill="#9e796b" fill-opacity=".6" d="M223.2 177.4l-54-64.4 7.6-6.4 54 64.4z"/><path fill="#510" fill-opacity=".5" d="M143.2 84.9l-15.5 3.9-3-11.7 15.6-3.9z"/><path fill="#fcfefb" fill-opacity=".4" d="M139 26l-38 51-68 20z"/><path fill="#f2f0ea" fill-opacity=".7" d="M61.4 132.8l46.3-77.3-14.9 37.6-6.7 21.1z"/><path fill="#937a67" fill-opacity=".5" d="M58 0h7v47h-7z"/><path fill="#897668" fill-opacity=".8" d="M17.8 88.8l-4.6 6.3 5.5 37.5 33.7-53.4z"/><ellipse cx="167" fill="#eae9e6" fill-opacity=".8" rx="76" ry="11"/><path fill="#b4aca3" fill-opacity=".9" d="M-11.5 56.9l18.3 8.5L41 62.3l-6.9-4.6z"/><circle r="1" fill="#726851" fill-opacity=".5" transform="matrix(1.07953 33.40888 -3.58966 .116 195.2 0)"/><path fill="#683f25" fill-opacity=".4" d="M106.5 65.8l-37.8 85.3 42.6-73 44.2-28.6z"/><circle r="1" fill="#401200" fill-opacity=".4" transform="matrix(4.6515 20.6403 -15.21545 3.42895 154 33.9)"/><ellipse cx="13" fill="#f5f5f5" rx="43" ry="6"/><path fill="#fdffff" fill-opacity=".4" d="M219.9 176.6l-29.1 8.4-9.6-51.8-18-24.8z"/><path fill="#eeebe4" fill-opacity=".5" d="M229 68l41-27 1 50z"/><path fill-opacity=".6" d="M213.3 38.6l-1 4.9-17.6-4 1-5z"/><path fill="#fafefe" fill-opacity=".4" d="M190.4 99.4l-7.3 7.1 42.7 55.2 2.6-17.4z"/><path fill="#121a00" fill-opacity=".6" d="M270 1l-6 26.2-32 4.9 17.9-36.4z"/><path fill="#f1f3f0" fill-opacity=".6" d="M76 153h98v17H76z"/><ellipse cx="18" cy="133" fill="#e5dbcd" fill-opacity=".5" rx="25" ry="6"/><path fill="#3b3014" fill-opacity=".4" d="M229.3 56.6l-43.5 36.6 15.2 14.5 12.3-60.6z"/><path fill="#fcf8f1" fill-opacity=".4" d="M153.1 59.7l-42.9 17.7-2.4 10.2 1.2 5.2z"/><path fill="#846452" fill-opacity=".7" d="M54.3 19.2L32.4 67.8l10.5-46.3 2.3-8.3z"/><path fill="#a97e60" fill-opacity=".6" d="M251 85l-24-17 7 26z"/><path fill="#877f79" fill-opacity=".7" d="M56.7 156.3l5-34.9 11.8 55.3-24.7 8.3z"/><circle cx="36" cy="21" r="11" fill="#422b1c" fill-opacity=".5"/><path fill="#7d7678" fill-opacity=".7" d="M271 120.7l-29.3-4.3-7.7 44.3 37-47.6z"/><path fill="#f2f2f0" fill-opacity=".5" d="M74.5 113.1L111.2 63l-50.1 3.4-8.7 19z"/><path fill="#704a36" fill-opacity=".6" d="M79.4 141.2l27.2-41.8-31.7 24.9-19.7 18z"/><path fill="#edecea" fill-opacity=".7" d="M141.7 53.6L16.8-16l36.8 30.8L122.5-16z"/><path fill="#eef8ff" fill-opacity=".5" d="M173 69h22v11h-22z"/><path fill="#cfc0b0" fill-opacity=".5" d="M283 42.1l-83.6 8.8-.3-3 83.5-8.8z"/><circle r="1" fill="#fbffff" fill-opacity=".4" transform="matrix(-4.4242 -12.15537 33.06318 -12.03401 5 78.5)"/><path fill="#9c786a" fill-opacity=".3" d="M159 121l29 64-16-128z"/></g></svg>