<svg xmlns="http://www.w3.org/2000/svg" viewBox="0 0 299 449"><defs/><path fill="#59412c" d="M0 0h299v449H0z"/><g transform="translate(.9 .9) scale(1.7539)"><circle r="1" fill="#dbf0f7" fill-opacity=".9" transform="matrix(-47.23611 50.65453 -46.72263 -43.56956 123.3 36)"/><circle r="1" fill="#00509c" fill-opacity=".6" transform="matrix(-16.6478 88.10596 -31.7495 -5.99913 26.5 27.2)"/><circle r="1" fill="#100800" fill-opacity=".5" transform="matrix(72.33597 104.74692 -45.29173 31.2775 46.6 216.3)"/><path fill="#fbefdd" fill-opacity=".7" d="M69.9 65.8l4.3 41L186 93.5l-50.2-59.6z"/><path fill="#120400" fill-opacity=".7" d="M62 54l13 21-28 58z"/><circle r="1" fill="#3f2407" fill-opacity=".6" transform="rotate(-7.8 1522.3 -1061.9) scale(31.96199 106.71009)"/><path fill="#7e511c" fill-opacity=".4" d="M120 234l35-140-100 9z"/><ellipse cx="134" cy="4" fill="#8fceeb" fill-opacity=".6" rx="71" ry="28"/><circle r="1" fill="#ad8853" fill-opacity=".5" transform="matrix(39.8379 53.88866 -5.59072 4.13301 104.3 185.5)"/><path fill="#0f1010" fill-opacity=".6" d="M47 70h25v68H47z"/><ellipse cx="58" cy="52" fill="#cfe8f2" fill-opacity=".6" rx="3" ry="19"/><ellipse cx="29" cy="7" fill="#091a2c" fill-opacity=".9" rx="4" ry="110"/><circle r="1" fill="#226797" fill-opacity=".5" transform="matrix(46.11524 49.6259 -15.72977 14.617 0 61.9)"/><circle r="1" fill="#180e04" fill-opacity=".4" transform="matrix(-11.27561 9.14343 -44.86013 -55.32117 146.2 207.1)"/><path fill="#b68d56" fill-opacity=".5" d="M53 153l59-3-43-15z"/><circle r="1" fill="#1f1506" fill-opacity=".6" transform="matrix(16.16466 -44.575 53.76474 19.49722 76.4 255)"/><ellipse cx="139" cy="67" fill="#f3faff" fill-opacity=".5" rx="65" ry="25"/><path fill="#f8dfae" fill-opacity=".7" d="M72 91.1l3.8-20.6 30.9 26.9-35.2 7.5z"/><path fill="#27190e" d="M75.2 128.9L45.6 60.1l-6.5 20.5 27.7 10.1z"/><path fill="#3684b5" fill-opacity=".5" d="M33 36l23 39V44z"/><ellipse cx="134" cy="112" fill="#121615" fill-opacity=".6" rx="134" ry="4"/><ellipse cx="30" cy="84" fill-opacity=".6" rx="4" ry="19"/><path fill="#562000" fill-opacity=".5" d="M58 57l7 20 3-21z"/><path fill="#cb9945" fill-opacity=".2" d="M175.1 99.8l-25.9-11.3-97.1 24.8 101.3-9z"/><circle r="1" fill="#524020" fill-opacity=".5" transform="matrix(-8.77554 -1.98182 15.88732 -70.34952 26.8 181)"/><path fill="#ecf0f3" fill-opacity=".4" d="M48.9 77l90.8-62.8-10.1 87.8-71.9-39.7z"/><path fill="#a1662b" fill-opacity=".6" d="M156 117l-35 8-20-11z"/><circle r="1" fill="#361c0b" fill-opacity=".9" transform="matrix(-1.88378 -3.457 2.7604 -1.5042 71.4 72.5)"/><path fill="#e7ede7" fill-opacity=".4" d="M183.4 74.8l1.2 23-28 1.4-1.2-23z"/><path fill="#552b0a" fill-opacity=".4" d="M83 106l-12 23 77 44z"/><path fill-opacity=".5" d="M28 29h-4l-2-58h4z"/><path fill="#664d29" fill-opacity=".9" d="M64.7 99l3.2 18.3-4 12.6-2.5-24.7z"/><path fill="#bee0f0" fill-opacity=".6" d="M61 38.7L64 14l125 15.4-3 24.8z"/><path fill="#25699e" fill-opacity=".5" d="M3 38h23v59H3z"/><ellipse cx="46" fill="#15476e" fill-opacity=".6" rx="18" ry="36"/><ellipse cx="163" cy="219" fill="#15130c" fill-opacity=".3" rx="26" ry="35"/><path fill="#b08d57" fill-opacity=".2" d="M76.1 144.1l65.8 73 14.9 50.6-65-82.8z"/><path fill="#40290f" fill-opacity=".4" d="M16.7 116.2L109 227.9l19.3-39.4-50.7 45.1z"/><path fill="#4389ab" fill-opacity=".4" d="M34 42h7v57h-7z"/><path fill="#e3eef2" fill-opacity=".6" d="M67 45h31v22H67z"/><path fill="#321903" fill-opacity=".5" d="M88 155l20 19-8-23z"/><path fill="#a5d2e6" fill-opacity=".6" d="M183.1 2L56.5 37l6.7-25.2L70-9.8z"/><path fill="#1e201f" fill-opacity=".9" d="M44.6 140.8l12.9 5.1 4.9-39.5-14-18z"/><path fill="#171109" fill-opacity=".5" d="M-34 261.2l87-40.5 13 28-87 40.6z"/><path fill="#cfe2e9" fill-opacity=".8" d="M74.8 52l-19.2 6.2L58.2 33l50.7 58.7z"/><circle r="1" fill="#6c3d1b" fill-opacity=".3" transform="matrix(26.98657 3.63077 -4.4427 33.02142 132.5 152)"/><path fill-opacity=".5" d="M41 64h9v18h-9z"/><ellipse cx="115" cy="102" fill="#a27535" fill-opacity=".6" rx="22" ry="3"/><path fill="#647c87" fill-opacity=".5" d="M39 85h8v25h-8z"/><path fill="#b07246" fill-opacity=".4" d="M74.9 76.9l1.3-15.1-2.6 26.1-15.5 10.3z"/><ellipse cx="69" cy="115" fill-opacity=".5" rx="3" ry="21"/><path fill="#412d13" fill-opacity=".7" d="M85.7 171.4l9 20.8L-16 174.4l87.6-15.9z"/><path fill="#ffe4a0" fill-opacity=".4" d="M132 101l-25-6 31-6z"/><ellipse cx="150" cy="95" fill="#4d2d18" fill-opacity=".4" rx="6" ry="4"/><path fill="#164067" fill-opacity=".8" d="M15-16l-31 33.9L1.3 39.1l25-4z"/><path fill="#bbdbe7" fill-opacity=".8" d="M98.7-2.7L64.2 39.9l-8.1 28.9.5-33.5z"/><path fill="#44351f" fill-opacity=".4" d="M18 253l-24-78 59-63z"/><path fill="#fdf5eb" fill-opacity=".4" d="M76 67h72v26H76z"/><circle cx="52" cy="74" r="4" fill="#9d8b6b" fill-opacity=".4"/><path fill="#13140c" fill-opacity=".4" d="M186 117l-1-29.7-44 28.1 25.5 2.2z"/><path fill="#44321b" fill-opacity=".8" d="M115.7 271l44-32.3-50.5-12.6 39.6 17.1z"/><ellipse cx="27" cy="6" fill="#00010a" fill-opacity=".4" rx="4" ry="39"/><path fill="#432508" fill-opacity=".4" d="M105 148l-54-22 47 1z"/><path fill="#b78e59" fill-opacity=".5" d="M87 153l26 35-30-23z"/><circle r="1" fill="#8cc6de" fill-opacity=".4" transform="matrix(8.9869 -10.37477 29.00577 25.12559 170 18.3)"/></g></svg>