<svg xmlns="http://www.w3.org/2000/svg" viewBox="0 0 300 199"><defs/><path fill="#404040" d="M0 0h300v199H0z"/><g transform="translate(.6 .6) scale(1.17188)"><circle r="1" fill="#a7a7a7" fill-opacity=".6" transform="rotate(-172.9 43.2 18.5) scale(101.94336 201.7922)"/><path fill="#e0e0e0" fill-opacity=".5" d="M240.7-16l-50.5 4.1 23.5 91.7 9.2-23.5z"/><circle r="1" fill="#ddd" fill-opacity=".6" transform="matrix(-18.79116 -29.32528 18.38187 -11.7788 125.4 145.5)"/><circle r="1" fill="#0e0e0e" fill-opacity=".7" transform="matrix(-8.11675 -28.99443 73.74573 -20.64451 224.8 102.6)"/><circle r="1" fill="#383838" fill-opacity=".5" transform="matrix(-67.61616 -131.31053 27.34876 -14.08279 12.8 119.2)"/><circle r="1" fill="#c4c4c4" fill-opacity=".5" transform="rotate(-178.3 33.8 26.8) scale(25.45072 62.47875)"/><path fill="#8f8f8f" fill-opacity=".6" d="M122 184l69-76 4 77z"/><path fill="#fff" fill-opacity=".6" d="M180.4 16.1L155.9 4.7l9.7-20.8 24.5 11.4z"/><path fill="#979797" fill-opacity=".6" d="M199 135h32v30h-32z"/><path fill="#282828" fill-opacity=".5" d="M134.4 80l-24.5-20-31.1 46.1 5.5 26.3z"/><path fill="#252525" fill-opacity=".7" d="M271 27.1l-83.8 18.1L206 18.1l54.4 39.8z"/><path fill="#fefefe" fill-opacity=".5" d="M204 42h40v12h-40z"/><path fill="#e0e0e0" fill-opacity=".6" d="M131.7 55.6l-8.3-14.4-24.9 15 40.7 18.4z"/><circle r="1" fill-opacity=".6" transform="rotate(179.5 98.1 40.1) scale(13.67189 37.55301)"/><path fill="#151515" fill-opacity=".8" d="M271 78l-21 107-25-140z"/><circle r="1" fill="#464646" fill-opacity=".5" transform="rotate(84.6 56.5 81.6) scale(12.31143 42.02957)"/><ellipse cx="136" cy="129" fill="#fff" fill-opacity=".3" rx="10" ry="57"/><path fill="#f1f1f1" fill-opacity=".7" d="M206.8 42.4l22.4-6.3-15.1 41.7-7.3-21.8z"/><path fill="#fefefe" fill-opacity=".5" d="M93.4 82l-9.3-28.6L94.6 50l9.3 28.6z"/><circle cx="245" r="24" fill="#585858"/><path fill="#fff" fill-opacity=".5" d="M9.4 158.3L-3.5 185l9.7-36.1 18.3 28.8z"/><path fill="#0b0b0b" fill-opacity=".4" d="M152 129l-11-34 49 4z"/><path fill="#fff" fill-opacity=".7" d="M-4 60.4l-.5-3L32 51.6l.5 3z"/><ellipse cx="121" cy="114" fill="#3c3c3c" fill-opacity=".5" rx="4" ry="33"/><circle r="1" fill="#6b6b6b" transform="matrix(9.3939 3.55684 -6.04628 15.9687 195.5 21.7)"/><ellipse cx="10" cy="30" fill="#1a1a1a" fill-opacity=".8" rx="23" ry="3"/><path fill="#212121" fill-opacity=".7" d="M99.6 61.9l23.3.9 8.1 25.1-30-19.3z"/><path fill-opacity=".7" d="M-1.1 50.2l35.7-4.4.5 4-35.7 4.4z"/><ellipse cx="24" cy="59" fill-opacity=".6" rx="14" ry="3"/><path fill="#fff" fill-opacity=".6" d="M7.5 88.6l26.3-6.1.7 3-26.3 6z"/><ellipse cx="1" cy="35" fill="#fff" fill-opacity=".7" rx="37" ry="2"/><circle r="1" fill="#f9f9f9" fill-opacity=".5" transform="matrix(.3485 2.3319 -39.18732 5.85658 0 68.5)"/><path fill-opacity=".6" d="M-10.4 74.3l46.8-9.2 5.4 5.1L-16 80z"/><ellipse cy="21" fill="#060606" fill-opacity=".7" rx="29" ry="3"/><path fill="#fafafa" fill-opacity=".5" d="M8.9 80.9l-.6-3L59 67.1l.6 3z"/><path fill="#fff" fill-opacity=".5" d="M39.3 92.2L40 95l-29.3 6.7L10 99z"/><path fill="#929292" d="M44.3 108.7l12 26.2L84.1 105 8.6 122.9z"/><path fill-opacity=".5" d="M0 38h40v4H0z"/><circle cx="186" cy="117" r="5" fill="#fff" fill-opacity=".6"/><path fill="#c3c3c3" fill-opacity=".4" d="M182.4 97.9l-15.1 1.5.2-54.1.6-7.9z"/><path fill="#fdfdfd" fill-opacity=".4" d="M51.9 18.8l17.5 18.3 22-51.8-5.5 18.8z"/><path fill="#060606" fill-opacity=".6" d="M-.4 88.4L49.3 77 5 80.6l-20.6-50z"/><circle r="1" fill="#171717" fill-opacity=".7" transform="matrix(-29.28199 3.85505 -.38266 -2.90657 20.6 91.6)"/><path fill="#4e4e4e" fill-opacity=".7" d="M60 126h16v44H60z"/><path fill="#fff" fill-opacity=".6" d="M33.5 23.7v4l-37 .6v-4z"/><path fill="#e0e0e0" fill-opacity=".5" d="M230.5 27.8L208.7-16h-22.1l40.6 51.9z"/><path fill-opacity=".5" d="M.1 128.7l2.4-1.8 39.4 50.4-2.4 1.8z"/><path fill="#959595" fill-opacity=".4" d="M137 86l-63 9-43-43z"/><path fill="#141414" fill-opacity=".5" d="M114 88l24 34-42-26z"/><ellipse cx="15" cy="45" fill="#fff" fill-opacity=".6" rx="25" ry="2"/><ellipse cx="15" cy="16" fill="#fff" fill-opacity=".6" rx="19" ry="2"/><path fill-opacity=".7" d="M29.1 124.1l-22.4-.6-3.2-3.3 37.8-1.5z"/><path fill="#040404" fill-opacity=".5" d="M102 15l14 14-1 20z"/><path fill="#181818" fill-opacity=".7" d="M231.4 24.7l-24.5 98.6 29-85L271 23.9z"/><ellipse cx="234" cy="125" fill="#070707" fill-opacity=".6" rx="32" ry="12"/><path fill="#010101" fill-opacity=".6" d="M-.7 118.8l10.5-5.6 30.6-6.7 12 1.3z"/><path fill="#a1a1a1" fill-opacity=".7" d="M5-16l78.2 63.9L49 110.4 34.4 33.8z"/><path fill="#f7f7f7" fill-opacity=".5" d="M-16 123.1l34.7 30.7-13.3-18.5-16.4-7.7z"/><circle r="1" fill="#b5b5b5" fill-opacity=".5" transform="matrix(-31.39071 6.44359 -.48494 -2.36244 47.6 102.4)"/><path fill="#d1d1d1" fill-opacity=".6" d="M54.7 124l-10.1 9.3 11.6-3-31.9 7.6z"/><path fill-opacity=".6" d="M6.6 108.8l-.8-3 39.6-10.6.8 3z"/><path fill="#afafaf" fill-opacity=".5" d="M244.7 140l-41.3-7.7-6.3 31.5 10.8-18.4z"/><path fill="#070707" fill-opacity=".7" d="M195 33l-1 127 23-76z"/><path fill="#f1f1f1" fill-opacity=".7" d="M173-4l3 30 15-35z"/><circle r="1" fill="#efefef" fill-opacity=".6" transform="rotate(-9.7 755.2 -104.3) scale(13.58141 1)"/></g></svg>