<svg xmlns="http://www.w3.org/2000/svg" viewBox="0 0 300 196"><defs/><path fill="#392e20" d="M0 0h300v196H0z"/><g transform="translate(.6 .6) scale(1.17188)"><circle r="1" fill="#d0e1eb" fill-opacity=".5" transform="matrix(4.99477 -60.82943 244.92489 20.11103 180.2 90.2)"/><circle r="1" fill="#e3e3e2" fill-opacity=".6" transform="matrix(71.09657 9.6212 -6.62347 48.9446 144.4 81.4)"/><circle r="1" fill="#525858" fill-opacity=".9" transform="matrix(-13.22668 -145.33515 33.0901 -3.01147 242 87.8)"/><circle r="1" fill="#0d0600" fill-opacity=".5" transform="matrix(-4.82607 -51.0545 10.91103 -1.0314 141.2 120)"/><ellipse cx="12" cy="54" fill="#5a6262" fill-opacity=".6" rx="73" ry="167"/><ellipse cx="123" cy="157" fill="#494c49" fill-opacity=".9" rx="93" ry="29"/><ellipse cx="103" cy="17" fill="#525753" fill-opacity=".7" rx="116" ry="22"/><path fill="#fff" fill-opacity=".5" d="M86 40h20v86H86z"/><path fill="#fff" fill-opacity=".4" d="M153.3 130.8L142 38.5l42.7-5.3 11.3 92.3z"/><ellipse cx="108" cy="110" fill="#202424" fill-opacity=".8" rx="2" ry="54"/><path fill="#e1e9ec" fill-opacity=".4" d="M166 98l75 51-16 22z"/><ellipse cx="135" cy="60" fill="#171718" fill-opacity=".8" rx="2" ry="28"/><ellipse cx="114" cy="98" fill="#2e2f2c" fill-opacity=".9" rx="35" ry="2"/><circle r="1" fill="#ebf5fb" fill-opacity=".7" transform="rotate(-169 7.1 45.8) scale(13.00548 7.59898)"/><path fill-opacity=".5" d="M81 65h60v2H81z"/><path fill-opacity=".6" d="M147 95h31v3h-31z"/><circle r="1" fill="#353739" fill-opacity=".6" transform="matrix(1.45427 -.11242 8.72771 112.89758 164.6 66.9)"/><path fill="#fff" fill-opacity=".6" d="M86 41h47v19H86zm-4 58h21v29H82z"/><ellipse cx="55" cy="47" fill="#454840" fill-opacity=".5" rx="16" ry="96"/><ellipse cx="123" cy="166" fill="#a8b1b4" fill-opacity=".6" rx="73" ry="2"/><path fill="#261d12" fill-opacity=".6" d="M141 132l-14-13 22-35z"/><ellipse cx="177" cy="64" fill="#383c40" fill-opacity=".4" rx="56" ry="2"/><path fill="#eef0ea" fill-opacity=".4" d="M66.2 142.4l7.7-73.6 8 .8-7.8 73.6z"/><path fill="#e7ebec" fill-opacity=".4" d="M172 25h30v104h-30z"/><path fill="#f7fafd" fill-opacity=".8" d="M133 66.8l2.1 11.4-23.3 19.3-.6-29.7z"/><path fill="#383c3b" fill-opacity=".6" d="M271 139.4L221-16l24.1 119.7-42.8 36.2z"/><path fill-opacity=".4" d="M33 142l-27-9-7 28z"/><path fill="#fffffe" fill-opacity=".5" d="M111 105h17v25h-17z"/><path fill="#c4d1dc" fill-opacity=".4" d="M0 131h38v5H0z"/><circle r="1" fill="#bbc1c3" fill-opacity=".5" transform="matrix(12.58491 -2.09464 6.00685 36.09003 200.5 95.5)"/><circle r="1" fill="#9aa8b4" fill-opacity=".2" transform="matrix(-6.74932 -48.09282 32.80004 -4.60314 19.6 54)"/><path fill="#fff" fill-opacity=".8" d="M158.6 60.8l-20 1.4-1.2-19 20-1.4z"/><path fill="#fff" fill-opacity=".5" d="M144 118h5v15h-5z"/><path fill="#3a3e3a" fill-opacity=".5" d="M218.7 64.9L174-3l41.8 3 19.3 135.2z"/><path fill="#171a1a" fill-opacity=".8" d="M143 133.2l46-2.4v2l-46 2.4z"/><ellipse cx="110" cy="133" fill="#000100" fill-opacity=".6" rx="33" ry="2"/><path fill="#f8fbfb" fill-opacity=".8" d="M145.2 83.9l-8.7-14.3 23.3-3.2 5 29.1z"/><path fill="#fff" fill-opacity=".4" d="M7 115l9-25 1 14z"/><path fill="#000812" fill-opacity=".5" d="M7.7 115.9l-1-.2 5.6-35.6 1 .2z"/><path fill-opacity=".8" d="M233 166l27 17-19-27z"/><path fill="#f3f8fc" fill-opacity=".5" d="M107.3 107.4l.9-42.4-26.1 22.6 25.3 10z"/><circle r="1" fill="#373b3c" fill-opacity=".6" transform="matrix(1.45302 .1348 -8.25413 88.9768 79.4 122.2)"/><ellipse cx="130" cy="32" fill="#989e9c" fill-opacity=".6" rx="43" ry="3"/><ellipse cx="109" cy="127" fill="#242724" fill-opacity=".5" rx="3" ry="30"/><ellipse cx="252" cy="31" fill="#7a8386" fill-opacity=".5" rx="13" ry="23"/><ellipse cx="140" cy="158" fill="#282822" fill-opacity=".6" rx="74" ry="5"/><path fill="#5f645e" fill-opacity=".5" d="M61 135h148v13H61z"/><ellipse cx="136" cy="65" fill="#0d0b0a" fill-opacity=".6" rx="2" ry="22"/><path fill="#f2f7fb" fill-opacity=".6" d="M4.5 102.9l-.4 8.6-12.2.5-7.9 8.8z"/><path fill="#111013" fill-opacity=".6" d="M137 63h41v2h-41z"/><path fill="#504433" fill-opacity=".5" d="M129 84h21v31h-21z"/><path fill="#40332a" fill-opacity=".6" d="M129.5 113.9l1 .3-8 29.9-1-.3z"/><path fill="#fff" fill-opacity=".5" d="M116 40h18v23h-18z"/><path fill="#dddfd7" fill-opacity=".4" d="M75 51l5 23 4-41z"/><path fill="#fcfefd" fill-opacity=".6" d="M80 130l10 1-6-32z"/><path fill="#151d27" fill-opacity=".5" d="M23.8 127.5l-21.5 4.3L12 90.2 1.2 119.4z"/><path fill="#2b2a24" fill-opacity=".5" d="M66 24h77v5H66z"/><path fill="#868f94" fill-opacity=".3" d="M257 152l-22-89-2 49z"/><path fill="#000102" fill-opacity=".6" d="M184.4 97.8l-24.9-2.6.1-1 24.9 2.6z"/><path fill="#25251e" fill-opacity=".5" d="M29 169.5l-.1-.5 46.2-4-25.6-23z"/><path fill="#0d0e11" fill-opacity=".5" d="M83.5 65.8l27 1.4v1l-27-1.4z"/><path fill="#0f1113" fill-opacity=".5" d="M136 34h39v3h-39z"/><path fill="#fff" fill-opacity=".6" d="M171 103h18v27h-18z"/><path fill="#fff" fill-opacity=".2" d="M181.1 70.1L171 117.8l-9.9-92.2 10.2-.2z"/></g></svg>