<svg xmlns="http://www.w3.org/2000/svg" viewBox="0 0 300 199"><defs/><path fill="#5d3b32" d="M0 0h300v199H0z"/><g transform="translate(.6 .6) scale(1.17188)"><ellipse cx="148" cy="95" fill="#f9fdf1" fill-opacity=".5" rx="87" ry="169"/><circle r="1" fill="#d3fffa" fill-opacity=".5" transform="matrix(50.06454 -23.55859 7.90438 16.79767 13 17.6)"/><ellipse cx="111" cy="14" fill="#7d5f4f" fill-opacity=".9" rx="53" ry="26"/><circle r="1" fill="#f1ece2" fill-opacity=".5" transform="matrix(-41.9897 -13.72435 8.22689 -25.17019 111.8 106.8)"/><path fill="#000009" fill-opacity=".6" d="M5.2 142.4L38.1 19.7l36.7 9.9-32.9 122.7z"/><circle r="1" fill="#c9d6e3" fill-opacity=".6" transform="matrix(-.66305 -155.85609 11.1334 -.04736 221.6 66.8)"/><path fill="#8c978d" fill-opacity=".9" d="M10 173L15 9l-31 72z"/><circle r="1" fill="#8bcde4" fill-opacity=".4" transform="matrix(4.12327 -156.42093 13.92062 .36695 255 88.8)"/><circle r="1" fill="#564332" fill-opacity=".4" transform="matrix(27.82091 132.62433 -21.21122 4.44953 170.1 137)"/><ellipse cx="92" cy="146" fill="#dcba9f" fill-opacity=".5" rx="31" ry="119"/><circle r="1" fill="#daebf9" fill-opacity=".5" transform="matrix(32.6908 141.59943 -5.10134 1.17774 179.5 48.1)"/><path fill="#000f1f" fill-opacity=".6" d="M232 27h7v143h-7z"/><ellipse cx="128" cy="114" fill="#ccd8d9" fill-opacity=".5" rx="38" ry="26"/><circle r="1" fill="#1a1317" fill-opacity=".7" transform="rotate(-166.4 25 32.1) scale(24.0147 55.19527)"/><circle r="1" fill="#2a3a47" fill-opacity=".6" transform="rotate(-8.2 745.2 -1353.3) scale(2.80396 152.34258)"/><ellipse cx="38" cy="125" fill="#0e0a10" fill-opacity=".6" rx="28" ry="24"/><ellipse cx="24" cy="169" fill="#5a7d7d" fill-opacity=".5" rx="73" ry="21"/><ellipse cx="69" cy="100" fill="#c4977d" fill-opacity=".7" rx="13" ry="22"/><circle r="1" fill="#c6c9cd" fill-opacity=".7" transform="matrix(20.14758 98.15135 -8.88887 1.82462 173.7 2.6)"/><circle r="1" fill="#c98451" fill-opacity=".4" transform="matrix(22.80162 18.61281 -16.9504 20.76508 117 55)"/><path fill="#52271d" fill-opacity=".6" d="M174.4 170.2l-53.4 7.5-1.4-9.9 53.4-7.5z"/><circle r="1" fill="#7b8480" fill-opacity=".7" transform="matrix(19.16341 87.06474 -10.91221 2.40184 152.6 0)"/><circle r="1" fill="#c1c6cc" fill-opacity=".5" transform="matrix(16.27214 -.8055 5.04598 101.93605 215.7 16)"/><path fill="#34140e" fill-opacity=".4" d="M106.5-3.9l9.7 24.1L87.5 32 77.8 7.8z"/><path fill="#b2b4b9" fill-opacity=".6" d="M235.3 205.1l-20 .7-2.6-73 20-.6z"/><ellipse cx="55" cy="144" fill="#0c070a" fill-opacity=".8" rx="4" ry="24"/><path fill="#9ea19b" fill-opacity=".6" d="M51.5-13.4l17.8 57.5-2-46.9-30.1 31.1z"/><path fill="#c9e2f6" fill-opacity=".4" d="M54 176l12-42 16 51z"/><path fill="#181016" fill-opacity=".6" d="M15 36h41v111H15z"/><circle r="1" fill="#55220b" fill-opacity=".4" transform="matrix(-3.61616 .99844 -8.8417 -32.02304 146.2 42.1)"/><ellipse cx="235" cy="67" fill="#091118" fill-opacity=".6" rx="3" ry="134"/><path fill="#5f4b46" fill-opacity=".5" d="M170 181l38 4-27-79z"/><circle r="1" fill="#e6e7e3" fill-opacity=".7" transform="matrix(12.2393 13.60374 -10.04344 9.0361 114.6 97)"/><circle cx="152" cy="136" r="28" fill="#b48363" fill-opacity=".3"/><path fill="#eabb92" fill-opacity=".4" d="M88.7 96.3l7.7-81.4-26 24.5-4.8 18.1z"/><circle r="1" fill="#8d9396" fill-opacity=".7" transform="rotate(179.3 127.2 44.7) scale(5.90473 70.61864)"/><path fill="#5e635b" fill-opacity=".7" d="M13.4 138.5l12.8 25-19.6 10-12.8-25z"/><ellipse cx="242" cy="57" fill="#45535a" fill-opacity=".6" rx="4" ry="169"/><path fill="#00020a" fill-opacity=".6" d="M94 17l20.5-4 1.6 8-20.6 4z"/><path fill="#b2becc" fill-opacity=".7" d="M75.9 25h6L66 27.8l-5.5-14.5z"/><path fill="#fdb486" fill-opacity=".3" d="M107.7-9.2l-.7 6.4 26.6 22.1-17.3 3.5z"/><path fill-opacity=".6" d="M69 38l12-13H71z"/><path fill="#949b90" fill-opacity=".8" d="M5 35.1L.7 47.8l56.2-35.2-59.3-27.9z"/><path fill="#865841" fill-opacity=".7" d="M108 8L48-16l19 32z"/><path fill="#bec5c9" fill-opacity=".5" d="M76 103l-13 33 7 32z"/><path fill="#a67758" fill-opacity=".5" d="M69.7 123.2l.2-93-12.2 97.5.9-2.5z"/><path fill="#c2c8ce" fill-opacity=".4" d="M175.4 72.7l8-78.5 13.2 90.4 6.3 86.7z"/><path fill="#1f161b" fill-opacity=".8" d="M11.2 128.2L56.3 38l5.2-32.9-45.6 45.7z"/><path fill="#010c14" fill-opacity=".2" d="M214.7 185l-17.3-80.3 19.5 46.5 2.7 33.8z"/><path fill="#8f5b42" fill-opacity=".5" d="M155.5 96.8l-33.8-72.5 10.8-5 33.8 72.4z"/><path fill="#a4aaa3" fill-opacity=".6" d="M133.7 131l9.7-33.7 26.9 7.7-9.7 33.7z"/><path fill="#b1876e" fill-opacity=".7" d="M101.4 176.2l39.6-10.8 23-3.3-13.9-21.4z"/><ellipse cx="85" cy="168" fill="#413b38" fill-opacity=".5" rx="9" ry="3"/><circle r="1" fill="#d5b2a0" fill-opacity=".5" transform="matrix(-7.97388 .1531 -1.0125 -52.73178 83.3 112.8)"/><path fill="#b4876a" fill-opacity=".5" d="M153 86l-18-45-61-20z"/><path fill="#001627" fill-opacity=".2" d="M193.5-16L182-11l12.8 70.9-1.1-29.2z"/><path fill="#95a0a6" fill-opacity=".5" d="M217 109l-7 38-11-80z"/><path fill="#0e0605" fill-opacity=".5" d="M66.3 79.9l-.9-12.4-24.3 60.2-3.8-44.5z"/><path fill="#c4c2c7" fill-opacity=".4" d="M218 69h15v101h-15z"/><path fill="#986e59" fill-opacity=".5" d="M92 123l13 9-5 7z"/><path fill="#c3c0b9" fill-opacity=".6" d="M143.4 148.2L125 116.7l-17.1 18.1 8.1 4.8z"/><path fill="#060909" fill-opacity=".6" d="M23.6 39.4L22 36.9l20.5-14.3 1.7 2.5z"/><circle r="1" fill="#c6c6c9" fill-opacity=".6" transform="matrix(-6.88533 -57.74208 8.62075 -1.02796 214.8 48.7)"/><circle r="1" fill="#0d1117" fill-opacity=".6" transform="rotate(90.8 110.8 125) scale(42.47436 2.26776)"/><path fill="#f7ffff" fill-opacity=".5" d="M86 85H68l7 4z"/></g></svg>