<svg xmlns="http://www.w3.org/2000/svg" viewBox="0 0 300 199"><defs/><path fill="#484141" d="M0 0h300v199H0z"/><g transform="translate(.6 .6) scale(1.17188)"><circle cx="44" r="123" fill="#c5a994" fill-opacity=".6"/><circle r="1" fill="#cdc8c6" fill-opacity=".7" transform="matrix(-15.03217 .92763 -6.55473 -106.21861 42 120.5)"/><circle r="1" fill="#521c00" fill-opacity=".7" transform="rotate(-76.6 65.6 -26) scale(103.32829 16.08235)"/><circle r="1" fill="#ffba6d" fill-opacity=".6" transform="matrix(12.36211 1.66013 -17.23825 128.36442 255 98.5)"/><ellipse cx="137" cy="39" fill="#c5b4a5" fill-opacity=".6" rx="44" ry="29"/><path fill="#c1ded9" fill-opacity=".4" d="M148 177l23-46-70-7z"/><circle cx="137" cy="99" r="37" fill="#000009" fill-opacity=".4"/><path fill="#fff" fill-opacity=".5" d="M38 141h37v20H38z"/><circle r="1" fill="#00000c" fill-opacity=".6" transform="matrix(19.96932 -50.43675 15.82329 6.26488 214.7 148.5)"/><circle r="1" fill="#ffd5b2" fill-opacity=".6" transform="matrix(17.48102 -36.80566 4.5594 2.1655 176.7 114.1)"/><circle r="1" fill="#602300" fill-opacity=".7" transform="matrix(14.52627 -6.83554 27.4447 58.32296 87.5 137.2)"/><ellipse cx="223" fill="#a28e7b" fill-opacity=".6" rx="11" ry="108"/><path fill="#fbffff" fill-opacity=".4" d="M66 15L46.3 94.6 24 89 43.8 9.4z"/><path fill="#611b00" fill-opacity=".7" d="M207 137l9-139-50-5z"/><path fill="#eff7ff" fill-opacity=".5" d="M94.4 34l21.9 7-12.7 39-21.9-7z"/><circle r="1" fill="#672300" fill-opacity=".6" transform="matrix(14.23552 -10.852 49.26362 64.62342 0 141)"/><circle r="1" fill="#4a0900" fill-opacity=".6" transform="rotate(-143.7 115.2 37) scale(12.50524 45.74802)"/><path fill="#a08067" fill-opacity=".7" d="M195 91l-59-41 44-9z"/><ellipse cx="150" cy="118" fill="#021518" fill-opacity=".6" rx="11" ry="31"/><path fill="#2d2623" fill-opacity=".8" d="M65 120l-32.1-7.3 12.4-7.4L72 147.4z"/><path fill="#e9e3f2" fill-opacity=".6" d="M121.2 91.8l-3.6 14.6-8.8-2.2 3.6-14.6z"/><path fill="#9b6d44" fill-opacity=".6" d="M271-6l-79-10 10 49z"/><path fill="#bad0ce" fill-opacity=".5" d="M126 134h17v36h-17z"/><circle cx="139" cy="96" r="8" fill="#cbb5ba" fill-opacity=".5"/><path fill="#c8bab5" fill-opacity=".5" d="M21 132l8-33 57 86z"/><path fill="#baaea4" fill-opacity=".5" d="M102.1.3l48.2-2.4-31.7 103 2.8-4.9z"/><path fill="#bbbac3" fill-opacity=".6" d="M18 102l40 5-38-54z"/><path fill="#020003" fill-opacity=".6" d="M233.4 53.7l-9.9 84.6 17.4-22.8-.5-89.9z"/><path fill="#081e15" fill-opacity=".6" d="M109.9 140.5l17.7 4.1 3.5 12.1-12.8 8.3z"/><path fill="#f1ceb5" fill-opacity=".4" d="M189.2 171.5l-10-4.7 7.6-16.3 10 4.7z"/><path fill="#b4f8ff" fill-opacity=".2" d="M131.6 123.7l-46.4.9 9.6 3.3 56.4 37z"/><circle r="1" fill="#511900" fill-opacity=".7" transform="matrix(9.60666 5.3933 -16.56144 29.4996 199.6 103.7)"/><circle r="1" fill="#622c00" fill-opacity=".6" transform="rotate(26.9 -4.2 189) scale(8.54866 78.37764)"/><path fill="#4e403e" fill-opacity=".9" d="M157.2 59.4l-39.7 26.9 27.1 5.8 3.1-42.4z"/><path fill="#000014" fill-opacity=".4" d="M119.3 79.7l-24.9 1 1.5 6.7 9.6 17.5z"/><path fill="#1a0a00" fill-opacity=".4" d="M186 162h70v8h-70z"/><path fill="#44352f" fill-opacity=".8" d="M176.9 68.6l-71.2-1.5 10.3-6.4 31.9 24.5z"/><path fill="#140100" fill-opacity=".5" d="M145 70h25v47h-25z"/><path fill="#edfaff" fill-opacity=".3" d="M64 36.7l-40.5-9.6L38 81.3l-8.2 40.6z"/><path fill="#918a61" fill-opacity=".7" d="M38 159h39v11H38z"/><path fill="#aca1a5" d="M94.6 111.1L77 86.9l4.9-5.4 16.9 11.9z"/><circle r="1" fill="#072028" fill-opacity=".8" transform="rotate(-94.1 174.1 -27.2) scale(20.72323 21.99511)"/><path fill="#021e22" fill-opacity=".6" d="M152.2 142.6l-.1 1-46.3-8.2.1-1z"/><path fill="#b0937e" fill-opacity=".6" d="M152 78l30-22-22-71z"/><path fill="#492608" fill-opacity=".6" d="M102.8 107.1l-33.3 4.5-28.8 28.9 47.7.7z"/><path fill="#c8c1bf" fill-opacity=".5" d="M103.5 20l20.5 8-21.5 56L82 76z"/><path fill="#eeb598" fill-opacity=".4" d="M194.7 87.7l-51.3 100.7-8-4.1 51.2-100.7z"/><circle r="1" fill="#90867b" fill-opacity=".4" transform="matrix(-19.16154 2.74465 -8.1283 -56.74703 12 74.4)"/><circle r="1" fill="#cc9b6a" fill-opacity=".5" transform="matrix(-11.01262 64.83519 -6.5861 -1.11869 246.2 119.2)"/><path fill="#000106" fill-opacity=".6" d="M118.8 124.1l12.8-27.5 6-23-5.7-7.7z"/><path fill="#a09281" fill-opacity=".8" d="M51.6 128.5l-27.5 16 7 14.5 18.3-43.6z"/><path fill="#e4deed" fill-opacity=".5" d="M34 143h32v18H34z"/><path fill="#dbdadf" fill-opacity=".8" d="M26.1 21l11.1 51.8 21.1 39-21.2-18.5z"/><circle r="1" fill="#65523f" fill-opacity=".4" transform="matrix(-3.9645 35.34431 -11.28627 -1.26596 0 29.4)"/><circle r="1" fill="#4c1600" fill-opacity=".6" transform="rotate(-21.5 182.9 -465.5) scale(5.69577 68.36476)"/><ellipse cx="75" cy="10" fill="#5f2c00" fill-opacity=".4" rx="12" ry="76"/><circle r="1" fill="#4f1900" fill-opacity=".7" transform="rotate(123.1 38.2 127.2) scale(99.24202 8.57675)"/><path fill="#b1a299" fill-opacity=".6" d="M29 23l23-38 4 61z"/><path fill="#9f9384" fill-opacity=".6" d="M211 60.7l10.6 16.6 1.3-65.7-8.4 18.7z"/><path fill="#440d00" fill-opacity=".4" d="M188-12l5 95 28 4z"/><circle r="1" fill="#461900" fill-opacity=".6" transform="matrix(11.3773 -17.5195 19.97651 12.9729 101.1 167.3)"/><path fill="#6e390f" fill-opacity=".4" d="M46 91l14-41 51 104z"/><path fill="#1c3438" fill-opacity=".6" d="M155 138l-62.1-11 .2-1 62 11z"/><path fill="#c2f7ff" fill-opacity=".1" d="M83.4 93.5l6.2 27.5 18-9.3-1.5 30.4z"/><circle r="1" fill="#ddb8c8" fill-opacity=".3" transform="matrix(-10.13877 -5.8422 2.5802 -4.47779 120.3 75)"/></g></svg>