<svg xmlns="http://www.w3.org/2000/svg" viewBox="0 0 300 199"><defs/><path fill="#68513e" d="M0 0h300v199H0z"/><g transform="translate(.6 .6) scale(1.17188)"><ellipse cx="139" cy="37" fill="#def8ff" fill-opacity=".4" rx="168" ry="129"/><circle r="1" fill="#01040a" fill-opacity=".6" transform="matrix(18.52404 103.99337 -19.99344 3.56137 207.5 141.1)"/><circle r="1" fill="#05070a" fill-opacity=".7" transform="matrix(-15.87692 -1.7992 3.5167 -31.033 68.9 138.7)"/><path fill="#424548" d="M158.3 169.8l-41.2-30.7 7-28.7 22.8-4.7z"/><circle r="1" fill="#070502" fill-opacity=".8" transform="rotate(-21.4 278 -627.8) scale(11.63221 18.54156)"/><circle r="1" fill="#d5d2c7" fill-opacity=".6" transform="rotate(-167.6 26.9 53) scale(16.50268 140.043)"/><ellipse cx="104" cy="115" fill="#fffff9" fill-opacity=".4" rx="15" ry="155"/><ellipse cx="164" cy="68" fill="#fffff8" fill-opacity=".4" rx="12" ry="126"/><path fill-opacity=".5" d="M66 46h26v29H66z"/><circle r="1" fill="#e0dcce" fill-opacity=".5" transform="matrix(41.8864 139.6324 -14.44189 4.33222 238.6 116.8)"/><path fill-opacity=".5" d="M147.2 44.8l.6 30-27 .4-.6-30z"/><path fill-opacity=".7" d="M39.3 51.8l-6 26.3-16.6-3.9 6-26.3z"/><ellipse cx="184" cy="93" fill="#bfbcb4" rx="50" ry="4"/><path fill="#10161a" fill-opacity=".8" d="M22.6 111.3l-14.9-.7-23.7 50.1L7.9 185z"/><ellipse cx="111" cy="92" fill="#d3cec1" fill-opacity=".7" rx="70" ry="19"/><path fill="#676a6d" fill-opacity=".9" d="M228.6 185l-109-39.7-7.7 35.9L271 156z"/><ellipse cx="163" cy="37" fill="#d6d4cb" fill-opacity=".8" rx="101" ry="5"/><ellipse cx="134" cy="11" fill="#0c0700" fill-opacity=".7" rx="10" ry="6"/><path fill="#20170a" fill-opacity=".7" d="M176.7 2.2h12.2l5.4 12.9-18.4 2.8z"/><circle r="1" fill="#0d0a04" fill-opacity=".7" transform="matrix(-3.28002 7.33257 -7.68939 -3.43963 233.3 9.2)"/><ellipse cx="68" cy="167" fill="#605d58" rx="78" ry="4"/><path fill="#110a01" fill-opacity=".6" d="M79.2-12.6L98.5-16 72.9 18.5l22.5-.7z"/><path fill="#150c02" fill-opacity=".5" d="M177 46h30v34h-30z"/><path fill="#f2ebe3" fill-opacity=".5" d="M172 103h12v61h-12z"/><path fill="#e9eafd" fill-opacity=".5" d="M132.1 184.9l14.4-26.4v14.6l-5.3-34.7z"/><path fill="#babab5" fill-opacity=".8" d="M36.6 40.6L-1.7 69.9 9.6-11.6 26.8 2.5z"/><circle r="1" fill="#03070e" fill-opacity=".6" transform="matrix(9.51315 -1.71169 5.1281 28.50078 214.2 135.5)"/><circle cx="38" cy="15" r="8" fill="#0c0100" fill-opacity=".5"/><ellipse cx="166" cy="23" fill="#bab6ab" rx="125" ry="7"/><path fill="#d8d9d4" fill-opacity=".6" d="M81.2 163l5.7-53.7 15.9 1.7-5.7 53.7z"/><path fill-opacity=".4" d="M72.9 51.1l12.3-7.7 7.6 33.7-33.4-2.5z"/><path fill="#c9c6be" fill-opacity=".6" d="M-16 73l93 26-47 24z"/><circle cx="137" cy="125" r="19" fill="#2d2e31" fill-opacity=".5"/><circle cx="68" cy="127" r="18" fill="#100800" fill-opacity=".4"/><ellipse cx="95" cy="93" fill="#7d613c" fill-opacity=".4" rx="67" ry="3"/><path fill="#bbb6a6" fill-opacity=".5" d="M255 71l16 91.5-38.4 2-12.9-49.7z"/><path fill="#cfc8bb" fill-opacity=".7" d="M171-16l-30 3 13 103z"/><path fill="#dce4ed" fill-opacity=".4" d="M5.5 10.8L111-11.7l1.4 6.9L7 17.7z"/><path fill="#d5d0c6" fill-opacity=".8" d="M94.4 36.1l32.6 3.2 4.7-15.2-37.1 106.4z"/><path fill="#040302" fill-opacity=".4" d="M15 62h18v17H15z"/><path fill="#c8d2d1" fill-opacity=".5" d="M33.9 135.4l-8.3 30.9-13.5-3.7 8.3-30.9z"/><circle r="1" fill="#130c0e" fill-opacity=".6" transform="matrix(-3.60437 -2.1685 4.39694 -7.30835 0 23.8)"/><path fill="#25303f" fill-opacity=".5" d="M118 139h19v26h-19z"/><path fill="#161618" fill-opacity=".6" d="M187.1 150.3l27.2-55.8 10.4 38.2-33 36.3z"/><path fill="#cfcbbf" fill-opacity=".6" d="M154.9 162.7l35.9 2.1L165.7-1.6 160 157.1z"/><path fill="#d0ccc4" fill-opacity=".7" d="M83.5 32.3l-36 39.8L29 27.7l77.5 21.5z"/><path fill="#1d1b18" fill-opacity=".5" d="M120 60h30v13h-30z"/><ellipse cx="223" cy="21" fill="#9a8e77" fill-opacity=".6" rx="131" ry="3"/><ellipse cx="118" cy="3" fill="#d9d5ca" fill-opacity=".7" rx="6" ry="25"/><ellipse cx="114" cy="100" fill="#d7d8d1" fill-opacity=".7" rx="63" ry="6"/><ellipse cx="10" cy="97" fill="#553711" fill-opacity=".5" rx="20" ry="2"/><ellipse cx="172" cy="25" fill="#e5e8ee" fill-opacity=".6" rx="80" ry="2"/><path fill="#b1c5e2" fill-opacity=".6" d="M123 145h6v12h-6z"/><path fill="#b5b2a7" d="M15.5 58.3L-16 137.5 11.4 102l-25.8-6.5z"/><path fill="#2b3135" fill-opacity=".6" d="M51 139h32v27H51z"/><circle r="1" fill="#3a3f44" fill-opacity=".6" transform="rotate(-170.1 132.5 72.8) scale(55.8045 3.26693)"/><ellipse cx="75" cy="31" fill="#7b5715" fill-opacity=".2" rx="255" ry="3"/><path fill="#e3eaeb" fill-opacity=".6" d="M63 83h116v6H63z"/><path fill="#bebdb6" d="M94.3 1.7L224.8-.2l-2.2 20.4L155.9-16z"/><path fill="#9d9888" d="M-3.5 39.1L26.3 42l48-12.6-15.7 4.3z"/><ellipse cx="153" cy="169" fill="#928c8d" fill-opacity=".7" rx="109" ry="2"/><path fill="#8a7858" fill-opacity=".7" d="M199.2 39l19.7 54.3-4.3-17.6-4.6-20z"/><path fill="#d5d1c6" fill-opacity=".8" d="M138.3 36.4l30.8-5.7 12.1 12.1-20.5 23z"/><path fill="#cacbc8" d="M70.7 25.9l111.3 2-88.9.1L-16 39.3z"/><path fill="#b4ab9b" fill-opacity=".6" d="M17 79h109v6H17z"/></g></svg>