<svg xmlns="http://www.w3.org/2000/svg" viewBox="0 0 300 199"><defs/><path fill="#5a2a27" d="M0 0h300v199H0z"/><g transform="translate(.6 .6) scale(1.17188)"><circle r="1" fill="#d3f0e2" fill-opacity=".5" transform="matrix(12.33095 -65.88984 245.7766 45.99584 167.2 48.3)"/><ellipse cx="41" cy="130" fill="#647875" fill-opacity=".5" rx="116" ry="69"/><circle cx="234" cy="73" r="47" fill="#ded7c9" fill-opacity=".4"/><path fill-opacity=".5" d="M38 82h43v28H38z"/><circle r="1" fill="#7d7364" fill-opacity=".6" transform="rotate(-37.7 72.2 -211.6) scale(89.26354 60.28405)"/><ellipse cx="22" cy="65" fill="#9e9faa" fill-opacity=".9" rx="45" ry="17"/><path fill="#070002" fill-opacity=".5" d="M113.4 123.9l1.4 11L6.6 148l-1.4-11z"/><ellipse cx="193" cy="131" fill="#8f7d6a" fill-opacity=".8" rx="12" ry="20"/><path fill="#e8c191" fill-opacity=".5" d="M131 114.8l11.9.4-1.8 52-12-.4z"/><path fill="#022021" fill-opacity=".6" d="M197 164l11-51 63 62z"/><path fill="#a88b84" fill-opacity=".6" d="M240.4 138.2l-23.2-6.2 6.4-24.2 23.2 6.2z"/><path fill="#241501" fill-opacity=".4" d="M-16 50.3l28.1 46.5L-16 72.7l59.9 1z"/><path fill="#cec5ad" fill-opacity=".8" d="M47.5 57.1l46.8 1.2L127 36.7l-21 9.4z"/><path fill="#eaefef" fill-opacity=".6" d="M14 88h21v8H14z"/><ellipse cx="93" cy="63" fill="#250200" fill-opacity=".3" rx="35" ry="8"/><path fill="#868da1" fill-opacity=".6" d="M50 158h55v12H50z"/><circle r="1" fill="#c5b5b5" fill-opacity=".6" transform="rotate(96.9 -6.1 7) scale(8.14606 91.14055)"/><circle r="1" fill="#fffffc" fill-opacity=".7" transform="matrix(.4108 -4.04428 12.09766 1.22884 52.7 39.5)"/><path fill="#b8bfc9" fill-opacity=".6" d="M51 73h51v11H51z"/><path fill="#c7c6cc" fill-opacity=".6" d="M197.6 129.4L219 93.8l-30.9-21.9 2.4 27.7z"/><path fill="#d7d4f3" fill-opacity=".5" d="M-16 55L2 41l56 23z"/><path fill="#4c321a" fill-opacity=".3" d="M150.6 66.1L217 48.7l-82.8 4.2 9.3 17.7z"/><path fill="#ffe9cd" fill-opacity=".3" d="M73.7 127.3l7.1 7.2 5.7-24.2-20 14.2z"/><path fill="#b9b3a8" fill-opacity=".7" d="M162.4 62.7l33.7-7-53.7 53.7-8.4-6.5z"/><ellipse cx="65" cy="100" fill="#bbb7a3" fill-opacity=".8" rx="2" ry="14"/><ellipse cx="24" cy="128" fill="#d9d9c9" fill-opacity=".4" rx="22" ry="3"/><path fill="#adbeb4" fill-opacity=".5" d="M167.5 165.2l-16.4-26.3 3.4-2.1 16.4 26.3z"/><path fill="#827466" fill-opacity=".7" d="M85.6 99.1l.8 3.8 77.4 24.6 11.7-15.6z"/><path fill-opacity=".4" d="M33 83h43v11H33z"/><path fill="#8d8d7e" fill-opacity=".5" d="M202.9 174.4l19.3-26.8 1.2 5.2 9.8-.5z"/><circle cx="114" cy="84" r="7" fill="#271109" fill-opacity=".5"/><path fill="#000002" fill-opacity=".5" d="M131 92h5v20h-5z"/><path fill="#8f7550" fill-opacity=".5" d="M264.4 76.1l-19.3-10.7-55.9 1.6 71.4-18z"/><circle cx="152" cy="156" r="11" fill="#02110c" fill-opacity=".5"/><path fill="#2d251c" fill-opacity=".4" d="M89 113h38v34H89z"/><circle r="1" fill="#514b3e" fill-opacity=".4" transform="matrix(16.33753 -19.4703 15.43685 12.95305 140.8 0)"/><path fill="#e6e6e3" fill-opacity=".5" d="M243 69h9v53h-9z"/><circle r="1" fill="#000b11" fill-opacity=".6" transform="rotate(-118.1 31.4 41) scale(5.00769 11.40989)"/><path fill="#5b2a1e" fill-opacity=".6" d="M221 109h8v15h-8z"/><path fill="#ebd4c6" fill-opacity=".2" d="M105 118.1l12.8 18.2 4-32-36.2-33.7z"/><path fill="#762200" fill-opacity=".3" d="M15.7 46l.7-24.7 26.1 18.6 36.1 13.7z"/><path fill="#c3c7c9" fill-opacity=".9" d="M-2.9 81.2L-16 74.8l29.8-1 60.2.9z"/><path fill="#020002" fill-opacity=".4" d="M67 89.2l-.9 35.1 24.2-38.9 4.1 12.2z"/><path fill="#3d2d2e" fill-opacity=".6" d="M45 96h19v49H45z"/><ellipse cx="174" cy="145" fill="#3d0809" fill-opacity=".8" rx="11" ry="15"/><path fill="#e6e0c8" fill-opacity=".5" d="M112 49L90 22l26 16z"/><path fill="#a59a89" fill-opacity=".5" d="M197.2 157.4l18.6 27.6-26.4-26.7 13.6-55.2z"/><path fill="#b09d8b" fill-opacity=".6" d="M31.4 118.4l13-3.7-.1 13.6-10.9 1.6z"/><path fill="#503117" fill-opacity=".5" d="M132.9 137.4l20.1-12.8 44.2-1.6-4.5-13.4z"/><path fill="#646663" fill-opacity=".9" d="M242.1 151.5l26.7-4.7-17.9-36.3 12.4 6.4z"/><path fill="#433619" fill-opacity=".5" d="M169 70l7 20 7-6z"/><circle r="1" fill="#e7d4b1" fill-opacity=".6" transform="matrix(53.52663 5.47301 -.24509 2.39698 30.3 52)"/><ellipse cx="9" cy="129" fill="#bbb7b0" fill-opacity=".5" rx="9" ry="6"/><circle r="1" fill="#c6c0c0" fill-opacity=".6" transform="matrix(3.4898 16.18099 -13.07524 2.81998 240.2 111)"/><path fill="#522314" fill-opacity=".3" d="M67.4 42.4l-17.3 7.2 51.7-8.1L60 21.9z"/><path fill="#a5b6aa" fill-opacity=".3" d="M24 146h63v5H24z"/><circle r="1" fill="#a19786" fill-opacity=".4" transform="matrix(-2.72394 -12.92604 72.66944 -15.31385 202.7 33.2)"/><path fill="#502408" fill-opacity=".6" d="M141 121l2 36 13-31z"/><path fill="#ffffe6" fill-opacity=".5" d="M82 85h1v29h-1z"/><path fill="#c0ae99" fill-opacity=".5" d="M181.7 126.1l-.5 3.4 21.9 7.2 10.5-3.9z"/><circle cx="228" cy="169" r="13" fill="#000204" fill-opacity=".7"/><ellipse cx="22" cy="98" fill="#ff5188" fill-opacity=".2" rx="35" ry="4"/><path fill="#231418" fill-opacity=".8" d="M22.4 130.7l10.3-.8 2.3 17.2L6 146z"/><path fill="#0a0b0b" fill-opacity=".5" d="M108 143l-4-39-9 15z"/><path fill="#d5b495" fill-opacity=".3" d="M157.7 114.5l-5.2 20.5 18.1-10.6-53.7-1.2z"/></g></svg>