<svg xmlns="http://www.w3.org/2000/svg" viewBox="0 0 300 199"><defs/><path fill="#503b34" d="M0 0h300v199H0z"/><g transform="translate(.6 .6) scale(1.17188)"><circle r="1" fill="#ecece3" fill-opacity=".7" transform="matrix(245.61373 11.27868 -2.74607 59.80058 132.6 41.6)"/><ellipse cx="80" cy="94" fill="#92887a" fill-opacity=".7" rx="255" ry="21"/><circle r="1" fill="#788870" fill-opacity=".8" transform="matrix(13.327 -28.63243 43.56032 20.27522 186.2 155)"/><circle r="1" fill="#dddbd6" fill-opacity=".7" transform="rotate(122.4 56.8 53.1) scale(42.68765 87.16833)"/><circle r="1" fill="#5e5c52" fill-opacity=".5" transform="matrix(14.76363 -7.00946 32.46508 68.37936 0 8.2)"/><circle r="1" fill="#041910" fill-opacity=".5" transform="rotate(161.4 6 79) scale(57.34794 27.36371)"/><path fill="#392720" fill-opacity=".5" d="M122 80.8l65 28.7-68.8 37.4v1z"/><path fill="#928c82" fill-opacity=".7" d="M263.7 115.1l-44.4-7 23-145.2 44.4 7z"/><path fill="#ffffef" fill-opacity=".5" d="M224 148l-63-28 30 1z"/><circle r="1" fill="#878275" fill-opacity=".6" transform="rotate(-133.4 30 44.3) scale(31.40267 38.98046)"/><path fill="#e5c6b4" fill-opacity=".4" d="M151 105l-67 22 44-29z"/><path fill="#25291c" fill-opacity=".5" d="M174.2 200.2l-21.8-3 9.4-67.4 21.8 3z"/><path fill="#d4d2cd" d="M234.2 56.7l-207.3.9-2-27 4.9 12.3z"/><path fill="#fff7de" fill-opacity=".6" d="M207 41l33-7-29 44z"/><circle r="1" fill="#53624b" fill-opacity=".7" transform="rotate(-140.4 118.8 21.8) scale(25.29988 13.4778)"/><circle r="1" fill="#3a664c" fill-opacity=".3" transform="matrix(7.6834 43.44309 -40.9997 7.25127 102.8 138.9)"/><circle r="1" fill="#c4d5ba" fill-opacity=".5" transform="matrix(-3.2834 4.3579 -30.95866 -23.32531 218 164.2)"/><path fill="#352217" fill-opacity=".5" d="M171.8 34.8l.4-10 10 .4-.4 10z"/><path fill="#fff" fill-opacity=".6" d="M54 12l-4 15-21-43z"/><path fill="#494a1a" fill-opacity=".5" d="M202.5 69.6l-4-.3 3-42.9 4 .3z"/><path fill="#eff2e1" fill-opacity=".5" d="M100 109h20v8h-20z"/><path fill="#45141e" fill-opacity=".6" d="M178 8l-37-24h50z"/><path fill="#fffef8" fill-opacity=".7" d="M-16 30.1L1.2 42.6l9.2 24.1-6.9 5.4z"/><path fill="#000100" fill-opacity=".4" d="M180 150.5l6.8-7.3 43.2 40.3-6.8 7.3z"/><circle r="1" fill="#152f23" fill-opacity=".5" transform="matrix(-8.4912 17.52246 -32.37138 -15.68681 248.3 135)"/><circle cx="153" cy="134" r="6" fill="#fffff4" fill-opacity=".5"/><path fill="#ffefd4" fill-opacity=".6" d="M217.4 10.4l-16.2 11.8-10.6-14.6 16.2-11.8z"/><circle r="1" fill="#98c8a4" fill-opacity=".4" transform="matrix(-1.18 1.95221 -23.7075 -14.32976 233.9 153.3)"/><circle r="1" fill="#bfb1a3" fill-opacity=".9" transform="matrix(9.17022 -14.96642 16.69638 10.2302 103.2 74.3)"/><path fill="#0c0002" fill-opacity=".5" d="M118.7 113.8l38.7 12.7-18.1-33.2 32.7 21.2z"/><circle r="1" fill="#918678" fill-opacity=".5" transform="rotate(54.6 103.2 237.5) scale(45.21802 15.26443)"/><path fill="#7f7b75" fill-opacity=".7" d="M36.9-.7L-16 23.1l47.3-6.4 8.6 15.8z"/><path fill="#e1e4e2" fill-opacity=".6" d="M44.7 35.2L32.5 69.1 57.9 33l40 45.7z"/><path fill="#544d43" fill-opacity=".5" d="M24 74L13 39l-29-25z"/><path fill="#f5e3c9" fill-opacity=".8" d="M254.1-16L271 18.6l-19.1-2.2-.7-2.8z"/><path fill="#fafcff" fill-opacity=".5" d="M130 57l4-32-31-16z"/><ellipse cx="174" cy="96" fill="#4d4b3b" fill-opacity=".7" rx="44" ry="2"/><path fill="#3f4735" fill-opacity=".8" d="M169.8 128.7l19.8 5.9 58.5 30.7L271 185z"/><path fill="#fdfaf5" fill-opacity=".3" d="M213.9 2.1L181 65.3l1.8-81.3 9.7 40.1z"/><path fill="#3a2501" fill-opacity=".2" d="M199.8 34.9l19.8-10.5-47.3-18.3 26.4 21.4z"/><path fill="#191a13" fill-opacity=".7" d="M0 185l-16-40 96-38z"/><path fill="#c6b4a6" fill-opacity=".5" d="M138 76h69v18h-69z"/><path fill="#530103" fill-opacity=".3" d="M151.2 101l-22-1-36.6 5.6L131 82z"/><path fill="#998f87" fill-opacity=".5" d="M36 122l5-65 72 35z"/><path fill="#627359" fill-opacity=".4" d="M94 114h26v44H94z"/><path fill="#585047" fill-opacity=".4" d="M33 47l-8-24 15 20z"/><path fill="#fbffff" fill-opacity=".6" d="M112 17L98 37l-6-25z"/><ellipse cx="214" cy="122" fill="#40483a" fill-opacity=".7" rx="16" ry="15"/><circle r="1" fill="#d38c89" fill-opacity=".5" transform="rotate(-59.7 159.9 -67) scale(5.06214 14.7051)"/><path fill="#e3e4e4" fill-opacity=".6" d="M192.8 15.9L138.5.6l15.9 59.6 23.7-43.3z"/><path fill="#fff5d9" fill-opacity=".4" d="M207 41h17v35h-17z"/><path fill="#fffffa" fill-opacity=".8" d="M3-16L5 7l-9-23z"/><ellipse cx="53" cy="44" fill="#a9a39e" fill-opacity=".9" rx="3" ry="31"/><path fill="#958e86" fill-opacity=".7" d="M271 115.3l-52.2-4.4-20.3-36 54.1-.6z"/><path fill="#eaefdb" fill-opacity=".6" d="M196.8 130.6l3.5 6.4-29.9-10.4 3.7-5.9z"/><path fill="#b1d3b9" fill-opacity=".3" d="M201.9 185h5.1l-26.6-36.9-4.4 10.3z"/><path fill="#030200" fill-opacity=".2" d="M117.8 107.9l-31.3-6.1 44.9-8.4-7.4-18.6z"/><path fill="#949693" fill-opacity=".5" d="M66 51l1-31 13 13z"/><path fill="#ebf1c8" fill-opacity=".3" d="M156.4 128.2l-13.6 11.3 4.1 8.4 8.9 5.4z"/><circle r="1" fill="#f5f4f7" fill-opacity=".5" transform="rotate(73 -1.2 66.8) scale(24.6562 2.52559)"/><path fill="#b1aeac" fill-opacity=".5" d="M113 3l13 1-15 47z"/><path fill="#38382e" fill-opacity=".4" d="M97 139.6L70.3 185l-29-60 137.2 2z"/><circle cx="192" cy="17" r="5" fill="#6e3a39" fill-opacity=".5"/><path fill="#6c7452" fill-opacity=".5" d="M211 41.3l-4-25.7 6-1 4 25.8z"/><path fill="#898278" fill-opacity=".7" d="M8.6 87.6l7.5-30.8L53 119.2 6.3-6.8z"/></g></svg>