<svg xmlns="http://www.w3.org/2000/svg" viewBox="0 0 300 199"><defs/><path fill="#3a465a" d="M0 0h300v199H0z"/><g transform="translate(.6 .6) scale(1.17188)"><circle r="1" fill="#fbf7f0" fill-opacity=".8" transform="matrix(-3.01698 -159.11041 17.25735 -.32723 178.5 81.9)"/><ellipse cx="89" cy="67" fill="#fef8eb" fill-opacity=".7" rx="20" ry="169"/><circle cy="99" r="73" fill="#030000" fill-opacity=".8"/><ellipse cx="131" cy="6" fill="#c1b8ae" fill-opacity=".9" rx="63" ry="19"/><ellipse cx="230" cy="84" fill="#0d0804" fill-opacity=".8" rx="34" ry="169"/><ellipse cx="29" cy="99" fill="#0d0c0b" rx="39" ry="169"/><circle r="1" fill="#070000" fill-opacity=".6" transform="matrix(-9.10765 -39.43643 16.80853 -3.88185 123.7 91.8)"/><ellipse cx="152" cy="77" fill="#f4e1c6" fill-opacity=".6" rx="5" ry="28"/><ellipse cx="83" cy="34" fill="#1d1313" fill-opacity=".7" rx="3" ry="101"/><path fill="#fff" fill-opacity=".5" d="M90 86l27-57-32-1z"/><path fill="#ebeff1" fill-opacity=".8" d="M122.8 164.7l-39 20.3L99.3 4l7.4 154.3z"/><path fill="#fbf7f3" fill-opacity=".8" d="M136.7 58.4l-9.6 4.7.1-17.8 5.4-4.4z"/><path fill="#221a18" fill-opacity=".7" d="M76 25h160v4H76z"/><ellipse cx="88" cy="87" fill="#201915" fill-opacity=".5" rx="135" ry="3"/><path fill="#949187" fill-opacity=".7" d="M71.8 172l-4.5-75.8.3-112.2 9.9 129z"/><circle cx="137" cy="136" r="31" fill="#3d2a0b" fill-opacity=".4"/><ellipse cx="120" cy="23" fill="#0c0703" fill-opacity=".6" rx="4" ry="169"/><path fill="#e7eef0" fill-opacity=".5" d="M161.2 149.6l50.5 35.4-122.6-3.5 70.4-20.3z"/><path fill="#fff" fill-opacity=".4" d="M132 12h23v25h-23z"/><path fill="#f2f5f4" fill-opacity=".5" d="M147 72l45 47-7 66z"/><ellipse cx="124" cy="8" fill="#2e2112" fill-opacity=".4" rx="101" ry="3"/><path fill="#f2fafe" fill-opacity=".5" d="M137.9 180.8l-4-13.6-9.8-20.2 13.1 1.7z"/><path fill="#fff" fill-opacity=".5" d="M162 34h25v50h-25z"/><path fill="#fff9e7" fill-opacity=".4" d="M115.5 46.1l2.9-62.1 69.3 22.9-93.8 3.6z"/><ellipse cx="140" cy="27" fill="#211919" fill-opacity=".7" rx="36" ry="3"/><path fill="#27211b" fill-opacity=".5" d="M149.1 166.7l4.8-68.9L136.6 64 99.1 86.3z"/><path fill-opacity=".5" d="M106 50h20v47h-20z"/><path fill="#030100" fill-opacity=".4" d="M189 155h67v15h-67z"/><path fill="#fff" fill-opacity=".4" d="M86 28l34 3-35 51z"/><path fill="#fff" fill-opacity=".5" d="M132 76l-3 9V68z"/><path fill="#100500" fill-opacity=".7" d="M131.4 44.8l9.3-10.4 12 10.8-9.4 10.4z"/><ellipse cx="79" cy="124" fill="#f7fcfd" fill-opacity=".6" rx="3" ry="35"/><ellipse cx="97" cy="17" fill="#fdffff" fill-opacity=".7" rx="13" ry="8"/><path fill="#1a191a" d="M107.8 145.6l4.2-45.1 14-5.9.7 90.4z"/><path fill="#0c0000" fill-opacity=".5" d="M156 14h4v63h-4z"/><path fill-opacity=".4" d="M96 9h89v2H96z"/><path fill="#dde1e4" fill-opacity=".9" d="M126.4 183l-24.6 2 9-81-23.2 20z"/><path fill-opacity=".5" d="M155 150h6v20h-6z"/><path fill="#0b0609" fill-opacity=".6" d="M86.9 109l1 .1L85 135l-1-.1z"/><path fill="#fff" fill-opacity=".7" d="M161.3 12.4l21-.8.4 12-21 .8z"/><path fill="#c5b39d" fill-opacity=".9" d="M71 5l118 2-74-23z"/><path fill="#b3b0aa" fill-opacity=".5" d="M190 86h7v77h-7z"/><path fill="#272420" fill-opacity=".5" d="M84.1 155.4L82.6 185l-19.2-63.2-3.9 63.2z"/><path fill="#867b67" fill-opacity=".4" d="M164.8 117.9l7.2 31.4-21.5 15.5-4.5-91.2z"/><path fill="#fff" fill-opacity=".5" d="M152 32h3v40h-3zm-28-21h31v13h-31z"/><ellipse cx="191" cy="33" fill="#b1aea3" fill-opacity=".6" rx="4" ry="36"/><path fill="#191517" fill-opacity=".6" d="M80.4 85h-1l2.2-62h1z"/><circle r="1" fill="#1d1a1a" fill-opacity=".7" transform="matrix(-2.07925 -98.76885 12.3821 -.26066 206.8 24.3)"/><path fill="#f4f8fb" fill-opacity=".5" d="M163 89h27v28h-27z"/><circle r="1" fill="#090706" fill-opacity=".6" transform="rotate(63.7 -55.2 192.1) scale(5.38126 8.85494)"/><path fill="#0f0000" fill-opacity=".6" d="M117.9 36.6l2.6-10.6 13.6 3.4-2.6 10.6z"/><path fill="#0e0d11" fill-opacity=".7" d="M107.7 49.7l4.2 88.4 15.4-98.5-1.5-9.1z"/><path fill="#fefffd" fill-opacity=".5" d="M86 34h18v52H86z"/><path fill="#e6e9ec" fill-opacity=".8" d="M188.6 91.9l.4 69.9-26.9-12.3-.7 35.5z"/><path fill="#eef9f9" fill-opacity=".5" d="M103 97h7v25h-7z"/><path fill-opacity=".5" d="M159 85h30v3h-30z"/><path fill="#290b00" fill-opacity=".4" d="M151 65l-7-15-19 44z"/><path fill="#efe9e2" fill-opacity=".5" d="M140.9 52.5l-14.6 15.1L136.9 32l-7.1 14z"/><path fill="#fafbfb" fill-opacity=".6" d="M162 29h26v55h-26z"/><path fill="#fff" fill-opacity=".3" d="M136.8 146.5l-5.1 14-8.5-3 5.1-14z"/><ellipse cx="61" cy="47" fill="#121110" fill-opacity=".9" rx="5" ry="145"/><path fill="#ecf2f4" fill-opacity=".6" d="M87 91h16v79H87z"/><path fill="#fff" fill-opacity=".6" d="M75.9 37.5h3l-.8 45h-3z"/><path fill="#36322d" fill-opacity=".6" d="M113.9 145.5l14.3-37 14.3-15.3 25.7 53.6z"/></g></svg>