<svg xmlns="http://www.w3.org/2000/svg" viewBox="0 0 300 199"><defs/><path fill="#4d2929" d="M0 0h300v199H0z"/><g transform="translate(.6 .6) scale(1.17188)"><circle r="1" fill="#bcb5b7" fill-opacity=".5" transform="matrix(-144.54646 -45.5271 42.96265 -136.40445 164.4 87.8)"/><ellipse cx="113" cy="54" fill="#d9eded" fill-opacity=".5" rx="66" ry="28"/><circle r="1" fill="#131302" fill-opacity=".6" transform="matrix(-67.9139 3.08395 -.88658 -19.52397 166.8 10.2)"/><circle r="1" fill="#f2e7d8" fill-opacity=".5" transform="matrix(17.78602 45.19203 -17.28176 6.8015 94.9 113)"/><path fill="#54423a" fill-opacity=".9" d="M-13 110.8L54.6 86 71 131.2 3.4 156z"/><path fill="#443332" fill-opacity=".5" d="M129 102h91v49h-91z"/><path fill="#191620" fill-opacity=".6" d="M146 9l54 67 18-56z"/><path fill="#fafcdf" fill-opacity=".6" d="M-13.3 44.1l7.2-29 19.4 4.8-7.2 29z"/><path fill="#0a2200" fill-opacity=".5" d="M74 6h19v37H74z"/><circle r="1" fill="#e09add" fill-opacity=".5" transform="matrix(22.39882 29.3692 -22.51828 17.17387 248.3 43.2)"/><path fill="#aaaba5" fill-opacity=".9" d="M18.1 171.7l53.4 10.2-27.8-46.6-24.2 39.8z"/><ellipse cx="132" cy="90" fill="#614035" fill-opacity=".5" rx="16" ry="28"/><path fill="#f5d9be" fill-opacity=".6" d="M22 68.3l-8.6-20.2L52 31.7l8.6 20.2z"/><circle r="1" fill="#a2a6a8" fill-opacity=".5" transform="matrix(8.72682 6.08303 -33.8199 48.51867 164.6 143.3)"/><circle r="1" fill="#000215" fill-opacity=".7" transform="matrix(2.97814 19.23758 -10.50577 1.62638 24.3 136.4)"/><circle r="1" fill="#c8979a" fill-opacity=".6" transform="rotate(-20.5 317.6 -402.6) scale(29.03713 16.73196)"/><path fill="#e6f1f7" fill-opacity=".5" d="M96 28h58v30H96z"/><circle r="1" fill="#92421f" fill-opacity=".4" transform="matrix(16.61696 -7.50285 32.1144 71.12553 62.8 127.5)"/><ellipse cx="189" cy="35" fill="#bfafbe" fill-opacity=".6" rx="4" ry="20"/><path fill="#3d3034" fill-opacity=".8" d="M191.2 180.2l24.8-35.9 4.8-15.3-30.8-2.3z"/><path fill="#9f95c2" fill-opacity=".7" d="M235 95l14 24-48 66z"/><ellipse cx="19" cy="8" fill="#100800" fill-opacity=".5" rx="35" ry="11"/><path fill="#241b0c" fill-opacity=".7" d="M131.9 121.3l15.2-21 17 12.4-15.2 21z"/><ellipse cy="137" fill="#8d9f90" fill-opacity=".5" rx="14" ry="26"/><ellipse cy="79" fill="#000019" fill-opacity=".5" rx="11" ry="35"/><path fill="#645f67" fill-opacity=".7" d="M64.5 54l7.9 6.6.4-21.4L54 37.6z"/><path fill="#86452c" fill-opacity=".5" d="M40 180l65 5 40-51z"/><path fill="#3a398c" fill-opacity=".3" d="M255 200l-37-12.1L251 86l37 12z"/><path fill="#dffdfa" fill-opacity=".2" d="M63 29l114 156-83-39z"/><circle cx="114" cy="98" r="21" fill="#1b464c" fill-opacity=".2"/><path fill="#50502f" fill-opacity=".5" d="M75 5l-3 36L181-4z"/><path fill="#b0704c" fill-opacity=".5" d="M80-10L-2 36l73-5z"/><circle r="1" fill="#5c2259" fill-opacity=".5" transform="matrix(-7.63275 -11.61878 21.0351 -13.81863 220.3 97.2)"/><path fill="#131d22" fill-opacity=".9" d="M183.2 54.4L175.5-16l-30.1 40 19.1 10.2z"/><circle r="1" fill="#c88464" fill-opacity=".6" transform="rotate(156.3 24 53) scale(7.6065 44.37326)"/><path fill="#190000" fill-opacity=".4" d="M113.5 54.7l1 14-8 .6-1-14z"/><path fill="#3a1f32" fill-opacity=".7" d="M188.5 69.8l43-26.6-32.5 6.1-7.5-4.1z"/><path fill="#fff" fill-opacity=".6" d="M79 0h36v2H79z"/><path fill="#ebecec" fill-opacity=".5" d="M153 27.4L89.2 40.6l6.9 57.2-31.7-33z"/><path fill="#ffe6fc" fill-opacity=".3" d="M219.9 5.3l13.8 16.2 36.8 51.2-8.4-47.9z"/><path fill="#5a98a1" d="M75.8 46.2L103 27.3 77.7 59.9l6-21.4z"/><circle r="1" fill="#552f2b" fill-opacity=".5" transform="matrix(-9.90079 5.31898 -25.1319 -46.78073 77.5 169)"/><path fill="#a6639a" fill-opacity=".6" d="M237 31l-53 71 79-45z"/><circle r="1" fill="#9b9a9a" fill-opacity=".7" transform="matrix(3.70994 -23.69096 32.46296 5.0836 162.4 169)"/><path fill="#312a1b" fill-opacity=".7" d="M183.3 111l-15.7-22 8.5 6.9-33.7 30.3z"/><path fill="#b1b5bf" fill-opacity=".7" d="M148.3 63.6l2.9-36.5 25.3 20.5L193 82.1z"/><path fill="#cad4d3" fill-opacity=".5" d="M118.6 51L81.9 14.7l23.8 9.6L63 82.6z"/><path fill="#fff" fill-opacity=".5" d="M197 33.9l-3.2 2.3-8.8-12 3.2-2.4z"/><path fill="#b8a787" fill-opacity=".4" d="M12 54h8v53h-8z"/><path fill="#f6c6d8" fill-opacity=".7" d="M170.4 99.8l-9.2-9.5-12.9-1.2 16.3 14.8z"/><path fill="#b26c5c" fill-opacity=".5" d="M141 116l17-54-29 17z"/><path fill="#093149" fill-opacity=".6" d="M5.1 25.8l15.5 19-23.8 33.5 15.8-52.7z"/><path fill="#504429" fill-opacity=".7" d="M231.4-4.5L271 35.7V14l-61.1-3.9z"/><path fill="#fee9df" fill-opacity=".4" d="M33.3 54l103.9 29.5-69.3-24.6L46.5 27z"/><path fill="#90947a" fill-opacity=".4" d="M60 165l-14-50-20-3z"/><path fill="#5f4734" fill-opacity=".6" d="M4.5 50.8L16.4 19l20.2 25.1 5.3-49.6z"/><path fill="#543028" fill-opacity=".9" d="M233.5-5.8l-22 44.9-5.6 7.2-21.3-34.9z"/><circle r="1" fill="#7de6d8" fill-opacity=".2" transform="rotate(-9.8 966 36.7) scale(36.54781 9.17624)"/><ellipse cx="23" cy="88" fill="#875333" fill-opacity=".6" rx="8" ry="16"/><path fill="#fff" fill-opacity=".4" d="M15 18l-31 2 34 7z"/><circle cx="79" cy="25" r="8" fill="#090007" fill-opacity=".5"/><path fill="#f1e8e8" fill-opacity=".3" d="M122.2 32.5l26-12.2 2.3-16.8-40.4 80.6z"/><path fill="#000c1d" fill-opacity=".5" d="M13 109h11v48H13z"/><path fill="#2f211f" fill-opacity=".7" d="M116.3 4.8l-15.6 21.4 18.9-1.7 12.1 5.3z"/><path fill="#d7aac2" fill-opacity=".4" d="M219 44.3l-9.2 3.4L224.4 10l30.4 3.2z"/></g></svg>