<svg xmlns="http://www.w3.org/2000/svg" viewBox="0 0 300 199"><defs/><path fill="#4f312f" d="M0 0h300v199H0z"/><g transform="translate(.6 .6) scale(1.17188)"><circle r="1" fill="#5e88c1" fill-opacity=".8" transform="rotate(-25.3 182.1 -117) scale(255 89.85738)"/><circle r="1" fill="#a19082" fill-opacity=".7" transform="rotate(114 83 64.8) scale(68.72639 152.90404)"/><circle cx="175" cy="118" r="81" fill="#272a2b" fill-opacity=".4"/><circle cx="10" cy="117" r="105" fill="#0566f3" fill-opacity=".5"/><circle r="1" fill="#bae1ff" fill-opacity=".6" transform="matrix(-20.12334 32.52946 -25.85457 -15.99413 60.3 0)"/><circle r="1" fill="#eef3ff" fill-opacity=".5" transform="matrix(19.25073 23.77268 -22.40874 18.14624 246.8 23.7)"/><circle r="1" fill="#bad8d1" fill-opacity=".6" transform="matrix(.79301 5.4164 -44.76926 6.55463 109.9 169)"/><path fill="#f1edf5" fill-opacity=".4" d="M193.8 93.9l25.6-23 .8 27.8-79.5 4.2z"/><ellipse cx="255" cy="124" fill="#070c0d" fill-opacity=".5" rx="135" ry="21"/><path fill="#8e9182" fill-opacity=".6" d="M210 135l-4 50-37-35z"/><ellipse cx="93" cy="80" fill="#243789" fill-opacity=".5" rx="15" ry="65"/><ellipse cx="163" cy="18" fill="#f3f5d0" fill-opacity=".4" rx="9" ry="59"/><path fill="#c0b6c0" fill-opacity=".5" d="M195 2h28v53h-28z"/><circle r="1" fill="#48221d" fill-opacity=".5" transform="matrix(-3.63527 -10.44246 75.9911 -26.45436 178 82)"/><path fill="#3f90ea" fill-opacity=".5" d="M93 59.3l-50.5 7L37 26.8l50.5-7z"/><path fill="#605b55" fill-opacity=".7" d="M132 85l33-40-29-61z"/><ellipse cx="63" fill="#fff" fill-opacity=".6" rx="21" ry="15"/><ellipse cx="76" cy="160" fill="#416fc2" fill-opacity=".8" rx="27" ry="34"/><path fill="#1364c5" fill-opacity=".7" d="M3-16l-19 132 67-4z"/><circle r="1" fill="#0d1317" fill-opacity=".7" transform="rotate(-88.9 197.5 -51.8) scale(43.28936 30.85088)"/><circle r="1" fill="#342c5a" fill-opacity=".6" transform="matrix(-7.6727 38.39813 -13.66861 -2.73126 114.9 125.2)"/><path fill="#bdc9dc" fill-opacity=".7" d="M271 64.1l-.8 43.1-4 9.6-22.1-43.4z"/><ellipse cx="179" cy="39" fill="#7d7353" fill-opacity=".7" rx="12" ry="34"/><path fill="#a99486" fill-opacity=".5" d="M107 0h28v84h-28z"/><circle r="1" fill="#4997e7" fill-opacity=".6" transform="rotate(49.6 -4.3 36.2) scale(45.18227 12.96741)"/><path fill="#d0d2c6" fill-opacity=".8" d="M106.3-16h30.6l28 48.6 17.7-44.4z"/><path fill="#662717" fill-opacity=".5" d="M93 25h29v12H93z"/><circle r="1" fill="#5b87da" fill-opacity=".5" transform="matrix(13.2251 38.167 -25.50097 8.83625 28.7 168.4)"/><path fill="#2d343c" fill-opacity=".7" d="M96.8 53.1L92.2 13l9.9 24.4 6.8 26.6z"/><path fill="#9696ad" fill-opacity=".4" d="M214 67l24 25-47 17z"/><path fill="#fffdff" fill-opacity=".5" d="M103 38h31v3h-31z"/><path fill="#f0fff7" fill-opacity=".3" d="M119 6.9l14.8 32.3-1.8-23.7L105.3 28z"/><path fill="#180011" fill-opacity=".2" d="M225.8 57.3l-22.3-21.8L229.7-16 211-13.8z"/><path fill="#101e17" fill-opacity=".5" d="M121 88h27v19h-27z"/><circle r="1" fill="#2745a7" fill-opacity=".5" transform="matrix(-17.72931 7.31156 -17.4553 -42.32623 96.4 91.5)"/><path fill="#887162" fill-opacity=".5" d="M140.9 152.7l-8.8-11.3-29.2 8.1-11 4.4z"/><path fill="#241e1d" fill-opacity=".7" d="M163.4 182.2l28.2-76.1 68 51.5-139.5-40.3z"/><path fill="#fcffea" fill-opacity=".2" d="M217.6 184.3l-38.1-28.7-5-15.6.3 20.3z"/><path fill="#d1cccc" fill-opacity=".5" d="M193-16l4.1 59.2-8.4 25.5 16.6-24.5z"/><ellipse cx="205" cy="93" fill="#e4eaf2" fill-opacity=".6" rx="7" ry="5"/><path fill="#ada3a9" fill-opacity=".8" d="M245.3 42.8l-45.4-1-2.9 14.7 74-11z"/><path fill="#5d5d71" fill-opacity=".6" d="M215 81h36v22h-36z"/><path fill="#d8d6c9" fill-opacity=".4" d="M164 45l6 17-14 20z"/><path fill="#bbc6c6" fill-opacity=".5" d="M83-12l16.8 40.1L98.5 16 114-16z"/><path fill="#b6b9af" fill-opacity=".6" d="M157.2 98.6l22.8-3.2.8 6-22.8 3.2z"/><circle r="1" fill="#257cd8" fill-opacity=".6" transform="matrix(13.88567 -.36854 1.55175 58.4658 37.4 95.5)"/><path fill="#59302f" fill-opacity=".6" d="M249 77l-68-11 49-16z"/><path fill="#bdc0bb" fill-opacity=".5" d="M131 81h15v4h-15z"/><path fill="#a0a98a" fill-opacity=".6" d="M124.7 179.1l24.4-16.2-5.9-6.3-39 10.1z"/><circle r="1" fill="#0c4fb3" fill-opacity=".6" transform="matrix(8.04091 32.84045 -20.66833 5.0606 0 72.4)"/><path fill="#011325" fill-opacity=".5" d="M218.1 5.6l-9.5-13.1 19.8 9.2L241.5-16z"/><path fill="#7a6e74" fill-opacity=".6" d="M234 7l5 57.8-1 .1-5-57.7z"/><ellipse cx="236" cy="13" fill="#d8dee4" fill-opacity=".4" rx="21" ry="15"/><path fill="#fff" fill-opacity=".5" d="M106 18h10v4h-10z"/><path fill="#63636b" fill-opacity=".6" d="M154 114l-18 7-12-19z"/><path fill="#0c1f33" fill-opacity=".3" d="M112.9 45.4l7.3-2.6-2.1-10.8 9.7 3z"/><circle r="1" fill="#4166c9" fill-opacity=".4" transform="matrix(-10.29702 4.19033 -10.93616 -26.87375 87.3 52.7)"/><circle r="1" fill="#353b41" fill-opacity=".5" transform="rotate(157.8 79.2 71.7) scale(26.20932 5.25524)"/><path fill="#151314" fill-opacity=".6" d="M123.9 137.7l3.3-14.5 71.8-12.3 16 7.7z"/><circle r="1" fill="#9c5c4d" fill-opacity=".7" transform="matrix(15.71368 1.2367 -.55386 7.0374 251.8 61)"/><path fill="#131d00" fill-opacity=".2" d="M106.5 49.8l-1.4 7.5L75.5 2.1 89.9 8z"/><circle r="1" fill="#515556" fill-opacity=".5" transform="rotate(6.1 -1447.3 2030.6) scale(7.35958 32.52513)"/><path fill="#fffffe" fill-opacity=".5" d="M174.4 147.5h3l.2 11h-3z"/><circle r="1" fill="#9f7368" fill-opacity=".5" transform="matrix(6.67616 -7.54563 4.53544 4.01283 201.4 58.9)"/><path fill="#31393c" fill-opacity=".5" d="M115.5 89.4l44.3-8.6-6.8 39.4-31.6-45z"/></g></svg>