<svg xmlns="http://www.w3.org/2000/svg" viewBox="0 0 300 199"><defs/><path fill="#443824" d="M0 0h300v199H0z"/><g transform="translate(.6 .6) scale(1.17188)"><ellipse cx="122" cy="157" fill="#bdbcba" fill-opacity=".7" rx="97" ry="159"/><circle r="1" fill="#60645b" fill-opacity=".9" transform="rotate(34.6 -62.8 122.1) scale(51.95945 80.52146)"/><circle r="1" fill="#fff" fill-opacity=".5" transform="rotate(27.1 -198.1 421.8) scale(77.11999 35.28469)"/><ellipse cx="196" cy="48" fill="#190000" fill-opacity=".6" rx="19" ry="62"/><circle r="1" fill="#899198" fill-opacity=".6" transform="matrix(9.8672 -.73596 11.26411 151.02058 244 101.6)"/><circle r="1" fill="#feffff" fill-opacity=".3" transform="rotate(-38.3 178.2 11.7) scale(19.84395 95.71424)"/><ellipse cx="139" cy="26" fill="#dedad7" fill-opacity=".6" rx="22" ry="120"/><circle r="1" fill="#3a3233" fill-opacity=".5" transform="matrix(14.95452 -8.67041 55.4748 95.68158 58.4 83)"/><path fill="#47554b" d="M-11.1 185l30.5-50.9L67.6 185H4z"/><circle r="1" fill="#2a382e" fill-opacity=".5" transform="rotate(-178.3 26.9 5.6) scale(61.33947 27.09045)"/><path fill="#fff" fill-opacity=".5" d="M234 38h11v32h-11z"/><path fill="#bcd1da" fill-opacity=".5" d="M234.5 4.2L225 28.6 206.6-16l59.5 14.7z"/><circle r="1" fill="#949190" fill-opacity=".7" transform="matrix(-90.40948 69.12326 -7.49875 -9.80796 229.5 146.3)"/><circle r="1" fill="#504d4d" fill-opacity=".6" transform="rotate(162.3 106.6 71.4) scale(29.56698 21.97511)"/><path fill="#422f28" fill-opacity=".7" d="M180.9 113.1l-16-23.4 67.4 22.6-34-82z"/><circle r="1" fill="#808474" fill-opacity=".9" transform="matrix(12.07805 -27.64556 21.64366 9.45588 100.6 59.3)"/><path fill="#121011" fill-opacity=".7" d="M246 45h10v50h-10z"/><circle r="1" fill="#fbffff" fill-opacity=".5" transform="matrix(29.8673 31.46887 -2.75082 2.61082 12.6 114.7)"/><path fill="#fff" fill-opacity=".5" d="M151 105h35v54h-35z"/><circle r="1" fill="#7b675a" fill-opacity=".5" transform="matrix(-48.79444 79.01431 -1.17186 -.72367 127.5 85.1)"/><circle r="1" fill="#5f625e" fill-opacity=".7" transform="rotate(64.8 -50.3 31.9) scale(45.88542 17.39236)"/><path fill="#ffd1c1" fill-opacity=".3" d="M133 17.6l34.1 24.9L186.6 54l-3.7 46.3z"/><circle r="1" fill="#090607" fill-opacity=".5" transform="rotate(141.6 99 51.8) scale(18.20251 34.45609)"/><path fill="#352a23" fill-opacity=".6" d="M134.6 48.3l-10.2-58 3-.6 10.2 58z"/><circle r="1" fill="#f8f3f2" fill-opacity=".5" transform="matrix(-10.54298 5.48833 -9.85153 -18.9246 120.4 136.3)"/><path fill="#885d4b" fill-opacity=".8" d="M190.1 22.8L161.4 6.9l30.7 61.6-17.9-24.1z"/><path fill="#080c00" fill-opacity=".5" d="M160 79l17 21-9-25z"/><path fill="#6a5f52" fill-opacity=".5" d="M151 131l-6 32-24 22z"/><path fill="#958f8a" fill-opacity=".6" d="M199 94l-10 16 57 36z"/><path fill="#464b4c" fill-opacity=".4" d="M232.7 138.5l32.2 13.6-17.6 41.4-32.2-13.6z"/><path fill="#eeeff0" fill-opacity=".6" d="M84 155l-7 30-38-41z"/><path fill="#8fa68f" fill-opacity=".7" d="M70.1-4.3L91.7 55l-3.8 1.4L66.3-3z"/><path fill="#fff" fill-opacity=".3" d="M126.2 40.7l-16 63.3L177.3 2.8l-41.9 33.7z"/><path fill="#f5f3f1" fill-opacity=".5" d="M241 138l28 9-6-28z"/><path fill="#85827c" fill-opacity=".5" d="M84.1 156.3l52.6 28.7L68.2 84.9 122 99.5z"/><path fill="#43291f" fill-opacity=".6" d="M170.5 106.8l61.1-20.1-67-1.4 42.9-12.1z"/><ellipse cx="41" cy="30" fill="#3b3634" fill-opacity=".5" rx="32" ry="38"/><path fill="#e0e2e0" fill-opacity=".8" d="M221.1 1.1l17.4-7.7 2.4 5.5-17.4 7.7z"/><path fill="#fdf9f7" fill-opacity=".5" d="M234 40h8v35h-8z"/><path fill="#e9e5e5" fill-opacity=".5" d="M230 139l-89-56 27 65z"/><path fill="#766357" fill-opacity=".7" d="M130.8 25.6l2-.3 12.4 79-2 .4z"/><path fill="#fef9f7" fill-opacity=".6" d="M136.5 73.9l-30.2 48.8 3.7 19 18.2-27.8z"/><path fill="#475656" fill-opacity=".5" d="M225 5h26v26h-26z"/><path fill="#e3e3e8" fill-opacity=".3" d="M13.3 49.8L62 122l-3.3 2.3L10 52z"/><circle r="1" fill="#352a26" fill-opacity=".7" transform="rotate(90.2 81 139.8) scale(25.70571 12.89198)"/><path fill="#ddd5cd" fill-opacity=".5" d="M171.2 93.2l-12.9 4.5-5.7 51.6-14.2-83.5z"/><path fill="#dde7de" fill-opacity=".4" d="M132 74l-23 30-18-13z"/><path fill="#191511" fill-opacity=".7" d="M243 86l12-99 16 63z"/><path fill="#99a694" fill-opacity=".6" d="M113.7 102.8L76.4 44.6l23.5 4L89.1 104z"/><path fill="#31180d" fill-opacity=".5" d="M184 13l23.1 22.3L194 48.9l-23-22.2z"/><path fill="#58514d" fill-opacity=".5" d="M71.8 134.9l23-21 21.6 44.7L44.3-16z"/><circle r="1" fill-opacity=".7" transform="matrix(-9.90041 10.03962 -15.45706 -15.24273 203 16.3)"/><circle cy="135" r="18" fill="#0a3324" fill-opacity=".6"/><path fill="#8a8a7e" fill-opacity=".5" d="M128.9 65.8l-12.1-66-2.8-.2-10.5 92z"/><path fill="#304530" fill-opacity=".5" d="M88.5 49L116 20.1l-15.3-31.9-16.5 34.1z"/><path fill="#bfc5c7" fill-opacity=".3" d="M33.5 147.5l-16.5 10 7.2-32.4 81.7 38.5z"/><path fill="#ff85b7" fill-opacity=".3" d="M208.4 76l-39.5 2.6 25.4-8.5 5.3-6z"/><circle r="1" fill="#55514f" fill-opacity=".5" transform="matrix(21.06312 16.1349 -7.39846 9.65824 223.9 115.7)"/><path fill="#cecfce" fill-opacity=".4" d="M95.6 168.8l4-13.9L45.2 185l5.8-75.8z"/><path fill="#44271a" fill-opacity=".5" d="M195.3 80l-23.7-18 41.2 9.2L166.9-16z"/><path fill="#b98f75" fill-opacity=".5" d="M161 14l14-6-11 42z"/><path fill="#e6eaeb" fill-opacity=".5" d="M151 32l-1-50h9l1 50z"/><path fill="#101b16" fill-opacity=".3" d="M21.1 192L4.8 177.2l28-31.2 16.4 14.8z"/><path fill="#cecac7" fill-opacity=".4" d="M224 150l-41-30 13-23z"/><path fill="#1b1000" fill-opacity=".4" d="M180 78.6l9.1 28.4-25.7-9.9 32.4 1.8z"/></g></svg>