<svg xmlns="http://www.w3.org/2000/svg" viewBox="0 0 300 199"><defs/><path fill="#424242" d="M0 0h300v199H0z"/><g transform="translate(.6 .6) scale(1.17188)"><circle r="1" fill="#acacac" fill-opacity=".4" transform="rotate(177.5 86 36.1) scale(60.27365 101.14189)"/><circle r="1" fill-opacity=".5" transform="matrix(8.87866 -18.55636 47.99942 22.96628 196.7 89.3)"/><ellipse cy="92" fill="#070707" fill-opacity=".6" rx="66" ry="116"/><circle r="1" fill="#fbfbfb" fill-opacity=".6" transform="matrix(-4.75073 12.72788 -19.63005 -7.327 119.2 79.1)"/><circle r="1" fill="#e2e2e2" fill-opacity=".4" transform="matrix(1.92108 -21.06435 59.49227 5.42573 119 4.4)"/><path fill="#989898" fill-opacity=".9" d="M210 81l56 95-28 9z"/><ellipse cx="248" cy="16" fill-opacity=".7" rx="18" ry="98"/><path fill="#262626" d="M234 21.2l26.7-13.1-34.3-12.3-98.2 46.9z"/><path fill="#f5f5f5" fill-opacity=".4" d="M236 74l-19-51-74 25z"/><circle r="1" fill-opacity=".6" transform="rotate(102.7 -20 122.7) scale(49.32153 33.62504)"/><circle r="1" fill="#e5e5e5" fill-opacity=".6" transform="matrix(-16.23766 -35.3032 8.30007 -3.8176 166.6 121.7)"/><ellipse cx="51" cy="111" fill="#676767" fill-opacity=".5" rx="24" ry="49"/><circle r="1" fill-opacity=".6" transform="rotate(-3.5 1565.4 -3101) scale(18.02301 28.20977)"/><path fill="#262626" fill-opacity=".7" d="M134 61.7l3.6 11.1 15.2-43.1-94.9 35.4z"/><circle r="1" fill="#030303" fill-opacity=".6" transform="matrix(-3.71994 -17.12565 10.11097 -2.19625 117.3 0)"/><path fill="#acacac" fill-opacity=".8" d="M207.1 50.8l21-28.3 5.7 55.7L214 89.5z"/><path fill="#0e0e0e" fill-opacity=".5" d="M150.7 182.9l38.2 2.1-47.6-77.3 16.1 41.8z"/><path fill="#2c2c2c" fill-opacity=".6" d="M207 87l-2 98 28-40z"/><ellipse cx="11" cy="56" fill-opacity=".7" rx="18" ry="94"/><path fill="#d4d4d4" fill-opacity=".2" d="M175.5 79.7l-75.4 35.1 108.6 1.5-6.8 62.6z"/><path fill="#f1f1f1" fill-opacity=".4" d="M142.1 181.7l-5.3-44.4L162 185l-30.9-26.6z"/><path fill-opacity=".6" d="M70 117L35 88l17 64z"/><path fill="#aeaeae" fill-opacity=".7" d="M143 41l36 26 22-38z"/><path fill="#030303" fill-opacity=".9" d="M222.6 84.5l14.1 39.7 9.7 17.7 2.6-38.5z"/><path fill="#eaeaea" fill-opacity=".5" d="M137.7 30l-15.1-9.7 15.7-24.4 15.1 9.8z"/><circle r="1" fill="#a9a9a9" fill-opacity=".5" transform="matrix(-1.71312 23.32831 -2.5547 -.1876 33.5 98.5)"/><path fill="#131313" fill-opacity=".5" d="M48.7 22.4L67 17l42.4 138.7L91 161z"/><path fill="#050505" fill-opacity=".6" d="M161.7 83.4L151 61.8l19.8.2-.7 53.9z"/><path fill="#cecece" fill-opacity=".5" d="M79 116L63 90v20z"/><circle cx="120" cy="78" r="10" fill="#fff" fill-opacity=".6"/><path fill="#2b2b2b" fill-opacity=".7" d="M145 74.8l-23.3-20L128 25l15.1 10.9z"/><path fill="#818181" fill-opacity=".5" d="M106.4 100.6L88 73.2l11.6-7.8L118 92.8z"/><path fill="#bbb" fill-opacity=".7" d="M145.1 45.5l.3 25.3 6.5-7.6 8.5-8.5z"/><path fill="#a6a6a6" fill-opacity=".5" d="M211 77.9l21.9 40.7-15.9-2.3-5.8-10z"/><path fill="#fff" fill-opacity=".2" d="M83.3 154.2l-13.2-51.9 6.7 24.8-20.4 2.9z"/><path fill="#f3f3f3" fill-opacity=".5" d="M168 122l12-16-6 33z"/><path fill="#a2a2a2" fill-opacity=".5" d="M17 146h10v10H17z"/><path fill="#3b3b3b" fill-opacity=".6" d="M184 126h9v39h-9z"/><ellipse cx="50" cy="89" fill="#707070" fill-opacity=".5" rx="7" ry="23"/><path fill="#d0d0d0" fill-opacity=".5" d="M162 83l-31 21 36 11z"/><circle r="1" fill="#6a6a6a" fill-opacity=".6" transform="rotate(-156.6 32.4 -2.4) scale(40.40878 6.04821)"/><path fill="#858585" fill-opacity=".6" d="M362.3-18.2L116 43.2l-.2-1L362-19.2z"/><path fill="#010101" fill-opacity=".4" d="M40.9 185l73.4-48.5L55.1 124l54.7-19.4z"/><circle r="1" fill-opacity=".5" transform="matrix(5.80193 -3.33626 13.19892 22.95363 195.2 94.7)"/><circle r="1" fill="#a8a8a8" fill-opacity=".5" transform="matrix(-6.09031 17.89906 -3.00533 -1.02259 65.1 142.1)"/><path fill="#909090" fill-opacity=".7" d="M192 115h10v55h-10z"/><path fill="#535353" fill-opacity=".3" d="M76.4 69l95.1 77.4-9.9-33.1-63.9 21.9z"/><path fill="#b9b9b9" fill-opacity=".5" d="M228.8 46.7l-85.6 12.1 59.8-2.5 36.1 40.5z"/><path fill="#c1c1c1" fill-opacity=".4" d="M149.1 135.5l-18.4-28.1 11.7 25.9 13.5 30.3z"/><path fill="#646464" fill-opacity=".7" d="M214 105l16 79 3-47z"/><path fill="#909090" fill-opacity=".7" d="M95.9-1.9L82.2-6.2l40 48.8 4.1-19z"/><circle r="1" fill="#bebebe" fill-opacity=".5" transform="matrix(1.37758 16.72 -32.89711 2.71043 159.2 0)"/><ellipse cx="64" cy="37" fill="#0e0e0e" fill-opacity=".4" rx="50" ry="10"/><path fill-opacity=".5" d="M149 62h24v18h-24z"/><circle r="1" fill="#888" fill-opacity=".5" transform="matrix(.35895 1.48715 -31.46403 7.59437 85.4 49)"/><path fill="#010101" fill-opacity=".4" d="M165 102h39v7h-39z"/><path fill="silver" fill-opacity=".5" d="M229.2 132.1l6.4-2.7 17.2 40.5-6.4 2.7z"/><path fill="#aaa" fill-opacity=".5" d="M29 113h7v18h-7z"/><path fill="#ccc" fill-opacity=".5" d="M162.7 50.5l17.2 23.7L179 62l45.3 2.2z"/><path fill="#e0e0e0" fill-opacity=".7" d="M101.7 6.5L78.6-16 106.1-.7l-.1 6.8z"/><path fill="#343434" fill-opacity=".9" d="M75.6 67.6l47 69.2-58.5-42-36.7 34.7z"/><path fill-opacity=".7" d="M195.2 63.8l15.1 7.7-5.5 10.7-15.1-7.7z"/><circle r="1" fill-opacity=".6" transform="matrix(-13.40318 2.84893 -6.52985 -30.72053 244.7 44.9)"/><path fill="#919191" fill-opacity=".6" d="M231 50.6L225.7 29l4.6-7.9-82.2 20z"/><path fill="#070707" fill-opacity=".5" d="M52.1 166.3l16.4-44.7-34.9-12.8 14.7 23.7z"/></g></svg>