<svg xmlns="http://www.w3.org/2000/svg" viewBox="0 0 299 449"><defs/><path fill="#2a384f" d="M0 0h299v449H0z"/><g transform="translate(.9 .9) scale(1.7539)"><circle r="1" fill="#f4ecdc" fill-opacity=".6" transform="rotate(175.2 43 113.7) scale(15.97304 53.7917)"/><circle r="1" fill="#526478" fill-opacity=".8" transform="matrix(-94.38284 -57.38567 49.12169 -80.79098 75.4 70.7)"/><circle r="1" fill="#666864" fill-opacity=".9" transform="matrix(5.2834 20.6967 -164.71766 42.04868 99.4 248.4)"/><circle cx="95" cy="213" r="19" fill="#fff" fill-opacity=".4"/><path fill="#fffbe8" fill-opacity=".4" d="M54 81.6l-20.9 1.8-1.1-13 20.9-1.8z"/><ellipse cx="90" cy="194" fill="#ddd9d7" fill-opacity=".6" rx="9" ry="31"/><circle cx="146" cy="172" r="49" fill="#2e3f4c" fill-opacity=".4"/><path fill="#0b0501" fill-opacity=".5" d="M70 224v-71l15 26z"/><path fill="#e7efe7" fill-opacity=".4" d="M110.9 70.2l-14.2-2.7-6.4 13.4 14.8-.1z"/><path fill-opacity=".6" d="M88 61h25v8H88z"/><circle r="1" fill="#36495f" fill-opacity=".6" transform="matrix(29.99823 .78553 -2.08398 79.58394 158.6 32.6)"/><circle r="1" fill="#57564f" fill-opacity=".7" transform="matrix(-5.89776 -13.96197 45.62239 -19.27165 24.4 246.2)"/><circle r="1" fill="#100e00" fill-opacity=".6" transform="matrix(.12018 2.8674 -14.44603 .60547 42.7 64.7)"/><ellipse cx="70" cy="73" fill="#5a6b80" fill-opacity=".8" rx="19" ry="59"/><ellipse cx="26" cy="155" fill="#3a4a60" fill-opacity=".7" rx="50" ry="25"/><path fill="#cfd2d6" fill-opacity=".7" d="M84 183.5l-6.7 34.8 1.3 15.1 23.2-48z"/><ellipse cx="39" cy="96" fill="#55667b" fill-opacity=".9" rx="85" ry="16"/><path fill="#abcbcd" fill-opacity=".5" d="M164 112h7v15h-7z"/><ellipse cx="51" cy="38" fill="#57677c" fill-opacity=".8" rx="70" ry="23"/><circle r="1" fill="#6f6550" fill-opacity=".4" transform="matrix(-1.86487 -8.14244 35.9875 -8.24224 146.7 213.7)"/><path fill="#dac4b4" fill-opacity=".4" d="M108 202l-19-36-9 7z"/><path fill="#2c3745" fill-opacity=".6" d="M105 197.5l11.4 18.9 58.9-18.7L90.5 154z"/><ellipse cx="3" cy="218" fill="#1d1603" fill-opacity=".2" rx="76" ry="16"/><path fill="#bc896a" fill-opacity=".6" d="M80.8 152.2l7.1 7.5 3.4 6.9-15.8-4.8z"/><path fill="#324b6a" fill-opacity=".3" d="M143.1 76.2l42.9 97.7-122.5 8.9 32.7-11.7z"/><path fill="#686a68" fill-opacity=".7" d="M75.3 271l-28.8-35.5 70-7.9 54.6-2.3z"/><path fill-opacity=".4" d="M73 198h5v24h-5z"/><path fill="#b9bec3" fill-opacity=".6" d="M86.1 227.4l9-9.4 1-43.5 20.7 49.3z"/><path fill="#3c1200" fill-opacity=".5" d="M87 155l8 4-4 5z"/><path fill="#0d0900" fill-opacity=".5" d="M28 66h4v17h-4z"/><path fill-opacity=".5" d="M28 62h25v4H28z"/><circle r="1" fill="#515656" fill-opacity=".8" transform="matrix(5.0521 13.44089 -71.77705 26.97922 161.4 254.8)"/><path fill-opacity=".5" d="M161 108h10v3h-10z"/><path fill="#b4b6b6" fill-opacity=".7" d="M49.9 77.5l-18.1 3L34 68.1l18 .1z"/><path fill="#201711" fill-opacity=".5" d="M68.4 165.5l18.3 15.9L71 183l16.4-18.1z"/><circle r="1" fill="#d0d2d8" fill-opacity=".6" transform="matrix(5.52353 .6782 -1.09378 8.90816 85.4 194.3)"/><path fill="#e3e4df" fill-opacity=".5" d="M92 69l9 3-5 5z"/><path fill="#fbede7" fill-opacity=".6" d="M77 159h2v5h-2z"/><path fill="#5e6b7b" fill-opacity=".5" d="M26 39l-42 28 43 26z"/><path fill="#141916" fill-opacity=".6" d="M110 64h3v19h-3z"/><path fill="#080d15" fill-opacity=".5" d="M68 163h10v19H68z"/><ellipse cx="131" cy="74" fill="#495d76" fill-opacity=".5" rx="18" ry="58"/><path fill="#1f1a1e" fill-opacity=".5" d="M80 161h4v9h-4z"/><path fill="#303231" fill-opacity=".6" d="M108 197l40 4-29 19z"/><path fill="#3c536e" fill-opacity=".5" d="M120 171l-1-47-56 17z"/><circle r="1" fill="#3d4b5e" fill-opacity=".4" transform="rotate(-40.1 96.2 -191.7) scale(18.93151 69.10853)"/><circle r="1" fill="#435267" fill-opacity=".4" transform="rotate(-22.8 317.7 36.6) scale(16.8531 43.47209)"/><circle r="1" fill="#2d3b4f" fill-opacity=".4" transform="matrix(-5.83697 22.41254 -33.50004 -8.72453 39.6 193)"/><path fill="#f2e1ce" fill-opacity=".5" d="M83 174.7l5.7-10.6 6.2 3.2-5.6 10.6z"/><path fill="#16181c" fill-opacity=".7" d="M76.1 230.5l-5.2 1.6-1.2-.6 9.5-64.3z"/><circle r="1" fill="#f8c4a9" fill-opacity=".3" transform="matrix(-.91409 2.93771 -.95484 -.2971 80 174.4)"/><path fill="#cdbaaf" fill-opacity=".5" d="M78 159h2v8h-2z"/><path fill="#374c63" fill-opacity=".5" d="M140 106h23v49h-23z"/><path fill="#34445a" fill-opacity=".5" d="M48 192l35-46-87 30z"/><circle r="1" fill="#5d6161" fill-opacity=".5" transform="matrix(-20.49177 -1.36106 2.03167 -30.58828 55.3 255)"/><path fill="#5c6d82" fill-opacity=".6" d="M52 48h38v43H52z"/><path fill="#42423e" fill-opacity=".6" d="M-5.6 234l73.1-16.8 2 8.7-73 17z"/><path fill="#202b3b" fill-opacity=".4" d="M132 204l54-9-23-38z"/><path fill="#8fa1ae" fill-opacity=".5" d="M96 68h14v13H96z"/><path fill="#b5b8b9" fill-opacity=".4" d="M31 69h19v12H31z"/><ellipse cx="68" cy="128" fill="#4b5f76" fill-opacity=".4" rx="43" ry="20"/><path fill="#020000" fill-opacity=".5" d="M110 63l-18 3 1-6z"/><circle r="1" fill="#3d3f4a" fill-opacity=".1" transform="rotate(-169 7 6) scale(18.94422 40.306)"/><path fill="#283231" fill-opacity=".5" d="M88 80l3-9 2 11z"/><circle cx="92" cy="172" r="3" fill="#ab7c5e" fill-opacity=".5"/></g></svg>