<svg xmlns="http://www.w3.org/2000/svg" viewBox="0 0 300 199"><defs/><path fill="#58423c" d="M0 0h300v199H0z"/><g transform="translate(.6 .6) scale(1.17188)"><circle r="1" fill="#e4e7e3" fill-opacity=".6" transform="matrix(-41.97592 -111.08606 146.396 -55.31844 237.8 35)"/><circle r="1" fill="#040000" fill-opacity=".7" transform="rotate(-29.4 114.5 -53) scale(45.308 66.53446)"/><ellipse cx="102" cy="37" fill="#faffff" fill-opacity=".7" rx="12" ry="130"/><circle r="1" fill="#fcfeff" fill-opacity=".7" transform="matrix(-75.29218 -45.74953 19.60035 -32.25723 233 17.6)"/><path fill="#e2e6f2" fill-opacity=".5" d="M2 185L17 84l30 87z"/><circle r="1" fill="#5f3e2f" fill-opacity=".6" transform="matrix(22.82978 -3.90237 18.23986 106.70758 195.6 127.7)"/><circle r="1" fill="#030000" fill-opacity=".6" transform="matrix(-19.80792 9.05293 -18.23717 -39.90315 66.4 151.7)"/><path fill="#fff" fill-opacity=".5" d="M122 74h16v75h-16z"/><path fill="#e0ddd9" d="M184.6 74.5l-17.9 24.9-8.4-1.7-.7-42.3z"/><circle r="1" fill="#360e06" fill-opacity=".6" transform="matrix(-1.72504 18.28674 -15.56182 -1.468 176.7 45.5)"/><path fill-opacity=".6" d="M104 149h81v16h-81z"/><path fill="#23100f" fill-opacity=".5" d="M102 141l21-4-3-44z"/><path fill="#011712" fill-opacity=".4" d="M108-16h29l6 106z"/><ellipse cx="59" cy="33" fill="#1e0f0c" fill-opacity=".8" rx="31" ry="88"/><path fill="#f4f3f3" fill-opacity=".8" d="M223 31l48 10-23 58z"/><circle r="1" fill="#f9ad16" fill-opacity=".9" transform="matrix(6.76284 -6.26488 4.20075 4.53464 78 118.2)"/><circle r="1" fill="#e4fdff" fill-opacity=".5" transform="matrix(-12.82093 20.34385 -10.75744 -6.77946 155.6 25.5)"/><path fill="#4b3b33" fill-opacity=".5" d="M157 66l-12 79-8-70z"/><path fill="#5f4e3e" fill-opacity=".4" d="M208 185l14-137 23 45z"/><path fill="#beaeaa" fill-opacity=".9" d="M38.2 117.8L24.7 109l-3 21.6 23-1.1z"/><path fill="#c8c5cf" fill-opacity=".9" d="M43.9 155.5L56.6 185 23 159.2l-.7-36.2z"/><path fill="#110d08" fill-opacity=".5" d="M116.7 82.4l61.8-59.7 2.8 2.9-61.8 59.7z"/><path fill="#090500" fill-opacity=".5" d="M116 0h3v110h-3z"/><path fill="#cad1cf" fill-opacity=".3" d="M193.3 115.4l40.8 11.6-9.9-62.5-32 31.2z"/><ellipse cx="245" cy="26" fill="#77707d" fill-opacity=".5" rx="32" ry="7"/><path fill="#c5c0b6" d="M234.7 156.3l35.6-16.2-44.2-20.7 44.9 43.5z"/><circle r="1" fill="#29140e" fill-opacity=".5" transform="matrix(67.29652 17.52943 -6.4591 24.79688 19.7 85.8)"/><path fill="#0d0606" fill-opacity=".6" d="M99 185l91-35-70-3z"/><ellipse cx="120" cy="46" fill="#ecffff" fill-opacity=".3" rx="15" ry="29"/><ellipse cx="149" cy="145" fill="#b8ada1" rx="44" ry="3"/><path fill="#e5e8f9" fill-opacity=".5" d="M94 73h11v97H94z"/><path fill="#f5ffff" fill-opacity=".5" d="M144 64h5v34h-5z"/><path fill="#410a00" fill-opacity=".4" d="M213.5 61.1l-47.1 8.1 20.3-8.2-1.7 41.6z"/><ellipse cx="14" cy="139" fill="#8a7d7c" fill-opacity=".5" rx="10" ry="58"/><path fill="#725f4b" fill-opacity=".5" d="M213 113l36 30-87 37z"/><path fill="#feffff" fill-opacity=".5" d="M123 91h17v50h-17z"/><path fill-opacity=".5" d="M146 141h40v2h-40z"/><path fill="#130705" fill-opacity=".7" d="M94 185l-64.3-58 8.1 22 43.1-20.7z"/><path fill="#f0f1f8" fill-opacity=".6" d="M271 1L138-10l47 38z"/><path fill="#380f0c" fill-opacity=".6" d="M178 111l4 18 25 11z"/><path fill="#d6dedb" fill-opacity=".5" d="M149 124l28.8-2 1.3 18-29 2z"/><path fill="#eff0f4" fill-opacity=".9" d="M109.4 121.9l-11.1 22.9L115.4 3.6l.7 67.3z"/><path fill="#846e56" fill-opacity=".6" d="M153 105.8l43.2-3.5-37.1 26.1-14.7-7.3z"/><path fill="#3d2612" fill-opacity=".3" d="M271 112l-43.4.6 2.1-63.7 8.6 47.5z"/><path fill="#9f6e5b" fill-opacity=".8" d="M204 54.9l13.5 13.5-37.8-12 15.8-24.5z"/><path fill="#20100a" fill-opacity=".6" d="M105 130h5v23h-5z"/><path fill="#fbf8f5" fill-opacity=".7" d="M212 59l-20-32 42 10z"/><path fill="#110100" fill-opacity=".7" d="M35-16L-4 146-16-16z"/><ellipse cx="117" cy="99" fill="#493835" fill-opacity=".6" rx="3" ry="45"/><ellipse cx="135" cy="9" fill="#120300" fill-opacity=".5" rx="3" ry="40"/><path fill="#d9ddca" fill-opacity=".5" d="M152 163h9v7h-9z"/><path fill="#633024" fill-opacity=".6" d="M151 62h6v35h-6z"/><circle r="1" fill="#fcc7be" fill-opacity=".5" transform="matrix(-1.89228 4.24485 -6.58295 -2.93457 206 131)"/><path fill="#fff" fill-opacity=".5" d="M30 141l-3-24-10-7z"/><path fill="#a5a6b4" fill-opacity=".5" d="M108 162l-14-36 6 56z"/><path fill="#f6fdfe" fill-opacity=".4" d="M132.4 70.2l-8.8 89.8-2.6-77.7 18.7-14.2z"/><path fill="#190d07" fill-opacity=".5" d="M175.2 30.5l26.5 22.4-4.9-10.8-45.7 5.3z"/><circle r="1" fill="#3d3f48" fill-opacity=".5" transform="rotate(-36.6 252.6 47.1) scale(1.99155 49.84971)"/><path fill="#f6fcfc" fill-opacity=".6" d="M180 17l-39 37 23-38z"/><circle r="1" fill="#797477" transform="matrix(-6.43413 5.64056 -7.48772 -8.54116 11.4 129.3)"/><path fill="#1a0f09" fill-opacity=".8" d="M116.9 6.1l-.4-19.2 9.1 11.2-6.1 16.2z"/><path fill="#0f0100" fill-opacity=".4" d="M152 142l-10 1 4-21z"/><path fill-opacity=".5" d="M121 142h44v1h-44z"/><path fill="#8a5c47" fill-opacity=".8" d="M9.4 104.2l24.4 18.2L22 100.6 8.6 77.4z"/><path fill="#c8c7d0" fill-opacity=".8" d="M177.6 7l40.7 14.8 12 12.3-36.2-7.3z"/></g></svg>