<svg xmlns="http://www.w3.org/2000/svg" viewBox="0 0 300 199"><defs/><path fill="#453826" d="M0 0h300v199H0z"/><g transform="translate(.6 .6) scale(1.17188)"><circle r="1" fill="#fffff7" fill-opacity=".5" transform="matrix(60.10105 -69.13835 192.45094 167.29505 170.1 35.5)"/><circle r="1" fill="#9a835f" fill-opacity=".7" transform="rotate(172.1 11.8 59.4) scale(88.5013 120.73712)"/><ellipse cx="153" cy="131" fill="#0e0c28" fill-opacity=".6" rx="28" ry="31"/><circle r="1" fill="#e6f0ff" fill-opacity=".5" transform="matrix(-23.65927 .86678 -5.15036 -140.5816 199.5 89.8)"/><circle r="1" fill="#adbd9e" fill-opacity=".6" transform="matrix(.38479 20.0401 -69.88998 1.34196 45.4 156)"/><path fill="#5e3214" fill-opacity=".5" d="M-3.1 35.7l43-16.5L77 116.3l-43 16.5z"/><ellipse cx="158" cy="91" fill="#947e71" fill-opacity=".7" rx="11" ry="51"/><circle r="1" fill="#7d512b" fill-opacity=".9" transform="matrix(-31.61006 -19.3636 9.75894 -15.93097 98.5 116.5)"/><path fill="#011a44" fill-opacity=".6" d="M172.5 103.7l13.4 33.1-7.5 5.6-19-35.3z"/><circle r="1" fill="#888f76" transform="matrix(13.56612 67.28048 -19.79209 3.99078 0 114.3)"/><path fill="#eff0f0" fill-opacity=".6" d="M170 36h28v73h-28z"/><circle r="1" fill="#00001f" fill-opacity=".5" transform="rotate(-168.1 77.3 55.7) scale(9.05392 21.54613)"/><circle r="1" fill="#807f4d" fill-opacity=".4" transform="matrix(28.07882 .4546 -.4885 30.1726 251.8 67)"/><circle r="1" fill="#031030" fill-opacity=".7" transform="matrix(-21.11908 2.6903 -3.05837 -24.00852 160 168.3)"/><circle r="1" fill="#1b2b23" fill-opacity=".5" transform="rotate(-145.8 61.2 47.3) scale(84.05282 4.58326)"/><circle r="1" fill="#a5653a" fill-opacity=".4" transform="rotate(-134.5 37 18.2) scale(86.91754 21.94418)"/><path fill="#b39c7d" fill-opacity=".5" d="M76 14l79 93L46 66z"/><path fill="#958e6a" fill-opacity=".5" d="M220.1-44.8l-52.6 99-17.6-9.4 52.6-99z"/><ellipse cx="150" cy="89" fill="#6c3d2f" fill-opacity=".6" rx="8" ry="13"/><path fill="#191005" fill-opacity=".4" d="M39 132l9-44-35-26z"/><circle r="1" fill="#b6bcab" fill-opacity=".5" transform="matrix(22.48435 35.69924 -27.86113 17.5477 124.3 36.7)"/><path fill="#bcb598" fill-opacity=".5" d="M28 138h82v14H28z"/><path fill="#fb9531" fill-opacity=".4" d="M140 146l-3 21-8-24z"/><path fill="#ffb7bb" fill-opacity=".4" d="M153.3 140l-5-8.6 16.4-9.5 5 8.7z"/><path fill="#b17c47" fill-opacity=".4" d="M63 37l82 54-22 42z"/><path fill="#52786d" fill-opacity=".4" d="M100 137l-56-1-1-46z"/><path fill="#1b0402" fill-opacity=".6" d="M76 14.3l3.1 4-7.2 5.4-3-4z"/><circle r="1" fill="#b2b9c0" fill-opacity=".4" transform="matrix(-1.60764 -23.58167 31.1908 -2.12637 207.1 151.5)"/><path fill="#7d5935" fill-opacity=".6" d="M-9 35L3-5l88 60z"/><path fill="#c5d6e5" fill-opacity=".4" d="M65 29h5v49h-5z"/><path fill="#657259" fill-opacity=".5" d="M7.8 60.4l22.8 32.3 2.5-3.4L22.3 185z"/><circle r="1" fill="#edf4ff" fill-opacity=".4" transform="matrix(-5.09568 -28.22873 8.08006 -1.45856 187.9 116.9)"/><path fill="#191810" d="M129.6 178.1l-13.8 5.1 7.2-37.6 7.2 1.2z"/><path fill="#c6b9ad" fill-opacity=".5" d="M157 68h5v49h-5z"/><path fill="#000120" fill-opacity=".5" d="M184 136l-13 10 1-36z"/><path fill="#9c9c83" fill-opacity=".7" d="M231 73h25v97h-25z"/><path fill="#b7ab8f" fill-opacity=".5" d="M128 86L71 67l61 50z"/><path fill="#bbbeae" fill-opacity=".4" d="M163 64L49 20l87 64z"/><path fill="#8e4c22" fill-opacity=".8" d="M1 45l55 49 40-2z"/><path fill="#000f29" fill-opacity=".6" d="M133 111l-5 29 24-23z"/><path fill="#461c06" fill-opacity=".5" d="M31 83h12v52H31z"/><path fill="#8c552e" fill-opacity=".5" d="M92.3 63.6l-1.1 37.7-7.4-51.1L133 85.7z"/><path fill="#becacd" fill-opacity=".5" d="M280.6 16.4l-63 25.4-4.2-10.2 63-25.4z"/><path fill="#d7dce6" fill-opacity=".6" d="M200 154.6l-18.3 8.1-7.7-17.3 18.3-8.1z"/><circle r="1" fill="#4c3b1c" fill-opacity=".5" transform="matrix(-1.54817 4.685 -8.3825 -2.77002 255 44.9)"/><path fill="#bcc0bb" fill-opacity=".6" d="M76 82l-2-29 9 5z"/><path fill="#9ea08c" fill-opacity=".7" d="M13.1 136.8l-17.9 2-8.3-79.6 17.9-2z"/><path fill="#a45926" fill-opacity=".5" d="M122 107l9 38-90-65z"/><path fill="#2e3224" fill-opacity=".3" d="M78.7 138.4l38.7-1.4L10.1 59.8l57 48.8z"/><path fill="#9e9d7e" fill-opacity=".9" d="M97.4-7.8L53 31 34.6 9.8 79-29z"/><path fill="#a24901" fill-opacity=".5" d="M71 53h4v27h-4z"/><path fill="#969871" fill-opacity=".6" d="M260.5 6.1l-31.8 17-11.2-21.2 31.8-17z"/><ellipse cx="158" cy="48" fill="#8b8d6c" fill-opacity=".3" rx="11" ry="54"/><path fill="#7c8b69" fill-opacity=".6" d="M104.8 149.5l14.3-4.9-2.2 33-31.2-13.8z"/><ellipse cx="164" cy="149" fill="#161925" fill-opacity=".6" rx="12" ry="10"/><path fill="#c1832c" fill-opacity=".5" d="M144 103l-10-21-2 27z"/><path fill="#b1aa89" fill-opacity=".7" d="M-1 174l57 1 3-32z"/><path fill-opacity=".4" d="M147 78l-5 9 13-11z"/><ellipse cx="211" cy="126" fill="#b8babf" fill-opacity=".5" rx="15" ry="136"/><path fill="#858d68" fill-opacity=".5" d="M37-16H17l-2 64z"/><path fill="#f0f2f6" fill-opacity=".4" d="M189 14h9v77h-9z"/><path fill="#787a62" fill-opacity=".7" d="M45 108.4l19.7 8.1-7.6 22-14.4-2.6z"/><path fill="#88817c" fill-opacity=".5" d="M116 39h13v16h-13z"/><circle cx="169" cy="114" r="8" fill="#06224a" fill-opacity=".5"/><path fill="#bab6a5" fill-opacity=".8" d="M140.8 38.7l-7.6 8.6 9.5 58.2 2.4-.5z"/></g></svg>