<svg xmlns="http://www.w3.org/2000/svg" viewBox="0 0 300 199"><defs/><path fill="#5e483a" d="M0 0h300v199H0z"/><g transform="translate(.6 .6) scale(1.17188)"><circle cx="79" cy="47" r="102" fill="#8e9f9d" fill-opacity=".5"/><ellipse cy="88" fill="#ddebfc" fill-opacity=".7" rx="32" ry="37"/><circle r="1" fill="#010910" fill-opacity=".7" transform="matrix(34.64603 -50.9164 36.39412 24.76435 225.6 137.8)"/><ellipse cx="116" cy="13" fill="#ffd9b3" fill-opacity=".5" rx="65" ry="21"/><path fill="#000302" fill-opacity=".6" d="M60.1 42.3L47 63.5l-67-41.8L-7 .5z"/><circle r="1" fill="#0f1700" fill-opacity=".5" transform="matrix(-30.28676 15.67369 -11.45143 -22.12796 129.8 58)"/><circle r="1" fill="#c2e0ff" fill-opacity=".6" transform="matrix(-2.80132 -14.58938 22.70323 -4.35926 115.8 131.5)"/><ellipse cx="44" cy="133" fill="#363d3d" fill-opacity=".8" rx="15" ry="90"/><path fill-opacity=".4" d="M162 85l-37-9 38 93z"/><circle r="1" fill="#010c09" fill-opacity=".5" transform="matrix(16.37685 10.03574 -27.81675 45.39281 206.3 17.3)"/><path fill="#a69a94" d="M161.7-16l1.1 94.8 2.1 78.1 8.5-23.4z"/><path fill="#1b131c" fill-opacity=".7" d="M46.3 106.4L59.2 128l-69.5 41.7-12.9-21.5z"/><path fill="#bad3ec" fill-opacity=".7" d="M123.5 133.3L75 148.4l35.4-34.4 16-39.3z"/><path fill="#ffffc6" fill-opacity=".4" d="M220 62l-19 13-2-29z"/><circle r="1" fill="#19392f" fill-opacity=".5" transform="matrix(-7.50426 -7.54123 23.32468 -23.21032 85.6 122.9)"/><path fill="#6675a2" fill-opacity=".6" d="M-23.2 193.1l-5.7-12.8 84-37.4 5.8 12.8z"/><path fill="#2d1a14" fill-opacity=".6" d="M168.3 172L74 190.4 67.7 158l94.3-18.4z"/><ellipse cx="62" cy="118" fill="#e4f6ff" fill-opacity=".6" rx="3" ry="23"/><path fill="#b2c6df" fill-opacity=".5" d="M20 49h12v68H20z"/><path fill="#473c24" fill-opacity=".5" d="M51.3 63.5l35.1 113-7.1-70.6L61 60.5z"/><path fill="#383d39" fill-opacity=".8" d="M223 78l1 64-53-56z"/><path fill="#b3937b" fill-opacity=".6" d="M123 85h13v61h-13z"/><circle r="1" fill-opacity=".4" transform="matrix(10.2434 1.69578 -11.28543 68.16976 236.9 133.2)"/><path fill="#d4ae8f" fill-opacity=".6" d="M58 13h15v47H58z"/><path fill="#c3a17f" fill-opacity=".8" d="M145 0h35v34h-35z"/><path fill="#717b85" fill-opacity=".7" d="M19.1 78.1l.1 37-4.9-34.3L19.4 30z"/><path fill="#040a01" fill-opacity=".6" d="M144.9 116.9l3.6 30 14.2-7.2 1.1-42.9z"/><ellipse cx="99" cy="40" fill="#000425" fill-opacity=".3" rx="65" ry="4"/><path fill="#a5d0f5" fill-opacity=".7" d="M96.6 144l-13.7-2.1 2.6-12.1 37.4 6.8z"/><path fill="#040215" fill-opacity=".4" d="M112.6 95.7L84 132l13-.7 20.7-31.7z"/><path fill="#8e9198" fill-opacity=".4" d="M103.7 104.7L72.9 101l5.4-43.6 30.8 3.8z"/><ellipse cx="255" cy="130" fill="#5b5d72" fill-opacity=".5" rx="9" ry="25"/><circle r="1" fill="#aec0d6" fill-opacity=".6" transform="matrix(27.72617 9.20635 -.89652 2.7 4.5 45.3)"/><path fill="#83896e" fill-opacity=".5" d="M52.6 84l-13.3 62.5-2-.4 13.4-62.6z"/><circle r="1" fill="#6b8999" fill-opacity=".5" transform="matrix(-24.83537 -6.60818 4.84197 -18.19745 34.5 5.1)"/><path fill="#eae9e7" fill-opacity=".5" d="M0 57h16v58H0z"/><path fill="#84817e" fill-opacity=".3" d="M137.3 164.1l45.9-5.3-7.2-21.5-21.2 9z"/><ellipse cx="187" cy="71" fill="#0c1d16" fill-opacity=".2" rx="14" ry="79"/><path fill="#001700" fill-opacity=".5" d="M53 63h9v20h-9z"/><path fill="#fbd8b3" fill-opacity=".4" d="M203.6 59.6l-2.9.3 17.4 9.8-2.2-18.8z"/><path fill="#61503b" fill-opacity=".8" d="M137.5 117.6l-5.6-30.8-25.6-1.3 53.4-29.6z"/><path fill="#000c1a" fill-opacity=".5" d="M0 82h20v3H0z"/><path fill="#aea099" fill-opacity=".5" d="M146 142l-26-68 3 71z"/><path fill="#d1e8fe" fill-opacity=".5" d="M118 87l-12 49 22-30z"/><path fill="#646b7e" fill-opacity=".6" d="M174 118l7-24 13 27z"/><path fill="#dccbe1" fill-opacity=".3" d="M62.7 84l4.5-1.4-1.1 62.6-11.3-61.4z"/><circle r="1" fill="#050000" fill-opacity=".6" transform="matrix(6.022 -11.42007 27.20195 14.34405 235.4 157)"/><path fill="#d4bba7" fill-opacity=".5" d="M86.7 15.6L89 31.4l-35.6 5L51 20.6z"/><path fill="#3e4031" fill-opacity=".8" d="M52.3 170.2l11.8-26.9 18.3-14.9.1 22.1z"/><ellipse cx="91" cy="48" fill="#1f5a57" fill-opacity=".3" rx="18" ry="21"/><path fill="#46362d" fill-opacity=".6" d="M250 26l-28-14-10 112z"/><path fill="#c8a480" fill-opacity=".6" d="M161.2 90.9l11.7-21.1-1.7-33.5-6.7-44.2z"/><path fill="#7e98c8" fill-opacity=".6" d="M0 181l40 4-15-35z"/><path fill="#685f66" d="M57.4 177.8L56.1 155l-43.4 4.1 27.1-13.5z"/><path fill="#a1dab5" fill-opacity=".6" d="M83 115l-2-7 19 3z"/><path fill="#7b8a7a" fill-opacity=".5" d="M141.5 46.4l3.4 19.4 20.7 30.7-8.3-38.6z"/><path fill="#3d4332" fill-opacity=".7" d="M51 48l-16 68-4-73z"/><path fill="#201129" fill-opacity=".4" d="M57 144l-21 27 11-62z"/><path fill="#8e9fb4" fill-opacity=".6" d="M6.4 139.1l-1.9-29.6 22 4-30.3 4.9z"/><ellipse cx="70" cy="96" fill="#8e5835" fill-opacity=".5" rx="5" ry="40"/><circle cx="112" cy="20" r="19" fill="#a7a9a1" fill-opacity=".5"/><path fill="#00000f" fill-opacity=".3" d="M-16 157l55-24-48 50z"/><path fill="#353828" fill-opacity=".5" d="M99.8 122.3l21-82.6 27.3 28.6-30.7 14.9z"/><path fill="#d6e6d1" fill-opacity=".5" d="M47 51l8 10v-7z"/><ellipse cx="47" cy="86" fill="#426b55" rx="4" ry="20"/></g></svg>