<svg xmlns="http://www.w3.org/2000/svg" viewBox="0 0 300 199"><defs/><path fill="#19312e" d="M0 0h300v199H0z"/><g transform="translate(.6 .6) scale(1.17188)"><circle r="1" fill="#2f50d8" fill-opacity=".6" transform="rotate(11.4 -95 581.2) scale(117.45488 64.4666)"/><circle r="1" fill="#0c0055" fill-opacity=".7" transform="matrix(10.34575 -52.75368 250.23331 49.07431 91.5 144.3)"/><circle r="1" fill="#78aff0" fill-opacity=".4" transform="matrix(15.56849 28.4059 -20.4378 11.2014 106 63.7)"/><circle r="1" fill="#9cc0b0" fill-opacity=".5" transform="matrix(-35.902 -9.26082 2.50412 -9.70787 207.6 76.8)"/><circle r="1" fill="#003292" fill-opacity=".5" transform="matrix(43.61328 -10.9549 18.21156 72.50325 46 59.4)"/><circle r="1" fill="#222564" fill-opacity=".8" transform="rotate(31.3 49.7 422.9) scale(91.4045 32.31819)"/><path fill="#0096ff" fill-opacity=".5" d="M-5 14.9l120.8 23.5-2.9 14.7L-7.8 29.6z"/><path fill="#f0f3ff" fill-opacity=".5" d="M250 24l17 40-19 1z"/><circle r="1" fill="#040a4d" fill-opacity=".6" transform="rotate(115.2 31.5 25.5) scale(11.10488 62.67214)"/><circle r="1" fill="#453549" fill-opacity=".7" transform="matrix(-11.46853 -7.98643 20.01372 -28.73976 125.8 101.1)"/><ellipse cx="213" cy="121" fill="#682a8d" fill-opacity=".5" rx="32" ry="10"/><path fill="#7bddd8" fill-opacity=".4" d="M216.2 62.2l-44.3 3.2-12.3 31.2 12.4-3.4z"/><path fill="#0f000e" fill-opacity=".5" d="M271 77.2l-18.2 92.1-37.2-116.8-21.3 63.6z"/><path fill="#9fadbf" fill-opacity=".9" d="M96.7 76.5L108.3 97l9.3-2.6 4.5-20.8z"/><ellipse cx="204" cy="168" fill="#020024" fill-opacity=".7" rx="244" ry="25"/><ellipse cx="113" cy="102" fill="#00000c" fill-opacity=".8" rx="255" ry="4"/><path fill="#008bda" fill-opacity=".4" d="M8 81h39v19H8z"/><path fill="#00cbff" fill-opacity=".6" d="M176 74l16-6v25z"/><path fill="#000038" fill-opacity=".4" d="M67 74L2 26l-18 53z"/><path fill="#584b9b" fill-opacity=".6" d="M94.6 97.8l-18.4 1.1-14.7-50.8 42.2-1.6z"/><path fill="#ffec92" fill-opacity=".5" d="M231 94l10-9-8-18z"/><path fill-opacity=".5" d="M252 60.6l-8.8 15.8-27.1-15 8.7-15.8z"/><ellipse cx="87" cy="113" fill="#8184ff" fill-opacity=".2" rx="58" ry="7"/><path fill="#774eb5" fill-opacity=".4" d="M177 38l-62 7 3 41z"/><ellipse cx="61" fill="#000e66" fill-opacity=".5" rx="89" ry="17"/><path fill="#01000a" fill-opacity=".8" d="M56.7 185l6.5-35.8-8.5-45.1-5.4 44.8z"/><path fill="#643c15" fill-opacity=".6" d="M169 78.9l-9.7-19.3-.2 36.3 3.1-5.4z"/><path fill="#00a5f6" fill-opacity=".6" d="M104 43h10v36h-10z"/><circle r="1" fill="#05000f" fill-opacity=".5" transform="matrix(-46.21208 -22.83943 1.3963 -2.82519 67.7 12.2)"/><path fill="#440800" fill-opacity=".6" d="M145.4 69.8l-1.8 25-9-.6 1.8-25z"/><ellipse cx="152" cy="98" fill="#000038" fill-opacity=".8" rx="39" ry="4"/><path fill="#030026" fill-opacity=".5" d="M130 173l51-95 7 92z"/><path fill="#0880fa" fill-opacity=".3" d="M163.6 40.1l-15.2-12-30.5 8.1-110.8 28z"/><circle r="1" fill="#000005" fill-opacity=".5" transform="rotate(163.3 117.9 19.4) scale(46.47423 3.59251)"/><path fill="#45133d" fill-opacity=".6" d="M167 106h89v10h-89z"/><path fill="#a5afcb" fill-opacity=".5" d="M185.6 61.4l18.2 3.7 4 25.2-5.1.1z"/><path fill="#a4c8b4" fill-opacity=".4" d="M141 83h34v11h-34z"/><circle r="1" fill-opacity=".7" transform="matrix(13.91978 1.89671 -4.4964 32.9986 253.3 144.7)"/><ellipse cx="92" cy="124" fill="#221767" fill-opacity=".7" rx="32" ry="12"/><ellipse cx="130" cy="14" fill="#1b2c8a" fill-opacity=".7" rx="43" ry="17"/><path fill="#6594ed" fill-opacity=".7" d="M119 66l14 9-4 12z"/><circle r="1" fill="#1d1e79" fill-opacity=".5" transform="matrix(1.71326 11.03976 -28.34076 4.3982 64.6 74.4)"/><path fill="#b0ae8b" fill-opacity=".5" d="M126 105l-1 18-7-13z"/><path fill="#006aff" fill-opacity=".4" d="M271 77l-21 7-3-27z"/><path fill="#1763bf" fill-opacity=".6" d="M54.9 80.5l1 3.1 18.7 14.3-18.7.2z"/><circle r="1" fill="#05025a" fill-opacity=".6" transform="matrix(22.00512 -16.84031 19.31438 25.23797 19.3 136.4)"/><path fill="#002e84" fill-opacity=".8" d="M25.7 63.2L13.9 61l17-42.4 5.5 12.9z"/><path fill="#000004" fill-opacity=".6" d="M137.5 47.7l.9-1.8 18 8.4-.8 1.8z"/><path fill="#001145" fill-opacity=".5" d="M211.9 44.6l44.7-31.8-27.9 66.6-19-42z"/><path fill="#000032" fill-opacity=".3" d="M2.3 55.4l79.8-12.8-48.5 17.5 7.3 38.5z"/><circle cx="123" cy="88" r="5" fill="#140700" fill-opacity=".8"/><path fill="#d3c9bd" fill-opacity=".3" d="M108.2 98l-6.4-37.6L94.4 81l35.8 15.1z"/><path fill="#352066" d="M229 130.3l14.5-2.7 3.3-17.8-56.2 24.9z"/><path fill="#0079dc" fill-opacity=".6" d="M40.4 28.2l57.6.9 19.7 17.4-85-12z"/><circle r="1" fill="#000042" fill-opacity=".5" transform="rotate(-179.5 105.5 46.8) scale(34.09863 3.44163)"/><path fill="#2a4e8f" fill-opacity=".6" d="M219.7 76.2l-35.2 6.7 16.8-8.5 1 22.3z"/><ellipse cx="225" cy="98" fill-opacity=".7" rx="53" ry="4"/><path fill="#a6b4da" fill-opacity=".5" d="M251 21h3v44h-3z"/><path fill="#020000" fill-opacity=".6" d="M108 96L98 86l2 14z"/><circle r="1" fill="#8e7b51" fill-opacity=".4" transform="rotate(76.6 62.7 177.1) scale(14.0008 4.27645)"/><circle r="1" fill="#3c419f" fill-opacity=".3" transform="matrix(-2.11273 -8.24254 62.24481 -15.95462 188.4 29.8)"/><ellipse cx="58" cy="60" fill="#2e62fd" fill-opacity=".2" rx="159" ry="3"/><path fill="#1f0001" fill-opacity=".4" d="M160.7 83.9l10.8 4.5L159.8 62l-2.1 7.6z"/><path fill="#231f70" fill-opacity=".4" d="M113 41h7v28h-7z"/><path fill="#512d74" fill-opacity=".8" d="M176.7 111.7l18.1 17 53.1-11.8-11.2-.9z"/></g></svg>