<svg xmlns="http://www.w3.org/2000/svg" viewBox="0 0 299 449"><defs/><path fill="#553a33" d="M0 0h299v449H0z"/><g transform="translate(.9 .9) scale(1.7539)"><circle r="1" fill="#e8ece8" fill-opacity=".7" transform="matrix(-121.76176 118.6342 -81.50413 -83.65283 43.5 116.5)"/><circle r="1" fill="#2a1c16" fill-opacity=".6" transform="matrix(-32.84884 -11.97754 25.8294 -70.83806 111.8 189.3)"/><circle r="1" fill="#170d08" fill-opacity=".8" transform="matrix(-22.12376 -13.98314 6.20512 -9.81759 94 66.3)"/><ellipse cx="30" cy="126" fill="#dad7d3" rx="43" ry="255"/><circle r="1" fill="#f6ffff" fill-opacity=".7" transform="rotate(-104.6 152.3 21.5) scale(54.92015 11.39931)"/><circle r="1" fill="#6a3d2c" fill-opacity=".5" transform="matrix(24.49971 27.40144 -15.94284 14.25454 90.8 83)"/><circle r="1" fill="#b7c5be" fill-opacity=".3" transform="rotate(60.7 -97 251.8) scale(54.98315 28.89662)"/><ellipse cx="63" cy="29" fill="#f0f3f5" fill-opacity=".6" rx="37" ry="24"/><circle r="1" fill="#2d1e1a" fill-opacity=".6" transform="matrix(33.32833 -25.72712 13.42003 17.38504 103.2 208)"/><ellipse cx="88" cy="168" fill="#7b756f" fill-opacity=".8" rx="14" ry="27"/><path fill="#74594a" d="M150.6 137.6v-30l-7.3 2.5-62.4 36.8z"/><path fill="#1c0000" fill-opacity=".6" d="M45 124l14-4 7 7z"/><circle r="1" fill="#827d77" fill-opacity=".5" transform="matrix(-21.9823 11.259 -5.46674 -10.6734 52 222.9)"/><path fill="#fff8e3" fill-opacity=".5" d="M116 66l28 43-24 16z"/><circle r="1" fill="#ffe1c8" fill-opacity=".4" transform="matrix(-1.66527 30.10933 -10.46938 -.57904 75.2 99.7)"/><path fill-opacity=".5" d="M52 124l-15 12 12-1z"/><circle cx="170" cy="239" r="7" fill="#f7fefe" fill-opacity=".7"/><path fill="#36251d" fill-opacity=".6" d="M83.4 148.5L94.2 138l28.4 29.5-10.8 10.5z"/><path fill-opacity=".4" d="M111 72L89 49 64 68z"/><circle r="1" fill="#ffe4cb" fill-opacity=".5" transform="matrix(-6.04366 -12.1247 19.93365 -9.9361 85.7 123.8)"/><circle r="1" fill="#eef0f1" fill-opacity=".6" transform="rotate(-73.8 66.3 13.5) scale(38.09528 27.01048)"/><circle r="1" fill="#9d9d9c" fill-opacity=".3" transform="matrix(2.12425 11.38854 -42.25297 7.88126 65.3 182.4)"/><path fill="#c29171" fill-opacity=".3" d="M130 199l-22 40 78-25z"/><path fill="#000b0e" fill-opacity=".4" d="M63 65l-1 20 11-34z"/><circle r="1" fill="#989b9d" fill-opacity=".7" transform="matrix(31.61689 -13.09614 43.8178 105.78553 170.1 4.6)"/><path fill="#dedddb" fill-opacity=".9" d="M108.8 87.3l15.8-9.6 8.3 28.4-21-15.2z"/><path fill="#f7f3f4" fill-opacity=".5" d="M14 139h63v24H14z"/><ellipse cx="81" cy="81" fill="#bf9a88" fill-opacity=".7" rx="17" ry="11"/><path fill="#0b0000" fill-opacity=".3" d="M114 116L85 50l26 20z"/><path fill="#fcffff" fill-opacity=".5" d="M168.1 175.2l-1.6 4.6-14.5-12 34-51.7z"/><path fill="#eceeee" fill-opacity=".6" d="M116 64L58-16 33 13z"/><path fill="#1f0f09" fill-opacity=".5" d="M101 71l-2-15-25 32z"/><path fill="#291d19" fill-opacity=".5" d="M140 195h28v10h-28z"/><circle r="1" fill="#b9bfc3" fill-opacity=".5" transform="rotate(62.5 30.5 105.7) scale(76.97835 17.87514)"/><path fill="#3c3d3a" fill-opacity=".7" d="M104.2 233.3l55.7-5.1 11.3 30.7-41.7 5.5z"/><path fill="#e8e8ea" fill-opacity=".5" d="M0 240h71v16H0z"/><path fill="#ba8366" fill-opacity=".6" d="M128.2 122.5l-.5 8-42-3 .6-8z"/><ellipse cx="92" cy="233" fill="#2c1c19" fill-opacity=".7" rx="21" ry="37"/><path fill="#ffe6d4" fill-opacity=".5" d="M96 75.6l2.2 2-14.1 16.8-2.3-2z"/><path fill="#9d412b" fill-opacity=".4" d="M80 95h37v15H80z"/><path fill="#757a79" fill-opacity=".5" d="M123 157l44 36-22-54z"/><path fill="#8b8e86" fill-opacity=".5" d="M-7.9 160.2l20.5-16.5-28.6-26.5v46.2z"/><path fill="#140702" fill-opacity=".3" d="M80.3 85.1l-6.2 6.5-16.2-21.9 6.9 17.7z"/><path fill="#efeeed" fill-opacity=".8" d="M53 48.7l16.8 56.8-37.9-13.8L85.1 39z"/><path fill="#f2d0ba" fill-opacity=".5" d="M92 95h8v41h-8z"/><path fill="#4c3527" fill-opacity=".5" d="M147 104l-1 37-23-10z"/><path fill="#0d0000" fill-opacity=".5" d="M83 120.7l.1-1 10 1.6-.2 1z"/><circle r="1" fill="#bf9473" fill-opacity=".5" transform="rotate(15.4 -699.4 692.4) scale(28.42123 2.87614)"/><path fill="#ffe0ca" fill-opacity=".4" d="M78.4 69.2l8.5 5.5L70 88.9l-3.8-13.5z"/><path fill="#382c00" fill-opacity=".5" d="M37 136l15 1-2-6z"/><path fill="#f4dac8" fill-opacity=".6" d="M101.3 108.2l8 9.4L140.4 88l-18 38.8z"/><path fill="#f1e9e1" fill-opacity=".6" d="M68 122l-29 48 56-45z"/><path fill="#ebd9c8" fill-opacity=".6" d="M74.5 100.5L97 120.6l-113 2.9 97.7-32.4z"/><circle r="1" fill="#cdb592" fill-opacity=".6" transform="rotate(17.9 -7.3 80.1) scale(4.5942 24.43296)"/><path fill="#8c8983" fill-opacity=".8" d="M81.3 137.8l-11.5 63.4 36.8-25.7-23.8-20.2z"/><path fill="#0f1311" fill-opacity=".5" d="M124.1 78.7L79.4 68.3l14.5-16 9.1 9.6z"/><circle r="1" fill="#352c2a" fill-opacity=".7" transform="matrix(-12.5961 2.4941 -5.37347 -27.138 117.8 189.7)"/><path fill="#b6bfc0" fill-opacity=".7" d="M170.4 101.4l19.7 25.2-20.5 16-19.7-25.2z"/><path fill="#6a3324" fill-opacity=".5" d="M119.9 95.2L121 98l-26.9 10.8L93 106z"/><ellipse cx="20" cy="205" fill="#c9c0b4" fill-opacity=".6" rx="7" ry="29"/><path fill="#95552a" fill-opacity=".5" d="M67 108l-8-4 3-4z"/><circle r="1" fill="#523d37" fill-opacity=".4" transform="matrix(29.44042 9.62261 -4.98838 15.26197 126.6 224.3)"/><circle r="1" fill="#abcad2" fill-opacity=".3" transform="matrix(1.36445 6.10418 -4.94137 1.10453 74.7 54.7)"/><ellipse cx="69" cy="234" fill="#8b908d" fill-opacity=".4" rx="3" ry="29"/><path fill="#fff2e1" fill-opacity=".5" d="M45 125l7 7 7-4z"/></g></svg>