<svg xmlns="http://www.w3.org/2000/svg" viewBox="0 0 300 199"><defs/><path fill="#474747" d="M0 0h300v199H0z"/><g transform="translate(.6 .6) scale(1.17188)"><circle r="1" fill="#f7f7f7" fill-opacity=".8" transform="matrix(-109.01156 -190.01846 78.82417 -45.22059 205.3 72.4)"/><ellipse cx="70" cy="46" fill="#a2a2a2" rx="22" ry="169"/><ellipse cx="122" cy="94" fill-opacity=".7" rx="6" ry="88"/><ellipse cx="4" cy="23" fill="#f2f2f2" fill-opacity=".8" rx="5" ry="120"/><path fill-opacity=".6" d="M128 28.5H26v-11h102z"/><ellipse cx="81" cy="1" fill="#e3e3e3" fill-opacity=".9" rx="255" ry="16"/><path fill="#fff" fill-opacity=".6" d="M29 30h83v33H29z"/><circle r="1" fill="#010101" fill-opacity=".8" transform="matrix(-20.50178 .35786 -1.17436 -67.27926 27.8 143)"/><path fill="#010101" fill-opacity=".6" d="M68.4 62.8l-7.5 34.1 67.9 5.3-25.3 82.8z"/><circle r="1" fill="#fff" fill-opacity=".5" transform="matrix(-54.18901 -11.7107 16.97165 -78.53298 215.7 67.3)"/><path fill="#cacaca" fill-opacity=".7" d="M128 157h41v13h-41z"/><path fill-opacity=".4" d="M73.6 68.1l-15.8 28 59.7-27-19.6-11.8z"/><path fill="#121212" fill-opacity=".8" d="M55 17l71.6 1.3-4.9 12.7-90.4-3.9z"/><path fill="#fff" fill-opacity=".6" d="M128 118h13v24h-13z"/><ellipse cx="18" cy="56" fill="#070707" fill-opacity=".7" rx="10" ry="41"/><path fill="#fff" fill-opacity=".6" d="M74 46L55 98l-2-60z"/><path fill-opacity=".6" d="M46 62h7v55h-7z"/><circle r="1" fill="#d3d3d3" fill-opacity=".6" transform="rotate(-124.2 78 53.5) scale(44.03274 7.6084)"/><ellipse cy="115" fill="#d1d1d1" fill-opacity=".7" rx="9" ry="27"/><ellipse cx="127" cy="52" fill="#101010" fill-opacity=".6" rx="2" ry="35"/><path fill-opacity=".5" d="M134.4 155.6L74.5 185l64.3-46.3L160 185z"/><path fill="#262626" fill-opacity=".6" d="M144 72h6v18h-6z"/><path fill="#909090" d="M90.7 102.1l-41.2 3.8 57.8-34.4-44.9 49.8z"/><path fill="#6f6f6f" fill-opacity=".5" d="M21 59.1l-2.1-32 20 77.5 17.8-55.2z"/><path fill="#010101" fill-opacity=".7" d="M98.1 182.5l-8.4-91.4L102 82l9 15.5z"/><path fill="#fff" fill-opacity=".6" d="M23.9 27.4l28.8 6.8 35.5 17.6-4 22.6z"/><ellipse cx="64" cy="94" fill="#040404" fill-opacity=".7" rx="4" ry="14"/><path fill="#888" fill-opacity=".4" d="M143 28h8v127h-8z"/><ellipse cx="1" cy="169" fill="#efefef" fill-opacity=".5" rx="7" ry="13"/><path fill="#b2b2b2" fill-opacity=".9" d="M106 54.7L69.7 39l49.2 41.6-22.1-.8z"/><path fill="#575757" fill-opacity=".4" d="M68 107l21 47 4-49z"/><ellipse cy="148" fill="#060606" fill-opacity=".9" rx="51" ry="8"/><path fill="#d2d2d2" fill-opacity=".5" d="M85.5 95.1l-18.3 19 7.5-30.6 19.4 40.7z"/><path fill="#010101" fill-opacity=".4" d="M86.8 92.5l11.4-30.6-14.4 3.6-1.5 21.3z"/><path fill="#fff" fill-opacity=".4" d="M87.6 61L49.4 75.2l8.4-46L22 30.6z"/><path fill-opacity=".6" d="M119.7 190.2l-26-7 12.6-47.4 26 7z"/><path fill-opacity=".5" d="M63 69l17-4-10 20z"/><path fill="#d1d1d1" fill-opacity=".7" d="M0 0h8v142H0z"/><ellipse cx="114" cy="112" fill="#7d7d7d" fill-opacity=".3" rx="3" ry="51"/><path fill="#d5d5d5" fill-opacity=".7" d="M115 40h3v48h-3z"/><path fill="#868686" fill-opacity=".4" d="M81.7-6.9l-28 16 4.8 1.7L85 9.4z"/><path fill="#f7f7f7" fill-opacity=".5" d="M141 156.6l2.4 7.6-10.5 3.2-2.3-7.6z"/><path fill="#c8c8c8" fill-opacity=".7" d="M130-4l22 49 35-61z"/><ellipse cx="11" cy="64" fill-opacity=".6" rx="3" ry="51"/><path fill="#818181" fill-opacity=".7" d="M41 185l24.2-34.2-16-33 1.7 36.1z"/><path fill="#030303" fill-opacity=".5" d="M119 23h9v36h-9z"/><path fill="#fff" fill-opacity=".5" d="M105.7 69.8l9.4 13-4.8 3.4-9.4-13z"/><ellipse cx="207" cy="147" fill="#e2e2e2" fill-opacity=".5" rx="61" ry="54"/><path fill="#818181" fill-opacity=".7" d="M27.4 63.1l19.3 20.7.1-21.8-18.2-31.9z"/><path fill="silver" fill-opacity=".6" d="M70.9 168.7l37.3 16.3-54.7-81 6.1-18.6z"/><path fill="#e9e9e9" fill-opacity=".6" d="M129 84h13v57h-13z"/><ellipse cx="21" cy="38" fill="#7b7b7b" fill-opacity=".8" rx="2" ry="10"/><path fill-opacity=".5" d="M61 16H12l3 17z"/><circle r="1" fill="#6a6a6a" fill-opacity=".5" transform="rotate(42.5 -41.6 185.6) scale(20.39623 2.59417)"/><path fill="#f4f4f4" fill-opacity=".9" d="M49.3 31.7L62.2 86 70 38.5l33.9 10.9z"/><ellipse cx="75" cy="27" fill-opacity=".4" rx="44" ry="3"/><circle r="1" fill="#070707" fill-opacity=".5" transform="rotate(-150.4 29.7 25) scale(8.84914 1.27375)"/><circle r="1" fill="#fbfbfb" fill-opacity=".4" transform="matrix(-19.81317 60.26703 -22.4871 -7.39278 221.5 49)"/><path fill="#2c2c2c" fill-opacity=".6" d="M35.2 54.5l-3.9 30.6 26.3 85.5L36.9 89z"/><path fill-opacity=".5" d="M47 89h6v23h-6z"/><path fill="#f5f5f5" fill-opacity=".5" d="M71.8 98.2l-1.4-8.9 9.8-1.5 1.4 8.9z"/><path fill="#b6b6b6" fill-opacity=".5" d="M144 83.7l-3 57.7 13.3 28.2 9.1-15.3z"/><path fill="#b8b8b8" fill-opacity=".7" d="M106.9 64.5l-17.5-2.6-2.7-30.2 19.5 26.4z"/><path fill-opacity=".5" d="M121 143h24v13h-24z"/><path fill="#646464" fill-opacity=".6" d="M123 73h6v34h-6z"/></g></svg>