<svg xmlns="http://www.w3.org/2000/svg" viewBox="0 0 300 199"><defs/><path fill="#383d42" d="M0 0h300v199H0z"/><g transform="translate(.6 .6) scale(1.17188)"><circle r="1" fill="#bbb5b5" fill-opacity=".5" transform="matrix(148.8832 207.02365 -77.2061 55.52357 85.7 126.1)"/><circle r="1" fill="#fffcff" fill-opacity=".7" transform="rotate(129 87 60.5) scale(77.12282 9.68775)"/><circle r="1" fill="#030000" fill-opacity=".7" transform="matrix(37.56442 -73.48582 25.89162 13.23526 225 56)"/><ellipse cx="186" cy="157" fill="#a8a5a1" fill-opacity=".6" rx="163" ry="31"/><circle r="1" fill="#2a1e26" fill-opacity=".7" transform="matrix(-8.56928 71.94459 -13.74785 -1.6375 133.4 59)"/><ellipse cx="81" cy="50" fill="#1a2328" fill-opacity=".4" rx="24" ry="53"/><circle r="1" fill="#cfcac7" fill-opacity=".5" transform="matrix(8.86133 -12.87233 77.59581 53.41707 52.6 135.8)"/><path fill="#f1ddd9" fill-opacity=".7" d="M113.6-10.7l10 .8-9.2 104.6-10-.8z"/><path fill="#242f36" fill-opacity=".7" d="M87 118l88.1-35.5 7.9 19.4-88.1 35.6z"/><circle cx="169" r="22" fill-opacity=".9"/><circle r="1" fill="#f2c6b5" fill-opacity=".6" transform="matrix(9.77299 7.09126 -10.78337 14.86135 149.8 78)"/><ellipse cx="19" cy="17" fill="#9eaebc" fill-opacity=".5" rx="37" ry="39"/><path fill="#dae4fb" fill-opacity=".6" d="M199 38.1L180 25l19-27 18.8 13z"/><circle r="1" fill="#141a1f" fill-opacity=".8" transform="matrix(16.92992 3.50018 -2.49352 12.06085 208.9 125.2)"/><circle r="1" fill="#b0aba5" fill-opacity=".5" transform="rotate(-156.4 134 39) scale(17.83339 10.19515)"/><path fill="#3e4243" fill-opacity=".4" d="M-3 61l57-13 88 73z"/><path fill="#1e1521" fill-opacity=".6" d="M170 42l-46-58-3 104z"/><circle r="1" fill="#070004" fill-opacity=".8" transform="rotate(-76.5 127 -143) scale(55.19505 19.5157)"/><circle r="1" fill="#cac3bd" fill-opacity=".4" transform="matrix(-2.59831 6.42456 -68.66946 -27.77226 203.2 148)"/><ellipse cx="113" cy="87" fill="#bc8a7a" fill-opacity=".8" rx="6" ry="10"/><path fill="#d1dde7" fill-opacity=".3" d="M118.6 123.1l56.9-53.5-60 45.3L100 124z"/><path fill="#000009" fill-opacity=".5" d="M140 97h18v22h-18z"/><path fill="#262328" fill-opacity=".7" d="M159.7 90.2L181 51.7l25.3 14-21.3 38.6z"/><circle r="1" fill="#464b50" fill-opacity=".5" transform="matrix(13.61903 1.17012 -5.75048 66.92982 98 20)"/><path fill="#6c6a69" fill-opacity=".4" d="M119 165l145 20-145-65z"/><circle r="1" fill="#ddd6db" fill-opacity=".6" transform="rotate(-62 107.2 -157.2) scale(94.46331 6.93584)"/><circle r="1" fill="#33343b" fill-opacity=".6" transform="rotate(55 26.4 271) scale(11.97142 31.95587)"/><path fill="#edc9b9" fill-opacity=".6" d="M98.5 82.6l13.4-29.3 6.1 21.4-14.5 12.6z"/><path fill="#656665" fill-opacity=".6" d="M160 109.4l32.4 28.9 2.4-21.9L162 94.1z"/><circle r="1" fill="#090105" fill-opacity=".5" transform="matrix(.80609 31.98024 -18.54167 .46736 211.4 60.7)"/><ellipse cx="72" fill="#a4bccd" fill-opacity=".2" rx="49" ry="12"/><path fill="#c5daf3" fill-opacity=".5" d="M111 13h12v29h-12z"/><path fill="#949592" fill-opacity=".6" d="M94 115L24 83l57 49z"/><path fill="#221e1a" fill-opacity=".3" d="M52.5 50.7l46.8 26 11.5-37.4-20.5 8.9z"/><path fill="#272228" fill-opacity=".8" d="M179.3 28.2l-17.4 24.2-25.3 21 7.8-39.7z"/><circle r="1" fill="#2e2534" fill-opacity=".6" transform="rotate(-130 71.7 -28.2) scale(21.32514 15.67148)"/><circle r="1" fill="#6b7179" fill-opacity=".7" transform="matrix(8.01498 -13.655 59.00141 34.63161 18.5 164.5)"/><circle r="1" fill="#5c5b5c" fill-opacity=".5" transform="matrix(14.3337 -13.79362 20.39442 21.19294 77 80.2)"/><path fill="#0f0b09" fill-opacity=".5" d="M110 117l16-39 12 17z"/><path fill="#c88f7c" fill-opacity=".6" d="M137.2 78.5l14 11.3-6.4 7.7-14-11.3z"/><path fill="#b1adaa" fill-opacity=".6" d="M152.1 118.3L258.3 185l-119.7-58.4-7.9-5.7z"/><path fill="#656f70" fill-opacity=".6" d="M88 135l14 12 27-21z"/><circle cx="164" cy="25" r="6" fill="#9ea4a6" fill-opacity=".4"/><path fill="#51575e" fill-opacity=".5" d="M271 173.7l-26.7-2.1 26.7-19.2-62.5-28.7z"/><path fill="#10141c" fill-opacity=".3" d="M-16 66.8l29.4-11.3 64.8-3.4-50.9 7.5z"/><path fill="#342a36" fill-opacity=".5" d="M137.9 80.7l-22.1-23.2L138.6-16l13.5 22.3z"/><path fill="#e4cdc5" fill-opacity=".6" d="M162.1 87l20.7-57.7-34.5 38.4-2.9 31.1z"/><path fill="#1e0000" fill-opacity=".5" d="M111 82.7l2.8 7.5-2.8 1-2.8-7.4z"/><path fill="#282527" fill-opacity=".5" d="M181.3 52.8l20 18-14.6 16.4-20-18z"/><circle r="1" fill="#c6d1e4" fill-opacity=".6" transform="rotate(-36.2 141.6 -286.9) scale(18.35776 7.19907)"/><path fill="#98a0a9" fill-opacity=".4" d="M77 45L19 56l23-23z"/><circle r="1" fill="#252328" fill-opacity=".8" transform="matrix(-14.17868 24.06072 -13.54547 -7.98218 255 62.7)"/><path fill="#dcedff" fill-opacity=".5" d="M193.4 38.7l-15 14.6-9.8-10 15-14.6z"/><path fill="#0d1a24" fill-opacity=".5" d="M106 127l52-36 3 20z"/><path fill="#8f9093" fill-opacity=".5" d="M-11.3 119l9.6-12.7 91 68.6-9.6 12.8z"/><path fill="#ecdfd7" fill-opacity=".3" d="M114.1 59.3l7.8-67.7-19.1 81.3 16.1 14.4z"/><ellipse cx="86" cy="17" fill="#555e66" fill-opacity=".4" rx="27" ry="33"/><path fill="#03080d" fill-opacity=".4" d="M209.9 137.9l-29.4-22 47.6 9.3-9.8-38.7z"/><path fill="#120d0f" fill-opacity=".5" d="M232 87l-43-42-12 14z"/><path fill="#bab4b2" fill-opacity=".6" d="M85 139l62 38-85 8z"/><path fill="#535150" fill-opacity=".6" d="M270.1 100.3l.9 2.2-51.4-7.9 8.8-7.8z"/><path fill="#12080f" fill-opacity=".7" d="M125.7 19.5l5.6 80.8-3 .2-5.6-80.8z"/><path fill="#152129" fill-opacity=".4" d="M88.6 120.6l-6.1 7.1 17.2 3.7 28.5-3.5z"/><path fill="#b8e4f5" fill-opacity=".3" d="M106.5 123.5l16.5-7.2 6.6-17 7.1 5.6z"/><path fill="#8e8c88" fill-opacity=".5" d="M171.9 133.9l-19.2-17 37.1 9.1 41.1 27.7z"/></g></svg>