<svg xmlns="http://www.w3.org/2000/svg" viewBox="0 0 299 449"><defs/><path fill="#442d24" d="M0 0h299v449H0z"/><g transform="translate(.9 .9) scale(1.7539)"><circle r="1" fill="#ececdf" fill-opacity=".7" transform="matrix(-50.91794 -115.97616 66.01607 -28.98356 17.2 157.2)"/><ellipse cx="45" cy="109" fill="#1e0c00" fill-opacity=".6" rx="17" ry="70"/><ellipse cx="16" cy="55" fill="#fefff8" fill-opacity=".6" rx="14" ry="255"/><ellipse cx="147" cy="30" fill="#0e0a04" fill-opacity=".9" rx="52" ry="248"/><ellipse cx="65" cy="105" fill="#9f816e" fill-opacity=".9" rx="30" ry="24"/><circle cx="26" cy="218" r="48" fill="#e1dfd7" fill-opacity=".8"/><path fill="#190a00" fill-opacity=".5" d="M186 74l-18.3 113.7L69.8 216l15.4 40.4z"/><path fill="#d0dcdc" fill-opacity=".5" d="M91 149l25 25-34 35z"/><path fill="#ab8b77" fill-opacity=".9" d="M63.1 64.5L69.3 51l10.1 1.6 12.4 134.3z"/><path fill="#110900" fill-opacity=".5" d="M31 110h30v63H31z"/><path fill="#fffffd" fill-opacity=".6" d="M73 171v-58L45 217z"/><path fill="#5c361f" fill-opacity=".6" d="M70 185.3l25.3-88.5 6.7 2-25.3 88.4z"/><path fill="#c9ba9b" fill-opacity=".6" d="M111.7 273.8l-11.3 4.2-18.1-49.8 11.3-4.2z"/><path fill="#0f0000" fill-opacity=".4" d="M105-16l36 44-86 85z"/><path fill="#140f03" fill-opacity=".6" d="M29 0h33v85H29z"/><circle r="1" fill="#736f3e" fill-opacity=".5" transform="matrix(-14.04789 2.40095 -4.49898 -26.32343 0 31.3)"/><ellipse cx="41" cy="102" fill="#fff5fc" fill-opacity=".6" rx="6" ry="11"/><path fill="#ffe3c4" fill-opacity=".4" d="M86.8 130.4l-13.6 24.3-21-18.3L89 99z"/><circle r="1" fill="#22170d" fill-opacity=".6" transform="rotate(-16.7 821.1 -282.7) scale(19.0862 34.89789)"/><path fill="#dedcd3" fill-opacity=".7" d="M65 169l17 102-94-92z"/><path fill="#f5fdf6" fill-opacity=".6" d="M.9 1.4L-9.5-16l36.6 46.9 2-34.5z"/><path fill="#4e1500" fill-opacity=".3" d="M77.6 168.6l-10.2 31.9 21.4 5.2-7.2 65.3z"/><path fill="#eae4df" fill-opacity=".3" d="M98 162l19 22-103 18z"/><path fill="#eddac8" fill-opacity=".5" d="M88.2 87l-22.8 18.2 24.4 1.1-5.1.2z"/><path fill-opacity=".3" d="M126 165l60-110-109 91z"/><path fill="#5f4736" fill-opacity=".9" d="M46.3 93L64 132.5l1.6-104-10.3 127.7z"/><path fill="#ffe0cb" fill-opacity=".5" d="M58 90l-22 13 8-21z"/><path fill="#251d10" fill-opacity=".4" d="M32 148.7l25-21.3 3.4 41.2-29.4 9.1z"/><path fill="#060000" fill-opacity=".4" d="M98 154l81 107L84 20z"/><ellipse cy="75" fill="#7b703a" fill-opacity=".3" rx="4" ry="119"/><path fill="#f5f6f0" fill-opacity=".5" d="M2 113h28v67H2z"/><path fill="#ffc597" fill-opacity=".2" d="M101.3 188.7L75.8 89.9l-26-17.4 33-22.6z"/><path fill="#1b1502" fill-opacity=".5" d="M52 99l-19 23 10 33z"/><path fill="#d3d3c6" fill-opacity=".6" d="M2 48h28v35H2z"/><path fill="#41413c" fill-opacity=".6" d="M125 236l22 26-17-53z"/><path fill="#72746d" fill-opacity=".5" d="M104.2 202.5L95.6 184l26 8.1-20.2-39.6z"/><path fill="#21150b" fill-opacity=".8" d="M31.8 107.9l.2.2L54.3 58 30.6-15.6z"/><path fill="#ffece2" fill-opacity=".4" d="M64 57.8l8.7-6 4.9 6.3-7 6z"/><path fill="#ebb2d8" fill-opacity=".5" d="M57 94l-7 12h7z"/><path fill="#ffefe0" fill-opacity=".3" d="M52 115.7l24.4 41.6-7.4 1.8-18.9-39z"/><path fill="#3c280c" fill-opacity=".3" d="M59.7 159.4L70.4 100l-16.3-8.2 8.7 30.5z"/><path fill="#b8ab91" fill-opacity=".5" d="M105 264l-16-46-2 51z"/><ellipse cx="91" cy="5" fill="#220c0b" fill-opacity=".7" rx="7" ry="83"/><circle r="1" fill="#302014" fill-opacity=".6" transform="matrix(5.60133 -1.3551 2.26488 9.36188 80.7 224)"/><ellipse cx="73" cy="198" fill="#c36f56" fill-opacity=".4" rx="7" ry="11"/><path fill="#380b08" fill-opacity=".7" d="M71.2 85.3l5.5 5.8-7.9 7.6-5.5-5.8z"/><path fill="#e6e1d9" fill-opacity=".4" d="M57 168l24 45-77-31z"/><ellipse cx="18" cy="84" fill="#eff1ed" fill-opacity=".5" rx="12" ry="23"/><circle r="1" fill="#b4775a" fill-opacity=".5" transform="matrix(2.4451 .68728 -12.81645 45.59597 82.4 140)"/><path fill="#c3c2b7" fill-opacity=".6" d="M0 250h82v6H0z"/><path fill="#ccd0cd" fill-opacity=".6" d="M74.7 191l26 20-6.5-8.7-4.6-48.4z"/><path fill="#9b3644" fill-opacity=".5" d="M79 0h5v35h-5z"/><path fill="#696237" fill-opacity=".3" d="M29.7 45.4L-16 32.5 1.9 11.8l37 48.1z"/><circle r="1" fill="#2e2711" fill-opacity=".5" transform="rotate(16 -25.1 621.6) scale(13.52384 42.49456)"/><path fill="#54462e" fill-opacity=".4" d="M87.2 58.5L91 161.9l9-52.5 2.2 23.6z"/><circle r="1" fill="#261203" fill-opacity=".4" transform="rotate(52 -188.5 241.3) scale(39.28606 12.27083)"/><circle r="1" fill="#8b4e38" fill-opacity=".5" transform="matrix(-2.33587 -.65219 5.93432 -21.25433 74.8 182.8)"/><circle r="1" fill="#f6feff" fill-opacity=".4" transform="rotate(-61.4 159 16) scale(17.17159 4.66683)"/><path fill="#aaab80" fill-opacity=".4" d="M28.7 23.6l1.9 36-18.5-6.9-2.8-30.3z"/><path fill="#725d4f" fill-opacity=".5" d="M81 213l14 9-22-35z"/><path fill="#f0e7df" fill-opacity=".5" d="M78 89l-14 21 20-17z"/><path fill="#fde" fill-opacity=".6" d="M36.5 106.5l-1.8-2.4 16.8-12.6 1.8 2.4z"/><path fill="#f2cfc0" fill-opacity=".5" d="M69 66l-3 14-3-12z"/><path fill-opacity=".5" d="M105 208h24v16h-24z"/><ellipse cx="67" cy="13" fill="#933d4c" fill-opacity=".5" rx="2" ry="37"/></g></svg>