<svg xmlns="http://www.w3.org/2000/svg" viewBox="0 0 300 199"><defs/><path fill="#5f4437" d="M0 0h300v199H0z"/><g transform="translate(.6 .6) scale(1.17188)"><circle cx="39" cy="85" r="224" fill="#d1dcd1" fill-opacity=".6"/><circle r="1" fill="#f0fcff" fill-opacity=".6" transform="rotate(-32.6 91 6.5) scale(35.77888 65.14708)"/><ellipse cx="70" cy="155" fill="#604b3e" fill-opacity=".7" rx="43" ry="56"/><path fill-opacity=".8" d="M60 29.2l-13.7 8.2L34 16.8l13.7-8.2z"/><circle r="1" fill="#f9ffff" fill-opacity=".5" transform="rotate(11.1 11.2 370.7) scale(86.74728 14.01984)"/><circle r="1" fill="#8a7756" fill-opacity=".7" transform="rotate(-88 120.1 -58.5) scale(95.39308 17.92034)"/><circle r="1" fill="#595957" fill-opacity=".7" transform="matrix(-13.69165 9.51595 -23.93643 -34.44002 82.2 58.2)"/><circle r="1" fill="#f6fcfb" fill-opacity=".4" transform="matrix(-11.109 -.45574 6.41951 -156.47905 201.7 121.7)"/><path fill="#d6d7cf" fill-opacity=".6" d="M160 22l-21 122-15-160z"/><circle r="1" fill="#787666" fill-opacity=".6" transform="matrix(11.76993 83.74743 -14.99712 2.1077 237.8 113.5)"/><path fill="#bda38d" fill-opacity=".6" d="M80.1 67.7l-4.5 39.1-88 76.8 125-83.9z"/><circle r="1" fill="#cfcdc4" fill-opacity=".5" transform="matrix(11.59849 -14.08803 28.47033 23.43924 129.8 144.9)"/><circle r="1" fill="#857148" fill-opacity=".6" transform="matrix(5.06215 -.07952 1.48494 94.5265 119.8 46.6)"/><path fill="#dcdfd8" fill-opacity=".5" d="M96.4 16.3l18 .4-.8 51-18-.4z"/><path fill="#180000" fill-opacity=".4" d="M59 141h36l10-46z"/><path fill="#4d3b1e" fill-opacity=".5" d="M65 126l5-36-35 14z"/><path fill="#4c3e39" fill-opacity=".6" d="M17 157h97v13H17z"/><path fill="#5e5e5f" fill-opacity=".6" d="M80 90L56 35l8 67z"/><path fill="#431100" fill-opacity=".5" d="M72 50l34 19 4 23z"/><ellipse cx="141" cy="56" fill="#ccccc4" fill-opacity=".9" rx="9" ry="132"/><ellipse fill="#dde3e5" fill-opacity=".8" rx="30" ry="106"/><path fill="#6c7778" d="M65 59.3l-2-37 30-1.6 2 37z"/><path fill="#4f331d" fill-opacity=".5" d="M74.1 95.8l-62.5 49.5 15.8-2.7 30.9-28.1z"/><path fill="#010a12" fill-opacity=".5" d="M43.9 43.1L41.4 8.4l-15 9.4 33.5 9.7z"/><path fill="#faead4" fill-opacity=".3" d="M82.7 84.8l19.3 23.6-33.3 5 44.6-59.9z"/><circle r="1" fill="#c5beb0" fill-opacity=".4" transform="rotate(51.2 -114.3 73.8) scale(22.30506 36.6635)"/><path fill="#725834" fill-opacity=".4" d="M166.3 18.8l11 1.5-15.6 111-11-1.6z"/><path fill="#a59b96" fill-opacity=".5" d="M23 159l18-32 25 27z"/><ellipse cx="68" fill="#dfe8ed" fill-opacity=".6" rx="25" ry="21"/><path fill="#6c7064" fill-opacity=".7" d="M263 14l-16-24 8 69z"/><path fill="#d3dbe0" fill-opacity=".7" d="M55 38.5l3.8 27.7-23.7 3.3-4-27.7z"/><circle r="1" fill="#a39984" fill-opacity=".8" transform="matrix(.2939 -28.93541 17.37985 .17653 167.5 145.2)"/><path fill="#d0d7d9" fill-opacity=".6" d="M41 24L5 2l57 93z"/><path fill="#969998" fill-opacity=".8" d="M31.2 63.4l-3.4-13.5 4.7 44 6.6 35z"/><path fill="#f6f1e0" fill-opacity=".2" d="M116.1 22l-6.3 86.6-33.1 22 46.5-18.3z"/><path fill="#8e603a" fill-opacity=".7" d="M101.8 78L89.3 93.6l3.5-28.3 4.7 49.3z"/><path fill="#edfefe" fill-opacity=".2" d="M194.6-6.1l73.3-1.3-50.2 31.1-13.6 23.2z"/><path fill="#838072" fill-opacity=".7" d="M271 115l-19 70-30-129z"/><path fill="#dbeaff" fill-opacity=".2" d="M57.3 97.9l46-25.5-1.8-1.9-117.5 33z"/><circle r="1" fill="#8f8888" fill-opacity=".5" transform="matrix(-35.24309 5.08103 -.75049 -5.20553 81.9 147)"/><ellipse cx="125" cy="143" fill="#857050" fill-opacity=".4" rx="3" ry="148"/><path fill="#040a0a" fill-opacity=".5" d="M89.2 56.3l2.4-2.3-11.8 12.2 15.1-4.9z"/><path fill="#1a0e06" fill-opacity=".5" d="M86 130.9l-29.2 15.5-2.8-5.3 29.2-15.5z"/><path fill="#e2e8e8" fill-opacity=".9" d="M-3 20l-13-36L58 3z"/><path fill="#140000" fill-opacity=".6" d="M101 74h6v12h-6z"/><path fill-opacity=".5" d="M60.6 31.6L47 38.2l-9.7-19.8L51 11.8z"/><path fill="#97907d" fill-opacity=".6" d="M20 102h20v6H20z"/><ellipse cx="118" cy="165" fill="#c0bdb2" rx="5" ry="54"/><path fill="#aca58f" fill-opacity=".7" d="M116 0h8v31h-8z"/><path fill="#d0c4b2" fill-opacity=".4" d="M80.7 109l14.6-9.8-13.2 1-43.6 42.6z"/><ellipse cx="196" cy="166" fill="#fcfefb" fill-opacity=".2" rx="10" ry="32"/><ellipse cx="110" cy="147" fill="#403c43" fill-opacity=".3" rx="3" ry="35"/><path fill="#7f6940" fill-opacity=".3" d="M154 18l15 51 4-76z"/><path fill="#beb4a1" fill-opacity=".7" d="M-2 119l-14 63 39-27z"/><path fill="#dbdfda" fill-opacity=".6" d="M132 17.3l-2.9-23.8L152-9.3l2.9 23.8z"/><path fill="#9a9079" fill-opacity=".5" d="M159.1 115.7l18.4 45.4 15.3-34.2.9-40.4z"/><path fill="#48290d" fill-opacity=".3" d="M97.4 139.9l5.9-31.4-30.5 21.2 15.4-23.5z"/><path fill="#845735" fill-opacity=".6" d="M57.9 128.6l12.4-8.4-8.1 11.8-16.8 10.1z"/><path fill="#b0a69a" fill-opacity=".9" d="M43.4 122.9l-9 20.1 15.2-9.9-8.5 13.9z"/><path fill="#b9b9c5" fill-opacity=".5" d="M105.5 103.8l5.9 1.1-6.9 35.3-5.9-1.1z"/><ellipse cx="141" cy="80" fill="#a6a496" fill-opacity=".5" rx="2" ry="44"/><ellipse cx="179" cy="44" fill="#a1977f" fill-opacity=".6" rx="4" ry="76"/><path fill="#190d00" fill-opacity=".1" d="M82.8 105.9L65 84.5l-17.1 28-36.7 36.9z"/><path fill="#d5d6d1" fill-opacity=".8" d="M139 144.3l11.4 4.1 2.5 36.6-17.1-11z"/><path fill="#b2b3ab" fill-opacity=".6" d="M210 20h8v114h-8z"/></g></svg>