<svg xmlns="http://www.w3.org/2000/svg" viewBox="0 0 300 199"><defs/><path fill="#352e27" d="M0 0h300v199H0z"/><g transform="translate(.6 .6) scale(1.17188)"><circle cx="59" cy="28" r="206" fill="#a8998a" fill-opacity=".8"/><circle r="1" fill="#5a4128" fill-opacity=".6" transform="rotate(30.2 -21 315.6) scale(90.79378 36.63555)"/><circle cx="105" cy="169" r="106" fill="#f4e9e3" fill-opacity=".3"/><ellipse cx="54" cy="79" fill="#000b15" fill-opacity=".6" rx="10" ry="62"/><circle r="1" fill="#d7e6ed" fill-opacity=".4" transform="matrix(-27.89628 168.57324 -35.66588 -5.90215 .1 68.8)"/><path fill="#684324" fill-opacity=".6" d="M207.2 21l61 143.6-43.4 18.4-61-143.6z"/><circle r="1" fill="#fffff1" fill-opacity=".5" transform="matrix(5.7941 36.5825 -10.41016 1.6488 170 111.8)"/><circle r="1" fill="#d5e2ee" fill-opacity=".5" transform="rotate(-102 72.7 12.8) scale(51.94854 13.37058)"/><circle r="1" fill="#e3d8ce" fill-opacity=".6" transform="matrix(87.62262 -10.63268 1.62272 13.37268 85.4 160.6)"/><path fill="#000213" fill-opacity=".2" d="M43 23h97v49H43z"/><path fill="#080f15" fill-opacity=".5" d="M42 140l33-9-10-25z"/><path fill="#514f4b" fill-opacity=".3" d="M96 0h61v141H96z"/><circle r="1" fill="#773900" fill-opacity=".4" transform="matrix(-6.1009 .74889 -5.0119 -40.82997 35 117.5)"/><circle r="1" fill="#160800" fill-opacity=".8" transform="matrix(-9.50795 -3.74333 3.09904 -7.87148 219 140.2)"/><path fill="#cea693" fill-opacity=".7" d="M96.1 44.6l12.1 66.1-25.7-22.5-2.7-36.6z"/><path fill="#b0b8b8" fill-opacity=".6" d="M77-9v32H21V-9z"/><path fill="#140700" fill-opacity=".7" d="M79.8 34.2l-5.5 12.3 3 10.1 27.1-20.8z"/><path fill="#000101" fill-opacity=".8" d="M41.9 35.6l8.4 20.7 19.3-29.9-13.1-5.5z"/><circle r="1" fill="#cfcdc7" fill-opacity=".7" transform="matrix(10.7661 -.3046 1.15128 40.69141 201.7 169)"/><path fill="#615241" fill-opacity=".9" d="M125.1 64.6l26.7 54.2 5-7.1-10.9-47.6z"/><path fill="#ececf8" fill-opacity=".3" d="M134.8 125l19.5 1.5-30.4-58-13.5.8z"/><circle r="1" fill="#837259" fill-opacity=".6" transform="matrix(16.89848 -7.27785 32.49895 75.45944 219.2 42.9)"/><path fill="#0c2720" fill-opacity=".5" d="M91.9 125.6l22-.6-1.8 12.5-13.2 4.2z"/><path fill-opacity=".5" d="M62 79l11-7-9-7z"/><path fill="#d17722" fill-opacity=".3" d="M188 43.2l25.4 78-29.5 9.6-25.3-78z"/><path fill="#d7f9ff" fill-opacity=".2" d="M53.5 76.4l34.7-47.6L68.8-16l4.3 38z"/><circle r="1" fill="#fffffb" fill-opacity=".7" transform="rotate(100.7 -48.2 102.6) scale(3.90413 66.65336)"/><path fill="#f0f5f9" fill-opacity=".4" d="M95 111.3l-13.4 29L59.5 89l18-22.5z"/><ellipse cx="23" cy="128" fill="#ffcb60" fill-opacity=".3" rx="9" ry="32"/><path fill="#939a9c" fill-opacity=".6" d="M47.6 148.1L19.2 34.3h2.4l21.8-14.6z"/><ellipse cx="223" cy="28" fill="#4e3c24" fill-opacity=".6" rx="3" ry="63"/><ellipse cx="165" cy="91" fill="#fff" fill-opacity=".3" rx="4" ry="42"/><path fill="#8f7a5a" fill-opacity=".6" d="M146 15l31-31-25 122z"/><circle r="1" fill="#411b00" fill-opacity=".5" transform="matrix(-18.01778 -10.52874 5.1865 -8.87563 186.1 46.8)"/><path fill="#42251b" fill-opacity=".5" d="M94 54h31v16H94z"/><circle r="1" fill="#ffedd2" fill-opacity=".2" transform="rotate(172.6 105.2 90.4) scale(25.76274 7.16086)"/><ellipse cx="149" cy="133" fill="#552300" fill-opacity=".5" rx="10" ry="5"/><ellipse cx="37" cy="134" fill="#804305" fill-opacity=".5" rx="5" ry="25"/><circle r="1" fill="#978771" fill-opacity=".8" transform="matrix(28.65377 -3.53292 3.84767 31.20657 255 73)"/><path fill="#533730" fill-opacity=".4" d="M192 98h60v20h-60z"/><path fill="#090200" fill-opacity=".5" d="M91.9 31.3l23.6 14.6-44.1-1.6 23.4-16.4z"/><path fill="#ae957b" fill-opacity=".6" d="M156 185l58-62-28-10z"/><path fill="#27180b" fill-opacity=".6" d="M211.2 157.3l21.3-11.8-23.8-14.7-.7 12.6z"/><path fill="#ffd0ae" fill-opacity=".5" d="M88 47h16v7H88z"/><path fill="#2e1801" fill-opacity=".5" d="M-6 164.6l18.9 3-1 5.8-18.8-3z"/><ellipse cx="112" cy="3" fill="#505554" fill-opacity=".5" rx="36" ry="35"/><path fill="#ffdfcd" fill-opacity=".3" d="M58.2 55.3l.2-18.1 28.9 29.6 23.6-4.9z"/><circle r="1" fill="#b1b7bc" fill-opacity=".6" transform="rotate(-114.2 12.3 19) scale(66.52562 22.18039)"/><ellipse cx="181" cy="9" fill="#8d7a5c" fill-opacity=".7" rx="35" ry="23"/><circle r="1" fill="#ecc9b5" fill-opacity=".5" transform="rotate(-55 211.8 -100) scale(32.67001 6.88408)"/><path fill="#040608" fill-opacity=".5" d="M40.2 47.8L47.1 33 63 24.6l11.6 6.6z"/><path fill="#bbc0c3" fill-opacity=".6" d="M62 85h2v32h-2z"/><ellipse cx="205" cy="21" fill="#483119" fill-opacity=".6" rx="2" ry="36"/><path fill="#c8c3c8" fill-opacity=".4" d="M127.6 71.4l1.2 11.9-25 28.6-1.6-17.8z"/><circle r="1" fill="#685754" fill-opacity=".8" transform="matrix(16.64398 -4.64708 3.45848 12.38688 235 106)"/><path fill="#c7bbb2" fill-opacity=".5" d="M50 138h40v10H50z"/><circle r="1" fill="#5c5155" fill-opacity=".5" transform="matrix(-2.81595 -21.10455 2.76086 -.36838 126.9 112.3)"/><path fill="#4d4339" fill-opacity=".4" d="M144.7 139.7l2-42.4 8.7 15.9-26.5 34.6z"/><path fill="#35383a" fill-opacity=".5" d="M73 132.8l-25.9 8.4.1-96.3 19.4 60z"/><ellipse cx="22" cy="156" fill="#ffedd1" fill-opacity=".4" rx="6" ry="24"/><path fill="#592c1a" fill-opacity=".4" d="M108.1 63.9l-6.4-37.7.6 50-3.3 35z"/><circle r="1" fill="#5f4d3d" fill-opacity=".5" transform="rotate(-16.8 515.2 55.8) scale(12.70108 1)"/><path fill="#b6d0d2" fill-opacity=".3" d="M56.5 55.3l6.2-19.9 12.7-4.1-.8 32.7z"/><path fill="#c7c7cb" fill-opacity=".6" d="M132 96h10v30h-10z"/><path fill="#dddad9" fill-opacity=".5" d="M184 162h30v8h-30z"/></g></svg>