<svg xmlns="http://www.w3.org/2000/svg" viewBox="0 0 300 199"><defs/><path fill="#406432" d="M0 0h300v199H0z"/><g transform="translate(.6 .6) scale(1.17188)"><circle r="1" fill="#f4d2de" fill-opacity=".7" transform="matrix(-93.72006 237.15301 -73.22398 -28.93725 39.4 43.3)"/><circle r="1" fill="#f8ebff" fill-opacity=".7" transform="matrix(8.38084 -.02526 .36241 120.24394 244.7 44.5)"/><circle r="1" fill="#ffecff" fill-opacity=".5" transform="matrix(15.24774 -3.83881 24.47118 97.19942 167.2 156.3)"/><ellipse cx="117" cy="123" fill="#101" fill-opacity=".7" rx="27" ry="52"/><circle r="1" fill="#ebe0db" fill-opacity=".7" transform="matrix(13.0201 -13.5351 12.6605 12.17877 176.7 23)"/><ellipse cx="243" cy="34" fill="#d3c9da" fill-opacity=".6" rx="24" ry="38"/><path fill="#1f0a00" fill-opacity=".6" d="M88 25L43 87l-3-27z"/><path fill="#d5d4d4" fill-opacity=".6" d="M134.4 44.6l17.8 45.8-44.9-29.1 23.8-68.8z"/><circle r="1" fill="#dcc2d4" fill-opacity=".4" transform="rotate(-30.7 354 -328.7) scale(9.83795 66.39002)"/><path fill="#d6c1ba" fill-opacity=".8" d="M0 79h84v91H0z"/><circle r="1" fill="#8f512b" fill-opacity=".4" transform="rotate(-82.7 77.4 -23.6) scale(33.02335 19.32432)"/><circle r="1" fill="#aba0a2" fill-opacity=".7" transform="matrix(29.45737 5.12654 -3.77362 21.68344 170.7 167.2)"/><circle r="1" fill="#e6f5fe" fill-opacity=".5" transform="rotate(154.8 4.4 26.6) scale(34.93874 23.5942)"/><circle r="1" fill="#cec5bb" fill-opacity=".6" transform="matrix(-4.70489 13.84508 -8.05035 -2.7357 196.6 83.7)"/><path fill-opacity=".3" d="M221 43.3l-34.7 37.3L163 58.7l34.8-37.3z"/><path fill-opacity=".5" d="M250 81h6v37h-6z"/><path fill="#eaeaf9" fill-opacity=".6" d="M250.7 107.3l3.6 50.9-7 .5-3.6-50.9z"/><path fill="#e8d9e2" fill-opacity=".5" d="M144 106h25v44h-25z"/><path fill="#c4aaa3" fill-opacity=".8" d="M48.3 169.7l74.4-133.5-26.2 62.7-4.6 31.4z"/><ellipse cx="164" cy="43" fill="#cec9cb" fill-opacity=".7" rx="5" ry="8"/><path fill="#1c2f0d" fill-opacity=".6" d="M238 80l-46-62 49 140z"/><circle r="1" fill="#dbac95" fill-opacity=".7" transform="matrix(-10.42267 -12.91696 23.14132 -18.67269 77 65.6)"/><circle r="1" fill="#8b8d91" fill-opacity=".6" transform="matrix(9.30369 -.92675 4.9353 49.54593 255 36.3)"/><path fill="#1b1016" fill-opacity=".7" d="M88.7 85.9l2.5-14.8 53.5 54.1-2.1-38.9z"/><path fill="#1b290d" fill-opacity=".5" d="M173.8 111.1l-6.2 4.4 23.3 36.6 40.6-10.4z"/><circle r="1" fill="#170015" fill-opacity=".5" transform="matrix(-26.86823 .76903 -1.40845 -49.20815 112.4 152.3)"/><path fill="#c8c7c9" d="M98.7-7.8L124.2 75l-1-46.5 21-8.8z"/><path fill="#bd988b" fill-opacity=".9" d="M83.5 134.8l1.7 31.9-63.4-38.3 4.6 36.1z"/><path fill="#fffefb" fill-opacity=".4" d="M25 114l80-34-31 45z"/><path fill="#0c2600" fill-opacity=".3" d="M137.5 70.8l-12.1-14.3L148.3-16l9.9 48.2z"/><path fill="#281b13" fill-opacity=".6" d="M55 45l36-16-52 43z"/><path fill="#cac9ce" fill-opacity=".6" d="M235.8 158.2l13.4 2.6-30.2 19 5.6-36.4z"/><path fill="#fbd6f7" fill-opacity=".2" d="M204.8 121.6l-12.8 63 39.4-75.1-77.8-1.7z"/><path fill="#c9c8c0" fill-opacity=".5" d="M154 8h41v18h-41z"/><ellipse cx="241" cy="46" fill="#fff" fill-opacity=".4" rx="6" ry="52"/><path fill="#324813" fill-opacity=".5" d="M188.1 98.4l-3.5 11.4-26.7-8.2 3.5-11.4z"/><path fill="#d9d6d4" fill-opacity=".6" d="M142.7 66.2L109 58.9 144.2 83l14.7-24.2z"/><path fill="#0b2806" fill-opacity=".7" d="M136-16l-4 27 83-15z"/><circle r="1" fill="#001400" fill-opacity=".5" transform="matrix(-2.98137 -3.33948 8.09032 -7.22275 205.4 98.8)"/><path fill="#62452a" fill-opacity=".4" d="M78.5 39.4l8.2-13.7 24.8 15-8.2 13.6z"/><path fill="#f7feff" fill-opacity=".5" d="M31 161h54v9H31z"/><ellipse cx="40" cy="9" fill="#778c8c" fill-opacity=".3" rx="70" ry="11"/><path fill="#d7dadd" fill-opacity=".7" d="M40 44L5 73l39 13z"/><path fill="#ffd3c1" fill-opacity=".4" d="M53.1 79L52 56l17-1 1 23z"/><path fill="#293d16" fill-opacity=".6" d="M178.4 82.6L236-12.1l-43.2 29.5-30.3 79.8z"/><path fill="#eee4ea" fill-opacity=".3" d="M205.3 15.6l22 30.2 8.4-61.8 10.5 47.9z"/><path fill="#1a380e" fill-opacity=".7" d="M171.5 140.9l8.6 7.2 21-25.5 8.6 13.9z"/><path fill-opacity=".6" d="M40 71.9l6.8-10 9.1 6.2-6.7 10z"/><path fill="#cbcac5" fill-opacity=".8" d="M140.3 65.8l4.7 50 29.3 5.9v13.6z"/><path fill="#130a11" fill-opacity=".5" d="M142 171l-69-30 48-23z"/><path fill="#6c7d87" fill-opacity=".6" d="M0 163h30v7H0z"/><path fill="#ced2c0" fill-opacity=".5" d="M184.7 34.8l-.3 10.2-26.7-14.7L194.2 1z"/><circle r="1" fill="#9d9894" fill-opacity=".6" transform="matrix(-6.7749 17.37932 -36.42627 -14.19987 178.8 169)"/><path fill="#20121c" fill-opacity=".7" d="M113.4 65l-7.3 13.7-9.5 26.2L144.7 89z"/><path fill="#061913" fill-opacity=".6" d="M257.7 185H219l52-40.6-21.3-59.7z"/><path fill="#ced3d5" fill-opacity=".5" d="M-14 24l84 17 6-23z"/><path fill="#852500" fill-opacity=".2" d="M41.7 97L21.2 84.4l49 6.9 12.1-25.5z"/><path fill="#e3d8cc" fill-opacity=".5" d="M107.1 73.8L139 41.3 86.2 73.8l20.3 5.5z"/><path fill="#6b3326" fill-opacity=".6" d="M28 141h15v5H28z"/><path fill="#bbb79c" fill-opacity=".3" d="M177.1 121l4.2-31.3-42.9-1.9 62.1-6.4z"/><path fill="#617b4e" d="M156.6 68l20.2-33.3-29.5 43.6 4.2 9.1z"/><path fill="#c9dcec" fill-opacity=".4" d="M-16 159l45 1-19-66z"/><path fill="#0e2111" fill-opacity=".5" d="M223.3 162.1l-5.9-14.7-16.3 5 10 15z"/><path fill="#b2adaa" fill-opacity=".3" d="M209.4 69.1L192.3 106l-3.1-55.1-12.3 8.5z"/><path fill="#0b2503" fill-opacity=".4" d="M231 52l-34-24-6 36z"/></g></svg>