<svg xmlns="http://www.w3.org/2000/svg" viewBox="0 0 300 199"><defs/><path fill="#53422f" d="M0 0h300v199H0z"/><g transform="translate(.6 .6) scale(1.17188)"><circle r="1" fill="#fef3d1" fill-opacity=".6" transform="matrix(-142.9365 -49.88078 31.93768 -91.51945 98.2 52)"/><ellipse cx="131" cy="111" fill="#403931" fill-opacity=".8" rx="22" ry="54"/><circle r="1" fill-opacity=".6" transform="rotate(-120.1 16.7 29) scale(12.52698 39.09623)"/><circle r="1" fill="#e9e3d2" fill-opacity=".5" transform="matrix(16.66247 -20.87272 53.5513 42.74943 204.9 100.7)"/><circle cx="134" cy="28" r="96" fill="#fffbd2" fill-opacity=".3"/><path fill="#1f1b17" fill-opacity=".8" d="M229.7 69.5l-.1-85.5L271-5.7v130.4z"/><path fill="#20170f" fill-opacity=".6" d="M117.6 61l30.2 4.8-36.1 75.9-1.3-61.3z"/><ellipse cx="84" cy="141" fill="#716650" fill-opacity=".7" rx="135" ry="20"/><circle r="1" fill="#dfccab" fill-opacity=".5" transform="rotate(-127.4 45.6 23.7) scale(35.51628 80.16308)"/><ellipse cx="130" cy="135" fill="#030100" fill-opacity=".8" rx="16" ry="10"/><ellipse cx="136" cy="108" fill="#fff" fill-opacity=".6" rx="7" ry="13"/><ellipse cx="41" cy="13" fill="#553000" fill-opacity=".4" rx="63" ry="4"/><path fill="#cbb68c" d="M180 0h47v57h-47z"/><path fill="#90683a" fill-opacity=".5" d="M168 105h88v23h-88z"/><path fill="#0c0c12" fill-opacity=".7" d="M141.9 85.2l10 2.2-2.3 50-6.6-36.1z"/><path fill="#fef3df" fill-opacity=".4" d="M147.2 81.2l-58.4 38.2 24.7-88.3-5.4 62.6z"/><circle r="1" fill="#cee2ff" fill-opacity=".6" transform="rotate(-165.3 125.4 53) scale(30.10057 4.58265)"/><path fill="#a27e4f" fill-opacity=".5" d="M0 69h17v52H0z"/><circle r="1" fill="#ede2c6" fill-opacity=".5" transform="rotate(123.9 68.2 57.9) scale(31.82755 22.43515)"/><path fill="#121518" fill-opacity=".5" d="M264.9 137.1L251.5 48l-6 75.6-25 1.8z"/><circle r="1" fill="#2a2519" fill-opacity=".7" transform="rotate(140.5 -23.4 79.5) scale(11.08628 43.58459)"/><path fill="#dfd4bc" fill-opacity=".4" d="M152 85h94v36h-94z"/><path fill="#f1f5ec" fill-opacity=".5" d="M56.7 58.7l35 .6-.4 28-35-.6z"/><ellipse cx="249" cy="169" fill="#030300" fill-opacity=".4" rx="253" ry="6"/><path fill-opacity=".5" d="M112 69h38v11h-38z"/><circle r="1" fill="#87755a" fill-opacity=".6" transform="matrix(-33.15212 -13.17183 6.31337 -15.89009 45.9 142.4)"/><path fill="#4e3d30" fill-opacity=".6" d="M13 123h183v3H13z"/><path fill="#bc8f5c" fill-opacity=".4" d="M36 34h18v55H36z"/><path fill="azure" fill-opacity=".2" d="M14 74l58 67-41-92z"/><path fill="#fffffe" fill-opacity=".5" d="M110.8 36l-1.6 23-16-1 1.6-23z"/><path fill="#b7c5c4" fill-opacity=".3" d="M150 129h84v16h-84z"/><path fill="#131211" fill-opacity=".6" d="M231 185l6-43 34 26z"/><ellipse cx="51" cy="1" fill="#f6faf4" fill-opacity=".4" rx="37" ry="5"/><path fill="#6d644c" fill-opacity=".5" d="M108 165l74-32 85 16z"/><path fill="#050100" fill-opacity=".4" d="M33.7 41.9l5.5-.5L14.9 34-7.9 85.4z"/><path fill="#474034" d="M244.6 84.2l10.1 9.5-23.8-14.2.8-14.4z"/><path fill="#d5caad" fill-opacity=".6" d="M176 59h55v31h-55z"/><path fill="#d0bb96" fill-opacity=".8" d="M92.9 58.4l-44.7 6.4-18.9-43.9 50.3-9z"/><ellipse cx="71" cy="134" fill="#a0a195" fill-opacity=".7" rx="20" ry="8"/><path fill="#fff" fill-opacity=".4" d="M132 99l-6 19 20 3z"/><path fill="#cac0a4" fill-opacity=".8" d="M-13 65l33-44-30-2z"/><circle cx="73" cy="104" r="19" fill="#dbc093" fill-opacity=".7"/><path fill="#e2d9bd" d="M111.3 70.9l-4.7-17.8L166 68.3l-21.1-32.1z"/><path fill="#191207" fill-opacity=".6" d="M145.3 76.2L142 63.3l-16-2.7-17.1 33z"/><path fill="#dddfd6" fill-opacity=".6" d="M154 92h91v11h-91z"/><path fill="#7d745b" fill-opacity=".5" d="M236 43h20v8h-20z"/><ellipse cx="94" cy="155" fill="#8b6e3d" fill-opacity=".2" rx="97" ry="13"/><path fill="#f8f4e6" fill-opacity=".5" d="M94 91h15v32H94z"/><path fill="#efe6e8" fill-opacity=".5" d="M124 118l16-33 1 28z"/><path fill="#ecf2ef" fill-opacity=".5" d="M36 91h16v26H36z"/><path fill="#0f0a0b" fill-opacity=".3" d="M110 100h16v37h-16z"/><ellipse cx="121" cy="20" fill="#dbc399" fill-opacity=".7" rx="30" ry="15"/><path fill="#c6a06f" fill-opacity=".5" d="M179 106h68v19h-68z"/><ellipse cx="185" cy="66" fill="#e3e2d5" fill-opacity=".5" rx="40" ry="8"/><path fill="#492b01" fill-opacity=".5" d="M0 12h49v5H0z"/><path fill="#79500d" fill-opacity=".2" d="M167.6 166.2L189 75.4l54.8 2.7-65.7 6.1z"/><path fill="#afe0f7" fill-opacity=".2" d="M17.8 152l12 5.6 2.8-26.1-21.8-16.6z"/><path fill="#c6ae7a" fill-opacity=".4" d="M182.8 29.8l-.6 31-35-.6.6-31z"/><ellipse cx="14" cy="10" fill="#ecd6b1" fill-opacity=".6" rx="38" ry="1"/><path fill="#282520" fill-opacity=".5" d="M145 79h7v56h-7z"/><circle r="1" fill="#523f2c" fill-opacity=".5" transform="matrix(-36.70073 -1.66657 .10978 -2.4175 65 145.9)"/><path fill="#ddd2b1" fill-opacity=".6" d="M57 13h16v48H57z"/><path fill="#c8b193" fill-opacity=".4" d="M128.8 95.3l-30.5 10.2 38.4-23.7 7.3 3.9z"/><path fill="#9e9c8b" fill-opacity=".4" d="M137 147l18-23 54 10z"/><path fill="#7192c9" fill-opacity=".4" d="M236 141l24-12 11 30z"/></g></svg>