<svg xmlns="http://www.w3.org/2000/svg" viewBox="0 0 300 199"><defs/><path fill="#5e3a35" d="M0 0h300v199H0z"/><g transform="translate(.6 .6) scale(1.17188)"><ellipse cx="66" cy="26" fill="#e1e4e3" fill-opacity=".9" rx="144" ry="44"/><circle r="1" fill="#8f8585" fill-opacity=".9" transform="rotate(-6.1 739 -1484) scale(99.14387 41.17566)"/><circle r="1" fill="#cccdc9" fill-opacity=".7" transform="matrix(-16.1291 51.39408 -30.03562 -9.42613 60.4 140.5)"/><ellipse cx="216" cy="147" fill="#000e14" fill-opacity=".8" rx="70" ry="45"/><circle r="1" fill="#190000" fill-opacity=".6" transform="matrix(-16.20553 4.22907 -8.81353 -33.77293 101 76)"/><circle r="1" fill="#fff" fill-opacity=".7" transform="matrix(114.09211 -28.69726 8.29478 32.9777 55 19.9)"/><circle r="1" fill="#1d0502" fill-opacity=".7" transform="matrix(11.05889 .34136 -.51974 16.83771 170.1 27.5)"/><circle r="1" fill="#f0ece9" fill-opacity=".7" transform="matrix(13.65401 -3.74525 13.84741 50.48335 152.9 58.2)"/><ellipse cx="130" cy="145" fill="#a1dffa" fill-opacity=".3" rx="19" ry="34"/><circle cx="222" cy="17" r="31" fill="#565662" fill-opacity=".7"/><ellipse cx="255" cy="71" fill="#afa9c1" fill-opacity=".5" rx="78" ry="26"/><circle r="1" fill="#7f6954" fill-opacity=".6" transform="matrix(-2.76035 22.48121 -64.77292 -7.95311 35.1 87.1)"/><path fill="#f1f3f8" fill-opacity=".4" d="M77 185l-53-14 25-99z"/><path fill-opacity=".5" d="M173 47h6v66h-6z"/><path fill="#f7f7f4" fill-opacity=".6" d="M154-3l-37 111 40-55z"/><path fill="#2a402a" fill-opacity=".8" d="M206.9 88.4L203 185l-14-89.6 4.2-11.3z"/><path fill="#1a0000" fill-opacity=".6" d="M115 33h16v21h-16z"/><circle r="1" fill="#0e0000" fill-opacity=".5" transform="matrix(-4.25692 -.79502 6.92885 -37.1003 226 47.7)"/><path fill="#cccfd3" fill-opacity=".6" d="M178 0h15v91h-15z"/><circle r="1" fill="#0c0c0d" fill-opacity=".4" transform="matrix(-26.29396 -17.87237 5.69238 -8.37467 94.3 156.3)"/><path fill="#683c2b" fill-opacity=".6" d="M-7.9 115.7L25.3 56l13.6 40.9L64 118.6z"/><path fill="#f8f9f9" fill-opacity=".8" d="M37 7h43v60H37z"/><ellipse cx="232" cy="6" fill="#88c2e7" fill-opacity=".3" rx="65" ry="11"/><ellipse cy="56" fill="#f2faf6" fill-opacity=".8" rx="9" ry="19"/><path fill="#0c0f15" fill-opacity=".9" d="M150.9 176.9l53.1-54.4-53.3-14-3.9 16.9z"/><ellipse cx="23" cy="132" fill="#21201f" fill-opacity=".7" rx="8" ry="27"/><path fill="#231102" fill-opacity=".7" d="M110.6 69.8l-4.8 22.5-28.4-6 4.8-22.6z"/><path fill="#f6f6f6" fill-opacity=".8" d="M98.4 42.9L117.1 55l-12.2-71L-16 16.5z"/><path fill="#4e5556" fill-opacity=".5" d="M144 185l6-126-24 51z"/><path fill="#38170d" fill-opacity=".6" d="M230.8 49.4l14.1-29.3-34.3-.7 7.5 34.4z"/><ellipse cx="3" cy="161" fill="#76948e" fill-opacity=".5" rx="5" ry="91"/><circle r="1" fill="#f2f6f4" fill-opacity=".6" transform="rotate(-6.2 482 -346) scale(7.19927 27.19313)"/><ellipse cx="168" cy="19" fill="#3d2a26" fill-opacity=".5" rx="12" ry="11"/><path fill="#2d1310" fill-opacity=".5" d="M49 67h21v13H49z"/><path fill="#d1f0ff" fill-opacity=".4" d="M244 87h12v15h-12z"/><path fill="#a19b9f" fill-opacity=".6" d="M108.4 134.8l14.7-12 10.8 23.2-10.8 39z"/><path fill="#c7bbb5" fill-opacity=".5" d="M172 119l-1-72-46 8z"/><path fill="#f6f6f6" fill-opacity=".9" d="M115.1 21.6l35 33.9 14-70.3L-16-2.9z"/><path fill="#fffaf3" fill-opacity=".6" d="M92.7 89.6L78 103.3l-2.8-3L90 86.8z"/><path fill="#d4d0eb" fill-opacity=".6" d="M201 50h19v17h-19z"/><path fill="#e5defe" fill-opacity=".4" d="M228.3 76.8l5.3-35.3 37.1 18.3-8.8-7.3z"/><path fill="#65371e" fill-opacity=".5" d="M70 116l13-45-24 39z"/><path fill="#0b421a" fill-opacity=".6" d="M9 65h24v11H9z"/><path fill="#dde1e0" fill-opacity=".4" d="M96.3 121.4l-1.1 9.4 3.2 17.8-29.5-42.2z"/><path fill="#050000" fill-opacity=".4" d="M172 61h7v81h-7z"/><path fill="#323b45" fill-opacity=".6" d="M68.4 167.3L94.3 185l-28.8-9.9-6.3-12z"/><circle r="1" fill="#f8f8f4" fill-opacity=".6" transform="matrix(.49834 15.85734 -9.87217 .31025 72.7 55.4)"/><path fill="#000913" fill-opacity=".7" d="M79.1 185l32-50.7-1.6-1.9-3.3 52.6z"/><path fill="#664c4f" fill-opacity=".8" d="M226.1 109.2l-11.5-2.5 20.5-18-.6 19.9z"/><path fill="#b8adac" fill-opacity=".6" d="M175.7 37.2l4.5 71.4 6.8 1.7L197.2 51z"/><path fill="#c3a59e" fill-opacity=".5" d="M46.1 80l24.6 8.5-8.8 25.5-24.6-8.5z"/><ellipse cx="226" cy="169" fill="#5a6167" fill-opacity=".5" rx="9" ry="17"/><path fill="#000019" fill-opacity=".3" d="M233.3 142.5l15.5-77.2L268.2 79 234 97.4z"/><path fill="#87444b" fill-opacity=".7" d="M258.7 52.5l-22-9.8 8.6-19.2 22 9.8z"/><path fill="#2f2424" fill-opacity=".9" d="M115.5 34.5l8.8-.4 12.6 11.8-4.6 4.1z"/><ellipse cx="32" cy="101" fill="#6f0001" fill-opacity=".5" rx="6" ry="23"/><path fill="#4b3836" fill-opacity=".8" d="M173.6 51.7l6.1-21.6-1.4-18.1-24.2 15.1z"/><path fill="#b7714b" fill-opacity=".6" d="M77 106l22 17-7-35z"/><path fill="#866e64" fill-opacity=".4" d="M104.5 138L90 166.5 69.5 156 84 127.5z"/><circle r="1" fill="#f2f9fd" fill-opacity=".4" transform="rotate(-164.1 26.8 81) scale(5.3261 50.68717)"/><path fill="#807f89" fill-opacity=".7" d="M225.9-16l-42 107.8 21.7-4.9-14.9-62.7z"/><path fill="#dee5ff" fill-opacity=".4" d="M19 96h7v7h-7z"/><path fill="#5f4f47" fill-opacity=".6" d="M91.9 159.4l62.4-83.7-33.8 36.1-4.5-43.9z"/><path fill="#d2d2d3" fill-opacity=".5" d="M145 74.7l-17.7 29-11.4 3.2 18.8-45.8z"/><ellipse cx="172" cy="169" fill="#4b4c53" fill-opacity=".5" rx="6" ry="27"/></g></svg>