<svg xmlns="http://www.w3.org/2000/svg" viewBox="0 0 299 449"><defs/><path fill="#293044" d="M0 0h299v449H0z"/><g transform="translate(.9 .9) scale(1.7539)"><circle cx="59" cy="140" r="178" fill="#cab692" fill-opacity=".6"/><circle r="1" fill="#000008" fill-opacity=".6" transform="matrix(40.15456 -4.01515 6.82975 68.30275 52.3 158.6)"/><circle r="1" fill="#d6cdc3" fill-opacity=".7" transform="rotate(-145 15.3 13) scale(86.74507 52.88595)"/><path fill="#2e0b00" fill-opacity=".5" d="M77.3 144.6L41.7 43.5l10.5-30L63.1 26z"/><circle r="1" fill="#060c0d" fill-opacity=".7" transform="matrix(-11.8902 2.4412 -3.43932 -16.75165 135.6 115.4)"/><circle r="1" fill="#c2bfb7" fill-opacity=".6" transform="matrix(24.5044 -4.14926 5.18511 30.62183 111.3 146.7)"/><circle r="1" fill="#dfe0da" fill-opacity=".7" transform="matrix(27.01513 6.18729 -10.60289 46.29465 13.2 61.2)"/><ellipse cy="212" fill="#ffeccc" fill-opacity=".4" rx="20" ry="72"/><ellipse cx="124" cy="81" fill="#d3c4a9" fill-opacity=".5" rx="61" ry="21"/><path fill="#4a453f" d="M19.6 193l30.6 44.5 24.9 15.1L87 232.7z"/><circle r="1" fill="#c1b998" fill-opacity=".6" transform="rotate(-88.2 75.9 -59) scale(25.63433 34.37592)"/><ellipse cx="75" cy="126" fill="#050207" fill-opacity=".6" rx="13" ry="33"/><path fill="#480e00" fill-opacity=".6" d="M110 44h61v15h-61z"/><path fill="#aaa9a0" fill-opacity=".6" d="M70 219l54-11-3-53z"/><path fill="#0d0f16" fill-opacity=".6" d="M47 236l20-109 33 54z"/><path fill-opacity=".3" d="M60 158L45 86l-61 42z"/><ellipse cx="155" cy="133" fill="#bbb596" fill-opacity=".6" rx="9" ry="55"/><path fill="#b3a793" fill-opacity=".5" d="M45.6 214.1l8.1 56.9-39.4-12.6 16.3-55.9z"/><circle r="1" fill="#f5baab" fill-opacity=".5" transform="matrix(-1.08634 2.74379 -11.3545 -4.49557 41.8 157.8)"/><path fill="#8f5d46" fill-opacity=".7" d="M101.4 57.9l-6.9 69.2L113 84.9l-.9-34.2z"/><path fill="#4d1902" fill-opacity=".5" d="M88.8 47.5L84.9 6l14.9 8.7-1.2 17.8z"/><path fill="#4d442a" fill-opacity=".4" d="M64 250.6l-5-13 167-64.2 5 13z"/><path fill="#3f2e25" fill-opacity=".9" d="M25.4 209.1l58.5-35L18 202l6 34.2z"/><path fill="#2b292e" d="M7.5 129.9l5.8 43.3 65 31.3-68.4-73.3z"/><path fill="#f2c1b0" fill-opacity=".2" d="M68.8 91L35.4 24.4l13.4 84.4L127 87.9z"/><path fill="#f7f5f1" fill-opacity=".3" d="M63 50.9l68.9-22.2-73.8 72.9 12-27.2z"/><circle r="1" fill="#bbbbb9" fill-opacity=".5" transform="matrix(-12.96842 -5.75588 9.85848 -22.21188 100.7 146.1)"/><path fill-opacity=".4" d="M137 108l-4 36-15-46z"/><path fill="ivory" fill-opacity=".5" d="M4 144h6v41H4z"/><path fill="#5f2817" fill-opacity=".5" d="M52.1 97.5l12-35 5.8 2-12 35z"/><path fill="#a09a87" fill-opacity=".7" d="M145 198l-55-34 69-25z"/><path fill="#d4b799" fill-opacity=".7" d="M-15 175.2l17.2 4.7 19.9-6.1-2.7 32.6z"/><path fill="#584c3f" fill-opacity=".6" d="M45 20h17v41H45z"/><circle r="1" fill="#d2d2c5" fill-opacity=".5" transform="rotate(-107.2 31.9 -23.5) scale(14.04975 95.67746)"/><path fill="#f5efe6" fill-opacity=".3" d="M53.8 80.7l-1.1 40.1-14.5-56.3 11.7-7.8z"/><path fill="#cdcbbd" fill-opacity=".4" d="M126 62.9l10.7 5.2-34.6 71-10.8-5.2z"/><path fill="#695232" fill-opacity=".6" d="M136 142l41-18 7 20z"/><path fill="#1d1d21" d="M29.6 164.8l71.5 10.6-31 44.1 3.1 26z"/><path fill="#b4b6b8" fill-opacity=".6" d="M109.4 211.5L87 196l-8.1 9.5 3.6 15.5z"/><ellipse cx="20" cy="85" fill="#dcdbd4" fill-opacity=".6" rx="27" ry="10"/><path fill="#fffff7" fill-opacity=".3" d="M161.4 96.3l-16.2 12.4.2 14.3 6.2 14.6z"/><path fill="#b3ab8e" fill-opacity=".5" d="M99 24h72v21H99z"/><path fill="#080d09" fill-opacity=".5" d="M148 132l-32-35 15 37z"/><path fill="#191115" fill-opacity=".4" d="M100.7 116.6l-40 23.7 2.9-54.8 1.5 6.7z"/><path fill="#745335" d="M2.6 141.3L-16 102.7l21.2 7.1 17.6-6.3z"/><circle cx="59" cy="163" r="4" fill="#d4bdb2" fill-opacity=".5"/><path fill="#b7a690" fill-opacity=".5" d="M26 206h22v11H26z"/><path fill="#eef" fill-opacity=".3" d="M47.2 156.5l-15.9 9.4 1.9 9 1.1-27.4z"/><path fill="#a19283" fill-opacity=".8" d="M85.7 69l11-14.3L108.2 95l-12.8-8.9z"/><path fill="#c5c0b6" fill-opacity=".6" d="M65.7 83.4l-6.5 33.4-1-.2 6.6-33.4z"/><path fill="#a07954" fill-opacity=".4" d="M73.5 46l.2-61.7L89.1 22 39.6 57.2z"/><path fill="#b0a797" fill-opacity=".7" d="M-6 262l109 9L0 218z"/><path fill="#e5e8ea" fill-opacity=".5" d="M80 93l8-54-24 13z"/><path fill="#9c937c" d="M159.1 137.4l-21.9 11.9 1.4 41.5 34.6-71.6z"/><path fill-opacity=".5" d="M96 14.2l-16 .6v-5l16-.6z"/><path fill="#13171f" fill-opacity=".9" d="M31.4 96L47 92.4l-1.2 56.9-13.4-4.1z"/><path fill="#8f531d" fill-opacity=".4" d="M20.5 177.8l3.2-4.1 15.5 23.7-20 4.8z"/><path fill="#220900" fill-opacity=".2" d="M6.7 206.5l68.5 31.3-54.1-8.4-8.2-45.2z"/><path fill="#cac7b1" fill-opacity=".5" d="M112 88h40v13h-40z"/><ellipse cx="59" cy="120" fill="#d5d7c6" fill-opacity=".2" rx="2" ry="29"/><path fill="#d3d1c9" fill-opacity=".8" d="M-7.1 112.1L40 4.3l5.3 35.2-2.4 48.4z"/><circle r="1" fill="#744821" fill-opacity=".4" transform="rotate(106.3 -39.1 117.6) scale(7.30157 11.22952)"/><ellipse cx="170" fill="#766e51" fill-opacity=".7" rx="62" ry="3"/><circle cx="167" cy="221" r="37" fill="#684900" fill-opacity=".1"/><path fill="#784a37" fill-opacity=".9" d="M66.8 46.2l-23 3.7 14.1 13.5 2.1 33z"/></g></svg>