<svg xmlns="http://www.w3.org/2000/svg" viewBox="0 0 300 199"><defs/><path fill="#53342e" d="M0 0h300v199H0z"/><g transform="translate(.6 .6) scale(1.17188)"><circle r="1" fill="#bab3ac" fill-opacity=".6" transform="matrix(61.88046 -247.37787 131.68913 32.94144 174.7 16.7)"/><circle r="1" fill="#583024" fill-opacity=".7" transform="matrix(24.35045 -26.62283 35.81238 32.75564 65.6 77.7)"/><ellipse cx="48" cy="16" fill="#d4bab4" fill-opacity=".7" rx="43" ry="17"/><path fill="#e4faff" fill-opacity=".4" d="M112 185l-57-81-61 51z"/><ellipse cx="120" cy="18" fill="#d9dad2" fill-opacity=".6" rx="18" ry="85"/><circle r="1" fill="#dbeef0" fill-opacity=".5" transform="matrix(32.82016 -6.14213 12.8724 68.78303 255.1 38.4)"/><circle r="1" fill="#e2eeff" fill-opacity=".4" transform="matrix(45.70143 1.24261 -.6973 25.64582 235 147.7)"/><circle r="1" fill="#450f02" fill-opacity=".6" transform="rotate(-154.8 79.5 56) scale(11.17049 33.22634)"/><circle r="1" fill="#45261d" fill-opacity=".6" transform="matrix(-7.13431 -21.57217 17.52701 -5.7965 222.4 94.7)"/><path fill="#784532" fill-opacity=".9" d="M5.7 86.4l39.4 7-8.8 50.2-39.4-7z"/><path fill="#34150d" fill-opacity=".6" d="M166 139h20v31h-20z"/><ellipse cx="160" cy="19" fill="#484c59" fill-opacity=".5" rx="13" ry="97"/><path fill="#1d150e" fill-opacity=".6" d="M69 31l28 11-37 68z"/><ellipse cx="187" cy="72" fill="#f8e5e1" fill-opacity=".5" rx="16" ry="15"/><path fill="#b18d7b" fill-opacity=".8" d="M98.4 44.8l15.9 6.1-14.7 38.3L83.7 83z"/><circle r="1" fill="#00000a" fill-opacity=".4" transform="matrix(-21.8073 9.93816 -3.43697 -7.54173 195.4 108)"/><circle r="1" fill="#393139" fill-opacity=".4" transform="rotate(-97.4 105.8 -84.7) scale(87.67149 10.65946)"/><path fill="#2b1604" fill-opacity=".6" d="M118.9 113.8l-12.5 3-19.7-30 30.8 10.3z"/><path fill="#fff2ff" fill-opacity=".4" d="M179.8 39.3l-16-55.3 30.1 41.7-8.7 24.5z"/><path fill="#d0cdc2" fill-opacity=".6" d="M119 47h21v67h-21z"/><path fill="#4d351c" fill-opacity=".5" d="M144.6 122.8l-9.1-15.9-35.8 29.8 50.2 22.9z"/><path fill="#392618" fill-opacity=".6" d="M65 53h16v79H65z"/><path fill="#c9a193" fill-opacity=".7" d="M18-9l28 78 5-85z"/><path fill="#cea18c" fill-opacity=".5" d="M220.4 78.9l11.8 1.9-8.6 54.3-11.8-1.9z"/><path fill-opacity=".5" d="M19 158h18v12H19z"/><path fill="#1e0502" fill-opacity=".6" d="M244.9 126l-15-24.9 5.2-3 15 24.8z"/><path fill="#bdc4cb" fill-opacity=".5" d="M84.6 153.6l-121.3 12.7-2-17.9 121.4-12.7z"/><path fill="#896254" fill-opacity=".5" d="M215 155h27v15h-27z"/><path fill="#1f0f0a" fill-opacity=".6" d="M182.9 150.1l-20.1-10.3-16 18.6 42.1-22.4z"/><path fill="#463533" fill-opacity=".8" d="M190.4 185l12.3-27-20.6 6.3-34.5 6.7z"/><path fill="#e4e6f0" fill-opacity=".4" d="M46.9 108.4l16.2-11.5L47.2 154l-7.3-33.6z"/><path fill="#cfbd9f" fill-opacity=".5" d="M104.3 135.1L80 125.8l5.7-15 24.3 9.4z"/><path fill="#7f554f" fill-opacity=".4" d="M99.5-16l2.5 28.3-23-1.7L1.5 2.2z"/><path fill="#c9ced5" fill-opacity=".5" d="M271 150.3l-79.5-30.4 25.2-4.6-34.6 39.4z"/><path fill="#af978b" fill-opacity=".8" d="M88 185l32.6-38.2-10.7-9.2-33 23.5z"/><ellipse cx="61" cy="21" fill="#c7c8c6" fill-opacity=".6" rx="33" ry="11"/><path fill="#c8cfcf" fill-opacity=".5" d="M268 96l-27-3 15 50z"/><circle r="1" fill="#876b51" fill-opacity=".7" transform="matrix(.84753 -8.96598 36.40757 3.44153 157 119.5)"/><path fill="#472624" fill-opacity=".5" d="M41.3 68.9l70 47.3L-16 59.8l53.4-28.7z"/><ellipse cx="166" cy="132" fill="#fcfff1" fill-opacity=".3" rx="18" ry="5"/><path fill="#845f60" fill-opacity=".7" d="M61.2 25.1L48.3 67.2l2 23.4 23.1-58.2z"/><path fill="#0c0000" fill-opacity=".5" d="M208 80h8v28h-8z"/><circle r="1" fill="#957b42" fill-opacity=".4" transform="matrix(5.52527 -.22192 3.02948 75.42745 144.4 55.5)"/><path fill="#b4a9ad" fill-opacity=".3" d="M210 41l-21 38 12 49z"/><path fill="#2f1e1b" fill-opacity=".9" d="M223.5 110.1l17.8 1.4-2.9-21-15.1 21z"/><path fill="#dcac90" fill-opacity=".4" d="M99 70l-10 30-4-38z"/><path fill="#b48475" fill-opacity=".5" d="M148 152h28v14h-28z"/><path fill="#030300" fill-opacity=".3" d="M212.5 109.7l-27-5.6-4.8 34.8 45-75.5z"/><ellipse cx="226" cy="49" fill="#cececa" fill-opacity=".6" rx="5" ry="24"/><path fill="#12080c" fill-opacity=".3" d="M126.9 121l39.9 32.9-7.8-14.2-40.9 9.9z"/><path fill="#3b2d24" fill-opacity=".6" d="M52.5 86.8l49.2-47.3 6.8 22L89 33.2z"/><circle cx="189" cy="157" r="6" fill="#bfcadc" fill-opacity=".6"/><ellipse cx="20" cy="139" fill="#0e2216" fill-opacity=".4" rx="19" ry="3"/><path fill="#65422c" fill-opacity=".5" d="M64.2 139.5l4.6-39.8 26.8 43.5-19.8-16.5z"/><path fill="#dee8f8" fill-opacity=".4" d="M83 135l-29 38 20 12z"/><path fill="#482932" fill-opacity=".5" d="M-31 69.5l50.4-98.9L31-23.5l-50.4 98.9z"/><ellipse cx="158" cy="11" fill="#3c4755" fill-opacity=".5" rx="10" ry="23"/><circle r="1" fill="#783321" fill-opacity=".5" transform="matrix(15.4571 10.89656 -14.44266 20.48735 33.7 94)"/><path fill="#5b5c67" fill-opacity=".8" d="M154.1 113.4l17.7 3 2.5-28.1 8.8 29.2z"/><ellipse cx="45" cy="169" fill="#c8ccd6" fill-opacity=".5" rx="9" ry="61"/><path fill="#9a7c6d" fill-opacity=".5" d="M170.7 81.3L141 72.8l6.4-22.1 29.8 8.5z"/><ellipse cx="184" cy="14" fill="#deccce" fill-opacity=".4" rx="4" ry="50"/><path fill="#2e211e" fill-opacity=".8" d="M33.5 159.6L41 185l-57-16.4 36.1-8.8z"/><path fill="#c4c0b9" fill-opacity=".7" d="M101 36l38 8-1 64z"/><ellipse cx="208" cy="169" fill="#c8cbd5" fill-opacity=".5" rx="6" ry="56"/></g></svg>