<svg xmlns="http://www.w3.org/2000/svg" viewBox="0 0 300 199"><defs/><path fill="#3c4444" d="M0 0h300v199H0z"/><g transform="translate(.6 .6) scale(1.17188)"><circle cx="98" cy="104" r="170" fill="#030000" fill-opacity=".7"/><circle r="1" fill="#ecebeb" fill-opacity=".5" transform="matrix(13.03936 26.16149 -17.77217 8.85797 68.6 54)"/><ellipse cx="212" cy="71" fill="#c4c3c3" fill-opacity=".7" rx="3" ry="79"/><path fill="#fff" fill-opacity=".8" d="M268.9 51.5l-9.7 2.6-18-67.6 9.6-2.6z"/><path fill="#a4a3a3" fill-opacity=".7" d="M71 138l-18 28 26 19z"/><ellipse cx="65" cy="59" fill="#fff" fill-opacity=".6" rx="5" ry="29"/><path fill="#fff" fill-opacity=".5" d="M119 41h40v4h-40z"/><ellipse cx="25" cy="71" fill-opacity=".6" rx="26" ry="169"/><path fill="#cecece" fill-opacity=".8" d="M51.7 61.5l26.7-19.9-8.7-6.8L52.4 29z"/><path fill-opacity=".6" d="M70 58h9v56h-9z"/><path fill="#767575" fill-opacity=".5" d="M160 80h28v23h-28z"/><circle r="1" fill="#050505" fill-opacity=".9" transform="matrix(-23.74755 -39.25322 33.2203 -20.09773 122.6 118)"/><ellipse cx="86" cy="10" fill-opacity=".4" rx="161" ry="22"/><ellipse cx="58" cy="69" fill-opacity=".6" rx="4" ry="14"/><ellipse cx="193" cy="69" fill-opacity=".5" rx="18" ry="169"/><ellipse cx="232" cy="116" fill-opacity=".7" rx="16" ry="169"/><path fill="#585757" fill-opacity=".5" d="M83 185l-23-76 29 21z"/><path fill="#dad9d9" fill-opacity=".5" d="M87 87l-11 8 8-31z"/><circle r="1" fill="#dfdddd" fill-opacity=".3" transform="rotate(-133.8 102.6 56.1) scale(12.0211 7.89641)"/><ellipse cx="105" cy="55" fill="#151515" fill-opacity=".6" rx="21" ry="36"/><ellipse cx="213" cy="70" fill="#aeaeae" fill-opacity=".5" rx="3" ry="75"/><circle r="1" fill="#6a6a6a" fill-opacity=".5" transform="matrix(-.50921 -43.16956 1.96423 -.02317 185.9 120.6)"/><path fill="#d7d7d7" fill-opacity=".5" d="M46 33l25 6-26 4z"/><path fill="#010101" fill-opacity=".7" d="M209.4 52.8L134.7 60l54.7-49.6 3.7 172.4z"/><path fill="#454545" fill-opacity=".8" d="M39.4 34l56-16-30.7.9 25.4 6.9z"/><path fill="#fff" fill-opacity=".5" d="M62 63h8v23h-8z"/><path fill="#484848" fill-opacity=".7" d="M50 153l19-10-20 42z"/><path fill="#c9c9c9" fill-opacity=".5" d="M67 114l7 7.2-5 4.8-7-7.2z"/><path fill-opacity=".5" d="M47 124h32v17H47z"/><path fill="#a6a6a6" fill-opacity=".8" d="M86.9 81.7l-3.5-41.2v-5.1L76.1 60z"/><path fill="#010000" fill-opacity=".5" d="M202.6 105.6l46.2 15.6L207.4 48l61.1 137z"/><path fill="#0e0e0e" fill-opacity=".3" d="M70.4 80l4.5-44.3 8.9 61.5-5.7 75.3z"/><path fill-opacity=".5" d="M114 47h35v60h-35z"/><circle r="1" fill-opacity=".5" transform="matrix(3.84075 -6.59989 2.6209 1.52521 58.7 62.7)"/><path fill="#afacac" fill-opacity=".1" d="M188.5 78v62h-29V78z"/><path fill="#e2e3e3" fill-opacity=".4" d="M65 149h7v21h-7z"/><path fill="#424242" fill-opacity=".5" d="M113 19h51v8h-51z"/><ellipse cx="46" cy="72" fill="#474747" fill-opacity=".5" rx="7" ry="12"/><path fill="#626262" fill-opacity=".3" d="M124.3 116l2.5-5.5-12.8 42.6-8.4-28z"/><path fill="#050505" fill-opacity=".6" d="M77.4 32L13-16h-24.9l78.1 49.2z"/><path fill="#303030" fill-opacity=".6" d="M108 14L86 71l28-2z"/><path fill="#cbcaca" fill-opacity=".2" d="M47.9 43.7l37.5 18.8L82.6 34l-36-6.2z"/><ellipse cx="129" cy="5" fill-opacity=".5" rx="86" ry="13"/><path fill="#3d3d3d" fill-opacity=".6" d="M156 41l-9 13 9 31z"/><path fill="#e6e6e6" fill-opacity=".5" d="M211 71h5v17h-5z"/><path fill="#fff" fill-opacity=".4" d="M124 41h24v5h-24z"/><path fill-opacity=".5" d="M175 76h3v75h-3z"/><path fill="#ababab" fill-opacity=".3" d="M236-16h-35l5 24z"/><path fill="#cbcaca" fill-opacity=".5" d="M61 64h4v26h-4z"/><path fill="#050505" fill-opacity=".6" d="M132.7 101.8L178.1-2.1 87.6 165.6l35-137.8z"/><path fill="#282828" fill-opacity=".4" d="M-11.3 79.3L.6 71.6l25.6 19.5-5.7 21.9z"/><path fill="#010101" fill-opacity=".6" d="M35.3 78.4L-16 170.8l60.7 2.7L66.9 96z"/><path fill="#020202" fill-opacity=".5" d="M124 45h26v48h-26z"/><circle r="1" fill="#f7f6f6" fill-opacity=".5" transform="matrix(-8.61291 -11.65291 4.85872 -3.59118 255 12.6)"/><path fill-opacity=".5" d="M87 76h20v89H87z"/><path fill="#818181" fill-opacity=".5" d="M82 127h4v34h-4z"/><path fill="#c7c7c7" fill-opacity=".6" d="M63.7 28.4l7.8 39.4-18.1-38.1 6.2.7z"/><path fill="#9c9b9b" fill-opacity=".4" d="M214 161l-3 24h-10z"/><path fill-opacity=".5" d="M0 45h51v22H0z"/><path fill-opacity=".4" d="M184.7 172.9l-.1-42.4 20.8 13.8 29 5.8z"/><ellipse cx="83" cy="82" fill="#fff" fill-opacity=".3" rx="3" ry="6"/><ellipse cx="73" cy="82" fill="#0b0b0b" fill-opacity=".5" rx="4" ry="27"/><path fill="#040404" fill-opacity=".6" d="M86.9-16L29.8 28.8l48.9 1.8-15.8 3z"/><path fill="#fff" fill-opacity=".5" d="M67.5 19.7v-1l25-.4v1z"/><path fill="#f0f0f0" fill-opacity=".5" d="M52 44h4v20h-4z"/></g></svg>