<svg xmlns="http://www.w3.org/2000/svg" viewBox="0 0 300 199"><defs/><path fill="#305062" d="M0 0h300v199H0z"/><g transform="translate(.6 .6) scale(1.17188)"><circle r="1" fill="#98430d" fill-opacity=".5" transform="matrix(-164.41945 14.29218 -14.89766 -171.38492 141 76.6)"/><circle r="1" fill="#fff" fill-opacity=".7" transform="rotate(-27 78 -218) scale(14.30643 31.98957)"/><circle r="1" fill="#d5dfda" fill-opacity=".6" transform="matrix(11.56723 37.05515 -17.79008 5.5534 53.6 35.5)"/><circle r="1" fill="#aeb1b6" fill-opacity=".7" transform="matrix(-32.82516 12.0048 -8.66717 -23.69894 56.7 114)"/><path fill="#e6f3fd" fill-opacity=".8" d="M60 158l-76-7 34 34z"/><ellipse cx="1" cy="26" fill="#270c00" fill-opacity=".8" rx="29" ry="128"/><circle cx="221" cy="169" r="114" fill="#4f1c01" fill-opacity=".6"/><circle r="1" fill="#5ccbd6" fill-opacity=".5" transform="rotate(143.5 54.7 57.2) scale(11.62822 28.45422)"/><circle r="1" fill="#280200" fill-opacity=".6" transform="rotate(59.7 18.6 87.5) scale(68.42759 11.5735)"/><path fill="#e9fdfa" fill-opacity=".6" d="M142.7-16l15.9 38.3L187.1-16 137.1.6z"/><circle r="1" fill="#431a03" fill-opacity=".7" transform="rotate(-70 140.8 28.6) scale(10.75492 77.00041)"/><ellipse cx="255" cy="42" fill="#4d270e" fill-opacity=".8" rx="43" ry="55"/><path fill="#e7d6c2" fill-opacity=".7" d="M187 72.5l-5-3.5 23-31.5 4.8 3.5z"/><path fill="#a0a2a4" fill-opacity=".8" d="M114.6 42l28.6-38.8-11.3 30 16 10.1z"/><path fill="#faffff" fill-opacity=".4" d="M50.1 126.8l-13.2 4.4-15-2.1 3.4-41.3z"/><circle r="1" fill="#2e4163" fill-opacity=".5" transform="matrix(-5.27874 -32.75262 16.39282 -2.64203 51.2 92.8)"/><path fill="#ebf0f0" fill-opacity=".6" d="M108.4 124.3l.4-16.7L93 137.1l21.1-15z"/><path fill="#f7f3f2" fill-opacity=".6" d="M178.2 39.1l-8 3.6-.8 20.7 14.7-18.6z"/><path fill="#effaff" fill-opacity=".5" d="M61 106h15v32H61z"/><path fill="#491800" fill-opacity=".6" d="M110.5 63.7l15.2 7.7-42.2 82.9-15.2-7.7z"/><path fill="#f1f1ee" fill-opacity=".7" d="M198 0l-1 19-8-4z"/><circle r="1" fill="#cfd5d3" fill-opacity=".5" transform="matrix(-7.75407 25.86253 -6.9425 -2.0815 40.8 32.1)"/><path fill="#331200" fill-opacity=".6" d="M149.8 72.1L177 36.5l21 7.1L178.1-16z"/><path fill="#d5d9ba" fill-opacity=".5" d="M85.5 60.9l-8.5-4 17.5 8.2-33.6 18.3z"/><path fill="#6a2f27" fill-opacity=".8" d="M72.6 67.7L60.4 49.3l28.1 2.2 28-24.8z"/><path fill="#ffe8cc" fill-opacity=".4" d="M111 96.7l28.6-23.5 3.7 9.2-25.1 16.1z"/><path fill="#cce4db" fill-opacity=".5" d="M49 46l25 49-11-63z"/><path fill="#003635" fill-opacity=".4" d="M72 85L44 53l24 54z"/><path fill="#f6fdee" fill-opacity=".5" d="M213.1 17.3l21.6-25.6L271-16l-47.1 8.1z"/><circle r="1" fill="#04424a" fill-opacity=".6" transform="matrix(20.46087 -18.96991 4.31833 4.65774 129.5 103.2)"/><ellipse cx="106" cy="4" fill="#edfafa" fill-opacity=".7" rx="13" ry="24"/><path fill="#000026" fill-opacity=".5" d="M118.9 3.9L130.5.8 135 18l-11.6 3.1z"/><path fill="#2f1303" fill-opacity=".8" d="M-16 124l99 30-99-3z"/><path fill="#cfb79f" fill-opacity=".6" d="M80.5 92.4l-16.9 53 29.6-46.1-8.4-13.6z"/><path fill="#020708" fill-opacity=".6" d="M98.2 89l-1.6-.5.4-18-31.9 14.2z"/><path fill="#c9cacd" fill-opacity=".8" d="M30.8 41.3L46.4-16l22 43.5L46 2.9z"/><path fill="#2e1607" fill-opacity=".8" d="M-16-16l53.2 1.4L33.4 30-16 48.5z"/><path fill="#503200" fill-opacity=".2" d="M56.5 78.8L-9.3 57.5l95-31-35.5-12.1z"/><path fill="#60555d" d="M62.6 148.2L31.4 89.3l32.4-.2L41 53.5z"/><path fill="#dda557" fill-opacity=".7" d="M107.2 43.5l-4.8-13.2 10.4-3.8 4.8 13.2z"/><path fill="#915d39" fill-opacity=".6" d="M197.2 60l-27.3 43.2 69.7-93.3-27.9 17.3z"/><path fill="#361500" fill-opacity=".6" d="M167 37l-5 42-22-34z"/><path fill="#b7d0cf" fill-opacity=".3" d="M168.9 5.5L97.7 31.6l50.1-11.7 2.1 25.7z"/><circle r="1" fill="#47200d" fill-opacity=".7" transform="rotate(-16.5 622.3 -255.8) scale(45.371 24.2957)"/><path fill="#004b61" fill-opacity=".6" d="M118.2 45.5l5.1-7.4 20.5 14.4-5.1 7.4z"/><path fill="#c2c6c9" fill-opacity=".6" d="M37.4 155.5l30.5 1.9-79.8 19.5-1.7-25.5z"/><path fill="#572001" fill-opacity=".5" d="M217 21l-48 60 42-97z"/><path fill="#a47858" fill-opacity=".7" d="M143.4 61.8l6.6 37.8 4.7-10.8-4.5-30.1z"/><path fill="#8988a6" fill-opacity=".7" d="M65.1 105L54.5 82.7l-4 30.1 15.7 4.1z"/><path fill="#19130d" fill-opacity=".5" d="M32.3 58l20.7-.1-39.3 34.4 15.7-9.5z"/><path fill="#a7693f" fill-opacity=".4" d="M72 140l-56-17 15 18z"/><path fill="#c7cccf" fill-opacity=".3" d="M27.3 62.1L38.5-3.1l9.7 35.4 30.9 8z"/><path fill="#dcfff2" fill-opacity=".2" d="M102 135.5l27.8-59.3-17.3-17.1 15.7 3.7z"/><path fill="#002231" fill-opacity=".4" d="M153.3 1.4l-8.2 40.2-2.1-22.2-6.1-33.8z"/><path fill="#e6eaed" fill-opacity=".4" d="M38 102l-13 20 27 10z"/><path fill="#84b2e8" fill-opacity=".4" d="M130 24.1l6.8-14.5L146 14l-6.7 14.5z"/><path fill="#3a1b00" fill-opacity=".6" d="M64.1-27.1l10.1-4.3L106 43l-10.1 4.3z"/><path fill="#0995a8" fill-opacity=".5" d="M112 45l29 12 3 22z"/><path fill="#d1dcdc" fill-opacity=".6" d="M187.1 19l2.5-5.4L197 17l-2.5 5.4z"/><path fill="#6a6b72" fill-opacity=".9" d="M31.1 78.5l4.9 22-12.9-7 27.6-24.2z"/><path fill="#492c16" fill-opacity=".5" d="M126 84h14v16h-14z"/><path fill="#e0fffa" fill-opacity=".2" d="M242.2 3.7l-24.3 33.9 19.5-32.2.8.3z"/><path fill="#004243" fill-opacity=".5" d="M118 111l-9 14 5-36z"/><ellipse cx="71" cy="124" fill="#dadcdf" fill-opacity=".5" rx="6" ry="16"/><path fill="#301808" fill-opacity=".5" d="M217 15l-2 33 21-56z"/></g></svg>