<svg xmlns="http://www.w3.org/2000/svg" viewBox="0 0 300 199"><defs/><path fill="#28344b" d="M0 0h300v199H0z"/><g transform="translate(.6 .6) scale(1.17188)"><circle r="1" fill="#998570" fill-opacity=".6" transform="rotate(173 28.5 51.1) scale(136.4934 81.56577)"/><circle r="1" fill="#c5cff3" fill-opacity=".6" transform="matrix(-7.09686 20.18635 -76.36927 -26.84892 14.8 159)"/><circle r="1" fill="#1c0605" fill-opacity=".6" transform="matrix(9.76674 -22.24926 34.45177 15.12327 32.1 110.6)"/><circle r="1" fill="#eee0e7" fill-opacity=".4" transform="matrix(-9.39487 -26.64967 21.96178 -7.74224 104.6 99.2)"/><circle r="1" fill="#dcd3e2" fill-opacity=".6" transform="rotate(122.3 71 72.2) scale(22.01827 14.41429)"/><circle r="1" fill="#070a13" fill-opacity=".6" transform="matrix(39.10727 -2.277 3.40377 58.45956 228.3 156.2)"/><circle cx="233" cy="27" r="56" fill="#755c36" fill-opacity=".4"/><path fill="#000017" fill-opacity=".6" d="M127.2 99.4l-3.5-17.7 47.1-9.1 3.5 17.7z"/><circle r="1" fill="#786848" fill-opacity=".5" transform="rotate(52.4 -78 231.8) scale(63.85939 33.57035)"/><path fill="#fbfcff" fill-opacity=".6" d="M82 70l24 32v35z"/><circle cx="78" r="63" fill="#525747" fill-opacity=".7"/><path fill="#fff" fill-opacity=".5" d="M10 27l-23 10 32 6z"/><circle r="1" fill="#3f4024" fill-opacity=".4" transform="matrix(20.4444 -12.10313 40.01175 67.58716 84.6 140.7)"/><path fill="#caafbc" fill-opacity=".5" d="M-16 48L5 80l39 1z"/><circle r="1" fill="#1c1410" fill-opacity=".4" transform="matrix(-14.8561 -6.1536 11.19922 -27.0373 145.3 29.7)"/><path fill="#2b201d" fill-opacity=".6" d="M24 99h25v50H24z"/><path fill="#c6d2f5" fill-opacity=".6" d="M0 126h19v9H0z"/><path fill="#d8dbe4" fill-opacity=".9" d="M124.7 84.8l1.5 8.7-29 16L93 94.6z"/><path fill="#e0eaff" fill-opacity=".5" d="M226 38h5v15h-5z"/><path fill="#d6d1e1" fill-opacity=".5" d="M251 30.8l-19.6 5.5 29.4-2.6L255 55z"/><circle r="1" fill="#2b1510" fill-opacity=".4" transform="rotate(-105.6 131.7 -41) scale(6.42951 63.93038)"/><circle r="1" fill="#2f3a20" fill-opacity=".4" transform="rotate(-115.1 48.9 -25.4) scale(12.76301 83.31013)"/><path fill="#7f7270" fill-opacity=".5" d="M80.8 21.8l38.5 54.9-22.1 15.5-38.5-54.9z"/><circle r="1" fill="#000a17" fill-opacity=".6" transform="matrix(5.58541 21.01553 -9.86637 2.62224 4.2 104.6)"/><path fill="#fcfdfa" fill-opacity=".6" d="M39.4-6.3L43 3.1l-8.4 3.2L31-3.1z"/><path fill="#233413" fill-opacity=".4" d="M141 134l42-12 43 63z"/><path fill="#8d7b74" fill-opacity=".5" d="M176 167l-47-65-29 32z"/><circle cx="240" cy="45" r="9" fill="#070101" fill-opacity=".6"/><path fill="#261b21" fill-opacity=".5" d="M20 44l28 43-32-27z"/><circle r="1" fill="#bdc0cf" fill-opacity=".7" transform="rotate(174 22.2 84.8) scale(17.19434 15.25352)"/><path fill="#696358" fill-opacity=".7" d="M125.8 99.4l-22.2 6.5 1.7 9.1 26.5 22.8z"/><path fill="#794340" fill-opacity=".8" d="M-16 33.4l44.9 66.3-21.3-3.4 24.3-5.9z"/><path fill="#6d5954" fill-opacity=".8" d="M104.1 83.9l-47.2 32.6-3.7 32.4L95 93.1z"/><path fill="#81726d" d="M176.6 93.5l3 33.3 17.4-7.2-69.8-17z"/><path fill="#b58a76" fill-opacity=".5" d="M248 78h8v17h-8z"/><path fill="#e0cfda" fill-opacity=".5" d="M-16 86l29-31 6 10z"/><circle r="1" fill="#d6e5fe" fill-opacity=".5" transform="matrix(.29953 6.86026 -14.68468 .64115 166 57)"/><circle cx="51" cy="103" r="15" fill="#180e12" fill-opacity=".5"/><circle r="1" fill="#344a29" fill-opacity=".5" transform="matrix(7.43681 14.85097 -24.40079 12.219 95.1 160.8)"/><path fill="#120e0d" fill-opacity=".5" d="M-16 119.2l27.1-6.7L-16 22 7.7 51.1z"/><path fill="#5195ff" fill-opacity=".3" d="M141.7 36.3l-7-4.5-10.4 2.2-.9 19.3z"/><ellipse cx="14" cy="25" fill="#535d3e" fill-opacity=".9" rx="84" ry="5"/><circle r="1" fill="#7862a7" fill-opacity=".4" transform="rotate(-98.8 67.6 -31.2) scale(16.1023 8.86875)"/><path fill="#807074" fill-opacity=".4" d="M83.7 100.3l3-58.3-59 49.1 48.1 2.3z"/><path fill="#566666" fill-opacity=".5" d="M186 0h51v22h-51z"/><path fill="#774a3c" fill-opacity=".6" d="M247.2 138l6.8-1.2 8.8 45.1-6.8 1.3z"/><circle r="1" fill="#203216" fill-opacity=".5" transform="rotate(140.6 82 36.1) scale(9.02329 30.30605)"/><path fill="#908aa8" fill-opacity=".6" d="M192 70l-45-15-1 14z"/><path fill="#fcf9fc" fill-opacity=".5" d="M107.2 131.9l-7 1-3.4-24.8 7-1z"/><path fill="#4c544a" d="M108.5 83.7l8.5-58.4-5.6-41.3 26.1 11z"/><circle r="1" fill="#90afba" fill-opacity=".6" transform="rotate(-118 46.5 -1.4) scale(7.16461 4.90635)"/><path fill="#36233a" fill-opacity=".7" d="M198.8 46.8l-18.1 6.8 5.8-17 28 6.1z"/><path fill="#b1b1c9" fill-opacity=".5" d="M221 46l8-2-11 24z"/><path fill="#001813" fill-opacity=".4" d="M94.7 24l-35.5-6.2L61.3 6l35.5 6.2z"/><path fill="#fff7fe" fill-opacity=".5" d="M5.8 77l28.6 5-.2 1-28.6-5z"/><path fill="#e0f0ff" fill-opacity=".6" d="M248 33l12 13 11-9z"/><path fill="#fbf4f9" fill-opacity=".5" d="M183 36l-9-4 8 12z"/><path fill="#600" fill-opacity=".3" d="M177 28l-36 6 2 17z"/><path fill="#2d1c16" fill-opacity=".6" d="M224 60.3l43 6.9-21.5 17.1-5.1-46z"/><circle r="1" fill="#9e9a9b" fill-opacity=".6" transform="matrix(37.60773 -31.84385 .6462 .76317 55.6 148.7)"/><circle r="1" fill="#082154" fill-opacity=".5" transform="rotate(44.4 -5.2 337) scale(26.0573 14.38203)"/><path fill="#373d1e" fill-opacity=".4" d="M167 100l33-1-21 14z"/><path fill="#920000" fill-opacity=".5" d="M12 81h14v14H12z"/><path fill="#2b301f" fill-opacity=".5" d="M-16.8 23.2l-1.3-24 45-2.4 1.2 24z"/><path fill="#716760" fill-opacity=".6" d="M174 83.9l60.7-46.6-72.3 44.4-1.9 2.3z"/></g></svg>