<svg xmlns="http://www.w3.org/2000/svg" viewBox="0 0 300 199"><defs/><path fill="#424242" d="M0 0h300v199H0z"/><g transform="translate(.6 .6) scale(1.17188)"><path fill="#f5f5f5" fill-opacity=".5" d="M77 23L200-1-16-16z"/><circle r="1" fill-opacity=".6" transform="rotate(87.9 7 132.7) scale(44.26611 180.92228)"/><path fill="#fff" fill-opacity=".5" d="M110 62l-22-8 13 38z"/><circle r="1" fill="#020202" fill-opacity=".6" transform="matrix(-18.76344 99.5507 -26.46588 -4.98832 231.4 78)"/><circle r="1" fill="#c6c6c6" fill-opacity=".5" transform="matrix(-5.46115 -26.44312 6.20785 -1.28207 189.6 145.4)"/><path fill="#fff" fill-opacity=".5" d="M157.4 55.8l8.7 2.1-5.5 22.3-8.7-2.1z"/><circle r="1" fill="#080808" fill-opacity=".6" transform="matrix(-15.82584 13.85448 -24.66262 -28.17189 14 66)"/><circle r="1" fill="#939393" fill-opacity=".5" transform="rotate(-20 177.7 -530.1) scale(9.33961 42.98268)"/><ellipse cx="43" cy="32" fill="#fff" fill-opacity=".3" rx="6" ry="49"/><ellipse cx="108" cy="16" fill="#373737" fill-opacity=".7" rx="15" ry="9"/><path fill="#040404" fill-opacity=".5" d="M55 46h34v100H55z"/><ellipse cx="73" cy="158" fill="#a4a4a4" fill-opacity=".6" rx="6" ry="15"/><path fill="#fff" fill-opacity=".3" d="M111 69.2l-6.3 16.5-13.9-10.4L80.3-16z"/><path fill="#e0e0e0" fill-opacity=".6" d="M-14.7-12.2l28 28.6-.9-10L35.6-16z"/><ellipse cx="128" cy="70" fill="#b6b6b6" fill-opacity=".4" rx="7" ry="22"/><path fill="#2b2b2b" fill-opacity=".8" d="M213.6 91.8l-58.5-71.3 80.9.9-78.4 23.7z"/><path fill="#5d5d5d" fill-opacity=".8" d="M236 140h20v30h-20z"/><circle r="1" fill="#e0e0e0" fill-opacity=".5" transform="matrix(3.91148 13.9177 -34.91276 9.81201 71 0)"/><circle r="1" fill-opacity=".5" transform="rotate(-17.1 524.9 -64.3) scale(18.30796 66.11549)"/><path fill="#fff" fill-opacity=".5" d="M52 58h3v27h-3z"/><path fill="#fafafa" fill-opacity=".4" d="M193.5 1.8l-17.9 21.7.4-10.7 7.9-28.8z"/><ellipse cx="100" cy="169" fill="#7f7f7f" fill-opacity=".9" rx="3" ry="27"/><ellipse cx="144" cy="169" fill="#0e0e0e" fill-opacity=".7" rx="40" ry="70"/><path fill="#888" fill-opacity=".6" d="M25.2 152.6l-28.1 6.5L-16 185h42.7z"/><path fill="#353535" fill-opacity=".9" d="M-3.3 15.8l88.4 31.8-1.4-25.8-99.7-.9z"/><path fill="#fff" fill-opacity=".2" d="M158.6 89.4L146 38.5l8.3-5.1 13.1 8.8z"/><path fill="#d3d3d3" fill-opacity=".6" d="M207.2 48l4.7 1.6-9 26.5-4.8-1.7z"/><path fill="#151515" fill-opacity=".6" d="M166 55h34v69h-34z"/><path fill-opacity=".4" d="M122.4 37.3L75.2 185l56-113.1-46.6-17z"/><circle r="1" fill="#2a2a2a" fill-opacity=".6" transform="matrix(5.38504 1.30278 -14.50925 59.97404 171.7 0)"/><path fill="#d3d3d3" fill-opacity=".5" d="M152.8 16l14-32L33.4 3.4l105.5 3.7z"/><path fill="#101010" fill-opacity=".6" d="M122.5 50.4l36.9 2.6-17.7 24.9L135 28z"/><path fill="#010101" fill-opacity=".7" d="M216.8 197.4l-9.2-52.2 25.6-4.6 9.2 52.2z"/><path fill="#858585" fill-opacity=".6" d="M194.8 191.6L181.1 152l16.1-5.5 13.7 39.7z"/><path fill="#969696" fill-opacity=".5" d="M25.7 32.2L8.1 33.4l-1-9.5L-7 16.5z"/><path fill="#2f2f2f" fill-opacity=".6" d="M43 66l38-24L56 7z"/><path fill="#bbb" fill-opacity=".5" d="M121 155h5v15h-5z"/><ellipse cx="26" cy="33" fill="#242424" fill-opacity=".6" rx="9" ry="35"/><path fill="#fff" fill-opacity=".3" d="M125.9 93.8l7.3-23.9 1 .3-7.4 23.9z"/><path fill="#bebebe" fill-opacity=".3" d="M88.6 73.3l.9-15.8 49.3-.2-14.7-7.6z"/><path fill="#040404" fill-opacity=".9" d="M96 140l-17 32 18 11z"/><circle cx="94" cy="40" r="10" fill="#b8b8b8" fill-opacity=".4"/><path fill="#c7c7c7" fill-opacity=".5" d="M193 32h10v14h-10z"/><path fill="#e2e2e2" fill-opacity=".6" d="M205.6 51.2L201.4 81l-1-.1 4.2-29.7z"/><path fill="#c1c1c1" fill-opacity=".4" d="M46 155h4v15h-4z"/><path fill="#1a1a1a" d="M104.8 95.6L88.8 71l-6.5 22-16.8 60.3z"/><path fill="#b3b3b3" fill-opacity=".4" d="M59 46H36l-1-17z"/><circle r="1" fill="#444" fill-opacity=".5" transform="rotate(133.3 108.6 46.9) scale(30.76449 21.46828)"/><path fill="#dfdfdf" fill-opacity=".6" d="M110 71l-5 11-1-23z"/><ellipse cx="177" cy="47" fill="#2f2f2f" fill-opacity=".8" rx="13" ry="20"/><path fill="#0c0c0c" fill-opacity=".5" d="M206 60h50v64h-50z"/><path fill="#cecece" fill-opacity=".8" d="M152.5 65.1L167.4 52l-1.3 5.5-6.2 19.1z"/><path fill="#6a6a6a" fill-opacity=".8" d="M201.5 159.2L177.1 185l-9.8-35.9 1.1 35.9z"/><ellipse cx="231" cy="39" fill="#242424" fill-opacity=".6" rx="29" ry="19"/><path fill="#dadada" fill-opacity=".5" d="M50 77l-6 4-5-24z"/><path fill="#f2f2f2" fill-opacity=".2" d="M164.8 41l-8.6 10.7-8.4-10.1 1.8-5.8z"/><path fill="#2d2d2d" fill-opacity=".6" d="M56 27L43 59l52-33z"/><path fill="#c9c9c9" fill-opacity=".6" d="M73.7 26.2l-4-42.2-26.1 41.1L27.7-16z"/><path fill="#939393" fill-opacity=".7" d="M210.9 40.5L184 46.6l24.6 1.2-7.4 15z"/><circle cx="12" cy="29" r="3" fill="#fff" fill-opacity=".5"/><path fill="#272727" fill-opacity=".7" d="M105 29.9l15.8-1.4 45.9-2.5-57.8 32.9z"/><path fill-opacity=".3" d="M105 165.4l-10.3-44.8 26.3-6 10.3 44.8z"/><path fill="#323232" fill-opacity=".5" d="M163 119l-25 19-13-27z"/><path fill="#2a2a2a" fill-opacity=".6" d="M235 119h20v23h-20z"/><path fill="#333" fill-opacity=".5" d="M86 38l-7-24-39 44z"/></g></svg>