<svg xmlns="http://www.w3.org/2000/svg" viewBox="0 0 299 449"><defs/><path fill="#705038" d="M0 0h299v449H0z"/><g transform="translate(.9 .9) scale(1.7539)"><circle r="1" fill="#a49c92" fill-opacity=".8" transform="matrix(-38.19719 -165.65318 99.6341 -22.97416 75 155.6)"/><circle r="1" fill="#542c12" fill-opacity=".6" transform="matrix(29.1232 -5.58386 14.376 74.9795 41.5 93.7)"/><circle r="1" fill-opacity=".7" transform="matrix(-19.06644 9.0966 -34.01736 -71.3002 147.8 25.6)"/><circle r="1" fill="#bab8b1" fill-opacity=".6" transform="matrix(-59.0321 -134.24946 33.28069 -14.63417 137.8 125.5)"/><path fill="#4d1700" fill-opacity=".5" d="M46 103h47v32H46z"/><circle r="1" fill="#a6816c" transform="rotate(-171.3 39.8 29.2) scale(23.52336 26.55921)"/><ellipse cx="9" cy="148" fill="#7a5c43" fill-opacity=".6" rx="70" ry="29"/><circle r="1" fill="#dbeddd" fill-opacity=".2" transform="matrix(76.71483 33.00142 -19.98957 46.4676 100.5 218)"/><ellipse cx="156" cy="2" fill="#010202" fill-opacity=".5" rx="38" ry="60"/><path fill="#b58c59" fill-opacity=".5" d="M141 12h27v11h-27z"/><circle r="1" fill="#45393e" fill-opacity=".5" transform="matrix(-1.00158 -8.51324 43.3134 -5.0958 19.4 28.1)"/><circle r="1" fill="#b8b4a6" fill-opacity=".7" transform="matrix(21.72838 35.18124 -21.7273 13.41905 153.1 115.3)"/><path fill="#93898d" fill-opacity=".7" d="M7.9 55L36 28.4l10.5 3.5 71.1-11.6z"/><path fill="#85b5ee" fill-opacity=".3" d="M123.3-20l-10.8 51-51.8-11 10.8-51z"/><path fill="#4f1b03" fill-opacity=".4" d="M50.7 155.4l31.5-4.7 21.1 24.1-63.4-30.3z"/><path fill="#5d3325" fill-opacity=".5" d="M76 18L66 49l10 25z"/><ellipse cx="40" cy="83" fill="#5e3e24" fill-opacity=".5" rx="18" ry="47"/><circle r="1" fill="#000001" fill-opacity=".8" transform="rotate(-102.8 107.7 -31) scale(14.89384 13.07007)"/><path fill="#e6b795" fill-opacity=".3" d="M136.7 133.3L87.6 64.2l-36.8-9.1 15.8 36.3z"/><path fill="#cae8ff" fill-opacity=".5" d="M71.1 36.9L63 44.3 53 33l8.2-7.4z"/><ellipse cx="7" cy="8" fill="#004492" fill-opacity=".2" rx="38" ry="14"/><circle r="1" fill="#aba18b" fill-opacity=".5" transform="rotate(46.5 -116 49.9) scale(30.15129 18.08071)"/><path fill="#a77964" fill-opacity=".8" d="M50 150l21.4-19.1 39.7 12.2-16.3 12.8z"/><path fill="#9297a1" d="M146 55.6L28.7-16 41-4l2.3 15.8z"/><circle r="1" fill="#c2b7ac" fill-opacity=".5" transform="rotate(78.4 -82.3 139.8) scale(32.28248 11.65203)"/><circle r="1" fill="#cac2b4" fill-opacity=".4" transform="matrix(7.20261 -6.25983 20.9151 24.06507 120.9 179.4)"/><circle r="1" fill="#662008" fill-opacity=".4" transform="rotate(-86.1 43.6 -20.6) scale(2.99019 22.75643)"/><path fill-opacity=".9" d="M215.4-3.8l.2 14-91 1.6-.2-14z"/><path fill="#8c9ead" fill-opacity=".5" d="M19-12L-6 52l27-36z"/><path fill="#bfdbfe" fill-opacity=".5" d="M111.9 54.2l-5.9 5.4-25.9-27.8 5.9-5.4z"/><circle r="1" fill="#8d7762" fill-opacity=".4" transform="matrix(10.05301 -9.60687 17.44497 18.25512 99.7 182.7)"/><ellipse cy="40" fill="#545d5a" fill-opacity=".4" rx="13" ry="31"/><path fill="#6e7e88" fill-opacity=".4" d="M145.1 53.1l-26.5-31.6-13.4-10.4 45.5 68.8z"/><path fill="#2a211d" fill-opacity=".5" d="M18 45l-8-14 25-20z"/><path fill="#84725d" fill-opacity=".5" d="M52 180l4-29-72 39z"/><ellipse cx="102" cy="65" fill="#563d33" fill-opacity=".5" rx="9" ry="4"/><path fill="#7b7a70" fill-opacity=".4" d="M108 271l-38-29 100 7z"/><path fill="#7a796e" fill-opacity=".6" d="M0 233h20v23H0z"/><path fill="#080300" fill-opacity=".2" d="M61 129.3l-21.4 19.2 28.6-29.9-51.6-90z"/><path fill="#764731" fill-opacity=".6" d="M99.7 116l-29.8 15.2-5.5-34.7 5.7-3.9z"/><path fill="#6b5135" fill-opacity=".6" d="M50 159V54L13 160z"/><path fill="#817767" fill-opacity=".5" d="M153.9 271l-41.2-35.2L44.1 174l73.3 73.4z"/><path fill="#a299a2" d="M37.5 30.1L30.6 34l-4.4.6 49.2 4.5z"/><path fill="#e8bca7" fill-opacity=".5" d="M78 131l-10 5 19 9z"/><path fill="#f0f5fd" fill-opacity=".2" d="M59.3 38.8l36.6-10-42.3 21 33.5 63.7z"/><path fill="#704633" fill-opacity=".4" d="M79.3 82.6l.4-6.8.2-39.6-18.1 10.1z"/><path fill="#a4b9cd" fill-opacity=".4" d="M114.1 63.5L83-17.7l15-5.8 31 81.2z"/><path fill="#310900" fill-opacity=".5" d="M63 152h16v6H63z"/><path fill="#faecde" fill-opacity=".2" d="M101.7 200.5L55.6 236l40.7-21.8-43.9-52z"/><circle r="1" fill="#adaea5" fill-opacity=".8" transform="rotate(-40.7 391.8 -106.4) scale(15.21508 26.79547)"/><path fill="#bf8f6f" fill-opacity=".4" d="M92 66l23 90-24-20z"/><path fill="#b4c9e0" fill-opacity=".5" d="M66.8 14l-12-10.5-.3 10.5-30.3-30z"/><path fill="#929486" fill-opacity=".2" d="M-11.4 80.2l24.6-87L21 131.5l21.6-37.2z"/><path fill="#ddd8c6" fill-opacity=".2" d="M162.1 154.4l-63.4-13.1 58.2 57.5-64-17z"/><circle cx="77" cy="244" r="3" fill="#040e1b" fill-opacity=".5"/><path fill="#502413" fill-opacity=".5" d="M54 26l-5 8-9-14z"/><path fill="#21303b" fill-opacity=".4" d="M39 271l3-28 6 13z"/><path fill="#6b372d" fill-opacity=".5" d="M56 21.6l12.7 8.6 2.3 3.4 14.6-3.2z"/><ellipse cx="169" cy="35" fill-opacity=".5" rx="40" ry="14"/><path fill="#364047" fill-opacity=".5" d="M144 219.4v5l-8 .2v-5z"/><path fill="#a39c8d" fill-opacity=".6" d="M37 251L9 219l57-43z"/><path fill="#d0c6ba" fill-opacity=".5" d="M82 174l-11 30-25 18z"/><path fill="#514d46" fill-opacity=".2" d="M78.5 202.4l8.6-23.5-33.5 62.8-4.5-11.2z"/><path fill="#171600" fill-opacity=".3" d="M-4.2 24L-6.7-5l11-1 2.4 29z"/><path fill="#b8bab1" fill-opacity=".7" d="M142 66l44 46-32-3z"/></g></svg>