<svg xmlns="http://www.w3.org/2000/svg" viewBox="0 0 300 199"><defs/><path fill="#643f33" d="M0 0h300v199H0z"/><g transform="translate(.6 .6) scale(1.17188)"><circle r="1" fill="#bae7ba" fill-opacity=".3" transform="matrix(-196.21687 52.8033 -26.05447 -96.8183 97.2 60.9)"/><circle r="1" fill-opacity=".6" transform="matrix(-51.67367 -30.0748 14.05029 -24.14081 218 123.8)"/><circle r="1" fill="#ecff5a" fill-opacity=".6" transform="rotate(41.4 23 342.3) scale(48.16657 17.63746)"/><circle r="1" fill="#f6ebdd" fill-opacity=".6" transform="matrix(-13.59446 -7.39564 17.61252 -32.37486 53.6 80.5)"/><path fill="#212e3b" fill-opacity=".6" d="M73 48h45v122H73z"/><circle r="1" fill="#b0efff" fill-opacity=".3" transform="rotate(17.2 -408.4 635.2) scale(40.12216 19.3229)"/><ellipse cx="8" cy="99" fill="#e4ebfe" fill-opacity=".4" rx="11" ry="60"/><circle r="1" fill="#f9fbfb" fill-opacity=".5" transform="matrix(-12.8247 -25.49906 13.912 -6.997 75 7.2)"/><path fill="#b8bfc4" fill-opacity=".9" d="M126.6 139.9l-18.3-4.9-10.9 27.4-.4 1z"/><path fill="#ffe2d7" fill-opacity=".6" d="M150.8 81.9l10.5 32.3-18 5.9-10.6-32.3z"/><circle r="1" fill="#fff" fill-opacity=".6" transform="matrix(-4.51914 -7.56459 12.47369 -7.45187 158.1 3.2)"/><circle r="1" fill="#dce6ec" fill-opacity=".5" transform="matrix(4.83512 29.5263 -6.20833 1.01665 33.6 66.4)"/><path fill="#05060c" fill-opacity=".5" d="M46.1 113.9l57.9 29.4-45.4-.2-14.3 17.1z"/><circle r="1" fill="#f1e5d6" fill-opacity=".6" transform="matrix(5.91675 30.73832 -3.9644 .7631 69.5 95.3)"/><circle r="1" fill="#814c16" fill-opacity=".4" transform="rotate(111.1 79.5 91.5) scale(82.945 27.09519)"/><ellipse cx="255" cy="132" fill="#000811" fill-opacity=".6" rx="66" ry="28"/><path fill="#ffdfa0" fill-opacity=".6" d="M38.5 160.5l29.6-4.7 3.4 21.7-29.6 4.7z"/><ellipse cx="10" cy="19" fill="#293135" fill-opacity=".5" rx="29" ry="24"/><path fill="#051225" fill-opacity=".5" d="M25 162l-1-59-21 82z"/><path fill="#03070b" fill-opacity=".5" d="M35.6 57.6l15.8-19.5-.9 27.3-2.5 7.2z"/><ellipse cx="95" cy="67" fill="#101011" fill-opacity=".5" rx="24" ry="17"/><ellipse cx="124" cy="146" fill="#00153a" fill-opacity=".4" rx="7" ry="51"/><path fill="#deeeff" fill-opacity=".3" d="M204.4 144.8L156.8 123l34.8 37.1 41.2-2.5z"/><path fill="#a9856a" d="M183.7 64l-20.4-9.2-34.8-5.8-11 49.1z"/><circle r="1" fill="#696308" fill-opacity=".5" transform="matrix(-45.82633 -40.2109 7.0358 -8.01834 192.4 68.3)"/><circle r="1" fill="#ab937c" fill-opacity=".6" transform="rotate(-101.8 39.6 -9.5) scale(25.04922 18.40696)"/><circle r="1" fill="#ccbfb4" fill-opacity=".6" transform="matrix(-1.97035 -3.69014 15.78717 -8.42956 78.6 95.1)"/><path fill="#00000a" fill-opacity=".6" d="M23.7 58.5l4 .2-5.4 102.8-4-.2z"/><path fill="#000b18" fill-opacity=".5" d="M188 170l6-13 43 4z"/><circle r="1" fill="#d0f169" fill-opacity=".5" transform="matrix(20.49943 7.1788 -8.84007 25.24328 244.6 78.3)"/><circle r="1" fill="#7c4b36" fill-opacity=".5" transform="matrix(-72.6292 12.79624 -3.1238 -17.73016 144.7 31.3)"/><path fill="#abb6c4" fill-opacity=".4" d="M25 65h18v79H25z"/><path fill="#efffff" fill-opacity=".2" d="M107.8 108.3l-23.6-2 27.7 50.8 9.9-15.6z"/><ellipse cx="30" cy="129" fill="#0e0d08" fill-opacity=".4" rx="2" ry="67"/><circle r="1" fill="#000010" fill-opacity=".5" transform="matrix(4.03841 -1.4252 4.94008 13.99809 61.9 114)"/><path fill="#defa69" fill-opacity=".4" d="M193.9 41.4L205 77.2l42.5-11.1-53.6-33z"/><circle r="1" fill="#001f2e" fill-opacity=".4" transform="matrix(-1.52362 -13.16826 24.80928 -2.87053 136.4 163.9)"/><path fill="#d3a98f" fill-opacity=".5" d="M57 130h9v18h-9z"/><ellipse cx="14" cy="123" fill="#eae5de" fill-opacity=".2" rx="4" ry="112"/><circle r="1" fill="#856046" fill-opacity=".7" transform="matrix(-25.33841 35.00364 -58.80742 -42.56947 222 0)"/><path fill="#232526" fill-opacity=".9" d="M121.6 101l-45 52.8 33.3-45.7-2.8-25.9z"/><path fill="#380400" fill-opacity=".5" d="M140 63h6v23h-6z"/><path fill="#131800" fill-opacity=".6" d="M199 91l29-10-22 38z"/><path fill="#fff" fill-opacity=".5" d="M27 39h3v60h-3z"/><path fill="#dfcfe8" fill-opacity=".5" d="M148 134l-20 15 54-7z"/><path fill="#262224" fill-opacity=".5" d="M65.4 150.4l-42.1-4.3 11.1 7.6 83.9 9.2z"/><circle r="1" fill="#e6f4f6" fill-opacity=".5" transform="rotate(48.5 37 86.8) scale(19.48008 7.23833)"/><path fill="#1b2223" fill-opacity=".5" d="M18 3h6v62h-6z"/><path fill="#e6e4bd" fill-opacity=".7" d="M76.2 55.3l-.5 4.9-8.3 1.7-1.2-24.4z"/><path fill="#1c2528" fill-opacity=".6" d="M125 96h13v9h-13z"/><path fill="#d2c1ae" fill-opacity=".9" d="M47.9 96L73 64.2l-5.4 49.5-13.3-77.3z"/><ellipse cx="161" cy="125" fill="#2e3544" fill-opacity=".5" rx="46" ry="4"/><path fill="#b8ccdb" fill-opacity=".5" d="M211 163l-23-15 31 8z"/><path fill="#cdc3bc" fill-opacity=".6" d="M137.4 118l14.7 5.5 13-8.7-20.7-21.1z"/><path fill="#d3f4ff" fill-opacity=".5" d="M24 134h3v36h-3z"/><path fill="#07311a" fill-opacity=".6" d="M206.9 166.8l-13.4-4 57.3-8.6 12.4 12.4z"/><path fill="#725854" fill-opacity=".5" d="M152 100l37 24-31-60z"/><path fill="#1b1c1d" fill-opacity=".5" d="M58 130l-8 21-8-51z"/><ellipse cx="178" cy="77" fill="#160700" fill-opacity=".7" rx="3" ry="11"/><path fill="#5e8817" fill-opacity=".8" d="M265.9 163.9l-6.1 6.5-32.7-12.5 16.2 27.1z"/><path fill="#402426" fill-opacity=".5" d="M128 42h63v8h-63z"/><path fill="#090d12" d="M271 182.2l-85.3-70.5 36.1-.9 49.2-14z"/><path fill="#ffc8bb" fill-opacity=".2" d="M189 58.4l-50.6 24.2 17.1-29.3 20-1.4z"/><ellipse cx="31" cy="47" fill="#f2feff" fill-opacity=".5" rx="4" ry="14"/><circle r="1" fill="#b37954" fill-opacity=".6" transform="rotate(99.2 56 47.6) scale(20.99696 24.26313)"/></g></svg>