<svg xmlns="http://www.w3.org/2000/svg" viewBox="0 0 300 199"><defs/><path fill="#534433" d="M0 0h300v199H0z"/><g transform="translate(.6 .6) scale(1.17188)"><ellipse cx="154" cy="39" fill="#b99f95" fill-opacity=".7" rx="108" ry="166"/><ellipse cx="192" cy="104" fill="#ffeeea" fill-opacity=".4" rx="58" ry="46"/><ellipse cx="205" cy="35" fill="#331200" fill-opacity=".5" rx="29" ry="28"/><circle r="1" fill="#83463b" fill-opacity=".8" transform="matrix(43.79814 22.23736 -9.85196 19.40416 82.8 114.2)"/><ellipse cx="172" cy="109" fill="#490000" fill-opacity=".7" rx="8" ry="18"/><path fill="#381f0f" fill-opacity=".5" d="M156-16l-41 82 40 10z"/><ellipse cx="164" cy="18" fill="#fff" fill-opacity=".6" rx="7" ry="40"/><ellipse cx="59" cy="39" fill="#736451" fill-opacity=".7" rx="101" ry="18"/><path fill="#292829" fill-opacity=".6" d="M112.5 131.6l30.3 15.4-27.3 53.4L85.2 185z"/><path fill="#eef9ff" fill-opacity=".4" d="M157.4 108.2l24-32.8-83.3.6-48.6-3.1z"/><path fill="#f8fff8" fill-opacity=".6" d="M223-16l-68 28 82-10z"/><path fill="#9a7262" d="M172.4 127.7l50.7-81.5-26.7 55.2 24 5.6z"/><path fill="#e9e6e3" fill-opacity=".7" d="M237 142l11-54-75 55z"/><path fill="#755b4e" d="M200.1 162.1l59.5 12.7 1.5-29.7-73.4 4.1z"/><path fill="#dac4c1" fill-opacity=".5" d="M97.3 163.5l-26-7 7.4-28 26 7z"/><path fill="#302e1c" fill-opacity=".5" d="M0 35h76v24H0z"/><circle r="1" fill="#a18c9d" fill-opacity=".5" transform="rotate(-7.3 982.3 -353.5) scale(9.31886 25.19046)"/><circle r="1" fill="#8e6044" fill-opacity=".7" transform="rotate(168.2 74.4 84.4) scale(10.9254 30.88607)"/><path fill="#bf9e8a" fill-opacity=".9" d="M169.5 59.5l63.3-5.7 14 28.4-14.7 6.5z"/><path fill-opacity=".6" d="M66.6 111.7l13-1.3 1.8 17.9-13 1.3z"/><path fill="#68654a" fill-opacity=".7" d="M267 4l-33 31 23 94z"/><path fill="#241001" fill-opacity=".6" d="M74.6 21.5l7.8-10.8 26.1 85.4-9.9-55.2z"/><path fill-opacity=".4" d="M154 20l8 35-24 23z"/><circle r="1" fill="#ffdbc7" fill-opacity=".6" transform="matrix(-11.52175 -25.8218 5.5335 -2.46907 183.4 149.3)"/><path fill="#e1dfdc" fill-opacity=".7" d="M114.5 63.8l-7.2-9.8 56.6 47.9-.3 22.3z"/><path fill="#cfa894" fill-opacity=".6" d="M125.3-16h2l7.9 74.8 12.7-13.9z"/><path fill="#632a28" fill-opacity=".5" d="M75 130l58-38 12 19z"/><circle r="1" fill="#ffc9ae" fill-opacity=".3" transform="matrix(16.74756 -11.60955 6.3775 9.19998 135 137.3)"/><path fill="#ebffde" fill-opacity=".1" d="M-24.8-.2l153-2.6.6 37-153 2.6z"/><path fill="#f8fedf" fill-opacity=".5" d="M80.7 98.7l-8.3 2.9 20 23.5-10.9-7z"/><path fill="#fff" fill-opacity=".6" d="M52.3 180.1l-3 .5-3.6-22.7 3-.5z"/><path fill="#534735" d="M6 91l73-70-36 67z"/><ellipse cx="235" cy="15" fill="#fff" fill-opacity=".6" rx="2" ry="29"/><ellipse cx="240" cy="12" fill="#001b06" fill-opacity=".4" rx="3" ry="53"/><ellipse cx="18" cy="149" fill="#818480" fill-opacity=".4" rx="24" ry="12"/><ellipse cx="179" cy="18" fill-opacity=".5" rx="2" ry="37"/><circle r="1" fill="#f1f8f9" fill-opacity=".6" transform="matrix(-4.68426 10.43605 -8.46141 -3.79793 214 90.5)"/><path fill="#d49f8a" fill-opacity=".7" d="M81.9 54.6l33.5 47.8-5.3 11.5 18.1 13.7z"/><circle r="1" fill="#230500" fill-opacity=".4" transform="matrix(4.2943 -2.9184 11.67702 17.18221 137.4 64)"/><path fill="#edfdfc" fill-opacity=".4" d="M156 2h20v21h-20z"/><path fill="#ffe8e1" fill-opacity=".3" d="M83.1 79.9l7.6-16.3-28.3-3.7-13.1 10.5z"/><path fill="#f9ead0" fill-opacity=".3" d="M132.8 166.6l30.2-20.9 7.6 15.3-42.6 11.1z"/><path fill="#8d938c" fill-opacity=".7" d="M252 185l-7.6-44.9-4.6-13.3 31.2 44.5z"/><path fill="#940a00" fill-opacity=".4" d="M88 99h23v32H88z"/><path fill="#f9fdf6" fill-opacity=".5" d="M227.4 49.1l20 30.1-8.8 45 13.6-8.6z"/><path fill="#751007" fill-opacity=".4" d="M55 81h28l-34 50z"/><circle cx="48" cy="106" r="6" fill="#fff3e5" fill-opacity=".5"/><ellipse cx="205" cy="67" fill="#a46b4d" fill-opacity=".6" rx="9" ry="19"/><path fill="#602d12" fill-opacity=".3" d="M222.1 71.9L236.7 88 217 117.4l15.5-56.5z"/><path fill="#694849" fill-opacity=".8" d="M137.1 160.6l4.6-8.9-13.4-31.6.8 15.3z"/><path fill="#b17960" fill-opacity=".7" d="M208.3 62.6L186.6 42l-4.7-16.4 12.7 3.2z"/><path fill="#d5d9db" fill-opacity=".5" d="M172.3 34.7L138.2 104l31.9 21-11.1-22.1z"/><path fill="#1a160f" fill-opacity=".6" d="M154 8L115-7l35-9z"/><path fill="#dbe0e9" fill-opacity=".4" d="M153 77l48 21-6-37z"/><circle r="1" fill="#402d21" fill-opacity=".5" transform="matrix(-9.30364 4.53769 -11.39135 -23.35574 207.4 30.5)"/><path fill="#f6b8a8" fill-opacity=".4" d="M88.1 31.4l2.7 21.8-11 1.4-2.6-21.8z"/><path fill="#010721" fill-opacity=".3" d="M40.5 143.2l48.5 14L35.9 185l18.2-19.5z"/><circle r="1" fill="#0d2f14" fill-opacity=".5" transform="rotate(171 40 3.1) scale(2.64508 22.80561)"/><ellipse cx="231" cy="5" fill="#2a2423" fill-opacity=".7" rx="2" ry="25"/><path fill="#220500" fill-opacity=".6" d="M76.5 51.9l-5.9-20.2-4.2 9.4.8 18.7z"/><path fill="#270e01" fill-opacity=".5" d="M125 32h7v41h-7z"/><path fill="#4c1e07" fill-opacity=".5" d="M193 155h53v7h-53z"/><path fill="#b3a1a0" fill-opacity=".5" d="M33.4 127.5l18.9 19.1 20.6-18.9 30.5 23.2z"/><ellipse cx="114" cy="30" fill="#a09790" fill-opacity=".5" rx="12" ry="37"/><path fill="#000e0c" fill-opacity=".5" d="M45 124h46v4H45z"/></g></svg>