<svg xmlns="http://www.w3.org/2000/svg" viewBox="0 0 300 199"><defs/><path fill="#1d2438" d="M0 0h300v199H0z"/><g transform="translate(.6 .6) scale(1.17188)"><circle r="1" fill="#e4c19a" fill-opacity=".6" transform="rotate(-7.2 645.3 -666.4) scale(255 88.88518)"/><circle r="1" fill="#0d1229" fill-opacity=".8" transform="matrix(-33.48559 2.5178 -5.31564 -70.6957 98.6 133.5)"/><circle r="1" fill="#e2cab0" fill-opacity=".7" transform="rotate(-178 .8 32.9) scale(49.64624 186.9201)"/><ellipse cx="196" cy="139" fill="#594632" rx="21" ry="70"/><circle r="1" fill="#070a09" fill-opacity=".8" transform="matrix(21.42303 2.51663 -2.8277 24.07103 253.3 77.8)"/><path fill="#d8cca9" fill-opacity=".6" d="M128 124L271 12 127 58z"/><ellipse cx="127" fill="#bfaa93" fill-opacity=".8" rx="255" ry="24"/><circle r="1" fill="#7d593f" transform="rotate(124.5 39.5 123.5) scale(16.83501 37.62157)"/><circle r="1" fill="#584e4d" fill-opacity=".9" transform="matrix(-35.1532 10.949 -4.92958 -15.82705 91.2 73.5)"/><path fill="#1a110c" fill-opacity=".7" d="M179.2 125.6l26 17.4-18.4-73.6-11.8 3.9z"/><circle r="1" fill="#b92536" fill-opacity=".6" transform="rotate(160.3 7 88.2) scale(32.54578 12.61596)"/><path fill="#fffff1" fill-opacity=".5" d="M165 48h12v83h-12z"/><path fill="#d5bea1" fill-opacity=".5" d="M265.4 142L208 121.1 218.6 92l57.4 20.9z"/><path fill="#ffefe7" fill-opacity=".5" d="M70 43l20 42 8-13z"/><circle r="1" fill="#dfd4db" fill-opacity=".5" transform="rotate(45 -153.1 106.3) scale(19.4718 30.4594)"/><path fill="#584225" fill-opacity=".5" d="M-16.8 89.4l-1.3-25 35-1.8 1.2 25z"/><circle r="1" fill="#ceb68c" fill-opacity=".6" transform="matrix(-7.08617 -16.94003 99.1417 -41.47187 255 30.7)"/><path fill="#000923" fill-opacity=".4" d="M97 56h28v99H97z"/><circle r="1" fill="#b3b8c1" fill-opacity=".6" transform="rotate(164.4 65.9 63.8) scale(14.52809 29.16886)"/><path fill="#73431e" fill-opacity=".4" d="M55 29h18v127H55z"/><circle r="1" fill="#1c0312" fill-opacity=".5" transform="matrix(8.07773 -6.30368 16.8268 21.5624 131 144.1)"/><path fill="#fff9d2" fill-opacity=".5" d="M27 56h18v44H27z"/><path fill-opacity=".6" d="M204 67h6v69h-6z"/><ellipse cx="171" cy="157" fill="#b89562" fill-opacity=".5" rx="16" ry="32"/><path fill="#13141f" fill-opacity=".8" d="M96 115l-21 67-7-131z"/><path fill="#ffeda7" fill-opacity=".4" d="M194.3 87.6l8.9 23-4.8-57.7-21.5-6.8z"/><path fill="#26180a" fill-opacity=".6" d="M215 130h29v40h-29z"/><ellipse cx="163" cy="100" fill="#1d2428" fill-opacity=".5" rx="2" ry="31"/><path fill="#fff" fill-opacity=".7" d="M132-6.7l1 11-29 2.4-1-11z"/><ellipse cx="219" cy="73" fill="#b49e83" fill-opacity=".9" rx="10" ry="55"/><circle r="1" fill="#a59072" fill-opacity=".6" transform="matrix(-3.17695 -22.62697 69.07812 -9.69895 160.4 28.1)"/><path fill="#080000" fill-opacity=".5" d="M96 41H82l22 22z"/><path fill="#9f7955" fill-opacity=".5" d="M195 139h22v31h-22z"/><circle r="1" fill="#af7e4a" fill-opacity=".2" transform="rotate(112.4 1.8 28.4) scale(21.9348 77.18797)"/><path fill="#090706" fill-opacity=".5" d="M12.2 139.9L9 130l-3.5-3.6 1.8 13.3z"/><circle r="1" fill="#141f37" fill-opacity=".8" transform="matrix(-24.2083 3.27309 -6.20526 -45.89509 107.5 135.2)"/><path fill="#371300" fill-opacity=".5" d="M160 69h30v4h-30z"/><path fill="#000001" fill-opacity=".6" d="M183 98l5 58 11-37z"/><path fill="#ad3e47" fill-opacity=".7" d="M51 186.2l-14-28.8 28-13.6 14 28.8z"/><path fill="#dcc193" fill-opacity=".5" d="M198 85h4v39h-4z"/><ellipse cx="52" cy="120" fill="#b99a87" fill-opacity=".4" rx="19" ry="14"/><ellipse cx="177" cy="57" fill="#fbe9b1" fill-opacity=".6" rx="18" ry="12"/><circle r="1" fill="#dec0ab" fill-opacity=".6" transform="rotate(5.1 26.8 596.5) scale(42.70816 15.7751)"/><path fill="#e4e2ef" fill-opacity=".5" d="M4.2 189.2L-14.4 132l16.2-5.3L20.4 184z"/><path fill="#72583d" fill-opacity=".5" d="M240.2 131.7l8.7-22.9 6 40.6-45.7-18.7z"/><path fill="#1c1813" fill-opacity=".6" d="M241.3 57.5l19.2 44.1-25.4-6.9-8.5-32.6z"/><ellipse cx="184" cy="36" fill="#444132" fill-opacity=".5" rx="17" ry="4"/><path fill="#9b7f51" fill-opacity=".5" d="M44 85l27-1L45 9z"/><ellipse cx="41" cy="69" fill="#fdeedd" fill-opacity=".4" rx="4" ry="52"/><path fill="#bf8c82" fill-opacity=".7" d="M99 54.9l-23.8-8.6-2.5 8.6 6 20.1z"/><path fill="#d0dbf0" fill-opacity=".5" d="M88.8 69.6l-1.4 28.8 8.2-22.3 2.8-5.7z"/><path fill="#242b33" fill-opacity=".5" d="M130 121h23v4h-23z"/><path fill="#ebf0f3" fill-opacity=".6" d="M165.3 117.6l-.6-31 8-.2.6 31z"/><path fill="#beb0a0" fill-opacity=".6" d="M257.9-4.5l16 49.4-41.8 13.6-16-49.4z"/><path fill="#c9baad" fill-opacity=".5" d="M280.8 120.8l-55.6-6.8 2-16.8 55.6 6.8z"/><path fill="#e2a07a" fill-opacity=".4" d="M185.5 90.4l-1.6-5.8 10.6-3 1.6 5.8z"/><path fill="#0d0503" fill-opacity=".5" d="M218.9 146.5l43.9 3-1.7 24-43.9-3z"/><ellipse cx="135" cy="44" fill="#b9a583" fill-opacity=".5" rx="37" ry="11"/><path fill="#902821" fill-opacity=".6" d="M133 141h8v29h-8z"/><path fill="#ede9f4" fill-opacity=".4" d="M54 146l-56-32 38 45z"/><ellipse cx="115" cy="139" fill="#131c2d" fill-opacity=".4" rx="57" ry="4"/><ellipse cx="51" cy="97" fill="#bb9b7a" fill-opacity=".7" rx="5" ry="30"/><path fill="#18140e" fill-opacity=".5" d="M203 88h9v53h-9z"/><path fill="#341e0d" fill-opacity=".4" d="M176 72h9v35h-9z"/><path fill="#c7a884" fill-opacity=".5" d="M34.8 80.9l-20.9 6.6-3.7-51.9 36 115z"/></g></svg>