<svg xmlns="http://www.w3.org/2000/svg" viewBox="0 0 300 199"><defs/><path fill="#6f563e" d="M0 0h300v199H0z"/><g transform="translate(.6 .6) scale(1.17188)"><circle r="1" fill="#d1dae0" fill-opacity=".5" transform="matrix(23.0545 66.03222 -240.74835 84.05495 95 41.7)"/><circle r="1" fill="#b2b8c6" fill-opacity=".6" transform="matrix(24.65822 4.26059 -13.22419 76.53523 28 146.3)"/><ellipse cx="153" cy="144" fill="#36363e" fill-opacity=".7" rx="72" ry="61"/><path fill="#e8f5fb" fill-opacity=".5" d="M218 77l22 34 8-105z"/><ellipse cx="210" cy="56" fill="#71726d" fill-opacity=".8" rx="21" ry="44"/><circle r="1" fill="#cfcbc1" fill-opacity=".7" transform="rotate(29.2 -17.9 94.4) scale(56.14117 26.17408)"/><path fill="#754733" fill-opacity=".6" d="M-16 16L0 67l70 10z"/><ellipse cx="255" cy="131" fill="#060d19" fill-opacity=".8" rx="11" ry="35"/><path fill="#bec2c3" fill-opacity=".8" d="M236.6 105.5l4 58.6 5.3 20.9 4.8-16.4z"/><ellipse cx="181" cy="128" fill="#c6bfcb" fill-opacity=".5" rx="9" ry="23"/><ellipse cx="122" cy="169" fill="#c3c8bf" fill-opacity=".5" rx="9" ry="40"/><path fill="#300" fill-opacity=".5" d="M53 133h56v37H53z"/><path fill="#928172" fill-opacity=".8" d="M85 18h19v114H85z"/><path fill="#fff" fill-opacity=".5" d="M229 21h27v26h-27z"/><ellipse cx="144" cy="139" fill-opacity=".5" rx="10" ry="67"/><circle r="1" fill="#5c4f36" fill-opacity=".6" transform="matrix(-2.79295 -6.16936 55.31588 -25.0422 237 11)"/><path fill="#504118" fill-opacity=".5" d="M95 17h28v21H95z"/><circle r="1" fill="#a3888a" fill-opacity=".5" transform="matrix(-6.11916 5.1811 -24.81391 -29.30656 166.9 107.7)"/><path fill="#080a12" fill-opacity=".5" d="M167 150h59v20h-59z"/><circle r="1" fill="#351f0e" fill-opacity=".5" transform="matrix(-14.02504 -29.14188 7.26018 -3.49409 112.2 105.3)"/><path fill="#6a6874" d="M-16 160.7V96.2l11 23 35.1 35.4z"/><path fill="#b9ae9c" fill-opacity=".6" d="M131.9 29.4l2.9 81.3-17.7-30.8-34.9 56.2z"/><path fill="#e4e3d8" fill-opacity=".9" d="M16.3 22.5L-3.6-16-16 21.4 1.7 31.9z"/><path fill="#9a7767" d="M39.2 35.8l-12.9 38 17.1 44.4L2.2 48z"/><ellipse cx="229" cy="119" fill="#828275" fill-opacity=".7" rx="6" ry="52"/><circle cx="3" cy="37" r="8" fill="#000002" fill-opacity=".6"/><path fill="#c0c7d4" fill-opacity=".5" d="M100.1 65.3L82.6-16 41.2 60.5l134.9-30z"/><ellipse cx="43" cy="136" fill="#fff" fill-opacity=".4" rx="3" ry="169"/><path fill="#c1c8d2" fill-opacity=".5" d="M22 76l-38-6 69 108z"/><path fill="#291406" fill-opacity=".5" d="M99 120l22-44 1 47z"/><circle r="1" fill="#860d17" fill-opacity=".6" transform="rotate(-169.6 39.6 72) scale(13.7672 25.35687)"/><path fill="#c1d7f4" fill-opacity=".3" d="M93 1l110 18 59-35z"/><circle r="1" fill="#4b2500" fill-opacity=".5" transform="matrix(3.26724 -8.0656 3.2705 1.32483 55 90.8)"/><path fill="#81633c" fill-opacity=".5" d="M151.1 72.2l51-4-63.2 18.7-15.3-7.4z"/><path fill="#0c162d" fill-opacity=".6" d="M247 118l-2-19-13 31z"/><circle r="1" fill="#c5a38c" fill-opacity=".4" transform="matrix(13.98685 32.26008 -16.39843 7.10979 77.7 100.8)"/><path fill="#000a0d" fill-opacity=".5" d="M85 134h22v36H85z"/><path fill="#85857d" fill-opacity=".5" d="M145.9 185l-9.2-37.2-14.8-20.7-13.4 23z"/><path fill="#d5d4ce" fill-opacity=".9" d="M238.1 20.7l-8.7 15.5 7.3 79.7 2.8-7.5z"/><path fill="#5f5845" fill-opacity=".6" d="M128.1 55.5l-26 17.9 40.8 67-54.8-72.6z"/><path fill="#fcffec" fill-opacity=".2" d="M196.7 67.9l-12.6-27.7-83.8 43.2L170.9 68z"/><path fill="#050001" fill-opacity=".6" d="M-2 51.3L8 56 2 68.7-8 64z"/><ellipse cx="25" cy="28" fill="#c2a076" fill-opacity=".4" rx="14" ry="35"/><path fill="#8d9094" fill-opacity=".6" d="M167 180l-6-43-11 48z"/><path fill="#690001" fill-opacity=".5" d="M107 136l-10-18 1-21z"/><path fill="#9d9275" fill-opacity=".5" d="M53.5 57l-9.9-1.6 9-56.3L62.3.6z"/><path fill="#fdc376" fill-opacity=".2" d="M137.9 129.1l-6.3 4.3 4.7-52.8-19.8 19.1z"/><path fill="#422e25" fill-opacity=".4" d="M62.5 65.4l-51.2-1-1-8.6 12.5 18.5z"/><path fill="#e8f0f3" fill-opacity=".6" d="M120 70l-11-5 2 22z"/><path fill="#dddfe2" fill-opacity=".8" d="M237.8 59.5l33.2-52-42.3 15.7 11.8 29.1z"/><path fill="#c2c5c8" fill-opacity=".5" d="M32 141l20-43 36-13z"/><path fill="#00000c" fill-opacity=".3" d="M141.6 135l58.9-8.5-26.3-4.3-39.1-32.7z"/><path fill="#596071" fill-opacity=".6" d="M242 50h14v53h-14z"/><path fill="#ccc3b7" fill-opacity=".6" d="M77 48h10v39H77z"/><path fill="#4a463b" fill-opacity=".5" d="M189.8 42.9l-7-15.6 27.4-12.2 7 15.6z"/><path fill="#704a21" fill-opacity=".3" d="M110.1 95.1L50.8 65.2l2.2 31 54.5-27.6z"/><ellipse cx="244" cy="161" fill="#e9edea" fill-opacity=".5" rx="4" ry="19"/><path fill="#002335" fill-opacity=".2" d="M33.8 116.5l6.7-4-13-30.3-7.3 21.9z"/><path fill="#7e524a" d="M67.6 103.2l12.9 39.5 5.9 13-10.7-38.8z"/><path fill="#a79199" fill-opacity=".6" d="M157 90.3l8.8-1.4 3.3 20.8-8.9 1.4z"/><path fill="#c2c9ca" fill-opacity=".6" d="M248 75l-11 1-2-37z"/><ellipse cx="224" cy="62" fill="#9c9684" fill-opacity=".6" rx="6" ry="48"/><path fill="#5b3b2c" fill-opacity=".5" d="M162 85.2l13.1-4.8 9 24.4-13.2 4.8z"/><circle r="1" fill="#b9bdc2" fill-opacity=".5" transform="matrix(31.57801 1.71717 -.65776 12.09601 98.6 2.2)"/><path fill="#3c3b3a" fill-opacity=".6" d="M217 82l11 92-38 6z"/></g></svg>