<svg xmlns="http://www.w3.org/2000/svg" viewBox="0 0 300 199"><defs/><path fill="#624538" d="M0 0h300v199H0z"/><g transform="translate(.6 .6) scale(1.17188)"><circle cx="96" cy="9" r="210" fill="#c9d1cb" fill-opacity=".7"/><circle r="1" fill="#5e5448" fill-opacity=".8" transform="matrix(-79.74823 -93.70385 27.3012 -23.23515 173.2 116.8)"/><circle r="1" fill="#f5f3eb" fill-opacity=".6" transform="matrix(47.70207 -28.77573 71.32885 118.24318 36.3 108.9)"/><circle r="1" fill="#05070d" fill-opacity=".7" transform="matrix(-19.28904 -39.2005 13.7597 -6.77062 194.7 124.6)"/><path fill="#6b602a" fill-opacity=".7" d="M49.5 51l5.1 27.3L93.3 59l-39.5-6.4z"/><path fill="#fff4e4" fill-opacity=".5" d="M113.2 56.3l-3.7-1.3-71.4-71 19.6 66.5z"/><ellipse cx="155" cy="163" fill="#807c6f" fill-opacity=".9" rx="35" ry="53"/><ellipse cx="87" fill="#682e15" fill-opacity=".6" rx="14" ry="24"/><circle r="1" fill="#b4b7b1" fill-opacity=".6" transform="rotate(144.7 71.9 39) scale(21.68668 67.25366)"/><path fill="#393f00" fill-opacity=".5" d="M74.8 106.7l35.8-43.8L116 92l2.4-4z"/><path fill="#e0f0f5" fill-opacity=".4" d="M223.8 157.6l29.6 27.4-48.7-9.7 8.4-35.3z"/><circle r="1" fill="#faf3ed" fill-opacity=".4" transform="matrix(-57.4392 30.21968 -13.63411 -25.91465 66.6 145.6)"/><path fill="#4d444d" fill-opacity=".8" d="M211.2 106.7l20.2 19.5-14.6 15-20.2-19.4z"/><circle cx="255" cy="35" r="85" fill="#8e9494" fill-opacity=".6"/><path fill="#d3c9c3" fill-opacity=".9" d="M227.1 128.9l12.2-2.6 27.3 22.8-39.6-5.8z"/><circle r="1" fill="#c0c4c0" fill-opacity=".7" transform="rotate(53.8 -12.4 24.6) scale(31.2475 57.44979)"/><path fill="#fff" fill-opacity=".5" d="M194 113l11 15 5-6z"/><path fill="#a79a84" fill-opacity=".7" d="M128.3 35L144 76.6 73.2 49.8l43.2 5z"/><circle r="1" fill="#7a6952" fill-opacity=".6" transform="rotate(122.8 -44.7 85.2) scale(66.4287 1.69627)"/><path fill="#24191e" fill-opacity=".6" d="M233.9 153.2l-75.1-66.7L254 185l-13.1-47.2z"/><path fill-opacity=".5" d="M202 171l-36-87 29 14z"/><path fill="#fcd7bd" fill-opacity=".5" d="M152 83l11-16-4 32z"/><path fill="#612d13" fill-opacity=".5" d="M120 20l-14 35-17-36z"/><path fill="#efe7d9" fill-opacity=".6" d="M82.2 54.6l-6.1 45.2 16-26.3-1.2-6.1z"/><path fill="#dadcd4" fill-opacity=".5" d="M139 22l-13-38-30 32z"/><path fill="#fff" fill-opacity=".6" d="M215 165h19v5h-19z"/><path fill="#c0b5a8" fill-opacity=".5" d="M104.5 124.5l18.7-18 22.3 23-18.7 18z"/><path fill="#291f00" fill-opacity=".3" d="M63 52l24 3-25 21z"/><path fill="#b9967c" fill-opacity=".5" d="M58 87l35 42-19-4z"/><circle r="1" fill="#7d8382" fill-opacity=".4" transform="matrix(-7.3666 -103.1943 20.04926 -1.43123 249.4 37.7)"/><path fill="#f0eeeb" fill-opacity=".5" d="M58 27h31v23H58z"/><path fill="#5f331f" fill-opacity=".5" d="M153 88l3-31-37 51z"/><path fill="#575658" fill-opacity=".5" d="M223 134l18 33-45-8z"/><path fill="#5a4c3c" fill-opacity=".5" d="M122 148h22v22h-22z"/><circle r="1" fill="#e5ebee" fill-opacity=".6" transform="rotate(12.5 -553.2 78.5) scale(17.01446 39.44298)"/><path fill-opacity=".5" d="M104-4L98 8.7 88 4l6-12.7z"/><path fill="#cac6b4" d="M98.5 94.2l22.7 21.7-44.7-15.6-2.1 11.2z"/><path fill="#968e7e" fill-opacity=".4" d="M171.4 70.8l-7 30.7 28.5 50.2-61.1-40.3z"/><path fill="#68543b" fill-opacity=".6" d="M169.2 141L90.4 84l3.1-19.9 83.6 96.6z"/><path fill="#e3ffff" fill-opacity=".3" d="M260 180l-25-56 30 27z"/><ellipse cx="52" cy="46" fill="#c3b291" fill-opacity=".5" rx="7" ry="30"/><path fill="#644839" fill-opacity=".7" d="M174.5 74.9l-10.6-11.8 4.3 22.9-2.3 17.9z"/><circle r="1" fill="#f3f4f6" fill-opacity=".5" transform="matrix(-6.81993 1.67564 -17.7356 -72.18479 58 128.8)"/><path fill="#342931" fill-opacity=".6" d="M224.2 117.7l2.4 26.5-10.3-.7-12.7-38.5z"/><path fill="#000005" fill-opacity=".4" d="M183.5 91l39.1 23.7-72.2-18.8 29 .8z"/><path fill="#c6b092" fill-opacity=".5" d="M81.9 88.1L107.3 51l-2.1 8.2-12.3 33.3z"/><path fill="#344300" fill-opacity=".4" d="M84 103l-7-7 20-5z"/><circle r="1" fill="#a2a5a1" fill-opacity=".4" transform="rotate(145.1 91.3 60.2) scale(29.25571 69.44019)"/><ellipse cx="106" cy="77" fill="#0a2600" fill-opacity=".4" rx="7" ry="12"/><path fill="#977b60" fill-opacity=".4" d="M126 59l-20 32 27 45z"/><path fill="#eae9e4" fill-opacity=".9" d="M-5.8 185l49.1-71.8 77.4 52.1-.6 12z"/><path fill="#e7a684" fill-opacity=".4" d="M63.5-9.5l26 36.6-16.8-6.4-29.3-34.9z"/><circle r="1" fill="#a8adab" fill-opacity=".5" transform="matrix(18.07707 53.55639 -5.3573 1.80827 4 23)"/><ellipse cx="34" cy="41" fill="#fef6f1" fill-opacity=".4" rx="19" ry="11"/><path fill="#000404" fill-opacity=".3" d="M245.8 146.5l5.4 2.6-7 14.4-5.4-2.6z"/><circle r="1" fill="#909387" fill-opacity=".4" transform="matrix(-5.51772 3.12066 -20.9707 -37.07876 185.5 152.9)"/><circle r="1" fill="#f1f0eb" fill-opacity=".4" transform="matrix(6.92062 7.19159 -9.48747 9.13 75.9 77.7)"/><path fill="#060000" fill-opacity=".3" d="M216.1 123.2l-30.8-19.1 45.2 33.6-37 16z"/><path fill="#e8ecec" fill-opacity=".7" d="M243.3 130.8L230.6 119l-2.4 3.8 42.8 41z"/><path fill="#dab8a4" fill-opacity=".4" d="M110 158l19-19-67-21z"/><circle r="1" fill="#535523" fill-opacity=".6" transform="matrix(12.7244 -.99534 .34533 4.41466 67.4 64)"/><path fill="#998f7d" fill-opacity=".5" d="M52 101l-13 5-10 21z"/><circle cx="93" cy="49" r="15" fill="#d89562" fill-opacity=".2"/><path fill="#564851" fill-opacity=".5" d="M227.7 124.2l-36.3 15.3 19.9-17.6-19.1-22.6z"/><path fill="#eacdbb" fill-opacity=".5" d="M222 125l15 25-2-15z"/></g></svg>