<svg xmlns="http://www.w3.org/2000/svg" viewBox="0 0 300 199"><defs/><path fill="#293a50" d="M0 0h300v199H0z"/><g transform="translate(.6 .6) scale(1.17188)"><circle r="1" fill="#d0d1d3" fill-opacity=".8" transform="matrix(-102.9261 -233.305 67.76018 -29.89345 209 77.7)"/><circle r="1" fill="#97cdee" fill-opacity=".6" transform="rotate(86.4 -15.7 46) scale(128.36547 31.102)"/><ellipse cx="218" cy="153" fill="#8a888c" rx="72" ry="52"/><ellipse cx="89" cy="101" fill="#0c0300" fill-opacity=".7" rx="31" ry="73"/><circle r="1" fill="#ddebf7" fill-opacity=".6" transform="matrix(-57.60293 -56.60624 40.47314 -41.18577 166.4 19.5)"/><ellipse cx="208" cy="110" fill="#0b0903" fill-opacity=".6" rx="58" ry="5"/><path fill="#71320a" fill-opacity=".5" d="M154 112L40-16l70 32z"/><path fill="#84afca" fill-opacity=".6" d="M13 49l51 136 6-59z"/><path fill="#cdcbd2" fill-opacity=".6" d="M164 113h37v57h-37z"/><circle r="1" fill="#7da4c0" transform="rotate(144.3 17.1 25.4) scale(20.69365 26.91466)"/><path fill="#4d2b19" fill-opacity=".4" d="M237 9h19v45h-19z"/><circle r="1" fill="#070a0f" fill-opacity=".6" transform="matrix(-19.68203 15.212 -53.24683 -68.89335 112 140.4)"/><circle cx="154" cy="161" r="12" fill="#c9e5ff" fill-opacity=".4"/><path fill="#3f4e5b" fill-opacity=".5" d="M152 22h12v32h-12z"/><ellipse cx="72" fill="#0a0400" fill-opacity=".8" rx="16" ry="30"/><ellipse cx="205" cy="141" fill="#282c2b" fill-opacity=".7" rx="3" ry="35"/><ellipse cx="9" cy="59" fill="#47759a" fill-opacity=".6" rx="13" ry="102"/><ellipse cx="179" cy="2" fill="#f4f6f8" fill-opacity=".6" rx="57" ry="24"/><path fill="#8f715f" fill-opacity=".5" d="M225 102l46 6-39-47z"/><path fill="#385f7d" fill-opacity=".5" d="M140 77L96 56l64 94z"/><ellipse cx="180" cy="77" fill="#bdd4e7" fill-opacity=".8" rx="37" ry="27"/><path fill="#f2eff1" fill-opacity=".6" d="M4-16l51 2v28z"/><path fill="#c39079" fill-opacity=".5" d="M135.8 67.9L123.2 74l-35-71.9L100.8-4z"/><circle r="1" fill="#050505" fill-opacity=".5" transform="matrix(60.30295 7.77806 -.22628 1.75435 233.8 153.3)"/><ellipse cx="197" cy="41" fill="#717472" fill-opacity=".5" rx="6" ry="18"/><path fill="#b9e4ff" fill-opacity=".5" d="M173 137l13-23-50-5z"/><path fill="#294666" fill-opacity=".6" d="M153 141.1L137.6 185l9.9-67.7 28.9 30.4z"/><circle r="1" fill="#798591" fill-opacity=".8" transform="rotate(-29.4 328.7 2.5) scale(32.47419 15.79981)"/><path fill="#331505" fill-opacity=".6" d="M65 101l48 84-49-49z"/><path fill="#f1efef" fill-opacity=".5" d="M200 33h56v9h-56z"/><ellipse cx="49" cy="69" fill="#8ab6d4" fill-opacity=".7" rx="7" ry="62"/><ellipse cx="75" cy="81" fill="#00000a" fill-opacity=".5" rx="21" ry="29"/><ellipse cx="168" cy="107" fill="#453826" fill-opacity=".7" rx="18" ry="3"/><circle r="1" fill="#fee3c5" fill-opacity=".6" transform="rotate(148.9 113.8 67.3) scale(9.22266 14.15587)"/><path fill="#360b00" fill-opacity=".5" d="M238 20h18v13h-18z"/><path fill="#cde4f2" fill-opacity=".7" d="M156 33L127 4l-23 28z"/><path fill="#f3f0f5" fill-opacity=".3" d="M201 11h25v97h-25z"/><ellipse cy="142" fill="#2e4c70" fill-opacity=".4" rx="32" ry="21"/><path fill="#7bafcf" fill-opacity=".8" d="M57 185l13.9-37.9-15.9 8.7L41.5 185z"/><circle r="1" fill="#71abd1" fill-opacity=".3" transform="rotate(-130.5 37.6 44) scale(44.20749 24.26056)"/><path fill="#411300" fill-opacity=".5" d="M113 34l-12 14 21-9z"/><ellipse cx="233" cy="111" fill="#1f1f20" fill-opacity=".5" rx="47" ry="5"/><path fill="#162433" fill-opacity=".7" d="M141.3 106.6l-8.1-33.8-16.6 44.9-15.7-46.8z"/><path fill="#454543" fill-opacity=".9" d="M204.4 112.2l-5.3 72.8 13.1-69.4-54.4-9z"/><path fill="#fcede1" fill-opacity=".5" d="M203 115.5l2 .3-4 24.7-2-.3z"/><path fill="#000106" fill-opacity=".5" d="M75.7 125.4l64.4 30.5 7.1-28.3L54.4 93z"/><circle r="1" fill="#502810" fill-opacity=".5" transform="matrix(-5.30847 -4.34493 13.2204 -16.15217 84.8 19.7)"/><path fill="#827e76" fill-opacity=".5" d="M228.9 54.5l29.6-22-24.8 7.2L238 66z"/><circle r="1" fill="#9c9596" fill-opacity=".9" transform="matrix(-7.74712 8.54388 -12.71818 -11.53214 249.5 4.7)"/><path fill="#955e2d" fill-opacity=".4" d="M229 71l6 15 36-5z"/><path fill="#b9a6a1" fill-opacity=".5" d="M210 117h28v33h-28z"/><path fill="#34516a" fill-opacity=".2" d="M-16-8h52l6 68z"/><path fill="#070002" fill-opacity=".7" d="M67 160h44v10H67z"/><path fill="#a47360" fill-opacity=".3" d="M93.8 13.4l1.5 40.5-15.9-22.8 41.9 16.2z"/><path fill="#7fa1c0" fill-opacity=".5" d="M147.3 77.9l11.1 59.2-10.9-14.1-10.2-19.4z"/><path fill="#eba98d" fill-opacity=".5" d="M130 58l-9 18-5-15z"/><circle cx="150" cy="137" r="13" fill="#0e365b" fill-opacity=".4"/><path fill="#353438" fill-opacity=".3" d="M174.1 185L98 135.7l-54.1 23.8 7.5-16.5z"/><path fill="#dee6ee" fill-opacity=".9" d="M236.4 9.3L163.3-8.1l56.8 57.4 15.1-7.8z"/><path fill="#2b2017" fill-opacity=".4" d="M249 140l15 34-10 1z"/><path fill="#bfdaed" fill-opacity=".7" d="M120.5-16L100.9-1.8 117.3 35 163 89.4z"/><path fill="#8cb4cf" fill-opacity=".9" d="M55.9 12.2l10.7 17.1-12.1 51.8-8.3 12.6z"/><path fill="#fffcf0" fill-opacity=".6" d="M136 0h17v31h-17z"/><path fill="#9b3600" fill-opacity=".4" d="M121.2 74l12.1-7 7.5 13-12.1 7z"/><path fill="#04060c" fill-opacity=".8" d="M85.2 41.8L69.1 73l16.4 17.7-21.9-72.9z"/></g></svg>