<svg xmlns="http://www.w3.org/2000/svg" viewBox="0 0 300 199"><defs/><path fill="#375130" d="M0 0h300v199H0z"/><g transform="translate(.6 .6) scale(1.17188)"><circle r="1" fill="#cebbba" fill-opacity=".7" transform="rotate(10.1 -674.4 875.9) scale(119.39102 255.00001)"/><circle r="1" fill="#563927" fill-opacity=".7" transform="rotate(-78.7 108.8 -80.5) scale(36.63841 62.55212)"/><ellipse cx="215" fill="#e3ffff" fill-opacity=".6" rx="39" ry="27"/><circle r="1" fill="#c7cdcd" fill-opacity=".7" transform="matrix(-15.62013 176.16706 -21.42857 -1.9 65.5 77)"/><circle r="1" fill="#000040" fill-opacity=".5" transform="rotate(-32.7 248.8 -121) scale(9.49578 36.14438)"/><circle r="1" fill="#f3f3ff" fill-opacity=".4" transform="matrix(56.8525 -49.07376 17.22439 19.95465 128.3 168.9)"/><circle r="1" fill="#150400" fill-opacity=".5" transform="rotate(-37.4 117 -232.9) scale(17.25777 37.9604)"/><ellipse cx="42" cy="169" fill="#cfcbbf" fill-opacity=".7" rx="47" ry="23"/><path fill="#93aea9" fill-opacity=".6" d="M46-6.6l33.3 47.5L54 58.6 20.7 11.1z"/><circle r="1" fill="#072100" fill-opacity=".4" transform="matrix(-20.33158 -10.4042 20.31845 -39.70573 22.6 72.9)"/><path fill="#dbd9d5" fill-opacity=".7" d="M203.8 80.3l-41-1.3 85.9-7.7L271 95.4z"/><circle r="1" fill="#a97155" fill-opacity=".7" transform="matrix(6.33694 25.2284 -34.35662 8.62979 126.2 55.4)"/><ellipse cx="109" cy="118" fill="#250636" fill-opacity=".4" rx="15" ry="29"/><circle cx="177" cy="123" r="44" fill="#d2bba9" fill-opacity=".4"/><path fill="#0c412c" fill-opacity=".4" d="M238 65L199 6l8 69z"/><path fill="#f3fbff" fill-opacity=".6" d="M213 0h19v33h-19z"/><circle r="1" fill="#a2c886" fill-opacity=".5" transform="matrix(22.0552 -40.31543 22.05848 12.06744 231.7 132)"/><circle cx="73" cy="117" r="26" fill="#f9f2ff" fill-opacity=".2"/><ellipse cx="99" cy="13" fill="#8c8f9b" fill-opacity=".6" rx="27" ry="18"/><circle r="1" fill="#172300" fill-opacity=".3" transform="matrix(.01246 35.092 -36.65915 .01302 0 107)"/><path fill="#dfd6ee" fill-opacity=".6" d="M80 69l24 26 8-10z"/><path fill="#b5cacf" fill-opacity=".8" d="M55.8-16l14.7 37.3-37.4 8.1 25.4 15.2z"/><path fill="#840000" fill-opacity=".6" d="M111.5 86.4l10 16-5 3.2-10-16z"/><path fill="#292732" fill-opacity=".4" d="M86 140.6l23.9-12.7 6 11.5-23.8 12.7z"/><ellipse cx="140" cy="137" fill="#c7cdce" fill-opacity=".7" rx="12" ry="30"/><path fill="#b59890" fill-opacity=".6" d="M210 100l-13.3 39.3-50.4-16.8 37.3-64.2z"/><circle r="1" fill="#5c8945" fill-opacity=".5" transform="matrix(31.47692 -18.0018 6.57955 11.50464 242.8 169)"/><ellipse cx="19" cy="22" fill="#678c93" fill-opacity=".4" rx="10" ry="20"/><path fill="#99a18c" fill-opacity=".4" d="M57.6 9L44.7 160.8 2.1 146.9l22-18z"/><circle r="1" fill="#c9beb5" fill-opacity=".6" transform="matrix(18.19754 6.14244 -8.40989 24.91507 79.6 49)"/><path fill="#613525" fill-opacity=".6" d="M150.9 56.8l-40.6-3.9 9.5-28.7-1.3 20.3z"/><path fill="#b00" fill-opacity=".4" d="M113 98l14 32 1-14z"/><path fill="#82816e" fill-opacity=".6" d="M178.2 14.4l39 8.5-14.5 18.7 4 6.7z"/><path fill="#1d5645" fill-opacity=".3" d="M231.6 8.8l2.1 40.7-29.9-3 45.6-20.7z"/><path fill="#041200" fill-opacity=".5" d="M-4.3-3l20.9 9.7L4.3 33l-20.9-9.7z"/><circle r="1" fill="#acbe90" fill-opacity=".7" transform="matrix(19.02852 .84794 -.63788 14.31465 136.2 90.3)"/><path fill="#003866" fill-opacity=".2" d="M87.9 118.6L76.6 82.5l6.1-9.4 59.6 76.7z"/><path fill="#fff5ff" fill-opacity=".3" d="M128.7 4.3l30.2-5L109.4-16l20.2 33.1z"/><path fill="#e38a66" fill-opacity=".2" d="M160.2 70.2l-3.6 28.1-43.2-74 62.1 21.9z"/><path fill="#e2f9ff" fill-opacity=".4" d="M28.6 12.9l30.7 2.9 43-31.8L50.2 9.6z"/><path fill="#e8f3ff" fill-opacity=".5" d="M183 0h68v12h-68z"/><path fill="#231814" fill-opacity=".6" d="M185 47l-40-23 26-33z"/><path fill="#fff1ff" fill-opacity=".6" d="M108.4 98.5l12 18.5-.8.5-12-18.5z"/><path fill="#204a2f" fill-opacity=".5" d="M36 15l20 11-3-10z"/><path fill="#742e16" fill-opacity=".5" d="M161 85.2l-7.5-8L171 60.8l7.5 8z"/><path fill="#052215" fill-opacity=".4" d="M186 63h37v8h-37z"/><path fill="#5f5451" fill-opacity=".8" d="M143.4-6.4L111.6 31l61.1-33.6-30.5 7z"/><path fill="#8da769" fill-opacity=".5" d="M197.4 111.4l46.4-16.7-18.5-10.6-26.3-3.8z"/><ellipse cx="120" cy="164" fill="#c6d1dc" fill-opacity=".4" rx="43" ry="13"/><path fill="#302a27" fill-opacity=".3" d="M151.3 53.7l-10.2-9.3-14.9 29.4-13.6-6.5z"/><path fill="#2e4b36" fill-opacity=".5" d="M217 29.7l14 15.9-37.5-31.9 31.8 59.7z"/><path fill="#cde7fd" fill-opacity=".5" d="M41 32l31 2-35-13z"/><path fill="#294e31" fill-opacity=".4" d="M30.8 17.4l-14.6-6 14.1 77 17.9-36.1z"/><ellipse cx="68" cy="95" fill="#cdd6e6" fill-opacity=".8" rx="9" ry="12"/><path fill="#d4dabd" fill-opacity=".5" d="M207 128h49v6h-49z"/><path fill="#192e0b" fill-opacity=".6" d="M44.7 48.5L-16 80.4l12.7-33.6 24.8-7.1z"/><path fill="#d9d9ca" fill-opacity=".4" d="M-.2 169.1l36.4-16.5 8.6 4.8 80.8 27.6z"/><path fill="#9f918b" fill-opacity=".3" d="M70.5 153.7L82.2 74l18.8 51.8-15.6 49z"/><circle r="1" fill="#ad6d67" fill-opacity=".5" transform="matrix(5.04556 -11.27948 7.95456 3.55824 187.8 163.5)"/><path fill="#676c5d" fill-opacity=".5" d="M-16 185l47-49.6-1.7-18.1-33.5 46z"/><path fill="#b2cfe0" fill-opacity=".2" d="M18.7 43.5l9.9-10.3-11.3-31 16.9 10.5z"/><path fill="#d3e6f4" fill-opacity=".8" d="M252.1 10.6l-3.8 12.6L209.1-16 249.4-.2z"/><path fill="#cfc0d0" fill-opacity=".5" d="M115 106.7l-2.4 1.9L99 91.3l2.4-1.9z"/><path fill="#79ab53" fill-opacity=".3" d="M120 97l31-6-21 30z"/><path fill="#b3ac9a" fill-opacity=".4" d="M184.9 52l17.6 7.5-22.9 7.5 15.5 58.3z"/></g></svg>