<svg xmlns="http://www.w3.org/2000/svg" viewBox="0 0 300 199"><defs/><path fill="#623d32" d="M0 0h300v199H0z"/><g transform="translate(.6 .6) scale(1.17188)"><circle r="1" fill="#f6f7f7" fill-opacity=".5" transform="rotate(-142.7 106 36) scale(255 83.58273)"/><ellipse cx="239" fill="#edf5f1" fill-opacity=".8" rx="20" ry="22"/><circle r="1" fill="#000c3f" fill-opacity=".8" transform="rotate(15.9 -389 510.9) scale(10.36669 34.40636)"/><circle r="1" fill="#dff1fc" fill-opacity=".6" transform="matrix(-15.2457 -43.53488 23.55476 -8.24876 79.8 17.8)"/><circle r="1" fill="#e2eaf4" fill-opacity=".7" transform="matrix(28.3845 25.52829 -24.96087 27.7536 167.8 169)"/><circle cx="60" cy="99" r="55" fill="#7e5543" fill-opacity=".5"/><ellipse cx="194" cy="33" fill="#180b00" fill-opacity=".7" rx="22" ry="27"/><path fill="#d2beb6" fill-opacity=".8" d="M268 126l-41-75-126 31z"/><circle r="1" fill="#d2ecf4" fill-opacity=".7" transform="rotate(90.6 -14.3 19) scale(51.09582 22.70765)"/><circle r="1" fill="#090e28" fill-opacity=".9" transform="matrix(23.78338 10.9675 -13.8932 30.12788 28.2 163.7)"/><circle r="1" fill="#410800" fill-opacity=".4" transform="rotate(-110.1 85.9 -15.6) scale(11.05247 37.79443)"/><path fill="#ddc8c3" fill-opacity=".6" d="M27 110l-15 35-16-49z"/><circle r="1" fill="#804e37" fill-opacity=".5" transform="matrix(17.30155 24.89366 -10.05395 6.98768 165.5 73)"/><path fill="#143567" fill-opacity=".7" d="M99.6 105.9l35.8-16.7 13.9 11.7-9.2 24.4z"/><path fill="#67432d" fill-opacity=".5" d="M62 31L23 41l8 83z"/><circle r="1" fill="#d9dde1" fill-opacity=".4" transform="matrix(64.7835 -86.952 9.53664 7.10526 178 121.6)"/><path fill="#f5feff" fill-opacity=".6" d="M121.8 72.1l28.3-4.5 14.1 39.4-31.9-19.6z"/><circle cx="84" cy="51" r="21" fill="#e3e5e8" fill-opacity=".5"/><circle r="1" fill="#a57a6a" fill-opacity=".8" transform="matrix(-22.87479 -3.5412 4.72343 -30.51147 126.4 25.5)"/><circle r="1" fill="#9c6151" fill-opacity=".4" transform="matrix(18.3027 -8.49583 21.06547 45.38166 229.6 138.4)"/><path fill="#906653" fill-opacity=".9" d="M57 83h22v87H57z"/><path fill="#345b35" fill-opacity=".5" d="M231 74l8-62 32 9z"/><ellipse cx="96" cy="136" fill="#e0b9b8" fill-opacity=".4" rx="17" ry="22"/><circle r="1" fill="#170b01" fill-opacity=".6" transform="rotate(159 90.3 30.5) scale(9.70173 40.4191)"/><circle r="1" fill="#b7cdd3" fill-opacity=".7" transform="rotate(83.9 21.5 24) scale(17.22805 70.64739)"/><circle cx="111" cy="10" r="7" fill="#080000" fill-opacity=".5"/><path fill-opacity=".4" d="M123 152L99 86l31 29z"/><circle r="1" fill="#092d10" fill-opacity=".6" transform="rotate(64.9 67.4 238.7) scale(23.8951 11.05694)"/><circle r="1" fill="#876553" fill-opacity=".7" transform="matrix(-3.39829 2.95934 -23.33824 -26.79988 169.3 35.4)"/><path fill="#fdffff" fill-opacity=".4" d="M42 102l16-13-19-1z"/><path fill="#f0d1c6" fill-opacity=".5" d="M141.4 10.1L127.8-16l-11 40.7 12.7-3.7z"/><path fill="#3d0f00" fill-opacity=".3" d="M95.3 85.7l35.2-41.1-70.3 45.6 68.6 25.7z"/><path fill="#fff" fill-opacity=".6" d="M133.8 83l-14.3 20.4-3.3-2.3 14.3-20.5z"/><path fill="#563123" fill-opacity=".4" d="M206.7 153.5l-16.3-13.6 26.7 5.9 28.3 35.9z"/><path fill="#3e1d04" fill-opacity=".3" d="M25.2 36.2l40-2.6-3.7 11.6-37.1 5.2z"/><path fill="#fdfefb" fill-opacity=".3" d="M242.4 44.7l-17.8-26.2 46.4-2.9-49.6-30.7z"/><path fill="#d7e9ea" fill-opacity=".6" d="M15.7 71.6l-.4-23 11-.2.4 23z"/><path fill="#d0bfbd" fill-opacity=".5" d="M196 98l21 31-94 17z"/><path fill="#535034" fill-opacity=".5" d="M-2.3 83.6l18 2.6-4.5-32.4 34.1 69.5z"/><path fill="#f4e7df" fill-opacity=".5" d="M201.1 75.9l5.4-22.4 12.1 2.8 52.4 59.8z"/><path fill="#a78475" fill-opacity=".8" d="M157.7 99l3.1 27.8 18.3-24 6.5-28.2z"/><path fill="#eae6e9" fill-opacity=".6" d="M26 119l-13 20 2-25z"/><ellipse cx="115" cy="160" fill="#000005" fill-opacity=".5" rx="3" ry="41"/><circle r="1" fill="#2c1d12" fill-opacity=".5" transform="matrix(39.91126 34.80604 -12.45114 14.27742 182.6 16.1)"/><path fill="#a07b68" fill-opacity=".8" d="M37.7 96.5l4.8-85.7-2.7 32.1 33.4 35.5z"/><path fill="#c9b6b5" fill-opacity=".4" d="M102.1 193.2l44.6-83.9 29.2 15.5-44.6 83.9z"/><path fill="#031311" fill-opacity=".6" d="M74 136h4v29h-4z"/><path fill="#14050f" fill-opacity=".5" d="M-16 185l53-30.9L23.7 185 6.5 125.6z"/><path fill="#ab8a86" fill-opacity=".8" d="M105.2 153.5l21 31.5H35.9l72.6-43.1z"/><path fill="#754c40" fill-opacity=".5" d="M124 78l2-50-22 4z"/><path fill="#fff" fill-opacity=".5" d="M112 134l-8-7 4 23z"/><path fill="#a56c56" fill-opacity=".5" d="M81 137l35-73-86 61z"/><path fill="#3b462c" fill-opacity=".7" d="M228.1 65.9l39.8-38.4 3.1.6-28.9 53.5z"/><path fill="#d8dce3" fill-opacity=".6" d="M241 185l-95-45h44z"/><path fill="#66523b" fill-opacity=".4" d="M211.2-16l-31.3 36 55 14-7.2-17.3z"/><circle r="1" fill="#bc8e73" fill-opacity=".5" transform="matrix(-5.46714 8.85872 -29.3606 -18.11984 162.3 48.4)"/><path fill="#031600" fill-opacity=".3" d="M42 36.4l12.8 28.9 5-.3L39.3 8.5z"/><path fill="#806052" fill-opacity=".5" d="M-16 75.4l25.5 83.7 3.1-89.4L35 132z"/><path fill="#835544" fill-opacity=".4" d="M135.5 60.6l22-44 13.3 92.4-12.2-29.5z"/><path fill="#111b39" fill-opacity=".8" d="M16.9 136.3l10.3-15.8L69.7 185l-41.6-39.5z"/><path fill="#bba29a" fill-opacity=".6" d="M62 69l28 7-10-40z"/><path fill="#eef5fa" fill-opacity=".5" d="M84 41h26v14H84z"/><path fill="#fff" fill-opacity=".5" d="M209.5 62.2l20.1-11.1 4.9 8.7-20.1 11.1z"/><path fill="#eff1f0" fill-opacity=".9" d="M164.4 91.2l-14.7 9.8-22-27.8 13.9-5.5z"/><path fill="#c3ffcc" fill-opacity=".5" d="M58 27H37l-3 9z"/></g></svg>