<svg xmlns="http://www.w3.org/2000/svg" viewBox="0 0 300 199"><defs/><path fill="#563c31" d="M0 0h300v199H0z"/><g transform="translate(.6 .6) scale(1.17188)"><circle r="1" fill="#dbe9e8" fill-opacity=".6" transform="rotate(-123 58.3 .3) scale(90.36424 254.60948)"/><circle cx="25" cy="29" r="70" fill="#eef2f3"/><ellipse cx="132" cy="114" fill="#5c5449" fill-opacity=".8" rx="86" ry="31"/><circle r="1" fill="#7b7970" fill-opacity=".6" transform="rotate(96.7 94.5 150.6) scale(58.70591 167.99499)"/><path fill="#c9d3d8" fill-opacity=".6" d="M6 136h91v34H6z"/><circle r="1" fill="#06100f" fill-opacity=".5" transform="matrix(-94.12996 -13.65485 3.40885 -23.499 189.3 162.7)"/><circle r="1" fill="#14160e" fill-opacity=".6" transform="matrix(-20.55667 11.37277 -6.01594 -10.87403 207.5 104.1)"/><ellipse cx="239" cy="37" fill="#928f8a" fill-opacity=".9" rx="17" ry="51"/><circle r="1" fill="#fffaf1" fill-opacity=".6" transform="rotate(99.4 35.1 93.3) scale(20.03742 5.77463)"/><path fill="#31322d" fill-opacity=".5" d="M93 59h20v62H93z"/><ellipse cx="67" cy="64" fill="#e4e9ea" fill-opacity=".4" rx="27" ry="42"/><ellipse cx="54" cy="124" fill="#686456" fill-opacity=".5" rx="46" ry="13"/><path fill="#0b0000" fill-opacity=".6" d="M156 51.4l-11-13 7-5.8 11 13z"/><ellipse cx="153" cy="116" fill="#66584e" fill-opacity=".9" rx="42" ry="27"/><path fill="#60503b" fill-opacity=".6" d="M137 44l-17 18 4-77z"/><circle r="1" fill="#b4c1c8" fill-opacity=".5" transform="matrix(1.87632 -7.99554 32.04183 7.51929 252.5 123.4)"/><path fill="#000800" fill-opacity=".6" d="M230 83.1l-9.7 5.2L210 68.9l9.7-5.2z"/><path fill="#aab1b5" fill-opacity=".4" d="M71.4 115.2L-4 123.7l-3.3-30.2 71.5-15.4z"/><circle r="1" fill="#e5ebec" fill-opacity=".6" transform="matrix(8.25286 15.45623 -12.64566 6.75215 26.7 155.4)"/><ellipse cx="98" cy="31" fill="#58605c" fill-opacity=".4" rx="6" ry="32"/><path fill="#edf1f1" fill-opacity=".9" d="M94.1-16l-30 104.3 27.2-15.4V55.7z"/><path fill="#877265" fill-opacity=".6" d="M146.3 144.4l-16.7-3 14-79.8 16.8 3z"/><ellipse cx="217" cy="143" fill="#2c3233" fill-opacity=".6" rx="54" ry="14"/><path fill="#575249" fill-opacity=".8" d="M240.7 51.9l30.3 69.4-6.1-23.5-17.7 16.4z"/><path fill="#1f1a14" fill-opacity=".4" d="M271 175.8L78 125.7l11.6-20.9 12.5 66.1z"/><path fill="#9fa3a4" fill-opacity=".6" d="M58 134h37v35H58z"/><path fill="#b2b0aa" fill-opacity=".4" d="M97.4 35L193.7-.8l-43.4 95.6 10.5-61.1z"/><path fill="#ded3cb" fill-opacity=".6" d="M110 97.1l14.8-16.9 2.9-20.9 14.1 18.6z"/><path fill="#260a00" fill-opacity=".2" d="M166 146.7L163.7 85l66.4-13.9-84.8-8.9z"/><path fill="#bdc0ca" fill-opacity=".4" d="M234.7 35.8L230.5 88l-2.5 5.6 16.5-14.5z"/><ellipse cx="124" cy="43" fill="#4a3e2a" fill-opacity=".7" rx="2" ry="36"/><ellipse cx="24" cy="24" fill="#fff" fill-opacity=".6" rx="16" ry="50"/><path fill="#ffe6d5" fill-opacity=".5" d="M144.5 63.6l-17.2 5.2-3.8-12.4 17.2-5.2z"/><path fill="#e2e5e9" fill-opacity=".6" d="M5.9 113.8l16.2-16.1L-.6 37.9l-14 67.4z"/><path fill="#757369" fill-opacity=".4" d="M60 132l-76 8 130-73z"/><path fill="#969fa3" fill-opacity=".6" d="M123.3 63l-2.2-37.2-21.2-37.1 3.8 85.6z"/><path fill="#301400" fill-opacity=".5" d="M151.2 33.1l-12.7 20-8.4-9.8h29.1z"/><path fill="#fdf1f9" fill-opacity=".3" d="M151.7 55.9l6.2 11.2 10.5 1.3-3.6-18.2z"/><circle r="1" fill="#96938b" fill-opacity=".7" transform="matrix(-55.31169 23.3657 -11.09015 -26.2528 227.3 19)"/><path fill-opacity=".5" d="M111 59h2v52h-2z"/><path fill="#000200" fill-opacity=".7" d="M201.8 97.3l5.7 10.9-5.9 13.5-5.5-10.2z"/><circle r="1" fill="#190a00" fill-opacity=".7" transform="matrix(.98631 8.21024 -105.60272 12.68626 215.2 169)"/><path fill="#2d3435" fill-opacity=".5" d="M98 134h31v36H98z"/><path fill="#3c3832" fill-opacity=".5" d="M191 151l-23 12 7-81z"/><path fill="#ebf5ed" fill-opacity=".1" d="M147.8 135.3l-41.4 15.3 61.1-33.4-61.6 13z"/><path fill="#8b9388" fill-opacity=".2" d="M155.8 106.9l35.3-49.7 31.4 27.3-20.9 16z"/><path fill="#423d33" fill-opacity=".6" d="M87 116.7l10.9-49.4 9.6 41.3 17 5.2z"/><path fill="#c2c6c9" fill-opacity=".3" d="M97.1 164l-32.6-23.6 28.2-9.9 6.6 23.1z"/><circle r="1" fill="#dce0e6" fill-opacity=".5" transform="rotate(-24 357 75.7) scale(25.08381 6.56608)"/><path fill="#3a2b19" fill-opacity=".6" d="M163 82l-4 25-3-27z"/><circle r="1" fill="#777d7a" fill-opacity=".4" transform="matrix(-8.62735 .29247 -.57798 -17.04906 66.2 166)"/><path fill="#160300" fill-opacity=".3" d="M170.9 170.2l-2.6-2.1-27.9-37.3 21.8.6z"/><ellipse cx="222" cy="89" fill="#22200f" fill-opacity=".5" rx="7" ry="21"/><path fill="#feffff" fill-opacity=".4" d="M178 83h22v3h-22z"/><path fill="#613321" fill-opacity=".5" d="M152 60l-1 23-8-30z"/><ellipse cx="255" cy="124" fill="#b1bec7" fill-opacity=".3" rx="17" ry="13"/><path fill="#909594" fill-opacity=".4" d="M46.8 82.5l-3.1 47.9-59.7-.2 90.3-31.6z"/><path fill="#787970" fill-opacity=".4" d="M207 108h42v13h-42z"/><path fill="#a6a5a5" fill-opacity=".5" d="M133.5 95.7l-13.2-16.5 2.6-50.3-9.9 59.9z"/><path fill="#e1d2c2" fill-opacity=".3" d="M171.5 94.1l-1.8-15.7-7.2-1.8-12.5-9z"/><path fill="#948b7e" fill-opacity=".5" d="M89 124h23v10H89z"/><path fill="#4e1d0b" fill-opacity=".6" d="M131.9 120.6L127.2 94l3-.6 4.6 26.6z"/><path fill="#90502f" fill-opacity=".5" d="M141 39l19 8-4 8z"/><path fill="#838480" fill-opacity=".5" d="M102 52h8v47h-8z"/><path fill="#5f5d52" fill-opacity=".5" d="M208.5 75.7L220.7 62l-25.6-8.8 55.4 66.2z"/></g></svg>