<svg xmlns="http://www.w3.org/2000/svg" viewBox="0 0 300 199"><defs/><path fill="#4a2926" d="M0 0h300v199H0z"/><g transform="translate(.6 .6) scale(1.17188)"><circle r="1" fill="#ebfcff" fill-opacity=".6" transform="matrix(3.20332 -36.61413 173.85102 15.21 112 0)"/><circle cx="125" cy="151" r="123" fill="#857474" fill-opacity=".7"/><circle r="1" fill="#eac2d0" fill-opacity=".7" transform="matrix(-.62377 21.27305 -23.85542 -.69949 105 56.7)"/><path fill="#bbc7ba" fill-opacity=".7" d="M122 134L57 82l34 103z"/><path fill="#240200" fill-opacity=".5" d="M125 36h37v134h-37z"/><ellipse cx="172" cy="169" fill="#e0d2c4" fill-opacity=".6" rx="10" ry="64"/><circle r="1" fill="#001412" fill-opacity=".5" transform="rotate(-95.8 90.1 54.6) scale(58.19204 14.14402)"/><path fill="#a4c6ff" fill-opacity=".5" d="M174 37h63v8h-63z"/><path fill="#1b0000" fill-opacity=".5" d="M216 130l25-19-34-87z"/><ellipse cx="255" cy="124" fill="#bab0c1" fill-opacity=".6" rx="32" ry="10"/><ellipse cx="92" cy="66" fill="#bb6483" fill-opacity=".8" rx="52" ry="11"/><circle r="1" fill="#bbb3b4" fill-opacity=".5" transform="matrix(-4.15629 -29.24964 5.63338 -.80049 232.3 48.8)"/><circle r="1" fill="#041014" fill-opacity=".6" transform="matrix(-22.34005 -7.38826 4.24512 -12.83606 60 45)"/><ellipse cx="217" cy="169" fill="#3a161e" rx="7" ry="56"/><ellipse cx="18" cy="152" fill="#81bab5" fill-opacity=".5" rx="11" ry="36"/><ellipse cx="68" cy="11" fill="#c9c9c1" fill-opacity=".7" rx="113" ry="16"/><path fill="#3f110c" fill-opacity=".5" d="M175 104h21v38h-21z"/><path fill="#a996a5" fill-opacity=".5" d="M201 36l-27 10 29 90z"/><circle r="1" fill="#00030c" fill-opacity=".5" transform="rotate(-165.9 127.6 6.8) scale(9.12293 29.62194)"/><ellipse cx="28" cy="60" fill="#dbc3b6" fill-opacity=".5" rx="24" ry="4"/><ellipse cx="102" cy="140" fill="#d9d4c7" fill-opacity=".5" rx="7" ry="48"/><path fill="#210704" fill-opacity=".7" d="M121 124.4l44.4-38.1-4.9-50.1 16.6 20.9z"/><path fill="#7a5b58" d="M147.8 159.2l49.1-111.8-43.5 51 .6 37.7z"/><path fill="#e2fbee" fill-opacity=".6" d="M78.6 56.5l50.8-1-17.1-19.4-22.9 3.7z"/><path fill="#fff" fill-opacity=".6" d="M58.8 137l8 1.1-1.6 10.9-8-1.1z"/><circle r="1" fill="#200" fill-opacity=".5" transform="rotate(159.5 58.7 64.6) scale(9.01669 40.65415)"/><ellipse cx="11" cy="41" fill="#111419" fill-opacity=".6" rx="76" ry="15"/><path fill="#858d85" fill-opacity=".7" d="M105 115L62 79l14 82z"/><path fill="#000100" fill-opacity=".5" d="M67 129h8v41h-8z"/><path fill="#ff57b0" fill-opacity=".5" d="M11 84h9v34h-9z"/><path fill="#b7a39d" d="M123.7 93.5L103.9 74l2.5-53.6-2.3 73.5z"/><ellipse cx="149" cy="36" fill="#b6b1a0" fill-opacity=".7" rx="3" ry="25"/><ellipse cx="3" cy="107" fill="#04050b" fill-opacity=".5" rx="8" ry="35"/><path fill="#252e2e" fill-opacity=".5" d="M32 78h29v49H32z"/><path fill="#d0a291" fill-opacity=".3" d="M14.2 141.5L2.6 117l-17 68 59.8-48.2z"/><path fill="#010008" fill-opacity=".6" d="M240 143l15-10 8 52z"/><path fill="#6a84e2" fill-opacity=".5" d="M201.2 39.4l-2.6 18.8-25.8-3.6 2.6-18.8z"/><path fill="#cfbbb9" fill-opacity=".7" d="M65.4 114.3L58 56.9l18 70.7-11.3 1.2z"/><ellipse cx="211" cy="117" fill="#ffcfb1" fill-opacity=".7" rx="2" ry="18"/><path fill="#362d2f" fill-opacity=".7" d="M81 94L68 73l1 31z"/><path fill="#008c8b" fill-opacity=".5" d="M31.6 136.1l4.3-7.9-18.7-14.8-3 28.9z"/><circle r="1" fill="#f4f1eb" fill-opacity=".5" transform="matrix(5.33944 2.56027 -9.12305 19.02608 98 143.2)"/><path fill="#c47a93" fill-opacity=".7" d="M226.5 121.1l35.4 69.5-4.4 2.3-35.4-69.5z"/><path fill="#816d3e" fill-opacity=".4" d="M259 20.7l-77.4 9.5-.6-5 77.4-9.4z"/><path fill="#5f413c" fill-opacity=".5" d="M137.4 86.9L105 113.4l25.4 64.7 1.5-1.1z"/><path fill="#0e0e03" fill-opacity=".6" d="M119 36l40 45-21-46z"/><path fill="#030001" fill-opacity=".5" d="M48.3 115.9L62 176.5l12.8-20.2L46 144.8z"/><path fill="#fafbfa" fill-opacity=".5" d="M57.4 94l-.6.8L22.6 64l.6-.8z"/><path fill="#312929" fill-opacity=".6" d="M93.9 36.9L61.8 58.1l-40-29.7L97 31.5z"/><ellipse cx="218" cy="60" fill="#261205" fill-opacity=".5" rx="13" ry="18"/><path fill="#fce4cc" fill-opacity=".5" d="M200.7 108.6l-2.9-9.3-23.4-15 28.2 11.6z"/><path fill="#97abfc" fill-opacity=".4" d="M259-16.5v35h-62v-35z"/><path fill="#694735" fill-opacity=".7" d="M201.8 91.4l-25.5-36.7 9.8 62.2-24.4-33.2z"/><path fill="#efe8dd" fill-opacity=".5" d="M235 39h3v41h-3z"/><path fill="#000403" fill-opacity=".5" d="M153 39h19v18h-19z"/><ellipse cx="98" cy="60" fill="#baffee" fill-opacity=".3" rx="47" ry="2"/><circle cx="228" cy="145" r="5" fill="#040000" fill-opacity=".7"/><path fill="#c1bdb9" fill-opacity=".7" d="M23.7 76.8l35.2 29.6-.6.8-35.2-29.6z"/><path fill="#724d47" fill-opacity=".9" d="M158.8 55.3L153 73.9l46.8 28.1-.5 31.3z"/><path fill="#561a00" fill-opacity=".5" d="M208 87.2l.4 53.3-17.8 44.5 4.8-10.4z"/><ellipse cx="87" cy="71" fill="#d34d83" fill-opacity=".7" rx="35" ry="7"/><path fill="#c5d2d4" fill-opacity=".5" d="M164 142h20v24h-20z"/><path fill="#a9a6a4" fill-opacity=".6" d="M82 30l77-14 34 25z"/><ellipse cx="172" cy="114" fill="#e3b69c" fill-opacity=".6" rx="4" ry="21"/><path fill="#e2fdf8" fill-opacity=".5" d="M77.2 156.2l1.6-23.3-9.2 13.6 3.3-1.2z"/></g></svg>