<svg xmlns="http://www.w3.org/2000/svg" viewBox="0 0 300 199"><defs/><path fill="#34294a" d="M0 0h300v199H0z"/><g transform="translate(.6 .6) scale(1.17188)"><path fill="#faf3ff" fill-opacity=".5" d="M146.8 66.1l35 1.9-4.6 87.9-35-1.9z"/><ellipse cx="180" cy="29" fill="#ae8e97" fill-opacity=".5" rx="57" ry="61"/><circle r="1" fill="#030000" fill-opacity=".6" transform="rotate(-25.3 275.4 -49.5) scale(79.4185 192.54211)"/><circle r="1" fill="#c5242f" fill-opacity=".5" transform="matrix(12.77613 -2.01338 9.70777 61.60183 214.4 156.6)"/><ellipse cx="247" cy="140" fill="#000d29" fill-opacity=".8" rx="20" ry="92"/><circle r="1" fill="#b9aecd" fill-opacity=".5" transform="rotate(97.4 92.4 107) scale(36.98865 10.19306)"/><circle r="1" fill="#244698" fill-opacity=".7" transform="matrix(-12.31152 32.0726 -13.43475 -5.15712 242.7 10)"/><path fill="#6e3f34" fill-opacity=".5" d="M92-16l14 151 39-149z"/><path fill="#0f1a30" fill-opacity=".8" d="M-16 116.4l173.3 35.9 47.1-2.5-71.8 35.2z"/><path fill="#0d122a" fill-opacity=".7" d="M134 180L-10 97l160-5z"/><path fill="#b9b4e0" fill-opacity=".7" d="M176 143.8l-1.1-87.5-30.2 64.9 4.7 29.6z"/><ellipse cx="191" cy="36" fill="#320f00" fill-opacity=".5" rx="8" ry="40"/><path fill="#31a0ff" fill-opacity=".3" d="M245.8 109.6l-18 1.6-5.6-64.8 18-1.6z"/><path fill="#a1b0c2" fill-opacity=".5" d="M74 102l-10 4 9-34z"/><path fill="#1b000c" fill-opacity=".5" d="M207 61h16v55h-16z"/><ellipse cx="41" cy="42" fill="#170000" fill-opacity=".6" rx="65" ry="36"/><path fill="#c1e0f2" fill-opacity=".4" d="M136 63h12v28h-12z"/><path fill="#311526" fill-opacity=".4" d="M159 77l25-34-54 8z"/><path fill="#caac7e" fill-opacity=".4" d="M152 49l-33-6 51-59z"/><path fill="#645096" fill-opacity=".5" d="M167.7 87.3l38.4-25.7-2 66.7-29.2-19.4z"/><circle r="1" fill="#421b18" fill-opacity=".6" transform="matrix(13.27525 4.16021 -10.97313 35.01529 119.6 82.7)"/><ellipse cx="236" cy="136" fill="#050000" fill-opacity=".6" rx="17" ry="21"/><ellipse cx="186" cy="6" fill="#563939" fill-opacity=".6" rx="23" ry="20"/><path fill="#9d82b3" fill-opacity=".6" d="M242 50l-46-28 25 48z"/><path fill="#bf9eff" fill-opacity=".5" d="M166.5 78l1-19 16 1-1 19z"/><path fill="#eea688" fill-opacity=".5" d="M222 125.1l-2.6-12.1-12.2 19.1 6.4 1.1z"/><path fill="#001749" fill-opacity=".6" d="M260 19l-34 16 45 30z"/><path fill="#afafbd" fill-opacity=".4" d="M188 86l12 8 9-43z"/><circle r="1" fill="#63aaff" fill-opacity=".5" transform="matrix(3.15544 -8.54668 11.00012 4.06125 251.5 0)"/><ellipse cx="33" cy="131" fill="#9796a7" fill-opacity=".5" rx="8" ry="4"/><path fill="#90738d" fill-opacity=".4" d="M109.7 29l8.9-8.1 4.6-36.9-17.7 17.2z"/><path fill="#ff2d57" fill-opacity=".3" d="M208.3 131.4l19.5 10.9-32.4 42.7 7.8-44.4z"/><path fill="#432b33" fill-opacity=".5" d="M158.2 76.1l3.4-31.1-47.4-3.2 58.5-5.2z"/><ellipse cx="223" fill="#6a6098" fill-opacity=".7" rx="6" ry="70"/><path fill="#1b235f" fill-opacity=".5" d="M178 86h13v50h-13z"/><path fill="#003468" fill-opacity=".4" d="M258.2 110l-31.8 11.8-7.5-51.5 24.3-9.7z"/><path fill="#dcf1fa" fill-opacity=".3" d="M153.7 2.8l-16.3 35.3 7.4 3.4.3-44.6z"/><path fill="#64636e" fill-opacity=".3" d="M7.4 115.2L19.8 100l-3.2 32.1-9.5 3.8z"/><circle r="1" fill="#4e0400" fill-opacity=".3" transform="matrix(1.62693 22.1546 -50.97039 3.74303 40.7 8.8)"/><circle r="1" fill="#2d1038" fill-opacity=".5" transform="rotate(120.8 58.8 123.4) scale(26.25763 9.80184)"/><path fill="#170100" fill-opacity=".6" d="M119 49h11v27h-11z"/><path fill="#371f06" fill-opacity=".5" d="M133 12l7 10-33 16z"/><ellipse cx="3" cy="158" fill="#000518" fill-opacity=".6" rx="75" ry="24"/><path fill="#bfa98f" fill-opacity=".7" d="M150.9 46.9L144 85.3l-1-.2 6.8-38.4z"/><path fill="#664530" fill-opacity=".5" d="M158.9-12.6l-3 40 3.6-5.2-14.7 16.3z"/><path fill="#180201" fill-opacity=".4" d="M190.2 82.3l-5.1-5.4 9.5-26.2 7.9-10.7z"/><path fill="#dc6a89" fill-opacity=".1" d="M121.8 101.4L101 112.7l-.6-27.9 14.4-65z"/><path fill="#e1ecea" fill-opacity=".4" d="M153 98h14v45h-14z"/><path fill="#f696a9" fill-opacity=".5" d="M193.4 117l11.3-18.8 1.7 10.6-11.2 8.6z"/><path fill="#b59ba4" fill-opacity=".5" d="M132 32h45v7h-45z"/><path fill="#d47259" fill-opacity=".5" d="M69 75h6v12h-6z"/><ellipse cx="97" cy="15" fill="#4f3d49" fill-opacity=".6" rx="12" ry="18"/><path fill="#7375d1" fill-opacity=".5" d="M176 102h4v48h-4z"/><path fill="#595875" fill-opacity=".7" d="M133.2 83.8l14.3-16.4 11.9 12.9-27-13.7z"/><path fill="#000b22" fill-opacity=".6" d="M68 88l-42 13 31 59z"/><circle r="1" fill="#090000" fill-opacity=".5" transform="matrix(26.94035 -42.59106 16.62973 10.51889 6.2 67)"/><path fill="#180000" fill-opacity=".6" d="M222 73l2 37-17 11z"/><path fill="#d4ccda" fill-opacity=".2" d="M191.7 30.7L239-16l-27.2 75.8-.8.5z"/><path fill="#dbd8ff" fill-opacity=".5" d="M254 107h2v7h-2z"/><path fill="#000003" fill-opacity=".7" d="M255 89l16-73-25 47z"/><path fill="#1f2642" fill-opacity=".4" d="M35.4 108.4l25.4-19.8-13.7-9.7-9.8-28.3z"/><path fill="#580106" fill-opacity=".5" d="M234.2 182.1l-9.2-9.4-8.1-34.8 7.1-15.2z"/><path fill="#100100" fill-opacity=".5" d="M75 50h29v31H75z"/><path fill="#272a62" fill-opacity=".5" d="M234-1l-16 49 25-20z"/><path fill="#e1d9e3" fill-opacity=".5" d="M150 44l-14-2-3 5z"/></g></svg>