<svg xmlns="http://www.w3.org/2000/svg" viewBox="0 0 300 199"><defs/><path fill="#5e453a" d="M0 0h300v199H0z"/><g transform="translate(.6 .6) scale(1.17188)"><ellipse cx="122" cy="94" fill="#f0f1f0" fill-opacity=".8" rx="164" ry="157"/><circle r="1" fill="#342814" fill-opacity=".6" transform="rotate(107.3 65.4 114.9) scale(33.21259 27.81296)"/><path fill="#4e210d" fill-opacity=".5" d="M104 43h22v65h-22z"/><circle r="1" fill="#fdfdfc" fill-opacity=".7" transform="matrix(-47.73874 3.1746 -9.6314 -144.8341 50.2 99.7)"/><path fill="#010100" fill-opacity=".5" d="M205.8 124.5l6.8-20.7 2-30.1-26.7 34.2z"/><circle r="1" fill="#ab8e81" fill-opacity=".7" transform="matrix(-17.6932 -.12989 .17642 -24.03143 114.8 101.6)"/><path fill="#000b00" fill-opacity=".5" d="M177 85l17 7-25-42z"/><circle r="1" fill="#fff" fill-opacity=".3" transform="matrix(-21.09699 .66056 -4.945 -157.93415 149.5 81.3)"/><path fill-opacity=".5" d="M104 47l17-3 12 24z"/><ellipse cx="175" cy="111" fill="#3f2104" fill-opacity=".4" rx="8" ry="13"/><path fill="#918676" fill-opacity=".4" d="M164.6 72.6l62.7 28.9-3.7-70.2 15.3-7.1z"/><path fill="#d0cecc" fill-opacity=".9" d="M172 185l64-30-50-49z"/><path fill="#e8e3e3" fill-opacity=".6" d="M139 4l53 62 14-18z"/><circle r="1" fill="#2a2812" fill-opacity=".4" transform="rotate(-177.6 105.2 32.2) scale(5.17866 29.18591)"/><circle r="1" fill="#eaeaea" fill-opacity=".7" transform="matrix(18.62361 22.9722 -47.50433 38.51188 101.5 15)"/><circle cx="148" cy="76" r="26" fill="#e7e7e3" fill-opacity=".5"/><path fill="#a6a8ab" fill-opacity=".7" d="M260.9 50.2l6.5-57-30.1 5-7.4-4.6z"/><path fill="#f3f0ee" fill-opacity=".7" d="M87 107.7l22.3-40.1-.5-7.8-75.2-39.6z"/><path fill="#5b1300" fill-opacity=".3" d="M129.4 57.8L101.7 110l-7-3.7L122.2 54z"/><path fill="#b6b3b0" fill-opacity=".6" d="M230.5 64.8L217 123.9l-7.3 61.1-9.2-54.7z"/><path fill="#f0efed" fill-opacity=".9" d="M131.9 30.4L61.1 77.1l24.2-45.8 40.5 16.5z"/><path fill="#191412" fill-opacity=".2" d="M18.8-16L-12.1-5.9l-3.9.3 30.5 24.5z"/><path fill="#1c311a" fill-opacity=".4" d="M186 65l-7 28-12-42z"/><ellipse cx="183" cy="97" fill="#bfa68c" fill-opacity=".6" rx="16" ry="4"/><path fill="#0e1c0c" fill-opacity=".3" d="M204.2 116.2l12.2 16.9-39.1-33.9-4-11.8z"/><ellipse cx="195" fill="#1e4a6f" fill-opacity=".1" rx="65" ry="16"/><circle r="1" fill="#b4a392" fill-opacity=".6" transform="rotate(-114.4 158.5 -34) scale(16.33546 6.06509)"/><circle r="1" fill="#eee8e9" fill-opacity=".6" transform="matrix(33.18393 40.994 -17.65548 14.2918 107 154.5)"/><path fill="#bba58d" fill-opacity=".6" d="M203.2 79.7l4.6 9L159.5 63l27.9 9.7z"/><path fill="#e1e1e2" fill-opacity=".6" d="M202.9 114.3l67.1-9.2-26.4 79.9-18.1-44.3z"/><path fill="#d4c7c6" d="M103.8 108.9l2.4-11.7 18.3 44.5 16.5 2.5z"/><circle r="1" fill="#fff" fill-opacity=".6" transform="rotate(-8.6 881.3 -270.7) scale(18.04019 80.07785)"/><path fill="#fff" fill-opacity=".5" d="M122 67h13v14h-13z"/><path fill="#b4aea9" fill-opacity=".7" d="M117.5 83.1l15.6 4.5 1.5 12.4-12.9 33.7z"/><path fill="#131514" fill-opacity=".4" d="M202.6 95.2l-5.6 26.2 15.9-10.2 3.6-39z"/><ellipse cx="166" cy="83" fill="#f8faf5" fill-opacity=".5" rx="11" ry="4"/><ellipse cx="159" cy="153" fill="#fff" fill-opacity=".2" rx="42" ry="19"/><path fill="#e4c9a8" fill-opacity=".5" d="M191 87h7v12h-7z"/><path fill="#0a0500" fill-opacity=".5" d="M209 73l-13 1 16 7z"/><path fill="#b6bab8" fill-opacity=".4" d="M236.8 139.2l-12.9 1.8-12.7-90.2 12.9-1.8z"/><path fill="#dedfe0" fill-opacity=".5" d="M242 34l-73 18L63-16z"/><path fill="#000805" fill-opacity=".4" d="M105.7 46.3l20.8 14.5-2.9-11.7-7.5-6.5z"/><path fill="#d8b79d" fill-opacity=".5" d="M186.2 81.4l-4.1-5.7 9.7-7 4.1 5.6z"/><path fill="#f3b3a9" fill-opacity=".4" d="M207.3 54.7L182.7 62l18.6 8.8 2.4-40.8z"/><path fill="#e9cbbe" fill-opacity=".6" d="M183.5 98.2l-4-.5 1-8 4 .6z"/><path fill="#0c1a05" fill-opacity=".3" d="M187.1 79.9l-5.4-35-3 52.2-14.2-8z"/><circle cx="206" cy="63" r="5" fill="#403a26" fill-opacity=".9"/><path fill="#9d5b3c" fill-opacity=".4" d="M101 107l-5 4 17 8z"/><circle cx="175" cy="119" r="9" fill="#a58973" fill-opacity=".4"/><circle r="1" fill="#000b00" fill-opacity=".5" transform="rotate(30.4 -108.1 384.6) scale(7.14118 2.08679)"/><path fill="#d07637" fill-opacity=".2" d="M108.3 77.6l-6.7 34.3-7.9-1.5 6.7-34.3z"/><path fill-opacity=".5" d="M192 75l1 7-3-5z"/><path fill="#d2c0c2" fill-opacity=".5" d="M108.7 138.2l18 30-9.4 5.6-18-30z"/><path fill="#b4b0ad" fill-opacity=".5" d="M202 133h15v37h-15z"/><ellipse cx="238" cy="88" fill="#fdffff" fill-opacity=".2" rx="7" ry="97"/><circle r="1" fill="#d9d4cd" fill-opacity=".6" transform="matrix(-3.83445 -.68302 1.70379 -9.56501 166 113.3)"/><path fill="#d7d6d6" fill-opacity=".6" d="M191.9 55.6l21.3-1.3L101.1-16l130.8 44.9z"/><circle r="1" fill="#f6f7f8" fill-opacity=".7" transform="matrix(11.05188 58.49043 -7.04279 1.33075 5.7 62)"/><path fill="#010000" fill-opacity=".5" d="M187.2 84.6l9.2-4 .4.8-9.2 4z"/><path fill="#a9afa4" fill-opacity=".6" d="M171 60l-7-1 6 15z"/><circle r="1" fill="#c6c5c5" fill-opacity=".6" transform="matrix(-9.63178 -35.74797 9.64144 -2.59775 255 48.6)"/><path fill="#6b766a" fill-opacity=".4" d="M218 90l2-31-10-4z"/><path fill="#dbd9d9" fill-opacity=".9" d="M209.2 120l28.8 25.8-18.3 39.2-5.6-81.2z"/><circle r="1" fill="#3f3c34" fill-opacity=".5" transform="matrix(-3.74004 7.53427 -1.79205 -.88958 107 53.1)"/><path fill="#e8e7e6" fill-opacity=".7" d="M103.3 27.5l81.5-.9-49.3 72.9-8.2-47.4z"/></g></svg>