<svg xmlns="http://www.w3.org/2000/svg" viewBox="0 0 300 199"><defs/><path fill="#58322f" d="M0 0h300v199H0z"/><g transform="translate(.6 .6) scale(1.17188)"><circle r="1" fill="#bdf0ea" fill-opacity=".4" transform="rotate(-4.7 604.4 -1002.6) scale(144.01263 58.82042)"/><ellipse cx="186" cy="125" fill="#636262" rx="29" ry="84"/><path fill="#f9faf8" fill-opacity=".5" d="M209 45l-6-41L72 28z"/><circle r="1" fill-opacity=".5" transform="rotate(-6.5 557.8 -1226.4) scale(53.34555 9.02789)"/><circle r="1" fill="#010b10" fill-opacity=".8" transform="matrix(30.19593 -63.59247 32.76613 15.5585 255.1 117.5)"/><path fill="#efffff" fill-opacity=".6" d="M90 101h11v69H90z"/><path fill="#001117" fill-opacity=".5" d="M34 97l85-15-81 103z"/><path fill="#fff" fill-opacity=".5" d="M91 66l35-46-40 7z"/><ellipse cx="17" cy="71" fill="#bfc6c0" fill-opacity=".3" rx="33" ry="55"/><ellipse cx="66" cy="36" fill="#47453d" fill-opacity=".6" rx="21" ry="26"/><path fill="#0c0702" fill-opacity=".5" d="M177.8 135.5L254 85.9l17 22.6-82.4-26.6z"/><ellipse cx="127" cy="127" fill="#002a3a" fill-opacity=".4" rx="28" ry="44"/><path fill="#b2bda8" fill-opacity=".4" d="M80 106h22v64H80z"/><circle r="1" fill="#00030a" fill-opacity=".6" transform="matrix(12.68672 .8363 -4.1304 62.65878 65.3 147.9)"/><path fill="#0f0709" fill-opacity=".5" d="M101.2 118.8l-4.7-67.2L216 41.1l-101.1 28z"/><path fill="#c9c4be" fill-opacity=".4" d="M157 157l8-62 26 67z"/><circle cx="212" cy="64" r="15" fill="#bfcebb" fill-opacity=".4"/><circle r="1" fill="#0b413a" fill-opacity=".4" transform="rotate(-129.9 127.7 -42.4) scale(31.52498 39.76434)"/><circle r="1" fill="#604d31" fill-opacity=".5" transform="matrix(.05382 5.82088 -56.56967 .52309 33.9 71.8)"/><path fill="#d3dce7" fill-opacity=".6" d="M137.5.3L66.4 11.6 64.5-.3l71.1-11.3z"/><path fill="#b5b9c7" fill-opacity=".6" d="M152.4 78.7l26.3 1.2 1-18.9-39.6 5.9z"/><ellipse cx="48" cy="148" fill="#d2dad2" fill-opacity=".5" rx="3" ry="11"/><circle r="1" fill="#b5ffff" fill-opacity=".4" transform="matrix(-3.18673 .61944 -10.25375 -52.75097 209.3 168.9)"/><path fill="#b6b7c5" fill-opacity=".6" d="M0 79h63v12H0z"/><path fill="#0b1c28" fill-opacity=".5" d="M-18.7 138l100.4 23-9 39-100.4-23.2z"/><path fill="#dcd6d9" fill-opacity=".6" d="M89 32h9v52h-9z"/><path fill="#553d15" fill-opacity=".4" d="M113.3 5.5L247.2-16 42 31.1 31.4 18.9z"/><ellipse cx="214" cy="16" fill="#736f5f" fill-opacity=".8" rx="9" ry="74"/><path fill="#1a0e0e" fill-opacity=".5" d="M179 44l23 57-5-60z"/><ellipse cx="147" cy="38" fill="#999891" fill-opacity=".7" rx="38" ry="7"/><path fill="#efdff0" fill-opacity=".5" d="M199 34h8v43h-8z"/><circle cx="240" cy="49" r="13" fill="#010000" fill-opacity=".6"/><path fill="#4783a9" fill-opacity=".2" d="M-4.4 104.4l26-7.4 16.8 58.6-26 7.4z"/><path fill-opacity=".5" d="M172 125h22v7h-22z"/><path fill="#b09384" fill-opacity=".4" d="M161.1 98.4l26.7-8.7 7 22-26.6 8.6z"/><ellipse cx="94" cy="107" fill="#f6e8e8" fill-opacity=".5" rx="5" ry="9"/><path fill="#6b655c" fill-opacity=".9" d="M82.1 16.2l-36.9 48 39.2 36.3 2.7-79.8z"/><path fill="#f4f8fd" fill-opacity=".4" d="M206 37l-10.6-53 9.2 18.8-36.7 20z"/><path fill="#8ba9aa" fill-opacity=".6" d="M201.1 135.8L203 119l12 1.3-2 16.7z"/><ellipse cx="152" cy="69" fill="#424d62" fill-opacity=".6" rx="47" ry="2"/><path fill="#bcb6ab" fill-opacity=".6" d="M27 29h20v35H27z"/><ellipse cx="136" cy="124" fill="#cacfd7" fill-opacity=".6" rx="23" ry="1"/><ellipse cx="86" cy="158" fill="#6f6955" fill-opacity=".8" rx="6" ry="50"/><path fill="#0c0000" fill-opacity=".6" d="M78 107.3l-3.7-7L100 86.7l3.8 7z"/><path fill="#080f14" fill-opacity=".5" d="M41.3 107.8l38.4 38.4-1.4 17.5-56.6-52.9z"/><circle cx="103" cy="36" r="16" fill="#dddee1" fill-opacity=".4"/><ellipse cx="228" cy="86" fill="#031616" fill-opacity=".6" rx="8" ry="19"/><ellipse cx="107" cy="136" fill="#1f1f1f" fill-opacity=".8" rx="5" ry="77"/><ellipse cx="123" cy="88" fill="#69727e" fill-opacity=".3" rx="19" ry="26"/><path fill="#847064" fill-opacity=".6" d="M245.4 64.6l-5 11-21.8-10.2 5-11z"/><ellipse cx="52" fill="#8e9498" fill-opacity=".7" rx="29" ry="15"/><ellipse cx="149" cy="169" fill="#443d3f" rx="37" ry="8"/><path fill="#fff" fill-opacity=".5" d="M140 72h29v3h-29z"/><ellipse cy="16" fill="#767576" fill-opacity=".6" rx="41" ry="20"/><path fill="#827f6c" fill-opacity=".6" d="M163 0h52v9h-52z"/><path fill="#17171b" fill-opacity=".4" d="M119 128h36v38h-36z"/><path fill="#364152" fill-opacity=".7" d="M134.4 109.6l24.9-26.7.8 9.7 1.1 29.7z"/><path fill="#404e4f" fill-opacity=".6" d="M221-7l40 40-38 4z"/><ellipse cx="192" cy="156" fill="#080a18" fill-opacity=".4" rx="4" ry="13"/><path fill="#000317" fill-opacity=".2" d="M42.6 21.3l36.5-3.2-5.1.2 3 45.1z"/><path fill="#1d252b" fill-opacity=".5" d="M242.2 164l-35.5-30.7-3.4-4.4 9.7 39.3z"/><circle r="1" fill="#8c92a6" fill-opacity=".4" transform="matrix(40.44159 -8.10425 1.98058 9.88343 23.3 97.2)"/><path fill="#fee5fe" fill-opacity=".3" d="M219.8 185l-25.9-27.9 14.6 27.9-5-40.5z"/><path fill="#08070a" fill-opacity=".3" d="M206 92.9l-21.1-9.1 14.9 33.6 38.2-24z"/><path fill="#111214" fill-opacity=".6" d="M100 64h4v66h-4z"/></g></svg>