<svg xmlns="http://www.w3.org/2000/svg" viewBox="0 0 300 199"><defs/><path fill="#553c33" d="M0 0h300v199H0z"/><g transform="translate(.6 .6) scale(1.17188)"><circle r="1" fill="#e7e5dd" fill-opacity=".7" transform="matrix(-102.03861 28.57827 -52.50833 -187.4808 203.3 87.3)"/><circle r="1" fill="#729bc1" fill-opacity=".6" transform="matrix(-42.29495 -23.30041 48.1751 -87.44753 29 45.7)"/><ellipse cx="169" cy="17" fill="#f0f6fa" fill-opacity=".7" rx="77" ry="39"/><ellipse cx="215" cy="102" fill="#33323b" fill-opacity=".4" rx="104" ry="17"/><circle cx="56" cy="169" r="59" fill="#052e4a" fill-opacity=".7"/><ellipse cx="242" cy="122" fill="#290700" fill-opacity=".2" rx="31" ry="85"/><path fill="#151d20" fill-opacity=".5" d="M58 47h40v46H58z"/><path fill="#fcf7f2" fill-opacity=".7" d="M92 33l122 4-105 31z"/><ellipse cx="27" cy="105" fill="#5d6369" fill-opacity=".7" rx="54" ry="30"/><ellipse cx="182" cy="144" fill="#b79d88" fill-opacity=".7" rx="62" ry="43"/><path fill="#00172c" fill-opacity=".6" d="M57.8-16l-8.7 59.2L123.3 185 62.4 39.5z"/><path fill="#74777e" fill-opacity=".8" d="M171 145.1l44.8 39.9-53.7-5.9-.8-134.5z"/><ellipse cx="77" cy="22" fill="#7f8fa0" fill-opacity=".6" rx="19" ry="35"/><ellipse cx="27" cy="30" fill="#788fb1" fill-opacity=".5" rx="26" ry="53"/><path fill="#897b6b" fill-opacity=".6" d="M87 71l29 35 46-48z"/><ellipse cx="229" cy="80" fill="#b6d9fc" fill-opacity=".5" rx="63" ry="6"/><path fill="#ede9e5" fill-opacity=".8" d="M262 32.1L110 67.2 104 42 256 6.8z"/><ellipse cx="255" cy="50" fill="#1c0806" fill-opacity=".2" rx="59" ry="9"/><path fill="#1a252a" fill-opacity=".6" d="M210.9 103.3l28.5 11.6 31.6 18.4-15.2-27.6z"/><path fill="#25160a" fill-opacity=".6" d="M77.6 36.4l-.4.3L87 25.1l3.4 16.6z"/><path fill="#c28b4e" fill-opacity=".3" d="M188 47l-62 26 137 1z"/><ellipse cx="56" cy="8" fill="#172e4b" fill-opacity=".7" rx="5" ry="61"/><path fill="#515b6a" fill-opacity=".7" d="M196.6 119.6l-39-17.4 99.4 36.1 14 13.6z"/><path fill="#001b2e" fill-opacity=".7" d="M91 90l30 95-45-6z"/><path fill="#a7917e" fill-opacity=".5" d="M62.2 93l4.9 11.7-83.1 6.6 1.4-12.8z"/><path fill="#ffca94" fill-opacity=".3" d="M196.1 164.5l-23.3-16.4-2.8-35.3 101 40.8z"/><circle r="1" fill="#debfa6" fill-opacity=".6" transform="matrix(20.90165 -4.97947 8.15605 34.23553 141.3 167.5)"/><circle r="1" fill="#7d7b79" fill-opacity=".6" transform="matrix(22.7707 22.3767 -5.1472 5.23783 145.2 126.5)"/><path fill="#010c12" fill-opacity=".6" d="M57.8 74.1l30.1 12L90 70.7l5.3-25.6z"/><circle r="1" fill="#c4d1d8" fill-opacity=".8" transform="rotate(-92.9 101.7 -96.7) scale(13.02305 110.70741)"/><circle r="1" fill="#344656" fill-opacity=".5" transform="matrix(-4.84611 -15.10761 62.67118 -20.1032 37.5 130.4)"/><path fill="#bf917c" fill-opacity=".5" d="M95.4 69.5l-8 25.8-2.8-.8 8-25.8z"/><path fill="#ffffea" fill-opacity=".5" d="M227 60h29v3h-29z"/><ellipse cy="90" fill="#203646" fill-opacity=".6" rx="54" ry="3"/><circle r="1" fill="#829cb6" fill-opacity=".6" transform="matrix(12.45494 -15.8396 14.1589 11.13337 80.2 11.5)"/><path fill="#562a09" fill-opacity=".4" d="M70 42l4.6 18.5-16.4 21.9-.8-36.9z"/><path fill="#717a85" fill-opacity=".5" d="M75 86l-17.3 20.6L31 84l17.4-20.7z"/><path fill="#e2d7d0" fill-opacity=".4" d="M213.1 62.9L173 96.6l-3.6-29.1 5.9-2.7z"/><path fill="#d7b699" fill-opacity=".5" d="M97.3 84.5l-3.4 18.3 27.2 57.1 6.2-43z"/><path fill="#73634a" fill-opacity=".6" d="M262 79l-40-10 46-2z"/><path fill="#f3e7db" fill-opacity=".6" d="M137.3 61.1L95 64.9l5.1-11.8-12.7-11.9z"/><path fill="#492b14" fill-opacity=".5" d="M157 94l4-11-6 1z"/><path fill="#6b503a" fill-opacity=".4" d="M218.2 63.2l49.5-8.6 3.3-8.4L194.5 61z"/><path fill="#000523" fill-opacity=".7" d="M2.7 68.8l-3 .3-2.4-23.9 3-.3z"/><path fill="#aebdc9" fill-opacity=".4" d="M61 33l24 15-5 9z"/><path fill="#8198b1" fill-opacity=".5" d="M53 25l-1 55-21-61z"/><path fill="#36383c" fill-opacity=".5" d="M178 96h35v5h-35z"/><path fill="#697fa3" fill-opacity=".5" d="M229 99l29-16-38 1z"/><path fill="#b8a695" fill-opacity=".5" d="M123.2 82l17.3-7.7 20.3 45.7-17.3 7.7z"/><circle r="1" fill="#05253b" fill-opacity=".6" transform="matrix(29.36495 -21.42376 17.31484 23.73297 55.9 169)"/><path fill="#949eaf" fill-opacity=".6" d="M186.7 98.4L161.8 88l3.5-8.3L190.2 90z"/><path fill="#8d898d" fill-opacity=".9" d="M222.6 41.1l5.9 13.1 33.1-24.9-4.1 13.5z"/><path fill="#1a3e5c" fill-opacity=".4" d="M64 86h32v23H64z"/><path fill="#807c7b" fill-opacity=".7" d="M161.1 66l4.7 28.7 4.4-38.9L120.6 69z"/><path fill="#586369" fill-opacity=".5" d="M107 92l14-2 20 35z"/><ellipse cx="84" cy="34" fill="#080000" fill-opacity=".6" rx="6" ry="4"/><path fill="#525557" fill-opacity=".5" d="M216.7 3.6l.4 1-13.8 5.8-.4-1z"/><circle r="1" fill="#a88062" fill-opacity=".5" transform="matrix(68.2009 -2.85846 .49457 11.8001 249 170.3)"/><circle r="1" fill="#68747c" fill-opacity=".6" transform="matrix(-1.21575 .36643 -11.82587 -39.23587 108 137.9)"/><circle r="1" fill="#71645b" fill-opacity=".6" transform="rotate(-161.8 138.1 46) scale(38.99099 1.81337)"/><path fill="#84868a" fill-opacity=".6" d="M124 64h4v76h-4z"/><path fill="#8195a8" fill-opacity=".9" d="M66.5 44.7L62.1 5l35.6 37.3-8.8-20.4z"/><path fill="#a17f74" fill-opacity=".5" d="M88.5 60.9l6.3-3 12.7 27.2-6.3 3z"/><path fill="#485572" fill-opacity=".4" d="M36.4 84.5l-36 2-.8-15 36-2z"/><circle r="1" fill="#5d6e79" fill-opacity=".5" transform="rotate(125.2 -19.3 81) scale(52.89929 1)"/></g></svg>