<svg xmlns="http://www.w3.org/2000/svg" viewBox="0 0 300 199"><defs/><path fill="#504434" d="M0 0h300v199H0z"/><g transform="translate(.6 .6) scale(1.17188)"><circle r="1" fill="#f9dfcd" fill-opacity=".6" transform="matrix(174.70736 -124.15806 28.94421 40.72846 179.9 28.6)"/><path fill="#fbfcfc" fill-opacity=".9" d="M200.6-48.3l88.5 85.4-41.7 43.2-88.5-85.4z"/><path fill="#200000" fill-opacity=".5" d="M86 112l177 73-63-167z"/><circle r="1" fill="#fff" fill-opacity=".6" transform="matrix(15.83454 10.1656 -60.24456 93.84055 134 16.1)"/><circle r="1" fill="#dac195" fill-opacity=".8" transform="matrix(-35.8135 -38.49044 11.41714 -10.6231 37.4 160)"/><path fill="#754d35" d="M132-16L-16 43l69 59z"/><path fill="#fcffff" fill-opacity=".7" d="M266.7 55.2L129.9 13.4l9.4-30.6 136.8 41.8z"/><ellipse cx="174" cy="55" fill="#432513" fill-opacity=".5" rx="48" ry="22"/><ellipse cx="196" cy="169" fill="#211408" fill-opacity=".9" rx="30" ry="132"/><circle r="1" fill="#a06946" fill-opacity=".5" transform="rotate(-61.4 152.8 -54.2) scale(76.81208 32.13545)"/><path fill="#fff" fill-opacity=".6" d="M21.8 102.5l63.3-9 1.1 8-63.3 9z"/><path fill="#dad3c3" fill-opacity=".4" d="M232 64l37 5-12 81z"/><circle r="1" fill="#3e210c" fill-opacity=".5" transform="matrix(-22.90667 -23.72055 13.8148 -13.3408 36.6 71.1)"/><path fill="#b27b4b" fill-opacity=".5" d="M71 26l15 53 39-95z"/><path fill="#1b0400" fill-opacity=".4" d="M252 168l-147-63 26 73z"/><circle r="1" fill="#090607" fill-opacity=".6" transform="matrix(-8.80353 -23.34153 10.82911 -4.08433 6.5 164)"/><path fill="#fff" fill-opacity=".5" d="M98 77l82-71-69 6z"/><path fill="#3a2b1b" fill-opacity=".6" d="M260.2 185L226.1 53.9l-34.2-23.5-35.3-4.8z"/><path fill="#fff" fill-opacity=".5" d="M45 110l40-42 18 23z"/><ellipse cx="158" cy="92" fill="#946a51" fill-opacity=".3" rx="17" ry="65"/><path fill="#5e4226" fill-opacity=".7" d="M22.8 132.5l-28.1-17.2 19.9 19.6 7.1-.9z"/><path fill="#8a8067" fill-opacity=".6" d="M16 103l54 82-8-64z"/><path fill="#c8b99c" fill-opacity=".5" d="M68 100h29v51H68z"/><path fill="#feeecf" fill-opacity=".6" d="M36.7 161.7l-15.2-39.9 26.6 29.4 16.4 32.9z"/><path fill="#f2f2f0" fill-opacity=".7" d="M226.8 51.5l14.8 38.4 21-105.9L138 0z"/><path fill="#fffffb" fill-opacity=".7" d="M36.5 110.5l-13.6-10.2 6.6-8.8 13.6 10.2z"/><path fill="#d67725" fill-opacity=".5" d="M107 134h15v36h-15z"/><path fill="#592c10" fill-opacity=".5" d="M91 63.8L58.9 91.4-16 96.7l99.8-36.5z"/><path fill="#34434a" fill-opacity=".5" d="M66 146h41v24H66z"/><circle r="1" fill="#c0824b" fill-opacity=".4" transform="matrix(3.0539 -4.21879 55.14908 39.92127 111 79.2)"/><circle r="1" fill="#794d29" fill-opacity=".7" transform="matrix(10.3502 -5.9874 4.47299 7.73229 96.4 30.8)"/><path fill="#fcfefd" fill-opacity=".3" d="M108 7h83v20h-83z"/><circle r="1" fill="#fffdeb" fill-opacity=".4" transform="matrix(-10.2841 34.2787 -5.09767 -1.52938 95.7 89.2)"/><circle r="1" fill="#ccc4b2" fill-opacity=".5" transform="matrix(-1.065 1.73113 -18.98158 -11.67754 99.6 122.1)"/><path fill="#83573e" fill-opacity=".8" d="M130.4-9.1l-6.6 21-8.4-27.9-89.2 70.2z"/><path fill="#6a4336" fill-opacity=".6" d="M0 10h17v112H0z"/><circle r="1" fill="#060000" fill-opacity=".6" transform="matrix(21.84773 -2.14454 4.29262 43.73151 195.7 158.4)"/><path fill="#ffd194" fill-opacity=".5" d="M145 104h8v9h-8z"/><path fill="#281300" fill-opacity=".3" d="M244.8 114.6l26.2 4.8-38.2-31.5 9.6 49.6z"/><path fill="#a06b4f" fill-opacity=".9" d="M95.2 101.5l37.3-42.1 3.3 9.5 31.5 5z"/><path fill="#fffce1" fill-opacity=".4" d="M74 110l-57-3 11-12z"/><path fill="#9d8b79" fill-opacity=".7" d="M93.4 124.6L46.5 141l68.3 4-15.4-13z"/><circle r="1" fill="#f9fdf8" fill-opacity=".5" transform="matrix(-14.53229 16.57284 -5.671 -4.97274 75 92)"/><path fill="#4c2d0b" fill-opacity=".4" d="M187.4 111.3l-78.7 48.3 11.6-53.4 19.2 4.9z"/><path fill="#f4f6f5" fill-opacity=".6" d="M90.6 107L76.4 87.5l99.9-76.3-75.7 24.5z"/><path fill="#9a876d" fill-opacity=".6" d="M236.3 82.3l20.5 41.3-8.3-30.8L271 61.1z"/><circle cx="35" cy="25" r="33" fill="#744737" fill-opacity=".5"/><path fill="#382411" fill-opacity=".5" d="M199 35l-36 57 14 30z"/><circle r="1" fill="#a07847" fill-opacity=".5" transform="rotate(-121.3 48.3 72.3) scale(30.89637 2.37448)"/><path fill="#331d0a" fill-opacity=".6" d="M114 117l-20-3 40 25z"/><path fill="#916d2f" fill-opacity=".3" d="M50.9 106.9l-60.2 12.4 36.7 7.6 26-14.8z"/><path fill="#d0a26b" fill-opacity=".7" d="M96.6 59.3v-4.6l-12.1-27 6.6 51.4z"/><ellipse cx="48" cy="128" fill="#f1e5ce" fill-opacity=".4" rx="31" ry="3"/><path fill="#8c5b3f" fill-opacity=".4" d="M47-16l2 69 44 19z"/><path fill="#fdf5e6" fill-opacity=".3" d="M126.7 38.4l-26.1-18.6 49.3-33.3-56.7 64.7z"/><circle r="1" fill="#40230e" fill-opacity=".5" transform="matrix(27.11925 12.57211 -2.80307 6.0465 30 84.7)"/><path fill="#4b1801" fill-opacity=".4" d="M35.6 28.1L21 18.7l-1.2-29.2L49.6-16z"/><path fill="#f4d08a" fill-opacity=".3" d="M132.3 47.3L128 74l-32.5 2.6 23.4-17.1z"/><ellipse cx="159" cy="49" fill="#82656e" fill-opacity=".4" rx="17" ry="20"/><path fill="#f3f2ee" fill-opacity=".6" d="M220.2 49l40.6-65L271 67.9l-34.1 8z"/><path fill="#5e351f" fill-opacity=".4" d="M132 49h16v23h-16z"/><path fill="#9cb0ca" fill-opacity=".6" d="M244 116l27 3-23 5z"/><path fill="#262217" fill-opacity=".6" d="M105.4 157.6l.8-11.9-6.1-.4-12.7 13.6z"/><path fill="#e2b472" fill-opacity=".5" d="M106.5 175l-3-.6 8-45.3 3 .5z"/><path fill="#fbdb9d" fill-opacity=".4" d="M-16 106.3l38.3 47.1-5.6 31.6 22.5-28.3z"/></g></svg>