<svg xmlns="http://www.w3.org/2000/svg" viewBox="0 0 300 199"><defs/><path fill="#32374b" d="M0 0h300v199H0z"/><g transform="translate(.6 .6) scale(1.17188)"><circle r="1" fill="#edcab2" fill-opacity=".6" transform="matrix(99.68456 -2.53546 3.00395 118.10347 189.5 83.1)"/><circle cy="128" r="88" fill="#1b0200" fill-opacity=".9"/><circle r="1" fill="#e3effd" fill-opacity=".5" transform="matrix(-43.56706 -17.15977 35.88946 -91.12004 209.9 152)"/><circle cx="168" cy="37" r="50" fill="#3e1b04" fill-opacity=".4"/><circle r="1" fill="#c2af8d" fill-opacity=".5" transform="matrix(96.21662 -45.3727 8.63672 18.31489 61.2 0)"/><circle r="1" fill="#280800" fill-opacity=".7" transform="rotate(52.6 -36 81) scale(28.06298 61.12747)"/><circle r="1" fill="#d38052" fill-opacity=".5" transform="matrix(5.75286 -50.77071 16.73173 1.89588 95.7 86.5)"/><circle r="1" fill="#eac7c1" fill-opacity=".7" transform="rotate(53.3 -17 162.9) scale(13.38367 23.6542)"/><path fill="#200900" fill-opacity=".7" d="M130-7l-10 59 29-48z"/><circle r="1" fill="#462a12" fill-opacity=".6" transform="matrix(25.5887 -12.54445 3.92348 8.00328 243 36)"/><circle r="1" fill="#b6b3b0" fill-opacity=".5" transform="matrix(-44.86246 26.47077 -9.8099 -16.62573 210.6 17.7)"/><circle r="1" fill="#764938" fill-opacity=".6" transform="rotate(51 -3 216.6) scale(21.41468 34.22634)"/><circle r="1" fill="#1a0502" transform="rotate(124.7 -3.8 105.7) scale(30.77707 26.14946)"/><circle r="1" fill="#726f77" fill-opacity=".6" transform="matrix(-4.17003 -50.46634 7.02006 -.58007 203.5 151.3)"/><path fill="#845027" fill-opacity=".6" d="M110.8-6.1L89 106.8 75.2 104 97-8.8z"/><path fill="#796559" d="M247.6 16.3l-7.3 53.9 1.6 8.4 5.6 1.9z"/><ellipse cx="117" cy="97" fill="#ebc3b7" fill-opacity=".8" rx="6" ry="52"/><circle r="1" fill="#ddf1fa" fill-opacity=".5" transform="matrix(-15.24259 2.08797 -5.74542 -41.94256 233 145)"/><path fill="#c78977" fill-opacity=".7" d="M182 85l-20 36 51-8z"/><path fill="#491200" fill-opacity=".5" d="M120 132l5-26 7 29z"/><circle r="1" fill="#a1a6a6" fill-opacity=".6" transform="matrix(-24.85275 9.40725 -4.24804 -11.22278 64.5 7)"/><circle r="1" fill="#964f39" fill-opacity=".4" transform="rotate(163 43 75.6) scale(9.90334 70.85435)"/><circle r="1" fill="#ffc6b2" fill-opacity=".4" transform="rotate(35 -18.2 382) scale(15.89306 29.84062)"/><path fill="#c9a699" fill-opacity=".6" d="M119.7-5.6L97 90.9l32-74.7-27.1-12.8z"/><path fill="#a6b3be" fill-opacity=".7" d="M149 118h32v52h-32z"/><ellipse cy="20" fill="#685847" fill-opacity=".7" rx="23" ry="27"/><path fill="#562a1b" d="M158.5 92.5l5.9.8L198 75.5l-4.1-6.5z"/><path fill="#ffc4bc" fill-opacity=".6" d="M139.7 136.4l-.7-3.8-7.8-66-2.9 61.5z"/><path fill="#674c36" fill-opacity=".6" d="M151.3-15.5l-6.4 61-20.4 29.2-.3-27.4z"/><path fill="#1e0500" fill-opacity=".6" d="M19 35h66v53H19z"/><path fill="#723725" fill-opacity=".8" d="M154.4 111.9l17.3 8-15.1-24.7-6.7.1z"/><path fill="#ffd9d3" fill-opacity=".4" d="M98 99h7v36h-7z"/><path fill="#d2d4d3" fill-opacity=".5" d="M159.5-16l31.7 8.5 11.2 29.2L161.6-16z"/><path fill="#e7ae9d" fill-opacity=".5" d="M86 99h5v29h-5z"/><path fill="#a3a09c" fill-opacity=".7" d="M148.8 41.3l8.1-16 22.3 11.4-8.1 16z"/><path fill="#2e0000" fill-opacity=".3" d="M118 155l-12-43v24z"/><path fill="#55371c" d="M-2.6-16l107.9 7.3-12.8 32.8L87.6-4z"/><ellipse cx="108" cy="67" fill="#d1a994" fill-opacity=".9" rx="7" ry="36"/><ellipse cx="164" cy="14" fill="#725645" fill-opacity=".6" rx="25" ry="15"/><path fill="#e7f7ff" fill-opacity=".5" d="M198 199l-9 .7-7-80.7 9-.7z"/><path fill="#d3dce0" fill-opacity=".5" d="M270.2-16l-34.1 42.9L221.4-16l29.8 29.2z"/><path fill="#6c7379" fill-opacity=".5" d="M125 135h18v35h-18z"/><path fill="#e8faff" fill-opacity=".3" d="M251 37h5v92h-5z"/><ellipse cx="124" cy="41" fill="#190000" fill-opacity=".5" rx="5" ry="14"/><path fill="#fcffff" fill-opacity=".5" d="M133 63h8v16h-8z"/><path fill="#6c3525" fill-opacity=".7" d="M104.2 150.6l-10-6.6 1.9 22.6L91 88.1z"/><path fill="#fcd9d4" fill-opacity=".6" d="M117 94h5v55h-5z"/><path fill="#8f6f5f" d="M218.9 7.7l-15.1-.9 4.2 64.8-11.5-77.4z"/><path fill="#826558" fill-opacity=".5" d="M103 5h11v27h-11z"/><path fill="#5a4638" fill-opacity=".5" d="M238.4 52.7l-13.1-39.2-10.4 40.3L271 2z"/><circle r="1" fill="#443739" fill-opacity=".4" transform="matrix(13.43547 7.05378 -.82304 1.56767 252.6 80.1)"/><path fill="#bdd1df" fill-opacity=".5" d="M170.8 91.3l2.2 4.4-9.8 5-2.2-4.4z"/><path fill="#f7d6ce" fill-opacity=".5" d="M121 70l13 19-16 21z"/><path fill="#763518" fill-opacity=".6" d="M157.3 107.3L191.6 85l1.1 1.7-34.3 22.3z"/><path fill="#d2dee6" fill-opacity=".6" d="M256.6 78.6L266 93l-28.5 18.5L228 97z"/><path fill="#c4bebc" fill-opacity=".5" d="M192.8 41.4l-2.7 1.2-33-74 2.8-1.2z"/><path fill="#867979" fill-opacity=".7" d="M149.3 101.4l-7.6 50.3-7.6-67.1L172 68.4z"/><circle r="1" fill="#b2c1ce" fill-opacity=".5" transform="matrix(1.56675 2.08542 -4.73074 3.55415 182.2 86)"/><path fill="#170300" fill-opacity=".4" d="M129.4 12.1L117.3-5.5l28.4 7.9-28.4 44.1z"/><path fill="#bd6f66" fill-opacity=".2" d="M162.8 124.6l75.4-47.3-10.7 53.8-3.1-18.5z"/><path fill="#5a4941" fill-opacity=".4" d="M164.3 44.3l-20.5 59.6 5.8-46L159.8 36z"/><path fill="#170401" fill-opacity=".6" d="M0 185L95 9-16 57z"/><path fill="#e4bcae" fill-opacity=".6" d="M89 114h4v18h-4z"/><path fill="#916f5b" fill-opacity=".9" d="M92.1 65.6l-8.8-1.3 38.2-3.5-43.5 14z"/><path fill="#ffafa2" fill-opacity=".3" d="M121.3 135.3l9.6 24.8-31.5-20.2 16.2 22.3z"/></g></svg>