<svg xmlns="http://www.w3.org/2000/svg" viewBox="0 0 300 199"><defs/><path fill="#534b3b" d="M0 0h300v199H0z"/><g transform="translate(.6 .6) scale(1.17188)"><circle cx="154" cy="149" r="179" fill="#bfc8bd" fill-opacity=".5"/><ellipse cx="124" cy="119" fill="#cee8fb" fill-opacity=".7" rx="207" ry="11"/><path fill="#14130b" fill-opacity=".5" d="M109-8v108H75V-8z"/><ellipse cx="29" cy="80" fill="#000300" fill-opacity=".5" rx="20" ry="31"/><path fill="#0a0300" fill-opacity=".6" d="M235 11h19v93h-19z"/><ellipse cx="198" cy="37" fill="#0d0700" fill-opacity=".5" rx="13" ry="74"/><path fill="#1a1507" fill-opacity=".5" d="M134 0h30v102h-30z"/><ellipse cx="123" cy="30" fill="#ffffdb" fill-opacity=".5" rx="12" ry="102"/><ellipse cx="61" cy="36" fill="#ffffe5" fill-opacity=".5" rx="13" ry="68"/><path fill="#1b2225" fill-opacity=".7" d="M68.8 104.7l5.2 32.6-12.8 2-5.2-32.6z"/><ellipse cx="176" cy="27" fill="#fbf9da" fill-opacity=".6" rx="11" ry="104"/><ellipse cx="224" cy="50" fill="#f4f3d6" fill-opacity=".5" rx="9" ry="78"/><path fill="#d9cdab" fill-opacity=".6" d="M55 46h175v10H55z"/><ellipse cy="28" fill="#bab593" fill-opacity=".8" rx="10" ry="78"/><path fill="#3b3728" fill-opacity=".8" d="M19.9 35.5L.9-16 48.4 1.2l-.4 44z"/><ellipse cx="255" cy="56" fill="#ddcead" fill-opacity=".7" rx="71" ry="3"/><path fill-opacity=".5" d="M192 74h19v34h-19z"/><ellipse cx="245" fill="#e4ddbf" fill-opacity=".6" rx="85" ry="6"/><ellipse cx="160" cy="169" fill="#cdcfd3" fill-opacity=".4" rx="93" ry="10"/><path fill="#333f41" fill-opacity=".5" d="M75 53h35v52H75z"/><path fill="#3b3d34" fill-opacity=".7" d="M46.7 49.4l2.4 29.7-41.2-7.9-.3-20.9z"/><path fill="#c1c7ba" fill-opacity=".9" d="M75.6 84.9L49.4 66.7l.1 20.8-7.1 46.8z"/><ellipse cx="255" cy="131" fill="#251000" fill-opacity=".3" rx="74" ry="5"/><path fill="#b8bdab" fill-opacity=".8" d="M241 100.1l-16.8-17.3-18.8 24 27.2 8.4z"/><ellipse cx="27" cy="46" fill="#dcceac" fill-opacity=".6" rx="62" ry="4"/><path fill="#52493f" fill-opacity=".6" d="M0 135h129v5H0z"/><path fill="#383426" fill-opacity=".6" d="M134 3h20v46h-20z"/><path fill="#cbdbe1" fill-opacity=".6" d="M81.4 133.5l160.6-5.8-99.3-17.4-12.9-28.2z"/><path fill="#000602" fill-opacity=".5" d="M139 102h20v7h-20z"/><path fill="#352f1a" fill-opacity=".5" d="M193 4h19v48h-19z"/><path fill="#9aaaa6" fill-opacity=".5" d="M85.5 80.9L85 87l46.8 31.4-35.2-40.8z"/><path fill="#221e0c" fill-opacity=".5" d="M233 8h17v47h-17z"/><path fill="#c7e1f5" fill-opacity=".4" d="M0 110h53v25H0z"/><path fill-opacity=".5" d="M64 97h6v31h-6z"/><circle r="1" fill="#161913" fill-opacity=".5" transform="matrix(-5.88205 -26.27192 5.24386 -1.17405 239.5 84.2)"/><path fill="#bdbda6" fill-opacity=".8" d="M80.3 97.3L71 127.6l1.6-29.3-33.4-35.6z"/><circle r="1" fill="#2e2c20" fill-opacity=".5" transform="matrix(-11.60781 6.31877 -11.61749 -21.34175 95.5 9.7)"/><path fill="#d2c6a6" d="M186.5 52.5l-55.4 3.7-82-9 54.7-1.1z"/><path fill="#c5ccbb" fill-opacity=".6" d="M162 96h30v17h-30z"/><path fill="#606257" fill-opacity=".9" d="M25.6 75.1l-2-13.2-13.2 49.8 20-1.8z"/><path fill="#171f24" fill-opacity=".6" d="M79.3 78.6l15.8 32.1 12.5-3.4L79 88.6z"/><path fill="#2f2016" fill-opacity=".4" d="M99.6 136.5l-.1-2 85-3v2z"/><path fill="#cac3a4" fill-opacity=".7" d="M194.5-16l50 11.7L211.6 55l3.9-40.7z"/><path fill="#c5dff1" fill-opacity=".6" d="M190 108h81l-30 18z"/><path fill-opacity=".5" d="M47.5 94.5h-13v-25h13z"/><path fill="#a1988a" fill-opacity=".6" d="M28.9 168l62.2-30.2 136-.4L58.7 185z"/><path fill="#000307" fill-opacity=".5" d="M134 73h10v22h-10z"/><path fill="#000005" fill-opacity=".7" d="M54 146.6l10.2-24 1.8.8-10.2 24z"/><ellipse cx="240" cy="58" fill="#dbd3bd" fill-opacity=".6" rx="23" ry="3"/><path fill="#868367" fill-opacity=".6" d="M7 0h4v93H7z"/><ellipse cx="169" cy="119" fill="#d3ebfc" fill-opacity=".5" rx="99" ry="8"/><path fill="#959286" fill-opacity=".7" d="M68.5 119.3l3 65.7-11-42.9 18.2-48z"/><path fill="#c3cbbf" fill-opacity=".7" d="M42.5 94.7l29.9-2.5 2.6-23-30.2 60z"/><path fill="#849190" fill-opacity=".5" d="M152.4 113.1l6.2-13.5-4.1-24.1-2.9 9.4z"/><path fill="#1f2520" fill-opacity=".5" d="M187 61h25v34h-25z"/><path fill-opacity=".5" d="M82 71h25v8H82z"/><path fill="#373934" fill-opacity=".7" d="M5.7 48.6l18 22.2 25.1-15.4-24.5-6.5z"/><path fill="#6b6653" d="M155 25.3l11.8 26.9L131.1 39l17.5 7.7z"/><ellipse cx="110" cy="51" fill="#171200" fill-opacity=".4" rx="1" ry="44"/><path fill="#d3dbcf" fill-opacity=".5" d="M61.3 65.3l5.3-22.4.9-34.7-23.3-19.1z"/><path fill="#c9e0f0" fill-opacity=".5" d="M58.2 134L40 128.4l3.8-12.4 18.2 5.6z"/><path fill="#c5c2a0" fill-opacity=".5" d="M108 95h31v17h-31z"/><path fill="#272c26" fill-opacity=".4" d="M133 54.2l5 38.7 30.9-36.8-10.3 1.7z"/><path fill="#030e0f" fill-opacity=".5" d="M80 99h5v11h-5z"/><path fill="#24241f" fill-opacity=".5" d="M150.8 27.4L135 4l14.1-9.5L165 18z"/></g></svg>