<svg xmlns="http://www.w3.org/2000/svg" viewBox="0 0 300 199"><defs/><path fill="#2a3f54" d="M0 0h300v199H0z"/><g transform="translate(.6 .6) scale(1.17188)"><circle r="1" fill="#b2ddfc" fill-opacity=".6" transform="matrix(-38.13151 -252.13288 62.43825 -9.4429 201.6 120.6)"/><circle cx="41" cy="123" r="101" fill="#1e0700" fill-opacity=".7"/><circle r="1" fill="#accce5" fill-opacity=".6" transform="rotate(101.5 37 45.5) scale(65.85904 13.27395)"/><circle r="1" fill="#fffbf3" fill-opacity=".4" transform="matrix(-20.45313 48.31766 -18.92398 -8.01063 163.2 123.8)"/><ellipse cx="112" fill="#5386ae" rx="54" ry="34"/><circle r="1" fill="#11649f" fill-opacity=".6" transform="matrix(-20.28886 -23.67141 43.0249 -36.8768 236.4 20.5)"/><ellipse cx="24" cy="124" fill="#040201" fill-opacity=".8" rx="25" ry="131"/><path fill="#151110" fill-opacity=".6" d="M234.2 123.8l26 71.4-8.4 3-26-71.4z"/><path fill="#c2dff6" fill-opacity=".6" d="M11.9 6.4L.4-13.8l-2.1 41.4L20 8.5z"/><ellipse cx="189" cy="156" fill="#313436" fill-opacity=".8" rx="89" ry="3"/><ellipse cx="105" cy="60" fill="#321500" fill-opacity=".7" rx="22" ry="28"/><circle r="1" fill="#fff" fill-opacity=".2" transform="rotate(-59.5 208 -95.6) scale(69.33816 35.56137)"/><circle cx="65" cy="61" r="36" fill="#ffc57e" fill-opacity=".2"/><circle r="1" fill-opacity=".6" transform="matrix(6.73487 -5.64827 20.5278 24.4769 51.3 18.4)"/><path fill="#e0d1bc" fill-opacity=".7" d="M138 159h96v11h-96z"/><circle r="1" fill-opacity=".5" transform="rotate(10.3 -522 684.2) scale(27.10251 30.10017)"/><path fill="#c9d4e0" fill-opacity=".7" d="M145.8 129.5L227 78.9l44-28.8-131.5 51.4z"/><path fill="#97b1cc" fill-opacity=".7" d="M115.1 28.8l17.1 5.9 76.7-30.2-78.3 51.8z"/><ellipse cx="137" cy="157" fill="#211813" fill-opacity=".5" rx="75" ry="3"/><path fill="#5a8cb8" fill-opacity=".6" d="M142 65l30 35 60-116z"/><path fill="#87aed4" fill-opacity=".4" d="M110 27L75 41 59-16z"/><circle r="1" fill="#5f94bf" fill-opacity=".5" transform="matrix(-.47919 -23.8682 27.7939 -.558 234.5 106)"/><path fill="#0a5791" fill-opacity=".4" d="M139 19l127-31-174-4z"/><circle cx="49" cy="169" r="42" fill-opacity=".5"/><circle r="1" fill="#0b6197" fill-opacity=".6" transform="matrix(-15.60363 19.97174 -26.03103 -20.33767 255 25.6)"/><path fill="#b1cfee" fill-opacity=".6" d="M72 34h9v45h-9z"/><path fill="#612200" fill-opacity=".3" d="M65 154L30 9l82 148z"/><path fill="#3f2515" fill-opacity=".6" d="M118.5 126.5l22 1.1-3 58-22-1.2z"/><ellipse cx="236" cy="155" fill="#172834" fill-opacity=".7" rx="48" ry="3"/><path fill="#d4dbdb" fill-opacity=".4" d="M139 136h94v18h-94z"/><circle r="1" fill="#0e0700" fill-opacity=".6" transform="matrix(14.3144 3.75531 -12.73446 48.5409 116 113.4)"/><path fill="#b8b2a5" fill-opacity=".6" d="M186 159l49-3 10 29z"/><path fill="#f4c390" fill-opacity=".6" d="M97 70l-9-6-6 5z"/><circle r="1" fill="#fff2f0" fill-opacity=".3" transform="matrix(2.13308 6.89432 -14.0962 4.36132 175.2 21.7)"/><path fill="#191006" fill-opacity=".6" d="M124.7 43.2L137 92.1 90.3 49.5l4.4-12.3z"/><circle r="1" fill="#8da9c8" fill-opacity=".6" transform="matrix(28.8043 -30.26678 5.99445 5.7048 255 57.4)"/><path fill="#a1bbce" fill-opacity=".5" d="M236 118l33.7-4.7L274 144l-33.7 4.7z"/><path fill="#dae4e8" fill-opacity=".5" d="M140 125h24v30h-24z"/><path fill="#9cbad3" fill-opacity=".5" d="M156.6 136.6l35.1-44 38 56.7-90.8-8.4z"/><path fill="#b39f93" fill-opacity=".5" d="M121.8 157.4l-6.6-2.3 3-8.5 6.6 2.3z"/><circle r="1" fill="#82abcd" fill-opacity=".5" transform="rotate(159.4 75.1 56.3) scale(26.98784 16.32404)"/><path fill="#00050d" fill-opacity=".5" d="M205 154h3v16h-3z"/><ellipse cx="15" cy="51" fill="#000102" fill-opacity=".5" rx="18" ry="37"/><path fill="#f8f6f0" fill-opacity=".4" d="M141 101h38v14h-38z"/><path fill="#0f0903" fill-opacity=".8" d="M144.5 124.3l-40.2 19.8-27.2-58.5 10.7-9.1z"/><circle r="1" fill="#4b86b2" fill-opacity=".5" transform="matrix(-1.79715 17.27715 -29.07898 -3.02476 186.8 53.3)"/><path fill="#673815" fill-opacity=".6" d="M91.3 45.7l2.7 61 7-44.2-22 6z"/><path fill="#4c2700" fill-opacity=".4" d="M269.1 182.5L271 172l-36.1-9.9-4.1 22.9z"/><circle r="1" fill="#000009" fill-opacity=".5" transform="rotate(6.3 -138 426) scale(22.01694 9.73349)"/><path fill="#5d3c2b" fill-opacity=".6" d="M66 105l27 12-41-77z"/><path fill="#513526" fill-opacity=".6" d="M115 162l33-3-59-15z"/><circle r="1" fill="#492d1f" fill-opacity=".5" transform="rotate(-161.8 29.3 17.6) scale(22.52196 9.80613)"/><path fill="#e5e5df" fill-opacity=".5" d="M141 160h63v10h-63z"/><path fill="#d0c9b8" fill-opacity=".6" d="M267 185l-18-28 18-1z"/><path fill="#da7f30" fill-opacity=".3" d="M89.8 94l1.6-6.5 9.6-23.3-6-13.4z"/><path fill="#250b00" fill-opacity=".6" d="M59.4 92.6l20.2 78.9-35.1-68.3L23 55.8z"/><path fill="#000007" fill-opacity=".5" d="M127 88h13v32h-13z"/><path fill="#87add0" fill-opacity=".5" d="M70 16l24 20-18 14z"/><path fill="#85a2bb" fill-opacity=".7" d="M-16 88.4L.2 21.7l17.2-9L-1.9-16z"/><path fill="#5088b4" fill-opacity=".4" d="M271 115.8l-72.8-21.2 47.2-8.8 8.5-25.9z"/><ellipse cx="57" cy="169" fill="#010000" fill-opacity=".5" rx="77" ry="10"/><path fill="#5588b1" fill-opacity=".5" d="M130 43l36-25L39-16z"/><path fill="#08070a" d="M-3.6-16l41.4 3 4.3 41.6L30.7 25z"/><ellipse cx="253" cy="153" fill="#0f262d" fill-opacity=".4" rx="35" ry="2"/><circle r="1" fill="#77a1c4" fill-opacity=".5" transform="rotate(-17.8 239.8 -415.8) scale(10.28942 23.11602)"/></g></svg>