<svg xmlns="http://www.w3.org/2000/svg" viewBox="0 0 300 199"><defs/><path fill="#694a37" d="M0 0h300v199H0z"/><g transform="translate(.6 .6) scale(1.17188)"><circle r="1" fill="#b7aaa3" fill-opacity=".6" transform="matrix(-120.26705 33.353 -46.21552 -166.6478 155.2 86.9)"/><circle r="1" fill="#e4d6d3" fill-opacity=".5" transform="matrix(31.06877 -62.31432 109.76844 54.72853 243.2 169)"/><ellipse cx="112" cy="60" fill="#4d392c" fill-opacity=".6" rx="91" ry="29"/><path fill="#f6fffd" fill-opacity=".7" d="M165.4 9.2l1.4 51.7-13.5 5.6-6.7-56.6z"/><ellipse cx="49" cy="96" fill="#e6dedf" fill-opacity=".6" rx="25" ry="21"/><path fill="#7e0700" fill-opacity=".5" d="M107 172.7l-18.5 16.7-59.6-66.1 18.6-16.7z"/><circle r="1" fill="#541806" fill-opacity=".5" transform="matrix(-4.2958 -10.54552 27.58312 -11.2362 191.1 138.5)"/><path fill="#fff" fill-opacity=".5" d="M170 8h69v11h-69z"/><path fill="#090000" fill-opacity=".7" d="M90 122L64 71l17-20z"/><circle r="1" fill="#150900" fill-opacity=".5" transform="matrix(.5666 60.85002 -5.30121 .04936 142.4 43.7)"/><circle r="1" fill="#effaff" fill-opacity=".5" transform="rotate(-136.6 143.6 31.9) scale(18.70572 32.59411)"/><circle r="1" fill="#090600" fill-opacity=".5" transform="matrix(-1.07623 -6.24767 41.9805 -7.23157 158.6 1.5)"/><path fill="#ffe4f3" fill-opacity=".5" d="M4 139h13v22H4z"/><path fill="#2d0704" fill-opacity=".7" d="M180.9 138.7l-25.3-9.1 4.7 9.5 10.7 15.4z"/><path fill="#1c0c00" fill-opacity=".5" d="M167 34h28v34h-28z"/><path fill="#d4d5ce" fill-opacity=".9" d="M214.1 6.6L161 21.9l77.4-10.3.4 38.4z"/><circle r="1" fill="#a9a192" fill-opacity=".5" transform="matrix(4.54933 69.98108 -16.31846 1.06083 92.6 23.5)"/><path fill="#1d0700" fill-opacity=".6" d="M112 39l-8 62 19-8z"/><path fill="#fff" fill-opacity=".5" d="M133 133l32 6-1 46z"/><path fill="#462200" fill-opacity=".3" d="M271 64.2l-67.5-2.6 34.2 57.3-32.6-99.3z"/><path fill="#ffece0" fill-opacity=".4" d="M64.1 36.8l-30.4 71.7 7.8 4 31.3-64z"/><path fill-opacity=".5" d="M236.4-5.8l.2 11-31 .6-.2-11z"/><path fill="#481811" fill-opacity=".5" d="M138 150l-12-25-37 30z"/><circle r="1" fill="#d1b9aa" fill-opacity=".5" transform="rotate(34.2 -159.8 189.7) scale(41.21834 9.11642)"/><circle r="1" fill="#4b4130" transform="matrix(24.71095 -6.79098 4.69796 17.0949 30 61.6)"/><path fill="#3c1700" fill-opacity=".5" d="M247 147h9v23h-9z"/><path fill="#381e0e" fill-opacity=".7" d="M150.5 48.4l-.9 37.4-19.2 25.2-1.9-34.2z"/><path fill="#d4c0af" d="M232.5 86.9l6.7-51.7-6.1 27.2 20.3 44z"/><path fill="#c5ad9a" d="M46.8 185h31.6l-37.1-42.2 17.1 1.9z"/><ellipse cx="241" cy="13" fill="#002109" fill-opacity=".5" rx="3" ry="67"/><path fill="#ebb29a" fill-opacity=".6" d="M119.7 46.1l8.9 31.4 9.4-22.1-10.6-13.9z"/><path fill="#edeed2" fill-opacity=".5" d="M176.5 4L198.9.1 183.1 41l-5.3 1.7z"/><ellipse cx="215" cy="112" fill="#f3fbfd" fill-opacity=".6" rx="10" ry="15"/><path fill="#636144" fill-opacity=".6" d="M238 39l33-11-12 125z"/><ellipse cx="97" cy="103" fill="#e7eae9" fill-opacity=".5" rx="7" ry="23"/><ellipse cx="170" cy="84" fill="#130000" fill-opacity=".6" rx="5" ry="11"/><path fill="#b97e62" fill-opacity=".6" d="M222 86l-22-52-6 79z"/><ellipse cy="38" fill="#9c957b" fill-opacity=".6" rx="53" ry="8"/><path fill="#001500" fill-opacity=".5" d="M64 0h6v39h-6z"/><path fill="#9c8574" d="M44.4 103.6L55.2 87l.5 36.4 20.3 8.2z"/><ellipse cx="221" cy="19" fill="#5b4536" fill-opacity=".9" rx="2" ry="65"/><path fill="#bdb1a7" fill-opacity=".9" d="M154.8 80.4l13 5.6-22.9 28.8 20.5-87.3z"/><path fill="#e4e4e0" fill-opacity=".6" d="M254.9 140.5l-15.1-69.4-1.5 60.6-6.5 53.3z"/><circle r="1" fill="#0b060a" fill-opacity=".6" transform="matrix(-4.1995 -2.8521 3.70718 -5.45853 160.8 132.9)"/><path fill="#3e2c1d" fill-opacity=".6" d="M184.6 30.9l9.4-9.3 20-4.1-27.2 22.1z"/><path fill="#790900" fill-opacity=".4" d="M62 138h33v32H62z"/><path fill="#0d1905" fill-opacity=".4" d="M159 40l26-21h-15z"/><path fill="#000201" fill-opacity=".6" d="M46.7 174.3L35.9 169l7.4-15.3 10.8 5.3z"/><path fill="#240800" fill-opacity=".4" d="M86.2 85.6L70.8 66.4l-2.9 27.7 29 26.8z"/><path fill="#f4f8f6" fill-opacity=".4" d="M152 145l-28 3 33-33z"/><path fill="#2e180d" fill-opacity=".8" d="M52.5 38.4l12.8-6.7.8 1.3-31.3 43.1z"/><path fill="#f7ffff" fill-opacity=".5" d="M222.6 40.7l6.7-32.9 10.5-1.7-13 39.3z"/><path fill="#f4fffe" fill-opacity=".2" d="M144.3 38.6l-1.5-25.2 16.2.8 10.3 68.5z"/><path fill="#ffd4c7" fill-opacity=".5" d="M214 42l-9 24-8-25z"/><path fill="#d8dec6" fill-opacity=".3" d="M84.3 60.1L69.1 23.4l.8-39.4 16.2 45.7z"/><path fill="#e3d6d0" fill-opacity=".6" d="M271 185l-63-46-39 33z"/><path fill="#966d5d" fill-opacity=".7" d="M220.2 136.8l-30.4-20.1-23.1 55.9 79.7-68.1z"/><path fill="#2a2019" fill-opacity=".4" d="M119 30l-8 14 53-9z"/><path fill="#19170c" fill-opacity=".4" d="M167.6 7.2l2.3 8.4L183-4.1l-65.7 20.7z"/><ellipse cx="231" cy="104" fill="#905738" fill-opacity=".6" rx="5" ry="16"/><path fill="#ecf6ff" fill-opacity=".3" d="M32.3 122l10.5-10.3 9.4-37.2-32.6 29.4z"/><path fill="#ab897b" fill-opacity=".9" d="M127.6 78l-3.1 31.6-15 43.4 6.7-58.8z"/><path fill="#e7f3ff" fill-opacity=".3" d="M78.3 118.7L50 125.1l20.9-32.8 16.4 40.9z"/><ellipse cx="9" cy="92" fill="#3b4130" fill-opacity=".6" rx="12" ry="48"/><path fill="#603b37" fill-opacity=".7" d="M76.9 126.9L-16 179.2l86.4-60.1-5.5 1z"/></g></svg>