<svg xmlns="http://www.w3.org/2000/svg" viewBox="0 0 300 199"><defs/><path fill="#2f3d49" d="M0 0h300v199H0z"/><g transform="translate(.6 .6) scale(1.17188)"><ellipse cx="188" cy="36" fill="#f5e0d0" fill-opacity=".8" rx="160" ry="45"/><ellipse cx="238" cy="47" fill="#ffffe8" fill-opacity=".4" rx="57" ry="169"/><circle r="1" fill="#694127" fill-opacity=".8" transform="matrix(29.63672 -15.35836 20.95367 40.43387 141.8 75.8)"/><ellipse cx="91" cy="86" fill="#fffeef" fill-opacity=".7" rx="18" ry="16"/><path fill="#87685b" fill-opacity=".8" d="M76.3 70.4l-87.5-25 22.9-79.8 87.5 25z"/><ellipse cx="161" cy="14" fill="#f7fcff" fill-opacity=".8" rx="71" ry="23"/><path fill="#f9fdfb" fill-opacity=".9" d="M-4.9 33.8L-8-2.1l18.9-1.7L14 32.1z"/><circle cx="151" cy="132" r="66" fill="#6f2800" fill-opacity=".4"/><path fill="#dabfad" fill-opacity=".5" d="M96.4 165.2l31.7-43.4-28.7 4.3-10.1-12.8z"/><circle r="1" fill="#00040d" fill-opacity=".6" transform="rotate(93.6 -2.8 148.6) scale(25.9574 39.55181)"/><path fill="#fff" fill-opacity=".2" d="M78 105l59-18L87-16z"/><circle r="1" fill="#05050b" fill-opacity=".6" transform="matrix(15.09975 -27.46634 13.67243 7.51648 33.6 0)"/><circle r="1" fill="#000522" fill-opacity=".5" transform="rotate(-47.9 67.7 14.7) scale(13.27857 95.99664)"/><ellipse cx="201" cy="44" fill="#fffcf2" fill-opacity=".7" rx="37" ry="26"/><circle r="1" fill="#9e9085" fill-opacity=".6" transform="matrix(-38.9817 42.54299 -15.69318 -14.3795 231.1 91)"/><path fill="#0e0e12" fill-opacity=".8" d="M65.8 59.1l21.3 9.3-36.5 20.2L64 51.5z"/><circle r="1" fill="#001637" fill-opacity=".6" transform="matrix(19.96131 -28.10192 37.6988 26.77815 20.3 153.7)"/><path fill="#a3877d" fill-opacity=".9" d="M40.5 65.8L16.3 38.4l35.3-22.3 3.9 66.7z"/><path fill="#9c5e27" fill-opacity=".4" d="M159 71l57 2-35 69z"/><ellipse cx="144" cy="100" fill="#241b11" fill-opacity=".4" rx="15" ry="67"/><circle r="1" fill="#fdfdf9" fill-opacity=".8" transform="matrix(8.25729 2.07409 -7.35462 29.27998 97.6 54.6)"/><path fill="#b48262" fill-opacity=".6" d="M192 109h28v61h-28z"/><path fill="#0c0200" fill-opacity=".6" d="M134.3 108.5l-33.4 17-17.1-17.9 47-11.6z"/><ellipse cx="241" cy="135" fill="#020c16" fill-opacity=".6" rx="12" ry="4"/><path fill="#e0ebf2" fill-opacity=".4" d="M245.2 130.5l7.1-6.9-9.7-11.1-22.5 1.8z"/><path fill="#320500" fill-opacity=".5" d="M178 92h24v14h-24z"/><path fill="#73360f" fill-opacity=".4" d="M63 62l29-21-38-1z"/><circle cx="84" cy="91" r="12" fill="#b6b8b5" fill-opacity=".7"/><circle r="1" fill="#7a3e14" fill-opacity=".5" transform="matrix(19.91056 4.26845 -1.77823 8.2947 199.4 141.2)"/><ellipse cx="237" cy="90" fill="#425e52" fill-opacity=".5" rx="24" ry="6"/><circle cx="251" r="44" fill="#dde3e7" fill-opacity=".7"/><path fill="#be9d98" fill-opacity=".7" d="M123.9 40.4l-.9.4-11.2 9.8 22.6 7.9z"/><path fill="#aeccde" fill-opacity=".4" d="M204 97h52v9h-52z"/><circle r="1" fill="#f3f7f5" fill-opacity=".5" transform="matrix(8.52874 15.26039 -26.24034 14.66523 115.6 20.7)"/><path fill="#a1cee5" fill-opacity=".4" d="M102.3 125.2l11.5-3.5 5.9 19.1-11.5 3.5z"/><path fill="#000310" fill-opacity=".4" d="M97 147l-9 38-10-83z"/><path fill="#885137" fill-opacity=".7" d="M49-10l48 2-42 35z"/><circle r="1" fill="#1d3f62" fill-opacity=".5" transform="matrix(-42.30745 -10.14638 4.12175 -17.1865 32.9 110.3)"/><path fill="#f1ebe3" fill-opacity=".8" d="M68.3 86.8l37.1-5.9.2-29.2L71.5 84z"/><circle r="1" fill="#000319" fill-opacity=".5" transform="matrix(6.90745 -6.389 22.73353 24.57831 27.2 75.7)"/><ellipse cx="239" cy="169" fill="#b6b1ba" fill-opacity=".3" rx="50" ry="22"/><path fill="#ffd68a" fill-opacity=".3" d="M173.1 72.6l-15-34.9 22.7 19.8 44.1 47.8z"/><path fill="#ffd5ae" fill-opacity=".2" d="M172.5 116.6l36.6 17.6 9.4-33.7-29.2 6.8z"/><path fill="#290606" fill-opacity=".5" d="M115 54h12v9h-12z"/><path fill="#674b32" fill-opacity=".5" d="M148.8 34.2l58.8 138.2-59.9-69.3-.3-24.7z"/><path fill="#000208" fill-opacity=".7" d="M69.1 82.4l5.5 25.4-12.9-10.3L58 65.9z"/><circle r="1" fill="#b1826c" fill-opacity=".6" transform="matrix(7.33654 9.66381 -18.70333 14.19913 73.6 26.2)"/><path fill="#725543" fill-opacity=".9" d="M96.5 185h8.7l1-37.4-13.4 6.3z"/><path fill="#fff" fill-opacity=".5" d="M82 64l-5.3-2.9L84 48l5.3 2.9z"/><ellipse cx="130" cy="164" fill="#060000" fill-opacity=".7" rx="24" ry="13"/><path fill="#03102a" fill-opacity=".4" d="M227.1 135.3l3.1 4-4.4-18.6 12.4 5.2z"/><path fill="#97614c" fill-opacity=".5" d="M105 74h20v24h-20z"/><circle r="1" fill="#392313" fill-opacity=".6" transform="matrix(11.8386 4.66335 -11.61115 29.47662 137.5 125)"/><path fill="#f5f3ef" fill-opacity=".8" d="M171 51L123 0l148 41z"/><path fill="#013e62" fill-opacity=".4" d="M40 65L5 30l-19 9z"/><path fill="#979ba3" fill-opacity=".6" d="M271 64l-37 24-41-16z"/><ellipse cx="95" cy="95" fill="#837c6b" fill-opacity=".4" rx="24" ry="4"/><circle r="1" fill="#010a1b" fill-opacity=".5" transform="rotate(-91.7 69.3 3.6) scale(6.13186 14.71775)"/><path fill="#002247" fill-opacity=".3" d="M183.1 172.3l-29.9 8-10.3-38.6 29.9-8z"/><circle r="1" fill="#728689" fill-opacity=".5" transform="matrix(-1.24083 -3.97064 5.94912 -1.8591 17.3 159.5)"/><path fill="#7f6652" fill-opacity=".5" d="M150.2 35.8l11 6.8 11 14.6-48.5-22.7z"/><path fill="#e7ffdb" fill-opacity=".1" d="M46.7 91.7l20 1.7-1.4 15-20-1.8z"/><circle r="1" fill="#174879" fill-opacity=".3" transform="matrix(10.25252 19.45312 -14.43403 7.60728 10 84.6)"/><path fill="#896149" fill-opacity=".8" d="M89.9 46.9l-33.3-8.4-1.7 28.4 31.6-32z"/><path fill="#00031a" fill-opacity=".4" d="M27.4 132.5L49 185l-33-32.7-32-13.5z"/></g></svg>