<svg xmlns="http://www.w3.org/2000/svg" viewBox="0 0 300 199"><defs/><path fill="#614338" d="M0 0h300v199H0z"/><g transform="translate(.6 .6) scale(1.17188)"><circle r="1" fill="#f2e3eb" fill-opacity=".6" transform="rotate(13.7 -612.1 511.4) scale(51.53634 20.20885)"/><circle r="1" fill="#dbdbf5" fill-opacity=".6" transform="matrix(-23.56656 20.89142 -16.5984 -18.72381 181 73.8)"/><circle r="1" fill="#c4f9fc" fill-opacity=".6" transform="rotate(-123.6 156.5 21.8) scale(37.62081 21.78444)"/><circle r="1" fill="#0a0600" fill-opacity=".6" transform="matrix(15.68917 -82.7411 39.02927 7.40063 31.3 47.2)"/><path fill="#d3cac7" fill-opacity=".5" d="M79-16l23 113 49 28z"/><circle r="1" fill="#c2bac3" fill-opacity=".6" transform="matrix(-18.23698 -29.27702 14.0558 -8.7555 9.1 157.3)"/><path fill="#040000" fill-opacity=".5" d="M206 116l65 29L236 5z"/><circle r="1" fill="#00151b" fill-opacity=".7" transform="matrix(-3.06112 29.58763 -17.7828 -1.8398 134 59.6)"/><path fill="#bfc4d0" d="M182.5 63.6l15.2 25 13.6-39-1.2-15.3z"/><path fill="#4b514e" d="M166.2 47l.9-63 65 17.9-47.9 59.7z"/><circle r="1" fill="#a47567" fill-opacity=".9" transform="rotate(79.5 11.4 145.6) scale(14.77026 30.6313)"/><ellipse cx="111" cy="86" fill="#dee9fa" fill-opacity=".6" rx="8" ry="15"/><ellipse cx="191" cy="159" fill="#19454f" fill-opacity=".6" rx="11" ry="64"/><path fill="#ffd1e6" fill-opacity=".3" d="M171.3 37.2l7 36.8-28.2-12.7 2.6-34.5z"/><path fill="#a1c8d3" fill-opacity=".4" d="M201 139h55v31h-55z"/><ellipse cx="93" cy="12" fill="#987d67" fill-opacity=".6" rx="11" ry="85"/><path fill="#c89787" fill-opacity=".6" d="M92 185l47-79-55 52z"/><path fill="#b5abb4" fill-opacity=".6" d="M60.4 128.5l69.9 20.2-77.8 28.4 14 7.9z"/><path fill="#4a5f57" fill-opacity=".6" d="M140-16L97 40l16 30z"/><circle r="1" fill="#deead6" fill-opacity=".3" transform="matrix(-3.34753 .26934 -4.4136 -54.8558 204 127.4)"/><path fill="#b1baae" d="M151.4 171.7l4.3-12.3-9.5-3.5L160 185z"/><path fill="#e4f1fe" fill-opacity=".5" d="M102 57l27 44-16 2z"/><circle r="1" fill="#a8bcca" fill-opacity=".4" transform="matrix(-1.76748 3.62387 -50.75273 -24.75376 251.2 9.6)"/><circle r="1" fill="#535a50" transform="rotate(174.3 63.8 5.7) scale(26.71066 26.42671)"/><ellipse cx="54" cy="153" fill="#564d4c" fill-opacity=".4" rx="12" ry="101"/><circle r="1" fill="#427c3d" fill-opacity=".5" transform="rotate(-101 139 4.8) scale(14.20571 28.75768)"/><circle r="1" fill="#180c04" fill-opacity=".6" transform="rotate(179.4 12.5 23.6) scale(16.15907 68.6907)"/><path fill="#081c15" fill-opacity=".5" d="M190.8 54.8l-.7-19.7-16.4-21.9 1.8 45.6z"/><path fill="#331e0e" fill-opacity=".4" d="M206 61h49v72h-49z"/><circle r="1" fill="#49241c" fill-opacity=".6" transform="rotate(175.8 33 47.9) scale(14.06026 38.06264)"/><circle r="1" fill="#8f3b34" fill-opacity=".5" transform="matrix(16.81741 -5.88937 8.13296 23.2241 92.9 105.5)"/><path fill="#895c6f" d="M173.7 81.7l7.4-13.6 8.5 54.4-2.7-16z"/><path fill="#dde2e9" fill-opacity=".4" d="M163.2 94.3l-11.3-7.5 20-7.7 15.3 27.8z"/><circle cx="135" cy="91" r="10" fill="#adb6ac" fill-opacity=".4"/><ellipse cy="55" fill="#4d3d32" fill-opacity=".9" rx="6" ry="77"/><path fill="#580203" fill-opacity=".3" d="M154.7 111.6l20.6-2.6 3.4-18.8-26.4 18.7z"/><path fill="#c6d9e7" fill-opacity=".8" d="M165.3 61.8l41.8-6.3 2.7-19-33.5 32.2z"/><path fill="#400" fill-opacity=".4" d="M139.2 99.1l-1.6 7.1-28.4 27.2.4-19.3z"/><circle r="1" fill="#5f4f43" fill-opacity=".5" transform="rotate(-104.8 41.3 -19.5) scale(60.60659 10.48955)"/><path fill="#d9e2fe" fill-opacity=".3" d="M9.9 152.4L2.4 185l-13.1-7.1 18.8-40.5z"/><circle r="1" fill="#00070a" fill-opacity=".5" transform="matrix(-7.39975 2.43306 -9.39008 -28.55837 140.7 58.9)"/><circle r="1" fill="#3a2c26" fill-opacity=".7" transform="matrix(4.15143 -27.33665 15.35896 2.33246 236 36)"/><path fill="#b17c70" fill-opacity=".6" d="M84.4 175.8l72.1 9.2-61-41.4-7.3 13.6z"/><path fill="#826b62" fill-opacity=".6" d="M7.3 129l10.3 3.4 31.6 46.9-36.5-23.4z"/><circle r="1" fill="#45683b" fill-opacity=".7" transform="matrix(-5.66467 -7.38907 20.27448 -15.543 162.7 169)"/><path fill="#d1ccd2" fill-opacity=".5" d="M131 92l-28-21 23 39z"/><path fill="#fee6d4" fill-opacity=".3" d="M103.4 146.5l29.2 16.1 24.5.4-62.5-29.8z"/><path fill="#410c00" fill-opacity=".4" d="M154.2 59.5l7.5-36.3-17.3-6.5 35.4-2.4z"/><path fill="#ceb9af" fill-opacity=".5" d="M102 27L91-10v42z"/><path fill="#c9d6ff" fill-opacity=".2" d="M189.6 122l-39.9-97.8 33.7 95.9-3.1 47.6z"/><path fill="#457380" fill-opacity=".5" d="M244 134h12v36h-12z"/><path fill="#5e6769" fill-opacity=".6" d="M198-12l4 37 65-37z"/><path fill="#6a6b60" fill-opacity=".8" d="M220.8 132.9l24.3 4-12.6 7.5-15-11.3z"/><path fill="#fdac8e" fill-opacity=".2" d="M121.3 121l26.3-21.4 20.7 16.8-46.8 13.5z"/><path fill="#8f8ea8" fill-opacity=".4" d="M56.5 129.9L51 140.5l18.1 22.8 8.4-30.3z"/><ellipse cx="198" cy="151" fill="#55611c" fill-opacity=".6" rx="4" ry="20"/><path fill="#d3dff0" fill-opacity=".5" d="M178 97l14-5-16 16z"/><path fill="#5b605c" fill-opacity=".8" d="M108 62.9l9.7 17.8 7-7.4-20.9-46.1z"/><path fill="#3b2a20" fill-opacity=".6" d="M6 120l41-6-11 32z"/><path fill="#305a28" fill-opacity=".6" d="M152 99l12-4-33-6z"/><ellipse cx="48" cy="29" fill="#54453c" fill-opacity=".6" rx="3" ry="104"/><path fill="#af808d" fill-opacity=".7" d="M175.8 35.2l-3.3.9L151.3 66l4.1 10.9z"/><path fill="#67493a" fill-opacity=".5" d="M227.2 94.1l-1.6 8.8 12.2 29.9-5.7-65.7z"/><path fill="#c1cadf" fill-opacity=".5" d="M92 140l-13 45-7-53z"/><path fill="#ffc497" fill-opacity=".4" d="M160 23h-7l1 21z"/></g></svg>