<svg xmlns="http://www.w3.org/2000/svg" viewBox="0 0 300 199"><defs/><path fill="#4f382e" d="M0 0h300v199H0z"/><g transform="translate(.6 .6) scale(1.17188)"><circle cx="111" cy="95" r="82" fill="#b9a99c" fill-opacity=".5"/><circle r="1" fill="#fbf3e7" fill-opacity=".6" transform="rotate(-66 105 -65.5) scale(22.57555 36.69543)"/><ellipse cx="238" cy="66" fill="#030800" fill-opacity=".7" rx="47" ry="169"/><circle r="1" fill-opacity=".5" transform="rotate(-55.1 155.5 36.5) scale(44.06125 54.48004)"/><ellipse cx="125" cy="169" fill="#faffff" fill-opacity=".7" rx="41" ry="17"/><ellipse cx="26" cy="33" fill="#000601" fill-opacity=".6" rx="61" ry="32"/><path fill="#b6e2c7" fill-opacity=".5" d="M147 34l43 7-21-57z"/><path fill="#fff" fill-opacity=".5" d="M59 51l4 33-45 19z"/><path fill="#200000" fill-opacity=".5" d="M93 82h22v65H93z"/><ellipse cx="87" cy="121" fill="#ffdef6" fill-opacity=".3" rx="67" ry="8"/><path fill="#f3d1bd" fill-opacity=".6" d="M88 33l18-47L79-4z"/><path fill="#211407" fill-opacity=".8" d="M113.6 15.4L145-16l13.2 22.9-25.7 26.5z"/><path fill="#ffccec" fill-opacity=".7" d="M90.5 74.7l-13.7-1.8-9.2 20.8L88.2 90z"/><path fill="#6b453a" fill-opacity=".6" d="M63 126l131 12-18 30z"/><path fill="#9ca49d" fill-opacity=".7" d="M58.1 131.9l-14.8 13-21-43.6 28 27.8z"/><ellipse cx="181" cy="58" fill="#716551" fill-opacity=".9" rx="12" ry="82"/><path fill="#0f0e00" fill-opacity=".5" d="M42 184l83-45-64-14z"/><ellipse cx="10" cy="78" fill="#090606" fill-opacity=".6" rx="16" ry="169"/><ellipse cx="81" cy="101" fill="#220b00" fill-opacity=".5" rx="46" ry="7"/><circle r="1" fill="#382b25" fill-opacity=".5" transform="matrix(-34.97923 -52.31884 7.81174 -5.22276 74.6 40.6)"/><ellipse cx="78" cy="116" fill="#ffa0dc" fill-opacity=".5" rx="13" ry="11"/><ellipse cx="30" cy="103" fill="#fffdff" fill-opacity=".4" rx="4" ry="20"/><path fill="#fcffff" fill-opacity=".4" d="M94 65l30 14 41-52z"/><path fill="#c4d2ca" fill-opacity=".5" d="M180.9 175l-52-10.2 2.2-11.7 52 10z"/><path fill="#111903" fill-opacity=".6" d="M83.7 144.9L73 152.5 34.3 99.1 45 91.5z"/><path fill="#fff" fill-opacity=".2" d="M16 56l51 35-29 2z"/><path fill="#fff" fill-opacity=".5" d="M103 120l22 12-2-13z"/><ellipse cx="98" cy="27" fill="#a58f75" fill-opacity=".4" rx="14" ry="39"/><path fill="#635732" fill-opacity=".6" d="M48 53V21l26 60z"/><circle r="1" fill="#c39b88" fill-opacity=".7" transform="matrix(10.83712 -.69725 1.35688 21.08953 154 78.7)"/><path fill="#3c1802" fill-opacity=".3" d="M201.9 146.6L151.3 39.4l28.8.3-11.4 10.1z"/><circle r="1" fill="#b2d3d2" fill-opacity=".4" transform="matrix(-15.87154 1.19339 -.6639 -8.82966 156.5 28.1)"/><path fill="#d0b5a4" fill-opacity=".4" d="M4.6 82.1L-16 107.2l5.4 2.9 26.5-32z"/><path fill="#bdc4b0" fill-opacity=".3" d="M199.8 70.8l-6-9.5-13.8 11 3.6 19.8z"/><path fill="#52362f" fill-opacity=".8" d="M129 140l-41 18 9-41z"/><circle r="1" fill="#6f4d3c" fill-opacity=".6" transform="matrix(16.10168 34.87874 -4.74022 2.1883 152 112.7)"/><circle cx="114" cy="169" r="19" fill="#f5fbf6" fill-opacity=".6"/><path fill="#4e280d" fill-opacity=".5" d="M99 83h20v33H99z"/><ellipse cx="16" cy="151" fill="#000308" fill-opacity=".4" rx="27" ry="37"/><path fill="#ac8268" fill-opacity=".8" d="M126 32l-12 8-9-35z"/><path fill="#242d00" fill-opacity=".4" d="M66 66h26v8H66z"/><path fill="#b97c66" fill-opacity=".4" d="M41 75l47-17-65 5z"/><path fill="#e4d1c3" fill-opacity=".5" d="M80.5 8l2.2-19.5 8 17.9 2.4 34.3z"/><circle r="1" fill="#23200f" fill-opacity=".5" transform="matrix(-1.31185 2.44568 -25.60193 -13.73278 33.6 110)"/><path fill="#9a6559" fill-opacity=".5" d="M73 120l-16 9 1-48z"/><circle r="1" fill="#2b2c25" fill-opacity=".7" transform="rotate(-50 30.1 -45) scale(26.17518 46.37431)"/><ellipse cx="168" cy="106" fill="#c37059" fill-opacity=".4" rx="9" ry="38"/><path fill="#0b0402" fill-opacity=".5" d="M22.5 25.3L60 63.7 7.9 53.5-16 32z"/><path fill="#281f15" fill-opacity=".6" d="M40.2 113l-1.7 1 62-21.9L47.9 122z"/><path fill="#c6d9c9" fill-opacity=".4" d="M111.6 115.2l23.5 10.9 7.3 6.4-33.3-2.5z"/><circle r="1" fill="#f8eaf1" fill-opacity=".5" transform="matrix(-4.99534 -4.3271 11.37054 -13.12651 37.8 87.5)"/><path fill="#000200" fill-opacity=".5" d="M82 99l29 21-15-24z"/><path fill="#101508" fill-opacity=".5" d="M240 0l-50 84 6 101z"/><path fill="#f3d0ad" fill-opacity=".3" d="M71.4 71.7L60.5 60l-14.8-6.1 32 4.4z"/><circle r="1" fill="#ffd3e2" fill-opacity=".4" transform="matrix(4.34964 -2.2933 2.88807 5.47771 48.4 129.7)"/><path fill="#c36897" fill-opacity=".6" d="M72.8 127.6l4.6 3.6 15.2 3.2 1.5-18.7z"/><path fill="#9f5a73" fill-opacity=".5" d="M104.8 54.8l-8.4 37.3-14.6 3.1 20-41.5z"/><path fill="#81402c" fill-opacity=".4" d="M92 0h14v28H92z"/><path fill="#4e6f58" fill-opacity=".5" d="M22 128v-13l18 11z"/><circle cx="81" cy="83" r="11" fill="#ffc7eb" fill-opacity=".4"/><circle cx="190" cy="102" r="4" fill="#e9ede7" fill-opacity=".4"/><path fill="#cac9c3" fill-opacity=".5" d="M121 69h9v26h-9z"/><path fill="#a3b6af" fill-opacity=".8" d="M161 22.4l-26 2.1 2.5 3.8 9.7 7.3z"/><path fill="#c9a891" fill-opacity=".8" d="M129.2 46.2l10.3-9.6-14.7-8.1-9.7 14.8z"/><path fill="#0c0900" fill-opacity=".6" d="M57.9 37.9l27.1 15-2.9 5.2-27.1-15z"/></g></svg>