<svg xmlns="http://www.w3.org/2000/svg" viewBox="0 0 300 199"><defs/><path fill="#444443" d="M0 0h300v199H0z"/><g transform="translate(.6 .6) scale(1.17188)"><ellipse cx="181" cy="88" fill="#fff" fill-opacity=".5" rx="53" ry="39"/><ellipse cx="100" cy="168" fill-opacity=".6" rx="180" ry="20"/><path fill-opacity=".5" d="M164 127l23-2-16-76z"/><path fill="#c9c9c9" fill-opacity=".6" d="M167 83l53 46 3-97z"/><path fill="#8e8e8f" fill-opacity=".5" d="M9 104l68 40-38-95z"/><ellipse cx="200" cy="11" fill="#1d1d1e" fill-opacity=".5" rx="225" ry="31"/><circle r="1" fill="#fcfcfd" fill-opacity=".5" transform="rotate(3.7 -2186.4 2823.7) scale(37.68429 3.92112)"/><path fill="#656565" fill-opacity=".7" d="M132 129L71 74l69-21z"/><path fill="#fff" fill-opacity=".5" d="M136 57h14v63h-14z"/><path fill="#2f2f2f" fill-opacity=".7" d="M218.5 71.9L172 119.4l74.2-68.2-31.6 10.6z"/><ellipse cx="162" cy="129" fill="#383838" fill-opacity=".9" rx="92" ry="8"/><circle r="1" fill="#040405" fill-opacity=".6" transform="matrix(8.0212 -.61589 2.52836 32.92869 82.2 135)"/><path fill="#fff" fill-opacity=".6" d="M185 107h31v14h-31z"/><ellipse cy="129" fill="#131313" fill-opacity=".8" rx="19" ry="24"/><circle r="1" fill-opacity=".6" transform="rotate(-60.7 53.5 -45.2) scale(41.72076 7.86362)"/><path fill="#f0f0f2" fill-opacity=".4" d="M228 50.2l-1.9 13.1-27.4-12.6 11.1-9.5z"/><ellipse cx="94" cy="100" fill="#a8a8aa" fill-opacity=".4" rx="11" ry="24"/><ellipse cx="197" cy="104" fill-opacity=".5" rx="2" ry="17"/><circle r="1" fill-opacity=".3" transform="matrix(-19.7283 -.75789 2.8645 -74.56485 255.2 146.5)"/><ellipse cx="153" cy="110" fill="#333" fill-opacity=".7" rx="2" ry="42"/><path fill="#fff" fill-opacity=".5" d="M154 53h12v37h-12z"/><circle r="1" fill="#1e1e1f" fill-opacity=".5" transform="matrix(-71.40044 -61.57363 1.61786 -1.87606 251.7 138.6)"/><path fill="#0e0e10" fill-opacity=".4" d="M142 23.8l-36.2 44.8h35.4l-36.5 58.5z"/><path fill="#101010" fill-opacity=".9" d="M70.1 55l17.4 77.1L70.7 8.5l-3.9 7.9z"/><path fill="#131313" fill-opacity=".5" d="M203.1 145.4l14.4 7.2 2.2-18-156.6 2.8z"/><path fill="#959596" fill-opacity=".5" d="M54.4 142.3l-10-34.6 21.2-6 10 34.6z"/><path fill="#fff" fill-opacity=".5" d="M130 142l16 5 4-6z"/><path fill="#1e1e1e" fill-opacity=".7" d="M200.1 68.6l.2 1-80.4 9.8-.2-1z"/><path fill="#fff" fill-opacity=".2" d="M212 131.2l-13-12.9-4.7-65.4 43.7 49.6z"/><path fill="#f3f3f3" fill-opacity=".6" d="M174 49h18v15h-18z"/><path fill="#363636" fill-opacity=".7" d="M172.8 75.9l18.1 68.8-7-25.4-20.4 43.8z"/><path fill="#313133" fill-opacity=".4" d="M244 147l12-119-32 40z"/><path fill="#1d1d1d" fill-opacity=".6" d="M97.8 100.9l-22.3 29.2 46.6-77.2-25.7 53.7z"/><ellipse cx="148" cy="98" fill="#010101" fill-opacity=".4" rx="19" ry="2"/><circle r="1" fill="#444" fill-opacity=".6" transform="matrix(-.91361 -.80223 68.84756 -78.40618 189.9 54.4)"/><path fill-opacity=".6" d="M192 59.7l1-.1 5 34.7-1 .1z"/><path fill="#bcbcbc" fill-opacity=".5" d="M126 87h6v38h-6z"/><path fill="#1c1c1c" fill-opacity=".7" d="M42.5 45.3l11.9 47.2 78 88.8L56.5 72.5z"/><path fill="#252525" fill-opacity=".8" d="M134.9 128.7l-.4-79.1v25.2l-7.3-30.7z"/><path fill="#5f5f60" fill-opacity=".4" d="M-8 80l63-91-21 148z"/><path fill="#717171" fill-opacity=".5" d="M150.7 89.5L81.6 61.9l24.3-54.7-9.7 46.1z"/><path fill="#2d2d2d" fill-opacity=".7" d="M229.6 76.7L203 48.9v7.9l34.5 7.9z"/><path fill-opacity=".5" d="M41 159l14 2-10-50z"/><path fill="#2b2b2b" fill-opacity=".8" d="M108.1 151.9l31-39.4-1.9 22.2 3.1 31.8z"/><path fill="#fff" fill-opacity=".6" d="M155.6 116.6l-.1-16.2 12.2 9.8-6.7 8.5z"/><path fill-opacity=".7" d="M195.1 95.7l-.2-5 8-.4.2 5z"/><path fill="#fcfcff" fill-opacity=".2" d="M221.7 127.6l7.2 19.3 2.3 9.6-11.2-4.1z"/><path fill="#fff" fill-opacity=".4" d="M180.7 52.3l13.9 71.4-19.1-41.6 18.8 3z"/><path fill="#222" fill-opacity=".8" d="M173.8 7.5L271-16l-33.1 37.9L271 53.1z"/><path fill-opacity=".4" d="M199.3 87.7l11.4 18.4 23.4 11.3-4.5 8.6z"/><path fill="#000001" fill-opacity=".3" d="M178.3 121l44.2 35.7-63-57.9-42.7-38.3z"/><ellipse cx="164" cy="146" fill="#fff" fill-opacity=".3" rx="26" ry="3"/><circle r="1" fill="#222" fill-opacity=".6" transform="rotate(47.2 -66 220.4) scale(80.4405 1.8425)"/><path fill="#6d6d6d" fill-opacity=".9" d="M196.6 97.1l-38.7 1.6 4.1 3.4 4.6-11.7z"/><circle r="1" fill="#131313" fill-opacity=".7" transform="matrix(-162.54882 145.5387 -.66705 -.74501 202.2 141.7)"/><path fill="#040404" fill-opacity=".4" d="M138 42.8l10.9 15.4L181.1 77l-87-58.3z"/><path fill="#fff" fill-opacity=".5" d="M210 147.5v5h-10v-5z"/><path fill="#fff" fill-opacity=".4" d="M136 88l16 33-2-29z"/><path fill="#fefefe" fill-opacity=".8" d="M169.8 55.4l.4 9-6 .2-.4-9z"/><path fill="#202020" fill-opacity=".7" d="M162.3 138.5l26.4-34.1-9.4 5.4-32.9 43z"/><path fill="#0c0c0c" fill-opacity=".5" d="M207.3 82l54.8-56 8.9 3.7-63.7 54.7z"/><path fill="#0a0a0b" fill-opacity=".4" d="M189.9 14.9l-8.6 11.6-39.2 39.4 8.2-17.7z"/><path fill="#696969" fill-opacity=".6" d="M70.3 47.7L60 35.9l4.6 65.1 3.8-48.3z"/><path fill="#f2f2f2" fill-opacity=".5" d="M221.8 121.4l-10.9 5.5-14.4-31.5 24.3 22.4z"/><path fill="#414141" fill-opacity=".8" d="M193.8 17.6l-60.1 24.7L177.4-16l17.9 84.1z"/></g></svg>