<svg xmlns="http://www.w3.org/2000/svg" viewBox="0 0 300 199"><defs/><path fill="#645484" d="M0 0h300v199H0z"/><g transform="translate(.6 .6) scale(1.17188)"><circle cx="149" cy="90" r="173" fill="#f8ffdc" fill-opacity=".7"/><circle r="1" fill="#5a2b00" fill-opacity=".5" transform="matrix(-38.918 -54.77954 27.70593 -19.68361 99.7 120.5)"/><circle r="1" fill="#fcffff" fill-opacity=".8" transform="matrix(43.11677 -56.06076 46.18435 35.52075 198.7 67.8)"/><ellipse cx="105" cy="59" fill="#b2b7ad" rx="24" ry="49"/><path fill="#3f1b00" fill-opacity=".5" d="M69 49l16 72-36-12z"/><path fill="#894d2b" fill-opacity=".6" d="M141.7 147l-26.4 15.4L126 90.3l22.4.3z"/><circle r="1" fill="#f8fcfe" fill-opacity=".9" transform="matrix(-81.28991 25.47471 -5.29366 -16.8921 232.9 169)"/><path fill="#a1a8a2" fill-opacity=".8" d="M120 154l151-30-121 60z"/><circle r="1" fill="#fcffff" fill-opacity=".7" transform="matrix(12.17856 -12.79604 8.13262 7.74017 130.2 71.6)"/><ellipse cx="68" cy="33" fill="#a5ada2" fill-opacity=".6" rx="80" ry="26"/><circle r="1" fill="#d7e4eb" fill-opacity=".6" transform="matrix(6.40025 -22.32891 46.05394 13.20067 45.8 154.8)"/><path fill="#5d3c1d" fill-opacity=".6" d="M119 185l-26-20 39-41z"/><circle r="1" fill="#fcffff" fill-opacity=".7" transform="matrix(-11.19765 14.9628 -9.15705 -6.85282 158.6 133.2)"/><path fill="#fffff4" fill-opacity=".5" d="M116 109h10v22h-10z"/><circle r="1" fill="#442202" fill-opacity=".7" transform="rotate(-93.5 65.5 1.8) scale(8.64099 9.51675)"/><path fill="#b8c1bd" fill-opacity=".6" d="M64 90l-80 7L24-16z"/><circle r="1" fill="#6a3612" fill-opacity=".7" transform="rotate(-140.1 71.7 47) scale(7.04868 18.81946)"/><circle cx="53" cy="100" r="5" fill="#080000" fill-opacity=".8"/><path fill="#607367" fill-opacity=".3" d="M271 128l-65-9-20 42z"/><circle r="1" fill="#feffff" fill-opacity=".7" transform="matrix(13.5197 -9.32502 42.16705 61.1351 222 48.2)"/><path fill="#f7f9f4" fill-opacity=".6" d="M134 114l1-24 15-15z"/><path fill="#8a5839" fill-opacity=".7" d="M145.3 135.9L129.6 86l-8.2 27.2 22.7-14.6z"/><circle r="1" fill="#d0dade" fill-opacity=".6" transform="rotate(-42.9 159 -299) scale(14.78076 63.90735)"/><path fill="#c5d0d2" fill-opacity=".4" d="M125 163.8l71.5-38 6.5 12.4-71.5 38z"/><path fill="#9da59c" fill-opacity=".6" d="M111 67l68-67L52 32z"/><path fill="#8b886e" fill-opacity=".5" d="M44.2 33.2L-6.9 10.8l46 12L78.6-16z"/><path fill="#886c45" fill-opacity=".5" d="M56 119l27-46-8 71z"/><path fill="#1d0000" fill-opacity=".5" d="M70 91l12-15-24-5z"/><circle cx="30" cy="128" r="29" fill="#c6d1d4" fill-opacity=".6"/><circle r="1" fill="#c1ccce" fill-opacity=".6" transform="rotate(-113.8 162.2 -29.5) scale(8.31436 77.54797)"/><path fill="#ead7b8" fill-opacity=".4" d="M90 105.4l29.9 1.4-46.5-38.6 16.4-17.4z"/><path fill="#fbffff" fill-opacity=".4" d="M111.8 66.5L150 31.3l58.3-4.7L138 84.1z"/><path fill="#c4bcb3" fill-opacity=".7" d="M148.3 153.6l14.8 18.6-29-56.4 6.3 18.2z"/><path fill="#794729" fill-opacity=".6" d="M132 84l4 51-14-30z"/><path fill="#a88c5f" fill-opacity=".6" d="M86.9 118.8l-22.1-32L96 102.9l-14.4-27z"/><path fill="#c0cdd0" fill-opacity=".5" d="M119 108l8-21-42-3z"/><circle r="1" fill="#909990" fill-opacity=".5" transform="rotate(66.2 -.6 116.8) scale(30.50855 7.18424)"/><path fill="#fcffff" fill-opacity=".6" d="M146 110h42v25h-42z"/><path fill="#dbe4e6" fill-opacity=".6" d="M184 185l-23-12 83-32z"/><circle r="1" fill="#c6cbc1" fill-opacity=".4" transform="matrix(32.19218 -1.95021 .97446 16.08538 88.7 16.3)"/><path fill="#150000" fill-opacity=".5" d="M52 95h7v16h-7z"/><path fill="#cfd7d8" fill-opacity=".6" d="M197.5 114.3l27.1 33.4L188.4 83l-35.6-52.1z"/><path fill="#7b3b19" fill-opacity=".6" d="M141 154.5l-18.2-5.3 2.2-7.7 18.2 5.3z"/><circle r="1" fill="#feffff" fill-opacity=".7" transform="rotate(45.5 4.6 285.4) scale(36.12383 12.94124)"/><circle r="1" fill="#bcc3c0" fill-opacity=".9" transform="matrix(-27.9314 7.30968 -7.35135 -28.09063 29.6 76.7)"/><path fill="#dbe4e5" fill-opacity=".5" d="M44 142l57 43-11-34z"/><path fill="#e9e7dd" fill-opacity=".5" d="M139 155l-10-3 7 33z"/><path fill="#76421f" fill-opacity=".5" d="M60 81l-4 22 34 23z"/><path fill="#c1a377" fill-opacity=".4" d="M116 106l-16 33 14 15z"/><path fill="#848268" fill-opacity=".5" d="M64 135l-7-19 44-4z"/><ellipse cx="133" cy="16" fill="#aab6b3" fill-opacity=".3" rx="35" ry="30"/><path fill="#bac1bb" fill-opacity=".9" d="M-16 61l98-5-45-28z"/><path fill="#c3ced0" fill-opacity=".4" d="M193.5 83.4l41.8-24.7-70.4 49.1-24.8 10.4z"/><path fill="#834224" fill-opacity=".3" d="M148 87l-16 21 12-1z"/><path fill="#9e8c66" fill-opacity=".5" d="M75 100l14 22 22-17z"/><path fill="#4e3c04" fill-opacity=".1" d="M87.5 56.4L71.4 39.6 131.3-16 80.8 40.4z"/><path fill="#7d5132" fill-opacity=".7" d="M124.4 113l8.3-30.8 2.9.7-8.3 31z"/><circle r="1" fill="#c3cdcf" fill-opacity=".6" transform="rotate(54.2 112.4 257) scale(78.86625 16.20686)"/><path fill="#7a8176" fill-opacity=".6" d="M250.9 136.6L130.2 185l85-38.9 55.8-18.8z"/><path fill="#f6f7f7" fill-opacity=".7" d="M147.1 87.5l36 1.9L133 50.3l5.2 53.1z"/><circle r="1" fill="#cdd4d6" transform="matrix(-12.79314 7.29708 -31.03124 -54.40355 0 160.4)"/><path fill="#0b1d27" fill-opacity=".2" d="M104.5 70.7l-1.3-.1L160.3 18 107 70.8z"/><path fill="#c3c9cb" fill-opacity=".7" d="M218.6 77.1l-19.7-29.4 22.2 27.7 46.5 65.2z"/><path fill="#6f7561" fill-opacity=".2" d="M26.4 24l39.8 10.6 1-11.4 17.2 24.2z"/><path fill="#624121" fill-opacity=".5" d="M101.8 116.8l-7.2 36.3-39-87.5 28.9 60z"/></g></svg>