<svg xmlns="http://www.w3.org/2000/svg" viewBox="0 0 300 199"><defs/><path fill="#513732" d="M0 0h300v199H0z"/><g transform="translate(.6 .6) scale(1.17188)"><circle r="1" fill="#fff6ef" fill-opacity=".5" transform="matrix(-74.39683 17.44962 -56.82227 -242.263 123.5 114.7)"/><circle r="1" fill="#eefeff" fill-opacity=".7" transform="rotate(175.1 54.4 79.6) scale(63.94722 33.14002)"/><ellipse cx="150" cy="2" fill="#deecea" fill-opacity=".7" rx="52" ry="30"/><circle r="1" fill="#050000" fill-opacity=".4" transform="matrix(7.05442 -19.89255 71.84717 25.4789 192.1 67.4)"/><circle r="1" fill="#10120e" fill-opacity=".7" transform="rotate(-155.7 20.9 58.3) scale(48.60569 32.80299)"/><path fill-opacity=".5" d="M105 76L49 59l7 35z"/><circle r="1" fill="#867774" fill-opacity=".7" transform="rotate(36.1 -115.5 362.2) scale(79.10441 19.85626)"/><path fill="#040603" fill-opacity=".7" d="M239.9 68.1l57 78.5-34.8 25.3-57-78.5z"/><path fill="#d5a890" fill-opacity=".7" d="M38.5 101.6l8.8 5.5 3.4-98.8-21.4 71.3z"/><circle r="1" fill="#aecdcf" fill-opacity=".5" transform="matrix(3.6684 29.20054 -40.91098 5.13956 189.6 168.7)"/><circle r="1" fill="#814b42" fill-opacity=".5" transform="matrix(-2.5369 -14.09947 57.66484 -10.37554 148.7 104.4)"/><path fill="#000e04" fill-opacity=".4" d="M-16 93l46 11 8-114z"/><path fill="#fff" fill-opacity=".6" d="M73.2 26.5l-11.8-7.7 29.4-45.3 11.8 7.7z"/><circle r="1" fill="#e1e9ee" fill-opacity=".8" transform="rotate(-82.3 125.4 25.3) scale(27.24928 26.52926)"/><circle r="1" fill="#965a49" fill-opacity=".5" transform="matrix(3.3709 -30.45808 17.78098 1.96788 106.4 46.9)"/><path fill="#775248" fill-opacity=".6" d="M91 60l131 2-30-42z"/><path fill="#563d3b" fill-opacity=".7" d="M49.8 87.4l-6-1.3 14.4-67.5 6 1.3z"/><circle r="1" fill="#191510" transform="matrix(-2.73928 18.05375 -19.12221 -2.9014 28.5 160)"/><circle r="1" fill="#957468" fill-opacity=".6" transform="rotate(-24 141.1 -530.3) scale(11.38898 32.67144)"/><path fill="#282420" fill-opacity=".8" d="M50.2 136.6L35.3 168 16.2 93.5l56.1 22.8z"/><path fill-opacity=".8" d="M256.6 41l-29.3-72.3 24.1-9.7 29.3 72.3z"/><circle r="1" fill="#1b1418" fill-opacity=".6" transform="rotate(143 83.5 94.8) scale(28.83243 5.16653)"/><path fill="#dee5e8" fill-opacity=".6" d="M183.3 129.8L38.8 185l16.9-36.3 16.7-29.3z"/><ellipse cx="187" cy="1" fill="#9fb1ab" fill-opacity=".5" rx="16" ry="34"/><path fill="#08181e" fill-opacity=".3" d="M175 30h45v57h-45z"/><path fill="#8e211b" fill-opacity=".3" d="M207 118l-43-18-3 51z"/><path fill="#000013" fill-opacity=".5" d="M68.6 81.7l-19.2-6.2 14.9 22.7 27-25z"/><circle r="1" fill="#525c4d" fill-opacity=".6" transform="matrix(-12.32923 -26.92938 23.06841 -10.56154 12.3 19.5)"/><path fill="#c4d1cd" fill-opacity=".4" d="M164 97L95 76l78-5z"/><path fill="#587c7a" fill-opacity=".5" d="M257 183l-29-68-36 19z"/><circle r="1" fill="#e5bda2" fill-opacity=".6" transform="rotate(96.9 20.4 23.6) scale(83.0468 7.17119)"/><path fill="#f5a287" fill-opacity=".4" d="M93.6 78.8l38.9 8.7-45.7 25.8-46.4-6.8z"/><circle r="1" fill="#cf9e85" fill-opacity=".8" transform="rotate(3.7 -734.4 1148.5) scale(16.30484 18.9398)"/><path fill="#b4756a" fill-opacity=".5" d="M170.2 40.9l-8.6-17.7-48.8 45.9 40.4-14.4z"/><path fill-opacity=".3" d="M204.1 41.5L192.3-6.1l13.6-3.4 11.8 47.6z"/><circle r="1" fill="#120e09" fill-opacity=".9" transform="matrix(-19.20728 14.36888 -11.13363 -14.88263 5.1 68.9)"/><circle r="1" fill="#e0e6e5" fill-opacity=".5" transform="rotate(158.1 80 20.6) scale(23.26686 19.87936)"/><path fill="#6d564a" fill-opacity=".4" d="M247.5 48.7l-7 26.1-58-15.5 7-26.1z"/><path fill="#d4d5d5" fill-opacity=".6" d="M128.6 131l6.6-15.7 32.2 13.7-6.6 15.7z"/><path fill="#711209" fill-opacity=".4" d="M102.2-16l-6.7 37.5-7.8 1L91.5 9z"/><path fill="#13192f" fill-opacity=".5" d="M51 44h5v47h-5z"/><path fill="#020a19" fill-opacity=".6" d="M226.7 70.1l1.6 45-21 .8-1.6-45z"/><path fill="#c0c8c9" fill-opacity=".9" d="M193.2 171.9l-26.2 10-12.2-31.8 26.2-10z"/><path fill="#0a0b14" fill-opacity=".7" d="M174.6 88.6l25-21.9L271 86.6l-68.2-5.5z"/><path fill="#c89683" fill-opacity=".7" d="M118.6 31.4l-70.8 1.7L91 13.8 80.3 48.9z"/><path fill="#2e0600" fill-opacity=".3" d="M122.2 36.1l5.8 7.7-54.6 6.4-4.9-.6z"/><path fill="#efc7b4" fill-opacity=".6" d="M76 49h25v8H76z"/><path fill="#a56d68" fill-opacity=".7" d="M151.1 151.5l20.1-7.7 36.1-26.7-11.3-9.5z"/><path fill="#7e413d" fill-opacity=".5" d="M150 112.6l-21.8 3.5-4.2-26.7 21.8-3.5z"/><path fill="#e7eae5" fill-opacity=".7" d="M66.5-16l1.3 7.8-1.4 36.8 20.3-17.1z"/><path fill-opacity=".5" d="M173 105h5v11h-5z"/><path fill="#170e00" fill-opacity=".5" d="M234.3 96.2l22.2-28L271 170.1l-22.9 9.8z"/><path fill="#ebb69e" fill-opacity=".6" d="M72 64h34v6H72z"/><path fill="#1b1309" fill-opacity=".5" d="M4.4 19.2l27.7-6.9 5.6 7.5L-16 31.3z"/><path fill="#060204" fill-opacity=".5" d="M50.6 47.8L63.8 29l1.6 1.2L52.2 49z"/><path fill="#542a1f" fill-opacity=".5" d="M167 69l-36-6 62-20z"/><path fill="#2f2322" fill-opacity=".4" d="M121 52l-40 7 26 4z"/><path fill="#00101f" fill-opacity=".3" d="M127.9 67.7l-53 4.7-17 25.1L91.8 79z"/><path fill="#f3cab5" fill-opacity=".5" d="M44 93l43 3-20 12z"/><path fill="#c4937d" fill-opacity=".5" d="M32 61h19v31H32z"/><path fill="#ffc5c0" fill-opacity=".5" d="M122 53h14v5h-14z"/><path fill="#8c8183" fill-opacity=".4" d="M129 14.7L108.5-16l31.3 7.6-7.1 25.8z"/><path fill="#672926" fill-opacity=".4" d="M90 92h19l8-10z"/><path fill="#6c7966" fill-opacity=".6" d="M-1.1 7.2L35-7.4l4.1 10.2L3 17.4z"/><path fill="#8f6156" fill-opacity=".9" d="M115.9 24.3L85.6 37.2l-4.3-4.3 6.4-2.6z"/></g></svg>