<svg xmlns="http://www.w3.org/2000/svg" viewBox="0 0 300 199"><defs/><path fill="#402523" d="M0 0h300v199H0z"/><g transform="translate(.6 .6) scale(1.17188)"><circle r="1" fill="#b4c6ba" fill-opacity=".5" transform="matrix(27.76286 95.2457 -227.855 66.41672 97.9 57.5)"/><circle r="1" fill="#f3efe9" fill-opacity=".6" transform="matrix(21.7729 -13.705 22.37825 35.5519 62.4 56)"/><circle r="1" fill="#210000" fill-opacity=".6" transform="rotate(168 49.9 36.9) scale(12.85555 117.73809)"/><path fill="#c4ccce" fill-opacity=".7" d="M29.7 45.1l27.8 134.6 12.1-23.5-7.3-27.4z"/><circle r="1" fill="#e1dcd5" fill-opacity=".7" transform="matrix(8.67763 26.09965 -9.15082 3.04247 96.3 101.9)"/><circle cx="225" cy="169" r="90" fill="#5d574a" fill-opacity=".7"/><path fill-opacity=".4" d="M57 73h26v62H57z"/><circle r="1" fill="#060300" fill-opacity=".5" transform="matrix(-23.71313 -137.48045 14.6906 -2.53389 0 122.8)"/><ellipse cx="114" cy="157" fill="#362c20" fill-opacity=".9" rx="18" ry="37"/><ellipse cx="98" cy="26" fill="#351919" fill-opacity=".7" rx="17" ry="38"/><circle r="1" fill="#fbfbf1" fill-opacity=".4" transform="matrix(-6.84238 -32.19086 12.4489 -2.6461 71.5 45)"/><path fill="#141217" fill-opacity=".8" d="M77.9 151.4l-.1 10.2-25.2-74.5 25.2 17.7z"/><path fill="#fff" fill-opacity=".6" d="M76.2 94l-4 3-8.4-11 4-3z"/><path fill="#dee2dd" fill-opacity=".4" d="M45 30l19.8 140.6L55 172 35.2 31.4z"/><path fill="#a39d87" fill-opacity=".6" d="M17.2-27.5l40-8.6 13.6 63.6-40 8.6z"/><circle r="1" fill="#909190" fill-opacity=".5" transform="matrix(8.35407 -1.05975 13.35175 105.2528 128.9 53.2)"/><ellipse cx="18" cy="82" fill="#92aab9" fill-opacity=".3" rx="10" ry="46"/><path fill="#3c2220" fill-opacity=".8" d="M114-16L71 6l24 51z"/><circle r="1" fill="#f8fbfa" fill-opacity=".6" transform="matrix(-11.3392 -32.3797 3.3967 -1.1895 95 89.4)"/><path fill="#a1a299" fill-opacity=".6" d="M69.1 133.7L38.5 67.5l18.1 64.2L73 166.2z"/><path fill="#5b2b26" fill-opacity=".5" d="M55.3 60.6L70 83.2l-3.3 2.2L52 62.8z"/><circle r="1" fill="#2b383e" fill-opacity=".5" transform="matrix(2.91424 -.43554 5.60478 37.50246 34.7 81.4)"/><path fill="#a6b7c3" fill-opacity=".5" d="M-16 32l20-2 25 34z"/><path fill="#fbfffa" fill-opacity=".5" d="M77.2 132.3l1-.2 4.6 29.6-1 .2z"/><path fill="#4b1716" fill-opacity=".4" d="M107 108L84 39l34 27z"/><ellipse cx="165" cy="44" fill="#7d766b" fill-opacity=".8" rx="36" ry="57"/><path fill="#f2f2f5" fill-opacity=".5" d="M31 5l73-21H14z"/><path fill="#a5bfd1" fill-opacity=".5" d="M6 4h8v23H6z"/><path fill="#eeedee" fill-opacity=".6" d="M41 48l8 42 11-9z"/><path fill="#4c5454" fill-opacity=".7" d="M8.9 11.5l20.9 38.1-7.1-54.9-3.1 18.5z"/><path fill="#614d2e" fill-opacity=".4" d="M88 167L77 97l34 58z"/><circle cx="26" cy="113" r="6" fill="#3a372f" fill-opacity=".6"/><path fill="#959ead" fill-opacity=".3" d="M150.1 171.5l-10.5 2.8-7.5-57 16.8 26.2z"/><circle cx="170" cy="116" r="34" fill="#67594c" fill-opacity=".5"/><path fill="#cebeaf" fill-opacity=".4" d="M104.9 129.8l-.2 13.1-22-39-3-56z"/><ellipse cx="74" cy="45" fill="#ddded7" fill-opacity=".5" rx="5" ry="31"/><circle cx="30" cy="104" r="5" fill="#a7b1b8" fill-opacity=".7"/><path fill="#211d14" fill-opacity=".4" d="M20.8 60.4l2.4 22.8-4 .4-2.4-22.8z"/><path fill="#a9b5bd" fill-opacity=".5" d="M31 88l-17 4 14-25z"/><path fill="#303132" fill-opacity=".5" d="M28.3 142.8l10.2 25.3-12.9 10.4 10.2-32.6z"/><circle r="1" fill="#2e2a25" fill-opacity=".4" transform="matrix(25.76102 -23.3966 17.7345 19.52672 244.4 169)"/><path fill="#13203a" fill-opacity=".5" d="M51.7 89L65 85.3l7.6 14.8-17.1.6z"/><path fill="#6f5659" fill-opacity=".4" d="M68 61.8l10-7.3-8.1 2.3-32 14.3z"/><path fill="#0f0c19" fill-opacity=".5" d="M74 76h7v9h-7z"/><path fill="#64553b" fill-opacity=".5" d="M87.7 4.4l-62.2 19-1.2-3.8L86.5.6z"/><circle r="1" fill="#6e6458" fill-opacity=".6" transform="matrix(88.7485 -51.39234 8.9557 15.46545 255 59.5)"/><path fill="#828b92" fill-opacity=".7" d="M49.7 155.1L20.2 185l35.9-20.5-20.1-94z"/><path fill="#bbc8d0" fill-opacity=".5" d="M8 61h7v19H8z"/><path fill="#3b4345" fill-opacity=".6" d="M41 110l11 52-13-15z"/><path fill="#e7e6e3" fill-opacity=".8" d="M57.8 61.6L84 47.8l-30.6 1.9-6-22z"/><path fill="#f6f9fc" fill-opacity=".2" d="M139.6 109L122.2 1.3l5.6 64.4 11.9 52.9z"/><path fill="#413c32" fill-opacity=".8" d="M108 125.9l35 59.1-17-85.2-6.3 46z"/><circle cx="16" cy="25" r="4" fill="#bbcad4" fill-opacity=".6"/><ellipse cx="136" cy="56" fill="#413b2f" fill-opacity=".5" rx="2" ry="37"/><path fill="#ecedec" fill-opacity=".5" d="M56.6 66.2l30.6-11.5 10.2 30.5-30.3-15.3z"/><path fill="#fef5f1" fill-opacity=".4" d="M83.1 90.2l-4.7-3-3.7 12.6L64.6 83z"/><path fill="#48453d" fill-opacity=".5" d="M24 82h4v48h-4z"/><ellipse cx="115" cy="144" fill="#311914" fill-opacity=".5" rx="5" ry="112"/><path fill="#031d26" fill-opacity=".3" d="M-16 6.8l19.7.8 2.9 28.6 12.8-.6z"/><circle r="1" fill="#3b3e3b" fill-opacity=".5" transform="matrix(12.34028 58.55883 -1.6172 .3408 48.3 159.3)"/><path fill="#051d2d" fill-opacity=".1" d="M24 45.1L-3.3 57.9l43.5-2.7-18.2-42z"/><path fill="#dcdccf" fill-opacity=".4" d="M66 32L27 22l18 36z"/><path fill="#babaab" fill-opacity=".6" d="M79.1 152.3l5 10.8-.3-18-5.1-12.8z"/><path fill="#2f1d20" fill-opacity=".4" d="M53 47l13 67.8-1 .2-13-67.8z"/><path fill="#363329" fill-opacity=".7" d="M80.5 161.7l47.9-6-62.8 26.6L78 148.6z"/></g></svg>