<svg xmlns="http://www.w3.org/2000/svg" viewBox="0 0 300 199"><defs/><path fill="#67493d" d="M0 0h300v199H0z"/><g transform="translate(.6 .6) scale(1.17188)"><circle r="1" fill="#001745" fill-opacity=".8" transform="matrix(13.36145 107.27215 -55.72033 6.94033 29.8 102.3)"/><circle cx="132" cy="95" r="34" fill="#faf3fb" fill-opacity=".5"/><circle cx="205" cy="163" r="64" fill="#040a1a" fill-opacity=".9"/><circle r="1" fill="#32649b" fill-opacity=".6" transform="matrix(-93.96044 -107.19899 65.77468 -57.65183 255 13.7)"/><path fill="#42a2ff" fill-opacity=".4" d="M6.9 69l-26.5-35.2 64.7-48.7 26.5 35.1z"/><circle r="1" fill="#b6eaff" fill-opacity=".5" transform="matrix(7.78318 12.05968 -30.53161 19.70474 110.7 158.8)"/><ellipse cx="95" cy="46" fill="#010c17" fill-opacity=".7" rx="58" ry="21"/><ellipse cx="190" cy="81" fill="#0f1627" fill-opacity=".8" rx="19" ry="36"/><circle r="1" fill="#bebeb6" fill-opacity=".5" transform="matrix(-78.72342 -39.93867 8.59755 -16.9467 242.6 14)"/><path fill="#fff" fill-opacity=".4" d="M96 66h77v15H96z"/><path fill="#000610" fill-opacity=".5" d="M31 52l26 133 50-55z"/><circle r="1" fill="#001653" fill-opacity=".6" transform="matrix(46.91193 36.65161 -7.01578 8.97978 239.4 51.3)"/><ellipse cx="97" cy="95" fill="#736465" fill-opacity=".8" rx="19" ry="14"/><path fill="#000005" fill-opacity=".5" d="M116 62L69 85l5-70z"/><circle r="1" fill="#21363c" fill-opacity=".6" transform="rotate(20.6 20.3 366.8) scale(42.86471 22.23243)"/><path fill="#adcedc" fill-opacity=".4" d="M108 5l-27 6 10 20z"/><circle r="1" fill="#97a7ab" fill-opacity=".6" transform="matrix(16.34251 -29.42739 7.35086 4.0823 152.2 115)"/><path fill="#f7f6db" fill-opacity=".4" d="M204.9 45.3l-34.4-4.6-1.7-7.5 24-5z"/><circle r="1" fill="#09142c" fill-opacity=".8" transform="matrix(32.02627 15.6895 -38.59385 78.77986 33 119.7)"/><path fill="#ffd0b4" fill-opacity=".4" d="M75.9 8.1L60.6 21 36-8.1 51.4-21z"/><path fill="#1c202c" fill-opacity=".9" d="M189.5 43.6l-37.8 93.1 6.4-12.1 60.3-45.9z"/><ellipse cx="239" cy="91" fill="#3d70cd" fill-opacity=".4" rx="63" ry="10"/><path fill="#5c2d0f" fill-opacity=".5" d="M136.7 102.9L174 69.4l3.4 3.7-37.2 33.5z"/><path fill="#9f7a5e" fill-opacity=".7" d="M136 65l-20-16 55 16z"/><circle r="1" fill="#dfe2e7" fill-opacity=".5" transform="matrix(4.02788 -6.8842 24.5828 14.38318 255 15.6)"/><circle r="1" fill="#aec4c2" fill-opacity=".5" transform="matrix(-4.13752 -3.54604 14.07476 -16.42242 92.4 85.4)"/><path fill="#010100" fill-opacity=".6" d="M115.1 46.8l4-3.1-3.7-32.2-23 11.5z"/><path fill="#191821" fill-opacity=".4" d="M109.3 124.2l-24.2 39.5-30.5-72.3 47.2 8.3z"/><circle r="1" fill="#aed2ff" fill-opacity=".6" transform="matrix(.46625 -2.91087 10.6604 1.70752 167 7.4)"/><path fill="#755133" fill-opacity=".5" d="M134 90.7l-6.1 19-20-6.4 6.2-19z"/><path fill="#0c0a08" fill-opacity=".7" d="M145.1 37l17.4 26.6-24.6-9.3 23.7-41.4z"/><path fill="#092357" fill-opacity=".6" d="M58.2 24.1l-35-19.5L42 1.2l13.2 12z"/><path fill="#2d2424" fill-opacity=".6" d="M90.2-.4l-27.8 32L69.3-16l3.2 69z"/><circle r="1" fill="#afb2a9" fill-opacity=".5" transform="rotate(-104.4 72.2 -32) scale(14.82156 1.63232)"/><path fill="#264475" d="M174.5 14.5L222.6-16l-30 21.8L222 57.2z"/><ellipse cx="107" cy="7" fill="#6e6868" fill-opacity=".8" rx="41" ry="2"/><path fill="#91a0a5" fill-opacity=".6" d="M177 30h7v30h-7z"/><path fill="#e3dccd" fill-opacity=".5" d="M171 60l-66 26 54-3z"/><ellipse cx="115" cy="169" fill="#909fae" fill-opacity=".4" rx="26" ry="30"/><path fill="#173c7a" fill-opacity=".5" d="M29 139l18 5-13-55z"/><path fill="#e2f1f1" fill-opacity=".4" d="M77.4 93.9l20.7-20.6 13.7 19.8 1.7-27.6z"/><path fill="#080907" fill-opacity=".5" d="M78 86l31-24-31-47z"/><circle r="1" fill="#0f5fc2" fill-opacity=".2" transform="matrix(-22.76398 28.62426 -20.21844 -16.07909 16 42)"/><path fill="#2f3e4a" fill-opacity=".3" d="M214.8-12.2L227.4 16l-18.2 8.1L196.6-4z"/><ellipse cx="102" cy="94" fill="#ffb0f1" fill-opacity=".5" rx="6" ry="5"/><circle r="1" fill="#2f3429" fill-opacity=".5" transform="rotate(105.8 5.2 106) scale(3.82322 29.34737)"/><circle r="1" fill="#6f83a9" fill-opacity=".5" transform="matrix(.96705 6.99756 -27.40245 3.78697 237.2 85.1)"/><circle r="1" fill="#141e43" fill-opacity=".6" transform="matrix(45.65715 18.53945 -1.6197 3.98884 237.6 112.8)"/><path fill="#0c0701" fill-opacity=".6" d="M276.8 15.5L230.1-7.3l3-6.2L280 9.3z"/><path fill="#000004" fill-opacity=".3" d="M197 102.3l-36.6-62.2 26.9 24 35.2 13.3z"/><path fill="#f8ffff" fill-opacity=".4" d="M64.6 23.6l-2.5 1.7L45.4.4l2.5-1.7z"/><path fill="#9e674d" fill-opacity=".5" d="M80.1 11.8L67.4 24.7 45.2-16h37.6z"/><path fill="#9b9fa2" fill-opacity=".6" d="M118.1 10.4l-18.6 7.7L89 11.7l15.9-2z"/><path fill="#ac6d6e" fill-opacity=".4" d="M110.8 133.5l21-32.5 3.6-10.1-42 50.7z"/><path fill-opacity=".6" d="M80 8h47v1H80z"/><ellipse cx="106" cy="6" fill="#e8eef9" fill-opacity=".6" rx="20" ry="1"/><path fill="#593c35" fill-opacity=".6" d="M92.9 81.4l12.3 24.5-.7 12.1-21.4 13.1z"/><path fill-opacity=".6" d="M158 25l-10 11V11z"/><ellipse cx="159" cy="43" fill="#b87d64" fill-opacity=".4" rx="5" ry="15"/><path fill="#01347c" fill-opacity=".6" d="M221 93l40 9 8-14z"/><path fill="#29282f" fill-opacity=".7" d="M147 64.2l22.4-11.6L146.8-16l29.4 71.9z"/><path fill="#b4c2ca" fill-opacity=".5" d="M93 32.7L84.8 20l4.2-2.8L97.2 30z"/><path fill-opacity=".5" d="M121 8h8v21h-8z"/><path fill="#82ace3" fill-opacity=".3" d="M180 98.1l-.5-14.9 11.2 1.9-2.5 10.3z"/><circle r="1" fill="#182840" fill-opacity=".6" transform="matrix(1.3738 -2.44468 20.95739 11.77704 172.8 18.7)"/></g></svg>