<svg xmlns="http://www.w3.org/2000/svg" viewBox="0 0 300 199"><defs/><path fill="#4d3f3b" d="M0 0h300v199H0z"/><g transform="translate(.6 .6) scale(1.17188)"><path fill="#ecf6f6" fill-opacity=".6" d="M150.7 42.7l25 128.6-30.4 6-25-128.6z"/><ellipse cx="217" cy="29" fill="#00020a" fill-opacity=".4" rx="66" ry="159"/><ellipse cx="41" cy="155" fill-opacity=".7" rx="55" ry="26"/><path fill="#f2ffc8" fill-opacity=".5" d="M37 140L23 45l27 43z"/><ellipse cx="56" cy="35" fill="#d5f9e0" fill-opacity=".7" rx="11" ry="12"/><circle r="1" fill="#ceb697" fill-opacity=".5" transform="rotate(-64.8 127.9 -84.2) scale(15.74985 33.60988)"/><circle r="1" fill="#000407" fill-opacity=".7" transform="matrix(9.81924 49.17538 -14.98952 2.99308 65.6 108)"/><path fill="#6c7890" fill-opacity=".5" d="M157 185L130 62l-52 46z"/><circle r="1" fill="#0a0300" fill-opacity=".5" transform="matrix(16.43964 14.64191 -24.10325 27.06263 165.5 29.8)"/><circle r="1" fill="#e9fdff" fill-opacity=".4" transform="matrix(-10.19202 4.11784 -14.8832 -36.83722 160.8 142.1)"/><circle r="1" fill="#0a0707" fill-opacity=".7" transform="matrix(-27.6131 -29.53738 19.34521 -18.08493 236.3 144.7)"/><path fill="#000806" fill-opacity=".4" d="M.2-6.3l40.5 47.4-17.6 29.8-32.3-46.4z"/><path fill="#817165" fill-opacity=".5" d="M211 50l-82 35 38 29z"/><circle r="1" fill="#1d1a17" fill-opacity=".5" transform="matrix(29.45416 -52.57806 15.77712 8.83832 87.3 63.1)"/><path fill="#5567a9" fill-opacity=".6" d="M159.8 148.4l12.9 1.2 34.9-3.5 5.2 15.9z"/><path fill="#b3bc8e" fill-opacity=".7" d="M37 49h6v81h-6z"/><path fill="#acbc99" fill-opacity=".6" d="M15.5 79l7 57.5-4 .5-7-57.5z"/><ellipse cx="221" cy="101" fill="#e5ffff" fill-opacity=".5" rx="4" ry="6"/><circle r="1" fill="#abceb0" fill-opacity=".5" transform="rotate(-166.8 57 48) scale(6.24634 15.24497)"/><path fill="#0b1c39" fill-opacity=".4" d="M-7.5 128.7l-4.2-54.6 75.6-6L30 78.9z"/><path fill="#eeac77" fill-opacity=".3" d="M144 60l-26 9 4-70z"/><path fill="#fbe0bc" fill-opacity=".5" d="M171.6 87.7L161.2 84l7.2-19.7 10.4 3.7z"/><path fill="#423b46" fill-opacity=".6" d="M140.9 83.9l-10.1 20.7L101 90l10.1-20.7z"/><path fill="#606b6b" fill-opacity=".5" d="M239.5 69.5l29-2 2 29-29 2z"/><circle r="1" fill="#5c5f62" fill-opacity=".5" transform="matrix(10.50797 -.2327 .47924 21.64013 197 104.7)"/><path fill="#839085" fill-opacity=".5" d="M56 61l-5-38L18-7z"/><circle r="1" fill="#0e0e0e" fill-opacity=".6" transform="matrix(-11.21255 -17.75835 36.3109 -22.92656 55 145)"/><path fill="#000b11" fill-opacity=".3" d="M147.5 111.4l94.4 44.9-73.9-47.1 14.6-34.8z"/><circle r="1" fill="#5c615d" fill-opacity=".6" transform="matrix(-4.07223 -.59407 4.35916 -29.88093 199 16)"/><ellipse cx="39" cy="98" fill="#bbc395" fill-opacity=".6" rx="10" ry="22"/><ellipse cx="236" fill="#000710" fill-opacity=".5" rx="36" ry="25"/><path fill="#feffe3" fill-opacity=".2" d="M126 109.5l7.7-5.5 1.9 52.3 27.7-119.6z"/><path fill="#09080a" fill-opacity=".6" d="M208 77l31 42-13-83z"/><ellipse cx="113" cy="156" fill="#36394d" fill-opacity=".6" rx="22" ry="24"/><circle r="1" fill="#dee4c7" fill-opacity=".6" transform="matrix(4.39492 -2.86746 9.92487 15.21174 132.7 58.2)"/><path fill-opacity=".5" d="M188 78l-20 46 11 28z"/><path fill="#746954" fill-opacity=".5" d="M59 4.2l29-1.3 9.4 34.7-31.1-.1z"/><path fill="#dfe6ea" fill-opacity=".9" d="M165.7 147.5l12.8 37.5-25-34.3v-35.1z"/><path fill="#80a595" fill-opacity=".4" d="M98.6 98.3l-25.7 19.1 39-13.5-7.1-62.2z"/><ellipse cx="35" cy="72" fill="#0e0d00" fill-opacity=".6" rx="3" ry="9"/><path fill="#2e292a" fill-opacity=".7" d="M28.7 70.9l.4 60.8L4.4 65.3l-20.4-21z"/><path fill="#6a6152" fill-opacity=".7" d="M15.3-8.4l27.8-3 3.6 33.8-27.8 3z"/><ellipse cx="54" cy="2" fill="#130200" fill-opacity=".6" rx="6" ry="20"/><path fill="#0b0c0c" fill-opacity=".8" d="M41.7 45.5l-29.3 1.4 6.4-18.7 13.6-4.1z"/><ellipse cx="76" cy="59" fill="#06090a" fill-opacity=".7" rx="20" ry="5"/><path fill="#0d0b0d" fill-opacity=".9" d="M174.3 63.5L187.4-16 144 44.4l54 7.7z"/><path fill="#d3e9b1" fill-opacity=".5" d="M28 53h4v27h-4z"/><path fill="#6c4143" fill-opacity=".4" d="M218.6 28.6l52.4 1.8-100.1 39.8 56.6-32.5z"/><path fill="#492510" fill-opacity=".3" d="M198-16L65-8l61 47z"/><path fill="#9c765c" fill-opacity=".6" d="M182.4 76.6l-2.7 27.4-6.2 3.5-.9-11z"/><path fill="#3e4647" fill-opacity=".4" d="M191.6 139.8l7.1-41.7-26.9 62.3-7.6-21.2z"/><path fill="#040505" fill-opacity=".5" d="M56 184l17-75-27-50z"/><path fill="#e4f1bb" fill-opacity=".4" d="M14.5 91.6l7.9 34.1-3 .7-7.8-34.1z"/><path fill="#657375" fill-opacity=".6" d="M148.8 70.6l-10.3 14.8 26.5-6.1-17.1 39.6z"/><path fill="#0f0f10" fill-opacity=".5" d="M19.1 136.2L8.2 95.4-6 185l104.5-70.7z"/><path fill="#a58b6d" fill-opacity=".2" d="M195.9-2.4L185.1.1l16.8 26.4 17.6.2z"/><path fill="#815c57" fill-opacity=".9" d="M200.7 73.3l-46.4-8.9-15.9-5.8 15.1-5.5z"/><path fill="#0f0c0d" fill-opacity=".9" d="M184 161h72v9h-72z"/><path fill="#bfdec8" fill-opacity=".4" d="M42.5 20.5L66 26l.2 20.6-20.8-10.7z"/><path fill="#918dc7" fill-opacity=".6" d="M154.9 146.7l10.7 36.4-31.5.6 4.3-19.3z"/><path fill="#f9d1a0" fill-opacity=".5" d="M132 26h3v31h-3z"/><path fill="#161314" fill-opacity=".6" d="M240.4 39.8l-35 33.4-31.7 8.2 53.6 15.5z"/><path fill="#68608e" fill-opacity=".6" d="M108 151.4l30.6-48.5-15.5-4-9.5 25.1z"/><path fill="#4b5896" fill-opacity=".5" d="M181 146h29v14h-29z"/><path fill="#130f0e" fill-opacity=".8" d="M218.5 108L176 151.8l26.8-19.6 8.8-59.3z"/></g></svg>