<svg xmlns="http://www.w3.org/2000/svg" viewBox="0 0 300 199"><defs/><path fill="#482d52" d="M0 0h300v199H0z"/><g transform="translate(.6 .6) scale(1.17188)"><circle r="1" fill="#c6aceb" fill-opacity=".6" transform="rotate(93.9 8 23.6) scale(59.2761 74.76502)"/><circle r="1" fill="#f88bbf" fill-opacity=".5" transform="rotate(-163.7 76.9 30.6) scale(26.44575 144.57318)"/><circle r="1" fill="#e488be" fill-opacity=".6" transform="matrix(-17.48413 -2.98019 10.84324 -63.615 225.4 27)"/><ellipse cx="67" cy="129" fill="#080000" fill-opacity=".6" rx="21" ry="75"/><path fill="#ffbbe8" fill-opacity=".5" d="M128.4 88.6l24.3-9.3 26.9 70-24.3 9.4z"/><circle r="1" fill="#783e6a" fill-opacity=".8" transform="rotate(-129.1 73.6 -35) scale(43.42184 69.28003)"/><circle cx="225" cy="128" r="50" fill="#230700" fill-opacity=".4"/><path fill="#d588c7" fill-opacity=".8" d="M234.9-4l15.9 97.9-8.3-2.9-6.5-44.5z"/><path fill="#c4c6d1" d="M75.8 62.6l25.1-.3-9.8-25.5-21.9 13.1z"/><circle cx="181" cy="92" r="20" fill="#002" fill-opacity=".7"/><path fill="#c16198" fill-opacity=".5" d="M227 123l-32-34 18 68z"/><ellipse cx="17" cy="169" fill="#0f0009" fill-opacity=".6" rx="21" ry="44"/><path fill="#0d0913" fill-opacity=".6" d="M46 118l71-13-40 80z"/><path fill="#0e0516" fill-opacity=".5" d="M135 150h121v20H135z"/><path fill="#432120" fill-opacity=".6" d="M15.8 79.4l18-17.4 8.4 8.6-18 17.4z"/><ellipse cx="26" cy="48" fill="#f8ffc9" fill-opacity=".5" rx="36" ry="7"/><circle r="1" fill="#ff9bb4" fill-opacity=".5" transform="matrix(-8.23665 3.46237 -8.39909 -19.98064 119.9 96.6)"/><circle r="1" fill="#9886fd" fill-opacity=".5" transform="matrix(-.83409 -21.41982 35.45405 -1.38058 41.1 16.8)"/><path fill="#ff909d" fill-opacity=".4" d="M211 72l14 38-33-44z"/><path fill="#430f1d" fill-opacity=".5" d="M74 39l64 15 14-20z"/><path fill="#5f0b00" fill-opacity=".5" d="M129.6 95.3l-24-32 8.8-6.6 24 32z"/><ellipse cx="42" cy="143" fill="#b01a59" fill-opacity=".7" rx="10" ry="15"/><ellipse cx="88" cy="93" fill="#95626d" fill-opacity=".4" rx="13" ry="27"/><path fill="#e09fd2" fill-opacity=".6" d="M182.2 148.5l-42.5-25 34-59.2-37.3 8.7z"/><circle r="1" fill="#eb8cda" fill-opacity=".4" transform="matrix(-20.50926 -3.85716 4.78804 -25.4589 114.5 164)"/><path fill="#4e272d" fill-opacity=".5" d="M217 60h22v95h-22z"/><path fill="#8d5494" fill-opacity=".5" d="M166.7 129.3l17.9 22.8-21.3 16.6-17.9-22.8z"/><ellipse cx="221" fill="#ff60ac" fill-opacity=".6" rx="18" ry="16"/><circle r="1" fill="#040621" fill-opacity=".8" transform="rotate(58 -20.2 233.4) scale(20.85501 13.99871)"/><path fill="#e39fd3" fill-opacity=".6" d="M209.2 27.7l30.9 1.4 6.2 23.5L212.6 38z"/><path fill="#f688fc" fill-opacity=".4" d="M180.6 47.2l-8.3-8.4-29.2 15.8 21 14.2z"/><path fill="#d7a5d1" fill-opacity=".5" d="M35 82l19-35 1 30z"/><path fill-opacity=".5" d="M28 79l56 10-29 40z"/><circle r="1" fill="#621833" fill-opacity=".5" transform="matrix(3.19758 35.57367 -15.57735 1.40019 255 24.6)"/><path fill="#6b2a36" fill-opacity=".6" d="M53 62l14-16 25 52z"/><path fill="#060a77" fill-opacity=".2" d="M34 49L7-16l-23 51z"/><ellipse cx="169" fill="#ffbcef" fill-opacity=".6" rx="27" ry="2"/><path fill="#0e0102" fill-opacity=".4" d="M147.1 71.9L134 62.6l23.8-.7 4.8.5z"/><path fill="#641d19" fill-opacity=".5" d="M97 96l34 30-15 8z"/><path fill="#ff9da7" fill-opacity=".4" d="M157.7 79l-37.2-25.9-11.1 6.2 57.4 40.4z"/><circle r="1" fill="#0b0901" fill-opacity=".5" transform="matrix(24.6402 1.93923 -2.48574 31.58432 254 138.4)"/><path fill="#5a2527" fill-opacity=".5" d="M168 65l27 9 16-56z"/><path fill="#6a273a" fill-opacity=".8" d="M246 50h10v53h-10z"/><path fill="#933889" fill-opacity=".5" d="M202.4 1.1l-64.1 30 14.2 21 38-19.3z"/><circle r="1" fill="#ecacff" fill-opacity=".2" transform="matrix(59.7167 -6.09042 1.45377 14.2542 88 0)"/><circle r="1" fill="#110918" fill-opacity=".7" transform="matrix(-9.01708 -1.88701 2.09297 -10.00125 144.2 160.3)"/><path fill="#be8ec3" fill-opacity=".4" d="M29 79l7 20-16-12z"/><circle r="1" fill="#efaef1" fill-opacity=".6" transform="rotate(175.2 119.9 38.6) scale(1.91306 30.56043)"/><path fill="#cea5e1" fill-opacity=".4" d="M242.8 66.1l-39.1-28.6 7.4 34.6 26.8-30.3z"/><circle r="1" fill="#bb9fd2" fill-opacity=".6" transform="matrix(-14.27825 -4.06727 3.63764 -12.77005 10.5 62.3)"/><path fill="#fa78be" fill-opacity=".4" d="M247 90l-19 3 13 6z"/><path fill="#997b6a" fill-opacity=".5" d="M46.2 99.2l-8.9 24.4-7.5-2.8 8.9-24.4z"/><path fill="#06020d" fill-opacity=".6" d="M35.3 138.8l1.7-17.6-21.3 8.9 1.8 31.5z"/><path fill="#2c111d" fill-opacity=".9" d="M-.4 63.5l-9.1 3.9 24.4 13.1-17.8 13.9z"/><path fill="#bfa9d4" fill-opacity=".5" d="M37 73h8v12h-8z"/><path fill="#dd84aa" fill-opacity=".8" d="M157.9 107.5l-24.6 18.4-.8-12.1 2-53.5z"/><path fill="#490802" fill-opacity=".4" d="M96.7 48.3L136.6 76l-30.8-17.2 54.1-17.5z"/><path fill="#e46176" fill-opacity=".5" d="M118 122l-12-32 35 34z"/><path fill="#cdd2de" fill-opacity=".9" d="M69.3 50.5l24.5-8.9 5 13.7-24.7 8.9z"/><path fill="#340014" fill-opacity=".5" d="M128 73h4v29h-4z"/><path fill="#723b64" fill-opacity=".5" d="M209 129h19v28h-19z"/><path fill="#453049" fill-opacity=".6" d="M28.8 46.2l9.5 37.2L35 70.8l-5 23.7z"/><path fill="#c893c8" fill-opacity=".6" d="M157 110.4l5.3 20 16.5 27.5.8-19z"/><circle r="1" fill="#000102" fill-opacity=".4" transform="rotate(-102.7 85.2 70) scale(13.04092 14.09256)"/><path fill="#ffffe9" fill-opacity=".5" d="M210.5 35l25.8-7.9 1.2 3.9-25.8 7.9z"/></g></svg>