<svg xmlns="http://www.w3.org/2000/svg" viewBox="0 0 300 199"><defs/><path fill="#4c4a38" d="M0 0h300v199H0z"/><g transform="translate(.6 .6) scale(1.17188)"><circle r="1" fill="#fffff8" fill-opacity=".7" transform="matrix(-14.40271 -183.00383 93.90454 -7.39045 55.8 90.8)"/><circle r="1" fill="#f8f9f3" fill-opacity=".5" transform="matrix(-108.62088 83.57587 -16.53165 -21.48566 216.6 140.3)"/><circle r="1" fill="#a57f5a" fill-opacity=".6" transform="rotate(-92.8 112.7 -30.7) scale(89.76577 42.4478)"/><ellipse cx="72" cy="15" fill="#f5ffff" fill-opacity=".6" rx="45" ry="63"/><circle r="1" fill="#3f525a" fill-opacity=".6" transform="matrix(3.15456 13.1397 -29.3101 7.03673 93.4 106.3)"/><path fill-opacity=".5" d="M31 50l-4 42 16 3z"/><path fill-opacity=".6" d="M26 17h40v5H26z"/><circle r="1" fill="#431c02" fill-opacity=".7" transform="rotate(176.4 108.8 20.2) scale(29.53454 57.80233)"/><ellipse cx="253" cy="51" fill="#adb8b7" fill-opacity=".7" rx="5" ry="106"/><path fill="#eefafd" fill-opacity=".8" d="M0 0h22v82H0z"/><path fill="#4e5554" d="M63.2 19.9l-.3-3.3 11.5 13.2-2 10.4z"/><path fill="#00040c" fill-opacity=".6" d="M21 44l13 25-9-52z"/><circle r="1" fill="#754b34" fill-opacity=".5" transform="matrix(-.64314 18.41698 -38.33644 -1.33874 168.2 134.4)"/><circle r="1" fill="#efe6cb" fill-opacity=".6" transform="rotate(80.9 -69.6 109.4) scale(25.88344 86.38958)"/><ellipse cx="255" cy="121" fill="#d3ebf9" fill-opacity=".4" rx="61" ry="19"/><path fill="#000f23" fill-opacity=".5" d="M106 36h8v30h-8z"/><ellipse cx="138" cy="97" fill="#d7f8ff" fill-opacity=".4" rx="26" ry="10"/><path fill="#e4eef0" d="M25.1 44.3L30 76.8-6 95.5 7-13.6z"/><path fill="#f2ffff" fill-opacity=".5" d="M48 123l33-82-63 82z"/><path fill="#d6f8ff" fill-opacity=".5" d="M105.7 31.5L122 74l-31.1 5.8 34.2-24.9z"/><path fill="#703a11" fill-opacity=".4" d="M230 0l-61-16 18 156z"/><path fill="#b39d82" fill-opacity=".6" d="M167.7 48.2l15.4 7.2-20.8 44.4-15.4-7.2z"/><circle r="1" fill="#fff" fill-opacity=".7" transform="matrix(-36.82683 -20.94895 9.90449 -17.41142 84.4 6.5)"/><path fill="#56523d" d="M263 185h-30.1l-1.9-34.3 22 1.7z"/><circle r="1" fill="#c8d2c8" fill-opacity=".5" transform="matrix(-27.93312 -20.36918 11.27542 -15.46246 205.4 169)"/><path fill="#032030" fill-opacity=".4" d="M18 81l7 9 30-21z"/><path fill="#b6a878" fill-opacity=".5" d="M166 6l-49 6 8 82z"/><circle r="1" fill="#6b504a" fill-opacity=".5" transform="matrix(24.34237 9.7018 -3.0235 7.5861 118.3 111.4)"/><path fill="#65523a" fill-opacity=".6" d="M242.2 86l-1.5-21.3L262.3 99 179 85.9z"/><path fill="#8aa3a9" fill-opacity=".5" d="M65 75h41v24H65z"/><path fill="#fcffff" fill-opacity=".6" d="M61 42h46v30H61z"/><circle r="1" fill="#f5fbfb" fill-opacity=".9" transform="matrix(-33.82353 31.63536 -16.1888 -17.30856 11.4 0)"/><path fill="#945b32" fill-opacity=".5" d="M141.2 78.4l-.3-76.2 34.4 135.2 23.4-69.5z"/><path fill-opacity=".5" d="M26 18h37v4H26z"/><path fill="#8d654a" d="M162 127.7l28.9-12.3 20.4 28.1-29-2z"/><path fill="#f4f3dc" fill-opacity=".5" d="M146 13h4v35h-4z"/><path fill="#0d0605" fill-opacity=".7" d="M234.6 71.5l.1-73.8 13.5 37.2-5 33.5z"/><path fill="#dff4fa" fill-opacity=".6" d="M39 121h91v6H39z"/><path fill="#010c13" fill-opacity=".6" d="M162.2 115.7l-6.3 22.6-4.2-5.3-.1-10z"/><circle r="1" fill="#202c2e" fill-opacity=".6" transform="matrix(2.87906 -.60296 5.41046 25.8341 28 45.5)"/><path fill="#d3d2c4" fill-opacity=".7" d="M162.6 18.5l3.5-34.5-9.7 31.7 2.7-.8z"/><path fill="#5f2c00" fill-opacity=".4" d="M152 4h6v67h-6z"/><path fill="#050f11" fill-opacity=".7" d="M33 78.7l-9.4-46.3 20.1 62.4-10-2.6z"/><ellipse cx="73" cy="128" fill="#695a11" fill-opacity=".2" rx="62" ry="3"/><path fill="#cbb88b" fill-opacity=".7" d="M116.3 123.7l24.1 26.2 42 28.7-47.7 5.5z"/><path fill="#eefcfc" fill-opacity=".5" d="M27 29l43 54-35-18z"/><path fill="#001d1d" fill-opacity=".5" d="M104 33l6 30 7.6-26.9-7.5 14.3z"/><path fill="#c5cdbe" fill-opacity=".5" d="M156 60l8-18 16 17z"/><path fill="#e0f1f9" fill-opacity=".5" d="M131 71l-22 11-4-16z"/><path fill="#a4884f" fill-opacity=".5" d="M212-9l13-7 11 35z"/><path fill="#fff" fill-opacity=".5" d="M135 42l6-5-2 12z"/><ellipse cx="5" cy="95" fill="#d9e1d9" fill-opacity=".6" rx="16" ry="43"/><path fill="#f9fcfb" fill-opacity=".9" d="M59.8-16l21.7 75.7 41-71.2-10.2 52.1z"/><path fill="#081010" fill-opacity=".5" d="M58 15l13 9 3 14z"/><path fill="#b7c1a2" fill-opacity=".8" d="M140-16l-10 33.4-13.8 29.7-3.3-16.2z"/><path fill="#a4735d" fill-opacity=".6" d="M128 120l49-35-46 68z"/><path fill="#510e0a" fill-opacity=".3" d="M105.6 87.5l30.3-5.9L94.2 105l17.5 2.2z"/><path fill="#aab6b3" fill-opacity=".7" d="M237.3 129.4l-38.9 1.8 50.4 22 22.2 4.9z"/><path fill="#5c330d" fill-opacity=".6" d="M183.1 14l-16.4 19.4-1.1 10.9 42.8-29.1z"/><path fill="#9a6f32" fill-opacity=".5" d="M165-16l-46 64 24-64z"/><path fill="#573114" fill-opacity=".6" d="M190 118.9l11.3-68.2 26.3 34.8-69.1 35.1z"/><path fill="#6a4b28" fill-opacity=".4" d="M170.6 165.6l-40.9-29.8 86.3 7.1-52.7-10.1z"/><path fill="#596e73" fill-opacity=".6" d="M36.1 82.8l-.7-10.3 9.4-5.3 3.8 10.5z"/><path fill="#9aadae" fill-opacity=".7" d="M51 97.4l10.6 19.7 13.8-15.5 35-12.6z"/><path fill="#293536" fill-opacity=".7" d="M52.5 16.3L26 24.1l-2.8-2.7 11-4.9z"/></g></svg>