<svg xmlns="http://www.w3.org/2000/svg" viewBox="0 0 300 199"><defs/><path fill="#593e33" d="M0 0h300v199H0z"/><g transform="translate(.6 .6) scale(1.17188)"><ellipse cx="121" cy="36" fill="#cbd1cb" fill-opacity=".7" rx="251" ry="78"/><circle r="1" fill="#050100" fill-opacity=".5" transform="rotate(-40.7 207.3 -24.2) scale(56.3366 38.39208)"/><circle r="1" fill="#a0a095" fill-opacity=".7" transform="matrix(-32.72538 -16.3149 8.52514 -17.10023 188.7 117)"/><ellipse cx="141" cy="57" fill="#fffefc" fill-opacity=".5" rx="38" ry="25"/><path fill="#fff" fill-opacity=".4" d="M17.7 133.3l-27-10.4L38.2-1.3l27 10.4z"/><path fill="#06080a" fill-opacity=".8" d="M266 137l5 43-155-37z"/><circle cx="4" cy="68" r="9" fill-opacity=".6"/><ellipse cx="153" cy="167" fill="#cff7cb" fill-opacity=".4" rx="44" ry="13"/><circle r="1" fill="#775d37" fill-opacity=".4" transform="rotate(117.6 14.3 87.7) scale(28.82867 66.49825)"/><circle r="1" fill="#626f7a" fill-opacity=".6" transform="matrix(33.94158 -7.3685 4.35384 20.05512 226.7 44)"/><ellipse cx="56" cy="169" fill="#000001" fill-opacity=".9" rx="30" ry="54"/><ellipse cx="148" cy="94" fill="#f9fff8" fill-opacity=".4" rx="9" ry="48"/><path fill="#110110" fill-opacity=".3" d="M128.9 36.6l15-19.9-65.8 10.6L100.4 60z"/><circle cx="78" cy="76" r="14" fill="#f6f5ea" fill-opacity=".5"/><circle r="1" fill="#d3d2c9" fill-opacity=".7" transform="rotate(143.1 11 17.6) scale(46.60799 29.69488)"/><ellipse cx="130" cy="140" fill-opacity=".7" rx="12" ry="15"/><circle r="1" fill="#b5dcf3" fill-opacity=".5" transform="matrix(1.68355 20.64082 -27.05882 2.20703 238 81.1)"/><path fill="#571a01" fill-opacity=".4" d="M90 26L48 61l-6 38z"/><path fill="#645630" fill-opacity=".5" d="M213 116l-38-39 33-14z"/><ellipse cx="98" cy="68" fill-opacity=".7" rx="12" ry="3"/><path fill="#9e999c" fill-opacity=".5" d="M97.9 149.9l-21.7-19.4 35 9.6 11.5 26.5z"/><ellipse cx="202" cy="132" fill="#b6d0f8" fill-opacity=".4" rx="7" ry="20"/><path fill="#000f30" fill-opacity=".6" d="M247.5 106.1l7.2 31.2-28.2 6.6-7.2-31.2z"/><path fill="#99999a" d="M9.5 142.7l39.8-65.8-28.4 21.6L8.7 85.1z"/><path fill="#fafcde" fill-opacity=".8" d="M166.5-16h17l87.1 44.6.4 6.8z"/><ellipse cx="99" cy="52" fill="#00000c" fill-opacity=".6" rx="3" ry="21"/><ellipse cx="6" cy="67" fill-opacity=".7" rx="12" ry="5"/><path fill="#141c22" fill-opacity=".5" d="M215 62l44-12 12-22z"/><path fill="#605d51" fill-opacity=".9" d="M194.2 124l.6 17-29 1-.6-17z"/><ellipse cx="142" cy="88" fill="#a39a73" fill-opacity=".6" rx="69" ry="7"/><path fill="#e4ddd7" fill-opacity=".5" d="M103 39h53v41h-53z"/><path fill="#e3e9f2" fill-opacity=".6" d="M11 97.6L1 122.1l-17-26.5 55.2-44.7z"/><path fill="#3d0300" fill-opacity=".5" d="M74 102L48 66l10 40z"/><path fill="#d58348" fill-opacity=".4" d="M44 75l40-46-53 24z"/><path fill="#d0d0d2" fill-opacity=".6" d="M89.8 70.6L16.7 83.9l21.6 4.3 59.1-51.7z"/><path fill-opacity=".6" d="M33.7 185l17.6-42.6-5.8-59.5L26 131.2z"/><circle r="1" fill="#516053" fill-opacity=".6" transform="matrix(-20.25234 -12.07138 5.93682 -9.9603 248.5 0)"/><path fill="#f8bba9" fill-opacity=".4" d="M58.3 119.8l8.6 18.5-16.2-50.4-4.7 15.8z"/><circle r="1" fill="#405976" fill-opacity=".5" transform="matrix(-14.83014 2.74436 -9.6182 -51.97538 5.6 169)"/><path fill="#ecd7ba" fill-opacity=".3" d="M75.7 110.2l3.3 32.6 10.6-3-31.9-38.5z"/><circle r="1" fill="#bdbdc2" fill-opacity=".5" transform="matrix(-39.19642 -28.31931 6.66663 -9.2272 166.5 38.8)"/><path fill="#5d3610" fill-opacity=".5" d="M84 101l26 41 18-54z"/><circle r="1" fill="#050f17" fill-opacity=".4" transform="matrix(-5.43119 -9.07626 3.5545 -2.12699 127 22.6)"/><path fill="#fffff6" fill-opacity=".3" d="M141.4 87.9l25 2.7-2.2 14.5-20.3 19z"/><path fill="#fffffb" fill-opacity=".5" d="M140 79.2l-.3 3L70 74.8l.3-3z"/><path fill="#1d080d" fill-opacity=".6" d="M249 97h7v7h-7z"/><ellipse cx="17" cy="122" fill="#f3f0df" fill-opacity=".5" rx="7" ry="8"/><path fill-opacity=".5" d="M93 33l-11-6 2 12z"/><path fill="#9e9c9d" fill-opacity=".8" d="M65-16L201 5 65 30z"/><path fill="#1e2115" fill-opacity=".6" d="M170.3 157.2l-57.3-3.6 41.9-14 6.6-24.6z"/><circle cx="213" cy="130" r="11" fill="#9cb8e6" fill-opacity=".4"/><path fill="#05050a" fill-opacity=".7" d="M204 141h52v29h-52z"/><path fill="#d4d9e9" fill-opacity=".5" d="M116 137l-9 10 8 13z"/><path fill="#403e49" fill-opacity=".5" d="M13 116l12-9L8 96z"/><path fill="#edf6ff" fill-opacity=".5" d="M46.3 76.7L25.4 55l-9.5 26.6 33.7 2.1z"/><path fill="#c6c8bb" fill-opacity=".4" d="M190.8 71.1l43-28.5-14.8-1.7-117.8 54z"/><path fill="#948a78" fill-opacity=".6" d="M134 61l-18-6-8 7z"/><path fill="#100c0c" fill-opacity=".5" d="M103.9 136.2L51.5 185l41.9-47.5 56.7 21.2z"/><path fill="#939272" fill-opacity=".5" d="M-9.8 51.4l6.7-54.6 14.9 1.8-6.7 54.6z"/><path fill-opacity=".8" d="M-8 66.7l15-1.3 1 12-15 1.2z"/><path fill="#382500" fill-opacity=".2" d="M104.5 82.5l33-.6-29.4 8.4-40.4-11z"/><circle r="1" fill="#7b90aa" fill-opacity=".4" transform="rotate(67 37 252.6) scale(2.92044 25.18794)"/><path fill="#000506" fill-opacity=".6" d="M207.2 66l-18.8 14.6 21.8-18L271 46.2z"/><path fill="#785d3e" fill-opacity=".9" d="M142 115.2l-24.1-4.8-28.8 32.2 28.2-18.5z"/><circle r="1" fill="#777873" fill-opacity=".5" transform="matrix(.41972 -5.62942 2.51727 .18768 227.1 155.6)"/></g></svg>