<svg xmlns="http://www.w3.org/2000/svg" viewBox="0 0 300 199"><defs/><path fill="#5c4333" d="M0 0h300v199H0z"/><g transform="translate(.6 .6) scale(1.17188)"><ellipse cx="162" cy="147" fill="#fcf8fb" fill-opacity=".6" rx="74" ry="45"/><circle r="1" fill="#8e7c6a" fill-opacity=".9" transform="matrix(55.47676 69.99426 -46.6472 36.97212 121 58.5)"/><circle r="1" fill="#010d15" fill-opacity=".7" transform="matrix(28.54518 .34876 -1.17763 96.3858 65.8 166)"/><ellipse cx="105" cy="90" fill="#d8beb9" fill-opacity=".7" rx="18" ry="60"/><path fill-opacity=".7" d="M110.8 94.5l13.3 75.8-6.9 1.2L104 95.7z"/><circle r="1" fill="#e6d8d4" transform="rotate(-177.5 100.6 69.7) scale(33.00026 34.0975)"/><ellipse cx="131" cy="96" fill="#0a0000" fill-opacity=".5" rx="6" ry="54"/><circle r="1" fill="#fff8e5" fill-opacity=".4" transform="matrix(11.34086 6.0436 -13.66645 25.64522 70.2 30.6)"/><circle r="1" fill-opacity=".6" transform="matrix(-7.12914 -1.56744 3.86182 -17.56455 160 122.2)"/><circle cx="206" cy="42" r="69" fill="#6d5d40" fill-opacity=".7"/><ellipse cx="145" cy="134" fill="#ffe8d5" fill-opacity=".6" rx="8" ry="42"/><ellipse cx="101" cy="140" fill="#fff" fill-opacity=".6" rx="9" ry="39"/><path fill="#feffff" fill-opacity=".6" d="M-1.3 65.5l6.6 126.8-4 .2-6.6-126.8z"/><path fill-opacity=".6" d="M100 17l-5 39-15-17z"/><circle r="1" fill="#73c49c" fill-opacity=".4" transform="matrix(-4.25073 -41.84767 13.82014 -1.4038 40.8 59.7)"/><path fill="#c69f81" fill-opacity=".4" d="M235 77h21v65h-21z"/><circle r="1" fill="#7e5941" fill-opacity=".8" transform="matrix(-6.3809 24.67309 -10.07042 -2.60439 130.5 74.8)"/><path fill="#fff" fill-opacity=".5" d="M129.1 135.4l-9.7 2.2-8.5-37 9.7-2.2z"/><path fill="#00030b" fill-opacity=".6" d="M111 125h7v45h-7z"/><path fill-opacity=".5" d="M141.9 129.8l-22.7-30.4 3.8-14.5 15.2 23.9z"/><circle r="1" fill="#ebdbd8" fill-opacity=".8" transform="rotate(130 44.6 120.6) scale(72.2611 20.92352)"/><path fill="#181c1e" fill-opacity=".6" d="M96.4 161.7l-81.8 17L64.9 51.2l4.8 3.3z"/><path fill="#deae99" fill-opacity=".8" d="M105.2 96.6L131 39.3l-26.9-11.7-19.7 61.5z"/><ellipse cx="95" cy="106" fill="#fcffff" fill-opacity=".6" rx="6" ry="23"/><path fill="#564f3c" fill-opacity=".9" d="M91.1 21l43.8 1.4L132 37l-35.6-9.6z"/><path fill="#b1806a" fill-opacity=".7" d="M190.7 73l2.5-23.7-26 .3 3.3 43.1z"/><circle r="1" fill="#d9bba1" fill-opacity=".5" transform="matrix(14.85147 -7.63262 10.97063 21.34654 74.4 9.7)"/><path fill="#583625" fill-opacity=".5" d="M191.2 88.8l77.3-52.3-53.3 91.2 43.8 17z"/><path fill="#050000" fill-opacity=".4" d="M172 110l-9-36 26 38z"/><path fill="#9e9370" fill-opacity=".6" d="M236-2l-13 56-4-60z"/><path fill="#95fad4" fill-opacity=".3" d="M-16 20.4l32.1 2.9 12.8 56.1-8.1-65.2z"/><ellipse cx="130" cy="163" fill="#00010a" fill-opacity=".6" rx="2" ry="72"/><path fill="#fff" fill-opacity=".5" d="M94 149h18v21H94z"/><ellipse cx="64" cy="76" fill="#546a3c" fill-opacity=".4" rx="25" ry="20"/><circle r="1" fill="#fdffff" fill-opacity=".5" transform="rotate(169.7 55.2 76.7) scale(2.78769 40.06995)"/><path fill="#f0fafe" fill-opacity=".6" d="M104.6 97.3l-13.4.3L86.1 83 120 95.6z"/><circle cx="161" cy="123" r="8" fill-opacity=".7"/><path fill="#664124" fill-opacity=".5" d="M109.3 47.3l27-7.3 2.4 8.7-27 7.3z"/><path fill="#f9d6c5" fill-opacity=".5" d="M132.9 183l3.7-66.3 18.9-8.1-20.4 76.4z"/><path fill="#a16e56" fill-opacity=".7" d="M112.9 86.8L96.1 74.6l51.7 6.3 23.4 21.5z"/><path fill="#fff" fill-opacity=".4" d="M82 68l-9 4 7 5z"/><path fill="#100000" fill-opacity=".5" d="M183 36h25v8h-25z"/><path fill="#17161b" fill-opacity=".9" d="M91.7 123.8L22.2 185l19.1-74.9 43.9-24.8z"/><path fill="#8e9a7a" fill-opacity=".5" d="M271 22.6L236.7-2.8l32.6 60.5-26-15.4z"/><path fill="#415440" fill-opacity=".6" d="M0-16h50l11 56z"/><path fill="#090000" fill-opacity=".5" d="M83 36l-2 16 25-29z"/><ellipse cx="249" cy="169" fill="#694b3d" fill-opacity=".7" rx="18" ry="38"/><ellipse cx="152" cy="12" fill="#243816" fill-opacity=".6" rx="3" ry="49"/><circle r="1" fill="#637f70" fill-opacity=".6" transform="matrix(28.73603 -4.19564 1.66164 11.38063 119.2 10.6)"/><path fill="#a07a59" fill-opacity=".6" d="M231.3 53.1l-14 20.5 23.5 5.8-3.4 70.6z"/><path fill="#080000" fill-opacity=".6" d="M161.9 99.5l5.2 28.9-10.9 12.1-6.3 3.5z"/><path fill="#ebe8e7" fill-opacity=".5" d="M226 180l11-46-58 35z"/><path fill="#a0d09f" fill-opacity=".3" d="M56 99.7l-14.7 3L36 78.4l14.6-3z"/><path fill="#f1cab2" fill-opacity=".8" d="M153.8 102.9l-9.2 61.1 5.6-81.3 3 13.7z"/><path fill="#13030c" fill-opacity=".2" d="M200.8 71.3l-14.5 43.2 42.1-38.1-10.5-13.3z"/><circle cy="57" r="34" fill="#535342" fill-opacity=".6"/><path fill="#000002" fill-opacity=".4" d="M133.8 94.5l-17.7-19.1 13.3 55.6 12.3-16.1z"/><path fill="#e3e0e3" fill-opacity=".4" d="M76.7 33.4l-24.6 7.7 3.4 28-10.7 3.4z"/><path fill="#ebb59b" fill-opacity=".6" d="M87.5 63.4l-4.4-6.5 65 8.8-29.4-9.3z"/><path fill="#23330b" fill-opacity=".6" d="M232.2 20.4l13.3 16.5-14.3 14.8-2.2-24.3z"/><path fill="#af8962" fill-opacity=".7" d="M243.8 122.7l-13.6-20.1 1.6-10.8 23 18z"/><path fill="#151f0d" fill-opacity=".5" d="M18 26l19-42-9.7 55.1-3.5-13.8z"/><ellipse cx="26" cy="92" fill="#28130c" fill-opacity=".5" rx="5" ry="25"/><path fill="#292a38" fill-opacity=".5" d="M79 135h15v33H79z"/><path fill="#0a0c11" fill-opacity=".5" d="M117.3 157.6l-7.5-42.3 5-1 7.4 42.4z"/></g></svg>