<svg xmlns="http://www.w3.org/2000/svg" viewBox="0 0 300 199"><defs/><path fill="#3d5e30" d="M0 0h300v199H0z"/><g transform="translate(.6 .6) scale(1.17188)"><ellipse cx="111" cy="67" fill="#f1d9e6" fill-opacity=".6" rx="54" ry="32"/><circle r="1" fill="#487bda" fill-opacity=".4" transform="matrix(14.45543 84.42367 -75.5822 12.94155 228.1 131)"/><circle r="1" fill="#130031" fill-opacity=".6" transform="rotate(-118.4 79 67.4) scale(69.76168 106.81685)"/><circle cx="79" cy="23" r="82" fill="#ff6777" fill-opacity=".2"/><circle cx="190" cy="44" r="39" fill="#4c0011" fill-opacity=".5"/><ellipse cx="210" cy="146" fill="#0a0115" fill-opacity=".7" rx="16" ry="24"/><circle cx="169" cy="112" r="18" fill="#f2e4f8" fill-opacity=".5"/><ellipse cx="8" cy="103" fill="#120010" fill-opacity=".8" rx="26" ry="42"/><path fill="#ffe9b2" fill-opacity=".7" d="M107.6 45.7l64.7-47 4.1 5.6-64.7 47z"/><circle r="1" fill="#56949d" fill-opacity=".3" transform="matrix(-25.42483 21.40556 -35.35797 -41.99704 73.3 96.4)"/><ellipse cx="126" cy="68" fill="#c8eae9" fill-opacity=".5" rx="32" ry="25"/><path fill="#b1cffa" fill-opacity=".4" d="M215 112l24-30-10-63z"/><circle r="1" fill="#6d3a1e" fill-opacity=".7" transform="matrix(-8.30455 -17.53393 62.92165 -29.80144 92.2 25.1)"/><path fill="#9dc0f2" fill-opacity=".6" d="M36.1 136l-4.2-8 30-16 4.2 8z"/><path fill="#fdd2a8" fill-opacity=".6" d="M-15.6 37.5l49.3 22-4 9-49.4-22z"/><circle r="1" fill="#170007" fill-opacity=".9" transform="rotate(74.5 -87.4 104.5) scale(24.46534 38.8027)"/><path fill="#c6b6db" fill-opacity=".5" d="M32 75h44v23H32z"/><ellipse cx="253" cy="121" fill="#02d0a2" fill-opacity=".4" rx="22" ry="82"/><path fill="#00dddb" fill-opacity=".4" d="M180.6 124l27.3 53.5-20.5 10.5-27.3-53.5z"/><ellipse cx="212" cy="7" fill="#1a0000" fill-opacity=".8" rx="13" ry="36"/><circle r="1" fill="#885028" transform="matrix(-63.90435 -29.93055 12.25348 -26.16225 38.7 0)"/><ellipse cx="173" cy="77" fill="#7a5463" fill-opacity=".8" rx="16" ry="22"/><circle r="1" fill="#292040" fill-opacity=".6" transform="matrix(-22.31657 10.37154 -8.1733 -17.58658 210.2 131)"/><circle r="1" fill="#000331" fill-opacity=".7" transform="matrix(-19.04945 -19.93411 29.20685 -27.91067 121.5 157.4)"/><path fill="#8298ce" fill-opacity=".4" d="M72.5 134.9l1.1-6.2L87.7 157 82 174.6z"/><path fill="#9e643d" fill-opacity=".5" d="M83 15h14v77H83z"/><path fill="#321012" fill-opacity=".6" d="M59.5 63.3L45 72.1 28.5 44.7 43 35.9z"/><circle cx="4" cy="26" r="18" fill="#3c151d" fill-opacity=".7"/><circle r="1" fill="#330c07" fill-opacity=".8" transform="matrix(-1.90902 -15.60318 15.84853 -1.93904 163.9 34.7)"/><path fill="#190109" fill-opacity=".6" d="M57.4 117.1l2.3-37.4L48.2 97l-56.5 40.9z"/><path fill="#cc816d" fill-opacity=".6" d="M40.2 39.9l-34.3 20 20.3-34.3 4.4-21.1z"/><circle cx="205" cy="108" r="20" fill="#6750a1" fill-opacity=".6"/><path fill="#48c79b" fill-opacity=".5" d="M71 43l-20 4 31 32z"/><circle r="1" fill="#5b1534" fill-opacity=".5" transform="matrix(9.11282 -8.60887 19.52914 20.67235 143.6 115.9)"/><path fill="#56a9a1" fill-opacity=".9" d="M236.2 118.8l-4.6 66.2 24-10-19.2-79z"/><ellipse cx="255" cy="123" fill="#004c31" fill-opacity=".6" rx="8" ry="27"/><circle r="1" fill="#018974" fill-opacity=".5" transform="matrix(-13.12845 5.09992 -8.65645 -22.28385 244.4 56.4)"/><path fill="#c18aff" fill-opacity=".3" d="M160.1 73.4l-5.6 26.4-14.6-3.2 5.6-26.4z"/><circle r="1" fill="#482102" fill-opacity=".6" transform="matrix(-27.98342 18.38167 -9.74916 -14.84167 136.4 0)"/><path fill="#f6c57a" fill-opacity=".7" d="M161 0l15-1-29 16z"/><path fill="#afdbf8" fill-opacity=".4" d="M196.4 120.6v-2.3L189.1 99l-43 8.7z"/><path fill="#fffff8" fill-opacity=".5" d="M46 77h27v5H46z"/><path fill="#258644" fill-opacity=".4" d="M82.8 94.8l-9.7 16.9 50.8-10.6L82.1 75z"/><circle r="1" fill="#ba5649" fill-opacity=".4" transform="matrix(7.98606 .82633 -1.94092 18.75813 189.1 24)"/><path fill="#95a8e0" fill-opacity=".5" d="M215 73h32v20h-32z"/><path fill="#00a9ae" fill-opacity=".5" d="M149 158h41v12h-41z"/><path fill="#9d6c38" fill-opacity=".5" d="M126 8h14v38h-14z"/><path fill="#351105" fill-opacity=".6" d="M269 30L174 6l16-21z"/><path fill="#fde3aa" fill-opacity=".7" d="M71.5 81.8l-1.8-2.7L93 57.3l60.4-46z"/><path fill="#8d5453" fill-opacity=".6" d="M218.5-9.7L244.7-22l14.8 31.7L233.3 22z"/><path fill="#441800" fill-opacity=".4" d="M89.4 64.9L42.7.6l36.2 3-1.8 29.3z"/><path fill="#0c0659" fill-opacity=".4" d="M200 60h11v60h-11z"/><path fill="#7da0be" fill-opacity=".6" d="M27 67l10 36 22-23z"/><ellipse cx="212" cy="157" fill="#000008" fill-opacity=".6" rx="10" ry="20"/><path fill="#150518" fill-opacity=".9" d="M77.6 126.4L61 96.7 82.2 185l-36.7-53.7z"/><path fill="#719c9c" fill-opacity=".8" d="M230.3 68.5l-4-45.6L242 35l-9 9.1z"/><circle r="1" fill="#290000" fill-opacity=".7" transform="matrix(-8.59388 10.11845 -8.07268 -6.85635 24.2 131.7)"/><path fill="#161553" fill-opacity=".4" d="M73.6 113L89 168.4l84.4-84.6-111.7 45.6z"/><path fill="#007954" fill-opacity=".5" d="M68 55l-1 21 11-11z"/><ellipse cx="176" cy="81" fill="#c38493" fill-opacity=".6" rx="7" ry="11"/><path fill="#a97261" fill-opacity=".3" d="M82.3 124.3L49.1 90.8 80 77.3l7-4.2z"/><path fill="#111731" fill-opacity=".8" d="M220.7 156.6l12.2-38.9-45.8 21.1-1.7-24.5z"/><path fill="#ffbb9c" fill-opacity=".2" d="M132.2 56.5L82.1 41.3 75.7 6.5 101.5 26z"/><path fill="#9bd3c8" fill-opacity=".4" d="M96 72h54v22H96z"/><path fill="#d37d7c" fill-opacity=".5" d="M152 101l4 35 5-17z"/></g></svg>