<svg xmlns="http://www.w3.org/2000/svg" viewBox="0 0 300 199"><defs/><path fill="#67344b" d="M0 0h300v199H0z"/><g transform="translate(.6 .6) scale(1.17188)"><circle cx="235" cy="131" r="132" fill="#2a0400" fill-opacity=".9"/><circle r="1" fill="#ffa987" fill-opacity=".5" transform="rotate(123.1 37.5 20.3) scale(50.13701 111.71603)"/><circle r="1" fill="#900000" fill-opacity=".7" transform="matrix(35.16226 -69.73742 52.88796 26.6666 49.2 102.5)"/><ellipse cx="27" fill="#ffeef4" fill-opacity=".7" rx="34" ry="17"/><circle r="1" fill="#f50c07" fill-opacity=".6" transform="rotate(-96.3 102.8 47.4) scale(85.7255 19.73328)"/><path fill="#ffd7c1" fill-opacity=".6" d="M98 9h34v48H98z"/><circle r="1" fill="#6b110d" fill-opacity=".7" transform="rotate(59 24.7 171.8) scale(25.03903 95.78744)"/><circle cx="200" cy="128" r="67" fill-opacity=".6"/><path fill="#f91314" fill-opacity=".5" d="M119.1 64.4l33.9-.9-10.6 26.7L97 86.7z"/><ellipse cx="103" cy="108" fill="#000706" fill-opacity=".7" rx="24" ry="16"/><path fill="#fcc2bb" fill-opacity=".7" d="M-16 70.9L17.7 44l12.5-9.9-46.2 56z"/><circle r="1" fill="#620000" fill-opacity=".8" transform="matrix(-23.07299 78.61298 -23.03197 -6.7599 21.8 116.5)"/><ellipse cx="186" cy="10" fill="#370a02" fill-opacity=".9" rx="29" ry="28"/><path fill="#1f0200" fill-opacity=".7" d="M-16 71V17l52 4z"/><path fill="#980102" fill-opacity=".5" d="M170.3 121.7L164 76.2l27.8-4 6.4 45.6z"/><path fill="#fee6b0" fill-opacity=".6" d="M141 0h12v39h-12z"/><path fill="#25120f" fill-opacity=".9" d="M105.9 8.8L95.2 10l51.5-26 26 7z"/><path fill="#818672" fill-opacity=".5" d="M102 127l-25-13 4 39z"/><path fill="#ff9ba3" fill-opacity=".6" d="M208.9 38.8l-2.4-5.2 13.6-20.2 6.4 3.6z"/><circle r="1" fill="#ffd0d6" fill-opacity=".5" transform="matrix(1.0118 4.04107 -26.8936 6.73364 68.9 18.6)"/><path fill="#710e0f" fill-opacity=".9" d="M104.8 56.5l17.4 12.7 30.3 44.7-7.6 25.8z"/><path fill="#190600" fill-opacity=".5" d="M95.6 24l.7 11-43.9 3-.7-11z"/><path fill="#995c8e" fill-opacity=".5" d="M223.6 64.2l3.6-6 29.2 17.6-3.6 6z"/><path fill="#000400" fill-opacity=".4" d="M96 116h160v54H96z"/><circle r="1" fill="#c20000" fill-opacity=".5" transform="matrix(-13.38147 55.00097 -16.7126 -4.0661 47.5 115.6)"/><path fill="#411007" fill-opacity=".7" d="M-6.9 36.2l-.8-2.9L88.9 3.8l.8 2.9z"/><path fill="#de2c29" fill-opacity=".3" d="M142 14l29-10 12 105z"/><path fill="#a55446" fill-opacity=".7" d="M36.7 29.5l65.6 26.6 2.9 15.3-31.4-7.6z"/><path fill="#270001" fill-opacity=".8" d="M147.1 39.2l-10-.5 3.5 24.9 15.6-14.9z"/><path fill="#eb9f8b" fill-opacity=".6" d="M123.4 64l45.2-80-16.1 18.8-37.4 3z"/><path fill="#ff2513" fill-opacity=".6" d="M89.8 189.2l-28-48.4 10.4-6 28 48.4z"/><path fill="#8e4841" fill-opacity=".3" d="M-16 21l81 20L-3-2z"/><ellipse cx="249" fill="#010000" fill-opacity=".6" rx="91" ry="13"/><path fill="#560908" fill-opacity=".9" d="M69.1 57.7l.2 30.1 49.2 10.6-35.1-24.6z"/><path fill="#ffdee5" fill-opacity=".5" d="M70 6l-.8-6L98-4l.9 6z"/><path fill="#ffe8c4" fill-opacity=".4" d="M129.8 41.4l4.2 23.1-12.1-11.1-26.1-34.5z"/><path fill-opacity=".7" d="M201 54h26v116h-26z"/><circle r="1" fill="#400" fill-opacity=".7" transform="matrix(26.43535 -94.68077 8.52637 2.3806 3.8 149)"/><path fill="#fd0e0c" fill-opacity=".5" d="M153.5 58.9l-47.4 26.6 33.7-2.3 15.5-17.8z"/><path fill-opacity=".5" d="M122 74l-13-19-6 5z"/><circle r="1" fill="#000300" fill-opacity=".7" transform="matrix(-7.89788 -12.11533 2.58461 -1.68489 50.4 48.3)"/><ellipse cx="100" cy="51" fill="#ef99a0" fill-opacity=".8" rx="3" ry="20"/><path fill="#fffafc" fill-opacity=".5" d="M19 9.7l45.8 2.4L40.7-16 4.6-14z"/><path fill="#fff3f1" fill-opacity=".7" d="M-16 70.4l34.3-26.3L2 64.2-12.1 34z"/><path fill="#ffbec3" fill-opacity=".3" d="M138.3 27.8l19.8 22.7.3-18.9-8.5-11.8z"/><path fill="#ac4f58" fill-opacity=".5" d="M128 99h16v13h-16z"/><path fill="#a60000" fill-opacity=".5" d="M133 81L67 59l45 38z"/><path fill="#e2787d" fill-opacity=".6" d="M136 82h8v10h-8z"/><path fill="#dfd3ac" fill-opacity=".9" d="M109.7 8.9l18.2-5.5 3.2 4.3L95.5 31z"/><circle r="1" fill="#890000" fill-opacity=".5" transform="matrix(13.75283 -6.83282 5.4634 10.99653 227.6 33)"/><path fill-opacity=".5" d="M145 73h20v18h-20z"/><path fill="#da002f" fill-opacity=".2" d="M140.1 32l-19.6 3.3-3.7-9.4L146.9-16z"/><path fill="#26150e" d="M85.1 185l26.1-55.2-15.6-10.2 50.1 19.2z"/><path fill="#82342b" fill-opacity=".5" d="M61 35h37v21H61z"/><path fill="#692211" fill-opacity=".5" d="M159 16h32v49h-32z"/><circle cx="247" cy="123" r="45" fill="#000001" fill-opacity=".7"/><path fill="#735242" fill-opacity=".4" d="M96.7 162.3l8.4-16.2-6.4-42.1-26.3 37z"/><ellipse cx="2" cy="37" fill="#070000" fill-opacity=".6" rx="20" ry="10"/><path fill="#060000" fill-opacity=".5" d="M105 2L95 9l9 1z"/><path fill="#c24f51" fill-opacity=".6" d="M25.3 45.9L12.8 62.4-6.5 75.1l55.6-62.9z"/><path fill="#910000" fill-opacity=".3" d="M152.3 102.7L139 156.3l-11.4 20.5-11.5 8.2z"/><path fill="#ffbe93" fill-opacity=".3" d="M68.1 53.8l-6.7 7.4-7.8-31-3.4 13.4z"/><circle r="1" fill-opacity=".2" transform="matrix(24.59635 .03892 -.01703 10.76188 18.9 164)"/><path fill="#491d1a" fill-opacity=".5" d="M17 28h63v4H17z"/><path fill="#450100" fill-opacity=".6" d="M162.4 110l39.7-20.1 4.5 34.1-45.1-36.1z"/></g></svg>