<svg xmlns="http://www.w3.org/2000/svg" viewBox="0 0 300 199"><defs/><path fill="#4e312a" d="M0 0h300v199H0z"/><g transform="translate(.6 .6) scale(1.17188)"><circle r="1" fill="#d4e9ec" fill-opacity=".7" transform="rotate(91.9 27.1 63) scale(157.98771 52.84781)"/><circle r="1" fill="#272c1f" fill-opacity=".6" transform="rotate(89.9 25.8 82.3) scale(66.92129 10.54348)"/><ellipse cx="64" cy="16" fill="#fffffe" fill-opacity=".9" rx="26" ry="71"/><circle cx="215" cy="137" r="87" fill="#0b1f27" fill-opacity=".7"/><ellipse cx="245" cy="52" fill="#74786f" rx="21" ry="54"/><circle r="1" fill="#79a0be" fill-opacity=".7" transform="matrix(-3.8728 -20.26496 102.338 -19.55766 46.6 169)"/><ellipse cx="77" cy="96" fill="#01050b" fill-opacity=".8" rx="7" ry="16"/><circle r="1" fill="#ffe7d8" fill-opacity=".4" transform="matrix(-26.88951 -4.10014 4.71942 -30.95088 141.9 46.2)"/><ellipse cx="200" cy="51" fill="#080808" fill-opacity=".7" rx="21" ry="169"/><circle r="1" fill="#3f504d" fill-opacity=".7" transform="matrix(-1.1197 -35.52067 24.2326 -.76388 31.2 118.9)"/><path fill="#2b2a20" fill-opacity=".5" d="M96 84h27v34H96z"/><ellipse cx="8" cy="43" fill="#445d5c" fill-opacity=".6" rx="31" ry="94"/><circle r="1" fill="#e8f7fe" fill-opacity=".6" transform="matrix(-7.61403 3.58803 -24.86646 -52.76822 63.3 105.1)"/><ellipse cx="92" cy="70" fill="#f9fffa" fill-opacity=".4" rx="7" ry="85"/><circle r="1" fill="#fff" fill-opacity=".5" transform="rotate(175.1 62.5 33.5) scale(7.2459 52.77305)"/><path fill="#101613" fill-opacity=".4" d="M99 0h137v12H99z"/><path fill="#a4cfed" fill-opacity=".5" d="M44 139l71-16-105 56z"/><circle r="1" fill="#365672" fill-opacity=".6" transform="rotate(127.6 41 106.9) scale(38.69285 9.18)"/><circle r="1" fill="#0d0e10" fill-opacity=".8" transform="rotate(-59.5 236.4 -125.4) scale(44.50875 51.63532)"/><circle cx="148" cy="101" r="15" fill="#00050d" fill-opacity=".5"/><path fill="#a3746a" fill-opacity=".5" d="M180 22l-40-11-2 79z"/><path fill="#464954" fill-opacity=".5" d="M108 166l-88 19 40-25z"/><ellipse cx="243" cy="70" fill="#b9cace" fill-opacity=".5" rx="5" ry="30"/><path fill="#1a231e" fill-opacity=".5" d="M-9 129h76l-78 42z"/><circle r="1" fill="#b3d5ee" fill-opacity=".4" transform="matrix(28.37566 15.16543 -10.26007 19.19738 84.3 131.4)"/><circle r="1" fill="#151006" fill-opacity=".5" transform="matrix(-2.11222 -7.77085 34.04654 -9.25431 216.3 21.7)"/><path fill="#4e534d" fill-opacity=".7" d="M10 89h44v36H10z"/><path fill="#0d203d" fill-opacity=".3" d="M119.6 95l39.1 90-31.6-43.2-9.8 14.8z"/><path fill="#797869" fill-opacity=".7" d="M224 77l47-76-54 46z"/><path fill="#474740" fill-opacity=".5" d="M96 84v34l31-5z"/><path fill="#e5ebdf" fill-opacity=".7" d="M81 0h17v82H81z"/><ellipse cx="140" cy="37" fill="#cbaaaa" fill-opacity=".5" rx="10" ry="33"/><ellipse cx="25" cy="48" fill="#000003" fill-opacity=".5" rx="3" ry="62"/><path fill="#111b18" fill-opacity=".4" d="M113 0h5v89h-5z"/><path fill="#fff" fill-opacity=".5" d="M250 64h2v43h-2z"/><path fill="#070000" fill-opacity=".5" d="M78.5 75.4l6.6 13.5-3.6 1.7-6.6-13.5z"/><path fill="#a4c0d6" fill-opacity=".7" d="M74.3 101.7l18.4 20.1 37.1-8.2-45 55.2z"/><path fill="#fdffff" fill-opacity=".7" d="M59 81h11v47H59z"/><path fill="#0a0e12" fill-opacity=".8" d="M168.4 59.1l62 18.8-99.5 32.3L211.4 34z"/><path fill="#291c16" fill-opacity=".4" d="M155.9 50.6L147.8 3l42.3-19-30.5 41.2z"/><path fill="#fefcf9" fill-opacity=".6" d="M39 17h29v71H39z"/><path fill="#45463a" fill-opacity=".8" d="M254 0h2v109h-2z"/><path fill="#b2cee1" fill-opacity=".5" d="M32.7 147l101.7 10.1-19.1 14.4-14.8-52.2z"/><path fill="#fffff9" fill-opacity=".5" d="M120.2 3.1l10.4 20.7L141.4 42l-23.3 4.7z"/><path fill="#657d82" fill-opacity=".8" d="M257.3-9.4l2.1 14.8-28.7 4-2.1-14.8z"/><circle r="1" fill="#684035" fill-opacity=".5" transform="matrix(-18.54466 15.8101 -5.12554 -6.01207 168.1 54)"/><ellipse cx="19" cy="169" fill="#8ab3cf" fill-opacity=".6" rx="23" ry="9"/><path fill="#304a62" fill-opacity=".3" d="M205.1 85.7l-44.4 12.6-45 86.7 36.2-24.2z"/><circle cx="132" cy="48" r="4" fill="#57040d" fill-opacity=".4"/><path fill="#221610" fill-opacity=".6" d="M136.9-12.2L238.1 50l-89.6-66-17.4 35z"/><path fill="#c5bcae" fill-opacity=".3" d="M34 71h45v11H34z"/><ellipse cx="252" cy="31" fill="#c3c8c4" fill-opacity=".4" rx="2" ry="38"/><path fill="#0a0d0f" fill-opacity=".5" d="M70 84h14v24H70z"/><circle r="1" fill="#0b151f" fill-opacity=".5" transform="matrix(4.10258 -28.82624 6.88394 .97973 137.4 122.3)"/><path fill="#626b61" fill-opacity=".6" d="M29 0h10v87H29z"/><path fill="#fff" fill-opacity=".4" d="M119 16h11v67h-11z"/><ellipse cx="104" cy="19" fill="#687165" fill-opacity=".5" rx="7" ry="93"/><path fill="#ecefff" fill-opacity=".3" d="M139.6 15.1l3.8-15.8-11.1 15.1-17.5-29.7z"/><path fill="#232522" fill-opacity=".4" d="M16.1 139.8L-16 161.5l51.6-3.4.8-25.8z"/><circle cx="92" cy="31" r="3" fill="#364c50" fill-opacity=".5"/><path fill="#fafdf5" fill-opacity=".3" d="M74.1 87.2l-8.2 29.1-21.5-6.4 22.5-11.1z"/><path fill="#0a0200" fill-opacity=".4" d="M-5 95l27-9 10 10z"/><circle r="1" fill="#170c07" fill-opacity=".6" transform="rotate(53.9 88.5 205.1) scale(29.18166 25.40302)"/><path fill="#4c4e43" fill-opacity=".6" d="M253 31h3v77h-3z"/><path fill="#5d6664" fill-opacity=".6" d="M50 125l10-10-36-21z"/></g></svg>