<svg xmlns="http://www.w3.org/2000/svg" viewBox="0 0 300 199"><defs/><path fill="#403b55" d="M0 0h300v199H0z"/><g transform="translate(.6 .6) scale(1.17188)"><circle r="1" fill="#fbecd4" fill-opacity=".6" transform="matrix(-105.77693 -140.74797 63.82227 -47.96463 132.8 47.9)"/><circle r="1" fill="#e5f3fd" fill-opacity=".6" transform="matrix(-49.23077 5.78329 -7.13347 -60.72431 206.6 133.3)"/><ellipse cx="227" fill="#c8b6b0" rx="23" ry="46"/><circle r="1" fill="#a3a7c2" fill-opacity=".5" transform="rotate(-16.8 464 -31) scale(27.77097 77.58826)"/><circle r="1" fill="#421f00" fill-opacity=".3" transform="rotate(-152.8 69.1 26.7) scale(34.97481 105.78091)"/><path fill="#bec6cc" fill-opacity=".6" d="M143 92l-38 82 83-5z"/><circle r="1" fill="#727167" transform="matrix(31.83747 8.643 -3.26501 12.02704 19.4 15)"/><ellipse cx="247" cy="65" fill="#131501" fill-opacity=".8" rx="10" ry="33"/><circle r="1" fill="#5a6779" fill-opacity=".7" transform="matrix(-46.9047 14.3402 -9.14216 -29.90267 55.6 82.9)"/><path fill="#651f06" fill-opacity=".4" d="M211 74V-7l-20 28z"/><ellipse cx="108" cy="94" fill="#c7d5fd" fill-opacity=".5" rx="10" ry="27"/><path fill="#d2d3de" fill-opacity=".5" d="M0 129h35v24H0z"/><circle r="1" fill="#b2886b" fill-opacity=".6" transform="matrix(37.03625 15.64472 -12.20416 28.89129 148 72.3)"/><path fill="#9fa4bf" fill-opacity=".7" d="M76 73.5l-43.4 41.3 22-42.5-33.2-41.7z"/><path fill="#00051f" fill-opacity=".5" d="M70 6l-9 27L87 5z"/><circle r="1" fill="#080900" fill-opacity=".6" transform="matrix(-1.9522 29.47558 -13.33247 -.88302 86.5 141.7)"/><circle r="1" fill="#68382c" fill-opacity=".6" transform="matrix(.85502 -44.53 16.35083 .31395 146 11)"/><path fill="#eff2f3" fill-opacity=".6" d="M186.5 44.4l25.4 52.2-14.4 7-25.4-52.2z"/><path fill="#072300" fill-opacity=".5" d="M11.4 93.8l-2 10.8 49.8-23.3L32 68.9z"/><path fill="#a1998f" d="M32.2-5.7L-16 58.8l9.3-21.1L17.1-16z"/><ellipse cx="115" fill="#d3a351" fill-opacity=".6" rx="14" ry="68"/><path fill="#c4c1d4" fill-opacity=".5" d="M26 32h80v20H26z"/><path fill="#787062" fill-opacity=".7" d="M90.6 174.7l17.8-58.4 23 7-17.8 58.4z"/><path fill="#233119" fill-opacity=".6" d="M47.8 13.9L5.6 59.6l2-35.7 31.1-13z"/><circle r="1" fill="#201d4c" fill-opacity=".4" transform="matrix(-4.97811 2.17081 -20.29125 -46.53196 44.5 146)"/><path fill="#253b33" fill-opacity=".6" d="M64.7 125.8l38.6-75.7 8 4L72.7 130z"/><path fill="#4f1915" fill-opacity=".5" d="M181 73l-12-10-33 24z"/><path fill="#111402" fill-opacity=".5" d="M251.6 67.4l21.9 45-17 8.2-22-45z"/><path fill="#ccb5ad" fill-opacity=".5" d="M222.2 71.8L196.1-16 271 8.2 268.4-15z"/><path fill="#4e5768" fill-opacity=".8" d="M83.4 46.4l1.5 50.8-28.8-50 15.4 6.9z"/><path fill="#dac4ff" fill-opacity=".5" d="M3.5 145l9.2-39.9 7.8 1.8-9.2 40z"/><ellipse cx="11" cy="161" fill="#131812" fill-opacity=".5" rx="8" ry="11"/><path fill="#040013" fill-opacity=".3" d="M62 124l-26-3 22-28z"/><path fill="#f4f1f7" fill-opacity=".4" d="M69-1L37-16l18 46z"/><circle r="1" fill="#c7d0d9" fill-opacity=".7" transform="matrix(-18.91702 -75.53785 8.97491 -2.2476 249.5 146)"/><path fill="#c5d5f8" fill-opacity=".2" d="M107.3-5.1L84.6 57.7-16 135.4 101.3 64z"/><ellipse cx="181" cy="9" fill="#f4ab95" fill-opacity=".5" rx="13" ry="30"/><path fill="#a7a2ba" fill-opacity=".6" d="M15.9 54.6L-1.6 98.8l27.1-30.6-10.2-10.9z"/><path fill="#a8c7ff" fill-opacity=".3" d="M99 84l-10 33 34-1z"/><path fill="#885143" fill-opacity=".5" d="M181.6 49.2l-8.7 3.7L139 20.3l24.3-29.1z"/><path fill="#d4d9c4" fill-opacity=".5" d="M147.4 42.4l3.6 12.4-25.1 12.5L173 52.4z"/><path fill="#8d98b3" d="M19.2 149.3l8.4-2.8 31.3 32.3-23.6 6.2z"/><path fill="#323746" fill-opacity=".6" d="M82 118h47l-29 17z"/><path fill="#c3c6d5" fill-opacity=".4" d="M64.9 84.6l-19.3 25L-16 92.7l33.4 14.6z"/><path fill="#201f12" fill-opacity=".8" d="M250.2 108.4L235.8 46 255 11.2l16 132.2z"/><path fill="#573e84" fill-opacity=".6" d="M27.8 130.9l19.9-20.4-30.8-1.4 15 46.5z"/><path fill="#452b2f" fill-opacity=".4" d="M10.4 42.3L26.6 74l18.1-51.4L40 65.3z"/><path fill="#c9a093" fill-opacity=".7" d="M237 73l-28.1-28 4.7-61 24.8 80.8z"/><path fill="#c7c2f4" fill-opacity=".5" d="M63.7 114.2l-4.3-11.4 16.2-5.9-1.4-19.1z"/><circle cx="120" cy="100" r="7" fill-opacity=".3"/><path fill="#11173e" fill-opacity=".4" d="M61 23l15 11-7-21z"/><path fill="#bcc3cb" fill-opacity=".6" d="M104 181l50-63.4 8.1-31.2 7.6 88.8z"/><path fill="#cbb4b5" fill-opacity=".5" d="M114 84l46-13-43-1z"/><path fill="#2d3747" fill-opacity=".5" d="M103 33l10-14 3 14z"/><circle r="1" fill="#dce0e5" fill-opacity=".5" transform="matrix(8.7087 -39.33705 27.47855 6.08339 220.1 120)"/><path fill="#64473c" fill-opacity=".5" d="M199.2 58.4l-1-74.4 10.6 66.5 13.3 28.2z"/><path fill="#d3d2cf" fill-opacity=".6" d="M70 54l29-40-25 4z"/><path fill="#948c8b" fill-opacity=".6" d="M120.5 132l22.6-41-13.3 60.2-40.4-33.8z"/><path fill="#000815" fill-opacity=".3" d="M47.9 133.3l-11.1 6.1-5.1 43.1 15.5-41.1z"/><circle r="1" fill="#d8d2d9" fill-opacity=".5" transform="matrix(-6.00426 6.46135 -12.64761 -11.75288 64 36.5)"/><path fill="#161810" fill-opacity=".5" d="M53.6 172.5l23.8-36.7 8.2-52.7 7.6 90.6z"/><path fill="#d0b0c1" fill-opacity=".5" d="M23 51l2.4-1.8L43 70.9l-2.4 2z"/><path fill="#c1c8cc" fill-opacity=".6" d="M236.8 32.9l15.3-18.3-2-30.6h-55.4z"/><path fill="#837343" fill-opacity=".5" d="M73 3l22 7 21-26z"/><path fill="#cac1d8" fill-opacity=".5" d="M47 121h8v16h-8z"/></g></svg>