<svg xmlns="http://www.w3.org/2000/svg" viewBox="0 0 300 199"><defs/><path fill="#395429" d="M0 0h300v199H0z"/><g transform="translate(.6 .6) scale(1.17188)"><ellipse cx="45" cy="37" fill="#eaecf3" fill-opacity=".9" rx="63" ry="77"/><ellipse cx="212" cy="163" fill="#dec5da" fill-opacity=".6" rx="39" ry="106"/><circle cx="134" cy="52" r="55" fill="#88685a" fill-opacity=".4"/><path fill="#080400" fill-opacity=".6" d="M271 147L248-16l-25 116z"/><path fill="#c8ccd8" fill-opacity=".5" d="M183.3 106l49.3 13.3-17.9 66.6-49.3-13.2z"/><ellipse cx="178" cy="79" fill="#7d5b50" fill-opacity=".9" rx="21" ry="34"/><path fill="#faffff" fill-opacity=".3" d="M20 0L4 120 122-4z"/><circle r="1" fill="#13170e" fill-opacity=".6" transform="matrix(-35.61792 -16.68465 9.8785 -21.08832 203.3 30.2)"/><path fill="#33212f" fill-opacity=".5" d="M55 107h113v63H55z"/><path fill="#97b08c" fill-opacity=".4" d="M101.5 89.5l5 16.2-68 20.8-5-16.2z"/><circle r="1" fill="#a3a7a9" fill-opacity=".7" transform="rotate(63.6 -8 272.4) scale(60.4645 23.21332)"/><path fill="#3f5f2e" fill-opacity=".5" d="M173 56l-99 1 93-73z"/><path fill="#9a7766" d="M232.7 92.8l-29.4 12.6L229 67.3l13.7 22.1z"/><ellipse cx="219" cy="10" fill="#f8f4ff" fill-opacity=".5" rx="8" ry="5"/><circle r="1" fill="#2d221b" fill-opacity=".5" transform="rotate(25.9 -130 437) scale(12.16203 23.12606)"/><path fill="#e7b9b7" fill-opacity=".4" d="M158 80l32-25 34 19z"/><path fill="#f0bab1" fill-opacity=".6" d="M121 93l27-4-3 13z"/><path fill="#f9ffff" fill-opacity=".6" d="M70 91.6l-9-10.7 29-24.5 9 10.7z"/><circle r="1" fill="#88855c" fill-opacity=".5" transform="matrix(6.05203 3.11926 -36.17659 70.19028 99.3 74.3)"/><path fill="#02000d" fill-opacity=".5" d="M150 108l-42-12 16 55z"/><path fill="#b27f7d" fill-opacity=".5" d="M159.2 49.7l-4.3 74.4 36.8 11.8-28.1-21.6z"/><ellipse cx="117" cy="150" fill="#d28971" fill-opacity=".6" rx="5" ry="13"/><circle r="1" fill="#121d08" fill-opacity=".6" transform="matrix(-21.33018 .88515 -4.64139 -111.8476 253 26.1)"/><path fill="#271612" fill-opacity=".8" d="M153.6 50.7l-16.4 44.2-22.1-12.6 38 7z"/><path fill="#9da8a7" fill-opacity=".6" d="M55.5 115.3l-2.7 6.4-54.3-23 2.7-6.4z"/><path fill="#708e68" fill-opacity=".5" d="M88 13h45v12H88z"/><path fill="#ecf0f0" fill-opacity=".6" d="M109 28l-76 3 29 25z"/><path fill="#ec988b" fill-opacity=".5" d="M133 58h8v21h-8z"/><path fill="#8c5b43" fill-opacity=".6" d="M169 95h54v7h-54z"/><path fill="#060d00" fill-opacity=".4" d="M53 157l95 28-57-46z"/><path fill="#d1bfb8" fill-opacity=".6" d="M216.5 53.7l7.7 9.2-20.7 17.4-7.7-9.2z"/><path fill="#232d15" fill-opacity=".5" d="M165 44l-47-12 62 37z"/><path fill="#0b1300" fill-opacity=".5" d="M219.6 103l-10.3-2.6 52.4-10.2 6 33.1z"/><path fill="#364323" fill-opacity=".6" d="M23.7 103.8l-23 11.4-7.8 48.8 71 21z"/><path fill="#231b08" fill-opacity=".5" d="M195 91l-23-2 19-27z"/><path fill="#e9ebe5" fill-opacity=".6" d="M112 10L97-16 55 16z"/><path fill="#ffd6e3" fill-opacity=".4" d="M159 86l22-10-9-9z"/><path fill="#f32d3a" fill-opacity=".3" d="M110.7 83.7L99.5 71.3 111 44.5l6.1 2.5z"/><circle r="1" fill="#264715" fill-opacity=".5" transform="rotate(35 49.8 208.3) scale(67.696 4.7705)"/><path fill="#bbbbc1" fill-opacity=".6" d="M165.7 185l69.7-75.3-28-8.5-30 16z"/><ellipse cx="201" cy="2" fill="#1a1e12" fill-opacity=".7" rx="12" ry="60"/><circle r="1" fill="#e3e5e9" fill-opacity=".7" transform="rotate(-73.1 61 15.2) scale(33.58269 58.58054)"/><path fill="#3d6024" fill-opacity=".5" d="M53 110h49v39H53z"/><ellipse cx="30" cy="146" fill="#b3c66b" fill-opacity=".4" rx="38" ry="2"/><path fill="#1c0509" fill-opacity=".5" d="M159.9 79.7l-1 10-38.8-3.4 1-10z"/><circle r="1" fill="#a47d6e" fill-opacity=".9" transform="matrix(1.03335 -7.08338 9.26264 1.35127 180.5 55)"/><path fill="#d4ccc4" fill-opacity=".4" d="M190.5 50.6l10.7 43.8 41.6-8.8-20.7.6z"/><path fill="#3679ce" fill-opacity=".5" d="M3.7 8.2l13.4 2.7L-16 8.6 19-16z"/><path fill="#120704" fill-opacity=".4" d="M131.9 47.7L144.2 64l14.1 30.1-11.4-45.8z"/><path fill="#5a4f6e" fill-opacity=".4" d="M123 178l28-26-3-49z"/><path fill="#f1ffff" fill-opacity=".5" d="M93 53h5v20h-5z"/><path fill="#dbe2ee" fill-opacity=".4" d="M8 63h6v47H8z"/><path fill="#e1e4e8" fill-opacity=".5" d="M46.6 122.5l3.2-18.6 39 5.9L-16 21.3z"/><path fill="#8f684b" fill-opacity=".8" d="M137.7 106.8l-29.5-39.3-7.4 5 15.7 22.1z"/><path fill="#2b361e" fill-opacity=".5" d="M116.7 148.6l-91.4-4.2 8.5-36.6 19.1 26.7z"/><path fill="#416438" fill-opacity=".4" d="M84 41l25 2-25 17z"/><path fill="#1b2510" fill-opacity=".9" d="M220.2 57.3l9.4-43.7L271 15l-30.3 69.4z"/><path fill="#e3beb1" fill-opacity=".5" d="M137 92h29v4h-29z"/><path fill="#000818" fill-opacity=".4" d="M177 122l-20-26 25 8z"/><path fill="#100410" fill-opacity=".5" d="M118.6 136.7l4.5 37.3 10.5-39.9 19.1-43.4z"/><path fill="#062a17" fill-opacity=".6" d="M108-16L91 1l56-12z"/><path fill="#e67d70" fill-opacity=".3" d="M157.2 80.9L168 53.7l-32.6 30.7 1.1-27.6z"/><path fill="#161e0e" fill-opacity=".8" d="M194-16h74L224 7z"/><path fill="#1d151d" fill-opacity=".7" d="M170.5 153L155 124.4l4.9 6.7 14-2.7z"/><path fill="#51613f" fill-opacity=".8" d="M114.5 88.6l-28.2 16.2 4.7 8.3 19.5.2z"/></g></svg>