<svg xmlns="http://www.w3.org/2000/svg" viewBox="0 0 300 199"><defs/><path fill="#3c2d23" d="M0 0h300v199H0z"/><g transform="translate(.6 .6) scale(1.17188)"><circle cx="90" cy="43" r="238" fill="#fdf0ee" fill-opacity=".7"/><circle r="1" fill="#370c00" fill-opacity=".6" transform="matrix(7.70255 -23.42744 32.70766 10.75373 169.5 61)"/><circle r="1" fill="#825942" fill-opacity=".7" transform="matrix(24.88291 1.76387 -4.97098 70.12562 88.3 108.3)"/><circle r="1" fill="#fcffff" fill-opacity=".5" transform="rotate(10 -285.3 218.4) scale(39.08475 193.77791)"/><circle r="1" fill="#320000" fill-opacity=".4" transform="matrix(-7.63159 1.0375 -5.9133 -43.49682 170.4 95)"/><ellipse cx="247" cy="147" fill="#5f3f24" fill-opacity=".4" rx="34" ry="22"/><ellipse cx="150" cy="15" fill="#d3d7d8" fill-opacity=".6" rx="255" ry="23"/><path fill="#2a1c12" fill-opacity=".7" d="M169 83.4l-34.3-53.1 14.7-2.3 20.7 22.3z"/><path fill="#e4e4f8" fill-opacity=".7" d="M200.2 185l-24.9-73.9 11.9-3.2L217.9 78z"/><circle r="1" fill="#51574e" fill-opacity=".6" transform="matrix(9.80086 -15.20662 10.37 6.6836 150.9 162.5)"/><path fill="#d3b8aa" fill-opacity=".6" d="M141.2 34.5l11.3 9.8-63.7 73.2-11.3-9.8z"/><path fill="#cdbbb4" d="M257.3 185L236 161.1l13.2-26.4-36-16.8z"/><path fill="#deb197" fill-opacity=".6" d="M191.4 98.1l-12.6-56.9-10 15.7 19.5 66.9z"/><path fill="#edf2f4" fill-opacity=".5" d="M106 26h24v47h-24z"/><circle r="1" fill="#48382a" fill-opacity=".6" transform="matrix(-8.80159 -25.24042 7.61908 -2.65685 80.5 136)"/><path fill="#3e1000" fill-opacity=".4" d="M113.7 154.8L108.9 91l6.8-21.4 2.8 80.7z"/><path fill="#2f1300" fill-opacity=".3" d="M233.2 82.9l11.9 70.4 25.9-10.6-43-31.6z"/><path fill="#4c1b01" fill-opacity=".4" d="M92 99.1L79.7 37.4 66.1 75l40.7-7.3z"/><circle r="1" fill="#ccced1" fill-opacity=".6" transform="matrix(-45.33459 -61.26618 18.70138 -13.8383 234.1 60)"/><path fill-opacity=".5" d="M198 75l-12-38 20 31z"/><circle r="1" fill="#d49e8e" transform="rotate(98.9 -18 129.6) scale(14.29482 19.27931)"/><path fill="#4d1000" fill-opacity=".2" d="M187.9 148.3l-39.2-56.8-7.5-67.2 14.9 12.2z"/><path fill="#e4e4ef" fill-opacity=".5" d="M161 158v-41l49 64z"/><circle r="1" fill="#372100" fill-opacity=".5" transform="matrix(-6.37723 -16.06842 4.55461 -1.80763 226.8 151)"/><path fill="#694e40" fill-opacity=".8" d="M107.9 115.9l-47.1 38.8-2.2-16.5L85 154z"/><path fill="#ffcfae" fill-opacity=".6" d="M88.3 45.1l7 1L91.6 71l-7-1z"/><circle r="1" fill="#dbe0de" fill-opacity=".5" transform="matrix(-5.64307 -1.05607 2.66134 -14.22074 166 31.4)"/><path fill="#f6c8b4" fill-opacity=".4" d="M155.1 121l-41-28.6 35.1-44.8-5.4 34.6z"/><path fill="#1e130b" fill-opacity=".6" d="M183.5 35.4L145.6 76l28.7-37.4 27 17.8z"/><path fill="#fffffe" fill-opacity=".3" d="M77 153l-17 19-27-27z"/><path fill="#001900" fill-opacity=".6" d="M50 163.5l3.8 4.7-7.8 6.3-3.8-4.7z"/><path fill="#625c4f" fill-opacity=".9" d="M209.3 158.8l7.1-8.8 12.5-21-16.6 35.2z"/><path fill="#492818" fill-opacity=".7" d="M75.7 66.2l8.1 1.1-4.1-25.2 15.1-1.8z"/><ellipse cx="118" cy="120" fill="#a2867a" fill-opacity=".6" rx="41" ry="8"/><circle r="1" fill="#ebece9" fill-opacity=".5" transform="rotate(96.7 15.4 91) scale(20.17748 2.18021)"/><path fill="#664231" fill-opacity=".5" d="M135 31l-8 15 8 3z"/><path fill="#ad7b6b" fill-opacity=".4" d="M198 131l29-53 16 40z"/><circle r="1" fill="#253c32" fill-opacity=".5" transform="matrix(2.17494 2.06834 -18.54397 19.49962 143.8 162.7)"/><path fill="#c3bbc7" fill-opacity=".5" d="M163.7 154.2l-63-30 45.9 3.3 8.1 42.2z"/><circle r="1" fill="#dcdad9" fill-opacity=".6" transform="matrix(-71.1757 13.54106 -5.73673 -30.15387 58.4 16.4)"/><circle r="1" fill="#222d0d" fill-opacity=".4" transform="rotate(71 22.3 253.8) scale(3.07117 32.70743)"/><circle r="1" fill="#f6c09c" fill-opacity=".5" transform="matrix(-3.66635 -.6391 6.17888 -35.44653 63.4 105.2)"/><circle r="1" fill="#090100" fill-opacity=".6" transform="matrix(5.29852 1.54295 -.79195 2.71958 175.6 77.8)"/><path fill="#f7f8ff" fill-opacity=".5" d="M178 105h24v21h-24z"/><path fill="#401000" fill-opacity=".2" d="M130.6 112L78.9 91l47.4 38.2-24 10.4z"/><path fill="#170504" fill-opacity=".4" d="M103.6 57.1L90.4 84.9l12.3-1.7 4.2-13.4z"/><path fill="#dfb5a2" fill-opacity=".6" d="M216.5 173.4l34.5-22.1-3.9 2.4 19.5 31.3z"/><path fill="#8c5c46" fill-opacity=".6" d="M188.1 84.6L178 91.7l-22.8-14.2 10.6 41.5z"/><path fill="#d9a88a" fill-opacity=".6" d="M194 96l-21-13 41-7z"/><path fill="#f3eff1" fill-opacity=".5" d="M105 134v26l12-23z"/><path fill="#d9d2dc" fill-opacity=".7" d="M180.1 142.6l34.2 42.4-8.1-28.4 21.2-31.7z"/><circle cx="243" cy="126" r="4" fill="#001803" fill-opacity=".7"/><path fill-opacity=".6" d="M147 34l6.6-2 7.5 26-6.7 2z"/><path fill="#534536" fill-opacity=".6" d="M80 161.9L51.6 185l35-19 12.6-59.5z"/><circle r="1" fill="#f7e0cf" fill-opacity=".4" transform="matrix(3.6515 -1.78885 14.93784 30.49192 220.3 96.4)"/><path fill="#c9d3e7" fill-opacity=".4" d="M125 129h20v34h-20z"/><path fill="#9e553c" fill-opacity=".6" d="M166 159v26l-15-17z"/><ellipse cx="220" cy="22" fill="#c4c2c2" fill-opacity=".6" rx="44" ry="27"/><path fill="#fffff5" fill-opacity=".5" d="M214 158h9v12h-9z"/><ellipse cx="29" cy="127" fill="#e9e7e7" fill-opacity=".5" rx="30" ry="45"/><path fill="#c3b5a8" fill-opacity=".5" d="M93 123L82 92l-5 26z"/><path fill="#dececa" fill-opacity=".8" d="M227.6 143.8l20.4-5.6-.6-4.2-23.3-8.1z"/><ellipse cx="71" cy="147" fill="#c1aa9b" fill-opacity=".8" rx="2" ry="19"/><path fill="#002307" fill-opacity=".3" d="M157.5 145.8l-9.3 21.2-9.5-16.5 25.9 2z"/><path fill="#370800" fill-opacity=".4" d="M71 99h5v31h-5z"/></g></svg>