<svg xmlns="http://www.w3.org/2000/svg" viewBox="0 0 300 199"><defs/><path fill="#355266" d="M0 0h300v199H0z"/><g transform="translate(.6 .6) scale(1.17188)"><circle r="1" fill="#fce3bb" fill-opacity=".6" transform="matrix(59.97943 -.41109 1.52835 222.99064 44.7 95.7)"/><circle r="1" fill="#c37440" fill-opacity=".7" transform="rotate(176.7 96.6 50) scale(107.7919 31.3439)"/><circle r="1" fill="#200b00" fill-opacity=".7" transform="matrix(95.3705 -56.2049 26.12861 44.33597 206.7 14.4)"/><path fill="#eb9" fill-opacity=".6" d="M158 57l50 11-6 45z"/><circle r="1" fill="#d88731" fill-opacity=".6" transform="matrix(-10.49866 37.65716 -15.53804 -4.33194 116.2 4.5)"/><ellipse cx="32" cy="46" fill="#023c5f" fill-opacity=".5" rx="52" ry="9"/><ellipse cx="241" cy="150" fill="#160100" fill-opacity=".5" rx="23" ry="33"/><path fill="#c28a62" d="M262 109l-87.7-23.9-71.1 9.9 24.9 23.1z"/><path fill-opacity=".6" d="M207 95l18-6-18-44z"/><ellipse cx="104" cy="60" fill="#6c391a" fill-opacity=".5" rx="6" ry="48"/><ellipse cx="255" cy="64" fill="#663821" rx="13" ry="25"/><circle r="1" fill="#080807" fill-opacity=".7" transform="matrix(-27.59515 40.15119 -16.42383 -11.28779 230 31.8)"/><circle cx="76" cy="118" r="60" fill="#ffe8cb" fill-opacity=".1"/><path fill="#712800" fill-opacity=".3" d="M142 140l-47-40 171 19z"/><path fill="#e1c9a5" d="M110-16l-6.4 3.4-28.1 87.3 2.4 23.5z"/><path fill="#efbd6b" fill-opacity=".8" d="M104.9 35.2L143.2-16l-6.1 4.4-29.7 57.1z"/><path fill="#cc9776" fill-opacity=".7" d="M153.9 55.7l50.2 14.6-.6 5.7-46.2-8.8z"/><path fill="#201914" fill-opacity=".9" d="M141.2 87.4l29.4-3.5 8.4-8.4-43.3-21.7z"/><circle r="1" fill="#fff9de" fill-opacity=".5" transform="matrix(-.22153 3.72885 -41.66882 -2.47558 34.4 22.7)"/><path fill="#06090a" fill-opacity=".7" d="M179.3 119.1l32.6 4.9-27 3.2-9.1-1.1z"/><ellipse cx="70" cy="10" fill="#633f00" fill-opacity=".3" rx="72" ry="3"/><path fill="#757a73" fill-opacity=".5" d="M-7.6 173l6.3-27.2 82.9 19.1-6.3 27.3z"/><circle cx="197" cy="149" r="24" fill="#6a7d84" fill-opacity=".4"/><path fill="#f29355" fill-opacity=".5" d="M90.2 43.7l-13.8 63.1 23.8-23.1 11.3-1.3z"/><path fill="#4e3e2e" fill-opacity=".8" d="M122.3-6.8L106.6-16l-8.7 83 8.6-33.2z"/><path fill="#cb9a77" d="M145.2 110.5L115 77.4l62.6 27.5 19-40.1z"/><ellipse cx="97" cy="155" fill="ivory" fill-opacity=".5" rx="3" ry="49"/><ellipse cx="16" cy="34" fill="#4989af" fill-opacity=".4" rx="78" ry="8"/><path fill="#241609" fill-opacity=".5" d="M98 60l17 21-15-55z"/><ellipse cx="18" cy="98" fill="#b3b5ab" fill-opacity=".7" rx="63" ry="38"/><path fill="#d2a688" fill-opacity=".6" d="M225.5 84.4L218.9 71l22.2-10.6-6.1 19.5z"/><circle r="1" fill="#130b0b" fill-opacity=".5" transform="matrix(-.70737 -2.91743 38.95576 -9.4453 242.5 85.2)"/><ellipse cx="37" cy="1" fill="#cbae65" fill-opacity=".6" rx="62" ry="8"/><path fill="#c4794b" fill-opacity=".5" d="M274.6 116l-43.2 8.4-6-30.4 43.2-8.4z"/><circle r="1" fill="#763106" fill-opacity=".5" transform="matrix(29.64514 -53.12638 5.98986 3.34241 140.5 0)"/><ellipse cx="108" cy="141" fill="#5c7b7f" fill-opacity=".5" rx="10" ry="34"/><path fill="#3b0100" fill-opacity=".5" d="M96 79l20 9-9 3z"/><circle r="1" fill="#130e0b" fill-opacity=".5" transform="matrix(-8.2275 -23.83921 37.9457 -13.09601 218.1 41.6)"/><path fill="#ffe1bb" fill-opacity=".4" d="M103.1 68.3L61.8 89.5 88.1 66l9.6-13.8z"/><path fill="#718b92" fill-opacity=".6" d="M0 51h81v7H0z"/><path fill="#ffefd0" fill-opacity=".5" d="M86.5 22.5l-45.9 4.3 50.7 2 11 3.8z"/><path fill="#a8c1c8" fill-opacity=".5" d="M34 33h63v7H34z"/><ellipse cx="143" cy="150" fill="#3e5156" fill-opacity=".5" rx="39" ry="20"/><path fill="#7d4d3f" fill-opacity=".5" d="M157 93h57v4h-57z"/><path fill="#d1ab93" fill-opacity=".5" d="M191.1 96.5L157 91.2l39.4-22.5 14.4 13.1z"/><path fill="#141413" fill-opacity=".6" d="M238.3 136.4l-21-.8.4-12 21 .8z"/><ellipse cx="53" cy="18" fill="#b3b6aa" fill-opacity=".9" rx="42" ry="5"/><circle r="1" fill="#3e5d6a" fill-opacity=".6" transform="matrix(.446 -5.6039 40.77429 3.2451 13.6 43.4)"/><circle r="1" fill="#d09c76" fill-opacity=".4" transform="matrix(-.34676 -5.82702 79.67472 -4.74131 216.3 101.6)"/><ellipse cx="204" cy="112" fill="#bc7040" fill-opacity=".6" rx="91" ry="5"/><path fill="#ffd07c" fill-opacity=".4" d="M119.9 29.8l8.2-13.3-22.4 17.1-4.7 13.6z"/><path fill="#c6baa2" fill-opacity=".6" d="M72 75l-25 5 64 49z"/><path fill="#e6ab7f" fill-opacity=".4" d="M130.9 85.8l55.4 25.3L104 82.9l13.2-8.3z"/><path fill="#f9dca6" fill-opacity=".4" d="M94.9 14.8L100-1.1l6.1-13.4-10.4 74.7z"/><path fill="#b44500" fill-opacity=".3" d="M104.7 101l-4.5 5.3-23-19.3 4.6-5.3z"/><path fill="#f7c59c" fill-opacity=".5" d="M122 96l-32-9 24 15z"/><path fill="#0b0a0a" fill-opacity=".4" d="M122 70h55v12h-55z"/><path fill="#636559" fill-opacity=".5" d="M53 29h41v3H53z"/><circle cx="121" cy="91" r="3" fill="#360000" fill-opacity=".6"/><path fill="#bb8b6e" fill-opacity=".5" d="M227.6 85.6l19-16.2-3.6-10.8-27.1 10.8z"/><path fill="#5d8a9c" fill-opacity=".6" d="M220.1 215.4l-5 .2-3.2-93 5-.2z"/><path fill="#626f6b" fill-opacity=".7" d="M-9.5 28.4v-3l63 2.2v3z"/><path fill="#fc7842" fill-opacity=".3" d="M249 45l22-25v94z"/><path fill="#000d14" fill-opacity=".5" d="M225.2 87.3l-8.6 5.1-11.8-19.7 8.6-5.1z"/><path fill="#ca6e3d" fill-opacity=".5" d="M86.7 70.3l-3.8-1.5 10.4-27 3.8 1.4z"/></g></svg>