<svg xmlns="http://www.w3.org/2000/svg" viewBox="0 0 300 199"><defs/><path fill="#51462d" d="M0 0h300v199H0z"/><g transform="translate(.6 .6) scale(1.17188)"><circle r="1" fill="#fef8fa" fill-opacity=".6" transform="matrix(-116.43793 -33.2833 16.31108 -57.0625 168 155.6)"/><circle r="1" fill="#917956" fill-opacity=".7" transform="matrix(-12.35414 28.36562 -68.95218 -30.03088 131.4 79.7)"/><ellipse cx="93" cy="102" fill="#f0d3cb" fill-opacity=".5" rx="33" ry="29"/><circle r="1" fill-opacity=".4" transform="rotate(148.8 94.4 50.8) scale(89.36271 20.25941)"/><ellipse cx="208" cy="141" fill="#e0dfe3" fill-opacity=".7" rx="68" ry="30"/><circle r="1" fill="#69742c" fill-opacity=".6" transform="rotate(78.4 43.6 166.2) scale(19.26709 71.5565)"/><circle r="1" fill="#ffeae3" fill-opacity=".6" transform="matrix(-19.49063 12.13185 -4.98339 -8.00615 127.6 63.1)"/><ellipse cx="80" cy="153" fill="#211915" fill-opacity=".5" rx="7" ry="36"/><ellipse cx="136" cy="105" fill="#281e00" fill-opacity=".6" rx="10" ry="17"/><path fill="#f6eded" fill-opacity=".6" d="M57.5 165.9l-4.3-14.4 37.3-11.4 4.3 14.4z"/><circle r="1" fill="#e3ac9f" fill-opacity=".7" transform="rotate(-112.4 62 4) scale(25.89581 8.68179)"/><circle r="1" fill="#1a0f09" fill-opacity=".7" transform="matrix(36.96682 23.69136 -19.2262 29.9996 231.6 27.4)"/><ellipse cx="16" cy="138" fill="#41231e" fill-opacity=".6" rx="39" ry="154"/><ellipse cx="241" cy="106" fill="#000100" fill-opacity=".5" rx="73" ry="5"/><path fill="#d7b096" fill-opacity=".8" d="M145.5 62.3l-38.3-9.1-1.7-5.4 25.1-3.8z"/><path fill="#130a02" fill-opacity=".7" d="M91.2 141.3l-5-4.5-14.2 7.3 6-19.7z"/><path fill="#151617" fill-opacity=".5" d="M84.8 185L-16 166.7l79.9-3 25.5-9.1z"/><path fill="#d6d6d9" fill-opacity=".9" d="M96 151h94v19H96z"/><circle r="1" fill="#97a054" fill-opacity=".4" transform="matrix(-44.4446 10.1975 -2.54977 -11.11285 212.7 89.6)"/><path fill="#390501" fill-opacity=".4" d="M56.1 37.4l23-18.2 23.4 71.2 3.2-53.5z"/><ellipse cx="187" cy="129" fill="#d5cdca" fill-opacity=".7" rx="57" ry="19"/><path fill="#020a0c" fill-opacity=".5" d="M268 75l-42 34 44 15z"/><path fill="#ded6d7" fill-opacity=".6" d="M76 89l-12 70-8-51z"/><circle r="1" fill="#4c3b32" transform="matrix(19.3168 12.07048 -12.56277 20.10464 33.7 119)"/><path fill="#d0c6c4" fill-opacity=".7" d="M93.1 153.6l-39.2-23.8-.7 28.4 3.8 6.6z"/><circle cx="49" cy="72" r="23" fill="#492515" fill-opacity=".6"/><circle r="1" fill="#7d4f47" fill-opacity=".5" transform="matrix(-14.75093 -18.81256 25.80921 -20.237 72.8 0)"/><path fill="#211a15" fill-opacity=".6" d="M147 36h26v35h-26z"/><path fill="#af4821" fill-opacity=".4" d="M137 135l1 18-30-21z"/><path fill="#a17459" fill-opacity=".4" d="M183 111h51v7h-51z"/><path fill="#dee0e1" fill-opacity=".5" d="M81 107h45v24H81z"/><circle r="1" fill="#dee1e4" fill-opacity=".7" transform="matrix(62.3843 5.95764 -1.29663 13.57743 229 135.5)"/><path fill="#343111" fill-opacity=".5" d="M179 108l-50-3 3 13z"/><path fill="#503321" d="M101.4 58.7l16.9-3.1L97 78.5l-7.5-59.9z"/><ellipse cx="142" cy="23" fill="#572725" fill-opacity=".4" rx="63" ry="24"/><path fill="#b66128" fill-opacity=".2" d="M65.2 79.7l14.7 16.6 42.9 15.6-20.2-32.2z"/><path fill="#eeac93" fill-opacity=".5" d="M95 60l-5-11-16 30z"/><path fill="#343314" fill-opacity=".5" d="M271 57.1L107.1 85.9l32.6-17 86.4-28.8z"/><circle r="1" fill="#dfc4b9" fill-opacity=".5" transform="rotate(-23.9 225.5 -256.5) scale(19.29923 6.93253)"/><path fill="#55311e" fill-opacity=".6" d="M73 49l-50 58-27-86z"/><circle r="1" fill="#261d17" fill-opacity=".5" transform="matrix(-14.17553 -.94154 2.54335 -38.29196 2.4 146)"/><path fill="#24272e" fill-opacity=".6" d="M140 41h106v10H140z"/><path fill="#6b6d2d" fill-opacity=".5" d="M178.6 106.8l-40.3 7.8-6.9-35.4 40.3-7.8z"/><path fill="#e0b5b1" fill-opacity=".5" d="M76 73l-9-17 13 1z"/><path fill="#c1b5b1" fill-opacity=".6" d="M240.5 185l-48.8-38-57.3-24.9 22.9 17.3z"/><path fill="#f2e7e2" fill-opacity=".5" d="M120.3 106.5l-8.6-17 8-4 8.6 17z"/><path fill="#3f3719" d="M118.2 83.4l15.6-10.5.5 33.4-11.8-19.9z"/><path fill="#d2c1bb" fill-opacity=".7" d="M52.3 145.5l37.1 13.2 45.2-4.4-19.8-16.8z"/><ellipse cx="60" cy="143" fill="#d7d0d1" fill-opacity=".7" rx="6" ry="23"/><path fill="#ddd8d7" fill-opacity=".5" d="M97.4 101.9l-5.3 13L60.6 102l5.3-13z"/><path fill="#767033" fill-opacity=".3" d="M177 64h39v42h-39z"/><ellipse cx="50" cy="3" fill="#753e2a" fill-opacity=".5" rx="12" ry="49"/><path fill="#472b19" fill-opacity=".5" d="M84 83L22 48l18 36z"/><path fill="#180a03" fill-opacity=".7" d="M219.5 33.2l-24.9 8.3L269.3-16l-6.2 67.8z"/><path fill="#ccb3ab" fill-opacity=".4" d="M183 109h24v8h-24z"/><path fill="#040200" fill-opacity=".4" d="M92.3 137.7l-5.1 1.5-12.8 1.8 2.5-15.2z"/><path fill="#5a4a41" fill-opacity=".7" d="M100.7 6.5L112.8 47l-34-27.4-12.7-33.9z"/><path fill="#422017" fill-opacity=".3" d="M126.4 38.5L92.2-15.3l51.7 14.2-79 59.1z"/><path fill="#4b3225" fill-opacity=".8" d="M53.5 42.2L42.6 143l20.6-48.5 10.1-25.2z"/><path fill="#251b16" fill-opacity=".6" d="M48.3 142.5L21.9 185l37.3-8.5-12.8-47.8z"/><path fill="#e8ab89" fill-opacity=".4" d="M107.3 55.5l31.2-7.2-23.8-1.2-15.9-5.5z"/><path fill="#ac9586" fill-opacity=".6" d="M81.4 107.8l.5 15.3-5.7-1.9 6.6-29.4z"/><path fill="#181a12" fill-opacity=".6" d="M201 107l55 7 15-19z"/><circle r="1" fill="#d3d6da" fill-opacity=".7" transform="rotate(-61.9 257 -120.7) scale(14.73259 48.51068)"/><path fill="#231a05" fill-opacity=".7" d="M226.4 49.1l-78.8 11.4L130.5 75l76.9-19z"/></g></svg>