<svg xmlns="http://www.w3.org/2000/svg" viewBox="0 0 299 449"><defs/><path fill="#7e5046" d="M0 0h299v449H0z"/><g transform="translate(.9 .9) scale(1.7539)"><ellipse cx="157" cy="78" fill="#dbebee" fill-opacity=".7" rx="170" ry="255"/><circle r="1" fill="#121005" fill-opacity=".6" transform="matrix(-11.28835 -36.46676 18.0736 -5.59471 166.6 88.2)"/><path fill="#160b06" fill-opacity=".7" d="M91.2 29.9l15 29.4-13.4 6.8-15-29.4z"/><circle r="1" fill="#f3f7f7" fill-opacity=".9" transform="rotate(-15.4 956.2 32.8) scale(19.90776 14.51996)"/><circle cy="111" r="78" fill="#fff" fill-opacity=".4"/><path fill="#3c4533" fill-opacity=".6" d="M0 191h42v51H0z"/><circle r="1" fill="#797c77" fill-opacity=".4" transform="rotate(89.8 61.3 84.5) scale(57.69726 34.39025)"/><circle cx="98" cy="185" r="54" fill="#d6d2d5" fill-opacity=".8"/><path fill="#956c59" fill-opacity=".7" d="M84.1 64.6l-11.9-25 37 31.3L90 99.2z"/><path fill="#e0dee2" fill-opacity=".9" d="M78.9 201.6l-37.7 21.8-14.6-17.6 11.2-2.3z"/><ellipse cx="126" cy="118" fill="#d6d6d9" fill-opacity=".7" rx="26" ry="39"/><circle r="1" fill="#ac6448" fill-opacity=".5" transform="matrix(-5.68636 -3.9077 16.32986 -23.76271 73 138.3)"/><path fill="#151b14" fill-opacity=".5" d="M186 148l-12-81-34-11z"/><path fill="#f0eff2" fill-opacity=".7" d="M0 161h83v27H0z"/><path fill="#08130a" fill-opacity=".4" d="M-16 228.3l73.1-6.6-4.4 6.5-54.2 13.9z"/><path fill="#6d3025" fill-opacity=".5" d="M44 88h18v8H44z"/><path fill="#112817" fill-opacity=".5" d="M36 188h10v17H36z"/><path fill="#76544f" fill-opacity=".5" d="M88 178h6v40h-6z"/><circle r="1" fill="#b1b4b4" fill-opacity=".6" transform="matrix(-47.28396 -28.7491 8.04831 -13.23715 107.4 27.3)"/><circle r="1" fill="#d3d4d4" fill-opacity=".6" transform="matrix(-18.09515 15.98213 -42.90667 -48.57942 38.5 44.2)"/><path fill="#0b1917" fill-opacity=".6" d="M9 247l-25 16 37-60z"/><ellipse cx="68" cy="236" fill="#b8b3ae" fill-opacity=".8" rx="34" ry="12"/><circle cy="201" r="16" fill="#95725d" fill-opacity=".7"/><path fill="#79746c" d="M154.7 118.8l31.3 9.6-18.8-13.3-16.6-20z"/><path fill="#c1c0b9" fill-opacity=".5" d="M151 49L86 72l31-35z"/><path fill="#070000" fill-opacity=".4" d="M84 35h13v25H84z"/><path fill="#d9dadb" fill-opacity=".7" d="M136.4 238.8l2.3-75.1-38.5 14.6 7.6 77z"/><path fill="#2f2d24" fill-opacity=".6" d="M25.2 201.4l3.7 11.4-18 5.8L7 207.2z"/><circle r="1" fill="#e7e5ec" fill-opacity=".7" transform="matrix(10.38318 13.42406 -17.2939 13.3764 65 191.2)"/><circle r="1" fill="#737f80" fill-opacity=".3" transform="matrix(-3.07781 16.39068 -93.69668 -17.5942 149.9 1.7)"/><path fill="#f2f5f5" fill-opacity=".7" d="M21 239l35 23-72 7z"/><path fill="#a38a7a" fill-opacity=".8" d="M31.1 209.4l15.5 20.4L12 216.3l17.2-2.7z"/><path fill="#eaebeb" fill-opacity=".6" d="M-12.6 69.2L59 178.7 32.2 193-16 182.7z"/><path fill="#b9bab9" fill-opacity=".6" d="M118.9 31.4L20.9-16l129.4 90.9-5.1 31z"/><path fill="#552724" fill-opacity=".2" d="M114.2 83.8L104 60.1 86.6 146l3.3-80.8z"/><ellipse cx="163" cy="182" fill="#b4b9ba" fill-opacity=".6" rx="26" ry="65"/><circle cx="127" cy="69" r="4" fill="#670a00" fill-opacity=".5"/><path fill="#c2d0d6" fill-opacity=".6" d="M10 239.2l6-1.2 2 10.8-5.8 1.2z"/><path fill="#d9947c" fill-opacity=".3" d="M185 64l-36 17 37-68z"/><path fill="#e0cfc7" fill-opacity=".6" d="M-11.5 215l21-34 13.6 21-25-24.8z"/><path fill="#dbdadf" fill-opacity=".9" d="M9.6 138.9l72-48.4 8 22.9 4.2-1.6z"/><circle cx="51" cy="224" r="4" fill="#14140e" fill-opacity=".5"/><path fill="#dadae2" fill-opacity=".8" d="M119.7 71.4l31.7 31 5.6 29.1-35-20.2z"/><path fill="#04130a" fill-opacity=".5" d="M148 81h23v11h-23z"/><path fill="#1a1817" fill-opacity=".8" d="M104.4 48.6l-6.7 9-18.8-20.2 6.8-1.1z"/><path fill="#8b6b59" fill-opacity=".7" d="M114.7 87.4l-7.2-16.9-34.9-32.8 6.9.1z"/><path fill="#bbb7b6" fill-opacity=".5" d="M76.3 245.5l5.7-40.6 25.7 3.6-5.7 40.6z"/><ellipse cx="117" cy="135" fill="#bfbfbc" fill-opacity=".5" rx="15" ry="27"/><path fill="#895748" fill-opacity=".6" d="M75 141l10-25h9z"/><path fill="#fdfbfa" fill-opacity=".6" d="M24.3 252l1.4-13 10 1-1.4 13z"/><path fill="#e7e6eb" fill-opacity=".5" d="M33 204h18v16H33z"/><path fill="#611607" fill-opacity=".2" d="M45.9 85.6l4.4 8.8 18.4 4.2 9.2-1.1z"/><path fill="#2e372c" fill-opacity=".6" d="M34.5 238.8l-11.8-10.9-6.8-16.2-29 26z"/><circle cx="15" cy="204" r="3" fill="#eaece9" fill-opacity=".5"/><path fill="#231e1b" fill-opacity=".6" d="M165.7 116.8L186 82.4l-32.5 32.4L162 75z"/><path fill="#263d31" fill-opacity=".5" d="M139 62l7-7 8 13z"/><path fill="#a28c80" d="M54.3 224l5.7 9.4-4.3 2.6-5.7-9.4z"/><path fill="#ebe0d5" fill-opacity=".2" d="M96.6 59.4L54.5 91 103 68.6l50.4-13z"/><path fill="#1c1c10" fill-opacity=".6" d="M42 230l-7-10-5 4z"/><path fill="#20382b" fill-opacity=".5" d="M45 190l-28 15 25-5z"/><path fill="#dbdcd4" fill-opacity=".5" d="M28.4 232.9l7-.8 13.8 4.5-4.2 3.3z"/><path fill="#f6bb8e" fill-opacity=".4" d="M18 213l12 8-5 5z"/><path fill="#40523c" fill-opacity=".4" d="M34 186l-4 9H7z"/><path fill="#e2e1e4" fill-opacity=".4" d="M33 197L-16 57l83 47z"/><path fill="#d5c7c6" fill-opacity=".5" d="M61 148l-8-39 28 9z"/></g></svg>