<svg xmlns="http://www.w3.org/2000/svg" viewBox="0 0 300 199"><defs/><path fill="#404040" d="M0 0h300v199H0z"/><g transform="translate(.6 .6) scale(1.17188)"><circle r="1" fill="#e4e4e4" fill-opacity=".7" transform="matrix(127.63475 10.49532 -5.70394 69.36625 170 61.5)"/><circle r="1" fill="#fff" fill-opacity=".6" transform="matrix(27.94613 3.39506 -9.37007 77.12883 133.9 98.7)"/><ellipse cx="89" cy="81" fill="#585858" rx="20" ry="46"/><ellipse cx="198" cy="69" fill="#fff" fill-opacity=".8" rx="24" ry="46"/><circle r="1" fill="#383838" fill-opacity=".6" transform="matrix(-1.39283 -17.79774 66.28308 -5.18723 181.2 10.1)"/><circle r="1" fill-opacity=".8" transform="matrix(-26.10315 -109.56954 23.49718 -5.59782 9.4 94.2)"/><path fill="#fff" fill-opacity=".3" d="M38 119h94v51H38z"/><ellipse cx="228" cy="88" fill-opacity=".6" rx="6" ry="75"/><circle r="1" fill="#464646" fill-opacity=".8" transform="matrix(-60.40895 6.61003 -2.61144 -23.86591 189.1 141)"/><path fill="#fff" fill-opacity=".6" d="M239.3 126.7L231.8 20l39-2.7 7.4 106.7z"/><ellipse cx="168" cy="64" fill="#555" rx="6" ry="158"/><circle r="1" fill="#9c9c9c" fill-opacity=".7" transform="matrix(5.4107 -11.0156 38.69829 19.008 50.5 17)"/><path fill="#bebebe" fill-opacity=".5" d="M37.7 34.4L39.5 79 22.7 63.3l-11.5-7.5z"/><circle r="1" fill-opacity=".4" transform="matrix(-5.63344 9.4878 -41.77421 -24.80371 65.6 115.3)"/><ellipse cx="246" cy="143" fill-opacity=".6" rx="37" ry="19"/><circle cx="133" cy="61" r="27" fill="#fff" fill-opacity=".7"/><path fill="#fff" fill-opacity=".5" d="M176 87h49v28h-49z"/><path fill="#f4f4f4" fill-opacity=".4" d="M70 136l-26-19 10 68z"/><path fill="#767676" fill-opacity=".9" d="M30.8 81.7l44.5-26.2 36.6 85.1-44.2-44.2z"/><circle r="1" fill="gray" fill-opacity=".5" transform="rotate(98 26.7 144.7) scale(14.17298 40.26338)"/><circle r="1" fill="#fbfbfb" fill-opacity=".6" transform="matrix(1.03137 -9.0522 17.78297 2.02611 62.2 53.7)"/><path fill-opacity=".5" d="M76 40h26v21H76z"/><circle r="1" fill="#fff" fill-opacity=".6" transform="matrix(-22.09318 -13.8334 8.87652 -14.1766 144.1 106.3)"/><ellipse cx="232" cy="127" fill="#292929" fill-opacity=".7" rx="6" ry="56"/><path fill="#e5e5e5" fill-opacity=".6" d="M239.5 122.8L271 12.2l-82.5 5.7L258.4 5z"/><path fill="#787878" fill-opacity=".4" d="M119 70l-64 54 57 4z"/><path fill="#f1f1f1" fill-opacity=".5" d="M220.8 27.3l-87.7.4 29-6.7 38.1 92.3z"/><path fill="#070707" fill-opacity=".5" d="M76 11.5l-1.3-4.8L120-5.5l1.2 4.8z"/><circle r="1" fill-opacity=".5" transform="matrix(-25.6711 -2.71828 6.03012 -56.94768 17.8 123.6)"/><path fill="#050505" fill-opacity=".9" d="M-10.5 25.8l40 15.2V26.8L6 2.7z"/><path fill="#090909" fill-opacity=".4" d="M221 3h11v58h-11z"/><ellipse cx="163" cy="18" fill="#454545" fill-opacity=".8" rx="3" ry="63"/><path fill="#eee" fill-opacity=".5" d="M51.9 22.6l-27.5-.5 11.1-1.8 141-28.2z"/><path fill-opacity=".5" d="M28 106l35 19 11-40z"/><path fill="#fff" fill-opacity=".5" d="M131 185l1-81-28-7z"/><path fill="#a0a0a0" fill-opacity=".8" d="M45.1 83.3l37.1-27.1-20.5 33.4-4.8 7.3z"/><path fill="#484848" d="M135 185h122.3l.1-19.1-123.3-18.5z"/><path fill="#030303" fill-opacity=".5" d="M168 116h56v8h-56z"/><path fill="#838383" fill-opacity=".7" d="M116.1 8.6l71.8 12.5L29.8 38.7l7.5-8z"/><path fill="#434343" fill-opacity=".7" d="M240-22.7L244.8 8 152 22.7 147.2-8z"/><path fill="#e9e9e9" fill-opacity=".8" d="M44.3 79.9l5.3-38.1 35.2-4-24.7 9.4z"/><circle r="1" fill="#1e1e1e" fill-opacity=".5" transform="rotate(-135.3 63.2 23.7) scale(17.5844 6.49499)"/><path fill="#fff" fill-opacity=".5" d="M120 36h41v78h-41z"/><ellipse cx="42" cy="157" fill-opacity=".7" rx="2" ry="34"/><path fill="#272727" fill-opacity=".5" d="M72 123h8v47h-8z"/><path fill-opacity=".4" d="M133 126h100v2H133z"/><path fill="#f5f5f5" fill-opacity=".5" d="M48 72h29v6H48z"/><path fill-opacity=".3" d="M52.2 64.8l-10.6 54.5-2.9-39.8 49-16.1z"/><path fill="#090909" fill-opacity=".5" d="M39 22h5v49h-5z"/><ellipse cx="200" cy="124" fill="#fff" fill-opacity=".6" rx="85" ry="1"/><path fill="#fff" fill-opacity=".5" d="M68 114h6v9h-6z"/><circle r="1" fill="#cdcdcd" fill-opacity=".6" transform="matrix(.30893 1.79006 -90.33045 15.58931 181.9 20.4)"/><path fill="#555" fill-opacity=".7" d="M26.5 9.2l41.8-21.7L175.2-16 53.5 16.9z"/><ellipse cx="248" cy="96" fill="#fff" fill-opacity=".5" rx="12" ry="29"/><path fill="#2b2b2b" fill-opacity=".5" d="M164 45h8v80h-8z"/><path fill="#1b1b1b" fill-opacity=".8" d="M80.6 38.5l25.7 39.6-6.4-37.6-4.7-3.7z"/><path fill="#828282" fill-opacity=".9" d="M-7.3-16l-8 27.3L28.6-8.1l9.1 40.9z"/><path fill="#5e5e5e" fill-opacity=".6" d="M120.4 95.2L73.6 40.8l42.2 39-36.1 15.8z"/><path fill="#0f0f0f" fill-opacity=".5" d="M116.9 135.8l-53.6-3.3-14.7-36.7 13.3 28.3z"/><path fill="#fbfbfb" fill-opacity=".6" d="M178 78h46v32h-46z"/><path fill="#a0a0a0" fill-opacity=".5" d="M179 93h45v3h-45z"/><path fill="#0b0b0b" fill-opacity=".6" d="M271 151.7l-79.6 13.1 20.6-11.1-1.1-26.6z"/><path fill="#a9a9a9" fill-opacity=".5" d="M155.9 33.2L97.2 45.7l-1-5 58.6-12.4z"/><path fill="#3d3d3d" fill-opacity=".5" d="M61 43h2v24h-2z"/><path fill="#f6f6f6" fill-opacity=".3" d="M212.5 159.2L188.7 185l37.5-16.8 16.6 16.8z"/></g></svg>