<svg xmlns="http://www.w3.org/2000/svg" viewBox="0 0 300 199"><defs/><path fill="#424242" d="M0 0h300v199H0z"/><g transform="translate(.6 .6) scale(1.17188)"><ellipse cx="228" cy="31" fill="#e6e6e6" fill-opacity=".5" rx="121" ry="62"/><ellipse cx="179" cy="113" fill="#1a1a1a" fill-opacity=".8" rx="22" ry="88"/><circle r="1" fill="#e4e4e4" fill-opacity=".6" transform="matrix(-27.57934 -48.93051 18.9042 -10.65522 230 50.9)"/><path fill="#ebebeb" fill-opacity=".7" d="M89.4 173.3l-12.3-32.1 8.3-26.4 8.9 26z"/><path fill="#c3c3c3" fill-opacity=".9" d="M-16-11.3l7.3.8L34.1 1.2-4.3 31.7z"/><circle r="1" fill-opacity=".5" transform="rotate(-117.3 51.6 50.4) scale(105.43059 30.92968)"/><path fill="#fff" fill-opacity=".4" d="M47 7h17v53H47z"/><path fill="#d2d2d2" fill-opacity=".7" d="M210.7 105.3l39.6-70.2-55.7 67.1-.4 24.2z"/><path fill="#eee" fill-opacity=".5" d="M251.5 151.9l-6.4 5 13.1-31.5-39.9-12.9z"/><path fill="#171717" fill-opacity=".6" d="M100 54h41v116h-41z"/><ellipse cx="151" cy="56" fill="#fefefe" fill-opacity=".5" rx="8" ry="61"/><circle r="1" fill="#070707" fill-opacity=".6" transform="matrix(-47.70738 -17.08172 12.8258 -35.82106 182.5 158.5)"/><path fill="#fdfdfd" fill-opacity=".5" d="M54.1 94.7l8.6 23.9 34.8-16-31.7.5z"/><circle r="1" fill="#050505" fill-opacity=".6" transform="matrix(-12.21929 -3.69394 4.95654 -16.39587 255 19.7)"/><ellipse cx="238" cy="105" fill-opacity=".7" rx="27" ry="9"/><path fill="#353535" fill-opacity=".4" d="M162 32l-11-48 64 44z"/><ellipse cx="79" fill-opacity=".6" rx="18" ry="31"/><path fill="#ababab" fill-opacity=".8" d="M115.2-10.4L93.9 22l50-38 9.2 107.6z"/><path fill="#fff" fill-opacity=".5" d="M132 181l-1-36-7 26z"/><path fill="#101010" fill-opacity=".7" d="M26.6 138.5l-2.4-9.7 125.2-31.3 2.4 9.7z"/><path fill="#b7b7b7" fill-opacity=".6" d="M35 64l37-11 7-25z"/><path fill="#373737" fill-opacity=".9" d="M117.9 47.6l4.6-63.6-1.4 18.3-8.7 6.4z"/><path fill="#fff" fill-opacity=".4" d="M151 75l22-36-17 6z"/><path fill="#a2a2a2" d="M163.5 54.1l-61-10.3-6.6-19.5-3.5 20.5z"/><path fill="#f8f8f8" fill-opacity=".6" d="M140 115.8l16.9-13.3 1.7 2.2-13.1 18.3z"/><circle r="1" fill="#222" transform="matrix(19.57802 5.4358 -6.22991 22.43818 175.8 84.3)"/><path fill="#d7d7d7" fill-opacity=".9" d="M243.5-9L231.7.4 223.1 12l12.7 28.7z"/><circle r="1" fill="#1b1b1b" fill-opacity=".5" transform="rotate(-9.7 484.4 -313.5) scale(87.34371 17.89046)"/><path fill="#fff" fill-opacity=".5" d="M94.1 98.2l1-.1 4.8 33.7-1 .1z"/><path fill="#6e6e6e" fill-opacity=".4" d="M105 64h20v35h-20z"/><path fill="#060606" fill-opacity=".6" d="M230 141l-65 44 48-83z"/><path fill="#fff" fill-opacity=".6" d="M89.9 98.8l-1 4.9-12.8-2.5 1-4.9z"/><circle r="1" fill="#151515" fill-opacity=".6" transform="matrix(8.36553 2.6457 -18.7534 59.29683 24 44.5)"/><path fill="#424242" fill-opacity=".5" d="M193 46h9v58h-9z"/><ellipse cx="111" cy="31" fill="#fff" fill-opacity=".5" rx="4" ry="17"/><ellipse cx="237" cy="155" fill-opacity=".6" rx="4" ry="24"/><path fill="#a4a4a4" fill-opacity=".5" d="M119.1 132.9l2.3-8.8-10.7-6.2 30.2 8.8z"/><circle cx="233" cy="64" r="28" fill="#d7d7d7" fill-opacity=".5"/><ellipse cx="163" cy="132" fill="#262626" fill-opacity=".7" rx="25" ry="19"/><path fill="#090909" d="M82.2 114.9l-28.1 13.2L75.8 185l1.1-44.7z"/><path fill="#383838" fill-opacity=".5" d="M81 102l-23-6 2-73z"/><circle r="1" fill-opacity=".5" transform="rotate(39.2 -31.4 383.8) scale(22.0725 8.53648)"/><path fill="#bdbdbd" fill-opacity=".6" d="M92 44h3v28h-3z"/><circle cx="108" cy="162" r="19" fill-opacity=".4"/><path fill="#545454" fill-opacity=".6" d="M166 45l43-25-49-2z"/><path fill="#bababa" fill-opacity=".7" d="M9.2 185l13.1-25.8-2 12.7-36.3-11.4z"/><path fill="#2d2d2d" fill-opacity=".5" d="M132.9 15.6l-19.7 67.9 7.7 1.2 17.2-80.5z"/><path fill="#b7b7b7" fill-opacity=".6" d="M140.6 84.5l18.8 37.1-2.1-20-15.7-29.4z"/><path fill="#c9c9c9" fill-opacity=".5" d="M42 9h22v16H42z"/><path fill="#cbcbcb" fill-opacity=".6" d="M271 106.7l-88.3-83.5L207.8-16l-21 52.8z"/><path fill="#7d7d7d" fill-opacity=".9" d="M17 33.7L7 20.3 19.1 7.1l3.1 2.8z"/><path fill="#e8e8e8" fill-opacity=".2" d="M266.2 125.6l-44.1-11.5-9.5 15.5 33.9 4.7z"/><path fill="#fdfdfd" fill-opacity=".5" d="M79 153l4-28 13 19z"/><path fill="#9c9c9c" fill-opacity=".5" d="M253 158l-8-30-6 44z"/><path fill-opacity=".6" d="M19 146l-2 19-33-40z"/><circle r="1" fill="#989898" fill-opacity=".5" transform="rotate(-176.3 117.8 76.4) scale(1.93331 45.87268)"/><path fill="#1f1f1f" fill-opacity=".8" d="M122 75.9l-7.3-38.7 17.1 51.1-76.2-25.5z"/><path fill="#e0e0e0" fill-opacity=".4" d="M153 83l-12-99 27 60z"/><path fill="#d3d3d3" fill-opacity=".5" d="M63 69h7v9h-7z"/><path fill="#1f1f1f" fill-opacity=".6" d="M162 20h7v22h-7z"/><path fill="#cecece" fill-opacity=".6" d="M242 24l4-3V11z"/><path fill="#fefefe" fill-opacity=".3" d="M104.1 10.9l29.2-14.3-13.9 67 2.3-68.5z"/><path fill="#fff" fill-opacity=".2" d="M1.5 20.8l1.3 63L-16 9.5 29.2-.6z"/><path fill="#323232" fill-opacity=".4" d="M214-2l19-14-12 33z"/><path fill="#c3c3c3" fill-opacity=".6" d="M230.9 70l-33.8 56.8-2.5-2.8 16.5-63.1z"/></g></svg>