<svg xmlns="http://www.w3.org/2000/svg" viewBox="0 0 299 449"><defs/><path fill="#644d3b" d="M0 0h299v449H0z"/><g transform="translate(.9 .9) scale(1.7539)"><circle r="1" fill="#d8edf7" fill-opacity=".6" transform="matrix(-37.28285 -11.75712 25.53054 -80.95956 78 132)"/><circle r="1" fill="#a8abac" fill-opacity=".9" transform="matrix(-25.14209 -16.85726 13.56337 -20.22935 117.4 178.7)"/><path fill="#100401" fill-opacity=".9" d="M0 271l-16-69 202 49z"/><circle r="1" fill="#a099a1" fill-opacity=".8" transform="rotate(146.7 35.3 28.4) scale(32.67191 46.45512)"/><circle r="1" fill="#000111" fill-opacity=".8" transform="matrix(17.1123 59.96399 -21.85482 6.23685 25.5 52)"/><path fill="#250200" fill-opacity=".8" d="M158.9-4.8L188.2 61l-31 13.8L127.7 9z"/><path fill="#0e0000" fill-opacity=".6" d="M-16 249l44-38L15 70z"/><circle r="1" fill="#edf6e3" fill-opacity=".6" transform="matrix(-9.7762 51.24862 -16.47004 -3.14183 58.4 140.7)"/><circle r="1" fill="#090104" fill-opacity=".8" transform="matrix(-18.78685 -14.4355 25.5245 -33.21844 161.5 243.5)"/><circle r="1" fill="#627082" fill-opacity=".6" transform="rotate(-16.6 522.6 -389.7) scale(13.59717 68.53461)"/><path fill="#515a6c" fill-opacity=".5" d="M70 170h42v64H70z"/><circle cx="43" cy="210" r="16" fill="#5c4b38" fill-opacity=".7"/><path fill="#fbffe7" fill-opacity=".6" d="M116.2 201.1l34.2-6.1-32.3-32.8-3.5 12.9z"/><path fill="#9a604c" d="M52.8-12.7L27.9 18.8l44.6 16.1-3.2-21.6z"/><path fill="#ffd476" fill-opacity=".8" d="M-13-9l-3 92 24-8z"/><circle r="1" fill="#c7c7a6" fill-opacity=".4" transform="rotate(-64.5 145.5 48.9) scale(41.78438 9.78239)"/><path fill="#d6e9ff" fill-opacity=".3" d="M35.6 27.2l3.1 12.1 37.5 25.8 7.3-25.6z"/><circle r="1" fill="#01081d" fill-opacity=".7" transform="matrix(8.22338 18.12833 -23.83114 10.81029 36.6 68)"/><circle r="1" fill="#22324a" fill-opacity=".5" transform="matrix(41.3702 -6.02023 2.31852 15.93255 152.4 212.2)"/><path fill="#999ba5" fill-opacity=".7" d="M71 181l56-21L97-9z"/><circle r="1" fill="#3d3f41" fill-opacity=".5" transform="matrix(-1.90375 -41.21144 16.2809 -.7521 127.5 66.7)"/><path fill="#f8c783" fill-opacity=".5" d="M30.1 124.4l-6.6-36-3.8-.2 2.5 25.3z"/><circle r="1" fill="#f87901" fill-opacity=".4" transform="matrix(-5.61285 -.50093 1.67662 -18.7862 127 250.7)"/><path fill="#edf0dc" fill-opacity=".5" d="M43 170l23 49L78 78z"/><path fill="#040000" fill-opacity=".4" d="M60.9 75.4l-43.5 87.5-9.8-30.5 60.2-51.1z"/><path fill="#6e7b85" fill-opacity=".5" d="M117.3 75.1L86-.4l47.4-6.1-11-9.5z"/><circle r="1" fill="#000001" fill-opacity=".5" transform="matrix(17.3928 .69537 -1.7015 42.55845 14 19.6)"/><ellipse cx="3" cy="138" fill="#5c3c1c" rx="6" ry="44"/><path fill="#6c5b45" fill-opacity=".5" d="M78 231l-57-69-1 45z"/><circle r="1" fill="#c6c5aa" fill-opacity=".9" transform="matrix(-3.4988 -17.6702 11.20758 -2.21916 40.9 167)"/><path fill="#2f373b" fill-opacity=".4" d="M194 211.6l-37.8 3.3L146 98.4l37.8-3.3z"/><ellipse cx="170" cy="37" fill="#2c0c00" rx="24" ry="35"/><path fill="#b5b9c7" fill-opacity=".5" d="M64 28h18v77H64z"/><path fill="#0b0000" fill-opacity=".8" d="M30.3 271l-44.1-17.8-2.2-68.6 31.9-2.4z"/><path fill="#0f0501" fill-opacity=".6" d="M19.9 86.2l-22.8 20.1 19.2 10.9 1.8 2.6z"/><path fill="#5e7e8a" fill-opacity=".4" d="M20.7 167.5l42.9-73L68 69.2l-3.7-9.8z"/><path fill="#38302f" fill-opacity=".5" d="M119.5 226.2l-1.3 11.9-59.7-6.3 1.3-11.9z"/><circle r="1" fill="#bebcc7" fill-opacity=".6" transform="matrix(-6.03288 0 0 -37.97987 100.8 127.4)"/><path fill="#6e7074" fill-opacity=".7" d="M120.4 209.6L77 173.9 64.6 223l10.3-15.5z"/><circle cx="139" cy="157" r="17" fill="#63686f" fill-opacity=".7"/><path fill="#00000c" fill-opacity=".6" d="M29 90h7v35h-7z"/><path fill="#fffff3" fill-opacity=".7" d="M73.3 103.6l-11.7 66-6.9-1.2 11.7-66z"/><path fill="#ffcc68" fill-opacity=".2" d="M-16 91l9-78 19 61z"/><path fill="#79828a" fill-opacity=".5" d="M100 57L77 9l10 110z"/><path fill="#b97259" fill-opacity=".9" d="M45.2-11.4l-1.7 44.3 17.8-1.4L46.9-9.2z"/><path fill="#564435" fill-opacity=".8" d="M117.8 35.3l7-51.3 48.1 20.5-29.1-1.1z"/><path fill="#857b67" fill-opacity=".6" d="M133.3 232.5l-25.5 7 3.8-10.4 23.7 2.9z"/><ellipse cx="66" cy="246" fill="#040000" fill-opacity=".5" rx="49" ry="19"/><path fill="#001b29" fill-opacity=".4" d="M44.2 15.3L38.7-16 67.3 7.6 18.2-16z"/><path fill="#0b0000" fill-opacity=".6" d="M149 271l-21-36 57-7z"/><circle r="1" fill="#5c3432" fill-opacity=".5" transform="rotate(7.1 -124.1 546) scale(5.6295 11.50882)"/><path fill="#636966" fill-opacity=".7" d="M153.4 71.7l30.7 68.9-8.5-43.1L186 78.4z"/><path fill="#f6be5f" fill-opacity=".2" d="M32.7 143.2L20.2 107l4.7-23.6.7 11.6z"/><path fill="#060e25" fill-opacity=".6" d="M33 127l24-49-41-39z"/><ellipse cx="13" cy="109" fill="#060200" fill-opacity=".5" rx="4" ry="75"/><path fill="#747a82" fill-opacity=".6" d="M121.5 90.3l4.7-1.7 22.3 61-4.7 1.8z"/><path fill="#63666e" fill-opacity=".5" d="M36.1 22l12.3 4.6 7 26.7-15.8-9.6z"/><circle r="1" fill="#a09ca1" fill-opacity=".3" transform="matrix(-12.85342 -14.42326 29.80959 -26.5651 89.5 161.7)"/><path fill="#6a5742" fill-opacity=".4" d="M42.8 223.2l-21.5-7.8-5.1-43.2 47 37.8z"/><path fill="#b0b7bf" fill-opacity=".4" d="M55.6 90.3l-18.1 32.1 45.6-60 2.1 60.4z"/><path fill="#a2e0ff" fill-opacity=".1" d="M77.7-8.5L59.9 7.3l13.5 18.3 36.2 31.3z"/><circle r="1" fill="#4d3f2f" fill-opacity=".5" transform="rotate(-106.4 108 -10.5) scale(81.32479 11.93023)"/><path fill="#010000" fill-opacity=".8" d="M27 77l1 13-15 1-1-13z"/><path fill="#03020d" fill-opacity=".7" d="M59.1 57.6L22.8 29-15.5-8.5 55.6 81z"/><path fill="#9b9171" fill-opacity=".4" d="M56 200l-24-4 1-24z"/></g></svg>