<svg xmlns="http://www.w3.org/2000/svg" viewBox="0 0 300 199"><defs/><path fill="#5a324e" d="M0 0h300v199H0z"/><g transform="translate(.6 .6) scale(1.17188)"><path fill="#adc5a7" fill-opacity=".6" d="M16 128L-16 0l287-6z"/><circle r="1" fill="#001c17" fill-opacity=".6" transform="rotate(79.7 13.8 158) scale(23.04697 82.55308)"/><circle r="1" fill="#63b0d4" fill-opacity=".5" transform="matrix(21.96945 40.29482 -9.75028 5.31603 210.4 81.7)"/><ellipse cx="112" cy="82" fill="#84807a" fill-opacity=".8" rx="40" ry="23"/><circle r="1" fill="#001200" fill-opacity=".6" transform="matrix(-14.56163 26.82762 -15.10346 -8.19793 239.8 58.2)"/><circle r="1" fill="#fff" fill-opacity=".4" transform="matrix(2.76257 -9.26685 52.3728 15.61301 14 52.8)"/><circle r="1" fill="#030b09" fill-opacity=".7" transform="matrix(2.47934 -28.80083 12.90047 1.11054 9.7 144.7)"/><circle r="1" fill="#3b2909" fill-opacity=".5" transform="matrix(-35.18282 9.1568 -2.06143 -7.92055 140.9 9.4)"/><circle r="1" fill="#023620" fill-opacity=".3" transform="matrix(55.53331 76.43504 -32.67224 23.73777 193.2 127.4)"/><path fill="#edf59c" fill-opacity=".4" d="M248.4 115.3l-6.6-41.5 19.8-3.1 6.6 41.5z"/><ellipse cx="152" cy="169" fill="#5c766b" fill-opacity=".5" rx="87" ry="24"/><path fill="#a7b1ae" fill-opacity=".9" d="M240.3 10l2.8 22.3-9.7 4.1-3.9-18.6z"/><circle r="1" fill="#97997e" fill-opacity=".5" transform="matrix(-15.7435 14.33848 -28.77829 -31.59824 21.4 98.7)"/><ellipse cx="208" cy="74" fill="#93c9f7" fill-opacity=".6" rx="8" ry="19"/><path fill="#001217" fill-opacity=".7" d="M61 102l13 33-30-1z"/><ellipse cx="119" cy="92" fill="#726a5f" fill-opacity=".9" rx="9" ry="30"/><path fill="#babfc2" fill-opacity=".6" d="M87 82l22.6-3.7 3.5 21.8-22.7 3.6z"/><circle r="1" fill="#161111" fill-opacity=".6" transform="matrix(25.16385 9.40838 -11.25714 30.10859 176.3 97.1)"/><path fill="#0f1b00" fill-opacity=".4" d="M211 50l35 72L224-9z"/><path fill="#be9bc5" fill-opacity=".4" d="M156 97l-16 1-3-49z"/><circle r="1" fill="#575349" fill-opacity=".5" transform="rotate(-86.5 60.5 -17.6) scale(17.74067 20.3793)"/><path fill="#250a06" fill-opacity=".7" d="M32.9 111.8l3.2 8.6 10.7 2-7.2-15.3z"/><circle r="1" fill="#b2c4bf" fill-opacity=".4" transform="rotate(45 -133.2 221) scale(23.32423 6.10517)"/><path fill="#a2d8ba" fill-opacity=".3" d="M53.1 151.5l-14.5 4-7.7-29 14.5-4z"/><path fill="#c7c7cc" fill-opacity=".5" d="M49 117L28 81l36 16z"/><path fill="#274568" fill-opacity=".6" d="M196 128l72 8-65-46z"/><path fill="#fff" fill-opacity=".5" d="M127 32l15-14 7 11z"/><ellipse cx="99" cy="124" fill="#0d0f12" fill-opacity=".8" rx="9" ry="23"/><ellipse cx="79" cy="132" fill="#565142" fill-opacity=".8" rx="9" ry="52"/><path fill="#0a1516" fill-opacity=".6" d="M243 11h13v65h-13z"/><path fill="#87b3d3" fill-opacity=".6" d="M210.9 69.5l-29.5-5.2 1.7-9.8 29.5 5.2z"/><circle cx="158" cy="126" r="30" fill="#1d0e10" fill-opacity=".4"/><path fill="#46453c" fill-opacity=".8" d="M147.2 54.5L224.6 31l-64.2 39.3-26.1-7.3z"/><ellipse cx="131" cy="44" fill="#e6e6d7" fill-opacity=".5" rx="25" ry="3"/><path fill="#264139" fill-opacity=".5" d="M15 196l-6.9-43.4L101 138l6.9 43.5z"/><path fill="#180000" fill-opacity=".5" d="M51.5 76.8l2.5-8.6 10.5 3-2.5 8.6z"/><path fill="#573d19" fill-opacity=".3" d="M122 95.3L59.1 50.5l16.2-3.9 1.4.1z"/><path fill="#edecd6" fill-opacity=".5" d="M164 41l22-14 4-15z"/><path fill="#1a1e0f" fill-opacity=".5" d="M99-16h23L70 23z"/><path fill="#b8a982" fill-opacity=".7" d="M251 105h5v22h-5z"/><path fill="#1b1e18" fill-opacity=".6" d="M207 113l64 35-57-10z"/><path fill="#eaecdb" fill-opacity=".5" d="M111 45.6L96.2 21.9l-6 5.3 6.2 13.2z"/><circle r="1" fill="#96a4b0" fill-opacity=".5" transform="matrix(57.02913 -5.10938 1.36086 15.18942 39.6 0)"/><path fill="#cbd4da" fill-opacity=".5" d="M86.7 79.5l-26.4-9.6 14 2.6L48 90.9z"/><path fill="#65624d" fill-opacity=".6" d="M231.9 21.7l-9.7 13.4 30 51.6-11.5-11.6z"/><path fill="#757060" fill-opacity=".5" d="M169 40l67-50-38 71z"/><path fill="#c3c6cc" fill-opacity=".6" d="M-16 23v34l92 13z"/><circle cx="15" cy="114" r="6" fill="#000010" fill-opacity=".4"/><path fill="#0b1b23" fill-opacity=".5" d="M54 106l25 49-8-52z"/><path fill="#2f5580" fill-opacity=".6" d="M204 90l-5 33 17 31z"/><path fill="#887757" fill-opacity=".5" d="M77.2 92l-6.7-10-.9 51.6 24.8-22.8z"/><path fill="#e1c79d" fill-opacity=".6" d="M222-3.2l18-6 4 12.4-18 6z"/><path fill="#979893" fill-opacity=".9" d="M180.3-16l37.9 32.2-56-15.7-58.2 2z"/><path fill="#342a37" d="M7 115l-23 15.8 40.7-7.8-.1 35.2z"/><path fill="#c5c4b6" fill-opacity=".8" d="M179.2 36.2l-37.8 11.2L183.3 26l-13.1 13.1z"/><path fill="#7ba4ca" fill-opacity=".8" d="M207 59l10.2 6.7 6.2 24.1-15.4-.2z"/><path fill="#061301" fill-opacity=".2" d="M203.2 41.6l39.1 78.2 14 11.3-34.7-102.2z"/><ellipse cx="154" cy="9" fill="#4a3926" fill-opacity=".4" rx="24" ry="8"/><ellipse cx="66" cy="141" fill="#b9c7bb" fill-opacity=".6" rx="2" ry="6"/><path fill="#949a99" fill-opacity=".6" d="M100.3 149.1l12.9-7 9.6 4.7-14.6 10.1z"/><path fill="#f5f6f7" fill-opacity=".2" d="M70.7 67.7l2.4 18.9-36.6-12.7 6.9 38.6z"/><path fill="#341c06" fill-opacity=".2" d="M102.2 76.3l31.9-23-6.4 10.6L144 80.3z"/><path fill="#0b070d" fill-opacity=".6" d="M215.4 88.5l-26.8 34.2-4.1-48.5 25 29.9z"/><path fill="#110002" fill-opacity=".5" d="M97.7 74L90 75.8 88.3 68l7.8-1.6z"/><path fill="#19171a" fill-opacity=".8" d="M86.6 150.3l26.4-46.4 1.6 16.7 12.9 17.3z"/></g></svg>