<svg xmlns="http://www.w3.org/2000/svg" viewBox="0 0 300 199"><defs/><path fill="#4e4740" d="M0 0h300v199H0z"/><g transform="translate(.6 .6) scale(1.17188)"><circle cx="201" r="122" fill="#f6f7ec" fill-opacity=".7"/><ellipse cx="147" cy="106" fill="#a1927b" fill-opacity=".7" rx="59" ry="57"/><ellipse cx="78" cy="155" fill="#020000" fill-opacity=".6" rx="58" ry="43"/><circle r="1" fill="#001104" fill-opacity=".6" transform="matrix(41.61187 7.0761 -5.3228 31.30137 42.3 71)"/><ellipse cx="141" fill="#e6ebf0" fill-opacity=".6" rx="78" ry="43"/><path fill="#d7cfc3" fill-opacity=".5" d="M177 185L112 70 79 88z"/><circle r="1" fill="#251f12" fill-opacity=".4" transform="matrix(-26.9657 20.24642 -26.55113 -35.3628 207.5 138.2)"/><path fill="#fffffe" fill-opacity=".3" d="M150-14l62 157 33-41z"/><circle r="1" fill="#f3e8c6" fill-opacity=".4" transform="matrix(13.46772 -18.06833 9.84518 7.33837 24.4 126)"/><path fill-opacity=".5" d="M83 61h39v15H83z"/><path fill="#b6a996" fill-opacity=".8" d="M120 180.9l32.3-36.4 33.3 11.8-32.3 27.8z"/><path fill="#d1e0df" fill-opacity=".6" d="M52 11.8l-11.5 5.7-10.2-31.6L56.2-16z"/><path fill="#948061" fill-opacity=".5" d="M247 115l-47 32-6-61z"/><path fill="#25463a" fill-opacity=".4" d="M25 19h70v44H25z"/><circle r="1" fill="#060300" fill-opacity=".6" transform="matrix(-7.2664 -9.30057 35.25647 -27.54537 203 160.2)"/><path fill="#426141" fill-opacity=".6" d="M215.9 13.8l-4.2-12.3L256-13.8l4.2 12.3z"/><circle r="1" fill="#f1f4f3" fill-opacity=".7" transform="matrix(-13.58958 -5.93714 11.1011 -25.40943 197.8 59.3)"/><circle r="1" fill="#cbc1ab" fill-opacity=".6" transform="rotate(154.1 55.7 60.5) scale(50.73296 19.73793)"/><circle r="1" fill="#5f4532" fill-opacity=".7" transform="matrix(16.77103 -6.55351 7.61372 19.48418 117.5 138.5)"/><circle r="1" fill="#070a03" fill-opacity=".5" transform="matrix(-18.3627 4.57834 -15.8836 -63.70567 62.9 117.9)"/><circle r="1" fill="#ecf9ff" fill-opacity=".5" transform="matrix(9.04144 2.17298 -1.76727 7.35331 2.6 90.7)"/><path fill="#495254" fill-opacity=".5" d="M256 58.3l16.7 12.6-18.6 24.8-16.8-12.6z"/><path fill="#b9d6e4" fill-opacity=".5" d="M8 29l19-12-43 2z"/><path fill="#5d513f" fill-opacity=".9" d="M134.2 113.6l16 26.4 3.9-30.8-14.7-5z"/><path fill="#0c120c" fill-opacity=".8" d="M-16 104.1l82.6-.9-45.8-25.9-27.1 84.2z"/><path fill="#28241c" fill-opacity=".6" d="M176 98.4l19.6 2.9-23.7 38.8 28 44.9z"/><path fill="#fdfae2" fill-opacity=".4" d="M186.1 125.3L145 59.8l2.3-69.1 26.8 125z"/><path fill="#4d4e43" fill-opacity=".5" d="M242 52l-9-5 16-23z"/><circle r="1" fill="#fbfcfc" fill-opacity=".6" transform="rotate(-149 124.9 16.1) scale(41.24532 7.23388)"/><path fill="#1d221f" fill-opacity=".4" d="M91 103.2L48.9 58l58.7-7.5-20.9-10.7z"/><circle r="1" fill="#add4c4" fill-opacity=".3" transform="rotate(55.1 -16.7 65.8) scale(7.04459 11.86452)"/><path fill="#1c1c1d" fill-opacity=".4" d="M81.3 131.5l26.4-23 19 22-26.4 23z"/><path fill="#96829e" fill-opacity=".6" d="M86 30l-22-3 38-19z"/><path fill="#887b66" d="M203.6 148.1l-4.6-3.8-17-25.5 58.6-7.4z"/><path fill="#9a6e18" fill-opacity=".4" d="M163 54l13 52 4-48z"/><path fill="#9781ac" fill-opacity=".5" d="M73 15l-31 1L75 2z"/><path fill="#1e1709" fill-opacity=".5" d="M142 48l4 9-14 18z"/><circle r="1" fill="#897a62" fill-opacity=".5" transform="matrix(5.41885 1.13306 -9.81477 46.9391 4.6 155.3)"/><path fill="#3a3c3f" fill-opacity=".9" d="M217 163.1l54 21.9-36.4-63.5 33.1-14.5z"/><path fill="#322e24" fill-opacity=".5" d="M131.2 149.7l21.5 35.3-9.1-23.6-9.8-22.2z"/><path fill="#080718" fill-opacity=".5" d="M74 62l-31 8 23-59z"/><circle r="1" fill="#e7edf0" fill-opacity=".5" transform="rotate(-71.2 82.2 -62.2) scale(29.92734 8.28123)"/><path fill="#1a1a17" fill-opacity=".7" d="M120.6 67l-134.3 52.7 133.9-61.6 5.7 16.8z"/><path fill="#e9dcd5" fill-opacity=".5" d="M111 153h16v4h-16z"/><circle r="1" fill="#c0bcb3" fill-opacity=".5" transform="matrix(3.92025 -15.49267 24.10118 6.09854 114.6 90.3)"/><path fill="#bde0f7" fill-opacity=".2" d="M16.4 13.8L-8.2-16 53 16.1 46-16z"/><ellipse cx="216" cy="38" fill="#c5cecb" fill-opacity=".4" rx="17" ry="40"/><path fill="#9b917b" fill-opacity=".5" d="M124.1 80.1l-46.3 6.4 44.8-20.6 38.5 2.6z"/><circle r="1" fill="#4e4437" fill-opacity=".5" transform="rotate(136.3 70.9 92) scale(8.55551 17.2367)"/><path fill="#0b2121" fill-opacity=".5" d="M29 8h14v35H29z"/><ellipse cx="231" cy="2" fill="#002100" fill-opacity=".2" rx="8" ry="24"/><ellipse cx="177" cy="38" fill="#98885b" fill-opacity=".5" rx="16" ry="3"/><path fill="#c2bcaf" d="M124 77.7l31.7 32-.3 10.5 14.6-4.6z"/><path fill="#e0e5e4" fill-opacity=".7" d="M121-13l90 25-75 40z"/><path fill="#cae7dc" fill-opacity=".5" d="M41 35h15v5H41z"/><path fill="#fffdeb" fill-opacity=".3" d="M45.9 116.3l-27.4-6.2 11.2-5.3-7.3 21.1z"/><path fill="#c7c6bf" fill-opacity=".7" d="M109.9-1.5L84.8-16l-15 37 10.9 5z"/><path fill="#617a67" fill-opacity=".5" d="M-2.3 25.7l25.6 2.9-39.3 8.2 74.4 14.6z"/><path fill="#000d2b" fill-opacity=".5" d="M-2-2.6l18.4 13.5L-16 27.6 3.7 88z"/><path fill="#c4b293" fill-opacity=".5" d="M158 71l51 46-4-27z"/><circle r="1" fill="#bbd7c7" fill-opacity=".5" transform="rotate(34.5 -74 40.2) scale(5.74777 2.07541)"/><path fill="#021422" fill-opacity=".2" d="M201.3 60.9l11.4 9.5 26.8 19.4 31.5.8z"/><path fill="#222223" fill-opacity=".8" d="M4.6 172.7l16 12.3 9.8-57.2 47.3-25.1z"/><path fill="#c1b590" fill-opacity=".7" d="M135.9 79.5l1.2-36.3-11.6-2.4-8.5 16.9z"/><path fill="#de7111" fill-opacity=".5" d="M123.7 154l-4-3 8.6-11 4 3z"/></g></svg>