<svg xmlns="http://www.w3.org/2000/svg" viewBox="0 0 300 199"><defs/><path fill="#2b3549" d="M0 0h300v199H0z"/><g transform="translate(.6 .6) scale(1.17188)"><circle cx="131" cy="44" r="191" fill="#d4d9de" fill-opacity=".6"/><circle r="1" fill="#010001" fill-opacity=".9" transform="matrix(-45.07046 3.38887 -4.6592 -61.96545 146.3 124.5)"/><circle r="1" fill="#fffbff" fill-opacity=".4" transform="matrix(242.87942 -56.16284 14.62026 63.22617 179.4 5.8)"/><circle r="1" fill-opacity=".8" transform="matrix(36.94384 -15.41553 5.8044 13.91043 80.9 127.1)"/><circle r="1" fill="#9ee9ff" fill-opacity=".6" transform="rotate(61.4 -1.2 257.3) scale(51.79674 32.69765)"/><ellipse cx="46" cy="169" fill="#e5f1ff" fill-opacity=".7" rx="64" ry="22"/><circle r="1" fill="#29100e" fill-opacity=".5" transform="matrix(34.6191 16.21677 -8.16538 17.43122 152.5 73.4)"/><circle r="1" fill="#ebf4ff" fill-opacity=".5" transform="matrix(-90.19748 33.72345 -5.09752 -13.63393 15.1 120.3)"/><circle r="1" fill="#000616" fill-opacity=".6" transform="matrix(1.91589 5.79516 -41.40043 13.68704 196.8 84.8)"/><path fill="#05080d" fill-opacity=".8" d="M111.8 179L98.6 95.3l81.3-9.4 25.3 99.1z"/><circle r="1" fill="#f6feff" fill-opacity=".6" transform="matrix(-10.46922 -4.88313 9.49768 -20.36262 94.4 154.3)"/><circle r="1" fill="#dce7f7" fill-opacity=".6" transform="matrix(-3.56185 25.11193 -35.0836 -4.97623 132.2 21.5)"/><circle cx="148" cy="61" r="18" fill="#7c5449" fill-opacity=".9"/><ellipse cx="43" cy="122" fill="#001b36" fill-opacity=".7" rx="19" ry="3"/><path fill="#cf8ea3" fill-opacity=".9" d="M268.6 74l-30 13.9L215.5 38l30-13.9z"/><circle r="1" fill="#68b4d8" fill-opacity=".9" transform="matrix(19.6759 -5.75837 8.36283 28.57511 234.5 109.7)"/><circle r="1" fill="#e9f0fa" fill-opacity=".6" transform="matrix(12.69411 55.87335 -10.34671 2.35072 209.7 160.4)"/><path fill="#010000" fill-opacity=".7" d="M153.3 108.4L46.6 156.7l4.6-1.8-3.7-35.2z"/><path fill="#e1edfc" fill-opacity=".6" d="M-19.8 95.2l25.5-5 14.1 72.6-25.5 5z"/><path fill="#1e0700" fill-opacity=".7" d="M127.3 58.1L110.8 94l23.7-12.1 13.6-20.2z"/><ellipse cx="31" cy="138" fill="#c67f76" fill-opacity=".7" rx="20" ry="11"/><path fill="#1d2332" fill-opacity=".9" d="M174.6 67.8L201.7 185 162 88.4l48.4.4z"/><path fill="#9adcff" fill-opacity=".6" d="M159 58l35 18 35-14z"/><ellipse cx="206" cy="12" fill="#ccdcf2" fill-opacity=".5" rx="33" ry="27"/><path fill="#dbe3ee" fill-opacity=".8" d="M-16 147.8l67-40.4-31.2-20.3 2.1 29.5z"/><circle r="1" fill="#dae2f1" fill-opacity=".7" transform="matrix(-13.3727 19.75138 -17.15745 -11.61647 86.8 163.2)"/><path fill="#3c302c" fill-opacity=".4" d="M16.3 85.7l2.3-4.4-4.7 37.1 9 1.3z"/><path fill="#807775" fill-opacity=".6" d="M246 47l-3-39 19-24z"/><ellipse cx="73" cy="46" fill="#c6cedd" fill-opacity=".4" rx="44" ry="66"/><path fill="#998f8d" fill-opacity=".5" d="M61.6 98L-34 88l2.3-22L64 76z"/><ellipse cx="47" cy="121" fill="#635055" fill-opacity=".7" rx="2" ry="26"/><path fill="#dba191" fill-opacity=".5" d="M141 81l26-17-9-7z"/><path fill="#9bd9f2" fill-opacity=".5" d="M187 92h33v29h-33z"/><path fill="#1d0000" fill-opacity=".4" d="M30 138l-12-8v16z"/><path fill="#d8e0ec" fill-opacity=".7" d="M108.7 130l-3.1 8.7 1.5 33.9-38.5-22.2z"/><path fill="#0096cc" fill-opacity=".5" d="M232.3 109.1l15-.2.4 24-15 .2z"/><path fill="#1b2135" fill-opacity=".5" d="M198 150l-25-84-12 119z"/><circle cx="227" cy="40" r="9" fill="#fd0021" fill-opacity=".3"/><path fill="#e6e6f2" fill-opacity=".5" d="M200 154h54v16h-54z"/><circle r="1" fill-opacity=".5" transform="rotate(166.2 59.3 88) scale(29.36058 55.2257)"/><circle r="1" fill="#a1a2c5" fill-opacity=".6" transform="matrix(16.58427 19.49945 -16.40044 13.94857 255 84.8)"/><path fill="#e4d4d7" fill-opacity=".4" d="M29.2 147.3l39.7 24-21-25.1-22.4-28.4z"/><path fill-opacity=".5" d="M86 108l67 77 17-114z"/><path fill="#f4ffff" fill-opacity=".5" d="M43 121l10-16 43-3z"/><ellipse cx="211" cy="78" fill="#02050b" fill-opacity=".4" rx="20" ry="4"/><path fill="#cdecfd" fill-opacity=".5" d="M0 0h26v19H0z"/><path fill="#dfc8d2" fill-opacity=".5" d="M138.7 61.5L119 36.3l2.3-1.8L141 59.7z"/><path fill="#4bd1fc" fill-opacity=".5" d="M166 68l17-2-12-21z"/><path fill="#979aa6" fill-opacity=".8" d="M19.4 30.7L14.8-4.1l-1.1 46.3 3 34.9z"/><path fill="#c7cde0" fill-opacity=".5" d="M183 10l52 54-49 11z"/><path fill="#52acc7" fill-opacity=".6" d="M112.9 76.4l-29.7 34.7 13.6-6.4 6.1-7.1z"/><circle r="1" fill="#9b9ea5" fill-opacity=".6" transform="rotate(-101.9 58 -24.4) scale(45.29687 4.10411)"/><path fill="#1c2433" fill-opacity=".9" d="M177.1 127.9l-13.8-64 17.8 13.3 8.7 10z"/><path fill="#e3dfeb" fill-opacity=".5" d="M120.6 76.5L105.9 1.6l-8.8 27.6 13 51.8z"/><path fill="#462d22" d="M121.4 66.3l27.8-10.2-7 6.8-21.9-8.9z"/><path fill="#d7e3f0" fill-opacity=".7" d="M144 21.5l16.2-12.1 7.7 31.2 2.6 18.8z"/><path fill="#1d120e" fill-opacity=".5" d="M132 53l21-10 9 5z"/><path fill="#c7c1cc" fill-opacity=".9" d="M131.2-16l-9.1 69.4L154 42.8l-18.4-18.5z"/><path fill="#d4e3f5" fill-opacity=".7" d="M226.8 27l15.2 6.9-2.5-25.7-10.3-12.9z"/><ellipse cx="44" cy="6" fill="#def1ff" fill-opacity=".5" rx="4" ry="65"/><path fill="#9193a0" fill-opacity=".4" d="M43 41L30-16l-6 62z"/><path fill="#b37e6f" fill-opacity=".6" d="M139.8 76.7l6.9 9.8 7-39.6 5.1 13.4z"/><path fill="#6c635f" fill-opacity=".5" d="M42 89h5v13h-5z"/><ellipse cx="4" cy="58" fill="#888995" fill-opacity=".5" rx="4" ry="33"/><path fill="#daeefd" fill-opacity=".5" d="M91.4 106.3l-43.1-6.7L61 88.1 57.1 119z"/></g></svg>