<svg xmlns="http://www.w3.org/2000/svg" viewBox="0 0 300 199"><defs/><path fill="#563426" d="M0 0h300v199H0z"/><g transform="translate(.6 .6) scale(1.17188)"><circle r="1" fill="#c9e7ef" fill-opacity=".5" transform="matrix(52.93933 -16.14725 6.4874 21.26916 124.9 144.1)"/><circle r="1" fill="#fcf2d1" fill-opacity=".5" transform="matrix(-27.8066 -18.47466 14.817 -22.30137 187.2 21.7)"/><ellipse cx="235" cy="132" fill="#000a0f" fill-opacity=".7" rx="52" ry="87"/><path fill="#c2c1b4" fill-opacity=".5" d="M93 45h39v52H93z"/><circle r="1" fill="#ccbf98" fill-opacity=".5" transform="rotate(-86.3 51.3 -9) scale(12.87622 25.20104)"/><ellipse cx="44" cy="142" fill="#a5adb0" fill-opacity=".6" rx="6" ry="25"/><ellipse cx="35" cy="78" fill="#8d5d35" fill-opacity=".6" rx="86" ry="17"/><ellipse cx="157" cy="167" fill-opacity=".6" rx="6" ry="38"/><path fill="#eee8c4" fill-opacity=".5" d="M168.3 62.9l25.3 8.4 10.2-3.2 1.4-9.5z"/><path fill="#100d0b" fill-opacity=".7" d="M-16 3l5 71 85-90z"/><ellipse cx="159" cy="83" fill="#021119" fill-opacity=".6" rx="24" ry="25"/><circle r="1" fill="#abe4f4" fill-opacity=".5" transform="matrix(-5.49225 -2.20983 5.7363 -14.25684 171.5 145.8)"/><path fill="#827268" fill-opacity=".5" d="M144 128l-57-17 97-4z"/><path fill="#fff1d7" fill-opacity=".6" d="M146.7 26.1l-2.6-15.6-5.1 7.6 2.9 14.1z"/><circle r="1" fill="#c7c7cc" fill-opacity=".6" transform="matrix(43.57467 -27.22848 5.77073 9.2351 105.4 157.2)"/><circle r="1" fill="#0d0b05" fill-opacity=".6" transform="matrix(26.06959 39.0897 -20.67306 13.78722 251.2 17)"/><path fill="#00000c" fill-opacity=".6" d="M131.7 183.8l-15.5-15.5 14-14.1 15.6 15.5z"/><ellipse cx="215" cy="25" fill="#c7bba6" fill-opacity=".7" rx="11" ry="10"/><circle r="1" fill="#000a14" fill-opacity=".5" transform="matrix(-9.28317 2.46983 -8.90009 -33.45207 28.1 147.5)"/><path fill="#86725d" fill-opacity=".6" d="M41 141l76 4 45-33z"/><path fill="#d3dfea" fill-opacity=".5" d="M152.8 160.8l-21 .4-.6-30 21-.4z"/><path fill="#c4b29a" fill-opacity=".8" d="M106.1 50.2L89.9 59 87 66.4l54.7 6.1z"/><path fill="#232425" fill-opacity=".9" d="M74.6 185l-26.8-7.1-1.6-28.1 26.4-8.2z"/><path fill="#ecfbff" fill-opacity=".5" d="M123.5-16L105 7.3l56-15 5.7 17.2z"/><path fill="#d0f9ff" fill-opacity=".5" d="M176 143l-26-35 15 6z"/><path fill="#e9efe8" fill-opacity=".3" d="M93 86h13v30H93z"/><path fill="#fffbf2" fill-opacity=".4" d="M180.7 42.1L207.2-16l-12.6 44.3-38.5-2z"/><path fill="#6f4732" fill-opacity=".7" d="M162.8 11.8L195.3-16l-43.6 55.5-14.5-48.1z"/><path fill="#00151f" fill-opacity=".3" d="M51.6 149.2l115.2-61.5-46.6 3.9-8.6-1.4z"/><path fill="#463935" fill-opacity=".9" d="M130.5 91l12.8 38.4h14.8l-16.7-17.3z"/><path fill="#fdcb78" fill-opacity=".7" d="M101.6 27.5l.8 8-10 1-.8-8z"/><path fill="#e6ffff" fill-opacity=".6" d="M16 161l-6 3 7-19z"/><path fill="#d2e9ff" fill-opacity=".6" d="M132.4 83.5l-6.1 12.4-8.3-11.1-.3-3.2z"/><path fill="#302521" fill-opacity=".8" d="M186.7 91l61.5-88.9-66.4 137.2-25.6-39.2z"/><path fill="#1a1615" fill-opacity=".9" d="M170.4 153.8l3-4.8 97.6-17.4-88.4 53.4z"/><path fill="#281c18" fill-opacity=".6" d="M123.8 70.8l1.4 5.8-37 8.6-1.4-5.8z"/><path fill="#3a1c05" fill-opacity=".5" d="M103 33l12 15-31 8z"/><path fill="#40352e" fill-opacity=".5" d="M121.4 21.3l67.1 26.1 15.3-24.1-67.6 56.9z"/><path fill="#86502a" fill-opacity=".8" d="M40.9 42.2L-16 73.1 41.9 83l11.2-29.1z"/><path fill="#371e0e" fill-opacity=".5" d="M222-19.8l27 15-17 30.6-27-15z"/><path fill="#b9b9b6" fill-opacity=".4" d="M75.5 135.4l-45 1.3 89.4 15.5L73 185z"/><path fill="#cabca3" fill-opacity=".5" d="M174.2 51.5l.9-42.1 13.1 27.4 22.9 6.9z"/><path fill="#061212" fill-opacity=".4" d="M66 151.1L54.3 60.5l-2.7 75.1L75.5 120z"/><path fill="#fff" fill-opacity=".5" d="M127 51l1-8-12 3z"/><path fill="#2a1d17" fill-opacity=".6" d="M123 53h60v8h-60z"/><path fill="#c2b9aa" fill-opacity=".5" d="M63.6 58.7l-5-26.4 18.1-1.8L68 55.9z"/><path fill="#ffbb7e" fill-opacity=".2" d="M101 21.1l3-13.6 41 9.4-3.2 13.6z"/><circle r="1" fill="#0e0903" fill-opacity=".4" transform="matrix(-15.42218 8.37423 -11.22526 -20.67271 224.5 59)"/><path fill="#0e0c04" fill-opacity=".3" d="M121.3 126.9L-16 115.8l132.7 19 33.5-21.2z"/><path fill="#1a1a1a" fill-opacity=".6" d="M152 149l9-29 4 34z"/><circle cx="173" cy="141" r="8" fill="#a9d6e3" fill-opacity=".5"/><path fill="#6d2e00" fill-opacity=".4" d="M190.3 28.2l-11.3-.4 6.4-8.3 4.8-35.5z"/><path fill="#f5bf58" fill-opacity=".5" d="M52.2 19.5l-.7-3 26.3-6 .7 3z"/><path fill="#141416" d="M16.3 166.3l-32.3.4L49.9 185l-28.1-45.9z"/><path fill="#a06e42" fill-opacity=".7" d="M87.2 93.2l-3.4-16.9-3.9-6-32-2.7z"/><path fill="#a88370" fill-opacity=".8" d="M166.5 154.6l8.1 9.3 1.7 16.2-9-19.1z"/><path fill="#bfbcbf" fill-opacity=".8" d="M116.3 158l23.2-40.1-2.3 3.4 15.2 13z"/><path fill="#fffced" fill-opacity=".7" d="M204 8.7l-4 4-4-7.1 7.3-20.4z"/><path fill="#fef9c5" fill-opacity=".1" d="M209.8 94.9l-3.9-22.7 2-15.1-28.5 2.7z"/><path fill="#d0c0bf" fill-opacity=".4" d="M184 94.4l-.9-8 9-.8.8 8z"/><path fill="#001c34" fill-opacity=".3" d="M135.9 150.6l-22.3 8.4 84.7 26-66.2-27.2z"/><circle r="1" fill="#ae733f" fill-opacity=".4" transform="rotate(-68.7 69.8 47.7) scale(56.4661 7.76369)"/><path fill="#fbf5e9" fill-opacity=".6" d="M164-2l-8 4 9 13z"/><path fill="#54412c" fill-opacity=".5" d="M202.3 29.4l-17.9 22.9-4.7-3.7 17.9-22.9z"/><path fill="#cbbfae" fill-opacity=".8" d="M168.1 33.9l24.2 9.3-16.4-26.3-15.4 7.4z"/></g></svg>