<svg xmlns="http://www.w3.org/2000/svg" viewBox="0 0 300 199"><defs/><path fill="#624a3c" d="M0 0h300v199H0z"/><g transform="translate(.6 .6) scale(1.17188)"><circle r="1" fill="#d6e2e8" fill-opacity=".8" transform="rotate(-118.2 72.5 2.7) scale(82.48359 41.34687)"/><circle r="1" fill="#def9ff" fill-opacity=".8" transform="matrix(-29.35791 4.5369 -11.87247 -76.82575 0 24.5)"/><ellipse cx="60" cy="159" fill="#b5c1c2" fill-opacity=".5" rx="93" ry="27"/><circle r="1" fill="#1a0000" fill-opacity=".7" transform="matrix(-25.2063 -11.70038 12.6319 -27.21312 139 26)"/><circle r="1" fill="#26160d" fill-opacity=".9" transform="matrix(-36.43386 -4.61597 6.87937 -54.29885 228 51.1)"/><circle r="1" fill="#d1e8ff" fill-opacity=".6" transform="matrix(2.81681 -26.35755 20.39129 2.1792 154 80.8)"/><circle r="1" fill="#001a24" fill-opacity=".5" transform="matrix(2.421 52.62358 -18.77336 .86369 42 40.3)"/><ellipse cx="54" cy="136" fill="#462a15" fill-opacity=".7" rx="20" ry="24"/><circle r="1" fill="#e2f5f9" fill-opacity=".6" transform="rotate(-102 72 4.6) scale(44.00954 20.06989)"/><path fill="#eef7f1" fill-opacity=".6" d="M6 139.9l35.3 29.5-17.4 20.7-35.2-29.5z"/><circle r="1" fill="#c5d4c4" fill-opacity=".5" transform="matrix(6.5162 -1.60578 13.87887 56.32019 171.3 12.5)"/><circle cx="171" cy="142" r="36" fill="#111c2c" fill-opacity=".4"/><path fill="#fcfeff" fill-opacity=".6" d="M67.2 163.2l13-33.6 18.6 7.2-13 33.6z"/><path fill="#42180a" fill-opacity=".6" d="M107.1 127.7l-15.1-9 8.6 66.3 31.1-7.9z"/><path fill="#fff" fill-opacity=".6" d="M59.4 40.8l-.8-43 32-.6.8 43z"/><circle r="1" fill="#2f1701" fill-opacity=".7" transform="rotate(-152.5 134.5 56.7) scale(36.03496 24.70226)"/><path fill="#fff" fill-opacity=".7" d="M18-2.8l1 47-33 .6-1-47z"/><circle r="1" fill="#3a2b1d" transform="matrix(-5.30345 33.44054 -40.32448 -6.3952 223.4 18.4)"/><path fill="#7b8685" fill-opacity=".9" d="M11.4 147.7l27.1-75.6L19.2 9l14.3 136.9z"/><circle r="1" fill="#bd6c34" fill-opacity=".5" transform="rotate(41.3 -9 206.3) scale(13.51318 14.47574)"/><path fill-opacity=".7" d="M107-16h49l18 75z"/><circle r="1" fill="#87b8fe" fill-opacity=".3" transform="matrix(12.82805 -9.25188 17.4297 24.16687 134 145)"/><path fill="#030700" fill-opacity=".6" d="M.8 102.2l20.3 5.4-6 22.2-20.2-5.4z"/><ellipse cx="66" cy="122" fill="#190600" fill-opacity=".4" rx="13" ry="25"/><path fill="#a2d6e9" fill-opacity=".4" d="M207.6 121.1l50.3 24.6-3.5 7.2-50.3-24.6z"/><path fill="#9ea5a6" fill-opacity=".8" d="M95.9 89.9l14.2-30 4-75.9-21.2 63.4z"/><path fill="#c2a79d" fill-opacity=".7" d="M83 185l21-46-13-8z"/><ellipse cx="221" cy="74" fill="#030000" fill-opacity=".3" rx="55" ry="26"/><path fill="#e3e8ed" fill-opacity=".4" d="M75 65h87v51H75z"/><path fill="#cc9d7d" fill-opacity=".7" d="M119.4 61l9.9-11.9L146.7 61l-39.8 51.5z"/><path fill="#110600" fill-opacity=".5" d="M0 45h40v3H0z"/><path fill="#cbd6db" fill-opacity=".7" d="M-16 108.5l39.3-62.2-.4 15.5 6.5 33.9z"/><circle r="1" fill="#7d99a4" fill-opacity=".6" transform="matrix(4.752 -.70382 6.92839 46.77881 23.5 4.6)"/><ellipse cx="55" cy="69" fill="#404543" fill-opacity=".8" rx="7" ry="25"/><path fill="#91552e" fill-opacity=".4" d="M109.7 35.8L147.8 68 124.3 2.5 109-16z"/><path fill="#393816" fill-opacity=".6" d="M17 143l15 16 20-3z"/><path fill="#1f1a16" fill-opacity=".9" d="M31.5-16l3.4 94.5L54.2 94l-.1-17.9z"/><path fill="#5a5b6e" fill-opacity=".5" d="M130.9 185l6.8-34.6-14.4-17 47.6-31.2z"/><ellipse cx="37" cy="127" fill="#f7f1c5" fill-opacity=".1" rx="20" ry="28"/><path fill-opacity=".5" d="M55 2h2v39h-2z"/><path fill="#301807" fill-opacity=".5" d="M58.3 118l50.6 6.1-1.2 10-50.6-6.2z"/><path fill="#efffff" fill-opacity=".5" d="M57-2l33 15-26 71z"/><path fill="#d4fde5" fill-opacity=".3" d="M43.3 92.9l123.9-11-132.9 18.8-17 18.5z"/><path fill="#eaf3f6" fill-opacity=".7" d="M87 135l-18 12 16 17z"/><path fill="#c7e4ff" fill-opacity=".4" d="M123.6 87.9L109 135.3l19.4 30 3.9-1.7z"/><circle r="1" fill="#857d72" fill-opacity=".7" transform="rotate(17.4 23.3 309.2) scale(44.58369 1)"/><circle r="1" fill="#555a54" fill-opacity=".6" transform="matrix(-39.93807 .40717 -.16182 -15.87201 239.3 113.5)"/><path fill="#a1badb" fill-opacity=".4" d="M155.1 47l21.4 10.3-7.2 11.2-52.2 57.5z"/><circle r="1" fill="#6f8a95" fill-opacity=".5" transform="matrix(-2.55566 -33.21371 3.28088 -.25245 50.3 11.2)"/><path fill="#d0e9ff" fill-opacity=".5" d="M178.5 78l-16 29.8-38 23.1 24.1-27z"/><path fill="#352d29" fill-opacity=".6" d="M208 100l-68 59 37-75z"/><path fill="#fff" fill-opacity=".3" d="M131.1 98.5l-20.2-39.9L95 125.3l39.4-74.4z"/><path fill="#1c0604" fill-opacity=".5" d="M129.6 171.7l-21.7 12.5-11.5-20 21.7-12.4z"/><path fill="#675665" fill-opacity=".5" d="M108 97h6v29h-6z"/><path fill="#dadece" fill-opacity=".3" d="M177.9 34.8l2.7-40.7-18 4.2L191.5 94z"/><path fill="#525541" fill-opacity=".6" d="M37 44h57v2H37z"/><path fill="#ffffe8" fill-opacity=".3" d="M95.9-10L121 11.2 112 22 87 .8z"/><path fill="#1c2114" fill-opacity=".6" d="M2.2 103.7l-16.4 47.4 57.1-66 12.9 1.1z"/><path fill="#d8dbd3" fill-opacity=".5" d="M31 185l-32-40 10-14z"/><path fill="#a9aea5" d="M19.8 133.9l-3.7-10.8 16 2.7-23.9 33.3z"/><path fill="#f4ffff" fill-opacity=".4" d="M126.7 134.9l-58.8-28 25.4-18.8 15.8 31.1z"/><path fill="#533428" fill-opacity=".5" d="M156.8 28.4l-36.3 31.5-5.4 24.3 17.8-42.4z"/><path fill="#d7e2e2" fill-opacity=".6" d="M80.8 90.5l14.6-61.9-32.6 55.3 3.3 17.3z"/><path fill="#0e202e" fill-opacity=".6" d="M24.1 26.9l1-.2L34 89.1l-1 .2z"/><path fill="#1e210c" fill-opacity=".5" d="M74 96.3l2.9 1-9 24.4-2.8-1z"/></g></svg>