<svg xmlns="http://www.w3.org/2000/svg" viewBox="0 0 300 199"><defs/><path fill="#444" d="M0 0h300v199H0z"/><g transform="translate(.6 .6) scale(1.17188)"><path fill="#a8a8a8" fill-opacity=".7" d="M82 183L271 26 54 79z"/><circle cx="206" cy="161" r="81" fill="#030303" fill-opacity=".5"/><circle r="1" fill-opacity=".7" transform="matrix(38.7898 -7.83443 19.96156 98.83358 34 169)"/><path fill="#aeaeae" fill-opacity=".5" d="M184 126l5-116 82 10z"/><path fill="#ccc" fill-opacity=".6" d="M111 42L70 156l54 7z"/><path fill-opacity=".5" d="M53.7 65.2l35 .6-.4 19-35-.6z"/><circle r="1" fill="#4d4d4d" fill-opacity=".6" transform="matrix(-13.68981 -31.03896 14.77267 -6.51553 138.2 97)"/><path fill="#acacac" fill-opacity=".9" d="M149.9 59.9l78.5-60-78 68.9 67.2 6.9z"/><circle r="1" fill="#7d7d7d" fill-opacity=".8" transform="matrix(-33.69357 -24.77756 17.4882 -23.7812 255 37)"/><path fill="#f7f7f7" fill-opacity=".5" d="M17 9l19 11 8 26z"/><path fill="#fff" fill-opacity=".5" d="M89.3 67.8l17.6-7 7.8 19.4-17.6 7z"/><path fill="#040404" fill-opacity=".6" d="M269 68l-53 117 2-109z"/><circle r="1" fill="#1a1a1a" fill-opacity=".5" transform="matrix(12.08114 -11.69313 29.5827 30.56434 59.9 29.7)"/><path fill="#fff" fill-opacity=".4" d="M173 64h61v10h-61z"/><path fill-opacity=".5" d="M16 57.1l38.9 9.7-5.5-7.2L19 7.2z"/><path fill="#e6e6e6" fill-opacity=".2" d="M-16 23l35-4-5 64z"/><circle r="1" fill="#2f2f2f" fill-opacity=".5" transform="matrix(26.9885 41.17926 -8.37608 5.4896 203.8 11.4)"/><path fill="#fcfcfc" fill-opacity=".5" d="M204.5 86.8l-8.7 14.6-10.3-6.2 8.7-14.6z"/><path fill="#fdfdfd" fill-opacity=".5" d="M47 61h39v4H47z"/><path fill="#090909" fill-opacity=".6" d="M127 138h129v32H127z"/><path fill="#5f5f5f" fill-opacity=".5" d="M129 114h70v22h-70z"/><circle r="1" fill="#2d2d2d" fill-opacity=".7" transform="matrix(-2.7068 -23.6431 20.40832 -2.33646 43.5 83.1)"/><path fill="#5d5d5d" d="M107.8 28.7l31.6 33.5 22.8-30.7-55.7-4.3z"/><path fill="#484848" fill-opacity=".5" d="M227 90l-65-14 79-5z"/><ellipse cx="133" cy="64" fill="#fff" fill-opacity=".7" rx="21" ry="2"/><path fill="#fff" fill-opacity=".5" d="M55 66.6L32.4 29l2.6-1.5L57.6 65z"/><path fill="#fdfdfd" fill-opacity=".5" d="M193.3 61.1l-3.5-12.9L219 58.7l7.1 1.2z"/><path fill="#bababa" fill-opacity=".5" d="M36 84h26v4H36z"/><circle r="1" fill-opacity=".5" transform="matrix(10.85681 19.6825 -41.2177 22.73558 28.8 157.5)"/><path fill="#d4d4d4" fill-opacity=".5" d="M249.8 137l-3.8 1-5.8-19 3.8-1.2z"/><ellipse cx="103" cy="142" fill="#9d9d9d" fill-opacity=".4" rx="26" ry="36"/><path fill="#8c8c8c" fill-opacity=".8" d="M154.1 135.8l1.8-40.6-17.9-9.9 38.2-44.9z"/><path fill="#2a2a2a" fill-opacity=".5" d="M121 67h32v13h-32z"/><path fill="#e6e6e6" fill-opacity=".5" d="M122.6 103.4l.8.1 2.7-20.2 3.8 20.3z"/><path fill="#545454" fill-opacity=".6" d="M3.6 131l-17.1-5.6L-3.6 95l17.1 5.6z"/><path fill="#d0d0d0" fill-opacity=".6" d="M119 77l-36 56 24-84z"/><path fill="#020202" fill-opacity=".3" d="M135 89l37 18 14 67z"/><path fill="#474747" d="M234.3 68.3l-49.7 41.5 35.4-2.7-9.2-25.6z"/><circle cx="140" cy="111" r="6" fill="#ddd" fill-opacity=".5"/><path fill="#d1d1d1" fill-opacity=".5" d="M19 60h11v5H19z"/><ellipse cx="199" cy="62" fill="#474747" fill-opacity=".7" rx="28" ry="2"/><path fill="#191919" fill-opacity=".5" d="M55 43h44v19H55z"/><path fill="#363636" fill-opacity=".2" d="M80.6 154.4l-14.3 6.9L46.9 113l36.1-4.7z"/><path fill="#1c1c1c" fill-opacity=".5" d="M200 18l-36 22 5-23z"/><path fill="#cacaca" fill-opacity=".5" d="M61 91l15-8 4 28z"/><circle r="1" fill="#fbfbfb" fill-opacity=".3" transform="matrix(3.75823 6.53927 -4.85149 2.78824 27.3 15.4)"/><path fill="#5f5f5f" fill-opacity=".7" d="M113-16l95 34-80-5z"/><path fill-opacity=".5" d="M261.1 82l-1 96-24.4-114.1 6.3-.8z"/><path fill="#fefefe" fill-opacity=".2" d="M196.2 54.2L166 51.3l22-24.1L172.2 65z"/><path fill="#3e3e3e" fill-opacity=".6" d="M152 61l29-30-56 30z"/><path fill="#464646" fill-opacity=".6" d="M73 64l20 30-11 1z"/><circle r="1" fill="#272727" fill-opacity=".6" transform="matrix(50.6529 4.8157 -.65906 6.93219 89.6 19)"/><path fill="#0f0f0f" fill-opacity=".9" d="M240 106.2l5.5 29.4-28.6 49.4-20.4-63.6z"/><ellipse cx="191" cy="70" fill="#fefefe" fill-opacity=".5" rx="29" ry="4"/><path fill-opacity=".5" d="M128 100h7v11h-7z"/><circle r="1" fill="#939393" fill-opacity=".5" transform="matrix(-14.78764 7.79664 -13.76474 -26.10716 247.8 43.5)"/><path fill="#373737" fill-opacity=".6" d="M163.9 83.6l3.3-11.3 35.8 64.9-.1 17.9z"/><path fill-opacity=".3" d="M55.6 97.3l-7.5-8 26.3-24.6 7.5 8z"/><path fill="#060606" fill-opacity=".4" d="M147 91h6v71h-6z"/><circle r="1" fill="#878787" fill-opacity=".5" transform="rotate(90.4 3.2 134.7) scale(3.40129 13.56611)"/><path fill="#bdbdbd" fill-opacity=".5" d="M112 138.2l13.4-37.4-4 84.2-4.3-20.7z"/><path fill="#dbdbdb" fill-opacity=".5" d="M114.3 46.7L90.2 81l-2.5-1.8L111.8 45z"/><path fill="#a0a0a0" fill-opacity=".6" d="M156.5 97.8l14.2-.4L152 59.6l2.6 21.1z"/><path fill="#d8d8d8" fill-opacity=".6" d="M181 122h4v8h-4z"/><ellipse cx="175" cy="106" fill="#060606" fill-opacity=".5" rx="15" ry="7"/></g></svg>