<svg xmlns="http://www.w3.org/2000/svg" viewBox="0 0 300 199"><defs/><path fill="#323c49" d="M0 0h300v199H0z"/><g transform="translate(.6 .6) scale(1.17188)"><circle r="1" fill="#ebe7e8" fill-opacity=".8" transform="matrix(-211.49712 89.69062 -29.08211 -68.57777 75.2 54.8)"/><circle r="1" fill="#9a908e" fill-opacity=".7" transform="rotate(-154 85.3 56.1) scale(34.61095 118.82866)"/><circle r="1" fill="#fdebe0" fill-opacity=".4" transform="matrix(28.91637 -60.1521 23.3123 11.2067 255 126)"/><circle r="1" fill="#01020f" fill-opacity=".7" transform="matrix(30.76187 -7.01322 4.31357 18.92048 199 76)"/><ellipse cx="245" cy="42" fill="#c3c6c6" rx="37" ry="24"/><circle r="1" fill="#d8d4d5" transform="rotate(-154.8 78.9 27) scale(23.40471 36.08318)"/><circle r="1" fill-opacity=".5" transform="rotate(-9.9 794.4 -1120.8) scale(38.05745 14.80753)"/><path fill="#332523" fill-opacity=".5" d="M168 0h12v96h-12z"/><circle r="1" fill="#f3f7fa" fill-opacity=".5" transform="matrix(24.55715 18.97148 -37.82822 48.9658 75 51.4)"/><path fill="#15161c" fill-opacity=".5" d="M242.5-1l12 1-3 35-12-1z"/><path fill="#9e948d" fill-opacity=".6" d="M178 185l-86-70 97 20z"/><circle r="1" fill="#070000" fill-opacity=".5" transform="matrix(8.79374 10.66766 -56.18312 46.31379 50.1 169)"/><circle r="1" fill-opacity=".5" transform="rotate(-137.9 100.4 21.6) scale(4.7944 27.72099)"/><path fill="#e9f3ef" fill-opacity=".5" d="M183 0h58v55h-58z"/><path fill="#c9c1be" fill-opacity=".5" d="M271 156.2l-57.6-30.4-6 58.5 51.2-110.5z"/><path fill="#fff" fill-opacity=".6" d="M142 0h27v41h-27z"/><path fill="#fef0eb" fill-opacity=".4" d="M182.4 101.4l-41 46.8 35.5-57.3 55.7 17.6z"/><path fill="#826f61" fill-opacity=".5" d="M141.8 23l2.8 58.6-21.9-47.8-8.6-46.2z"/><circle r="1" fill="#735655" fill-opacity=".6" transform="matrix(8.34863 -6.1951 18.00286 24.26098 176.9 66.3)"/><circle r="1" fill="#020917" fill-opacity=".5" transform="matrix(16.23753 19.82 -14.03651 11.4994 211 75.7)"/><ellipse cx="36" fill="#c9c8cf" fill-opacity=".7" rx="52" ry="80"/><circle r="1" fill="#050100" fill-opacity=".6" transform="matrix(-44.19854 20.60319 -4.17694 -8.96048 12 169)"/><path fill="#00000a" fill-opacity=".5" d="M158.4 119.4l88.1-17.6-60.5 64.5 6.1-25z"/><ellipse cx="30" cy="90" fill="#fff" fill-opacity=".5" rx="65" ry="10"/><path fill="#e1e5e7" fill-opacity=".6" d="M220.5 29.2l-39.6 7.9L194 89.6l-14.8-22.9z"/><path fill="#e4c1be" fill-opacity=".5" d="M227 106.7l-12.1-9.8-17.3 2.8 13.2 5.3z"/><path fill="#101420" fill-opacity=".9" d="M193.2 58.3l6.3 33.7 41 18.1 2-38.2z"/><ellipse cx="210" cy="169" fill="#716e6c" fill-opacity=".8" rx="141" ry="8"/><path fill="#c3bdbc" fill-opacity=".5" d="M155 142l-32-40 63 39z"/><path fill="#000005" fill-opacity=".5" d="M221 24l-5-5-3 8z"/><path fill="#4e4841" fill-opacity=".5" d="M76 54h44v4H76z"/><path fill="#3d2921" fill-opacity=".6" d="M158.4 46.4l38.7 18-11.9-6.2-2.5-16.8z"/><path fill="#1c202c" fill-opacity=".6" d="M215.2 5.6l5-15.1 3.4.1-3 16.5z"/><path fill="#000918" fill-opacity=".6" d="M180 91.9L177 68l-27.8 48.5 6.2-1.9z"/><path fill="#6c6058" fill-opacity=".5" d="M90 79h23v8H90z"/><path fill="#fff" fill-opacity=".6" d="M93.9 76.5L97.5 58l18.6 3.6-3.6 18.6z"/><circle r="1" fill="#5e6a63" fill-opacity=".5" transform="matrix(-14.55068 8.4599 -1.9443 -3.34413 207.7 50.7)"/><path fill="#007752" fill-opacity=".5" d="M80 13h13v5H80z"/><path fill="#183641" fill-opacity=".4" d="M120 0h6v36h-6z"/><path fill="#080d1c" fill-opacity=".5" d="M240.8 120.7l-52.5-22.5 3.5-2.2-25.7 35z"/><path fill="#ecf3f5" fill-opacity=".7" d="M127 0h43v15h-43z"/><circle r="1" fill="#cac8c8" fill-opacity=".7" transform="rotate(-40.3 234.4 -177.4) scale(18.13282 5.46673)"/><path fill="#36373d" fill-opacity=".5" d="M90.7 128.6L44 145.8l56.9-6.9 11.7-30.8z"/><ellipse cx="151" cy="47" fill="#eff3f4" fill-opacity=".7" rx="7" ry="58"/><path fill="#c5beb2" fill-opacity=".3" d="M119.4 111.4l.6 23.8L66 185l66.2-86.1z"/><circle cx="242" cy="44" r="3" fill-opacity=".5"/><path fill="#e0e2e4" fill-opacity=".9" d="M193.7 7.7l-15.4 4.4 38.2 9.1 41.1-5.9z"/><path fill="#f6fdfc" fill-opacity=".5" d="M91 0h27v53H91z"/><path fill="#a4a0a1" fill-opacity=".8" d="M219.5 129.7l-11.8-2.1 33.3 22.6 22.9-18.2z"/><circle r="1" fill="#dfdbe0" fill-opacity=".5" transform="matrix(35.68206 1.3791 -.6646 17.1955 73.6 107.3)"/><path fill="#e7e1ca" fill-opacity=".4" d="M249 51l-53-6 65 31z"/><circle r="1" fill="#c2bdc0" fill-opacity=".6" transform="matrix(-13.93853 4.1956 -3.81687 -12.6803 255 99.5)"/><path fill="#e7e8eb" fill-opacity=".4" d="M130.4 35l9.4 13.8-96-9 1.8-36.9z"/><path fill="#4b1b00" fill-opacity=".3" d="M146 21.4l-.3 2.8-12.2-10.9-2.3 22.4z"/><path fill="#765f55" fill-opacity=".4" d="M122 111l-4 29 34 1z"/><path fill="#aea6a5" fill-opacity=".5" d="M226.3 75.6l4.6 7.7-5.2 3.1-4.6-7.7z"/><ellipse cx="4" cy="10" fill="#b8b5bb" fill-opacity=".5" rx="35" ry="78"/><path fill="#747274" fill-opacity=".8" d="M271 172.7L219.6 185l-12.5-40.8.2-4.8z"/><path fill="#0e111b" fill-opacity=".8" d="M239.2 117.8l-.1-29.1-31.4 37 23.6 3.9z"/><path fill="#0a0000" fill-opacity=".3" d="M251.1 64.1l-21.4 34.3L271 70.7 253.3 54z"/><path fill="#aba5a7" fill-opacity=".5" d="M173.9 135.7l17.8 2.8-1.6 9.8-17.8-2.8z"/><path fill="#060615" fill-opacity=".3" d="M192.1 97.2L184 70.6l-11.6 19L159 56.3z"/><path fill="#868d7c" fill-opacity=".6" d="M209 57.4l23.4-2.4-5.2 6.2L271 78.8z"/><path fill="#dbdadc" fill-opacity=".5" d="M187.7 99.6L175.5 114l-9.2-7.7L178.5 92z"/><path fill="#181516" fill-opacity=".5" d="M204.6 145.1l-26.5 11.5 6.3 8.7 26.3-8.5z"/></g></svg>