<svg xmlns="http://www.w3.org/2000/svg" viewBox="0 0 300 199"><defs/><path fill="#314b64" d="M0 0h300v199H0z"/><g transform="translate(.6 .6) scale(1.17188)"><circle r="1" fill="#001" fill-opacity=".8" transform="matrix(-63.74256 45.13225 -70.92384 -100.16933 53 123.1)"/><ellipse cx="178" fill="#d5b184" fill-opacity=".5" rx="67" ry="103"/><circle r="1" fill="#140b00" fill-opacity=".8" transform="matrix(110.8374 -38.8147 12.45287 35.5598 192 169.2)"/><circle r="1" fill="#fee5b1" fill-opacity=".3" transform="matrix(25.44362 1.68996 -1.6789 25.27695 145.4 118.3)"/><circle r="1" fill="#53412f" fill-opacity=".6" transform="matrix(78.21538 30.696 -13.66376 34.81613 235.4 85.7)"/><circle cx="46" cy="46" r="72" fill="#001847" fill-opacity=".7"/><circle r="1" fill="#dfd4bb" fill-opacity=".4" transform="rotate(104.2 77.2 69.7) scale(26.26108 61.08961)"/><ellipse cx="164" cy="92" fill="#67afc9" fill-opacity=".8" rx="17" ry="16"/><circle r="1" fill="#003e7f" fill-opacity=".6" transform="matrix(-35.83182 17.2447 -25.1872 -52.33515 55.8 9.7)"/><path fill="#2d1300" fill-opacity=".5" d="M169 16h13v65h-13z"/><circle cx="44" cy="169" r="86" fill-opacity=".6"/><ellipse cx="109" cy="65" fill="#150000" fill-opacity=".7" rx="12" ry="45"/><path fill="#ff815e" fill-opacity=".4" d="M127.8 89.4l25.5-57.3-5.1-25.3-37.9 78.5z"/><path fill-opacity=".6" d="M210 46h46v6h-46z"/><ellipse cx="182" cy="125" fill="#333533" rx="18" ry="11"/><circle r="1" fill="#22001b" fill-opacity=".6" transform="matrix(-17.10926 2.34665 -.86137 -6.28016 157 62.8)"/><path fill="#ebebe8" fill-opacity=".6" d="M197-15l25 28-21 15z"/><path fill="#000005" fill-opacity=".6" d="M-34.6 49.7l14-25.4 83.2 46-14 25.4z"/><circle r="1" fill="#544b3f" fill-opacity=".8" transform="matrix(11.90053 -28.17251 58.68457 24.78933 239.8 108.2)"/><path fill="#00dcff" fill-opacity=".6" d="M156.8 41.4l6.6 6.2-10.2 11-6.6-6.2z"/><path fill="#80563c" fill-opacity=".6" d="M271-5l-4 59-54-31z"/><circle r="1" fill-opacity=".8" transform="matrix(13.00737 -16.42494 26.40829 20.91346 224.1 154.5)"/><path fill="#e9eded" fill-opacity=".6" d="M197 66l-2-19-10 4z"/><path fill="#022c7d" fill-opacity=".5" d="M9 88h30v29H9z"/><path fill="#432922" fill-opacity=".5" d="M146 97l3-57-33 70z"/><ellipse cx="187" cy="129" fill="#bbccb2" fill-opacity=".2" rx="7" ry="85"/><ellipse cx="133" cy="142" fill="#373626" rx="7" ry="16"/><path fill="#e0e8e5" fill-opacity=".6" d="M235 10l14-6 22 6z"/><ellipse cx="240" cy="39" fill="#e2a97b" fill-opacity=".5" rx="45" ry="6"/><circle r="1" fill="#003a7c" fill-opacity=".5" transform="rotate(-171.6 45.7 33) scale(12.19074 38.8666)"/><path fill="#0e0c0a" d="M209.5 159.9L271 74.2v13.7L236.8 128z"/><path fill-opacity=".5" d="M98 6h13v164H98z"/><circle r="1" fill-opacity=".5" transform="matrix(10.51304 43.45569 -2.02287 .48938 210 76.8)"/><ellipse cx="132" fill="#cebda6" fill-opacity=".4" rx="23" ry="47"/><path fill="#050303" d="M100 78.1l31.6 26.8 3-28.5L79 176.6z"/><path fill="#a19ca8" fill-opacity=".5" d="M139 111h26v29h-26z"/><path fill="#2b1008" fill-opacity=".6" d="M255 71l-9-46 25-15z"/><path fill="#7a4a37" fill-opacity=".5" d="M145 45l8-36 8 10z"/><path fill="#f6ffff" fill-opacity=".4" d="M185 149.1l9-6.3 3 4-9 6.4z"/><path fill="#9af5ff" fill-opacity=".3" d="M138 5l43-21 6 32z"/><path fill="#007393" fill-opacity=".5" d="M182 88l3 25-17-2z"/><ellipse cx="235" cy="82" fill="#695d50" fill-opacity=".6" rx="20" ry="32"/><path fill="#00aae1" fill-opacity=".4" d="M146.5 97.8l-10.8-19 10.5 2.3 3.8-1.9z"/><path fill="#d9694a" fill-opacity=".5" d="M111.3 66.4l20.2 13.2L149 54.2l-19.9 1.5z"/><path fill="#b27e79" fill-opacity=".5" d="M159.7 65.4l-24 8.7 20.9 7.3 23.2-1.1z"/><circle r="1" fill="#010000" fill-opacity=".7" transform="matrix(-68.62916 1.63395 -.85744 -36.01444 62.5 156)"/><path fill="#a77564" fill-opacity=".9" d="M132.2 103l6.1 2.3-.4-29.2 1.6-6.8z"/><path fill="#000002" fill-opacity=".7" d="M142.4 140.8l16.5 44.2 25.2-63.1-25.5 23.4z"/><path fill="#030205" d="M99.8 49l2.9 27.1L124 56.4 97.6-16z"/><path fill="#799187" fill-opacity=".5" d="M154.8 41.2l21.7 14.5L165.9-16l-4.8 8.7z"/><path fill="#5c5e56" fill-opacity=".6" d="M193 32.2l-6.1 1.3 1.1-21 10.5 2.8z"/><path fill-opacity=".4" d="M204 50l23-5-42-3z"/><circle r="1" fill="#060403" fill-opacity=".6" transform="matrix(-16.4741 -28.43451 16.19965 -9.38558 214.4 153)"/><path fill="#585538" fill-opacity=".6" d="M131.5 132.8l18.4 43.3-7.4 3-18.4-43.2z"/><circle r="1" fill="#050302" fill-opacity=".4" transform="rotate(-94.7 119.8 -106.3) scale(1 26.8341)"/><path fill="#a6ae80" fill-opacity=".5" d="M246.9 142.4l12.9 8 1.2 14.7 10-52.9z"/><path fill="#b0a58e" d="M145.8-16l-11.7 52.6L88.7-16l40.6 20z"/><path fill="#bfc9cd" fill-opacity=".6" d="M233.7 7l-62.2 6.6 32.1 2.5L271 4.2z"/><path fill="#fef1e5" fill-opacity=".3" d="M179.3-16l-36.4 36.9-4.3-24.1 105.5 7.1z"/><path fill="#cbc9d9" fill-opacity=".3" d="M181 134.2l4.8-9.9 7.2 3.5-4.8 9.9z"/><path fill="#6b6358" d="M232.8 50.6l-5.4.5-20.7-2.4 5.8 23.1z"/><path fill="#a6aaaa" fill-opacity=".2" d="M178.2 32.8l23.7 16.6 8.3 49.2-10.2-.1z"/><path fill="#000209" fill-opacity=".7" d="M232.3 167.4L201.8 45l2-.5L234.1 167z"/><path fill="#51381a" fill-opacity=".8" d="M181.8 29l-8.1 22.8 11.2 56.4L173 13.6z"/><ellipse cx="207" cy="39" fill="#b7a38c" fill-opacity=".7" rx="27" ry="4"/></g></svg>