<svg xmlns="http://www.w3.org/2000/svg" viewBox="0 0 300 199"><defs/><path fill="#603f35" d="M0 0h300v199H0z"/><g transform="translate(.6 .6) scale(1.17188)"><circle r="1" fill="#f7f6ff" fill-opacity=".3" transform="rotate(91 37.3 106.1) scale(191.64836 86.36344)"/><circle r="1" fill="#deebee" fill-opacity=".6" transform="rotate(-17 81.2 -544.8) scale(71.88282 32.97856)"/><circle r="1" fill="#120d1d" fill-opacity=".6" transform="matrix(7.67833 -24.20515 25.92728 8.22462 107.6 135.6)"/><ellipse cx="255" cy="83" fill="#000003" fill-opacity=".5" rx="33" ry="62"/><path fill="#f89b3d" fill-opacity=".5" d="M161 185l110-25-93-43z"/><path fill="#293947" fill-opacity=".6" d="M74.9 70l28.3-25.2L89.7-16 57.6-2.2z"/><circle r="1" fill="#d9ccd3" fill-opacity=".6" transform="rotate(-63.9 115 -34.5) scale(7.4015 53.45453)"/><circle r="1" fill="#03131e" fill-opacity=".4" transform="matrix(7.30159 7.37845 -25.65159 25.38436 126 52.2)"/><circle r="1" fill="#9f643f" fill-opacity=".5" transform="matrix(21.16273 -4.74521 42.14168 187.9438 51.6 95.2)"/><path fill="#4b3939" fill-opacity=".8" d="M170.4 67.3l59.6-2.9 41-71.2-47.2 44.2z"/><ellipse cx="180" fill="#fff" fill-opacity=".7" rx="49" ry="10"/><path fill="#0b0c01" fill-opacity=".5" d="M19.2 241.3L-64.1 70.6l45-22L64 219.5z"/><circle r="1" fill="#c1cfff" fill-opacity=".7" transform="matrix(9.7697 6.98299 -4.7474 6.64194 215.3 127.2)"/><path fill-opacity=".6" d="M167 159l-34 7 24 19z"/><path fill="#cccac5" d="M148 64l9.6-41.2 11.1 38.6-16.1-14.1z"/><path fill="#001319" fill-opacity=".5" d="M139 37h9v43h-9z"/><path fill="#bb929d" fill-opacity=".9" d="M136.2 109.5l79.6 28.6-64.4-40-24.7-34.7z"/><circle r="1" fill="#e0e3eb" fill-opacity=".5" transform="matrix(2.8202 -4.55467 32.86566 20.35009 88.9 76)"/><path fill="#79656b" fill-opacity=".7" d="M187 16l47 22 3-39z"/><path fill="#d8e0df" fill-opacity=".7" d="M99 7h16v35H99z"/><path fill="#a8a2a1" d="M206 44.2l-73.8-21.6-5.7-19.1 89 27z"/><path fill="#240700" fill-opacity=".6" d="M129.7 91.3l-22.5-8.2 3-8.4 22.6 8.2z"/><ellipse cx="219" cy="85" fill="#7f4464" fill-opacity=".5" rx="16" ry="36"/><path fill="#25031c" fill-opacity=".3" d="M146.8 140.8l-55.2 33.5 71.2-54.2 6.5 64.9z"/><path fill="#9c6b47" fill-opacity=".6" d="M49 150h66v20H49z"/><circle r="1" fill="#e9a77a" fill-opacity=".5" transform="matrix(9.30856 -1.50037 4.13942 25.68165 66.1 66.1)"/><circle r="1" fill="#432e1e" fill-opacity=".6" transform="matrix(-9.37674 -28.77485 23.1061 -7.52949 11 86.8)"/><circle r="1" fill="#0a0400" fill-opacity=".6" transform="matrix(18.1354 -29.54206 13.14443 8.06916 249.7 109)"/><path fill="#2c1d2c" fill-opacity=".3" d="M126 95.3l2.1 49.1-78.5 15.3 65.5-61.8z"/><path fill="#c7bdf9" fill-opacity=".4" d="M218.5 65.3L187 88.7l2.8-25.4 26.3 4.4z"/><path fill="#432d25" fill-opacity=".6" d="M169 60h20v19h-20z"/><path fill="#c9c0b7" d="M192.7 64.1L191.4 44l-6.5-30.5 2 38.9z"/><path fill="#071c22" fill-opacity=".5" d="M164 37h21v8h-21z"/><path fill="#3f0c2d" fill-opacity=".3" d="M190.5 95.4l64 40-93.7-44 42.1-8.1z"/><path fill="#ca9cb8" fill-opacity=".4" d="M172.2 85.8l-8.6 25-54.2 6.1 47-47.4z"/><path fill="#ffc7a2" fill-opacity=".4" d="M150 138l-69 47 43-14z"/><circle r="1" fill="#31231c" fill-opacity=".5" transform="matrix(7.1805 -2.56301 7.3331 20.5443 43.3 47.3)"/><ellipse cx="182" cy="139" fill="#ffd87b" fill-opacity=".5" rx="8" ry="18"/><path fill="#f7f9f6" fill-opacity=".7" d="M108.9-16L226.7.1l-40.8 18-37.7-10.7z"/><path fill="#d6e1f2" fill-opacity=".7" d="M79.3 61.7l-.2 17.8 25.6 6-16.5-20.4z"/><circle r="1" fill="#ad6738" fill-opacity=".6" transform="rotate(-112.5 164.1 12.5) scale(22.69635 47.464)"/><path fill="#2c3135" d="M136.1 39.7l12.2 2.4-23.5 21-5.4-16.6z"/><path fill="#47424a" fill-opacity=".5" d="M71.1 55.9l78.9-30-74.3 38.5-1.9 5.8z"/><path fill="#fff3e5" fill-opacity=".5" d="M175 41l3 27.8-3 .3-3-27.9z"/><path fill="#8497c0" fill-opacity=".4" d="M69.4 107l29.4-19 9.8 15-29.4 19z"/><path fill="#a0644a" fill-opacity=".6" d="M66.4 148.2l-32-75.4 21.2-9 32 75.4z"/><path fill="#452048" fill-opacity=".5" d="M190 130h18v8h-18z"/><circle r="1" fill="#040e15" fill-opacity=".6" transform="rotate(-119.2 127.4 -74.8) scale(5.91527 20.80317)"/><path fill="#57250f" fill-opacity=".4" d="M162 53l-24 12 29 13z"/><path fill="#171b30" fill-opacity=".5" d="M118.7 154l-30.3-52.1 52 40.7-11.5 11.1z"/><path fill="#fca17c" fill-opacity=".3" d="M122.5 56.1l-22-9.5 1.3 14.6 22.9 24.2z"/><ellipse cx="105" cy="72" fill="#5b413d" fill-opacity=".7" rx="9" ry="10"/><path fill="#af6b88" fill-opacity=".5" d="M213 108l-91 29 18-31z"/><path fill="#968e95" fill-opacity=".7" d="M159.9 20.9L139 3.3 121.5 44l19.6-5.7z"/><path fill="#1d1204" fill-opacity=".4" d="M34 110l40 43-23-10z"/><path fill="#9c7053" fill-opacity=".5" d="M19.9 57.1L-1.1 4l17.5 17.9L49.9-9.3z"/><path fill="#061034" fill-opacity=".2" d="M85.2 97.8l36.8 3.6 1.7-4.5-46.5-9.7z"/><path fill="#362835" fill-opacity=".5" d="M164.6 143.8l-28.9-1.4 34.6-13 5.4 2.2z"/><path fill="#b07c54" fill-opacity=".5" d="M26.1 135.3L33 128l32.9 30.7L59 166z"/><path fill="#7d94bb" fill-opacity=".4" d="M95.9 138.6l13.5-4.6-11-6.6-9.6 13z"/><path fill="#4c0a00" fill-opacity=".5" d="M114.5 116.4l-3.5 21.4 28.8-14.6-30.1-6.5z"/><path fill="#cdd1cc" fill-opacity=".5" d="M146 28l36 7 20-19z"/><path fill="#71463d" fill-opacity=".6" d="M212 39l15 65 11-41z"/><path fill="#ffd1aa" fill-opacity=".2" d="M54.5 29.5l-4-24.2 12.6 11.4L85.3 150z"/><path fill="#e1e0dd" fill-opacity=".4" d="M146 109.9L84.2 76.3l49.2 18.2-4.2-23.8z"/></g></svg>