<svg xmlns="http://www.w3.org/2000/svg" viewBox="0 0 299 449"><defs/><path fill="#3f3f3f" d="M0 0h299v449H0z"/><g transform="translate(.9 .9) scale(1.7539)"><circle r="1" fill="#eee" fill-opacity=".6" transform="matrix(-5.209 -85.30744 57.09974 -3.4866 99.7 59.2)"/><circle r="1" fill="#1f1f1f" fill-opacity=".7" transform="matrix(-4.39581 -69.12813 14.45803 -.91938 101.1 108.3)"/><circle r="1" fill="#010101" fill-opacity=".8" transform="matrix(36.5013 -10.14052 39.48633 142.13298 11.8 186.3)"/><circle r="1" fill="#fcfcfc" fill-opacity=".5" transform="matrix(24.95541 72.60878 -9.58086 3.29291 148.7 157.2)"/><circle r="1" fill="#fff" fill-opacity=".8" transform="matrix(8.55284 67.6521 -21.96352 2.77671 122.4 10.6)"/><circle r="1" fill="#ededed" fill-opacity=".8" transform="matrix(9.0071 -85.90796 19.99632 2.09653 70.8 34.9)"/><ellipse cx="11" cy="33" fill="#131313" rx="23" ry="97"/><path fill="#101010" fill-opacity=".5" d="M33 80h138v8H33z"/><path fill-opacity=".4" d="M146.4-16L186 .2l-2 103.3-41 2.1z"/><circle r="1" fill="#484848" fill-opacity=".6" transform="rotate(145.3 16.2 80.7) scale(60.39258 22.34034)"/><ellipse cx="97" cy="59" fill-opacity=".7" rx="15" ry="13"/><path fill="#aeaeae" fill-opacity=".4" d="M62.7 132.5l-4.6 96.6 1.4-14.3 31.1 40.6z"/><path fill="#fff" fill-opacity=".6" d="M129 89h14v59h-14z"/><path fill="#666" d="M31.8 26.5L49.9-16l-.7 70.1-4.8 22.4z"/><path fill-opacity=".6" d="M93 0h6v40h-6z"/><path fill="#f2f2f2" fill-opacity=".8" d="M110.6 77.7l-4.7-7.3L148 52l-6 24.9z"/><path fill="#494949" fill-opacity=".6" d="M154.9 181.4L119 201.3l-35.9-64.7 35.9-19.9z"/><ellipse cx="149" cy="10" fill="#787878" fill-opacity=".6" rx="6" ry="193"/><path fill="#e7e7e7" fill-opacity=".8" d="M45.2 134.7l36.1-51.2 9.7 22.3-24.5 7.1z"/><path fill="#f7f7f7" fill-opacity=".7" d="M89.2 84.8l3.7-13.9L46.7 81l5.4-74.9z"/><path fill="#040404" d="M72.4 249.7l-85 16-3.4-85.8 84 46.4z"/><path fill="#181818" fill-opacity=".6" d="M121 103l-55 14 51-30z"/><path fill="#656565" fill-opacity=".6" d="M125.8-5l.3 6-77.9 4-.3-6z"/><path fill="#fff" fill-opacity=".5" d="M46 132h2v51h-2z"/><path fill="#fafafa" fill-opacity=".6" d="M100 7h42v39h-42z"/><circle r="1" fill-opacity=".5" transform="matrix(-3.1217 .76099 -17.23916 -70.71788 38 67)"/><path fill-opacity=".5" d="M162 98h9v75h-9z"/><path fill="#fff" fill-opacity=".6" d="M83 114l1 16-10-12z"/><circle r="1" fill="#6d6d6d" fill-opacity=".7" transform="rotate(64.4 -89.5 240) scale(130.30989 5.99906)"/><circle r="1" fill="#c3c3c3" fill-opacity=".5" transform="matrix(-28.91738 -41.762 4.41313 -3.0558 161.5 177.2)"/><path fill="#5f5f5f" fill-opacity=".8" d="M61.4 152.2l-.5-38.1 24.8 14.8-17 52.2z"/><circle r="1" fill-opacity=".5" transform="matrix(-2.628 5.41874 -12.64919 -6.13465 103 57)"/><circle r="1" fill="#686868" fill-opacity=".5" transform="matrix(2.50065 49.60376 -4.90004 .24702 155.2 120.2)"/><path fill="#f9f9f9" fill-opacity=".6" d="M115 45h31v32h-31z"/><path fill="#fcfcfc" fill-opacity=".6" d="M51 5h42v42H51z"/><path fill="#fff" fill-opacity=".5" d="M32.1 160h1L32 184h-1z"/><ellipse cx="170" cy="41" fill="#040404" fill-opacity=".5" rx="15" ry="76"/><path fill="#272727" fill-opacity=".6" d="M26 124h21v31H26z"/><path fill="#fff" fill-opacity=".5" d="M55 119l-4-29 43 11zm-4 37h2v26h-2z"/><path fill="#959595" fill-opacity=".5" d="M38 150h3v43h-3z"/><path fill="#fff" fill-opacity=".3" d="M142 115l2 36-24-32z"/><path fill="#050505" fill-opacity=".5" d="M95 71h10v41H95z"/><path fill="#fbfbfb" fill-opacity=".5" d="M54 61l34 15-6-28z"/><path fill="#909090" fill-opacity=".5" d="M34.5 68.2l-3.9-.4-.4 14.1 5.8 9.7z"/><ellipse cx="125" cy="83" fill="#545454" fill-opacity=".5" rx="23" ry="6"/><path fill-opacity=".5" d="M58 126h2v86h-2z"/><path fill="#595959" fill-opacity=".7" d="M83 239l16 21-69 11z"/><path fill="#050505" fill-opacity=".6" d="M4.6 148.8l-19.1 82.9L56 125.9l3.4 5.6z"/><path fill="#4b4b4b" fill-opacity=".5" d="M132 121l-30-33 13-2z"/><ellipse cx="136" cy="252" fill="#1a1a1a" fill-opacity=".4" rx="40" ry="9"/><circle r="1" fill="#010101" fill-opacity=".6" transform="matrix(.9973 .0735 -3.20464 43.48623 34.2 107.2)"/><path fill="#646464" fill-opacity=".7" d="M53.4 121.9l14.4 13.8-.7-24.7-48.4 56.1z"/><path fill="#f4f4f4" fill-opacity=".6" d="M141.6 99l2.6 50.7-27.6-61.4 25.1 3.2z"/><circle r="1" fill="#626262" fill-opacity=".5" transform="matrix(7.14053 -1.48728 6.70661 32.19899 126.9 231.7)"/><ellipse cx="37" cy="14" fill="#c8c8c8" fill-opacity=".3" rx="3" ry="37"/><path fill="#a0a0a0" fill-opacity=".5" d="M75 183l-7 40-7-53z"/><circle r="1" fill="#121212" fill-opacity=".5" transform="matrix(-2.85746 -17.30249 10.43668 -1.72359 96.3 61.1)"/><path fill-opacity=".6" d="M53 136h2v63h-2z"/><circle r="1" fill="#3b3b3b" fill-opacity=".6" transform="matrix(-12.77891 26.30524 -22.09384 -10.73304 100 152.7)"/><path fill="#979797" fill-opacity=".5" d="M36 113l3 13-5 11z"/><path fill-opacity=".7" d="M47 143.8l-6 48.6-2-.2 6-48.6z"/><ellipse cx="56" cy="170" fill="#f8f8f8" fill-opacity=".6" rx="1" ry="13"/><path fill="#eaeaea" fill-opacity=".2" d="M74 118.5l53.8-17.9-28.6 8.6-20 24.2z"/><path fill="#fff" fill-opacity=".2" d="M46.7 198.1l.2-78.2 2.1 28.6-5.3 34.7z"/></g></svg>