<svg xmlns="http://www.w3.org/2000/svg" viewBox="0 0 300 199"><defs/><path fill="#354b61" d="M0 0h300v199H0z"/><g transform="translate(.6 .6) scale(1.17188)"><circle cx="58" cy="166" r="192" fill="#fbd9b1" fill-opacity=".5"/><ellipse cx="58" cy="139" fill="#471b14" fill-opacity=".6" rx="83" ry="28"/><path fill="#fff" fill-opacity=".5" d="M93.1 107.5l-42.4 6.7-15.8-99.7 42.4-6.7z"/><path fill="#a3ffff" fill-opacity=".6" d="M240 113l1-57-140 67z"/><ellipse cx="33" cy="138" fill="#af0000" fill-opacity=".6" rx="12" ry="154"/><circle r="1" fill="#492500" fill-opacity=".6" transform="matrix(-20.81295 3.85745 -7.01823 -37.86699 209.3 37.8)"/><path fill="#0f0000" fill-opacity=".5" d="M104 11h22v38h-22z"/><circle r="1" fill-opacity=".6" transform="matrix(10.045 .12273 -.86748 71.00107 240 31.3)"/><circle r="1" fill="#91dcf6" fill-opacity=".5" transform="rotate(-135.4 138 39.5) scale(26.83244 49.01996)"/><ellipse cx="8" cy="114" fill="#a3e4dc" fill-opacity=".4" rx="13" ry="110"/><circle r="1" fill="#cdbb9f" fill-opacity=".8" transform="matrix(-2.20024 25.74013 -22.42987 -1.91728 159.5 0)"/><path fill="#ddf5e5" fill-opacity=".7" d="M235-9l-12 25 10 25z"/><path fill="#e9fcf8" fill-opacity=".5" d="M38 14l82-21-78 72z"/><circle r="1" fill="#f4f0fa" fill-opacity=".6" transform="matrix(12.17181 .54274 -1.29221 28.97977 160.6 94.3)"/><circle r="1" fill="#1a2d00" fill-opacity=".5" transform="matrix(12.12552 36.13096 -7.066 2.37134 109.6 116.2)"/><path fill="#520f0c" fill-opacity=".7" d="M61-10L12 44 23 3z"/><ellipse cx="253" cy="94" fill="#000007" fill-opacity=".8" rx="8" ry="60"/><circle r="1" fill="#ab0000" fill-opacity=".5" transform="matrix(9.69472 -4.11209 20.52908 48.39966 45.1 120.2)"/><circle r="1" fill="#f4ad82" fill-opacity=".6" transform="matrix(-12.23084 -45.55112 8.37559 -2.24891 96 44.4)"/><ellipse cx="7" cy="57" fill="#142424" fill-opacity=".8" rx="17" ry="4"/><path fill="#432a1f" fill-opacity=".5" d="M100 55l42 23 16-25z"/><path fill="#003009" fill-opacity=".7" d="M15.8 116.4l-31.8-9.1v32.9l27.6-7.7z"/><path fill="#b3d6d4" fill-opacity=".4" d="M145.2 154.5l25.5-3-14.3-71.9L112 69.2z"/><circle r="1" fill="#744a29" fill-opacity=".8" transform="rotate(141.5 61 27) scale(15.16711 10.89559)"/><path fill="#442700" fill-opacity=".4" d="M213 71l-52-10 65-77z"/><ellipse cx="100" cy="134" fill="#2f6250" fill-opacity=".4" rx="38" ry="27"/><circle r="1" fill="#ffc4bc" fill-opacity=".6" transform="matrix(-15.09313 -8.01903 19.03356 -35.82427 2.6 9.8)"/><path fill="#27717f" fill-opacity=".4" d="M173 116h55v25h-55z"/><path fill="#80dcdb" fill-opacity=".6" d="M182.4 71.9l56.2-3 5.2 44.3-71.5 8.8z"/><path fill="#e9f7f6" fill-opacity=".6" d="M204 123l6 62-21-15z"/><path fill="#e5ffd8" fill-opacity=".5" d="M156.1 150.5l-1.6-13.6-63.2 46.5 2.5 1.6z"/><ellipse cx="44" cy="168" fill="#255055" fill-opacity=".5" rx="57" ry="9"/><path fill="#f6b19a" fill-opacity=".5" d="M113 91h13v34h-13z"/><path fill="#e2e8f8" fill-opacity=".5" d="M133 16l15 17-18 13z"/><ellipse cx="10" cy="46" fill="#d9faff" fill-opacity=".6" rx="15" ry="6"/><path fill="#c3dae1" fill-opacity=".6" d="M74.6 3L96 107.6 35 41.2l.9-14.5z"/><path fill="#421b00" fill-opacity=".6" d="M52.8-2.6l21.6-8 4.8 13.2-21.6 8z"/><path fill="#000415" fill-opacity=".6" d="M97 16l8.4-3.4L119 46l-8.3 3.4z"/><path fill="#7bb1c3" fill-opacity=".4" d="M75.1 173.4l5.8-23.3 34 8.5-5.8 23.3z"/><path fill="#4a4216" fill-opacity=".4" d="M93.2 45.4l32.2 121.9-2.8.6-27.3-18.5z"/><path fill="#aa541b" fill-opacity=".4" d="M173 101l20-117-26 53z"/><path fill="#643626" fill-opacity=".5" d="M139 84h29v6h-29z"/><path fill="#00463d" fill-opacity=".3" d="M195 45.1l3.5 74.1 17.9-.9-4 61.5z"/><path fill="#bce3f1" fill-opacity=".5" d="M50 71h39v39H50z"/><ellipse cx="235" cy="127" fill="#aeced2" fill-opacity=".6" rx="6" ry="72"/><ellipse cx="47" cy="149" fill="#880002" fill-opacity=".5" rx="25" ry="14"/><path fill="#192b33" fill-opacity=".6" d="M52 111l23 1 4 55z"/><path fill="#143435" fill-opacity=".3" d="M162.7 125.2l-8.4 50 .6-42.1-45.9-5.4z"/><path fill="#ffe5fb" fill-opacity=".2" d="M179.2 185l-11.8-98.1-23.6-10.8 20.6-52.8z"/><path fill="#a7cfc6" fill-opacity=".5" d="M20 138l-2 25-28-30z"/><path fill="#d3b2a1" fill-opacity=".7" d="M90 46l12.3 12.9 27.8-14.6 17.5 8.3z"/><path fill="#003800" fill-opacity=".5" d="M123 148l20-15 2 8z"/><path fill-opacity=".4" d="M105 42h42v5h-42z"/><path fill="#47727b" fill-opacity=".5" d="M198 133l-8 29-17-54z"/><path fill="#8c532d" fill-opacity=".7" d="M148-11.4l21 22.1-12.6-3.3L143.9-16z"/><path fill-opacity=".6" d="M19 8h8v25h-8z"/><path fill="#a97848" fill-opacity=".6" d="M228 36h8v27h-8z"/><path fill="#d5e2e8" fill-opacity=".6" d="M172 91l1 33-29 1-1-33z"/><path fill="#00061a" fill-opacity=".7" d="M240 85l-3-101 34 36z"/><path fill="#9c673d" fill-opacity=".7" d="M135.5 14.2l17.7-2.1-38.7 18 10.4 13.8z"/><path fill="#a05a43" fill-opacity=".6" d="M82.7 23.8l16 48-2.5 4.9-15.1-29.2z"/><path fill="#a65748" fill-opacity=".7" d="M107.5 129.7l-8.7 7.6-2.3-17.1 27.9-6.4z"/><path fill="#e32c2a" fill-opacity=".5" d="M20 43l10-33 12-1z"/><path fill="#041620" fill-opacity=".5" d="M120 68l-16-13 32 7z"/><ellipse cx="88" cy="168" fill="#436274" fill-opacity=".5" rx="11" ry="60"/></g></svg>