<svg xmlns="http://www.w3.org/2000/svg" viewBox="0 0 300 199"><defs/><path fill="#49342a" d="M0 0h300v199H0z"/><g transform="translate(.6 .6) scale(1.17188)"><circle cx="175" cy="21" r="70" fill="#daf1e4" fill-opacity=".5"/><circle cx="174" cy="135" r="83" fill="#6d5953"/><circle r="1" fill="#c3e5d6" fill-opacity=".4" transform="rotate(-107.5 18.1 -2.4) scale(42.34336 31.98275)"/><circle r="1" fill="#e7e0d9" fill-opacity=".4" transform="rotate(-144.3 93.8 53.3) scale(20.93329 47.84237)"/><circle r="1" fill="#100902" fill-opacity=".7" transform="rotate(-159.2 67.7 32) scale(50.35855 14.46907)"/><circle r="1" fill="#e3e9d7" fill-opacity=".5" transform="rotate(-34.9 101.5 -211) scale(29.11399 39.8706)"/><circle r="1" fill="#000103" fill-opacity=".6" transform="matrix(-7.80894 -41.32767 25.32335 -4.7849 83.8 32.3)"/><circle r="1" fill="#1b1512" fill-opacity=".6" transform="matrix(6.6695 -15.92466 75.417 31.5858 241.6 86.7)"/><path fill="#fff" fill-opacity=".5" d="M187 94l-41-25 58 9z"/><path fill="#c8dcd1" fill-opacity=".5" d="M188 0h55v57h-55z"/><path fill="#65635e" d="M223.3 20.3l4.1 19.4-16.9 107.4 3.7-90.6z"/><ellipse cx="177" cy="118" fill="#e1bca4" fill-opacity=".4" rx="67" ry="10"/><path fill="#cb9e7e" fill-opacity=".5" d="M86 96l62 13-89 8z"/><path fill="#392c1c" fill-opacity=".5" d="M173 0h13v64h-13z"/><ellipse cx="18" cy="20" fill="#e2ede4" fill-opacity=".5" rx="17" ry="13"/><ellipse cx="17" cy="95" fill="#000d07" fill-opacity=".4" rx="52" ry="31"/><circle r="1" fill="#000004" fill-opacity=".7" transform="matrix(10.82144 -.54839 3.5819 70.68247 255 43.7)"/><path fill="#cbe3b7" fill-opacity=".7" d="M113.5 67.8l16.8-6.4 14.4-23-36.3 3.9z"/><circle r="1" fill="#7f7d69" fill-opacity=".7" transform="matrix(-31.08544 8.41365 -2.29821 -8.49109 140.1 28.4)"/><path fill="#120808" fill-opacity=".6" d="M132 59h52v13h-52z"/><path fill="#5d3a42" fill-opacity=".6" d="M271 166.7l-102.1 8.2-29.7-25.4 16.7-19.9z"/><path fill="#e5e6e6" fill-opacity=".7" d="M171 13l-65 5 63-34z"/><path fill="#332" fill-opacity=".6" d="M50.2-16L50 22.2 37.6 5.4-16 8.2z"/><path fill="#f1f6f7" fill-opacity=".4" d="M113.8 140.6l75-22.1-35.7 4.7-12.8 30.9z"/><path fill="#fff" fill-opacity=".5" d="M241 4l-50-20 3 27z"/><ellipse cx="227" cy="13" fill="#312523" fill-opacity=".5" rx="31" ry="3"/><path fill="#ccffe0" fill-opacity=".4" d="M61.6 67l-5 .6-6.2-58.7 5-.5z"/><circle r="1" fill="#502d2b" fill-opacity=".5" transform="matrix(-3.72706 -11.86884 25.6323 -8.04907 116.7 127.7)"/><path fill="#020000" fill-opacity=".4" d="M202 89h54v17h-54z"/><path fill="#28271d" fill-opacity=".6" d="M4 40h48v6H4z"/><path fill="#fdfff8" fill-opacity=".5" d="M243 44l-2 18-15-2z"/><path fill="#745c40" fill-opacity=".7" d="M67 147h50v23H67z"/><path fill="#13121d" fill-opacity=".4" d="M176.5 30.5l90.7-8 .3 3-90.7 8z"/><path fill="#777363" fill-opacity=".8" d="M150.5 70.8l-1.2-75.7 34 8.8-41-19.9z"/><path fill="#d2d3d8" fill-opacity=".6" d="M137 149.3l25.2 21.2-5.1 6.2-25.3-21.2z"/><path fill="#4c4130" fill-opacity=".6" d="M121.5 22.3l3-28.8 2 .2-3 28.8z"/><ellipse cx="214" cy="22" fill="#fafbff" fill-opacity=".6" rx="18" ry="4"/><circle r="1" fill="#353029" fill-opacity=".6" transform="matrix(.14959 1.93308 -40.8042 3.15761 116 36)"/><path fill="#def0dd" fill-opacity=".5" d="M153 22h19v27h-19z"/><ellipse cx="223" cy="60" fill-opacity=".3" rx="3" ry="62"/><path fill="#221912" fill-opacity=".5" d="M61 65h87v29H61z"/><circle r="1" fill="#98a59e" fill-opacity=".4" transform="matrix(-35.27117 .39062 -.04611 -4.1639 18.1 51.7)"/><path fill="#554b49" fill-opacity=".3" d="M51.9 54.8l37.8 4-9.6 90.4-37.8-4z"/><path fill="#1a1f1c" fill-opacity=".5" d="M56.1 107.5L42.1-16l12.8 54.5L61.1 87z"/><path fill="#fefff1" fill-opacity=".5" d="M178.8 23.7l-48.6.9-15.9 3.7 5.4 3z"/><path fill="#917f75" fill-opacity=".6" d="M191 94.7l38.6 37.6-30.7 4.4-47.4-64z"/><path fill="#c2baae" fill-opacity=".5" d="M215 74h5v51h-5z"/><path fill="#fff" fill-opacity=".5" d="M227 15h17v7h-17z"/><path fill="#defcd6" fill-opacity=".3" d="M202.3 56.4l28.6-40.8L192.3 43l-11 11.3z"/><circle r="1" fill="#1d2315" fill-opacity=".4" transform="rotate(176.9 -1.7 63.1) scale(12.18241 143.69031)"/><circle r="1" fill="#432d32" fill-opacity=".5" transform="rotate(-122.3 170.9 16) scale(30.38108 22.48955)"/><path fill="#fdfcf9" fill-opacity=".2" d="M173.3 81.3l2 21.4 23.4-34.6 25 6.5z"/><path fill="#180800" fill-opacity=".4" d="M208.1 88.7l-5.5 31.7-3.3-46.9 21.5-28.2z"/><ellipse cx="13" cy="18" fill="#292717" fill-opacity=".5" rx="2" ry="22"/><path fill="#e8f3f6" fill-opacity=".6" d="M55.6-1l.8 24h-4l-.8-24z"/><path fill="#fcfffb" fill-opacity=".5" d="M108 0h13v21h-13z"/><path fill="#d1ac81" fill-opacity=".3" d="M228.1 120.2l-115.4-1.7L130.1 94l-30.4 5.7z"/><path fill="#0b0304" fill-opacity=".7" d="M88 0h18v96H88z"/><path fill="#cfc7c8" fill-opacity=".9" d="M173 116.3l-44.4 35.2 11.8-24.3 35.9-7.2z"/><path fill="#665a40" fill-opacity=".5" d="M206 16.9L108.4 27l-.4-4 97.5-10z"/><path fill="#1b1f0d" fill-opacity=".5" d="M29.8 40.3l-1 .1-4.6-32.7 1-.1z"/><path fill="#e1e8e3" fill-opacity=".5" d="M3 10h9v23H3z"/><path fill="#f4fbed" fill-opacity=".5" d="M18 7h8v25h-8z"/><path fill="#0a0406" fill-opacity=".5" d="M232 107.8L256.6 5.1l-25 5.5L271 23z"/><path fill="#0e0004" fill-opacity=".3" d="M148 155.3l-3.8-19.3 23.4 35.8-15.4-9z"/></g></svg>