<svg xmlns="http://www.w3.org/2000/svg" viewBox="0 0 300 199"><defs/><path fill="#4f402f" d="M0 0h300v199H0z"/><g transform="translate(.6 .6) scale(1.17188)"><circle r="1" fill="#f8ffff" fill-opacity=".7" transform="rotate(11.9 -84 730.4) scale(99.52831 66.27978)"/><circle r="1" fill="#cececa" fill-opacity=".6" transform="rotate(-89 88 -3.8) scale(80.53682 32.15871)"/><path fill="#c9ced0" fill-opacity=".7" d="M145 0h95v101h-95z"/><circle r="1" fill="#8e8875" fill-opacity=".6" transform="matrix(-3.38374 -105.8977 22.25901 -.71124 9.9 93.3)"/><ellipse cx="123" cy="82" fill="#8f7c6f" fill-opacity=".7" rx="25" ry="58"/><circle r="1" fill="#bfd8ed" fill-opacity=".5" transform="matrix(-33.01122 -5.28754 2.4188 -15.10103 204.7 169)"/><path fill="#1d2416" fill-opacity=".5" d="M235 14h21v136h-21z"/><path fill="#ebf7ff" fill-opacity=".4" d="M66 109h38v52H66z"/><circle r="1" fill="#4b4932" fill-opacity=".5" transform="matrix(-110.675 -10.07221 .93742 -10.3005 127.1 99.2)"/><ellipse cx="78" cy="63" fill="#e9ece9" fill-opacity=".6" rx="23" ry="18"/><circle r="1" fill="#f0f5fa" fill-opacity=".5" transform="rotate(-16 335.6 -558.8) scale(39.26244 17.46512)"/><path fill="#e8eff1" fill-opacity=".5" d="M111-7l-1 60 81-63z"/><path fill="#0b271c" fill-opacity=".5" d="M29 0h25v101H29z"/><path fill="#2b382b" fill-opacity=".8" d="M37.5 150.3L-16 168.1 70.7 179 51.3 23z"/><path fill="#483d37" fill-opacity=".9" d="M70.6 138l-2.3-10.9 8.7 16.5-2.5 22.5z"/><path fill="#290500" fill-opacity=".5" d="M123 41h19v15h-19z"/><circle r="1" fill="#77695c" fill-opacity=".6" transform="matrix(-61.79938 -6.38635 .87259 -8.44385 150 126.5)"/><circle r="1" fill="#d9dbdf" fill-opacity=".6" transform="matrix(25.85108 -18.92013 2.59391 3.54413 95 148.6)"/><path fill="#300e03" fill-opacity=".5" d="M102.7 41.7l-3.3 24 13-12.4 2.7-1.7z"/><circle r="1" fill="#5c7071" fill-opacity=".5" transform="rotate(103.4 48 175) scale(31.17169 27.58831)"/><path fill="#c8cdd0" fill-opacity=".5" d="M213 67h26v37h-26z"/><path fill="#e5d8d2" fill-opacity=".4" d="M114.1 101.8l16.7-3.3 3 15.7-16.6 3.3z"/><path fill="#c7cac5" fill-opacity=".6" d="M66 104L49-16l39 75z"/><ellipse cx="90" cy="1" fill="#eff3f4" fill-opacity=".6" rx="9" ry="82"/><path fill="#1a1809" fill-opacity=".6" d="M271 109l-54-4-22 48z"/><path fill="#c5cfd9" fill-opacity=".6" d="M174 154h20v16h-20z"/><path fill="#a8adac" fill-opacity=".9" d="M207.9 60.2l10.2-45.7L62.4 32.1l143.3-5.5z"/><path fill="#574429" fill-opacity=".5" d="M42 115l69-41 20 23z"/><path fill="#fff" fill-opacity=".5" d="M64 136h5v14h-5z"/><path fill="#ebede9" fill-opacity=".6" d="M71.2 125l20.9-17 8.6-4.6 11.2 4z"/><ellipse cx="193" cy="147" fill="#010000" fill-opacity=".5" rx="19" ry="7"/><path fill="#889091" fill-opacity=".9" d="M218.8 150.9l36.5-28.9-94.9 63-5.2-9.2z"/><path fill="#8f8571" fill-opacity=".4" d="M-16 149l56 3-9-85z"/><path fill="#9d9693" fill-opacity=".5" d="M207.7 134.2l-61.3 1.4 45.6-19.2-20.6 3.1z"/><path fill="#eaeff4" fill-opacity=".5" d="M78 132h30v22H78z"/><circle r="1" fill="#7a7d80" fill-opacity=".5" transform="matrix(47.41976 -12.58938 .43527 1.63953 194.6 85.4)"/><path fill="#494930" fill-opacity=".6" d="M173 95l43 20-101-8z"/><path fill="#f3f7fd" fill-opacity=".2" d="M121.9 55.7l7.7-26.8L95.8 73l52.7 1.2z"/><path fill="#382011" fill-opacity=".6" d="M95.8 158.3L71.4 185l79.5-59.4-15.3 22.8z"/><circle r="1" fill="#0f1002" fill-opacity=".6" transform="matrix(-8.19298 -90.02573 3.9651 -.36085 38.7 83.3)"/><path fill="#e5e6e4" fill-opacity=".6" d="M178 87l-31 10-2-59z"/><path fill="#ebf0f2" fill-opacity=".5" d="M242.7 11.3L193 15.6l-1.6-18.9L241-7.6z"/><path fill="#2e210a" fill-opacity=".4" d="M94.3 119.6l10.1-5.1 8.9-1.1 103 15.2z"/><path fill="#898e90" fill-opacity=".5" d="M157 16h3v125h-3z"/><ellipse cx="64" fill="#91928a" fill-opacity=".6" rx="5" ry="57"/><ellipse cx="250" cy="40" fill="#383322" fill-opacity=".7" rx="11" ry="63"/><ellipse cx="183" cy="18" fill="#586068" fill-opacity=".3" rx="5" ry="48"/><path fill="#5a4939" d="M63 185l108.3-17.7 14-42.6-51.1 24.1z"/><path fill="#e9eced" fill-opacity=".4" d="M216.9 99.3l-8.5 13.8L236.5 79l-66.3 15z"/><path fill="#2d1e17" d="M132.3 143.2l-24.4 7.4 14.9-16.4v-.3z"/><path fill="#f6fbff" fill-opacity=".5" d="M66.5 164.5v-19h5v19z"/><ellipse cx="73" cy="157" fill="#2e1e17" fill-opacity=".6" rx="2" ry="29"/><ellipse cx="209" cy="37" fill="#000809" fill-opacity=".3" rx="1" ry="138"/><path fill="#7c8287" fill-opacity=".6" d="M137 0h6v25h-6z"/><path fill="#171c00" fill-opacity=".3" d="M234 50h3v48h-3z"/><path fill="#fff" fill-opacity=".5" d="M160.1 19.2l.8-23 19 .6-.8 23z"/><path fill="#3d3801" fill-opacity=".2" d="M82.3 60.8L79.1-16h-5.3l5.8 87.4z"/><path fill="#eceee3" fill-opacity=".5" d="M144.2 111.5l-10.9 5.1-13.2-3.1L105 111z"/><ellipse cx="240" cy="9" fill="#7c7769" fill-opacity=".5" rx="5" ry="34"/><path fill="#2a2618" fill-opacity=".4" d="M200.2 185l18.2-91.4 52.6 41.6-25.6-52.5z"/><path fill="#5e5136" fill-opacity=".4" d="M143 92l-64 18-5-31z"/><path fill="#fcefe7" fill-opacity=".3" d="M144.5 98.9l-89.4 21.8 60.8-18.8 80-20.8z"/><path fill="#ffe8ee" fill-opacity=".2" d="M187.4 113.7l-1.4 10.4-39.5 8.2 13.4 5.2z"/><path fill="#b3aca2" fill-opacity=".6" d="M116.8 131.6l22.4-1.2-7.7 9-7.3-5z"/><path fill="#e2e8eb" fill-opacity=".7" d="M49.2-16l9.4 4.2.2 18 5.4 74.4z"/></g></svg>