<svg xmlns="http://www.w3.org/2000/svg" viewBox="0 0 300 199"><defs/><path fill="#382e24" d="M0 0h300v199H0z"/><g transform="translate(.6 .6) scale(1.17188)"><circle cx="91" cy="96" r="205" fill="#fffefe" fill-opacity=".6"/><circle r="1" fill="#372516" fill-opacity=".4" transform="matrix(-2.19262 -26.66937 106.49616 -8.75558 92.7 117)"/><ellipse cx="14" cy="17" fill="#fdfdfb" fill-opacity=".5" rx="124" ry="82"/><circle r="1" fill="#8c6f64" fill-opacity=".7" transform="rotate(-100.7 81.3 .4) scale(51.3632 14.75556)"/><circle r="1" fill="#280a00" fill-opacity=".8" transform="matrix(-7.12369 -13.62262 7.0399 -3.68138 187.1 65.2)"/><ellipse cx="46" cy="154" fill="#88857d" rx="52" ry="41"/><path fill="#413121" fill-opacity=".6" d="M160 121l-56 7 52-66z"/><circle r="1" fill="#fdffff" fill-opacity=".5" transform="matrix(20.18977 38.61947 -19.62654 10.2605 130.8 169)"/><ellipse cx="226" cy="118" fill="#c9c9cd" fill-opacity=".7" rx="31" ry="86"/><circle r="1" fill="#d4d6d8" fill-opacity=".6" transform="rotate(-51.9 91 -173.5) scale(42.25422 49.59828)"/><path fill="#755f53" fill-opacity=".5" d="M207 185l-74-79 8-76z"/><path fill="#e3e6e6" fill-opacity=".5" d="M97.7 106.4l25.9 17.5-3 61.1-11.7-103.9z"/><path fill="#462700" fill-opacity=".5" d="M65.3 57.7L72 70l-11.4 6.3L54 64z"/><ellipse cx="179" cy="87" fill="#b69b8e" fill-opacity=".7" rx="24" ry="16"/><path fill="#f6fafa" fill-opacity=".6" d="M92 43l40-7-4 52z"/><ellipse cx="23" cy="23" fill="#eff2f2" fill-opacity=".6" rx="63" ry="47"/><path fill="#4a1000" fill-opacity=".3" d="M108.9 64.6l7.6 16.3L81 97.4l-7.6-16.3z"/><path fill="#051203" fill-opacity=".4" d="M128.9 138.6l4.5.4 7.8-21.2-31.5-36.2z"/><path fill="#240600" fill-opacity=".6" d="M140 55l-3.7-15.7 9.8-2.2 3.6 15.6z"/><path fill="#5a4d42" fill-opacity=".6" d="M116.6 125.2l-90 54.1-5.2-8.5 90-54.1z"/><path fill="#dcdcdc" fill-opacity=".6" d="M121-16l54 57-3 48z"/><circle r="1" fill="#a1a5a5" fill-opacity=".5" transform="matrix(41.91864 -24.09246 9.11747 15.86355 25.4 139.8)"/><circle r="1" fill="#2a1a0e" fill-opacity=".5" transform="matrix(1.04883 3.95353 -59.77437 15.8575 32 112.3)"/><ellipse cx="147" cy="151" fill="#dee0e1" fill-opacity=".6" rx="6" ry="27"/><path fill="#fff" fill-opacity=".5" d="M109 90l-7 14-3-20z"/><path fill-opacity=".5" d="M199 81l-22-30 14-3z"/><path fill="#452115" fill-opacity=".4" d="M96 27l-5 32-4-27z"/><path fill="#b28a79" fill-opacity=".5" d="M151 89l-13-46-13 65z"/><path fill="#3c3022" fill-opacity=".5" d="M125 88l15 35 39-4z"/><path fill="#eff7fa" fill-opacity=".4" d="M156.2 80l5-39.5-3.6 61 18.1-1.5z"/><path fill="#ecf2f1" fill-opacity=".5" d="M87 72l-103 39 29-41z"/><path fill="#766258" fill-opacity=".6" d="M173 143.3L202.2 73l-50.3 62.6-29.2.1z"/><path fill="#dfe0df" fill-opacity=".9" d="M101.2 56.3L85.7-5.6l60.8 35.7-51.2 41.7z"/><circle cx="225" cy="27" r="43" fill="#b6b6b7" fill-opacity=".6"/><circle r="1" fill="#767068" fill-opacity=".5" transform="matrix(-1.18135 -9.27365 8.95716 -1.14103 255 10.4)"/><path fill="#fbfafa" fill-opacity=".5" d="M88 50L60 15l-3 31z"/><circle r="1" fill="#79493a" fill-opacity=".5" transform="rotate(44.4 -22.4 248) scale(21.76947 2.3753)"/><path fill="#d0cfcf" fill-opacity=".8" d="M173 65l-5-57-22 44z"/><path fill="#644537" fill-opacity=".9" d="M94.3 82.7l18.6-4.3-2.9-12.5-6.8-1.3z"/><circle r="1" fill="#d6baae" fill-opacity=".5" transform="matrix(-2.56719 17.89316 -2.35287 -.33757 87.3 127.7)"/><path fill="#e3e8ea" fill-opacity=".4" d="M169.5 146.2l18.3 3.8-65.1 4.9-20.5-21.3z"/><path fill="#593730" fill-opacity=".7" d="M79.3 100.9L60 103.7l40.9 3.1-12.3-23.4z"/><path fill="#000501" fill-opacity=".4" d="M117.8 112.3l21.4 1.1 15 10.6-28.2 5.4z"/><path fill="#8d8f87" fill-opacity=".5" d="M170 122h25v48h-25z"/><path fill="#9c7f74" fill-opacity=".8" d="M94.1 93.4L78.2 55.5l-3.4 15.3 25.9-24z"/><path fill="#907764" d="M117.6 90.4l-27.1-7.5 33.1-.3 9.5 24.8z"/><path fill="#d1d1d3" fill-opacity=".6" d="M195 86h37v64h-37z"/><path fill="#bdbdbd" fill-opacity=".6" d="M102 21.9L62.9 6.4 1.9-16l40 23.6z"/><path fill="#c0cab4" fill-opacity=".4" d="M126.7 103.8l-15.9 17.9 10.9-3.6-25.4-9.1z"/><circle r="1" fill="#7f7160" fill-opacity=".4" transform="rotate(-144.4 64.4 58.6) scale(29.48735 16.37447)"/><path fill="#f5fbfc" fill-opacity=".3" d="M139 93.8l-31.7-31.1 34.9 22.9-2.1.9z"/><path fill="#b0afad" fill-opacity=".7" d="M201 151l-16 34 84-21z"/><path fill="#eadecd" fill-opacity=".2" d="M77 94l-11.9 5-70 14.9L97 54.6z"/><path fill="#e8e8e6" fill-opacity=".9" d="M108.1 54.7L87.4 19.6l47.3 66.2-20.5-7z"/><path fill-opacity=".3" d="M196 119v3l-26-1v-3z"/><path fill="#a49d9b" fill-opacity=".4" d="M51 0h3v47h-3z"/><ellipse cx="196" cy="78" fill="#5a321d" fill-opacity=".5" rx="4" ry="9"/><path fill="#a7a29f" d="M137.1 127.6l4.2 12.6 13.6 4.8-23.1-12.9z"/><path fill="#3e4c2f" fill-opacity=".5" d="M117.5 125.5l-8.6-20.5 24.6-14.2-25 23z"/><path fill="#5b3806" fill-opacity=".2" d="M48.9 60.6l10 7.7L62 87.8l8.5-27z"/><path fill="#ddd9dc" fill-opacity=".5" d="M105.3 113.7l-4.5-14.5 28.8-30.5-16.4 21.9z"/><circle r="1" fill="#1d0902" fill-opacity=".7" transform="matrix(2.16416 -9.08419 6.0666 1.44527 186 59.6)"/><path fill="#c0bebf" fill-opacity=".6" d="M218 123l53-57-101-77z"/><path fill="#1a120f" fill-opacity=".5" d="M85 32l1 5 9-4z"/><path fill="#474642" fill-opacity=".5" d="M34.1 164l30.7-17.7 11.8-1L20 185z"/></g></svg>