<svg xmlns="http://www.w3.org/2000/svg" viewBox="0 0 299 449"><defs/><path fill="#403429" d="M0 0h299v449H0z"/><g transform="translate(.9 .9) scale(1.7539)"><ellipse cx="52" cy="75" fill="#d2d1ca" fill-opacity=".8" rx="132" ry="210"/><circle r="1" fill="#140000" fill-opacity=".4" transform="matrix(-17.27041 81.2509 -19.27335 -4.09668 130.9 76.2)"/><circle r="1" fill="#f4f5f2" fill-opacity=".8" transform="matrix(-51.08518 2.98056 -3.36876 -57.73871 73.5 222.2)"/><circle r="1" fill="#726e60" fill-opacity=".8" transform="matrix(18.73547 72.04289 -24.46365 6.36201 149.7 214.5)"/><circle r="1" fill="#030f00" fill-opacity=".5" transform="matrix(29.5025 -12.6448 2.10653 4.91491 34.3 163.6)"/><circle r="1" fill="#331400" fill-opacity=".5" transform="matrix(-13.23156 -16.03666 25.67364 -21.18285 126 64.6)"/><circle cx="58" cy="117" r="24" fill="#fff" fill-opacity=".6"/><circle r="1" fill="#d8dcd9" fill-opacity=".6" transform="matrix(-26.239 -38.44081 70.63843 -48.2165 31 59.1)"/><circle r="1" fill="#8c938e" transform="matrix(19.03881 -17.26334 66.0863 72.88304 161.6 21.3)"/><circle r="1" fill="#6a684f" fill-opacity=".8" transform="matrix(16.6751 -53.82026 8.1511 2.52545 0 207.5)"/><circle r="1" fill="#cacfd0" fill-opacity=".5" transform="matrix(-14.6292 3.78337 -20.52925 -79.38072 161.3 146.9)"/><ellipse cx="66" cy="159" fill="#312d00" fill-opacity=".4" rx="30" ry="5"/><ellipse cx="132" cy="241" fill="#5f5a4f" fill-opacity=".9" rx="8" ry="49"/><ellipse cx="170" cy="77" fill="#7d8381" fill-opacity=".6" rx="21" ry="34"/><ellipse cy="122" fill="#f0f1ef" fill-opacity=".7" rx="9" ry="58"/><ellipse cx="25" cy="252" fill="#efefec" fill-opacity=".8" rx="101" ry="17"/><path fill="#451e08" fill-opacity=".6" d="M99.7 63.1l3.3 3.7L76.3 91 73 87.2z"/><circle r="1" fill="#f3f1eb" fill-opacity=".9" transform="matrix(-19.89696 9.66438 -6.31094 -12.99292 96.7 174.7)"/><circle cx="139" cy="50" r="12" fill-opacity=".6"/><path fill="#e0e2e2" fill-opacity=".5" d="M140 119h31v50h-31z"/><ellipse cx="69" cy="196" fill="#5b5e58" fill-opacity=".3" rx="170" ry="5"/><path fill="#fff" fill-opacity=".5" d="M127 96l-1 23-10-16z"/><path fill="#fffdf1" fill-opacity=".3" d="M105.9 20.3l5 60.7 24.3-9.8-56-14z"/><circle r="1" fill="#40380b" fill-opacity=".4" transform="matrix(-20.22095 20.79366 -1.82555 -1.77527 49.3 88.4)"/><path fill="#4d3e22" fill-opacity=".4" d="M35.5 119.7L24 79.5l5.5 57.8 24.8-72.5z"/><path fill="#f2e1d8" fill-opacity=".5" d="M10 156l98-21-1-31z"/><circle r="1" fill="#adb2b0" fill-opacity=".6" transform="matrix(14.33298 -12.86025 22.65993 25.2549 111.3 11.7)"/><path fill="#461400" fill-opacity=".3" d="M141 83l-33 65 24 15z"/><circle cx="161" cy="203" r="33" fill="#757164" fill-opacity=".7"/><circle r="1" fill="#fffdfb" fill-opacity=".6" transform="rotate(-113.2 83 72.5) scale(10.0248 23.30927)"/><path fill="#393326" fill-opacity=".6" d="M33 106.7L16.4 216.6l13.1-67.1 3.9-35.3z"/><ellipse cx="8" cy="22" fill="#45554d" fill-opacity=".4" rx="4" ry="26"/><ellipse cx="26" cy="59" fill="#f0ece9" fill-opacity=".6" rx="25" ry="16"/><path fill="#fff" fill-opacity=".5" d="M6 209h12v30H6z"/><ellipse cx="9" cy="177" fill="#302508" fill-opacity=".5" rx="3" ry="31"/><path fill="#966542" fill-opacity=".3" d="M80.4 135.3l19.2 23.4-37.6 8.6-5.5-29.1z"/><path fill="#5b4133" fill-opacity=".7" d="M113.5 132.1l19.5.7-32.7-43 25.4-18.6z"/><path fill="#ecf2ef" fill-opacity=".6" d="M37.8 101.9l-9.4 55.5 23.2-4.8-9.7-25.5z"/><path fill="#010000" fill-opacity=".5" d="M19 195h3v36h-3z"/><path fill="#53410f" fill-opacity=".3" d="M62.6 75.7L52.4 48.1l.2 43.9-9.1 6.4z"/><path fill="#222510" fill-opacity=".7" d="M166.2 248.4l-5.5-13.1-6.5 3.1-13.5 6.9z"/><path fill="#5a432d" fill-opacity=".5" d="M41.9 124.9l6.1-7.2.9 4.2-3.6 9z"/><path fill="#2d3715" fill-opacity=".7" d="M22.6 164.5l1.8-5.4 40.1-9-47.7 24z"/><circle r="1" fill="#c69c78" fill-opacity=".5" transform="matrix(4.43587 -5.38001 19.35506 15.9584 84.3 110.6)"/><path fill="#fff" fill-opacity=".3" d="M63 75l-16 58 47 3z"/><path fill="#cccfce" fill-opacity=".7" d="M133.4 72.6l36 105.4 8.4-40.5-33-51.6z"/><path fill="#f4f2f5" fill-opacity=".7" d="M93 79.1l-4.3 27.3L78.6 92l9.8-8.4z"/><path fill="#eeeee9" fill-opacity=".6" d="M126.5 270l-3.6-84.8-9.4 10.2-83.1 14z"/><circle r="1" fill="#271503" fill-opacity=".5" transform="matrix(7.45603 -4.26554 7.16868 12.53062 125.4 53.3)"/><path fill="#5d3b29" fill-opacity=".5" d="M77 36h3v22h-3z"/><path fill="#f3f6ed" fill-opacity=".3" d="M110 157l72 15-33-21z"/><circle r="1" fill="#5c4019" fill-opacity=".5" transform="matrix(13.38364 -43.23555 .95528 .2957 20.4 143.3)"/><path fill="#371e0f" fill-opacity=".4" d="M11.1 256.6l7.9-25.8 1.9.6-7.9 25.8z"/><path fill="#f1efec" fill-opacity=".4" d="M21 204l93-47-88 14z"/><path fill="#6d4b37" fill-opacity=".5" d="M148.7 64.2l-38.2 40.9-13.9-41.4L71 83.3z"/><path fill="#e0c4a9" fill-opacity=".3" d="M6.5 180.8l7.7-32 11.4 33.1-38.2-33.1z"/><path fill="#f6f4f2" fill-opacity=".5" d="M102.7 45.8l5.1 14.1-22.5 8.3L80.2 54z"/><path fill="#a5bbc9" fill-opacity=".5" d="M10 0h32v45H10z"/><path fill="#f2f6fb" fill-opacity=".4" d="M54 0h9v55h-9z"/><path fill="#66513a" fill-opacity=".5" d="M49 123l-10 14 7-20z"/><path fill="#999382" fill-opacity=".7" d="M-8 260l-8-33 25-2z"/><path fill="#f7a57a" fill-opacity=".2" d="M113.1 64.8L94.7 48l24.8 33.9 17.4-21.5z"/><path fill="#050200" fill-opacity=".6" d="M140.6 38.9l-21.8 4.8 33.1 25.9 1.1-16.5z"/><path fill="#fff7f1" fill-opacity=".5" d="M96 90h7v18h-7z"/><path fill="#38342e" fill-opacity=".5" d="M19 202l-1-15 8-12z"/></g></svg>