<svg xmlns="http://www.w3.org/2000/svg" viewBox="0 0 300 199"><defs/><path fill="#453931" d="M0 0h300v199H0z"/><g transform="translate(.6 .6) scale(1.17188)"><circle r="1" fill="#f2f8fd" fill-opacity=".7" transform="rotate(51.3 72.5 277) scale(214.98518 39.83291)"/><circle r="1" fill="#fffef0" fill-opacity=".6" transform="matrix(-23.45104 91.29608 -10.03691 -2.57816 173.2 25)"/><circle r="1" fill-opacity=".7" transform="matrix(-75.39899 15.54283 -8.55813 -41.51587 175.2 150.8)"/><circle r="1" fill="#251604" fill-opacity=".8" transform="rotate(-82.7 56.4 10.4) scale(255 48.53941)"/><ellipse cx="100" cy="91" fill="#f6a934" fill-opacity=".5" rx="18" ry="49"/><path fill="#110b04" fill-opacity=".6" d="M195 28l-70 157 146-9z"/><path fill="#d5dade" fill-opacity=".9" d="M271 168.8l-33.2-57.2L199 27.8l34.6-39.9z"/><circle r="1" fill="#160400" fill-opacity=".7" transform="matrix(-3.5556 -34.40679 19.08027 -1.97175 136.3 60)"/><path fill="#c6afa1" fill-opacity=".8" d="M151.6 117.5l-26.4 1.1 15.7-12.2 32.2-26.9z"/><ellipse cx="43" cy="154" fill="#070a09" fill-opacity=".9" rx="160" ry="17"/><circle r="1" fill="#dfcdc4" fill-opacity=".4" transform="matrix(10.10007 -26.32672 22.80838 8.75029 181.5 29.4)"/><path fill="#ffb243" fill-opacity=".4" d="M74 85h28v39H74z"/><ellipse cx="127" fill="#221000" fill-opacity=".7" rx="39" ry="28"/><path fill="#ffc33b" fill-opacity=".4" d="M122.6 11.7l7.4 5.1-20.6 29.5-7.4-5.1z"/><path fill="#502b0b" fill-opacity=".7" d="M64.7 99.5l27.1-12.2 11.4-65.9L40.6 33z"/><path fill="#311d08" fill-opacity=".7" d="M106.2 121.8l-2.2-20.9 25.8-2.7 2.2 20.9z"/><path fill="#f8e3e1" fill-opacity=".5" d="M119.2 91.4l14.9-12.2-15.5 25-14.9-11.9z"/><path fill="#76614e" fill-opacity=".5" d="M224-.5l-29.8 20.1-6.2-9 29.8-20.2z"/><path fill="#fcc24d" fill-opacity=".7" d="M106.1 38.5l-7.3 3.7-2.9 33.3 16-2.8z"/><path fill="#211205" d="M110.3 91.6l-4 .4 55-103.8-14.8 88.7z"/><ellipse cx="190" cy="85" fill="#150a01" fill-opacity=".4" rx="24" ry="42"/><path fill="#54636a" fill-opacity=".4" d="M231.6-3.4L254.2-16 271 23.2l-24.1-2.7z"/><path fill="#f8ae4f" fill-opacity=".5" d="M108 141l-8-17 24-6z"/><ellipse cx="163" cy="55" fill="#edcec1" fill-opacity=".5" rx="6" ry="45"/><path fill="#46290e" fill-opacity=".9" d="M-16 45.1l65.4 56.4 49.5 27.8-24.4 18.3z"/><path fill="#342d23" fill-opacity=".5" d="M264 158l-75-11 24-84z"/><circle r="1" fill="#000203" fill-opacity=".6" transform="matrix(8.19944 -4.74817 17.42533 30.09119 45.4 85.6)"/><path fill="#584a40" d="M164.7 83.3l4.4-15.4 11.2-26.2 18.9 4z"/><path fill="#0b0000" fill-opacity=".5" d="M107 94l13 15-28-9z"/><path fill="#ffd456" fill-opacity=".5" d="M82 106h26v8H82z"/><path fill-opacity=".5" d="M126 93h20v13h-20z"/><circle r="1" fill="#171914" transform="matrix(21.31423 -41.67927 27.87473 14.25477 0 135.6)"/><path fill="#f4b74c" fill-opacity=".5" d="M126 124l-1-14-10 14z"/><path fill="#fff6ef" fill-opacity=".5" d="M135 107h14v10h-14z"/><path fill="#1b0d00" fill-opacity=".6" d="M79.1 2.9l38-2.7 1.8 27-38 2.6z"/><path fill="#1d0c00" fill-opacity=".5" d="M109 51l55-66-40 97z"/><path fill="#060503" fill-opacity=".6" d="M141.2 119.7l-12.4-6.9-29 72.2 107.6-38.9z"/><path fill="#e6e3de" fill-opacity=".3" d="M160.8-7.9l27.3 64.6 15.3-41.9-37 10.7z"/><path fill="#d98637" fill-opacity=".3" d="M122.4 35.1l15.1-19-18.5-1.7-14 31z"/><path fill="#0e0904" fill-opacity=".7" d="M161.8 185l34.1-147.3 2.2 9.7 13.6 29.9z"/><path fill="#2e1402" fill-opacity=".8" d="M103.4 26l28.7-4 .5 4-28.7 4z"/><path fill="#ffcf63" fill-opacity=".4" d="M113 94L91 83l-7 16z"/><path fill="#703917" fill-opacity=".5" d="M84 76.5l-3.9 47.8-19.4-14.8 2.4-32.2z"/><path fill="#231204" fill-opacity=".7" d="M154.8 118.7l-51.7 2 25.4-25.6-7.3 24.9z"/><circle r="1" fill="#5e3a14" fill-opacity=".5" transform="rotate(143.1 -2.2 44) scale(5.09188 67.12184)"/><path fill="#0c0a01" fill-opacity=".4" d="M7 126l84 1 48 58z"/><path fill="#eec6b4" fill-opacity=".6" d="M163 88l-21 28 23-72z"/><path fill="#f9f0f1" fill-opacity=".5" d="M122 102l-18-10 17 2z"/><path fill="#bbb4ad" fill-opacity=".5" d="M145 87l-8 4 7-9z"/><ellipse cx="238" cy="44" fill="#e0e4ea" fill-opacity=".2" rx="40" ry="25"/><path fill="#190f06" fill-opacity=".6" d="M141.8 127.8l59.4-16.9L176.6 56l-10.3 39.5z"/><path fill="#c7cacb" fill-opacity=".9" d="M171.5-16l11.2 42.9 14-24.6-40.1 34.3z"/><path fill="#e6ac4b" fill-opacity=".4" d="M106.9 142.6l-17.5-61-8.7 33 14.5 15.5z"/><path fill="#693f17" fill-opacity=".5" d="M74.5 81.9L72 85 21.5 44.1 24 41z"/><circle r="1" fill="#100e09" fill-opacity=".7" transform="matrix(-33.01402 -65.66709 4.65227 -2.33892 255 169)"/><path fill="#d99033" fill-opacity=".5" d="M130.6 26.5l-12.7 1.9-14.2 4.7-4.1 18.7z"/><path fill="#170d01" fill-opacity=".7" d="M69 0h87v13H69z"/><path fill="#e4e5e9" fill-opacity=".5" d="M181.9 26.8l31.4 12.1 35.8-30.3-38 3.6z"/><path fill="#b88263" fill-opacity=".3" d="M163.2 46.9L155.9 65V38l29-19z"/><path fill="#1e1208" d="M137.5 107.1l-26.7 8.3 25.7-31.7 9.8-15.6z"/><path fill="#ebb94c" fill-opacity=".8" d="M106.4 51.6l-4.3-2.9-5.2 21.4 19.8 4.2z"/><path fill="#0c0600" fill-opacity=".6" d="M32.2 45.3l16.5 14.9L29.4 6.1 8.9-16z"/><circle r="1" fill="#051110" fill-opacity=".5" transform="matrix(-6.21366 3.41732 -23.56162 -42.8418 7 33.3)"/><circle r="1" fill="#dcc4b4" fill-opacity=".5" transform="matrix(.57641 9.19758 -7.35927 .4612 161 88.6)"/><path fill="#382e26" d="M165.7 82.2l18.5-10.4 7.4-15-21.4 8.8z"/></g></svg>