<svg xmlns="http://www.w3.org/2000/svg" viewBox="0 0 300 199"><defs/><path fill="#674636" d="M0 0h300v199H0z"/><g transform="translate(.6 .6) scale(1.17188)"><circle r="1" fill="#e8dfc1" fill-opacity=".7" transform="matrix(95.11188 -236.59824 50.41285 20.26584 214.8 122.7)"/><circle r="1" fill="#ffe2d3" fill-opacity=".5" transform="matrix(-2.53656 145.3193 -41.84449 -.7304 53 169)"/><path fill="#5e391d" fill-opacity=".7" d="M71 30h125v84H71z"/><circle r="1" fill="#f5e1b8" fill-opacity=".6" transform="matrix(-1.3258 -21.35629 45.16062 -2.80355 170.8 4.7)"/><ellipse cx="96" cy="150" fill="#efc89e" fill-opacity=".5" rx="255" ry="25"/><path fill="#e8e2d5" fill-opacity=".7" d="M29 79.3l45.2-124L95-37.4l-45.1 124z"/><circle r="1" fill="#1a0d00" fill-opacity=".6" transform="matrix(24.57372 11.92505 -16.73032 34.47585 4.2 49.7)"/><ellipse cx="234" cy="58" fill="#bddbf7" fill-opacity=".4" rx="22" ry="169"/><circle r="1" fill="#e6c58f" fill-opacity=".5" transform="matrix(8.60636 -5.561 9.71264 15.03158 155 65.5)"/><path fill="#35241f" fill-opacity=".8" d="M73.7 11.5l10 66.2-85.9 35.8 79.8-46.6z"/><ellipse cx="55" fill="#c8ae8d" fill-opacity=".6" rx="59" ry="10"/><circle r="1" fill="#d2a263" fill-opacity=".7" transform="rotate(-4.6 1882.6 -1969.7) scale(25.77646 32.58116)"/><circle r="1" fill="#1e0a00" fill-opacity=".6" transform="matrix(4.7315 -.91836 12.5754 64.79029 164.5 21.4)"/><circle r="1" fill="#3f1000" fill-opacity=".3" transform="matrix(14.48134 .49826 -4.40187 127.93465 131.2 150.3)"/><path fill="#b68c59" fill-opacity=".7" d="M195 116l-17-97 43 55z"/><path fill="#febf84" fill-opacity=".5" d="M101.1 5.8l-6.6 34.1-13.8-13.5L93.9-5.7z"/><ellipse cx="17" cy="167" fill="#ffe2e1" fill-opacity=".4" rx="33" ry="29"/><path fill="#896f60" fill-opacity=".8" d="M70.7 97.2l-10.6 78.2-18.6-29.8 65-35.2z"/><ellipse cx="218" cy="132" fill="#ffeab8" fill-opacity=".5" rx="19" ry="39"/><circle r="1" fill="#cdb6a6" transform="matrix(-3.84676 -28.57765 23.77868 -3.20079 89.8 169)"/><ellipse cx="186" fill="#fff2d7" fill-opacity=".6" rx="24" ry="13"/><path fill="#fffcd9" fill-opacity=".4" d="M162.7 116.6l11.1 29-20.5 7.8-11.1-29z"/><path fill="#6c7e83" fill-opacity=".6" d="M235.9 141.6l10.4 43.4 24.7-40.2-6.9-3.4z"/><path fill="#2c1812" fill-opacity=".6" d="M84.9 58.1l7.5 33.7-26.9-9.2-.9-27.3z"/><path fill="#3f1100" fill-opacity=".4" d="M128 82h71v27h-71z"/><path fill="#d2a56b" fill-opacity=".5" d="M125 17l4.7 23.5-12.8 2.5-4.6-23.5z"/><ellipse cx="115" cy="122" fill="#784017" fill-opacity=".5" rx="31" ry="17"/><path fill="#fae1ba" fill-opacity=".5" d="M152.8-1.2L163 19.5l-19.7 9.7L133 8.5z"/><path fill="#150800" fill-opacity=".5" d="M111 51h31v37h-31z"/><path fill="#cf8f44" fill-opacity=".4" d="M220 151l-114-7 26 29z"/><circle r="1" fill="#fbdfc9" fill-opacity=".8" transform="rotate(-119.9 41 13.6) scale(17.37036 13.76334)"/><path fill="#997750" fill-opacity=".6" d="M206.8 6.4l-36.5 14.9 18.1 33.5 17-11.4z"/><path fill="#efb8ac" fill-opacity=".5" d="M30.2 169.7l-2.4-55.6 47-30-3 23.7z"/><path fill="#c2a87e" fill-opacity=".6" d="M172 89l-12-57-6 25z"/><path fill="#a8b5b9" fill-opacity=".8" d="M69.2 53.7l-20.3-22 18.4-46.6 8.6 73.5z"/><ellipse cx="80" cy="6" fill="#8b4c31" fill-opacity=".8" rx="7" ry="29"/><circle r="1" fill="#5b3d25" fill-opacity=".4" transform="matrix(12.39049 -38.7697 9.86622 3.15317 15.5 87.5)"/><path fill="#fabf6c" fill-opacity=".3" d="M167 166l64-78-43 8z"/><circle r="1" fill="#775028" fill-opacity=".6" transform="matrix(-16.1998 -13.97038 8.50764 -9.8653 115.7 7.4)"/><circle r="1" fill="#a5b0b6" fill-opacity=".5" transform="matrix(-14.86893 5.84599 -33.03357 -84.01894 239.3 86.5)"/><circle cx="197" cy="63" r="19" fill="#bda279" fill-opacity=".5"/><ellipse cx="175" cy="85" fill-opacity=".2" rx="5" ry="59"/><ellipse cx="46" fill="#e5dfce" fill-opacity=".6" rx="29" ry="4"/><path fill="#533618" fill-opacity=".5" d="M9 5l33 30L57 5z"/><ellipse cx="227" cy="161" fill="#fef2e5" fill-opacity=".5" rx="11" ry="54"/><path fill="#785a45" fill-opacity=".6" d="M16.8 104.5l24.2-16-12.9-.9L-16 71.1z"/><path fill="#9c6b39" fill-opacity=".4" d="M152.5 96.9l37 77.8-41.7-151 14.4 80.3z"/><circle r="1" fill="#38210b" fill-opacity=".5" transform="matrix(4.39217 -2.09347 11.69487 24.53629 172.6 34.4)"/><path fill="#c9d8e4" fill-opacity=".3" d="M195.2-6.7L259-2.2l-2.2 30.9-63.8-4.5z"/><path fill="#532905" fill-opacity=".4" d="M200 36l-13-19 3 38z"/><path fill="#180302" fill-opacity=".6" d="M-5.9 128.5l11.1-3.8 7.7-4.3 5.9-17.3z"/><circle r="1" fill="#e8ca98" fill-opacity=".5" transform="matrix(-8.0965 17.9062 -28.28062 -12.7874 203.4 134)"/><ellipse cx="93" cy="4" fill="#fdedc6" fill-opacity=".5" rx="5" ry="13"/><circle r="1" fill="#e1b18b" fill-opacity=".4" transform="matrix(2.89074 9.36498 -23.64517 7.29867 40.2 78.8)"/><path fill="#8b553d" fill-opacity=".5" d="M95 39h11v95H95z"/><path fill="#c1864a" fill-opacity=".5" d="M148.7 137.7l9.1 32.4-37.3 1.6 34.2-68.6z"/><path fill="#aa4131" fill-opacity=".4" d="M22 132.7l-5.3 11.4-8.9-21.7 7.2-6.1z"/><path fill="#542605" fill-opacity=".5" d="M128.4 150.7l11.8-45.9-8.2 1.9-15.6 28.3z"/><path fill="#b19987" fill-opacity=".5" d="M128.7 158.8l-65.3-8.6-6.6-19.2 24-11.6z"/><path fill="#edbbb6" fill-opacity=".5" d="M67 82l10 20-34-8z"/><path fill-opacity=".5" d="M15.8 107.1l-1-1.7 57.4-30.5 1 1.7z"/><circle r="1" fill="#c59453" fill-opacity=".6" transform="rotate(76.1 11.2 190.5) scale(30.33139 2.28427)"/><path fill="#feebc9" fill-opacity=".5" d="M151 116h14v19h-14z"/><path fill="#ffe9bf" fill-opacity=".3" d="M180.4-16L165.9 6.7l9.6 27.2h3.9z"/><ellipse cx="200" cy="99" fill="#ae681a" fill-opacity=".3" rx="10" ry="17"/></g></svg>