<svg xmlns="http://www.w3.org/2000/svg" viewBox="0 0 299 449"><defs/><path fill="#5a3e36" d="M0 0h299v449H0z"/><g transform="translate(.9 .9) scale(1.7539)"><circle r="1" fill="#fff" fill-opacity=".8" transform="matrix(-16.66684 -29.8218 140.74623 -78.6604 47.2 0)"/><circle cx="130" cy="231" r="84" fill="#d7f3e7" fill-opacity=".5"/><circle r="1" fill="#c6b49d" fill-opacity=".5" transform="rotate(-120.9 61.2 35.9) scale(77.33793 27.85457)"/><circle r="1" fill="#a2b8b2" fill-opacity=".5" transform="matrix(9.25645 39.77722 -29.52799 6.87138 148.3 23.3)"/><circle r="1" fill="#eff1ef" fill-opacity=".8" transform="matrix(8.7957 23.89214 -29.38846 10.81913 163 182.6)"/><circle r="1" fill="#030e14" fill-opacity=".6" transform="matrix(44.77776 9.71521 -8.31585 38.32805 141 106.3)"/><circle r="1" fill="#6a685b" fill-opacity=".7" transform="matrix(-36.53674 -13.95202 31.41768 -82.27478 54.1 222.6)"/><ellipse cx="67" cy="125" fill="#e7e1d6" fill-opacity=".6" rx="29" ry="12"/><path fill="#fffffd" fill-opacity=".3" d="M147-13L-2 79l-2-64z"/><path fill="#b3a69c" fill-opacity=".5" d="M135 0h14v100h-14z"/><circle r="1" fill="#5a442d" fill-opacity=".7" transform="rotate(-60.9 103.3 12.6) scale(13.6638 35.86142)"/><circle cx="70" cy="83" r="10" fill="#fffff8" fill-opacity=".7"/><circle r="1" fill="#000507" fill-opacity=".5" transform="rotate(-44.5 108 -56.3) scale(10.17653 23.46671)"/><path fill="#635c4f" d="M-3 193L59 84l-69 51z"/><path fill="#4a2c1e" fill-opacity=".6" d="M140 80l11-48 21 35z"/><path fill="#737367" fill-opacity=".5" d="M130 166l47-14-117-30z"/><circle cx="132" cy="255" r="26" fill="#c3c5c1" fill-opacity=".5"/><circle r="1" fill="#596056" fill-opacity=".6" transform="rotate(-9.3 300.3 -636.3) scale(27.38247 29.78279)"/><path fill="#f5f1e6" fill-opacity=".5" d="M92.1 104.6l-11.6-2.4-8.4 5 8.1 27z"/><path fill="#ecebe3" fill-opacity=".6" d="M48 139.1l-7.9-18.6 19.3-7.5L72 140.4z"/><circle r="1" fill="#423a2a" fill-opacity=".5" transform="matrix(-34.1847 44.21826 -3.56969 -2.7597 10.6 81.5)"/><path fill="#80533d" fill-opacity=".8" d="M73.2 105.1l3.1 32.6-14.7-21.1-20.7-50.7z"/><path fill="#ffe0b7" fill-opacity=".5" d="M136.9 34.4l-7.2 26.3 21-15.2-4.8-10.3z"/><path fill="#fff5e5" fill-opacity=".6" d="M42 46.7l10.8-1.3 1.3 9.9-11 1.3z"/><path fill="#c8cac7" fill-opacity=".6" d="M99 146l19 15-7-23z"/><circle r="1" fill="#6f7469" fill-opacity=".4" transform="matrix(-89.58109 17.16335 -5.61483 -29.30562 47.4 226.8)"/><path fill="#0c0a0d" fill-opacity=".7" d="M106 118l19-36 61 75z"/><circle r="1" fill="#384843" fill-opacity=".5" transform="matrix(-17.80523 41.94649 -18.05076 -7.6621 20.1 180.9)"/><path fill="#595246" fill-opacity=".9" d="M115.5 91.9l-20.4 25.3-9-20.2 17.5 38.9z"/><circle r="1" fill="#674d3d" fill-opacity=".6" transform="matrix(32.96974 9.95415 -3.41213 11.30151 66 153.7)"/><path fill="#63664e" fill-opacity=".6" d="M44.7 38.1l42.8-21.8 1.8 3.6-42.8 21.8z"/><ellipse cx="167" cy="90" fill="#08070c" fill-opacity=".6" rx="16" ry="28"/><path fill="#2c1f12" fill-opacity=".5" d="M83 89l-12 6 20 5z"/><path fill="#e0b693" fill-opacity=".4" d="M-16 86L7 54l39-3z"/><path fill="#f1f3f1" fill-opacity=".5" d="M149 166l37-19-14 81z"/><path fill="#ffdbd0" fill-opacity=".5" d="M39 62h14v7H39z"/><path fill="#978f84" fill-opacity=".4" d="M142 165.1l-57.3 74.5-1.6-80 65.8 26.3z"/><path fill="#efffc2" fill-opacity=".5" d="M41 94h7v7h-7z"/><path fill="#a3a6a3" fill-opacity=".7" d="M60.8 39.8l8.6-1.8-53.3-13-32.1-4.4z"/><path fill="#f8faf3" fill-opacity=".6" d="M65 24l40-40-117 36z"/><circle r="1" fill="#7d8688" fill-opacity=".9" transform="matrix(10.9139 -16.52988 35.03767 23.13372 151.7 10.6)"/><path fill="#575b44" fill-opacity=".5" d="M2.5 15.8l62.6-26.5.4.9L2.9 16.7z"/><path fill="#000407" fill-opacity=".4" d="M61 43h24v29H61z"/><path fill="#574134" fill-opacity=".8" d="M47.2 114.4l-8.7 5.4 7.4 53L18 61.9z"/><circle r="1" fill="#eaf0f2" fill-opacity=".5" transform="rotate(123.2 10.8 170.6) scale(4.72566 16.15036)"/><path fill="#6f6f64" fill-opacity=".6" d="M144 11L90 79l37-17z"/><path fill="#808a8c" d="M161.6 54.8l3.6-34.3 4.7-.3 16.1 58z"/><path fill="#4b5149" fill-opacity=".4" d="M169.8 145.6l-54.4 23 5.5-33.6 17.6 8.2z"/><path fill="#757362" fill-opacity=".4" d="M140 237l7 34-33-34z"/><path fill="#654838" fill-opacity=".9" d="M159 32.8l-19.9 28.4 10.3 22.5 12.5-32z"/><ellipse cx="56" cy="143" fill="#0e1806" fill-opacity=".6" rx="11" ry="3"/><path fill="#a4adc0" fill-opacity=".5" d="M141 81h7v21h-7z"/><path fill="#f6f9f2" fill-opacity=".6" d="M11.3 53.3L6 58.5l-22-36.4 63.5 15.2z"/><path fill="#b07962" fill-opacity=".4" d="M75.6 71.3L15.7 94.2l37.7-63.8L7.8 59.8z"/><circle r="1" fill="#292a26" fill-opacity=".5" transform="matrix(18.4411 -25.01289 3.83226 2.82539 9.8 87.4)"/><path fill="#ffebd6" fill-opacity=".5" d="M29 72V59l6-3z"/><path fill="#f0f1f0" fill-opacity=".5" d="M177.4 214.6l-49.5-26.3 4.7-8.9 49.5 26.3z"/><path fill="#837262" fill-opacity=".8" d="M105.5 147.5l-41.2 3.2 9.6-19.8 22.8 5.6z"/><path fill="#eff6e3" fill-opacity=".3" d="M60.1 78.1l14.6-7.2-2 24.3L89.6 88z"/><path fill="#07070c" fill-opacity=".4" d="M99 104l47-26-43-8z"/><path fill="#83918d" fill-opacity=".2" d="M-16 118.8l8.7 43.5 37.4-3.6 13.1-16.5z"/><path fill="#d2cdc3" fill-opacity=".5" d="M83 133.4L75.7 118l15.3-7.5 7.5 15.3z"/><circle cx="69" cy="229" r="40" fill="#79766a" fill-opacity=".4"/><path fill="#43201a" fill-opacity=".6" d="M54.2 86.4l-1.7 8.8-18.7-3.6 1.7-8.8z"/><path fill="#fdeee2" fill-opacity=".6" d="M37.5 81.6v-5l7-.2v5z"/></g></svg>