<svg xmlns="http://www.w3.org/2000/svg" viewBox="0 0 300 199"><defs/><path fill="#40212c" d="M0 0h300v199H0z"/><g transform="translate(.6 .6) scale(1.17188)"><circle cx="97" r="110" fill="#b0a9a5" fill-opacity=".5"/><circle r="1" fill="#82ddff" fill-opacity=".8" transform="matrix(-21.36277 -18.63593 48.46247 -55.55357 242.7 169)"/><circle r="1" fill="#000009" fill-opacity=".7" transform="matrix(-29.58533 -8.65135 31.32133 -107.1106 69.5 105.4)"/><path fill="#fff" fill-opacity=".7" d="M190.8-2.5l.4 26-56 1-.4-26z"/><ellipse cx="37" cy="19" fill="#ece6c3" fill-opacity=".6" rx="26" ry="42"/><circle cx="227" cy="65" r="25" fill="#9fa591" fill-opacity=".5"/><path fill="#efd6fc" fill-opacity=".6" d="M91.6 95l23.7-18.4 19 24.4-23.6 18.4z"/><path fill="#140116" fill-opacity=".9" d="M157.1 64L172 79l-31.1 31L126 95.2z"/><circle r="1" fill="#000012" fill-opacity=".7" transform="rotate(-75.7 138.4 12.8) scale(30.77483 121.23889)"/><ellipse cx="36" cy="83" fill="#c3accb" fill-opacity=".7" rx="25" ry="11"/><path fill="#fff" fill-opacity=".5" d="M143-6.9l4 79-16 .8-4-79z"/><path fill="#f9a480" fill-opacity=".5" d="M192.1 14.2l-9.6 88.3-17.3-3.9-3.7-43.3z"/><circle r="1" fill="#ff8476" fill-opacity=".5" transform="matrix(29.18516 -5.43851 1.61228 8.65214 167.5 128.4)"/><circle r="1" fill-opacity=".6" transform="matrix(.71315 5.54185 -35.61617 4.58325 32.6 67.6)"/><path fill="#514a3f" d="M191 0h50v55h-50z"/><path fill="#f5deff" fill-opacity=".6" d="M64 84l52 26-22-21z"/><circle r="1" fill="#f5edd2" fill-opacity=".6" transform="rotate(170.6 35.7 6.9) scale(19.18902 7.40582)"/><circle r="1" fill="#1a0616" fill-opacity=".6" transform="rotate(-99.3 59.8 -21.3) scale(24.20847 32.12351)"/><path fill="#e3d9e8" fill-opacity=".8" d="M154.8 68.6l-3.5-10.7-29.9 42.1-3-23.5z"/><circle r="1" fill-opacity=".5" transform="rotate(152 93.5 93.4) scale(44.02217 12.60966)"/><path fill="#7378ff" fill-opacity=".6" d="M8.3 146.2L31 185 7.1 167.4l-10.4-33.7z"/><circle r="1" fill="#bffffe" fill-opacity=".8" transform="matrix(6.7439 9.83855 -15.117 10.36205 228 162.8)"/><circle r="1" fill="#4b0b13" fill-opacity=".5" transform="matrix(6.30767 2.82156 -9.1457 20.44549 155.6 36.5)"/><path fill="#785476" fill-opacity=".7" d="M108.1 76.6l-17-20.9 33.3-19.4-14.8 83.8z"/><circle r="1" fill="#00047b" fill-opacity=".5" transform="matrix(-15.4003 -29.15328 14.6443 -7.7359 133 148)"/><ellipse cx="50" cy="119" fill="#000003" fill-opacity=".7" rx="56" ry="27"/><path fill="#aea793" fill-opacity=".9" d="M3.1-4.6l5.5 63.9 48-2.9L-16 68.2z"/><path fill="#e7e3f1" fill-opacity=".5" d="M116 84h11v37h-11z"/><circle r="1" fill="#189ef0" fill-opacity=".7" transform="matrix(-9.47594 -.14886 .76264 -48.54731 255 164.2)"/><path fill="#c9a697" fill-opacity=".4" d="M197.1 65.5l15.4-13.6L233.4 65l9 46.7z"/><path fill="#fff" fill-opacity=".5" d="M254.2 54.7l-8.5 27.8-3.9-1.2 8.5-27.8z"/><path fill="#f0f2ea" fill-opacity=".6" d="M191 21l-1 37-22-74z"/><path fill="#292720" fill-opacity=".7" d="M231.1 40.7l15.5 22.9-5.7 10.3-41.5-42.7z"/><path fill="#171001" fill-opacity=".7" d="M10.8 71.6l11.5 9.2-5.8-11.6L3.8-16z"/><path fill="#7d7564" fill-opacity=".9" d="M215.4 23l-2.1-38.6L237 24.6l7.9 24.6z"/><path fill="#343636" fill-opacity=".9" d="M25 2L52-9l7 9z"/><path fill="#0f000b" fill-opacity=".5" d="M128 94h80v18h-80z"/><path fill="#f7eee2" fill-opacity=".8" d="M135.5 27.7l-2.9-30 24.1 9.5-20 44.7z"/><circle r="1" fill="#000009" fill-opacity=".6" transform="matrix(13.7358 .792 -1.84555 32.0076 69.2 51)"/><path fill="#080500" fill-opacity=".7" d="M229 14l16-21 20 36z"/><path fill-opacity=".6" d="M191 109l22-23-28-28z"/><path fill="#010000" fill-opacity=".8" d="M210 135v26h-40v-26z"/><path fill="#b95a3e" fill-opacity=".4" d="M139 131l79-5 14-34z"/><circle r="1" fill-opacity=".6" transform="matrix(10.4254 -16.69965 8.935 5.57802 255 85.1)"/><circle r="1" fill="#552b83" fill-opacity=".4" transform="rotate(-29.2 389 -369) scale(26.24251 5.11429)"/><path fill="#9f88a3" fill-opacity=".5" d="M56.7 66.4l7.2 17.4-16.2 9.1-51.2 5z"/><path fill="#000005" fill-opacity=".9" d="M106 149l-70 36-39-61z"/><path fill="#aad2f9" fill-opacity=".4" d="M258 139l13-27-31 16z"/><path fill="#d1c5ac" fill-opacity=".6" d="M14 12h41v48H14z"/><path fill="#070029" fill-opacity=".4" d="M117.5 129.3L105.8 185l62.4-117.6-31.2 6.3z"/><path fill="#852111" fill-opacity=".3" d="M173.6 19l15.9 25.4-33 20.7-16-25.5z"/><ellipse cy="105" fill="#6195ff" fill-opacity=".3" rx="3" ry="26"/><ellipse cx="93" cy="74" fill="#000031" fill-opacity=".5" rx="21" ry="9"/><path fill="#cc846b" fill-opacity=".5" d="M165 37h20v62h-20z"/><path fill="#0a0704" fill-opacity=".8" d="M51 61.9l-67 5.5 61.4 4.7 23.5-5.7z"/><path fill="#0c040f" fill-opacity=".5" d="M190 3h23v11h-23z"/><path fill="#a5f2ec" fill-opacity=".3" d="M239.8 51.9l-3.2-17 23.1 6.7-9.3-14.6z"/><path fill="#fffeee" fill-opacity=".3" d="M203.9 34.3l-16.6 2.8L129.5-3l30.2-12.6z"/><path fill="#e17a5e" fill-opacity=".4" d="M140.3 131.9l7.4-17.6 16.2 16.5-10.7 11.9z"/><path fill="#6b5768" d="M104.3 11.3L90.5-16h37.9l-1.8 37.5z"/><path fill="#a0305a" fill-opacity=".6" d="M101 94l-19-8 26-2z"/><path fill="#4f2234" fill-opacity=".7" d="M144.1 48.3l20.5 27.3-14.5-47.7-6.6 17.6z"/><path fill-opacity=".6" d="M69.8 90.3l-6.1 11.5-11.5-6.1 6.1-11.5zM222 113l14 23 18-31z"/><path fill="#ffefc3" fill-opacity=".5" d="M141 72l15-7-19-20z"/></g></svg>