<svg xmlns="http://www.w3.org/2000/svg" viewBox="0 0 300 199"><defs/><path fill="#4f372c" d="M0 0h300v199H0z"/><g transform="translate(.6 .6) scale(1.17188)"><path fill="#fed9ca" fill-opacity=".6" d="M178 28l92 140-156 17z"/><ellipse cx="118" cy="36" fill="#8e6447" fill-opacity=".7" rx="74" ry="100"/><ellipse cx="174" cy="154" fill="#f8ebe4" fill-opacity=".5" rx="50" ry="31"/><circle r="1" fill="#330600" fill-opacity=".6" transform="matrix(-8.96595 -14.08496 7.3677 -4.69 209.6 98.8)"/><circle r="1" fill="#f4c4b7" fill-opacity=".6" transform="matrix(-15.4696 -29.41104 13.17174 -6.92806 176.8 72.3)"/><circle r="1" fill="#3f240f" fill-opacity=".5" transform="matrix(-19.54495 -32.01439 12.66375 -7.73128 154.6 102.3)"/><ellipse cx="246" cy="115" fill="#332a23" fill-opacity=".8" rx="17" ry="25"/><circle r="1" fill="#b1865f" fill-opacity=".5" transform="matrix(8.10574 -34.87969 27.62276 6.4193 97.1 32.4)"/><circle r="1" fill="#121b11" fill-opacity=".5" transform="matrix(22.85236 -10.79078 16.37872 34.68633 240.4 27.5)"/><circle r="1" fill="#5e3c2b" fill-opacity=".6" transform="matrix(61.40774 -4.0787 2.00352 30.16444 107.5 107.3)"/><circle r="1" fill="#8c8d95" fill-opacity=".4" transform="matrix(-3.74082 -22.59646 14.82104 -2.4536 18.4 169)"/><path fill="#784e35" fill-opacity=".7" d="M130.5 185l-2-37.5 17.8-126.8-45.2 138.6z"/><path fill="#f4cebd" fill-opacity=".5" d="M184.5 106.2l27.2 19.1 11.2 19.4-57.1-20.2z"/><circle r="1" fill="#1d1d18" fill-opacity=".7" transform="rotate(-91.7 6.4 6.6) scale(39.17605 32.24688)"/><circle r="1" fill="#4d2015" fill-opacity=".4" transform="rotate(-16.6 681.6 -706.5) scale(2.99114 43.49398)"/><path fill="#714a30" fill-opacity=".6" d="M203-16l9 105-71-105z"/><circle cx="144" cy="152" r="18" fill="#eefdff" fill-opacity=".4"/><path fill="#8f3f25" fill-opacity=".5" d="M181 101l28 15-1-33z"/><path fill="#ffd5ca" fill-opacity=".5" d="M221 90h7v44h-7z"/><ellipse cx="181" cy="82" fill="#e5b3a0" fill-opacity=".5" rx="22" ry="17"/><circle r="1" fill="#e6d3d1" fill-opacity=".5" transform="rotate(154.7 101.3 99.6) scale(5.11061 26.40124)"/><path fill="#89573e" fill-opacity=".5" d="M17 42h46v36H17z"/><path fill="#8a827c" fill-opacity=".6" d="M268.6 161l-12.3 8.7-23-32.8 12.4-8.6z"/><path fill="#fff0eb" fill-opacity=".5" d="M158 46h15v12h-15z"/><path fill="#583b30" fill-opacity=".5" d="M194.4 57.3l1.1-8.4-52.4 31.3 32.7-16.6z"/><path fill="#ae6c47" fill-opacity=".2" d="M85.4 98.2L162 146l51.5 11.8-77.6-64z"/><circle r="1" fill="#403023" fill-opacity=".6" transform="rotate(-19.1 193 -458.1) scale(33.60081 4.57998)"/><path fill="#f3c6ad" fill-opacity=".5" d="M172.2 54.2l-4.3 13.7 33-13.3-6.4 28.3z"/><path fill="#b49b80" fill-opacity=".5" d="M86 22h13v57H86z"/><ellipse cx="208" cy="83" fill="#3e241a" fill-opacity=".8" rx="2" ry="31"/><path fill="#35291f" fill-opacity=".8" d="M155.3 91.5l13 23.5 7.9-5.7-20-29.3z"/><path fill="#0f0e0f" fill-opacity=".4" d="M32 116l-43-25 47 2z"/><ellipse cx="130" cy="16" fill="#6d4329" fill-opacity=".5" rx="30" ry="11"/><path fill="#eeb3a6" fill-opacity=".6" d="M225 106.7l-13.6-25.6 3.6-1.8 13.6 25.6z"/><path fill="#664431" fill-opacity=".8" d="M140.6 91.3l-85-8.1L161.3 67l5.9 2.2z"/><ellipse cx="60" cy="117" fill="#593c2c" fill-opacity=".9" rx="24" ry="40"/><path fill="#000400" fill-opacity=".5" d="M222.5 102.3l-3 5.2-14-7.8 3-5.2z"/><path fill="#3e2d21" fill-opacity=".7" d="M228.4 98.4l-19.8-54.3 42.4 80.1-18.3 10.2z"/><path fill="#d1855b" fill-opacity=".4" d="M192 48l17 20-13 50z"/><path fill="#763828" fill-opacity=".4" d="M209 94l-3 34-7-38z"/><path fill="#ffe4d9" fill-opacity=".5" d="M169.5 86.1l-13.3-9 2.3-3.2 13.3 9z"/><path fill="#844816" fill-opacity=".4" d="M171.5 131.8l7.3-4.2-6.7 24.6 2.3-52.6z"/><path fill="#ba635c" fill-opacity=".5" d="M184.2 71.5l-14.9 18.1 19.1-10-17.3-11.7z"/><path fill="#834d2a" fill-opacity=".5" d="M39 0h45v24H39z"/><path fill="#d4b58e" fill-opacity=".2" d="M102.1 26.4l-47-2.1 31.2 17.9 40.6-39.9z"/><path fill="#b47769" d="M210.3 109.3l4.9-3.5 4.1 25.1-4.8.5z"/><path fill="#e6c7be" fill-opacity=".5" d="M206 136l-41 49 34-83z"/><path fill="#9e7758" fill-opacity=".7" d="M135.3 39L85.6 59.4l-.2-6.8 47.3-30.9z"/><circle r="1" fill="#763713" fill-opacity=".3" transform="matrix(7.3312 17.30148 -23.49932 9.95742 121 66.3)"/><path fill="#422c24" fill-opacity=".5" d="M227 151l-3 24 8-16z"/><path fill="#9e7c63" fill-opacity=".5" d="M144.9 64.1l8.3 26.4-2.9-39.6 18.3 7.6z"/><circle r="1" fill="#eae4e3" fill-opacity=".5" transform="matrix(13.51084 6.42013 -3.25236 6.84444 181.1 161.8)"/><path fill="#442215" fill-opacity=".3" d="M205.4 42.9l-34.5 11.3L187.6 40l-4.5 23.6z"/><circle r="1" fill="#633e2c" fill-opacity=".6" transform="matrix(-39.54344 -8.0702 4.39334 -21.52706 87 169)"/><path fill="#8ca1b0" fill-opacity=".3" d="M24 145l-11 31-26 9z"/><circle r="1" fill="#5f423a" fill-opacity=".6" transform="matrix(14.57974 29.59682 -8.74421 4.3075 19.2 132)"/><path fill="#c69079" fill-opacity=".4" d="M205 142l3 38-23-59z"/><path fill="#765239" fill-opacity=".5" d="M90.2 45.1L75.3 90.8 58.7 79.3l-46.1-33z"/><path fill="#d9c1bd" fill-opacity=".8" d="M236.6 150l26.6 35h-22.1l-19.8-78.1z"/><path fill="#0c0703" fill-opacity=".3" d="M147 56.1l15.6-27.7L182 30l-33.2 16.7z"/><ellipse cx="215" cy="158" fill="#f1d7cf" fill-opacity=".4" rx="9" ry="24"/><path fill="#734941" fill-opacity=".4" d="M7 62l44-45-39 99z"/><path fill="#131409" fill-opacity=".5" d="M217 115V98l4 12z"/><path fill="#624a38" fill-opacity=".6" d="M141.9 89l-7.8-105h30.2l-7.7 45.4z"/><path fill="#a96048" fill-opacity=".6" d="M198 93l-24 9 27 3z"/></g></svg>