<svg xmlns="http://www.w3.org/2000/svg" viewBox="0 0 300 199"><defs/><path fill="#24433d" d="M0 0h300v199H0z"/><g transform="translate(.6 .6) scale(1.17188)"><circle r="1" fill="#fedec2" fill-opacity=".8" transform="matrix(86.84694 40.55218 -23.72824 50.81663 213 42.6)"/><circle r="1" fill="#faa363" fill-opacity=".5" transform="rotate(30.5 -134.4 93.1) scale(43.98722 122.50454)"/><path fill="#b18c63" fill-opacity=".8" d="M271 83l-113 48-13-67z"/><circle r="1" fill="#f0f7fe" fill-opacity=".7" transform="matrix(40.78785 -.98875 1.23596 50.98608 229 29.3)"/><circle r="1" fill="#572e0f" fill-opacity=".6" transform="rotate(19.1 -48.6 81.8) scale(70.01576 17.04194)"/><ellipse cx="61" cy="88" fill="#b7b7a3" fill-opacity=".7" rx="12" ry="40"/><circle cx="153" cy="23" r="37" fill="#c59f75" fill-opacity=".7"/><circle r="1" fill="#d7edff" fill-opacity=".5" transform="matrix(9.47233 -1.28071 8.07427 59.71861 6.1 152)"/><ellipse cx="46" cy="153" fill="#1a1d19" fill-opacity=".8" rx="14" ry="47"/><circle r="1" fill="#0b043a" fill-opacity=".6" transform="rotate(-113.1 94.3 20.5) scale(63.53705 27.26413)"/><circle r="1" fill="#eca745" fill-opacity=".6" transform="matrix(24.88712 18.34427 -7.31134 9.91908 80.4 19.6)"/><path fill="#ffffe8" fill-opacity=".5" d="M89 150l-8-18 8-22z"/><path fill="#c39758" fill-opacity=".7" d="M-7.6-24.2l44.2 128.6-17 5.8-44.2-128.6z"/><circle r="1" fill="#bc6500" fill-opacity=".4" transform="matrix(-27.41257 -35.30839 10.07312 -7.82053 197.2 86.5)"/><circle r="1" fill="#21258d" fill-opacity=".4" transform="matrix(-39.18933 -14.10903 6.64117 -18.44655 123.1 66.9)"/><path fill="#c1c9a5" fill-opacity=".5" d="M184 113l-50 26 54-57z"/><path fill="#590900" fill-opacity=".4" d="M25 9.3L51.6 116 41 118.7 14.4 12z"/><path fill="#020016" fill-opacity=".6" d="M87.9 95l-11 56.9L62 149l11-56.9z"/><path fill="#1f3370" fill-opacity=".9" d="M157.9 112.7l.5-14.9-27.6-2.8 21.9 32.8z"/><path fill="#210a0b" fill-opacity=".6" d="M99-16l54 3-53 36z"/><ellipse cx="125" cy="33" fill="#e0ae9c" fill-opacity=".6" rx="21" ry="5"/><path fill="#2a220f" fill-opacity=".6" d="M175.3 80.8l-6.4 16.3-20.2-24.3L179.6 85z"/><path fill="#ada58b" fill-opacity=".5" d="M38.9 50.5l8.4 50.2 15.9 41.5L84.8 36z"/><path fill="#bf5d00" fill-opacity=".4" d="M-2 1l-10 75 50 82z"/><ellipse cx="224" cy="124" fill="#53513c" fill-opacity=".4" rx="47" ry="24"/><path fill="#f3ebff" fill-opacity=".3" d="M186.2 118.8l-41.5-22.2 4.3-17.7 13.6 14.6z"/><path fill="#dda757" fill-opacity=".6" d="M17-7l66-9 25 54z"/><circle r="1" fill="#3c2112" fill-opacity=".6" transform="matrix(1.77646 -4.06616 67.70172 29.57815 41.4 17.1)"/><circle r="1" fill="#0e102a" fill-opacity=".6" transform="rotate(-165.6 65.6 55.9) scale(19.90699 54.78237)"/><path fill="#9fcee2" fill-opacity=".3" d="M21.6 98.3L36.4 131l-3.5-43.6L7.3 12.1z"/><path fill="#b1a69d" fill-opacity=".7" d="M273.8 125.1l-48.9-29.3 11.3-19 48.9 29.4z"/><ellipse cx="26" cy="142" fill="#753410" fill-opacity=".6" rx="9" ry="21"/><path fill="#8a6738" fill-opacity=".4" d="M108 37L72 64 28 29z"/><path fill="#271302" fill-opacity=".6" d="M32.2 30l-20-11L23.7-2l20 11z"/><path fill="#d4b385" fill-opacity=".7" d="M150.1 73L131.7-7.3l3.8-8.7 46.7 95.7z"/><path fill="#253a8d" fill-opacity=".4" d="M159.5 65l-26.8-13.4-14.1-15.9-42.2 25z"/><path fill="#c8914a" fill-opacity=".8" d="M166.3 14.4l43.5 88.2-14.7 11.8-26.3-65.8z"/><path fill="#ab584d" fill-opacity=".5" d="M93 144l-24 17-6-9z"/><path fill="#985844" fill-opacity=".5" d="M136.7 43.3l-27.1-17.1 2.5-10.4 3.8-15.9z"/><path fill="#142c62" fill-opacity=".8" d="M125.8 130.3l3.5 23.1 21 31.6-7.9-54.6z"/><path fill="#ebebeb" fill-opacity=".6" d="M271 78.3l-34.5-88.7-44.6 49.2 1.7 34.7z"/><path fill="#251e14" fill-opacity=".5" d="M236.3 119.9l-19.3-21 32.8 12.6-.5 73.5z"/><path fill="#d8ba91" fill-opacity=".7" d="M94 15L49-16l52 8z"/><path fill="#80845b" d="M155.8 120.1l-8.5 13.2 36.6-8.3 3.5-10.3z"/><path fill="#d6c5b3" fill-opacity=".5" d="M128.4 47.7L164 1.6l-46 39-5.1-13.3z"/><path fill="#111c1a" fill-opacity=".6" d="M47 185l10-75-28 23z"/><path fill="#b8b091" fill-opacity=".5" d="M91.4 147.8l-2.9-38.3-5.3 14.9-3.4 27.9z"/><path fill="#a13e00" fill-opacity=".3" d="M210.3 107.4l22.1 1.4-22.7-31.5-14.4-6.7z"/><path fill="#1b2f66" fill-opacity=".7" d="M129.5 97.1l29 1 2.3 4.9-12.5 24.6z"/><path fill="#f1e5d6" fill-opacity=".5" d="M159 106h20v10h-20z"/><circle r="1" fill="#111222" fill-opacity=".6" transform="matrix(.69087 -12.228 16.20963 .91583 90.7 161.7)"/><ellipse cx="62" cy="122" fill="#d3dbac" fill-opacity=".3" rx="5" ry="22"/><circle r="1" fill="#304e47" fill-opacity=".7" transform="matrix(23.6913 -21.9419 17.7221 19.13506 210.8 137.7)"/><path fill="#b2aa98" fill-opacity=".7" d="M46.5 97l-7.9-40.8L78.4 71l-5.5 24.2z"/><path fill="#dbcdb4" fill-opacity=".5" d="M185 0h12v56h-12z"/><path fill="#cca063" d="M150.5 74.6l10.8-19.4-4.6-6.1-11.1-30.5z"/><path fill="#e6e2d0" fill-opacity=".5" d="M176 56l-16-2-15-41z"/><ellipse cx="142" cy="79" fill="#102f7e" fill-opacity=".5" rx="6" ry="25"/><path fill="#151b34" fill-opacity=".5" d="M96 153l39-10-56-82z"/><ellipse cx="253" cy="135" fill="#77632a" fill-opacity=".5" rx="5" ry="23"/><circle r="1" fill="#d6e3d7" fill-opacity=".4" transform="matrix(20.0826 18.20979 -3.33663 3.6798 154 0)"/><path fill="#e6e1bf" fill-opacity=".6" d="M154.1 82.2l.7 7-7 .6-.6-7z"/><path fill="#100000" fill-opacity=".4" d="M178.3 125.8l2.4 8.7-29 7.7-2.4-8.7z"/><circle r="1" fill="#a3602a" fill-opacity=".8" transform="matrix(-6.12231 2.2702 -10.32415 -27.84224 19.5 131.5)"/><path fill="#c2c6cb" fill-opacity=".6" d="M12 185l-28-16L1 88z"/></g></svg>