<svg xmlns="http://www.w3.org/2000/svg" viewBox="0 0 300 199"><defs/><path fill="#655942" d="M0 0h300v199H0z"/><g transform="translate(.6 .6) scale(1.17188)"><circle r="1" fill="#f0d3b8" fill-opacity=".5" transform="matrix(116.47157 -43.50621 57.4238 153.73068 95 84)"/><circle cx="146" cy="169" r="68" fill="#964700" fill-opacity=".6"/><circle cx="8" cy="78" r="54" fill="#ecfbff" fill-opacity=".6"/><ellipse cx="170" cy="68" fill="#eaf4f6" fill-opacity=".7" rx="39" ry="33"/><circle r="1" fill="#f7fafb" fill-opacity=".7" transform="matrix(9.61252 -17.19582 14.62944 8.17791 255 81.4)"/><ellipse cx="96" cy="11" fill="#644b31" fill-opacity=".5" rx="30" ry="107"/><path fill="#ffca6c" fill-opacity=".7" d="M204.5 111L314 169.1l-8.5 15.9L196 126.8z"/><circle r="1" fill="#dde5e9" fill-opacity=".6" transform="matrix(8.9027 16.06298 -29.28654 16.23167 43 155.8)"/><path fill="#c7c2cc" fill-opacity=".7" d="M140.6 84.2l-4.3 40.8-30.9-3.2 4.3-40.8z"/><circle r="1" fill="#715c3b" fill-opacity=".5" transform="rotate(94.1 68.4 70.4) scale(21.99477 97.6161)"/><path fill="#8c420e" fill-opacity=".8" d="M87.2 154.6l-16.8-52.4-5.5 14.3 17.9 47.7z"/><path fill="#955e23" fill-opacity=".7" d="M196 119L84 129l180 47z"/><circle r="1" fill="#934d0a" fill-opacity=".5" transform="matrix(-56.11937 37.71262 -3.04211 -4.5269 25.9 138.2)"/><circle r="1" fill="#706d5d" fill-opacity=".6" transform="matrix(13.04498 9.659 -29.85349 40.31867 229.7 68.8)"/><circle r="1" fill="#b4b7ab" fill-opacity=".6" transform="matrix(47.88456 52.07407 -12.73466 11.71012 39.1 45)"/><path fill="#702700" fill-opacity=".5" d="M109.3 148l-9.8 2-10.8-56 9.8-2z"/><ellipse cx="172" cy="34" fill="#978f74" fill-opacity=".6" rx="16" ry="19"/><path fill="#fcffff" fill-opacity=".5" d="M190.5 35.3l17.6 3.7-12.6 59.7-17.6-3.7z"/><path fill="#1d0d0c" fill-opacity=".7" d="M111.3 78.3l18.4-7-7.2-8.6-4.9-2.2z"/><path fill="#001c21" fill-opacity=".7" d="M193.9 156L179 141l7.1-7 14.9 14.8z"/><path fill="#fff" fill-opacity=".6" d="M240.7 87.6l14.2-32 6.4 2.8-14.2 32z"/><path fill="#ffba4d" fill-opacity=".3" d="M121 185l-46-27 156-11z"/><path fill="#eea140" fill-opacity=".6" d="M259.7 189.2l-74.2-56 4.8-6.4 74.2 56z"/><circle r="1" fill="#d0cbc2" fill-opacity=".5" transform="rotate(166.7 67 33.6) scale(28.56567 12.24369)"/><path fill="#847f7b" fill-opacity=".5" d="M203 15h23v107h-23z"/><circle r="1" fill="#f0f0ea" fill-opacity=".5" transform="matrix(-20.94748 -5.41739 8.62971 -33.36862 5 107.8)"/><path fill="#c4b497" fill-opacity=".9" d="M157.5 84.1l-.4 5.3 3.4 13.9 56.1 25.1z"/><path fill="#130512" fill-opacity=".5" d="M225 87l6 35 14-23z"/><path fill="#424340" fill-opacity=".5" d="M204 113l-38-14h43z"/><circle r="1" fill="#e6972b" fill-opacity=".4" transform="rotate(-122.2 46 62.6) scale(4.94475 36.80721)"/><circle r="1" fill="#150b00" fill-opacity=".6" transform="matrix(.75383 -1.22884 64.44084 39.5314 235.4 152.3)"/><path fill="#b2a197" d="M122.7 89.4l21.4-3.7L116 42l16.1-7.7z"/><path fill="#c5c5bb" fill-opacity=".7" d="M-16 12.9l37.9-1.6 28.9 101.2 28.3-12.7z"/><path fill="#cecdc8" fill-opacity=".7" d="M71 168l-7-47-80 54z"/><path fill-opacity=".6" d="M201 161l-3 14-4-12z"/><path fill="#732d02" fill-opacity=".5" d="M178 129l-40 6 1-39z"/><path fill="#ddd7db" fill-opacity=".4" d="M109.5 74.4l30 16-7 13.2-30-16z"/><circle r="1" fill="#753d15" fill-opacity=".5" transform="matrix(-3.2001 -1.50585 27.16475 -57.72803 84 152.8)"/><path fill="#fff6ee" fill-opacity=".3" d="M209.1 124.8l-70.7-37.5 63.8 28.2 21.4-26.3z"/><circle r="1" fill="#061e00" fill-opacity=".1" transform="rotate(94.6 34.4 31.7) scale(76.3845 28.68396)"/><path fill="#ebb556" fill-opacity=".5" d="M170.1 110.9l84.6 49.9 16.3-16.2-18.2-11.7z"/><path fill="#746b54" fill-opacity=".8" d="M253.7 52.6l-16.8 42.5-12.8-87-18.6 95.3z"/><path fill="#22070a" fill-opacity=".4" d="M213 109l16 10 16-18z"/><path fill="#a2927e" fill-opacity=".4" d="M138.8 10.5l15 17.3-68.6 59.7-15-17.3z"/><path fill="#ae9f94" fill-opacity=".6" d="M239.1 113.2l3.8-7.5 28.1 4.6-35.1 4.3z"/><path fill="#f7ffff" fill-opacity=".4" d="M203.1 104.2l-5.8-21.4-68.9-20.7.5 9.9z"/><path fill="#673209" fill-opacity=".5" d="M90 99l21 34-16-57z"/><ellipse cx="168" cy="126" fill="#000a03" fill-opacity=".7" rx="3" ry="6"/><circle r="1" fill="#e8e6dd" fill-opacity=".6" transform="rotate(171 119.6 55.4) scale(7.78956 8.48167)"/><path fill="#afb3b3" fill-opacity=".4" d="M231.4 108.8l-18-6.2 3.2-9.4 18 6.2z"/><path fill="#f4f5fe" fill-opacity=".3" d="M215.4 24.7l-20.2 68.5-26.6 9.4 8.4-42.8z"/><path fill="#98511a" fill-opacity=".7" d="M128.3 108.8l40.5 23.9-11.8 33.6-11-61.2z"/><path fill="#b3a7a8" fill-opacity=".5" d="M115 125l26-4-36-54z"/><path fill="#f0a841" fill-opacity=".5" d="M200 155v25l14-17z"/><path fill="#696b7b" fill-opacity=".7" d="M252.3 89l-.1-7.1 10-7.5 8.8 28.1z"/><path fill="#5b2c27" fill-opacity=".5" d="M133.2 89.6l-4.8-8.8 4.4-2.4 4.8 8.8z"/><path fill="#430700" fill-opacity=".5" d="M250.6 97l5.3 7.3-6.5 4.7-5.3-7.3z"/><circle cx="161" cy="92" r="5" fill="#637770" fill-opacity=".5"/><path fill="#4d3408" fill-opacity=".3" d="M51.3 24.7l59.7-38L72.4-15l-6.8 48z"/><path fill="#fbffff" fill-opacity=".4" d="M177 72l-32 8-21 29z"/><circle cx="118" cy="69" r="7" fill="#060000" fill-opacity=".5"/><path fill="#9f907d" fill-opacity=".5" d="M116 24h99v17h-99z"/><path fill="#85704f" fill-opacity=".6" d="M99 0h112v19H99z"/><path fill="#7d664e" d="M89.3 69.4L67.1 46.3l5.5 26.5 11.5-27.4z"/><path fill="#a39686" fill-opacity=".9" d="M84.8 143.2l8.4-13.6-3.2-25.5-13.6 5z"/></g></svg>