<svg xmlns="http://www.w3.org/2000/svg" viewBox="0 0 300 199"><defs/><path fill="#4f332d" d="M0 0h300v199H0z"/><g transform="translate(.6 .6) scale(1.17188)"><circle r="1" fill="#f0efe4" fill-opacity=".8" transform="matrix(3.62647 -71.2497 254.67034 12.96224 115.7 57.2)"/><circle r="1" fill="#a3886e" fill-opacity=".7" transform="rotate(-25.7 406.1 -355.7) scale(60.4032 102.23096)"/><ellipse cx="56" cy="58" fill="#fff" fill-opacity=".5" rx="49" ry="87"/><path fill="#87695d" d="M37.3 133.4L.2 150.7l-35.5-76.1L1.8 57.3z"/><circle r="1" fill="#0a0000" fill-opacity=".5" transform="matrix(10.4222 -2.81213 6.33271 23.47007 183.7 66.2)"/><ellipse cx="110" cy="146" fill="#6b4b43" fill-opacity=".9" rx="33" ry="34"/><path fill="#c0c2c2" fill-opacity=".7" d="M165 1l93-17-2 192z"/><circle cx="59" cy="30" r="62" fill="#f9ffff" fill-opacity=".5"/><path fill="#b7944d" fill-opacity=".7" d="M100.2 81.1l2.6 30-21 1.8-2.6-30z"/><path fill="#665653" fill-opacity=".4" d="M165 9l-49-25 22 83z"/><circle r="1" fill="#3a1714" fill-opacity=".5" transform="rotate(145.1 67.8 111.4) scale(65.79044 11.26455)"/><path fill="#c5c9d0" fill-opacity=".7" d="M214.8 166.9l-8.1-6 59.4-42.2 1.3 26.3z"/><ellipse cx="41" cy="129" fill="#ae988b" fill-opacity=".8" rx="30" ry="14"/><path fill="#f9f0ea" fill-opacity=".3" d="M183 100l-34 6-12-122z"/><circle r="1" fill="#865929" fill-opacity=".5" transform="matrix(38.59342 -1.14543 .47716 16.0773 150.2 115.8)"/><circle r="1" fill="#ac9a91" fill-opacity=".5" transform="matrix(46.40815 -5.56006 1.1338 9.46345 109 169)"/><path fill="#794c38" fill-opacity=".6" d="M36 119l38 29-43-2z"/><circle r="1" fill="#c0a060" fill-opacity=".8" transform="matrix(-12.2973 -7.35979 13.11354 -21.91113 213.7 105.9)"/><circle r="1" fill="#fcf5d7" fill-opacity=".4" transform="matrix(15.78448 4.52939 -10.30847 35.92404 115.2 81)"/><circle r="1" fill="#fff" fill-opacity=".6" transform="matrix(-14.46527 17.4235 -23.36324 -19.39654 34.2 77.1)"/><ellipse cy="89" fill="#452116" fill-opacity=".5" rx="8" ry="35"/><circle r="1" fill="#dfe3ea" fill-opacity=".5" transform="matrix(4.368 -34.19447 8.86575 1.13251 203.4 53)"/><path fill="#d2ab80" fill-opacity=".5" d="M141.1 177.9l33-44-7.3-20-34.2 59.6z"/><path fill="#fff" fill-opacity=".5" d="M54 76h12v54H54z"/><circle r="1" fill="#fcffff" fill-opacity=".5" transform="rotate(-64.4 105.8 30.3) scale(30.10179 5.07537)"/><circle r="1" fill="#63392d" fill-opacity=".6" transform="matrix(-17.62637 -14.16325 26.77544 -33.32242 182.2 167.7)"/><circle r="1" fill="#653f32" fill-opacity=".5" transform="matrix(-8.97906 -19.70275 14.09226 -6.42221 10.2 106.6)"/><ellipse cx="137" cy="2" fill="#360700" fill-opacity=".4" rx="13" ry="4"/><path fill="#765746" d="M175.5 132.1l-5.9-26.8 20.7 4.2.4 33z"/><path fill="#00274b" fill-opacity=".2" d="M218.5-2.9L271-13.1 254.3 61l-6.9-33.1z"/><path fill="#f0d6b2" fill-opacity=".4" d="M140 77l68 22-67 12z"/><circle r="1" fill="#4f2d27" fill-opacity=".4" transform="matrix(-30.23254 30.44434 -10.71277 -10.63824 100.7 144.3)"/><path fill="#6f4f43" fill-opacity=".7" d="M146.4-2l10.4 33.9 6.2-15.6L150.5.5z"/><path fill="#1b0200" fill-opacity=".5" d="M191 50l-1 42-15-48z"/><path fill="#623833" fill-opacity=".2" d="M133.8 69l63.7 29.3-35.1-35.1L175.5 44z"/><ellipse cx="51" cy="121" fill="#113025" fill-opacity=".6" rx="4" ry="6"/><path fill="#d3d6da" fill-opacity=".6" d="M161 0h34v44h-34z"/><path fill="#cac6c5" fill-opacity=".6" d="M146 63L134 9l44 54z"/><path fill="#1c101c" fill-opacity=".5" d="M243.3 165.4l5-8.1-31.6 12.7-8.3 15z"/><path fill="#fff5b7" fill-opacity=".4" d="M228 86h14v37h-14z"/><ellipse cx="63" cy="167" fill="#918872" fill-opacity=".4" rx="27" ry="7"/><circle r="1" fill="#dbdbde" fill-opacity=".6" transform="matrix(15.7976 -12.7089 20.93177 26.0189 109.5 52.9)"/><path fill="#fafcfc" fill-opacity=".7" d="M-16 21l67-1-5 107z"/><path fill="#b1b0b1" fill-opacity=".4" d="M132.3 147.7l6.6-12.3 16.8 8.9-6.6 12.3z"/><path fill="#b59164" fill-opacity=".5" d="M103 116.4l-22.9 17.3 12.3-31.3-6.8-26.6z"/><path fill="#ffffec" fill-opacity=".4" d="M134.5 94.1l-23.7 5.7-3.8 12.7 27.5-3.3z"/><path fill="#48423a" fill-opacity=".3" d="M145.6 53.5L123.7-16 140 79.9l4.7-3.5z"/><ellipse cx="30" cy="151" fill="#472e26" fill-opacity=".5" rx="34" ry="14"/><path fill="#fffefe" fill-opacity=".3" d="M64.7 126.3l3.2 23.8 18.5-43.6-48.9 26.1z"/><path fill="#b08371" fill-opacity=".7" d="M8.6 114.9l4.3 33.7-1.8-48-10.3 4z"/><path fill="#ffd974" fill-opacity=".3" d="M172.5 116.5l.9 10-35.9 3-.9-10z"/><path fill="#fff2df" fill-opacity=".4" d="M191 112h4v23h-4z"/><path fill="#fafafa" fill-opacity=".7" d="M8 51h42v35H8z"/><path fill="#f7f9f9" fill-opacity=".8" d="M24.4 112.7l35.3-52L86.1 119l-31.7-3.7z"/><path fill="#b29549" fill-opacity=".5" d="M122 80h17v19h-17z"/><ellipse cx="117" cy="169" fill="#000b0b" fill-opacity=".4" rx="8" ry="4"/><path fill="#b6b9bf" fill-opacity=".8" d="M246.1 11.7L271 159.2 228.8 185l19.4-24.7z"/><path fill="#d8d7ee" fill-opacity=".4" d="M127.4 159.3l26.7 25.7-33.1-20.2 1.2-10.1z"/><path fill="#fefefc" fill-opacity=".3" d="M-1.6 141.1l31.5-19.3 2.3-9.7 2.1 21.2z"/><ellipse cx="227" cy="3" fill="#afb2b5" fill-opacity=".7" rx="11" ry="69"/><path fill="#b9937c" fill-opacity=".5" d="M69.9 121.4l10 16-17.8 11.2-10-16z"/><path fill="#80513a" fill-opacity=".2" d="M158.9 75.8l37.4 104.9-34.7-123.4-5.9-12.3z"/><path fill="#522924" fill-opacity=".5" d="M114.1 125.6l-30-1.4 50 39.1 9.5-2.6z"/><path fill="#c3964f" fill-opacity=".5" d="M215 85h14v45h-14z"/><path fill="#100a00" fill-opacity=".2" d="M133.1 26.6l-11.4.1 11.8-39.9 3.1 38.4z"/></g></svg>