<svg xmlns="http://www.w3.org/2000/svg" viewBox="0 0 300 199"><defs/><path fill="#38241e" d="M0 0h300v199H0z"/><g transform="translate(.6 .6) scale(1.17188)"><circle r="1" fill="#bfc0e4" fill-opacity=".7" transform="matrix(42.28705 36.18052 -53.33738 62.33964 122.2 11.6)"/><circle r="1" fill="#95050e" fill-opacity=".7" transform="matrix(-49.49446 -36.43558 31.4912 -42.77796 192.3 82)"/><path fill="#cac7e4" fill-opacity=".5" d="M94 3h30v139H94z"/><ellipse cx="41" cy="110" fill="#000013" fill-opacity=".4" rx="61" ry="110"/><circle r="1" fill="#4180cf" fill-opacity=".5" transform="rotate(154.5 26.9 22.6) scale(16.68141 65.07251)"/><circle r="1" fill="#fffff4" fill-opacity=".5" transform="rotate(-71 88 -104.4) scale(16.42423 31.6967)"/><path fill="#4f8bbd" fill-opacity=".6" d="M123 109h47v16h-47z"/><circle cx="112" cy="36" r="22" fill="#fffdff" fill-opacity=".5"/><circle r="1" fill="#040504" fill-opacity=".8" transform="matrix(41.86927 -18.11571 73.10374 168.95829 47.9 146.6)"/><circle r="1" fill="#2e67b0" fill-opacity=".6" transform="matrix(-23.41252 16.27212 -8.01713 -11.53513 115.3 74.3)"/><circle r="1" fill="#5e0405" fill-opacity=".9" transform="matrix(18.16084 8.44988 -24.86119 53.43273 200.8 132)"/><circle r="1" fill="#826657" fill-opacity=".6" transform="matrix(41.84461 -13.1133 3.21074 10.24548 254.4 127.7)"/><circle r="1" fill="#61463b" fill-opacity=".6" transform="rotate(-36.3 117.7 -358.6) scale(44.1516 145.7882)"/><ellipse cx="105" cy="125" fill="#fc8876" fill-opacity=".4" rx="16" ry="21"/><path fill="#a00205" fill-opacity=".5" d="M145 31h44v80h-44z"/><path fill="#ff9c89" fill-opacity=".5" d="M136 127h14v9h-14z"/><circle r="1" fill="#253e67" fill-opacity=".8" transform="matrix(-8.45463 4.98016 -13.5137 -22.9417 49.9 40.6)"/><circle r="1" fill="#4e7dbe" fill-opacity=".5" transform="matrix(-10.3524 6.64613 -41.87717 -65.23039 59.3 11.4)"/><path fill="#c68877" fill-opacity=".6" d="M250 100h6v27h-6z"/><path fill="#90060c" fill-opacity=".6" d="M168 58l-52 29 26 24z"/><path fill="#1b1103" fill-opacity=".5" d="M119 185l3-70 69 70z"/><path fill="#e0aa8d" fill-opacity=".6" d="M134 20h11v37h-11z"/><path fill="#ddd5e9" fill-opacity=".8" d="M88-16l45 75-41-18z"/><path fill="#271306" fill-opacity=".5" d="M117 157l-18-28 8-9z"/><path fill="#4982c6" fill-opacity=".5" d="M166 111l-34-1 46 23z"/><path fill="#a6745d" fill-opacity=".6" d="M105.8 7.3L137 26.2l-10.8-15.7-4.7-2.6z"/><path fill="#e3d6d2" fill-opacity=".5" d="M138 3h48v27h-48z"/><path fill="#f6d7d2" fill-opacity=".6" d="M98.7 117.6l8.9 4.4 2.2-12.6-4.5-8.2z"/><path fill="#002245" fill-opacity=".3" d="M84.9 94.4l31.9-20.7 10.3 16-31.9 20.6z"/><path fill="#66632f" fill-opacity=".6" d="M120 103h14v25h-14z"/><path fill="#e6d4bf" fill-opacity=".5" d="M232 132h7v12h-7z"/><path fill="#1a0000" fill-opacity=".4" d="M220.6 81.7l-3.5 40.6 27.3 12.2 19.9 17.5z"/><path fill="#311d17" fill-opacity=".7" d="M151.5 121.5l16.7.3 16.9 60.6-41.9-24.1z"/><path fill="#fce8e1" fill-opacity=".5" d="M151 4l-14 15-43-35z"/><path fill="#890609" fill-opacity=".6" d="M144 33h75v29h-75z"/><circle r="1" fill-opacity=".5" transform="matrix(-9.98134 10.10905 -27.59082 -27.24225 62 87.2)"/><path fill="#040000" fill-opacity=".6" d="M14 27.1l2-55 20 .8-2 55z"/><circle r="1" fill="#ff99c9" fill-opacity=".5" transform="matrix(-2.09874 -7.08522 4.62664 -1.37047 116.9 133.3)"/><circle r="1" fill="#514237" fill-opacity=".4" transform="matrix(-34.57414 21.51594 -8.68754 -13.96008 236.6 161.7)"/><circle r="1" fill="#5f8ac2" fill-opacity=".5" transform="matrix(20.11674 -10.14785 4.09833 8.12438 122.3 67.5)"/><path fill="#533d34" fill-opacity=".9" d="M193 30l29-12-43-34z"/><path fill="#6b0106" fill-opacity=".7" d="M173.6 125.3l12.6 59.7 30.4-63.7-54.2-10.9z"/><path fill="#774f38" fill-opacity=".4" d="M132 123.4l-49.2-1.8-8.5 5.9 12 5.3z"/><path fill="#9b0408" fill-opacity=".3" d="M260.1 124l-32.5-76.5-24.1-21.6 31.5 91.2z"/><circle r="1" fill="#181211" fill-opacity=".7" transform="matrix(-3.1172 12.01375 -54.13252 -14.04573 104.4 169)"/><path fill="#523b32" fill-opacity=".9" d="M227.8 42.7L232.2 1 271 120l-23.2-25z"/><path fill="#0f54a8" fill-opacity=".3" d="M75.3 33.8l29.8 40.3-17.6-38.5L64.4-16z"/><path fill="#d4c5c8" fill-opacity=".8" d="M102 .4L115.1-16l26.3 49.4 48.5-6.5z"/><path fill="#5f7db3" fill-opacity=".4" d="M82 86L69 32l57 70z"/><path fill="#683719" fill-opacity=".6" d="M59-16l28 27-13-27z"/><path fill="#a31517" fill-opacity=".7" d="M145.1 52l20.5 8L155 88l-20.5-8z"/><path fill="#d8d4ef" fill-opacity=".5" d="M121 54L78 11l22 48z"/><ellipse cx="120" cy="88" fill-opacity=".5" rx="7" ry="5"/><circle r="1" fill="#1f1d20" fill-opacity=".5" transform="matrix(8.89452 2.1654 -7.55177 31.01948 13.3 60.8)"/><path fill="#d67da3" fill-opacity=".3" d="M95 127.7l21.5 29.1-7.3.6-13.7-16.7z"/><path fill="#547cbf" fill-opacity=".6" d="M172.1 121.7l3.4 15.5-17-27.7-28.4 14.1z"/><path fill="#d5ccc0" fill-opacity=".6" d="M144-16l43 46-6-43z"/><path fill="#6e0002" fill-opacity=".5" d="M226 60l-58-21 44 101z"/><path fill="#405682" fill-opacity=".5" d="M45.8-10.6l33.7 83.5-9.3 3.7L36.5-6.9z"/><path fill="#e0bcbc" fill-opacity=".5" d="M118.2 100.2L104 116.1l-11.2-4 15.3-6.2z"/><path fill="#000a15" fill-opacity=".6" d="M101 96.9l-27-3.6 9.8 21.7 17.6-7.6z"/><path fill="#ffb3a6" fill-opacity=".5" d="M131.3 127.4l.8-1.8 16.6 7-.8 1.8z"/><path fill="#6883b1" fill-opacity=".5" d="M53-16l37 67L49 9z"/><circle r="1" fill="#e5d8eb" fill-opacity=".5" transform="rotate(64.3 31.5 111.7) scale(22.87586 15.30776)"/><path fill="#c06d56" fill-opacity=".4" d="M145.7 34.2l.4 17-3.7-7.8-21.1-30.8z"/></g></svg>