<svg xmlns="http://www.w3.org/2000/svg" viewBox="0 0 300 199"><defs/><path fill="#4f332e" d="M0 0h300v199H0z"/><g transform="translate(.6 .6) scale(1.17188)"><circle r="1" fill="#d2d6ce" fill-opacity=".5" transform="matrix(-112.08235 -3.9829 8.30009 -233.57189 78.3 84.8)"/><circle r="1" fill="#2f0907" fill-opacity=".5" transform="matrix(-4.44996 -77.1763 14.55873 -.83945 58.4 145.7)"/><ellipse cx="86" cy="131" fill="#e7edf4" fill-opacity=".8" rx="14" ry="39"/><circle r="1" fill="#dff1ec" fill-opacity=".5" transform="rotate(-165.1 71.6 10.1) scale(51.0246 21.71599)"/><path fill="#f7e7ea" fill-opacity=".6" d="M13 5.9l18-.7 6 169-18 .6z"/><circle r="1" fill="#523f2e" fill-opacity=".5" transform="matrix(-84.37092 -3.98852 .59369 -12.55856 127 82.8)"/><ellipse cx="49" cy="27" fill="#553f39" fill-opacity=".9" rx="8" ry="87"/><circle cx="125" cy="161" r="21" fill="#561f15" fill-opacity=".5"/><circle r="1" fill="#00341d" fill-opacity=".5" transform="rotate(-89 102.7 -101.9) scale(27.51093 56.90604)"/><ellipse cx="5" cy="90" fill="#4c312b" fill-opacity=".8" rx="3" ry="123"/><circle r="1" fill="#576348" fill-opacity=".6" transform="rotate(132.5 84.9 117.2) scale(35.10355 63.33643)"/><path fill="#b8dbca" fill-opacity=".4" d="M213.5 63.7l6.6 3.2 18.8 7.4-12.2-44.2z"/><path fill="#cacacf" fill-opacity=".9" d="M127.3 88.8l-36.6 85.3-5.7 2.8 2.7-53.5z"/><path fill="#fff" fill-opacity=".5" d="M151 179l26-33-6-34z"/><path fill="#351718" fill-opacity=".5" d="M82.9 57.9l11.9 6.5 10.4 48.3-34.6-36.3z"/><circle r="1" fill="#5e443a" fill-opacity=".7" transform="rotate(90.1 26.3 95.9) scale(18.94735 13.19516)"/><path fill="#ccd4cd" fill-opacity=".5" d="M144-4l-4 97-19-81z"/><path fill="#afa28f" fill-opacity=".6" d="M58 24h12v81H58z"/><circle r="1" fill="#04655a" fill-opacity=".5" transform="matrix(7.61847 -12.5796 9.34473 5.65937 117.6 4.7)"/><path fill="#c5c8d3" fill-opacity=".6" d="M145.6 104.3l5.4 27.4-20.6 4-5.4-27.4z"/><path fill="#c0c1bc" fill-opacity=".6" d="M103 92l16-64-30 3z"/><path fill="#1d0600" fill-opacity=".5" d="M-16 47.9L7.3 58.6l-1.8-38L5.3-16z"/><circle r="1" fill="#210000" fill-opacity=".4" transform="matrix(30.77257 89.73301 -23.51733 8.06491 255 35)"/><path fill="#fcffff" fill-opacity=".6" d="M3 119l1 43-20-68z"/><path fill="#996b5d" fill-opacity=".7" d="M211 155h45v15h-45z"/><ellipse cx="165" cy="4" fill="#4c8763" fill-opacity=".6" rx="24" ry="21"/><path fill="#543a36" fill-opacity=".9" d="M75.8 135.7l-7.2 31.6-19.3 14.8-5.3-112z"/><ellipse cx="40" cy="112" fill="#fae7ee" fill-opacity=".5" rx="2" ry="112"/><path fill="#113724" fill-opacity=".5" d="M241.3 77l-14.5 29.6-44-21.5 14.4-29.7z"/><path fill="#d5b398" fill-opacity=".3" d="M138.4 114.4l67.9 6.4-7.2 33.4-8.2-5.8z"/><path fill="#0b0708" fill-opacity=".5" d="M192 163l6 15.7 32.2-44.9.7-22.7z"/><path fill="#4f2a28" fill-opacity=".5" d="M35 82h5v71h-5z"/><path fill="#0d0914" fill-opacity=".5" d="M141 132h5v38h-5z"/><ellipse cx="42" cy="110" fill="#f2dae0" fill-opacity=".3" rx="4" ry="80"/><path fill="#bfbabd" fill-opacity=".8" d="M20-16l19 38L6 32z"/><ellipse cx="149" cy="154" fill="#c9d0d9" fill-opacity=".7" rx="3" ry="30"/><path fill="#1e0000" fill-opacity=".5" d="M7 112h3v55H7z"/><path fill="#c5cedb" fill-opacity=".4" d="M158.7 148.7l33.5 30.8-6.7-20.3-19.1-25.7z"/><path fill="#724031" fill-opacity=".5" d="M69 137l7-63-26 59z"/><path fill="#b2b6ab" fill-opacity=".6" d="M186.4 36.8l1.9 33.8-15.6 14.1-8.9-71.6z"/><path fill="#27130c" fill-opacity=".5" d="M132 75l-22 5-5 19z"/><path fill="#846861" d="M138.2 159.2l-16.9-50.3-6.1 32.8 51.5 43.3z"/><path fill="#4a7555" fill-opacity=".5" d="M240.2 83.5l19.3 23-23.7 20-19.3-23z"/><path fill="#cdcdc9" fill-opacity=".7" d="M164 45l-26 33-6-91z"/><path fill="#865" fill-opacity=".8" d="M150.8 62.3l14.8 8.2-18.4 33.2-14.8-8.2z"/><ellipse cx="12" cy="48" fill="#3a1211" fill-opacity=".4" rx="3" ry="21"/><path fill="#dadde2" fill-opacity=".6" d="M107 119.7l-28.5 38.2-4.4-67 15.4-.4z"/><ellipse cx="14" cy="118" fill="#41150e" fill-opacity=".4" rx="2" ry="34"/><circle r="1" fill="#145b1a" fill-opacity=".5" transform="matrix(-12.49615 -21.02783 7.47818 -4.44404 149.1 0)"/><path fill="#c5b5b4" fill-opacity=".9" d="M7.9 71.7L26.3 58 40 76.3 21.7 90z"/><path fill="#3c221d" fill-opacity=".7" d="M74.4 93.8l5.1-32.7 12.2 2.8-7.4 23.7z"/><path fill="#f5c0cc" fill-opacity=".3" d="M181 17.7l9.3-1.9-9.8-31.8L179 6.7z"/><path fill="#ded1d9" fill-opacity=".5" d="M7 0h2v44H7z"/><path fill="#dac0bb" fill-opacity=".6" d="M12 152h32v18H12z"/><path fill="#181b12" fill-opacity=".4" d="M227.1 64.3l-28.8 36.4-8.4 24.3 19.6-10.5z"/><ellipse cx="38" fill="#d9d3d9" fill-opacity=".7" rx="2" ry="53"/><path fill="#321e1f" fill-opacity=".7" d="M55.2 159.9l4-5.8 35.6 24-4 5.8z"/><path fill="#0e0000" fill-opacity=".5" d="M34.8 23.5h1l1.4 39h-1z"/><path fill="#282b00" fill-opacity=".4" d="M168 95.9l-3.5-30.6-8.1 34.5 2-.5z"/><path fill="#9c8e93" fill-opacity=".6" d="M147.7 126.6l-15.9 34.9-18.9-45.5-16 29.2z"/><path fill="#5d3531" fill-opacity=".5" d="M164 131l-7 20-3-25z"/><circle r="1" fill="#c0b9b1" transform="matrix(9.56195 1.47484 -1.0711 6.94434 165.4 120.2)"/><path fill="#300904" fill-opacity=".4" d="M169.5 159.7l1.3 25.3-8.5-21.9 8.9-3.3z"/><path fill="#ba8f80" fill-opacity=".7" d="M115.8 70.9l4.8-13.7 6.6 1.5-6.2 18.8z"/><path fill="#854c40" d="M87.1-16L71.8 5.5-12.4-16l69 18z"/></g></svg>