<svg xmlns="http://www.w3.org/2000/svg" viewBox="0 0 300 199"><defs/><path fill="#4e3f37" d="M0 0h300v199H0z"/><g transform="translate(.6 .6) scale(1.17188)"><circle r="1" fill="#e2eae1" fill-opacity=".5" transform="matrix(111.93481 -8.97013 12.42778 155.08138 113.2 91.7)"/><circle r="1" fill="#00040d" fill-opacity=".7" transform="rotate(88.4 -21.7 117.3) scale(59.79771 17.38749)"/><circle r="1" fill="#fff" fill-opacity=".7" transform="rotate(-21.3 528.2 -335.4) scale(28.09179 49.67845)"/><ellipse cx="122" cy="5" fill="#fff2d7" fill-opacity=".7" rx="86" ry="26"/><path fill="#ffe9c0" fill-opacity=".7" d="M242 36h14v51h-14z"/><circle r="1" fill="#432703" fill-opacity=".4" transform="matrix(14.34438 -21.31689 31.52663 21.21464 129.7 65.2)"/><circle r="1" fill="#6b6757" fill-opacity=".6" transform="rotate(-102 171.8 -25.1) scale(115.62668 29.69611)"/><ellipse cx="191" cy="54" fill="#ffe2ca" fill-opacity=".5" rx="9" ry="130"/><path fill="#1c2224" fill-opacity=".7" d="M137.7 121.4l-83 63.6L98 106.6l7.9 78.4z"/><path fill="#231702" fill-opacity=".5" d="M139 59l45 50v46z"/><circle r="1" fill="#f7ffff" fill-opacity=".6" transform="matrix(1.17966 -43.02267 5.86934 .16093 48.2 148)"/><circle r="1" fill="#586c7c" fill-opacity=".5" transform="rotate(-91.8 42.8 44.2) scale(108.81553 46.74519)"/><ellipse cx="146" cy="111" fill="#f9eff3" fill-opacity=".7" rx="13" ry="16"/><circle r="1" fill="#ffebcb" fill-opacity=".5" transform="matrix(-13.21838 -2.23572 5.4876 -32.44464 53.8 33.7)"/><ellipse cx="112" cy="115" fill="#fff" fill-opacity=".7" rx="3" ry="22"/><path fill="#776848" fill-opacity=".5" d="M239.8 59.8l-99.5-49 2.9 37.2L271 12.2z"/><path fill="#747968" fill-opacity=".6" d="M32 99l49-82 71 50z"/><circle r="1" fill="#d2c5d7" fill-opacity=".4" transform="matrix(-10.20757 -6.4048 11.49577 -18.32123 77 86.9)"/><path fill="#000008" fill-opacity=".5" d="M116.6 117.3l24 2.5-1.2 11-24-2.6z"/><path fill="#aac5d3" fill-opacity=".5" d="M209 122h18v30h-18z"/><circle r="1" fill="#f6fcff" fill-opacity=".6" transform="matrix(0 18.9676 -35.50147 0 155.2 164.4)"/><path fill="#2e3036" fill-opacity=".7" d="M248.9 160l21.6 25-68.6-40.5 6.2 32.1z"/><ellipse cx="123" cy="98" fill="#323030" rx="2" ry="25"/><ellipse cx="52" cy="78" fill="#002711" fill-opacity=".5" rx="7" ry="13"/><path fill="#fff" fill-opacity=".5" d="M104 131h21v5h-21z"/><path fill="#5b543d" fill-opacity=".6" d="M195 85v34l40-11z"/><path fill="#424437" fill-opacity=".5" d="M2.8 40.2l-.6-30 25-.4.6 30z"/><path fill="#000106" fill-opacity=".3" d="M99 53.2l9.8 99.7-40.6-23.4 48.7-67.9z"/><ellipse cx="12" cy="41" fill="#3d383f" fill-opacity=".5" rx="4" ry="108"/><path fill="#99a5b2" fill-opacity=".5" d="M16 53h23v76H16z"/><circle cx="117" cy="5" r="31" fill="#ede7dc" fill-opacity=".5"/><path fill="#ffdada" fill-opacity=".5" d="M110 99l9-35-15 13z"/><path fill="#343824" fill-opacity=".9" d="M165.8 130.9l16.7-10.3 1.9 24.8-.5 6.4z"/><path fill="#938780" fill-opacity=".7" d="M160 50h11v75h-11z"/><ellipse cx="244" cy="63" fill="#ffeec4" fill-opacity=".2" rx="6" ry="40"/><ellipse cx="217" cy="15" fill="#5c513a" rx="11" ry="25"/><circle r="1" fill="#fff5dc" fill-opacity=".5" transform="matrix(-6.85254 -13.61868 27.559 -13.86691 67 8.1)"/><ellipse cx="186" cy="37" fill="#eed9c8" fill-opacity=".5" rx="5" ry="86"/><circle cx="88" cy="43" r="26" fill="#868a73" fill-opacity=".4"/><path fill="#d5c7d3" fill-opacity=".4" d="M62 73h14v49H62z"/><path fill="#001749" fill-opacity=".4" d="M0 163h43v7H0z"/><circle r="1" fill="#143f32" fill-opacity=".4" transform="matrix(-22.8803 -42.81663 5.0541 -2.7008 235.6 140)"/><ellipse cx="25" cy="94" fill="#141626" fill-opacity=".3" rx="2" ry="149"/><path fill-opacity=".5" d="M116 99h2v31h-2z"/><path fill="#6b7366" fill-opacity=".6" d="M64 185l29-30-32-12z"/><path fill="#57482e" fill-opacity=".5" d="M156.8 17.6l26 25-5.6 5.8-26-25z"/><path fill="#f1fbff" fill-opacity=".6" d="M42 123h8v47h-8z"/><ellipse cx="207" cy="67" fill="#9c8064" fill-opacity=".7" rx="12" ry="33"/><circle r="1" fill="#776c60" fill-opacity=".6" transform="matrix(8.32272 8.0935 -22.7837 23.429 249.3 93.7)"/><circle r="1" fill="#d2d7e5" fill-opacity=".6" transform="matrix(-5.13705 .47655 -4.1431 -44.66128 191.8 155.1)"/><ellipse cx="3" cy="79" fill="#aba69d" fill-opacity=".4" rx="5" ry="46"/><path fill="#d5c4ca" fill-opacity=".6" d="M144 115l-16 5-3-14z"/><path fill="#191d24" d="M97 150.3L91.8 185l21.6-12.6 13.4-36.5z"/><path fill="#f4d7ad" fill-opacity=".6" d="M171 0h36v27h-36z"/><path fill="#2e2323" fill-opacity=".6" d="M125.9 95.1l1.2 15.2-3-3.2-9.3-28.9z"/><path fill="#fff3dd" fill-opacity=".5" d="M266.1 69.5l-23.9-2 1.7-19 23.9 2z"/><path fill="#bfc4ae" fill-opacity=".5" d="M49 63l32-46-15 46z"/><path fill="#aeb1b4" fill-opacity=".5" d="M177 63l21 59-48-68z"/><path fill="#191818" fill-opacity=".5" d="M205 127h5v39h-5z"/><path fill="#4f271b" fill-opacity=".5" d="M141 68h18v26h-18z"/><path fill="#fdffff" fill-opacity=".5" d="M106 134l9-9-1-18z"/><path fill="#393a35" fill-opacity=".7" d="M110.8 60.8L100.1 97l-7.9-23.5 19.1-13.8z"/><ellipse cx="44" cy="81" fill="#276a4d" fill-opacity=".5" rx="4" ry="22"/><path fill="#c5ad9e" fill-opacity=".6" d="M192.3 172.4l11.1-49 5.3-25.5-7.9 74.8z"/><path fill="#f1f4f9" fill-opacity=".5" d="M168.8 170.9l-41-32 15.4-19.8 41 32z"/></g></svg>