<svg xmlns="http://www.w3.org/2000/svg" viewBox="0 0 299 449"><defs/><path fill="#3b2a20" d="M0 0h299v449H0z"/><g transform="translate(.9 .9) scale(1.7539)"><ellipse cx="111" cy="67" fill="#b6a491" fill-opacity=".7" rx="116" ry="245"/><circle r="1" fill="#341b07" fill-opacity=".7" transform="matrix(21.9413 -10.77148 48.52675 98.84807 99.6 0)"/><circle r="1" fill="#d5d0d7" fill-opacity=".5" transform="rotate(80.6 -46.5 151.5) scale(51.54684 73.17136)"/><circle r="1" fill-opacity=".6" transform="rotate(18 -619.6 160.6) scale(12.3586 82.21239)"/><circle r="1" fill="#efc1b0" fill-opacity=".6" transform="rotate(85 26.4 79) scale(12.6659 15.31518)"/><path fill="#fcbc55" fill-opacity=".6" d="M123.5 6.2L148-14.4l40.5 48.2L164 54.4z"/><circle r="1" fill="#030d1c" fill-opacity=".5" transform="matrix(-.88808 19.50273 -14.86703 -.67698 146.5 238.1)"/><circle r="1" fill="#2a1b08" fill-opacity=".7" transform="matrix(-43.7794 -28.7532 12.66332 -19.28108 86.6 0)"/><path fill="#331a07" fill-opacity=".6" d="M139 130l-26-20 27-94z"/><circle r="1" fill="#babfcd" fill-opacity=".5" transform="matrix(-9.33553 53.945 -9.29472 -1.60851 36.3 229.1)"/><circle r="1" fill="#bfc2d4" fill-opacity=".5" transform="rotate(-160.7 70.6 119.5) scale(37.16215 17.14491)"/><path fill="#542e0f" fill-opacity=".5" d="M65 60l15 35 5-82z"/><ellipse cx="13" cy="141" fill="#76807b" fill-opacity=".6" rx="22" ry="40"/><path fill="#351500" fill-opacity=".5" d="M167 22h4v98h-4z"/><path fill="#ba7b39" fill-opacity=".5" d="M55.3 59.4L-11 14.7l25.7-38.1L81 21.3z"/><path fill="#000001" fill-opacity=".7" d="M15 271l-31-38 52-54z"/><ellipse cx="66" cy="170" fill="#ccc8c7" fill-opacity=".5" rx="25" ry="44"/><path fill="#000409" fill-opacity=".5" d="M61.9 116.5l-29.4 57.8 6.3-46-9.7 1.1z"/><path fill="#c99a83" fill-opacity=".5" d="M128.7 66l-10 25.4-55.9 62.1 20.3-82.7z"/><path fill="#44484d" fill-opacity=".5" d="M166 184l-51 63 47-31z"/><circle r="1" fill="#090000" fill-opacity=".5" transform="matrix(9.75502 -7.78733 10.16898 12.73846 133.3 34.6)"/><path fill="#ba845d" fill-opacity=".4" d="M75.7 132.5l70.7-33 14 30-70.8 33z"/><path fill="#f8ffbe" fill-opacity=".6" d="M146 1h21v17h-21z"/><path fill="#a27337" fill-opacity=".5" d="M143 47h24v78h-24z"/><circle r="1" fill="#464c45" fill-opacity=".6" transform="matrix(26.8871 .3285 -.20598 16.85925 9.8 187.8)"/><path fill="#140f09" fill-opacity=".6" d="M84 15l40-6-49 35z"/><path fill="#4c4a4c" fill-opacity=".5" d="M112 212l-8 24 82 30z"/><path fill="#ae8977" fill-opacity=".6" d="M83.5 156.3l34-.7-13.2 43.8-8.3 1.2z"/><path fill="#b6b5bc" fill-opacity=".6" d="M128.9 152.7l-28.6 50.5-12.5-15 8.1 82.8z"/><path fill="#2f2107" fill-opacity=".4" d="M168.8 122.4l-8.2 1-5.2-9.9L186 55.4z"/><path fill="#d8923a" fill-opacity=".6" d="M162-10.5l-38.8 13 1.2 14.5 16.7 2.4z"/><circle r="1" fill="#e4c1b6" fill-opacity=".5" transform="matrix(-14.97669 2.15817 -1.04834 -7.275 94 50)"/><path fill="#d3924d" fill-opacity=".5" d="M175.7 17.5l-39.8 1.3L153 55.6l8.1 20.2z"/><path fill="#907755" fill-opacity=".7" d="M95.8 121.9L.8 49.1l-8.1-26.8 64.1 12.8z"/><path fill="#a7b4d5" fill-opacity=".4" d="M159 229l24-94 3 108z"/><path fill="#6d686d" fill-opacity=".5" d="M53 188l-11 83 23-23z"/><path fill="#c3c1c3" fill-opacity=".4" d="M23 233l30-105 44 72z"/><path fill="#69615c" fill-opacity=".5" d="M91 230l-71 3 65-21z"/><path fill="#edbdb0" fill-opacity=".4" d="M79 72h42v9H79z"/><path fill="#272218" fill-opacity=".7" d="M35.5 134.8l-.3-10.2 28.6-5.2 8.3 1.2z"/><path fill-opacity=".6" d="M152 234l7 20-1-30z"/><path fill="#a4aabe" fill-opacity=".4" d="M116 246h30v10h-30z"/><path fill="#4b2712" fill-opacity=".5" d="M136 113l-37-1 30-24z"/><circle r="1" fill="#b7bdc9" fill-opacity=".4" transform="matrix(19.82604 -29.76235 18.1261 12.0746 138.9 177.8)"/><circle r="1" fill="#1e0004" fill-opacity=".3" transform="matrix(-3.40304 5.50999 -4.73763 -2.92602 86.5 65.5)"/><path fill="#8b634e" fill-opacity=".5" d="M129.5 73.5l4.2-8.2-20.5-32.9-17.1-6.1z"/><path fill="#010000" fill-opacity=".7" d="M77.3 10.4L54 4.6l.7-3L78 7.4z"/><ellipse cx="67" cy="153" fill="#c7c2bc" fill-opacity=".4" rx="21" ry="31"/><circle r="1" fill="#8f8f7f" fill-opacity=".6" transform="matrix(-30.68854 13.59929 -9.57077 -21.59768 14.3 108.2)"/><path fill="#110b01" fill-opacity=".4" d="M125.3 48.3l21.1-21.6-4.7 49.1 2 30z"/><path fill="#9f8974" fill-opacity=".5" d="M50 191l14-32-8 61z"/><path fill="#050505" fill-opacity=".9" d="M32.6 198.3l-48.6 9.6 12.9 59.5 32.9-52.5z"/><path fill="#82868d" fill-opacity=".4" d="M129 232l57-98v42z"/><path fill="#6c6f6b" fill-opacity=".5" d="M0 140h35v34H0z"/><path fill="#03050c" fill-opacity=".5" d="M36 129l1 44 15-48z"/><path fill="#150e05" fill-opacity=".6" d="M144.9 40.8L95.4 18.7 51.8 5.1l78.5 11.6z"/><path fill="#a57441" fill-opacity=".5" d="M86 15l-21-3-6 53z"/><path fill="#020203" fill-opacity=".9" d="M26 271l-42-21 39-21z"/><path fill="#9b7b5c" fill-opacity=".5" d="M145.4 139.2l-27.6-34.3 9.8 9.1-75-13.5z"/><path fill="#563c25" fill-opacity=".6" d="M87 110L74 91l2-17z"/><path fill="#181108" fill-opacity=".6" d="M61.8 237.6l-.6-13 3-.2.6 13z"/><circle r="1" fill="#d5a895" fill-opacity=".3" transform="matrix(-6.33818 -13.46933 14.24172 -6.70164 97 45)"/><path fill="#4a2600" fill-opacity=".6" d="M170 0h1v85h-1z"/><path fill="#a29f99" fill-opacity=".5" d="M186 142l-41-27-7 16z"/><path fill="#a1675d" fill-opacity=".6" d="M101 61l-7 35 15 1z"/></g></svg>