<svg xmlns="http://www.w3.org/2000/svg" viewBox="0 0 300 199"><defs/><path fill="#453e3a" d="M0 0h300v199H0z"/><g transform="translate(.6 .6) scale(1.17188)"><circle cx="163" cy="65" r="60" fill="#b1b5bd" fill-opacity=".6"/><circle r="1" fill="#ebecec" fill-opacity=".7" transform="matrix(50.89487 .60475 -.16082 13.53415 136.9 106.9)"/><ellipse cx="125" cy="33" fill="#fff" fill-opacity=".7" rx="42" ry="7"/><circle r="1" fill="#faf7fe" fill-opacity=".7" transform="matrix(1.54784 27.10442 -14.9084 .85137 194 44.9)"/><circle r="1" fill-opacity=".6" transform="matrix(.7791 -36.3642 186.8373 4.003 147 156.2)"/><path fill="#000006" fill-opacity=".6" d="M120 0h65v28h-65z"/><ellipse cx="198" cy="78" fill="#090e11" fill-opacity=".7" rx="59" ry="8"/><ellipse cx="11" cy="10" fill="#1e1a18" fill-opacity=".9" rx="43" ry="132"/><path fill="#1c0e0b" fill-opacity=".5" d="M103 89l66-48-64-3z"/><path fill="#ebf2df" fill-opacity=".4" d="M109.8 11.8l-3.9 30.5-21.1 14L97.7 5.2z"/><circle r="1" fill="#929993" fill-opacity=".5" transform="rotate(168.9 109 27) scale(9.77412 40.31592)"/><ellipse cx="146" cy="34" fill="#f3f4f3" fill-opacity=".9" rx="59" ry="6"/><circle r="1" fill="#fbd7bf" fill-opacity=".4" transform="matrix(5.0336 -22.33586 3.94178 .88832 26.8 64.5)"/><circle r="1" fill="#000506" fill-opacity=".4" transform="rotate(61.1 9.6 176.3) scale(16.21801 16.40219)"/><path fill="#d2dafb" fill-opacity=".5" d="M176 85h27v33h-27z"/><path fill="#e49939" fill-opacity=".4" d="M72 61L55 27l-9 75z"/><path fill="#d0d1d3" fill-opacity=".5" d="M90 92h98v27H90z"/><circle r="1" fill="#040a12" fill-opacity=".4" transform="matrix(4.39352 27.42966 -57.8874 9.27206 223.4 136)"/><path fill="#fce3b9" fill-opacity=".5" d="M119 69h25v12h-25z"/><circle r="1" fill="#000311" fill-opacity=".6" transform="matrix(11.3117 -1.0048 2.56874 28.91777 244.2 7.2)"/><path fill="#fdffff" fill-opacity=".6" d="M270.5 53.4l-91 3.2v-2l91-3.2z"/><path fill="#1b130e" fill-opacity=".6" d="M90.2 100.4l1.5 21.9-47.9 3.3-1.5-21.9z"/><path fill="#e5deeb" fill-opacity=".4" d="M184 12h20v60h-20z"/><path fill="#1a1f23" fill-opacity=".7" d="M147.6-16l39.3 37 6.4 11.8-76.2-25.4z"/><path fill="#3b4043" fill-opacity=".8" d="M271 84l-65 26V77z"/><path fill="#1b1410" fill-opacity=".5" d="M131 40h45v13h-45z"/><path fill="#ebf3ff" fill-opacity=".5" d="M96 37l-10-4 7 26z"/><circle r="1" fill="#312b20" fill-opacity=".9" transform="rotate(-99.3 52.6 -14.8) scale(20.63938 11.23872)"/><path fill="#aa968b" fill-opacity=".7" d="M123.9 105.6L120.4 45l24 42.1-20.4-53z"/><path fill="#1e2935" fill-opacity=".5" d="M121.8 47L84.2 88.7l-6.8-59.5 37.9 72.8z"/><circle r="1" fill="#0a0b0d" fill-opacity=".7" transform="matrix(30.70188 6.19733 -8.1288 40.27049 31.5 0)"/><path fill="#000009" fill-opacity=".3" d="M191 95l-5-21 39-7z"/><path fill="#ebe7e9" fill-opacity=".7" d="M208.5 20.9l-1.9 49.3L174 50.3l11.1-20z"/><path fill="#515940" fill-opacity=".5" d="M104 1h25v27h-25z"/><path fill="#fdfef6" fill-opacity=".4" d="M29 80l-2-19-9 1z"/><path fill="#dcffff" fill-opacity=".5" d="M255 20h1v50h-1z"/><circle r="1" fill="#858691" fill-opacity=".5" transform="matrix(.43647 -5.5498 43.4323 3.4158 134.4 95.1)"/><circle r="1" fill="#92acc9" fill-opacity=".7" transform="matrix(-10.82217 -2.09502 1.35263 -6.98724 179.5 65.2)"/><path fill="#2b3542" fill-opacity=".7" d="M230.1 34.2l24.5 3.6-6.3 8.5-31.6 7.1z"/><path fill="#212423" fill-opacity=".6" d="M145.6 87.4l31.8 3.5-17-28.9-19.2 11.7z"/><path fill="#332a23" fill-opacity=".8" d="M52.5 138.4L8.6 43.1l26.5 15.8-50.4 20.4z"/><path fill="#f0eed9" fill-opacity=".4" d="M121.6 33.6L84 49.5 111.6-.7l-12.1 35z"/><ellipse cx="136" cy="110" fill="#eeeae2" fill-opacity=".6" rx="43" ry="6"/><path fill="#47608b" fill-opacity=".4" d="M101 7L79-1l7 33z"/><ellipse cx="145" cy="119" fill="#707578" fill-opacity=".4" rx="58" ry="3"/><path fill="#1c2026" fill-opacity=".8" d="M121 0h89v11h-89z"/><path fill="#ffdc9b" fill-opacity=".4" d="M143.1 61.1l2-11.2 9.7 7.5-3.8 13.7z"/><ellipse cx="109" cy="47" fill="#231a1e" fill-opacity=".4" rx="17" ry="5"/><path fill="#dcd9eb" fill-opacity=".4" d="M209.7 58.2L169.6-4.4 193.4 22l13 55.2z"/><path fill="#7d4e22" fill-opacity=".4" d="M56 19h19v76H56z"/><path fill="#e4e3de" fill-opacity=".5" d="M130.2 40.5l-3 8.1-14-17.7 47.4 9.6z"/><path fill-opacity=".5" d="M138 51h6v16h-6z"/><path fill="#c19f5e" fill-opacity=".6" d="M47 81l7-27 16 7z"/><path fill="#e4d7e2" fill-opacity=".4" d="M109 58l2-12-8-15z"/><path fill="#88887d" fill-opacity=".6" d="M230 32.9l5.4-13.6-25.4.4 1 43.4z"/><path fill="#3a577d" fill-opacity=".9" d="M186.2 61.3l-12.7 29.2 10.2-23-14.6-19.8z"/><path fill="#eef9ff" fill-opacity=".4" d="M185 72l-16-25 4 19z"/><path fill="#b8cbf6" fill-opacity=".2" d="M95.4 72.1l-5.8-9.9-1.2-45.6 8.6 51z"/><path fill="#1b1d1d" fill-opacity=".7" d="M89.3 72.7L66.7 11.4l10.6 3.2 8.4 21.2z"/><path fill="#f1f6fa" fill-opacity=".4" d="M123 27h43v10h-43z"/><path fill="#05090a" fill-opacity=".6" d="M35 33h17v37H35z"/><circle cx="133" cy="58" r="6" fill="#cc9083" fill-opacity=".5"/><path fill="#eafdff" fill-opacity=".3" d="M179.9 112.5l8.8 3.8-.2-26.8-11.2-7.5z"/><path fill="#ffaa86" fill-opacity=".2" d="M37.8 46.4L22 66l-7.8-6.3L30 40z"/><path fill="#112743" fill-opacity=".4" d="M245 54h10v68h-10z"/></g></svg>