<svg xmlns="http://www.w3.org/2000/svg" viewBox="0 0 300 199"><defs/><path fill="#46314e" d="M0 0h300v199H0z"/><g transform="translate(.6 .6) scale(1.17188)"><circle cx="101" cy="72" r="221" fill="#251e00" fill-opacity=".7"/><path fill="#dcb4e9" fill-opacity=".6" d="M122 62h37v54h-37z"/><circle r="1" fill="#ffe247" fill-opacity=".5" transform="matrix(10.41939 33.22604 -19.06972 5.9801 71.5 82.1)"/><circle r="1" fill="#040008" fill-opacity=".8" transform="matrix(-49.2304 -17.72403 36.48244 -101.33387 226.6 118)"/><circle r="1" fill="#6a5910" fill-opacity=".7" transform="rotate(-123.9 49.2 6.5) scale(26.40028 58.95081)"/><circle cx="170" cy="68" r="36" fill="#493061" fill-opacity=".5"/><circle r="1" fill="#130a00" fill-opacity=".9" transform="matrix(-25.59173 33.35179 -54.79565 -42.04618 4.2 130.5)"/><path fill="#fef" fill-opacity=".5" d="M140 116l-21 3 7-41z"/><path fill="#e3cb60" fill-opacity=".5" d="M87.3 59.8L59 82.5l28.8 40.9 5.3-8.1z"/><ellipse cx="106" cy="139" fill-opacity=".7" rx="15" ry="66"/><circle r="1" fill="#0e0418" fill-opacity=".7" transform="matrix(-32.3757 -44.55407 29.41793 -21.37686 203.3 24.4)"/><circle r="1" fill="#745b62" fill-opacity=".6" transform="rotate(44.9 -12 206.3) scale(43.18444 14.81475)"/><path fill="#6f5804" fill-opacity=".6" d="M43.4 100.6l49.5 38.7 5.7-20.8-66.2-39z"/><path fill="#412848" fill-opacity=".6" d="M120 122l72-35-51 48z"/><path fill="#fff" fill-opacity=".6" d="M241 9h7v7h-7z"/><ellipse cx="106" cy="83" fill-opacity=".6" rx="17" ry="25"/><circle r="1" fill="#332900" fill-opacity=".5" transform="matrix(-133.6374 79.8087 -23.2359 -38.90784 20.3 24.2)"/><path fill="#847028" fill-opacity=".7" d="M96.9 62.1L110 72.3 97.1 37.9l-59.3 61z"/><path fill="#ffd4ff" fill-opacity=".3" d="M124.3 111.7l27.1-2.7L138 71.5l-17.8 37.7z"/><ellipse cx="115" cy="154" fill="#1f1002" fill-opacity=".5" rx="96" ry="17"/><path fill="#f9ef86" fill-opacity=".6" d="M81 90h10v17H81z"/><circle r="1" fill="#372834" fill-opacity=".3" transform="matrix(-10.6394 21.71773 -55.94302 -27.4062 162.4 49.3)"/><ellipse cx="236" cy="129" fill-opacity=".4" rx="93" ry="30"/><ellipse cx="64" cy="145" fill="#3b2600" fill-opacity=".4" rx="21" ry="41"/><path fill="#ffffb7" fill-opacity=".5" d="M245 5l-8 9 10-2z"/><path fill="#080309" fill-opacity=".9" d="M249.2-11.1L186.3 6.3 207 4.9 263.6 9z"/><circle r="1" fill="#1a1200" fill-opacity=".7" transform="matrix(-55.30994 39.27623 -13.62242 -19.18349 10.8 0)"/><path fill="#948050" fill-opacity=".4" d="M127 86l-14-40 22 6z"/><path fill="#8f709a" fill-opacity=".4" d="M122.8 69.7l21.5 39 27.6-3.2-23.1-29.1z"/><path fill="#433118" fill-opacity=".6" d="M113.9 147.2l-8.9 5.7-4.5-16.2 10.8-11.4z"/><circle r="1" fill="#968124" fill-opacity=".3" transform="rotate(-136.4 43.9 30.4) scale(19.26839 14.30203)"/><path fill="#f0d7f1" fill-opacity=".6" d="M135.6 98l-9.5 16.5-7.7-4.5 9.5-16.5z"/><path fill="#c1b065" fill-opacity=".5" d="M104 63h3v12h-3z"/><circle r="1" fill="#615118" fill-opacity=".5" transform="matrix(-1.38326 -11.94232 42.58622 -4.9327 91.6 42.9)"/><circle r="1" fill="#362800" fill-opacity=".5" transform="matrix(57.496 46.8926 -6.19236 7.59259 28 92.8)"/><ellipse cy="135" fill="#000001" fill-opacity=".5" rx="30" ry="35"/><path fill="#27142c" fill-opacity=".4" d="M233 69l-86 45 33 4z"/><path fill="#4e3959" fill-opacity=".4" d="M166.7 106.3l-40.6-84.1 37.6 29.9 23.1 37.8z"/><path fill="#bda048" fill-opacity=".5" d="M89 112h6v9h-6z"/><path fill="#856087" fill-opacity=".6" d="M120 116l20.4-4.8 1.6 6.8-20.4 4.8z"/><ellipse cx="111" cy="58" fill-opacity=".7" rx="5" ry="8"/><ellipse cx="85" cy="141" fill="#020101" fill-opacity=".8" rx="73" ry="2"/><circle r="1" fill="#4d3f05" fill-opacity=".4" transform="rotate(-129.7 40.6 5) scale(19.46623 61.9115)"/><path fill="#543c34" fill-opacity=".4" d="M123 128h27v25h-27z"/><circle r="1" fill="#1e1223" fill-opacity=".5" transform="matrix(-48.89725 -75.82966 12.88282 -8.30723 160.7 10.9)"/><path fill="#fdc34f" fill-opacity=".1" d="M86.2 150.8l-10.5-21.3 18.3 7.9-36.2 13.2z"/><path fill-opacity=".5" d="M91 74h32v23H91z"/><ellipse cx="118" cy="140" fill="#050200" fill-opacity=".8" rx="65" ry="2"/><ellipse cx="118" cy="155" fill="#000001" fill-opacity=".7" rx="5" ry="39"/><path fill="#030102" fill-opacity=".6" d="M197.7 185L254.1 8.7l-7.9 5.6L271 166.1z"/><circle cx="77" cy="97" r="10" fill="#e0cc5e" fill-opacity=".4"/><ellipse cx="217" cy="4" fill="#08010d" fill-opacity=".5" rx="23" ry="26"/><circle cx="85" cy="69" r="6" fill="#937c2c" fill-opacity=".5"/><path fill="#eccdf7" fill-opacity=".5" d="M119 111.7l22.8-10.2 1.2 2.8-22.8 10.2z"/><path fill="#ceb793" fill-opacity=".3" d="M254 7h2v10h-2z"/><path fill="#372a08" fill-opacity=".4" d="M96 35l-9.2-47.1L122-19l9.1 47.1z"/><path fill="#947e36" fill-opacity=".4" d="M64.1 107.4l30.2-43.8 22.3-22.2-16 1.3z"/><path fill="#000002" fill-opacity=".6" d="M95 77h25v49H95z"/><ellipse cx="47" cy="125" fill-opacity=".4" rx="24" ry="6"/><ellipse cx="157" cy="84" fill="#361d39" fill-opacity=".4" rx="32" ry="1"/><path fill="#d0aece" fill-opacity=".5" d="M127 103l17 9-17-34z"/><path fill="#060404" fill-opacity=".8" d="M104.6 65.9l-11.1-3.1-2.9 7.9 2.9 37.1z"/><ellipse cx="160" cy="145" fill="#462c27" fill-opacity=".3" rx="27" ry="4"/><path fill="#7a5fa4" fill-opacity=".1" d="M161.2 63.2l17 16.8v1.8l-56.3 60.7z"/><circle r="1" fill="#2e2400" fill-opacity=".5" transform="matrix(-71.58645 84.0299 -13.52178 -11.51943 39.6 14.7)"/></g></svg>