<svg xmlns="http://www.w3.org/2000/svg" viewBox="0 0 300 199"><defs/><path fill="#6a433c" d="M0 0h300v199H0z"/><g transform="translate(.6 .6) scale(1.17188)"><circle r="1" fill="#eae2d5" fill-opacity=".8" transform="matrix(-2.82165 50.05333 -54.18404 -3.0545 189.5 152.7)"/><circle r="1" fill="#fde4b0" fill-opacity=".5" transform="matrix(-86.36788 19.6223 -14.43216 -63.52338 84.9 57.7)"/><circle r="1" fill="#0a0400" fill-opacity=".8" transform="matrix(22.16999 -9.41191 13.49461 31.78689 205 44.8)"/><circle r="1" fill="#d8ad72" fill-opacity=".5" transform="matrix(-20.6342 -3.89887 15.52414 -82.1592 251 48.3)"/><circle r="1" fill="#3f3101" fill-opacity=".4" transform="matrix(17.5639 29.52917 -88.93931 52.90095 50 149)"/><circle r="1" fill="#2a0800" fill-opacity=".6" transform="matrix(-33.94012 -7.46222 4.95032 -22.51533 0 18)"/><circle r="1" fill="#d8b9a5" fill-opacity=".6" transform="matrix(11.64795 -1.18316 13.09886 128.95587 155 80.7)"/><circle r="1" fill="#dac29f" fill-opacity=".5" transform="matrix(-107.12418 106.14158 -19.71137 -19.89384 69.3 35)"/><circle r="1" fill="#c9965c" fill-opacity=".7" transform="matrix(1.89986 -9.53568 100.49563 20.02243 197.2 0)"/><circle r="1" fill="#8f6745" fill-opacity=".5" transform="matrix(28.81383 -4.3944 9.91109 64.98644 117 111.6)"/><path fill="#0b0d00" fill-opacity=".5" d="M106 185l31-47-153 17z"/><path fill="#0e0000" fill-opacity=".3" d="M229 23l12 43-55 56z"/><ellipse cx="182" cy="19" fill="#1f0e00" fill-opacity=".4" rx="33" ry="13"/><path fill="#f5fbfa" fill-opacity=".4" d="M198.6 114.2l36.7 20.4-33.9 61.2-36.7-20.4z"/><ellipse cx="166" cy="55" fill="#926854" fill-opacity=".8" rx="19" ry="10"/><ellipse cx="206" cy="105" fill="#a17956" fill-opacity=".5" rx="124" ry="7"/><path fill="#795038" fill-opacity=".6" d="M-16 123l88-26 31 60z"/><circle r="1" fill="#ceb090" fill-opacity=".8" transform="matrix(14.49646 54.48168 -14.49447 3.85668 50.7 10.4)"/><ellipse cx="157" fill="#deb47e" fill-opacity=".6" rx="14" ry="11"/><path fill="#00010d" fill-opacity=".5" d="M65 106h13v14H65z"/><path fill="#ffd0b7" fill-opacity=".3" d="M141.6 91.8l3.7 13 41.3-42.2-33 1.2z"/><path fill="#b07f51" fill-opacity=".9" d="M210.2 14.9l16-27.8 41.6 24-16 27.8z"/><path fill="#484400" fill-opacity=".8" d="M7.9 201.5l-47.3-26.2 31.5-56.8 47.3 26.2z"/><path fill="#d0d3cf" fill-opacity=".3" d="M123 154h125v16H123z"/><path fill="#331c0f" fill-opacity=".9" d="M181.2 79.6l10.3 8.2 31.1-21.1 2.5 36.6z"/><circle r="1" fill="#a1622d" fill-opacity=".6" transform="matrix(-7.61185 .74635 -3.46552 -35.34406 29.2 4.6)"/><circle r="1" fill="#c4a28c" fill-opacity=".4" transform="matrix(-32.052 7.04709 -4.77349 -21.71106 255 74.3)"/><path fill="#ffb76d" fill-opacity=".4" d="M60.2 132l-7.3 12.5-7.9 6.4 29-11.8z"/><circle r="1" fill="#390301" fill-opacity=".5" transform="matrix(.78762 2.09543 -21.35246 8.02586 110.3 62.5)"/><circle r="1" fill="#a78f71" fill-opacity=".5" transform="matrix(33.17415 7.9032 -3.13857 13.17432 26.5 105.2)"/><circle r="1" fill="#ffddc5" fill-opacity=".4" transform="rotate(-50.9 111.3 -141.3) scale(14.8305 9.35587)"/><path fill="#270e00" fill-opacity=".4" d="M172 80l71-17-15-41z"/><ellipse cx="255" cy="154" fill="#210" fill-opacity=".5" rx="8" ry="24"/><circle r="1" fill="#a28161" fill-opacity=".6" transform="rotate(39.9 -68.6 194.1) scale(12.61048 49.64761)"/><path fill="#593b27" fill-opacity=".5" d="M68 131h73v26H68z"/><path fill="#000006" fill-opacity=".5" d="M36.4 169.2l54.8-15.7 4.4 15.3-54.8 15.7z"/><circle r="1" fill="#c6a079" fill-opacity=".6" transform="rotate(-143.4 65.4 -6.4) scale(21.67131 37.12323)"/><path fill="#32170e" fill-opacity=".9" d="M23 33.9L19.7-16 4.1 44.8l-17.2-.8z"/><path fill="#b4a496" fill-opacity=".4" d="M230.6 157.2l-9.5-53.4 25.1 34.8-1.9 36.8z"/><path fill="#ebf4f0" fill-opacity=".3" d="M159 185l14-83-47 83z"/><path fill="#885438" fill-opacity=".4" d="M141.8 16.6L188.1 59l-18 82.8 14.8-115.7z"/><path fill="#717276" fill-opacity=".5" d="M224 62l2 40 45 35z"/><ellipse cx="15" cy="73" fill="#c4b19d" fill-opacity=".4" rx="73" ry="27"/><circle r="1" fill="#130005" fill-opacity=".5" transform="matrix(-.91232 -3.16935 4.17234 -1.20104 163 59.5)"/><path fill="#af9c85" fill-opacity=".5" d="M168 110l-41 52 26-62z"/><path fill="#100c00" fill-opacity=".4" d="M149 14h64v6h-64z"/><path fill="#95664e" fill-opacity=".4" d="M213 146l-6 35 10 4z"/><path fill="#c68473" fill-opacity=".3" d="M89.9 91.9l-53.8 45.3 5.3-11.7 36.3-32.1z"/><path fill="#643719" fill-opacity=".5" d="M239.3 120.3l6.1-21.3 9.8 49.2-7.7 8.1z"/><path fill="#fbb874" fill-opacity=".5" d="M238.5 51.9l3.8 9.5 27.4 3.4 1.3-18.2z"/><path fill="#a7734a" fill-opacity=".5" d="M244.8 111.3L178 96l-13.5-25.2-5.6 34.2z"/><path fill="#61311d" fill-opacity=".5" d="M180.2 62.7l27.9 4.1-5.3 40.1-33.4-27.3z"/><circle r="1" fill="#896242" fill-opacity=".6" transform="matrix(-4.62915 -13.37949 32.14903 -11.12319 117.2 118.1)"/><path fill="#0a0701" fill-opacity=".5" d="M225 68l8-43-58 13z"/><path fill="#c69d8a" fill-opacity=".8" d="M165.9 52.5l-33.7 16.9 29.1 49.8L141 51.6z"/><path fill="#8c311f" fill-opacity=".4" d="M85.8 73.9l10.7 26.4L87 56.9l24.1 12.9z"/><path fill="#170a00" fill-opacity=".2" d="M-2.7 153.3l78.4 15.6-61.3-44L52 113.2z"/><path fill="#cda688" fill-opacity=".5" d="M189 126l10-15-42-10z"/><path fill="#401b07" fill-opacity=".7" d="M154 14.6l27.9-9.8 25.7 6.8-14.5 2.1z"/><path fill="#c99e70" fill-opacity=".4" d="M198.7 3.3l21.1 19.2L236.3-16 102.6 14.8z"/><path fill="#ffefdc" fill-opacity=".2" d="M184.1 57.9l-14.9 1.4-32.7 25.8 20.3-2.6z"/><path fill="#c37128" fill-opacity=".4" d="M245 115l-12 11-22-29z"/><path fill="#29261e" fill-opacity=".3" d="M114.3 59.6l31.4.2 7.7 5.8L137 53.3z"/><path fill="#08080c" fill-opacity=".5" d="M40 151l-2 26 34-33z"/><path fill="#701d09" fill-opacity=".3" d="M63.8 76.4l31-19-9.1 7.4-19 13.1z"/></g></svg>