<svg xmlns="http://www.w3.org/2000/svg" viewBox="0 0 300 196"><defs/><path fill="#673b33" d="M0 0h300v196H0z"/><g transform="translate(.6 .6) scale(1.17188)"><circle r="1" fill="#d4cebe" fill-opacity=".6" transform="matrix(-151.47712 -191.50814 93.1477 -73.677 160.3 103)"/><ellipse cx="27" cy="99" fill="#331c04" fill-opacity=".4" rx="23" ry="72"/><ellipse cx="190" cy="106" fill="#fddba7" fill-opacity=".3" rx="79" ry="49"/><circle r="1" fill="#e2d5e8" fill-opacity=".6" transform="matrix(-16.38222 -1.33783 3.79708 -46.49676 63.2 144.4)"/><path fill="#cfcfe0" fill-opacity=".8" d="M12 1l-28 31 18 71z"/><ellipse cx="200" cy="6" fill="#4a2e35" fill-opacity=".5" rx="50" ry="18"/><circle r="1" fill="#531d22" fill-opacity=".4" transform="matrix(16.26683 3.07365 -6.63898 35.1358 143.1 42)"/><circle r="1" fill="#71584c" fill-opacity=".6" transform="matrix(23.23895 22.2907 -18.88475 19.68811 70.8 70.5)"/><ellipse cx="115" fill="#b4dbff" fill-opacity=".4" rx="20" ry="58"/><circle r="1" fill="#aaa7ac" transform="rotate(12.1 -549.1 1011.8) scale(25.82039 36.00352)"/><path fill="#7c2d00" fill-opacity=".5" d="M82 124h14v44H82z"/><circle cx="255" cy="40" r="29" fill="#b19988" fill-opacity=".9"/><path fill="#7c0717" fill-opacity=".4" d="M134 153h42v15h-42z"/><circle r="1" fill="#75839b" fill-opacity=".4" transform="matrix(-63.8333 -23.99336 11.2223 -29.85646 45.2 17.4)"/><path fill="#636670" fill-opacity=".6" d="M213 101l-20 8 34 52z"/><circle r="1" fill="#ddb479" fill-opacity=".6" transform="matrix(-47.54135 29.01936 -11.4111 -18.69438 133.6 98)"/><path fill="#89b5e0" fill-opacity=".5" d="M160.4 45l-1.6-23 42.8-3 1.6 23z"/><path fill="#3c1000" fill-opacity=".5" d="M83 61h14v27H83z"/><circle r="1" fill="#d2b5ae" fill-opacity=".5" transform="matrix(-7.1519 -5.71179 12.3285 -15.43687 69.1 89.4)"/><path fill="#6d0718" fill-opacity=".4" d="M232.8 154.1l24-2 2.4 27.8-24 2z"/><path fill="#51272f" fill-opacity=".5" d="M228 22l-46 23 63-56z"/><path fill="#fdfbf9" fill-opacity=".3" d="M85.9 130.9l60.6 50-54.6 2.1 37.6-38.3z"/><path fill="#552717" fill-opacity=".5" d="M130.2 128.9l13.6 54.1-19.8-44.5-12.5-7.8z"/><path fill="#080000" fill-opacity=".4" d="M82 95h3v73h-3z"/><path fill="#c8c8cd" fill-opacity=".5" d="M167 99l13 79 55 5z"/><path fill="#aeb0b9" fill-opacity=".9" d="M117.5 32.8l37.9-35.6L96.2-16 77.8 8.4z"/><circle r="1" fill="#54391f" fill-opacity=".5" transform="rotate(-1 6928.6 -687.9) scale(23.4978 29.95295)"/><path fill="#0f0e11" fill-opacity=".7" d="M44 147.2L20.9 143 17 166.4l29.6-10.3z"/><path fill="#724645" fill-opacity=".5" d="M166 55.9l-33.3-41.8-5.5 41.6-19 30.6z"/><ellipse cx="212" cy="75" fill="#d3ac85" fill-opacity=".5" rx="62" ry="30"/><path fill="#74635f" fill-opacity=".5" d="M8 60l11-75 49 95z"/><path fill="#a86d46" fill-opacity=".7" d="M51.8 115.8l-12.4-8.7-5.5 27.7 5.6 13.4z"/><path fill="#e2d6e5" fill-opacity=".4" d="M-.3-12.1l16.9 2.4L.3 106l-16.9-2.4z"/><path fill="#e9f1f9" fill-opacity=".5" d="M231 167l-14.8-55.1 2.9-.8 14.7 55z"/><circle r="1" fill="#c7954f" fill-opacity=".5" transform="matrix(7.1208 .58544 -2.89973 35.27016 92.3 118)"/><path fill="#333640" fill-opacity=".5" d="M212 111l-20-3 26-4z"/><path fill="#83848b" d="M194.8-16l1.4 64.2 5.3-38.1-2 1.5z"/><path fill="#dcedf6" fill-opacity=".5" d="M223 30.9l-2-3.6 38-20.2 2 3.6z"/><path fill="#4e2d16" fill-opacity=".3" d="M44.7 107.9L-16 176.6 60.6 61.7l2.2 18.1z"/><path fill="#af9aa0" fill-opacity=".7" d="M50 101l-4 47 10-14z"/><circle r="1" fill="#425a78" fill-opacity=".5" transform="matrix(-1.67985 -22.34132 3.76964 -.28344 225 166.7)"/><path fill="#c3bcc0" fill-opacity=".4" d="M69 161l-40 21 6-19z"/><circle r="1" fill="#a8b3c3" fill-opacity=".7" transform="rotate(18.2 -33.4 553) scale(10.09638 12.1777)"/><path fill="#9b9ca6" fill-opacity=".6" d="M107-16H-9L99 27z"/><path fill="#fcd7a6" fill-opacity=".4" d="M27 103l2-18 5 17z"/><path fill="#85725d" fill-opacity=".6" d="M126.6 25.3L181-21.9l14.4 16.6L141 41.9z"/><circle cx="243" cy="136" r="17" fill="#b49069" fill-opacity=".5"/><circle r="1" fill="#4f4846" fill-opacity=".4" transform="matrix(-22.66084 39.00606 -1.31353 -.7631 64.6 27.4)"/><circle r="1" fill="#907261" fill-opacity=".5" transform="rotate(65.5 103.2 213.5) scale(8.84415 29.54691)"/><path fill="#c7c2ad" fill-opacity=".5" d="M96 115l29 2-27 28z"/><ellipse cx="64" cy="149" fill="#d6cadb" fill-opacity=".6" rx="7" ry="46"/><path fill="#d3c7bf" fill-opacity=".5" d="M112.5 61.9l12 4.8-3 7.4-12-4.8z"/><path fill="#441700" fill-opacity=".3" d="M93.5 66.2l5.6-16.4-14.3 9.7-2.3 67.8z"/><path fill="#4c2511" fill-opacity=".5" d="M115 129h6v13h-6z"/><circle r="1" fill="#45544c" fill-opacity=".5" transform="matrix(16.10518 -19.67668 7.58583 6.20893 2.9 167)"/><circle r="1" fill="#a6a6b2" fill-opacity=".5" transform="matrix(9.5194 -2.3911 8.86048 35.27506 210.4 151.6)"/><path fill="#d2d6e3" fill-opacity=".5" d="M200.4 28.5L195.6 6l2-.5 4.8 22.5z"/><path fill="#6d6258" fill-opacity=".5" d="M97 30l13-2-6 15z"/><circle r="1" fill="#dbb285" fill-opacity=".5" transform="matrix(-7.47611 -5.60871 30.34295 -40.44553 161.7 106)"/><path fill="#373d39" fill-opacity=".6" d="M170.4 53.9l-.4-1 37.6-20.8.4 1z"/><circle r="1" fill="#753d4a" fill-opacity=".5" transform="matrix(-11.82531 19.10526 -11.87322 -7.349 218 10.9)"/><circle r="1" fill="#624d3e" fill-opacity=".5" transform="matrix(-7.84255 -2.417 8.93945 -29.00625 13.1 81.4)"/><path fill="#3a3424" fill-opacity=".5" d="M193 6l-23 11 25 2z"/><path fill="#caa46a" fill-opacity=".5" d="M97 107l-1-46 40 57z"/><path fill="#a6a8b3" fill-opacity=".6" d="M55.3 38.1L10 19.7l.8-1.8L56 36.3z"/></g></svg>