<svg xmlns="http://www.w3.org/2000/svg" viewBox="0 0 300 199"><defs/><path fill="#49312f" d="M0 0h300v199H0z"/><g transform="translate(.6 .6) scale(1.17188)"><ellipse cx="92" cy="14" fill="#a6a3a5" fill-opacity=".6" rx="139" ry="85"/><circle r="1" fill="#a2abcb" fill-opacity=".5" transform="matrix(93.70508 14.53796 -3.67834 23.7089 145 155)"/><ellipse cx="188" cy="50" fill="#403c3c" rx="40" ry="35"/><circle r="1" fill="#e3e5f2" fill-opacity=".5" transform="rotate(-8 109 -703.7) scale(126.56366 16.18342)"/><circle r="1" fill="#1f1007" fill-opacity=".6" transform="matrix(-7.30664 -13.38925 32.68977 -17.8391 102 41.1)"/><path fill="#fff" fill-opacity=".4" d="M119 67h44v32h-44z"/><circle r="1" fill="#b2d5e4" fill-opacity=".5" transform="matrix(-3.60604 -6.93787 33.94746 -17.6446 219.8 17.9)"/><path fill="#ffe5cc" fill-opacity=".4" d="M25 102L13-16l68 89z"/><circle r="1" fill="#fff" fill-opacity=".5" transform="matrix(-5.59805 -42.67787 9.2299 -1.21068 166 169)"/><path fill="#3d2830" fill-opacity=".8" d="M15 36l26 149-57-100z"/><path fill="#090403" fill-opacity=".5" d="M200.2 118.3l-32.9 2.3-5.5-78.9 32.9-2.3z"/><circle r="1" fill="#684841" fill-opacity=".5" transform="matrix(-16.22558 15.34848 -30.34627 -32.08043 124 116.9)"/><ellipse cx="206" cy="94" fill="#ffc486" fill-opacity=".4" rx="6" ry="35"/><circle r="1" fill="#14278a" fill-opacity=".6" transform="matrix(32.92989 -2.23607 .7998 11.77833 57 148)"/><circle r="1" fill="#916d49" fill-opacity=".6" transform="rotate(-52.5 215.2 -205.7) scale(18.11887 33.8661)"/><path fill="#11070d" fill-opacity=".5" d="M25 124l49-44 18 41z"/><ellipse cx="245" cy="44" fill="#000f1c" fill-opacity=".5" rx="32" ry="25"/><circle r="1" fill="#525454" fill-opacity=".6" transform="matrix(6.1647 -19.31655 41.62463 13.28411 212.4 153.9)"/><circle r="1" fill="#a7a4bc" fill-opacity=".4" transform="matrix(39.55341 22.37824 -9.5511 16.88152 115.5 158.7)"/><path fill="#d9bfbe" fill-opacity=".5" d="M96 44.9l53.7 24.7 17.6 30.5-4.7 10.7z"/><path fill="#270800" fill-opacity=".4" d="M125.7 15.8l13.2 2.1-14.7 53.3-12.8-36.6z"/><circle cx="248" cy="73" r="5" fill="#fff" fill-opacity=".5"/><path fill="#01020a" fill-opacity=".3" d="M33.6 73l-8.8-10.4-23.5-51 15.4 71.9z"/><path fill="#1d1412" fill-opacity=".5" d="M84.2 33.5l-4.6 32.7-11.8-1.7 4.6-32.7z"/><path fill="#b9b7a7" fill-opacity=".5" d="M201.6 16.5l-3.3-18.7 58.1-10.3 3.3 18.7z"/><path fill="#8f7d73" d="M38.1 24.7l4.1 46.8 4.1 7.6 19.5 13.2z"/><ellipse cx="71" cy="134" fill="#a6bdff" fill-opacity=".6" rx="27" ry="3"/><path fill="#523434" fill-opacity=".4" d="M67 117l90 33-61-86z"/><path fill="#d6d4d6" fill-opacity=".8" d="M91.1 15.7L-16 28.7 1.5 56.9l7.1-44.2z"/><path fill="#e7ebf7" fill-opacity=".2" d="M122.6 111.3l48.3-8-63.8 23.7 9.1-83.9z"/><path fill="#fcab95" fill-opacity=".4" d="M149.3 52.3l-6.9-29-16.7 15.3 16.9 24.1z"/><path fill="#e4deda" fill-opacity=".4" d="M44.8 95L17.1 42.2l14-58.2 16.4 124.1z"/><circle r="1" fill="#e9ecee" fill-opacity=".7" transform="matrix(16.50532 42.06674 -3.07944 1.20825 175.7 169)"/><circle r="1" fill="#26274d" fill-opacity=".5" transform="rotate(11.5 -797.2 241.2) scale(61.69282 31.62102)"/><path fill="#201b1d" fill-opacity=".6" d="M233 25h9v116h-9z"/><ellipse cx="21" cy="107" fill="#ff9856" fill-opacity=".2" rx="7" ry="30"/><circle r="1" fill="#594f4b" fill-opacity=".6" transform="matrix(3.131 -26.07693 5.81185 .69782 152.5 45)"/><ellipse cx="11" cy="75" fill="#fae8e1" fill-opacity=".7" rx="2" ry="7"/><ellipse cx="200" cy="95" fill="#64331b" fill-opacity=".6" rx="7" ry="26"/><path fill="#bcd7f6" fill-opacity=".4" d="M200.8 64.1l25 1.8-.6 8-25-1.8z"/><path fill="#957363" fill-opacity=".5" d="M98 19h13v50H98z"/><path fill="#dee0e6" fill-opacity=".5" d="M25 87h31v8H25z"/><circle r="1" fill="#aaad9c" fill-opacity=".5" transform="matrix(3.93047 -8.62464 5.76094 2.62541 141.2 112.5)"/><path fill="#2d3e9e" fill-opacity=".6" d="M47 139h50v13H47z"/><path fill="#60657f" fill-opacity=".8" d="M198.1 6.2l15.8 43-.9-33.3-75.4 8.1z"/><path fill="#2e0100" fill-opacity=".5" d="M126 97h8v38h-8z"/><ellipse cx="12" cy="23" fill-opacity=".2" rx="5" ry="47"/><path fill="#a08e77" fill-opacity=".5" d="M223 15h4v79h-4z"/><path fill="#a0e2fb" fill-opacity=".6" d="M194.7 31.3l-13-.2 22.1-8.6-1 6.6z"/><path fill="#0f020f" fill-opacity=".4" d="M1 76.5l9-.7 9 127.7-9 .7z"/><ellipse cx="225" cy="132" fill="#171a1d" fill-opacity=".5" rx="34" ry="9"/><path fill="#d0ab80" fill-opacity=".6" d="M208.7 125.8l-2.6-3.5 7-96.2-2.3 97.8z"/><path fill="#d1a377" fill-opacity=".4" d="M241.4 118l-.2 22.8 8.1-74.6-6.6 17.4z"/><path fill="#34262c" fill-opacity=".6" d="M80.3 125.1l-66.8 18.5 44.8-33.9L79 69.6z"/><path fill="#2d357b" fill-opacity=".6" d="M55 125h43v7H55z"/><path fill="#1a1717" fill-opacity=".4" d="M128.9 15.3l21.6 7.6-54.1 17.2 30 8z"/><path fill="#8eadf6" fill-opacity=".4" d="M158.9 21.2l-9-23.3 39.2-15.1 9 23.3z"/><path fill="#1e1a1e" fill-opacity=".5" d="M169.9 132.4L194.8 33l-10.2 2.6-28.8-13.8z"/><path fill="#020000" fill-opacity=".5" d="M140 140h13v9h-13z"/><path fill="#3a0000" fill-opacity=".5" d="M162 117l-25-20 11-1z"/><path fill="#fff" fill-opacity=".5" d="M81 80h2v18h-2z"/><path fill="#9d908d" fill-opacity=".7" d="M91 151h67v19H91z"/><path fill="#c6bbbf" fill-opacity=".6" d="M109 68l31-7 27 43z"/><path fill="#8c8a92" fill-opacity=".5" d="M97.1 31.5L120.2 21l56.7-18.8L58 27.6z"/><path fill="#d8dbf5" fill-opacity=".2" d="M5.2 128l.6 30.3-12-22.1 11.5 1.4z"/></g></svg>