<svg xmlns="http://www.w3.org/2000/svg" viewBox="0 0 300 199"><defs/><path fill="#5d4636" d="M0 0h300v199H0z"/><g transform="translate(.6 .6) scale(1.17188)"><circle r="1" fill="#dfe5dc" fill-opacity=".6" transform="matrix(90.65724 -68.93958 154.3531 202.97813 68.6 123.7)"/><circle r="1" fill="#8d826c" fill-opacity=".7" transform="matrix(-97.43235 -46.16687 34.54684 -72.90899 198 14)"/><circle r="1" fill="#29281c" fill-opacity=".4" transform="matrix(33.21167 1.80415 -3.39671 62.52852 120.5 169)"/><ellipse cx="35" cy="94" fill="#c1c2bd" fill-opacity=".7" rx="45" ry="169"/><ellipse cx="160" cy="112" fill="#f9f9fc" fill-opacity=".5" rx="21" ry="35"/><circle r="1" fill="#692b00" fill-opacity=".5" transform="rotate(-150.8 76.6 16.6) scale(15.16109 20.62338)"/><circle r="1" fill="#8c7964" fill-opacity=".7" transform="matrix(26.51942 .5092 -.6858 35.71647 188.6 149)"/><path fill="#61513f" fill-opacity=".9" d="M153.4 64l41.5 14.4 50.6-44.7-79.7-2.5z"/><path fill="#9c9380" fill-opacity=".8" d="M109 185l28-109-49 9z"/><circle r="1" fill="#35312f" fill-opacity=".4" transform="rotate(78.7 -31.8 171.2) scale(73.35385 14.27261)"/><ellipse cx="155" cy="2" fill="#c5bba1" fill-opacity=".4" rx="102" ry="15"/><circle r="1" fill="#37362e" fill-opacity=".5" transform="matrix(-12.58101 23.65832 -56.77435 -30.19145 238.5 124.8)"/><path fill="#e5d7c5" fill-opacity=".5" d="M190 142h33v18h-33z"/><path fill="#f0f3f3" fill-opacity=".8" d="M37.1 163l-53.1 5.1L64.9 185 85 157.7z"/><path fill="#fff" fill-opacity=".4" d="M138 132.8l14.6-13.6 7.5 8-14.7 13.6z"/><circle r="1" fill="#a8a498" fill-opacity=".6" transform="matrix(49.29371 -37.80174 18.67242 24.34896 48.8 120.2)"/><path fill="#7b6248" d="M174 162h82v8h-82z"/><path fill="#fff4f0" fill-opacity=".3" d="M154.2 115.6l25.2-24.7 34.4 28-59.3-60.2z"/><path fill="#030000" fill-opacity=".5" d="M164.5 50.5L177 65l-7.5 6.6L157 57z"/><path fill="#171d00" fill-opacity=".5" d="M93 142h9v28h-9z"/><ellipse cx="3" cy="94" fill="#e2e9ef" fill-opacity=".5" rx="5" ry="42"/><path fill="#3c320e" fill-opacity=".3" d="M8.9 163.4l8.8-93.5-2.6-.7L.7 168.9z"/><circle r="1" fill="#796854" fill-opacity=".6" transform="rotate(-13.5 587.1 -790.2) scale(14.52308 29.23035)"/><circle r="1" fill="#d0d4ca" fill-opacity=".5" transform="matrix(-26.30868 8.46824 -.7958 -2.47232 220.2 73.4)"/><path fill="#cbcfd4" fill-opacity=".5" d="M109 127l7 42-21-35z"/><path fill="#735f45" fill-opacity=".6" d="M160 146l18 14 38-39z"/><path fill="#dbe0e3" fill-opacity=".6" d="M134 132l53-16-4 18z"/><circle cx="251" cy="129" r="34" fill="#201e1a" fill-opacity=".4"/><path fill="#4f2300" fill-opacity=".5" d="M149.8 63.6l-11-16.3L113 80.1l-1.2-5.6z"/><circle r="1" fill="#cfd6d6" fill-opacity=".3" transform="rotate(-160.1 12.3 23.2) scale(86.53562 19.32021)"/><path fill="#30302c" fill-opacity=".6" d="M126 117h20v10h-20z"/><path fill="#ab732e" fill-opacity=".3" d="M107.1 80.1l16.8 33.2 32.2-34.6-43-25.7z"/><path fill="#cac7bd" fill-opacity=".8" d="M258 59.8l.9 2.8-24.9 7.6-.9-2.8z"/><path fill="#696a62" fill-opacity=".5" d="M226 120h9v36h-9z"/><circle r="1" fill="#b2afa1" fill-opacity=".4" transform="matrix(12.24359 -40.54308 30.58966 9.23776 90 46.8)"/><circle cx="94" cy="113" r="29" fill="#9a9686" fill-opacity=".5"/><path fill="#8d836d" fill-opacity=".6" d="M108-1l35 48 52 9z"/><path fill="#a09992" fill-opacity=".8" d="M177.3 116.1l3.5.2 7.7-35.9-13 18.1z"/><path fill="#c0b9a8" fill-opacity=".5" d="M146.3 10.5l-10.9 3.4L113.2-16l56.3 4z"/><path fill="#504d47" fill-opacity=".9" d="M126.7 185l-1-63.6 24.7 21.9 9.7 30.7z"/><path fill-opacity=".5" d="M214 118l8 24 5-26z"/><circle r="1" fill="#6b5c4b" fill-opacity=".6" transform="matrix(-2.87221 -9.05437 30.33007 -9.62126 197.5 68.5)"/><path fill="#15100b" fill-opacity=".6" d="M226.4 139.5l-3.5 16.4 5.3 6.8 2.1-6.7z"/><circle r="1" fill="#bfbeb6" fill-opacity=".5" transform="matrix(-.64501 -36.95278 22.55444 -.39369 34.8 114.2)"/><path fill="#878170" fill-opacity=".7" d="M82.2 101.5l56 7-2.4 15.6 4.6-34.1z"/><path fill="#a1a095" fill-opacity=".5" d="M95 157l-20-20-57 22z"/><path fill="#cabba7" fill-opacity=".5" d="M195.8 155.7l31.6-13.6-5.6 12.6 3.4 12.1z"/><circle r="1" fill="#c2bfba" fill-opacity=".9" transform="matrix(-1.0074 -7.98089 7.34835 -.92757 144.2 109.8)"/><circle r="1" fill="#d1d7d9" fill-opacity=".5" transform="rotate(99.5 -22.1 33.7) scale(45.36565 8.6471)"/><path fill="#dfdcdd" fill-opacity=".6" d="M181 80l-45 9 41 14z"/><circle r="1" fill="#e8d7c4" fill-opacity=".5" transform="matrix(-9.91894 -24.18487 3.37517 -1.38426 163.4 169)"/><path fill="#675948" fill-opacity=".7" d="M213.5 77.4l10.5 32.3-27.5 9L186 86.2z"/><path fill="#7e6c52" fill-opacity=".6" d="M181 30l70-43-35 50z"/><path fill="#c6bfaa" fill-opacity=".4" d="M207-10l-18-6-33 41z"/><path fill="#907768" fill-opacity=".5" d="M151 47l2 33-13 10z"/><path fill="#fff0e6" fill-opacity=".3" d="M144.7 136.8l13.5-71.5-9.5 2.4 24.3 2.7z"/><path fill="#908571" fill-opacity=".7" d="M104 185l20-67 2 50z"/><path fill="#695c4b" fill-opacity=".7" d="M172.2 65.1l9.9-27.8 61.6 26.9L181 82.5z"/><path fill="#d0d3d8" fill-opacity=".5" d="M104 132h5v28h-5z"/><path fill="#533e22" fill-opacity=".5" d="M182 154l-14-10 10 24z"/><path fill="#001500" fill-opacity=".2" d="M101.2 142.8l7.3 13.5-18.1-5.3-7.3-17.1z"/><path fill="#a5957d" fill-opacity=".5" d="M264.7-1.1l-62.6 33.5-15.1 4.8 36.5-22z"/><path fill="#d9cdb0" fill-opacity=".2" d="M238.3-14.2l-2.9 12.3-39.8 23-21.2 7.5z"/><circle r="1" fill="#363735" fill-opacity=".5" transform="matrix(-4.19736 -4.39328 5.98088 -5.71417 130.6 112.2)"/><path fill="#fffae3" fill-opacity=".5" d="M151 132l-12-6 12 15z"/></g></svg>