<svg xmlns="http://www.w3.org/2000/svg" viewBox="0 0 300 199"><defs/><path fill="#634331" d="M0 0h300v199H0z"/><g transform="translate(.6 .6) scale(1.17188)"><circle r="1" fill="#effcff" fill-opacity=".7" transform="rotate(-89.7 143.1 26) scale(61.06018 29.58999)"/><circle r="1" fill="#d3dac9" fill-opacity=".4" transform="matrix(-144.73531 42.08151 -19.61674 -67.46988 107.1 13.8)"/><path fill="#d1ddf2" fill-opacity=".5" d="M157 97h35v54h-35z"/><ellipse cx="27" cy="136" fill="#000413" fill-opacity=".6" rx="24" ry="56"/><path fill="#e1dde0" fill-opacity=".7" d="M105.4 172.4l1.7-97 17.2-2.2-2.9 103.6z"/><ellipse cx="3" cy="69" fill="#e1f9ff" fill-opacity=".6" rx="12" ry="22"/><ellipse cx="143" cy="107" fill="#001447" fill-opacity=".8" rx="11" ry="35"/><ellipse cx="97" cy="20" fill="#aea997" fill-opacity=".6" rx="50" ry="31"/><circle r="1" fill="#01100f" fill-opacity=".5" transform="matrix(17.18587 -27.39663 32.14175 20.16248 253.9 129.5)"/><path fill="#cdcdd4" fill-opacity=".6" d="M73 172l47-84 41 97z"/><path fill="#491504" fill-opacity=".5" d="M28.5 67.4l-38.6-46L7.5 6.6l38.6 46z"/><path fill="#170000" fill-opacity=".6" d="M108.3 49.2l9.7 5.2-18.3 34.4-9.7-5.2z"/><ellipse cy="112" fill="#a2b6c5" fill-opacity=".8" rx="5" ry="23"/><ellipse cx="87" cy="22" fill="#fffff1" fill-opacity=".8" rx="11" ry="6"/><circle r="1" fill="#544347" fill-opacity=".7" transform="matrix(12.33146 -46.85835 23.41358 6.16162 78.8 107.1)"/><ellipse cx="130" cy="140" fill="#6e3429" fill-opacity=".4" rx="11" ry="14"/><path fill="#fff" fill-opacity=".5" d="M213 18l24-1-17 12z"/><path fill="#e7d6ce" fill-opacity=".6" d="M51.6 72.7L15 92l18.6-11.5-.6-20z"/><path fill="#74533b" fill-opacity=".7" d="M267 66L107 36l94 81z"/><path fill="#edf9ee" fill-opacity=".6" d="M200.2 45.7l-45.4-1.9 9.7-8 31.8 17.3z"/><circle r="1" fill="#c45020" fill-opacity=".6" transform="matrix(5.62052 -1.97014 7.05513 20.12727 24.9 77)"/><path fill="#fff" fill-opacity=".6" d="M143 30l-23-3 8 11z"/><path fill="#7e5e3c" fill-opacity=".9" d="M243 67.3l-15.2 2.8 5 52.4 9.1-13.8z"/><path fill="#5f3d28" fill-opacity=".7" d="M75.8 87.4l-5-.7-37.2-38.8L76.9 63z"/><path fill="#424631" fill-opacity=".5" d="M264.2 6l-64.7 17.4-3.7-13.5 64.7-17.3z"/><path fill="#c0905d" fill-opacity=".6" d="M91 68l-5 50-10-53z"/><path fill="#04224c" fill-opacity=".5" d="M142.3 67.6l-18.4 25.2 3.5 17.4L172 116z"/><path fill="#572505" fill-opacity=".4" d="M90.7 82.4l2.7-22.6 33.1 24.6 2.6-16z"/><path fill="#615436" fill-opacity=".5" d="M174 47l7-23 81 10z"/><path fill="#fce0e2" fill-opacity=".3" d="M173 116l21 35-10-64z"/><circle r="1" fill="#e3eff6" fill-opacity=".5" transform="matrix(15.14012 4.5335 -16.4816 55.0422 97.8 169)"/><path fill="#7d6276" fill-opacity=".5" d="M199 93h18v49h-18z"/><path fill="#fff7de" fill-opacity=".5" d="M53 105h4v16h-4z"/><path fill="#161118" fill-opacity=".5" d="M40 73l-1 30 22 2z"/><path fill="#d5ffe1" fill-opacity=".1" d="M187.1 159.1l-72.2-1.5L-16 167.8 271 185z"/><ellipse cx="8" cy="101" fill="#00001c" fill-opacity=".7" rx="6" ry="8"/><path fill="#1f232e" fill-opacity=".7" d="M158.8 148.4l-4.4-52.8-14.5 42.6L154 167z"/><path fill="#22030f" fill-opacity=".6" d="M86 124l25-24-24 42z"/><path fill="#000719" fill-opacity=".4" d="M195.2 78.9l7.7 13.5-17.6 4.3 16.1 66.8z"/><path fill="#cbdadd" fill-opacity=".5" d="M101.5 112.5l-7.9 1.7-3-14.7 7.8-1.7z"/><path fill="#020f16" fill-opacity=".6" d="M39 185l13-79L5 90z"/><path fill="#0b0e15" fill-opacity=".6" d="M228.7 95.6l-10 6 1.8 54.5 12.7-6.5z"/><ellipse cx="171" cy="146" fill="#7e644c" rx="2" ry="70"/><path fill="#ffffe2" fill-opacity=".6" d="M103.3 53.5l-11.8-2.1 1.2-6.9 11.8 2.1z"/><path fill="#f5d5cb" fill-opacity=".5" d="M113 114l5-55-13 23z"/><ellipse cx="220" cy="25" fill="#f0fffd" fill-opacity=".6" rx="10" ry="3"/><path fill="#844833" fill-opacity=".8" d="M40.1 39.7L20 102.2l-6.4-10.4L12.4 80z"/><ellipse cx="15" cy="151" fill="#ffb391" fill-opacity=".3" rx="3" ry="28"/><path fill="#ffeded" fill-opacity=".4" d="M161 93l-10 15 6-1z"/><path fill="#d6acb8" fill-opacity=".5" d="M127 63.5l.3-9.7 10 16.8-8.9 17.5z"/><path fill="#303052" fill-opacity=".6" d="M72.9 84.2l-20.3 49.7 10.6 4.7 21.2-4.6z"/><path fill="#67432c" fill-opacity=".8" d="M134 53.4l7.3 21.9L271 62.7l-119.5-2z"/><circle r="1" fill="#978a7e" fill-opacity=".9" transform="matrix(12.38796 30.66127 -16.31274 6.59078 58.2 29.4)"/><ellipse cx="56" cy="80" fill="#e1b69a" fill-opacity=".4" rx="9" ry="10"/><ellipse cx="135" cy="6" fill="#8d8774" fill-opacity=".6" rx="45" ry="23"/><path fill="#e8a367" fill-opacity=".6" d="M29 64h4v31h-4z"/><path fill="#fff" fill-opacity=".5" d="M163 43l16-6h-19z"/><path fill="#c2c8db" fill-opacity=".4" d="M-1 104l20-60-26 3z"/><path fill="#908263" fill-opacity=".7" d="M105 37h53v15h-53z"/><circle r="1" fill="#c0d7fc" fill-opacity=".5" transform="rotate(160.2 71.5 75.8) scale(5.18537 7.23496)"/><path fill="#312f34" fill-opacity=".3" d="M5.3 61.6l-20.8-3 10.2-72.2 20.8 3z"/><path fill="#1d0f0c" fill-opacity=".4" d="M1.9 135.8L-10.5 185l33-37.5-38.5-36.4z"/><path fill="#86725a" fill-opacity=".7" d="M61 152l-12 33 4-64z"/><circle r="1" fill="#766a51" fill-opacity=".6" transform="rotate(-128 106 -42.5) scale(11.34751 32.20912)"/><path fill="#3c2513" fill-opacity=".7" d="M110.7 103.4l-6.8-9.8 7-44-21.7 42.9z"/></g></svg>