<svg xmlns="http://www.w3.org/2000/svg" viewBox="0 0 300 199"><defs/><path fill="#3a2d1e" d="M0 0h300v199H0z"/><g transform="translate(.6 .6) scale(1.17188)"><circle r="1" fill="#fdf7ef" fill-opacity=".5" transform="matrix(-216.22921 135.1663 -50.52 -80.81823 84.6 84.3)"/><ellipse cx="210" cy="117" fill="#050407" fill-opacity=".4" rx="119" ry="30"/><circle r="1" fill="#ffffef" fill-opacity=".6" transform="rotate(124.6 50.9 36) scale(23.93349 65.55305)"/><circle r="1" fill="#17120a" fill-opacity=".8" transform="rotate(-114.4 121.6 -70.9) scale(15.60392 27.56429)"/><circle r="1" fill="#e5f2fa" fill-opacity=".5" transform="matrix(9.2316 32.99482 -15.88899 4.44557 255 75.8)"/><ellipse cx="144" cy="149" fill="#807a77" fill-opacity=".8" rx="42" ry="33"/><circle r="1" fill="#c6cbdd" fill-opacity=".5" transform="rotate(-53.7 149.5 75.6) scale(75.17606 37.76876)"/><path fill="#3a1e04" fill-opacity=".5" d="M49.3 54.3l2.3 31.9-51 3.5-2.2-31.9z"/><circle r="1" fill-opacity=".6" transform="matrix(24.9757 -10.75973 20.11117 46.68241 238.3 135.9)"/><ellipse cx="33" cy="10" fill="#6f6548" rx="30" ry="21"/><path fill="#605a38" fill-opacity=".6" d="M72 31h53v12H72z"/><path fill="#eef3f2" fill-opacity=".5" d="M121 6h32v55h-32z"/><circle r="1" fill="#b49f80" fill-opacity=".9" transform="rotate(-96.7 108.4 -60) scale(41.76218 27.32841)"/><path fill="#b1a7a7" fill-opacity=".5" d="M50 27h54v143H50z"/><path fill="#59462d" fill-opacity=".5" d="M87 119l53 4 3-67z"/><ellipse cx="196" cy="115" fill="#4c4239" fill-opacity=".9" rx="13" ry="37"/><path fill="#cecfd5" fill-opacity=".7" d="M122.5 125.3l.3 59.7h13.7l-7.7-45.2z"/><path fill-opacity=".5" d="M9 52L7 87l-20-70z"/><circle r="1" fill="#fffffe" fill-opacity=".6" transform="matrix(23.651 .60994 -.29787 11.55037 99.1 18.2)"/><circle r="1" fill-opacity=".8" transform="matrix(84.74426 -71.10888 15.27996 18.20995 223.1 169)"/><path fill="#908a8b" fill-opacity=".9" d="M73.8 129.3l43.4-36.9L7.6 115.3l19.9 15.4z"/><circle r="1" fill="#1f1907" fill-opacity=".5" transform="rotate(11.2 -84.5 71.1) scale(22.60327 10.56121)"/><ellipse cx="84" fill="#c3ad73" fill-opacity=".6" rx="82" ry="8"/><path fill="#876949" fill-opacity=".6" d="M58.6 16.2l19.8-2.8 9 64.4-19.8 2.8z"/><path fill="#ebeeec" fill-opacity=".4" d="M49.4 21.4l25.2 14.5-12 20.7-25.2-14.5z"/><path fill="#f5fdff" fill-opacity=".4" d="M16.8 170.2l-22.3-5.5 8.7-35 22.3 5.6z"/><circle r="1" fill="#c6cbce" fill-opacity=".6" transform="matrix(9.92 28.8141 -2.85157 .98173 151.5 149.5)"/><path fill-opacity=".8" d="M207 89h34v39h-34z"/><circle r="1" fill-opacity=".7" transform="matrix(14.03873 -25.61168 9.43237 5.17024 231.7 0)"/><path fill="#cfcac6" fill-opacity=".5" d="M120 92l51-23 6 18z"/><path fill="#eeeff6" fill-opacity=".4" d="M114.1 94.7L-16 101.8 88.1 89l15-18.1z"/><circle r="1" fill="#645845" fill-opacity=".5" transform="rotate(-128.2 127.7 -52.2) scale(12.41635 29.12947)"/><path fill="#cbb5a8" fill-opacity=".5" d="M46 47L33 21 15 64z"/><path fill="#401809" fill-opacity=".6" d="M113.1 52.5l6.5-4-16.2.7 2.5 14.8z"/><path fill="#646042" fill-opacity=".6" d="M77.4 33.6l57.5 13.3L109 30.4l-21.4.8z"/><path fill="#e0dbd8" fill-opacity=".4" d="M11.1 108.8L7.8 6.2l9.8 100.5 121.3-80.2z"/><path fill="#fff" fill-opacity=".5" d="M85 44h19v10H85z"/><path fill="#462100" fill-opacity=".5" d="M130.5 90.3L127 73.2 107 87l-1.7.7z"/><circle cx="137" cy="69" r="6" fill="#000900" fill-opacity=".6"/><ellipse cx="74" cy="167" fill="#6a6367" fill-opacity=".5" rx="7" ry="54"/><path fill="#574e45" fill-opacity=".6" d="M139 185l11-32-27-57z"/><circle r="1" fill="#5a504d" fill-opacity=".5" transform="rotate(177.1 54.6 80) scale(8.26217 32.80618)"/><path fill="#fffaee" fill-opacity=".4" d="M128.8 92.2l7.7-12.2-18.4-17.7 22.2-34z"/><path fill="#6b4801" fill-opacity=".5" d="M158.9 5.2L196 .7 178.6-16l-8.4 34z"/><path fill="#484423" fill-opacity=".5" d="M123.3 42.1l-29.1-.6L57.7 6.1 40.5 16.8z"/><path fill="#c0ccdf" fill-opacity=".5" d="M89 131.6l13.2 34.5-11.2 4.3L77.8 136z"/><path fill="#4e3e2e" fill-opacity=".8" d="M41.8 12.1L46 27l.4 9.9-14.1-15.2z"/><path fill="#b3a596" fill-opacity=".5" d="M177 27h55v55h-55z"/><path fill="#080000" fill-opacity=".5" d="M25 62h7v24h-7z"/><path fill="#ccc9cb" fill-opacity=".6" d="M171.3 114.2l-7.4 5.7 5-2.8 8.1 35z"/><path fill="#5a5c5a" fill-opacity=".9" d="M242.3 96.4l-11-29.6 23.2 47.2 5-15.8z"/><path fill="#4b3902" fill-opacity=".4" d="M114.8 77.5l38.4-9.9 11-15.2-.4 17.1z"/><path fill="#dadbd5" fill-opacity=".5" d="M237 44h17v40h-17z"/><path fill="#5a4737" fill-opacity=".5" d="M138.6 93l12.3-4.2L185.4 189l-12.3 4.2z"/><path fill="#b3b5b7" fill-opacity=".9" d="M152.9 135.2l-9-20.6.9 8.5 14.9 61.8z"/><path fill="#180000" fill-opacity=".5" d="M71 41h5v10h-5z"/><path fill="#4f443a" d="M206.2 105l-25.9 70.6 3.9-79-99.7 25.7z"/><path fill="#bdab99" fill-opacity=".8" d="M35.8 25.2L-16 62.7l1.7-18.1 29.1 11.7z"/><ellipse cx="234" cy="49" fill="#040100" fill-opacity=".3" rx="2" ry="49"/><path fill="#4e2a0d" fill-opacity=".5" d="M65.5 52.9L55.1 70.8l8.6-8.4 7.3 6.8z"/><path fill="#fafbed" fill-opacity=".3" d="M52.5 73.3l14.3-21.8L29 32.3l20.2 12.9z"/><ellipse cx="1" cy="75" fill="#0a0000" fill-opacity=".5" rx="8" ry="18"/><circle r="1" fill="#a69e8b" fill-opacity=".6" transform="rotate(-74.2 106 -135.5) scale(13.92442 11.32113)"/><ellipse cx="132" cy="30" fill="#c4beb2" fill-opacity=".9" rx="23" ry="3"/><path fill="#b4a776" fill-opacity=".7" d="M27.8-14.1l9 21.2-16.6 7-9-21.2z"/></g></svg>