<svg xmlns="http://www.w3.org/2000/svg" viewBox="0 0 300 199"><defs/><path fill="#503732" d="M0 0h300v199H0z"/><g transform="translate(.6 .6) scale(1.17188)"><circle r="1" fill="#99a3b4" fill-opacity=".6" transform="rotate(83.7 84.7 132.5) scale(42.17293 75.31532)"/><path fill="#fdd9c3" fill-opacity=".5" d="M61 29l26 92-40 14z"/><circle r="1" fill="#00040b" fill-opacity=".8" transform="matrix(41.22215 -71.68752 53.10947 30.5393 238.4 144.7)"/><ellipse cx="18" cy="88" fill="#131513" fill-opacity=".5" rx="35" ry="98"/><ellipse cx="62" cy="66" fill="#e5ab8f" fill-opacity=".6" rx="16" ry="26"/><path fill="#656777" d="M24-16h199l-29 49z"/><ellipse cx="142" cy="72" fill="#8a98b6" fill-opacity=".6" rx="9" ry="32"/><circle cx="179" cy="110" r="40" fill="#151f2d" fill-opacity=".6"/><circle cx="231" cy="42" r="26" fill="#dbd0a8" fill-opacity=".4"/><circle r="1" fill="#122337" fill-opacity=".6" transform="rotate(176.7 39.8 71.4) scale(29.17668 19.21407)"/><ellipse cx="36" cy="23" fill="#322219" fill-opacity=".8" rx="67" ry="20"/><path fill="#a1a0a3" fill-opacity=".7" d="M174.8 105.6l14.3-10.2-17.3-4 2 5.6z"/><circle r="1" fill="#141a24" fill-opacity=".8" transform="rotate(88.1 -31.8 78.2) scale(15.58508 9.08845)"/><path fill="#fffffa" fill-opacity=".5" d="M51 141l-6-16 12-1z"/><path fill="#fdffff" fill-opacity=".5" d="M79 128l-4-15 16-2z"/><circle r="1" fill="#7f2d0a" fill-opacity=".4" transform="rotate(100.6 124.8 109.1) scale(27.63182 16.55072)"/><path fill="#000d24" fill-opacity=".5" d="M87.8 88.2l28.7 41-12.3 8.6-28.7-41z"/><path fill="#907663" fill-opacity=".5" d="M174 155l-44 30-37-25z"/><circle r="1" fill="#0a0f1e" fill-opacity=".4" transform="matrix(18.56875 1.77976 -.50552 5.27428 188.8 15.8)"/><circle r="1" fill="#493228" fill-opacity=".9" transform="rotate(-74.6 65 16.6) scale(15.11064 23.03029)"/><path fill="#e4f4de" fill-opacity=".2" d="M135 10l-29-25L26-1z"/><path fill="#071114" fill-opacity=".4" d="M130 111h45v44h-45z"/><path fill="#edf8ff" fill-opacity=".6" d="M52 86h25v5H52z"/><path fill="#29272e" fill-opacity=".9" d="M69.5 112.7l29.4 47 26.8-16.4-59.8 8.1z"/><path fill="#a7a397" fill-opacity=".7" d="M256 57l-54 26 25-99z"/><ellipse cx="201" cy="53" fill="#001153" fill-opacity=".2" rx="7" ry="44"/><path fill="#ede8cc" fill-opacity=".5" d="M159 104l4-8 1 12z"/><path fill="#8a91b3" fill-opacity=".6" d="M136 54h63v17h-63z"/><path fill="#0d1623" fill-opacity=".5" d="M9 101h37v64H9z"/><circle r="1" fill-opacity=".4" transform="matrix(-22.08442 76.9845 -27.32903 -7.83983 236.3 138)"/><path fill="#131722" fill-opacity=".7" d="M153.4 85.8l-2.6-15 47.1 1.3 15.3 27.4z"/><path fill="#c39079" fill-opacity=".8" d="M79.4 64.4L65 87 45.4 63.8l27.9-24.5z"/><circle r="1" fill="#111314" fill-opacity=".7" transform="matrix(-1.49807 -3.61096 7.52542 -3.12206 80.8 0)"/><path fill="#fffff7" fill-opacity=".6" d="M157.2 171.5l-16.7-3 .3-2 16.7 3z"/><path fill="#6d5d62" fill-opacity=".4" d="M149.6 72.8L155 99l-9.3 14.1L98.3 66z"/><ellipse cx="61" cy="151" fill="#1d232f" fill-opacity=".6" rx="42" ry="12"/><circle r="1" fill="#696f8f" fill-opacity=".6" transform="matrix(7.92043 -17.53883 28.56225 12.89854 164.1 29.7)"/><ellipse cx="89" cy="96" fill="#1e212a" fill-opacity=".6" rx="13" ry="12"/><path fill="#ffe6d1" fill-opacity=".3" d="M60.7 119.5L51.2 85l34.1 47.7-10-50.4z"/><path fill="#776859" fill-opacity=".5" d="M69.8 163.7l-21 .4-55.7 5.8 2.2 14.8z"/><path fill="#503935" fill-opacity=".7" d="M47.9 11.9l86.8-2.4.5 70.8L88.9 9.9z"/><path fill="#9d9582" fill-opacity=".6" d="M207 0h35v37h-35z"/><circle r="1" fill="#2d2e44" fill-opacity=".6" transform="rotate(14.5 -483 765.9) scale(4.24812 56.08943)"/><circle r="1" fill="#432d23" fill-opacity=".6" transform="matrix(-23.68858 -20.59216 41.11932 -47.30237 3 79.5)"/><path fill="#222531" fill-opacity=".8" d="M88.6 89.7l-1.4 43.1 28.6 8.4-11.7-41z"/><path fill="#402b22" fill-opacity=".8" d="M97.4 22.9l21.2-12.2-62.3 10.7L97 75.7z"/><path fill="#e0d2d1" fill-opacity=".4" d="M52.5 78.5l5.5 8.3 9.9 53.4-5.5-9.5z"/><circle cx="66" cy="91" r="3" fill="#240a11" fill-opacity=".5"/><circle r="1" fill="#3b1a0b" fill-opacity=".4" transform="matrix(-2.2166 -7.48314 15.76222 -4.66898 126.6 169)"/><path fill="#c5c4bd" fill-opacity=".5" d="M174 95h15v5h-15z"/><ellipse cx="113" cy="78" fill="#5e413d" fill-opacity=".7" rx="22" ry="21"/><path fill="#191b22" fill-opacity=".8" d="M59.4 109.1l-48.1 60.3-7.2-13.9L23.7 95z"/><path fill="#9f9c8e" fill-opacity=".6" d="M160.1 111.3l-3-7.4 2.8-1.2 3 7.4z"/><path fill="#473228" fill-opacity=".6" d="M21.1 102.3l35-29.6-42-24.3L9 132.6z"/><circle r="1" fill="#31394c" fill-opacity=".5" transform="matrix(-1.02753 -2.63239 28.92344 -11.28997 222.8 77.2)"/><circle r="1" fill="#4a2b25" fill-opacity=".5" transform="matrix(5.95592 9.73162 -6.38454 3.90745 255 6.5)"/><path fill="#010108" fill-opacity=".5" d="M72 117h4v12h-4z"/><path fill="#dea48a" fill-opacity=".5" d="M46 132l18-6 10-34z"/><ellipse cx="185" cy="14" fill="#070508" fill-opacity=".4" rx="17" ry="3"/><path fill="#a29ea5" fill-opacity=".4" d="M97-9l37 20-50-6z"/><path fill="#5f6582" fill-opacity=".5" d="M205 18l-13 54-25-59z"/><path fill="#8689a0" fill-opacity=".5" d="M136 31l39 15-39 38z"/><path fill="#4d483f" fill-opacity=".5" d="M154.8 2.8l-15 10.1-10.6-15.7 15-10.1z"/><path fill="#f0bea4" fill-opacity=".4" d="M74 77L63 41l14 21z"/><path fill="#d6cac5" fill-opacity=".7" d="M54.1 84.6l5.3 33.6-2.3-22.5 19.8-11.3z"/></g></svg>