<svg xmlns="http://www.w3.org/2000/svg" viewBox="0 0 300 199"><defs/><path fill="#6b4735" d="M0 0h300v199H0z"/><g transform="translate(.6 .6) scale(1.17188)"><circle r="1" fill="#dcf0f5" fill-opacity=".6" transform="matrix(-43.8593 -115.4604 211.56822 -80.36723 137.7 60.8)"/><ellipse cx="94" cy="164" fill="#3d2916" fill-opacity=".6" rx="35" ry="52"/><circle r="1" fill="#4a2318" fill-opacity=".6" transform="matrix(14.15675 8.55122 -7.64945 12.66385 156.2 62.5)"/><circle r="1" fill="#f4f9ff" fill-opacity=".6" transform="matrix(-2.01659 -21.33329 34.92552 -3.30143 161.7 108)"/><circle r="1" fill="#dbebf4" fill-opacity=".4" transform="matrix(3.8898 -29.94446 140.98762 18.31435 166.8 20.3)"/><circle r="1" fill="#5e2c09" fill-opacity=".7" transform="matrix(4.87382 16.7758 -11.54782 3.35495 35.4 29.1)"/><path fill="#63432f" fill-opacity=".7" d="M175.8 139.5L138.6 185l65.6-46.7 1.3-30.2z"/><ellipse cx="231" cy="156" fill="#776755" fill-opacity=".8" rx="28" ry="14"/><circle r="1" fill="#483727" fill-opacity=".5" transform="matrix(-4.3168 -7.50483 48.0703 -27.65016 65.8 151.3)"/><ellipse cx="92" cy="44" fill="#80786d" fill-opacity=".6" rx="10" ry="127"/><ellipse cx="63" cy="67" fill="#eff9ff" fill-opacity=".3" rx="19" ry="74"/><path fill="#eaeeed" fill-opacity=".5" d="M-1 98l32 71-7-108z"/><circle r="1" fill="#63421e" fill-opacity=".4" transform="rotate(-163.7 25.8 29) scale(5.93225 25.43083)"/><circle cx="209" cy="47" r="43" fill="#bdc1c2" fill-opacity=".8"/><circle r="1" fill="#cecfd2" fill-opacity=".5" transform="matrix(-19.32118 -71.6075 13.49612 -3.64153 133.9 93.1)"/><path fill-opacity=".6" d="M170 61l-33-2 20-12z"/><path fill="#866e5a" fill-opacity=".6" d="M33 65h9v82h-9z"/><path fill="#f0f9fc" fill-opacity=".6" d="M17 20.4L6.1 3.6l36.9-24L53.9-3.6z"/><path fill="#8e6354" d="M177.8 71.8l-38.2-13.1L154.7 83l9.3 3.8z"/><path fill="#4d1504" fill-opacity=".5" d="M166 128h7v33h-7z"/><path fill="#d9cdc1" fill-opacity=".5" d="M87 120h5v43h-5z"/><path fill="#bdb2b0" fill-opacity=".9" d="M187.7 126.9l-11.9 14.8-57.5-1.8 13.9 23.2z"/><path fill="#967352" fill-opacity=".7" d="M23.2 24.7l54.2 43.7-61.5-30.5-1.2-14.3z"/><path fill="#230800" fill-opacity=".2" d="M64 185H20l105-89z"/><path fill="#501700" fill-opacity=".6" d="M-7.1 137.9l2.4-13.8 11.8 2L4.7 140z"/><path fill="#4c3a22" fill-opacity=".3" d="M206 99.6l12.3-32.9-1.5 23.7-63.7 87.7z"/><path fill="#3b1200" fill-opacity=".6" d="M43.1 47.5l2.6 13.7-1.9-43.3-12 16.1z"/><circle r="1" fill="#e5e8e9" fill-opacity=".7" transform="rotate(131.6 -22.2 77.5) scale(11.58673 8.47864)"/><circle r="1" fill="#632305" fill-opacity=".6" transform="matrix(-2.70844 -6.77159 4.22443 -1.68965 35.3 137.5)"/><path fill="#443627" fill-opacity=".5" d="M95 148l38-13-42-24z"/><path fill="#c5c0bf" fill-opacity=".6" d="M149.6 57.3l6.1 2.8-41.8 33.2 2.2-7.7z"/><path fill="#f4fcff" fill-opacity=".6" d="M45.7 142.7l-6.3-4.9 13-16.5 6.2 4.9z"/><ellipse cx="249" cy="114" fill="#acb4b9" fill-opacity=".7" rx="44" ry="30"/><ellipse cx="26" cy="106" fill="#b8b5af" fill-opacity=".7" rx="10" ry="32"/><ellipse cx="13" cy="77" fill="#fdffff" fill-opacity=".4" rx="3" ry="65"/><path fill="#938c81" fill-opacity=".6" d="M93.3 94l-79.1 87.9 20-6.4 29.5-27z"/><path fill="#898278" fill-opacity=".5" d="M92 29l24 103-37-42z"/><circle cx="139" cy="6" r="45" fill="#cad1d3" fill-opacity=".5"/><path fill="#aeb3b4" fill-opacity=".5" d="M196.9 129.3L152.8 24.9l69.4 120L271-.5z"/><path fill="#49311a" fill-opacity=".5" d="M203 132l2 12-38 2z"/><path fill="#926653" fill-opacity=".7" d="M134.5 162.3L91.9 185l54.1-20.7 1.1-9.2z"/><path fill="#813110" fill-opacity=".5" d="M12 59l-28 13 26-3z"/><path fill="#f4f8fc" fill-opacity=".5" d="M181.3 113.5L146 124.4l-7.3-24L174 89.7z"/><path fill="#d4dadb" fill-opacity=".8" d="M25.2-4l19.6 25.3 5.5 26.1L94.7-16z"/><path fill="#e1ecf3" fill-opacity=".3" d="M36.6 71l33.6 7.3L57 155.9 44.4 84.7z"/><circle r="1" fill="#d5d1cc" fill-opacity=".5" transform="matrix(-19.01749 31.52565 -6.0894 -3.67336 196.2 101.4)"/><circle r="1" fill="#b8a494" fill-opacity=".6" transform="rotate(68.9 -28.8 221.8) scale(21.89148 19.11412)"/><path fill="#d9cbbb" fill-opacity=".6" d="M23.5 73.4l5.4-39.2L1.8 58.9l39.1-15.6z"/><ellipse cx="90" cy="65" fill="#522813" fill-opacity=".5" rx="5" ry="6"/><path fill="#7a6958" fill-opacity=".7" d="M203 145h53v25h-53z"/><ellipse cx="89" cy="144" fill="#fff8eb" fill-opacity=".4" rx="2" ry="20"/><path fill="#811000" fill-opacity=".2" d="M174.5 127.4l2 4.6-31.5 22.7 16-30.6z"/><path fill="#190000" fill-opacity=".3" d="M141.6 54.4l9.7-5.9 8.7-.4 24.1 39.8z"/><ellipse cx="105" cy="33" fill="#9ba7ae" fill-opacity=".3" rx="10" ry="86"/><circle cx="58" cy="169" r="6" fill="#f7ede2" fill-opacity=".4"/><path fill="#8c7d6d" fill-opacity=".4" d="M53.3 56.2l-41 11.5 16.9 15.4 31.1-26.9z"/><ellipse cx="7" cy="133" fill="#666a6d" fill-opacity=".3" rx="5" ry="22"/><path fill="#470f00" fill-opacity=".6" d="M149 185l5-18 18-14z"/><path fill="#683200" fill-opacity=".5" d="M18 26h6v15h-6z"/><path fill="#ede3d8" fill-opacity=".4" d="M83 13.6l9 174.8h-1L82 13.6z"/><path fill="#eca79d" fill-opacity=".4" d="M160 130l9 18-34 37z"/><circle r="1" fill="#ccd2d4" fill-opacity=".6" transform="matrix(-86.8527 6.68295 -.96683 -12.56506 192.4 1.2)"/><path fill="#b6b5b3" fill-opacity=".5" d="M136.8 104l20.4-24-52 37.4L141 142z"/><ellipse cx="27" cy="35" fill="#c8a57a" fill-opacity=".6" rx="3" ry="17"/><path fill-opacity=".4" d="M84.5 84l2 56h-1l-2-56z"/></g></svg>