<svg xmlns="http://www.w3.org/2000/svg" viewBox="0 0 300 199"><defs/><path fill="#572f28" d="M0 0h300v199H0z"/><g transform="translate(.6 .6) scale(1.17188)"><circle r="1" fill="#f8eed0" fill-opacity=".4" transform="matrix(-40.07003 35.33656 -105.73935 -119.90355 117.4 34.5)"/><circle r="1" fill="#f0dcdd" fill-opacity=".7" transform="matrix(10.92278 -43.71387 13.7855 3.44458 192.9 161.4)"/><circle r="1" fill="#afbc9f" fill-opacity=".7" transform="matrix(-8.84002 23.43749 -71.16413 -26.84128 36 6)"/><ellipse cx="242" cy="39" fill-opacity=".4" rx="41" ry="131"/><circle r="1" fill="#1f1c10" fill-opacity=".5" transform="matrix(-12.5442 28.73225 -59.01453 -25.7651 122.3 128.6)"/><circle r="1" fill="#eec5ba" fill-opacity=".5" transform="matrix(19.90873 4.47972 -11.54814 51.32211 169.9 69.6)"/><circle r="1" fill="#fce7a0" fill-opacity=".3" transform="rotate(-20.4 487.2 -105.6) scale(36.15486 18.96479)"/><circle r="1" fill="#817052" fill-opacity=".6" transform="matrix(58.43516 23.69242 -8.96468 22.11056 80.3 69)"/><circle r="1" fill="#101a1b" fill-opacity=".8" transform="matrix(5.08581 -23.68434 42.35091 9.09414 64.7 113)"/><circle r="1" fill="#010507" fill-opacity=".9" transform="matrix(-18.56882 -64.82149 22.88156 -6.55467 0 163.2)"/><path fill="#672418" fill-opacity=".5" d="M109 65l69-77-83 54z"/><circle r="1" fill="#65181d" fill-opacity=".9" transform="rotate(44.1 -85.6 273.7) scale(13.0927 20.62824)"/><circle r="1" fill="#aa6753" fill-opacity=".4" transform="matrix(-14.666 -63.2996 13.03578 -3.02028 208.8 93.2)"/><circle cx="242" cy="167" r="33" fill="#600e17" fill-opacity=".7"/><circle r="1" fill="#000d0a" fill-opacity=".5" transform="matrix(55.2931 71.2306 -34.7656 26.98697 239.4 9.8)"/><path fill="#b2aa95" fill-opacity=".8" d="M85-16l49 7-46 69z"/><circle cx="202" cy="134" r="20" fill="#decbc5" fill-opacity=".4"/><path fill="#100604" fill-opacity=".5" d="M156.4 63.3l13.2-4.9 6.3 7.9-12.7 1.8z"/><circle r="1" fill="#e1c5be" fill-opacity=".5" transform="matrix(-10.34908 9.8623 -17.27076 -18.1232 157.9 83)"/><ellipse cx="24" cy="136" fill="#65c6dd" fill-opacity=".4" rx="5" ry="19"/><circle r="1" fill="#c9a18a" fill-opacity=".7" transform="matrix(16.61398 4.39413 -6.42607 24.29661 164.5 36.9)"/><ellipse cx="128" cy="140" fill="#3d4227" fill-opacity=".5" rx="25" ry="51"/><circle r="1" fill="#3f553b" fill-opacity=".5" transform="matrix(-15.60746 -17.95433 24.12459 -20.97118 14.8 83)"/><circle r="1" fill="#dd6a4c" fill-opacity=".3" transform="matrix(15.21081 17.1927 -8.46602 7.4901 44.9 47.2)"/><path fill="#83513e" fill-opacity=".3" d="M214 52.2L168.7 95l35.9 17 28.3-20.6z"/><circle r="1" fill="#000702" fill-opacity=".3" transform="rotate(-113.9 152.4 -28.8) scale(14.15452 29.16028)"/><path fill="#09160e" fill-opacity=".5" d="M170-16l-25 32 81-25z"/><path fill="#2e3230" fill-opacity=".6" d="M60 57l14 19 24-3z"/><path fill="#afb09d" fill-opacity=".5" d="M139.1 8.9l56-24.9L-15.6-1l147.5 32.8z"/><path fill="#6c171e" fill-opacity=".6" d="M153 119h25v51h-25z"/><circle r="1" fill="#7a634a" fill-opacity=".7" transform="rotate(126 -18.3 88.6) scale(23.70022 10.37359)"/><circle r="1" fill="#b99680" fill-opacity=".3" transform="matrix(2.2766 -14.26129 8.31618 1.32755 87.4 146.6)"/><path fill="#8db69c" fill-opacity=".4" d="M94 73l43 16 7-43z"/><circle r="1" fill="#d9b9ad" fill-opacity=".6" transform="matrix(-1.29712 -8.7469 20.56274 -3.04935 168.5 107.6)"/><path fill="#814b3d" fill-opacity=".6" d="M117.7 23.2l-2.8-11.9-25.7 69.5L131 49.6z"/><path fill="#bdc5b3" fill-opacity=".4" d="M271 105.1l-20.4 7.3 17.8 37.4 2.6-57.6z"/><path fill="#f5d0ca" fill-opacity=".4" d="M218.5 94.1l1.7-3.1-1.3-9.8-7.7 8.9z"/><path fill="#761c23" fill-opacity=".7" d="M233.4 127.7l3.2 2.4-50 66.2-3.2-2.4z"/><path fill="#6f704f" fill-opacity=".7" d="M57.8 67l-32.6 3.5L41 83l119.4 16.9z"/><path fill="#222422" fill-opacity=".7" d="M22.4 85.9L4.8 126.4l21.2-8.8 94.9-3.5z"/><path fill="#090709" fill-opacity=".7" d="M109.4 108.3l5.9 9.8-1.7 9.8-68.6 8.8z"/><path fill="#5e3e31" fill-opacity=".5" d="M205.5 2.9l8 126.8 23.5-.7-38.1-53.8z"/><path fill="#72554d" fill-opacity=".7" d="M175.8 54.7l-1 2.8-22.6-8.2 1-2.8z"/><path fill="#5f3027" fill-opacity=".5" d="M104.9 45.5l26.4-17.6 17.6 2.9-51.3 29.3z"/><path fill="#da9986" fill-opacity=".4" d="M99.6 53.9L86.1 67.8 64.3 52.1l36.2-7.3z"/><circle r="1" fill="#c38867" fill-opacity=".6" transform="matrix(29.38638 -4.3702 .4636 3.11738 154 20.4)"/><ellipse cx="189" cy="160" fill="#d9c3c1" fill-opacity=".6" rx="9" ry="37"/><circle r="1" fill="#6b311e" fill-opacity=".4" transform="matrix(7.17605 -6.10664 32.9392 38.7076 9.5 30.4)"/><path fill="#95714d" fill-opacity=".3" d="M204 27.2l-.3 33.3-48.6-48.1 16.3-4.3z"/><path fill="#e5ccc0" fill-opacity=".4" d="M177.3 37.3l2.7 14.4-27.8-3.4-3.7-22.2z"/><ellipse cx="30" cy="141" fill="#232f26" fill-opacity=".6" rx="5" ry="14"/><path fill="#54452e" fill-opacity=".5" d="M151 159l10-40-65-29z"/><circle r="1" fill="#d6c2bf" fill-opacity=".9" transform="matrix(-6.38982 16.38904 -13.07432 -5.09746 200.5 145)"/><path fill="#92a09e" fill-opacity=".4" d="M36 122l-15 12 2-15z"/><path fill="#44462b" fill-opacity=".4" d="M106 89l27 29-89-37z"/><path fill="#a19ea5" fill-opacity=".5" d="M100.3 152l-15.5-2.6-3.5 5.6-1.5 8.9z"/><path fill="#312d29" fill-opacity=".4" d="M202 12h25v63h-25z"/><path fill="#dfc7c0" fill-opacity=".5" d="M186 66l-31 7 1 43z"/><path fill="#6d3e2f" fill-opacity=".4" d="M239.5 77.9l-37.9 34.8-19.8 5.9 1.3-3.4z"/><path fill="#cc947c" fill-opacity=".4" d="M179.4 79.4l-11.9 13.1 16.6 36.3 15.8-28.4z"/><path fill="#2e2c1d" fill-opacity=".6" d="M21 185h129l-6-33z"/><circle r="1" fill="#0d0a05" fill-opacity=".5" transform="matrix(1.52863 58.37589 -19.00136 .49757 255.1 52.1)"/><path fill-opacity=".5" d="M141 51h7v3h-7z"/><path fill="#dfc3b7" fill-opacity=".5" d="M144 65l8-14 12 34z"/><path fill="#9ea28c" fill-opacity=".8" d="M122.7 66.6l12.5-27.9 6-5.1 4.1 12.2z"/></g></svg>