<svg xmlns="http://www.w3.org/2000/svg" viewBox="0 0 300 199"><defs/><path fill="#54342f" d="M0 0h300v199H0z"/><g transform="translate(.6 .6) scale(1.17188)"><circle cx="46" cy="114" r="217" fill="#bec9c5" fill-opacity=".5"/><circle r="1" fill="#000403" fill-opacity=".6" transform="rotate(-134.1 44 -11.7) scale(24.96162 43.88054)"/><ellipse cx="33" cy="70" fill="#f3f7ff" fill-opacity=".6" rx="24" ry="50"/><ellipse cx="111" cy="146" fill="#2f1b00" fill-opacity=".3" rx="83" ry="73"/><ellipse cx="229" cy="71" fill="#f4f2f9" fill-opacity=".7" rx="15" ry="42"/><circle r="1" fill="#fff4e2" fill-opacity=".5" transform="rotate(143.6 40.6 40.8) scale(65.97005 14.24874)"/><ellipse cx="64" cy="145" fill="#220702" fill-opacity=".6" rx="34" ry="19"/><path fill="#edd9e4" fill-opacity=".5" d="M232 11l7 63-82-73z"/><path fill="#00040e" fill-opacity=".4" d="M33 68L9 48l-25 57z"/><ellipse cx="207" cy="160" fill="#f3fdff" fill-opacity=".5" rx="40" ry="8"/><ellipse cx="72" cy="112" fill="#bac8dc" fill-opacity=".6" rx="40" ry="9"/><ellipse cx="140" cy="60" fill="#ffecc2" fill-opacity=".3" rx="52" ry="25"/><path fill="#001361" fill-opacity=".6" d="M21.1-18.7l39 1.4-1.2 36-39-1.4z"/><ellipse cx="233" cy="97" fill="#dfdde7" fill-opacity=".7" rx="34" ry="13"/><circle r="1" fill="#645b4c" fill-opacity=".6" transform="rotate(-166.5 122.5 52.4) scale(84.83235 21.34083)"/><path fill="#e7e6f5" fill-opacity=".6" d="M28.2 148.2l-9.8 1.7-10.6-60 9.8-1.8z"/><path fill="#fff" fill-opacity=".7" d="M48.1 47.9l-27.5 4.8-4.7-26.6 27.5-4.8z"/><path fill="#7a6b59" fill-opacity=".6" d="M175.4 72.1l-70-13 53.9 117.2 65.6-130.5z"/><path fill="#fce9c0" fill-opacity=".5" d="M109 112l34-26-14-16z"/><path fill="#00000b" fill-opacity=".4" d="M48 29h60v12H48z"/><circle r="1" fill="#2b290f" fill-opacity=".6" transform="matrix(-15.25906 10.03688 -3.77 -5.73151 42.2 126.2)"/><ellipse cx="98" fill="#696a5c" rx="40" ry="6"/><path fill="#5f5f5a" d="M232-16l-29 26 65-8z"/><path fill="#4b3207" fill-opacity=".6" d="M123 79l-67 8 46 20z"/><path fill="#f6ffff" fill-opacity=".5" d="M167 160l-30 18 43-11z"/><path fill="#e8f0ff" fill-opacity=".5" d="M19.9 4.9L4.3-16 1.9 12.4l20.8 4.5z"/><path fill="#17191c" fill-opacity=".5" d="M45.7-16l5.2 66.1L83 70.9l-13.2-2z"/><path fill="#221311" fill-opacity=".5" d="M140 31l5-17 22 15z"/><circle r="1" fill="#ced4e5" fill-opacity=".5" transform="rotate(-150.4 43 77) scale(25.7523 3.88152)"/><path fill="#e4deec" fill-opacity=".4" d="M56.8 184.8l48-26.4 10.7-26.2 7.1.1z"/><path fill="#f3ece4" fill-opacity=".5" d="M40.7 88.2L16.8 42.1l109.7 37.3L73 44.8z"/><path fill="#000e2f" fill-opacity=".4" d="M45.1 184.2l-32.8-42.6-5.2 9.9 12.4 29.8z"/><ellipse cx="114" cy="36" fill="#fff" fill-opacity=".5" rx="7" ry="21"/><path fill="#a7a9b0" d="M114.2 102.3l-16.5 12.1-8.1 2.2 12.3 15z"/><path fill="#140400" fill-opacity=".2" d="M184.8 86.8l2 14 22.4-18.2-72.5-31.7z"/><path fill="#f1e1d5" fill-opacity=".5" d="M139.5 48.8L82.2 36.5l105 53.9L163 88z"/><path fill="#efe6e3" fill-opacity=".4" d="M146 0h27v18h-27z"/><path fill="#91867e" fill-opacity=".5" d="M240 27h12v44h-12z"/><ellipse cx="171" cy="145" fill="#423e44" fill-opacity=".6" rx="38" ry="9"/><ellipse cx="85" cy="137" fill="#3b201b" fill-opacity=".6" rx="14" ry="18"/><path fill="#ddc364" fill-opacity=".5" d="M72.5 127.2l-15.7 8.7-7.3-13.1 15.7-8.7z"/><path fill="#050510" fill-opacity=".7" d="M7.7 99.9L-16 97.3l27.7-11.2-11.8-3.3z"/><path fill="#b3a08d" fill-opacity=".7" d="M176-1v93l21-58z"/><path fill="#e4e0df" fill-opacity=".4" d="M146.9 54.3L209.7 79l-38.8-37.9-37 9.8z"/><path fill="#d0b9b6" d="M215.3-11.2l-11.6 23.4-28.5 3.4 20.9-21.5z"/><path fill="#f2efe5" fill-opacity=".4" d="M264.5 67.9l6.5 10.2-67.5-35.2-21.4-32.8z"/><path fill="#aaa7b9" fill-opacity=".7" d="M84.5 103.3l-64.1 22.5 7.5-42 20.8 12.1z"/><path fill="#491b14" fill-opacity=".4" d="M215 53l4 25-29-19z"/><path fill="#ffffe1" fill-opacity=".5" d="M210.8-16l30.4 20.1L271 6.6 206.5-16z"/><path fill="#0d1000" fill-opacity=".6" d="M184 165h11v5h-11z"/><path fill="#8a6e3b" d="M94.4 90.2l-26.9-7.3 19.9-8.8 27.9 6.7z"/><path fill="#001412" fill-opacity=".6" d="M252-5.9l19 86.1-25.7-36.4h8z"/><path fill="#2a2a1b" fill-opacity=".5" d="M272.7 117l-54.9 4-.5-8 54.9-4z"/><circle r="1" fill="#485157" fill-opacity=".5" transform="matrix(.41278 -1.71933 47.78414 11.47196 95.2 112.2)"/><circle r="1" fill="#733102" fill-opacity=".5" transform="matrix(-3.58695 4.73833 -6.64735 -5.0321 114.1 64.7)"/><path fill="#0020ac" fill-opacity=".7" d="M37 14L23-15l-3 34z"/><path fill="#f2ffe7" fill-opacity=".4" d="M92.8-6.8l12.4-9.2h10.1L96.8 13.3z"/><path fill="#111b1d" fill-opacity=".7" d="M232 4.3l38.1 46.2-13.7-39.2-52.6-5.6z"/><path fill="#9a838d" fill-opacity=".8" d="M182.3 10.5l72 19.8-10 16.5-14.2-16.4z"/><path fill="#1d2022" fill-opacity=".8" d="M101.9 17.7L60.1 55.2 42.7-16l1 26.2z"/><path fill="#ece1d3" fill-opacity=".9" d="M130.2 51.7l-14.3 4.8 2-39.7-16.2 7.3z"/><path fill="#e3cffd" fill-opacity=".6" d="M238.3 10.7l-.5 1.5 5.2 12.4-25.8-14.8z"/><path fill="#bacaac" fill-opacity=".5" d="M39-4l7 20-10 11z"/><path fill="#ffeccc" fill-opacity=".6" d="M124.6 4.4l16.9 7.3-27.1 6.5-.8 40.6z"/><path fill="#d4d0da" fill-opacity=".5" d="M196.5 69.3L271 80.2 266.5 36l-33.4 75.6z"/></g></svg>