<svg xmlns="http://www.w3.org/2000/svg" viewBox="0 0 300 199"><defs/><path fill="#4a2f28" d="M0 0h300v199H0z"/><g transform="translate(.6 .6) scale(1.17188)"><circle r="1" fill="#928378" fill-opacity=".8" transform="matrix(-186.19138 174.23481 -78.07894 -83.43697 102.8 60.8)"/><ellipse cx="193" cy="75" fill="#261713" fill-opacity=".7" rx="38" ry="67"/><circle r="1" fill="#ffdcc5" fill-opacity=".7" transform="matrix(35.4859 36.09008 -23.93705 23.53632 79.9 151.3)"/><circle r="1" fill="#e0f8ff" fill-opacity=".6" transform="matrix(25.56689 9.66997 -17.81441 47.10036 255 29.2)"/><circle cx="164" cy="165" r="41" fill="#c69580" fill-opacity=".7"/><ellipse cx="239" cy="130" fill="#00050b" fill-opacity=".7" rx="34" ry="57"/><path fill="#5c1d13" fill-opacity=".5" d="M126-2L77 84l61 64z"/><circle r="1" fill="#f2c2b5" fill-opacity=".5" transform="matrix(-15.36581 -9.1117 17.6594 -29.78053 83.5 43.3)"/><path fill="#c5d0d8" fill-opacity=".9" d="M200.6-18.8l21.6-14.6 35.2 52.2-21.6 14.6z"/><circle r="1" fill="#7e4634" fill-opacity=".4" transform="rotate(156.1 60.6 66.3) scale(57.93609 23.77553)"/><path fill="#ded6be" fill-opacity=".5" d="M137 0h33v33h-33z"/><path fill="#d7ae90" fill-opacity=".8" d="M133.8 42.1l-10 26.4 14.8 28.9 11.2-16.5z"/><path fill="#000c11" fill-opacity=".6" d="M103 31l7.6-21.8 28.3 9.8-7.5 21.8z"/><path fill="#c2cbd3" fill-opacity=".8" d="M248-5l22 89-50-19z"/><circle r="1" fill="#19160b" fill-opacity=".5" transform="matrix(38.50768 -15.4925 9.23856 22.96309 189.7 46.5)"/><path fill="#fde5d2" fill-opacity=".6" d="M88.4 91l-7.5 53.1L55.5 174l10.6-58.2z"/><circle cy="63" r="72" fill="#20eaff" fill-opacity=".1"/><path fill="#0b0004" fill-opacity=".4" d="M135.7 88.9l-21.4 18.2 127 12.6-107.8 5.8z"/><path fill="#642d27" fill-opacity=".6" d="M78 58l14-5-21-25z"/><path fill="#fff" fill-opacity=".5" d="M84 11l20 2-39 18z"/><path fill="#302510" fill-opacity=".5" d="M189 4l28 2 12 28z"/><path fill="#bc997d" fill-opacity=".8" d="M40.3 187l-4.6-52.8 14-1.2 4.6 52.8z"/><circle r="1" fill="#bc917c" fill-opacity=".5" transform="rotate(-158 87 62) scale(62.75117 13.85199)"/><path fill="#fff2df" fill-opacity=".6" d="M98 58L58 71l8-14z"/><path fill="#74483d" fill-opacity=".5" d="M160.1 132.7l6.4-12.5 45.4 23.1-6.4 12.5z"/><path fill="#865043" fill-opacity=".9" d="M65 75.6l43.3 45 8.3-68-46.8 18.8z"/><ellipse cx="165" cy="83" fill="#b48268" fill-opacity=".3" rx="37" ry="11"/><path fill-opacity=".4" d="M133.7 94.1l-14.3-34.7 3.5 59.3 10.8-5.4z"/><path fill="#412c1b" fill-opacity=".6" d="M153.9 72.7l32.2 4.1-44.6-38.7-5.2 6.6z"/><circle r="1" fill="#b3ad90" fill-opacity=".2" transform="rotate(-123.7 78.3 -41.5) scale(37.27561 36.5406)"/><ellipse cx="125" cy="41" fill="#000100" fill-opacity=".5" rx="6" ry="14"/><circle cx="115" cy="169" r="19" fill="#e3c5b9" fill-opacity=".7"/><path fill="#44524c" fill-opacity=".5" d="M113.7-5.2l.6 17-42 1.4-.6-17z"/><circle r="1" fill="#667370" fill-opacity=".6" transform="rotate(-91 80.4 68.3) scale(46.59645 21.03621)"/><path fill="#a95d49" fill-opacity=".5" d="M94 64l12-60 10 65z"/><circle r="1" fill="#fffef3" fill-opacity=".5" transform="rotate(-109.9 70.4 36.4) scale(4.84522 18.815)"/><path fill="#e1d6c9" fill-opacity=".5" d="M149.8-8.5L128.3 91l4.1-54.6 37.7-40.3z"/><path fill="#4b0d03" fill-opacity=".3" d="M137 161.9l27.8-4.3-9.8-6.9-.2 34.3z"/><path fill="#78655b" fill-opacity=".8" d="M78.5 36.8l-17.1-4.7 18-23.4-14.5 46.7z"/><circle r="1" fill="#dfbba9" fill-opacity=".5" transform="rotate(-159 97.8 66.5) scale(13.67653 4.45336)"/><path fill="#fff8f0" fill-opacity=".4" d="M108.7 32L84.4 42.6l-5.5-26.3-8.4 20.6z"/><path fill="#7b8a85" fill-opacity=".6" d="M94.5 5l35.4-21 19.8 41.7-27.3-10z"/><path fill="#694137" fill-opacity=".4" d="M87 79h38v53H87z"/><path fill="#f3ddcd" fill-opacity=".6" d="M170 148l2 8-26-12z"/><ellipse cx="202" cy="135" fill="#564d51" fill-opacity=".4" rx="6" ry="75"/><path fill="#834b3e" fill-opacity=".4" d="M188 93l-46-1-16 56z"/><path fill="#dda885" fill-opacity=".3" d="M163.9 77.8l-12.5-8.3-14.8 42.7-3.5-13z"/><path fill="#73564f" fill-opacity=".6" d="M87 23h22v9H87z"/><path fill="#000710" fill-opacity=".3" d="M199.5 110.5l-63.7 6.7 57 8.4 27.8 35.3z"/><path fill="#161818" fill-opacity=".5" d="M133.8 22.3l1.2 13.8-8.4 12L97.1 6.8z"/><path fill="#2c1001" fill-opacity=".2" d="M175.9 134.7l19.8 6.4-40.2 2.7 34.2 12.7z"/><path fill="#fffefa" fill-opacity=".6" d="M96.4 10.9l-16 7-5.3 8.1 2.8 6.5z"/><path fill="#211d24" fill-opacity=".7" d="M210.3 66.7l29.5 33.1 26.3 9.7-4-29.2z"/><path fill="#bb8553" fill-opacity=".3" d="M159 46l36-62-62 48z"/><path fill="#fddec6" fill-opacity=".4" d="M135.8 26.8l-8.4 37.1 2.7 22.7 2.5 5z"/><ellipse cx="238" cy="64" fill="#c1c9cd" fill-opacity=".5" rx="21" ry="8"/><path fill="#ffe6d6" fill-opacity=".5" d="M67.5 42.4l-5.7 12.7L64.9 74l-8.1-21.8z"/><path fill="#483226" fill-opacity=".4" d="M177 164l-13-7 31 5z"/><path fill="#fff1d0" fill-opacity=".2" d="M202.6 135.9l-.7 10.6-14.6 38.5-10.7-12.9z"/><path fill="#c9a190" fill-opacity=".8" d="M58.6 53.1l29 5.1 13.1-7.2L95 63.7z"/><path fill="#533f33" fill-opacity=".7" d="M216.4 84.2l12.5-51.6-2.8-6.1-41.7 79.1z"/><path fill="#c8957a" fill-opacity=".4" d="M90 98l2 23-19-40z"/><path fill="#eacebb" fill-opacity=".7" d="M107.7 132.8L55.3 185l-.5-45.2 59.6-7.5z"/><path fill="#622617" fill-opacity=".4" d="M96.5 21.3L68 43.5l-.6-.8L96 20.5z"/><path fill="#e8f1fc" fill-opacity=".5" d="M32 168l2 17 10-20z"/></g></svg>