<svg xmlns="http://www.w3.org/2000/svg" viewBox="0 0 300 199"><defs/><path fill="#54442c" d="M0 0h300v199H0z"/><g transform="translate(.6 .6) scale(1.17188)"><circle r="1" fill="#9cc5fb" fill-opacity=".3" transform="matrix(157.58004 12.40182 -14.66892 186.38632 138.8 25.8)"/><ellipse cx="157" cy="149" fill="#1f1200" fill-opacity=".6" rx="32" ry="80"/><circle r="1" fill="#22191b" fill-opacity=".5" transform="rotate(-111.9 70.6 20.8) scale(22.34328 73.47662)"/><path fill="#a4a8a3" fill-opacity=".5" d="M248-6L-16 0l286 91z"/><circle r="1" fill="#00002c" fill-opacity=".8" transform="rotate(-153.5 27.1 74.4) scale(11.9659 47.6671)"/><path fill="#dceaff" fill-opacity=".5" d="M225.6 168l-18.6 9.9-28.6-53.9 18.6-9.9z"/><circle r="1" fill="#e1e6eb" fill-opacity=".6" transform="matrix(6.96366 -49.38884 7.4916 1.05629 108.9 149)"/><circle r="1" fill="#d0e9fb" fill-opacity=".8" transform="matrix(-.5274 12.07963 -17.20253 -.75108 5.5 81.4)"/><path fill="#2c1900" fill-opacity=".6" d="M210.5 83.6l-41.1 12.6-8-25.8 41.2-12.6z"/><circle r="1" fill="#c9d8e9" fill-opacity=".5" transform="rotate(103.2 -33 90.4) scale(29.67105 10.19586)"/><ellipse cx="100" cy="6" fill-opacity=".6" rx="12" ry="10"/><path fill-opacity=".5" d="M80 161h118v9H80z"/><ellipse cx="239" cy="140" fill="#102d6f" fill-opacity=".6" rx="32" ry="18"/><circle r="1" fill="#8cccff" fill-opacity=".4" transform="matrix(8.34145 11.7366 -47.82135 33.98763 248 101.4)"/><ellipse cx="145" cy="102" fill="#d39a6b" fill-opacity=".3" rx="47" ry="13"/><path fill="#7c6c56" d="M181.8 122.3l56.4-22.8-41.3-39.4L271 31.9z"/><ellipse cx="211" cy="93" fill="ivory" fill-opacity=".3" rx="7" ry="31"/><circle r="1" fill="#bed8ee" fill-opacity=".3" transform="rotate(26 -.7 139.2) scale(40.82151 19.90329)"/><path fill="#141308" fill-opacity=".4" d="M64 45l10 93 37-63z"/><path fill="#fdd9af" fill-opacity=".4" d="M258.2 59l-4.5 36.7-21.9-2.7 4.5-36.7z"/><ellipse cx="166" cy="159" fill="#010300" fill-opacity=".8" rx="19" ry="15"/><path fill="#cbd4e5" fill-opacity=".4" d="M100.9 120.1l44.3-4.2-22.3-27.6.1 79.5z"/><ellipse cx="222" cy="166" fill="#a6b7f3" fill-opacity=".6" rx="25" ry="11"/><path fill="#d4d6d7" fill-opacity=".5" d="M175 64l96-35-52 3z"/><path fill="#52544a" fill-opacity=".5" d="M180 53l25-41-78 40z"/><circle r="1" fill="#a5b2c1" fill-opacity=".6" transform="matrix(-35.4238 28.6593 -9.88888 -12.22297 148.4 5.6)"/><path fill="#000414" fill-opacity=".8" d="M249 126h7v44h-7z"/><path fill="#c2dcff" fill-opacity=".5" d="M13 130l-18.8 13.3-5.2-7.4 18.8-13.2z"/><path fill="#a3abb3" fill-opacity=".6" d="M43 120l29-12-44 60z"/><path fill="#d3e3f4" fill-opacity=".4" d="M49 185l37-63-13 60z"/><path fill="#2a1c09" fill-opacity=".8" d="M206.3 71.3l-52.9 8.1-38 5.1 21.5 13.3z"/><path fill="#000111" fill-opacity=".5" d="M217 96h32v8h-32z"/><path fill="#6e6e5e" fill-opacity=".6" d="M134 104h14v53h-14z"/><path fill="#afbdc5" fill-opacity=".5" d="M124.3 139.7l.4 26-29 .6-.4-26z"/><path fill="#000003" fill-opacity=".6" d="M125 119h8v51h-8z"/><path fill="#00012d" fill-opacity=".7" d="M23 176l-33-19 57-49z"/><path fill="#95888a" fill-opacity=".5" d="M51 96l22-1-39-44z"/><circle r="1" fill="#ababa3" fill-opacity=".5" transform="matrix(33.86517 -14.6941 1.8623 4.29201 165.6 63.8)"/><path fill="#0b1000" fill-opacity=".6" d="M82 153l45 32H72z"/><circle r="1" fill="#725137" fill-opacity=".6" transform="rotate(-55.4 192.4 -127) scale(10.27664 24.01392)"/><ellipse cx="221" cy="130" fill="#21558b" fill-opacity=".8" rx="6" ry="16"/><path fill="#000102" fill-opacity=".7" d="M207.8 84.6L191.4 65l-6.5 8.1 13.7 17.5z"/><path fill="#1a170c" fill-opacity=".3" d="M129.4 17.6L84 12.1 124.7-16l-9.1 10z"/><path fill="#b8a182" fill-opacity=".5" d="M188 102l29-5-36-17z"/><circle r="1" fill="#413f35" fill-opacity=".6" transform="rotate(127.5 10 32.7) scale(2.9255 53.21889)"/><path fill="#88929c" fill-opacity=".9" d="M-16 185l31.8-4L71 110.2 44.8 185z"/><path fill="#c8d5df" fill-opacity=".4" d="M243.8 83.3l27.2 28.2-43.5-27.7 8.6 38.8z"/><path fill="#c7ccc8" fill-opacity=".5" d="M183 146l34-26-35 5z"/><path fill="#0c0600" fill-opacity=".6" d="M183 123.6l9.4-10-25-2.8 9.3 31.9z"/><path fill="#7580ca" fill-opacity=".7" d="M225.2 145.7l13.8-2.6 7.7 6.5.5 5.5z"/><circle r="1" fill="#92958f" fill-opacity=".6" transform="matrix(73.059 -5.10878 .1585 2.26658 108.8 58.4)"/><path fill="#82888d" fill-opacity=".5" d="M111 137h16v28h-16z"/><path fill="#f4fcff" fill-opacity=".4" d="M114.5 92.5l1.8 14.7-7.8 52.7-10.4 7.9z"/><path fill="#0c1947" fill-opacity=".6" d="M211 140l2 12 35 5z"/><path fill="#626154" d="M190.7 43.9L163.9 54l11.4-5.6L214.2-16z"/><ellipse cy="80" fill="#b1e0ff" fill-opacity=".3" rx="27" ry="18"/><path fill="#03214b" fill-opacity=".9" d="M18.4 121.3l25.8-18.4 13.6 6L23.5 135z"/><path fill="#c6d1d9" fill-opacity=".6" d="M252 88h4v34h-4z"/><circle r="1" fill="#015790" fill-opacity=".2" transform="rotate(-52.3 73.3 7.3) scale(16.99073 22.45164)"/><path fill="#000822" fill-opacity=".5" d="M271 166.2l-22.9-58.7 18.5 76-38.4-35.4z"/><circle cx="167" cy="16" r="25" fill="#90a1b7" fill-opacity=".4"/><path fill-opacity=".5" d="M220 95h13v9h-13z"/><ellipse cx="204" cy="159" fill="#c1d1dd" fill-opacity=".8" rx="7" ry="16"/><circle r="1" fill="#505976" fill-opacity=".5" transform="matrix(6.3962 12.47176 -24.43819 12.53325 16.5 104.4)"/><path fill="#2f4a6e" fill-opacity=".7" d="M18 134.4l-24.4 21L4.9 93.2-16 137.6z"/></g></svg>