<svg xmlns="http://www.w3.org/2000/svg" viewBox="0 0 300 199"><defs/><path fill="#304155" d="M0 0h300v199H0z"/><g transform="translate(.6 .6) scale(1.17188)"><circle cx="104" cy="133" r="152" fill="#ffdba5" fill-opacity=".5"/><circle r="1" fill-opacity=".6" transform="matrix(24.8349 -2.92474 5.01192 42.5578 163.9 73.6)"/><path fill-opacity=".8" d="M17.4 138.6l34.4-16.1 22.8 49-34.4 16z"/><circle r="1" fill="#ffeecd" fill-opacity=".7" transform="matrix(6.09727 117.8683 -13.7069 .70905 125.5 25.8)"/><ellipse cx="97" cy="55" fill="#050000" fill-opacity=".7" rx="17" ry="24"/><path fill-opacity=".6" d="M15 33l30-1 1 95z"/><circle r="1" fill="#ffffe8" fill-opacity=".5" transform="matrix(12.48637 -11.93223 53.95589 56.4616 162.8 11.9)"/><ellipse cx="253" cy="93" fill="#bfae97" fill-opacity=".9" rx="10" ry="78"/><circle r="1" fill="#fff8d9" fill-opacity=".6" transform="matrix(31.61123 -26.52497 9.96339 11.8739 82.8 24.5)"/><ellipse cx="3" cy="70" fill="#efddbf" fill-opacity=".7" rx="13" ry="76"/><circle r="1" fill="#f5e6cc" fill-opacity=".6" transform="matrix(-14.4007 -6.9926 44.954 -92.5791 170.7 169)"/><ellipse cx="228" cy="88" fill="#131915" fill-opacity=".4" rx="14" ry="141"/><circle r="1" fill="#e7e5e1" fill-opacity=".5" transform="matrix(29.40681 -23.90892 11.65153 14.33082 69.2 102.4)"/><circle r="1" fill="#fff5d7" fill-opacity=".5" transform="rotate(-8.5 1039 -897.5) scale(11.65054 41.82705)"/><circle r="1" fill="#fff4cd" fill-opacity=".5" transform="matrix(8.54214 2.36895 -12.71531 45.84993 114.1 144.5)"/><path fill-opacity=".4" d="M102.4 109.8l13.6 6.4-22.4 48-13.6-6.4z"/><path fill="#ffe8c2" fill-opacity=".5" d="M64 29L41 67l29 83z"/><path fill="#151303" fill-opacity=".6" d="M48.7 6.3l24.2-1.9-18.3 25.2-9.1 24.8z"/><path fill="#fff" fill-opacity=".5" d="M38-16l12 45-33 1z"/><ellipse cx="205" cy="79" fill="#e6d5b7" fill-opacity=".7" rx="15" ry="31"/><path fill="#1f1617" fill-opacity=".7" d="M66 74.3L81.1 40 116 67l-3.7 14.5z"/><path fill="#2b2d24" fill-opacity=".8" d="M228.6 57.1l10.6-3.3-6.9-69.8h-66.2z"/><circle r="1" fill="#575b5a" fill-opacity=".8" transform="rotate(-48.9 270.5 -172.6) scale(39.29575 16.19269)"/><circle r="1" fill="#0e0000" fill-opacity=".5" transform="rotate(-154.8 86.6 16.5) scale(14.19835 34.00423)"/><path fill="#161c1b" fill-opacity=".5" d="M21 35h26v73H21z"/><path fill="#11100c" fill-opacity=".9" d="M-.8 189.8l-17-31.8 18.6-9.8 17 31.8z"/><circle r="1" fill="#f6deb6" fill-opacity=".5" transform="matrix(7.30153 -3.5076 26.40398 54.96346 81.3 163.3)"/><path fill="#807c73" d="M175.3 149.6l15.9-49.2 17.3 14.7L175.9 87z"/><path fill="#ebcea4" fill-opacity=".5" d="M17.7 137.3l35 50-16.4 11.4-35-50z"/><path fill="#0e0006" fill-opacity=".4" d="M115.9 170l31.5 15-20.8-45.3-1.5 6.6z"/><ellipse cx="14" fill="#644d33" fill-opacity=".9" rx="6" ry="33"/><ellipse cx="127" cy="12" fill="#ead7bb" fill-opacity=".6" rx="20" ry="58"/><ellipse cx="109" cy="84" fill-opacity=".3" rx="6" ry="40"/><path fill="#1b1313" fill-opacity=".7" d="M145.7 27l27 11.3-23.4 81-4.7-74.7z"/><circle r="1" fill="#efebe4" fill-opacity=".7" transform="rotate(-143.7 148.1 43) scale(3.60801 58.88071)"/><circle r="1" fill="#fee3c0" fill-opacity=".5" transform="matrix(25.50072 17.2465 -8.29359 12.26292 183.8 29.3)"/><path fill="#5f6659" fill-opacity=".9" d="M271-1.4L259.2-5l-19.1-7-7.6 57.3z"/><ellipse cx="3" cy="80" fill="#ddcfb7" fill-opacity=".8" rx="17" ry="44"/><path fill="#292720" fill-opacity=".6" d="M219 79l23-11 4 47z"/><circle r="1" fill="#eedcc3" fill-opacity=".5" transform="rotate(-148.6 38 22.7) scale(7.88639 24.25347)"/><path fill="#2f3434" fill-opacity=".8" d="M113 52.1l-5.8-24.2-17.1 5.8-22 26.1z"/><path fill="#484a4a" d="M183.6 46.2l-18.7 10.5L177 98.8l-6.5 27.4z"/><path fill="#fffffd" fill-opacity=".5" d="M174.5 141.7l-8.7 30.3 3.1 4.7 27.9-67.4z"/><circle r="1" fill-opacity=".5" transform="rotate(55.1 -123.8 123) scale(26.42344 17.72703)"/><circle r="1" fill="#939997" transform="matrix(-2.03717 15.13079 -14.75771 -1.98694 162.2 134.2)"/><path fill="#10101d" fill-opacity=".5" d="M191.7 77.2l-1.6 26.8-12.4-29.7 6.6-24.2z"/><path fill="#f6fcff" fill-opacity=".3" d="M98 69l-22 49-5-37z"/><path fill="#221816" fill-opacity=".6" d="M99.4 114.6l11.9-10 .9 18.2-8.7 22.1z"/><path fill="#fffffd" fill-opacity=".4" d="M258.4 15.5l-13.9 65.6-3-.6 14-65.6z"/><path fill="#0c0000" fill-opacity=".6" d="M168 62l7 51-36-38z"/><path fill="#e6d2b4" fill-opacity=".6" d="M119 71l-6 50 54 64z"/><path fill="#979fa6" fill-opacity=".5" d="M259.1 116.4l-.2 12-44-.8.2-12z"/><path fill="#0a0000" fill-opacity=".6" d="M23.6 50.7L40 59.2l13.4-29.8-33.1 9.4z"/><path fill="#001018" fill-opacity=".2" d="M59.8 88.5l34.8 68.9-30.1-46 22.4-66.6z"/><ellipse cx="127" cy="1" fill="#e0ceb1" fill-opacity=".9" rx="40" ry="31"/><path fill="#5c655c" fill-opacity=".6" d="M45 81.5L1.1 141.1l31.4-59.5 10.9-31.3z"/><path fill="#121009" fill-opacity=".2" d="M190 185h25l2-87z"/><path fill="#97a6b5" fill-opacity=".5" d="M19 109h38v21H19z"/><ellipse cx="194" cy="81" fill="#e1d5bf" fill-opacity=".9" rx="4" ry="49"/><path fill="#ddcaad" fill-opacity=".7" d="M112.3 177.7l40.3-10.8L76.2 185l58.6-68.1z"/><path fill="#dfcdb0" fill-opacity=".7" d="M-9.3 18l17-29.5L17.3-6 .3 23.5z"/><path fill-opacity=".3" d="M87.1 185l-65.6-32.9-12.8-25.5 42 5z"/><path fill="#818086" fill-opacity=".5" d="M97.7 136.7l12.9-51.4-13-10-22.1 54.8z"/><path fill="#2b2d2d" d="M155.2 40.1l-14.9 23.5 36.4-22.1 12.9 22.8z"/><path fill="#020000" fill-opacity=".8" d="M112.6 65.8L89.8 69l-2.4-16.8 22.8-3.2z"/></g></svg>