<svg xmlns="http://www.w3.org/2000/svg" viewBox="0 0 300 199"><defs/><path fill="#4c3658" d="M0 0h300v199H0z"/><g transform="translate(.6 .6) scale(1.17188)"><circle r="1" fill="#a5a5d4" fill-opacity=".5" transform="rotate(35 86.9 275.4) scale(62.78275 194.70574)"/><ellipse cx="156" cy="130" fill="#203785" fill-opacity=".8" rx="58" ry="51"/><circle r="1" fill="#abc5ff" fill-opacity=".6" transform="rotate(143.6 21.4 96.8) scale(22.37658 77.53)"/><circle r="1" fill="#030720" fill-opacity=".6" transform="matrix(35.85408 -8.55426 23.36985 97.95169 10.8 106.1)"/><circle r="1" fill="#aeace3" fill-opacity=".4" transform="matrix(35.67228 -31.22872 28.47196 32.52326 255 107.8)"/><circle r="1" fill="#93796f" fill-opacity=".7" transform="matrix(21.52545 -27.84815 62.24783 48.11495 95.6 43)"/><ellipse cx="156" cy="55" fill="#ffdcff" fill-opacity=".4" rx="15" ry="41"/><ellipse cx="105" cy="69" fill="#5f2300" fill-opacity=".5" rx="41" ry="13"/><ellipse cx="216" cy="15" fill="#b39ef7" fill-opacity=".4" rx="44" ry="35"/><circle r="1" fill="#f7d6a8" fill-opacity=".4" transform="matrix(-2.04117 -15.14329 37.97867 -5.11916 97.9 49.6)"/><path fill-opacity=".6" d="M171 149h59v21h-59z"/><circle r="1" fill="#0655db" fill-opacity=".5" transform="matrix(-18.01668 7.8713 -13.581 -31.08568 110 124.2)"/><path fill="#2d2767" fill-opacity=".5" d="M180 5l-57-15L22 55z"/><path fill="#818de8" fill-opacity=".5" d="M181 118h75v20h-75z"/><ellipse cx="137" cy="98" fill="#0a0005" fill-opacity=".4" rx="7" ry="51"/><path fill="#000423" fill-opacity=".6" d="M239.5 63.7l-78.7 31.5 18.9 89.8 1.1-104.4z"/><path fill="#ffffe3" fill-opacity=".6" d="M82 82h45v6H82z"/><path fill="#fff" fill-opacity=".6" d="M251.6-.7l-46.7 18-2.5-6.6 46.7-18z"/><circle r="1" fill="#fff071" fill-opacity=".4" transform="matrix(12.77586 -19.85586 8.75994 5.63641 254 65)"/><ellipse cx="29" cy="123" fill="#3e77bd" fill-opacity=".3" rx="23" ry="32"/><path fill="#3d0e04" fill-opacity=".5" d="M0 63h77v33H0z"/><path fill="#01064d" fill-opacity=".5" d="M233 93h23v22h-23z"/><path fill="#d9cafa" fill-opacity=".5" d="M59 104h18v66H59z"/><ellipse cx="186" cy="95" fill="#d8c2fe" fill-opacity=".6" rx="6" ry="8"/><path fill="#0337ba" fill-opacity=".7" d="M98.1 154l1.7 16-20 2-1.6-16z"/><path fill="#927792" fill-opacity=".6" d="M57.7 52.9l-17 17.6L56 83.1l1.8-3.8z"/><path fill="#bd5335" fill-opacity=".4" d="M271 36l-59 68-2-28z"/><path fill="#bea4cc" fill-opacity=".7" d="M169.6 14.4l-27.3 54.8 4.3 41.6 23.7-51.5z"/><path fill="#0e003b" fill-opacity=".3" d="M271 15.4V3.5l-42.8 19-57.3 41.2z"/><ellipse cx="95" cy="112" fill="#5c79e6" fill-opacity=".6" rx="24" ry="10"/><path fill="#6f889b" fill-opacity=".5" d="M39-14l73.7-14.3L121 14 47.3 28.3z"/><circle r="1" fill="#c490a7" fill-opacity=".7" transform="matrix(-19.23646 9.17726 -2.50702 -5.25496 220.6 45.2)"/><path fill="#f5f6ff" fill-opacity=".5" d="M123.8 187.8l-7 3.8-30.6-57.4 7-3.8z"/><path fill="#684f80" d="M173.2 60.9l.8 14.4 48.2-12.5-47.1-17.2z"/><circle r="1" fill="#00115b" fill-opacity=".5" transform="matrix(4.54525 27.21581 -13.13145 2.19305 133.5 113)"/><path fill="#fff9b6" fill-opacity=".6" d="M76 44h41v10H76z"/><path fill="#070000" fill-opacity=".5" d="M22 56l-38-6L1 178z"/><path fill="#001143" fill-opacity=".5" d="M162 80h18v79h-18z"/><path fill="#f5edda" fill-opacity=".3" d="M180.1 120.8l9.9 5.9-1.7 34.7-3.1-9.4z"/><circle r="1" fill="#424e91" fill-opacity=".6" transform="matrix(6.36063 -7.14395 31.39063 27.9487 241.9 153.9)"/><circle r="1" fill="#3f1f02" fill-opacity=".5" transform="matrix(1.06046 7.55503 -20.373 2.85964 119 75.7)"/><path fill="#0b152b" fill-opacity=".6" d="M198.6 115.6L176.4 93l-14.1 12.7 28.3 19.2z"/><circle cx="38" cy="153" r="22" fill="#000147" fill-opacity=".4"/><path fill="#61529a" fill-opacity=".9" d="M200.1 14.1L219.9 40 138.7-9.5l24.6 26.8z"/><path fill="#357aa0" fill-opacity=".4" d="M12 103h13v51H12z"/><path fill="#a35233" fill-opacity=".4" d="M92.2 58.4L143 45.7l2.7 26.3-41.7-1.6z"/><path fill="#281747" fill-opacity=".4" d="M62.8 22.3l28.3 25.6 4.1-17L-9.3 74.1z"/><path fill="#685fe9" fill-opacity=".4" d="M122 165h55v5h-55z"/><path fill="#ffffe0" fill-opacity=".5" d="M90 88l30-1-40-11z"/><path fill="#ffffa2" fill-opacity=".6" d="M117 89.3l-.4-.9L149 72.7l.4.9z"/><path fill="#074ebd" fill-opacity=".6" d="M81 108l41 20 15 57z"/><path fill="#d997e0" fill-opacity=".3" d="M54.2 134.6L40.1 90.9l4.4 2.3 45.7 9.9z"/><path fill="#f0d8ec" fill-opacity=".4" d="M225 119h16v13h-16z"/><path fill="#e5c5e8" fill-opacity=".6" d="M147.5 74h39v4h-39z"/><path fill="#0c3582" fill-opacity=".5" d="M152.2 149.9l31.3-15.3-10.3-13.6-15-42.5z"/><path fill="#491e1e" fill-opacity=".5" d="M227 86l-7-34 28-11z"/><path fill="#f6ffff" fill-opacity=".6" d="M228-14l18 19-8 5z"/><circle r="1" fill="#0e1766" fill-opacity=".5" transform="matrix(23.83669 12.6742 -4.3041 8.09484 138 144.3)"/><ellipse cx="96" cy="93" fill="#73372d" fill-opacity=".4" rx="16" ry="5"/><path fill="#ed938c" fill-opacity=".5" d="M211 77h7v26h-7z"/><path fill="#ffc7a3" fill-opacity=".4" d="M70.4 56.5l48 7.5-11.1 1.8-14.2.9z"/><path fill="#2f1822" fill-opacity=".5" d="M22 52h21v67H22z"/><path fill="#5e3e20" fill-opacity=".5" d="M72 53h21v5H72z"/><path fill="#002" fill-opacity=".5" d="M175 183l54-15-12-32z"/><ellipse cx="14" cy="169" fill="#01000f" fill-opacity=".6" rx="42" ry="14"/></g></svg>