<svg xmlns="http://www.w3.org/2000/svg" viewBox="0 0 300 199"><defs/><path fill="#60463b" d="M0 0h300v199H0z"/><g transform="translate(.6 .6) scale(1.17188)"><circle cx="111" cy="169" r="125" fill="#bdb9aa" fill-opacity=".6"/><circle r="1" fill="#ffeff1" fill-opacity=".5" transform="matrix(-23.49024 7.3164 -14.70537 -47.2135 188.8 140.7)"/><ellipse cx="148" cy="124" fill="#4c4832" fill-opacity=".8" rx="16" ry="169"/><ellipse cx="226" cy="23" fill="#042117" fill-opacity=".5" rx="67" ry="34"/><circle r="1" fill="#b7977b" fill-opacity=".6" transform="matrix(16.8979 11.30057 -29.71266 44.42979 219 112.3)"/><circle r="1" fill="#6d8f80" fill-opacity=".5" transform="matrix(-63.42526 82.65741 -17.53137 -13.4523 62.7 31.5)"/><path fill="#222040" fill-opacity=".3" d="M31 179.8l-46.3-16L-1 122.2l46.3 16z"/><ellipse cx="208" cy="168" fill="#fffffe" fill-opacity=".4" rx="42" ry="14"/><circle r="1" fill="#b4b6aa" fill-opacity=".5" transform="matrix(-46.01595 30.80912 -10.46671 -15.6329 63.8 102.5)"/><circle r="1" fill="#425f50" fill-opacity=".5" transform="matrix(-1.40357 -44.77682 101.24065 -3.17347 101.8 18.6)"/><circle cx="177" cy="75" r="20" fill="#956f57" fill-opacity=".8"/><circle r="1" fill="#decfca" fill-opacity=".8" transform="matrix(4.84697 20.99454 -17.8843 4.12892 179.2 115.5)"/><circle cx="219" r="5" fill="#fff" fill-opacity=".5"/><circle cx="141" cy="77" r="32" fill="#7b6035" fill-opacity=".4"/><path fill="#e7e8c7" fill-opacity=".4" d="M50.1 28.8l.8 18.4 9.6-32.8-23.6 9.3z"/><path fill="#d7c6cf" fill-opacity=".4" d="M81.3 142.4l25 1.3-1.6 30-25-1.4z"/><path fill="#fac6b8" fill-opacity=".5" d="M176 62h16v16h-16z"/><ellipse cx="209" cy="69" fill="#594029" fill-opacity=".9" rx="10" ry="28"/><path fill="#132016" fill-opacity=".5" d="M23.2 28l11 19-43.4 25-11-19z"/><path fill="#2b2819" fill-opacity=".5" d="M130 122l44 38-22 10z"/><path fill="#f4d5cd" fill-opacity=".5" d="M187.2 86.3l11.8-2.4 4.8 11.3-19.1 59.3z"/><path fill="#1a3609" fill-opacity=".5" d="M91.3 65.5l-.6 31h-4l.6-31z"/><circle r="1" fill="#917c5b" fill-opacity=".5" transform="matrix(-15.4867 10.79375 -37.32726 -53.55656 254.6 119.3)"/><path fill="#bbb3ad" fill-opacity=".5" d="M16 71h16v39H16z"/><path fill="#d1f2fd" fill-opacity=".2" d="M110.1 80.6l.2-28.5-45.6-1.3 3.1 27.5z"/><circle r="1" fill="#9f7566" fill-opacity=".4" transform="matrix(-23.34625 35.22825 -5.50307 -3.64696 205.5 124.1)"/><circle r="1" fill="#f7faf9" fill-opacity=".8" transform="rotate(26.8 -5 291.2) scale(3.41911 2.1574)"/><circle r="1" fill="#121713" fill-opacity=".5" transform="matrix(16.12957 -7.08602 30.77034 70.041 255 38.6)"/><path fill="#ecc4a6" fill-opacity=".4" d="M237.8 112.3l-30.5 2.2 16.8 70.5-.2-52.4z"/><path fill="#a0a1a1" fill-opacity=".5" d="M107-2L84 6l6 22z"/><path fill="#ab8068" fill-opacity=".5" d="M176 88h6v46h-6z"/><circle r="1" fill="#673525" fill-opacity=".5" transform="matrix(-27.69988 -12.02487 .9972 -2.29712 233 112.4)"/><circle r="1" fill="#01241d" fill-opacity=".6" transform="rotate(-77.6 10.3 8.3) scale(59.7856 5.21864)"/><ellipse cx="32" cy="71" fill="#747c6f" fill-opacity=".7" rx="11" ry="19"/><path fill="#191c0e" fill-opacity=".5" d="M139 112h9v48h-9z"/><path fill="#8f7460" fill-opacity=".5" d="M111 67h25v103h-25z"/><path fill="#065222" fill-opacity=".4" d="M130.8 16.2L86 56.1l22.2-11.4-4.4-60.7z"/><path fill="#645957" fill-opacity=".7" d="M-16 171.8l32.2-11.6-25.5-56.7 29.5 6.4z"/><ellipse cx="234" cy="143" fill="#200300" fill-opacity=".5" rx="3" ry="14"/><path fill="#333125" fill-opacity=".4" d="M115 53l68-3 15-64z"/><path fill="#f6f7ff" fill-opacity=".4" d="M164 103h14v48h-14z"/><ellipse cx="72" cy="102" fill="#646848" fill-opacity=".7" rx="2" ry="19"/><path fill="#c1cdcd" fill-opacity=".4" d="M173.8-12.1l1.4 28-5 .2-1.4-28z"/><path fill="#fff" fill-opacity=".5" d="M35 59h7v4h-7z"/><path fill="#3b4d30" fill-opacity=".6" d="M44 61l-8 41-3-33z"/><path fill="#685849" fill-opacity=".4" d="M146.4-16l26.8 86.2 22.4 37.6L142 70.2z"/><path fill="#e8d9c7" fill-opacity=".4" d="M74.2 86.8l-20.6 18.1-5.5 18.2 20.6-11.5z"/><circle r="1" fill="#817d83" fill-opacity=".8" transform="rotate(-26.2 382.1 5.7) scale(25.33876 15.44312)"/><path fill="#f6feff" fill-opacity=".7" d="M187.3 166L173 181.6l-10.3-9.6 14.3-15.4z"/><path fill="#26441a" fill-opacity=".4" d="M91.4 80.5l4-41.4-.6-11.1L86 76z"/><path fill="#fff" fill-opacity=".6" d="M220 7l7-23-12 8z"/><path fill="#abaaa2" fill-opacity=".6" d="M112.5 55.4l2.2 27.8 4.2-39.3-29.1 26.7z"/><ellipse cx="49" cy="46" fill="#3b372d" fill-opacity=".4" rx="63" ry="6"/><path fill="#a9c0bc" fill-opacity=".5" d="M137 19.6l-4.7 1.8-5.2-13 4.6-1.8z"/><path fill="#c7c6be" fill-opacity=".4" d="M37 92l12-19-1 55z"/><circle r="1" fill="#bec7bf" fill-opacity=".5" transform="rotate(-16.1 183 -664.8) scale(1.91679 7.93713)"/><ellipse cx="94" cy="110" fill="#fcbd91" fill-opacity=".1" rx="21" ry="34"/><path fill="#6d605c" fill-opacity=".6" d="M170.5 155.8l-18-14.1-.8 43.3-48.8-18.4z"/><path fill="#b9b09c" fill-opacity=".5" d="M23.1 94l-3.4 3.7L3 82l3.4-3.7z"/><path fill="#e0ab9a" fill-opacity=".6" d="M224 91l-18 6 23 6z"/><path fill="#919ead" fill-opacity=".3" d="M14.8 119.4l18.5-69 2.2 56.4 55.9 72.4z"/><path fill="#ba8654" fill-opacity=".4" d="M230.4 168.5l31 16.5-11-19.8-30.2-21.9z"/><path fill="#fff" fill-opacity=".5" d="M221 76h4v3h-4z"/><path fill="#1b3610" fill-opacity=".5" d="M70 24l4-26-12 17z"/><circle r="1" fill="#695e62" fill-opacity=".5" transform="matrix(18.45694 2.27816 -1.29253 10.47168 29.5 140)"/></g></svg>