<svg xmlns="http://www.w3.org/2000/svg" viewBox="0 0 300 199"><defs/><path fill="#624332" d="M0 0h300v199H0z"/><g transform="translate(.6 .6) scale(1.17188)"><circle r="1" fill="#aac2d2" fill-opacity=".6" transform="matrix(54.62625 -8.07304 5.68076 38.43892 149.7 146.5)"/><path fill="#f6ffff" fill-opacity=".6" d="M67 29l113-7-23 51z"/><circle cx="55" cy="154" r="44" fill="#000715" fill-opacity=".8"/><circle r="1" fill="#f0e5dc" fill-opacity=".8" transform="matrix(9.52979 18.1615 -86.3441 45.30688 1.8 0)"/><circle r="1" fill="#000006" fill-opacity=".6" transform="matrix(7.24282 32.30007 -22.85502 5.1249 124.4 88.5)"/><circle r="1" fill="#cfc3b4" fill-opacity=".5" transform="matrix(11.35366 -56.17909 21.64654 4.37471 0 122)"/><circle r="1" fill="#b7e8dc" fill-opacity=".5" transform="matrix(24.34908 -20.50383 123.7672 146.97827 255.2 2.4)"/><path fill="#c1f0fe" fill-opacity=".5" d="M87 0h15v127H87z"/><circle r="1" fill="#b9d5fa" fill-opacity=".5" transform="matrix(29.70074 -34.91951 6.1122 5.19872 64.5 31)"/><circle r="1" fill="#b99f81" fill-opacity=".6" transform="matrix(23.56917 -6.40606 26.09087 95.99343 156 31.4)"/><circle r="1" fill="#131208" fill-opacity=".6" transform="matrix(-7.11424 -46.4918 29.72793 -4.54901 216 69.9)"/><circle r="1" fill="#cadfee" fill-opacity=".5" transform="matrix(-9.45948 10.19135 -21.16192 -19.64221 116.6 135.4)"/><path fill="#011625" fill-opacity=".5" d="M67 28h21v106H67z"/><path fill="#cdb79c" fill-opacity=".6" d="M55.3 111.9l1.6 3.3L3 111.9l13.3-34.4z"/><circle r="1" fill="#c29375" fill-opacity=".8" transform="matrix(6.81911 -6.38121 16.77662 17.92789 33.5 6.1)"/><path fill="#273d55" fill-opacity=".5" d="M198 124l-56 9-2 39z"/><path fill="#f1ffff" fill-opacity=".4" d="M91 42L80 89l24 23z"/><circle r="1" fill="#00050c" fill-opacity=".5" transform="matrix(15.96913 26.67451 -12.71474 7.61188 116 78.4)"/><circle r="1" fill="#e5eefa" fill-opacity=".5" transform="matrix(37.08142 -37.52667 5.62477 5.55804 171.2 160.3)"/><path fill="#fbffff" fill-opacity=".5" d="M92 28h54v21H92z"/><circle r="1" fill="#000306" fill-opacity=".6" transform="rotate(62.1 -14.8 41.2) scale(20.41967 12.0198)"/><path fill="#00252e" fill-opacity=".3" d="M180.6 154.9l-12.7 13.3L271 180v-63.9z"/><circle r="1" fill="#121629" fill-opacity=".7" transform="matrix(-6.2701 25.1597 -19.16994 -4.77738 27.3 144.4)"/><path fill="#0d0e15" fill-opacity=".7" d="M92 101l-1 84-40-90z"/><path fill="#d5ebff" fill-opacity=".6" d="M114 116l42 69-39-17z"/><ellipse cx="4" cy="169" fill="#b5d7ff" fill-opacity=".6" rx="7" ry="23"/><path fill="#154f90" fill-opacity=".8" d="M148.8 144.7l-19.7-10.1 2.5 5.8 20.5 44.6z"/><path fill="#90a2a8" fill-opacity=".5" d="M221.4 119.2l-16.6 2.7-1.9 34.3 22.2-34.2z"/><path fill="#7c4e39" fill-opacity=".5" d="M127.1 29.5l58-2.9-79.6-34.7L85 23.5z"/><path fill="#afcad8" fill-opacity=".3" d="M134.6 72.4l28 32.1-12.9-68.6-29-5.1z"/><path fill="#e0ffff" fill-opacity=".5" d="M157 140h7v30h-7z"/><path fill="#ffe7c2" fill-opacity=".4" d="M138.2 121.8l-44.8 6.7 55.9 7.4 31.9-34.7z"/><path fill="#fff" fill-opacity=".3" d="M11-6.3L2 58.1l-13-1.8 9-64.4z"/><path fill="#626b65" fill-opacity=".6" d="M98 136h17v34H98z"/><path fill="#919ea2" fill-opacity=".4" d="M67 83L41 60l32 51z"/><circle cx="129" cy="97" r="26" fill="#131012" fill-opacity=".4"/><path fill="#83acab" fill-opacity=".5" d="M249.6-16l.8 76.1-3.8 23.3 24.4 33.9z"/><path fill="#6e3701" fill-opacity=".3" d="M209.1 116.1l-21.5 19.6-35.6 2.6-33.7-1.1z"/><path fill="#d3beb9" fill-opacity=".7" d="M164.7 23.2l-7.3-14.7 19.4-17.8-8.9 21.2z"/><path fill="#2b1e1d" fill-opacity=".7" d="M43.3 92l22.2 14.4-22.7-40.6-28.1 4.6z"/><path fill="#020103" fill-opacity=".4" d="M99.3 17L62.9 43.8l.3 30.9 4 10.6z"/><path fill="#d2d7db" fill-opacity=".6" d="M135.8 120l-39.7 17.6-3.6-17.6 47.9 19z"/><circle r="1" fill="#bdcfe7" fill-opacity=".5" transform="matrix(22.37152 -22.76581 2.82962 2.78061 57.3 40.1)"/><path fill="#84633d" fill-opacity=".4" d="M153 55l53 7-15 62z"/><path fill="#41685a" fill-opacity=".6" d="M96 90.4l-18.6 7.2-5.4-14 18.6-7.2z"/><path fill="#f4fbf9" fill-opacity=".5" d="M163-16L118-1l18 6z"/><path fill="#f3dcc9" fill-opacity=".5" d="M-15.2 124.4l30.2-36 6.2 5.2-30.2 36z"/><path fill="#111314" fill-opacity=".8" d="M107.1 122.4l-9.7-71.8 54 42.3-22.4 7.3z"/><path fill="#211b15" fill-opacity=".8" d="M264.8 96.9l-43.6-5.3-22.1 29.1 8.5 1.1z"/><ellipse cx="7" cy="69" fill="#6c5b4b" fill-opacity=".6" rx="8" ry="26"/><path fill="#d0a57c" fill-opacity=".5" d="M160 102l5-21 36 60z"/><path fill="#bd9060" fill-opacity=".5" d="M7.1 140.7l-23.1-1.3 47.3-64.2-12.2 54.1z"/><path fill="#a7a19c" fill-opacity=".3" d="M112.4-16L92.3 32.9l-5.4 31.6L72.2-16z"/><path fill="#1a2a56" fill-opacity=".5" d="M37.3 148.2L4.7 163.9l5.2-12.1-7.6-11z"/><circle r="1" fill="#faf3f1" fill-opacity=".5" transform="rotate(-98.7 102.1 14.4) scale(40.51497 1)"/><path fill="#feffff" fill-opacity=".5" d="M112 51l-8-26-16 20z"/><path fill="#757353" fill-opacity=".7" d="M200.6 22.5l13.1-28.4 31.5 42.8-42.6-25.3z"/><path fill="#edf8fa" fill-opacity=".6" d="M-2.9 26.7L-1.3 53l3.2-69L20.6 7.1z"/><path fill="#445967" fill-opacity=".6" d="M140.1 60.8l24.5 52.2-22.7-28.5-17.3-30z"/><path fill="#f2fcfc" fill-opacity=".5" d="M88.1 58.5l1-19.4 8.7 38-14-4.3z"/><path fill="#735d48" fill-opacity=".9" d="M189.8 35l-5.5 39.3-8.6-57.3 15.5-6.8z"/><path fill="#dec8b5" fill-opacity=".5" d="M31 2h10v19H31z"/><path fill="#e0e5ec" fill-opacity=".6" d="M156.3 178.7l-10.5-4.5 47.8-44.1 10-3.9z"/><path fill="#c2d4d6" fill-opacity=".5" d="M29 105h21v8H29z"/><path fill="#cdd3bf" fill-opacity=".5" d="M150 137h3v29h-3z"/></g></svg>