<svg xmlns="http://www.w3.org/2000/svg" viewBox="0 0 299 449"><defs/><path fill="#3c474f" d="M0 0h299v449H0z"/><g transform="translate(.9 .9) scale(1.7539)"><circle r="1" fill="#0f0200" fill-opacity=".8" transform="matrix(-43.1194 9.5461 -36.74615 -165.98109 141.6 54.2)"/><circle r="1" fill="#ecf3f7" fill-opacity=".6" transform="matrix(-1.5285 11.45564 -34.21844 -4.56571 132.2 229.9)"/><circle cx="28" cy="248" r="75" fill="#320e00" fill-opacity=".7"/><circle r="1" fill="#757f7c" fill-opacity=".6" transform="matrix(-29.4216 25.03975 -45.47003 -53.4271 4.4 25.6)"/><circle r="1" fill="#0c0000" fill-opacity=".7" transform="rotate(-54.1 41.7 -64.5) scale(17.15185 52.97195)"/><path fill="#96a49c" fill-opacity=".6" d="M93.6 170.2L90.7 185 2.4 167.8 5.3 153z"/><ellipse cx="142" cy="193" fill="#4d2913" fill-opacity=".6" rx="75" ry="29"/><circle r="1" fill="#190f00" fill-opacity=".4" transform="rotate(15.5 -464.4 232.2) scale(113.01631 26.02862)"/><path fill="#b6c8c5" fill-opacity=".8" d="M126.4 160.3l-83.1-17.2 5.2 5.1-3.7-9z"/><path fill="#fff3c9" fill-opacity=".6" d="M17 243h12v13H17z"/><path fill="#dfd39e" fill-opacity=".5" d="M35.8 194.4l-2.2 22.9-11.3-4.1 7.4-25.7z"/><path fill="#fbfff7" fill-opacity=".4" d="M120.9 211.2l47.1 34.3-5.6-31.2-44.5 35.7z"/><path fill-opacity=".6" d="M120 256.6l-19.7 3.4-4.3-24.6 19.7-3.4z"/><path fill="#2a180d" fill-opacity=".8" d="M11.4 271l7.1-98.5L58 93.3l-74 117.1z"/><circle r="1" fill="#d3d9cb" fill-opacity=".4" transform="matrix(-69.70272 -19.48415 .63118 -2.25799 10.1 92.1)"/><circle r="1" fill="#dae8e6" fill-opacity=".6" transform="rotate(-158 32.7 23.2) scale(63.83278 1)"/><path fill="#a1ccd2" fill-opacity=".4" d="M81.6 177.3l1.5-8.9 47.3 8.3-1.5 8.9z"/><path fill="#fff" fill-opacity=".5" d="M-15 125.2l.2-1 47.9 14.6-.3 1z"/><path fill="#f3fffc" fill-opacity=".4" d="M17 112.6l-33-10.7 126 33.9 9.4 6.2z"/><ellipse cx="86" cy="196" fill="#200e00" fill-opacity=".4" rx="36" ry="23"/><path fill="#d8e2e0" fill-opacity=".7" d="M114.5 110.5l-.3 1-214.7-74 .3-1z"/><path fill="#edfcfa" fill-opacity=".5" d="M109.9 86L92.8 58.2l19.5 31.6L-7.3 41.9z"/><path fill-opacity=".3" d="M100.7 96.9l20.3 27.6-77.9-24.4 22.3-17.2z"/><path fill="#50534f" fill-opacity=".7" d="M97.2 38.9L101 40l7.9 37.8-98-54z"/><path fill="#948f69" fill-opacity=".6" d="M56.7 218l-.4-22h9l.4 22z"/><path fill="#3f2900" fill-opacity=".5" d="M133.6 232.3l9.9 2.5 42.5 13.3-46.8 1z"/><circle r="1" fill="#d7e2e0" fill-opacity=".5" transform="rotate(20.4 -187.4 190.4) scale(65.30728 1)"/><path fill="#171f21" fill-opacity=".6" d="M48.7 86.8L-3.6 66.7l2.9-7.5 52.3 20.1z"/><path fill="#ffffc6" fill-opacity=".6" d="M-16 231l21-45-21 5z"/><path fill="#feffff" fill-opacity=".5" d="M82.5 78.9l-.4 1L-4.5 43l.4-1z"/><ellipse cy="160" fill="#cfe1dd" fill-opacity=".5" rx="16" ry="9"/><path fill="#ffffc5" fill-opacity=".5" d="M118 229l20 14-23-4z"/><circle r="1" fill="#000407" fill-opacity=".5" transform="matrix(-46.24367 -17.84395 .59189 -1.5339 36.4 65.8)"/><circle r="1" fill="#070200" fill-opacity=".7" transform="matrix(-15.87562 30.36726 -92.19506 -48.19841 150.4 33.7)"/><path fill="#ecfffc" fill-opacity=".4" d="M111.6 159.6l-71.1-20.1 54.3 12.3 39.8 9.4z"/><path fill="#fff" fill-opacity=".4" d="M-20.8 7.6l.4-1 125.2 55.8-.4 1z"/><path fill="#5c89d0" fill-opacity=".5" d="M98 220h31v13H98z"/><path fill="#160c0a" fill-opacity=".8" d="M60.6 24.3l-86.6-46 1.4-2.6 86.6 46z"/><path fill="#fff" fill-opacity=".5" d="M84 113l34.3 11-.3 1-34.3-11z"/><path fill="#fdfffc" fill-opacity=".4" d="M-61.2-28.7L91.6 45.8l-.4 1-152.8-74.6z"/><path fill-opacity=".5" d="M132 151.1l-1.4 5.8L-14 121l1.4-5.8z"/><ellipse cx="163" cy="188" fill="#45271a" fill-opacity=".8" rx="22" ry="32"/><circle r="1" fill="#060801" fill-opacity=".4" transform="matrix(1.6085 -5.6095 48.78508 13.9889 91.5 124.7)"/><path fill="#cbc29d" fill-opacity=".5" d="M49.8 271l5-23.3 26.6 19-64.8 4.3z"/><path fill="#bdc8ca" fill-opacity=".6" d="M39.5 41.9L-6.1 25.3l2.7-2 36.6 14.6z"/><path fill="#fff" fill-opacity=".5" d="M45 29.1l-.5 1L-3 8.8l.5-1z"/><path fill="#140e0a" fill-opacity=".7" d="M74.1 164.8l-83.2-15.3-5.4-10.2 100.2 21.4z"/><path fill="#fffff7" fill-opacity=".5" d="M17-13L48 9 30 3z"/><path fill="#eff7f8" fill-opacity=".5" d="M-4 84.8l70.2 23.8-82.2-24V26.8z"/><circle r="1" fill="#1a2223" fill-opacity=".4" transform="matrix(107.15978 48.76992 -.89173 1.95935 22.3 22.6)"/><circle cx="103" cy="199" r="3" fill="#eff7e7" fill-opacity=".6"/><path fill="#131a17" fill-opacity=".5" d="M76.4 79.6L76 98.8 53.3 59.6 27.7 50z"/><path fill="#fffffd" fill-opacity=".3" d="M164.8 227.8l21.2 10.1-44.8-3.5 26.3-19.8z"/><path fill="#f0f9f8" fill-opacity=".6" d="M84.3 170l.4-2 47 10-.4 2z"/><path fill="#c7f4fc" fill-opacity=".3" d="M73.2 167.3l17.1.5-.4 15-8.4-.8z"/><path fill="#fbffff" fill-opacity=".4" d="M33.8 157.7l6.6 2.3-4.2 12.3-6.6-2.3z"/><path fill="#25170b" fill-opacity=".7" d="M15.3 208.1l23.2-81.5-14.6 71.2 17.6 3.5z"/><path fill="#fffffe" fill-opacity=".5" d="M96.3 42l-.4.9L-.3-4l.4-.9z"/><path fill="#22140a" fill-opacity=".6" d="M64 167h7v30h-7z"/><path fill="#ffffe5" fill-opacity=".5" d="M36 190.6v5l-10-.2v-5z"/><circle r="1" fill="#d7e6e7" fill-opacity=".5" transform="rotate(109 -21 29.3) scale(1 72.24215)"/><circle r="1" fill="#230a00" fill-opacity=".5" transform="matrix(6.68337 10.41042 -37.10574 23.82146 63.6 233.3)"/><path fill="#fc711c" fill-opacity=".3" d="M31.4 2.8l55.3 25.1.9 5.1-97.9-49z"/><path fill="#7d5c48" fill-opacity=".7" d="M131.7 222.1l-5.7-4.4 18.6-6.6 17 13.4z"/><path fill="none" stroke="#f9fcf2" stroke-opacity=".5" stroke-width=".5" d="M103.8 56Q75.3 44 65.3 38.3"/></g></svg>