<svg xmlns="http://www.w3.org/2000/svg" viewBox="0 0 300 199"><defs/><path fill="#4c3629" d="M0 0h300v199H0z"/><g transform="translate(.6 .6) scale(1.17188)"><circle r="1" fill="#e0eef4" fill-opacity=".7" transform="rotate(-86 160.3 -18.8) scale(83.024 48.1371)"/><circle r="1" fill="#b2adb9" fill-opacity=".6" transform="matrix(41.93235 -8.03903 4.11209 21.44904 130.7 58.3)"/><circle r="1" fill="#0d0d0a" fill-opacity=".7" transform="rotate(81.1 34.8 58.7) scale(29.49539 254.99999)"/><circle r="1" fill="#090902" fill-opacity=".6" transform="matrix(-72.70674 -29.6567 18.82152 -46.14307 16.5 135.2)"/><circle r="1" fill="#a2a597" fill-opacity=".6" transform="rotate(5.4 -741.2 649.3) scale(33.9528 14.77799)"/><circle r="1" fill="#fffff5" fill-opacity=".4" transform="matrix(21.38594 7.59726 -18.51691 52.12425 133.1 156.3)"/><circle r="1" fill="#7b888b" fill-opacity=".6" transform="matrix(-10.06295 36.53332 -28.8411 -7.94416 212 143.8)"/><path fill="#56403e" fill-opacity=".7" d="M126 32l29-9-30 100z"/><ellipse cx="255" cy="58" fill="#100a04" fill-opacity=".6" rx="44" ry="67"/><path fill="#f0faff" fill-opacity=".4" d="M86 67l38-4 1-39z"/><path fill="#382419" fill-opacity=".6" d="M173 28h54v44h-54z"/><ellipse cx="108" cy="102" fill="#0d101b" fill-opacity=".7" rx="26" ry="22"/><circle r="1" fill="#0e0806" fill-opacity=".8" transform="matrix(15.91683 13.98328 -40.44785 46.04082 30.7 34.5)"/><path fill="#1d1009" fill-opacity=".5" d="M119 25L70 85 32 18z"/><circle r="1" fill="#a3b196" fill-opacity=".4" transform="matrix(-2.401 -24.1866 12.27904 -1.21894 102.7 0)"/><path fill="#fcf6e2" fill-opacity=".6" d="M59 85l-3-18-20 18z"/><path fill="#d3c7c1" fill-opacity=".6" d="M129 49h44v13h-44z"/><circle r="1" fill="#af7837" fill-opacity=".6" transform="matrix(4.27944 24.45748 -12.74843 2.23065 114 157.3)"/><ellipse cx="215" cy="169" fill="#2a1500" fill-opacity=".3" rx="50" ry="15"/><path fill="#e9d2c6" fill-opacity=".5" d="M92 60l-7 30-20 5z"/><path fill="#1c0f06" fill-opacity=".5" d="M96 112l-29-2 44-57z"/><circle r="1" fill="#647b7f" fill-opacity=".4" transform="matrix(8.61453 -4.88994 19.7675 34.82414 209.4 100.6)"/><path fill="#e3eaf8" fill-opacity=".5" d="M135 79h19v90h-19z"/><path fill="#613729" fill-opacity=".5" d="M160 93l-4 31 21-50z"/><circle r="1" fill="#b3bbbe" fill-opacity=".4" transform="matrix(6.4473 -17.948 36.7962 13.21798 189.5 131.2)"/><path fill="#37281f" fill-opacity=".9" d="M70.7 115.4l8.7 46.5 58.1-105 6.6 18.3z"/><path fill="#b8c8f0" fill-opacity=".5" d="M106 43h18v39h-18z"/><path fill="#c9beae" fill-opacity=".5" d="M33 60h44v7H33z"/><path fill="#150800" fill-opacity=".6" d="M150.7 38.1l12-9 6.6 8.8-12 9z"/><path fill="#e4e7e4" fill-opacity=".6" d="M169.3 77.6L156 81.4l-7.2-25 13.4-3.8z"/><path fill="#5f4e2d" fill-opacity=".6" d="M56.8 83.3l-35.2 4.8 57.3 6.3-1.7-24.9z"/><path fill="#906045" fill-opacity=".4" d="M158 54l-10-31-49 13z"/><path fill="#130d09" fill-opacity=".9" d="M84.4 66.7L75.7 82l13.8-98L-16 11.7z"/><path fill="#000800" fill-opacity=".7" d="M39 62l7.6 2.1-1.5 5.8-7.7-2z"/><path fill="#001044" fill-opacity=".5" d="M99 69l22 65-2-42z"/><path fill="#35241a" fill-opacity=".7" d="M168.7 92.2l5.8-24.8L269 83.7l-92.5-40.1z"/><path fill="#0e0d09" fill-opacity=".4" d="M46.2 93.6l51.5-37.8L22 130.3 11.4 87.4z"/><path fill="#383729" fill-opacity=".9" d="M141.4 10.6l-29.8 3.6-3-24.8 29.8-3.6z"/><circle r="1" fill="#556f7c" fill-opacity=".4" transform="matrix(-11.08599 -10.411 17.30002 -18.42166 235.5 144.8)"/><circle r="1" fill="#312e27" fill-opacity=".5" transform="rotate(-108.3 44 60.9) scale(116.20245 16.71807)"/><path fill="#eaa753" fill-opacity=".5" d="M62 87l5 10 16-13z"/><path fill="#c0c9cd" fill-opacity=".5" d="M196.4 86.2l-9.2 25.4-21.6-7.8 9.2-25.4z"/><path fill="#c6e4ff" fill-opacity=".4" d="M83 71l19-10-25 26z"/><circle r="1" fill="#0d0500" fill-opacity=".5" transform="rotate(70.6 -83 107) scale(57.29912 17.4844)"/><path fill="#3a2c22" fill-opacity=".6" d="M67.2 67.7l41.4-51.2 18.5 10.3-10.9 12.4z"/><path fill="#92694a" fill-opacity=".5" d="M98 98h10v14H98z"/><path fill="#69644e" fill-opacity=".5" d="M38 95L12 75l30 1z"/><path fill="#eeebd6" fill-opacity=".3" d="M44.2 60.4l5.9-6.6.2 32.3 15.3-10.9z"/><circle r="1" fill="#030202" fill-opacity=".6" transform="rotate(5.2 -984.2 2800.8) scale(27.00163 11.60076)"/><circle r="1" fill="#8f9490" fill-opacity=".5" transform="matrix(-2.68287 7.6622 -22.18684 -7.7686 189.8 79)"/><path fill="#3b4345" fill-opacity=".5" d="M212 91l59 61-34-8z"/><ellipse cx="127" cy="78" fill="#301b20" fill-opacity=".7" rx="2" ry="36"/><circle r="1" fill="#000501" fill-opacity=".5" transform="matrix(1.55426 16.4424 -32.76613 3.09731 191.6 4.2)"/><path fill="#140707" fill-opacity=".4" d="M144 49l-10-8 6-31z"/><circle r="1" fill="#e0e4eb" fill-opacity=".6" transform="rotate(27.3 -223.9 367.1) scale(20.94204 17.16521)"/><path fill="#9a8685" fill-opacity=".8" d="M129.2 86.2l17.7-17.7 13.3-6.7-30.6 30z"/><path fill="#e4f1ee" fill-opacity=".5" d="M55 90L45 76l9 1z"/><path fill="#0e0908" fill-opacity=".8" d="M0 0h32v68H0z"/><path fill="#cca48d" fill-opacity=".5" d="M144 22l7 10-5 10z"/><path fill="#fff3c9" fill-opacity=".4" d="M21.2 70l5.8-3.8 3.8 5.8-5.8 3.8z"/><path fill="#e3bb78" fill-opacity=".5" d="M113.4 160.7l35.1 24.3-41-42.7 14.3 2.8z"/><path fill="#00041d" fill-opacity=".5" d="M128 87l-18 2 31-24z"/><circle r="1" fill="#cdbfb2" fill-opacity=".5" transform="matrix(9.66322 -11.31418 5.55263 4.7424 161.5 55.4)"/><path fill="#979b7c" fill-opacity=".5" d="M95.6 5l-.9-6 27.7-4 .9 6z"/><circle r="1" fill="#5d3e31" fill-opacity=".3" transform="rotate(-152.7 135.4 1.7) scale(82.72742 9.88508)"/></g></svg>