<svg xmlns="http://www.w3.org/2000/svg" viewBox="0 0 299 449"><defs/><path fill="#2f4055" d="M0 0h299v449H0z"/><g transform="translate(.9 .9) scale(1.7539)"><circle r="1" fill="#e9ddd3" fill-opacity=".6" transform="rotate(14.9 -502.6 627) scale(71.7778 170)"/><circle r="1" fill="#8f9e9e" fill-opacity=".6" transform="matrix(-20.72838 2.47171 -19.98686 -167.61482 50.1 113)"/><ellipse cx="102" cy="56" fill="#531300" fill-opacity=".5" rx="44" ry="64"/><ellipse cx="162" cy="111" fill="#d0eafb" fill-opacity=".7" rx="12" ry="254"/><path fill="#fabfa1" fill-opacity=".6" d="M116 60.6L126 91l-38 12.4L78 73z"/><path fill="#2d0d00" fill-opacity=".6" d="M46.9 236.8l-10.5-12.1L77 189.2l10.5 12.1z"/><ellipse cx="132" cy="237" fill="#d9d5d9" fill-opacity=".9" rx="38" ry="22"/><path fill="#f2e3cb" fill-opacity=".6" d="M73.1 158.7l-20.8-2.9 6.6-46.5 20.8 2.9z"/><path fill="#9cb4c7" d="M79.8-15.3L133.2-.7 51-1.4 57.2 35z"/><circle r="1" fill="#492713" fill-opacity=".6" transform="matrix(-8.18913 21.78682 -10.50882 -3.95 113.3 117.4)"/><circle r="1" fill="#ddebf0" fill-opacity=".8" transform="matrix(1.93058 21.94194 -10.84301 .95403 144.5 8.8)"/><path fill="#255238" fill-opacity=".4" d="M97 185l25-71-78 57z"/><path fill="#180900" fill-opacity=".5" d="M137.7 23.7l-5 39.7-74.4-9.1 5-39.7z"/><circle r="1" fill="#c4dffc" fill-opacity=".6" transform="matrix(-5.8533 -24.42756 18.34258 -4.39522 126 169.9)"/><circle r="1" fill="#3d2105" fill-opacity=".6" transform="matrix(2.00711 164.27626 -27.17507 .33202 1.5 153.4)"/><path fill="#aff2ff" fill-opacity=".5" d="M32 8L22 57l20 53z"/><path fill="#ffeee0" fill-opacity=".5" d="M37 215l26-17-19-20z"/><path fill="#feffff" fill-opacity=".4" d="M131 80h40v24h-40z"/><path fill="#d5edff" fill-opacity=".5" d="M69 229l-23 40-7-4 23-40z"/><path fill="#796a6d" fill-opacity=".8" d="M42.9 209.2l9.2-12.8-34 19.2 23.1 36.1z"/><ellipse cx="34" cy="95" fill="#b4d6fd" fill-opacity=".5" rx="5" ry="58"/><path fill="#002965" fill-opacity=".4" d="M46-17l10.8 77.3L38 62.9 27.2-14.3z"/><path fill="#89879b" fill-opacity=".6" d="M177.2 197.6l-84.5 32.2 71.8-46.8v-44.8z"/><path fill="#6b4c37" fill-opacity=".6" d="M126.3-16l-1.5 26.8L97.1 62l59.2 25.4z"/><path fill="#271c03" fill-opacity=".6" d="M54.1 189l-3.8-29.5 20.2 2.2-9.3 35.8z"/><circle r="1" fill="#87734b" fill-opacity=".6" transform="matrix(-11.30258 16.95984 -13.99737 -9.3283 41.4 142.3)"/><circle r="1" fill="#000a18" fill-opacity=".6" transform="matrix(7.8186 -.97408 8.69828 69.81843 17.6 70.4)"/><path fill="#ffead9" fill-opacity=".6" d="M98 75h28v12H98z"/><path fill="#7f5e4b" fill-opacity=".5" d="M97.2 64.2l7.2 45.4-39.6 6.2-7.2-45.4z"/><path fill="#a02611" fill-opacity=".3" d="M110.7 269L87 281.6 65.3 241 89 228.4z"/><circle r="1" fill="#e9d9df" fill-opacity=".6" transform="matrix(-4.95707 8.82095 -9.81159 -5.51377 69 0)"/><path fill="#a7d9ff" fill-opacity=".6" d="M39.6-7.3l2-.1 8.8 126.7-2 .1z"/><path fill="#fff5ee" fill-opacity=".5" d="M115.2 142l-31.1-31.2-2.9 3.5-15.6 4.1z"/><path fill="#97c7e9" fill-opacity=".6" d="M55.6-10.3l7.8-5.7-12.6 73.6 12.9-16.2z"/><path fill="#c1d7f0" fill-opacity=".5" d="M83.7 157.3l39.6 12.8 22.4 29.6-40.2-10.7z"/><path fill="#443225" fill-opacity=".9" d="M78.2 201.3l-36.9 55.2L14.8 271l51.3-76.1z"/><ellipse cx="149" cy="160" fill="#626585" fill-opacity=".4" rx="6" ry="50"/><path fill-opacity=".6" d="M48 206l-19-30-3 28z"/><circle r="1" fill="#072946" fill-opacity=".5" transform="matrix(5.08345 72.69673 -2.68037 .18743 40.5 56.4)"/><path fill="#7d6953" fill-opacity=".5" d="M8 213l-7-92 17 46z"/><circle cx="74" cy="206" r="12" fill="#414618" fill-opacity=".7"/><path fill="#e8ffff" fill-opacity=".7" d="M186 78l-37-64 14 113z"/><path fill="#77a2bb" fill-opacity=".5" d="M147.3 5.7l20.5-10.4 25 49-20.6 10.4z"/><path fill="#6b6c85" fill-opacity=".5" d="M92 191h34v21H92z"/><path fill="#3b1402" fill-opacity=".4" d="M116 126l14-35-47 17z"/><path fill="#8daeca" fill-opacity=".5" d="M53 61h13v25H53z"/><path fill="#8cd7ff" fill-opacity=".4" d="M28-30.8l6 68.7-10 .9-6-68.7z"/><circle r="1" fill="#010000" fill-opacity=".4" transform="matrix(15.40967 2.2179 -4.54147 31.55347 83 34.5)"/><path fill="#c5dfc5" fill-opacity=".5" d="M55.8 150.6L70.5 128l17.7 11.4L73.5 162z"/><path fill="#fbdad6" fill-opacity=".5" d="M89.5 191.4L72 170.9l11.7 2.1-20.4 20.2z"/><path fill="#854e44" fill-opacity=".4" d="M-16 241l43 30 33-69z"/><path fill="#657c73" fill-opacity=".8" d="M64.3 145.2l12.5-.7 18.8 71.9-6.8-55.2z"/><path fill="#111500" fill-opacity=".6" d="M91 150l11-20-16 16z"/><path fill="#ffdbc3" fill-opacity=".3" d="M104.3 70.6l15 1.4 18.7-7-27 40.9z"/><circle r="1" fill="#d2fdff" fill-opacity=".5" transform="matrix(2.8916 -.38339 3.02781 22.8366 37.6 103.3)"/><path fill="#fae0d7" fill-opacity=".5" d="M183.5 196.1l-86.4 35-14.9 13.2 27.8 6.9z"/><path fill="#220a00" fill-opacity=".5" d="M121.5 240.7l3-15.7 2 .3-3 15.7z"/><path fill="#3a2011" fill-opacity=".4" d="M149 43.3l-93.4-24 79.9 39.4 12.7-36.3z"/><circle r="1" fill="#84889a" fill-opacity=".6" transform="matrix(3.36729 .16405 -1.86108 38.20052 131 157)"/><path fill="#8a8b9a" d="M143.9 190.7l16.4-77.2-5.5 6.8-11.8 41.5z"/><path fill="#f1ffff" fill-opacity=".6" d="M150.9 64.2l-6.4-2.7 6.6-15.7 6.4 2.7z"/><path fill="#c3d8f0" fill-opacity=".5" d="M124.4 116.6l16.4 89.1 6-76.6-45.4 53.6z"/><path fill="#b5bcb4" fill-opacity=".7" d="M103.3 134.4l10.9-4.9L87.6 165l2.3-6.2z"/><path fill="#0e0200" fill-opacity=".6" d="M57 52h4v22h-4z"/><path fill="#675940" fill-opacity=".4" d="M17 139l-33-26L1 7z"/></g></svg>