<svg xmlns="http://www.w3.org/2000/svg" viewBox="0 0 299 449"><defs/><path fill="#2b314c" d="M0 0h299v449H0z"/><g transform="translate(.9 .9) scale(1.7539)"><circle cx="19" cy="108" r="192" fill="#ecc390" fill-opacity=".5"/><circle r="1" fill="#0a0200" fill-opacity=".8" transform="matrix(-21.37066 -7.77828 14.47289 -39.76393 53.8 21.5)"/><path fill="#dad7d3" fill-opacity=".6" d="M159 271L74 102 20 269z"/><circle r="1" fill="#140005" fill-opacity=".6" transform="matrix(-20.651 -68.25086 19.2454 -5.82318 135.2 92.4)"/><circle r="1" fill="#fffffe" fill-opacity=".6" transform="rotate(-171.2 84.6 14.7) scale(18.54125 47.15484)"/><circle r="1" fill="#191d44" fill-opacity=".7" transform="matrix(35.68479 31.02031 -22.29468 25.6471 168.2 211.7)"/><path fill="#1f1a0a" fill-opacity=".7" d="M0 93h17v73H0z"/><circle r="1" fill="#794028" fill-opacity=".6" transform="matrix(7.24573 .48793 -3.97647 59.05049 106.7 207)"/><ellipse cx="119" cy="56" fill="#2d160c" fill-opacity=".6" rx="24" ry="26"/><ellipse cx="120" cy="198" fill="#fffafb" fill-opacity=".6" rx="4" ry="92"/><path fill="#6b3f2d" fill-opacity=".8" d="M67.3 34.8l-23.5 23-1.2 53 27.8-5.1z"/><circle r="1" fill="#f1b75a" fill-opacity=".4" transform="matrix(23.388 -8.94327 24.7305 64.67396 0 33.8)"/><path fill="#ffddbf" fill-opacity=".3" d="M11.4 142.5l152.1-66.4-52.9-7 13.7 67z"/><ellipse cx="150" cy="123" fill="#2d2639" fill-opacity=".6" rx="30" ry="40"/><ellipse cx="128" cy="255" fill="#f3fbff" fill-opacity=".8" rx="14" ry="36"/><circle r="1" fill="#a99f89" fill-opacity=".8" transform="matrix(-18.23062 -3.4115 16.59949 -88.70556 43.8 207.7)"/><path fill="#521904" fill-opacity=".6" d="M18 128l-9 86 25-41z"/><path fill="#e1e7ee" fill-opacity=".5" d="M70 118h23v138H70z"/><path fill="#fedcd2" fill-opacity=".5" d="M152.2 176.3l11.4-17-19.2 2.4-35.5 14.8z"/><path fill="#030200" fill-opacity=".5" d="M98 26L22 48l25-59z"/><path fill="#dcd2a7" fill-opacity=".5" d="M65.4-7.4l10.1-9.8 43 44.6-10 9.8z"/><circle r="1" fill="#fffef9" fill-opacity=".5" transform="rotate(-109.6 94 13) scale(21.57102 4.6593)"/><ellipse cx="99" cy="127" fill="#7a3e22" fill-opacity=".5" rx="6" ry="40"/><path fill="#e2f3e0" fill-opacity=".4" d="M-4.9 165.4L-16 271l17.7-28.9 12.8-76.5z"/><path fill="#ccd5d4" fill-opacity=".7" d="M2.9 40l24.9 17.8-33.5-69.1L-6-16z"/><path fill="#f8c79c" fill-opacity=".4" d="M71 39h26v45H71z"/><path fill="#d0869d" fill-opacity=".6" d="M159 178l7 34 9-20z"/><path fill="#f7f4ec" fill-opacity=".6" d="M186 97V-8l-42 82z"/><path fill="#35202e" fill-opacity=".5" d="M123 136h18v27h-18z"/><path fill="#000415" fill-opacity=".4" d="M119.3 203.7l12.7-25 26.7 13.6-12.7 25z"/><path fill="#c4b596" fill-opacity=".7" d="M-4.8-12.8l32.9 28.3L60.6-16l51.5 23.6z"/><ellipse cx="151" cy="27" fill="#c7af86" fill-opacity=".5" rx="9" ry="48"/><circle r="1" fill="#8f7136" fill-opacity=".6" transform="matrix(-12.63284 -13.31759 18.10345 -17.17264 127.4 8.3)"/><path fill="#985f3a" fill-opacity=".5" d="M17 87h85v28H17z"/><circle r="1" fill="#020000" fill-opacity=".5" transform="matrix(6.07473 .32 -.76988 14.61485 101.4 61.4)"/><path fill="#041d41" fill-opacity=".5" d="M160 272l-18.7-36.5L152 230l18.7 36.5z"/><path fill="#ffb893" fill-opacity=".3" d="M143.8 86.6l-16.6-17.4-11.4 126.3-8.5-62.3z"/><path fill="#c6ba9b" fill-opacity=".5" d="M22.9 116.3l16.8 2.7-4.6 28.7-16.8-2.7z"/><path fill="#2c1b14" fill-opacity=".6" d="M107.5 86.9l13.2 11.3-8.4-66.8 27.2-2.9z"/><circle r="1" fill="#c28c42" fill-opacity=".6" transform="rotate(94.9 -27.5 44.1) scale(17.6474 32.42999)"/><path fill="#c0a2ad" fill-opacity=".8" d="M186 132l-21-29 11-21z"/><path fill="#f0b356" fill-opacity=".4" d="M107 32L88 10l6 45z"/><path fill="#edf3fd" fill-opacity=".5" d="M154 263l-42-16 14-42z"/><path fill="#472f28" fill-opacity=".5" d="M36.7 41l45.1 27.9 1-14.1-37.8 21z"/><path fill="#2b2525" fill-opacity=".6" d="M74-2l17 38-25-4z"/><circle r="1" fill="#8b4906" fill-opacity=".5" transform="matrix(2.31376 -2.44673 26.95434 25.48945 6.4 0)"/><path fill="#e6efe8" fill-opacity=".5" d="M20.6 15.8l9.6 12.8-4.8 3.6-9.6-12.8z"/><path fill="#814031" fill-opacity=".5" d="M104.7 52.8l15-10.6 16.3 71.2-14.3-13.7z"/><path fill="#e69486" fill-opacity=".3" d="M124.1 144.1l32.8-4.8-19-4.3-7.1 23.9z"/><path fill="#744431" fill-opacity=".6" d="M103.9 258l-6-.7 10.2-83.4 6 .8z"/><path fill="#c9c5bf" fill-opacity=".6" d="M64.1 155.2l25.2-4.8 17.3 39.1-48.7 40.3z"/><path fill="#321803" fill-opacity=".4" d="M-5.5 91L-16 73.8l36.1 27.8-.7 30.2z"/><path fill="#5a70aa" fill-opacity=".5" d="M165 118h6v70h-6z"/><path fill="#1b1510" fill-opacity=".9" d="M105.3 35.9l23.4-6.2 11.6 14.9-39.8 3.8z"/><path fill="#f2d5d4" fill-opacity=".5" d="M145 165h-18l-11 28z"/><path fill="#faf1fa" fill-opacity=".5" d="M79 37h6v15h-6z"/><path fill="#151d2b" fill-opacity=".5" d="M163 122V89l-42 46z"/><path fill="#2e221d" fill-opacity=".8" d="M146.2 60.6l-11.1-21.9 9.5 42-27.9-18.1z"/><ellipse cx="117" cy="138" fill="#f8e5de" fill-opacity=".4" rx="5" ry="34"/><path fill="#23202d" fill-opacity=".7" d="M122.7 166.2l13.5-12.1-2.4-8.6 35.6 9.2z"/><path fill="#f0cab0" fill-opacity=".4" d="M87.2 57.4l32.9 53.2-10.9 18.7-1.4-15.8z"/><ellipse cx="84" cy="134" fill="#f9ffff" fill-opacity=".4" rx="11" ry="14"/><circle r="1" fill="#7c523d" fill-opacity=".5" transform="matrix(4.49688 27.9124 -6.19142 .99748 100.7 142.7)"/><ellipse cx="36" cy="242" fill="#a5a08f" fill-opacity=".5" rx="23" ry="63"/><path fill="#713c2b" fill-opacity=".4" d="M42 81h48v15H42z"/></g></svg>