<svg xmlns="http://www.w3.org/2000/svg" viewBox="0 0 300 199"><defs/><path fill="#2f4353" d="M0 0h300v199H0z"/><g transform="translate(.6 .6) scale(1.17188)"><circle cx="182" cy="107" r="177" fill="#2e0e00" fill-opacity=".6"/><ellipse cx="231" cy="40" fill="#ffdcba" fill-opacity=".6" rx="21" ry="38"/><circle r="1" fill="#e5b180" fill-opacity=".6" transform="rotate(-179.4 51 16.5) scale(11.69104 43.57953)"/><path fill="#d3f3ff" fill-opacity=".7" d="M5 66l-21 83 25 28z"/><path fill="#fdb884" fill-opacity=".6" d="M137.2 47.6l18.4-12 21.2 32.8-18.4 12z"/><circle r="1" fill="#010006" fill-opacity=".7" transform="rotate(-47.8 263.5 -133.5) scale(78.27395 70.53671)"/><circle r="1" fill="#0b0500" fill-opacity=".5" transform="matrix(28.09677 111.71047 -28.71969 7.2234 48 65.5)"/><path fill="#0c0905" fill-opacity=".6" d="M123 0h102v41H123z"/><path fill="#f1cbb1" fill-opacity=".5" d="M247.4 70.3L271 29.1l-71.9 35.1 8.3 9.4z"/><path fill="#ffcf77" fill-opacity=".4" d="M81 75l48 30-13 8z"/><path fill="#50838d" fill-opacity=".8" d="M-4.7 38.3L-16 92.7 19.4 83l-3.2-43.2z"/><path fill="#e9a66e" fill-opacity=".7" d="M133.8 62.1l9.8 14.6 19.9 2.7-19 13.3z"/><path fill="#fec9a7" fill-opacity=".4" d="M116.2 21.8L100.8 36 87.4 77.2l13.3 1.4z"/><path fill="#0e0807" fill-opacity=".8" d="M234-16l25 73 9-61z"/><path fill="#e3bea5" fill-opacity=".5" d="M214 10l21-15 19 67z"/><path fill="#3b2720" fill-opacity=".9" d="M197.1 31l12.4-34.3 24.4 55.8-.8-2.8z"/><circle r="1" fill="#72502e" fill-opacity=".7" transform="matrix(-5.1597 -13.75426 19.12186 -7.17328 91.3 10.8)"/><path fill="#281c0d" fill-opacity=".6" d="M132.1 35.9l-14.3 2.7-20.5 46.2 65-20.9z"/><path fill="#fcc180" fill-opacity=".4" d="M149.9 27.2l27.5 39.5-38.9-22.5 12-12.2z"/><path fill-opacity=".4" d="M13.4 193.8L4.8 95.2l33.8-3 8.6 98.6z"/><circle r="1" fill="#1d0f09" fill-opacity=".7" transform="matrix(-25.37205 16.44124 -23.56834 -36.37055 103.8 140.5)"/><path fill="#1d140e" fill-opacity=".5" d="M96 40L73 163-16-16z"/><path fill="#fd954b" fill-opacity=".3" d="M128.3 114.7L75.4 86l11.5-3.9 24.4 12.4z"/><path fill="#000103" fill-opacity=".6" d="M182-16l21 117-49-72z"/><path fill="#152c34" fill-opacity=".5" d="M41 31l-57 28 60 5z"/><path fill="#b1b7bf" fill-opacity=".8" d="M207.5 63.8l-5 4.2 36.4 12.7-6.6-9.7z"/><path fill="#d7c5ab" fill-opacity=".4" d="M115 56L86 23l23-1z"/><ellipse cy="27" fill="#130f0e" fill-opacity=".9" rx="86" ry="10"/><path fill="#f6dcce" fill-opacity=".5" d="M235.1 47l-4.4-14.4 18.2-5.5 4.4 14.3z"/><path fill="#85664b" fill-opacity=".5" d="M236.1-8l-3.3 32-19-2 3.4-32z"/><path fill="#85b9d4" fill-opacity=".5" d="M16 85L-2 66l16-6z"/><path fill="#fba370" fill-opacity=".2" d="M157.6 86.5L141.2 91l-12.3-23.5 40.4-1.9z"/><path fill="#e4eaf7" fill-opacity=".3" d="M119.4 129.7l3.4-11.1-12.6-16.3 18.1.9z"/><ellipse cx="121" cy="86" fill="#0d0c03" fill-opacity=".6" rx="9" ry="17"/><ellipse cx="255" cy="77" fill="#0a0700" fill-opacity=".6" rx="17" ry="11"/><path fill="#72330c" fill-opacity=".4" d="M71.6 90l37.7 13.6-16-22.9 4.3-36.9z"/><path fill="#0c0c14" fill-opacity=".8" d="M256.7 95.2l-53.2-23.1-37.3-.6-4 13z"/><path fill="#d0b3a1" fill-opacity=".6" d="M220.9 44.1l-6.2 4.6 29.4 45.2-16.9-44.4z"/><path fill="#81ced5" fill-opacity=".3" d="M16 46l-32 3 32-15z"/><path fill="#1b130b" fill-opacity=".8" d="M91-16l24 29 27-29z"/><path fill="#1a130b" fill-opacity=".9" d="M254 36h2v57h-2z"/><path fill="#201b10" fill-opacity=".6" d="M123.7 43.5L90.2 86.2l5.7.7 46.4 15.1z"/><path fill="#141826" fill-opacity=".7" d="M229.2 76.4l-27.7-5.8 62.4 69.6 7.1-23.8z"/><path fill="#18110f" d="M267.9-16l-12.1 53.7-13.3-17.9.3-8.4z"/><circle r="1" fill="#d8b89f" fill-opacity=".5" transform="matrix(3.80152 -2.44015 7.76092 12.09075 166.9 58.3)"/><path fill="#c3d7e4" fill-opacity=".6" d="M-10.3 134.2l17-1.2 3.6 50.8-17 1.2z"/><path fill="#5f4233" fill-opacity=".7" d="M192 67l8.3 1 15.8-38.7-5 31.6z"/><path fill="#1e190d" fill-opacity=".5" d="M118 59.5L111 41l27-10.4 7.2 18.6z"/><path fill="#dbcd7f" fill-opacity=".2" d="M-16-1.4L12.2 8.8 6.2 19-16-1.7z"/><ellipse cx="97" cy="19" fill="#906e4a" fill-opacity=".5" rx="20" ry="6"/><path fill="#a9745e" fill-opacity=".8" d="M151.9 41.9L148.6 75l-.7-4.6 6.9 9.2z"/><circle r="1" fill="#140e09" fill-opacity=".6" transform="matrix(-4.78947 7.59315 -56.78824 -35.8199 39.1 11.8)"/><path fill="#192f38" fill-opacity=".5" d="M11.6 73.4l-5 61.7L6 77.7l-19.7-4.4z"/><path fill="#221510" fill-opacity=".5" d="M31 95h74v75H31z"/><path fill="#3d382d" fill-opacity=".5" d="M210.2 43.4L187 39.1l41.2-34L217.1-16z"/><path fill="#dcc3b3" fill-opacity=".5" d="M252 64l2-23-32-26z"/><ellipse cx="110" cy="100" fill="#ffe9b4" fill-opacity=".4" rx="5" ry="4"/><path fill="#b96f25" fill-opacity=".4" d="M116 14.9L83.2-16H63.9l49 37.6z"/><path fill="#bcc6cf" fill-opacity=".5" d="M215 64l19 10-34-4z"/><path fill="#bfdffe" fill-opacity=".2" d="M222.5 70.9l6.1-.4 11 11.8 9.3 10.8z"/><path fill="#1a0000" fill-opacity=".5" d="M226.5 32.5L210.2 37l-2.7-9.6 16.3-4.6z"/><path fill="#16120f" fill-opacity=".6" d="M8 85h46v73H8z"/><path fill="#feae82" fill-opacity=".2" d="M88 74.6l-6.7 20 33-46.1-5.3-6.6z"/><ellipse cx="53" cy="165" fill="#231b19" fill-opacity=".7" rx="44" ry="19"/><path fill="#e4cfba" fill-opacity=".4" d="M115.5 34.6L96.3 46.9l8.1-13.4 8.3-11.1z"/></g></svg>