<svg xmlns="http://www.w3.org/2000/svg" viewBox="0 0 300 199"><defs/><path fill="#84563c" d="M0 0h300v199H0z"/><g transform="translate(.6 .6) scale(1.17188)"><circle r="1" fill="#dfe6e8" fill-opacity=".8" transform="matrix(-42.9201 -144.50131 209.50142 -62.22658 135.9 128.3)"/><circle r="1" fill="#72604a" fill-opacity=".5" transform="rotate(-160.8 70.4 32.4) scale(88.65273 38.462)"/><path fill="#f6f7f8" d="M4 168l132 8L-16 11z"/><path fill="#633415" fill-opacity=".5" d="M179 10l14 79-64 57z"/><circle r="1" fill="#f2faff" fill-opacity=".6" transform="matrix(32.27543 2.47943 -11.14274 145.04817 224.4 78.5)"/><ellipse cx="136" cy="39" fill="#cdd3d5" rx="15" ry="72"/><circle r="1" fill="#6f411f" fill-opacity=".7" transform="matrix(-2.68925 -26.6133 10.8172 -1.09307 55.3 69.3)"/><path fill="#100" fill-opacity=".6" d="M192 29l-27 12 37 3z"/><path fill="#49210b" fill-opacity=".5" d="M137 150l24 35-15-76z"/><circle r="1" fill="#fff" fill-opacity=".6" transform="matrix(-13.01486 16.5639 -39.01345 -30.65428 101.4 138.2)"/><circle r="1" fill="#dfe6ea" fill-opacity=".8" transform="matrix(15.11112 -29.51327 26.208 13.41879 178 .2)"/><circle cx="28" cy="75" r="21" fill="#fff" fill-opacity=".5"/><circle r="1" fill="#dc9f8a" fill-opacity=".7" transform="matrix(17.2629 -17.93881 9.38076 9.0273 33 14.3)"/><circle r="1" fill="#8b8578" fill-opacity=".4" transform="rotate(33.9 -110.8 361) scale(18.48421 46.30139)"/><circle r="1" fill="#f9ffff" fill-opacity=".6" transform="matrix(-19.37945 34.818 -12.12115 -6.74655 75 9.9)"/><circle r="1" fill="#b0bbbe" fill-opacity=".8" transform="rotate(-26.4 128.3 -200.2) scale(30.06833 23.78893)"/><path fill="#784210" fill-opacity=".5" d="M103.9 115.1L60.1 84.7 42.6 82l7.1 9.4z"/><ellipse cx="108" cy="85" fill="#436c84" fill-opacity=".4" rx="18" ry="29"/><path fill="#55341b" fill-opacity=".8" d="M145.9 119.4l-1.1-.8 7.7-54.7 12.5 49.5z"/><path fill="#55372e" fill-opacity=".3" d="M187 20.2L162.2 71l26.1-18.9 24.2 12.2z"/><path fill="#cdd4d7" fill-opacity=".7" d="M126 67l45-9-82-74z"/><path fill="#4d1c00" fill-opacity=".5" d="M36.7 53.2l13.7-9.5 21.8 7.7-14 21.5z"/><circle r="1" fill="#fff" fill-opacity=".6" transform="rotate(127.7 -4.1 29.8) scale(11.96851 41.16302)"/><circle r="1" fill="#52514d" fill-opacity=".5" transform="rotate(-53 76.5 -58) scale(27.34381 3.45689)"/><circle r="1" fill="#eeb971" fill-opacity=".5" transform="matrix(13.94798 17.69328 -8.6049 6.78342 77.1 86.2)"/><path fill="#e5e8ec" fill-opacity=".9" d="M245 176l-102-7 128-47z"/><path fill="#d4d3d2" fill-opacity=".8" d="M218.8 84.9l-29.3 8.2-2.8-35.3 17.1-4.2z"/><path fill="#a17757" fill-opacity=".7" d="M202.4 109.3l-23-42.5-19.8.5-7.9 24.7z"/><path fill="#260c05" fill-opacity=".4" d="M-16 21l30-37-1 45z"/><path fill="#4e5659" fill-opacity=".5" d="M138.3 2.2L91.1 16.9l10.8-7.5 24.7-7z"/><path fill="#d3dce1" fill-opacity=".6" d="M127 126.6l-1-61 11-.2 1 61z"/><path fill="none" stroke="#28201b" stroke-opacity=".5" stroke-width=".5" d="M130.3 3.2Q213 11 188 76.8"/><circle r="1" fill="#f7fbfd" fill-opacity=".6" transform="rotate(-118.3 141.6 -30.4) scale(109.02122 13.61152)"/><path fill="#6f5d58" fill-opacity=".5" d="M132 127l11 43 20-9z"/><path fill="#bec4c2" fill-opacity=".5" d="M149 121h48v23h-48z"/><path fill="#936948" fill-opacity=".8" d="M183.9 120.1l-8 12.9L154 67.1l37.2 21.5z"/><path fill="#3d1a12" fill-opacity=".4" d="M168 33h15v31h-15z"/><circle r="1" fill="#fff" fill-opacity=".6" transform="matrix(41.17865 60.41178 -18.47622 12.594 118.3 169)"/><path fill="#e6ba9f" fill-opacity=".6" d="M191 43l-18 4 4-8z"/><path fill="#b45736" fill-opacity=".6" d="M39.3-16l-.7 41.7-9.2-7 4-27.6z"/><path fill="#3c545e" fill-opacity=".4" d="M80 62l10 21 20-25z"/><path fill="#d3dadc" fill-opacity=".9" d="M172.7 28.8l-11.8-17.3-36 67.8L141 92.7z"/><path fill="#fcffff" fill-opacity=".6" d="M114.8-21.3L125-2.9 81.2 21.3 71 2.9z"/><path fill="#171009" fill-opacity=".6" d="M62.8 55.3l17.5-29.1.9.5-17.5 29.1z"/><path fill="#ffeeeb" fill-opacity=".3" d="M70 11.4l-1.8 40.4-24.7-15.6L39 2.3z"/><path fill="#71848c" fill-opacity=".5" d="M118 89l20 58-35-46z"/><path fill="#3a4143" fill-opacity=".5" d="M146.5 3.8l.3-1 26.7 11.4-.3 1z"/><circle r="1" fill="#ffe2d0" fill-opacity=".5" transform="matrix(9.91678 13.35296 -9.28688 6.89705 32.3 39.3)"/><circle r="1" fill="#dee1e8" fill-opacity=".5" transform="rotate(-54.6 169.7 65.8) scale(24.76324 90.62939)"/><path fill="#22313e" fill-opacity=".4" d="M58-16l2 29 6-29z"/><path fill="#020300" fill-opacity=".6" d="M196.5 39.4l-31.7.6 10.8-6.7 8.9.2z"/><path fill="#653615" fill-opacity=".5" d="M79 101L45 88l13-14z"/><path fill-opacity=".5" d="M121 4h28v1h-28z"/><path fill="#fff" fill-opacity=".5" d="M171.7-8.8l30.8 34.2-8.2 7.4-30.8-34.2z"/><path fill="#e8f4ff" fill-opacity=".3" d="M210.3 100.9l-15.7 7.8-12.2 4.4 2.7 35.2z"/><path fill="#b4bcbe" fill-opacity=".7" d="M127 63L76 36l15-16z"/><circle r="1" fill="#eef1f4" fill-opacity=".7" transform="rotate(-138.4 130 40.8) scale(16.63785 89.55178)"/><path fill="#1f0700" fill-opacity=".6" d="M158.5 62.8l2.5 1.7-7.5 10.7-2.5-1.7z"/><path fill="#020b11" fill-opacity=".4" d="M108.6 5.8l-20.4 15-14.7 14.9 21.7-18.1z"/><path fill="#05182a" fill-opacity=".3" d="M174.7 157.4l32.1-34.7-21.5 26.5-39.8 18.2z"/><path fill="#f8fefe" fill-opacity=".6" d="M213 49h18v78h-18z"/><path fill="#626b70" fill-opacity=".5" d="M210 69h2v37h-2z"/><path fill="#fdffff" fill-opacity=".6" d="M13 28l12 126 25-85z"/><path fill="#cec3b5" fill-opacity=".4" d="M159.5 65.7l59.6 46.2-37.6-37.6-20.1 2.8z"/><path fill="#d5e7e9" fill-opacity=".4" d="M156.7 18.6l44.7 20.8 1.2 28.4-9.5-35.5z"/></g></svg>