<svg xmlns="http://www.w3.org/2000/svg" viewBox="0 0 300 199"><defs/><path fill="#563068" d="M0 0h300v199H0z"/><g transform="translate(.6 .6) scale(1.17188)"><circle r="1" fill="#010915" fill-opacity=".8" transform="matrix(-.95325 -109.23188 60.43134 -.52738 207 108.9)"/><circle r="1" fill="#7dd1ee" fill-opacity=".6" transform="matrix(-8.5678 35.1465 -23.5682 -5.7453 92.5 52.3)"/><circle r="1" fill="#7ac4e5" fill-opacity=".7" transform="matrix(66.31856 -1.51534 .42863 18.75902 3.2 68.2)"/><ellipse cx="79" cy="110" fill-opacity=".4" rx="255" ry="22"/><path fill="#93b69f" fill-opacity=".7" d="M233 4h15v51h-15z"/><circle cx="44" cy="7" r="48" fill="#003873" fill-opacity=".7"/><circle r="1" fill="#538bcc" fill-opacity=".5" transform="matrix(-3.2626 17.10316 -40.55345 -7.73599 151 24)"/><ellipse cx="124" cy="74" fill="#00010a" fill-opacity=".7" rx="9" ry="55"/><circle r="1" fill="#413486" fill-opacity=".6" transform="matrix(5.6268 -15.3991 57.06609 20.85183 220 169)"/><path fill="#aff7ff" fill-opacity=".5" d="M116.4 66l-1.8-60.3-24.7 57.8L110 89.1z"/><path fill="#e0d5ff" fill-opacity=".5" d="M135 14h6v70h-6z"/><path fill="#c6fdff" fill-opacity=".5" d="M0 47h29v24H0z"/><path fill="#000d31" fill-opacity=".3" d="M39 106l-8-59 74 39z"/><ellipse cx="7" cy="24" fill="#00032a" fill-opacity=".6" rx="10" ry="27"/><ellipse cx="79" fill="#55f1ff" fill-opacity=".6" rx="3" ry="56"/><ellipse cx="178" fill="#2a276a" fill-opacity=".8" rx="18" ry="48"/><path fill="#493c7f" fill-opacity=".7" d="M92.8 126.7l50.2 38.4L4.7 185 118.8 68.6z"/><path fill="#000001" fill-opacity=".9" d="M251 0h5v133h-5z"/><ellipse cx="211" cy="55" fill-opacity=".6" rx="16" ry="94"/><path fill="#321b4d" fill-opacity=".8" d="M184 176l-43-88-5 97z"/><circle r="1" fill="#5273b4" fill-opacity=".6" transform="rotate(73.2 -11 73.2) scale(17.26032 30.84218)"/><circle r="1" fill-opacity=".5" transform="rotate(-46.6 171 -171.8) scale(15.69726 35.73988)"/><path fill-opacity=".6" d="M45 80.6L89 94l-4 13.4L41 94z"/><circle cx="23" cy="119" r="31" fill="#36214e" fill-opacity=".8"/><path fill="#00071e" fill-opacity=".7" d="M36.2 68.1l-6.6-13.4-2-23.7 10.6 2.7z"/><ellipse cx="211" cy="132" fill-opacity=".9" rx="46" ry="13"/><path fill="#73a8d7" fill-opacity=".5" d="M31.9 55.6L-14 76.2l49.7 17.9-.2-23z"/><ellipse cx="239" cy="14" fill="#6d8c70" fill-opacity=".6" rx="13" ry="12"/><path fill="#00cdf1" fill-opacity=".7" d="M78.5 8.4L75-5l12.6-3.3L91 5z"/><path fill="#3b2138" fill-opacity=".4" d="M99.9 37L80.1 24.6l2.4-14.2 33.1-21z"/><path fill="#6b71b1" fill-opacity=".6" d="M145.6 26.9l-31 2.1-2.2-31.9 31-2.1z"/><path fill="#a3ffff" fill-opacity=".5" d="M92 36h17v41H92z"/><path fill="#0f1f4d" fill-opacity=".6" d="M252.1 25.6l-15.6 79.9-30.7-23.4.6 35.9z"/><path fill="#a5b8b7" fill-opacity=".4" d="M246 50l-8-36-6 44z"/><path fill="#4c317a" fill-opacity=".5" d="M73.2 95.6l8.6-50.2-1.5-30.6 11.2 47.6z"/><path fill="#00bce5" fill-opacity=".3" d="M109.1 62.4l9.4 17.6-25.6 13.6L83.5 76z"/><path fill="#0d091a" fill-opacity=".9" d="M118.6 128.3l20.1-6.4-3-38.6-19.6-49z"/><path fill="#ebf2ff" fill-opacity=".4" d="M90.2 47.2l3.3-26.8L79.2 55l-1.5-7.2z"/><path fill-opacity=".3" d="M246.8-16l-62.5 156.1-39 43.9-4.3-16.6z"/><path fill="#75335d" fill-opacity=".6" d="M119.4 81l5.5 9.3-26.4 10.2 7.6-20.3z"/><path fill="#4e336f" fill-opacity=".5" d="M160 140l-14-41-41 86z"/><path fill="#120000" fill-opacity=".4" d="M112.9 118.3L84.4 85l22.1 51.2 30.7-13.7z"/><path fill="#0f71ae" fill-opacity=".4" d="M174 28.8l-21 6.8-17-52.4 21-6.8z"/><path fill="#81b8e3" fill-opacity=".4" d="M82 71.8l-28.6 5L50 58.3l28.5-5z"/><path fill="#887fc9" fill-opacity=".5" d="M132 50h13v31h-13z"/><path fill="#4870e5" fill-opacity=".4" d="M224.6 92.6l1-2.9 23.8 7.7-1 2.9z"/><path fill="#00000f" fill-opacity=".5" d="M233.7 84.1l32.9 79.4-22.1-129.6L270.1-.3z"/><path fill="#0e1f5c" fill-opacity=".7" d="M62.4 9.5L8.2 27.1-.4.5l54.2-17.6z"/><path fill="#080000" fill-opacity=".5" d="M49.5 86.7l-17 36.7-18.6-22.2 74.5-2.7z"/><path fill="#284f99" fill-opacity=".5" d="M37 17h41v38H37z"/><path fill="#839fec" fill-opacity=".5" d="M208.5 84.6l4.6 9-3.6 1.8-4.6-9z"/><path fill="#030000" fill-opacity=".8" d="M147-16h38L174 7z"/><path fill="#00002d" fill-opacity=".4" d="M128 20h6v31h-6z"/><path fill="#020106" fill-opacity=".9" d="M210.5 146.6l32.8 12.1 16.2-41.5-133.9-28.6z"/><path fill="#4b2374" fill-opacity=".4" d="M156 111l11-7-4-31z"/><path fill="#1661a3" fill-opacity=".5" d="M-7 85.6l28.1-7 2 7.8-28.2 7z"/><path fill="#3e306a" fill-opacity=".9" d="M78.9 165.7l-36.1-64.9 40.1 10.1-45.1 1.5z"/><path fill="#dffcff" fill-opacity=".3" d="M8.9 47.5l19.5 41.1L32 55.9 14.3 43.8z"/><path fill="#33265b" fill-opacity=".5" d="M150 61l-12 15 11 11z"/><circle r="1" fill="#000307" fill-opacity=".6" transform="matrix(-20.60684 13.05357 -11.47334 -18.11224 210.9 43.2)"/><ellipse cx="255" cy="169" fill="#271547" rx="7" ry="37"/><path fill="#6d2d59" fill-opacity=".6" d="M112.3 118.3l-2-32.2-19.8 18 40.1 9.4z"/><path fill="#001150" fill-opacity=".5" d="M40 72l13 4-1-10z"/><path fill="#0f0419" fill-opacity=".8" d="M67.1-16l45.8 25-6.7-25 45 6z"/><path fill="#02000a" fill-opacity=".5" d="M141.1 32.6l90.4 83.5L152 60.2l-6.8-39.8z"/></g></svg>