<svg xmlns="http://www.w3.org/2000/svg" viewBox="0 0 300 199"><defs/><path fill="#4b693c" d="M0 0h300v199H0z"/><g transform="translate(.6 .6) scale(1.17188)"><circle r="1" fill="#9ca58a" fill-opacity=".8" transform="rotate(-85.6 144.6 -6.5) scale(65.47033 209.92443)"/><circle r="1" fill="#e3f4ff" fill-opacity=".7" transform="rotate(-7.1 108.8 -376) scale(63.46954 22.59544)"/><ellipse cx="108" cy="102" fill="#22253a" rx="14" ry="51"/><circle r="1" fill="#0e1d1b" fill-opacity=".6" transform="rotate(177.6 26.5 23.2) scale(17.15543 29.82178)"/><ellipse cx="141" cy="158" fill="#e8ddf7" fill-opacity=".5" rx="27" ry="46"/><circle r="1" fill="#e5dfd5" fill-opacity=".6" transform="matrix(1.76495 -9.90835 70.59263 12.57446 209.5 96.7)"/><circle r="1" fill="#b2da8b" fill-opacity=".4" transform="matrix(-13.28142 -7.0025 47.32262 -89.75534 182.9 38.5)"/><circle r="1" fill="#0e1605" fill-opacity=".6" transform="matrix(12.09529 5.62893 -19.67323 42.27326 249.4 35.1)"/><path fill="#dbeeff" fill-opacity=".7" d="M35.8-16l71.8 20.8L82 16.9l-6 19z"/><circle r="1" fill="#00002b" fill-opacity=".6" transform="matrix(-15.55611 -32.17936 6.74461 -3.26047 102.6 99.8)"/><circle r="1" fill="#4b8033" fill-opacity=".6" transform="rotate(-62.4 125 61.2) scale(15.03045 57.99731)"/><path fill="#0c1936" fill-opacity=".7" d="M127.8 107.5l-22.5 23.6-7.6 43.8 5.4 10.1z"/><circle r="1" fill="#d8e8f8" fill-opacity=".6" transform="matrix(-9.64085 10.12883 -18.6318 -17.73417 20.4 17.4)"/><path fill="#c97172" fill-opacity=".4" d="M89 53l37-16 19 57z"/><circle r="1" fill="#1e240a" fill-opacity=".5" transform="matrix(-6.64438 2.94438 -14.31478 -32.30314 137.2 46.4)"/><circle r="1" fill="#f5faff" fill-opacity=".5" transform="rotate(153.8 46.5 15.5) scale(5.45291 20.90375)"/><ellipse cx="76" cy="129" fill="#aac883" fill-opacity=".4" rx="26" ry="38"/><circle r="1" fill="#1f3228" fill-opacity=".4" transform="matrix(22.08157 -29.66334 13.64553 10.15781 1.8 60.4)"/><path fill="#142300" fill-opacity=".6" d="M202.6 63.8l4.2 4.5 47.2-5.4-46-17.1z"/><path fill="#fbeffe" fill-opacity=".4" d="M58.1 76.2l30.1 9.2L82 70.5l-50.1 7.3z"/><path fill="#1f2e24" fill-opacity=".6" d="M93 66L46 9l-4 63z"/><path fill="#ffe4ec" fill-opacity=".4" d="M159.9 166.7l44-2.3.2 5-44 2.2z"/><path fill="#23381b" fill-opacity=".5" d="M147.5 29.3l.3-1.5-39.3 15.3-2-59.1z"/><ellipse cx="89" cy="47" fill="#545f56" fill-opacity=".6" rx="13" ry="30"/><circle r="1" fill="#687443" fill-opacity=".5" transform="matrix(13.23369 -3.63474 7.73914 28.17737 255 143.7)"/><circle r="1" fill="#ab9289" fill-opacity=".7" transform="rotate(-74.6 113.4 -49.2) scale(12.14681 10.49846)"/><path fill="#221b29" fill-opacity=".5" d="M119 53L98 79l27 50z"/><path fill="#d47d5e" fill-opacity=".5" d="M108 87l20 1-21 9z"/><path fill="#74a24e" fill-opacity=".3" d="M230 67l41 3-49 48z"/><circle r="1" fill="#86a961" fill-opacity=".4" transform="rotate(-103.8 111.5 -38.4) scale(26.59424 21.57772)"/><path fill="#e9dfe7" fill-opacity=".4" d="M181 86h47v15h-47z"/><path fill="#001236" fill-opacity=".6" d="M89.9 71.8l7.9 40.5-2.6 19.4 32.8-8.1z"/><path fill="#100" fill-opacity=".7" d="M91.4 41.3l13.3-4.3 1.9 5.7L93.3 47z"/><path fill="#f9f4ff" fill-opacity=".3" d="M25 24l7 37 7-55z"/><ellipse cx="204" cy="77" fill="#090c00" fill-opacity=".4" rx="24" ry="4"/><path fill="#283a2c" fill-opacity=".9" d="M21.6 37.5l11 29.9-23.4-6.3L20.3 31z"/><path fill="#779d8d" fill-opacity=".3" d="M85.8 50.7L126.1-16 98.7 41.4l-78-56.8z"/><path fill="#c3bdab" fill-opacity=".4" d="M127 97.8l-6.9 11.2 54.1 68.3-28-87.2z"/><path fill="#171d01" fill-opacity=".4" d="M158.9 64.8L127 59.4l-42.9 45.7 63.3-69.2z"/><path fill="#769573" fill-opacity=".6" d="M122-.1l37.8 24.4-1.4 8.7-21.5-49z"/><path fill="#5f894a" fill-opacity=".5" d="M228.6-4.8l4.5 48.9-1.4 7.3-67.9-24.5z"/><path fill="#294549" fill-opacity=".5" d="M83 12h4v20h-4z"/><path fill="#dfefff" fill-opacity=".6" d="M19-16L-16 9 1 34z"/><circle r="1" fill="#92a672" fill-opacity=".7" transform="rotate(163.8 81.3 79) scale(21.3837 30.58822)"/><circle r="1" fill="#85a466" fill-opacity=".4" transform="matrix(-32.44657 -53.36523 12.2766 -7.46429 39.5 121.2)"/><path fill="#8d7055" fill-opacity=".5" d="M95.4 45.8l10.3 23.8 52.8-47.2-.1 10z"/><circle cx="100" cy="82" r="12" fill="#000431" fill-opacity=".6"/><ellipse cx="94" cy="143" fill="#abb591" fill-opacity=".6" rx="8" ry="15"/><path fill="#d8d2d2" fill-opacity=".4" d="M15 74h74v5H15z"/><path fill="#212f26" fill-opacity=".5" d="M45 73l42-2-43-49z"/><path fill="#e3f4ff" fill-opacity=".5" d="M101 24L62-11l47 2z"/><path fill="#866f5d" fill-opacity=".4" d="M139.6 78.1l31.6-1.8-35.5-11-30.6 113.4z"/><path fill="#020907" fill-opacity=".3" d="M238 57.1l-7.2-35.8 20.9-31.9 6.3 35.7z"/><path fill="#c6b1a8" fill-opacity=".6" d="M223.2 159.5l12.4 19.7 12.4-15.5-16.6-3.3z"/><path fill="#9cb184" fill-opacity=".8" d="M97.9 103.7l-24.4 29.8 4.5-24.1 18.2 16.4z"/><path fill="#e7f3ff" fill-opacity=".4" d="M49-16L72-4.1l10.4 30.2-7.5 11.7z"/><path fill="#ede3e1" fill-opacity=".5" d="M142 80h14v14h-14z"/><path fill="#2d7601" fill-opacity=".1" d="M170.7 140.1l1.2-49.8 13.4-17.2-42.4 33.2z"/><path fill="#635a74" fill-opacity=".6" d="M10 70h45v5H10z"/><path fill="#b8b8bb" fill-opacity=".5" d="M173 168l-32-57-45 74z"/><path fill="#478100" fill-opacity=".2" d="M206.1 139.9l52-63.8-63.4 53.8 6.4 13z"/><circle r="1" fill="#53773a" fill-opacity=".6" transform="matrix(61.65786 29.60857 -2.32694 4.84569 39.3 163)"/><path fill="#497070" fill-opacity=".8" d="M59.3 11.7l.4 1.4-8.9-3.8L57 28.5z"/><path fill="#6082c3" fill-opacity=".4" d="M70.9 84.4l26.9-21.6 3.7 6.8-22.3 8z"/><circle r="1" fill="#687a79" fill-opacity=".5" transform="rotate(-39.1 68.6 -20.3) scale(3.16018 22.76869)"/></g></svg>