<svg xmlns="http://www.w3.org/2000/svg" viewBox="0 0 300 199"><defs/><path fill="#493e36" d="M0 0h300v199H0z"/><g transform="translate(.6 .6) scale(1.17188)"><path fill="#fefffc" fill-opacity=".6" d="M250 185l21-201L-16 2z"/><circle r="1" fill="#fbfef4" fill-opacity=".7" transform="matrix(17.01656 41.50075 -28.1498 11.54226 20.4 29.8)"/><path fill="#040000" fill-opacity=".7" d="M146.2 113.9l-20 1-6.4-122.8 20-1z"/><ellipse cx="219" cy="73" fill="#d4d5d2" fill-opacity=".9" rx="61" ry="117"/><ellipse cx="77" cy="60" fill="#452519" fill-opacity=".8" rx="27" ry="24"/><path fill="#cb8d75" fill-opacity=".6" d="M67 109l83 47L99 41z"/><circle r="1" fill="#450000" fill-opacity=".8" transform="matrix(-9.3525 31.9436 -117.43072 -34.38154 52.4 149.8)"/><path fill-opacity=".4" d="M184 35l16 11-10 31z"/><path fill="#fffff1" fill-opacity=".5" d="M40 106l-2-23-24 23z"/><circle r="1" fill="#bf543d" fill-opacity=".2" transform="matrix(-26.43782 -16.63853 58.80595 -93.43978 151.8 156.8)"/><path fill="#fff" fill-opacity=".6" d="M-16 25l79-41 41 53z"/><path fill="#050000" fill-opacity=".5" d="M28 185L16 55l-32 22z"/><path fill="#480300" fill-opacity=".2" d="M32 30h50v139H32z"/><circle r="1" fill="#e9f3f4" fill-opacity=".6" transform="matrix(-22.65193 25.60335 -99.32107 -87.87186 216.3 15.8)"/><path fill="#c6e7e1" fill-opacity=".5" d="M104.6 114.8L118 67.4l4.4 31.8.4 21z"/><ellipse cx="139" cy="89" fill="#120000" fill-opacity=".4" rx="8" ry="42"/><circle r="1" fill="#ac7762" fill-opacity=".7" transform="rotate(-75 97.7 -19.8) scale(26.24398 19.4391)"/><circle cx="158" cy="161" r="22" fill="#8d121a" fill-opacity=".7"/><path fill="#040000" fill-opacity=".6" d="M60 41L48 99l43-59z"/><path fill="#bab1a5" d="M209.8 131.7l-26.9 22.8-26.1-26.1 49.1-22.6z"/><path fill="#f5f9f5" fill-opacity=".8" d="M32 36.3L3.8-16l19.6 83.3 7.1 3.6z"/><path fill="#e8fff4" fill-opacity=".4" d="M97 0h26v45H97z"/><circle r="1" fill="#270003" fill-opacity=".9" transform="rotate(-73.2 113.7 70.5) scale(51.07845 36.26824)"/><path fill="#ffc499" fill-opacity=".2" d="M42.9 65.9l16.6 49.5-40.2-8.3-3.6-4.6z"/><circle r="1" fill="#223826" fill-opacity=".4" transform="matrix(4.13675 78.93385 -.99863 .05234 121 45.6)"/><ellipse cx="135" fill="#230100" fill-opacity=".7" rx="6" ry="108"/><ellipse cx="151" cy="105" fill="#859e8f" fill-opacity=".5" rx="7" ry="34"/><path fill="#1d0a07" fill-opacity=".5" d="M137.4 123.8l-17.6-4.9 22.9-37.3 4.2 62.1z"/><circle r="1" fill="#9c1e15" fill-opacity=".2" transform="matrix(-31.68771 14.71934 -23.81239 -51.26316 93.6 139.4)"/><path fill="#dbae89" fill-opacity=".5" d="M108 125l-23-10 37 34z"/><path fill="#0d0701" fill-opacity=".5" d="M61 45h44v6H61z"/><path fill="#b3a38e" fill-opacity=".6" d="M30 32l4 51 32-64z"/><path fill="#d4d8d1" fill-opacity=".5" d="M153 0h33v109h-33z"/><path fill="#cfd7d8" fill-opacity=".7" d="M217 132l-58 53 112-6z"/><path fill="#242b01" fill-opacity=".4" d="M94.5 15.5v9h-9v-9z"/><circle r="1" fill="#fdffff" fill-opacity=".5" transform="rotate(62 13 42.9) scale(14.62828 55.33465)"/><path fill="#eacfb5" fill-opacity=".5" d="M90 53h18v16H90z"/><path fill="#a24601" fill-opacity=".2" d="M190.7 108.2l12-33.3-4.5-39.2-17.9 25.6z"/><circle r="1" fill="#d1e3e3" fill-opacity=".5" transform="matrix(3.2687 37.11231 -24.41742 2.15059 224.5 94.5)"/><path fill="#e5efea" fill-opacity=".7" d="M64.6 35.9l13.8-.1 42 15.8L65.5 4.8z"/><path fill="#878875" fill-opacity=".4" d="M164.9 128.4l-11 10.8-7.6-19.9-8.5-117.4z"/><path fill="#41241e" fill-opacity=".5" d="M100 72L76 84l11-17z"/><path fill="#a0ab98" fill-opacity=".9" d="M-16 47.1l25.8-.7 13.5 14.2L.1 61.7z"/><path fill="#fff1c9" fill-opacity=".2" d="M108.3 103.6l21.5 39.6 12.9-12.4-53.2-26.2z"/><path fill="#310000" fill-opacity=".6" d="M101 112l19 11-15-2z"/><ellipse cx="123" cy="70" fill="#72756b" fill-opacity=".9" rx="2" ry="35"/><path fill="#f9d1b5" fill-opacity=".5" d="M170 142l27-75-23 19z"/><circle cx="27" cy="101" r="7" fill="#eff" fill-opacity=".5"/><path fill="#180100" fill-opacity=".3" d="M-16 128.5l13.6-68.2 78.3 49-19.5-41.4z"/><path fill="#300a0f" fill-opacity=".4" d="M113.2 158.1l-2.5-40.9 22.3 39.7-45.6 1z"/><circle r="1" fill="#aa7a5b" fill-opacity=".5" transform="matrix(-14.26301 40.21414 -1.91766 -.68015 186.6 112.6)"/><path fill="#ccd5d6" fill-opacity=".5" d="M204 185l-29-37 96-48z"/><ellipse cx="191" cy="56" fill="#001525" fill-opacity=".4" rx="4" ry="16"/><path fill="#e3ac8f" fill-opacity=".5" d="M84 79h22v12H84z"/><path fill="#dae9e3" fill-opacity=".4" d="M107.6 23l6-.6 8.8 84.6-6 .6z"/><path fill="#e5eaeb" fill-opacity=".8" d="M198 50.6l-3.5-55.4L271-8.2l-73.9 62.9z"/><path fill="#8d4c4c" fill-opacity=".9" d="M185.3 164l-17-.4 13.8-28-7.9 13.9z"/><circle cx="39" cy="105" r="7" fill="#bd8163" fill-opacity=".6"/><path fill-opacity=".4" d="M109.6 67.3l2.7 1.3-4 8.1-2.6-1.3z"/><path fill-opacity=".5" d="M47 108h6v18h-6z"/><path fill="#75482e" fill-opacity=".4" d="M20.9 83.8l18.2-18.4 11.1-1.7 4.4 45.5z"/><path fill="#8a533b" fill-opacity=".5" d="M82.7 123.1L64.1 86.6l15.2-7.7 18.6 36.5z"/><path fill="#791116" fill-opacity=".7" d="M92 150l84 19-95 16z"/><circle r="1" fill="#241815" fill-opacity=".6" transform="matrix(-.39852 9.87959 -11.85056 -.47802 79 45.8)"/><path fill="#6f6d63" fill-opacity=".8" d="M128.1 117l-19.6-11.9 16.6 15-1.3-60z"/></g></svg>