<svg xmlns="http://www.w3.org/2000/svg" viewBox="0 0 300 199"><defs/><path fill="#523829" d="M0 0h300v199H0z"/><g transform="translate(.6 .6) scale(1.17188)"><ellipse cx="101" cy="127" fill="#c8e0eb" fill-opacity=".5" rx="110" ry="168"/><circle r="1" fill="#00000b" fill-opacity=".6" transform="matrix(-11.21574 1.2977 -4.80307 -41.51175 128.5 148.2)"/><ellipse cx="69" cy="73" fill="#acbcc3" fill-opacity=".7" rx="48" ry="56"/><circle r="1" fill="#603116" fill-opacity=".5" transform="rotate(109.3 59.4 110) scale(37.72331 70.14216)"/><circle r="1" fill="#618a6a" fill-opacity=".6" transform="matrix(-57.03029 -54.51118 32.43697 -33.93597 238.1 21.8)"/><ellipse cx="195" cy="169" fill="#ffd2a9" fill-opacity=".5" rx="28" ry="42"/><path fill="#11030f" fill-opacity=".6" d="M-13.2 23.2L-16 1.4 59.7-16 52 24.7z"/><path fill="#020206" fill-opacity=".8" d="M160.9 110.1l10.3-1.2 11.4 12.8-16.6 26.4z"/><circle r="1" fill="#f6d7c7" fill-opacity=".4" transform="matrix(15.80706 41.9698 -7.44117 2.80256 173.5 80.7)"/><path fill-opacity=".5" d="M122 51h17v40h-17z"/><path fill-opacity=".6" d="M148 119h8v34h-8z"/><circle r="1" fill="#9a9ba6" transform="rotate(-175.8 25.4 67) scale(34.39906 51.79353)"/><path fill="#271606" fill-opacity=".5" d="M194 59h34v66h-34z"/><path fill="#ffd8ca" fill-opacity=".3" d="M144.6 63.7l16.1 5.3-17.3 53.3-16.1-5.3z"/><path fill="#6e6f64" fill-opacity=".7" d="M251 30l-15 138 35-12z"/><circle cy="62" r="30" fill="#909899" fill-opacity=".8"/><path fill="#a9a68d" fill-opacity=".6" d="M216 58l-7-38-75 29z"/><ellipse cx="93" cy="41" fill="#b5d2ce" fill-opacity=".5" rx="33" ry="32"/><path fill="#eae4f4" fill-opacity=".5" d="M197 164l-44.3 21 7.9-26.6-7.7-31.6z"/><ellipse cx="142" cy="58" fill="#040000" fill-opacity=".6" rx="19" ry="7"/><path fill="#238a35" fill-opacity=".5" d="M120.7 28.8l.6-30 22 .4-.6 30z"/><path fill="#2f1d0b" fill-opacity=".5" d="M221 156l-25-64 72 44z"/><path fill="#4c5377" fill-opacity=".4" d="M66.2 162.9l67.8-39.2-52.1-3.2 3.3 10.9z"/><path fill="#f8eaf4" fill-opacity=".4" d="M144 102l-17-2 20 53z"/><path fill="#d5896e" fill-opacity=".4" d="M136 62l77 25-61 24z"/><path fill="#ccccc0" fill-opacity=".9" d="M176 10.8l3.5-26.8-27 22.9L133.2-16z"/><path fill="#0f0c12" fill-opacity=".6" d="M129.8 174.8l14.6-22.6-15.6-44.6-7 77.4z"/><path fill="#cfd3cb" fill-opacity=".5" d="M163 44l18 21-54-25z"/><path fill="#d09262" fill-opacity=".4" d="M179.3 136.9l24-16.2 31.4 46.4-24 16.2z"/><path fill="#afa788" fill-opacity=".4" d="M271 134l-42-79 10 48z"/><path fill="#09080a" fill-opacity=".8" d="M178.9 115.4l-19.5-4.2 6.8 22 1.5 18.3z"/><path fill="#372511" fill-opacity=".5" d="M179-5l2 33-9-10z"/><circle r="1" fill="#bcbec7" fill-opacity=".6" transform="matrix(11.5142 -14.78936 19.95573 15.53646 98.5 92.4)"/><path fill="#267449" fill-opacity=".4" d="M111.7 76.2L107-12l60.1 8.9L99.4-.5z"/><path fill="#231e25" fill-opacity=".7" d="M143.1 91.5l-11.8-.1L116.1 67l19.9-7.8z"/><path fill="#fffcff" fill-opacity=".4" d="M171 109l15-14-9-11z"/><path fill="#5c7d6e" fill-opacity=".7" d="M53.6 52.7l-9.4-8.5 4.4-11.3L56.3-16z"/><circle r="1" fill="#decdcf" fill-opacity=".5" transform="matrix(4.54812 6.6673 -4.11 2.80365 159.2 128.2)"/><ellipse cx="148" cy="168" fill="#ffa678" fill-opacity=".5" rx="9" ry="19"/><ellipse cx="135" cy="31" fill="#c7e5cc" fill-opacity=".4" rx="6" ry="18"/><circle cx="147" cy="124" r="4" fill="#000004" fill-opacity=".7"/><path fill-opacity=".6" d="M154.1 141.9l1-.3 4.8 22.5-1 .3z"/><circle r="1" fill="#006731" fill-opacity=".4" transform="matrix(-5.04404 .97284 -5.20941 -27.00993 195.7 10.7)"/><path fill="#bcbfce" fill-opacity=".4" d="M25 140l81-42-76 87z"/><path fill="#2f3c1c" fill-opacity=".5" d="M228 49l34 13-85 2z"/><path fill="#47627e" fill-opacity=".5" d="M113 110h9v60h-9z"/><path fill="#7b8c9f" fill-opacity=".5" d="M271 119l-40 45 24-3z"/><path fill="#becec4" fill-opacity=".5" d="M155 47L142-3l14-13z"/><path fill="#4b515b" fill-opacity=".4" d="M12.8 103.4l7.6 18.5-23.8-6 6.8-49.1z"/><path fill="#a68181" fill-opacity=".7" d="M121.8 86.5l21.3 9.4 22 28.2-19.2-6.5z"/><circle cx="233" cy="68" r="4" fill="#fffffc" fill-opacity=".6"/><path fill="#0f6028" fill-opacity=".5" d="M130 48l-2-64-8 34z"/><path fill="#4f5a71" fill-opacity=".6" d="M86.8 160.1L70.9 185l12.5-61.1 10-4.1z"/><path fill="#b8d0ce" fill-opacity=".6" d="M115 42l7-58-14 22z"/><path fill="#151b0d" fill-opacity=".4" d="M144.4 41l4.4 6.6 10.6-8.5 7.1-6.6z"/><path fill="#6c716d" fill-opacity=".6" d="M12.8 24.2l41.5-10.1-27 17.2-28.8 24.4z"/><path fill="#96907d" fill-opacity=".7" d="M204 50L184 0l-11 66z"/><ellipse cx="231" cy="10" fill="#2c5132" fill-opacity=".3" rx="24" ry="38"/><ellipse cx="102" cy="156" fill="#9dc3ff" fill-opacity=".2" rx="18" ry="15"/><path fill="#a8babe" fill-opacity=".7" d="M35.9 94.5l73.5-65.1-97.2 30.4 20.5-30.1z"/><circle r="1" fill="#896747" fill-opacity=".8" transform="matrix(4.17895 -9.94907 12.1492 5.10308 188 77)"/><circle cx="3" cy="35" r="3" fill="#fff" fill-opacity=".7"/><path fill="#2f1406" fill-opacity=".4" d="M210 97l-22 32-6-9z"/><circle r="1" fill="#f9fbf0" fill-opacity=".6" transform="matrix(-.71194 4.49502 -3.9282 -.62217 174 29.6)"/><path fill="#f3e9f4" fill-opacity=".3" d="M171.1 138.5l29.2-15.4-46.5 46.1 13.1 14z"/></g></svg>