<svg xmlns="http://www.w3.org/2000/svg" viewBox="0 0 300 199"><defs/><path fill="#626433" d="M0 0h300v199H0z"/><g transform="translate(.6 .6) scale(1.17188)"><circle r="1" fill="#cfd4e6" fill-opacity=".7" transform="matrix(4.74284 75.16016 -106.90827 6.74625 121.2 0)"/><circle r="1" fill="#00001b" fill-opacity=".8" transform="matrix(-80.55915 -71.59181 19.29758 -21.71473 15.5 122.5)"/><circle r="1" fill="#010622" fill-opacity=".7" transform="matrix(73.20592 -13.70012 7.39027 39.48956 221.4 143.5)"/><ellipse cx="208" cy="38" fill="#808695" fill-opacity=".7" rx="16" ry="132"/><ellipse cx="114" cy="108" fill="#55559d" fill-opacity=".4" rx="62" ry="47"/><ellipse cx="216" cy="27" fill="#8a928f" fill-opacity=".7" rx="43" ry="35"/><circle r="1" fill="#ebf3fd" fill-opacity=".5" transform="rotate(-93.3 60.4 -41.6) scale(19.03344 61.07)"/><circle r="1" fill="#5c4060" fill-opacity=".5" transform="matrix(-30.26357 -16.84255 21.2462 -38.17628 34.8 67.2)"/><circle r="1" fill="#15000a" fill-opacity=".5" transform="matrix(15.9252 3.37375 -11.97957 56.54742 184.5 123.4)"/><ellipse cx="160" cy="86" fill="#bcb5c0" fill-opacity=".4" rx="15" ry="41"/><circle r="1" fill="#000200" fill-opacity=".7" transform="matrix(29.94384 -64.21477 26.72168 12.46052 246.8 143)"/><circle r="1" fill="#5f7c9b" fill-opacity=".6" transform="matrix(1.73277 -31.99476 22.9034 1.2404 129.7 157.3)"/><path fill="#040616" fill-opacity=".7" d="M-16 159l79-98-26 103z"/><path fill-opacity=".7" d="M116 72l10.5 9.2L110 100l-10.6-9.2z"/><path fill="#ae9f8e" fill-opacity=".5" d="M74 59L59-3 6 83z"/><path fill="#392d55" fill-opacity=".4" d="M165 57h90v33h-90z"/><ellipse cx="201" cy="163" fill="#63849c" fill-opacity=".8" rx="8" ry="28"/><path fill="#1b0000" fill-opacity=".5" d="M138 92l26-4-27-26z"/><path fill="#e1f0ff" fill-opacity=".5" d="M2 72.8L-9.7 29.3l7.7-2L9.7 70.6z"/><circle r="1" fill="#020923" fill-opacity=".6" transform="matrix(-7.09903 47.61792 -5.71859 -.85254 96.2 159.1)"/><ellipse cx="238" cy="96" fill="#cedaff" fill-opacity=".6" rx="6" ry="8"/><path fill="#f2f4fb" fill-opacity=".5" d="M80 0h10v81H80z"/><path fill-opacity=".5" d="M9 28h13v34H9z"/><path fill="#000008" fill-opacity=".6" d="M140 117l24 44 33-16z"/><path fill="#010514" fill-opacity=".7" d="M264.4 97.9l-1.9 3.6L234 87.3l-7.3-29.6z"/><path fill="#8e8a8c" fill-opacity=".6" d="M86 135l17-50-55 36z"/><ellipse cx="206" cy="76" fill="#bce0f4" fill-opacity=".2" rx="9" ry="34"/><ellipse cx="154" cy="53" fill="#d4dcdc" fill-opacity=".5" rx="12" ry="27"/><path fill="#0d0000" fill-opacity=".6" d="M208 113l-49-2 34 28z"/><path fill="#172744" fill-opacity=".5" d="M91 109l1 31 59-27z"/><path fill="#000004" fill-opacity=".7" d="M82.1 101.7l-17.6-7 3.4-8.4 17.6 7z"/><path fill="#93a7c1" fill-opacity=".5" d="M172.4 93l-6.1-5 19.3-23 6.1 5z"/><ellipse cx="128" cy="68" fill="#b4b3a0" fill-opacity=".6" rx="5" ry="35"/><path fill="#220b00" fill-opacity=".4" d="M183.4 46.1l-18.5 18.1-.9 3 17.4 22.3z"/><path fill="#676a7f" fill-opacity=".7" d="M21.5 29l-29 7.7-10-37.7 29-7.7z"/><path fill="#95988a" fill-opacity=".9" d="M235 26.8l-66.6-1 14 32 42.7 4.1z"/><path fill="#ccccc5" fill-opacity=".6" d="M167 128l-28-26 13-12z"/><circle cx="59" cy="95" r="9" fill="#b29597" fill-opacity=".5"/><path fill="#aecbdb" fill-opacity=".3" d="M206.8 135.7l13.6 14.8.3-9.6-13.8-49.6z"/><path fill="#464e5f" fill-opacity=".6" d="M11.4 157.9l11.5-16 5.1 31.3-44-3.7z"/><path fill="#0f1530" fill-opacity=".7" d="M85.6 92.1l16.7-14.6 5-11.2-15 9.6z"/><ellipse cx="31" cy="32" fill="#233426" fill-opacity=".4" rx="26" ry="5"/><circle r="1" fill="#002f78" fill-opacity=".6" transform="matrix(15.5414 7.57565 -4.07017 8.34993 13.2 102.6)"/><circle r="1" fill="#000003" fill-opacity=".7" transform="matrix(6.91879 -11.64838 53.8315 31.97429 51.2 147.6)"/><path fill="#000018" fill-opacity=".6" d="M65 76V55l-34 48z"/><ellipse cx="188" cy="21" fill="#f9fff6" fill-opacity=".5" rx="21" ry="3"/><path fill="#fff" fill-opacity=".4" d="M256 67h-9l15 17z"/><circle r="1" fill="#e9f2e8" fill-opacity=".5" transform="matrix(.15055 1.6869 -59.72564 5.33037 208.8 19.7)"/><path fill="#3e4a5f" fill-opacity=".6" d="M225.4-9l33.7-4.7 3.5 24.7-33.7 4.7z"/><path fill="#424947" fill-opacity=".5" d="M194 22l34 7 33-11z"/><path fill="#000100" fill-opacity=".5" d="M215 141l23-38-12-11z"/><path fill="#02000e" fill-opacity=".5" d="M44 143l-8-74 20 37z"/><path fill="#fefee0" fill-opacity=".3" d="M120.4 77.8L65.3 51.6 29 45.9l71.6-5.1z"/><path fill="#2b3434" fill-opacity=".5" d="M164 26h33v4h-33z"/><path fill="#1d0402" fill-opacity=".3" d="M55.4 78.8l25.1 18.7-17 25.9 25-4.7z"/><path fill="#edf3ff" fill-opacity=".2" d="M72 134.9l22.8-39.5-29.3 9 45.6-.3z"/><circle r="1" fill="#753c21" fill-opacity=".5" transform="rotate(8.3 -450 1390) scale(5.36709 22.25276)"/><path fill="#b3b4be" fill-opacity=".4" d="M220.8 75.8l-5.7-1.7 32.8 32.4-15.6-25.6z"/><path fill="#94b0d9" fill-opacity=".5" d="M200 93h24v14h-24z"/><path fill="#00356c" fill-opacity=".5" d="M126 160h33v10h-33z"/><path fill="#d3e8fa" fill-opacity=".5" d="M154 31l22-2-5 32z"/><path fill="#e7eaf4" fill-opacity=".4" d="M4.6-3.4l5.6-18.1 127.2 38.9-5.6 18.1z"/><path fill="#bdb9b5" fill-opacity=".5" d="M130 179l-14-32-7 10z"/><path fill="#130000" fill-opacity=".5" d="M172 127l39-14-33-22z"/><ellipse cx="255" cy="47" fill="#1c1224" fill-opacity=".3" rx="10" ry="20"/></g></svg>