<svg xmlns="http://www.w3.org/2000/svg" viewBox="0 0 300 199"><defs/><path fill="#584c3d" d="M0 0h300v199H0z"/><g transform="translate(.6 .6) scale(1.17188)"><circle r="1" fill="#8f9bb2" fill-opacity=".7" transform="matrix(7.30808 -70.94604 253.65779 26.12903 114 29)"/><circle r="1" fill="#10131a" fill-opacity=".5" transform="matrix(-42.77184 -20.19392 44.1573 -93.52758 100.9 118.8)"/><circle r="1" fill="#c3c6d1" fill-opacity=".7" transform="rotate(-123.7 36.6 -11) scale(27.52518 67.00734)"/><circle r="1" fill-opacity=".5" transform="rotate(-11.2 650.9 -1032.3) scale(5.89681 113.53287)"/><path fill="#d0dbdf" fill-opacity=".4" d="M191 51l12 65-69-45z"/><path fill="#bbd1f4" fill-opacity=".5" d="M14.2 122.4L-.5 116l22.3-52.5L36.5 70z"/><circle cx="88" cy="89" r="15" fill="#ab9e90" fill-opacity=".7"/><circle cx="244" cy="143" r="30" fill="#000a00" fill-opacity=".5"/><circle r="1" fill="#00000a" fill-opacity=".6" transform="matrix(2.7374 .7793 -27.53046 96.70348 38 76.8)"/><ellipse cx="121" cy="149" fill="#13120d" fill-opacity=".5" rx="69" ry="45"/><circle r="1" fill="#000001" fill-opacity=".5" transform="rotate(98 31.2 48.2) scale(28.35891 2.82654)"/><path fill="#000004" fill-opacity=".6" d="M14-16L39-6-6 23z"/><ellipse cx="228" cy="41" fill="#c1c7d3" fill-opacity=".3" rx="20" ry="74"/><path fill-opacity=".6" d="M6.6 84.6l38-104.3 2.8 1-38 104.4z"/><path fill="#475067" fill-opacity=".7" d="M158.4 4.8L177.5 50l-35.9 15.3L122.5 20z"/><path fill="#fff" fill-opacity=".4" d="M75 82l17-97 21 18z"/><circle r="1" fill="#423f3e" fill-opacity=".6" transform="rotate(176.2 70.7 54.8) scale(32.79146 15.40538)"/><circle r="1" fill="#06060e" fill-opacity=".5" transform="matrix(-11.78715 81.79717 -2.6941 -.38823 75.6 58.5)"/><path fill="#eef7ff" fill-opacity=".6" d="M46-15.5l14.3 4.4L38 61.5l-14.4-4.4z"/><path fill="#c8d5f2" fill-opacity=".5" d="M40.2 83.4l14-36.4 19.6 7.6-14 36.4z"/><path fill="#6d778c" d="M108.4 71.8l2.6-28.2-26.4-13.3 41.8-5.4z"/><path fill="#bac7e5" fill-opacity=".6" d="M197 47l-24 6 8-69z"/><ellipse cx="5" cy="122" fill="#0c0e18" fill-opacity=".3" rx="208" ry="14"/><path fill="#fffff2" fill-opacity=".4" d="M129.5 116.4l17.6-16.4 3.4 3.6-17.6 16.4z"/><path fill="#0e0700" fill-opacity=".5" d="M144.5 57.1L82.3 78l54.7-6.5 7.1 59.5z"/><path fill="#f4f9ff" fill-opacity=".6" d="M64.9-5.8l19.4 4.5-7.2 31.1-19.4-4.5z"/><path fill-opacity=".7" d="M122 .7l-18.4 34.5-3.5-2 18.3-34.4z"/><path fill="#fff" fill-opacity=".6" d="M112 21l11-21v28z"/><path fill="#a5bff2" fill-opacity=".5" d="M131 32h9v23h-9z"/><path fill="#dabf9d" fill-opacity=".5" d="M111 74h11v24h-11z"/><ellipse cx="127" cy="61" fill="#070811" fill-opacity=".6" rx="3" ry="148"/><path fill="#fff" fill-opacity=".6" d="M133 17l-4-26 15 21z"/><path fill="#94ccff" fill-opacity=".5" d="M220.6 75.7l24.3-5.6 6.5 28.2-24.3 5.6z"/><path fill="#9ea4b3" fill-opacity=".9" d="M12.1 116l-21.9 15.2 29.4-94.3-31.3 74.5z"/><path fill="#917b69" fill-opacity=".5" d="M149 146h20v24h-20z"/><path fill="#452601" fill-opacity=".3" d="M71.7 26.7l65.6 9-61.6-1.6L35.4 62z"/><path fill="#e8f4ff" fill-opacity=".6" d="M-8 29l24-18-32 71z"/><path fill="#000408" fill-opacity=".7" d="M31.5 109.1l-12.4 57.3L90.9 178-1 183.9z"/><path fill="#92bef2" fill-opacity=".6" d="M189 114l-34-39 34-6z"/><path fill-opacity=".4" d="M-3.7 58.6L22-2.2l3.6 1.6L0 60.2z"/><path fill="#dfebff" fill-opacity=".5" d="M37.8-4.2L19.1 43.1 4.3 61l13.9-49.9z"/><path fill="#f4eef3" fill-opacity=".2" d="M178.2 134.6l41.4 18.6-7.3-25.1-30.1-.9z"/><path fill="#000004" fill-opacity=".4" d="M123.4 45.7l33.4-39.5-21.4-5 18-17.2z"/><circle r="1" fill="#93a6cd" fill-opacity=".7" transform="matrix(.65692 -28.8048 13.57123 .3095 212.6 16.4)"/><path fill="#fffbf7" fill-opacity=".5" d="M142 1.5l-3.2-7 23-4.9 4.5 20.6z"/><path fill="#a0978a" fill-opacity=".6" d="M204.9 89.1l4.5 25.7-58.9-12.7 16 16.6z"/><circle r="1" fill="#06070d" fill-opacity=".5" transform="rotate(26.4 -94.6 275.5) scale(3.53648 26.54951)"/><path fill="#9babc9" fill-opacity=".7" d="M21 56L8.8 100.7l19.8-1.3 13.9-46z"/><circle r="1" fill="#bd9764" fill-opacity=".5" transform="matrix(-5.37317 -29.86285 7.4951 -1.34858 195.7 79.6)"/><path fill="#596175" fill-opacity=".8" d="M50.2 86.6l16.2 4.2-7.3 31-10.6-17.5z"/><path fill="#9fb7e3" fill-opacity=".6" d="M134 52h20v6h-20z"/><path fill="#c3b7a3" fill-opacity=".4" d="M130.6 96.1L128.7 86l2.4-19.7 9.7 7.3z"/><path fill="#090200" fill-opacity=".6" d="M172 42l-32 23 26-8z"/><path fill="#824d04" fill-opacity=".3" d="M235.8 69.7l-29.9-6.4L271 13.2l-60.3 30z"/><path fill="#0c090a" fill-opacity=".5" d="M158 116h98v11h-98z"/><path fill="#001330" fill-opacity=".4" d="M177.1 95.2l3.8 10.8 2.8 10.7-37.4-32z"/><circle r="1" fill="#727174" fill-opacity=".6" transform="matrix(4.31003 .89416 -4.83909 23.32533 47 165.5)"/><circle r="1" fill="#060a1c" fill-opacity=".5" transform="rotate(167.5 99.3 50) scale(3.69602 93.23367)"/><path fill-opacity=".6" d="M96 45L82 60l19-4z"/><path fill="#000318" fill-opacity=".5" d="M7.1 102.5L8.6 85-16 127.3v27.1z"/><path fill="#8598be" fill-opacity=".7" d="M155.8 12.6l-26.7 21.6 47-20.4 12.2 35.4z"/><circle r="1" fill="#fdffff" fill-opacity=".5" transform="matrix(-7.145 -1.3411 4.2788 -22.7963 98.4 9.2)"/><path fill="#bbd3fd" fill-opacity=".5" d="M167 34l-4 14-7-19z"/><path fill="#423b31" fill-opacity=".5" d="M245.2 65.1L271 73l-23.3-14-40.9 10.5z"/><path fill="#a8937d" fill-opacity=".6" d="M271 97l-51 14 31 1z"/></g></svg>