<svg xmlns="http://www.w3.org/2000/svg" viewBox="0 0 300 199"><defs/><path fill="#49273c" d="M0 0h300v199H0z"/><g transform="translate(.6 .6) scale(1.17188)"><circle r="1" fill="#c1c3ff" fill-opacity=".6" transform="matrix(4.56115 49.71187 -198.34733 18.19872 181.1 5.4)"/><circle r="1" fill="#f7e2ff" fill-opacity=".6" transform="matrix(69.35461 -1.1325 .3648 22.34021 162.3 15.8)"/><ellipse cx="30" cy="21" fill="#00177a" fill-opacity=".4" rx="59" ry="25"/><circle r="1" fill="#714590" transform="matrix(-23.70984 29.06828 -17.54827 -14.31343 130.6 62.7)"/><path fill="#6b62cf" fill-opacity=".7" d="M233 0h23v112h-23z"/><path fill="#000a4c" fill-opacity=".4" d="M0 81h256v89H0z"/><circle r="1" fill="#001" fill-opacity=".5" transform="matrix(-12.01032 1.45653 -3.87344 -31.93978 191.3 71.7)"/><path fill="#100017" fill-opacity=".5" d="M194 128.1l-63.6-80.9 33.7.1 37.5 53.5z"/><path fill="#8e75d5" fill-opacity=".5" d="M236.4 122l-20.5-14.3L229.6 88l20.5 14.3z"/><path fill="#000605" fill-opacity=".7" d="M84.9 95.1l1.8-38.8 32.7 38.4-7.4 20.7z"/><ellipse cx="152" cy="131" fill="#ff17d4" fill-opacity=".2" rx="7" ry="79"/><path fill="#9868ff" fill-opacity=".5" d="M118 59h16v36h-16z"/><path fill="#9281e4" fill-opacity=".5" d="M53 105l30-7 23 14z"/><ellipse cx="85" cy="43" fill="#9a8883" fill-opacity=".6" rx="74" ry="8"/><path fill-opacity=".5" d="M211 53h19v40h-19z"/><path fill="#e4a4fe" fill-opacity=".5" d="M120.7 61.6l-16.2 19.5-1.2-2.2.8-47z"/><path fill="#2b3164" fill-opacity=".8" d="M-29.8 35.7l42-12.8 17.6 57.4-42 12.8z"/><path fill-opacity=".6" d="M258.6 58.5L240 66l-2.6-6.5L256 52z"/><path fill="#b5aeff" fill-opacity=".5" d="M233 42h11v43h-11z"/><path fill="#846dfc" fill-opacity=".4" d="M203 31h7v97h-7z"/><path fill="#d8caf9" fill-opacity=".6" d="M53-10l192-4-40 55z"/><path fill="#502f71" fill-opacity=".7" d="M71.4 42L61.2 3.7l90.7 67.9-38.2-38.2z"/><path fill="#41b3ff" fill-opacity=".5" d="M32.6 57l-20.4-8.3L19.4 31l20.4 8.2z"/><path fill="#ff8aff" fill-opacity=".5" d="M158 146h11v7h-11z"/><path fill="#cdadbc" fill-opacity=".6" d="M136 49l-17-63L77 8z"/><path fill="#171226" fill-opacity=".7" d="M8 115h136v28H8z"/><path fill="#eadaf0" fill-opacity=".5" d="M164 0h17v53h-17z"/><path fill="#020500" fill-opacity=".5" d="M269 112l2 27-102-7z"/><path fill="#624cbb" fill-opacity=".7" d="M171 32l-6 10-18-14z"/><ellipse cx="232" cy="46" fill="#a7affd" fill-opacity=".6" rx="40" ry="5"/><path fill="#0e082a" fill-opacity=".7" d="M183.3 35.5L171.8 185l34.5-113.2 13.2 10z"/><path fill="#460039" fill-opacity=".6" d="M132 56l-14-22-9 11z"/><path fill="#191c83" fill-opacity=".7" d="M138.6 110.3L116 138.5l.2-78.1 11.7 86.8z"/><path fill="#9685ff" fill-opacity=".5" d="M243 23l-11-39-30 52z"/><path fill="#554691" fill-opacity=".7" d="M271 11l-71 33 57-8z"/><path fill="#000103" fill-opacity=".5" d="M117 143h38v15h-38z"/><path fill="#ac9672" fill-opacity=".4" d="M37 38h69v21H37z"/><path fill="#472e5e" d="M271 89l-26.9 8.7-12.6 9.2 3.2-16.8z"/><path fill="#d649ce" fill-opacity=".6" d="M198.3 52.5l3.3-3.7 14.1 12.7-3.3 3.7z"/><ellipse cx="163" cy="165" fill="#3c2363" fill-opacity=".7" rx="149" ry="6"/><circle r="1" fill="#45384e" fill-opacity=".5" transform="matrix(.04157 23.81846 -43.10063 .07522 40.4 91)"/><path fill="#040b0f" fill-opacity=".4" d="M37.5 62.9l8-19.9-10.6-1.9-15.7 100.2z"/><path fill="#0b0925" fill-opacity=".5" d="M169 54h27v103h-27z"/><path fill="#11000a" fill-opacity=".5" d="M136 68h9v61h-9z"/><path fill="#b22496" fill-opacity=".8" d="M155.8 81.4l-14.3-19.2 12.1 6.3-25.2 14.7z"/><path fill="#f4e6c7" fill-opacity=".6" d="M108 22h27v14h-27z"/><path fill="#190104" fill-opacity=".5" d="M134 46.9l2.1 11.5 8.9 4.1 23.5-11.1z"/><path fill="#010701" fill-opacity=".5" d="M85 58h18v45H85z"/><path fill="#9581ff" fill-opacity=".6" d="M234 64h22v14h-22z"/><path fill="#120e20" fill-opacity=".9" d="M109 123l-2.5 8-10.9-46.6 24-5.8z"/><path fill="#0c0925" fill-opacity=".6" d="M248 63l-10-1 11-14z"/><path fill="#5394d6" fill-opacity=".5" d="M-6 24l38-8-46-32z"/><path fill="#8671ce" fill-opacity=".4" d="M91.1 113.6l-31.7-9.8 32.7 1.1 18 4.3z"/><path fill="#d3b9b7" fill-opacity=".6" d="M90.1 44.3L111 59.5l-1.4-35.6L157 9.2z"/><ellipse cx="239" cy="107" fill="#7867cf" fill-opacity=".7" rx="24" ry="4"/><circle cx="188" cy="43" r="6" fill="#290f24" fill-opacity=".8"/><path fill="#775ad0" fill-opacity=".9" d="M118.9 69.3l31.8-3.4-23.6-10.8-8.4 41.6z"/><path fill="#fff8e2" fill-opacity=".5" d="M139 40.4v5l-16 .2v-5z"/><path fill="#090740" fill-opacity=".7" d="M246.5 31h1l2 30h-1z"/><path fill="#000504" fill-opacity=".6" d="M212 103l19-53 3 29z"/><path fill="#f84ff2" fill-opacity=".3" d="M160.7 164.5l5.6-36.2 3.3 27.3-12.4-9.5z"/><path fill="#6d5bef" fill-opacity=".5" d="M126.6 95.2l-10.2-4 19.8-10.1 3.2 11.3z"/><path fill-opacity=".5" d="M69 43h2v20h-2z"/><path fill="#291224" fill-opacity=".5" d="M42 42h35v2H42z"/><path fill="#b7bcfe" fill-opacity=".4" d="M230 40h26v14h-26z"/></g></svg>