<svg xmlns="http://www.w3.org/2000/svg" viewBox="0 0 300 199"><defs/><path fill="#592c2d" d="M0 0h300v199H0z"/><g transform="translate(.6 .6) scale(1.17188)"><circle r="1" fill="#d7dcd0" fill-opacity=".5" transform="rotate(80.1 16 85.3) scale(183.46552 64.71833)"/><ellipse cx="28" cy="4" fill="#d9d0af" fill-opacity=".8" rx="141" ry="14"/><path fill="#3b2221" fill-opacity=".7" d="M-16 75l98-44-64 125z"/><ellipse cx="189" cy="41" fill="#000f1c" fill-opacity=".6" rx="26" ry="130"/><circle r="1" fill="#03070c" fill-opacity=".9" transform="matrix(20.70385 -.40573 2.69465 137.50284 255 88.8)"/><path fill="#3f1611" fill-opacity=".4" d="M88 56l41 112 20-120z"/><ellipse cx="86" cy="169" fill="#aeaab2" rx="33" ry="79"/><path fill="#d4e9d9" fill-opacity=".5" d="M213.5 46.5l8.9 28.8 1.4 75.7L237 33.3z"/><circle r="1" fill="#d1d9f8" fill-opacity=".4" transform="matrix(14.93422 -1.75308 4.71704 40.18376 154.6 120.3)"/><circle r="1" fill="#cbbea2" transform="matrix(-16.42785 13.7846 -16.54252 -19.7146 98.8 24)"/><ellipse cx="220" cy="150" fill="#78726b" fill-opacity=".6" rx="19" ry="41"/><ellipse cx="180" cy="169" fill="#0f090d" fill-opacity=".8" rx="21" ry="27"/><circle r="1" fill="#1d1419" transform="matrix(28.72853 -2.28503 2.6361 33.14248 188.2 79.8)"/><path fill="#642317" fill-opacity=".5" d="M-3-2l48 180 19-68z"/><path fill="#323e42" fill-opacity=".6" d="M107.3 132.9l1.2 10.9-31.8 3.3-1.2-10.9z"/><circle r="1" fill="#ecffff" fill-opacity=".2" transform="rotate(-94.3 92.3 63.6) scale(22.26968 44.98539)"/><path fill="#070000" fill-opacity=".5" d="M130 131l18.4 60.2L136 195l-18.4-60.2z"/><path fill="#220c01" fill-opacity=".4" d="M115.5 15.1l20.8 16.2-2.5 78.2 15.8-42z"/><circle cx="218" cy="10" r="29" fill="#0b1421" fill-opacity=".6"/><path fill="#ebe6ba" fill-opacity=".4" d="M43 64L67 7 15-11z"/><path fill="#b88f84" fill-opacity=".5" d="M116 49l14 55-90-18z"/><path fill="#c7bdc2" fill-opacity=".5" d="M136.3 31.3l13.3 35.6-.2 71.2 16.2-103.6z"/><circle r="1" fill="#041013" fill-opacity=".6" transform="rotate(13.5 -470.2 73.4) scale(9.43595 59.02175)"/><path fill="#faffff" fill-opacity=".5" d="M84 106h18v24H84z"/><circle r="1" fill="#3e384b" fill-opacity=".6" transform="matrix(-6.23713 -9.35219 31.70338 -21.14353 176.9 10.7)"/><path fill="#a49167" fill-opacity=".8" d="M100.6 14.3l42.8-19.6 10.8 8.2L19.6-16z"/><path fill="#714b41" d="M-16 18.2L6.9 84.7.1 11l28.5 9z"/><circle r="1" fill="#efece0" fill-opacity=".6" transform="rotate(-130.5 40.8 -10) scale(59.16524 5.49827)"/><path fill="#7c574c" d="M111.2 72.3l-16-25.4-4.8 3.9.2 40.7z"/><path fill="#0b4b62" fill-opacity=".4" d="M79.4 103l12.5 47.1L81 133l-6.8 6.8z"/><path fill="#e5e0ca" fill-opacity=".7" d="M173.3-16l-36.4 38.7-13.7-35.2L160 15.8z"/><path fill="#000014" fill-opacity=".4" d="M76 58L41 79l9-37z"/><path fill="#040200" fill-opacity=".5" d="M209 76h12v55h-12z"/><path fill="#e7ecf0" fill-opacity=".3" d="M215 158l-11-32-2 46z"/><path fill="#e7e1d2" fill-opacity=".5" d="M231 64l4-31-24 38z"/><path fill="#b5775a" fill-opacity=".4" d="M66.2 30l25-1.5-25.8 71.9-23.7 23z"/><path fill="#696464" fill-opacity=".6" d="M9.5 141.9l17.1-7.6-2.6-6.6 1.9-41.8z"/><circle r="1" fill="#d5b1a6" fill-opacity=".5" transform="matrix(19.67672 -.4036 .13293 6.48047 84.7 68.9)"/><path fill="#fffbeb" fill-opacity=".3" d="M127.7-1.2l21.9 27.3-36.8-22.3-4.2 47.5z"/><path fill="#73472f" fill-opacity=".6" d="M140.1 33.9L130.9 14l-9 .8-4.2 11.4z"/><path fill="#453b44" fill-opacity=".4" d="M103.1 37.3l29.3 36 105.4-51.2-103.1 37.7z"/><path fill="#430608" fill-opacity=".5" d="M58.7 134.4L28.8 95.8l-5 40.2h28z"/><circle r="1" fill="#020508" fill-opacity=".5" transform="rotate(-94 167.5 -57.9) scale(44.48982 3.84959)"/><path fill="#2a262b" fill-opacity=".4" d="M111.4 121.2l26.8 37.8-28.9-63-9.9 51.5z"/><path fill="#917423" fill-opacity=".4" d="M102.4 35.4l-11.3-3.9 6.5-19 11.3 4z"/><path fill="#c6c3c5" fill-opacity=".7" d="M81.6 81.5l4.9 16.1 5-30L74 71.4z"/><path fill="#704334" fill-opacity=".5" d="M73.4 19l5 25.6L66.6 47l-5-25.5z"/><path fill="#fdb09a" fill-opacity=".3" d="M115.6 82l5.1-3.2-20.6.8 31.7 52.9z"/><path fill="#7e706b" fill-opacity=".8" d="M219.2 115.6l8.6-50.9 6.6 56.2-2.3 11.5z"/><circle r="1" fill="#c7c2cc" fill-opacity=".5" transform="rotate(-19 393.2 -426.7) scale(6.53786 27.45832)"/><path fill="#834f3e" fill-opacity=".8" d="M23.6 67.2l3.9 8 13.9-14.1-3.7-15.8z"/><path fill="#c9aaa0" fill-opacity=".6" d="M54 77l-4 27.8 23.4-22.1L76 95.3z"/><path fill="#d0cfc6" fill-opacity=".6" d="M221 17.6l-4.5 6.1.4-2 1.6-10z"/><circle r="1" fill="#cebece" fill-opacity=".6" transform="rotate(-93.9 132.5 29.8) scale(25.17167 9.84491)"/><path fill="#06102c" fill-opacity=".6" d="M52 42.8l-9.1 51.9 7.2-8.6 11.4-44.7z"/><path fill="#744b44" fill-opacity=".8" d="M82.3 63.5L82 83.8l5.8-29.4 20.9 6.6z"/><path fill="#292635" fill-opacity=".6" d="M171.7 53.5l-4.1 18.4 47.8-45.3-67.8-15.7z"/><path fill="#001117" fill-opacity=".3" d="M122.5 89.3l14.1 39.2 10.3-77.7 3.5 17.8z"/><path fill="#fffcff" fill-opacity=".4" d="M145 45l-4 12 21-15z"/><path fill="#dcd8c3" fill-opacity=".6" d="M-16 8.1l38.3 7.7L56.5-16-16 6.8z"/><path fill="#fad6f5" fill-opacity=".2" d="M87.1 181.8l-14.8-3.2-24.9 5.1 22.1-80.3z"/><path fill="#fcfbec" fill-opacity=".6" d="M81 6l12 20L40 6z"/><ellipse cx="43" fill="#bfb393" fill-opacity=".6" rx="8" ry="60"/><path fill="#968081" fill-opacity=".6" d="M130.4 133.4l-2.5-71.1-22.4 1.6 11.7-23.5z"/><ellipse cx="4" cy="31" fill="#622212" fill-opacity=".5" rx="26" ry="18"/></g></svg>