<svg xmlns="http://www.w3.org/2000/svg" viewBox="0 0 299 449"><defs/><path fill="#593731" d="M0 0h299v449H0z"/><g transform="translate(.9 .9) scale(1.7539)"><circle cx="49" cy="123" r="184" fill="#f4f3f1" fill-opacity=".7"/><path fill="#7a5546" fill-opacity=".5" d="M146 214l33-106L10 98z"/><circle r="1" fill="#604a3a" fill-opacity=".6" transform="matrix(-13.27936 -16.71885 23.40125 -18.58703 75 26.5)"/><circle r="1" fill="#fcffff" fill-opacity=".6" transform="matrix(-17.04517 119.65887 -23.10725 -3.29158 15.6 66.9)"/><circle r="1" fill="#f4f7ff" fill-opacity=".5" transform="matrix(64.39412 -10.594 5.01984 30.51236 47.7 228)"/><path fill="#010000" fill-opacity=".6" d="M128.9 110.3l-18 1.3-1.8-26 18-1.2z"/><circle r="1" fill="#f8f3f6" fill-opacity=".6" transform="matrix(-7.90667 18.46786 -18.38129 -7.86961 107.8 161)"/><path fill-opacity=".5" d="M116 125l42 31-8 30z"/><circle r="1" fill="#fff" fill-opacity=".5" transform="rotate(160.7 21.4 49) scale(13.10114 40.8832)"/><circle r="1" fill="#e1e7ee" fill-opacity=".5" transform="rotate(-24.2 185 -295) scale(27.7198 71.85044)"/><circle r="1" fill="#4e0000" fill-opacity=".4" transform="matrix(5.0657 .7344 -7.80472 53.83532 87 141.2)"/><circle r="1" fill="#3e3022" fill-opacity=".6" transform="rotate(119.2 40.8 112) scale(11.61442 32.76267)"/><circle r="1" fill="#391202" fill-opacity=".5" transform="rotate(-105.8 65.7 45.9) scale(27.06096 7.16394)"/><path fill="#fafbfd" fill-opacity=".6" d="M-20.5 140.1L37.2 128l9.3 44-57.7 12.2z"/><circle r="1" fill-opacity=".7" transform="matrix(-6.8369 -12.14099 5.56015 -3.13106 91.4 14)"/><circle r="1" fill="#3d0800" fill-opacity=".5" transform="rotate(-77.3 232.9 35.6) scale(21.43458 7.13742)"/><path fill="#8c5e55" fill-opacity=".5" d="M65 191l46-99-17-67z"/><path fill="#121400" fill-opacity=".6" d="M73.6 22.3l-8.7 13.4-18.5-12 8.7-13.4z"/><ellipse cx="73" cy="16" fill="#ebd7d3" fill-opacity=".5" rx="6" ry="139"/><path fill="#fffff9" fill-opacity=".4" d="M105 101.8l39.8 33.5-5.8 6.9-39.8-33.5z"/><path fill="#d2bbb3" fill-opacity=".6" d="M90 137l41 75 7-61z"/><path fill="#511a0f" fill-opacity=".5" d="M103 110L68 90l22 43z"/><path fill="#ebf1fc" fill-opacity=".4" d="M0 65h91v30H0z"/><path fill="#ece8eb" fill-opacity=".5" d="M107.6 108.3l-15.3 32.8L83.9 271l23.7-108.5z"/><circle r="1" fill="#b38172" fill-opacity=".5" transform="matrix(16.7451 -15.39487 15.92332 17.3199 60.2 143.7)"/><path fill="#400e00" fill-opacity=".4" d="M60.5 131.5l-28.8-5.4-3.6-19.3 6.2-16.1z"/><ellipse cx="56" cy="44" fill="#9e806c" rx="5" ry="20"/><ellipse cx="132" cy="233" fill="#fff" fill-opacity=".5" rx="10" ry="15"/><path fill="#d6d2d0" fill-opacity=".6" d="M126.6 9.6l18.9 118-4.9-9.3-12.7-10.8z"/><path fill="#371202" fill-opacity=".5" d="M93 62l34 27-2 20z"/><path fill="#9b7f72" d="M79 18.5l-.7 44.8 24.1-.1.3-25.3z"/><path fill="#1b0c04" fill-opacity=".4" d="M144.5 179.2l-11-8.8 8.2-28.3 21.1 23.3z"/><path fill="#9d6b5e" fill-opacity=".5" d="M128.2 165.3l9.4 7.2-22.7 25.2-15.3-10.3z"/><path fill="#d7d9db" fill-opacity=".7" d="M68-16l8 29-88-5z"/><path fill="#f8f4ec" fill-opacity=".4" d="M102 39.8l12.4 57.6-20.9-15.5 33.8-4.2z"/><path fill="#2f2c17" fill-opacity=".5" d="M46.7 17.9l25.9 2.3-1.3 14-25.9-2.4z"/><path fill="#ebebed" fill-opacity=".6" d="M59 25L-3 173l-13-80z"/><path fill="#8b5b52" fill-opacity=".8" d="M82.5 194.2l8.2-7.7L79.6 139l-7 17.6z"/><path fill="#fff8e5" fill-opacity=".5" d="M119 126l40 26-12-18z"/><path fill="#967869" fill-opacity=".9" d="M127.1 222.8l6.1-32.7 24.3-20.9-15.4 37.5z"/><path fill="#7a3320" fill-opacity=".4" d="M21 179.9l-1.7 9.5-35.3 15.3v-5.9z"/><path fill="#b69993" fill-opacity=".4" d="M93 211h31v45H93z"/><circle r="1" fill="#30100a" fill-opacity=".4" transform="rotate(-13.4 82.2 -351) scale(4.74597 32.87107)"/><path fill="#8e5c43" fill-opacity=".6" d="M62.1 176.7l10.5 20.7-15.1-1.9 3.9-21.5z"/><circle r="1" fill="#ece9ec" fill-opacity=".4" transform="matrix(34.26642 104.2872 -9.30033 3.05588 67.7 243.2)"/><ellipse cx="155" cy="255" fill="#413c32" fill-opacity=".2" rx="18" ry="28"/><path fill="#846657" fill-opacity=".8" d="M118.3 118.1l-14.3 8 30.2 21.8-6.7.6z"/><path fill="#111105" fill-opacity=".4" d="M144.6 123.9l36.2 36.2-48.8-36.9-14.2-18.7z"/><path fill="#f3f5f5" fill-opacity=".5" d="M67.2 118.3l-15-.6.6-18 15 .6z"/><circle r="1" fill="#dad9d8" fill-opacity=".7" transform="matrix(20.20447 1.20037 -1.07103 18.02746 121.8 62)"/><path fill="#7d4a3d" fill-opacity=".5" d="M184.8 103.3l.8 3-46.4 12.4-.8-3z"/><path fill="#e9f3f1" fill-opacity=".4" d="M154.1 180.1l31.9-28.5v-6.8l-22.3 10.8z"/><ellipse cx="12" cy="227" fill="#d2cecf" fill-opacity=".7" rx="21" ry="34"/><path fill="#e6c3b3" fill-opacity=".6" d="M74.1 140.4l-12-56.7 9.8-2.1 12 56.7z"/><ellipse cx="146" cy="30" fill="#cfced1" fill-opacity=".7" rx="56" ry="9"/><path fill="#f1e6e8" fill-opacity=".4" d="M67.7 231.1l24.5-53.8 32.7 30.9 13.6-31.6z"/><path fill="#895746" fill-opacity=".5" d="M41 184l-23 13 25-3z"/><path fill="#bdb0b5" fill-opacity=".6" d="M72.2 153.9l-28.6-25.8 2.7 20.8 29.9-5.3z"/><path fill="#b5a9ae" fill-opacity=".6" d="M106.9 91.3l-2.7 8.3-29.5-4.1 13-36.4z"/><path fill="#593427" fill-opacity=".5" d="M98.4 36.8l5 .6-3.8 35.8-5-.6z"/><path fill="#e9eaef" fill-opacity=".5" d="M67 40h9v44h-9z"/><path fill="#e4e3e6" fill-opacity=".6" d="M34 197h60v59H34z"/><path fill="#2e2b20" fill-opacity=".5" d="M153 117h12v28h-12z"/><path fill="#4d3b27" fill-opacity=".7" d="M52.1 37.1l.1 4.3 20.2-11.7-3.7-10.8z"/><path fill="#783e30" fill-opacity=".4" d="M116.2 82.1l-28.3 65.6-15-44.9 39.3 8.4z"/></g></svg>