<svg xmlns="http://www.w3.org/2000/svg" viewBox="0 0 300 199"><defs/><path fill="#3e342c" d="M0 0h300v199H0z"/><g transform="translate(.6 .6) scale(1.17188)"><path fill="#f9f9f6" fill-opacity=".6" d="M250.1 127.7L-4.5 141.1-12.1-3.7l254.6-13.4z"/><circle r="1" fill="#3f281c" fill-opacity=".6" transform="matrix(-9.82166 76.1883 -10.88875 -1.4037 174.3 113.7)"/><ellipse cx="242" cy="47" fill="#888882" fill-opacity=".8" rx="30" ry="82"/><ellipse cx="36" cy="21" fill="#feffff" fill-opacity=".7" rx="31" ry="19"/><ellipse cx="90" cy="74" fill="#fdfdfc" fill-opacity=".5" rx="23" ry="63"/><circle r="1" fill="#2f1a0a" fill-opacity=".5" transform="matrix(-10.53279 31.4448 -8.4928 -2.84476 58.8 59.2)"/><path fill="#503621" fill-opacity=".5" d="M126 68l-72-9 98-15z"/><circle r="1" fill="#f0f2f5" fill-opacity=".5" transform="rotate(89.5 -33.4 54.4) scale(44.46538 29.47855)"/><circle r="1" fill="#f6f5f0" fill-opacity=".4" transform="rotate(22.8 -142.7 417.6) scale(20.34612 58.60744)"/><circle r="1" fill="#6c7874" fill-opacity=".5" transform="matrix(102.05609 -.9166 .14189 15.79824 142.7 166.4)"/><path fill="#e7e7e6" d="M-7.1-7.2l166 44.1-25.4 3.4-20.1 13.3z"/><path fill="#4e352b" fill-opacity=".5" d="M115.8 69.5l-7.5 63.7 28.8-80.7 2.8-20.9z"/><path fill="#000106" fill-opacity=".7" d="M-16 24l11 52L9-14z"/><circle r="1" fill="#331203" fill-opacity=".5" transform="matrix(-10.48367 5.81204 -10.66934 -19.2452 173.8 118.8)"/><path fill="#421607" fill-opacity=".5" d="M55 106l-7-46 30 67z"/><circle r="1" fill="#71756a" fill-opacity=".6" transform="matrix(-64.89315 -12.49178 3.142 -16.32223 205.6 0)"/><path fill="#bdb6ae" d="M203.4 91.7l-20.6 6.7-3-33.8-57.8-.3z"/><ellipse cx="100" cy="35" fill="#7e7c72" fill-opacity=".8" rx="2" ry="61"/><path fill="#c3bfb9" fill-opacity=".7" d="M189 41h34v92h-34z"/><path fill="#070000" fill-opacity=".5" d="M263.9 170.8l-15.9-2.6-20.4-41.9 20.4-11.2z"/><path fill="#5a4a42" fill-opacity=".6" d="M25.1 185l22.6-70.5 8.8-17.2-7.1 61.6z"/><path fill="#5c4736" fill-opacity=".6" d="M83.6 61.6L38.9 47.1l1.5-4.7 44.7 14.5z"/><path fill="#fcfcf9" fill-opacity=".5" d="M66.8 57.9l-7.3 33.9 29.2 35.8 27.7-51.9z"/><path fill="#f6fafa" fill-opacity=".4" d="M82 25L64 50l52 19z"/><path fill="#ecebe8" fill-opacity=".5" d="M126.9 91.9l19.3 17.1 30.2-8.9-46.8-37.4z"/><path fill="#452d2a" fill-opacity=".5" d="M123 70l-7 12 18 30z"/><path fill="#241000" fill-opacity=".5" d="M164.1 70.8l26.6-23.4-17.6-9 19.7 22.9z"/><path fill="#261306" fill-opacity=".7" d="M58 36.8l6-6.8 7.3 1.8-9.8 19.8z"/><circle cx="152" cy="124" r="12" fill="#fbfbfa" fill-opacity=".4"/><path fill="#2b1100" fill-opacity=".2" d="M36.6 55.5L19.2 41.3l8.3-15 .7-42.3z"/><circle cx="174" cy="85" r="5" fill-opacity=".5"/><path fill="#fefffb" fill-opacity=".4" d="M34 98L2 44l46 8z"/><path fill="#fff" fill-opacity=".6" d="M30 17h27v27H30z"/><path fill="#807162" fill-opacity=".8" d="M169.1 69.9l-70-12.2.2-30.7 7.9 26.1z"/><ellipse cx="130" cy="114" fill="#6c534b" fill-opacity=".5" rx="3" ry="14"/><path fill="#eaf1f9" fill-opacity=".5" d="M114 139l14-30-10-20z"/><path fill="#7c7064" fill-opacity=".6" d="M56.3 51.1l7 39.4L57 107 40.2 78.1z"/><ellipse cx="134" cy="50" fill="#3f1603" fill-opacity=".5" rx="7" ry="10"/><path fill="#f7f8f7" fill-opacity=".6" d="M155.3 72.4l3.3 25.3 17-26.4 8.1 15.2z"/><path fill="#372217" fill-opacity=".9" d="M186.8 123.9l-23-15.5 2.9 50.7 21.8-5z"/><ellipse cx="123" cy="138" fill="#605c51" fill-opacity=".7" rx="33" ry="4"/><circle r="1" fill="#949b8f" fill-opacity=".4" transform="rotate(-65.1 104.1 -136) scale(23.90448 99.38109)"/><path fill="#63584c" fill-opacity=".5" d="M187 73h7v22h-7z"/><path fill="#524641" fill-opacity=".6" d="M128.3 72.5l-16 30.3-2.9-10.9 15.4-28.3z"/><path fill="#f9fafb" fill-opacity=".7" d="M26 33L13-16 6 32z"/><path fill="#797b72" fill-opacity=".3" d="M82.7 110.1l-40 55.3 61-28.7L83.9 126z"/><path fill="#fbfefb" fill-opacity=".5" d="M154 41h22v21h-22z"/><path fill="#45433c" fill-opacity=".8" d="M-11.6 140.5l51.8-1.9 90.3 46.4-86.4-14.4z"/><ellipse cx="25" cy="57" fill="#2c1907" fill-opacity=".2" rx="3" ry="23"/><path fill="#736b5f" fill-opacity=".6" d="M154.7 43.9l-4.4-21.2.2 27.7L163 17.8z"/><path fill="#7a746c" fill-opacity=".6" d="M275 90.6l-8.8 41.1-39.1-8.3 8.7-41.1z"/><path fill="#c8c1ba" fill-opacity=".6" d="M47.3 127.1l14.1-21.9L78.6 138l-29.1-6z"/><circle r="1" fill="#eeebe4" fill-opacity=".4" transform="matrix(-16.33415 -8.53414 3.27461 -6.26754 199.3 121.2)"/><path fill="#f9fbf5" fill-opacity=".6" d="M108 61h8v18h-8z"/><path fill="#200" fill-opacity=".5" d="M178.4 98.3l-5.8 1.7-5-16.3 5.8-1.7z"/><path fill="#7d7e7a" fill-opacity=".4" d="M24.9 70.9L32.5 3l-1-19-5.7 41.8z"/><ellipse cx="222" cy="65" fill="#a39e9b" fill-opacity=".4" rx="13" ry="69"/><path fill="#1f1100" fill-opacity=".5" d="M122 67l-6-10 13-9z"/><path fill="#270600" fill-opacity=".5" d="M52.4 86.9l2.7-1.5 16.5 29.7-2.7 1.5z"/><path fill="#2a1205" fill-opacity=".5" d="M176.6 50l16.8 15.7-17.7-29.6 2.5 4z"/><path fill="#fff8eb" fill-opacity=".2" d="M183.3 156.2l11.6 25 4.9-29.3 29.4 4.3z"/><path fill="#f2f2f0" fill-opacity=".5" d="M102 89h8v47h-8z"/><path fill="#635b4f" fill-opacity=".5" d="M59 49.9l52.3 8.3-.3 2-52.3-8.4z"/><path fill="#282004" fill-opacity=".2" d="M127.2-15.4L271 5.1 188.7-16l-1.5 32.6z"/><path fill="#e0ddd7" fill-opacity=".6" d="M166 133l-35-45 5 44z"/></g></svg>