<svg xmlns="http://www.w3.org/2000/svg" viewBox="0 0 300 199"><defs/><path fill="#50382c" d="M0 0h300v199H0z"/><g transform="translate(.6 .6) scale(1.17188)"><circle r="1" fill="#e6e3d6" fill-opacity=".5" transform="matrix(-57.27045 80.05659 -207.11282 -148.16325 51.6 106.4)"/><circle cx="136" cy="47" r="58" fill="#0b0000" fill-opacity=".5"/><ellipse cx="43" cy="141" fill="#e3dbc6" fill-opacity=".6" rx="33" ry="123"/><circle r="1" fill="#020a00" fill-opacity=".4" transform="matrix(-11.12723 77.21763 -23.81103 -3.43122 5 28)"/><circle r="1" fill="#d0cdba" transform="rotate(-154.1 34.8 -6.5) scale(23.99468 33.58123)"/><path fill="#f7f6ef" fill-opacity=".4" d="M212 91.6l-26.6 87-33.4-10.2 26.6-87z"/><circle r="1" fill="#12130f" fill-opacity=".7" transform="rotate(-9.7 216.3 -1249.3) scale(131.49805 26.04773)"/><circle r="1" fill="#c4c7d3" transform="rotate(139.8 17.7 69.5) scale(26.39091 22.68742)"/><circle r="1" fill="#755750" fill-opacity=".8" transform="matrix(-19.1649 59.26172 -22.98056 -7.43178 130 93)"/><path fill="#3b1900" fill-opacity=".4" d="M64.8 58.4l-20.3 50.7 15.4-11.9 107.4-79.7z"/><circle r="1" fill="#857d71" fill-opacity=".8" transform="matrix(-8.88995 11.64582 -44.3014 -33.8179 233.2 158.9)"/><circle r="1" fill="#dfa531" fill-opacity=".5" transform="matrix(17.95779 -37.90199 12.2468 5.80248 65.7 61.1)"/><circle r="1" fill="#a2c4b4" fill-opacity=".5" transform="matrix(-4.25124 16.50015 -9.48559 -2.44395 194.6 0)"/><ellipse cx="108" cy="128" fill="#240006" fill-opacity=".6" rx="4" ry="32"/><path fill="#bdd3ff" fill-opacity=".5" d="M89 185l32-47 12 47z"/><circle r="1" fill="#c79779" fill-opacity=".5" transform="matrix(-7.5506 3.11213 -15.01775 -36.4358 151.6 78.8)"/><circle r="1" fill="#8c6733" fill-opacity=".5" transform="matrix(7.9498 1.7591 -6.33793 28.64272 31.3 158)"/><ellipse cx="55" cy="145" fill="#d0d5e6" fill-opacity=".8" rx="14" ry="42"/><circle r="1" fill="#e2f0f0" fill-opacity=".3" transform="matrix(14.77966 33.80032 -19.24867 8.41675 176.2 146.8)"/><circle cx="18" cy="122" r="17" fill="#fff2c8" fill-opacity=".5"/><path fill="#442b1f" fill-opacity=".6" d="M194 65l25 83 52-9z"/><path fill="#2e000d" fill-opacity=".2" d="M161 134.9l-82.6 32.7 58.5-11.4 8 16.4z"/><path fill="#060000" fill-opacity=".5" d="M4.8 79.4L-18 64.7l13.1-20.1L18 59.3z"/><circle r="1" fill="#000208" fill-opacity=".4" transform="matrix(19.84768 -21.62782 8.10814 7.44077 92 61.4)"/><path fill="#1a1511" fill-opacity=".6" d="M163.3 89l-25-65.4 22.4-8.6 25 65.4z"/><path fill="#b17f62" fill-opacity=".3" d="M129 71l83 24 6 38z"/><ellipse cx="232" cy="15" fill-opacity=".6" rx="29" ry="23"/><ellipse cx="82" cy="138" fill="#929fca" fill-opacity=".4" rx="19" ry="33"/><circle cx="36" cy="46" r="16" fill="#e5eff3" fill-opacity=".4"/><circle cx="101" cy="81" r="16" fill="#a66f56" fill-opacity=".5"/><path fill="#211527" fill-opacity=".5" d="M96.4 160l18.1-35.6 7.1 3.6-18.1 35.6z"/><ellipse cx="137" cy="121" fill="#bc917b" fill-opacity=".6" rx="8" ry="30"/><circle r="1" fill="#6e4c36" fill-opacity=".5" transform="matrix(-35.42962 -28.08117 13.77094 -17.3746 237.3 75.6)"/><circle r="1" fill="#897885" fill-opacity=".5" transform="matrix(7.3496 4.39864 -22.57757 37.72438 6.3 95.3)"/><path fill="#735445" fill-opacity=".7" d="M163.7 59.5l-21.4 28 4.2 48.2 16.6-69.3z"/><path fill="#88c6d1" fill-opacity=".2" d="M230 140l-18 45 59-31z"/><path fill="#8094bf" fill-opacity=".4" d="M115 108h10v52h-10z"/><path fill="#a4907a" fill-opacity=".4" d="M214 147l-11-21-61 10z"/><path fill="#c1c8e0" fill-opacity=".7" d="M36 165h94v5H36z"/><path fill="#d4d9d8" fill-opacity=".4" d="M156 128l38-46-23 103z"/><circle r="1" fill="#533c2f" fill-opacity=".5" transform="matrix(-45.96979 79.9439 -3.51253 -2.0198 209.7 168.9)"/><circle r="1" fill="#d5ba84" fill-opacity=".5" transform="rotate(-139.5 34.3 75.3) scale(17.64446 27.1676)"/><path fill="#f8faf8" fill-opacity=".3" d="M93.7 128.8l-25.1-25.2-20.6-.5 38.1-23.2z"/><path fill="#97a091" fill-opacity=".4" d="M-16 54.5L81.5-16 20.7 49.7 2.8 19.6z"/><path fill="#f0f0eb" fill-opacity=".6" d="M90.8-5.4L72.7-16 60.8 17.9l20.2 6z"/><path fill="#d9e4f5" fill-opacity=".5" d="M101.5 110.2L78 98.8l4.4-9 23.4 11.4z"/><circle r="1" fill="#020103" fill-opacity=".6" transform="matrix(-11.88749 10.35738 -7.47513 -8.57944 103.2 44.4)"/><path fill="#ad907b" d="M207.1 104.6l5 57.5-17.4-41.5-10.2-9.9z"/><ellipse cx="125" cy="74" fill="#613f30" fill-opacity=".6" rx="7" ry="40"/><path fill="#1c1309" fill-opacity=".3" d="M180.5 97.8l-9.1-69.5 34.3 42.6-19.2 16.6z"/><path fill="#4f4627" fill-opacity=".5" d="M109 8L95-11 80 64z"/><circle cx="67" cy="43" r="14" fill="#e2b749" fill-opacity=".4"/><circle r="1" fill="#2b301a" fill-opacity=".4" transform="matrix(.6756 4.57613 -21.28392 3.14225 17.4 11.6)"/><path fill="#101642" fill-opacity=".3" d="M74.9 157.9l6.8 12.9 3.7-11.6-6.7-11.9z"/><path fill="#eae9e7" fill-opacity=".3" d="M143.1 177.9l21.8-32.4 54.5 5-56.2 33.2z"/><path fill="#f2ede2" fill-opacity=".2" d="M19.8 147L.5 163 42.4 4.9l11 66z"/><path fill="#2f2717" fill-opacity=".5" d="M147 133h6v18h-6z"/><path fill="#0a0f0b" fill-opacity=".5" d="M180.5-19l4 56.8-47 3.3-4-56.9z"/><circle r="1" fill="#d2b7a3" fill-opacity=".5" transform="matrix(1.9172 10.76312 -4.2358 .75451 142 54.8)"/><path fill="#251610" fill-opacity=".5" d="M217 127h39v12h-39z"/><path fill="#2a120b" fill-opacity=".4" d="M271 26l-57 52 28-54z"/><path fill="#6a5763" fill-opacity=".3" d="M98.3 103.9l31.8 56 16.4-56.8-58.9 38.5z"/><circle r="1" fill="#241f1b" fill-opacity=".7" transform="matrix(-5.13435 -10.42913 27.27194 -13.4262 118 18)"/><path fill="#c7a35d" fill-opacity=".6" d="M39.1 104.7l5.9 14.4 19.8-51.7 2.8-11.5z"/><path fill="#bdb1a6" fill-opacity=".4" d="M204.5 104.5l-15.6-23.9-38 96.8 13.4-82.7z"/></g></svg>