<svg xmlns="http://www.w3.org/2000/svg" viewBox="0 0 300 199"><defs/><path fill="#435c2f" d="M0 0h300v199H0z"/><g transform="translate(.6 .6) scale(1.17188)"><circle r="1" fill="#fdeef7" fill-opacity=".7" transform="rotate(-91.9 70 -67.8) scale(68.20193 140.73991)"/><circle cx="135" cy="119" r="98" fill="#a791b0" fill-opacity=".5"/><circle r="1" fill="#0f0b00" fill-opacity=".5" transform="matrix(18.97615 8.02753 -44.42847 105.0237 105.3 160.7)"/><path fill="#7d615f" d="M-16 20.1l7.3 43.4 67 13.9-5.7-59.5z"/><circle r="1" fill="#e0e0ed" fill-opacity=".5" transform="rotate(9.5 -865.6 1072.3) scale(30.46834 39.99735)"/><path fill="#e0dce2" fill-opacity=".6" d="M81.3 51.2L100 132l-29.3 6.7L52 58z"/><circle cx="88" cy="52" r="14" fill="#2a1306" fill-opacity=".7"/><ellipse cx="186" cy="22" fill="#e9ebe4" fill-opacity=".6" rx="137" ry="28"/><circle r="1" fill="#252626" fill-opacity=".6" transform="rotate(173.8 68.4 18.4) scale(3.41989 86.28293)"/><circle r="1" fill="#4e4e53" transform="matrix(41.5393 -33.18112 79.32303 99.30418 15.4 168.2)"/><circle r="1" fill="#513e39" fill-opacity=".5" transform="matrix(3.7731 13.79215 -66.05091 18.06949 188.9 64.3)"/><ellipse cx="247" cy="94" fill="#16161f" fill-opacity=".7" rx="20" ry="39"/><circle cx="113" cy="92" r="23" fill="#675f64"/><ellipse cx="48" cy="1" fill="#f1f2f3" fill-opacity=".8" rx="87" ry="18"/><circle r="1" fill="#05080d" fill-opacity=".7" transform="matrix(21.52216 16.81096 -5.8073 7.43477 98.7 152.7)"/><path fill="#f5f7ea" fill-opacity=".6" d="M143 0h55v57h-55z"/><path fill="#161a1a" fill-opacity=".5" d="M233 22h8v71h-8z"/><path fill="#9594a3" d="M204.2 140l14.5 36.2 10.9-5.4-.8-31.6z"/><path fill="#fffff2" fill-opacity=".5" d="M104 30h32v39h-32z"/><path fill-opacity=".5" d="M117 21h18v7h-18z"/><path fill="#f2c8bd" fill-opacity=".3" d="M189 123l-61-12 46-34z"/><path fill="#c0b2c9" fill-opacity=".4" d="M91 175L58 94l-29 5z"/><circle r="1" fill="#281e1a" fill-opacity=".7" transform="rotate(-69 132.9 -86) scale(8.66907 11.29542)"/><path fill="#eeebdb" fill-opacity=".6" d="M240 0h16v51h-16z"/><circle r="1" fill="#1b2747" fill-opacity=".4" transform="rotate(-109.7 139.3 -13.2) scale(23.66492 10.69595)"/><path fill="#42342b" fill-opacity=".5" d="M117 99.7l-15.3 7.5-30.7-63 15.3-7.4z"/><path fill="#3e2531" fill-opacity=".5" d="M0 67h57v27H0z"/><path fill="#c9cac6" fill-opacity=".8" d="M116.4 107l.4 6.3-9 2.7-10.9-6.1z"/><path fill="#232714" fill-opacity=".6" d="M73.7 185l45.4-74.3 28.8 9.8-33.1 64.5z"/><path fill="#bbc3ff" fill-opacity=".3" d="M229.7 95.8l-84.9-9.3 60 .4 13.9-30.1z"/><circle r="1" fill="#1b1615" fill-opacity=".5" transform="rotate(103.5 -28.7 86.4) scale(30.88633 4.73916)"/><path fill="#f1f2ed" fill-opacity=".7" d="M62 84l18-59-30-41z"/><path fill="#151c1a" fill-opacity=".5" d="M140 42l10 64-17-1z"/><path fill="#12141c" fill-opacity=".6" d="M47.6 189l-11-62 11.8-2 11 62z"/><circle r="1" fill="#987a75" fill-opacity=".9" transform="rotate(74 -13 61.8) scale(17.36303 6.12354)"/><circle r="1" fill="#f1f2ee" fill-opacity=".5" transform="matrix(10.01174 30.81298 -10.94165 3.55516 100.1 25.4)"/><path fill="#e8e8e0" fill-opacity=".6" d="M244 6l-67 59-17-81z"/><path fill="#767a90" d="M226.8 108.1l-2.9-25.2-21.9 61.6 36.1-14.1z"/><ellipse cx="252" cy="159" fill="#2f391f" fill-opacity=".8" rx="22" ry="39"/><ellipse cx="138" cy="13" fill="#030007" fill-opacity=".5" rx="2" ry="54"/><path fill="#ffbbda" fill-opacity=".2" d="M116.5 108.4l24.9-28-24.3 7 30.4 33z"/><ellipse cx="199" cy="66" fill="#653d35" fill-opacity=".7" rx="10" ry="13"/><circle r="1" fill="#cec4c9" fill-opacity=".6" transform="matrix(12.04094 -7.26356 3.25684 5.39893 165.2 90.4)"/><path fill="#706366" fill-opacity=".6" d="M8.9 131.6l33.4-42.4-58.3 15.3 23.5 67.1z"/><path fill="#84683e" fill-opacity=".4" d="M166.7 93L133 121.5l-9 24.3 55.3-45.1z"/><path fill="#2d3134" fill-opacity=".4" d="M226.4 33.3l6.2-3-5.9 71.2 17.4-71.7z"/><path fill="#9b7873" fill-opacity=".5" d="M82.9 50.6l23.4 14.3-30.4-5.7 29.1 59.2z"/><path fill="#ebebec" fill-opacity=".6" d="M35 0h100v20H35z"/><path fill="#75767d" fill-opacity=".4" d="M67.9 176.2l.1-32.5-9.7-17.6-26-19.3z"/><path fill="#61565a" fill-opacity=".9" d="M174.4 119.9l4 8.4-2.1-20.9-4.8 12.6z"/><path fill="#28312e" fill-opacity=".4" d="M198 93l-17-9 15 55z"/><path fill="#121219" fill-opacity=".6" d="M97 182l-20-43 53-11z"/><path fill="#cdd1da" fill-opacity=".5" d="M62.5 93.5l18.8 65.4-5.8 1.6-18.8-65.4z"/><path fill="#cfcfd7" fill-opacity=".5" d="M70 47l33 83-24-6z"/><path fill="#292d34" fill-opacity=".5" d="M249.1 47.3l-44.1 19 9.6 5.3 56.4 23z"/><path fill="#000203" fill-opacity=".3" d="M69.7 54.3l10.5 3.2 18.5-15.2L78 38.1z"/><path fill="#3f3f3a" d="M47.5 65.7l8 25.4 1.7 9.3L29 73.5z"/><path fill="#715454" fill-opacity=".6" d="M18 79l-34-60 68 13z"/><path fill-opacity=".6" d="M68 177l12-1-11-22z"/><path fill="#8d847f" fill-opacity=".4" d="M49 176l-16-53-1 30z"/><path fill="#aeaeb5" fill-opacity=".6" d="M122.1 185l91.8-15.4-68.2-46.3-8.2 18.9z"/><path fill="#b6b3bb" d="M92 134L46.7 91.8l-11.8 14.5 50-12.2z"/><ellipse cx="116" cy="77" fill="#46443b" fill-opacity=".6" rx="31" ry="5"/><path fill="#ced3fe" fill-opacity=".3" d="M206.7 97.3l-2.6-30.8 15.1 9.6 1.9 12.3z"/><path fill="#56482f" fill-opacity=".3" d="M165.4 54.1l-61.1 21.5L166 87.4l7.3-32.3z"/></g></svg>