<svg xmlns="http://www.w3.org/2000/svg" viewBox="0 0 300 199"><defs/><path fill="#4e453e" d="M0 0h300v199H0z"/><g transform="translate(.6 .6) scale(1.17188)"><circle r="1" fill="#fff" fill-opacity=".7" transform="matrix(89.35076 76.04345 -40.04921 47.05767 199.8 17.9)"/><circle r="1" fill="#fffff7" fill-opacity=".8" transform="matrix(5.6891 13.20992 -50.3916 21.70205 17 84.2)"/><circle r="1" fill="#d3d1cf" fill-opacity=".4" transform="matrix(-40.0181 -19.91934 56.11178 -112.729 169 69.2)"/><ellipse cx="241" cy="122" fill="#a5a09e" fill-opacity=".8" rx="24" ry="104"/><circle r="1" fill="#041313" fill-opacity=".7" transform="matrix(64.878 .2879 -.14828 33.4139 32 30.5)"/><circle r="1" fill="#0d0f13" fill-opacity=".6" transform="matrix(-20.74594 -18.95212 47.03243 -51.48407 54 116.2)"/><path fill="#383932" fill-opacity=".8" d="M189.4 41.1l-9.6-42.3L160 31.2l10.6-3.6z"/><ellipse cx="227" fill="#fff" fill-opacity=".7" rx="37" ry="27"/><circle r="1" fill="#fae7cd" fill-opacity=".7" transform="matrix(-11.94054 -15.3383 19.03173 -14.8158 8 88.5)"/><path fill="#bfaa99" d="M173 114.2l21.9-1.3-2.5-78.1-8.1 5.7z"/><path fill="#010c17" fill-opacity=".6" d="M180.2 72l-22.6 9.3 25.1 46.6-30.8-5.8z"/><path fill="#fff" fill-opacity=".7" d="M187.4 26.7l27.5-5.3 11.7 59.9-27.5 5.3z"/><ellipse cx="137" cy="78" fill="#8d979c" fill-opacity=".7" rx="25" ry="37"/><path fill="#3b3332" fill-opacity=".7" d="M0 126h118v24H0z"/><path fill="#1a1609" fill-opacity=".5" d="M146 68l-32-54 33 29z"/><path fill="#49504e" fill-opacity=".4" d="M274.7 24.6l3.3 37.8-56.7 5-3.3-37.8z"/><ellipse cx="242" cy="78" fill="#fff" fill-opacity=".5" rx="49" ry="13"/><circle r="1" fill="#391d0d" fill-opacity=".5" transform="matrix(-4.63095 -28.68338 12.91113 -2.08451 207.1 114.7)"/><circle r="1" fill="#fff9ea" fill-opacity=".6" transform="rotate(-50.6 71.7 -132.3) scale(14.80883 44.42552)"/><circle r="1" fill="#a99a98" fill-opacity=".7" transform="rotate(130.3 79 128.4) scale(33.42686 15.7626)"/><path fill="#ffffe2" fill-opacity=".6" d="M-40.6 147.6L40 133.4l.5 3-80.7 14.2z"/><path fill-opacity=".5" d="M166 185h22l-32-74z"/><circle r="1" fill="#ffe8c1" fill-opacity=".5" transform="matrix(-3.74106 -5.23024 30.33263 -21.69617 97.2 169)"/><path fill="#ffe7d2" fill-opacity=".5" d="M-6.9 147.5l-.4-2 108.2-25 .4 2z"/><path fill="#3a424c" fill-opacity=".8" d="M155.8 185l-8.7-124.5-8-13.1 7.5 102.3z"/><circle r="1" fill="#010002" fill-opacity=".6" transform="matrix(-36.73794 25.92386 -6.58729 -9.33516 19.6 117.7)"/><circle r="1" fill="#102436" fill-opacity=".5" transform="matrix(-1.89332 5.6434 -16.46853 -5.52508 247.5 115.9)"/><path fill="#c0d2dd" fill-opacity=".7" d="M145.7 31.6l7.4 98.9 3.9-36.9 24.6-65.8z"/><path fill="#f6f0e9" fill-opacity=".7" d="M79.7 60l-6.4-.6-50.8 8.2-1.6 34.5z"/><path fill="#151911" fill-opacity=".6" d="M134.3 46.6l-15.3-3-20.7-17.8-32.7 55.4z"/><circle r="1" fill="#192124" fill-opacity=".6" transform="matrix(-53.83105 20.19804 -5.97936 -15.93596 58.1 152.9)"/><path fill="#bee7fe" fill-opacity=".6" d="M140.3 85.9l-12 .2-.6-34 12-.2z"/><path fill="#a57673" fill-opacity=".5" d="M161.4 140.4l5.6-10.6 63.6 33.8-5.6 10.6z"/><path fill="#d8bfab" fill-opacity=".5" d="M118 136l-2-51 31 65z"/><path fill="#c6b9a8" fill-opacity=".6" d="M102 132.8l-141.6 43.3-.3-1L101.6 132z"/><path fill="#f6d9c8" fill-opacity=".5" d="M163.9 101.4l16 19.2 17.3-1.8-7.8-26.4z"/><path fill-opacity=".5" d="M51 133l-67 37v-21z"/><path fill="#b9a691" fill-opacity=".8" d="M213.7 96l5.9 21.1v36.8L240 75.6z"/><path fill="#634743" fill-opacity=".5" d="M181 19h5v55h-5z"/><circle r="1" fill="#010b13" fill-opacity=".7" transform="matrix(-5.83029 -3.58998 8.95938 -14.55046 197.9 126.5)"/><path fill="#f1d2b2" fill-opacity=".5" d="M113 53h8v26h-8z"/><path fill="#594f3e" fill-opacity=".9" d="M82.1 60.8l-98.1-.2 165.5-23.2L17.9 60.9z"/><path fill="#3e0c00" fill-opacity=".4" d="M181.3 77.2l-17.6-2.5-2.1 22.7 14.4 4.1z"/><path fill="#1d2436" fill-opacity=".3" d="M124.2 116.8l5.4 68.2 4-89.7 13.5 41.4z"/><path fill="#242e34" fill-opacity=".5" d="M114 83l-41 33 44 2z"/><path fill="#fdf9f1" fill-opacity=".7" d="M183.1 79.9l-11.2-6.5-3.6-46.7 8.6 24.4z"/><path fill="#182732" fill-opacity=".8" d="M163.2 97l-9.7 19.5 33.6 19.3-23.9-35z"/><path fill="#00071e" fill-opacity=".6" d="M162 162l2-16 51 21z"/><path fill="#b0a99e" fill-opacity=".5" d="M33.5 139v30h-3v-30z"/><path fill="#140509" fill-opacity=".6" d="M72 123l-88 20 61-60z"/><path fill="#202b36" fill-opacity=".7" d="M170 185l-21-23-19 6z"/><path fill="#5976ae" fill-opacity=".5" d="M228.7 61.7l-4-28.8 32.6-4.6 4 28.8z"/><path fill="#fafcf1" fill-opacity=".4" d="M3.1 182l77.4-33 .4 1-77.4 32.8z"/><ellipse cx="107" cy="87" fill="#9b989a" fill-opacity=".7" rx="2" ry="18"/><path fill="#576473" fill-opacity=".4" d="M180.1 165.1l84.3-12.5 6.6 26-61.4 6.4z"/><circle r="1" fill="#654e35" fill-opacity=".5" transform="matrix(-7.9552 -99.88128 2.09534 -.16689 126.5 111.9)"/><path fill="#293131" fill-opacity=".8" d="M166 30l13.7-33.2 2.4 26.8-10.1 4.9z"/><circle cy="102" r="12" fill="#d0b9a0" fill-opacity=".7"/><path fill="#4f483c" fill-opacity=".9" d="M159.6 48.4l-36.7 3.2-3.2-32.8 31.2 30.9z"/><path fill="#f4dbcb" fill-opacity=".4" d="M157.5 131.4l8 64.6-5 .6-8-64.6z"/><path fill="#f6f4f1" fill-opacity=".7" d="M208.9 68.7l59.2-2.8-2.9 17.1-54.1-8.3z"/><path fill="#5a7291" fill-opacity=".5" d="M228 80h11v11h-11z"/><circle r="1" fill="#0d1718" fill-opacity=".6" transform="matrix(-7.54743 -8.53082 31.4815 -27.85248 61 87.5)"/><path fill="#eed1bd" fill-opacity=".5" d="M31.2 138.5l-.6-3 38.2-8 .6 3z"/><path fill="#fddac7" fill-opacity=".2" d="M118.3 165.2l25.5-37.4 1.5 17.7L2.8 185z"/></g></svg>