<svg xmlns="http://www.w3.org/2000/svg" viewBox="0 0 300 199"><defs/><path fill="#444443" d="M0 0h300v199H0z"/><g transform="translate(.6 .6) scale(1.17188)"><circle r="1" fill="#010101" fill-opacity=".8" transform="matrix(-62.15325 110.8842 -55.37195 -31.0373 203.3 114)"/><circle r="1" fill-opacity=".7" transform="matrix(51.09245 16.13412 -20.79597 65.8553 37.6 133.6)"/><path fill="#e7e7e8" fill-opacity=".8" d="M174.6 29l-3.8-1.9 17.9-41.3 10.7 47.4z"/><ellipse cx="99" cy="95" fill="#fff" fill-opacity=".2" rx="19" ry="69"/><ellipse cx="146" cy="17" fill="#050505" fill-opacity=".7" rx="27" ry="75"/><circle r="1" fill="#707070" fill-opacity=".8" transform="matrix(6.36113 22.78104 -42.44597 11.85214 57.5 35.7)"/><circle r="1" fill="#dfdfdf" fill-opacity=".6" transform="rotate(176.6 50 47.1) scale(9.34995 11.23725)"/><path fill="#cccccd" fill-opacity=".5" d="M95 141l39 44-30-66z"/><path fill="#161616" fill-opacity=".7" d="M33.8 67.9l74.9-25-62.8 57.5.1-72.5z"/><circle r="1" fill="#6d6d6e" fill-opacity=".5" transform="rotate(-2.9 1822.3 -3865) scale(4.6792 44.72582)"/><path fill="#2e2e2e" fill-opacity=".7" d="M43 135l57 11-13-63z"/><circle r="1" fill="#070708" fill-opacity=".8" transform="rotate(83.7 83.5 177) scale(195.85239 49.75425)"/><path fill="#848484" fill-opacity=".9" d="M67.1 23.8l21.9 28-11.2 6.4L49 49.8z"/><path fill="#212121" fill-opacity=".7" d="M100.9 112.8l21.4 40.1L180.7 91l-62 20.1z"/><ellipse cx="28" cy="54" fill="#a4a4a4" fill-opacity=".5" rx="8" ry="19"/><path fill="#fff" fill-opacity=".6" d="M170.6 25.7l22-12.1 4.8 8.7-22 12.1z"/><circle r="1" fill-opacity=".6" transform="matrix(-61.72166 -5.02016 1.95699 -24.06066 34 162.1)"/><circle r="1" fill="#323233" fill-opacity=".5" transform="matrix(14.96742 -5.34997 29.57544 82.74216 111.8 25.5)"/><path fill="#868686" fill-opacity=".8" d="M174 0h18v12h-18z"/><path fill="#fff" fill-opacity=".2" d="M115.2 50.4L95.4 74.5l-15.6 39V63.2z"/><path fill="#f9f9f9" fill-opacity=".2" d="M60.4 116.7l31.3-12.1-10-8-25.3 16.5z"/><circle r="1" fill="#090909" fill-opacity=".6" transform="matrix(12.04967 10.18276 -8.60707 10.1851 82.7 132)"/><path fill="#040405" fill-opacity=".5" d="M53.3 54l9-2.6 21.5 7.9-21.4 57.6z"/><path fill="#0a0a0a" fill-opacity=".5" d="M94.8 47.8l1.5 38.3-7.7-22.8-8.8-2.3z"/><path fill="#f3f3f3" fill-opacity=".4" d="M100 116l14 28-16-2z"/><circle r="1" fill="#0d0d0d" fill-opacity=".5" transform="matrix(-7.77396 -11.29184 2.54162 -1.7498 92.6 98.8)"/><circle r="1" fill="#666667" fill-opacity=".5" transform="matrix(-7.28486 .77889 -1.09532 -10.2444 195.8 82.8)"/><path fill="#030303" fill-opacity=".6" d="M146 3l9 52 57 19z"/><path fill="#0a0a0a" fill-opacity=".6" d="M3 40l36 106 22-30z"/><path fill="#b3b3b4" fill-opacity=".5" d="M197 39l-4 4 6 15z"/><ellipse cy="80" fill="#848485" fill-opacity=".3" rx="12" ry="25"/><path fill-opacity=".4" d="M117 139h139v31H117z"/><path fill="#4f4f4f" fill-opacity=".5" d="M29 125l47 7-7 13z"/><path fill="#020202" fill-opacity=".5" d="M47 35L37 59l21-27z"/><path fill="#fff" fill-opacity=".4" d="M195 6l1 24-24-8z"/><path fill="#fff" fill-opacity=".5" d="M81.2 69.5l2-5.7 7.6 2.7-2 5.7z"/><path fill="#111" fill-opacity=".5" d="M202.5 37.6L183.9 27l-11.1 16.6-25.9 35.6z"/><path fill="#2f2f30" fill-opacity=".6" d="M-.7 29.6l26.4 2.1-14.3 25.9 6.7 49.3z"/><path fill="#767677" fill-opacity=".4" d="M12.7 23.3l27.5-20 17 23.4-27.4 20z"/><circle r="1" fill="#1e1e1e" fill-opacity=".6" transform="rotate(28.6 -141.7 453) scale(10.3356 34.54053)"/><path fill="#fdfdfe" fill-opacity=".2" d="M86.2 85.6l15-35.5 12.1 8-30.4 18.4z"/><path fill="#c8c8ca" fill-opacity=".4" d="M102.6 87.3l11.3 19.5-11.6 3.6-16.5-41.7z"/><path fill="#0c0c0c" fill-opacity=".5" d="M62.4-11.6l113.3 44.5-6.2-9.9 8.4-31.7z"/><path fill="#4a4a4a" fill-opacity=".5" d="M48-16l79 91V34z"/><path fill="#262627" fill-opacity=".4" d="M95.4 82.9l.1-11.9 83.3 40.8-36.1-59.3z"/><path fill="#d3d3d2" fill-opacity=".5" d="M135 100l6-8-2 8z"/><path fill="#969696" fill-opacity=".3" d="M55.6 69.2l-10.2 1-.7-12.7 17-35.7z"/><ellipse cx="80" cy="152" fill="#121212" fill-opacity=".5" rx="10" ry="45"/><path fill="#747475" fill-opacity=".5" d="M107.7 164.7l12.5 20.3-3.1-42.7-7.4-4z"/><path fill="#0a0a0a" fill-opacity=".6" d="M92.6 94.9l.9 8.1-22.8-37-46.1 16.6z"/><path fill="#a2a2a3" fill-opacity=".5" d="M90 121l14-14-12 5z"/><path fill="#fff" fill-opacity=".4" d="M180 9l-6 27 19-17z"/><path fill="#272727" fill-opacity=".6" d="M116 85h20v19h-20z"/><path fill="#f4f4f4" fill-opacity=".5" d="M98.7 101l-4.4-2.5 9-15.5 4.4 2.5z"/><path fill="#656565" fill-opacity=".8" d="M179.5-3.3L192-6.4l2.4 9.7L182 6.4z"/><circle r="1" fill-opacity=".5" transform="matrix(24.43135 2.11078 -.79196 9.16666 162.5 116.3)"/><path fill="#555556" fill-opacity=".4" d="M125.7 131.7l-5.3-69-11.1-36-1.5 65.1z"/><path fill="#09090a" fill-opacity=".5" d="M87.4 53l13 29.2-1.8.8-13-29.2z"/><circle cx="81" cy="102" r="4" fill="#c6c6c6" fill-opacity=".5"/><circle r="1" fill="#050505" fill-opacity=".5" transform="matrix(-63.75597 -29.27632 9.7607 -21.25616 35 153)"/><path fill="#929292" fill-opacity=".3" d="M95.1 29.7L84.8 58l-32-11.6L63.3 18z"/><ellipse cx="207" cy="3" fill="#151514" fill-opacity=".5" rx="13" ry="36"/><path fill="#8e8e8e" fill-opacity=".3" d="M35.1 76.2L13.9 60.6l44.6-53-24.9 48z"/><path fill="gray" fill-opacity=".7" d="M93.3 141.7l2.9 4 11.4 39.3-14.5-23.9z"/><circle cx="166" cy="97" r="4" fill="#737373" fill-opacity=".5"/></g></svg>