<svg xmlns="http://www.w3.org/2000/svg" viewBox="0 0 300 199"><defs/><path fill="#4d2d27" d="M0 0h300v199H0z"/><g transform="translate(.6 .6) scale(1.17188)"><circle cx="155" cy="101" r="211" fill="#fcfffc" fill-opacity=".7"/><circle r="1" fill="#5b332b" fill-opacity=".7" transform="matrix(23.7075 -1.40444 5.21148 87.97186 79.5 91.1)"/><circle cx="224" cy="113" r="130" fill="#fdffff" fill-opacity=".5"/><ellipse cx="82" cy="36" fill="#2e1506" fill-opacity=".6" rx="27" ry="24"/><ellipse cx="58" cy="151" fill="#bdbac3" fill-opacity=".7" rx="18" ry="72"/><path fill="#410008" fill-opacity=".6" d="M118.9 216.4l-15.3 4.7L73 121.6l15.3-4.7z"/><path fill="#be866b" fill-opacity=".6" d="M78.3 32l27.3-9.9 18 49.8-27.2 10z"/><path fill="#ddddd7" fill-opacity=".9" d="M-16 9.3L123.5-9.2l-73.3 35-55.5 156z"/><ellipse cx="35" cy="91" fill="#eaebe6" fill-opacity=".7" rx="30" ry="21"/><circle r="1" fill="#552718" fill-opacity=".5" transform="matrix(19.73399 7.90532 -5.37133 13.4084 71.8 71)"/><ellipse cx="84" cy="22" fill-opacity=".6" rx="22" ry="7"/><circle r="1" fill="#999295" fill-opacity=".5" transform="matrix(.76725 45.88977 -20.81894 .34808 24.5 169)"/><circle r="1" fill="#ecefe9" fill-opacity=".6" transform="rotate(-158.5 74.2 -6.6) scale(43.68343 38.26479)"/><circle r="1" fill="#969193" fill-opacity=".6" transform="matrix(25.86433 -7.29293 2.83622 10.05863 58.6 118.6)"/><path fill="#5d0e16" fill-opacity=".6" d="M101.5 120L92 131.8l-15.6-10.7 16.4-12.5z"/><path fill="#533021" fill-opacity=".5" d="M66 49h22v56H66z"/><path fill="#311e15" fill-opacity=".5" d="M102.9 62.5L59.6 21.9l-4 25.2h50.3z"/><path fill="#ffdac1" fill-opacity=".5" d="M92 32h13v14H92z"/><path fill="#d9916a" fill-opacity=".4" d="M90 62l2 53 30-58z"/><circle r="1" fill="#eef0ec" fill-opacity=".6" transform="rotate(23.3 28.1 487.3) scale(33.53798 61.16876)"/><path fill="#c4c4b7" fill-opacity=".4" d="M244 0h12v170h-12z"/><path fill="#817f7a" fill-opacity=".6" d="M84.2 153.7l-21.8-35.4-24.1-3.2 38-12.8z"/><path fill="#100000" fill-opacity=".4" d="M82 115h9v55h-9z"/><path fill="#c6bdcd" fill-opacity=".5" d="M13 121l54 2 16 62z"/><circle r="1" fill="#e2d8e6" fill-opacity=".5" transform="rotate(48.3 -107.7 203.1) scale(26.4017 13.56977)"/><path fill="#211b17" fill-opacity=".8" d="M60.5 27.5l33-2.3L110.3 37l-7-13.9z"/><path fill="#e1e1dc" fill-opacity=".9" d="M64.7 77.9L-16 137.2l62.6-25.3L64.2 95z"/><path fill-opacity=".5" d="M57 29h4v26h-4z"/><path fill="#e0e0dc" fill-opacity=".8" d="M54.9 52.7l2.6-37.6-73.5 130L27.7 119z"/><path fill="#d5b6a2" d="M102.2 30.1v5.6l13.1 43.8-5.4-37.3z"/><path fill="#d6d7d0" fill-opacity=".7" d="M86 13.6l-100.6-1.7L84.7-16l32.5 38.8z"/><path fill="#a51725" fill-opacity=".4" d="M81 185h15.1l9.3-28.4-10.5-12.3z"/><path fill-opacity=".4" d="M62.8 36L58 28.5 77.2 16l4.9 7.5z"/><circle r="1" fill="#a6654f" fill-opacity=".4" transform="matrix(5.11738 6.91085 -11.31717 8.38019 82.4 37.6)"/><path fill="#fcfdfd" fill-opacity=".7" d="M102.5 104.5l12.6 9.9-5.6 7-12.6-9.8z"/><path fill="#ffddd3" fill-opacity=".5" d="M89.8 56.5l4-.8 2.4 11.8-4 .8z"/><circle r="1" fill="#6c4339" fill-opacity=".6" transform="rotate(113.1 13.2 60) scale(13.07987 23.86592)"/><path fill="#7f8286" fill-opacity=".3" d="M78.1 172.4l8.3-38.1-71.3-13.7 57.9 18z"/><path fill="#8a8275" fill-opacity=".3" d="M274 160.6l-25.7 26.6-12.3-11.8 25.7-26.6z"/><path fill="#d8d7d0" fill-opacity=".8" d="M-16 12L50-6l7 65z"/><path fill="#e4e5e2" fill-opacity=".8" d="M198.7 98.3l-84.3-19.1 5.8-14.4 2.1-80.8z"/><path fill="#7a4147" fill-opacity=".5" d="M108 131.6l-.4-4.1-36.7-29.2 34.5 20.2z"/><circle cx="80" cy="112" r="4" fill="#ebeeff" fill-opacity=".5"/><path fill="#ddbba0" fill-opacity=".7" d="M107 38.7v63l-15.2 7.1 21-47.4z"/><ellipse cx="105" cy="167" fill="#ccc0cf" fill-opacity=".7" rx="3" ry="27"/><path fill="#b5b5b3" fill-opacity=".5" d="M62 97l27 16H73z"/><circle r="1" fill="#a09c8e" fill-opacity=".5" transform="matrix(-5.80276 -.77425 3.85719 -28.9083 11.2 156.3)"/><path fill="#000404" fill-opacity=".5" d="M105.3 32l.9-.4 6.5 12.3-.9.5z"/><path fill="#4c4741" fill-opacity=".5" d="M79 124h5v46h-5z"/><path fill="#9e9490" fill-opacity=".5" d="M51.4 156.6l-20.5 23.9-13.1 4.5 28.1-36.1z"/><path fill="#af7964" fill-opacity=".7" d="M105.4 75.7l-9.7 21L90 68.6l13-1.4z"/><path fill="#e2e3df" fill-opacity=".9" d="M114 50l45 46-56-108z"/><path fill="#0f0506" fill-opacity=".2" d="M81.2 91.1l10.2-25.7-9-13.5-12.7-15.5z"/><path fill="#714d3f" fill-opacity=".7" d="M94.9 116.1L65.6 63.7l-.2 35.7L86.9 112z"/><path fill="#310406" fill-opacity=".7" d="M89.2 149.6l-.4 23-6-.2.4-23z"/><path fill="#756b66" fill-opacity=".8" d="M61.1 109.9l5.5-7-11.9 5.5 33 35.8z"/><path fill="#e3dee8" fill-opacity=".5" d="M96 126h60v15H96z"/><path fill="#b35847" fill-opacity=".5" d="M113 56h6v16h-6z"/><path fill="#4c190e" fill-opacity=".6" d="M63 74h-8l-4-12z"/><path fill="#0d0704" fill-opacity=".8" d="M60.5 22.3l37.3 2.8-6.1-3.7-34.6 15.1z"/><path fill="#22110d" fill-opacity=".4" d="M95 45h6v13h-6z"/><circle r="1" fill="#d2c9d4" fill-opacity=".7" transform="rotate(103.3 5.2 141.5) scale(26.33176 5.6528)"/><path fill="#efdac9" fill-opacity=".4" d="M115 49l-10 12 4 20z"/><circle r="1" fill="#191515" fill-opacity=".5" transform="matrix(-16.23517 3.9277 -1.82798 -7.55597 76.4 21.9)"/><path fill="#e3e3db" fill-opacity=".5" d="M146-16l-44 46 35-20z"/></g></svg>