<svg xmlns="http://www.w3.org/2000/svg" viewBox="0 0 300 199"><defs/><path fill="#684639" d="M0 0h300v199H0z"/><g transform="translate(.6 .6) scale(1.17188)"><circle r="1" fill="#f0e9e4" fill-opacity=".7" transform="matrix(-38.51182 31.44634 -52.84248 -64.71532 176.6 153.9)"/><circle r="1" fill="#fafafe" fill-opacity=".7" transform="rotate(-103 115.5 46.1) scale(18.58992 45.14024)"/><path fill="#0d0d00" fill-opacity=".6" d="M188.2 57.7l-3.8 89.8L271 80.9l-58.9-26.4z"/><circle r="1" fill="#e9fdff" fill-opacity=".6" transform="matrix(15.64122 34.66502 -7.86335 3.54803 90 78.1)"/><path fill="#001421" fill-opacity=".6" d="M24.6 185.2l-40.3-64.5 83.1-51.9 40.3 64.5z"/><path fill="#1f1714" fill-opacity=".6" d="M117 67l6 53-22 26z"/><path fill="#e0d0c7" fill-opacity=".5" d="M120 79h68v91h-68z"/><path fill="#ebb092" fill-opacity=".4" d="M83 65l-1-44 60 5z"/><circle r="1" fill="#e7faff" fill-opacity=".3" transform="rotate(-29.1 433.6 -330.7) scale(74.5822 25.00896)"/><path fill="#3d2e1f" fill-opacity=".6" d="M195 52l-68-8 18 50z"/><circle cx="58" cy="77" r="22" fill="#0b1a26" fill-opacity=".6"/><ellipse cx="246" cy="104" fill="#232216" fill-opacity=".7" rx="56" ry="22"/><circle r="1" fill="#cab498" fill-opacity=".4" transform="matrix(-10.80282 2.27651 -7.30993 -34.68812 124.4 53.8)"/><path fill="#6d675f" fill-opacity=".4" d="M0 0h43v135H0z"/><path fill="#071920" fill-opacity=".5" d="M108 44l24 24-22 22-24-24z"/><ellipse cx="173" fill="#9e7f6a" fill-opacity=".6" rx="16" ry="39"/><circle r="1" fill="#0d0805" fill-opacity=".6" transform="rotate(31.3 31.9 147) scale(26.33454 7.62621)"/><path fill="#fcfaf8" fill-opacity=".4" d="M123.9 118.3l52-45.3 7.5 3-37.6 56z"/><path fill="#dac7c1" fill-opacity=".6" d="M159 155l-77 30 3-42z"/><path fill="#ebfaff" fill-opacity=".3" d="M116 98L70 42l27 84z"/><path fill="#e7d0c4" fill-opacity=".4" d="M111.3 38.6l6.2 3.3 24.7 94.8-31-88.6z"/><circle r="1" fill="#281919" transform="matrix(-21.66012 -33.10013 14.88423 -9.73997 16.6 169)"/><ellipse cx="68" cy="20" fill="#1d2225" fill-opacity=".7" rx="12" ry="17"/><path fill="#4f3c3a" fill-opacity=".5" d="M124 93l3 37-34-15z"/><path fill="#0c0d10" fill-opacity=".5" d="M93 135.7l-37.4 6.6-10.6-60 37.4-6.6z"/><path fill="#ddb5aa" fill-opacity=".3" d="M108 82L84 13l-4 28z"/><path fill-opacity=".4" d="M104 21h6v63h-6z"/><path fill="#7e5539" fill-opacity=".5" d="M241.5 126.7l-61.7-18.4 42.9 32.2 24.7 17.9z"/><ellipse cx="124" fill="#c18e66" fill-opacity=".5" rx="35" ry="7"/><ellipse cx="253" cy="47" fill="#8f5f46" fill-opacity=".6" rx="52" ry="16"/><path fill="#bd9177" fill-opacity=".6" d="M191.5 133.6l-18.1-5.2 10.7 31.5 31.2-37.4z"/><path fill="#d8f0ff" fill-opacity=".5" d="M62 159h63v11H62z"/><circle r="1" fill="#121414" fill-opacity=".4" transform="matrix(.10726 -5.58596 20.5907 .39536 107.1 65.6)"/><path fill="#452f20" fill-opacity=".5" d="M136-2l20 61-30 10z"/><path fill="#061b24" fill-opacity=".5" d="M101 111h13v31h-13z"/><path fill="#83665b" fill-opacity=".8" d="M112.8 123.7l28.7 9-37.6-26.8 24.5-9z"/><path fill="#2a2217" fill-opacity=".7" d="M196.3 118.7l57.9-50.1L173 49.5l11.2 28.6z"/><path fill="#793a24" fill-opacity=".5" d="M99.8 22.4l22.3-15.7-16.6 46.1-15.4 1.3z"/><path fill="#cde1f1" fill-opacity=".5" d="M110 144l9-19 34 18z"/><path fill="#e6d8d2" fill-opacity=".5" d="M179 81l-6 61-39-48z"/><path fill="#eaedf8" fill-opacity=".4" d="M198.3 178.9l-1.5-43 23-.8 1.4 43z"/><path fill="#dad5e8" fill-opacity=".3" d="M99.7 121.5l19.1-32.9-12.6 8.5L71 43.7z"/><path fill="#dd9a88" fill-opacity=".5" d="M67 39l42 3-31 9z"/><path fill="#d1a87e" fill-opacity=".3" d="M216-4l18 13-56 5z"/><path fill="#272d33" fill-opacity=".6" d="M51.7 80.2L40.3 62.6l26-16.8 11.4 17.6z"/><path fill="#45565a" fill-opacity=".9" d="M41.3 130l-29.1-13.1 22.6-28.7 5.6 22.6z"/><path fill="#dad3ce" fill-opacity=".5" d="M119 76h14v15h-14z"/><circle r="1" fill="#12130c" fill-opacity=".4" transform="matrix(40.85765 -4.52993 .25958 2.34125 214.2 15.7)"/><circle r="1" fill="#c5997b" fill-opacity=".4" transform="rotate(-82.9 151.4 -50.1) scale(21.36212 8.97177)"/><path fill="#a37965" fill-opacity=".5" d="M55.4 56L27.8 70.3 24.6 64l27.6-14z"/><path fill="#2c241d" fill-opacity=".6" d="M158.8 83.6L141.2 87l-4-20.6 17.6-3.4z"/><circle r="1" fill="#513128" fill-opacity=".4" transform="rotate(98.2 -27.8 44.5) scale(38.9497 13.99133)"/><path fill="#1c222a" fill-opacity=".6" d="M80 155l19-33-61 31z"/><path fill="#785f51" fill-opacity=".4" d="M-16 5L90-16 35 40z"/><path fill="#521a00" fill-opacity=".4" d="M190.7 95.3l-1.9 40 7.4-.6.5-10.8z"/><path fill="#000008" fill-opacity=".3" d="M107.4 95.2l-30.8 25.5 44-48.1-14.8-29.4z"/><circle r="1" fill="#c6b1a5" fill-opacity=".6" transform="rotate(98.9 24.9 131.6) scale(43.70471 5.01059)"/><path fill="#ffcaa0" fill-opacity=".4" d="M81 19h13v9H81z"/><path fill="#967661" fill-opacity=".7" d="M165.7 157l14.5 3.4 37-56-45.1 62.5z"/><path fill="#d6ac99" fill-opacity=".4" d="M108 165l58-26-83 12z"/><path fill="#512f1d" fill-opacity=".8" d="M160.5 55.9l-4.4-21.1-8-22.3 30.8 42z"/><path fill="#161615" fill-opacity=".6" d="M112.3 142.1L33 112.2l68.3 33.6 15.8-45.5z"/><path fill="#e6e4e5" fill-opacity=".4" d="M125.3 122.3l-5.1-7.3 40.5-35.4-6.5 58.4z"/><path fill="#fbdcd0" fill-opacity=".4" d="M116.6 54.8l3.7-11.4-11-7.1 3.5 18z"/><path fill="#1d2128" fill-opacity=".5" d="M38 68h40v41H38z"/></g></svg>