<svg xmlns="http://www.w3.org/2000/svg" viewBox="0 0 300 199"><defs/><path fill="#3c3e6b" d="M0 0h300v199H0z"/><g transform="translate(.6 .6) scale(1.17188)"><path fill="#e5abc4" fill-opacity=".6" d="M139 108L-16 25 85-16z"/><circle r="1" fill="#261011" fill-opacity=".8" transform="rotate(-105.7 115 -53.5) scale(254.69124 77.68386)"/><circle r="1" fill="#090100" fill-opacity=".8" transform="rotate(-75.8 94.7 60.1) scale(32.72009 105.28003)"/><circle r="1" fill="#b06568" fill-opacity=".7" transform="rotate(129.7 22 63) scale(44.57232 22.66884)"/><path fill="#c2f3ff" fill-opacity=".6" d="M149.6 85l-3.1 14.6-40.1-8.5 3.1-14.7z"/><circle r="1" fill="#c76571" fill-opacity=".6" transform="matrix(26.5016 6.85378 -2.53532 9.80336 220.7 51.5)"/><path fill="#dd89a6" fill-opacity=".6" d="M179 135h15v35h-15z"/><path fill="#ff6b72" fill-opacity=".5" d="M130.5 62.9l11.3-21.2 17.7 9.4-11.3 21.2z"/><ellipse cx="15" cy="61" fill="#410a00" fill-opacity=".7" rx="16" ry="21"/><ellipse cx="43" cy="22" fill="#b0a7d7" fill-opacity=".6" rx="17" ry="48"/><path fill="#43170e" fill-opacity=".5" d="M139 53L103-5 93 94z"/><circle r="1" fill="#000310" fill-opacity=".7" transform="matrix(35.90975 2.60659 -4.16783 57.41819 235.1 140.4)"/><path fill="#00030e" fill-opacity=".7" d="M176.8 185.4l-63 1.1-.6-34 63-1z"/><circle r="1" fill="#2c221b" fill-opacity=".5" transform="matrix(-53.08358 16.02688 -5.24086 -17.35858 107.8 120.9)"/><path fill="#e592a9" fill-opacity=".5" d="M93 106l9-121-46 69z"/><ellipse cx="12" cy="90" fill="#f88ce0" fill-opacity=".5" rx="19" ry="8"/><circle r="1" fill="#3d0000" fill-opacity=".5" transform="matrix(8.91652 -24.58758 13.66735 4.95637 39.5 92.6)"/><path fill="#6772a7" fill-opacity=".7" d="M28-1.2l13.6 24.4-57.7 32-13.5-24.4z"/><ellipse cx="182" cy="10" fill="#0c0201" fill-opacity=".5" rx="80" ry="23"/><path fill="#93beff" fill-opacity=".5" d="M251 59l-36-24 23 27z"/><path fill="#fee6ff" fill-opacity=".5" d="M56 119l11-7-7-21z"/><circle cx="143" cy="139" r="14" fill="#45a0d6" fill-opacity=".4"/><ellipse cx="73" cy="101" fill="#620000" fill-opacity=".5" rx="9" ry="18"/><ellipse cx="208" cy="50" fill="#b92714" fill-opacity=".4" rx="16" ry="21"/><path fill="#c9fbf9" fill-opacity=".6" d="M58.3 11.6L41.4 26.7l-8.6-10.8L44.9-2.9z"/><path fill="#0f0809" fill-opacity=".6" d="M122 103h80v25h-80z"/><path fill="#b888c6" fill-opacity=".5" d="M34 31h35v38H34z"/><circle r="1" fill="#2f1939" fill-opacity=".4" transform="matrix(6.16289 -49.97637 1.2789 .1577 69.8 44.5)"/><circle cx="108" cy="106" r="16" fill="#a9afa0" fill-opacity=".3"/><path fill="#c4e0ff" fill-opacity=".5" d="M106 74l40 27-12-21z"/><path fill="#bf8492" fill-opacity=".5" d="M109 40h12v18h-12z"/><circle r="1" fill="#2a1c22" fill-opacity=".6" transform="matrix(16.4914 -21.99699 9.21312 6.90719 117.2 18.4)"/><path fill="#3b518e" fill-opacity=".5" d="M135 84.4l-17.8-14.5 41.4 18.3-6.2 24.3z"/><path fill="#90668f" fill-opacity=".4" d="M169.4 47.1l21.8 23.3-12 5.6-10.3-19.1z"/><path fill="#271520" fill-opacity=".8" d="M29.7 96.1l17.5-.8 12.9 55.5-76.1-47z"/><path fill="#bda4d3" fill-opacity=".6" d="M191 130h10v6h-10z"/><path fill="#b575b1" fill-opacity=".4" d="M12 83h32v11H12z"/><path fill="#10223e" fill-opacity=".4" d="M258 87l-21-41-53 80z"/><path fill="#172e78" fill-opacity=".7" d="M107.9 157.7l29.4 7.3-43.4 20h7.7z"/><ellipse cx="22" cy="169" fill="#040204" fill-opacity=".8" rx="84" ry="19"/><path fill="#492429" fill-opacity=".9" d="M72.4 80l19.3 43.2 1.1-21.7-18.1 7.7z"/><path fill="#230807" fill-opacity=".5" d="M65.5 83.5l5.6-16.3-78.6 6 64.3 9.2z"/><path fill="#080308" fill-opacity=".5" d="M234 0h22v52h-22z"/><path fill="#000004" fill-opacity=".5" d="M167 119l59-11-73-39z"/><path fill="#100000" fill-opacity=".5" d="M124 45l16 28-22-2z"/><path fill="#b391bc" fill-opacity=".5" d="M46 141h13v4H46z"/><path fill="#509ed6" fill-opacity=".6" d="M146 152l-7-25-12 1z"/><path fill="#3e6899" fill-opacity=".5" d="M104 144h54v8h-54z"/><path fill="#c1f9ff" fill-opacity=".5" d="M231.5 51.7l.9-1.8 18 8.4-.8 1.8z"/><path fill="#302e4a" fill-opacity=".7" d="M159.7 108.5l11.8 19.8-29.2 21.2 4.9-24.7z"/><path fill="#e9bda6" fill-opacity=".5" d="M98.2 108.6L79 83l4.8-3.6L103 105z"/><path fill="#ff89bb" fill-opacity=".6" d="M154 52l-10-11 3 14z"/><path fill="#72c9d8" fill-opacity=".5" d="M-8.9 122.1L1.2 53.2 5 18.8-16 31z"/><path fill="#1b1938" fill-opacity=".4" d="M102.6 100.3l-11.4 77.3 22.5-73.4-9.6-18z"/><path fill="#b24e8d" fill-opacity=".2" d="M-4.7 116.6l30.2-17.1 7.7-26.7-30.9 7.3z"/><path fill="#9786ba" fill-opacity=".8" d="M63.1-16L41.5 47.2l-38-6.9L72.3 9.4z"/><path fill="#f2f7ff" fill-opacity=".4" d="M59 85h5v11h-5z"/><path fill="#654882" fill-opacity=".5" d="M6.2-18.5l34.3 6.7-6.7 34.3-34.3-6.7z"/><path fill="#190e02" fill-opacity=".3" d="M129.6 133.6l12.9 17.3-28.2-15.9 40.9-42z"/><path fill="#561520" fill-opacity=".8" d="M41.4 94.1L29.2 81l5 22.7-48.8 1.9z"/><path fill="#c38092" fill-opacity=".5" d="M98.3 41.3l-15.8-2 7.2-58.6 15.8 2z"/><path fill="#300701" fill-opacity=".4" d="M179.1 64.9L195 23.8l14 5.3-16 41.1z"/><ellipse cx="60" cy="40" fill="#bc9fd8" fill-opacity=".5" rx="9" ry="28"/><ellipse cx="195" cy="157" fill="#7b1e24" fill-opacity=".5" rx="4" ry="24"/><path fill="#7c7abd" fill-opacity=".5" d="M51 108h7v12h-7z"/></g></svg>