<svg xmlns="http://www.w3.org/2000/svg" viewBox="0 0 300 199"><defs/><path fill="#524634" d="M0 0h300v199H0z"/><g transform="translate(.6 .6) scale(1.17188)"><circle r="1" fill="#ddf0fa" fill-opacity=".6" transform="rotate(-47.7 165 -224.2) scale(101.46239 54.48422)"/><circle cx="99" cy="43" r="60" fill="#101941" fill-opacity=".5"/><ellipse cx="207" cy="119" fill="#8a949b" fill-opacity=".7" rx="87" ry="16"/><circle r="1" fill="#e7fafc" fill-opacity=".5" transform="matrix(18.54276 -36.0803 17.05992 8.7676 164.8 96.8)"/><path fill="#543612" fill-opacity=".5" d="M263-16l-41 7-31 76z"/><circle cx="194" cy="148" r="27" fill="#3d342f" fill-opacity=".9"/><path fill="#796c6c" fill-opacity=".5" d="M-16 161l88-79 65 103z"/><circle r="1" fill="#00072f" fill-opacity=".6" transform="matrix(17.1412 4.96851 -17.07224 58.8986 106.1 42)"/><path fill="#d1e0de" fill-opacity=".6" d="M152 69.9l54-110.6 18 8.8-54 110.6z"/><path fill="#bdcddf" fill-opacity=".7" d="M232 18h10v120h-10z"/><circle r="1" fill="#c0afca" fill-opacity=".5" transform="rotate(-103.6 53.4 -26.5) scale(20.412 3.16012)"/><ellipse cx="137" cy="62" fill="#515257" fill-opacity=".7" rx="12" ry="47"/><path fill="#040721" fill-opacity=".7" d="M87.8 133.6l3.9-110.5 5.4 79.1 10.3 12.5z"/><path fill="#f1ccce" fill-opacity=".5" d="M24 14h10v18H24z"/><path fill="#5a504a" fill-opacity=".9" d="M115 185L96 73l67 85z"/><path fill="#141107" fill-opacity=".5" d="M45 55L-2-9l31 90z"/><path fill="#e6dddf" fill-opacity=".5" d="M276 54.6l-32.5 13L224 19.5l32.5-13z"/><circle r="1" fill="#7a6570" fill-opacity=".5" transform="matrix(4.11598 8.80005 -28.08055 13.1339 156 17)"/><ellipse cx="250" cy="142" fill="#585e73" fill-opacity=".7" rx="10" ry="59"/><circle cx="51" cy="69" r="15" fill="#805d46" fill-opacity=".6"/><path fill="#b72527" fill-opacity=".6" d="M88.5 42L69.7-28.5l5.8-1.5 18.8 70.5z"/><path fill="#00002c" fill-opacity=".5" d="M135 108L84 65l54 24z"/><circle r="1" fill="#838786" fill-opacity=".5" transform="rotate(-21.9 393.4 -473.2) scale(61.60078 5.98804)"/><circle r="1" fill="#291e02" fill-opacity=".5" transform="rotate(164.3 23.7 17.5) scale(9.69915 36.46378)"/><circle r="1" fill="#424654" fill-opacity=".7" transform="matrix(8.93948 -18.62952 8.56469 4.10982 157 32.3)"/><path fill="#f7ffc4" fill-opacity=".2" d="M58.3 29.8l46.8 5.9-28.7 2.2L81 78.4z"/><ellipse cx="177" cy="86" fill="#c9d6d4" fill-opacity=".5" rx="28" ry="32"/><path fill="#95815e" fill-opacity=".5" d="M64.6-9.4L51.8 19l18.1-4.7-1.8-9z"/><ellipse cx="107" cy="8" fill="#00021c" fill-opacity=".7" rx="14" ry="32"/><ellipse cx="68" cy="22" fill="#000007" fill-opacity=".6" rx="13" ry="6"/><path fill="#393723" fill-opacity=".9" d="M.5 30.1L1-16l32.1 37.5 2.3-23.8z"/><path fill="#5a5e64" fill-opacity=".9" d="M143.9 93.1l-24.4-13.2-1.5-10.8 39.6-12.5z"/><path fill="#889baa" fill-opacity=".4" d="M214 140l49-46-40-73z"/><path fill="#3b2013" fill-opacity=".5" d="M233.6-2.1l-22.7 44.5-4.5-2.3 22.7-44.5z"/><circle r="1" fill="#343d2f" fill-opacity=".5" transform="matrix(62.9366 -23.98728 4.6387 12.17076 22 104)"/><path fill="#dddcd0" fill-opacity=".3" d="M185-6l32 26-37 48z"/><path fill="#0c1114" fill-opacity=".6" d="M108.7 116.9l-7.1-5.5-22.9 15.7 3.2 5.5z"/><path fill="#ae915c" fill-opacity=".2" d="M123.5 37.9l-6.8-33.3 22.8 28L152.6.3z"/><circle r="1" fill="#b5c5ec" fill-opacity=".5" transform="matrix(3.0772 -.94763 4.04567 13.13728 87.9 0)"/><circle r="1" fill="#000d3a" fill-opacity=".5" transform="matrix(26.443 -11.83515 5.77611 12.90544 103.8 51)"/><path fill="#8e614d" fill-opacity=".6" d="M191.2 61.9l4.9-15.7L207 35l-2.3 29.2z"/><path fill="#a8b9c1" fill-opacity=".6" d="M143.7 133.6l-7.1-5.7 34.6-60.2-27.8 18.7z"/><ellipse cx="237" cy="98" fill="#b5cce1" fill-opacity=".5" rx="5" ry="41"/><path fill="#977d71" fill-opacity=".6" d="M150.4-16l74.1 26-18.1-26-47.3 29.5z"/><path fill="#75655d" fill-opacity=".6" d="M92.7 116.7L37.9 141l-10.6-23.8L82.1 93z"/><path fill="#000320" fill-opacity=".5" d="M112-2l52-6-30 27z"/><ellipse cx="190" cy="141" fill="#382e26" fill-opacity=".5" rx="26" ry="17"/><path fill="#0c0a04" fill-opacity=".7" d="M19.4 66.2l9.9 10.1 16.5-54.8-3.5 33.4z"/><path fill="#fed8e2" fill-opacity=".5" d="M32 21l-10 3 14 4z"/><path fill="#999693" fill-opacity=".7" d="M155.4 135.3l10.1 3 9.8-22.9-5-4.9z"/><path fill="#001442" fill-opacity=".6" d="M83.2 75.3L70-.5l4.9-.8L88 74.5z"/><ellipse cx="219" cy="115" fill="#797f7c" fill-opacity=".5" rx="8" ry="26"/><circle cx="22" cy="88" r="11" fill="#675d5b" fill-opacity=".5"/><path fill="#899795" fill-opacity=".6" d="M231 75l-21-33 19-28z"/><ellipse cx="35" cy="18" fill="#b87d94" fill-opacity=".4" rx="3" ry="11"/><path fill="#beceea" fill-opacity=".4" d="M93 37l1-13 5 10z"/><circle r="1" fill="#323435" fill-opacity=".5" transform="matrix(-10.119 -10.89433 14.33642 -13.31613 142.4 45.5)"/><ellipse cx="225" cy="155" fill="#434046" fill-opacity=".3" rx="92" ry="20"/><path fill="#ffd1ef" fill-opacity=".5" d="M84 37l1-5-2-4z"/><path fill="#611920" fill-opacity=".6" d="M84.6 35l-1.3-51-1.7 3.7L97.8 45z"/><path fill="#8e96b0" fill-opacity=".6" d="M81 13L77-5 76 5z"/><path fill="#5d585a" fill-opacity=".6" d="M137.9 121.3l-11.4-20.2L95.3 80l2.9 16z"/><path fill="#000d10" fill-opacity=".2" d="M133.1 88l-7.2 24.6 8 8.2 13.9-39.4z"/><path fill="#011336" fill-opacity=".7" d="M135.1 29.6L78 46.6l35 48 9-55.3z"/><path fill="#608157" fill-opacity=".6" d="M267.5-16l-25.2 30.4-18.7-2.7L255-16z"/></g></svg>