<svg xmlns="http://www.w3.org/2000/svg" viewBox="0 0 300 199"><defs/><path fill="#4e3c31" d="M0 0h300v199H0z"/><g transform="translate(.6 .6) scale(1.17188)"><circle r="1" fill="#bed6df" fill-opacity=".6" transform="matrix(-64.26538 10.74773 -14.24798 -85.19488 54.6 55.4)"/><circle r="1" fill="#a59a86" fill-opacity=".5" transform="matrix(159.47868 -106.18508 16.06096 24.12186 162.4 135)"/><ellipse cx="59" cy="19" fill="#dafaff" fill-opacity=".7" rx="51" ry="28"/><path fill="#f9b98a" fill-opacity=".6" d="M152.7 11.1L167.8-16l36.4 45.5-20.3 8.6z"/><circle cx="44" cy="130" r="84" fill="#6f7273" fill-opacity=".7"/><circle r="1" fill="#fff6bb" fill-opacity=".5" transform="matrix(19.07754 -59.76667 6.89678 2.20145 189.2 125.5)"/><ellipse cx="229" fill="#000202" fill-opacity=".8" rx="31" ry="51"/><circle r="1" fill="#27180e" fill-opacity=".7" transform="matrix(-30.54013 12.71263 -11.90456 -28.59887 153.2 91)"/><circle r="1" fill="#cb722d" fill-opacity=".6" transform="matrix(17.76135 -30.67424 12.00156 6.94928 123.9 54.2)"/><path fill="#000020" fill-opacity=".5" d="M179 137l-31-7 2 55z"/><path fill="#9e988a" d="M150.7 162L137 178.1l-25-61.4 5-21.4z"/><path fill="#fec797" fill-opacity=".7" d="M212.6 88.6l-20.4 53.3-6-55.2 6.4-14.9z"/><ellipse cx="131" cy="12" fill="#ffffd0" fill-opacity=".6" rx="13" ry="5"/><path fill="#070000" fill-opacity=".6" d="M184.3 185l35.6-87.8-12.2 11.6-25.1 55.2z"/><path fill="#2d2a26" fill-opacity=".6" d="M203 25l-20 37 63 32z"/><ellipse cx="152" cy="126" fill="#ffb472" fill-opacity=".7" rx="37" ry="5"/><path fill="#fff5d7" fill-opacity=".4" d="M254.3 135.8l-42.6-42.4 5-6 51.1 49.4z"/><path fill="#00173b" fill-opacity=".4" d="M7 62L-3 12l24 48z"/><path fill="#fcd8aa" fill-opacity=".2" d="M175.4 73.3l-55.5-38.9 39.5 9.4 7.7 94.8z"/><path fill="#c9e1ee" fill-opacity=".9" d="M13.3 48L3.5-16l112.4 40.2-6.8 13.8z"/><ellipse cx="85" cy="73" fill="#a49f8f" fill-opacity=".5" rx="26" ry="37"/><path fill="#d5c69b" fill-opacity=".5" d="M140 23h34v6h-34z"/><path fill="#180300" fill-opacity=".5" d="M126 58h30v65h-30z"/><path fill="#c95c05" fill-opacity=".3" d="M135.2 109.3l-21.1 12.9-15.2-71.9 26.9-27.8z"/><path fill="#e4b99f" fill-opacity=".8" d="M169.5 154.6l4.2 7 21.9 18.5-35.3 4.9z"/><path fill="#19171b" fill-opacity=".6" d="M172 152.6l2.2 10.9 9.5 1.7 49.7 19.8z"/><circle r="1" fill="#5b9abc" fill-opacity=".5" transform="matrix(4.83001 22.8546 -10.79178 2.2807 138.8 155.4)"/><path fill-opacity=".5" d="M104 .5L146.7-10 150 3.5 107.3 14z"/><path fill="#59524d" fill-opacity=".5" d="M123 184.4l-53.9-1.9 1.8-51 54 2z"/><ellipse cx="180" cy="104" fill="#302a26" fill-opacity=".8" rx="9" ry="13"/><path fill="#000100" fill-opacity=".5" d="M148 28h29v14h-29z"/><ellipse cx="156" cy="151" fill="#00111e" fill-opacity=".7" rx="6" ry="22"/><path fill="#ffe1bb" fill-opacity=".6" d="M186.3 77l2.8 24.3L218 77.1l-34.2.3z"/><path fill="#46637a" fill-opacity=".8" d="M1.5-6.4l-9.1 35.5 19.5 25.2-2.2-28.8z"/><circle r="1" fill="#242721" fill-opacity=".4" transform="matrix(14.22502 -11.56036 23.96678 29.49111 239.3 148.3)"/><path fill="#21120d" fill-opacity=".4" d="M168.6 107.1l-58-9L128 43.2l21.5 28.7z"/><path fill="#fffbe6" fill-opacity=".2" d="M253.6 58.9l-16.5 63.8-16.9-25.9 50.8 13.8z"/><path fill="#ffbd7a" fill-opacity=".6" d="M132.3 51L127 30.8l6.8-1.8 5.4 20.2z"/><path fill="#ffb369" fill-opacity=".6" d="M113.5 127.5v-29h11v29z"/><ellipse cx="54" cy="62" fill="#21333e" fill-opacity=".6" rx="17" ry="4"/><path fill="#fff3cb" fill-opacity=".5" d="M176 40l25-15-13-8z"/><ellipse cx="17" cy="110" fill="#355876" fill-opacity=".2" rx="23" ry="65"/><path fill="#f6cfa9" fill-opacity=".9" d="M201.7 88l-8 3.9-19.1 62.4 11.4-3.2z"/><path fill="#433a32" fill-opacity=".8" d="M199.2 28.4l-52.1 49 40.2-1.1 31.9 1.2z"/><path fill="#fffda9" fill-opacity=".5" d="M243 44h5v11h-5z"/><path fill="#fff1d4" fill-opacity=".6" d="M29 55h17v5H29z"/><path fill="#0e1308" fill-opacity=".5" d="M151.5 15.7l6.7 9.9-23.1-2.8-20.4-5.1z"/><circle r="1" fill="#685a4c" fill-opacity=".5" transform="rotate(-158.7 89 14.4) scale(5.44375 29.56935)"/><path fill="#524a3d" fill-opacity=".6" d="M219 59h29v31h-29z"/><path fill="#6d5339" fill-opacity=".5" d="M198 155l12-68 17 45z"/><path fill="#140100" fill-opacity=".3" d="M261.5 16.7L195.8-.8l-48-15.2 36.1 28.5z"/><circle r="1" fill="#909bac" fill-opacity=".5" transform="matrix(3.33896 10.39963 -34.93576 11.21665 71.7 84)"/><path fill="#dac6a4" fill-opacity=".5" d="M134.8 9.8L94.5 20l56.6-5.7 27.1-2.7z"/><path fill="#928754" fill-opacity=".6" d="M61 45h47v8H61z"/><path fill="#e0eae9" fill-opacity=".5" d="M70.3 39.9L80.9 7l9 52.4 10.8-2.9z"/><ellipse cx="17" cy="67" fill="#afe0fb" fill-opacity=".5" rx="13" ry="2"/><ellipse cx="67" cy="127" fill="#767472" fill-opacity=".5" rx="49" ry="26"/><path fill="#394d5a" fill-opacity=".9" d="M177.5 144.1l-16.9-15.4 1 3.3.2 38.4z"/><path fill="#001226" fill-opacity=".4" d="M-58.5 97.9L86.3 67.1l.2 1-144.8 30.8z"/><path fill="#e3ebea" fill-opacity=".6" d="M111.8 19.6l-32.1 6.2 25.8 20.8 6.1-13.1z"/><circle r="1" fill="#341200" fill-opacity=".4" transform="matrix(-5.77006 -2.3628 4.18648 -10.22356 118.1 28.5)"/><path fill="#f7e2a2" fill-opacity=".2" d="M164.3 67.2l-20.2-21.1 14.7-6.9 4.1 23.4z"/><path fill="#814b2c" d="M144 27.9l-7 35.3 14.1-16.1-9.1-12.3z"/><path fill="#b9dff1" fill-opacity=".7" d="M112.3 22.1L99.7-4.3-6-14.2l28.5 40z"/><path fill="#1b1913" fill-opacity=".6" d="M160.6 11.8l-12.4 7.7-1.2 25.3 5-13.7z"/></g></svg>