<svg xmlns="http://www.w3.org/2000/svg" viewBox="0 0 300 199"><defs/><path fill="#3b3b26" d="M0 0h300v199H0z"/><g transform="translate(.6 .6) scale(1.17188)"><circle r="1" fill="#ebd3be" fill-opacity=".7" transform="rotate(148.7 62.7 67) scale(195.91899 123.11083)"/><circle r="1" fill="#511703" fill-opacity=".5" transform="rotate(-59 122 -193) scale(68.64934 17.53773)"/><circle r="1" fill="#4e2a26" fill-opacity=".6" transform="matrix(-20.67177 4.17208 -7.5466 -37.39185 149.2 113)"/><circle r="1" fill="#d5ddee" fill-opacity=".6" transform="rotate(-85.7 178.5 -88.2) scale(81.11564 43.26784)"/><circle r="1" fill="#917d37" fill-opacity=".6" transform="matrix(28.37572 10.79857 -28.79092 75.65477 22.2 34.8)"/><circle r="1" fill="#c8cfcd" fill-opacity=".6" transform="rotate(-126.9 70.2 -15.1) scale(47.8907 41.79439)"/><path fill="#f9a0c8" fill-opacity=".8" d="M161.2 104.6l2.5 15.3-16.4-1-.2-24.7z"/><circle r="1" fill="#a97b64" transform="matrix(21.74533 -3.87827 6.64868 37.27888 189.3 16.4)"/><ellipse cx="226" cy="2" fill="#040100" fill-opacity=".6" rx="12" ry="26"/><ellipse cx="78" cy="123" fill="#d6c394" fill-opacity=".5" rx="54" ry="53"/><ellipse cx="182" cy="119" fill="#a15333" fill-opacity=".5" rx="21" ry="18"/><path fill="#594e26" fill-opacity=".7" d="M-16 53l70-42-5 26z"/><circle r="1" fill="#b7a368" fill-opacity=".6" transform="matrix(4.51355 35.93769 -67.76697 8.5111 23.4 85.5)"/><path fill="#0a301f" fill-opacity=".5" d="M135 76h10v56h-10z"/><path fill="#841d02" fill-opacity=".3" d="M125.5 139.5l-8.1 32.9 6.9 12.6 33.6-9z"/><circle r="1" fill="#c7c1c4" transform="matrix(2.42367 -31.2495 22.01278 1.70728 221.7 91)"/><path fill="#ffc8e1" fill-opacity=".5" d="M156 89l28 19-36-66z"/><path fill="#76553c" d="M230.4-15l9.9 22.4L271 17.9v-29.2z"/><path fill="#4b3327" fill-opacity=".5" d="M165.3 30.5l17-12.1-14.4-22.3-.7 28.1z"/><path fill="#a0694c" fill-opacity=".6" d="M165 84l54-44-25 55z"/><circle r="1" fill="#bcbca8" fill-opacity=".6" transform="rotate(-111.3 46.4 -12.1) scale(40.88246 12.6146)"/><circle r="1" fill="#e3c3d3" fill-opacity=".4" transform="matrix(-7.38239 -5.18843 24.62394 -35.03633 107.8 146)"/><path fill="#ffddc0" fill-opacity=".3" d="M172 0h32v12h-32z"/><path fill="#e2e8da" fill-opacity=".4" d="M24 159h54v11H24z"/><circle r="1" fill="#e79ac5" fill-opacity=".5" transform="matrix(2.95138 -4.51018 23.11356 15.12509 191 101.9)"/><path fill="#3d1400" fill-opacity=".3" d="M131.1 123.4l32.2-1.6-11.8 29.7 23.9 2.2z"/><circle r="1" fill="#d8dcde" fill-opacity=".4" transform="rotate(-86.1 183.5 -49.8) scale(14.10334 23.22318)"/><ellipse cx="236" cy="58" fill="#cdd1d7" fill-opacity=".6" rx="16" ry="33"/><path fill="#ecbfad" fill-opacity=".5" d="M180 23h26v9h-26z"/><path fill="#9d8c5c" fill-opacity=".6" d="M259.4 170.2l-6 .5-2.8-39 6-.4z"/><path fill="#1a1e00" fill-opacity=".6" d="M160 105l5-7 11 12z"/><circle r="1" fill="#d3e0f3" fill-opacity=".6" transform="matrix(.06457 -4.63527 17.3397 .24155 207.8 169)"/><path fill="#d2ab8c" fill-opacity=".5" d="M152.3 100.4l-2 4.6-50.6-21.4 2-4.6z"/><path fill="#462d00" fill-opacity=".4" d="M78-5.6l17.6 3.4-1.5 7.8-17.7-3.4z"/><path fill="#011c06" fill-opacity=".2" d="M141.8 72l-10.4 61 20-44.6L141 26.3z"/><path fill="#a88d78" fill-opacity=".6" d="M165.8 121.4L158 162l31.2 4.9 2.8-48.6z"/><path fill="#502d24" fill-opacity=".6" d="M190 12h12v10h-12z"/><path fill="#3d2810" fill-opacity=".6" d="M182 89h15l-12 6z"/><path fill="#c6b6a9" fill-opacity=".6" d="M187.6 57.7l-16.4-23.6-2.3 27.1 21.4 31.6z"/><ellipse cx="218" cy="94" fill="#a49083" fill-opacity=".5" rx="4" ry="28"/><path fill="#655540" fill-opacity=".6" d="M204 158l4-11 14 15z"/><ellipse cx="165" cy="37" fill="#441300" fill-opacity=".4" rx="2" ry="11"/><path fill="#454219" fill-opacity=".5" d="M185.1 102.4l-3.2 1.4 19 25-3.1-12.6z"/><circle r="1" fill="#c2c4c2" fill-opacity=".5" transform="rotate(75.1 64.6 102.8) scale(24.02317 20.66748)"/><path fill="#30392b" fill-opacity=".7" d="M153.7 128.9l2.7-1.8-23.3-29.2-7.3 5.3z"/><path fill="#621007" fill-opacity=".3" d="M180 54.9l18.2-14.8-11.1-.4-8.2-6z"/><path fill="#d0d8db" fill-opacity=".7" d="M124.9 128l7.1 1.9-34.1-1.4 17.4-10z"/><path fill="#ffefff" fill-opacity=".4" d="M171 73v9l-31-12z"/><path fill="#ffb7ed" fill-opacity=".4" d="M217 93.1l-29.8 11.5L177 86.7l-14 9.7z"/><path fill="#bcc9ce" fill-opacity=".5" d="M245 58l-7-50 33 9z"/><path fill="#54710a" fill-opacity=".5" d="M178 69l-6 13 13 5z"/><path fill="#bb9589" fill-opacity=".5" d="M138 163.4l-21-.8 1-30 21 .8z"/><path fill="#c4b98c" fill-opacity=".5" d="M-7 127l160-62L22 179z"/><path fill="#38271a" fill-opacity=".4" d="M246.4-16L235 24.1 217 36l-7-52z"/><path fill="#ffade6" fill-opacity=".4" d="M162.4 97l-6.8 9.8 13.3 6-28.8-2.1z"/><path fill="#501504" fill-opacity=".3" d="M175.6 185H65.5l49.4-15.1 27.2-8.8z"/><path fill="#1a170d" fill-opacity=".6" d="M165 103h4v19h-4z"/><path fill="#173a26" fill-opacity=".5" d="M137 77h15v12h-15z"/><path fill="#92482c" fill-opacity=".3" d="M137.8 130.1l3.1 20.8 40.4-14-2.9-9.2z"/><circle cx="131" cy="88" r="4" fill="#104323" fill-opacity=".5"/><path fill="#cbcac5" fill-opacity=".5" d="M89 31l42 47 9-76z"/><path fill="#faaf84" fill-opacity=".5" d="M168.8 126.4l19.4-10.3-2.9 10.3-18.3 1.1z"/><path fill="#b67760" fill-opacity=".6" d="M158 92l10-7-18 2z"/><path fill="#ad724c" d="M177.1 103.9l-14.2 25.8 21.2-12.9-12.4-15.5z"/><path fill="#ed9ec4" fill-opacity=".5" d="M152.1 125.8l8.4-23.4-15.2-8.2 1 12.8z"/></g></svg>