<svg xmlns="http://www.w3.org/2000/svg" viewBox="0 0 300 199"><defs/><path fill="#6c4c3f" d="M0 0h300v199H0z"/><g transform="translate(.6 .6) scale(1.17188)"><ellipse cx="232" cy="80" fill="#000004" fill-opacity=".9" rx="53" ry="169"/><circle r="1" fill="#d4dad2" fill-opacity=".6" transform="matrix(-34.38682 11.84204 -23.40816 -67.97243 138.8 13.5)"/><circle r="1" fill="#000007" fill-opacity=".6" transform="matrix(-183.63532 -61.08734 11.1693 -33.57618 21 137.6)"/><path fill="#ffffe5" fill-opacity=".5" d="M84.2 59.9L10 75.7 5.8 56 80 40.3z"/><circle r="1" fill-opacity=".6" transform="matrix(-3.8557 24.07188 -66.95377 -10.72426 33.2 11.5)"/><circle r="1" fill="#0d1312" fill-opacity=".5" transform="rotate(102.4 19.8 76.3) scale(50.03852 17.55658)"/><circle r="1" fill="#8c7e6f" fill-opacity=".7" transform="matrix(-.04041 11.57719 -43.51362 -.1519 28.8 76.3)"/><path fill="#cccbc8" fill-opacity=".7" d="M138 90l-20-42 35-31z"/><path fill="#090a0a" fill-opacity=".6" d="M154 131.5l-32.3-26.7 3.6-25.7 44 46z"/><circle cx="75" cy="96" r="7" fill="#faffff" fill-opacity=".6"/><path fill="#8c6a4a" fill-opacity=".8" d="M176.6 96.6l5.7-35.3-36.1-9.4-6.3 33.3z"/><path fill="#ffffe7" fill-opacity=".5" d="M67 2.6L48 25.9l-3-2.5L63.8.1z"/><path fill="#bfc5b2" fill-opacity=".5" d="M109 92h10v46h-10z"/><circle r="1" fill="#01050c" fill-opacity=".5" transform="matrix(14.67201 12.90142 -38.5943 43.89097 19 23.4)"/><path fill="#f4e8c0" fill-opacity=".5" d="M5.1 35.6l74.1 2.8-35.4 1.7-59.8-4.5z"/><path fill="#121618" fill-opacity=".6" d="M-7 95l31-16 74 84z"/><path fill="#feefd5" fill-opacity=".5" d="M50.2 51l35.7-9.5-6.6 19.1-71.6 4.9z"/><path fill="#8d7361" d="M97.3 114.8l47.5 31.5 9.2-12.1-32.1-23.5z"/><path fill="#d5e8fe" fill-opacity=".7" d="M1.1 84.4L12 83.3l-.8-7.5L.1 73.7z"/><ellipse cx="51" cy="68" fill="#190300" fill-opacity=".3" rx="72" ry="5"/><path fill="#eef7e5" fill-opacity=".4" d="M63.3 112.8l-14-2.4 2.8-8.7 18.5 3.4z"/><path fill="#80756f" fill-opacity=".6" d="M3 97l8 42-27-35z"/><ellipse cx="160" cy="23" fill="#b3aca6" fill-opacity=".7" rx="20" ry="35"/><circle r="1" fill="#000001" fill-opacity=".2" transform="rotate(-166.2 95.8 74.1) scale(112.76372 23.63468)"/><ellipse cx="183" cy="52" fill="#141111" rx="3" ry="143"/><path fill="#a6a7a0" fill-opacity=".5" d="M75.6 99.3l-10 26.8 22.6-3.6-30.7-16.7z"/><path fill="#d4b189" fill-opacity=".5" d="M37 89l18-4-44-33z"/><ellipse cx="51" cy="42" fill="#0b0200" fill-opacity=".5" rx="50" ry="2"/><path fill="#7f7a78" fill-opacity=".5" d="M102 0h17v50h-17z"/><path fill="#221e19" fill-opacity=".6" d="M78 75l-59 34 46-10z"/><circle r="1" fill="#baa8a1" fill-opacity=".4" transform="matrix(-7.81802 -39.8488 2.31719 -.45461 139 99.5)"/><circle r="1" fill="#d13800" fill-opacity=".3" transform="matrix(-12.94092 -.42139 .53879 -16.54619 162 144.2)"/><path fill="#16110e" fill-opacity=".8" d="M-7 185l24-61 60-16z"/><ellipse cx="139" cy="135" fill="#b9b7b0" fill-opacity=".4" rx="3" ry="20"/><path fill="#0e0704" fill-opacity=".3" d="M71.7-23.2l52.5 91-20 11.4-52.4-91z"/><path fill="#151517" fill-opacity=".5" d="M241 53l-69 72 6-52z"/><path fill="#402c1d" fill-opacity=".5" d="M147.3 54.4l7.2-20-12.6 73.4-8.7 14.7z"/><path fill="#d8ccb9" fill-opacity=".8" d="M75.3 44.8l-28.1-.4-11.3 21.9 27.8-5z"/><path fill="#e3dcd2" fill-opacity=".5" d="M153 45h28v11h-28z"/><circle r="1" fill="#8a8c89" fill-opacity=".6" transform="matrix(15.8415 16.29017 -8.52259 8.28786 104.5 4)"/><path fill="#bab8b4" fill-opacity=".5" d="M120 80l27-17-5-79z"/><path fill-opacity=".5" d="M128 70l7 43-16-5z"/><path fill="#44311e" fill-opacity=".5" d="M158.8 67l9-13.4-1.4-1.8 12.1 13.8z"/><path fill="#34261f" fill-opacity=".5" d="M95.6 108L64 77.3 90.4 50 122 80.6z"/><path fill="#191c1f" fill-opacity=".7" d="M104 115.2L70 108l37.5-12.5 1.5 12.8z"/><path fill="#ffffeb" fill-opacity=".5" d="M43 26L55 9l1 7z"/><path fill="#02182f" fill-opacity=".4" d="M90 185h66l-31-62z"/><path fill="#ffffde" fill-opacity=".5" d="M18 37h40v2H18z"/><ellipse cx="181" cy="163" fill="#fff" fill-opacity=".5" rx="2" ry="4"/><path fill="#1f130d" fill-opacity=".5" d="M51 39L26 53l-42-9z"/><path fill="#3c2c1d" fill-opacity=".5" d="M173 119l-34 5 1-48z"/><circle r="1" fill="#4b595c" fill-opacity=".3" transform="matrix(-20.38987 1.96332 -1.65211 -17.15784 55.1 169)"/><path fill="#8e5544" fill-opacity=".5" d="M108 134l-16-1 2-21z"/><path fill="#feded9" fill-opacity=".2" d="M-16 119.2l6.9 3.3 19.2 1.8 13.6-4.4z"/><path fill="#ffe2c8" fill-opacity=".6" d="M55.6 78.2l10.9-8.8 1.9 2.4-10.9 8.8z"/><path fill="#301b03" fill-opacity=".3" d="M53.7 81.9l-8.8-19.2L65 64.6 30.6 104z"/><ellipse cx="96" cy="94" fill="#d3c9b3" fill-opacity=".5" rx="5" ry="3"/><path fill="#cffcfe" fill-opacity=".3" d="M107.7 91.9l1.1 19 2.7 3 7-20.8z"/><path fill="#b6876b" fill-opacity=".6" d="M154 109l3 12 5-13z"/><path fill="#7e5e47" fill-opacity=".5" d="M12 53l-17 3 37 33z"/><path fill="#ffe0b0" fill-opacity=".3" d="M75.5 49.4L3.4 54.7l16 13.6L57.6 61z"/><circle r="1" fill="#030005" fill-opacity=".6" transform="matrix(-35.32538 -12.44003 5.80329 -16.47933 15.2 4.6)"/><path fill="#febd75" fill-opacity=".3" d="M153.2 55.1l-6.7 15.8-.4 29.2 15.7-49.6z"/><ellipse cx="137" cy="75" fill="#fff" fill-opacity=".3" rx="3" ry="26"/><path fill="#22160b" fill-opacity=".6" d="M108.9 62.3l14.5-5.9-6 33.2-27.3-36.2z"/></g></svg>