<svg xmlns="http://www.w3.org/2000/svg" viewBox="0 0 300 199"><defs/><path fill="#404040" d="M0 0h300v199H0z"/><g transform="translate(.6 .6) scale(1.17188)"><circle r="1" fill="#f5f5f5" fill-opacity=".6" transform="matrix(-31.0653 34.61115 -22.16823 -19.89713 196.5 25.5)"/><circle r="1" fill="#b6b6b6" fill-opacity=".5" transform="rotate(-4.7 1078.7 -304.5) scale(31.76038 150.02844)"/><circle r="1" fill="#909090" fill-opacity=".5" transform="matrix(-3.31093 -39.42878 65.49928 -5.50013 125 146.9)"/><circle r="1" fill-opacity=".7" transform="matrix(19.88136 62.72416 -32.32804 10.24685 89.8 48.6)"/><circle r="1" fill="#070707" fill-opacity=".7" transform="matrix(50.36238 -42.7104 15.44823 18.21593 240.3 52.3)"/><path fill="#d5d5d5" fill-opacity=".5" d="M136 40h66v29h-66z"/><circle r="1" fill-opacity=".5" transform="rotate(-157.1 80.5 -6.1) scale(26.22646 18.93288)"/><circle r="1" fill="#575757" fill-opacity=".7" transform="rotate(-25.6 313.8 -15.9) scale(56.3451 25.68702)"/><circle r="1" fill-opacity=".5" transform="rotate(-32.8 370.6 -341.4) scale(105.02861 25.84014)"/><path fill="#eaeaea" fill-opacity=".6" d="M127.3-2.7l6.9 45.8-22.1-55.8-17.9 10z"/><path fill="#cecece" fill-opacity=".4" d="M0 124l39-83-48-54z"/><path fill="#fff" fill-opacity=".2" d="M254.4 107.9l-52.3 36.4 10.5-47 28.5-21.5z"/><path fill="#dedede" fill-opacity=".6" d="M162.3 44.8L191 73.9l-26.7-57.8 24.8-27.4z"/><circle r="1" fill-opacity=".4" transform="rotate(-104 112 -29.9) scale(20.50782 6.8133)"/><circle r="1" fill="#f5f5f5" fill-opacity=".5" transform="rotate(-139.8 103 -37.7) scale(32.32982 21.17387)"/><circle r="1" fill="#e1e1e1" fill-opacity=".6" transform="matrix(-8.19855 4.7158 -15.48853 -26.92722 35.5 0)"/><path fill="#e1e1e1" fill-opacity=".6" d="M183.9 81.5l-4.6 3.7-7.3-43.4 24 2.3z"/><ellipse cx="255" fill="#121212" rx="21" ry="88"/><path fill="#0d0d0d" fill-opacity=".4" d="M8.5 8.2l17.6 7.3L151 84.3 44.1 37.7z"/><path fill="#535353" fill-opacity=".7" d="M196 87L86 131l116 3z"/><path fill="#7d7d7d" fill-opacity=".7" d="M200 129l-35 56-181-30z"/><path fill-opacity=".6" d="M137.6 38.3l.8-43 26 .4-.8 43z"/><path fill="#060606" fill-opacity=".4" d="M65 63h75v40H65z"/><path fill="#060606" fill-opacity=".4" d="M73.5 100.1l-81 34.4-2-4.6 81-34.4z"/><ellipse cx="201" cy="39" fill="#787878" fill-opacity=".6" rx="23" ry="5"/><ellipse cx="203" cy="114" fill-opacity=".6" rx="4" ry="27"/><path fill="#9a9a9a" fill-opacity=".5" d="M56 46L23 22l45 80z"/><circle r="1" fill="#545454" fill-opacity=".5" transform="rotate(150.7 48.8 76.5) scale(57.8562 19.06359)"/><path fill-opacity=".4" d="M168 36l14-6-2-12z"/><path fill="#bcbcbc" fill-opacity=".5" d="M180 56h21v16h-21z"/><path fill="#f4f4f4" fill-opacity=".4" d="M233 25l-11 15-1-56z"/><path fill-opacity=".5" d="M246.7 83.5l5-.6 5.6 45.6-5 .6z"/><circle r="1" fill="#929292" fill-opacity=".6" transform="matrix(4.13725 -1.02543 4.73016 19.08447 92.7 125.2)"/><circle r="1" fill="#929292" fill-opacity=".7" transform="rotate(-157.6 18.7 41) scale(20.04757 34.30474)"/><path fill="#090909" fill-opacity=".6" d="M210.7 110.2L201.2 53l14.3 5.8-34.4 23.7z"/><path fill="#fcfcfc" fill-opacity=".3" d="M140.6 45l-.2-5.5 96.1 8-89.1.3z"/><circle cx="165" cy="71" r="10" fill-opacity=".5"/><path fill="#535353" fill-opacity=".7" d="M156.4 52.5l11.3 18L134 41.9l-8.8 26.4z"/><path fill="#848484" fill-opacity=".6" d="M248.6 102.9l-.1-1.1-3.4-25.1-21 35.9z"/><circle r="1" fill="#727272" fill-opacity=".7" transform="rotate(-112.5 56.5 84.5) scale(16.88613 78.27576)"/><path fill="#909090" fill-opacity=".5" d="M210 139l-101 33 35 13z"/><ellipse cx="150" cy="69" fill="#c5c5c5" fill-opacity=".3" rx="7" ry="12"/><path fill="#121212" fill-opacity=".7" d="M52 3l62 7 21 36z"/><path fill="#0d0d0d" fill-opacity=".7" d="M182-7l-58-9 14 54z"/><path fill="#0b0b0b" fill-opacity=".7" d="M84 112L46-12l54-3z"/><circle r="1" fill="#101010" fill-opacity=".6" transform="matrix(-21.51065 -7.13765 5.8793 -17.71836 224.8 64.9)"/><path fill="#b1b1b1" d="M207.6 22.3l8.6-17.8 1.4 17.8 21 .9z"/><path fill="#121212" fill-opacity=".5" d="M133.6 60.3l18.6 48.5 4.4-20.6-103.5 15.3z"/><path fill="#9d9d9d" fill-opacity=".6" d="M191.1-16l-29.7 47.8 7.9-15.8L157 62.6z"/><path fill="#f9f9f9" fill-opacity=".5" d="M180 5h6v17h-6z"/><circle r="1" fill="#d4d4d4" fill-opacity=".3" transform="matrix(4.435 -1.5646 5.74893 16.29583 123.9 11)"/><path fill="#fbfbfb" fill-opacity=".5" d="M195 55l19-9-43-6z"/><path fill="#c2c2c2" fill-opacity=".5" d="M255 82h1v24h-1z"/><path fill="#e4e4e4" fill-opacity=".6" d="M189 29h33v5h-33z"/><path fill="#e8e8e8" fill-opacity=".3" d="M180.5-4.3l-14.4 41.8-.7-20.8L178.1.4z"/><path fill="#666" fill-opacity=".6" d="M176.8 127.1L154.5 160l48.5-18.3-148.1-3.3z"/><path fill="#b9b9b9" fill-opacity=".6" d="M3.5 3.1L27 26.5-3.5 56.9-27 33.5z"/><path fill="#4b4b4b" fill-opacity=".6" d="M63 126l-46-3 48-19z"/><path fill="#0c0c0c" fill-opacity=".5" d="M271 98l-91.5 64.3 5 22.7 43.5-47.9z"/><path fill="#838383" fill-opacity=".9" d="M138 44.8l10.9 9.2 21.7 9.5-3.1-12.8z"/><path fill="#3f3f3f" fill-opacity=".5" d="M195.2 118l-89 18.9-1.4-6.9 89-18.9z"/><path fill="#444" fill-opacity=".3" d="M191.8 25.9l1 2.3-.8-9.9 24.3 13.6z"/><path fill="#e2e2e2" fill-opacity=".9" d="M233.5 18.9l1.6-34.9-22.4 46.3 19.4-7.1z"/><circle r="1" fill-opacity=".4" transform="matrix(.89262 2.25919 -7.29545 2.8825 178.5 27.2)"/><path fill="#232323" fill-opacity=".4" d="M202.6 69.8l-6.1-9.2 48.3-28.3-41 20.1z"/></g></svg>