<svg xmlns="http://www.w3.org/2000/svg" viewBox="0 0 300 199"><defs/><path fill="#314a5f" d="M0 0h300v199H0z"/><g transform="translate(.6 .6) scale(1.17188)"><ellipse cx="210" cy="70" fill="#fdbf8d" fill-opacity=".6" rx="146" ry="106"/><circle cx="51" cy="169" r="66" fill="#0c0100" fill-opacity=".6"/><path fill="#bfa296" d="M42 75l184 110L97 28z"/><circle r="1" fill="#18100a" fill-opacity=".8" transform="matrix(-8.0243 49.00145 -35.75004 -5.8543 45.8 15.5)"/><ellipse cx="175" cy="169" fill="#f1dede" fill-opacity=".6" rx="51" ry="37"/><circle r="1" fill="#552c0c" fill-opacity=".6" transform="rotate(-113.6 89.2 20) scale(28.66192 14.16918)"/><circle r="1" fill="#765c43" fill-opacity=".8" transform="matrix(-9.66132 18.08772 -26.96226 -14.40154 181.6 108.4)"/><circle r="1" fill="#de923b" fill-opacity=".5" transform="matrix(1.05013 46.2751 -15.27059 .34654 0 54.7)"/><path fill="#f9f6f2" fill-opacity=".6" d="M75 58l16 65-42-52z"/><path fill="#efdab0" fill-opacity=".7" d="M148.3 19.2l41.9 54.4 1.9 1.4 2.7-43.8z"/><ellipse cx="31" cy="106" fill="#201b18" fill-opacity=".7" rx="30" ry="32"/><circle r="1" fill="#e9c6bb" fill-opacity=".8" transform="matrix(-14.88832 -6.22536 7.2422 -17.32012 137.4 74.7)"/><circle cx="133" r="44" fill="#6f4300" fill-opacity=".3"/><ellipse cx="39" cy="70" fill="#ecfbff" fill-opacity=".6" rx="9" ry="5"/><ellipse cx="250" cy="39" fill="#7d7468" fill-opacity=".7" rx="17" ry="167"/><circle r="1" fill="#10151c" fill-opacity=".6" transform="matrix(-7.4678 3.9707 -4.44291 -8.3559 164 110.1)"/><ellipse cx="113" cy="55" fill="#530500" fill-opacity=".4" rx="3" ry="29"/><path fill="#e7ae8c" fill-opacity=".4" d="M89 90l32-90-69 66z"/><path fill="#392a21" d="M83.4-16l18.3 43.2-.4-42.1-39.9 76.6z"/><path fill="#341300" fill-opacity=".5" d="M142.9 27L113 35.7l-2-6.7 29.8-8.5z"/><circle r="1" fill="#c9a99f" fill-opacity=".8" transform="matrix(15.55609 2.26232 -10.30694 70.8721 138.7 165.2)"/><circle r="1" fill="#18191b" fill-opacity=".5" transform="matrix(-26.61187 -44.52658 17.27387 -10.32394 103.9 166.1)"/><path fill="#402723" fill-opacity=".5" d="M129 95l-28-3 12 37z"/><circle r="1" fill="#d8dadc" fill-opacity=".6" transform="matrix(-14.5601 10.75778 -15.3353 -20.75554 210.3 169)"/><path fill="#212224" fill-opacity=".7" d="M-16 121l125 23-51-58z"/><circle r="1" fill="#9c7242" fill-opacity=".5" transform="rotate(-113.1 107.8 -17.9) scale(67.33787 8.68867)"/><ellipse cx="22" cy="74" fill="#150a00" fill-opacity=".6" rx="6" ry="24"/><path fill="#eddcbc" fill-opacity=".4" d="M154.2 8.9l39.2 29.5-9.6 12.7-39.2-29.5z"/><path fill="#9b7651" fill-opacity=".8" d="M8.2 93.5l7.1-16.9 3.9-35.3-35.2 83.4z"/><path fill="#af714c" fill-opacity=".5" d="M110.8 61.4l11 14.1-34.6 27.1-11-14.1z"/><circle r="1" fill="#a7714b" fill-opacity=".5" transform="matrix(-34.88125 -49.58204 5.1183 -3.60075 127.4 157.3)"/><path fill="#493e2e" fill-opacity=".6" d="M243 24l6-40 22 32z"/><circle r="1" fill="#978265" fill-opacity=".4" transform="matrix(31.76594 12.51476 -18.63825 47.30906 216.3 90.6)"/><path fill="#2d1515" fill-opacity=".5" d="M126 50h17v5h-17z"/><path fill="#63453e" fill-opacity=".5" d="M80.4 36.5l6.3-22.2L44.5 74l30-25.2z"/><path fill="#f1c1b8" fill-opacity=".5" d="M84.6 18.6l9.6-3 15.2 49.8-9.6 3z"/><path fill="#433732" fill-opacity=".6" d="M238.9 157.1l-55.4-29-27.7-42.2.8 29.6z"/><path fill="#e1feff" fill-opacity=".5" d="M57 68H30l53 27z"/><path fill="#feffea" fill-opacity=".7" d="M110.8-5.3l3.5 7.1-7.1 3.5-3.5-7.1z"/><path fill="#dccbc7" fill-opacity=".5" d="M189 132l-38 7-34-36z"/><path fill="#171615" fill-opacity=".7" d="M6 24l41-40-20 80z"/><ellipse cx="210" cy="14" fill="#968143" fill-opacity=".2" rx="39" ry="30"/><path fill="#e2e4e3" fill-opacity=".6" d="M52.4 77.1l20.1 7.6 7.2 6.7 15.5 35.8z"/><circle cx="161" cy="111" r="2" fill="#fff" fill-opacity=".6"/><path fill="#002860" fill-opacity=".2" d="M280.5 173.2l-27.6 21.5-23.4-29.9 27.6-21.5z"/><path fill="#53513c" fill-opacity=".4" d="M197.6-16L136 3.7l-1.6 3 22.1 9.2z"/><circle r="1" fill="#67330b" fill-opacity=".5" transform="rotate(126.6 65.8 54.5) scale(5.94155 11.77623)"/><circle r="1" fill="#8c8c95" fill-opacity=".4" transform="rotate(-12.5 705.1 -1004) scale(24.78042 31.49205)"/><path fill="#c1a776" fill-opacity=".5" d="M103 11h68v13h-68z"/><path fill="#daa98a" fill-opacity=".7" d="M123.5 30.8l-15.1 36.6-8.9-38.3 28 48.1z"/><path fill="#a6878a" fill-opacity=".5" d="M132.6 92.4l-17.7 9.5 3.9 20.8 9.1 18.9z"/><circle cx="7" cy="16" r="3" fill="ivory" fill-opacity=".5"/><path fill="#806149" fill-opacity=".5" d="M213 139l-13-74-13 66z"/><path fill="#4f4e24" fill-opacity=".8" d="M0-8.4l13.3 9L0 20.3l-13.2-9z"/><path fill="#cead8e" fill-opacity=".4" d="M172.9 105.9l13.1 10.4-3.8-12.6-41-37.1z"/><path fill="#040403" fill-opacity=".4" d="M46.2 70.3L30.8 59.1l17-23.4 15.4 11.2z"/><circle r="1" fill="#d0ad74" fill-opacity=".4" transform="matrix(-7.6065 -2.84396 11.56143 -30.92246 192.8 58.9)"/><path fill="#382219" fill-opacity=".5" d="M167.4 89.9l4.1-4.4 15.1 14.6-4.1 4.4z"/><circle r="1" fill="#80434c" fill-opacity=".5" transform="matrix(3.25152 -1.34515 1.7897 4.32609 89.8 41.5)"/><path fill="#e9b48f" fill-opacity=".4" d="M132 30l16 9-5 18z"/><path fill="#3f2f31" fill-opacity=".5" d="M153.4 65.3l3.2-2.4 10 13.8-3.2 2.4z"/><path fill="#2f1f0b" fill-opacity=".5" d="M109 103h8v27h-8z"/><path fill="#dcc0bc" fill-opacity=".8" d="M141.8 72.1l-27 5.4-3.4 14.2 31.7.3z"/><path fill="#fbeed5" fill-opacity=".5" d="M180 63l2-22-19-13z"/><path fill="#e0bf82" fill-opacity=".5" d="M169.3 46.4l.4 19-7 .2-.4-19z"/></g></svg>