<svg xmlns="http://www.w3.org/2000/svg" viewBox="0 0 300 199"><defs/><path fill="#68453d" d="M0 0h300v199H0z"/><g transform="translate(.6 .6) scale(1.17188)"><circle r="1" fill="#e3f4ff" fill-opacity=".7" transform="matrix(-50.13778 -197.89491 39.47428 -10.00103 227.2 76.2)"/><circle r="1" fill="#cfdbe5" fill-opacity=".8" transform="matrix(-33.63162 -13.38365 60.30757 -151.54622 103.4 47.8)"/><circle r="1" fill-opacity=".9" transform="rotate(176.2 76.2 67.2) scale(43.69837 55.45966)"/><ellipse cx="17" cy="106" fill="#00010d" fill-opacity=".8" rx="25" ry="64"/><path fill="#a49fa3" fill-opacity=".8" d="M64 0h192v75H64z"/><ellipse cx="230" cy="153" fill="#e7f2ff" fill-opacity=".8" rx="30" ry="77"/><circle r="1" fill="#fff" fill-opacity=".7" transform="matrix(12.46347 23.44038 -33.34701 17.73092 75 124.7)"/><ellipse cx="74" cy="77" fill="#787171" rx="27" ry="20"/><path fill="#0f0000" fill-opacity=".4" d="M162 34l-23 5 40 70z"/><path fill="#e2f3ff" fill-opacity=".7" d="M154 185H31l12-45z"/><ellipse cx="159" cy="19" fill="#b9bcc6" fill-opacity=".8" rx="88" ry="18"/><ellipse cx="187" cy="155" fill="#efab9e" fill-opacity=".7" rx="7" ry="8"/><path fill="#090000" fill-opacity=".6" d="M76 27L39-16 9 10z"/><circle r="1" fill="#9b7d73" fill-opacity=".6" transform="rotate(-65.4 53.5 -8.9) scale(10.19393 103.17851)"/><path fill="#000102" fill-opacity=".8" d="M136 99l-44 48 105 32z"/><path fill-opacity=".6" d="M119 78h66v67h-66z"/><path fill="#fff" fill-opacity=".6" d="M115 168l11-23-25 27z"/><path fill="#abc7dd" fill-opacity=".6" d="M5.7 31L1.2 53.2-5.6 4.1l16.3-8.6z"/><ellipse cx="10" cy="161" fill="#070e17" fill-opacity=".6" rx="27" ry="124"/><ellipse cx="105" cy="97" fill="#f4ffff" fill-opacity=".5" rx="11" ry="32"/><ellipse cx="34" cy="94" fill="#01050c" fill-opacity=".7" rx="13" ry="33"/><ellipse cx="208" cy="74" fill="#645752" fill-opacity=".4" rx="171" ry="5"/><path fill="#f4f9ff" fill-opacity=".6" d="M198 81h58v38h-58z"/><ellipse cx="127" cy="58" fill="#a3877d" fill-opacity=".6" rx="31" ry="18"/><path fill="#b1b2b7" fill-opacity=".8" d="M104.4 2.8L13.5-16l71.7 33.6.8 77.7z"/><path fill="#0f0000" fill-opacity=".4" d="M107 166l-27-5 47-25z"/><path fill="#d0dff2" fill-opacity=".9" d="M214.2 133.3L188 185l-1.3-16.7 83.7 10.1z"/><circle r="1" fill="#f3fbff" fill-opacity=".6" transform="matrix(18.75525 19.18059 -11.48303 11.22839 68.4 115)"/><path fill="#160400" fill-opacity=".6" d="M177.8 95.7l-10.5 3.1-14.5-58.4 8.8-1.7z"/><path fill="#0a1318" fill-opacity=".2" d="M95.5 59.9L41.9 92.3l53.9 3.8.6 19.1z"/><path fill="#000102" fill-opacity=".6" d="M204.6 143.9l-95.8-17.7 54.4-59.4L189.6 87z"/><path fill="#e7f3ff" fill-opacity=".5" d="M79 169.4L45.9 185l-8.7-49.9 90.6-61.6z"/><circle r="1" fill="#b17f6b" fill-opacity=".4" transform="matrix(-8.67744 5.48565 -18.47739 -29.22833 42.8 60)"/><circle r="1" fill="#b6b5ba" fill-opacity=".5" transform="matrix(13.25715 33.81239 -7.7074 3.02192 175 50.3)"/><path fill="#b0adae" fill-opacity=".5" d="M72 96l2-85-14 46z"/><path fill="#010102" fill-opacity=".9" d="M132 132l-23 53 31-19z"/><circle r="1" fill="#9e5e47" fill-opacity=".6" transform="matrix(2.86043 -13.98269 10.83326 2.21615 149.8 65.6)"/><path fill="#dde3eb" fill-opacity=".5" d="M168.8 8.5l-7.5 30-28.1-7 7.5-30z"/><path fill="#3b2211" fill-opacity=".6" d="M28.3 5.5l15.1 13.1-13.7 15.9-15.1-13.1z"/><path fill="#020202" d="M179.1 96.3l-60.3 25.2-15.3 14-.9 32.3z"/><circle r="1" fill="#191d1f" fill-opacity=".5" transform="rotate(67.8 2.2 127) scale(45.53647 1)"/><path fill="#9f6669" fill-opacity=".6" d="M107 165.2L87.5 162l5.3-18.5 25.5 41.5z"/><circle r="1" fill="#9e9ba1" fill-opacity=".5" transform="rotate(102.8 112.5 106.7) scale(63.28528 16.68345)"/><path fill="#e8a37e" fill-opacity=".4" d="M47 26l-25 9 9 19z"/><path fill="#d0e4f9" fill-opacity=".6" d="M2 185l100-18-43-12z"/><path fill="#2c2522" fill-opacity=".4" d="M71.4 78l9.2 18.2 5.4-9.1-17.1-40.5z"/><path fill="#eaf0f9" fill-opacity=".8" d="M35.8 166.7l33.9-54.9L59.8 86l-12.7 23.4z"/><path fill-opacity=".6" d="M195 131h5v35h-5z"/><path fill="#898587" fill-opacity=".9" d="M181-16l5 1.8-26.7 59.6 7.1-22.4z"/><path fill="#d9d5d9" fill-opacity=".4" d="M225.4 57.2l-23.6 22.1 1.2-35.1 17.8 42.5z"/><path fill="#11131c" d="M38.8 143.8L37 154.9l-43 28.3L20 80.9z"/><path fill="#1b0b04" fill-opacity=".8" d="M39.9 5.2L67 12.5 66.5 28l-7.1-1.8z"/><circle r="1" fill="#87483b" fill-opacity=".6" transform="matrix(6.96295 5.6184 -13.9408 17.27701 50 47.8)"/><path fill="#c9def2" fill-opacity=".9" d="M100.7 172.2l20.4-18.8-4.6 9.9-.7 21.7z"/><path fill="#cadef6" fill-opacity=".3" d="M-16 63.4l4.3-10.3L8.2 43 5 31.7z"/><circle r="1" fill="#290900" fill-opacity=".5" transform="matrix(9.32065 4.76164 -1.6664 3.2619 152.9 41.5)"/><path fill="#cdd2de" fill-opacity=".6" d="M83 0h14v40H83z"/><path fill="#020001" fill-opacity=".1" d="M76-16l22.9 54.2 3.3-31.9-23.3 21.4z"/><path fill="#282b35" fill-opacity=".5" d="M191 74h5v11h-5z"/><path fill="#100b07" fill-opacity=".6" d="M62 73.6l6.8 22-2.9.8-6.7-22z"/><circle r="1" fill="#eef6ff" fill-opacity=".6" transform="rotate(83.2 45 162.1) scale(20.11876 6.84237)"/><path fill-opacity=".6" d="M196 180.1L129.8 76.2l-11.2 16.9-1.1 24.4z"/><path fill="#ffd2bb" fill-opacity=".4" d="M138 54.9l5.9-27.3L135 40l18.5 11.1z"/><path fill="#a8a1a2" d="M88.8 41.8l-31 9.5 51.7 1.8 1.8 41.1z"/><path fill="#dee3f0" fill-opacity=".6" d="M102 16h8v25h-8z"/></g></svg>