<svg xmlns="http://www.w3.org/2000/svg" viewBox="0 0 300 199"><defs/><path fill="#4b4b4b" d="M0 0h300v199H0z"/><g transform="translate(.6 .6) scale(1.17188)"><circle r="1" fill="#b8b8b8" fill-opacity=".5" transform="matrix(16.28646 -28.88982 183.26062 103.31204 132.8 131)"/><circle r="1" fill="#f8f8f8" fill-opacity=".6" transform="rotate(41.4 9.4 98.9) scale(28.3414 15.09468)"/><circle r="1" fill-opacity=".6" transform="matrix(2.73326 -28.1905 143.40943 13.90454 226.7 21.4)"/><circle r="1" fill="#e9e9e9" fill-opacity=".5" transform="rotate(89.2 67.7 169.9) scale(44.50154 10.85879)"/><circle r="1" fill="#8e8e8e" fill-opacity=".8" transform="rotate(169.1 48.6 48.1) scale(51.27016 31.25959)"/><path fill="#010101" fill-opacity=".5" d="M96 77h16v93H96z"/><path fill="#f3f3f3" fill-opacity=".4" d="M91 105l-32 47-66-37z"/><circle r="1" fill="#020202" fill-opacity=".6" transform="rotate(39.9 -14.2 44.2) scale(64.98612 15.65831)"/><path fill="#d5d5d5" fill-opacity=".5" d="M185.3 89.8l24 .4-.6 36-24-.4z"/><circle r="1" fill="#2e2e2e" fill-opacity=".6" transform="matrix(-37.3197 -9.27698 3.36708 -13.5452 196.7 162.2)"/><circle r="1" fill="#ececec" fill-opacity=".4" transform="matrix(38.67921 12.79193 -5.36342 16.21748 149.2 127.4)"/><path fill-opacity=".4" d="M154 69h32v51h-32z"/><path fill="#fff" fill-opacity=".4" d="M28.3 84.5l25.9-26.6L-2.2 56l28.4 45.3z"/><circle r="1" fill-opacity=".6" transform="matrix(8.77303 -74.51138 7.86482 .92601 255 89)"/><circle r="1" fill="#fff" fill-opacity=".4" transform="matrix(-5.2298 35.87463 -4.02494 -.58676 90.7 141.7)"/><path fill="#d4d4d4" fill-opacity=".5" d="M190.8 66.7l-14.7 3.1 26-22.1-30.2-.5z"/><path fill="#fff" fill-opacity=".4" d="M41.2 178.8l38.2-94.6 7.4 3-38.2 94.6z"/><circle r="1" fill-opacity=".5" transform="matrix(-11.5295 26.46183 -10.22573 -4.45538 72 154)"/><circle r="1" fill="#262626" fill-opacity=".6" transform="matrix(46.29953 -26.07039 5.03245 8.93735 14.4 149.9)"/><path fill="#fff" fill-opacity=".4" d="M9.6 123.9L23 106.6 40.4 120 27 137.4z"/><path fill="#ababab" d="M241 152.8l-9.8-93.2 19 46.8-23.5 53.4z"/><ellipse cx="127" cy="140" fill="#b3b3b3" fill-opacity=".6" rx="13" ry="71"/><path fill="#0b0b0b" fill-opacity=".6" d="M0 4h192v4H0z"/><ellipse cx="67" cy="14" fill="#f8f8f8" fill-opacity=".5" rx="27" ry="6"/><path fill="#4d4d4d" fill-opacity=".5" d="M61 120l-41-12 25-44z"/><circle r="1" fill="#2f2f2f" fill-opacity=".5" transform="matrix(4.6514 -3.51722 23.23301 30.72489 107.6 86.3)"/><path fill="#bebebe" fill-opacity=".6" d="M94 83l5 51-53-46z"/><path fill="#1f1f1f" fill-opacity=".8" d="M239.2 31.4l-65.8 72.8L197 48.4l22.2 39.7z"/><path fill="#242424" fill-opacity=".7" d="M178 46L86-10l11 59z"/><path fill="#fff" fill-opacity=".5" d="M114.3 57.9l-.8 7L91.7 62l.8-7z"/><path fill="#9c9c9c" d="M-9 99.4l32.9-64.3-8.7-4.2-31.2-3.7z"/><path fill="#ababab" fill-opacity=".7" d="M46.1 78.6l9.5-28.1-29.9-7.4 47.2 33.3z"/><path fill="#080808" fill-opacity=".6" d="M-16 1v25l83-2z"/><path fill="#9b9b9b" fill-opacity=".5" d="M198 69h12v81h-12z"/><path fill="#f0f0f0" fill-opacity=".7" d="M119.8 32l12-1 .4 5-12 1z"/><path fill="#c3c3c3" fill-opacity=".5" d="M231.6 116l-11.8-2.5 4.6-21.5 11.8 2.5z"/><path fill="#fff" fill-opacity=".5" d="M62.8 27.8l20.8-2.5 1.6 12.9-20.8 2.5z"/><path fill="#1e1e1e" fill-opacity=".3" d="M-10.6 80.2l29.4.9 1.3 36.1-36.1 5.2z"/><circle r="1" fill="#181818" fill-opacity=".7" transform="matrix(8.4467 -14.05767 4.4976 2.70244 110.5 88)"/><path fill="#c1c1c1" fill-opacity=".5" d="M184.4 52.3l-1.1 22.3 13.1-26.5-.6-11.8z"/><circle r="1" fill="#bebebe" fill-opacity=".5" transform="matrix(3.08121 8.688 -4.72445 1.67553 29 158.4)"/><path fill="#0e0e0e" fill-opacity=".7" d="M236.7 43.5l34.3 74.2-29.3-34.2L271 30.1z"/><path fill="#787878" fill-opacity=".5" d="M133 131l50 31-61 23z"/><path fill="#0c0c0c" fill-opacity=".6" d="M19 41h68v5H19z"/><path fill="#262626" fill-opacity=".9" d="M77.9 24.8l35.6-.6L67.7 5.1l81.9-8.6z"/><path fill="#303030" fill-opacity=".7" d="M225 165.1l-42.5-24.5 29.4 44.4 8.7-47.5z"/><circle r="1" fill="#c8c8c8" fill-opacity=".4" transform="matrix(28.56134 .3809 -.19129 14.34345 143.1 126.2)"/><path fill="#d2d2d2" d="M68.1 24.4l26.6 11.7-22.1 2.4L53 29z"/><path fill="#eee" fill-opacity=".6" d="M50 70h19v10H50z"/><path fill="#111" fill-opacity=".5" d="M53 48h39v14H53z"/><path fill="#0e0e0e" fill-opacity=".6" d="M262 173l1-61-23 3z"/><path fill="#fff" fill-opacity=".6" d="M100 73l3.1-12.7 3 .8-3.2 12.6z"/><path fill="#151515" fill-opacity=".8" d="M153.2 48.3l-.7 26.5 16.2-42.2-31.9 18.2z"/><path fill="#bdbdbd" fill-opacity=".9" d="M124-16L72 3 4-16z"/><path fill="#343434" fill-opacity=".7" d="M199 54l18-23 32 28z"/><path fill="#e7e7e7" fill-opacity=".5" d="M132.1 133.5l3.4-63.6-13 14.3.7-9.2z"/><path fill="#3a3a3a" fill-opacity=".4" d="M203.5 123.8l18.4 50.1 10.8-59.6-13.6 1.3z"/><path fill="#020202" fill-opacity=".3" d="M26 162l-42-86 4 97z"/><path fill="#040404" fill-opacity=".5" d="M1 55h47v2H1z"/><path fill="#585858" fill-opacity=".6" d="M146 75l-30-36-6 19z"/><path fill="#040404" fill-opacity=".3" d="M228.7 76.6L209 125.1l3.6-47.6 20.5 12.3z"/><path fill="#030303" fill-opacity=".5" d="M53 79l-14 2 13 8z"/><path fill="#fff" fill-opacity=".4" d="M24.7 95.6l12.4-37.8 4.8 15.3-30.3 3z"/><path fill="#eee" fill-opacity=".3" d="M49.9 145.8l21-21.7-4.3 19.1-20.8 23.1z"/><ellipse cx="40" cy="93" fill="#fdfdfd" fill-opacity=".3" rx="2" ry="18"/></g></svg>