<svg xmlns="http://www.w3.org/2000/svg" viewBox="0 0 300 199"><defs/><path fill="#432c21" d="M0 0h300v199H0z"/><g transform="translate(.6 .6) scale(1.17188)"><path fill="#c2b2a8" fill-opacity=".5" d="M189 153l-40-64 40-35z"/><circle r="1" fill="#e7fefd" fill-opacity=".5" transform="rotate(-95.3 194.5 -42.9) scale(18.07515 27.24005)"/><circle r="1" fill="#000d18" fill-opacity=".6" transform="matrix(99.14215 22.92515 -14.64375 63.3284 98.7 160.5)"/><ellipse cx="114" cy="65" fill="#fff3d0" fill-opacity=".6" rx="7" ry="12"/><circle r="1" fill="#000003" fill-opacity=".5" transform="matrix(17.28223 5.21687 -16.81605 55.70756 212.8 136.9)"/><path fill="#fff" fill-opacity=".5" d="M181.1 91.6l-4.5 25.6-15.7-2.8 4.5-25.6z"/><circle r="1" fill="#040400" fill-opacity=".6" transform="matrix(-15.01845 29.08457 -31.32032 -16.17293 144.4 30.6)"/><path fill="#f5ffff" fill-opacity=".3" d="M69 69.6L78.3 98 65 102.4 55.7 74z"/><circle r="1" fill="#000300" fill-opacity=".4" transform="matrix(8.60546 -25.11783 61.72767 21.14812 28 38)"/><circle r="1" fill="#000401" fill-opacity=".6" transform="matrix(-17.67973 6.41462 -18.91792 -52.14083 243.2 15.7)"/><path fill="#d3e3e3" fill-opacity=".4" d="M239 126l-11 59-6-28z"/><circle r="1" fill="#817256" fill-opacity=".6" transform="matrix(-6.14084 8.26865 -23.37027 -17.3563 73.5 15)"/><circle r="1" fill="#000307" fill-opacity=".6" transform="matrix(2.59316 -47.31128 3.56967 .19566 158.8 88)"/><path fill="#694d42" fill-opacity=".7" d="M186 40l-18 44 45 11z"/><path fill="#8a706b" fill-opacity=".5" d="M228.2 41.5L244 87l-16.1 5.6L212 47z"/><path fill="#fedbd0" fill-opacity=".4" d="M98.8 55.5l-11.2-.3 7-15.7 7.2 1.5z"/><path fill="#ffeef0" fill-opacity=".5" d="M150 72h4v38h-4z"/><path fill="#9b8a74" fill-opacity=".6" d="M-12.4 98.1l35.6 3.3-7.8-20.2-31.4 22.3z"/><path fill="#1097ff" fill-opacity=".4" d="M57 122l8-27 14-4z"/><circle r="1" fill-opacity=".5" transform="matrix(-1.92376 58.78163 -13.84232 -.45302 137.5 150.4)"/><path fill="#000505" fill-opacity=".5" d="M272.2 56.3l16 15-80.4 86.4-16-15z"/><path fill="#fdecd4" fill-opacity=".8" d="M102.8 8.1l4-.2.4 8-4 .2z"/><path fill="#c4b29d" fill-opacity=".4" d="M192 152.5l-5.2-32.3 1.3-4.1-14.7 32.3z"/><path fill="#e5c3b7" fill-opacity=".1" d="M93.1 143.4l40.5-54-26.5 13-31.6-14.7z"/><path fill="#000507" fill-opacity=".5" d="M194.7 52l13.9 24 17.3 79 4.5-84.4z"/><circle cx="115" cy="1" r="4" fill="#fffff8" fill-opacity=".5"/><path fill="#ffe5ca" fill-opacity=".5" d="M109 70l6-14v32z"/><path fill="#fff6d8" fill-opacity=".6" d="M64-6.5l6 9.3-6 3.7-5.8-9.3z"/><path fill="#ecdab6" fill-opacity=".5" d="M41.6-6.6l3 2.6-12.2 14.6-3-2.6z"/><circle r="1" fill="#ffeaba" fill-opacity=".4" transform="matrix(7.45488 -6.95936 3.1989 3.42666 66.8 77.2)"/><path fill="#090a08" fill-opacity=".5" d="M73.5 66.4l23-12.3 22 41.5-23 12.3z"/><path fill="#d59576" fill-opacity=".5" d="M121 145l-15-6 16-2z"/><circle r="1" fill="#66635a" fill-opacity=".4" transform="rotate(128.1 -5.5 84.5) scale(10.06344 13.85126)"/><circle r="1" fill-opacity=".5" transform="rotate(74.4 16.6 189) scale(15.42985 5.55417)"/><circle r="1" fill="#001a3f" fill-opacity=".6" transform="matrix(15.93737 51.76327 -11.1967 3.44735 88.5 151.1)"/><ellipse cx="27" cy="141" fill-opacity=".6" rx="18" ry="19"/><path fill="#827056" fill-opacity=".7" d="M258.3 138l-19.9-2 1.3-12 19.9 2z"/><path fill="#f9dec0" fill-opacity=".2" d="M131.8 54.9L83.2 87l48-37.7 19-.7z"/><path fill="#231a13" fill-opacity=".8" d="M-7.4-16L98.9 73.4l-36.5-2.8-17.3 35.3z"/><circle cx="79" cy="11" r="3" fill="#fff" fill-opacity=".6"/><path fill="#bfaba0" fill-opacity=".4" d="M134.9 91.2l-13.7 2.3-2 8.1 3.8.2z"/><ellipse cx="29" cy="100" fill="#7f5539" fill-opacity=".4" rx="10" ry="16"/><path fill="#939798" fill-opacity=".7" d="M215.7 155.5l29.6-10.9 25.7 24.9-55.3-12.7z"/><path fill="#2a1c15" fill-opacity=".5" d="M62.9 86.2l54.6 25.8.5-52.5 22.3 27z"/><path fill="#1c1611" fill-opacity=".8" d="M68.8 94.7L51.2 79.1 62 131.6l-78 2z"/><path fill="#e8f0ee" fill-opacity=".5" d="M179.5 118.4l-8.6 2.8-8.4-25.6 8.6-2.8z"/><path fill="#7e5946" fill-opacity=".5" d="M192.5 88.6l11.6.4 13 23.4-10.4-.1z"/><path fill="#53361e" fill-opacity=".5" d="M182 122.1l-8.8 30.8-17.3-5 8.9-30.8z"/><path fill="#fff" fill-opacity=".5" d="M54 6h4v7h-4z"/><path fill="#050a0a" fill-opacity=".7" d="M222.8 104.8l-23.5-57.1-11.9 34.8L212 41.7z"/><path fill="#020102" fill-opacity=".5" d="M185.6 185l-47.4-98-27.5 43.2-29.4-14z"/><path fill="#372717" fill-opacity=".8" d="M82.8-16l-6.2 29.6L45 21.3l25-16z"/><path fill="#e9bb9d" fill-opacity=".2" d="M191.3 78.7l14.3-14.3 2.2 40.9 3.3-16.1z"/><path fill="#19150f" fill-opacity=".5" d="M175-1h67L95 63z"/><path fill="#715544" fill-opacity=".5" d="M164.5 71.1l66.9-45.7L151.7 87l-8.6-14.6z"/><path fill="#2d200e" fill-opacity=".6" d="M60 5l6-21L-1 0z"/><path fill="#211913" d="M-16-1.4l39.6-9.5L12.1 84-16 97.7z"/><path fill="#ec8d67" fill-opacity=".4" d="M27.3 73.6l-10 .7-.6-8 10-.6z"/><path fill="#b2977f" fill-opacity=".5" d="M98.1 115.7l5.2-8.6 8.6 5.2-5.2 8.6z"/><path fill="#bd8a7d" fill-opacity=".5" d="M97 139l8-1-12-8z"/><path fill="#836660" fill-opacity=".4" d="M217 47h21v24h-21z"/><path fill="#000408" fill-opacity=".8" d="M271 169l-31 16-8-23z"/><path fill="#38271c" fill-opacity=".5" d="M185.3 87l-10 1-2.6-25 10-1z"/><circle r="1" fill="#2a1d10" fill-opacity=".6" transform="rotate(-175.7 55.3 13.3) scale(3.42082 36.37741)"/><path fill="#4c3e2c" fill-opacity=".8" d="M79 21l19 1-4-29z"/></g></svg>