<svg xmlns="http://www.w3.org/2000/svg" viewBox="0 0 300 199"><defs/><path fill="#614d35" d="M0 0h300v199H0z"/><g transform="translate(.6 .6) scale(1.17188)"><circle cx="53" cy="123" r="211" fill="#d6c3bd" fill-opacity=".6"/><circle r="1" fill="#70431c" fill-opacity=".7" transform="matrix(-10.17141 -66.29901 39.90766 -6.12252 94.8 89.7)"/><circle r="1" fill="#e0f0f8" fill-opacity=".6" transform="matrix(35.07408 -4.55046 28.68067 221.0653 12.3 84)"/><circle r="1" fill="#ced0d6" fill-opacity=".8" transform="matrix(61.68343 -36.62494 22.57877 38.02698 181.9 156.7)"/><circle r="1" fill="#634527" fill-opacity=".7" transform="matrix(77.86993 -75.19812 11.87964 12.30173 118 10.8)"/><ellipse cx="187" cy="67" fill="#9c7a6b" rx="80" ry="31"/><circle r="1" fill="#bec4c5" fill-opacity=".9" transform="rotate(-130.7 26.3 -8.9) scale(26.16155 118.29174)"/><circle r="1" fill="#fff" fill-opacity=".4" transform="matrix(-21.09386 -36.45709 27.59638 -15.9671 40 137.8)"/><circle r="1" fill="#3e1600" fill-opacity=".5" transform="matrix(9.79101 7.25198 -18.71228 25.26373 153 76.6)"/><path fill="#e0ebf4" fill-opacity=".5" d="M174 113l-11-31 34 1z"/><circle r="1" fill="#966b59" fill-opacity=".7" transform="rotate(-24 195.6 -537.6) scale(14.8811 74.72348)"/><path fill="#0b0000" fill-opacity=".3" d="M47 41h23v42H47z"/><circle r="1" fill="#e4b0a7" fill-opacity=".5" transform="rotate(-74.2 104 -57) scale(42.24751 12.33048)"/><ellipse cx="146" cy="127" fill="#d1b0a4" fill-opacity=".7" rx="19" ry="25"/><path fill="#c9dfee" fill-opacity=".5" d="M201 105l45 5-8-22z"/><path fill="#836547" d="M134.6 62l-15.4-23-11.6-55L73 38.9z"/><path fill="#2d0800" fill-opacity=".5" d="M113 163.4l-8.4-3.3L129 96.6l8.4 3.3z"/><circle r="1" fill="#b7b6ad" fill-opacity=".7" transform="matrix(-4.8803 -7.1036 10.6201 -7.2962 50.9 94.4)"/><path fill="#4f2408" fill-opacity=".5" d="M124 113l-24-57-34-13z"/><path fill="#a87662" d="M158.9 73.7l-12.2 12.6-6.2-29.3 15.3 13.9z"/><path fill="#8d6259" d="M142.6-10.7l17 8.3-12.2 25.1-17-8.3z"/><path fill="#a5877c" fill-opacity=".6" d="M172 53l48 36-36 28z"/><path fill="#94988b" fill-opacity=".3" d="M-11.9 100l-2.8-18.1L69 38.7 45.6 81.4z"/><ellipse cx="252" cy="117" fill="#5b828a" fill-opacity=".3" rx="15" ry="59"/><circle r="1" fill="#dbebf3" fill-opacity=".4" transform="rotate(135.1 59 117.1) scale(35.13245 26.50557)"/><circle r="1" fill="#cb8d7b" fill-opacity=".5" transform="rotate(-107.4 97.7 -54.4) scale(26.05785 39.18471)"/><path fill="#93622d" fill-opacity=".5" d="M76 102h46v60H76z"/><ellipse cx="46" cy="1" fill="#e3e4df" fill-opacity=".8" rx="44" ry="6"/><path fill="#401e05" fill-opacity=".5" d="M128 89l40-15-49 45z"/><path fill="#545c56" fill-opacity=".5" d="M-5.5 100h11v16h-11z"/><path fill="#e4c5bd" fill-opacity=".5" d="M118 41l25 6-6-44z"/><path fill="#a25a15" fill-opacity=".3" d="M62.5 164.9l36.6-2.3L23.7 185l38.4-32z"/><path fill="#d5f2fd" fill-opacity=".4" d="M182.6 123.1l-8.4-51.5-8 9 1.1 14.2z"/><path fill="#100000" fill-opacity=".6" d="M50 71l15 9 4-30z"/><ellipse cx="19" cy="137" fill="#f9f9fa" fill-opacity=".4" rx="17" ry="48"/><path fill="#2a0e00" fill-opacity=".4" d="M160.3 75l-10.5-18 13.9-8 10.5 18z"/><path fill="#95665f" fill-opacity=".4" d="M159.8 93.7v50l7.9-12.9 8-19.7z"/><path fill="#d1aa9e" fill-opacity=".6" d="M115.9 79.9l-9.2-14.3 39.7-14.4-13.7 33.7z"/><path fill="#553a24" fill-opacity=".4" d="M185.8 64.6l-9.1-18 19.4-2.6L186 83.8z"/><path fill="#aa875c" fill-opacity=".9" d="M69.5 137.6l55.4 47.4-64.6-62.1 24.2-4.7z"/><path fill="#6c3d1c" fill-opacity=".6" d="M105 164l20-17-44-26z"/><path fill="#dcb8a5" fill-opacity=".4" d="M147 182.3l-35.4-6.4 29.9-81.7 9.5.6z"/><path fill="#6f4638" fill-opacity=".6" d="M136.2 49l-4.7 11-25.7-11 4.7-11z"/><path fill="#4a260a" fill-opacity=".5" d="M123 0h10v21h-10z"/><path fill="#a6b1a7" fill-opacity=".4" d="M91.2 12.5l-7.5 15-19.5 11.6-4.7-34.2z"/><path fill="#a7806e" fill-opacity=".6" d="M228 79L215 5l-31 117z"/><path fill-opacity=".5" d="M144.4 13.5l-13.2-24.7 4.4-2.3 13.2 24.7z"/><ellipse cx="255" cy="70" fill="#7d7e74" fill-opacity=".7" rx="3" ry="168"/><circle r="1" fill="#dfe2da" fill-opacity=".5" transform="rotate(154.9 15 77.1) scale(5.35702 31.14126)"/><ellipse cx="175" cy="60" fill="#bdd8e5" fill-opacity=".5" rx="5" ry="6"/><path fill="#a8b0b3" fill-opacity=".6" d="M48.4 45.4l-9.6 11.5-55.2-46.3L-6.8-.9z"/><ellipse cx="246" cy="3" fill="#1b0d0b" fill-opacity=".5" rx="5" ry="17"/><path fill="#acb4bb" fill-opacity=".5" d="M250 81l-29 43 20 61z"/><path fill="#836a47" fill-opacity=".5" d="M64 31L50 73l-9-22z"/><path fill="#9f7d52" fill-opacity=".5" d="M92.1 60.5l16.1-24.4L79.1 18l-1 15.2z"/><path fill="#c8b27c" fill-opacity=".3" d="M59 81l31 37-27-15z"/><path fill="#150000" fill-opacity=".5" d="M134.9 105.3l-17.3.4 7.7 27.7-5.6 1.5z"/><path fill="#b28e62" fill-opacity=".5" d="M97 123l22 2-12 12z"/><circle r="1" fill="#835a43" fill-opacity=".6" transform="matrix(5.04876 1.11062 -7.47739 33.9914 247 55.7)"/><path fill="#ba9663" fill-opacity=".5" d="M95 81l-5 39 10-11z"/><path fill="#9d6c58" fill-opacity=".5" d="M153.4 49l-13.8-65 19.3 47.9 14.8 22.6z"/><path fill="#d1b6a6" fill-opacity=".6" d="M90.1 185l5.9-32.3 14.2 32.3 55.9-78.2z"/><path fill="#5a2900" fill-opacity=".3" d="M92 89.3L76 72.9l3.7 31.5 14.2 45.7z"/><ellipse cx="216" cy="164" fill="#c3cad0" fill-opacity=".5" rx="25" ry="68"/><path fill="#e4e5df" fill-opacity=".4" d="M4.7 115.5l40-46.3L-16 20.4l66.9 48.9z"/></g></svg>