<svg xmlns="http://www.w3.org/2000/svg" viewBox="0 0 300 199"><defs/><path fill="#5f372e" d="M0 0h300v199H0z"/><g transform="translate(.6 .6) scale(1.17188)"><circle r="1" fill="#b59a87" fill-opacity=".6" transform="matrix(-109.31931 -17.24617 10.96274 -69.49015 73.6 52.3)"/><ellipse cx="128" cy="167" fill="#f0e8d9" fill-opacity=".6" rx="53" ry="9"/><path fill="#bba69a" fill-opacity=".5" d="M197 68l5 71L252-4z"/><circle r="1" fill="#000413" fill-opacity=".7" transform="matrix(-25.7187 50.61297 -22.0108 -11.18467 243.2 102)"/><circle r="1" fill="#efd5be" fill-opacity=".4" transform="matrix(-18.3339 -.87865 2.64724 -55.23738 30 35)"/><path fill="#030106" fill-opacity=".8" d="M256 158l-110-23 31-27z"/><circle r="1" fill="#756057" fill-opacity=".5" transform="rotate(89.5 -47.8 83.6) scale(63.65563 96.31268)"/><ellipse cx="140" cy="104" fill="#24100d" fill-opacity=".6" rx="8" ry="56"/><ellipse cx="167" cy="72" fill="#d1a998" fill-opacity=".6" rx="14" ry="41"/><circle r="1" fill="#422f26" transform="matrix(-18.11152 -10.33142 10.15249 -17.79783 202.2 47.5)"/><path fill="#fff" fill-opacity=".5" d="M205.2 74.6L217 72l5.8 27.3L211 102z"/><circle cx="130" cy="20" r="40" fill="#8b6048" fill-opacity=".8"/><path fill="#e2c8b4" fill-opacity=".6" d="M87 61l46 23-16-30z"/><path fill="#e7fefa" fill-opacity=".4" d="M65.4 14.3L63.6-2.9 83.1-16l18.2 30.2z"/><ellipse cx="59" cy="103" fill-opacity=".3" rx="9" ry="52"/><path fill="#360702" fill-opacity=".5" d="M117.8 114.1l-4.4-41.9-16.1-2.7-8 7.9z"/><path fill="#b07b63" fill-opacity=".5" d="M228.3 155.8l-88.6-14.4 97.5 42.1L261 185z"/><path fill="#eebf8e" fill-opacity=".3" d="M243.4 41.7l-32 .6-.8-44 32-.6z"/><path fill="#e2c8c9" fill-opacity=".4" d="M36 55l7 32-42 24z"/><path fill="#d48c68" fill-opacity=".5" d="M191 69h9v59h-9z"/><path fill="#fff9e4" fill-opacity=".5" d="M162 38l16 21-11-52z"/><ellipse cy="8" fill-opacity=".5" rx="8" ry="15"/><circle r="1" fill="#cdcbd4" fill-opacity=".6" transform="matrix(.30707 3.38521 -24.30673 2.20482 0 142.2)"/><path fill="#0f0608" fill-opacity=".5" d="M76 131h29v26H76z"/><ellipse cx="69" cy="139" fill="#ffd3ad" fill-opacity=".5" rx="4" ry="19"/><path fill="#280000" fill-opacity=".4" d="M-6.3 56.7l23.5 8.5-11 30.1-23.4-8.5z"/><path fill="#ffc59d" fill-opacity=".3" d="M118.6 141.1l-10.7 42.8-8 1.1 6.9-68.3z"/><ellipse cx="76" cy="56" fill="#323e4c" fill-opacity=".8" rx="20" ry="5"/><circle r="1" fill="#111528" fill-opacity=".7" transform="matrix(-18.85693 -16.27686 22.87712 -26.5034 254.9 66)"/><path fill="#fffcf0" fill-opacity=".4" d="M125 49l6-21-10-4z"/><path fill="#ac9b9c" fill-opacity=".7" d="M117 98.9l20.2 2.9-5.5 12.4-5.2 16.1z"/><path fill="#f6e1cc" fill-opacity=".3" d="M-16 177.3l11.8 2.7 29.6-6.7L44 152.4z"/><path fill="#f8b997" fill-opacity=".6" d="M91.1 108.9l1.6 5.8L99.8 88l12.6 24.4z"/><path fill="#0f2433" fill-opacity=".5" d="M-10.3 137.8l-1.4-26 32-1.6 1.4 26z"/><path fill="#77220b" fill-opacity=".3" d="M159 23.6l17.3 73.9-21.6-39.2-23.4 8.1z"/><path fill="#f2fefb" fill-opacity=".3" d="M156.7 185l23.8-29.2-43.3 19.4 15.2-32.5z"/><ellipse cx="177" cy="79" fill="#fff8e4" fill-opacity=".5" rx="3" ry="29"/><path fill="#fff" fill-opacity=".5" d="M237.5 42h-5V16h5z"/><path fill="#01192c" fill-opacity=".3" d="M119 23H63l52-22z"/><path fill="#704b36" d="M235.7 17.1L271 58.2l-2.1-66.3-65.6 26.3z"/><path fill="#c0a6a6" fill-opacity=".7" d="M141.6 62.6L155.8 94l4.9 23.5-4.2-56.4z"/><path fill="#352221" fill-opacity=".5" d="M159.1 122.1l-33.2 34.6 39.3-21.7 12.6-72.3z"/><path fill="#ffdfb7" fill-opacity=".3" d="M66.1 155.6l-35.5-3.3-4.5 1.7 42.5 15.7z"/><path fill="#10090f" fill-opacity=".7" d="M271 53.3l-50.9 100.2-76.3-18.8 56-8z"/><path fill="#dcc5c4" fill-opacity=".4" d="M9 15h21v45H9z"/><ellipse cx="184" cy="114" fill="#000911" fill-opacity=".4" rx="4" ry="87"/><path fill="#ccc0b5" fill-opacity=".5" d="M69 62h59v8H69z"/><circle r="1" fill="#36342f" fill-opacity=".5" transform="rotate(175.5 91.8 13.5) scale(14.6707 32.14533)"/><ellipse cx="165" cy="148" fill="#bf795a" fill-opacity=".5" rx="14" ry="8"/><path fill="#d5cab2" fill-opacity=".5" d="M206 165h35v5h-35z"/><ellipse cx="17" fill="#4f1e00" fill-opacity=".5" rx="13" ry="5"/><path fill="#140c15" fill-opacity=".6" d="M118.6 162.9L94.5 150l45.5 7.4 57-60.1z"/><path fill="#96664e" fill-opacity=".5" d="M28 88h66v24H28z"/><circle r="1" fill="#925e4b" transform="matrix(-4.49421 -15.30611 11.3062 -3.31975 198.5 91.7)"/><path fill="#080d10" fill-opacity=".5" d="M161.2 7.2l-1.6 10-14.8-2.4 1.6-10z"/><path fill="#67311c" fill-opacity=".3" d="M134.1 55.6l-18.6 12.2-35.3-22.7 42.2-9.1z"/><path fill="#e2ecf5" fill-opacity=".5" d="M15 152l3-8-13 11z"/><path fill="#1c1618" d="M129.2 143l64.5-17.5-61.1 25.4 38.3 11z"/><ellipse cx="67" cy="85" fill="#3c3d44" fill-opacity=".9" rx="15" ry="5"/><circle r="1" fill="#4f2419" fill-opacity=".7" transform="rotate(-169.6 134.2 62.5) scale(11.7907 34.13279)"/><path fill="#e3ebff" fill-opacity=".5" d="M224 70l-2.8-1.1 14.8-35 2.8 1.2z"/><path fill="#221304" fill-opacity=".6" d="M52 114h14v39H52z"/><path fill="#cec0bc" fill-opacity=".6" d="M218.1 98.4L232 45.3l-22 56 1.1 15.1z"/><path fill="#a9846b" fill-opacity=".5" d="M57 91L54-13 28 50z"/><path fill="#dac5b6" fill-opacity=".5" d="M114 50l10 51 3-26z"/></g></svg>