<svg xmlns="http://www.w3.org/2000/svg" viewBox="0 0 300 199"><defs/><path fill="#543b31" d="M0 0h300v199H0z"/><g transform="translate(.6 .6) scale(1.17188)"><circle r="1" fill="#b5b0ab" fill-opacity=".7" transform="rotate(-92.6 142.8 -41.8) scale(124.32831 247.23836)"/><circle r="1" fill="#230d03" fill-opacity=".6" transform="rotate(-102.5 80 12) scale(47.31221 27.01518)"/><circle r="1" fill="#cad2d6" fill-opacity=".6" transform="matrix(-5.83523 38.53933 -172.19788 -26.07244 202.1 7)"/><path fill="#4d3126" fill-opacity=".5" d="M113.6 24.3l-6 22.2L.4 17.7l6-22.2z"/><circle r="1" fill="#d2d6da" fill-opacity=".5" transform="matrix(-96.54409 -16.7641 3.6448 -20.99034 198.2 159)"/><path fill="#e0ded1" fill-opacity=".4" d="M-20 32.5h76v67h-76z"/><circle cx="28" cy="141" r="45" fill="#724c44" fill-opacity=".4"/><circle r="1" fill="#c4c0c1" fill-opacity=".7" transform="matrix(11.36068 13.92742 -25.65667 20.9283 150.6 109.9)"/><ellipse cx="231" cy="108" fill="#7f5c44" fill-opacity=".5" rx="51" ry="19"/><path fill-opacity=".4" d="M75 70h17v70H75z"/><circle r="1" fill="#b6b5b8" transform="rotate(53.6 37.7 171.7) scale(25.16953 18.50698)"/><circle r="1" fill="#afaaaa" fill-opacity=".8" transform="matrix(-5.0452 -17.5947 74.75693 -21.4362 93.5 164)"/><path fill="#634b3f" fill-opacity=".8" d="M122.2 97.9L45.9 42.6l69 13.4-3 37.3z"/><path fill="#f8f9ff" fill-opacity=".2" d="M137.1 74.5L134.2 43l-24.5 6.6 15.5 73z"/><path fill="#765a28" fill-opacity=".4" d="M198.1 36.3l11.6 12.5L166 89.7l-11.6-12.5z"/><ellipse cx="142" cy="73" fill="#2d1501" fill-opacity=".4" rx="6" ry="21"/><circle cx="232" cy="53" r="20" fill="#ede9d1" fill-opacity=".4"/><path fill="#b6afa6" d="M47.3 99.8l10.6-64.7-68-20L.1 103.3z"/><path fill="#c5bfb4" fill-opacity=".7" d="M89.7 54.9L37.5 28.3 93.1 42 79.9 52.4z"/><path fill="#71584d" d="M76.6 159.5l-3.8-98.2-16.5-12.1 9.2 88.4z"/><circle r="1" fill="#321f14" fill-opacity=".5" transform="matrix(62.63294 -6.77555 .2207 2.04017 43.6 101.9)"/><path fill="#d5d7d6" fill-opacity=".9" d="M162.4 113.9l10.8-28.6 10.1 34.1-7.5-3z"/><path fill="#644e44" fill-opacity=".9" d="M108.4 45.3L55.9 9.8l65.2 23.6-1.1 15.5z"/><path fill="#180701" fill-opacity=".4" d="M22.9 170.9l-20.8 1.3 66.7-24.1 3.1 4.3z"/><circle r="1" fill="#b7bcc3" fill-opacity=".5" transform="matrix(2.4361 -5.20706 34.6996 16.23409 85.5 12.6)"/><path fill="#685a62" fill-opacity=".6" d="M219.9 142.3l5.4-8.1 45.7 2-18.4 11.8z"/><path fill="#a18276" fill-opacity=".5" d="M131 83h10v87h-10z"/><path fill="#9f7464" fill-opacity=".5" d="M108 90h11v46h-11z"/><circle r="1" fill="#b3958a" fill-opacity=".5" transform="matrix(16.91864 -18.24926 13.10856 12.15277 35.7 132.8)"/><path fill="#a77967" fill-opacity=".6" d="M177.8 112.8l-5.8 27-17.5 11.5 4.1-30.7z"/><path fill="#b1b3b7" fill-opacity=".8" d="M134 36L-3-16h142z"/><path fill="#55443d" d="M-16 14l83-2L11-9z"/><path fill="#f4ffff" fill-opacity=".5" d="M215 67h8v16h-8z"/><path fill="#484337" fill-opacity=".6" d="M212 62h18v5h-18z"/><circle r="1" fill="#81463b" fill-opacity=".5" transform="rotate(-13.9 552.8 -918.5) scale(22.96565 8.117)"/><path fill="#19181c" fill-opacity=".4" d="M4 120h3v45H4z"/><path fill="#020300" fill-opacity=".2" d="M103.9 67.2l-30.3-5.7 3 78.4 30.1-56.1z"/><path fill="#deded6" fill-opacity=".5" d="M90.9 47l1.8-5.8 30.4 9.9-1.8 5.7z"/><path fill="#504b20" fill-opacity=".3" d="M238 50.1l33-36.8v30.8l-20.4-1.7z"/><ellipse cx="236" cy="167" fill="#bac4c7" fill-opacity=".6" rx="54" ry="22"/><path fill="#d6dce0" fill-opacity=".4" d="M143 104h14v51h-14z"/><path fill="#010608" fill-opacity=".3" d="M78.1 122.5l-1.6 8.7 22.2 8.1 24.3-6.9z"/><ellipse cx="62" cy="104" fill="#e0c0b0" fill-opacity=".4" rx="2" ry="46"/><path fill="#d4d9d3" fill-opacity=".4" d="M251.3 88.7l-28-5.9-3.3 22.1 23.5-26.5z"/><circle r="1" fill="#332820" fill-opacity=".5" transform="matrix(-40.77068 -9.57567 .461 -1.96278 30.6 24.7)"/><circle r="1" fill="#a78373" fill-opacity=".5" transform="rotate(-164.4 43.2 9.7) scale(33.00447 5.17327)"/><ellipse cx="66" cy="98" fill="#0f0000" fill-opacity=".2" rx="3" ry="53"/><path fill="#ebebe6" fill-opacity=".2" d="M191.2 119.6l-54.7-54.3 35.8 26.9 2.4 58.1z"/><path fill="#9e9b74" fill-opacity=".5" d="M178 56h36v54h-36z"/><circle cx="163" cy="73" r="8" fill="#744a3c" fill-opacity=".6"/><circle r="1" fill="#a6abaf" fill-opacity=".6" transform="matrix(-23.45858 10.2976 -11.52531 -26.25539 95.8 165.9)"/><path fill="#adb4b6" fill-opacity=".5" d="M193.5 173.2l33.1-40.7-7-12.8-46.4 16.5z"/><path fill="#b1aeb2" fill-opacity=".5" d="M145 55h31v12h-31z"/><path fill="#8b7066" fill-opacity=".7" d="M136.1 87.8l-18.4 6.9-4.6 33.6-7.7-9.8z"/><path fill="#141000" fill-opacity=".4" d="M252 85l-8-13 6 1z"/><ellipse cx="221" cy="108" fill="#0c0000" fill-opacity=".5" rx="3" ry="5"/><path fill="#20150f" fill-opacity=".4" d="M88.9 26L9.5-1.3 11-6l79.4 27.3z"/><ellipse cx="219" cy="86" fill="#0b0b08" fill-opacity=".6" rx="2" ry="5"/><circle r="1" fill="#d6b09c" fill-opacity=".5" transform="rotate(-172.8 42.7 28.2) scale(12.06504 1)"/><path fill="#d0c8b5" fill-opacity=".5" d="M203 60h9v28h-9z"/><path fill="#2b1c13" fill-opacity=".5" d="M58.2 68.1L58 45.6l23.7 13.3-20.8-.4z"/><circle r="1" fill="#726b6b" fill-opacity=".4" transform="matrix(1.71168 .76567 -23.94566 53.53119 216.4 156.7)"/><path fill="#e0e3e0" fill-opacity=".5" d="M251 65h5v15h-5z"/><path fill="#979a96" fill-opacity=".5" d="M228 22l43 4-82 14z"/><path fill="#876050" fill-opacity=".4" d="M158 99h4v62h-4z"/></g></svg>