<svg xmlns="http://www.w3.org/2000/svg" viewBox="0 0 300 199"><defs/><path fill="#51392c" d="M0 0h300v199H0z"/><g transform="translate(.6 .6) scale(1.17188)"><path fill="#c7d6dc" fill-opacity=".6" d="M45-27.5l206.2 149.9-98.1 135.1-206.3-149.9z"/><circle r="1" fill="#818889" fill-opacity=".7" transform="matrix(27.37855 -10.50123 27.54917 71.8255 241 105.7)"/><path fill="#000b0c" fill-opacity=".5" d="M31 139h74v31H31z"/><path fill="#f7fdf0" fill-opacity=".4" d="M57-11l51 170-82-70z"/><path fill="#6e6351" fill-opacity=".6" d="M265-16L109 135 97-11z"/><ellipse cx="24" cy="156" fill="#fffffd" fill-opacity=".7" rx="6" ry="82"/><path fill="#f0f8ff" fill-opacity=".6" d="M147 93l-19 79 24 13z"/><circle r="1" fill="#c0d6f7" fill-opacity=".5" transform="rotate(130.6 66 116.8) scale(34.73282 22.17092)"/><path fill-opacity=".8" d="M33 137h16v33H33z"/><ellipse cx="67" cy="133" fill="#a7aeaa" fill-opacity=".6" rx="11" ry="168"/><ellipse cx="233" cy="131" fill="#565051" fill-opacity=".9" rx="8" ry="42"/><ellipse cx="35" cy="108" fill-opacity=".6" rx="8" ry="9"/><path fill="#fff" fill-opacity=".6" d="M57 62v41l-36-9z"/><path fill="#787a71" d="M14 141.7l15.3 44.5-29.3 10-15.3-44.4z"/><circle r="1" fill="#150000" fill-opacity=".5" transform="matrix(28.4537 12.52979 -4.14328 9.40892 183 68)"/><circle r="1" fill="#83887e" fill-opacity=".8" transform="matrix(-7.61565 20.01039 -49.77397 -18.9432 245.4 66.5)"/><circle r="1" fill="#3b433d" fill-opacity=".3" transform="rotate(50 -105 187.6) scale(26.75024 35.6084)"/><ellipse cx="92" cy="49" fill="#beb9a8" fill-opacity=".7" rx="9" ry="98"/><path fill="#bebed1" fill-opacity=".6" d="M180 113l37-24-71-22z"/><circle cy="35" r="51" fill="#768380" fill-opacity=".5"/><path fill="#1c1607" fill-opacity=".5" d="M181 63l-23-42 61 5z"/><path fill="#fdfffd" fill-opacity=".6" d="M18.4 110.7l6.3 50.1 32.7-90.5-1.9 44.9z"/><path fill="#601922" fill-opacity=".3" d="M206 108l-71-29 27 62z"/><path fill="#fffff2" fill-opacity=".8" d="M-3.8 158.4l2.6-75 5 .2-2.6 75z"/><ellipse cx="148" fill="#95907b" fill-opacity=".4" rx="90" ry="16"/><ellipse cx="148" cy="52" fill="#6c4c34" fill-opacity=".7" rx="13" ry="29"/><circle r="1" fill="#d3dddf" fill-opacity=".6" transform="rotate(51.1 38 295) scale(4.16228 15.8761)"/><path fill="#001f03" fill-opacity=".6" d="M211 73l23-9-7 13z"/><path fill="#29232b" fill-opacity=".4" d="M128.8 122.9l-9.7 34 21.8-38.7-40.4-34.5z"/><circle r="1" fill="#030205" fill-opacity=".7" transform="rotate(-135.2 162.4 31.9) scale(16.77734 4.03842)"/><path fill="#b7cbd9" fill-opacity=".5" d="M252 85h4v79h-4z"/><path fill="#061210" fill-opacity=".5" d="M271 31l-56 23 29-39z"/><circle cx="192" cy="68" r="13" fill-opacity=".5"/><path fill="#535d68" fill-opacity=".9" d="M38.4 130.3l17-10.4-.8 35.5-15.3-23.7z"/><path fill="#87909e" fill-opacity=".9" d="M247.8 185l-20.3-30.1-2.2 30.1-18.6-39.2z"/><path fill="#a6adba" fill-opacity=".8" d="M210.1 89l22.5 49-28.4 37.1-1.4-89.5z"/><path fill="#fbf3f0" fill-opacity=".1" d="M168.7 185L2.4 15.6 114 42.5l22 26.9z"/><path fill="#b8c6d5" fill-opacity=".4" d="M205.6 85.3l-64 4.1 40.7-23.5-11.4 57.2z"/><ellipse cx="175" cy="163" fill="#fbffff" fill-opacity=".6" rx="5" ry="18"/><path fill="#173e44" fill-opacity=".8" d="M147.5 83.1l-10.9-2.6 7.1 22.6 6.7-7.2z"/><path fill="#a49a88" fill-opacity=".7" d="M48.8 46.4l1.9-35.2-36.3 68.7 34.6.6z"/><ellipse cx="54" cy="32" fill="#e3f3ff" fill-opacity=".6" rx="5" ry="63"/><path fill="#4e433f" fill-opacity=".4" d="M250.2 89.1l-32.4 4 9 39.3 19.5 19.3z"/><path fill="#f6e9dd" fill-opacity=".3" d="M209.7 46.6l7.5-15-26.7 21.9 39.6 18.7z"/><path fill-opacity=".5" d="M78 164l21 1-6-15z"/><circle r="1" fill="#090000" fill-opacity=".5" transform="matrix(3.23473 -.285 .6981 7.92327 35.7 111.4)"/><path fill="#252c32" fill-opacity=".6" d="M105.4 83.2l29.8 52.6-6.2-29.1-22.8-7.8z"/><path fill="#efe9f3" fill-opacity=".5" d="M168 123l-31 6-10 17z"/><path fill-opacity=".6" d="M28 168l17-29 12 37z"/><path fill="#fffff9" fill-opacity=".6" d="M22.4 77.8l25.7 36.1 5.8 3.8-2.1-34.8z"/><ellipse cx="122" cy="169" fill="#000205" fill-opacity=".7" rx="4" ry="5"/><circle r="1" fill="#762715" fill-opacity=".4" transform="matrix(-.59372 3.9381 -8.55216 -1.28936 192.4 104.8)"/><circle cx="2" cy="67" r="5" fill="#affdff" fill-opacity=".7"/><path fill="#b1af9d" fill-opacity=".6" d="M238 45.8l18.1-2.1L241.8 57l-19.1-21z"/><path fill-opacity=".1" d="M52 23l-57-6 46-33z"/><circle r="1" fill="#564935" fill-opacity=".6" transform="matrix(-11.61911 -22.82826 13.71772 -6.98204 168.5 53.2)"/><circle r="1" fill="#8798a8" fill-opacity=".7" transform="rotate(-4 407.6 14.1) scale(20.26671 9.57952)"/><path fill="#898b86" fill-opacity=".9" d="M56.9 144.4l50.2-4.2-4.5 27.9 23.2-46.8z"/><path fill="#cddfec" fill-opacity=".5" d="M175 79l-16-11-9 21z"/><path fill="#423940" fill-opacity=".5" d="M128 143l-5 12-22-35z"/><path fill="#e7f5e6" fill-opacity=".6" d="M112.2 83.8l4.2 7.7 3.9-6.6-3.2-5.9z"/><path fill="#3f2100" fill-opacity=".5" d="M110 123.2l-9.5 12.2 1.8-22.4 9.4 17.1z"/><path fill="#0b0700" fill-opacity=".7" d="M219.5 52.5l-8.4-3.2 1.4-3.8 8.4 3.2z"/><circle r="1" fill="#9fa197" fill-opacity=".6" transform="rotate(91.6 33.1 44.5) scale(50.53747 20.48061)"/><path fill="#fff" fill-opacity=".5" d="M23 112h9v44h-9z"/></g></svg>