<svg xmlns="http://www.w3.org/2000/svg" viewBox="0 0 300 199"><defs/><path fill="#324755" d="M0 0h300v199H0z"/><g transform="translate(.6 .6) scale(1.17188)"><circle r="1" fill="#ecd7a8" fill-opacity=".6" transform="matrix(-1.07024 -40.84016 103.2311 -2.70522 175.1 20)"/><circle r="1" fill="#806441" fill-opacity=".5" transform="matrix(133.65998 -29.64673 14.62073 65.9164 169.6 106.9)"/><ellipse cx="13" cy="13" fill="#f2daa1" fill-opacity=".5" rx="17" ry="29"/><ellipse cx="52" cy="40" fill-opacity=".4" rx="24" ry="69"/><circle r="1" fill="#f2f3e5" fill-opacity=".5" transform="matrix(7.65 -23.22932 55.30769 18.21422 172.5 6.2)"/><circle r="1" fill="#6b8a8b" fill-opacity=".8" transform="rotate(87.8 36.5 82.5) scale(43.61818 15.87669)"/><ellipse cx="78" cy="94" fill="#1f1b16" fill-opacity=".5" rx="90" ry="13"/><ellipse cx="1" cy="137" fill="#5c482d" fill-opacity=".5" rx="34" ry="126"/><circle r="1" fill="#a2855f" fill-opacity=".5" transform="matrix(56.85172 -21.69383 6.36524 16.681 234.8 84.5)"/><path fill="#c3e4fe" fill-opacity=".6" d="M28.8 15L.4 9.5 5.2-15l28.4 5.5z"/><path fill="#f8b869" fill-opacity=".3" d="M71.8 72.3l58.9 13.2 3.1-5-63-52.8z"/><path fill="#c2cfcf" fill-opacity=".8" d="M74.5-16l138 47.9L111.6-16 79 21.3z"/><path fill="#b17310" fill-opacity=".4" d="M215 8h41v20h-41z"/><ellipse cx="63" cy="10" fill="#000003" fill-opacity=".7" rx="9" ry="99"/><ellipse cx="225" cy="31" fill="#fae6bc" fill-opacity=".9" rx="93" ry="3"/><path fill="#ebd3a2" fill-opacity=".8" d="M26.7 31.8L-1.6 34l20.5 5.4 7.3-5z"/><path fill="#f4ebd7" fill-opacity=".6" d="M105.5 105.6l-13.6-.8 20.7-3.8 5.5-11.1z"/><path fill="#fff5bd" fill-opacity=".5" d="M71 31h33v7H71z"/><path fill="#fceed3" fill-opacity=".6" d="M40.4 106.2l1.3-1.4 4.3 8.4 23.8-.1z"/><path fill="#3a4444" fill-opacity=".5" d="M70 37h35v21H70z"/><ellipse cx="152" cy="53" fill="#897a5f" fill-opacity=".8" rx="25" ry="19"/><path fill="#b0a18e" fill-opacity=".8" d="M132.7 108.2l-19.6 3.5 24.5-15.4-10.3 13.6z"/><path fill="#042137" fill-opacity=".5" d="M161.2 97.5l-39.1 13.6 51.6-33.9 27.5 5.8z"/><path fill="#ffaf5e" fill-opacity=".5" d="M134.3 91.5l-3.8-11.4.9-7.4-14.5 5.3z"/><circle r="1" fill="#204458" fill-opacity=".5" transform="matrix(-8.59957 -28.4567 2.38825 -.72172 128 29)"/><path fill="#000208" fill-opacity=".6" d="M68 72.6l19.4 20L68 111.5l-19.4-20z"/><ellipse cx="155" cy="27" fill="#a58447" fill-opacity=".7" rx="27" ry="3"/><ellipse cx="164" cy="6" fill="#c4d2d7" fill-opacity=".8" rx="42" ry="17"/><path fill="#4d471d" fill-opacity=".5" d="M35.7 19.6l-3.3 14.6-34.1-7.8 3.3-14.6z"/><path fill="#907834" fill-opacity=".5" d="M103.3 31.5l-30 1-.6-16 30-1z"/><circle r="1" fill="#e5c080" fill-opacity=".5" transform="matrix(-12.2971 31.08272 -17.40038 -6.88403 221.6 0)"/><circle r="1" fill="#4d463b" fill-opacity=".6" transform="matrix(-17.08684 21.02536 -62.4134 -50.722 62.4 155.5)"/><ellipse cx="187" cy="118" fill="#706452" fill-opacity=".6" rx="54" ry="24"/><path fill="#536462" fill-opacity=".5" d="M48 0h6v74h-6z"/><circle r="1" fill="#0d0b09" fill-opacity=".6" transform="matrix(-5.75977 .58506 -1.35317 -13.32174 138.3 89.8)"/><circle r="1" fill="#454744" fill-opacity=".7" transform="matrix(-13.50348 -24.66461 96.64124 -52.90953 230.9 169)"/><path fill="#002039" fill-opacity=".4" d="M27.9 49.9l80 3.8L-16 72.2l6.8-18.8z"/><circle cx="91" cy="72" r="17" fill="#786a52" fill-opacity=".7"/><path fill="#322e27" fill-opacity=".9" d="M69 99.8l74.6-11.6-22.4 19.8-.1-29.9z"/><ellipse cx="130" cy="43" fill="#26495c" fill-opacity=".6" rx="3" ry="22"/><path fill="#ffc66e" fill-opacity=".5" d="M125 72l-21 2 5 8z"/><path fill="#fff6cb" fill-opacity=".5" d="M134 30h53v5h-53z"/><path fill="#6e9ba1" fill-opacity=".5" d="M134.5 74.4l-18-67.6L102.9-16l3.9 85.1z"/><ellipse cx="71" fill-opacity=".5" rx="5" ry="23"/><path fill="#c5e4f2" fill-opacity=".6" d="M247.5 8.9L271-8.6l-25.3-7.1-1.4 22.9z"/><ellipse cy="36" fill="#ffffdc" fill-opacity=".5" rx="29" ry="2"/><path fill="#fae8c6" fill-opacity=".6" d="M107 108h17v3h-17z"/><circle r="1" fill="#143345" fill-opacity=".5" transform="rotate(-105.3 134.9 -59.2) scale(1.62738 84.56238)"/><path fill="#f5e7ce" fill-opacity=".5" d="M59 114l-16-4 30-1z"/><path fill="#fff" fill-opacity=".4" d="M135 101l-4-3-10 10z"/><path fill="#fef2d5" fill-opacity=".3" d="M111.3 103.6l8.3-8.7-23.8 11.9-2.6 1.3z"/><ellipse cx="86" cy="98" fill="#7e92a7" fill-opacity=".5" rx="11" ry="2"/><path fill="#635947" fill-opacity=".5" d="M0 70h29v35H0z"/><ellipse cx="33" cy="41" fill="#193645" fill-opacity=".6" rx="6" ry="44"/><path fill="#988361" d="M144 35h112v10H144z"/><path fill="#cdc2a5" d="M136 29.9l2 1.6-5.5-15.5 22-.4z"/><path fill="#9a815c" fill-opacity=".5" d="M71 37h34v9H71z"/><path fill="#2f3332" fill-opacity=".7" d="M77.2 110.7l-6.6-16.4 28.8 14.9-63.1 9.1z"/><path fill="#8e7c60" fill-opacity=".7" d="M134.7 75.3l-1.6-37.1 82 16.4-39.2 12.7z"/><path fill="#1a2935" fill-opacity=".6" d="M139.6 91.1l-9.5 17 6.5.2L208 67.9z"/><path fill="#2e414b" fill-opacity=".6" d="M271 43l-57 30 19-24z"/><path fill="#775926" fill-opacity=".5" d="M244 12h12v16h-12z"/><path fill="#00395a" fill-opacity=".4" d="M109.3-7l8.7-3 6.8 21-8.6 2.8z"/><path fill="#8e795a" fill-opacity=".6" d="M271 47l-28 41-47-6z"/><circle r="1" fill="#867a5f" fill-opacity=".5" transform="matrix(.92804 2.64277 -45.60224 16.01374 188.4 71.4)"/></g></svg>