<svg xmlns="http://www.w3.org/2000/svg" viewBox="0 0 300 199"><defs/><path fill="#563b2b" d="M0 0h300v199H0z"/><g transform="translate(.6 .6) scale(1.17188)"><circle r="1" fill="#faf1eb" fill-opacity=".7" transform="matrix(-50.41323 -81.60037 59.2083 -36.57927 189 154.1)"/><circle r="1" fill="#fff" fill-opacity=".5" transform="matrix(12.89609 -10.85951 35.43685 42.08262 51.2 85.3)"/><path fill="#b38b75" fill-opacity=".8" d="M40 57l167 54L73 6z"/><circle r="1" fill="#001228" fill-opacity=".6" transform="rotate(45.6 -144.7 114.6) scale(54.72299 38.81264)"/><path fill="#6b503a" fill-opacity=".9" d="M244.9 144l-34.2-63.4L54.8-16 260.1 2.2z"/><path fill="#e7fbff" fill-opacity=".6" d="M104 175l-14-62-37-33z"/><path fill="#000414" fill-opacity=".5" d="M102 148L71 77 97 6z"/><ellipse cx="152" cy="65" fill="#785338" fill-opacity=".8" rx="16" ry="42"/><path fill="#c6c6c8" fill-opacity=".9" d="M58.4 114.2L56.6 103l-36-51.3-19.5 4.5z"/><path fill="#e9e2e2" fill-opacity=".6" d="M107 181l164-10-81-112z"/><circle r="1" fill="#ffd7c0" fill-opacity=".4" transform="matrix(17.68064 -2.67395 4.50884 29.81334 114 57.7)"/><circle r="1" fill="#000a16" fill-opacity=".5" transform="matrix(56.03574 -52.05062 11.66292 12.55587 24.3 21.1)"/><circle r="1" fill="#00000f" fill-opacity=".5" transform="matrix(3.76599 -1.6375 8.4138 19.3504 53.6 87.3)"/><path fill="#151f26" fill-opacity=".6" d="M123.7 96.4l1.8-8.5-24.2 75.4L74.2 52.5z"/><path fill="#eeb096" fill-opacity=".5" d="M39 83l51-35-68-11z"/><ellipse cx="239" cy="66" fill="#283027" fill-opacity=".6" rx="33" ry="30"/><path fill="#edffff" fill-opacity=".5" d="M57 84l30 26-25-42z"/><path fill="#a16245" fill-opacity=".4" d="M47 45L226-6l5 57z"/><path fill="#ffdaaf" fill-opacity=".5" d="M63 11h14v28H63z"/><circle r="1" fill="#7b7731" fill-opacity=".6" transform="rotate(-44.4 261 -252.7) scale(27.58488 13.67395)"/><path fill="#070e16" fill-opacity=".5" d="M84.3 142L54.6 84.1l-2.3-8.6-9.1 9.1z"/><path fill="#e9e5e2" fill-opacity=".6" d="M171 63h22v81h-22z"/><ellipse cx="46" cy="15" fill="#222225" fill-opacity=".6" rx="16" ry="30"/><ellipse cx="16" cy="19" fill="#060708" fill-opacity=".6" rx="10" ry="34"/><path fill="#ecffff" fill-opacity=".6" d="M37 89L13 66l38 7z"/><circle r="1" fill="#301a11" fill-opacity=".5" transform="rotate(-118.5 65.2 -33.2) scale(9.75431 46.10729)"/><circle r="1" fill="#1e2f3e" fill-opacity=".7" transform="rotate(28.4 -175.6 44.4) scale(51.63662 19.79596)"/><path fill="#eeeced" fill-opacity=".7" d="M245.6 145.2l-4.9-14.2 23.7-8.2 4.9 14.2z"/><path fill="#8ed8ff" fill-opacity=".5" d="M238 62h18v6h-18z"/><path fill="#eec4b2" fill-opacity=".4" d="M94 59l59 78-22-91z"/><circle cx="42" cy="169" r="49" fill="#11161d" fill-opacity=".6"/><path fill="#000100" fill-opacity=".6" d="M94 82l-28-9 28-28z"/><path fill="#e6ebff" fill-opacity=".5" d="M106 180l-28-52 20 18z"/><path fill="#010001" fill-opacity=".6" d="M64.5 4l7.2-12L91.5 4l-7.2 12z"/><path fill="#2a1910" fill-opacity=".5" d="M149.2 75.9l-4.5 25.6-7.9-1.4 4.5-25.6z"/><path fill="#cb967a" fill-opacity=".5" d="M88 45L4 50l39 26z"/><path fill="#030f1d" fill-opacity=".6" d="M102 127.3l17.6 54.3-9.5 3-17.7-54.2z"/><circle cx="164" cy="57" r="10" fill="#0f2133" fill-opacity=".5"/><circle r="1" fill="#e4d6cd" fill-opacity=".8" transform="rotate(-77.1 145.7 -80) scale(13.1953 16.61149)"/><path fill="#be865e" fill-opacity=".5" d="M74.9 32.4l7.4 6.3 13-39.2L135.6-16z"/><path fill="#2b130a" fill-opacity=".4" d="M87 31l4 30 12-12z"/><path fill="#b4907a" fill-opacity=".9" d="M134 104.5l32.4-1.2-13.8 11.9-13.5-28.5z"/><circle r="1" fill="#2b4c69" fill-opacity=".4" transform="rotate(-80.7 136.9 -88.6) scale(6.49048 32.0543)"/><path fill="#967562" fill-opacity=".6" d="M173.7 51.3l-.1-31.8 28.3 21.9 1.9 14z"/><circle r="1" fill="#d8d0ce" fill-opacity=".8" transform="matrix(-10.9323 51.4593 -15.08156 -3.20401 132.5 156.2)"/><path fill="#44210e" fill-opacity=".4" d="M117 51l31-18-35 6z"/><path fill="#72696b" fill-opacity=".7" d="M159 185l-29-29 16 29z"/><path fill="#1b1800" fill-opacity=".5" d="M214 72h42v14h-42z"/><path fill="#b4754f" fill-opacity=".6" d="M-14 13L3-16 1 49z"/><path fill="#c1d0e0" fill-opacity=".6" d="M62.4 120.7L51.5 92.4 26.6 80.6l7.9 5.7z"/><path fill="#a27c62" fill-opacity=".5" d="M91.1 129.9l24.2 7.3 24.7-102-33.6 100.2z"/><path fill="#1c1719" fill-opacity=".5" d="M120 3l91-19-31 23z"/><path fill="#2c353f" d="M75.4 84.3l12.3-2.2 18.4 36.8-14.1 8.3z"/><path fill="#111114" fill-opacity=".6" d="M71 169l27 3-40-79z"/><path fill="#daa584" fill-opacity=".6" d="M87.3 18.3l6.7-7.6L51.5 64 65.9 8.7z"/><path fill="#06131f" fill-opacity=".5" d="M-5.5 47.8l13 .4-2 56-13-.4z"/><path fill="#ae7860" fill-opacity=".7" d="M89.5 44l-4.7-6-37.9 33.8 19.5 1.9z"/><path fill="#dba794" fill-opacity=".6" d="M30 37L19 57l51 8z"/><path fill="#fff2cc" fill-opacity=".2" d="M137.9 50.9l-43.8-7.8 35.8-31.3L107 70.1z"/><path fill="#010000" fill-opacity=".2" d="M70.1 44.9l38.1 39.6 18.6-1.8-19.8 27z"/><path fill="#d7e0f4" fill-opacity=".6" d="M95.4 148.4L57.7 84.7l11.9-5.9 14.5 27.4z"/><path fill="#594b07" fill-opacity=".3" d="M216 82l22 56 21-57z"/><circle r="1" fill="#e8c4b6" fill-opacity=".5" transform="matrix(12.86931 -.5566 1.2289 28.41366 222.3 130.6)"/><circle r="1" fill="#73452f" fill-opacity=".5" transform="rotate(41.1 79.3 321.5) scale(18.85591 35.4123)"/><path fill="#e5f5ff" fill-opacity=".3" d="M114.2 137l104.4 24.9-31.1 23.1h-24.3z"/></g></svg>