<svg xmlns="http://www.w3.org/2000/svg" viewBox="0 0 300 199"><defs/><path fill="#4d2629" d="M0 0h300v199H0z"/><g transform="translate(.6 .6) scale(1.17188)"><ellipse cx="114" cy="117" fill="#e5f5e2" fill-opacity=".4" rx="74" ry="57"/><circle r="1" fill="#000100" fill-opacity=".6" transform="matrix(16.41312 -50.43467 242.48279 78.91197 127.8 8)"/><circle r="1" fill="#1c0c0d" fill-opacity=".9" transform="matrix(24.97076 -136.93891 38.73728 7.06373 228.4 134)"/><ellipse cx="125" cy="132" fill="#42000c" fill-opacity=".7" rx="6" ry="51"/><path fill="#c5b8b5" fill-opacity=".4" d="M114.9 43l78.1 71.8-90.1-5-5-71.8z"/><circle r="1" fill="#110c0c" fill-opacity=".7" transform="rotate(-170.7 13.5 27.6) scale(31.57474 129.16717)"/><path fill="#18151b" d="M128 160h58v10h-58z"/><circle r="1" fill="#c6e5fa" fill-opacity=".4" transform="matrix(11.7009 1.31867 -4.22655 37.50318 144 122.5)"/><path fill="#674738" fill-opacity=".7" d="M88 114L53 63l49-2z"/><circle r="1" fill="#cba687" fill-opacity=".4" transform="matrix(17.15525 56.46456 -23.5825 7.16491 71.2 131.1)"/><path fill="#0a121c" fill-opacity=".6" d="M177 137l-7-28-9 63z"/><circle r="1" fill="#460000" fill-opacity=".4" transform="matrix(-.98434 -46.9921 5.17427 -.10839 126.9 100.8)"/><path fill="#8eb9ca" fill-opacity=".5" d="M190 125l-24 35 14-3z"/><path fill="#efffff" fill-opacity=".5" d="M83.7 145.5l-12.1-8.8 14.7-20.2 12.1 8.8z"/><circle r="1" fill="#14080a" fill-opacity=".7" transform="matrix(-36.50597 -53.7169 18.35605 -12.47476 34.7 166.4)"/><path fill="#210801" fill-opacity=".2" d="M51 105.5l44.5 6.8L90.9 2.5l-10.1 77z"/><circle r="1" fill="#926959" fill-opacity=".9" transform="matrix(20.08647 .21297 -.09799 9.24147 75.6 157)"/><path fill="#522e32" fill-opacity=".5" d="M53 85l-23 47L9 41z"/><circle r="1" fill="#a97655" fill-opacity=".4" transform="rotate(-143.8 71.8 11) scale(29.35201 14.44503)"/><ellipse cx="157" cy="93" fill="#a1bdcb" fill-opacity=".4" rx="24" ry="21"/><path fill="#7c4c36" fill-opacity=".5" d="M97 108h25v37H97z"/><path fill="#ebe5e3" fill-opacity=".4" d="M52 88l-12 27 17 43z"/><path fill="#281012" d="M241 48l-34 105-42-113z"/><path fill="#96d0c8" fill-opacity=".3" d="M82 172.6l25.8-26.6 20.1 19.4-25.7 26.6z"/><path fill="#b98861" fill-opacity=".3" d="M64.4 38.9l21.7 24.4-34.8 71.6-2.4-27.8z"/><path fill="#0b0000" fill-opacity=".6" d="M98.6 70.3l-11.1 4.5-10.1-25 11.1-4.6z"/><path fill="#dbcbc6" fill-opacity=".5" d="M72.5 185l-26.6-47.6-3-14.4 37.3 62z"/><path fill="#000601" fill-opacity=".6" d="M37.9 26.6l24.3 5.7-8 35-24.4-5.6z"/><ellipse cx="155" cy="40" fill-opacity=".1" rx="37" ry="48"/><path fill="#757b82" fill-opacity=".7" d="M175.6 150.6l11.4-8.8 5.9-28.5-19-12.9z"/><path fill="#9adbff" fill-opacity=".2" d="M91.2 84.5l1.5-17.6 29.5 28.7-5.4 13.3z"/><path fill="#81888e" fill-opacity=".6" d="M160.1 160l10.9-15.1-19.2-27.3-11.3 42.9z"/><circle r="1" fill="#8f604a" fill-opacity=".5" transform="rotate(60.3 -88.5 130.5) scale(32.26067 7.68936)"/><path fill="#481b24" fill-opacity=".7" d="M-12 62l55 37-1 35z"/><path fill="#50111a" fill-opacity=".8" d="M131 164.6l-11.6-36.2-3 22.9 2.8 2.8z"/><path fill="#431919" fill-opacity=".5" d="M127.1 127.4l2.5-28.9L99 128l6.3-19.5z"/><path fill="#201618" fill-opacity=".8" d="M152 159l16-4 25 17z"/><path fill="#430009" fill-opacity=".6" d="M123 84h7v34h-7z"/><path fill="#b78d77" fill-opacity=".5" d="M102 70l1-35 34 55z"/><path fill="#7e786c" fill-opacity=".5" d="M94.3 115.8l22.6-76.2-43.6 76.6 4.2 5.3z"/><path fill="#babfc4" fill-opacity=".3" d="M127.1 164.6l51.7-78-39.6-10.9-5.9 56.6z"/><path fill="#fbebd5" fill-opacity=".2" d="M66.5 81.6l-24.7 33.3 10-28.3 9.9-24.3z"/><path fill="#9a745f" fill-opacity=".7" d="M128.8 118.6l-31.2 13.3-15.9 21.2 16.6 2.4z"/><path fill="#310004" fill-opacity=".5" d="M135 88l-13-4 6 11z"/><path fill="#120e12" fill-opacity=".5" d="M176 133l-10-24 4 37z"/><path fill="#000e0e" fill-opacity=".4" d="M160.1 27.3L104.1-1l15.3 55.1 43.3-3z"/><circle r="1" fill="#0a0000" fill-opacity=".4" transform="matrix(-3.32498 1.8474 -19.3982 -34.91307 20.8 90.2)"/><path fill="#629ab6" fill-opacity=".5" d="M-3.5 159l4.8-1.4 4.2 15.5-4.8 1.3z"/><path fill="#6b7065" fill-opacity=".6" d="M127 164.7L114.1 185l-4.5-62.5 20.9 62.5z"/><path fill="#411309" fill-opacity=".5" d="M137 80.7l-2.3-1.8 10.2-13.6 2.4 1.8z"/><path fill="#ccd0c1" fill-opacity=".4" d="M96.8 132.4l-5-17.7-17.3 13.6.6 24z"/><circle cx="189" cy="161" r="12" fill="#1b0c0c" fill-opacity=".8"/><path fill="#140204" fill-opacity=".6" d="M34 85l12 8-2 14z"/><path fill="#86939f" fill-opacity=".5" d="M177 159l9-27-13-3z"/><path fill="#b3c3ca" fill-opacity=".5" d="M119 109l-13-1 14-31z"/><circle r="1" fill="#030100" fill-opacity=".6" transform="matrix(-6.80654 2.57198 -8.27675 -21.9038 9.6 20.8)"/><path fill="#030100" fill-opacity=".6" d="M-7 81.3l5.2-3.1L61 182.7l-5.2 3.1z"/><circle r="1" fill="#442028" fill-opacity=".5" transform="matrix(-2.97622 1.6655 -20.67452 -36.94499 5.2 134.5)"/><circle r="1" fill="#6b3c48" fill-opacity=".6" transform="matrix(-.84057 .5417 -45.8294 -71.11332 24.2 107.9)"/><path fill="#0e0503" fill-opacity=".2" d="M16.7 36.2l80.2 47.6-38.6 10 41.3-22z"/><path fill="#acacb0" fill-opacity=".8" d="M130.3 80.3l5.6 12.1-8.3 4.8 49.2 18z"/><path fill="#a77c67" fill-opacity=".5" d="M95 63l7-18 41 22z"/><path fill="#403f3a" fill-opacity=".4" d="M148.7 61.6l-27.1-.2-6-22 34.2 16.9z"/><circle r="1" fill="#96a3ae" fill-opacity=".5" transform="matrix(-14.45649 5.5178 -3.3281 -8.71953 144.7 150.7)"/><path fill="#459874" fill-opacity=".1" d="M44.1 69.8l10 17.3L25 88.2l-8.6-55.5z"/></g></svg>