<svg xmlns="http://www.w3.org/2000/svg" viewBox="0 0 300 199"><defs/><path fill="#5b3b35" d="M0 0h300v199H0z"/><g transform="translate(.6 .6) scale(1.17188)"><circle r="1" fill="#ecb69c" fill-opacity=".6" transform="rotate(110.9 1.4 66.8) scale(59.93586 38.45626)"/><ellipse cx="212" cy="98" fill="#b9a972" fill-opacity=".6" rx="40" ry="70"/><circle r="1" fill-opacity=".7" transform="matrix(-8.9488 -10.0087 31.62928 -28.27984 25 109.7)"/><circle r="1" fill="#010002" fill-opacity=".8" transform="matrix(-76.83046 1.12936 -.5482 -37.29434 111.4 169)"/><circle r="1" fill="#fff0d9" fill-opacity=".5" transform="matrix(-10.4776 -9.85804 36.44248 -38.73282 41.7 128.4)"/><ellipse cx="163" cy="48" fill="#0e0a0a" fill-opacity=".9" rx="16" ry="55"/><circle r="1" fill="#dfae92" fill-opacity=".8" transform="rotate(74.7 -45 46) scale(11.8886 67.58262)"/><circle r="1" fill="#0a0303" fill-opacity=".5" transform="rotate(66.7 1.6 30.6) scale(32.34092 137.05904)"/><ellipse cx="208" cy="8" fill="#64c1ff" fill-opacity=".3" rx="36" ry="51"/><path fill-opacity=".5" d="M166.6 72.5l88-23.6 2.8 10.6-88 23.6z"/><ellipse cx="124" cy="103" fill="#22131b" fill-opacity=".6" rx="24" ry="58"/><circle r="1" fill="#e1b468" fill-opacity=".4" transform="matrix(22.45567 11.8682 -20.8113 39.37682 195 111.6)"/><circle r="1" fill="#ffbfa2" fill-opacity=".5" transform="matrix(-16.27415 -9.17001 12.59071 -22.34492 84 105.4)"/><path fill-opacity=".8" d="M245 0h11v64h-11z"/><path fill="#1d0e0a" fill-opacity=".8" d="M98.7 74.8L126.4 185 106.6 67.6l-22.2 1.3z"/><path fill="#0e110d" fill-opacity=".7" d="M229.8 35.6l22.4 30.2L229.1.9 214-16z"/><path fill="#fff1fd" fill-opacity=".5" d="M69.8 63l5.7 15-23.3 9-5.7-15z"/><path fill-opacity=".4" d="M56 95.9l-34.8 25.3-15.2-21 34.8-25.4z"/><path fill="#ce9481" fill-opacity=".9" d="M59.5 37.5l-13 7.3 70.2 12.6L100.1 34z"/><path fill="#0e0903" fill-opacity=".7" d="M88.1-3.4L106.3-16 190 82.7 152.6-16z"/><path fill="#f4ffff" fill-opacity=".5" d="M246.8 25.7l-6.8 1.7L233.2.3l6.8-1.7z"/><path fill-opacity=".7" d="M160 148l-14 37 70-18z"/><circle r="1" fill="#3a232a" fill-opacity=".7" transform="matrix(17.60307 0 0 65.32115 146 107.4)"/><circle r="1" fill-opacity=".6" transform="matrix(7.65814 -36.84374 12.27311 2.55102 101 144.5)"/><circle r="1" fill="#020500" fill-opacity=".6" transform="matrix(14.657 -46.98685 5.67889 1.77146 255 131)"/><ellipse cx="238" cy="75" fill="#cfad6f" fill-opacity=".5" rx="38" ry="9"/><circle r="1" fill="#7e5624" fill-opacity=".4" transform="matrix(-3.98947 -12.81836 69.60407 -21.66295 255 100)"/><path fill="#bb855c" fill-opacity=".5" d="M49.7 129.2l39.5 7.4-26.8 7.8-53.6 29.8z"/><circle r="1" fill="#ba9555" fill-opacity=".5" transform="matrix(-20.4248 3.41995 -4.06844 -24.29778 221.3 147)"/><path fill="#460000" fill-opacity=".4" d="M79.4 86.1L55 99.7 50.6 92 75 78.3z"/><path fill="#5b617a" fill-opacity=".5" d="M175 41h22v24h-22z"/><path fill="#cba973" fill-opacity=".5" d="M166 92l4 39 53-65z"/><circle r="1" fill="#f7dbc5" fill-opacity=".4" transform="matrix(8.41483 4.36183 -16.57034 31.96744 33 134.8)"/><circle r="1" fill="#828376" fill-opacity=".7" transform="rotate(-92.1 84.6 73.8) scale(16.20342 13.87926)"/><path fill="#5b0000" fill-opacity=".5" d="M89 107l4-18-17 21z"/><path fill="#150907" fill-opacity=".5" d="M59 20h51v15H59z"/><path fill-opacity=".5" d="M197 69l-37-17-7 54z"/><path fill-opacity=".6" d="M45 100.2l-49.4 55-12.7-11.4 49.5-55z"/><path fill="#8e94b1" fill-opacity=".3" d="M241.1 55.8L213.2-4.7 192.6 65l37.3-8.5z"/><path fill="#a2633d" fill-opacity=".4" d="M-5.8 91.6l46.4-18.7 14.5 8.8L10.2 100z"/><circle r="1" fill="#4d3036" fill-opacity=".8" transform="matrix(20.97687 -4.04802 5.42922 28.13427 134 62)"/><circle r="1" fill="#f6c8b3" fill-opacity=".6" transform="matrix(-32.49456 12.46502 -2.55506 -6.66067 67.6 121.6)"/><path fill="#72422f" d="M102.5 67.9l-9.8-2.3-2.2 18.1-9.8-9.2z"/><path fill="#383b40" fill-opacity=".5" d="M191 32.6l23.3 3.5-23-49.6-5.1-2.5z"/><path fill="#a5674a" d="M76.5 32.3l3.6-8.8 7.5 26.7 15-.4z"/><path fill="#dfbfa3" fill-opacity=".8" d="M-16 65l58 3-56 15z"/><path fill="#946547" fill-opacity=".6" d="M60.3 141.6l-2.1-5.6 35.5-13.6 2.1 5.6z"/><circle r="1" fill="#2e1e13" fill-opacity=".5" transform="matrix(-34.4228 11.45094 -16.04771 -48.2412 1.3 17.8)"/><circle r="1" fill="#93a5b4" fill-opacity=".5" transform="rotate(-94.4 93.7 -81.4) scale(24.79212 4.62075)"/><ellipse cx="98" cy="97" fill="#ffccab" fill-opacity=".5" rx="5" ry="18"/><path fill="#ffecea" fill-opacity=".5" d="M99 53l-24-3 2-8z"/><path fill="#9e5d45" fill-opacity=".8" d="M55 67l-11-6.9 3-5.1 11.2 6.7z"/><path fill-opacity=".5" d="M158 0h10v115h-10z"/><path fill="#806032" fill-opacity=".5" d="M271 49.9L232.6 185l2.5-59.5-12.5-16.7z"/><path fill="#e9b498" fill-opacity=".6" d="M17.2 64.9L37 77.5l26.7 6.9L42 56.3z"/><path fill-opacity=".6" d="M109 123l19 44-111 5z"/><ellipse cx="110" fill="#4a2b35" fill-opacity=".6" rx="18" ry="43"/><path fill="#ffe1d0" fill-opacity=".5" d="M70.3 33.8l31.9 3.4-.5 5-31.9-3.4z"/><path fill="#010100" fill-opacity=".7" d="M231.8 32.9L215.9-16 271 17.6 231.8-16z"/><path fill-opacity=".5" d="M240 30h16v36h-16z"/><path fill="#ffc8ca" fill-opacity=".3" d="M47.9 81.7l19-48.3-19.1 14.1 37.1 32.7z"/><path fill="#fedccf" fill-opacity=".5" d="M64 97l-51 41 15 9z"/><circle r="1" fill-opacity=".5" transform="rotate(-97.1 13.7 9.7) scale(27.09304 5.62698)"/><path fill-opacity=".6" d="M6 139l21-14 4-35z"/><ellipse cx="31" cy="25" fill="#3a2420" fill-opacity=".6" rx="20" ry="33"/></g></svg>