<svg xmlns="http://www.w3.org/2000/svg" viewBox="0 0 300 199"><defs/><path fill="#2b3d4b" d="M0 0h300v199H0z"/><g transform="translate(.6 .6) scale(1.17188)"><circle r="1" fill="#fffce6" fill-opacity=".6" transform="matrix(-220.17279 -53.33 15.22782 -62.86802 150.6 22.7)"/><circle r="1" fill="#76664d" fill-opacity=".6" transform="matrix(5.83603 -57.33694 233.61459 23.77842 176.7 104.7)"/><circle r="1" fill="#c3e0f4" fill-opacity=".7" transform="matrix(2.1498 -34.34094 95.14811 5.95644 172.5 9.2)"/><circle r="1" fill="#120300" fill-opacity=".6" transform="matrix(34.1184 27.72728 -11.16655 13.74044 89.2 87.2)"/><path fill="#f3c090" fill-opacity=".7" d="M48.7 66.6l16 37.5 45.6 31.7L47 111.4z"/><circle r="1" fill="#b6e2fe" fill-opacity=".6" transform="matrix(52.3027 -16.66522 7.45717 23.40383 16.2 23.8)"/><ellipse cx="200" cy="83" fill="#fff6de" fill-opacity=".8" rx="84" ry="4"/><path fill="#3d1200" fill-opacity=".5" d="M123 75L57 16l28-1z"/><path fill="#92adb0" fill-opacity=".7" d="M106 108l-27 44 15 33z"/><circle r="1" fill="#0a2e4e" fill-opacity=".5" transform="matrix(40.56335 -12.55646 5.55747 17.9533 137.4 141.6)"/><circle r="1" fill="#554116" fill-opacity=".5" transform="matrix(-114.0616 14.78168 -.83923 -6.47588 136.8 65.2)"/><circle cx="209" cy="134" r="49" fill="#676e6d" fill-opacity=".5"/><path fill="#e7d5c6" fill-opacity=".6" d="M45 28h34v26H45z"/><path fill="#ffb977" fill-opacity=".7" d="M70 123l5-30 11 1z"/><path fill="#052038" fill-opacity=".6" d="M-1.5 117.4L-6.7 98l50.2-13.5 5.2 19.3z"/><path fill-opacity=".5" d="M78 170l6-43-32-8z"/><path fill="#c4dbeb" fill-opacity=".5" d="M98-16L88 33l53 18z"/><path fill="#ca8957" fill-opacity=".9" d="M98.5 72.8L69.1 48.1l30.9-8.2-1.6 3.2z"/><circle r="1" fill="#150600" fill-opacity=".5" transform="matrix(-5.36994 1.11812 -7.87497 -37.82078 110.6 78.3)"/><path fill="#87877e" fill-opacity=".5" d="M239 107L122 83l4 39z"/><path fill="#d8945d" fill-opacity=".8" d="M46.3 112.8l62.5 7.3 5.4 11.1-27.3-4.2z"/><path fill="#fff3ca" fill-opacity=".5" d="M51 83h13v29H51z"/><path fill="#9ea38d" fill-opacity=".7" d="M172.9 35.6l27.7 3.8-4.6 18.3-57.2-17.8z"/><path fill="#b5dcf0" fill-opacity=".7" d="M59.5 23.7L47.7 7.5l34.8-25.2L94.3-1.5z"/><path fill="#010000" fill-opacity=".6" d="M73 14l18 11-29-2z"/><ellipse cx="68" cy="81" fill="#0b0a0a" fill-opacity=".7" rx="6" ry="25"/><path fill="#c5d1d8" fill-opacity=".6" d="M205 32h51v19h-51z"/><path fill="#344653" fill-opacity=".8" d="M203.3 117.8l-77.8 2.5-4.7 64.7 77.5-57.1z"/><path fill="#140e0b" fill-opacity=".5" d="M82 55l37 52-36 10z"/><path fill="#4a555c" fill-opacity=".7" d="M63 137l-79-1 62-40z"/><path fill="#fffff5" fill-opacity=".5" d="M122 84h24v4h-24z"/><path fill="#371308" fill-opacity=".5" d="M89.8 30.7L77 72.7l-4.8-1.4 12.8-42z"/><path fill="#837144" fill-opacity=".5" d="M180 50h68v28h-68z"/><path fill="#4b4624" fill-opacity=".5" d="M-13.1 74l2.8-22.8L61 60l-2.8 22.8z"/><path fill="#6f6d63" fill-opacity=".8" d="M218 86h38v52h-38z"/><path fill="#accee2" fill-opacity=".5" d="M35 0h28v50H35z"/><path fill="#6ea3b3" fill-opacity=".4" d="M106.6 185l.9-22.4-20.8-34.7-6.9 36.4z"/><circle r="1" fill="#ffbf7e" fill-opacity=".6" transform="matrix(5.45455 -.3009 .71262 12.91824 73 46.7)"/><circle r="1" fill="#152838" fill-opacity=".5" transform="rotate(-20.2 483.4 28.5) scale(64.89443 28.29588)"/><path fill="#9b8f6b" fill-opacity=".5" d="M114 67h81v14h-81z"/><path fill="#001024" fill-opacity=".6" d="M101.6 137.5l8.2-8.6 19 56.1-16.7-12.5z"/><ellipse cx="163" cy="169" fill="#5b5f5c" fill-opacity=".8" rx="35" ry="13"/><path fill="#c4d2db" fill-opacity=".7" d="M108 17h6v36h-6z"/><path fill="#280000" fill-opacity=".5" d="M64 23h4v11h-4z"/><path fill="#ffe2bb" fill-opacity=".5" d="M47 80l28 43-23-11z"/><ellipse cx="137" cy="61" fill="#3f3a0a" fill-opacity=".3" rx="43" ry="7"/><path fill="#be8b69" fill-opacity=".9" d="M110.4 113.7l-9.6-.8-9.5 9.1 3.4 2.2z"/><ellipse cx="73" cy="107" fill="#ffca91" fill-opacity=".6" rx="3" ry="9"/><ellipse cx="65" cy="99" fill-opacity=".4" rx="5" ry="6"/><path fill="#9faaba" fill-opacity=".2" d="M23.1 92.2l-2-19.9 23.8-2.5 2 19.9z"/><path fill="#33241a" d="M105.4 87.2l13.4 1.4-21.1-52.5 11.4 15.2z"/><path fill="#171312" fill-opacity=".7" d="M82.2 185l-2.3-55.5 31.6 3.4-40.3-8.2z"/><circle r="1" fill="#edaf7a" fill-opacity=".7" transform="matrix(1.11669 10.62458 -7.02219 .73806 73.2 36.7)"/><path fill="#fee482" fill-opacity=".2" d="M37.7 54.7l-17.5-7.4L-16 29.8l23.3 24z"/><path fill="#fffde3" fill-opacity=".4" d="M208 79h48v5h-48z"/><path fill="#fac493" fill-opacity=".6" d="M95.6 41.5L88 43.6l-.8 20.9 3.9 1.8z"/><path fill="#a44815" fill-opacity=".5" d="M109 81l-4-20-15 8z"/><path fill="#131416" fill-opacity=".9" d="M123.4 119.1l-4.7 1.9-10.1-1.5 10.8-32.8z"/><path fill="#f6e5ce" fill-opacity=".6" d="M250 37.9l-.9 19.2 20.8-4.5.3-6z"/><path fill="#151a26" fill-opacity=".5" d="M73 83l-27-4 18-30z"/><ellipse cx="193" cy="75" fill="#3e3c35" fill-opacity=".2" rx="103" ry="3"/><path fill="#443c21" fill-opacity=".5" d="M238 53h11v11h-11z"/><path fill="#ccc1a1" fill-opacity=".6" d="M135 67h57v2h-57z"/><path fill="#bbd5e3" fill-opacity=".8" d="M261 24.6L93.9 11.9l-40.4 7.5L157.6-16z"/><path fill="#bed1dd" fill-opacity=".6" d="M88 7h45v29H88z"/></g></svg>