<svg xmlns="http://www.w3.org/2000/svg" viewBox="0 0 300 199"><defs/><path fill="#5d2b34" d="M0 0h300v199H0z"/><g transform="translate(.6 .6) scale(1.17188)"><circle cx="174" cy="47" r="78" fill="#8a9e94" fill-opacity=".6"/><ellipse cx="51" cy="91" fill="#111110" fill-opacity=".9" rx="57" ry="143"/><circle r="1" fill="#0a0000" fill-opacity=".7" transform="matrix(15.4211 -3.3653 13.88711 63.636 153.9 40)"/><circle r="1" fill="#fbfcfa" fill-opacity=".6" transform="matrix(-.98874 -60.49497 16.8779 -.27585 118.1 19)"/><ellipse cx="174" cy="115" fill="#696860" fill-opacity=".8" rx="127" ry="22"/><circle r="1" fill="#fafff9" fill-opacity=".4" transform="rotate(-178.2 111.1 10.8) scale(22.45282 70.68622)"/><path fill="#dbfffa" fill-opacity=".5" d="M108 117h22v35h-22z"/><path fill="#e3e9ec" fill-opacity=".7" d="M177.1 9.2l4.4 99.2-15.7-91.5 2.7-12z"/><path fill="#393435" d="M152.1 46.5l-34.4 39.2 54.6 25.4-45.1-55.3z"/><circle r="1" fill="#01251e" fill-opacity=".6" transform="rotate(-91.8 176.5 -11.9) scale(20.17283 124.18822)"/><path fill="#afc1c6" fill-opacity=".8" d="M174.9 185l-1.5-57.7 5.5-3.6 4.2 2.8z"/><circle r="1" fill="#100b00" fill-opacity=".5" transform="matrix(6.23516 -.37627 3.93162 65.15103 197 92)"/><circle r="1" fill="#f0f6f6" fill-opacity=".7" transform="matrix(5.27257 -1.76912 5.0198 14.96069 119 88.8)"/><ellipse cx="255" fill="#151d18" fill-opacity=".8" rx="9" ry="159"/><circle r="1" fill="#938e80" fill-opacity=".7" transform="rotate(30.5 -53 464.3) scale(20.55798 27.23527)"/><circle r="1" fill="#423e3b" fill-opacity=".7" transform="matrix(1.57942 14.08089 -44.92674 5.03934 38.4 114.3)"/><path fill="#1e1115" fill-opacity=".7" d="M161.9-16l18.9 23.6L121.4-16l58.8 130z"/><circle r="1" fill="#080001" fill-opacity=".5" transform="matrix(-68.98317 -67.19018 31.59247 -32.43552 35.6 31.8)"/><circle r="1" fill="#01070a" fill-opacity=".6" transform="matrix(17.058 -22.30094 10.25207 7.84182 154 152)"/><ellipse cx="102" cy="4" fill="#f4ffff" fill-opacity=".7" rx="4" ry="12"/><path fill="#b4b39f" fill-opacity=".4" d="M206 76h14v74h-14z"/><path fill="#000001" fill-opacity=".5" d="M126 72h16v26h-16z"/><path fill="#acaaa4" fill-opacity=".3" d="M90 108l27 34 71-29z"/><path fill="#675f56" fill-opacity=".8" d="M177.9 126L44.8 108.1l112.1 8.5-17.5-70.9z"/><path fill="#d0d0cd" fill-opacity=".6" d="M228 6l-32-22 15 116z"/><ellipse cx="192" cy="19" fill="#484436" fill-opacity=".8" rx="6" ry="47"/><circle r="1" fill="#0b080b" fill-opacity=".5" transform="matrix(-40.11425 12.80209 -4.82412 -15.11597 70 141.9)"/><path fill="#5a5c4e" fill-opacity=".5" d="M228.2 33.8L249.5 144l-43.8 15.2 30-112.6z"/><path fill="#10090a" fill-opacity=".9" d="M114.2 99.3L-16 100 0-16l105.7 66.7z"/><path fill="#ecf3f8" fill-opacity=".3" d="M105.7 57.1l22.3 39 33.7 11.2-45.2-8z"/><path fill="#fefeff" fill-opacity=".5" d="M112.8-16l7.8 59.6.1-5.2 18.8 4.8z"/><path fill="#372e29" fill-opacity=".6" d="M162.9 93.8l23-1.6 1.2 18-23 1.6z"/><path fill="#694c44" fill-opacity=".4" d="M121 67.2l-12-84.1 2-.3 12 84.1z"/><circle r="1" fill="#dbf1e9" fill-opacity=".4" transform="matrix(-5.20147 14.85308 -5.00167 -1.75156 113.6 138.4)"/><ellipse cx="116" cy="43" fill="#551407" fill-opacity=".3" rx="18" ry="3"/><path fill="#fff3fc" fill-opacity=".5" d="M139.5 68l5.6-2.3 3.4 8.3-5.6 2.3z"/><path fill="#200c10" fill-opacity=".5" d="M132 8l9 53 24 7z"/><path fill="#0c0807" fill-opacity=".5" d="M152 182l119-22-82-7z"/><ellipse cx="120" cy="122" fill="#9d9c9c" fill-opacity=".5" rx="42" ry="5"/><ellipse cx="243" cy="91" fill="#d2eeff" fill-opacity=".2" rx="4" ry="50"/><path fill="#989a92" fill-opacity=".8" d="M185.2 7.6l2.6 45.4-14.4-42.6 6.3-26.4z"/><path fill="#e8ffff" fill-opacity=".4" d="M119 158h8v4h-8z"/><path fill="#120b0e" fill-opacity=".6" d="M96-16l13 89-56-85z"/><path fill="#1a1216" fill-opacity=".5" d="M122 69l52 10-43 12z"/><path fill="#322c23" fill-opacity=".7" d="M207 122l-19 29 11-84z"/><path fill="#13171a" fill-opacity=".6" d="M153.6 129.3l-25.1 19.6 6-19.8 48.3 55.8z"/><path fill="#e4e8e2" fill-opacity=".6" d="M120 91l7-44-18 6z"/><ellipse cx="34" cy="152" fill="#0d0708" fill-opacity=".6" rx="70" ry="22"/><circle r="1" fill="#c6bbae" fill-opacity=".5" transform="matrix(-.07876 1.85343 -22.00992 -.93529 170 113.2)"/><ellipse cx="178" cy="69" fill="#fff" fill-opacity=".4" rx="3" ry="21"/><path fill="#ccdcec" fill-opacity=".5" d="M109 100h46v2h-46z"/><path fill="#f2ffff" fill-opacity=".4" d="M182.5 128.7l-1 21-6-.4 1-21z"/><path fill="#d1d1ce" fill-opacity=".6" d="M125.6 15.8l14.3 37.7-9.7-1 1.4-62.2z"/><path fill="#edf3f4" fill-opacity=".4" d="M115.8 32.6l-10.5 12L96.2-16l15 23.3z"/><ellipse cx="251" cy="26" fill="#1b2120" fill-opacity=".4" rx="7" ry="69"/><path fill="#f1f7fe" fill-opacity=".3" d="M164.7 8.7l14.6 93.9L174.6 4l1.8.7z"/><circle r="1" fill="#4c473d" fill-opacity=".4" transform="matrix(2.0585 -.13312 6.38033 98.6643 237.5 79.2)"/><circle r="1" fill="#4f4839" fill-opacity=".5" transform="matrix(-6.57665 -46.8089 5.7965 -.8144 194.7 41.8)"/><path fill="#000010" fill-opacity=".5" d="M152 97l-24-2-7-12z"/><circle r="1" fill="#f9effb" fill-opacity=".4" transform="matrix(-1.72065 -1.63283 4.04746 -4.26514 145.7 129.5)"/><path fill="#d3ffde" fill-opacity=".2" d="M112.3 130.5l28.5 20.8-12.7 1.5-16.2-34.8z"/><path fill="#f9f0f1" fill-opacity=".5" d="M146.4 52.7l-2 5.6-2.8-1 2-5.6z"/><ellipse cx="122" cy="106" fill="#534c3d" fill-opacity=".6" rx="63" ry="4"/><path fill="#36342d" fill-opacity=".3" d="M258.7 121.1l-68.2 46.8 70.3-26.5-101.4-25.7z"/><path fill="#b8ac9b" fill-opacity=".4" d="M227.8 117.2l-5.6-53.7 6-.7 5.6 53.7z"/></g></svg>