<svg xmlns="http://www.w3.org/2000/svg" viewBox="0 0 299 449"><defs/><path fill="#4c3229" d="M0 0h299v449H0z"/><g transform="translate(.9 .9) scale(1.7539)"><ellipse cx="88" cy="131" fill="#dcebf1" fill-opacity=".7" rx="120" ry="232"/><path fill="#171625" fill-opacity=".8" d="M65 83l-30 80 109 74z"/><circle r="1" fill="#f0f7f8" fill-opacity=".7" transform="matrix(4.11667 144.82252 -53.31258 1.51544 168.6 99.3)"/><path fill="#020b20" fill-opacity=".7" d="M122.9 185.1l2.3-23.1-81.4 2.8 70.5 29.7z"/><path fill="#9c9e9d" d="M93.9 184.7l12 .6-58-1.5 92.2 64.2z"/><path fill="#cbd0d1" d="M42.6 154.2L74.2 271-16 254.9 13.1 83.5z"/><path fill="#131a25" fill-opacity=".9" d="M97.8 231.6l16-60.3 9.9.3-33.6 38.1z"/><ellipse cx="136" cy="255" fill="#e0e6eb" rx="161" ry="19"/><path fill="#dbdfdd" fill-opacity=".5" d="M67 123l38-139 79 196z"/><ellipse cx="60" cy="151" fill="#00000b" fill-opacity=".5" rx="17" ry="32"/><path fill-opacity=".5" d="M125 224h26v11h-26z"/><path fill="#e6edf2" fill-opacity=".7" d="M116 193.1l8.6 14.2 56.3 49.6 1.2-165.3z"/><path fill="#212533" fill-opacity=".8" d="M88.3 169L85 139l15.9-.1 6.9 9.6z"/><ellipse cx="68" cy="95" fill="#6a3c24" fill-opacity=".6" rx="10" ry="13"/><circle r="1" fill="#d8dee1" fill-opacity=".8" transform="matrix(-23.88442 -18.9848 17.64215 -22.19526 133.6 141.5)"/><path fill="#bfc4c0" fill-opacity=".8" d="M66.2 108l3.8 19.3L16.1-14.3-16 149.8z"/><path fill="#fec6a8" fill-opacity=".4" d="M75.2 157.8l-3.6 51.6L82.5 135l2.7 15.2z"/><path fill="#061020" fill-opacity=".7" d="M152.3 232.2l-46.9-35.9 20.9 33.6 17.5 6.1z"/><ellipse cx="55" cy="130" fill="#05142f" fill-opacity=".9" rx="10" ry="16"/><path fill="#cacdcb" d="M98.6 189.2l-15.5 27.6-3.8-19.9.1-11.3z"/><path fill="#f4feff" fill-opacity=".5" d="M120 224l-16 8 3-29z"/><path fill="#051332" fill-opacity=".7" d="M98.8 199l34.1 23.6-14.4-28.8 6.2-21z"/><circle r="1" fill="#cfd4d2" fill-opacity=".5" transform="matrix(-19.83424 -6.36808 25.82856 -80.44654 117 57)"/><path fill="#52381f" fill-opacity=".5" d="M65.2 176l-19.5 48.3-.9-.4 19.5-48.2z"/><path fill="#fff8ff" fill-opacity=".5" d="M79 129h4v16h-4z"/><path fill="#bec2c0" fill-opacity=".7" d="M108.5 159.3l-2 2.3-13-11 2-2.2z"/><path fill="#633a08" fill-opacity=".6" d="M83.5 233.7l-8-45.3 1-.1 8 45.3z"/><path fill="#000627" fill-opacity=".5" d="M114.6 193.4l-37.4-23.3 12.2-19.5 37.4 23.3z"/><path fill="#510618" fill-opacity=".5" d="M70 114h12l-7 20z"/><path fill="#d8dbda" fill-opacity=".5" d="M67.2 270.6l-7.8-76.9-36.1-10.9 46.2-.7z"/><path fill="#121512" fill-opacity=".5" d="M89.6 202.7l4.8-1.3 8 30-4.8 1.2z"/><path fill="#110a05" fill-opacity=".5" d="M52 179l33 1-45-38z"/><circle r="1" fill="#ecf4f8" fill-opacity=".9" transform="matrix(15.01235 -41.65219 26.75696 9.64379 170 255)"/><circle r="1" fill="#00051e" fill-opacity=".5" transform="matrix(6.73133 30.97065 -1.28612 .27953 86.9 146.3)"/><path fill="#000c0b" fill-opacity=".5" d="M60.9 93.7l1-11.7 15.6 4.6-5.2 2.8z"/><path fill="#e0e7eb" fill-opacity=".7" d="M123.6 202.8l11.2 19.6-1.9-1.5 53.1-50z"/><circle r="1" fill="#c9cec6" fill-opacity=".5" transform="matrix(37.71002 23.19907 -27.54951 44.78165 88 33.6)"/><ellipse cx="38" cy="239" fill="#cfd4db" fill-opacity=".4" rx="110" ry="10"/><path fill="#ef7b6d" fill-opacity=".4" d="M73 164.6l-2.9-7.5 15-5.7 2.8 7.5z"/><ellipse cx="71" cy="102" fill="#dd9b81" fill-opacity=".3" rx="9" ry="14"/><path fill="#070c2c" fill-opacity=".4" d="M78.5 135.2l-17.1 60-1.4-94 25.3 62.2z"/><path fill="#edd5de" fill-opacity=".5" d="M73.4 109.7L85.5 152l-1 .3-12-42.3z"/><path fill="#230600" fill-opacity=".5" d="M77.2 167l.9-.6L98.8 197l-.9.5z"/><path fill="#676152" fill-opacity=".3" d="M84.1 222.4l25.4 5.4-29 7.2-.7-26.5z"/><path fill="#c4c9c9" fill-opacity=".7" d="M0 99h46v42H0z"/><path fill="#861a1f" fill-opacity=".6" d="M82.7 160l-11.4-45.6 2-.4 11.4 45.6z"/><path fill="#000009" fill-opacity=".5" d="M86 138h10v21H86z"/><path fill="#c6c9ca" d="M73.9 185.9l5.1 25.4-50 17.8 38.4-8.7z"/><path fill="#e0e6e9" fill-opacity=".7" d="M117.5 194.1l8.9 12.6 23.4 21 26.1-173.6z"/><ellipse cx="138" cy="229" fill="#0a0a06" fill-opacity=".5" rx="6" ry="8"/><path fill="#fcfdf8" fill-opacity=".3" d="M100 186l-20 21 20-9z"/><path fill="#775734" fill-opacity=".5" d="M79.8 193.8l-9.3-6.7-3 34.3 7.4-59.6z"/><path fill="#0e1a34" fill-opacity=".7" d="M60.4 106.1l-12.1 56.2-2.2-44.1 35.5 30.7z"/><path fill="#775e44" fill-opacity=".5" d="M37.7 236.8l15.7-31.6 8.5-20.7-.3 7.5z"/><path fill="#d0d6d8" fill-opacity=".5" d="M150.5 100.1l-52.8 59.5-2.9-11.6 22.3 18.1z"/><path fill="#c3c7c6" fill-opacity=".7" d="M62.6 108.4L47.1 73l28.1-3.3-70.5 81.7z"/><circle r="1" fill="#d0d6d8" fill-opacity=".7" transform="matrix(11.35657 23.52548 -24.69159 11.9195 109.9 115.5)"/><path fill="#0a1123" fill-opacity=".8" d="M72.3 135.2l-33.2 8.9 3.2 8 39.6 2.8z"/><path fill="#091630" fill-opacity=".7" d="M114.4 208.4l-32.9-44.7 4.9-12.3 37.7 17z"/><path fill="#0e141c" fill-opacity=".9" d="M94.8 220.3l5.8-12.4 18.7-11.6-30.4 9.2z"/><path fill="#000005" fill-opacity=".5" d="M91.3 151.4l-3.7-6 11-6.8 3.8 6z"/><ellipse cx="106" cy="108" fill="#d0d6d6" fill-opacity=".7" rx="32" ry="9"/><path fill="#4a372d" fill-opacity=".5" d="M65.8 188.1l-7.8-1.4 9.2-.8 42-8.9z"/><path fill="#bdc2bd" fill-opacity=".8" d="M0 0h60v96H0z"/><path fill="#dee6e7" fill-opacity=".6" d="M79 185h10v12H79z"/></g></svg>