<svg xmlns="http://www.w3.org/2000/svg" viewBox="0 0 300 199"><defs/><path fill="#46242d" d="M0 0h300v199H0z"/><g transform="translate(.6 .6) scale(1.17188)"><circle r="1" fill="#dae4d3" fill-opacity=".5" transform="matrix(-109.07976 13.77998 -31.95997 -252.98925 59 96.3)"/><ellipse cx="126" fill="#eef0f8" fill-opacity=".5" rx="254" ry="20"/><circle r="1" fill="#493c32" fill-opacity=".8" transform="matrix(12.77493 -7.15796 28.08193 50.11831 108 92)"/><circle r="1" fill-opacity=".6" transform="matrix(-10.7661 -5.8957 22.35413 -40.82072 50.8 165.6)"/><ellipse cx="147" cy="125" fill="#fff" fill-opacity=".7" rx="8" ry="35"/><path fill="#302d30" d="M87.1 58.4L89.9 22l39.7-1.2-39.9 43.8z"/><path fill="#cccfd4" fill-opacity=".8" d="M242.3 79l28.7 67.7-16.2-102.3-5.8 33.5z"/><path fill="#5a3e47" d="M172.1 126.3l-56.8-84.7 36.5 23.9 111.3-19.8z"/><path fill="#faf4fe" fill-opacity=".7" d="M144.1 59.2l-28-24 31.4-1.3L171 62.4z"/><circle r="1" fill="#fff" fill-opacity=".6" transform="rotate(102 4 128.4) scale(8.67339 20.8099)"/><path fill="#000911" fill-opacity=".6" d="M256 21H128l59 37z"/><ellipse cx="170" cy="165" fill="#fff" fill-opacity=".3" rx="17" ry="19"/><path fill-opacity=".6" d="M116 162h36v8h-36z"/><path fill="#ffd7c7" fill-opacity=".5" d="M104.6 109.3l-11.9-7.9 6.2 83.6 12-12.5z"/><path fill="#fbe4a6" fill-opacity=".5" d="M42 16h38v27H42z"/><ellipse cx="13" cy="79" fill="#fdf1d6" fill-opacity=".5" rx="4" ry="51"/><path fill="#161615" fill-opacity=".6" d="M7 20l-23 10L5 98z"/><path fill="#272d18" fill-opacity=".5" d="M18 23h20v40H18z"/><ellipse cx="198" cy="61" fill="#fff" fill-opacity=".5" rx="28" ry="2"/><circle r="1" fill="#190618" fill-opacity=".3" transform="rotate(-125.8 62.2 69.8) scale(32.99242 23.0823)"/><path fill="#100000" fill-opacity=".4" d="M55.1 135.4l51-54.1 29.1-43.5-53.1 46.3z"/><path fill="#ffe2e2" fill-opacity=".4" d="M115.1 63.6l40.9 59.5-19.1-48L65 59.8z"/><path fill="#d8b6bd" fill-opacity=".4" d="M25.2 129l-10.5-12.2 64.1-55.7 10.5 12z"/><path fill="#f5e9ea" fill-opacity=".5" d="M83.5 103.1l-19.3 79.1 11.7-10.7 10.8-59.3z"/><path fill="#36393a" fill-opacity=".5" d="M156 79h67v50h-67z"/><circle r="1" fill="#faeef8" fill-opacity=".4" transform="matrix(-16.72335 -14.23269 .79222 -.93085 208.5 97.5)"/><circle r="1" fill="#eae0e8" fill-opacity=".6" transform="rotate(171.1 66.3 19) scale(2.32768 42.65416)"/><path fill="#d4cbd1" d="M149.7 34.5L106.3 51l2.2-7.4 5.4-6z"/><path fill="#1e0602" fill-opacity=".4" d="M113.2 150.5l-21.3 10.9-1.4-17.6 33.6 28.5z"/><ellipse cx="121" cy="52" fill="#1a0d04" fill-opacity=".6" rx="14" ry="5"/><path fill="#a6a5b0" fill-opacity=".6" d="M240 136l1 36-8-23z"/><path fill="#221e26" fill-opacity=".9" d="M107 23.5l-3.7 16.9L132.5 30l-7.3-9.3z"/><circle r="1" fill="#00040a" fill-opacity=".7" transform="rotate(.5 -13702.1 29157) scale(8.93252 18.94096)"/><path fill="#000709" fill-opacity=".5" d="M165 45h68v14h-68z"/><path fill="#f0e3ef" fill-opacity=".6" d="M224.4 96.7l-26-21.9 1.2-1.5 26 21.9z"/><ellipse cx="171" cy="79" fill="#4f001d" fill-opacity=".4" rx="30" ry="13"/><path fill="#444f44" fill-opacity=".5" d="M213 74l36 8 11-91z"/><path fill="#686852" fill-opacity=".8" d="M137.4 140.4l-18.5 2.7-20.2-3.9 36.3-45z"/><path fill="#01000f" fill-opacity=".4" d="M152.7 16.1l-12.2-.7-4.8 16.2 44.7 5.5z"/><circle cx="103" cy="169" r="12" fill="#f8fbff" fill-opacity=".5"/><path fill="#d49a91" fill-opacity=".5" d="M95.9 69.1l10.8-17.7 10 34.2 37.9-26.7z"/><path fill="#c8adbd" fill-opacity=".5" d="M179 134.1l36.1-33.6 13.8-10.7 2.5.8z"/><ellipse cx="164" cy="109" fill="#fff" fill-opacity=".2" rx="4" ry="60"/><ellipse cx="229" cy="102" fill="#9f245b" fill-opacity=".7" rx="5" ry="15"/><path fill="#001718" fill-opacity=".4" d="M208.3 176.6l-34-33.9 23.4-23.3 34 33.9z"/><path fill="#f4edee" fill-opacity=".4" d="M251 49h5v61h-5z"/><path fill="#efeced" fill-opacity=".4" d="M222.1 125.4l-42.9-36 .7-.8 42.9 36z"/><path fill="#f6dde3" fill-opacity=".4" d="M78 73l3-12H45z"/><path fill="#eee7e8" fill-opacity=".6" d="M105 150l25 6 37-27z"/><path fill="#390f01" fill-opacity=".5" d="M159 137l-7 11 6 10z"/><path fill-opacity=".7" d="M238 154.7l1-12 29 2.6-1 12z"/><circle r="1" fill="#273126" fill-opacity=".3" transform="rotate(43 -85.2 124) scale(28.2974 3.99525)"/><path fill="#2a202a" fill-opacity=".8" d="M78.7 115.2l1.3.1L61.3 185l-6.9-41.7z"/><path fill="#160906" fill-opacity=".6" d="M79.8 78.1l32.3 7.2 13.4 18.8-20.3-36.2z"/><circle r="1" fill="#a59994" fill-opacity=".5" transform="matrix(39.73715 -36.43978 .67587 .73702 200 99.9)"/><path fill="#f0ebeb" fill-opacity=".4" d="M119.3 62.2l37 37.8-11 43.8-9.8-54.2z"/><circle r="1" fill="#b5acb5" fill-opacity=".6" transform="matrix(-2.40566 -14.37566 101.6118 -17.00399 165 0)"/><path fill="#0a0f0d" fill-opacity=".3" d="M117.9 33.8L93.4 60.1l-18 3.3-7.7-18.2z"/><path fill="#d3bdb5" fill-opacity=".8" d="M82.3 110.9l6.5-16.3 17 59.2-6.2-52.7z"/><path fill="#c9d9d9" fill-opacity=".5" d="M241 157h15v3h-15z"/><path fill-opacity=".3" d="M178.2 117.2l-12.5-13 20.1-19.4 12.5 13z"/><path fill="#feece8" fill-opacity=".3" d="M-5.1 23.7L26.7-16l28.7 51.3L68.2-16z"/><path fill="#cac1c7" fill-opacity=".9" d="M132.3 42.7l-3.4-30-84.2-6.4 98.9-13.2z"/><path fill="#8a533c" fill-opacity=".6" d="M107.2 69l1.7-15.9 17.9 1.9-1.7 15.9z"/><path fill="#131120" fill-opacity=".5" d="M84.4 105.6l-19.8 19.8-5-5 19.8-19.8z"/></g></svg>