<svg xmlns="http://www.w3.org/2000/svg" viewBox="0 0 300 199"><defs/><path fill="#63453b" d="M0 0h300v199H0z"/><g transform="translate(.6 .6) scale(1.17188)"><circle r="1" fill="#e9f3f1" fill-opacity=".4" transform="matrix(-60.97935 -227.95113 117.65321 -31.47348 106.7 76)"/><circle r="1" fill="#725d4e" fill-opacity=".7" transform="matrix(-7.0483 -19.36504 118.81155 -43.24387 186.1 56.3)"/><circle r="1" fill="#cdd6e0" fill-opacity=".7" transform="matrix(14.90911 -18.44713 40.98864 33.12733 200 125.3)"/><ellipse cx="48" cy="36" fill="#cecbc6" fill-opacity=".5" rx="105" ry="38"/><path fill="#a9a7aa" fill-opacity=".9" d="M123 60L34-16 258 0z"/><circle r="1" fill="#131300" fill-opacity=".5" transform="matrix(54.14595 8.09087 -1.50952 10.10202 19.7 85.9)"/><circle r="1" fill="#573d2e" fill-opacity=".5" transform="matrix(68.22563 1.44003 -.29043 13.76 24.1 157.2)"/><ellipse cx="139" cy="156" fill="#774632" fill-opacity=".5" rx="30" ry="55"/><path fill="#381a09" fill-opacity=".5" d="M159 44l32-12 35 71z"/><path fill="#051601" fill-opacity=".5" d="M55 106L35 90l6 47z"/><path fill="#b9a997" fill-opacity=".9" d="M181.5 72.8L71.4 102.2l20.7-11.7L182.9 57z"/><path fill="#f6fdf5" fill-opacity=".4" d="M207.3 64.9l-4.2-9L264.7 27l4.2 9z"/><path fill="#c9cac9" fill-opacity=".9" d="M16.7 91.1l10.3-.5-.3 23.3-42.7 2.8z"/><path fill="#543e34" d="M200.6 28.2l22-11.1-4.3 28.3-110.7 23.7z"/><circle r="1" fill="#61493e" fill-opacity=".7" transform="matrix(2.20315 20.05348 -9.28659 1.02026 69.1 99.5)"/><path fill="#332520" fill-opacity=".6" d="M224 54l40 117 7-133z"/><path fill="#c4c7cd" d="M166 95.6l34.2-11.9 36.1 61.1-70.5 4.7z"/><path fill="#f0f6f0" fill-opacity=".5" d="M78 96h15v32H78z"/><path fill="#4a2f19" fill-opacity=".5" d="M117.4 30l-3-2.4-14.3 15 13.3 9.2z"/><circle r="1" fill="#0d0807" fill-opacity=".6" transform="matrix(-1.16896 -2.75667 69.34607 -29.40606 234.4 16.6)"/><ellipse cx="140" cy="103" fill="#d1c3ae" fill-opacity=".7" rx="5" ry="20"/><path fill="#c8bfb1" fill-opacity=".6" d="M203 50l31 60-9-66z"/><path fill="#685448" d="M19.4 174.1l67.2-15.7-96.8-12.9 38.1-10.9z"/><ellipse cx="157" cy="92" fill="#ddd2d7" fill-opacity=".5" rx="12" ry="14"/><path fill="#421f13" fill-opacity=".4" d="M122 60l61-4L81 91z"/><path fill="#dfeeef" fill-opacity=".5" d="M22.1 119.7l-.3 17-24-.4.4-17z"/><ellipse cx="246" cy="166" fill="#63463f" fill-opacity=".7" rx="27" ry="7"/><path fill="#160000" fill-opacity=".5" d="M238 111l-1 21-7-19z"/><path fill="#6b5244" fill-opacity=".7" d="M146 111h19v24h-19z"/><ellipse cx="59" cy="68" fill="#bfbcb4" fill-opacity=".6" rx="38" ry="14"/><path fill="#462a14" fill-opacity=".4" d="M26.1 146.4l-4.4-12.6 14.8-76.4-9.7 84.6z"/><path fill="#dcdfde" fill-opacity=".5" d="M28 135h23v12H28z"/><path fill="#bea692" fill-opacity=".9" d="M191.1 80.7l22.6 12-42-8.9-2.6-16.3z"/><path fill="#412d28" fill-opacity=".7" d="M89.8 76l9.2 4.7-51.4 4.7 29.7 4.1z"/><path fill="#4c1f16" fill-opacity=".5" d="M167 148h7v22h-7z"/><path fill="#f3daa7" fill-opacity=".5" d="M28 78L-9 48l60 13z"/><path fill="#9e9a99" fill-opacity=".6" d="M67.3 96.9l-3.1 12.6-17.5-4.4 3.1-12.6z"/><path fill="#cbd2da" fill-opacity=".7" d="M71 165h22v5H71z"/><path fill="#e8decb" fill-opacity=".6" d="M110 82h5v44h-5z"/><path fill="#aea59b" fill-opacity=".8" d="M212.3 62.4l-13.8-8-16.9 3.9 67.9-24.9z"/><circle r="1" fill="#4a3734" fill-opacity=".5" transform="rotate(-173.7 53.4 80) scale(78.86789 1.35215)"/><circle r="1" fill="#1b0c04" fill-opacity=".4" transform="matrix(.34523 .93852 -146.8478 54.01665 214.8 43.7)"/><path fill="#946357" fill-opacity=".7" d="M185 168.4l-5.6-4.2 13.5-18.6 5.7 4.2z"/><path fill="#dbab97" fill-opacity=".6" d="M202.9 188l-20.3-10.7 14.5-27.4 20.3 10.8z"/><path fill="#e5ccc9" fill-opacity=".3" d="M108 143.2l-37-25.3L46.7 185l23.5-42.7z"/><path fill="#170d07" fill-opacity=".4" d="M-12.7 81.4l79.1 3.9L-16 69.7l37.4 25.6z"/><path fill="#644b3f" d="M235.5 66.7l-8.2-5 7.8 39.6 11.9 11.1z"/><ellipse cx="39" cy="152" fill="#736659" rx="2" ry="44"/><path fill="#37150c" fill-opacity=".5" d="M27 118.6l-.2 2L1 117.4l.2-2z"/><path fill="#523327" fill-opacity=".7" d="M79.9 163.5l-19.5.6 12.3-22.3 5.6 18.1z"/><path fill="#090000" fill-opacity=".2" d="M218 42l50-16-8-42z"/><circle r="1" fill="#c4c0b9" fill-opacity=".7" transform="rotate(172.8 67.8 65.1) scale(75.85949 1)"/><circle r="1" fill="#0d0e08" fill-opacity=".5" transform="matrix(-3.55984 .787 -1.64201 -7.42739 147.8 109)"/><path fill="#c9d1c7" fill-opacity=".5" d="M34 112.9l5 .6-5 41.6-5-.6z"/><path fill="#661c00" fill-opacity=".3" d="M116.9 88.4l-1 32.5L131.6 79l6.1 25.3z"/><path fill="#a7837a" fill-opacity=".4" d="M80 129h51v32H80z"/><path fill="#3a2210" fill-opacity=".5" d="M63 104h15v11H63z"/><path fill="#32241f" fill-opacity=".7" d="M127.6 64.6L81.2 83.3l-.8-1.9 46.4-18.7z"/><path fill="#482910" fill-opacity=".5" d="M183 70h29v9h-29z"/><ellipse cx="141" cy="169" fill="#6d483c" fill-opacity=".4" rx="11" ry="47"/><path fill="#cfd0d5" fill-opacity=".4" d="M40 168h76v2H40z"/><path fill="#3d392d" fill-opacity=".5" d="M42 102h13v19H42z"/><path fill="#c8baa4" fill-opacity=".8" d="M133.3 76.9l-52.6 24.4 62.7-22-7.2 27.4z"/><path fill="#a0827e" fill-opacity=".4" d="M257 109.9l-13.8-48.1 5.8-1.7 13.8 48.1z"/><path fill="#030000" fill-opacity=".4" d="M267.2 45.6l2.5 7.6-41 13.2-2.4-7.6z"/></g></svg>