<svg xmlns="http://www.w3.org/2000/svg" viewBox="0 0 300 199"><defs/><path fill="#2d4157" d="M0 0h300v199H0z"/><g transform="translate(.6 .6) scale(1.17188)"><circle r="1" fill="#fefde7" fill-opacity=".6" transform="matrix(-13.65753 97.17836 -30.02273 -4.21942 131.3 128.3)"/><circle r="1" fill="#979186" fill-opacity=".7" transform="rotate(-4.7 1756 -846.4) scale(37.07055 64.90336)"/><ellipse cx="88" fill="#f3f3d8" fill-opacity=".6" rx="28" ry="40"/><circle r="1" fill="#030000" fill-opacity=".9" transform="rotate(10.1 -536.4 109.2) scale(33.42145 235.49566)"/><circle r="1" fill="#070504" fill-opacity=".8" transform="matrix(-45.1596 -7.46642 33.02138 -199.72503 229.5 90.5)"/><path fill="#d2d4c6" fill-opacity=".7" d="M168 40l3-53-80 113z"/><path fill="#0c0601" fill-opacity=".6" d="M166.5-12.5l-44 70.4-50 48.6 41.8-96.7z"/><path fill="#c4eeff" fill-opacity=".7" d="M40 157h71v13H40z"/><ellipse cx="153" cy="110" fill="#84908f" rx="11" ry="98"/><circle r="1" fill="#0e1010" transform="rotate(-108.5 44.4 6.7) scale(31.59125 22.81794)"/><ellipse cx="124" cy="102" fill="#fffce8" fill-opacity=".5" rx="18" ry="46"/><circle r="1" fill="#e4ecd3" fill-opacity=".5" transform="matrix(-3.08225 .65064 -4.1758 -19.7819 45.4 77.3)"/><path fill="#fffef8" fill-opacity=".8" d="M95.3-8.6l50.5-6.5-11 2.1-40 45.5z"/><path fill="#1a1102" fill-opacity=".4" d="M79.1 136.3l-62.4 27.3 102.4-14.9-18.2-14.3z"/><path fill="#cbf2ff" fill-opacity=".5" d="M105 136l56 30v-33z"/><circle r="1" fill="#717d76" fill-opacity=".8" transform="matrix(11.16694 39.73585 -14.54818 4.08846 77.3 15.3)"/><path fill="#614f3d" fill-opacity=".4" d="M116.3 128.8l-35.1 8.1-11.5-49.7 35.1-8.1z"/><path fill="#f3f6df" fill-opacity=".5" d="M42 67h4v94h-4z"/><circle r="1" fill="#19232c" fill-opacity=".5" transform="matrix(.90778 -66.4132 20.63813 .2821 181.6 86.9)"/><ellipse cx="164" cy="13" fill="#f8fdf8" fill-opacity=".9" rx="4" ry="27"/><path fill="#030302" fill-opacity=".8" d="M0 0h40v162H0z"/><path fill="#adcbeb" fill-opacity=".5" d="M164.8 146.5L40.3 157.4 26.1 185H28z"/><path fill="#090300" fill-opacity=".5" d="M79 68l39-29-17 56z"/><path fill="#181511" fill-opacity=".3" d="M164.2 61.1l-3.3 72.1-19.2.9 10.4-21.7z"/><path fill-opacity=".5" d="M45.1-20.6l36.2 81.4L55 72.6 18.7-8.8z"/><ellipse cx="86" cy="9" fill="#283435" fill-opacity=".6" rx="3" ry="49"/><path fill="#fff" fill-opacity=".5" d="M95 41l16-27-15 4z"/><circle r="1" fill="#192531" fill-opacity=".5" transform="rotate(-38.6 127.3 -287.6) scale(27.8311 53.16201)"/><path fill="#000107" fill-opacity=".2" d="M136.7 142l-10.6 5.8-80.3 6.2L87 142z"/><path fill="#8997b4" fill-opacity=".6" d="M164.9 152.8l3 28.8-34.8 3.6-3-28.8z"/><path fill="#050704" fill-opacity=".5" d="M33 70h10v51H33z"/><path fill="#d9f3ff" fill-opacity=".6" d="M110 134h52v9h-52z"/><path fill="#fdf5e7" fill-opacity=".3" d="M112.6 63.8l30.6 9.4-13.8 45-30.6-9.4z"/><path fill="#070807" d="M56.7 86.6l6.1-4.8 9-7-53.3-58.5z"/><path fill="#9ea79b" fill-opacity=".6" d="M40 55l10 74 10-27z"/><ellipse cx="63" cy="2" fill="#a1afa9" fill-opacity=".6" rx="6" ry="13"/><path fill="#859089" fill-opacity=".9" d="M84.9 64L66.5 27.3l-6-43.3L79.1 2.1z"/><ellipse cx="153" cy="49" fill="#8b9285" fill-opacity=".7" rx="11" ry="34"/><path fill="#6d6f62" fill-opacity=".5" d="M69 96h38v47H69z"/><ellipse cx="137" cy="71" fill="#deddcb" fill-opacity=".9" rx="5" ry="36"/><path fill="#0e1417" fill-opacity=".6" d="M166.7 36.7l8-7.3 2.3 26.5-11.8-3.8z"/><path fill="#0d1316" fill-opacity=".5" d="M173-16L85 50l25 19z"/><circle r="1" fill="#070504" fill-opacity=".5" transform="rotate(21.8 -171.4 719.3) scale(36.25372 88.65163)"/><path fill="#f1fdfb" fill-opacity=".5" d="M159 45l9-41 2 23z"/><path fill="#243643" fill-opacity=".7" d="M110.6 16.3L94.3 55.9l28.1-31.1L141.6-16z"/><ellipse cx="77" cy="92" fill="#fa1b1a" fill-opacity=".1" rx="23" ry="12"/><path fill="#31464a" fill-opacity=".5" d="M102.6 115l13.8 2.1-1 6-13.8-2.2z"/><ellipse cx="125" cy="169" fill="#8b9cb7" fill-opacity=".5" rx="34" ry="12"/><path fill="#1c2523" fill-opacity=".3" d="M58.8 29.2l44.1 98L88.3 69l.7-4.8z"/><path fill="#f6e8ca" fill-opacity=".5" d="M41 120h4v39h-4z"/><path fill="#83988f" fill-opacity=".5" d="M110 131L83 92l2 31z"/><path fill="#334756" fill-opacity=".5" d="M189 41l-20 49-21-1z"/><ellipse cx="164" cy="165" fill="#577995" fill-opacity=".5" rx="3" ry="54"/><path fill="#edbebb" fill-opacity=".5" d="M59.3 106L82 83.3l.7.7L60 106.7z"/><path fill="#4d4433" fill-opacity=".2" d="M67.2 161.4l-20.8-15.1 19.4-13.8 58.3 10.3z"/><path fill="#050505" fill-opacity=".6" d="M20 64h21v77H20z"/><path fill="#fff" fill-opacity=".5" d="M101 2l-5 33 9-5z"/><path fill="#cdedfb" fill-opacity=".3" d="M-4.1 175l37.3-8.8 45-10 8.3 22.2z"/><path fill="#e8eeee" fill-opacity=".6" d="M162.2 41.1l-1 23.3 4.1-27.6-1.6-49.7z"/><path fill="#80826f" fill-opacity=".4" d="M140 94l21 27-4-89z"/><path fill="#869490" fill-opacity=".6" d="M88 0h5v48h-5z"/><path fill="#722b00" fill-opacity=".1" d="M158.1 132.8l3.6-17-50.8 15 40.9 5.7z"/><path fill="#ffa7a4" fill-opacity=".2" d="M55.8 103.2l15.9-31.3 17.6 13.5L72 86z"/><path fill="#aa808d" fill-opacity=".5" d="M250 30h6v4h-6z"/><circle r="1" fill="#060604" fill-opacity=".5" transform="rotate(-64.1 34.4 -31) scale(6.64638 21.25286)"/></g></svg>