<svg xmlns="http://www.w3.org/2000/svg" viewBox="0 0 300 199"><defs/><path fill="#533a27" d="M0 0h300v199H0z"/><g transform="translate(.6 .6) scale(1.17188)"><circle r="1" fill="#d8c4bf" fill-opacity=".6" transform="matrix(26.1229 -167.40292 69.65434 10.86942 120.4 47.2)"/><ellipse cx="133" cy="137" fill="#010400" fill-opacity=".8" rx="13" ry="27"/><circle r="1" fill="#c3e4ff" fill-opacity=".4" transform="rotate(62.9 -48.2 78.6) scale(52.48398 15.70519)"/><ellipse cx="87" cy="148" fill="#000007" fill-opacity=".7" rx="8" ry="29"/><circle r="1" fill="#001125" fill-opacity=".7" transform="matrix(12.4207 -45.99969 23.59653 6.37146 23.4 145.9)"/><circle r="1" fill="#d8d8e0" fill-opacity=".5" transform="rotate(-96.3 109.5 -26) scale(43.51236 20.28193)"/><ellipse cx="110" cy="151" fill="#c4c3c2" fill-opacity=".8" rx="12" ry="48"/><circle cx="180" cy="25" r="36" fill="#896c47" fill-opacity=".7"/><circle r="1" fill="#612817" fill-opacity=".6" transform="rotate(148.8 51.1 25.2) scale(27.09437 11.44106)"/><path fill="#efffff" fill-opacity=".4" d="M56 185l26-25L47 60z"/><circle r="1" fill="#00193b" fill-opacity=".6" transform="rotate(-140.9 18 3.5) scale(34.34801 18.2467)"/><path fill="#231200" fill-opacity=".7" d="M278.7 133.7L248 191.1l-46.8-24.8 30.6-57.4z"/><ellipse cx="86" cy="132" fill-opacity=".6" rx="16" ry="8"/><path fill="#001115" fill-opacity=".5" d="M147.3 154.7l-26.4-58.4-7.2 34.4 42.5-24.2z"/><path fill="#d7dbdd" fill-opacity=".5" d="M181 138l-31-57 7 73z"/><circle r="1" fill="#44697d" fill-opacity=".4" transform="matrix(-13.72756 4.6525 -29.1438 -85.99113 12.3 47.2)"/><path fill="#291900" fill-opacity=".3" d="M241.9 91.8l-71-3.7 3.2-60 71 3.8z"/><path fill="#cebfa1" fill-opacity=".5" d="M155 39l12-38 52 21z"/><path fill="#cdfaff" fill-opacity=".6" d="M131.6 22.7l13.2-46.1 9.6 2.7-13.2 46.1z"/><ellipse cx="77" cy="54" fill="#dc8b73" fill-opacity=".4" rx="53" ry="19"/><path fill="#eff8ff" fill-opacity=".4" d="M68 111l-14 14 60-5z"/><path fill="#9b7651" fill-opacity=".5" d="M220 110l-65 65 18-71z"/><path fill="#d8a081" fill-opacity=".7" d="M88.9-16l32.8 20-56.4 28.9L45.2-16z"/><circle r="1" fill="#cb9d5e" fill-opacity=".5" transform="rotate(-134.2 144.1 -5.7) scale(15.89673 4.63369)"/><path fill="#7e4f45" fill-opacity=".7" d="M106 102.6l10.5-11.9-31.1-.5-.3 29.9z"/><circle r="1" fill="#090505" fill-opacity=".7" transform="matrix(-17.99235 26.5468 -22.40826 -15.18741 0 144.8)"/><path fill="#00091d" fill-opacity=".5" d="M80 142l3-23-19 22z"/><path fill="#ffd8c2" fill-opacity=".4" d="M108.4 32.3L121 20.7l30.7 33L139 65.3z"/><circle r="1" fill="#160700" fill-opacity=".4" transform="matrix(10.94437 26.16336 -9.71373 4.06334 43.7 22.8)"/><path fill="#0f0d06" fill-opacity=".5" d="M133.6 185l-17.7-85.9 38.9 31.1-33.7 27.3z"/><circle r="1" fill="#615949" fill-opacity=".7" transform="matrix(33.12181 -.97366 .89884 30.57662 0 85.3)"/><path fill="#a07953" fill-opacity=".5" d="M124 87l56-25 18-47z"/><path fill="#06050c" fill-opacity=".6" d="M79 159h18v11H79z"/><path fill="#cfc8c8" fill-opacity=".8" d="M91.7 146.5l28.7-7.6-10.1 46.1-16.6-29z"/><path fill="#dad6da" fill-opacity=".4" d="M139.7 117.1l4-106.2-21.5 81.6 3.4 11.3z"/><circle r="1" fill="#080500" fill-opacity=".5" transform="matrix(-10.49733 -1.36336 3.28412 -25.28635 235.2 46.4)"/><circle r="1" fill="#c9bbce" fill-opacity=".5" transform="matrix(-6.87904 2.19892 -6.39743 -20.01358 68 69.5)"/><path fill="#5f676e" fill-opacity=".7" d="M123 170l26-33 9 12z"/><ellipse cx="184" cy="131" fill="#4c331f" fill-opacity=".6" rx="6" ry="77"/><path fill="#d4e0ef" fill-opacity=".6" d="M83.8 120l-36-25.9-2.5 8.4L62.6 140z"/><path fill="#002953" fill-opacity=".5" d="M31 129l25 56-11-93z"/><path fill="#b38a62" fill-opacity=".3" d="M212.9 109.2l-17.2-8.2 28.6 49.9 10.2-12z"/><circle r="1" fill="#643404" fill-opacity=".4" transform="matrix(8.9577 -20.81945 6.67711 2.87287 154.9 11.2)"/><path fill="#355671" d="M4.4 8.6l11.2 37.9L27 51.3 1.9-16z"/><circle r="1" fill="#1a0300" fill-opacity=".5" transform="matrix(-2.44103 -8.03436 3.41113 -1.03638 127.7 17.9)"/><path fill="#882205" fill-opacity=".3" d="M135.2 28.5l-16.4 88.8.7-36.9-10.8-3.2z"/><path fill="#201100" fill-opacity=".5" d="M197 11l-20-9 19-18z"/><path fill="#2b3b42" fill-opacity=".5" d="M155.1 123.2l3.1 1-17.2-23 1 10z"/><path fill="#7d5231" d="M132.8 182.3l26.4-26.6 37 29.3-63.2-10.3z"/><path fill="#558bae" fill-opacity=".5" d="M47 80l-8 38-14-68z"/><path fill="#e0e6e7" fill-opacity=".4" d="M112 136l-23-17 14-13z"/><path fill="#411713" fill-opacity=".5" d="M97 15h13v23H97z"/><path fill="#22150b" fill-opacity=".5" d="M187.4 157l1.6 10.3 30.4-29-15.5-16.3z"/><path fill="#7a5e41" fill-opacity=".4" d="M193.4 66.2L229-16l-16.2 86.8-54.2 33.8z"/><circle r="1" fill="#d4ddf9" fill-opacity=".6" transform="matrix(3.91202 -1.63821 6.9965 16.70748 149.6 100.2)"/><path fill="#ab6e6b" fill-opacity=".6" d="M54.1 47.9l-27.6-12-3 6.7L60 81.9z"/><path fill="#cec9cc" fill-opacity=".5" d="M74.1 183.2l9.4-37.9-28.4-10.5 1.7 41.8z"/><circle r="1" fill="#cdd9dd" fill-opacity=".6" transform="matrix(-4.96841 -53.98538 1.92353 -.17703 134.3 0)"/><path fill="#96979a" fill-opacity=".5" d="M188 110.8l14.1-5 4 11.4-14.2 5z"/><path fill="#4f4840" fill-opacity=".5" d="M175 34l4-13 39 18z"/><path fill="#261801" fill-opacity=".9" d="M251.1-30.8l25 53.5-17.2 8-25-53.4z"/><path fill="#bb7769" fill-opacity=".4" d="M53.2 96.7L126.8 69l-42.9 50.8-32.6-23.4z"/><ellipse cx="43" cy="76" fill="#002242" fill-opacity=".6" rx="3" ry="7"/><circle r="1" fill="#130700" fill-opacity=".6" transform="rotate(150.1 101 95.8) scale(8.43249 26.55508)"/><path fill="#1a273a" d="M23.1 44.9l3.7 3.6L16 41.7l15.4-48z"/></g></svg>