<svg xmlns="http://www.w3.org/2000/svg" viewBox="0 0 300 199"><defs/><path fill="#2e3c4a" d="M0 0h300v199H0z"/><g transform="translate(.6 .6) scale(1.17188)"><circle r="1" fill="#fef4ee" fill-opacity=".6" transform="matrix(-5.9861 74.36874 -45.66184 -3.67542 150 163.9)"/><circle r="1" fill="#eafbfa" fill-opacity=".5" transform="matrix(-23.45115 26.54277 -22.88396 -20.2185 69 96.4)"/><ellipse cx="154" cy="108" fill="#c4bfbc" fill-opacity=".9" rx="17" ry="47"/><ellipse cx="91" cy="11" fill="#a0c5de" fill-opacity=".4" rx="58" ry="32"/><circle r="1" fill="#b2b6b7" fill-opacity=".4" transform="rotate(116.6 95 90.3) scale(54.37699 25.12386)"/><path fill="#dff4ff" fill-opacity=".4" d="M39 78l3 51 76-51z"/><path fill="#c7cbd0" fill-opacity=".7" d="M169 90l-49 39 99 56z"/><path fill="#080000" fill-opacity=".4" d="M135.2 155.7l16.5-4.8L85 107.3l1.6 36.4z"/><circle r="1" fill-opacity=".5" transform="matrix(17.6645 -113.44343 12.38864 1.92906 12 56.7)"/><circle r="1" fill="#161110" fill-opacity=".6" transform="rotate(132.6 83 122.6) scale(20.32905 65.54609)"/><circle r="1" fill-opacity=".6" transform="matrix(69.87308 9.61903 -.55958 4.06478 83.9 14.1)"/><path fill="#110d00" fill-opacity=".5" d="M142 102l-14-62-39 79z"/><path fill="#4e5a60" fill-opacity=".8" d="M113 77l-65 1-12-57z"/><path fill="#d6e7f0" fill-opacity=".5" d="M228 46.3l-2 36-12-.6 2-36z"/><ellipse cx="254" cy="82" fill="#413027" fill-opacity=".9" rx="28" ry="45"/><path fill="#000102" fill-opacity=".7" d="M-15 181l66 4 21-53z"/><circle r="1" fill="#8cb1d2" fill-opacity=".6" transform="rotate(-81.2 57.3 -58.9) scale(7.30723 43.74093)"/><path fill-opacity=".6" d="M182 112l-22-51 11-45z"/><path fill="#bdcacc" fill-opacity=".4" d="M112.2 43.7l4.2 68.3-16.5-41.8-3.1 27.9z"/><circle r="1" fill="#9bbfdc" fill-opacity=".5" transform="matrix(-38.10953 -5.06989 .64388 -4.83998 60.6 20)"/><ellipse cx="31" cy="66" fill="#11181a" fill-opacity=".7" rx="7" ry="53"/><ellipse cx="20" cy="98" fill="#ceeaff" fill-opacity=".5" rx="3" ry="22"/><path fill="#c8d9e9" fill-opacity=".6" d="M32 38l17-6 20 5z"/><path fill="#d3d1d2" fill-opacity=".2" d="M271 44.4l-45.8 4.3L195.9-16l22.9 82.5z"/><circle r="1" fill-opacity=".5" transform="matrix(-.3539 2.80137 -19.62814 -2.47961 54 30.8)"/><path fill-opacity=".6" d="M167.8 10L105-2.1l1.2-5.9L169 4.2z"/><path fill="#6d7b6b" fill-opacity=".7" d="M53.3 115l24.4-5.5 5 21.4-24.4 5.6z"/><path fill="#010000" fill-opacity=".5" d="M112.8 59l28 65.4-13.4-81.8-17-9.1z"/><path fill="#837b75" fill-opacity=".7" d="M108 126.6l32.8-7.3L133 8.6l14.8 92.1z"/><path fill="#afaeac" fill-opacity=".4" d="M127.7 83l1.9 34-2.2 18.2-34.1 48.5z"/><ellipse cx="78" cy="81" fill="#7b8a93" fill-opacity=".6" rx="7" ry="49"/><ellipse cx="93" cy="142" fill="#0c1213" fill-opacity=".7" rx="8" ry="34"/><path fill-opacity=".5" d="M228 50h11v39h-11z"/><circle r="1" fill="#000205" fill-opacity=".5" transform="matrix(-1.8295 .37222 -10.564 -51.92374 191.6 65.1)"/><path fill="#798777" fill-opacity=".6" d="M52 123l-15 30 3-49z"/><ellipse cx="12" cy="122" fill="#0a0f10" fill-opacity=".8" rx="5" ry="164"/><path fill="#dbeaf7" fill-opacity=".6" d="M38 46h26v4H38z"/><path fill="#301000" fill-opacity=".5" d="M220.6 38.1L271 13.4l-31.5 7.9h-15z"/><path fill="#36474e" fill-opacity=".5" d="M206.7 93.1L184 13.3 199.3 9 222 88.7z"/><path fill="#230f05" fill-opacity=".3" d="M162.9 142.2l-35.8.8-14.2-17.3 2.8 30.8z"/><path fill="#a0dcff" fill-opacity=".2" d="M180.4 40.8l12.7-13.2-2.1 65.8v12.4z"/><path fill="#b3aca2" fill-opacity=".4" d="M231 87l4 42-13-32z"/><path fill="#e4ebed" fill-opacity=".6" d="M71 6L-11-8l62-8z"/><path fill="#0f1a20" fill-opacity=".5" d="M70.4 79L6.1 47.7l102.4 6.8L-16 78.9z"/><path fill="#0d1211" fill-opacity=".7" d="M188.9 6.7l.5 29.5-24.5 1.9-16.6-1.5z"/><circle r="1" fill="#030201" fill-opacity=".7" transform="matrix(-9.85816 -24.3998 6.4711 -2.6145 246.2 139.3)"/><path fill="#84add4" fill-opacity=".4" d="M253-16l-51 45 39-11z"/><ellipse cx="57" cy="43" fill="#000508" fill-opacity=".4" rx="51" ry="4"/><circle cx="55" cy="96" r="17" fill="#d5e8ff" fill-opacity=".4"/><path fill="#111c26" fill-opacity=".7" d="M170.4 12l-46.8-9.9-11.4 19.6L127.3-16z"/><path fill="#86aed2" fill-opacity=".7" d="M81.9 24.6l1-5.9 49.2 8.7-1 5.9z"/><path fill="#060300" fill-opacity=".8" d="M46.6 147.6l1.8-20 9 .8-1.8 20z"/><circle cx="128" cy="131" r="11" fill="#f1dbdb" fill-opacity=".4"/><path fill="#bbdbf3" fill-opacity=".3" d="M242 144.3l-10.2-.5-2.7-2.5 6.3-10z"/><path fill="#090a0c" fill-opacity=".7" d="M252.8 70.5l-39.9 33.9 10.3-18.9 47.8-1.9z"/><path fill="#010405" fill-opacity=".3" d="M124 106l-28-4-7 68z"/><path fill="#b2b2c5" fill-opacity=".4" d="M223 47l24-20 19 5z"/><path fill="#60717c" fill-opacity=".8" d="M72.5 87.8L71 6.6l13.3 40.8-1.2 10.5z"/><path fill="#1b2120" fill-opacity=".5" d="M228.1-16L195-6.7l49.7 37.4-19.7-2.1z"/><path fill="#fdfbd7" fill-opacity=".5" d="M244.2 45.2l6.3 7.8-4.7 3.8-6.3-7.8z"/><circle r="1" fill="#caad95" fill-opacity=".4" transform="matrix(-11.45528 -4.69129 8.19773 -20.01739 149.7 80.4)"/><path fill="#597794" fill-opacity=".5" d="M23 151l18 5 5-22z"/><path fill="#cff2fe" fill-opacity=".3" d="M194 57.8l1.4-3.5 12.4 62.2-11.1-37.7z"/><path fill="#b4d9f9" fill-opacity=".3" d="M147.9 18.6l11.3-11.5-37.3-1.7 12.8 11.4z"/><path fill="#b6c1c5" fill-opacity=".4" d="M102.3 86.9l13.2 2.3-9.1-19.4L95.6 67z"/></g></svg>