<svg xmlns="http://www.w3.org/2000/svg" viewBox="0 0 299 449"><defs/><path fill="#413738" d="M0 0h299v449H0z"/><g transform="translate(.9 .9) scale(1.7539)"><circle r="1" fill="#fff0e5" fill-opacity=".7" transform="rotate(106.8 27.8 100.2) scale(156.08762 97.61125)"/><circle r="1" fill="#483c37" fill-opacity=".6" transform="rotate(130 5.8 51.1) scale(72.13937 36.18377)"/><circle r="1" fill="#281810" fill-opacity=".9" transform="rotate(125.7 37 137.3) scale(11.34891 27.40894)"/><circle r="1" fill="#f2e9e2" fill-opacity=".6" transform="matrix(-32.88965 -16.45644 74.9412 -149.77659 140.5 76.2)"/><circle r="1" fill="#dfdbe2" fill-opacity=".6" transform="matrix(-116.8584 -82.43454 8.32452 -11.80077 149.1 221)"/><circle r="1" fill="#f7b98e" fill-opacity=".8" transform="matrix(8.38535 17.6595 -20.89245 9.92046 0 4)"/><path fill="#0e0c14" fill-opacity=".5" d="M29 271l146-16-70-18z"/><path fill="#e5dcd3" fill-opacity=".5" d="M60 74L92-6 57 8z"/><circle r="1" fill="#010000" fill-opacity=".8" transform="matrix(14.82707 -10.35918 21.1948 30.33608 8 234.9)"/><circle r="1" fill="#948186" fill-opacity=".5" transform="matrix(37.37778 93.9262 -14.16638 5.63749 49 215)"/><circle r="1" fill="#511700" fill-opacity=".3" transform="matrix(-33.13684 8.11823 -5.13893 -20.97597 78.8 88.7)"/><path fill="#fed382" fill-opacity=".7" d="M-14.1 47.4L9.5 56 6.2 75.1-9.9 87.5z"/><path fill="#e1d3c1" d="M67 5l119 81-19-102z"/><circle r="1" fill="#b07457" fill-opacity=".5" transform="matrix(-32.60084 29.14852 -5.77377 -6.45761 129.7 219)"/><path fill="#dddfec" fill-opacity=".5" d="M141 185l-68 69-20-136z"/><path fill="#9c96a5" fill-opacity=".6" d="M107 236h60v13h-60z"/><path fill="#ffe4e7" fill-opacity=".7" d="M67.7 53.3L70.2 71l-11.9 1.6L55.8 55z"/><circle r="1" fill="#796955" fill-opacity=".5" transform="matrix(4.18183 -8.61088 49.17153 23.8799 66 24.1)"/><path fill="#b89a78" fill-opacity=".5" d="M140 113h25v61h-25z"/><path fill="#09151d" fill-opacity=".3" d="M29.2 99.8l14.4-37.3 25.2 9.7-14.4 37.3z"/><path fill="#fce5e7" fill-opacity=".7" d="M60.6 46l10.6 1.8 2.3-11.2-14-6.5z"/><circle r="1" fill="#f2fcff" fill-opacity=".7" transform="rotate(99.1 -15.3 181.1) scale(9.33167 19.72826)"/><circle r="1" fill="#f28e5b" fill-opacity=".3" transform="matrix(12.16355 29.12796 -15.4133 6.43644 74.7 117.5)"/><path fill="#c77a61" fill-opacity=".4" d="M135 207l51 8-64-59z"/><path fill="#a2a4b0" fill-opacity=".4" d="M75.5 209.6l49.1 19.4-32.4-67.1-20.7 15.3z"/><path fill-opacity=".8" d="M40 9l28-5-41-20z"/><path fill-opacity=".5" d="M155 182l24-29 7 70z"/><path fill="#b1653e" fill-opacity=".6" d="M21 32.5L-17 42l-4-16.5L16.8 16z"/><path fill="#050101" fill-opacity=".7" d="M-2.8 222L-5.2 80h8l2.4 142z"/><path fill="#1a1c21" fill-opacity=".4" d="M104.7 270.7l-.1-45.6 18.4 3.8-53.4 22.7z"/><path fill="#f0f3fd" fill-opacity=".5" d="M114 31l31 127-36-24z"/><path fill="#b1acb6" fill-opacity=".4" d="M23 169l22-80 1 133z"/><path fill="#4d4a47" fill-opacity=".7" d="M54.1 51.4l-23.9 88.3L40.7 30.6l44.7 31.5z"/><circle r="1" fill="#fbfbff" fill-opacity=".5" transform="matrix(-12.88164 1.09222 -1.95744 -23.08599 61.4 154.6)"/><path fill="#f8e6de" fill-opacity=".5" d="M112.4 129.6L86.8 61.8l7.4 49.2-24.6 13z"/><path fill="#261816" fill-opacity=".3" d="M44.9 97.7l.5 32.6 30.5-43.8 5.5-32.4z"/><path fill="#291a17" fill-opacity=".5" d="M24 125L9 39l25-25z"/><path fill="#ffbe95" fill-opacity=".7" d="M37 14L23-12l9-4z"/><circle r="1" fill="#436d89" fill-opacity=".4" transform="matrix(3.1413 -4.4366 10.35342 7.33063 137.6 174)"/><path fill="#d39479" d="M144 196l-13 3.9 29.6 13.2.7-27.9z"/><path fill-opacity=".3" d="M90 247h81v9H90z"/><path fill="#8d8e88" fill-opacity=".6" d="M54 21l27-8 29 20z"/><circle r="1" fill="#897a7b" fill-opacity=".5" transform="rotate(-124.7 86 97.4) scale(48.99657 6.74957)"/><ellipse cx="103" cy="74" fill="#d98555" fill-opacity=".4" rx="9" ry="26"/><path fill="#28292b" fill-opacity=".5" d="M40.5 264.8l-7-23 22-6.6 7 23z"/><circle cx="84" cy="226" r="15" fill="#e3e9f2" fill-opacity=".6"/><circle r="1" fill="#493d2c" fill-opacity=".4" transform="matrix(17.87123 4.68843 -2.04182 7.78296 93.5 42.8)"/><path fill="#812a00" fill-opacity=".4" d="M13.5 14.4l2.8 25.7 20.5-26.8L26.7-2.3z"/><circle r="1" fill="#a47e6c" fill-opacity=".5" transform="matrix(16.12024 -17.72878 7.92352 7.20461 70.8 107.8)"/><ellipse cx="10" cy="130" fill="#554442" fill-opacity=".6" rx="9" ry="45"/><path fill="#b5bdcd" fill-opacity=".4" d="M119.3 172.8l.4-28 25 .4-.4 28z"/><path fill="#301204" fill-opacity=".7" d="M-16 35.9l48.2 1L4.1 51.5-16 65.2z"/><path fill="#ffd282" fill-opacity=".4" d="M16 58l-20-4 14-2z"/><path fill="#736568" fill-opacity=".7" d="M110.6 271l-5.7-43.8-19.1 20.5 33.5-2.1z"/><path fill="#ffdbdc" fill-opacity=".5" d="M53 55l15 4-7 14z"/><circle r="1" fill="#ecddc8" fill-opacity=".6" transform="matrix(-19.35262 -31.74541 21.82176 -13.30297 154 80.9)"/><path fill="#f8ffff" fill-opacity=".5" d="M117 178l2-20-65-21z"/><path fill="#8f8a93" fill-opacity=".5" d="M58 115.2l-3.7 13.7-28-2.5-1.2 37.9z"/><path fill="#e1e4ec" fill-opacity=".6" d="M121.6 220l-13.9-64.8 4.4-21.8 20.8 72.5z"/><path fill="#f0e7d9" fill-opacity=".3" d="M134.2 63.2l-.9-43.5-70.2-5.5 7.4-18.3z"/><path fill="#ece2d4" fill-opacity=".3" d="M91.9 61.9l-34.2-37L92.3 57l51.9 23.5z"/><path fill="#b3977d" fill-opacity=".5" d="M185 172l-49-63 11 59z"/><path fill="#756f66" fill-opacity=".7" d="M79.2 98.7l.2-43.4 11.2 34.3.2 18.2z"/><path fill="#aeaebb" fill-opacity=".3" d="M141.5 250.8l-59.4-17.2 90.2-4 10.2 12.8z"/><path fill="#c4bec8" fill-opacity=".6" d="M37.3 152l3.4 40.6 17-45.2-17.4-14.6z"/></g></svg>