<svg xmlns="http://www.w3.org/2000/svg" viewBox="0 0 300 199"><defs/><path fill="#5b4b3b" d="M0 0h300v199H0z"/><g transform="translate(.6 .6) scale(1.17188)"><circle r="1" fill="#d4e9ef" fill-opacity=".5" transform="matrix(43.34242 7.43092 -41.106 239.75956 15.2 87.4)"/><ellipse cx="183" cy="169" fill="#f6dedb" fill-opacity=".5" rx="53" ry="94"/><path fill="#2f200c" fill-opacity=".7" d="M16 132L134-16 15 71z"/><path fill="#f0f9f6" fill-opacity=".7" d="M180 45l-17 36-5-97z"/><circle r="1" fill="#221407" fill-opacity=".9" transform="rotate(92.9 48.8 78.3) scale(118.67968 22.57387)"/><circle r="1" fill="#d2ae94" fill-opacity=".5" transform="matrix(-21.87449 -31.12425 15.03316 -10.56548 83 79)"/><path fill="#fff" fill-opacity=".6" d="M38 161h64v9H38z"/><ellipse cy="16" fill="#faf8f5" fill-opacity=".8" rx="11" ry="132"/><circle r="1" fill="#eaffff" fill-opacity=".6" transform="matrix(-8.74043 21.03052 -14.50844 -6.0298 34.4 131)"/><circle r="1" fill="#150a00" fill-opacity=".6" transform="matrix(5.3026 45.89387 -24.44097 2.82392 197 28.5)"/><ellipse cx="222" cy="117" fill="#715643" fill-opacity=".8" rx="66" ry="18"/><ellipse cx="252" cy="12" fill="#defbfc" fill-opacity=".5" rx="8" ry="74"/><circle r="1" fill="#fff" fill-opacity=".5" transform="rotate(73.9 -9.8 210.5) scale(9.83895 45.82366)"/><path fill-opacity=".7" d="M89 140l29 45 20-81z"/><path fill="#fffffd" fill-opacity=".5" d="M140 92h8v78h-8z"/><ellipse cx="93" cy="18" fill="#1c0000" fill-opacity=".7" rx="9" ry="81"/><path fill="#d0d0bd" fill-opacity=".5" d="M-16 59h54l65-75z"/><circle r="1" fill="#2f3435" fill-opacity=".7" transform="rotate(77.5 -29.6 79) scale(13.85976 26.34468)"/><path fill="#fff" fill-opacity=".6" d="M138 160l-10-6 18-37z"/><path fill="#ffffe0" fill-opacity=".4" d="M73 109h15V61z"/><circle r="1" fill="#210c00" fill-opacity=".9" transform="matrix(-30.34775 .81327 -.77916 -29.07506 103.9 30)"/><path fill="#d2eaff" fill-opacity=".6" d="M23 116h27v46H23z"/><path fill="#230d00" fill-opacity=".8" d="M140 5h19v72h-19z"/><path fill="#575256" fill-opacity=".8" d="M155 183.4l12.3 1.6-3.3-27.8-17.1-15z"/><path fill="#ce9d7e" fill-opacity=".5" d="M146 122l99-27-92-17z"/><path fill="#ffb8a3" fill-opacity=".4" d="M92.5 49.6l8.9-1.5 8.1 46.3-8.9 1.5z"/><path fill="#1b283c" fill-opacity=".6" d="M52.9 108.5l56 2-1.8 49-56-2z"/><circle r="1" fill="#124c8c" fill-opacity=".5" transform="matrix(-4.8786 -.48888 4.38081 -43.71658 17.4 149.1)"/><path fill="#ebbe98" fill-opacity=".6" d="M50.5 70.3l29.7-25.7-7.9 5.5L90 74.7z"/><ellipse cx="197" cy="143" fill="#4e5361" fill-opacity=".6" rx="29" ry="7"/><path fill="#f9fbf9" fill-opacity=".5" d="M181 70l-19-5 1-38z"/><path fill="#01141e" fill-opacity=".4" d="M207.4 185l63.6-24.5-61.6-48.2 29.7 37.1z"/><path fill="#f1f6ff" fill-opacity=".5" d="M165 154h44v14h-44z"/><circle r="1" fill="#6d664f" fill-opacity=".6" transform="matrix(-17.63687 -2.60327 6.92072 -46.88707 232.9 77.7)"/><path fill="#f1f4fd" fill-opacity=".6" d="M100.4 151.8L60.5 185l-13.6-25 50.8 9.9z"/><path fill="#fff5e1" fill-opacity=".4" d="M162.2 135.9l-4.9 27.5-4.4-76-16.2 12.9z"/><path fill="#312b17" fill-opacity=".7" d="M10.9 70.5l12.3 29.2 33.9 8.9-11.5-56.2z"/><path fill="#2d6ec5" fill-opacity=".4" d="M26.5 172.7l4-40.2 7.1 28.3 43.6 20.3z"/><ellipse cx="178" cy="136" fill="#fff8f5" fill-opacity=".5" rx="26" ry="3"/><path fill="#36210d" fill-opacity=".6" d="M88.2 41.9l74-5.1-11.1 58.9-15.3 2.5z"/><circle r="1" fill="#c7bdb5" fill-opacity=".5" transform="matrix(-6.60562 -1.72473 13.70846 -52.50276 2.3 131.4)"/><circle r="1" fill="#aeaf9f" fill-opacity=".8" transform="rotate(-47.6 41.9 -54.3) scale(48.36331 19.98777)"/><path fill="#e3e9ed" fill-opacity=".6" d="M48.3 104.9l2.7 5.2 3.1 17.3-29.3-12.5z"/><path fill="#fffbde" fill-opacity=".5" d="M99 103l3-27 8 29z"/><path fill="#b4beb8" fill-opacity=".5" d="M271 50.4L238.7-16l20.7 102.6-21.6-17.9z"/><path fill="#060200" fill-opacity=".5" d="M95 114l50-2-41 73z"/><ellipse cx="179" cy="76" fill="#7a5b4c" fill-opacity=".9" rx="24" ry="4"/><path fill="#433429" fill-opacity=".5" d="M242.2 121.8l.5 9-67 3.4-.4-9z"/><circle r="1" fill="#221200" fill-opacity=".6" transform="matrix(14.64314 -5.62098 16.81222 43.79733 192 18.4)"/><circle r="1" fill="#2f1e00" fill-opacity=".6" transform="matrix(9.12502 -15.60509 4.91646 2.87488 67 39.3)"/><circle r="1" fill="#504f3a" fill-opacity=".7" transform="matrix(13.68094 -6.96629 14.76647 28.99956 229 22)"/><path fill="#5c1500" fill-opacity=".6" d="M147 145.4l5-21.5 3 .7-5 21.5z"/><path fill="#494c55" fill-opacity=".6" d="M47 78h34v18H47z"/><path fill="#fef0e2" fill-opacity=".6" d="M164 157l-7-39-4 22z"/><path fill="#aab3ae" fill-opacity=".6" d="M158 0h12v18h-12z"/><path fill="#996a55" fill-opacity=".8" d="M192.9 121.4l15.3-12-57.4-4 12.8 28.1z"/><ellipse cx="5" cy="7" fill="#fdfcfc" fill-opacity=".4" rx="9" ry="53"/><path fill="#b58b68" fill-opacity=".5" d="M210.7 72.3l4.7-4.2 35.8 60.8-32.9-39.8z"/><path fill="#dfc9b8" fill-opacity=".5" d="M205 85l-9-13-26 19z"/><path fill="#6d6a6b" fill-opacity=".9" d="M141.8 160.1l-18.5-4.9 11.4 10.2 6.6 13.7z"/><path fill="#1d1906" fill-opacity=".5" d="M40.6 92.4l5 11-26.2 12.2-5-11z"/><path fill="#edf5ff" fill-opacity=".4" d="M236 157l-61 15 59-33z"/><circle r="1" fill="#757564" fill-opacity=".6" transform="rotate(125.9 24.5 22.4) scale(32.82746 2.045)"/><path fill="#dedfd6" fill-opacity=".5" d="M159.9 32.6l21.9 2-17.2 27.8 1.1 12.2z"/><path fill="#2b2e19" fill-opacity=".5" d="M224 72h20v15h-20z"/></g></svg>