<svg xmlns="http://www.w3.org/2000/svg" viewBox="0 0 299 449"><defs/><path fill="#6b533f" d="M0 0h299v449H0z"/><g transform="translate(.9 .9) scale(1.7539)"><circle r="1" fill="#dbe8e4" fill-opacity=".6" transform="matrix(-166.46788 -34.47384 9.14965 -44.18198 137.9 34.5)"/><circle r="1" fill="#eff5ff" fill-opacity=".7" transform="matrix(17.8412 .5754 -2.27738 70.61318 89 176.2)"/><circle r="1" fill="#111b15" fill-opacity=".7" transform="matrix(-33.98891 -109.5941 17.82525 -5.52823 148.3 142.7)"/><circle r="1" fill="#d9d6d2" fill-opacity=".6" transform="matrix(19.76304 1.52068 -4.7099 61.21065 10.3 203.4)"/><circle r="1" fill="#9c7173" transform="matrix(-16.63403 .63901 -1.8066 -47.02707 113 156.2)"/><circle r="1" fill="#071511" fill-opacity=".6" transform="rotate(-81.8 178.3 -3.1) scale(87.63097 25.29241)"/><path fill="#cdc7bc" fill-opacity=".7" d="M131.1-16L186-8.6v96.4l-58.2-6z"/><circle r="1" fill="#e4eefa" fill-opacity=".6" transform="matrix(-22.25319 -2.92969 2.58287 -19.61888 88 221.8)"/><circle r="1" fill="#4b0000" fill-opacity=".6" transform="matrix(-11.43453 86.85388 -16.50162 -2.17248 50.2 207.3)"/><ellipse cx="49" cy="79" fill="#395456" fill-opacity=".5" rx="72" ry="43"/><path fill="#032522" fill-opacity=".6" d="M19.2 257l.7-20 119 4-.8 20z"/><ellipse cx="83" cy="7" fill="#fcffff" fill-opacity=".4" rx="18" ry="51"/><path fill="#cdb9b0" fill-opacity=".5" d="M73.8 169.1l-75.6-17.7 48.3-22 6.4 40.5z"/><circle r="1" fill="#001d1f" fill-opacity=".4" transform="matrix(-11.60483 -7.88664 21.30312 -31.34659 25.4 114.4)"/><path fill="#5e4228" fill-opacity=".6" d="M114-15l-14 64 18-3z"/><ellipse cx="25" cy="53" fill="#80847b" fill-opacity=".6" rx="92" ry="19"/><path fill="#75655a" fill-opacity=".7" d="M4 256l35-51-7-49z"/><circle r="1" fill="#070000" fill-opacity=".6" transform="matrix(-48.05247 -45.84103 4.06861 -4.26489 133 119.2)"/><circle r="1" fill="#f5faff" fill-opacity=".4" transform="rotate(173.3 38.8 94.5) scale(13.26392 46.22548)"/><path fill="#4c1f11" fill-opacity=".6" d="M101 66l-38 81 15-95z"/><path fill="#dfd5c7" fill-opacity=".5" d="M66-16l-79 84-3-80z"/><path fill="#5dd6e0" fill-opacity=".4" d="M120 91l-13-56-3 53z"/><path fill="#2c3128" d="M123 213.4l-.5-31 63.5 15.4-30.8 73.2z"/><path fill="#e1d8d0" fill-opacity=".5" d="M10.8 210.8l-31.5-5.5 9.9-56.1 31.5 5.5z"/><path fill="#675754" fill-opacity=".9" d="M109 263.2l3.7-114.1-10.9-13.9-1.3 14.7z"/><path fill="#101005" fill-opacity=".7" d="M128 85h43v58h-43z"/><path fill="#dc9795" fill-opacity=".4" d="M136.4 185.7l-14.8-69.3-21.4 25.3L80 64.3z"/><path fill="#ffa98b" fill-opacity=".5" d="M55.6 95.6l8-.2.8 23-8 .2z"/><circle r="1" fill="#d5dee0" fill-opacity=".5" transform="rotate(117 -57.4 121.6) scale(18.63339 3.08999)"/><path fill-opacity=".5" d="M77 133l3-30-17-14z"/><ellipse cx="5" cy="93" fill="#5b7c82" fill-opacity=".5" rx="16" ry="33"/><circle r="1" fill="#4a3e35" fill-opacity=".6" transform="matrix(1.08689 77.83741 -1.63253 .0228 63.6 48.5)"/><path fill="#64180a" fill-opacity=".8" d="M71 171.1l1.4 20-26.7-44.8 8.5-40.4z"/><path fill="#ddc4bd" fill-opacity=".5" d="M80 161l-17 8 8-24z"/><ellipse cx="20" cy="28" fill="#3d2203" fill-opacity=".7" rx="13" ry="2"/><circle r="1" fill="#ba7b8e" fill-opacity=".6" transform="matrix(-1.62323 18.55366 -11.29801 -.98845 123.7 162)"/><path fill="#c7997f" fill-opacity=".6" d="M105.7 231.3l10.1-15 12.5 8.4-10.1 15z"/><path fill="#540e00" fill-opacity=".6" d="M39.6 195.9l32.5.6-27.5-34.9-32.9 81z"/><path fill="#e0e2eb" fill-opacity=".5" d="M103.9 226.8l-29.7 12.4L63.9 229l19.9-78.5z"/><ellipse cx="155" cy="255" fill="#333c32" fill-opacity=".8" rx="52" ry="29"/><path fill="#e4ddd3" fill-opacity=".5" d="M206.6 12.3l-27.7 35.4-61.5-48 27.7-35.4z"/><path fill="#140c05" fill-opacity=".6" d="M106.7 116l20.4-33.7 9.5 8.8-33.4 33.5z"/><ellipse cx="86" cy="50" fill="#dadcd8" fill-opacity=".5" rx="11" ry="8"/><circle r="1" fill="#d5937b" fill-opacity=".5" transform="matrix(-.73479 -6.99103 5.704 -.59951 74.4 88.8)"/><path fill="#232b21" fill-opacity=".8" d="M26.6 137.8l13.6-8.4 13-37.1-35 13.9z"/><path fill="#250700" fill-opacity=".3" d="M91.3 167.9l44.3-24.2-37.5 13-6-2.7z"/><ellipse cx="53" cy="215" fill="#5e0700" fill-opacity=".7" rx="13" ry="27"/><path fill="#b3ad9f" fill-opacity=".7" d="M117.7 38.1l-1.5-13.5 2-40.6 49.5 102.7z"/><path fill="#ffcdae" fill-opacity=".5" d="M58.2 171.2l-3.6 1.9-10.8-20.3 3.6-1.9z"/><path fill="#e2d0c5" fill-opacity=".4" d="M116.5 106.5l-9.9-4.7L96 166.5 79.6 117z"/><path fill-opacity=".5" d="M150.7 206.7l-31.5 7.3 28.3-64.8-29.6-58.5z"/><path fill="#dfe2da" fill-opacity=".7" d="M-16 268.3l34.1-11.8 1.9-21.1L-1.3 271z"/><path fill="#32342c" fill-opacity=".8" d="M66.1 234.6l32.2 9-89.8 18.8 26.6-20.2z"/><path fill="#000a24" fill-opacity=".5" d="M5 44h13v9H5z"/><path fill="#c58697" fill-opacity=".6" d="M119 138l14 43-25 3z"/><circle r="1" fill="#500600" fill-opacity=".5" transform="matrix(1.09084 7.46002 -16.05166 2.34716 65.4 131.6)"/><path fill="#e9ecf2" fill-opacity=".6" d="M100 169l-20 66 19 7z"/><path fill="#625238" fill-opacity=".6" d="M74.4 41.1l57.5 7.4-7.1 33.7-17.5-44.4z"/><path fill="#580b01" fill-opacity=".6" d="M63.1 247.5l-25.7-72.2 2.7-22 30.5 38.3z"/><path fill="#010e06" fill-opacity=".4" d="M73.8 86.5l48.1 5.7-22.5 13.6 5.9-40.3z"/><path fill="#002219" fill-opacity=".4" d="M30 218h12v22H30z"/><path fill="#bf845e" fill-opacity=".4" d="M62 113l-23 7 46 5z"/><path fill="#846656" fill-opacity=".9" d="M92.5 58.5l-7.8 32.2L77 34.9l-1.7 31.9z"/><path fill="#67573b" fill-opacity=".8" d="M36 25.6l-.1 32.5-6.6-9.6 3.9-15.1z"/><path fill="#a5a093" fill-opacity=".5" d="M155 80.5l-27.8 2.9-2.3-21.9 27.9-2.9z"/></g></svg>