<svg xmlns="http://www.w3.org/2000/svg" viewBox="0 0 300 199"><defs/><path fill="#4e3526" d="M0 0h300v199H0z"/><g transform="translate(.6 .6) scale(1.17188)"><circle cx="220" cy="119" r="60" fill="#d7c9c1" fill-opacity=".6"/><circle cx="148" cy="22" r="48" fill="#081b00" fill-opacity=".8"/><ellipse cx="203" cy="65" fill="#684d3d" rx="27" ry="28"/><circle r="1" fill="#080608" fill-opacity=".6" transform="matrix(-7.60665 -167.83947 52.44059 -2.37666 30.3 94.9)"/><circle r="1" fill="#d7e7eb" fill-opacity=".6" transform="matrix(41.10091 -20.49395 12.17218 24.41147 235.4 159.6)"/><circle r="1" fill="#ecb08d" fill-opacity=".5" transform="matrix(22.0113 -25.35204 7.9818 6.93 108.8 136.7)"/><path fill="#071700" fill-opacity=".8" d="M186.7-56.1l118.7 99.6-34 40.6-118.8-99.6z"/><path fill="#000503" fill-opacity=".6" d="M188.2 104.8l26 29-10.4 9.4-26-29z"/><path fill="#eef1f8" fill-opacity=".7" d="M158.9 76.2l-28.7 4.5-1-6.9 28.6-4.5z"/><path fill="#d2a792" fill-opacity=".6" d="M190 123l-57-4-19 21z"/><circle r="1" fill="#241f06" fill-opacity=".5" transform="matrix(-31.435 -7.78981 9.23933 -37.2844 156.2 169)"/><path fill="#bc885e" fill-opacity=".5" d="M115 63L74-16l27 132z"/><path fill="#050700" fill-opacity=".7" d="M199.3 78.5l-16.5 5.1L216.9 94l-22.5-79.9z"/><circle r="1" fill="#e2f4ff" fill-opacity=".4" transform="matrix(10.45862 -6.13603 10.92537 18.62184 234.5 100)"/><path fill="#fcc19f" fill-opacity=".3" d="M194.5 158.7L156 103.6l44.4-48.9-23.8-1.8z"/><path fill="#000605" fill-opacity=".5" d="M132.8 80.2l3.7 42 28.6-5.6-10-40z"/><path fill="#704d3f" fill-opacity=".6" d="M229.6 111.2l-1.6 17-7.9 9-53.4-34.8z"/><ellipse cx="121" cy="81" fill="#0a1500" fill-opacity=".6" rx="10" ry="34"/><path fill="#dea48a" fill-opacity=".4" d="M217 34.8l17.5 28-13.5 8.4-17.5-28z"/><path fill="#f3ffff" fill-opacity=".6" d="M76 7.8L74-6.1l12-1.7 2 13.9z"/><circle r="1" fill="#23260b" transform="matrix(22.18768 6.46495 -13.21653 45.3591 118.3 0)"/><circle r="1" fill="#3a2a24" fill-opacity=".6" transform="matrix(-22.62326 -13.02069 29.73386 -51.66214 58.6 105.3)"/><path fill="#041500" fill-opacity=".7" d="M183.1 8.7l32 20.7-14.2 21.9-32-20.7z"/><circle r="1" fill="#c48f81" fill-opacity=".5" transform="matrix(-1.5518 3.02167 -21.5407 -11.06234 151.9 138.6)"/><path fill="#dfafa0" fill-opacity=".4" d="M177 70l44 37-36 4z"/><path fill="#ffc595" fill-opacity=".4" d="M93 16.6l-5.7 22.9L78.2 28l9.5-12.2z"/><circle r="1" fill="#010000" fill-opacity=".7" transform="rotate(-166.7 9.5 73) scale(20.26993 35.20644)"/><circle r="1" fill="#060100" fill-opacity=".6" transform="matrix(12.8805 39.40795 -15.27995 4.99426 17.9 49.4)"/><path fill="#000504" fill-opacity=".4" d="M189 118l23 3-6 32z"/><path fill="#9a5850" d="M156.5 75.3l4.1 44.9h4.9l-6-50.4z"/><circle r="1" fill="#28230e" transform="matrix(-22.1451 -18.52935 18.02793 -21.54584 139 168)"/><path fill="#ca9c82" fill-opacity=".6" d="M97.1 128.2l42.7-22.8-46.4 38.5 29.5-6.2z"/><circle r="1" fill="#d5a681" fill-opacity=".6" transform="matrix(10.40235 32.2063 -7.79252 2.51692 203.9 169)"/><path fill="#181700" fill-opacity=".6" d="M99 122l19-6 1-50z"/><path fill="#aa8170" fill-opacity=".7" d="M175.9 63.3L188 50.1l10.2 5.3-22.9 51.5z"/><path fill="#ffe7db" fill-opacity=".3" d="M233.7 69l-5.8-3.7h25.3L217.8 111z"/><path fill="#1b1b0c" fill-opacity=".6" d="M208.4 95.3l-8.9-27.8 23.2 2.3-7.7 25.9z"/><path fill="#0a0000" fill-opacity=".5" d="M159 114l-35 15 14-18z"/><path fill="#030200" fill-opacity=".5" d="M106-16l37 16-65 16z"/><circle r="1" fill="#2d1f15" fill-opacity=".5" transform="matrix(9.08339 -20.81157 11.01532 4.80773 82.8 139.5)"/><path fill="#e3bd9c" fill-opacity=".6" d="M144.6 121.7l19.5-.4-2.4-28.9 37.2 49.3z"/><path fill="#110f00" fill-opacity=".6" d="M162 33h12v54h-12z"/><path fill="#2e4240" fill-opacity=".4" d="M204.9 103.6l-19.4 23L171.7 97l18 14.3z"/><ellipse cx="241" cy="124" fill="#451800" fill-opacity=".3" rx="55" ry="4"/><path fill="#c39da2" fill-opacity=".9" d="M210.2 122l-8.8-23.3 35-2.8-36.5 19.1z"/><path fill="#0a0900" fill-opacity=".6" d="M232 47h24v17h-24z"/><path fill="#453220" fill-opacity=".9" d="M163.6 71.6l30.6-29.2-13.8 1.9-5.3 3.4z"/><circle r="1" fill="#724322" fill-opacity=".5" transform="matrix(-2.09184 4.14305 -6.55267 -3.30847 188.1 146.7)"/><circle r="1" fill="#000b00" fill-opacity=".6" transform="matrix(6.64714 9.67503 -18.41718 12.65336 142.2 55.3)"/><path fill="#352822" fill-opacity=".7" d="M83 16L27-16l-4 46z"/><path fill="#f6d3b8" fill-opacity=".5" d="M105.3 127.4l28.8-21.6.6.8-28.8 21.6z"/><path fill="#dadbdf" fill-opacity=".5" d="M144 131l-2-6-19 6z"/><path fill="#3f471e" fill-opacity=".5" d="M110.8 14L97.5 76.5l-4.8-38.6L219.5-16z"/><ellipse cx="158" cy="134" fill="#703f2a" fill-opacity=".5" rx="13" ry="8"/><path fill="#9b918c" fill-opacity=".9" d="M223.9 101.5l11 .8-1 17-5.7 6.1z"/><circle r="1" fill="#110400" fill-opacity=".4" transform="matrix(.0799 -15.25957 48.99248 .25653 43.8 169)"/><path fill="#d8beb2" fill-opacity=".5" d="M212 104l-41-16 14 19z"/><ellipse cx="185" cy="78" fill="#8a5946" fill-opacity=".7" rx="7" ry="10"/><path fill="#a86262" fill-opacity=".5" d="M132 91h3v33h-3z"/><path fill="#c9d8db" fill-opacity=".3" d="M245.1 105.4l-10.9-33.1-9.8 15-13.5 7.5z"/><circle r="1" fill="#be6b6b" fill-opacity=".5" transform="matrix(-13.76463 1.69008 -.12187 -.99255 150.3 70.2)"/><path fill="#8b5e4b" fill-opacity=".5" d="M240.6 124.2l-37.8 19 28.7-38-34.1 6z"/><circle r="1" fill="#c5d0d4" fill-opacity=".6" transform="matrix(21.39955 -19.74292 10.16383 11.01668 234.1 152.8)"/><path fill="#6b412f" fill-opacity=".5" d="M242 86l29 26-6 16z"/><path fill="#cdae9e" fill-opacity=".5" d="M224 48l-12-9-5 6z"/></g></svg>