<svg xmlns="http://www.w3.org/2000/svg" viewBox="0 0 300 199"><defs/><path fill="#33385d" d="M0 0h300v199H0z"/><g transform="translate(.6 .6) scale(1.17188)"><circle r="1" fill="#b68f88" fill-opacity=".7" transform="rotate(109.8 31.7 92.6) scale(103.7045 154.38289)"/><circle cx="151" cy="53" r="48" fill="#010f13" fill-opacity=".6"/><ellipse cx="115" cy="135" fill="#ecdcee" fill-opacity=".5" rx="80" ry="26"/><ellipse cx="152" cy="47" fill="#b7b8b1" fill-opacity=".7" rx="12" ry="40"/><ellipse cx="211" cy="62" fill="#fed4de" fill-opacity=".7" rx="16" ry="36"/><ellipse cx="71" fill="#dadfea" fill-opacity=".6" rx="20" ry="59"/><path fill="#170000" fill-opacity=".8" d="M246.1 156.4l-13.5 16-36.7-30.8 13.5-16z"/><ellipse cx="25" cy="141" fill="#180800" fill-opacity=".8" rx="11" ry="31"/><circle r="1" fill="#f69b9b" fill-opacity=".6" transform="matrix(-10.64186 -17.92293 46.84117 -27.81225 211.1 102)"/><ellipse cx="180" cy="10" fill="#200" fill-opacity=".4" rx="70" ry="28"/><path fill-opacity=".5" d="M65 114l-27 8 15-71z"/><path fill="#000100" fill-opacity=".4" d="M156.8 99.6l42.3-42.7-42.7 83.9-53-83.3z"/><circle cx="255" cy="95" r="50" fill="#ca7574" fill-opacity=".8"/><circle r="1" fill="#feeffe" fill-opacity=".5" transform="rotate(27.9 -74.7 443.9) scale(9.53118 65.51915)"/><path fill="#fff2f8" fill-opacity=".6" d="M22.2 171.8l-23.4 13.5-11-19 23.4-13.6z"/><path fill="#d1e0f8" fill-opacity=".6" d="M95 42h17v37H95z"/><path fill-opacity=".6" d="M111 8h27v65h-27z"/><circle r="1" fill="#dba99d" fill-opacity=".5" transform="matrix(-20.98794 -2.8361 10.10244 -74.76097 33.3 17.6)"/><ellipse cx="59" cy="152" fill="#c7bed3" fill-opacity=".7" rx="20" ry="35"/><path fill-opacity=".6" d="M198.5 21.4L191.3 80l-27.8-3.4 7.2-58.6z"/><circle r="1" fill="#895528" fill-opacity=".5" transform="matrix(14.8654 -3.76555 6.44792 25.45468 98 111.5)"/><circle r="1" fill="#c08284" transform="matrix(8.95385 -32.21243 13.0458 3.62624 181.3 162.1)"/><path fill="#000e2d" fill-opacity=".6" d="M76 58h14v29H76z"/><circle r="1" fill="#ebffff" fill-opacity=".4" transform="matrix(-27.73658 8.36135 -4.00912 -13.2992 90.4 4.3)"/><path fill="#ece2ff" fill-opacity=".6" d="M134 111l-15 16 51-8z"/><circle r="1" fill="#2d3464" fill-opacity=".7" transform="matrix(-12.1904 -2.06288 3.36616 -19.892 54.5 66.7)"/><path fill="#d6b6b6" fill-opacity=".7" d="M88.4 75.1l41.2 38.6-8.4-23.4-4.6-15.9z"/><path fill="#f5f4ff" fill-opacity=".6" d="M90 124l29 41-71-42z"/><path fill="#b1bcb4" fill-opacity=".3" d="M140 7h24v84h-24z"/><path fill="#030025" fill-opacity=".6" d="M97 38l51-3-21-48z"/><path fill="#f0deed" fill-opacity=".6" d="M196 59.4l.4-21.3 23-21.8-14.1 42.4z"/><ellipse cx="188" fill="#9d5143" fill-opacity=".8" rx="17" ry="23"/><circle r="1" fill="#d8ddff" fill-opacity=".5" transform="matrix(-7.87126 -.50646 .81664 -12.6919 65.8 87.8)"/><path fill="#401211" fill-opacity=".5" d="M135.2 124.3l29.5 5.8-39.2 12.4-8.1 37.7z"/><path fill="#ede8ff" fill-opacity=".7" d="M125.9 169.1l50.3-33.4-40.2 3.4-17.3 45.9z"/><circle r="1" fill="#72433e" fill-opacity=".8" transform="matrix(21.60037 4.09036 -3.31694 17.5161 0 138.2)"/><path fill="#c07271" fill-opacity=".7" d="M194 107L271 1l-47 137z"/><circle r="1" fill="#c0d0e5" fill-opacity=".5" transform="matrix(12.19134 -6.8116 10.43346 18.67373 27.6 70)"/><path fill="#220a05" fill-opacity=".8" d="M38 144.1l-28 6.2 16.3 26.5 16.1 2.9z"/><path fill="#130f12" d="M161.8 47.3l36.7-29.2-11.4 34.7 43-61.1z"/><path fill="#180e11" fill-opacity=".9" d="M254.7 13.2L238.4-3.2 212.2 2l31.7 37.8z"/><path fill="#eed4e1" fill-opacity=".8" d="M161.9 123.5l11-16.6 46.3-46.6-64.1 90.1z"/><path fill-opacity=".7" d="M113 61l26-9-5 59z"/><path fill="#060500" fill-opacity=".4" d="M74.5 113.4l-28.2 8.2-24.2-9.9 51.6-13.5z"/><path fill="#070713" fill-opacity=".7" d="M188 88l-26 24 9-88z"/><path fill="#fff8ff" fill-opacity=".4" d="M165.6 46.7L147 58.3l-10.6-17L155 29.7z"/><path fill="#9e899b" fill-opacity=".7" d="M110 158l-19 27-59-62z"/><path fill="#9f7776" fill-opacity=".5" d="M-16 52l27.8-39.7 87.7 17.1 4.2 12.3z"/><path fill="#280313" fill-opacity=".6" d="M9-16l-25 32h31z"/><path fill="#935f5e" fill-opacity=".8" d="M207.5 101.7l-11.1 2.7 43.7-56.2-3.5-30.1z"/><path fill="#1d0a2d" fill-opacity=".4" d="M108.8 185l41.5-26.4 9.1-11.3-2 37.7z"/><path fill="#dfdcf5" fill-opacity=".8" d="M119.1 149.4l-3.3 35.6-.9-56.3 25.6-15.4z"/><path fill="#0c0005" fill-opacity=".3" d="M121.5 146.4l-5 38.6 19.1-58.9 3.5-2.8z"/><path fill="#18285e" fill-opacity=".6" d="M84 78l1-38h13z"/><path fill="#9b94ad" fill-opacity=".7" d="M50.7 101.7l-14.9 10.1-14.5-21.5 14.9-10.1z"/><path fill="#561100" fill-opacity=".5" d="M9 39l7 17-21 9z"/><circle r="1" fill="#fd855b" fill-opacity=".5" transform="matrix(-18.68625 .0067 -.00275 -7.68267 43.8 11)"/><path fill="#bac1ca" fill-opacity=".8" d="M54.7 64.1l-7.4 8.1 1.4-11.7.7-.8z"/><path fill="#3a2f4f" fill-opacity=".4" d="M84 133l32-3-22 10z"/><path fill="#0a020b" fill-opacity=".5" d="M156 60l-53 10 10-19z"/><path fill="#2b2b4d" fill-opacity=".7" d="M150-16l-45 29-8 33z"/><path fill="#e9e3ee" fill-opacity=".9" d="M49.7 128.3l25.8 15.1 27.8-16.9-3.8-1.6z"/><path fill="#5f6c65" fill-opacity=".5" d="M137 71h28v30h-28z"/><path fill="#b75b5d" fill-opacity=".5" d="M260.2 150.2l-21.8 31-10.6-7.4 21.8-31z"/><path fill="#f7ced9" fill-opacity=".6" d="M189 110l-28 60-1-29z"/></g></svg>