<svg xmlns="http://www.w3.org/2000/svg" viewBox="0 0 300 199"><defs/><path fill="#50282d" d="M0 0h300v199H0z"/><g transform="translate(.6 .6) scale(1.17188)"><circle cx="38" cy="118" r="202" fill="#7f8e82" fill-opacity=".6"/><ellipse cx="166" cy="22" fill="#fffffd" fill-opacity=".7" rx="31" ry="18"/><circle r="1" fill-opacity=".7" transform="matrix(1.4689 26.2735 -58.10831 3.24872 84.6 10)"/><circle r="1" fill="#d5d9c6" fill-opacity=".6" transform="matrix(1.80086 40.77686 -26.47878 1.1694 23 159.7)"/><circle r="1" fill="#f4eee0" fill-opacity=".6" transform="rotate(115.3 28.7 124.6) scale(17.02727 21.58964)"/><ellipse cx="15" cy="54" fill="#f5f2da" fill-opacity=".7" rx="7" ry="71"/><ellipse cx="32" cy="57" fill="#151918" rx="11" ry="53"/><circle r="1" fill="#03060c" fill-opacity=".7" transform="matrix(-26.32843 2.48877 -1.54998 -16.3971 119.6 118)"/><path fill="#e2e6df" fill-opacity=".7" d="M74 67h11v77H74z"/><ellipse cy="67" fill="#000605" fill-opacity=".7" rx="9" ry="69"/><circle r="1" fill="#fdffe3" fill-opacity=".5" transform="rotate(-101.5 168.9 -16.7) scale(8.11053 20.46181)"/><ellipse cx="195" cy="165" fill="#1e0004" fill-opacity=".6" rx="33" ry="9"/><circle r="1" fill="#210502" fill-opacity=".4" transform="matrix(21.45552 -11.94199 12.95873 23.28224 151.5 83.4)"/><path fill="#c34d70" fill-opacity=".4" d="M256 33L148 67 54 36z"/><circle r="1" fill="#001b20" fill-opacity=".6" transform="matrix(8.5663 -22.50643 71.3221 27.1463 231 4.6)"/><path fill="#fff" fill-opacity=".6" d="M110.4 138.8l10 .4-.8 20-10-.4z"/><path fill="#a59b8f" fill-opacity=".6" d="M100.8 113.1L65.1 83.7 92.5 59l44.8 29.7z"/><path fill="#271614" fill-opacity=".4" d="M187 97.8l23.3-30 56.8 44.4-23.4 30z"/><ellipse cx="186" cy="36" fill="#d0caa6" fill-opacity=".9" rx="56" ry="3"/><ellipse cx="55" cy="83" fill="#100003" fill-opacity=".3" rx="15" ry="45"/><path fill="#e9e7d4" fill-opacity=".5" d="M179 67h8v37h-8z"/><path fill="#c9c2af" fill-opacity=".7" d="M150.2 131.3l49.5 19.6-56.5 23.5-11.4-42.3z"/><path fill="#120003" fill-opacity=".5" d="M136.5 177.7l-22-45 9-4.4 22 45z"/><circle cx="178" cy="114" r="14" fill="#d7af7e" fill-opacity=".5"/><path fill="#327c71" fill-opacity=".5" d="M9.8 133.6l-25.8-5.2L69.1 113 48 147.1z"/><path fill="#fbfcfb" fill-opacity=".5" d="M-7.7 154.9l31.7-2.7 6.4 20.2-46.4-11.3z"/><path fill="#12181b" fill-opacity=".7" d="M21 0h111v36H21z"/><ellipse cx="144" cy="52" fill="#802242" fill-opacity=".5" rx="81" ry="13"/><circle r="1" fill="#b8a47e" fill-opacity=".6" transform="matrix(5.81801 -1.77557 10.0979 33.08775 223.6 136.3)"/><path fill="#e9ebda" fill-opacity=".6" d="M166-2l38 38-73-2z"/><path fill="#ff6aaf" fill-opacity=".5" d="M45.9 89.7l-.8-21 11-.4.8 21z"/><path fill="#bebbb2" fill-opacity=".7" d="M67.6 179.7l22.7-60.8L104.7 91 77 123.1z"/><path fill="#abc7a0" fill-opacity=".5" d="M68 37l35-11 24 16z"/><path fill="#f8ffee" fill-opacity=".4" d="M105.8 130.4l-11.3-3-8.6 57.6 16.1-51.6z"/><path fill="#010900" fill-opacity=".4" d="M61.1 141.3L44.9 74l46.2-25.2-64.8 8.7z"/><path fill="#0e100b" fill-opacity=".5" d="M107.3 153.5l-3.7-46.1-7.4 55.8 23.2 10.7z"/><path fill="#604140" d="M16.6 141.9l.1 9.8 9-31.8-10.7 8.8z"/><path fill="#aff2ef" fill-opacity=".2" d="M241.8 39.3l-52 66.5 59-55.2L200 75.5z"/><path fill="#271406" fill-opacity=".5" d="M162 138l-21-48 39 43z"/><path fill="#ebe5d0" fill-opacity=".5" d="M22 56v66L10 87z"/><path fill="#ffe5c3" fill-opacity=".3" d="M49.6 162.4L5 139.2l1 21.6 74.7-33.7z"/><path fill="#fff" fill-opacity=".4" d="M187 53.6l50.6 44-.6.8-50.6-44z"/><path fill="#b2f9f3" fill-opacity=".2" d="M40 136.2l-15.6-.8.2-15.9 25.1-41.6z"/><path fill="#e3ddd4" fill-opacity=".5" d="M114 61h7v32h-7z"/><path fill="#12161b" fill-opacity=".8" d="M150.9 4.2l28.7-8.1L63.9-16l48.4 53.7z"/><path fill="#cff19e" fill-opacity=".3" d="M40.4 39.3l39.8-9.9-42.1 29.1 1.2-9.2z"/><path fill="#161618" fill-opacity=".5" d="M123 148.7L94.9 110l71.5 12.6-56.9 17.1z"/><ellipse cx="85" cy="152" fill="#000100" fill-opacity=".5" rx="5" ry="14"/><path fill="#b25181" fill-opacity=".5" d="M253 106l-4-42-17 11z"/><path fill="#f7fbfe" fill-opacity=".5" d="M165.9 141.6l-32.3-7.4-4.3 9 30.5 7z"/><path fill="#adafa8" fill-opacity=".5" d="M169.6 61.4L161 72.2l-22.5 23.5-13.3 8.9z"/><path fill-opacity=".7" d="M-4.7 146.2l9-.4.4 8-9 .4z"/><path fill="#c4c4bd" fill-opacity=".8" d="M63.1 86.5L92 61l-15.8 3.5 1.6 21.9z"/><path fill="#200506" fill-opacity=".3" d="M24.6 111.8l-1.5-30 17.1 36.8L102 72.5z"/><path fill="#edf0ec" fill-opacity=".5" d="M213 140l-7 12 28 4z"/><path fill="#00110b" fill-opacity=".6" d="M249.9 64.5l6.7 87.8L271 49.2l-43.2 6z"/><path fill="#8f9b90" fill-opacity=".4" d="M25.4 22.3L16.5-16-10 20.9l46.4-14z"/><ellipse cx="192" cy="136" fill="#173a00" fill-opacity=".5" rx="19" ry="5"/><path fill="#cebc90" fill-opacity=".8" d="M146.6 33.9l39.9 11.3 7.1-12.8-12-1.4z"/><path fill="#083d38" fill-opacity=".5" d="M32 185l38-19 2-25z"/><path fill="#ebede8" fill-opacity=".6" d="M162 2.8l-18.1 6-12.2 22.7 10.9 12.1z"/><path fill="#000403" fill-opacity=".6" d="M119.3 66l3.8-4.7L148.7 82l-3.8 4.6z"/><path fill="#000910" fill-opacity=".4" d="M203.9 55.3l20 17.7-21 8.2 17.2 12.2z"/><path fill="#ffd2c8" fill-opacity=".3" d="M136.6 164l-2.5-16.1 24.9-20 13.9-38.3z"/><ellipse cx="158" cy="41" fill="#00281d" fill-opacity=".5" rx="15" ry="3"/></g></svg>