<svg xmlns="http://www.w3.org/2000/svg" viewBox="0 0 300 199"><defs/><path fill="#392320" d="M0 0h300v199H0z"/><g transform="translate(.6 .6) scale(1.17188)"><circle cx="39" cy="17" r="210" fill="#fef3e4" fill-opacity=".7"/><ellipse cx="112" cy="77" fill="#4d200e" fill-opacity=".6" rx="36" ry="59"/><path fill="#fff" fill-opacity=".7" d="M273-14.9l-64.3 99L139 38.9l64.2-99z"/><circle cx="18" cy="39" r="67" fill="#f9ffff" fill-opacity=".6"/><path fill="#fffff7" fill-opacity=".6" d="M187 77l11 72 49-34z"/><path fill="#905f47" fill-opacity=".5" d="M26 185l75-99 170 81z"/><path fill="#452611" fill-opacity=".7" d="M264.8 92.7l-37.2 3.2 15.3-70.6 25-25.6z"/><circle r="1" fill="#fff" fill-opacity=".6" transform="rotate(-4.5 173.8 -1013.3) scale(131.11822 13.28731)"/><path fill="#6a2203" fill-opacity=".4" d="M185 60l-29 11 20 106z"/><path fill="#241d1b" fill-opacity=".6" d="M83 28h24v74H83z"/><circle r="1" fill="#a17e6e" fill-opacity=".9" transform="matrix(-16.24946 2.48388 -4.91854 -32.17698 136.1 50.2)"/><circle r="1" fill="#d9ddd8" fill-opacity=".5" transform="rotate(109.7 -35.5 76.5) scale(55.47694 31.15138)"/><circle cx="148" cy="100" r="9" fill="#fff" fill-opacity=".8"/><path fill="#e2ded8" fill-opacity=".9" d="M156.6 100.5l2 46.6 12.4 23.4 3.1-1.5z"/><circle r="1" fill="#441b22" fill-opacity=".6" transform="matrix(-14.32967 -15.55442 31.2348 -28.77539 202.1 169)"/><circle r="1" fill="#f0e8d9" fill-opacity=".4" transform="matrix(-25.89437 -7.523 11.69535 -40.25565 206.7 101.8)"/><circle r="1" fill="#e9f7ea" fill-opacity=".5" transform="rotate(-107.6 184.3 -6.8) scale(5.09653 29.45863)"/><path fill="#f8ebd6" fill-opacity=".3" d="M52.4 84.6l68.7 43-7.5 11.8-68.7-43z"/><path fill="#413f3c" d="M144.5 109.1l10.9-.2.7 13.9-23-9.3z"/><path fill="#f2f2ee" fill-opacity=".8" d="M99-16L223 94l14-91z"/><path fill="#04111b" fill-opacity=".5" d="M99 62l28-45-30 8z"/><path fill="#d3b89b" fill-opacity=".5" d="M217.9 88.1l-9.8 52.4 62.9-30.1v23.4z"/><path fill="#000402" fill-opacity=".5" d="M99.9 83.3l-.4 16.9-22.1 1.6 1-29.5z"/><path fill="#cc896f" fill-opacity=".4" d="M109 88l51-7-86-21z"/><path fill="#9a674c" fill-opacity=".7" d="M49.3 157l-3.6 28 41.4-44.2-28.6-10.4z"/><path fill="#ebeaea" fill-opacity=".6" d="M161.6 82.3l-5.1-53.6-4.7 81.7 15.7-45.1z"/><path fill="#7f4011" fill-opacity=".3" d="M254 125l-16-76-16 42z"/><circle r="1" fill="#ebeae0" fill-opacity=".6" transform="matrix(2.50047 2.70242 -10.80453 9.99712 83.4 30.9)"/><path fill="#885743" fill-opacity=".7" d="M173 60l-15 34 11 48z"/><path fill="#d5d2c8" fill-opacity=".8" d="M90.7 113l-36.6 18L89.4 1.1 72.9 90.7z"/><path fill="#7c452a" fill-opacity=".4" d="M153.3 150.1l25.1 34.9h-64.8l8.2-14.9z"/><circle r="1" fill="#e1d3bd" fill-opacity=".4" transform="matrix(4.22215 -3.07105 20.96975 28.82964 152.4 138.4)"/><circle r="1" fill="#d7d8cb" fill-opacity=".5" transform="rotate(-27.6 369.9 -119.6) scale(2.80291 47.73833)"/><path fill="#8d5f49" fill-opacity=".5" d="M174.6 163.4l24.8 2-14.2-46.1-27.1-21z"/><path fill="#e8eae8" fill-opacity=".6" d="M235 122l-37 22-18-44z"/><circle cx="26" cy="75" r="47" fill="#d1d0c8" fill-opacity=".4"/><path fill="#a7745a" fill-opacity=".6" d="M159 165l-62-37 8-47z"/><path fill="#1f1513" fill-opacity=".5" d="M236 75.1L249.7 24l18.3 5-13.7 51z"/><path fill="#162c3b" fill-opacity=".5" d="M149 29l-31-5 11-5z"/><path fill="#bdaaa0" fill-opacity=".5" d="M187.7 52.3l-.5 66.5-.8-51.4-84.1-8.3z"/><circle r="1" fill="#fffffb" fill-opacity=".5" transform="matrix(-29.8118 -1.18397 .60922 -15.3398 244.4 1.9)"/><path fill="#986857" fill-opacity=".6" d="M130 96l21-5-2-62z"/><path fill="#b3a99a" d="M84.8 69l-2.6-37.3-6.4 47.8-7.2-5.9z"/><circle r="1" fill="#ddc6ac" fill-opacity=".5" transform="matrix(-3.2963 5.0914 -11.42418 -7.3963 137.3 36.1)"/><path fill="#371918" fill-opacity=".6" d="M258 106l11 35-68 44z"/><path fill="#d69850" fill-opacity=".4" d="M226.8 93.4l8.8-46.5-2.9-6.3L251 9z"/><path fill="#443030" fill-opacity=".6" d="M124 42h11v11h-11z"/><path fill="#986953" fill-opacity=".8" d="M169.9 61.1H164l1.1 61.9 25.2-46z"/><path fill="#e6f0eb" fill-opacity=".5" d="M148 107l-9-14-2 13z"/><path fill="#292b2c" fill-opacity=".7" d="M156.6 115.1l-22.1-7.7 22.3 19.5-.4-2.7z"/><circle r="1" fill="#cbc6af" fill-opacity=".5" transform="matrix(2.2021 4.26648 -17.23126 8.89371 111.7 169)"/><path fill="#f7f7f7" fill-opacity=".9" d="M0 0h82v28H0z"/><path fill="#bd8369" fill-opacity=".4" d="M105 54l45-3 3 42z"/><path fill="#e5e1d6" fill-opacity=".3" d="M66.9 90.2l-56.4 8.1 66-46.7 16.3-14.4z"/><path fill="#b07f57" fill-opacity=".4" d="M207.8 129.5l27.2-24.4 2.6-56.8-7.9 49.5z"/><path fill="#f3f2ec" fill-opacity=".6" d="M8 185l45-45-20 45z"/><circle cx="163" cy="74" r="5" fill="#430709" fill-opacity=".4"/><circle r="1" fill="#855543" fill-opacity=".5" transform="matrix(14.1783 -6.51714 11.75732 25.57848 119 95.3)"/><circle r="1" fill="#161719" fill-opacity=".5" transform="matrix(-12.85879 14.38403 -5.21093 -4.65838 101 43.2)"/><path fill="#e9e8dc" fill-opacity=".4" d="M224 90l-45-21 58-58z"/><ellipse cx="201" cy="101" fill="#e6f5fd" fill-opacity=".3" rx="25" ry="15"/><path fill="#805f4c" fill-opacity=".5" d="M81.8 72.6l41.7-17.2-52.5 17 8.6 21.8z"/><path fill="#f9fbfe" fill-opacity=".6" d="M181.4 35.5L109 12l9.5-29.5L191 6z"/><circle r="1" fill="#b78866" fill-opacity=".5" transform="matrix(8.94485 -10.53998 22.07354 18.7329 105.7 133.7)"/><path fill="#52463e" fill-opacity=".5" d="M214.8 88.3l-.4.9-39.2-17.5.4-.9z"/></g></svg>