<svg xmlns="http://www.w3.org/2000/svg" viewBox="0 0 300 199"><defs/><path fill="#4e4337" d="M0 0h300v199H0z"/><g transform="translate(.6 .6) scale(1.17188)"><circle r="1" fill="#f3f1e4" fill-opacity=".8" transform="matrix(77.20683 -53.86023 75.89411 108.79166 188.6 56.7)"/><ellipse cx="128" cy="138" fill="#a6926f" fill-opacity=".5" rx="57" ry="100"/><circle r="1" fill="#0f1511" fill-opacity=".7" transform="matrix(-22.46818 -111.24423 49.58434 -10.01463 25.7 115)"/><circle r="1" fill="#99998a" fill-opacity=".6" transform="matrix(15.53886 -3.71338 23.2593 97.33002 80.8 45.9)"/><path fill="#eef0ef" fill-opacity=".8" d="M153-16l118 42-31 159z"/><circle r="1" fill="#4a3d23" fill-opacity=".6" transform="matrix(-11.9329 5.30718 -9.14947 -20.57208 172.8 151.6)"/><circle r="1" fill="#000500" fill-opacity=".5" transform="matrix(30.28013 -4.18977 .75046 5.42372 84.4 63.5)"/><circle r="1" fill="#d6cbae" fill-opacity=".9" transform="rotate(-141.4 99.7 14) scale(27.5294 53.79746)"/><circle r="1" fill="#e6eae7" fill-opacity=".7" transform="matrix(61.36343 -12.55889 5.47604 26.75622 145.4 22.4)"/><ellipse cx="59" cy="125" fill="#120500" fill-opacity=".5" rx="35" ry="26"/><path fill="#473100" fill-opacity=".3" d="M92.8 56.2l27.7 2.6 79 13.9L170.8 49z"/><circle r="1" fill="#30251a" fill-opacity=".6" transform="matrix(-7.36689 17.46905 -7.37638 -3.1107 120.2 132)"/><circle r="1" fill="#c8f4ff" fill-opacity=".2" transform="matrix(15.84297 -3.07394 4.95978 25.56255 59.7 76.6)"/><ellipse cx="61" cy="1" fill="#daffff" fill-opacity=".3" rx="24" ry="12"/><circle r="1" fill="#bcae97" fill-opacity=".8" transform="matrix(17.0269 -1.20303 2.00258 28.34315 200.9 159.5)"/><path fill="#5d5b49" fill-opacity=".5" d="M190.3 53.3l57.3-3.6 23.4-6.2-35.8 1.8z"/><ellipse cx="153" cy="142" fill="#dfd7ca" fill-opacity=".6" rx="5" ry="77"/><path fill="#243326" d="M90.2 43.5L21.8 56.9 36.5 5.8l23.1 35.5z"/><path fill="#d7d9da" fill-opacity=".7" d="M133.4-16L68.9 59.2l13.2-1.1 20.1-3.7z"/><path fill="#d6b68b" fill-opacity=".5" d="M73.4 77.2l15-9.8 32.2 49.4-15 9.8z"/><path fill="#231b0e" fill-opacity=".5" d="M149.2 185.2l-27-.4.6-32 27 .4z"/><path fill="#6c5c4e" fill-opacity=".6" d="M8 99l-24 36 60-49z"/><circle r="1" fill="#f8f8f8" fill-opacity=".7" transform="rotate(48 -39.7 345.4) scale(63.04886 21.37779)"/><circle r="1" fill="#f7bc7d" fill-opacity=".3" transform="matrix(17.26023 -16.57361 10.34206 10.77052 85.5 159.3)"/><circle r="1" fill="#e9e6da" fill-opacity=".5" transform="matrix(-7.76627 -12.00483 27.69949 -17.9196 152.6 99.6)"/><path fill="#d0a851" fill-opacity=".6" d="M203.1 80.4l-6.7 29.2-17.5-4 6.7-29.2z"/><path fill-opacity=".6" d="M149 51h8v8h-8z"/><path fill="#af9869" d="M144.4 92.4l3.5-10.8-6.4-3.7-22 9.2z"/><path fill-opacity=".5" d="M78 58h31v9H78z"/><path fill="#000805" fill-opacity=".3" d="M-16 46.4l28.6 61.8L68.1-4.9l1.3 59z"/><path fill="#cec29e" fill-opacity=".7" d="M174.8 45l-20.3 32.9-52.2-39.6 11.1 50.5z"/><path fill="#72989e" fill-opacity=".3" d="M10 39l42-55H15z"/><path fill="#363123" fill-opacity=".5" d="M157 139h25v17h-25z"/><path fill="#fff" fill-opacity=".4" d="M249 51l-57 4 37 69z"/><path fill="#f0ddc2" fill-opacity=".5" d="M131 131h26v15h-26z"/><path fill="#776125" fill-opacity=".3" d="M148 59l-45-3 12-18z"/><circle r="1" fill="#afb5b2" fill-opacity=".5" transform="matrix(-6.11043 2.31797 -11.46848 -30.2322 252.7 113)"/><path fill="#100b05" fill-opacity=".5" d="M53.8 125.9l35.1-41.1L-16 152.9 48.3 185z"/><path fill="#a8f29a" fill-opacity=".3" d="M28.2 41l15.1-.7 1.5 1.9 1.5 10.6z"/><path fill="#eef2f0" fill-opacity=".5" d="M230.7 39.4L160 57.1 147.3 6.6 218-11.1z"/><circle cx="177" cy="59" r="5" fill="#392300" fill-opacity=".5"/><path fill="#436b63" fill-opacity=".5" d="M41 13l44-4-4 27z"/><path fill="#eeeede" fill-opacity=".5" d="M137.9 69.4l8.9-19.2 12 57.4 27.5.9z"/><path fill="#c3caca" fill-opacity=".6" d="M66.5 25.4l38.1-1.8L44-16h97.3z"/><path fill="#d4cfc3" fill-opacity=".7" d="M117.5 83.4l11.9 6.8 74.2 48.6-89.4-38.2z"/><path fill="#b0c09a" fill-opacity=".3" d="M67.5 62.7l28.1 15.6L66.4 96l-5.7-14.4z"/><path fill="#312e24" fill-opacity=".5" d="M111 121h21v14h-21z"/><path fill="#060039" fill-opacity=".4" d="M85.6 12.1l-9 8.8-6.5-4.7 10.2-9.9z"/><path fill="#cdaa7e" fill-opacity=".5" d="M91 143l7 42 13-86z"/><path fill="#483a25" fill-opacity=".4" d="M77 158l-23-22h45z"/><path fill="#af8b47" fill-opacity=".5" d="M161 63h36v7h-36z"/><path fill="#d9b16d" fill-opacity=".3" d="M187.5 162.8l-9.8-16.6-42.8 36.1 7.6 2.7z"/><path fill-opacity=".4" d="M26 80L1 26l-12 88z"/><path fill="#cdced3" fill-opacity=".4" d="M75.5 45.8l-13 11.1 18 3.6 49.4-17.8z"/><path fill="#f6f6f5" fill-opacity=".6" d="M232 184l10-125-45 38z"/><ellipse cx="82" cy="38" fill="#cbd8f3" fill-opacity=".4" rx="22" ry="3"/><path fill="#efd1fc" fill-opacity=".2" d="M66.8-16L41.3 21.1l16.9-6 95.6-17.7z"/><path fill="#59605f" fill-opacity=".4" d="M180 155l-9-38-13 18z"/><path fill="#211a0d" fill-opacity=".6" d="M66.7 123.2l24.4-15.8 2.2 3.4-24.4 15.8z"/><path fill="#0a1d15" fill-opacity=".4" d="M43.4-1.9l14.5 4.8L-.8 25.1l48.1 9.6z"/><path fill="#f4f6f6" fill-opacity=".7" d="M133.1 48.8l-1.2.6-5-14.7 134.3-15.1z"/><path fill="#476c4c" fill-opacity=".5" d="M83 32L57 2l-5 35z"/><circle r="1" fill="#473725" fill-opacity=".6" transform="matrix(-4.82548 -1.20686 4.9985 -19.98585 112 139)"/><path fill="#dfd7ba" d="M154.9 42.6l4.7 9.7-5.2 18.5 28.2-30.6z"/><path fill="#00122a" fill-opacity=".3" d="M137.3 50.2l3.6 11-7.2 3-5.2-2.6z"/></g></svg>