<svg xmlns="http://www.w3.org/2000/svg" viewBox="0 0 300 199"><defs/><path fill="#493530" d="M0 0h300v199H0z"/><g transform="translate(.6 .6) scale(1.17188)"><circle cx="222" cy="48" r="213" fill="#8d979a" fill-opacity=".5"/><circle r="1" fill="#050a0f" fill-opacity=".7" transform="matrix(-5.40147 -28.04942 45.85025 -8.82937 153.3 118.6)"/><circle r="1" fill="#dbcfc4" fill-opacity=".6" transform="rotate(-85.4 119.4 -95.7) scale(31.85618 49.47247)"/><circle r="1" fill="#a4aab5" fill-opacity=".7" transform="matrix(-133.18282 -25.40598 4.13164 -21.6588 37.4 0)"/><circle r="1" fill="#d0ebff" fill-opacity=".4" transform="rotate(-178.9 53 84) scale(83.32061 20.81239)"/><ellipse cx="60" cy="78" fill="#413e3d" fill-opacity=".4" rx="106" ry="56"/><ellipse cx="236" cy="74" fill="#2f0000" fill-opacity=".6" rx="8" ry="35"/><path fill="#d7dae8" fill-opacity=".6" d="M216.4 130.4l17.3-11.6-30.6-22.2-2.6 25.6z"/><path fill="#e7cbb8" fill-opacity=".5" d="M97 82h24v33H97z"/><path fill="#291a02" fill-opacity=".5" d="M110 84.7l87.7-55.4-59.6 3.5-24.2 39.6z"/><ellipse cx="255" cy="133" fill="#1d272e" fill-opacity=".7" rx="18" ry="46"/><path fill-opacity=".6" d="M89 95l-15 29-12-76z"/><circle r="1" fill="#adc7db" fill-opacity=".4" transform="matrix(-31.90145 .39937 -.0982 -7.84479 40.5 118.6)"/><ellipse cx="193" cy="95" fill="#181919" fill-opacity=".7" rx="7" ry="45"/><path fill="#fffee8" fill-opacity=".3" d="M153.4 78.5l26.5 27.6-2.9 11.2 22.8-86.4z"/><path fill="#0a100f" fill-opacity=".5" d="M0 71h37v42H0z"/><path fill="#948d86" fill-opacity=".6" d="M44 72L31 39l116-22z"/><path fill="#fff" fill-opacity=".5" d="M199 44h25v21h-25z"/><path fill="#ebffff" fill-opacity=".5" d="M11 134h4v36h-4z"/><path fill="#8f9a9e" fill-opacity=".7" d="M234 164.9l-64.6 13.7L164 153l64.6-13.7z"/><path fill="#d10803" fill-opacity=".5" d="M219 74h12v39h-12z"/><path fill="#0c1116" fill-opacity=".7" d="M185.2 126.5l-46.2 34-2.1-36.6 3.8-54.9z"/><circle r="1" fill="#160f04" fill-opacity=".6" transform="rotate(-164.2 52.8 25) scale(9.45752 17.58527)"/><path fill="#d9d5d8" fill-opacity=".7" d="M271 38.7l-95 5.1 90-20.3-20.1 46.1z"/><circle r="1" fill="#9699a5" fill-opacity=".5" transform="matrix(19.73974 50.4744 -5.25727 2.05604 51.4 74.1)"/><path fill="#07040b" fill-opacity=".6" d="M114 139.2l-18 1.5-2-23.9 18-1.5z"/><path fill-opacity=".5" d="M80 45.8l-7.1 44.4-12.8-2 7-44.4z"/><ellipse cx="209" cy="84" fill="#f3cd57" fill-opacity=".3" rx="9" ry="18"/><circle r="1" fill="#f8f5f8" fill-opacity=".6" transform="matrix(-2.55117 1.70142 -11.97845 -17.96092 250 52.7)"/><path fill="#beaa89" fill-opacity=".5" d="M108 41h17v22h-17z"/><path fill="#364b57" fill-opacity=".5" d="M88 125l-77-1 8 57z"/><ellipse cx="178" cy="68" fill="#2e1400" fill-opacity=".3" rx="121" ry="4"/><circle r="1" fill="#d2cbc6" fill-opacity=".6" transform="matrix(-76.51623 8.5923 -.45397 -4.0427 200.2 19.8)"/><ellipse cx="49" cy="15" fill="#b2c0e6" fill-opacity=".4" rx="50" ry="7"/><circle r="1" fill="#363941" fill-opacity=".8" transform="matrix(15.76493 -13.93076 12.45708 14.09722 12.2 38)"/><path fill="#db8400" fill-opacity=".5" d="M86 84l16-6-8 26z"/><path fill="#242831" fill-opacity=".4" d="M39 27h24v27H39z"/><path fill="#f6cdb8" fill-opacity=".6" d="M128.5 119.2l-1.6-1 1-5.7 11.7 3.7z"/><path fill="#b0b6bf" fill-opacity=".5" d="M119.8 178.8l-43.5 6.9-6-38.5 43.4-6.9z"/><circle r="1" fill="#48351f" fill-opacity=".5" transform="rotate(-100.3 128.7 -88.5) scale(2.06549 56.01953)"/><path fill="#e5f0ff" fill-opacity=".4" d="M40.7 95.5l-5-16.5 4.5-6.8 5.1 13.4z"/><path fill="#fffffb" fill-opacity=".5" d="M38 55.3l-4 .3-2-31 4-.2z"/><circle r="1" fill="#c9bfb4" fill-opacity=".6" transform="rotate(81.6 11.3 76) scale(9.97254 3.71311)"/><circle r="1" fill="#7d7d73" fill-opacity=".9" transform="rotate(-96.9 79.2 -69.7) scale(14.72928 27.27709)"/><path fill="#faf4f1" fill-opacity=".5" d="M172.4 59.5l21-24.2 8.2 7.2-21 24.2z"/><path fill="#d6dbe3" fill-opacity=".5" d="M149 80h37v5h-37z"/><path fill="#1e201d" fill-opacity=".6" d="M198 74l3 71-39-22z"/><path fill="#ad7150" fill-opacity=".5" d="M191 102l38-50v39z"/><path fill="#7d8ba2" d="M137.3 93.5l-2.1 14.4-.8-3.8-.7-12.9z"/><ellipse cx="45" cy="118" fill="#dfe9f5" fill-opacity=".4" rx="23" ry="3"/><path fill="#370001" fill-opacity=".6" d="M230.8 87.5l2.8-25.3 15 12.1-18.9 42.9z"/><path fill="#e4edf1" fill-opacity=".7" d="M10 136.5l4 14.5-2 .5L8 137z"/><path fill="#151a27" fill-opacity=".6" d="M63 107l-20 8 32-3z"/><path fill="#a9a3a2" fill-opacity=".5" d="M74.6 32.6L55.2 79.4 65 28.8l23.4 31.4z"/><path fill="#becdd6" fill-opacity=".3" d="M233.4 118.7l-3.1 16.1-28.3.2V88.6z"/><path fill="#1e221b" fill-opacity=".8" d="M-16 185v-27.8l14.4-62.7 17.1 85.6z"/><path fill="#957b72" fill-opacity=".9" d="M236.8 104.4l5.1 1.9 9.1-30.8-21 43.5z"/><path fill="#141927" fill-opacity=".5" d="M183 59l10 31 8-22z"/><path fill="#574315" fill-opacity=".6" d="M247 41l22-11-4 31z"/><path fill="#16191d" fill-opacity=".6" d="M202.9 106.6L126 92.5l-13.2-24.8 74.6 73.8z"/><path fill="#baabab" fill-opacity=".5" d="M112 73l-19 27 33-4z"/><path fill="#a79876" fill-opacity=".4" d="M194.2 27.6l-12.8 25.8-24.1 13.1 2.5-22.3z"/><path fill="#060402" fill-opacity=".4" d="M137.7 34.8l51.9-3.6-67.3 16 15.1 24.3z"/><path fill="#caa78d" fill-opacity=".4" d="M122.9 89.5l5.6-19.7 9.9 6.3-60.2 29.4z"/><path fill="#404242" fill-opacity=".5" d="M204.2 102.1L181 94.4l-6.2-13.1-19.2 42.6z"/></g></svg>