<svg xmlns="http://www.w3.org/2000/svg" viewBox="0 0 300 199"><defs/><path fill="#49362c" d="M0 0h300v199H0z"/><g transform="translate(.6 .6) scale(1.17188)"><circle r="1" fill="#d1c5c1" fill-opacity=".6" transform="rotate(-112.2 106.9 27.7) scale(97.56246 46.40615)"/><circle r="1" fill="#aea4a8" fill-opacity=".7" transform="matrix(23.02498 -1.52932 13.4921 203.13324 252.4 100.2)"/><path fill="#816f5a" fill-opacity=".7" d="M178.3-3.4L137 104 15.7 57.4 57-50z"/><ellipse cx="146" cy="136" fill="#fff7f1" fill-opacity=".6" rx="24" ry="40"/><ellipse cx="77" cy="169" fill="#e6eaf1" fill-opacity=".9" rx="7" ry="91"/><path fill="#030b12" fill-opacity=".7" d="M84 147h41v23H84z"/><path fill="#fae6d2" fill-opacity=".5" d="M24.3-16L39 13.3 192.3-16l-50.5 30.3z"/><ellipse cx="47" cy="137" fill="#12181c" fill-opacity=".9" rx="25" ry="67"/><path fill="#361e02" fill-opacity=".3" d="M94 13h75v90H94z"/><path fill-opacity=".6" d="M96 166.3l-5 .7-11-79.3 5-.7z"/><circle r="1" fill="#ffc9be" fill-opacity=".5" transform="matrix(-10.86731 -3.69364 9.11041 -26.8044 80.5 67.6)"/><path fill="#ccbcb2" fill-opacity=".6" d="M51 2l19 34-35 29z"/><path fill="#362c26" fill-opacity=".7" d="M94.8 92l1.5 29 45.9-41.6-23 37.2z"/><path fill="#2c2c2c" fill-opacity=".5" d="M247 3h9v144h-9z"/><path fill="#fff" fill-opacity=".4" d="M97.4 172.7l-6.7-64.1 25.5 11.5 22.7-22.8z"/><circle r="1" fill="#f8fcdd" fill-opacity=".1" transform="rotate(-172.7 113.2 18.2) scale(28.35987 54.04782)"/><path fill="#ffe4c9" fill-opacity=".6" d="M115.9 86.8l-5.9 41.6-7.9-1.2 5.9-41.6z"/><circle r="1" fill="#1f2322" fill-opacity=".5" transform="matrix(-3.45453 16.09848 -28.99401 -6.22174 195.8 156.3)"/><path fill="#fff" fill-opacity=".5" d="M150 144l34 27-73 4z"/><path fill="#3c6754" fill-opacity=".5" d="M7 31l59 44-40 22z"/><ellipse cx="112" cy="161" fill-opacity=".6" rx="12" ry="13"/><path fill="#000004" fill-opacity=".5" d="M97 88h7v39h-7z"/><path fill="#a3adc2" fill-opacity=".6" d="M231 117h12v53h-12z"/><path fill-opacity=".5" d="M73 54l11-28-25 22z"/><circle r="1" fill="#091d10" fill-opacity=".6" transform="rotate(-171.6 114.1 64) scale(10.14907 41.60083)"/><path fill="#ffbca7" fill-opacity=".5" d="M121 66h12v15h-12z"/><circle r="1" fill="#53452e" transform="matrix(-34.8139 2.1293 -1.69612 -27.73134 162.5 34.8)"/><circle r="1" fill="#16171c" fill-opacity=".7" transform="matrix(15.6654 -54.99384 30.13329 8.5837 38.8 151.8)"/><path fill="#f0f8ff" fill-opacity=".7" d="M89.2 83l9.5 49.2-3.9.7-9.5-49z"/><path fill="#a47a5b" fill-opacity=".3" d="M193.7 73.3L176.3 119 165 164.1l-8.8-57.4z"/><path fill="#e7e7ed" fill-opacity=".7" d="M65.4 185l20.1-24.6L67.2 56l7.1 86.6z"/><path fill-opacity=".5" d="M117.8 119.1l-6-3.5 8.4-14.7 6 3.5z"/><path fill="#d3d4d7" fill-opacity=".9" d="M105.3 185l53.8-35.1-62.6 30.5-.6-41.1z"/><ellipse cx="225" fill="#b3927a" fill-opacity=".7" rx="26" ry="6"/><path fill="#121111" fill-opacity=".7" d="M101.6 117.9L91.2 87.8l-.2-8.9 9.6 9.3z"/><path fill="#000309" fill-opacity=".5" d="M85 117h7v53h-7z"/><path fill="#d2beb8" fill-opacity=".7" d="M108.6 150.3l60.5-33.6L96 129.8l20-39.6z"/><path fill="#5c5441" fill-opacity=".9" d="M89.9-4.6l31 52-52.3-10.6-1-23.2z"/><path fill="#464246" fill-opacity=".6" d="M223 95l-36 68 6-112z"/><path fill="#d4b1a2" fill-opacity=".6" d="M235 84l8-56-20-23z"/><path fill="#c9c6c0" fill-opacity=".6" d="M36 48h27v5H36z"/><circle cx="8" cy="25" r="3" fill="#feffef" fill-opacity=".5"/><path fill="#e2e4e9" fill-opacity=".9" d="M87.3 91.7l-10.2-9L80.2 185 66.5 77.8z"/><circle r="1" fill="#182716" fill-opacity=".5" transform="matrix(-6.10143 -.94455 2.7486 -17.75485 46.4 72.2)"/><path fill="#362c13" fill-opacity=".5" d="M224.9 42.8L178.8-.6l38.4 9.3 6.4-4.9z"/><path fill="#decbc5" fill-opacity=".5" d="M132.8 96.9l40.1 23.5-1.5 10.1-72.8 16.1z"/><path fill="#473423" fill-opacity=".7" d="M179.8 32.3L109.6 129l12-23.1 80.1-34.5z"/><path fill="#131316" fill-opacity=".7" d="M118.3 142.5l-14.6 33-5.6-28.3 27.1 12.6z"/><circle r="1" fill="#ddd7c8" fill-opacity=".5" transform="matrix(20.25686 -12.19675 4.25259 7.06287 140 0)"/><path fill="#537e69" fill-opacity=".6" d="M24 112l15-48-17 5z"/><ellipse cx="82" cy="148" fill="#e5eaf2" fill-opacity=".5" rx="3" ry="44"/><path fill="#cb9c8b" fill-opacity=".7" d="M77.1 40.4l21.8 5.2-6.2 24-14.5 28.1z"/><path fill="#433933" fill-opacity=".7" d="M166.2 160l6.6 3 52.5-3.4-51.5-40.3z"/><path fill="#292e26" fill-opacity=".7" d="M69 95.9l-1.7 10.2-41.6-61.4 40.1 41.4z"/><path fill="#646c6b" fill-opacity=".5" d="M226.9 51.9l-15.4-27.7-3.8 54.4 23.7 26.1z"/><path fill="#524630" fill-opacity=".6" d="M84.7 60.5l5.5-10.8 29.9 31 5.4-46z"/><path fill="#ca9d73" fill-opacity=".5" d="M55.6 46.5L68.7-16v41.2L57.8 65z"/><path fill="#9c948f" fill-opacity=".8" d="M82.2 87l-22-10.1 7.5-19.2L53.6 74z"/><path fill="#f9f9f9" fill-opacity=".5" d="M150 164h30v6h-30z"/><path fill="#fbdcc6" fill-opacity=".5" d="M157 131l-27-30 25-4z"/><path fill="#efc4ad" fill-opacity=".4" d="M110.9 138.4l-5.4-1.4-3.3-54.9L116.5 98z"/><path fill="#916349" fill-opacity=".5" d="M123.8 37l4.9 28.7 8.7 33 13.4-29.2z"/><path fill="#4e503a" fill-opacity=".7" d="M16 0h18v48H16z"/><path fill="#a38f69" fill-opacity=".5" d="M169 23h7v22h-7z"/><path fill="#0a080e" fill-opacity=".5" d="M182 159h48v11h-48z"/></g></svg>