<svg xmlns="http://www.w3.org/2000/svg" viewBox="0 0 300 199"><defs/><path fill="#6b493c" d="M0 0h300v199H0z"/><g transform="translate(.6 .6) scale(1.17188)"><circle r="1" fill="#01080b" fill-opacity=".7" transform="rotate(24.1 -231.5 533.6) scale(58.82202 231.14227)"/><circle r="1" fill="#090b13" fill-opacity=".7" transform="matrix(-39.75676 30.51182 -29.41697 -38.33017 27.5 119.6)"/><ellipse cx="112" cy="128" fill="#cea9a0" fill-opacity=".6" rx="33" ry="22"/><path fill="#93aa9c" fill-opacity=".6" d="M96 122l15-81-77 3z"/><path fill="#151416" fill-opacity=".7" d="M-8-15L8 81l70-97z"/><ellipse cx="156" cy="51" fill="#0f1417" fill-opacity=".9" rx="24" ry="26"/><path fill="#f8c5ab" fill-opacity=".4" d="M155 14l34-29 18 88z"/><circle cx="137" cy="25" r="10" fill="#fff" fill-opacity=".6"/><circle r="1" fill="#000100" fill-opacity=".7" transform="rotate(161.9 54.4 19.3) scale(10.77401 51.32702)"/><circle r="1" fill="#f4b1a5" fill-opacity=".5" transform="matrix(-22.4269 -.93997 .634 -15.12668 81.6 154)"/><path fill="#d28e6a" fill-opacity=".5" d="M205 62l56-9-26 31z"/><circle r="1" fill="#e0a18a" fill-opacity=".6" transform="matrix(-7.93559 -6.5416 6.33937 -7.69027 233.7 140.5)"/><path fill="#99957b" d="M56.4 49L64 25.6l-22.6 4.2L31.1 61z"/><path fill="#0f1013" fill-opacity=".9" d="M172.6 122.1L102.2 161l41.9 24L271 169.4z"/><path fill="#041009" fill-opacity=".5" d="M79.6 18.8l82.7-40.3 10 20.7-82.6 40.3z"/><circle r="1" fill="#000607" fill-opacity=".3" transform="matrix(-128.72639 -9.73036 .70317 -9.3025 149.9 96.2)"/><path fill="#f4ffd0" fill-opacity=".5" d="M132.2 26.5l12.4-9.8 10.5-2.2-31.3 38.9z"/><path fill="#ecffff" fill-opacity=".5" d="M190 44l-15-28-21-4z"/><path fill="#c5928a" fill-opacity=".8" d="M154.1 128.6l-8.4 12.4-8.4-44.1-38.1 34.4z"/><path fill="#0a0e0c" fill-opacity=".5" d="M214.8 52.8l19.9 54.6-39.8 77.6-8.2-135.8z"/><ellipse cx="233" cy="26" fill-opacity=".4" rx="50" ry="24"/><path fill="#1c1f1e" fill-opacity=".6" d="M201.4 79.2l-35.1-58.1-24.6 7.7-28.6 41z"/><ellipse cx="49" cy="112" fill="#070f14" fill-opacity=".6" rx="34" ry="28"/><ellipse cx="73" cy="29" fill="#95593f" fill-opacity=".6" rx="13" ry="30"/><path fill="#b3bcab" fill-opacity=".5" d="M79.4 71L93 35.5l19.6 7.5L99 78.5z"/><ellipse cx="1" cy="82" fill="#492f30" fill-opacity=".9" rx="12" ry="56"/><circle r="1" fill="#647668" fill-opacity=".5" transform="matrix(-10.45707 -5.11313 16.29953 -33.33484 99.4 108.9)"/><path fill="#02070b" fill-opacity=".5" d="M143 91h113v38H143z"/><path fill="#efeaea" fill-opacity=".5" d="M187 43l-1 15-6-14z"/><path fill="#1a191c" d="M21.4 93.2l-12.1-77 17.4 40.3 28.6 39.8z"/><path fill="#472c2d" fill-opacity=".8" d="M7.9 192.9l-9-29.7 59.2-18 9 29.6z"/><path fill="#e29689" fill-opacity=".6" d="M38 3L0-3l56-9z"/><path fill="#000504" fill-opacity=".6" d="M111.2 95.5l14.3-7.3 7.3 14.3-14.3 7.3z"/><path fill="#92ad9b" fill-opacity=".3" d="M33 66l72 41-57-85z"/><ellipse cx="204" cy="64" fill="#efbc43" fill-opacity=".4" rx="9" ry="4"/><path fill="#d4d776" fill-opacity=".2" d="M138.8 98.8l20.4-11.5 2.3-12.2-31.1-6.2z"/><path fill="#050a0b" fill-opacity=".6" d="M86 8h69v8H86z"/><path fill="#ac6040" fill-opacity=".5" d="M189.3 51.7l20.3-4.2-27.2-25.6L202.5-16z"/><path fill="#fcc6a3" fill-opacity=".3" d="M217.7 69.7l13.6 1.2 19.3-6.1 18.3-15.9z"/><circle r="1" fill="#46514e" fill-opacity=".7" transform="rotate(-25.9 415.8 -132.9) scale(19.47636 8.79709)"/><ellipse cx="119" cy="35" fill="#000707" fill-opacity=".6" rx="8" ry="32"/><path fill="#462d1d" fill-opacity=".5" d="M107.8 23.2l-38.9 6.1 8.4 21.4 28.4-15.4z"/><path fill="#c8c9c7" fill-opacity=".5" d="M232 137l-5 17-2-22z"/><circle r="1" fill="#f0ffd8" fill-opacity=".5" transform="rotate(-85.2 81.2 -65.4) scale(4.23472 11.54337)"/><path fill="#7c4d36" fill-opacity=".8" d="M147.8 10.2L160-16h76.6L166.7 7.5z"/><circle r="1" fill="#cb9588" fill-opacity=".6" transform="matrix(-33.74742 15.59765 -3.63304 -7.86052 98.5 147.6)"/><path fill="#f2afac" fill-opacity=".5" d="M139 140l16-14-16 6z"/><circle r="1" fill="#8a9d98" fill-opacity=".6" transform="rotate(74.7 -27.8 113) scale(15.42976 6.0843)"/><path fill="#000401" fill-opacity=".4" d="M28.3 40.2l-12.6-18 32-22.4 12.6 18z"/><path fill="#587968" fill-opacity=".5" d="M106 50h9v64h-9z"/><path fill="#ca9b7b" fill-opacity=".6" d="M79.2.6l6.2 6.5-8.6 8.3-6.2-6.5z"/><path fill="#8b4a42" fill-opacity=".5" d="M222 74l1 11 27-10z"/><path fill="#3b2e1a" fill-opacity=".3" d="M163.1 91.2L85.3 95l-58.2 5.4 99.6-24.1z"/><path fill="#32281e" fill-opacity=".7" d="M84 37.5v-69h16v69z"/><path fill="#e4d7c3" fill-opacity=".5" d="M51 26L39 40l22-5z"/><circle r="1" fill="#070a0f" fill-opacity=".5" transform="rotate(64.8 -85 101) scale(16.92353 42.41369)"/><path fill="#c58373" fill-opacity=".5" d="M125.9 104.1l-51.1 71.8-19.7-26.5 36.7-16z"/><path fill="#121417" fill-opacity=".8" d="M153.4 19.8l-14.3 15.6 89.5 121.1-64.9-132.9z"/><path fill="#ddbcb1" fill-opacity=".5" d="M174.6 29.5l-10.8-5.2 9.6-19.8 10.8 5.2z"/><circle r="1" fill="#070e0e" fill-opacity=".7" transform="matrix(1.88792 -42.63747 31.1025 1.37717 230.2 15.5)"/><path fill="#fcfdd4" fill-opacity=".4" d="M128.3 29.5l-.4 23.2.5-4.3 19.8-27.7z"/><path fill="#070808" fill-opacity=".5" d="M271 76l-40.5 6.6L260.1 185l-9.5-125.9z"/><path fill="#7b7560" fill-opacity=".7" d="M34.6 69.2L20.2 41.5l48.2 48.7-28.5-45.9z"/><path fill="#c88b6e" fill-opacity=".5" d="M222 132h24v5h-24z"/><path fill="#7b413b" fill-opacity=".5" d="M223 154l25-22-5 18z"/></g></svg>