<svg xmlns="http://www.w3.org/2000/svg" viewBox="0 0 299 449"><defs/><path fill="#483e32" d="M0 0h299v449H0z"/><g transform="translate(.9 .9) scale(1.7539)"><circle cx="125" cy="205" r="209" fill="#f7ffff" fill-opacity=".5"/><circle cx="102" cy="198" r="69" fill="#f2f7f3" fill-opacity=".4"/><circle cx="46" cy="33" r="64" fill="#726d67" fill-opacity=".8"/><circle r="1" fill="#181808" fill-opacity=".4" transform="matrix(29.57811 -4.8252 6.72797 41.24202 10.8 201.1)"/><ellipse cx="140" cy="53" fill="#070000" fill-opacity=".7" rx="5" ry="117"/><ellipse cx="99" cy="47" fill="#100805" fill-opacity=".9" rx="6" ry="62"/><ellipse cx="83" cy="22" fill="#edf7fc" fill-opacity=".8" rx="10" ry="45"/><path fill="#3d2d24" fill-opacity=".9" d="M186 77.9v8.4L27.4 77 131 71.7z"/><path fill="#eefeff" fill-opacity=".7" d="M134.4 56.2l-28-1.5 3.2-58.9 28 1.5z"/><path fill="#322c12" fill-opacity=".6" d="M44 0h30v77H44z"/><path fill="#efffff" fill-opacity=".6" d="M150 0h21v33h-21z"/><path fill="#eddee9" fill-opacity=".7" d="M7.6 75.8L2 34.7l6.2-14.1 8.2 69.1z"/><circle r="1" fill="#9e9481" fill-opacity=".6" transform="matrix(31.28 112.25793 -18.4053 5.12853 40.5 188)"/><ellipse cx="84" cy="141" fill="#fffef7" fill-opacity=".5" rx="38" ry="17"/><path fill="#dbeffb" fill-opacity=".6" d="M28.1 31l3.5 35.6L43.8 72 32.5 8.9z"/><ellipse cx="21" cy="250" fill="#dfdfd6" fill-opacity=".8" rx="112" ry="7"/><path fill="#010c0e" fill-opacity=".3" d="M-13.3 172.7l2.8 66.6 88.9 6.1-41.8-14.9z"/><path fill="#6b6e6a" fill-opacity=".5" d="M145 177l-22-42 21-23z"/><circle r="1" fill="#feffff" fill-opacity=".4" transform="rotate(136.5 36.2 131.3) scale(15.80595 76.96135)"/><circle r="1" fill="#4e7386" fill-opacity=".5" transform="matrix(-5.54635 4.6675 -26.17377 -31.1021 131.3 238.4)"/><ellipse cx="84" cy="122" fill="#f7eee8" fill-opacity=".3" rx="9" ry="181"/><path fill="#3d2a18" fill-opacity=".7" d="M9.2 132.5l-5.5-16.4 22.5 19.5-5.6 10.7z"/><path fill="#433325" fill-opacity=".7" d="M9.5 96.9L68.2 54l15.2 6.7-3.2 9.9z"/><path fill="#fff" fill-opacity=".5" d="M36.9-10.2L41.6 6 27 10.2 22.4-6z"/><ellipse cx="142" cy="21" fill="#020000" fill-opacity=".5" rx="5" ry="38"/><path fill-opacity=".5" d="M25 58h6v24h-6z"/><path fill="#facf99" fill-opacity=".5" d="M34.8 86.3l16.6 3.2-8.2 42.2-16.6-3.2z"/><path fill="#acb2ad" fill-opacity=".6" d="M186 196l-46-28 4-76z"/><path fill="#34302b" d="M10.7 22.1l75-38.1-62 38L-16 34.6z"/><path fill="#140000" fill-opacity=".4" d="M135 110h5v55h-5z"/><path fill="#d7dcd9" fill-opacity=".7" d="M4.3 123.8l-1-36.4L-16 166l31.7-16.7z"/><circle r="1" fill="#160c0a" fill-opacity=".6" transform="matrix(-24.54065 1.32907 -.1047 -1.93337 26 78.5)"/><circle r="1" fill="#111b25" fill-opacity=".5" transform="matrix(-2.6545 .10198 -1.73626 -45.196 25 28)"/><circle r="1" fill="#cfbba7" fill-opacity=".7" transform="rotate(-139.2 66.3 39.8) scale(24.48106 11.07754)"/><path fill="#f1f9fa" fill-opacity=".4" d="M42.3 16.2l3.4 39.3-7.1-30.8-1.8-15.8z"/><path fill="#c3d6ea" fill-opacity=".4" d="M152 74l30-4-33-55z"/><path fill="#c4c5bf" fill-opacity=".6" d="M43 147h33v71H43z"/><circle r="1" fill="#4d342a" fill-opacity=".5" transform="rotate(58.7 -38.5 139.4) scale(16.42044 4.4195)"/><path fill="#e0e8f0" fill-opacity=".5" d="M108 0h22v71h-22z"/><path fill="#d6d2ce" fill-opacity=".4" d="M147 85h24v46h-24z"/><path fill="#c4c6c4" fill-opacity=".5" d="M108 83h27v47h-27z"/><circle cx="1" cy="17" r="7" fill="#cdd7e2" fill-opacity=".5"/><circle r="1" fill="#c3c7c3" fill-opacity=".6" transform="matrix(-2.62226 -.2248 4.35981 -50.855 41.4 195.2)"/><ellipse cx="138" cy="58" fill="#0c0000" fill-opacity=".5" rx="4" ry="28"/><circle r="1" fill="#342023" fill-opacity=".4" transform="matrix(7.25736 58.30875 -.99234 .12351 6 79.6)"/><path fill="#975735" fill-opacity=".4" d="M89 100l-7 17 18 10z"/><ellipse cx="96" cy="16" fill="#19181b" fill-opacity=".5" rx="4" ry="87"/><circle r="1" fill="#87acc7" fill-opacity=".6" transform="matrix(71.2884 -62.35024 8.87504 10.14731 151.8 255)"/><path fill="#9c97a1" fill-opacity=".7" d="M26.3 77.3L20.1 25 13 36.6 16.8 72z"/><path fill="#1b140c" fill-opacity=".6" d="M60.5-16L-.7 12.6l-2.1 3.1-7.6-3.9z"/><path fill="#bc9474" fill-opacity=".4" d="M59.2 125.6L38.8 103l22.8-25.3 26.2-9.5z"/><path fill="#584c2a" fill-opacity=".1" d="M106 217.8l-16.5-66 14.6-3.6 16.4 66z"/><circle r="1" fill="#8a846c" fill-opacity=".6" transform="rotate(-163.7 26 86.4) scale(13.28316 31.58511)"/><path fill="#383427" fill-opacity=".5" d="M48 91l-8-49 19 39z"/><circle cx="15" cy="13" r="5" fill="#e3d4de" fill-opacity=".5"/><path fill="#dadbd4" d="M77.7 271l55.2-18.3-23.6-26.7-27.9-6.2z"/><path fill="#8da6b0" fill-opacity=".5" d="M28.4 62.3l-4.7-33.7 5.9-.9 4.7 33.7z"/><path fill="#0a0000" fill-opacity=".4" d="M83 75h88v6H83z"/><path fill="#4d5e72" fill-opacity=".4" d="M141 134.6l13.6 12.1 10.6-1.3 20.8-8.2z"/><path fill="#f4f0e6" fill-opacity=".4" d="M87 90l68 100-49-32z"/><path fill="#888474" fill-opacity=".7" d="M20.7 103.7l17.2 79.7-53.9-21 37.6-4.1z"/><path fill="#c7d0d5" fill-opacity=".6" d="M83.3 77.7l-.2-27.6 9.1-41.5 1.4 62z"/><path fill="#d8d7d2" fill-opacity=".4" d="M83 135l-18-28 19-36z"/><path fill="#060000" fill-opacity=".6" d="M28.7 65.6l-10.4-49 1-.2 10.4 49z"/><path fill="#060c16" fill-opacity=".6" d="M40.6 34l-2 .4L33.4 10l2-.4z"/></g></svg>