<svg xmlns="http://www.w3.org/2000/svg" viewBox="0 0 300 199"><defs/><path fill="#48352c" d="M0 0h300v199H0z"/><g transform="translate(.6 .6) scale(1.17188)"><circle r="1" fill="#ecf8f7" fill-opacity=".8" transform="matrix(34.85689 30.59043 -161.02825 183.48694 33.7 25.5)"/><circle r="1" fill="#edfffe" fill-opacity=".7" transform="rotate(-106.3 132.7 -65.7) scale(255 34.30688)"/><path fill="#e9d7ce" fill-opacity=".5" d="M104 30h56v72h-56z"/><ellipse cx="18" cy="107" fill="#feffff" fill-opacity=".5" rx="14" ry="169"/><path fill="#0c2538" fill-opacity=".6" d="M37 50h71v120H37z"/><ellipse cx="185" cy="115" fill-opacity=".7" rx="34" ry="67"/><path fill="#b9c0cf" fill-opacity=".8" d="M247.7 117l-11.9 61-25.5-5 11.9-61z"/><path fill="#fff" fill-opacity=".6" d="M51 11h60v30H51z"/><path fill="#e5f0f0" fill-opacity=".5" d="M114 71h16v60h-16z"/><path fill="#c7ceca" fill-opacity=".9" d="M119.6-16l-7.9 12.6 93.6.6-62.8 14.2z"/><circle r="1" fill="#000104" fill-opacity=".7" transform="matrix(28.0103 17.99225 -41.86014 65.1678 146.1 159.5)"/><path fill="#35231c" fill-opacity=".8" d="M104.1 6.7l50.4 12.9-35.6 54.3 23.2-5.9z"/><path fill="#8e9a9c" fill-opacity=".8" d="M9.7 203L-36.8 88 .3 73l46.5 115z"/><circle r="1" fill="#dc9d87" fill-opacity=".7" transform="matrix(10.73512 -1.60438 3.4251 22.91787 155.6 42.6)"/><ellipse cx="42" cy="11" fill="#92a09c" rx="8" ry="58"/><circle r="1" fill="#cfd6ce" fill-opacity=".7" transform="matrix(11.97122 -10.58685 40.69522 46.01665 225.4 48.6)"/><path fill="#3b3f41" fill-opacity=".7" d="M-8.9 159.5l47.3-12.7 10.2-9.2-64.6-.3z"/><path fill="#304253" fill-opacity=".8" d="M29.5 144.1l-6.9-7.8 6.5-39.8 47.6-54.7z"/><circle r="1" fill="#fff" fill-opacity=".5" transform="matrix(5.66068 82.9005 -19.87464 1.3571 16 31.3)"/><path fill="#dcebfa" fill-opacity=".7" d="M-5 173l55 12-23-35z"/><circle r="1" fill="#dacec5" fill-opacity=".5" transform="matrix(30.46579 1.09241 -.3182 8.87405 128.7 85.2)"/><path fill="#0e0d0a" fill-opacity=".6" d="M173 103l-29-33 62-28z"/><path fill="#362a05" fill-opacity=".3" d="M237.6 49.1l1.3 57.8-39.4 3.8 60.7-1.5z"/><circle r="1" fill="#facabe" fill-opacity=".7" transform="matrix(1.6401 14.48054 -10.76549 1.21932 115.6 47.2)"/><ellipse cx="17" cy="122" fill="#fff" fill-opacity=".6" rx="6" ry="16"/><path fill="#f4fff9" fill-opacity=".3" d="M212 0h25v95h-25z"/><circle r="1" fill="#222c37" fill-opacity=".6" transform="rotate(-103.6 67.3 4.9) scale(25.68368 33.89111)"/><path fill="#01060c" fill-opacity=".8" d="M104.6 115.5l4.9-9.9 9.9 4.9-4.9 9.9z"/><path fill="#ffe1de" fill-opacity=".6" d="M133.7 118.6l-6.4-7.1-12.1 7.3 8.5 13.2z"/><path fill="#0e1500" fill-opacity=".2" d="M-16 66l28 13-6 95z"/><ellipse cx="74" cy="12" fill="#f1fbfa" fill-opacity=".5" rx="26" ry="33"/><path fill="#e9f3ec" fill-opacity=".6" d="M132.7 56.4l19.1 13.5-9.5-21.2-.2-3.8z"/><path fill="#c5cbc5" d="M144.3 15.8L130.1-16l77.4 25.1L157.8.8z"/><circle r="1" fill="#010000" fill-opacity=".4" transform="matrix(-5.11856 4.02791 -21.3341 -27.11081 181.9 31.4)"/><path fill="#3a5745" fill-opacity=".6" d="M123 108.7l37 5.9 1.9-21.2-39.4 5z"/><path fill="#06090b" fill-opacity=".7" d="M222 103l-71-38 54 120z"/><path fill="#1f3344" fill-opacity=".7" d="M101 57H78l20-27z"/><ellipse cx="70" cy="114" fill="#4a6075" fill-opacity=".4" rx="8" ry="35"/><path fill="#825b4e" fill-opacity=".6" d="M105.2 30.4l2.6-46.4 13.6 58.7 59 3.5z"/><ellipse cx="102" cy="150" fill="#080b0f" fill-opacity=".6" rx="10" ry="54"/><ellipse cx="52" cy="126" fill-opacity=".5" rx="10" ry="22"/><path fill="#fff" fill-opacity=".4" d="M43 62l-22 58-37-132z"/><path fill="#fff" fill-opacity=".5" d="M113 123h2v22h-2z"/><path fill="#090000" fill-opacity=".4" d="M129.9 43.2l4.2 14.1 10.1 11.3-23.2 6.5z"/><circle r="1" fill="#a3a8b9" fill-opacity=".7" transform="matrix(-39.00492 33.63473 -21.0298 -24.38746 252 160)"/><path fill-opacity=".4" d="M141 6L113-5l32 51z"/><path fill="#1b242c" fill-opacity=".9" d="M96.5 83.6l17.2-11.7 3.2-.6-22.1-30.8z"/><path fill="#f7af95" fill-opacity=".2" d="M142.4 58.3l9.1-39.9 29.8 39.5-29.1 11.3z"/><circle r="1" fill="#fff" fill-opacity=".6" transform="matrix(13.45732 -10.91277 2.37548 2.92937 61.6 43.2)"/><path fill="#bbcbc5" fill-opacity=".9" d="M113.7 71.7l-7.9 32.1 5.6-4.9 18.9.5z"/><path fill="#e4d5cc" fill-opacity=".4" d="M149.8 76.4l-41.3 13.9-7.8-4.1 17.2-17.1z"/><ellipse cx="241" fill="#9da99f" fill-opacity=".7" rx="6" ry="79"/><path fill="#95806c" fill-opacity=".6" d="M158 96l-16-20 15 4z"/><path fill="#c6c3b1" fill-opacity=".7" d="M208 51l-15-16 24-51z"/><path fill="#4a0800" fill-opacity=".5" d="M115 42l11 1-9 5z"/><path fill="#727b6b" fill-opacity=".4" d="M79.6-6l23.9 3-1.1 9-23.9-3z"/><path fill="#fff5ec" fill-opacity=".4" d="M113 28l-3 33-11-26z"/><path fill="#151f1b" fill-opacity=".4" d="M-6 113l-10-20 35 22z"/><path fill="#a0aa9d" fill-opacity=".5" d="M226 0h4v83h-4z"/><ellipse cx="149" cy="145" fill="#000304" fill-opacity=".6" rx="24" ry="35"/><path fill="#321b0f" fill-opacity=".6" d="M163.6 20.4l-13 .2-.2-15 13-.2z"/><path fill="#3f5569" fill-opacity=".6" d="M22.7 119.7l13.7-37.4 13.1 28-28.4 20.4z"/><ellipse cx="10" cy="24" fill="#fffffd" fill-opacity=".8" rx="24" ry="52"/><path fill="#422406" fill-opacity=".3" d="M271 107.6l-31.6-10.1 6.5-7.4-9.4 21.3z"/><path fill="#ecfbff" fill-opacity=".4" d="M239 87l-2 25-29-54z"/></g></svg>