<svg xmlns="http://www.w3.org/2000/svg" viewBox="0 0 300 199"><defs/><path fill="#754435" d="M0 0h300v199H0z"/><g transform="translate(.6 .6) scale(1.17188)"><circle r="1" fill="#c9f8e5" fill-opacity=".5" transform="matrix(192.45094 -167.29505 37.53148 43.17503 41.8 27.2)"/><circle r="1" fill="#521a15" fill-opacity=".7" transform="matrix(-23.91437 -2.4713 4.15481 -40.20528 47 79.2)"/><ellipse cx="8" cy="104" fill="#fadfdd" fill-opacity=".7" rx="15" ry="55"/><ellipse cx="79" cy="141" fill="#ffe0d4" fill-opacity=".5" rx="11" ry="100"/><ellipse cx="220" cy="134" fill="#070c08" fill-opacity=".5" rx="66" ry="37"/><circle r="1" fill="#cee3d3" fill-opacity=".7" transform="matrix(-7.99426 .88257 -7.81842 -70.81839 143.7 16.5)"/><circle cx="201" cy="11" r="51" fill="#000a16" fill-opacity=".5"/><path fill="#4a291e" d="M107.6 23.1l-12.2 22 65.7 101.3-31.3-120.7z"/><circle r="1" fill="#a6a0ad" fill-opacity=".5" transform="rotate(85.4 67.7 159.7) scale(21.46508 41.97115)"/><path fill="#ed3b16" fill-opacity=".5" d="M16 110h54v60H16z"/><circle r="1" fill="#c9dabd" fill-opacity=".7" transform="rotate(96.7 27.8 27.7) scale(18.47802 92.18664)"/><ellipse cx="166" cy="41" fill="#000008" fill-opacity=".7" rx="13" ry="44"/><path fill="#110705" fill-opacity=".7" d="M271 5l-73-21 49 82z"/><path fill="#fbf398" fill-opacity=".4" d="M143 126.3l-10.2 24.2 4.7 9.1 48.2 18.5z"/><path fill="#deedf7" fill-opacity=".5" d="M174 19l12 36-4-68z"/><path fill="#be9b92" fill-opacity=".5" d="M201.4-4l-.7 92.4 29-34.4-39.1-35.4z"/><circle cx="119" cy="98" r="36" fill="#593021" fill-opacity=".8"/><ellipse cx="68" cy="70" fill="#c9a089" fill-opacity=".4" rx="29" ry="18"/><circle r="1" fill="#f2a99b" fill-opacity=".2" transform="matrix(-23.09095 44.662 -31.82697 -16.45504 83.4 166.6)"/><path fill="#000002" fill-opacity=".5" d="M25 52h17v46H25z"/><path fill="#321e26" fill-opacity=".5" d="M50 34l29 46-15 20z"/><circle r="1" fill="#4d2c1b" fill-opacity=".7" transform="matrix(5.5691 28.14507 -21.11511 4.17807 167.6 100.5)"/><path fill="#200000" fill-opacity=".4" d="M262.7 108.6L256 116l-46.8-40.7L216 68z"/><circle r="1" fill="#f4fff2" fill-opacity=".3" transform="rotate(-120.7 142.5 -29.3) scale(8.46468 20.03802)"/><path fill="#bd9a89" fill-opacity=".6" d="M214 38l-20-15V-6z"/><path fill="#cfd4c1" fill-opacity=".7" d="M153 37l-4-52L89 2z"/><circle r="1" fill="#770e07" fill-opacity=".5" transform="matrix(4.30008 -7.38273 22.25552 12.96275 42.6 109.4)"/><path fill="#403943" fill-opacity=".8" d="M-10 152l24 33-1-30z"/><path fill="#000001" fill-opacity=".4" d="M127.7 58.8L96 39.8l12.3-20.6 31.7 19z"/><path fill="#ff8344" fill-opacity=".5" d="M60 139v46l-27-72z"/><ellipse cx="190" cy="48" fill="#000001" fill-opacity=".7" rx="6" ry="19"/><ellipse cx="183" cy="57" fill="#ab9f99" fill-opacity=".6" rx="3" ry="22"/><path fill="#81af92" fill-opacity=".6" d="M-16.8 28.2l107.3-19 4.3 24.6-107.3 19z"/><path fill="#e69262" fill-opacity=".4" d="M40 62h28v21H40z"/><path fill="#f9dfc9" fill-opacity=".5" d="M72 98h9v63h-9z"/><path fill="#44201c" fill-opacity=".4" d="M140.3 103L93.4 67.6l-4.3 85.1-7.2-46z"/><path fill="#080c17" fill-opacity=".6" d="M34 43h31v11H34z"/><path fill="#e7d1c2" fill-opacity=".6" d="M20 50l-36-3 40 38z"/><circle r="1" fill="#820401" fill-opacity=".5" transform="matrix(-.04822 -27.91692 10.58278 -.01828 32.6 153.4)"/><circle r="1" fill="#692d14" fill-opacity=".4" transform="rotate(-135 121.4 -25.9) scale(31.7845 17.2094)"/><path fill="#f5fdfe" fill-opacity=".3" d="M92 35L63 60l21 15z"/><ellipse cx="7" cy="120" fill="#e1e3f4" fill-opacity=".5" rx="10" ry="35"/><circle r="1" fill="#68575c" fill-opacity=".5" transform="matrix(1.3544 -7.1 29.8144 5.6874 243.5 133.8)"/><path fill="#b7aec4" fill-opacity=".5" d="M142 72h67v4h-67z"/><path fill="#892319" fill-opacity=".7" d="M46.5 97.5l21.6 65.7 3.2-23.8-4.6-33.6z"/><path fill="#cba194" fill-opacity=".7" d="M98.7 150L92 192.5 63.3 188l6.7-42.5z"/><path fill-opacity=".5" d="M157 72h25l-31-88z"/><ellipse cx="188" cy="19" fill="#000001" fill-opacity=".6" rx="5" ry="38"/><path fill="#2d1404" fill-opacity=".5" d="M156 91l47 3 35 91z"/><path fill="#df7e54" fill-opacity=".7" d="M16.6 170.7l11.7-76.9-11.1 13.4-4.5 75.1z"/><ellipse cx="219" cy="97" fill="#9a9596" fill-opacity=".3" rx="15" ry="12"/><path fill="#6c441d" fill-opacity=".5" d="M145.8 92.8l7.4 62.5 53.2 19.5-87.3-62.6z"/><path fill="#ab7d60" fill-opacity=".6" d="M97.1 30.1l-9.4 32.7-7.5 58.3 21.7-75z"/><circle r="1" fill="#241610" fill-opacity=".7" transform="rotate(13.1 -579 1167.7) scale(89.99727 11.02582)"/><path fill="#2d0002" fill-opacity=".5" d="M265.1 96.7l-40.3-13.3 46.2 38.5-39 2.1z"/><path fill="#c3bdbd" fill-opacity=".4" d="M203.2 3.6l-3.7 28.3-7.6-15.7-1.8-6.1z"/><path fill="#c6c5b3" fill-opacity=".5" d="M145 51l7 19-15 1z"/><path fill="#070007" fill-opacity=".3" d="M52.9 77.1l21.9-13L76 93.7 58.4 49.8z"/><path fill="#d0b4c7" fill-opacity=".4" d="M223.6 56.2l4.7-.9-34.8 19.4-25.1 2.3z"/><circle cx="77" cy="26" r="23" fill="#9eb79d" fill-opacity=".6"/><ellipse cx="178" cy="5" fill="#8d8f9d" fill-opacity=".4" rx="4" ry="53"/><path fill="#000004" fill-opacity=".5" d="M153 10h24v34h-24z"/><path fill="#729276" fill-opacity=".6" d="M27 58l-3-36-38 4z"/><path fill="#070000" fill-opacity=".6" d="M216 83l-2-14 5-4z"/><path fill="#060101" fill-opacity=".5" d="M236 60l35-13-34-56z"/></g></svg>