<svg xmlns="http://www.w3.org/2000/svg" viewBox="0 0 300 199"><defs/><path fill="#444343" d="M0 0h300v199H0z"/><g transform="translate(.6 .6) scale(1.17188)"><circle r="1" fill="#d2d2d2" fill-opacity=".8" transform="matrix(-3.9355 -62.33271 254.49326 -16.06795 118 13.6)"/><circle cx="179" cy="118" r="48" fill="#eff2f2" fill-opacity=".2"/><circle r="1" fill="#b7b8b8" fill-opacity=".4" transform="matrix(-64.86934 -61.70454 20.73034 -21.7936 26 80)"/><circle r="1" fill-opacity=".7" transform="rotate(-27.3 466 -402) scale(89.67365 28.18166)"/><ellipse cx="120" cy="89" fill="#1d1d1d" fill-opacity=".4" rx="47" ry="31"/><path fill-opacity=".6" d="M26 27h17v19H26z"/><path fill="#fff" fill-opacity=".6" d="M94.2 30.2l-2.3-43 66-3.4 2.2 43z"/><circle r="1" fill="#c5c6c6" fill-opacity=".5" transform="rotate(-155.6 121.7 31.6) scale(73.59949 4.2695)"/><circle r="1" fill="#010101" fill-opacity=".8" transform="matrix(5.5427 -27.06426 19.291 3.95076 30.6 169)"/><path fill="#f0f0f0" fill-opacity=".6" d="M149 25l17 38 79-65z"/><circle r="1" fill="#060606" fill-opacity=".9" transform="matrix(16.21473 6.64487 -6.67968 16.29967 94 95.4)"/><path fill="#eee" fill-opacity=".5" d="M246.7 75.9l-25.4-9.3 14-38.5 25.4 9.3z"/><path fill-opacity=".6" d="M226.8 109.3l9.7-38.8 40.7 10.2-9.7 38.8z"/><circle r="1" fill="#9e9e9e" fill-opacity=".6" transform="matrix(13.268 7.32433 -19.3167 34.99212 70.4 72.9)"/><ellipse cx="119" cy="61" fill="#050505" fill-opacity=".5" rx="4" ry="34"/><ellipse cx="112" cy="37" fill="#fff" fill-opacity=".3" rx="5" ry="125"/><path fill="#373737" fill-opacity=".9" d="M207.8 114l5.2 41.4-25.3-22.1 1.8-25.8z"/><path fill="#4d4d4d" fill-opacity=".7" d="M224.5 55.9l-.4 8.5-27-24.6 4.9-6.9z"/><ellipse cx="215" cy="97" fill="#fff" fill-opacity=".4" rx="9" ry="19"/><circle r="1" fill="#707070" fill-opacity=".5" transform="matrix(-16.25124 -5.31173 25.64313 -78.45525 142.8 132)"/><circle r="1" fill="#828282" fill-opacity=".6" transform="matrix(10.59258 .3699 -1.91046 54.70837 80.3 26)"/><path fill-opacity=".5" d="M156 118h18v18h-18z"/><path fill="#6b6b6b" fill-opacity=".5" d="M54 6L8 22-6-16z"/><path fill="#b2b3b3" fill-opacity=".5" d="M181 185l12-41-59 38z"/><path fill-opacity=".6" d="M41 97l-26 1 45-14z"/><path fill="#565656" fill-opacity=".7" d="M-16 126l29-31 87 56z"/><path fill="#5d5d5d" fill-opacity=".5" d="M128 22l-26-35 20 1z"/><circle r="1" fill="#c5c5c5" fill-opacity=".6" transform="matrix(-7.5611 2.36756 -16.91391 -54.01654 60 72.1)"/><path fill="#ededed" fill-opacity=".4" d="M128.3 139.8l31-1.6.4 8-31 1.6z"/><path fill="#babbbb" fill-opacity=".5" d="M124 65l11 36-2-66z"/><path fill-opacity=".5" d="M212 66l-29 11 30 5z"/><path fill="#f8f8f8" fill-opacity=".4" d="M92 18h164v8H92z"/><path fill="#1e1e1e" fill-opacity=".4" d="M164 65l8.8 23.7 16.9-11.5-90.7-.4z"/><path fill="#ccc" fill-opacity=".9" d="M54.6 26.1L17 16.6l6.1 8.8 33.6 10.8z"/><path fill="#3e3e3e" fill-opacity=".5" d="M99 30h6v48h-6z"/><path fill="#fcfcfc" fill-opacity=".5" d="M105 0h10v65h-10z"/><path fill="#d8d8d8" fill-opacity=".4" d="M12 85L2 8l-18 120z"/><path fill="#090909" fill-opacity=".6" d="M15.6 147.5L130.2 185H28.9L17.8 92.7z"/><path fill="#9c9c9c" fill-opacity=".5" d="M179 57h7v79h-7z"/><path fill="#212121" fill-opacity=".5" d="M19 72h8v18h-8z"/><path fill="#c3c3c3" fill-opacity=".8" d="M195.8 75.5l14.6-13.4 5.1-17.8-.3-13.8z"/><path fill="#050505" fill-opacity=".6" d="M101.4 81.8l10-15.5-15.7 79.4 6.4 35.4z"/><path fill="#efefef" fill-opacity=".5" d="M32.9 70.5l-8.2-12.6 34.4-22.4 8.2 12.6z"/><path fill-opacity=".6" d="M190.4 142.8l-6.5 7.6-8.3-7.2 6.5-7.6z"/><path fill="#848484" fill-opacity=".9" d="M112.7 126l6-20.5L87 143.4l-25.5-24.8z"/><path fill="#d1d1d1" fill-opacity=".8" d="M99.8 77.4l-5.2-88.7-1.7 46.9 1.6 38.1z"/><path fill="#c7c7c7" fill-opacity=".4" d="M153 106h31v10h-31z"/><path fill="#929393" fill-opacity=".5" d="M103 134l25 16-20 8z"/><path fill="#050505" fill-opacity=".7" d="M271 154l-81 3 11 28z"/><path fill="#f5f5f5" fill-opacity=".4" d="M148 38h52v17h-52z"/><path fill="#727272" fill-opacity=".8" d="M233.6 87.3l-1.4 9.9-17.8-2.5 1.4-9.9z"/><path fill="#848484" fill-opacity=".7" d="M225 132.7l-20 29.8-4.6-4.8 19.4-26.9z"/><path fill-opacity=".5" d="M221.1 61.8l-9-.6.8-11 9 .6z"/><path fill="#7b7b7b" fill-opacity=".5" d="M154.6 29.4l-43.4-.6 10.4 20.3L157 35.8z"/><path fill-opacity=".5" d="M28 30h14v16H28z"/><path fill-opacity=".6" d="M41.8 94.8l-53.1 14.3-.5-2L41.3 93z"/><path fill="#f4f4f4" fill-opacity=".5" d="M21-16h51l-2 33z"/><path fill-opacity=".5" d="M203 32l5 11-9 1z"/><path fill="#585858" fill-opacity=".5" d="M181.7 11.4l-22.8 5L166 1.9l2.4 6.2z"/><path fill="#000101" fill-opacity=".3" d="M135.9 163.3l-22.5-39.2-19.4 9.8 64 26.4z"/><path fill="#030505" fill-opacity=".3" d="M239.8 65.1l-17.3 37.3 11.2-33.7 1.8-14.3z"/><path fill="#c0c1c1" fill-opacity=".5" d="M234 53l-2 20-20-8z"/><path fill="#c2c2c2" fill-opacity=".5" d="M262.5 124.8l-35.4-6.7-27.7-14.7 66.3 17.6z"/><path fill="#a8a8a8" fill-opacity=".5" d="M121 116l30 9-5 9z"/><path fill="#080909" fill-opacity=".6" d="M79.2 89.2l25.1-17.6 10.7 31.7-18.9 17.9z"/></g></svg>