<svg xmlns="http://www.w3.org/2000/svg" viewBox="0 0 300 199"><defs/><path fill="#7a4a36" d="M0 0h300v199H0z"/><g transform="translate(.6 .6) scale(1.17188)"><ellipse cx="55" cy="89" fill="#a4aca9" fill-opacity=".7" rx="72" ry="133"/><circle r="1" fill="#a4d3ee" fill-opacity=".5" transform="matrix(-33.24023 -18.55402 63.04242 -112.9429 222 117.5)"/><path fill="#030000" fill-opacity=".7" d="M190.8 66l-47.5-15.5 9.9-30.4 47.5 15.4z"/><ellipse cx="25" cy="78" fill-opacity=".7" rx="17" ry="11"/><ellipse cx="79" cy="64" fill="#c4c7c4" fill-opacity=".5" rx="39" ry="56"/><circle r="1" fill="#fdf5ff" fill-opacity=".2" transform="matrix(57.3661 28.9045 -8.5523 16.97356 149.2 123.7)"/><path fill="#66544a" fill-opacity=".6" d="M-15 173l11-79 129 35z"/><ellipse cx="250" cy="23" fill="#696865" fill-opacity=".8" rx="54" ry="71"/><path fill="#b0ebfd" fill-opacity=".3" d="M145.4 32.7L132-16h-20.5l96.9 22.4z"/><path fill-opacity=".6" d="M94-16l54 72-10-52z"/><path fill="#fff" fill-opacity=".5" d="M95 62h14v59H95z"/><path fill="#e2dcdd" fill-opacity=".5" d="M29 104h28v25H29z"/><circle r="1" fill="#975f4d" fill-opacity=".9" transform="matrix(19.90005 0 0 32.51299 134.4 92.8)"/><circle r="1" fill="#c7c5c7" fill-opacity=".5" transform="matrix(12.24916 17.5565 -15.18278 10.59302 213.6 93)"/><path fill="#e3eff5" fill-opacity=".4" d="M253 42l-67-19 18 19z"/><path fill="#855335" fill-opacity=".5" d="M117 3L76 79l45-33z"/><path fill="#cdd2d4" fill-opacity=".9" d="M54.8-12L43.9-4.7l26.5 6L68.2 102z"/><path fill="#300f03" fill-opacity=".6" d="M222.6-16l-20.4 36.4L256.6 37l-28.8-20.9z"/><path fill="#4c2e20" fill-opacity=".5" d="M11 118l93 35-67-2z"/><path fill="#fff" fill-opacity=".5" d="M73 128h15v14H73z"/><path fill="#000008" fill-opacity=".7" d="M189.1 126.3l-16.6-7 2.4-5.6 16.6 7z"/><circle r="1" fill-opacity=".7" transform="matrix(11.1467 -1.79553 .6212 3.85641 100 134.6)"/><path fill="#434146" fill-opacity=".9" d="M228 154h28v16h-28z"/><circle r="1" fill="#7d7662" fill-opacity=".8" transform="matrix(16.75646 7.1748 -14.06105 32.83906 27.4 42.2)"/><path fill="#fdffff" fill-opacity=".4" d="M191.3 121.8l12.7 3-13.3 57.4-12.7-3z"/><path fill="#d8dae5" fill-opacity=".6" d="M150.3 94.1l-3.6 22.4 20.5-3.3.4 18.9z"/><ellipse cx="101" cy="169" fill="#fff" fill-opacity=".5" rx="20" ry="6"/><ellipse cx="88" cy="111" fill="#3f220c" fill-opacity=".2" rx="8" ry="50"/><path fill-opacity=".5" d="M8 74h33v15H8z"/><circle r="1" fill="#e8f2ff" fill-opacity=".5" transform="matrix(17.05353 .61108 -.11079 3.09182 29 91.3)"/><path fill="#ecfaff" fill-opacity=".5" d="M45 50l6 62 12-55z"/><path fill="#050605" fill-opacity=".6" d="M247.8 105.6L254 92l-6.8-66.3 3.6-3.8z"/><path fill="#99928d" fill-opacity=".8" d="M-2.3 148.7l112.6-7.5-90.5 1.5 88.1-78.2z"/><circle r="1" fill="#120501" fill-opacity=".8" transform="matrix(22.91078 7.62385 -4.50539 13.53935 175.7 37.8)"/><path fill="#261c15" fill-opacity=".6" d="M32 166h44v4H32z"/><path fill="#825845" fill-opacity=".7" d="M120 166l7-97 55 116z"/><path fill="#2f2011" fill-opacity=".7" d="M173 9.9l-3.2 10.7-17-36.6h5.8z"/><path fill="#010006" fill-opacity=".4" d="M53.5 93.6l-66.2 20.8-1.9-11.1L24.8 98z"/><path fill="#060607" fill-opacity=".6" d="M209.6 71.5l25.7-13.9-13 13.9-.4 3.4z"/><path fill="#fce8ee" fill-opacity=".3" d="M122.3 162l-20.4-77 3.3-48 19.7 109.5z"/><path fill="#eee4ea" fill-opacity=".5" d="M144.6 78.4l.3-.8-6.3 9.5-4.3-24.6z"/><path fill="#e2f3fa" fill-opacity=".5" d="M248 10l-1 13-17-24z"/><path fill="#43545a" fill-opacity=".5" d="M47 30l15 26-3-40z"/><circle r="1" fill="#442114" fill-opacity=".6" transform="matrix(-1.12206 -8.76377 20.90862 -2.67701 193.8 60.1)"/><path fill="#dcdee4" fill-opacity=".5" d="M7.3 110.8l7.5-2.7 47.8-10-16.8 13z"/><path fill="#d3eeff" fill-opacity=".4" d="M71.5 150.5l2.3 11.8-37.3 7.2-2.3-11.8z"/><path fill="#908e8c" fill-opacity=".5" d="M250 71l-21-54-30 28z"/><path fill="#adaaae" fill-opacity=".7" d="M213 74l58 46-88-12z"/><path fill="#1b120f" fill-opacity=".7" d="M76.3 148.4l-43.3.2-9.8 2.7 15.3 3z"/><path fill="#bfa6a1" fill-opacity=".6" d="M123.3 174l25.5 11-16-56.8 13.5 31.2z"/><path fill="#e2f5ff" fill-opacity=".3" d="M185.1 22.2l-30.8-.1 19.8-6.9-11.6-28.6z"/><path fill="#171713" fill-opacity=".5" d="M240 95l24-20-34 6z"/><ellipse cx="87" fill="#b0aa9a" fill-opacity=".9" rx="20" ry="48"/><path fill="#52514a" fill-opacity=".9" d="M209.5 36.9l3.7 12.4 15.7 3.2L218 39.3z"/><path fill="#1a2310" fill-opacity=".6" d="M217.4-16L260.1-.8l-11.8 16.7L231.4-16z"/><path fill="#f9f9fe" fill-opacity=".7" d="M114 156.2l-9.6-2.6 1.5-5.8 9.7 2.6z"/><path fill="#4a1807" fill-opacity=".3" d="M105.6 149.6l-45.6 23 25.5-26.4h33.8z"/><path fill="#785c49" fill-opacity=".7" d="M73 109.2l-59.3 5 37.2 32.1-32.2-23.5z"/><path fill="#341e00" fill-opacity=".3" d="M6.9 141.6l12 43.4-34.9-54.5 19.6-57z"/><path fill="#bdbad0" fill-opacity=".4" d="M197.5 1.5l19.1 11.3-19.5 5.2.6-12.6z"/><path fill="#edbaa8" fill-opacity=".3" d="M124.2 55.2L153.7 23l-33 56.4-29.3-53.2z"/><path fill="#6a1603" fill-opacity=".4" d="M139.6 102.1l-14.7-34.9L110 97.4l49.2-16.5z"/><path fill="#918f81" fill-opacity=".9" d="M75.3 60.8l3.6 64.1-8.4 5.7 31.3-81.1z"/><ellipse cx="255" cy="21" fill="#dfecf6" fill-opacity=".4" rx="4" ry="15"/><circle r="1" fill="#c0c8c9" fill-opacity=".4" transform="matrix(-8.94817 2.00015 -5.02884 -22.49772 145.4 0)"/></g></svg>