<svg xmlns="http://www.w3.org/2000/svg" viewBox="0 0 300 199"><defs/><path fill="#5b2c2b" d="M0 0h300v199H0z"/><g transform="translate(.6 .6) scale(1.17188)"><circle r="1" fill="#d6c4bd" fill-opacity=".4" transform="matrix(51.93743 35.04665 -102.96757 152.59292 78.2 60.5)"/><path fill="#22130b" fill-opacity=".8" d="M93.5 33.5l-19.4 60-27.6-9 19.4-60z"/><ellipse cx="51" cy="130" fill="#dac7b9" fill-opacity=".6" rx="30" ry="43"/><circle cx="146" cy="63" r="74" fill="#7d5857" fill-opacity=".5"/><path fill="#dbd6d9" fill-opacity=".5" d="M77 82h30l14-94z"/><path fill="#000105" fill-opacity=".7" d="M115.4 137.5l43-9.1 8.2 38.1-43 9.1z"/><path fill="#d5c0ae" fill-opacity=".6" d="M23.3 112L-3.2 98l32-60 26.4 14z"/><path fill="#3b0004" fill-opacity=".4" d="M119.1 9.6L179 5.4l1.9 27-59.9 4.2z"/><circle cx="111" cy="109" r="32" fill="#68473f" fill-opacity=".9"/><path fill="#1b0309" fill-opacity=".6" d="M186.8 117.6l79.7 7-5.3 59.8-79.7-7z"/><circle r="1" fill="#b2c0be" fill-opacity=".4" transform="matrix(17.66064 21.83838 -10.8018 8.73538 149.3 58)"/><path fill="#b4b8b8" fill-opacity=".5" d="M162 125h20v22h-20z"/><path fill="#fffbfc" fill-opacity=".6" d="M180.2 2.7l10.1-4.3 5.5 12.9-10.1 4.3z"/><path fill="#eacbbc" fill-opacity=".5" d="M225.6 0l16.5 27.4-7.7 4.6-16.5-27.4z"/><ellipse cx="9" cy="19" fill="#1d1f1c" fill-opacity=".7" rx="29" ry="20"/><circle r="1" fill="#eabbaa" fill-opacity=".6" transform="matrix(5.50805 -2.08995 4.73542 12.48014 208.3 55.8)"/><path fill="#fce5ff" fill-opacity=".5" d="M41 19L28-16h50z"/><circle r="1" fill="#0b1007" fill-opacity=".5" transform="rotate(66.9 80 187.9) scale(60.76637 13.75904)"/><circle r="1" fill="#3d1f16" fill-opacity=".5" transform="matrix(2.79096 -12.28447 51.8695 11.78446 159.6 102.3)"/><circle r="1" fill="#7a283b" fill-opacity=".7" transform="rotate(-19 98.6 -274.4) scale(9.19069 26.27084)"/><ellipse cy="129" fill="#712700" fill-opacity=".4" rx="31" ry="28"/><path fill="#a70000" fill-opacity=".5" d="M227 94l-41-56-7 54z"/><ellipse cx="68" cy="50" fill="#1d160b" fill-opacity=".4" rx="18" ry="31"/><path fill="#b4adad" fill-opacity=".4" d="M130.3 137.3l41.3-26.5-27.3 4.7-9.2-21.7z"/><path fill="#e0f7f8" fill-opacity=".6" d="M254 33.1l8.7 13.4L256 51l-8.7-13.4z"/><path fill="#ffb8a1" fill-opacity=".4" d="M187.8 91.3l-7.1-31.7-5.9 14.9-10.9 12z"/><circle cx="176" cy="45" r="16" fill="#002523" fill-opacity=".5"/><path fill="#d8a583" fill-opacity=".4" d="M121.1 145.5l-15.6 11.1-4.8-13.3 8-18.9z"/><path fill="#d9b0c2" fill-opacity=".6" d="M138.9 15.4l19-18.7L40.3 6.1 122.8-16z"/><path fill="#e6f4ff" fill-opacity=".5" d="M51 175l23 2-19-49z"/><circle r="1" fill="#6e4131" fill-opacity=".5" transform="matrix(6.75978 17.67042 -4.51764 1.72821 68.7 148)"/><ellipse cx="66" cy="15" fill="#f13d9a" fill-opacity=".5" rx="28" ry="7"/><path fill="#f8d6c6" fill-opacity=".3" d="M109.6 102.3l-34.1 25.9 3.8 34.2 21.8-69.3z"/><circle r="1" fill="#b0a4a3" fill-opacity=".5" transform="matrix(1.20539 -1.72926 17.95984 12.51895 170.9 40.8)"/><path fill="#542e25" fill-opacity=".5" d="M77.2 59.4l-6.8 36.8-7.3-25.5L106.3 185z"/><path fill="#cacfd0" fill-opacity=".5" d="M175 21l20 12 3 13z"/><path fill="#2d0000" fill-opacity=".7" d="M220.6 79.4l19.4 7.9-8.6 21.3-19.4-7.9z"/><path fill="#dfe7e1" fill-opacity=".5" d="M151 76l-5 12-10-6z"/><path fill="#d6c4c0" fill-opacity=".5" d="M107 6h10v62h-10z"/><path fill-opacity=".6" d="M56 5h18v5H56z"/><path fill="#a08d8c" fill-opacity=".8" d="M185.1 129.5l-.6-16.3-2.4-1.9-19.2 38.7z"/><path fill="#410624" fill-opacity=".5" d="M159-16l18 38-29 17z"/><path fill="#b5afb2" fill-opacity=".4" d="M84 77h31v14H84z"/><path fill="#c57c6a" fill-opacity=".4" d="M221.8 60.9l.1-23-23.7 32.9 18.3 5z"/><path fill="#bf9084" d="M17.2 76.3l6.9-43.7 19.8 17.2-2.3-30.4z"/><path fill="#2f1813" fill-opacity=".6" d="M174.3 128l6.9-43.6-47.8 82.5 26.6-40.1z"/><path fill="#231416" fill-opacity=".5" d="M126 46l-13-13 9 28z"/><path fill="#473d4b" fill-opacity=".4" d="M194 140l77-79-8 74z"/><path fill="#1d0605" fill-opacity=".5" d="M220 135l19-112 12 51z"/><path fill="#b8866f" fill-opacity=".4" d="M216.5 11.3l10.2-22.8 22.8 10.2-10.2 22.8z"/><path fill="#320f05" fill-opacity=".4" d="M117 84h12v48h-12z"/><path fill="#2d1f1c" fill-opacity=".9" d="M18.7 29.8l3.1 25.7-36-66.1L-16 89.5z"/><path fill="#d9e3e7" fill-opacity=".5" d="M89.5 57L86 51l26.6-16 3.6 6z"/><path fill="#372925" fill-opacity=".9" d="M-3.9-16l38.1 3.6.5 50.6-3.9.8z"/><path fill="#573029" fill-opacity=".9" d="M110.6 110.9L86.5 185l-.2-43.8 22.5-37z"/><path fill="#08130f" fill-opacity=".4" d="M194.7 52.3l-2.4-18.8-20.8 44.6-12.3-32.9z"/><path fill="#927a75" fill-opacity=".5" d="M187 37l-44 37 19-1z"/><circle cx="178" cy="34" r="7" fill-opacity=".7"/><path fill="#8f7876" fill-opacity=".9" d="M128.1 95l30.8 29-19.5 10.2-6.6-38.1z"/><path fill="#c2bec0" fill-opacity=".5" d="M6 90.1l50.1 61.3-31-60.1-.8-34.2z"/><path fill="#9f887d" fill-opacity=".7" d="M28 66h19v38H28z"/><path fill="#c51e1e" fill-opacity=".5" d="M185.4 90.8l-7.3-6.1 7.7-31 16.4-1z"/><path fill="#f8f3ff" fill-opacity=".1" d="M247 55h9v41h-9z"/><path fill="#9f999b" fill-opacity=".6" d="M138.8 47.5l-2.6 9.6-10.8 27.2 45.5-54.8z"/><path fill="#320000" fill-opacity=".4" d="M231.9 139l1.2 34-57 2-1.2-34z"/></g></svg>