<svg xmlns="http://www.w3.org/2000/svg" viewBox="0 0 300 199"><defs/><path fill="#74423c" d="M0 0h300v199H0z"/><g transform="translate(.6 .6) scale(1.17188)"><circle r="1" fill="#a2a9a4" fill-opacity=".7" transform="matrix(72.79237 -102.82643 185.89204 131.59576 103.8 14.7)"/><circle r="1" fill="#150701" fill-opacity=".7" transform="matrix(25.31605 27.24331 -16.0414 14.90658 116 17.8)"/><circle r="1" fill="#142212" fill-opacity=".7" transform="matrix(-.4929 10.07805 -87.87378 -4.29774 189 33)"/><circle r="1" fill="#011325" fill-opacity=".6" transform="rotate(-177.8 113 46) scale(40.07862 17.76614)"/><ellipse cx="204" fill="#f5fffc" fill-opacity=".7" rx="72" ry="14"/><circle r="1" fill="#e4e8e5" fill-opacity=".5" transform="matrix(-6.49744 -21.09879 73.46868 -22.62493 175.3 168)"/><circle r="1" fill="#0e2208" fill-opacity=".6" transform="rotate(-34 76.3 -16) scale(22.97489 20.00111)"/><circle r="1" fill="#fffaf6" fill-opacity=".3" transform="matrix(-13.70878 -3.39258 33.49147 -135.33275 48 112.9)"/><circle r="1" fill="#faceb9" fill-opacity=".5" transform="matrix(-26.30953 9.14156 -12.57585 -36.19346 152.3 82.8)"/><ellipse cx="14" cy="74" fill="#dbe5e9" fill-opacity=".8" rx="34" ry="14"/><circle r="1" fill="#faffff" fill-opacity=".8" transform="rotate(-103.3 9.8 -1.7) scale(10.03541 33.96451)"/><circle r="1" fill="#6c4342" fill-opacity=".6" transform="matrix(-33.12036 38.5236 -26.62246 -22.88844 96.1 139.7)"/><path fill="#edefec" fill-opacity=".7" d="M21.5-16l32.3 64.7L85.1 7.4l-37.2 4.9z"/><circle r="1" fill="#e6f7ff" fill-opacity=".5" transform="matrix(1.88319 -11.22852 52.27791 8.76777 243.9 61.4)"/><path fill="#86351d" fill-opacity=".5" d="M136.6 50.3l-24 36.9-45.2-29.5 24-36.9z"/><circle r="1" fill="#001f2e" fill-opacity=".6" transform="matrix(17.81698 28.49211 -16.83875 10.52977 6.3 124.5)"/><circle r="1" fill="#30472e" fill-opacity=".9" transform="matrix(.28056 11.16622 -9.50676 .23886 172.4 17)"/><circle r="1" fill="#f6aa9f" fill-opacity=".5" transform="matrix(21.10497 25.18716 -15.30557 12.82493 84.2 95.1)"/><circle r="1" fill="#03315f" fill-opacity=".6" transform="matrix(-14.4481 3.16276 -4.20785 -19.22224 196.2 79.1)"/><path fill="#1a0e08" fill-opacity=".6" d="M71.3 143.7l7.6-39.3 9.8 2-7.6 39.2z"/><circle r="1" fill="#34302d" fill-opacity=".7" transform="matrix(4.45287 13.44736 -9.50565 3.14764 113.4 83.4)"/><ellipse cx="239" cy="137" fill="#a1a19b" fill-opacity=".8" rx="37" ry="29"/><path fill="#773707" fill-opacity=".4" d="M42.3 80.8l22.1-.4 26.1 8.7-72.1 14.2z"/><ellipse cx="164" cy="110" fill="#c29a8b" rx="26" ry="24"/><path fill="#f3f6f5" fill-opacity=".7" d="M213.9 25.3L182-.5l20.1-24.8L234 .5z"/><path fill="#f1f9f1" fill-opacity=".4" d="M130 7l33-23-2 40z"/><path fill="#fff" fill-opacity=".5" d="M236 18h20v10h-20z"/><path fill="#edbed9" fill-opacity=".5" d="M69.9 109.6l18.9-14.5-29.3 3.4L5.6 185z"/><path fill="#40a9ff" fill-opacity=".3" d="M186 71h70v10h-70z"/><path fill="#905136" fill-opacity=".5" d="M85 129h108v15H85z"/><circle r="1" fill="#e0c9c3" fill-opacity=".6" transform="matrix(3.35842 -6.27658 13.35407 7.14537 1.8 21.5)"/><path fill="#10281c" fill-opacity=".5" d="M235 40l-1-33-26 43z"/><circle r="1" fill="#e0f3fc" fill-opacity=".5" transform="matrix(-32.50307 -7.28051 .62997 -2.81245 178.3 49.5)"/><path fill="#dbf2ff" fill-opacity=".5" d="M13.3 98L18 71.4 32.7 74 28 100.6z"/><path fill="#e2e2e0" fill-opacity=".7" d="M193.3 185l-22.5-23.4 27.5-26 23.4 49.4z"/><path fill="#dce1d7" fill-opacity=".4" d="M30.8 43.6l53.5-14.7-3.6-34-45.1 67.6z"/><path fill="#2a3622" fill-opacity=".8" d="M40.2 39.5L-16 69.8l44.5-59.5 9.3 11.5z"/><path fill="#35393a" fill-opacity=".8" d="M37.1 103.3l.6 2.8L10.8 185-16 168.2z"/><path fill="#03160a" fill-opacity=".5" d="M114 106l-7 31-11-9z"/><path fill="#303d29" fill-opacity=".7" d="M191.2 46.3l-66-18.5L205 16.5l6.2 23.6z"/><path fill="#8a8f92" d="M207.9 50.4l12-15.7-8.6 3.8-12.1 7z"/><path fill="#f9fde7" fill-opacity=".3" d="M12.7 54.5l94.1 37.6-24.4-39.5 15.4 24.8z"/><path fill="#326243" fill-opacity=".6" d="M53.1 13.5L47.4 1.8 79-13.5l5.7 11.7z"/><path fill="#c9c7c0" fill-opacity=".5" d="M126.7 16.3l22.9-2 5.6 25.9 5.9-56.2z"/><path fill="#7d5844" fill-opacity=".6" d="M80 59V37L37 58z"/><path fill="#19120e" fill-opacity=".4" d="M201 90.6l24.2-13.4-28.1 43.5-17.8-36.6z"/><path fill="#ead4c8" fill-opacity=".5" d="M167 65l-72 1 64-21z"/><path fill="#cd9e88" fill-opacity=".5" d="M115 121h87v12h-87z"/><circle r="1" fill="#00000a" fill-opacity=".2" transform="matrix(6.3783 -20.17999 14.07974 4.45019 247.6 99.2)"/><path fill="#e3a4de" fill-opacity=".4" d="M85.4 128.2l-4-5.7 35.2-24.7 4 5.7z"/><path fill="#c2c2c3" fill-opacity=".6" d="M258 42l8 44-61-37z"/><path fill="#eaf1f3" fill-opacity=".6" d="M144 90.4l-5 9.8-17-8.6 5-9.8z"/><path fill="#403529" fill-opacity=".8" d="M94.8 126.7l-30.6 6.6-1.9 20.9L88 143.6z"/><ellipse cx="221" cy="99" fill="#77716f" fill-opacity=".6" rx="11" ry="10"/><path fill="#fab8d2" fill-opacity=".4" d="M61 140.7l-30.2-15.4 8.1-16 30.3 15.4z"/><path fill="#001137" fill-opacity=".4" d="M92 158h30v12H92z"/><path fill="#57381d" fill-opacity=".5" d="M102 99l-17 14 16-25z"/><path fill="#165491" fill-opacity=".5" d="M210.6 66.7L181.5 56 271 99.4l-35.7-28.9z"/><path fill="#928c87" fill-opacity=".4" d="M16.3 52.5l33.8 15-4.4 10-33.8-15z"/><path fill="#000206" fill-opacity=".5" d="M50 43l-11 4 14 2z"/><path fill="#040408" fill-opacity=".6" d="M18 117h13v25H18z"/><path fill="#002c2e" fill-opacity=".4" d="M32.6 83L.3 92.3 42.9 86l-10.5 19.2z"/><path fill="#977f87" fill-opacity=".5" d="M31 133h27v37H31z"/><path fill="#40170c" fill-opacity=".4" d="M139.3 8.2L164.5 42l-16.4-18.9-36.9 63.3z"/><path fill="#243f55" fill-opacity=".4" d="M181.6 49.3l30.6 59.2-46.3-51 39.4 14.2z"/></g></svg>