<svg xmlns="http://www.w3.org/2000/svg" viewBox="0 0 300 199"><defs/><path fill="#5e3a33" d="M0 0h300v199H0z"/><g transform="translate(.6 .6) scale(1.17188)"><circle r="1" fill="#d7eef1" fill-opacity=".5" transform="matrix(40.20744 -3.23501 2.45928 30.56599 203.3 80.3)"/><circle r="1" fill="#c3dcf0" fill-opacity=".6" transform="matrix(-25.84293 17.39688 -10.73738 -15.9503 59.2 9)"/><path fill="#bdb7b0" fill-opacity=".5" d="M42.7 168l3-42 143.6 10-3 42z"/><path fill="#0f171e" fill-opacity=".6" d="M168.1 66.8l-63.2 65.4-59-57 63.2-65.4z"/><circle r="1" fill="#262321" fill-opacity=".7" transform="matrix(13.7311 24.28123 -36.46064 20.61858 225.6 27.1)"/><path fill="#c7b59c" fill-opacity=".6" d="M271 113.9l-50.5 18.5-5.6 52.6 15.2-37.7z"/><path fill="#d8cdcb" fill-opacity=".6" d="M41.5 105.5l-5.4-18.3 14.7-10 6.9 13z"/><path fill="#c1bdb8" fill-opacity=".5" d="M193 33.2L165.4 103l-33.3 1.2-.3 26.8z"/><path fill="#fff" fill-opacity=".4" d="M171 6h10v21h-10z"/><path fill="#f7ffdb" fill-opacity=".5" d="M54 106h24v9H54z"/><ellipse cx="12" cy="58" fill="#020918" fill-opacity=".6" rx="13" ry="22"/><path fill="#94a1a1" fill-opacity=".8" d="M210 63.7l20.7 39.9 39.3-4.1 1 43.3z"/><path fill="#e2f4ff" fill-opacity=".5" d="M62.1 35.4l-5.5.3L29.7 8.8l38.2-1.9z"/><ellipse cx="143" cy="124" fill="#0d1a21" fill-opacity=".7" rx="58" ry="7"/><path fill="#ad8088" fill-opacity=".5" d="M18 176l-34-44 26-28z"/><path fill="#8f2f2c" fill-opacity=".6" d="M9 68l24 89 36-23z"/><path fill="#9e988c" fill-opacity=".6" d="M212.5 38.2l10.7 3.1 32.2 66.6L213.7 66z"/><path fill="#c8cdd5" fill-opacity=".5" d="M43 150h49v11H43z"/><path fill="#e3f5e2" fill-opacity=".4" d="M113 142l-39-16 84 8z"/><path fill="#e4fbed" fill-opacity=".3" d="M124.2 131.4l70.4 15.9 12.2 5.6-14.3-16.6z"/><path fill="#dde0ea" fill-opacity=".4" d="M184 61h18v52h-18z"/><path fill="#393131" fill-opacity=".5" d="M70 5h95v61H70z"/><ellipse cx="49" cy="33" fill="#4071ac" fill-opacity=".3" rx="37" ry="11"/><path fill-opacity=".6" d="M142.4 138.6l17-.2.2 7-17 .2z"/><path fill="#d5e3ee" fill-opacity=".5" d="M146.4 118.9l-12-.8 1.2-17 12 .8z"/><circle r="1" fill="#7a3626" fill-opacity=".5" transform="matrix(-44.27717 27.0269 -3.4695 -5.68394 158.6 165.6)"/><circle r="1" fill="#cec4c4" fill-opacity=".6" transform="matrix(-4.75475 12.42977 -17.97045 -6.87422 183.4 71.2)"/><ellipse cx="205" cy="113" fill="#776a62" fill-opacity=".6" rx="5" ry="42"/><path fill="#e4e3df" fill-opacity=".5" d="M230.1 185H208l-36.3-24.9 8-.9z"/><circle r="1" fill="#1a1818" fill-opacity=".7" transform="rotate(-26.3 119.3 -479.1) scale(30.86895 34.05542)"/><path fill="#360a03" fill-opacity=".5" d="M56.6 164.5L48.9 185l26.9-9.6-1.4-19.6z"/><path fill="#54574d" fill-opacity=".6" d="M91 141h42v25H91z"/><circle r="1" fill="#261a08" fill-opacity=".6" transform="rotate(121 76.1 149.9) scale(28.02578 14.31037)"/><path fill="#201e1d" fill-opacity=".9" d="M130.9 122.6l-62.5 1.7-10.5-.6 75.2-45.5z"/><path fill="#98867d" d="M136 102.9L191.1 86l-2.9 7-5.8 12.9z"/><path fill="#926359" d="M180.7 53.1l-5.4-16.5 21.9 7-7.3 19.4z"/><path fill="#94c9d3" fill-opacity=".4" d="M223 62h21v25h-21z"/><path fill="#1c1b1d" fill-opacity=".7" d="M74.2 98.3l-32.5 18.4 46.4-70.3-3 62.6z"/><circle r="1" fill="#34374f" fill-opacity=".4" transform="rotate(49.8 -18.3 27.2) scale(81.83246 19.68397)"/><path fill="#410000" fill-opacity=".6" d="M14.7 80.1l18.4 104.4-7.8 1.4L6.9 81.5z"/><path fill="#221411" fill-opacity=".6" d="M222 98l23 13-37 29z"/><path fill="#fd4744" fill-opacity=".5" d="M25 111l30 9-26 11z"/><path fill="#a6afc3" fill-opacity=".5" d="M96.7 185l-22.3-27.2 74.5 19.8-20.3-14z"/><path fill="#8e7f7d" fill-opacity=".8" d="M92.7 6.3L112.3-8 23.7 2l38.7 5.4z"/><path fill="#0e1f26" fill-opacity=".6" d="M148 106h35v28h-35z"/><path fill="#c9cfd2" fill-opacity=".6" d="M45 178l13-27-39 34z"/><path fill="#3f4035" fill-opacity=".5" d="M33 131.4l42.4-7.5 3.6 20.7-42.4 7.5z"/><path fill="#ffe9a9" fill-opacity=".4" d="M109 150h11v11h-11z"/><ellipse cx="142" cy="3" fill="#382b24" fill-opacity=".6" rx="29" ry="98"/><path fill="#bfdaa8" fill-opacity=".3" d="M43.8 112L70 101.4l12.4 9.1-29.5 7.1z"/><path fill="#ada49e" fill-opacity=".7" d="M134.4 154.6l-13.3-7.2-10.8 13.1 37.6-28.1z"/><path fill="#f3f3f2" fill-opacity=".5" d="M187 4h7v6h-7z"/><path fill="#715d60" fill-opacity=".8" d="M30.4 38.2L22.3-16l17.4 47.6 15.8 55.6z"/><path fill="#010f1b" fill-opacity=".3" d="M119.4 144.1l17.3 15.1-19.4 11.2 27.6-45.8z"/><path fill="#fba527" fill-opacity=".6" d="M187 127h7v11h-7z"/><circle r="1" fill="#13171e" fill-opacity=".6" transform="matrix(13.10933 41.47391 -2.15465 .68105 23.5 75.6)"/><path fill="#9c4d4d" d="M180.5 166l-2.8 6.1-40.9 1-4.9-17.3z"/><circle r="1" fill="#dad7cc" fill-opacity=".4" transform="rotate(-61 244.5 -106.9) scale(27.67132 1.91496)"/><circle r="1" fill="#574848" fill-opacity=".8" transform="matrix(-15.96437 3.21898 -2.06185 -10.22565 241.6 50.3)"/><path fill="#baa08b" fill-opacity=".5" d="M170 111l-4 9-10-11z"/><path fill="#9aafb9" fill-opacity=".7" d="M245.3 90.7l-46 19.4-4.2 5.7-21.5-18z"/><path fill="#f0eaea" fill-opacity=".4" d="M172 0h6v24h-6z"/><circle cx="54" cy="18" r="8" fill="#f8ffff" fill-opacity=".6"/><path fill="#232930" fill-opacity=".7" d="M216.5 107.9l-13.5-2.3-4.1 19.2-41.7 1.3z"/><path fill="#041517" fill-opacity=".5" d="M245 66h11v29h-11z"/></g></svg>