<svg xmlns="http://www.w3.org/2000/svg" viewBox="0 0 300 199"><defs/><path fill="#543e29" d="M0 0h300v199H0z"/><g transform="translate(.6 .6) scale(1.17188)"><circle r="1" fill="#d9eaff" fill-opacity=".7" transform="matrix(20.94237 -49.3421 43.0385 18.26693 117 147.6)"/><circle r="1" fill="#d5e3f7" fill-opacity=".6" transform="matrix(-13.26426 3.1111 -32.81897 -139.9244 -.1 99.4)"/><circle r="1" fill="#180700" fill-opacity=".7" transform="matrix(34.27161 12.7455 -28.45534 76.5141 215.7 127.4)"/><path fill="#e1cecd" fill-opacity=".7" d="M115 106L95 57l35 31z"/><circle r="1" fill="#200800" fill-opacity=".6" transform="rotate(166.3 14 67.3) scale(14.20095 177.5491)"/><path fill="#b6bbc4" d="M30.2 125L-16 143.3l23.8-41.8L20 185z"/><ellipse cx="92" cy="6" fill="#9e765d" fill-opacity=".3" rx="49" ry="88"/><path fill="#c8cfdd" fill-opacity=".7" d="M175 161l-117-8 63-71z"/><path fill="#cfeaff" fill-opacity=".5" d="M256 110l13 44-23 31z"/><circle r="1" fill="#342016" fill-opacity=".5" transform="matrix(29.35364 -64.0348 2.86279 1.3123 13.6 135.2)"/><path fill="#0a0000" fill-opacity=".4" d="M155 104h92v34h-92z"/><circle r="1" fill="#442e16" fill-opacity=".6" transform="matrix(1.7899 -50.2888 92.59046 3.2955 239.5 33.6)"/><path fill="#2a272f" fill-opacity=".9" d="M138.4 169.9l26.6-4.7.6 3-26.6 4.6z"/><path fill="#2b0b0c" fill-opacity=".5" d="M21 173l65-3-53-45z"/><circle r="1" fill="#68503a" fill-opacity=".5" transform="matrix(10.5983 47.15924 -11.74778 2.64013 216.7 45.6)"/><circle r="1" fill="#a07f75" fill-opacity=".5" transform="matrix(4.17607 .42947 -6.86165 66.72061 117.2 159.8)"/><path fill="#baa19c" fill-opacity=".4" d="M157.7 140.2l5.1 33.2 15.8-29.4-75.8-77.8z"/><path fill="#060000" fill-opacity=".5" d="M76 122l-21 31-41-48z"/><path fill="#d1c4c2" fill-opacity=".7" d="M92.3 93.8l19.2-18 58.6 76.9-63.4-62.6z"/><path fill="#011732" fill-opacity=".6" d="M110.4 97.2l-7.2 3.2L53.8 128l32.1-34.8z"/><path fill="#d2e1f1" fill-opacity=".5" d="M20 124l-22 49 25-9z"/><path fill="#2d190c" fill-opacity=".5" d="M32.3 77.5l9 42-23.6 5-9-42z"/><ellipse cx="93" cy="147" fill="#aed7fd" fill-opacity=".3" rx="27" ry="30"/><circle r="1" fill="#1b1200" fill-opacity=".5" transform="rotate(93.8 87.7 153.6) scale(107.16246 11.9816)"/><circle r="1" fill="#2f1806" fill-opacity=".5" transform="matrix(-3.43448 4.19612 -27.17711 -22.24421 122.6 72.1)"/><circle r="1" fill="#908055" fill-opacity=".5" transform="matrix(-25.69313 9.23078 -4.54356 -12.64665 81.2 10)"/><path fill="#fbe7f0" fill-opacity=".5" d="M91 72h4v23h-4z"/><path fill="#010f30" fill-opacity=".2" d="M111.5 80.9L86.4 48.1l18.5 3.2L39 84.8z"/><circle r="1" fill="#aaa4a2" fill-opacity=".6" transform="matrix(-3.12882 -40.6626 3.53496 -.272 2.8 70.2)"/><path fill="#a06c49" fill-opacity=".4" d="M103 40h43v21h-43z"/><path fill="#72452a" fill-opacity=".6" d="M184.2 156.8l5-7.5 26.6 18-5 7.4z"/><path fill="#282f00" fill-opacity=".5" d="M129 85h48v12h-48z"/><ellipse cx="57" cy="61" fill="#54423c" fill-opacity=".3" rx="30" ry="64"/><path fill="#848fac" fill-opacity=".4" d="M77.3 147.3l21.5 29.1-40.4-21.3 17.3-31.4z"/><path fill="#746465" fill-opacity=".5" d="M165 147l14-3-30-38z"/><path fill="#88a957" fill-opacity=".3" d="M168.4 101.6l-46.9 1.9 48.2-14.2 5.1 20.1z"/><ellipse cx="131" cy="133" fill="#dff5ff" fill-opacity=".5" rx="4" ry="33"/><path fill="#bbd6ed" fill-opacity=".5" d="M150 150h18v15h-18z"/><ellipse cx="119" cy="72" fill="#441d02" fill-opacity=".5" rx="4" ry="13"/><circle r="1" fill="#cf927b" fill-opacity=".6" transform="rotate(28.2 -105 290.2) scale(5.85593 3.50244)"/><path fill="#000715" fill-opacity=".5" d="M99 77l11 1-17 10z"/><path fill="#bcc2ce" fill-opacity=".6" d="M17.5 114.4l1.8-2.2-31.7 72.8-3.6-54.7z"/><ellipse cx="99" cy="131" fill="#dceefd" fill-opacity=".4" rx="14" ry="19"/><path fill="#7a4f39" fill-opacity=".5" d="M152 57l-37-2 17 23z"/><path fill="#8c5f4d" fill-opacity=".5" d="M118 111h8v12h-8z"/><circle r="1" fill="#250a01" fill-opacity=".4" transform="matrix(-14.11782 -37.71293 22.5841 -8.45435 202.4 112)"/><circle r="1" fill="#803c00" fill-opacity=".2" transform="matrix(-26.42001 27.07359 -20.94732 -20.44163 122.2 5.3)"/><circle cx="93" cy="68" r="5" fill="#000014" fill-opacity=".5"/><path fill="#180000" fill-opacity=".4" d="M2 165.5l-2.8-1.1L16 120.5l2.8 1.1z"/><path fill="#391601" fill-opacity=".6" d="M249 128v58h-30v-58z"/><path fill="#3e2512" fill-opacity=".5" d="M20 126L2 32l51 39z"/><path fill="#2c4b5f" fill-opacity=".6" d="M60.8 114l14-13.2 5.9 18.9-18.9-2.6z"/><path fill="#fef5dc" fill-opacity=".7" d="M211 1l-19-14 24 3z"/><circle r="1" fill="#30250f" fill-opacity=".5" transform="rotate(8.2 -161.5 1170.7) scale(15.63762 22.95968)"/><path fill="#ddf4ff" fill-opacity=".5" d="M99.6 65.2l5.7 21.3-1 .3-5.6-21.3z"/><path fill="#00000e" fill-opacity=".5" d="M103 92l-27 9 3 14z"/><path fill="#ffe4de" fill-opacity=".6" d="M93.5 73.2l1 .3-4 11.3-1-.3z"/><path fill="#41210e" fill-opacity=".3" d="M29.8 26.2l53.8 4.7-1.4 17L28.4 43z"/><path fill="#beb3b4" fill-opacity=".9" d="M107.4 71.7l-4.2-13.1.3 6 14.4 69.5z"/><path fill="#3f2211" fill-opacity=".6" d="M227 14h29v39h-29z"/><path fill="#b6af9b" fill-opacity=".4" d="M239.7 10l-8.8-4.9-3.2 2.9 13.1-3.1z"/><path fill="#1f0000" fill-opacity=".6" d="M44 125h17v45H44z"/><circle r="1" fill="#c0cbd2" fill-opacity=".5" transform="matrix(4.25864 -11.54983 3.16935 1.1686 25 139.2)"/><path fill="#0a2113" fill-opacity=".4" d="M173.5 140.1l-26-42.3 13.4 9.4L172.3 94z"/><path fill="#351307" fill-opacity=".7" d="M152.5 185l59-10.6-43.3-21.5 21.8-11.5z"/></g></svg>