<svg xmlns="http://www.w3.org/2000/svg" viewBox="0 0 300 199"><defs/><path fill="#513d3c" d="M0 0h300v199H0z"/><g transform="translate(.6 .6) scale(1.17188)"><circle r="1" fill="#e3d2ca" fill-opacity=".6" transform="matrix(56.37363 34.23374 -72.11263 118.74983 19.5 52)"/><circle r="1" fill="#776863" fill-opacity=".8" transform="matrix(4.2712 42.37935 -104.13296 10.49502 153.5 35.6)"/><circle r="1" fill="#000007" fill-opacity=".6" transform="rotate(89.7 -21.3 132.3) scale(33.24248 72.24502)"/><path fill="#e7dbd9" fill-opacity=".6" d="M174 127V64l-22-4z"/><circle r="1" fill="#0e1126" fill-opacity=".7" transform="matrix(-27.6823 -5.68236 11.03219 -53.74462 203.8 120.3)"/><circle r="1" fill="#1f191c" fill-opacity=".9" transform="matrix(-34.5366 -.3014 .30854 -35.35526 109 99)"/><circle r="1" fill="#e7f3f9" fill-opacity=".4" transform="matrix(.45646 -20.21373 121.67629 2.74768 11.4 6)"/><circle r="1" fill="#b85b5c" transform="matrix(16.01442 8.76764 -12.11298 22.1248 16.8 168.9)"/><path fill="#fff" fill-opacity=".4" d="M157 99l3 28-25-8z"/><path fill="#b38678" fill-opacity=".9" d="M33.5 100.8L65.3 33l1.2 101.7-21.1-3.4z"/><circle r="1" fill="#9d958c" fill-opacity=".6" transform="matrix(-78.74557 12.33123 -2.54209 -16.23345 190.8 8.1)"/><ellipse cx="85" cy="45" fill="#00010b" fill-opacity=".3" rx="16" ry="27"/><path fill="#e2e4e1" fill-opacity=".5" d="M-16 75l27-91 10 136z"/><circle r="1" fill="#322224" fill-opacity=".5" transform="matrix(3.754 20.45392 -31.54726 5.79 198.5 41.7)"/><path fill="#877d7c" d="M128 96.4l5.5 7 2.6-48.8-6-1.5z"/><path fill="#b97a6b" fill-opacity=".5" d="M191 88l19 8-22-68z"/><path fill="#d2e2d6" fill-opacity=".6" d="M38 163.2l-8.8 4.7L18 146.8l8.8-4.7z"/><path fill="#2d2a26" fill-opacity=".5" d="M94.4 23.7l91.1 12.8-2 13.8-91-12.8z"/><circle r="1" fill="#060309" fill-opacity=".6" transform="matrix(-4.49296 10.48286 -25.74598 -11.03474 58 145.7)"/><path fill="#c0735c" fill-opacity=".7" d="M104.5 106.3l6.5 7.7-11.5 9.7L93 116z"/><path fill="#bdb2a1" fill-opacity=".5" d="M229 18h17v34h-17z"/><path fill="#d3bfb8" fill-opacity=".5" d="M72.7 100l12.9-30.1-22 6.6L73 113z"/><ellipse cx="170" cy="107" fill="#c3bac1" fill-opacity=".7" rx="6" ry="18"/><path fill="#ae9b97" fill-opacity=".7" d="M153.6 87.2l2.7 28.7-14-49.8 10.5 5.9z"/><path fill="#000006" fill-opacity=".5" d="M192 62l-19 20 14 61z"/><path fill="#1f1c2b" fill-opacity=".8" d="M255.6 215.4l-103.3-54.9 20.1-38 103.3 55z"/><path fill="#231712" fill-opacity=".5" d="M250.3 39l-13.1-27 22.5-11 13.1 27z"/><circle r="1" fill="#d3c4ba" fill-opacity=".6" transform="matrix(-11.92594 -23.41372 9.54501 -4.86182 44.8 68.9)"/><path fill="#a2876a" fill-opacity=".8" d="M-16 35.4l200.8-16.5 57.9-4.5-175.3 5.1z"/><path fill="#e18d72" fill-opacity=".5" d="M183.7 41.9l-2.9 19.7 20.3 1.2-5.4-19.1z"/><path fill="#b4010a" fill-opacity=".5" d="M26.6 175.8l-39.6 4.6 27.9-34.3L25 160.9z"/><path fill="#1a0400" fill-opacity=".5" d="M46.6 40.4L58 35.8l-2.2 11.5-11.6 6z"/><path fill="#c4988c" fill-opacity=".6" d="M139 62l-37-28 2 26z"/><path fill="#ffa691" fill-opacity=".4" d="M191 155l-7-15-2 20z"/><path fill="#7b0000" fill-opacity=".4" d="M70 99l-9-20 6 42z"/><path fill="#9e6f60" d="M154.6 56.3l-7.2-20.8-7.6 9.9 19.9 39z"/><path fill="#cac3c6" fill-opacity=".5" d="M-27.8 149.3l50.5-44 15.1 17.4-50.5 44z"/><path fill="#d3c4ad" fill-opacity=".5" d="M237 95l5-15-10-3z"/><path fill="#16131b" fill-opacity=".8" d="M154.6 185L39.1 167.8l41.2-21.5 55-48.4z"/><path fill="#1f1d25" fill-opacity=".8" d="M170.2 61.7l7.2-24 6.5 37.6L236 95z"/><path fill="#313036" fill-opacity=".6" d="M231 64l-59-36 55-10z"/><path fill="#fff" fill-opacity=".5" d="M141 25h41v2h-41z"/><path fill="#100c10" fill-opacity=".5" d="M75.1 86.6l-.2 32.7 51.9-25.5-7.2-37.6z"/><path fill="#cbdfe2" fill-opacity=".4" d="M176.2 79.7l-7.7-30-15.3 4.4 27.4 14.5z"/><path fill="#726046" fill-opacity=".5" d="M17 27h7v56h-7z"/><path fill="#131115" fill-opacity=".9" d="M131.1 116.9l18.5-12.7 1-14.6-10.1-5.6z"/><circle cx="1" cy="109" r="8" fill="#713c35" fill-opacity=".6"/><path fill="#c8c0af" fill-opacity=".5" d="M49 28h21v9H49z"/><circle r="1" fill="#241814" fill-opacity=".4" transform="rotate(-29.8 151.8 -217.7) scale(12.85365 5.92016)"/><path fill="#754437" fill-opacity=".5" d="M106.2 71.3l42.1-10.6L129 77.9l-18.4-33.7z"/><path fill="#150c11" fill-opacity=".7" d="M78 128l-32 49-14-39z"/><path fill="#0f152d" fill-opacity=".5" d="M189 95h43v75h-43z"/><path fill="#95775d" fill-opacity=".5" d="M232 107h6v49h-6z"/><path fill="#c0c0cd" fill-opacity=".6" d="M164 126l-20-5-3-13z"/><path fill="#c8d4cc" fill-opacity=".5" d="M152 34h27v2h-27z"/><path fill="#1b1a29" fill-opacity=".9" d="M228.8 119.8l-24-59-6.9 15.1 3.1 3.4z"/><path fill="#6d778f" fill-opacity=".4" d="M82.3 153.1l2.5-27.1 6-6.5-2.5 12.8z"/><path fill="#9fb6c4" fill-opacity=".5" d="M121 54h18v11h-18z"/><path fill="#a99a8a" fill-opacity=".5" d="M231 15h3v73h-3z"/><circle r="1" fill="#221a1e" fill-opacity=".4" transform="matrix(18.06676 5.9681 -2.05254 6.21351 84.7 67.4)"/><path fill="#b59a92" fill-opacity=".8" d="M132.4 75.8l10-8.3 12.4 33.8-4.8-28.6z"/><circle r="1" fill="#d3b6ae" fill-opacity=".5" transform="rotate(177.3 34.2 49.5) scale(2.08941 14.3425)"/><path fill="#2e1219" fill-opacity=".5" d="M153.9 69.7l7.8 20.5-5.6 2.1-7.8-20.5z"/><path fill="#423d3c" fill-opacity=".7" d="M140.1 23L94.7 36.8 220 31.2 72.4 28.3z"/><path fill="#5d5b54" fill-opacity=".6" d="M128 0h38v8h-38z"/></g></svg>