<svg xmlns="http://www.w3.org/2000/svg" viewBox="0 0 300 199"><defs/><path fill="#34533a" d="M0 0h300v199H0z"/><g transform="translate(.6 .6) scale(1.17188)"><circle r="1" fill="#fff0fc" fill-opacity=".6" transform="matrix(6.0359 25.93777 -15.71375 3.6567 137.2 113)"/><circle cy="88" r="102" fill="#0d1300" fill-opacity=".5"/><circle r="1" fill="#0a0400" fill-opacity=".5" transform="rotate(2.5 -1272 4759.4) scale(100.22296 24.08133)"/><circle r="1" fill="#7d5861" fill-opacity=".6" transform="matrix(.87658 36.29164 -83.026 2.00539 193.9 155)"/><circle r="1" fill="#6c7275" fill-opacity=".6" transform="rotate(-98.5 83.7 -70.2) scale(28.82097 88.72343)"/><path fill="#091700" fill-opacity=".7" d="M73.3-6.6L109-2.2l-2.3 18.8L71 12.2z"/><path fill="#fff" fill-opacity=".5" d="M94.7 38h-9l-.4-24h9z"/><path fill="#c2c2c1" fill-opacity=".6" d="M141 78.7l-3.4-8.9-24.7 59.2 45.5 1z"/><path fill="#f7ffa1" fill-opacity=".4" d="M176 88h60v7h-60z"/><path fill="#f3e3ff" fill-opacity=".3" d="M221 57.2L238.4 28l-23.8-4.9.7-17.5z"/><circle r="1" fill="#afc1b7" fill-opacity=".7" transform="matrix(8.10717 -.68078 1.90512 22.6875 119 10.1)"/><circle r="1" fill="#f2f1fd" fill-opacity=".6" transform="matrix(20.44014 -5.784 1.43151 5.05884 193.5 0)"/><ellipse cx="251" cy="36" fill="#0f0d05" fill-opacity=".7" rx="12" ry="95"/><circle r="1" fill="#0f190b" fill-opacity=".6" transform="rotate(154.2 69 38.2) scale(21.41694 27.26656)"/><path fill="#30492c" fill-opacity=".7" d="M130.2 102.8L34.4 91.6l73.8-76.4L120 46.7z"/><path fill="#0c0923" fill-opacity=".8" d="M179.2 103.3l-14.4 31.3-7.4-55.7 16.1 5.6z"/><path fill="#c3cae0" fill-opacity=".5" d="M196.3 11.4l51.3-7.2-20.5 9.3-6.4 9.4z"/><circle r="1" fill="#200a08" fill-opacity=".4" transform="rotate(100 62.7 144.8) scale(9.29742 75.4401)"/><path fill="#090a06" fill-opacity=".6" d="M165 37l51-23-3 20z"/><path fill="#13220c" fill-opacity=".7" d="M-16-10l26 56L115 0z"/><path fill="#18241c" fill-opacity=".5" d="M204 12l-63.8-2.8 2.2-25.2 16.7 37.9z"/><path fill="#faefff" fill-opacity=".5" d="M219.2 29.7l20.1-6.2 1.5 4.8-20.1 6.2z"/><path fill="#9c9188" fill-opacity=".5" d="M31 81h26v7H31z"/><path fill="#b6ceeb" fill-opacity=".4" d="M170.3 34.5l22.3-10.8-16.1-3.4-4.9 5z"/><path fill="#866a6e" fill-opacity=".8" d="M167.6 65.6l1.6 16.9-7.8-4.1 2.3-11.3z"/><path fill="#000100" fill-opacity=".5" d="M198.4 1.4L228-4.3l1.7 8.9-29.5 5.7z"/><path fill="#878059" fill-opacity=".5" d="M98.8 111.9l9-21.2 17.4 7.4-9 21.2z"/><circle r="1" fill="#3b3c27" fill-opacity=".5" transform="matrix(-34.35755 27.8222 -16.9291 -20.9057 80.2 144)"/><ellipse cx="10" cy="144" fill="#141c0b" fill-opacity=".5" rx="30" ry="93"/><path fill="#151413" fill-opacity=".5" d="M205.4 24.3l41.7-10.4 1.5 5.8-41.7 10.4z"/><circle r="1" fill="#5e5049" fill-opacity=".5" transform="matrix(-39.51163 13.83678 -6.7615 -19.3078 119.8 155.4)"/><path fill="#9faba0" fill-opacity=".7" d="M127.2-5.3L133.4 5l-20.6 12.3L106.6 7z"/><path fill="#d7d9dd" fill-opacity=".4" d="M161.4 122.4l-10.4 7-12.7 3.2-9.6-60.1z"/><path fill="#4a5e4f" fill-opacity=".7" d="M90.2-3l1-2.9 68.6 25-1 2.8z"/><path fill="#f5fcfa" fill-opacity=".5" d="M91 35l5-18-11-3z"/><ellipse cx="223" cy="87" fill="#b6c574" fill-opacity=".4" rx="16" ry="4"/><ellipse cx="104" cy="30" fill="#22381e" fill-opacity=".8" rx="7" ry="26"/><circle r="1" fill="#3e543d" fill-opacity=".5" transform="rotate(-10.2 366 -1185.6) scale(8.06915 19.93019)"/><ellipse cx="114" cy="74" fill="#0b1704" fill-opacity=".5" rx="8" ry="13"/><path fill="#738a7b" fill-opacity=".7" d="M92.2 14.1l4.1 20-12-3.3 10.3 22.4z"/><ellipse cx="186" cy="143" fill="#695c57" fill-opacity=".6" rx="20" ry="35"/><path fill="#788687" fill-opacity=".5" d="M163 26L150 6l9 30z"/><path fill="#e1f0ff" fill-opacity=".3" d="M199.1 18.5l-34.4-34.3 33.9 28.5 28.1-4.2z"/><circle r="1" fill="#2b2517" fill-opacity=".3" transform="matrix(-17.71961 -18.28522 16.16214 -15.6622 246 114.4)"/><path fill="#639d4b" fill-opacity=".2" d="M72.6 78.7l-6.2 45.8 11.8 6.6 11.4-35.6z"/><path fill="#d7aba3" fill-opacity=".5" d="M138 84l-16-10h22z"/><path fill="#12160c" fill-opacity=".5" d="M129.5 64.1l22.8 24.6 10-4.3-1.1-51.3z"/><path fill="#eaf9fc" fill-opacity=".3" d="M120.5 15.9l-9.8-24 16 28.2-21.4 6.7z"/><path fill="#0e1009" fill-opacity=".7" d="M166.8 44.1l-4 .5-3.6-28.7 4-.5z"/><path fill="#275940" fill-opacity=".4" d="M59.6 105.8l-20.9 19.8L2.9 110l13.9-9.6z"/><path fill="#625351" fill-opacity=".6" d="M151.8 115.3l8.6-14.3 12.1 62.1-30.8-86.5z"/><path fill="#1c3518" fill-opacity=".5" d="M107.2 38.3L53.8 71.7l44.9 93.8-29.1-78z"/><path fill="#5d6d60" fill-opacity=".6" d="M164 47h19v5h-19z"/><path fill="#8a9a96" fill-opacity=".5" d="M242 17h12v3h-12z"/><path fill="#bdc3cd" fill-opacity=".5" d="M212 6h22v7h-22z"/><path fill="#989ea7" fill-opacity=".5" d="M161 11l-6-17 17 18z"/><path fill="#b3c9e2" fill-opacity=".5" d="M177.6 30.7l-11.2-7.2 5.6-.4 12-4.6z"/><path fill="#b1b5b1" fill-opacity=".6" d="M127.2 128.2l23-43.3-32.2 28.7 4.4 19.2z"/><path fill="#e1e5eb" fill-opacity=".7" d="M200 2l-25-2 24-6z"/><path fill="#818893" fill-opacity=".6" d="M244 4.8l-2.6 4.4-17.3-10 2.5-4.4z"/><path fill="#b1c9c3" fill-opacity=".3" d="M126.6-5.1l15.2 15.2-28.3 8.2 21.8 1z"/><path fill="#123013" fill-opacity=".4" d="M65 157l-33-32 86 1z"/><path fill="#0e1a13" fill-opacity=".5" d="M173 9h16v9h-16z"/><path fill="#1f3e27" fill-opacity=".4" d="M21 21h66v41H21z"/><circle r="1" fill="#3c3d2b" fill-opacity=".6" transform="matrix(-20.87779 .72228 -.90994 -26.30236 77.1 169)"/></g></svg>