<svg xmlns="http://www.w3.org/2000/svg" viewBox="0 0 300 199"><defs/><path fill="#2f354b" d="M0 0h300v199H0z"/><g transform="translate(.6 .6) scale(1.17188)"><circle r="1" fill="#e2e6ec" fill-opacity=".8" transform="matrix(-155.06501 93.45425 -31.2621 -51.872 48 40.3)"/><circle r="1" fill="#8b8683" fill-opacity=".9" transform="matrix(-20.6324 -15.60707 105.7608 -139.81472 44.7 154.1)"/><path fill="#10090c" fill-opacity=".7" d="M156 185L113 22l54 10z"/><circle r="1" fill="#d9dada" fill-opacity=".6" transform="matrix(-6.5526 .31425 -4.00754 -83.56265 214.2 51.9)"/><circle cx="64" cy="52" r="50" fill="#edf3fa" fill-opacity=".5"/><path fill="#ffd89a" fill-opacity=".3" d="M36 185l-52-60 245 41z"/><path fill="#ced4dc" fill-opacity=".5" d="M249 0h7v112h-7z"/><path fill="#ccd4e2" fill-opacity=".9" d="M222.8 5.6L152.4-16-14.8 20.7 156 15.3z"/><ellipse cx="185" cy="135" fill="#1a1500" fill-opacity=".5" rx="89" ry="23"/><ellipse cx="30" cy="131" fill="#4a4846" fill-opacity=".9" rx="76" ry="7"/><circle r="1" fill="#3b0000" fill-opacity=".5" transform="matrix(-13.5717 1.52467 -6.86702 -61.12603 194.8 72.6)"/><path fill="#504f43" d="M67.9 166.2l200.3-12.1-206.1-5.7L39.9 132z"/><ellipse cx="216" cy="118" fill="#abb1b5" fill-opacity=".6" rx="7" ry="26"/><circle r="1" fill="#fff2e1" fill-opacity=".4" transform="matrix(28.01605 4.139 -1.20599 8.16309 31.6 151.5)"/><circle r="1" fill="#af9589" fill-opacity=".4" transform="matrix(-1.72049 -43.63785 8.6296 -.34023 170.1 60.3)"/><path fill="#625a5a" fill-opacity=".7" d="M109 102l-14 47-49-54z"/><path fill="#e0e3e7" fill-opacity=".5" d="M113 100V56L-16 81z"/><path fill="#1f2741" fill-opacity=".2" d="M101 171l1-136 54-6z"/><path fill-opacity=".5" d="M.4 161.3l5.2-74.8 2 .2-5.2 74.8z"/><path fill="#646814" fill-opacity=".7" d="M271 156l-28 29-75-38z"/><path fill="#59590c" fill-opacity=".8" d="M23 179.1L-7.7 185l2.4-33.9 26 5.7z"/><ellipse cx="226" cy="40" fill="#000002" fill-opacity=".5" rx="6" ry="94"/><path fill="#e9cdbe" fill-opacity=".5" d="M102.3 166l-2.4 17-78.2-11 2.4-17z"/><circle r="1" fill="#ccd3e0" fill-opacity=".7" transform="matrix(-10.812 -23.76831 29.63393 -13.4802 156.2 0)"/><ellipse cx="16" cy="41" fill="#eaeff4" fill-opacity=".5" rx="33" ry="47"/><path fill-opacity=".6" d="M226 116h26v38h-26z"/><ellipse cx="109" cy="75" fill="#c7cbce" fill-opacity=".8" rx="5" ry="26"/><ellipse cx="57" cy="119" fill="#6f6c6f" fill-opacity=".7" rx="35" ry="8"/><circle r="1" fill="#150800" fill-opacity=".3" transform="matrix(2.27081 26.48786 -54.36703 4.6609 156.8 128.2)"/><ellipse cx="120" cy="169" fill="#b19786" fill-opacity=".6" rx="44" ry="7"/><path fill="#fffbf1" fill-opacity=".5" d="M10 97h14v29H10z"/><path fill="#3f0205" fill-opacity=".4" d="M223 3.1l-42 8.5 29.1 111.6-3.2-121.5z"/><path fill="#a7adae" fill-opacity=".5" d="M254 142l17 1-19-36z"/><path fill="#ebd8c3" fill-opacity=".5" d="M59 136l42 7-40 5z"/><path fill="#282939" fill-opacity=".7" d="M118.6 124.8l18.7 15.4L139 25.8h-19.1z"/><path fill="#646975" fill-opacity=".8" d="M120.4 31.1l-2.7 72.6-5.5-85.3 17.1 5.5z"/><ellipse cx="253" cy="17" fill="#9098a9" fill-opacity=".6" rx="7" ry="46"/><path fill="#52484b" fill-opacity=".5" d="M89 77h4v37h-4z"/><path fill="#f5f4f3" fill-opacity=".6" d="M23 92h24v21H23z"/><path fill="#d8c6b8" fill-opacity=".9" d="M15.1 147.9l56.3 26.4L43.7 139l-36.1 7.8z"/><path fill="#a7837f" fill-opacity=".5" d="M200.1 35l-3.3-10L218.2-.6l8.6-9.3z"/><circle r="1" fill="#1b232c" fill-opacity=".6" transform="matrix(-.9995 .03185 -1.21816 -38.2216 250.2 104)"/><path fill="#623a2f" fill-opacity=".3" d="M164 61h28v61h-28z"/><path fill="#838d95" fill-opacity=".5" d="M162 41h15v21h-15z"/><path fill="#b8b9c2" fill-opacity=".5" d="M210 34h10v73h-10z"/><path fill="#393a2e" fill-opacity=".7" d="M42.8 115.4l-4.6 22.5-53.9-23.7 41 27.8z"/><ellipse cx="204" cy="91" fill="#090000" fill-opacity=".5" rx="5" ry="60"/><ellipse cx="152" cy="88" fill="#050000" fill-opacity=".4" rx="11" ry="60"/><path fill="#2c2425" fill-opacity=".5" d="M57.2 102.2l38.1 3.6 59.8 10.9-94.6-8.2z"/><path fill="#3e393d" fill-opacity=".5" d="M102 34h2v88h-2z"/><path fill="#40404b" fill-opacity=".5" d="M98.5 143.9l24.2-63-9.4 82.7-41.9 2z"/><path fill="#807171" fill-opacity=".6" d="M47 139l13 6-11-49z"/><circle r="1" fill="#182a44" fill-opacity=".5" transform="matrix(10.5096 -.69158 3.48714 52.99223 237 22)"/><path fill="#725f50" fill-opacity=".5" d="M8.4 94.9l7.4-1 14.7-3.7-15.7-1.4z"/><ellipse cx="94" cy="124" fill="#fffff8" fill-opacity=".4" rx="2" ry="13"/><path fill="#291822" fill-opacity=".5" d="M192 47l-38 25 9 12z"/><path fill="#7a6b5f" fill-opacity=".6" d="M138.4 156.5l-22.1 15.1 67-12.6-16.7-6z"/><circle r="1" fill="#e5ebf0" fill-opacity=".6" transform="matrix(15.5396 -22.95189 8.55624 5.79301 82.3 71.1)"/><path fill="#2c2945" fill-opacity=".4" d="M51 138.4l20.9 20.2-4.9 5-20.9-20.2z"/><path fill="#021600" fill-opacity=".5" d="M271 158l-24-19-56 7z"/><path fill="#fff" fill-opacity=".5" d="M85 112h1v21h-1z"/><path fill="#cdd8e5" fill-opacity=".6" d="M-16 16l129 19v-51z"/><path fill="#958a87" fill-opacity=".6" d="M47 89h7v40h-7z"/><path fill="#0f2100" fill-opacity=".6" d="M103 141h107v7H103z"/><path fill="#d8d3cc" fill-opacity=".6" d="M9 127L6 96l17 27z"/></g></svg>