<svg xmlns="http://www.w3.org/2000/svg" viewBox="0 0 300 199"><defs/><path fill="#2f6036" d="M0 0h300v199H0z"/><g transform="translate(.6 .6) scale(1.17188)"><circle r="1" fill="#c9a0ba" fill-opacity=".6" transform="rotate(-161.2 64.8 7.4) scale(255 74.42657)"/><path fill="#ae9f9f" fill-opacity=".7" d="M-16 165L6-16l43 194z"/><circle r="1" fill="#5e5555" fill-opacity=".8" transform="matrix(-49.10048 78.05501 -57.2157 -35.99152 140.3 137)"/><path fill-opacity=".5" d="M98 162l71-12-55-97z"/><ellipse cx="87" fill="#e3ede5" fill-opacity=".4" rx="51" ry="77"/><ellipse cx="230" cy="68" fill="#e6e9ff" fill-opacity=".4" rx="18" ry="63"/><circle r="1" fill="#ab9caa" fill-opacity=".5" transform="rotate(138.7 72.5 105) scale(37.10684 26.52094)"/><ellipse cx="52" cy="116" fill="#15001b" fill-opacity=".6" rx="22" ry="36"/><path fill="#d4d8d6" fill-opacity=".6" d="M66 134h23v29H66z"/><path fill="#31342c" fill-opacity=".5" d="M180 4h29v106h-29z"/><path fill="#f0edf1" fill-opacity=".5" d="M167 12h9v74h-9z"/><path fill="#070000" fill-opacity=".2" d="M89 48h46v98H89z"/><path fill="#6c5e4e" fill-opacity=".6" d="M29 33l2 116L60 45z"/><ellipse cx="142" cy="167" fill="#c3a594" fill-opacity=".4" rx="78" ry="9"/><path fill="#fff8ec" fill-opacity=".4" d="M142.4 129.8l17.9-59-8.7-.4-10.4 39.4z"/><path fill="#222327" d="M218.7 152l-13.2-6.6-3.1 27.7 68.6-45z"/><path fill="#e2dec4" fill-opacity=".4" d="M74 51l24 71-60-64z"/><path fill="#f4f9f9" fill-opacity=".6" d="M168 100h7v49h-7z"/><ellipse cx="54" cy="130" fill="#080611" fill-opacity=".8" rx="12" ry="49"/><path fill="#534d40" fill-opacity=".6" d="M139 0h26v53h-26z"/><path fill="#001001" fill-opacity=".7" d="M173.5 86.2l30 1.6-1 18-30-1.6z"/><path fill="#807a7c" fill-opacity=".5" d="M174 30h42v54h-42z"/><path fill="#cad6dd" fill-opacity=".5" d="M199.3 130.5v-28.2l-12.1 9.5-4.4 38.8z"/><path fill="#fff" fill-opacity=".5" d="M192 152h11v18h-11z"/><path fill="#817654" fill-opacity=".5" d="M120 44l-68 1 102 29z"/><circle r="1" fill="#1b0514" fill-opacity=".7" transform="matrix(-4.26393 21.70981 -10.39873 -2.04237 255 149.3)"/><path fill="#b0b9c6" fill-opacity=".5" d="M16 157L12 1l-28 93z"/><path fill="#303133" fill-opacity=".3" d="M225 0l-51 62V13z"/><path fill="#000d09" fill-opacity=".4" d="M177 83h8v87h-8z"/><ellipse cx="143" cy="108" fill="#87724c" fill-opacity=".8" rx="3" ry="169"/><path fill="#30221e" fill-opacity=".6" d="M148 119l16-51 4 109z"/><ellipse cx="32" cy="19" fill="#615844" rx="4" ry="103"/><path fill="#151b13" fill-opacity=".5" d="M212 117l-17 31 9-43z"/><path fill="#827152" fill-opacity=".6" d="M35 180.6l-27.4-6.3 9.5-41 27.3 6.4z"/><path fill="#5e565c" d="M49 57.2L37.3 87.8l1.9 16.8 17.3-26.8z"/><path fill="#b2a68f" fill-opacity=".5" d="M115.8 95.8l.7-14.2L102.1 61l-18.9 2.4z"/><circle cx="56" cy="8" r="21" fill="#cbd3e4" fill-opacity=".5"/><path fill="#c1bda7" fill-opacity=".4" d="M139 17l-4 48-23-1z"/><circle r="1" fill="#0a0e14" fill-opacity=".5" transform="matrix(17.2672 24.56874 -16.73749 11.7633 115.4 133.5)"/><path fill="#020014" fill-opacity=".5" d="M58 101h21v35H58z"/><ellipse cx="170" cy="18" fill="#e4e3e6" fill-opacity=".6" rx="3" ry="71"/><path fill="#949994" fill-opacity=".6" d="M79.5 163.9l31.1-7.2-15.8-9.7-17.5-23.8z"/><path fill="#a39a8a" fill-opacity=".6" d="M271 100l-30-78v114z"/><path fill="#f1d5a3" fill-opacity=".3" d="M113 183l56-20-28-10z"/><ellipse cx="15" cy="52" fill="#454936" fill-opacity=".5" rx="2" ry="36"/><path fill="#9f8d97" fill-opacity=".5" d="M206 79h20v70h-20z"/><path fill="#463517" fill-opacity=".5" d="M30.7 44.2l.4-3 102.2 12.6-.4 3z"/><circle cx="255" cy="8" r="14" fill="#57493f" fill-opacity=".7"/><path fill="#84707b" fill-opacity=".7" d="M245.9 124.3l-2.6 30.2-13.1 3.7 5.1 24.5z"/><path fill="#a79294" fill-opacity=".9" d="M201.9 150.9l9.6-20.9-24.8 32.6-51.8 10.3z"/><path fill="#bdc3d9" fill-opacity=".4" d="M211 28l31-32-5 112z"/><path fill="#b8c5ce" fill-opacity=".5" d="M82 96h3v50h-3z"/><path fill="#070000" fill-opacity=".4" d="M172 155.2l-5 10.1-24.2-16.5 8.7-13.6z"/><path fill="#0b0000" fill-opacity=".6" d="M172 175.1l-2.1-6.7L188 163l2 6.7z"/><path fill="#2e3833" fill-opacity=".8" d="M187.5 154.2l10.7-3.8 6.8-22 2.8-9.2z"/><ellipse cx="149" cy="91" fill="#b6bdcd" fill-opacity=".5" rx="5" ry="18"/><path fill="#fbf6ff" fill-opacity=".8" d="M211 166l-5 19h55z"/><path fill="#bdc2c2" fill-opacity=".6" d="M65.6 178.1l2-42.4 1.9-8.7 7.8 28.1z"/><path fill="#383225" fill-opacity=".5" d="M173.5 6.3l4.7-2.7 35.6 8.3-14.3 18.9z"/><ellipse cx="36" cy="135" fill="#6a5d46" fill-opacity=".7" rx="5" ry="77"/><path fill="#d7b3bb" fill-opacity=".5" d="M169 77l13-7 17 7z"/><path fill="#b4b9ba" fill-opacity=".6" d="M37 13h50v30H37z"/><path fill="#030001" fill-opacity=".5" d="M214.2 167.4l-2.9-5.2 24.5-13.6 2.9 5.2z"/><path fill="#e7e6ec" fill-opacity=".7" d="M44.4 165.8l-1 .1-3.8-27.7 1-.1z"/><ellipse cx="25" cy="57" fill="#99937e" fill-opacity=".8" rx="4" ry="63"/></g></svg>