<svg xmlns="http://www.w3.org/2000/svg" viewBox="0 0 300 199"><defs/><path fill="#4c444c" d="M0 0h300v199H0z"/><g transform="translate(.6 .6) scale(1.17188)"><ellipse cx="59" cy="82" fill="#e9eee9" fill-opacity=".6" rx="24" ry="168"/><circle r="1" fill="#050805" fill-opacity=".7" transform="matrix(-41.57749 20.76676 -46.75143 -93.60183 222.1 81.5)"/><circle r="1" fill="#d6d7d6" fill-opacity=".9" transform="matrix(103.67846 -1.94205 .1635 8.72883 89.3 0)"/><path fill="#fff" fill-opacity=".5" d="M83 18h72v17H83z"/><ellipse cx="13" cy="139" fill="#000200" fill-opacity=".7" rx="24" ry="132"/><circle r="1" fill-opacity=".6" transform="rotate(90.5 20 32.4) scale(5.29151 44.69549)"/><path fill="#f6fff6" fill-opacity=".4" d="M127.9 185l77-60.4-92.5-40.3 54.4 41.4z"/><circle r="1" fill="#767676" transform="rotate(-157.8 50.3 21.8) scale(23.95186 30.25044)"/><circle r="1" fill-opacity=".5" transform="rotate(-52.1 163.5 -42.4) scale(42.8933 9.31153)"/><circle r="1" fill="#fff" fill-opacity=".5" transform="matrix(-1.95876 8.69096 -56.85675 -12.81434 101.3 166.7)"/><path fill="#fbfffb" fill-opacity=".5" d="M126.6 111.3l-1.1-21 30-1.6 1 21z"/><circle r="1" fill="#f6f7f6" fill-opacity=".5" transform="matrix(23.54504 -14.65305 8.49627 13.65211 70.2 96)"/><path fill="#020402" fill-opacity=".7" d="M152 72.3L123.4 81 112 43.7l28.6-8.7z"/><path fill-opacity=".5" d="M152 155l-43-32 59-19z"/><path fill="#f0f6f0" fill-opacity=".6" d="M232 12v-28l39 26z"/><circle r="1" fill="#080d08" fill-opacity=".6" transform="rotate(23.2 -297 557) scale(36.90583 13.61862)"/><ellipse cx="99" cy="13" fill="#080808" fill-opacity=".9" rx="131" ry="5"/><path fill="#d4d4d4" fill-opacity=".7" d="M174 9l1-16-59 14z"/><path fill="#dbdddb" fill-opacity=".7" d="M153.3 58.8l2.4-37.4-79.6-3.6 61.2 14.8z"/><path fill="#b6b6b6" fill-opacity=".5" d="M246 91.8l1 24-13 .4-1-24z"/><circle r="1" fill="#fff" fill-opacity=".4" transform="matrix(7.47073 -.13932 1.92402 103.17416 54 126.4)"/><path fill="#f9fff9" fill-opacity=".5" d="M109.2 148.2l-6-24.1-15.4 13.3-4.3-1.2z"/><path fill="#b1b1b1" d="M165.6 120.2l1.1-23.3 2.4-8.2 19.8 60.6z"/><path fill="#8c8d8c" fill-opacity=".6" d="M4 34l-20 53 19 73z"/><ellipse cx="43" cy="81" fill="#010101" fill-opacity=".4" rx="3" ry="29"/><path fill="#191c19" fill-opacity=".7" d="M121 46l-20 52 36 67z"/><path fill="#1a1d1a" fill-opacity=".7" d="M154 150.4l-78.9-1.9 3.5-35.4 19.1 48z"/><path fill="#080908" fill-opacity=".7" d="M4 22h32v148H4z"/><ellipse cx="203" cy="12" fill="#101010" fill-opacity=".9" rx="28" ry="118"/><path fill="#e4e3e4" fill-opacity=".4" d="M24 20h2v74h-2z"/><path fill="#020202" fill-opacity=".2" d="M103.2 65.8L69 33l-3.5 43.6-12.2 19.5z"/><path fill="#030403" fill-opacity=".6" d="M210.5 77.6l-75.3-7 26.5-16.3-9.8-42.1z"/><ellipse cx="39" cy="143" fill="#fff" fill-opacity=".5" rx="3" ry="119"/><path fill="#c4c5c4" fill-opacity=".5" d="M152.4 150.5l-5.7-13.3 44.7 6.2-1.8-41z"/><path fill="#cdcfcd" fill-opacity=".5" d="M35 18h115v19H35z"/><path fill-opacity=".6" d="M157 67h8v56h-8z"/><path fill="#e0e1e0" fill-opacity=".5" d="M178.8 166.4l-14 18.6 22.4-38.4 1.7-.4z"/><path fill="#b1b6b1" fill-opacity=".6" d="M138 77h30v4h-30z"/><path fill="#fff" fill-opacity=".4" d="M152 185l2-25-77 18z"/><ellipse cx="237" cy="14" fill="#040404" fill-opacity=".7" rx="2" ry="71"/><path fill="#060606" fill-opacity=".5" d="M43 128h4v36h-4z"/><path fill="#6f716f" fill-opacity=".3" d="M175 79.8l-18.6-5.9 33.2 42.6 50 23.2z"/><path fill="#e3e3e3" fill-opacity=".4" d="M232 0h4v35h-4z"/><path fill="#f9f9f9" fill-opacity=".6" d="M81 79l-2 18 25-25z"/><ellipse cx="26" cy="131" fill="#757475" fill-opacity=".6" rx="2" ry="49"/><ellipse cx="248" cy="169" fill="#070807" fill-opacity=".9" rx="70" ry="10"/><circle r="1" fill="#f7f6f7" fill-opacity=".5" transform="matrix(2.20077 -3.37597 13.75402 8.96613 144.3 105.3)"/><path fill="#101310" fill-opacity=".5" d="M103.2 72.9l25.6-.5-51.6 78.9-4.1-21.5z"/><path fill="#959c95" fill-opacity=".5" d="M218 167l-29-30 18 6z"/><path fill="#838383" fill-opacity=".9" d="M117.7 25.9L67.8 41.5l36.8 8.7 17.5-12.7z"/><path fill="#ebeceb" fill-opacity=".4" d="M45 151h42v19H45z"/><path fill="#050805" fill-opacity=".6" d="M156.8 148.3l2.3-8.8-54.4-1.9 45.1-23z"/><circle cx="140" cy="45" r="7" fill-opacity=".7"/><path fill="#656465" fill-opacity=".6" d="M75 57l4 40-12-3z"/><path fill="#cfcecf" fill-opacity=".4" d="M172 35l6 11-2-27z"/><ellipse cx="32" cy="4" fill="#fff" fill-opacity=".4" rx="49" ry="4"/><circle r="1" fill="#121212" fill-opacity=".6" transform="matrix(1.50225 -.3707 25.40202 102.94147 171.2 32.1)"/><path fill="#fff" fill-opacity=".4" d="M66 55L37 39l-1-20z"/><path fill="#010101" fill-opacity=".7" d="M238 56h3v110h-3z"/><path fill="#fefffe" fill-opacity=".2" d="M38.4 103.4l20.7 67.5 13.2-46.6 24.8-29z"/><ellipse cx="243" cy="101" fill="#cecece" fill-opacity=".3" rx="3" ry="21"/><path fill="#e8eae8" fill-opacity=".5" d="M149 30h6v29h-6z"/><ellipse cx="93" cy="169" fill="#000900" fill-opacity=".3" rx="16" ry="6"/><path fill="#8a8e8a" fill-opacity=".6" d="M103 139h26v7h-26z"/><circle r="1" fill="#343434" fill-opacity=".5" transform="matrix(-.45167 -23.12073 .9998 -.01953 42 62.8)"/></g></svg>