<svg xmlns="http://www.w3.org/2000/svg" viewBox="0 0 300 199"><defs/><path fill="#5f4234" d="M0 0h300v199H0z"/><g transform="translate(.6 .6) scale(1.17188)"><path fill="#edf6f2" fill-opacity=".5" d="M146 185L133-16 35 185z"/><circle r="1" fill="#073121" fill-opacity=".7" transform="rotate(-104.6 147.2 -29) scale(127.37369 48.79285)"/><path fill="#6e523f" d="M26 0h82v99H26z"/><circle cx="84" cy="151" r="32" fill="#f3f6ff" fill-opacity=".5"/><path fill="#c4b9b2" fill-opacity=".9" d="M104.3-14.7l20-1.3-7.7 201-10.4-138.2z"/><circle r="1" fill="#080000" fill-opacity=".5" transform="rotate(-109.2 48.6 56) scale(71.97526 25.72689)"/><ellipse cx="151" cy="67" fill="#517851" fill-opacity=".5" rx="23" ry="147"/><path fill="#96b8b3" fill-opacity=".5" d="M219.8 66l27.3-71 13 5L233 71z"/><path fill="#000914" fill-opacity=".7" d="M57.7 95l21.8 3.1-3.2 22.8-21.8-3z"/><ellipse cx="249" cy="116" fill-opacity=".4" rx="23" ry="79"/><path fill="#162219" d="M217.8 24.9l-30.9 69.2-1.4-102.2 82.3-7.9z"/><path fill="#402615" fill-opacity=".7" d="M108.4 95.6l2.6 16.3-10.7 6.9 2.5-24.1z"/><path fill="#809185" d="M246 39l25-50.1-17.7 12.5-30.1 19.9z"/><ellipse cx="134" cy="18" fill="#b78673" fill-opacity=".5" rx="15" ry="39"/><path fill="#2e543a" fill-opacity=".5" d="M150 91h64v79h-64z"/><circle r="1" fill="#6cae8e" fill-opacity=".5" transform="matrix(-4.37634 -3.12162 6.50354 -9.11762 177.2 68.7)"/><path fill="#658162" fill-opacity=".7" d="M162 45l-19 89-21-48z"/><circle r="1" fill="#1b0f0f" fill-opacity=".6" transform="rotate(145.6 -11 79.2) scale(39.04331 14.08464)"/><path fill="#f3f3fe" fill-opacity=".3" d="M72.2 185l9.9-102.6 17.4 30.9L58.4 132z"/><path fill="#17241b" fill-opacity=".8" d="M192.6 9.5l42.7 33 25.1.1L271 89.5z"/><path fill="#65906d" fill-opacity=".6" d="M144 152h34v18h-34z"/><ellipse cx="178" cy="114" fill="#0f0c09" fill-opacity=".4" rx="13" ry="37"/><ellipse cx="44" cy="99" fill="#403c3e" fill-opacity=".4" rx="36" ry="30"/><path fill-opacity=".4" d="M108.1 111L93.7 74.3 78.4 97.5l31.6-4.1z"/><path fill="#8ed88a" fill-opacity=".4" d="M202.9 102.5l18.1 1.8-9.9-12.6-15.6 16.3z"/><circle r="1" fill="#96805b" fill-opacity=".4" transform="matrix(-7.99029 13.34954 -24.99645 -14.96147 42.3 23.7)"/><path fill="#0e3014" fill-opacity=".6" d="M170.2 20l7.5 13-26 15-7.4-13z"/><path fill="#bcc0b1" fill-opacity=".5" d="M238 64l-21-3 19-11z"/><path fill="#c1b4ae" fill-opacity=".8" d="M106.8 136.3l-39.3-15.2 60.6-9.3-7.7 72.9z"/><path fill="#200f04" fill-opacity=".4" d="M16.5 50.2l-16.9-37L-4 51.4 9.8 62.7z"/><path fill="#589a74" fill-opacity=".4" d="M190.2 141.3l19.4 19.1-17.4 5.8 15.6-34z"/><path fill="#f4dfe8" fill-opacity=".2" d="M67.9 74.3l-5.4 19.8 27 20.8-22.9-28.6z"/><path fill="#040000" fill-opacity=".5" d="M218 115l-18 4 41 29z"/><path fill="#2f3618" fill-opacity=".5" d="M140 100l-22-4 22 13z"/><path fill="#00070b" fill-opacity=".6" d="M61 123l-2-33 18 24z"/><path fill="#cadded" fill-opacity=".5" d="M46.9 187.9l-9.2-4 25.4-59.8 9.2 4z"/><path fill="#311e19" fill-opacity=".6" d="M61 73h31v8H61z"/><path fill="#1c301f" fill-opacity=".5" d="M155.8 141.7l-5 5.6-4.2-18.4L210 21.4z"/><path fill="#1b2820" fill-opacity=".7" d="M208.7 77l7.3-28.6 16.3-17.3-.8 15.9z"/><path fill="#0e0402" fill-opacity=".5" d="M11.1 160.3L-15 116.6l18-10.9 26 43.7z"/><path fill="#94b09e" fill-opacity=".4" d="M136.7 95.2l9.5 61.9-5.4-82.7 14.8-2.9z"/><path fill="#36623a" fill-opacity=".7" d="M271 76l-31 8 10-16z"/><ellipse cx="78" cy="93" fill-opacity=".7" rx="5" ry="4"/><path fill="#edd5d0" fill-opacity=".5" d="M99 94l-2 15-17-2z"/><path fill="#0a1f14" fill-opacity=".4" d="M202.3 185L167.6 83.6l-17.8 18.5 5.8-33.6z"/><path fill="#36625e" fill-opacity=".5" d="M236.8 30.3l4.4-12.2 32 11.6-4.4 12.2z"/><circle r="1" fill="#406848" fill-opacity=".5" transform="matrix(-.48785 -10.20465 15.44796 -.7385 194 107.4)"/><path fill="#16140a" fill-opacity=".6" d="M225.4 112.9l-15.8-53.5 26.2 21.9L249.3 185z"/><path fill="#b4a393" fill-opacity=".5" d="M139.6 68l-29.2-84 23.1 143.1-14.2-40.3z"/><path fill="#2c2a01" fill-opacity=".4" d="M138 72l-8 21-3-11z"/><path fill="#ccf9fd" fill-opacity=".2" d="M236.2 20.7l11.5 15.7-42.9 37 25.1-14z"/><path fill="#e8fcff" fill-opacity=".2" d="M249.2-11.8l-5.1 27.2-26.9 6.7L265 3.4z"/><path fill="#275431" fill-opacity=".5" d="M136.1 56.8l18.4-11.3L190.8 59l-50.6 2.1z"/><path fill="#69341c" fill-opacity=".4" d="M73.3 60l-9-22.2 34.4-13.9 9 22.3z"/><path fill="#ffdd98" fill-opacity=".2" d="M157.6 148.2l8.7-17.9-4.4 54.7-1.1-4.2z"/><ellipse cx="169" cy="13" fill="#375231" rx="15" ry="9"/><ellipse cx="110" cy="7" fill="#b9a691" fill-opacity=".5" rx="28" ry="2"/><path fill="#4b6d4d" fill-opacity=".8" d="M160.8 153.3l49.2 10.6-65-22.1-13.9 8.8z"/><circle r="1" fill="#304f5a" fill-opacity=".5" transform="matrix(1.88492 -9.43308 12.07718 2.41326 51.6 121.9)"/><path fill="#83b5ae" fill-opacity=".4" d="M209-9l-1 15-15-19z"/><circle r="1" fill="#542d21" fill-opacity=".5" transform="matrix(.2076 8.12658 -13.11273 .33498 37 156.7)"/><path fill="#41321d" fill-opacity=".8" d="M85.4-16L-4.4 8.2 54.4-16l11.3 30.1z"/><path fill="#89452b" fill-opacity=".4" d="M145-16l-1 52 30-52z"/><path fill="#a67542" fill-opacity=".4" d="M52 11h30v21H52z"/><circle cx="96" cy="61" r="8" fill="#af7d5e" fill-opacity=".5"/></g></svg>