<svg xmlns="http://www.w3.org/2000/svg" viewBox="0 0 300 199"><defs/><path fill="#49352e" d="M0 0h300v199H0z"/><g transform="translate(.6 .6) scale(1.17188)"><circle r="1" fill="#fff4f5" fill-opacity=".7" transform="rotate(116.8 -23.4 90.6) scale(83.52106 62.19738)"/><circle r="1" fill="#ebffff" fill-opacity=".7" transform="matrix(13.5344 -2.0641 6.01899 39.46687 219.5 99.6)"/><circle r="1" fill="#d89e89" fill-opacity=".7" transform="rotate(113.8 19.1 51.4) scale(47.38918 19.79272)"/><ellipse cx="206" cy="41" fill="#9d776f" fill-opacity=".9" rx="21" ry="42"/><ellipse cx="170" cy="141" fill="#001a3f" fill-opacity=".8" rx="42" ry="84"/><ellipse cx="144" cy="31" fill-opacity=".7" rx="46" ry="21"/><path fill="#bcc3cd" fill-opacity=".6" d="M-10 94l24-63 10 112z"/><circle r="1" fill="#e8f5f2" fill-opacity=".7" transform="matrix(13.59165 7.31179 -4.46594 8.30158 254.6 102.6)"/><path fill="#ffbfb0" fill-opacity=".4" d="M123 52h16v42h-16z"/><circle cx="255" cy="142" r="29" fill="#00051e" fill-opacity=".8"/><path fill="#00081a" fill-opacity=".7" d="M257 55l14 30-77-12z"/><ellipse cx="127" cy="1" fill="#e5ffe7" fill-opacity=".3" rx="39" ry="12"/><circle r="1" fill="#020000" fill-opacity=".6" transform="matrix(-12.93664 -2.4444 5.74914 -30.42649 33.2 57.7)"/><circle r="1" fill="#a4a899" fill-opacity=".4" transform="matrix(-7.16213 30.53591 -15.64223 -3.66885 243.5 32.4)"/><ellipse cx="72" cy="154" fill="#e1f6ff" fill-opacity=".5" rx="42" ry="29"/><path fill="#e8f5ff" fill-opacity=".7" d="M224 148l-28-81 41 27z"/><path fill="#c48e77" fill-opacity=".6" d="M96-2L84 136l-32-28z"/><path fill="#e8e3fa" fill-opacity=".6" d="M50.4-17.3l10-.4 1.2 35-10 .4z"/><path fill="#000112" fill-opacity=".8" d="M196.7 73.3l6.7-8.7 8 6.1-6.8 8.7z"/><path fill="#00040e" fill-opacity=".4" d="M111 22h10v148h-10z"/><path fill="#ebf6fd" fill-opacity=".7" d="M187.7 59.7l5.4 7.2 20.5-.7-25.4-14.9z"/><path fill="#fda88d" fill-opacity=".4" d="M109.8 61.6l-5.3 35.2-2.7 1.8L77.6.9z"/><path fill="#687775" fill-opacity=".7" d="M18.3 51.2l-1.8 48.5L1.6-16 37-14.9z"/><ellipse cx="163" cy="39" fill="#040100" fill-opacity=".7" rx="23" ry="32"/><path fill-opacity=".5" d="M28 17h49v16H28z"/><circle r="1" fill="#001b3f" fill-opacity=".7" transform="rotate(79.2 6.3 215.3) scale(62.2443 9.88839)"/><path fill="#220f00" fill-opacity=".4" d="M66.6 74.4l10.6 17.8 25.2-30.1-11.5 10.4z"/><ellipse cx="95" cy="116" fill="#faffff" fill-opacity=".5" rx="11" ry="34"/><path fill="#d8a89a" fill-opacity=".6" d="M37.4 89.1L68.8 129l-1.6-18.5-8.4-82.7z"/><circle r="1" fill="#d0aca3" fill-opacity=".7" transform="matrix(15.95685 3.38292 -11.69358 55.15735 6.7 140)"/><path fill="#000d23" fill-opacity=".5" d="M240 114l-23-68 26 22z"/><path fill="#ffb993" fill-opacity=".5" d="M124 155l-1-31 7 9z"/><path fill="#f2bfae" fill-opacity=".6" d="M104 47L80 28l-3 29z"/><path fill="#d28576" fill-opacity=".5" d="M212.4 40.5l-26.7-3.3 3.9-31.7 26.7 3.3z"/><path fill="#0b0000" fill-opacity=".3" d="M137 52l99-64L85 34z"/><path fill="#100200" fill-opacity=".5" d="M55-15L27.4 87.4 11 83 38.5-19.4z"/><path fill="#1e3959" fill-opacity=".4" d="M108 99l73-41-68 84z"/><circle r="1" fill="#e1f0fd" fill-opacity=".4" transform="rotate(-20.8 328.3 -17.8) scale(13.07426 32.99528)"/><path fill="#001026" fill-opacity=".8" d="M217.3 185l53.7-30.1-32.1-55.6-7.3 25.9z"/><circle r="1" fill="#e6eff7" fill-opacity=".5" transform="matrix(14.70276 16.11907 -6.65378 6.06914 215.2 93.2)"/><path fill="#f6f2e2" fill-opacity=".6" d="M238.4 90.3l3.3-2.4 15.9 21.8-3.3 2.4z"/><path fill="#8397a7" fill-opacity=".8" d="M-16 92l41-72-28 118z"/><path fill="#070f16" fill-opacity=".8" d="M251.1 93.3l19-9.6-26.2 44.3 27.1-5.2z"/><path fill="#f6ffff" fill-opacity=".5" d="M223.9 73.7l4.7 1.7-6.5 18.9-4.7-1.7z"/><path fill="#412012" fill-opacity=".5" d="M48.5 29.5l-14.4-6.3 42.2 18.2 9.5-55.3z"/><path fill="#000819" fill-opacity=".7" d="M201 144l-39-27-6 58z"/><path fill="#201009" fill-opacity=".8" d="M92.7 57.4l92.7-41.3-74.1 43 78 5.8z"/><path fill="#122749" fill-opacity=".7" d="M144.2 148.1l59.9-73.9-62.7-10.8-2.8 13z"/><path fill="#818174" fill-opacity=".7" d="M92 0h25v15H92z"/><path fill="#8b6150" d="M218.3 57.9l20.3-37.2-8.3 1.5-39.7 31z"/><path fill="#150b01" fill-opacity=".5" d="M99.8 16.5l105.9-13-102.1 29.3L78.8-11z"/><path fill="#eba792" fill-opacity=".5" d="M186 5l21 9 18-8z"/><ellipse cx="230" cy="7" fill="#100600" fill-opacity=".6" rx="7" ry="15"/><path fill-opacity=".7" d="M134 185l-24-3 20-29z"/><path fill="#f9d5c4" fill-opacity=".4" d="M98 9L83 19l-1 41z"/><ellipse cx="8" cy="142" fill="#c99c91" fill-opacity=".4" rx="18" ry="50"/><path fill="#cd9e90" fill-opacity=".9" d="M71.8 55.7L30.1 96.2 62.7 41l5-3.2z"/><path fill="#aeadb1" fill-opacity=".5" d="M73 161h39v9H73z"/><path fill-opacity=".2" d="M20 12L7 63l-20 2z"/><path fill="#e5e1e3" fill-opacity=".4" d="M209.2 67.2l4.8-12 6.9 10.2-7.9 4.7z"/><path fill="#fff" fill-opacity=".5" d="M195 71l-10-20 17 10z"/><path fill="#716c5f" fill-opacity=".8" d="M206.1-16L93.2 16.8l67.2-8.1 23.9-3.8z"/><path fill="#e8f2f8" fill-opacity=".5" d="M113.1 157.4l.8-11.8-23.4-68.4 7.4 98.4z"/><path fill="#000616" fill-opacity=".6" d="M221 69V50l35 41z"/><path fill="#f2997d" fill-opacity=".4" d="M117 160l14-12-4-10z"/></g></svg>