<svg xmlns="http://www.w3.org/2000/svg" viewBox="0 0 300 199"><defs/><path fill="#603a2d" d="M0 0h300v199H0z"/><g transform="translate(.6 .6) scale(1.17188)"><ellipse cx="224" cy="43" fill="#c7eae9" fill-opacity=".7" rx="33" ry="119"/><circle r="1" fill="#010a0c" fill-opacity=".8" transform="matrix(-35.9197 45.55743 -38.031 -29.9855 141.2 30.5)"/><ellipse cx="147" cy="126" fill="#907960" fill-opacity=".6" rx="126" ry="42"/><circle r="1" fill="#e6fbff" fill-opacity=".7" transform="rotate(-130 135 -29.5) scale(59.48181 29.36218)"/><path fill="#ffdf96" fill-opacity=".6" d="M55.9 75.6l-38.6-14 4.8-13.2 38.6 14z"/><circle r="1" fill="#010708" fill-opacity=".7" transform="rotate(79.1 1.6 20.9) scale(31.03917 22.72112)"/><circle r="1" fill="#1d0a09" fill-opacity=".8" transform="matrix(-.25515 10.88042 -17.60499 -.41284 117.8 121.6)"/><circle r="1" fill="#002319" fill-opacity=".4" transform="matrix(32.66822 3.44734 -1.807 17.12384 187 63.6)"/><path fill="#fff" fill-opacity=".6" d="M66.7 139.3l5.5 10.7-17 8.7-5.4-10.7z"/><path fill="#b1bdc4" fill-opacity=".6" d="M177 127h61v29h-61z"/><circle r="1" fill="#d88561" fill-opacity=".4" transform="rotate(131.7 29.7 24.9) scale(28.46466 25.32055)"/><path fill="#daca9e" fill-opacity=".6" d="M191 140l-13-59h-19z"/><path fill="#003960" fill-opacity=".6" d="M276.2 1.4l-1.2 8.9-83.2-11.7 1.2-8.9z"/><path fill="#19190d" fill-opacity=".5" d="M216 127l-1-21 48 14z"/><circle r="1" fill="#0e0b0d" fill-opacity=".6" transform="matrix(-25.22588 26.03109 -9.52253 -9.22798 84.2 60)"/><path fill="#b0885e" fill-opacity=".5" d="M78 131l72-40L9 86z"/><path fill="#420209" fill-opacity=".8" d="M271 185l-29.4-.1-12.4-35.9 41.8 2.2z"/><circle r="1" fill="#3c241a" fill-opacity=".5" transform="matrix(10.81609 -28.17688 12.98718 4.98531 160.4 135.8)"/><path fill="#010000" fill-opacity=".5" d="M33.1 74.2L21.7 94.7l-25.1 1.2.1-45.8z"/><path fill="#eae2c3" fill-opacity=".6" d="M-16 39.3l61.7 24.5-22.2-4.1-30.1-10.4z"/><ellipse cx="114" cy="135" fill="#3e1409" fill-opacity=".4" rx="24" ry="30"/><ellipse cx="255" cy="127" fill="#f7ffff" fill-opacity=".7" rx="14" ry="5"/><path fill="#9c8369" d="M33.4 138.4l-49.4-7.6 3.3-22 25.6 40.5z"/><path fill="#e8e8cd" fill-opacity=".6" d="M121 163.6l24.9-2.2 1.1 13-24.9 2.2z"/><ellipse cx="195" cy="167" fill="#360000" fill-opacity=".7" rx="11" ry="13"/><path fill="#fced9a" fill-opacity=".4" d="M105.8 88.2l35.4 40.4L152 122l-26.7-23.8z"/><path fill="#250600" fill-opacity=".4" d="M129 101h75v6h-75z"/><ellipse cy="164" fill-opacity=".6" rx="14" ry="28"/><path fill="#131d25" fill-opacity=".6" d="M210.7 122.5l-15.5-3.3-4.3 9.3 37.8-4.7z"/><path fill="#e5cea3" fill-opacity=".5" d="M180.2 102l-74.5-4.7 118.8-8-33.3-13.7z"/><path fill="#b3bab9" fill-opacity=".9" d="M197.6 129.1l-19.5 34.1-11.6-10.4 80.2-25.2z"/><path fill="#feefc9" fill-opacity=".4" d="M205.3 107.9l-30.5-1.1 56.2-4-27.5 17.1z"/><path fill="#45271c" fill-opacity=".4" d="M19 119h50v19H19z"/><path fill="#7e5001" fill-opacity=".5" d="M178 94h56v7h-56z"/><circle r="1" fill="#674942" fill-opacity=".6" transform="rotate(84.6 6.4 106.3) scale(8.60613 52.52619)"/><circle r="1" fill="#fad9ce" fill-opacity=".6" transform="matrix(-.53894 -2.81262 11.96647 -2.29294 254.1 145.4)"/><path fill="#300000" fill-opacity=".6" d="M244 144l21-13h-23z"/><circle r="1" fill="#acdce8" fill-opacity=".3" transform="matrix(23.26744 -1.46386 2.15148 34.19676 212.4 33)"/><ellipse cx="167" cy="53" fill="#101112" fill-opacity=".6" rx="27" ry="26"/><path fill="#0c1010" fill-opacity=".4" d="M203-16l-13.3 48.9-42.9 63.6-70.4-57.6z"/><path fill="#76b1bd" fill-opacity=".6" d="M271 89.7l-53.8 19.4 22.2 4.5 27.8.1z"/><path fill="#c98c65" fill-opacity=".6" d="M46.4 19.8l2.4-9.7 40.8 10.1-2.4 9.7z"/><ellipse cx="84" cy="161" fill="#6b3c2e" fill-opacity=".8" rx="39" ry="8"/><circle r="1" fill="#9d988e" fill-opacity=".8" transform="rotate(136.9 77.8 118.6) scale(9.5993 16.65104)"/><path fill="#7f644c" fill-opacity=".5" d="M188.3 151.8l-25.2-13.5L216 93.1l-22.9 34.6z"/><path fill="#e2b568" fill-opacity=".5" d="M74 98h15v33H74z"/><circle r="1" fill="#dbecf2" fill-opacity=".6" transform="rotate(174.2 118.8 22) scale(45.6687 20.90233)"/><path fill="#fff1ca" fill-opacity=".3" d="M209.9 90.7l-2.9 28.4L266.4 58l-99.9 42.5z"/><path fill="#3a1c14" fill-opacity=".5" d="M43.5 74.4l-9.6-2.2 3.4 32.9 25.3-39.3z"/><path fill="#ffeec9" fill-opacity=".6" d="M160 121h7v6h-7z"/><path fill="#fee0c0" fill-opacity=".7" d="M76.4 148.3l-18.9 8.1-1.6-3.1 4.3-15.5z"/><path fill-opacity=".5" d="M231 96l11 7-6 3z"/><path fill="#b4c5d8" fill-opacity=".6" d="M238.1 128.6l-22.2 7.5 13.1 16.5 16-9.3z"/><circle r="1" fill="#d3c488" fill-opacity=".5" transform="matrix(-5.44589 4.82014 -9.07973 -10.25846 120.1 98.4)"/><path fill="#822528" fill-opacity=".6" d="M77 61l11 35 31-5z"/><path fill="#070200" fill-opacity=".4" d="M137.7 136.6l33.3-35.8-40.1 3.9 46.7 9.1z"/><path fill="#682f00" fill-opacity=".4" d="M-1 130l130.2-21.5-64.3-1.4-6.8 12.4z"/><path fill="#4d94b9" fill-opacity=".4" d="M197 6l-6-22 76 27z"/><path fill="#ab8e6e" fill-opacity=".8" d="M43.6 94.4l25.7 9.1L19 118l22.4 1.4z"/><path fill="#740004" fill-opacity=".3" d="M61.7 185l-11.3-37.1 17.2-13.6-40.8 4.7z"/><path fill="#f4eeda" fill-opacity=".5" d="M181 122l6-12-15-6z"/><ellipse cx="255" cy="56" fill="#f9f7f6" fill-opacity=".7" rx="12" ry="38"/><path fill="#fed99f" fill-opacity=".2" d="M63.3 112L51 128.3 2.3 139.8l12.1 4.7z"/><path fill="#d4ccb8" fill-opacity=".6" d="M139 125h2v45h-2z"/><path fill="#f3fdff" fill-opacity=".7" d="M206.3 111.2l8 .7-.6 7-8-.8z"/></g></svg>