<svg xmlns="http://www.w3.org/2000/svg" viewBox="0 0 300 199"><defs/><path fill="#543b34" d="M0 0h300v199H0z"/><g transform="translate(.6 .6) scale(1.17188)"><circle r="1" fill="#f4ffff" fill-opacity=".6" transform="matrix(59.9757 24.77965 -19.39483 46.9425 178.6 151.5)"/><circle r="1" fill="#1f0f08" fill-opacity=".8" transform="matrix(-27.47835 5.99125 -18.13655 -83.18174 79 138.9)"/><path fill="#a67e56" fill-opacity=".4" d="M83 0h92v98H83z"/><circle r="1" fill="#010200" fill-opacity=".6" transform="matrix(5.06113 72.3775 -28.70412 2.00719 0 54)"/><circle r="1" fill="#160b05" fill-opacity=".9" transform="rotate(-148.9 142.6 25.1) scale(37.78769 18.72469)"/><path fill="#9ac0cf" fill-opacity=".5" d="M27 123h17v47H27z"/><circle r="1" fill="#a79181" fill-opacity=".7" transform="rotate(-56.6 276.3 -156.7) scale(12.46616 66.20459)"/><path fill="#b8b9bc" fill-opacity=".4" d="M215 108l-67-30-43 85z"/><circle cx="107" cy="90" r="30" fill="#2c2828" fill-opacity=".7"/><path fill="#ffeba3" fill-opacity=".4" d="M19-7L33 5l-2 39z"/><path fill="#1c1503" fill-opacity=".6" d="M194.9 77.6l28.6 19-46.6 3.3-5.3-26.9z"/><ellipse cx="49" cy="36" fill="#402415" fill-opacity=".8" rx="11" ry="115"/><path fill="#1a0f0e" fill-opacity=".7" d="M46 163h84v7H46z"/><ellipse cx="94" fill="#fec05f" fill-opacity=".2" rx="39" ry="22"/><path fill="#160e0b" fill-opacity=".5" d="M113 146.8l-44.4-15.3L79 101.2l44.4 15.3z"/><ellipse cx="203" cy="21" fill="#2f1c04" fill-opacity=".5" rx="21" ry="26"/><path fill="#cbc2cc" fill-opacity=".5" d="M136 60h6v32h-6z"/><circle r="1" fill="#3b4c55" fill-opacity=".5" transform="rotate(-175.5 8.6 78.8) scale(19.86904 65.07956)"/><path fill="#b99a89" fill-opacity=".5" d="M145.7 88.2l25.5-8.8 9.1 26.4-25.5 8.8z"/><circle r="1" fill="#bac3cb" fill-opacity=".5" transform="rotate(-34.4 307.6 -177.5) scale(29.50941 40.91462)"/><circle r="1" fill="#010b13" fill-opacity=".6" transform="matrix(-9.52114 .86285 -1.51794 -16.74987 128.5 91.4)"/><path fill="#a19086" d="M204.4 99.7l-54-.9 32.1 6.8 6.3 29z"/><circle cx="102" cy="56" r="36" fill="#614334" fill-opacity=".4"/><circle cx="150" cy="19" r="35" fill="#a55e30" fill-opacity=".3"/><path fill="#c3a77b" fill-opacity=".3" d="M30.9 4.1l.9 87.5 11.1 4.3-5-16.2z"/><circle r="1" fill="#2c180b" fill-opacity=".4" transform="rotate(-126.8 142.2 -14.8) scale(18.80297 31.41497)"/><path fill="#86949d" fill-opacity=".7" d="M140 145.6l-26.7 3.5-.7 15.2h16.9z"/><circle r="1" fill="#6a3210" fill-opacity=".5" transform="rotate(99.3 112.9 113.2) scale(50.44545 20.38768)"/><path fill="#00111f" fill-opacity=".5" d="M32 121L20 75l24 39z"/><path fill="#c2bfc2" fill-opacity=".5" d="M195 101h12v41h-12z"/><path fill="#30190e" fill-opacity=".5" d="M179 88l-29-29 14-2z"/><path fill-opacity=".5" d="M140 97l1 8 4-13z"/><circle r="1" fill="#a68163" fill-opacity=".6" transform="matrix(-6.77268 -6.11959 6.95381 -7.69594 150.2 41)"/><path fill="#1a100b" fill-opacity=".6" d="M33 81L24 7l-40 15z"/><path fill="#1a0b08" fill-opacity=".7" d="M68.4 134.1l-14.2 26.2 79.1 24.7L53 95.4z"/><circle r="1" fill="#9e897c" fill-opacity=".6" transform="matrix(7.56077 -4.98083 25.18586 38.23146 237.8 152)"/><path fill="#d2d0d9" fill-opacity=".5" d="M244 185l-30.2-18.9-15-28.4 22.6 12.4z"/><path fill="#211714" fill-opacity=".5" d="M26.5 110.5l-31.5 45-11.5-8 31.5-45z"/><circle r="1" fill="#3e2416" fill-opacity=".5" transform="rotate(-115.9 43.8 3.5) scale(117.7531 11.37828)"/><path fill="#d4c5bf" fill-opacity=".7" d="M170.7 83.5l1.4 9-12.8 2-1.4-9z"/><circle r="1" fill="#b69786" fill-opacity=".5" transform="rotate(67.1 13.6 159.1) scale(21.98561 2.68041)"/><path fill="#eafaff" fill-opacity=".2" d="M40.7 157.8l-18.5-27.4 9.1-6.2 18.5 27.4z"/><path fill="#abbaca" fill-opacity=".6" d="M135.8 80.9l-2.1-11.3 9.1 16.5-3.6 12.8z"/><ellipse cx="31" cy="33" fill="#cfae78" fill-opacity=".5" rx="3" ry="20"/><path fill="#110905" fill-opacity=".6" d="M244.8 134.6L271 80.1l-41.9 24.2L194 93.4z"/><path fill="#000107" fill-opacity=".2" d="M138.4 53.5l-30 .9 61.4 30.9-30.4-8.7z"/><path fill="#c6d0d8" fill-opacity=".5" d="M123.2 122.2l6-15.9 19.6 7.5-6 15.9z"/><path fill="#696c70" fill-opacity=".4" d="M8 136l13 27 30-51z"/><path fill="#1f1100" fill-opacity=".4" d="M176 94l2-26 12 37z"/><path fill="#00080f" fill-opacity=".4" d="M119.7 132.9l-63.9-5.7 64.6-15.6 10.8-21z"/><path fill="#596d80" fill-opacity=".5" d="M31 86l-4 12 10 11z"/><ellipse cx="104" cy="79" fill="#6e6c6d" fill-opacity=".2" rx="16" ry="40"/><path fill="#674532" fill-opacity=".5" d="M161 21l59 82 24-15z"/><path fill="#020e1b" fill-opacity=".5" d="M142 89h3v16h-3z"/><path fill="#60331e" fill-opacity=".5" d="M25-41.7l12-1.5 18 147-12 1.4z"/><path fill="#ddbca3" fill-opacity=".7" d="M146.3-4.4l72.6-6.4 9.8 14.7 5.4-9z"/><circle r="1" fill="#c7ccd1" fill-opacity=".5" transform="matrix(2.29877 -64.68818 2.3974 .0852 144.3 150.2)"/><path fill="#cfb68c" fill-opacity=".6" d="M29.3 37L22.7-.3l4-.7 6.6 37.5z"/><path fill="#aca29f" fill-opacity=".7" d="M208.4 130.7l20.8 7.2.6-9-28.9-31.4z"/><circle r="1" fill="#010000" fill-opacity=".5" transform="rotate(79.2 -47.2 39) scale(25.33208 13.81344)"/><circle r="1" fill="#684130" fill-opacity=".5" transform="matrix(-7.79918 -1.17952 2.47528 -16.36705 203.4 23.7)"/><circle r="1" fill="#7c4a2d" fill-opacity=".6" transform="rotate(-17.4 120.7 -487) scale(36.35307 13.6397)"/><path fill="#050a10" fill-opacity=".4" d="M131.4 102.9l-17.3-21.5L133.2 71l6.2 34.1z"/><path fill="#a2b7c5" fill-opacity=".5" d="M133.7 105.3l-15.3 58.9-8.3-10.8 10.8-25.3z"/><path fill="#140400" fill-opacity=".5" d="M34 96h7v24h-7z"/></g></svg>