<svg xmlns="http://www.w3.org/2000/svg" viewBox="0 0 300 199"><defs/><path fill="#38404f" d="M0 0h300v199H0z"/><g transform="translate(.6 .6) scale(1.17188)"><path fill="#e7c7b4" fill-opacity=".8" d="M171 193.8L163.1 43 293 36.2l7.9 150.8z"/><circle r="1" fill="#efb698" fill-opacity=".7" transform="matrix(-17.17904 -45.94742 65.53762 -24.50351 127.2 31.4)"/><circle r="1" fill="#e4feff" fill-opacity=".5" transform="matrix(-39.8566 -55.38265 10.8519 -7.80967 124.7 111.7)"/><circle r="1" fill="#7c461f" fill-opacity=".7" transform="matrix(12.54107 52.6004 -27.33381 6.51697 221.3 37)"/><circle cx="51" cy="128" r="57" fill="#030000" fill-opacity=".5"/><circle r="1" fill="#2c2828" fill-opacity=".7" transform="matrix(-17.86132 -6.50099 11.28065 -30.99332 136 82)"/><circle r="1" fill="#ffb168" fill-opacity=".5" transform="rotate(106.9 -10 16.2) scale(50.81076 28.94409)"/><circle cx="231" cy="151" r="57" fill="#f0eff5" fill-opacity=".5"/><path fill-opacity=".5" d="M128 107l22 78-60-18z"/><path fill="#3a1400" fill-opacity=".4" d="M181.1 122.6l7.4-34.4-89.3-53.5 41.9 64.2z"/><path fill="#c7d9ea" fill-opacity=".8" d="M148.3 185l17.5-4.8-23.2-74.9-20-25.7z"/><circle r="1" fill="#fff" fill-opacity=".4" transform="matrix(-32.4025 -35.86055 6.02217 -5.44144 81.8 63.5)"/><circle r="1" fill="#6a3715" fill-opacity=".5" transform="matrix(4.35316 5.32562 -48.937 40.00112 196.2 10.2)"/><path fill="#13181d" fill-opacity=".7" d="M165.5 131.1l19.7 73.4-8.7 2.4-19.7-73.4z"/><path fill="#e3aa91" fill-opacity=".6" d="M67.4 23.3l37-83.2 82.2 36.6-37 83.2z"/><path fill="#1e2228" fill-opacity=".9" d="M83 80L37 21-8 185z"/><circle cx="53" cy="9" r="21" fill="#190700" fill-opacity=".5"/><circle r="1" fill="#eabaa4" fill-opacity=".6" transform="matrix(8.4124 26.95045 -14.59674 4.55628 188.8 55.4)"/><path fill="#060301" fill-opacity=".4" d="M205.7 47.8l-4.4 9.5L226 88l.8-23.3z"/><path fill="#fed0ae" fill-opacity=".5" d="M160 109l10 33 3-31z"/><circle r="1" fill="#ccedff" fill-opacity=".5" transform="matrix(36.81822 44.82323 -1.70463 1.4002 91.8 86)"/><ellipse cx="240" cy="49" fill="#ffdfc4" fill-opacity=".6" rx="7" ry="9"/><path fill="#452716" fill-opacity=".6" d="M169.3 21.2l-14.9 30.5L182 28.2l89-7.7z"/><path fill="#02030a" fill-opacity=".5" d="M112 100l23 29-12-56z"/><circle r="1" fill="#edffff" fill-opacity=".5" transform="rotate(44.2 -24.2 103) scale(20.81574 4.98998)"/><path fill="#fff2ec" fill-opacity=".5" d="M254.6 45.6l16.2 5.3-15.4 47.5-16.2-5.3z"/><path fill="#906143" fill-opacity=".7" d="M245.1 56.8l-6 45.2-34.5-25.3 12.6 19z"/><path fill="#d8967f" fill-opacity=".5" d="M143 75l37-50-17 55z"/><path fill="#17181d" d="M161.4 154.9l-.2 30.1-74.6-30.9 98.8 27.4z"/><ellipse cx="101" cy="77" fill="#d2edff" fill-opacity=".7" rx="16" ry="12"/><path fill="#000005" fill-opacity=".5" d="M120.7 59.3l21.4-5 5.2 22.4-21.4 5z"/><path fill="#49250c" fill-opacity=".5" d="M256.6-6.7l9.1 43-30.3 6.4-9.1-43z"/><path fill="#52271e" fill-opacity=".7" d="M179.2 94.6l-7.4 3-9-22.2 7.4-3z"/><path fill="#e6c2b8" fill-opacity=".5" d="M136 36.2l6-52.2L90.5 5.3l16.9 30.6z"/><path fill="#e5d6d4" fill-opacity=".5" d="M207.4 167.7L172 98.3l55.9-6.8 19.5 85.5z"/><path fill="#996138" fill-opacity=".9" d="M175-16l40 34-35-3z"/><circle r="1" fill="#161517" fill-opacity=".7" transform="matrix(-25.91987 .55528 -.72901 -34.02935 91.5 135.7)"/><circle r="1" fill="#bacedd" fill-opacity=".6" transform="matrix(-7.79711 -19.33502 2.61232 -1.05345 117.3 115.5)"/><path fill="#0e0c0b" fill-opacity=".5" d="M58 53l-74 55 62-82z"/><path fill="#987b65" fill-opacity=".8" d="M26.2 30.6l-42.2 18v55.5l49.3-57.9z"/><path fill="#e7b7aa" fill-opacity=".9" d="M160.5 20.6l20.5-1-9.5-33 1.4 10.9z"/><path fill="#b47d61" fill-opacity=".6" d="M86 39h68v19H86z"/><path fill="#d3e5f0" fill-opacity=".9" d="M52.8 34.2l65.3 46.9-8.9 22.9-47-49.5z"/><path fill="#5e1707" fill-opacity=".4" d="M83 16l17 5-7 6z"/><path fill="#a37452" fill-opacity=".3" d="M165.8 126.5l43-75.3-31.5 76.1 12.6 35.6z"/><path fill="#e6a689" fill-opacity=".4" d="M70.4 15l36 30.3-14.8 17.6-36-30.2z"/><path fill="#73492c" fill-opacity=".6" d="M31.4 13.6L12 28.4l24.3 16 .3-60.4z"/><path fill="#09181d" fill-opacity=".4" d="M147.5 114.2l-3.5-.5-24.7-50.8 56.1 24.8z"/><path fill="#19181b" fill-opacity=".9" d="M134 185l7.7-22.2-9.4-40.2-8-12.3z"/><path fill="#7f5332" fill-opacity=".6" d="M236 104l6-44-23 6z"/><circle r="1" fill="#c1ccd6" fill-opacity=".5" transform="matrix(5.82494 16.6552 -.94394 .33013 123.3 77.7)"/><path fill="#a9703e" fill-opacity=".6" d="M242.6 63.4L219 28.1l-22.6 9.7 4.9 10.6z"/><path fill="#cce1f6" fill-opacity=".4" d="M151.8 123.7l11.2 36.6-17.2 24.7-13.6-88.9z"/><path fill="#a8633e" fill-opacity=".3" d="M151.8 83.1l2.1-88.4L168.6-16l-4.1 25.9z"/><path fill="#211f24" fill-opacity=".4" d="M42.6 75.1l-20 16.7-19.2-23 20-16.6z"/><path fill="#cb7d66" fill-opacity=".5" d="M74 23l39-39-39 9z"/><path fill="#050500" fill-opacity=".3" d="M228.2 58.4l4.5 12.1-32.1-25 15.9 30.3z"/><circle r="1" fill="#212b35" fill-opacity=".5" transform="rotate(-43.1 131.8 -53.1) scale(7.20399 35.06276)"/><path fill="#090003" fill-opacity=".3" d="M161.9 48.1l8.5 2.3-1.7-30.1-11.6 26.1z"/><path fill="#c16966" fill-opacity=".7" d="M188.8 56.9l-22.2 18.3 11.2 13.5 2.3-21.3z"/><circle cx="183" cy="41" r="13" fill="#eabaa1" fill-opacity=".6"/><circle r="1" fill="#3d4c5b" fill-opacity=".5" transform="matrix(-2.69995 1.58927 -10.39632 -17.66187 146.3 97.6)"/><path fill="#beada3" fill-opacity=".8" d="M161.9 112.9l12.6 2.1-3.9 16.3 7.4 44.5z"/><path fill="#c5a396" fill-opacity=".5" d="M228.5 103.2l-27.7-34.7-6-10.8 49.3 49.1z"/><circle r="1" fill="#c49e81" fill-opacity=".4" transform="rotate(65.7 -33.2 35.5) scale(7.08772 21.63858)"/></g></svg>