<svg xmlns="http://www.w3.org/2000/svg" viewBox="0 0 300 199"><defs/><path fill="#6d5635" d="M0 0h300v199H0z"/><g transform="translate(.6 .6) scale(1.17188)"><circle r="1" fill="#afa9a9" fill-opacity=".7" transform="matrix(11.9011 109.55152 -253.5085 27.53984 136.4 68)"/><circle r="1" fill="#1d0802" fill-opacity=".8" transform="matrix(-14.77237 7.01444 -8.7378 -18.40177 181.5 27)"/><circle r="1" fill="#603f16" fill-opacity=".4" transform="rotate(-45.1 99.3 -107.5) scale(39.49614 82.58298)"/><path fill="#d0ddf5" fill-opacity=".6" d="M150.4 120L191 50l34.7 20-40.5 70z"/><circle r="1" fill="#fcfaff" fill-opacity=".6" transform="matrix(-16.24252 7.53953 -18.47441 -39.79971 115 169)"/><path fill="#fffff1" fill-opacity=".7" d="M3-2l-19 96 30 60z"/><path fill="#331608" fill-opacity=".8" d="M25.4 96.8l12.4 19.5-19.1 15.2L10.3 99z"/><path fill="#3d2f0e" fill-opacity=".7" d="M236 20l-56-36 75 6z"/><circle r="1" fill="#583c25" fill-opacity=".6" transform="matrix(20.08767 88.639 -13.33018 3.02093 121.2 0)"/><ellipse cx="149" cy="163" fill="#d8ecff" fill-opacity=".4" rx="56" ry="9"/><path fill="#905d5c" fill-opacity=".7" d="M112.3 136.5l88.1 8.2-21.5 11.8-62.9-1.2z"/><circle r="1" fill="#a6afb7" fill-opacity=".5" transform="rotate(-82.2 159.8 -73) scale(73.10829 23.76575)"/><circle r="1" fill="#c7abae" fill-opacity=".5" transform="matrix(-7.06893 13.78545 -24.32413 -12.47298 121.3 93.4)"/><circle r="1" fill="#484d43" fill-opacity=".6" transform="matrix(19.94961 19.34934 -6.82499 7.03672 48.7 83.6)"/><path fill="#f5f3f6" fill-opacity=".8" d="M97 149.4l.5 35.6 23.6-84.7-10.1 13.4z"/><ellipse cx="253" cy="32" fill="#dedcce" fill-opacity=".6" rx="4" ry="102"/><ellipse cx="241" cy="166" fill="#020408" fill-opacity=".9" rx="20" ry="5"/><circle r="1" fill="#022f39" fill-opacity=".6" transform="matrix(-7.314 2.71355 -5.17792 -13.95636 87.7 68)"/><path fill="#42170b" fill-opacity=".5" d="M112.9 104.5l-37.4-.5 30.6 22.5-24 1.7z"/><path fill="#07090a" fill-opacity=".7" d="M224 151.7l-7.5-11 7.7-1 9.5 15.6z"/><ellipse cx="35" cy="27" fill="#ffff96" fill-opacity=".1" rx="47" ry="67"/><circle r="1" fill="#c5cff1" fill-opacity=".5" transform="rotate(141.5 52.3 88.6) scale(19.52966 14.07643)"/><path fill="#303039" fill-opacity=".4" d="M86 185l12-41-60 24z"/><path fill="#291620" fill-opacity=".6" d="M63.6 129l.8 15-20 1-.8-15z"/><path fill="#e0ffeb" fill-opacity=".3" d="M118 60.6l55.8-59.4-94.3 75.4 20.4-29.7z"/><path fill="#412a18" fill-opacity=".6" d="M209.8 61.4l14.7 20.5-8.1.1 2.8-27.2z"/><path fill="#4f1a18" fill-opacity=".6" d="M173.8 71.9l-18.2-6 12-13.8 11 13.5z"/><path fill="#c1bdb0" fill-opacity=".5" d="M69 86h16v77H69z"/><path fill="#b1a690" fill-opacity=".6" d="M-11.3 131l54.7-5.8 4 37.8-54.8 5.8z"/><circle r="1" fill="#f1efe9" fill-opacity=".4" transform="rotate(61.6 54.3 196.3) scale(8.69515 25.47109)"/><path fill="#495c57" fill-opacity=".8" d="M71.3 85L33.5 63.3l-4.9 20.6 72.4-5.3z"/><path fill="#654e28" fill-opacity=".7" d="M257.6 107.4l-7.9 9-11.3-9.8 7.9-9z"/><path fill="#c4bcae" fill-opacity=".8" d="M150.7 27.1L168.9-16l6.7 1.2-2.1 25.1z"/><circle r="1" fill="#120000" fill-opacity=".4" transform="rotate(139.5 83.7 48.8) scale(12.93393 23.46769)"/><path fill="#130000" fill-opacity=".5" d="M131 39l-3 33 17-35z"/><path fill="#051e0d" fill-opacity=".5" d="M108.1 70.1l6-18.1-14.3 8.9 10.8 33.3z"/><path fill="#a45452" fill-opacity=".5" d="M195 51.9l-33.5-24.1L172.6 44l-45.3 30.7z"/><path fill-opacity=".5" d="M58 69l5-10-12 6z"/><path fill="#a4bbd8" fill-opacity=".5" d="M270.1 160.9l-50-9.1 6.7 33.2-21.5-24.2z"/><path fill="#a69e7f" fill-opacity=".5" d="M194 6h27v31h-27z"/><path fill="#ffd5dc" fill-opacity=".5" d="M161 31l-4.4-.9-8.8 2.8L169 56z"/><path fill="#dbdde2" fill-opacity=".3" d="M29.8 126.7l17.3-41.9 2.6 15.9 24.7 30.2z"/><path fill="#006078" fill-opacity=".4" d="M236 20l-43 15 33-2z"/><circle r="1" fill="#020507" fill-opacity=".8" transform="rotate(80.5 -52 123.8) scale(5.14015 2.09792)"/><path fill="#c6c3b8" fill-opacity=".4" d="M119.5 61.9l29.9 52.6-40.7-50 60.4-67.8z"/><path fill="#4e4625" fill-opacity=".5" d="M237 77.2l-13.6 28.7L240 87.8l-1.4-46.7z"/><path fill="#660500" fill-opacity=".3" d="M145 84l-22.9-15.2 45.4 22.6-23.5 28.2z"/><path fill="#e0e7fd" fill-opacity=".3" d="M162.1 77.7l4.5 41.7 26.2-16.4 18.3-43.2z"/><path fill="#a9634d" fill-opacity=".5" d="M117 88h18v64h-18z"/><path fill="#b2b7bc" fill-opacity=".8" d="M271 171.2l-50.9-51.3 2.8 21.7 48.1 3.1z"/><path fill="#050100" fill-opacity=".7" d="M171.7 36.4l21 7.3-3.2-6.6L195.9 1z"/><path fill="#776b49" fill-opacity=".6" d="M235 0h13v50h-13z"/><path fill="#3f3c25" fill-opacity=".5" d="M247.9 129.9l-10.4 7.6.8-28.1-9.9 14z"/><ellipse cx="56" cy="167" fill-opacity=".8" rx="5" ry="4"/><path fill="#4c1f18" fill-opacity=".6" d="M50 88h19v14H50z"/><path fill="#180000" fill-opacity=".3" d="M94.1 155.1l.7-52.7-12.4 20.1 21.8-.2z"/><path fill="#1c0a00" fill-opacity=".5" d="M201 0h29v6h-29z"/><path fill="#716e7c" fill-opacity=".6" d="M209.7 120.5l-13.5-3.9 6.1-21.1 13.5 3.9z"/><path fill="#0a291e" fill-opacity=".5" d="M237 62h16v5h-16z"/><path fill="#5b5529" fill-opacity=".4" d="M120.2 49.4L163 1.1l-30.9 2L80.5-.6z"/><path fill="#d5d3c4" fill-opacity=".4" d="M256 94l-13-42-33-4z"/><ellipse cx="159" cy="90" fill="#3d0600" fill-opacity=".7" rx="3" ry="13"/><path fill="#67351d" fill-opacity=".9" d="M114.5 104.3l-7.3-1.6-15.4 3.8 16.8 8.9z"/><path fill="#dbeafc" fill-opacity=".4" d="M266.1 161.3L243 108.5l-30.9-7.2 41.7 24.3z"/><path fill="#b76a6b" fill-opacity=".5" d="M154.6 66.4l-17.8-18-4.2 16.3 22.4 31z"/></g></svg>