<svg xmlns="http://www.w3.org/2000/svg" viewBox="0 0 300 199"><defs/><path fill="#4b332a" d="M0 0h300v199H0z"/><g transform="translate(.6 .6) scale(1.17188)"><circle r="1" fill="#d1d5de" fill-opacity=".6" transform="matrix(17.63494 -30.17858 34.32507 20.05795 179.4 88.6)"/><circle r="1" fill="#030004" fill-opacity=".7" transform="matrix(102.90405 233.31472 -50.02055 22.0617 38 105.6)"/><circle r="1" fill="#d5b0a5" fill-opacity=".5" transform="matrix(7.3594 -36.07367 12.89818 2.63136 116.7 91.3)"/><ellipse cx="139" cy="13" fill="#160900" fill-opacity=".7" rx="82" ry="41"/><path fill="#d8aa64" fill-opacity=".6" d="M215.7 43l49.9-10.6 4.7 22.5-49.9 10.7z"/><circle r="1" fill="#070a22" fill-opacity=".7" transform="matrix(-5.06635 27.07178 -47.90285 -8.96478 141.8 145.5)"/><circle r="1" fill="#a891a0" fill-opacity=".5" transform="matrix(-27.82632 -19.0074 3.71105 -5.43287 71.4 103.9)"/><circle r="1" fill="#5a6875" fill-opacity=".5" transform="matrix(8.60172 -44.34721 26.9732 5.2318 212.5 121.7)"/><path fill="#fdccb8" fill-opacity=".5" d="M69.1 57.4l26.4-1.2-14.8-18.5-10.8 5.7z"/><circle r="1" fill="#f7f7f6" fill-opacity=".5" transform="matrix(-5.55144 10.88007 -19.41526 -9.90643 174.6 80.8)"/><circle r="1" fill="#24130c" fill-opacity=".8" transform="matrix(-14.16825 -12.27292 13.80512 -15.93706 96.1 81.2)"/><path fill="#795c4d" fill-opacity=".7" d="M181.5 28.6l16.9-17.7-44.5-.8-2.7 14.4z"/><ellipse cx="118" cy="59" fill="#e5c7b4" fill-opacity=".8" rx="12" ry="5"/><circle r="1" fill="#6b5345" fill-opacity=".7" transform="matrix(19.10634 7.2763 -5.08407 13.34994 137.5 84.1)"/><path fill="#ffd7d1" fill-opacity=".6" d="M113 89l-15 27 19-1z"/><path fill="#f7f1f1" fill-opacity=".5" d="M147.7 97.6l36.2 2.2-5.5 18.7-14.6.6z"/><circle cx="130" cy="149" r="9" fill="#b26f59" fill-opacity=".6"/><path fill="#0c0401" fill-opacity=".7" d="M214 67l8-68-30-15z"/><path fill="#e6f2f6" fill-opacity=".6" d="M58.2 12.1L56.7-9.4l-17.3-4.3L47.5-1z"/><path fill="#505a61" fill-opacity=".5" d="M253 95l18 78-99-134z"/><path fill="#ffbfb9" fill-opacity=".2" d="M77.6 70l-2.3-14.1L44.2 93 63 111.2z"/><path fill="#b88135" fill-opacity=".5" d="M216 19h30v11h-30z"/><circle r="1" fill="#000009" fill-opacity=".6" transform="matrix(15.24274 -13.43121 57.63028 65.4031 67.8 141.7)"/><path fill="#05153d" fill-opacity=".8" d="M243 185l-129-12 32-28z"/><path fill-opacity=".7" d="M134.5 109.8l27.2 17-12.2 19.4-27.2-17z"/><path fill="#a6a4ab" fill-opacity=".6" d="M194.1 87.1l30 18L216 119l-30-18z"/><path fill="#fbcdbd" fill-opacity=".4" d="M65.3 47.5l32.9 10.7-18.2-1 5.9-15.5z"/><circle r="1" fill="#100700" fill-opacity=".5" transform="matrix(47.0553 -.30307 .08444 13.10989 246.4 6.6)"/><circle r="1" fill="#311d07" fill-opacity=".5" transform="matrix(3.10155 .52898 -6.69428 39.25044 242.2 60)"/><path fill="#fef" fill-opacity=".5" d="M113 87h12v7h-12z"/><path fill="#691a00" fill-opacity=".3" d="M213.8 120.7L157 80.3l39.8 38.8 13.3 16z"/><path fill="#fff" fill-opacity=".5" d="M62 11l2 4 2-6z"/><circle r="1" fill="#040000" fill-opacity=".7" transform="matrix(1.89781 11.22054 -42.72988 7.22722 165.8 0)"/><path fill="#d2d5db" fill-opacity=".4" d="M199 107l-10-42-53-3z"/><path fill="#1f0b00" fill-opacity=".7" d="M154.1 51.7l-13.5 13.9-72.7-47.2 72.2-32.3z"/><circle cx="119" cy="63" r="9" fill="#dfc1ae" fill-opacity=".6"/><ellipse cx="16" cy="169" fill="#160700" fill-opacity=".7" rx="18" ry="169"/><path fill="#fbeaf7" fill-opacity=".6" d="M116 133.4l-1 1.8-9-4.6 1-1.8z"/><path fill="#fcffff" fill-opacity=".5" d="M53 96l-3-7 10 4z"/><path fill="#936a5b" fill-opacity=".7" d="M141 70.8l-8.1 6.9 32.8 23.8 8.6-8.2z"/><path fill="#2b4e9d" fill-opacity=".6" d="M151 158h13v12h-13z"/><path fill="#271a01" fill-opacity=".6" d="M250.8 67.6L271 97.1l-15.2-3.5-46.9-20.8z"/><path fill="#220b00" fill-opacity=".5" d="M49.4 67.1l57.1-28.7 20.2 16L89 53z"/><ellipse cx="235" cy="169" fill="#32373a" fill-opacity=".6" rx="23" ry="41"/><path fill="#001566" fill-opacity=".4" d="M158 121h27v13h-27z"/><circle r="1" fill="#f1aa93" fill-opacity=".2" transform="matrix(12.6312 -.41679 .58459 17.71674 114.7 107.3)"/><ellipse cx="45" cy="25" fill="#0d0500" fill-opacity=".7" rx="58" ry="11"/><path fill="#e7bc77" fill-opacity=".3" d="M242.7 45.6l-3.2-8-20.3 6.9-7.3 25.1z"/><path fill="#261410" fill-opacity=".5" d="M112 94l-8-46-44 66z"/><path fill="#8c5f4a" fill-opacity=".5" d="M242.4 8.9L222.8 13l-1.2-5.9L241.2 3z"/><path fill-opacity=".7" d="M184 147l19 38-31-16z"/><path fill="#fff" fill-opacity=".4" d="M163 11.6l.9 1.9-11 4.9-.8-1.9z"/><path fill="#41281d" fill-opacity=".7" d="M109.7 61l-57.1-.8 87.5 35.7-6.8 15.5z"/><path fill="#482e24" fill-opacity=".5" d="M149.1 58.3l57.1-42.2-66.5 11.1 70.6 20.5z"/><ellipse cx="177" cy="59" fill="#848da0" fill-opacity=".4" rx="30" ry="7"/><path fill="#f0f1fe" fill-opacity=".7" d="M78.3 110.8l4 .5-.6 4-4-.6z"/><path fill="#814e21" fill-opacity=".4" d="M119.2 146.8l53.2-5.3 6.8 1 4.8 8.7z"/><path fill="#031342" fill-opacity=".6" d="M41.7 98.8l3.9-5.8 44.7 30.2-3.9 5.8z"/><path fill="#fcecff" fill-opacity=".5" d="M98 108l5 8 8-8z"/><path fill="#586174" fill-opacity=".7" d="M199.1 119.6l12.6 65.4-23.4-57.2-24.2-4.9z"/><path fill="#feffff" fill-opacity=".5" d="M179 106l-7.8 11.6-8.3-5.6 7.9-11.6z"/><path fill-opacity=".6" d="M40.4-9.1l18.5 23.6-21.3 16.6L19.1 7.5z"/><path fill="#43270a" fill-opacity=".6" d="M216 32l51.7-11.8 2.2 9.7-51.6 12z"/><circle r="1" fill="#240b00" fill-opacity=".6" transform="matrix(19.88151 -16.15726 69.78152 85.86614 7.8 139)"/><path fill="#14091a" fill-opacity=".5" d="M97 89l4 31-11 17z"/></g></svg>