<svg xmlns="http://www.w3.org/2000/svg" viewBox="0 0 299 449"><defs/><path fill="#5b382d" d="M0 0h299v449H0z"/><g transform="translate(.9 .9) scale(1.7539)"><circle r="1" fill="#eafaff" fill-opacity=".7" transform="matrix(27.93853 -15.3857 33.77315 61.32788 109.5 178)"/><circle r="1" fill="#c0c3b7" fill-opacity=".7" transform="rotate(139.9 15.1 37.1) scale(170 72.43995)"/><circle r="1" fill="#000116" fill-opacity=".6" transform="matrix(-12.48844 2.46895 -10.72107 -54.22937 56.6 122.7)"/><circle r="1" fill="#d6dadb" fill-opacity=".8" transform="matrix(-26.90593 -18.49193 12.15965 -17.6924 135.5 196.9)"/><circle r="1" fill="#010705" fill-opacity=".6" transform="rotate(48.5 -86.5 223.8) scale(41.01476 19.76652)"/><path fill="#dce2e0" fill-opacity=".5" d="M103 66L75 219l43 26z"/><circle r="1" fill="#190000" fill-opacity=".7" transform="rotate(158.9 44.8 140.3) scale(51.41728 22.30932)"/><circle r="1" fill="#e2dcb9" fill-opacity=".5" transform="rotate(-121.2 60.6 69.2) scale(37.25568 18.71572)"/><circle r="1" fill="#100" fill-opacity=".5" transform="matrix(-11.68054 36.4573 -48.78002 -15.6286 43.8 231.4)"/><circle r="1" fill="#e3d3cc" fill-opacity=".6" transform="matrix(25.95878 47.81013 -24.47598 13.28937 8 98.4)"/><path fill="#605248" fill-opacity=".9" d="M186 14.2v119.6l-80.7-34.2 4.6-18.9z"/><path fill="#040a16" fill-opacity=".7" d="M82.6 105.7L37.3 86.1 78.1 88l7.5 8z"/><path fill="#4a1700" fill-opacity=".6" d="M88 64L37 52l41-11z"/><path fill="#f3f6f6" fill-opacity=".5" d="M67 106h27v42H67z"/><path fill="#ffdbba" fill-opacity=".6" d="M94 97.5l-38.8-19L-16 47.4l106 20z"/><path fill="#f6e9b5" fill-opacity=".5" d="M120 74l46-81-93 90z"/><circle r="1" fill="#00000a" fill-opacity=".6" transform="matrix(6.83562 -36.51861 15.41981 2.8863 56.4 213.1)"/><ellipse cx="162" cy="130" fill="#887d6f" fill-opacity=".6" rx="6" ry="35"/><path fill="#9d7a39" fill-opacity=".5" d="M33.5 179.8l15.1-36.9-64.6.7 30.3 34.3z"/><path fill="#d3eeff" fill-opacity=".5" d="M49.7 193.6l-9.9-1.9 6.5-33.3 9.9 1.9z"/><path fill="#e7ebea" fill-opacity=".4" d="M106 129l64 73-100-49z"/><circle r="1" fill="#818a8e" fill-opacity=".6" transform="rotate(-7.8 1257.6 -461) scale(4.18099 68.06183)"/><circle r="1" fill="#a3b0bd" fill-opacity=".5" transform="rotate(-159.5 19 3) scale(48.49915 35.46866)"/><circle cx="49" cy="94" r="14" fill="#000213" fill-opacity=".5"/><path fill-opacity=".5" d="M146.9 169.6l18.4-12 27.8 42.8-18.4 12z"/><path fill="#00021c" fill-opacity=".4" d="M44 104h17v40H44z"/><circle cy="208" r="34" fill="#451813"/><path fill="#c49478" fill-opacity=".8" d="M57.6 54.5L31.4 82.9l39.9-15.6 8.4-13z"/><circle r="1" fill="#caccce" fill-opacity=".6" transform="matrix(12.17203 -29.82664 13.9894 5.70897 110.6 208.8)"/><path fill-opacity=".5" d="M152.2 135.3l-48.5-5.3 45.8 40.9-9.7-63.6z"/><path fill="#ccb898" fill-opacity=".5" d="M89 55h20v76H89z"/><path fill="#97979b" fill-opacity=".5" d="M116.7 240.6l-11.9-2.5 24.6-47.2 8.5 43.1z"/><path fill="#1e0000" fill-opacity=".6" d="M139.2 253.4l-8.6-11 66.2-51.8 8.6 11z"/><path fill="#221a16" fill-opacity=".5" d="M109 93.4l1.2-15 46.9 4.2-1.3 15z"/><path fill="#000715" fill-opacity=".6" d="M66 134l-12 67 19-15z"/><circle r="1" fill="#7c8084" fill-opacity=".6" transform="rotate(-103.4 116.2 64.5) scale(39.36088 5.01731)"/><circle r="1" fill="#ffffd1" fill-opacity=".6" transform="matrix(50.8432 -58.8563 1.22025 1.05411 151.6 12)"/><circle r="1" fill="#7a8081" fill-opacity=".5" transform="rotate(-142.7 59 -19.9) scale(24.73467 43.8453)"/><path fill="#131f28" fill-opacity=".6" d="M40.7 114.2l-2.6-19.8 15.1-28.2 7.6 29.9z"/><path fill="#120e0a" fill-opacity=".4" d="M43.5 166.8l-58.1 32.3 52-19.3L2.6 169z"/><ellipse cx="126" cy="117" fill="#897458" fill-opacity=".7" rx="2" ry="25"/><path fill="#e7ecee" fill-opacity=".6" d="M69 131h39L66 96z"/><path fill="#c6c8c6" fill-opacity=".4" d="M43 145l-4 52 21-26z"/><circle r="1" fill="#8b8e9b" fill-opacity=".4" transform="rotate(132.7 66.9 46.5) scale(67.05916 4.70049)"/><ellipse cx="80" cy="55" fill="#130000" fill-opacity=".5" rx="5" ry="9"/><path fill="#dbe0e1" fill-opacity=".6" d="M165 202l-26-30-3 65z"/><path fill="#fffdf4" fill-opacity=".1" d="M125 18h46v55h-46z"/><path fill="#471713" fill-opacity=".9" d="M0 196l-3 75 78-17z"/><ellipse cx="14" cy="119" fill="#d3c9c4" fill-opacity=".5" rx="30" ry="24"/><path fill="#00010c" fill-opacity=".5" d="M56 240l22-2-8-69z"/><path fill="#000003" fill-opacity=".6" d="M57.2 164.3L42.6 137l6.2-3.3L63.4 161z"/><path fill="#3c2e23" fill-opacity=".9" d="M151.3 107.4l2.1 56.6 4.4-59 28.2 25.4z"/><path fill="#d2c7b3" fill-opacity=".6" d="M42.7 39.9l-.5 15.9 16.1 14.5-43.7 1.1z"/><circle r="1" fill="#fdffff" fill-opacity=".4" transform="matrix(5.3196 6.74756 -10.4285 8.22157 102.2 212.8)"/><path fill="#2b0807" fill-opacity=".6" d="M107.3 235.4l6.7 20 11.5 15.6-32.1-26.3z"/><path fill="#decbc4" fill-opacity=".6" d="M91.6 73.8l-.6 26.3-37.9-31.2 11.3 21.8z"/><circle cx="51" cy="53" r="6" fill="#0f0000" fill-opacity=".4"/><path fill="#09101a" fill-opacity=".8" d="M30.2 218.7l25-39.5 16.5-17L40 228.3z"/><path fill="#020000" fill-opacity=".7" d="M145 115.4l-19 36.7 29.5-14.3-38.9-27.7z"/><path fill="#bb9c66" fill-opacity=".5" d="M0 143h47v24H0z"/><path fill="#7d2c16" fill-opacity=".5" d="M68 64l-7 9 1-22z"/><path fill="#c09227" fill-opacity=".2" d="M86.6 53.9L167.4-16 141 18.2l-37.4 44.4z"/><path fill="#2b0a05" fill-opacity=".9" d="M159.7 221.7l-54.9 34.5L186 271l-12.3-74.4z"/><path fill="#1e0703" fill-opacity=".6" d="M186 225.6l-53.1-71.3 24.5 9.5 28.6-29.1z"/><path fill="#d7ccc3" fill-opacity=".5" d="M25 80h12v31H25z"/></g></svg>