<svg xmlns="http://www.w3.org/2000/svg" viewBox="0 0 300 199"><defs/><path fill="#484535" d="M0 0h300v199H0z"/><g transform="translate(.6 .6) scale(1.17188)"><ellipse cx="167" cy="104" fill="#cbc9c6" fill-opacity=".6" rx="114" ry="91"/><circle r="1" fill="#f1f1f0" fill-opacity=".7" transform="matrix(-27.97389 11.001 -17.30352 -44.00027 155.5 63.9)"/><ellipse cx="91" cy="122" fill="#36301f" fill-opacity=".6" rx="98" ry="17"/><circle r="1" fill="#726e62" fill-opacity=".9" transform="matrix(16.32846 97.56706 -65.5604 10.97195 251.5 66)"/><ellipse cx="15" cy="108" fill="#111105" fill-opacity=".8" rx="24" ry="84"/><circle cx="92" cy="81" r="27" fill="#fbfdff" fill-opacity=".5"/><path fill="#010300" fill-opacity=".7" d="M64.8 38.6l30.4-17.5 14 24.3-30.4 17.5z"/><circle r="1" fill="#fff" fill-opacity=".5" transform="matrix(77.28355 -2.98778 .29353 7.59273 116.5 147)"/><path fill="#2b210e" fill-opacity=".6" d="M75.9 157.8l165.5-11.6.7 10-165.5 11.6z"/><ellipse cx="177" cy="169" fill="#fffef8" fill-opacity=".6" rx="56" ry="7"/><ellipse cx="94" cy="69" fill="#14130e" fill-opacity=".8" rx="2" ry="49"/><circle r="1" fill="#5f5d50" fill-opacity=".5" transform="matrix(2.37874 30.91449 -28.99848 2.23131 42.3 130.3)"/><path fill="#fff" fill-opacity=".6" d="M100 75.3l2-27.9 18 1.3-2 27.9z"/><path fill="#020307" fill-opacity=".4" d="M61 76h104v4H61z"/><path fill="#333128" fill-opacity=".6" d="M208 136l56-47 7 52z"/><path fill="#d6dad8" fill-opacity=".5" d="M61 51h14v59H61z"/><path fill-opacity=".5" d="M119 16h4v97h-4z"/><ellipse cx="224" cy="144" fill="#fff" fill-opacity=".3" rx="175" ry="5"/><circle r="1" fill="#11100e" fill-opacity=".4" transform="matrix(-3.09266 -60.51287 1.54935 -.07918 148.2 72.5)"/><ellipse cx="169" cy="69" fill="#fffffa" fill-opacity=".3" rx="21" ry="51"/><path fill="#6e6b58" fill-opacity=".7" d="M174-16l-73 36 90 2z"/><path fill="#faf7ed" fill-opacity=".5" d="M187 160h69v7h-69z"/><path fill="#e2f4fe" fill-opacity=".4" d="M117.5 35.1l1.6-19.1-27 20.5L103.3 19z"/><path fill="#554d3c" fill-opacity=".6" d="M87 137l42-50 68 47z"/><path fill="#010200" fill-opacity=".5" d="M-16 125.1l63.5-32.8 7.4-48.5-70 20.6z"/><path fill="#fbfdff" fill-opacity=".5" d="M124 22h12v64h-12z"/><ellipse cx="138" cy="48" fill-opacity=".4" rx="22" ry="2"/><path fill="#fff" fill-opacity=".6" d="M99 82h19v20H99zm-25.5 22.8l4.7-27 16.2-.4-9.8 28.2z"/><ellipse cx="79" cy="76" fill-opacity=".5" rx="18" ry="2"/><path fill="#cecec5" fill-opacity=".4" d="M235 146.4l-54.6 5.5 46.4-39.5-62 2.6z"/><circle r="1" fill="#8a877a" fill-opacity=".5" transform="matrix(-29.51783 38.7477 -18.82397 -14.34002 215.4 49.7)"/><path fill="#fff" fill-opacity=".5" d="M68 138l-5 18 64-5z"/><path fill="#312c1c" fill-opacity=".6" d="M260 145l-44 3 55 11z"/><path fill="#1b120c" fill-opacity=".5" d="M58.4 135.5l4.8 23.9 12.5-72.9L54.8 145z"/><path fill="#d9d7cf" fill-opacity=".8" d="M68.7 17.3l2-.4 2.6 13.8-2 .4z"/><ellipse cx="86" fill="#161700" fill-opacity=".5" rx="26" ry="17"/><path fill="#17190b" fill-opacity=".6" d="M84 38l3 14 41-22z"/><path fill="#848374" fill-opacity=".6" d="M46 112l18-66v81z"/><path fill="#fff" fill-opacity=".4" d="M123.1 46.9L97.7 76.8 69.1 50.4l-3.3 16.1z"/><path fill="#5a5345" fill-opacity=".7" d="M264.9 102.5l-49.3 12.9-9.9-110.6 19.2 89.3z"/><path fill="#94857c" fill-opacity=".8" d="M136 82.6l4.2 2.5-6.1 10.3-4.3-2.5z"/><ellipse cx="124" cy="78" fill="#09090b" fill-opacity=".5" rx="33" ry="2"/><path fill="#e6f2f7" fill-opacity=".5" d="M85 17h7v11h-7z"/><path fill="#494134" d="M182.6 176l88.4-6.4-22.7-2.4-22.4 2.4z"/><path fill="#fffff7" fill-opacity=".3" d="M180.5 46.9l-6.1-30.8-40.2-2.5 22.8 8.6z"/><path fill="#fff" fill-opacity=".6" d="M117 29l-18 7 19-17z"/><path fill="#f0efea" fill-opacity=".8" d="M156 185l6-21-76 5z"/><path fill="#121306" fill-opacity=".6" d="M80.9 16.5l12.5 44.4 6.6-74.8-23.7 92.4z"/><path fill="#000500" fill-opacity=".5" d="M211 121h8v18h-8z"/><ellipse cx="130" cy="162" fill="#322a1c" fill-opacity=".4" rx="39" ry="3"/><ellipse cx="8" cy="14" fill="#8b9088" fill-opacity=".4" rx="4" ry="25"/><path fill="#2f3121" fill-opacity=".8" d="M122.7 20.4l38.5 2.5-38.1-5.4-77.8-7.7z"/><path fill="#becbd7" fill-opacity=".4" d="M58 155l-18 1 22-18z"/><ellipse cx="255" cy="160" fill="#a8a69e" rx="20" ry="4"/><path fill="#fff" fill-opacity=".5" d="M125 49h19v28h-19z"/><path fill-opacity=".4" d="M92 60h3v48h-3z"/><path fill="#6f6858" fill-opacity=".5" d="M98 120l51.7-26.4 6.3 12.5-51.7 26.3z"/><path fill="#7d7a6a" fill-opacity=".4" d="M46 1.5l-7.6 19.6L16 12.5l7.6-19.6z"/><path fill="#fff" fill-opacity=".5" d="M107 51h13v24h-13z"/><ellipse cx="110" cy="46" fill="#050600" fill-opacity=".6" rx="23" ry="1"/><path fill-opacity=".5" d="M80 105h10v3H80z"/><path fill="#4e473b" fill-opacity=".5" d="M188 95h16v18h-16z"/><circle r="1" fill="#120902" fill-opacity=".5" transform="matrix(13.02204 -60.22933 2.29333 .49584 58.2 169)"/><path fill="#5c543f" fill-opacity=".3" d="M180 3h16v54h-16z"/></g></svg>