<svg xmlns="http://www.w3.org/2000/svg" viewBox="0 0 299 449"><defs/><path fill="#4e3829" d="M0 0h299v449H0z"/><g transform="translate(.9 .9) scale(1.7539)"><circle r="1" fill="#b7c6ce" fill-opacity=".5" transform="rotate(-129.7 115.7 68.3) scale(123.11568 41.16683)"/><path fill="#f0f6ff" fill-opacity=".6" d="M121.4 73.3l18-1.8 15.2 145.2-18 1.8z"/><ellipse cx="107" cy="123" fill="#100908" fill-opacity=".9" rx="16" ry="28"/><ellipse cx="5" cy="14" fill="#010403" fill-opacity=".6" rx="170" ry="55"/><circle r="1" fill="#040100" fill-opacity=".6" transform="matrix(-2.33594 124.35842 -35.29923 -.66306 23 105.3)"/><circle cx="90" cy="247" r="56" fill="#2c343e" fill-opacity=".6"/><circle cx="155" cy="189" r="17" fill="#e6e7e8"/><ellipse cx="166" cy="237" fill="#fff" fill-opacity=".8" rx="9" ry="21"/><ellipse cx="75" cy="149" fill="#f2f3e7" fill-opacity=".4" rx="13" ry="48"/><circle cx="84" cy="72" r="17" fill="#e8c7b8" fill-opacity=".5"/><ellipse cx="165" cy="123" fill="#000006" fill-opacity=".6" rx="22" ry="53"/><path fill="#f6f8ff" fill-opacity=".7" d="M140.7 65.4l6 .3-1.4 27-6-.4z"/><path fill="#221a16" fill-opacity=".5" d="M142.5 186l-54.2 30.2-6.8-12.3 54.2-30z"/><path fill="#0f0503" fill-opacity=".6" d="M83 137l25-30 22 54z"/><path fill="#322724" fill-opacity=".5" d="M121.9 94.5l54.2-57.7-64-52.8L98.3 84.2z"/><path fill="#b0aea4" fill-opacity=".5" d="M81.1 135.6l80.6 53-92.3-9-31.1 23.9z"/><path fill="#fcffff" fill-opacity=".5" d="M147 145l-25-17 14-40z"/><path fill="#4d4f52" fill-opacity=".6" d="M154 204l-42 54 46 9z"/><path fill-opacity=".6" d="M33 215l39-1-10-33z"/><path fill="#fff" fill-opacity=".5" d="M142.3 195.9l.4 26-13 .2-.4-26z"/><path fill="#b2e8ff" fill-opacity=".5" d="M161.6 60.3l2.1-9.8 14.7 3.2-2.1 9.8z"/><ellipse cx="30" cy="157" fill="#0d0100" fill-opacity=".5" rx="34" ry="21"/><ellipse cx="146" cy="109" fill="#271f20" fill-opacity=".7" rx="6" ry="18"/><circle r="1" fill="#d3c3b4" fill-opacity=".5" transform="rotate(-95.1 92.4 27.8) scale(10.39484 23.13659)"/><circle r="1" fill="#212730" fill-opacity=".6" transform="matrix(21.7178 15.26353 -43.09467 61.3175 2.2 255)"/><ellipse cx="122" cy="93" fill="#d6c5c1" fill-opacity=".6" rx="20" ry="3"/><path fill="#aeaea9" fill-opacity=".9" d="M93.7 147.2h14.6l-3.4 18.8 26.5 3.3z"/><path fill="#140500" fill-opacity=".5" d="M111 184h9v33h-9z"/><path fill="#2a1c1a" fill-opacity=".7" d="M107.2 91.3l-7.2 15.9-16.2 6L68.4 89z"/><path fill="#190800" fill-opacity=".6" d="M75.4 71.7l-6-10.1 7.5-24.5 11.6 5.2z"/><path fill="#260f09" fill-opacity=".7" d="M132 61l20-18 34 42z"/><path fill="#a68d7f" fill-opacity=".6" d="M69.9 62.8l-6.7-.8 7.4 23.3 38.1 7.5z"/><path fill="#696766" fill-opacity=".5" d="M148 235l-78 9 116-49z"/><path fill="#fafaf9" fill-opacity=".7" d="M163.5 176.1l-36.1 25.1 14.2 12.8 28.3-15.9z"/><path fill="#2d1d1e" fill-opacity=".6" d="M104.1 143.2l25.5-34.2-5.3-4.3 1.5 63z"/><path fill="#d5d7d6" fill-opacity=".7" d="M69.6 142.3l-8.4-26.9 14.9 6.5L93 147.7z"/><path fill="#aab0a7" fill-opacity=".5" d="M88.7 153.6l7.5 39.7-30.8-1.5 9 15.2z"/><path fill="#ffdac3" fill-opacity=".5" d="M91 98l1 13-9-13z"/><path fill="#a58271" fill-opacity=".7" d="M63 88.1l10.4 19.4L69 110 58.6 90.5z"/><path fill="#0d0603" fill-opacity=".7" d="M24.2 188.6l40.9-43.1-18.1 43 .8 27.5z"/><path fill="#7a766c" fill-opacity=".5" d="M140 66l-39 26 34-6z"/><path fill="#bda49a" fill-opacity=".5" d="M85 49h6v38h-6z"/><path fill="#23180c" fill-opacity=".5" d="M-2 52l35-29 51 76z"/><path fill="#230e00" fill-opacity=".4" d="M63.7 112.5L56.3 78-16 79.6l11.5 70.7z"/><circle r="1" fill="#9a9288" fill-opacity=".6" transform="matrix(14.23453 -22.43004 3.60994 2.29094 61 172.7)"/><path fill="#877f71" fill-opacity=".6" d="M124.6 181l-33.9-32.8 56.1 37.5-19.9 14.7z"/><circle r="1" fill="#f6f9fa" fill-opacity=".5" transform="rotate(11.1 -1157.7 983.9) scale(8.59786 26.69209)"/><path fill="#eff3f8" fill-opacity=".5" d="M166.6 204.7l-29.8-28.3 10.5-12.6 33.1 43.6z"/><ellipse cx="45" cy="249" fill="#404147" fill-opacity=".5" rx="112" ry="17"/><path fill="#1a1104" fill-opacity=".6" d="M111.6 59.7L109 94.9l-7.6-14.1-3.2-27.6z"/><path fill="#d5dbe9" fill-opacity=".7" d="M139.5 99.6l-7.1-10.4 4.4 79 13.9 15z"/><path fill="#414647" fill-opacity=".6" d="M158 203.4l25.3 5.4-1.2 5.8-25.4-5.4z"/><circle cx="165" cy="137" r="21" fill="#0f0a08" fill-opacity=".6"/><path fill="#6c6968" fill-opacity=".6" d="M127.8 234.5l13.3-4.1-18.9-45-4.8 25.4z"/><path fill="#514a59" fill-opacity=".4" d="M132 135h2v56h-2z"/><ellipse cx="160" cy="23" fill="#2c211f" fill-opacity=".6" rx="95" ry="28"/><path fill="#6f5532" fill-opacity=".5" d="M68 11h5v37h-5z"/><path fill="#8d8e84" fill-opacity=".5" d="M61 150h39v11H61z"/><path fill="#c0c2c7" fill-opacity=".7" d="M115.2 162.5l18.6 11.9 27.7-1.6 24.5 15.8z"/><circle r="1" fill="#521a00" fill-opacity=".3" transform="rotate(52.6 -23 114.9) scale(8.72039 11.62641)"/><path fill="#32343a" fill-opacity=".5" d="M77 193h38v36H77z"/><path fill="#e1f5fd" fill-opacity=".3" d="M78.6 166.2l-1.4-5.6-17.9 5.6 16.4 22z"/><path fill="#e7e7ec" fill-opacity=".4" d="M146.2 66.4L125.7 132l21.9-51.7-18.9-3.6z"/><path fill="#140a08" fill-opacity=".7" d="M110.8 155.2l12-7.7-21.7-58.1L87.7 93z"/><path fill="#52483d" fill-opacity=".7" d="M126 55l-2 36-10-9z"/></g></svg>