<svg xmlns="http://www.w3.org/2000/svg" viewBox="0 0 300 199"><defs/><path fill="#583e34" d="M0 0h300v199H0z"/><g transform="translate(.6 .6) scale(1.17188)"><circle r="1" fill="#d6dfe4" fill-opacity=".7" transform="rotate(69.1 -11.5 127.5) scale(58.26299 37.50649)"/><circle r="1" fill="#000310" fill-opacity=".7" transform="matrix(-82.17571 -187.08538 37.41667 -16.43496 169.4 15.6)"/><path fill="#d0c9c4" fill-opacity=".7" d="M86 20h41v120H86z"/><circle r="1" fill="#1f0e06" fill-opacity=".7" transform="rotate(-133 48 66) scale(255 43.31072)"/><ellipse cx="59" cy="42" fill="#36271f" fill-opacity=".4" rx="33" ry="65"/><circle r="1" fill="#102650" fill-opacity=".8" transform="matrix(-23.39606 4.3362 -7.29536 -39.36225 152.1 44.6)"/><path fill="#cde7fc" fill-opacity=".4" d="M148.9 148.7l19.2-34.3-1.8-16.2-76.2-58.9z"/><circle r="1" fill="#889191" fill-opacity=".5" transform="rotate(66.6 -41.4 112.3) scale(38.26295 13.16658)"/><ellipse cx="172" cy="158" fill="#11190e" fill-opacity=".3" rx="128" ry="29"/><circle r="1" fill="#c5997f" fill-opacity=".7" transform="matrix(-5.6709 -14.03684 17.8094 -7.19502 94.4 31.2)"/><path fill="#fff" fill-opacity=".5" d="M167.4-.3l.7 3-13.5 3.6-.7-3z"/><ellipse cx="224" cy="104" fill="#140200" fill-opacity=".3" rx="56" ry="129"/><path fill="#2c1810" fill-opacity=".4" d="M0 0h76v71H0z"/><circle cx="167" cy="20" r="18" fill="#122d65" fill-opacity=".7"/><ellipse cx="120" cy="95" fill="#dde3e8" fill-opacity=".4" rx="22" ry="42"/><ellipse cx="148" cy="143" fill="#75877a" fill-opacity=".2" rx="63" ry="18"/><ellipse cx="128" cy="5" fill="#2e312e" fill-opacity=".7" rx="28" ry="18"/><path fill="#a1725f" fill-opacity=".5" d="M229 167.3l-31.1 7.2-1-3.8 31.2-7.2z"/><path fill="#080b11" fill-opacity=".4" d="M143.7 26.3l-4.8 22.4 10.4 40.7-29-57.2z"/><path fill="#fef3fc" fill-opacity=".5" d="M208.4-16l-53.6 4 .7 17.6 9.7-3.1z"/><path fill="#f1cdbb" fill-opacity=".5" d="M104 24h21v18h-21z"/><path fill="#9eabbb" fill-opacity=".5" d="M155.4 94l-38-56.7 45.3 100 2.2-15z"/><path fill="#8c8a85" fill-opacity=".4" d="M64 62h31v52H64z"/><path fill="#7a5b50" d="M73.5 38.6l5.6 45.8 9.3-39.1-12.2-22.2z"/><path fill="#0c0400" fill-opacity=".5" d="M76-16l32 14-19 19z"/><path fill="#74534a" fill-opacity=".6" d="M222.7 37.9l-2.3-1.3 21.1 18.1-2.4-42.1z"/><circle r="1" fill="#120d06" fill-opacity=".6" transform="rotate(-99.3 152.8 15.7) scale(6.37775 57.28861)"/><path fill="#080700" fill-opacity=".2" d="M161 76l110-29-101 98z"/><ellipse cx="66" cy="38" fill="#000101" fill-opacity=".4" rx="9" ry="26"/><path fill="#a2a1a5" fill-opacity=".4" d="M91.6 133.6l-14.2 8.8 72-1.8 2.9-28.1z"/><path fill="#595343" fill-opacity=".7" d="M203 139l-101 6 50 12z"/><path fill="#503226" fill-opacity=".5" d="M64 73l-79-89 66 159z"/><path fill="#b3927e" fill-opacity=".8" d="M88.1 21.8l14.4-11.9-9.2 49.8-15.4-39.6z"/><ellipse cx="67" cy="158" fill="#190b0f" fill-opacity=".5" rx="16" ry="39"/><path fill="#a58f76" fill-opacity=".5" d="M236 40h16v6h-16z"/><path fill="#46372b" fill-opacity=".6" d="M213.2 6.3l39.3 108-3.7 1.4-39.3-108z"/><path fill="#e2e4e7" fill-opacity=".4" d="M140 134l-32-18-2-93z"/><circle r="1" fill="#0f0800" fill-opacity=".5" transform="matrix(-13.89574 -1.44864 9.47652 -90.90133 194.3 48.2)"/><path fill="#a06b49" fill-opacity=".3" d="M68.8 45.7l41.1-12.5 11.5 30.6 6.1-21.6z"/><path fill="#475b64" fill-opacity=".3" d="M182.3 126L153 141.7l-9.4-17.7 29.2-15.5z"/><path fill="#170d08" fill-opacity=".6" d="M153.1 145.2l42.4-34.6 42.2-62.9-8.8 81.4z"/><path fill="#888e91" fill-opacity=".4" d="M102 146l-25-12 1-38z"/><path fill="#708385" fill-opacity=".6" d="M75-16V4l9 11z"/><path fill="#0f2552" fill-opacity=".7" d="M162.7 94.9l-19.9-18.3-1.3-46.7 16.9-6.1z"/><path fill="#cdb0a2" fill-opacity=".8" d="M94.7 17.6l3-8.1 14 37.7L130 25.7z"/><path fill="#c8cdd5" fill-opacity=".4" d="M147.5 117.5l13.8-16.4-23.8-23.6-47.8-15.2z"/><circle cx="100" cy="162" r="15" fill="#302b24" fill-opacity=".7"/><ellipse cx="93" cy="88" fill="#b4b4b5" fill-opacity=".5" rx="6" ry="45"/><path fill="#000018" fill-opacity=".6" d="M125 30h3v11h-3z"/><path fill="#502520" fill-opacity=".8" d="M247.4 185l-39.7-12.9 23.9-9.7 31.5 22.6z"/><path fill="#3d4249" fill-opacity=".5" d="M138 135h7v10h-7z"/><path fill="#441f17" fill-opacity=".5" d="M213.5 155.8l-19.7 3.1-3.3-20.7 19.7-3.1z"/><path fill="#664d43" fill-opacity=".7" d="M92.3 57.8l-31.6 4.1h26.8l-10.4-32z"/><path fill="#a78d82" fill-opacity=".5" d="M224 36l8-10-3 15z"/><path fill="#4d4b50" fill-opacity=".4" d="M65.1 98.5l13.4 47.1 10.3-9-39.9-43.2z"/><path fill="#e2e2e2" fill-opacity=".6" d="M125.6 61l-7.9 19.3-20-13.2 6.1-23.8z"/><path fill="#ae796c" fill-opacity=".5" d="M76 56l12-1-11-15z"/><path fill="#a0afc5" fill-opacity=".5" d="M156 88v28l-16-38z"/><path fill="#5e2424" fill-opacity=".5" d="M225 44l9-21 37 3z"/><path fill="#1b316b" fill-opacity=".5" d="M143 21l27-21-6 46z"/><path fill="#120a07" fill-opacity=".7" d="M182 99l17-115 60 176z"/><path fill="#d7c0b7" fill-opacity=".5" d="M107 24h23v5h-23z"/><path fill="#f9e7ea" fill-opacity=".1" d="M123.8 48.1l-16-64.1V2.5l4.1 31.4z"/><path fill="#583b31" fill-opacity=".5" d="M246.8 115.7l-20.7 18.7 44.2-50.9.7 60.5z"/><path fill="#482d23" fill-opacity=".6" d="M46 91l-62-35 66-66z"/></g></svg>