<svg xmlns="http://www.w3.org/2000/svg" viewBox="0 0 300 199"><defs/><path fill="#5e443e" d="M0 0h300v199H0z"/><g transform="translate(.6 .6) scale(1.17188)"><circle r="1" fill="#dee7dc" fill-opacity=".4" transform="rotate(-118.6 106.3 21.2) scale(60.03814 88.18645)"/><circle r="1" fill="#c1bbb3" fill-opacity=".6" transform="rotate(-63.5 139.6 35.8) scale(19.00051 37.607)"/><circle cx="218" cy="35" r="44" fill="#000608" fill-opacity=".5"/><circle r="1" fill="#010a13" fill-opacity=".6" transform="matrix(18.48924 -24.3837 34.35949 26.0535 39.8 89.2)"/><ellipse cx="245" cy="150" fill="#01080a" fill-opacity=".7" rx="26" ry="55"/><circle r="1" fill="#5f3f29" fill-opacity=".5" transform="matrix(-29.86625 -34.02574 16.70694 -14.6646 166.1 164.8)"/><circle r="1" fill="#cdd2d7" fill-opacity=".6" transform="matrix(3.65876 -12.19556 39.43119 11.82967 132 92)"/><ellipse cx="143" cy="53" fill="#886259" fill-opacity=".9" rx="32" ry="20"/><circle r="1" fill="#82bbcf" fill-opacity=".4" transform="rotate(70.1 9 195.5) scale(27.82489 31.26035)"/><circle r="1" fill="#282321" fill-opacity=".7" transform="matrix(-14.42349 -20.59887 70.21313 -49.16377 34.1 1.3)"/><path fill="#ded5da" fill-opacity=".4" d="M149 148l-49 11 14-44z"/><path fill="#9f5d28" fill-opacity=".5" d="M83 105h23v65H83z"/><circle r="1" fill="#00111d" fill-opacity=".4" transform="matrix(1.7622 13.51193 -48.132 6.27727 163.6 10.1)"/><circle r="1" fill="#e8f0f1" fill-opacity=".4" transform="rotate(-82.4 87.2 63.3) scale(5.70775 24.16637)"/><path fill="#caa67e" fill-opacity=".5" d="M247.8 71.3l.4 23-20 .4-.4-23z"/><path fill="#071312" fill-opacity=".5" d="M245 185l-82-33 108-3z"/><path fill="#2c2526" fill-opacity=".7" d="M-8.8 101.2L1 37.1 26.7 54l-1.9 82.2z"/><path fill="#dbd3d7" fill-opacity=".5" d="M75.3 126.3l-7.2-5.5 38.6-51 7.2 5.4z"/><path fill="#8c674d" d="M88.1 195l-7.8-21.6 83.6-30.4 7.8 21.6z"/><path fill="#14131a" fill-opacity=".7" d="M24 111.7l44.5-5.1 4 23.7-33.1-8.8z"/><ellipse cx="146" cy="40" fill="#222328" fill-opacity=".5" rx="8" ry="30"/><path fill="#312d35" fill-opacity=".6" d="M89.1 89.3l-11 21.3-37.5-51.5L121 46.6z"/><path fill="#1f0e1f" fill-opacity=".5" d="M106.8 103.8l-18.7 25.3 13.8-2.4 11.9-17.2z"/><circle r="1" fill="#e2e3e0" fill-opacity=".4" transform="rotate(-86 120 52.9) scale(11.69308 23.44332)"/><path fill="#d48e7e" fill-opacity=".5" d="M52 27v27L32 32z"/><path fill="#4a332c" fill-opacity=".7" d="M193.4 72.3l2.5-58.6-33.1 82.9 17.9-26.1z"/><path fill="#ad9f96" d="M11.8 119.9l-12.6 2.6 97.2 47.7-70-26z"/><ellipse cx="240" cy="108" fill="#3b2520" fill-opacity=".6" rx="27" ry="13"/><ellipse cx="90" cy="55" fill="#ffc4a0" fill-opacity=".5" rx="4" ry="9"/><path fill="#91755d" fill-opacity=".8" d="M48 142.9l92.5 20.3-73-5.6 22-30.6z"/><path fill="#423f40" d="M79.3 98.1L-3.6 105l5.1-1.5-5.3 18.2z"/><path fill="#cfc9be" fill-opacity=".5" d="M27 119l51 14-57 5z"/><path fill="#a1bfc4" fill-opacity=".6" d="M202 72.3l14 18.4-20 15-13.8-18.4z"/><circle r="1" fill="#bf8d78" fill-opacity=".5" transform="matrix(6.9101 -5.09457 13.33688 18.0897 165.4 51)"/><path fill="#adb4b5" fill-opacity=".8" d="M157.1 67.6l8 26-18.3 40-6.5-54z"/><path fill="#211d20" fill-opacity=".4" d="M158.6 132l-34.4-3.3 25.7 9.4 33.9 29.6z"/><circle r="1" fill="#3c454d" fill-opacity=".5" transform="matrix(30.92686 -32.81878 22.9708 21.64658 96.8 11.4)"/><circle r="1" fill="#b98778" fill-opacity=".5" transform="matrix(-4.94015 -21.92118 5.77327 -1.30106 120.9 48.9)"/><path fill="#c9d2d8" fill-opacity=".4" d="M102.3 141.4l20.8-.6 11.2-24.2-45 16z"/><path fill="#cec5c8" fill-opacity=".6" d="M129 102l-43-4 32-35z"/><path fill="#43240a" fill-opacity=".4" d="M49.4 161.6l-16.7-19.8 27.1 23.5-25 19.7z"/><path fill="#d87300" fill-opacity=".6" d="M84 135h15v18H84z"/><circle r="1" fill="#120f12" fill-opacity=".6" transform="matrix(-81.052 21.1375 -2.96163 -11.35642 6.5 92)"/><path fill="#1e0f12" fill-opacity=".4" d="M123.5 80.9l-16.8-62 1.9 46.6 33.7 7.2z"/><path fill="#4a3a37" d="M29.9 152.7L44.2 185l-33.4-38.2 12.3 2.7z"/><path fill="#9e060a" fill-opacity=".5" d="M184.9 108.5l2.8 5.3-10.6 5.7-2.8-5.3z"/><circle r="1" fill="#d9dbe2" fill-opacity=".7" transform="matrix(2.33624 -4.73536 5.97838 2.9495 58.5 152.4)"/><path fill="#d8e3eb" fill-opacity=".4" d="M85.8 133.8L68.2 130l2-9.8 17.6 3.8z"/><path fill="#200d23" fill-opacity=".4" d="M.6 134.9L25.3 120l-3.5 8.9 9 4.2z"/><path fill="#b29680" fill-opacity=".6" d="M220.4 89.4l1-6 52.2 9.2-1 6z"/><path fill="#2a2426" fill-opacity=".9" d="M31.5 40.5l14.8 12-13.8 17-14.8-12z"/><ellipse cx="241" cy="113" fill="#8c674c" fill-opacity=".5" rx="14" ry="4"/><path fill="#ad6743" fill-opacity=".4" d="M168.1 68.6l29.5 2.1 8.7-6.2-36.8 40.7z"/><path fill="#3b382e" fill-opacity=".5" d="M154 113h6v37h-6z"/><path fill="#33382f" fill-opacity=".6" d="M223.1 123l9.4 62-32.2-37.7 41.9-39.6z"/><path fill="#7fa6ae" fill-opacity=".5" d="M224 129l-40-34 1 62z"/><ellipse cx="255" fill="#2c2321" fill-opacity=".9" rx="85" ry="72"/><path fill="#3b3231" fill-opacity=".7" d="M137.1 137.9l-2.1-1.8 5.1-11.8 22.1 14.8z"/><path fill="#9c9aa2" fill-opacity=".4" d="M108.8 6.4L78.1 2.6l1-9L110-2.6z"/><path fill="#9b624e" fill-opacity=".5" d="M82 104h53v12H82z"/><path fill="#cd9675" fill-opacity=".4" d="M86.3 43.7L91.7 65 94 21.4l-.6 3.1z"/><path fill="#cac5c4" fill-opacity=".6" d="M118 91l-18-17 20-9z"/><ellipse cx="84" cy="89" fill="#555a5b" fill-opacity=".7" rx="4" ry="12"/><path fill="#aa776c" fill-opacity=".8" d="M132.9 83.8l-2.3-49-18.5 7.9L129.3 78z"/><path fill="#a87e6a" fill-opacity=".5" d="M118.4 149.4l51.2 17.3-20.4-29.4-37.4 11.2z"/></g></svg>