<svg xmlns="http://www.w3.org/2000/svg" viewBox="0 0 300 199"><defs/><path fill="#654a40" d="M0 0h300v199H0z"/><g transform="translate(.6 .6) scale(1.17188)"><ellipse cx="52" cy="17" fill="#f0fbfc" fill-opacity=".7" rx="189" ry="137"/><circle r="1" fill="#8a8b8d" fill-opacity=".9" transform="rotate(-162 108 65.8) scale(31.20046 187.76154)"/><circle r="1" fill="#e8ecef" fill-opacity=".6" transform="matrix(18.64412 -15.48625 39.83974 47.96363 148.7 100)"/><ellipse cx="31" cy="25" fill="#67543c" fill-opacity=".5" rx="74" ry="12"/><circle cx="96" cy="169" r="39" fill="#3d321c" fill-opacity=".5"/><ellipse cx="241" cy="86" fill="#323535" fill-opacity=".4" rx="28" ry="67"/><ellipse cx="8" cy="136" fill="#f9ffff" fill-opacity=".6" rx="57" ry="19"/><ellipse cx="47" cy="64" fill="#e2e5e7" fill-opacity=".8" rx="114" ry="23"/><ellipse cx="149" fill="#fffffc" fill-opacity=".4" rx="118" ry="25"/><path fill="#341402" fill-opacity=".6" d="M62.8 103.1l12-.2.4 24-12 .2z"/><circle r="1" fill="#e4fcff" fill-opacity=".5" transform="rotate(87.6 20 196.8) scale(4.50648 39.81246)"/><circle r="1" fill="#8c7f6d" fill-opacity=".5" transform="matrix(93.65291 6.88202 -.73 9.93422 155.3 39.3)"/><path fill="#0d0000" fill-opacity=".5" d="M112.7 101.6l7.8-1.7 4.8 22.5-7.8 1.7z"/><circle r="1" fill="#3d4430" fill-opacity=".6" transform="matrix(73.3274 -4.4849 .85688 14.0099 52.5 167.1)"/><path fill="#390f00" fill-opacity=".6" d="M90 102h9v16h-9z"/><ellipse cx="191" cy="98" fill="#a5a2a6" fill-opacity=".7" rx="21" ry="56"/><path fill="#e1e4e4" fill-opacity=".9" d="M124.3 137.8l19.5 1.1 40.8-4.8-47-89.2z"/><ellipse cy="16" fill="#54473b" fill-opacity=".5" rx="39" ry="10"/><path fill="#010306" fill-opacity=".6" d="M230.4 143.9l23.6-24.6 15.5.2-12.4 36.1z"/><path fill="#0b100b" fill-opacity=".6" d="M240 64h16v33h-16z"/><path fill="#fefcff" fill-opacity=".5" d="M92 147L69 94l16-23z"/><ellipse cx="41" cy="61" fill="#9c9ea0" fill-opacity=".7" rx="5" ry="34"/><path fill="#616c6c" fill-opacity=".9" d="M271 171.8l-61.6-12.2-63 5.5 82.6-20.7z"/><circle r="1" fill="#abaab5" fill-opacity=".3" transform="rotate(-102 161.2 -37) scale(14.07556 26.36328)"/><path fill="#54513c" fill-opacity=".6" d="M85 141h79v26H85z"/><ellipse cx="246" cy="45" fill="#8d8c8d" fill-opacity=".5" rx="95" ry="17"/><path fill="#422a21" fill-opacity=".5" d="M231 110l-20-50 21 1z"/><path fill="#eadcc5" fill-opacity=".7" d="M159 48.3L115 5.4 102.3.6 161.9-16z"/><path fill="#e0e7ea" fill-opacity=".6" d="M-16 171.1l100.7-80 2.9 35.5-27.2-43.8z"/><path fill="#b3a39d" d="M90.1 143.6l-17.9-40.7 6.5 7.6-15.8 23.7z"/><path fill="#9c9b97" fill-opacity=".5" d="M86 18h7v68h-7z"/><path fill="#f5ecee" fill-opacity=".6" d="M105 124h7v19h-7z"/><ellipse cx="87" cy="30" fill="#a0937f" fill-opacity=".6" rx="48" ry="11"/><path fill="#2c0c00" fill-opacity=".3" d="M120.5 185h17.9l-43.3-62.5-5.2 8.2z"/><path fill="#6e826f" fill-opacity=".4" d="M106.1 144.9l36.1 15.7 47.9-28.5-26.3 3z"/><path fill="#9ea0a0" fill-opacity=".4" d="M126 39h6v64h-6z"/><circle r="1" fill="#e7ebeb" fill-opacity=".6" transform="matrix(37.67271 -.73778 .21043 10.74518 0 45.4)"/><path fill="#c5d5e4" fill-opacity=".4" d="M221 34l-62-5 70-45z"/><circle r="1" fill="#565248" fill-opacity=".4" transform="rotate(8.6 -167.5 1553.7) scale(41.33599 3.92422)"/><circle r="1" fill="#898e97" fill-opacity=".4" transform="matrix(100.08877 .18501 -.00355 1.92018 49.5 88)"/><circle r="1" fill="#20160e" fill-opacity=".6" transform="matrix(-3.87684 -1.6823 3.19479 -7.36235 68.8 112)"/><path fill="#e0e6ea" fill-opacity=".5" d="M92 90l16-29 6 81z"/><path fill="#825b4c" d="M79.7 137.2l24.9 26.8.3-28-23.6 34.4z"/><path fill="#e5f5ff" fill-opacity=".5" d="M105.8 19.8L.1 3l2-12.9L108 7z"/><path fill="#f5f4f4" fill-opacity=".5" d="M131 49h28v33h-28z"/><path fill="#f7fcff" fill-opacity=".5" d="M198 167h48v3h-48z"/><path fill="#a5807f" fill-opacity=".6" d="M124 113l-3 41-11-13z"/><path fill="#c4d2dd" fill-opacity=".5" d="M0 90h41v34H0z"/><path fill="#8c8261" fill-opacity=".4" d="M165.9 128l-6.3-93.2 41.8 2.4-35.9-4.9z"/><path fill="#e9ecf1" fill-opacity=".5" d="M-16 154l85-6-12-37z"/><path fill="#9c9990" fill-opacity=".6" d="M87.2 42.2L6.3 7.5l67.9 7.2L7.6 36.1z"/><path fill="#715441" fill-opacity=".5" d="M80.6 24.3l-.8 7-78.4-9.6.8-7z"/><path fill="#a89496" fill-opacity=".4" d="M231 79l6-17 6 45z"/><ellipse cx="117" cy="110" fill="#250000" fill-opacity=".4" rx="5" ry="7"/><path fill="#a6a0a7" fill-opacity=".5" d="M188.4 114.6L161.3 152l17 5.7 60.5-55.1z"/><path fill="#8d8f95" fill-opacity=".6" d="M226.9 155.2l-44.6 5.3 88.7 11.3-35.3-12.7z"/><path fill="#f1f1f2" fill-opacity=".5" d="M45 45h39v41H45z"/><path fill="#3d4f30" fill-opacity=".6" d="M155 138h9v27h-9z"/><path fill="#807f7b" fill-opacity=".5" d="M235 98l-62 4 58 13z"/><path fill="#513f38" fill-opacity=".5" d="M213 62h18v36h-18z"/><path fill="#273d3d" fill-opacity=".5" d="M203 153l43-2-4-11z"/><circle r="1" fill="#c3bfae" fill-opacity=".5" transform="rotate(-173.5 40.1 15) scale(31.69418 3.0228)"/><path fill="#6f797d" fill-opacity=".6" d="M262 6l-51 21 60-5z"/><path fill="#a29a9e" fill-opacity=".5" d="M64 123h12v29H64z"/><path fill="#afaca3" fill-opacity=".8" d="M178.8 125.6l5.3-85.2-152.6-9.2 134.4 16.2z"/></g></svg>