<svg xmlns="http://www.w3.org/2000/svg" viewBox="0 0 300 199"><defs/><path fill="#4f312a" d="M0 0h300v199H0z"/><g transform="translate(.6 .6) scale(1.17188)"><circle r="1" fill="#fff" fill-opacity=".8" transform="matrix(-100.75542 7.80423 -4.72586 -61.01255 114.2 15)"/><ellipse cx="130" cy="75" fill="azure" fill-opacity=".2" rx="105" ry="95"/><path fill="#7e777a" fill-opacity=".8" d="M89 185L223 51l-108 6z"/><circle r="1" fill="#4b1810" fill-opacity=".8" transform="rotate(-105.9 18.3 12.8) scale(32.34974 13.80584)"/><circle r="1" fill="#c6bbb1" fill-opacity=".5" transform="matrix(-26.70412 48.14772 -14.4683 -8.02454 228.7 2.9)"/><circle r="1" fill="#f8f1e9" fill-opacity=".7" transform="rotate(154.4 16.1 36.4) scale(11.36496 18.70143)"/><circle r="1" fill="#07100d" fill-opacity=".5" transform="matrix(11.56698 -5.85631 16.72636 33.03673 83 95.2)"/><circle r="1" fill="#1c2312" fill-opacity=".3" transform="matrix(-1.75126 -13.7007 106.58924 -13.62453 179.5 71)"/><path fill="#e3a993" fill-opacity=".6" d="M118.5 98.2l12.7-12.7 52.3 52.3-12.7 12.7z"/><circle r="1" fill="#000900" fill-opacity=".5" transform="rotate(-119.3 127.2 39) scale(60.17779 11.41296)"/><ellipse cx="114" cy="150" fill="#b1c4ed" fill-opacity=".4" rx="17" ry="34"/><path fill="#fff" fill-opacity=".4" d="M136.1 101.7l17.8-45.3 81-62.3L117.8-16z"/><circle r="1" fill="#feffff" fill-opacity=".7" transform="matrix(.25418 38.25418 -52.96428 .35192 67.2 0)"/><circle r="1" fill="#1b201e" fill-opacity=".4" transform="matrix(-6.7583 -99.13445 35.04 -2.38879 255 105.9)"/><circle r="1" fill="#543b39" fill-opacity=".8" transform="matrix(-37.95496 24.04248 -22.47185 -35.47546 53.6 146.7)"/><ellipse cx="4" cy="94" fill="#250d0d" fill-opacity=".7" rx="13" ry="60"/><path fill="#b99079" fill-opacity=".6" d="M199.2 146l13.3-63.2 1.1-76.4-9.5 27.9z"/><circle r="1" fill="#7f5343" fill-opacity=".5" transform="matrix(11.73918 24.6202 -38.2797 18.25218 204 135.5)"/><path fill="#fba989" fill-opacity=".4" d="M190.8 137.4l20.2-8.5-76.4-13.6 16.7 28.3z"/><path fill="#9c6d5e" fill-opacity=".7" d="M134.2 63.2l-17.8-15.4 26.9 64.8 18.1 3z"/><path fill="#b47868" fill-opacity=".5" d="M41.5 79.3L55.4 73l18.7 42.2 4.7 31.8z"/><path fill="#9cacfe" fill-opacity=".4" d="M173.5 109.6l-15.3-.9-.8-22 26.4-1.4z"/><path fill="#ad6153" fill-opacity=".5" d="M22.8 38.3l.5 96.5 11.6-81.9L5.3-16z"/><path fill="#370003" fill-opacity=".5" d="M112 30h9v7h-9z"/><ellipse cx="96" cy="83" fill="#424d45" fill-opacity=".7" rx="30" ry="11"/><path fill="#301b0e" fill-opacity=".4" d="M192.2 87.5l4.6-40.5-23.6 73 22.4 5.8z"/><path fill="#f7f8f4" fill-opacity=".5" d="M75 16h38v56H75z"/><path fill="#243334" fill-opacity=".5" d="M201 46l-53 43 59-14z"/><path fill="#0a0f02" fill-opacity=".2" d="M271 162l-146-26 23 49z"/><path fill="#58291e" fill-opacity=".5" d="M22 130l18-57 33 94z"/><path fill="#735872" fill-opacity=".5" d="M13 144h32v26H13z"/><path fill="#6b5752" fill-opacity=".6" d="M256-6L208 96l12-71z"/><path fill="#fff" fill-opacity=".5" d="M106 105h12v5h-12z"/><ellipse cx="144" cy="36" fill="#f3f5f5" fill-opacity=".8" rx="9" ry="32"/><path fill="#323c3b" fill-opacity=".6" d="M154.2 81.3l6.8 35.6-9.2-8.7-4.1-17.3z"/><path fill="#01310c" fill-opacity=".4" d="M77 137h16v33H77z"/><path fill="#15201c" fill-opacity=".6" d="M86.7 86.9l5.8 20.2-21.2 6L65.5 93z"/><circle r="1" fill="#fdfffc" fill-opacity=".4" transform="matrix(-12.08547 2.53698 -8.59411 -40.93992 42.1 36.1)"/><path fill="#130a08" fill-opacity=".4" d="M250 21l8 101-34-38z"/><path fill="#dfc8b7" fill-opacity=".6" d="M113 47l-12 26 19-1z"/><path fill="#f8fbfa" fill-opacity=".6" d="M120 25h82v20h-82z"/><path fill="#3a0000" fill-opacity=".5" d="M90 47h4v7h-4z"/><path fill="#4c4d49" fill-opacity=".8" d="M174.6 95.2l-2.7-33.8 4.4-10.9-24.8 19.4z"/><path fill="#f4f4f2" fill-opacity=".7" d="M49.8 65.3L1.4-16l60.1.8.2 90z"/><path fill="#959687" fill-opacity=".5" d="M69 71l-14 4 14-35z"/><path fill="#c7a48b" fill-opacity=".4" d="M212.2 114.5l-23.4-24.9 25-14.4-13.9-53.6z"/><path fill="#af91ab" fill-opacity=".4" d="M73 126h54v11H73z"/><path fill="#1a100d" fill-opacity=".4" d="M52.8 107.7L42.9 179l16.2 3.4-4.2-52.3z"/><circle r="1" fill="#070718" fill-opacity=".6" transform="matrix(-.96126 .27564 -2.5923 -9.0404 174.3 97.5)"/><path fill="#7b8699" fill-opacity=".7" d="M141.5 174.6L108 192.5l-15.5-29.1 33.5-17.9z"/><path fill="#edf2f3" fill-opacity=".8" d="M215.9 4.7l-59.4 52.5-98.4-73L271-16z"/><circle r="1" fill="#9f6052" fill-opacity=".6" transform="matrix(2.166 8.62323 -22.64001 5.68678 175.2 140.8)"/><circle cx="126" cy="69" r="9" fill="#602015" fill-opacity=".3"/><path fill="#c08f7e" fill-opacity=".6" d="M137 53l13 59-20 3z"/><path fill="#fcfbf8" fill-opacity=".6" d="M119 66l-51 2 31-13z"/><circle cx="35" cy="95" r="24" fill="#944741" fill-opacity=".2"/><path fill="#c0c3ec" fill-opacity=".5" d="M158 96l13-4-7-10z"/><path fill="#bdbccb" fill-opacity=".4" d="M117 109.1l-16.3 53.6-5.8-1.8 16.4-53.6z"/><path fill="#b7dafe" fill-opacity=".4" d="M127.4 98.3l7.8-13-15.8 11.3 16.2 10z"/><path fill="#584142" fill-opacity=".5" d="M180.8 165.9l-58.3-40.8-17.1-52.4 25.4 45.7z"/><path fill="#61493f" fill-opacity=".6" d="M217.3 42.2L224 185l-39.6-46.6 28.2 10.3z"/><path fill="#deb49f" fill-opacity=".9" d="M159.3 133l-14.7-17 14.9 1.3 15.5 9z"/><path fill="#560f00" fill-opacity=".3" d="M35.5 61.1l14.7 46.6-13.6-18.5-3.9-16.8z"/><path fill="#798274" fill-opacity=".5" d="M83 84l5-19-12 7z"/><path fill="#5f0b12" fill-opacity=".4" d="M104.9 119.5l-9.3 30.4-2.5-52.8 10.7 5.9z"/></g></svg>