<svg xmlns="http://www.w3.org/2000/svg" viewBox="0 0 300 199"><defs/><path fill="#5f372b" d="M0 0h300v199H0z"/><g transform="translate(.6 .6) scale(1.17188)"><circle r="1" fill="#c6f9ff" fill-opacity=".5" transform="matrix(34.82126 -13.08845 32.90725 87.54831 127.8 33.2)"/><ellipse cx="215" cy="35" fill="#eff" fill-opacity=".7" rx="19" ry="23"/><circle r="1" fill="#000f16" fill-opacity=".8" transform="rotate(-101.5 72.4 39.8) scale(132.55434 56.35553)"/><circle r="1" fill="#fff" fill-opacity=".7" transform="rotate(-100.1 87.8 -30.4) scale(13.28685 37.28945)"/><circle r="1" fill="#00222d" fill-opacity=".5" transform="rotate(-7.8 1096.4 -1555.9) scale(50.83056 78.47206)"/><ellipse cx="121" cy="8" fill="#6a767f" fill-opacity=".9" rx="59" ry="29"/><ellipse cx="230" cy="43" fill="#727268" fill-opacity=".9" rx="11" ry="79"/><circle r="1" fill="#668a9f" fill-opacity=".5" transform="rotate(-69.4 191.5 -15.8) scale(68.0039 23.3282)"/><ellipse cx="187" cy="81" fill="#1e1f1f" rx="10" ry="150"/><path fill="#000007" fill-opacity=".5" d="M153 159l1-34-75-49z"/><path fill="#001c0b" fill-opacity=".4" d="M139 55h73v20h-73z"/><ellipse cx="105" cy="1" fill="#fff" fill-opacity=".6" rx="39" ry="2"/><circle r="1" fill="#c9e0ea" fill-opacity=".6" transform="matrix(-5.41101 -.27685 .5947 -11.6235 111.8 126.9)"/><circle r="1" fill="#03171c" fill-opacity=".7" transform="rotate(-91.8 142 -108.6) scale(70.2865 14.59877)"/><path fill="#fff" fill-opacity=".7" d="M133 67.4l-35 1.2-1-30 35-1.2z"/><circle r="1" fill="#f8ffff" fill-opacity=".6" transform="matrix(-11.55224 -2.7748 3.71816 -15.47972 208.9 40.2)"/><path fill="#8a8b82" fill-opacity=".7" d="M170.1 96.9l28.9-4.2-54.3-35.2L163.5 185z"/><path fill="#4a5f68" fill-opacity=".4" d="M35.6-16l10.5 95.7-20.3 9-5.7-34.9z"/><path fill="#606d72" fill-opacity=".6" d="M106 36l-45 9 5-46z"/><ellipse cx="162" cy="5" fill="#001321" fill-opacity=".4" rx="70" ry="3"/><path fill="#060c0c" fill-opacity=".7" d="M106 179l30-66-64 72z"/><circle r="1" fill="#f3f9fc" fill-opacity=".6" transform="matrix(-.0471 -.99889 51.7812 -2.44194 131.3 11.8)"/><path fill="#bbc2c9" fill-opacity=".4" d="M137.3 109.4l3.2 42.8-28.7 5.5 23.7-25.4z"/><path fill="#f6ffff" fill-opacity=".5" d="M201 26l20 40-3-62z"/><path fill="#0e0506" fill-opacity=".6" d="M167.8 56.9v5.9l4.2 18L217.4 54z"/><path fill="#728287" fill-opacity=".5" d="M168 7h14v43h-14z"/><path fill="#fff" fill-opacity=".6" d="M69.4 4.7l.2-10 29 .6-.2 10z"/><path fill="#f2f3f1" fill-opacity=".7" d="M84.6 38.8l11 1 43.2-4.2-3.4 43.9z"/><path fill="#001319" fill-opacity=".6" d="M175.8 35.7l8.8-49.4L221-3.2l-3.2 11.9z"/><path fill="#667a5d" d="M101.5 68.8L90.8 85.7l33.1-12.2-12.1-4.7z"/><path fill="#152532" fill-opacity=".6" d="M79 16h73v4H79z"/><circle cx="225" cy="159" r="59" fill="#091016" fill-opacity=".3"/><path fill="#000600" fill-opacity=".3" d="M171.6 92.2l-35.5 2-87.8-22.3 4.2 61.1z"/><ellipse cx="71" cy="9" fill="#010f1a" fill-opacity=".5" rx="52" ry="3"/><path fill="#888071" fill-opacity=".4" d="M223 25h19v89h-19z"/><path fill="#525757" d="M163.2 28.4L60.9 39.9l116.6-6 4.1-18.2z"/><path fill="#f8f0f3" fill-opacity=".2" d="M170.7 144.5L158.8 31.7l16.1 61.7-23.7 50z"/><path fill="#020b10" fill-opacity=".7" d="M14.5-27.3l15 213.5-44 3-15-213.4z"/><path fill="#fff" fill-opacity=".6" d="M141 36h27v15h-27z"/><path fill="#0b0d0d" fill-opacity=".7" d="M59 45h35v125H59z"/><path fill="#6ea08d" fill-opacity=".6" d="M166 71.7l-27.7 3.4-2.4-18.8 27.8-3.4z"/><circle r="1" fill="#303e4a" fill-opacity=".5" transform="matrix(-44.97885 3.47018 -.23364 -3.02829 130.5 17.6)"/><path fill="#e6d8dd" fill-opacity=".6" d="M134 110l3-12 23 7z"/><ellipse cx="193" cy="49" fill="#000404" fill-opacity=".6" rx="5" ry="24"/><path fill="#0b0200" fill-opacity=".4" d="M169 100h12v70h-12z"/><path fill="#9ca299" fill-opacity=".6" d="M87.1 76.4l29.3.2 32.5-8-5.7 31.9z"/><path fill="#b7bcb1" fill-opacity=".4" d="M39.9 22.5l1.5 16.8 3.6 63.8-5.4-60z"/><path fill="#000005" fill-opacity=".5" d="M156.3 158.9l-8.9 1.7-5.7-29.5 8.9-1.7z"/><path fill="#2e2703" fill-opacity=".2" d="M196.4 24l-46.1 79.8-21.1-11.1-3.6 24.8z"/><circle r="1" fill="#44403e" fill-opacity=".6" transform="matrix(7.0937 .18576 -.4782 18.26184 189.3 84.7)"/><path fill="#f8ffff" fill-opacity=".5" d="M198 22h15v33h-15z"/><path fill="#1b0c0d" fill-opacity=".7" d="M236.8 143.2l34.2-16.6-34.2-56.9 21.9-27.3z"/><path fill="#584d4e" fill-opacity=".5" d="M248 105l-25-27 4 74z"/><path fill="#5a5e5b" fill-opacity=".7" d="M249.3-16l-28.5 58-4.6-56.5-21-1.5z"/><ellipse cx="112" cy="24" fill="#cddbf1" fill-opacity=".2" rx="26" ry="4"/><path fill="#060c10" fill-opacity=".6" d="M66 64l-5-80-28 27z"/><path fill="#2e3b46" fill-opacity=".5" d="M119 2h38v7h-38z"/><path fill="#787d80" fill-opacity=".6" d="M154.5 172.6l-12-30.1-11 42.5-16.2-24.1z"/><ellipse cx="162" cy="9" fill="#fff" fill-opacity=".4" rx="18" ry="2"/><path fill="#fdffff" fill-opacity=".2" d="M141.2 9.8L75.4 18l-19.2-4.1 38.1-1.8z"/><path fill="#a99d88" fill-opacity=".3" d="M222.8 79.2l-5.6-65.7 6 12.1 22.5 26.2z"/><ellipse cx="108" cy="131" fill="#edf5ff" fill-opacity=".1" rx="7" ry="16"/><path fill="#090b0e" fill-opacity=".7" d="M118.2 175.4l-1.3-25.3-41.6-25.7 9.6 56.6z"/><path fill="#9a9090" fill-opacity=".5" d="M164.4 177.7l3.3-80.9 3.3 43.5-18.9 4.6z"/><path fill="#070015" fill-opacity=".3" d="M161.6 107.9l4.1 11.4-25.8 29.4 13.9-21.9z"/></g></svg>