<svg xmlns="http://www.w3.org/2000/svg" viewBox="0 0 300 199"><defs/><path fill="#584f37" d="M0 0h300v199H0z"/><g transform="translate(.6 .6) scale(1.17188)"><circle r="1" fill="#fdffff" fill-opacity=".8" transform="matrix(-28.76706 -101.84397 49.41323 -13.95736 219.8 61.4)"/><circle r="1" fill="#e8e4da" fill-opacity=".7" transform="matrix(24.94756 7.1076 -34.86336 122.36995 123.3 28.4)"/><circle r="1" fill="#140200" fill-opacity=".8" transform="matrix(-22.95601 8.25535 -11.37412 -31.62853 153 71.7)"/><ellipse cx="148" cy="154" fill="#010003" fill-opacity=".9" rx="52" ry="39"/><circle cx="114" cy="99" r="21" fill="#f3f2ee"/><circle r="1" fill="#e6e8de" fill-opacity=".8" transform="matrix(-36.84292 10.59652 -7.19223 -25.0066 159 12.6)"/><path fill="#ecf2f2" fill-opacity=".9" d="M271-16l-58.6 145-45.4-19.1L197.7 34z"/><circle r="1" fill="#1c0000" fill-opacity=".4" transform="matrix(17.7914 50.13644 -15.02732 5.33259 73 50.8)"/><circle r="1" fill="#e4dbbc" fill-opacity=".5" transform="matrix(-21.1313 5.74125 -7.14297 -26.29051 105.4 40.5)"/><circle r="1" fill="#1a0a08" fill-opacity=".6" transform="matrix(10.61571 -15.24206 24.93242 17.3648 215.2 169)"/><circle r="1" fill="#390f00" fill-opacity=".6" transform="matrix(11.97103 -.38075 2.93121 92.1585 23.6 160)"/><circle r="1" fill="#a7a8a1" fill-opacity=".6" transform="matrix(6.93136 53.53768 -10.21468 1.32246 87.4 146.3)"/><ellipse cx="201" cy="129" fill="#f2f6f4" fill-opacity=".8" rx="7" ry="19"/><ellipse cx="38" cy="94" fill="#a88f64" fill-opacity=".6" rx="10" ry="37"/><path fill="#1b1517" fill-opacity=".8" d="M193.7 129.4l-38.3-28.9-14.7-3.1-20.4 26.2z"/><circle r="1" fill="#0b0100" fill-opacity=".6" transform="rotate(-170.6 71.6 26.4) scale(12.29506 22.77865)"/><path fill="#fff" fill-opacity=".5" d="M106 43h21v64h-21z"/><path fill="#becccb" fill-opacity=".7" d="M224.8 137.1l68.2 37.8-7.8 14-68.2-37.8z"/><circle r="1" fill="#efebe3" transform="rotate(12 -509.2 557.1) scale(13.00906 12.28892)"/><ellipse cx="53" cy="6" fill="#2f2308" fill-opacity=".5" rx="32" ry="38"/><path fill="#c09e77" fill-opacity=".5" d="M47.5 164.4l13.7-47.5-19 21.9-1.6 22.7z"/><path fill="#1a0800" fill-opacity=".6" d="M82.5 76.6l14.6-12.2-16.7-15.8-35.7 74.9z"/><path fill="#eef2f4" fill-opacity=".5" d="M249.7 2.3l-81.6 116.6 9.8-40.7-17.3-44.9z"/><circle r="1" fill="#ac9b75" fill-opacity=".5" transform="matrix(22.15316 -50.07791 15.11844 6.688 109.6 5.7)"/><path fill="#371300" fill-opacity=".6" d="M-4.3 194l-4.2-48 46.8-4 4.2 47.8z"/><path fill="#e4d9c9" fill-opacity=".4" d="M89 72h9v89h-9z"/><path fill="#f1f2ee" fill-opacity=".7" d="M135.7 89.2l1.1 11.8-20.5 24.6-23.2-64.9z"/><path fill="#eff2ed" fill-opacity=".5" d="M130.2 17.1l37.5 10.3-35.2 19.2-27 34.2z"/><path fill="#251108" fill-opacity=".7" d="M174.4 99.5l-48.2-46.1 2 31.8 49.1 1.3z"/><path fill-opacity=".6" d="M97 177l48-73-46 33z"/><path fill="#eaedec" fill-opacity=".5" d="M166.8 97.8l-.9 21.5-.5-3.9 59.3-19.8z"/><circle r="1" fill="#25180f" fill-opacity=".9" transform="matrix(-4.50442 8.76858 -7.35748 -3.77953 159 50)"/><circle r="1" fill="#a48672" fill-opacity=".5" transform="matrix(7.71657 6.42572 -12.34304 14.82262 85.5 98.1)"/><path fill="#291913" fill-opacity=".7" d="M199.6 148l14.4-3.8 6.9 40.8-30.4-20.4z"/><circle r="1" fill="#381500" fill-opacity=".5" transform="matrix(12.63904 15.53247 -6.3393 5.1584 11.3 74.6)"/><path fill="#766c4a" fill-opacity=".5" d="M9.7 30.7L66.4 72 52.3 91.3-4.4 50z"/><ellipse cx="182" cy="134" fill="#111829" fill-opacity=".7" rx="12" ry="17"/><path fill="#d1ccaf" fill-opacity=".4" d="M86 32l15 52 29-83z"/><path fill="#110900" fill-opacity=".4" d="M210 157h31v13h-31z"/><ellipse cx="29" cy="98" fill="#441900" fill-opacity=".3" rx="61" ry="5"/><path fill="#240f04" fill-opacity=".7" d="M174.9 59.8l-2.7 35.3-32.1 23.2-6.5-64.8z"/><path fill="#dee5e2" fill-opacity=".8" d="M221 156.4l-22.4-30.8L219.8 57l51.2-7.7z"/><ellipse cx="6" cy="114" fill="#8c7d59" fill-opacity=".4" rx="4" ry="35"/><path fill="#bca77f" fill-opacity=".4" d="M35 139l-4-29 21-10z"/><circle r="1" fill="#c3c4b6" fill-opacity=".5" transform="matrix(3.36336 -24.87593 8.45987 1.14382 167.6 17.4)"/><path fill="#6a5432" fill-opacity=".3" d="M91.1-3.9L152.9-16 79.2 28.8l6.2 21.3z"/><path fill-opacity=".6" d="M91.3 55.8L94 66.4l-23.3 5.8L68 61.6z"/><circle r="1" fill="#000100" fill-opacity=".5" transform="matrix(5.78911 -5.2308 7.318 8.0991 134.8 64.7)"/><circle cx="117" cy="74" r="10" fill="#fff" fill-opacity=".5"/><path fill="#453d2b" fill-opacity=".4" d="M70 118h13v14H70z"/><circle r="1" fill="#4c472e" fill-opacity=".7" transform="matrix(-7.12311 -25.0316 29.11509 -8.28513 6.7 18.9)"/><circle r="1" fill="#5d4730" fill-opacity=".5" transform="matrix(-5.5692 4.34733 -20.05913 -25.69696 70.5 82.4)"/><path fill="#34180b" fill-opacity=".7" d="M30.5 160.6l-2.7-1.2 31.7-68 2.7 1.2z"/><path fill="#a18460" fill-opacity=".5" d="M66.6 115l-16 37.8-9.2-3.9 16-37.7z"/><path fill="#ebf0ef" fill-opacity=".7" d="M216 130l-23-3 12 19z"/><path fill="#f4f9f8" fill-opacity=".6" d="M188.7 78.2l-21-26.8 27.6-21.6 21 26.8z"/><path fill="#3d3427" fill-opacity=".5" d="M152.2 105.7l23.8 10.2-36.8-11 30.3 53.3z"/><path fill="#f3f9fc" fill-opacity=".6" d="M258.8 24.4l2.3 32.9-34 2.3-2.2-32.9z"/><path fill="#3c2819" fill-opacity=".8" d="M70 109l8.7-31.6L56 90.6l11.8 35.5z"/><path fill="#cec9b3" fill-opacity=".4" d="M101.7 97.7l-29.6 21-.7-20.5 32.6 31.7z"/><path fill="#d7dedc" fill-opacity=".7" d="M271 177l-51-38-2-81z"/><path fill="#faffff" fill-opacity=".5" d="M100.2 125.2l5.3 4.5-7.7 9.1-5.3-4.5z"/><path fill="#000001" fill-opacity=".5" d="M162 40l-33.1 29.8-3.3-13.2 4.6-9.2z"/><path fill="#f7faf8" fill-opacity=".4" d="M205.8 143.7L195-16l-18.1 78.4-.6 34.3z"/><ellipse cx="135" cy="169" fill-opacity=".6" rx="38" ry="37"/></g></svg>