<svg xmlns="http://www.w3.org/2000/svg" viewBox="0 0 300 199"><defs/><path fill="#86643e" d="M0 0h300v199H0z"/><g transform="translate(.6 .6) scale(1.17188)"><circle cx="169" cy="80" r="245" fill="#c5d3d5" fill-opacity=".6"/><circle r="1" fill="#6f3b0a" fill-opacity=".5" transform="matrix(-19.65845 -21.9097 45.12207 -40.48572 60.2 93.7)"/><circle cx="255" cy="31" r="98" fill="#bac4c3" fill-opacity=".7"/><path fill="#d7c6b4" d="M116.1 185l-56.7-61.6 4.4-27.9 19.8-7.1z"/><circle r="1" fill="#744b21" fill-opacity=".5" transform="matrix(43.01732 29.67566 -14.58295 21.13919 26.6 109)"/><circle r="1" fill="#efd2b7" fill-opacity=".5" transform="matrix(-1.31973 11.94912 -78.64307 -8.68583 116 158.7)"/><path fill="#3e1100" fill-opacity=".5" d="M67 49h24v34H67z"/><path fill="#594421" fill-opacity=".4" d="M216 121l-60 33 76-14z"/><ellipse cx="32" cy="46" fill="#b3c4c3" fill-opacity=".5" rx="29" ry="34"/><path fill="#97917e" fill-opacity=".7" d="M97 5h38v138H97z"/><circle r="1" fill="#cdd5da" fill-opacity=".5" transform="rotate(97.1 24.9 113.5) scale(17.63784 25.02681)"/><ellipse cx="63" cy="122" fill="#dcd5c3" fill-opacity=".7" rx="3" ry="127"/><circle r="1" fill="#c3cbcc" fill-opacity=".6" transform="matrix(-20.34987 4.40524 -27.39242 -126.53847 248 86)"/><circle r="1" fill="#5f2a01" fill-opacity=".5" transform="matrix(11.28454 -35.62113 9.84522 3.1189 47.4 106)"/><path fill="#3c0200" fill-opacity=".5" d="M129 59l14 2-15 27z"/><circle r="1" fill="#efe5d0" fill-opacity=".5" transform="matrix(47.52866 13.54536 -1.2789 4.48744 35.8 145.8)"/><ellipse cx="190" cy="94" fill="#a5a89f" fill-opacity=".8" rx="35" ry="41"/><circle r="1" fill="#98764d" fill-opacity=".5" transform="matrix(-7.55926 9.0729 -26.14855 -21.78615 23 163.4)"/><path fill="#948463" fill-opacity=".6" d="M17.8 135.4L-.5 125.2l24.7-44.6 18.3 10.2z"/><path fill="#726547" fill-opacity=".5" d="M167.9 127.6l5 25.5-16.8 3.3-5-25.5z"/><path fill="#894906" fill-opacity=".4" d="M94 113l14-14-15-45z"/><path fill="#edd7c4" fill-opacity=".6" d="M96.2 162.8L78.4 185l79-33.4-6.6-14.8z"/><path fill="#8c5c2a" fill-opacity=".6" d="M96 185l-9-25-14-1z"/><path fill="#eaebe7" fill-opacity=".4" d="M87.1 100.5l6.7-13.7-26.1 3.3 35.7 75.6z"/><ellipse cx="108" cy="22" fill="#838671" fill-opacity=".5" rx="43" ry="12"/><path fill="#faffff" fill-opacity=".5" d="M155 97l-1 27-10 6z"/><path fill="#1d383a" fill-opacity=".4" d="M11.6 9l2.7-4.2 16 10.1-2.6 4.3z"/><path fill="#673c0c" fill-opacity=".2" d="M149.5 173.5l51.8-8-46.7-.2-23.6-10.4z"/><path fill="#a3a598" fill-opacity=".7" d="M96 42.9l26.7-4.2L130 85l-26.7 4.2z"/><circle r="1" fill="#c0c3bc" fill-opacity=".6" transform="matrix(2.78044 -5.1086 25.54075 13.90101 223.7 159)"/><path fill="#645940" fill-opacity=".5" d="M220.8 119.5L226 146l-12.8 2.5L208 122z"/><path fill="#512003" fill-opacity=".5" d="M45 144l-23-16 17-22z"/><path fill="#ecddc4" fill-opacity=".5" d="M2.2 142.4l-6.5 11.4 26.1 2-4.6 8.1z"/><path fill="#bc6536" fill-opacity=".2" d="M67 101.3l25.4 52.5-27.6-3.5 2.9 4.6z"/><circle r="1" fill="#a7aa9e" fill-opacity=".6" transform="rotate(24 -26 382.3) scale(31.10741 22.76458)"/><path fill="#b2bab3" fill-opacity=".5" d="M44.3 84.7l-52-18 9.4-27.4 52 18z"/><circle r="1" fill="#af824a" fill-opacity=".5" transform="matrix(-5.44641 -2.0255 4.41933 -11.8832 47.4 109)"/><path fill="#361d00" fill-opacity=".3" d="M83 49.8L53.3 62.7l47.6 6.4-9.3-17.7z"/><path fill="#5b5338" fill-opacity=".5" d="M-25 88.1l5.3-21.3 44.7 11-5.3 21.4z"/><path fill="#af8e75" fill-opacity=".6" d="M91.5 145.3l45.8 2.8 8.9-47.5 7.6 7.8z"/><path fill="#e4d7c6" fill-opacity=".5" d="M79.2 184.5l58.4-19.8-23.1-26.9-13.6 4.9z"/><path fill="#001c00" fill-opacity=".1" d="M170.6 13.8l-31.3 10.9 5.5-33.2-15.1-7.5z"/><path fill="#c0b192" fill-opacity=".6" d="M0 99h33v4H0z"/><path fill="#9b9582" fill-opacity=".5" d="M224 95l-6 38 19 9z"/><path fill="#4e2709" fill-opacity=".5" d="M56 61h5v55h-5z"/><path fill="#c5c6b9" fill-opacity=".4" d="M106.8 10.2l11.7 18.4-18.3-12L62.8-16z"/><path fill="#e0ddd6" fill-opacity=".4" d="M111.2 105.7l29.3-11-18.3 7.6-7.6 28.1z"/><circle cx="29" cy="155" r="6" fill="#603c15" fill-opacity=".5"/><ellipse cx="10" cy="38" fill="#afb4ad" fill-opacity=".6" rx="72" ry="22"/><path fill="#8c8973" fill-opacity=".4" d="M141 79l24 10 51-29z"/><path fill="#f3f4ec" fill-opacity=".6" d="M189.4 33.1l-1.5 1.3L146.6-13l1.5-1.3z"/><path fill="#434734" fill-opacity=".3" d="M83.5 37.6l62.1-23.7-64.5 34.5 19-9.8z"/><path fill="#784218" fill-opacity=".4" d="M30.9 140.5l31.7-51.3-7.7 50.6 2.7 8.3z"/><path fill="#5a5e50" fill-opacity=".4" d="M191-42.3l1-.2 37 160.8-1 .2z"/><path fill="#bc843b" fill-opacity=".3" d="M98.7 72.5l-33.9 34.1L74 68.9l-6.8 3.6z"/><path fill="#280e00" fill-opacity=".3" d="M1.4 151.6l12.8 8.1-5.4 11.5 9.8 13.8z"/><path fill="#e4dac7" fill-opacity=".6" d="M40.3 153.8l-61.7-26.2 3.1-7.4 61.7 26.2z"/><circle r="1" fill="#0a221e" fill-opacity=".3" transform="rotate(32.1 5.1 101) scale(56.9318 1)"/><path fill="#ceb693" fill-opacity=".7" d="M61.3 185l39.4-5.8-32.9-19.1-43.7-16z"/><path fill="#aeb3b0" fill-opacity=".4" d="M230.2 58.1l21.5 62.2-67.3 3L162 84.5z"/><path fill="#9d9e90" fill-opacity=".7" d="M175.8 156.6l22.4-29.6-60.3 5.8 19.6-8.4z"/><circle cx="101" cy="102" r="12" fill="#807457" fill-opacity=".6"/><ellipse cx="168" cy="160" fill="#f1f1e3" fill-opacity=".4" rx="14" ry="5"/><circle r="1" fill="#807e66" fill-opacity=".5" transform="rotate(-53.6 35.6 -70.5) scale(4.28137 54.03874)"/><path fill="#b9b4a3" d="M187 184.3l25.7.7-30.7-24.1-46.3-142.6z"/></g></svg>