<svg xmlns="http://www.w3.org/2000/svg" viewBox="0 0 299 449"><defs/><path fill="#75513e" d="M0 0h299v449H0z"/><g transform="translate(.9 .9) scale(1.7539)"><circle cx="74" cy="241" r="61" fill="#e5f7fd" fill-opacity=".7"/><circle cx="92" r="107" fill="#051604" fill-opacity=".7"/><path fill="#e9d1c3" fill-opacity=".5" d="M30 142l112 44L94 33z"/><circle r="1" fill="#010e03" fill-opacity=".7" transform="matrix(8.14015 166.8173 -27.35147 1.33466 159.8 138.2)"/><circle r="1" fill="#000d00" fill-opacity=".7" transform="matrix(12.86142 -118.3914 27.0043 2.9336 5.5 146.7)"/><path fill="#f3e4da" fill-opacity=".5" d="M89.6 94.7l9.9 34.6-49 14-10-34.6z"/><path fill="#0c1605" fill-opacity=".9" d="M0 24h73v76H0z"/><circle r="1" fill="#070700" fill-opacity=".6" transform="matrix(34.0895 8.56278 -5.46636 21.76226 130.8 90)"/><path fill-opacity=".6" d="M118 166l-5-25-14 27z"/><circle r="1" fill="#181a0f" fill-opacity=".4" transform="rotate(-65.3 159.8 21.5) scale(28.50071 12.8959)"/><path fill="#beaf9f" fill-opacity=".5" d="M26 159l94 25-80 9z"/><ellipse cx="93" cy="52" fill="#ffccb7" fill-opacity=".5" rx="14" ry="8"/><circle cx="109" cy="126" r="20" fill="#e6e5d3" fill-opacity=".4"/><path fill="#282821" fill-opacity=".8" d="M110.3 179.5l2.5 3.1 73.2 42.3-28.5 46.1z"/><circle r="1" fill="#d3d8dd" fill-opacity=".6" transform="matrix(14.70305 -63.1826 21.6869 5.0467 33.4 249)"/><path fill="#a7b1af" fill-opacity=".7" d="M151 263l-32-67-11 62z"/><path fill="#1c1e15" fill-opacity=".8" d="M-5 168l10 80 34-70z"/><circle r="1" fill="#0d1706" fill-opacity=".8" transform="matrix(20.04572 8.21373 -29.78328 72.68646 22.8 103.6)"/><path fill="#c9ac99" fill-opacity=".6" d="M33.7 159.5l.6-28.6L23 172l30.1 3.4z"/><circle r="1" fill="#ce9c79" fill-opacity=".6" transform="matrix(-9.2357 1.60507 -4.79841 -27.61041 128.3 162.6)"/><path fill="#010200" fill-opacity=".4" d="M51.5 153l25.8 3.2-2.8 22.8-25.8-3.2z"/><ellipse cx="112" cy="17" fill="#101a07" fill-opacity=".8" rx="67" ry="28"/><ellipse cx="112" cy="148" fill="#190b00" fill-opacity=".5" rx="4" ry="21"/><path fill="#93472d" fill-opacity=".5" d="M79.1 77.2l3.4 32.1 27-32.8-1.6-30.8z"/><path fill="#101106" fill-opacity=".8" d="M132 130.3L111.7 84l74.3 44-47.4 21.6z"/><path fill="#d0e1dc" fill-opacity=".4" d="M103 107v67l-17-16z"/><path fill="#e2b29b" fill-opacity=".6" d="M100.6 72.5L98.3 78 73.4 67.5l2.3-5.5z"/><path fill="#e8e0d2" fill-opacity=".5" d="M38 127l7-22 40-12z"/><path fill="#001d0d" fill-opacity=".6" d="M48 152l-18 1 15 10z"/><path fill="#d4d6d5" fill-opacity=".5" d="M74 174l-23 97 63-82z"/><path fill="#ced2d3" fill-opacity=".6" d="M10.9 241.1l30.5-58.3 76.4 12.8L5 265.1z"/><path fill="#201f0d" fill-opacity=".7" d="M74.1 78.5l-2.5-42.2-10.7 66.3 16.6-8.1z"/><path fill="#926e5b" fill-opacity=".5" d="M62.2 119.2l-39 39.2 56.4-13.1-51.1-7.7z"/><path fill="#9e7154" fill-opacity=".6" d="M138.9 189.7l-43.9-25-9.2 1.3 19.7 22.6z"/><path fill="#57301e" fill-opacity=".5" d="M65 186l26-37-43 29z"/><path fill="#232a07" fill-opacity=".7" d="M65.5 123l1.3-3.9 5.7 2-1.3 3.8z"/><circle r="1" fill="#cba78e" fill-opacity=".6" transform="rotate(-7.9 1057.4 -815.8) scale(8.77092 23.91071)"/><path fill="#110e00" fill-opacity=".2" d="M170 114L80 98l48-67z"/><path fill="#121109" fill-opacity=".7" d="M17.3 199.4l26.2-17.7L-16 161l47.9-27z"/><path fill="#a28578" d="M76.8 128.3l-28.5 23.2-19.4-5.8 39.3 7.2z"/><path fill="#d39c85" fill-opacity=".5" d="M76 65h6v41h-6z"/><path fill="#e8e0ef" fill-opacity=".4" d="M99.4 118.8l-46 24.1-9.3-9.5 46.1-15.3z"/><path fill="#272100" fill-opacity=".3" d="M125.4 169.7l-17.9.3-1.6-2 2.5-36.9z"/><path fill="#042214" fill-opacity=".4" d="M-13.6 136.3l98.2 34.6 1-12.8-37.3-6.1z"/><path fill="#19250f" d="M25.7 123l25.4-21.3 14.5-3.6-81.6-5.2z"/><path fill="#b67858" fill-opacity=".4" d="M73 66l12 51 19-9z"/><path fill="#e9c8ae" fill-opacity=".5" d="M48 174l-23-8 2-10z"/><path fill="#3f4933" fill-opacity=".4" d="M21.2 218.2L-2 270.3l-19.2-8.5L2 209.7z"/><path fill="#81816a" fill-opacity=".5" d="M180.2 116.4L174 95.6l-15 7.6 21.3.9z"/><path fill="#85918a" fill-opacity=".7" d="M131 214.6l5.7 17.3 7.2 23.8-36.1-73.2z"/><path fill="#213f1b" fill-opacity=".5" d="M16 41l67-54-99 27z"/><path fill="#efc4a3" fill-opacity=".5" d="M40.9 154l-1.3-4.9 11.5-3 1.3 4.8z"/><path fill="#413232" fill-opacity=".5" d="M109 52V33H82z"/><path fill="#0c2e03" fill-opacity=".5" d="M91 139l-18-4-2 7z"/><path fill="#cccfce" fill-opacity=".6" d="M26.2 205.5l12.1-19.8 8.7-5.3 64.5 21.3z"/><path fill="#634433" fill-opacity=".8" d="M90.2 58.9l18.9 33.9-3.8-44.1-1.7 14.4z"/><path fill="#aca29c" fill-opacity=".4" d="M85 144h22v16H85z"/><path fill="#324325" fill-opacity=".5" d="M24.5 124.7l5.3-12.5 12.1 29.1-23.1-19.7z"/><path fill="#9b6b50" fill-opacity=".3" d="M74.2 190.1l-55.6-17.4 66.3-3.7-4.8-1.1z"/><path fill="#d6dad5" fill-opacity=".7" d="M100.7 125.8l6.9 8.7-13.1 5.1-11.9-18.3z"/><path fill="#59362d" fill-opacity=".6" d="M76 52l9 6-6 4z"/><circle cx="165" cy="42" r="54" fill="#101b08" fill-opacity=".6"/><path fill="#715139" fill-opacity=".6" d="M76 169.5l36.7 21.4 25.3 1.4-9.5-5.3z"/><ellipse cx="151" cy="205" fill="#23221a" fill-opacity=".8" rx="24" ry="20"/><circle r="1" fill="#d2cdc1" fill-opacity=".5" transform="matrix(1.5443 -8.38952 11.32116 2.08395 58 109.8)"/></g></svg>