<svg xmlns="http://www.w3.org/2000/svg" viewBox="0 0 300 199"><defs/><path fill="#544133" d="M0 0h300v199H0z"/><g transform="translate(.6 .6) scale(1.17188)"><circle cx="50" cy="103" r="109" fill="#bbc6cc" fill-opacity=".5"/><circle r="1" fill="#1c0000" fill-opacity=".7" transform="matrix(11.44788 -88.14377 13.91658 1.80745 87.5 85.2)"/><circle r="1" fill="#fffbf9" fill-opacity=".6" transform="matrix(-26.30756 6.92275 -13.77886 -52.36189 125 148.2)"/><path fill-opacity=".8" d="M271 155l-99 30-44-108z"/><circle r="1" fill="#d8eefb" fill-opacity=".7" transform="matrix(-15.89384 -1.78743 20.31752 -180.6637 49.5 126)"/><ellipse cx="2" cy="155" fill="#020706" fill-opacity=".7" rx="20" ry="33"/><ellipse cx="160" cy="52" fill="#0f0a05" fill-opacity=".5" rx="90" ry="15"/><path fill="#b7bcc0" fill-opacity=".9" d="M41 17.6l62.4 2.2L98.6-16 54.1-7.2z"/><path fill="#c49288" fill-opacity=".6" d="M181.9 98l-22-1.1 2.2-43 22 1.2z"/><path fill="#00090a" fill-opacity=".5" d="M234-16l37 63-114 17z"/><path fill="#edf4ef" fill-opacity=".6" d="M125 52h51v6h-51z"/><circle r="1" fill="#44311e" fill-opacity=".6" transform="matrix(-6.55456 24.29229 -31.34888 -8.45858 4.7 7.8)"/><circle r="1" fill="#a58f9d" fill-opacity=".5" transform="matrix(-13.9969 -1.88774 4.66067 -34.55708 248 89.3)"/><path fill="#ffffda" fill-opacity=".5" d="M105 25h46v11h-46z"/><ellipse cx="208" cy="90" fill="#161511" fill-opacity=".6" rx="26" ry="164"/><circle r="1" fill="#321502" fill-opacity=".6" transform="matrix(13.78403 -29.31542 17.1601 8.06863 91.5 66.2)"/><path fill="#0a0200" fill-opacity=".6" d="M140 50l14 63-21-14z"/><circle r="1" fill="#070403" fill-opacity=".7" transform="rotate(-18.9 562.5 -691.8) scale(61.76328 25.54907)"/><ellipse cx="119" cy="79" fill="#da976d" fill-opacity=".4" rx="17" ry="22"/><ellipse cx="47" cy="149" fill="#c4dff1" fill-opacity=".5" rx="24" ry="47"/><path fill="#2a1000" fill-opacity=".5" d="M70 61h21v109H70z"/><path fill="#b5c29a" fill-opacity=".5" d="M161 18h18v22h-18z"/><path fill="#070401" fill-opacity=".6" d="M114 33l72 37-25-30z"/><path fill="#c0dfeb" fill-opacity=".5" d="M20.4 32.7l9.8 38-20.5-1L7 36.3z"/><ellipse cx="37" cy="68" fill="#8c8f87" fill-opacity=".6" rx="11" ry="44"/><path fill="#38271c" fill-opacity=".8" d="M78 23.1l-2.1 36.1 59.6-9.6-49.4-23.9z"/><path fill="#e2d9d9" fill-opacity=".5" d="M95 109h50v61H95z"/><ellipse cx="4" cy="61" fill="#131409" fill-opacity=".5" rx="3" ry="38"/><path fill="#0a1215" fill-opacity=".8" d="M-16 162.1l44.1-9.1-33.7-28.6 30.5.4z"/><path fill="#ddf3f9" fill-opacity=".5" d="M112.4 110.9l22.9-51.4-14 91.3-28.9 28.3z"/><path fill="#c79087" fill-opacity=".6" d="M231 60h25v19h-25z"/><path fill="#e0b7a5" fill-opacity=".6" d="M160.3 170l-27.1 10.9-12.8-44.1 20.4-32.7z"/><path fill="#130c09" fill-opacity=".5" d="M239 125.3l-12.6-46.1 39.2 12.7-146 7z"/><path fill="#120f0b" fill-opacity=".7" d="M156.5 33.7l.1 127.8-10.8-50.3 9.1-40.1z"/><path fill="#fff" fill-opacity=".5" d="M127 53h26v6h-26z"/><ellipse cx="149" cy="80" fill="#ffffe7" fill-opacity=".7" rx="2" ry="14"/><circle cx="147" cy="32" r="6" fill="#eee9c6" fill-opacity=".7"/><path fill="#ffc3b2" fill-opacity=".3" d="M186.8 83.9l-19 17.5-9.6-36.6 5.1-13.9z"/><path fill="#d3e5ef" fill-opacity=".5" d="M45.1 166.8l-18.4-4.6 32.2-129 18.4 4.6z"/><path fill-opacity=".6" d="M158 36v-52l-8 25z"/><path fill-opacity=".5" d="M113 88l-3 9 10 3z"/><ellipse cx="13" cy="169" fill="#ffe8d8" fill-opacity=".2" rx="18" ry="12"/><path fill="#cff" fill-opacity=".4" d="M246 110l-12-8 8 21z"/><path fill="#8fa1aa" d="M15.8 139.6l11.5 14.2 8.8-44.1L25 121.6z"/><path fill="#63684e" fill-opacity=".7" d="M113 0h35v25h-35z"/><circle r="1" fill="#3f4839" fill-opacity=".4" transform="matrix(-27.0458 -31.40374 17.84666 -15.37005 188.7 9.5)"/><path fill="#3a352c" fill-opacity=".6" d="M20.5 118.7l-2-4.5 19-8.9 2 4.5z"/><path fill="#5b5d48" fill-opacity=".4" d="M206 55h19v37h-19z"/><path fill="#6b513e" fill-opacity=".7" d="M27 12h6v60h-6z"/><ellipse cx="151" cy="44" fill-opacity=".6" rx="37" ry="6"/><path fill="#35291e" fill-opacity=".9" d="M169.7 56.8l20.2-5.8 54.4 101.7-78.6-100.1z"/><path fill="#fffbd5" fill-opacity=".5" d="M179 40l-10-3 4-12z"/><path fill="#352312" fill-opacity=".5" d="M157.3 72.4l26.5 4.6-53.7 5.8 2.7 22.9z"/><path fill="#332016" fill-opacity=".6" d="M158.9 60.5l-28 4.5-7.6-19.2-56.8 11.8z"/><circle r="1" fill-opacity=".6" transform="matrix(18.09951 -23.42736 15.59871 12.05126 176.3 121.5)"/><path fill="#f9c5c1" fill-opacity=".5" d="M178.3 83.9l-17-10.5 4.6 2.1-11.8 8.5z"/><path fill="#040200" fill-opacity=".7" d="M206.6 86.7L193.5-16l-5 33.8 9.1 23z"/><path fill="#0d1008" fill-opacity=".5" d="M139.5 19.5l6 84.8-3 .2-6-84.8z"/><path fill="#c8bfb8" d="M120.5 25.9L103.4 22l9 17.6 5.2-.9z"/><circle r="1" fill="#ceada1" fill-opacity=".5" transform="matrix(3.39734 1.0434 -8.44555 27.4989 97.3 121.3)"/><ellipse cx="62" cy="138" fill="#b2c5d2" fill-opacity=".5" rx="9" ry="35"/><circle r="1" fill="#bcc1c5" fill-opacity=".9" transform="rotate(-42.5 54.6 -82.7) scale(13.05028 14.22789)"/><path fill="#94becd" fill-opacity=".5" d="M24 81h12v29H24z"/><path fill="#2f251c" fill-opacity=".5" d="M75 28h33v9H75z"/><path fill="#fffff8" fill-opacity=".8" d="M149.9 73.3l-.7-6 5-.6.6 6z"/></g></svg>