<svg xmlns="http://www.w3.org/2000/svg" viewBox="0 0 300 199"><defs/><path fill="#2e3146" d="M0 0h300v199H0z"/><g transform="translate(.6 .6) scale(1.17188)"><circle r="1" fill="#d8d6d4" fill-opacity=".7" transform="matrix(22.14991 -55.87657 237.05405 93.9701 131 10.3)"/><circle r="1" fill="#eee9ec" fill-opacity=".6" transform="rotate(-95.7 108.4 33.3) scale(76.45415 21.26393)"/><circle r="1" fill="#e5eefe" fill-opacity=".6" transform="rotate(91.9 -49.1 55.2) scale(30.18903 41.31018)"/><circle r="1" fill="#fdebd5" fill-opacity=".6" transform="rotate(-109.2 164.4 -30.8) scale(49.72297 27.10398)"/><circle r="1" fill="#15101d" fill-opacity=".7" transform="rotate(-174.6 100.6 36.2) scale(21.43141 38.04746)"/><circle r="1" fill="#1d1917" fill-opacity=".7" transform="matrix(26.08793 14.40131 -8.66549 15.6975 112.5 66.7)"/><ellipse cx="76" cy="8" fill="#e2f2ff" fill-opacity=".4" rx="183" ry="44"/><path fill="#512017" fill-opacity=".5" d="M153 6h18v155h-18z"/><circle r="1" fill="#636920" fill-opacity=".6" transform="matrix(-9.74633 22.26686 -14.79491 -6.47581 247.2 45.4)"/><path fill="#a5a0a5" fill-opacity=".6" d="M52 103l72 82L89 55z"/><circle r="1" fill="#090603" fill-opacity=".6" transform="matrix(-17.90946 -15.17524 22.51017 -26.56598 38.7 152)"/><ellipse cx="55" cy="28" fill="#161f29" fill-opacity=".7" rx="3" ry="111"/><ellipse cx="231" cy="157" fill="#616873" fill-opacity=".6" rx="34" ry="27"/><path fill-opacity=".4" d="M74 89.1L-16 58l164.4-7.7L72.1 39z"/><ellipse cx="173" cy="148" fill="#050d18" fill-opacity=".6" rx="24" ry="48"/><path fill="#a6acbd" fill-opacity=".8" d="M40.1 103.9l19.8 16.3-65.8 10.2L32 77.8z"/><ellipse cx="15" cy="46" fill="#bbc8dd" fill-opacity=".8" rx="61" ry="4"/><path fill="#4a3633" fill-opacity=".5" d="M83 81h110v23H83z"/><circle r="1" fill="#cce1fe" fill-opacity=".6" transform="matrix(-43.54726 9.03206 -7.0848 -34.15867 213.2 3.3)"/><path fill="#6e6f6e" fill-opacity=".6" d="M121 131l26 45 11-105z"/><path fill="#3b3649" fill-opacity=".5" d="M177 38h34v59h-34z"/><path fill="#a5a8b6" fill-opacity=".8" d="M18.2 134.2l-20 22.3-16.4-14.7 20-22.3z"/><path fill="#0e0e13" fill-opacity=".9" d="M42.3 103l-17-51.6 41.2 3L76.4 74z"/><circle r="1" fill="#dfcec0" fill-opacity=".8" transform="matrix(35.46343 17.30798 -9.60564 19.6816 252 111)"/><circle r="1" fill="#d5e6ff" fill-opacity=".6" transform="matrix(44.22268 -8.4278 5.15138 27.03052 109.4 0)"/><ellipse cx="85" cy="167" fill="#b7c2d9" fill-opacity=".5" rx="25" ry="44"/><path fill="#363b33" fill-opacity=".6" d="M2.6 20.6l13-5.3 9.8 24.1-13 5.3z"/><path fill="#e4e2e2" fill-opacity=".6" d="M114.8 30.6L133 15l28.2 32.5L143 63z"/><ellipse cx="116" cy="90" fill="#07090a" fill-opacity=".5" rx="18" ry="40"/><circle cx="114" cy="99" r="6" fill="#ffc5c4" fill-opacity=".5"/><path fill="#976e6f" fill-opacity=".6" d="M145.1 67.7l55.7-27.4-40.4 64.4 24-12.3z"/><path fill="#f8ecef" fill-opacity=".4" d="M77.1 45.5l19.8 30.8-39.6 32.1L84.1 61z"/><path fill="#b68978" fill-opacity=".8" d="M142.2 18.4l4.4 21.6 27.1 9.2-22.4-43.4z"/><path fill="#2f2c39" fill-opacity=".8" d="M221.8 88.3l-14.3 19.9-34.3-23.3 32.2-49z"/><path fill="#f0f7f6" fill-opacity=".4" d="M207 26l13 53 13-53z"/><path fill="#ffeddf" fill-opacity=".5" d="M164 57l18 15-24-2z"/><path fill="#5e6060" d="M121.4 45.8l8.2 19.8 10.1 14.9-4.6-26.4z"/><path fill="#dbe6fb" fill-opacity=".6" d="M35-16L-6 1l60 39z"/><path fill="#b6c3dc" fill-opacity=".5" d="M-4.7 67.3l35.2 21.1-9.8 16.3-35.2-21.1z"/><circle r="1" fill="#071b2f" fill-opacity=".5" transform="rotate(-97.1 28.4 -20.5) scale(41.04054 1.7383)"/><path fill="#c1c0ca" fill-opacity=".6" d="M184 88.2l-.1 10.2-5.6 2.1-.6-11.7z"/><circle r="1" fill="#940400" fill-opacity=".4" transform="matrix(-.31883 -8.24768 14.0359 -.54258 168.5 83)"/><path fill="#5f6775" fill-opacity=".7" d="M214.2 103.3l18.8 22.8 33.1 58.9h-32.7z"/><path fill="#512412" fill-opacity=".4" d="M156.5 14.9l17.1 22.5-1.4-26.1-9.6-2.7z"/><circle r="1" fill="#190204" fill-opacity=".5" transform="rotate(-101.8 160.8 -22.3) scale(32.59262 4.05792)"/><path fill="#0f0d11" fill-opacity=".8" d="M-4.1 160.3l9.3 20.2 62.2-52.3-41 1.6z"/><path fill="#c3d0db" fill-opacity=".6" d="M81.3 35l31.2 12.6-50.9-8.7-7.5-44.3z"/><path fill="#8e96a2" fill-opacity=".4" d="M161.4 185L57.9 145.4l121.2 35-7-29.5z"/><path fill="#0e0011" fill-opacity=".4" d="M149 61l12-10-3 22z"/><path fill="#b9d5f7" fill-opacity=".3" d="M61.1 122.6l8.1-3.8 9-39.1-23.6 11.7z"/><path fill="#ffe3ca" fill-opacity=".4" d="M264.6 164.9l-8.2 3.8-11-23.6 8.2-3.8z"/><path fill="#846358" fill-opacity=".4" d="M61.2 137.4l29.6-38.7 13-32.1-3.4-22.1z"/><path fill="#f0d3d3" fill-opacity=".5" d="M170.2 58.1l-7.4-3 9-21.2 7.4 3z"/><path fill="#13151f" fill-opacity=".8" d="M107.3 92.6l28 7.5 21.8-11.3-60.7-18.7z"/><circle r="1" fill="#a1adbc" fill-opacity=".7" transform="rotate(-93.6 26.7 23) scale(1 16.54458)"/><path fill="#333f2a" fill-opacity=".5" d="M15 34h29v10H15z"/><path fill="#d0c5c3" fill-opacity=".4" d="M74.8 61.6l20.9 12.3-27.3 24.7 1 29.4z"/><path fill="#0c1a2a" fill-opacity=".5" d="M14 51h23v29H14z"/><path fill="#0f0e10" fill-opacity=".6" d="M118 155l10-54-23 4z"/><path fill="#9d9f9e" fill-opacity=".5" d="M149 120l2-44 6 20z"/><path fill="#e4d7c5" fill-opacity=".6" d="M135.1 36.7l5.3 35.6 3 6.9 12.1-29.1z"/><path fill="#34231e" fill-opacity=".5" d="M89 63l-4-24 23 17z"/><path fill="#050303" fill-opacity=".5" d="M35.2 88.6l20.9 29.3-3-39.4L45.5 54z"/><path fill="#69736d" fill-opacity=".6" d="M110 44l3-17-6-6z"/><path fill="#9dacc0" fill-opacity=".7" d="M26 38.7l34.5 2.1 28.4 10.9-25.2-3.4z"/></g></svg>