<svg xmlns="http://www.w3.org/2000/svg" viewBox="0 0 300 199"><defs/><path fill="#493d31" d="M0 0h300v199H0z"/><g transform="translate(.6 .6) scale(1.17188)"><circle r="1" fill="#c9bdbe" fill-opacity=".6" transform="rotate(170.5 73.5 12.1) scale(124.32358 73.79293)"/><path fill="#dbdaed" fill-opacity=".6" d="M-13 168l139 15-47-51z"/><circle r="1" fill="#f6f6f2" fill-opacity=".8" transform="matrix(6.02146 22.78096 -53.28495 14.08428 194.3 0)"/><circle r="1" fill="#6a6362" fill-opacity=".8" transform="matrix(55.81574 -46.37449 20.87432 25.12406 188.3 66.7)"/><circle r="1" fill="#a17371" fill-opacity=".8" transform="matrix(9.69403 -3.79905 47.85668 122.11585 2.7 81)"/><path fill="#c0b5c2" fill-opacity=".7" d="M206 56.7l13.5 11.8-35.4 40.8-13.6-11.8z"/><path fill="#f3feff" fill-opacity=".4" d="M201.1 116.9l18.4-7.9 9.4 22.1-18.4 7.9z"/><circle r="1" fill="#101c30" fill-opacity=".6" transform="matrix(20.09813 -5.9152 25.5379 86.77037 251 124.4)"/><circle r="1" fill="#eebfaa" fill-opacity=".6" transform="matrix(29.38209 4.16446 -.52396 3.69676 40.7 115)"/><path fill="#595b54" fill-opacity=".7" d="M91 164L125 7l37 161z"/><path fill="#424230" d="M247.9 168.4L96.3 101.6l-63.5 67 6.6-42.5z"/><ellipse cx="39" fill="#c1b7c4" fill-opacity=".5" rx="99" ry="9"/><path fill="#041704" fill-opacity=".4" d="M78.8 28l1.8 16.1 35.6 1.9 24.6-13.6z"/><circle r="1" fill="#e7efff" fill-opacity=".4" transform="matrix(-23.1164 32.89132 -17.86438 -12.5553 63 169)"/><circle r="1" fill="#5c5455" fill-opacity=".9" transform="matrix(7.0949 -22.77263 13.43282 4.18505 39.7 69)"/><path fill="#e9e7ff" fill-opacity=".5" d="M168 118l19-28-11 34z"/><path fill="#343228" fill-opacity=".6" d="M187 79l-35-12 1 66z"/><circle r="1" fill="#505441" fill-opacity=".6" transform="matrix(10.54596 11.4661 -9.86682 9.07502 169.8 37)"/><ellipse cx="123" cy="58" fill="#eac4c4" fill-opacity=".3" rx="64" ry="9"/><path fill="#d4c8c3" fill-opacity=".8" d="M53.8 53.4l-12-62.1 17.8 31.4-3.7 32z"/><path fill="#24303c" fill-opacity=".7" d="M-16 24.5v-6.8L37.9 4.5l2.6 17.8z"/><path fill="#000921" fill-opacity=".6" d="M201.5 113.9L271 78.7l-87.2 27.9-14.5 33.6z"/><path fill="#ffe1d4" fill-opacity=".5" d="M102 146l9.9 1.2L108 178l-10-1.2z"/><path fill="#515047" fill-opacity=".5" d="M271 3l-33 83-50-55z"/><path fill="#fcfcf8" fill-opacity=".6" d="M151.3 36.5L172.9.1l-30-8.9-.8 37.1z"/><path fill="#c69081" fill-opacity=".6" d="M19.3 84.1l18.5-25.8-17.5 42.4-36.3-39z"/><path fill="#a3727b" fill-opacity=".5" d="M44 177L13 78l-5 77z"/><ellipse cx="56" cy="85" fill="#920d08" fill-opacity=".5" rx="8" ry="31"/><path fill="#d4bbd9" fill-opacity=".4" d="M245.9 76.1l-1.2-3.9-3.8-6.4-20.3 20.9z"/><circle r="1" fill="#233620" fill-opacity=".6" transform="matrix(-39.04223 -18.42154 11.76646 -24.9376 205.2 160.6)"/><path fill="#dfd3ce" fill-opacity=".5" d="M-9-11.6l77.3 2.2 8 42.7 22.6-17.7z"/><path fill="#e2e6c9" fill-opacity=".4" d="M176.8 31.6l-1.5-4.8 99.9-32.4 1.5 4.8z"/><path fill="#1e0508" fill-opacity=".6" d="M21 85l3-23-40-18z"/><ellipse cx="32" cy="93" fill="#000006" fill-opacity=".5" rx="7" ry="17"/><circle r="1" fill="#404f9c" fill-opacity=".5" transform="matrix(-21.28412 -22.06802 14.36278 -13.85258 142.6 170)"/><path fill="#9ca2bf" fill-opacity=".5" d="M200 132l-14-13-1 15z"/><path fill="#00154b" fill-opacity=".5" d="M198.6 80.2l4.4-2.3 23.7 15.6-13.3 5.9z"/><path fill="#d7c1bd" fill-opacity=".7" d="M217 70l-3 14-32-25z"/><path fill="#3a1403" fill-opacity=".2" d="M163.6 93l36.3-35.8-5.7-43.9 21.8 3.4z"/><circle r="1" fill="#000020" fill-opacity=".6" transform="matrix(-9.38434 1.82413 -7.67016 -39.45958 248.9 119)"/><path fill="#10171a" fill-opacity=".5" d="M55 12.9l18.8 2.3-.7 6-18.9-2.4z"/><path fill="#000007" fill-opacity=".5" d="M67 82h14v34H67z"/><ellipse cy="136" fill="#000009" fill-opacity=".6" rx="8" ry="27"/><path fill="#677033" fill-opacity=".5" d="M216 103l23 57-1-57z"/><path fill="#1d3101" fill-opacity=".6" d="M93 148h5v22h-5z"/><path fill="#887981" fill-opacity=".5" d="M98 82h56v13H98z"/><circle r="1" fill="#67413a" fill-opacity=".7" transform="matrix(8.36296 11.85525 -24.67967 17.4096 4.3 49.3)"/><path fill="#301c1e" fill-opacity=".6" d="M35.5 13l16.8 63-3.8 1-16.8-62.8z"/><path fill="#4c5a30" fill-opacity=".5" d="M142 48l9 26 4-31z"/><path fill="#ebb7b0" fill-opacity=".4" d="M68.8 81.3L54.5 65.9l22.7-21.2 14.3 15.4z"/><circle r="1" fill="#4a312f" fill-opacity=".5" transform="matrix(13.1663 -18.44238 3.93805 2.81144 126.7 72.3)"/><path fill="#5e343a" fill-opacity=".5" d="M52 185l-39-30 13-7z"/><ellipse cx="110" cy="9" fill="#b38887" fill-opacity=".5" rx="33" ry="17"/><path fill="#bab2bf" fill-opacity=".6" d="M144 74.8l4.7-2.3-7.5-19.4-7.5 24.7z"/><path fill="#00000b" fill-opacity=".5" d="M40 159v-26l-12-14z"/><path fill="#39bfd5" fill-opacity=".4" d="M35 75l15 7-9-27z"/><path fill="#6a0404" fill-opacity=".6" d="M190 51.9l11.7-2.5L204 60l-11.7 2.5z"/><path fill="#504c3f" d="M112.9 87.4l5-2.4-6.7 62.8 48.7-35.3z"/><path fill="#e7edff" fill-opacity=".3" d="M206.3 95.7l-7.9 4.4-8.7-15.8 7.9-4.4z"/><path fill="#f6d2b6" fill-opacity=".4" d="M-16.1 105.4l.8-4 71.4 15.2-.8 4z"/><path fill="#cac4ca" fill-opacity=".7" d="M22.1 185l-10.8-30.3-27.3 24.6v-6.6z"/><path fill="#9d6e65" fill-opacity=".6" d="M49.7 76.1l8.9-50.2 44.4 31-40-4.8z"/><path fill="#1c230d" fill-opacity=".5" d="M234 0h21v2h-21z"/><path fill="#f2d8cd" fill-opacity=".5" d="M34.8 21.7l-5.5 2.1 5.1 30.3 2.9.5z"/><path fill="#142017" fill-opacity=".5" d="M229 80l-18-30h33z"/></g></svg>