<svg xmlns="http://www.w3.org/2000/svg" viewBox="0 0 300 199"><defs/><path fill="#373d54" d="M0 0h300v199H0z"/><g transform="translate(.6 .6) scale(1.17188)"><circle r="1" fill="#dfd2c5" fill-opacity=".6" transform="rotate(-95.2 42.5 -26.6) scale(90.32585 159.44596)"/><circle r="1" fill="#85baeb" fill-opacity=".8" transform="matrix(18.3261 12.4544 -12.70627 18.6967 184.1 84.8)"/><ellipse cx="207" cy="46" fill="#332419" fill-opacity=".5" rx="72" ry="16"/><circle r="1" fill="#f6edde" fill-opacity=".4" transform="rotate(-132.8 88.4 60.7) scale(25.74514 22.26681)"/><path fill="#fff" fill-opacity=".5" d="M65.5 50.4l-5.7 15-93.3-35.8 5.7-15z"/><circle r="1" fill="#180b04" fill-opacity=".6" transform="matrix(50.1184 -7.93798 3.21482 20.29757 124 118.5)"/><circle r="1" fill="#aba6ab" fill-opacity=".8" transform="matrix(-11.36543 4.3955 -5.43443 -14.0518 19.2 106.6)"/><path fill="#fbfdf2" fill-opacity=".6" d="M271-4l-22 30-8-42z"/><circle r="1" fill="#1b0f00" fill-opacity=".5" transform="matrix(9.70775 61.29232 -10.13243 1.60482 244.3 91.3)"/><path fill="#82b5e6" fill-opacity=".5" d="M235.8 117.8l4.5 13.8L146 62.9l24.9 1.9z"/><path fill="#39342c" fill-opacity=".6" d="M72 34h10v44H72z"/><circle r="1" fill="#c2c5c6" fill-opacity=".4" transform="rotate(-177.9 81.7 3.6) scale(32.17986 31.14061)"/><circle r="1" fill="#0d0b07" fill-opacity=".5" transform="matrix(22.38136 7.44529 -4.70518 14.14429 205.7 128)"/><path fill="#c6bdaf" fill-opacity=".5" d="M34 126h14v19H34z"/><path fill="#7c6462" fill-opacity=".6" d="M113 117l8-65 39-10z"/><path fill="#dbdbd0" fill-opacity=".6" d="M141.8 45.4L85 23.4 87.4-16l8.9 35z"/><path fill="#eae4dc" fill-opacity=".5" d="M39 63h19v27H39z"/><path fill="#76a0c9" fill-opacity=".4" d="M172 135l-2-60 44-1z"/><circle r="1" fill="#3d3e44" fill-opacity=".5" transform="matrix(10.00457 15.28859 -26.3905 17.26946 213.6 41)"/><path fill="#232a36" fill-opacity=".8" d="M192.9 80.5l20.2 20.3 14.4-13.5-20-3.1z"/><path fill="#0e0808" fill-opacity=".6" d="M31 103h25v24H31z"/><path fill="#130000" fill-opacity=".5" d="M36 88l-5-18-9 9z"/><path fill="#5d5146" fill-opacity=".6" d="M65.3 71.3l13.5 26.6-19 87.1H34.1z"/><circle r="1" fill="#222023" fill-opacity=".5" transform="rotate(-70.7 166.7 17) scale(17.88572 5.86237)"/><path fill="#aaaab2" fill-opacity=".8" d="M87 134.6l3.1 6.9 5.1 4.2L77 185z"/><path fill="#201615" fill-opacity=".5" d="M185 162l-43-76-50 44z"/><ellipse cx="94" cy="59" fill="#faf3e2" fill-opacity=".4" rx="12" ry="8"/><path fill="#ffdba2" fill-opacity=".5" d="M253 68h3v30h-3z"/><circle r="1" fill="#8f7a5a" fill-opacity=".5" transform="matrix(3.74908 37.91658 -4.1989 .41518 227 73.5)"/><path fill="#dce1ef" fill-opacity=".5" d="M78 77h13v24H78z"/><circle r="1" fill="#7c7779" transform="matrix(7.295 -7.0584 9.22956 9.53892 0 101.6)"/><path fill="#826b4b" fill-opacity=".5" d="M55 70L30 54l43 9z"/><path fill="#b09d76" fill-opacity=".2" d="M123.1 183.2l-12.6-23.9 42.4-22.5 12.6 23.9z"/><path fill="#272c48" fill-opacity=".3" d="M179 34.4l-38.1 9.4 57.2-26.5 7.3 3.8z"/><path fill="#d3cabb" fill-opacity=".3" d="M30.4 163.3L4.7 73.7l49.5.4L18.3 55z"/><circle cx="208" cy="61" r="13" fill="#161310" fill-opacity=".5"/><path fill="#fefbf3" fill-opacity=".5" d="M131.8 20l28.1-5.2-18.6-6.3-13.4-.8z"/><circle cx="177" cy="48" r="7" fill="#eea690" fill-opacity=".5"/><path fill="#fffff8" fill-opacity=".5" d="M117 32h37v5h-37z"/><path fill="#776451" fill-opacity=".6" d="M101 46L68 26 51 46z"/><circle r="1" fill="#8d8bba" fill-opacity=".4" transform="rotate(92 109 105.8) scale(24.89386 21.44011)"/><circle r="1" fill="#fffff3" fill-opacity=".5" transform="rotate(-115.8 95.6 -42.7) scale(1.93848 19.10286)"/><circle r="1" fill="#141112" fill-opacity=".5" transform="matrix(-10.28232 17.0452 -8.67247 -5.23157 83 118.6)"/><path fill="#411824" fill-opacity=".6" d="M39 125l-55 29v-47z"/><ellipse cx="14" cy="2" fill="#d9f3ff" fill-opacity=".1" rx="33" ry="49"/><circle cx="179" cy="78" r="20" fill="#7fb0e1" fill-opacity=".6"/><path fill="#665f58" fill-opacity=".7" d="M199.9-16L123.7 3.6l-13.5 7-34.1-22z"/><ellipse cx="149" cy="97" fill="#140204" fill-opacity=".5" rx="16" ry="9"/><ellipse cx="205" cy="166" fill="#51483d" fill-opacity=".5" rx="40" ry="33"/><path fill-opacity=".4" d="M142 36h13v11h-13z"/><path fill="#c0c6c3" fill-opacity=".4" d="M62 63L49 45l64 6z"/><path fill="#474a5e" fill-opacity=".7" d="M181 123.9l17.6-20.8-42.1 4.6 25.7 8.8z"/><path fill="#272326" fill-opacity=".6" d="M73.7 153.8l22.6-22 7.7 15.8-70.2-29.1z"/><circle r="1" fill="#23639d" fill-opacity=".5" transform="rotate(55.2 -11.3 298.3) scale(18.71495 6.09404)"/><ellipse cx="36" cy="161" fill="#535051" fill-opacity=".6" rx="45" ry="19"/><path fill="#827d7f" fill-opacity=".7" d="M186.2-16l-42.8 43.9-35.5-15.8 36.2 9.1z"/><path fill="#faf9f5" fill-opacity=".2" d="M58.9 120.4l-8.5-61.1 9.5 50 17.7 7.1z"/><path fill="#968675" fill-opacity=".5" d="M88 68l32 46-2-57z"/><circle r="1" fill="#695a46" fill-opacity=".6" transform="matrix(3.69914 .9221 -6.35895 25.50998 0 82)"/><path fill="#84afdb" fill-opacity=".8" d="M205.8 83.3l10-3.4-.9-4.6-19.3.4z"/><path fill="#abacb5" fill-opacity=".9" d="M11.8 113.5l4.4-38.7 16 16.9.5 17.5z"/><path fill="#b2a6b4" fill-opacity=".5" d="M133 95l1-18-28 7z"/><path fill="#9ea0aa" fill-opacity=".6" d="M98 185l41-18-30-16z"/><path fill="#684430" fill-opacity=".5" d="M124.8 65.9l31.1-8.4-.9-6.5-56.1 18.6z"/><path fill="#999fa4" fill-opacity=".4" d="M56.1 138.4L28.9 147l-4.7-14.9L13 142z"/></g></svg>