<svg xmlns="http://www.w3.org/2000/svg" viewBox="0 0 300 199"><defs/><path fill="#344652" d="M0 0h300v199H0z"/><g transform="translate(.6 .6) scale(1.17188)"><circle r="1" fill="#e6ecf8" fill-opacity=".7" transform="rotate(149.4 111.6 87.8) scale(61.61194 247.89869)"/><circle cx="15" cy="67" r="119" fill="#cfcace" fill-opacity=".5"/><path fill-opacity=".7" d="M198 152l-33-92-147 57z"/><ellipse cx="38" cy="158" fill="#fff" fill-opacity=".8" rx="65" ry="20"/><circle r="1" fill="#f9faff" fill-opacity=".5" transform="matrix(-47.18934 80.43443 -20.61714 -12.09568 207 156)"/><circle r="1" fill-opacity=".9" transform="matrix(25.34681 71.98455 -24.94761 8.78442 134 149.4)"/><circle r="1" fill="#979ca4" fill-opacity=".8" transform="matrix(-11.03885 33.0361 -152.33358 -50.90152 105.7 17.4)"/><path fill-opacity=".6" d="M73.2 104.6l9.2 26.5-41.6 14.3-9.2-26.5z"/><path fill="#d4e1ee" fill-opacity=".8" d="M97.3 118.4l9.5 34L34.2 185l94.6-100.2z"/><path fill="#fdf8ff" fill-opacity=".7" d="M-16 126l56 54L7 80z"/><ellipse cx="24" cy="86" fill="#09212c" fill-opacity=".6" rx="12" ry="30"/><path fill-opacity=".4" d="M219 148l-73-94-52 25z"/><ellipse cx="232" cy="104" fill="#e8f7ff" fill-opacity=".7" rx="50" ry="28"/><path fill="#c5d0da" d="M99.1 78.9l-23.5 24.2-.4-23 7 2.8z"/><path fill="#fff" fill-opacity=".5" d="M53 113l-19-8 2 13z"/><path fill="#d2e0f3" fill-opacity=".7" d="M271 165.5L172.7 185l.2-39.4 20.4 9z"/><path fill="#160902" fill-opacity=".6" d="M142.8 52.7l-11.4-25.5 25.5 18.5L133 98z"/><path fill-opacity=".7" d="M199 157.9l-21.5-10.6 3.5-7.2 21.5 10.6z"/><path fill="#d9e9f9" fill-opacity=".6" d="M190.9 79.3l75.3-3-13.1 96.6-98-108.9z"/><circle r="1" fill-opacity=".5" transform="matrix(11.08161 9.234 -21.5649 25.8798 101 98.6)"/><ellipse cx="119" cy="1" fill="#a9b7c2" fill-opacity=".6" rx="119" ry="27"/><circle r="1" fill="#788591" fill-opacity=".4" transform="matrix(-13.71137 -30.02909 87.73532 -40.0602 249.7 26.2)"/><ellipse cx="128" cy="161" fill-opacity=".8" rx="28" ry="26"/><circle r="1" fill-opacity=".5" transform="rotate(158.9 16.4 71.2) scale(22.68596 9.50933)"/><circle r="1" fill="#eaf3fd" fill-opacity=".7" transform="matrix(8.36939 29.75887 -21.26108 5.97947 78.8 167.5)"/><path fill="#c09c94" fill-opacity=".7" d="M139.2 66.3l.1-16.6-16-23-37.4 44z"/><circle r="1" fill="#c2a9b7" fill-opacity=".9" transform="matrix(4.24437 -8.89991 17.60182 8.39431 217.9 147.9)"/><path fill="#273d45" fill-opacity=".5" d="M44 80h16v32H44z"/><path fill="#424852" fill-opacity=".6" d="M201.2 83.5L138.1-16l36.3 48.8 13.4 38z"/><path fill-opacity=".5" d="M140 59.7l42.9 59.1 24.8 7.5-92.9 46.7z"/><path fill="#b4c0cc" fill-opacity=".7" d="M78.1 25.7l-3.6-40.1-8.6 28.2-3.7 95.6z"/><circle r="1" fill="#e2fbff" fill-opacity=".6" transform="rotate(.2 -27057 10023.6) scale(4.45038 7.3288)"/><path fill="#da939b" fill-opacity=".5" d="M34 118l1 19-47 1z"/><path fill="#000a0d" fill-opacity=".4" d="M231 49l6 30-11-13z"/><path fill="#d4dce8" fill-opacity=".5" d="M271 32l-65 4 3-17z"/><path fill="#283f4e" fill-opacity=".6" d="M59.4 127.4l22-50.4-3.8-7.2-7.9 4.9z"/><circle r="1" fill="#040709" fill-opacity=".7" transform="matrix(-16.93029 .2886 -.24994 -14.66254 112.4 85.4)"/><path fill="#e4f0fd" fill-opacity=".6" d="M102 121l-2 64H-16z"/><path fill="#001f29" fill-opacity=".3" d="M25.9 118.1l-9.4-69.2-23.9 32.3 48.5 10.7z"/><path fill="#f0f9ff" fill-opacity=".6" d="M16.3 16.3L39.2-16 35.3 9.2 11.9.8z"/><path fill="#ecf3fc" fill-opacity=".7" d="M221.9 121l3.3-55.1-17 12.3-29.2 9.6z"/><path fill="#cdedff" fill-opacity=".2" d="M24 86.3L-2.4-15.6l62.2 133.5-35.2-52.8z"/><ellipse cx="149" fill="#363a41" fill-opacity=".6" rx="2" ry="68"/><path fill="#af7e71" d="M116 44.9l21.2-8.3-7.7 35.1-6.3 2.3z"/><ellipse cx="195" cy="5" fill="#f1faff" fill-opacity=".7" rx="6" ry="12"/><path fill="#415967" fill-opacity=".4" d="M97-5L80-9l-3 63z"/><path fill="#a8bcca" fill-opacity=".5" d="M92.7 76.4l33.7-11.8-20.7-16.7-27.5 12.8z"/><path fill="#50636f" fill-opacity=".6" d="M40 9h7v71h-7z"/><path fill="#4a5c68" fill-opacity=".5" d="M248 39h8v34h-8z"/><path fill="#c2d5e7" fill-opacity=".6" d="M176 79l-22-25-1 11z"/><path fill="#e1ecfa" fill-opacity=".7" d="M208.4 154l29.6 30.7 20-16.4-70-13.3z"/><path fill="#161d27" fill-opacity=".6" d="M197 79.8L154.1 8.7l.9-.5 42.7 71.1z"/><path fill="#a2b1c6" fill-opacity=".6" d="M236.9 177.7l-55.7-91 37.6-28.6L170.6 83z"/><path fill="#010203" fill-opacity=".6" d="M105 155l99-26-100-57z"/><circle r="1" fill="#c7d4dc" fill-opacity=".4" transform="matrix(3.71967 -.62656 4.17834 24.80546 39 73)"/><path fill="#eaeffe" fill-opacity=".2" d="M198.7 75.9L172 36.1l-4.2-39.6 19.6 28z"/><path fill="#f6f9fd" fill-opacity=".9" d="M24.4 136.5L-16 153.2l61.7 7.8-12-24.3z"/><path fill="#eefdff" fill-opacity=".8" d="M61.6 99l-1-.1L62.4 81l1 .1z"/><path fill="#e2e9f0" fill-opacity=".4" d="M101-13l5 34 33 7z"/><path fill="#000509" fill-opacity=".7" d="M37 117h40v19H37z"/><path fill="#e2f2ff" fill-opacity=".4" d="M106.5 67.8L82 83.4l-1.2-12.7-8.3 39.3z"/><path fill="#adc4de" fill-opacity=".4" d="M188.8 109.9l77.9 9.4-64.8 9.7-24.9-18.2z"/><path fill="#12242e" fill-opacity=".5" d="M28 105l-2-53 14 44z"/><circle r="1" fill="#000103" fill-opacity=".5" transform="rotate(-167.5 88.9 47.1) scale(16.71013 25.24032)"/><path fill="#fff" fill-opacity=".5" d="M236 65h7v10h-7z"/></g></svg>