<svg xmlns="http://www.w3.org/2000/svg" viewBox="0 0 300 199"><defs/><path fill="#4d372c" d="M0 0h300v199H0z"/><g transform="translate(.6 .6) scale(1.17188)"><ellipse cx="181" cy="158" fill="#f6e8d9" fill-opacity=".8" rx="50" ry="96"/><circle r="1" fill="#cde5dd" fill-opacity=".7" transform="matrix(17.29627 5.64116 -9.6098 29.46443 246.2 29)"/><circle r="1" fill="#cca183" fill-opacity=".7" transform="matrix(26.3347 40.86647 -17.96715 11.57819 138 34.8)"/><circle r="1" fill="#01070e" fill-opacity=".7" transform="matrix(-53.0864 51.62427 -72.49484 -74.54808 0 66.4)"/><circle r="1" fill="#000407" fill-opacity=".6" transform="matrix(-16.09256 -5.36665 8.86661 -26.5876 134.1 98.4)"/><circle r="1" fill="#e2e0db" transform="matrix(21.11333 -17.65024 17.8238 21.32094 153.9 146)"/><path fill="#9e7d65" fill-opacity=".7" d="M246.5 205.3l-16.7 3.3-32.3-166 16.7-3.2z"/><path fill="#d09e8f" fill-opacity=".7" d="M167.5 185l-66.1-34.5-16.2-.4.9 34.9z"/><path fill="#f5d2cc" fill-opacity=".5" d="M103.9 94.5l-9.7 2.6-18-67.6 9.6-2.6z"/><circle r="1" fill="#937659" fill-opacity=".8" transform="matrix(-65.53199 -20.53648 3.61959 -11.55012 193.2 61.6)"/><circle r="1" fill="#080700" fill-opacity=".6" transform="matrix(5.74307 30.12979 -34.57686 6.59072 200.2 9.9)"/><circle r="1" fill="#fff" fill-opacity=".4" transform="matrix(-8.25532 -12.76078 39.32175 -25.43838 181.7 102)"/><circle r="1" fill="#000803" fill-opacity=".6" transform="matrix(-8.83422 12.15926 -34.1331 -24.79915 78.8 2.4)"/><path fill="#fdceb4" fill-opacity=".5" d="M95 116h20v15H95z"/><circle r="1" fill="#cfad93" fill-opacity=".6" transform="rotate(-106.2 71.5 -36.3) scale(40.71516 12.8431)"/><ellipse cx="70" cy="110" fill="#0a1a3f" fill-opacity=".7" rx="26" ry="37"/><path fill="#aca095" fill-opacity=".6" d="M43 158.6l7.4-9.4L89 179.4l-7.4 9.4z"/><circle r="1" fill="#0b0400" fill-opacity=".7" transform="matrix(3.9005 -13.08399 44.30386 13.20755 28 169)"/><path fill="#4f1603" fill-opacity=".3" d="M161.1 73L140 40.2l-10.7-9.9L146.5-16z"/><circle r="1" fill="#9a6144" fill-opacity=".4" transform="matrix(-7.18224 46.64586 -17.11504 -2.63527 223.5 156.4)"/><path fill="#1c1c1d" fill-opacity=".4" d="M99 63h51v46H99z"/><path fill="#b2bdb5" fill-opacity=".8" d="M242-16l7.7 76.6L271 46.2l-45.2 13.5z"/><path fill="#000b01" fill-opacity=".5" d="M217 72l-4-55 21 54z"/><path fill="#6e6159" fill-opacity=".7" d="M120.3 97.6l-4.5 33.8-11.4-47.8-.1-16.4z"/><path fill="#c6e9e6" fill-opacity=".6" d="M205 38h8v20h-8z"/><path fill="#00000a" fill-opacity=".7" d="M78.9 133.1l33 1.8-.8 14-33-1.8z"/><path fill="#c3a793" fill-opacity=".6" d="M85 25.5L74.6 36.8l17 46.3.3-53.3z"/><ellipse cx="33" cy="13" fill="#1d190e" fill-opacity=".6" rx="47" ry="71"/><ellipse cx="77" cy="150" fill="#d48682" fill-opacity=".6" rx="12" ry="4"/><path fill="#e8d5ca" fill-opacity=".7" d="M110 35.8l15.8-24.3 4.2 2.7-15.8 24.3z"/><circle r="1" fill="#b4946e" fill-opacity=".6" transform="matrix(5.02298 7.5841 -19.18842 12.70859 169.1 71.6)"/><path fill="#bf8d66" fill-opacity=".5" d="M183 123l4 31-16-14z"/><path fill="#2b1f16" fill-opacity=".9" d="M138.7-16h10.9l57.5 58.7-11.7 9.7z"/><path fill="#634e39" d="M271 72.9l-61.4-.2L115.7-16 204 58.6z"/><ellipse cx="133" cy="95" fill="#141313" fill-opacity=".7" rx="16" ry="26"/><ellipse cx="181" cy="109" fill="#ece2d8" fill-opacity=".4" rx="34" ry="23"/><circle r="1" fill="#0f0701" fill-opacity=".6" transform="matrix(10.56 -24.72845 35.66447 15.2301 14.1 86.5)"/><path fill="#270006" fill-opacity=".5" d="M100 70l-5 48 15-7z"/><path fill="#ffa679" fill-opacity=".2" d="M177.7 41.8l26.4 23.5-17.7 17.4L153.7 18z"/><path fill="#33251e" fill-opacity=".4" d="M161.4 88.2l-69.7-9.7 3.1-8.8-6.2-26.1z"/><path fill="#d6f4f5" fill-opacity=".5" d="M215 59l-12-1-5-12z"/><path fill="#383326" fill-opacity=".5" d="M50.1 42.4l56-6.1-25.9 8.3L70.4-16z"/><path fill="#d2ebff" fill-opacity=".4" d="M86.9 78.8L84.8 62l-.4-2 13 10.8z"/><ellipse cx="52" cy="107" fill="#243c6f" fill-opacity=".5" rx="4" ry="32"/><ellipse cx="211" cy="134" fill="#c7a082" fill-opacity=".4" rx="10" ry="55"/><path fill="#1b1912" fill-opacity=".5" d="M247 108h9v62h-9z"/><path fill="#fffff7" fill-opacity=".3" d="M53.5 156.4l-5.7-5.7-7 8.6 7.3.8z"/><path fill="#464667" fill-opacity=".5" d="M113.6 182.4l-34.8-26.7-27.7-1.7 35.1 19.8z"/><ellipse cx="255" cy="2" fill="#8c9c92" fill-opacity=".7" rx="20" ry="17"/><path fill="#efe9de" fill-opacity=".5" d="M107-1.6l15-1.8 1 9-14.8 1.8z"/><path fill="#886046" fill-opacity=".4" d="M250 61.7l-23 13.2 13.7 85.1-30.5-75.4z"/><path fill="#cad3ce" fill-opacity=".5" d="M229 42h27v16h-27z"/><path fill="#1b3970" fill-opacity=".5" d="M58 124h38v11H58z"/><path fill="#5a3a2d" fill-opacity=".7" d="M141.6 32.7L136.9.6l69.6 66.7-46.3-62.9z"/><ellipse cx="91" cy="16" fill="#1f1c15" fill-opacity=".4" rx="30" ry="9"/><path fill="#311905" fill-opacity=".4" d="M52 95l-12 75-45-50z"/><path fill="#000205" fill-opacity=".3" d="M105 52.6l11.6 40.2 24.1 1.5L94.4-1.2z"/><circle r="1" fill="#eff3f3" fill-opacity=".5" transform="matrix(20.83447 -3.30807 2.25365 14.19365 146 139.9)"/><path fill="#dfbeaa" fill-opacity=".4" d="M116.8 29l6.4 26.5 9.6-7.3-22.3-41.9z"/><path fill="#dfc8ba" fill-opacity=".4" d="M96 130l-2-11 25-9z"/><path fill="#935a3c" fill-opacity=".6" d="M135.2 19L181 64.7l-6 11.7 6.8 6.2z"/><path fill="#000400" fill-opacity=".5" d="M215 32h10v27h-10z"/><path fill="#804936" fill-opacity=".5" d="M91 26h9v41h-9z"/><path fill="#e2ded8" fill-opacity=".4" d="M171.5 64.1l-8.3 15.7-24.6 44.6 42.7 54.8z"/><path fill="#a59e9d" fill-opacity=".5" d="M251 153h5v7h-5z"/></g></svg>