<svg xmlns="http://www.w3.org/2000/svg" viewBox="0 0 300 199"><defs/><path fill="#674139" d="M0 0h300v199H0z"/><g transform="translate(.6 .6) scale(1.17188)"><circle r="1" fill="#d9d1bf" fill-opacity=".6" transform="matrix(-10.44188 66.24848 -162.33706 -25.58705 101.9 61.8)"/><circle cx="126" cy="13" r="50" fill="#d8c6b8" fill-opacity=".8"/><circle r="1" fill-opacity=".6" transform="matrix(4.79586 48.50278 -8.20475 .81127 69.7 36.3)"/><circle r="1" fill="#180502" fill-opacity=".5" transform="matrix(22.42807 -32.39025 13.26558 9.18552 183.4 41.2)"/><circle r="1" fill="#04274d" fill-opacity=".5" transform="matrix(20.35913 33.22307 -124.30078 76.17162 228.1 139.5)"/><circle r="1" fill="#96b4ee" fill-opacity=".5" transform="matrix(8.43402 60.12337 -9.92517 1.39229 224.3 134)"/><circle cx="41" cy="87" r="30" fill="#e0ecff" fill-opacity=".5"/><circle r="1" fill="#6c5850" transform="matrix(-6.237 -47.1452 58.48657 -7.73739 58.3 160.3)"/><path fill="#c8cacf" fill-opacity=".6" d="M270 14l-24 65-55 18z"/><circle r="1" fill="#b58a6d" fill-opacity=".7" transform="matrix(5.83684 -21.4275 50.06481 13.63763 130.5 120.4)"/><path fill="#deb389" fill-opacity=".6" d="M240.4 20l5.6-4.7L107.9-16l151.7 8.5z"/><circle r="1" fill="#170304" fill-opacity=".4" transform="matrix(5.1193 -14.31631 30.76029 10.99942 207.5 27.5)"/><path fill-opacity=".5" d="M122 147h90v23h-90z"/><path fill="#fad8aa" fill-opacity=".8" d="M20-28.6l-3 84-19-.8 3-84z"/><path fill="#000816" fill-opacity=".6" d="M84 133l-66-9 66-18z"/><path fill="#2a1f17" fill-opacity=".6" d="M56.7 92.6L36.5 4.2l12.4 2.6 3.3 43.3z"/><path fill="#010000" fill-opacity=".5" d="M194 184l22-61-24-24z"/><path fill="#cfbfb5" fill-opacity=".6" d="M9 41h38v75H9z"/><path fill="#362920" fill-opacity=".9" d="M71.7-15.5l-17-.5L74 82.2l11.9 44.9z"/><circle r="1" fill="#dac4b3" fill-opacity=".5" transform="matrix(1.31981 -3.83607 31.66017 10.89276 182.2 40.6)"/><path fill="#ffffae" fill-opacity=".5" d="M51 10h11v32H51z"/><path fill="#cdb9a9" fill-opacity=".5" d="M122.8 14.1l7.3 83.7-46.9 4L76 18.3z"/><circle r="1" fill="#cdd5e6" fill-opacity=".6" transform="matrix(18.8091 15.82368 -12.69434 15.08935 54.2 92.3)"/><circle r="1" fill="#000005" fill-opacity=".5" transform="matrix(-10.13097 -46.84301 3.83196 -.82876 183 24)"/><path fill="#1d0500" fill-opacity=".5" d="M73-3L16 15h30z"/><path fill="#050501" fill-opacity=".8" d="M266 185l-30-86 35 29z"/><circle r="1" fill="#85695e" fill-opacity=".7" transform="matrix(2.86613 -16.2819 77.84355 13.70294 34.6 151.1)"/><circle r="1" fill="#c28f66" fill-opacity=".5" transform="rotate(-104.7 111.9 -14.5) scale(21.15165 67.66406)"/><path fill="#171619" fill-opacity=".7" d="M239.3 15.3l26.7 36 5-12.7-55.7-1.4z"/><path fill="#3a1900" fill-opacity=".5" d="M16.7 13l4.9-1.1 7.7 31-4.9 1.2z"/><circle r="1" fill="#1a0900" fill-opacity=".5" transform="matrix(10.71954 .76695 -.6924 9.67746 167.1 55)"/><path fill="#986754" fill-opacity=".7" d="M233.5 39.8L209 36.2l-25.3-22 33.5 49.9z"/><circle r="1" fill="#dac7b9" fill-opacity=".5" transform="matrix(-28.15732 2.16659 -.86259 -11.21036 151.7 35)"/><circle r="1" fill="#ffe2b3" fill-opacity=".5" transform="rotate(79.6 10.4 12.5) scale(12.94119 31.942)"/><path fill="#fdffff" fill-opacity=".6" d="M208 0l-27-16 11 20z"/><path fill="#71727b" fill-opacity=".8" d="M261.2 60.6l-6.8-6.4 7.5 38.1-50.9 16z"/><path fill="#ffcf6b" fill-opacity=".5" d="M220 11h9v10h-9z"/><circle r="1" fill="#cbc2b6" fill-opacity=".7" transform="matrix(-19.74065 8.23193 -2.82068 -6.76414 246.3 46.6)"/><path fill="#874530" fill-opacity=".5" d="M173.7 88l-18.1-18.8L178.1 57l20.8 59z"/><path fill="#ffdae8" fill-opacity=".4" d="M179 83l-13 9 9 36z"/><circle r="1" fill="#caa376" fill-opacity=".5" transform="matrix(13.69859 4.29288 -9.10587 29.05686 9.2 63.8)"/><path fill="#6d4344" fill-opacity=".5" d="M214 70l-2.6 5.4L180 60l2.6-5.4z"/><path fill="#b5bddb" fill-opacity=".4" d="M232 113l-51-49 44 76z"/><path fill="#c8bcbd" fill-opacity=".5" d="M242.5 100.2l-54.1-56.9 29.6.7-20.5-5.9z"/><circle cx="137" cy="159" r="17" fill="#090b17" fill-opacity=".6"/><path fill="#ddd8d9" fill-opacity=".5" d="M34 21L22 57l40 54z"/><ellipse cx="183" cy="7" fill="#040008" fill-opacity=".5" rx="7" ry="32"/><ellipse cx="69" cy="48" fill="#120800" fill-opacity=".5" rx="6" ry="28"/><path fill="#1e222e" fill-opacity=".6" d="M28 134.4l59.3-8.8-43.3-10-32.4 3.1z"/><circle r="1" fill="#f6ca89" fill-opacity=".5" transform="matrix(-5.58837 .58853 -2.6036 -24.72223 57.5 41.3)"/><ellipse cx="141" cy="70" fill="#d4b28e" fill-opacity=".5" rx="18" ry="19"/><path fill="#ba9371" fill-opacity=".3" d="M189 152L89 131l28-74z"/><path fill="#3b2302" fill-opacity=".3" d="M271 122l-49-17 17-21z"/><circle r="1" fill="#cda074" fill-opacity=".5" transform="matrix(-2.7581 .7479 -17.26023 -63.65264 178.6 40.9)"/><path fill="#fff" fill-opacity=".5" d="M236 6h15v3h-15z"/><ellipse cx="216" cy="161" fill="#394e84" fill-opacity=".8" rx="4" ry="31"/><path fill="#d3dbcd" fill-opacity=".5" d="M193 27h9v6h-9z"/><path fill="#8b7057" fill-opacity=".5" d="M14.3 120.3L.4 151.8l17.1-88.3-22.6 34.7z"/><path fill="#ffe9be" fill-opacity=".6" d="M62 22.5l-13 1-1-14 13-1z"/><path fill="#893d1e" fill-opacity=".5" d="M210 5l2 23 14-27z"/><path fill="#a7a3af" fill-opacity=".6" d="M8 107h50v9H8z"/><path fill="#030000" fill-opacity=".5" d="M49 34h3v31h-3z"/><path fill="#0a101d" fill-opacity=".7" d="M259.2 16.2l-12.7 2.5-1.7-8.9 12.7-2.5z"/><path fill="#b1b7c4" fill-opacity=".7" d="M232.2 69.7l5.8 30.2-7.1-9-33 9.2z"/><path fill="#0b0a05" fill-opacity=".6" d="M169 56l11 15-2-20z"/></g></svg>