<svg xmlns="http://www.w3.org/2000/svg" viewBox="0 0 299 449"><defs/><path fill="#58612d" d="M0 0h299v449H0z"/><g transform="translate(.9 .9) scale(1.7539)"><circle r="1" fill="#f9d4b8" fill-opacity=".5" transform="rotate(103.4 31 50.2) scale(170 79.21837)"/><circle r="1" transform="matrix(3.89895 35.61459 -168.99034 18.50041 108.2 223.4)"/><path fill="#dac186" fill-opacity=".8" d="M0 126h139v60H0z"/><path fill="#310100" fill-opacity=".5" d="M186 32l-30 205-25-204z"/><circle r="1" fill="#f4f9fb" fill-opacity=".7" transform="rotate(-176.7 54.4 8) scale(82.60549 11.78988)"/><circle r="1" fill="#794902" fill-opacity=".5" transform="matrix(-8.06897 -42.96886 23.98165 -4.50343 6.8 115.6)"/><ellipse cx="38" cy="37" fill="#433a29" rx="83" ry="6"/><circle r="1" fill="#02280f" fill-opacity=".5" transform="matrix(-1.1774 10.61748 -31.14089 -3.45329 91.2 79)"/><ellipse cx="128" cy="107" fill="#e8dcb4" fill-opacity=".8" rx="12" ry="36"/><ellipse cx="9" cy="184" fill="#dbc07f" fill-opacity=".7" rx="96" ry="11"/><circle cx="42" cy="86" r="13" fill="#eefeff" fill-opacity=".7"/><path fill="#f4edd0" fill-opacity=".5" d="M107 79L93 42l-71-1z"/><path fill="#290a00" fill-opacity=".8" d="M37.3-5.3L14 19.6-1.3 5.3 22-19.6z"/><circle r="1" fill="#f6f1f2" fill-opacity=".6" transform="matrix(-18.82494 -10.0094 4.73337 -8.90218 47.5 124.8)"/><circle r="1" fill="#4e3700" fill-opacity=".4" transform="matrix(-9.51136 -6.47393 19.7446 -29.00836 99.1 96.3)"/><circle r="1" fill-opacity=".8" transform="matrix(-4.64997 -20.79401 87.58275 -19.5853 148.2 199.2)"/><circle r="1" fill="#876227" fill-opacity=".5" transform="matrix(-38.27305 -12.3098 5.4019 -16.79534 150.5 55)"/><path fill="#552d00" fill-opacity=".5" d="M51 89h17v29H51z"/><ellipse cx="149" cy="142" fill="#010000" fill-opacity=".6" rx="9" ry="60"/><path fill="#060000" fill-opacity=".7" d="M-16 52l67-18-41-1z"/><ellipse cx="107" cy="160" fill="#dfce97" fill-opacity=".6" rx="35" ry="25"/><path fill="#bca89b" fill-opacity=".8" d="M55 0h96v13H55z"/><ellipse cy="24" fill="#d8a04e" fill-opacity=".7" rx="33" ry="11"/><path fill="#fcf6eb" fill-opacity=".6" d="M68.1 112.9l1.2-24.6 16.4 3.2-15.9 25.9z"/><path fill="#7b9aaf" fill-opacity=".5" d="M82 35l67 46-24-38z"/><ellipse cx="47" cy="242" fill="#010000" fill-opacity=".9" rx="136" ry="47"/><path fill="#a28a46" fill-opacity=".4" d="M126 148l-51-42 48-27z"/><path fill="#484940" fill-opacity=".6" d="M79.7 32.3l46.6 20.8-2 4.6-46.6-20.8z"/><path fill="#ae8c42" fill-opacity=".7" d="M3 102l39-37-53-20z"/><path fill="#684006" fill-opacity=".4" d="M60.3 103.7L8.5 99.9l-17.8 27.3-6.7 7.4z"/><path fill="#0f0801" fill-opacity=".6" d="M29 31h45v9H29z"/><path fill="#edffff" fill-opacity=".7" d="M132.9 57.2l16 26.6-1.8 1-16-26.6z"/><path fill="#060000" fill-opacity=".5" d="M76 105h9v17h-9z"/><ellipse cx="116" cy="18" fill="#f3ffff" fill-opacity=".9" rx="70" ry="5"/><circle r="1" fill="#332a1c" fill-opacity=".6" transform="matrix(-18.03838 -29.7849 3.58097 -2.16871 143.2 85.5)"/><path fill="#d18f36" fill-opacity=".4" d="M168.2 69.4l-18.6-22.2 22.2-18.6 18.6 22.2z"/><path fill="#f5f1d6" fill-opacity=".5" d="M115.7 50.8l24.9 32.4 2.1 18.6-8.2 18.9z"/><path fill="#41311b" d="M134.4 57.4l48.8 77-43.4-79.7-21.9-15.9z"/><path fill="#061200" fill-opacity=".5" d="M124.1 77.6l-15.4 10.1L61 90.4l44.6-13.2z"/><path fill="#ffffd9" fill-opacity=".2" d="M-16 51L96.9 36.2 56.5 74.5l1.7-15.7z"/><ellipse cx="7" cy="141" fill="#9c7842" fill-opacity=".7" rx="36" ry="10"/><path fill="#7f9678" d="M80.7 62.8l15 2.1-25.3 18.5 4.1-20.8z"/><path fill="#e8ecf2" fill-opacity=".6" d="M39.3 104l24.5-21.3-45.1 3.5 15.4 7.2z"/><path fill="#e1ffff" fill-opacity=".8" d="M132.8 57.8L112.6 43l.6-.9L133.4 57z"/><path fill="#a8945d" d="M144.2 172.3l-42.9-71.9-21.9-14.7 8.2 14.6z"/><path fill="#010000" fill-opacity=".6" d="M46 0L32-16-8 7z"/><ellipse cx="170" cy="122" fill="#652e00" fill-opacity=".5" rx="19" ry="53"/><path fill="#272800" fill-opacity=".3" d="M68.4 114.8l6.8 15.6-7.4 20.8-9.7-97z"/><path fill="#ead4b6" fill-opacity=".5" d="M119 57l-22-7-8 31z"/><circle r="1" fill="#e7f4f5" fill-opacity=".5" transform="matrix(30.33466 7.0653 -1.30339 5.59607 55.4 14.5)"/><ellipse cx="122" cy="29" fill="#ebcea5" fill-opacity=".4" rx="51" ry="5"/><path fill="#515b60" fill-opacity=".6" d="M73 43l16-9-30 1z"/><path fill="#80947f" fill-opacity=".8" d="M51.8 82.1l-7-7.3 2.2-4.4L60.2 48z"/><circle cx="56" cy="132" r="12" fill="#f5effa" fill-opacity=".4"/><path fill="#514412" fill-opacity=".4" d="M121.1 78.2l-6-23.8L103.5 98l15.6-6.5z"/><path fill="#e8dcb7" fill-opacity=".8" d="M140.2 175l.6-17.2-11.3-93.3.1 71.1z"/><ellipse cx="24" cy="175" fill="#d5ba75" fill-opacity=".5" rx="31" ry="22"/><path fill="#5f3e16" fill-opacity=".6" d="M85 30.8l-33.3 2.4 78.4 1.4-.6 13.9z"/><path fill="#8c5b1b" fill-opacity=".6" d="M-16 15.7l30.9 5.1 11.9-3.5-1.3-9.9z"/><path fill="#f9dfa1" fill-opacity=".3" d="M62.6 84.7l70.4 35-45.8-32.5 1.7 27.2z"/><path fill="#ebd1aa" fill-opacity=".5" d="M33 20h47v10H33z"/><path fill="#a2804b" fill-opacity=".7" d="M23 98.6l37 4.4 5.5 20-44.6-16.8z"/><path fill="#b2897e" fill-opacity=".8" d="M112.9 11.1l26.1 2.7 47-10.2-66.9-11.2z"/><path fill="#bdbdae" fill-opacity=".9" d="M36.3 10.5l66.9 2.4L131.9-16h-45z"/><path fill="#0e0d07" fill-opacity=".4" d="M147.4 102l-25.7-55.4 33.1 54.2 2.2-38.5z"/></g></svg>