<svg xmlns="http://www.w3.org/2000/svg" viewBox="0 0 300 199"><defs/><path fill="#53322e" d="M0 0h300v199H0z"/><g transform="translate(.6 .6) scale(1.17188)"><circle r="1" fill="#768da1" fill-opacity=".5" transform="rotate(-53.4 168.9 -193.2) scale(149.07045 255.00001)"/><circle r="1" fill="#001030" fill-opacity=".7" transform="matrix(37.84108 38.93714 -55.5572 53.9933 40.1 107.6)"/><path fill="#ffffe0" fill-opacity=".5" d="M89.8 24.6L7 30.3 4.2-10.6 87-16.3z"/><circle r="1" fill="#e0a88d" fill-opacity=".6" transform="rotate(-41.8 129.5 -135.6) scale(19.97732 42.07531)"/><circle r="1" fill="#2f91ed" fill-opacity=".5" transform="rotate(3.1 -1796.5 4790.4) scale(35.47336 94.58019)"/><circle r="1" fill="#38180e" fill-opacity=".6" transform="matrix(-37.3414 -27.2097 14.27387 -19.58884 181.8 53.6)"/><path fill="#ba9d87" fill-opacity=".6" d="M108 185l-21-85 114 62z"/><path fill="#193b71" fill-opacity=".7" d="M176.3 117.4l43-16.5 34.4 89.7-43 16.5z"/><circle r="1" fill="#7e473a" fill-opacity=".7" transform="matrix(-.27012 -13.4307 76.98163 -1.54825 117.6 111.2)"/><path fill="#fcffff" fill-opacity=".7" d="M19.9-22.5l31.4 52.3L40 36.5 8.7-15.8z"/><circle r="1" fill="#d3f5f0" fill-opacity=".5" transform="matrix(-24.62683 -9.70077 5.00984 -12.71823 204.8 -.1)"/><circle r="1" fill="#541700" fill-opacity=".5" transform="matrix(-4.1228 -13.412 11.2356 -3.45378 58 15)"/><ellipse cx="13" cy="55" fill="#003175" fill-opacity=".5" rx="90" ry="17"/><circle r="1" fill="#9a7b61" fill-opacity=".9" transform="rotate(36.7 57.2 182) scale(26.55026 43.60429)"/><path fill="#1b0c09" fill-opacity=".4" d="M289.6-31.3L180 82.4l-11.5-11.1L278-42.4z"/><circle r="1" fill="#885844" fill-opacity=".7" transform="matrix(18.26105 -6.64648 15.1895 41.73278 166.8 7)"/><path fill="#342624" fill-opacity=".6" d="M191 112l-50-38 39 79z"/><circle r="1" fill="#fac7a2" fill-opacity=".5" transform="rotate(123.5 62 84.8) scale(5.60412 31.57945)"/><circle r="1" fill="#f8dac9" fill-opacity=".5" transform="matrix(6.39704 -5.61993 16.96695 19.31308 179 163.5)"/><path fill="#fdffff" fill-opacity=".4" d="M126.2 81.5L74.1 21.6 65-2.1l9.8.2z"/><path fill="#76a8d6" fill-opacity=".6" d="M222.7 146.1l22.4-85 9.5 18.7-26.7 69.5z"/><circle r="1" fill="#96bfe2" fill-opacity=".6" transform="matrix(-23.95796 34.98971 -8.1179 -5.55844 255 21.7)"/><circle r="1" fill="#0b0a1c" fill-opacity=".4" transform="matrix(28.20487 -5.958 5.59324 26.47814 86.2 81.1)"/><path fill="#a55845" fill-opacity=".5" d="M121 77l-56 48 87 4z"/><path fill="#afafac" fill-opacity=".5" d="M184-16l-3 73 22-65z"/><path fill="#ffede0" fill-opacity=".4" d="M55 44.9l.9-3.6 13.8 4.1 7.6-35.9z"/><path fill="#6a90c2" fill-opacity=".5" d="M192 100l16 3-20 59z"/><ellipse cx="106" cy="156" fill="#d7fbfc" fill-opacity=".3" rx="7" ry="30"/><path fill="#855d40" fill-opacity=".6" d="M243-16l-14 70-48 45z"/><path fill="#160f07" fill-opacity=".5" d="M154.1 21.1l-9.7-12.2L193.6-16l-31.4 31.7z"/><path fill="#edf1f2" fill-opacity=".9" d="M47-7l-3 35L14-7z"/><path fill="#7a685d" fill-opacity=".8" d="M123.6 177.3l41.6-76.9 11.3 12.1-32.5 64.9z"/><circle r="1" fill="#747451" fill-opacity=".5" transform="rotate(-32.3 39.3 -12.4) scale(13.74286 25.42838)"/><path fill="#b4a79b" fill-opacity=".6" d="M141.1 102.1L99.5 37.3l17.4 45 36.8 2.3z"/><circle r="1" fill="#040e19" fill-opacity=".6" transform="matrix(29.75955 50.07616 -12.03854 7.15434 44.2 143.9)"/><path fill="#00050f" fill-opacity=".5" d="M169 78l-29-61 30 29z"/><circle r="1" fill="#f2cebf" fill-opacity=".6" transform="matrix(-2.8109 5.67361 -11.96078 -5.92578 130.7 42.2)"/><path fill="#112a58" fill-opacity=".3" d="M207.6 103.2l-17.2-13.8 47.6-8.5L214.7 185z"/><path fill="#dafbe7" fill-opacity=".3" d="M127.7-16l25.6 40.2-40.4-20.5L28 .2z"/><path fill="#011227" fill-opacity=".6" d="M185.2 54l-4.1 26.5 30.4-32.1-18.2-31.7z"/><path fill="#feffff" fill-opacity=".5" d="M211.2 25.8l-3.5 4.9-9-6.5 3.6-4.9z"/><circle r="1" fill="#00080d" fill-opacity=".5" transform="rotate(-146.6 96 28.5) scale(4.36347 17.22789)"/><path fill="#b5c3ce" fill-opacity=".2" d="M24.4 113.6l35.1 6.5 19 64.9-9.7-84.1z"/><path fill="#081932" fill-opacity=".4" d="M60.4 32.9L49.1 1 33.6 179.1-16 82.2z"/><path fill="#81c0f6" fill-opacity=".4" d="M230.2 50.3l8.6 2.6-15 48.8-8.6-2.6z"/><path fill="#5f4f3f" d="M133.3 11.8l-12 5.1.1 11.2 14.3-3.2z"/><path fill="#214863" fill-opacity=".7" d="M73.8 31.7l-7 50.1L93.5 19l-4.9 7.5z"/><ellipse cx="87" cy="137" fill="#402926" fill-opacity=".7" rx="9" ry="19"/><circle r="1" fill="#5d5a52" fill-opacity=".5" transform="matrix(-7.03908 .63229 -3.7178 -41.38938 125.3 165.6)"/><path fill="#091d30" fill-opacity=".5" d="M205 57l7-49 10 21z"/><circle r="1" fill="#17376d" fill-opacity=".7" transform="matrix(25.07623 4.19632 -3.9483 23.59413 214 168.1)"/><path fill="#a8ac90" fill-opacity=".4" d="M70 159h15v11H70z"/><path fill="#02091b" fill-opacity=".5" d="M80 72L23 93l36 16z"/><path fill="#94482b" fill-opacity=".5" d="M107 47L87 5l34 2z"/><path fill="#291818" fill-opacity=".5" d="M177.7 148.2l-12.8-5.7 15.4-34.7 12.8 5.7z"/><path fill="#fff" fill-opacity=".5" d="M64-1l17 26-3-38z"/><path fill="#11376a" fill-opacity=".5" d="M247 58l-14 8-5 37z"/><path fill="#e9d8c9" fill-opacity=".5" d="M147 60l-3 13 30 7z"/><path fill="#356ba2" d="M238 132h18v38h-18z"/><path fill="#132f5b" fill-opacity=".3" d="M51.4 35.4L27.9 24.1l-1.4 73.4 84.8-33.8z"/><path fill="#e4dbcc" fill-opacity=".6" d="M140 88l2 15-15-29z"/><path fill="#1b8fff" fill-opacity=".2" d="M26.8 39.9l6.5-.8-8.9 14.1L-16 29.9z"/><path fill="#c1bfc0" fill-opacity=".8" d="M82.3 44.3l7.5-4.4 8.1-16.4L94.4 45z"/><path fill="#c29a80" fill-opacity=".5" d="M71.4 23.1L59.6-3l-3.9 9.7 14.5 36.8z"/><path fill="#812a18" fill-opacity=".5" d="M119 68l25 39-25-11z"/></g></svg>