<svg xmlns="http://www.w3.org/2000/svg" viewBox="0 0 300 199"><defs/><path fill="#2d425a" d="M0 0h300v199H0z"/><g transform="translate(.6 .6) scale(1.17188)"><circle cx="206" cy="81" r="243" fill="#110b04" fill-opacity=".7"/><circle r="1" fill="#747b83" fill-opacity=".5" transform="matrix(-18.00936 6.61117 -18.67381 -50.86897 153.2 71.9)"/><circle r="1" fill-opacity=".8" transform="matrix(22.10582 138.01126 -46.3296 7.4208 220.6 52)"/><ellipse cx="128" cy="45" fill="#ffc89e" fill-opacity=".6" rx="8" ry="7"/><path fill="#556f82" fill-opacity=".6" d="M140.2 87.1l7.6 4.9-24 36.9-7.6-4.9z"/><circle r="1" fill="#88bdd9" fill-opacity=".5" transform="matrix(-3.37134 2.19667 -17.71053 -27.18126 170.8 104.5)"/><path fill="#ffad7a" fill-opacity=".5" d="M139 16h11v18h-11z"/><path fill="#ffcb86" fill-opacity=".4" d="M129 63l25 2 4-20z"/><circle r="1" fill="#393931" fill-opacity=".3" transform="matrix(-58.12478 14.49873 -15.73074 -63.06386 36.6 83.4)"/><path fill="#05070a" fill-opacity=".8" d="M91 0h46v38H91z"/><path fill="#193146" fill-opacity=".7" d="M176 117v42l-42-85z"/><path fill="#222b34" d="M182.5 67.2l-29.8 12.3L163 34.6l-15.1-2.7z"/><path fill="#261101" fill-opacity=".4" d="M143.7 60.4l15.8-23-65.1-14 41.1 21.2z"/><circle r="1" fill-opacity=".6" transform="matrix(-8.29896 12.3603 -42.90811 -28.80937 169.7 16)"/><path fill="#010102" fill-opacity=".7" d="M264.8 40.2l-2 75.8-75.8 3.8-20.1-33.9z"/><path fill="#6497b4" fill-opacity=".6" d="M160 74l22 40-31-26z"/><path fill="#655d59" fill-opacity=".5" d="M185 119l11 16-4 12z"/><path fill="#e3eae9" fill-opacity=".5" d="M104.1 127.7l.3-1 11.5 3.6-.3 1z"/><path fill="#1e3344" fill-opacity=".7" d="M142.8 74.7l-1.8 70.1 19.1-26.3-10.2-45.2z"/><ellipse cx="227" cy="165" fill="#090d0e" fill-opacity=".9" rx="43" ry="30"/><ellipse cx="160" cy="169" fill-opacity=".7" rx="7" ry="43"/><circle cx="131" cy="50" r="5" fill="#e6a986" fill-opacity=".5"/><circle cx="183" cy="125" r="4" fill="#ffaf6d" fill-opacity=".5"/><path fill="#d99c74" fill-opacity=".7" d="M132.8 57.5l4.8 9.2 22.9-21.1-8.3 17.5z"/><path fill="#1e486c" fill-opacity=".4" d="M181 65l-8 31-15-21z"/><path fill="#0f1110" fill-opacity=".4" d="M113 89l-9-26 54 2z"/><circle r="1" fill="#1a1a18" fill-opacity=".8" transform="rotate(134.9 32.4 75) scale(28.81519 18.78231)"/><path fill="#2e1f11" fill-opacity=".6" d="M150.7 43.8l-29.4 25.4 38.1-49.1L170.6 45z"/><ellipse cx="132" fill="#000104" fill-opacity=".5" rx="85" ry="15"/><path fill="#101415" fill-opacity=".6" d="M193 143l-1-14-12-2z"/><path fill-opacity=".5" d="M119 127h21v22h-21z"/><path fill="#f2ab81" fill-opacity=".5" d="M150 50.2l3.6-6.1 5.4 7.4-7.3 15.1z"/><circle r="1" fill="#ca9980" fill-opacity=".6" transform="matrix(-7.05218 -1.0688 .8585 -5.66459 126.8 44.8)"/><path fill="#010000" fill-opacity=".5" d="M-1.2 151.5l33.6 5.3-3.2 19.7-33.6-5.3z"/><path fill="#1a385c" fill-opacity=".6" d="M134.5 51h13v6h-13z"/><path fill="#1b1c1a" fill-opacity=".5" d="M48-3l57 139 14-110z"/><ellipse cx="147" cy="74" fill="#1f364a" fill-opacity=".6" rx="13" ry="8"/><circle r="1" fill="#33322e" fill-opacity=".3" transform="matrix(-16.93135 -4.82302 10.48193 -36.79712 40.5 82.3)"/><path fill="#6e899c" fill-opacity=".3" d="M116.5 128.1l8.7-3.7 12.8-20.2 6-24.4z"/><path fill="#263c4f" fill-opacity=".5" d="M162 126l29 22-18 7z"/><path fill="#a6c9cf" fill-opacity=".5" d="M152 86h6v7h-6z"/><ellipse cx="147" cy="147" fill="#022b54" fill-opacity=".3" rx="8" ry="29"/><circle cx="107" cy="126" r="2" fill="#b4b7ba" fill-opacity=".5"/><path fill="#131512" fill-opacity=".8" d="M118.5 125.2l-8.5-.9 25.3-55.2-3.4 28.5z"/><path fill="#f3b083" fill-opacity=".5" d="M151.7 46.8l7.6-2.5 1 2.9-7.6 2.5z"/><path fill="#e7edfb" fill-opacity=".1" d="M187.5 145.2l7.3-11 2.4 7-9.7 13.8z"/><path fill="#10110f" fill-opacity=".5" d="M161.3 100.7L121.7 146l-50.3 18.7 63.7-49z"/><path fill="#3a1d09" fill-opacity=".4" d="M134.6 11.6l9.2 25.4L168 4l-30.5 49.9z"/><path fill="#ffa77b" fill-opacity=".2" d="M148.8 13l-12.5 7.4 17.1 4-27.6 29.9z"/><circle cx="137" cy="63" r="4" fill="#ae7959" fill-opacity=".7"/><path fill="#527c95" fill-opacity=".6" d="M184.4 119.6l-8.2 2.2-18.4-39.6 15.9 15.5z"/><path fill="#e8f8fd" fill-opacity=".2" d="M153.2 86.3l10.7-6.8 6.6-8.4-7.7 1.8z"/><circle cx="122" cy="123" r="4" fill="#eaa069" fill-opacity=".3"/><path fill="#c5c6cf" fill-opacity=".4" d="M194.8 133.5l.4 13h-2l-.4-13z"/><path fill="#b1b7bb" fill-opacity=".4" d="M134 92h6v5h-6z"/><path fill="#4d361c" fill-opacity=".5" d="M170 53.6L157.7 33l4.3-2.6L174.3 51z"/><path fill="#030405" fill-opacity=".6" d="M192 97l6 74 22-11z"/><circle r="1" fill="#172433" fill-opacity=".5" transform="matrix(-3.76104 -1.63535 8.41959 -19.36372 158.7 66)"/><ellipse cx="229" cy="169" fill="#161a19" fill-opacity=".5" rx="18" ry="21"/><ellipse cx="111" cy="75" fill="#181714" fill-opacity=".4" rx="23" ry="31"/><path fill="#6f7372" fill-opacity=".4" d="M234.6 41.3l10.4-3.6.4 1-10.4 3.6z"/><path fill="#384e5f" fill-opacity=".5" d="M140 140l10-16-3-13z"/><circle r="1" fill="#000101" fill-opacity=".6" transform="matrix(-65.66399 8.82292 -3.17449 -23.62592 221.6 14.5)"/><path fill="#020303" fill-opacity=".6" d="M206.7-12.8L172.5 94.5l19 37.3 46.6-87.1z"/><path fill="#010307" fill-opacity=".3" d="M114 0h24v40h-24z"/></g></svg>