<svg xmlns="http://www.w3.org/2000/svg" viewBox="0 0 300 199"><defs/><path fill="#314d6a" d="M0 0h300v199H0z"/><g transform="translate(.6 .6) scale(1.17188)"><circle r="1" fill="#34200f" fill-opacity=".7" transform="rotate(153.4 63.5 45.6) scale(156.08461 172.18292)"/><circle r="1" fill="#ffd6a6" fill-opacity=".5" transform="matrix(-7.90185 18.05622 -30.18588 -13.2101 113.4 109.3)"/><ellipse cx="38" cy="131" fill="#f7d76e" fill-opacity=".5" rx="14" ry="23"/><path fill="#ef9e81" fill-opacity=".5" d="M192.3 164.4l-16 16.5-34.6-33.3 16-16.5z"/><path fill="#f7d074" fill-opacity=".7" d="M11.6 139.9L30.3 185h-40.6L2 141.7z"/><circle r="1" fill="#0c0c13" fill-opacity=".7" transform="matrix(-8.07252 -26.307 217.56594 -66.76191 84.1 62.4)"/><path fill="#fdffda" fill-opacity=".5" d="M19 21h21v18H19z"/><path fill="#f9cf8f" fill-opacity=".4" d="M155.2 72.5l-31.5.5 66.2 63.6L149 92.1z"/><path fill="#a98773" fill-opacity=".9" d="M72.6 185l42.6-32.1 15.9 5.4 52.6-10z"/><circle r="1" fill="#04060e" fill-opacity=".5" transform="matrix(38.062 -25.86691 40.78865 60.01868 231.2 80.8)"/><path fill="#171918" fill-opacity=".8" d="M143.3 152L99.6 99.5l4 29.4 22.5 30.3z"/><path fill="#fff" fill-opacity=".5" d="M223.5 43.7l12.6 8.1-1.6 2.5-12.6-8.1z"/><path fill="#827e7b" fill-opacity=".6" d="M230.5 183.6L186 126.9l13.4-10.5 44.4 56.7z"/><path fill="#2b81a8" fill-opacity=".5" d="M55.8 32.5l59.9-8.9-32-13.8-42.8 5.5z"/><path fill="#faf1e0" fill-opacity=".4" d="M154.2 119.5l15-17 7.9 6.8-4.2 17.8z"/><path fill="#ffffca" fill-opacity=".2" d="M103.6 138.7L87 151.4l11.9-67.3 27.3-.5z"/><circle r="1" fill="#050809" fill-opacity=".5" transform="matrix(2.70864 7.67163 -78.21457 27.61537 96 153.2)"/><circle r="1" fill="#020403" fill-opacity=".6" transform="matrix(-6.09104 3.40417 -30.19802 -54.033 20.7 141)"/><path fill="#090c0e" fill-opacity=".6" d="M0 35h32v78H0z"/><circle r="1" fill="#211f26" fill-opacity=".7" transform="matrix(-15.99227 -70.39026 36.36617 -8.26219 152.6 4.2)"/><path fill="#f5f7e8" fill-opacity=".7" d="M33 44l-2-12.8 8-1.2 2 12.8z"/><path fill="#201f1f" fill-opacity=".8" d="M79.2 78.2l54.9 81.1-55.9-94.9L16.5-5.1z"/><path fill="#ffd9a9" fill-opacity=".2" d="M78.6 113.7l129.1 19.1-57.2-13.8L114 80.5z"/><path fill="#918150" fill-opacity=".8" d="M61.7 153.7l-37.2-20.1-9.3-20 30.5-2.7z"/><path fill="#bf8054" fill-opacity=".6" d="M17-16l14 28-18-6z"/><path fill="#bdb9c1" fill-opacity=".5" d="M266 170.8l-1 2.9-57-18.5 1-2.9z"/><path fill="#58feff" fill-opacity=".5" d="M77 22l18 1L67 9z"/><path fill="#ddb77b" fill-opacity=".5" d="M151.4 86.5l-10.6 3.1-6.8-15.3 21.8-4z"/><path fill="#1c1b1d" fill-opacity=".8" d="M113.6 56.2L26.9-16l131.8 144.5-3.3-21.9z"/><path fill="#f3ecc7" fill-opacity=".7" d="M22.1 173.1l-5.3-17.6L-16 185h128.3z"/><path fill="#d1ceb0" fill-opacity=".5" d="M14 23h23v8H14z"/><path fill="#956a1c" fill-opacity=".6" d="M13 144l-21 31-8-84z"/><path fill="#36353d" fill-opacity=".6" d="M211 126l-26 13 86 36z"/><path fill="#a79582" fill-opacity=".7" d="M207.7 139.9l24.4 39-11-12.2-18.6-16.8z"/><path fill="#040309" fill-opacity=".7" d="M-10.7 8.7l21.8-3 5.6 39.6-21.8 3z"/><path fill="#191a18" fill-opacity=".6" d="M111 151L98 97l37 43z"/><circle r="1" fill="#cec5c1" fill-opacity=".5" transform="rotate(159.9 38.6 68.6) scale(2.91908 23.02613)"/><path fill="#0b0d0e" fill-opacity=".6" d="M269.1 88.1l-88.6 39.8 21.4 24.3-51.9-18.1z"/><path fill="#feffff" fill-opacity=".6" d="M224.3 46.3l2.4-3.2 11 8.6-2.4 3.2z"/><path fill="#bec2bd" fill-opacity=".5" d="M180 129l22-2 4-11z"/><path fill="#fed0aa" fill-opacity=".3" d="M170.8 151.6L91 164.5l56.9-2.7 8.4-17.3z"/><path fill="#241d17" fill-opacity=".7" d="M103.2 185l10.3-19.2 19.4-1 26.5 1.5z"/><path fill="#f6dad3" fill-opacity=".7" d="M107.8 25.8l-.2 1-17.4-4.6.2-1z"/><path fill="#fff" fill-opacity=".5" d="M252 129h4v4h-4z"/><path fill-opacity=".5" d="M271 171l-44-8 9 22z"/><path fill="#5f4f45" fill-opacity=".5" d="M92 88l-26 70 3-44z"/><path fill="#000208" fill-opacity=".5" d="M177 135l22 41 29-3z"/><path fill="#0c0d12" fill-opacity=".5" d="M153 67h103v23H153z"/><path fill="#48484d" fill-opacity=".5" d="M172 114l20-22 44-4z"/><path fill="#161517" d="M38.3 81.8L-16 56.6l90.7-2.4-15.1 71.1z"/><path fill="#302d34" fill-opacity=".5" d="M67 25h81v17H67z"/><path fill="#191718" fill-opacity=".8" d="M12.9 13.3L11.4-.5-16 33.7 82.2 4.4z"/><path fill="#d2f0ff" fill-opacity=".4" d="M97 103l4 14-17-5z"/><path fill="#934e45" d="M174 141l-18.6 43.4 25.9-32.6-1 13.5z"/><path fill="#33333b" fill-opacity=".6" d="M183.6 61L126 77.5 122.4 65 180 48.5z"/><path fill="#aa907a" fill-opacity=".6" d="M192.8 185h-30.2l32.9-17.5-34.4-14.9z"/><path fill="#630000" fill-opacity=".5" d="M122 112h6v9h-6z"/><path fill="#fff" fill-opacity=".5" d="M29 20h7v8h-7z"/><path fill="#f1e1c5" fill-opacity=".5" d="M120.5 122l6.7 1.6 8.3-5.3-5.2 12.8z"/><path fill="#0ec7ff" fill-opacity=".5" d="M80 8l-7 2 10 6z"/><path fill="#19181b" fill-opacity=".9" d="M67.3 105L37.6 24.3l.2-10.4L86.1 60z"/><path fill="#00729d" fill-opacity=".7" d="M50.6 25.7l15.5 6.9-4-8.7-10-11.8z"/><circle r="1" fill="#dad0b4" fill-opacity=".3" transform="matrix(7.55656 -2.84032 3.00232 7.98756 165.5 120.1)"/><ellipse cx="151" cy="3" fill="#110f18" fill-opacity=".6" rx="82" ry="7"/><path fill="#c4eeff" fill-opacity=".2" d="M15.2 13.4L40.8 8 30-16l2.9 22.8z"/></g></svg>