<svg xmlns="http://www.w3.org/2000/svg" viewBox="0 0 300 199"><defs/><path fill="#5f3e38" d="M0 0h300v199H0z"/><g transform="translate(.6 .6) scale(1.17188)"><circle r="1" fill="#fcffff" fill-opacity=".8" transform="matrix(40.29637 2.46463 -10.16483 166.19356 221.7 94.3)"/><circle r="1" fill="#dffffb" fill-opacity=".3" transform="matrix(62.66671 -135.48124 93.93707 43.4505 56.7 71.1)"/><ellipse cx="119" cy="105" fill="#05010d" fill-opacity=".5" rx="32" ry="48"/><circle r="1" fill="#eaedf3" fill-opacity=".5" transform="matrix(-56.92067 -19.93334 6.354 -18.1442 80.7 169)"/><ellipse cx="69" cy="27" fill="#b9b1aa" fill-opacity=".6" rx="82" ry="39"/><circle r="1" fill="#53402c" fill-opacity=".7" transform="rotate(-129.5 33 55.8) scale(24.54851 42.69957)"/><path fill="#fff9ed" fill-opacity=".5" d="M81 85l18.4 21L73 129l-18.4-21z"/><path fill="#140000" fill-opacity=".3" d="M105 104L52 75l42-45z"/><circle r="1" fill="#d4cbce" fill-opacity=".7" transform="matrix(7.96731 .75313 -8.09141 85.59823 186.4 158)"/><circle r="1" fill="#b59680" fill-opacity=".6" transform="matrix(21.76483 36.25385 -3.92985 2.35927 122.2 142)"/><ellipse cx="76" cy="80" fill="#d4bfb2" fill-opacity=".5" rx="7" ry="61"/><ellipse cx="208" cy="17" fill="#f1f2f3" fill-opacity=".7" rx="19" ry="169"/><ellipse cx="250" cy="77" fill="#c4c2c1" rx="6" ry="169"/><path fill="#e1c3b8" fill-opacity=".8" d="M100 51.9l12.1 2.1 1.5 21-24.5-28.5z"/><path fill="#221e21" fill-opacity=".9" d="M149.4 185l-8.9-37.8-60.2-67.9 75.1 57z"/><path fill="#1a0100" fill-opacity=".5" d="M53.5 94.5h-61v-9h61z"/><path fill="#240e00" fill-opacity=".5" d="M79.6 62l-9.7 9-6.8 24.4-11.2-32.2z"/><ellipse cx="93" cy="77" fill="#0e0e13" fill-opacity=".8" rx="9" ry="13"/><ellipse cx="178" cy="36" fill="#280001" fill-opacity=".3" rx="8" ry="83"/><circle r="1" fill="#b0abaa" fill-opacity=".5" transform="matrix(-19.14322 -10.1833 21.39655 -40.22263 44.4 43.7)"/><path fill="#7d6e64" fill-opacity=".9" d="M169.4 123.7l-3-69-18.6 61.1-12.1 13.5z"/><circle r="1" fill="#0d1423" fill-opacity=".5" transform="matrix(-22.87107 -40.42107 3.90797 -2.21121 112.5 149.5)"/><path fill="#030000" fill-opacity=".4" d="M78 48l10-15 17 5z"/><path fill="#e5eaf4" fill-opacity=".5" d="M104 154l-49 17 74 1z"/><path fill="#fdddc2" fill-opacity=".2" d="M50.4 113.2l-66.4-21 62.6 4 31.2-6.4z"/><circle r="1" fill="#ada7a4" fill-opacity=".7" transform="matrix(18.88609 .57547 -1.0087 33.10384 40 162.2)"/><path fill="#a3957c" fill-opacity=".5" d="M191.2 185h-175 136.1l3-35.6z"/><ellipse cx="131" cy="148" fill="#706153" fill-opacity=".8" rx="13" ry="12"/><path fill="#0f192d" fill-opacity=".6" d="M115 59h19v66h-19z"/><path fill="#c9b7a4" fill-opacity=".5" d="M139 113l2-18-11-10z"/><path fill="#ffd9cf" fill-opacity=".6" d="M118.6 147h-5l-.2-14h5z"/><path fill="#53493d" fill-opacity=".8" d="M21.7 134.3l-25.4 46.8-11.7-61.1 52.9 7.2z"/><ellipse cx="232" cy="73" fill="#ececed" fill-opacity=".9" rx="11" ry="102"/><path fill="#c7bdbd" fill-opacity=".7" d="M195.6-16l-7.8 44.1-3.5 67 13.6-54.3z"/><path fill="#d19d88" fill-opacity=".5" d="M105 34l2 61-14-45z"/><ellipse cx="143" cy="100" fill="#000006" fill-opacity=".5" rx="4" ry="18"/><path fill="#bfaca0" fill-opacity=".6" d="M73 30l14 30-12 38z"/><path fill="#161317" fill-opacity=".8" d="M98.8 64.2l2.1 38.6-21.4-15 16.4-5.9z"/><circle r="1" fill="#948776" fill-opacity=".6" transform="matrix(-17.55704 -2.80586 8.45451 -52.9022 151.5 19.7)"/><path fill="#e3af8f" fill-opacity=".5" d="M114.2 122.2l-3.7 3.3-26.7-29.7 3.7-3.3z"/><path fill="#ffcbc4" fill-opacity=".5" d="M141 128l9-10h-11z"/><path fill="#1d0c02" fill-opacity=".4" d="M84.6 130.3l23.9-13.1 9.4 48.3-28.4-61.8z"/><path fill="#030a15" fill-opacity=".5" d="M131.9 185l20-50.8-33.1-10.1 40.4 28.5z"/><path fill="#d4cbcc" fill-opacity=".3" d="M76.2 90.3l12.1 56.9-35.7-62.7-6.1 31.3z"/><path fill="#955435" fill-opacity=".4" d="M56 105l-12 28 31 14z"/><path fill="#95928e" fill-opacity=".7" d="M32.4 82.7l-17.2 6.4-31.2-72L25.8-16z"/><path fill="#422423" fill-opacity=".5" d="M186.5 56.8l-26.6 80.4 18.6 34.2-2.6-8.4z"/><circle r="1" fill="#ada6a1" fill-opacity=".7" transform="rotate(-129 41.1 -16.8) scale(30.9839 50.47212)"/><path fill="#ebebec" fill-opacity=".7" d="M250-16l-4 88-31-69z"/><path fill="#b6a091" fill-opacity=".5" d="M109 110l-2-18-3 11z"/><path fill="#83685d" fill-opacity=".8" d="M97.8 130.6l4.8 4.6-1.2 21.7-25.7-11.2z"/><path fill="#dbbeb4" fill-opacity=".7" d="M120.9 137.8l-5.2.8-7.4-25.7 6.6 11z"/><path fill="#130a00" fill-opacity=".5" d="M60.1 81.5l-7.9-5.9 4.7-10.4L76 63.5z"/><path fill="#959086" fill-opacity=".4" d="M248 76l3-88 20 22z"/><path fill="#1e1016" fill-opacity=".5" d="M115.2 101.1l-12.7-42.5 12.5 66.5 31-8.9z"/><path fill="#cac8ca" d="M241 112h15v58h-15z"/><path fill="#8c7665" fill-opacity=".9" d="M125.3 153l1.5 11.4 9.1 20.6 4.7-24.5z"/><path fill="#391400" fill-opacity=".4" d="M90.1 43.1L77.5 45l20.8-11.1 5.8 11.3z"/><path fill="#b5a091" fill-opacity=".4" d="M58.1 129.9l4.2-17.9 40.8 37.1-41.4-13.4z"/><path fill="#d3dee4" fill-opacity=".2" d="M10.4 135.3l27.2-1.6 9.4-14.4 19.2 46.4z"/><path fill="#c5b9b9" fill-opacity=".8" d="M188.9 44.8l-5.2 49.6L175 185l11.4-20.7z"/><path fill="#e5e5e8" fill-opacity=".5" d="M63 105h24v12H63z"/><path fill="#2e3e5e" fill-opacity=".5" d="M125.4 132.5l-5.5 4.2 8.7 40.5-17.5-21.4z"/><path fill="#301708" fill-opacity=".8" d="M-16 88.3l39 5.5 26.3-10.6 6.5 4.1z"/><circle r="1" fill="#aea8a3" fill-opacity=".6" transform="matrix(3.0942 -5.74656 26.7573 14.40732 64.5 51.4)"/></g></svg>