<svg xmlns="http://www.w3.org/2000/svg" viewBox="0 0 300 199"><defs/><path fill="#5a3b30" d="M0 0h300v199H0z"/><g transform="translate(.6 .6) scale(1.17188)"><circle r="1" fill="#afc7c9" fill-opacity=".5" transform="rotate(25.3 -16 192.1) scale(204.58338 138.87866)"/><ellipse cx="162" cy="101" fill="#0e0f18" fill-opacity=".4" rx="119" ry="34"/><circle r="1" fill="#f5fdfd" fill-opacity=".3" transform="rotate(-20.6 94.3 -268.9) scale(255 47.71009)"/><circle r="1" fill="#0b0700" fill-opacity=".6" transform="matrix(-4.3006 -29.4796 19.53004 -2.84913 83 120.5)"/><path fill="#ab9a94" fill-opacity=".8" d="M163 87l92 98-59-11z"/><circle r="1" fill="#fff1d3" fill-opacity=".5" transform="matrix(-34.55419 -13.00243 6.93027 -18.41732 142.7 160.8)"/><path fill="#f6f8f5" fill-opacity=".5" d="M99 107l26-10-6-89z"/><path fill-opacity=".5" d="M129 83h36v43h-36z"/><path fill="#65553e" fill-opacity=".5" d="M56 29h49v60H56z"/><circle r="1" fill="#dcd2c2" fill-opacity=".5" transform="matrix(6.37444 -14.87269 24.37858 10.44867 237.6 118.2)"/><circle r="1" fill="#1c1921" fill-opacity=".6" transform="matrix(3.36476 -8.08331 32.38984 13.48259 221.5 145)"/><circle r="1" fill="#190d00" fill-opacity=".4" transform="rotate(-120.9 137.7 -28.8) scale(14.74554 65.63458)"/><path fill="#2a2a24" d="M-16 141l41.1 44 21.6-51.8 8 48.7z"/><path fill="#f1eff5" fill-opacity=".3" d="M63 66l-79-25 82 77z"/><path fill="#feffff" fill-opacity=".5" d="M38 118l-14 33-11-38z"/><path fill="#fff" fill-opacity=".5" d="M113.2 18.9l-.8 10L.8 19l.8-10z"/><path fill="#f5ffff" fill-opacity=".4" d="M181.1 115.5l30.5-31.3-25.1 53.4L156.4 92z"/><path fill="#fbffff" fill-opacity=".9" d="M124.8 136l2.5-11.7 7.9 1.7-2.5 11.7z"/><path fill="#b7bec0" fill-opacity=".7" d="M262.8 25.3L61.7-4.6 271-13 165.3 45.5z"/><path fill="#0e0b09" fill-opacity=".6" d="M68 73h10v81H68z"/><ellipse cx="55" cy="118" fill="#5f534b" fill-opacity=".5" rx="19" ry="22"/><path fill="#fff" fill-opacity=".4" d="M227 121h10v19h-10z"/><circle r="1" fill="#6f6344" fill-opacity=".8" transform="matrix(6.81401 -19.48152 15.24737 5.33304 243.4 48.3)"/><path fill="#fffff7" fill-opacity=".4" d="M136.9-1.6L108.2 18l54.5 9.5-14.8 58.6z"/><ellipse cx="210" cy="92" fill="#0a0d0f" fill-opacity=".6" rx="80" ry="4"/><path fill="#0c0904" fill-opacity=".5" d="M243 168l6-47-22 27z"/><path fill="#a3a9af" fill-opacity=".7" d="M109.1 113l23.3-26.5-37.9 18.2-5-32.1z"/><path fill="#0d0b0b" fill-opacity=".4" d="M122.4 148.6l2-30.8-23.7 29.2-40.5-83z"/><path fill="#533d24" fill-opacity=".4" d="M124 90l15.5-10 1.6-49.9L122.4 51z"/><path fill="#24201e" fill-opacity=".4" d="M33.1 43.4L12 28.1l64 6.2-39.8-.9z"/><path fill="#00082d" fill-opacity=".5" d="M141 87l-22 34 63 17z"/><path fill="#e2eefa" fill-opacity=".5" d="M111 117h5v38h-5z"/><path fill="#f9ffff" fill-opacity=".4" d="M250 89h6v51h-6z"/><path fill="#a7a9a6" fill-opacity=".9" d="M81.3 41.8l-42 5.6 55.9 9.1 43.3-46.4z"/><path fill="#7d8288" fill-opacity=".5" d="M148 9h83v19h-83z"/><path fill="#a0a8b0" fill-opacity=".7" d="M186.8 65.5l43.8-.8-22.5-24.5-27.4 5.3z"/><path fill="#aaa9a2" d="M13.2 108.7L.9 86l6.8 59.7-23.7 2z"/><path fill="#130f08" fill-opacity=".3" d="M261.2 87.6L202 146.8l34.1-47.3-5.6-36.8z"/><path fill="#f7ffff" fill-opacity=".4" d="M175.4 117.5l7-6.8 19.5 50.5-13.5-5.8z"/><path fill="#181927" fill-opacity=".4" d="M205.2 123.8l5.7 19-27.4-1.1 7.1-16.2z"/><path fill="#000d1a" fill-opacity=".6" d="M191 95.2l-13 20.1-1.9-49.2 18.2 51.7z"/><path fill="#6d5c47" fill-opacity=".9" d="M107.7 98.9L74.6 60.6l7.1-7.3 23.1 4.8z"/><path fill="#d8eae5" fill-opacity=".5" d="M164 77h10v13h-10z"/><path fill="#863401" fill-opacity=".4" d="M155.7 159.3l-22.8 2.9 9.1-4.1-5-15.5z"/><path fill="#635a57" fill-opacity=".7" d="M257.7 173.6l13.3-14.2-30.8-44.4 3 48.9z"/><path fill="#745b36" fill-opacity=".4" d="M12 94L7 43l-14 4z"/><circle cx="32" cy="72" r="22" fill="#cdd7e2" fill-opacity=".6"/><circle cx="231" cy="99" r="6" fill="#c2c2b9" fill-opacity=".7"/><ellipse cx="24" cy="160" fill="#2a2e27" fill-opacity=".9" rx="21" ry="10"/><circle r="1" fill="#004b9c" fill-opacity=".5" transform="matrix(-.4262 -7.86939 13.59984 -.73654 164 126.2)"/><circle cx="198" cy="98" r="5" fill="#f3ede1" fill-opacity=".6"/><path fill="#7f7357" fill-opacity=".6" d="M195 85l-13-34-45-4z"/><path fill="#948d85" fill-opacity=".9" d="M47.3 185l7.6-19.3 40-22.3L72.1 185z"/><path fill="#5b515e" d="M-16 175.6l9.9 9.4 20.8-56.6 5.6 16.9z"/><path fill="#fffff8" fill-opacity=".6" d="M101.8 27.4l-2.5-4.3 52.9-30.5 2.5 4.3z"/><ellipse cx="191" cy="31" fill="#d8d8c6" fill-opacity=".8" rx="43" ry="3"/><path fill="#b18369" d="M252.6 183.2l-45.5-39.9-10.1 40.9 50.3.8z"/><path fill="#5d584a" fill-opacity=".6" d="M86 118l-6 15 51 6z"/><path fill="#00040b" fill-opacity=".3" d="M190.8 36.5l38.6-1.4-43.1 9.9-19.7 9.2z"/><path fill="#d9d4da" fill-opacity=".5" d="M160 143l16 30-54-49z"/><circle r="1" fill="#5a6261" fill-opacity=".5" transform="rotate(96.7 85.1 99.3) scale(3.49035 27.10588)"/><path fill="#99a29f" fill-opacity=".7" d="M185.4 73.5l10.3 13.2-5.5 3-5.6-2.1z"/><path fill="#041327" fill-opacity=".1" d="M58.7 46l-72.1-23.1 51.1-.7 63.4 16.4z"/><path fill="#3e1900" fill-opacity=".3" d="M172.9 134.6l-16.8 20.5 14.9.5-16-29.1z"/><ellipse cx="237" cy="111" fill="#68462c" fill-opacity=".4" rx="58" ry="4"/></g></svg>