<svg xmlns="http://www.w3.org/2000/svg" viewBox="0 0 300 199"><defs/><path fill="#5b4c3a" d="M0 0h300v199H0z"/><g transform="translate(.6 .6) scale(1.17188)"><circle r="1" fill="#daf3fd" fill-opacity=".8" transform="rotate(178.3 53.4 36.7) scale(50.56427 169.10646)"/><ellipse cx="237" cy="55" fill="#daf2fe" fill-opacity=".7" rx="25" ry="68"/><ellipse cx="197" cy="161" fill="#000007" fill-opacity=".7" rx="57" ry="56"/><circle r="1" fill="#080100" fill-opacity=".8" transform="matrix(-31.2 .59907 -3.87236 -201.6753 5.5 68.5)"/><circle r="1" fill="#8f9d9a" fill-opacity=".9" transform="rotate(168.3 102.3 10.5) scale(58.24736 25.54083)"/><circle r="1" fill="#090a10" fill-opacity=".8" transform="matrix(-18.24238 2.17525 -10.20667 -85.59653 200.4 117.1)"/><path fill="#bcddff" fill-opacity=".5" d="M173.8 107.7L187 67.9l-20.8 26 4 17z"/><ellipse cx="149" cy="126" fill="#e8fbff" fill-opacity=".3" rx="9" ry="156"/><ellipse cx="71" cy="21" fill="#fff" fill-opacity=".2" rx="22" ry="159"/><path fill="#d4e4eb" fill-opacity=".4" d="M220 41h36v81h-36z"/><path fill="#605238" fill-opacity=".4" d="M30 53h32v102H30z"/><ellipse cx="239" cy="154" fill="#000003" fill-opacity=".8" rx="81" ry="22"/><path fill="#7d8a85" fill-opacity=".5" d="M244.9 131.2l-24.9-2.6 3.1-29.8 24.9 2.6z"/><path fill="#6e6258" fill-opacity=".7" d="M155 39l22-41 5 88z"/><ellipse cx="133" cy="82" fill="#6d9190" fill-opacity=".4" rx="4" ry="138"/><path fill="#3c3022" fill-opacity=".8" d="M214.5 89.8l-1.6-67.1L178 33.9l-7.1 4.1z"/><path fill="#60787f" fill-opacity=".4" d="M151 185l11-81-44 81z"/><path fill="#deeef5" fill-opacity=".5" d="M100 121l-33 51L57-6z"/><path fill="#0f1e2d" fill-opacity=".8" d="M173.7 74.7L159.2 50l5.5 71.4-4.1-6.7z"/><path fill="#6e634b" fill-opacity=".5" d="M45 91h19v79H45z"/><ellipse cx="190" cy="114" fill="#000713" fill-opacity=".7" rx="17" ry="32"/><path fill="#b0bbbc" fill-opacity=".5" d="M161 37h11v18h-11z"/><path fill="#f9ffff" fill-opacity=".4" d="M229 42h25v42h-25z"/><path fill="#000b1a" fill-opacity=".5" d="M248 119l-19 3 42 16z"/><ellipse cx="32" cy="103" fill="#302517" fill-opacity=".5" rx="8" ry="169"/><path fill="#d9f1ff" fill-opacity=".6" d="M179 84l-9 2 1 25z"/><ellipse cy="113" fill="#050000" fill-opacity=".7" rx="16" ry="169"/><path fill="#e0edf4" fill-opacity=".4" d="M134-12l33-3-29 82z"/><path fill="#7e7256" fill-opacity=".6" d="M44.6 16.4l13-.7 3.8 74-13 .6z"/><circle r="1" fill="#8f5f51" fill-opacity=".5" transform="matrix(1.11765 13.97682 -10.05949 .8044 179.3 66.4)"/><ellipse cx="165" cy="118" fill="#052b51" fill-opacity=".6" rx="6" ry="17"/><path fill="#050202" fill-opacity=".3" d="M206.4 30.3l-34.1 20.6 2.3-35.4-20.3 18.1z"/><circle r="1" fill="#92abb1" fill-opacity=".4" transform="rotate(-2 1049.4 -2985.3) scale(3.77813 165.25924)"/><ellipse cx="118" cy="95" fill="#ddebf0" fill-opacity=".6" rx="4" ry="103"/><ellipse cx="151" cy="116" fill="#e4f4ff" fill-opacity=".2" rx="9" ry="28"/><path fill="#dcf3ff" fill-opacity=".2" d="M190.1 22.3L208.6-8l19.8 28.4 2.8 11.8z"/><path fill="#886b43" fill-opacity=".4" d="M206 39h9v38h-9z"/><path fill="#040705" fill-opacity=".3" d="M151.1 185l-2.5-31.6-3.2-6.6-11.8 32.2z"/><path fill="#0d131d" fill-opacity=".6" d="M158.8 76.3l47.5 7.3-35.3-.4-4.6-25.4z"/><path fill="#7e8d91" fill-opacity=".9" d="M264.4 1.1L218.5-16l8 31.8 44.5-10z"/><path fill="#a4afae" fill-opacity=".5" d="M188.7 29.7l-17.4 4.7 23.4-17 45.7-2.1z"/><path fill="#b8c9d2" fill-opacity=".8" d="M260.9 118.8l-26.6-9.7L271 77.3l-20.1-14.4z"/><ellipse cx="127" cy="16" fill="#4d7a77" fill-opacity=".1" rx="8" ry="59"/><path fill="#02070f" fill-opacity=".7" d="M211.6 179.9l-56.4-29.4 1.5-10.8 62.8-39.1z"/><path fill="#ced9da" fill-opacity=".5" d="M158 7h5v18h-5z"/><path fill="#170802" fill-opacity=".3" d="M182.1 70.1L159.3-16l4.4 41.3 29.1 16.9z"/><path fill="#cee0e4" fill-opacity=".5" d="M137.1 162.6l-24 1.7-2.2-33 24-1.6z"/><circle r="1" fill="#d9e7ef" fill-opacity=".6" transform="matrix(7.57232 -16.6677 13.23321 6.012 80.7 157.8)"/><ellipse cx="170" cy="53" fill="#d5ac9f" fill-opacity=".4" rx="4" ry="18"/><path fill="#d0d1ee" fill-opacity=".2" d="M219.5 126.7l47.9 11.6-27.1-10.1 10.1.6z"/><circle r="1" fill="#555246" fill-opacity=".5" transform="rotate(-80.3 111 -70) scale(12.50749 4.60845)"/><path fill="#788f96" fill-opacity=".3" d="M131.7 75.9l21.5 98.2 10.2-91.7-23.7 87.4z"/><path fill="#766132" fill-opacity=".4" d="M229.6 125.3l3-31.2 6.9 9.5-9.9 4.7z"/><path fill="#a8bfc9" fill-opacity=".5" d="M220 40h8v80h-8z"/><path fill="#768990" fill-opacity=".5" d="M239.5 114.1l-8 15.8 22.4-16.5-3.8-4.2z"/><ellipse cx="73" cy="4" fill="#d3e4ea" fill-opacity=".4" rx="16" ry="132"/><circle r="1" fill="#e5f0f5" fill-opacity=".5" transform="matrix(4.2193 -.2079 3.10188 62.95075 144 59.1)"/><path fill="#fff" fill-opacity=".5" d="M216 41h2v53h-2z"/><path fill="#281d16" fill-opacity=".7" d="M212 25.8l-34.1 8.4-8.4 15.5.1 1.2z"/><path fill="#030912" fill-opacity=".5" d="M154 185l65-80-23-55z"/><path fill="#a99f84" fill-opacity=".5" d="M213 13h2v74h-2z"/><path fill="#857a62" fill-opacity=".5" d="M53 23h6v83h-6z"/><ellipse cx="241" cy="75" fill="#a9bcc7" fill-opacity=".5" rx="2" ry="47"/><path fill="#727963" fill-opacity=".5" d="M177.8 31.9l12-16.6L171.2-16l1.4 50.9z"/><path fill="#b6afb1" fill-opacity=".5" d="M172 76.6l14.9-6 1 2.8-14.8 6z"/></g></svg>