<svg xmlns="http://www.w3.org/2000/svg" viewBox="0 0 300 199"><defs/><path fill="#434542" d="M0 0h300v199H0z"/><g transform="translate(.6 .6) scale(1.17188)"><circle r="1" fill="#c8c6bc" fill-opacity=".8" transform="matrix(-15.27384 122.62568 -148.06408 -18.44236 90.1 75.8)"/><circle r="1" fill="#181d00" fill-opacity=".5" transform="matrix(19.18322 6.38727 -19.578 58.79966 73.3 76)"/><circle r="1" fill="#4a433d" fill-opacity=".8" transform="rotate(-17 440.1 -637.6) scale(17.65024 112.68777)"/><ellipse cx="146" cy="151" fill="#fffffe" fill-opacity=".7" rx="56" ry="71"/><circle r="1" fill="#a3a8a5" fill-opacity=".9" transform="matrix(-29.8815 -31.704 17.26044 -16.26823 225 67.5)"/><ellipse cy="125" fill="#edfaff" fill-opacity=".6" rx="44" ry="48"/><circle r="1" fill="#000100" fill-opacity=".6" transform="matrix(34.03783 -7.30864 1.14676 5.3407 119 41.3)"/><ellipse cx="34" cy="28" fill="#fff" fill-opacity=".4" rx="35" ry="43"/><path fill="#001400" fill-opacity=".4" d="M34 71h46v34H34z"/><ellipse cx="85" fill="#757260" rx="16" ry="42"/><path fill="#45453e" fill-opacity=".7" d="M206 154l65-48-87-25z"/><path fill="#723a1e" fill-opacity=".5" d="M163.7 78l-44.3 7.8-3.1-17.8 44.3-7.8z"/><ellipse cx="160" cy="113" fill="#52514a" fill-opacity=".4" rx="55" ry="5"/><path fill="#efefeb" fill-opacity=".7" d="M65 154h143v16H65z"/><path fill="#0a0000" fill-opacity=".5" d="M179 0h13v51h-13z"/><path fill="#fffaf4" fill-opacity=".5" d="M127.9-11.3l4.1 40.4-34 13.6 2.5-27.8z"/><path fill="#f0ede8" fill-opacity=".6" d="M86.4 113.7l10.3-61.4 8.7 29.1 81.1 26.1z"/><path fill="#010000" fill-opacity=".5" d="M86 78h4v74h-4z"/><path fill="#fff" fill-opacity=".5" d="M79 69h8v20h-8z"/><path fill="#371609" fill-opacity=".5" d="M172 60h34v13h-34z"/><path fill="#dfcdc3" fill-opacity=".8" d="M136.6 8.7l49.2 45.9-23.3 10.3.7-70z"/><ellipse cx="169" cy="85" fill="#fdf7ee" fill-opacity=".7" rx="10" ry="18"/><circle r="1" fill="#d9dedf" fill-opacity=".5" transform="matrix(28.37914 7.39299 -2.37245 9.10703 226 83.3)"/><path fill="#0d0c00" fill-opacity=".6" d="M29.3 181.3l-5.1-3 12.5-21.6 5.1 3z"/><path fill="#443a26" fill-opacity=".6" d="M57.4 185l28-155.6-20.5 14.9L80.8-16z"/><path fill="#e0e0da" fill-opacity=".7" d="M70.4 136.9l-2.3-22.4 18.6 6.7-6.5 63.8z"/><path fill="#080e00" fill-opacity=".6" d="M107 52l-22 3 32-18z"/><ellipse cx="90" cy="27" fill="#e8f6f8" fill-opacity=".6" rx="4" ry="11"/><circle r="1" fill="#21160c" fill-opacity=".6" transform="matrix(-7.08 51.09838 -1.96979 -.27293 95.6 31.6)"/><path fill="#fffaf7" fill-opacity=".7" d="M252 154h4v12h-4z"/><path fill="#5a453a" fill-opacity=".9" d="M163 62.6l-11.2-2.5 5.4-9.7 2.4 1.7z"/><path fill="#d4b794" fill-opacity=".5" d="M47 40h23v27H47z"/><circle r="1" fill="#98a09f" fill-opacity=".6" transform="rotate(-22 200.5 -523.8) scale(16.7287 30.77447)"/><path fill="#7c7d70" fill-opacity=".9" d="M80.5 144.2l-35.1-13.3 8 36.5 6.6-37.3z"/><path fill="#55433b" fill-opacity=".5" d="M81 185l11.9-51.8L73.7 185l6.6-16z"/><circle r="1" fill="#d4dedc" fill-opacity=".4" transform="matrix(-10.84026 3.81746 -25.71701 -73.02742 24.3 97.6)"/><circle r="1" fill="#f9f2ed" fill-opacity=".5" transform="matrix(.00449 -5.76389 12.86443 .01001 140 50.1)"/><path fill="#291d17" fill-opacity=".7" d="M189 6.5h-24v-13h24z"/><circle r="1" fill="#2e5155" fill-opacity=".5" transform="rotate(143.8 14.6 4.8) scale(4.9672 10.64501)"/><path fill="#4d5d43" fill-opacity=".9" d="M54 73.1l-24.2 3L54.4 129l24.1-21.9z"/><path fill="#264200" fill-opacity=".5" d="M136 28l-11 19 32-13z"/><ellipse cx="99" cy="116" fill="#777973" fill-opacity=".4" rx="42" ry="4"/><path fill="#453c31" fill-opacity=".5" d="M123-3L99 14l16-30z"/><path fill="#0c0d01" fill-opacity=".6" d="M226.2 153.9L201 185l13.2-17.4 30.9-2.6z"/><path fill="#e1dcd5" fill-opacity=".7" d="M102.7 11.4l9.8-8.1 35 24.9-51 10.1z"/><path fill="#af8a76" fill-opacity=".5" d="M87 79l75-14-36-15z"/><circle r="1" fill="#cdbeb1" fill-opacity=".4" transform="matrix(-3.10262 -.49992 4.2942 -26.65077 83.4 54.3)"/><path fill="#514b42" fill-opacity=".5" d="M179 97h67v7h-67z"/><path fill="#dbd6d0" fill-opacity=".6" d="M64.7 3.9l9.7 7.5-31 65.4L-16 15.6z"/><circle r="1" fill="#e6e0d7" fill-opacity=".5" transform="matrix(-1.13458 -3.5551 29.59963 -9.44645 119.3 52.4)"/><circle r="1" fill="#4c5154" fill-opacity=".7" transform="matrix(14.96494 -10.09398 25.38442 37.63395 223.8 0)"/><circle cx="2" cy="114" r="5" fill="#412d26" fill-opacity=".4"/><path fill="#200f08" fill-opacity=".5" d="M191 56l-19-19V12z"/><path fill="#f1f0eb" fill-opacity=".6" d="M213 180L90 122l101-8z"/><path fill="#736957" fill-opacity=".5" d="M69.4 121.1l-9.3 47.8 22.6-34.7-22.9 10.3z"/><path fill="#92a0a6" fill-opacity=".5" d="M-16.4 185.2l-5-4.8 51.8-55.6 5 4.8z"/><path fill="#3c281d" fill-opacity=".5" d="M116.2 83.8l12.1-.5 31.8-8.9-50.9 4.2z"/><path fill="#2b2b0c" fill-opacity=".6" d="M79 64l49-27-37 3z"/><path fill="#f8fcf9" fill-opacity=".5" d="M-12.8 185h8.1l49.3-39.9 2.4-30z"/><path fill="#ecece3" fill-opacity=".5" d="M66 117l17-6 2-11z"/><path fill="#fcf4ed" fill-opacity=".4" d="M149.7-16l20.4 53-39.9-5.7 22.5 3.2z"/><ellipse cx="73" cy="62" fill="#1c0800" fill-opacity=".3" rx="5" ry="45"/><path fill="#4b392f" fill-opacity=".6" d="M171.3 66.4l20.1-13 9.3 14.2-20.1 13z"/><path fill="#f3ebe2" fill-opacity=".7" d="M166.3 50.8l-6.2 35.5-24.3 5.3 35.6-23.8z"/><circle r="1" fill="#bdc2c1" fill-opacity=".5" transform="rotate(-162.3 125.6 24) scale(41.80142 9.58267)"/></g></svg>