<svg xmlns="http://www.w3.org/2000/svg" viewBox="0 0 300 199"><defs/><path fill="#434444" d="M0 0h300v199H0z"/><g transform="translate(.6 .6) scale(1.17188)"><ellipse cx="135" cy="73" fill="#fff" fill-opacity=".7" rx="151" ry="169"/><ellipse cx="87" cy="83" fill="#242424" fill-opacity=".4" rx="40" ry="25"/><circle r="1" fill="#656565" fill-opacity=".6" transform="matrix(-18.30626 -146.03866 18.6978 -2.3438 60.4 34)"/><circle r="1" fill="#f6f6f6" fill-opacity=".5" transform="matrix(22.17893 -45.53794 98.3722 47.91148 174.7 39.6)"/><circle r="1" fill-opacity=".5" transform="matrix(69.35058 -8.0242 .3504 3.02839 182.2 16.1)"/><ellipse cy="121" fill="#7c7c7c" fill-opacity=".9" rx="11" ry="85"/><circle r="1" fill="#030303" fill-opacity=".5" transform="matrix(-97.4199 -20.82674 .3399 -1.58993 191 127.7)"/><circle r="1" fill="#020202" fill-opacity=".5" transform="rotate(-.9 8084 -7117.6) scale(5.62474 17.39014)"/><ellipse cx="110" cy="81" fill="#090909" fill-opacity=".5" rx="26" ry="11"/><path fill="#f9f9f9" fill-opacity=".6" d="M108 96l-33 41 11-50z"/><circle r="1" fill="#f8f8f8" fill-opacity=".5" transform="matrix(15.21622 -3.02768 18.51285 93.04024 28.6 56.5)"/><circle r="1" fill="#f9f9f9" fill-opacity=".4" transform="matrix(45.84344 20.95683 -10.07051 22.02942 162.4 149.7)"/><path fill="#f3f3f3" fill-opacity=".5" d="M81 28h127v41H81z"/><circle r="1" fill-opacity=".5" transform="rotate(-6.2 286.6 -891.4) scale(110.69357 1.61822)"/><path fill="#848484" d="M129 68.5l-47.1-2.8 45 16.4 13.3-5.5z"/><path fill="#434343" fill-opacity=".9" d="M40.7-16l20 128.4-7.5.8-14.5-109z"/><circle r="1" fill="#f4f4f4" fill-opacity=".5" transform="rotate(164.9 64.1 58.7) scale(25.4186 15.25479)"/><path fill="#191919" fill-opacity=".5" d="M-3.7 92.2L-12 53.1l15.7-3.3L12 88.9z"/><circle r="1" fill="#9b9b9b" fill-opacity=".7" transform="matrix(16.16273 79.21877 -8.34455 1.7025 18.7 169)"/><ellipse cx="255" cy="9" fill-opacity=".6" rx="28" ry="3"/><path fill="#959595" fill-opacity=".5" d="M226.2 63.7l-.4-23 28-.4.4 23z"/><circle r="1" fill="#f5f5f5" fill-opacity=".7" transform="matrix(-72.04278 7.31784 -.63137 -6.2157 184.4 7.3)"/><path fill="#fff" fill-opacity=".4" d="M136 103.8l78.2 16.6-2.1 9.8-78.3-16.6z"/><path fill="#a7a7a7" fill-opacity=".6" d="M78 99l-15.9 1.7L58 61l15.9-1.6z"/><path fill="#f8f8f8" fill-opacity=".5" d="M135 27L271 8l-29 36z"/><circle r="1" fill="#191919" fill-opacity=".5" transform="rotate(-95.8 120.9 -99.8) scale(1 149.78757)"/><path fill="#070707" fill-opacity=".2" d="M115.6 72.1L101 126.5l39.2 58.5-37-12.1z"/><circle r="1" fill="#f0f0f0" fill-opacity=".8" transform="matrix(21.82846 7.99204 -6.8446 18.6945 16.7 12.7)"/><path fill="#020202" fill-opacity=".5" d="M100 91l17 4-26-40z"/><ellipse cx="73" cy="152" fill="#a4a4a4" fill-opacity=".5" rx="15" ry="46"/><circle r="1" fill="#f9f9f9" fill-opacity=".5" transform="rotate(95.6 64 177) scale(4.7539 39.64903)"/><path fill="#2b2b2b" fill-opacity=".5" d="M99.2 109.9L-25.5 81l.3-1 124.7 29z"/><path fill="#f4f4f4" fill-opacity=".5" d="M81.4 39.8L123 25.6 91 59.3l-8.2 31.9z"/><path fill="#e9e9e9" fill-opacity=".6" d="M39 97L7 91l27 62z"/><circle r="1" fill="#0e0e0e" fill-opacity=".5" transform="matrix(.34948 -1.74017 87.41956 17.55648 251.2 140)"/><path fill="#e6e6e6" fill-opacity=".7" d="M245.5 143.6l-3 12.7-112-25.9 3-12.7z"/><path fill="#f7f7f7" fill-opacity=".4" d="M107 108l-8 35-33-34z"/><circle r="1" fill="#f5f5f5" fill-opacity=".4" transform="matrix(72.82571 -3.0996 .5968 14.02183 207.4 76.7)"/><path fill-opacity=".1" d="M173.5 91.5L144.1 110l-7.6-11.6 42.3 9.5z"/><path fill="#9a9a9a" fill-opacity=".5" d="M22.6 52.5l-29.5-2.9 24.8 23.3 11.4-6.7z"/><path fill="#f2f2f2" fill-opacity=".7" d="M73-16L226 7 83 24z"/><path fill="#989898" fill-opacity=".5" d="M124.7 62.2l-31-5.4-2.5 7.6 22 21z"/><ellipse cx="73" cy="26" fill="#747474" fill-opacity=".8" rx="4" ry="30"/><path fill="#ababab" fill-opacity=".7" d="M140.6 185H61.5l71.8-51.7-25.9-5.1z"/><path fill="#fff" fill-opacity=".4" d="M107.6 98.8l49.2-5.4-68.8 12L84.9 90z"/><path fill="#818181" fill-opacity=".5" d="M72 185l-17.3-19.1 28.6-44.5.5-1.7z"/><path fill="#f7f7f7" fill-opacity=".6" d="M5 55L4 39l29-2 1 16z"/><circle cx="111" cy="121" r="6" fill-opacity=".5"/><ellipse cx="217" cy="12" fill-opacity=".4" rx="23" ry="2"/><path fill="#232323" fill-opacity=".5" d="M66.4-12l1-.1L81.6 104l-1 .1z"/><ellipse cx="132" cy="73" fill-opacity=".4" rx="5" ry="4"/><path fill="#eee" fill-opacity=".4" d="M128 118l-9-31-3 51z"/><path fill="#070707" fill-opacity=".5" d="M98 77l-5 17 19-20z"/><circle r="1" fill="#bababa" fill-opacity=".4" transform="matrix(-88.58112 6.66045 -.3245 -4.31572 236.9 44.7)"/><path fill="#797979" fill-opacity=".4" d="M234.2 79.1l1 .1-5.4 43.7-1-.1z"/><circle r="1" fill="#292929" fill-opacity=".6" transform="rotate(-7.9 177 -1792.4) scale(158.44514 1)"/><path fill="#707070" fill-opacity=".6" d="M54 73l6 40 17-10z"/><path fill="#cecece" fill-opacity=".6" d="M124.4 65.9l4.2 13.7-10.3-7.8-12.2-2.3z"/><path fill="#0b0b0b" fill-opacity=".4" d="M95 69l-5 21-5-15z"/><path fill="#898989" fill-opacity=".9" d="M29.6 163.6H-16l31.6 10.7-31.6-50z"/><path fill="#5a5a5a" fill-opacity=".8" d="M117.6 91.9l7.8 2.2 7.5-22.3.7 5.3z"/><circle r="1" fill="#1c1c1c" fill-opacity=".4" transform="matrix(2.98107 -.41366 3.43231 24.73533 42.5 8)"/><path fill="#353535" fill-opacity=".4" d="M-4-3l-12 17L6 55z"/><circle r="1" fill="#aeaeae" fill-opacity=".5" transform="rotate(87.2 33.4 40.9) scale(41.77271 1)"/><path fill="silver" fill-opacity=".4" d="M21 146l-7-57-17 3z"/></g></svg>