<svg xmlns="http://www.w3.org/2000/svg" viewBox="0 0 299 449"><defs/><path fill="#4b3128" d="M0 0h299v449H0z"/><g transform="translate(.9 .9) scale(1.7539)"><circle r="1" fill="#fffcf2" fill-opacity=".7" transform="matrix(49.88678 12.25337 -31.09386 126.59153 106.7 222.4)"/><ellipse cx="125" cy="253" fill="#e4edee" fill-opacity=".8" rx="90" ry="54"/><ellipse cx="58" cy="165" fill="#240f05" fill-opacity=".6" rx="40" ry="32"/><circle r="1" fill="#bd937f" fill-opacity=".4" transform="matrix(51.61098 1.81947 -1.32415 37.56071 70 97.2)"/><circle r="1" fill="#4b2916" fill-opacity=".6" transform="matrix(-9.28476 -1.02044 5.77432 -52.53923 161.2 155.9)"/><path fill-opacity=".7" d="M66 202L-16 30 5 271z"/><circle cx="144" cy="31" r="57" fill="#000202" fill-opacity=".7"/><ellipse cx="21" cy="27" fill="#020000" fill-opacity=".8" rx="31" ry="47"/><path fill="#d6c0a3" fill-opacity=".5" d="M82 71.2l-33.1-44L60 18.9l33.1 44z"/><path fill="#d8b093" fill-opacity=".8" d="M69.6 220.2L67 184.8l-9.3-24.5-5.1 6.9z"/><circle r="1" fill="#f9d6dd" fill-opacity=".5" transform="matrix(10.3758 -19.06958 6.13569 3.33844 30.3 87.7)"/><path fill="#cd9e7e" fill-opacity=".5" d="M132 93h24v110h-24z"/><path fill="#ecd4c1" fill-opacity=".6" d="M148 160l-34 40-33-34z"/><circle r="1" fill="#512c22" fill-opacity=".5" transform="rotate(-18.5 457.5 -124.7) scale(15.06006 51.89168)"/><path fill="#f2c19c" fill-opacity=".5" d="M31 110h11v24H31z"/><path fill="#000301" fill-opacity=".6" d="M65 19h6v48h-6z"/><path fill="#ba9e8b" fill-opacity=".6" d="M87.1 88.3L61 130.7l41.2-40.9-28.6-20.1z"/><ellipse cx="103" cy="208" fill="#eaeeec" fill-opacity=".7" rx="40" ry="16"/><path fill="#b0af8f" fill-opacity=".4" d="M51 21l2-27 41 5z"/><ellipse cx="114" cy="146" fill="#f2fcf3" fill-opacity=".5" rx="13" ry="26"/><path fill="#322312" fill-opacity=".4" d="M110 94.2l-6.2 39.5-11.9-1.9 6.3-39.5z"/><ellipse cx="165" cy="192" fill="#7a6d5b" fill-opacity=".7" rx="22" ry="16"/><ellipse cx="77" cy="54" fill="#f1bda5" fill-opacity=".4" rx="8" ry="19"/><circle r="1" fill="#eff5f8" fill-opacity=".6" transform="rotate(-144.6 66.5 118.8) scale(16.10681 58.14496)"/><path fill="#140d09" fill-opacity=".5" d="M18 139l64-21-1 21z"/><path fill="#382115" fill-opacity=".6" d="M99.3 188.5H68.9l-6.4-30.6 35.8 25.3z"/><path fill="#201d00" fill-opacity=".5" d="M27 89h5v30h-5z"/><path fill="#9a6a5a" fill-opacity=".7" d="M85 165.5l-24.5-29.1 4.6-3.9 24.4 29.1z"/><path fill="#200f09" fill-opacity=".5" d="M157.4 199.4l-6.6-2.3 19.8-54.5 6.6 2.3z"/><path fill="#0a0502" fill-opacity=".5" d="M78.9 95.2L59.3 60.1 62.9 44l20.7 52.1z"/><path fill="#b2bfa4" fill-opacity=".5" d="M100 136l-20 5 8-22z"/><path fill="#acb4ad" fill-opacity=".6" d="M156.3 230.3l-8-25.8 35.4-10.8 8 25.8z"/><circle r="1" fill="#ddbdaa" fill-opacity=".3" transform="matrix(-26.29349 -1.23997 .48015 -10.18145 131.8 103.1)"/><path fill="#a5a995" fill-opacity=".4" d="M54 24h12v26H54z"/><path fill="#0f0806" fill-opacity=".7" d="M52 63V26l-68 52z"/><path fill="#21221f" fill-opacity=".6" d="M95 52l20-56-55 21z"/><path fill="#fff" fill-opacity=".5" d="M31 81h8v12h-8z"/><circle r="1" fill="#100b01" fill-opacity=".5" transform="matrix(-36.2892 50.13156 -14.24471 -10.31145 16.2 244.1)"/><path fill="#1c0a00" fill-opacity=".4" d="M105 170.7l-26.9-38-8.3-4 28.4 40.9z"/><path fill="#ae747c" fill-opacity=".6" d="M51 97l13 13-9-53z"/><circle r="1" fill="#fff9ff" fill-opacity=".3" transform="matrix(3.9223 -9.9066 4.719 1.86839 19.9 99.3)"/><path fill="#613f33" fill-opacity=".8" d="M80.7 77.3L45 121.5l38.3-13.3-31.7-21.4z"/><circle r="1" fill="#0e0903" fill-opacity=".6" transform="matrix(-19.77121 1.71945 -3.69445 -42.48083 170 66.2)"/><path fill="#130b0a" fill-opacity=".7" d="M30.7 118.8l8.2-.1-53.6-34.8L.5 270.5z"/><path fill="#91634a" fill-opacity=".5" d="M152 106h10v34h-10z"/><path fill="#b8826d" fill-opacity=".5" d="M67.7 68L78 49.8 96.3 60 86 78.3z"/><path fill="#c28261" fill-opacity=".3" d="M129.2 198.6l-16.9-7.8-7.4-25.6 61.9 34.2z"/><circle r="1" fill="#c6c5be" fill-opacity=".5" transform="rotate(85.8 -89.8 178.4) scale(43.90218 13.76266)"/><path fill="#938467" fill-opacity=".4" d="M140.7 141.8l1.5 14-23 2.4-1.4-14z"/><path fill="#cb7b56" fill-opacity=".3" d="M5.7 110.1l44 4.3-9.8-26.3-10.3 15.1z"/><path fill="#fef9e9" fill-opacity=".3" d="M86.7 109.9l-8.6-10.2 12.8-9.5 9.5-3z"/><path fill="#c6c9d1" fill-opacity=".5" d="M71 189h10v14H71z"/><ellipse cy="77" fill="#12100b" fill-opacity=".7" rx="21" ry="15"/><path fill="#8a765d" fill-opacity=".6" d="M11.2 69.6l33.5 7.6-31.8 14.1L25.6 79z"/><circle r="1" fill="#482f21" fill-opacity=".6" transform="matrix(-4.53743 3.03755 -15.65024 -23.37805 107.7 71.5)"/><path fill="#0a1100" fill-opacity=".4" d="M45.1 99l3.5-36.5 3.8 22.1-1.5 25.5z"/><path fill="#120907" d="M44.3 136.6l7.3 25.6 1.2 12.4L3 118.1z"/><path fill="#f9fcfa" fill-opacity=".6" d="M131 202l-31-19 2 25z"/><path fill="#ad9479" fill-opacity=".6" d="M89.9-16l-38 35.8.8 19.5 8.5-42.2z"/><path fill="#fff" fill-opacity=".5" d="M32.3 71.3l11.5-6.1 1.9 3.5-11.5 6.1z"/><path fill="#a9ac99" fill-opacity=".4" d="M139 35l-6 14 6-5z"/><path fill="#e9f0ec" fill-opacity=".3" d="M102.6 125.9l-5.2 37.3 36.5-46 17.9-30.1z"/><path fill="#060f01" fill-opacity=".4" d="M65.8 71.3l8.6-15.9-8.6-3.7L46 48.9z"/><circle r="1" fill="#96a3a8" fill-opacity=".2" transform="matrix(5.64412 16.2077 -113.5505 39.54247 155.7 250)"/><circle r="1" fill="#eccec3" fill-opacity=".6" transform="matrix(2.21961 -1.09694 2.65892 5.38022 33.5 127.1)"/></g></svg>