<svg xmlns="http://www.w3.org/2000/svg" viewBox="0 0 299 449"><defs/><path fill="#47492f" d="M0 0h299v449H0z"/><g transform="translate(.9 .9) scale(1.7539)"><circle r="1" fill="#fab188" fill-opacity=".4" transform="matrix(52.49663 -99.1923 41.29062 21.85269 118.6 98.5)"/><ellipse cx="117" cy="245" fill="#000205" fill-opacity=".6" rx="133" ry="43"/><path fill="#eaecfa" fill-opacity=".7" d="M38.4 196l-20.1-9 9.3-21 20.1 9z"/><ellipse cx="55" cy="108" fill="#c3b6aa" fill-opacity=".5" rx="99" ry="12"/><ellipse cx="49" cy="29" fill="#4f1e03" fill-opacity=".5" rx="66" ry="70"/><circle r="1" fill="#bd7d33" fill-opacity=".5" transform="rotate(45.2 17.5 184.9) scale(76.44381 40.84143)"/><ellipse cx="120" cy="133" fill="#f4e8ff" fill-opacity=".4" rx="10" ry="51"/><circle r="1" fill="#876961" fill-opacity=".9" transform="matrix(-7.84947 -40.76172 4.2413 -.81675 124.8 169)"/><ellipse cx="52" cy="144" fill="#272a2f" fill-opacity=".4" rx="59" ry="28"/><circle r="1" fill="#312516" fill-opacity=".8" transform="matrix(7.86404 14.91549 -20.86967 11.00333 84 76)"/><circle cx="166" cy="187" r="35" fill="#0f3130" fill-opacity=".7"/><ellipse cx="4" cy="37" fill="#271607" fill-opacity=".7" rx="21" ry="67"/><path fill="#ffd263" fill-opacity=".4" d="M136 80l35 34-9-63z"/><path fill="#c8cac7" fill-opacity=".6" d="M52.7 175l34.5.7 17.6 17.3-4.4-26.1z"/><path fill-opacity=".3" d="M125 124l5-36 17 13z"/><path fill="#f7fff4" fill-opacity=".5" d="M112.7 127.9l7.4-9.5 25.2 19.7-7.4 9.5z"/><path fill="#0c1214" fill-opacity=".6" d="M104 139l2 73 26 21z"/><circle r="1" fill="#4f2b07" fill-opacity=".5" transform="matrix(-42.97845 -16.584 7.73306 -20.0407 163 0)"/><path fill="#b8bebb" fill-opacity=".9" d="M60.1 173L52 184.9l2.5 7.1 9.8 1.7z"/><path fill="#edeae7" fill-opacity=".5" d="M84.3 162.8l21.1-3.5-12.7-6.2-13.8-1.9z"/><path fill="#502e15" fill-opacity=".7" d="M0 196h104v25H0z"/><path fill="#776758" fill-opacity=".5" d="M62 107l19 36-97-25z"/><path fill-opacity=".5" d="M66.6 163.7l-14.4 16.6-6.8-6 14.4-16.6z"/><path fill="#e2d4d5" fill-opacity=".5" d="M102 185l-38 8 32 3z"/><circle r="1" fill="#984a16" fill-opacity=".6" transform="matrix(6.595 -7.7491 16.59425 14.12281 79.2 47.4)"/><path fill="#2b0000" fill-opacity=".5" d="M61 179l29 9-22 3z"/><path fill="#eaf7ff" fill-opacity=".4" d="M104.5 83.4l13.2 44.7 4.8.4 8.4-33.8z"/><path fill="#746c5c" fill-opacity=".8" d="M57.1 199.9l-44.7-13.2 12.9-20.9 3 37.6z"/><path fill="#7f9e6d" fill-opacity=".5" d="M159 111l-2 62-24-74z"/><path fill="#4e2300" fill-opacity=".7" d="M172.9 159.7l-.8-33.2-13.3-28.7.6 53.6z"/><path fill="#1a2500" fill-opacity=".6" d="M145.2 131.6l-18-23.7 1.7 22.9 7.1-1.2z"/><path fill="#f5dddf" fill-opacity=".5" d="M122 179h9v10h-9z"/><path fill="#461c0d" fill-opacity=".4" d="M98.4 125.9l23.2-26.3-3.1 5.6-13.8 69.1z"/><path fill="#481c00" fill-opacity=".7" d="M139.6 37.9l2.7.6-8.3-9.6L53.7-16z"/><path fill="#b0a59d" fill-opacity=".5" d="M85 134l-47-10 18 15z"/><path fill="#1f0f01" fill-opacity=".5" d="M50 156l42 9-57 8z"/><circle cx="36" cy="71" r="28" fill="#3b3c2c" fill-opacity=".6"/><path fill="#130400" fill-opacity=".6" d="M128.1 97l1-2.7 34.8 12.6-1 2.8z"/><circle r="1" fill="#ffd6de" fill-opacity=".7" transform="matrix(3.71204 3.41282 -2.81333 3.05999 75 117)"/><circle r="1" fill="#050c0c" fill-opacity=".7" transform="matrix(44.4029 6.34755 -3.05891 21.39795 27 243)"/><path fill="#3f2006" fill-opacity=".5" d="M95.7 192.9l15.8 74.3-37.2 8-15.8-74.4z"/><path fill="#dee3ee" fill-opacity=".6" d="M69 169h27v4H69z"/><circle r="1" fill="#452b24" fill-opacity=".5" transform="matrix(3.65517 19.34443 -2.8088 .53073 122.3 166)"/><path fill="#f1fafd" fill-opacity=".4" d="M47.2 168.7l-7.6 24.8-13.3-28.9 14.8 8.5z"/><path fill="#ada484" fill-opacity=".6" d="M26 121l-1-22 49-4z"/><path fill="#d0fdeb" fill-opacity=".2" d="M116 49.1l16.6 9.6-10-26.4L97.4 9.1z"/><path fill="#94430d" fill-opacity=".4" d="M114 58h29v26h-29z"/><path fill="#4a2615" fill-opacity=".6" d="M46.8 104.6L-16 46.1l86.4 80.5-19.9-.5z"/><path fill="#d4dde7" fill-opacity=".6" d="M96 174h10v11H96z"/><path fill="#1e2620" fill-opacity=".5" d="M21.2 118.1l23 20.8-49.4 55-23-20.8z"/><path fill="#823e28" fill-opacity=".6" d="M107.9 138.6l1.8 29.1 18.3 48-14-52.5z"/><path fill="#fdeeef" fill-opacity=".4" d="M127 132h3v69h-3z"/><path fill="#f39539" fill-opacity=".3" d="M164.3 113.1l8.3 28.9 13.4-30.3-53-26.2z"/><circle r="1" fill="#0b2222" fill-opacity=".7" transform="matrix(9.49615 -26.199 32.8094 11.89217 141 232.1)"/><circle r="1" fill="#1f170a" fill-opacity=".4" transform="matrix(6.11745 -10.46877 59.845 34.9706 39.5 46.6)"/><path fill-opacity=".5" d="M47 173l10 22-12-2z"/><path fill="#20271d" d="M133.1 176.8l16.4 87.6-20.3-102.5 32.9 1.8z"/><ellipse cx="110" cy="71" fill="#f7d7e9" fill-opacity=".5" rx="3" ry="9"/><circle r="1" fill="#b69970" transform="matrix(5.8392 -1.5909 2.41754 8.87328 151 61.7)"/><path fill="#4a1701" fill-opacity=".4" d="M84.1 186.3l-12.8-16.5 23.7 11 1 3.8z"/><path fill="#fef4f7" fill-opacity=".5" d="M118.7 159l-6.6-26 3.9 39.3 4.6-7.4z"/><path fill="#d1b3ac" fill-opacity=".5" d="M132.2 195.9l-20.6-38.5 19.6 46.1 8.4-.9z"/><path fill="#333117" fill-opacity=".6" d="M91.1 151.2l-30 .6-.2-13 30-.6z"/><path fill="#79552b" d="M186 64.8L161-2l12.5 69.1-21.2-30.3z"/><path fill="#301d0a" fill-opacity=".6" d="M-4 169l28 25-40 24z"/></g></svg>