<svg xmlns="http://www.w3.org/2000/svg" viewBox="0 0 300 199"><defs/><path fill="#303c5c" d="M0 0h300v199H0z"/><g transform="translate(.6 .6) scale(1.17188)"><circle r="1" fill="#edd4b0" fill-opacity=".7" transform="rotate(92.9 -24.8 72.5) scale(255 91.70564)"/><circle r="1" fill="#eff5fb" fill-opacity=".8" transform="matrix(-12.79834 31.677 -26.66828 -10.77469 232.8 159.8)"/><circle r="1" fill="#f1ca94" fill-opacity=".6" transform="matrix(78.9217 11.79493 -2.22344 14.87741 169.8 14.4)"/><circle r="1" fill="#431100" fill-opacity=".6" transform="rotate(84 5.6 142.4) scale(26.70279 58.45837)"/><path fill="#dfc19d" d="M220 168L73 185l48-41z"/><circle r="1" fill="#eaf0ff" fill-opacity=".5" transform="matrix(13.9657 -56.74765 56.22539 13.83717 32 134)"/><circle r="1" fill="#0f0800" fill-opacity=".8" transform="matrix(-11.91717 -14.07062 11.78015 -9.97725 144 43.8)"/><path fill="#7a4000" fill-opacity=".5" d="M69 60h50v30H69z"/><path fill="#bd8d60" fill-opacity=".4" d="M211.1 132.6l21.6-122 50.2 8.8-21.6 122z"/><ellipse cx="194" cy="65" fill="#311b00" fill-opacity=".5" rx="18" ry="101"/><path fill="#dad2b9" fill-opacity=".5" d="M177.4 1.1L171.5 86l-15-1 6-84.8z"/><path fill-opacity=".5" d="M194 36h31v66h-31z"/><circle cx="141" r="28" fill="#c9bdb3"/><path fill="#5b8770" fill-opacity=".9" d="M9 112.2l-17.4 17.7 18.8-75.5-12.9 17.8z"/><path fill="#d7cacb" fill-opacity=".8" d="M118.2 106l23.5-10.2 6.5-9.2-22.8-29.2z"/><path fill="#7c9cb9" fill-opacity=".5" d="M198 103h30v32h-30z"/><path fill="#2e0e01" fill-opacity=".7" d="M248.2 74.6l-18.7-21.4 13.2-10.1 11.9-26.3z"/><circle r="1" fill="#211200" fill-opacity=".6" transform="matrix(12.90716 -20.74186 32.4954 20.2211 165.1 129.2)"/><circle r="1" fill="#cffefa" fill-opacity=".6" transform="matrix(-11.31859 -1.38308 3.44829 -28.21953 18.7 78.6)"/><path fill="#8f4c04" fill-opacity=".4" d="M80 165l89-111 7 42z"/><circle r="1" fill="#ffda8e" fill-opacity=".5" transform="matrix(-20.4491 5.2247 -1.54817 -6.05943 212.5 27)"/><path fill="#7b1704" fill-opacity=".6" d="M52.4 113l7.8 11.6-6.6 4.4-7.8-11.6z"/><ellipse cx="111" cy="112" fill="#b57b36" fill-opacity=".5" rx="13" ry="35"/><path fill="#e9fdff" fill-opacity=".7" d="M37 127.2L13.7 188-5 180.8 18.3 120z"/><path fill="#c9adb4" fill-opacity=".4" d="M257 78l-23-16-7 48z"/><path fill="#70583e" fill-opacity=".6" d="M270.4 37.5l-92-39 15.2-36 92 39z"/><path fill="#e4d3cf" d="M35.2 183.7l38.3-93.4 30.8 4.4-8.9 9.3z"/><path fill="#90d4ff" fill-opacity=".5" d="M161 30h16v25h-16z"/><path fill="#320907" fill-opacity=".4" d="M36 140l-8 14 11 7z"/><path fill="#ec9b72" fill-opacity=".4" d="M213.3 44l14 28.8 37.6 2.2-64.4-24.8z"/><path fill="#8f5330" fill-opacity=".5" d="M145 74l34-9-59-18z"/><path fill="#5b7447" fill-opacity=".4" d="M63.7 66.5l-2.4 42.2 2.1-3.3 11.1.7z"/><circle r="1" fill="#b6865f" fill-opacity=".6" transform="rotate(-162.1 44.1 78) scale(5.34772 24.60346)"/><ellipse cx="215" cy="113" fill="#000c1a" fill-opacity=".4" rx="31" ry="4"/><circle r="1" fill="#090300" fill-opacity=".2" transform="rotate(157.3 66.5 77.1) scale(41.79453 30.27957)"/><path fill="#ffd1c9" fill-opacity=".5" d="M205 104l-12-6-2 8z"/><circle r="1" fill="#090601" fill-opacity=".6" transform="matrix(15.53109 11.03737 -9.04821 12.73207 212.2 87)"/><path fill="#011827" fill-opacity=".4" d="M182.4 22.8l-3.6 7.4-54.4 2.5 16.6-5.6z"/><path fill="#3a1f00" fill-opacity=".4" d="M2.1 98.1l22 23 1.7-14.6-41.8 12.7z"/><path fill="#fff5a8" fill-opacity=".6" d="M251 67l20 19-9-62z"/><circle r="1" fill="#af9b83" fill-opacity=".5" transform="matrix(10.42967 28.21136 -112.13195 41.45488 30.4 18.1)"/><path fill="#07233c" fill-opacity=".4" d="M-6.1 159.2l-9.5 9.3 29.2-29.7-6.7-3z"/><path fill="#7e460e" fill-opacity=".4" d="M74.2 125l20.6 12L161 90l-57.9 22.3z"/><path fill="#85bfa0" fill-opacity=".5" d="M75.2 61L-16 82.8l75.1-8 24.7 7z"/><path fill="#d1e0f4" fill-opacity=".4" d="M217 127h39v42h-39z"/><circle r="1" fill="#f4dde4" fill-opacity=".6" transform="rotate(174.9 18 66) scale(7.36744 55.59499)"/><path fill="#d7c3b7" fill-opacity=".5" d="M91 12h34v49H91z"/><circle r="1" fill-opacity=".4" transform="matrix(-4.2644 -.14674 1.56485 -45.47567 178.5 81.5)"/><path fill="#8c6134" fill-opacity=".5" d="M183 23h11v51h-11z"/><path fill="#dddffe" fill-opacity=".3" d="M111.8 83.4l23.7-32.7L146 93.8l-43-8.1z"/><path fill="#956710" fill-opacity=".3" d="M83 150h18v17H83z"/><path fill="#1f1611" fill-opacity=".7" d="M120.9 144.1L199 162l8.9-8.4-35-41z"/><path fill="#060100" fill-opacity=".6" d="M145.6 71.7l-3.5.3L160 28.7l-33.9 1.7z"/><path fill="#8d4e18" fill-opacity=".6" d="M76.6 69.7l9.8-9.9L113 94.4l-25.9-4.7z"/><path fill="#ecd0b1" fill-opacity=".5" d="M137 185l42.6-20.2-116.1-36.5L36 89.9z"/><circle r="1" fill="#b67e55" fill-opacity=".6" transform="rotate(-164.4 107.8 68.6) scale(26.77981 2.735)"/><path fill="#d1e3e8" fill-opacity=".6" d="M30.7 105.8l49.9-13.9-47.5-8 35.6-20.8z"/><circle r="1" fill="#2c4a62" fill-opacity=".6" transform="rotate(174.6 99.6 73) scale(11.67458 7.38894)"/><path fill="#5e6534" fill-opacity=".6" d="M43 68l7-10 7 18z"/><ellipse cx="29" cy="99" fill="#5c8263" fill-opacity=".5" rx="3" ry="10"/><path fill="#dfeeed" fill-opacity=".6" d="M33.4 89.2L5.8 61.8l.7-6.4 56 48.1z"/><circle r="1" fill="#eebf78" fill-opacity=".5" transform="matrix(.8085 2.2464 -14.98598 5.3936 103.4 109.3)"/><path fill="#ff6c5b" fill-opacity=".3" d="M40.8 135.1l14.8-33.8L67 125.1l-50.8-16.3z"/><path fill="#fff" fill-opacity=".5" d="M37 63h9v7h-9z"/><path fill="#136937" fill-opacity=".6" d="M7.1 75.5l-3.3 2.8-3.1-15 8.1 2.8z"/></g></svg>