<svg xmlns="http://www.w3.org/2000/svg" viewBox="0 0 300 199"><defs/><path fill="#5f402e" d="M0 0h300v199H0z"/><g transform="translate(.6 .6) scale(1.17188)"><circle r="1" fill="#f6f9fe" fill-opacity=".7" transform="rotate(-30.4 353.8 -310.4) scale(29.57917 44.40891)"/><path fill="#f2e2c8" fill-opacity=".5" d="M34 78l90-94 15 201z"/><path fill="#8a745a" fill-opacity=".8" d="M271 2l-88 137 20-155z"/><path fill="#fffee7" fill-opacity=".3" d="M115 17L96 185l58-98z"/><circle r="1" fill="#f6ffff" fill-opacity=".7" transform="matrix(15.74557 34.73078 -18.7463 8.49884 219 158.8)"/><circle r="1" fill="#8a6e56" fill-opacity=".7" transform="rotate(55.9 -91.7 137.5) scale(84.87378 27.5023)"/><ellipse cx="247" cy="120" fill="#4c4e77" fill-opacity=".7" rx="19" ry="39"/><circle r="1" fill="#00010d" fill-opacity=".4" transform="rotate(20.6 -363.8 466) scale(22.5052 37.59287)"/><path fill="#faffff" fill-opacity=".4" d="M235.3 117.4l-30.4-52.5 4.1 11.4-3.6 61.7z"/><circle r="1" fill="#836243" fill-opacity=".6" transform="matrix(-57.07677 39.14631 -10.22349 -14.90622 104.3 10.7)"/><path fill="#bd9889" fill-opacity=".8" d="M176.8 101.3l-17.5 9.2 25 49.3 17.4 17.6z"/><path fill="#998d78" fill-opacity=".9" d="M266.6 24.8L193.9-16 271 66.4l-25.7 2.4z"/><path fill="#f7c9af" fill-opacity=".6" d="M119.4 173.1L70.9 185l16-7.7 21.3-33z"/><circle r="1" fill="#444033" fill-opacity=".7" transform="rotate(-40.7 187 -206.6) scale(39.04129 18.09523)"/><path fill="#e6daec" fill-opacity=".5" d="M267 106l-7-14-43 1z"/><circle r="1" fill="#d2c1a9" fill-opacity=".6" transform="matrix(19.3311 .36836 -.48047 25.21445 81.6 75.5)"/><circle r="1" fill="#001b1d" fill-opacity=".3" transform="rotate(-79.5 24.8 20.6) scale(134.22261 39.5539)"/><circle r="1" fill="#b89487" fill-opacity=".6" transform="rotate(28.8 -222.8 342.3) scale(2.5549 46.11855)"/><circle r="1" fill="#4b3215" fill-opacity=".5" transform="matrix(-13.71334 7.66413 -50.80092 -90.89755 137.7 14.1)"/><ellipse cx="237" cy="69" fill="#22191c" fill-opacity=".6" rx="11" ry="22"/><ellipse cx="239" cy="126" fill="#2f304c" fill-opacity=".8" rx="9" ry="23"/><circle r="1" fill="#705436" fill-opacity=".9" transform="rotate(-121.2 100 -40.9) scale(30.71323 21.9872)"/><path fill="#261b10" fill-opacity=".3" d="M10.1-2.3L48 89.1l32.3 55.7L58 61.9z"/><path fill="#ecf2ff" fill-opacity=".5" d="M133.4 123.3l-2.3-34.7-21.1 46.3 8.8 16z"/><path fill="#974f18" fill-opacity=".5" d="M138 101l7-74-24-25z"/><circle r="1" fill="#502c16" fill-opacity=".4" transform="rotate(176.8 43.3 63.7) scale(4.67337 35.07222)"/><path fill="#d2bca2" fill-opacity=".5" d="M119 54V12L85-16z"/><ellipse cx="149" cy="167" fill="#000e10" fill-opacity=".7" rx="15" ry="25"/><ellipse cx="172" cy="89" fill="#596863" fill-opacity=".6" rx="19" ry="15"/><path fill="#8b705a" fill-opacity=".6" d="M47.9 153.4l-63.9.2 66.2 14.9 58.7-8.6z"/><path fill="#a2a790" fill-opacity=".6" d="M172.8-4l7.7-17.3L237.2 4l-7.7 17.4z"/><path fill="#f4fcff" fill-opacity=".4" d="M233 107.1l-9.8 38.8-28.1-7 9.7-38.8z"/><path fill="#87a8aa" fill-opacity=".5" d="M170 147.5l15.4 38-7.4 3-15.4-38z"/><path fill="#050b11" fill-opacity=".5" d="M149 44h8v72h-8z"/><path fill="#cab38e" fill-opacity=".6" d="M239 44l32 30V52z"/><path fill="#242123" fill-opacity=".5" d="M216 98h26v7h-26z"/><path fill="#b56622" fill-opacity=".5" d="M210.7 53.3l22 11.7-9.4 17.7-22-11.7z"/><path fill="#4e352e" fill-opacity=".8" d="M174 86.6l-10.9 16.5-47 58.7-2.2-8.7z"/><path fill="#bd9263" fill-opacity=".6" d="M132 93l18 21-10-71z"/><path fill="#f5faff" fill-opacity=".6" d="M202 180l17-69 30 68z"/><path fill="#fff7ff" fill-opacity=".5" d="M253 85h3v16h-3z"/><path fill="#af7c58" fill-opacity=".4" d="M125 110l-58 5 54-38z"/><path fill="#0f0300" fill-opacity=".6" d="M185.6 65.6l25.1-1-8.7-7.1-12.5-4.4z"/><path fill="#4f3d30" fill-opacity=".5" d="M-2 5l99 26 6-27z"/><path fill="#d8c5a9" fill-opacity=".3" d="M29.6 63.5l26.8 30 1 13.2L36.9 89z"/><path fill="#b7d5fd" fill-opacity=".7" d="M157.3 88.8l4-.5 1.4 10.9-4 .5z"/><path fill="#a68564" fill-opacity=".6" d="M64 48.2l29.6-7-40.8 16.1-7.5-31.5z"/><path fill="#734522" fill-opacity=".5" d="M273.6 40.8l-5.4 12.9-71.8-30.5 5.4-12.9z"/><path fill="#cecdd0" fill-opacity=".5" d="M201 125l-28-3 35 63z"/><path fill="#d0c4b2" fill-opacity=".5" d="M93.5 64.5l43.4 10.4-26.5-34.8-24 8.4z"/><path fill="#1b1c1c" fill-opacity=".4" d="M170.1 112.5l-1.2-55.2-29.3-25.4-2.1 6.1z"/><ellipse cx="151" cy="156" fill="#09110f" fill-opacity=".7" rx="10" ry="27"/><path fill="#aa936f" fill-opacity=".5" d="M211.1 58l-2.4-39.6 3.3 11.4 33.7 16z"/><path fill="#544132" fill-opacity=".7" d="M73.5 135.6l-19.3-26.2-20.1-20.1 41 63.2z"/><path fill="#b1a49d" fill-opacity=".7" d="M257.3 71.4l5-32.5-13.1 27-14.1-2.3z"/><path fill="#1d1c2b" fill-opacity=".5" d="M262 68l-47 17 30 8z"/><path fill="#5d4f3f" fill-opacity=".5" d="M198 103l-12-19 3 55z"/><path fill="#9c8163" fill-opacity=".6" d="M45 106l-22 5 51 41z"/><path fill="#825f47" fill-opacity=".4" d="M36 54L4 37l26 63z"/><path fill="#966857" fill-opacity=".9" d="M161.1 127.8l23.1 19.3 12.3 29.8-2.3-4.3z"/><circle r="1" fill="#916a4d" fill-opacity=".5" transform="matrix(4.12136 .94183 -8.32648 36.43587 101 111.7)"/><path fill="#b48c77" fill-opacity=".6" d="M120 160l27-33-18 44z"/><path fill="#130f0d" fill-opacity=".4" d="M18 148v-40l-32-41z"/><path fill="#97541d" fill-opacity=".5" d="M134 36h6v83h-6z"/><path fill="#a1988b" fill-opacity=".9" d="M146.9 69.2l-12.6.2-21.1 12.3 20.9-.4z"/></g></svg>