<svg xmlns="http://www.w3.org/2000/svg" viewBox="0 0 300 199"><defs/><path fill="#432725" d="M0 0h300v199H0z"/><g transform="translate(.6 .6) scale(1.17188)"><circle cx="179" cy="136" r="183" fill="#c5b1b1" fill-opacity=".6"/><circle r="1" fill="#2f231e" fill-opacity=".7" transform="matrix(1.24838 21.65088 -115.28376 6.64722 102.6 57.2)"/><circle r="1" fill="#d5edfe" fill-opacity=".6" transform="matrix(121.0158 -58.14682 15.21196 31.6593 212.5 147.7)"/><ellipse cx="48" cy="134" fill="#e3b389" fill-opacity=".7" rx="60" ry="64"/><circle r="1" fill="#6b0002" fill-opacity=".6" transform="matrix(6.69884 -19.6777 29.12658 9.9155 123 110.3)"/><circle r="1" fill="#936b4a" fill-opacity=".7" transform="matrix(-2.01456 -24.26392 96.56759 -8.0177 52.4 21.3)"/><path fill="#7189c9" fill-opacity=".6" d="M162 139l19-119 90 67z"/><circle r="1" fill="#060f14" fill-opacity=".6" transform="matrix(27.70239 -54.88883 6.4925 3.27676 217.8 20.3)"/><path fill="#c98544" fill-opacity=".8" d="M83 104l-57 37 141 44z"/><circle r="1" fill="#d7ceed" fill-opacity=".6" transform="matrix(-15.19523 -76.04472 20.63229 -4.12274 16.2 159)"/><path fill="#000013" fill-opacity=".7" d="M149.3-25.2l3.4 100-12 .4-3.4-100z"/><ellipse cx="255" cy="72" fill="#b6d8ff" fill-opacity=".4" rx="26" ry="155"/><ellipse cx="103" cy="58" fill="#0a0000" fill-opacity=".5" rx="25" ry="29"/><path fill-opacity=".5" d="M47 124l28 2-53 21z"/><path fill="#470e2b" fill-opacity=".5" d="M85 105l66 27 56-24z"/><path fill="#00000a" fill-opacity=".6" d="M167.1 78.8l-37.3-7.3 7-36.3 37.4 7.3z"/><path fill="#ffadd5" fill-opacity=".5" d="M148 137.7l-8.4 28.8-35.5-10.2 8.3-28.8z"/><ellipse cx="133" cy="85" fill="#f26063" fill-opacity=".6" rx="29" ry="13"/><path fill="#120506" fill-opacity=".7" d="M16 42l47 23-77 20z"/><path fill="#ab896d" fill-opacity=".7" d="M75 11l3 50-94-28z"/><path fill="#d2ebff" fill-opacity=".5" d="M203.8 88l-4.6 21.5-45-9.5 4.6-21.5z"/><circle r="1" fill="#ccacad" fill-opacity=".7" transform="matrix(-8.42729 -24.70416 17.27947 -5.89452 66.2 91.2)"/><path fill="#000325" fill-opacity=".5" d="M197.5-11.4L161 84l-6.5-2.5L191-14z"/><path fill="#ae9ba8" fill-opacity=".6" d="M162 87l39-100 1 62z"/><circle r="1" fill="#001a48" fill-opacity=".5" transform="matrix(10.70442 -.52163 .75835 15.5623 197.2 72.2)"/><path fill="#5e94ff" fill-opacity=".3" d="M149-16h95l-91 56z"/><path fill="#cd8b66" fill-opacity=".7" d="M96.4-1.6l35.5 52.3 10.6-22-13.5-43z"/><ellipse cx="93" cy="15" fill="#664f3e" rx="6" ry="52"/><circle r="1" fill="#ffef8c" fill-opacity=".4" transform="rotate(24.3 -356.4 250.5) scale(35.0568 23.5777)"/><circle cx="242" cy="131" r="25" fill="#d9f4f5" fill-opacity=".6"/><path fill="#da7b15" fill-opacity=".4" d="M125 166l22 19 45-26z"/><path fill="#243a00" fill-opacity=".2" d="M216.2 140.5l19.6 17-33.4-2.9 13.2-24.1z"/><path fill="#0373c9" fill-opacity=".5" d="M176.3 128.7l32.5-32.3-7.2 50.9-.1-32.6z"/><circle r="1" fill="#e6bba9" fill-opacity=".3" transform="rotate(-172.1 118.2 17.1) scale(23.15683 21.72377)"/><path fill="#5953a4" fill-opacity=".4" d="M201.1 101.3l2.5-19.8 91.3 11.2-2.5 19.8z"/><ellipse cx="4" cy="6" fill="#653b1a" fill-opacity=".5" rx="94" ry="15"/><path fill="#100106" fill-opacity=".5" d="M33.7 138.4l20.6.8 24.6-29.7 7.9-1.2z"/><path fill="#8b7d6d" fill-opacity=".9" d="M217.9 124.5l-2.7 7.9-8.3-20.9 15.1 15.9z"/><path fill="#e8ffff" fill-opacity=".5" d="M208 104h25v12h-25z"/><path fill="#ddd2f1" fill-opacity=".7" d="M13 150l50 14-44 21z"/><path fill="#afa1b3" d="M227-16l-30.1 58.4-4.7-57 54.4 9.1z"/><circle r="1" fill="#6393dd" fill-opacity=".6" transform="matrix(-15.45193 -27.0386 10.71493 -6.12334 247.9 9.8)"/><path fill="#e6a93d" fill-opacity=".5" d="M68.1 170.2l24.1-42.4-70.9 18.4 31.5 14.6z"/><path fill="#000006" fill-opacity=".6" d="M130 39l-27-8-2 56z"/><circle r="1" fill="#cd8926" fill-opacity=".4" transform="matrix(3.88852 5.4398 -25.58425 18.28831 51.2 76)"/><path fill="#cbb5d3" fill-opacity=".5" d="M96.8 106.5L41.2 116l3.9-23.9 52.3-3.4z"/><circle r="1" fill="#fff2f4" fill-opacity=".5" transform="matrix(31.15602 2.86612 -.32119 3.49145 99.8 170)"/><path fill="#dfadd2" fill-opacity=".7" d="M172.3 169.5l-44-43.6 7.1 42 22.7-43.2z"/><path fill="#7b2f40" fill-opacity=".6" d="M142.9 88.9l9 34.2-.2 35.4-18.4-52.4z"/><path fill="#a13632" fill-opacity=".7" d="M159.4 83l-30.2 19.5 47.8-37-2.3 12.8z"/><path fill="#7d1a16" fill-opacity=".5" d="M127 37l4-20-17 5z"/><path fill="#d59e41" fill-opacity=".6" d="M59 116l-30 25 5-28z"/><path fill="#100e15" fill-opacity=".9" d="M160 62.2l-51.4-2.9 49.4-21 23.1-7.9z"/><path fill="#320100" fill-opacity=".5" d="M101 81l13 16-19 9z"/><path fill="#e86e00" fill-opacity=".5" d="M90.1 139.5l23.5 21.3-8.2 4.4-26.5-10.7z"/><path fill="#fffcfb" fill-opacity=".5" d="M205.7 186.2l-10.8-18 27.4-16.4 10.8 18z"/><path fill="#953333" fill-opacity=".7" d="M132 130l-4.5-35.7-1.4 57.8-16-75.9z"/><path fill="#410041" fill-opacity=".5" d="M165 128h3v27h-3z"/><ellipse cx="95" cy="52" fill="#aa8361" fill-opacity=".7" rx="3" ry="19"/><path fill="#5a1336" fill-opacity=".4" d="M118.6 97.5l62.7 35.9-3.9 1.3 9.1-20.4z"/><path fill="#fff29d" fill-opacity=".6" d="M124.1-11l6.4 10.3L112 10.9 105.5.7z"/><path fill="#cc5026" fill-opacity=".5" d="M100.4 89.1l9.4-13.9 15.9-2.8 3.6 32z"/><path fill="#32c9ff" fill-opacity=".5" d="M207 98l-33 7 19 4z"/><path fill="#050b0d" fill-opacity=".5" d="M199.8 42l21.6-36 6.8 4-21.6 36z"/><circle r="1" fill="#d5b2a6" fill-opacity=".7" transform="rotate(140.1 -10 53.4) scale(15.87654 23.00647)"/></g></svg>