<svg xmlns="http://www.w3.org/2000/svg" viewBox="0 0 300 199"><defs/><path fill="#473623" d="M0 0h300v199H0z"/><g transform="translate(.6 .6) scale(1.17188)"><circle r="1" fill="#cac8b7" fill-opacity=".5" transform="rotate(-54.1 80.6 -84.5) scale(255 104.17931)"/><circle r="1" fill="#fffaf0" fill-opacity=".6" transform="matrix(17.70134 -57.88002 14.80316 4.52722 93.3 136.4)"/><ellipse cx="200" cy="60" fill="#3f3323" fill-opacity=".8" rx="107" ry="25"/><circle r="1" fill="#846d51" fill-opacity=".9" transform="matrix(-39.5606 -29.5951 20.45104 -27.33747 156.3 142.8)"/><circle r="1" fill="#080703" fill-opacity=".6" transform="matrix(9.63244 1.0463 -3.82147 35.18112 130.7 95)"/><ellipse cx="218" cy="8" fill="#8d8f83" fill-opacity=".9" rx="76" ry="21"/><ellipse cx="30" cy="169" fill="#c6ab86" fill-opacity=".8" rx="57" ry="37"/><ellipse cx="7" cy="83" fill="#001421" fill-opacity=".4" rx="10" ry="55"/><circle r="1" fill="#b0b9b7" fill-opacity=".6" transform="matrix(-12.01428 -.37334 3.85733 -124.13259 40 9.5)"/><path fill="#d8d7d6" fill-opacity=".5" d="M164.9 75.6l-18.4-2.4-6.4 6.1 9.1 50.9z"/><path fill="#fffffa" fill-opacity=".4" d="M78 102l30.8 11.8L94 152l-30.9-11.9z"/><circle r="1" fill="#a8773d" fill-opacity=".7" transform="matrix(5.20576 23.6713 -19.25997 4.23562 84.7 77)"/><circle r="1" fill="#6c6856" fill-opacity=".7" transform="matrix(-11.5269 37.1912 -21.86736 -6.77748 118 36.8)"/><ellipse cx="195" cy="143" fill="#e8e2d7" fill-opacity=".5" rx="2" ry="57"/><ellipse cx="227" cy="134" fill="#c2d4d7" fill-opacity=".5" rx="2" ry="29"/><path fill="#d6b88f" fill-opacity=".6" d="M142.5 184.5l-24.8.5 56.3-35 10.7 7.8z"/><path fill="#bfa188" d="M125.5 149.2l-5.9 4-7.1-48.7V83.1z"/><ellipse cx="214" cy="52" fill="#443420" fill-opacity=".8" rx="70" ry="20"/><path fill="#bac9c7" fill-opacity=".4" d="M71-26.8L79.7 0-3 26.8-11.7 0z"/><path fill="#d1bcaa" fill-opacity=".6" d="M198.2 93.9l-.5 7-39.9-2.8.5-7z"/><path fill="#050200" fill-opacity=".5" d="M136.1 124l-7.7-22.8 2.3-24.9 17.4 42.8z"/><path fill="#1c1008" fill-opacity=".6" d="M192 103l-24-4 17 35z"/><ellipse cx="174" cy="122" fill="#fffcee" fill-opacity=".5" rx="2" ry="19"/><circle r="1" fill="#6d5338" fill-opacity=".8" transform="matrix(47.63123 6.27077 -1.26946 9.64248 230.7 169.7)"/><path fill="#b1a59b" fill-opacity=".6" d="M155 76l14 3-6 43z"/><path fill="#e2d6c7" fill-opacity=".5" d="M176.3 133.4l-9.2 4.8 22.7 2.3 16 .2z"/><path fill="#261300" fill-opacity=".4" d="M167.2 99.4l-5 38.2 5.9 22.5 6.5-52.8z"/><path fill="#635d4f" fill-opacity=".6" d="M124 109.5l-19.3-.3 9.6-15 27.5-108.9z"/><path fill="#fbe5cb" fill-opacity=".4" d="M66 97h27v18H66z"/><path fill="#685d46" fill-opacity=".6" d="M53 7h6v122h-6z"/><circle r="1" fill="#1b0e00" fill-opacity=".4" transform="matrix(-11.7859 -9.68104 28.224 -34.36046 255 122.7)"/><ellipse cx="215" cy="112" fill="#0d0401" fill-opacity=".5" rx="9" ry="22"/><ellipse cx="35" cy="66" fill="#dae0e8" fill-opacity=".4" rx="3" ry="78"/><path fill="#c6925f" fill-opacity=".3" d="M123 185l-46.7-13 25.4-23.6 34.7-32.8z"/><path fill="#6e7169" fill-opacity=".8" d="M232.2 116.8l-2-.7 12.5-12.1-28.1 5.6z"/><path fill="#1a1917" fill-opacity=".5" d="M170 37l7 53-31-42z"/><path fill="#ecddca" fill-opacity=".4" d="M170.4 109l-24.2-22.1-7.6 14.4 2.9 4.2z"/><path fill="#302d27" fill-opacity=".6" d="M156.6 92.6l6.3-3.4h7l-10.6-5.3z"/><ellipse cx="147" cy="140" fill="#0b100f" fill-opacity=".5" rx="10" ry="4"/><path fill="#0c0000" fill-opacity=".5" d="M152 115l7 6 1-17z"/><path fill="#ad8b61" fill-opacity=".5" d="M67 158l15-38-54 9z"/><path fill="#442a0f" fill-opacity=".4" d="M73.7 121.4l-.8-3.8-88.9 19.5 66-10.5z"/><path fill="#8f8e7c" fill-opacity=".7" d="M16 12h18v105H16z"/><circle cx="150" cy="125" r="4" fill="#fff" fill-opacity=".5"/><path fill="#a28d76" fill-opacity=".5" d="M203 103h4v35h-4z"/><path fill="#e9d3be" fill-opacity=".5" d="M99 79l16 29-2-35z"/><circle cx="89" cy="142" r="14" fill="#f1f8fa" fill-opacity=".5"/><path fill="#feecda" fill-opacity=".3" d="M157.6 153.7l2.4-6.6 6.1-37.4-3.2-9.6z"/><path fill="#845222" fill-opacity=".6" d="M106.5 55.3L72.9 97.4 78 82.6l12.2-34.8z"/><circle r="1" fill="#92958c" fill-opacity=".6" transform="rotate(179.7 23.6 25.1) scale(5.696 76.43664)"/><path fill="#654b30" d="M104.2 185h39.4l1.9-34.6-6-.7z"/><path fill="#4f3c24" fill-opacity=".5" d="M162 39l70-10-57 63z"/><path fill="#e5fff8" fill-opacity=".2" d="M231.2 139.1l8.6-1-20.7.6 8.1-26.6z"/><path fill="#bfb7aa" fill-opacity=".5" d="M193 93h3v55h-3z"/><path fill="#abadaf" fill-opacity=".4" d="M143 68h13v20h-13z"/><path fill="#281400" fill-opacity=".6" d="M177 112h14v20h-14z"/><circle r="1" fill="#7f6a4b" fill-opacity=".5" transform="matrix(27.63256 -10.3314 .83911 2.2443 46.5 157.3)"/><ellipse cx="73" cy="169" fill="#ffe3cd" fill-opacity=".2" rx="49" ry="11"/><path fill="#bca370" fill-opacity=".5" d="M55.1 77.1l3-5.4L79 56.2l-3.5 26.1z"/><ellipse cy="37" fill="#4a524e" fill-opacity=".9" rx="18" ry="8"/><path fill="#9c7549" fill-opacity=".5" d="M93.7 100.4l-9.9-58.5 33.1 91.5-8.7-37.6z"/><path fill="#f6e3b8" fill-opacity=".1" d="M199.8 68.8l-21 .4-.6-38 21-.4z"/><path fill="#0f0d08" fill-opacity=".8" d="M140.7 57.6l-8.9 1.4-2.8 62.2 5.5-15z"/><path fill="#6b583e" fill-opacity=".5" d="M74 137.7L85.1 110l.9.4L74.8 138z"/><path fill="#120f05" fill-opacity=".4" d="M232.6 120L260 74.7l15.5 9.3-27.3 45.5z"/></g></svg>