<svg xmlns="http://www.w3.org/2000/svg" viewBox="0 0 300 199"><defs/><path fill="#6e4335" d="M0 0h300v199H0z"/><g transform="translate(.6 .6) scale(1.17188)"><circle cx="171" cy="127" r="133" fill="#94aba2" fill-opacity=".5"/><circle r="1" fill="#080300" fill-opacity=".8" transform="matrix(20.18187 67.04765 -48.84994 14.70421 5 46.3)"/><ellipse cx="55" cy="146" fill="#d8c2b7" fill-opacity=".5" rx="52" ry="36"/><circle r="1" fill="#2d1200" fill-opacity=".5" transform="rotate(-91.2 75 -21) scale(72.73209 12.64959)"/><path fill="#c0d9df" fill-opacity=".5" d="M125 68h121v21H125z"/><circle r="1" fill="#480e05" fill-opacity=".7" transform="matrix(-6.6431 35.77205 -13.2647 -2.46334 122.5 137.6)"/><ellipse cx="239" cy="89" fill="#004155" fill-opacity=".3" rx="35" ry="101"/><circle r="1" fill="#692814" fill-opacity=".5" transform="matrix(-23.29441 -13.24128 18.43686 -32.4346 48.6 84.1)"/><circle r="1" fill="#8fa49d" fill-opacity=".5" transform="rotate(-152.6 86.2 -21) scale(52.3167 65.28741)"/><path fill="#e2beae" fill-opacity=".5" d="M56 99h31v54H56z"/><path fill="#b98067" fill-opacity=".6" d="M77 14L48 28l52 65z"/><circle r="1" fill="#d8e1e0" fill-opacity=".5" transform="matrix(.21368 6.51197 -49.9515 1.63905 247.7 80.8)"/><circle r="1" fill="#aac0ba" fill-opacity=".5" transform="matrix(-52.03674 9.94631 -.94038 -4.91987 214 48.1)"/><circle r="1" fill="#0f1518" fill-opacity=".5" transform="matrix(-56.32889 15.9108 -1.19752 -4.23956 236.8 32.6)"/><circle r="1" fill-opacity=".4" transform="rotate(49.6 10.4 40.1) scale(26.39721 133.44218)"/><path fill="#092228" fill-opacity=".5" d="M264 6l-69 20 62-39z"/><circle r="1" fill="#9bbdbd" fill-opacity=".5" transform="rotate(163.5 118.6 28) scale(36.66797 6.56573)"/><circle r="1" fill="#0d1217" fill-opacity=".5" transform="matrix(39.44217 -6.97338 .95992 5.42943 245.4 55.2)"/><path fill="#9c9582" fill-opacity=".5" d="M192 61l-88 123 113-37z"/><path fill="#e8f3f7" fill-opacity=".5" d="M122 70h59v10h-59z"/><path fill="#262820" fill-opacity=".6" d="M260 118l6 22-61-20z"/><path fill="#202323" fill-opacity=".5" d="M271 168l-80-36 51 8z"/><path fill="#eef6f2" fill-opacity=".5" d="M44.1 189l-10.3-6 36-60 10.4 6z"/><path fill="#472019" fill-opacity=".7" d="M158 106l-63 79 18-48z"/><circle r="1" fill="#c3cfc2" fill-opacity=".4" transform="rotate(-16.8 218.2 -600.7) scale(74.4713 3.75976)"/><path fill="#131208" fill-opacity=".6" d="M94 0h12v65H94z"/><path fill="#664e41" fill-opacity=".5" d="M90 157l-9 30.6-23-6.6 8.8-30.8z"/><circle r="1" fill="#c9dbda" fill-opacity=".5" transform="rotate(-113.8 96 -47.3) scale(2.68732 69.99968)"/><circle r="1" fill="#adbbaa" fill-opacity=".5" transform="matrix(.29428 -3.74169 48.76558 3.83535 229.9 107.9)"/><path fill="#b7a180" fill-opacity=".5" d="M106 127l2-61 34-9z"/><path fill="#171613" fill-opacity=".8" d="M-11.5 185L.8 79l4.4 77.9 5.4 28.1z"/><path fill="#915e4c" fill-opacity=".8" d="M146.3 89L122 77.8l8.2 25 3.4 29z"/><path fill="#7b8885" d="M152.2 89.4L271 66.6v-5.9l-66.5 6.1z"/><circle r="1" fill="#3b3931" fill-opacity=".5" transform="matrix(-83.48269 38.86648 -.97562 -2.09557 191.2 9.5)"/><path fill="#130000" fill-opacity=".5" d="M25 55h48l4 19z"/><path fill="#d7e7e4" fill-opacity=".6" d="M188.5 1l-65 37.5-2-3.5 65-37.5z"/><path fill="#c0694b" fill-opacity=".3" d="M53.5 114.8l50.5 45.7-42.6-99.6-21.2 29.6z"/><path fill="#dcf4fe" fill-opacity=".4" d="M230.5 67.4l-104.6 9.2-.4-4 104.6-9.2z"/><ellipse cx="225" cy="98" fill="#292e21" fill-opacity=".4" rx="58" ry="4"/><path fill="#3c382d" fill-opacity=".5" d="M121.9 62L271 30.6l-94.4 13.8-48.7 11.8z"/><circle r="1" fill="#2c2b1c" fill-opacity=".5" transform="matrix(26.4611 -8.21218 .73666 2.37365 175.2 32.6)"/><path fill="#110a08" fill-opacity=".2" d="M135.8 119.4L271 175.8l-13.2 9.2-42.2-21.3z"/><path fill="#9a8b82" fill-opacity=".9" d="M50.9 124.1L11.4 185 3 133.9 15.2 116z"/><path fill="#ece9df" fill-opacity=".5" d="M70.6 103l4.3-4.1L97.4 123l-4.3 4.1z"/><path fill="#90c3c3" fill-opacity=".5" d="M246.2 1.4L225.5 9l-3.7-10.3L242.5-9z"/><circle r="1" fill="#d3a492" fill-opacity=".5" transform="rotate(-164.7 80 73.1) scale(8.34318 32.34091)"/><path fill="#edd1c8" fill-opacity=".5" d="M53 37l24-18-12 2z"/><path fill="#655242" fill-opacity=".4" d="M31 99.6l11.4-26.7-58.4 85.5L40.3 109z"/><circle r="1" fill="#dae9e7" fill-opacity=".5" transform="matrix(38.26142 -25.48632 1.02261 1.5352 160.6 1)"/><circle r="1" fill="#b3b5a9" fill-opacity=".5" transform="matrix(-53.51358 -17.63517 .98407 -2.98615 187.3 120.8)"/><path fill="#6d3b1a" fill-opacity=".3" d="M112 148l-6-103-25 49z"/><path fill="#38342c" fill-opacity=".4" d="M177.6 3.1l-53.8 26 55.7-33.8-6.3 10.5z"/><path fill="#292518" fill-opacity=".6" d="M89 46L75-1l26-15z"/><path fill="#abb2a2" fill-opacity=".5" d="M189 148.9l33.5 21.5-50.6-11.2 21.6 25.8z"/><path fill="#5f372b" fill-opacity=".4" d="M93.8 185l29.7-85.4 92.3 23.7-69-30z"/><path fill="#5a3c2a" fill-opacity=".4" d="M58 13L32 5l28 56z"/><path fill="#54493b" fill-opacity=".5" d="M161.8 64.8l.2 3-49.8 3.4-.2-3z"/><circle r="1" fill="#ccd4c9" fill-opacity=".5" transform="matrix(.32397 1.78573 -43.6078 7.91143 153.4 57.6)"/><path fill="#e2aa97" fill-opacity=".4" d="M140.8 118.3l-14.6 15.4 5.6-15.8 16.9-17.7z"/><path fill="#8c776d" fill-opacity=".9" d="M28.1 184.8l-21.9-51L37.6 165l43-62.1z"/><path fill="#212526" fill-opacity=".4" d="M204.1 26.3l65.3-24.9-54.3 10.4-31.9 18.9z"/><path fill="#9fa89c" fill-opacity=".5" d="M147 85h109v7H147z"/><circle r="1" fill-opacity=".4" transform="rotate(-136 4.8 11.8) scale(67.946 29.63008)"/><circle r="1" fill="#4e3427" fill-opacity=".6" transform="matrix(-116.78563 114.76492 -1.11567 -1.1353 81.4 52.7)"/><path fill="#e9fef0" fill-opacity=".2" d="M181.5 136.4l-37.4-21.5 63.1 26.9 41.8 21.4z"/></g></svg>