<svg xmlns="http://www.w3.org/2000/svg" viewBox="0 0 300 199"><defs/><path fill="#5b4c2d" d="M0 0h300v199H0z"/><g transform="translate(.6 .6) scale(1.17188)"><circle r="1" fill="#a89999" fill-opacity=".6" transform="matrix(-236.6836 66.6245 -35.6224 -126.54861 17.9 132.3)"/><circle r="1" fill="#f8ffff" fill-opacity=".7" transform="matrix(20.08952 57.68924 -15.5636 5.41982 0 14.8)"/><circle r="1" fill="#322d03" fill-opacity=".6" transform="matrix(25.15434 10.2653 -13.77928 33.7651 198.3 114.4)"/><circle r="1" fill="#ecdfbe" fill-opacity=".8" transform="matrix(10.66719 13.85162 -25.9521 19.98581 243.7 61.2)"/><circle cx="63" cy="41" r="24" fill="#fefceb" fill-opacity=".6"/><path fill="#fff" fill-opacity=".5" d="M32 130l6-78 25 110z"/><path fill="#2c2116" d="M35.7 53.1l-43.8 65.1 35 8 1.7-10.1z"/><circle r="1" fill="#e9f2ff" fill-opacity=".5" transform="rotate(143.9 61.2 59.6) scale(17.94209 34.4817)"/><circle r="1" fill-opacity=".5" transform="matrix(-.20282 -40.83537 11.04042 -.05483 31.8 18.7)"/><circle r="1" fill="#411c0a" fill-opacity=".8" transform="matrix(8.21727 -27.00447 13.10208 3.98687 99.5 91)"/><circle r="1" fill="#090000" fill-opacity=".6" transform="matrix(-24.60664 -18.40812 16.27306 -21.75264 227.5 10)"/><circle cx="226" cy="169" r="44" fill="#f10809" fill-opacity=".4"/><circle r="1" fill="#262f00" fill-opacity=".5" transform="rotate(-14.8 102.1 -385.4) scale(9.15366 57.88094)"/><ellipse cx="31" cy="169" fill="#fff0f9" fill-opacity=".3" rx="94" ry="41"/><circle r="1" fill="#3c2f28" fill-opacity=".5" transform="rotate(-88 134.5 2.8) scale(12.17934 48.30884)"/><path fill="#fff" fill-opacity=".5" d="M38 48h70v12H38z"/><circle r="1" fill="#340f00" fill-opacity=".5" transform="matrix(24.56084 -3.67817 1.45655 9.72604 182.8 47)"/><circle r="1" fill="#1c3125" fill-opacity=".7" transform="matrix(14.57712 12.13289 -14.962 17.97616 254.5 110.3)"/><path fill="#ffa2b3" fill-opacity=".7" d="M246 133.4l1.7 11.9-37.7 5.3-1.7-11.9z"/><path fill="#f5f7ff" fill-opacity=".7" d="M-2 108l19 75-33-15z"/><path fill="#413525" fill-opacity=".8" d="M54.7 20.3l23.8-35.7L2.3-16 35 34.5z"/><path fill="#fffff8" fill-opacity=".5" d="M54 152l-36-50 27-8z"/><path fill="#4d481a" fill-opacity=".5" d="M91.3 44.3l56.4-20.9L107.8.7 61.4 44.6z"/><ellipse cx="197" cy="146" fill="#080c00" fill-opacity=".6" rx="7" ry="29"/><ellipse cx="122" cy="42" fill="#fff" fill-opacity=".6" rx="7" ry="11"/><path fill="#5f3521" fill-opacity=".5" d="M51 62h60v52H51z"/><path fill="#a7b0c1" fill-opacity=".9" d="M0 101l25-36-41-38z"/><path fill-opacity=".5" d="M28 22h7v82h-7z"/><path fill="#271002" fill-opacity=".5" d="M73.8 183.9l-36 .9 2.1-36.3 8.8 8.9z"/><path fill="#fd3d00" fill-opacity=".4" d="M148 89l16 18-42-4z"/><path fill="#9a0300" fill-opacity=".4" d="M141.6 53.8l-13.8-31 14.6-6.6 13.8 31z"/><path fill="#81b3be" fill-opacity=".4" d="M127.5 116.3l16.9 14.9 60.4-27.2-25.9-4.3z"/><path fill="#bb9781" fill-opacity=".7" d="M190.5 143.7L180.4 185l-7.4-49.4 14.8-3.5z"/><path fill="#200800" fill-opacity=".4" d="M17.7 170.4L-6.5 91l4.8-1.4L22.5 169z"/><path fill="#ccc2b4" fill-opacity=".7" d="M62.6 10.5L88-16 77.4 39.8 35.7 37z"/><path fill="#d3bafd" fill-opacity=".4" d="M139.5 2l-10 6.1 32.2 41.3-3.6-28.9z"/><path fill="#c2c7d3" fill-opacity=".7" d="M135.8 100.8l-13.6-82.9 41.5 84.7 9.7-44z"/><path fill="#e0dadb" fill-opacity=".6" d="M58.9 75.6l10 37.7-3.8 1-10-37.6z"/><path fill="#1d3103" fill-opacity=".6" d="M205 130l26-32-36-28z"/><path fill="#ccebf9" fill-opacity=".5" d="M192 50h16l-19 37z"/><path fill="#005281" fill-opacity=".5" d="M120 116h33v9h-33z"/><path fill="#fff" fill-opacity=".5" d="M39 30h14v27H39z"/><path fill="#6b513d" fill-opacity=".8" d="M156.9 24.9L211.2-16h39.5l-87.8 48.3z"/><ellipse cx="79" cy="53" fill="#ffebdb" fill-opacity=".8" rx="26" ry="9"/><path fill="#fffff4" fill-opacity=".5" d="M271 39l-23-6-35 45z"/><path fill="#f7ffff" fill-opacity=".5" d="M-16 30l27-43 18 76z"/><circle r="1" fill="#020000" fill-opacity=".7" transform="rotate(76.7 6.3 16) scale(55.57918 3.64947)"/><path fill="#000e06" fill-opacity=".3" d="M221.7 74.1L160.6 79l40.3-8.1-102-55.1z"/><path fill="#2b1d14" fill-opacity=".6" d="M199 38l46-11 1 14z"/><path fill="#c2f4ce" fill-opacity=".4" d="M236 109l-17 8 18-31z"/><path fill="#d2e3ff" fill-opacity=".3" d="M174.3 43.1L164.4-16l14 37.3 47.7 11.6z"/><path fill="#b0a557" fill-opacity=".5" d="M245 92l26-30-73 18z"/><path fill="#f5e0ca" fill-opacity=".4" d="M17 125h19v30H17z"/><path fill="#1b0505" fill-opacity=".5" d="M84 86h27v30H84z"/><path fill-opacity=".6" d="M7.5 119.4l-10-6.8 23-34 10 6.8z"/><ellipse cx="85" cy="42" fill="#00751e" fill-opacity=".5" rx="26" ry="3"/><path fill="#1b090c" fill-opacity=".4" d="M144.3 145.5L83 127.7l9.8-3.4 45 5.7z"/><path fill="#ab9e9d" fill-opacity=".6" d="M56.7 154.5l-7-39.4 31.6-5.6 7 39.4z"/><path fill="#a95d18" fill-opacity=".4" d="M24.9 92.7L9.2 135l18.7-9.7 8.2-35.9z"/><path fill="#adc29f" fill-opacity=".4" d="M183.9 124.2l-16.8 17.6 46.3-39.1-2.9-2.4z"/><ellipse cx="233" cy="159" fill="#a90600" fill-opacity=".4" rx="22" ry="15"/><path fill="#fff" fill-opacity=".3" d="M163 71l11 33-49-21z"/><ellipse cx="146" cy="54" fill="#9f896c" fill-opacity=".6" rx="19" ry="8"/><ellipse cx="40" cy="100" fill="#fff" fill-opacity=".5" rx="5" ry="26"/><path fill="#523016" fill-opacity=".5" d="M44.9 89.9l10.9-1.5L59 112l-10.9 1.5z"/></g></svg>