<svg xmlns="http://www.w3.org/2000/svg" viewBox="0 0 299 449"><defs/><path fill="#4f392a" d="M0 0h299v449H0z"/><g transform="translate(.9 .9) scale(1.7539)"><ellipse cx="87" cy="87" fill="#f3fbf3" fill-opacity=".6" rx="170" ry="112"/><ellipse cx="74" cy="155" fill="#00000b" fill-opacity=".6" rx="36" ry="79"/><circle r="1" fill="#fffdea" fill-opacity=".3" transform="rotate(-6.3 591 -1217.1) scale(44.32407 159.11756)"/><path fill="#eef3ff" fill-opacity=".7" d="M93 193l15.1 41.6-28.5-81.3-8.6 40.6z"/><ellipse cx="11" cy="159" fill="#fffffa" fill-opacity=".4" rx="26" ry="48"/><path fill="#f0ebe1" fill-opacity=".6" d="M-16 51l26 63 92-63z"/><path fill="#754500" fill-opacity=".5" d="M25 42h105v9H25z"/><ellipse cx="71" cy="27" fill="#e0e0de" fill-opacity=".8" rx="110" ry="8"/><ellipse cx="73" cy="113" fill="#383834" fill-opacity=".7" rx="36" ry="34"/><ellipse cx="30" cy="236" fill="#edca8f" fill-opacity=".3" rx="88" ry="8"/><path fill="#5c584e" fill-opacity=".8" d="M155.6 197l28.7.9-53.7 71.7-29.5-80.2z"/><ellipse cx="89" cy="14" fill="#9c855d" fill-opacity=".5" rx="170" ry="7"/><ellipse cx="66" cy="3" fill="#d9dad9" fill-opacity=".9" rx="81" ry="5"/><circle r="1" fill="#e4e2dd" fill-opacity=".6" transform="matrix(1.64845 -14.46828 87.9977 10.02607 118.3 71.9)"/><path fill="#181a1a" fill-opacity=".5" d="M37 117h36v71H37z"/><path fill="#ddd7c9" fill-opacity=".5" d="M107 138h64v54h-64z"/><ellipse cx="101" cy="255" fill="#898b89" fill-opacity=".6" rx="72" ry="4"/><path fill="#5587bd" fill-opacity=".6" d="M77.1 107l-25-10.3 27.8-5.5-.1 16.8z"/><path fill="#d0cabd" fill-opacity=".8" d="M21.4 195.3l-37.4-2L-3.6 37.2l47.3 39.9z"/><path fill="#63645f" fill-opacity=".6" d="M-6 197l47 38 1-45z"/><path fill="#e4eaf6" fill-opacity=".8" d="M93.7 191.7l-18.8-.9 2.8-20.6 9.2-.8z"/><ellipse cx="53" cy="13" fill="#f4eeec" fill-opacity=".5" rx="125" ry="2"/><path fill="#040d15" fill-opacity=".7" d="M45.8 203l62.4-7.1-4.4 31.1-56.5.8z"/><path fill="#7d582f" fill-opacity=".5" d="M127 39h44v5h-44z"/><ellipse cx="122" cy="17" fill="#684d21" fill-opacity=".5" rx="170" ry="2"/><path fill="#dbdedc" fill-opacity=".5" d="M123 129V44l41 21z"/><ellipse cx="75" cy="123" fill="#000109" fill-opacity=".6" rx="16" ry="6"/><ellipse cx="152" cy="9" fill="#826e4d" fill-opacity=".6" rx="93" ry="2"/><path fill="#d3dceb" fill-opacity=".5" d="M0 114h14v74H0z"/><path fill="#3c2818" fill-opacity=".5" d="M62 239h91v11H62z"/><path fill="#69abf1" fill-opacity=".6" d="M58 111h9v6h-9z"/><path fill="#33322f" fill-opacity=".6" d="M107.5 174.6l-41.9-49.9 45.3 88.1 1-7.9z"/><path fill="#8f6333" fill-opacity=".4" d="M-4.8 41l1-4.9L56.8 49l-1 4.9z"/><path fill="#cbc1aa" fill-opacity=".5" d="M12 112h26v77H12z"/><path fill="#585349" fill-opacity=".5" d="M60 128h48v29H60z"/><path fill="#dae6fa" fill-opacity=".5" d="M133 164h29v19h-29z"/><path fill="#000a26" fill-opacity=".6" d="M66.5 195.6l6.7-4.8 2-15.2-5.8-22.6z"/><path fill="#5f3b11" fill-opacity=".4" d="M20 36h107v2H20z"/><path fill="#f3ebd4" fill-opacity=".2" d="M105.8 18.7L89.6 52.8-16 17.5l80 1.1z"/><ellipse cx="49" cy="195" fill="#706257" fill-opacity=".8" rx="32" ry="3"/><path fill="#88866f" fill-opacity=".4" d="M111.8 211l1.5-22 29 2-1.6 22z"/><path fill="#d3bfa0" fill-opacity=".6" d="M130 110h33v53h-33z"/><path fill="#e4ecfc" fill-opacity=".6" d="M12 58l-28-15h29z"/><path fill="#ebf7ff" fill-opacity=".5" d="M111 128h9v34h-9z"/><path fill="#e3edff" fill-opacity=".5" d="M36.3 192.3l-7 .4-1.6-29 7-.4z"/><path fill="#dddbd4" fill-opacity=".5" d="M30 51h65v28H30z"/><ellipse cx="59" cy="39" fill="#ffebd8" fill-opacity=".5" rx="44" ry="2"/><path fill="#cec0ab" fill-opacity=".7" d="M9 90l32 29-26-70z"/><path fill="#dad5c5" fill-opacity=".5" d="M185 116l-80 1 13-60z"/><path fill="#130000" fill-opacity=".4" d="M0 247h30v9H0z"/><path fill="#000007" fill-opacity=".6" d="M50 110h8v17h-8z"/><path fill-opacity=".5" d="M84 150h6v14h-6z"/><path fill="#74622d" fill-opacity=".2" d="M123.8 79.3l-11-35.6 36-1.2-25 6.6z"/><ellipse cx="116" cy="22" fill="#d3d3d0" fill-opacity=".6" rx="170" ry="3"/><path fill="#baab95" fill-opacity=".5" d="M163 33l22-3-21 73z"/><ellipse cx="74" cy="85" fill="#5b3b14" fill-opacity=".5" rx="19" ry="7"/><path fill="#c0a1a3" fill-opacity=".4" d="M78 165l2-12-11-4z"/><path fill="#dee3e8" fill-opacity=".5" d="M26 54h18v43H26z"/><path fill="#dfc49a" fill-opacity=".1" d="M77.9 242.2l-71.2-4.1 13.3-5.2 25.3-9.7z"/><path fill="#886537" fill-opacity=".4" d="M39.9 130.3l-15.7-13.7-1.8 10.6 19.7-6.5z"/><ellipse cx="151" cy="34" fill="#646563" fill-opacity=".6" rx="21" ry="1"/><path fill="#000008" fill-opacity=".5" d="M85 91h9v13h-9z"/><path fill="#565148" fill-opacity=".6" d="M91.9 128.7l-20.3 30 40.2-32.9-17.3-24.1z"/><path fill="#6a533c" fill-opacity=".5" d="M109 221l-40 22 85-5z"/><path fill="#c0a57f" fill-opacity=".5" d="M164 162h7v23h-7z"/></g></svg>