<svg xmlns="http://www.w3.org/2000/svg" viewBox="0 0 300 199"><defs/><path fill="#5d4b2f" d="M0 0h300v199H0z"/><g transform="translate(.6 .6) scale(1.17188)"><circle r="1" fill="#d3cee4" fill-opacity=".4" transform="rotate(-17 338.4 -324.3) scale(151.5292 125.38135)"/><circle r="1" fill="#d0cbd5" fill-opacity=".5" transform="matrix(-27.15087 2.96483 -4.25498 -38.96565 74.8 123)"/><circle r="1" fill="#3a0900" fill-opacity=".6" transform="matrix(11.20699 33.51002 -12.23298 4.09116 94 55.2)"/><circle r="1" fill="#581401" fill-opacity=".5" transform="rotate(-112.9 108.4 -26.7) scale(31.95203 24.92874)"/><ellipse cx="244" cy="159" fill="#000208" fill-opacity=".9" rx="11" ry="33"/><path fill="#b5c9e3" fill-opacity=".4" d="M197.4 147.7L185 101.4l41.6-11.1 12.4 46.3z"/><circle r="1" fill="#e2e4f2" fill-opacity=".5" transform="matrix(8.8557 4.48708 -12.21108 24.09977 138.6 123)"/><path fill-opacity=".6" d="M203.4 69.6l5.7-5.5 21.5 22.3-5.7 5.5z"/><path fill="#e9e6c6" fill-opacity=".4" d="M84 2l75 60h-35z"/><path fill="#271000" fill-opacity=".5" d="M41 52L-4-16l38 26z"/><path fill="#dedcf3" fill-opacity=".5" d="M160.2 126l10.8 7.6 3.1 51.4-22.2-15.5z"/><path fill="#582a11" fill-opacity=".6" d="M173 185l9-86 11 59z"/><circle r="1" fill="#515746" fill-opacity=".6" transform="rotate(153.5 -10.6 68.8) scale(14.5464 64.04097)"/><path fill="#531c0e" fill-opacity=".5" d="M143 178l-10-27 36-51z"/><ellipse cx="172" cy="45" fill="#100" fill-opacity=".4" rx="39" ry="9"/><circle r="1" fill="#c0c3c3" fill-opacity=".5" transform="rotate(-24.6 272 -239) scale(8.4788 37.7232)"/><circle r="1" fill="#b0aaa2" fill-opacity=".6" transform="matrix(9.24818 24.05417 -17.92822 6.89292 54.6 78)"/><path fill="#4d2907" fill-opacity=".5" d="M75.2 43L58.9 63.2l-3-35.7 45.4-1.9z"/><path fill="#37281b" fill-opacity=".5" d="M8 58h26v21H8z"/><path fill="#c4e4ff" fill-opacity=".4" d="M214.6 61.5l16.6 25.8-7.2-63.7L267.3-16z"/><ellipse cx="66" cy="158" fill="#9c9596" rx="26" ry="23"/><path fill="#441f0d" fill-opacity=".6" d="M55 143h9v27h-9z"/><ellipse cx="175" cy="94" fill="#855242" fill-opacity=".7" rx="17" ry="37"/><circle r="1" fill="#d9e0ea" fill-opacity=".5" transform="matrix(4.90107 3.56847 -16.71613 22.9586 89.6 115.5)"/><circle r="1" fill="#9d644e" fill-opacity=".6" transform="rotate(-109 64 3.8) scale(35.75244 9.56559)"/><path fill="#889097" fill-opacity=".7" d="M271 160.4l-16.3-5.5L222.5 49l24.3 68.5z"/><path fill-opacity=".6" d="M250 2v40l13-5z"/><ellipse cx="96" cy="12" fill="#9b9783" fill-opacity=".7" rx="64" ry="15"/><ellipse cx="196" fill="#5f4f3a" rx="4" ry="85"/><circle r="1" fill="#82462b" fill-opacity=".6" transform="matrix(13.04963 -36.2872 8.54046 3.07133 108.1 162)"/><circle cx="145" cy="80" r="5" fill-opacity=".7"/><circle r="1" fill="#99a09e" fill-opacity=".6" transform="rotate(78.4 100.2 134.5) scale(25.42306 14.46978)"/><path fill="#272f30" fill-opacity=".5" d="M225 97l25 9-10 21z"/><path fill="#87909d" fill-opacity=".5" d="M230 173l5-72-47 65z"/><path fill="#010000" fill-opacity=".5" d="M110.3 87.1l-7.7 2-13-48.2 7.8-2z"/><circle r="1" fill="#080309" fill-opacity=".6" transform="matrix(-8.48146 -4.52868 2.0809 -3.89718 158.3 119.6)"/><path fill="#dbecf7" fill-opacity=".4" d="M64.1 105.6l-8.4-25-11.2 86.7 9.2-19.9z"/><path fill="#2c1d00" fill-opacity=".5" d="M176.5 51.4L171.8-16l-3.4 31.9 3.9 41.1z"/><path fill="#2c3310" fill-opacity=".5" d="M32.8 144.9l2.5-15.8 10.7 22 3.3-30.4z"/><path fill="#231200" fill-opacity=".4" d="M197.8 38.8l-23.2 24.8-13.9-54.7L155 42z"/><path fill="#bdc2ca" fill-opacity=".8" d="M59 181.2l23.5 3.8-3.7-22.3-12-15.4z"/><path fill="#ccb7ab" fill-opacity=".4" d="M114 46l25 27 30-24z"/><circle r="1" fill="#dad3da" fill-opacity=".5" transform="matrix(4.05184 2.47325 -19.45888 31.87876 138.4 129.2)"/><path fill="#ebf1fa" fill-opacity=".2" d="M-9.6 172.2l33.2-47.1L23 185l7.4-46.4z"/><circle cx="205" cy="85" r="4" fill-opacity=".5"/><path fill="#342904" fill-opacity=".5" d="M227.8 58.4l.7-10.2 8.2-12 1.9 13.4z"/><path fill="#462600" fill-opacity=".5" d="M109.5 17.2L75.8 36.9l10.3 14.7L115-16z"/><path fill="#131200" fill-opacity=".5" d="M250 62h6v17h-6z"/><path fill="#7b5b4f" fill-opacity=".6" d="M195 41h16v36h-16z"/><circle r="1" fill="#cde7f8" fill-opacity=".4" transform="rotate(75.9 93.5 182.2) scale(13.58217 3.3538)"/><path fill="#cfd3e3" fill-opacity=".5" d="M69 37h7v22h-7z"/><path fill="#2b373f" fill-opacity=".6" d="M215.7 83.5l22.7-8 32.6 29.6-42-26.2z"/><path fill="#96a0ab" fill-opacity=".6" d="M271 116.7l-90.6 8.8L252 114l-14.8-32z"/><ellipse cx="168" cy="121" fill="#eecfce" fill-opacity=".5" rx="2" ry="26"/><path fill-opacity=".5" d="M148 100l3-4-13-6z"/><path fill="#bfd0df" fill-opacity=".6" d="M224 70h22v7h-22z"/><path fill="#282a06" fill-opacity=".6" d="M25.1 143.5l-14.3 30.2-2.5-10.1-21.8 19.8z"/><path fill="#d2eaef" fill-opacity=".3" d="M161.7-12.5l23.5 40.3-14.1 7.1L187.8-16z"/><path fill="#9b9fa6" fill-opacity=".8" d="M191.9 143.5l62.7-61 10.1-2.5-24.7 24.6z"/><path fill="#0e0c00" fill-opacity=".3" d="M9.6 113.9l20.6 17.3-5.8 7-20.6-17.4z"/><path fill="#a2a4aa" fill-opacity=".8" d="M185.8 133.4l54.6-14-43.5-35.8-2.1 3.8z"/><ellipse cx="110" cy="123" fill="#b47556" fill-opacity=".5" rx="11" ry="32"/><path fill="#473601" fill-opacity=".5" d="M173.8-15l6 11.6 3.8 38.4 5-20.1z"/><path fill="#3e3512" fill-opacity=".6" d="M236.1 14.2l-13.5 9.4 2.7-7 18-32.6z"/><path fill="#efe4c7" fill-opacity=".7" d="M-5 135l6-.8L5 163l-6 .9z"/></g></svg>