<svg xmlns="http://www.w3.org/2000/svg" viewBox="0 0 300 199"><defs/><path fill="#57352f" d="M0 0h300v199H0z"/><g transform="translate(.6 .6) scale(1.17188)"><circle r="1" fill="#e0dad5" fill-opacity=".8" transform="matrix(-79.12475 -233.764 101.41273 -34.32631 82.8 121.4)"/><circle r="1" fill="#350800" fill-opacity=".5" transform="matrix(16.96425 -67.87642 13.6155 3.4029 95.6 123.5)"/><circle r="1" fill="#b99e96" fill-opacity=".9" transform="matrix(94.9813 -1.6579 .5962 34.156 217.7 174.4)"/><circle r="1" fill="#030000" fill-opacity=".4" transform="matrix(-61.87693 28.11973 -15.64114 -34.41804 206.8 44.2)"/><circle r="1" fill="#fbffff" fill-opacity=".5" transform="matrix(-55.61397 2.2989 -4.93756 -119.44727 32.9 75.4)"/><path fill="#5f260a" fill-opacity=".6" d="M115.8 75.1l-22.1 28.4-31.5-24.6 22.1-28.4z"/><ellipse cx="124" cy="15" fill="#f7f0ec" fill-opacity=".4" rx="45" ry="61"/><circle r="1" fill="#71543e" fill-opacity=".5" transform="matrix(-3.73399 -27.58647 8.26838 -1.11917 141 108)"/><path fill="#492922" fill-opacity=".7" d="M119.7 106.8l-9.5 28.8L56.3 185l59.2-98.9z"/><circle r="1" fill="#000605" fill-opacity=".5" transform="matrix(16.47745 -54.30648 27.8204 8.44115 241.8 49.2)"/><path fill="#f4fffc" fill-opacity=".6" d="M266.7 101.4l-12.3 15.8-11-8.6 12.2-15.8z"/><circle r="1" fill="#eeeeec" fill-opacity=".7" transform="rotate(-99.5 78.6 32.6) scale(28.41785 33.19672)"/><path fill="#754c40" fill-opacity=".5" d="M235.8 129l-34.7 15.4-55-123.3L181 5.6z"/><path fill="#452016" fill-opacity=".5" d="M141.7 148.7l6.2 33.7-87.1-20.1 44.2 15z"/><path fill="#744538" fill-opacity=".8" d="M93.6 43.9l4.2-1.9 12.6 21.8 2.6 23.1z"/><circle r="1" fill="#fffff7" fill-opacity=".5" transform="matrix(-10.88683 -7.63604 21.72935 -30.9799 119.5 142.9)"/><ellipse cx="154" cy="52" fill="#a76553" fill-opacity=".4" rx="19" ry="32"/><circle r="1" fill="#f5ffff" fill-opacity=".5" transform="matrix(5.59597 -19.92656 43.73836 12.28302 89.9 21.2)"/><path fill="#eae2d9" fill-opacity=".6" d="M181 185L145 83l30-3z"/><ellipse cx="23" cy="70" fill="#f4f7f9" fill-opacity=".7" rx="19" ry="41"/><ellipse cx="246" cy="134" fill="#9e7567" fill-opacity=".4" rx="92" ry="10"/><path fill="#c2a890" d="M83.9 48.6l-15 8.1L74 72.2l13.2 19.2z"/><path fill="#401f1b" fill-opacity=".4" d="M220 34l-96 51 66-10z"/><path fill="#2a0000" fill-opacity=".4" d="M81.3 88.6L73 92.1l-6.3-14.7 8.3-3.5z"/><circle r="1" fill="#dcc4bf" fill-opacity=".4" transform="rotate(158.7 77.5 98.8) scale(45.06038 21.69304)"/><circle r="1" fill="#0b0000" fill-opacity=".6" transform="matrix(-5.18966 -8.162 2.54682 -1.61935 139.2 89)"/><circle r="1" fill="#f0ebe3" fill-opacity=".4" transform="rotate(76 65 103.2) scale(24.0984 12.20577)"/><circle r="1" fill="#c09480" fill-opacity=".5" transform="matrix(4.94458 -28.49453 4.83762 .83946 192.8 115.3)"/><ellipse cx="123" cy="59" fill="#e5eded" fill-opacity=".6" rx="10" ry="45"/><path fill="#16120f" fill-opacity=".8" d="M271 20.6L247-16h-76.8l78.4 109.1z"/><path fill="#68563c" fill-opacity=".5" d="M140 131l17-5-7-23z"/><path fill="#492e29" fill-opacity=".9" d="M85 185l-23-5 52-69z"/><path fill="#2a2120" fill-opacity=".5" d="M248 111l-48 4 8-62z"/><path fill="#c9ae9e" fill-opacity=".7" d="M136.1 131.6l-16.8-7.7 11-29.4 20.9 20.3z"/><ellipse cx="97" cy="72" fill="#592d17" fill-opacity=".6" rx="16" ry="5"/><circle r="1" fill="#b1b7b6" fill-opacity=".6" transform="matrix(1.4706 -4.35258 67.64944 22.85667 17.4 21.5)"/><path fill="#f1f2ef" fill-opacity=".5" d="M84.4 58.1l9 15.7-46.2-40.1 22 6.9z"/><path fill="#fff" fill-opacity=".4" d="M48 41h18v41H48z"/><path fill="#5e322a" fill-opacity=".5" d="M110.1 128.8l-.6-71.5-12.1-18.7 2.3 9.3z"/><path fill="#72483c" fill-opacity=".7" d="M188.2 105.8l-9.5-19.6-16.1-9.5 41.3.5z"/><ellipse cx="43" cy="23" fill="#9fa2a3" fill-opacity=".6" rx="2" ry="70"/><path fill="#e9e8e5" d="M158 128.5l26.7-11.9-43.1-15.7 17.1-14.3z"/><path fill="#fff" fill-opacity=".4" d="M138 142l-25-12-23 41z"/><circle r="1" fill="#bf9c91" fill-opacity=".6" transform="rotate(114.5 57.4 77.2) scale(11.84012 15.66217)"/><circle cx="123" cy="54" r="16" fill="#e6eeee" fill-opacity=".5"/><path fill="#450308" fill-opacity=".2" d="M76.9 68.7l-7-13.7 26.9 8.5-14.7-19.7z"/><circle r="1" fill="#836054" fill-opacity=".7" transform="matrix(-20.35085 -16.78707 4.82552 -5.84994 230.6 132.6)"/><circle r="1" fill="#a17766" fill-opacity=".5" transform="matrix(-2.95602 -2.82409 34.94735 -36.57995 165.2 10.9)"/><circle r="1" fill="#e4e9ea" fill-opacity=".6" transform="matrix(-9.9778 -31.83922 59.49599 -18.64491 30 133.4)"/><circle r="1" fill="#a2c7e3" fill-opacity=".5" transform="matrix(22.32031 -.02866 .0118 9.18833 0 156)"/><path fill="#3c1e15" fill-opacity=".2" d="M150.2 170.7l-48.5 12.1-3.9-15.5 48.5-12.1z"/><path fill="#c2ac8e" fill-opacity=".8" d="M172.6 103.5L160 95.1l-.4-4.4 23.1 9z"/><circle r="1" fill="#d7c2bd" fill-opacity=".6" transform="matrix(-12.88172 -5.96626 11.70705 -25.27662 167.6 159.3)"/><path fill="#bb9574" fill-opacity=".6" d="M99.9 78.2l-5.3 8.5-8.3-26.1 2.2 11.3z"/><path fill="#470b00" fill-opacity=".3" d="M64.4 69.5l-2.2 2.7 46.9 46.1-42-53.5z"/><path fill="#874e2e" fill-opacity=".5" d="M125.2 104.5l3.6 20.7-2 .3-3.6-20.7z"/><path fill="#39271e" fill-opacity=".2" d="M111.6 185l51.6-50.8 11.1-9.1-8.9 16.9z"/><path fill="#b59487" fill-opacity=".4" d="M180.3 122.3l50.7 35.9-17-52-10.9 67.6z"/><path fill="#322523" fill-opacity=".3" d="M190.8-14L256 134.1l-93.6-95.6-5.5 6.1z"/><path fill="#b79586" fill-opacity=".5" d="M96 117.5L64.5 172l-2.5-1.5L93.5 116z"/><path fill="#2f1e1e" fill-opacity=".5" d="M195.2 134.5l7.9-37.1 9.7 2-7.9 37.2z"/><path fill="#642a01" fill-opacity=".3" d="M92.8 70.4L72.7 58l7.4 12.1 11.7 19.1z"/><path fill="#fdfbea" fill-opacity=".4" d="M88.1 87v1.8l-76.4-96 70.5 79.4z"/><path fill="#afbfd2" fill-opacity=".4" d="M236.3 185l34.7-43.4v-13l-20.4 15.9z"/><path fill="#e3ebeb" fill-opacity=".5" d="M109.8 62.6l-9.1-77.8 59.1-.8-9.6 37z"/></g></svg>