<svg xmlns="http://www.w3.org/2000/svg" viewBox="0 0 300 199"><defs/><path fill="#434343" d="M0 0h300v199H0z"/><g transform="translate(.6 .6) scale(1.17188)"><circle r="1" fill="#f2f2f2" fill-opacity=".5" transform="rotate(72.3 59.6 114.1) scale(174.32647 73.98606)"/><circle r="1" fill-opacity=".7" transform="matrix(32.64083 -69.33726 82.936 39.0425 37.6 126)"/><ellipse cx="55" cy="13" fill="#dbdbdb" fill-opacity=".5" rx="255" ry="21"/><circle r="1" fill="#686868" fill-opacity=".9" transform="matrix(-40.70983 -33.5586 29.75947 -36.10113 203.3 79.8)"/><ellipse cx="55" cy="33" fill="#777" fill-opacity=".9" rx="21" ry="32"/><ellipse cx="140" cy="143" fill="#bcbcbc" fill-opacity=".9" rx="15" ry="49"/><path fill="#dbdbdb" fill-opacity=".5" d="M78 101h10v51H78z"/><path fill="#dedede" fill-opacity=".6" d="M58 27l99 52 5-46z"/><ellipse cx="191" cy="155" fill="#f0f0f0" fill-opacity=".5" rx="23" ry="27"/><path fill-opacity=".7" d="M184 32l12 39-36-29z"/><path fill="#c7c7c7" fill-opacity=".6" d="M210.7 43.2l27.5 93.4-24.1-48.8-33.6 13.1z"/><path fill="#1c1c1c" fill-opacity=".6" d="M122.2 94.1l64.5-5.4-51.4-7.5-9.8-32.5z"/><path fill="#202020" fill-opacity=".5" d="M175 96h41v33h-41z"/><path fill-opacity=".7" d="M34.8 29.2l7.5 35.2-39.1 8.4-7.5-35.2z"/><circle r="1" fill="#fff" fill-opacity=".5" transform="rotate(30.2 -225 60.7) scale(5.37729 18.34313)"/><path fill="#2e2e2e" fill-opacity=".8" d="M111.4 51.5L85.8 152.8 91 74.5l10.4-22.6z"/><path fill="#5a5a5a" d="M270 119l-34-47-8 101z"/><circle r="1" fill="#010101" fill-opacity=".8" transform="matrix(21.37661 52.14984 -27.71988 11.36259 44.8 120.8)"/><path fill="#252525" fill-opacity=".6" d="M66.9 45.4L51.6 23.6l8.7-34.5L66.2-9z"/><circle r="1" fill="#171717" fill-opacity=".6" transform="rotate(-137.4 58.1 -21.6) scale(6.35206 10.61068)"/><path fill="#cacaca" fill-opacity=".4" d="M251-21.5l-5.3 60.8-66.7-5.8 5.3-60.8z"/><path fill="#fbfbfb" fill-opacity=".5" d="M92 80L79 38l20 4z"/><path fill="#adadad" fill-opacity=".4" d="M128 88l68 12-102 27z"/><path fill="#bbb" fill-opacity=".7" d="M219 99h11v71h-11z"/><ellipse cx="11" cy="23" fill="#e2e2e2" fill-opacity=".5" rx="21" ry="10"/><path fill="#303030" fill-opacity=".5" d="M153 147l19-38-6 57z"/><ellipse cx="185" cy="70" fill="#1d1d1d" fill-opacity=".5" rx="11" ry="14"/><path fill="#cdcdcd" fill-opacity=".8" d="M129.8 54.1L67.4 16.7 70 42.3l11.5 5.8z"/><circle r="1" fill="#3b3b3b" fill-opacity=".4" transform="matrix(-38.84088 -2.03556 .23088 -4.40553 246.7 26.5)"/><ellipse cx="53" cy="58" fill="#e7e7e7" fill-opacity=".4" rx="6" ry="13"/><path fill="#bababa" fill-opacity=".5" d="M52 116l-7 19 11-10z"/><path fill="#f8f8f8" fill-opacity=".4" d="M229 88l-34-49-3 18z"/><path fill="#b8b8b8" fill-opacity=".7" d="M74.9 128.5l12.7-6.2 2.7-12.5-8-9z"/><path fill-opacity=".6" d="M77 45l27 62-50-32z"/><circle r="1" fill="#f9f9f9" fill-opacity=".5" transform="matrix(.23793 3.1644 -36.13812 2.71724 242.6 16.7)"/><path fill="#4d4d4d" fill-opacity=".9" d="M28.4 4.8l16.4 21.3 23.9 4.5L44 37.7z"/><path fill="#c8c8c8" fill-opacity=".6" d="M166 71L115 3l24 79z"/><path fill="#d1d1d1" fill-opacity=".9" d="M109.6 84.4l19.7-42.5-4-12.4-19 46.6z"/><circle r="1" fill="#6c6c6c" fill-opacity=".5" transform="matrix(26.8903 3.97081 -.62168 4.21 96 21.2)"/><path fill="#4b4b4b" fill-opacity=".5" d="M88 104h39v23H88z"/><path fill="#282828" fill-opacity=".6" d="M135 96l-4-14 52-4z"/><circle r="1" fill="#adadad" fill-opacity=".5" transform="matrix(-12.32214 -14.3765 4.13513 -3.54423 255 111.5)"/><path fill="#fcfcfc" fill-opacity=".5" d="M37-10L29 6l-40-9z"/><path fill="#aeaeae" fill-opacity=".5" d="M264.9 108.8l-27.8-39 .7-6 12.7 6z"/><ellipse cx="26" cy="169" fill-opacity=".8" rx="23" ry="77"/><path fill-opacity=".6" d="M83 153l44 32-3-62z"/><path fill="#585858" fill-opacity=".8" d="M72.3 88.3l2.6-5.2 8.6 21.4-8.3 5.7z"/><path fill="#020202" fill-opacity=".5" d="M181.1 32l-11.4 2.9-6.4 14.4 31.3 7.1z"/><ellipse cy="167" fill="#f2f2f2" fill-opacity=".5" rx="2" ry="12"/><path fill-opacity=".6" d="M32 26l-48 35 55 94z"/><path fill="#080808" fill-opacity=".5" d="M234.4 74.7l10.3 23.7 26.3 1.7-47.4-17z"/><ellipse cx="100" cy="99" fill-opacity=".6" rx="18" ry="6"/><circle r="1" fill="#525252" fill-opacity=".5" transform="rotate(-33.8 279.3 -189.6) scale(4.15184 7.03226)"/><path fill="#cbcbcb" fill-opacity=".6" d="M124 141h6v15h-6z"/><circle cx="170" cy="56" r="6" fill="#cecece" fill-opacity=".5"/><path fill="#262626" fill-opacity=".4" d="M230.8 37.1l22.5 8.3-4.8 21.4L209.1 39z"/><path fill="#242424" fill-opacity=".5" d="M109 100l-25 27 8 32z"/><path fill="#eaeaea" fill-opacity=".3" d="M106.5 111l40.4-5.9L129.4 90l-11 28.8z"/><ellipse cx="50" cy="86" fill="#b7b7b7" fill-opacity=".5" rx="2" ry="6"/><ellipse cx="255" cy="36" fill="#7f7f7f" fill-opacity=".7" rx="31" ry="5"/><path fill="#5a5a5a" fill-opacity=".7" d="M202 69.8l-26.6-22.3 38.8 31.9 5.5 26.3z"/><path fill="#393939" fill-opacity=".8" d="M214.2 127.8l-49.5 1.3 52.7-27.2 2.3 19.8z"/><circle r="1" fill="silver" fill-opacity=".5" transform="matrix(-3.58371 -10.07722 5.31906 -1.8916 170.3 104)"/><circle r="1" fill="#111" fill-opacity=".6" transform="matrix(7.05863 1.8268 -1.24098 4.79505 104.3 56.8)"/><ellipse cx="169" cy="13" fill-opacity=".3" rx="2" ry="40"/></g></svg>