<svg xmlns="http://www.w3.org/2000/svg" viewBox="0 0 300 199"><defs/><path fill="#444244" d="M0 0h300v199H0z"/><g transform="translate(.6 .6) scale(1.17188)"><path fill="#f0edea" fill-opacity=".7" d="M179 54.9l-29 101L29 121 58 20z"/><circle r="1" fill="#f6faff" fill-opacity=".7" transform="matrix(-15.05475 -1.5292 14.94122 -147.09357 0 21.6)"/><circle r="1" fill-opacity=".6" transform="matrix(-15.98284 24.0561 -173.82452 -115.48874 226.7 65.8)"/><path fill="#888783" fill-opacity=".9" d="M30.2 128.5l111.8-6 1.8 35-111.8 6z"/><circle r="1" fill-opacity=".7" transform="rotate(96.1 -53.9 76) scale(178.55583 13.02812)"/><circle r="1" fill="#0a090a" fill-opacity=".8" transform="matrix(-21.20282 5.60203 -27.96353 -105.83772 247.6 130.8)"/><path fill="#000002" fill-opacity=".7" d="M158.8 185.7l21.7-137.3 24.7 4-21.7 137.2z"/><path fill="#ecedf0" fill-opacity=".6" d="M150 49h19v77h-19z"/><path fill="#737676" fill-opacity=".7" d="M42.2 153l-16.9-2L41.8 17l16.9 2z"/><circle r="1" fill="#f0f7fd" fill-opacity=".5" transform="matrix(29.87256 7.34117 -4.14187 16.85403 85.2 47.3)"/><path fill="#a19d97" fill-opacity=".7" d="M133 157.3l-5.5-28.5 31.4-6 5.6 28.4z"/><path fill="#040606" fill-opacity=".5" d="M198 7l-11 50L6-4z"/><circle r="1" fill="#fff" fill-opacity=".4" transform="matrix(13.5385 3.78002 -11.89566 42.60548 118.5 86.9)"/><circle r="1" fill="#270500" fill-opacity=".5" transform="rotate(-96.4 84.8 -8.6) scale(13.88241 3.2767)"/><path fill="#5e4438" fill-opacity=".5" d="M136.9 81.3l-13.5 46.4-56.1.8 67.5 9.5z"/><path fill="#4d5056" fill-opacity=".9" d="M232.6 179l-48.4 6L204 61.8l3.9-3.9z"/><path fill="#441a09" fill-opacity=".5" d="M63 58h9v23h-9z"/><path fill="#505356" fill-opacity=".8" d="M169.8 40.8l7.9 15.1-5.5 47.8-4-14.2z"/><path fill="#4d6c7d" fill-opacity=".7" d="M96.9-5.5L77.5 19.3l-17.2 3.5 6.1-17.2z"/><path fill="#fdfefe" fill-opacity=".7" d="M59.1 104l4.6-89.4-11.8 67.5.8 44.7z"/><path fill="#fbfdff" fill-opacity=".5" d="M98.1 81l-9.5 45-14.7-3 9.5-45z"/><path fill="#040606" fill-opacity=".4" d="M183.4 181L6.6 174.6l176.1-24.8 11-29.9z"/><path fill="#b9bcbe" fill-opacity=".6" d="M86 138h78v12H86z"/><circle r="1" fill-opacity=".5" transform="rotate(-163.8 15.5 71.5) scale(18.61456 43.41923)"/><path fill="#898b8b" fill-opacity=".7" d="M24.7 185L53.4 51.9l-4.3 72.7-6.4 60.4z"/><path fill="#735449" fill-opacity=".5" d="M105 65l-14 41 16-16z"/><ellipse cx="255" cy="26" fill="#2e3038" fill-opacity=".7" rx="15" ry="53"/><path fill="#252223" fill-opacity=".4" d="M143 128.5l42.6 22 .8-132.5-18.3 104.5z"/><path fill="#f2efee" fill-opacity=".6" d="M144.6 83.1l24.2 36.7-31.7 4.9 19.5-56.8z"/><path fill="#755445" fill-opacity=".5" d="M124 107h14v32h-14z"/><path fill="#010000" fill-opacity=".6" d="M40.5 15.1l42 10.9L24.1-8.6 3.8 185z"/><path fill="#030200" fill-opacity=".6" d="M226.4 62.3l-59.3-29 14.5-29.6 59.3 29z"/><path fill="#f9f9f8" fill-opacity=".7" d="M58.3 36.9l-4.8 32.2 7.9-5.3 25.7-31.7z"/><path fill="#9e8077" fill-opacity=".6" d="M63.6 46.3l6.9 62.9 1.8 4.8-10.4-7.8z"/><path fill="#3f1711" fill-opacity=".4" d="M145 80l-7-11-6 6z"/><ellipse cx="125" cy="54" fill="#d8dddf" fill-opacity=".5" rx="42" ry="10"/><circle r="1" fill="#eeeef6" fill-opacity=".5" transform="matrix(-9.03916 -5.32898 14.2452 -24.1631 0 35)"/><circle r="1" fill="#606468" fill-opacity=".4" transform="matrix(-6.26367 57.0588 -2.59547 -.28492 10.4 75)"/><path fill="#faf9f8" fill-opacity=".4" d="M105 88h21v37h-21z"/><path fill="#dbdada" d="M139.1 97.6L104.9 77l6.1-32.9 23.5 30z"/><circle r="1" fill="#696b69" fill-opacity=".5" transform="matrix(-.59485 -5.14207 39.56968 -4.57755 84.5 158.4)"/><ellipse cx="114" cy="15" fill="#0e0b0b" fill-opacity=".6" rx="30" ry="19"/><path fill="#9a9e9e" fill-opacity=".6" d="M128.5 148l-41 8.7-4-18.6 41-8.8z"/><circle r="1" fill="#bdc5ca" fill-opacity=".5" transform="matrix(-34.28505 -12.9557 2.31393 -6.12343 94 36.8)"/><path fill="#d9dce0" fill-opacity=".8" d="M68.8 69.4l23.9 7.3-.3 19.5-1.1-67.5z"/><path fill="#424139" fill-opacity=".4" d="M77.6 131l35-4.5 26.1 3.3-60.9 4.5z"/><path fill="#131110" fill-opacity=".7" d="M196 59.3L171.4-16 73 23.2l66.2 20.3z"/><path fill="#4c5158" fill-opacity=".7" d="M181.6 3.2L225 26.1 245.6 37l-19-53z"/><path fill="#988377" fill-opacity=".8" d="M145.9 99.5l-15.3 24.1 28 17.8-37.1-32.4z"/><path fill="#e4e4e7" fill-opacity=".5" d="M133 136l8 18 6-11z"/><path fill="#220c00" fill-opacity=".5" d="M99 63h8v7h-8z"/><path fill="#e4dcd8" fill-opacity=".5" d="M49 111h57v15H49z"/><circle r="1" fill="#080605" fill-opacity=".8" transform="matrix(-40.75974 7.18164 -.5311 -3.0143 147.6 166.6)"/><path fill="#d3c9c7" fill-opacity=".5" d="M162 69h4v64h-4z"/><path fill="#787977" fill-opacity=".5" d="M57.1 31l-7.3 69.6-15-1.6 7.4-69.6z"/><path fill="#9a8384" fill-opacity=".4" d="M106.6 75.8l5.1 5.8-15.3 13.5 2.8 32.1z"/><path fill="#14090a" fill-opacity=".5" d="M129.9 94l4.9-1 1.3 7-4.9 1z"/><path fill="#512d24" fill-opacity=".4" d="M68 98.1h1l3 29.8h-1z"/><path fill="#270201" fill-opacity=".2" d="M80.6 70l-2.1 20 5.1-9.4-34.2-11.7z"/><path fill="#383e47" fill-opacity=".5" d="M40.3 17.8L29.7 138.4l-2-.2L38.3 17.6z"/><path fill="#f0efeb" fill-opacity=".6" d="M158 168l13 6h-32z"/><path fill="#c9cbcd" fill-opacity=".6" d="M161 58h8v60h-8z"/><path fill="#090809" fill-opacity=".7" d="M89-16L64 5.8l-5.8 13.7L18.4 2.7z"/><ellipse cx="72" cy="14" fill="#546f7e" fill-opacity=".5" rx="10" ry="7"/><path fill="#bebebc" fill-opacity=".7" d="M92.4 30.4l8.1 32.8-1.1 5-7-1.1z"/></g></svg>