<svg xmlns="http://www.w3.org/2000/svg" viewBox="0 0 300 199"><defs/><path fill="#432c22" d="M0 0h300v199H0z"/><g transform="translate(.6 .6) scale(1.17188)"><circle r="1" fill="#fffffe" fill-opacity=".6" transform="matrix(14.22215 -64.152 43.22033 9.58172 89 127.2)"/><ellipse cx="27" cy="69" fill="#060000" fill-opacity=".8" rx="30" ry="79"/><path fill="#fffff5" fill-opacity=".3" d="M115.3 103l-77.7 75.6L80.1 12.3l7.9 12z"/><circle r="1" fill="#000500" fill-opacity=".5" transform="matrix(11.41932 77.31804 -88.28658 13.03929 222.3 67.4)"/><path fill="#8b7a61" fill-opacity=".7" d="M160 185l-20-84-86 84z"/><path fill="#daf9f4" fill-opacity=".6" d="M137.4 11.7l12.9-4.8-3.1-22.9-15.7 21.5z"/><circle r="1" fill="#030a06" fill-opacity=".6" transform="matrix(-15.86442 13.23867 -29.2503 -35.0518 109.4 22)"/><path fill="#9f6224" fill-opacity=".6" d="M95.5 171.5l-9.7 20.8-55.3-25.8 9.7-20.8z"/><path fill="#c5a795" fill-opacity=".5" d="M57 32l40 46-1-45z"/><circle r="1" fill="#edf6fd" fill-opacity=".5" transform="matrix(-15.45179 1.5311 -3.33765 -33.68361 67.9 128)"/><path fill="#130a07" fill-opacity=".7" d="M57.4 92.7L-15.2 73l90.5-6.9-.3-34.8z"/><ellipse cx="163" cy="20" fill="#94a48c" fill-opacity=".3" rx="8" ry="44"/><path fill="#9da79d" fill-opacity=".5" d="M104.7 150.7l-26.6 12.8 53.4-78.8 22.5 55.4z"/><path fill="#6f3b18" fill-opacity=".6" d="M47 181l105-35 7 39z"/><circle r="1" fill="#312019" fill-opacity=".9" transform="matrix(9.46451 -43.7751 84.3175 18.23009 240 147.7)"/><circle r="1" fill="#22130b" fill-opacity=".9" transform="matrix(-17.94944 -27.53438 41.59631 -27.1163 0 134.8)"/><path fill="#190b00" fill-opacity=".3" d="M86.8 64.9L119.6 12l-1.1 39.7-47.7 31.5z"/><path fill="#837c6d" fill-opacity=".5" d="M52 1h10v46H52z"/><circle r="1" fill="#000703" fill-opacity=".4" transform="matrix(35.90643 -41.30563 45.6618 39.6932 230 23.1)"/><path fill="#dbbeb0" fill-opacity=".6" d="M76.9 26.6l-3-.5 3.2-16.7 3 .5z"/><path fill="#0d0605" fill-opacity=".8" d="M33 99.5L-35.7-6.2-3-27.5 65.7 78.2z"/><path fill="#060000" fill-opacity=".4" d="M32.6 28l11.2 62.7 16.7-83 39.8 27.5z"/><path fill="#ffffeb" fill-opacity=".3" d="M82.6 77.2l-6.8-2 11.6-40.4 6.8 2z"/><circle cx="73" cy="60" r="7" fill="#140200" fill-opacity=".5"/><path fill="#414431" fill-opacity=".6" d="M117 9h55v17h-55z"/><circle r="1" fill="#646753" fill-opacity=".6" transform="matrix(-5.17722 2.4694 -11.83035 -24.80285 136 104.6)"/><circle r="1" fill="#5d4027" fill-opacity=".5" transform="matrix(19.9127 -32.24142 5.38998 3.32892 33 142.9)"/><path fill="#b0b0a5" fill-opacity=".6" d="M119.3 103.8L82.7 90.1l-1.5 54.3 63.6-16.1z"/><path fill="#100d09" fill-opacity=".7" d="M54.4 15L119-13.7l-1.9 87.4-34.5-61.9z"/><path fill="#dcdde1" fill-opacity=".5" d="M40.1 138.8l9-15.6 20.8 12-9 15.6z"/><path fill="#0e0605" fill-opacity=".8" d="M29-16L17 67l51 10z"/><circle r="1" fill="#e0e7e8" fill-opacity=".5" transform="matrix(24.78056 -10.49173 2.5033 5.9126 84.6 81.6)"/><path fill="#130908" fill-opacity=".7" d="M.8-16l58 102.8-7.6 32.2-56.7 24.9z"/><path fill="#d0a27f" fill-opacity=".6" d="M62 59h5v10h-5z"/><path fill="#ffc4ba" fill-opacity=".2" d="M80.3 25.2l-33 8.7 41.2 19.2-38.7-6.8z"/><path fill="#dbfcf7" fill-opacity=".4" d="M147.7-16l11.5 26.8 2.1-26.8H99.8z"/><path fill="#dfa28b" fill-opacity=".4" d="M75 12h8v17h-8z"/><path fill="#403938" fill-opacity=".5" d="M257 125l-50-8-43 21z"/><circle r="1" fill="#858d82" fill-opacity=".5" transform="matrix(.52575 4.91139 -7.5151 .80447 61.3 5)"/><path fill="#28211b" fill-opacity=".6" d="M116.6 16.8l53.7 2-12.5 22.4-40.2 31.9z"/><path fill="#130e0a" fill-opacity=".8" d="M74.1 32.2l-9.5-2.9L20 46.6l53.7-30.5z"/><path fill="#421a0e" fill-opacity=".4" d="M58.6 46.5l13.2-18.2 8 .6L61.9 59z"/><path fill="#0d0903" fill-opacity=".5" d="M123.7 73.7l24.9-16.8 11.7 17.4-24.9 16.8z"/><circle r="1" fill="#fff2e3" fill-opacity=".4" transform="rotate(124.5 27 53.3) scale(6.66705 4.40106)"/><path fill="#6a4329" fill-opacity=".5" d="M49.6 156.7l-19 11.1 6.6-35.8 8.4 10.4z"/><path fill="#515a3f" fill-opacity=".5" d="M118 0h15v15h-15z"/><path fill="#717669" fill-opacity=".7" d="M135.9 94L103 61.3l11.2 3.8 23.7 31.4z"/><path fill="#e7cac0" fill-opacity=".5" d="M73 48l9-13-4-7z"/><path fill="#c7c7c5" fill-opacity=".4" d="M96.1 158.7l-8 5.8-22.4-9.8 16.7-39.3z"/><circle r="1" fill="#3d2f2c" fill-opacity=".7" transform="matrix(20.11472 -38.0559 10.12855 5.35352 167 169)"/><path fill="#c5d3cf" fill-opacity=".5" d="M133 0h17v9h-17z"/><path fill="#e5e7e8" fill-opacity=".8" d="M67.8 154.5l2-74.3-11 11.7-5.5 16.8z"/><path fill="#0c0504" fill-opacity=".7" d="M27.8 25.9L22.6-3.7l23.6-4.2 5.2 29.6z"/><path fill="#c9cec8" fill-opacity=".4" d="M107 73.6l19 30.5-23 14.3L84 88z"/><path fill="#a29e8f" fill-opacity=".5" d="M86.4 89.7l1.5 61.6 51.2-34-29.6 32.2z"/><path fill="#040503" fill-opacity=".5" d="M59 23L83 6l-26 6z"/><circle cx="223" cy="166" r="37" fill="#251116" fill-opacity=".4"/><path fill="#5c3b1e" fill-opacity=".6" d="M138 143l-19 21 44-25z"/><path fill="#4c2317" fill-opacity=".4" d="M84 5.2l6 28.4-6 1.2-6-28.4z"/><path fill="#bf9180" fill-opacity=".5" d="M68 32L56 43l-1-10z"/><ellipse cx="205" cy="108" fill="#2e1b04" fill-opacity=".5" rx="58" ry="12"/><path fill="#372519" fill-opacity=".6" d="M92.1 49.2l7.5 13.9 33.5-26.4-4.8 40.2z"/><path fill="#9c4c1b" fill-opacity=".2" d="M82.9 78.9l-25.6 3 37.3-15.8 6.6-35.6z"/><path fill="#888377" fill-opacity=".6" d="M136.4 144.1l2.6-8-10-10.7-31.4 42.5z"/><path fill="#633c22" fill-opacity=".5" d="M91 164h29v6H91z"/></g></svg>