<svg xmlns="http://www.w3.org/2000/svg" viewBox="0 0 300 199"><defs/><path fill="#553831" d="M0 0h300v199H0z"/><g transform="translate(.6 .6) scale(1.17188)"><circle r="1" fill="#dac4ae" fill-opacity=".5" transform="matrix(42.29819 -31.0711 52.02192 70.81926 166.5 0)"/><ellipse cx="105" cy="101" fill="#d2cbc2" fill-opacity=".4" rx="38" ry="37"/><path fill="#fffff1" fill-opacity=".4" d="M10.6 2.2l28.7-20 36.1 51.6-28.7 20z"/><path fill="#080808" fill-opacity=".8" d="M268 185L50 172l187-91z"/><circle r="1" fill="#00040e" fill-opacity=".8" transform="rotate(-85.4 101.2 43.7) scale(24.32295 18.33066)"/><path fill="#f8fbf0" fill-opacity=".5" d="M112.8 18.8l24.8-44.6 23.6 13-24.8 44.6z"/><path fill="#efe7f1" fill-opacity=".5" d="M4.8 20.4l14.4 17.9-14 11.3-14.4-17.9z"/><circle r="1" fill="#4d1a00" fill-opacity=".6" transform="matrix(1.00148 33.42264 -14.63942 .43866 191.7 0)"/><path fill="#56453e" fill-opacity=".6" d="M61 31h106v37H61z"/><circle r="1" fill="#dac6b5" fill-opacity=".5" transform="rotate(149.5 99.2 51.3) scale(21.93918 18.04125)"/><path fill="#0b0b0c" fill-opacity=".6" d="M135 109.2l46.3-25.7 21.8 39.3-46.4 25.7z"/><path fill="#96bedd" fill-opacity=".6" d="M22 110l16 4 13-19z"/><circle r="1" fill="#b08970" fill-opacity=".6" transform="rotate(7.3 -302 2039) scale(7.48439 39.01099)"/><ellipse cy="85" fill="#111417" fill-opacity=".5" rx="78" ry="16"/><circle r="1" fill="#645047" fill-opacity=".6" transform="matrix(25.09123 18.43134 -9.56125 13.01606 190.9 86)"/><path fill="#b29d93" fill-opacity=".6" d="M111 66l-37 2 14 62z"/><circle r="1" fill="#000208" fill-opacity=".4" transform="rotate(96.8 88.2 136.4) scale(58.26853 6.53259)"/><path fill="#4c3d30" fill-opacity=".6" d="M76.6 155.4l85.2-10-87.6-9.9L159.3 97z"/><path fill="#eedbc0" fill-opacity=".7" d="M53.2 10.2l13.7 17.6-50-13.9 13.5-3.2z"/><path fill="#38241d" fill-opacity=".5" d="M157-6L63 15 31-16z"/><path fill="#ffe5e4" fill-opacity=".4" d="M242.9 33.9L216 17.1 210.5-1l14.3 10.3z"/><ellipse cx="22" cy="138" fill="#3c5971" fill-opacity=".5" rx="9" ry="38"/><path fill="#523f37" fill-opacity=".6" d="M152 35.3l-26.7-11-15.6-.7 18.1 86.3z"/><path fill="#001833" fill-opacity=".5" d="M62.4 144L34 129l15.5-29L78 115z"/><ellipse cx="101" cy="31" fill="#e1d9c6" fill-opacity=".6" rx="11" ry="3"/><path fill="#d9ebff" fill-opacity=".5" d="M50.1 45.2l-16.8-.9-.8-10.2 17.2.3z"/><path fill="#857d76" fill-opacity=".6" d="M46 66L30 51l5 38z"/><circle r="1" fill="#ffd3b0" fill-opacity=".2" transform="matrix(-14.91918 -23.96867 10.4665 -6.51482 124.6 119.8)"/><path fill="#795f53" fill-opacity=".7" d="M49.3 21l13.5 14.8-21.8-2-57-13.9z"/><path fill="#441900" fill-opacity=".6" d="M161.9 12.8l14.7 16.4-4.5 4-14.7-16.4z"/><path fill="#190b09" fill-opacity=".7" d="M15-10l3 19L-9-3z"/><path fill="#141312" fill-opacity=".7" d="M234.2-.6l40-2.8 1.6 24-40 2.8z"/><path fill="#2e2429" fill-opacity=".4" d="M38 47h54v35H38z"/><path fill="#ffe0ec" fill-opacity=".2" d="M139.4 114.7L95.8 90.3 56 123.8l2.9-37.7z"/><path fill="#563a34" fill-opacity=".6" d="M209 5l12 33 7-6z"/><circle cx="65" cy="25" r="7" fill="#fffeec" fill-opacity=".5"/><path fill="#aa9b92" fill-opacity=".9" d="M72.8 129.6L86 92.8l7.6-7.7-5.6 42.8z"/><path fill="#7e7073" fill-opacity=".5" d="M109 49l39 64 6-22z"/><path fill="#d6cdbe" fill-opacity=".6" d="M146.3-16L158 17.7l-15.6 2.9-29.8 4z"/><ellipse cx="3" cy="153" fill="#1f2c37" fill-opacity=".5" rx="17" ry="56"/><circle cx="91" cy="42" r="4" fill="#f6d3d4" fill-opacity=".5"/><path fill="#0a090d" fill-opacity=".6" d="M32 155h224v11H32z"/><path fill="#1d0c05" fill-opacity=".6" d="M192 31l-17-47 16 17z"/><path fill="#2d0800" fill-opacity=".6" d="M178.5 13.9l-2.2 2L149.5-14l2.2-2z"/><path fill="#5c5558" fill-opacity=".5" d="M33 31.3l8.4 18L-13 74.8l-8.4-18z"/><path fill="#000004" fill-opacity=".5" d="M159 172l-5-99 54 110z"/><circle r="1" fill="#49352f" fill-opacity=".6" transform="matrix(-17.80455 4.87596 -6.88442 -25.1384 255 105.9)"/><path fill="#5e4848" d="M142.5 85.9l-12 20.2-18.8-51.8 34 51.6z"/><circle r="1" fill="#797172" transform="rotate(-154.6 110.2 17.1) scale(5.25387 6.06895)"/><path fill="#221110" fill-opacity=".4" d="M33 111l-4.4-21.4L7.8 50.5l-8 64z"/><path fill="#694836" d="M156.8 22.3l1.8-5.9 19 14.9 10.5 11.6z"/><path fill="#dfe2e1" fill-opacity=".5" d="M18 0h29v5H18z"/><path fill="#cdbac4" fill-opacity=".5" d="M145 44h2v36h-2z"/><path fill="#f3d7b0" fill-opacity=".5" d="M142 28h23v5h-23z"/><path fill="#fffff6" fill-opacity=".1" d="M190.1 7.9l-28.2 46.6 69.4-2.5-71.1-19.8z"/><path fill="#413531" fill-opacity=".7" d="M72 0h42v28H72z"/><path fill="#997a5f" fill-opacity=".8" d="M127.8 47l12.3-29.3 7.3 6.7L119.7 41z"/><path fill="#ffb379" fill-opacity=".2" d="M192.3 47l3.7-15.8-6.2-47.2L231 40.4z"/><path fill="#39281a" fill-opacity=".6" d="M95 116h10v31H95z"/><path fill="#dee9fe" fill-opacity=".3" d="M.3 14.7L16.5-1.2-8 26.8l19.9 23.8z"/><circle r="1" fill="#010d15" fill-opacity=".5" transform="rotate(-136.7 43 53.2) scale(5.67889 12.58158)"/><path fill="#87695d" fill-opacity=".9" d="M110.1 114.9l-47.8-26-1.9 14.1 75.3 9.6z"/><path fill="#8d6a54" fill-opacity=".8" d="M224.4 37.2l-10.6 60-3.7-40 .7 25z"/><path fill="#362928" fill-opacity=".7" d="M136.6 161.1l21.3-38.5-24.4-14.4 9.4-8.8z"/><path fill="#382520" fill-opacity=".6" d="M137.1 74.6l3.6-43.7-22.8 42.2-9.6-52.8z"/></g></svg>