<svg xmlns="http://www.w3.org/2000/svg" viewBox="0 0 300 199"><defs/><path fill="#2a515c" d="M0 0h300v199H0z"/><g transform="translate(.6 .6) scale(1.17188)"><ellipse cx="177" cy="148" fill="#ffbea0" fill-opacity=".6" rx="26" ry="92"/><circle r="1" fill="#f5f9fb" fill-opacity=".8" transform="matrix(-10.64785 21.07915 -18.35247 -9.2705 10.9 4.7)"/><ellipse cx="93" cy="56" fill="#231f05" fill-opacity=".7" rx="61" ry="169"/><circle r="1" fill="#232200" fill-opacity=".8" transform="matrix(-30.08839 -92.05554 67.8789 -22.18624 240 13.7)"/><ellipse cx="162" cy="38" fill="#ffa17c" fill-opacity=".5" rx="12" ry="24"/><path fill="#fffff3" fill-opacity=".6" d="M64.6 53.7l10.2-11 14.6 13.6-10.2 11z"/><ellipse cx="125" cy="95" fill="#ffcda9" fill-opacity=".3" rx="41" ry="15"/><ellipse cx="250" cy="127" fill="#b9d1ff" fill-opacity=".6" rx="9" ry="23"/><ellipse cx="221" cy="130" fill="#221200" fill-opacity=".6" rx="19" ry="34"/><circle r="1" fill="#121e00" fill-opacity=".7" transform="rotate(-92.2 129.8 0) scale(27.85323 24.8014)"/><path fill="#fcfffe" fill-opacity=".6" d="M161 185h-31l35-57z"/><path fill="#ce92b3" fill-opacity=".7" d="M6.6 117.4L-7.1 67.1-6 67l18.1 22.3z"/><ellipse cx="255" cy="169" fill="#ff0e14" fill-opacity=".5" rx="17" ry="24"/><ellipse cx="193" cy="110" fill="#816d5f" fill-opacity=".8" rx="13" ry="41"/><circle r="1" fill="#eed3cb" fill-opacity=".5" transform="matrix(15.27686 1.77215 -2.12412 18.31099 167.3 105.4)"/><path fill="#0b1e01" fill-opacity=".8" d="M151-40.5l28.3 15-56.3 106-28.3-15z"/><path fill="#a2a4a1" fill-opacity=".9" d="M182 166l11-26 42 45z"/><circle r="1" fill="#1c4957" fill-opacity=".6" transform="matrix(20.0983 -7.19624 15.1037 42.18301 46 87)"/><circle r="1" fill="#925d3f" fill-opacity=".5" transform="rotate(47.4 -59.1 26) scale(19.49296 34.8944)"/><circle r="1" fill="#000e1b" fill-opacity=".6" transform="rotate(-81.6 129.3 36.1) scale(67.29078 21.56164)"/><path fill="#122300" fill-opacity=".6" d="M115 17l51 51-9 28z"/><circle r="1" fill="#321408" fill-opacity=".6" transform="matrix(31.72804 -9.02937 7.3018 25.65758 57.2 19.4)"/><ellipse cx="108" cy="94" fill="#b69179" fill-opacity=".5" rx="8" ry="22"/><circle r="1" fill="#56372e" fill-opacity=".7" transform="matrix(-7.43199 -29.97313 6.81145 -1.68893 173.5 30)"/><path fill="#cbafab" fill-opacity=".5" d="M140.2 66.2l-13.3 6.1 5.8-.8.9 36.2z"/><path fill="#6b3e2f" fill-opacity=".5" d="M194.9 91.6l-18 92.3-7.8-1.5 18-92.3z"/><path fill="#e5bba7" fill-opacity=".6" d="M162 89l20 7-7-53z"/><path fill="#b5b4a0" fill-opacity=".3" d="M220 143h24v13h-24z"/><circle r="1" fill="#0f1a05" transform="matrix(4.97936 22.83741 -16.88804 3.68219 120.6 155.8)"/><path fill="#f9fbfe" fill-opacity=".3" d="M163 99l-19-11 27 59z"/><path fill="#975444" fill-opacity=".4" d="M80.4 18.9L48.6 42.8l14.3 13.7 14.9-22.3z"/><path fill="#182e04" fill-opacity=".5" d="M129 117L74 4l50-20z"/><path fill="#23251a" fill-opacity=".9" d="M201.1 140l6.4-25.4 29.9 70.4-36.1-35.7z"/><path fill="#782f55" fill-opacity=".5" d="M10.7 117.6L8.2 182l-20.9.4 8.5-101z"/><path fill="#695d32" fill-opacity=".5" d="M266 87l-90 22 19-28z"/><circle r="1" fill="#fafaff" fill-opacity=".5" transform="matrix(-.03995 -18.774 3.08979 -.00658 255 133)"/><circle cx="252" cy="49" r="37" fill="#041f04" fill-opacity=".6"/><path fill="#fffef4" fill-opacity=".2" d="M162.7 15.8l-11.2-.6 1 50.8 12.7-34.6z"/><path fill="#122d2f" fill-opacity=".9" d="M16.7 94l-6.3-16.1 33.3-13.8-17.6 25.3z"/><path fill="#505439" fill-opacity=".5" d="M90 101.3l-15.7-41L94 52.6l15.8 41z"/><path fill="#381306" fill-opacity=".6" d="M9.7 77.4l-25.7-29 39-4.3-39 40.1z"/><path fill="#e9f6f9" fill-opacity=".4" d="M32.4-10.1L-16 13.6l40.4 18.7-4.3 8.4z"/><path fill="#53713c" fill-opacity=".5" d="M194 44l35-30-5-30z"/><path fill="#001820" fill-opacity=".5" d="M48.8 176.7l-9 .5-4.6-89.9 9-.5z"/><path fill="#1c0605" fill-opacity=".6" d="M166 21l30 50 5-60z"/><path fill="#060e02" fill-opacity=".5" d="M246 94l-47 52 41-12z"/><path fill="#377680" fill-opacity=".7" d="M53.5 62.5L29.3 102 34 77.1l6.9-6.2z"/><path fill="#152a0c" fill-opacity=".7" d="M69 44.7l88.4-15.1-69.5 53.1.4-34z"/><path fill="#1f2a11" fill-opacity=".7" d="M122.6 149.7l34.5-2.4-1.7-36.9-4.2 13z"/><path fill="#c495f7" fill-opacity=".3" d="M105.6 142.8l3-15.6-8.4 6.6-3.2 20z"/><path fill="#130a0a" fill-opacity=".6" d="M71.7 18.1L44 52.4 23.5 32.8 67-16z"/><path fill="#96a5a1" fill-opacity=".4" d="M196 159l-10-50 22-10z"/><path fill="#ccb2a6" fill-opacity=".5" d="M161.1 4l.1 34.1-13.4 4.7 3.7-8.1z"/><path fill="#fde1f8" fill-opacity=".4" d="M-16 74.5l2.6 29L6.5 75.1l2.8 19.6z"/><path fill="#9f8d66" fill-opacity=".4" d="M93.8 17l3.3-2.2L110.2 35l-3.3 2.2z"/><path fill="#78adc3" fill-opacity=".2" d="M3.8 62.9l31.1-26.7 4.5 18.9-2.8 2.2z"/><circle cx="73" cy="51" r="6" fill="#fff7f1" fill-opacity=".5"/><path fill="#cd836c" fill-opacity=".4" d="M165 118l29-59-23 117z"/><path fill="#c77664" fill-opacity=".4" d="M127.8 73.2l29.4 22-10.7 5.2-18.4-4.3z"/><path fill="#3e7bd0" fill-opacity=".5" d="M224.3 202.4l-4.7-1.7 28-77 4.8 1.6z"/><path fill="#ac6949" fill-opacity=".4" d="M164.8 66.2l22.3-3.9-21.2-37.2-12.4 26.1z"/><path fill="#142305" fill-opacity=".6" d="M160.4 82.2L103.9.3l63.5 73.3 1.8-11.5z"/><path fill="#f7cdcf" fill-opacity=".1" d="M84 91.3l11.1 4.5 9.4 17.4L72.9 15z"/><path fill="#564642" fill-opacity=".7" d="M255.2 102.6L271 89l-22.5 30.2 12.8-72z"/><path fill="#75873f" fill-opacity=".2" d="M209.1 51.1l47.5-2.8 14.4-2.8-68.8 19.7z"/></g></svg>