<svg xmlns="http://www.w3.org/2000/svg" viewBox="0 0 300 199"><defs/><path fill="#2b3e54" d="M0 0h300v199H0z"/><g transform="translate(.6 .6) scale(1.17188)"><circle r="1" fill="#fefff6" fill-opacity=".5" transform="matrix(-19.31586 74.46175 -148.70311 -38.57455 186.7 51.2)"/><circle r="1" fill="#ddeaf0" fill-opacity=".5" transform="rotate(-111.8 127.4 -13.8) scale(72.51422 25.07632)"/><path fill="#240900" fill-opacity=".6" d="M88 185l111-5-74-135z"/><circle r="1" fill="#6d8094" fill-opacity=".6" transform="matrix(44.76409 -5.96436 11.6405 87.3651 57.2 64.8)"/><circle r="1" fill-opacity=".6" transform="matrix(5.28314 -.35443 2.65152 39.52313 127 14.6)"/><path fill="#cae3f0" fill-opacity=".7" d="M145 96l93-59-103 3z"/><path fill="#64463f" fill-opacity=".6" d="M137 86h32v66h-32z"/><path fill="#bb9c8f" fill-opacity=".4" d="M192 166l-61-32 140 6z"/><path fill="#e7f9ff" fill-opacity=".4" d="M82.4 97.7l29.7-12 7.5 18.6-29.7 12z"/><ellipse cx="247" cy="22" fill="#0c0b01" fill-opacity=".6" rx="24" ry="6"/><path fill="#00000f" fill-opacity=".5" d="M193 153l-80-44 44-5z"/><ellipse cx="109" cy="142" fill="#03080f" fill-opacity=".9" rx="22" ry="31"/><path fill="#ccefff" fill-opacity=".6" d="M133 19h30v53h-30z"/><ellipse cx="96" cy="51" fill="#aec2d2" fill-opacity=".6" rx="30" ry="29"/><circle r="1" fill="#465668" fill-opacity=".6" transform="matrix(60.40164 -148.95673 36.72256 14.89092 21 19.7)"/><path fill="#242520" fill-opacity=".7" d="M191.2 6.9l17.9.9 20-23.8-49.9 10.5z"/><path fill-opacity=".5" d="M80 72l9 30-16 9z"/><circle r="1" fill="#788ea5" fill-opacity=".5" transform="matrix(-10.21154 3.31059 -24.30424 -74.9667 65.8 106.8)"/><ellipse cx="229" cy="130" fill="#ffffef" fill-opacity=".6" rx="53" ry="4"/><path fill="#170c03" fill-opacity=".6" d="M137.6 69.7l-10.8 27.4-8.1.3-7.5-23.7z"/><ellipse cx="241" cy="116" fill="#00143d" fill-opacity=".2" rx="72" ry="5"/><path fill="#a97d6d" fill-opacity=".7" d="M151.8 80.1l11.5 2.5 2.3 18.9-57.6 7.4z"/><circle r="1" fill="#000610" fill-opacity=".5" transform="rotate(145.8 87 117.2) scale(5.15814 17.08426)"/><path fill="#cfd0c9" fill-opacity=".8" d="M224.2 18L271 138.9l-39.1-83.4-13.5 7.4z"/><path fill="#d99f7f" fill-opacity=".5" d="M215 156l12 23-65-33z"/><ellipse cx="197" cy="36" fill="#434834" fill-opacity=".5" rx="43" ry="2"/><ellipse cx="232" cy="89" fill="#ece9df" fill-opacity=".8" rx="35" ry="3"/><ellipse cx="188" cy="82" fill="#c4dfee" fill-opacity=".6" rx="21" ry="30"/><path fill="#98afc8" fill-opacity=".5" d="M247.8 137.6l.4 13-54 1.8-.4-13z"/><path fill="#000307" fill-opacity=".7" d="M73 185l58-43 83 43z"/><path fill-opacity=".5" d="M103 83l-4-5 4-12z"/><circle r="1" fill="#445367" fill-opacity=".6" transform="matrix(-35.98555 -31.69769 13.70935 -15.56387 49.6 149.8)"/><path fill="#a9c1d5" fill-opacity=".5" d="M108 101L87 54l-1 69z"/><path fill="#8295a8" fill-opacity=".7" d="M66 122l36-138-49 74z"/><path fill="#080e17" fill-opacity=".5" d="M169 120l-5 22 32 13z"/><path fill="#271000" fill-opacity=".5" d="M164 85l-5 27 13-12z"/><path fill="#a37868" fill-opacity=".6" d="M157 125l11 25-39-25z"/><ellipse cx="220" cy="136" fill="#3e4b55" fill-opacity=".7" rx="30" ry="3"/><path fill="#c2c1bb" d="M243.8 127.2l-3.4 7.9L225 86l-12.8-58.2z"/><ellipse cx="189" cy="31" fill="#f3f2e9" fill-opacity=".5" rx="57" ry="2"/><ellipse cx="175" cy="9" fill="#f4eede" fill-opacity=".4" rx="44" ry="4"/><circle r="1" fill="#e7cdc1" fill-opacity=".6" transform="rotate(-131.3 122.8 25.6) scale(24.76975 3.84605)"/><path fill="#2e2e33" fill-opacity=".5" d="M211 75h45v3h-45z"/><path fill="#c9e1f2" fill-opacity=".5" d="M101 45l18 4-11 47z"/><path fill="#d8ebf2" fill-opacity=".5" d="M209 101l7 28 10-34z"/><path fill="#0a1a2a" fill-opacity=".4" d="M247.7 68.6l-6.8-7.6 30.1-5.5-3.3 14.2z"/><path fill="#365b7e" fill-opacity=".5" d="M198 113h14v12h-14z"/><circle cx="241" cy="98" r="7" fill="#314b66" fill-opacity=".6"/><path fill="#183959" fill-opacity=".5" d="M244 112h12v14h-12z"/><circle r="1" fill="#a0c1d7" fill-opacity=".5" transform="matrix(33.99472 35.43119 -7.14171 6.85217 176 64)"/><path fill="#b6cad5" fill-opacity=".5" d="M126.5 67l-20.9-1.5 6.6 41.6 5.4-111.2z"/><path fill="#c8d5d9" fill-opacity=".6" d="M245.6 29.6L141.2 62.7l81.7-3.3 17.8-39.7z"/><path fill="#1b1a14" fill-opacity=".4" d="M180 22h72v2h-72z"/><path fill="#2e332e" fill-opacity=".7" d="M128-9.4l6.9 83.4-8.7-.6-3.3-86.4z"/><path fill="#e9ffff" fill-opacity=".5" d="M159 76l-15-19-3 31z"/><path fill="#010c0e" fill-opacity=".4" d="M86.8 86.3l-11.1-7.2 8.8 44.5-13.3-13z"/><circle r="1" fill="#ede6d7" fill-opacity=".5" transform="matrix(2.43425 -.68424 11.81518 42.03383 196.7 41.7)"/><path fill="#d3e6f0" fill-opacity=".5" d="M165.3 78.7l46.8 29.4-48.4 5.6 16 18.8z"/><path fill="#485342" fill-opacity=".4" d="M115.3 22l-.2-3 101.6-9 .2 3z"/><ellipse cx="177" cy="37" fill="#525e5b" fill-opacity=".7" rx="20" ry="2"/><path fill="#f2e4d0" fill-opacity=".5" d="M231 16h-14l-3-19z"/><ellipse cx="177" cy="19" fill="#ccdfe7" fill-opacity=".6" rx="44" ry="2"/><path fill="#121e2e" fill-opacity=".6" d="M151.3 106.1l9.8 1.9 17 26.1-84.9-20.4z"/><path fill="#0d1c2e" fill-opacity=".7" d="M216 163l18-12-16 1z"/><path fill="#0c0600" fill-opacity=".5" d="M236 45l11 2v-3z"/></g></svg>