<svg xmlns="http://www.w3.org/2000/svg" viewBox="0 0 300 199"><defs/><path fill="#472a29" d="M0 0h300v199H0z"/><g transform="translate(.6 .6) scale(1.17188)"><circle r="1" fill="#d7dfe4" fill-opacity=".9" transform="matrix(-19.59051 -69.08202 132.45464 -37.56193 144 0)"/><circle r="1" fill="#6b5651" fill-opacity=".9" transform="matrix(4.9917 -45.94946 54.87523 5.96136 185 91.5)"/><circle r="1" fill="#030d13" fill-opacity=".8" transform="rotate(-88.2 141.5 -79.4) scale(19.4413 41.01004)"/><circle r="1" fill="#9f837b" fill-opacity=".5" transform="rotate(-73.7 125.8 -32.5) scale(20.75277 105.77757)"/><path fill="#e3e7ea" fill-opacity=".7" d="M71 0h185v43H71z"/><circle r="1" fill="#ffa89d" fill-opacity=".3" transform="rotate(171.5 92.8 77.9) scale(17.09086 33.51027)"/><circle r="1" fill="#604c4a" fill-opacity=".7" transform="matrix(5.02413 92.72119 -18.80532 1.01897 2.7 61.5)"/><ellipse cx="122" cy="64" fill="#d7e2ec" fill-opacity=".6" rx="57" ry="7"/><ellipse cx="236" cy="108" fill="#000001" fill-opacity=".7" rx="28" ry="11"/><path fill="#dadbc0" fill-opacity=".5" d="M206.5 84L294 73.1l1.6 12.9L208 96.8z"/><circle r="1" fill="#1f89ac" fill-opacity=".5" transform="matrix(-3.27687 -23.02446 17.70402 -2.51966 109.8 154.7)"/><path fill="#080203" fill-opacity=".5" d="M141.4 185L181 92l-35.1 3.2 41.2 55.1z"/><path fill="#d9dcde" fill-opacity=".8" d="M121.1-15.4l.1 99.8 4.4 12.4 19-39.7z"/><ellipse cx="44" cy="64" fill="#e0e7f4" fill-opacity=".5" rx="23" ry="10"/><path fill="#000600" fill-opacity=".5" d="M10 93h65v23H10z"/><circle r="1" fill="#cb9fdb" fill-opacity=".5" transform="matrix(8.98293 -10.5446 3.27757 2.79215 56.4 151)"/><path fill="#181317" d="M128.2 134.1l52.1 12.9 9.4 38-62.1-13.7z"/><path fill="#743823" fill-opacity=".5" d="M146 39l31 16-34 2z"/><circle r="1" fill="#0c1319" fill-opacity=".7" transform="matrix(-13.0799 10.29287 -13.36405 -16.98267 192 66)"/><circle r="1" fill="#6c5e5b" fill-opacity=".7" transform="matrix(18.22932 13.98278 -17.27769 22.52487 96.6 94.8)"/><circle r="1" fill="#001727" fill-opacity=".6" transform="rotate(157 25.2 90.7) scale(19.59177 24.85427)"/><circle r="1" fill="#ce7e9e" fill-opacity=".5" transform="matrix(11.2488 -7.00176 2.42208 3.89123 23.8 86.8)"/><ellipse cy="101" fill="#e1f6fa" fill-opacity=".4" rx="9" ry="12"/><path fill="#09080c" fill-opacity=".6" d="M271 75V28l-94 55z"/><ellipse cx="153" cy="114" fill="#e4eaf7" fill-opacity=".6" rx="5" ry="7"/><circle r="1" fill="#a5aec3" fill-opacity=".7" transform="rotate(-113.7 17 -9) scale(16.60575 23.33072)"/><path fill="#42302e" fill-opacity=".4" d="M60 72l112 79-32-53z"/><path fill="#a4dbe9" fill-opacity=".5" d="M114 185l4-31 10-3z"/><circle r="1" fill="#6c3b39" fill-opacity=".7" transform="rotate(-7.5 1333.6 -1709.8) scale(30.00142 34.77964)"/><ellipse cx="141" cy="87" fill="#febc9c" fill-opacity=".2" rx="45" ry="10"/><path fill="#d89e95" fill-opacity=".6" d="M176 113h38v20h-38z"/><path fill="#0b0b0c" fill-opacity=".6" d="M214 98h42v25h-42z"/><path fill="#ced7e1" fill-opacity=".6" d="M44 20l23 52 109-7z"/><circle r="1" fill="#d79aac" fill-opacity=".5" transform="rotate(-128.9 65.7 27.9) scale(19.10528 3.02153)"/><circle r="1" fill="#813a18" fill-opacity=".4" transform="matrix(-11.21613 -13.95005 14.63231 -11.76468 49.3 87.4)"/><path fill-opacity=".5" d="M174 111l-15-14 2 29z"/><path fill="#240303" fill-opacity=".3" d="M186.1 97.8l22.1 9.1-28.3 5.7-5.6-71.4z"/><circle r="1" fill="#0a1710" fill-opacity=".4" transform="matrix(-2.4387 5.04089 -69.80278 -33.76952 61.2 115.2)"/><path fill="#b5b9c6" d="M13 51.7l18.1-30.6 12.1 1.7-2.5 34.8z"/><path fill="#958c7e" fill-opacity=".8" d="M257.1 76.7l-55 18.2 53 4.9-11.7-1.4z"/><circle r="1" fill="#b1bdce" fill-opacity=".5" transform="rotate(178.3 109 20.9) scale(28.27675 6.05151)"/><ellipse cx="86" cy="78" fill="#697868" fill-opacity=".8" rx="19" ry="5"/><path fill="#b7a8a3" fill-opacity=".4" d="M115.6 73.6l67.7-2.2L112 60.2 96 86.5z"/><path fill="#5b5a5a" fill-opacity=".8" d="M118.8 100l-30.2 13.1 53.6 7.9 7.4 30.9z"/><path fill="#000019" fill-opacity=".6" d="M88 95l12-7-17-5z"/><path fill="#ddf8ff" fill-opacity=".5" d="M150 84h9v6h-9z"/><path fill="#683e3a" fill-opacity=".7" d="M17 18.3l-33 9.8 43.5 10.7L1.8 50.3z"/><path fill="#724a44" fill-opacity=".5" d="M40 135l-7-24-49 54z"/><path fill="#684037" d="M180.7 83l17.2 30.4-22.4-16.2-42.6 12.5z"/><path fill="#dff3ff" fill-opacity=".5" d="M135 92h11v7h-11z"/><circle r="1" fill="#c094c7" fill-opacity=".5" transform="matrix(2.6709 -8.90037 4.01052 1.2035 60.2 150.2)"/><path fill="#0a0a00" fill-opacity=".5" d="M26 109l53-18-19 32z"/><path fill="#00000b" fill-opacity=".5" d="M121 140l7-22 33 67z"/><path fill="#8fafd5" fill-opacity=".5" d="M146.7 14.6l-6.5 8L114.9-16l26.7 13.4z"/><path fill="#b08a95" fill-opacity=".6" d="M88.1 123.6L88 95.3 62.8 76.4l34.1 37.5z"/><path fill="#b76b60" fill-opacity=".5" d="M217.7 111.2l-28.1-2.3-26.4 29.5-3.4-14.8z"/><path fill="#082c3a" fill-opacity=".5" d="M174 48l57 13 24-20z"/><path fill="#00849d" fill-opacity=".2" d="M117.6 102.1l-30.2 41.2 5 24.4 47.2-53.3z"/><path fill="#e6eef8" fill-opacity=".6" d="M154 105l-4.2 11.3-3.7-1.3 4-11.3z"/><path fill="#ffbd98" fill-opacity=".2" d="M163 81.4l53.3 14.2-35.8-.2-4.6-19.8z"/><path fill="#4c3022" fill-opacity=".5" d="M119 98h28v13h-28z"/><path fill="#c8cad7" fill-opacity=".5" d="M102.2 34.5L14.6 88.9 30 87 55.1-13.6z"/><path fill="#375641" fill-opacity=".4" d="M51.7 80L120 68.1 86.7 85.2l8.6-7.2z"/><circle r="1" fill="#d8af9d" fill-opacity=".4" transform="matrix(.60723 1.41882 -9.61076 4.11322 98.2 92.6)"/><path fill="#171809" fill-opacity=".2" d="M106 110.6l-11.4 36.1-32.5-81-18 86.5z"/></g></svg>