<svg xmlns="http://www.w3.org/2000/svg" viewBox="0 0 300 199"><defs/><path fill="#28162e" d="M0 0h300v199H0z"/><g transform="translate(.6 .6) scale(1.17188)"><path fill="#f36836" fill-opacity=".8" d="M172 120l32-107-139 7z"/><path fill="#ff663b" fill-opacity=".5" d="M218 124L127 4l64 18z"/><ellipse cx="137" cy="72" fill="#6c1e49" rx="9" ry="46"/><circle r="1" fill="#ffb31f" fill-opacity=".6" transform="matrix(24.5842 -4.26252 2.40077 13.84652 101 41.5)"/><circle r="1" fill="#ffff04" fill-opacity=".5" transform="matrix(-10.3348 1.94023 -8.30241 -44.2235 162.4 60.8)"/><circle r="1" fill="#1a0300" fill-opacity=".7" transform="matrix(148.48721 -53.63604 10.66651 29.5294 228.4 142.7)"/><path fill="#5252f9" fill-opacity=".4" d="M72.8 82.2l-9.7-12.6-35.5 22.8L45.5 114z"/><path fill="#b946e4" fill-opacity=".6" d="M144 50l15 28-23 34z"/><circle r="1" fill="#821254" fill-opacity=".5" transform="matrix(16.15919 -3.8113 7.87978 33.40885 192 98)"/><ellipse cx="234" cy="33" fill="#1e0000" fill-opacity=".4" rx="49" ry="39"/><circle r="1" fill="#3b1128" fill-opacity=".8" transform="matrix(18.37035 -54.09139 16.79337 5.70331 66.7 27.5)"/><path fill="#b4071f" fill-opacity=".5" d="M140.1 33.1l-53.3-8.4 3.1-19.8 53.3 8.4z"/><circle cx="106" cy="40" r="12" fill="#fffe26" fill-opacity=".8"/><path fill="#3c1123" fill-opacity=".5" d="M144 83L44 106l99-64z"/><path fill="#f5004d" fill-opacity=".2" d="M217.2 69l-15.6 27.7-46.1-85.9 35.4-25.7z"/><path fill="#0e080d" fill-opacity=".6" d="M-2-16l-13 182 67 19z"/><path fill="#f80022" fill-opacity=".4" d="M71 41.6l16.6-11.1L101 50.4 84.4 61.5z"/><path fill="#971947" fill-opacity=".6" d="M184.5 129.9l-4.2-9.8-65-63.1 50.7 68.9z"/><path fill="#ff2534" fill-opacity=".6" d="M138 24l22 65 3-30z"/><path fill="#181610" fill-opacity=".5" d="M88.7 208.1L25.4 176l50-98 63.2 32.2z"/><path fill="#827aff" fill-opacity=".4" d="M43 86h5v52h-5z"/><path fill="#ffff0c" fill-opacity=".5" d="M164 24l-19-7 26 63z"/><path fill="#d76595" fill-opacity=".6" d="M204 110l1-30-19-29z"/><circle r="1" fill="#370108" fill-opacity=".4" transform="matrix(4.98187 -1.8231 17.66075 48.26027 128 9.3)"/><path fill="#0c0506" fill-opacity=".6" d="M223 129.7L217 6.3l54 40.1-70.1 29.5z"/><path fill="#ff1f47" fill-opacity=".4" d="M96.4 53.8l41.6 1.4L122.4 20 108 78.8z"/><path fill="#580d36" fill-opacity=".7" d="M169.5 129.1l19.8-100.2-6.9 30.9 31.2 73.5z"/><circle r="1" fill="#000607" fill-opacity=".4" transform="matrix(-17.08654 8.98983 -34.64245 -65.8432 248.6 155.8)"/><ellipse cx="168" cy="86" fill="#ffff23" fill-opacity=".7" rx="6" ry="14"/><path fill="#e867ff" fill-opacity=".4" d="M149.2 65.1l-8.6 22.1 16.5 2.7-3-22.2z"/><path fill="#ff56c4" fill-opacity=".6" d="M141.5 119.4l-2.5.4-3.1-15.8 5.6-19.6z"/><path fill="#3a0528" fill-opacity=".6" d="M234-6l-2.7 25.8L120 8l2.8-25.9z"/><ellipse cx="85" cy="25" fill="#9354f7" fill-opacity=".3" rx="8" ry="11"/><path fill="#360714" fill-opacity=".7" d="M158.4 106.5l-19.6 67.6 3.8-76.9 1.6-10.5z"/><circle r="1" fill="#130a0f" fill-opacity=".9" transform="matrix(70.98303 -26.4006 5.23794 14.0832 22.2 0)"/><ellipse cx="107" cy="95" fill="#2c1a29" fill-opacity=".5" rx="29" ry="30"/><path fill="#af7aff" fill-opacity=".4" d="M233 89l-6-6v9z"/><path fill="#20161d" fill-opacity=".7" d="M50 94h80v76H50z"/><path fill="#9f72ff" fill-opacity=".4" d="M240 104l7-6-2-9z"/><path fill="#ff362f" fill-opacity=".5" d="M140 12h32v7h-32z"/><path fill="#050307" fill-opacity=".6" d="M239 54l-12 63 21-31z"/><path fill="#953b7f" fill-opacity=".4" d="M204.9 115.6l9.1 15.8 4-11.5-30.4-46z"/><path fill="#150028" fill-opacity=".4" d="M148 78l-16-35 4 32z"/><path fill="#ff394e" fill-opacity=".6" d="M174 98l-5 23-10-20z"/><ellipse cx="193" cy="63" fill="#fe467b" fill-opacity=".5" rx="7" ry="9"/><circle r="1" fill="#260a0e" fill-opacity=".5" transform="matrix(13.16044 1.68437 -3.87641 30.28756 63.8 16)"/><path fill="#f37551" fill-opacity=".4" d="M129.7 60.8l3.6 23.8 4.6-10.1-18.4-8.6z"/><path fill="#291742" fill-opacity=".8" d="M44.9 108L43 155.2l.3-27.7L9.9 73.9z"/><path fill="#8a1030" fill-opacity=".5" d="M184 30h17v27h-17z"/><path fill="#fcff90" fill-opacity=".6" d="M100 33h11v10h-11z"/><path fill="#7c60f6" fill-opacity=".5" d="M149.4 91l-.3-11.3L139 61.4l10.8-4.1z"/><path fill="#400a17" fill-opacity=".4" d="M76 53h28v24H76z"/><circle r="1" fill="#030805" fill-opacity=".4" transform="matrix(7.77104 13.89874 -29.39677 16.43628 232.6 33.7)"/><path fill="#4f0946" fill-opacity=".3" d="M19.8 19l31.4 10-13 40L6.8 58.9z"/><ellipse cx="179" cy="42" fill="#fe242d" fill-opacity=".5" rx="7" ry="27"/><circle r="1" fill="#1f0609" fill-opacity=".6" transform="matrix(-19.83384 7.7728 -12.80128 -32.66502 148 151.2)"/><circle r="1" fill="#feff2d" fill-opacity=".8" transform="matrix(6.55078 14.71329 -4.26585 1.89928 157.2 33.3)"/><circle r="1" fill="#ff6c1a" fill-opacity=".5" transform="matrix(.90448 -4.65316 16.85015 3.27534 108.8 27.6)"/><path fill="#ff405e" fill-opacity=".4" d="M132.7 44.9V28.2l-17.6 39.4-18.8-8.7z"/><path fill="#120000" fill-opacity=".5" d="M133 43l6 15V30z"/><circle r="1" fill="#7471f3" fill-opacity=".5" transform="matrix(3.57473 -12.13223 1.3568 .39978 45 88)"/><path fill="#fd4920" fill-opacity=".5" d="M153.8 47.3l-15.1-13.9 23.9 55.5v-38z"/><ellipse cx="197" cy="169" fill="#33080b" fill-opacity=".5" rx="22" ry="47"/><path fill="#6c34e1" fill-opacity=".4" d="M249 85l22-56-2 35z"/><path fill="#ff3a1e" fill-opacity=".5" d="M174 65h4v33h-4z"/></g></svg>