<svg xmlns="http://www.w3.org/2000/svg" viewBox="0 0 300 199"><defs/><path fill="#693c3b" d="M0 0h300v199H0z"/><g transform="translate(.6 .6) scale(1.17188)"><ellipse cx="116" cy="20" fill="#e3ede8" fill-opacity=".5" rx="106" ry="169"/><circle r="1" fill="#f8f7ef" fill-opacity=".8" transform="rotate(15.3 27.7 206.4) scale(84.50396 40.62708)"/><circle cx="178" cy="120" r="86" fill="#736465" fill-opacity=".8"/><ellipse cx="18" cy="115" fill="#000612" fill-opacity=".6" rx="28" ry="67"/><circle r="1" fill="#ccc2d1" fill-opacity=".7" transform="matrix(26.72376 1.097 -2.93585 71.51995 65.7 169)"/><ellipse cx="221" cy="18" fill="#fffdff" fill-opacity=".3" rx="70" ry="20"/><path fill="#004e6a" fill-opacity=".7" d="M176 168.4l32.2-51.7 39.9 24.9-32.3 51.7z"/><path fill="#000006" fill-opacity=".6" d="M157 133l-14-78-17 67z"/><circle r="1" fill="#ffcbae" fill-opacity=".5" transform="matrix(-41.92798 -24.69747 5.23084 -8.8802 230.7 108.9)"/><path fill="#dcc8b5" fill-opacity=".5" d="M93 23h39v68H93z"/><path fill-opacity=".5" d="M222.7 30.8l8.5 60.4-13.9 2-8.5-60.4z"/><path fill-opacity=".4" d="M90 93h22v35H90z"/><circle r="1" fill="#967d58" fill-opacity=".7" transform="rotate(-160 16.8 21) scale(63.99996 16.36617)"/><path fill-opacity=".6" d="M152 34l12.9-1.6L170 74l-12.9 1.5z"/><path fill="#f9dcd4" fill-opacity=".4" d="M206 110l-43 23-14-43z"/><circle r="1" fill="#d59298" fill-opacity=".5" transform="matrix(-14.34786 -7.50088 13.88161 -26.55308 114 140)"/><circle r="1" fill="#a6665b" fill-opacity=".7" transform="rotate(94.6 106.3 140.5) scale(55.49504 29.2339)"/><path fill="#eacbdb" fill-opacity=".4" d="M52 109l43-46-89 55z"/><path fill="#00b5da" fill-opacity=".6" d="M204.7 124.3l-14.5-12.2 7-8.4 14.6 12.2z"/><path fill="#dae1ea" fill-opacity=".6" d="M199.6 35.5L168.1 41l-5.7-32.5L193.9 3z"/><ellipse cx="30" cy="3" fill="#f4f5f3" fill-opacity=".5" rx="106" ry="28"/><path fill="#e5a592" fill-opacity=".4" d="M197.8 108.5l73.2 10.1-109.9-53.2 23.8-20.3z"/><path fill="#b98a88" d="M120.3 128.3l16.3 46 26.1-5.8L89.3 129z"/><path fill="#eae6ff" fill-opacity=".5" d="M27 73l-1-16-11-3z"/><path fill="#814c3c" fill-opacity=".5" d="M200.1 99.7l-26.8 17.4-17.4-26.8 26.8-17.4z"/><path fill="#201f48" fill-opacity=".5" d="M89 78L71 67l10 28z"/><circle r="1" fill="#030711" fill-opacity=".7" transform="matrix(4.86623 -17.71901 22.70067 6.23436 6.9 84.7)"/><circle r="1" fill="#000006" fill-opacity=".4" transform="rotate(-46.8 172.9 41.3) scale(34.44676 15.1347)"/><path fill="#eceaff" fill-opacity=".5" d="M71.1 77.2l-.2 16-24-.4.2-16z"/><path fill="#dac098" fill-opacity=".5" d="M62 38h82v17H62z"/><path fill="#7f572c" fill-opacity=".4" d="M23 51h134v14H23z"/><path fill="#6a4a43" fill-opacity=".7" d="M188.8 36.6l3.6 43.8 9.3-3.3L213 33.7z"/><path fill="#cb9287" fill-opacity=".7" d="M232.2 46.8l9.9 33-2.3 9.8-12.9-3.5z"/><path fill="#c2b1ac" fill-opacity=".5" d="M109 26l30 68-51-6z"/><path fill="#ffccc4" fill-opacity=".4" d="M160.7 98l18.6 34.7-33.1-39.3 6.2-23.9z"/><circle r="1" fill="#825a52" fill-opacity=".5" transform="matrix(-6.08103 -8.6846 17.96062 -12.57616 33.2 105.3)"/><path fill="#16121e" fill-opacity=".7" d="M145.6 73.6l-22.9 33.6 21 26.6 11.7-13.2z"/><path fill="#0d0b0e" fill-opacity=".5" d="M92 98h19v30H92z"/><path fill="#ba9490" fill-opacity=".5" d="M73 93h20v45H73z"/><circle r="1" fill="#0080aa" fill-opacity=".5" transform="rotate(140.1 68 115.7) scale(11.74944 26.53321)"/><path fill="#97615f" fill-opacity=".5" d="M109 161l105-32-58-5z"/><path fill="#bda9c0" fill-opacity=".4" d="M172.7 156.7l13.7-17.4-7.6 45.7-31.2-47.9z"/><path fill="#009ab9" fill-opacity=".6" d="M222 92l21 11-3-11z"/><path fill="#a75a58" fill-opacity=".8" d="M148.7-16l-2.9 1.3-.1 50.3 12.9 60.2z"/><path fill="#f0ebf9" fill-opacity=".3" d="M234.8 68.4l-20.1-48 2-30.4 4.5-6z"/><ellipse cx="230" cy="140" fill="#00252c" fill-opacity=".5" rx="46" ry="5"/><path fill="#6e3f3c" fill-opacity=".7" d="M155.4 43.6l-11.2 34L126 50.5l-4.2 25z"/><path fill="#c5806f" fill-opacity=".5" d="M246.7 139.3l-69.9-54.8-24.6 3 31-26.4z"/><circle r="1" fill="#c4c6d7" fill-opacity=".5" transform="matrix(-10.37966 47.6429 -12.75799 -2.7795 59.3 150.8)"/><path fill="#07131c" fill-opacity=".4" d="M-16 50L9 160l8-114z"/><path fill="#000603" fill-opacity=".4" d="M155 13l52-29h-23z"/><circle r="1" fill="#5c2d27" fill-opacity=".4" transform="rotate(69.7 66.2 225.8) scale(68.20864 5.92107)"/><path fill="#bfb1b8" fill-opacity=".5" d="M134 91h3v26h-3z"/><path fill="#ffb8b4" fill-opacity=".4" d="M165 124.1l38.9 4.4-33.5-33.7 20.9 12.6z"/><path fill="#fdcfc4" fill-opacity=".3" d="M114.1 121.5l21.7 4.9-24.4-30.2-1.4 17.6z"/><path fill="#3a313f" fill-opacity=".5" d="M34 33l-5 63 17-2z"/><path fill="#c2ae7c" fill-opacity=".8" d="M71.1 39.6l-58.7-.7 36.9-6.2L47.4 56z"/><path fill="#5c575e" fill-opacity=".8" d="M245.4 138.8L212.2 185l-4.8-22.7L271 185z"/><path fill="#d0d7e9" fill-opacity=".5" d="M16 159h3v11h-3z"/><path fill="#d7c6c6" fill-opacity=".6" d="M79.7 98.9L82 103l2.6 50.2L93 92.5z"/><circle cx="220" cy="66" r="10" fill="#0a0000" fill-opacity=".4"/><path fill="#007a93" fill-opacity=".6" d="M195.5 121.3l-1.6-6.6 10.2-8 18.8 36.2z"/><path fill="#a8807e" fill-opacity=".8" d="M72 99.9l4.1-28.2 4.7 31L83 161z"/><path fill="#c39090" d="M151.7-16l-16 21.2-1.7 51.1 4.5-10.2z"/><path fill="#fcffe8" fill-opacity=".4" d="M33 102h8v10h-8z"/></g></svg>