<svg xmlns="http://www.w3.org/2000/svg" viewBox="0 0 300 199"><defs/><path fill="#2c4359" d="M0 0h300v199H0z"/><g transform="translate(.6 .6) scale(1.17188)"><path fill="#c8e8ee" fill-opacity=".5" d="M243 172L20 103l251-62z"/><circle r="1" fill="#0e0602" fill-opacity=".9" transform="matrix(-198.60847 39.88685 -10.1156 -50.36856 95.7 30.8)"/><circle r="1" fill="#ecffff" fill-opacity=".5" transform="rotate(93.4 58.4 134) scale(15.69919 68.34815)"/><circle r="1" fill="#a8b7be" fill-opacity=".5" transform="rotate(-163.4 65 76.8) scale(54.64646 20.22737)"/><circle r="1" fill="#0e1318" fill-opacity=".6" transform="matrix(26.61927 5.75073 -16.63259 76.98972 24.7 108.7)"/><circle r="1" fill="#5b2000" fill-opacity=".3" transform="matrix(-95.21966 2.40463 -.58838 -23.29888 215.6 148.4)"/><path fill="#5b899f" d="M180.4 131.9l90.6-25.6-202.9-7.6-21.7 39.9z"/><circle r="1" fill="#060200" fill-opacity=".7" transform="matrix(-78.05704 14.32615 -1.34355 -7.32044 231.7 45.5)"/><circle r="1" fill="#070000" fill-opacity=".6" transform="rotate(106.5 33.6 155) scale(6.80419 102.84045)"/><path fill="#8cd6fd" fill-opacity=".4" d="M121 76L62 92l116 3z"/><path fill="#0d1311" fill-opacity=".8" d="M161.9 102.7l45.5 3 63.6 6.2-8.9 3.2z"/><ellipse cx="158" cy="124" fill="#7a9eae" fill-opacity=".5" rx="74" ry="19"/><circle r="1" fill="#f1faff" fill-opacity=".5" transform="matrix(2.64503 9.11249 -29.95142 8.69383 174.6 76.2)"/><circle r="1" fill="#595a5b" fill-opacity=".8" transform="matrix(31.02495 -23.97458 10.65113 13.78338 255 146.3)"/><ellipse cx="140" cy="104" fill="#030000" fill-opacity=".3" rx="44" ry="3"/><path fill="#374047" fill-opacity=".6" d="M-10 140l64-13 5 58z"/><path fill-opacity=".6" d="M199.6 102.2l7.8 73.5-1 .1-7.8-73.5z"/><path fill="#9d9790" fill-opacity=".5" d="M199 122v36l-80-21z"/><circle r="1" fill="#070000" fill-opacity=".3" transform="matrix(.64675 -34.20259 20.50914 .38782 255 31.5)"/><circle r="1" fill="#232727" fill-opacity=".7" transform="matrix(1.78794 38.60528 -.99893 .04626 159 140.4)"/><ellipse cx="85" cy="140" fill="#19150e" fill-opacity=".8" rx="27" ry="4"/><path fill="#6daccd" fill-opacity=".7" d="M43.8 98.9l18.9 14.4 5.2-1.2 32.7-24.9z"/><path fill="#87a2b7" fill-opacity=".3" d="M161 161l-17 24-92-42z"/><path fill="#4b534d" fill-opacity=".5" d="M123 95h15v20h-15z"/><ellipse cx="188" cy="97" fill="#69a1c3" fill-opacity=".5" rx="48" ry="3"/><path fill="#010209" fill-opacity=".6" d="M-16 74l106 8-93 25z"/><path fill="#8da2b1" fill-opacity=".6" d="M228.6 51.3l39 32.8-12.2 14.6-39-32.8z"/><path fill="#faf7f2" fill-opacity=".8" d="M223.2 95.1l-1-23.7 10.6 11.9-4.4 13.7z"/><ellipse cx="244" cy="129" fill="#968b7f" fill-opacity=".5" rx="39" ry="11"/><path fill="#000915" fill-opacity=".5" d="M58 114l-18-5-20 23z"/><path fill="#e3edf5" fill-opacity=".4" d="M103 83l18 6 9-15z"/><path fill="#6cbbe5" fill-opacity=".5" d="M141 105h33v8h-33z"/><circle r="1" fill="#f6f9fb" fill-opacity=".6" transform="matrix(-1.93514 -17.83474 3.43041 -.37221 198.5 79.7)"/><path fill="#1d1f18" fill-opacity=".4" d="M16.7 98.7l122.8-24.2 43.2-10.6 7.7-38z"/><path fill="#121207" fill-opacity=".6" d="M245.3 185l-115.4-38.5-2.8-46.8-.1 51.5z"/><path fill="#5699bc" fill-opacity=".4" d="M54 106h73v30H54z"/><path fill="#5f6c74" fill-opacity=".5" d="M184 185L49.6 166.3 80 142.1l-62.1 6.8z"/><circle r="1" fill="#2c2b27" fill-opacity=".5" transform="matrix(-.27724 .9608 -55.67501 -16.06538 212.2 153)"/><path fill="#e8f1f7" fill-opacity=".6" d="M146 88.2l35.1 6.1L178 65l-33.5 9.3z"/><ellipse cx="189" cy="81" fill="#8bb8d2" fill-opacity=".6" rx="5" ry="19"/><path fill="#1d1e20" fill-opacity=".4" d="M63.7 116.5l-16.3 2.9-7-35.3 15 28.6z"/><path fill="#2e424f" fill-opacity=".5" d="M82 103l18 2-38 10z"/><path fill="#8ab2ca" fill-opacity=".5" d="M201 60h24v15h-24z"/><path fill="#141a23" fill-opacity=".5" d="M105.3 137h-1l2.4-34h1z"/><path fill="#80b5d7" fill-opacity=".5" d="M237.1 122.1l-33-2.3.8-10 33 2.4z"/><path fill="#6c707a" fill-opacity=".5" d="M271 43l-3 31-45-21z"/><path fill="#040a0c" fill-opacity=".3" d="M221.5 123.4l-44.9-6.6 77 14.8 10.4 1z"/><ellipse cx="149" cy="103" fill="#181c13" fill-opacity=".5" rx="30" ry="2"/><path fill="#69afd0" fill-opacity=".5" d="M93 87h26v16H93z"/><circle r="1" fill="#37251b" fill-opacity=".4" transform="matrix(1.94325 -9.30224 48.01567 10.03055 29.3 167)"/><circle r="1" fill="#171409" fill-opacity=".6" transform="rotate(-163.1 93 66) scale(53.32745 6.05613)"/><circle r="1" fill="#0d0706" transform="matrix(-60.75273 63.5741 -23.23055 -22.1996 3.8 0)"/><circle r="1" fill-opacity=".6" transform="matrix(-90.9771 24.47384 -1.3714 -5.09795 225.4 44.8)"/><path fill="#66a2c3" fill-opacity=".5" d="M131 104h26v28h-26z"/><path fill="#080f0a" fill-opacity=".5" d="M198 104.2l-.1 3-28-1.4.2-3z"/><circle r="1" fill="#1e1b1a" fill-opacity=".6" transform="matrix(4.41807 10.21651 -44.57192 19.27487 74 54.6)"/><ellipse cx="254" cy="105" fill="#000914" fill-opacity=".5" rx="4" ry="3"/><path fill="#25a9ff" fill-opacity=".2" d="M40.5 101.4L6.4 114.9l32.1-3.4 7-7.1z"/><path fill="none" stroke="#342c23" stroke-opacity=".5" stroke-width=".5" d="M171 130q21.3 3.6 66 12.7"/><path fill="#6a9bb0" fill-opacity=".3" d="M149 87.2l63.5 19.2-86.7-7.1 9.8-25z"/><path fill="#353734" fill-opacity=".5" d="M189.8 131.8l-38.5-7.7 44.7 11 32.6 6.1z"/><circle r="1" fill="#1d4b6f" fill-opacity=".4" transform="matrix(-21.63661 -.25959 .10254 -8.54654 6.4 138.5)"/><path fill="#67b6e3" fill-opacity=".5" d="M160 119h31v7h-31z"/><path fill="#302c28" fill-opacity=".5" d="M262.6 152.3l-69.3-20 71 17.3-4 31.6z"/><ellipse cx="158" cy="115" fill="#171e25" fill-opacity=".5" rx="2" ry="14"/></g></svg>