<svg xmlns="http://www.w3.org/2000/svg" viewBox="0 0 299 449"><defs/><path fill="#42342b" d="M0 0h299v449H0z"/><g transform="translate(.9 .9) scale(1.7539)"><circle r="1" fill="#e3ecfb" fill-opacity=".6" transform="matrix(-12.93046 66.55819 -50.11477 -9.73594 76.6 143.6)"/><circle r="1" fill="#ddf0f6" fill-opacity=".7" transform="matrix(-25.8864 -46.50867 13.1717 -7.33127 105.6 175.5)"/><circle r="1" fill="#000b31" fill-opacity=".7" transform="rotate(-38.2 353.2 -21.4) scale(12.55298 46.15686)"/><ellipse cx="47" cy="41" fill-opacity=".4" rx="170" ry="56"/><ellipse cx="146" cy="114" fill="#0e130a" fill-opacity=".5" rx="26" ry="117"/><path fill="#d8eaff" fill-opacity=".7" d="M24 124h23v62H24z"/><circle r="1" fill="#7b6050" fill-opacity=".9" transform="matrix(19.89712 -17.20234 15.847 18.32947 66 78)"/><circle r="1" fill="#351617" fill-opacity=".5" transform="matrix(4.31924 -.25507 4.87601 82.56954 72.6 150.5)"/><ellipse cx="5" cy="152" fill="#15180a" rx="17" ry="151"/><path fill="#f3f0ff" fill-opacity=".5" d="M71.3 229.4l-21.1-29.1 10.5-7.7 21.1 29.1z"/><circle r="1" fill="#a3bdc2" fill-opacity=".5" transform="matrix(-4.54882 .81027 -11.57581 -64.98623 135.8 230.6)"/><circle r="1" fill="#001347" fill-opacity=".8" transform="matrix(12.76086 -8.24407 37.82697 58.55172 60.7 245.9)"/><path fill="#fcfaea" fill-opacity=".4" d="M78.5 179.1V84.2l34.8-3.2 3.1 13.1z"/><path fill="#cde1ff" fill-opacity=".4" d="M67.9 183.1l-48-39.2 10.7-27.6 29.6-26.1z"/><path fill="#091637" fill-opacity=".9" d="M48.8 175.3l65.8 90 17.5-11.7 1.8-23.2z"/><ellipse cx="170" cy="231" fill="#200e00" fill-opacity=".9" rx="26" ry="36"/><path fill="#0b180b" fill-opacity=".7" d="M45 98L-16-16l6 183z"/><path fill="#b07047" fill-opacity=".5" d="M103 94h18v49h-18z"/><path fill="#031400" fill-opacity=".5" d="M18 39h47v32H18z"/><path fill="#cfe1e9" fill-opacity=".6" d="M82 97l51 128-50-38z"/><path fill="#c2d3f5" fill-opacity=".5" d="M35 144l23 49-39-10z"/><circle r="1" fill="#14140b" fill-opacity=".8" transform="matrix(59.98165 7.02054 -8.53234 72.89806 132.2 14.3)"/><ellipse cx="130" cy="107" fill="#070e06" fill-opacity=".7" rx="7" ry="64"/><path fill="#c59781" fill-opacity=".4" d="M103 102L60.8 55.4 69 48l42.2 46.8z"/><path fill="#45362c" fill-opacity=".6" d="M64.8 95.4l1.2-2.6 31.2-33.5-34 58.9z"/><circle cx="52" cy="85" r="16" fill="#a67d6b" fill-opacity=".4"/><path fill="#c6dffd" fill-opacity=".7" d="M40 189.8l7.6-6.4L70 210.2l-7.7 6.4z"/><path fill="#829396" fill-opacity=".7" d="M133.4 265l39.7-.3-17.4 6.3-23.1-57.1z"/><path fill="#647e8b" fill-opacity=".6" d="M26 248h29v8H26z"/><path fill="#adb6c9" fill-opacity=".5" d="M42 129h28v53H42z"/><path fill="#916965" fill-opacity=".6" d="M24 147l8 25-11-9z"/><ellipse cx="73" cy="163" fill="#2a0000" fill-opacity=".4" rx="3" ry="51"/><circle r="1" fill="#2d1b0a" fill-opacity=".8" transform="matrix(-25.60752 20.79494 -18.61413 -22.922 0 236)"/><path fill="#40474e" d="M93.6 236.4l16.5 2.9-18 31.7-5.8-25.3z"/><path fill="#001a4e" fill-opacity=".6" d="M119.3 230.4l-36.9-25.8 6.3-9 36.9 25.8z"/><path fill="#d8eaec" fill-opacity=".5" d="M68 105l30-8 1 38z"/><path fill="#9b8677" fill-opacity=".6" d="M139.9 236.1l-15.6-73-2.2-65.8-5.5 77.3z"/><path fill="#7795a3" fill-opacity=".5" d="M78.1 179.4l45.2 40-16.1-11.9-37.4-22.2z"/><path fill="#090919" fill-opacity=".7" d="M85 227.7l15.1 7.7-31.7-57.9-8.4 5.8z"/><circle r="1" fill="#986351" fill-opacity=".6" transform="matrix(-2.8351 -9.46993 5.60682 -1.67856 75.7 221.3)"/><path fill="#cfe3fa" fill-opacity=".6" d="M30 117.4l19.3-18.5 14.8 7.6-41 31.3z"/><path fill="#000121" fill-opacity=".6" d="M71 230h16v26H71z"/><path fill="#714335" fill-opacity=".6" d="M106 127h9v17h-9z"/><path fill="#4b0000" fill-opacity=".3" d="M61.8 109.4l5.9-4.8 10.6 16.8 1.1 26.4z"/><path fill="#81838e" fill-opacity=".6" d="M48 134h5v48h-5z"/><path fill="#0f1308" fill-opacity=".5" d="M68.5 80.1L22.2 41.4l30.1 14.5 34.4 34z"/><ellipse cx="158" cy="156" fill="#2f2b22" fill-opacity=".9" rx="18" ry="43"/><path fill="#0a140a" d="M-16 191.6l40.6 8.8-3.7-21.1 1.4-64.5z"/><circle r="1" fill="#e4eeeb" fill-opacity=".3" transform="matrix(.53192 13.82998 -22.82376 .87783 96.6 156.5)"/><path fill="#061433" fill-opacity=".7" d="M24.2 217.3L49.4 271l-10.2-80.5-12.7-4.7z"/><ellipse cx="11" cy="104" fill="#0d1d0a" fill-opacity=".6" rx="20" ry="33"/><circle r="1" fill="#25251f" fill-opacity=".4" transform="matrix(6.4779 -9.7479 63.5347 42.2215 127.7 55.3)"/><circle r="1" fill="#d4b19d" fill-opacity=".5" transform="matrix(4.01654 -.58574 2.58751 17.74321 115.2 123.9)"/><path fill="#00194b" fill-opacity=".5" d="M28 219l22.7-16.5L86 251l-22.7 16.5z"/><path fill="#040104" fill-opacity=".5" d="M36 54l-39 57 50-40z"/><path fill="#050b04" fill-opacity=".5" d="M26.5 152.8l-28.1 5.8 2.2-33.4 20.8 10.4z"/><path fill="#c2d2eb" fill-opacity=".7" d="M22.7 136.8l7.6 35.8 15.2 31.7 17-6.3z"/><path fill="#050d04" fill-opacity=".7" d="M122.7 100.8l-17.3-29.6 20.4-5.2 22.9 52.3z"/><path fill="#d1e1e3" fill-opacity=".5" d="M105 106v24H83v-24z"/><path fill="#a07664" fill-opacity=".4" d="M42 100l28-16-22-21z"/><path fill="#bcd4fb" fill-opacity=".5" d="M21 174h5v13h-5z"/><path fill="#b1b8c8" fill-opacity=".5" d="M47 114h21v25H47z"/><circle r="1" fill="#191d0e" fill-opacity=".5" transform="matrix(48.07186 -23.14397 10.69692 22.21834 43.8 37)"/><path fill-opacity=".5" d="M71 84l-3-8 14 7z"/><path fill="#f7f2b4" fill-opacity=".2" d="M60.7 271l9.3-6.7-22.6-15.5-6.4-4.3z"/></g></svg>