<svg xmlns="http://www.w3.org/2000/svg" viewBox="0 0 300 199"><defs/><path fill="#4a3729" d="M0 0h300v199H0z"/><g transform="translate(.6 .6) scale(1.17188)"><ellipse cx="32" cy="53" fill="#b0babd" fill-opacity=".7" rx="52" ry="162"/><circle r="1" fill="#ecf4f1" fill-opacity=".6" transform="matrix(-.95331 39.00716 -114.75292 -2.8045 214.6 21.8)"/><circle r="1" fill="#d6dee1" fill-opacity=".9" transform="matrix(-14.41503 5.84654 -11.77583 -29.03408 134.5 127)"/><circle r="1" fill="#f9fdfd" fill-opacity=".8" transform="rotate(139.9 10 10.8) scale(34.25536 37.84866)"/><circle r="1" fill="#f1f7f6" fill-opacity=".8" transform="matrix(16.46757 6.14743 -13.13168 35.1768 139.8 30.3)"/><circle r="1" fill="#251e18" fill-opacity=".6" transform="rotate(-95.5 57.3 25.6) scale(18.84448 94.8266)"/><ellipse cx="167" cy="52" fill="#33261b" fill-opacity=".8" rx="8" ry="169"/><circle r="1" fill="#f5ffff" fill-opacity=".7" transform="matrix(9.43517 14.81026 -20.61186 13.1312 30.7 121.2)"/><circle r="1" fill="#b2ced8" fill-opacity=".4" transform="matrix(-56.90455 10.84371 -2.79936 -14.69021 227 125)"/><ellipse cx="63" cy="137" fill="#3a3835" fill-opacity=".8" rx="8" ry="81"/><circle r="1" fill="#eff8ff" fill-opacity=".7" transform="rotate(16.9 65.4 826.3) scale(22.46162 26.29618)"/><path fill="#1e0800" fill-opacity=".5" d="M103 3h20v46h-20z"/><circle r="1" fill="#110d0d" fill-opacity=".8" transform="matrix(2.23008 14.57361 -191.61086 29.32058 220.9 157.2)"/><path fill="#b7c4c7" fill-opacity=".7" d="M150.9 151.2l-37.1 10.7L142 66l-23.7 69.6z"/><path fill="#8f8779" fill-opacity=".6" d="M271 76l-58 11-37-102z"/><path fill="#353a3a" fill-opacity=".5" d="M70.4-1.6l1.1 151.7-87.5 14.5L54.7 185z"/><path fill="#fbffff" fill-opacity=".5" d="M8 107h28v45H8z"/><circle r="1" fill="#7a766e" fill-opacity=".8" transform="matrix(-5.8844 13.5332 -34.2686 -14.9004 24.9 64.5)"/><path fill="#fff" fill-opacity=".4" d="M27 35h57v17H27z"/><path fill="#28241e" fill-opacity=".6" d="M83 29h37v122H83z"/><path fill="#4c4138" fill-opacity=".7" d="M56.1 31.9L67.2 2.8l28.2 37.8-41.9-21.7z"/><path fill="#ffffe0" fill-opacity=".3" d="M112.5 28.4L74.1-16 70 24.2 107.7-16z"/><path fill="#d6d5cc" fill-opacity=".5" d="M80 149v-14l-29 29z"/><path fill="#d3d9db" fill-opacity=".9" d="M153.9 132.4l-2.1-13.7L119 151l2.8-49.6z"/><ellipse cy="96" fill-opacity=".4" rx="43" ry="12"/><path fill="#fff" fill-opacity=".4" d="M117 38h40v18h-40z"/><path fill="#cedceb" fill-opacity=".4" d="M248.1 135.2l-38.3 7.4-1.9-9.8 38.3-7.4z"/><path fill="#07070d" fill-opacity=".4" d="M84.9 148.7l-37.4-32.3 10 23.3 54.1-39.3z"/><path fill="#b8bfbf" fill-opacity=".6" d="M46.1 68.9L63.4-16l-7 83.2L41.5 97z"/><circle r="1" fill="#223f48" fill-opacity=".5" transform="matrix(2.13247 .16408 -1.64662 21.39971 42.9 132.5)"/><path fill="#615d54" fill-opacity=".9" d="M162.4 157.4l10.8-18.6 41.7-37.6 23.9 19z"/><path fill="#c4cbd3" fill-opacity=".6" d="M216 0h24v47h-24z"/><ellipse cx="159" cy="93" fill-opacity=".4" rx="60" ry="5"/><ellipse cx="78" cy="73" fill="#fff" fill-opacity=".3" rx="3" ry="55"/><circle r="1" fill="#605e5f" fill-opacity=".4" transform="rotate(-13.2 282.5 -266) scale(8.03748 40.96208)"/><path fill="#635f59" fill-opacity=".9" d="M96.7 60.9l43.8 2 9.8-18.3.9 25.9z"/><path fill="#223c44" fill-opacity=".6" d="M-16 153l22-21 2 53z"/><path fill="#dce6eb" fill-opacity=".7" d="M6.3 163l2-48.5L57 97.4l-37 57.3z"/><path fill="#818b8d" d="M62.9 157.7L41.3 94.3l15.4 44.1-39.8 18z"/><path fill="#898171" fill-opacity=".7" d="M220.3-15l-10.8 77.2-21.8-3.1 10.8-77.3z"/><path fill="#e6eced" fill-opacity=".8" d="M155.3 50.2l8.2-66.2H124l.9 53.3z"/><path fill="#fff" fill-opacity=".5" d="M97 126h3v13h-3z"/><path fill="#aa9579" fill-opacity=".5" d="M100 51h24v11h-24z"/><path fill="#302418" fill-opacity=".8" d="M162.5 127.2l-19-11.5 54-51.1-21.8-11.1z"/><path fill="#0c0606" fill-opacity=".7" d="M90.2 80.4l41.3-9.6-6.8 25.9-38.6 3.7z"/><path fill="#fff" fill-opacity=".5" d="M77 124l6-24-12 16z"/><path fill="#edf5f1" fill-opacity=".6" d="M82.1-3l-.2 24.9L73.3 7 27.7-16z"/><path fill="#f7faf9" fill-opacity=".7" d="M16.5 1.9L-1.8 42.8l60.4 10.6-32.4-64.9z"/><circle r="1" fill="#9eafb4" fill-opacity=".5" transform="rotate(-96.4 .9 -.8) scale(52.93736 3.83577)"/><path fill="#e9ecea" fill-opacity=".5" d="M138 134l7-29-31-5z"/><path fill="#ffcd65" fill-opacity=".4" d="M88.7 70.5l10-1 .6 8-10 1z"/><ellipse cx="167" cy="36" fill="#523419" fill-opacity=".3" rx="10" ry="59"/><path fill="#a1a194" fill-opacity=".5" d="M170 123h29v8h-29z"/><path fill="#8e9fa4" fill-opacity=".6" d="M128 80h10v11h-10z"/><path fill="#372d24" d="M271 102.1l-.8 16.8-54-18.8 54.8-6.9z"/><path fill="#15a8af" fill-opacity=".2" d="M109.6 147.8l9.1 7.3 106.4-12.4-144.4 28.9z"/><path fill="#0b0300" fill-opacity=".5" d="M110 5h7v51h-7z"/><path fill="#986425" fill-opacity=".5" d="M82 9h5v58h-5z"/><path fill="#37271e" fill-opacity=".2" d="M63 99l-79-70L9 96z"/><circle r="1" fill="#ece7ce" fill-opacity=".4" transform="matrix(3.17716 1.8465 -5.69967 9.8071 114.4 0)"/><path fill="#11252f" fill-opacity=".4" d="M122.9 72.6l24.7 50.1-3.4-73.3-10.3 53.9z"/><path fill="#000c0d" fill-opacity=".3" d="M37 159l-53 26 131-13z"/><ellipse cx="173" cy="116" fill="#24221d" fill-opacity=".9" rx="29" ry="6"/><path fill="#eaf4f6" fill-opacity=".5" d="M57 140l-11-11 13 24z"/><path fill="#fdffff" fill-opacity=".6" d="M241 36l3-43.8 25 1.7-3 44z"/></g></svg>