<svg xmlns="http://www.w3.org/2000/svg" viewBox="0 0 300 199"><defs/><path fill="#405930" d="M0 0h300v199H0z"/><g transform="translate(.6 .6) scale(1.17188)"><circle r="1" fill="#e4ebee" fill-opacity=".8" transform="matrix(51.97278 -69.74724 46.8658 34.92247 106.5 29.8)"/><circle r="1" fill="#f8efff" fill-opacity=".5" transform="matrix(-42.38681 39.86493 -30.12797 -32.03389 226.9 141.6)"/><circle cx="96" cy="130" r="59" fill="#a2be81" fill-opacity=".4"/><ellipse cx="193" cy="103" fill="#b89798" fill-opacity=".7" rx="14" ry="28"/><ellipse cx="32" cy="10" fill="#5e7a5e" fill-opacity=".8" rx="23" ry="43"/><circle r="1" fill="#a1b0af" fill-opacity=".5" transform="matrix(17.52948 -61.7885 13.11126 3.71968 172.7 22)"/><circle r="1" fill="#034005" fill-opacity=".4" transform="matrix(5.88618 -26.8589 12.28745 2.69282 232 157.6)"/><ellipse cx="167" cy="118" fill="#000037" fill-opacity=".6" rx="14" ry="37"/><path fill="#040605" fill-opacity=".5" d="M197.4 94l3.5-32.8 45.7 4.8-3.5 32.8z"/><path fill="#fff" fill-opacity=".4" d="M45 54h84v31H45z"/><path fill="#557064" fill-opacity=".5" d="M121.6-3.1l17.3 5L126.4 45l-17.3-5z"/><circle r="1" fill="#091f02" fill-opacity=".6" transform="rotate(-157.7 15.2 24.2) scale(13.36312 34.39801)"/><circle r="1" fill="#d8ebff" fill-opacity=".4" transform="matrix(17.02988 -25.31533 39.73254 26.72848 77.6 7.5)"/><circle r="1" fill="#efe7e4" fill-opacity=".5" transform="matrix(2.04782 -9.77075 28.78923 6.03383 231.6 107.5)"/><circle r="1" fill="#809a6e" fill-opacity=".8" transform="matrix(-18.52722 8.77927 -12.46705 -26.30969 131.4 111)"/><circle r="1" fill="#9aa79e" fill-opacity=".6" transform="rotate(-177.4 128 38) scale(5.98797 111.72047)"/><circle r="1" fill="#244b08" fill-opacity=".5" transform="rotate(-168.1 58.3 71.3) scale(13.11583 42.85151)"/><circle cx="194" r="25" fill="#e1fffe" fill-opacity=".2"/><circle r="1" fill="#bcbcc0" fill-opacity=".7" transform="rotate(-60.2 232.5 -87.6) scale(39.23954 16.48302)"/><ellipse cy="128" fill="#0c1902" fill-opacity=".6" rx="32" ry="15"/><path fill="#afae8e" fill-opacity=".5" d="M73.7 40.8l25.4 35.7 22.7 24.2-42.3 18.7z"/><path fill="#0a1f00" fill-opacity=".6" d="M-16 28l73 82-58-29z"/><path fill="#69584f" fill-opacity=".5" d="M179 47l14 29-86 19z"/><circle r="1" fill="#eff2f5" fill-opacity=".7" transform="rotate(53.4 -13.5 147.9) scale(19.23184 16.49446)"/><circle r="1" fill="#89b062" fill-opacity=".6" transform="rotate(-147.9 10.4 7.3) scale(5.07657 67.816)"/><ellipse cx="41" cy="159" fill="#283023" fill-opacity=".5" rx="38" ry="9"/><path fill="#ddebf9" fill-opacity=".6" d="M128 64l16-80 9 61z"/><path fill="#90bf7b" fill-opacity=".5" d="M244 27l-14 23-32 9z"/><path fill="#58685e" fill-opacity=".5" d="M55.6 3.2L22.4 45.8l12 32.3L57.8 28z"/><path fill="#071235" fill-opacity=".8" d="M140.8 79.7l16 35.5 12.5 69.8 1.9-95.7z"/><circle r="1" fill="#4d8240" fill-opacity=".6" transform="matrix(78.76154 34.95208 -3.17404 7.15242 13.3 101.4)"/><path fill="#acb78c" fill-opacity=".4" d="M30 133.6l49.4 5.5-41.2 15.5-4.8-5.4z"/><path fill="#98b886" fill-opacity=".4" d="M132 90l29 93-1-49z"/><path fill="#8b967c" fill-opacity=".7" d="M34.6 86.9l-.9-32.4 21.2 54.6 51.2 3.1z"/><path fill="#213505" fill-opacity=".4" d="M176.3 21.4l1.7 29 12.6 21.4 26.2-29.1z"/><ellipse cx="168" fill="#bacdd5" fill-opacity=".9" rx="20" ry="13"/><path fill="#c3a5a9" fill-opacity=".3" d="M182.9 84.8l76.2 6.7 9.9-19.4-103.4 40.4z"/><ellipse cx="62" cy="58" fill="#fffeed" fill-opacity=".2" rx="24" ry="33"/><ellipse cx="237" cy="128" fill="#81966d" fill-opacity=".6" rx="25" ry="14"/><path fill="#c5e4fc" fill-opacity=".5" d="M44.9 2.1L31.7 19.7l1.6 3.8 39.9-36z"/><path fill="#284024" fill-opacity=".7" d="M18.5 36.4l33.9-4.9L46 16.6 9.7 56.4z"/><path fill="#aaad85" fill-opacity=".4" d="M21 140l-37 17 40-5z"/><path fill="#919e6f" fill-opacity=".7" d="M121 157.4l-1.7-31 21.2 34.1-29 24.5z"/><path fill="#011100" fill-opacity=".4" d="M190.4 124.7l17.4-37.3 45-17.3L221.4 51z"/><path fill="#fff9ff" fill-opacity=".5" d="M150 98l-6-6-13 1z"/><circle r="1" fill="#547a40" fill-opacity=".5" transform="matrix(-46.63385 -.6973 .32105 -21.47079 224.3 17.3)"/><path fill="#283e09" fill-opacity=".7" d="M120.4 158.8l2.9-2.4-22.7-13.1 2.4 20.6z"/><path fill="#4d5e39" fill-opacity=".5" d="M136.6 13.1l-15 27.2-6.2-3.4 15-27.2z"/><path fill="#184f0b" fill-opacity=".3" d="M151.1 185l-2.4-1-21.6-69.9 26.2 29z"/><path fill="#051335" fill-opacity=".5" d="M165.2 175.3l19.5-46.8-36.9-31.4 5.7 16.4z"/><path fill="#b1ac8a" fill-opacity=".3" d="M115.5 2.5L66.6 94.3l54.8-46.5 30.7 29.1z"/><path fill="#505242" fill-opacity=".4" d="M216 90h40v9h-40z"/><path fill="#1c3d19" fill-opacity=".5" d="M226.6 185h-6l8-40 9.8 6.7z"/><path fill="#724540" fill-opacity=".5" d="M178 115h17v8h-17z"/><path fill="#91735b" fill-opacity=".6" d="M190.9 48.6l-35.5 14.1.4-9.2 9 29.3z"/><path fill="#25431b" fill-opacity=".5" d="M150.4 78.2l2.8 8.6-27.6 9-2.8-8.6z"/><path fill="#b5b6b4" fill-opacity=".7" d="M223.4 161.5l-35.5 4.2 8.6-57.6 15.4 18.5z"/><ellipse cx="28" cy="138" fill-opacity=".6" rx="3" ry="19"/><path fill="#9a796b" fill-opacity=".7" d="M201.7 82.4l2.9 31.5-22.4-6.9-12.8 3.8z"/><circle r="1" fill="#496539" fill-opacity=".4" transform="matrix(-9.17136 -10.9359 19.70214 -16.52314 38.4 115.2)"/><path fill="#375113" fill-opacity=".4" d="M36.8 127.9l17-2 82.7 38.1L71 123.7z"/><circle r="1" fill="#4c702b" fill-opacity=".6" transform="rotate(-58.8 24.3 -22.6) scale(34.04159 3.62806)"/><path fill="#131c3f" fill-opacity=".8" d="M149.2 96.4l35.9 7.5-26.4-29.1-2.9 44.5z"/><circle r="1" fill="#b1cdaf" fill-opacity=".5" transform="rotate(-40.8 182 -320.3) scale(6.21808 5.2827)"/><path fill="#131b13" fill-opacity=".4" d="M245 65l-17.3-7.6 7.3-16.5 17.3 7.7z"/></g></svg>