<svg xmlns="http://www.w3.org/2000/svg" viewBox="0 0 300 199"><defs/><path fill="#554037" d="M0 0h300v199H0z"/><g transform="translate(.6 .6) scale(1.17188)"><circle r="1" fill="#a98973" fill-opacity=".7" transform="rotate(80.4 -4.4 171.2) scale(34.54386 65.32164)"/><circle r="1" fill="#cfe9ff" fill-opacity=".7" transform="matrix(-6.72251 24.02969 -19.72922 -5.51942 8.5 16.2)"/><circle r="1" fill="#070d10" fill-opacity=".6" transform="matrix(25.37356 -34.65868 75.60964 55.35368 176.9 31)"/><path fill="#a5ad9a" fill-opacity=".7" d="M35.9 147.2L20.3 79.9 4.4 73.1l12 57z"/><ellipse cx="76" cy="6" fill="#fffde5" fill-opacity=".4" rx="47" ry="4"/><ellipse cx="47" cy="169" fill="#000814" fill-opacity=".6" rx="15" ry="94"/><ellipse cx="242" cy="35" fill="#fff2f5" fill-opacity=".5" rx="6" ry="14"/><circle r="1" fill="#d89e81" fill-opacity=".6" transform="matrix(14.33718 15.35929 -7.08643 6.61486 192.4 103.7)"/><path fill="#f2ebd7" fill-opacity=".5" d="M126 161h62v9h-62z"/><circle r="1" fill="#091222" fill-opacity=".6" transform="rotate(-7.6 280 -835.3) scale(62.53455 18.04483)"/><path fill="#fff7da" fill-opacity=".4" d="M250.4 174.7l-20.1-9 7.3-16.4 20.1 9z"/><path fill="#2c2221" fill-opacity=".7" d="M182.5 133l-67.7-67 3 52.8 68.1-14.3z"/><circle r="1" fill="#6e86b1" fill-opacity=".4" transform="matrix(11.0825 9.49432 -69.50123 81.12724 50.9 0)"/><path fill="#100e11" fill-opacity=".8" d="M271-11L177 6l13 53z"/><path fill="#ffd0aa" fill-opacity=".4" d="M93 93l-29 8 54 14z"/><path fill="#041a24" fill-opacity=".6" d="M220.1 122.9l46 19.5-6.2 14.7-46-19.5z"/><path fill="#ab7761" fill-opacity=".3" d="M268 99l-35 31-86-68z"/><path fill="#836354" d="M51.3 133L65 146.8l27.6-42.1 26.9-1z"/><circle r="1" fill="#120509" fill-opacity=".6" transform="matrix(-14.69003 23.93694 -9.91038 -6.08197 89.6 136.2)"/><circle r="1" fill="#482f20" fill-opacity=".5" transform="rotate(-65 215.5 -72.8) scale(9.5319 27.51146)"/><ellipse cx="8" cy="169" fill="#130c0d" fill-opacity=".7" rx="62" ry="16"/><path fill="#ccc8c0" fill-opacity=".7" d="M156.4 153.2l50.1 31.8-49.3-41.2-26 3.8z"/><path fill="#cda67c" fill-opacity=".5" d="M99 5h73v4H99z"/><circle r="1" fill="#f7fefe" fill-opacity=".6" transform="matrix(-5.03957 11.13702 -15.66106 -7.08673 4.7 17.4)"/><ellipse cx="86" cy="162" fill="#fff" fill-opacity=".2" rx="22" ry="8"/><path fill="#263c68" fill-opacity=".4" d="M33.6-16l28.6 61.4L39 63.3l-26.7-78z"/><path fill="#e4ddd3" fill-opacity=".6" d="M46 58l6-2-5 19z"/><circle r="1" fill="#f8d8b2" fill-opacity=".4" transform="matrix(-.1896 -4.02052 21.66077 -1.0215 67.6 8)"/><path fill="#eac1a6" fill-opacity=".4" d="M189 146l26-28-32 4z"/><path fill="#4d3e36" fill-opacity=".8" d="M136.9 113.3l43.7-70.9 16.1 28.7-55.4 55.1z"/><path fill="#0a0809" fill-opacity=".6" d="M209.6 62.6l53-14.2 7.8 29-53 14.2z"/><path fill="#000713" fill-opacity=".6" d="M54 84h21v14H54z"/><circle r="1" fill="#7c644e" transform="rotate(-113.3 165.3 10.3) scale(15.95255 15.84846)"/><path fill="#141519" fill-opacity=".8" d="M62.8 146.7l18.1-1 5.9 6.8-9 15.5z"/><path fill="#f3fffe" fill-opacity=".4" d="M76.7 180.9l-42.6-10.2 57 13.8-27.8-34.3z"/><path fill="#a6ac9b" fill-opacity=".5" d="M26.8 92.7L-16 60.1l28.9 37.7 9.8 58.8z"/><path fill="#c8edff" fill-opacity=".3" d="M58.6 130.9l8.6-41.3L52.6 137l14.9-2.6z"/><path fill="#181619" fill-opacity=".6" d="M81.4 8.3l67.9 1.1 114.5 43.2L89 36.2z"/><path fill="#f3fdff" fill-opacity=".6" d="M141.6 160.4l-2.3 18.8-13-1.6 2.4-18.8z"/><circle r="1" fill="#7c460f" fill-opacity=".4" transform="matrix(2.8197 -5.00417 24.2738 13.67758 151.7 162.3)"/><path fill="#effdf5" fill-opacity=".3" d="M79.3 90.4l7.8-7.2-8.1-.1-22.1 33.5z"/><path fill="#b59a89" fill-opacity=".8" d="M185.4 119.9l43.3 31.3-61.9-30.4.7 18.3z"/><path fill="#2f2d2f" fill-opacity=".6" d="M83 0h39v5H83z"/><path fill="#cda580" fill-opacity=".4" d="M145 141l-51 22 49-43z"/><path fill="#644838" fill-opacity=".4" d="M143.5 130.3l80.8 9.9-11.7-11.9-16.1 45.5z"/><path fill="#ac9b91" fill-opacity=".6" d="M200.6 87.9l-1-5 15.8-2.8 1 5z"/><ellipse cx="170" cy="73" fill="#c0b2a8" fill-opacity=".3" rx="25" ry="3"/><path fill="#0c0c0c" fill-opacity=".5" d="M227.6 67l-42.8 28.7 27.9-77.9 4.1 95.5z"/><path fill="#c68669" fill-opacity=".5" d="M219 111l5-22 20 27z"/><path fill="#ffeebf" fill-opacity=".4" d="M64 17l-9-7 12-26z"/><path fill="#d0c2b4" fill-opacity=".5" d="M73.8 113.1l-1.3-1.5L102.2 85l1.3 1.5z"/><circle r="1" fill="#313c49" fill-opacity=".4" transform="matrix(11.23074 -16.37385 40.75496 27.95362 81.8 49.7)"/><path fill="#1d2824" fill-opacity=".5" d="M-10.9 99.9L30 120l-46-2.7L20.6 185z"/><path fill="#a7836f" fill-opacity=".5" d="M140 86h44v4h-44z"/><path fill="#c2a084" fill-opacity=".6" d="M32.8 93.4l-4.6-1.8 5-13 4.6 1.8z"/><path fill="#bda7a3" fill-opacity=".4" d="M256.1 23.1L238.3 47 237 13.6l23.1 19.6z"/><path fill="#8a4a34" fill-opacity=".7" d="M189 119.8l14.6-3.6-9.9 8.5-8.4 9z"/><path fill="#edc9b8" fill-opacity=".4" d="M21.7 112.8l2.8-4.2 15.8 10.6-2.8 4.2z"/><path fill="#371d0d" fill-opacity=".6" d="M172.7 82.6l-40 2.8-16.4-9.6 71.2.1z"/><path fill="#ec9e7a" fill-opacity=".5" d="M59 82.5v-7h10v7z"/><path fill="#5f5b4a" fill-opacity=".7" d="M25.2 161.1l-3.4-27.9 10.2-3.8 4.2 17.1z"/><circle r="1" fill="#776a69" fill-opacity=".4" transform="matrix(-24.01961 2.65179 -2.8343 -25.67277 0 58.8)"/><path fill="#feffff" fill-opacity=".5" d="M191 166l-30 9 46-1z"/><path fill="#fffffc" fill-opacity=".4" d="M83 7l-6 8-1-20z"/><path fill="#0c0d0e" fill-opacity=".5" d="M116 62h10v52h-10z"/></g></svg>