<svg xmlns="http://www.w3.org/2000/svg" viewBox="0 0 300 199"><defs/><path fill="#644e2c" d="M0 0h300v199H0z"/><g transform="translate(.6 .6) scale(1.17188)"><circle r="1" fill="#bbbbb9" fill-opacity=".5" transform="matrix(-126.02593 58.23216 -98.60604 -213.40302 176.2 65.3)"/><circle r="1" fill="#f8f9f5" fill-opacity=".8" transform="matrix(-9.75785 22.49276 -53.83119 -23.35313 93.4 8.6)"/><circle r="1" fill="#37321c" fill-opacity=".6" transform="matrix(-2.25371 -23.28804 41.78774 -4.04403 176.6 112.3)"/><circle r="1" fill="#3a1106" fill-opacity=".6" transform="matrix(-23.53318 -14.3084 9.21599 -15.15764 102.3 97.3)"/><ellipse cx="137" cy="35" fill="#e9e6db" fill-opacity=".9" rx="10" ry="51"/><circle r="1" fill="#aeb1b1" fill-opacity=".6" transform="rotate(28.6 -122.6 74) scale(30.5851 14.53986)"/><path fill="#000202" fill-opacity=".8" d="M275.6 10.5l-13.6 21-27.6-18 13.6-21z"/><circle r="1" fill="#ecfcff" fill-opacity=".5" transform="matrix(.84385 -9.84311 25.96915 2.22634 93 151)"/><circle r="1" fill="#1e170d" fill-opacity=".6" transform="matrix(27.52337 -19.48763 13.96368 19.7216 37.8 158.5)"/><path fill="#edeee3" fill-opacity=".5" d="M65 59h85v19H65z"/><path fill="#190300" fill-opacity=".4" d="M148 150h52v20h-52z"/><circle r="1" fill="#323314" fill-opacity=".4" transform="rotate(-54.6 58.7 -33.3) scale(10.51902 45.86764)"/><ellipse cx="81" cy="24" fill="#fbfbfa" fill-opacity=".9" rx="19" ry="12"/><circle r="1" fill="#60594a" fill-opacity=".6" transform="matrix(-33.16769 21.6662 -14.31859 -21.9196 225.6 118.4)"/><circle r="1" fill="#706d64" fill-opacity=".6" transform="matrix(-3.98148 22.98279 -40.22506 -6.96848 27.3 118)"/><path fill="#190804" fill-opacity=".9" d="M93.2 105.9L85.6 84l-7.1 15.5-2 21z"/><path fill="#eddbe7" fill-opacity=".4" d="M81 119.5L68.8 185l30.8-53.5 8.8-48.9z"/><path fill="#fffefe" fill-opacity=".5" d="M171 130l-1 52 11-36z"/><path fill="#ffe0d8" fill-opacity=".2" d="M120.7 79.3l39.3 57.1-2.8 22.4-34.2-26.2z"/><path fill="#014b2f" fill-opacity=".6" d="M105.6 155l-8.9 30 33.2-29.4 11.3 27.9z"/><circle r="1" fill="#b78a54" fill-opacity=".4" transform="matrix(11.07443 64.7881 -23.27137 3.97785 168.3 37.7)"/><path fill="#e9f3ff" fill-opacity=".6" d="M155.6 94.5L131 103l-2.6-7.5L153 87z"/><circle r="1" fill="#595c42" fill-opacity=".5" transform="matrix(-27.29239 -2.67323 1.06727 -10.89633 97.7 45.5)"/><path fill="#2f1e01" fill-opacity=".4" d="M147.1 100.2l41.2 4-22 38.5-26.3-28.8z"/><path fill="#bcc0cb" fill-opacity=".5" d="M237 116h9v54h-9z"/><ellipse cx="70" cy="104" fill="#dee1e8" fill-opacity=".4" rx="4" ry="48"/><circle r="1" fill="#cae5d1" fill-opacity=".6" transform="matrix(-2.90622 -5.53759 33.36426 -17.51012 4.6 0)"/><circle r="1" fill="#fff7f5" fill-opacity=".4" transform="rotate(-123.7 150.5 26) scale(22.01453 5.66143)"/><ellipse cx="43" cy="61" fill="#291209" fill-opacity=".5" rx="7" ry="8"/><path fill="#100100" fill-opacity=".4" d="M130 106l-19-25 2 48z"/><path fill="#2e1500" fill-opacity=".5" d="M202.6 179.1l-72-11 51.8.2 14.7-38z"/><path fill="#f6eee2" fill-opacity=".5" d="M140.5 175.7l-11.7-26.1L146 156l-3.3 14.6z"/><ellipse cx="33" cy="169" fill="#2e2313" fill-opacity=".7" rx="38" ry="33"/><path fill="#010700" fill-opacity=".2" d="M43.8-14.2l-7 24.8L-16 50.2l79.7-17z"/><path fill="#43341c" fill-opacity=".5" d="M207.4 118.4l7.6-2.5 33.6 103.7-7.6 2.5z"/><path fill="#a8a5a0" fill-opacity=".7" d="M-9.3 89.8L-16 25.3 1.6 56.7l49.7-14.2z"/><circle r="1" fill="#040d17" fill-opacity=".6" transform="rotate(123.8 82 150.9) scale(59.23982 3.77325)"/><path fill="#afab96" fill-opacity=".8" d="M110.2 64l9.1 27.6 44.4-14-17-3.4z"/><ellipse cx="125" cy="68" fill="#142601" fill-opacity=".3" rx="4" ry="22"/><path fill="#acaba9" fill-opacity=".5" d="M8 94h11v21H8z"/><path fill="#2f0f04" fill-opacity=".5" d="M38 90h8v19h-8z"/><path fill="#dfdbd7" fill-opacity=".4" d="M126.4 56.4l-48.7.2.8 45.6 7.2-34.8z"/><path fill="#63615f" fill-opacity=".4" d="M271 52.1L225.4-16l17.5 77 2.4 109.5z"/><path fill="#251319" fill-opacity=".5" d="M72 131l6-10v24z"/><path fill="#050e00" fill-opacity=".5" d="M65.7 84.2l-6.2 3.3-5.2-9.7 6.2-3.3z"/><path fill="#fffbee" fill-opacity=".5" d="M143 69l12-21-50-33z"/><path fill="#b2afa1" fill-opacity=".6" d="M135 17l22-15-63 8z"/><path fill="#00081c" fill-opacity=".3" d="M31.2 76.4L-10.3 83l-3.6 20.7 44.5-16.5z"/><path fill="#44351d" fill-opacity=".7" d="M66 126l-2 31-80-9z"/><path fill="#bebeba" fill-opacity=".6" d="M53.2 85.9l-6.9 24.8 29.4 5.4-51.3-40.2z"/><path fill-opacity=".6" d="M249 126.2l1.1-8 10.9 1.6-1.1 8z"/><path fill="#16150c" fill-opacity=".4" d="M191 185l-51-40 10 38z"/><path fill="#eeeef5" fill-opacity=".4" d="M188.4 144.6l-1.4-19.7 8.7 9.8-4.3-3.5z"/><path fill="#b6d0d8" fill-opacity=".4" d="M72 170l-5-29 57 13z"/><path fill="#fbf9f6" fill-opacity=".4" d="M64 39l67-12-69-43z"/><circle r="1" fill="#afb4ae" fill-opacity=".5" transform="matrix(-3.35966 -3.21321 4.83237 -5.05262 192.5 105)"/><path fill="#754b2a" fill-opacity=".6" d="M175 34h5v53h-5z"/><path fill="#fff" fill-opacity=".5" d="M43.1 52l-1-6 10.8-2 1 6z"/><path fill="#f77a62" fill-opacity=".6" d="M116 129l-5 14 22 13z"/><circle r="1" fill="#b5c7de" fill-opacity=".5" transform="matrix(20.41073 -24.0675 3.35534 2.84553 239.2 169)"/><path fill="#1c0901" fill-opacity=".4" d="M100.6 75.7l-.2 17-19-.4.2-17z"/><path fill="#836341" fill-opacity=".9" d="M177.9-16h-6.8l4 69.4 4.1 23.9z"/><path fill="#eeeeec" fill-opacity=".3" d="M79.3 39l9.5 50.4 9.5-25L84 54.5z"/><path fill="#4c4b44" fill-opacity=".5" d="M253.2 134.4l8.1 50.6 9.7-50.4-35 25.2z"/><path fill="#5c410e" fill-opacity=".5" d="M164 76l-17-7 16-8z"/></g></svg>