<svg xmlns="http://www.w3.org/2000/svg" viewBox="0 0 300 199"><defs/><path fill="#60453a" d="M0 0h300v199H0z"/><g transform="translate(.6 .6) scale(1.17188)"><circle r="1" fill="#ccd4cc" fill-opacity=".5" transform="matrix(-253.672 25.99071 -14.71567 -143.62638 93 126.2)"/><circle r="1" fill="#4f2401" fill-opacity=".6" transform="matrix(-73.81693 15.4822 -8.8633 -42.25898 45.6 76.3)"/><ellipse cx="92" cy="153" fill="#d4d9de" fill-opacity=".4" rx="238" ry="32"/><path fill="#4e0300" fill-opacity=".5" d="M101 94h36v29h-36z"/><path fill="#d1e9e6" fill-opacity=".4" d="M79.2 101.1l-87.7-.3 37.1-20.3 19.2-13.3z"/><ellipse cx="19" cy="45" fill="#360e00" fill-opacity=".8" rx="34" ry="12"/><circle r="1" fill="#b6babb" fill-opacity=".6" transform="matrix(-.17508 19.0523 -96.31684 -.8851 64.2 17.1)"/><circle r="1" fill="#792400" fill-opacity=".5" transform="matrix(-6.2345 -20.70814 33.83065 -10.18524 87.2 53.4)"/><circle r="1" fill="#d9e1e0" fill-opacity=".5" transform="matrix(9.3137 13.91264 -29.98543 20.0735 146 56)"/><circle cx="37" cy="106" r="14" fill="#000012" fill-opacity=".5"/><circle r="1" fill="#adb5b5" fill-opacity=".5" transform="rotate(91.8 80.7 138) scale(128.87086 21.59293)"/><path fill-opacity=".5" d="M243 81h8v33h-8z"/><ellipse cx="202" cy="118" fill="#ced0d5" fill-opacity=".7" rx="58" ry="6"/><path fill="#010a1d" fill-opacity=".6" d="M17.3 120.7L-16 133.2 2 91.4l12.9 26.5z"/><circle r="1" fill="#7b6a5c" fill-opacity=".8" transform="rotate(-49.6 152.8 -56.1) scale(29.87588 18.6798)"/><path fill="#c6c4be" fill-opacity=".7" d="M80 19.9L58.3 46.3l.3-1.7L33 33z"/><path fill="#fafffa" fill-opacity=".3" d="M7.3 99.1l23.4 14.2L21 87.4l-37-20z"/><circle r="1" fill="#bcbebd" fill-opacity=".8" transform="matrix(-19.83467 -10.36932 8.41637 -16.09902 241 32.8)"/><path fill="#23281b" fill-opacity=".5" d="M219 79h6v34h-6z"/><path fill="#4b300c" fill-opacity=".4" d="M171.7 18.5l61.9-7.3 5.9-3.1L72.9 58.7z"/><path fill="#f4f4f6" fill-opacity=".5" d="M127 40h9v53h-9z"/><ellipse cx="94" cy="93" fill="#e6e7e2" fill-opacity=".6" rx="3" ry="18"/><ellipse cx="17" cy="62" fill="#893b00" fill-opacity=".5" rx="60" ry="11"/><path fill="#00152c" fill-opacity=".4" d="M-16 119l77.4-.5 27.7-48-18.9 24.9z"/><circle r="1" fill="#645f2c" fill-opacity=".4" transform="matrix(3.04318 -7.72555 16.40065 6.46039 239.5 57.7)"/><path fill="#200000" fill-opacity=".5" d="M107 32L86 55 73 34z"/><path fill="#6e3e18" fill-opacity=".7" d="M100.1 98.9L99 123.3l47.6-4.4-8-11z"/><circle r="1" fill="#c6c8b9" fill-opacity=".6" transform="rotate(-139 40 35.5) scale(15.74088 9.25863)"/><path fill="#e4e7f2" fill-opacity=".7" d="M245 115l-17-10 6-22z"/><path fill="#e7e8f0" fill-opacity=".6" d="M180.8 29.2l-7.2 12.4-46.3 8.2-3.7-5.7z"/><ellipse cx="62" cy="129" fill="#cecdce" fill-opacity=".7" rx="83" ry="7"/><path fill="#2b2f3a" fill-opacity=".5" d="M203 85h5v29h-5z"/><ellipse cx="164" cy="65" fill="#9f9f91" fill-opacity=".7" rx="30" ry="19"/><path fill="#2e2f20" fill-opacity=".6" d="M44.7 108.5l-22-20 15.6-2.1-4.5 3.9z"/><path fill="#eef3f3" fill-opacity=".5" d="M68.3 130.5l-1.6-45h3l1.6 45z"/><path fill="#e6eaf8" fill-opacity=".4" d="M93 23l29 12 38-17z"/><path fill="#a25b06" fill-opacity=".5" d="M102 32h17v39h-17z"/><path fill="#192121" fill-opacity=".5" d="M184 88h5v25h-5z"/><path fill="#5a4a4a" fill-opacity=".6" d="M94 124.4l-1.9-45.6-14.8 41.8-.5-1z"/><path fill="#0e0e10" fill-opacity=".6" d="M63 85h3v34h-3z"/><ellipse cx="160" cy="101" fill="#001626" fill-opacity=".4" rx="4" ry="14"/><path fill="#b8bcc8" fill-opacity=".6" d="M75.9 95.8l6.4-8 17.1 46.4 28.3 13.9z"/><path fill="#595f66" fill-opacity=".5" d="M229 19l-19.2 10.7L205 21l19.2-10.7z"/><path fill="#c8be86" fill-opacity=".5" d="M124 57l4 43-14 3z"/><path fill="#b4bcc8" fill-opacity=".6" d="M180.6-16h43.3L191.5-3.7l-25 44.4z"/><path fill="#e4dc6c" fill-opacity=".5" d="M104 64l10 9-3-16z"/><path fill="#01171a" fill-opacity=".3" d="M193.9 15.9l2.9 11L177 43.7l7.5-27.7z"/><path fill="#fbfcec" fill-opacity=".3" d="M194.3 30.1L208.8 70l-14.9 9.8 31.6 5.4z"/><path fill="#888982" fill-opacity=".5" d="M32.1 156.9L-.8 171.5-8 155.1l32.9-14.6z"/><ellipse cx="254" cy="81" fill="#daecf1" fill-opacity=".4" rx="5" ry="22"/><path fill="#581d00" fill-opacity=".6" d="M12.1 53.4l22 20.4-8.2 8.8-22-20.4z"/><path fill="#110108" fill-opacity=".7" d="M2.5 92h7v2h-7z"/><path fill="#d4a025" fill-opacity=".3" d="M57.1 41.4l23.9 31 3.8-1.5L72 40.8z"/><ellipse cx="112" cy="5" fill="#919ca6" fill-opacity=".5" rx="159" ry="12"/><path fill="#7a8275" fill-opacity=".3" d="M95.4 136.7l31.7 22.2-24.8.5-48.2-15.6z"/><path fill="#e7a750" fill-opacity=".4" d="M82 111h52v4H82z"/><path fill="#6e6830" fill-opacity=".5" d="M195 43h7v28h-7z"/><path fill="#672f00" fill-opacity=".4" d="M50.5 76.9l38.7 16.2-.1-11.5 39.3-56.5z"/><path fill="#d1cec3" fill-opacity=".5" d="M55 112l13 13-33 26z"/><ellipse cx="181" cy="98" fill="#fcfeff" fill-opacity=".5" rx="2" ry="15"/><path fill-opacity=".4" d="M141.7 119.1l-40.6 5.7-.8-6 40.6-5.6z"/><ellipse cx="227" cy="150" fill="#abaaa8" fill-opacity=".6" rx="74" ry="32"/><path fill="#4f584b" fill-opacity=".5" d="M221 72h6v42h-6z"/><path fill="#5f5e4a" fill-opacity=".6" d="M173 82h6v30h-6z"/><path fill="#191c1f" fill-opacity=".5" d="M210.8 84h1l1.4 28h-1z"/></g></svg>