<svg xmlns="http://www.w3.org/2000/svg" viewBox="0 0 300 199"><defs/><path fill="#643b2e" d="M0 0h300v199H0z"/><g transform="translate(.6 .6) scale(1.17188)"><circle r="1" fill="#d3d5ce" fill-opacity=".7" transform="matrix(-24.49687 77.22392 -243.0636 -77.10432 130.7 12.4)"/><circle r="1" fill="#260300" fill-opacity=".6" transform="rotate(96.3 1.7 88) scale(69.20864 41.40422)"/><circle r="1" fill="#f7e0ba" fill-opacity=".6" transform="matrix(-22.95406 78.52093 -23.25107 -6.797 18 65.3)"/><circle r="1" fill="#f7fdff" fill-opacity=".7" transform="matrix(-56.5117 44.56255 -17.0902 -21.67282 228.2 33.5)"/><circle r="1" fill="#000f31" fill-opacity=".7" transform="matrix(7.39572 -13.70397 19.5237 10.53649 237 84.5)"/><ellipse cx="189" cy="128" fill="#97deef" fill-opacity=".3" rx="59" ry="51"/><path fill="#fff8ed" fill-opacity=".6" d="M-16 3l129 50-49-69z"/><circle cx="80" cy="152" r="59" fill="#330f0e" fill-opacity=".8"/><path fill="#ba9c90" fill-opacity=".6" d="M102.3 77.2l14.6 44.7-15.2 5L87 82z"/><circle r="1" fill="#e8dbd2" fill-opacity=".7" transform="matrix(-11.68884 -3.1977 9.5908 -35.05805 184.4 99.8)"/><path fill="#2f180e" fill-opacity=".5" d="M68 49h72v32H68z"/><path fill="#eef0eb" fill-opacity=".5" d="M127 75l20 10-4 65z"/><path fill-opacity=".5" d="M138 138l-38-70 29 3z"/><path fill="#986844" fill-opacity=".7" d="M68 63l-84 6 42 34z"/><circle r="1" fill="#818290" fill-opacity=".9" transform="rotate(24.8 -151.2 596.5) scale(26.61005 21.84758)"/><path fill="#373d35" fill-opacity=".6" d="M234.1 176.5l-51.6 24-26.6-57 51.6-24z"/><circle r="1" fill="#0a0000" fill-opacity=".7" transform="rotate(-147.4 41.7 13.1) scale(11.50043 9.58987)"/><circle r="1" fill="#916740" fill-opacity=".4" transform="rotate(-102 78.6 -54.8) scale(14.36297 62.75995)"/><circle r="1" fill="#fff" fill-opacity=".4" transform="matrix(-3.09017 -10.30009 33.81325 -10.14446 0 120)"/><path fill="#fcffff" fill-opacity=".6" d="M255.1 93l-20.8-54 20.6-8 20.8 54.2z"/><path fill="#321701" fill-opacity=".5" d="M144 102h26v32h-26z"/><path fill="#ffffc9" fill-opacity=".5" d="M18 151h15v12H18z"/><circle r="1" fill="#9affff" fill-opacity=".3" transform="matrix(11.30705 -5.44171 15.5589 32.329 153.9 159.3)"/><path fill="#000003" fill-opacity=".5" d="M220 98l7-19 44 20z"/><path fill="#fce2ce" fill-opacity=".5" d="M114.7-5.4l24.8 50.9 1.9 11.8-31.3-18.1z"/><path fill="#302b2c" fill-opacity=".6" d="M184.8 25l3.4 66h-1l-3.4-66z"/><path fill="#b8d5f2" fill-opacity=".7" d="M257 172.7l-15.7 3.3-2.3-10.7 15.7-3.3z"/><path fill="#fff2eb" fill-opacity=".5" d="M216 108h7v42h-7z"/><path fill="#83574a" fill-opacity=".9" d="M151.8 84.4L116 56.8l22.7-11.3-54.2 3.2z"/><path fill="#000041" fill-opacity=".4" d="M199 152l17-37-22-23z"/><path fill="#e8e1da" fill-opacity=".7" d="M42 45l91-61L-9-2z"/><ellipse cx="100" cy="23" fill="#63321f" fill-opacity=".7" rx="7" ry="14"/><path fill="#1e0000" fill-opacity=".6" d="M10 128l139 17-77 40z"/><path fill="#e2ae63" fill-opacity=".7" d="M-16 56.3l50.4 26.2-3.8-40.7-39.8 16z"/><circle r="1" fill="#153140" fill-opacity=".6" transform="rotate(153.5 107.2 104.8) scale(56.29553 9.44779)"/><path fill="#a85f3b" fill-opacity=".5" d="M41 59l16 36 2-61z"/><path fill="#ddd4d3" fill-opacity=".8" d="M211.7 102.7l12.6 17.2-14.8-51-8.3 32.6z"/><path fill="#fadcb5" fill-opacity=".6" d="M91.8 26.5L104 46l-11.8 7.5L80 34z"/><ellipse cx="150" cy="138" fill="#fff" fill-opacity=".6" rx="11" ry="4"/><path fill="#fcfcfc" fill-opacity=".5" d="M173.4 28.1l9.3 1.7 2.5 99.4-9.5-70.8z"/><path fill="#bf5617" fill-opacity=".4" d="M232.3 160.6l-48.7-38.8-14.8 22.7 19.2 1.9z"/><circle r="1" fill="#04332e" fill-opacity=".5" transform="matrix(-34.88268 -52.10713 10.54143 -7.05687 .1 154)"/><path fill="#92796d" d="M43.1 95.4l-2.8 25.8L-16 81.9 35.3 118z"/><ellipse cx="77" cy="78" fill="#280c07" fill-opacity=".5" rx="16" ry="40"/><path fill="#c2b29f" d="M131.7 43.1l43.5 19.6-4.1 43.5-20.7-8.2z"/><circle r="1" fill="#a08d7f" fill-opacity=".5" transform="matrix(-8.40063 -32.02128 4.1716 -1.0944 102.3 91.7)"/><path fill="#3d5b5e" d="M146.6 144.5L246.8 169l-70.1 10.1-19.7-38z"/><circle r="1" fill="#430204" fill-opacity=".6" transform="matrix(29.27256 1.4234 -1.14373 23.521 80.9 127)"/><path fill="#622404" fill-opacity=".6" d="M28.7 89l-46.1-29.9 2.7-4.2 46.1 30z"/><path fill="#ededef" fill-opacity=".6" d="M187 21h69v41h-69z"/><path fill="#e5edf0" fill-opacity=".5" d="M-6.8 94.7l17.2 49.8 6.5-31.1-30.4-14.8z"/><path fill="#3f0f0e" fill-opacity=".3" d="M149.1 85.4L118.4 74l1.6-25.8 13.9 1.4z"/><path fill="#1d2747" fill-opacity=".4" d="M250 74l-32 10 15-29z"/><ellipse cx="57" cy="64" fill="#d5b9a5" fill-opacity=".3" rx="13" ry="8"/><path fill="#140000" fill-opacity=".6" d="M18.3 152.2L14 127.6l21.7-3.8 4.3 24.6z"/><path fill="#000307" fill-opacity=".7" d="M135.4 109.3l-18.6 7.2-12.2-31.8 18.6-7.2z"/><path fill="#cdedee" fill-opacity=".6" d="M144.9 176.3l-12.7 8.7 22-22.6 16.6.1z"/><path fill="#81879e" fill-opacity=".9" d="M271 102.9l-8.7-15.5-15.5-9.1-10.8-1.5z"/><circle r="1" fill="#fffffd" fill-opacity=".5" transform="rotate(123.5 51.4 52.6) scale(5.34673 11.83517)"/><path fill="#70402e" fill-opacity=".5" d="M102 39l14-15-14-19z"/><path fill="#350b15" fill-opacity=".5" d="M30 85l8-21 9 17z"/><circle r="1" fill="#052524" fill-opacity=".5" transform="rotate(168.3 54.3 90.5) scale(29.29378 6.62461)"/><path fill="#09090c" fill-opacity=".5" d="M145 125h2v34h-2z"/><path fill="#272f2c" d="M48.2 158.4l-43.9 7.1L50.6 185l-20.9-40.6z"/><path fill="#fff" fill-opacity=".5" d="M139 118h6v29h-6z"/></g></svg>