<svg xmlns="http://www.w3.org/2000/svg" viewBox="0 0 300 199"><defs/><path fill="#5f4d31" d="M0 0h300v199H0z"/><g transform="translate(.6 .6) scale(1.17188)"><circle r="1" fill="#8a8180" fill-opacity=".8" transform="matrix(2.16988 -51.1597 196.02003 8.31398 90 75.4)"/><circle r="1" fill="#86837a" transform="rotate(100.2 51.7 43.2) scale(42.24569 53.81486)"/><circle r="1" fill="#070406" transform="matrix(21.62502 -38.86952 32.23072 17.93153 244.9 167)"/><ellipse cx="142" cy="162" fill="#ffedff" fill-opacity=".6" rx="11" ry="26"/><ellipse cx="78" cy="169" fill="#0f0404" fill-opacity=".9" rx="27" ry="36"/><circle r="1" fill="#1e0000" fill-opacity=".6" transform="rotate(14.9 -23.7 671) scale(17.96144 29.69361)"/><path fill="#fff" fill-opacity=".4" d="M68 107l47-31-22 56z"/><circle r="1" fill="#f0f3ff" fill-opacity=".6" transform="matrix(-11.22835 18.68711 -7.36365 -4.42453 179.3 79)"/><ellipse cx="41" cy="102" fill="#6a6059" rx="28" ry="49"/><circle r="1" fill="#3b0003" fill-opacity=".5" transform="matrix(1.20092 -10.99228 52.0835 5.69018 184 131.5)"/><ellipse cx="227" cy="93" fill="#9ec0f3" fill-opacity=".3" rx="28" ry="37"/><circle r="1" fill="#4d360f" fill-opacity=".4" transform="matrix(-17.3144 -25.17789 18.91331 -13.00636 141.8 68.5)"/><path fill="#001d00" fill-opacity=".6" d="M26.5 3l26.7 4.3L49.5 31l-26.7-4.3z"/><path fill="#785138" fill-opacity=".7" d="M103.5 37.6L50.6 24.9l2.1-27.3 10.6 80.3z"/><path fill="#cfc7d2" fill-opacity=".6" d="M205.6 48.8l-38.5 62.9 28.9-1.6-29-36z"/><circle r="1" fill="#5c5a5a" fill-opacity=".8" transform="matrix(32.50615 -8.06376 12.20188 49.1875 12.8 151.4)"/><path fill="#adaab9" fill-opacity=".5" d="M128 89l32 10-33 36z"/><ellipse cx="64" cy="91" fill="#100500" fill-opacity=".6" rx="4" ry="25"/><path fill="#e4d5de" fill-opacity=".5" d="M69 86h30v28H69z"/><path fill="#d6b9af" fill-opacity=".6" d="M143 24h16v9h-16z"/><path fill="#711e00" fill-opacity=".5" d="M122 107l-14-1 17-48z"/><path fill="#f8d1b3" fill-opacity=".6" d="M102.1 53.5l-2.9-7.8 12.2 5.5 6.6 25.9z"/><ellipse cx="197" cy="81" fill="#533e42" fill-opacity=".5" rx="14" ry="12"/><circle cx="178" cy="20" r="15" fill-opacity=".5"/><path fill="#e1aa9b" fill-opacity=".6" d="M56 116l-11 3 1 34z"/><path fill="#762a11" fill-opacity=".6" d="M71 115.3l13.8 14.4-23.7 23-14-14.4z"/><circle r="1" fill="#859ba3" fill-opacity=".5" transform="matrix(-10.3357 -8.3782 22.6387 -27.92804 16 59.5)"/><path fill="#0a0310" fill-opacity=".4" d="M271 137.9L172.5 185l60.3-50.8-5.3-36.9z"/><path fill="#5b6850" fill-opacity=".9" d="M0 0h23v45H0z"/><path fill="#504631" d="M150.2 43l40 2.7 12-24.8 53.2 25.2z"/><circle r="1" fill="#a9b5c4" fill-opacity=".5" transform="matrix(18.3959 6.98538 -4.56465 12.02093 209.9 63.4)"/><circle r="1" fill="#615758" fill-opacity=".6" transform="matrix(-15.9364 -21.64505 14.18358 -10.4428 113.6 140.3)"/><circle r="1" fill="#912a5d" fill-opacity=".4" transform="matrix(-28.3872 -10.34594 6.93486 -19.02787 177 156.4)"/><path fill="#3e160e" fill-opacity=".7" d="M159.3 137.3l-22.4-7.3 21.1-14.3-14.2-12.6z"/><circle r="1" fill="#fffbf5" fill-opacity=".5" transform="matrix(2.7392 .59156 -5.63009 26.06998 59.3 0)"/><path fill="#cecbcf" fill-opacity=".6" d="M76 15L65 26l3-42z"/><path fill="#e3eaff" fill-opacity=".3" d="M197.7 107.7l35.8 10-8 19-19.9-49.4z"/><circle r="1" fill="#0a152d" fill-opacity=".5" transform="matrix(-1.061 2.14678 -7.75437 -3.83245 175.4 67.2)"/><path fill="#390d0a" fill-opacity=".4" d="M205.8 169.2l-24.3-43.8 22.7-12.6 24.3 43.8z"/><path fill="#98b3c9" fill-opacity=".5" d="M271 50.9l-69.2-4.5 43.6-1.7 25.6 5.5z"/><path fill="#937e6f" fill-opacity=".5" d="M111.2 84L74.8 95.2 62.8 56l36.4-11.2z"/><path fill="#7c969e" fill-opacity=".6" d="M54.7 5L28 5.6-16-16h77.9z"/><path fill="#feffff" fill-opacity=".5" d="M168 89V66l18 10z"/><path fill="#f6cff9" fill-opacity=".2" d="M138.9 135.2l-3.8 34 28.1 6.1-6.3-22.6z"/><path fill="#491a00" fill-opacity=".5" d="M103 41l-34-8 6 14z"/><ellipse cx="165" cy="3" fill="#7b8382" fill-opacity=".6" rx="29" ry="2"/><path fill="#6b3522" fill-opacity=".7" d="M172.6 63.8l-21.9-22.4 3.7-8.5 39.1-2.6z"/><path fill="#d6bfbd" fill-opacity=".5" d="M65.2 58.2l5.7 52.9 47.8-32-29.6 56.1z"/><path fill="#987282" fill-opacity=".6" d="M66 175l3.2-13.6L76 163l-3.2 13.6z"/><path fill="#4d2d1b" fill-opacity=".4" d="M48.1 37.9L73.4 8.1l-9.9.1L42 41.7z"/><path fill="#d3dce0" fill-opacity=".6" d="M23 26h5v19h-5z"/><path fill-opacity=".7" d="M129.5 171.5h-29v-5h29z"/><path fill="#c4b2bd" fill-opacity=".4" d="M171.1 122.9l-11.4-2.9-10.2-22.5 13.4 2.1z"/><path fill="#7f8380" fill-opacity=".6" d="M252 0h4v122h-4z"/><circle r="1" fill="#010000" fill-opacity=".5" transform="matrix(-17.01742 8.1169 -2.1716 -4.55284 166 13.2)"/><path fill="#9a909e" fill-opacity=".5" d="M129 99l-21 31 20 4z"/><circle r="1" fill="#252e2f" fill-opacity=".6" transform="matrix(-46.772 -2.36937 .0506 -.99872 254.9 51.3)"/><path fill="#686d6c" fill-opacity=".5" d="M53.3 16.5l8.8 83.9-35.6-5.5-18.2 1.5z"/><path fill-opacity=".3" d="M48 163l57-8-51-16z"/><path fill="#012704" fill-opacity=".4" d="M33.6 31.3l-13.8-7.9.3-18.7 30.2 16.2z"/><ellipse cx="178" cy="132" fill="#270000" fill-opacity=".5" rx="46" ry="4"/><path fill="#c4d5c3" fill-opacity=".5" d="M16 7l4 14-7-5z"/><path fill="#8e3c22" fill-opacity=".4" d="M167 106l6 19 52 5z"/><path fill="#1f1c00" fill-opacity=".3" d="M112.9 73.4l-3.5-7.3-5.9 4-.1 28.7z"/><path fill="#1a1d18" fill-opacity=".8" d="M313.4 47.6v1l-116.8-6.2v-1z"/></g></svg>