<svg xmlns="http://www.w3.org/2000/svg" viewBox="0 0 300 199"><defs/><path fill="#664138" d="M0 0h300v199H0z"/><g transform="translate(.6 .6) scale(1.17188)"><circle cx="43" cy="91" r="164" fill="#000911" fill-opacity=".7"/><circle r="1" fill="#ebeaf2" fill-opacity=".5" transform="matrix(-53.90275 94.886 -13.64213 -7.74981 228 126)"/><circle r="1" fill="#da9c7b" fill-opacity=".5" transform="matrix(46.03731 21.5863 -10.22726 21.81178 224.9 63.2)"/><ellipse cx="57" cy="146" fill="#ff8873" fill-opacity=".5" rx="13" ry="20"/><circle cx="90" cy="62" r="16" fill="#c1a18f" fill-opacity=".5"/><circle r="1" fill="#141411" fill-opacity=".6" transform="matrix(-74.09753 -22.60378 7.62289 -24.98863 228.3 10)"/><circle r="1" fill="#010202" fill-opacity=".6" transform="matrix(-12.36788 94.05697 -41.00697 -5.39215 30.2 59.7)"/><ellipse cx="184" cy="99" fill="#1f2137" fill-opacity=".6" rx="37" ry="38"/><path fill="#b9856a" fill-opacity=".9" d="M238 112l-42-81 75 34z"/><circle cx="200" cy="150" r="30" fill="#8df2ff" fill-opacity=".1"/><path fill="#bca293" fill-opacity=".4" d="M92 99h16v19H92z"/><path fill="#b69a7b" fill-opacity=".5" d="M65.2 35.5l69.9-10.4.8 6.5-72.3 5.9z"/><circle r="1" fill="#000c49" fill-opacity=".4" transform="rotate(-61.3 246.7 -129.2) scale(48.52875 9.3234)"/><ellipse cx="140" cy="46" fill-opacity=".5" rx="43" ry="16"/><path fill="#9e776d" fill-opacity=".7" d="M47.9 161l-19.8 16-9-10.2 2.7-1.7z"/><path fill="#fbcd98" fill-opacity=".3" d="M141.4 13.3L139 9l6.5-17.7 18 16.7z"/><path fill="#76574b" fill-opacity=".5" d="M254 19L235 4l-51 64z"/><path fill="#ee3a40" fill-opacity=".7" d="M248.4 149.8l5.5 12.9-8.3 3.5-5.5-12.9z"/><ellipse cx="100" cy="7" fill="#040402" fill-opacity=".6" rx="39" ry="22"/><path fill="#1f1f2e" fill-opacity=".7" d="M209 74L91 62l-3 32z"/><circle cx="204" cy="38" r="5" fill="#fff" fill-opacity=".6"/><path fill="#ffffe6" fill-opacity=".6" d="M69 123h10v3H69z"/><path fill="#d2aa9d" fill-opacity=".6" d="M102 67l6-14-18-5z"/><path fill="#cdd3e7" fill-opacity=".4" d="M198 148l28.9-38.4 19.1 14.5-28.9 38.3z"/><path fill="#030304" fill-opacity=".6" d="M153.7 23.7L179.3-16l57.2 41-62.5-7.2z"/><path fill="#d9d8df" fill-opacity=".5" d="M183 51h9v14h-9z"/><path fill="#1e2742" fill-opacity=".8" d="M223.9 112l-24.2-13.6-24.4-10.3 16.8 58.8z"/><path fill="#db9c7d" fill-opacity=".5" d="M209 59h29v29h-29z"/><path fill="#835748" fill-opacity=".9" d="M209 72.8l2.8 11.3 23.3 25.3 10.7 5.3z"/><path fill="#210d05" fill-opacity=".3" d="M146.6 135.8l67.9-104.6v12.3l-60 141.5z"/><path fill="#293555" fill-opacity=".8" d="M189.2 107l-26.1 63.3 13.6 14.7 16.8-19.7z"/><path fill="#5e3e33" fill-opacity=".8" d="M183.4 19.3l-47.8 9.9 41.3-2.5 40.4 62z"/><path fill="#28344b" fill-opacity=".5" d="M42 156h75v14H42z"/><path fill="#1c2036" fill-opacity=".9" d="M239.1 136.3l3.7 26.7 19.9 3.3-46.6 18.7z"/><path fill="#6a4e36" fill-opacity=".4" d="M26 152.2l-4.6 26.6-39.4-7 4.6-26.6z"/><path fill="#e4c49e" fill-opacity=".5" d="M113 159h4v11h-4z"/><circle r="1" fill="#0a0907" fill-opacity=".5" transform="matrix(-26.14536 -6.50547 4.14332 -16.65193 130.3 121.5)"/><path fill="#0e1219" fill-opacity=".7" d="M221.7 118.3l-18.5-31.4 23.3 7.6-7.5 7.7z"/><ellipse cx="224" cy="105" fill="#abbcd5" fill-opacity=".5" rx="5" ry="8"/><path fill="#7e4033" fill-opacity=".6" d="M74.6 126l-18.7-1.2 14.3 34.1 4.3-6.1z"/><path fill="#9c9c9c" fill-opacity=".5" d="M143 150l7 13-8-5z"/><path fill="#1b233a" fill-opacity=".9" d="M238.6 138.1l20-29.8 12.4 61.8-19.9-17.3z"/><path fill="#472e28" fill-opacity=".7" d="M203.1 30.1L188 16l-8.5 7.6-1.3 32.4z"/><path fill="#bacbe0" fill-opacity=".5" d="M271 93l-31 35 9-25z"/><path fill="#a9a8a5" fill-opacity=".5" d="M53.8 125.6l-13.6 23.5 11-10.8 2.5-10.1z"/><path fill="#ffb9a2" fill-opacity=".4" d="M77.5 69.7l14.2 11-1.2 1.6-14.2-11z"/><ellipse cx="255" cy="47" fill="#030000" fill-opacity=".1" rx="17" ry="36"/><path fill="#bebac5" fill-opacity=".7" d="M193 182.4l12.2-40.1 23.9 7.3-12.3 40.1z"/><path fill="#eac4aa" fill-opacity=".5" d="M215 38h6v13h-6z"/><path fill="#eda485" fill-opacity=".1" d="M213.1-2.8l21.9 41-32 9.9 47.7-28z"/><path fill="#8a674b" fill-opacity=".6" d="M126 154l2-12-10 2z"/><path fill="#d2efd7" fill-opacity=".5" d="M83 60h6v7h-6z"/><circle cx="64" cy="97" r="26" fill="#161210" fill-opacity=".7"/><circle r="1" fill="#172746" fill-opacity=".4" transform="matrix(4.93255 -11.91094 50.03308 20.71967 143.7 83.4)"/><path fill="#efc8a0" fill-opacity=".2" d="M138.4 5.1l30.2-.3-18.4 2.8.4 9.4z"/><path fill="#61667d" fill-opacity=".5" d="M222 113h34v4h-34z"/><circle cx="90" cy="48" r="4" fill="#ffbb9a" fill-opacity=".5"/><path fill="#69463d" d="M214.9 58.3l-3.2-13.6-27.8-1.2-4.7 1.5z"/><path fill="#0a0909" fill-opacity=".7" d="M28.2 47.1L70 48.9l121.3-20.1-88 5.5z"/><path fill="#0a060d" fill-opacity=".5" d="M197 76l16 31-6-39z"/><path fill="#003b85" fill-opacity=".5" d="M92 157h9v13h-9z"/><path fill="#ba6a5a" fill-opacity=".5" d="M68 145l-8-11-19 28z"/><path fill="#d89c8b" fill-opacity=".5" d="M203 60l13-2-13 10z"/><path fill="#4c2303" fill-opacity=".4" d="M174.3 142.7l9.6-29.5-32.3-8.9-7.4 5.7z"/><path fill="#191310" fill-opacity=".7" d="M135.9 91.2l-45.4-21-1.6 61.6-39.1-40.3z"/></g></svg>