<svg xmlns="http://www.w3.org/2000/svg" viewBox="0 0 300 199"><defs/><path fill="#42302a" d="M0 0h300v199H0z"/><g transform="translate(.6 .6) scale(1.17188)"><circle r="1" fill="#fefffc" fill-opacity=".5" transform="matrix(-47.44403 -88.77441 160.70317 -85.88517 151.2 118)"/><circle r="1" fill="#000002" fill-opacity=".7" transform="matrix(21.82976 -12.01925 18.14724 32.95962 118 36.9)"/><circle r="1" fill-opacity=".6" transform="rotate(-164.6 33.6 75.5) scale(20.89264 46.84595)"/><ellipse cx="223" cy="85" fill="#070606" fill-opacity=".7" rx="21" ry="29"/><circle r="1" fill="#f7e0dc" fill-opacity=".5" transform="matrix(-28.48757 13.81073 -7.86716 -16.22769 60.2 37.9)"/><circle r="1" fill="#d3d0d0" fill-opacity=".6" transform="matrix(40.08404 -44.1188 95.53627 86.79925 168.8 169)"/><circle r="1" fill="#fef8e6" fill-opacity=".5" transform="rotate(118.2 112.7 67.4) scale(61.20068 27.39973)"/><circle r="1" fill="#d9dbdc" fill-opacity=".7" transform="matrix(-6.73851 49.8391 -15.28163 -2.06616 164 85.6)"/><circle r="1" fill="#6f5b55" fill-opacity=".9" transform="rotate(-85.3 63.4 22.8) scale(39.76693 21.74074)"/><path fill="#3c1200" fill-opacity=".5" d="M169 145l17-104 7 60z"/><circle r="1" fill="#c6c2be" fill-opacity=".9" transform="matrix(68.76683 -7.76143 3.2519 28.81213 232.4 148.1)"/><path fill="#2d2720" fill-opacity=".7" d="M197 127l50-22-11-71z"/><path fill="#e2d1bb" fill-opacity=".6" d="M189 102.4l38.1-3L189.6 81l17.1-5.9z"/><path fill="#c3c2c3" fill-opacity=".8" d="M88.5 14.2L55.1 70.9l83.1 72.9L78.3 16.2z"/><circle r="1" fill="#5b5a59" fill-opacity=".6" transform="matrix(12.7299 2.65941 -14.18718 67.91019 144.3 20)"/><path fill="#ffd1ac" fill-opacity=".6" d="M44.8 117.5l-6.8 1.8-16.8-62.8 6.8-1.8z"/><circle r="1" fill="#020000" fill-opacity=".6" transform="matrix(-21.9603 35.69594 -11.18202 -6.87922 43 148.2)"/><circle r="1" fill="#da895e" fill-opacity=".6" transform="matrix(-1.79724 23.44118 -26.23113 -2.01114 11.6 131.1)"/><path fill="#32373d" fill-opacity=".5" d="M203 76l-5-30 13-29z"/><path fill="#00143f" fill-opacity=".5" d="M36 54h17v49H36z"/><path fill="#0f1318" fill-opacity=".5" d="M243 118l28-5-71-55z"/><ellipse cx="50" cy="3" fill="#a7c0e4" fill-opacity=".5" rx="5" ry="25"/><path fill="#fffec3" fill-opacity=".7" d="M225.3 59.5l-20.8-2.2 2.2-20.8 20.8 2.2z"/><circle r="1" fill="#040505" fill-opacity=".6" transform="rotate(-36.7 25.2 -5.4) scale(26.40754 34.11288)"/><ellipse cx="245" cy="67" fill="#eab968" fill-opacity=".5" rx="7" ry="39"/><circle r="1" fill="#000002" fill-opacity=".6" transform="rotate(-116.4 63.4 -18.7) scale(50.73931 15.05248)"/><circle r="1" fill="#d5a279" fill-opacity=".5" transform="matrix(-6.37427 -5.84467 21.12979 -23.0444 42 40)"/><ellipse cx="197" cy="118" fill="#fbddc1" fill-opacity=".6" rx="5" ry="76"/><path fill="#49535f" fill-opacity=".5" d="M145.7 160l-30-1 .6-17 30 1z"/><ellipse cx="15" cy="89" fill="#2a1000" fill-opacity=".6" rx="10" ry="22"/><ellipse cy="76" fill="#f7e3fb" fill-opacity=".6" rx="5" ry="9"/><circle r="1" fill="#daeeff" fill-opacity=".8" transform="matrix(1.68012 19.67628 -15.69203 1.33991 178 164.7)"/><path fill="#fffff2" fill-opacity=".6" d="M195.6 1.7l58.6-7.2 2.2 17.8-58.6 7.2z"/><path fill="#772800" fill-opacity=".4" d="M159.4 50.6l18-28.8 14.1-14.1-8.3 30.1z"/><path fill="#1b130f" fill-opacity=".9" d="M18.8 149.6l4.2 21.6 33 12.2-10.7-36.7z"/><path fill-opacity=".5" d="M203 100h7v26h-7z"/><path fill="#380400" fill-opacity=".4" d="M239 35l-18-4 18 27z"/><path fill="#4d6894" fill-opacity=".6" d="M203 20h22v14h-22z"/><circle r="1" fill="#527bb8" fill-opacity=".5" transform="matrix(7.0925 -.43003 1.77724 29.31193 56.7 65.6)"/><path fill="#bcbfcc" fill-opacity=".8" d="M74.4 132.3l6.1 19.1 102.1 18.9-117 14.7z"/><circle r="1" fill="#a59687" fill-opacity=".5" transform="rotate(-145.5 140.4 42.9) scale(36.0049 20.99442)"/><path fill="#8fafdb" fill-opacity=".5" d="M222 13h34v17h-34z"/><path fill="#000001" fill-opacity=".5" d="M134 5L54-15v29z"/><ellipse cx="146" cy="90" fill="#b8aea3" fill-opacity=".8" rx="11" ry="28"/><path fill="#726b65" fill-opacity=".7" d="M189.5-12.8l-43 46-22-20.4 43-46z"/><path fill="#5c421d" fill-opacity=".4" d="M191 49l-24 92 28-44z"/><circle r="1" fill="#d7dde5" fill-opacity=".2" transform="rotate(-38.2 120 -110.4) scale(9.6571 44.77545)"/><circle r="1" fill="#caddf0" fill-opacity=".5" transform="matrix(2.991 -8.736 20.99502 7.1882 239.1 126)"/><path fill="#e6f3fc" fill-opacity=".6" d="M174.1 50.9l9.8 2.2-18 78-9.8-2.2z"/><path fill="#511d0c" fill-opacity=".5" d="M9.8 138.3l-12-9.9 1.5-35 5.3 30.7z"/><path fill="#fffbff" fill-opacity=".4" d="M206 92h15v9h-15z"/><path fill="#d4a994" fill-opacity=".8" d="M5.8 125.4l32 5.8-30.4 33.1 21 18.9z"/><path fill="#c7843a" fill-opacity=".4" d="M170 138l16-1 8-47z"/><path fill="#9c897e" fill-opacity=".4" d="M114.8 153.9L87.1 85.3l-23.6-62 20.3 111.1z"/><circle cx="53" cy="127" r="15" fill-opacity=".6"/><path fill-opacity=".4" d="M201.3 110l26-15 7.4 13-26 15z"/><circle r="1" fill="#474d63" fill-opacity=".7" transform="matrix(4.06174 12.00374 -8.03518 2.71888 59.4 150.5)"/><path fill="#c1a28a" d="M22.1 73.6l12.1-11.2 7.1-19.2-14.1 3.7z"/><path fill="#3d1e24" fill-opacity=".4" d="M65.5 95.7l-3.3 9.5-26.4-7.8 2.6-17.8z"/><path fill="#080a10" fill-opacity=".4" d="M210.4 92.4l-8.1-46.8 7.5-11.7-10.9 27.2z"/><path fill="#d9e0ea" fill-opacity=".4" d="M79.3 36l41.8 88.6 20.7 28.7-41.3-23.4z"/><path fill="#d3bb95" fill-opacity=".8" d="M238.8 30.8l32.2 8.9v49.9L243.8 55z"/><ellipse cx="110" cy="11" fill="#060606" fill-opacity=".8" rx="18" ry="42"/><path fill="#422819" fill-opacity=".6" d="M26.9 126.8L.1 63.6 5 13.8 26.2 95z"/><path fill="#936a32" fill-opacity=".5" d="M241 108l30-23-32-13z"/></g></svg>