<svg xmlns="http://www.w3.org/2000/svg" viewBox="0 0 300 199"><defs/><path fill="#413234" d="M0 0h300v199H0z"/><g transform="translate(.6 .6) scale(1.17188)"><circle r="1" fill="#b6a8a3" fill-opacity=".6" transform="matrix(-116.30324 53.73964 -39.0385 -84.48707 137.2 41.8)"/><circle r="1" fill="#f0ecf8" fill-opacity=".5" transform="rotate(-160.6 113.7 -8.5) scale(28.48365 68.73895)"/><circle r="1" fill="#bda899" fill-opacity=".7" transform="rotate(138.6 37.4 94.2) scale(41.01668 31.37991)"/><circle r="1" fill-opacity=".5" transform="matrix(-16.37114 -2.79837 6.3177 -36.96006 49.6 79.6)"/><circle r="1" fill="#11060a" fill-opacity=".5" transform="rotate(-172.9 68.2 27.9) scale(35.04274 24.58065)"/><path fill="#000309" fill-opacity=".6" d="M175 173l-11-77 79-2z"/><circle r="1" fill="#eadac9" fill-opacity=".7" transform="rotate(7.4 61.2 945.2) scale(56.39856 28.60213)"/><circle r="1" fill="#dfd3cb" fill-opacity=".6" transform="matrix(-29.58455 3.84236 -1.87307 -14.42183 12.4 59.2)"/><ellipse cx="88" cy="30" fill="#030000" fill-opacity=".6" rx="16" ry="13"/><ellipse cx="72" cy="136" fill="#1b181c" fill-opacity=".9" rx="20" ry="14"/><circle r="1" fill="#aeacaa" fill-opacity=".6" transform="rotate(-28.7 297.7 -27.4) scale(3.86513 63.02339)"/><path fill="#e4e1d8" d="M57.3-16H44.8l59.6 3.2-35.6 39.6z"/><path fill="#615453" fill-opacity=".9" d="M143.6 96.3l44.5-65.8-.7 38.9-31.5 41.9z"/><path fill="#d9cabf" fill-opacity=".5" d="M165.9-1.3l7.6 75.8L156 36.4l-51.7-1z"/><path fill="#b3a8ab" fill-opacity=".8" d="M261.4 56.9L160.2 87.7l30.8 9.7 19.3-1.6z"/><path fill="#d7ccc6" fill-opacity=".4" d="M63.5 119.4l4.1-19.6 51 10.8-4.2 19.6z"/><circle r="1" fill="#e3c2ae" fill-opacity=".5" transform="matrix(-2.91691 8.84563 -18.8316 -6.20987 122.8 94.2)"/><path fill="#171118" fill-opacity=".5" d="M80 24l-46 85 8-66z"/><path fill="#403837" fill-opacity=".9" d="M26 78.8l41.4 14-3.8 22.5-25.9 2.8z"/><path fill="#25181e" d="M-16 123.3l40-23.8-5-25.2-35-1.5z"/><path fill="#472317" fill-opacity=".5" d="M108.5 85.2L89.6 48.5l4.6-37.9 5.9-7.7z"/><path fill-opacity=".3" d="M41.6 8.2l-2.5 23.9-40.7-4.3L.9 3.9z"/><path fill="#e1dde1" fill-opacity=".5" d="M191 0h65v25h-65z"/><path fill="#5d545e" fill-opacity=".9" d="M248 27.6l18 1-4 75.8-18-1z"/><circle r="1" fill="#c9a192" fill-opacity=".5" transform="matrix(10.50663 .15418 -.30873 21.03845 73.8 65.6)"/><path fill="#f2ffff" fill-opacity=".2" d="M-16 144.8v-3.6l77.2-17.3-33.3-15.6z"/><circle r="1" fill="#35262a" fill-opacity=".7" transform="rotate(44 -9 191.2) scale(19.29857 28.41993)"/><path fill="#b88b88" fill-opacity=".5" d="M145 49h13v31h-13z"/><circle r="1" fill="#0e1018" fill-opacity=".7" transform="matrix(-72.28969 -34.32567 3.48059 -7.3301 245.9 150.4)"/><ellipse cx="112" cy="28" fill="#bea699" fill-opacity=".7" rx="10" ry="20"/><ellipse cx="82" cy="86" fill="#8c2908" fill-opacity=".4" rx="8" ry="20"/><path fill="#e3d5c7" fill-opacity=".5" d="M19.7 56.8l-7.9-22.7 8.5-3L28.2 54z"/><path fill="#e2dce5" fill-opacity=".5" d="M163 45l12 15 8-26z"/><path fill="#77321d" fill-opacity=".5" d="M75.4 101.5l49.2-2.5 1.9 14.1-30-9.3z"/><path fill="#fff" fill-opacity=".6" d="M56.9 149.5l2.9-.5 5.3 27.5-2.9.5z"/><path fill="#d9d2d1" fill-opacity=".6" d="M50.9 141.6l-9-14.9L31.1 116l18.6 5.2z"/><path fill="#1d0309" fill-opacity=".3" d="M195.4-16h3.6l-17.8 3.4-1.1 85.3z"/><path fill="#332d2d" fill-opacity=".8" d="M54.2 149.2l9.8 29.9-41.8-43.6 46.7 5.4z"/><path fill="#b5aaa7" fill-opacity=".6" d="M135 140.3l-6.5 17.8L89 143.7l6.5-17.8z"/><path fill="#453936" fill-opacity=".8" d="M190.5 102.9L80.1 46l73.7 55.8 18.8 21.2z"/><circle r="1" fill="#bab0b5" fill-opacity=".7" transform="matrix(-23.40068 16.02278 -18.01668 -26.3127 218 48.5)"/><path fill="#1d1d21" fill-opacity=".5" d="M168 82l12-33 8 29z"/><path fill="#cee0ff" fill-opacity=".3" d="M40.4 45.8L61.3 55 39.7 24.5l21.4 5.6z"/><circle r="1" fill="#12121c" fill-opacity=".5" transform="matrix(4.66973 12.48976 -35.6746 13.33818 207.8 109.5)"/><path fill="#b2a19c" fill-opacity=".7" d="M75.1 82.9l.6 26.9-11.2-18.9-25.3 2.7z"/><path fill="#1e1a1e" fill-opacity=".8" d="M92.2 185l-8-57.9-21.8-3.3-15.6 2.3z"/><circle r="1" fill="#18171b" fill-opacity=".7" transform="matrix(9.24972 29.39482 -13.37322 4.20818 178 158.4)"/><path fill="#c3aa9b" fill-opacity=".5" d="M173 119l-26 35-23-69z"/><path fill="#dfd5cf" fill-opacity=".5" d="M21.5 84l4.8-13.9 2.8 7.4-2.9 28.3z"/><ellipse cx="158" cy="13" fill="#faefe7" fill-opacity=".4" rx="8" ry="31"/><circle r="1" fill-opacity=".3" transform="matrix(-14.67786 -5.3522 5.74698 -15.76048 47.6 72.4)"/><path fill="#daebff" fill-opacity=".5" d="M62.6 39.8L41.3 26.5l6.9-1.7 15.1 10.8z"/><path fill="#6d5b56" fill-opacity=".8" d="M113.5 185l-5.6-25.9-20.3-10.2 7.2 36.1z"/><path fill="#b18980" fill-opacity=".6" d="M167 86l-6 10-11-35z"/><path fill="#c2b9c0" fill-opacity=".4" d="M271 30.4l-84.7 14.2-6.6 30.1 38.8-66.2z"/><path fill="#59301c" fill-opacity=".6" d="M119 20l-3-14-3 13z"/><path fill="#110f12" fill-opacity=".5" d="M73.1 113.1l-30.9 6.5-11.6-35.2L50 115.2z"/><path fill="#977b78" fill-opacity=".4" d="M173 74l2-25-41-32z"/><path fill="#d8d3d4" fill-opacity=".5" d="M75.6 114.6l11.3-2.9-37.4 6.6-6.2 11.8z"/><path fill="#282124" fill-opacity=".9" d="M65.9 177.3l-1.6-19.6 27.5 9.3-4.7 18z"/><path fill="#38302f" fill-opacity=".8" d="M58.5 159.6L42 126.4l-14.5.7L43.1 185z"/><path fill="#623616" fill-opacity=".1" d="M149.2 185L106 103.2l19.2-5.7 11.8 12.2z"/><path fill="#a2b4ce" fill-opacity=".5" d="M220 130l-4-7 13 6z"/><path fill="#232222" fill-opacity=".5" d="M98 86l46-20-30-19z"/><path fill="#975642" fill-opacity=".6" d="M86 59l-9-16 29-13z"/></g></svg>