<svg xmlns="http://www.w3.org/2000/svg" viewBox="0 0 300 199"><defs/><path fill="#445436" d="M0 0h300v199H0z"/><g transform="translate(.6 .6) scale(1.17188)"><circle r="1" fill="#cdc4de" fill-opacity=".6" transform="rotate(-53.8 117.5 -111.6) scale(54.12887 91.99072)"/><circle r="1" fill="#f9a19d" fill-opacity=".6" transform="matrix(82.16343 218.29061 -19.2664 7.25177 18.8 50.1)"/><circle r="1" fill="#030012" fill-opacity=".6" transform="rotate(86.6 58.9 191.4) scale(84.18406 24.40775)"/><circle r="1" fill="#98262d" fill-opacity=".7" transform="matrix(-14.9056 1.83018 -7.66801 -62.45095 58 54)"/><path fill="#a3aabe" d="M181.4-15.2l-18.5 83.8 35.5-38.9-6.5-41.6z"/><circle r="1" fill="#bedfff" fill-opacity=".4" transform="matrix(-1.58714 -26.15897 42.53106 -2.58048 112.7 60.6)"/><ellipse cx="160" cy="36" fill="#131d01" fill-opacity=".6" rx="8" ry="26"/><path fill="#392528" fill-opacity=".6" d="M118 10l9 30-27 13z"/><path fill="#f6fff9" fill-opacity=".6" d="M10 13l-21-29L48 1z"/><path fill="#fff7ee" fill-opacity=".5" d="M211 82l-29 32 36 3z"/><path fill="#0c0503" fill-opacity=".6" d="M-13 19l53 24-56-54z"/><circle r="1" fill="#2c1021" fill-opacity=".8" transform="matrix(-21.76652 9.10513 -58.51655 -139.88832 0 144.6)"/><circle r="1" fill="#231b0f" fill-opacity=".3" transform="matrix(2.17528 -41.51971 25.12598 1.31639 154.3 120.9)"/><circle r="1" fill="#745945" fill-opacity=".6" transform="matrix(33.9917 -28.94184 8.39855 9.86396 223.2 41)"/><path fill="#ffddc3" fill-opacity=".4" d="M77.7 166.9L40.5 60.4 21.2 31.7 11 52.9z"/><circle r="1" fill="#d6d7da" fill-opacity=".5" transform="rotate(-72.7 108 -58) scale(48.65416 11.97559)"/><path fill="#221c23" fill-opacity=".8" d="M210.3 147.1l59.1-34.9-73.2-38.1 26.7 1z"/><path fill="#28447c" fill-opacity=".4" d="M134 105L82 59l7 72z"/><path fill="#d7e5f7" fill-opacity=".6" d="M81.1 20.2l6.3 46.1 14.1-31.5-14.7-23.3z"/><circle r="1" fill="#1d0a10" fill-opacity=".6" transform="matrix(-10.8157 43.60107 -9.70263 -2.40684 214.7 8.6)"/><circle r="1" fill="#7e0009" fill-opacity=".5" transform="matrix(-13.2555 5.1971 -11.31218 -28.85236 68.4 95.7)"/><circle r="1" fill="#8e514b" fill-opacity=".6" transform="rotate(65.4 -89.4 94.8) scale(84.92685 8.97871)"/><path fill="#dcb59e" fill-opacity=".8" d="M209.5 149l8.1-56-19.1-19.3 9.5 39z"/><path fill="#6b5d57" fill-opacity=".8" d="M130.1 2.9l-1.2 1.7L104 24l6.3 48.4z"/><path fill="#ebf1f6" fill-opacity=".5" d="M154 99h54v9h-54z"/><path fill="#495348" fill-opacity=".5" d="M24 7h57v17H24z"/><path fill="#c9957f" fill-opacity=".6" d="M26.4 89.2l16-8.2 67.2 131.8-16 8.2z"/><ellipse cx="159" cy="12" fill="#4d402f" fill-opacity=".4" rx="12" ry="42"/><circle cx="133" cy="67" r="23" fill="#d8d8d1" fill-opacity=".5"/><path fill="#000007" fill-opacity=".5" d="M162 77l-15 13 22 4z"/><ellipse cx="141" cy="135" fill="#363d2c" fill-opacity=".5" rx="68" ry="25"/><path fill="#6b5446" fill-opacity=".9" d="M28.3 35.4l22.5 49.3-10.2-49.2L2.2 8.1z"/><path fill="#b5d7ff" fill-opacity=".5" d="M94.9 82.9L79.6 71.3l9.8-39.1-23.8 39.6z"/><path fill="#eedcda" fill-opacity=".6" d="M131.2 44.8l7.6-32.6-5-1.2-10.7 9.3z"/><path fill="#d35e50" fill-opacity=".4" d="M205 134l30 20 8 31z"/><path fill="#45070f" fill-opacity=".6" d="M72 34L43 45l23-30z"/><path fill="#95bdea" fill-opacity=".7" d="M111.6 94.8L90.5 59.1l10.6-29.9 12.5 61z"/><path fill="#ff4467" fill-opacity=".2" d="M240.1 2.2L270 16.5l-46.5 30-1.1-15.9z"/><path fill="#586c66" d="M89.8 83.8l16.5 24.5 9-.2-13.3-30z"/><path fill="#efe3ff" fill-opacity=".5" d="M221.8 67.5l.4 6-14 1-.4-6z"/><path fill="#b5bcbb" fill-opacity=".5" d="M167 91l2-41 41 45z"/><path fill="#f5d1cc" fill-opacity=".3" d="M157.9 43.4l.3-19.4-10.8-10-3.5-2.5z"/><path fill="#957f6b" fill-opacity=".7" d="M39-7L23.5 19.7 46.7-4 44 44.2z"/><circle r="1" fill="#efe2d9" fill-opacity=".5" transform="matrix(4.47305 -2.60338 8.28517 14.23534 30.8 54.1)"/><path fill="#447440" fill-opacity=".5" d="M194.9 58.3l10.1-24 22.1 9.4-10.1 24z"/><path fill="#00199a" fill-opacity=".2" d="M69.5 73l7 10.4 33.2 75.9-18.2-99.4z"/><circle r="1" fill="#f3f2ee" fill-opacity=".6" transform="matrix(-.16368 4.72919 -8.33332 -.28843 102 0)"/><path fill="#ffe2db" fill-opacity=".4" d="M161.7 20.7L221.1-16l-48 32.9L162.2 4z"/><path fill="#fff" fill-opacity=".5" d="M119 109l1-8-8 2z"/><path fill="#02181f" fill-opacity=".4" d="M106.8 32.9l10.3 20.7L98.2 67 129 35.7z"/><path fill="#4d5b24" fill-opacity=".7" d="M117.1 97.6l-15.3 27.8 3.6-23.8-4.2-15.3z"/><path fill="#343b32" fill-opacity=".9" d="M123.5 101.5l8 19 46.7-10.7-14 10.2z"/><path fill="#330014" fill-opacity=".3" d="M265.4-16.3l-1.9 36-64.9-3.4 1.9-36z"/><path fill="#0f0f00" fill-opacity=".3" d="M124.2 86.7l4.8-5.1 16.8 15.7-4.8 5.1z"/><path fill="#414d55" fill-opacity=".4" d="M193 118.3l-17-26.7-3.6 11.2 41.2 42.8z"/><circle r="1" fill="#090711" fill-opacity=".5" transform="matrix(17.93956 -1.24335 4.92404 71.04592 255 124.2)"/><path fill="#972127" fill-opacity=".5" d="M45 51l38-11-25 29z"/><path fill="#faffe6" fill-opacity=".5" d="M54-16h73L68 5z"/><path fill="#312e31" d="M244.9 93.4l-45-24.3 5.1 9.6 2.9 1.6z"/><path fill="#bd9c95" fill-opacity=".5" d="M160 109l-6-17-20 12z"/><path fill="#1a3827" fill-opacity=".4" d="M157.3-10.5l-5.2 22.2L173 23.8l-15.4 43.8z"/><circle r="1" fill="#9dc9f7" fill-opacity=".5" transform="rotate(-132.7 72 15.6) scale(27.34613 5.82553)"/><path fill="#b1605b" fill-opacity=".6" d="M227 5h21v6h-21z"/><path fill="#80260c" fill-opacity=".4" d="M82-3.1l7.6 14.3 7.3 1.7-12-26.4z"/><ellipse cx="168" cy="48" fill="#ecf2f6" fill-opacity=".5" rx="2" ry="13"/></g></svg>