<svg xmlns="http://www.w3.org/2000/svg" viewBox="0 0 300 199"><defs/><path fill="#4b3328" d="M0 0h300v199H0z"/><g transform="translate(.6 .6) scale(1.17188)"><circle r="1" fill="#fdffff" fill-opacity=".6" transform="matrix(-33.52051 41.99042 -93.46983 -74.61599 190.2 169)"/><path fill="#6f543f" fill-opacity=".8" d="M236-16L-16 4l215 128z"/><circle cx="92" cy="76" r="31" fill="#e8c8bd" fill-opacity=".4"/><path fill="#c8cdd5" fill-opacity=".8" d="M93 159h158v11H93z"/><circle r="1" fill="#000d1e" fill-opacity=".6" transform="matrix(29.80988 -6.77264 12.39049 54.53693 63.8 142.2)"/><path fill="#182015" fill-opacity=".6" d="M159 87h66v34h-66z"/><circle r="1" fill="#ffbd8d" fill-opacity=".2" transform="rotate(115.6 -4.6 32.9) scale(136.47264 29.64698)"/><ellipse cx="194" cy="149" fill="#c3c1c6" fill-opacity=".7" rx="53" ry="28"/><path fill="#cab9b4" fill-opacity=".7" d="M160 114l-53.6 49.9-10-43.3 50.6-46z"/><circle cx="151" cy="5" r="39" fill="#2d200e" fill-opacity=".5"/><path fill="#010100" fill-opacity=".6" d="M89.7 95l-10-14.9L96.3 69l10 15z"/><path fill="#b5acae" fill-opacity=".6" d="M89 119L59 76l19-14z"/><circle r="1" fill="#00080f" fill-opacity=".5" transform="matrix(9.11195 9.67032 -9.65373 9.09632 60 53.4)"/><path fill="#bbc2cc" fill-opacity=".7" d="M254.1 146.7l15.1 38.3-85.9-61.5 18.8-2z"/><path fill="#d9b5a4" fill-opacity=".7" d="M112.5 55.9l-13.2 3.4 25 55.4 5.4-19.1z"/><circle r="1" fill="#8a735d" fill-opacity=".4" transform="matrix(-9.8415 1.4524 -6.25217 -42.365 224.7 70.2)"/><path fill="#6c2c00" fill-opacity=".3" d="M183.8 89.5l-46.5 82.3 3.4-30.8 19.9 19.8z"/><path fill="#b3896b" fill-opacity=".4" d="M114 31.7L12.7 44.1 10 22.3 111.3 9.9z"/><circle cx="173" cy="60" r="35" fill="#5b3e31" fill-opacity=".7"/><path fill-opacity=".6" d="M73 128l3-45 6 20z"/><path fill="#05070d" fill-opacity=".5" d="M214.2 118.3l39.4-6.4 17.4 57.4-17.7-23.1z"/><path fill="#080b00" fill-opacity=".5" d="M158 95l7 29 26-23z"/><path fill="#757845" d="M168.6 125.5l19.6-5.7 6-10.5-5.5-1.9z"/><path fill="#261f1c" fill-opacity=".4" d="M42.8 32.8l51 17.3-9 71.7 19.6-76.6z"/><circle r="1" fill="#644432" fill-opacity=".8" transform="rotate(141.2 -13 63.5) scale(15.77934 25.30609)"/><path fill="#d3cbcb" fill-opacity=".5" d="M89 100h31v16H89z"/><path fill="#cd8b68" fill-opacity=".6" d="M72 51l11.8-5.3L96 73l-11.8 5.2z"/><ellipse cx="253" cy="14" fill="#2a1c0f" fill-opacity=".5" rx="27" ry="39"/><path fill="#8badc0" fill-opacity=".6" d="M174.4 90l-28.5 1.4 16.5-1 26 9.1z"/><path fill="#c3cdd7" fill-opacity=".7" d="M73.5 185L178 169.1l-55.4-13.4-24.5 5.8z"/><path fill="#050e18" fill-opacity=".4" d="M55.1 125.8l36.9-9.2 10.9 43.6-36.9 9.2z"/><path fill="#c6e5ff" fill-opacity=".5" d="M86.4 89l-1.8 34h-1l1.8-34z"/><path fill="#23181a" fill-opacity=".5" d="M203.8 57l11.3 64-10.9 2L193 59z"/><path fill="#bfa58e" fill-opacity=".4" d="M45.1 44.5l2.4-60.3 12.1 44.6 21.8-9.9z"/><circle r="1" fill="#cfb8aa" fill-opacity=".6" transform="matrix(-6.20484 -28.72108 8.35997 -1.80607 151 110.6)"/><path fill-opacity=".5" d="M74 45l15-6-31-2z"/><path fill="#556a71" fill-opacity=".5" d="M37.1 128.1l-17 56.9L37 156.1l-14.7-28.3z"/><path fill="#caeafc" fill-opacity=".4" d="M60.1 71.5l-.5 10.6 17.8 19.2-5.1-13.8z"/><path fill="#845e47" fill-opacity=".6" d="M117 16L83 73l5-89z"/><circle r="1" fill="#b8867e" fill-opacity=".6" transform="matrix(1.15101 -7.8899 17.93557 2.61652 137.7 149.8)"/><path fill="#0e1a24" fill-opacity=".6" d="M53 103l-27 1 34-37z"/><path fill="#633419" fill-opacity=".5" d="M137.3 62.2l-1.6 32-7-.4 1.6-32z"/><circle r="1" fill="#5e3b27" fill-opacity=".7" transform="rotate(80 73 126.4) scale(36.92759 16.53971)"/><path fill="#151b26" fill-opacity=".6" d="M79 179l26-30-77-8z"/><circle r="1" fill="#151c0a" fill-opacity=".4" transform="matrix(-6.24653 -2.00308 7.89448 -24.61865 154.2 18.5)"/><path fill="#bec2c9" fill-opacity=".7" d="M242.6 138.6v41.6l-50.5-58.1 31.8 2.4z"/><path fill="#4c4547" fill-opacity=".6" d="M233 77h23v37h-23z"/><path fill="#1b1615" fill-opacity=".5" d="M51.9 49.8l21-1.5 1.2 18-21 1.4z"/><path fill="#b4aaab" fill-opacity=".5" d="M98 123h17v25H98z"/><ellipse cx="12" cy="26" fill="#6b4633" fill-opacity=".4" rx="25" ry="121"/><path fill="#7e5041" fill-opacity=".5" d="M147 107h3v24h-3z"/><circle r="1" fill="#3f2b1e" transform="matrix(2.37262 3.87297 -4.3448 2.66167 103.7 82)"/><path fill="#1c2012" fill-opacity=".6" d="M136 38.2l12.6-2.4L118 7.3l-.9 13.5z"/><path fill="#d6dce3" fill-opacity=".5" d="M114 132h35v10h-35z"/><path fill="#2b2a2a" fill-opacity=".4" d="M13.8 65.6L-16 71 2.6 42.9 26.9 47z"/><path fill="#c5dcea" fill-opacity=".1" d="M171.4 88.5l-7.9 5.3-14.4-20.6 11-5.6z"/><path fill="#8f6b50" fill-opacity=".5" d="M-12 29l61 25-3-29z"/><ellipse cx="142" cy="59" fill="#302119" fill-opacity=".8" rx="17" ry="3"/><path fill="#000304" fill-opacity=".5" d="M78.4 82.4l15.4-8.3-1.9 24.2-11.1-21.8z"/><path fill="#3f2615" fill-opacity=".6" d="M98.7 45.1l16.5 10.2-3.6-18L96 56.7z"/><path fill="#7a5a3d" fill-opacity=".5" d="M202 0h27v72h-27z"/><path fill="#e19a76" fill-opacity=".4" d="M86 50L75 87 62 75z"/><circle r="1" fill="#0c0a0c" fill-opacity=".5" transform="rotate(115 -3.1 90.4) scale(14.99219 19.05324)"/><path fill="#5f2000" fill-opacity=".1" d="M108.1 143.3l-4.9-32.4 19.8 44 13.3-7.8z"/><path fill="#e7baad" fill-opacity=".6" d="M99 53l16 14-14 5z"/></g></svg>