<svg xmlns="http://www.w3.org/2000/svg" viewBox="0 0 300 199"><defs/><path fill="#633237" d="M0 0h300v199H0z"/><g transform="translate(.6 .6) scale(1.17188)"><ellipse cx="134" cy="77" fill="#709be5" fill-opacity=".5" rx="73" ry="169"/><circle r="1" fill="#00000d" fill-opacity=".6" transform="matrix(50.13962 -16.97132 9.77374 28.87528 57.2 157)"/><circle r="1" fill="#f0cff3" fill-opacity=".5" transform="matrix(-37.15414 -21.56631 18.54409 -31.9475 122.4 8.6)"/><circle cx="42" r="104" fill="#9695df" fill-opacity=".3"/><ellipse cx="178" cy="169" fill="#5a6ed9" fill-opacity=".6" rx="90" ry="36"/><circle r="1" fill="#3b2438" fill-opacity=".7" transform="matrix(21.1084 17.9895 -81.7518 95.92541 215.7 27.7)"/><circle r="1" fill="#865e4d" transform="matrix(23.71262 20.10977 -15.31486 18.05867 218.2 90.8)"/><ellipse cx="105" cy="78" fill="#e1d4fa" fill-opacity=".5" rx="19" ry="24"/><ellipse cx="176" cy="124" fill="#84bade" fill-opacity=".7" rx="15" ry="28"/><ellipse cx="72" cy="67" fill="#000035" fill-opacity=".7" rx="6" ry="23"/><ellipse cx="239" cy="127" fill="#001532" fill-opacity=".7" rx="52" ry="13"/><ellipse cx="134" cy="68" fill="#20032b" fill-opacity=".6" rx="11" ry="22"/><ellipse cx="3" cy="24" fill="#7867ff" fill-opacity=".4" rx="9" ry="144"/><path fill="#07010e" fill-opacity=".7" d="M111 134.3l-62.7 5.1-40.4-25.2L10 185z"/><ellipse cx="31" cy="83" fill="#fdcca8" fill-opacity=".5" rx="10" ry="19"/><circle r="1" fill="#a488a2" fill-opacity=".4" transform="matrix(17.66338 36.07468 -20.14991 9.86608 151.6 44.6)"/><ellipse cx="141" fill="#ffe2a8" fill-opacity=".4" rx="56" ry="17"/><path fill="#441b3e" fill-opacity=".6" d="M191.3 171.8l-33-.6.4-17 33 .6z"/><ellipse cx="15" cy="83" fill="#00001e" fill-opacity=".5" rx="5" ry="56"/><path fill="#122749" fill-opacity=".5" d="M75 85l40 33-17 60z"/><circle r="1" fill="#260733" fill-opacity=".5" transform="matrix(-22.83491 -20.94116 8.43408 -9.19679 190.5 31)"/><ellipse cx="154" cy="104" fill="#000027" fill-opacity=".5" rx="11" ry="23"/><ellipse cx="206" cy="113" fill="#25c1f5" fill-opacity=".3" rx="32" ry="9"/><path fill="#180021" fill-opacity=".6" d="M30 11L46-9l30 28z"/><circle r="1" fill="#a49fd5" fill-opacity=".5" transform="rotate(71.6 -32.1 159.3) scale(28.91789 13.22691)"/><path fill="#44b8df" fill-opacity=".8" d="M82.3 49.7l-8.5 39.2 4 4.8 21-45.9z"/><circle r="1" fill="#14064a" fill-opacity=".5" transform="matrix(-5.11387 -11.81747 59.2695 -25.6482 239.3 38)"/><path fill="#2c1743" fill-opacity=".5" d="M57 55l25-11-24 94z"/><ellipse cx="18" cy="11" fill="#0254c9" fill-opacity=".6" rx="4" ry="38"/><circle r="1" fill="#3f93f5" fill-opacity=".4" transform="matrix(16.36343 11.43727 -7.58796 10.85618 204.7 152.8)"/><ellipse cx="30" cy="21" fill="#ffb050" fill-opacity=".2" rx="10" ry="34"/><ellipse cx="43" cy="54" fill="#31000e" fill-opacity=".7" rx="2" ry="60"/><path fill="#04ffff" fill-opacity=".5" d="M105 105h7v15h-7z"/><path fill="#000003" fill-opacity=".5" d="M86 104l-12 5 13-35z"/><path fill="#a09bec" fill-opacity=".5" d="M112.5 30L69.3 48.4 61.5 30l43.2-18.4z"/><path fill="#5559bc" fill-opacity=".5" d="M109.1 26l63.7 7.3-2.7-12-94.3-9.4z"/><path fill="#b28b99" fill-opacity=".5" d="M43 107l-19 16 5-27z"/><path fill="#2cceee" fill-opacity=".5" d="M128.2 84.8l-7.8 1.7-6.6-31.3 7.8-1.7z"/><path fill="#e6932d" fill-opacity=".6" d="M194.8 92.3l2-10.8 32.4 6.2-2 10.8z"/><ellipse cx="239" cy="57" fill="#bba2ff" fill-opacity=".1" rx="31" ry="13"/><path fill="#00003d" fill-opacity=".4" d="M131.9 84.9l1-23.1 3.2-7.5-22.9-11.2z"/><circle r="1" fill="#589bbf" fill-opacity=".5" transform="rotate(-35.3 237 -66.7) scale(6.74831 10.75017)"/><path fill="#f8967d" fill-opacity=".3" d="M143.4 50.7l7.7 14.8 38-29.5-56.2 4.2z"/><path fill="#2d101a" fill-opacity=".8" d="M59.1 111.3L46.8 93.5l-4.5 55.9-11.5-34.2z"/><path fill="#4317b4" fill-opacity=".4" d="M216 140h40v30h-40z"/><ellipse cx="51" cy="55" fill="#fd8441" fill-opacity=".3" rx="7" ry="39"/><path fill="#ffb769" fill-opacity=".5" d="M137 101l-14-12 16 2z"/><ellipse cx="102" cy="48" fill="#4071ca" fill-opacity=".6" rx="21" ry="9"/><circle r="1" fill="#545263" fill-opacity=".7" transform="matrix(40.99922 28.92555 -4.54074 6.43607 192.4 93)"/><path fill="#00000b" fill-opacity=".7" d="M258.9 137.4l-48-.8.2-14 48 .8z"/><path fill="#700b00" fill-opacity=".2" d="M129.4 131.8l30-4.8-67-33 47.4 4.5z"/><path fill="#523874" fill-opacity=".6" d="M109 150l5 35-59-16z"/><path fill="#594884" d="M170.1 3.1l4.7 14.5-25.5-30.2 1-3.4z"/><path fill="#54d6fd" fill-opacity=".4" d="M166 69.6l-20.6 6.7 7 3 16.3 3z"/><path fill="#aeb7fe" fill-opacity=".4" d="M236.9 101.3l6.6 6-14.4 15.4-6.6-6z"/><path fill="#30378b" fill-opacity=".5" d="M239 96l11 26 21-19z"/><path fill="#875ecc" fill-opacity=".6" d="M-14.6 56l2.2-65 27 1-2.2 65z"/><path fill="#884526" fill-opacity=".6" d="M179.4 76.3l18.8 33.6 27.7-51.4 22.6 28.8z"/><path fill="#80abdb" fill-opacity=".4" d="M200.1 153.2l-23.7-56.5-11.8 19.5-28 36.4z"/><path fill="#4ec1e3" fill-opacity=".6" d="M199.7 113.9l10.8-1.6-33.4-8.7 26.1 24.7z"/><path fill="#33172c" fill-opacity=".8" d="M31.3 62.2l-2.8-8.4 19 11.7-14.4.3z"/><path fill="#28182c" fill-opacity=".6" d="M180.5 84.1l-13-30.6.6 28.8L271-16z"/><path fill="#673937" fill-opacity=".7" d="M187.4 13l27.3-26.4 14 14.4-27.4 26.4z"/><circle r="1" fill="#5f2780" fill-opacity=".5" transform="matrix(-7.73068 6.70627 -20.10019 -23.17057 63.8 0)"/><path fill="#df9c55" fill-opacity=".4" d="M221 89l-29-24 5 32z"/></g></svg>