<svg xmlns="http://www.w3.org/2000/svg" viewBox="0 0 298 450"><defs/><path fill="#4f3933" d="M0 0h298v450H0z"/><g transform="translate(.9 .9) scale(1.75781)"><ellipse cx="81" cy="123" fill="#e0e5e3" fill-opacity=".6" rx="69" ry="255"/><ellipse cx="55" cy="178" fill="#050b1b" fill-opacity=".8" rx="8" ry="74"/><path fill="#fcfdfd" fill-opacity=".9" d="M130.9 25l-.8 44-105-2 .8-44z"/><ellipse cx="158" cy="86" fill="#8d725d" fill-opacity=".7" rx="29" ry="194"/><ellipse cx="80" cy="73" fill="#53433c" rx="98" ry="5"/><circle r="1" fill="#eceff0" fill-opacity=".7" transform="matrix(.02041 -67.49103 12.621 .00382 38.3 184)"/><path fill-opacity=".5" d="M21 112h118v10H21z"/><circle r="1" fill="#e8eff7" fill-opacity=".5" transform="matrix(-21.28808 -2.40298 7.1372 -63.22873 81.2 218.8)"/><ellipse cx="106" cy="93" fill="#fff" fill-opacity=".9" rx="20" ry="16"/><ellipse cx="52" cy="92" fill="#fff" fill-opacity=".9" rx="20" ry="15"/><ellipse cx="24" cy="97" fill="#190000" fill-opacity=".4" rx="4" ry="130"/><ellipse cx="79" cy="93" fill="#200e0a" fill-opacity=".7" rx="8" ry="29"/><path fill="#070f27" fill-opacity=".6" d="M44.2 167.2l17.1 32.6 13.2-32.2-12.2-43.8z"/><ellipse cx="68" cy="18" fill="#4e3c31" fill-opacity=".9" rx="90" ry="3"/><path fill="#060000" fill-opacity=".6" d="M126 69h11v44h-11z"/><ellipse cx="79" cy="34" fill="#57453d" fill-opacity=".7" rx="2" ry="193"/><path fill="#00010b" fill-opacity=".5" d="M47 222h21v26H47z"/><ellipse cx="139" cy="139" fill="#e5e9e9" fill-opacity=".6" rx="3" ry="130"/><path fill="#7d716a" fill-opacity=".7" d="M121 239.4l-9-136.8-18.5 167.1 91.1-25z"/><path fill="#fff" fill-opacity=".5" d="M122 127h11v56h-11z"/><ellipse cx="14" cy="170" fill="#755f50" fill-opacity=".9" rx="3" ry="226"/><ellipse cx="86" cy="131" fill="#fff" fill-opacity=".6" rx="23" ry="10"/><path fill="#45332c" fill-opacity=".9" d="M32.3 75.4l-11.1-2 1.4 45.2 11.6 3.3z"/><ellipse cx="107" fill="#6f523f" fill-opacity=".9" rx="94" ry="5"/><path fill="#d7f3ff" fill-opacity=".4" d="M-16 252.1l60.2-20.7 3.2 13L52 271z"/><ellipse cx="55" cy="224" fill="#291f1c" fill-opacity=".8" rx="35" ry="2"/><ellipse cx="17" cy="48" fill="#fffffa" fill-opacity=".5" rx="2" ry="111"/><path fill="#3f2100" fill-opacity=".4" d="M121.6 140.3l-35.9 2.2 9.1 18.5 29.6-2.1z"/><path fill="#fff" fill-opacity=".5" d="M27 130h19v91H27z"/><path fill="#fff" fill-opacity=".4" d="M78 215l-21 5 21-73z"/><circle r="1" fill="#775b46" fill-opacity=".6" transform="rotate(-1.3 4731 -201.5) scale(11.16244 128.96938)"/><ellipse cx="47" cy="170" fill="#3d322c" fill-opacity=".5" rx="48" ry="3"/><path fill="#220903" fill-opacity=".5" d="M107 111l12.1-5.5-6.1 28.8-14.3-15.4z"/><path fill="#fff" fill-opacity=".6" d="M33.2 113.2l-.4-20 18-.4.4 20z"/><path fill="#5a4946" d="M66.7 111.1l-5.6-7.4-7.5 2.4 4.1 21z"/><path fill="#fff" fill-opacity=".5" d="M18 132h4v94h-4zm81 55l-14 34-3-89z"/><ellipse cx="134" cy="53" fill="#3a2d27" fill-opacity=".8" rx="3" ry="42"/><path fill="#462c20" fill-opacity=".6" d="M79 67h3v155h-3z"/><path fill="#fff" fill-opacity=".5" d="M87 78h20v35H87z"/><ellipse cx="159" cy="56" fill="#846550" fill-opacity=".8" rx="18" ry="164"/><path fill="#3f1f12" fill-opacity=".4" d="M133 68h5v158h-5z"/><path fill="#111b31" fill-opacity=".5" d="M45.1 144.8l5.9-27.7L74.6 149l-14.7 45.4z"/><path fill="#fff" fill-opacity=".5" d="M118 124l14-5-2 49zM25 21h49v46H25zm4 105h18v44H29z"/><ellipse cx="70" cy="8" fill="#d4bca1" fill-opacity=".6" rx="57" ry="5"/><path fill="#f8faf3" fill-opacity=".5" d="M34.6 136l-7 16.6-1.7-27.3 34.9-5.9z"/><path fill="#d7e7f8" fill-opacity=".7" d="M91.8 232.8L87.2 271l-21.8-32-11.6-.9z"/><path fill="#fffffe" fill-opacity=".5" d="M75.3 123.7l4.7 25.4-1.8 12.8-18.6-45.8z"/><path fill="#00000d" fill-opacity=".5" d="M48 206h11v40H48z"/><path fill="#feffff" fill-opacity=".4" d="M87 22h45v37H87z"/><path fill="#1a0c00" fill-opacity=".3" d="M23.7 223.5L21.8 98.7 28.7 232l21.2-6z"/><path fill="#feffff" fill-opacity=".5" d="M89 79h36v29H89z"/><path fill="#d0e0ef" fill-opacity=".6" d="M57 226h20v5H57z"/><path fill="#5c4731" fill-opacity=".4" d="M142 271l-4-26-47-6z"/><ellipse cx="79" cy="117" fill="#43291f" fill-opacity=".5" rx="58" ry="5"/><path fill="#f8fafa" fill-opacity=".6" d="M73.8 109.2l-3.3-26.9-36.8-4.9 4.8 19.7z"/><ellipse cx="140" cy="197" fill="#f9fdf8" fill-opacity=".5" rx="3" ry="36"/><path fill="#fff" fill-opacity=".5" d="M59 219l20-47-1 49z"/><path fill="#b6b5b6" fill-opacity=".3" d="M96 167h38v61H96z"/><path fill="#fff" fill-opacity=".5" d="M32 178h18v27H32z"/><path fill="#fffffd" fill-opacity=".4" d="M108.1 145.8l-9-24.6-17.9-.6 2.9 16.4z"/><path fill="#f4ffff" fill-opacity=".4" d="M29 230h17v26H29z"/><ellipse cx="19" cy="33" fill="#ebeade" fill-opacity=".5" rx="1" ry="213"/></g></svg>