<svg xmlns="http://www.w3.org/2000/svg" viewBox="0 0 300 199"><defs/><path fill="#503c34" d="M0 0h300v199H0z"/><g transform="translate(.6 .6) scale(1.17188)"><circle r="1" fill="#c0a69a" fill-opacity=".6" transform="matrix(57.64362 -.80903 1.55609 110.87205 209.4 90.7)"/><circle r="1" fill="#b0836c" fill-opacity=".6" transform="rotate(152.1 27.4 25) scale(245.67317 34.54349)"/><ellipse cx="99" cy="156" fill="#03000b" fill-opacity=".7" rx="29" ry="98"/><circle r="1" fill="#a9a8a9" fill-opacity=".5" transform="matrix(26.07904 40.32626 -14.61617 9.4523 28.6 87.7)"/><circle cx="161" cy="90" r="18" fill="#f1f5fc" fill-opacity=".5"/><path fill="#2c0801" fill-opacity=".4" d="M178 115l93 32-63-54z"/><circle r="1" fill="#120a05" fill-opacity=".5" transform="rotate(-120.3 111.8 -16) scale(18.2926 9.96615)"/><ellipse cx="144" cy="117" fill="#00001e" fill-opacity=".6" rx="25" ry="15"/><circle r="1" fill="#dee2e6" fill-opacity=".3" transform="rotate(82.3 11.6 180.6) scale(18.74127 37.95713)"/><path fill="#0d0006" fill-opacity=".7" d="M75 94l93-51-25-17z"/><path fill="#ffe3c7" fill-opacity=".5" d="M194-3l31-13 12 58z"/><ellipse cx="201" cy="70" fill="#ecfbff" fill-opacity=".5" rx="6" ry="26"/><circle r="1" fill="#310" fill-opacity=".5" transform="rotate(141.3 -18.8 70.5) scale(22.39127 77.13466)"/><ellipse cx="61" cy="85" fill="#60534b" rx="15" ry="27"/><path fill="#d6d9df" fill-opacity=".6" d="M181.7 172.4L156.2 66.5l-1-19.1 24.1 39.4z"/><circle r="1" fill="#fff8ed" fill-opacity=".5" transform="matrix(14.77427 5.0169 -1.73444 5.10773 145 0)"/><path fill="#ffd6b6" fill-opacity=".4" d="M136.6 27.8l13.1-5.9 9 8.2L61.5-7.6z"/><circle r="1" fill="#81513a" fill-opacity=".5" transform="rotate(112 10.4 24.4) scale(33.46619 57.16272)"/><circle r="1" fill="#374fa5" fill-opacity=".3" transform="matrix(-23.29547 -30.24978 7.32194 -5.63866 129 87.5)"/><path fill="#b5acaa" fill-opacity=".5" d="M44.8 55l5.9 25.3L-4.8 93l-5.9-25.4z"/><path fill="#b3b4a9" fill-opacity=".4" d="M31 99h19v38H31z"/><path fill="#230602" fill-opacity=".4" d="M28.1 75.7l16.9 17-48.4 23.7L40 80.7z"/><path fill="#805147" fill-opacity=".6" d="M218 96l21 71 29-30z"/><circle r="1" fill="#89624f" fill-opacity=".9" transform="matrix(51.01343 80.4686 -20.51835 13.0077 255 0)"/><circle r="1" fill="#806051" fill-opacity=".5" transform="matrix(-3.03605 -29.46211 11.63374 -1.19885 156.6 155.7)"/><path fill="#745b44" fill-opacity=".5" d="M208 45h32v44h-32z"/><path fill="#f4fcff" fill-opacity=".5" d="M66 112h7v12h-7z"/><path fill="#6f2810" fill-opacity=".5" d="M83.9 102.9l51.6 28.6-5.4 9.6-51.6-28.6z"/><path fill="#ffeee8" fill-opacity=".4" d="M236 98l22 24-20-45z"/><circle r="1" fill="#e8c1a9" fill-opacity=".5" transform="matrix(23.60423 14.82315 -2.2383 3.56424 195.8 31.4)"/><path fill="#060000" fill-opacity=".5" d="M9 89h8v39H9z"/><ellipse cx="75" cy="67" fill="#161112" fill-opacity=".6" rx="31" ry="5"/><path fill="#814d35" fill-opacity=".7" d="M217.9 49.2L105.5-16l21.6 7.3-54 3.3z"/><circle cx="183" cy="5" r="15" fill="#6c1b00" fill-opacity=".3"/><path fill="#5b3b2c" fill-opacity=".6" d="M166 49h29v19h-29z"/><path fill="#580b00" fill-opacity=".4" d="M157.8 80.3L146 86l-11.9-24.3L146 56z"/><path fill="#be9d85" d="M66.6 18.6l23.9.9 5.4-10L93 27.8z"/><circle r="1" fill="#04010e" fill-opacity=".6" transform="matrix(-16.66018 3.92802 -7.18212 -30.46206 83.8 159.2)"/><path fill="#3b0c01" fill-opacity=".7" d="M67.6 155.4l-2.8-1.6-67.1 12.7 47.8-34.2z"/><path fill="#796e69" d="M58.7 100.5l-24.2 37.9-15.9 1.9 57.3-39.6z"/><path fill="#250400" fill-opacity=".3" d="M209 127.8l-45-4.6 43.9-15.2-16.8 36.6z"/><path fill="#a06f56" fill-opacity=".7" d="M21 20l105 19-32 22z"/><path fill="#e7e4d5" fill-opacity=".5" d="M11-10V6L0 0z"/><path fill="#2a0300" fill-opacity=".6" d="M231 161l-8 16 23-19z"/><path fill="#c4c4c6" fill-opacity=".4" d="M225.8 168.4l-63-46.5 31.1 43.2 58.6-19.7z"/><path fill="#fff" fill-opacity=".5" d="M81-.7l-1.7 5.8L65 .7l1.7-5.8z"/><path fill="#6b3d29" fill-opacity=".7" d="M31.3 4.7l61.6 16.9L43.8-16 33.1 42.3z"/><path fill-opacity=".4" d="M60 80l72 52 7-31z"/><path fill="#b8826a" fill-opacity=".5" d="M135 97l13 6 6-40z"/><path fill="#69290c" fill-opacity=".4" d="M106.6 34.6l24.8 7.6-38.5-30.6L135.3 26z"/><path fill="#0e0000" fill-opacity=".6" d="M128.7 67.9L125.4 41l23.9-3 3.3 26.8z"/><path fill="#ddcfbe" fill-opacity=".6" d="M245 11h11v6h-11z"/><path fill="#060911" fill-opacity=".5" d="M180 113V97h4v16z"/><path fill="#e9eff4" fill-opacity=".5" d="M169.4 78.1l-9.6 2.8-7.2-25 9.6-2.8z"/><path fill="#cbe9fb" fill-opacity=".3" d="M186.4 113.6l18.4-19.1-14.3-1.7-9.2-1z"/><path fill="#142050" fill-opacity=".7" d="M98.4 142.7l19.6 4.1-4.4 20.5-19.6-4.1z"/><path fill="#fae1db" fill-opacity=".3" d="M188.3 11.9l-50.2 1.3 33.1 5.8 11.6-15.1z"/><path fill="#96867c" fill-opacity=".7" d="M27.6 58.9l39.8 26.4-48.8.8 9 27.8z"/><path fill="#a67960" fill-opacity=".9" d="M154.6 52l41.8-21.6 1.5-22.7 19.6 2.3z"/><path fill="#c8b5ab" fill-opacity=".5" d="M48.7 18.2l9.2-3.1L34.8 4.8l-2.1-2.1z"/><path fill="#846c64" d="M217.9 152.3l-16.8-4.6 24.9 14.4-28.5 22.9z"/><path fill="#c0baba" fill-opacity=".9" d="M177.3 111.6l12.9 29.1-17 44 6.8-64z"/><circle r="1" fill="#462211" fill-opacity=".4" transform="matrix(27.1266 6.30564 -.80362 3.45715 58 22.5)"/><circle r="1" fill="#05050c" fill-opacity=".5" transform="rotate(175 29 57.6) scale(15.28135 1.51671)"/><path fill="#897164" fill-opacity=".9" d="M130.1 162.7l1.3-22.5 82 17.5-89-18.8z"/></g></svg>