<svg xmlns="http://www.w3.org/2000/svg" viewBox="0 0 298 450"><defs/><path fill="#4d3a2e" d="M0 0h298v450H0z"/><g transform="translate(.9 .9) scale(1.75781)"><circle r="1" fill="#f4d6c7" fill-opacity=".6" transform="matrix(-36.55324 45.41608 -41.35347 -33.28344 65.4 190.5)"/><circle r="1" fill="#b2c7c7" fill-opacity=".5" transform="rotate(98.4 -.6 76.4) scale(39.65127 33.80549)"/><ellipse cx="144" cy="140" fill="#fcd8bf" fill-opacity=".5" rx="12" ry="47"/><circle cx="150" cy="230" r="44" fill="#000c00" fill-opacity=".6"/><circle r="1" fill="#020101" fill-opacity=".8" transform="matrix(-9.8486 52.35351 -22.53817 -4.23982 12 104.8)"/><circle r="1" fill="#e3e0e0" fill-opacity=".5" transform="matrix(-56.03142 -18.12017 4.52857 -14.00332 43.8 186.1)"/><path fill="#ecffff" fill-opacity=".5" d="M99.1 237l16.9 15.6-19.1 20.5L80 257.4z"/><circle r="1" fill="#151f18" fill-opacity=".6" transform="matrix(-5.43448 30.97555 -166.45758 -29.20403 106.5 21.7)"/><path fill="#c7e6ed" fill-opacity=".6" d="M102.2 51.1L83.7 72.7l-17.7 5-25.5-24.4z"/><circle r="1" fill="#937261" transform="rotate(-146.5 84.3 67.9) scale(16.6486 24.63876)"/><path fill="#00140b" fill-opacity=".5" d="M85.6 109L81 134.3l-17.1-44 9.2-18.1z"/><circle r="1" fill="#1e1f13" fill-opacity=".6" transform="matrix(-7.13228 -20.95094 30.16737 -10.26981 126 68.6)"/><path fill="#281910" fill-opacity=".7" d="M33 173.4l-1.4-45.5L47.2-13.6 12.8 162z"/><ellipse cx="63" cy="138" fill="#0b0000" fill-opacity=".7" rx="9" ry="7"/><circle r="1" fill="#d0dee9" fill-opacity=".4" transform="matrix(8.65087 21.24882 -31.91456 12.99314 68.4 190.8)"/><path fill="#9c7e69" fill-opacity=".8" d="M185 183.2l-11.5-13.3-108.3-13.3 119.8 37z"/><ellipse cx="166" cy="115" fill="#000c00" fill-opacity=".6" rx="12" ry="50"/><circle r="1" fill="#926b53" fill-opacity=".6" transform="rotate(128.5 -25.5 142) scale(90.01065 14.54447)"/><path fill="#1b2d07" fill-opacity=".4" d="M15.3 199.4L49.8 259l-51.1 29.5-34.5-59.7z"/><path fill="#c08c73" fill-opacity=".5" d="M10.4 156.9l-26.4 1.3L55.7 271l-11.9-91.7z"/><path fill="#88715e" fill-opacity=".6" d="M133 103l32-44-33 100z"/><circle r="1" fill="#4b5c59" fill-opacity=".6" transform="matrix(4.46822 4.60763 -13.69353 13.27922 63 55.2)"/><path fill="#a56851" fill-opacity=".5" d="M31 171L44 66l27 35z"/><path fill="#a3eef8" fill-opacity=".2" d="M101.8 129.2L83.7 56.3 79.4 102l39.3-18.9z"/><path fill="#332616" fill-opacity=".6" d="M167.2 200.6L139 176l-28.3 22.7-8.5-20.9z"/><circle r="1" fill="#c1a796" fill-opacity=".6" transform="matrix(.84546 48.43648 -5.13753 .08968 148.6 127.8)"/><path fill="#acc9de" fill-opacity=".5" d="M109.4-16l.1 24.4.3 3.4 14.1-13.3z"/><path fill="#f6ffff" fill-opacity=".5" d="M57.8 69.9l20.4-16 8 10.2-20.4 16z"/><path fill="#d9b29d" fill-opacity=".5" d="M38 148h44v33H38z"/><path fill="#9fdaf3" fill-opacity=".4" d="M23.5 23.9l-4.6 17.6-9.6-2.7 8.1-6.3z"/><path fill="#031912" fill-opacity=".5" d="M108 149l-21-17 54-28z"/><path fill="#e9d2c5" fill-opacity=".5" d="M45 68l-3 22 20-22z"/><path fill="#6a93ac" fill-opacity=".5" d="M25.2 13.5L-3.7 5.2l-12.3-8L20.8 7z"/><path fill="#90503d" fill-opacity=".3" d="M42.6 260.7L-13.2 184l14.6-10.6L57.2 250z"/><path fill="#132118" fill-opacity=".4" d="M77.8 131.4l-7.6-16 14.6 4.2 61.7 40.3z"/><path fill="#10160c" fill-opacity=".7" d="M185 174l-60 96-25-37z"/><path fill="#d3bfb2" fill-opacity=".3" d="M29.8 108.5l21.9-9 29 58.5-8.1-41.4z"/><path fill="#5b8a93" fill-opacity=".5" d="M104.1 109.7l-36.7 4.2 39.6 12.2 14.8 16.3z"/><path fill="#3a1f11" fill-opacity=".8" d="M74.7 146.9L27.9 112 25 129.9l41.7-.6z"/><path fill="#713f25" fill-opacity=".5" d="M102.1 177.4l-10.8-6.6-9.7-15.6 9 1.1z"/><path fill="#272e2a" fill-opacity=".6" d="M79 20L17 78l-33-23z"/><path fill="#a4c3d4" fill-opacity=".6" d="M62.3 8.7L59.6 10l-6-12.7L56.5-4z"/><path fill="#1b100a" fill-opacity=".4" d="M46.2 100.9L-16 119.1l79.3-38.6-7.5-3.9z"/><path fill="#caf3ff" fill-opacity=".5" d="M28.2 48.6l.5 3-10.9 1.8-.5-3z"/><path fill="#26291e" fill-opacity=".5" d="M66 104l25 1-23-25z"/><path fill="#d4e3f1" fill-opacity=".4" d="M90.2 173.2l5.5 19.2-50 14.4-5.4-19.2z"/><circle r="1" fill="#2c2c21" fill-opacity=".5" transform="matrix(-5.41353 11.45241 -27.72292 -13.10457 118.1 79.2)"/><path fill="#8ec6f0" fill-opacity=".4" d="M155 18h5v11h-5z"/><path fill="#576360" fill-opacity=".5" d="M121.5-16l4.1 34 23.7-20.7-4.7 13.2z"/><path fill="#cbd8df" fill-opacity=".2" d="M94 45.3l-.3 1-51.8 71.1 34.3-70.9z"/><circle r="1" fill="#ac9386" fill-opacity=".4" transform="rotate(-137 78.8 100.1) scale(19.53052 29.69227)"/><path fill="#040000" fill-opacity=".7" d="M-15.9 111.3l31-34.3 3.7 91.9 10.3-7.2z"/><path fill="#f1bfac" fill-opacity=".5" d="M115 151h13v11h-13z"/><path fill="#1c1d12" fill-opacity=".9" d="M157.4 80.3l11.9 80-15.6-41.4-1.6-19.6z"/><path fill="#caac9c" fill-opacity=".6" d="M52.2 214.2L12.1 161l-23.2-5.3 69.5 82.6z"/><path fill="#c9dff2" fill-opacity=".5" d="M83.5 256.9l15.9-15.3 11 11.5-15.8 15.3z"/><path fill="#bfffff" fill-opacity=".5" d="M133 128l-2-11 3 5z"/><path fill="#161309" fill-opacity=".6" d="M97 37L49 12l97 1z"/><ellipse cx="148" cy="158" fill="#bea08d" fill-opacity=".5" rx="9" ry="22"/><ellipse cx="75" cy="30" fill="#517076" fill-opacity=".5" rx="14" ry="4"/><ellipse cx="165" cy="33" fill="#1e1b0f" fill-opacity=".9" rx="5" ry="82"/><ellipse cx="57" cy="36" fill="#1d1d0f" fill-opacity=".6" rx="4" ry="26"/><path fill="#1b1a0a" fill-opacity=".5" d="M65 61l15-77h24z"/><path fill="#5f7172" d="M39 54.3l31.1-2.6 6.5 5.2-.2-11.5z"/><path fill="#002811" fill-opacity=".5" d="M-1.7 264.5l44.4 6.5L29 240.5l-30.6-5.3z"/></g></svg>