<svg xmlns="http://www.w3.org/2000/svg" viewBox="0 0 298 450"><defs/><path fill="#554434" d="M0 0h298v450H0z"/><g transform="translate(.9 .9) scale(1.75781)"><circle r="1" fill="#b4b4bc" fill-opacity=".8" transform="rotate(-33.2 287 -95) scale(101.42962 56.72551)"/><path fill="#d3f8f8" fill-opacity=".7" d="M153 0h17v64h-17z"/><ellipse cx="68" cy="144" fill="#d4ebff" fill-opacity=".4" rx="32" ry="70"/><circle r="1" fill="#3d3b26" fill-opacity=".4" transform="matrix(-65.42952 -92.3111 33.99525 -24.09562 138.2 97.8)"/><path fill="#c1d0e1" fill-opacity=".5" d="M103 115l42 89-157-1z"/><circle r="1" fill="#001c0a" fill-opacity=".5" transform="matrix(-29.8329 -1.56348 3.44253 -65.6873 15.4 39.6)"/><path fill="#6a574e" fill-opacity=".8" d="M51 107l-39 74-28-49z"/><circle r="1" fill="#8b7670" fill-opacity=".6" transform="matrix(31.3594 9.82744 -6.55088 20.90387 73.8 67.8)"/><circle r="1" fill="#0c3c25" fill-opacity=".5" transform="rotate(-96.9 76.4 -38.5) scale(32.24993 34.67496)"/><circle r="1" fill="#0d2112" fill-opacity=".7" transform="matrix(8.35317 -19.67117 23.7137 10.06979 64.3 24.8)"/><path fill="#685856" fill-opacity=".7" d="M138.4 148.2l35 1.8-5.8 109.8-35-1.8z"/><path fill="#ab8179" fill-opacity=".5" d="M185 49l-93 55 64 54z"/><path fill="#a1ffd3" fill-opacity=".3" d="M97.4-.7L76.2 11.5l-8.4-26L105.1 37z"/><circle r="1" fill="#6d5767" fill-opacity=".4" transform="rotate(-177 10.7 119.5) scale(131.57558 19.42086)"/><path fill="#eaffff" fill-opacity=".4" d="M146.3-16l1.9 44 15.3-18.8L185-14.9z"/><circle r="1" fill="#ecfcff" fill-opacity=".6" transform="matrix(8.91749 -25.73057 7.2864 2.52526 169 38)"/><path fill="#364a38" fill-opacity=".8" d="M166.4 15.4L185-15.1l-31.2 37.3-51.7 36z"/><path fill="#3a2b00" fill-opacity=".4" d="M77.8 74.3l7.7 16.9 67.7-8.8-36.4-3z"/><path fill="#4e855b" fill-opacity=".6" d="M118.6 60.4l59.7 6.3-1 9-59.6-6.4z"/><path fill="#b6bec6" fill-opacity=".6" d="M48.7 87.6l.7 127 27-128.2-62.2 1.7z"/><ellipse cx="104" cy="166" fill="#c1ccd8" fill-opacity=".6" rx="29" ry="30"/><path fill="#080714" fill-opacity=".5" d="M92.5 223l-3.5-7 30.5-15 3.5 7.2z"/><ellipse cx="45" cy="89" fill="#866258" fill-opacity=".6" rx="4" ry="48"/><path fill="#010e04" fill-opacity=".5" d="M98 54l41-23-6 31z"/><path fill="#9ba4b3" fill-opacity=".7" d="M142.1 190l-22.8 9.2-26.1 12.3-23.8-12.7z"/><path fill="#0c0100" fill-opacity=".6" d="M68.5 44.2l35.6-2.9-39.8-18.8-10.9 38.2z"/><circle r="1" fill="#366d43" fill-opacity=".3" transform="matrix(-3.67841 -14.58993 39.84823 -10.04653 60.7 5.2)"/><path fill="#937a6d" fill-opacity=".6" d="M62.8 92.8l26.9-51.3-41.5 17 17.3 40z"/><path fill="#050602" fill-opacity=".6" d="M45.6 100.9l-23 2.4 2.2-66 10 67.7z"/><circle r="1" fill="#abb8c6" fill-opacity=".4" transform="rotate(15.2 -606.7 218.4) scale(13.17592 44.96251)"/><path fill="#bdd6f9" fill-opacity=".3" d="M100 169l45 27-16 14z"/><circle r="1" fill="#b49996" fill-opacity=".5" transform="matrix(-.47572 8.50892 -57.95623 -3.24026 163.1 95.3)"/><path fill="#425d41" fill-opacity=".6" d="M151 26.7L146.7-16l-11.6 52.4 38-7.8z"/><path fill="#c09c84" fill-opacity=".5" d="M45 42h9v17h-9z"/><circle cy="191" r="20" fill="#65667d" fill-opacity=".3"/><path fill="#587252" fill-opacity=".9" d="M146.1 77.9l-32.7-14.4-5.9-2.6L185 71.7z"/><path fill="#001708" fill-opacity=".5" d="M-10.8 62.4l4.1-29.7 49.5 7-4.1 29.6z"/><circle r="1" fill="#182542" fill-opacity=".4" transform="matrix(-.9554 -4.73824 30.46557 -6.14294 67.4 217.2)"/><path fill="#ddf0f5" fill-opacity=".7" d="M186.5-3.5v9h-37v-9z"/><circle cx="52" cy="183" r="32" fill="#bec7cf" fill-opacity=".5"/><path fill="#2e3d33" d="M118.4 59.4l-12.5 18.4L91 25l26.2 55.7z"/><path fill="#e8fdfb" fill-opacity=".7" d="M93.3 14.4l-1.6 1.2-3-4 1.6-1.2z"/><path fill="#72a6c2" fill-opacity=".4" d="M94 73l12-5-9-12z"/><path fill="#6b5658" fill-opacity=".5" d="M146.8 134.4l23.8 7.7-15.4 47.5-23.8-7.7z"/><path fill="#77818d" fill-opacity=".7" d="M52.5 71.7l27.9-2.4 1.1 13-27.9 2.4z"/><path fill="#1c3321" fill-opacity=".4" d="M160.8 54.1L131.3 68l2.3-84L96.7 8.9z"/><circle r="1" fill="#b5bec9" fill-opacity=".7" transform="rotate(-125.5 69.4 40.7) scale(33.44938 25.49396)"/><path fill="#3d5337" fill-opacity=".9" d="M95.9 34.3l22.3 16.2-8.3-19.8L75.7 7.4z"/><path fill="#99bbaf" fill-opacity=".5" d="M150.9 58.9L161 23.2l-9 25 6.9 15.6z"/><path fill="#433b35" fill-opacity=".6" d="M4.1 79.7l-20.1 21 41.7-2.6-15.6-37.9z"/><path fill="#eefaff" fill-opacity=".5" d="M185 26l-14 28-17-20z"/><path fill="#f6ffcf" fill-opacity=".1" d="M127.2 81.8l17.8-.9-24.4-25.3 7 41.4z"/><path fill="#937269" fill-opacity=".6" d="M83.6 85.3l30.5 51.5 35.5 21.2-38.2-71.9z"/><path fill="#a5c6d0" fill-opacity=".4" d="M78 8l11-24H63z"/><circle r="1" fill="#654d4e" fill-opacity=".6" transform="matrix(-16.52676 36.85761 -10.02475 -4.49505 4.7 169)"/><path fill="#887b60" fill-opacity=".7" d="M32.5 92.8l12.8-3 14 3.9-26.8-10.5z"/><path fill="#030000" fill-opacity=".5" d="M54 48l13-32 26 10z"/><path fill="#786643" fill-opacity=".9" d="M164.6 211.6L157 250l.6 21 24.6-85.5z"/><path fill="#253829" fill-opacity=".5" d="M74.4-6.2l34.5 92.1-8.8-4 13-15.4z"/><path fill="#3b1c08" fill-opacity=".2" d="M80.3 54.5l20 32.4 31.2-7.6-52.8 4.3z"/><path fill="#242a43" fill-opacity=".4" d="M-16 206.8L29.9 220l67.5 4.9-80.9-17.3z"/><path fill="#4a694e" fill-opacity=".5" d="M134 1.3l40.7-10.2-62.8 33.6 46.4-15.3z"/><circle r="1" fill="#865d45" fill-opacity=".5" transform="matrix(-18.9762 1.59352 -.77624 -9.24371 58.3 61.8)"/><path fill="#3c492f" fill-opacity=".4" d="M44.8 119.3l-57.4-14.4 47.1-2.6 16.2-13.2z"/><path fill="#1c543a" fill-opacity=".6" d="M165 63l20-29v26z"/></g></svg>