<svg xmlns="http://www.w3.org/2000/svg" viewBox="0 0 298 450"><defs/><path fill="#472f23" d="M0 0h298v450H0z"/><g transform="translate(.9 .9) scale(1.75781)"><ellipse cx="105" cy="173" fill="#e7cbb9" fill-opacity=".6" rx="33" ry="91"/><circle r="1" fill="#ffdfd0" fill-opacity=".6" transform="matrix(-13.4174 .52317 -.9342 -23.95886 49.5 35.3)"/><circle r="1" fill="#000611" fill-opacity=".6" transform="matrix(-40.76753 1.0251 -2.8014 -111.41039 33.7 160.1)"/><ellipse cx="114" cy="56" fill="#e8b89e" fill-opacity=".6" rx="13" ry="28"/><circle r="1" fill="#deffda" fill-opacity=".4" transform="rotate(101.4 13.6 132.2) scale(21.40609 45.39219)"/><path fill="#edf4ef" fill-opacity=".7" d="M83 221h26v35H83z"/><path fill="#180000" fill-opacity=".4" d="M92 105h14v82H92z"/><ellipse cx="142" cy="207" fill="#524e3a" fill-opacity=".6" rx="31" ry="57"/><path fill="#0a1215" fill-opacity=".6" d="M185.3 2.6L173.4 115l-52.7-5.6L132.6-3z"/><ellipse cx="80" cy="137" fill="#f8cfb5" fill-opacity=".7" rx="7" ry="33"/><circle r="1" fill-opacity=".6" transform="matrix(9.38431 19.66723 -26.83515 12.80452 77 77.8)"/><path fill="#020509" fill-opacity=".8" d="M83 209l-4 62-46-43z"/><path fill="#c08d7a" fill-opacity=".5" d="M68 189h91v18H68z"/><ellipse cx="114" cy="141" fill="#fefaf8" fill-opacity=".4" rx="12" ry="28"/><ellipse cx="9" cy="40" fill="#202426" rx="26" ry="78"/><ellipse cx="101" cy="6" fill="#151d1d" fill-opacity=".7" rx="44" ry="22"/><circle r="1" fill="#000001" fill-opacity=".5" transform="matrix(-26.47424 -13.32108 24.0039 -47.70521 40.4 139.7)"/><path fill="#693928" fill-opacity=".5" d="M109.1 108.6L123 90.3l35.9 27-13.9 18.4z"/><path fill="#4e2d20" fill-opacity=".5" d="M130 200l54 42-96-38z"/><path fill="#fffff3" fill-opacity=".7" d="M161 158l8.4-3.3 3.6 9.4-8.4 3.2z"/><path fill="#fad8c2" fill-opacity=".4" d="M93 54l17 15 5-39z"/><path fill="#ffdfc6" fill-opacity=".5" d="M94 190l-15 2-4-28z"/><path fill="#ecc7b9" fill-opacity=".5" d="M42 16h26v13H42z"/><path fill="#341206" fill-opacity=".5" d="M110 50l9 5 22-17z"/><path fill="#afaf8e" fill-opacity=".5" d="M148 116h11v37h-11z"/><path fill="#451a0a" fill-opacity=".6" d="M109 185l-9-59-9 57z"/><circle r="1" fill="#232829" fill-opacity=".9" transform="matrix(7.48255 -33.6383 23.46956 5.2206 9.2 231.4)"/><path fill="#1d0703" fill-opacity=".5" d="M47 31h43v6H47z"/><path fill="#3d4200" fill-opacity=".4" d="M142.6 155.1l5.3-9.6H185l-45.6-10.7z"/><path fill="#002908" fill-opacity=".4" d="M134 157.8l41.4 17.5-5.4 13-41.4-17.6z"/><path fill="#eec8b8" fill-opacity=".4" d="M44.7 17.2l-12 25.5 34.8 18.4-11.2 1.6z"/><circle cx="148" cy="241" r="29" fill="#372f23" fill-opacity=".5"/><path fill="#cdccc7" fill-opacity=".4" d="M82 218h34v38H82z"/><path fill="#ffdfc1" fill-opacity=".5" d="M79 105l16-11-23 47z"/><path fill="#a7b8a7" fill-opacity=".5" d="M147 206.3l9.4-23.2 6.5 2.6-9.3 23.2z"/><path fill="#2e411a" fill-opacity=".5" d="M141.5 194.2l32.4-63.8-22.6 67.4 33.7 15.8z"/><path fill="#2b2724" fill-opacity=".5" d="M53.4-1.9l31.3 74.4 7.7-6.3 13.1-23.1z"/><path fill="#1c2527" fill-opacity=".8" d="M167.7 133.4l-12.6-15.6L138.4-14 185-.1z"/><ellipse cx="138" cy="76" fill="#1b0400" fill-opacity=".5" rx="10" ry="51"/><path fill="#cd8163" fill-opacity=".2" d="M122.5 52.8l2.6 38.8 8.3-56-23.5-10.8z"/><ellipse cx="93" cy="145" fill="#8f482f" fill-opacity=".5" rx="6" ry="40"/><path fill="#b7886b" fill-opacity=".9" d="M89.2 104.1l21.3-33.6 6.9 15.9 3.1 13.5z"/><path fill="#574b43" fill-opacity=".4" d="M44.8 58.2l20.7-15.7-24.9 36L32.4-16z"/><path fill="#050301" fill-opacity=".7" d="M64.5 115.3l26.9-19.5 13.4-24.5-28.2-3z"/><path fill="#b38e85" fill-opacity=".6" d="M67.2 208.4l51.2 19.4-49.7-30.5 34.4-13.7z"/><path fill="#d6d0c8" fill-opacity=".5" d="M133 132l-6 38-21-65z"/><path fill="#bc7f6e" fill-opacity=".5" d="M143 211l29-5-64-16z"/><path fill="#384253" fill-opacity=".5" d="M-16 95l16 68 15-80z"/><circle r="1" fill="#06080a" fill-opacity=".6" transform="matrix(10.21017 -5.47465 41.10697 76.66417 43.2 193.4)"/><path fill="#8e7c6d" fill-opacity=".9" d="M137.6 196.3l3-15.2-19.5-1.3-17.6 8.9z"/><path fill="#72311a" fill-opacity=".3" d="M115.4 103l-1.1-41.3 1.7 2.5 25.3-8.5z"/><path fill="#010204" fill-opacity=".5" d="M73.7 170.4l2.2 17.9-43.6 5.3-2.2-17.9z"/><path fill="#f6cfc2" fill-opacity=".5" d="M62 34L50 56 36 42z"/><path fill="#6c6b69" fill-opacity=".6" d="M90 45l5 9 2-26z"/><path fill="#060202" fill-opacity=".5" d="M80 95.1l-11.1 70.1L54 163l11.1-70.1z"/><path fill="#233d0b" fill-opacity=".5" d="M158.1 148.2l18.5-59.4-15.3 68.4 23.7-11.9z"/><path fill="#e9d9c4" fill-opacity=".3" d="M100.6 40l15.8-15.3 9 9.3-15.8 15.3z"/><path fill="#d0cabf" fill-opacity=".8" d="M116.9 168.1l-6.5 16.2-1.4-35 18.9 2.5z"/><path fill="#fff" fill-opacity=".6" d="M167 132h3v6h-3z"/><path fill="#a0837e" fill-opacity=".5" d="M166 197h4v25h-4z"/><path fill="#191610" fill-opacity=".7" d="M68.8-16l20.3 57.3-56-57.3-1.5 39.6z"/><path fill="#d4eeda" fill-opacity=".5" d="M169 168l-6 1 11-12z"/><path fill="#030000" fill-opacity=".6" d="M114 10l25 34 1-22z"/><path fill="#793f26" fill-opacity=".3" d="M115.1 120l-8.9 8.1-16.1 39.7 2.8-63.8z"/><path fill="#000c00" fill-opacity=".5" d="M169.8 185.8l4 4.6-13.6 11.8-4-4.6z"/></g></svg>