<svg xmlns="http://www.w3.org/2000/svg" viewBox="0 0 300 199"><defs/><path fill="#4a4339" d="M0 0h300v199H0z"/><g transform="translate(.6 .6) scale(1.17188)"><circle r="1" fill="#edd1ba" fill-opacity=".5" transform="rotate(51.1 -138.3 81.2) scale(75.92707 58.57104)"/><circle cx="184" cy="117" r="67" fill="#9fb5c4" fill-opacity=".4"/><circle r="1" fill="#050b17" fill-opacity=".8" transform="matrix(79.672 -3.64757 2.065 45.10472 79.8 17.3)"/><path fill="#f7c7bd" fill-opacity=".7" d="M131.5 76.5l-31.3 20.6-17.9-23.9 44.1-13.4z"/><path fill="#020b08" fill-opacity=".7" d="M231 89l40-35-127-70z"/><path fill="#00000b" fill-opacity=".6" d="M81 97h37v73H81z"/><circle r="1" fill-opacity=".6" transform="rotate(-114.2 103.6 -2.7) scale(43.89367 9.10853)"/><ellipse cx="186" cy="74" fill="#c0d0c4" fill-opacity=".6" rx="18" ry="28"/><path fill-opacity=".6" d="M143.4 129.6l78.9-49.3 6.3 10.1-78.9 49.3z"/><circle r="1" fill="#f5d3b5" fill-opacity=".4" transform="matrix(-27.32416 -11.37811 4.0736 -9.78261 144.8 156.3)"/><path fill="#ebedef" fill-opacity=".6" d="M230.2 23.7h5l27.9 15.5-2.6 12.4z"/><circle r="1" fill="#78838f" fill-opacity=".9" transform="matrix(-67.428 43.4028 -9.32823 -14.49178 228.2 112.6)"/><circle r="1" fill="#091447" fill-opacity=".5" transform="matrix(-27.08296 -32.52896 17.16579 -14.2919 65 92)"/><path fill="#fffbf0" fill-opacity=".5" d="M118 91l36 36-34-12z"/><path fill="#445956" fill-opacity=".5" d="M111.9 57.9L96.5 15l53.1-4.5 32.3 70.7z"/><path fill="#a2907e" fill-opacity=".8" d="M-16 58.6L93 161.2l-64.5-71-4.6-39.1z"/><circle r="1" fill="#10130e" fill-opacity=".8" transform="matrix(-8.71927 15.72998 -72.94895 -40.43626 174.1 10.4)"/><circle r="1" fill="#00000b" fill-opacity=".8" transform="rotate(122.2 25.1 35.4) scale(24.50252 48.6139)"/><path fill="#f5fff0" fill-opacity=".6" d="M172.8 106.8L165 87.3l10.2-4.1 7.8 19.5z"/><path fill="#ffe" fill-opacity=".5" d="M90 66h18v20H90z"/><path fill="#d2ffb1" fill-opacity=".3" d="M154.5 30.8l-19.1-23 22.7 39.9 15.5-11.8z"/><circle r="1" fill="#894c44" fill-opacity=".6" transform="rotate(-7.2 745.3 -950) scale(20.25971 10.29321)"/><path fill="#fef9e6" fill-opacity=".3" d="M61.7 91.5L45.6 84l1.2 14.8 17.5 27.1z"/><circle r="1" fill="#00000e" fill-opacity=".6" transform="matrix(-26.8327 -8.82214 5.62855 -17.11934 88.7 110.2)"/><path fill="#c2bef8" fill-opacity=".4" d="M104.6 23.5l-3.5 1.8L83.4-9.5l3.5-1.8z"/><path fill="#e4e1ff" fill-opacity=".3" d="M20.7 38.9l-2-33.5-.2 49.3 10.2 39.4z"/><path fill="#eef6fc" fill-opacity=".6" d="M115.7 54.2l4.5-2 6.1 13.6-4.5 2z"/><path fill="#0b0e11" fill-opacity=".9" d="M100.1 12.3L94-16h14.9l23.7 85.8z"/><path fill="#be9873" fill-opacity=".5" d="M115.3 133.7l28.5-5 5 27.6-28.6 5z"/><path fill="#0b0000" fill-opacity=".5" d="M159 132l-44-14 32 21z"/><path fill="#15180e" fill-opacity=".6" d="M127.7 62.5l58.6 60.2-40.3-20.1L156 63z"/><ellipse cx="135" cy="106" fill="#585854" fill-opacity=".7" rx="5" ry="12"/><path fill-opacity=".6" d="M153 170l-59-18 32 20z"/><circle r="1" fill="#86a09b" fill-opacity=".5" transform="rotate(71.8 52.9 174) scale(25.83699 11.79398)"/><path fill="#39406e" fill-opacity=".8" d="M88.8 66.1L73 61.4l-9.3 7.8 17.7 35z"/><path fill="#02010b" fill-opacity=".5" d="M120.7 64.4l-1.4 5.6-65.4-24.8 20.5-59.6z"/><path fill="#d6d0cb" fill-opacity=".4" d="M136.2 103.2l13.7 28.2 5.1-5.9-13.5-29.8z"/><path fill="#f7fef8" fill-opacity=".6" d="M149 145l6 28 21 12z"/><circle r="1" fill="#4f5462" fill-opacity=".6" transform="rotate(-57.3 255.6 -133.8) scale(51.78424 11.20467)"/><path fill="#eaebe4" fill-opacity=".6" d="M29.3 76.6l8.6 6-1 8.6L22.2 75z"/><path fill="#404b84" fill-opacity=".5" d="M28 4l-8 27L7-16z"/><path fill="#a89584" fill-opacity=".7" d="M33 168.3l51.5-12.5-12-33.7-69.3-21.6z"/><circle r="1" fill="#101719" fill-opacity=".5" transform="rotate(59.6 10.6 227.2) scale(5.30513 67.75713)"/><path fill="#747665" fill-opacity=".5" d="M271 36L178-8l52-4z"/><path fill="#fff0e3" fill-opacity=".4" d="M121 62.9l4-.5 6 56.7-4 .5z"/><path fill="#2b2500" fill-opacity=".6" d="M0 3h17v51H0z"/><path fill-opacity=".6" d="M261 155.5l-1.1 11-19-2 1.2-11z"/><path fill="#83909f" fill-opacity=".6" d="M150 141l23 44 14-68z"/><path fill="#d9c9b8" fill-opacity=".5" d="M102 160h4v10h-4z"/><path fill="#435151" fill-opacity=".7" d="M171.9 111.5l19.9-15.4L227.6 78l21.3-3z"/><path fill="#8aadac" fill-opacity=".3" d="M123.8 10.3l-5.8 8.1 7.4 16.4 5-18.5z"/><circle r="1" fill="#acad4d" fill-opacity=".3" transform="matrix(-3.14237 7.73611 -6.78167 -2.75468 145.8 19)"/><path fill="#e5f8bd" fill-opacity=".4" d="M158 38l-13 11 15-26z"/><path fill="#100f1b" fill-opacity=".5" d="M41 98.5L36 80l69 17.2-50.6-24.9z"/><path fill="#b38175" d="M129.7 73.9l-14.4-6.2-4.3 12 15 11z"/><path fill="#4d4939" fill-opacity=".6" d="M247.3 52.2l-23.2-9.6.6 6.1 26 18.3z"/><path fill="#ac947b" fill-opacity=".5" d="M120 130h22v32h-22z"/><path fill="#020b0a" fill-opacity=".6" d="M188.2-2.7L143 36.6l15.7-33.3 9.3 29.1z"/><path fill="#151215" fill-opacity=".7" d="M117.6 117.9l-54.8-2 101 15.1-2.6.9z"/><path fill="#000010" fill-opacity=".5" d="M86 98h31v63H86z"/><path fill="#fdfcf8" fill-opacity=".3" d="M256.1 39.8L271 73.9l-28.5-40.7L221 13.4z"/><path fill="#222a50" fill-opacity=".7" d="M27.4 72.3L7.3-8.5 39.4 61l34.5 13.6z"/><ellipse cx="194" cy="81" fill="#babdb8" fill-opacity=".4" rx="19" ry="10"/><path fill="#1b2e80" fill-opacity=".4" d="M76.1 122.5l5.8 52.6-4.8-12.9 16.4-16.1z"/><path fill="#32170b" fill-opacity=".2" d="M162.5 64.2l20.3 11.6-55.6 16.4-43.9 17.3z"/></g></svg>