<svg xmlns="http://www.w3.org/2000/svg" viewBox="0 0 300 199"><defs/><path fill="#434443" d="M0 0h300v199H0z"/><g transform="translate(.6 .6) scale(1.17188)"><circle cx="178" cy="18" r="181" fill="#fffeff" fill-opacity=".4"/><circle r="1" fill="#010101" fill-opacity=".7" transform="matrix(10.32578 67.47927 -23.72167 3.62993 136.5 83.4)"/><circle r="1" fill="#fcfcfc" fill-opacity=".6" transform="matrix(-44.84909 -63.45622 43.61164 -30.82349 222 33.3)"/><circle r="1" fill="#fff" fill-opacity=".5" transform="matrix(-5.55435 -120.12211 26.63887 -1.23176 85.2 126.6)"/><circle r="1" fill="#101010" fill-opacity=".6" transform="matrix(-97.92457 -8.84986 1.67775 -18.5645 187.8 116.7)"/><circle r="1" fill-opacity=".6" transform="matrix(-17.72637 50.9032 -24.50432 -8.5333 30.6 129.5)"/><path fill="#060606" fill-opacity=".6" d="M179 135l-64-31 5 44z"/><circle cx="21" cy="64" r="34" fill="#707070"/><path fill-opacity=".5" d="M148 13h10v60h-10z"/><circle r="1" fill="#ddd" fill-opacity=".4" transform="rotate(163.8 45.5 42.1) scale(16.74426 40.52706)"/><path fill="#f3f3f3" fill-opacity=".5" d="M31.6 77.3l-9 21.1-32.2-13.7 9-21.1z"/><path fill="#f9f9f9" fill-opacity=".4" d="M145.8 58.6L163 89.9 140 11l-4.6-.2z"/><path fill="#ededed" fill-opacity=".8" d="M-16-6.3l27.2 40.9L17.6-6-16-16z"/><path fill="#f7f7f7" fill-opacity=".6" d="M110 19l54-35-60 8z"/><ellipse cx="92" cy="3" fill-opacity=".6" rx="12" ry="11"/><path fill="#dadada" fill-opacity=".6" d="M58 114h58v51H58z"/><path fill-opacity=".4" d="M37 22l-21-3 4-35z"/><ellipse cx="12" cy="51" fill-opacity=".5" rx="6" ry="15"/><path fill="#0e0e0e" fill-opacity=".8" d="M157.8 40.5l3.2 22.9-45.8 68.4L156.8 43z"/><path fill-opacity=".7" d="M29.3 101.4L25.5 115l-28.8-8.3L.5 93z"/><ellipse cx="180" cy="6" fill="#d8d8d8" fill-opacity=".7" rx="31" ry="20"/><path fill="#c6c6c6" fill-opacity=".6" d="M213 53l-59 34 10-36z"/><circle r="1" fill="#868686" fill-opacity=".7" transform="matrix(-4.08845 -22.4973 53.8566 -9.7874 157 164)"/><ellipse cy="144" fill="#101010" fill-opacity=".7" rx="57" ry="27"/><path fill-opacity=".5" d="M166.2 98.1l-4.3-2.5 11.9-19.7 4.3 2.5z"/><path fill="#828282" fill-opacity=".5" d="M91 95h25v28H91z"/><ellipse cx="73" cy="106" fill="#f2f2f2" fill-opacity=".5" rx="15" ry="28"/><path fill="#a6a6a6" fill-opacity=".6" d="M11-16h60l47 73z"/><circle r="1" fill="#3e3e3e" fill-opacity=".5" transform="matrix(-16.86192 -29.15178 9.71009 -5.6165 41.8 68.2)"/><path fill="#0c0c0c" fill-opacity=".5" d="M136 49l-17 107 53-37z"/><path fill="#d6d6d6" fill-opacity=".5" d="M130 71l-9-17 9 5z"/><path fill="#fff" fill-opacity=".6" d="M149.8 57.7l-2 .2-5.6-39.6 2-.2z"/><path fill="#b7b7b7" fill-opacity=".8" d="M271 113.5l-48-10.1-40.1-22L271 99.6z"/><path fill="#030303" fill-opacity=".5" d="M118 67l15-56-17 7z"/><path fill="#262626" fill-opacity=".9" d="M197.7 96.7l-16-.6-8 10.3 85.6 7.1z"/><path fill="#515151" fill-opacity=".6" d="M166 33.3l10 8.7-6 6.8-9.8-8.6z"/><path fill="#bdbdbd" fill-opacity=".5" d="M27 100h6v23h-6z"/><path fill="#ececec" fill-opacity=".6" d="M50.7 36l48.6 9.9 9.2-7.7-54.9-9.6z"/><path fill-opacity=".4" d="M56.5 28.3l-7-22.6-6.3 16.5.4 4.3z"/><path fill="#121212" d="M120.3 154.7l47.1-49.5-53.5-39.3 8.4 20.8z"/><path fill="#dcdcdc" fill-opacity=".6" d="M17 58h9v14h-9z"/><path fill="#262626" fill-opacity=".5" d="M34 95h23v75H34z"/><path fill="#989898" fill-opacity=".7" d="M164 87.9L203.9 99 191 60.4l-17.9 49z"/><path fill="#111" fill-opacity=".5" d="M125.3 132.4l-18.5-60.2 2-.6 18.4 60.2z"/><path fill="#bbb" fill-opacity=".5" d="M14 49l-3-32 14 3z"/><path fill="#a6a6a6" fill-opacity=".6" d="M115 87L91 36l25 17z"/><path fill="#acacac" fill-opacity=".5" d="M78.5 74.4l-23 1.2-2-38 23-1.2z"/><path fill="#ddd" fill-opacity=".4" d="M52.1 163.5l58.3-63.3-46 84.8 2.6-3.1z"/><path fill="#676767" fill-opacity=".5" d="M84.4 3.7l4.4 27.9 19 3.4 7.8-5.2z"/><path fill="#080808" fill-opacity=".4" d="M145.1 48.4l-53.8 3 15.3-7.2 34.1-11.1z"/><path fill="#e2e2e2" fill-opacity=".6" d="M107-2l24 10-30 13z"/><path fill-opacity=".5" d="M150 16h7v41h-7z"/><path fill="#b7b6b7" fill-opacity=".5" d="M8.9 109.4l-2.4 10.1-22.5-11.1 25.2 1.3z"/><path fill="#ececec" fill-opacity=".6" d="M112.5 98.6l-19.1-2.9-17.1-34.2.6-36.7z"/><path fill="#d8d8d8" fill-opacity=".5" d="M157 13h74v22h-74z"/><path fill="#d6d6d6" fill-opacity=".7" d="M143.5 63.8l3.1-40.3-9.5-7 9.8 35.5z"/><path fill="#b0b0b0" fill-opacity=".4" d="M167 136h53v17h-53z"/><path fill="#f4f4f4" fill-opacity=".5" d="M29 3l15 10-2-24z"/><path fill="#070707" fill-opacity=".1" d="M108.6 110.5l-46.9-63 19.5 40.6-1 2.3z"/><path fill="#adadad" fill-opacity=".5" d="M45 87l-7 12-7-1z"/><path fill-opacity=".5" d="M34.6-16l-9 25.4-11.4 4.9 10.6-27.8z"/><path fill-opacity=".7" d="M22.7 163.3l-39.7-4.9 4.3-35.7 39.7 4.9z"/><path fill="#4b4b4b" fill-opacity=".7" d="M46.9 37.5l-3.3 48.9-19.8-16.5 32.3-4.8z"/><circle r="1" fill="#333" fill-opacity=".5" transform="rotate(-179 85.2 62.3) scale(23.54924 12.7747)"/><path fill="#393939" fill-opacity=".2" d="M229.8 161.7l14.7-40.4 35.7 13-14.7 40.4z"/></g></svg>