<svg xmlns="http://www.w3.org/2000/svg" viewBox="0 0 300 199"><defs/><path fill="#403e25" d="M0 0h300v199H0z"/><g transform="translate(.6 .6) scale(1.17188)"><path fill="#0e0d02" fill-opacity=".8" d="M4 185l267-11-287-94z"/><circle r="1" fill="#c59f8d" fill-opacity=".5" transform="matrix(-38.97704 25.04137 -10.00482 -15.57256 162 71)"/><ellipse cx="221" cy="16" fill="#070003" fill-opacity=".6" rx="255" ry="26"/><circle r="1" fill="#afa7b3" fill-opacity=".5" transform="matrix(-15.79447 23.3689 -16.27052 -10.99685 52 60)"/><circle cx="234" cy="124" r="49" fill="#281207" fill-opacity=".8"/><path fill="#fce1e6" fill-opacity=".6" d="M92.1 67.5l-4 28.9 28.6-26.3-12.3 7.7z"/><path fill-opacity=".4" d="M53 62.8l-1 29-73-2.6 1-29z"/><path fill="#feaea6" fill-opacity=".3" d="M202.5 125.8l-24.8-15-6.6-2.6-67.4 37.8z"/><circle r="1" fill="#a69892" fill-opacity=".3" transform="matrix(9.73003 -1.97186 13.13759 64.8265 62.6 44)"/><ellipse cx="82" cy="114" fill="#ffe778" fill-opacity=".2" rx="23" ry="17"/><path fill="#e6ae85" fill-opacity=".4" d="M226 121h30v8h-30z"/><path fill-opacity=".6" d="M85 66l19-14L54-4z"/><circle cx="152" cy="75" r="9" fill="#fce7ea" fill-opacity=".5"/><path fill="#210706" fill-opacity=".6" d="M111 138l-13-38 89-4z"/><ellipse cx="174" cy="92" fill="#957260" fill-opacity=".9" rx="28" ry="4"/><path fill="#321e16" fill-opacity=".6" d="M180 58l91 21-93 8z"/><path fill="#a49b51" fill-opacity=".4" d="M123 44h102v14H123z"/><path fill="#453b33" fill-opacity=".8" d="M81.8 22.8l19.5-11.4 13.8 17.5-27.4 13.5z"/><circle r="1" fill="#000400" fill-opacity=".6" transform="rotate(80 -68.4 77.3) scale(79.23434 21.22064)"/><path fill="#3f2b16" fill-opacity=".8" d="M140.9 78.3l3.3-9.4-18.6-3.6 28.1 48.3z"/><path fill="#160000" fill-opacity=".5" d="M162 21h4v88h-4z"/><path fill-opacity=".5" d="M48 58h12v9H48z"/><path fill="#eaeacb" fill-opacity=".4" d="M87 87l13-28 8 23z"/><path fill="#e4af88" fill-opacity=".5" d="M54 100h36v7H54z"/><path fill="#765c4d" fill-opacity=".5" d="M115 96h8v54h-8z"/><circle r="1" fill-opacity=".5" transform="matrix(63.59455 37.01291 -3.45184 5.93085 233.7 138.4)"/><ellipse cx="7" cy="49" fill="#898a9e" fill-opacity=".5" rx="19" ry="5"/><path fill="#c5cacf" fill-opacity=".5" d="M35 51l34-1-42 13z"/><path fill="#080604" fill-opacity=".6" d="M125 136h64v34h-64z"/><path fill="#fefaec" fill-opacity=".6" d="M60 51l13 15H62z"/><path fill="#200000" fill-opacity=".5" d="M60 95l61 5-40-15z"/><path fill="#9d928e" fill-opacity=".6" d="M186.6 125.7l7.2-4.5-28.3-15.2 4.6 18.3z"/><circle r="1" fill="#0f0600" fill-opacity=".6" transform="rotate(175.1 102.1 15.5) scale(94.45057 19.26704)"/><path fill="#0d0d09" fill-opacity=".9" d="M-16 22l69 19-17-57z"/><path fill="#0b1202" fill-opacity=".7" d="M95.2 99.1l-49.6 50.2L-16 117l101.1 13.2z"/><ellipse cx="149" cy="95" fill="#e3b99d" fill-opacity=".4" rx="29" ry="3"/><path fill="#533c2a" d="M180 76.7l28.9-34.8 9.3 25.3-12.2 8.5z"/><path fill-opacity=".4" d="M119 103h19v26h-19z"/><path fill="#1f0d00" fill-opacity=".4" d="M68.6 81.3l-1.4-22.5 8 16L86.8 92z"/><path fill="#794e2b" fill-opacity=".7" d="M262.5 92l-17-1.1 2-27 17 1.2z"/><path fill="#a7a18e" fill-opacity=".5" d="M194 44l-29 46 7-44z"/><path fill="#10150a" fill-opacity=".7" d="M14.9-11.4l-2.1 85 6-13.5L-16 19.9z"/><path fill="#8f8ea2" fill-opacity=".5" d="M17.7 34l8.6 2.6-4 13.4-8.6-2.6z"/><path fill="#150c02" fill-opacity=".6" d="M111.4 94l26-2.7L102 85l21.7 100z"/><path fill="#999a9d" fill-opacity=".4" d="M32 86l-3-29 23-19z"/><ellipse cx="71" cy="86" fill="#f4d7c3" fill-opacity=".7" rx="3" ry="4"/><path fill="#9da7a5" fill-opacity=".4" d="M60 24l-1 33-12-47z"/><ellipse cx="99" cy="169" fill="#ffd93e" fill-opacity=".1" rx="10" ry="75"/><path fill="#080100" fill-opacity=".6" d="M51.1 87.6L75 74.9l1.9 3.5L53 91.1z"/><path fill="#706036" fill-opacity=".3" d="M215.6 4L181 .6l-79.9-6.5 77.6 18.6z"/><ellipse cx="233" cy="101" fill="#160200" fill-opacity=".6" rx="87" ry="7"/><path fill="#fff" fill-opacity=".4" d="M117.7 130.5l1.8-.9 4.8 9.9-1.8.9z"/><path fill="#5b2d07" fill-opacity=".6" d="M226.5 107.9l-34.1-1.6 23.1 15.6 41.4 1z"/><path fill="#050000" fill-opacity=".5" d="M214 61h15v26h-15z"/><path fill="#0e1006" fill-opacity=".6" d="M46 142.8l-19.1-72 7-38.8L1.8 89.9z"/><path fill="#77724e" fill-opacity=".7" d="M111.6 86.4L92.4 68l3.1-9.7L116 72.8z"/><path fill="#180f08" fill-opacity=".7" d="M124.8 43.4l-5.1 71.2-4.3-116.1 45.2 43.2z"/><ellipse cx="160" cy="154" fill="#929691" fill-opacity=".5" rx="3" ry="5"/><ellipse cx="125" cy="78" fill="#ff9c78" fill-opacity=".2" rx="5" ry="25"/><path fill="#af9684" fill-opacity=".7" d="M140.5 83.4l17.6-34.5 3.9 44.5L149.3 72z"/><path fill="#fdad73" fill-opacity=".4" d="M54.1 77l.8-11 13 1-.8 11z"/><path fill="#4b481a" fill-opacity=".7" d="M71.8 136l-1-48.2-10.3 28.3 30.6 32.6z"/><path fill="#2c2621" fill-opacity=".7" d="M54.6 4.4l13.7 35.7 7.5-5.1-4.6-47z"/><path fill="#9f958a" fill-opacity=".8" d="M202.6 128.2l-2 2.3-5.2-4.7 2-2.3z"/><path fill="#010000" fill-opacity=".6" d="M262.7 146.9l-35.4 6.8-4-20.6 35.4-6.8z"/></g></svg>