<svg xmlns="http://www.w3.org/2000/svg" viewBox="0 0 300 199"><defs/><path fill="#6d4435" d="M0 0h300v199H0z"/><g transform="translate(.6 .6) scale(1.17188)"><ellipse cx="126" cy="113" fill="#111236" fill-opacity=".8" rx="193" ry="169"/><circle r="1" fill="#3c78e7" fill-opacity=".5" transform="matrix(-35.31085 23.5494 -9.43567 -14.14819 77.3 121.2)"/><circle r="1" fill="#ba6b25" fill-opacity=".4" transform="matrix(30.14664 -19.63544 20.777 31.8993 65.6 43.6)"/><circle r="1" fill="#031ea3" fill-opacity=".4" transform="rotate(-177.3 49.3 83.4) scale(129.64668 24.49815)"/><circle r="1" fill="#020027" fill-opacity=".5" transform="matrix(13.58506 -32.77762 74.0611 30.69547 181.2 116.3)"/><circle r="1" fill="#05187f" fill-opacity=".5" transform="rotate(86.2 53.8 178.3) scale(27.61617 29.88036)"/><circle r="1" fill="#0b0415" fill-opacity=".6" transform="matrix(10.25486 17.4093 -87.98804 51.82892 208.2 22.2)"/><path fill="#768fd6" fill-opacity=".5" d="M60 104h53v18H60z"/><path fill="#20203c" fill-opacity=".9" d="M71 125h49v37H71z"/><circle r="1" fill="#1c0d00" fill-opacity=".7" transform="matrix(-24.695 -4.66617 18.33572 -97.03907 9 16.8)"/><path fill="#000005" fill-opacity=".5" d="M51 114l-8-63-45 89z"/><path fill="#9e5b09" fill-opacity=".4" d="M228 84l-20 1-2-41 20-1z"/><circle r="1" fill="#0054d5" fill-opacity=".9" transform="rotate(50.8 -112.4 132.5) scale(11.82471 10.4809)"/><path fill="#654d41" fill-opacity=".5" d="M174 7l-61-23 24 46z"/><circle r="1" fill="#b76a2e" fill-opacity=".5" transform="matrix(9.24101 -35.27126 5.60162 1.46762 36.8 42.9)"/><circle r="1" fill="#160c00" fill-opacity=".4" transform="matrix(-7.35514 19.15609 -48.81313 -18.7422 141.5 102.5)"/><path fill="#2d64fb" fill-opacity=".4" d="M225.4 104.4l-8.3 2 1.3 23.5-18.9-26.1z"/><path fill="#cc8643" fill-opacity=".6" d="M106 67h13v11h-13z"/><circle r="1" fill="#1647da" fill-opacity=".5" transform="rotate(89.7 -78 78.6) scale(6.80374 28.07754)"/><circle r="1" fill="#452111" fill-opacity=".5" transform="matrix(45.2272 -16.51467 8.1179 22.23175 78.6 0)"/><circle r="1" fill="#110711" fill-opacity=".6" transform="matrix(-15.99215 3.63333 -6.471 -28.48221 116 35)"/><path fill="#ffdf9f" fill-opacity=".6" d="M133.5 41h5v8h-5z"/><ellipse cx="234" cy="169" fill="#01013f" fill-opacity=".7" rx="19" ry="76"/><circle r="1" fill="#00003e" fill-opacity=".5" transform="matrix(-19.60517 21.94707 -9.79023 -8.74555 34.4 127.7)"/><ellipse cx="20" cy="71" fill="#dcac71" fill-opacity=".6" rx="6" ry="3"/><circle cx="75" cy="74" r="31" fill="#573f40" fill-opacity=".4"/><path fill="#1c91ff" fill-opacity=".5" d="M248.8 125.5l6-13.8 6.4 2.8-6 13.8z"/><circle r="1" fill="#211305" fill-opacity=".6" transform="matrix(.88548 11.35315 -28.4188 2.21651 244.2 54)"/><path fill="#2f2230" fill-opacity=".8" d="M145.8 76.9l43.9 23.9L180.2-16l-2.3 55z"/><path fill="#fcac5f" fill-opacity=".5" d="M221.1 71.4l-13.3 1.7 8.9-12.3-.2 2.6z"/><path fill="#001fb3" fill-opacity=".4" d="M46.4 161.2l-15.7 18.2 19.9-61.1 18.6 30.8z"/><path fill="#9a7461" fill-opacity=".5" d="M59.8 33.4l13 .2-.6 31-13-.2z"/><path fill="#051430" d="M61.3 157.9L85 129.5l-11.5 25.8-1.9 29.7z"/><ellipse cx="20" cy="1" fill-opacity=".5" rx="11" ry="69"/><path fill="#050311" fill-opacity=".5" d="M187 0h19v98h-19z"/><ellipse cx="107" cy="131" fill="#110b15" fill-opacity=".5" rx="37" ry="8"/><ellipse cx="228" cy="6" fill="#000020" fill-opacity=".5" rx="45" ry="30"/><path fill="#03338b" fill-opacity=".5" d="M.3 116.7l12 10.8L3 137.9l-19-56.4z"/><ellipse cx="6" cy="35" fill="#3e271e" fill-opacity=".6" rx="5" ry="84"/><path fill="#0f0a38" fill-opacity=".6" d="M63.7 124.8l-51-36.1 20.8 83.6 25.9-85.4z"/><path fill="#181017" fill-opacity=".5" d="M271 66.3l-41.7 21.2-45.5 31.3 12.4-40.7z"/><circle r="1" fill="#2c2950" fill-opacity=".5" transform="matrix(5.94351 21.69297 -31.94772 8.75314 103 159.4)"/><path fill="#6c7dba" fill-opacity=".4" d="M71 98h20v28H71z"/><circle r="1" fill="#3217ba" fill-opacity=".1" transform="rotate(92 7 164.9) scale(25.88876 37.78215)"/><circle r="1" fill-opacity=".5" transform="matrix(4.61617 .39016 -2.33266 27.59896 40.8 83.9)"/><path fill="#04000a" fill-opacity=".6" d="M135 99l68 46-11-42z"/><path fill="#ffb660" fill-opacity=".3" d="M99 40l-2 16-10-26z"/><path fill="#0482ff" fill-opacity=".4" d="M65.5 134.1l-18.2 2.8 6.1-16 17.2 1.9z"/><path fill="#6a84fb" fill-opacity=".5" d="M203 104h10v6h-10z"/><path fill="#3a2424" fill-opacity=".5" d="M97.4 52.9L42.7 87.4l77.7-15.1-.5 40.1z"/><path fill="#26399b" fill-opacity=".6" d="M231 95l-3-24 10 20z"/><path fill="#2e2012" fill-opacity=".6" d="M1 115l25-14-1-32z"/><ellipse cx="209" cy="48" fill="#d8a46b" fill-opacity=".5" rx="4" ry="3"/><circle r="1" fill="#cb8346" fill-opacity=".4" transform="matrix(-5.41977 -4.9128 7.94126 -8.76076 38.8 41.2)"/><path fill="#496fc1" fill-opacity=".5" d="M64 108h50v15H64z"/><path fill="#070514" fill-opacity=".7" d="M7.1 148.8l16.3 2-11.6-59.5 7 1.6z"/><ellipse cx="52" cy="88" fill="#b5cdff" fill-opacity=".2" rx="8" ry="3"/><circle r="1" fill="#2033a5" fill-opacity=".4" transform="matrix(2.88314 .67303 -2.2095 9.46515 173 90.5)"/><path fill="#ffa64a" fill-opacity=".2" d="M27.5 79.3l3.5-3.6-15.5-9.8-.7 11.3z"/><circle cx="116" cy="71" r="4" fill="#ebb265" fill-opacity=".5"/><path fill="#382617" fill-opacity=".8" d="M244 58.9l5.4 32 21.6 41.4-8.4-77.8z"/><path fill="#48383c" fill-opacity=".7" d="M133.2 39.8l-5.2-6-.3-17.4L176.2-16z"/><path fill="#0f0713" fill-opacity=".6" d="M92.4-16l29.5 69.3 19.9-6.8-34.9 24.6z"/><path fill="#7f6d88" fill-opacity=".5" d="M85.9 95.2l-12.4 12.9 32.8-12.9 6.5 6.7z"/><path fill="#000012" fill-opacity=".8" d="M252 128h4v42h-4z"/></g></svg>