<svg xmlns="http://www.w3.org/2000/svg" viewBox="0 0 300 199"><defs/><path fill="#443872" d="M0 0h300v199H0z"/><g transform="translate(.6 .6) scale(1.17188)"><circle cx="134" cy="34" r="191" fill="#6b5a13" fill-opacity=".4"/><circle r="1" fill="#e3dfc7" fill-opacity=".4" transform="matrix(-13.37083 -19.74863 53.5453 -36.2529 95.2 35.3)"/><circle r="1" fill="#050101" fill-opacity=".7" transform="matrix(-47.5888 -6.01186 4.43408 -35.09935 216.5 150.2)"/><circle cx="68" cy="114" r="42" fill="#586faf" fill-opacity=".7"/><circle r="1" fill="#b89c79" fill-opacity=".6" transform="rotate(55.4 94 216.2) scale(18.78819 59.48604)"/><circle r="1" fill="#370e00" fill-opacity=".6" transform="matrix(-27.52002 -9.83811 70.98842 -198.57495 11.9 51.5)"/><circle r="1" fill="#120b2d" fill-opacity=".7" transform="matrix(17.40321 6.98342 -41.14116 102.52682 117.1 150)"/><circle r="1" fill="#d3cec3" fill-opacity=".6" transform="matrix(-8.85644 1.36703 -5.65947 -36.66543 76.6 60.7)"/><ellipse cx="250" cy="76" fill="#280f00" fill-opacity=".7" rx="9" ry="65"/><path fill="#2e2f4c" d="M87.5 185l-44.2-67.5L26 103.8 50 185z"/><path fill="#cfccc2" fill-opacity=".5" d="M160 15l43-31L86 12z"/><path fill="#8587af" fill-opacity=".7" d="M237.6 113.6l-.3-26.4-37.1-3.2-13.9 11.2z"/><circle r="1" fill="#2a71c8" fill-opacity=".6" transform="matrix(8.74134 10.2348 -34.74835 29.6779 85.5 130.5)"/><path fill="#4f2c0b" fill-opacity=".6" d="M170.7 56.7l-44 1.6-1.4-43 44-1.6z"/><path fill="#b9b1cf" fill-opacity=".5" d="M117 94L4 97l48 19z"/><path fill="#260b08" fill-opacity=".5" d="M9 45l69 51-19-38z"/><circle r="1" fill="#e8bc8c" fill-opacity=".5" transform="matrix(2.01075 -17.64816 11.17913 1.2737 161.3 132.7)"/><circle r="1" fill="#503519" fill-opacity=".6" transform="rotate(87.1 12.8 80) scale(43.29398 6.00568)"/><path fill="#7b3100" fill-opacity=".5" d="M167 3h34v21h-34z"/><circle r="1" fill="#1b070d" fill-opacity=".7" transform="matrix(-22.63642 3.4676 -18.44371 -120.4005 0 169)"/><path fill="#c6c8cb" fill-opacity=".5" d="M85 14l-4 62-39-33z"/><circle r="1" fill="#763a10" fill-opacity=".7" transform="matrix(7.0212 -.3529 1.77766 35.3676 234.4 20.2)"/><path fill="#412f2d" d="M195.6 34.6l9.3-1 66.1 84.7-80.9-75.8z"/><path fill="#d0d3d3" fill-opacity=".4" d="M172 26h20v29h-20z"/><path fill-opacity=".6" d="M189 169l34-30-46-42z"/><path fill="#b3ada4" fill-opacity=".5" d="M229 59l-44-73 38-2z"/><circle r="1" fill="#00000b" fill-opacity=".7" transform="matrix(-7.67453 -16.18769 10.66165 -5.05465 105.2 155.3)"/><path fill="#a194bd" fill-opacity=".3" d="M203.3 126.8l-1.4-9.5L237 89.7l-13.1 37.6z"/><path fill="#ffffd1" fill-opacity=".6" d="M243 0h13v11h-13z"/><ellipse cx="67" fill="#0f0500" fill-opacity=".7" rx="53" ry="4"/><path fill="#322" d="M107.9 91.3l41.7-56.2L171 87.3l-53.7 12.3z"/><ellipse cx="28" cy="131" fill="#a77773" fill-opacity=".6" rx="12" ry="17"/><path fill="#d4d0ee" fill-opacity=".5" d="M200.7 56.2l-6.6 23-4.8-1.4 6.6-23z"/><ellipse cx="141" cy="156" fill="#12080c" fill-opacity=".7" rx="23" ry="5"/><path fill="#867d7e" fill-opacity=".6" d="M123 108l-21-29-15 39z"/><path fill="#b3a4fd" fill-opacity=".3" d="M15.5 79.5L30 62.4l-6.2 41 43.6 19.3z"/><path fill="#3167ad" fill-opacity=".4" d="M112.4 101.1l13.4 17.3 55.7-17.5-28.4-6.9z"/><path fill="#cdb5f1" fill-opacity=".4" d="M162 61l10 1 5 32z"/><path fill-opacity=".5" d="M178 56h12v26h-12z"/><path fill="#3337ad" fill-opacity=".5" d="M55 70l33 115 8-47z"/><path fill="#00b0ee" fill-opacity=".8" d="M80.1 153.8L65.4 151l2.5-12.7 14.7 2.9z"/><path fill="#b2aeac" fill-opacity=".9" d="M85.7 83.4l-3-64.8L70 25.5l-8.7 50.9z"/><path fill="#8180bc" fill-opacity=".5" d="M169.5 149.5l5.4-4.5 9.6 11.5-5.4 4.5z"/><path fill="#a78d57" fill-opacity=".7" d="M224.7 145.1l-4.4 4.2 11 2.7 7.7-5.1z"/><circle r="1" fill="#050000" fill-opacity=".6" transform="matrix(5.26965 1.95977 -3.14967 8.4692 68.3 89.4)"/><path fill="#040005" fill-opacity=".4" d="M30 31h14v59H30z"/><path fill="#8b481b" fill-opacity=".5" d="M0 15h10v69H0z"/><path fill="#17101a" fill-opacity=".6" d="M215.7 108.3l22-45.9-37.3 62.3-29.6-19.5z"/><path fill="#02040f" fill-opacity=".7" d="M63 162.3l15.1-5.4 6.8 18.8-15 5.4z"/><path fill-opacity=".6" d="M201 58h6v23h-6z"/><path fill="#824921" fill-opacity=".5" d="M51 36L34 12 95 1z"/><path fill="#624d32" fill-opacity=".6" d="M158.3 14l-42.4 9.5-16.3 5.9-13.4-11.3z"/><path fill="#6735d7" fill-opacity=".4" d="M110 148l-19-31 28 22z"/><path fill="#58422d" fill-opacity=".5" d="M88.1 13.6l6.1 22.5 63.1 40.4-71.9 14.9z"/><path fill="#73576e" d="M217.7 97.5l-29.4-21.7-10.5 17.9 48.5-25z"/><ellipse cx="146" cy="164" fill="#8d7369" fill-opacity=".6" rx="25" ry="4"/><path fill="#110025" fill-opacity=".6" d="M143.5 155.3l1.4 29.7-33.9-55.4 12.5-23.2z"/><path fill="#0c0d10" fill-opacity=".7" d="M247 97.9l-9 29.6-46.3 57.5 7.8-39.9z"/><path fill="#0f0002" fill-opacity=".6" d="M40.7 111.9l-1 4.9L5.3 110l1-4.9z"/><path fill="#c29cd3" fill-opacity=".3" d="M57.1 61.2l-1.4 16.2-15.9 35.9L34 95z"/><path fill="#000013" fill-opacity=".2" d="M81 113l-40 72-12-33z"/><circle r="1" fill="#734314" transform="rotate(-162.6 94.7 -8.5) scale(13.37148 11.26149)"/><ellipse cx="165" cy="86" fill="#000003" fill-opacity=".9" rx="6" ry="9"/><path fill="#4c1d02" fill-opacity=".6" d="M4 0h28v69H4z"/><path fill-opacity=".5" d="M57 92l-4-7-3 10z"/></g></svg>