<svg xmlns="http://www.w3.org/2000/svg" viewBox="0 0 298 450"><defs/><path fill="#342a1a" d="M0 0h298v450H0z"/><g transform="translate(.9 .9) scale(1.75781)"><circle r="1" fill="#f7e7da" fill-opacity=".7" transform="matrix(-66.64373 155.3049 -138.17276 -59.29207 87 129.3)"/><ellipse cx="156" cy="119" fill="#f1f6f8" fill-opacity=".8" rx="36" ry="145"/><ellipse cx="93" cy="157" fill="#2b0800" fill-opacity=".7" rx="13" ry="22"/><path fill="#6e6644" fill-opacity=".6" d="M0 233h132v23H0z"/><ellipse cx="15" cy="69" fill="#a78e78" fill-opacity=".8" rx="26" ry="241"/><ellipse cx="53" cy="14" fill="#99714c" fill-opacity=".5" rx="69" ry="29"/><ellipse cx="117" cy="248" fill="#623800" fill-opacity=".5" rx="9" ry="54"/><circle r="1" fill="#495000" fill-opacity=".6" transform="matrix(-.06944 -13.26225 20.9404 -.10964 121.3 255)"/><path fill="#ded2d5" fill-opacity=".4" d="M100 236l-33 6 23-86z"/><ellipse cx="37" cy="129" fill="#c3ae9a" fill-opacity=".7" rx="23" ry="82"/><path fill="#424158" fill-opacity=".5" d="M-10.7 198.7l25.8-3.2 3.6 29.8-25.8 3.2z"/><path fill="#9e614b" fill-opacity=".6" d="M74.9 165.8l26.8 26.6 16.2-2.9-31.7-32.6z"/><path fill="#050e17" fill-opacity=".6" d="M40 251h35v5H40z"/><circle r="1" fill="#cdd0cf" fill-opacity=".5" transform="rotate(4.8 -426.1 1615) scale(11.77029 103.73376)"/><circle cx="47" cy="218" r="32" fill="#a6968b" fill-opacity=".5"/><path fill="#e4e8e7" fill-opacity=".5" d="M124 180h13v62h-13z"/><path fill="#f6f7f7" fill-opacity=".4" d="M185 94l-80 81 80 93z"/><path fill="#010000" fill-opacity=".6" d="M105.4 144l-5.8 16-17-6 5.8-16z"/><path fill="#9f8d6a" fill-opacity=".6" d="M103.7 247.4L93.2 213l21-6.4 10.6 34.4z"/><path fill="#764117" fill-opacity=".5" d="M7.7 27.3l4.6 18.6 8.5-20.3L1.9 9.1z"/><circle r="1" fill="#986b44" fill-opacity=".5" transform="matrix(23.67695 -2.257 .56009 5.8756 85.4 11.3)"/><path fill="#ced7dc" fill-opacity=".5" d="M75.6 209.3L82 235l7.3 5 20.7-45.7z"/><circle r="1" fill="#c5ad95" fill-opacity=".5" transform="matrix(-14.40138 -42.17911 31.6177 -10.79536 87.5 93.5)"/><path fill="#0a1800" fill-opacity=".5" d="M105 250h21v6h-21z"/><path fill="#caa899" fill-opacity=".7" d="M86.7 170.7l-1.6-1.2-3.8 37.3 25.4-5.9z"/><ellipse cx="17" cy="10" fill="#ceedf9" fill-opacity=".1" rx="42" ry="8"/><path fill="#703100" fill-opacity=".1" d="M11.3 182.7l-7.7-38.5L1.4 23l-14.6 248z"/><path fill="#a66d5b" fill-opacity=".5" d="M65 207l15 15-12-31z"/><path fill="#d7dbda" fill-opacity=".5" d="M101.5 161.7l3.4 7.6 28.4 41.3-5.5-37.3z"/><path fill="#d5dadc" fill-opacity=".6" d="M173 41l-51 29-5-41z"/><path fill="#4d1c0d" fill-opacity=".3" d="M108.3 154.1l-6.1-16.1-9 28.7 7.2 27.2z"/><path fill="#8b5937" fill-opacity=".5" d="M88 12h48v3H88z"/><path fill="#c2c2bf" fill-opacity=".5" d="M82 0h5v28h-5z"/><path fill="#e0e8ea" fill-opacity=".5" d="M76 175h5v39h-5z"/><path fill="#8b623c" fill-opacity=".6" d="M60 3.4L42.4-2.7l1.7 11-10.9-3.5z"/><path fill="#d7dbd5" fill-opacity=".5" d="M22 12l2 22-6 1z"/><path fill="#c9c0b3" fill-opacity=".6" d="M94 61l-26 2 43-44z"/><circle r="1" fill="#c5c688" fill-opacity=".5" transform="rotate(36 -346.5 270.6) scale(3.35005 15.41832)"/><path fill="#858c8b" fill-opacity=".4" d="M43 227l-45 33 87-16z"/><path fill="#c2b6a6" fill-opacity=".5" d="M5 64h27v19H5z"/><circle r="1" fill="#c7b19d" fill-opacity=".5" transform="rotate(-158.2 42.5 56.7) scale(30.13481 32.36442)"/><path fill="#817f1a" fill-opacity=".5" d="M118 243l17 26 6-24z"/><path fill="#3b3c3c" fill-opacity=".4" d="M33 250h50v6H33z"/><path fill="#aa8865" fill-opacity=".7" d="M-3 46l13 15 36 3z"/><path fill="#c8c2b3" fill-opacity=".5" d="M42 19h7v35h-7z"/><path fill="#d7dbdd" fill-opacity=".7" d="M89.2 220.4l-4.7-11 5.1 30.7-18.3-8.4z"/><path fill="#cae1ef" fill-opacity=".3" d="M9.1 7.4L9.8-16 71.1 6.6 44.1-16z"/><path fill="#936150" fill-opacity=".5" d="M109.9 212l6.9-15.3 10 23.2-11.2 17.2z"/><path fill="#87828b" fill-opacity=".6" d="M8.2 193.1l18.4 5.4 3.5 16.9-13.6 14.7z"/><path fill="#baa38c" fill-opacity=".6" d="M77 88l43-11-8-39z"/><path fill="#a18f59" fill-opacity=".4" d="M112.1 254.5l-22.4-33.2 43.9 28.5-16.4-36.4z"/><path fill="#6a4b3d" fill-opacity=".8" d="M87.6 169.3l-9.6 1.2 3.3-16.9 8.2 16.1z"/><path fill="#85552a" fill-opacity=".4" d="M109.9-.3L67 11.8 18.1-16l52 31z"/><ellipse cx="159" cy="81" fill="#fffffe" fill-opacity=".3" rx="19" ry="25"/><path fill="#b7a89d" fill-opacity=".7" d="M154.1 12.2l-49 4.1 29.7 17-15.2-23.8z"/><path fill="#d6e1e6" fill-opacity=".5" d="M61 29h4v17h-4z"/><path fill="#bbaa98" fill-opacity=".9" d="M119.9 158.9l-.2 17.9-11.4-16.5-7.3 4.9z"/><path fill="#a57c5d" fill-opacity=".5" d="M4 231h63v5H4z"/><path fill="#e8feff" fill-opacity=".3" d="M130 4.3l-18.1 10L137-16h8.1z"/><path fill="#c0ad99" fill-opacity=".8" d="M7.3 75.1l.3-39.5-4.1-9.7-.3 1.5z"/><ellipse cx="136" cy="85" fill="#babcbb" fill-opacity=".5" rx="2" ry="37"/><path fill="#56311b" fill-opacity=".3" d="M18.4 18.3l-31.6 5.1 20.7 1.9 14.3-5.5z"/><path fill="#b87659" fill-opacity=".6" d="M86 156h8v8h-8z"/><path fill="#eaeff1" fill-opacity=".6" d="M125.3 16.3l13.5 23.8L178 33l-2.2-25.5z"/><circle r="1" fill="#bfac9b" fill-opacity=".5" transform="matrix(11.434 8.80536 -19.93848 25.89064 45.4 207.4)"/></g></svg>