<svg xmlns="http://www.w3.org/2000/svg" viewBox="0 0 298 450"><defs/><path fill="#50382f" d="M0 0h298v450H0z"/><g transform="translate(.9 .9) scale(1.75781)"><circle cx="40" cy="29" r="119" fill="#79695a" fill-opacity=".7"/><circle r="1" fill="#150b07" fill-opacity=".8" transform="rotate(-78.7 191.9 57.8) scale(46.29594 167.88963)"/><ellipse cx="169" cy="152" fill="#040000" fill-opacity=".8" rx="20" ry="116"/><path fill="#6c6d70" fill-opacity=".6" d="M62.5 206.6l-1-62 66-1.2 1 62z"/><circle r="1" fill="#e1cfb2" fill-opacity=".4" transform="matrix(-35.90003 23.0474 -11.0765 -17.25341 14.1 77.5)"/><path fill="#1e1d28" fill-opacity=".7" d="M17 94h32v91H17z"/><path fill="#00031d" fill-opacity=".5" d="M121.2 145.8l-27.9 8-16.5-57.6 27.9-8z"/><circle r="1" fill="#b0acb1" fill-opacity=".5" transform="matrix(12.01776 -5.4615 13.68533 30.1139 65.4 126.7)"/><circle r="1" fill="#ac8a6f" fill-opacity=".4" transform="matrix(16.63966 36.99674 -20.22286 9.09544 131.2 86.7)"/><circle r="1" fill="#0c0100" fill-opacity=".8" transform="rotate(-89.9 165 13) scale(35.89124 19.53584)"/><circle r="1" fill="#521f00" fill-opacity=".5" transform="matrix(13.14807 .3443 -2.4671 94.21455 80 16.6)"/><path fill="#7c8a9c" fill-opacity=".5" d="M5.2 122.7l25 1.7-3.4 47-25-1.8z"/><path fill-opacity=".6" d="M0 74h42v5H0z"/><ellipse cx="35" cy="5" fill="#828d8a" fill-opacity=".5" rx="24" ry="36"/><circle cx="132" cy="14" r="41" fill="#6a4d3c"/><ellipse cx="95" cy="61" fill="#f7f9ea" fill-opacity=".5" rx="3" ry="26"/><path fill="#060000" fill-opacity=".5" d="M8 99h25v21H8z"/><circle r="1" fill="#261b0a" fill-opacity=".6" transform="matrix(-6.96343 -23.7544 10.51015 -3.08097 3.1 22.9)"/><path fill="#fefaed" fill-opacity=".3" d="M25.3 84.5L-.1 76.6l-15.9 77 20.5-40.2z"/><path fill="#1f1105" fill-opacity=".7" d="M-16 42.7l21.5-1.9 33.7 1 46.1 11.6z"/><path fill="#af987a" fill-opacity=".7" d="M56.1 51.1l-2.7 26-77.5-8.2 2.7-26z"/><ellipse cx="46" cy="179" fill="#000414" fill-opacity=".4" rx="14" ry="58"/><circle r="1" fill="#958071" fill-opacity=".5" transform="matrix(23.71898 25.7651 -11.9835 11.03183 155.3 4.7)"/><path fill="#483a31" d="M81 160.2l66-11.7-74.5 24.9-9.4-22.5z"/><path fill="#9fa2b2" fill-opacity=".6" d="M96 153l-35-46 14 46z"/><path fill="#a98a91" fill-opacity=".4" d="M73 128l28-65-25 29z"/><path fill="#4e433d" fill-opacity=".5" d="M185 125l-77 42-4-48z"/><path fill="#1a1d2b" fill-opacity=".8" d="M92.3 94.6l39.3 32.9-21-30.6-19.1 57.8z"/><ellipse cx="155" cy="98" fill="#190d06" fill-opacity=".7" rx="5" ry="42"/><circle r="1" fill-opacity=".4" transform="rotate(-44.4 253.2 92.6) scale(28.8422 81.09567)"/><path fill="#1c0702" fill-opacity=".6" d="M43.4 80.9l17.7.3.4-4.6-77.5-2.4z"/><path fill="#b6a796" fill-opacity=".5" d="M104 75h25v24h-25z"/><path fill="#2f170d" fill-opacity=".6" d="M149 170l-14 72-62-20z"/><path fill="#757171" fill-opacity=".6" d="M130 184l-73 24 76-58z"/><path fill-opacity=".4" d="M87 0h4v83h-4zM67 0h5v103h-5z"/><path fill="#1d0800" fill-opacity=".3" d="M148.7 13.4L98.4 34.9 97-2.4 143.1 52z"/><path fill-opacity=".6" d="M100 30h3v75h-3z"/><path fill-opacity=".5" d="M112 141.5h60v7h-60z"/><path fill="#020000" fill-opacity=".5" d="M60.2 45.2l-1 1.7L-4.2 8.8l1-1.7z"/><circle cx="52" cy="87" r="7" fill="#ddc9c3" fill-opacity=".5"/><ellipse cx="95" cy="53" fill="#b4b0a2" fill-opacity=".5" rx="4" ry="35"/><path fill="#d0d5d5" fill-opacity=".5" d="M39 85l-20-6 15 17z"/><path fill="#c58f23" fill-opacity=".5" d="M62 0h4v86h-4z"/><path fill="#3b1e16" d="M44 76.2l-4.1 12.1-15.8 35.3 24.4-17.4z"/><path fill="#887968" d="M70.7 137.1L48 103.6 61.1 157l25-20.2z"/><ellipse cx="79" cy="51" fill="#81532d" fill-opacity=".8" rx="7" ry="42"/><path fill="#5f473c" d="M64.7 106.5l4.6-5.9-1.2-24-14.4 30.3z"/><path fill="#21202b" fill-opacity=".5" d="M-2 142l70 51-15-42z"/><path fill="#98857a" fill-opacity=".7" d="M117 123.1L106.1 112l22.9-3-12.2-38.6z"/><path fill="#c0acac" fill-opacity=".5" d="M9.8 121.9l7.7 6.3-11.3 14-7.7-6.4z"/><path fill="#a57d60" fill-opacity=".5" d="M145 49h8v41h-8z"/><path fill="#8e826e" fill-opacity=".5" d="M16 147l17-29-6 30z"/><ellipse cx="93" cy="116" fill="#000e30" fill-opacity=".4" rx="10" ry="30"/><path fill="#9c9fa1" fill-opacity=".5" d="M82.6 169l.6-3 46.2 9-.6 3z"/><path fill="#0c0501" fill-opacity=".7" d="M117.3 116.7l5-6.7 3.6 3.6-.3 10.2z"/><path fill="#4b3800" fill-opacity=".6" d="M69.7 124.3L66.3 146l-2-.3 3.4-21.7z"/><path fill="#e0fffe" fill-opacity=".1" d="M124.8 108.8l13.3 35.5 18.8-1.1-9.6-30.1z"/><path fill="#bac2bd" fill-opacity=".5" d="M63.7 170.2l1 2.4 3.8 8.1 13.1 3.6z"/><path fill="#aca1b1" fill-opacity=".5" d="M54 132l27-21-24-5z"/><circle r="1" fill="#513213" fill-opacity=".6" transform="matrix(2.9388 9.13731 -5.73526 1.84462 137 103.4)"/><path fill="#040000" fill-opacity=".5" d="M137 48l33-4-36-6z"/><circle r="1" fill="#5183b1" fill-opacity=".4" transform="matrix(14.3659 7.38307 -2.51344 4.89062 7.6 157.7)"/><path fill="#200b00" fill-opacity=".5" d="M7 100h24v22H7z"/><path fill="#a07458" fill-opacity=".5" d="M157.6 141l-.8-.4 13.6-25.6.8.4z"/></g></svg>