<svg xmlns="http://www.w3.org/2000/svg" viewBox="0 0 300 199"><defs/><path fill="#202b43" d="M0 0h300v199H0z"/><g transform="translate(.6 .6) scale(1.17188)"><circle r="1" fill="#fff7d8" fill-opacity=".6" transform="matrix(-23.65742 -83.87425 39.5223 -11.14759 193.3 123.3)"/><path fill="#d6bb8a" fill-opacity=".5" d="M53 242l69.8-215L157 38 87.2 253z"/><circle r="1" fill="#9e8d6f" fill-opacity=".6" transform="matrix(-3.20266 -33.88057 96.91813 -9.16146 179.6 80)"/><circle r="1" fill="#0e100c" fill-opacity=".8" transform="matrix(4.34542 -25.42175 28.37491 4.85021 138.2 140.2)"/><circle r="1" fill="#e8f3ff" fill-opacity=".5" transform="rotate(89.7 17.2 187.2) scale(56.27826 37.22855)"/><circle cx="44" cy="131" r="46" fill="#050911" fill-opacity=".7"/><circle r="1" fill="#294013" fill-opacity=".6" transform="matrix(20.66158 -3.57366 7.14765 41.32506 243.8 106.1)"/><circle cx="94" r="77" fill="#3e4206" fill-opacity=".4"/><circle r="1" fill="#af6d58" fill-opacity=".6" transform="rotate(-127.3 2.5 -1.2) scale(36.71962 22.22868)"/><path fill="#e5e4e0" fill-opacity=".4" d="M119 164.3L85.9 185l16.8-106.4 11 96.8z"/><ellipse cx="179" cy="16" fill="#3b3c23" fill-opacity=".7" rx="55" ry="33"/><circle r="1" fill="#cfb4a8" fill-opacity=".6" transform="rotate(6.9 -509.7 1739.5) scale(22.44568 29.40778)"/><path fill="#838479" fill-opacity=".6" d="M124 112l52 15-57-143z"/><circle r="1" fill="#021200" fill-opacity=".5" transform="matrix(-41.38271 -8.99389 6.09495 -28.04409 76.8 22.8)"/><path fill="#b5bbc3" fill-opacity=".6" d="M99 91l50 6-54 32z"/><path fill="#000100" fill-opacity=".5" d="M166 114h6v36h-6z"/><ellipse cx="239" cy="12" fill="#2e2e12" fill-opacity=".6" rx="52" ry="41"/><path fill="#ffe2c9" fill-opacity=".5" d="M176 13l11 5 1 19z"/><path fill="#010900" fill-opacity=".5" d="M271 136l-22 32-27-62z"/><path fill="#b5bac3" fill-opacity=".6" d="M196.3 90.2L259 185l-18.4-12.4-13.1-57.5z"/><path fill="#724c2f" fill-opacity=".6" d="M91 61l32-22 5 61z"/><path fill="#23351e" fill-opacity=".6" d="M80 85h16v48H80z"/><path fill="#1a2919" fill-opacity=".6" d="M123 33.7l67.1 9.4-8.8 28.3-3.8-52.9z"/><path fill="#1f3b12" fill-opacity=".5" d="M164.4 115.7l-1.5-20.1-6.7-6.8-8 2.3z"/><path fill="#887f74" fill-opacity=".7" d="M173 148.8l-19.4-5 15.6 41.2 1.6-25.3z"/><path fill="#c6cbd3" fill-opacity=".8" d="M170.9 137.5l12.5-31.9 68.9 72.1-83.5-17.5z"/><path fill="#edc9c5" fill-opacity=".3" d="M219.4 48.3l-16.6-8.6-13.9 65L160 83.9z"/><path fill="#ffd7ba" fill-opacity=".4" d="M170.4 72.5L164.1 57l-22.2 1.5 35.6-19.8z"/><path fill="#091d09" fill-opacity=".6" d="M183 106l-8 3-4-19z"/><path fill="#7aa88d" fill-opacity=".3" d="M125 38l44-48-59-6z"/><path fill="#000003" fill-opacity=".6" d="M141.1 146.2l-31 1.6-1.2-24 31-1.6z"/><circle cx="101" cy="169" r="19" fill="#9e907a" fill-opacity=".9"/><path fill="#5a4f33" fill-opacity=".6" d="M70.3 55.1l93.6-9-94.2 44.8 1.2 32.5z"/><path fill="#4a5939" fill-opacity=".8" d="M271 99.3l-44.6 15-11.1-12.7 52.5-61.7z"/><path fill="#736954" d="M167.9 74.3l9.9 1.1 9.7-17.3-38.9 23.4z"/><path fill="#b08583" fill-opacity=".5" d="M29 41l2-12-28-7z"/><path fill="#eaeefc" fill-opacity=".3" d="M174.3 88.8l-11.9 41.3-8.1-9.8 21-34.9z"/><path fill="#e6f2f7" fill-opacity=".4" d="M138.2 30.2l-2.4-1.4-16.7 5.3 9.1-13.2z"/><ellipse cx="134" cy="95" fill="#bbc0c3" fill-opacity=".7" rx="6" ry="12"/><path fill="#dbe4f0" fill-opacity=".3" d="M108.4 152.8l-8.9 5.1-5.5-34 17 12.2z"/><path fill="#0e1d0d" fill-opacity=".5" d="M137 138l6-35 26 43z"/><path fill="#0c121d" fill-opacity=".5" d="M-7 101l69-48 22 132z"/><circle r="1" fill="#0f1011" fill-opacity=".6" transform="matrix(-14.04534 12.05339 -19.04837 -22.19631 137.6 157.8)"/><path fill="#2f3f5a" fill-opacity=".6" d="M-12.4 60.5l23.9-24.4 57.7 13-3.5 9.3z"/><path fill="#c7bca3" fill-opacity=".6" d="M136.6 153l1-.4 7.8 20.5-1 .3z"/><path fill="#1d0810" fill-opacity=".5" d="M190 4h28v39h-28z"/><ellipse cx="141" cy="68" fill="#4a2809" fill-opacity=".4" rx="4" ry="16"/><path fill="#feaea8" fill-opacity=".3" d="M124.3 59.8l-.3 21.8 37.5-21.2-20.8 1.4z"/><circle r="1" fill="#2f4226" fill-opacity=".7" transform="matrix(-12.67094 -42.0645 31.62874 -9.52741 245.3 2.7)"/><circle r="1" fill="#857f5c" fill-opacity=".3" transform="matrix(29.8565 5.73299 -1.76547 9.1943 221.4 80)"/><path fill="#1f2d16" fill-opacity=".5" d="M125.5 14.7L94.5-16 109 14.3l41.7 17.2z"/><circle cx="118" r="5" fill="#d1dad1" fill-opacity=".5"/><path fill="#9ebad9" fill-opacity=".6" d="M-14.3 22.9l31 5.9L-8.2 17-10 27.4z"/><path fill="#c4cbd4" fill-opacity=".5" d="M209.9 88.2l-17 77.7 41-27.5v-4.3z"/><path fill="#8b3b1d" fill-opacity=".8" d="M130.7 56l-16.2 26-3.5-15.6 10.6-13.9z"/><path fill="#aeaeb1" fill-opacity=".4" d="M115.7 86.5l-4.5 8.5 5 28.6 14.9-9.2z"/><path fill="#a4b769" fill-opacity=".3" d="M80.3 93.1l36.2-16.4-10.3-2.7-31.8 7z"/><circle cx="173" cy="44" r="5" fill="#ff6e0b" fill-opacity=".5"/><path fill="#18321b" fill-opacity=".4" d="M108-16l77 62-15-62z"/><path fill="#1d2930" fill-opacity=".5" d="M-5 86l104-1-5 39z"/><ellipse cx="184" cy="108" fill="#d7d5d7" fill-opacity=".4" rx="4" ry="43"/><ellipse cx="83" cy="61" fill-opacity=".5" rx="3" ry="19"/><path fill="#683523" fill-opacity=".5" d="M108 86l32-12-14 16z"/><path fill="#12190d" fill-opacity=".5" d="M164.5 157l8-38.2 1 .2-8 38.2z"/><path fill="#4f7c50" fill-opacity=".5" d="M125 39l44 7-75 9z"/></g></svg>