<svg xmlns="http://www.w3.org/2000/svg" viewBox="0 0 300 199"><defs/><path fill="#584f30" d="M0 0h300v199H0z"/><g transform="translate(.6 .6) scale(1.17188)"><path fill="#f2efe6" fill-opacity=".8" d="M5 126.5l254 22.2-4 46.8L1 173.3z"/><circle r="1" fill="#c3c2a2" transform="rotate(-85.1 36.6 33.6) scale(158.29902 39.48726)"/><ellipse cx="201" cy="29" fill="#e4dfd0" fill-opacity=".4" rx="32" ry="45"/><circle r="1" fill="#e2fee8" fill-opacity=".3" transform="rotate(111.2 26.3 39.6) scale(32.25064 42.13355)"/><circle r="1" fill="#121a10" fill-opacity=".7" transform="matrix(-11.8773 -77.32356 28.79983 -4.4238 145.5 63.3)"/><circle r="1" fill-opacity=".7" transform="matrix(-.95932 9.56676 -44.87644 -4.50004 89.6 125.3)"/><path fill="#dbddd5" fill-opacity=".9" d="M-16 40.1l27.3 10.3 41.2 92.5 3.7 37.3z"/><path fill="#efefe8" fill-opacity=".6" d="M194 109.5l32.8-3 1.2 14-32.8 3z"/><circle cy="134" r="29" fill="#786c1e" fill-opacity=".5"/><circle r="1" fill-opacity=".6" transform="matrix(3.7677 44.86825 -13.857 1.1636 246 99.4)"/><path fill="#d7ddcf" fill-opacity=".7" d="M239.9 13l-66.7 10.1 39.6-14.2 47.5-5.7z"/><ellipse cx="135" cy="72" fill="#cfcdb8" fill-opacity=".6" rx="2" ry="103"/><path fill="#ddddd5" fill-opacity=".7" d="M203.3 185L22.1 141.6l184.7-1.4 53.8 3.9z"/><path fill="#fffcff" fill-opacity=".4" d="M171 96h61v6h-61z"/><circle r="1" fill="#1d2a0e" fill-opacity=".6" transform="matrix(27.41612 33.20912 -14.72734 12.1583 67.2 93)"/><ellipse cx="179" cy="130" fill-opacity=".5" rx="124" ry="7"/><ellipse cx="25" cy="152" fill="#d61b0f" fill-opacity=".8" rx="3" ry="29"/><path fill="#f9f7f4" fill-opacity=".7" d="M32.5-1.5L52-13.7l9.5 15.2L42 13.7z"/><circle r="1" fill="#eae7e1" fill-opacity=".5" transform="rotate(-158.3 53.8 11) scale(17.31127 5.66141)"/><path fill="#f3f6f6" fill-opacity=".5" d="M-12 53l47 45 2-51z"/><path fill="#18260d" fill-opacity=".4" d="M61-5.4L42.6 51.2 36 80.9 42 24z"/><circle r="1" fill="#243215" fill-opacity=".5" transform="rotate(12.1 -190.7 431) scale(21.82306 5.65858)"/><path fill="#f8feff" fill-opacity=".5" d="M62.8 60.6l26.3-2.5-7.3-6.4-18.2 3.1z"/><path fill="#13130c" fill-opacity=".7" d="M148 126.7l13.6-32.3 30.4 13-13.6 32.2z"/><path fill="#0f0e00" fill-opacity=".4" d="M217.4 100.5l7.4-13.9-9.6-7.3-33.6-20.1z"/><path fill="#0b0d03" fill-opacity=".6" d="M51 112h84v17H51z"/><ellipse cx="47" cy="97" fill="#f9ffed" fill-opacity=".2" rx="3" ry="51"/><path fill="#0b1200" fill-opacity=".6" d="M159.2 88l22.2-33.3 9.5 45.5-13.5-17.1z"/><path fill="#12180c" fill-opacity=".5" d="M136 0h33v83h-33z"/><path fill="#837f4e" fill-opacity=".9" d="M114.7 23.7L111.4-16 59.3-2.3l44 40.9z"/><path fill="#7f7a63" fill-opacity=".5" d="M224 13h9v113h-9z"/><path fill="#bbbca8" fill-opacity=".7" d="M121.1 53.1l-24-11.6-25.4-23.4 1.4 21.1z"/><path fill="#77754b" fill-opacity=".9" d="M247.4-8.9L271 28.2l-86.4-.7L248 10.2z"/><path fill="#b5ab99" fill-opacity=".5" d="M194.5 60.3l-23.9-1.7 2.9-40.9 23.9 1.7z"/><ellipse cx="39" cy="98" fill="#000100" fill-opacity=".5" rx="4" ry="18"/><ellipse cx="240" cy="45" fill="#171d03" fill-opacity=".7" rx="7" ry="14"/><path fill="#ffd1c1" fill-opacity=".2" d="M184.4 74.7l30.7 15.9-15.5 28.2 22.2 3.8z"/><path fill="#b6b7b3" fill-opacity=".5" d="M174 85h8v20h-8z"/><ellipse cx="198" fill="#706c4e" fill-opacity=".5" rx="36" ry="11"/><ellipse cx="123" cy="37" fill="#0e1505" fill-opacity=".4" rx="9" ry="94"/><path fill="#847a64" fill-opacity=".9" d="M237.7 79.5l-14-1.5.2-52-28 47.5z"/><path fill="#595e37" fill-opacity=".4" d="M139 115l21-6-2-70z"/><path fill="#5d5d43" fill-opacity=".9" d="M135.8 119.8l-41.3-16-7.5-6.9-2.7-9.6z"/><path fill="#e0ecc3" fill-opacity=".5" d="M16 145l-5-17 12 3z"/><circle r="1" fill="#f1f7ee" fill-opacity=".5" transform="matrix(.74235 2.33905 -19.46385 6.1773 223.8 11)"/><path fill="#1f2914" fill-opacity=".6" d="M95 50l11 52 4-41z"/><path fill-opacity=".5" d="M237 115h19v28h-19zm-181 7.2l-5 5-9-9.4 5-5z"/><circle r="1" fill="#adc75f" fill-opacity=".5" transform="matrix(24.58562 20.90866 -7.10233 8.35133 0 29)"/><circle cx="2" cy="89" r="18" fill="#c6ceca" fill-opacity=".9"/><path fill="#e0dfd7" fill-opacity=".6" d="M28 114l83 51-80-7z"/><path fill="#231e20" fill-opacity=".5" d="M185 122h32v19h-32z"/><path fill="#dbe2c5" fill-opacity=".6" d="M25.1 39.4L17.2-16H-16L2.3 11.9z"/><path fill="#f8fbff" fill-opacity=".6" d="M190 23l27-12-22 2z"/><path fill="#7789a2" fill-opacity=".5" d="M112 51l-2 22 11-27z"/><path fill="#d6d5c7" fill-opacity=".8" d="M26.5 38.6l8.4 71.4 5-78.1L49.1-16z"/><path fill="#1c270a" fill-opacity=".6" d="M36.6 81.7l12-74.5-3.7 73.7-4.1 28.2z"/><path fill="#202d0a" fill-opacity=".3" d="M4 142h18l-38 24z"/><path fill="#e8e0d5" fill-opacity=".5" d="M1.9 163.7l18.4-7.8 7.8 18.4-18.4 7.8z"/><circle r="1" fill="#f1f7fa" fill-opacity=".4" transform="rotate(99.8 -23 74.2) scale(5.0583 3.08283)"/><path fill="#6a5020" fill-opacity=".5" d="M168 57.3l14.1-3.2 16.8 13.5-4.4 11.6z"/><path fill="#a5b3e9" fill-opacity=".3" d="M161 56.2l-6.9 5.8-5.1-6.2 6.9-5.8z"/><circle cx="61" cy="11" r="3" fill="#f9ffff" fill-opacity=".6"/><path fill="#a1a593" fill-opacity=".3" d="M176.3 78.1l-10.8-51.9 64.1 27.4-61.3-62.5z"/><path fill="#0e1203" fill-opacity=".4" d="M221.9 80.1l-4.3 24.2-7.1-18.2-53.8-17z"/></g></svg>