<svg xmlns="http://www.w3.org/2000/svg" viewBox="0 0 300 199"><defs/><path fill="#3b5471" d="M0 0h300v199H0z"/><g transform="translate(.6 .6) scale(1.17188)"><circle r="1" fill="#a67d67" fill-opacity=".8" transform="matrix(49.19174 -143.7587 105.11117 35.96723 166 46.3)"/><circle r="1" fill="#190500" fill-opacity=".9" transform="matrix(-31.12507 -64.09955 44.18189 -21.45357 5.8 93.6)"/><circle r="1" fill="#391d17" fill-opacity=".6" transform="matrix(11.96078 -18.5595 30.51135 19.66322 149.2 121.5)"/><path fill="#fff" fill-opacity=".6" d="M161.8 180.8l-4.7-24.5 47-9.1 4.8 24.5z"/><circle r="1" fill="#2b0b00" fill-opacity=".7" transform="matrix(39.09194 -3.34055 2.6826 31.39243 244.2 168.1)"/><path fill="#e7d3c7" fill-opacity=".7" d="M96 113L94-7 67 45z"/><circle r="1" fill="#a7b3c0" fill-opacity=".5" transform="rotate(105.3 108 107.3) scale(26.47124 98.22905)"/><circle r="1" fill="#9b6135" fill-opacity=".6" transform="matrix(-85.37615 24.32004 -5.30703 -18.63048 52.9 164)"/><circle r="1" fill="#523002" fill-opacity=".5" transform="rotate(165.5 13 1.7) scale(31.37368 50.52631)"/><ellipse cx="89" cy="127" fill="#fff8f2" fill-opacity=".5" rx="24" ry="8"/><circle r="1" fill="#633929" fill-opacity=".5" transform="matrix(-24.40352 -61.64276 17.05597 -6.75222 136.3 43.8)"/><path fill="#fcfffd" fill-opacity=".5" d="M163 170.1l-10.8 7.3-21.2-31.5 10.8-7.3z"/><ellipse cx="197" cy="84" fill="#49394a" fill-opacity=".4" rx="16" ry="67"/><circle r="1" fill="#fffff3" fill-opacity=".5" transform="matrix(5.05463 -2.6319 9.04612 17.37334 241 47.6)"/><circle r="1" fill="#dc9077" fill-opacity=".5" transform="matrix(-12.52304 -17.4238 5.76962 -4.14681 46 48.7)"/><circle r="1" fill="#6484b1" fill-opacity=".4" transform="matrix(25.48941 -5.34643 9.0994 43.38193 181 38.8)"/><path fill="#392621" fill-opacity=".9" d="M105.1 125.7l65.4 1.4-20.7 30.6 27.6-6.2z"/><path fill="#fffff9" fill-opacity=".6" d="M88.1 40L67.7 20.7l8.2-8.7 20.4 19z"/><path fill="#190f00" fill-opacity=".7" d="M73.9-4.5l13-1 1.2 18-13 1z"/><path fill="#2e1305" fill-opacity=".6" d="M120 22L97 57l36-24z"/><path fill="#fad3bc" fill-opacity=".6" d="M120.4 41.7l11.4-.7 7.9-3.3-1.9 19.6z"/><ellipse cx="229" cy="111" fill="#a25f42" fill-opacity=".4" rx="64" ry="35"/><path fill="#e4fcff" fill-opacity=".6" d="M241 115h9v16h-9z"/><path fill="#290800" fill-opacity=".6" d="M139 45l23 31-7-37z"/><path fill="#bcbea8" fill-opacity=".4" d="M213 52h12v79h-12z"/><ellipse cx="90" cy="77" fill="#e3c0b3" fill-opacity=".3" rx="27" ry="21"/><path fill="#ffb13d" fill-opacity=".3" d="M271 3.4l-67.6 43.5 4.2 10 40.9-18.5z"/><path fill="#fff" fill-opacity=".5" d="M127 73h11v11h-11z"/><path fill="#724122" fill-opacity=".4" d="M118.6 38.1l13.3 26.2L3.4-4.5 101 59.8z"/><circle r="1" fill="#3c1f11" fill-opacity=".6" transform="matrix(6.43817 6.71366 -5.38912 5.16798 80.6 109.6)"/><path fill-opacity=".5" d="M190 148l1-13 13 8z"/><path fill="#e9caae" fill-opacity=".6" d="M69 12h46v5H69z"/><path fill="#732501" fill-opacity=".4" d="M48 150l9-65 12 62z"/><path fill="#391e0e" fill-opacity=".5" d="M207 62h4v108h-4z"/><path fill="#fff" fill-opacity=".5" d="M125 23h10v6h-10z"/><path fill="#5e3a31" fill-opacity=".9" d="M254.8 94.1l-19 4.6 12.3 4 11 60.7z"/><path fill="#bfc5d1" fill-opacity=".4" d="M147.7 39L158-16l6.8 60.5-18.4-7.1z"/><ellipse cx="22" cy="110" fill="#0e0700" fill-opacity=".6" rx="34" ry="46"/><circle r="1" fill="#895b3d" fill-opacity=".7" transform="matrix(-22.55492 -6.29625 7.90663 -28.32376 112.1 162)"/><path fill="#271e18" d="M30 12.8L-5.7-16l39 59.6L-16 59.4z"/><path fill="#220500" fill-opacity=".5" d="M78 28v11l-5-13z"/><path fill="#985345" fill-opacity=".7" d="M221 149l-41-20 91-2z"/><path fill="#9a5f30" fill-opacity=".5" d="M222 31l-11 14 31 27z"/><ellipse cx="200" cy="82" fill="#8696ac" fill-opacity=".6" rx="5" ry="19"/><circle r="1" fill="#9b7868" fill-opacity=".6" transform="matrix(18.5484 -15.07388 10.64225 13.09529 108.7 97)"/><path fill="#956a64" fill-opacity=".7" d="M187.7 116.7l-42.9-2 12.4-24.8 16.2 38z"/><path fill="#c6a791" fill-opacity=".6" d="M67 136.2l18.8-9.2 5.3 10.8-19 9.2z"/><path fill="#1a3972" fill-opacity=".5" d="M202.5 44.6l-9.3 34.8-7.7-2 9.3-34.8z"/><path fill="#ffffed" fill-opacity=".5" d="M47 41h7v13h-7z"/><path fill="#f6fdff" fill-opacity=".5" d="M92.6 61l-2.9 27.6L79.8 45l22 19.8z"/><path fill="#452820" fill-opacity=".9" d="M156.2 147.3l-10.3-39.4-32.8 15.5 26.7 17.3z"/><path fill="#a75c3d" fill-opacity=".6" d="M119.7 39l26.4 20.8 19 25.6L110 66.9z"/><path fill="#2a2730" fill-opacity=".4" d="M129.8 9.7L127-9.6l14.8-6.4 12.8 27.8z"/><circle r="1" fill="#ffeee7" fill-opacity=".3" transform="matrix(-17.72466 -42.40583 6.93652 -2.8993 253.5 69.8)"/><path fill="#a3cef5" fill-opacity=".2" d="M28.8 60.7L32.5 37l-5.6-53 12.5 60.9z"/><path fill="#290b00" fill-opacity=".5" d="M-16 50.4l53 1 5.5-4.1 17.8 48.1z"/><path fill="#ad8f7b" fill-opacity=".5" d="M112 41L90-15l6 60z"/><path fill="#be8935" fill-opacity=".6" d="M58-8L74 4l-9 20z"/><path fill="#95939d" fill-opacity=".6" d="M212 58l4-69-47 7z"/><ellipse cx="14" cy="169" fill="#926a4b" fill-opacity=".5" rx="129" ry="13"/><path fill="#bb5d37" fill-opacity=".4" d="M180 75l32 68-54-56z"/><path fill="#9f6856" fill-opacity=".3" d="M50.9 35.2l7.9 77.5-9.9 53.6 36.1-96z"/><path fill="#5f5753" fill-opacity=".6" d="M65.5-16l74.6 45.2 21-2.8-2.5-4.9z"/><path fill="#211a16" fill-opacity=".8" d="M207 160l45 24 19-54z"/><path fill="#e1ceca" fill-opacity=".5" d="M91.7 82.8l1.4 2.7-34.8 17.7-1.4-2.7z"/></g></svg>