<svg xmlns="http://www.w3.org/2000/svg" viewBox="0 0 300 199"><defs/><path fill="#5a5730" d="M0 0h300v199H0z"/><g transform="translate(.6 .6) scale(1.17188)"><circle r="1" fill="#fff" fill-opacity=".8" transform="rotate(23.2 -34.3 194) scale(91.48661 64.25513)"/><circle r="1" fill="#8c96ce" fill-opacity=".6" transform="matrix(72.2762 -21.79366 15.8925 52.70568 231 143)"/><circle r="1" fill="#414628" fill-opacity=".7" transform="matrix(8.32759 -30.45214 23.73702 6.49124 44.3 80.4)"/><ellipse cx="88" cy="131" fill="#a09caf" fill-opacity=".4" rx="32" ry="56"/><circle r="1" fill="#09000b" fill-opacity=".6" transform="matrix(13.07215 28.18607 -37.1637 17.2358 248.7 53.9)"/><ellipse cx="211" cy="153" fill="#000422" fill-opacity=".7" rx="7" ry="47"/><circle cx="98" cy="11" r="63" fill="#fff" fill-opacity=".4"/><circle r="1" fill="#84767a" fill-opacity=".5" transform="matrix(22.19112 20.7603 -43.9382 46.96646 179.2 41.2)"/><circle r="1" fill="#f4f5f8" fill-opacity=".7" transform="rotate(20.6 -82.7 38.8) scale(31.16587 35.82609)"/><path fill-opacity=".6" d="M263 136l-8 12-29-44z"/><path fill="#f2f0eb" fill-opacity=".9" d="M155.6 42.5l-6.3 32.1-5.9.5-25.5-63.4z"/><path fill="#acb2d1" fill-opacity=".6" d="M165 109h39v55h-39z"/><circle r="1" fill="#001605" fill-opacity=".4" transform="rotate(111.6 -31.7 51) scale(37.45415 27.41911)"/><ellipse cx="51" cy="162" fill="#020834" fill-opacity=".6" rx="11" ry="42"/><path fill="#c4a7bc" fill-opacity=".5" d="M10 135h32v20H10z"/><ellipse cx="112" cy="165" fill="#73717d" fill-opacity=".8" rx="49" ry="21"/><path fill="#3a2a24" fill-opacity=".4" d="M82.1 133.1L142 72.4l23.9 85.1-71-19z"/><path fill="#fefefa" fill-opacity=".5" d="M102 0h19v106h-19z"/><circle r="1" fill="#bfcdea" fill-opacity=".5" transform="matrix(5.17037 -10.87561 23.80752 11.31833 246.8 102.1)"/><path fill="#4e3e46" fill-opacity=".6" d="M216 102l-3-78-53 90z"/><ellipse cx="71" cy="100" fill="#a09e82" fill-opacity=".6" rx="10" ry="29"/><ellipse cx="168" cy="28" fill="#807366" fill-opacity=".6" rx="15" ry="90"/><path fill="#c0bfd7" fill-opacity=".4" d="M257 149l-39-45 4 56z"/><path fill="#8f8072" fill-opacity=".7" d="M266.9 6.6l-47-22.6-6 31.3v6.2z"/><path fill="#ececeb" fill-opacity=".9" d="M40-16L-3 56l33 10z"/><path fill="#3d2a22" fill-opacity=".7" d="M212.1 22.9l52.6-12.2 5.2 22.4-52.6 12.2z"/><path fill="#5d5f40" fill-opacity=".7" d="M34 45.5l34 27.2-34 41.7-1.9-63.3z"/><path fill-opacity=".5" d="M214 104l10-5 18 19z"/><circle r="1" fill="#182538" fill-opacity=".5" transform="rotate(-105.7 139.4 -27.8) scale(38.72367 5.05632)"/><circle r="1" fill="#484d36" fill-opacity=".7" transform="matrix(2.5502 .03561 -.16196 11.59897 131 70.4)"/><path fill="#12270a" fill-opacity=".5" d="M90.5 117.6L149 99.8l2.6 8.6L93 126.2z"/><path fill="#e6be9d" fill-opacity=".3" d="M-16 138.4l50.7 4.5 17.6-13.7-38.6 7.6z"/><path fill="#f3f2f0" fill-opacity=".7" d="M85 88l62-61L34-16z"/><path fill="#ecece5" fill-opacity=".3" d="M-16 68.7l42 6.1L9.5 63.5l25.3-76.4z"/><circle r="1" fill="#635343" fill-opacity=".5" transform="rotate(-178.6 99.5 14.3) scale(49.86056 9.83722)"/><path fill="#8a915c" fill-opacity=".5" d="M71 103l32-15-2 29z"/><path fill="#00050d" fill-opacity=".5" d="M240.2 115l-25.3-17 49.5 57 6.6 2.8z"/><circle r="1" fill="#aaaec5" fill-opacity=".6" transform="matrix(8.22915 -2.72153 5.76364 17.42763 254.3 117.5)"/><path fill="#130709" fill-opacity=".6" d="M213 53h43v33h-43z"/><path fill="#efeeec" fill-opacity=".7" d="M136.4-9.9l18.3 71.3 4.3-14.6L70.3-16z"/><ellipse cx="7" cy="92" fill="#0f190f" fill-opacity=".6" rx="13" ry="18"/><path fill="#827669" fill-opacity=".6" d="M188.1 110.6l-39.1-3.8L162.3 86l-10.6-74.1z"/><path fill="#e1f6ff" fill-opacity=".3" d="M213.3 102.9L168.1 116l-3.2 10.4 19.3-4z"/><path fill="#604f55" fill-opacity=".8" d="M5.4 146.8l33.1 4.6 6.6 33.5-14.2-8.1z"/><ellipse cx="158" cy="108" fill="#4a3532" fill-opacity=".4" rx="5" ry="52"/><path fill="#302b2e" fill-opacity=".9" d="M184.8 63.3l17.1 35.6 7.9-7.6-6.4-28.7z"/><path fill="#0a2440" fill-opacity=".6" d="M217.5 126.5l2.8 58.5-13.9-28.6-3.6-56.2z"/><path fill="#8688a5" fill-opacity=".5" d="M162 141h44v29h-44z"/><path fill="#8e8271" fill-opacity=".7" d="M168.9 16.9L133.5-16 177 45.5l-32.5-5.9z"/><path fill="#fef6fa" fill-opacity=".2" d="M177.6 115.6l57.5-21.1-27.7-1.2-6.6 34.3z"/><path fill="#bac3d9" fill-opacity=".5" d="M214 100l5 25 12-7z"/><path fill="#fffefb" fill-opacity=".3" d="M128 84.1l-10.7 3.6-24.7 26.6 40.6-85.2z"/><path fill="#6d5333" fill-opacity=".5" d="M91.7 104.4l72.4 50.1-102.4-26.3 21.1.5z"/><path fill="#1e0f00" fill-opacity=".6" d="M258 10l13 18-54-4z"/><path fill="#9a9b80" fill-opacity=".7" d="M71.1 68.4L55 66.7l-8.7-24L68.2 63z"/><path fill="#99a3bc" fill-opacity=".6" d="M251.1 106l7-18.8-24.6-2.1-20.8 15.5z"/><path fill="#000719" fill-opacity=".3" d="M137.5 113.3l3.1-27.4 21 39.4 14.4-16.6z"/><path fill="#9da19c" fill-opacity=".7" d="M151 81.6L121 95l-2-4.6L149 77z"/><path fill="#e3d2ff" fill-opacity=".1" d="M54.3 139.3l14.3-58.1 8.3 64.5L55.1 135z"/><path fill="#9b979a" fill-opacity=".5" d="M134 84h3v23h-3z"/><path fill="#040e05" fill-opacity=".5" d="M123 96h9v22h-9z"/><path fill="#352f30" fill-opacity=".3" d="M70.3 59.3l-23.9 51-4.1-14.7 14.8-32z"/><circle cx="156" cy="102" r="7" fill="#958d81" fill-opacity=".5"/><path fill="#6d797d" fill-opacity=".5" d="M210 41l-1 20.9-15-.8 1-21z"/><path fill="#403e47" fill-opacity=".6" d="M41.3 185l24-37.5-21.9-64.2L71.2 185z"/></g></svg>