<svg xmlns="http://www.w3.org/2000/svg" viewBox="0 0 298 450"><defs/><path fill="#3d483c" d="M0 0h298v450H0z"/><g transform="translate(.9 .9) scale(1.75781)"><ellipse cx="48" cy="219" fill="#fae8eb" fill-opacity=".6" rx="36" ry="121"/><circle r="1" fill="#fff" fill-opacity=".6" transform="matrix(9.17237 35.4669 -65.02666 16.81704 95.3 2.9)"/><ellipse cx="93" cy="103" fill="#897874" fill-opacity=".8" rx="49" ry="92"/><circle r="1" fill="#d4dfe9" fill-opacity=".7" transform="matrix(32.68292 13.36044 -18.30458 44.77751 36.5 233.8)"/><circle r="1" fill="#cbc8d5" fill-opacity=".6" transform="rotate(-141 71 36) scale(15.28715 41.63531)"/><circle r="1" fill="#0b1505" fill-opacity=".8" transform="rotate(-64.8 144.3 91.6) scale(28.96563 22.55868)"/><ellipse cx="96" fill="#efffff" fill-opacity=".7" rx="65" ry="16"/><ellipse cx="127" cy="44" fill="#675647" fill-opacity=".6" rx="73" ry="32"/><path fill="#f4ffff" fill-opacity=".7" d="M58 43l-3-59-22 54z"/><circle r="1" fill="#626064" fill-opacity=".7" transform="matrix(24.89294 -26.63141 72.13532 67.4264 141.5 203.4)"/><circle r="1" fill="#ceb79f" fill-opacity=".5" transform="matrix(-35.25355 -11.78556 5.5328 -16.54997 43 125.6)"/><circle r="1" fill="#646c74" fill-opacity=".8" transform="matrix(2.58346 -31.29056 24.78754 2.04655 145.9 95.5)"/><circle r="1" fill="#0c0000" fill-opacity=".5" transform="rotate(-30 148.7 -24) scale(16.66242 33.26249)"/><path fill="#874c2d" fill-opacity=".4" d="M60.2 175.4l-16-60.5-7.6 16.3-17.7 58.1z"/><path fill="#9bbbb9" fill-opacity=".6" d="M2.3.8l10 16.7-3.2 23L-16 58.3z"/><path fill="#9ca5b7" fill-opacity=".4" d="M105 271l-19-63-96 63z"/><circle r="1" fill="#e2d0c7" fill-opacity=".4" transform="matrix(-10.34123 28.73064 -14.59783 -5.2543 105 121.6)"/><path fill="#b9bec6" fill-opacity=".6" d="M107 212l-7-43 13-5z"/><path fill="#2f2d32" fill-opacity=".7" d="M111.8 271L82.1 164.1 46.3 181l21.3-17.4z"/><path fill="#420e03" fill-opacity=".3" d="M72.3 68l34.2 20.7 34.1-43.5L108 29.1z"/><path fill="#dbe2e8" fill-opacity=".6" d="M150.5-6.4l9.2 11.9 16.5-5-32.4 20.3z"/><path fill="#080601" fill-opacity=".6" d="M70.2 100.6l2.3-14.5 10.3 17.4-5.2 16z"/><path fill="#e5c3bb" fill-opacity=".4" d="M78 15h19v25H78z"/><path fill="#31343a" fill-opacity=".9" d="M121.4 187.9l-14.7-3.1 14.2 56.6 19.3 21.1z"/><path fill="#0b1504" fill-opacity=".6" d="M126.7 62.7l10.2 7.4 2.7-31.9-21.9 13.9z"/><path fill="#192213" fill-opacity=".8" d="M-16 238.1l37.7-49.8-.8-42.3-36.9 25.7z"/><path fill="#152811" fill-opacity=".5" d="M-16 148.8L15.4 17.3-3.8-16l43.3 41.3z"/><path fill="#d5e4fa" fill-opacity=".3" d="M125.2 63.2L185 93.5l-50-15.6L75.7 131z"/><circle r="1" fill="#a3b7b9" fill-opacity=".6" transform="matrix(-26.69035 15.10068 -.99527 -1.75913 142.6 32.7)"/><path fill="#1e1b2b" fill-opacity=".3" d="M156 114l-60 40 87 37z"/><ellipse cx="169" cy="230" fill="#9e997d" fill-opacity=".6" rx="9" ry="44"/><path fill="#dff0fe" fill-opacity=".3" d="M63.7 93.2l12.7 54.4-30 8.6 10.1-29.5z"/><circle r="1" fill="#d8e0e4" fill-opacity=".5" transform="rotate(-162.4 26 122) scale(16.29572 64.50388)"/><path fill="#315836" fill-opacity=".4" d="M88 26L40 50l31-36z"/><path fill="#9a9cad" fill-opacity=".5" d="M116.8 169.8l1.2 17.9-28.5.1-8.1-12.6z"/><path fill="#220c03" fill-opacity=".4" d="M105.8 129.7l-.4-8.5-26.9 27.5 6.8-20.6z"/><path fill="#f5fff8" fill-opacity=".5" d="M103.1 182.8l1.4 13.2 3.1 14.5 6.4-.2z"/><path fill="#ab897b" fill-opacity=".7" d="M85.3 95.5L46.7 59.4l5.8-13.1 17.6 13.4z"/><path fill="#e4c7aa" fill-opacity=".4" d="M-16 141.3L24 112l29.7-13 1.8 10z"/><path fill="#84866f" fill-opacity=".5" d="M148 35h18v35h-18z"/><path fill="#e0b59a" fill-opacity=".5" d="M20 162h6v16h-6z"/><path fill="azure" fill-opacity=".5" d="M62.4 11.2l-4 28.8-22.8-3.2 4-28.8z"/><path fill="#5b6167" fill-opacity=".6" d="M127 216l13-101 30 143z"/><path fill="#bfa082" fill-opacity=".5" d="M97.1 128.2l42.4-4.1-78 47.1 14.9-14.7z"/><path fill="#160300" fill-opacity=".5" d="M31.7 105.1l-9.3-47.9L47.1 84l13 7.9z"/><path fill="#ddf4fe" fill-opacity=".6" d="M27 12l70-28-4 33z"/><path fill="#010801" fill-opacity=".4" d="M91.8 171.2L70 183.7l9.6-21.2 19.9 7.6z"/><ellipse cx="30" cy="9" fill="#73a7ad" fill-opacity=".5" rx="6" ry="13"/><ellipse cx="81" cy="81" fill="#a2acac" fill-opacity=".6" rx="14" ry="6"/><path fill="#a3664f" fill-opacity=".5" d="M73 128l-6-77-24 19z"/><path fill="#06070e" fill-opacity=".4" d="M161 192l13-16-25-51z"/><path fill="#f3d2d4" fill-opacity=".5" d="M80 108h46v11H80z"/><path fill="#24311a" fill-opacity=".5" d="M9 121L39 11-7 60z"/><path fill="#995044" fill-opacity=".4" d="M92 31L80 58l42 3z"/><path fill="#3a3c41" d="M97.7 190.1l4.6 1 7.3 35.3-19.3.1z"/><path fill="#314424" fill-opacity=".6" d="M-16 142.7l38.5-17.1 3.9 5.6-22 43.3z"/><path fill="#82624e" fill-opacity=".7" d="M49.4 182l74.3-41.2-73.3 28.4-28.8 15.1z"/><circle r="1" fill="#808794" fill-opacity=".6" transform="matrix(6.38554 -.81198 6.0513 47.58838 82 230.5)"/><path fill="#26260a" fill-opacity=".5" d="M123 119l-4 8-7-7z"/><path fill="#19231d" fill-opacity=".5" d="M113.1 151.7l1.1-14.5 5.1 1.4-.1 44.2z"/><path fill="#433a2f" fill-opacity=".6" d="M2.7 231l13.1-46.7-31.8 82.4 14.1-17.6z"/><path fill="#fcfbf5" fill-opacity=".5" d="M58 27L29 41l14-1z"/><path fill="#152713" fill-opacity=".6" d="M-.4 21.7l4.9 1-4 17.6-5-1z"/><path fill="#313716" fill-opacity=".3" d="M150.2 70.3L118 36.6l11.2 35.1 54.3 12.2z"/><path fill="#c1cddb" fill-opacity=".6" d="M133.4 69.5l-7.2-5.1-24.2 32 25.1-22.9z"/></g></svg>