<svg xmlns="http://www.w3.org/2000/svg" viewBox="0 0 300 199"><defs/><path fill="#373e58" d="M0 0h300v199H0z"/><g transform="translate(.6 .6) scale(1.17188)"><circle r="1" fill="#d8bea5" fill-opacity=".7" transform="matrix(-61.22804 91.11694 -207.20718 -139.23745 155.4 34.8)"/><circle cx="118" cy="145" r="52" fill="#7f695f"/><ellipse cx="231" cy="28" fill-opacity=".7" rx="18" ry="25"/><circle r="1" fill="#feffff" fill-opacity=".6" transform="matrix(-16.39164 .94639 -7.895 -136.74275 183.4 78.4)"/><path fill-opacity=".4" d="M21 185L97-8-16 81z"/><path fill="#fff" fill-opacity=".7" d="M-17.2 60.3l-6-33.5 40.4-7.1 6 33.5z"/><ellipse cx="21" cy="2" fill="#fff" fill-opacity=".7" rx="72" ry="10"/><ellipse cx="91" cy="89" fill="#d3c3b1" fill-opacity=".5" rx="39" ry="32"/><ellipse cx="146" cy="132" fill="#1a1529" fill-opacity=".5" rx="21" ry="36"/><path fill="#181522" fill-opacity=".5" d="M82 11l-86 2 95 26z"/><ellipse cx="30" cy="152" fill="#050715" fill-opacity=".6" rx="40" ry="48"/><circle r="1" fill="#872f0a" fill-opacity=".5" transform="matrix(18.7803 -14.51641 9.75054 12.61455 236.8 78.5)"/><circle r="1" fill="#531400" fill-opacity=".4" transform="matrix(6.13217 -3.48356 11.92092 20.9846 197 109.4)"/><circle r="1" fill="#fafeff" fill-opacity=".8" transform="matrix(-15.45913 5.43883 -3.8331 -10.89505 206.7 3.7)"/><circle r="1" fill="#ebf6f8" fill-opacity=".6" transform="matrix(-11.4044 25.85722 -13.67038 -6.02936 205.1 155.7)"/><circle r="1" fill="#89848e" fill-opacity=".7" transform="rotate(-119.9 44.6 19.6) scale(50.31566 8.0075)"/><path fill="#1c131e" fill-opacity=".5" d="M238 40l-70-24 68-1z"/><path fill="#0b1433" fill-opacity=".5" d="M-2 136l64-22-36-82z"/><ellipse cx="98" cy="110" fill="#bd9979" fill-opacity=".5" rx="18" ry="164"/><path fill="#fefffc" fill-opacity=".7" d="M163.1 63.7l56.6-5.1 4.4 3-32.9 27.3z"/><ellipse cx="75" cy="84" fill="#fdffff" fill-opacity=".8" rx="6" ry="23"/><path fill="#624a3e" fill-opacity=".7" d="M154.1 59.8l52.9-1.4-8.5-45-3.3 38.9z"/><path fill="#f4fdfb" fill-opacity=".6" d="M249 0h7v62h-7z"/><path fill="#7d5143" fill-opacity=".8" d="M242.3 47.3l-1.8 36-29.8-36.5 39-10.2z"/><path fill="#fff" fill-opacity=".5" d="M35 21h8v22h-8z"/><path fill="#bdcbda" fill-opacity=".6" d="M70 145h20v25H70z"/><circle r="1" fill="#d7d5dc" fill-opacity=".5" transform="rotate(71.3 -34.6 85.1) scale(31.33968 4.44053)"/><circle r="1" fill="#503432" fill-opacity=".6" transform="matrix(-22.5565 2.76965 -2.79263 -22.74364 66.3 32.2)"/><circle r="1" fill="#c8a382" fill-opacity=".6" transform="rotate(86.5 43.6 95.5) scale(55.05629 26.76786)"/><ellipse cx="75" cy="133" fill="#945d4c" fill-opacity=".8" rx="17" ry="13"/><path fill="#271919" fill-opacity=".5" d="M173 85l31 13h-18z"/><path fill="#fff" fill-opacity=".6" d="M169 103h23v44h-23z"/><path fill="#41322d" fill-opacity=".6" d="M21 17h14v26H21z"/><path fill="#f1f6f0" fill-opacity=".5" d="M203.3 107.6l-5.6-41.8-3.1-.3 23.8 30.7z"/><path fill="#eff1f0" fill-opacity=".6" d="M78.7 126l10.1-30.8v28.6L64.9 59.5z"/><path fill="#fff" fill-opacity=".6" d="M195 44.5h-30v-23h30z"/><path fill="#201b20" fill-opacity=".7" d="M235.5 1.7l15.7 10.9-13.3 25.7-20.9 16z"/><path fill="#b39e8c" d="M81.9 5.1l38.8 42L77 11.6 79.6-16z"/><path fill="#384e71" fill-opacity=".6" d="M57.5 79.3l4.2-8.5-1.1-14.5 20.6 80.5z"/><path fill="#956152" fill-opacity=".6" d="M19.6 48.1l45 19.2 18-7.3-5.3-31.3z"/><path fill="#c1bec0" fill-opacity=".5" d="M68 97.3l-13.1-9.4-29.6-46.1 8.1 2.9z"/><path fill="#fff9e9" fill-opacity=".3" d="M256.8 65.7L271 25.4l-35.3 22.5v7.2z"/><path fill="#ddded5" fill-opacity=".8" d="M84.4 44.9l4.2 35.5-2.7 42.1-1.8-60.7z"/><path fill="#554851" d="M175.1 152.2l-38-11.5-19.7 21.2 54.8.5z"/><path fill-opacity=".5" d="M75 165h7v5h-7z"/><circle r="1" fill="#fdffff" fill-opacity=".4" transform="matrix(13.69466 -12.41144 5.76958 6.3661 178.8 164)"/><ellipse cx="200" fill="#f8fafc" fill-opacity=".8" rx="36" ry="4"/><path fill="#4c3e41" fill-opacity=".6" d="M141 107l23-6 10 68z"/><path fill="#916757" fill-opacity=".6" d="M191.5 117.1l7.1 14.2 20.6-9.7L191.3 99z"/><path fill="#23242f" fill-opacity=".6" d="M47.9 17.7l35.1-6-33.5 27 21.4 18.5z"/><path fill="#fbfdfd" fill-opacity=".7" d="M0 20h21v34H0z"/><path fill="#745b53" fill-opacity=".6" d="M165 15h40v7h-40z"/><path fill="#4c342a" fill-opacity=".5" d="M82.1 60.5l3.7 52.9-2 .1-3.6-52.9z"/><path fill="#c2b9b3" fill-opacity=".8" d="M210.2 27l-4.3 3.1-.6-4.7 2.5-7.5z"/><path fill="#fff" fill-opacity=".6" d="M45 20l-11-1 3 23z"/><path fill="#8c846a" fill-opacity=".6" d="M271 105.8L251.7 185l-10.1-79-27.8-9.9z"/><path fill="#997759" fill-opacity=".4" d="M91.4 115.3l42.5-38.8-10.2 93.3L92.6 185z"/><ellipse cx="178" cy="147" fill="#968e8f" fill-opacity=".6" rx="26" ry="2"/><circle cx="46" r="14" fill="#fff" fill-opacity=".5"/><path fill="#030510" fill-opacity=".5" d="M77 121l-9-3-1-22z"/><path fill="#f1f6f9" fill-opacity=".5" d="M76.1 60.9l7 61.7L63.7 71l-8.4 1.6z"/><path fill="#1c243d" fill-opacity=".9" d="M60.1 136.8L6.4 56.7 36 58.4l9 14.4z"/><path fill="#f2f4f2" fill-opacity=".8" d="M166.8 13.5l12.9 2 41.1-2.4L162.2-16z"/><ellipse cx="187" cy="56" fill="#684630" fill-opacity=".4" rx="23" ry="4"/><path fill="#bfa186" fill-opacity=".5" d="M88 0h79v94H88z"/></g></svg>