<svg xmlns="http://www.w3.org/2000/svg" viewBox="0 0 298 450"><defs/><path fill="#474747" d="M0 0h298v450H0z"/><g transform="translate(.9 .9) scale(1.75781)"><ellipse cx="86" cy="222" fill="#ddd" fill-opacity=".5" rx="21" ry="136"/><path fill="#ededed" fill-opacity=".8" d="M158.7 246.2l-1.5-10.5 1.6-80.2-20 74.9z"/><path fill="#181818" fill-opacity=".8" d="M25 270l69-95-105-61z"/><ellipse cx="136" cy="115" fill="#fff" fill-opacity=".7" rx="8" ry="22"/><circle r="1" fill="#fbfbfb" fill-opacity=".5" transform="matrix(-42.15707 33.72737 -9.45423 -11.81718 78.8 236.5)"/><circle r="1" fill="#f5f5f5" fill-opacity=".5" transform="rotate(93.3 30 52) scale(5.366 84.67246)"/><ellipse cx="30" cy="59" fill-opacity=".6" rx="36" ry="25"/><path fill="#bfbfbf" fill-opacity=".6" d="M57 117h36v44H57z"/><path fill="#fff" fill-opacity=".5" d="M14 271L3 176l-19 59z"/><path fill-opacity=".5" d="M133 271l16-91-52-33z"/><path fill="#cfcfcf" fill-opacity=".8" d="M116.8 245.9l-16.2-83.2-32.7 84.5 24.9-.1z"/><circle r="1" fill="#060606" fill-opacity=".7" transform="matrix(9.8735 3.22728 -10.95005 33.50045 51 106.8)"/><path fill="#121212" fill-opacity=".7" d="M91 184l-14 26-9-72z"/><ellipse cx="92" cy="64" fill="#fbfbfb" fill-opacity=".5" rx="3" ry="33"/><ellipse cx="114" cy="78" fill-opacity=".5" rx="10" ry="52"/><path fill="#9f9f9f" fill-opacity=".4" d="M160.9 14.1L156 73l-54.3 182.8 60.2-149.3z"/><path fill="#e0e0e0" fill-opacity=".9" d="M54.9 161l-4.5-9 .8-3.5L68 158.6z"/><path fill="#0e0e0e" fill-opacity=".5" d="M70 102l22 25-18-70z"/><path fill="#8d8d8d" fill-opacity=".6" d="M21.8 143l-37.7 13.9 54.5-34.3-42.4-60.7z"/><circle r="1" fill="#fff" fill-opacity=".5" transform="rotate(-104 127.6 85.1) scale(33.05253 5.80464)"/><path fill="#cdcdcd" fill-opacity=".9" d="M89.1 170.8l-28.8-60.7 40.3 51.7-8.9 61.1z"/><path fill="#fff" fill-opacity=".4" d="M156.2 37.8l-5.7 2.7-42.6 9.2 23.7-13.4z"/><circle r="1" fill="#bdbdbd" fill-opacity=".5" transform="matrix(26.8691 -20.7668 2.07269 2.68174 8.5 197.6)"/><path fill="#0a0a0a" fill-opacity=".5" d="M7 199h57v46H7z"/><path fill="#060606" fill-opacity=".5" d="M161 33h9v124h-9z"/><path fill="#bebebe" fill-opacity=".5" d="M-12.8 27.9l.8-12L48.8 20 48 32z"/><ellipse cx="103" cy="95" fill="#fff" fill-opacity=".7" rx="1" ry="45"/><circle r="1" fill="#f5f5f5" fill-opacity=".6" transform="matrix(-.99998 -.00594 .20205 -33.99038 159.9 58.1)"/><path fill="#f2f2f2" fill-opacity=".5" d="M109 159l9-8-1-24z"/><path fill="#7c7c7c" fill-opacity=".6" d="M171 14L84-16 71 7z"/><path fill="#848484" fill-opacity=".7" d="M153.7 139l3.2-13.6L140 63.1l-9.4 2.1z"/><path fill="#fff" fill-opacity=".7" d="M130.8 132.1l.3-7.2-5.9-34.8 22.1 40.9z"/><path fill="#fff" fill-opacity=".5" d="M59.9 217.2l20.4.8 5.9 24.6-6.9 28.4z"/><path fill="#0a0a0a" fill-opacity=".6" d="M156.1 31.1l-.8 39.2 1.2 21.3-12.4-6.7z"/><path fill="#232323" fill-opacity=".4" d="M114 161.5l1.5 88.3-14.3-87.8L87 111.9z"/><circle r="1" fill="#d9d9d9" fill-opacity=".8" transform="matrix(-.04933 .99878 -160.24832 -7.91425 137.4 26.4)"/><path fill="#ddd" fill-opacity=".6" d="M145.3 213.9l12.9-69.6-1.3 26.9 3.7 32.3z"/><path fill="#0a0a0a" fill-opacity=".5" d="M174.5 254.2l-10.7 19.3-46.3-25.7 10.7-19.3z"/><ellipse cx="160" cy="155" fill-opacity=".5" rx="4" ry="27"/><path fill="#fcfcfc" fill-opacity=".7" d="M-5.4 265.7l-5.5-12.8 20.3-8.6 5.5 12.8z"/><path fill="#0a0a0a" fill-opacity=".5" d="M59 147.4l-22-1.9 2-23 22 2z"/><path fill-opacity=".6" d="M12 136.6l-32.8-35 8.8-8.2 32.8 35z"/><path fill="#666" fill-opacity=".8" d="M86.4 267.8l-.7-23.1 38.3 5.8-.6 20.5z"/><circle cx="114" cy="10" r="4" fill="#fff" fill-opacity=".7"/><path fill="#787878" fill-opacity=".5" d="M117 162l41-15-37 38z"/><path fill-opacity=".5" d="M130.9 45.8l23.9 2.5-1.7 16-23.9-2.6z"/><path fill="#fff" fill-opacity=".6" d="M90 29.5h1l3 85h-1z"/><path fill="#dcdcdc" fill-opacity=".7" d="M129.7 48l-1.4 38h-2l1.4-38z"/><path fill-opacity=".5" d="M98 60h4v61h-4zM17 188l-21-13 32-50z"/><path fill="#040404" fill-opacity=".6" d="M85 33h5v53h-5z"/><path fill="#090909" fill-opacity=".6" d="M16 53h19v44H16z"/><path fill="#5c5c5c" d="M-16 232.3l26.6-34.1.5 36.5L-16 164z"/><path fill="#fff" fill-opacity=".4" d="M40 81.8l11 1.5-1 7-11-1.6z"/><path fill="#666" d="M106.2 194.8l14.2 76.2.9-64.9-3.8-5.6z"/><path fill="#ddd" fill-opacity=".5" d="M62 115h21v18H62z"/><path fill="#dedede" fill-opacity=".3" d="M34.4 253.5l22 10 2.3-23-17.2 2.3z"/><path fill="#1a1a1a" fill-opacity=".4" d="M75.7 159.3l-2.9 56.2 18.2-23-48.5-60.9z"/><path fill="#fff" fill-opacity=".6" d="M136 95h8v32h-8z"/><path fill="#cbcbcb" fill-opacity=".7" d="M96.5 122.6l5.9-1 3.1 19.8-5.9 1z"/><path fill="#191919" fill-opacity=".5" d="M160 163h8v88h-8z"/><path fill="#3d3d3d" fill-opacity=".5" d="M93 32h5v87h-5z"/><path fill="#fbfbfb" fill-opacity=".7" d="M169 224h1v28h-1z"/><path fill="#5d5d5d" fill-opacity=".5" d="M127 133h26v36h-26z"/><path fill="#818181" fill-opacity=".9" d="M81.2 161.5L68 131l-7 16.8 30.8 24.5z"/></g></svg>