<svg xmlns="http://www.w3.org/2000/svg" viewBox="0 0 300 199"><defs/><path fill="#443360" d="M0 0h300v199H0z"/><g transform="translate(.6 .6) scale(1.17188)"><path fill="#988b8e" fill-opacity=".7" d="M26 0l198-16-103 150z"/><circle r="1" fill="#d5e8f6" fill-opacity=".7" transform="matrix(46.51734 -37.19789 8.355 10.44823 241 83.4)"/><circle r="1" fill="#020600" fill-opacity=".6" transform="matrix(-18.77206 -15.38862 49.916 -60.89087 232.1 35.4)"/><circle r="1" fill="#010606" fill-opacity=".7" transform="matrix(-31.7626 -22.3539 24.9145 -35.40098 255 139)"/><circle r="1" fill="#715600" fill-opacity=".4" transform="matrix(-37.05503 3.03262 -6.28372 -76.7796 20.3 57)"/><path fill="#ffffd6" fill-opacity=".5" d="M124.9 152.1l27.5-4.8 4.7 26.6-27.5 4.8z"/><circle r="1" fill="#e5fcf8" fill-opacity=".6" transform="rotate(-145.8 56.1 -4.4) scale(15.23495 8.87214)"/><circle r="1" fill="#6a5b67" fill-opacity=".6" transform="rotate(30.6 -157.5 327.6) scale(91.74894 27.65072)"/><circle r="1" fill-opacity=".5" transform="matrix(-53.01784 29.04018 -5.56206 -10.1545 16.9 98.6)"/><path fill="#7e6b73" fill-opacity=".6" d="M0 148L142 8l65 32z"/><circle r="1" fill="#c7b4a7" fill-opacity=".4" transform="matrix(10.59032 8.08174 -19.9304 26.11682 141.3 79.6)"/><circle r="1" fill="#162732" fill-opacity=".6" transform="matrix(16.09374 -9.4163 19.876 33.97081 91.7 147.3)"/><path fill="#4c8fb8" fill-opacity=".4" d="M76 124L103-9 63 9z"/><path fill="#cda49d" fill-opacity=".6" d="M207 116l-14.4 29.7L181 140l14.5-29.7z"/><path fill="#3c2d33" fill-opacity=".5" d="M84 51h48v18H84z"/><path fill="#a0846a" fill-opacity=".5" d="M32 18h27v49H32z"/><ellipse cx="13" cy="23" fill="#aa8240" fill-opacity=".6" rx="9" ry="32"/><path fill="#e1d8e6" fill-opacity=".4" d="M98.3 2.9L132.4 31l5.2-47-27.4 57.1z"/><path fill="#bfcfe8" fill-opacity=".6" d="M255 91l11-65-44 76z"/><path fill="#856f59" fill-opacity=".7" d="M214.5 65.7l4.8-35.2 2.5-.5-2.6 50.4z"/><path fill="#000a00" fill-opacity=".4" d="M60 44h10v50H60z"/><path fill="#dfdfd5" fill-opacity=".6" d="M135 33l-3 32 13-23z"/><path fill="#170c1d" fill-opacity=".6" d="M140-2l-10 37 14 1z"/><circle r="1" fill="#00000f" fill-opacity=".5" transform="matrix(16.7452 -1.91734 7.40194 64.64529 229.3 0)"/><circle r="1" fill="#352a42" fill-opacity=".7" transform="matrix(7.6778 28.498 -17.65544 4.75665 217.4 153.9)"/><ellipse cx="177" cy="14" fill="#914e89" fill-opacity=".5" rx="37" ry="29"/><path fill="#a79e9f" fill-opacity=".6" d="M173.8 92.3l-16.9-37.2 17.8-9.1-3.7 10z"/><path fill="#87626f" fill-opacity=".6" d="M271 20l-22 13-6-20z"/><path fill="#25262f" fill-opacity=".8" d="M197.6 112l-16.8-.8-8.7-54.2 31.7 42.9z"/><ellipse cx="119" cy="5" fill="#000c13" fill-opacity=".4" rx="5" ry="18"/><path fill="#ab9591" fill-opacity=".7" d="M76.1-16L56.4 33.2l-9.3 12.4-2.8-48.7z"/><circle r="1" fill="#2e1c1b" fill-opacity=".4" transform="matrix(-11.33932 -2.9191 21.29789 -82.73204 10.3 120.7)"/><circle r="1" fill="#163870" fill-opacity=".5" transform="matrix(5.28342 .49013 -4.73296 51.01972 87.4 90.1)"/><path fill="#2f0002" fill-opacity=".3" d="M132.7 120.5l-40.8-8.2 41.8-10.1-39.9-14.7z"/><path fill="#612e2d" fill-opacity=".5" d="M221.7 47.1l-40.6.7-41.7 7.8L154.2 33z"/><circle cx="48" cy="105" r="15" fill="#b3937f" fill-opacity=".4"/><path fill="#210906" fill-opacity=".5" d="M49.7-16l-10 17.7 4.6 50.1 1.3-65.2z"/><path fill="#aec4fb" fill-opacity=".5" d="M147.4 119.5l5.7 4.1-6.5 9-5.7-4.2z"/><ellipse cx="77" cy="79" fill="#8da7c8" fill-opacity=".4" rx="6" ry="32"/><path fill="#b9b9a8" fill-opacity=".4" d="M155.2 157.9l29.2 19.7-58.3 2.6v-28z"/><path fill="#604754" d="M203 25.6l23.7 16.8L191.4-.1l13.8 50.8z"/><path fill="#000402" fill-opacity=".5" d="M203 80l-30-26 42-2z"/><path fill="#e5ddc9" fill-opacity=".6" d="M49 61h12v6H49z"/><path fill="#a5a592" fill-opacity=".5" d="M23 60h4v29h-4z"/><path fill="#1e1613" fill-opacity=".8" d="M2.1 71.2L62.6 77l8.8 16.9L4.7 75.2z"/><path fill="#003167" fill-opacity=".6" d="M99 123L60 98l12 33z"/><circle r="1" fill="#6e4223" fill-opacity=".4" transform="rotate(89.9 5.5 175) scale(8.89698 45.54345)"/><path fill="#077889" fill-opacity=".5" d="M168 74l-15-1 10 17z"/><path fill="#1e0803" fill-opacity=".7" d="M23 0h5v38h-5z"/><circle r="1" fill="#c3aaca" fill-opacity=".6" transform="matrix(6.06234 -31.87912 5.99692 1.14041 131.1 3)"/><circle r="1" fill="#0a0100" fill-opacity=".5" transform="rotate(-106.8 12.2 14.5) scale(27.08199 3.2655)"/><path fill="#1f0e03" fill-opacity=".5" d="M44 40h4v30h-4z"/><path fill="#5a2e16" fill-opacity=".5" d="M208.5 95.2l-8-9 17-15.4 8 9z"/><circle r="1" fill="#020404" fill-opacity=".6" transform="matrix(-7.82371 8.71806 -26.27752 -23.58181 244.6 138.6)"/><ellipse cx="165" cy="18" fill="#f3aeff" fill-opacity=".1" rx="8" ry="65"/><path fill="#948c98" fill-opacity=".4" d="M102.8 70.2l3 28.7 13.3-35.1 55.2-68.5z"/><path fill="#aca48b" fill-opacity=".6" d="M24 66l3-16.5 3 .5-3.2 16.7z"/><path fill="#311a02" fill-opacity=".3" d="M131.8 70l-28.3 25.5 12.1 19 7.8-79.9z"/><path fill-opacity=".4" d="M149.9 46.6l2 10.8-9.8 2-2-10.8z"/><ellipse cx="146" fill="#a481da" fill-opacity=".4" rx="5" ry="45"/><path fill="#010407" fill-opacity=".7" d="M217.9 82.6l24.2-18.3 12.6-16.5-30.1-10.7z"/><path fill="#000200" fill-opacity=".5" d="M63.4 62.1L51.6 48.5l3-2.6 11.8 13.6z"/><ellipse cx="209" cy="107" fill="#777d8d" fill-opacity=".3" rx="8" ry="22"/><path fill="#483c54" fill-opacity=".6" d="M136 99l23 40 16-58z"/><circle r="1" fill="#3c3132" fill-opacity=".6" transform="matrix(8.09323 -17.5922 23.10803 10.63077 102.4 156.5)"/></g></svg>