<svg xmlns="http://www.w3.org/2000/svg" viewBox="0 0 300 199"><defs/><path fill="#61382c" d="M0 0h300v199H0z"/><g transform="translate(.6 .6) scale(1.17188)"><ellipse cx="77" cy="133" fill="#d9ffd9" fill-opacity=".5" rx="99" ry="51"/><path fill="#00070c" fill-opacity=".7" d="M130.6 72.6l130.8-85 18 27.8-130.8 85z"/><circle cx="239" cy="169" r="83" fill="#283136" fill-opacity=".8"/><circle r="1" fill="#d4ffff" fill-opacity=".3" transform="rotate(-18.8 410 -432.8) scale(93.61962 22.76766)"/><path fill="#371706" fill-opacity=".6" d="M47.4 84l19.5-38.3L118.6 72l-19.5 38.3z"/><ellipse cx="128" cy="156" fill="#fcffff" fill-opacity=".5" rx="19" ry="39"/><circle cx="141" cy="14" r="51" fill="#5d7a97" fill-opacity=".4"/><path fill="#1f3000" fill-opacity=".5" d="M34.3 100l29.1 22.8L43.7 148l-29.1-22.8z"/><circle r="1" fill="#36446f" fill-opacity=".7" transform="matrix(40.46264 -32.27457 17.01775 21.33515 237.4 75.5)"/><path fill="#ffbaa6" fill-opacity=".5" d="M152 5h36v20h-36z"/><circle r="1" fill="#090000" fill-opacity=".7" transform="rotate(162.4 37.1 17.7) scale(11.50991 48.05173)"/><path fill="#d5bcad" fill-opacity=".4" d="M137 49l-11 54-25-34z"/><path fill-opacity=".6" d="M182.2 169.6l-37.2-27 8.8-12.2 37.2 27z"/><circle cx="180" cy="90" r="11" fill="#effff0" fill-opacity=".6"/><ellipse cx="248" cy="158" fill="#00000a" fill-opacity=".7" rx="42" ry="34"/><path fill="#555d37" fill-opacity=".7" d="M93.5 180.3L12 90.5l73.2 58.1 25.5-6.6z"/><path fill="#0d0400" fill-opacity=".5" d="M144 45h25v60h-25z"/><path fill="#be9280" fill-opacity=".5" d="M36 23l18 40-70-34z"/><path fill="#fdd5ca" fill-opacity=".5" d="M17 145l-33-25 38-38z"/><ellipse cx="21" cy="65" fill="#070000" fill-opacity=".7" rx="16" ry="17"/><path fill="#fbffff" fill-opacity=".6" d="M46 139l-19 17 9 29z"/><path fill="#581900" fill-opacity=".4" d="M34 142l-30.3 1.6 5.6 27.7 11.5 10.8z"/><path fill="#e0e4d4" fill-opacity=".6" d="M86 152l-22-33 46-17z"/><circle r="1" fill="#e0edbe" fill-opacity=".5" transform="matrix(-.9383 -5.03953 23.51712 -4.3786 173.6 116.5)"/><circle r="1" fill-opacity=".6" transform="matrix(-18.3115 -20.16694 26.99591 -24.51217 231.7 17.4)"/><path fill="#aea082" fill-opacity=".4" d="M214 123l-12 35-12-27z"/><circle r="1" fill="#3b4859" fill-opacity=".7" transform="matrix(-22.34494 -42.74194 25.63882 -13.40365 112.8 7.5)"/><path fill="#e3fdba" fill-opacity=".3" d="M30 152h57v16H30z"/><path fill="#77382a" fill-opacity=".3" d="M78.6 21.3l-77.2 107 23.8-.8 40.9-44.1z"/><path fill="#e2cbc5" fill-opacity=".6" d="M22.7 85L-16 148.7l26.9-54.9 52.7 7.5z"/><path fill="#63661d" fill-opacity=".5" d="M96 82l27 12 5 29z"/><path fill="#160e00" fill-opacity=".5" d="M181 111l-34-61-16 41z"/><path fill="#babcad" fill-opacity=".6" d="M55 185l111-7-18-36z"/><path fill="#3d5128" fill-opacity=".5" d="M146 107l11.4 25.6-5.4 2.4-11.4-25.6z"/><path fill="#2a262f" fill-opacity=".6" d="M198 26l-2 60-55-24z"/><circle cx="136" cy="106" r="10" fill="#fff" fill-opacity=".4"/><path fill="#071300" fill-opacity=".6" d="M95.1 146.6l6.9 6.7-9.8 13.3-6.5-17z"/><circle r="1" fill="#dedfc8" fill-opacity=".5" transform="matrix(-2.42942 -13.33036 9.06581 -1.65222 166.4 119)"/><circle r="1" fill="#0c0b00" fill-opacity=".6" transform="matrix(5.42073 -11.68122 19.39378 8.99978 172.2 151)"/><circle cx="82" cy="101" r="6" fill="#c7d38c" fill-opacity=".7"/><ellipse cx="68" cy="77" fill="#3d160c" fill-opacity=".5" rx="35" ry="17"/><path fill="#353513" fill-opacity=".6" d="M65.1 140.3l18-.4-7.2 15.1-1.6 8.9z"/><path fill="#f0c6a0" fill-opacity=".4" d="M10.9 76.5L-.8 85.9l-10-12.4L.7 64.1z"/><path fill="#f5f7fa" fill-opacity=".5" d="M113 121h16v39h-16z"/><circle r="1" fill="#fddac7" fill-opacity=".3" transform="matrix(7.4309 8.87103 -4.25896 3.56756 33.4 48.5)"/><path fill="#f4f4f6" fill-opacity=".2" d="M33.3 87.1l45.2 60.2L61 84.5l8.2 21.7z"/><path fill="#102900" fill-opacity=".5" d="M48 167h27v3H48z"/><path fill="#878073" fill-opacity=".8" d="M189.9 149.5l19.8 1-21.2-15.6 31.3-8.2z"/><path fill="#030607" fill-opacity=".4" d="M-.6 69.6l21.4-45.5-21.2-.2 28.5 39.4z"/><path fill="#573a20" fill-opacity=".5" d="M100.8 95.1l.3-36.5L82.6 106l21 7.5z"/><path fill="#1e202d" fill-opacity=".7" d="M228.5 149.2l30.5-27.4-53.7 4.6-10.6-52.2z"/><path fill="#fadfd9" fill-opacity=".5" d="M153.5 26.5l-6-42.6 3-.4 6 42.6z"/><path fill="#463b43" fill-opacity=".4" d="M166 13l-15 48 41-2z"/><path fill="#693a1b" fill-opacity=".4" d="M120.7 72.9l4.3 30.6 17.7-10.9 6.5-8.8z"/><path fill="#a4be8c" fill-opacity=".5" d="M188 84l-13 37 26-8z"/><path fill="#3f4c2c" fill-opacity=".6" d="M139 119.8l9.5-11.1-6.9.8 19.3 30.4z"/><path fill="#635d31" fill-opacity=".6" d="M22 92l22 6-23 57z"/><path fill="#ab7a9a" fill-opacity=".7" d="M124.7 74.5l-5-22.8 21.3 19-2.4-17z"/><path fill="#272914" fill-opacity=".8" d="M184 118.6l81.5 13.8-70.1-12.6-45.3 42.5z"/><path fill="#855445" fill-opacity=".6" d="M61 27.4l-46.8 4.1-1.3-15 46.9-4z"/><path fill="#847f65" fill-opacity=".5" d="M142.1 131.5l26.7 44.5-44-18.4 32.9-4.2z"/><path fill="#d5d9d5" fill-opacity=".6" d="M153.6 132.8l-46 45-7.9-10.7 39.8-43.6z"/><path fill="#635f3f" fill-opacity=".5" d="M89.8 145.7l23.7-8.2-18.1-17.3 17.4 33z"/><path fill="#191a1a" fill-opacity=".7" d="M218.3 134L187 145.3l27-1.5 32 17.4z"/><path fill="#7c5145" fill-opacity=".8" d="M201.2-4.3l-8.9 8.4L157.5 8l-9.3-5.6z"/></g></svg>