<svg xmlns="http://www.w3.org/2000/svg" viewBox="0 0 298 450"><defs/><path fill="#6e4a3d" d="M0 0h298v450H0z"/><g transform="translate(.9 .9) scale(1.75781)"><circle r="1" fill="#f4fffb" fill-opacity=".7" transform="rotate(59.7 -53.2 122.5) scale(169)"/><circle r="1" fill="#634b29" fill-opacity=".5" transform="matrix(1.11825 49.2768 -23.67528 .53727 16 197.5)"/><circle r="1" fill="#380000" fill-opacity=".5" transform="rotate(-12.8 446.4 -474.9) scale(11.78886 26.97842)"/><ellipse cx="59" cy="112" fill="#fcfffe" fill-opacity=".8" rx="15" ry="221"/><circle r="1" fill="#9b8a7c" fill-opacity=".6" transform="matrix(39.873 29.6312 -46.08967 62.0202 115.8 248)"/><ellipse cx="109" cy="15" fill="#fff" fill-opacity=".9" rx="23" ry="45"/><ellipse cx="82" cy="19" fill="#190000" fill-opacity=".5" rx="5" ry="138"/><ellipse cx="38" cy="51" fill="#3b3625" fill-opacity=".5" rx="6" ry="130"/><ellipse cx="10" cy="79" fill="#fbffff" fill-opacity=".8" rx="24" ry="47"/><circle r="1" fill="#eff8fb" fill-opacity=".6" transform="matrix(-15.4556 -.54029 3.90904 -111.82245 159.7 82)"/><circle r="1" fill="#4d3118" fill-opacity=".2" transform="matrix(13.08883 2.00418 -14.62174 95.49124 128.2 96.4)"/><ellipse cx="93" cy="107" fill="#fff" fill-opacity=".5" rx="8" ry="73"/><path fill="#fff" fill-opacity=".7" d="M122 0h9v68h-9z"/><path fill="#f9f9f9" d="M47 233v23l-36-1z"/><path fill="#472f16" fill-opacity=".5" d="M13.9 170.8l.4 4.6 26.8 58.7L10.4 207z"/><ellipse cx="66" cy="135" fill="#f8f9f6" fill-opacity=".8" rx="12" ry="100"/><circle r="1" fill="#aea796" fill-opacity=".6" transform="matrix(-2.91446 -25.3487 36.45902 -4.19186 10.2 157.6)"/><ellipse cx="161" cy="11" fill="#6a7275" fill-opacity=".5" rx="2" ry="45"/><path fill="#c9bfb4" fill-opacity=".5" d="M107 132L35 271l74-57z"/><path fill="#6a452a" fill-opacity=".5" d="M136 87l-20 47-5-81z"/><path fill="#cbdde5" fill-opacity=".6" d="M-5.3 3.5l36-2 2.6 51-36 2z"/><path fill="#e5ddd4" fill-opacity=".5" d="M87 85h25v30H87z"/><path fill="#f8fcfa" fill-opacity=".6" d="M35 89L13 60l21 73z"/><ellipse cx="152" cy="39" fill="#fff" fill-opacity=".5" rx="6" ry="90"/><path fill="#fffffb" fill-opacity=".5" d="M97 143l-14 48-37 22z"/><ellipse cx="135" cy="31" fill="#532e2a" fill-opacity=".4" rx="3" ry="47"/><path fill="#aea499" fill-opacity=".5" d="M223.3 187.3l-7.3 29.1-119.3-29.7 7.3-29.1z"/><circle cx="134" cy="255" r="37" fill="#9c8c7d" fill-opacity=".8"/><circle r="1" fill="#e0ecf4" fill-opacity=".5" transform="matrix(-24.84602 -56.65515 2.84252 -1.24658 148 166)"/><ellipse cx="36" cy="132" fill="#4e483a" rx="1" ry="49"/><path fill="#141620" fill-opacity=".5" d="M80 0h4v68h-4z"/><ellipse cx="34" cy="23" fill-opacity=".3" rx="2" ry="70"/><path fill="#9ba19b" fill-opacity=".4" d="M162 58.6l-2 121-6-.2 2-121z"/><path fill="#81929a" fill-opacity=".5" d="M53.6 44L50.4-1.9l2-.1 3.2 45.9z"/><path fill="#a69d8f" fill-opacity=".8" d="M41 231L0 257l-16-28z"/><ellipse cx="80" cy="148" fill="#8e735c" fill-opacity=".6" rx="3" ry="19"/><path fill="#f7fafa" fill-opacity=".6" d="M131.4 84.9l-26.1-56.7 29.1-39-4 52.6z"/><path fill="#000200" fill-opacity=".5" d="M185 212l-21-16 21-24z"/><path fill="#c0c0b6" fill-opacity=".4" d="M26 112L3 207l-19-80z"/><path fill="#5a4231" fill-opacity=".5" d="M101 65.4l8.3-7.2L127 78.6l-8.3 7.2z"/><path fill="#f9ffff" fill-opacity=".7" d="M49.1 79.4l-2 .1L43-1.4l2-.1z"/><ellipse cx="43" cy="124" fill="#877c6b" fill-opacity=".6" rx="2" ry="62"/><path fill="#fbfcfb" fill-opacity=".8" d="M121.8-16L86.9 38.5l.4 11.7 44.8 14.9z"/><path fill="#ac9d8f" fill-opacity=".7" d="M141.1 154l5.1 86.3-43.6-70 6.5-52.9z"/><path fill="#532b00" fill-opacity=".2" d="M27.1 195.3L-16 215.7l26.4 10.2 9.2-116.3z"/><ellipse cx="73" cy="26" fill="#ccd1d0" fill-opacity=".7" rx="4" ry="49"/><path fill="#dacebb" fill-opacity=".5" d="M38 130h5v92h-5z"/><path fill="#feffff" fill-opacity=".6" d="M164 0h6v80h-6z"/><circle r="1" fill="#9a9e9c" fill-opacity=".6" transform="matrix(.5395 -1.73743 28.99741 9.00413 157.9 29.4)"/><path fill="#fefefc" fill-opacity=".5" d="M154.9 142.2l-1.7 35.9-12.5-27.2 6-57z"/><path fill="#f5f7f6" fill-opacity=".5" d="M112 106l-27 57 7-64z"/><path fill="#e6d3be" fill-opacity=".4" d="M82 156l11-14-7-29z"/><ellipse cx="141" cy="21" fill="#9fa49f" fill-opacity=".6" rx="5" ry="100"/><path fill="#303a50" fill-opacity=".4" d="M78.4 20l4.3-41 9 1-4.4 40.8z"/><path fill="#7c543d" fill-opacity=".6" d="M131.3 77.6l-20.2 25.1 6.2 22.8 16.5-22.1z"/><path fill="#f7fbfa" fill-opacity=".6" d="M5 52h29v60H5z"/><path fill="#bdbdb4" fill-opacity=".6" d="M136.8 181.4l-5.2-98.6 29.7-4.5-25.7 15.8z"/><path fill="#866d55" fill-opacity=".7" d="M38.7 234.7l-54.5-34.6 54.9 19.8-.5 20.3z"/><path fill="#1a1306" fill-opacity=".5" d="M37.6 232l-26-41.5.8-.5 26 41.5z"/><path fill="#bfbcaa" fill-opacity=".5" d="M29 117h6v96h-6z"/><path fill="#ac7d6c" fill-opacity=".5" d="M102 67h7v31h-7z"/><path fill="#d3b7a7" fill-opacity=".8" d="M91 95.6L78.8 69.7l22.1 28.6-15-6.9z"/><ellipse cx="34" cy="10" fill="#4e5250" fill-opacity=".5" rx="3" ry="25"/><path fill="#eef7fa" fill-opacity=".8" d="M89 79.6l19.6-23.9 25.3 7.7-43.4-15.8z"/><path fill="#242018" fill-opacity=".5" d="M35 50h1v77h-1z"/></g></svg>