<svg xmlns="http://www.w3.org/2000/svg" viewBox="0 0 298 450"><defs/><path fill="#52352d" d="M0 0h298v450H0z"/><g transform="translate(.9 .9) scale(1.75781)"><circle r="1" fill="#fffeef" fill-opacity=".5" transform="rotate(25.4 -414.6 194.6) scale(63.42286 141.12474)"/><circle r="1" fill="#fff" fill-opacity=".3" transform="matrix(-10.50719 -11.62853 79.89662 -72.19214 137 63.9)"/><circle cx="100" cy="32" r="39" fill="#020100" fill-opacity=".7"/><circle r="1" fill="#010000" fill-opacity=".6" transform="matrix(-17.49143 5.148 -15.73318 -53.45675 23.8 79)"/><circle r="1" fill="#07111c" fill-opacity=".7" transform="rotate(165.9 66 111) scale(46.22235 64.56993)"/><circle r="1" fill="#ccc9e3" fill-opacity=".6" transform="matrix(-7.50281 38.00242 -8.17769 -1.61452 146.4 125.4)"/><ellipse cx="57" cy="78" fill="#a47768" fill-opacity=".8" rx="21" ry="32"/><path fill="#cc9177" fill-opacity=".5" d="M126.6-7.7l52.8 4.6-4 44.8-52.8-4.6z"/><circle r="1" fill="#020400" fill-opacity=".7" transform="matrix(-58.99783 62.38845 -30.30499 -28.658 23.3 11)"/><path fill="#e1c1ae" fill-opacity=".7" d="M-23 132.8l20.8-31.9 25.1 16.3-20.7 31.9z"/><path fill="#d2f5fe" fill-opacity=".6" d="M160 69l-78-1 7 37z"/><path fill="#322d10" fill-opacity=".7" d="M69 141l-14 35 43-7z"/><circle r="1" fill="#daebfd" fill-opacity=".5" transform="matrix(4.40001 24.2117 -46.71204 8.48902 45.5 255)"/><circle r="1" fill="#605d52" transform="rotate(174.4 45 119.8) scale(16.89541 23.56929)"/><ellipse cx="130" cy="103" fill="#000816" fill-opacity=".7" rx="11" ry="17"/><path fill="#150100" fill-opacity=".5" d="M75 48h87v20H75z"/><circle r="1" fill="#dbd4bf" fill-opacity=".5" transform="rotate(107.6 4.8 101.2) scale(28.29032 16.23586)"/><ellipse cx="33" cy="184" fill="#ccc5bf" fill-opacity=".6" rx="15" ry="31"/><path fill="#353e15" fill-opacity=".7" d="M78.7 124l.8 46.2-34.6-16.8 14.8 33.5z"/><path fill="#e8e1c1" fill-opacity=".5" d="M117.3 229.6l-7.1-18.8-20.2-8.1 21.8-14.6z"/><path fill="#501c0a" fill-opacity=".5" d="M21.9 104.2l3.9 50.9 35.8-60.3-8.3-7.8z"/><path fill-opacity=".5" d="M83 96l-5-26-7 32z"/><path fill="#0c0e14" fill-opacity=".8" d="M117 161h53v95h-53z"/><path fill="#dcd1c4" fill-opacity=".6" d="M99 226h8v30h-8z"/><path fill="#170c15" fill-opacity=".7" d="M161.4 159.7l-13.8-2.7 13-66.7 13.8 2.7z"/><path fill="#cabbad" fill-opacity=".6" d="M59.1 161.3l-19.4-28.8L45 106l24.4 56.2z"/><ellipse cy="98" fill="#b1b3ad" fill-opacity=".8" rx="3" ry="25"/><path fill-opacity=".5" d="M97.8 252.3l-11.5-49.7 4-.9 11.4 49.7z"/><path fill="#f0d1c1" fill-opacity=".4" d="M67 54L43 35l6 37z"/><path fill="#000c15" fill-opacity=".7" d="M148.5 79.9l-21 5.6 19.1 17.2 13.9-32.1z"/><path fill="#312c00" fill-opacity=".4" d="M73.2 127.7l-7.5 20.5-9.8-6.8 48.6-10.2z"/><path fill="#0c0803" fill-opacity=".7" d="M126 72.5l11.3-16.8L58.2-16-9.4-1.8z"/><path fill="#290d01" fill-opacity=".4" d="M135 182.4l-19.6-29 6.8 62.1-26.7-58.8z"/><circle r="1" fill="#834d3c" fill-opacity=".6" transform="rotate(-144.8 89 4) scale(47.49081 11.68872)"/><circle r="1" fill="#625434" fill-opacity=".5" transform="rotate(140 .2 99.7) scale(4.91201 39.54984)"/><path fill="#4f4c3a" fill-opacity=".5" d="M122 125l-8 25 36 22z"/><path fill="#c7cce3" fill-opacity=".4" d="M143 115l21-35-19 71z"/><ellipse cy="168" fill="#cda08a" fill-opacity=".6" rx="22" ry="60"/><path fill="#e4bfce" fill-opacity=".4" d="M63 98l-16 51 40-45z"/><circle r="1" fill="#9b705c" fill-opacity=".6" transform="matrix(-2.21792 -6.08092 75.58907 -27.56995 22.1 227.7)"/><path fill="#0f0000" fill-opacity=".4" d="M59.8 114.4L25 109.5l1.1-7.9 34.7 4.9z"/><path fill="#999786" d="M125.9 148.5l-1.1 7.2-18.1 7.6 21-25.6z"/><path fill="#c2937e" fill-opacity=".5" d="M158.6 5.4L138.9 32l21.5 18.1 24.6-8.5z"/><path fill="#050000" fill-opacity=".4" d="M73.4 63.9l73-45.1-16.4-6.7L104.6-16z"/><path fill-opacity=".5" d="M108 229h4v25h-4z"/><circle r="1" fill="#c89c87" fill-opacity=".7" transform="matrix(47.56249 -10.88424 2.15847 9.43218 30.9 211.5)"/><path fill="#c7cdbc" fill-opacity=".7" d="M119.2 138.3l-34.7 22.9-4.9-12.7 3.7-15.5z"/><path fill="#eca999" fill-opacity=".5" d="M88 163l2 42-15-34z"/><circle cx="67" cy="244" r="25" fill="#bac1c8" fill-opacity=".4"/><path fill="#d89380" fill-opacity=".5" d="M33 83h13v11H33z"/><path fill="#221912" fill-opacity=".5" d="M-16 47L61.5-.7 42.6 64.7-16 81.9z"/><path fill="#d5e5e3" fill-opacity=".5" d="M125.5 89.4l-9.7-19.9-16.2 45.1 9.6 4.6z"/><path fill="#000511" fill-opacity=".5" d="M118 101h13v12h-13z"/><path fill="#110a01" fill-opacity=".5" d="M9.3 110.8L-4.3 1.3l46.3 72 8.3-.2z"/><circle r="1" fill="#d7dacb" fill-opacity=".6" transform="rotate(91.1 -46.5 152.1) scale(7.20639 9.37472)"/><path fill="#e8bdaf" fill-opacity=".5" d="M75.9 63.2L65.6 74.1l-15.1.1 9.3 18z"/><path fill="#fbc6c6" fill-opacity=".2" d="M143.2 169.2l-11.3 10.4 15.5-67.9 5.4 34.4z"/><path fill="#c6958d" fill-opacity=".5" d="M126.9 112.4l-89.8 16.2 41.3-.4 51.4 3.6z"/><path fill="#201209" fill-opacity=".4" d="M157-13.7l23.6 11-7.6 16.4-23.6-11z"/><circle r="1" fill="#17170d" fill-opacity=".6" transform="matrix(11.78728 5.403 -4.39145 9.58047 85.6 59.9)"/><path fill="#242200" fill-opacity=".4" d="M100.8 152.5L117 160l-3.6-8.6-12.6 15.9z"/><path fill="#b5b9a6" fill-opacity=".6" d="M80 89l35 16-28 3z"/><path fill="#120700" fill-opacity=".4" d="M64.3 170.8l8.7-26.3 4.4 13.4 19.7 3.3z"/><path fill="#1b0b13" fill-opacity=".6" d="M161 83h9v61h-9z"/><ellipse cx="114" cy="230" fill="#f7dfd8" fill-opacity=".4" rx="3" ry="11"/></g></svg>