<svg xmlns="http://www.w3.org/2000/svg" viewBox="0 0 300 199"><defs/><path fill="#664539" d="M0 0h300v199H0z"/><g transform="translate(.6 .6) scale(1.17188)"><circle r="1" fill="#d2d3c8" fill-opacity=".6" transform="matrix(33.27518 94.48999 -59.15304 20.83107 189.9 152.3)"/><circle r="1" fill="#d6d7cb" fill-opacity=".7" transform="rotate(83.1 -18.1 16.7) scale(81.61313 20.93389)"/><circle r="1" fill-opacity=".6" transform="matrix(11.98095 -38.58393 243.5295 75.61997 178.6 12.2)"/><circle r="1" fill-opacity=".6" transform="matrix(-19.91172 33.46626 -18.30703 -10.8923 247.5 76.7)"/><ellipse cx="200" cy="64" fill="#7f5e47" rx="10" ry="41"/><path fill="#8b8379" fill-opacity=".6" d="M39 46l53 139-94-74z"/><circle r="1" fill="#060205" fill-opacity=".6" transform="matrix(-17.51106 -4.26639 17.6235 -72.33433 79.8 26.7)"/><circle r="1" fill="#63799d" fill-opacity=".7" transform="matrix(-8.37945 -23.4029 18.27836 -6.5446 95.8 94.6)"/><path fill="#e9efe7" fill-opacity=".5" d="M132 176l1-21-39 10z"/><path fill="#d8cbba" fill-opacity=".5" d="M163 33h14v100h-14z"/><circle r="1" fill="#adaca7" fill-opacity=".6" transform="matrix(-23.39187 25.13126 -22.32817 -20.78278 238.1 142)"/><path fill="#e7e4dc" fill-opacity=".8" d="M-12 129L-16-5l39-10z"/><circle r="1" fill="#91a8d2" fill-opacity=".4" transform="rotate(-27.1 114.7 -201.6) scale(29.14601 3.79489)"/><path fill="#8c725a" d="M119.4 63l42.3-20.5 3.5-12.4-38.3 98.7z"/><path fill="#000b14" fill-opacity=".6" d="M125.3 128.7l-11.2 21.2-27.4-14.6 11.2-21.2z"/><path fill="#796354" fill-opacity=".7" d="M69 62L12 20l16 100z"/><path fill="#b0bac1" fill-opacity=".4" d="M51 127l6 58 20-90z"/><path fill="#3e1c13" fill-opacity=".6" d="M130 79L42-16 32 48z"/><circle r="1" fill-opacity=".6" transform="matrix(-27.64573 -75.17768 13.21519 -4.85973 226.2 33.7)"/><path fill="#c1a297" d="M201.7 102.5l18.4-10.6 1.5-20-7.6-4z"/><path fill="#f7f0e8" fill-opacity=".6" d="M151.1 134l-15.2-18 5.5-19.1 11.4 25.9z"/><path fill-opacity=".6" d="M135.4 7.9l56.7-12 6.5 30.2-56.7 12z"/><path fill="#0e0600" fill-opacity=".6" d="M77.9 110.1l20.6-11.2-46.4-8.5 21.6-27.8z"/><path fill="#695443" fill-opacity=".8" d="M184.2 65.8l1.6 32.1 25.1-11.7-19.1-45.1z"/><path fill="#f5eadf" fill-opacity=".5" d="M28.7 15.5L-8.6 9.2-16 44.8 33.2-1.4z"/><circle r="1" fill-opacity=".7" transform="rotate(-117.2 54.4 -23) scale(13.1761 37.1573)"/><path fill="#ecbd97" fill-opacity=".5" d="M134 16l-14-1-14 20z"/><path fill="#f7efed" fill-opacity=".5" d="M124 137h7v32h-7z"/><path fill="#c48053" fill-opacity=".5" d="M197 0h6v27h-6z"/><path fill="#adbcdf" fill-opacity=".4" d="M104.9 121.5L96 62.3l19.8 56.1-7.8 4.3z"/><path fill="#836656" fill-opacity=".9" d="M143.4 129.3l-23.5-27.6 15 41.8-3.9 22z"/><path fill="#d6c3c7" fill-opacity=".2" d="M129 65l114 24-64 21z"/><path fill="#424d52" fill-opacity=".5" d="M113 157l-35-56-16 83z"/><path fill="#4f341d" fill-opacity=".8" d="M109.9 33.8l11.5-11L140 42.1l-11.5 11z"/><circle r="1" fill="#010b10" fill-opacity=".5" transform="matrix(-2.26437 24.78566 -4.03647 -.36876 117.7 124)"/><path fill="#7fb1ff" fill-opacity=".3" d="M76.7 86.1l-6.6 26.8 31.1-41.3-11.5-1.2z"/><path fill="#816c60" fill-opacity=".7" d="M228 118.1l18.1-9.7-36.3-4.9 12.1 28.2z"/><path fill="#fffff8" fill-opacity=".4" d="M-1.9 89.2l29.7-2.6 1 12.3L-16 41.3z"/><path fill="#e6f2f0" fill-opacity=".5" d="M156 3l-29-14 49-5z"/><circle r="1" fill="#4a4236" fill-opacity=".5" transform="matrix(-21.43518 -7.45289 11.96812 -34.42141 23.2 154)"/><path fill="#001" fill-opacity=".5" d="M108.4 24.6l4 3.2-20.8 25.6-4-3.2z"/><path fill="#382f24" fill-opacity=".4" d="M143.2 81.1l-29.7 20.5-35.2-69.8 52.9 80.5z"/><path fill="#141008" fill-opacity=".8" d="M127.8 49.4l26.3-1.1-9.6 3.8L184.8-16z"/><path fill="#8c8575" fill-opacity=".4" d="M-2.1 47.9L-16-6.2l48.6 131.9L18.5 7.5z"/><path fill="#ae9480" fill-opacity=".4" d="M132.9 55.7l23.3-17.5 8.2 30.5L170 185z"/><path fill="#6a4830" fill-opacity=".9" d="M177.1 32.1l-28.6 16.7 20.5 7.3-4.9-24.5z"/><path fill="#d9f8fb" fill-opacity=".3" d="M250.3-11.4L225.8 6.5 239.1 9l-4-25z"/><path fill="#060603" fill-opacity=".6" d="M174 17.4l22.7-3.6 3.3 20.8-22.7 3.6z"/><circle r="1" fill="#000812" fill-opacity=".5" transform="rotate(-95.3 93.3 27.4) scale(6.58666 5.98157)"/><path fill="#290000" fill-opacity=".6" d="M149.8 99.2l-.6 8-5-.4.6-8z"/><path fill="#f3ede7" fill-opacity=".4" d="M142.6 108.1l5.7 35.3 3.7-28.6-31.7 9.1z"/><path fill="#604436" fill-opacity=".6" d="M16.3 15.7L67.9-2l-9.7 29.5-35.5 21.6z"/><path fill="#c8c8b9" fill-opacity=".5" d="M121.7 83.4l31.3-6.7 1.3 6-31.3 6.6z"/><path fill="#ffd8bd" fill-opacity=".2" d="M44.3 79l-.7-8.9L81.4 55 53.5 81.4z"/><path fill="#a99a88" fill-opacity=".5" d="M97.7 108.3l-9.4 17.6-8-4.2 9.4-17.6z"/><path fill="#7f746f" fill-opacity=".8" d="M116.7 95.1l-13.8 32.3 9.3-49.3 2-9.7z"/><path fill="#fde9c1" fill-opacity=".5" d="M223 15h4v5h-4z"/><path fill="#a17452" fill-opacity=".5" d="M182 52h31v11h-31z"/><path fill="#311507" fill-opacity=".3" d="M201.6 95l24.8-44.4-35.1 48.5-6.4-16.4z"/><ellipse cx="196" cy="68" fill="#151b00" fill-opacity=".5" rx="8" ry="6"/><path fill="#150000" fill-opacity=".4" d="M104 47l5 40-21-45z"/><path fill="#b8c8f8" fill-opacity=".2" d="M67.9 122.8l-12 19.9 16.3 15.6 2.6-25.1z"/><path fill="#aca393" fill-opacity=".4" d="M99 185l40.6-13.1-33.3-18-7.9-9.2z"/><circle r="1" fill="#fff7dc" fill-opacity=".5" transform="matrix(-.9817 -.86245 4.38632 -4.99284 105.4 39.7)"/><path fill="#4c79c1" fill-opacity=".5" d="M83.7 46.8l-3.4-5 18-12.6 3.4 5z"/></g></svg>