<svg xmlns="http://www.w3.org/2000/svg" viewBox="0 0 300 199"><defs/><path fill="#473226" d="M0 0h300v199H0z"/><g transform="translate(.6 .6) scale(1.17188)"><circle r="1" fill="#fffeff" fill-opacity=".5" transform="matrix(110.05428 -6.8142 1.17017 18.89908 16.4 101)"/><path fill="#c89e92" fill-opacity=".6" d="M177 62l58 22-77 89z"/><circle r="1" fill-opacity=".6" transform="matrix(135.06757 22.84497 -6.09424 36.0313 187.2 31.3)"/><path fill="#f6ffff" fill-opacity=".6" d="M26.4 150.7L57 123.2l12.7 14.1L39 164.8z"/><path fill="#e8b09c" fill-opacity=".5" d="M79.4 69.6l38-17.8 15.2 32.6-38 17.8z"/><circle r="1" fill-opacity=".6" transform="rotate(153.6 1.7 17) scale(28.07486 56.13658)"/><circle cx="246" cy="128" r="44" fill-opacity=".4"/><circle r="1" fill="#00000a" fill-opacity=".6" transform="matrix(-41.64795 -19.52141 7.59604 -16.20576 89.2 169)"/><ellipse cx="66" cy="140" fill="#f6ffff" fill-opacity=".5" rx="16" ry="6"/><path fill="#ffcdb8" fill-opacity=".5" d="M76 38l-21-1 24 20z"/><path fill="#c1c1de" fill-opacity=".6" d="M3 119l96-22-112-23z"/><path fill="#bde4f5" fill-opacity=".4" d="M243.2 85.1L230.9 87l-5.6-9.8 16.1-6.6z"/><path fill="#c79884" fill-opacity=".6" d="M116.3 111.7l-39.8-4.3 49.4-61.1-1.2 53z"/><path fill="#100000" fill-opacity=".4" d="M68 49L27 83l80-1z"/><circle r="1" fill="#f6ffff" fill-opacity=".4" transform="matrix(15.2265 23.15867 -4.2515 2.7953 47.5 163.2)"/><circle r="1" fill="#000102" fill-opacity=".6" transform="matrix(3.21557 -8.88292 37.33495 13.51506 99.1 127.3)"/><circle r="1" fill-opacity=".6" transform="matrix(50.7319 46.789 -16.2597 17.6299 243 48.9)"/><ellipse cx="104" fill="#b5ae98" fill-opacity=".6" rx="4" ry="29"/><circle r="1" fill-opacity=".7" transform="matrix(2.59129 -14.60378 23.80845 4.22456 19.5 169)"/><ellipse cx="166" cy="150" fill="#674f3e" fill-opacity=".7" rx="49" ry="14"/><path fill-opacity=".5" d="M158 140l15-34-30-64z"/><path fill="#000100" fill-opacity=".6" d="M109 71.2l1.7-18.7L87.5-3.7 55.4 16.5z"/><path fill="#6d4e38" fill-opacity=".6" d="M160 95l4-45 30 12z"/><path fill="#ead3cb" fill-opacity=".5" d="M169.5 118.3l26.9-10.8 4.1 10.2-26.9 10.8z"/><path fill="#ffbbb0" fill-opacity=".3" d="M169.8 84.3l.1 14.3 37.7-9.9-10.7-21.5z"/><path fill="#a0715f" fill-opacity=".7" d="M150.1 90.2l-11.4 23.9 1.6-34.1 6.1 1.3z"/><path fill="#271f21" fill-opacity=".5" d="M52.3 127.4l-68.3 12 86.1-32.6 34.4 42.9z"/><path fill="#0b0000" fill-opacity=".7" d="M123 47l15 36 33-47z"/><path fill="#f7b18f" fill-opacity=".4" d="M82 67h10v47H82z"/><path fill="#050302" fill-opacity=".7" d="M87.2 117.6l35.3 9.6 50.9-4.8-61.1 22.9z"/><path fill="#634f48" fill-opacity=".6" d="M220 95l18 46 16-22z"/><circle r="1" fill="#ffa680" fill-opacity=".7" transform="matrix(2.5353 -1.41688 2.9001 5.18931 102.1 140.5)"/><path fill="#bd8175" fill-opacity=".5" d="M159 117l-35 7-3-10z"/><ellipse cx="245" fill="#ba8270" fill-opacity=".5" rx="7" ry="13"/><ellipse cx="19" cy="47" fill="#a0643c" fill-opacity=".4" rx="4" ry="35"/><path fill="#c7d0e7" fill-opacity=".5" d="M41.4 80.7L68 85.8l-5.3 27.5-26.5-5.1z"/><path fill="#d6bfb1" fill-opacity=".5" d="M92.6 70.5l11.1 10.7-56.3 26.9 89.5-32.3z"/><path fill="#000207" fill-opacity=".5" d="M94.1 185L46 144.8l10.6-2.6 43.9 14.3z"/><ellipse cx="250" cy="106" fill-opacity=".5" rx="9" ry="97"/><path fill="#00001e" fill-opacity=".3" d="M26.6 91.1l12.5-10 6.3 7.8-12.5 10z"/><path fill="#0e0000" fill-opacity=".5" d="M176 128l8 11 8-10z"/><path fill="#5a241a" fill-opacity=".5" d="M117 84h22v21h-22z"/><path fill="#0e0000" fill-opacity=".5" d="M54 50h21v33H54z"/><ellipse cx="59" cy="137" fill="#f8faff" fill-opacity=".4" rx="14" ry="7"/><circle r="1" fill="#263a33" fill-opacity=".4" transform="matrix(4.51406 13.72959 -54.4659 17.90748 155.7 15.4)"/><ellipse cy="50" fill="#010501" fill-opacity=".7" rx="16" ry="30"/><path fill="#060300" fill-opacity=".8" d="M105.2-11.5L98 16.3 53.6 41.6l-.3-22.9z"/><path fill="#cffff8" fill-opacity=".3" d="M213.3 185l-49.2-22.2-1.8-5.7-20.6 27.9z"/><circle r="1" fill="#704029" fill-opacity=".7" transform="rotate(5.2 -301 553.2) scale(4.98926 37.96677)"/><path fill="#060505" fill-opacity=".9" d="M94 185l-32.9-4.5 31.1-48.6 8.5-22.6z"/><ellipse cx="33" fill-opacity=".4" rx="11" ry="85"/><path fill="#605f81" fill-opacity=".5" d="M5 107.7L22.7 90l4.3 4.3L9.3 112z"/><path fill="#c7cbd2" fill-opacity=".6" d="M49 149.5l-6.3 14-13.1-10.3 5.7-19.1z"/><path fill="#000200" fill-opacity=".4" d="M135.6 115.2l-15.1 33.4 25.8-45.4 47.2 7.6z"/><path fill="#975844" fill-opacity=".7" d="M128 151l40 3-24-21z"/><path fill="#63524e" fill-opacity=".8" d="M217.7 91.9l11.1 12.1-15.6 12.8-12.1-17.4z"/><path fill="#21140b" fill-opacity=".6" d="M8 121h22v38H8z"/><path fill="#c49684" fill-opacity=".6" d="M121.8 49.2l2.3 11.7-9.9 2L112 51z"/><path fill="#ffdad0" fill-opacity=".2" d="M165.8 127.5l-4.5 8.6 29.9-29.5-18.3 45.6z"/><path fill="#e2f1ee" fill-opacity=".4" d="M238.4 77.7l-2.5 6.5-10.3-3.9 2.5-6.5z"/><path fill="#9fabb5" fill-opacity=".5" d="M141.8 185.3l-8.5-31.8 2.9-.8 8.5 31.8z"/><path fill="#060100" fill-opacity=".7" d="M227.7 92.4L271 77.1l-75.8 56.1 36.6-1.6z"/><path fill="#2f2b2d" fill-opacity=".6" d="M46.9 144l8.9 9.3-24.1-34.5-4.3 10.9z"/><path fill="#a4b2a6" fill-opacity=".5" d="M55 156l-9 9 8 20z"/><path fill="#bda090" fill-opacity=".5" d="M57 35h14v12H57z"/></g></svg>