<svg xmlns="http://www.w3.org/2000/svg" viewBox="0 0 298 450"><defs/><path fill="#514d31" d="M0 0h298v450H0z"/><g transform="translate(.9 .9) scale(1.75781)"><path fill="#fffeff" fill-opacity=".7" d="M111 4l40 182-51 30z"/><path fill="#fff" d="M91.7-20.2l74.2-30 28.4 70.4-74.2 30z"/><circle cx="162" cy="103" r="43" fill="#050000" fill-opacity=".8"/><ellipse cx="18" cy="185" fill="#080110" fill-opacity=".7" rx="75" ry="188"/><circle r="1" fill="#ffe2e1" fill-opacity=".5" transform="matrix(.41058 -41.7472 9.8146 .09653 74.4 52.3)"/><circle r="1" fill="#81a2cf" fill-opacity=".5" transform="matrix(11.47167 -7.34453 26.14309 40.8338 42.3 187.3)"/><path fill="#fffbfc" fill-opacity=".8" d="M138 36.4l-33.2-18.9 4 85.7 15.6-13.3z"/><path fill="#fff" fill-opacity=".5" d="M146 193l-39 34 1-147z"/><ellipse cx="100" cy="131" fill="#80454b" fill-opacity=".8" rx="7" ry="255"/><circle r="1" fill="#1a010e" fill-opacity=".6" transform="rotate(-173.4 84 111) scale(17.01694 87.88622)"/><circle r="1" fill="#fff" fill-opacity=".7" transform="rotate(-151.7 87.4 66) scale(16.83704 24.41853)"/><circle r="1" fill="#03010b" fill-opacity=".7" transform="matrix(-12.77175 -19.68511 23.24223 -15.07961 158.6 58.8)"/><path fill="#120206" fill-opacity=".9" d="M86.5 26L50-16l45.4 6.5-5.3 166.9z"/><circle r="1" fill="#020000" fill-opacity=".7" transform="matrix(15.09102 -18.30591 54.17301 44.65912 34 133.9)"/><path fill="#fff" fill-opacity=".5" d="M81 57l5-27-28-9z"/><path fill="#31150d" fill-opacity=".8" d="M123 130l3-55 45 83z"/><path fill="#c89e86" fill-opacity=".4" d="M88.7 28.3l-18.5 83.1-6.2 30.2-6.2-34z"/><path fill="#5d474c" fill-opacity=".6" d="M143.7 183.1l-44 42.1-16 43.8 82.8-68.4z"/><circle r="1" fill="#000204" fill-opacity=".8" transform="matrix(24.75313 49.55182 -27.27318 13.62405 20.6 241)"/><path fill="#0b0100" fill-opacity=".5" d="M89.6 75.8l1.4 2.3L-16 6.3l48.7-22.2z"/><path fill="#fffcfb" fill-opacity=".8" d="M123.8 103l-17.7 9.4 1.4 9.5 1.4 100.2z"/><circle r="1" fill="#567097" fill-opacity=".4" transform="matrix(-47.66404 -26.96701 6.69274 -11.82937 7.3 157.5)"/><ellipse cx="65" cy="36" fill="#ab7e6e" fill-opacity=".4" rx="9" ry="33"/><path fill="#0f0000" fill-opacity=".7" d="M72 86h19v170H72z"/><path fill="#fff8f9" fill-opacity=".6" d="M95 81h2v133h-2z"/><path fill="#5e7292" fill-opacity=".5" d="M2 144l69 113-6-58z"/><ellipse cx="99" cy="35" fill="#401a1b" fill-opacity=".8" rx="3" ry="253"/><path fill="#0b0203" fill-opacity=".6" d="M113 98l49 37 23-97z"/><path fill="#fff3f3" fill-opacity=".4" d="M86 83.5l-4 4.3-18-17.3 4-4.3z"/><circle r="1" fill="#2d2122" fill-opacity=".7" transform="matrix(82.9009 -40.12318 8.16028 16.86044 141 248.7)"/><circle r="1" fill="#1b0600" fill-opacity=".6" transform="rotate(152 3.5 38) scale(30.52575 56.37265)"/><ellipse cx="165" cy="138" fill="#080100" fill-opacity=".5" rx="10" ry="100"/><ellipse cx="96" cy="37" fill="#d8afaf" fill-opacity=".9" rx="1" ry="49"/><path fill="#fff" fill-opacity=".4" d="M83 23L73 38l12 27z"/><path fill="#0c0a0b" fill-opacity=".8" d="M66.3 241.8l-27.5-80.4 52.3-28.3-65 4.7z"/><path fill="#fff" fill-opacity=".4" d="M150 5h-44l1 109z"/><path fill="#684943" fill-opacity=".9" d="M76.8 82.3l10.6 5.1-23.3 20.3 9.3-25z"/><path fill="#6e4932" fill-opacity=".5" d="M160 141.7l-7.4-6.7-23 4.3 27.5 17.7z"/><path fill-opacity=".5" d="M81 70l8-22 1 41z"/><ellipse cy="18" fill-opacity=".5" rx="60" ry="19"/><path fill="#8a7470" fill-opacity=".7" d="M153.4 178.2l-57.1 51-4.9 8.6 9.7 1.2z"/><path fill="#cce1ff" fill-opacity=".3" d="M104.8 245.7l24.7-22.7 4.9-2.6-15.8 19.9z"/><path fill="#fff" fill-opacity=".4" d="M110 217l42-60-46-26z"/><path fill="#0e0301" fill-opacity=".9" d="M70 216.5l-24-68 46.4-42.9-1.3 127.8z"/><path fill="#b49788" fill-opacity=".5" d="M156.9 175.5l-37.2 48.8 26.7-42.8-3.2-17.1z"/><path fill="#130000" fill-opacity=".4" d="M53 27l15 35 10-4z"/><path fill="#9596a4" fill-opacity=".4" d="M134 44.3l-.3-1L188 25.7l.3 1z"/><ellipse cx="106" cy="45" fill="#e78383" fill-opacity=".4" rx="2" ry="181"/><path fill="#3a200d" fill-opacity=".5" d="M165.9 188l-6.7 4.4-15-22.4 6.6-4.4z"/><path fill="#45211c" fill-opacity=".5" d="M127 70h9v43h-9z"/><path fill="#fff" fill-opacity=".6" d="M126.1 87.7l1.6-43-20-24.5 2.7 58.7z"/><circle r="1" fill="#63130e" fill-opacity=".4" transform="matrix(3.905 -.06891 .50516 28.62581 101.7 195)"/><path fill="#ae9886" fill-opacity=".5" d="M51.1-6.1l23.2 17.6L84.9 25l2.8 19z"/><path fill="#7d5d46" fill-opacity=".5" d="M52.3 141.8l3.6-1.4 13.2-67.5 1.2 54.4z"/><path fill="#d2baa7" fill-opacity=".5" d="M63 109.9l6.4 6.9 1-.2-5.3-20.4z"/><ellipse cx="37" cy="120" fill="#000100" fill-opacity=".6" rx="17" ry="39"/><path fill="#2f2c2d" fill-opacity=".7" d="M88.7 244.2l22.3-12.9-15.2 37.3-2 2.4z"/><path fill="#fefdfc" fill-opacity=".7" d="M103.2 220l10.4-11.8-2.5-99.1 36.8 69.8z"/><path fill="#9ea8c1" fill-opacity=".4" d="M47.3 183.2l7.4-2.8 14 36.4-7.4 2.8z"/><path fill="#341812" fill-opacity=".5" d="M28.8 33.2l-43.7 71.4 54.3-16.7 31.3-8.1z"/><path fill="#fefdfd" fill-opacity=".5" d="M108.5 105l12.7-.2 3.5 18.1-13.6 25.4z"/><path fill="#080506" fill-opacity=".4" d="M133 47h37v85h-37z"/><path fill="#101927" fill-opacity=".4" d="M23 176l-27 86-12-122z"/><ellipse cx="87" cy="64" fill="#120405" fill-opacity=".9" rx="3" ry="25"/><ellipse cx="79" cy="74" fill="#b99b95" fill-opacity=".8" rx="2" ry="11"/></g></svg>