<svg xmlns="http://www.w3.org/2000/svg" viewBox="0 0 300 199"><defs/><path fill="#385131" d="M0 0h300v199H0z"/><g transform="translate(.6 .6) scale(1.17188)"><circle r="1" fill="#b496a2" fill-opacity=".6" transform="matrix(156.85617 -56.63319 40.42945 111.9769 173 122.5)"/><circle cx="184" cy="29" r="52" fill="#421c23" fill-opacity=".6"/><circle r="1" fill="#c5c1bb" fill-opacity=".5" transform="matrix(20.68689 -5.35 27.41283 105.99756 116.8 53.8)"/><path fill="#97978b" fill-opacity=".9" d="M183.6-16l-52.5 201L271 144.4l-85.5-52z"/><circle r="1" fill="#d0e1fa" fill-opacity=".7" transform="matrix(14.47626 .8347 -2.5687 44.54929 255.6 29.9)"/><ellipse cx="8" cy="109" fill="#aa9990" fill-opacity=".3" rx="163" ry="67"/><path fill="#021418" fill-opacity=".6" d="M138 3h26v69h-26z"/><circle r="1" fill="#5a0c16" fill-opacity=".7" transform="matrix(2.90098 21.99557 -27.20591 3.58817 208.7 57.7)"/><circle cx="70" cy="39" r="20" fill="#251a30" fill-opacity=".6"/><circle r="1" fill="#3e193a" fill-opacity=".3" transform="matrix(30.89622 -16.98534 25.13018 45.71164 35.4 168.7)"/><circle r="1" fill="#cdd1cc" fill-opacity=".5" transform="rotate(-153.1 91.5 -13.7) scale(7.24578 35.3198)"/><path fill="#aaa89f" fill-opacity=".5" d="M50 72l86-55-13 168z"/><path fill="#8a8b81" d="M153 60.4l-4.4-24.2-.9 18.9-1.1 60.4z"/><path fill="#0d001a" fill-opacity=".3" d="M98.3 10.1l46.3 12.3L131.1-16l-13.2 65.9z"/><path fill="#f6d7f0" fill-opacity=".5" d="M85.5 5.8l11.8-2.5 11.2 52.9-11.8 2.5z"/><circle r="1" fill="#540000" fill-opacity=".5" transform="rotate(-89.7 114 -82.8) scale(28.6463 7.80476)"/><path fill-opacity=".5" d="M154 26h9v53h-9z"/><path fill="#bbc5d7" fill-opacity=".6" d="M271 74.3l-12-86-24.9 31.2-5.4 11.8z"/><path fill="#030000" fill-opacity=".5" d="M212 28l27-44h-31z"/><path fill="#9c4768" fill-opacity=".5" d="M203 51.4l35-17.1 7 14.3-35 17.1z"/><path fill="#ffe3d5" fill-opacity=".5" d="M205 34l16-3-16-7z"/><path fill="#d7c5cb" fill-opacity=".3" d="M98.6 16.2l-11.4 84.9 31.5-112.7 16.2 55.2z"/><ellipse cx="148" fill="#252932" fill-opacity=".9" rx="27" ry="21"/><circle r="1" fill="#766b60" fill-opacity=".8" transform="matrix(13.45852 15.26569 -8.33331 7.3468 196.6 90)"/><path fill="#7f8259" fill-opacity=".7" d="M53.9 59.3l-24.7-3.9 3-18.7 24.6 3.9z"/><path fill="#d9c27b" fill-opacity=".3" d="M16.2 53.1L.7 57.2-4.2 39l15.5-4.1z"/><path fill="#a09a95" fill-opacity=".7" d="M178.8 47.4l-19 9L179-11.4l14.5 14.7z"/><path fill-opacity=".6" d="M138.5 43.3L130.8 28l2.7-1.4 7.7 15.2z"/><path fill="#c9daf5" fill-opacity=".6" d="M124 28l19-3-10-5z"/><path fill="#201936" fill-opacity=".6" d="M88 51.4l6.1-1.9.6-5.3L72.9-8z"/><path fill="#020b06" fill-opacity=".7" d="M-16 9.3l35.5.3.9-25.6L8.6-9.1z"/><path fill="#2c0f1e" fill-opacity=".2" d="M109.6 54.5l3.8-18.7-25-51.8 41.5 62.8z"/><path fill="#180000" fill-opacity=".4" d="M229 36.7l-9-.4 1-17 9 .4z"/><path fill="#000103" fill-opacity=".6" d="M138 32.2l13.1-10.3-7.6 53.7-3.5-3.1z"/><circle r="1" fill="#8c747b" fill-opacity=".6" transform="matrix(30.43235 57.72009 -16.81337 8.86469 55 136.5)"/><path fill="#520007" fill-opacity=".5" d="M220 75l-37-6 7-61z"/><path fill="#141418" d="M113.4-4.7l21.7 21.6 4.2.5-2.2-33.4z"/><path fill="#a99395" fill-opacity=".5" d="M115.5 44.8l9-9.5L127.3 6 104.7-4z"/><path fill="#def3ff" fill-opacity=".5" d="M135 37v16l-13-29z"/><path fill="#020022" fill-opacity=".5" d="M84 1v22L56-16z"/><path fill="#233422" fill-opacity=".8" d="M34.8 18.9l-8.4 36-12.8-29.7 64.2.6z"/><ellipse cx="211" cy="121" fill="#9c9e8f" fill-opacity=".5" rx="131" ry="17"/><path fill="#fdf3c5" fill-opacity=".1" d="M34.2 19.3L1.5 16.4l70.9-13-1.1 7.5z"/><path fill="#2d2f37" fill-opacity=".7" d="M94.4 24.8L53.9 11 63 58.1l30.8-43z"/><ellipse cx="205" cy="13" fill="#f6e8c4" fill-opacity=".2" rx="4" ry="23"/><path fill="#250000" fill-opacity=".5" d="M227 56l1 17-19-1z"/><path fill="#8d7e67" fill-opacity=".6" d="M-8 131.4l-3.4-11.5 39.5-11.3 3.3 11.5z"/><path fill="#162524" fill-opacity=".5" d="M213.3 104l-1.5 2.5L186.7 92l1.5-2.5z"/><path fill="#7e8276" fill-opacity=".5" d="M207 73l-15 25 79-10z"/><circle cx="112" cy="79" r="29" fill="#a9aa97" fill-opacity=".6"/><ellipse cx="133" cy="157" fill="#909387" fill-opacity=".7" rx="51" ry="23"/><path fill="#9d9b90" fill-opacity=".6" d="M187.9 17L195 2.5l-31.4 20.4 6.1 121.1z"/><ellipse cx="158" cy="47" fill="#05070a" fill-opacity=".6" rx="5" ry="33"/><circle cx="77" cy="20" r="3" fill="#bbbca8" fill-opacity=".5"/><circle r="1" fill="#6e6967" fill-opacity=".8" transform="matrix(-7.14694 9.72938 -6.7963 -4.99238 236 4.9)"/><path fill="#5e5250" fill-opacity=".6" d="M27 177l-11-61-18 69z"/><path fill="#14191f" fill-opacity=".5" d="M43 26l24-14 5 45z"/><path fill="#c4d8fe" fill-opacity=".4" d="M156.3 91.7l-.2-2.6-1.3-8.4 15.1-2.3z"/><circle r="1" fill="#a4828f" fill-opacity=".5" transform="rotate(-166 37.2 43) scale(19.38177 35.84204)"/><path fill="#1f001d" fill-opacity=".4" d="M109.1 23.2L91-4.3l15.4 10.7 4.1 17.2z"/><path fill="#8e8e82" fill-opacity=".8" d="M191.2 74.7l3.8 7.9-18.2 18.5-13.3-32.9z"/><path fill="#96b6c3" fill-opacity=".4" d="M228.5 60.9l16.5-9.5 4.5 7.7-16.5 9.5z"/><path fill="#9d9087" fill-opacity=".5" d="M87.1 63.6l56 121.4L77.4 42.1l-11.3-2z"/><path fill="#c0cbd5" fill-opacity=".5" d="M140.1 82.6l-.3-9.4 12.3 1.6-8.5 12.7z"/><path fill="#777a5f" fill-opacity=".8" d="M-16 121.3v-10.4l42.5-10.7 35.7-46.1z"/></g></svg>