<svg xmlns="http://www.w3.org/2000/svg" viewBox="0 0 298 450"><defs/><path fill="#3f4556" d="M0 0h298v450H0z"/><g transform="translate(.9 .9) scale(1.75781)"><circle r="1" fill="#060000" fill-opacity=".7" transform="rotate(-55.3 271.6 -45.1) scale(94.49234 33.61975)"/><circle cx="52" cy="50" r="112" fill="#4a2703" fill-opacity=".5"/><path fill="#eaf5f0" fill-opacity=".5" d="M48.5 89.2l24.9-7.6 18.1 59.2-24.9 7.6z"/><circle r="1" fill="#c09a87" fill-opacity=".8" transform="matrix(22.713 -5.14987 10.2676 45.28424 0 203.6)"/><circle r="1" fill="#000300" fill-opacity=".7" transform="rotate(-14.6 405.9 -469) scale(53.10785 26.16078)"/><path fill="#b9ae86" fill-opacity=".6" d="M155.5-16L185 88.4l-68.2 40.9 59.6 6.5z"/><path fill="#e8eade" fill-opacity=".5" d="M132 1.4l9.7 2.4L124 74.6l-9.7-2.4z"/><path fill="#c1babc" fill-opacity=".9" d="M-7.3 102l-8.7 32.4.1-66.8L21 97.1z"/><circle r="1" fill="#b27969" fill-opacity=".5" transform="matrix(-16.40757 -6.77438 11.15639 -27.02083 65.9 61)"/><circle r="1" fill="#0e0000" fill-opacity=".5" transform="rotate(176.3 15.7 40.4) scale(15.12277 65.38636)"/><path fill="#818a85" fill-opacity=".6" d="M91.5 189.4l-38.3 42.8 98.6-60.9-157.7 5.1z"/><path fill="#e6e9da" fill-opacity=".6" d="M14.4 136l14.8 6-5.6 14-14.8-6z"/><circle r="1" fill="#2d0e00" fill-opacity=".7" transform="rotate(176.4 38.4 7.1) scale(44.24577 25.99115)"/><circle r="1" fill="#d8cebc" fill-opacity=".6" transform="rotate(-13.1 126 -728.7) scale(12.6149 26.60751)"/><path fill="#411c00" fill-opacity=".6" d="M99.7 166l14.2-35.2 32.4 13.1-14.2 35.3z"/><ellipse cx="147" cy="62" fill-opacity=".8" rx="18" ry="26"/><circle r="1" fill="#f9711c" fill-opacity=".4" transform="rotate(14 8.4 69) scale(24.30133 18.07575)"/><path fill="#5d5d54" fill-opacity=".5" d="M78 118l-16 73-47-38z"/><ellipse cx="95" cy="51" fill="#1b0700" fill-opacity=".8" rx="11" ry="53"/><path fill="#bca794" fill-opacity=".6" d="M150 14l-5 24-11-54z"/><path fill="#ab826a" fill-opacity=".6" d="M44 226l-60 39 49-63z"/><path fill="#150c00" fill-opacity=".6" d="M26.1 272.3l-13.2-25.8 33-16.8 13.2 25.8z"/><path fill-opacity=".6" d="M104 198h66v39h-66z"/><circle r="1" fill="#030607" fill-opacity=".6" transform="rotate(22.2 -342.8 67.2) scale(15.07404 31.99625)"/><circle cx="17" r="6" fill="#fde49b" fill-opacity=".9"/><path fill="#524c2e" fill-opacity=".8" d="M135.8 186.6l6.6-7.1 26.6-58.4-43 34z"/><path fill="#eef7f6" fill-opacity=".2" d="M23.3 124.7L75 85.1l20.8 57-35.8-31z"/><circle r="1" fill="#2f0c00" fill-opacity=".6" transform="rotate(-63.8 56 16.7) scale(27.22583 33.78279)"/><ellipse cx="112" cy="79" fill="#533c17" rx="7" ry="17"/><path fill="#b2b68f" fill-opacity=".4" d="M153.4 137.8l-16.5.9-12.9-3.6 13.5-28.3z"/><circle r="1" fill="#676647" fill-opacity=".3" transform="matrix(4.30872 -13.84564 72.72641 22.63223 125.6 251.7)"/><ellipse cx="77" cy="140" fill="#797764" fill-opacity=".6" rx="31" ry="8"/><path fill-opacity=".5" d="M110 109l70-4-43-63z"/><path fill="#0b010b" fill-opacity=".4" d="M85 193l-31-17-10 40z"/><path fill="#080a07" fill-opacity=".8" d="M81.6 67.9l-5 17.9 44.9 45.8 12.7-19.2z"/><path fill="#507082" fill-opacity=".7" d="M55.1 213.8l33.4-20.1 12.4 20.5-33.4 20.1z"/><path fill="#dbeeff" fill-opacity=".1" d="M15.1 148.3l114.8 44-108.3-4.7 4.6-21.6z"/><circle r="1" fill="#702a04" fill-opacity=".4" transform="matrix(-49.68965 22.85468 -7.65748 -16.64856 18.8 24.9)"/><path fill="#0b0b0a" fill-opacity=".9" d="M57.2 116.5L45.6 134l-.5 8.7-49.6-8.1z"/><path fill="#c4c6c3" fill-opacity=".5" d="M49.5 99l25.3 27.4-.8-22.1L48.3 78z"/><path fill="#ffe9c1" fill-opacity=".5" d="M178 127l-22-8 29-32z"/><circle r="1" fill="#200c03" fill-opacity=".5" transform="matrix(-6.06617 3.3487 -7.39776 -13.40102 13 161.6)"/><path fill="#3f1800" fill-opacity=".5" d="M78.4 175.9l31-.2 18.4-18.4 4.8-25.1z"/><path fill="#000208" fill-opacity=".5" d="M185 132.3L104.7 223l80.3-51-35.9-42.1z"/><path fill-opacity=".5" d="M27 55l-1 47 31 8z"/><path fill="#909091" fill-opacity=".3" d="M68.8 123.6l42.3-5.5-86-3.7L9.6 89.6z"/><path fill="#010000" fill-opacity=".7" d="M154.9-16l-39.4 32.4-13.7-4.7L111-16z"/><path fill="#c4cac9" fill-opacity=".5" d="M10.4 138.9l20 1.5 8.8 9.6-10.8-4.5z"/><path fill="#7e8a91" fill-opacity=".9" d="M69 173.6l12-8.5 3.4 21-13.8 3.4z"/><ellipse cx="109" cy="205" fill="#040a12" fill-opacity=".6" rx="26" ry="4"/><path fill="#643a27" fill-opacity=".6" d="M77.2 71.2l-6.1 20-14.3-4.4 6.1-20z"/><circle cx="76" cy="43" r="7" fill="#fed3c9" fill-opacity=".3"/><path fill="#323d1c" d="M139.3 93.7l5.8 24.3-18.1-8.4 24.8-6.5z"/><path fill="#bebdbb" fill-opacity=".7" d="M70.3 94.1l-15.6 10.7 25.1 6.8-3.1-35.9z"/><path fill="#37373e" fill-opacity=".5" d="M16.5 177.5L61.3 204l9.7-59.8-46.5 77.4z"/><path fill="#b6cdb8" fill-opacity=".3" d="M131.2 163.2l.9-12.4 8.9 30.4 3-25.9z"/><path fill="#120a05" fill-opacity=".8" d="M83.3 118.4l-5.7-36.6 33.9-41.9-5.4 39.7z"/><path fill="#ffe6b8" fill-opacity=".3" d="M111.4 172.9l14 10-33.4-9.5 3 15.6z"/><path fill="#322b23" fill-opacity=".5" d="M-15.6 155.3l146.1 11.8-112.7-23.3 10.7 11.9z"/><circle r="1" fill="#000507" fill-opacity=".5" transform="matrix(3.42824 -8.72159 4.7193 1.85504 137.8 38.3)"/><path fill="#010705" fill-opacity=".6" d="M147.1 43l2.8-31.7 12.9 18.3-17.9 5.9z"/><path fill="#eba594" fill-opacity=".2" d="M51.1 78.3L44.6 53l1.5-4 32.1 11.1z"/><circle r="1" fill="#726a4f" fill-opacity=".6" transform="rotate(-92.7 93.7 39.6) scale(27.34569 4.76069)"/><path fill="#040c1a" fill-opacity=".4" d="M94.3 221.6l69.4-24.3-60.5-22.4L122 192z"/><path fill="#c0988e" fill-opacity=".5" d="M-.1 150.6l-12.8 64.5L17.9 233l-8.6-57z"/></g></svg>