<svg xmlns="http://www.w3.org/2000/svg" viewBox="0 0 300 199"><defs/><path fill="#2a3c55" d="M0 0h300v199H0z"/><g transform="translate(.6 .6) scale(1.17188)"><ellipse cx="213" cy="30" fill="#eae8e2" fill-opacity=".7" rx="71" ry="44"/><circle r="1" fill="#bca48d" fill-opacity=".8" transform="matrix(6.34535 32.95092 -68.4039 13.17252 96.5 59.2)"/><circle r="1" fill="#83482c" fill-opacity=".7" transform="matrix(27.60764 -1.7853 9.24623 142.98198 140.2 81.4)"/><path fill="#f3ffff" fill-opacity=".5" d="M104 25.7l13 42.1-67 20.5-12.8-42.1z"/><path fill="#130a00" fill-opacity=".6" d="M193 145.1l-2-60 66-2.2 2 60z"/><circle r="1" fill="#6a2d00" fill-opacity=".4" transform="matrix(21.17868 145.17456 -25.75864 3.75778 18 75.2)"/><circle r="1" fill="#e4f0f0" fill-opacity=".4" transform="matrix(-30.7384 10.04686 -17.94805 -54.91213 211.9 30.7)"/><circle r="1" fill="#7f4b2f" fill-opacity=".6" transform="matrix(9.85179 -.49702 4.23985 84.0412 255 49.5)"/><path fill="#505c62" fill-opacity=".6" d="M209 61l-55-1 76 37z"/><circle r="1" fill="#110f0e" fill-opacity=".7" transform="rotate(-101.6 41 -24.5) scale(21.54925 30.76577)"/><circle r="1" fill="#7c7161" fill-opacity=".5" transform="matrix(24.02535 35.57892 -21.08548 14.23837 60.2 107.7)"/><path fill="#ffe8b0" fill-opacity=".6" d="M33-14.3l8-.4 2 35-8 .4z"/><ellipse cx="152" cy="25" fill="#a48c7e" fill-opacity=".6" rx="9" ry="58"/><circle r="1" fill="#100800" fill-opacity=".5" transform="matrix(-11.4795 1.69445 -11.11354 -75.29175 245.4 146.8)"/><circle r="1" fill="#cfe2f0" fill-opacity=".6" transform="matrix(-6.09145 -31.97617 28.91099 -5.50754 192.3 24)"/><circle cx="85" cy="100" r="18" fill="#514a3e" fill-opacity=".6"/><path fill="#181006" fill-opacity=".6" d="M163 75h43v22h-43z"/><circle r="1" fill="#030000" fill-opacity=".5" transform="matrix(-10.43593 -113.42979 1.51366 -.13926 143.4 61.1)"/><path fill="#cadfeb" fill-opacity=".9" d="M71.9 35.6l33.3-13.2 4.7 38.9-19.6-15.5z"/><path fill="#84503d" fill-opacity=".7" d="M115 90l22-83-33-23z"/><circle r="1" fill="#f7e4c4" fill-opacity=".4" transform="rotate(99.5 83 128.4) scale(23.92752 8.26995)"/><circle r="1" fill-opacity=".5" transform="matrix(-2.85038 .05464 -.57352 -29.92067 170.2 111.2)"/><path fill="#dffdff" fill-opacity=".2" d="M30.1 79.1L19.9 60.9l-3.9-4 50.8-22z"/><path fill="#fffff7" fill-opacity=".5" d="M35.8 108.4l-1 .2-10.6-55 1-.2z"/><circle r="1" fill="#291406" fill-opacity=".6" transform="matrix(16.2026 -9.00815 14.36557 25.83878 5.6 17.8)"/><ellipse cx="98" cy="70" fill="#c1b899" fill-opacity=".7" rx="14" ry="18"/><path fill="#2f2623" fill-opacity=".7" d="M26 62l-36 110 55 13z"/><path fill="#011024" fill-opacity=".4" d="M162.9-16l-1.7 54.1-5-54.1L147 7.2z"/><circle r="1" fill="#1d2e42" fill-opacity=".8" transform="matrix(-.48995 -17.54047 36.6376 -1.02338 205.3 157.6)"/><path fill="#221d16" fill-opacity=".5" d="M39.8 45.2L30.5 21 62.2 8.8 71.5 33z"/><path fill="#968c84" fill-opacity=".5" d="M34 113l11 16-5 24z"/><path fill="#8a948d" fill-opacity=".5" d="M166 46h21v31h-21z"/><path fill="#fff9e0" fill-opacity=".6" d="M187 46.2l70.3-5.8-48.6 16-31-4.2z"/><path fill="#1a0400" fill-opacity=".4" d="M124 65h9v30h-9z"/><circle r="1" fill="#ab9675" fill-opacity=".5" transform="matrix(-55.10377 7.45032 -.2047 -1.51393 226.3 40.4)"/><path fill="#778693" fill-opacity=".4" d="M188 86l5 40-16-36z"/><circle r="1" fill="#36587c" fill-opacity=".5" transform="matrix(20.94431 -17.76207 13.9975 16.5053 91.4 142.8)"/><ellipse cx="35" cy="67" fill="#755346" fill-opacity=".7" rx="5" ry="28"/><path fill="#bab195" fill-opacity=".6" d="M48.1 63.9l52.3 11.5-48.7 21.2-8.5-16.9z"/><path fill="#604016" fill-opacity=".4" d="M53.6 87.6l-3.2-30.8 4-.4 3.2 30.8z"/><path fill="#c28950" fill-opacity=".5" d="M148 60l17 29-3-32z"/><ellipse cx="45" cy="154" fill="#594239" rx="5" ry="61"/><path fill="#302016" fill-opacity=".6" d="M53 71l-23 6 4-7z"/><ellipse cx="255" cy="129" fill="#4a291c" fill-opacity=".8" rx="7" ry="47"/><path fill="#7a503a" fill-opacity=".5" d="M92 60h29v5H92z"/><path fill="#fffff8" fill-opacity=".2" d="M127.7 82.2l-83.3-.4-5.7-41.5 17-.2z"/><ellipse cx="30" cy="19" fill="#a54d23" fill-opacity=".3" rx="5" ry="32"/><path fill="#4f7294" fill-opacity=".4" d="M174.9 76.5l-1.6-14.9 39.8-4.1 1.6 14.9z"/><path fill="#23241e" fill-opacity=".6" d="M159 5.2l9 85.5-1 .1-9-85.5z"/><path fill="#4b82b4" fill-opacity=".4" d="M49.5 118.4l1.2-5.8 51.8 11-1.2 5.8z"/><ellipse cx="171" cy="127" fill="#0a0800" fill-opacity=".5" rx="3" ry="46"/><path fill="#21201a" fill-opacity=".5" d="M71.3 181.5L53.7 69.4l7.2 68.8 5.5 36.1z"/><path fill="#ddbb9d" fill-opacity=".5" d="M45 12L35 24l3-25z"/><path fill="#a2c8e9" fill-opacity=".6" d="M162.8-9.4L271-7.9 232.9 3.6l-70.1 10.9z"/><path fill-opacity=".6" d="M248 73l-23 23 15 49z"/><circle r="1" fill="#230a00" fill-opacity=".5" transform="rotate(-96 141.3 5.4) scale(34.31849 2.05505)"/><path fill="#735d46" fill-opacity=".5" d="M58 122l43 10-17 10z"/><circle r="1" fill="#0a0e11" fill-opacity=".6" transform="matrix(-2.4895 .27596 -4.4867 -40.47497 34.7 140.8)"/><path fill="#b1805a" fill-opacity=".5" d="M248 34h8v46h-8z"/><path fill="#1e323f" fill-opacity=".5" d="M212.2 91l19.2 5.6-11.6 40.3-19.2-5.5z"/><path fill="#83633a" fill-opacity=".6" d="M55 93l34-5 1 15z"/><path fill="#a29190" fill-opacity=".4" d="M146 42.5l16.3 16.1-2.1-43.1-19.7-8.9z"/><ellipse cx="41" cy="108" fill="#6a4030" fill-opacity=".6" rx="4" ry="32"/><path fill="#e6ebde" fill-opacity=".4" d="M115.1 91.2l-10.7-.5 5.4-42 3 41.6z"/><path fill="#cfcfcb" fill-opacity=".5" d="M26.7 56.3L43 169.2l2.2 6.7L28.5 59.3z"/></g></svg>