<svg xmlns="http://www.w3.org/2000/svg" viewBox="0 0 300 199"><defs/><path fill="#434344" d="M0 0h300v199H0z"/><g transform="translate(.6 .6) scale(1.17188)"><circle cx="245" cy="86" r="212" fill="#bebebd" fill-opacity=".6"/><circle r="1" fill="#020202" fill-opacity=".6" transform="matrix(27.5544 71.62925 -21.86386 8.4106 124.6 32.3)"/><circle r="1" fill="#fff" fill-opacity=".5" transform="matrix(20.77967 -5.11411 31.7383 128.95916 90.4 118.2)"/><path fill="#f6f6f6" fill-opacity=".6" d="M216 59l-21 36-30-95z"/><ellipse cx="17" cy="88" fill-opacity=".4" rx="23" ry="107"/><circle r="1" fill="#6d6d6d" fill-opacity=".7" transform="rotate(73.8 1.9 151.5) scale(47.3764 37.29865)"/><ellipse cx="73" cy="75" fill="#c1c1c1" fill-opacity=".7" rx="26" ry="106"/><circle r="1" fill-opacity=".6" transform="matrix(9.21052 54.45585 -14.06823 2.37946 109.7 12.2)"/><path fill="#1b1b1b" fill-opacity=".5" d="M213 57h18v40h-18z"/><path fill="#7d7d7d" fill-opacity=".8" d="M69 74.6l11-89.2 3.2 90.1 9.3-2z"/><path fill="#3a3a3a" fill-opacity=".6" d="M244 0h12v66h-12z"/><path fill="#b2b2b2" fill-opacity=".8" d="M110.8 71l20 13.8-3.3-21.2H92.8z"/><path fill="#fff" fill-opacity=".4" d="M73 143L89 27l31 133z"/><circle r="1" fill="#f0f0f0" fill-opacity=".4" transform="rotate(7.7 -71.6 1167.2) scale(21.79248 9.50274)"/><ellipse cx="40" cy="114" fill="#747474" fill-opacity=".5" rx="10" ry="100"/><path fill-opacity=".6" d="M111 29h28v35h-28z"/><path fill="#353535" fill-opacity=".5" d="M171 7.9L159.3-16 140.7 5.1l36.2 9z"/><ellipse cx="11" cy="59" fill="#070706" fill-opacity=".6" rx="18" ry="47"/><path fill="#737373" fill-opacity=".6" d="M147-16l14 99-28-62z"/><path fill="#444" fill-opacity=".5" d="M197 145l-31 13 20-32z"/><path fill="#373737" fill-opacity=".4" d="M162.6 107.8l15.7-7.5-36.7-26.7-29.7 28.7z"/><circle r="1" fill="#d0d0d0" fill-opacity=".4" transform="matrix(18.27282 -2.3408 4.05672 31.66768 198.4 69)"/><ellipse cx="61" fill="#9c9c9c" fill-opacity=".5" rx="28" ry="14"/><circle r="1" fill="#a3a3a3" fill-opacity=".6" transform="rotate(62.5 -9.6 245.5) scale(94.42704 15.40658)"/><path fill="#050505" fill-opacity=".6" d="M223.3 52.1l-8.6 15.6 15 3.9-5.4-16.3z"/><circle cx="18" cy="123" r="25" fill="#595957" fill-opacity=".3"/><circle r="1" fill="#a6a6a6" fill-opacity=".6" transform="matrix(16.24024 3.80733 -.9167 3.9102 157.5 67)"/><path fill="#898988" fill-opacity=".5" d="M0 5h16v6H0z"/><circle r="1" fill="#e0e0e0" fill-opacity=".5" transform="rotate(31.7 45.6 322.7) scale(24.5598 7.04262)"/><circle r="1" fill="#dadada" fill-opacity=".5" transform="rotate(28.3 -108 211.3) scale(9.73287 31.67095)"/><circle cx="121" cy="45" r="19" fill="#0c0c0c" fill-opacity=".6"/><circle r="1" fill="#121211" fill-opacity=".5" transform="matrix(-22.72554 1.90044 -1.38787 -16.59628 18.2 169)"/><ellipse cx="71" cy="154" fill="#878787" fill-opacity=".4" rx="6" ry="30"/><circle r="1" fill="#dadada" fill-opacity=".6" transform="matrix(2.27567 -.15265 6.01617 89.68883 55.8 105.1)"/><path fill="#9e9e9e" fill-opacity=".7" d="M180.9 125l3.1 24.9 6.8 30.9-23.6-72.1z"/><circle r="1" fill="#a0a0a0" fill-opacity=".6" transform="matrix(2.3571 -32.31443 7.15377 .52182 215.7 35)"/><path fill="#818181" fill-opacity=".7" d="M238.6-6.2l-13.7 94.6-9.4-9.6 39.7-37.5z"/><path fill="#f2f2f2" fill-opacity=".6" d="M189 25l20 25-15 23z"/><ellipse cx="62" cy="82" fill="#a5a5a5" fill-opacity=".6" rx="5" ry="44"/><path fill="#464646" fill-opacity=".5" d="M142.7 20.8l19.6 29-5 3.4-19.6-29z"/><ellipse cx="34" cy="13" fill="#010100" fill-opacity=".5" rx="6" ry="8"/><path fill="#2d2d2d" fill-opacity=".5" d="M69.8 70.7l7.5-30.1 3 .7-7.6 30.1z"/><path fill="#9f9f9f" fill-opacity=".7" d="M118.4 150.2l116.1 15.4L104.7 185l14.5-30.3z"/><path fill="#656565" fill-opacity=".5" d="M147.2 51.5l-37.8 56 4.6 22 4.2 25.7z"/><path fill="#8b8b8b" fill-opacity=".5" d="M65-16l18 68 4-33z"/><path fill="#050505" fill-opacity=".4" d="M144.8 81.2l-17.2 9.3 24.9-.8 5.5-9.6z"/><path fill="#999" fill-opacity=".4" d="M152 97l18 45-34-9z"/><path fill="#838383" fill-opacity=".5" d="M122 42h5v11h-5z"/><circle r="1" fill="#444" fill-opacity=".4" transform="rotate(159.9 72.6 77) scale(3.27062 35.29104)"/><path fill="#858585" fill-opacity=".8" d="M156.9 86.9l35.8 19.5-34.4-84.2 19.3 35.3z"/><circle r="1" fill="#9a9a9a" fill-opacity=".8" transform="matrix(-23.42847 -25.56769 19.95933 -18.28936 197.8 0)"/><path fill="#4c4c4c" fill-opacity=".6" d="M197.9 151.8l-7.6.3-21.4-59 4.1 7.3z"/><path fill="#4d4d4d" fill-opacity=".5" d="M178 51l-11-13 5 21z"/><path fill="#050505" fill-opacity=".2" d="M250-16l21 49-16 36z"/><path fill="#d0d0d0" fill-opacity=".3" d="M152.3 11.3l-21-27.3 34.8 66.9 10.7-25.7z"/><path fill="#838383" fill-opacity=".6" d="M243 43.6l9.3 14.3L233 70.4 223.7 56z"/><path fill="#ddd" fill-opacity=".9" d="M79.6 82.6l2.9 27.3 2.7 75.1L67.3 70.3z"/><path fill="#b2b2b2" fill-opacity=".6" d="M85-16l-3.6 33.9 29.7 60.3-11.6-47.7z"/><ellipse cx="125" cy="79" fill="#949494" fill-opacity=".6" rx="9" ry="6"/><path fill="#0a0a0a" fill-opacity=".6" d="M142 68l-3-22-8 16z"/><path fill="#c8c8c8" fill-opacity=".5" d="M189 66h22v30h-22z"/><path fill="#515150" fill-opacity=".5" d="M41.7 98l-3.9.8-13.5-76.9 3.9-.7z"/><path fill="#c4c4c4" fill-opacity=".5" d="M129.2 71.5l-54-6.1 28.9 1.6-5.3-12.1z"/><path fill="#717171" fill-opacity=".5" d="M179 97l29-2-18 12z"/><path fill-opacity=".4" d="M18 58h12v42H18z"/></g></svg>