<svg xmlns="http://www.w3.org/2000/svg" viewBox="0 0 300 199"><defs/><path fill="#543427" d="M0 0h300v199H0z"/><g transform="translate(.6 .6) scale(1.17188)"><circle r="1" fill="#fcf6dd" fill-opacity=".6" transform="matrix(12.76491 19.26145 -16.13505 10.69299 24 82.2)"/><circle r="1" fill="#8da4ac" fill-opacity=".4" transform="matrix(13.83545 -45.82157 23.44655 7.0795 134.4 75.9)"/><circle r="1" fill="#040c13" fill-opacity=".8" transform="matrix(-10.21369 41.5827 -50.9395 -12.51194 39.9 11.3)"/><path fill="#b3bdb4" fill-opacity=".7" d="M3.5 119.9l8.9 17.1 17.5-8.4-9.6-39.7z"/><ellipse cx="255" cy="106" fill="#100b0c" fill-opacity=".5" rx="51" ry="163"/><ellipse cx="133" cy="159" fill="#bb9785" fill-opacity=".4" rx="28" ry="21"/><ellipse cx="33" cy="157" fill="#000300" fill-opacity=".5" rx="73" ry="25"/><path fill="#00060f" fill-opacity=".7" d="M144.2 134.2l-13.6 3.1-12.8-55.5 13.6-3.1z"/><path fill="#dff1ff" fill-opacity=".6" d="M132 94l18 14-5-33z"/><circle r="1" fill="#8e8779" fill-opacity=".5" transform="matrix(-13.64488 -12.22959 17.60336 -19.64054 87.6 70.6)"/><circle r="1" fill="#00477a" fill-opacity=".2" transform="rotate(-107.8 87.7 -62.7) scale(41.41138 102.89812)"/><path fill="#aed1ff" fill-opacity=".6" d="M109 90l11.9-.9 2.2 31-12 .8z"/><circle r="1" fill="#140000" fill-opacity=".6" transform="matrix(4.26846 34.43275 -5.93857 .73618 87.9 96.5)"/><path fill="#171c13" fill-opacity=".9" d="M-4 101.2l-12 27.4 32.3-37.5L-16 72.6z"/><path fill="#000c15" fill-opacity=".4" d="M166 86l5-102 61 90z"/><path fill="#ffcc84" fill-opacity=".5" d="M125 53l24 7-56 16z"/><circle r="1" fill-opacity=".5" transform="rotate(178.3 62.8 66) scale(51.15452 6.66283)"/><ellipse cx="145" cy="115" fill="#dcffff" fill-opacity=".6" rx="13" ry="2"/><path fill="#f4ffeb" fill-opacity=".3" d="M79.5 145.7l-4-44.7-12.6-61.5 22.2 68z"/><path fill="#010" fill-opacity=".6" d="M54.4 141l-21.7-3.4 4.9-30.6 21.7 3.4z"/><path fill="#452801" fill-opacity=".5" d="M149.8 77.7L94.5 76l57.3-15.1 4.9 102z"/><ellipse cx="9" cy="75" fill="#d4cbbf" fill-opacity=".7" rx="32" ry="8"/><path fill="#b69886" fill-opacity=".6" d="M44.8 7L15.5.8 17.2-7 46.5-.8z"/><path fill="#312520" d="M34.5 43.4l24.7 75.9 20.5-14.2-29.6-62.6z"/><circle r="1" fill="#765746" fill-opacity=".7" transform="matrix(1.62444 -10.86936 23.88265 3.56929 189.5 103.3)"/><path fill="#d0daed" fill-opacity=".5" d="M134 78h14v28h-14z"/><path fill="#4b89c1" fill-opacity=".3" d="M50 47h45v20H50z"/><path fill="#000200" fill-opacity=".4" d="M108.6 81.3l53.7 51.2-42-57.6 21.7-.1z"/><path fill="#a08980" fill-opacity=".3" d="M175.1 103.4l-30-44.3L132 16.3l19 2.2z"/><path fill="#d5a185" fill-opacity=".5" d="M197.8 7.3l4.3-2.4 12.1 21.8-4.3 2.4z"/><path fill-opacity=".5" d="M113.9 140.8l-5 .7-8.8-62.3 5-.7z"/><ellipse cx="99" cy="94" fill="#ffcf92" fill-opacity=".3" rx="3" ry="35"/><path fill="#bfc5af" fill-opacity=".4" d="M3.8 124.2l30.1-9.7 4.8 6.4-29.2 17.5z"/><path fill="#937262" fill-opacity=".5" d="M192 81l-9-14 14-22z"/><path fill="#e1c6a4" fill-opacity=".5" d="M14.3 94.7l25-21.7 12.4 14.3-25 21.7z"/><ellipse cx="142" cy="109" fill="#000001" fill-opacity=".6" rx="15" ry="4"/><path fill="#603c27" fill-opacity=".5" d="M29 148h54v14H29z"/><path fill="#2a170f" d="M208.6 156.5l62.4 6.3-56.1 22.2-33-22z"/><path fill="#38271c" fill-opacity=".7" d="M14 65l15-21-45-6z"/><path fill="#38251e" fill-opacity=".8" d="M191.4 138.9l-54.2-74 5.2.8 12.1 43z"/><path fill="#03080b" fill-opacity=".5" d="M46-14l6 106-25-44z"/><path fill="#ffe4ce" fill-opacity=".5" d="M73 75h5v20h-5z"/><path fill="#050000" fill-opacity=".5" d="M87.1 173l-8.8-38 16.6-4 8.8 38z"/><path fill="#2a0d00" fill-opacity=".6" d="M76 68l17 2 2 50z"/><path fill-opacity=".5" d="M120.3 103.4l.4-25 13 .2-.4 25z"/><path fill="#080d01" fill-opacity=".7" d="M50 109.9l-31.3 7.4 21.1-15-2.7 30.2z"/><path fill="#ac9d86" fill-opacity=".8" d="M83 98.1l-7.6 16.5 11.1 10.5-4.2 2.5z"/><path fill="#010800" fill-opacity=".4" d="M-15.5 97.2l37.1-16.4-3.4 7.7-32.6 26.9z"/><path fill="#bcbfc6" fill-opacity=".4" d="M81 70.6l-5.1-8.5L87 55.4l5.1 8.5z"/><ellipse cx="143" cy="79" fill="#fcedd9" fill-opacity=".6" rx="17" ry="1"/><path fill="#6d4935" fill-opacity=".8" d="M156 141.7l65.7-37.3-51.8 43.5-9.7 37.1z"/><circle r="1" fill="#1e0f0a" fill-opacity=".6" transform="matrix(10.82753 16.17397 -47.05179 31.49843 240.8 44.4)"/><path fill="#040308" fill-opacity=".4" d="M80-16L26 23l69 28z"/><path fill="#76a595" fill-opacity=".4" d="M110 113h54v9h-54z"/><path fill="#ffe1c5" fill-opacity=".6" d="M133 58l-20 7 12-13z"/><path fill="#574c49" fill-opacity=".6" d="M191.9 11.5l-1.6-18 57.8-5 1.6 18z"/><path fill="#63411d" fill-opacity=".4" d="M21 94l45 26 17-29z"/><path fill="#28313c" fill-opacity=".4" d="M39 41l16 43 80-93z"/><path fill="#0c0d09" fill-opacity=".8" d="M11.8 136.8l40.6-3.6L-16 185v-63.7z"/><path fill="#0f1704" fill-opacity=".5" d="M106.5 122.6l22.1-.2 27.6-7.5 4.1 27.8z"/><ellipse cx="174" cy="52" fill="#1b2733" fill-opacity=".4" rx="15" ry="38"/><path fill="#e6d0b9" fill-opacity=".2" d="M21.5 43.8V81L10 131.9l34.3-40.6z"/><path fill="#c1c8d8" fill-opacity=".5" d="M148.5 89.4l2.2 14.4-15-28.1-1.2 32.2z"/><path fill="#291400" fill-opacity=".4" d="M111 53h7v33h-7z"/><circle r="1" fill="#bdd6fd" fill-opacity=".6" transform="rotate(-57.8 138 -58.5) scale(1.81274 6.70434)"/></g></svg>