<svg xmlns="http://www.w3.org/2000/svg" viewBox="0 0 300 199"><defs/><path fill="#66342c" d="M0 0h300v199H0z"/><g transform="translate(.6 .6) scale(1.17188)"><circle r="1" fill="#dff2e1" fill-opacity=".5" transform="matrix(-91.7672 -62.0543 85.475 -126.4022 121.5 24)"/><circle r="1" fill="#e8eeef" fill-opacity=".7" transform="rotate(116.4 76.6 56.3) scale(30.97916 69.08009)"/><circle r="1" fill="#383d3c" fill-opacity=".5" transform="rotate(156.3 40.5 37.3) scale(29.22252 51.31363)"/><circle r="1" fill="#18110a" fill-opacity=".8" transform="rotate(25.4 -344.3 139.2) scale(29.39975 28.17824)"/><circle r="1" fill="#9a8066" transform="rotate(90.4 110.7 143.5) scale(35.50402 32.69866)"/><ellipse cx="209" cy="141" fill="#795044" rx="55" ry="35"/><circle r="1" fill="#e6d8c9" fill-opacity=".6" transform="matrix(21.31673 6.76206 -11.00287 34.68543 98.4 168.5)"/><circle r="1" fill="#cdbead" fill-opacity=".7" transform="matrix(26.92033 7.77015 -10.431 36.13902 0 94.8)"/><circle cx="194" cy="65" r="13" fill="#0c0004" fill-opacity=".5"/><path fill="#dfd8d3" fill-opacity=".8" d="M152.3 74.9l21.1 49 6.7-16.3-23-65.8z"/><circle r="1" fill="#2c2804" fill-opacity=".6" transform="matrix(6.6968 -13.25872 11.15513 5.6343 37.7 102)"/><ellipse cx="157" cy="137" fill-opacity=".4" rx="13" ry="34"/><path fill="#e2e8de" fill-opacity=".8" d="M232.3 61.7l-17.7-28.8-13.7-9.1 11.6 48.8z"/><circle r="1" fill="#a5795f" fill-opacity=".8" transform="matrix(2.35174 -41.7412 43.8073 2.46815 29.6 28.8)"/><circle cx="126" cy="54" r="27" fill="#806e7a" fill-opacity=".9"/><path fill="#101612" fill-opacity=".4" d="M84.7 87.8l-24-35.6 20.6-14 24 35.6z"/><path fill="#1c1d14" fill-opacity=".5" d="M248 60l23 93-60-80z"/><circle r="1" fill="#fae6cf" fill-opacity=".5" transform="matrix(-5.0519 21.67228 -9.34843 -2.17916 67.5 96.3)"/><ellipse cx="186" cy="102" fill="#755a55" rx="6" ry="42"/><path fill="#00000b" fill-opacity=".5" d="M198 142.8l-8.3-13.8 16.3-9.8 8.3 13.8z"/><path fill="#212529" fill-opacity=".9" d="M137.6 185l48-82.9-.2 22.8-21 25.6z"/><ellipse cx="11" cy="77" fill="#fefdfe" fill-opacity=".5" rx="18" ry="10"/><path fill="#dc9880" fill-opacity=".5" d="M116 110l-8-52 53 39z"/><path fill="#581b01" fill-opacity=".3" d="M66.6 133.5l1.1 2.3-4.8 14.8 94.9-38.3z"/><path fill="#fff" fill-opacity=".5" d="M204.9 68.8l4.5 2.3-12.3 24-4.5-2.2z"/><circle r="1" fill="#dfe0d4" fill-opacity=".6" transform="matrix(16.58475 9.57521 -20.45244 35.42467 196.7 21.4)"/><path fill="#ab8975" fill-opacity=".5" d="M159 62l24 41-15-98z"/><path fill="#ff976d" fill-opacity=".2" d="M171 136h85v34h-85z"/><ellipse cx="255" cy="31" fill="#feeeef" fill-opacity=".4" rx="6" ry="46"/><path fill="#d4ccb8" fill-opacity=".3" d="M139.9 181.4L72.6 185l-39.5-60.6 2.8-1.2z"/><path fill="#bfc5cb" fill-opacity=".5" d="M165.6 38.8L159.3 50l-63-34.9L102.8 4z"/><circle r="1" fill="#814839" fill-opacity=".6" transform="matrix(-10.06422 27.23848 -8.12654 -3.00264 212.7 92)"/><ellipse cx="89" cy="23" fill="#354a46" fill-opacity=".5" rx="9" ry="74"/><circle r="1" fill="#672a1c" fill-opacity=".5" transform="rotate(-45.1 285.8 -216.1) scale(51.19611 8.33985)"/><path fill="#7b3500" fill-opacity=".4" d="M232 15h12v43h-12z"/><path fill="#b89488" fill-opacity=".5" d="M207 97l-26 43 13-50z"/><path fill="#341e47" fill-opacity=".5" d="M135 49h19v19h-19z"/><ellipse cx="109" cy="103" fill="#391b13" fill-opacity=".5" rx="4" ry="19"/><circle r="1" fill="#a77b69" fill-opacity=".5" transform="rotate(153.7 49.5 89) scale(27.55208 10.09427)"/><path fill="#012361" fill-opacity=".3" d="M108.4 52.9l1.6-23.5 8.5-10.9 14.8 37.3z"/><path fill="#081017" fill-opacity=".5" d="M197 76l-2-25 18 9z"/><path fill="#e1caa2" fill-opacity=".3" d="M49.1 134.3l-29.8-4.6 41.6-29.9 49.9 19.3z"/><path fill="#8f2f25" fill-opacity=".4" d="M148 128l-15-25h37z"/><path fill="#362210" fill-opacity=".3" d="M22.7 112.9L7.1 92.1l17.1 34.2 49.3-44.7z"/><path fill="#fde6e4" fill-opacity=".5" d="M60 55l-10 2 17 23z"/><path fill="#fcf6fa" fill-opacity=".5" d="M74 63h3v30h-3z"/><path fill="#111913" fill-opacity=".5" d="M138 145h30v19h-30z"/><path fill="#e7e4dd" fill-opacity=".5" d="M192 134l-16 1-9 12z"/><path fill="#c7c1b5" fill-opacity=".6" d="M101 55h27v9h-27z"/><path fill="#545800" fill-opacity=".5" d="M78.5 85.2L75 124.5l-5.3.1L83 99.7z"/><circle r="1" fill="#9d7a3d" fill-opacity=".4" transform="matrix(-18.057 19.85961 -8.06322 -7.33134 39.6 83)"/><path fill="#f7fffa" fill-opacity=".4" d="M49.9 71.7L25.3 77l7.6 7.4h.1z"/><circle r="1" fill="#9d6457" fill-opacity=".6" transform="matrix(27.84233 16.13963 -2.59924 4.48393 135.7 73.8)"/><circle r="1" fill="#e0e9f3" fill-opacity=".7" transform="matrix(-22.92325 -4.24857 3.26227 -17.60165 140.6 .1)"/><path fill="#d5ccbb" fill-opacity=".5" d="M80 83l8 52 6-29z"/><ellipse cx="137" cy="168" fill="#ede7cc" fill-opacity=".4" rx="5" ry="6"/><path fill="#33251c" fill-opacity=".4" d="M86.8 160.3L-16 136.6l64.4 28.1 47.1-11z"/><path fill="#f4f6f5" fill-opacity=".4" d="M147 72l23-12 3 38z"/><path fill="#653221" fill-opacity=".5" d="M14 118L2 149l27-12z"/><path fill="#c6a091" fill-opacity=".4" d="M191 144.3l27.9-11.9-14.5 24.9-3.1-8.9z"/><path fill="#01111c" fill-opacity=".5" d="M149.5 130l7.4-3.8 31.6-1.1-15 14.5z"/><ellipse cx="71" cy="81" fill="#eef6fc" fill-opacity=".6" rx="8" ry="6"/><circle r="1" fill="#896c5b" fill-opacity=".6" transform="matrix(-2.4254 53.41149 -14.081 -.63941 63.2 5.4)"/><path fill="#994b37" fill-opacity=".4" d="M114.1 125.5l45.3-43.3-43.6 24.7-22-5z"/><circle r="1" fill="#945645" fill-opacity=".6" transform="rotate(15.2 -294.6 853.5) scale(12.75805 22.1694)"/></g></svg>