<svg xmlns="http://www.w3.org/2000/svg" viewBox="0 0 298 450"><defs/><path fill="#704a39" d="M0 0h298v450H0z"/><g transform="translate(.9 .9) scale(1.75781)"><circle r="1" fill="#fafefc" fill-opacity=".8" transform="matrix(-80.40039 -10.41381 21.70828 -167.59997 27.5 102)"/><path fill="#a79585" d="M55 255l130 1-83-237z"/><circle r="1" fill="#fff" fill-opacity=".3" transform="rotate(-113.1 51 -6.8) scale(43.69223 168.99998)"/><circle r="1" fill="#f9fafa" fill-opacity=".8" transform="matrix(-33.3866 3.62694 -3.67549 -33.83344 38.8 199.9)"/><circle r="1" fill="#986942" fill-opacity=".5" transform="matrix(22.26667 -43.86319 24.767 12.5727 100.6 121.7)"/><circle r="1" fill="#f8fcfc" fill-opacity=".7" transform="matrix(1.9689 -83.45386 36.65394 .86477 34.8 121.6)"/><path fill="#6d382a" fill-opacity=".5" d="M72 199h26v57H72z"/><circle r="1" fill="#d2f0f6" fill-opacity=".3" transform="matrix(22.08799 -10.2998 14.62974 31.37358 118.4 181.2)"/><circle r="1" fill="#abaeac" fill-opacity=".8" transform="rotate(-54.1 316.5 -47) scale(133.96698 28.39833)"/><ellipse cx="128" cy="94" fill="#351800" fill-opacity=".3" rx="16" ry="39"/><circle r="1" fill="#8d6f56" fill-opacity=".4" transform="rotate(3.1 -2246 2956.5) scale(20.5543 85.59986)"/><circle r="1" fill="#c3c6c8" fill-opacity=".6" transform="matrix(-9.09185 -5.26546 16.59601 -28.65629 51 247.4)"/><path fill="#cbc2af" fill-opacity=".6" d="M71 108l34-10 4-114z"/><path fill="#9b6955" fill-opacity=".7" d="M164 74l-37-90-27 47z"/><path fill="#9f9f9d" fill-opacity=".8" d="M140.7 271.8l-49.5-16.1 16.1-49.5 49.5 16.1z"/><path fill="#e0e7ea" fill-opacity=".6" d="M128.8-16L119-6.5 44.7 116.7-16-13.7z"/><path fill="#fdeac9" fill-opacity=".2" d="M122.9 38l-.7-28.4-42.7 76.5 47.5-37z"/><circle r="1" fill="#53382b" fill-opacity=".6" transform="matrix(.66792 5.09526 -14.80289 1.94045 143.8 3.4)"/><path fill="#f4bc75" fill-opacity=".3" d="M35.3 157.7l10.6 11.6-49-6.9-12.9-8.1z"/><path fill="#a56755" fill-opacity=".5" d="M64 271l11-95 20 18z"/><circle r="1" fill="#e4e3e1" fill-opacity=".6" transform="matrix(1.54264 -14.20703 48.9772 5.31807 18.2 226)"/><ellipse cx="99" cy="142" fill="#ffe" fill-opacity=".2" rx="4" ry="50"/><path fill="#fafdfd" fill-opacity=".7" d="M22.8 171.2l-18.2 53-27.4-9.4 18.2-53z"/><path fill="#b2b0a5" fill-opacity=".6" d="M123 158h24v39h-24z"/><path fill="#9e7851" fill-opacity=".4" d="M104 67h18v92h-18z"/><circle r="1" fill="#6b4931" fill-opacity=".6" transform="matrix(-6.28747 -5.68116 38.96997 -43.12892 150 97.7)"/><circle r="1" fill="#feffff" fill-opacity=".4" transform="matrix(-20.09626 32.13787 -55.45393 -34.67612 0 97)"/><path fill="#482d0f" fill-opacity=".5" d="M125.3 4.7l-16.6 21.1L118.9-11l-.7 19.8z"/><circle r="1" fill="#b5b5b5" fill-opacity=".6" transform="matrix(4.81741 8.80642 -27.74104 15.1753 39 255)"/><circle cx="161" cy="179" r="15" fill="#916b53" fill-opacity=".6"/><path fill="#d5dbdb" fill-opacity=".5" d="M89.3 1.6L104.1 71l-25.4 5.4L63.9 7z"/><circle r="1" fill="#a97b6a" fill-opacity=".7" transform="matrix(-17.22683 -18.27764 18.60195 -17.5325 169 24.5)"/><path fill="#070000" fill-opacity=".5" d="M133.6 85.5l-6.7-22 9.5-3 6.7 22z"/><ellipse cx="96" cy="241" fill="#0f333b" fill-opacity=".2" rx="10" ry="35"/><ellipse cx="63" cy="188" fill="#fcfffe" fill-opacity=".7" rx="7" ry="25"/><path fill="#c89070" fill-opacity=".2" d="M8.5 207.8L16 212l11.9 10.3L8.1 231z"/><path fill="#290600" fill-opacity=".1" d="M141 209.8l4.2 10.5 25-19.7-60.6 5z"/><path fill="#c59657" fill-opacity=".5" d="M99 25l3 30 9-46z"/><path fill="#8d715c" fill-opacity=".6" d="M134.9 139.9l19.8 32.4-1.9-42.8-46.3-4.7z"/><path fill="#b2b2a8" fill-opacity=".5" d="M114 143h22v83h-22z"/><path fill="#a99b8f" fill-opacity=".4" d="M87.3 74.7l-10.9 36.6 30.7-6.6 23.5-17.6z"/><path fill="#bc8972" fill-opacity=".4" d="M69 124h22v53H69z"/><path fill="#8c5b4f" fill-opacity=".7" d="M133.4 27.4l39.1 30.5-55.1-20.8L137.2-16z"/><path fill="#c2c7c6" fill-opacity=".4" d="M157 207h13v49h-13z"/><path fill="#9a735e" fill-opacity=".4" d="M151.6 43.1l-8.8-11.7 12.4 72.7 18.8 16.7z"/><ellipse cx="169" cy="79" fill="#47291a" fill-opacity=".5" rx="7" ry="23"/><path fill="#c4c7cb" fill-opacity=".4" d="M94 166h19v35H94z"/><path fill="#725648" fill-opacity=".5" d="M97 195l4-4-19-3z"/><path fill="#583d25" fill-opacity=".5" d="M166 112h4v56h-4z"/><path fill="#946a47" fill-opacity=".4" d="M100 148l22-17-20 32z"/><path fill="#925f4f" fill-opacity=".6" d="M78.2 167.7l-1-12 12.7 13.4 1.1 8.4z"/><path fill="#c5a08b" fill-opacity=".6" d="M64.9 239.4l8.4-57.4 2.9-2.3-10.9 88.4z"/><path fill="#ddd1ce" fill-opacity=".5" d="M119 18l2.7 8.6L117 28l-2.6-8.6z"/><ellipse cx="23" cy="34" fill="#e8edf0" fill-opacity=".7" rx="25" ry="39"/><path fill="#c3956f" fill-opacity=".5" d="M100 26l17 32h23z"/><path fill="#6f472a" fill-opacity=".5" d="M112 87l14-33 2 26z"/><path fill="#63422a" fill-opacity=".7" d="M154.7 112.8l-3.4 7.9-28.5-2 18.2-28z"/><path fill="#a8a494" fill-opacity=".4" d="M111.2 148.6l40.8-8 .3.7 4.8-10.5z"/><path fill="#93503c" fill-opacity=".4" d="M74 132l21-19-5-10z"/><path fill="#e2e9ea" fill-opacity=".4" d="M85.7 182l-30.1-33.4.7-.7 30.1 33.5z"/><path fill="#d8dada" fill-opacity=".3" d="M83.7 116.9l-23.8-8.7L57.3-9.1l50.4 8.3z"/><path fill="#d9d2b7" fill-opacity=".4" d="M165.8 47.4l-.7.8-24.9-21.6.7-.8z"/><path fill="#572221" fill-opacity=".2" d="M160.6 151.3l-2 25.3-15.3 18 7.9-51.5z"/><path fill="#b4b3b0" fill-opacity=".5" d="M134.2 175.8l-53.8 20.1 13.5 5.3-4.2-16.9z"/><path fill="#bdaca5" fill-opacity=".4" d="M161 5l-1 14 17-23z"/></g></svg>