<svg xmlns="http://www.w3.org/2000/svg" viewBox="0 0 300 199"><defs/><path fill="#6e4a36" d="M0 0h300v199H0z"/><g transform="translate(.6 .6) scale(1.17188)"><circle r="1" fill="#000d15" fill-opacity=".7" transform="rotate(63.8 -58 140.9) scale(80.94909 102.9745)"/><ellipse cx="250" cy="43" fill="#070d0e" fill-opacity=".9" rx="32" ry="169"/><circle r="1" fill="#f6ffff" fill-opacity=".8" transform="matrix(3.12823 7.8117 -32.3526 12.95575 153.4 18.6)"/><ellipse cx="92" cy="25" fill="#e4ffff" fill-opacity=".6" rx="17" ry="24"/><circle r="1" fill="#375770" fill-opacity=".8" transform="matrix(-6.29193 64.17008 -68.13728 -6.68092 11.5 9.2)"/><circle r="1" fill="#081112" fill-opacity=".7" transform="matrix(-6.97504 -17.43884 57.29958 -22.9182 153.7 46.3)"/><path fill="#e9ecec" fill-opacity=".9" d="M124.4 6.9L134.6-16l4.7 48.9-14.5-9z"/><path fill="#fff" fill-opacity=".6" d="M53 11h6v47h-6z"/><ellipse cx="124" cy="89" fill="#ecdebe" fill-opacity=".2" rx="215" ry="12"/><path fill="#131518" d="M-16 81.7l143.7-40.5-11.4-48.4-18.6 84.3z"/><circle r="1" fill="#000005" fill-opacity=".7" transform="rotate(21.6 -27.7 251.4) scale(5.87175 9.83418)"/><path fill-opacity=".7" d="M60 11h18v54H60z"/><circle r="1" fill="#eef2f5" fill-opacity=".6" transform="matrix(-25.94935 19.10598 -2.17238 -2.95048 49.4 17.3)"/><path fill="#fff" fill-opacity=".5" d="M87 52l-13-6L85 3z"/><path fill="#e6dbd6" fill-opacity=".5" d="M40.5 51.6L36.1 69 11.8 57.9l1.7-25.8z"/><circle r="1" fill="#003663" fill-opacity=".8" transform="rotate(53.7 -3.9 21.8) scale(19.28412 105.97269)"/><circle r="1" fill="#00080f" fill-opacity=".7" transform="rotate(-94.1 106.4 58.7) scale(58.47392 136.32925)"/><path fill-opacity=".7" d="M184.8-14l36 2-1.6 30-36-2z"/><path fill="#0f141b" fill-opacity=".7" d="M46.5 8.1l7.1 64.4L30 37.9l1.4 24.9z"/><path fill="#191f25" d="M20.7 43.5l4.7 61.5.3-69.3-5.4-10.5z"/><path fill="#afa198" fill-opacity=".4" d="M206.3 58.8l-16.7 36.3 33.1 32.8-2-64.4z"/><path fill="#fff" fill-opacity=".6" d="M184 15l-60 14 58-34z"/><ellipse cx="159" cy="73" fill="#181f21" fill-opacity=".7" rx="28" ry="49"/><path fill="#fff" fill-opacity=".7" d="M87.5 17.5h-9v-35h9z"/><path fill-opacity=".6" d="M88 8l37-15-37-7z"/><ellipse cx="11" cy="101" fill="#35b2ff" fill-opacity=".3" rx="5" ry="43"/><path fill="#f8fafa" fill-opacity=".8" d="M109.4 20.3l-2.7-14.9-14.8 41 12.7-8.2z"/><path fill="#7d5e42" fill-opacity=".5" d="M130.8 101l-1.6-24.8L36 89l26.3 8.1z"/><path fill="#00051a" fill-opacity=".7" d="M134 15l52-20-37-11z"/><circle r="1" fill="#000205" fill-opacity=".6" transform="matrix(14.77203 -11.3797 5.7499 7.46397 104.6 51.2)"/><circle r="1" fill="#fffeff" fill-opacity=".6" transform="matrix(-1.16309 -.12224 2.00063 -19.03618 4.7 58)"/><ellipse cx="19" cy="52" fill="#fff" fill-opacity=".6" rx="2" ry="20"/><path fill="#fff" fill-opacity=".5" d="M44 47L29 58v10z"/><path fill="#000007" fill-opacity=".6" d="M71 0h6v59h-6z"/><circle r="1" fill="#977055" fill-opacity=".5" transform="matrix(6.72974 -1.14827 6.21387 36.41793 196.4 121.1)"/><path fill="#011114" fill-opacity=".5" d="M7 146l-23-85L8 80z"/><path fill="#fff9fa" fill-opacity=".5" d="M63.5 9.1L50.7 61.7l4.6-53.9L90.5-16z"/><path fill="#c9d0d5" fill-opacity=".8" d="M35.1 19.5l9 8.6-6.5 6.9-4.7-11.4z"/><path fill="#fff" fill-opacity=".7" d="M89.7 18.4L88.4 7.5l15.9-2 1.3 11z"/><circle r="1" fill="#fff" fill-opacity=".6" transform="matrix(-2.612 19.06811 -.99075 -.13572 30 40.4)"/><circle r="1" fill-opacity=".5" transform="matrix(3.30861 .69723 -5.43903 25.81003 48 42.6)"/><path fill="#030000" fill-opacity=".8" d="M9 15.6L-4 10 3-5.5 15.9 0z"/><path fill="#fff" fill-opacity=".5" d="M78 37h15v14H78z"/><path fill-opacity=".5" d="M91 17h8v15h-8z"/><ellipse cx="243" cy="163" fill="#0e0d0f" fill-opacity=".4" rx="27" ry="122"/><path fill="#fff" fill-opacity=".8" d="M15.5 47l-6 26.3-1-.3 6-26.3z"/><path fill="#192f2c" fill-opacity=".4" d="M232 22l-34 8-10 66z"/><path fill="#070b0c" fill-opacity=".5" d="M59.9 80.9L12.4 66.7l1.9 27.7 30.2-41.2z"/><path fill="#11151a" fill-opacity=".9" d="M88.7 6.9L129-9.6l-15.1 31.1L92.7-16z"/><path fill="#ece6e2" fill-opacity=".6" d="M-16 1.4l19.6 62L6 75.6l-9.1-17.4z"/><path fill="#07090c" fill-opacity=".9" d="M185.8 19.8l2.3 19.6L54.2 61l95.3-31.4z"/><path fill="#c8be88" fill-opacity=".5" d="M186 41.1l1.9-.1 4.2 59.9-2 .1z"/><ellipse cx="28" cy="50" fill="#feffff" fill-opacity=".7" rx="2" ry="17"/><path fill="#000006" fill-opacity=".5" d="M105 76h8v26h-8z"/><path fill="#08101c" fill-opacity=".6" d="M16 29.1L6.1 53.8l-.7 42.4 4-33.3z"/><path fill="#844c41" fill-opacity=".6" d="M210 92h14v41h-14z"/><path fill="#13181a" fill-opacity=".7" d="M92.2 55.9L57.1 43.1l17 31.1 11.6 36.2z"/><path fill="#020102" fill-opacity=".6" d="M32.4 60.9l1.1-32.4 9.8 14L34 53.8z"/><path fill="#ffead7" fill-opacity=".4" d="M208 80l9 6.4-7 9.7-9-6.5z"/><path fill="#094f81" fill-opacity=".8" d="M43.3-1.1L25.6 40 12.4 22.1l36.1-2.4z"/><ellipse cx="190" cy="168" fill-opacity=".3" rx="247" ry="8"/><circle cx="211" cy="20" r="6" fill="#babbae" fill-opacity=".4"/><path fill="#5d5146" d="M219.5 54.8l-30.6-9.6 8-7.4-6.7-6.5z"/><path fill="#c4956e" fill-opacity=".4" d="M111 96l18-21 1 21z"/><circle r="1" fill="#2b2c28" fill-opacity=".5" transform="matrix(-84.50978 13.95714 -1.73604 -10.51166 101.6 71)"/></g></svg>