<svg xmlns="http://www.w3.org/2000/svg" viewBox="0 0 298 450"><defs/><path fill="#434344" d="M0 0h298v450H0z"/><g transform="translate(.9 .9) scale(1.75781)"><circle r="1" fill="#f1f1f0" fill-opacity=".6" transform="rotate(-139.3 66 70.6) scale(169 92.59923)"/><circle r="1" fill="#dfdfdf" fill-opacity=".7" transform="matrix(21.14187 11.18887 -38.57827 72.89535 96.4 5.2)"/><circle r="1" fill="#fefefe" fill-opacity=".8" transform="rotate(143.4 -5.7 89.2) scale(37.40415 40.91)"/><circle r="1" fill="#f4f4f2" fill-opacity=".4" transform="rotate(-124.3 90.3 -33.7) scale(32.8524 27.52239)"/><circle r="1" fill="#1f1f20" fill-opacity=".8" transform="rotate(37.4 -121 277.8) scale(10.96928 17.28268)"/><circle r="1" fill="#fafafb" fill-opacity=".5" transform="matrix(-29.31097 41.03417 -14.97021 -10.69331 163.9 147.9)"/><path fill-opacity=".6" d="M11 180.4l20 94-6 1.2-20-94z"/><ellipse cx="39" cy="26" fill-opacity=".6" rx="14" ry="33"/><ellipse cx="116" cy="79" fill-opacity=".5" rx="8" ry="52"/><circle r="1" fill="#79797a" fill-opacity=".5" transform="matrix(85.79871 9.8438 -5.18866 45.22444 95.4 255)"/><path fill="#fff" fill-opacity=".6" d="M120-2.5l3 28.8-21 2.2L99-.3z"/><path fill="#959595" fill-opacity=".9" d="M28.6 25L20 127.5l-36-35.2L2.7 25.1z"/><circle r="1" fill="#151515" transform="matrix(-61.66875 -8.8866 2.88565 -20.02504 0 .8)"/><path fill="#e4e4e4" fill-opacity=".5" d="M132 93h20v17h-20z"/><path fill="#29292b" fill-opacity=".5" d="M90.8 99l-19.2 16-8.4-10 19.2-16z"/><circle r="1" fill="#1c1c1c" fill-opacity=".5" transform="matrix(-11.2052 11.76663 -35.65047 -33.94948 136.9 61.7)"/><circle r="1" fill="#5c5c5c" transform="rotate(62.6 -5.8 113) scale(12.78156 11.77573)"/><path fill="#fff" fill-opacity=".5" d="M24.7 272l-6.8 1.8L-6.7 182l6.8-1.8z"/><path fill="#fff" fill-opacity=".6" d="M124 148h35v23h-35z"/><path fill="#070707" fill-opacity=".6" d="M0 211l16 60h-32z"/><path fill-opacity=".3" d="M130.3 137.2l29.2-43.6 1.3 50.6-51.6-15.6z"/><ellipse cx="9" cy="154" fill="#fafafb" fill-opacity=".5" rx="66" ry="26"/><path fill="#222" fill-opacity=".6" d="M71-16l30 34-10-32z"/><path fill="#313133" fill-opacity=".3" d="M48.6 196.1L34.3 227l-11-5 14.5-31z"/><circle r="1" fill="#bebebe" fill-opacity=".5" transform="matrix(-19.91346 -13.254 20.97342 -31.5115 73.7 53.2)"/><circle r="1" fill="#1d1d1d" fill-opacity=".5" transform="rotate(-8.5 1471 4.5) scale(3.00007 52.39582)"/><circle cx="121" cy="201" r="41" fill="#9c9c9d" fill-opacity=".5"/><path fill="#fcfcfc" fill-opacity=".6" d="M18 214l-9-84 62-4z"/><circle r="1" fill="#7b7b7b" fill-opacity=".5" transform="rotate(137.4 -8.8 57.5) scale(14.54609 29.3929)"/><path fill="#777" fill-opacity=".8" d="M130.6-13.2L119.3-16l1.1 52.8 10.3-8z"/><path fill="#e2e2e2" fill-opacity=".6" d="M160 119h10v68h-10z"/><path fill="#f7f7f8" fill-opacity=".5" d="M183 50l-14-66-6 66z"/><path fill="#585858" fill-opacity=".5" d="M153 0h9v90h-9z"/><path fill="#fff" fill-opacity=".4" d="M82.2 56.9l-6.1-24.4L75 3.2l28.7 28.1z"/><path fill="#171717" fill-opacity=".5" d="M119 87l11 8-21 23z"/><circle r="1" fill="#8e8e8f" fill-opacity=".5" transform="matrix(-20.06357 -58.26883 6.20118 -2.13524 85.6 164.6)"/><circle r="1" fill="#cececf" fill-opacity=".5" transform="rotate(166.6 -1 116.7) scale(3.94465 26.90575)"/><ellipse cx="31" cy="65" fill="#ababab" fill-opacity=".6" rx="53" ry="10"/><path fill="#cbcbcb" fill-opacity=".6" d="M61 186l30 45 10-10z"/><path fill-opacity=".2" d="M61 62.9l22.6-11.3L161 35l-10.1 34.6z"/><ellipse cy="157" fill="#dadada" rx="14" ry="26"/><path fill="#dddddc" fill-opacity=".4" d="M-1.3 66.1l23.1-45.5L-3.9 32l14.3 36.8z"/><path fill="#434343" fill-opacity=".5" d="M2 45l16-3-5 18z"/><ellipse cx="102" cy="93" fill="#9c9c9d" fill-opacity=".6" rx="13" ry="18"/><path fill="#1b1b1b" fill-opacity=".5" d="M26 19h23v35H26z"/><path fill="#fff" fill-opacity=".2" d="M115 181l13-51 57 49z"/><path fill="#fff" fill-opacity=".5" d="M123 28l-21-5-8-39z"/><path fill="#616161" fill-opacity=".6" d="M170.9 271l-1.1-38.6-6.7 13.4L89.3 271z"/><path fill="#e8e8ea" fill-opacity=".3" d="M47.2 156.7l14-37.3 18.9-42.5-15.7-23.8z"/><ellipse cx="169" cy="80" fill="#0c0c0c" fill-opacity=".9" rx="4" ry="26"/><path fill="#717171" fill-opacity=".5" d="M33.8 73.8L79.4-16 65.8 19.7l.2 11.9z"/><path fill-opacity=".1" d="M111.3 231.2l-1.8 31.1-16.7-11-85.7-25z"/><path fill="#9d9d9d" fill-opacity=".5" d="M123.7 95.6l27-.5-7.4 16.8-46.7 93.4z"/><path fill="#ececed" fill-opacity=".5" d="M82 187l-11-57-28 86z"/><path fill="#0d0d0d" fill-opacity=".9" d="M-12.3 3.9L-.4-8.4l37 5.6-38.3 35.2z"/><path fill="#858585" fill-opacity=".5" d="M83 157l1 45 48-4z"/><path fill-opacity=".7" d="M102 74.9L88 75v-4l14-.2z"/><path fill="#020202" fill-opacity=".5" d="M30.6 278l-3.9.9-19.3-91 3.9-.8z"/><path fill="#b4b4b4" fill-opacity=".4" d="M165 46l-15-23-18 3z"/><path fill="#686868" fill-opacity=".4" d="M77.2 87.6l12.1 10.8 2 16.2-29.8 2.4z"/><path fill="#989898" fill-opacity=".4" d="M166.7 110.8l-3.2 54.1-7.4-18.8-5.2-16.8z"/><path fill="#101010" fill-opacity=".5" d="M162 85.4l-33 62.3 19.5-16.6 6.3-21.4z"/><path fill="#e8e8e8" fill-opacity=".6" d="M12 212l-28-95v95z"/><path fill="#fff" fill-opacity=".4" d="M77.5 243.6l18 20-3 2.8-18-20z"/><circle r="1" fill="#1c1c1c" fill-opacity=".7" transform="matrix(-15.43084 25.18084 -18.1177 -11.10254 43 5)"/></g></svg>