<svg xmlns="http://www.w3.org/2000/svg" viewBox="0 0 300 199"><defs/><path fill="#373737" d="M0 0h300v199H0z"/><g transform="translate(.6 .6) scale(1.17188)"><circle r="1" fill="#f4f4f4" fill-opacity=".6" transform="rotate(45.4 -52.5 245.7) scale(102.3328 255.00001)"/><circle r="1" fill="#2a2a2a" fill-opacity=".6" transform="matrix(21.06045 -6.96508 15.52585 46.94583 82.1 108)"/><circle r="1" fill="#c9c9c9" fill-opacity=".6" transform="matrix(1.1477 20.3973 -134.50697 7.56831 67.5 0)"/><ellipse cx="154" cy="136" fill="#cbcbcb" fill-opacity=".8" rx="46" ry="134"/><circle r="1" fill-opacity=".4" transform="rotate(168.6 117 36.4) scale(7.96359 53.06903)"/><ellipse cx="117" cy="78" fill="#0e0e0e" fill-opacity=".5" rx="22" ry="8"/><path fill="#1e1e1e" fill-opacity=".5" d="M212.6 90.3l-26 2.3-3.2-36.9 26-2.3z"/><circle r="1" fill="#636363" fill-opacity=".8" transform="rotate(132.2 -5.4 56) scale(125.6727 7.74503)"/><path fill="#c2c2c2" fill-opacity=".7" d="M19.4 68.9l4.2 7-36.6.8L2.5 58.8z"/><path fill="#fff" fill-opacity=".6" d="M263 109L142 72l-1 33z"/><path fill="#020202" fill-opacity=".6" d="M95.5 33.8L69.2 64.5l-11.9-49 26.3 1z"/><path fill="#fff" fill-opacity=".6" d="M146 68h64v9h-64z"/><ellipse cx="118" cy="61" fill="#fff" fill-opacity=".6" rx="44" ry="8"/><circle r="1" fill="#969696" fill-opacity=".4" transform="matrix(25.32323 57.59635 -14.44336 6.35027 36.2 33.6)"/><path fill="#242424" fill-opacity=".6" d="M271 124.1L204.2 11.6l39.1 33.3 9.6 41.6z"/><ellipse cx="27" cy="143" fill="#b4b4b4" fill-opacity=".8" rx="41" ry="26"/><circle r="1" fill="#a8a8a8" fill-opacity=".7" transform="matrix(-98.86936 -1.86283 .51676 -27.42705 178 162.8)"/><path fill="#f4f4f4" fill-opacity=".4" d="M150 28h66v28h-66z"/><path fill="#0e0e0e" fill-opacity=".5" d="M96 93l-55-2 66 39z"/><path fill="#4e4e4e" fill-opacity=".5" d="M207 23l-35-13 99-19z"/><path fill="#c7c7c7" fill-opacity=".5" d="M120.7 44.7l-49 13.5 35.9 20.9-44.4 17.3z"/><path fill-opacity=".4" d="M205 90l-25-10 37-3z"/><path fill="#070707" fill-opacity=".5" d="M79.4 133.5l6.2 17.7-15.1 3 7.7-24.6z"/><circle r="1" fill="#d8d8d8" fill-opacity=".5" transform="matrix(12.4301 6.7853 -19.6368 35.97298 216.7 107.7)"/><path fill="#2d2d2d" fill-opacity=".5" d="M29.3 159.4L27 147l13.8-2.6-6.1 13z"/><path fill="#888" fill-opacity=".8" d="M94 58l27-46-32-28z"/><path fill="#303030" fill-opacity=".4" d="M20 39h19v76H20z"/><path fill="#b4b4b4" fill-opacity=".6" d="M75.6 138.4l-45.8-1.7L42 91l24.5 18.3z"/><path fill="#ececec" d="M162.1 41.1l-31 57.3 139.9 5.3-84.8-12.5z"/><path fill="#828282" fill-opacity=".5" d="M79 69h105v3H79z"/><path fill="#3b3b3b" fill-opacity=".8" d="M239.7 90.5l-7.4 3.5 30.6 3-22.5-16.5z"/><path fill="#b8b8b8" fill-opacity=".6" d="M233.4 42.9l-.4-7.4-7.9-30.7-13.8 6.8z"/><path fill-opacity=".4" d="M183.5 66.3l27.2 2L200.1 54l-6 3.4z"/><path fill="#e7e7e7" fill-opacity=".6" d="M126 33.4l-8.8-45.1 8.8-1.7 8.8 45.1z"/><path fill="#7e7e7e" fill-opacity=".5" d="M218 176l29.6-51 36.3 21-29.5 51z"/><path fill="#2c2c2c" fill-opacity=".5" d="M53 109.8l-8.8-2.2 4.9-19.4 8.7 2.2z"/><path fill="#171717" fill-opacity=".4" d="M198.7 19.4l-24-14.6L166-3l7.4 15.7z"/><path fill="#d0d0d0" d="M187.1 77.4l-30.8-26 44.4-27.3-26.5-10.7z"/><path fill-opacity=".2" d="M69.4 112.6l24.8-40.7 44.2-1.4L118.1 90z"/><path fill="#dbdbdb" fill-opacity=".7" d="M109 185l12.3-12-17.7-19.7 23.6-71.8z"/><path fill="#232323" fill-opacity=".6" d="M199.2 91l-15.4-4.1 1-3.9 15.4 4.1z"/><path fill="#dcdcdc" fill-opacity=".3" d="M69.2 95.1L55 80.8l18.5 23.1 29.6-54.3z"/><path fill="#a2a2a2" fill-opacity=".7" d="M55-3.7L13.9 31.7l54.5-20.2 21-27.5z"/><path fill="#1e1e1e" fill-opacity=".5" d="M227.5 19.6l6.5-20 8.5 2.8-6.5 20z"/><path fill="#b2b2b2" fill-opacity=".5" d="M51.9 72.4l-9-16.5-2.5-7.7 21.5 22.7z"/><path fill="#bababa" fill-opacity=".6" d="M95 69l11 22-15-5z"/><path fill="#efefef" fill-opacity=".4" d="M241 4h15v21h-15z"/><ellipse cx="189" cy="132" fill="#b9b9b9" fill-opacity=".5" rx="57" ry="30"/><circle r="1" fill="#d7d7d7" fill-opacity=".5" transform="matrix(.96405 -22.0803 23.60277 1.03052 133.2 103.8)"/><path fill="#cfcfcf" fill-opacity=".9" d="M226.7 88.6l-1.6-25.1L227 52l-14.2-14.7z"/><path fill="#141414" fill-opacity=".6" d="M184 14.1l31.8 5.9 7.9 10.8-14.6-8.7z"/><path fill="#8e8e8e" fill-opacity=".6" d="M116.6 31.5l23.5 14-19.1 4.6-48.4-42z"/><path fill="#4e4e4e" fill-opacity=".8" d="M48.6 14.3L58.2 70l-4.8 13.2L81 79.3z"/><path fill="#fff" fill-opacity=".5" d="M88 39h3v32h-3z"/><path fill="#7f7f7f" fill-opacity=".5" d="M57.2 185l22.6-32.6 15.1-10.2L109 185z"/><path fill="#fff" fill-opacity=".7" d="M254 71.7l6.7 16.7-4.6 1.9-6.8-16.7z"/><ellipse cy="95" fill-opacity=".3" rx="22" ry="21"/><path fill="#cacaca" fill-opacity=".6" d="M57.3 185L42 78.5 45.1 95l-8 .6z"/><path fill="#b9b9b9" fill-opacity=".6" d="M229.3 27.8L166-4.4l2.7-5.4L232 22.4z"/><path fill="#0f0f0f" fill-opacity=".5" d="M63 15h20v40H63z"/><path fill="#4c4c4c" fill-opacity=".5" d="M32.4 8.4L15.2 5.2 8.9 32.7l-6-45.2z"/><path fill="#3c3c3c" fill-opacity=".6" d="M75.9 106.8l17.4 38.6 15.9-29.1-1.1-12.3z"/><path fill="#e5e5e5" fill-opacity=".5" d="M53 84h13v5H53z"/><path fill="#7d7d7d" fill-opacity=".5" d="M48 0h7v35h-7z"/><path fill="#fff" fill-opacity=".5" d="M18 68H5l11 7z"/></g></svg>