<svg xmlns="http://www.w3.org/2000/svg" viewBox="0 0 300 199"><defs/><path fill="#4b2941" d="M0 0h300v199H0z"/><g transform="translate(.6 .6) scale(1.17188)"><circle r="1" fill="#a48aff" fill-opacity=".7" transform="matrix(1.11649 -35.88417 34.36958 1.06936 113.8 19)"/><circle r="1" fill="#726fc9" fill-opacity=".6" transform="rotate(67.1 -50.7 165.6) scale(30.76445 58.74194)"/><circle r="1" fill="#050013" fill-opacity=".7" transform="rotate(84.9 -66.7 78.7) scale(124.78124 44.34416)"/><circle r="1" fill="#00000d" fill-opacity=".6" transform="matrix(35.05619 6.95614 -14.44234 72.78368 247.2 73.8)"/><circle r="1" fill="#7782a4" fill-opacity=".5" transform="matrix(13.99424 -2.6542 12.61909 66.53385 56.5 39.3)"/><ellipse cx="126" cy="71" fill="#000017" fill-opacity=".4" rx="56" ry="21"/><path fill="#876b9c" fill-opacity=".8" d="M178.4 127.6l-12.9-5.5 16-37.7 13 5.5z"/><ellipse cx="183" cy="137" fill="#000815" fill-opacity=".5" rx="40" ry="10"/><ellipse cx="104" cy="27" fill="#220445" fill-opacity=".6" rx="10" ry="9"/><path fill="#e6ccf2" fill-opacity=".6" d="M115 28l-5.6-29.4L132.9-6l5.7 29.4z"/><ellipse cx="243" cy="169" fill="#7183ff" fill-opacity=".5" rx="12" ry="18"/><circle r="1" fill-opacity=".7" transform="matrix(-18.78302 -8.4722 4.76264 -10.55887 178 3)"/><path fill="#6a65c6" fill-opacity=".7" d="M65 140h41v30H65z"/><ellipse cx="149" cy="11" fill="#8b4a61" fill-opacity=".9" rx="10" ry="18"/><ellipse cx="125" cy="126" fill="#8e80cd" fill-opacity=".6" rx="27" ry="12"/><path fill="#5344aa" fill-opacity=".5" d="M83 110L61 93l87-3z"/><path fill="#0e050d" fill-opacity=".6" d="M125.3 110.2l58.5-3.6-151.3-1.5 5.3 41.3z"/><circle r="1" fill="#0b0404" fill-opacity=".5" transform="matrix(5.36524 48.59772 -4.92296 .5435 77.9 31.4)"/><path fill="#8c68ff" fill-opacity=".4" d="M85 36h64v13H85z"/><circle r="1" fill="#524492" fill-opacity=".5" transform="matrix(-11.59072 -4.54235 10.2968 -26.27433 201.5 34.7)"/><path fill="#4e3233" fill-opacity=".5" d="M129.4 136.6l20.5 38.3L88.1 185l15.8-21.4z"/><path fill="#190d2b" fill-opacity=".4" d="M191.6 41l-32.3 89.5 8.8 33.3-52.2-111z"/><path fill="#38148e" fill-opacity=".5" d="M23 57l-39 11 79 9z"/><path fill="#4233a4" fill-opacity=".6" d="M-.1-.5L11.6-16l7 33.6L0 22.2z"/><circle cx="97" cy="3" r="17" fill="#8980ff" fill-opacity=".7"/><path fill="#ffd4cb" fill-opacity=".6" d="M218.1-1.6L213.6 6 206 1.6l4.5-7.7z"/><circle r="1" fill="#6d6acb" fill-opacity=".5" transform="matrix(-13.80505 -16.2797 3.67085 -3.11285 191.3 93.8)"/><path fill="#45376a" fill-opacity=".9" d="M134.3 128.2l65.9 25.8-25.4 23.2-30.5-45z"/><path fill="#513b72" fill-opacity=".6" d="M80.8 88.9L93 57.2l10.2 3.9L91 92.8z"/><circle r="1" fill="#020416" fill-opacity=".5" transform="rotate(-32.5 214.8 -289.9) scale(8.81972 24.49326)"/><path fill="#ffdbad" fill-opacity=".7" d="M176 101l5-5 7 7-5 5z"/><path fill="#00040a" fill-opacity=".5" d="M204 158l31-2-70-25z"/><path fill="#000200" fill-opacity=".4" d="M44 45L-6 59 34-7z"/><path fill="#34204f" fill-opacity=".7" d="M62.5 138.5l27.3-17.3-73-81 74.4 102.9z"/><circle r="1" fill-opacity=".4" transform="rotate(-31.3 181.7 -194.5) scale(31.35218 8.73099)"/><circle r="1" fill="#7350da" fill-opacity=".4" transform="matrix(-12.36748 -16.76392 5.17196 -3.81558 106.8 50.6)"/><circle r="1" fill="#0f0410" fill-opacity=".6" transform="matrix(-28.84246 12.6928 -17.50067 -39.7676 255 111.2)"/><ellipse cx="62" cy="46" fill="#6a6276" fill-opacity=".5" rx="13" ry="46"/><path fill="#9380f3" fill-opacity=".4" d="M141 141l9 32 13-32z"/><circle cx="230" cy="2" r="14" fill="#3a1509" fill-opacity=".8"/><path fill="#2c1a40" fill-opacity=".6" d="M91.3 151.4l49-18-36.1 18.3L17 167.9z"/><path fill="#9084c6" fill-opacity=".4" d="M210 162h33v8h-33z"/><path fill="#9793f9" fill-opacity=".6" d="M98 157l-21 5 22 23z"/><path fill="#6b5aa1" fill-opacity=".6" d="M182.2 83.5l24.1 13.2-46.7-9.4 2-1.8z"/><path fill="#5b5395" fill-opacity=".5" d="M222.9 120.7l-29.5 1-4.6 2.2 14.3 8.1z"/><circle r="1" fill="#090008" fill-opacity=".6" transform="matrix(13.30012 31.49187 -40.071 16.92339 15.5 164.5)"/><circle r="1" fill="#45244e" fill-opacity=".6" transform="matrix(9.9748 -4.50069 13.54599 30.02176 160 44.3)"/><path fill="#7773ff" fill-opacity=".5" d="M85 0h12v50H85z"/><path fill="#8b77b7" fill-opacity=".5" d="M93 150l-12-23 38 10z"/><path fill="#5e489b" fill-opacity=".5" d="M117.4 94.7l20.7-7.6 4.5 12.2-20.7 7.6z"/><circle r="1" fill="#f5e9e6" fill-opacity=".7" transform="matrix(-.63735 7.92157 -5.4152 -.4357 123.2 12.1)"/><circle r="1" fill="#29234b" fill-opacity=".5" transform="matrix(19.47813 -34.9523 8.6791 4.83667 219.7 47.5)"/><path fill="#a475ea" fill-opacity=".3" d="M139 6L99 54l49-10z"/><path fill="#8572ff" fill-opacity=".6" d="M6-16l8 32 1-32z"/><path fill="#61468b" fill-opacity=".5" d="M156.3 110.2l18-6.2 7.4 21.8-18 6.2z"/><path fill="#5b2826" fill-opacity=".5" d="M25 39h13v23H25z"/><path fill="#9a79df" fill-opacity=".6" d="M202 3l-29-19h70z"/><path fill="#090c15" fill-opacity=".6" d="M186.2 113.2l-4.1 39.7 47.2-27.7-30.3 8.4z"/><path fill="#6c617e" fill-opacity=".5" d="M50 84L40-8l39 91z"/><path fill="#7847be" fill-opacity=".5" d="M181.3 38.7l-1.4-.2-4.1 8.8-7-10z"/><circle cx="179" cy="14" r="18" fill="#000006" fill-opacity=".2"/><path fill="#120007" fill-opacity=".4" d="M148.3 113.9l41.8-23.8-1.5 1-109.1 26.7z"/><path fill="#3d346a" fill-opacity=".6" d="M220.6 133.6L204 148l67 5.7-7.6 25.2z"/><path fill="#a0b6ff" fill-opacity=".4" d="M73.3 147.4l-5.3 2.9-5.3-9.7 5.3-2.9z"/><circle r="1" fill="#07001a" fill-opacity=".5" transform="matrix(-9.3572 -46.4065 2.09772 -.42297 8.5 10.2)"/></g></svg>