<svg xmlns="http://www.w3.org/2000/svg" viewBox="0 0 300 199"><defs/><path fill="#444" d="M0 0h300v199H0z"/><g transform="translate(.6 .6) scale(1.17188)"><circle r="1" fill="#efefef" fill-opacity=".8" transform="matrix(3.71149 -109.27702 62.20666 2.11279 70.5 19.3)"/><circle r="1" fill="#bbb" fill-opacity=".4" transform="matrix(-24.9403 -39.57386 215.73178 -135.95882 145.2 44.2)"/><path fill="#5f5f5f" fill-opacity=".5" d="M271 86L9 101l-1 75z"/><circle r="1" fill="#fff" fill-opacity=".6" transform="matrix(-1.73254 36.39177 -52.95672 -2.52117 65 51)"/><path fill="#fff" fill-opacity=".8" d="M-1.8 86l19.4 137.7L1.8 226-17.6 88.3z"/><ellipse cx="176" cy="32" fill="#e4e4e4" fill-opacity=".5" rx="5" ry="131"/><circle r="1" fill="#535353" fill-opacity=".8" transform="rotate(129.8 95.4 82) scale(48.18787 36.76715)"/><ellipse cx="144" cy="62" fill="#676767" fill-opacity=".7" rx="27" ry="35"/><circle r="1" fill="#e6e6e6" fill-opacity=".6" transform="matrix(-7.68723 -17.18503 14.77451 -6.60896 106.3 87.5)"/><ellipse cx="194" cy="169" fill-opacity=".2" rx="13" ry="168"/><ellipse cx="16" cy="156" fill-opacity=".3" rx="8" ry="46"/><ellipse cx="26" cy="72" fill="#fff" fill-opacity=".3" rx="13" ry="41"/><path fill="#c5c5c5" fill-opacity=".6" d="M5-16l79 59 108-59z"/><ellipse cy="104" fill="#e5e5e5" fill-opacity=".5" rx="4" ry="54"/><circle r="1" fill="#222" fill-opacity=".6" transform="rotate(85.6 27 198.9) scale(24.86421 38.60504)"/><path fill-opacity=".4" d="M7 80h9v32H7z"/><path fill="#949494" fill-opacity=".4" d="M186.3 90.9l-6.4 94.1-20.8-82.8 9.5-28.2z"/><circle r="1" fill="#8c8c8c" fill-opacity=".5" transform="rotate(-177.1 36.2 53.4) scale(54.29342 14.92833)"/><circle r="1" fill="#a1a1a1" fill-opacity=".6" transform="rotate(-91.4 117 -114.3) scale(11.92833 32.11397)"/><path fill="#e5e5e5" fill-opacity=".6" d="M175 17h11v13h-11z"/><path fill="#b8b8b8" fill-opacity=".9" d="M184 41.6l-10.7-5.8 7.2 26 5.3-14.1z"/><circle r="1" fill="#fbfbfb" fill-opacity=".4" transform="rotate(-20.8 151.6 -85.5) scale(23.63266 41.17213)"/><ellipse cx="68" cy="124" fill="#707070" fill-opacity=".6" rx="50" ry="13"/><circle r="1" fill="#b5b5b5" fill-opacity=".4" transform="rotate(-75.6 98.9 -4.7) scale(15.43866 30.23583)"/><ellipse cx="249" cy="61" fill="#626262" fill-opacity=".6" rx="18" ry="47"/><path fill="#a0a0a0" fill-opacity=".6" d="M8 34l9-50H3z"/><path fill="#eee" fill-opacity=".4" d="M101.7 18l7.6 94.1L127.5 7 92.2 22.7z"/><path fill="#ccc" fill-opacity=".4" d="M188.3 99.9l-9 6.3-4.1 34.4-1.4-60.5z"/><path fill="#5d5d5d" fill-opacity=".4" d="M190 180L132 11l-11 68z"/><path fill="#323232" fill-opacity=".5" d="M196 15L179-6l1 17z"/><path fill="#181818" fill-opacity=".5" d="M180 61h12v26h-12z"/><path fill="#323232" fill-opacity=".3" d="M20.2 189L6 147.6 59.9 129 74 170.5z"/><path fill="#1e1e1e" fill-opacity=".7" d="M3.7 71.2l1.7-34.6L13.2 87l-.7 21.4z"/><path fill="#292929" fill-opacity=".5" d="M180 40V30l15 5z"/><circle cx="210" cy="119" r="32" fill="#3b3b3b" fill-opacity=".4"/><path fill="#b4b4b4" fill-opacity=".5" d="M21.2 83.8l-12-23.7 8.6 35.3 39.6 9.5z"/><path fill="#fdfdfd" fill-opacity=".4" d="M14 185H-3.1L-16 83.4l26 73.4z"/><circle r="1" fill="#b4b4b4" fill-opacity=".5" transform="matrix(-.29021 10.21583 -87.79655 -2.4941 91.7 0)"/><circle r="1" fill="#575757" fill-opacity=".3" transform="matrix(-20.79046 -53.32477 20.64216 -8.04804 214 62)"/><path fill="#616161" fill-opacity=".4" d="M-16 85.1L4.9 45.7l7.8 6.4-9.2-66.4z"/><path fill="#838383" fill-opacity=".5" d="M128.8 9.3l10.3 24.1-23.5 25.9 8.2 48.9z"/><path fill="#7f7f7f" fill-opacity=".4" d="M173.1 89.3L172.6-16l-6.2 58.8-32.8 3z"/><path fill="#464646" fill-opacity=".5" d="M6 91h12v55H6z"/><path fill="#1c1c1c" fill-opacity=".5" d="M197 137l-15-30 7 71z"/><path fill="#4f4f4f" fill-opacity=".5" d="M87 162l83-37-33-41z"/><path fill="#888" fill-opacity=".5" d="M17.4 111.4L35.5 100v25.5l-11.6 13.2z"/><path fill="#f6f6f6" fill-opacity=".3" d="M18.2 88.4l30.4.5L55.2 32 9.4 13z"/><path fill="#9a9a9a" fill-opacity=".4" d="M3.8 112.2l-9.4-32.7 5.8-1.7 9.4 32.7z"/><path fill="#afafaf" fill-opacity=".5" d="M127 31.7l3.6 1.8L117 60.3l-3.6-1.8z"/><path fill="#595959" fill-opacity=".2" d="M149 57l23-73-37 30z"/><ellipse cx="176" cy="36" fill="#dadada" fill-opacity=".5" rx="3" ry="15"/><path fill="#c3c3c3" fill-opacity=".4" d="M176 85l7 20V87z"/><path fill="#797979" fill-opacity=".4" d="M207 9h32v19h-32z"/><circle r="1" fill="#e8e8e8" fill-opacity=".5" transform="rotate(-111.8 78 1.9) scale(25.47608 10.65987)"/><circle r="1" fill="#9f9f9f" fill-opacity=".4" transform="matrix(-14.20153 10.47027 -2.18511 -2.96381 110.7 106.8)"/><circle cx="180" cy="20" r="7" fill="#c2c2c2" fill-opacity=".5"/><circle r="1" fill="#dbdbdb" fill-opacity=".5" transform="matrix(35.01346 20.95182 -5.05425 8.44636 65.4 28.9)"/><circle r="1" fill="#2a2a2a" fill-opacity=".2" transform="matrix(19.8289 -7.46187 4.33144 11.51021 157.7 160.3)"/><path fill="#aeaeae" fill-opacity=".5" d="M16.3 225.8L-7.3 34.3l1-.1 23.6 191.5z"/><ellipse cx="4" cy="47" fill="#262626" fill-opacity=".3" rx="4" ry="24"/><circle r="1" fill="#484848" fill-opacity=".5" transform="matrix(-45.21863 -29.25324 7.8475 -12.13038 235 106.2)"/><ellipse cx="136" cy="62" fill="#676767" fill-opacity=".6" rx="17" ry="21"/><path fill="#424242" fill-opacity=".7" d="M180.3 54.7l10.4 17.6L202 61.7l-25-5.3z"/><path fill="#2a2a2a" fill-opacity=".5" d="M12 153h15v17H12z"/><path fill="#a3a3a3" fill-opacity=".4" d="M76.5 89.3l16.4 1.5 16.9 16.6-95.6-4.4z"/></g></svg>