<svg xmlns="http://www.w3.org/2000/svg" viewBox="0 0 300 199"><defs/><path fill="#4c483a" d="M0 0h300v199H0z"/><g transform="translate(.6 .6) scale(1.17188)"><circle r="1" fill="#a5847d" fill-opacity=".7" transform="rotate(-159.8 99.7 15.8) scale(43.52836 90.23964)"/><path fill="#ffe5cd" fill-opacity=".5" d="M-14.8 105.1L90.6 86.6l8.2 46.3-105.4 18.5z"/><path fill="#210000" fill-opacity=".8" d="M271 157l-74-84 19 112z"/><ellipse cx="191" cy="100" fill="#ffd8e3" fill-opacity=".5" rx="11" ry="51"/><circle r="1" fill="#8f694f" fill-opacity=".9" transform="matrix(37.57091 4.54458 -5.93262 49.0461 60.8 160.6)"/><ellipse cx="49" cy="9" fill="#854c2d" fill-opacity=".7" rx="134" ry="30"/><ellipse cx="224" cy="58" fill="#121302" fill-opacity=".8" rx="8" ry="18"/><circle r="1" fill="#eec4b4" fill-opacity=".3" transform="matrix(100.65887 -57.64788 6.42523 11.21909 140.3 61.9)"/><path fill="#1c0000" fill-opacity=".6" d="M146 120.2l-9.5 32.7-38.4-11 9.4-32.8z"/><path fill-opacity=".5" d="M164.3 158l-9.4-44 8.8-2 9.4 44z"/><ellipse cx="110" cy="52" fill="#dbdddd" fill-opacity=".7" rx="4" ry="14"/><path fill="#c09c85" fill-opacity=".5" d="M236 0h16v63h-16z"/><circle r="1" fill="#d2dde5" fill-opacity=".5" transform="matrix(9.03403 -4.9402 14.07693 25.74217 20.9 132.7)"/><ellipse cx="22" cy="67" fill="#222521" fill-opacity=".6" rx="46" ry="30"/><circle r="1" fill="#321004" fill-opacity=".7" transform="matrix(-20.79285 -10.38432 36.8305 -73.74681 235 127.5)"/><path fill-opacity=".5" d="M172 96h20v8h-20z"/><path fill="#342f2c" d="M5.9 121.6l-6.5 13L-4.7-16l8.3 122.4z"/><circle r="1" fill="#97a188" fill-opacity=".5" transform="matrix(29.02963 4.05772 -1.38473 9.9066 2.3 68)"/><path fill="#341807" fill-opacity=".6" d="M126 71l34-68-48 29z"/><ellipse cx="35" cy="32" fill="#d7d9d2" fill-opacity=".5" rx="76" ry="2"/><path fill="#f9eef4" fill-opacity=".3" d="M61.1 102.4l6-24.5 31.6 64.7-8.3-69.4z"/><path fill="#bbe2ff" fill-opacity=".4" d="M163.1 200.7l-19-98.1 6.8-1.3 19 98.1z"/><path fill="#6d4127" d="M182 21.3L177.8-16l-18.4 52.6 7.9-1.1z"/><path fill="#1e1100" fill-opacity=".5" d="M69 35h35v33H69z"/><path fill="#533132" fill-opacity=".7" d="M173.2 69.2l18.2 12.4L162 80l-6.8-35.3z"/><path fill="#ba9c98" fill-opacity=".5" d="M108 104l26 20-27-40z"/><path fill="#96b3cc" fill-opacity=".4" d="M137 77l26 17-9-72z"/><circle r="1" fill="#82492d" fill-opacity=".6" transform="matrix(-5.83798 16.76165 -50.93215 -17.73936 113.6 163.9)"/><path fill="#ffdfe6" fill-opacity=".4" d="M182 109h9v41h-9z"/><path fill="#fff0d3" fill-opacity=".4" d="M11 103l52-8-57 30z"/><path fill="#2e2528" fill-opacity=".6" d="M127.1 108.2l-15.6-4.5 22.8-18.6 18.1 63.5z"/><path fill="#730000" fill-opacity=".3" d="M160.6 57.7l10.1 34.1 24.2 92.8-30.3.4z"/><path fill="#fad4c7" fill-opacity=".4" d="M174.6 60.9l-30.1-33.3L179 74.8l25.4-4.2z"/><path fill="#fdb85a" fill-opacity=".3" d="M50.7 17.3L33.6 48.1 32.6 8l6.5-6.3z"/><path fill="#816953" d="M69.4 71.4L60 21.1 77.4 96l3.8 58.7z"/><circle r="1" fill="#d9cdc1" fill-opacity=".5" transform="matrix(-4.29392 .35495 -5.6219 -68.0096 189.7 29.2)"/><path fill="#300d00" fill-opacity=".6" d="M220 7l-24-23 75 1z"/><path fill="#291808" fill-opacity=".6" d="M204.8 117.6l4 19.5 2.1-54.9-15.6-12.1z"/><path fill="#0b0b00" fill-opacity=".5" d="M0 39h62v17H0z"/><path fill="#020000" fill-opacity=".9" d="M255.3 44.2l-8.3-10 7.7-6.4 8.3 10z"/><path fill="#4d1300" fill-opacity=".5" d="M14 146l44 39-73-23z"/><circle r="1" fill="#ceb8a2" fill-opacity=".4" transform="matrix(10.9264 -8.34569 5.42351 7.1006 220.6 85)"/><path fill="#ffd89f" fill-opacity=".3" d="M125.3 52.4l-6.6-8.3L103.2 27 119 86.6z"/><path fill="#8f251e" fill-opacity=".5" d="M207.3 130.7L195 162.5l-8.4-3.2 12.2-31.8z"/><circle r="1" fill="#e1e1de" fill-opacity=".6" transform="matrix(3.6462 -1.5703 7.02776 16.31827 84 111.4)"/><path fill="#c8d7d2" fill-opacity=".5" d="M197 36h4v34h-4z"/><path fill="#570f07" fill-opacity=".5" d="M183 66l-18-21 22 13z"/><path fill="#0e0a00" fill-opacity=".4" d="M247.8 95.4l-18.7-60.8-6 23L248 98.1z"/><path fill="#7b5026" fill-opacity=".3" d="M91 185l-16-84-35 5z"/><path fill="#390c00" fill-opacity=".5" d="M138.3 148.6l-39.2-6-6.8-48.2 4.3-3.3z"/><path fill="#fad0d6" fill-opacity=".5" d="M197.8 95.4l-21 1.1-.6-12 21-1z"/><path fill="#413435" fill-opacity=".7" d="M129 68l25.6 26.6-3.5 3.4-25.7-26.6z"/><path fill="#666b79" fill-opacity=".5" d="M157.2 141.1L142.7 185l.8-50.2-12.3-60.2z"/><circle r="1" fill="#9c8a72" fill-opacity=".5" transform="rotate(159.2 114.2 31.6) scale(53.31009 16.61815)"/><path fill="#939dab" fill-opacity=".7" d="M35.5 71L4.6 77.5-9.6 74l34.5-3.3z"/><path fill="#d2d6da" fill-opacity=".7" d="M25.3 135.3l-23.9-5.2L8.8 152l-2.2-35.6z"/><path fill="#7d6628" fill-opacity=".4" d="M55.6 77.3L41.9 55.9 22 38.6l22.8-6.1z"/><path fill="#ffae3e" fill-opacity=".4" d="M122 17L110-9l4 36z"/><path fill="#151516" fill-opacity=".7" d="M48 92.5L9.2 36l21.9 11.5 35.9 41z"/><ellipse cx="10" cy="35" fill="#bfc3b2" fill-opacity=".4" rx="21" ry="3"/><path fill-opacity=".5" d="M115 135.1l-5-.8 7-39.4 5 .8z"/><path fill="#e7a196" fill-opacity=".5" d="M89.6 80.3l12.3 14.3-.8-22 4.8-6.1z"/><circle r="1" fill="#9e9186" fill-opacity=".4" transform="rotate(-120.5 66.7 66.7) scale(52.46911 9.6995)"/><path fill-opacity=".5" d="M161.5 136.7l-9.9-36.7 3-.7 9.8 36.7z"/><path fill="#cbb4ac" fill-opacity=".4" d="M143.1 33.7l30.3 33.6 4.5 2.1-15.5-34.2z"/></g></svg>