<svg xmlns="http://www.w3.org/2000/svg" viewBox="0 0 298 450"><defs/><path fill="#2e3d56" d="M0 0h298v450H0z"/><g transform="translate(.9 .9) scale(1.75781)"><circle r="1" fill="#ffdfc1" fill-opacity=".6" transform="matrix(-50.09317 -29.50713 25.3103 -42.96837 57.1 200.6)"/><circle r="1" fill="#161200" fill-opacity=".8" transform="matrix(129.37774 -108.73086 33.60814 39.98998 55.2 29.3)"/><circle r="1" fill="#fcab6d" fill-opacity=".3" transform="matrix(-36.16385 -17.16942 34.62413 -72.92858 84.8 120.7)"/><circle r="1" fill="#0c0b0b" fill-opacity=".8" transform="rotate(63.6 -80.9 209.5) scale(51.64566 34.78716)"/><circle r="1" fill="#aa8d7b" fill-opacity=".9" transform="matrix(10.21205 -5.34857 38.24495 73.02137 112.6 237)"/><ellipse cx="155" cy="33" fill="#101d04" fill-opacity=".9" rx="24" ry="54"/><circle r="1" fill="#d6dbdf" fill-opacity=".7" transform="matrix(33.4295 .75862 -.56796 25.02768 49.2 199.5)"/><ellipse cx="22" cy="130" fill="#190100" fill-opacity=".6" rx="16" ry="43"/><path fill="#fcd5b8" fill-opacity=".6" d="M132 143l17-13-60-24z"/><circle r="1" fill="#786c53" fill-opacity=".8" transform="matrix(8.11824 -24.32009 110.91727 37.0251 29.7 255)"/><path fill-opacity=".5" d="M75 59h13v73H75z"/><ellipse cy="165" fill="#c4b080" fill-opacity=".4" rx="8" ry="82"/><path fill="#b29885" d="M88.5 129.7L62 165.9l44.2 9.7-4.4-24.2z"/><path fill="#2a1303" fill-opacity=".7" d="M60.5 128.7l21.1-1.6-11.1 29.7-39.2-38.3z"/><ellipse cx="163" cy="243" fill="#0b1623" fill-opacity=".9" rx="34" ry="20"/><path fill="#ebad63" fill-opacity=".2" d="M96.4 17.4l-20.1 6.8 72.1 86.3L121.2 16z"/><path fill="#0c0700" fill-opacity=".6" d="M82.2 174.8l7.9 37.1-7.3-3.6-2.7-38.3z"/><path fill="#1f2510" fill-opacity=".7" d="M87.3 239.1l3.6-7.5-22.6 14.9L57.6 271z"/><path fill="#26352d" fill-opacity=".9" d="M138.7 75.6l-2.1 49.2-14.4-17.2 13.6-51.7z"/><circle cx="35" r="51" fill="#000600" fill-opacity=".7"/><path fill="#423226" fill-opacity=".8" d="M21 48l86 54-11-39z"/><path fill="#d7ccd0" fill-opacity=".5" d="M87 210l-103-47 80 90z"/><circle r="1" fill="#bd8c73" fill-opacity=".6" transform="rotate(33.1 -150 159.4) scale(12.34356 18.53614)"/><path fill="#d9e7fc" fill-opacity=".5" d="M115 96h8v30h-8z"/><circle cx="39" cy="252" r="9" fill="#0d1a00" fill-opacity=".7"/><path fill="#af917a" fill-opacity=".5" d="M36.7 143.2l25.7 17.4-19 28.2-25.8-17.4z"/><path fill="#baa899" d="M78.7 271L93 219.4l5.8 18L79.9 271z"/><path fill="#050000" fill-opacity=".6" d="M100.6 109.8l17.7-3.5 1.1 6-17.7 3.4z"/><circle r="1" fill="#516615" fill-opacity=".5" transform="rotate(10.1 -415 1004) scale(40.48087 12.79709)"/><path fill="#edba9d" fill-opacity=".4" d="M113 46l10 48 13-46z"/><path fill="#7d210d" fill-opacity=".5" d="M51 212v16l12-5z"/><path fill="#d7b7a3" fill-opacity=".6" d="M109 236l32 34-39-78z"/><path fill="#0c0c0f" fill-opacity=".5" d="M108 142h62v68h-62z"/><ellipse cx="94" cy="113" fill="#898492" rx="7" ry="12"/><path fill="#cfbdab" fill-opacity=".8" d="M138.3 129.8v-25.1l-5.3 33.7-24.6-24.8z"/><circle r="1" fill="#020b0a" fill-opacity=".6" transform="rotate(44.7 -70.6 245.2) scale(18.14655 6.84827)"/><ellipse cx="17" cy="135" fill="#130a00" fill-opacity=".5" rx="13" ry="29"/><ellipse cx="12" cy="184" fill="#d1f4ff" fill-opacity=".3" rx="69" ry="11"/><path fill="#864e2d" fill-opacity=".5" d="M52.3 136.7L48 92.8l-26.3 68.9 4.9 10.7z"/><circle cx="6" cy="225" r="28" fill="#7f6f67" fill-opacity=".4"/><path fill="#000010" fill-opacity=".5" d="M86 133.3l-15-.6 1-24 15 .6z"/><path fill="#050000" fill-opacity=".5" d="M11 72h53v27H11z"/><path fill-opacity=".6" d="M93 247h15v9H93z"/><circle r="1" fill="#1b1e19" fill-opacity=".6" transform="matrix(5.08152 -.30073 .4082 6.89754 84 202.7)"/><path fill="#b89180" fill-opacity=".6" d="M73 125l-2-51-19 43z"/><path fill="#9d8d7b" fill-opacity=".9" d="M-13.1 231.5l-2.9-47.7 28.5-12.6L-16 80.4z"/><path fill="#2a2a2e" fill-opacity=".8" d="M185 151.8l-44.4-.5-.9-26.3 23.9 38.7z"/><path fill="#553535" fill-opacity=".5" d="M122.8 177.9l-19.2-42.1-.3 40.2 12.5 17.2z"/><path fill="#556228" fill-opacity=".7" d="M10.9 123.3l-19 1.3-2.8-39.9 19-1.3z"/><path fill="#c89398" fill-opacity=".5" d="M121 232v-3l26 1v3z"/><path fill="#dfe5e4" fill-opacity=".4" d="M60 161h18v58H60z"/><path fill="#714438" fill-opacity=".9" d="M121.4 84.6l-31 19.7 32.4-39.5-18.1-1.8z"/><path fill="#d6dcce" fill-opacity=".4" d="M152 135l-29-13 26 4z"/><circle r="1" fill="#b99f8c" fill-opacity=".5" transform="rotate(-58.1 171 32.6) scale(19.13441 13.79476)"/><path fill="#a8ac95" fill-opacity=".9" d="M63.9 254.8l-7.1-30.5-5.6 46.7 10.4-4.2z"/><path fill="#966957" fill-opacity=".7" d="M73.6 132.5l7.9 4.9 18.7-21.8 35 29z"/><path fill="#511a15" fill-opacity=".6" d="M6 216l-22-20 22 37z"/><path fill="#fd8f77" fill-opacity=".2" d="M75.5 62.2l52.3 14-29.1 8.6 15.1-37.6z"/><circle r="1" fill="#070e04" transform="matrix(-13.91287 -15.23654 52.54759 -47.98254 6.7 46.1)"/><circle r="1" fill="#070d00" fill-opacity=".5" transform="rotate(-122.7 93.7 -7.3) scale(10.67653 27.13251)"/><circle r="1" fill="#261100" fill-opacity=".5" transform="matrix(15.45452 -39.2023 6.91787 2.7272 28.2 131.5)"/><path fill="#0b0200" fill-opacity=".5" d="M72.6 129l-14.5-1-14.8 8 28.6 12.6z"/><path fill="#d7eaff" fill-opacity=".6" d="M125 87l-4 24-5-7z"/><path fill="#091b28" fill-opacity=".5" d="M123 119l-3.4-6 17.3-10 3.5 6z"/><path fill="#83594a" fill-opacity=".8" d="M90.4 240.1l-1.2 1.4-5.8 1.4 6.2-23.6z"/></g></svg>