<svg xmlns="http://www.w3.org/2000/svg" viewBox="0 0 300 199"><defs/><path fill="#683f2f" d="M0 0h300v199H0z"/><g transform="translate(.6 .6) scale(1.17188)"><ellipse cx="179" cy="153" fill="#86766a" fill-opacity=".8" rx="83" ry="102"/><circle r="1" fill="#b4aca0" fill-opacity=".6" transform="matrix(-4.22476 -13.71588 95.39373 -29.3831 20.8 163.6)"/><path fill="#242118" fill-opacity=".6" d="M160 0h27v119h-27z"/><ellipse cx="98" cy="42" fill="#d0dee5" fill-opacity=".7" rx="11" ry="16"/><ellipse cx="127" cy="1" fill="#0d1506" fill-opacity=".7" rx="33" ry="43"/><circle r="1" fill="#040d1b" fill-opacity=".6" transform="matrix(-1.29706 -20.97427 24.57584 -1.51979 88.7 101.7)"/><path fill="#feffff" fill-opacity=".5" d="M127 120.6L116.2 74l10.8-2.5 10.8 46.7z"/><path fill="#d5efff" fill-opacity=".4" d="M220 146l41.3 15-11.3 31-41.3-15z"/><path fill="#9f806b" fill-opacity=".5" d="M168 38h88v30h-88z"/><ellipse cx="220" cy="118" fill="#ab9581" fill-opacity=".8" rx="41" ry="17"/><circle r="1" fill="#001019" fill-opacity=".6" transform="matrix(16.13602 -15.96792 45.63922 46.11967 238.2 0)"/><circle r="1" fill="#6dbdcc" fill-opacity=".4" transform="matrix(-41.54673 -24.63955 5.32948 -8.98646 4.6 25.2)"/><path fill="#20190a" fill-opacity=".7" d="M114 57l20 26 30-92z"/><circle r="1" fill="#18372c" fill-opacity=".4" transform="matrix(-14.29518 -54.33615 28.56605 -7.51538 37.4 18.3)"/><path fill="#d8b49f" fill-opacity=".4" d="M165 89l-46 49 27-88z"/><path fill-opacity=".5" d="M167.4 81.3l23.6-4.1 5.6 31.5-23.6 4.1z"/><circle r="1" fill="#250101" fill-opacity=".5" transform="rotate(-82.5 148 4.1) scale(9.63426 17.87864)"/><path fill="#fff04a" fill-opacity=".5" d="M122 9h13v12h-13z"/><path fill="#a59375" fill-opacity=".5" d="M45 18.7l83 62.7L69.7 2.8l-.4 17.4z"/><path fill="#060300" fill-opacity=".5" d="M50 107l-66 18V76z"/><path fill="#090000" fill-opacity=".4" d="M220 83l51 26V55z"/><path fill="#b1e45f" fill-opacity=".6" d="M191-16l19 21-18 14z"/><path fill="#192115" fill-opacity=".5" d="M223 45l-33 6 15-45z"/><path fill="#d5c5c2" fill-opacity=".4" d="M203.5 57l.2 58.9-21.1-56 38.9 19.2z"/><path fill="#8b572f" fill-opacity=".6" d="M84 117l-37 25 69 43z"/><path fill="#1c120e" fill-opacity=".3" d="M189 135h67v17h-67z"/><path fill="#b0b5b4" fill-opacity=".5" d="M9 147h51v23H9z"/><ellipse cx="28" cy="73" fill="#ff9b00" fill-opacity=".6" rx="7" ry="11"/><circle r="1" fill="#000100" fill-opacity=".6" transform="matrix(3.41006 -13.87347 26.94875 6.62392 96.8 1.2)"/><path fill="#dbc9c9" fill-opacity=".6" d="M10 34L2 7l-3 31z"/><ellipse cx="156" cy="127" fill="#dacda6" fill-opacity=".5" rx="60" ry="3"/><ellipse cx="149" cy="147" fill="#fff" fill-opacity=".6" rx="7" ry="4"/><path fill="#2e2218" fill-opacity=".6" d="M143.7 138.4l-6.1-23.8 30.3 44.6 24-.6z"/><path fill="#d2d134" fill-opacity=".5" d="M166 24l-3 17-12-14z"/><path fill="#2e2019" fill-opacity=".8" d="M149.4 73.3l20-18.5-73-45.1 96.8 80.4z"/><path fill="#020d11" fill-opacity=".6" d="M194.5 12.3l-17.4 18L145.5-.3l17.4-18z"/><path fill="#c6c8cc" fill-opacity=".7" d="M214.7 144.7l10.2 31L237 185l-13-41.9z"/><path fill="#f5ee50" fill-opacity=".4" d="M216.6 17.6l19.4-5.7-21.7 21.8-2.1-12.9z"/><path fill="#9f8981" fill-opacity=".7" d="M242.9 77.9l-19.1-45.1 45.3 26.9-19.6-6.7z"/><ellipse cx="157" cy="85" fill="#e7f2fe" fill-opacity=".5" rx="6" ry="7"/><path fill="#c0bcb5" fill-opacity=".7" d="M47 160l-4-12 44-2z"/><path fill="#cdd3dd" fill-opacity=".5" d="M85 36l17-16 7 44z"/><path fill="#d1ddff" fill-opacity=".5" d="M91.7 148.6l8.2-13.3 20.4 1-11.5 6.3z"/><path fill="#491f06" fill-opacity=".5" d="M75 119h69v5H75z"/><circle cx="44" cy="116" r="30" fill="#552e1a" fill-opacity=".5"/><path fill="#4c4914" fill-opacity=".5" d="M190.7 144.9l10.3-27.8-28.7 24.1 23.5 11.4z"/><ellipse cx="96" cy="73" fill="#685041" fill-opacity=".8" rx="26" ry="11"/><path fill="#bd9275" fill-opacity=".5" d="M189 27.8l6.7 7.3-22.6 21.1-6.8-7.3z"/><circle r="1" fill="#170b26" fill-opacity=".5" transform="matrix(-3.06848 -5.6214 9.58026 -5.22945 201.5 150.7)"/><path fill="#e9fef1" fill-opacity=".3" d="M226.1 170.7l-66.9-29.3-7.5-9-7.6-5.9z"/><path fill="#75342a" fill-opacity=".5" d="M247 109l-10-52-29 28z"/><circle r="1" fill="#130d00" fill-opacity=".4" transform="rotate(156.3 19.7 15.3) scale(7.54365 32.00761)"/><path fill="#664638" fill-opacity=".9" d="M164.7 124.7l5.4-17.6-13.8-14.7-9 15.5z"/><circle r="1" fill="#b4d5c1" fill-opacity=".5" transform="matrix(14.75602 2.75043 -1.6326 8.75887 253.4 128)"/><path fill="#56301e" fill-opacity=".4" d="M55.4 121.9l47.2-67.4-19.9-17.4L80.4 2z"/><ellipse cx="86" cy="169" fill="#83502d" fill-opacity=".8" rx="30" ry="18"/><path fill="#1c2120" fill-opacity=".5" d="M243.2-16l-.3 39.7 7 36.9-23-31.8z"/><circle r="1" fill="#001113" fill-opacity=".6" transform="rotate(140.8 110.7 41.5) scale(18.43992 8.81077)"/><path fill="#ba5f18" fill-opacity=".4" d="M67 123h48v12H67z"/><path fill="#000001" fill-opacity=".7" d="M6 84.5l5.7 26.5-11.8 2.5L-5.7 87z"/><path fill="#b48b84" fill-opacity=".4" d="M180.3 112l-2.4 11.7 68.8-7.7-40.3-29.2z"/><circle r="1" fill="#616f72" fill-opacity=".5" transform="rotate(-52.6 57.5 -12.7) scale(8.0145 36.9421)"/><path fill="#080d1a" fill-opacity=".3" d="M71.3 93L114 78.6l11.3 46.2-60.4-8.4z"/><path fill="#a0765d" fill-opacity=".6" d="M159.1 57.3l-18.9 68 4.1-57.7 23.9-27.2z"/><path fill="#dfe9f6" fill-opacity=".4" d="M127 118l14-23-20-19z"/></g></svg>