<svg xmlns="http://www.w3.org/2000/svg" viewBox="0 0 298 450"><defs/><path fill="#8b5c45" d="M0 0h298v450H0z"/><g transform="translate(.9 .9) scale(1.75781)"><circle cy="144" r="209" fill="#ecf4f6" fill-opacity=".8"/><circle r="1" fill="#673214" fill-opacity=".6" transform="matrix(-23.86902 -11.52005 22.17306 -45.94155 98.6 95.7)"/><circle cx="156" cy="191" r="59" fill="#feffff" fill-opacity=".7"/><circle r="1" fill="#2c0d00" fill-opacity=".6" transform="matrix(-1.5723 34.27483 -8.58583 -.39386 93.3 94.8)"/><circle r="1" fill="#b49c8f" fill-opacity=".7" transform="matrix(8.52462 2.93526 -22.58178 65.58226 99.2 138.2)"/><circle r="1" fill="#edf5fc" fill-opacity=".6" transform="matrix(8.32798 144.64205 -30.58916 1.76122 41.3 154.8)"/><circle r="1" fill="#fff" fill-opacity=".5" transform="matrix(-18.63468 3.89299 -11.5198 -55.14215 152.2 59.9)"/><path fill="#a36a4b" fill-opacity=".6" d="M134 123.6l4-13.5 50 14.3-4 13.5z"/><circle cx="103" cy="28" r="30" fill="#e9edee" fill-opacity=".7"/><path fill="#a1a099" fill-opacity=".7" d="M75.7 249l-3.5-133.3 21 154.1-35.2-4.2z"/><path fill="#9f7d6c" d="M185 4.9l-5.8 50.9L166 37.7 152.4-16z"/><path fill="#a57761" fill-opacity=".6" d="M64.9 47.3l-4.5-.2L65 15.7l13.1-9.5z"/><path fill="#b7a89a" fill-opacity=".5" d="M129 90l-35 89-24-29z"/><path fill="#f3c2af" fill-opacity=".6" d="M108 77l7 32 8-51z"/><path fill="#3f1e00" fill-opacity=".3" d="M71 145.6l40.9-43.2-12.8-5.8-18.7-36z"/><path fill="#552000" fill-opacity=".5" d="M127.2 76L122 51.5l6.8-1.5 5.2 24.5z"/><path fill="#f8faf7" fill-opacity=".6" d="M124.4 92.7l5.3 12.8L185 118l-23.1-97.9z"/><ellipse cx="97" cy="148" fill="#876457" fill-opacity=".5" rx="4" ry="26"/><path fill="#80878c" fill-opacity=".3" d="M120.7 245.3l-46.1-.3-9.4 26h71.4z"/><path fill="#bfb092" fill-opacity=".5" d="M84.9 72.1l-8.2.1-13.3 33.6 17.1-8z"/><path fill="#67412d" fill-opacity=".7" d="M126.8 50.5l-7.1 46.4 5.2-3.1 4.3-24.2z"/><ellipse cx="138" cy="8" fill="#ecf0ef" fill-opacity=".7" rx="20" ry="53"/><path fill="#87613d" fill-opacity=".5" d="M79.4 137l-9.5 14-.5-46.3 36.4 15.5z"/><path fill="#f1f4f4" fill-opacity=".7" d="M161.4 135.9l-71.9 88.3 84.2 46.8L185 101.5z"/><ellipse cx="13" cy="129" fill="#dae3e7" fill-opacity=".6" rx="14" ry="200"/><path fill="#dacec7" fill-opacity=".5" d="M112.9 59.9l-58.6 4.4 66.9-28.4 3.2 46.9z"/><path fill="#0e0400" fill-opacity=".5" d="M106 105.3l-19.5 10.4 3.1-17.3L85 77.3z"/><circle r="1" fill="#a65e50" fill-opacity=".5" transform="rotate(72.2 -7 109.2) scale(13.27011 8.23735)"/><ellipse cx="85" cy="178" fill="#c3c5c1" fill-opacity=".6" rx="7" ry="44"/><ellipse cx="41" cy="13" fill="#e8ecee" fill-opacity=".6" rx="17" ry="223"/><path fill="#d2af95" fill-opacity=".4" d="M104.7 86.2l48.1 31.6-5.2-10.1-24.4 24.7z"/><path fill="#7b2609" fill-opacity=".3" d="M75.2 8.5l-4 20.4-11.4 6.9 11.1-22.1z"/><path fill="#371816" fill-opacity=".5" d="M106 67l6.8-5.8 3.2 3.7-6.8 6z"/><circle r="1" fill="#deddd3" fill-opacity=".4" transform="matrix(10.88729 -41.79695 7.50131 1.95395 105.5 168)"/><path fill="#2e1101" fill-opacity=".7" d="M119.2 93.8l8.7-18 1 .4-8.8 18z"/><path fill="#9b8379" fill-opacity=".6" d="M86.7 158.2l15.7-21.1-1.1 21-5.2 17z"/><path fill="#ccc6b7" fill-opacity=".7" d="M95.5 139l-13.1 22-4-22.9 12.3-4.4z"/><path fill="#cf9c8d" fill-opacity=".4" d="M110.1 84.3l18-6.2-3.8-12-25.7 4.8z"/><path fill="#dfe2e3" fill-opacity=".5" d="M76.8 80.7L29-16 45.6 88l30.3 7.8z"/><path fill="#ab7f66" fill-opacity=".5" d="M133 111l38 6-10 17z"/><path fill="#ac8453" fill-opacity=".5" d="M86 95v16L76 85z"/><circle r="1" fill="#f7f7f2" fill-opacity=".6" transform="matrix(-20.62014 6.3433 -5.55991 -18.07358 138.5 148.1)"/><path fill="#e3e6e5" fill-opacity=".6" d="M162-16l-19 53-67 30z"/><path fill="#d1d1d3" fill-opacity=".4" d="M112.8 224.3l13.7 8.2 8.6 17.2-48.8-3.1z"/><path fill="#a07b4f" fill-opacity=".5" d="M77.9 104.5l10.7-36.9-.5-6.8-10.4 11.6z"/><path fill="#341b08" fill-opacity=".6" d="M89 104l-12 21 17-15z"/><ellipse cx="49" cy="154" fill="#ebeff0" fill-opacity=".6" rx="21" ry="72"/><path fill="#ccccc7" fill-opacity=".7" d="M70 11L49-16l15 41z"/><path fill="#a66a47" fill-opacity=".3" d="M135.5 63.6l.3 7.5-34.6-11.6 24.5-9.5z"/><ellipse cx="12" cy="255" fill="none" rx="70" ry="18"/><path fill="#d6c0af" fill-opacity=".5" d="M114.2 116.9l52.4 13.6-5.5 7.3-63.3-29.7z"/><path fill="#8a5b44" fill-opacity=".4" d="M147-29.4l6.6-2.2 31.5 97-6.7 2.2z"/><ellipse cx="91" cy="242" fill="#cbcece" fill-opacity=".6" rx="5" ry="22"/><circle r="1" fill="#e4ebef" fill-opacity=".6" transform="matrix(10.19744 10.061 -45.3053 45.91977 149.7 255)"/><path fill="#f6f7f5" fill-opacity=".6" d="M113 174l-21.8 44.4 62.4 7.3 13.5-95.5z"/><path fill="#918e89" fill-opacity=".5" d="M76 220h4v36h-4z"/><path fill="#dcd2be" fill-opacity=".3" d="M109.5 130.8l4.7-10.3 5.9 32.2 18.8-92.9z"/><path fill="#d7d8d7" fill-opacity=".5" d="M68 33l51 10-49 29z"/><path fill="#110800" fill-opacity=".6" d="M88 73l9 28-8 8z"/><path fill="#e5e8ea" fill-opacity=".6" d="M169-16L67-7l28 47z"/><path fill="#c19383" fill-opacity=".4" d="M129 100l-17-5-17 38z"/><ellipse cx="118" cy="59" fill="#faece2" fill-opacity=".2" rx="3" ry="37"/><circle r="1" fill="#f5f7f7" fill-opacity=".4" transform="matrix(-19.35258 9.56464 -7.50403 -15.18324 146 39.1)"/><path fill="#a47c50" fill-opacity=".4" d="M84 136l-1-11 11-9z"/><path fill="#cbd3d7" fill-opacity=".6" d="M7.2 28.9L-3.6 59.1-16 3.8 21.5-6.4z"/></g></svg>