<svg xmlns="http://www.w3.org/2000/svg" viewBox="0 0 300 199"><defs/><path fill="#3c251d" d="M0 0h300v199H0z"/><g transform="translate(.6 .6) scale(1.17188)"><circle r="1" fill="#f9deb1" fill-opacity=".6" transform="matrix(54.32141 77.5384 -208.84778 146.31338 96.4 38.3)"/><circle r="1" fill="#f3f8f5" fill-opacity=".6" transform="matrix(30.94478 11.99685 -24.97835 64.42937 94 25.3)"/><path fill="#83726c" fill-opacity=".8" d="M128 0l143 28v86z"/><ellipse cx="165" cy="30" fill="#faf6e4" fill-opacity=".6" rx="39" ry="11"/><circle r="1" fill="#be8737" fill-opacity=".7" transform="rotate(-95.1 57.2 36.3) scale(180.7892 34.14973)"/><path fill="#636467" fill-opacity=".5" d="M121.8 43l87-3 3.4 97-87 3z"/><path fill="#d5bcad" fill-opacity=".6" d="M36 106l113-35 39 32z"/><path fill="#0a0100" fill-opacity=".6" d="M83 124l-1 53 19-27z"/><path fill-opacity=".5" d="M160 85h21l-22-42zm-26-75h62v9h-62z"/><path fill="#d3dbd5" fill-opacity=".5" d="M63 0h19v170H63z"/><path fill="#2b2623" fill-opacity=".9" d="M128.5 112.4l37.3 17 8.1-13.2-22.1-13.5z"/><ellipse cx="224" cy="90" fill-opacity=".6" rx="8" ry="44"/><path fill="#220900" fill-opacity=".6" d="M134 36l9 46-22-39z"/><path fill="#a27f6e" fill-opacity=".6" d="M134 154l-48-16 28-82z"/><circle r="1" fill="#ae9d8b" fill-opacity=".5" transform="matrix(-16.69247 -49.6015 12.17694 -4.09792 254.8 94.5)"/><path fill="#f9f3ea" fill-opacity=".6" d="M151.3 43.9l8.2-21.5 25.2 9.7-8.2 21.5z"/><path fill="#b8ac9a" fill-opacity=".5" d="M178 150l12-75-25 17z"/><path fill="#dcdbd3" fill-opacity=".8" d="M53-3l9 109 39-116z"/><path fill="#fffffa" fill-opacity=".6" d="M149 0h25v9h-25z"/><path fill="#48332a" fill-opacity=".9" d="M198.1 18.9L187-16l-5.4 25.6-50.3-.7z"/><path fill="#14110a" fill-opacity=".5" d="M189 108h61v31h-61z"/><path fill="#0f7680" fill-opacity=".5" d="M197 67h14v48h-14z"/><path fill="#d6c0a0" fill-opacity=".5" d="M149 116h9v21h-9z"/><path fill-opacity=".6" d="M140 104h9v49h-9z"/><path fill="#e5edf5" fill-opacity=".4" d="M160.2 80.7l4.6 18.4-33 8.2-4.6-18.4z"/><circle r="1" fill="#b27e3a" fill-opacity=".6" transform="matrix(2.4327 69.29478 -25.66596 .90104 42.3 160.6)"/><path fill="#0a0907" fill-opacity=".6" d="M169.6 160.6l-20.5-12.8 17.8-34.9 4.6-1.4z"/><path fill="#b49582" fill-opacity=".7" d="M151 93.2l-9.3-36.7-9.7-1.2 16-41.4z"/><circle cx="136" cy="65" r="7" fill-opacity=".6"/><path fill="#0c1410" fill-opacity=".3" d="M97.6 123.3l-7.7-8.4-10.5 15.3 1.9 34z"/><path fill="#07000f" fill-opacity=".3" d="M174.6 89.7l-3.9-57-14 21.2 3.9 23.7z"/><ellipse cx="204" cy="52" fill="#6e575c" fill-opacity=".3" rx="20" ry="37"/><path fill="#cbbaa4" fill-opacity=".7" d="M92 0h30v69H92z"/><path fill="#e2d6d2" fill-opacity=".6" d="M194 57l-15 8-11-22z"/><circle r="1" fill="#c2beaf" fill-opacity=".5" transform="rotate(32.5 95 368) scale(21.61616 14.49487)"/><path fill="#2e1815" fill-opacity=".7" d="M139 10.3l-4.4-2.5L145-10.3l4.3 2.5z"/><path fill="#0f0d0b" fill-opacity=".8" d="M226.6 68.1l-9.2 25 31.3-2.5-8.1 15.1z"/><path fill="#361000" fill-opacity=".5" d="M208 48l-29 2 2-12z"/><path fill="#ceceb6" fill-opacity=".6" d="M193 22h11v20h-11z"/><path fill="#edfff3" fill-opacity=".2" d="M232.4 109.1L244.8 82l-9.2-7.2-2.9 9z"/><path fill="#070000" fill-opacity=".5" d="M85 146h31v14H85z"/><ellipse cx="84" cy="45" fill="#fff" fill-opacity=".4" rx="7" ry="39"/><path fill="#451800" fill-opacity=".5" d="M248 57.8L244.2 34l11.8-1.9 3.8 23.7z"/><path fill="#531c00" fill-opacity=".3" d="M139.4 68.9l-28.5-1.6-8.7 2.1 2 15.6z"/><path fill="#140f02" fill-opacity=".4" d="M88.8 115.6l1.1 1.7 10.8 11.5 3.7 14.6z"/><path fill="#c19981" fill-opacity=".5" d="M79 100l61 33-49-76z"/><ellipse cx="186" cy="156" fill="#54463c" fill-opacity=".5" rx="13" ry="39"/><path fill="#b26f69" fill-opacity=".6" d="M159.2 66l-16 19.1-8.4-7 16-19.2z"/><path fill="#dedcde" fill-opacity=".6" d="M179 94.5l-24.8-3 .8-6 24.8 3z"/><path fill="#4e3b64" fill-opacity=".4" d="M203 23h39v16h-39z"/><path fill="#360d01" fill-opacity=".3" d="M249.6 79.6l-10.8-6-36.1 13.6L247.1 61z"/><path fill="#afa089" fill-opacity=".5" d="M251 53h5v75h-5z"/><path fill="#aa9e93" fill-opacity=".6" d="M151.7 60.3l-7.4 3.1-16-37.7 7.4-3.1z"/><circle r="1" fill="#dbb47a" fill-opacity=".4" transform="matrix(-5.7895 .87558 -10.4761 -69.26999 23.1 41.7)"/><path fill="#f2f0eb" fill-opacity=".9" d="M166.5 22.2l8.4 2.6-15.6 24.5-13.9-24.6z"/><circle r="1" fill="#0f0b06" fill-opacity=".6" transform="matrix(-7.52017 -1.74387 .52462 -2.26233 255.2 106.3)"/><path fill="#050000" fill-opacity=".7" d="M123.9 45.4l11.4-6.1 2.8 5.3-11.4 6.1z"/><path fill="#1f0f0d" fill-opacity=".4" d="M190 67h7v53h-7z"/><ellipse cx="196" cy="57" fill="#ad968f" fill-opacity=".6" rx="17" ry="7"/><circle r="1" fill="#8a4c14" fill-opacity=".4" transform="matrix(13.20969 74.3929 -3.11396 .55294 24 119.5)"/><path fill="#cba364" fill-opacity=".5" d="M-16 71l44 94L1 10z"/><path fill="#d2b4a5" fill-opacity=".5" d="M104.8 126.1l29-13.5 3.4 7.3-29 13.5z"/><circle r="1" fill="#7e5441" fill-opacity=".8" transform="matrix(.81036 -8.77116 9.6404 .89067 130.8 133.7)"/><path fill="#5b4e44" fill-opacity=".8" d="M183.3 87.8l-11.9-.9 6.4-4 11.1 46.2z"/></g></svg>