<svg xmlns="http://www.w3.org/2000/svg" viewBox="0 0 300 199"><defs/><path fill="#5a3c28" d="M0 0h300v199H0z"/><g transform="translate(.6 .6) scale(1.17188)"><circle cx="74" cy="139" r="181" fill="#d8d9ce" fill-opacity=".6"/><circle r="1" fill="#f7fcff" fill-opacity=".7" transform="matrix(-53.25437 -147.10552 40.40863 -14.62852 22.3 98.7)"/><circle r="1" fill="#2d0000" fill-opacity=".6" transform="matrix(-16.57451 16.90837 -51.71833 -50.69717 130.7 158.4)"/><circle cx="165" cy="47" r="67" fill="#7f6e45" fill-opacity=".7"/><circle r="1" fill="#ccc5cd" fill-opacity=".5" transform="matrix(-4.32241 -16.39735 40.64612 -10.71449 129.4 78)"/><circle r="1" fill="#502e18" fill-opacity=".5" transform="matrix(6.1634 -25.66324 68.77532 16.51737 160.4 169)"/><path fill="#061000" fill-opacity=".5" d="M196 109l-47-5 28-45z"/><path fill="#3b1d11" fill-opacity=".7" d="M43 35l7-51H18z"/><path fill="#455b11" fill-opacity=".9" d="M270.2 119l14.3 9.2-44.7 68.8-14.3-9.2z"/><circle r="1" fill="#428500" fill-opacity=".4" transform="rotate(-141.3 122 -31.5) scale(21.65782 51.03771)"/><ellipse cx="196" cy="68" fill="#e5ffcd" fill-opacity=".5" rx="10" ry="12"/><circle r="1" fill="#b5b7b8" fill-opacity=".6" transform="rotate(-106.9 166.3 -42.1) scale(14.47421 103.59269)"/><path fill="#572f16" fill-opacity=".6" d="M105 181l6-58-51-44z"/><path fill="#eee" fill-opacity=".7" d="M7-16l58 82-68 62z"/><path fill="#444040" fill-opacity=".6" d="M200.4 152.9l-8.9-21 17.4 9.7 48.7-22.9z"/><path fill="#866b58" fill-opacity=".7" d="M157.3 154.9l-74.7-40 1.9-18.4 82.2 45.4z"/><circle r="1" fill="#91943e" fill-opacity=".3" transform="matrix(18.7941 -17.3427 33.07802 35.8463 229.7 67)"/><circle r="1" fill="#883031" fill-opacity=".3" transform="matrix(15.02097 -23.76082 35.49354 22.43809 141.8 18.2)"/><circle r="1" fill="#d2dbe9" fill-opacity=".6" transform="matrix(10.68932 32.70401 -5.63461 1.84167 81 145)"/><path fill="#1e3c00" fill-opacity=".5" d="M124 95h15v14h-15z"/><path fill="#d2c5d2" fill-opacity=".3" d="M158.4 107.1l61.2 62.4-79.9-43.5 3.3-62.3z"/><circle r="1" fill="#274100" fill-opacity=".9" transform="matrix(-17.91797 4.34666 -5.08138 -20.94663 255 16.9)"/><circle r="1" fill="#bab9bd" fill-opacity=".5" transform="matrix(13.24338 -36.3859 15.07883 5.48825 66.7 10.2)"/><ellipse cx="13" cy="165" fill="#c1c4ce" fill-opacity=".5" rx="82" ry="27"/><ellipse cx="121" cy="56" fill="#a3887b" fill-opacity=".7" rx="62" ry="11"/><path fill="#4d7715" fill-opacity=".5" d="M203 87h17v19h-17z"/><circle r="1" fill="#434212" fill-opacity=".6" transform="rotate(6.5 -716.9 1592.4) scale(14.30756 23.66947)"/><path fill="#855947" fill-opacity=".5" d="M86 33h121v17H86z"/><path fill="#aeaab0" fill-opacity=".8" d="M256.6 121.8l-56.4 29.8-.7-3.3 39.4 13.9z"/><circle r="1" fill="#99bb39" fill-opacity=".6" transform="rotate(172.1 113.1 37.8) scale(7.55501 18.43098)"/><circle r="1" fill="#e1e8fa" fill-opacity=".6" transform="matrix(-5.32516 .23083 -.18686 -4.31095 147 95.3)"/><ellipse cx="255" cy="104" fill="#9c949c" fill-opacity=".5" rx="34" ry="25"/><path fill="#aeb083" fill-opacity=".5" d="M173 99l30-16-3 11z"/><circle r="1" fill="#2c1d13" fill-opacity=".5" transform="matrix(-6.93642 -6.07932 2.81113 -3.20746 200 140.6)"/><path fill="#947359" fill-opacity=".6" d="M105-11l137-2-61 55z"/><circle r="1" fill="#3c1e0e" fill-opacity=".5" transform="matrix(22.84554 20.02836 -7.40616 8.4479 112 159.7)"/><circle r="1" fill="#69492d" fill-opacity=".5" transform="matrix(.65405 -3.82632 33.30395 5.69275 158 104.6)"/><path fill="#bbb6b5" fill-opacity=".6" d="M135.9 123.3l-13.8-12.6 21.9-4.5 76.5 31.4z"/><circle r="1" fill="#b2afa9" fill-opacity=".6" transform="matrix(-9.79678 -10.97689 22.11105 -19.73394 223 118.4)"/><path fill="#3a5a00" fill-opacity=".8" d="M221.4 44.2l25.5-21.4L217.6-16h23.6z"/><path fill="#615858" fill-opacity=".8" d="M239.7 124.8l2.9 4.7-11.2-8.2-5.3-7.4z"/><path fill="#1b2500" fill-opacity=".3" d="M170 86.5l-25.7 17 33-.2L200 80.9z"/><path fill="#4b2120" fill-opacity=".3" d="M167 164h82v6h-82z"/><circle r="1" fill="#f4f6f7" fill-opacity=".5" transform="matrix(-8.99305 3.09656 -26.11367 -75.8396 49.6 83.9)"/><path fill="#98a859" fill-opacity=".6" d="M249.6 39.2l-44 50 17.3-5.2L245 31.8z"/><path fill="#c1cfaf" fill-opacity=".5" d="M170 50l18 1 16 27z"/><ellipse cx="118" cy="77" fill="#b5aba7" fill-opacity=".4" rx="43" ry="19"/><circle r="1" fill="#99857b" fill-opacity=".4" transform="rotate(28.2 -50 191.3) scale(15.39586 47.51129)"/><path fill="#524a4a" fill-opacity=".1" d="M31 185l-37-11 4-71z"/><circle cx="252" cy="62" r="12" fill="#54271f" fill-opacity=".6"/><path fill="#3b7801" fill-opacity=".5" d="M200.2 13.3l-4-4.5 15.6-14 4 4.4z"/><path fill="#7f8038" fill-opacity=".6" d="M199.5 51.9L198 68.5 241.3-1l-62 62.1z"/><path fill="#74952a" fill-opacity=".5" d="M247.5 163.8l10.2-40.8 4.8 1.2-10.2 40.8z"/><path fill="#78523b" fill-opacity=".4" d="M74.8 116.1L56.2 73.6l48.5 41.4 64.7 52.8z"/><circle r="1" fill="#d3d1d1" fill-opacity=".4" transform="matrix(-37.05369 -86.57958 5.89827 -2.5243 16.7 75.6)"/><path fill-opacity=".5" d="M239.1 128.7l.5.9-34.7 17.7-.5-.9z"/><path fill="#576d00" fill-opacity=".3" d="M121.4 115.4l21.8-18.1-23.9-4.7 2.7 7.9z"/><path fill="#603720" fill-opacity=".4" d="M134 27l-20 8 56 11z"/><path fill="#304605" fill-opacity=".4" d="M188 76l-15-21-3 41z"/><circle r="1" fill="#f4eee3" fill-opacity=".5" transform="matrix(7.05742 -1.69093 .76377 3.18773 192.5 69.8)"/><path fill="#bbb7ba" fill-opacity=".9" d="M174.4 123.6l59.1-14.2-45.7 27.7-4.7 1.3z"/><path fill="#a28876" fill-opacity=".5" d="M152 138l46 5 24 24z"/><path fill="#beb8b5" fill-opacity=".5" d="M110.2 109L98.5 98l25.3-27 11.7 11z"/><path fill="#475301" fill-opacity=".7" d="M211.1 31.6l31.5-46.1-8.8 6.3-26.4 36.8z"/><path fill="#707038" fill-opacity=".7" d="M166.2 82.7l-15.1 14.2 11.1-16.1 23-36.8z"/></g></svg>