<svg xmlns="http://www.w3.org/2000/svg" viewBox="0 0 300 199"><defs/><path fill="#4f3027" d="M0 0h300v199H0z"/><g transform="translate(.6 .6) scale(1.17188)"><circle r="1" fill="#fefaed" fill-opacity=".6" transform="matrix(249.4734 41.74753 -8.14614 48.67942 116 19.7)"/><ellipse cx="9" cy="70" fill="#fff" fill-opacity=".6" rx="19" ry="51"/><circle r="1" fill="#907f77" fill-opacity=".9" transform="rotate(132.5 88.8 94.4) scale(42.16362 85.80889)"/><ellipse cx="76" cy="14" fill="#f0eee8" fill-opacity=".8" rx="81" ry="22"/><circle cx="111" cy="90" r="49" fill="#1e1d1e" fill-opacity=".5"/><ellipse cx="40" cy="65" fill="#3a2927" fill-opacity=".6" rx="17" ry="34"/><ellipse cx="184" cy="141" fill="#fefee7" fill-opacity=".5" rx="8" ry="13"/><ellipse cx="13" cy="158" fill-opacity=".8" rx="18" ry="40"/><path fill="#010510" fill-opacity=".6" d="M187.8 38.7l28.1 46.5-7.8-47.4-3.6-8z"/><ellipse cx="32" cy="118" fill="#dcd0d4" fill-opacity=".5" rx="6" ry="31"/><ellipse cx="209" cy="150" fill="#000b19" fill-opacity=".7" rx="7" ry="48"/><ellipse cx="60" cy="42" fill="#f8f1e1" fill-opacity=".3" rx="16" ry="46"/><ellipse cx="227" cy="12" fill="#e6e5e0" fill-opacity=".6" rx="38" ry="25"/><circle r="1" fill="#ddc5c1" fill-opacity=".7" transform="matrix(-9.05704 -4.65661 10.94773 -21.29318 196.6 106.5)"/><path fill="#001" fill-opacity=".5" d="M75 50h25v120H75z"/><path fill="#fee1d6" fill-opacity=".5" d="M191.8 19.1l-11.1.1-12.2 77.2 16.9-.4z"/><circle r="1" fill="#522a15" fill-opacity=".7" transform="matrix(-7.29822 -11.45591 7.38489 -4.7047 235.3 57)"/><path fill-opacity=".6" d="M131 109l55-10-12 36z"/><path fill="#936d58" fill-opacity=".7" d="M191 77l-87.5-50.9-5.7 79.7 29.7-31z"/><circle r="1" fill="#b4a3a2" fill-opacity=".8" transform="matrix(-.74677 23.76273 -27.12083 -.8523 7.7 96.7)"/><circle r="1" fill="#fbfcfb" fill-opacity=".7" transform="matrix(17.99361 4.7057 -3.4447 13.17183 74.4 36.6)"/><ellipse cx="41" cy="35" fill="#020000" fill-opacity=".2" rx="12" ry="108"/><path fill="#020d1b" fill-opacity=".7" d="M216 101l-4 84h-41z"/><path fill="#f9f5f0" fill-opacity=".5" d="M120 7h15v46h-15z"/><path fill="#0a0100" fill-opacity=".5" d="M137.3 116.2L114 59.7l2-8.3 15.4 5.7z"/><path fill="#dfecf1" fill-opacity=".4" d="M107.5 76.2l1.3 22.8-4.9 3.1-9.2-2.1z"/><path fill="#96928d" fill-opacity=".7" d="M216 99h40v53h-40z"/><path fill="#ffe6da" fill-opacity=".3" d="M201.6 57.3l50-24.6-74.4 22.9 32.1 26z"/><path fill="#000009" fill-opacity=".7" d="M35 133.1l-3.5-17.6 23.6-4.6 3.4 17.6z"/><path fill="#e6e2de" d="M20.4 70.7L5.2 61l-7.7-77 32.6 46.3z"/><path fill="#1a0500" fill-opacity=".6" d="M236.5 89.8l-2.6-2.8-22.4-4.1 23.4 21.2z"/><path fill="#e5b79e" fill-opacity=".6" d="M70 157h13v8H70z"/><ellipse cx="161" cy="30" fill="#260d00" fill-opacity=".5" rx="17" ry="4"/><ellipse cx="176" cy="12" fill="#bf7300" fill-opacity=".5" rx="12" ry="7"/><path fill="#5c4931" fill-opacity=".8" d="M147.5 101.5l3-28.9 18 2-3 28.8z"/><path fill="#e7d7cc" fill-opacity=".3" d="M222.5 67.8l20-11.5 45 78-20 11.4z"/><path fill="#631003" fill-opacity=".5" d="M3.6 69.7l-16.1 32.2L-16 24 5.4 53.6z"/><path fill="#ffe9d0" fill-opacity=".5" d="M30 143l-3-12 17 5z"/><circle r="1" fill="#9f7d6d" fill-opacity=".9" transform="matrix(-5.191 -13.81883 10.15987 -3.81652 106.7 47.2)"/><ellipse cx="93" cy="75" fill="#00030e" fill-opacity=".5" rx="11" ry="21"/><path fill="#000004" fill-opacity=".5" d="M167 154l18-58-17 2z"/><circle r="1" fill="#815546" fill-opacity=".4" transform="matrix(.75475 -16.9333 34.36145 1.53156 135 155.9)"/><ellipse cx="175" cy="169" fill-opacity=".7" rx="5" ry="28"/><circle r="1" fill="#fafafa" fill-opacity=".5" transform="matrix(.11746 -31.7169 42.80977 .15854 90.8 0)"/><path fill="#704c40" fill-opacity=".6" d="M198.9 69.6l-19.2.3 16.4 15.4 16.9 70.5z"/><ellipse cx="213" cy="107" fill="#051520" fill-opacity=".7" rx="2" ry="45"/><ellipse cx="61" cy="96" fill="#5b575c" fill-opacity=".7" rx="10" ry="21"/><path fill="#130000" fill-opacity=".5" d="M208 36l-2 33-12-39z"/><path fill="#ac9483" fill-opacity=".6" d="M40.5 47.8l30.2 34.7 1.6-23.8-32.1-33.5z"/><path fill="#674439" fill-opacity=".7" d="M121.7 63.6L110 114.5l21-.1-3.2-37.3z"/><path fill="#1d0702" fill-opacity=".6" d="M248 152l-8 16-33-16z"/><path fill="#efeeeb" fill-opacity=".6" d="M125.2-9.4l-49.8 33 55.9 9 25.2 21.2z"/><circle r="1" fill="#dcc3be" fill-opacity=".4" transform="matrix(-8.7428 3.20582 -6.9941 -19.07403 195.9 106.5)"/><circle r="1" fill="#605255" fill-opacity=".5" transform="rotate(158.3 110.5 94.5) scale(6.59933 34.04917)"/><path fill="#010000" fill-opacity=".6" d="M0 171.5v-27h38v27z"/><circle cx="166" cy="37" r="13" fill="#834b34" fill-opacity=".5"/><path fill="#f0eedd" fill-opacity=".6" d="M169.6 18.3l19.6 5.7-6.7-11.1 8.4 39.3z"/><path fill="#11121a" d="M191.7 129.8l4.7-3.6 15.9-.3 3.1 59.1z"/><path fill="#0e0d12" fill-opacity=".9" d="M84.6 136.1l6 43.1L111.4 84l6.3 17.7z"/><path fill="#cfbdad" fill-opacity=".6" d="M224 23l-17 23 17 33z"/><path fill="#ad7d4e" fill-opacity=".6" d="M127 36l42 22-30 10z"/><circle r="1" fill="#dcc7c6" fill-opacity=".3" transform="matrix(4.14376 1.5389 -7.85715 21.15688 170.5 84.8)"/><path fill="#00050f" fill-opacity=".5" d="M42.3 124.7l-4-37.3-10-47 26 43.8z"/><path fill="#cbd1c5" fill-opacity=".6" d="M112.1 63.1L71.4 18.8l32.3 39.5 15.4-14.7z"/><path fill="#5b2d1c" fill-opacity=".4" d="M209 51h36v9h-36z"/></g></svg>