<svg xmlns="http://www.w3.org/2000/svg" viewBox="0 0 300 199"><defs/><path fill="#5d2937" d="M0 0h300v199H0z"/><g transform="translate(.6 .6) scale(1.17188)"><circle r="1" fill="#65687d" fill-opacity=".6" transform="rotate(9.9 -168.8 962.9) scale(79.43372 180.90922)"/><circle cx="87" cy="121" r="87" fill="#00171b" fill-opacity=".5"/><circle r="1" fill="#8ab4ba" fill-opacity=".5" transform="matrix(45.43467 -21.34168 12.0008 25.5487 80 5.6)"/><circle cx="241" cy="137" r="36" fill="#000a23" fill-opacity=".7"/><ellipse cx="99" cy="84" fill="#d4a9bd" fill-opacity=".6" rx="16" ry="22"/><circle r="1" fill="#7bb9ff" fill-opacity=".4" transform="matrix(-19.23054 2.70268 -7.63873 -54.35236 188.6 159.8)"/><circle r="1" fill="#cc90fe" fill-opacity=".4" transform="rotate(-3.2 1130.7 -2703) scale(21.40514 34.60385)"/><circle r="1" fill="#cb7f8c" fill-opacity=".5" transform="matrix(23.7321 .49712 -1.49977 71.59841 210.8 43)"/><path fill="#8e91aa" fill-opacity=".6" d="M82 148h60v22H82z"/><circle r="1" fill="#f8c183" fill-opacity=".5" transform="rotate(93.1 56.3 58.8) scale(7.8231 57.7777)"/><ellipse cx="46" cy="80" fill="#000008" fill-opacity=".7" rx="29" ry="40"/><ellipse cx="130" cy="120" fill="#060b11" fill-opacity=".7" rx="39" ry="25"/><circle r="1" fill="#7496ff" fill-opacity=".4" transform="rotate(28 -93.6 479) scale(28.24824 16.01836)"/><circle cx="203" r="49" fill="#873d00" fill-opacity=".4"/><circle r="1" fill="#010601" fill-opacity=".7" transform="matrix(4.60143 19.42212 -56.48008 13.3811 27.8 158)"/><path fill="#7a7e57" fill-opacity=".7" d="M-9.3 127.5l1.6-44 27 1-1.6 44z"/><ellipse cx="19" cy="33" fill="#002b6c" fill-opacity=".3" rx="78" ry="31"/><path fill="#f6c3a2" fill-opacity=".3" d="M15.4 123l47.5-2.8 12.6 1.2-46.9 20.5z"/><path fill="#87658a" fill-opacity=".6" d="M79.2 76.9l5 87.3 11.9-56.3 23.4-13.1z"/><path fill="#7e92fc" fill-opacity=".3" d="M83 21.4l-33.5 4.3-25.3 31.8L28.5-16z"/><path fill="#4c3604" fill-opacity=".6" d="M173 13h15v77h-15z"/><path fill="#9179a1" fill-opacity=".6" d="M129 106l7-29-17-19z"/><ellipse cx="163" cy="155" fill="#07072b" fill-opacity=".8" rx="6" ry="73"/><circle r="1" fill="#030404" fill-opacity=".6" transform="matrix(-4.2688 11.35235 -24.87717 -9.35451 98.7 48)"/><ellipse cx="6" cy="15" fill="#0b0a1b" fill-opacity=".6" rx="9" ry="54"/><path fill="#230f3a" fill-opacity=".5" d="M212 85l59-35-11 47z"/><circle r="1" fill="#ad6b69" fill-opacity=".4" transform="matrix(-43.0704 -5.96408 3.09454 -22.34764 229 41.4)"/><path fill="#00e0ff" fill-opacity=".5" d="M169 141h10v29h-10z"/><circle r="1" fill="#886cc5" fill-opacity=".5" transform="matrix(17.42139 76.1011 -12.32028 2.82041 199.5 169)"/><path fill-opacity=".5" d="M162 15h23v13h-23z"/><path fill="#050517" fill-opacity=".8" d="M196 113l71 69-48-10z"/><circle r="1" fill="#b68cea" fill-opacity=".5" transform="matrix(2.93506 -1.1945 12.43728 30.56031 199.8 68.9)"/><path fill="#0b231b" fill-opacity=".5" d="M151.1 127.7l-3.5-67.2 11.6-1.3-79.5 93.9z"/><path fill="#1c4991" fill-opacity=".6" d="M230.1 131.5l20.7 53.5-11.2-48.8-2.9-31.8z"/><path fill="#b0abff" fill-opacity=".4" d="M159.8 18.4l4.4 41.8-14 1.4-4.4-41.8z"/><ellipse cx="71" cy="156" fill="#000002" fill-opacity=".6" rx="11" ry="72"/><circle r="1" fill="#1d0000" fill-opacity=".7" transform="rotate(-9.6 872 -1458) scale(14.6018 35.87638)"/><ellipse cx="147" cy="135" fill="#020514" fill-opacity=".8" rx="6" ry="48"/><path fill="#685b51" fill-opacity=".7" d="M84.5 33.9l-7.3-18.6L30.3 7l118 8.1z"/><path fill="#72ff9a" fill-opacity=".3" d="M26.2-16L60.5 8.8l7.4 37.9 14.9-32z"/><path fill="#7a6b45" fill-opacity=".6" d="M143 156l-1-18-59 15z"/><path fill="#16192f" fill-opacity=".6" d="M175 67l23 1-22 25z"/><path fill="#9eb6eb" fill-opacity=".5" d="M178 94h56v8h-56z"/><path fill="#4e8287" fill-opacity=".6" d="M31.8 156h-6l.4-24h6z"/><path fill="#b5861b" fill-opacity=".4" d="M175 23h8v47h-8z"/><path fill="#003d69" fill-opacity=".6" d="M47.2 46.7l4.1-34.3 31.4 23.5L56.6 29z"/><path fill="#dfba91" fill-opacity=".6" d="M48.3 8.6l92.2 4.1L38.9-2.1l23-13.9z"/><path fill="#9f88e8" fill-opacity=".5" d="M152 158h6v12h-6z"/><path fill="#b6a4be" fill-opacity=".5" d="M154.9 76.8l15.2-11.1 2.7-3.6 2.6 26.4z"/><circle r="1" fill="#c98bac" fill-opacity=".4" transform="matrix(-5.61585 -4.42112 21.35258 -27.12271 211.4 76)"/><path fill="#000063" fill-opacity=".3" d="M-.1.4l22.6 17.5 9.6 5.6L64.8-16z"/><circle r="1" fill="#211106" fill-opacity=".6" transform="matrix(-.31061 35.59287 -1.71533 -.01497 .9 116)"/><circle r="1" fill="#bba882" fill-opacity=".5" transform="rotate(-101.3 112.7 6) scale(10.49152 1.40067)"/><path fill="#7a633f" fill-opacity=".6" d="M19 58l2-43-12 4z"/><path fill="#2669bd" fill-opacity=".5" d="M201 117l26-5-12-22z"/><circle cx="124" cy="56" r="19" fill="#980007" fill-opacity=".2"/><path fill="#775e58" d="M202.4-9.4L172.1-16l-20.3 26.5-1 13.6z"/><path fill="#221264" fill-opacity=".7" d="M156.5 125.1l6.8-8.9 3.2-34-8.9-2.5z"/><path fill="#725aff" fill-opacity=".4" d="M55.6 25.5l-8.8 3.1-15.9-3.2 4.3-20z"/><path fill="#000207" fill-opacity=".4" d="M42 116l48-47-97-21z"/><path fill="#7153d4" fill-opacity=".4" d="M228.8 77.8l-21.4 18.4 29.8-34.6 7 22.5z"/><path fill="#5f6ac7" fill-opacity=".5" d="M83 161h60v9H83z"/><path fill="#925f91" fill-opacity=".5" d="M119 18h22v27h-22z"/><circle r="1" fill="#a6888d" fill-opacity=".5" transform="rotate(-34.1 175.8 -114.4) scale(23.5943 7.41025)"/><circle r="1" fill="#8f8784" fill-opacity=".6" transform="rotate(4.5 -1689.6 2404.5) scale(7.45827 16.08467)"/></g></svg>