<svg xmlns="http://www.w3.org/2000/svg" viewBox="0 0 300 199"><defs/><path fill="#6d453a" d="M0 0h300v199H0z"/><g transform="translate(.6 .6) scale(1.17188)"><circle cx="160" cy="6" r="98" fill="#feeeda" fill-opacity=".5"/><circle r="1" fill="#bcfbff" fill-opacity=".4" transform="matrix(8.32553 -27.92745 47.9232 14.28652 101.6 137)"/><ellipse cx="101" cy="36" fill="#f0d6c0" fill-opacity=".4" rx="117" ry="29"/><ellipse cy="92" fill="#1d0006" fill-opacity=".8" rx="55" ry="31"/><circle r="1" fill="#876d62" transform="matrix(25.72171 -13.34384 19.83426 38.23271 176.4 84)"/><path fill="#f9fefc" fill-opacity=".8" d="M28.2 54.9L55.7 71l1.7-20.3-24.1-12.6z"/><circle r="1" fill="#0e0300" fill-opacity=".6" transform="matrix(-61.07373 -11.55707 2.4432 -12.91116 204.6 136)"/><path fill="#360000" fill-opacity=".4" d="M82-2L51 39l24 68z"/><path fill="#270a00" fill-opacity=".4" d="M211.2-61.6l54.1 201.9-12.5 3.3-54.1-201.9z"/><circle cx="137" cy="43" r="35" fill="#fff" fill-opacity=".3"/><circle r="1" fill="#6c8387" fill-opacity=".6" transform="matrix(6.15568 -24.51944 34.55321 8.67469 50 135.5)"/><circle r="1" fill="#9b9495" fill-opacity=".7" transform="matrix(-34.61866 -81.1623 10.64024 -4.53845 122 127.6)"/><ellipse cx="74" fill="#ac6a42" fill-opacity=".9" rx="61" ry="17"/><circle r="1" fill="#053201" fill-opacity=".6" transform="matrix(17.32832 -8.9216 57.63195 111.93785 0 134)"/><path fill="#330b00" fill-opacity=".6" d="M172.4 38.2l21.3 32.5-5.5 23.1-21.1-44.1z"/><path fill="#040708" fill-opacity=".5" d="M161 83.6l-28.7-7.4 8.2 1.6 20.8 45.8z"/><circle r="1" fill="#5b434f" fill-opacity=".5" transform="matrix(-33.14888 -12.59208 3.91047 -10.2944 95.4 69.5)"/><circle r="1" fill="#ffe8d1" fill-opacity=".5" transform="rotate(166.6 73.8 14.7) scale(70.26557 6.47142)"/><path fill="#131900" fill-opacity=".8" d="M34 162h59v8H34z"/><path fill="#a68c7a" fill-opacity=".6" d="M193 78h30v46h-30z"/><path fill="#100" fill-opacity=".7" d="M160 60l-11.8-2.1L150 48l11.8 2.1z"/><circle r="1" fill="#000e05" fill-opacity=".2" transform="rotate(-91.1 168.1 -80.4) scale(53.43158 34.00912)"/><path fill="#220007" fill-opacity=".6" d="M0 90h93v17H0z"/><path fill="#fdffff" fill-opacity=".4" d="M184 18l-1 41 24 4z"/><path fill="#b3b0b8" fill-opacity=".6" d="M237 73V57l-24-12z"/><path fill="#fff7da" fill-opacity=".3" d="M61.8 69.8L49.1 21.6 17.4 55.2 59 74.9z"/><path fill="#895a3f" d="M146.1 185l83.2-25.8-77.4-8.4-9.6-32.5z"/><path fill="#cec1b5" fill-opacity=".4" d="M158 60l6 58 20-14z"/><path fill="#c5cbeb" fill-opacity=".5" d="M97 80l15 5-26-36z"/><path fill="#020000" fill-opacity=".5" d="M143 110.2l-11.7 7.6-10.3-16 11.7-7.6z"/><path fill="#3a0d01" fill-opacity=".5" d="M226.1 36.4l-6.1-8.5-2.7 16 39 26.5z"/><path fill="#660035" fill-opacity=".5" d="M-12 35l99 63L2 73z"/><path fill="#3f1d04" fill-opacity=".6" d="M18.8 2.6l-1.6 23-32-2.2 1.6-23z"/><path fill="#433b23" fill-opacity=".9" d="M271 5l-21.9 1.9-1.9-2.6 20.7-16.8z"/><path fill="#1a1600" fill-opacity=".7" d="M183.4 18l.2-10h7l-.2 10z"/><path fill="#f5e1ce" fill-opacity=".5" d="M108.8 52.7l-26.6 4.2-5-31.6 26.6-4.2z"/><path fill="#efcbbf" fill-opacity=".5" d="M157 113.7l-6.4 3-7.6-16.4 6.4-3z"/><path fill="#441400" fill-opacity=".4" d="M70.8 18.3L44.9 37.2l56.2 53.6-44.4-29.4z"/><circle r="1" fill="#9a9997" fill-opacity=".8" transform="matrix(-16.45863 4.9355 -21.82641 -72.78536 123.8 159.6)"/><path fill="#d4b7aa" fill-opacity=".6" d="M193.3 38l1.4-39 24 1-1.4 39z"/><path fill="#f3dcca" fill-opacity=".6" d="M178.6 38.6l-8.9 7.6 15.5-43.3-40.6 3.4z"/><path fill="#0c0000" fill-opacity=".6" d="M185.4 68.6l-2.3-17-3.5-8.9-13 3.2z"/><path fill="#3e2222" fill-opacity=".5" d="M105.5 58.4l-36 17.5-3-6.3 36-17.5z"/><path fill="#ae764d" fill-opacity=".6" d="M153 10h5v32h-5z"/><path fill="#cc8046" fill-opacity=".4" d="M-8 19l52 20L87-3z"/><path fill="#d0a98f" fill-opacity=".5" d="M232-16l16 72-18-30z"/><path fill="#200000" fill-opacity=".4" d="M213.6 54.6l-7.9 4.4-5.3-9.6 7.9-4.4z"/><path fill="#5f1c00" fill-opacity=".4" d="M108.4 64.5l1.8-3.1L125.6 89l-16.1.3z"/><path fill="#eae1d6" fill-opacity=".5" d="M115 33.9l32-1.7 2 40-32 1.6z"/><path fill="#896a5a" fill-opacity=".7" d="M200.4 122.9L215.2 71l17.7 39.2-2.2 11.9z"/><path fill="#81868a" fill-opacity=".5" d="M31.6 154.5l26.1-46.4 52.1 35.8-94.5 26.5z"/><ellipse cx="254" cy="73" fill="#2e1608" fill-opacity=".6" rx="7" ry="37"/><circle r="1" fill="#5c3219" fill-opacity=".6" transform="matrix(1.22404 -6.01635 82.69874 16.82525 234.2 155.6)"/><path fill="#cd6915" fill-opacity=".7" d="M125 7l42-23-7 16z"/><ellipse cx="158" cy="114" fill-opacity=".5" rx="4" ry="25"/><path fill="#172104" fill-opacity=".6" d="M35.3 100L-16 97.1l27.6 71.4 2.3-33.2z"/><path fill="#160802" fill-opacity=".7" d="M176.9 120.2l94.1 26.3-22.5-21.9-103.9 13.5z"/><path fill="#a8a6b9" fill-opacity=".7" d="M63.5 43.7l8.7 19L92.1 44l-17 25z"/><path fill="#602f21" fill-opacity=".8" d="M180.4 58.4l18.3 18.8-29.4.9.3-11z"/><path fill="#dfc8b9" fill-opacity=".5" d="M161 88l8-29-9-25z"/><path fill="#fefeff" fill-opacity=".7" d="M24 51.6l12-.2v7l-12 .2z"/><path fill="#52283f" fill-opacity=".6" d="M96 90l-40 6 31-35z"/><path fill="#b4b0b6" fill-opacity=".6" d="M198.7 72.6l20.6 2.8.7-26.8-17.4 12.2z"/><path fill="#9eadb0" fill-opacity=".5" d="M136 120h7v50h-7z"/><ellipse cx="110" cy="95" fill="#d49676" fill-opacity=".6" rx="15" ry="7"/></g></svg>