<svg xmlns="http://www.w3.org/2000/svg" viewBox="0 0 300 199"><defs/><path fill="#64392e" d="M0 0h300v199H0z"/><g transform="translate(.6 .6) scale(1.17188)"><circle r="1" fill="#e7f6f9" fill-opacity=".8" transform="matrix(.925 -44.15867 179.42062 3.75833 123.5 147.7)"/><ellipse cx="99" cy="34" fill="#230b09" fill-opacity=".7" rx="255" ry="53"/><ellipse cx="119" cy="107" fill="#868e83" fill-opacity=".5" rx="255" ry="13"/><path fill="#b08777" fill-opacity=".4" d="M131 44l-5-71.8 33-2.3 5 71.9z"/><circle r="1" fill="#f4f9fe" fill-opacity=".4" transform="rotate(10.6 -845.4 778.6) scale(95.12467 54.316)"/><circle r="1" fill="#0a0000" fill-opacity=".5" transform="matrix(-19.19535 -58.96158 26.11726 -8.50265 242.2 25)"/><circle r="1" fill="#8d8a7d" fill-opacity=".5" transform="matrix(-86.58858 26.72386 -3.38886 -10.98032 37.4 113.6)"/><ellipse cx="203" cy="89" fill="#42493d" fill-opacity=".6" rx="99" ry="12"/><circle r="1" fill="#959591" fill-opacity=".5" transform="matrix(-2.17913 9.78656 -82.11857 -18.285 246 122.3)"/><path fill="#553d2a" fill-opacity=".6" d="M131 38h85v22h-85z"/><ellipse cx="150" cy="9" fill="#190500" fill-opacity=".7" rx="4" ry="24"/><path fill="#ffb4ae" fill-opacity=".3" d="M155.3 53.1L151.7-16l12.7 56.7-27.9-15.3z"/><ellipse cx="124" cy="123" fill="#c2c1c0" fill-opacity=".4" rx="105" ry="13"/><ellipse cx="63" cy="17" fill="#2f0605" fill-opacity=".5" rx="76" ry="30"/><path fill="#fff1e8" fill-opacity=".4" d="M123-16l18 32 1-32z"/><path fill="#00070c" fill-opacity=".6" d="M165 0h18v36h-18z"/><path fill="#251a10" fill-opacity=".4" d="M149.1 112.3l13.5-72L139.9 99l3.1 10.5z"/><ellipse cx="194" cy="22" fill="#9f6b4e" fill-opacity=".4" rx="3" ry="37"/><circle r="1" fill="#672523" fill-opacity=".5" transform="matrix(-14.21597 -34.4419 5.55735 -2.29381 37.8 43.1)"/><circle r="1" fill="#f3f6fb" fill-opacity=".3" transform="matrix(1.23464 -39.5108 43.1117 1.34716 122 169)"/><path fill="#a3756c" fill-opacity=".7" d="M150.6 43l-12.2-59 1.1 51.3 6.1 7.6z"/><path fill="#6c614f" fill-opacity=".7" d="M0 88h138v11H0z"/><path fill="#000f16" fill-opacity=".5" d="M198 7h14v45h-14z"/><path fill-opacity=".4" d="M133 30l10 23-6-45z"/><ellipse cx="20" cy="67" fill="#400a0a" fill-opacity=".4" rx="83" ry="22"/><path fill="#938e85" fill-opacity=".4" d="M56 98h84v9H56z"/><path fill="#865e42" fill-opacity=".4" d="M182 0h4v60h-4z"/><path fill="#642723" fill-opacity=".5" d="M12.2 76.8L-14 20.7l11.8-5.5L24 71.3z"/><path fill="#050500" fill-opacity=".5" d="M183.2-4.3l-8.7 26.1 3.6 48.9 5.8-45z"/><path fill="#625f54" fill-opacity=".3" d="M191 92h52v21h-52z"/><circle cx="245" cy="135" r="29" fill="#a4afba" fill-opacity=".2"/><circle r="1" fill="#20170c" fill-opacity=".5" transform="matrix(108.69337 -7.23435 .67088 10.07978 178.7 69)"/><path fill="#975844" fill-opacity=".5" d="M213 23h3v34h-3z"/><path fill="#815b44" fill-opacity=".5" d="M163 31h3v30h-3z"/><path fill="#170000" fill-opacity=".5" d="M-16-7l53 73L8-16z"/><path fill="#0b0404" fill-opacity=".3" d="M143.3-16l8.5 59.4 31.1-11.2-23.1 21.4z"/><path fill="#481615" fill-opacity=".7" d="M132.2-9.8L94 73.5l32.8-14.2-1.9-39.7z"/><ellipse cx="172" cy="44" fill="#a77860" fill-opacity=".3" rx="2" ry="17"/><ellipse cx="9" cy="97" fill="#5d4634" fill-opacity=".5" rx="29" ry="7"/><circle r="1" fill="#875b3b" fill-opacity=".6" transform="matrix(-.99708 .0764 -3.57765 -46.68728 132.6 18.1)"/><ellipse cx="158" cy="72" fill="#58472d" fill-opacity=".5" rx="37" ry="2"/><circle r="1" fill="#d6d7d5" fill-opacity=".7" transform="matrix(9.46527 9.9841 -24.78124 23.49347 32.6 157.6)"/><path fill="#857b6f" fill-opacity=".4" d="M191.4 96l-52.6 10-5.1 11.1 67.9-16.7z"/><ellipse cx="157" cy="11" fill="#bb8b84" fill-opacity=".5" rx="2" ry="27"/><path fill="#0a0900" fill-opacity=".6" d="M187 1h4v51h-4z"/><path fill="#655e60" fill-opacity=".5" d="M202 53l2-18 3 11z"/><path fill="#230404" fill-opacity=".6" d="M20.3-16L58 70.9l15.4 4.8L41.2-16z"/><circle r="1" fill="#8d8783" fill-opacity=".5" transform="rotate(-19 355 59.5) scale(36.14624 7.32045)"/><path fill="#151213" fill-opacity=".5" d="M165.5-16l-7 38.3 15.1 20.8L184.4-16z"/><path fill="#571f1d" fill-opacity=".4" d="M82.2 31.8L53.8 8.3l11.7 33.9 20.2-12.9z"/><path fill="#bcbcb8" fill-opacity=".5" d="M8.2 125l115.8-2.2-53.8-15.7-86.2 60.7z"/><path fill="#caced1" fill-opacity=".5" d="M124 119l128 51-74-57z"/><path fill="#a6aaac" fill-opacity=".5" d="M146.3 113l1 .1-5.6 79.8h-1z"/><ellipse cx="162" cy="51" fill="#925b3f" fill-opacity=".6" rx="2" ry="8"/><path fill="#642b27" fill-opacity=".5" d="M14.5-16l3.1 19.8 32.8 71.5L18.9-8.1z"/><circle r="1" fill="#24251f" fill-opacity=".3" transform="rotate(-90.2 158.2 -76.4) scale(7.76976 33.55972)"/><path fill="#d07c67" fill-opacity=".3" d="M146.5 35.6l-1 19-4-.2 1-19z"/><path fill="#2b2321" d="M173.5 35.2l-5.2 20.6-4.9-16.8 12-13.3z"/><path fill="#030300" fill-opacity=".6" d="M128 32h4v23h-4z"/><path fill="#595146" fill-opacity=".7" d="M271 89.3v14.1l-62.9.2-29.6-10.4z"/><path fill="#e2d0c8" fill-opacity=".5" d="M133.3-3l2.7-1 4.7 11-2.7 1.2z"/><path fill-opacity=".5" d="M157 38h4v17h-4z"/><path fill="#8e857d" fill-opacity=".3" d="M129.3 88.6l23.5 26.5-18.6-9.8-130.3 7.3z"/><path fill-opacity=".5" d="M148 43h3v17h-3z"/><path fill="#514334" fill-opacity=".5" d="M44 85h97v4H44z"/></g></svg>