<svg xmlns="http://www.w3.org/2000/svg" viewBox="0 0 300 199"><defs/><path fill="#523028" d="M0 0h300v199H0z"/><g transform="translate(.6 .6) scale(1.17188)"><circle r="1" fill="#f2fbff" fill-opacity=".6" transform="rotate(116.2 77 142.4) scale(217.38067 68.89901)"/><ellipse cx="113" cy="169" fill="#e8dfd7" fill-opacity=".5" rx="121" ry="42"/><circle r="1" fill="#7e6264" transform="rotate(146.5 59.9 75.2) scale(74.26521 30.10397)"/><circle r="1" fill="#00000a" fill-opacity=".7" transform="rotate(-36.6 139.5 -13.5) scale(77.92544 47.21611)"/><path fill="#070702" fill-opacity=".6" d="M143.6 86.2l-36-57.7 90.8-56.7 36 57.7z"/><path fill="#b69379" fill-opacity=".4" d="M106 28h35v79h-35z"/><circle r="1" fill="#28161b" fill-opacity=".5" transform="rotate(-105.7 124.4 -54.5) scale(10.91288 28.14205)"/><circle r="1" fill="#cad0d5" fill-opacity=".6" transform="matrix(-20.71923 -14.85463 56.09088 -78.2355 226.4 106.3)"/><path fill="#9c90a0" fill-opacity=".5" d="M55 109h50v49H55z"/><ellipse cx="21" cy="162" fill="#e7eae5" fill-opacity=".5" rx="37" ry="10"/><ellipse cx="241" cy="12" fill="#c49488" fill-opacity=".9" rx="14" ry="33"/><path fill="#b9aaaf" fill-opacity=".7" d="M175.2 89.9l-16.4-13.3 38.8-16.3-2.2 28.3z"/><path fill="#9ba189" fill-opacity=".6" d="M106.1-5l9 10.8L90 27l-9-10.8z"/><path fill="#4e1920" fill-opacity=".6" d="M188.9 103l-3.8 23.5-36.3-19.4 12.5-17.3z"/><circle cx="51" r="35" fill="#20171b"/><circle r="1" fill="#5e4669" fill-opacity=".5" transform="matrix(-26.48945 -16.81072 7.38062 -11.63 27.3 32)"/><path fill="#e9b099" fill-opacity=".5" d="M130 84h14v86h-14z"/><ellipse cx="150" cy="132" fill="#561b0a" fill-opacity=".6" rx="8" ry="21"/><path fill="#4b303e" fill-opacity=".5" d="M16 133h51v17H16z"/><path fill="#080303" fill-opacity=".5" d="M225.9-14.3L122.2-16l94.4 100.2-22.9 12.7z"/><circle r="1" fill="#0f0505" fill-opacity=".7" transform="matrix(-25.67224 -9.192 8.6732 -24.2233 79.2 86.5)"/><path fill="#110400" fill-opacity=".6" d="M115.1 52.7l1.1-1.3 72.3-4-41.8 34.5z"/><ellipse cx="72" cy="169" fill="#6b5200" fill-opacity=".6" rx="18" ry="12"/><path fill="#9aa6ac" fill-opacity=".4" d="M161.2 32.3l29 36L271 90.1l-75.6-29.7z"/><path fill="#000010" fill-opacity=".5" d="M129 116l3 11-43 3z"/><ellipse cx="76" cy="154" fill="#e6daba" fill-opacity=".5" rx="33" ry="6"/><path fill="#b1a9f7" fill-opacity=".5" d="M18 9l13 25-19-18z"/><path fill="#a6a6fb" fill-opacity=".4" d="M-16 2.7l37 44.4-9.4-19.7-7.8-11z"/><path fill="#e5bdca" fill-opacity=".5" d="M203 47l23-8-16 15z"/><path fill="#4d2200" fill-opacity=".5" d="M105.3 185l-6.8-21.6 27-4.2-4.5-21.5z"/><circle r="1" fill="#00000b" fill-opacity=".6" transform="matrix(-23.99118 -49.7777 13.47596 -6.49496 14.6 70.7)"/><path fill="#fffff7" fill-opacity=".4" d="M35 138h22v5H35z"/><ellipse cx="159" cy="120" fill="#c4ae9e" fill-opacity=".8" rx="5" ry="8"/><path fill="#c3c5c7" fill-opacity=".7" d="M271 132l-72.4 53-12.1-78.6 36.9-23z"/><path fill="#1d0c02" fill-opacity=".5" d="M48.5 146.8L63.6 136l10.2 5-17.3 7.1z"/><path fill="#000008" fill-opacity=".6" d="M20 37l-36-53H3z"/><path fill="#8d6e81" d="M136 110.4l-29.4-36.3.3-10.1 2.2 41.4z"/><path fill="#0c0a00" fill-opacity=".5" d="M212.4 63.6l2.2-3.3 13.1-7.5-42.2 6z"/><ellipse cx="208" cy="16" fill-opacity=".6" rx="21" ry="17"/><path fill="#541c1c" fill-opacity=".5" d="M101 121l-41 12 25-20z"/><ellipse cx="117" cy="18" fill="#3a3319" fill-opacity=".6" rx="24" ry="13"/><path fill="#ffe8d8" fill-opacity=".3" d="M114.2 158.5l1.5 26.5H174l-8.5-35.3z"/><path fill="#bcaab1" fill-opacity=".4" d="M123.5 125.4l-31.6 8.5-4.8 51.1 15.4-36.5z"/><circle r="1" fill="#070302" fill-opacity=".5" transform="rotate(46.2 -12.3 104.5) scale(32.46518 21.3865)"/><path fill="#c1988c" fill-opacity=".9" d="M271 10.3L212.8-16l36.3 61.4L221 33.8z"/><path fill="#240b11" fill-opacity=".3" d="M146.5 151.3l12.7-3.1-117.5-76 74.9 31.3z"/><path fill="#ae6e33" fill-opacity=".5" d="M99.6 74l12.2-14.6L136.4 80l-12.2 14.6z"/><path fill="#4d3831" fill-opacity=".7" d="M158.9 36.8l1.3-7.2 37.3 19.1-.6 13.6z"/><path fill="#aca5aa" fill-opacity=".9" d="M179.9 80.7l-13.8 7.1 22.7-27.5-6.2-7z"/><path fill="#3d1c1f" fill-opacity=".5" d="M149.1 62l25.4 68.5 17.2-14.7-19.4-1.4z"/><path fill="#466083" fill-opacity=".5" d="M2 86l-16-5 26 36z"/><path fill="#b9c2b5" fill-opacity=".6" d="M90 5l2 16-11 1z"/><path fill="#89815f" fill-opacity=".5" d="M105.6 56l-6.8-21 9.6-3 6.8 21z"/><path fill="#e2c3bf" fill-opacity=".4" d="M149.4 108.7l-3.1-1.1-10.9 14.8-2.5-45.6z"/><path fill="#16101b" fill-opacity=".9" d="M39 28L0-6l46 18z"/><circle cx="231" cy="44" r="5" fill="#080000" fill-opacity=".5"/><path fill="#120602" fill-opacity=".5" d="M139 0h10v88h-10z"/><path fill="#a06968" fill-opacity=".8" d="M5.5 145.4l11.6-7.8 3.4 5-11.6 7.8z"/><path fill="#cbdef4" fill-opacity=".3" d="M51.5 120.9l41.6-10.8-38 21.4.9-22.2z"/><path fill="#342d20" fill-opacity=".6" d="M210.1 69.4l6.7 17.2-12.9-1.1-9.3-5.1z"/><path fill="#020000" fill-opacity=".6" d="M162 53l24-10-15 27z"/><circle r="1" fill="#1f2113" fill-opacity=".5" transform="matrix(2.59479 23.50327 -3.1154 .34394 114.1 33.8)"/><path fill="#c9aeaa" fill-opacity=".4" d="M197 80l1 27-12-27z"/><path fill="#c4650d" fill-opacity=".5" d="M68 156h18v8H68z"/><path fill="#c7cace" fill-opacity=".7" d="M213.7 64.1l-2.8 13.1L271 64.7V24.3z"/></g></svg>