<svg xmlns="http://www.w3.org/2000/svg" viewBox="0 0 300 199"><defs/><path fill="#502f2b" d="M0 0h300v199H0z"/><g transform="translate(.6 .6) scale(1.17188)"><circle r="1" fill="#d5dadb" fill-opacity=".6" transform="rotate(89 55.6 152.2) scale(222.00047 58.11318)"/><circle cx="141" cy="130" r="55" fill="#867773" fill-opacity=".8"/><circle r="1" fill="#133d95" fill-opacity=".6" transform="matrix(35.82577 -3.89192 19.57813 180.2197 2 2.3)"/><path fill="#c8d1cb" fill-opacity=".6" d="M4.7 28.5L7.5-3.3 39.3-.5l-2.8 31.8z"/><circle r="1" fill="#eef7ff" fill-opacity=".5" transform="matrix(.21185 -25.90515 38.75877 .31697 208.1 44.4)"/><circle r="1" fill="#210c02" fill-opacity=".8" transform="matrix(2.68106 -12.66303 19.01598 4.02613 229.5 0)"/><circle r="1" fill="#b8dfff" fill-opacity=".4" transform="matrix(-30.61313 -23.65127 18.6529 -24.14348 240 146.7)"/><circle r="1" fill="#000a5f" fill-opacity=".8" transform="matrix(-32.47204 2.27067 -6.73755 -96.35147 6.7 147.2)"/><path fill="#2b3c1a" fill-opacity=".9" d="M127.1 61.5L142.3 80l18.6-7.1-5.8-31z"/><path fill="#bca293" fill-opacity=".9" d="M130.9 45L177 32.9l86.9-4.8-107.3-23z"/><circle r="1" fill="#14110f" fill-opacity=".7" transform="matrix(47.31538 4.23137 -2.47188 27.64065 98.7 9.2)"/><ellipse cx="226" cy="104" fill="#321c04" fill-opacity=".3" rx="176" ry="9"/><path fill="#000c30" fill-opacity=".5" d="M99.7 169.5L84 176.2 38.3 68.5 54 61.8z"/><circle r="1" fill="#5b626e" fill-opacity=".4" transform="matrix(14.26702 -5.0313 46.173 130.93037 41.5 101)"/><path fill="#6c7c8c" fill-opacity=".7" d="M82 66.2l-16.8-8.5-5.8 11.7 14.4 36.7z"/><path fill="#00380e" fill-opacity=".5" d="M100.8 115l-27.3-5.8L81.2 73l27.3 5.8z"/><path fill="#959f96" fill-opacity=".7" d="M158.3 100.2l-33.8-3.9 6-25-22.5 8.9z"/><path fill="#d792b8" fill-opacity=".4" d="M113 124l39 19-14-36z"/><path fill="#8d8675" fill-opacity=".7" d="M115.8 144.9L69.3 98.2l34.2 76.6 28.1 10.2z"/><ellipse cx="164" cy="95" fill="#ac8b7f" fill-opacity=".6" rx="10" ry="48"/><path fill="#002183" fill-opacity=".8" d="M39.6 123.7L35 89.9l-51-73.2 48.1 113.6z"/><path fill="#041504" fill-opacity=".5" d="M161 127l-16-2-15-28z"/><path fill="#d7eeff" fill-opacity=".4" d="M20.2-1.5L38.1.7l-2.3 18.8-17.9-2.2z"/><path fill="#f1f3fe" fill-opacity=".2" d="M84.8 185l-45.3-61.5 20-25-10.8 22.9z"/><path fill="#461600" fill-opacity=".5" d="M175.2 10.8L178-8l8.9 1.2L184 12z"/><path fill="#a3aebc" fill-opacity=".7" d="M233.5 114.4l-20 70.6-20.2-78.2.2-4.6z"/><path fill="#3e2522" fill-opacity=".6" d="M126.6 159l-10.3-17.2 11.1-6.7 10.3 17.1z"/><circle r="1" fill="#4b4a50" fill-opacity=".6" transform="rotate(119.1 0 28) scale(10.22314 35.3854)"/><path fill="#725548" fill-opacity=".6" d="M156 57h20v15h-20z"/><path fill="#74463f" fill-opacity=".5" d="M191.2 85l12.8 8-21.2 34-12.8-8z"/><circle r="1" fill="#818c9b" fill-opacity=".6" transform="matrix(-25.6747 31.25688 -14.5625 -11.96177 176.4 158.6)"/><path fill="#2a0e00" fill-opacity=".3" d="M216 22.5L271-16l-8.4 13.4-51.1-2.3z"/><path fill="#d0dee9" fill-opacity=".6" d="M170 36h73v21h-73z"/><path fill="#00000a" fill-opacity=".5" d="M53 45h9v49h-9z"/><circle r="1" fill="#000017" fill-opacity=".5" transform="matrix(-5.29797 1.992 -30.98931 -82.41965 83.4 150.5)"/><circle cx="11" cy="164" r="33" fill="#000435" fill-opacity=".5"/><path fill="#9c7d51" fill-opacity=".3" d="M117 23l59 29-62-9z"/><path fill="#1e3313" fill-opacity=".5" d="M95 110l28-49-46 5z"/><circle cx="203" cy="27" r="17" fill="#c9b1a4" fill-opacity=".6"/><path fill="#b4b0b4" fill-opacity=".6" d="M138.6 88.2l86.8-29.5 15.8 31.8L193 81z"/><path fill="#5f614c" d="M146.9 22.1l-3.6-27.8L187-16 154.7 5z"/><circle r="1" fill="#885742" fill-opacity=".5" transform="matrix(2.94371 -8.88982 26.24395 8.69023 229.1 101.7)"/><path fill="#57342d" fill-opacity=".7" d="M32 145l44 34-37-55z"/><path fill="#1d200e" fill-opacity=".5" d="M116 106h24l-22-20z"/><ellipse cx="161" cy="35" fill="#997058" fill-opacity=".4" rx="10" ry="23"/><path fill="#454753" fill-opacity=".8" d="M88.9 185L16.1 60.4l24.6-36 14.2 70.7z"/><path fill="#a3a28b" fill-opacity=".5" d="M127 88l-22 4-1 12z"/><path fill="#5c3a3f" fill-opacity=".6" d="M122.8 154.8l-16.5-40.9 34 45.6 28.3-18.1z"/><ellipse cx="136" cy="68" fill="#092808" fill-opacity=".6" rx="22" ry="6"/><path fill="#aeab9e" fill-opacity=".5" d="M136 137l42-1-7-24z"/><circle cx="66" cy="33" r="14" fill="#582c27" fill-opacity=".8"/><path fill="#cafee3" fill-opacity=".2" d="M120.5 87.5l-3.8-15.4 43.1 8-41.2 2.6z"/><path fill="#848b9c" fill-opacity=".5" d="M39.1 39.3L11.9 26.1l27-12.7L40 40.3z"/><circle r="1" fill="#c9a28c" fill-opacity=".4" transform="matrix(8.73659 61.38647 -6.70744 .95461 253.2 57)"/><path fill="#fddbcc" fill-opacity=".5" d="M134.7 39.2l12.9-12.7 6.7 9.1-8.7 5z"/><path fill="#1d0309" fill-opacity=".6" d="M66.4 164.8l-5.7-11-7.2 4.1L69.9 185z"/><path fill="#9e739d" fill-opacity=".4" d="M103 97l54 58-46-28z"/><circle r="1" fill="#b5c5dc" fill-opacity=".5" transform="rotate(135.4 98 120.5) scale(37.06007 20.27232)"/><path fill="#8d6664" d="M144.2 139.5l-10.4 14.6 3.2-33.7 1.6-16z"/><path fill="#300300" fill-opacity=".3" d="M146.5 118l4.6-17.2-17.5 4.9 36.9 14z"/><circle r="1" fill="#d2ddea" fill-opacity=".4" transform="rotate(55.1 50.7 202.8) scale(26.76881 10.93079)"/><path fill="#ac8376" fill-opacity=".5" d="M151 105l71-18-79-7z"/><path fill="#1a120f" fill-opacity=".8" d="M106.7 30.4l4.8-6.6L67.3-16l16.6 60.3z"/><path fill="#c19aaf" fill-opacity=".5" d="M136.5 107.3l6.4 3-11.4 24.4-6.4-3z"/><circle r="1" fill="#00071a" fill-opacity=".5" transform="matrix(-6.61359 3.33687 -14.93866 -29.60802 89.7 161.5)"/></g></svg>