<svg xmlns="http://www.w3.org/2000/svg" viewBox="0 0 300 199"><defs/><path fill="#4b4b4b" d="M0 0h300v199H0z"/><g transform="translate(.6 .6) scale(1.17188)"><ellipse cx="226" cy="53" fill="#a2a2a2" fill-opacity=".6" rx="115" ry="23"/><circle r="1" fill="#040404" fill-opacity=".6" transform="matrix(44.4784 -27.49152 38.70644 62.62297 211.3 139.9)"/><circle r="1" fill="#080808" fill-opacity=".6" transform="matrix(-70.00295 36.02066 -24.37403 -47.36877 47.7 167.7)"/><circle r="1" fill-opacity=".5" transform="rotate(-85 33 -6.3) scale(36.48067 70.41147)"/><path fill="#e2e2e2" fill-opacity=".6" d="M55 77l23-26-6 61z"/><path fill="#fcfcfc" fill-opacity=".6" d="M19 95.3L9 99.6l-20-47 10.2-4.2z"/><circle r="1" fill="#d1d1d1" fill-opacity=".5" transform="matrix(10.45701 19.74986 -10.86627 5.7534 127.5 128.3)"/><circle r="1" fill="#101010" fill-opacity=".6" transform="matrix(77.62318 -19.93025 4.3115 16.79222 167.4 16.9)"/><path fill-opacity=".5" d="M169 40h20v21h-20z"/><path fill="#f4f4f4" fill-opacity=".5" d="M224.7 60.2l34.9-3.2-33.7 27.1-43.5-41.6z"/><path fill="#727272" fill-opacity=".6" d="M79 149L10 73l56 112z"/><path fill="#cecece" fill-opacity=".6" d="M167.6 55.2l3.8 16.6-39 9-3.8-16.6z"/><circle cx="33" cy="67" r="25" fill="#121212" fill-opacity=".6"/><ellipse cx="224" cy="105" fill="#fff" fill-opacity=".1" rx="14" ry="46"/><path fill="#fff" fill-opacity=".5" d="M52.5 8.3l1.7 8.9-12.7 2.5-1.7-8.9z"/><ellipse cx="192" cy="146" fill-opacity=".6" rx="20" ry="65"/><path fill-opacity=".3" d="M126 185L107 67l-55 60z"/><circle r="1" fill="#393939" fill-opacity=".5" transform="matrix(-45.758 4.406 -.67939 -7.05572 245.2 44.8)"/><ellipse cx="11" cy="150" fill-opacity=".6" rx="24" ry="33"/><path fill-opacity=".5" d="M122.7 82.5l27-2 1.6 23-27 2z"/><circle r="1" fill="#c2c2c2" fill-opacity=".5" transform="rotate(77.3 6.9 111.5) scale(19.36944 3.4111)"/><ellipse cx="141" cy="133" fill="#a9a9a9" fill-opacity=".5" rx="23" ry="8"/><path fill="#d4d4d4" fill-opacity=".4" d="M105 0h9v26h-9z"/><path fill="#878787" fill-opacity=".7" d="M35 94l18 31-69-44z"/><path fill="#eaeaea" fill-opacity=".4" d="M214 112l-10-21 10-1z"/><path fill="#d0d0d0" fill-opacity=".5" d="M237 53.2l-19.5 23.5 32.8-4.5-12.8-70z"/><path fill="#181818" fill-opacity=".5" d="M192.4 65.4l35.4 46.3L212 59.6 126.2 185z"/><path fill="#fff" fill-opacity=".3" d="M160.9 64.8l16.7 16.3 54.6-49.3L210 59z"/><path fill="#777" d="M131.4 82.6l30.6-4.1-22.7-27.1 16.4-8.5z"/><path fill="#212121" fill-opacity=".7" d="M23.9 27l14 80 31.3 10.3-20-56z"/><circle r="1" fill="#222" fill-opacity=".5" transform="rotate(-176.9 117.3 17.2) scale(3.74253 28.87366)"/><path fill-opacity=".6" d="M263 58l-13.8 1.9-2.2-15.8 13.8-2z"/><ellipse cx="176" cy="51" fill-opacity=".5" rx="9" ry="13"/><path fill="#9d9d9d" fill-opacity=".5" d="M88 67h12v21H88z"/><circle cx="251" cy="15" r="10" fill-opacity=".6"/><path fill-opacity=".6" d="M241 85h9v53h-9z"/><ellipse cx="126" fill="#d3d3d3" fill-opacity=".5" rx="7" ry="9"/><path fill="#d1d1d1" fill-opacity=".5" d="M78.9 85.6L68.3 50.3l6.8 2.5.2 40.6z"/><circle r="1" fill="#2a2a2a" fill-opacity=".6" transform="rotate(-111.7 129.5 34.1) scale(24.73547 26.76276)"/><circle r="1" fill="#656565" fill-opacity=".9" transform="matrix(8.83339 3.89599 -4.46575 10.1252 233.3 85.5)"/><path fill="#fff" fill-opacity=".4" d="M222.3 32.3l4.2 54.2-12.7-13 9.6-19z"/><path fill="#fdfdfd" fill-opacity=".3" d="M158.9 74.5l-37.6-7.8 31.1 18.8 1.7-20.5z"/><path fill="#5c5c5c" fill-opacity=".5" d="M156 117h16v27h-16z"/><path fill="#c5c5c5" fill-opacity=".4" d="M145 105h7v30h-7z"/><path fill="#464646" fill-opacity=".9" d="M169.5 91.8l7.7-23.4-18.3 5.9 6.8 37.5z"/><circle r="1" fill="#414141" fill-opacity=".8" transform="matrix(-5.2254 -25.80871 14.42284 -2.92014 52.5 149.1)"/><path fill="#fbfbfb" fill-opacity=".3" d="M215.1 51.2l-7 16.5-23.2-1-5.9-5.1z"/><path fill="#fff" fill-opacity=".5" d="M153.6 68.8l22.8 3.7-11.1-16.4-9.2 20.7z"/><path fill="#e1e1e1" fill-opacity=".5" d="M-9 71l36 28-36-53z"/><circle r="1" fill="#a5a5a5" fill-opacity=".5" transform="matrix(36.9772 -5.5786 .85765 5.68481 223.2 34.4)"/><path fill="#191919" fill-opacity=".6" d="M217.8 50.5l18.8-13.1L188 93.5l11.3 2.8z"/><path fill="#2c2c2c" fill-opacity=".6" d="M109 35.6l21.4 61.7-10.5-59.9V-16z"/><ellipse cx="88" cy="11" fill="#8a8a8a" fill-opacity=".6" rx="8" ry="4"/><ellipse cy="17" fill="#010101" fill-opacity=".5" rx="12" ry="40"/><path fill="#bfbfbf" fill-opacity=".5" d="M119 70l-7 14V50z"/><path fill="#020202" fill-opacity=".4" d="M145.1 125.9l-8.9 8.5 12.2-77.6-1.4 8.9z"/><path fill="#252525" fill-opacity=".5" d="M152.9-8.8l70.9 19.4-71.9 46.3 41.6-3.5z"/><path fill="#fefefe" fill-opacity=".3" d="M119.5 51.5l28-11.2-12 20.2 50.8 7.9z"/><circle r="1" fill="#e3e3e3" fill-opacity=".5" transform="matrix(3.91122 -3.04723 1.6207 2.08022 118.6 98.6)"/><circle r="1" fill="#1e1e1e" fill-opacity=".6" transform="matrix(-4.48718 2.74975 -1.71904 -2.80522 147.7 52)"/><path fill-opacity=".4" d="M42 33h74v13H42z"/><path fill="#121212" fill-opacity=".5" d="M170.5 18.8l-50.3 22.6-.6-21.1-12.7-13.6z"/><path fill="#ebebeb" fill-opacity=".5" d="M231.4 57.9l4.6 8.3 6-18.9 6.3 3.5z"/><path fill="#080808" fill-opacity=".5" d="M198 46l7-5 3 12z"/><path fill="#b9b9b9" fill-opacity=".3" d="M118.2 130.6l38.3 14.4-41.1-44.3-4.4 19.2z"/></g></svg>