<svg xmlns="http://www.w3.org/2000/svg" viewBox="0 0 300 199"><defs/><path fill="#56362e" d="M0 0h300v199H0z"/><g transform="translate(.6 .6) scale(1.17188)"><circle r="1" fill="#cfece7" fill-opacity=".5" transform="matrix(-32.68447 72.0525 -125.03041 -56.7163 122.6 89)"/><circle r="1" fill="#c3c6ce" fill-opacity=".7" transform="matrix(-73.37697 20.51361 -9.29704 -33.2554 170.7 91.4)"/><ellipse cx="177" cy="19" fill="#251a15" fill-opacity=".8" rx="51" ry="34"/><circle r="1" fill-opacity=".6" transform="matrix(-4.03756 12.53747 -51.06598 -16.44528 227.5 149)"/><ellipse cx="31" cy="137" fill="#7b6d5b" fill-opacity=".8" rx="82" ry="66"/><circle r="1" fill="#d5e8ff" fill-opacity=".5" transform="rotate(-146.4 107.5 59.7) scale(58.26639 33.4264)"/><circle r="1" fill="#6c8159" fill-opacity=".7" transform="matrix(61.45509 -5.12147 2.43665 29.23855 39.7 11.9)"/><path fill="#b8bbc0" d="M231.3 136.5l14.5-86-40.9 17.7-101.6 29.4z"/><path fill="#fff1e3" fill-opacity=".4" d="M92 56l-65-8 83-26z"/><path fill="#010a1d" fill-opacity=".7" d="M271 179.2v-58.8l-75.5 30.4 51.4 21.7z"/><path fill="#420001" fill-opacity=".3" d="M161.4 105.4l41.1 26.7-12 18.5-41-26.7z"/><ellipse cx="191" cy="44" fill="#5d3f34" fill-opacity=".6" rx="74" ry="13"/><path fill="#00182d" fill-opacity=".5" d="M252.8 50.1l-5.2 27 23.4 58.3-36.8-57.9z"/><circle r="1" fill="#432017" fill-opacity=".4" transform="rotate(-105.1 76.2 -6.7) scale(9.84057 13.68603)"/><ellipse cx="97" fill="#8aaf8d" fill-opacity=".6" rx="38" ry="18"/><ellipse cx="152" cy="61" fill="#92949e" fill-opacity=".6" rx="17" ry="20"/><path fill="#415744" fill-opacity=".6" d="M67.9 40.2l24.6-18.6-77.1-2.7L17 38.3z"/><path fill="#f09960" fill-opacity=".5" d="M-22.9-14.3l19.6-7.5L23 46.3 3.3 53.8z"/><ellipse cx="127" cy="113" fill="#bbbfc8" fill-opacity=".6" rx="18" ry="62"/><path fill="#19100a" fill-opacity=".5" d="M128 42.7l-1.9-28L204 9.4l2 28z"/><ellipse cx="191" cy="86" fill="#eef8fa" fill-opacity=".3" rx="14" ry="34"/><path fill="#9a9d98" fill-opacity=".7" d="M14.2 80.1l-19.7 40.2 15.8-1.9 23.5-71.2z"/><path fill="#5c5345" fill-opacity=".6" d="M116.4 179.1L72 185.4 65.6 141l44.5-6.3z"/><path fill="#bec8d6" fill-opacity=".6" d="M196.7 150.7L242 174l-6.8 13.4L190 164z"/><path fill="#b7b7ae" fill-opacity=".5" d="M237 136l-57-95 78 72z"/><path fill="#7a7576" fill-opacity=".5" d="M177-16l-18 57 2-57z"/><circle r="1" fill="#a38f7d" fill-opacity=".5" transform="matrix(-12.74165 16.79302 -36.53543 -27.72114 71.2 82.5)"/><path fill="#10192c" fill-opacity=".8" d="M210.5 130.4l42.8 28.7-66.7-11.5-.2-21.5z"/><path fill="#998c8b" fill-opacity=".5" d="M175.8 216.3l-8.5-121.7 13-.9 8.4 121.7z"/><path fill="#5a3226" fill-opacity=".5" d="M198 41h30v17h-30z"/><path fill="#86a081" fill-opacity=".5" d="M19 2l116 30-12-48z"/><path fill="#bf8f9c" fill-opacity=".6" d="M122.1 19.4L65.6 61l25.2 1.7 24.7-6.7z"/><path fill="#c7cdd1" fill-opacity=".7" d="M248.4 51.3l-11.8 26.9-89.9 37.6 75.7-55.9z"/><path fill="#54634c" fill-opacity=".4" d="M5 91l-8-26 43-43z"/><path fill="#e1e2e0" fill-opacity=".6" d="M86.4 26.6l17.6-3.8 3.6 16.6L90 43.2z"/><ellipse cx="255" cy="51" fill="#000405" fill-opacity=".8" rx="7" ry="10"/><path fill="#0d111c" fill-opacity=".9" d="M259.3 176.3l11.7-73.7-9 5.9-38.5 54.2z"/><ellipse cx="247" cy="14" fill="#a56a5c" fill-opacity=".6" rx="13" ry="6"/><path fill="#d5d3b3" fill-opacity=".3" d="M24.4 39.7l61-1.5-23 23.6-29.8-6.3z"/><path fill="#65140c" fill-opacity=".5" d="M96 45l11 3-2-8z"/><path fill="#908ea0" fill-opacity=".6" d="M222 86l24 17-10-37z"/><ellipse cx="134" cy="42" fill="#40251e" fill-opacity=".5" rx="6" ry="15"/><circle r="1" fill="#6d5d4d" fill-opacity=".6" transform="rotate(155.4 4.7 70.9) scale(19.4605 38.51392)"/><circle r="1" fill="#020100" fill-opacity=".5" transform="matrix(-1.74525 -19.50466 9.20216 -.8234 149 13)"/><path fill="#1b1712" fill-opacity=".5" d="M161.7 43.1L186.6.2 271-8.5l-44.1 26.7z"/><path fill="#99665a" fill-opacity=".7" d="M149.7 117.7l20.8-6.7 16.4 14.5-17.9 12.4z"/><circle r="1" fill="#bac0c7" fill-opacity=".8" transform="rotate(72.8 -22.7 156.8) scale(44.91995 21.05444)"/><path fill="#484b3d" fill-opacity=".8" d="M-6-16h18.6l11.2 66.4-10.3-38.8z"/><circle r="1" fill="#d38fc6" fill-opacity=".4" transform="matrix(-4.85736 -.30246 .26563 -4.26577 252.3 73.3)"/><path fill="#001528" fill-opacity=".3" d="M271 92.2l-24.2 18.7-8.4-40.7 29.3 21.5z"/><path fill="#704e43" fill-opacity=".4" d="M134 37l50 23 10-21z"/><path fill="#84ae7c" fill-opacity=".5" d="M55 0L30.9 25.3 14.9 10l24.3-25.1z"/><path fill="#9fa2a9" fill-opacity=".5" d="M115 61l36-11 46 76z"/><circle r="1" fill="#51412d" fill-opacity=".5" transform="matrix(4.12384 -8.6848 6.89143 3.27229 105.7 68)"/><path fill="#cacfd5" fill-opacity=".7" d="M179.5 92.6l24.7 31.6 2.1-19.9 45.6-58.2z"/><path fill="#91876c" fill-opacity=".5" d="M35.1 123.8l-18.6 14-32.5 24.5 26.6-41.7z"/><ellipse cx="39" cy="81" fill="#a16e4c" fill-opacity=".4" rx="14" ry="23"/><path fill="#74493d" fill-opacity=".6" d="M271 33V.3l-30.7 27-48.2 26.4z"/><path fill="#744940" fill-opacity=".4" d="M134.5 22.6l-7.3 43.8 8.4-7-20.3-22z"/><path fill="#a29270" fill-opacity=".4" d="M238.7 142.9l19.7-29.9-14.7-8.7-8.5 8.3z"/><ellipse cx="95" cy="113" fill="#847666" fill-opacity=".7" rx="15" ry="11"/><path fill="#9b9289" fill-opacity=".7" d="M37.2 54.9L65 57.8l9.4-15.4 6.3 57.6z"/><path fill="#4d6d4f" fill-opacity=".4" d="M101.1 21.1l-58.5-10L76.2 39l-46.7-8.6z"/><path fill="#312117" fill-opacity=".6" d="M-16 116.6v46.9l6.7-25.8 17.5-14.5z"/><path fill="#3d3935" fill-opacity=".5" d="M26.4 155.8l3.9 1.1 8.7-16.6-12.5 3.6z"/></g></svg>