<svg xmlns="http://www.w3.org/2000/svg" viewBox="0 0 300 199"><defs/><path fill="#4b362d" d="M0 0h300v199H0z"/><g transform="translate(.6 .6) scale(1.17188)"><circle r="1" fill="#ccbac0" fill-opacity=".5" transform="matrix(-11.09156 -68.48135 109.2334 -17.69195 100.7 128.5)"/><circle r="1" fill="#d4ffe6" fill-opacity=".4" transform="rotate(99.1 -8.6 39) scale(45.86749 28.91018)"/><path fill="#130000" fill-opacity=".5" d="M51 129h64l13-101z"/><path fill="#f4d5d5" fill-opacity=".6" d="M165.3 146.7l-33.1-87.8-16.8 45.6 6.7 34.4z"/><circle r="1" fill="#fae54b" fill-opacity=".6" transform="matrix(-11.62876 -3.41873 6.27291 -21.3372 166.6 38.1)"/><circle r="1" fill="#fff7e4" fill-opacity=".5" transform="matrix(8.28734 1.87328 -10.69268 47.30413 32.1 106.3)"/><path fill="#a9c9d5" fill-opacity=".5" d="M165 74h33v73h-33z"/><path fill="#f1ebd0" fill-opacity=".6" d="M-9.7 69.9l-1.6-47 21-.8 1.6 47z"/><ellipse cx="245" cy="145" fill="#fbffef" fill-opacity=".5" rx="5" ry="19"/><ellipse cx="70" cy="58" fill="#513938" fill-opacity=".8" rx="32" ry="20"/><path fill="#020a14" fill-opacity=".6" d="M18.7 153.7l-28 1.5-1.4-27 28-1.4z"/><path fill="#f2f05b" fill-opacity=".5" d="M37.7 3.9L27.3 54l31.2-20.1-1.4-26.6z"/><ellipse cx="26" cy="169" fill="#341407" fill-opacity=".6" rx="66" ry="8"/><circle r="1" fill="#00161f" fill-opacity=".5" transform="matrix(-5.16217 -18.61417 55.21936 -15.31368 115 21)"/><path fill="#ede6d6" fill-opacity=".4" d="M69 148l-25-20-53 36z"/><path fill="#383e4c" fill-opacity=".7" d="M0 80h25v32H0z"/><circle r="1" fill="#eadfff" fill-opacity=".5" transform="matrix(-8.68069 -25.77255 4.98666 -1.6796 93.3 154)"/><ellipse cx="21" fill="#131c24" fill-opacity=".7" rx="10" ry="40"/><ellipse cx="227" cy="169" fill="#000700" fill-opacity=".6" rx="12" ry="75"/><circle r="1" fill="#18140a" fill-opacity=".6" transform="matrix(2.99386 23.47725 -54.7659 6.98384 216.3 0)"/><circle r="1" fill="#6e3a2e" fill-opacity=".7" transform="matrix(-1.70427 -19.87944 26.18718 -2.24503 68.2 115)"/><path fill="#94ae44" fill-opacity=".5" d="M211 69l20-15 14 57z"/><path fill="#3e3c3c" fill-opacity=".5" d="M172.5 91.6L138.1 81l9.4-30.6L181.9 61z"/><path fill="#b28389" fill-opacity=".9" d="M168.9 83.1l8.8 32.9-40.6 10.9-8.8-32.9z"/><path fill="#70554b" fill-opacity=".5" d="M55 152h156v18H55z"/><path fill="#92ffff" fill-opacity=".3" d="M201.2 92.3l7.9-9.6L181 63.4l-3.3 36.7z"/><circle r="1" fill="#a88d15" fill-opacity=".5" transform="matrix(-7.28887 7.12299 -17.52799 -17.93618 249.3 39)"/><ellipse cx="221" cy="24" fill="#111005" fill-opacity=".7" rx="10" ry="34"/><path fill="#fefff9" fill-opacity=".5" d="M136.9 73l-15.7 79.2-2.4-15.7 8.4-68.5z"/><path fill="#c9fa77" fill-opacity=".5" d="M73 0h31v5H73z"/><path fill="#d5d8d2" fill-opacity=".4" d="M54.8 153.8l-12.1-.6-31-48.2 27.4 68.2z"/><path fill="#c49371" fill-opacity=".5" d="M31.3 119.7l60-51.4-9.5 42.6L46 70.8z"/><path fill="#29241c" fill-opacity=".5" d="M200 95h35v28h-35z"/><path fill="#32292d" fill-opacity=".5" d="M114 111l-14 74 24-4z"/><circle r="1" fill="#00101a" fill-opacity=".5" transform="matrix(9.41326 4.38947 -8.55237 18.34062 97.9 86.3)"/><path fill="#fffffc" fill-opacity=".4" d="M23.7 136.9l2.3-10.5 11.5-33.5-23 21.4z"/><path fill="#86c2ff" fill-opacity=".3" d="M-16 56l13 34 52-58z"/><path fill="#1d3700" fill-opacity=".5" d="M271 50.1l-48.9 16.2 23.6 36.2 3.6 71.9z"/><circle r="1" fill="#513127" fill-opacity=".5" transform="matrix(-16.61311 -35.91598 9.50718 -4.39759 71.8 144.1)"/><path fill="#bb8f4c" fill-opacity=".9" d="M7.5 45.9L-3.4 33.2l18.1-10.9 3.1 10.5z"/><path fill="#181928" fill-opacity=".7" d="M91 127.6l5.6 20.1 1.2-12.5 10.8-29.8z"/><path fill="#e1cdc2" fill-opacity=".6" d="M81 43l-5 20-1-16z"/><ellipse cx="24" cy="58" fill="#37445d" fill-opacity=".5" rx="5" ry="43"/><path fill="#322d32" fill-opacity=".7" d="M52.4 41.7l-15.5 6.6-1.8 11.8 48.1 6.5z"/><path fill="#bcc0cc" fill-opacity=".6" d="M200.5 123.2l-64.6 32.6 8.4-2.4 11.4-26.3z"/><circle r="1" fill="#e0f1ff" fill-opacity=".6" transform="matrix(-.05 -3.18278 24.03444 -.37756 0 158)"/><path fill="#212424" fill-opacity=".7" d="M158 37L96 71l46-87z"/><path fill="#e7c23a" fill-opacity=".5" d="M161 21h21v29h-21z"/><path fill="#dcdac7" fill-opacity=".5" d="M244.6 156.4L236.4 98l3-.4 8.2 58.4z"/><path fill="#fff" fill-opacity=".5" d="M178 81h14v11h-14z"/><path fill="#e2d9ff" fill-opacity=".4" d="M85.8 150.2l-1-28.8 18.4 34.6-4.8 13.1z"/><path fill="#7e4c44" fill-opacity=".8" d="M137.3 49.6l-22 58.4-57.8 17.1 57.4-30.9z"/><circle r="1" fill="#4a3e43" fill-opacity=".4" transform="matrix(5.01132 -.21504 1.52256 35.48162 165 151.3)"/><path fill="#f9c8b6" fill-opacity=".3" d="M228.1 182.6l-31.2-21.5-34.2 23.9-35.3-21.8z"/><circle r="1" fill="#345653" fill-opacity=".4" transform="rotate(-84.3 124.4 -74.3) scale(22.50397 18.51238)"/><path fill="#757f79" fill-opacity=".7" d="M162 93.9l48.1 44.5L192.7 97l-25.6-5.8z"/><circle r="1" fill="#a98675" fill-opacity=".5" transform="matrix(23.2597 11.6476 -4.66533 9.31644 52.3 140)"/><path fill="#c1d1d2" fill-opacity=".5" d="M2.5 126.1l12.3-.1-1.8-13.2-8.5-1z"/><path fill="#211401" fill-opacity=".5" d="M242 58l-2-57 24-17z"/><circle cx="45" cy="14" r="9" fill="#cca42e"/><path fill="#171922" fill-opacity=".7" d="M75.2 126L62 114.3l-.8 19.8 44.9-10.5z"/><path fill="#6e5f53" d="M271 171.3l-29.9-.1 10.4-35.6-1.4 24z"/><path fill="#eeebe5" fill-opacity=".5" d="M133.6 51.5l-9.9 11.2 15.9 20.8-27.1 41.2z"/><ellipse cx="21" cy="165" fill="#240803" fill-opacity=".5" rx="17" ry="6"/><path fill="#173538" fill-opacity=".6" d="M72 63l-2 25 13-15z"/></g></svg>