<svg xmlns="http://www.w3.org/2000/svg" viewBox="0 0 300 199"><defs/><path fill="#2e3154" d="M0 0h300v199H0z"/><g transform="translate(.6 .6) scale(1.17188)"><circle r="1" fill="#f8c79b" fill-opacity=".6" transform="matrix(44.28029 251.12598 -65.80113 11.60251 106.7 95.8)"/><circle r="1" fill="#946650" fill-opacity=".8" transform="matrix(-89.69897 58.1735 -27.15595 -41.87234 244.8 45.3)"/><circle r="1" fill="#200900" fill-opacity=".6" transform="rotate(-82.5 110.8 -81.7) scale(19.73482 56.631)"/><circle r="1" fill="#fbdacf" fill-opacity=".8" transform="rotate(156.3 12.7 90.4) scale(38.88734 18.56644)"/><circle r="1" fill="#2b1200" fill-opacity=".7" transform="matrix(-27.48014 -2.35588 5.74616 -67.02608 20.3 109.9)"/><circle cx="223" cy="136" r="41" fill="#2b0e00" fill-opacity=".7"/><ellipse cx="126" fill="#b6d9f7" fill-opacity=".7" rx="49" ry="17"/><path fill="#ffeddc" fill-opacity=".5" d="M248.2 93.3L225.6 85l32.2-88.4L280.4 5z"/><path fill="#0b0808" fill-opacity=".5" d="M136 135l-48-31 34-5z"/><path fill="#fdf" fill-opacity=".5" d="M194 24l62-23-24-17z"/><circle cx="226" cy="35" r="24" fill="#482716" fill-opacity=".6"/><path fill="#f9fafa" fill-opacity=".7" d="M179.9 83.9l16.4 5.3-7.9-24-7.9 15.9z"/><circle r="1" fill="#fbdfd5" fill-opacity=".7" transform="matrix(-6.31407 2.1988 -18.97584 -54.4912 72.4 140.8)"/><circle r="1" fill="#634131" fill-opacity=".6" transform="rotate(54.2 -109 106.7) scale(31.58539 16.22898)"/><circle r="1" fill="#dccdb8" fill-opacity=".6" transform="matrix(1.79792 -5.56646 46.67719 15.07632 177.2 165.8)"/><circle r="1" fill="#9a693d" fill-opacity=".4" transform="rotate(-108 19 -1.1) scale(28.94385 67.87292)"/><path fill="#c9b3ad" fill-opacity=".5" d="M54 127l43-66 77-19z"/><path fill="#eeddd8" fill-opacity=".5" d="M82.2 36.3L37.4 92.5 61 36.4 44.3 5.5z"/><circle r="1" fill="#d89372" fill-opacity=".5" transform="rotate(76.2 59.1 188.6) scale(29.97255 11.84003)"/><path fill="#2a2426" d="M135.7 53.6l-11.3-.9 2.5-33.2 19.5 20.7z"/><circle r="1" fill="#220e03" fill-opacity=".8" transform="rotate(-142.5 93.7 -16.6) scale(21.97277 18.98)"/><ellipse cx="166" cy="149" fill="#fff" fill-opacity=".6" rx="11" ry="7"/><path fill="#574030" fill-opacity=".6" d="M154 143l29-4 19-44z"/><path fill="#d1ccc6" fill-opacity=".7" d="M33.6 23.6L22.7 37.8l2.2 6.4L39 32.7z"/><path fill="#010b09" fill-opacity=".6" d="M23.7 31.4l-4.5-41.6 3.1 13L-16 34.1z"/><ellipse cy="82" fill="#0e0601" fill-opacity=".8" rx="31" ry="32"/><path fill="#4e0403" fill-opacity=".4" d="M117.1 1.1L93.8 33.7 73 12.5l25.9 45z"/><path fill="#f5ffff" fill-opacity=".6" d="M251 4h5v72h-5z"/><circle r="1" fill="#873b25" fill-opacity=".5" transform="rotate(120.3 60.5 84.6) scale(30.80787 15.58752)"/><path fill="#bfc8d4" fill-opacity=".8" d="M98 29L80.4-16l43.7 49.5-7.9-32.1z"/><path fill="#c5b2a2" fill-opacity=".4" d="M188 120l-87-60 39 76z"/><path fill="#1e0f09" fill-opacity=".7" d="M200.5 118l70.4 57.9-94.6-26.6 3.5 14.9z"/><path fill="#7c2806" fill-opacity=".5" d="M228 93l43 32V76z"/><path fill="#fad5cb" fill-opacity=".4" d="M29 154h68v16H29z"/><path fill="#9d9a8d" fill-opacity=".6" d="M33.5 17.4L18.4-16 10 12.4l-26-26.8z"/><path fill="#cebcbd" fill-opacity=".5" d="M123.3 34.2l-6.6-19.3-23.1 62.8 30.6-30.9z"/><path fill="#eccebf" fill-opacity=".6" d="M153 43h7v22h-7z"/><ellipse cx="196" cy="7" fill="#792d00" fill-opacity=".3" rx="31" ry="8"/><path fill="#20110d" fill-opacity=".9" d="M191.1 117.3l22 58.2-39-21.5 31.6-36.4z"/><path fill="#edeae6" fill-opacity=".7" d="M77.4 82.4l-23.1 9.2-4.9 4.4L56 84.3z"/><path fill="#fff" fill-opacity=".5" d="M197 15h14v9h-14z"/><path fill="#734839" fill-opacity=".4" d="M67.7 99.5l-38 58.3 40.5-3.3-50.8-50.1z"/><path fill="#ab8b78" fill-opacity=".6" d="M238.1 30.9L227 39.7l7.7 9.6 23.1 43.4z"/><circle r="1" fill="#361b0f" fill-opacity=".7" transform="matrix(2.03944 9.43277 -25.89473 5.59864 216.8 29.7)"/><path fill="#946947" fill-opacity=".4" d="M71 109l36 59 6-55z"/><circle r="1" fill="#f2d7ce" fill-opacity=".5" transform="matrix(17.7657 27.14883 -9.52355 6.23204 78.4 148.4)"/><ellipse cx="245" cy="7" fill="#c9d4de" fill-opacity=".3" rx="19" ry="17"/><path fill="#7b3e2d" fill-opacity=".6" d="M159 30l8 80 16-52z"/><circle r="1" fill="#170e05" fill-opacity=".5" transform="matrix(-31.55928 1.06155 -1.19668 -35.57636 3.7 143.7)"/><path fill-opacity=".5" d="M107 10h4v20h-4z"/><path fill="#743f2e" fill-opacity=".3" d="M69.5 52.8l35.2-2.5L63.9 85 53.4 67.3z"/><path fill="#4f6588" fill-opacity=".4" d="M124 26.2L105.1-16l41.7 66.1 14.9-46.9z"/><circle r="1" fill="#7c0f0b" fill-opacity=".2" transform="rotate(173.9 25.1 5.2) scale(23.35494 14.28152)"/><path fill="#f2fbf7" fill-opacity=".5" d="M63.7 36.6L45.4 67.4l20.4-11.8 7.4-5.8z"/><ellipse cx="136" cy="140" fill="#9a7961" fill-opacity=".9" rx="22" ry="11"/><path fill="#d7c2ad" fill-opacity=".4" d="M170 182l-40-42-30 5z"/><path fill="#abaaab" fill-opacity=".4" d="M202.4 89l-53.8 28.5 36-13.3-16.4-22.3z"/><path fill="#200c03" fill-opacity=".4" d="M198.4 17.8l-35.2-9.4 1.9 28.9 39.1 38.1z"/><path fill="#71493d" fill-opacity=".6" d="M36 94l1-47 17-8z"/><path fill="#fff0db" fill-opacity=".3" d="M240.9 85.4l-25.1 9.4-2-9.6L271 50.1z"/><path fill="#826354" fill-opacity=".8" d="M183.1 145l4.2-14.4L171.6 87l3.6 56.5z"/><path fill="#1a0e0b" fill-opacity=".5" d="M195 133l-37.8 12.9 11.3-16.5 34.4 41.5z"/><path fill="#604e50" fill-opacity=".6" d="M93.3 78.1L85.8 93l10.4-56.5L100 34z"/><path fill="#c3b3a5" fill-opacity=".8" d="M210.8 175.6L190.6 164l-35.8-17.4-10.9 20.8z"/><path fill="#f2dbd7" fill-opacity=".6" d="M67 98l18-3-20-9z"/></g></svg>