<svg xmlns="http://www.w3.org/2000/svg" viewBox="0 0 300 199"><defs/><path fill="#3c2e2c" d="M0 0h300v199H0z"/><g transform="translate(.6 .6) scale(1.17188)"><circle r="1" fill="#e0d9cc" fill-opacity=".9" transform="matrix(-127.6645 -104.36148 86.04939 -105.26347 116.5 105.4)"/><circle cx="190" cy="44" r="80" fill="#b39560" fill-opacity=".8"/><circle r="1" fill="#eff4fd" fill-opacity=".7" transform="matrix(-100.38341 -187.35365 51.58228 -27.6376 54.7 82)"/><circle r="1" fill="#00000e" fill-opacity=".8" transform="matrix(6.94116 12.78403 -7.35242 3.99204 23.1 169.1)"/><path fill="#0e0106" fill-opacity=".6" d="M161.1 77.9l-4-12 22-6.8 3.6 18.3z"/><circle r="1" fill="#e2e3e8" fill-opacity=".8" transform="matrix(129.0655 -2.25285 .49157 28.16185 165 156.1)"/><circle r="1" fill="#7cb4e4" fill-opacity=".5" transform="matrix(-15.90027 -6.03995 9.86946 -25.98154 164.9 38.9)"/><circle r="1" fill="#ebedf0" fill-opacity=".9" transform="matrix(20.20175 -81.0248 28.99525 7.22933 81.6 31.9)"/><circle cx="237" cy="36" r="33" fill="#9f7536" fill-opacity=".5"/><circle r="1" fill="#f7de9c" fill-opacity=".4" transform="matrix(-12.01797 -10.71313 26.23025 -29.42505 135.4 14.4)"/><ellipse cx="200" cy="40" fill="#1e00f9" fill-opacity=".2" rx="11" ry="22"/><path fill="#865215" fill-opacity=".5" d="M42 152.9l8-.7 2 23-8 .6z"/><circle r="1" fill="#fffffc" fill-opacity=".2" transform="matrix(-31.36973 -22.04702 12.08823 -17.1998 232.7 105.2)"/><ellipse cx="184" cy="102" fill="#e3a126" fill-opacity=".2" rx="43" ry="25"/><circle r="1" fill="#e0e3e6" fill-opacity=".8" transform="rotate(24.2 -290.4 62.2) scale(57.56467 19.32004)"/><circle r="1" fill="#dbc8c6" fill-opacity=".5" transform="matrix(-3.01025 3.40247 -23.6335 -20.90916 178 48.7)"/><path fill="#a28a6b" fill-opacity=".5" d="M0 152h46v4H0z"/><path fill="#618095" fill-opacity=".5" d="M166 9l16 34 3-35z"/><path fill="#13111a" fill-opacity=".8" d="M1.9 185H-.9h45.3l-25.8-28.7z"/><ellipse cx="129" cy="62" fill="#d4ad6c" fill-opacity=".5" rx="17" ry="32"/><path fill="#c5a14e" fill-opacity=".4" d="M222 20L149-5l109 5z"/><path fill="#ccd4e7" fill-opacity=".5" d="M263.4 74l24.1 19.5-41 50.5-24-19.5z"/><circle r="1" fill="#e9ebef" fill-opacity=".5" transform="matrix(15.03164 -24.9413 95.07997 57.30287 102 119.4)"/><path fill="#bea06d" d="M212.1 13.9l6.2 69.7 28.8 23.4-38.5-44.4z"/><path fill="#2c1b16" fill-opacity=".4" d="M169 65h13v15h-13z"/><path fill="#774007" fill-opacity=".5" d="M274.2 82.4l-39.2-12 .8-2.8 39.2 12z"/><path fill="#f6dca1" fill-opacity=".5" d="M249.6 104.6l-14.9-13.3h13l-41.3-23.7z"/><ellipse cx="149" cy="41" fill="#002c42" fill-opacity=".2" rx="3" ry="18"/><path fill="#f9e3ab" fill-opacity=".6" d="M237 102l-.6 8.7-34-38.7 33.7 27.2z"/><path fill="#bf9b5c" fill-opacity=".8" d="M194.5 116.7L125.6 69l33.8 4.3 28.5 12.5z"/><path fill="#eddfbe" fill-opacity=".5" d="M243.1 142.9l-21.5-41-9.2-10.5-17.6-18.8z"/><path fill="#a7bcc3" fill-opacity=".5" d="M151 24h25v39h-25z"/><ellipse cx="207" cy="45" fill="#0a001a" fill-opacity=".4" rx="2" ry="17"/><path fill="#d9baa3" fill-opacity=".8" d="M167 37l.7-10.9 35.1 50.2-26.7-23.1z"/><path fill="#ffe69f" fill-opacity=".4" d="M146.6-1.7l23.1-11.8 7.7 15.2-23.1 11.8z"/><path fill="#fde496" fill-opacity=".4" d="M268.4 71.8l-1.2 3.8-47.6-15.4 1.2-3.8z"/><path fill="#916425" fill-opacity=".4" d="M249.2 94.5l-7.4-5.9-30.1-23.1 35.9 20.3z"/><circle r="1" fill="#f0d59b" fill-opacity=".5" transform="rotate(26 -47.3 563) scale(35.42179 2.2259)"/><path fill="#a27b43" fill-opacity=".6" d="M198.3 69.5l32.2 38.3-.8.7-32.2-38.3z"/><path fill="#bb9eb3" fill-opacity=".5" d="M196 18h8v55h-8z"/><path fill="#5f381b" fill-opacity=".5" d="M222.8 41.3l-.3-3 64.7-5.6.3 3z"/><path fill="#e2c37d" fill-opacity=".5" d="M175.7 93.3l-31.5-37 .7-38.5-11.3 38z"/><circle r="1" fill="#d4b772" fill-opacity=".5" transform="rotate(7 -323.5 2049.6) scale(27.13627 2.69089)"/><ellipse cx="255" cy="48" fill="#674325" fill-opacity=".5" rx="32" ry="3"/><circle r="1" fill="#724c28" fill-opacity=".5" transform="matrix(-.50709 -1.91148 35.62405 -9.45056 249 25.7)"/><path fill="#a26f73" fill-opacity=".4" d="M197.1 6.6l-11.9 26.3-18.2-7.8 30.9 37.1z"/><path fill="#b3b0b3" fill-opacity=".3" d="M17.3 155.1L63.6 185l-6.7-31.5-44.8-13.4z"/><path fill="#bad0f9" fill-opacity=".5" d="M15 157L5 179l-21-29z"/><path fill="#6a4327" fill-opacity=".5" d="M228.2 55.7l36.2 7.7-.6 3-36.2-7.8z"/><path fill="#b8b8be" fill-opacity=".4" d="M202.3 133.5l50-26.8-65.6 18.9-32.3-.1z"/><path fill="#a9c5e2" fill-opacity=".6" d="M259.4-16l-8.3 17.1 10 14.9 9.9 22.4z"/><path fill="#c29a61" fill-opacity=".5" d="M122.4 89.2l14.7-39.3L154 86.5l-12.4 24.9z"/><path fill="#46382b" fill-opacity=".7" d="M168.8 78l-14.2-7.9 6.3-6.5 24.2 6.3z"/><path fill="#817594" fill-opacity=".5" d="M196 71l-8 7-12-17z"/><path fill="#e9cc78" fill-opacity=".4" d="M208 16l7 18-24-29z"/><path fill="#dcb86d" fill-opacity=".5" d="M219 42h37v3h-37z"/><path fill="#795024" fill-opacity=".4" d="M215.5 80.5l.6-.8 26.4 19.8-.6.8z"/><path fill="#c59333" fill-opacity=".4" d="M209.4 76.6l-39.1 17.5 31.6-20.6 31.1-50z"/><path fill="#dfe1e5" fill-opacity=".3" d="M259.5 183.8L198 87.4l19.2 50-153.6 30.4z"/><path fill="#ffe9ae" fill-opacity=".2" d="M239 106.1l-53.1-55 17.3 32.8 5.6.1z"/><path fill="#f4dea8" fill-opacity=".5" d="M222.7 76.7l-18-12 38 32 2.9-4.3z"/><path fill="#ba8e33" fill-opacity=".4" d="M203.8-1.2l21.6 40-20.6-23.3L166.5-16z"/><path fill="#023e59" fill-opacity=".2" d="M175 39.7l-7.8 32-1.8-2.2-.3-23z"/><path fill="#6592a9" fill-opacity=".5" d="M169 10h19v8h-19z"/><path fill="#5b2a04" fill-opacity=".2" d="M188.6 66.9l34.7 57.7-6.5-18.5-31.7-40.8z"/></g></svg>