<svg xmlns="http://www.w3.org/2000/svg" viewBox="0 0 300 199"><defs/><path fill="#4a3326" d="M0 0h300v199H0z"/><g transform="translate(.6 .6) scale(1.17188)"><circle r="1" fill="#928a79" fill-opacity=".6" transform="matrix(46.1655 65.93116 -202.779 141.98738 88.5 126.6)"/><path fill="#f4effb" fill-opacity=".6" d="M208.3 91.6l-24.4 9-10.2-28.2 24.4-9z"/><circle r="1" fill="#e4e6dc" fill-opacity=".6" transform="rotate(83 81.6 184.6) scale(47.28769 11.72904)"/><path fill="#020100" fill-opacity=".5" d="M212 5l39 8-34 139z"/><circle cx="96" cy="37" r="44" fill="#443e27" fill-opacity=".8"/><path fill="#fff" fill-opacity=".5" d="M183.2 188.1l-37-32.1 10.6-12.1 37 32.1z"/><ellipse cx="145" cy="96" fill="#ffcec3" fill-opacity=".5" rx="13" ry="28"/><ellipse cx="45" cy="146" fill="#c2ac78" fill-opacity=".7" rx="46" ry="12"/><ellipse cx="219" fill="#fff5e0" fill-opacity=".4" rx="170" ry="6"/><ellipse cx="30" cy="76" fill="#a8a589" fill-opacity=".5" rx="33" ry="29"/><path fill="#170000" fill-opacity=".4" d="M88 79l54 81 9-31z"/><ellipse cx="163" cy="46" fill="#080f00" fill-opacity=".6" rx="9" ry="29"/><ellipse cx="226" cy="148" fill="#e6d6d0" fill-opacity=".7" rx="3" ry="21"/><ellipse cx="110" cy="28" fill="#d2a56a" fill-opacity=".3" rx="12" ry="72"/><circle r="1" fill="#050300" fill-opacity=".6" transform="rotate(129.5 86 108.7) scale(22.23937 16.55391)"/><path fill="#f3f0d9" fill-opacity=".4" d="M100 115.4l-3.9 25.8L76 88.1l3.8-5.5z"/><path fill="#0f0006" fill-opacity=".5" d="M108 122l-44 63 52-43z"/><circle r="1" fill="#f0bcb7" fill-opacity=".4" transform="rotate(109.6 4.5 117.7) scale(23.33826 11.10654)"/><ellipse cx="209" cy="40" fill="#f2f6fa" fill-opacity=".7" rx="2" ry="29"/><path fill="#16200b" fill-opacity=".5" d="M175 16h32v31h-32z"/><circle r="1" fill="#010409" fill-opacity=".6" transform="rotate(-136.7 43 -2.2) scale(22.50097 14.7899)"/><path fill="#fefcff" fill-opacity=".6" d="M147 3h4v69h-4z"/><ellipse cy="120" fill="#000703" fill-opacity=".6" rx="33" ry="8"/><circle r="1" fill="#f6e1d6" fill-opacity=".4" transform="matrix(-26.1779 4.38068 -.54932 -3.28259 172.2 16.5)"/><circle r="1" fill="#7c7782" fill-opacity=".7" transform="matrix(-9.7283 7.36337 -12.02565 -15.88799 209 82.2)"/><circle r="1" fill="#23141d" fill-opacity=".5" transform="rotate(111.9 43 134.6) scale(16.74021 24.79214)"/><circle r="1" fill="#081a25" fill-opacity=".7" transform="rotate(43.5 -18.6 17.3) scale(40.4942 17.55573)"/><path fill="#000003" fill-opacity=".5" d="M95.8 106.7L121 94.5l5.2 10.8-25.2 12.2z"/><path fill="#24160c" fill-opacity=".5" d="M106 32h35v38h-35z"/><path fill="#ffddda" fill-opacity=".5" d="M110.7 70.7l8.5 3-7.9 21.6-8.5-3z"/><path fill="#77788b" fill-opacity=".6" d="M175 100l47-16-47 69z"/><ellipse cx="255" cy="152" fill="#714539" fill-opacity=".7" rx="27" ry="42"/><circle r="1" fill="#491c01" fill-opacity=".7" transform="matrix(-41.89694 7.6264 -1.1207 -6.15678 .6 169)"/><circle r="1" fill="#e1f618" fill-opacity=".2" transform="matrix(-11.74224 5.08132 -5.91764 -13.67486 42.5 17.8)"/><path fill="#d8beb7" fill-opacity=".5" d="M145.2 100.5l67.1-29.7-93.9 38.3 42.2 17.6z"/><path fill="#83774c" fill-opacity=".9" d="M36.6 144l-2-18.9 48.8-5.1 2 18.9z"/><path fill="#d2b29c" fill-opacity=".5" d="M132 0h10v28h-10z"/><path fill="#fff" fill-opacity=".5" d="M172 20h3v53h-3z"/><path fill="#fffcff" fill-opacity=".5" d="M194 177l-46-4 17-18z"/><path fill="#fff6e3" fill-opacity=".5" d="M20 148h25v9H20z"/><path fill="#7e7e15" fill-opacity=".5" d="M83 2h40v19H83z"/><path fill="#6d6558" fill-opacity=".8" d="M247.7 32.1l-38.3-7.5 33.9 21.2 8.4 21.1z"/><path fill="#100000" fill-opacity=".4" d="M158 32l-9-25 14-2z"/><path fill="#ddd1a4" fill-opacity=".5" d="M73.3 136.5l1.3 32.8-17.7-21.6 45.4-2.4z"/><path fill="#ecaba4" fill-opacity=".5" d="M185 44l-7 11 33 14z"/><path fill="#cbbdb6" fill-opacity=".5" d="M165 3l22-19 73 27z"/><circle cx="81" cy="57" r="5" fill="#dbe6fe" fill-opacity=".5"/><circle r="1" fill="#000d18" fill-opacity=".5" transform="rotate(160.1 40.5 56) scale(5.5489 20.23929)"/><ellipse cx="255" cy="81" fill="#fbffff" fill-opacity=".4" rx="7" ry="29"/><path fill="#000c20" fill-opacity=".6" d="M103.2 125.8l-11.5 9.1 20.1 15.6 3.1-4.5z"/><path fill="#ffe7af" fill-opacity=".2" d="M-2.8 125.5l44.3-47.6 66.6 32.3-66.5-7.7z"/><path fill="#180800" fill-opacity=".5" d="M195 40h14v17h-14z"/><path fill="#0c131c" fill-opacity=".4" d="M35 36h64v19H35z"/><path fill="#070804" fill-opacity=".7" d="M213 113l-7 22 65-26z"/><circle r="1" fill="#4b2417" fill-opacity=".6" transform="matrix(10.66834 11.44039 -10.06633 9.387 141.4 132.3)"/><ellipse cx="185" cy="83" fill="#fff" fill-opacity=".6" rx="7" ry="13"/><path fill="#ffe0a9" fill-opacity=".3" d="M33.5 38.9l-.6 9-22.6 13.9 23.5 1.8z"/><path fill="#f7c8b7" fill-opacity=".3" d="M149.4 101.2l11.1 32.9-26-36-47.6 34.4z"/><path fill="#2e2416" fill-opacity=".7" d="M155.6 85.5l-2.3-4.9L171 17.3l-4 71.2z"/><ellipse cx="233" cy="81" fill="#3e2f1b" fill-opacity=".7" rx="10" ry="33"/><ellipse cx="143" cy="65" fill="#e2bfaf" fill-opacity=".5" rx="2" ry="40"/><path fill="#240f04" fill-opacity=".3" d="M36.1 42.7l16.8 32 6.3 25.8L36 62.8z"/><path fill="#e9eef5" fill-opacity=".5" d="M175.4 103.4l2.2 31-3 .2-2.2-31z"/><circle r="1" fill="#32231b" fill-opacity=".8" transform="matrix(.4153 -19.82606 21.12116 .44243 199.6 157.4)"/><path fill="#000f00" fill-opacity=".4" d="M125 26h18v35h-18z"/></g></svg>