<svg xmlns="http://www.w3.org/2000/svg" viewBox="0 0 298 450"><defs/><path fill="#524233" d="M0 0h298v450H0z"/><g transform="translate(.9 .9) scale(1.75781)"><circle r="1" fill="#ccc1c2" fill-opacity=".6" transform="rotate(-68.2 164 90.3) scale(132.21686 64.92727)"/><path fill="#000904" fill-opacity=".8" d="M185-9L-16-5l201 152z"/><circle r="1" fill="#cae7ff" fill-opacity=".6" transform="matrix(-16.12892 24.74171 -82.94188 -54.06913 34.4 255)"/><circle cx="22" cy="26" r="57" fill="#251914"/><path fill="#917261" fill-opacity=".6" d="M58 67h42v184H58z"/><circle r="1" fill="#71b784" fill-opacity=".4" transform="matrix(54.7979 26.61337 -10.40085 21.41573 126 141)"/><ellipse cx="136" cy="217" fill="#122a1d" fill-opacity=".5" rx="37" ry="43"/><path fill-opacity=".3" d="M61 132l4 84-25-58z"/><path fill="#875141" fill-opacity=".6" d="M32 54l29 17 9-49z"/><path fill="#a6b8cd" fill-opacity=".7" d="M-26.7 209.4L-8.3 164l51 20.6L24.3 230z"/><circle r="1" fill="#a29a90" fill-opacity=".5" transform="matrix(13.8745 26.606 -6.88156 3.5886 94.4 92)"/><path fill="#c8ddf6" fill-opacity=".5" d="M8 246l58-28 8 53z"/><circle r="1" fill="#000d03" fill-opacity=".6" transform="rotate(130.5 43.8 76.2) scale(21.00901 41.35817)"/><ellipse cx="35" cy="117" fill="#bb9079" fill-opacity=".5" rx="56" ry="25"/><circle r="1" fill="#040302" fill-opacity=".7" transform="matrix(74.50045 -79.67585 18.40568 17.21012 34.8 0)"/><path fill="#48583f" fill-opacity=".6" d="M92 134l3 62 80-23z"/><path fill="#4b2f22" fill-opacity=".7" d="M0 74h45v20H0z"/><ellipse cx="41" cy="194" fill="#738496" fill-opacity=".5" rx="18" ry="37"/><path fill="#a48375" fill-opacity=".5" d="M43.7 131.7l34-48.8-20.2 3.3-26.2-16.8z"/><path fill="#010602" fill-opacity=".3" d="M67.3 216.5l-3.6-29.6-16.6 5.2 15.1 23.4z"/><path fill="#8d6355" fill-opacity=".6" d="M105 242l-26-89-4 117z"/><path fill="#654237" d="M78.5 37.5l-8.1-15.2-16.6 12.3L48 57.3z"/><circle r="1" fill="#c1a58f" fill-opacity=".6" transform="matrix(-10.8103 -21.883 58.69294 -28.99456 0 146.3)"/><path fill="#e09691" fill-opacity=".5" d="M72.3 65.7L78 79.5l16.4-7.4-16.1-7.2z"/><ellipse cx="102" cy="196" fill="#161c15" fill-opacity=".5" rx="8" ry="15"/><path fill="#000b05" fill-opacity=".6" d="M93 0h77v82H93z"/><path fill="#7b3a00" fill-opacity=".2" d="M61.2 132.6l-51.2 38 30.5-.3 36.9-29.8z"/><path fill="#031408" fill-opacity=".6" d="M42.9 78.1l-16-11.6 39.8-2-11.5 16.6z"/><path fill="#5e986e" fill-opacity=".4" d="M152 136l-61 9V94z"/><path fill="#aabacd" fill-opacity=".5" d="M10 209l45-27-3-19z"/><path fill="#3e5b60" fill-opacity=".6" d="M141 40l8-9-14-3z"/><path fill="#5f3a29" fill-opacity=".5" d="M47.9 111l13.2-1.9-37.4-41.3L35 63.6z"/><path fill="#5e201f" fill-opacity=".5" d="M76 100l-4-12 29 9z"/><path fill="#bdddec" fill-opacity=".5" d="M72.5 83.4l1.9.8-13 30.4-1.8-.8z"/><path fill="#392319" d="M-16 87.9l26.2-12.2 32.1 14.4L29 92.7z"/><path fill="#a5afbc" fill-opacity=".7" d="M24.1 185.9l28.5-49.6-47.7 65.4 40.8-10.5z"/><circle r="1" fill="#5a7657" fill-opacity=".4" transform="matrix(-56.11891 32.79325 -5.33 -9.12119 156.2 141)"/><path fill="#9fe7ff" fill-opacity=".3" d="M107.5 99.2l-1.5-6.3-15 9.8 6.2 1.9z"/><path fill="#c5dbe4" fill-opacity=".4" d="M38.3 162.2l-1-.4 36.4-78 1 .4z"/><path fill="#c8d5e4" fill-opacity=".6" d="M66.2 224.9l-65.8 12L54.1 261l4.5-53.2z"/><path fill="#815c4a" fill-opacity=".5" d="M36.8 94.9l-17.9-2.7-11-4.9-23.9 46.1z"/><path fill="#eed1c5" fill-opacity=".3" d="M41.9 77l7.6 18.8 5.7 5.6 7.9-14.2z"/><path fill="#002a13" fill-opacity=".4" d="M101 87.4l18.3 28.8 35.7 12.9 22.9 7.9z"/><path fill="#757376" fill-opacity=".6" d="M55 220.9l-26-19 30.8-19.3-5.9 44.5z"/><path fill="#b58b7a" fill-opacity=".5" d="M66 113h25v57H66z"/><path fill="#785445" fill-opacity=".8" d="M76.9 233l26.6 37.1 7.9.9-29.7-65.5z"/><path fill="#68bbcd" fill-opacity=".4" d="M72.5 62.8l-6 1.3-1-5 6-1.2z"/><circle r="1" fill="#909eb3" fill-opacity=".3" transform="matrix(39.62373 21.67246 -3.99434 7.30285 47.8 229.6)"/><path fill="#4e1d02" fill-opacity=".3" d="M28.7 174.4l24.5-16 11.9 5.5-1.8-28.9z"/><path fill="#c6d7ef" fill-opacity=".4" d="M0 168h10v36H0z"/><path fill="#cc8f8b" fill-opacity=".5" d="M73 92l-3-24-8 1z"/><path fill="#510000" fill-opacity=".2" d="M41.2 78.5l31.9 6-7.6 20.1L87.3 80z"/><path fill="#aa8975" fill-opacity=".5" d="M92 193l-5 35 16 7z"/><path fill="#08110c" fill-opacity=".5" d="M59.4 208.1l5.4 9.3-.3-22.7-3.6-11.4z"/><path fill="#4b573e" fill-opacity=".5" d="M92 142h18v49H92z"/><path fill="#3a2116" fill-opacity=".6" d="M29.6 71.9l20.3-26.7L40.8 27l-10.3 4.7z"/><ellipse cx="167" cy="241" fill="#343628" fill-opacity=".8" rx="65" ry="63"/><path fill="#5b483d" fill-opacity=".5" d="M50.2 47.5l21.4-33.6 1.3-10.3L81.6-16z"/><circle r="1" fill="#b6887f" fill-opacity=".6" transform="matrix(-5.62263 3.39179 -3.18526 -5.28027 88.4 74.8)"/><path fill="#e8b7b9" fill-opacity=".5" d="M95 82L78 93l17-5z"/><path fill="#030d05" fill-opacity=".4" d="M77 80.2l61.7 1.1 23.6 53.9 14-78.1z"/><circle r="1" fill="#08170e" fill-opacity=".6" transform="matrix(-.2062 -.9785 39.96146 -8.4212 75.2 65.6)"/><circle cx="97" cy="22" r="25" fill="#021008" fill-opacity=".6"/><path fill="#030d07" fill-opacity=".5" d="M130 116l37-96-76 46z"/><path fill="#d1deea" fill-opacity=".7" d="M27.2 257.2l22.7-23.6-65.9 3.5 22.4-16.3z"/></g></svg>