<svg xmlns="http://www.w3.org/2000/svg" viewBox="0 0 300 199"><defs/><path fill="#4a5826" d="M0 0h300v199H0z"/><g transform="translate(.6 .6) scale(1.17188)"><circle r="1" fill="#fbecfa" fill-opacity=".6" transform="matrix(103.06444 221.02241 -91.9391 42.8719 170 55.5)"/><ellipse cx="73" cy="104" fill="#5a673e" rx="65" ry="39"/><circle r="1" fill="#e8e5f5" fill-opacity=".5" transform="matrix(118.63371 16.88408 -2.67447 18.79178 32.9 163)"/><circle r="1" fill="#faf7fc" fill-opacity=".6" transform="matrix(-9.58579 48.41176 -71.37374 -14.13238 223.1 21.1)"/><path fill="#3f400b" fill-opacity=".5" d="M93.2-2.5l57.9 4-2.3 33-57.9-4z"/><circle cx="39" cy="26" r="44" fill="#8e9681" fill-opacity=".5"/><ellipse cx="251" cy="169" fill="#fbfafb" fill-opacity=".8" rx="56" ry="24"/><circle r="1" fill="#6f402e" fill-opacity=".5" transform="rotate(-72.2 176.8 -61.5) scale(19.86143 32.26227)"/><circle r="1" fill="#f8f5fa" fill-opacity=".5" transform="matrix(-52.50678 -29.52305 6.18433 -10.99885 120.5 54.9)"/><circle r="1" fill="#e2ddde" fill-opacity=".5" transform="rotate(114.9 -11.6 55.3) scale(10.00431 13.73678)"/><circle cx="31" cy="153" r="27" fill="#acb1a8" fill-opacity=".5"/><path fill="#bec3b6" d="M57.8 47.8l-7.1-3-13.3-9.6 45-24.2z"/><circle r="1" fill="#39472b" fill-opacity=".5" transform="matrix(31.11567 25.11428 -11.4905 14.2363 65 135.1)"/><path fill="#455415" fill-opacity=".4" d="M75 8.5l92.2.5L22.4-16v42.9z"/><ellipse cx="230" cy="76" fill="#bdbcbd" fill-opacity=".6" rx="128" ry="19"/><path fill="#283f0a" fill-opacity=".5" d="M141 125L7 124l85-26z"/><path fill="#b5b4ab" fill-opacity=".7" d="M144.7 185l-79.6-74.6 67.6 38.4-103.1 31.5z"/><path fill="#99b8ab" fill-opacity=".6" d="M-13 3l30 28-4-39z"/><path fill="#284314" fill-opacity=".5" d="M23 41l13-57 6 76z"/><path fill="#6e785b" fill-opacity=".5" d="M124 87l22-3-17 71z"/><path fill="#c6c2bc" fill-opacity=".8" d="M57 170l93 15 98-42z"/><path fill="#724b03" fill-opacity=".4" d="M48.5 110.8l15.8-68.5-9.3-3.8 29.3 18z"/><path fill="#1d3700" fill-opacity=".5" d="M112 89l15-23-34 30z"/><path fill="#edf8f5" fill-opacity=".2" d="M51.1-3.6l46.6 21.2-6.9-20.3 89.7 99.4z"/><path fill="#213105" fill-opacity=".7" d="M89.8 114.3L139.6 71l.6.7L90.4 115z"/><path fill="#6e7867" fill-opacity=".6" d="M19 143l77 14-31-29z"/><ellipse cx="249" cy="133" fill="#f8f1ff" fill-opacity=".2" rx="24" ry="70"/><path fill="#dddcd9" d="M114.6 91.3l3.8-10.7 25.2-37.1 1.2 17.2z"/><path fill="#476522" fill-opacity=".4" d="M52.8 136.7l59.5-38.1-1.9-43.2L47.8 82z"/><path fill="#b6b6ad" fill-opacity=".9" d="M125.6 185l2.7-29.4-27.4 4.1-45.7-31z"/><path fill="#764131" fill-opacity=".4" d="M220 154l-28-59-24 20z"/><path fill="#233f03" fill-opacity=".5" d="M117.4-10.6l25.5 43.5-12-13.1-25.3-1.8z"/><path fill="#a27f6d" fill-opacity=".9" d="M150.5 66.5l6.9-.5-.3-9.2-29.4-71.9z"/><ellipse cx="184" cy="22" fill="#c3a37f" fill-opacity=".5" rx="13" ry="15"/><path fill="#688270" fill-opacity=".8" d="M-7.6 101.9l28.8-30.3 7.7-53.8L15 59.2z"/><path fill="#010e00" fill-opacity=".6" d="M87.5 188.4l-.8.7-38.2-39.5.8-.7z"/><path fill="#e1e0dc" fill-opacity=".8" d="M99.7 32.2l16.2 44.1 10.9-37.6-50.1 30.4z"/><path fill="#ae8d74" fill-opacity=".6" d="M120.3 74.6l-45.5-6.1-36.7-2.4-9.9-14z"/><path fill="#ebfff9" fill-opacity=".3" d="M32.7 166.5l-.5-9.8 36.6-30.3-35.4 48.2z"/><path fill="#d5d9cf" fill-opacity=".6" d="M45.9 117.7l2.7-25.1-19.2-15.2 16 28.1z"/><path fill="#111d00" fill-opacity=".3" d="M106.4 160.4l-26.9-14.9-61.9-68.1 86 70z"/><path fill="#e1fcdc" fill-opacity=".5" d="M70 92l-7-6 4 20z"/><path fill="#482805" fill-opacity=".5" d="M54.5 100.7L25.4 57.2l18.5 9.4 15.6 3.5z"/><path fill="#3c4527" fill-opacity=".5" d="M26 136l7 28-17-24z"/><path fill="#536736" d="M49.4 14.2l-65.4.5 74.5-10L76.3-16z"/><path fill="#fff" fill-opacity=".5" d="M104 64h3v16h-3z"/><path fill="#fff" fill-opacity=".1" d="M5.5 98.5l34.8 56.1-36.8-41.1 63.2-13.2z"/><circle r="1" fill="#1f250a" fill-opacity=".6" transform="matrix(9.9208 6.83085 -2.38625 3.46567 77.1 152)"/><path fill="#2d3815" fill-opacity=".5" d="M131.3 125.3L67 119.6l75.1-37.4-28.8 28.5z"/><path fill="#6c775b" fill-opacity=".5" d="M95 120l31 8 11 31z"/><path fill="#bebfb4" d="M89.4 164.7l-25.7-13.6 22 16.7 53.5 4.9z"/><path fill="#d2c5be" fill-opacity=".5" d="M17 128l-21 34 27 15z"/><path fill="#a19b8d" fill-opacity=".6" d="M214.4 152.5l-36.6 3.3-67.6-49.7 91.1 35.5z"/><path fill="#5f6d45" fill-opacity=".3" d="M67 44l77-28-57 2z"/><circle r="1" fill="#f4f7fa" fill-opacity=".4" transform="matrix(-3.45144 -8.36458 33.84263 -13.96433 192.1 42.9)"/><path fill="#2b3c09" fill-opacity=".6" d="M26.2 115.2L10.1 93.8l30.3 27.5-34.6 13.8z"/><path fill="#002f06" fill-opacity=".3" d="M-16 32.1l33 6.4-33 76.3 30.7-58.3z"/><path fill="#f9faf9" fill-opacity=".6" d="M113 46l-1 34 14-27z"/><path fill="#bebdb9" fill-opacity=".9" d="M174.8 73.5l-45.1 19.8 22.9 2.2 15.9 4.2z"/><path fill="#b8bfb1" fill-opacity=".5" d="M66.8 63.2l-25-32.3L59-.1l-1.9 33.7z"/><path fill="#dee3e0" fill-opacity=".5" d="M140.6 70.2l26.6 2.8L139 84.1l-16.1 6.1z"/><path fill="#effaff" fill-opacity=".3" d="M78.2-16l-.7 11.6L110 5.5l-8.1 14.6z"/><path fill="#3c4a24" fill-opacity=".9" d="M104.3 94.4l.9 4.1 18.2-26.9 2.4-8.4z"/><path fill="#252e16" fill-opacity=".6" d="M57.4 151.3l-1.1-6.4 16.6 15.2 36.5 24.9z"/><path fill="#a7574c" fill-opacity=".5" d="M134-1l15-9v57z"/></g></svg>