<svg xmlns="http://www.w3.org/2000/svg" viewBox="0 0 300 199"><defs/><path fill="#614430" d="M0 0h300v199H0z"/><g transform="translate(.6 .6) scale(1.17188)"><path fill="#f4f9fa" fill-opacity=".6" d="M161 66L83 29l67-45z"/><circle r="1" fill-opacity=".9" transform="rotate(173 15.6 47.6) scale(60.27977 123.14464)"/><circle r="1" fill="#0b0401" transform="matrix(.372 106.572 -67.1008 .23423 226 75.8)"/><ellipse cx="144" cy="169" fill="#ffcea2" fill-opacity=".8" rx="35" ry="25"/><ellipse cx="139" fill="#fffde5" fill-opacity=".9" rx="36" ry="12"/><ellipse cx="111" cy="115" fill="#a5b0b1" fill-opacity=".5" rx="42" ry="10"/><path fill="#e5edf0" fill-opacity=".6" d="M82.2 16l22.9 29.9 2.2 41.7-15.5-28.3z"/><ellipse cx="110" cy="13" fill="#060000" fill-opacity=".6" rx="5" ry="119"/><circle r="1" fill="#000004" fill-opacity=".7" transform="matrix(-75.96924 12.03235 -2.4979 -15.77114 146.9 87.6)"/><path fill="#f4fcff" fill-opacity=".6" d="M113.6 40.4l50.9-9-33.2 22.4-1.9 29.3z"/><circle r="1" fill-opacity=".5" transform="matrix(.35664 2.65954 -34.1846 4.5841 104.9 37.6)"/><path fill="#824620" fill-opacity=".5" d="M76 118h128v30H76z"/><path fill="#52260d" fill-opacity=".7" d="M42.1-16l20.4 43.4 105.8-12-47-3.6z"/><path fill-opacity=".5" d="M116 34l47.7-5 .3 3-47.7 5z"/><path fill-opacity=".6" d="M191 107l-48-5-12-55z"/><path fill="#cee1e7" fill-opacity=".5" d="M112 107h48v11h-48z"/><circle r="1" fill="#c06a3a" fill-opacity=".4" transform="matrix(34.67299 -13.17196 3.84545 10.12252 198.1 0)"/><circle r="1" fill="#fff" fill-opacity=".6" transform="rotate(81.5 52.5 91.7) scale(5.79132 19.43121)"/><path fill="#fff" fill-opacity=".5" d="M156 39l4 36-26-39z"/><ellipse cx="135" fill="#fffff6" fill-opacity=".8" rx="32" ry="9"/><path fill="#dedad3" fill-opacity=".5" d="M110 101L86 43l19 1z"/><path fill="#b3d0d9" fill-opacity=".5" d="M75 121h22v6H75z"/><path fill="#010000" fill-opacity=".8" d="M229.9 185L153.8 31.9l7.5-11.1L271-.2z"/><circle r="1" fill="#271003" fill-opacity=".6" transform="matrix(16.43948 -71.40892 4.79877 1.10475 97 157.9)"/><path fill-opacity=".5" d="M12 22h65v111H12z"/><ellipse cx="91" cy="114" fill="#f1ffff" fill-opacity=".5" rx="14" ry="3"/><path fill="#110f0e" d="M74.2 37.5l30.8-1.9 10 6.4-27.7-.4z"/><path fill="#8c491e" fill-opacity=".3" d="M147.1 139.7l32.8 26.9 51.6-25.7-124.8-25.6z"/><path fill="#141311" fill-opacity=".8" d="M166 71l-14 7 2 41z"/><path fill="#050607" fill-opacity=".7" d="M119.3 106.1l-34.2-2 72.1-38.5-22.7-8.3z"/><path fill="#020000" fill-opacity=".5" d="M40 161l60-80-17-48z"/><path fill="#b6b0ad" fill-opacity=".6" d="M157 55h3v34h-3z"/><path fill="#fff" fill-opacity=".3" d="M120.4 18.8l-2.1 53.7 18.7-7.8-25-40.4z"/><path fill="#fff" fill-opacity=".5" d="M115 37h34v14h-34z"/><circle r="1" fill="#f7fdff" fill-opacity=".9" transform="matrix(6.17254 .77466 -.57097 4.5495 97 29.2)"/><path fill-opacity=".5" d="M133 50h7v26h-7z"/><ellipse cx="110" cy="55" fill="#050100" fill-opacity=".7" rx="4" ry="35"/><path fill="#fff" fill-opacity=".5" d="M92 42h13v14H92z"/><circle r="1" fill="#ffd8ae" fill-opacity=".4" transform="matrix(-15.71688 15.17762 -11.63283 -12.04615 140.5 162.6)"/><path fill-opacity=".4" d="M45 117h89v4H45z"/><circle cx="94" cy="148" r="24" fill="#471d05" fill-opacity=".3"/><path fill="#f58b37" fill-opacity=".3" d="M110.5 19.6L99.4-2.8l31.3 13.7 68.4-4.3z"/><path fill="#b7a592" fill-opacity=".4" d="M7.3 95.3l2.9 1 1 11.4-1.8 6.9z"/><path fill-opacity=".6" d="M110 35.3l51.8-4.6.2 2-51.8 4.6z"/><path fill="#260f00" fill-opacity=".6" d="M231 143l-46 31 3-60z"/><path fill="#b7744c" fill-opacity=".3" d="M130.4 122.3l-31 54.6 54.1-44.8 16-9.6z"/><path fill="#fbffff" fill-opacity=".5" d="M142 37h10v24h-10z"/><circle cx="88" cy="28" r="6" fill="#fbffff" fill-opacity=".5"/><path fill="#a7b6ba" fill-opacity=".6" d="M103 116l-25-7 22-1z"/><path fill-opacity=".5" d="M117.3 63l-12.9-21.4 4.3-2.6 12.9 21.4z"/><path fill="#c3916b" fill-opacity=".6" d="M106 166h76v4h-76z"/><path fill="#050102" fill-opacity=".6" d="M53.3 55.7l25.3-14 28.1 50.6-25.3 14z"/><ellipse cx="135" cy="27" fill="#fff" fill-opacity=".6" rx="22" ry="4"/><path fill="#67727a" fill-opacity=".5" d="M114.3 112l-3.6-7.8 13.4.4 33.1 2.2z"/><path fill="#e8ebe9" fill-opacity=".4" d="M116 111h34v7h-34z"/><path fill="#000002" fill-opacity=".3" d="M159 26h87v98h-87z"/><path fill="#fff" fill-opacity=".5" d="M104 25l3 9-23-1z"/><path fill="#f9feff" fill-opacity=".6" d="M113 23h14v10h-14z"/><circle r="1" fill="#623623" fill-opacity=".5" transform="matrix(-.6735 7.41942 -18.8664 -1.7126 106.6 15.4)"/><path fill="#ccbcae" fill-opacity=".5" d="M116.9 70.6l6.5-12.4 9.7 5.2-6.5 12.4z"/><path fill="#2e1505" fill-opacity=".5" d="M44 0h42v23H44z"/><circle cy="169" r="58" fill-opacity=".8"/><path fill="#dde5e2" fill-opacity=".5" d="M135.9 86.6l-2-.5 2.2-8.7 2 .5z"/><path fill="#030202" fill-opacity=".8" d="M162.9 101.2l-62.6 4.6 38.1-8.4-4.4-42.9z"/><path fill="#0c0606" fill-opacity=".4" d="M178.6 62.9l-10.9 44.4-13.4-86.2 16.5-12.2z"/></g></svg>