<svg xmlns="http://www.w3.org/2000/svg" viewBox="0 0 300 199"><defs/><path fill="#594338" d="M0 0h300v199H0z"/><g transform="translate(.6 .6) scale(1.17188)"><circle r="1" fill="#eac39e" fill-opacity=".7" transform="matrix(55.99097 -31.16418 23.10313 41.50814 161 151.8)"/><circle r="1" fill="#010c11" fill-opacity=".7" transform="rotate(-56.5 145 -190.5) scale(53.97826 70.19409)"/><ellipse cx="135" cy="6" fill="#fcf6e7" fill-opacity=".9" rx="24" ry="8"/><circle r="1" fill="#0b6aa2" fill-opacity=".4" transform="rotate(96.4 0 33.3) scale(75.92511 37.4186)"/><ellipse cx="196" cy="31" fill="#fff" fill-opacity=".6" rx="16" ry="5"/><path fill="#e7b892" fill-opacity=".5" d="M63 52l65-4-62 49z"/><circle r="1" fill="#0c1013" fill-opacity=".8" transform="rotate(112.1 63.3 80.4) scale(33.46354 19.53043)"/><circle r="1" fill="#fff3cd" fill-opacity=".4" transform="matrix(10.78685 .8894 -7.19272 87.23447 194.6 169)"/><path fill="#b4a57d" fill-opacity=".6" d="M243 109l-33 13-23-50z"/><circle r="1" fill="#003f65" fill-opacity=".4" transform="matrix(41.81754 27.67843 -9.44742 14.2735 113.3 27.8)"/><circle r="1" fill="#8f6f53" fill-opacity=".6" transform="matrix(-8.22572 -20.35625 31.6735 -12.79888 138.7 109.5)"/><circle r="1" fill="#1c0d00" fill-opacity=".3" transform="matrix(-44.72812 9.24794 -5.64134 -27.2846 255 141.6)"/><path fill="#b79c83" fill-opacity=".6" d="M72.3 64.7l25.2 48-35.1-16.8 11.3-27.7z"/><ellipse cx="230" cy="71" fill="#070d0f" fill-opacity=".6" rx="34" ry="27"/><path fill="#170000" fill-opacity=".5" d="M102 52L91-8 76 21z"/><path fill="#fff" fill-opacity=".5" d="M236 110l-15-9 22 2z"/><circle r="1" fill="#e9d885" fill-opacity=".4" transform="matrix(-37.9074 9.88074 -.82974 -3.18329 173 82.7)"/><circle cx="102" cy="87" r="16" fill="#341000" fill-opacity=".6"/><circle r="1" fill="#835d42" fill-opacity=".5" transform="matrix(15.61906 9.19178 -18.49159 31.42167 92.3 155.4)"/><path fill="#ffffe5" fill-opacity=".5" d="M104 49h12v13h-12z"/><ellipse cx="181" cy="97" fill-opacity=".5" rx="18" ry="5"/><ellipse cx="14" cy="27" fill="#0a171f" fill-opacity=".6" rx="3" ry="94"/><path fill="#020b0f" fill-opacity=".6" d="M54 0h6v95h-6z"/><circle r="1" fill="#d9b796" fill-opacity=".5" transform="rotate(68.4 -43 170.1) scale(35.19915 13.7548)"/><path fill="#375d74" fill-opacity=".4" d="M98 19l62-9-28 68z"/><ellipse cx="165" cy="155" fill="#7f6048" fill-opacity=".3" rx="12" ry="58"/><ellipse cx="35" cy="64" fill="#6fbce9" fill-opacity=".1" rx="18" ry="40"/><ellipse cx="197" cy="30" fill="#fff" fill-opacity=".7" rx="10" ry="4"/><circle r="1" fill="#090f13" fill-opacity=".6" transform="matrix(42.82194 15.92534 -11.6851 31.4203 248.2 71)"/><path fill="#602401" fill-opacity=".4" d="M62.1 52.5l11.5 18.7 26.6-38.5-9.4-6.8z"/><path fill="#444b50" fill-opacity=".5" d="M161.6-1.4l28 32.9L202.7-16l-81 70.2z"/><ellipse cx="219" cy="158" fill="#8b654a" fill-opacity=".5" rx="11" ry="56"/><path fill="#020a1a" fill-opacity=".3" d="M175.5 28.2l-24.1-10.5-27.3 80 14 6.8z"/><circle r="1" fill="#000509" fill-opacity=".6" transform="matrix(23.87218 -2.69956 3.685 32.5864 230.3 8.7)"/><path fill="#a3aaac" fill-opacity=".4" d="M66.6 24.4l-1.3 13 15.9 2-6.5-19z"/><circle r="1" fill="#fdd7b8" fill-opacity=".4" transform="matrix(-3.51596 -31.87582 9.60464 -1.0594 190.4 140.2)"/><path fill="#fbf8eb" fill-opacity=".5" d="M134.9 14.7L158.8 2 110.7-9.7l-.3 20.6z"/><path fill="#875a3d" fill-opacity=".8" d="M83.9 58L130 73.2l-21.6 2.2-3.4 7.9z"/><path fill="#4f4221" fill-opacity=".7" d="M197.1 81.9l-71.2 24 81.8-18.8L194 34.7z"/><ellipse cx="19" cy="135" fill="#4c413b" fill-opacity=".7" rx="50" ry="34"/><path fill="#fbb96c" fill-opacity=".2" d="M124.3 46.1l-6.7 24.1-1.5 54 9.2-59.7z"/><path fill="#3d708e" fill-opacity=".4" d="M62.5 27.5l4.1 71.1-45.2 4.7 38.2-28.8z"/><path fill="#bf8565" fill-opacity=".4" d="M167.2 23.6l-18.5-10.4L155.1 2l4.8 3z"/><path fill="#2d0b00" fill-opacity=".4" d="M92.6 133.7l1.8-52 15 .6-1.8 52z"/><path fill="#ffffc9" fill-opacity=".4" d="M183 76h14v6h-14z"/><path fill="#9a693f" fill-opacity=".7" d="M86.2 118.6l18.8-13.9-11.2.3L78 53.2z"/><circle r="1" fill="#221e1b" fill-opacity=".6" transform="matrix(12.0359 -112.62281 7.26781 .7767 254.9 113)"/><path fill="#ddbb9f" fill-opacity=".5" d="M197 117l-29-18 50 9z"/><path fill="#756643" d="M199.9 109l1.7-3.7 20.1-1.4-10.8-15z"/><path fill="#271e19" fill-opacity=".5" d="M170 35h37v40h-37z"/><path fill-opacity=".5" d="M207 33h18v57h-18z"/><path fill="#e9ff8f" fill-opacity=".2" d="M155.7 96.8l17.4-6-4.2-17.5-7.1 11.6z"/><path fill="#264960" fill-opacity=".6" d="M126 52h15v35h-15z"/><circle cx="73" cy="45" r="5" fill-opacity=".6"/><path fill="#c8bca5" fill-opacity=".4" d="M71 68.2l4.9 36.3 11-9.5-10.7-20.7z"/><path fill="#6b6c65" fill-opacity=".5" d="M183 25h19v3h-19z"/><path fill="#fdcf98" fill-opacity=".3" d="M98.9 57.2l.4 15.5 24.6-21.1-34.4-1.5z"/><path fill="#43001a" fill-opacity=".4" d="M74.8 73.3l27.8-19.5.6.9-27.8 19.5z"/><path fill="#fffef4" fill-opacity=".5" d="M195.8 95.8l-.5-4 13-1.6.4 4z"/><path fill="#7b5847" fill-opacity=".7" d="M91.8 111.4l-35.4 7 9.5-17.8 8-2.5z"/><path fill="#030000" fill-opacity=".5" d="M91 12l-18-2 28 28z"/><path fill="#796b16" fill-opacity=".5" d="M175 81h22v9h-22z"/><path fill="#a4baaf" fill-opacity=".6" d="M190 15l4-13 1 7z"/><path fill="#48270c" fill-opacity=".3" d="M119.1 89.1L95.3 60.8l25.2 13.7 11.9 8.6z"/><path fill="#000604" fill-opacity=".5" d="M180 13h41v10h-41z"/></g></svg>