<svg xmlns="http://www.w3.org/2000/svg" viewBox="0 0 298 450"><defs/><path fill="#4a4b4b" d="M0 0h298v450H0z"/><g transform="translate(.9 .9) scale(1.75781)"><circle r="1" fill="#fdfcfc" fill-opacity=".7" transform="matrix(52.67823 11.7384 -17.62494 79.09518 36.2 223)"/><path fill="#c0bfbf" fill-opacity=".7" d="M117 21L49 154l89-10z"/><circle r="1" fill="#010101" fill-opacity=".7" transform="matrix(35.32452 -46.87722 39.0632 29.43623 142 237.3)"/><path fill-opacity=".7" d="M182.2-10.4l11.2 91.3-61.6 7.5-11.2-91.3z"/><circle r="1" fill="#0d0d0d" fill-opacity=".8" transform="matrix(27.60667 17.18364 -85.09064 136.70383 26.4 20.6)"/><path fill="#faf9f9" fill-opacity=".5" d="M27 69h19v47H27z"/><ellipse cx="98" cy="164" fill="#060606" fill-opacity=".5" rx="16" ry="39"/><circle r="1" fill="#878787" fill-opacity=".8" transform="matrix(12.13025 -.39215 1.82888 56.5728 50.8 171)"/><circle r="1" fill="#cdcccc" fill-opacity=".5" transform="matrix(10.8917 -9.94886 22.91616 25.08792 93.7 52)"/><ellipse cx="122" cy="115" fill="#fafbfb" fill-opacity=".6" rx="9" ry="47"/><ellipse cx="74" cy="150" fill="#dcdcdc" fill-opacity=".9" rx="8" ry="38"/><path fill-opacity=".4" d="M96.9 75.9l-2.7 38.7-44.8.6-12.7-23.6z"/><circle r="1" fill="#fff" fill-opacity=".5" transform="matrix(-42.0106 -1.85252 .82775 -18.77142 49.4 255)"/><path fill="#fff" fill-opacity=".7" d="M170 149l-11 28 26-10z"/><circle r="1" fill="#838383" fill-opacity=".7" transform="matrix(50.14557 -5.53612 1.67986 15.21601 18.7 159.9)"/><circle r="1" fill="#fbfbfb" fill-opacity=".7" transform="matrix(-17.3679 21.93031 -13.85576 -10.97319 19.9 204.2)"/><circle r="1" fill="#100f0f" fill-opacity=".5" transform="rotate(-87.7 149 -8.4) scale(42.09423 16.37885)"/><circle r="1" fill="#020101" fill-opacity=".5" transform="matrix(-14.67847 12.40402 -14.62973 -17.3123 16.5 120.4)"/><path fill="#1b1b1b" fill-opacity=".7" d="M138-16L3-12l112 45z"/><ellipse cx="104" cy="192" fill="#2f2f2f" fill-opacity=".9" rx="18" ry="28"/><path fill="#cbcaca" fill-opacity=".4" d="M24 101l80-44-83 19z"/><path fill="#b0b0b0" fill-opacity=".6" d="M129 182l-36-81 48 52z"/><path fill="#8e8e8e" d="M84.7 237.9l-57.1-13.8 14.5-14.5 24.1 28.7z"/><path fill="#cdcdcd" fill-opacity=".8" d="M79 140l22.2-20.4-34-4.5-7.9 14.1z"/><path fill-opacity=".7" d="M98 150l-5-15 17-23z"/><path fill="#dedede" fill-opacity=".6" d="M153 119h5v24h-5z"/><path fill="#232323" fill-opacity=".8" d="M88.6 52.9L5 34.9l19.1 38.6L45.5 66z"/><path fill="#202020" fill-opacity=".9" d="M185 161.2l-21.8-56.1-9.8 48.1 31.6 5.9z"/><path fill="#141414" fill-opacity=".7" d="M102.1 172.3l33.6 64.8-15.3-78.6-25.5-31.2z"/><circle r="1" fill="#fcfcfc" fill-opacity=".5" transform="matrix(3.08434 -11.92624 49.0082 12.67438 42.9 244.6)"/><path fill="#0f0e0e" fill-opacity=".6" d="M148 154l-24-91 25-79z"/><path fill="#a3a3a3" fill-opacity=".7" d="M84.4 73.5l35 21.5 7.1-60.1-39.7 5.8z"/><path fill="#fff" fill-opacity=".3" d="M173.5 117.8l-7.1-19.9 18.6 2.7-40.7-7.5z"/><path fill-opacity=".5" d="M48.5 84.3l-.9 35.8 20-3.9-5.8-33z"/><path fill="#5c5c5c" fill-opacity=".5" d="M78.8 123.6l36.1-36.9-59.2-32.5 11.6 24.4z"/><path fill="#fff" fill-opacity=".4" d="M106.2 108.6l22.1 10.3 1.4-40.9L64 147.5z"/><path fill="#e4e4e4" fill-opacity=".5" d="M83.6 174.4l8.7 54.6-15.7 30-11.5-115.8z"/><path fill="#a4a4a4" fill-opacity=".7" d="M15 155.3l-4.9 37.6-12.6-57.3-13.5-35z"/><path fill="#474747" fill-opacity=".9" d="M87 128.9l-5.3 19.8 5.4 48.8 25.5 19.6z"/><path fill="#242424" d="M58.5 55l-3.6 21.2 5.3 7.6L-16-10.9z"/><path fill="#272828" fill-opacity=".5" d="M110 121L98 96l21 24z"/><path fill="#404040" fill-opacity=".6" d="M35 135l-13 33-14-29z"/><path fill="#f1f1f1" fill-opacity=".4" d="M105.1 133.3l-1.2-4.9 25.6-32.9-9 66.7z"/><path fill="#161616" fill-opacity=".5" d="M162 99l-32-5 14 64z"/><path fill="#b8b8b8" fill-opacity=".3" d="M46.7 60.3l1.2 20.3-5.1 46.6-22.5-21.3z"/><path fill="#141515" fill-opacity=".5" d="M86 92l6 22-13 7z"/><path fill="#747474" fill-opacity=".5" d="M64.8 25.7l56.7 23.1-.7-31.8-71 37.2z"/><path fill="#bbb" fill-opacity=".7" d="M44.2 61.3l1.4 4.3-11 15.9 22 3z"/><path fill="#636363" fill-opacity=".4" d="M121 197l24-17-14-77z"/><path fill="#121212" fill-opacity=".9" d="M111 197l74-27-9 64z"/><circle r="1" fill="#bebebe" fill-opacity=".5" transform="rotate(-55.1 153.5 -8.2) scale(15.01349 9.65262)"/><circle cx="152" cy="61" r="30" fill="#0d0c0c" fill-opacity=".5"/><path fill="#010101" fill-opacity=".4" d="M34 145L8 53l-24 29z"/><path fill="#9b9b9b" fill-opacity=".6" d="M42.2 166l-23-32.6L32.8 177l3.5-47.3z"/><path fill="#969797" fill-opacity=".5" d="M91.1 100l22.3-23 11.5 11-22.3 23z"/><path fill="#c6c7c7" fill-opacity=".5" d="M81.7 48.9L83.8 37l34.5 6-2.1 11.8z"/><path fill="#feffff" fill-opacity=".3" d="M87.2 137l-24.8-20 40.6 7.7-5.5-21.6z"/><path fill="#d4d4d4" fill-opacity=".9" d="M30.2 215.3l-6.8 31.3-35.9 24.4 5.5-40.5z"/><path fill="#0b0b0b" fill-opacity=".6" d="M165 236l-72-30-2 42z"/><path fill="#777" fill-opacity=".7" d="M41.9 177.9L64.7 146 61 121.9l-26.5-10z"/><ellipse cx="165" cy="109" fill="#fff" fill-opacity=".3" rx="6" ry="5"/><ellipse cx="146" cy="89" fill="#ebeaea" fill-opacity=".1" rx="15" ry="10"/><path fill="#a9a9a9" fill-opacity=".4" d="M73.4 130.3l-9.5 109.2L46 216.8l-7.8-23.2z"/><path fill="#494949" fill-opacity=".5" d="M116.7 35.8l3.3-19.4-45.6 6.5 33 21.1z"/><path fill="#fff" fill-opacity=".5" d="M155 124h2v14h-2z"/></g></svg>