<svg xmlns="http://www.w3.org/2000/svg" viewBox="0 0 298 450"><defs/><path fill="#583c2b" d="M0 0h298v450H0z"/><g transform="translate(.9 .9) scale(1.75781)"><circle r="1" fill="#d7d4cd" fill-opacity=".7" transform="matrix(78.44943 50.25765 -43.84922 68.44621 63.7 196.1)"/><circle cx="169" cy="53" r="72" fill="#0c1800" fill-opacity=".8"/><ellipse cx="105" cy="255" fill="#111e00" fill-opacity=".6" rx="15" ry="41"/><circle r="1" fill="#efeff2" fill-opacity=".6" transform="matrix(47.14857 -10.79846 6.08124 26.5521 59 160.1)"/><circle cy="34" r="63" fill="#15120a" fill-opacity=".8"/><ellipse cx="133" cy="150" fill="#041200" fill-opacity=".6" rx="15" ry="25"/><circle r="1" fill="#cfb19e" fill-opacity=".8" transform="matrix(.57032 -20.78185 16.31734 .4478 104.7 118.4)"/><path fill="#ffc4b0" fill-opacity=".5" d="M84 91.8l-30.4-13L70 40.3l30.4 13z"/><circle r="1" fill="#d1b7a7" fill-opacity=".7" transform="matrix(-23.45828 14.319 -15.26556 -25.009 137.5 211.7)"/><circle r="1" fill="#0f0c04" fill-opacity=".7" transform="matrix(-5.77922 -22.02908 78.45975 -20.58353 83.9 16.7)"/><path fill-opacity=".6" d="M-16 174l33 70-33-17z"/><ellipse cx="169" cy="160" fill="#aeab91" fill-opacity=".6" rx="33" ry="10"/><circle r="1" fill="#a27564" fill-opacity=".5" transform="rotate(87.2 -44.6 79) scale(14.10192 44.77586)"/><circle r="1" fill="#0d0100" fill-opacity=".5" transform="rotate(-126.3 31.4 48.3) scale(34.0182 10.49853)"/><path fill="#232909" fill-opacity=".9" d="M120.5 177.3l-1.6-15.6 17.2-110.6 47.5 48z"/><circle r="1" fill="#071000" fill-opacity=".8" transform="matrix(-15.34324 -15.55898 33.6779 -33.21091 168.8 253.8)"/><ellipse cx="16" cy="134" fill="#caa38b" fill-opacity=".5" rx="107" ry="18"/><path fill="#605b3d" fill-opacity=".8" d="M81.5 213.5l78.4 9.9-62.7-10.8 55.3 58.4z"/><path fill="#0f0400" fill-opacity=".7" d="M89.8 119.3L88 95.5 63.3 83.8l-1.6 19.8z"/><circle r="1" fill="#bed1e0" fill-opacity=".3" transform="matrix(-26.49946 -86.13783 15.54145 -4.78118 25.3 198.7)"/><path fill="#5c6252" fill-opacity=".4" d="M60 209l42 52-59-25z"/><path fill="#5c4b24" fill-opacity=".6" d="M80.5 181l35 2.2 3.1 7.9-27.6 2.1z"/><path fill="#c7a28f" fill-opacity=".6" d="M77.4 142.9L53.7 83.2l-6.8 3.3 5.5 16.8z"/><path fill="#bcc0b3" d="M139.1 247L125 236.7l36.5-18.2 5.5 7.3z"/><path fill="#be8b78" fill-opacity=".5" d="M55 47h40v20H55z"/><path fill="#19220d" fill-opacity=".7" d="M114.9 51.5L85.6 73.2l3 18.5 57.8 18.7z"/><circle r="1" fill="#dfeefe" fill-opacity=".4" transform="matrix(8.68955 10.50386 -34.82334 28.80837 68.8 170.7)"/><path fill="#947d72" d="M44 271h58l51-32z"/><path fill="#639834" fill-opacity=".5" d="M155 115h15v36h-15z"/><path fill="#123d00" fill-opacity=".4" d="M185 168l-4 64-42-67z"/><circle r="1" fill="#593a2e" fill-opacity=".5" transform="matrix(3.51851 -38.33048 4.904 .45016 28.1 95)"/><path fill="#7a9f9b" fill-opacity=".5" d="M14 53L9 64 7 34z"/><path fill="#001300" fill-opacity=".5" d="M108 253l-19-37 31 23z"/><ellipse cx="116" cy="129" fill="#ad8667" fill-opacity=".6" rx="7" ry="29"/><path fill="#c5daca" fill-opacity=".5" d="M70.8 199.1L98 235.3 57.6 271l28.3-24.9z"/><path fill="#0b2200" fill-opacity=".5" d="M144.7 226.9l-2-6.7 10.6-3 2 6.6z"/><path fill="#c2b7b9" fill-opacity=".2" d="M111.4 76.9l-10-46.7-17.6 14 8.4 13.7z"/><path fill="#eeb2ce" fill-opacity=".5" d="M134.5 172l24 18-15 20-24-18z"/><path fill="#331e13" fill-opacity=".7" d="M71.8-16L48.3 91.8l7.4 31.7L36 91.7z"/><path fill="#c07755" fill-opacity=".4" d="M97 202h39v19H97z"/><circle r="1" fill="#bc9b8a" fill-opacity=".9" transform="rotate(107.2 -89.4 130.9) scale(13.34294 34.80935)"/><path fill="#0e1000" fill-opacity=".5" d="M84.8 253.3l-2.2-3.4 16.6-11.2 2.2 3.4z"/><path fill="#d2bcb5" fill-opacity=".4" d="M91 93.5l24.7 15.4-4.8 7.6-24.6-15.4z"/><path fill="#d0e0c5" fill-opacity=".5" d="M90.8 189l-1.6 23-16-1 1.6-23z"/><circle r="1" fill="#0e0d00" fill-opacity=".6" transform="rotate(-66.4 66 -100.8) scale(38.80485 72.77252)"/><path fill="#ccd9bf" fill-opacity=".5" d="M152.6 235.8l-25.9 11.3 28-41.7-46.2 30.4z"/><circle cx="14" cy="19" r="6" fill="#557e80" fill-opacity=".5"/><path fill="#120100" fill-opacity=".5" d="M28 126l3-11-20-21z"/><path fill="#89877e" fill-opacity=".5" d="M9 181l-16 28 40 9z"/><path fill="#1f1109" fill-opacity=".5" d="M90.9 120.6l-11.2-.6 12.6-30.8-35.2 4.9z"/><path fill="#0a1206" fill-opacity=".8" d="M166 181h4v71h-4z"/><path fill="#f1c7c4" fill-opacity=".5" d="M111 253h30v3h-30z"/><path fill="#84774d" fill-opacity=".4" d="M141.5 154.8l-16.7 3.9 16.4 16.6 33.5-2.7z"/><path fill="#373415" fill-opacity=".6" d="M185 161.3l-37.3 25.4 29.7 5.7-26.8 17.1z"/><path fill="#442b1e" fill-opacity=".6" d="M12.7 73.2l55.5 11.7L59 77l-1.8-12.7z"/><path fill="#1b1600" fill-opacity=".5" d="M185 228.9l-22.1 39.3-11.1-14.7-24.5-2.9z"/><path fill="#110800" fill-opacity=".4" d="M10 233.7l-4.6-8.5-4.2-24.5-8 44z"/><path fill="#dfe2e8" fill-opacity=".4" d="M108.8 155.3l7.4 27.4-18.1-6.9-114.1-8.5z"/><path fill="#090401" fill-opacity=".6" d="M-16 113l33-13 17-83z"/><path fill="#967a5d" fill-opacity=".7" d="M74.9 189.2l-16.1 29.2 16.4 7-12.1-31.3z"/><path fill="#896255" fill-opacity=".5" d="M28.9 79.7l-6 23.3 27.5 30.3.5-7.5z"/><path fill="#cdad9a" fill-opacity=".5" d="M105.4 130.1l-42.9 27.8-17.5 1 13.1-55.1z"/><path fill="#253422" fill-opacity=".6" d="M97 42h30v14H97z"/><path fill="#001800" fill-opacity=".3" d="M121 135h35v21h-35z"/><path fill="#7c634d" fill-opacity=".5" d="M145.2 192.6l13.1-8.2 12 23.5-27.9-18z"/></g></svg>