<svg xmlns="http://www.w3.org/2000/svg" viewBox="0 0 300 199"><defs/><path fill="#303855" d="M0 0h300v199H0z"/><g transform="translate(.6 .6) scale(1.17188)"><circle cx="134" cy="88" r="195" fill="#1e1203" fill-opacity=".8"/><ellipse cx="171" cy="113" fill="#fefcf5" fill-opacity=".7" rx="9" ry="27"/><circle r="1" fill="#534233" fill-opacity=".6" transform="matrix(-34.51958 80.7239 -31.54837 -13.49088 82.7 92.2)"/><circle r="1" fill="#030000" fill-opacity=".7" transform="matrix(43.24039 -5.85249 17.90216 132.26784 215.5 61.5)"/><path fill="#040000" fill-opacity=".7" d="M85.5 102.5v27h-71v-27z"/><circle r="1" fill="#517bda" fill-opacity=".4" transform="matrix(1.31592 -22.3804 7.2122 .42406 152.6 104.4)"/><circle r="1" fill-opacity=".8" transform="matrix(22.423 30.43356 -43.33464 31.92834 50.2 0)"/><path fill="#75726a" fill-opacity=".5" d="M163 125h20v34h-20z"/><ellipse cx="66" cy="141" fill="#977157" fill-opacity=".5" rx="34" ry="10"/><ellipse cx="119" cy="62" fill="#647479" fill-opacity=".5" rx="32" ry="7"/><path fill="#ffc8b9" fill-opacity=".2" d="M107.7 114.2L66.6 94.6l-5.1 16.8L86.7 77z"/><path fill="#0a0801" fill-opacity=".5" d="M130-57l85.7 62.4L168 70.9 82.3 8.6z"/><circle r="1" fill-opacity=".5" transform="matrix(-26.26287 -7.93652 12.26202 -40.57645 135 159.8)"/><path fill="#faffff" fill-opacity=".4" d="M153.3 99.4l18 7.9h13.2l-10.4-13.5z"/><circle r="1" fill="#a28566" fill-opacity=".4" transform="matrix(-5.83245 1.33978 -6.94743 -30.24426 96.6 162.7)"/><path fill="#a8ad9f" fill-opacity=".6" d="M85 26h24v4H85z"/><path fill="#6e5855" fill-opacity=".4" d="M37.1 145.3L4.9 112.2-16 149.9l23.2-10z"/><circle cx="191" cy="81" r="21" fill="#181508" fill-opacity=".7"/><path fill="#fae3ca" fill-opacity=".3" d="M81.1 107.8L79 103l6.3-11.4 14.9-11.2z"/><path fill="#030101" fill-opacity=".9" d="M-16 156l35 27 23-34z"/><ellipse cx="171" cy="106" fill="#fffff5" fill-opacity=".5" rx="6" ry="17"/><path fill="#010103" fill-opacity=".7" d="M146.2 100.1L111.7 119 106 85.2l38.3 40.4z"/><path fill="#606383" fill-opacity=".4" d="M131.6 86.6l21.6 22.3 22-27.2L123 99.8z"/><ellipse cx="46" cy="118" fill-opacity=".3" rx="26" ry="23"/><path fill="#ffecaf" fill-opacity=".5" d="M122 21h6v4h-6z"/><ellipse cx="54" cy="84" fill="#4b382a" fill-opacity=".7" rx="39" ry="6"/><path fill="#351f14" fill-opacity=".7" d="M100.6 142.4l3.4-32-30.6-10.8-5 10.3z"/><path fill="#000c31" fill-opacity=".5" d="M156 105h8v20h-8z"/><path fill="#ffbead" fill-opacity=".2" d="M111.3 121.1l-1.4-24.2-12.7 3.7-1.6 7.7z"/><path fill="#312d1b" fill-opacity=".7" d="M44 49l46 37-2-67z"/><path fill="#f5c898" fill-opacity=".5" d="M91 13h3v9h-3z"/><circle r="1" fill="#0a0602" fill-opacity=".7" transform="matrix(-121.31934 -51.497 19.86385 -46.7963 254.9 41.9)"/><path fill="#b4b7b3" fill-opacity=".4" d="M133 110l-4 5-7-3z"/><path fill="#2a2e21" fill-opacity=".6" d="M78.7 40l82.7 28.7L142.6 27 36.5 71.2z"/><path fill="#662c09" fill-opacity=".5" d="M228 9h14v10h-14z"/><ellipse cx="124" cy="75" fill="#3c0d00" fill-opacity=".4" rx="60" ry="7"/><path fill="#ad733d" fill-opacity=".5" d="M149 82h10v9h-10z"/><ellipse cx="190" cy="161" fill="#411f05" fill-opacity=".3" rx="35" ry="16"/><path fill="#916a50" fill-opacity=".5" d="M76.9 147.6l13.7-14.9-15.5 1.3-27.1-3.3z"/><path fill="#7d7b77" fill-opacity=".5" d="M181 118l-6 33-12-18z"/><path fill="#9edbfb" fill-opacity=".1" d="M91.3 21.7l.1 19.1 20.3-13.5.2 14.8z"/><path fill="#311800" fill-opacity=".3" d="M88.3 175.4l8.9-23.8-46.4 1.7L65.7 134z"/><path fill="#797163" fill-opacity=".3" d="M58.4 145.9L23.8 185l23.4-43.1-61.7 11.8z"/><path fill="#2f2412" fill-opacity=".5" d="M178 118l12-63 4 49z"/><ellipse cx="93" cy="106" fill="#29180c" fill-opacity=".5" rx="3" ry="10"/><path fill="#725941" fill-opacity=".3" d="M119.1 17l-6.4 4.3 16.6 1.9 12.4-12.5z"/><ellipse cx="60" cy="67" fill="#7a4c39" fill-opacity=".6" rx="2" ry="27"/><path fill="#1e1711" fill-opacity=".6" d="M150.3 51.6l6.9 43.3 10.8-4.6 13.1-56.1z"/><path fill="#0c0702" fill-opacity=".5" d="M11 95h37v36H11z"/><path fill="#0f0604" fill-opacity=".6" d="M66.5 103.7l-7.1-9.9L7.9 126l34.6 10.7z"/><circle r="1" fill="#e2d6cb" fill-opacity=".5" transform="matrix(3.00309 -3.34423 8.27432 7.43027 172.7 99.2)"/><path fill="#85665a" fill-opacity=".5" d="M123 81l-7 11-9-5z"/><path fill="#1a0e00" fill-opacity=".5" d="M102.8 151.2l-19.7-2.8 5.4 36.6-26.6-18.9z"/><ellipse cx="93" cy="140" fill="#a79f99" fill-opacity=".5" rx="3" ry="7"/><path fill="#381d04" fill-opacity=".5" d="M188 30l28 1-30-16z"/><path fill="#4f76bb" fill-opacity=".4" d="M140.2 90.3l1.5 3.7 28.2 15.6-14.8-16.1z"/><path fill="#3b3631" fill-opacity=".8" d="M66.5 60.1l34.4-9.1-26.4 53.5 21-31.6z"/><path fill="#825a41" fill-opacity=".6" d="M61 88.8L49.9 100 47 97.1 58.2 86z"/><path fill="#070603" d="M153.2 30.3l-34.3-.2 8.9-6.6L199.1-16z"/><circle cx="85" cy="99" r="3" fill="#e6eef8" fill-opacity=".5"/><path fill="#625045" fill-opacity=".9" d="M16 118.8l-5.7 4.5-26.3 10.4 20.4-12.1z"/><path fill="#ebeceb" fill-opacity=".5" d="M237 51.7l2.5 1.8-.6.8-2.4-1.8z"/><path fill="#653c2f" fill-opacity=".5" d="M164 80h6v11h-6z"/><path fill="#1a326d" fill-opacity=".4" d="M146 103h11v25h-11z"/><path fill="#090200" fill-opacity=".4" d="M179.4 105.6l4.2 35.7L271 185 250.2 78.7z"/></g></svg>