<svg xmlns="http://www.w3.org/2000/svg" viewBox="0 0 300 199"><defs/><path fill="#473458" d="M0 0h300v199H0z"/><g transform="translate(.6 .6) scale(1.17188)"><circle cx="66" cy="113" r="200" fill="#2a2001" fill-opacity=".6"/><path fill="#c8bfab" fill-opacity=".6" d="M161.3 19.3l41.8-4.4 3.6 33.8-41.8 4.4z"/><path fill="#c6b59a" fill-opacity=".4" d="M101 45h45v69h-45z"/><circle r="1" fill-opacity=".8" transform="matrix(-60.09412 -6.55273 3.53149 -32.38679 85 149)"/><circle r="1" fill-opacity=".7" transform="matrix(23.7084 -2.41949 3.60187 35.29453 77.6 83.6)"/><circle r="1" fill="#855e59" fill-opacity=".5" transform="matrix(5.40597 -22.25361 42.8423 10.40748 174.6 126.6)"/><circle r="1" fill="#917cb9" fill-opacity=".4" transform="matrix(7.93163 11.71497 -54.84828 37.13508 5.3 132.7)"/><circle cx="252" cy="24" r="7" fill="#fff6c9" fill-opacity=".7"/><circle r="1" fill="#181004" fill-opacity=".5" transform="matrix(2.12697 26.4045 -83.46468 6.72334 204.3 77.3)"/><path fill="#feebd1" fill-opacity=".5" d="M115.2 70.2L111 57l21.9-7.1L137 63z"/><path fill="#080203" fill-opacity=".8" d="M-16 42L4-16l62 62z"/><ellipse cx="232" cy="109" fill="#1b0f0a" rx="28" ry="20"/><path fill="#9b929a" fill-opacity=".6" d="M243 123l-21 41 30-33z"/><path fill="#05020a" fill-opacity=".7" d="M17.1 109.3L75.4 185l-37.1-71.1-2.4-14.5z"/><path fill="#8a837a" fill-opacity=".5" d="M156 18l14 60 36-72z"/><path fill="#322a0a" d="M200.6-16l13.2 110.7 22.1 7.8L243.4-16z"/><ellipse cx="48" cy="108" fill="#8371fa" fill-opacity=".4" rx="10" ry="16"/><path fill="#ac7d58" fill-opacity=".5" d="M36 76L25 50l3 62z"/><circle r="1" fill="#695844" fill-opacity=".5" transform="matrix(12.32012 -10.14043 25.03223 30.41292 119.6 15.4)"/><path fill="#020200" fill-opacity=".7" d="M257.9-16L161 17.3l-5.4 52.5-17.1-83.6z"/><circle cx="155" cy="147" r="10" fill="#736172" fill-opacity=".7"/><ellipse cx="67" cy="20" fill="#c7805c" fill-opacity=".4" rx="5" ry="32"/><path fill-opacity=".5" d="M177 53h35v50h-35z"/><ellipse cx="35" cy="53" fill="#a46227" fill-opacity=".7" rx="18" ry="4"/><path fill="#8a685f" fill-opacity=".5" d="M-6 185l-10-77 42 11z"/><ellipse cx="137" cy="72" fill="#817a55" fill-opacity=".5" rx="15" ry="11"/><path fill="#c29f95" fill-opacity=".4" d="M155 105.5l-2.5 12.7-29.5-5.7 2.5-12.7z"/><path fill="#7f4839" fill-opacity=".6" d="M237.5 80.2L226.1 73l-.9 18.5 5.9 22z"/><path fill="#513f3d" d="M3 152l6.5-26.3 17.5 4.4-6.5 26.2z"/><circle r="1" fill="#010003" fill-opacity=".5" transform="matrix(5.62186 -10.85939 18.65364 9.6569 91.4 32.3)"/><path fill="#0e0504" fill-opacity=".4" d="M123.1 97.5l-1.2 28.1-13.7-48.9L-13 5.4z"/><circle r="1" fill="#552f56" fill-opacity=".6" transform="rotate(-18.1 282.4 -775) scale(12.58424 21.26619)"/><path fill="#b18864" fill-opacity=".5" d="M126.9 77.5l-23.2-5.2-13-22.6 34.4 4.7z"/><ellipse cx="7" cy="83" fill="#2b0300" fill-opacity=".5" rx="20" ry="30"/><path fill="#4a2820" d="M169.5 132.7l5.3-47-11.3 5.4-13.2 43.8z"/><path fill="#b0ad9c" fill-opacity=".5" d="M160 36h32v16h-32z"/><path fill="#030101" fill-opacity=".8" d="M167 178l21.1 7H-16l137.2-59.1z"/><path fill="#e7fbf2" fill-opacity=".3" d="M23 132.8l-12.4-17 6.5-4.6 12.3 17z"/><path fill="#0d0005" fill-opacity=".5" d="M250.5-2.5v21h-19v-21z"/><path fill="#100000" fill-opacity=".7" d="M212 169l54-76-16-38z"/><path fill="#80737f" fill-opacity=".5" d="M199 146l-26-15 8-24z"/><path fill="#f2fcf8" fill-opacity=".3" d="M169.7 57.1l4.1 14.6-9.8 3.5 3.1 3.9z"/><path fill="#422520" fill-opacity=".9" d="M211.9 167.8l-64.3 4.7 21.3-14.5 5.4-25.7z"/><path fill="#9d7441" fill-opacity=".5" d="M194.8 100l12.9 2.1-2.5 15.8-12.9-2z"/><path fill="#080d0d" fill-opacity=".5" d="M171.7 58.3l15.5-3.7-44.6-1.1 16 35.9z"/><path fill="#7c6e64" fill-opacity=".6" d="M161 42l48-32-50 6z"/><path fill="#f3d7d2" fill-opacity=".5" d="M134.5 97.5v13h-5v-13z"/><path fill="#aeafe9" fill-opacity=".5" d="M46 106l8-17-20 18z"/><path fill="#bad7fa" fill-opacity=".1" d="M92.7 102.4l12.9 25.2 36.8-13.4-15.7 15.1z"/><ellipse cx="237" cy="26" fill="#070101" fill-opacity=".7" rx="4" ry="49"/><path fill="#200b07" fill-opacity=".7" d="M69 70.6L19 54.1l29.7 18-20.8 42z"/><path fill="#7b5eca" fill-opacity=".6" d="M254 28h2v38h-2z"/><path fill="#100b0a" fill-opacity=".5" d="M167 90l-36 7-19-18z"/><path fill="#331b57" fill-opacity=".6" d="M53 121.1l-9.3-11.8L57 99l9.2 11.8z"/><path fill="#d2e5f7" fill-opacity=".4" d="M101.6 52.9l21.5 4.7 1.4 17 10-21.6z"/><ellipse cx="207" cy="26" fill="#001603" fill-opacity=".6" rx="3" ry="29"/><path fill="#2f0000" fill-opacity=".5" d="M197 146l25 4-6 35z"/><path fill="#887f87" fill-opacity=".5" d="M240.7 133.4l-7.4 24.6-14.6 8 3.8-6.9z"/><ellipse cx="220" cy="20" fill="#444002" fill-opacity=".6" rx="10" ry="55"/><path fill="#4e4132" fill-opacity=".8" d="M66 47l35.3 8.7 48.1-43.3-8.9 35.6z"/><path fill="#76554b" fill-opacity=".9" d="M157 109.7l-18.4-4.2-3.9-7.8 70.7 24.2z"/><path fill="#51342d" fill-opacity=".7" d="M258 150h-24l27-32z"/><circle r="1" fill="#030000" fill-opacity=".5" transform="matrix(14.29083 20.38525 -25.11521 17.6067 74.4 132.3)"/><path fill="#321e1a" fill-opacity=".5" d="M136.5 84.5l-4.9 12.4 3.3-25.7-51.2 18.2z"/><path fill="#0f0b07" fill-opacity=".4" d="M62 52l1-36L-4-2z"/></g></svg>