<svg xmlns="http://www.w3.org/2000/svg" viewBox="0 0 300 199"><defs/><path fill="#544032" d="M0 0h300v199H0z"/><g transform="translate(.6 .6) scale(1.17188)"><circle r="1" fill="#eaebdd" fill-opacity=".7" transform="matrix(-55.85705 21.92304 -33.14379 -84.44605 185.8 143.7)"/><circle r="1" fill="#9a8976" fill-opacity=".8" transform="matrix(249.6171 -5.71065 1.09203 47.73369 152.8 26.6)"/><circle cx="168" cy="169" r="50" fill="#eef4f4" fill-opacity=".7"/><circle cx="91" cy="102" r="58" fill="#2d334d" fill-opacity=".5"/><ellipse cx="31" cy="69" fill="#d2c195" fill-opacity=".4" rx="15" ry="118"/><circle r="1" fill="#827966" fill-opacity=".6" transform="matrix(-23.78083 16.58974 -70.40774 -100.92714 223.7 100)"/><path fill="#ae9991" d="M77.8 50.5L125.4 16 88.7 78.4l6.1 59z"/><ellipse cx="64" cy="83" fill="#000b2c" fill-opacity=".7" rx="18" ry="39"/><circle r="1" fill="#d9d6c6" fill-opacity=".5" transform="rotate(-153.4 104.4 -21.8) scale(20.83229 32.13288)"/><path fill="#fffffd" fill-opacity=".5" d="M185 185L151 51l62 78z"/><circle r="1" fill="#140000" fill-opacity=".6" transform="matrix(13.2048 -5.70314 3.42786 7.9367 95.3 25)"/><circle r="1" fill="#bf9e61" fill-opacity=".5" transform="matrix(-13.8987 9.76817 -23.3295 -33.19453 151 102.9)"/><circle cx="141" cy="47" r="13" fill="#160000" fill-opacity=".5"/><circle r="1" fill="#fbc8b5" fill-opacity=".6" transform="matrix(4.60125 4.37329 -9.3647 9.85286 96 124.7)"/><path fill="#d8b999" fill-opacity=".5" d="M57.7 49.5L29.5 21.3l48.8-48.8L106.5.7z"/><ellipse cx="242" cy="37" fill="#3d3623" fill-opacity=".5" rx="33" ry="15"/><circle r="1" fill="#543a1d" fill-opacity=".4" transform="matrix(10.01994 53.7412 -12.54144 2.33833 177.1 38.6)"/><path fill="#00053a" fill-opacity=".5" d="M96 56h24v58H96z"/><path fill="#000920" fill-opacity=".5" d="M99 174v-48l45-19z"/><circle r="1" fill="#a29f91" fill-opacity=".8" transform="matrix(40.52182 40.44087 -14.89671 14.92653 240.8 142.6)"/><path fill="#7f8b66" fill-opacity=".7" d="M146.4 124.6l19.7-18.2-5.6 25.8-43.9 6.5z"/><path fill="#0e1939" fill-opacity=".8" d="M61.4 107.5l1.7 77.5-33.5-.6 32.3-78.5z"/><path fill="#79624b" fill-opacity=".9" d="M75.7 185L63 127.8l25.2 14 17.5 3.4z"/><path fill="#c9a685" fill-opacity=".6" d="M150.3 14.8l-18.9 23.3-35.7-29L114.6-14z"/><path fill="#021a00" fill-opacity=".5" d="M10 47l-7 76-19-106z"/><ellipse cx="200" cy="47" fill="#b1ac9e" fill-opacity=".7" rx="10" ry="51"/><path fill="#000317" fill-opacity=".7" d="M62.3 103.2L79 92l16.8 24.8L79 128z"/><path fill="#fbffff" fill-opacity=".4" d="M88 94l6-28-17-20z"/><circle r="1" fill="#5d5646" fill-opacity=".8" transform="matrix(28.65425 7.38371 -7.2358 28.08027 250 86.5)"/><ellipse cx="228" cy="4" fill="#b3ab99" fill-opacity=".7" rx="44" ry="20"/><path fill="#e9f1ee" fill-opacity=".4" d="M193.2 104.8l-11.7 12 48.5-6.1 5.7-8.4z"/><circle r="1" fill="#ffc1a7" fill-opacity=".5" transform="rotate(-123.3 94 -2.9) scale(29.35162 5.06002)"/><path fill="#6e664e" fill-opacity=".6" d="M54 122L6 185 17 76z"/><circle r="1" fill="#9e8a6f" fill-opacity=".6" transform="rotate(-7.7 497.7 -164.5) scale(22.41967 21.26874)"/><ellipse cx="187" cy="169" fill="#fafeff" fill-opacity=".7" rx="28" ry="35"/><path fill="#c5c8c8" fill-opacity=".6" d="M151 141.8l-12.3 38-23.8-7.6 12.4-38z"/><ellipse cx="39" cy="13" fill="#b49c80" fill-opacity=".6" rx="46" ry="38"/><path fill="#dcac87" fill-opacity=".5" d="M98 28h30v21H98z"/><path fill="#132208" fill-opacity=".5" d="M-17 91.2l15-21.3 27 19L10 110z"/><circle r="1" fill="#f6fff1" fill-opacity=".5" transform="matrix(2.61457 -.01523 .07153 12.28135 217.2 88)"/><path fill="#222117" fill-opacity=".4" d="M229.1 90.2l17.8 31.1-27.1-28 3.9-41.5z"/><path fill="#161005" fill-opacity=".5" d="M223 111l1.7 7.9-9.8 2-1.6-7.8z"/><path fill="#c8c0a4" fill-opacity=".5" d="M136 75l-17-22 6 23z"/><path fill="#6b543a" fill-opacity=".5" d="M151 47l41 50-10-107z"/><path fill="#e49889" fill-opacity=".5" d="M60 134l21 19-12-26z"/><path fill="#dde2de" fill-opacity=".5" d="M236 104l-1-10 12 12z"/><path fill="#071d50" fill-opacity=".6" d="M126 140.5l-19.5 46-16.6-7 19.6-46z"/><ellipse cx="65" cy="99" fill="#0b132d" fill-opacity=".5" rx="21" ry="30"/><path fill="#291305" fill-opacity=".5" d="M103.8 23l3.4-2 7 12-3.4 2z"/><path fill="#717c1f" fill-opacity=".6" d="M129 112l11 13 19-31z"/><path fill="#000406" fill-opacity=".3" d="M229.8 119.8l4.2-19.2 19.1 18.2L271 92.6z"/><circle r="1" fill="#766751" fill-opacity=".8" transform="matrix(-21.80239 -6.37067 5.27934 -18.06755 234.2 53.6)"/><path fill="#1c0c00" fill-opacity=".5" d="M151.7 46.5L138.5 33 126 72.1l.8-24.1z"/><path fill="#fdfdfc" fill-opacity=".6" d="M177 78l28 58-38-44z"/><path fill="#85846f" fill-opacity=".5" d="M0 150h39v20H0z"/><path fill="#18100e" fill-opacity=".5" d="M105.2 17.8l-17.8-2-7.7 21.8-36.4 38.6z"/><path fill="#d9c7ba" fill-opacity=".8" d="M163.9 102.9l16-1.7 2.2 21.9-16 1.7z"/><path fill="#112900" fill-opacity=".5" d="M160 119l-10 15 7-22z"/><path fill="#1d1b0e" fill-opacity=".5" d="M188 95l17 6-17 1z"/><path fill="#86412c" fill-opacity=".5" d="M132 92l13-14-14-28z"/><ellipse cx="113" cy="85" fill="#0e1b3c" fill-opacity=".6" rx="10" ry="36"/><path fill="#d4d9c4" fill-opacity=".5" d="M157.8 146.1l35.4-20.5-56.7 3 17.4-13z"/><path fill="#e6a783" fill-opacity=".3" d="M134.7 114.8l45.7-45.6-50.9 21.1-2.3 15.3z"/><path fill="#372316" fill-opacity=".9" d="M99 26l-13.4-6 5.3 17 2.3 6.1z"/><path fill="#322f22" fill-opacity=".4" d="M213 24h43v9h-43z"/></g></svg>