<svg xmlns="http://www.w3.org/2000/svg" viewBox="0 0 298 450"><defs/><path fill="#683d35" d="M0 0h298v450H0z"/><g transform="translate(.9 .9) scale(1.75781)"><path fill="#d6dade" fill-opacity=".6" d="M87-10l98 264-201 5z"/><circle r="1" fill-opacity=".7" transform="rotate(101 -.8 27.8) scale(95.88581 30.93634)"/><circle r="1" fill="#7c6c71" fill-opacity=".8" transform="matrix(-58.8409 -158.42585 35.33196 -13.12263 146.1 75.4)"/><circle r="1" fill="#000003" fill-opacity=".5" transform="matrix(-31.95344 34.87106 -11.11673 -10.1866 108.4 52.7)"/><circle r="1" fill="#c9c8cc" fill-opacity=".6" transform="rotate(85.2 -54 140.7) scale(96.77002 45.63183)"/><circle r="1" fill="#96807c" transform="matrix(1.99475 77.87401 -25.39037 .65038 16.1 207.3)"/><circle r="1" fill="#a3cae5" fill-opacity=".6" transform="matrix(-15.87892 -20.25114 14.98056 -11.74626 106.5 5.2)"/><path fill="#442b2c" d="M166.3 12.5L122.8-.3l18.1 31.5 12 71.1z"/><path fill="#f5e6f3" fill-opacity=".5" d="M146.6 48.8l-4.3 40.8-22.9-2.4 4.3-40.8z"/><ellipse cx="169" cy="174" fill="#8e6d66" fill-opacity=".9" rx="29" ry="83"/><path fill="#5d392b" fill-opacity=".8" d="M38.5 74l74 18.2-74.7-47.9L83.1 16z"/><path fill="#ca9683" fill-opacity=".7" d="M59 35h39v33H59z"/><path fill="#dbe6ff" fill-opacity=".6" d="M181 76.1l-17.5 4L157 52l17.5-4z"/><ellipse cx="59" cy="163" fill="#ced6e0" fill-opacity=".6" rx="39" ry="17"/><path fill="#001" fill-opacity=".6" d="M99 33h24v38H99z"/><path fill="#0b0600" fill-opacity=".4" d="M50 140L4-15l-20 125z"/><circle r="1" fill="#db977c" fill-opacity=".4" transform="rotate(130 43.9 83.6) scale(20.00058 39.16051)"/><path fill-opacity=".6" d="M185 157v45l-30-62z"/><path fill="#ebac8c" fill-opacity=".4" d="M46 148l2-83 77 52z"/><path fill="#686168" fill-opacity=".9" d="M30.6 227.8L8.9 150.2l38.3 92-13.6 19.4z"/><path fill="#17030f" fill-opacity=".5" d="M153.9 23.5l-14.8 51.2 22 22.8-2.3-31z"/><ellipse cx="117" cy="146" fill="#fcffff" fill-opacity=".3" rx="36" ry="16"/><circle r="1" fill="#9097a4" fill-opacity=".5" transform="rotate(159.2 8.3 108.6) scale(25.82963 33.3851)"/><path fill="#00000e" fill-opacity=".6" d="M165 84h5v25h-5z"/><path fill="#2a241e" fill-opacity=".6" d="M8 0h71v33H8z"/><path fill="#e4f2ff" fill-opacity=".5" d="M158.3 35.8L163 27l16.6 9.2L175 45z"/><path fill="#926b5a" fill-opacity=".5" d="M58 78l-27 78-10-26z"/><circle cx="143" cy="164" r="23" fill="#ad938e" fill-opacity=".4"/><path fill="#c9a092" fill-opacity=".8" d="M65.9 52.1L74.1 36l24.2-18.6-5 61.5z"/><path fill="#341108" fill-opacity=".5" d="M35 55l34 28 35-1z"/><ellipse cx="110" cy="234" fill="#b0b7c4" fill-opacity=".6" rx="35" ry="84"/><ellipse cx="110" cy="101" fill="#d4c0b5" fill-opacity=".7" rx="7" ry="30"/><path fill="#4b140c" fill-opacity=".5" d="M124.3 111.9l31.8 15.6-15.3-13.3-12-2.6z"/><path fill="#011125" fill-opacity=".4" d="M88.2 38l52-21.6-29.9 60-18.8-40.1z"/><path fill="#81a6fa" fill-opacity=".3" d="M132 19l12 13-11 40z"/><path fill="#b8b8d4" fill-opacity=".6" d="M160 51h7v40h-7z"/><path fill="#18151c" fill-opacity=".7" d="M91.6 72.7L88 66.6l15.5 15 35.6-76.9z"/><circle r="1" fill="#060503" fill-opacity=".6" transform="rotate(-175.3 11.7 20.5) scale(25.97935 24.19277)"/><circle r="1" fill="#c79a8b" fill-opacity=".5" transform="matrix(8.89686 -3.45143 17.5509 45.2415 7.2 192.4)"/><circle r="1" fill="#020008" fill-opacity=".5" transform="matrix(10.98814 -6.57303 3.92994 6.56968 153 47)"/><path fill="#0e0a0c" fill-opacity=".5" d="M147 228l8 1-11-28z"/><path fill="#8a4a2c" fill-opacity=".4" d="M-12.8 121.3L25.6 198l-12.9-47.7-2.2-15.8z"/><path fill="#340100" fill-opacity=".6" d="M136.2 104.2l-.3 1-22.1-9.4.3-1z"/><circle r="1" fill="#985945" fill-opacity=".5" transform="matrix(8.02459 5.474 -12.1938 17.87544 158.3 9)"/><path fill="#e7c1af" fill-opacity=".5" d="M78.8 24.7L96 19.1l5.3 16.2L84 40.9z"/><path fill="#a9705a" fill-opacity=".3" d="M68.2 19.3L95.8-16 68.5 71.9l-24.8-1.1z"/><path fill="#00000a" fill-opacity=".5" d="M44 229l-5 22-12 10z"/><path fill="#bbc2d6" fill-opacity=".6" d="M30 222h17v7H30z"/><path fill="#482c1f" fill-opacity=".4" d="M45 77L9 91l44 7z"/><ellipse cx="133" cy="61" fill="#cbc9d8" fill-opacity=".4" rx="11" ry="18"/><circle r="1" fill="#2a0c00" fill-opacity=".4" transform="rotate(32 -98.7 195.4) scale(19.34761 4.60076)"/><circle r="1" fill="#471104" fill-opacity=".5" transform="matrix(1.52337 -2.09553 37.31511 27.12668 168.3 150.6)"/><path fill="#020308" fill-opacity=".5" d="M35.6 216.2l-4.1-.3-5.6 4.8 14.9-.4z"/><path fill="#25140c" fill-opacity=".5" d="M62.8 31.5l-48 34.4 35.6 68.3-28.6-22.4z"/><path fill="#d3b2a4" fill-opacity=".6" d="M111.5 109.7L71.2 156 41.3 52.9l7.4 18.9z"/><path fill="#b7c0cd" fill-opacity=".5" d="M49 229h101v27H49z"/><path fill="#dab3a4" fill-opacity=".5" d="M43 93l26 33-30-16z"/><path fill="#2f282f" fill-opacity=".2" d="M18 197.8l-1.4-29.7 41.6 35.4 2.6 6.2z"/><path fill="#c4a69e" fill-opacity=".7" d="M104 72.6l9.5-1.2 28.4 1.7L117 87.6z"/><path fill="#d3d4d7" fill-opacity=".5" d="M28.3 155l15-20 26.4 20-15 20z"/><path fill="#9d9ba2" fill-opacity=".5" d="M15 130l16 4-8 51z"/><circle r="1" fill="#704c41" fill-opacity=".3" transform="matrix(7.37453 -1.04955 10.32531 72.5494 0 222)"/><path fill="#d9dfe3" fill-opacity=".4" d="M75 151l58-3-11-40z"/><path fill="#000100" fill-opacity=".5" d="M178.1 148.7l-3.1 52.6-11.4-47.4 2.3-8.3z"/><path fill="#808086" fill-opacity=".5" d="M45.3 178.8l86.9 35.8-42-14.8L33.5 178z"/></g></svg>