<svg xmlns="http://www.w3.org/2000/svg" viewBox="0 0 300 199"><defs/><path fill="#553e3f" d="M0 0h300v199H0z"/><g transform="translate(.6 .6) scale(1.17188)"><circle cx="94" cy="85" r="200" fill="#260207" fill-opacity=".5"/><ellipse cx="205" cy="124" fill="#e6d5c9" fill-opacity=".5" rx="22" ry="51"/><circle r="1" fill="#968f84" fill-opacity=".8" transform="rotate(44.6 -103.9 297) scale(16.22656 82.28791)"/><circle r="1" fill="#150204" fill-opacity=".8" transform="matrix(-.8766 -35.14824 57.0989 -1.42404 187.4 25.8)"/><circle cx="14" cy="151" r="96" fill="#210007" fill-opacity=".6"/><path fill-opacity=".3" d="M214 185l57-15-142-93z"/><circle r="1" fill="#be9891" fill-opacity=".4" transform="matrix(11.21454 -11.9493 9.57735 8.98844 175.3 70.6)"/><circle r="1" fill="#d34458" fill-opacity=".3" transform="matrix(14.7606 -6.13675 24.14209 58.06848 108.7 59)"/><path fill="#f6fffd" fill-opacity=".4" d="M218.5 92.1L172 170.6l47.3-5-37.2 19.4z"/><circle r="1" fill="#ffedf3" fill-opacity=".4" transform="matrix(-1.73544 7.06544 -23.48681 -5.76891 209.2 118.8)"/><circle r="1" fill="#81e7ae" fill-opacity=".2" transform="matrix(-22.21996 7.84696 -6.29742 -17.83219 159.1 146.8)"/><path fill="#e4b8b0" fill-opacity=".5" d="M210.6 58.5l-7.2 37.4-18.8 10L203 56.2z"/><circle r="1" fill-opacity=".6" transform="matrix(-9.11292 -1.82811 11.98015 -59.71955 151.4 65)"/><path fill="#562f21" fill-opacity=".8" d="M212.8 75.3l-3 19.2 13.5 11.8 26.1-16.9z"/><path fill="#00090f" fill-opacity=".6" d="M175.3 82l-44.8 40.4 42.8 5.5 19.3 13.1z"/><circle r="1" fill="#0d0000" fill-opacity=".6" transform="matrix(51.95432 -133.25593 14.63065 5.70425 252 120)"/><path fill="#b08484" fill-opacity=".6" d="M183.2 76.9L157.4 90l-4.6-8.9L178.6 68z"/><circle r="1" fill="#2e0b13" fill-opacity=".8" transform="matrix(12.50614 -11.9523 86.13706 90.12848 59.4 86.1)"/><ellipse cx="222" cy="120" fill="#eba694" fill-opacity=".5" rx="11" ry="17"/><circle r="1" fill="#1f0001" fill-opacity=".5" transform="matrix(-23.9446 -57.1772 13.12004 -5.4944 54.6 0)"/><path fill="#39271f" fill-opacity=".5" d="M213.2 128.1l8.4 5.3-22.8 36.5-8.4-5.3z"/><ellipse cx="215" cy="154" fill="#f1fffa" fill-opacity=".5" rx="5" ry="6"/><path fill="#858d87" fill-opacity=".5" d="M144 134l-11 16 20 17z"/><path fill="#b03644" fill-opacity=".2" d="M.9-16l56 47.9 54.8 97.7L33.6 26.8z"/><path fill="#0f210e" fill-opacity=".4" d="M155.9 159.1l30.9-35.3-.3 29.9-52.4-47.4z"/><path fill="#130505" fill-opacity=".6" d="M198.2 45L161 73.9 140.6 94 127.1-14.2z"/><path fill="#fff5f5" fill-opacity=".5" d="M170.5 155.4l-3.3-6.2 12.3-6.6 3.3 6.2z"/><path fill="#c1d1c9" fill-opacity=".6" d="M163 166h47v4h-47z"/><path fill="#272616" fill-opacity=".6" d="M151 158l20-1 5 7z"/><path fill="#afb99e" fill-opacity=".5" d="M180 136l-15-11v11z"/><path fill="#c9c8be" fill-opacity=".5" d="M187 155l15-2-13-19z"/><path fill="#21090e" fill-opacity=".7" d="M149.7 168.9l4.9-16-1.9 32.1L-16 109.3z"/><circle r="1" fill="#040405" fill-opacity=".5" transform="rotate(113.1 70.6 100) scale(37.90756 4.14968)"/><path fill="#2d1513" fill-opacity=".7" d="M235 92l36 16-41-121z"/><path fill="#6d1f2e" fill-opacity=".2" d="M76 0h63v113H76z"/><path fill="#f8dcd6" fill-opacity=".5" d="M187 90h12v12h-12z"/><path fill="#fff5ff" fill-opacity=".5" d="M161 153h12v5h-12z"/><path fill="#000d09" fill-opacity=".6" d="M193 160h63v5h-63z"/><path fill="#c0c4bf" d="M174.5 185h16.7l-.9-19.7-11.4-13.2z"/><path fill="#210a06" fill-opacity=".5" d="M215 140l-14 7-7-13z"/><path fill="#000600" fill-opacity=".4" d="M182 102h3v53h-3z"/><path fill="#dfd9fd" fill-opacity=".3" d="M222.2 105.1L186 115.4l10.6 21.2-4.7-5.4z"/><ellipse cy="98" fill="#1c0407" fill-opacity=".4" rx="24" ry="106"/><path fill="#0a090f" fill-opacity=".5" d="M189.3 77.3l11.4-2.3-5.8 9.1-66.2 34z"/><path fill="#e2f3c9" fill-opacity=".5" d="M135 145h5v8h-5z"/><circle r="1" fill="#2d0b12" fill-opacity=".6" transform="matrix(14.46923 25.5132 -40.55297 22.9987 215.8 3)"/><path fill="#1c2230" fill-opacity=".6" d="M130 137l18-24 20 24z"/><ellipse cx="254" cy="32" fill="#7b2f37" fill-opacity=".5" rx="8" ry="23"/><circle r="1" fill="#a68b83" fill-opacity=".5" transform="rotate(84.6 20.6 190.3) scale(3.268 14.64185)"/><path fill="#50171e" fill-opacity=".5" d="M237 148.3l11.4-25.6 24.6 11-11.4 25.6z"/><path fill="#703139" fill-opacity=".5" d="M60.4-28.5l21.9-9.8 57.3 128.8-21.9 9.8z"/><path fill="#b1817d" fill-opacity=".5" d="M174 87.6l4.6-32.5 10.6 17-11.1 7.4z"/><path fill="#010301" fill-opacity=".6" d="M209 60.2l-6-12.7 38-17.7 6 12.7z"/><path fill-opacity=".5" d="M261.7 158.2l-10.4 20.4-33-16.8 10.4-20.4z"/><path fill="#40141b" fill-opacity=".4" d="M141 147L45 90l38-57z"/><path fill="#a3b58e" fill-opacity=".5" d="M161.6 167.8l-13.7-6.1 2.5-5.5 13.7 6.1z"/><path fill="#7e373d" fill-opacity=".6" d="M71 70.6l-33.2-40 10.7 2.3 11 8.3z"/><path fill="#e4b6a8" fill-opacity=".4" d="M229 112l-1 23-30-45z"/><path fill="#5e4241" fill-opacity=".5" d="M160.3 64.8l5.4 2.8-10 19.6-5.4-2.8z"/><path fill="#bea19e" fill-opacity=".4" d="M162 91l-5-9 10 7z"/><circle cx="172" cy="141" r="4" fill="#363f27"/><path fill="#280a10" fill-opacity=".7" d="M146.6 148.1L87.9 185l33.6-76.9 13.1 60.3z"/><path fill="#1c1001" fill-opacity=".5" d="M255 60l-50 8 12 13z"/><path fill="#00020a" fill-opacity=".6" d="M132 134l13-59 16 22z"/><path fill="#766275" fill-opacity=".6" d="M187 128l15 14 14-18z"/></g></svg>