<svg xmlns="http://www.w3.org/2000/svg" viewBox="0 0 300 199"><defs/><path fill="#603c31" d="M0 0h300v199H0z"/><g transform="translate(.6 .6) scale(1.17188)"><circle cx="154" cy="48" r="221" fill="#e6f5f5" fill-opacity=".5"/><ellipse cx="156" cy="113" fill="#100b0e" fill-opacity=".6" rx="67" ry="34"/><ellipse cx="242" cy="65" fill="#f0f7fc" fill-opacity=".8" rx="21" ry="169"/><circle r="1" fill="#edeff0" fill-opacity=".9" transform="rotate(-38.6 136.3 -299.6) scale(16.19936 89.76482)"/><circle r="1" fill="#fff" fill-opacity=".6" transform="matrix(-12.27149 -.88372 8.66093 -120.2674 79 0)"/><ellipse cx="44" cy="103" fill="#642600" fill-opacity=".3" rx="22" ry="124"/><ellipse cx="2" cy="91" fill="#f8f5ea" fill-opacity=".5" rx="19" ry="134"/><circle r="1" fill="#000002" fill-opacity=".6" transform="matrix(7.52967 2.5194 -4.94636 14.7831 217 80)"/><path fill="#dde9f6" fill-opacity=".5" d="M188 130l16 55 3-102z"/><path fill="#7e5841" fill-opacity=".7" d="M98-13l-6 71 41 54z"/><path fill="#fdffff" fill-opacity=".5" d="M184 75l2-37 20 1-2 37z"/><path fill="#271f1a" fill-opacity=".4" d="M94 99h71v56H94z"/><path fill="#dce5ea" fill-opacity=".5" d="M69 112h24v58H69z"/><ellipse cx="214" cy="117" fill="#00000e" fill-opacity=".6" rx="8" ry="27"/><ellipse cx="143" cy="149" fill="#8c7e6e" fill-opacity=".5" rx="56" ry="18"/><path fill="#362325" fill-opacity=".5" d="M200 120l-27-46 31 3z"/><ellipse cx="77" cy="19" fill="#eef9ff" fill-opacity=".5" rx="15" ry="52"/><path fill="#351400" fill-opacity=".3" d="M63.1 95l-42.4 73.5 49.1-12.4-3.8-33.4z"/><path fill="#05020d" fill-opacity=".5" d="M136.2 119.6l-.2 6.1 28.3 10.9-20.8-72.4z"/><path fill="#000009" fill-opacity=".5" d="M81 102h39v11H81z"/><circle cx="223" cy="169" r="36" fill="#bfc7d3" fill-opacity=".4"/><path fill-opacity=".5" d="M192 25h10v11h-10z"/><circle r="1" fill="#c3afa2" fill-opacity=".5" transform="matrix(19.17332 9.22303 -1.83357 3.81171 117.5 96.4)"/><path fill="#fafeff" fill-opacity=".6" d="M183 7h43v18h-43z"/><path fill="#501607" fill-opacity=".5" d="M83 56h10v16H83z"/><path fill="#b89175" fill-opacity=".4" d="M111 0h72v86h-72z"/><ellipse cx="37" cy="31" fill="#9b7f6c" fill-opacity=".8" rx="20" ry="67"/><path fill="#000222" fill-opacity=".5" d="M208 68l19-6-15 52z"/><path fill="#d9dfe1" fill-opacity=".5" d="M206 123l-17 18 1-32z"/><path fill="#9c8c89" fill-opacity=".9" d="M75.4 83.5l2.3 19.8 10.7-6.4-1.7-38.7z"/><ellipse cx="162" fill="#815f47" fill-opacity=".6" rx="33" ry="7"/><path fill="#dbdbdb" d="M183.7 6.5l3.5 56.7 20.6 5.7L206 94z"/><path fill="#07060f" fill-opacity=".4" d="M95 91l-2 54 42-32z"/><circle r="1" fill="#d4cec7" fill-opacity=".6" transform="matrix(-4.4344 -76.78415 5.4972 -.31747 19.4 150.4)"/><path fill="#f6fbfe" fill-opacity=".5" d="M69.6 123.3l-4.5 10.4 4.7-32.5 18.6 10.2z"/><path fill="#817367" fill-opacity=".7" d="M111.1 153l27.6-49.7-13.6 55.1H78.6z"/><path fill="#00070c" fill-opacity=".4" d="M187.8 139l-5.8-34.5 29.7-6.9-19.1 14.2z"/><circle cx="245" cy="93" r="25" fill="#eef0f1" fill-opacity=".8"/><ellipse cx="170" cy="124" fill-opacity=".7" rx="4" ry="11"/><path fill="#998893" fill-opacity=".5" d="M212.3 33.9l-28.9 59.3 16.1-11.4 19.9-37.4z"/><path fill="#09030b" fill-opacity=".5" d="M181.7 92.3l-45.5-6.1 9.4 63.1-1.2-70.8z"/><path fill="#aeb0b2" fill-opacity=".6" d="M0 171l99 14-6-27z"/><path fill="#fcffff" fill-opacity=".5" d="M203 90h3v31h-3z"/><path fill="#392b30" fill-opacity=".6" d="M184.5 75.4l18.3 5.4-15 1.2-21.8 3.9z"/><path fill="#bec2c7" fill-opacity=".6" d="M227.9 20.5l-17.4 9.8 36.2 1.8-19-48.1z"/><path fill="#141517" fill-opacity=".5" d="M199.3 133.2l11.1-8.1 10.8-11.7 2.3 23.4z"/><path fill="#ffc49e" fill-opacity=".1" d="M149.3 114.3l-.4-15.8 38.2 16.4-1.7 8.2z"/><circle r="1" fill="#77523d" fill-opacity=".5" transform="matrix(-1.41714 50.73433 -7.66671 -.21415 100.8 4.3)"/><path fill="#bfd5ff" fill-opacity=".3" d="M134.8 58l-10.7 15.4-2.3 7.8 24.5 3.7z"/><path fill="#b7bcc5" fill-opacity=".3" d="M147.7 59.9l5.3 22.4 58.4 5.2-54.9-10.1z"/><ellipse cx="69" cy="81" fill="#f7ffff" fill-opacity=".5" rx="5" ry="42"/><path fill="#18181c" fill-opacity=".7" d="M112.8 146.7L96 111.6l35.8 19.7-13.4 2z"/><path fill="#4b1e22" fill-opacity=".4" d="M140.2 79.7l-7.4 17.2 14.7-35.4-4.7-9.1z"/><path fill="#f2f3f4" fill-opacity=".7" d="M255-16l-31 80 39 57z"/><path fill="#d3d9e0" fill-opacity=".7" d="M271 114l-45-3-11 74z"/><path fill="#be9f88" fill-opacity=".5" d="M172 92.2l3.9 14.5-3.9 1-3.9-14.4z"/><path fill="#05091f" fill-opacity=".5" d="M206 93h14v23h-14z"/><path fill="#e7e9ec" fill-opacity=".5" d="M62.8 31.8l32.4 26.8-7.3-39.5-21.1 89.1z"/><path fill="#f8fbfb" fill-opacity=".6" d="M197.1 42l4.4 10.7-13.2 19.1.5-34.4z"/><path fill="#a68d77" fill-opacity=".5" d="M175 115h10v13h-10z"/><path fill="#58221c" fill-opacity=".4" d="M199.4 27.6l4.6 2-5.4 12.8-4.6-2z"/><path fill="#dbd5cf" fill-opacity=".4" d="M83 114h14v11H83z"/><path fill="#160000" fill-opacity=".5" d="M113 86h23v5h-23z"/><path fill="#0e0a0b" fill-opacity=".6" d="M174 102h28v9h-28z"/><path fill="#bda997" fill-opacity=".4" d="M159 84l-24-68 62-17z"/></g></svg>