<svg xmlns="http://www.w3.org/2000/svg" viewBox="0 0 300 199"><defs/><path fill="#4b322b" d="M0 0h300v199H0z"/><g transform="translate(.6 .6) scale(1.17188)"><circle cx="117" cy="104" r="173" fill="#969f92" fill-opacity=".5"/><path fill="#fff" fill-opacity=".8" d="M38.8 32.2l-82.6-8.7 5-47.7 82.6 8.7z"/><ellipse cx="216" cy="115" fill="#290b00" fill-opacity=".5" rx="54" ry="93"/><path fill="#f5ffff" fill-opacity=".7" d="M213-15L93 1l123 22z"/><path fill="#ffd3dd" fill-opacity=".4" d="M81 86l-97 58 210 41z"/><path fill="#18100a" fill-opacity=".6" d="M39 43l153 25L56 98z"/><circle r="1" fill="#183a22" fill-opacity=".6" transform="matrix(38.29623 -.26736 .19752 28.29231 169.4 39.9)"/><circle r="1" fill="#e3d5d4" fill-opacity=".6" transform="matrix(-19.0325 -17.33477 8.2833 -9.09456 148.7 139.2)"/><path fill="#aea189" d="M56.3 16.9l45.2 14.8-44.4 18-27.9-.3z"/><path fill="#000003" fill-opacity=".6" d="M115 110h9v60h-9z"/><circle r="1" fill="#f89b87" fill-opacity=".3" transform="matrix(-10.75128 7.06227 -17.85486 -27.18142 198 108.8)"/><circle r="1" fill="#360000" fill-opacity=".6" transform="matrix(-14.3205 -29.04862 39.2185 -19.33407 202.4 167.2)"/><path fill="#c9edf5" fill-opacity=".5" d="M261.3-15.3l2.3 31.9-39 2.7-2.2-31.9z"/><circle r="1" fill="#d2bebb" fill-opacity=".7" transform="rotate(54.1 -84.5 109) scale(17.30354 18.46249)"/><path fill="#221713" fill-opacity=".9" d="M128.2 101.7l-23 13.6 32.7 3.3 13.7-56.1z"/><circle r="1" fill="#27332a" fill-opacity=".6" transform="matrix(-8.0953 -17.2816 21.62228 -10.12861 18.6 98.2)"/><circle r="1" fill="#9f766b" transform="matrix(21.30566 14.42502 -17.83785 26.34639 48 162.7)"/><path fill-opacity=".6" d="M70.1 44.2l21 11.6-23.2 42-21-11.6z"/><path fill="#a88781" fill-opacity=".5" d="M93 40h14v91H93z"/><ellipse cx="100" cy="168" fill="#b0bedf" fill-opacity=".6" rx="12" ry="45"/><circle cx="223" cy="85" r="26" fill="#001900" fill-opacity=".4"/><path fill="#273f28" fill-opacity=".5" d="M179 96l-22-63L55-4z"/><ellipse cx="131" fill="#f5fffe" fill-opacity=".4" rx="50" ry="12"/><path fill="#a9e0ca" fill-opacity=".4" d="M228.9 30.6l12.3 42.6-2.7-23.8 19.6-20.3z"/><ellipse cx="34" cy="74" fill="#fff9ce" fill-opacity=".4" rx="14" ry="8"/><ellipse cx="151" cy="162" fill="#c9c7c9" fill-opacity=".5" rx="14" ry="42"/><path fill="#647f72" fill-opacity=".6" d="M154.7 44.7l111.9-3.8-49.1 7.1-.4 15.7z"/><path fill="#845448" fill-opacity=".8" d="M109 53l-43 50 35-4z"/><path fill="#e6f8ff" fill-opacity=".5" d="M52.6 24.2l-30.3.9-24.6 13.4 18.7-54z"/><circle r="1" fill="#152316" fill-opacity=".7" transform="matrix(-6.27221 3.82078 -4.63768 -7.61324 18.9 59.4)"/><circle r="1" fill="#223628" fill-opacity=".4" transform="rotate(-134.5 123 -43) scale(15.33224 6.05328)"/><path fill="#b2a58c" fill-opacity=".9" d="M51.1 17.9L92.6 47l9.4-9.8-23-19z"/><path fill="#a69984" fill-opacity=".6" d="M271 159.7l-23.5-20.5 3.4 23.5 10 9.9z"/><path fill="#7d7c5f" fill-opacity=".6" d="M177.2 112.8l-20.8 22.9-20.5-15.3 36.8-32.9z"/><ellipse cx="141" cy="54" fill="#fffbff" fill-opacity=".5" rx="2" ry="11"/><path fill="#c9ab9a" fill-opacity=".5" d="M55 125l-22 39-43-45z"/><circle r="1" fill="#67161f" fill-opacity=".6" transform="matrix(-39.44035 .10523 -.03532 -13.23722 203.3 137.5)"/><path fill="#2b1d1f" fill-opacity=".5" d="M112 70L75 36 43 63z"/><path fill="#997263" fill-opacity=".9" d="M179.6 94.6l46.2 23-19.1 9.1-16.6-51.8z"/><path fill="#f2fdff" fill-opacity=".6" d="M190.3-12.4L208.1 13l-16.4 11.4L173.9-1z"/><path fill="#f3fdff" fill-opacity=".6" d="M277.2 1.4l-.6 6-53.8-4.8.6-6z"/><path fill="#210b15" fill-opacity=".4" d="M27 38.7L2 45.9l-3-10.6 25-7.2z"/><path fill="#073b1d" fill-opacity=".4" d="M238.3 40.3l-38.9 3.4-1.7-20 38.9-3.4z"/><path fill="#647a60" fill-opacity=".8" d="M144.1 10.8l1.6-6.4 38.8 11.9-151.9 2.8z"/><path fill="#190000" fill-opacity=".5" d="M164 157h87v13h-87z"/><path fill="#764233" fill-opacity=".6" d="M35.2 185L60 150.3l14.5-4.6L58.2 130z"/><path fill="#966c5f" fill-opacity=".7" d="M80.3 130.6l46-54.8 1 23.8-44.5 37.7z"/><ellipse cx="165" cy="53" fill="#fafaff" fill-opacity=".5" rx="2" ry="7"/><path fill="#9fb0ac" fill-opacity=".5" d="M126 45l-13 19-1-20z"/><path fill="#99a896" fill-opacity=".4" d="M59 63.9L36.2 35.7 36-10.9 46.1-16z"/><circle r="1" fill="#062314" fill-opacity=".5" transform="matrix(-3.03265 -.05598 .08898 -4.82063 0 17.4)"/><path fill="#b78c78" fill-opacity=".5" d="M121 124h21v33h-21z"/><path fill="#203040" fill-opacity=".5" d="M85 136h3v34h-3z"/><path fill="#d1887f" fill-opacity=".4" d="M140.2 132.1l19.5-29.4-.4-5-5.8-28.8z"/><path fill="#1c2a14" fill-opacity=".6" d="M160 58h6v53h-6z"/><path fill="#456743" fill-opacity=".5" d="M51.8 12l72.3-6.5-8.2 8.5L39 21.9z"/><ellipse cx="190" cy="56" fill="#172317" fill-opacity=".7" rx="8" ry="9"/><path fill="#cfd4d2" fill-opacity=".5" d="M195.9 44.4l1.6-.3 5.2 10.3-.2 14.1z"/><path fill="#7c8d80" fill-opacity=".5" d="M184.7 54.6l-16.5 20.5 16.5-30-23.1-7.1z"/><path fill="#cadbfd" fill-opacity=".3" d="M82.1 110.7l22 1.9 3.7-3.3 4.3-25z"/><path fill="#65825f" fill-opacity=".5" d="M265.6 125.1l-45.2-15.6 20.2-1.9L271 88.4z"/><path fill="#0c0b0b" fill-opacity=".5" d="M115 135l36-56-39 35z"/><path fill="#faffff" fill-opacity=".5" d="M136-16l35 32-1-32z"/><path fill="#d3b9b8" fill-opacity=".4" d="M73 125h9v45h-9z"/><path fill="#1f311f" fill-opacity=".5" d="M104 21h76v23h-76z"/></g></svg>