<svg xmlns="http://www.w3.org/2000/svg" viewBox="0 0 300 199"><defs/><path fill="#572c2f" d="M0 0h300v199H0z"/><g transform="translate(.6 .6) scale(1.17188)"><circle r="1" fill="#b498b2" fill-opacity=".5" transform="matrix(-1.51153 94.15562 -137.44442 -2.20647 169.5 105)"/><circle r="1" fill="#220600" fill-opacity=".8" transform="rotate(20.1 -101.5 32.2) scale(38.29322 120.94776)"/><path fill="#041113" fill-opacity=".4" d="M232 19l39 65-84-44z"/><path fill="#49200a" fill-opacity=".6" d="M172.4 27.3l-63.1 21.8 37.8 2.3 29.2 45.7z"/><circle r="1" fill="#dbd4ff" fill-opacity=".3" transform="matrix(42.85544 5.0599 -1.22716 10.39357 184 108.7)"/><circle r="1" fill="#290900" fill-opacity=".7" transform="matrix(-18.72954 10.21167 -14.55129 -26.68895 110.2 0)"/><circle r="1" fill="#b494ac" fill-opacity=".4" transform="matrix(8.80957 -10.57554 83.90686 69.89556 114 116.2)"/><ellipse cx="68" cy="30" fill="#944d30" fill-opacity=".6" rx="14" ry="93"/><circle cx="174" r="41" fill="#d39b5f" fill-opacity=".3"/><circle r="1" fill="#320d00" fill-opacity=".5" transform="matrix(-36.29345 1.4577 -1.00206 -24.94912 25.7 152.3)"/><circle r="1" fill="#6a2500" fill-opacity=".6" transform="matrix(.94895 9.1828 -15.42997 1.59453 152.3 124.7)"/><circle cx="223" cy="153" r="57" fill="#7678cf" fill-opacity=".3"/><path fill="#7b677c" d="M247.2 11.8l-12.8 36.8L271 22.5V11.1z"/><path fill-opacity=".7" d="M218 18.2l-1.8-20L244-4.1l1.7 20z"/><path fill="#cca4af" fill-opacity=".5" d="M124.6 64.7L.3 112.9l145.2-66.5 3.4 48.5z"/><path fill="#cbbfdd" fill-opacity=".4" d="M135.8 142.4l-22.5-4.8 9-42 22.4 4.8z"/><path fill="#e4a79e" fill-opacity=".3" d="M57 118l-33-10 19-62z"/><path fill="#ad7879" fill-opacity=".6" d="M102.1 112.6l3.4-78.3-26-20.1-11.3 25.9z"/><path fill="#421705" d="M70.9 50.1l-15 4.6-28.4-17.3L9.8-16z"/><path fill="#28072b" fill-opacity=".4" d="M210.3 110.4l-13 48.7 40.5 4.7-40-25.3z"/><path fill="#d2b8cc" fill-opacity=".5" d="M185 144l26-35-74 38z"/><path fill="#672e17" fill-opacity=".5" d="M152 80h103v9H152z"/><path fill="#af94a5" fill-opacity=".5" d="M232 56l-81 13 70 13z"/><path fill="#640000" fill-opacity=".6" d="M74 103l-28 2 19-19z"/><path fill="#40416c" fill-opacity=".6" d="M172.3 149.3l-.7 9-49.9-3.6.7-9z"/><circle r="1" fill="#e8cfc0" fill-opacity=".4" transform="matrix(-8.18491 2.11676 -3.96471 -15.3304 183.2 23.5)"/><path fill="#290100" fill-opacity=".3" d="M155.3 29.3l32 39.9-30-5.7-16.2-54.6z"/><circle cx="124" cy="78" r="6" fill="#3c1300" fill-opacity=".8"/><path fill="#702b10" fill-opacity=".5" d="M-40.7 102.4l11.7-22 77.7 41.2-11.7 22z"/><path fill="#b39194" fill-opacity=".6" d="M198.6 4L208 .9 219.4 34l-9.4 3.3z"/><path fill="#a88db7" fill-opacity=".5" d="M94.8 156.7L230.9 185 83.8 141.6l28.7 39.4z"/><path fill="#25170c" fill-opacity=".7" d="M260.2 81.6l9.5-10.1-39.4-.9L268.6 46z"/><circle r="1" fill="#190300" fill-opacity=".6" transform="matrix(27.08442 58.92612 -23.65311 10.87177 0 27.1)"/><path fill="#3c2100" fill-opacity=".5" d="M189.6-15.4l-39.1 4.1 55.7 27.9-3.2 22.1z"/><path fill-opacity=".6" d="M23.5 133l2.5 15.8-39.5 6.2-2.5-15.8z"/><path fill="#261d1d" fill-opacity=".6" d="M219.3 21.9l21.3-.8 8.1 12.5-21.2-1.3z"/><path fill="#783e58" fill-opacity=".5" d="M50.6 115.5l50.9 51-24 24-51-51z"/><path fill="#1d0300" fill-opacity=".6" d="M124.7 44.2l-3.3-4.4 22.9 2.8-18.6 15.9z"/><path fill="#a6727d" fill-opacity=".5" d="M33.4 38L55 58.9l35.5 50-55.9-45.3z"/><path fill="#3c2037" fill-opacity=".5" d="M111.4 128.1l8 11.5-14.8 10.3-8-11.5z"/><path fill="#a15514" fill-opacity=".4" d="M78.6 3.2L54.2 5.6l-2.5 9 83.5 30.1z"/><path fill="#5c1f0d" fill-opacity=".5" d="M174.7 124.1l-8.2 13.7-23.2-13.9 8.2-13.7z"/><path fill="#3c191d" fill-opacity=".6" d="M223.3 79.7l-4.4 13.8-3.3 4.9 27.1-19z"/><path fill="#9c7797" fill-opacity=".5" d="M55 107l41 33 42-47z"/><path fill="#834933" fill-opacity=".6" d="M173.1-2.3l1.9 86.5-10-66-58.9-22.5z"/><circle r="1" fill="#825782" fill-opacity=".7" transform="matrix(-6.21664 32.26859 -13.27696 -2.55785 234.4 115.3)"/><path fill="#00235a" fill-opacity=".5" d="M233 161h23v6h-23z"/><path fill="#622323" fill-opacity=".6" d="M111.8 76.6L107.7 95 98 92.9l9-19.6z"/><path fill="#351c23" fill-opacity=".5" d="M204.6 31.4l-10 10.9 13.8 19.8 7.9.3z"/><path fill="#31202f" fill-opacity=".5" d="M72 115l-29 2 17 12z"/><circle r="1" fill="#ab8ca4" fill-opacity=".5" transform="matrix(68.71812 -27.3979 .73624 1.8466 177.3 92.3)"/><circle r="1" fill="#160600" fill-opacity=".7" transform="rotate(105.5 45.2 34.4) scale(6.25792 44.12394)"/><path fill="#21253d" fill-opacity=".4" d="M78.2 68.1l-26.1 3.1 16.4 5.7 16-4.8z"/><path fill="#b18284" fill-opacity=".8" d="M139.9 53L97.4 81l-8.6-33.4-44.1 10.5z"/><path fill="#9c8aa4" fill-opacity=".3" d="M245.3 67.5l-39.2-2.7 57.8-35.9-51.4 22.4z"/><path fill="#bd9296" fill-opacity=".6" d="M49.8 104.9l30.2 9.4-50.8-.7-.4-26.5z"/><path fill="#9389b2" fill-opacity=".5" d="M213 72h43v7h-43z"/><path fill="#573420" fill-opacity=".5" d="M169.6 54.5l4.3 12.3-25.5 8.7-4.3-12.3z"/><circle r="1" fill="#3e0e00" fill-opacity=".7" transform="matrix(-6.41344 3.20621 -1.49936 -2.9992 126.1 25.3)"/><path fill="#9b87af" fill-opacity=".7" d="M124.1 165.2L271 175.7l-99.3-18.5 26 .5z"/><circle r="1" fill="#8286c6" fill-opacity=".5" transform="rotate(-80.4 200 -89.5) scale(39.61308 8.41917)"/><path fill-opacity=".5" d="M174 46l-26 8 13-14z"/><path fill="#ffac3f" fill-opacity=".4" d="M145 37h6v14h-6z"/><path fill="#943f04" fill-opacity=".6" d="M19 8.4L16.4-4.4l20.6-4 2.4 12.8z"/><circle r="1" fill="#200900" fill-opacity=".5" transform="matrix(5.2842 -5.61871 11.0356 10.3786 16 98)"/></g></svg>