<svg xmlns="http://www.w3.org/2000/svg" viewBox="0 0 300 199"><defs/><path fill="#633b31" d="M0 0h300v199H0z"/><g transform="translate(.6 .6) scale(1.17188)"><circle r="1" fill="#f3f6e6" fill-opacity=".7" transform="matrix(14.76355 65.44342 -122.92729 27.7315 102.8 25.4)"/><circle cx="165" cy="86" r="93" fill="#c6c6b7" fill-opacity=".3"/><ellipse cx="150" cy="84" fill="#150a0c" fill-opacity=".4" rx="56" ry="23"/><ellipse cx="17" cy="150" fill="#090604" fill-opacity=".8" rx="70" ry="30"/><circle r="1" fill="#fff" fill-opacity=".6" transform="matrix(-16.95855 -46.21444 9.5896 -3.51894 200 34.4)"/><circle r="1" fill="#bfb3a6" fill-opacity=".8" transform="rotate(24 -200.5 251.6) scale(58.02363 15.71098)"/><path fill="#eeeee4" fill-opacity=".8" d="M217.7-2.2l6.8-17.8 57.8 22.2-6.8 17.8z"/><circle cx="234" cy="21" r="19" fill-opacity=".5"/><circle r="1" fill="#f7ffef" fill-opacity=".4" transform="rotate(-33 363 -231) scale(26.06653 18.02274)"/><ellipse cx="228" cy="139" fill="#4b2f22" fill-opacity=".9" rx="13" ry="47"/><path fill="#786859" fill-opacity=".6" d="M-6 82.7l24.3-57.1L46 37.3 21.7 94.4z"/><path fill="#1d2521" fill-opacity=".4" d="M172 50h26v92h-26z"/><circle r="1" fill="#f8edd8" fill-opacity=".6" transform="matrix(71.70445 -17.81183 6.71309 27.02464 146.4 25.6)"/><path fill="#342732" fill-opacity=".6" d="M102.9 51.4l-6.2 4.7 4.3 43.6 24-2.5z"/><circle r="1" fill="#310a00" fill-opacity=".5" transform="rotate(-17.9 420.2 -433.4) scale(12.06411 44.00196)"/><circle r="1" fill="#bfac9f" fill-opacity=".6" transform="matrix(-16.44865 75.19862 -7.08412 -1.54955 205.6 122.8)"/><ellipse cx="129" cy="57" fill="#c2beb5" fill-opacity=".5" rx="9" ry="62"/><ellipse cx="167" cy="70" fill="#a68978" fill-opacity=".8" rx="7" ry="29"/><path fill="#b0aea4" fill-opacity=".5" d="M10.5 18.5l28.6 95.9-20.5.5 15.7 30.9z"/><path fill="#fffae9" fill-opacity=".3" d="M251 0h5v142h-5z"/><ellipse cx="69" cy="37" fill="#d8d6cf" fill-opacity=".6" rx="26" ry="66"/><path fill="#040702" fill-opacity=".4" d="M-16 116.8l35.6 19.7-8.2-64.8L-11 77z"/><path fill="#f8feff" fill-opacity=".6" d="M161 38l58 3-48-57z"/><path fill="#d59130" fill-opacity=".5" d="M118 39L84-16l30 23z"/><path fill="#120100" fill-opacity=".6" d="M103.6 121l.2-3.9L7.6 185l56.5-6.9z"/><path fill="#000809" fill-opacity=".7" d="M58.3 185l-4-22.8L47 88.8 35.1 99.9z"/><path fill="#493028" d="M197.5 71.9l11.4-1.3-4.9 32.6-19.4 35.2z"/><path fill="#ab8471" fill-opacity=".5" d="M97 185l64-72-67 13z"/><path fill="#e2941f" fill-opacity=".5" d="M161.2 33.6l-9-.2.6-37 9 .2z"/><circle r="1" fill="#b7ad9f" fill-opacity=".7" transform="matrix(9.23978 -3.94787 29.42943 68.87813 8.2 21.4)"/><path fill-opacity=".5" d="M227 35l8-29 26 39z"/><path fill="#ded9cd" d="M124.5 71.1l-7.6 4.2-1.3-2.9 8.7-79.2z"/><path fill="#511500" fill-opacity=".5" d="M39.2 35.8l.6 18-13 .4-.6-18z"/><path fill="#e6e5e5" fill-opacity=".5" d="M104 101h25v13h-25z"/><ellipse cx="235" cy="2" fill="#eae4d3" fill-opacity=".8" rx="25" ry="3"/><path fill-opacity=".5" d="M165 85l-25-13 7 28z"/><path fill="#d8b0a2" fill-opacity=".5" d="M156 80l27-17-38-19z"/><path fill="#fff" fill-opacity=".5" d="M199 27h15v43h-15z"/><path fill="#fefaf0" fill-opacity=".7" d="M271 61L248 5l19 16z"/><path fill="#191509" fill-opacity=".5" d="M251.8 172L220 140.2l14.2-14.2 31.8 31.8z"/><path fill="#d0cac0" d="M21.3 46.3L62.4-7.5 14.7-16 20 25.1z"/><path fill="#874337" fill-opacity=".5" d="M197 94l3-41-34-11z"/><path fill="#c5baab" fill-opacity=".6" d="M49 72h49v38H49z"/><path fill="#fbffff" fill-opacity=".6" d="M94 16h16v35H94z"/><path fill="#8d5b43" fill-opacity=".4" d="M214 13h15v67h-15z"/><path fill="#bebeb8" fill-opacity=".4" d="M8.1 89l53.2-10.8-43.6-37.5L39.9 121z"/><circle r="1" fill="#714a3e" fill-opacity=".6" transform="rotate(-161.9 91 56) scale(10.89649 49.58752)"/><path fill="#b19584" fill-opacity=".6" d="M243 45h8v83h-8z"/><path fill="#1b190c" fill-opacity=".5" d="M74.6 108.6L-16 129.5l52.2-3.5 40.6-8.5z"/><path fill="#aa7568" fill-opacity=".4" d="M88.9 129.8l-20.8 12-9-15.6 20.8-12z"/><path fill="#615645" fill-opacity=".6" d="M-6.2 118.9L-16 58l47.9 54.7-21.8-58.5z"/><ellipse cx="184" cy="110" fill="#104c48" fill-opacity=".6" rx="9" ry="30"/><path fill="#4b414c" d="M95.9 70.6l27.6 6.6 1.3 20.3-17.4-5.8z"/><path fill="#d9b6a8" fill-opacity=".2" d="M154.5 165.2l67.4-21.5-1.5-132.4-24.2 129.8z"/><ellipse cx="143" cy="81" fill="#301f12" fill-opacity=".5" rx="5" ry="29"/><path fill="#ffd57c" fill-opacity=".6" d="M201.7 4.9l5.4 25.1 8.2-5.6L219-16z"/><path fill="#bfbcab" fill-opacity=".6" d="M176.2 136.8l32.4 12.2-20.7 7.7-39.3 28.3z"/><path fill-opacity=".5" d="M98 65h6v17h-6z"/><path fill="#9c897d" fill-opacity=".7" d="M119.5 62.3l-12.6-16-2.5 58.5 1.5-28.1z"/><ellipse cx="27" cy="140" fill="#544435" fill-opacity=".6" rx="7" ry="18"/><circle r="1" fill="#d7952c" fill-opacity=".5" transform="matrix(4.43617 .21035 -.69661 14.69124 96.3 5)"/><path fill="#2c1f1c" fill-opacity=".6" d="M194.2 87.6l.5 37.9 17.1 3.9-24.7 1.7z"/><path fill="#041514" fill-opacity=".4" d="M219.8 73.8l2 7.2 16.1-50-10.1 8.6z"/><path fill="#cfc5ba" fill-opacity=".5" d="M99.9 99l-7.5-81-3.1 107.5-18.3-4.3z"/><ellipse cx="30" cy="90" fill="#a5978e" fill-opacity=".5" rx="19" ry="5"/></g></svg>