<svg xmlns="http://www.w3.org/2000/svg" viewBox="0 0 300 199"><defs/><path fill="#3f4040" d="M0 0h300v199H0z"/><g transform="translate(.6 .6) scale(1.17188)"><circle r="1" fill="#faf9f9" fill-opacity=".5" transform="matrix(129.47639 130.7289 -82.14042 81.35344 149.3 70.7)"/><circle r="1" fill="#0a0a0a" fill-opacity=".6" transform="matrix(-12.12072 -3.30115 30.88454 -113.39758 142.2 136.9)"/><circle r="1" fill="#fff" fill-opacity=".7" transform="matrix(-70.17277 20.54035 -5.2085 -17.79401 221 104.7)"/><circle cx="75" cy="4" r="72" fill="#dedede" fill-opacity=".6"/><circle r="1" fill="#010101" fill-opacity=".7" transform="matrix(13.9123 -12.67084 9.30463 10.21627 196.3 34.9)"/><ellipse cx="102" cy="125" fill="#545454" fill-opacity=".5" rx="31" ry="61"/><path fill-opacity=".5" d="M140.3 133.6l25.4 17.8-16 23-25.4-17.8z"/><circle r="1" fill="#565656" fill-opacity=".7" transform="matrix(-12.14537 15.82816 -32.0292 -24.57687 237.4 155.3)"/><circle r="1" fill="#eaeaea" fill-opacity=".6" transform="matrix(14.83632 -3.327 7.65405 34.13224 229 65.3)"/><circle r="1" fill="#6a6a6a" fill-opacity=".7" transform="matrix(7.77495 -4.93558 48.18544 75.90585 22.3 85.6)"/><circle cx="28" cy="169" r="36" fill-opacity=".5"/><path fill-opacity=".8" d="M153.6 15l-7-7.1 23.8-23 7 7.2z"/><circle r="1" fill="#8c8c8c" fill-opacity=".6" transform="matrix(20.34778 -3.99208 5.5535 28.30647 105.2 42.4)"/><circle r="1" fill="#e3e3e3" fill-opacity=".5" transform="rotate(-138 122 41) scale(43.01946 14.27816)"/><path fill-opacity=".7" d="M246.7 62.7l24.2-19.8-14.3 50-4.2-20.6z"/><ellipse cx="155" cy="77" fill-opacity=".5" rx="9" ry="34"/><circle r="1" fill="#767676" transform="matrix(-21.29594 14.91846 -10.79755 -15.41339 249 18.7)"/><path fill="#fff" fill-opacity=".4" d="M139 124l7-61-21 15z"/><circle r="1" fill="#f8f8f8" fill-opacity=".5" transform="rotate(-95.7 46.7 -13.3) scale(41.59822 12.59348)"/><circle r="1" fill="#cfcfcf" fill-opacity=".7" transform="matrix(-7.51075 2.9441 -13.65642 -34.83906 52.8 91.2)"/><path fill="#404040" fill-opacity=".5" d="M96 111l66-68-91 54z"/><circle r="1" fill="#f5f5f5" fill-opacity=".6" transform="matrix(31.24825 -13.03382 6.11023 14.64913 211.6 98.9)"/><path fill="#d1d1d1" fill-opacity=".5" d="M114 51L231-4l-51-2z"/><circle r="1" fill="#6b6b6b" fill-opacity=".5" transform="matrix(-16.15998 28.22262 -10.75062 -6.1557 166.1 46.2)"/><ellipse cx="2" cy="93" fill="#f0efef" fill-opacity=".5" rx="8" ry="6"/><circle cx="98" cy="156" r="36" fill="#888" fill-opacity=".5"/><path fill="#424242" fill-opacity=".6" d="M89 50l12-32-15 5z"/><circle r="1" fill="#b8b8b8" fill-opacity=".4" transform="matrix(-29.91075 16.0665 -9.976 -18.57216 103.5 58.8)"/><path fill-opacity=".5" d="M152 127l5-42-14 10z"/><path fill="#0b0b0b" fill-opacity=".5" d="M164.8 149.9l-19 40.8-22.6-10.6 19-40.8z"/><path fill="#080808" fill-opacity=".6" d="M68.4 136.2l1.6-1 6.5-4.8 1.5 16.8z"/><path fill="#6b6b6b" fill-opacity=".8" d="M209.2 23.4l45.8 21-42.7-31.2L157.2 33z"/><path fill="#a7a7a7" fill-opacity=".7" d="M-16 75.1l24.5.6-1.9-14.6 2.9-76.9z"/><path fill-opacity=".4" d="M186 59l4-29 27-6z"/><path fill="#1b1b1b" fill-opacity=".5" d="M56 76h9v14h-9z"/><path fill="#302f2f" fill-opacity=".5" d="M37.5 92.7L48 137.4l2.4-28.7-43 12.6z"/><path fill="#a09f9f" fill-opacity=".5" d="M29 135l28-12-26-13z"/><path fill="#bcbcbc" fill-opacity=".6" d="M268.1 131.5l-37.4-47.7L249 72.1l8.4 10.2z"/><path fill="#cecece" fill-opacity=".2" d="M77.2 101.9l-35.1 46 53.5 4.6-47.7-22z"/><ellipse cx="13" cy="80" fill="#3c3c3c" fill-opacity=".5" rx="6" ry="29"/><circle r="1" fill="#3f3f3f" fill-opacity=".5" transform="matrix(-21.00673 -13.1775 2.06108 -3.28564 240.6 20)"/><path fill="#7c7c7c" fill-opacity=".8" d="M227.6 153.2l-9.4-27.4 32.2-11 9.4 27.4z"/><ellipse cx="129" cy="1" fill="#eee" fill-opacity=".5" rx="20" ry="26"/><path fill-opacity=".2" d="M177.4 77.7l-32.1-35.6 5.8 19.6-1.6 60.4z"/><circle r="1" fill="#d4d4d4" fill-opacity=".6" transform="matrix(-37.85305 4.81412 -.78627 -6.18234 232.3 50.6)"/><path fill="#d2d2d2" fill-opacity=".5" d="M234-15.9l21.4 13L244 15.8l-21.4-13z"/><ellipse cx="168" cy="125" fill="#f4f4f4" fill-opacity=".4" rx="14" ry="24"/><path fill="#b1b1b1" fill-opacity=".5" d="M169.3 35l-2.5 33.9 34.5 19.6 1.4-16.8z"/><ellipse cx="124" cy="147" fill="#555" fill-opacity=".5" rx="12" ry="50"/><path fill="#aaa" fill-opacity=".9" d="M151 178l49-33-35 5z"/><path fill="#0d0d0d" fill-opacity=".8" d="M264.1 86l6.9 17.3-27.4-47.9 27.4 7z"/><path fill="#5c5c5c" fill-opacity=".6" d="M254.2 185L209 128.4l-7.2-.4-15.9 2.4z"/><path fill-opacity=".3" d="M-16 81.7L59.7 185l20.7-36.5 2.6 34.7z"/><path fill="#9b9b9b" fill-opacity=".5" d="M145 131l-19-35 25 26z"/><circle r="1" fill="#9d9d9d" fill-opacity=".5" transform="rotate(7.9 -1055.8 755.9) scale(9.72405 44.47554)"/><path fill="#d2d2d2" fill-opacity=".7" d="M140.2 99.3l-6.5 9.1 6.3-41.6 7.7 21.4z"/><circle r="1" fill="#d2d2d2" fill-opacity=".5" transform="matrix(30.88858 -2.0532 .7152 10.75954 26.3 42.8)"/><path fill="silver" fill-opacity=".5" d="M192.1-5.6L179.3 4.6l33.1 15.3 35.7 9.1z"/><path fill="#151515" fill-opacity=".6" d="M152-5l-5 24 26-21z"/><path fill="#565555" fill-opacity=".4" d="M18 153l1-71-35 75z"/><path fill="#090909" fill-opacity=".7" d="M3.9 185l44.3-61.9-1.4 52.6-2.3-14z"/><path fill="#f0f0f0" fill-opacity=".5" d="M66 90l-10 37-6-19z"/><path fill="#848484" fill-opacity=".5" d="M213 27l8 54-15-20z"/><path fill="#272727" fill-opacity=".6" d="M78.2 101.8l-4.7 1.5 34.2-15.9-14.2 19z"/><path fill="#191919" fill-opacity=".5" d="M9.6 60L-8 63.8-9.6 56 8 52.2z"/></g></svg>