<svg xmlns="http://www.w3.org/2000/svg" viewBox="0 0 300 199"><defs/><path fill="#5d3e2e" d="M0 0h300v199H0z"/><g transform="translate(.6 .6) scale(1.17188)"><circle r="1" fill="#ebfdff" fill-opacity=".8" transform="matrix(91.56663 -165.87267 39.34022 21.71697 31.5 46.1)"/><path fill="#e9feff" fill-opacity=".6" d="M251 185L210 47l61-10z"/><circle r="1" fill="#000d1f" fill-opacity=".7" transform="matrix(21.81947 15.27815 -23.04105 32.90603 54 123.8)"/><circle r="1" fill="#e0c9ba" fill-opacity=".6" transform="matrix(-14.2245 4.05435 -19.7977 -69.4594 162.4 131.5)"/><circle r="1" fill="#f3f1f0" fill-opacity=".6" transform="matrix(51.78028 4.71294 -1.91297 21.01746 64.1 61.5)"/><path fill="#ffd7dc" fill-opacity=".6" d="M88 199.3l-25-38.6 37-24 25 38.6z"/><ellipse cx="195" cy="16" fill="#000200" fill-opacity=".6" rx="24" ry="115"/><path fill="#d5f0fb" fill-opacity=".8" d="M164.7 9.2l8.3 17-15.6-4.2-43.8-35.5z"/><path fill-opacity=".6" d="M217 72L117-8 88 20z"/><circle r="1" fill="#00000f" fill-opacity=".6" transform="matrix(-7.857 -8.07954 43.5433 -42.34402 84 130.3)"/><ellipse cx="1" cy="99" fill="#d7e2e6" fill-opacity=".9" rx="18" ry="130"/><path fill="#030200" fill-opacity=".3" d="M237 103l-84-14 106 88z"/><circle r="1" fill="#231b0d" fill-opacity=".8" transform="matrix(-18.41516 -12.65639 21.81826 -31.74576 235.7 14.4)"/><path fill="#e5eeee" fill-opacity=".7" d="M165.9 105.2l-8.5 21-19.2-30.1-4.3-21.2z"/><path fill="#fcffff" fill-opacity=".7" d="M244.5 91L235 43l30.4-6 9.4 48z"/><path fill="#e1ecf4" fill-opacity=".5" d="M69-13l-85 26 126 83z"/><path fill="#0f1117" fill-opacity=".9" d="M79.7 74.8l49.8 62.2-75.8 2.2 23.7-69.7z"/><circle r="1" fill="#9d6b58" fill-opacity=".6" transform="rotate(-162.5 72.2 23.1) scale(49.94705 12.47042)"/><circle r="1" fill="#745439" fill-opacity=".5" transform="matrix(-20.50124 -37.91625 17.83363 -9.64261 191.6 145)"/><path fill="#010208" fill-opacity=".5" d="M132.2 148.3l-8-52.3 26.5 26.1-2.9 62.9z"/><path fill="#fff1c3" fill-opacity=".4" d="M91 139h27v13H91z"/><path fill="#b28d7b" fill-opacity=".8" d="M149.4 43.7l-7.5 38.1 10.8 19.1 12.6-25.5z"/><circle r="1" fill="#ebede3" fill-opacity=".5" transform="matrix(6.65973 37.88356 -4.53942 .798 224 84)"/><path fill-opacity=".4" d="M168 88h50v32h-50z"/><path fill="#bfa18f" d="M178 185l-17-50-13 39z"/><path fill="#51483f" d="M226.5 17.6l15.4 142.8-16.7-48.7 11.2 57.8z"/><path fill="#a77968" fill-opacity=".5" d="M118 79l-19 24-12-86z"/><circle r="1" fill="#e7ecea" fill-opacity=".5" transform="matrix(-36.55562 31.57464 -16.64339 -19.26892 49.4 64.6)"/><path fill="#152231" fill-opacity=".6" d="M13 185l23-85 36 61z"/><path fill="#2b0200" fill-opacity=".4" d="M122.3 64.1l18-12.6 11.4 16.4-18 12.6z"/><path fill="#d7edf5" fill-opacity=".6" d="M172.7 21.7L145.2-2.5l8.4 28.1 20.1-2.1z"/><path fill="#bac0d0" fill-opacity=".6" d="M107.2 97.4l-3.4 3.2L70.2 64l37.2 25.9z"/><path fill="#e0e7e2" fill-opacity=".6" d="M236 48l11 80 24-1z"/><path fill="#e9dac7" fill-opacity=".5" d="M112 138l-38 11-17 36z"/><path fill-opacity=".4" d="M101 4l104 38L88 32z"/><ellipse cx="216" cy="118" fill="#070000" fill-opacity=".5" rx="10" ry="29"/><path fill="#e0e0dd" fill-opacity=".6" d="M154.4 127.1l-20.5-41.6 11.8-12 1 17.4z"/><path fill="#303326" fill-opacity=".6" d="M178.9 21.1L145.7-1.2l13.4-20 33.2 22.4z"/><path fill="#130f09" fill-opacity=".4" d="M160 25h56v43h-56z"/><path fill="#974263" fill-opacity=".6" d="M119.1 155.4l4.8 19.4-31 7.8-4.8-19.4z"/><path fill="#a79d98" fill-opacity=".6" d="M241 136h15v34h-15z"/><path fill="#130802" fill-opacity=".7" d="M183 120l27-49-49 49z"/><path fill="#694330" fill-opacity=".5" d="M141 136l14-7-22-44z"/><circle r="1" fill="#e4eaeb" fill-opacity=".8" transform="matrix(4.23632 -18.32548 10.80323 2.4974 82.4 12)"/><path fill="#9e8a75" fill-opacity=".6" d="M205.8 162.6l-14.6-27-15.6-15.8-1.4 3.7z"/><path fill="#0d0d0e" fill-opacity=".6" d="M150.3 144.2l3.1 19.3-56.4-36 5.8 1z"/><path fill="#0f0f15" fill-opacity=".5" d="M88.1 90.9L73 161.5 35.6 185H14.5z"/><path fill="#272e3b" fill-opacity=".9" d="M34.5 101.7l-16.2 70.7 59.4-96.9-52 44z"/><path fill="#f0f4f1" fill-opacity=".3" d="M218.8 72.6l5.8-35.6 5.6 32.9 4.7 79.8z"/><circle cx="158" cy="106" r="10" fill="#e5f1f1" fill-opacity=".5"/><ellipse cx="197" cy="71" fill="#180f08" fill-opacity=".5" rx="21" ry="42"/><path fill="#9b735f" fill-opacity=".6" d="M181 76l-10-13-20 32z"/><path fill="#63615c" fill-opacity=".5" d="M198.4 26.7l-2.8-32.9 6-.5 2.8 32.9z"/><path fill="#e1f3fc" fill-opacity=".6" d="M151.4 5.3l-.2 1-46.6-11.6.2-1z"/><circle r="1" fill="#3a2518" fill-opacity=".5" transform="rotate(-60.5 82.6 -74.9) scale(12.76658 19.9221)"/><path fill="#dde1df" fill-opacity=".7" d="M-16 52.6l51.8 31.1-14.5 58.1-3.9 18.3z"/><path fill="#e5e9e4" fill-opacity=".4" d="M218 51h10v43h-10z"/><circle r="1" fill="#d7eff2" fill-opacity=".4" transform="rotate(-147.5 86 -15.7) scale(9.67675 2.63542)"/><circle r="1" fill="#f8d1b4" fill-opacity=".4" transform="rotate(25.2 -234 420.6) scale(5.26603 11.39575)"/><path fill="#d4bbac" fill-opacity=".5" d="M60.4 185l28.8-23.8 25.1-20.6-35.5 4.5z"/><path fill="#ae9686" fill-opacity=".5" d="M131 148h5v15h-5z"/><path fill="#2d2424" fill-opacity=".5" d="M135.2 153.3l32.1-36.2-17.6 14.4-24.1-18.2z"/><path fill="#403524" d="M212.7 23.6l4.4 9.4 34.2 4.8-38.9 12.5z"/><path fill="#100e12" fill-opacity=".7" d="M132 145l-95-43 79 10z"/><path fill="#e2e6e4" fill-opacity=".4" d="M92 65.4l9.9-.2L47.1 8.6 14.3 118.5z"/></g></svg>