<svg xmlns="http://www.w3.org/2000/svg" viewBox="0 0 300 199"><defs/><path fill="#5d3f34" d="M0 0h300v199H0z"/><g transform="translate(.6 .6) scale(1.17188)"><circle r="1" fill="#fffff4" fill-opacity=".7" transform="matrix(.96632 -16.75897 50.6222 2.91886 163.4 86.3)"/><circle r="1" fill="#eab469" fill-opacity=".7" transform="matrix(-20.97218 40.47038 -73.67747 -38.18046 56 150.8)"/><circle r="1" fill="#dcdea6" fill-opacity=".6" transform="matrix(39.58788 -64.37227 36.80786 22.63623 209.8 169)"/><circle r="1" fill="#ffffd4" fill-opacity=".6" transform="rotate(62.6 81.9 143) scale(13.05046 53.26104)"/><path fill="#e1e2e5" fill-opacity=".7" d="M218.8 5.7l22.3-16.5-19.4 87.5-9-42z"/><circle r="1" fill="#79563e" transform="rotate(-147.2 60.7 38) scale(33.2943 28.17762)"/><path fill="#ffdecc" fill-opacity=".4" d="M166.2 104.1l-24.8-77.8 33.1 23.5 7.1 67.8z"/><circle cx="196" cy="59" r="20" fill="#000018" fill-opacity=".5"/><circle r="1" fill="#ecc0b4" fill-opacity=".6" transform="matrix(-22.21821 7.41502 -2.18932 -6.56002 225.2 82)"/><ellipse cx="254" cy="39" fill="#001046" fill-opacity=".6" rx="24" ry="40"/><ellipse cx="155" cy="134" fill="#3e2d1a" fill-opacity=".9" rx="39" ry="12"/><ellipse cx="129" cy="54" fill="#080300" fill-opacity=".6" rx="30" ry="13"/><path fill="#f2f3ff" fill-opacity=".6" d="M181.5 145.7l21.8 23.4-24.8 23.2-21.8-23.4z"/><path fill="#d3b489" fill-opacity=".5" d="M81-4l38.2-12h-2.6l-15.2 45.8z"/><path fill="#f0e0d4" fill-opacity=".7" d="M218.4 82.7L174 111.6l11 2.7-96.9-38z"/><path fill="#e8bf9e" fill-opacity=".5" d="M135 11l64-27-2 42z"/><path fill="#cb8018" fill-opacity=".6" d="M151.1 130.3l8.5 2.4 13.5 13.8-19.6 30.6z"/><circle r="1" fill="#030300" fill-opacity=".7" transform="matrix(12.84207 1.2243 -1.77647 18.6339 17.2 4)"/><path fill="#ffc" fill-opacity=".3" d="M230 131l39-14 2-83z"/><path fill="#674633" fill-opacity=".8" d="M201 120l-83-32-41 42z"/><path fill="#6f7516" fill-opacity=".4" d="M239.3 133.9l-9.6 17.3-34-2 31.5-39.6z"/><circle r="1" fill="#cda06e" fill-opacity=".6" transform="matrix(84.06078 -3.39668 .6103 15.10343 42 144.8)"/><path fill="#020307" fill-opacity=".7" d="M145.3 31.1l20.1 9.7 27.5-9.8L161 20.8z"/><circle r="1" fill="#f6e6c7" fill-opacity=".5" transform="rotate(36.6 -72.1 379.5) scale(5.81666 25.08606)"/><path fill="#1d130a" fill-opacity=".5" d="M139 71l-25 9-7-65z"/><path fill="#000c36" fill-opacity=".5" d="M199 0h15v82h-15z"/><ellipse cx="93" cy="82" fill="#ffffdb" fill-opacity=".6" rx="8" ry="4"/><path fill="#34241a" fill-opacity=".8" d="M210.3 108.6l9.5-17.9-27.8 10.6-67.1 45.9z"/><circle r="1" fill="#692800" fill-opacity=".4" transform="matrix(10.3801 20.4783 -29.3446 14.87427 128.1 169)"/><path fill="#d8aea0" fill-opacity=".4" d="M194.5 25.7l-34.9 64.9 36.6-15-59-1.4z"/><path fill="#26180c" fill-opacity=".7" d="M68.3 120.9l61.3 6.6 28.1 9.1-62.6-3.1z"/><path fill="#0e1720" fill-opacity=".7" d="M117.8 17.2l-10.3-8.4L120-12.9l33.6 15.1z"/><path fill="#b79467" fill-opacity=".6" d="M-16 18L3-16l7 78z"/><ellipse cx="236" cy="65" fill="#040811" fill-opacity=".5" rx="63" ry="8"/><path fill="#fff0d5" fill-opacity=".5" d="M128 31l22 1-22-24z"/><path fill="#556c5e" fill-opacity=".9" d="M38.3 17.1l52.4-29.8-12.2 53.6L67.9-16z"/><path fill="#cd9e66" fill-opacity=".6" d="M0 97h63v67H0z"/><circle r="1" fill="#371e0e" fill-opacity=".5" transform="rotate(-89.2 28.5 2.4) scale(40.87581 16.54017)"/><path fill="#82614d" d="M87.3 13l29.5 1.6 10.1 11.9 1.9 5.3z"/><path fill="#b47c56" fill-opacity=".5" d="M105 71h15v32h-15z"/><path fill="#260f03" fill-opacity=".6" d="M154.4 127.1L127 179.5l95.6 5.5-72.9-6.6z"/><path fill="#b57e5a" fill-opacity=".3" d="M49.4 46.6l.5 3.4-12.8-36.9 37-29.1z"/><path fill="#8a6138" fill-opacity=".5" d="M237.6 148.4l-20.8 15.1 36.1 3.3 18.1-7.4z"/><path fill="#f5f0e7" fill-opacity=".4" d="M215 0l15 19-7 47z"/><path fill="#011116" fill-opacity=".5" d="M96.8 11.2l36.5 46.2-49.9-37.5 31.4 4.4z"/><path fill="#132201" fill-opacity=".5" d="M235 102.3l24.7-13.8-6.5-2.6-.7-15.2z"/><path fill="#bdae82" d="M199.7 121.8l14.8 63.2-18.8-52.9-16.5-2.6z"/><path fill="#f7e9d6" fill-opacity=".5" d="M236 89l-45-13-50 20z"/><circle r="1" fill="#633620" fill-opacity=".5" transform="rotate(169.9 31 32.1) scale(46.12315 29.03739)"/><path fill="#a0735f" fill-opacity=".8" d="M236-16l-45 3.5 27.9 22.3 8.6-.9z"/><path fill="#15214b" fill-opacity=".6" d="M207 61l-30-8 37-50z"/><path fill="#bd8335" fill-opacity=".4" d="M78 135h50v35H78z"/><circle r="1" fill="#000314" fill-opacity=".6" transform="matrix(6.36553 -3.77815 5.44353 9.1714 175.7 135.5)"/><path fill="#0a090a" fill-opacity=".8" d="M134.8 59.6l2.1 10 4.2-30.8-13.6-7.5z"/><circle cx="210" cy="141" r="4" fill-opacity=".5"/><path fill="#0b090c" fill-opacity=".8" d="M211.2 50.6l9 17.2-5.8 14.7-18.6-4.9z"/><path fill="#ad6425" fill-opacity=".2" d="M78.5 108l-81.2 11.5-5.8-41.6 81.2-11.4z"/><path fill="#f1f1f2" fill-opacity=".6" d="M132.1 75l59.8-1.4-57.2 20-14.1-9.6z"/><path fill="#fff3ed" fill-opacity=".6" d="M254 68h2v16h-2z"/><path fill="#020000" fill-opacity=".6" d="M117 51l26 15 18-11z"/><path fill="#a58266" fill-opacity=".4" d="M59.5 18.3l.8 7-41.8 4.4-.8-7z"/><path fill="#001015" fill-opacity=".5" d="M240.7 98.5l2.3-6.8-44.9 6.5 33.9 4z"/><path fill="#322015" fill-opacity=".6" d="M74.9 29l66.2 38.6-83.9-32.1L71.1 5.6z"/><path fill="#e6d7be" fill-opacity=".6" d="M125.1-6.7l3 14.6 8-23 40.1 20.8z"/><path fill="#a07566" d="M177.2 8.6l3-19.3 1.3 35.1-7.9-.6z"/></g></svg>