<svg xmlns="http://www.w3.org/2000/svg" viewBox="0 0 298 450"><defs/><path fill="#583b2d" d="M0 0h298v450H0z"/><g transform="translate(.9 .9) scale(1.75781)"><circle r="1" fill="#c1b197" fill-opacity=".6" transform="matrix(-52.62267 -19.20509 36.29476 -99.44903 81.5 209)"/><circle r="1" fill="#010000" fill-opacity=".6" transform="matrix(39.50963 -13.20358 49.06974 146.83343 154.4 66.7)"/><circle r="1" fill="#f6bfa8" fill-opacity=".5" transform="matrix(-1.41752 -39.88295 15.16735 -.53908 90.3 61.7)"/><path fill="#fff7fc" fill-opacity=".5" d="M99 128l8 105-48-56z"/><ellipse cx="56" cy="37" fill-opacity=".7" rx="16" ry="110"/><circle r="1" fill="#c2997f" fill-opacity=".5" transform="rotate(102.2 -11.4 30) scale(30.42541 23.1905)"/><ellipse cx="165" cy="204" fill="#1b0f0c" rx="20" ry="203"/><ellipse cx="132" cy="241" fill="#c9927c" fill-opacity=".7" rx="12" ry="122"/><ellipse cx="112" cy="180" fill="#3f1409" fill-opacity=".6" rx="7" ry="59"/><circle r="1" fill="#0f1a05" fill-opacity=".5" transform="matrix(-28.18894 10.73328 -3.64103 -9.56247 55.2 245.8)"/><circle r="1" fill="#214400" fill-opacity=".6" transform="matrix(1.9224 17.68853 -12.66062 1.37597 52.4 196)"/><path fill="#b2cdb5" fill-opacity=".5" d="M49 200L7 242l11-64z"/><path fill="#c3c7bb" fill-opacity=".5" d="M47 155l-25-1 34-35z"/><circle r="1" fill="#d7e2cf" fill-opacity=".5" transform="matrix(-39.42994 2.45292 -.41249 -6.63061 68.9 222.3)"/><ellipse cx="107" fill="#140d09" fill-opacity=".9" rx="42" ry="28"/><circle r="1" fill="#291f18" fill-opacity=".7" transform="matrix(24.65966 -.3027 .39313 32.0272 22.8 117.5)"/><path fill="#fbcdaf" fill-opacity=".5" d="M162.6 8.3l-12.7 3-4.5-19.6 12.7-3z"/><path fill="#835443" fill-opacity=".7" d="M100 82l22 54-67 12z"/><ellipse cx="153" cy="90" fill="#321d15" fill-opacity=".8" rx="56" ry="21"/><path fill="#000400" fill-opacity=".6" d="M55.1 243.4l-3.8 4.6L25 226.6l3.8-4.6z"/><path fill="#220200" fill-opacity=".4" d="M108.5 189.1l-6.2 42.5 24.4-4 4.8-13.1z"/><circle r="1" fill="#0c1107" fill-opacity=".7" transform="rotate(111.4 -79.2 132.8) scale(9.2738 96.2434)"/><path fill="#000900" fill-opacity=".5" d="M29 205L3 180l11 36z"/><circle r="1" fill="#775042" fill-opacity=".9" transform="rotate(-179.3 39 30.8) scale(10.96182 17.24277)"/><ellipse cx="155" cy="47" fill="#010001" fill-opacity=".8" rx="35" ry="33"/><path fill="#ddab94" fill-opacity=".5" d="M87 33h11v84H87z"/><path fill="#bfc3b2" fill-opacity=".8" d="M42.4 222.4l28.5-14.2-9.8 23.9-10.2 9.4z"/><path fill="#ebefe2" fill-opacity=".5" d="M17 185h15v17H17z"/><path fill="#0b3008" fill-opacity=".5" d="M-1.1 173.2l63.3-21.3-15.5.4-11.4 33.6z"/><circle r="1" fill="#53362d" fill-opacity=".5" transform="matrix(-14.67613 -31.47115 20.53878 -9.57798 151 109.3)"/><circle cx="31" cy="243" r="8" fill="#c8d7ba" fill-opacity=".6"/><ellipse cx="141" cy="208" fill="#c68c78" fill-opacity=".6" rx="6" ry="31"/><path fill="#4d3823" fill-opacity=".5" d="M69 223l54 48-66-27z"/><ellipse cx="107" cy="134" fill="#351509" fill-opacity=".7" rx="6" ry="13"/><circle r="1" fill="#d49a7c" fill-opacity=".4" transform="matrix(-14.7777 -.83931 2.4498 -43.13345 126.7 163.6)"/><path fill="#a37c65" fill-opacity=".5" d="M17.6-34.7l17-.6 3.8 108-17 .6z"/><path fill="#cabeb5" fill-opacity=".6" d="M71.6 198.7l-18.2-33.6 45.8-36.7 7.6 64.6z"/><circle r="1" fill="#cbe6b4" fill-opacity=".6" transform="matrix(2.05578 -1.59883 7.0808 9.1045 0 143.4)"/><path fill="#fff1e8" fill-opacity=".5" d="M45.6 143l4.8-24.5 2 .4-4.8 24.6z"/><path fill="#ffebd1" fill-opacity=".2" d="M101.1 35l-13 16.6L67 35l13-16.6z"/><path fill="#69696f" fill-opacity=".6" d="M53.7 31l.5 10.4L43.1 49l-.4-10.8z"/><path fill="#264200" fill-opacity=".5" d="M53.6 162l-2.9 53.8-21.5.6L62 201.2z"/><path fill="#ffc6b1" fill-opacity=".4" d="M64.7 57.3l-.9.6 19.4-2L76 72.1z"/><path fill="#dff7e1" fill-opacity=".5" d="M32.2 158.3l-3.8 3.2-8.6-9.8 3.8-3.2z"/><circle r="1" fill="#090302" fill-opacity=".8" transform="matrix(-5.06769 -15.62972 15.3954 -4.99172 158.3 248.1)"/><path fill="#e3b7a5" fill-opacity=".6" d="M92.4 69.9l.2-12 15 .2-.2 12z"/><path fill="#020000" fill-opacity=".4" d="M33 124l51-34-42-41z"/><path fill="#3d4c18" fill-opacity=".6" d="M73 213l17-7-32-12z"/><path fill="#492413" fill-opacity=".5" d="M51 117h23v31H51z"/><path fill="#bf8873" fill-opacity=".5" d="M69 106h45v12H69z"/><path fill="#88b389" fill-opacity=".4" d="M4.5 185.5l-20.5 5.1L41 271l-29.7-52.4z"/><path fill="#9d6a5c" fill-opacity=".7" d="M91 231.3l37.4-8 13 21.4-43.1 18.1z"/><path fill="#2e1208" fill-opacity=".5" d="M91.8 54.4l1.8-8.8 20.6 4-1.8 8.8z"/><path fill="#beaea7" fill-opacity=".7" d="M82.8 185.3L59.7 189l45.8 35-28.6 11.5z"/><path fill="#a8a9b3" fill-opacity=".5" d="M143 38l-10 1 12 6z"/><ellipse cx="106" cy="11" fill="#ecae7f" fill-opacity=".1" rx="8" ry="41"/><circle r="1" fill-opacity=".5" transform="matrix(18.7003 18.24885 -9.72688 9.9675 164.4 170.7)"/><path fill="#deeef1" fill-opacity=".5" d="M116 252h27v4h-27z"/><path fill="#a3a67f" fill-opacity=".9" d="M53.2 173.2l-13.7-7.1L51 157l21.7 36.6z"/><path fill="#161b04" fill-opacity=".7" d="M16 265l35-25 3 18z"/><path fill="#080c08" fill-opacity=".8" d="M0 230h7v26H0z"/><path fill="#1c2f1f" fill-opacity=".6" d="M27 175l-20.5 4.4L1 153l20.6-4.4z"/><path fill="#341809" fill-opacity=".7" d="M95.2 90l26.5-26.7 23.2 56.1-47.7-24.7z"/><path fill="#060000" fill-opacity=".3" d="M37 46h49v8H37z"/><path fill="#aba78c" fill-opacity=".8" d="M68.8 167.4l11.9-9.9-19.6-12.9-3.4 2.4z"/></g></svg>