<svg xmlns="http://www.w3.org/2000/svg" viewBox="0 0 300 199"><defs/><path fill="#463730" d="M0 0h300v199H0z"/><g transform="translate(.6 .6) scale(1.17188)"><circle cx="128" cy="46" r="65" fill="#d2dbd6" fill-opacity=".6"/><ellipse cx="96" cy="58" fill="#fff" fill-opacity=".9" rx="31" ry="26"/><circle r="1" fill="#040506" fill-opacity=".9" transform="matrix(-48.9175 19.80119 -51.43947 -127.07776 25.9 104.9)"/><circle r="1" fill="#090200" fill-opacity=".5" transform="matrix(-33.68 -122.2745 15.82554 -4.35908 124.6 0)"/><ellipse cx="94" cy="5" fill="#3d2c23" fill-opacity=".7" rx="61" ry="28"/><ellipse cx="233" cy="113" fill="#0a0300" fill-opacity=".6" rx="27" ry="169"/><ellipse cx="168" cy="38" fill="#edffff" fill-opacity=".7" rx="19" ry="23"/><circle r="1" fill="#f7ffff" fill-opacity=".5" transform="matrix(2.3191 -10.0696 20.48065 4.71685 188.6 125.8)"/><circle r="1" fill="#0a0e11" fill-opacity=".7" transform="rotate(-77.1 162.9 -13) scale(30.60516 70.44048)"/><path fill="#010b0b" fill-opacity=".6" d="M144.7 64.9l18.7 3.6-14.1 72.6-18.7-3.6z"/><path fill="#a6abad" fill-opacity=".6" d="M184 58l22 36-31-7z"/><path fill="#ffffdc" fill-opacity=".2" d="M125.9 124.9l7.7-12.8L122.1-16 99.3 109.9z"/><path fill="#f6f5f3" fill-opacity=".8" d="M124.8 50.6L74 80.9l-12.2-48 59.2 3.3z"/><ellipse cx="36" cy="43" fill="#100f10" fill-opacity=".9" rx="25" ry="58"/><path fill="#98dde0" fill-opacity=".6" d="M180-16L154 4l-3 72z"/><path fill="#bab8b1" fill-opacity=".7" d="M153.5 120.8l53.5 18.7-1.1-27.9-12.8 5.7z"/><path fill="#0b1514" fill-opacity=".7" d="M148.2 80.1l2.3-45.8 2.1-36.8-7.1 30.4z"/><path fill="#2f211a" fill-opacity=".6" d="M196.2 36.1l53.6.3-55.7 41.9-9.5-62.9z"/><path fill="#4e4e48" fill-opacity=".4" d="M213.8 89.2l-23.4-36.9-31.9 41.2-16.5-35z"/><path fill-opacity=".6" d="M204 182l6-96 30 48z"/><path fill="#1a1819" fill-opacity=".6" d="M19.8 32.1L104.5 185 88.6 93.2l4.3 3.6z"/><ellipse cx="177" cy="105" fill="#3d5557" fill-opacity=".6" rx="20" ry="13"/><path fill="#fffdfa" fill-opacity=".5" d="M165 48.1l12.3-39.5 14.7 36-7.4 13.7z"/><path fill="#c3c4c2" fill-opacity=".5" d="M159 107l24-33-28 21z"/><path fill="#69544a" fill-opacity=".5" d="M171-16l52 54-37-6z"/><ellipse cx="138" cy="72" fill="#241b10" fill-opacity=".5" rx="4" ry="58"/><path fill="#573c31" fill-opacity=".4" d="M232 124l-7-82 46 126z"/><path fill="#6c5648" fill-opacity=".6" d="M113 5l24-21-1 105z"/><path fill="#c1c1cb" fill-opacity=".6" d="M91 69l-2 19 45 6z"/><circle r="1" fill="#7b7c81" fill-opacity=".6" transform="matrix(-1.60032 3.4009 -26.82617 -12.62326 182.3 131)"/><path fill="#745c4c" fill-opacity=".6" d="M62 33l-1-21 69 19z"/><circle cx="178" cy="73" r="18" fill="#a18c89" fill-opacity=".4"/><circle r="1" fill="#140f0a" fill-opacity=".7" transform="matrix(-11.39417 -1.20495 .98881 -9.35035 201.2 53.8)"/><path fill="#060607" fill-opacity=".7" d="M151 72l-13 40 23 48z"/><path fill-opacity=".5" d="M-5 221.2L-68.8 55.1 5 26.8l63.8 166.1z"/><path fill="#aca66c" fill-opacity=".6" d="M86 96h35v6H86z"/><path fill="#fffdff" fill-opacity=".5" d="M105 33h15v34h-15z"/><path fill="#51543a" fill-opacity=".5" d="M122.2 104.6l6.9 37.4-22.9-22.5 36.1-6z"/><circle r="1" fill="#050909" fill-opacity=".7" transform="rotate(163.6 72.5 67.8) scale(13.00248 3.07737)"/><path fill="#b1d8d5" fill-opacity=".7" d="M165.3 64.5l-13.3-.6-1.3-41.5 8-29.7z"/><ellipse cx="144" cy="23" fill="#7b6b5a" fill-opacity=".6" rx="2" ry="67"/><circle r="1" fill="#49372f" fill-opacity=".6" transform="rotate(-72.7 44.2 -60) scale(16.03059 37.55975)"/><path fill="#bad3dd" fill-opacity=".3" d="M206 92l-51-5 31-13z"/><circle r="1" fill="#f7f5f5" fill-opacity=".5" transform="matrix(12.01602 -10.48755 15.63762 17.91668 108.5 56.3)"/><path fill="#010004" fill-opacity=".5" d="M207.2 167.5l-7 11-55.4-36 7-11z"/><path fill="#d9ce90" fill-opacity=".5" d="M122.7 107.2l-2.9 7.5-20.5-8 2.9-7.4z"/><path fill="#063235" fill-opacity=".6" d="M157.7 79.8L148 78l2.4-13.8L160 66z"/><path fill="#eaece6" fill-opacity=".3" d="M152.2 115.6l36.1 11.8 11.2 7.7-45-16.9z"/><path fill="#29262e" fill-opacity=".3" d="M72.1 85.6l-19.2 38.5 52.3-39 3 7.8z"/><path fill="#867f7a" fill-opacity=".6" d="M65.8 69.9l10.4 17.8-11.1-31.8-2-6.3z"/><path fill="#141212" fill-opacity=".5" d="M113 113l-9 72L14 84z"/><path fill="#6a5950" fill-opacity=".7" d="M184.4 20.9l5.3 25.9 16.5-12.2L165.8-16z"/><path fill="#fdfefd" fill-opacity=".5" d="M190 47l-29 12 14-54z"/><path fill="#5c5a5e" fill-opacity=".8" d="M194.6 142.8l14.8 5.6-12-13.2-31-9.9z"/><path fill="#0886aa" fill-opacity=".2" d="M164.2 23.8l-9.7-12.2 23.9.6-7.8 10.8z"/><path fill="#000603" fill-opacity=".5" d="M135.3 49l10.4-98.4 3 .3-10.4 98.5z"/><path fill="#774937" fill-opacity=".3" d="M172 55l18 1-12 16z"/><path fill="#c5bdbf" fill-opacity=".7" d="M129 70.8l6.8 37.1-8.4 2.4-6.5-41.5z"/><circle cx="175" cy="100" r="10" fill="#2f4243" fill-opacity=".6"/><path fill="#cac4b9" fill-opacity=".5" d="M207 113l-4 22-24-13z"/><path fill="#080504" fill-opacity=".6" d="M235.3 125.7L206 183.6l.5-55.2 14.7-66.8z"/><path fill="#c4bec0" fill-opacity=".6" d="M113 99L75 78l21 4z"/><path fill="#585814" fill-opacity=".4" d="M105.1 108.8l9.3 26.4-4.8-35.8 12.3-1.5z"/><path fill="#292927" fill-opacity=".4" d="M100.9 96.7l-23.1 29.2L203.9 185l-102.8-70.8z"/><path fill="#33231e" fill-opacity=".6" d="M223.3 33.1l22 50.4-44.7-37.9 8.7-61.6z"/></g></svg>