<svg xmlns="http://www.w3.org/2000/svg" viewBox="0 0 298 450"><defs/><path fill="#443228" d="M0 0h298v450H0z"/><g transform="translate(.9 .9) scale(1.75781)"><circle r="1" fill="#dcdedd" fill-opacity=".9" transform="matrix(159.885 -.27905 .29496 168.99974 81 113.7)"/><circle r="1" fill="#fafcfe" fill-opacity=".6" transform="rotate(-116.5 33 3.8) scale(46.87798 123.45555)"/><path fill="#642405" fill-opacity=".4" d="M94.6 35.6L84 69.6l17.8 30.4 13.9-26.2z"/><circle r="1" fill="#1b1504" fill-opacity=".2" transform="matrix(83.8011 -16.10379 4.4099 22.94832 169 103.7)"/><circle r="1" fill="#a29b93" fill-opacity=".4" transform="matrix(-35.50908 -83.7733 39.64268 -16.80338 122.6 224.5)"/><circle r="1" fill="#80807e" fill-opacity=".5" transform="matrix(-5.29883 91.89847 -14.97903 -.86369 169 32.1)"/><circle r="1" fill="#eff2f5" fill-opacity=".7" transform="matrix(-5.93183 38.9702 -16.58813 -2.52496 129 57)"/><circle r="1" fill="#e9eaea" fill-opacity=".6" transform="matrix(-9.81074 -18.38228 54.41158 -29.03982 17 178)"/><path fill="#360d00" fill-opacity=".5" d="M112.5 58.8l-4.1 29.7-9-1.3 4.2-29.7z"/><path fill="#c6c4c3" fill-opacity=".6" d="M107 54L71 71l6-87z"/><ellipse cx="44" cy="124" fill="#b2afa8" fill-opacity=".6" rx="94" ry="17"/><ellipse cx="105" cy="168" fill="#aa9f91" fill-opacity=".7" rx="14" ry="40"/><path fill="#f2f4f4" fill-opacity=".6" d="M0 0h62v95H0z"/><path fill="#f4f5f2" fill-opacity=".5" d="M125 161l-15-39 44 36z"/><path fill="#845a47" fill-opacity=".7" d="M111.7 78.8l-10.4-22.1-4.8 53.9 14-22.1z"/><path fill="#864929" fill-opacity=".5" d="M79.5 67.5l14.6-27.4 4.4 2.4-14.6 27.4z"/><path fill="#eeefee" d="M93.6 56.4l13.6-33.6 32.5 8.8-8.5 22.1z"/><path fill="#e2e5e7" fill-opacity=".6" d="M-7 95l89-34 7 30z"/><path fill="#b0b0ae" fill-opacity=".9" d="M167 271l-15-74 33-47z"/><circle r="1" fill="#bcc2c7" fill-opacity=".5" transform="rotate(86.9 35.2 45.4) scale(22.10264 16.40308)"/><circle r="1" fill="#b9bcbe" fill-opacity=".6" transform="matrix(-4.02702 -18.94565 165.30696 -35.13708 35.7 255)"/><path fill="#5c4d2a" fill-opacity=".5" d="M179.3 123.5l-16.3-6.4 6-27.6 6.4-37.2z"/><circle r="1" fill="#e7ecf4" fill-opacity=".2" transform="matrix(-28.15162 5.72751 -9.86882 -48.5068 18 194.8)"/><path fill="#aca499" fill-opacity=".7" d="M129 181l-5-25-76 58z"/><path fill="#cfcbc3" fill-opacity=".5" d="M45 185L99 72 76 198z"/><circle r="1" fill="#b9c0c8" fill-opacity=".4" transform="matrix(-10.94728 .8488 -6.21374 -80.14058 146.8 11)"/><path fill="#f9f8ef" fill-opacity=".5" d="M91 75l11-27-9 1z"/><circle cx="22" cy="116" r="27" fill="#b4b5b1" fill-opacity=".5"/><circle r="1" fill="#eaecec" fill-opacity=".7" transform="matrix(-24.26994 -30.81826 7.47331 -5.88537 116.9 52.7)"/><path fill="#aaa296" fill-opacity=".6" d="M91 135.3l-.6-43.6 15.1 13.7 22.8 105.4z"/><path fill="#643d2b" fill-opacity=".5" d="M84 62h29v6H84z"/><path fill="#cccdca" fill-opacity=".5" d="M115 142l-5-17 56-1z"/><circle r="1" fill="#a0a19f" fill-opacity=".5" transform="rotate(94.7 44.7 109.7) scale(44.83797 11.2312)"/><path fill="#dce0e3" fill-opacity=".5" d="M151 39l-22 60 8-115z"/><circle r="1" fill="#c5c5c3" fill-opacity=".5" transform="rotate(140.8 -1.9 122.1) scale(46.72704 10.37561)"/><path fill="#d4d4d2" fill-opacity=".5" d="M67 159l19-32-102 31z"/><path fill="#a5a39c" fill-opacity=".5" d="M12 126h64v10H12z"/><path fill="#00120c" fill-opacity=".3" d="M102.6 55.8l10.6 5.3-.7 7.9-3.8 5.8z"/><path fill="#fbfcf9" fill-opacity=".5" d="M95 0h16v34H95z"/><circle r="1" fill="#b3b7b5" fill-opacity=".5" transform="matrix(-7.45267 -7.9896 10.7766 -10.05238 116.7 103.7)"/><path fill="#eaecec" fill-opacity=".7" d="M42.2 89.7l8.7 16.4L66 63l-82-33.4z"/><circle r="1" fill="#9c9c98" fill-opacity=".4" transform="rotate(-159.3 93.7 48.3) scale(61.36728 8.39917)"/><circle r="1" fill="#dbdee3" fill-opacity=".5" transform="matrix(3.49442 -43.27946 8.72993 .70486 68.6 45.8)"/><path fill="#b9bbb8" fill-opacity=".5" d="M78 85l-27 8 25 37z"/><path fill="#8a8375" fill-opacity=".5" d="M91.3 217.6l2.9-2 21.7-25.4-23.6 33.9z"/><ellipse cx="10" cy="215" fill="#cccfd1" fill-opacity=".6" rx="41" ry="23"/><path fill="#80533f" fill-opacity=".5" d="M100.5 105.4V102l-5.6-12.2 17.6-24.1z"/><ellipse cx="115" cy="38" fill="#d8dcde" fill-opacity=".6" rx="4" ry="40"/><path fill="#c3c0bd" fill-opacity=".9" d="M126.1 173.6l22.9 12 36-14.2-60.9-3z"/><path fill="#3b1c10" fill-opacity=".4" d="M98 57h5v3h-5z"/><path fill="#aba49b" fill-opacity=".5" d="M74 179l-32 22 11-15z"/><path fill="#f9f9f4" fill-opacity=".4" d="M9.2 191.3l-19.7-1.6 61.7-34.4-42.7 9.3z"/><path fill="#f9fdf2" fill-opacity=".5" d="M91 67l2-3 1 9z"/><path fill="#fffffc" fill-opacity=".3" d="M56.2 45L-7.6 32.4-2.2 5l63.8 12.4z"/><circle r="1" fill="#e4e5e3" fill-opacity=".4" transform="matrix(-15.48706 -5.15186 4.12901 -12.41228 135.7 151.6)"/><path fill="#eaeced" fill-opacity=".6" d="M47 55l-63-33 37 76z"/><path fill="#cdc3b5" fill-opacity=".7" d="M99.7 78.4l-.7.7-6.7-7.5.7-.7z"/><path fill="#f7fcfa" fill-opacity=".5" d="M112 72h9v18h-9z"/><path fill="#fbffff" fill-opacity=".5" d="M91 54h7v7h-7z"/><ellipse cx="169" cy="57" fill="#908e89" fill-opacity=".4" rx="6" ry="52"/><path fill="#fff" fill-opacity=".5" d="M119.8-1.4l14-.2.4 19-14 .2z"/><path fill="#d6dadc" fill-opacity=".7" d="M148 33.2l-28.6-15.8 4.1 4.1 30-10z"/><circle r="1" fill="#e0e4e5" fill-opacity=".5" transform="matrix(3.1243 34.19109 -4.10877 .37545 31.2 14)"/><path fill="#d4d5d2" fill-opacity=".7" d="M-11.1 175.9l95-44.6-16 25.3-83.9-4.9z"/><path fill="#976953" d="M92.9 48.5l-8.6 13.9 4.2 13.5-1.7-9.1z"/></g></svg>