<svg xmlns="http://www.w3.org/2000/svg" viewBox="0 0 300 199"><defs/><path fill="#474747" d="M0 0h300v199H0z"/><g transform="translate(.6 .6) scale(1.17188)"><circle cx="96" cy="65" r="96" fill="#bfbfbf" fill-opacity=".4"/><circle r="1" fill-opacity=".8" transform="rotate(-123.7 48.1 71) scale(53.51994 40.73868)"/><ellipse cx="248" cy="113" fill="#060606" fill-opacity=".8" rx="36" ry="136"/><circle r="1" fill="#111" fill-opacity=".5" transform="matrix(17.14501 78.60923 -14.42821 3.14686 64.6 61.8)"/><circle r="1" fill="#eaeaea" fill-opacity=".5" transform="rotate(110.1 38.2 67.8) scale(32.14324 39.9472)"/><circle r="1" fill="#dedede" fill-opacity=".5" transform="matrix(-55.18114 -14.99238 4.3368 -15.96205 7.2 11.8)"/><path fill="#fff" fill-opacity=".4" d="M186 64l-37 75 66-70z"/><circle r="1" fill="#e4e4e4" fill-opacity=".5" transform="rotate(-87.1 121.5 -98.6) scale(49.24155 6.18923)"/><path fill-opacity=".5" d="M146 116.4l-58.8 6.2-1.1-11 58.7-6.2z"/><ellipse cx="115" cy="137" fill="#dedede" fill-opacity=".4" rx="34" ry="21"/><path fill-opacity=".4" d="M172.6 46.8l3.7 52.9-21 1.5-3.6-52.9z"/><circle r="1" fill="#0c0c0c" fill-opacity=".7" transform="matrix(13.48236 -5.5598 20.77818 50.38651 180.5 0)"/><path fill="#d5d5d5" fill-opacity=".6" d="M162 25.4l14-5.4 24 62.6-14 5.4z"/><circle cx="198" cy="142" r="37" fill="#181818" fill-opacity=".6"/><ellipse cx="49" cy="48" fill-opacity=".4" rx="28" ry="19"/><circle r="1" fill="#e7e7e7" fill-opacity=".4" transform="rotate(-129.7 72.5 -23) scale(26.01962 8.72472)"/><circle r="1" fill="#c6c6c6" fill-opacity=".6" transform="matrix(6.9548 .58401 -4.0192 47.86332 85.4 36.4)"/><path fill="#424242" fill-opacity=".7" d="M26 116L5 29l-14 99z"/><circle r="1" fill-opacity=".4" transform="matrix(-9.04422 25.97273 -8.90084 -3.09945 87.4 101.7)"/><path fill="#f9f9f9" fill-opacity=".4" d="M84.1 154.3l40.8 5-51.7 5.7L56 149.3z"/><path fill="#fcfcfc" fill-opacity=".4" d="M153.2 139.8l14.1 45.2-12.4-75.7 22.4.5z"/><path fill-opacity=".5" d="M76 6L55 47l20 42z"/><path fill-opacity=".6" d="M29 103h16v67H29z"/><ellipse cx="161" cy="1" fill="#040404" fill-opacity=".7" rx="29" ry="4"/><path fill="#242424" d="M57.3-9.3l-22.6-2.4 31.2 84.3-19.7-46.2z"/><path fill-opacity=".5" d="M26 42l16 29-6 21z"/><circle r="1" fill="#f3f3f3" fill-opacity=".4" transform="matrix(3.74431 62.62453 -5.72933 .34256 18.9 17.5)"/><path fill="#050505" fill-opacity=".5" d="M188 45l23 58-7-63z"/><path fill="#cecece" d="M154.7 33.1L135 91.2l6.9 1.9 7.7-20.2z"/><path fill="#424242" fill-opacity=".5" d="M150 58l1 55 40-44z"/><path fill="#c1c1c1" fill-opacity=".5" d="M167 8l16 27-83-35z"/><path fill="#aaa" fill-opacity=".5" d="M47 101h26v34H47z"/><path fill="#444" fill-opacity=".5" d="M153 21h18v58h-18z"/><path fill="#fdfdfd" fill-opacity=".4" d="M28.1 85.7l5.7 17.9 16.4-8.3-45.9 8.3z"/><path fill-opacity=".6" d="M137 177l-15-14 32-21z"/><ellipse cx="49" cy="65" fill="#fbfbfb" fill-opacity=".2" rx="11" ry="18"/><path fill="#313131" fill-opacity=".5" d="M46 85h80v15H46z"/><path fill="#7d7d7d" d="M148.5 180.8l-.9-14.5 16-17.6 1.5 20.9z"/><path fill="#acacac" d="M55.6-5.5L68.8-2l31-14-6.4 37.5z"/><path fill="#3a3a3a" fill-opacity=".6" d="M112.1 8.1L107 30.9l19.5-15.1.1-1.9z"/><path fill="#7b7b7b" fill-opacity=".6" d="M65.1 140.6l54.8-43.8L148 22.4l-18.6 79.4z"/><path fill-opacity=".6" d="M97 118L74 86l2 42z"/><path fill="#494949" fill-opacity=".6" d="M189.7 131.4l-17.6-14.8 30.2-36 17.6 14.8z"/><circle r="1" fill="#d4d4d4" fill-opacity=".5" transform="matrix(-19.44241 -22.05486 12.31562 -10.8568 108.8 52)"/><path fill="#2d2d2d" fill-opacity=".4" d="M43.8 94.5L16.2 40.6l14.5 4.3-.5-60.9z"/><circle cx="71" cy="18" r="11" fill="#424242" fill-opacity=".6"/><path fill="#1b1b1b" fill-opacity=".7" d="M213 34.9l9.8 33.1L271 45.2l-35.6-20.6z"/><path fill="#a4a4a4" fill-opacity=".8" d="M84.4 102.8l3.7 3.7 11.2 2.3 35.3-6.6z"/><circle r="1" fill="#e8e8e8" fill-opacity=".5" transform="rotate(65.8 56.3 163.3) scale(39.22659 3.36834)"/><path fill="#111" fill-opacity=".7" d="M56.9 185l5.7-45.7-6.6 16.4 62.1 29.3z"/><path fill="#e7e7e7" fill-opacity=".4" d="M27.2 23.8l2.5 9.6 11.1-1-48.7 11.3z"/><path fill="#fff" fill-opacity=".7" d="M124.6 12.3l-7.2-3.4 8-17.2 7.2 3.4z"/><path fill="#888" fill-opacity=".8" d="M85.2 125.4l-33.3 10.7 66.1 10.6-14.6-23.4z"/><path fill="#949494" fill-opacity=".5" d="M57 7h8v26h-8z"/><path fill="#bbb" fill-opacity=".9" d="M20.1-16h14l8.6 31.1 5.7 24.6z"/><path fill="#464646" fill-opacity=".8" d="M26.1 86l38.2 18.9 19.2-26.2-51.2 5.8z"/><path fill="#d0d0d0" fill-opacity=".4" d="M40.9 97.3L14 82l21.7 19.5 37.1-13.1z"/><path fill-opacity=".4" d="M92.5 19.2l6.7-10 8.3 5.6-6.7 10z"/><path fill="#c5c5c5" fill-opacity=".5" d="M206.8 29l2.4-34.9 12 .9-2.4 34.9z"/><path fill="#1c1c1c" fill-opacity=".9" d="M163.9 4.2l12.8 3.4 31.6 51.1-4.5 10.7z"/><path fill="#4a4a4a" d="M12.7 125.9l30.7-19.8-14.8.2 11.8-14.8z"/><circle r="1" fill="#7b7b7b" fill-opacity=".5" transform="matrix(-9.9113 -28.7845 3.58671 -1.235 91 66.4)"/><path fill="#969696" d="M121.3 34.6l28.4-24.3-14.8-5.2-17.1 16.8z"/><path fill="#f3f3f3" fill-opacity=".5" d="M158.4 110l7.8 3.7L211 66.2l-53.1 65.4z"/><path fill="#0a0a0a" fill-opacity=".5" d="M140.9 117.1l4.7-14.3-42.3 14.6 57.7-.4z"/></g></svg>