<svg xmlns="http://www.w3.org/2000/svg" viewBox="0 0 298 450"><defs/><path fill="#634a39" d="M0 0h298v450H0z"/><g transform="translate(.9 .9) scale(1.75781)"><ellipse cx="150" cy="91" fill="#c8c6bb" fill-opacity=".5" rx="50" ry="31"/><ellipse cx="18" cy="236" fill="#000300" fill-opacity=".6" rx="165" ry="23"/><circle r="1" fill="#291800" fill-opacity=".6" transform="matrix(-101.49165 27.38455 -13.8409 -51.29662 80 17.8)"/><circle r="1" fill="#8f8a7c" fill-opacity=".5" transform="rotate(170.9 66.5 89.6) scale(120.94478 33.84997)"/><ellipse cx="55" cy="137" fill="#22170c" fill-opacity=".5" rx="89" ry="21"/><path fill="#e1e3e1" fill-opacity=".4" d="M75 101h81v13H75z"/><ellipse cx="113" cy="89" fill="#2a1000" fill-opacity=".8" rx="84" ry="3"/><path fill="#c5c5c2" fill-opacity=".4" d="M15 74h18v46H15z"/><circle r="1" fill="#090300" fill-opacity=".4" transform="matrix(15.12598 118.84774 -16.59072 2.11153 0 147.4)"/><ellipse cx="61" cy="80" fill="#3f220d" rx="29" ry="20"/><path fill="#e1a559" fill-opacity=".5" d="M102.1 86.7L90 80.9l-.9-14.7 42-3.3z"/><circle r="1" fill="#6f767e" fill-opacity=".4" transform="matrix(-.0147 -8.4278 35.8348 -.06254 51.4 47.1)"/><path fill="#0b0700" fill-opacity=".7" d="M40-8l-51 110V-4z"/><path fill="#abaeaf" fill-opacity=".6" d="M155.1 126.3l3.7 29.7-14 1.7-3.6-29.7z"/><ellipse cx="138" cy="247" fill="#594935" fill-opacity=".5" rx="52" ry="21"/><circle r="1" fill-opacity=".6" transform="matrix(.71599 -11.0719 82.22138 5.31702 29.6 224.6)"/><ellipse cx="32" cy="20" fill="#ff9d00" fill-opacity=".3" rx="21" ry="6"/><path fill="#e2dbe0" fill-opacity=".5" d="M95 141l-4 14-8-12z"/><circle r="1" fill="#b29978" fill-opacity=".4" transform="matrix(.02488 -9.21527 98.43194 .2658 159.8 184.8)"/><path fill="#2c1600" fill-opacity=".6" d="M81 115h42v21H81z"/><path fill="#796147" fill-opacity=".5" d="M42 98h30v99H42z"/><path fill="#f68c03" fill-opacity=".3" d="M127.7 11.4L82.5 21.5l-15-1.9 11.4-8.3z"/><path fill="#58422a" fill-opacity=".9" d="M181.7 24.4l3.3 35.4-72.7 3 8.4-31.6z"/><path fill="#16100a" fill-opacity=".7" d="M-16 188.2l10.4-21.8 32.4-48.5 17.4 18.3z"/><path fill="#8e8172" fill-opacity=".5" d="M37 106L6 138V91z"/><ellipse cx="58" cy="124" fill="#140907" fill-opacity=".5" rx="3" ry="49"/><path fill="#622400" fill-opacity=".6" d="M81 84h24v16H81z"/><path fill="#160000" fill-opacity=".6" d="M134.4 19.1L86.9 33.6l-12.4.5-25.3-14.2z"/><ellipse cx="146" cy="105" fill="#b9b1a9" fill-opacity=".5" rx="29" ry="15"/><path fill="#302c2a" fill-opacity=".5" d="M155 85h3v91h-3z"/><path fill="#3c2715" fill-opacity=".5" d="M123 123h19v30h-19z"/><path fill="#d1dbe2" fill-opacity=".5" d="M159 127h6v19h-6z"/><ellipse cx="114" cy="205" fill="#6d614f" fill-opacity=".4" rx="80" ry="15"/><path fill="#ffc359" fill-opacity=".2" d="M108.1 90.8L87.3 33.4l-19.4 8 16.4 16.7z"/><path fill="#b9bec2" fill-opacity=".5" d="M50 169l-18-9 11-4z"/><ellipse cx="44" cy="87" fill="#6c4e38" fill-opacity=".8" rx="4" ry="22"/><path fill="#52412e" fill-opacity=".5" d="M6 151h28v54H6z"/><path fill="#808178" fill-opacity=".7" d="M37.4 244l13.5-3.8 1.7 5.8-13.5 3.8z"/><ellipse cx="116" cy="91" fill="#010000" fill-opacity=".5" rx="21" ry="2"/><ellipse cx="90" cy="171" fill="#151b24" fill-opacity=".2" rx="138" ry="3"/><path fill="#a1998e" fill-opacity=".5" d="M106 64h21v24h-21z"/><path fill="#a77e45" fill-opacity=".5" d="M63 99h7v52h-7z"/><path fill="#242d1f" fill-opacity=".7" d="M0 126h105v4H0z"/><path fill-opacity=".7" d="M59 3L14-16l-30 33z"/><path fill="#9d6c22" fill-opacity=".6" d="M75.4 22.2L86 5.3l7 25.3-8.1-11.2z"/><path fill="#110f13" fill-opacity=".6" d="M34 60h7v44h-7z"/><path fill="#050207" fill-opacity=".5" d="M74 137h5v37h-5z"/><path fill="#b1b5b7" fill-opacity=".5" d="M139.6 169.4l5.1-11.9-17.2 5.7 14.4 16z"/><circle r="1" fill="#060800" fill-opacity=".5" transform="rotate(-88.4 185 40.9) scale(3.17305 93.76993)"/><path fill="#9da4a6" fill-opacity=".5" d="M74 158l-9 14 10 8z"/><circle r="1" fill="#3f2811" fill-opacity=".5" transform="matrix(1.4631 4.80834 -26.98039 8.20965 101.2 122)"/><circle r="1" fill="#292113" fill-opacity=".4" transform="matrix(-38.15945 -7.90244 1.42436 -6.87796 13.1 207.7)"/><ellipse cx="82" cy="155" fill="#6b5d4a" fill-opacity=".6" rx="48" ry="4"/><path fill="#371800" fill-opacity=".5" d="M-16 128l11-32 22 13z"/><path fill="#1a0f02" fill-opacity=".9" d="M151 27.7l6.9-41.7 17.5 18.3-43 10.7z"/><ellipse cx="32" cy="51" fill="#5b5151" fill-opacity=".6" rx="20" ry="8"/><path fill="#f59618" fill-opacity=".4" d="M105.7 87.8l-16.8-5.3 9.3-15.8 7.9 6.7z"/><path fill="#a59681" fill-opacity=".8" d="M130.5 64.4l47.3-6.6 6.5 22.5-79.4 8.7z"/><path fill="#b07879" fill-opacity=".5" d="M119.8 147l-9.9-9.8 4.3-4.3 9.9 10z"/><path fill="#121000" fill-opacity=".5" d="M53 23L41 42l-57-5z"/><path fill="#b2792d" fill-opacity=".6" d="M162 41h8v14h-8z"/><path fill="#756258" fill-opacity=".9" d="M35.2 71L19.4 93.2 6.8 76l2.8-2.8z"/><path fill="#b3c3d9" fill-opacity=".5" d="M77 45h9v5h-9z"/><path fill="#94908a" fill-opacity=".5" d="M90 236h3v20h-3z"/><path fill="#a9a7a6" fill-opacity=".6" d="M106 94h28v19h-28z"/></g></svg>