<svg xmlns="http://www.w3.org/2000/svg" viewBox="0 0 300 199"><defs/><path fill="#6b3a36" d="M0 0h300v199H0z"/><g transform="translate(.6 .6) scale(1.17188)"><circle r="1" fill="#b5b3a7" fill-opacity=".7" transform="matrix(10.03746 136.6842 -68.22136 5.00986 171 45)"/><circle cy="166" r="173" fill="#817c6b" fill-opacity=".7"/><circle r="1" fill="#001343" fill-opacity=".8" transform="rotate(87.3 55.5 189.5) scale(57.51993 26.85757)"/><ellipse cx="188" cy="160" fill="#e6e3e7" fill-opacity=".7" rx="31" ry="71"/><circle r="1" fill="#e4ddbc" fill-opacity=".6" transform="matrix(-24.79663 32.6031 -77.58889 -59.01102 247.5 16.7)"/><ellipse cx="60" cy="36" fill="#0a0000" fill-opacity=".6" rx="47" ry="11"/><path fill="#040000" fill-opacity=".6" d="M11 95l84 56-18-58z"/><circle r="1" fill="#f5e3da" fill-opacity=".4" transform="matrix(-3.10604 16.1582 -78.50507 -15.09078 30.2 151.2)"/><path fill="#180b0e" fill-opacity=".6" d="M156 47h73v18h-73z"/><ellipse cx="53" cy="15" fill="#ffffc7" fill-opacity=".6" rx="25" ry="12"/><path fill="#f4ebaf" fill-opacity=".8" d="M30.2 53l24.4-5.6L52.2 73l-22.3 2.6z"/><circle r="1" fill="#00444b" fill-opacity=".7" transform="matrix(-11.94195 11.21496 -23.77859 -25.32 128.2 160.5)"/><path fill="#fffcd9" fill-opacity=".4" d="M9.3-6.6l7.3 103.8-20 1.4-7.2-103.8z"/><path fill="#fffabb" fill-opacity=".6" d="M66 48l25 4-7 45z"/><path fill="#070000" fill-opacity=".5" d="M16 4h12v77H16z"/><circle r="1" fill="#c8b695" fill-opacity=".7" transform="rotate(-45.6 72.8 -150.8) scale(31.29492 57.80091)"/><path fill="#71464a" fill-opacity=".5" d="M155.1 40.5l25 51.2-69.2 33.8-25-51.2z"/><path fill="#2f140b" fill-opacity=".7" d="M98.7 99.8l5.6-70.4L68.6-16l16.5 38.3z"/><path fill="#d5cbbd" fill-opacity=".7" d="M216.7 1.8l8.4 3-31.8 87.4-8.4-3z"/><circle r="1" fill="#070000" fill-opacity=".7" transform="rotate(-108.1 110.2 -40.8) scale(7.91323 15.19022)"/><circle r="1" fill="#e1ecf3" fill-opacity=".7" transform="matrix(29.31158 8.68249 -7.98105 26.94357 181.8 169.3)"/><path fill="#b18b80" fill-opacity=".6" d="M231 142l-24-30-54 27z"/><path fill="#c2b093" fill-opacity=".7" d="M103.1 70.6l16.1-2.1 5-84.5H99.4z"/><path fill="#decab9" fill-opacity=".4" d="M221.8 103.4l9.6-28.8-82.3 4.1 44.1 26.2z"/><path fill-opacity=".6" d="M151 101l5 20 10-3z"/><path fill="#1c0500" fill-opacity=".8" d="M38-8.2L44.6-1 22.1 20.2 15.3 13z"/><path fill="#cbaf8d" fill-opacity=".4" d="M160 78l-35 15 5 64z"/><path fill="#160b09" fill-opacity=".9" d="M103.7 140.3l-.5 9-29-1.6.6-9z"/><path fill="#0f0000" fill-opacity=".7" d="M129.5 156.5h21v15h-21z"/><path fill="#6b3e30" fill-opacity=".6" d="M45 145L5 118l63-62z"/><path fill="#b7adae" fill-opacity=".6" d="M73 129L9 147l56 33z"/><ellipse cx="95" cy="130" fill="#e0feff" fill-opacity=".4" rx="8" ry="9"/><path fill="#380600" fill-opacity=".6" d="M53 32h14v34H53z"/><ellipse cx="114" cy="115" fill="#002d2c" fill-opacity=".3" rx="17" ry="16"/><ellipse cx="84" cy="86" fill="#b2a293" fill-opacity=".7" rx="22" ry="5"/><path fill="#ffffb9" fill-opacity=".5" d="M80 15L66 25l22 1z"/><path fill="#211310" fill-opacity=".7" d="M173.3 49.9l14.3-9.5 4.8 42.2 2.7 3.1z"/><path fill="#b2a089" d="M4.8 140.6l5.6-117.8L31.5-16-16 21.3z"/><path fill="#150000" fill-opacity=".4" d="M15 17h8v68h-8z"/><path fill="#976f5f" d="M27.5 116l9.1-6.2 16 39.6L18 132z"/><path fill="#020005" fill-opacity=".6" d="M66 99l23 29-42 1z"/><circle r="1" fill="#97605f" fill-opacity=".7" transform="matrix(-4.39008 -7.75945 17.72628 -10.02905 144.8 145)"/><path fill-opacity=".5" d="M42 106l-19 9-2-18z"/><circle r="1" fill="#c9bda1" fill-opacity=".6" transform="matrix(-6.71765 12.39034 -43.19061 -23.4166 191.2 22.3)"/><path fill="#030000" fill-opacity=".5" d="M155 87h7v32h-7z"/><circle r="1" fill="#140300" fill-opacity=".5" transform="matrix(-13.5358 -3.5006 1.54398 -5.97012 220.1 58.8)"/><path fill="#c2bfb5" fill-opacity=".7" d="M198.8 61.5l-9.4-5.2 22.1 86.7-8.6-139.9z"/><path fill="#310e05" fill-opacity=".5" d="M12 26h84v23H12z"/><circle r="1" fill="#00757a" fill-opacity=".5" transform="matrix(9.56817 35.7089 -9.9258 2.6596 119.3 157.4)"/><path fill="#e9e8d8" fill-opacity=".6" d="M26 21h52v5H26z"/><path fill="#3f0400" fill-opacity=".2" d="M105 90.2L80.8 37.6 137.3 82l-54 46.2z"/><path fill="#bac8d1" fill-opacity=".7" d="M222.2 185l-27.1-43.9 15.3-19.7 14.3 52.8z"/><path fill="#f9ffff" fill-opacity=".4" d="M159 104l55-11-48 24z"/><path fill="#6c5345" fill-opacity=".6" d="M80.6 185L61 148.4l1.7-30.7 3.7 22.7z"/><path fill="#fbd4cc" fill-opacity=".5" d="M211 100.8l-9.7 3.5-25.4-47.7-7.4 14.2z"/><path fill="#dcc89e" fill-opacity=".5" d="M87 146l-1 20 23-11z"/><path fill="#001541" fill-opacity=".6" d="M210.2 111.3l53.3 73.7-6.2-109.9-6-8.2z"/><path fill="#000600" fill-opacity=".5" d="M23.3 132.3l5.8-7.5-20.9 6.7.9-18.5z"/><path fill="#7e6f87" fill-opacity=".6" d="M118 46h45v25h-45z"/><path fill="#dde2c5" fill-opacity=".6" d="M132.3 128.7l20-5.6L137 109l1.5 31z"/><path fill="#10214f" fill-opacity=".9" d="M237.4 60.8l27.3 18.7-1.2 38.6-35.6-36z"/><path fill="#290200" fill-opacity=".3" d="M202.4 53l9.6 5.9 13.6 17.6-4.9 18z"/><circle r="1" fill-opacity=".4" transform="rotate(-144.5 37.6 -12) scale(25.13879 6.30172)"/><path fill="#bf7e6a" fill-opacity=".5" d="M190 108h16v25h-16z"/><path fill="#fafbeb" fill-opacity=".5" d="M67 55l2 13 12-16z"/></g></svg>