<svg xmlns="http://www.w3.org/2000/svg" viewBox="0 0 300 199"><defs/><path fill="#3d2923" d="M0 0h300v199H0z"/><g transform="translate(.6 .6) scale(1.17188)"><circle r="1" fill="#ebece9" fill-opacity=".7" transform="matrix(-117.09747 22.42465 -47.96199 -250.4489 53.1 87)"/><circle r="1" fill="#fcffff" fill-opacity=".6" transform="rotate(-12.7 195.8 -561.5) scale(31.44357 103.08513)"/><circle r="1" fill="#d4d8cf" fill-opacity=".6" transform="matrix(-3.80987 50.35373 -13.17493 -.99684 255 118.5)"/><circle r="1" fill="#652b15" fill-opacity=".7" transform="matrix(13.18553 19.32927 -22.0686 15.05418 49.2 0)"/><path fill="#745d3d" fill-opacity=".4" d="M47.8 194l-26.7-50.3L118 92l26.8 50.3z"/><circle r="1" fill="#000220" fill-opacity=".6" transform="matrix(14.9588 -120.4813 40.64965 5.047 213.5 35.4)"/><ellipse cx="173" cy="26" fill="#274c8f" fill-opacity=".7" rx="12" ry="57"/><circle r="1" fill="#eaf5fb" fill-opacity=".6" transform="matrix(8.81837 -53.85056 24.6891 4.043 10.2 78.5)"/><path fill="#711900" fill-opacity=".4" d="M88 12l13 62-30-55z"/><circle r="1" fill="#1d0400" fill-opacity=".6" transform="rotate(109.1) scale(54.80333 12.0786)"/><circle r="1" fill="#020b1f" fill-opacity=".8" transform="matrix(12.78336 -29.76336 26.57893 11.41564 214.3 142.7)"/><path fill="#895438" fill-opacity=".5" d="M120 103L95 54l13 91z"/><ellipse cx="134" cy="28" fill="#f3f9fc" fill-opacity=".6" rx="25" ry="59"/><ellipse cx="154" cy="153" fill="#b5bdca" fill-opacity=".4" rx="30" ry="59"/><circle cx="234" cy="35" r="41" fill="#000208" fill-opacity=".7"/><path fill="#522f12" fill-opacity=".4" d="M86 2.4l2.4 13.8 18.3-14.3 63.8-8.7z"/><path fill="#a6a29b" fill-opacity=".6" d="M238.4 185L271 49.5l-35.2 53.9L271 185z"/><circle r="1" fill="#e0e2dd" fill-opacity=".5" transform="matrix(8.9328 37.88812 -13.41785 3.1635 80 70.2)"/><path fill="#afada2" fill-opacity=".5" d="M105 114L10-16l37 163z"/><path fill="#315ba2" fill-opacity=".5" d="M156-11l5 48 18 9z"/><circle r="1" fill="#9d9b98" fill-opacity=".4" transform="matrix(1.2584 19.03575 -112.97593 7.46848 72.5 169)"/><path fill="#907150" fill-opacity=".5" d="M127 131l-68 28 63-60z"/><path fill="#f7f8f6" fill-opacity=".6" d="M91 10h62v27H91z"/><circle r="1" fill="#0c2147" fill-opacity=".5" transform="matrix(6.62 -.42557 4.53828 70.59513 184 108)"/><circle r="1" fill="#080a16" fill-opacity=".7" transform="rotate(177.5 104.2 50) scale(29.47512 54.02823)"/><ellipse cx="45" cy="137" fill="#9e9c93" fill-opacity=".4" rx="25" ry="65"/><ellipse cx="233" cy="148" fill="#0c142b" fill-opacity=".7" rx="10" ry="49"/><ellipse cx="151" cy="113" fill="#d6dbe0" fill-opacity=".4" rx="23" ry="33"/><path fill="#b2afae" fill-opacity=".7" d="M184.4 185l-3.1-42.1-57-1.4-19 12.9z"/><ellipse cx="16" cy="60" fill="#ebf0f7" fill-opacity=".2" rx="23" ry="42"/><path fill="#344f84" fill-opacity=".8" d="M156.9-16l10.9 95.4 2.2 13.2 9.7-44.6z"/><path fill="#391e05" fill-opacity=".3" d="M168.4-5.4l-34.4.8L88.8 9l41.6-25z"/><path fill="#511900" fill-opacity=".2" d="M57 32l-19-4 20-44z"/><path fill="#9e9c90" fill-opacity=".6" d="M6.5-12.6l8.3 6.3 41.8 49.4L7.9 9.7z"/><circle r="1" fill="#c8c8c2" fill-opacity=".4" transform="matrix(-.55197 3.56549 -43.20784 -6.68893 96 109)"/><path fill="#d2f0ff" fill-opacity=".2" d="M10.9 158.3l26-1.8-28.6-55.3 2.8 83.8z"/><path fill="#915944" fill-opacity=".5" d="M89.8 36.6l28.9 68-6.5 2.8-28.9-68z"/><ellipse cx="113" cy="95" fill="#e4edf1" fill-opacity=".3" rx="40" ry="4"/><path fill="#d3d5cb" fill-opacity=".6" d="M81-6l6 18-17 10z"/><path fill="#102142" fill-opacity=".6" d="M202-16h-23l3 81z"/><path fill="#92795c" fill-opacity=".5" d="M76 160l60-33-35-18z"/><path fill="#e0eaf1" fill-opacity=".4" d="M161.6 46.5l-57.9 28.2 38.3 36.5L169 70z"/><path fill="#723f30" fill-opacity=".7" d="M-16-12.4l69.8 25.2L87.2-16 73.7 7.4z"/><path fill="#ecf1e8" fill-opacity=".2" d="M242.6 116.2l25.1-13.7-5.2-42.9-26.7 49.9z"/><path fill="#8f8473" d="M26.1 141.6l21.7 9.6 17.7-2.7-12-6.7z"/><circle r="1" fill="#1b356f" fill-opacity=".5" transform="matrix(2.94505 -.55244 9.87678 52.65257 180.8 131.7)"/><path fill="#00000a" fill-opacity=".4" d="M9 11l-25-2v43z"/><path fill="#dad6ce" fill-opacity=".5" d="M104 42.5l19.9 61L90.5 35l-5.3-24.8z"/><path fill="#99a0aa" fill-opacity=".6" d="M11.2 157.7l-9-37.3-18.2 54.5 93.3-5.8z"/><circle r="1" fill="#f1f6f5" fill-opacity=".3" transform="rotate(77.5 7.7 71.7) scale(14.79132 8.55168)"/><path fill="#8c847c" fill-opacity=".6" d="M243 136h13v34h-13z"/><path fill="#500601" fill-opacity=".1" d="M126.7 93.5l2.2 24.1-42.8-49 38.9 34.8z"/><path fill="#865135" fill-opacity=".5" d="M85 17l-10 7 21 37z"/><path fill="#030818" fill-opacity=".5" d="M190 147h54v23h-54z"/><path fill="#aaa498" fill-opacity=".7" d="M45.5 99.9L16.3 148l16.9-8 63.5-16z"/><path fill="#b0ada2" fill-opacity=".7" d="M70.1 10.1l5 19.2L46.5 39l-12.9 9.9z"/><path fill="#f1f3f3" fill-opacity=".7" d="M142.1 71.3L160.6-16 121.1 3.2 91.6 8.8z"/><path fill="#bec0c0" fill-opacity=".5" d="M32.5 114.2l20.7-77.7L36 53.4 11.5 155.9z"/><path fill="#cbcbce" fill-opacity=".5" d="M134.2 123.1l-17.8-6.6 56.5-6.9-40.2 41.5z"/><path fill="#cdcac0" fill-opacity=".2" d="M105.3 90.9l-12.4 44.7-8.6-14.3-37.8-34.1z"/><path fill="#e4e8ec" fill-opacity=".4" d="M34 35L14 141-8 58z"/><path fill="#785b3f" fill-opacity=".5" d="M99.3 121.6l18.3 4.5 16.7 1-19.3-9z"/><path fill="#fffffe" fill-opacity=".6" d="M94 4l17-20-28 8z"/><path fill="#a1927d" fill-opacity=".4" d="M109.9 174.8l16.3-49.2-29.3 18.5-51.3 6.4z"/><ellipse cx="14" cy="28" fill="#d2d6d8" fill-opacity=".5" rx="5" ry="20"/></g></svg>