<svg xmlns="http://www.w3.org/2000/svg" viewBox="0 0 300 199"><defs/><path fill="#404040" d="M0 0h300v199H0z"/><g transform="translate(.6 .6) scale(1.17188)"><ellipse cx="170" cy="25" fill="#ccc" fill-opacity=".6" rx="116" ry="61"/><circle r="1" fill="#f6f6f6" fill-opacity=".6" transform="matrix(-21.6452 10.48761 -20.67378 -42.66825 13.7 118.3)"/><circle r="1" fill="#050505" fill-opacity=".6" transform="matrix(143.77595 34.39555 -9.3833 39.2229 172.9 145.6)"/><circle r="1" fill="#fff" fill-opacity=".7" transform="matrix(-5.68118 -40.4237 7.46193 -1.0487 0 22.8)"/><ellipse cx="48" cy="141" fill="#999" fill-opacity=".9" rx="23" ry="20"/><path fill="#fff" fill-opacity=".6" d="M218 72l8.2 20.3-24.1 9.8-8.3-20.4z"/><circle r="1" fill="#727272" fill-opacity=".8" transform="matrix(62.33027 -41.70955 14.19155 21.2077 86.8 49.6)"/><circle r="1" fill="#d3d3d3" fill-opacity=".5" transform="matrix(7.6904 1.1082 -3.1851 22.10304 152 108.2)"/><ellipse cx="216" cy="21" fill="#ddd" fill-opacity=".5" rx="61" ry="24"/><path fill="#030303" fill-opacity=".7" d="M215 61.6l-12 7.9-1.1-44.7 14.8-.1z"/><circle r="1" fill="#c4c4c4" fill-opacity=".9" transform="matrix(-10.98205 12.3509 -14.52925 -12.91898 127.4 39.6)"/><circle r="1" fill="#070707" fill-opacity=".4" transform="matrix(3.88827 31.2169 -7.6295 .9503 150.4 30.3)"/><path fill-opacity=".5" d="M227 65h29v105h-29z"/><path fill="#fff" fill-opacity=".5" d="M61.2 25.9l-9.8-46 27.4-5.8 9.8 46z"/><path fill="#fff" fill-opacity=".6" d="M15 88l-31 26 34 48z"/><path fill="#060606" fill-opacity=".4" d="M173.3 68.5l26.8 20.2-2.9 23.3L147 87z"/><circle r="1" fill="#464646" fill-opacity=".6" transform="matrix(7.56378 -13.20711 42.82803 24.52785 86.1 66.6)"/><circle r="1" fill="#eaeaea" fill-opacity=".5" transform="matrix(-9.62887 1.05684 -3.44344 -31.37306 166.6 44.5)"/><path fill="#969696" fill-opacity=".5" d="M33 62h51v31H33z"/><ellipse cx="32" cy="3" fill="#050505" fill-opacity=".5" rx="14" ry="60"/><path fill="#f3f3f3" fill-opacity=".4" d="M151.2 101.4l11.5 6.2-34.5-24.3 20.7-12.7z"/><path fill="#3c3c3c" fill-opacity=".7" d="M68.1 26.7l39.8 18.6-7.6-61.3-6.2 39.5z"/><path fill="#3f3f3f" fill-opacity=".6" d="M117.7-6.2L152.5 3l-6.2 23.1-34.8-9.3z"/><path fill-opacity=".5" d="M66 161l27 12-13-82z"/><path fill-opacity=".4" d="M33 131l5-36 103-7z"/><ellipse cx="12" cy="46" fill="#707070" fill-opacity=".5" rx="6" ry="40"/><path fill-opacity=".6" d="M177 27h3v34h-3z"/><path fill="#0f0f0f" fill-opacity=".4" d="M55 13l9 69-17-30z"/><circle r="1" fill="silver" fill-opacity=".7" transform="matrix(-5.77647 -.41406 .30389 -4.23946 34 109.2)"/><path fill="#fcfcfc" fill-opacity=".5" d="M72 63.4l-4 .9-12-51.7 4-.9z"/><ellipse cx="145" cy="149" fill="#a2a2a2" fill-opacity=".4" rx="3" ry="57"/><path fill="#e7e7e7" fill-opacity=".4" d="M235-16l8 86-27-22z"/><path fill="#535353" d="M92.1 169.4l.1 3.6 1.9-35.1-13.9-78.8z"/><ellipse cx="216" cy="143" fill="#030303" fill-opacity=".4" rx="85" ry="29"/><path fill="#d3d3d3" fill-opacity=".5" d="M44 87.8l-3-42 7.8 15.4-18.2 3.2z"/><path fill="#141414" fill-opacity=".6" d="M221.2 66.1l2.2-5.4-13.5-7.7-11.4 10.6z"/><path fill="#fff" fill-opacity=".6" d="M181 17h5v57h-5z"/><circle r="1" fill="#9f9f9f" fill-opacity=".4" transform="rotate(-26.2 332.3 -20.3) scale(31.3323 17.33698)"/><ellipse cx="2" cy="40" fill="#fff" fill-opacity=".7" rx="5" ry="19"/><path fill="#dbdbdb" fill-opacity=".6" d="M184 0h44v25h-44z"/><path fill="#5c5c5c" fill-opacity=".8" d="M234 46.3l37 1.3-23.4 54.6L271 69.9z"/><path fill-opacity=".2" d="M165.6 105.1l-31.8-46.2 14.5 4.7.9-61z"/><path fill="#cfcfcf" fill-opacity=".5" d="M244 54l-43 47-7-24z"/><path fill="#0f0f0f" fill-opacity=".5" d="M202.2 43.6l12.1 20-3-39.5 15.7 5z"/><path fill="#070707" fill-opacity=".5" d="M93 91h41v79H93z"/><path fill="#707070" fill-opacity=".4" d="M170 72.3l3 57-9 .4-3-57z"/><path fill="#d6d6d6" fill-opacity=".4" d="M128.3 32.1l-31.9 36 21.5-55.6L89.8-16z"/><path fill="#262626" fill-opacity=".6" d="M5.5 10.9L9 55.4l9.7-56L5.2-16z"/><path fill="#a8a8a8" fill-opacity=".7" d="M12.6 67.9l-27.4 57.4 29.6-72.9 3.9 15z"/><path fill="#070707" fill-opacity=".5" d="M93.2 149.5l-53 35.5-56.2-52.4 17.8 42.5z"/><ellipse cx="193" cy="29" fill="#e3e3e3" fill-opacity=".4" rx="6" ry="53"/><path fill="#7d7d7d" fill-opacity=".5" d="M145 132l-16-26 6-12z"/><path fill-opacity=".4" d="M185 17.4l-4 .2-2-35 4-.2z"/><circle r="1" fill="#ddd" fill-opacity=".5" transform="matrix(19.02557 .9216 -.12593 2.5996 32.6 91.3)"/><path fill="#343434" fill-opacity=".6" d="M186 35h2v51h-2z"/><path fill="#cdcdcd" fill-opacity=".7" d="M54.5-15.6l10.1 60.9 22.7-61 10.1 44.8z"/><path fill="#131313" fill-opacity=".5" d="M115.5 25.2l-16.6 7-2.4-5.4 16.6-7z"/><ellipse cx="166" cy="12" fill="#bdbdbd" fill-opacity=".7" rx="6" ry="69"/><path fill="#cecece" fill-opacity=".3" d="M111 77.8l6.6 6 12.8 2.6 42.7-22.3z"/><path fill="#040404" fill-opacity=".9" d="M26.3 94.3h13.2l43.7 2.1-10.8 30.3z"/><path fill="#343434" fill-opacity=".6" d="M-16 45.4l53.6 38.4L22.7 87l-3.5-6.2z"/><path fill="#4c4c4c" fill-opacity=".5" d="M141 76.7l-.6-40.2-7.8 28.6 15.2 1.1z"/><path fill="#313131" fill-opacity=".4" d="M112.5 61.1L28.2 96.4l73.1-20.5 8.1-32.2z"/><path fill="#e7e7e7" fill-opacity=".5" d="M104.2 69.5l27.5-17.6 7.5-33.7-5.3 43.5z"/><path fill="#e2e2e2" fill-opacity=".5" d="M109 20l-8-7 16-29z"/></g></svg>