<svg xmlns="http://www.w3.org/2000/svg" viewBox="0 0 298 450"><defs/><path fill="#573429" d="M0 0h298v450H0z"/><g transform="translate(.9 .9) scale(1.75781)"><circle cx="104" cy="216" r="221" fill="#27000f" fill-opacity=".6"/><circle r="1" fill="#7c73d6" fill-opacity=".6" transform="matrix(37.93281 1.28902 -.83966 24.70914 96.2 229.2)"/><circle cx="112" cy="88" r="55" fill="#810f11" fill-opacity=".6"/><circle r="1" fill="#080400" fill-opacity=".7" transform="rotate(25 -446.3 186.8) scale(24.60048 97.01616)"/><ellipse cx="35" cy="69" fill="#070100" fill-opacity=".6" rx="24" ry="70"/><circle r="1" fill="#ff0028" fill-opacity=".4" transform="rotate(12.8 -268 352.5) scale(10.45996 24.39633)"/><circle cx="122" cy="51" r="5" fill="#bdddfe" fill-opacity=".8"/><circle r="1" fill="#020000" fill-opacity=".7" transform="rotate(14.7 -800.5 768.9) scale(26.19801 159.96963)"/><circle r="1" fill="#aea7ed" fill-opacity=".7" transform="rotate(78.7 -33.7 27.6) scale(7.45232 7.91332)"/><circle r="1" fill="#0a0a03" fill-opacity=".5" transform="rotate(-60.2 71 -95) scale(28.97486 59.41878)"/><path fill="#695ab8" fill-opacity=".5" d="M59 222h78v28H59z"/><path fill="#ffff75" fill-opacity=".5" d="M29.5 140h15v6h-15z"/><circle r="1" fill="#b86e33" fill-opacity=".5" transform="rotate(84.8 9.9 42.5) scale(3.7687 25.62336)"/><circle r="1" fill="#453249" fill-opacity=".6" transform="rotate(115.9 -10.2 140.9) scale(11.76765 33.26154)"/><circle r="1" fill-opacity=".6" transform="matrix(.09862 -5.65005 44.52746 .77723 77.4 255)"/><path fill="#ac5b4a" fill-opacity=".4" d="M107 72.5h16v55h-16z"/><path fill="#c1732e" fill-opacity=".5" d="M14.3 14.5L36-6 .4-16l-13.9 30.5z"/><path fill="#080303" fill-opacity=".9" d="M81.6 86.8l-1.5 14.8 1.9 72.9-32.3 1.7z"/><path fill="#756492" fill-opacity=".5" d="M67 175h12v13H67z"/><path fill="#170d16" fill-opacity=".6" d="M0 186h93v25H0z"/><path fill="#381512" fill-opacity=".9" d="M88.5 30.5l-5.3 28.2L126.9 45l-6.3-61z"/><circle r="1" fill="#5c1307" fill-opacity=".6" transform="matrix(14.02623 -34.08853 6.13058 2.52252 57.1 137)"/><ellipse cx="160" cy="71" fill="#66010a" fill-opacity=".7" rx="10" ry="35"/><path fill="#ad80b7" fill-opacity=".4" d="M98.7 207.5l5.5 19.3-26.9 7.7-5.5-19.3z"/><ellipse cx="18" cy="110" fill="#290b08" fill-opacity=".8" rx="9" ry="98"/><circle r="1" fill="#3d0a00" fill-opacity=".4" transform="matrix(-16.955 -15.48204 42.89809 -46.9794 137.6 145.4)"/><ellipse cx="116" cy="208" fill="#8a6383" fill-opacity=".6" rx="10" ry="7"/><path fill="#000812" fill-opacity=".6" d="M23 26l40 39-79-24z"/><path fill="#000001" fill-opacity=".7" d="M83-16l25 40-31 1z"/><circle r="1" fill="#92582b" fill-opacity=".6" transform="rotate(176.8 40.9 16.2) scale(53.4985 1)"/><circle cx="24" cy="238" r="32" fill="#0c0302" fill-opacity=".7"/><circle r="1" fill="#000202" fill-opacity=".8" transform="matrix(11.08287 5.0787 -7.26649 15.85709 137.1 10.7)"/><path fill="#058aff" fill-opacity=".5" d="M24 56.7l1-8 5 .6-1 8z"/><circle r="1" fill="#551811" fill-opacity=".5" transform="matrix(1.02104 18.85293 -40.24034 2.17934 120.2 139)"/><path fill="#59539b" fill-opacity=".5" d="M109 223h22v29h-22z"/><path fill="#1a131a" fill-opacity=".3" d="M104.2 223.8l66.7-32.8-35.5 50.2-37.6-39.3z"/><path fill="#b18d85" fill-opacity=".5" d="M109.3 76l2.4 44h-1l-2.4-44z"/><path fill="#c5001f" fill-opacity=".5" d="M75 101l10-59-22 10z"/><path fill="#ce854b" fill-opacity=".5" d="M59.2 1.7L42.8 6l-2-7.8L57.2-6z"/><path fill="#2b0301" fill-opacity=".6" d="M95 90h9v103h-9z"/><path fill="#c2a9e4" fill-opacity=".6" d="M98.3 198l-1.6 18h-1l1.6-18z"/><path fill="#855127" fill-opacity=".5" d="M54.7 33l59.4-6.3-102.4-1.3.9-5.6z"/><path fill="#512d1b" fill-opacity=".8" d="M151.4 20.9l25.1 1.5-7.2-32.3-14.8 6.3z"/><ellipse cx="135" cy="126" fill="#1b0200" fill-opacity=".3" rx="6" ry="117"/><path fill="#050000" fill-opacity=".7" d="M50 139L63 38 30 50z"/><path fill="#ff781a" fill-opacity=".2" d="M31.9 138.4l-1.2 17.4 26.3-7.9 6.2-12.2z"/><circle r="1" fill="#593245" fill-opacity=".4" transform="matrix(4.74854 -.54103 8.0776 70.8962 3 144.8)"/><ellipse cx="46" cy="20" fill="#000708" fill-opacity=".6" rx="72" ry="3"/><path fill="#6f1217" fill-opacity=".7" d="M127.6 54.7l-9.7 47.8L105.7 38l-2.6 15.1z"/><path fill="#f6faff" fill-opacity=".5" d="M0 55l7 3-2-10z"/><path fill="#a77357" fill-opacity=".3" d="M52.7 15.6L71.5 3.7l10.1 14.2h-8.5z"/><path fill="#510b0a" fill-opacity=".3" d="M23 66l3 77-40-94z"/><path fill="#5b3626" fill-opacity=".6" d="M102 19.2l-1-15 21-1.4 1 15z"/><ellipse cx="95" cy="47" fill-opacity=".6" rx="6" ry="10"/><path fill="#000003" fill-opacity=".5" d="M75 7L26 3l-1 15z"/><path fill="#ac0011" fill-opacity=".3" d="M55.4 121.3l37.4-54.5 5.7 47.7-38-62.8z"/><path fill="#694d64" fill-opacity=".6" d="M74 212h61v5H74z"/><path fill="#fff" fill-opacity=".5" d="M39 143l5-3-1 4z"/><path fill="#d9864e" fill-opacity=".4" d="M17 19L5 25l18-3z"/><path fill="#770006" fill-opacity=".6" d="M98.2 40l-28-.6-3.4 15.3 11.6-2.4z"/><ellipse cx="27" cy="150" fill="#0d0301" fill-opacity=".7" rx="3" ry="94"/><path fill="#705c93" fill-opacity=".5" d="M143 174h8v7h-8z"/><path fill="#020404" fill-opacity=".8" d="M42.4 27.8l-10.2 1.3-8.4-12.6L34.3-16z"/><path fill="#2c3ba4" fill-opacity=".3" d="M19.9 53.3L-16 80 9.7 53.1-16 37.7z"/><path fill="#6c54b0" fill-opacity=".5" d="M58 223h59v25H58z"/></g></svg>