<svg xmlns="http://www.w3.org/2000/svg" viewBox="0 0 300 199"><defs/><path fill="#4e3e27" d="M0 0h300v199H0z"/><g transform="translate(.6 .6) scale(1.17188)"><circle r="1" fill="#c6a893" fill-opacity=".9" transform="matrix(66.98382 126.67552 -40.16044 21.23614 47.6 43)"/><ellipse cx="191" cy="4" fill="#e5ccb5" fill-opacity=".6" rx="47" ry="28"/><ellipse cx="128" cy="58" fill="#bd8786" fill-opacity=".6" rx="26" ry="42"/><ellipse cx="176" cy="130" fill="#000221" fill-opacity=".7" rx="28" ry="104"/><path fill="#e7f6ff" fill-opacity=".6" d="M-8.7-8L34-22.5 54.7 38 12 52.6z"/><circle r="1" fill="#bb815f" fill-opacity=".5" transform="matrix(-29.18928 14.22563 -33.6127 -68.96923 235.3 52.1)"/><path fill="#794a2a" fill-opacity=".6" d="M85 87l-22 98L9 89z"/><circle r="1" fill="#3b2832" fill-opacity=".5" transform="matrix(3.51564 42.32324 -25.09953 2.08493 135 115.6)"/><circle r="1" fill="#cdab88" fill-opacity=".6" transform="rotate(158.3 46.8 9) scale(77.24396 11.20994)"/><circle r="1" fill="#f1f1ec" fill-opacity=".6" transform="rotate(-175.1 74.6 28) scale(5.21443 18.33644)"/><path fill="#af907c" fill-opacity=".7" d="M25 162h98v8H25z"/><path fill="#fff" fill-opacity=".5" d="M144 130l1-20 13 23z"/><ellipse cx="228" cy="158" fill="#0f090e" fill-opacity=".7" rx="97" ry="13"/><path fill="#f0fdff" fill-opacity=".4" d="M121.3 159.8l-23.1-55.5-14.6 5.8-11.5 31.7z"/><ellipse cx="133" cy="66" fill="#00001a" fill-opacity=".6" rx="7" ry="19"/><circle r="1" fill="#efe5c3" fill-opacity=".4" transform="matrix(-10.24933 -.01789 .09248 -52.98652 207.2 14.6)"/><path fill="#dca281" fill-opacity=".6" d="M202 84h9v28h-9z"/><path fill="#c7997d" fill-opacity=".4" d="M11 48h116v61H11z"/><circle r="1" fill="#382506" fill-opacity=".5" transform="matrix(17.21328 6.89352 -9.22378 23.03199 49.8 140.4)"/><path fill="#5f140e" fill-opacity=".5" d="M113 102L66 78l13 24z"/><path fill="#ac6401" fill-opacity=".5" d="M204 50l53-66-39 18z"/><circle r="1" fill="#531400" fill-opacity=".6" transform="rotate(-111.2 144.7 -28) scale(40.58963 8.46468)"/><path fill="#b6a5a2" fill-opacity=".7" d="M159.2 24.6l3.9-33-9.5 69.5-14.4-3.1z"/><path fill="#1e0200" fill-opacity=".5" d="M121.4 26.6l-5.1-41.2 27.6 25.5-45.1 43.8z"/><ellipse cx="39" cy="74" fill="#e8fafb" fill-opacity=".5" rx="5" ry="26"/><path fill="#efe4d6" fill-opacity=".7" d="M125.3 68.5l1.2 10.1-28.8 2.9 26.3-14z"/><path fill="#9c5236" fill-opacity=".6" d="M227.8 129.2l15.4 18.4-25.9 4.6-11.4-65.9z"/><path fill="#e2c58a" fill-opacity=".5" d="M21 127h16v11H21z"/><path fill="#19020a" fill-opacity=".5" d="M107.1 3.8l4 39.6-23.6-7 6.9-26.1z"/><path fill="#f8f8f3" fill-opacity=".6" d="M14 0h8v78h-8z"/><circle r="1" fill="#000003" fill-opacity=".4" transform="matrix(-29.56398 16.1188 -2.40123 -4.40416 131.2 113.8)"/><path fill="#efdacd" fill-opacity=".6" d="M135 89h8v12h-8z"/><circle r="1" fill="#997158" transform="matrix(-16.80612 8.78836 -6.61215 -12.64451 75.7 167.4)"/><path fill="#121220" fill-opacity=".8" d="M143.1 126.1L110 90.8l110.5 59.8-62.1-120.1z"/><path fill="#080501" fill-opacity=".5" d="M34 117l-5-40-4 20z"/><path fill="#af8e7d" fill-opacity=".6" d="M18 154h19v16H18z"/><path fill="#0e111e" fill-opacity=".7" d="M137 135h77v34h-77z"/><path fill="#090000" fill-opacity=".5" d="M-16 83l29-3-20 85z"/><path fill="#ba9164" fill-opacity=".7" d="M45.7 57l39-73.3L102.3-7l-39 73.2z"/><path fill="#dcb36d" fill-opacity=".5" d="M51 23l-3 74 26 27z"/><circle r="1" fill="#340a00" fill-opacity=".6" transform="matrix(-7.18274 5.21836 -21.45673 -29.53383 251 138.7)"/><ellipse cx="113" cy="24" fill="#eba18a" fill-opacity=".6" rx="5" ry="8"/><path fill="#f3fcf7" fill-opacity=".5" d="M80 45h4v42h-4z"/><circle cx="206" r="14" fill="#dbe4ec" fill-opacity=".5"/><path fill="#a59d9a" fill-opacity=".6" d="M204 40l9-27-89-18z"/><path fill="#bdbfc4" fill-opacity=".5" d="M49.2-15.2L69.5-.5 34.8 47.2 14.5 32.5z"/><path fill="#090e00" fill-opacity=".6" d="M-14.8 129.3l23.6 15.5-6.9 29.8L39.7 185z"/><path fill="#fff" fill-opacity=".6" d="M39.1-4.3L29 19.7 6.9 10.3l10.1-24z"/><ellipse cx="186" cy="58" fill="#0b0d1c" fill-opacity=".6" rx="14" ry="27"/><path fill="#7a3f27" fill-opacity=".5" d="M134 163L98 94l38 31z"/><circle r="1" fill="#6f4a35" fill-opacity=".7" transform="rotate(174.6 124.5 24.7) scale(34.2398 30.81525)"/><path fill="#450801" fill-opacity=".2" d="M81.6 57.6L93.8-.2l18.9 40.7 4.5 17.2z"/><path fill="#5c4821" fill-opacity=".7" d="M5.5 93.4l34.4 23.1 4.7-30.3 5.5 59.6z"/><path fill="#f6f2ef" fill-opacity=".5" d="M99.7 96.5L93 83l7.2-3.5L107 93z"/><path fill="#3a0300" fill-opacity=".3" d="M23.3 165.2l46.9-17.9 25.5-84.4-6.4 39.8z"/><path fill="#705a44" fill-opacity=".2" d="M31.5 24.7L29 131.9l-11.9-9.4 5.4-91.9z"/><circle r="1" fill="#b6864a" fill-opacity=".5" transform="matrix(-4.6957 1.72273 -14.23458 -38.79955 4 52.4)"/><path fill="#22150f" fill-opacity=".9" d="M114.8-16l36.6 34.9-56.3-5.6L173.9-16z"/><circle r="1" fill="#3f1d1a" fill-opacity=".5" transform="matrix(-9.20639 38.30423 -2.53034 -.60817 138.5 37.4)"/><path fill="#ead5c0" fill-opacity=".5" d="M120 53l-8-10 18 4z"/><circle r="1" fill="#e6dfd5" fill-opacity=".5" transform="matrix(7.78637 -24.52276 7.43575 2.36097 86.2 126.2)"/><path fill="#0b172f" fill-opacity=".5" d="M143 82.5L128.2 85 123 55.5l14.8-2.6z"/><path fill="#bb9c8f" fill-opacity=".6" d="M202.5 39h3v44h-3z"/><path fill="#112304" fill-opacity=".5" d="M52 147l-23-16 12 32z"/><path fill="#75432a" fill-opacity=".7" d="M210.2 134.4l28.2 5.6-41 33.8 19.6-24.3z"/></g></svg>