<svg xmlns="http://www.w3.org/2000/svg" viewBox="0 0 300 199"><defs/><path fill="#532e2f" d="M0 0h300v199H0z"/><g transform="translate(.6 .6) scale(1.17188)"><ellipse cx="211" cy="7" fill="#f4a134" fill-opacity=".7" rx="41" ry="13"/><circle r="1" fill-opacity=".8" transform="matrix(19.76933 9.44939 -16.64004 34.81308 194.4 142.2)"/><circle r="1" fill="#c79d74" fill-opacity=".5" transform="matrix(-1.72792 -34.78928 16.97419 -.84308 84.8 112.3)"/><circle r="1" fill="#24d8eb" fill-opacity=".7" transform="matrix(-2.1411 -15.95083 8.06214 -1.0822 103.4 35.9)"/><path fill="#ffa818" fill-opacity=".6" d="M149.2 6.4l19.9-.5-32.2 28.6-17.4-13.8z"/><circle r="1" fill="#8c644e" fill-opacity=".5" transform="matrix(68.1574 -64.00406 12.47484 13.28435 153.4 86)"/><circle r="1" fill="#ae926b" fill-opacity=".5" transform="matrix(-20.68817 -26.37397 12.58249 -9.8699 29 54)"/><circle r="1" fill="#110d00" fill-opacity=".7" transform="matrix(88.3458 -9.64963 1.9767 18.09731 70.7 4)"/><path fill="#0d0010" fill-opacity=".7" d="M70 106l-86 40V65z"/><circle r="1" fill="#050000" fill-opacity=".8" transform="rotate(77.9 67.4 120) scale(16.07924 20.46994)"/><ellipse cx="61" cy="133" fill-opacity=".7" rx="9" ry="46"/><circle r="1" fill="#00090c" fill-opacity=".6" transform="matrix(-25.15226 20.46763 -10.53004 -12.94016 118.8 65.3)"/><path fill="#000601" fill-opacity=".6" d="M228.2 73.2l-16.8-39.5 30.4-13 16.8 39.6z"/><circle r="1" fill="#462007" fill-opacity=".8" transform="matrix(-43.94373 92.96368 -34.62403 -16.3667 255 138.9)"/><path fill="#ffff8d" fill-opacity=".4" d="M10 45.8L5.2 20.3 16 18.2l5 25.5z"/><path fill="#8c6151" fill-opacity=".8" d="M27.1 40l32.6 8.4 44.5-2.3-58.6 24.1z"/><path fill="#a09a5a" fill-opacity=".5" d="M172 103l-59-21 66-12z"/><path fill="#07fcdb" fill-opacity=".5" d="M245.6 53.4l8-32 4.8 1.2-8 32z"/><path fill="#fdfff0" fill-opacity=".4" d="M206 15h16v14h-16z"/><circle r="1" fill="#724a2c" fill-opacity=".6" transform="matrix(-29.03458 15.17891 -10.70558 -20.47788 215.8 87)"/><path fill="#08eeff" fill-opacity=".6" d="M107 49L83 30h22z"/><ellipse cx="39" cy="142" fill="#702323" fill-opacity=".7" rx="18" ry="28"/><path fill="#806a6d" fill-opacity=".6" d="M31 49h25v45H31z"/><path fill="#7e51fc" fill-opacity=".5" d="M127.9 123.5l4.3-9.8-11.2-3.3-12.3 15.9z"/><path fill="#110917" fill-opacity=".5" d="M15.7 58.4L-16-8.5l.3 111.3 42.6-39.5z"/><circle r="1" fill="#84380b" fill-opacity=".5" transform="matrix(-31.49638 25.59641 -14.75253 -18.15298 133.2 162.3)"/><path fill="#0b0000" fill-opacity=".6" d="M94.1 164.9l-34.2-23.7 1.6 40.9 71.1-13.8z"/><circle r="1" fill="#3f2d19" fill-opacity=".8" transform="matrix(9.6067 .67749 -1.25408 17.78268 26.5 22.8)"/><path fill-opacity=".6" d="M168 100l24 85 22-59z"/><path fill="#090303" fill-opacity=".9" d="M272 96.9l-11.8 27.6-22.1-9.4 11.7-27.6z"/><path fill="#9cc5d1" fill-opacity=".3" d="M71.6 154.1l13.2-8.8-4.4-40.6-14.1-29.2z"/><path fill="#1e0e0b" fill-opacity=".9" d="M268.2-16l-32.3 79.4-31.7-31.3 34.7-7.1z"/><path fill="#775320" fill-opacity=".6" d="M105 13h29v20h-29z"/><circle r="1" fill="#090000" fill-opacity=".5" transform="matrix(-2.31834 -5.52688 26.54984 -11.13678 179.8 26.7)"/><path fill="#fd8f10" fill-opacity=".3" d="M199.7 15.9l-81.6-7.4L226.5 1l-25.8 38.4z"/><path fill="#fb9909" fill-opacity=".6" d="M131 9l23 1-11 26z"/><path fill="#f1d08f" fill-opacity=".5" d="M240.9 20.5L227 7.9l2-1.9 21.4 6.2z"/><circle r="1" fill="#943813" fill-opacity=".3" transform="matrix(-9.0947 2.75678 -15.54062 -51.2691 90.5 79.3)"/><path fill="#0d0200" fill-opacity=".5" d="M134.2 129l-.4-11 28-1 .4 11z"/><path fill="#ad9115" fill-opacity=".5" d="M226 78l15 1-1 15-15-1z"/><circle r="1" fill="#47111f" fill-opacity=".7" transform="matrix(12.37954 -27.5984 108.41727 48.63168 0 169)"/><path fill="#424850" fill-opacity=".9" d="M122.2 60.9l-14.9-19.1 17.8-19-4 30.5z"/><path fill="#400e00" fill-opacity=".3" d="M85.8 121.2l1.7 1.3 28.8 21.3L96.4 185z"/><path fill="#2a2f49" fill-opacity=".5" d="M143 66l55 5 4-21z"/><path fill-opacity=".5" d="M129 67l-20-44 42 38z"/><path fill="#ffe8ac" fill-opacity=".7" d="M17.3 36.6l-10 .7-.6-10 10-.6z"/><path fill="#21160b" fill-opacity=".5" d="M56.8 38L92.2-3.7 23.9 17.5l-39.9-.1z"/><path fill="#562e58" fill-opacity=".5" d="M40.9 99.9L21 107 9 74.1 29 67z"/><path fill="#0ad9ff" fill-opacity=".7" d="M-16 63L2 19-16 4z"/><path fill="#673336" fill-opacity=".4" d="M221 16h13v21h-13z"/><path fill-opacity=".6" d="M126.5 17L85.2 5l6.3-22 41.3 11.8z"/><path fill="#b992d6" fill-opacity=".2" d="M161.9 117.7l-5.5-17.6L171 66.3l4.3 28.8z"/><circle r="1" fill="#6c5000" fill-opacity=".4" transform="matrix(21.59342 -17.49667 6.13355 7.56969 131 79.8)"/><path fill="#b73e12" fill-opacity=".3" d="M189.9-16l15.4 92.4-5.1-1.1 23.6-14.2z"/><path fill="#38221b" fill-opacity=".7" d="M86.7 25l3.7 16 15.4-34.8L72 20z"/><circle cx="55" cy="105" r="14" fill-opacity=".5"/><path fill="#494d6f" fill-opacity=".5" d="M184.8 109.8l-20.2-8.9 45.7-9.6-4.8 20.4z"/><ellipse cx="155" cy="58" fill="#003442" fill-opacity=".6" rx="3" ry="19"/><path fill="#7c4116" fill-opacity=".4" d="M243 52l-34 108 32-20z"/><ellipse cx="24" cy="26" fill="#533e22" fill-opacity=".6" rx="5" ry="25"/><path fill="#030102" fill-opacity=".8" d="M52.7 93l12.6 20.4 16 71.6-21.7-22.6z"/><path fill="#1684e0" fill-opacity=".5" d="M83 27h7v10h-7z"/><path fill="#ff8000" fill-opacity=".2" d="M12 63.3L6 33l15 4.2-1.2 26.6z"/><path fill="#0d0203" fill-opacity=".6" d="M207.4 18.7l-47.7 34.9-11.4-20.3 27-18.9z"/><path fill="#a24b2d" fill-opacity=".5" d="M132 22l23 43-4-30z"/></g></svg>