<svg xmlns="http://www.w3.org/2000/svg" viewBox="0 0 298 450"><defs/><path fill="#404040" d="M0 0h298v450H0z"/><g transform="translate(.9 .9) scale(1.75781)"><circle r="1" fill="#dfdfdf" fill-opacity=".7" transform="matrix(-60.5936 153.82582 -157.24057 -61.9387 65.5 133.4)"/><circle r="1" fill="#030303" fill-opacity=".6" transform="rotate(76.8 -1.6 78.2) scale(64.01249 26.4236)"/><ellipse cx="21" cy="172" fill="#fdfdfd" fill-opacity=".8" rx="29" ry="108"/><circle r="1" fill="#fefefe" fill-opacity=".7" transform="matrix(-3.57707 22.84269 -31.85493 -4.98835 20.7 16.3)"/><circle r="1" fill="#757575" fill-opacity=".6" transform="matrix(3.87267 94.92512 -27.67197 1.12894 101.7 232.5)"/><circle r="1" fill="#fdfdfd" fill-opacity=".7" transform="rotate(-22.1 116.5 -276.4) scale(18.3819 46.19379)"/><path fill="#616161" fill-opacity=".5" d="M184 1l-31 140-29-157z"/><path fill="#0d0d0d" fill-opacity=".6" d="M100 47L68 16 18 62z"/><ellipse cx="125" cy="129" fill="#fff" fill-opacity=".6" rx="14" ry="44"/><path fill="#f5f5f5" fill-opacity=".6" d="M66.2 132.6l10.7 35.2-16.8 63.1-35.3-15.2z"/><circle r="1" fill="#222" fill-opacity=".4" transform="matrix(14.60615 7.53968 -14.43792 27.96968 60.2 91)"/><path fill="#ededed" fill-opacity=".6" d="M119-3L89 81l53-26z"/><path fill="#171717" fill-opacity=".4" d="M149.2 50.7l8.2 11.3-48.6 35.3-8.2-11.3z"/><path fill="#f5f5f5" fill-opacity=".7" d="M70-4l-7 16 44-8z"/><path fill="#d1d1d1" fill-opacity=".6" d="M38 100l19-52-73 43z"/><path fill="#fefefe" fill-opacity=".6" d="M162 162h8v81h-8z"/><circle r="1" fill="#1e1e1e" fill-opacity=".4" transform="matrix(4.7496 -1.78166 16.8827 45.00645 133.6 14.9)"/><path fill="#fff" fill-opacity=".6" d="M-16 34l29-9-19 106z"/><circle r="1" fill="#909090" fill-opacity=".6" transform="matrix(36.1411 26.57176 -7.32001 9.95618 70.6 120)"/><ellipse cx="73" cy="51" fill="#1c1c1c" fill-opacity=".7" rx="20" ry="41"/><circle r="1" fill="#fff" fill-opacity=".3" transform="matrix(7.53407 5.86512 -50.31586 64.63357 160.5 67)"/><path fill="#020202" fill-opacity=".3" d="M138.1 127.1l-2.9 71.6 14.5-103.5 13.1 21.4z"/><path fill="#2a2a2a" fill-opacity=".5" d="M65 41.6L39.1 62.2-16 69.3l.4 1.1z"/><path fill="#707070" fill-opacity=".5" d="M48.1 172.8l-.1-36.6 21.4-45.8 7 1z"/><circle r="1" fill="#f9f9f9" fill-opacity=".5" transform="rotate(167.5 55.8 116) scale(3.2007 45.53954)"/><path fill="#e0e0e0" fill-opacity=".6" d="M27.1 54l3.7.8 33-45.9L34 27z"/><path fill="#f7f7f7" fill-opacity=".6" d="M90 72l35-2 19-16z"/><path fill="#c7c7c7" fill-opacity=".6" d="M142 120h28v94h-28z"/><path fill="#5f5f5f" fill-opacity=".5" d="M106 57.4L90.6 22.7l-2.2 107.9 9.9-59z"/><path fill="#8f8f8f" fill-opacity=".6" d="M116 68l-11 43-6-33z"/><circle cx="55" cy="2" r="6" fill-opacity=".5"/><circle r="1" fill="#cfcfcf" fill-opacity=".6" transform="matrix(12.94918 4.27405 -13.09712 39.68059 52.6 233.8)"/><path fill="#494949" fill-opacity=".4" d="M109 75l11 16 25-19z"/><circle r="1" fill="#fff" fill-opacity=".5" transform="matrix(-.1334 -12.73824 1.85948 -.01947 141.3 11.4)"/><path fill="#616161" fill-opacity=".5" d="M12 42l13-7 11 30z"/><path fill="#2e2e2e" fill-opacity=".4" d="M6.3 62.7l6-.4 1.4 19-6 .4z"/><path fill="#404040" fill-opacity=".5" d="M152 252l33-3v-14z"/><circle cx="102" cy="253" r="35" fill="#868686" fill-opacity=".7"/><path fill="#fff" fill-opacity=".6" d="M114 95h25v34h-25z"/><path fill="#d2d2d2" fill-opacity=".5" d="M133 127l2 64-32-50z"/><circle r="1" fill="#a7a7a7" fill-opacity=".5" transform="rotate(78.7 53 120.6) scale(41.11128 11.33705)"/><path fill="#6b6b6b" fill-opacity=".8" d="M80.1 144.9l-1.5-12.2-6.1 7 5.7 11.1z"/><circle r="1" fill="#646464" fill-opacity=".5" transform="matrix(4.89355 -1.22045 12.17062 48.79967 94 233.1)"/><path fill="#5e5e5e" fill-opacity=".5" d="M138 143.4l-2-.2 8-90.6 2 .2z"/><path fill="#eaeaea" fill-opacity=".3" d="M142.8-16l-42.4 5.6L70 16l41.1 1.5z"/><circle r="1" fill="#fff" fill-opacity=".4" transform="matrix(-40.03 75.67334 -12.40062 -6.55973 23 230.9)"/><path fill="#373737" fill-opacity=".5" d="M142.1-16L136 18.2 117.3-5.1l5.8 14.4z"/><path fill="#f6f6f6" fill-opacity=".4" d="M30.7 91.2l-7.3-6.8 23.9-25.6 7.3 6.8z"/><circle r="1" fill="#9c9c9c" fill-opacity=".5" transform="rotate(-177.4 62.3 53.6) scale(1 169)"/><path fill-opacity=".5" d="M161 109l-6 10-7-8z"/><path fill="#fff" fill-opacity=".6" d="M-2 157l42-57 7 85z"/><path fill="#8e8e8e" fill-opacity=".5" d="M8 93h46v4H8z"/><path fill="#eaeaea" fill-opacity=".7" d="M26 56.5l17.9-23L53.6-16 28.7 38.7z"/><path fill="#1c1c1c" fill-opacity=".4" d="M59.4 45.4l30-25.9 5.7 41.6-49.5 32.5z"/><path fill="#fcfcfc" fill-opacity=".6" d="M14.9 58.6l-19.2 8.5-10.6-23.7 19.2-8.5z"/><path fill="#444" fill-opacity=".4" d="M85 61l20 44-18 32z"/><path fill="#2f2f2f" fill-opacity=".4" d="M144 0h4v72h-4z"/><path fill="#535353" fill-opacity=".4" d="M136 150h3v60h-3z"/><path fill="#c8c8c8" fill-opacity=".9" d="M80.4 162.4l-29.5-34.5-15.5-18.3 40 35.9z"/><ellipse cx="50" cy="8" fill="#676767" fill-opacity=".5" rx="2" ry="22"/><path fill="#414141" fill-opacity=".5" d="M68 111.2l-4.9 15.2 7.1-45.1-14.6 39z"/><path fill="#4e4e4e" fill-opacity=".9" d="M138.9 78.5l-9.4-9 7.6-8 9.4 9z"/><path fill="#fff" fill-opacity=".3" d="M137.7 36.7L97 46.5l12.5-49.9 23.4 24.5z"/><circle r="1" fill="#636363" fill-opacity=".5" transform="matrix(-3.9686 .64452 -3.6701 -22.59865 115.8 204.1)"/><path fill="#eee" fill-opacity=".4" d="M130.7 191.5l8.1-18.4-1.6-5-28.2-27.3z"/></g></svg>