<svg xmlns="http://www.w3.org/2000/svg" viewBox="0 0 300 199"><defs/><path fill="#654234" d="M0 0h300v199H0z"/><g transform="translate(.6 .6) scale(1.17188)"><circle r="1" fill="#e1f1f9" fill-opacity=".6" transform="matrix(-29.68048 30.19847 -76.64934 -75.33458 239 52)"/><circle r="1" fill="#9d978c" fill-opacity=".7" transform="matrix(86.93972 -32.3326 16.24396 43.67868 97.9 24.2)"/><circle r="1" fill="#0e110e" fill-opacity=".6" transform="rotate(-80.2 121.9 38.6) scale(68.9627 97.73399)"/><ellipse cx="179" cy="84" fill="#00020a" fill-opacity=".6" rx="18" ry="35"/><path fill="#a4a2a0" fill-opacity=".5" d="M106 36h18v124h-18z"/><path fill="#ffe" fill-opacity=".4" d="M14 48l57 2-1 26-57-2z"/><circle r="1" fill="#7e7670" fill-opacity=".8" transform="matrix(14.07034 2.3864 -9.05162 53.36892 255 103.2)"/><ellipse cx="134" cy="83" fill="#060909" fill-opacity=".7" rx="13" ry="28"/><circle r="1" fill="#eaedec" fill-opacity=".5" transform="matrix(-31.21724 8.8783 -4.97707 -17.50004 233.3 45.7)"/><circle r="1" fill-opacity=".5" transform="matrix(-.03795 -2.922 42.18658 -.54797 29.2 46.4)"/><ellipse cx="80" cy="73" fill="#59443c" rx="12" ry="22"/><ellipse cx="36" fill="#010000" fill-opacity=".7" rx="41" ry="6"/><path fill="#060703" fill-opacity=".6" d="M72 0h5v66h-5z"/><path fill="#bead8b" fill-opacity=".5" d="M11 6h60v36H11z"/><path fill="#d89e98" fill-opacity=".3" d="M178 91l-28.3-29.8-6.8 14.7-1.2 28.7z"/><path fill="#b7b7b0" fill-opacity=".6" d="M100 50h17v37h-17z"/><path fill="#a9acac" fill-opacity=".6" d="M207 82h37v22h-37z"/><circle r="1" fill-opacity=".6" transform="matrix(3.09473 57.20148 -3.23065 .17479 5.5 39.7)"/><circle r="1" fill="#9b6f65" fill-opacity=".5" transform="matrix(-34.20507 -18.46762 5.09964 -9.44538 178.4 143)"/><path fill="#877a73" d="M130 0h44v50h-44z"/><circle r="1" fill="#100e0d" fill-opacity=".6" transform="rotate(170.4 29.4 76.7) scale(37.10659 60.66642)"/><path fill="#b58c85" fill-opacity=".5" d="M123.7 180.1l-10.8-48.9 34.4 53.2 26.9-27z"/><circle r="1" fill="#06030b" fill-opacity=".3" transform="rotate(-92.2 163.6 -40.6) scale(19.73561 30.03206)"/><ellipse cx="18" cy="106" fill="#573712" fill-opacity=".6" rx="29" ry="34"/><circle r="1" fill="#a98e66" fill-opacity=".6" transform="matrix(-5.61012 -80.73554 1.13807 -.07908 12.5 67.2)"/><path fill="#eafcff" fill-opacity=".3" d="M230.9 148.1l-.2-19.4 32.9 10.4-.2-20.1z"/><path fill="#c0948d" fill-opacity=".4" d="M89.4 126.6L81 141.4l-10.3-6 8.5-14.8z"/><circle r="1" fill="#000214" fill-opacity=".7" transform="rotate(71.6 -32.8 172.9) scale(24.20616 12.75318)"/><path fill="#7a6852" fill-opacity=".6" d="M214.7 117.4l-12.8-9.6-8.4-43.2 19.7-5.7z"/><path fill="#f7d7b1" fill-opacity=".4" d="M43.4 76.6l36.7 2.1-18.7-23.3-16.6 9.3z"/><path fill="#181213" fill-opacity=".8" d="M147.4 116.6l-6.9-29.3-30 47.1 4.8-25.6z"/><path fill="#121a1c" fill-opacity=".6" d="M150.7 64.7l56.6 54-39.2-71.9-51.4 18.9z"/><path fill="#827c83" fill-opacity=".9" d="M243.9 13.1l-4.2 18-4.2-47.1L271 20.2z"/><path fill="#946e64" fill-opacity=".8" d="M136.6 184.6l38.4.4-6.7-14.5 18.3-39.7z"/><path fill="#0f0a05" fill-opacity=".4" d="M175.1 118.1l-18.7 3.2 3.1-36.1 58 31.9z"/><path fill="#00100e" fill-opacity=".4" d="M123.2 85l-21.6 2.3-1.6 8.2 8.6 4.2z"/><ellipse cx="115" cy="45" fill="#a29c96" fill-opacity=".5" rx="38" ry="14"/><path fill="#4f331a" fill-opacity=".5" d="M246 94h10v34h-10z"/><path fill="#080507" fill-opacity=".8" d="M167.7 148.3l-8 11.4-11.4-8 8-11.4z"/><circle r="1" fill="#b8b3b3" fill-opacity=".5" transform="matrix(-39.11372 11.19446 -2.1961 -7.67326 203.8 37.6)"/><circle r="1" fill="#1d1613" fill-opacity=".6" transform="matrix(5.9828 -7.76882 9.10139 7.00901 187.5 166.7)"/><path fill="#cbbea9" fill-opacity=".4" d="M72.3 41.9l-5.9-56.4 8.9 68.7-36.8 36.3z"/><path fill="#f3feff" fill-opacity=".5" d="M274.5 54.3L258.2 69l-22.7-25.3L251.8 29z"/><ellipse cx="129" cy="76" fill="#16110b" fill-opacity=".6" rx="11" ry="16"/><circle r="1" fill="#100600" fill-opacity=".7" transform="matrix(-75.41681 22.91338 -2.20123 -7.24509 15 162.2)"/><path fill="#3b2723" fill-opacity=".8" d="M240 103.4L215.9 185l1.2-74.7-4-5z"/><path fill="#fed7ce" fill-opacity=".2" d="M102.8 110.4l-29-48.5 8.3 37.2 11.2-17.6z"/><ellipse cx="116" fill="#766560" fill-opacity=".5" rx="50" ry="17"/><path fill="#20150e" fill-opacity=".8" d="M80.3 53.3l6.3 3.4L93.3 71 68.8 60.2z"/><path fill="#412308" fill-opacity=".8" d="M14.5 76.8l4.5 46.8 19.7-43.2-3.3-8.3z"/><circle cx="22" cy="56" r="6" fill="#fffce7" fill-opacity=".7"/><path fill="#bdcddb" fill-opacity=".4" d="M241 106h6v29h-6z"/><path fill="#daad44" fill-opacity=".5" d="M24 119l-10 10 14-2z"/><path fill="#846b42" fill-opacity=".5" d="M7.3 130.8l-13 .4-1.6-44 13-.4z"/><path fill="#231208" fill-opacity=".6" d="M115.5 129.4l-4.6-2 15.6-36.8 4.6 2z"/><ellipse cx="222" cy="27" fill="#bfbdc0" fill-opacity=".5" rx="15" ry="75"/><path fill="#120200" fill-opacity=".6" d="M14 43h56v5H14z"/><circle r="1" fill="#3d3a45" fill-opacity=".5" transform="rotate(175 121.1 51) scale(1.89981 31.94017)"/><path fill="#9a9499" fill-opacity=".5" d="M123 144l-12 8 26 33z"/><path fill-opacity=".6" d="M71 0h4v23h-4z"/><path fill="#10101e" fill-opacity=".8" d="M145.1 108.5l66.4-19.4-84.8 20.8 16.9 66.6z"/><path fill="#091010" fill-opacity=".5" d="M88 123.8L67.6 76.1l-11.6.6-12.4 63z"/><path fill="#a39b93" fill-opacity=".7" d="M92.2 68.3L73.8 2l47.9 95.9-5.8-41.5z"/><path fill="#a58982" fill-opacity=".2" d="M154.7 63.6l-17.9 23.8 62.8 74.4-55.5-37.6z"/><path fill="#683e21" fill-opacity=".5" d="M20 165h52v5H20z"/></g></svg>