<svg xmlns="http://www.w3.org/2000/svg" viewBox="0 0 300 199"><defs/><path fill="#443c3f" d="M0 0h300v199H0z"/><g transform="translate(.6 .6) scale(1.17188)"><circle r="1" fill="#fff" fill-opacity=".7" transform="matrix(-.608 -28.40424 53.16762 -1.13808 49.4 164.2)"/><ellipse cx="123" cy="6" fill="#dae0de" fill-opacity=".6" rx="19" ry="127"/><circle r="1" fill="#b7bbba" fill-opacity=".6" transform="rotate(164 97 51.4) scale(40.10621 31.96346)"/><circle r="1" fill="#878b89" fill-opacity=".6" transform="rotate(-68.8 178.7 -37.8) scale(61.94198 25.4357)"/><path fill="#b1b2b1" fill-opacity=".8" d="M244 129.8l-26.8 3.8-9.2-65.4 26.8-3.8z"/><circle r="1" fill="#010604" fill-opacity=".6" transform="rotate(-164.9 7 5.4) scale(79.23528 27.66876)"/><circle r="1" fill-opacity=".6" transform="matrix(-8.91054 28.43357 -12.30679 -3.85671 197.4 129)"/><circle r="1" fill="#000402" fill-opacity=".7" transform="matrix(25.6275 54.00206 -22.12875 10.50153 235.8 0)"/><ellipse cx="39" cy="71" fill="#717473" fill-opacity=".7" rx="14" ry="43"/><circle r="1" fill="#09130f" fill-opacity=".4" transform="matrix(20.39436 63.17933 -27.97994 9.03196 87.2 94.2)"/><path fill="#fff" fill-opacity=".6" d="M122 148h12v22h-12z"/><circle r="1" fill="#9d9d9d" transform="rotate(109.9 60.2 56.7) scale(20.86564 19.51379)"/><ellipse cx="139" cy="128" fill="#0b0c0c" fill-opacity=".7" rx="5" ry="46"/><circle r="1" fill="#0a0c0b" fill-opacity=".7" transform="rotate(-42.4 321.3 -189.2) scale(56.88992 15.77461)"/><ellipse cx="191" cy="10" fill-opacity=".8" rx="10" ry="30"/><ellipse cx="146" cy="102" fill="#fff" fill-opacity=".6" rx="3" ry="26"/><ellipse cx="126" cy="117" fill="#fff" fill-opacity=".6" rx="4" ry="21"/><circle r="1" fill="#0b0f0e" fill-opacity=".6" transform="matrix(4.10398 9.21623 -40.57537 18.06818 39.9 122)"/><path fill="#f0f1f1" fill-opacity=".5" d="M146 123l32 61-24-20z"/><path fill="#909291" fill-opacity=".5" d="M207-12l-29 120 40-11z"/><ellipse cx="212" cy="43" fill="#151817" fill-opacity=".5" rx="4" ry="51"/><path fill="#bdbfbe" fill-opacity=".5" d="M132 58l-1-68-47 44z"/><ellipse cx="255" cy="169" fill="#f1fffa" fill-opacity=".3" rx="13" ry="29"/><path fill="#050908" fill-opacity=".4" d="M152 122l42 55-30-15z"/><path fill="#242424" fill-opacity=".5" d="M145 137l18 48-44-48z"/><path fill="#e8f1ee" fill-opacity=".3" d="M202.9 128.6l9.8 22.6 24.8-80.4-34.3 56.6z"/><path fill="#000101" fill-opacity=".7" d="M218.7 100.2l-32 60.3-5.6-37.2 9.2-20z"/><path fill="#fdfdfe" fill-opacity=".6" d="M231-13V3l17-2z"/><circle r="1" fill="#dcdada" fill-opacity=".5" transform="matrix(-5.82275 3.06502 -9.27537 -17.62079 202.7 83.5)"/><path fill="#0b0b0b" fill-opacity=".9" d="M5-16l27 63-47 3z"/><circle r="1" fill="#adafae" fill-opacity=".5" transform="matrix(12.41212 18.266 -7.3129 4.96927 95.3 158.4)"/><circle r="1" fill="#1f2623" fill-opacity=".5" transform="matrix(6.16088 -27.36906 8.834 1.98857 148.6 51.1)"/><circle r="1" fill="#868585" fill-opacity=".6" transform="matrix(8.74643 19.95773 -6.14924 2.6949 37.8 44)"/><path fill="#a2a2a2" fill-opacity=".6" d="M115 47l3.9 36.8-12 1.2-3.8-36.8z"/><path fill="#5f5f5f" fill-opacity=".5" d="M73 104h32v21H73z"/><circle r="1" fill="#0d0d0d" fill-opacity=".6" transform="matrix(11.72254 -7.70027 43.0397 65.52168 69 44.7)"/><path fill="#464747" fill-opacity=".6" d="M117.9 35.1l5-5 76.7 4.9-77-11z"/><ellipse cx="12" cy="169" fill="#fff" fill-opacity=".4" rx="43" ry="21"/><path fill="#696969" fill-opacity=".9" d="M11.7 49.3l42.7 5.1 8.9 13.2-49.2-7.3z"/><path fill="#ecfffb" fill-opacity=".2" d="M87.4 13.9L82.9-6.6l-5.2 1.2-4.7 20z"/><ellipse cx="125" cy="107" fill="#fff" fill-opacity=".6" rx="4" ry="19"/><path fill="#6e6e6e" fill-opacity=".9" d="M139.4 108.5l-3.1-22.3-10.1-5 7.4 46.3z"/><path fill="#6d6d6d" fill-opacity=".7" d="M174 72l19-35-2 67z"/><path fill="#0b1310" fill-opacity=".3" d="M158.4 64.1l8.8-2.6 3.1 73.3-15.6-42.2z"/><path fill="#575656" fill-opacity=".8" d="M124.8 127.6l-4.7 11.7 1.2-49.3-10.1-11.9z"/><path fill="#000503" fill-opacity=".5" d="M226.7 19.9l44.3 1.6-111.5-5.1-20.1-23z"/><path fill="#dadada" fill-opacity=".4" d="M237.8 55.1l-44.4 5.8 8.8-26.3 25.4 58z"/><path fill-opacity=".5" d="M114.8 138l24.7 10.1-3-49.6 12.1 38.2z"/><path fill="#5c615f" fill-opacity=".4" d="M234 109l3-82 12 44z"/><path fill="#151616" fill-opacity=".8" d="M271 33.4l-27.8 20.3 9.3 30.5-14.1 7.6z"/><circle r="1" fill="#8c928f" fill-opacity=".4" transform="matrix(-25.06247 3.52337 -.3871 -2.75355 37 137.6)"/><ellipse cx="127" cy="163" fill="#fff" fill-opacity=".6" rx="5" ry="18"/><path fill="#a5a7a6" fill-opacity=".7" d="M142.1 89.5l-.2-14.7 9.5 4.2-3.6 32.9z"/><path fill="#a1a2a2" fill-opacity=".5" d="M171 135l15-27-18-30z"/><path fill="#000101" fill-opacity=".6" d="M196.8 119.1l15.5 31.1-18.6 6.8-18.3-35.2z"/><path fill="#141917" fill-opacity=".6" d="M102.3 33.1L84.2-16h15.7L82.6 20.3z"/><circle r="1" fill="#8c8f8e" fill-opacity=".5" transform="matrix(-3.46106 .75542 -3.18495 -14.59231 164.9 0)"/><path fill="#131514" fill-opacity=".7" d="M34.1 56.4L3.6 73.9l25-2.8-3.7-42z"/><path fill="#141414" fill-opacity=".7" d="M56.1 108.6L81.9 60l-11.7 74.4-62.5-8.1z"/><path fill="#656666" fill-opacity=".8" d="M114.6-16H5.4L96 7.8l2.4 32.6z"/><path fill-opacity=".5" d="M231 185l32-73-60 73z"/><path fill="#666867" fill-opacity=".5" d="M39.6 115.9l24.6-10.6-12.6-66.9-27 70.3z"/><path fill="#b8b8b8" fill-opacity=".9" d="M207.7 99.5l-14.5 4.8 1.6-14.7 31.1 15.2z"/><path fill="#828886" fill-opacity=".6" d="M253 67h3v54h-3z"/><path fill="#202121" fill-opacity=".8" d="M169.3 147.3l20.4 4.6v30.4l-41.9-57.4z"/></g></svg>