<svg xmlns="http://www.w3.org/2000/svg" viewBox="0 0 300 199"><defs/><path fill="#462f26" d="M0 0h300v199H0z"/><g transform="translate(.6 .6) scale(1.17188)"><circle cx="157" cy="105" r="63" fill="#fde0ca" fill-opacity=".5"/><circle cx="121" r="99" fill="#7f5f51"/><ellipse cy="61" fill="#f2d4b9" fill-opacity=".8" rx="10" ry="61"/><circle r="1" fill-opacity=".6" transform="matrix(65.2376 -2.96242 1.02782 22.63446 70.8 91.6)"/><circle r="1" fill="#fffff1" fill-opacity=".6" transform="matrix(6.48107 -19.82886 48.01216 15.6928 137.8 136.5)"/><path fill="#fffffa" fill-opacity=".6" d="M181 122h44v17h-44z"/><circle cx="47" cy="124" r="38" fill="#120f11"/><path fill="#fadfff" fill-opacity=".4" d="M175 .1l44.8-14.5L230.9 20l-44.7 14.5z"/><ellipse cx="238" cy="78" fill="#060200" fill-opacity=".5" rx="24" ry="62"/><circle r="1" fill="#e2c6b3" fill-opacity=".4" transform="rotate(-145.3 26.9 1.5) scale(17.76071 43.59872)"/><path fill="#000306" fill-opacity=".6" d="M172.8 2.6l4.8 24.5-32.4 6.3L140.4 9z"/><circle r="1" fill="#dfc2b4" fill-opacity=".6" transform="matrix(10.90864 -6.81043 16.83643 26.96781 187.3 72.8)"/><ellipse cx="204" cy="159" fill="#331604" fill-opacity=".7" rx="23" ry="13"/><path fill="#050000" fill-opacity=".5" d="M218.6 72.4l-32.3-15.8 17-35 32.4 15.8z"/><path fill="#eddccd" fill-opacity=".6" d="M73.4 21L90 11.8 100.6 31 84 40.2z"/><path fill="#5f6661" d="M187 177l-88 8 64-30z"/><circle r="1" fill="#7e4d34" fill-opacity=".5" transform="matrix(-13.28189 15.71699 -24.59016 -20.7803 162.3 100.2)"/><path fill="#e4e1d4" fill-opacity=".6" d="M224 134l-44 13 29-77z"/><path fill="#c1ad9d" fill-opacity=".8" d="M-6 4l95 2-49-22z"/><path fill="#160800" fill-opacity=".7" d="M61.4 138.7l12.4-17 106.8 77.6-12.4 17z"/><circle cx="51" cy="22" r="7" fill="#000a0e" fill-opacity=".6"/><circle r="1" fill="#120401" fill-opacity=".5" transform="rotate(175.9 45 48.1) scale(49.63951 14.1932)"/><path fill="#f0ede5" fill-opacity=".6" d="M217 132l-117 5 35 27z"/><path fill="#c9bfb0" fill-opacity=".7" d="M125.5 9.7l8.2 22.5-11.2 4.1-8.2-22.5z"/><path fill="#dce4d9" fill-opacity=".5" d="M223 128.3l-2.1 12.5 19.4 42.1-5.7-23.5z"/><path fill="#3b2212" d="M172.6 185l53.1-38.5-8.8-10.2-12.2 3z"/><path fill="#3e1a04" fill-opacity=".4" d="M121.3-9L86.4 68.2l-16.3 81.3 35.3-65.6z"/><ellipse cx="9" cy="78" fill="#ad886c" fill-opacity=".5" rx="4" ry="37"/><path fill="#e4c3aa" fill-opacity=".5" d="M146 159l-6-62-59 21z"/><ellipse cx="42" cy="89" fill="#13141c" fill-opacity=".7" rx="25" ry="31"/><path fill="#825953" fill-opacity=".6" d="M215.4-2.1L255.1-16 220 30.3l-33 22.3z"/><path fill="#eaf9f7" fill-opacity=".4" d="M132.7 182.1l48.4-15.1-5.6-41 19.8 21z"/><path fill="#996b53" fill-opacity=".9" d="M139.7 53.2L197 80.6l-76.9-.3-18.9-25.9z"/><path fill="#9b8264" fill-opacity=".9" d="M-16 150l31.4-47.2-31.4 21.8 28.5 14.3z"/><path fill="#ceb8ab" fill-opacity=".7" d="M99.9 4.3l5.6 2.2-23.7 18.2 6.5-19.2z"/><path fill="#fffcf2" fill-opacity=".5" d="M-6.8 66.2l-1.4-42 15-.4 1.4 42z"/><path fill="#4f361e" fill-opacity=".5" d="M81.4 40.5L64.1-6.4l3.8 62.2 82.1-5.9z"/><path fill="#290f01" fill-opacity=".5" d="M23.2 4.2L6.6 38.8l28.3-28.4-11.8-22.3z"/><path fill="#bb917b" fill-opacity=".8" d="M26.2 59.7l4.2 2.1 38.1-36.4-29.3 3.9z"/><path fill="#fffaff" fill-opacity=".5" d="M176-16l16 12-9 30z"/><path fill="#fdd2c5" fill-opacity=".4" d="M187.5 39.5l2.5 13.8-13.5 32.3-3.5-41.4z"/><path fill="#f3e1e9" fill-opacity=".5" d="M184.7 33.7l12.8-9.1L217-16l-26.5 36.7z"/><ellipse cx="216" cy="19" fill="#fff" fill-opacity=".5" rx="3" ry="9"/><circle r="1" fill="#f2f6fa" fill-opacity=".8" transform="matrix(3.68584 -3.03976 1.76258 2.1372 71.6 8.1)"/><path fill="#906a59" fill-opacity=".8" d="M3-10l-18-6 29 47z"/><path fill="#14130b" fill-opacity=".3" d="M142.1 166.6L116.4 185l53.5-28.2-.2-8.1z"/><ellipse cx="175" cy="113" fill="#946f50" fill-opacity=".3" rx="33" ry="18"/><path fill="#d1ffff" fill-opacity=".2" d="M132 29l31-24-12-21z"/><ellipse cx="116" cy="35" fill="#d1a482" fill-opacity=".4" rx="38" ry="5"/><path fill="#fffff4" fill-opacity=".5" d="M56 13l17-29-41 3z"/><path fill="#c2c7bb" fill-opacity=".6" d="M171.9 119.1l3-9.4 24.9 3.8-1.4-.4z"/><path fill="#fffbeb" fill-opacity=".6" d="M66 51l-6.8 5.8-3.2-3.7 6.8-6z"/><path fill="#451001" fill-opacity=".4" d="M206.7-16l-16.4 37.9-33.8-3.3 10.7 33.9z"/><circle cx="252" cy="100" r="36" fill="#3b1700" fill-opacity=".5"/><ellipse cx="226" cy="62" fill="#000c05" fill-opacity=".5" rx="18" ry="21"/><path fill="#372113" fill-opacity=".5" d="M96 25h59v5H96z"/><circle r="1" fill="#dcdcd4" fill-opacity=".5" transform="matrix(-.1339 25.7083 -4.33045 -.02255 212.3 102.2)"/><path fill="#cab6a8" fill-opacity=".7" d="M35.7 33l37.7-.4L60 19.7l3 7.7z"/><path fill="#522510" fill-opacity=".3" d="M54.3 55.4L4.2 24.6l6 43.3 56.2 3.4z"/><ellipse cx="79" cy="4" fill="#0a1c30" fill-opacity=".5" rx="3" ry="16"/><path fill="#070400" fill-opacity=".5" d="M-16 121.1l78 44.3 19-35.9-97-12.2z"/><path fill="#260600" fill-opacity=".3" d="M214 0l-2 57-22 3z"/><path fill="#79431e" fill-opacity=".4" d="M176 79L88 39l41-4z"/><ellipse cy="164" fill="#6f5f4a" fill-opacity=".4" rx="29" ry="31"/><path fill="#031b11" fill-opacity=".6" d="M247.4 19l-13 77.3-13.5-72.8L230 12z"/></g></svg>