<svg xmlns="http://www.w3.org/2000/svg" viewBox="0 0 300 199"><defs/><path fill="#434344" d="M0 0h300v199H0z"/><g transform="translate(.6 .6) scale(1.17188)"><ellipse cx="205" cy="48" fill="#dcdcdc" fill-opacity=".7" rx="213" ry="85"/><circle r="1" fill="#131313" fill-opacity=".6" transform="matrix(1.2874 63.7912 -34.33231 .69288 133 100.5)"/><ellipse cx="226" cy="68" fill="#fff" fill-opacity=".8" rx="48" ry="61"/><circle r="1" fill="#d4d4d3" fill-opacity=".5" transform="matrix(-25.83187 2.56415 -11.45745 -115.42518 74.1 146.7)"/><path fill="#0e0e0f" fill-opacity=".6" d="M126 37.3L75.4 58.8 66 36.7l50.6-21.5z"/><circle r="1" fill="#616161" fill-opacity=".6" transform="matrix(19.97226 -10.32443 35.75666 69.17004 17.2 68.8)"/><circle r="1" fill="#cdcdcd" fill-opacity=".7" transform="matrix(4.335 .29728 -4.069 59.3353 121.4 70.2)"/><path fill="#ececec" fill-opacity=".6" d="M159.7 139l22.5-18.3 10.1 12.4-22.5 18.2z"/><circle r="1" fill="#212121" fill-opacity=".6" transform="matrix(28.48907 34.56 -5.60905 4.62375 203.3 133)"/><ellipse cx="101" fill="#fff" fill-opacity=".5" rx="87" ry="19"/><path fill="#9d9d9d" d="M115 157.4l-39.4-50.7-33.4 42.4L154.5 185z"/><ellipse cx="140" cy="93" fill="#101010" fill-opacity=".6" rx="18" ry="45"/><ellipse cx="57" cy="67" fill="#fff" fill-opacity=".7" rx="11" ry="29"/><path fill="#7d7d7d" fill-opacity=".7" d="M24 20h23v90H24z"/><path fill="#a8a8a8" fill-opacity=".5" d="M94 32h82v18H94z"/><path fill="#fff" fill-opacity=".6" d="M193 166h19v4h-19z"/><ellipse cx="166" cy="9" fill="#efefef" fill-opacity=".8" rx="12" ry="22"/><path fill="#666" fill-opacity=".8" d="M43.8 130.5l-29.9-7.6 88.7-16.1.4 6.1z"/><path fill="#090909" fill-opacity=".4" d="M7.4 20.3l-2 15 5.2 71.7L-16 5.8z"/><path fill="#b6b6b5" fill-opacity=".5" d="M153.6 151.3l29.6-21.9-16.4 30.8-7.4 17.3z"/><path fill="#fff" fill-opacity=".5" d="M115 63h6v31h-6z"/><path fill-opacity=".5" d="M104 61h9v84h-9z"/><circle cx="236" cy="31" r="30" fill="#f6f6f6" fill-opacity=".7"/><path fill="#fff" fill-opacity=".5" d="M87.2 60.6L97.8 46l13 9.4L100.2 70z"/><path fill="#0e0e0e" fill-opacity=".5" d="M122.1 24.4L96.2 23 148 55.5l-14.7 5.7z"/><path fill="#b1b1b1" fill-opacity=".5" d="M10 60h24v43H10z"/><path fill="#939394" fill-opacity=".6" d="M69 38l-13 83 32-58z"/><circle cx="84" cy="38" r="11" fill="#101010" fill-opacity=".7"/><path fill="#e0e0e0" fill-opacity=".5" d="M95 28l14-31L3 11z"/><ellipse cx="25" cy="34" fill="#4b4b4b" fill-opacity=".5" rx="32" ry="8"/><path fill="#eeeeef" fill-opacity=".4" d="M73 118h26v16H73z"/><path fill="#2e2e2e" d="M-16 174.2l27.2-30.6-27.2-19 72.4 5z"/><path fill="#252525" fill-opacity=".9" d="M208 133.5l-15.5 38.3-27.4 11.8 11.4-37.7z"/><path fill="#fbfbfb" fill-opacity=".7" d="M50.5 69.6l26.1-4.8L57 31.9l21.8-9.7z"/><path fill="#f1f1f1" fill-opacity=".4" d="M115.1 123.1l2.4-15.8 9.3 14.5-.3 7.6z"/><path fill="#d7d7d7" fill-opacity=".5" d="M219.2 128.5l51.8-5-25.4-95.4-8.1 114.2z"/><path fill="#747474" fill-opacity=".7" d="M160.8 74.4l10.9-5 21.5 46.2-10.9 5z"/><path fill-opacity=".3" d="M243 185l-45-69 38 26z"/><circle cx="110" cy="153" r="9" fill="#c9c9c9" fill-opacity=".5"/><path fill="#797979" fill-opacity=".5" d="M39.4 47.8l50.7-36.3-13.6-2.6-22.1 12.7z"/><path fill="#949493" fill-opacity=".5" d="M239.3 179.1l4.6-28.6 14.8 2.4-4.6 28.6z"/><path fill="#666665" fill-opacity=".4" d="M24 150h80v20H24z"/><path fill="#d9d9d9" fill-opacity=".7" d="M117.8 111.8l-2.4-35.4 18.8-47.5-5.9 26.2z"/><path fill="#b6b6b7" fill-opacity=".6" d="M81 73h22v31H81z"/><path fill="#dedede" fill-opacity=".5" d="M171 139l23-4-29-39z"/><path fill="#a6a6a6" fill-opacity=".7" d="M7.4 9.1l64.4-7.6L22.3-16 11.7 72.2z"/><path fill="#bbb" fill-opacity=".5" d="M57 127h34v32H57z"/><circle r="1" fill="#424242" fill-opacity=".6" transform="matrix(28.88558 2.22262 -.26995 3.50832 243.7 0)"/><path fill="#333" fill-opacity=".6" d="M167.8 138.1l-2 7.2-32.5 8.2 24.6-47.4z"/><path fill="#484848" fill-opacity=".4" d="M47.8 123.9l-57.2-16.5 74.8 1.9-29.9-33.7z"/><path fill="#979797" fill-opacity=".5" d="M101 18l33-24 5 23z"/><circle r="1" fill="#1b1b1b" fill-opacity=".5" transform="matrix(6.19208 1.86862 -5.95947 19.74794 106.3 127.1)"/><path fill="#505050" fill-opacity=".7" d="M19 30h3v129h-3z"/><path fill="#2f2f2f" fill-opacity=".4" d="M109.2 59.3L90.8 36.2l38.3 1.5-21.1-24z"/><path fill="#686868" fill-opacity=".4" d="M182.2 8L219-12.2 225.8 0 189 20.3z"/><path fill="#fff" fill-opacity=".5" d="M206 178l8-3-5-21z"/><path fill="#252525" d="M121.1 107.9l20.3 60.6L130.7 44l-9.2 56.5z"/><path fill="#e9e9e9" fill-opacity=".4" d="M87.4 108.9L47 91.1l58.4-14.5-40.6 35z"/><path fill="#e9e9e9" fill-opacity=".5" d="M25 41h13v11H25z"/><path fill="#4b4b4b" fill-opacity=".4" d="M83.6 102l3.7.7 27.5-22.4-24.1 10.6z"/><path fill="#050505" fill-opacity=".6" d="M6.7 65.8l-.4 35.3-17.3 25.3-5 21.2z"/><path fill="#8c8c8c" fill-opacity=".9" d="M163.9 67.1l17.7 49.6-4.3-34.9 3.5-67.2z"/><path fill="#777" fill-opacity=".6" d="M89 45.1l-6.1 25.1-18.2-25 13.5.6z"/><path fill="#020201" fill-opacity=".7" d="M0 164h23v6H0z"/><path fill="#797979" fill-opacity=".6" d="M240 119h10v9h-10z"/></g></svg>