<svg xmlns="http://www.w3.org/2000/svg" viewBox="0 0 300 199"><defs/><path fill="#56442e" d="M0 0h300v199H0z"/><g transform="translate(.6 .6) scale(1.17188)"><ellipse cx="123" cy="140" fill="#fec0a8" fill-opacity=".4" rx="97" ry="131"/><ellipse cx="208" cy="78" fill-opacity=".5" rx="59" ry="23"/><path fill="#e6dbdb" fill-opacity=".5" d="M215 52l10-42L71 56z"/><circle r="1" fill="#a58774" fill-opacity=".6" transform="matrix(12.46503 -24.97675 55.6419 27.76896 244.5 135.1)"/><ellipse cx="41" cy="115" fill="#b7855d" fill-opacity=".5" rx="215" ry="29"/><circle r="1" fill="#001007" fill-opacity=".6" transform="matrix(-3.87342 23.57932 -39.963 -6.5648 14.7 62)"/><ellipse cx="138" cy="17" fill="#e0dddf" fill-opacity=".7" rx="5" ry="63"/><circle r="1" fill="#281d19" fill-opacity=".5" transform="rotate(-114 138.1 20.7) scale(11.87553 36.62142)"/><path fill="#e2efff" fill-opacity=".8" d="M152 144l-36 41H78z"/><circle r="1" fill="#bc4600" fill-opacity=".4" transform="matrix(11.1002 27.73796 -76.6414 30.67043 63.6 157.5)"/><path fill="#dbd6c8" fill-opacity=".5" d="M54 35h69v23H54z"/><path fill="#e5dddd" fill-opacity=".5" d="M186.6 80.8l.5-4.9 9.3-18 6.4 15.7z"/><circle r="1" fill="#c2aa98" fill-opacity=".5" transform="rotate(-24.4 286.3 -188) scale(42.36682 18.41888)"/><ellipse cx="255" cy="50" fill="#e1f2fe" fill-opacity=".4" rx="6" ry="24"/><path fill="#d8f0ff" fill-opacity=".6" d="M182 161h29v9h-29z"/><ellipse cx="242" cy="11" fill="#353432" fill-opacity=".9" rx="43" ry="12"/><circle r="1" fill="#7b381d" fill-opacity=".5" transform="matrix(-32.9153 -6.6967 4.12907 -20.29503 101.3 16.8)"/><path fill="#000600" fill-opacity=".6" d="M2.3-11.9l25.6 8.4-10.2 31.4-25.6-8.4z"/><path fill="#100000" fill-opacity=".5" d="M176 24h5v53h-5z"/><path fill="#0a0300" fill-opacity=".6" d="M265 107l-91-18 62-33z"/><path fill="#c0ada9" fill-opacity=".4" d="M221.8-.2l-1.2 12L110.2.2l1.2-12z"/><path fill="#47113c" fill-opacity=".6" d="M48 66h46v13H48z"/><circle r="1" fill="#792001" fill-opacity=".4" transform="matrix(-18.6971 -16.23315 19.34396 -22.28009 32.3 155.7)"/><path fill="#701f00" fill-opacity=".4" d="M140 30l1-26.9 23 .8-1 27z"/><path fill="#16020b" fill-opacity=".5" d="M246 124l25 28-45-17z"/><path fill="#0a0407" fill-opacity=".4" d="M202.1 52.8l-25.8 22.5-16.6-5.6 8.6-18.1z"/><path fill-opacity=".4" d="M127 40l7 13-13 7z"/><path fill="#c5beae" fill-opacity=".9" d="M55.9 59.1l-14.7-4.7 8.1-2.7 65.5-7.6z"/><circle r="1" fill="#e1ba61" fill-opacity=".5" transform="matrix(-5.20663 -9.67738 24.71756 -13.29857 80.6 166.2)"/><path fill="#dfbcb1" fill-opacity=".4" d="M216 21l-34 4 39 42z"/><path fill="#684e3e" fill-opacity=".8" d="M157.5 65.3l40.7 41.3 43.2-9.1-101.2-3.9z"/><path fill="#f4f8f5" fill-opacity=".5" d="M21 32L9 36l2-9z"/><path fill="#1c2700" fill-opacity=".5" d="M67.9 46.8L50.4 31.1l-46.7 8 29.8 11.2z"/><circle r="1" fill="#101f28" fill-opacity=".6" transform="matrix(-7.3916 -1.14428 5.10543 -32.97909 244 40)"/><path fill="#e1d3c6" fill-opacity=".5" d="M94 144l-25-19-5-31z"/><path fill="#cedaf4" fill-opacity=".6" d="M145.6 146.9l.8-14.4-20.8 38.4 11.8-11.2z"/><path fill="#001eb9" fill-opacity=".3" d="M61.2 185l61.1-27.4 24.5-22.4-17.9 26z"/><circle r="1" fill="#a24311" fill-opacity=".5" transform="rotate(151.2 31.6 75.1) scale(14.8358 10.62289)"/><path fill="#d8e5f4" fill-opacity=".6" d="M-2 142l15-7-20-3z"/><path fill="#fffdb9" fill-opacity=".5" d="M117.2 135.7l11.8-5.5 3.8 8.1-11.8 5.5z"/><path fill="#622f19" fill-opacity=".7" d="M164 8.4l61.5 1.3-12.8 9-52.9 11z"/><circle cx="147" cy="59" r="5" fill-opacity=".5"/><path fill="#543926" fill-opacity=".4" d="M220.8 152.3L160 168.8l38.6-46.6 18 13.6z"/><ellipse cx="184" cy="42" fill="#dbd9d5" fill-opacity=".5" rx="3" ry="19"/><path fill="#998a85" fill-opacity=".7" d="M177.8 47.1l-51 31.6 24.6 3.7 24.1-45.8z"/><path fill="#705030" fill-opacity=".6" d="M28 84l22 49-7-51z"/><circle cx="82" cy="51" r="7" fill="#fff" fill-opacity=".6"/><path fill="#ebeae6" fill-opacity=".4" d="M139.7 27.6l17.4 39.7 7.6-37.7L124 40.2z"/><path fill="#622500" fill-opacity=".5" d="M143 139l-25 20 22-36z"/><path fill="#030d00" fill-opacity=".4" d="M21 30L-5 15l62-2z"/><circle cx="170" cy="168" r="6" fill="#ead9e5" fill-opacity=".4"/><path fill="#ac9c94" fill-opacity=".9" d="M271 152.7l-28-36.2-26.7 16.7 39.9-12.6z"/><path fill="#522519" fill-opacity=".5" d="M118 66l-6 9-25-20z"/><path fill="#ab9684" fill-opacity=".5" d="M103.3 64L56.5 41.2l129.4 98.5L68.4 90.8z"/><path fill="#ae6240" fill-opacity=".4" d="M66 34l69 12L40-3z"/><path fill="#8c8f91" fill-opacity=".6" d="M216 158l54-2-42-20z"/><circle r="1" fill="#e0ddd8" fill-opacity=".5" transform="rotate(-162.8 101.8 22.3) scale(7.43579 3.59132)"/><path fill="#837570" fill-opacity=".8" d="M150.1 148.5L136.8 185l10.1-49.7 30.7 21z"/><path fill="#fafaf3" fill-opacity=".8" d="M114.3 53.6l8-3.2-7.2-8-11.7 9.1z"/><circle r="1" fill="#030902" fill-opacity=".6" transform="matrix(-.97606 14.17976 -18.8506 -1.29757 17.8 70.9)"/><path fill="#091519" fill-opacity=".5" d="M234.8 172.4l-31.3-16 53.5 10.8-1.2 17.8z"/><path fill="#455847" fill-opacity=".5" d="M2.3 53.2l1-4.8 62.4 14.4-1 4.8z"/><path fill="#32221b" fill-opacity=".5" d="M166 100l-27-16 48 2z"/><path fill="#260f0e" fill-opacity=".5" d="M147 151h15v18h-15z"/><path fill="#f9dcca" fill-opacity=".2" d="M50.5 40.7L34.9 22.6l-8.3 13.8 58.3-2.3z"/></g></svg>