<svg xmlns="http://www.w3.org/2000/svg" viewBox="0 0 300 199"><defs/><path fill="#434444" d="M0 0h300v199H0z"/><g transform="translate(.6 .6) scale(1.17188)"><circle r="1" fill="#fafafa" fill-opacity=".9" transform="matrix(10.01925 204.85838 -60.09795 2.93928 107.8 42)"/><circle r="1" fill="#f1f0f0" fill-opacity=".6" transform="matrix(116.75763 226.69948 -38.95025 20.06065 224.2 33.5)"/><circle r="1" fill="#454545" fill-opacity=".9" transform="matrix(8.99944 -34.35805 32.0719 8.40063 197.3 63.3)"/><ellipse cx="255" cy="114" fill="#f9f9f9" fill-opacity=".9" rx="17" ry="94"/><circle r="1" fill="#efefef" transform="matrix(-75.81226 16.94605 -6.69541 -29.95356 175.3 2.8)"/><ellipse cx="219" cy="120" fill="#5a5a5a" fill-opacity=".8" rx="21" ry="48"/><circle cx="114" cy="169" r="13" fill="#191919" fill-opacity=".6"/><path fill="#515151" fill-opacity=".8" d="M160.4 111.1l10.5-58.9 73.3 130.2-77.2-17.2z"/><circle r="1" fill="#c3c3c3" fill-opacity=".7" transform="matrix(10.39603 -.51786 3.64792 73.23239 49.8 10)"/><path fill="#fcfcfc" fill-opacity=".8" d="M256 35.3l-25.4 66-.3-31.1.8-36.6z"/><path fill="#fff" fill-opacity=".6" d="M127 121h38v49h-38z"/><circle r="1" fill="#fff" fill-opacity=".5" transform="rotate(37.5 -84.8 218.5) scale(41.81127 55.43656)"/><path fill="#0b0b0b" fill-opacity=".4" d="M235 23.5l-66.6 31.4-14.3-37.2 43.9 84.6z"/><circle r="1" fill="#747373" fill-opacity=".6" transform="rotate(-6.9 1434 -426.8) scale(32.80779 8.9207)"/><path fill="#6e6d6d" fill-opacity=".4" d="M7.7-16.5l31.8-3.9 18.8 152.9-31.8 3.9z"/><circle r="1" fill="#100f0f" fill-opacity=".5" transform="matrix(11.6842 82.09752 -7.17806 1.02159 8.2 77.6)"/><path fill="#c6c6c6" fill-opacity=".6" d="M220 104l-17-1 8-31z"/><path fill="#bebdbd" fill-opacity=".5" d="M140 42h39L154-4z"/><path fill="#fff" fill-opacity=".4" d="M169 0h70v28h-70z"/><path fill="#090909" fill-opacity=".2" d="M105.5 55.2L92.2-16 89.3 3.2l5.9 55.3z"/><circle r="1" fill="#6a6a6a" fill-opacity=".6" transform="matrix(.00889 -8.32644 25.7926 .02753 204 34.6)"/><path fill="#919191" fill-opacity=".5" d="M136 171l-33-33v21z"/><path fill="#121212" fill-opacity=".5" d="M186 35l21 43-11 50z"/><path fill="#cdcccc" fill-opacity=".5" d="M231 126h3v44h-3z"/><path fill="#858484" fill-opacity=".6" d="M10 118l-16 33-10-68z"/><path fill="#4d4d4d" fill-opacity=".6" d="M216 29h14v141h-14z"/><path fill="#fdfdfd" fill-opacity=".5" d="M65 60h101v28H65z"/><path fill="#606060" fill-opacity=".6" d="M206.1 49.7l-40 100.4-4.1-7.1 4.5-58z"/><path fill="#bebebe" d="M230.4 42.3l-1.5-25.9L271 27.2l-43.1 9z"/><path fill="#434343" fill-opacity=".5" d="M41 165l20-22-9-50z"/><path fill="#5c5c5c" fill-opacity=".6" d="M164 37h15v19h-15z"/><path fill="#454545" fill-opacity=".5" d="M233 109h7v49h-7z"/><ellipse cx="49" cy="12" fill="#c6c6c6" fill-opacity=".5" rx="7" ry="58"/><path fill="#0e0e0e" fill-opacity=".4" d="M10 111h20v37H10z"/><path fill="#fff" fill-opacity=".5" d="M271 52l-42-22 12 88z"/><path fill="#f9f9f9" fill-opacity=".7" d="M129 137h35v33h-35z"/><path fill="#717171" fill-opacity=".6" d="M173.2 100.8l-12 .4-.4-14 12-.4z"/><path fill="#fff" fill-opacity=".4" d="M88 12l4.7 33.7L62 50l-4.7-33.7z"/><path fill="#4e4e4e" fill-opacity=".5" d="M232 87h6v53h-6z"/><path fill="#f8f8f8" fill-opacity=".4" d="M219.2 2.3l-61.9-14.9 8.2 109.8-2.4-54.6z"/><path fill="#050505" fill-opacity=".5" d="M181.7 75.3l17.1-31.5-27.4 11.3 3.1-7.7z"/><path fill="#2d2d2d" fill-opacity=".4" d="M129 168l-18-9-26 24z"/><path fill="#a9a9a9" d="M263.2 48.1l7.8-61.2-65.1-2.9 25.3 1.7z"/><path fill="#c2c2c2" fill-opacity=".6" d="M52 14l58-19-80-8z"/><circle cx="121" cy="19" r="22" fill="#fefefe" fill-opacity=".6"/><path fill="#f2f2f2" fill-opacity=".5" d="M80 108h29v54H80z"/><path fill="#232323" fill-opacity=".9" d="M-16 115.4L3.1-12.5l13.1 132-7.4-15.4z"/><path fill="#eaeaea" fill-opacity=".5" d="M47.4 70.1L58 67.6 64.6 96 54 98.4z"/><path fill="#afafaf" fill-opacity=".5" d="M205 85h10v23h-10z"/><path fill="#2e2e2e" fill-opacity=".4" d="M219 185l3-80-21 47z"/><path fill="#010101" fill-opacity=".3" d="M204.6 128.3l-15.1-73.8 1.2 37.4 12.5-30.5z"/><path fill="#252525" fill-opacity=".1" d="M105.8 50.7l-.2-4.7-49.8 5 .3 9.7z"/><path fill="#9e9e9e" fill-opacity=".5" d="M79.7 157.6l4.7 27.4-32.1-5.3 22-32.3z"/><path fill="#999" fill-opacity=".4" d="M156.8 40.5L149.2-14l4-.5 7.6 54.5z"/><path fill="#fbfbfb" fill-opacity=".7" d="M172 0h68v17h-68z"/><path fill="#656565" fill-opacity=".6" d="M220 31h10v52h-10z"/><path fill="#787878" fill-opacity=".7" d="M117.1 165.3l-7.3-19.3-2.2.3 3.1 21z"/><ellipse cx="240" cy="161" fill="#b5b5b5" fill-opacity=".6" rx="1" ry="49"/><circle r="1" fill="#eee" fill-opacity=".5" transform="matrix(-6.04864 6.09101 -7.69791 -7.64436 248.2 134.9)"/><path fill="#181818" fill-opacity=".5" d="M216 42h4v38h-4z"/><circle r="1" fill="#363535" fill-opacity=".6" transform="matrix(3.02816 13.62351 -42.63376 9.47638 0 160.2)"/><path fill="#646464" fill-opacity=".3" d="M11 33h35v56H11z"/><path fill="#f9f9f9" fill-opacity=".5" d="M125.5 154.8l-48-108.3 89.7 46.3v-9.2z"/><path fill="#7a7a7a" fill-opacity=".4" d="M212 100.8l10.4 11.3-5.6-45.3-7.9 6.7z"/><path fill="#f4f4f4" fill-opacity=".5" d="M232 18l1-26-51 38z"/></g></svg>