<svg xmlns="http://www.w3.org/2000/svg" viewBox="0 0 300 199"><defs/><path fill="#5e372a" d="M0 0h300v199H0z"/><g transform="translate(.6 .6) scale(1.17188)"><ellipse cx="172" cy="57" fill="#a0aeae" fill-opacity=".4" rx="65" ry="27"/><circle r="1" fill="#06070e" fill-opacity=".8" transform="rotate(86.4 31.4 160) scale(55.62007 20.72785)"/><circle r="1" fill="#fed3d5" fill-opacity=".4" transform="matrix(-14.14798 5.0078 -14.05079 -39.69616 62.4 100.6)"/><circle r="1" fill="#000001" fill-opacity=".7" transform="rotate(49.9 -63.3 172.7) scale(39.65685 22.7113)"/><ellipse cx="65" cy="2" fill="#001b0f" fill-opacity=".5" rx="193" ry="39"/><ellipse cx="240" cy="110" fill="#031100" fill-opacity=".4" rx="22" ry="72"/><path fill="#050000" fill-opacity=".6" d="M115 137l20-74 32 23z"/><path fill="#a6d4ff" fill-opacity=".2" d="M225.2 122.8l-16.4 4.4-30-112 16.4-4.4z"/><circle r="1" fill="#171a1a" fill-opacity=".6" transform="matrix(12.42454 67.77281 -29.72543 5.44945 0 117)"/><path fill="#dec9b9" fill-opacity=".5" d="M105 85l79-57-49 15z"/><path fill="#edcdbc" fill-opacity=".7" d="M168.5 66.9L156 70.1l2.7 12.8 17.8.9z"/><ellipse cx="154" cy="135" fill="#d45d64" fill-opacity=".5" rx="14" ry="26"/><ellipse cx="72" cy="139" fill="#905742" fill-opacity=".7" rx="33" ry="21"/><path fill="#c89b78" fill-opacity=".5" d="M264 31l-89 3 1 27z"/><path fill="#331611" fill-opacity=".8" d="M162.2 57.6l2.8-14 6.5-4.9 10.6 47.6z"/><path fill="#e3e8f2" fill-opacity=".6" d="M214 70l-17-21 20 52z"/><path fill="#00000a" fill-opacity=".5" d="M179 69h29v101h-29z"/><circle r="1" fill="#1c1c0e" fill-opacity=".6" transform="matrix(50.00187 35.6372 -18.63529 26.14682 29 16.8)"/><path fill="#eadbec" fill-opacity=".5" d="M129.6 54.9l-11.8 34.8-2.8-.9 1.5-22.5z"/><circle r="1" fill="#3c261e" fill-opacity=".5" transform="matrix(-4.7053 2.95163 -21.91518 -34.93578 137 62.4)"/><path fill="#caa8a7" fill-opacity=".4" d="M43 62l32 66-2-57z"/><circle r="1" fill="#484448" fill-opacity=".5" transform="matrix(15.87353 -9.61925 36.00557 59.41585 16.5 64.8)"/><path fill="#11070b" fill-opacity=".6" d="M97.2 101.5L160 67l-8.4 24.9-18.9 70.1z"/><circle r="1" fill="#cdc1c4" fill-opacity=".5" transform="rotate(46 36.3 236.7) scale(17.35231 5.024)"/><circle cx="198" cy="102" r="15" fill="#000617" fill-opacity=".6"/><ellipse cx="164" cy="3" fill="#353429" fill-opacity=".9" rx="46" ry="28"/><path fill="#81614b" fill-opacity=".4" d="M201 21h38v41h-38z"/><path fill="#eabaad" fill-opacity=".5" d="M236 75l-15 1 6 6z"/><path fill="#e4e2be" fill-opacity=".5" d="M142 46h6v26h-6z"/><path fill="#494234" fill-opacity=".6" d="M74 98l2-76 76 8z"/><ellipse cx="223" cy="164" fill="#1e0c00" fill-opacity=".4" rx="52" ry="19"/><ellipse cx="226" cy="105" fill="#070706" fill-opacity=".6" rx="7" ry="25"/><path fill="#031605" fill-opacity=".4" d="M243 0h9v90h-9z"/><path fill="#a14241" fill-opacity=".4" d="M135.5 143.3l21.1-68.5 2 6.1 17.3 2.5z"/><path fill="#1a0808" fill-opacity=".5" d="M163.9 185L103.8 66.4l-7.1-5.9-22.2 38.7z"/><circle r="1" fill="#070a0d" fill-opacity=".5" transform="matrix(2.88494 -5.17922 8.0727 4.49666 224.4 69.4)"/><path fill="#7e7a82" fill-opacity=".5" d="M3 40l17 6 5 28z"/><path fill="#4369c2" fill-opacity=".4" d="M188 53l10 33 9-24z"/><path fill="#8d8474" fill-opacity=".5" d="M105 41l18 9-27 11z"/><path fill="#8cd8cc" fill-opacity=".2" d="M163.4 136.4l6.7 19.7-1.2-36.2-18.7-13z"/><path fill="#c5b99c" fill-opacity=".4" d="M219 107l-13 7-1 12z"/><circle r="1" fill="#b4b8b3" fill-opacity=".6" transform="matrix(-3.8587 .75006 -4.00829 -20.62085 213.7 88.6)"/><path fill="#776550" fill-opacity=".5" d="M239 89h10v24h-10z"/><path fill="#100800" fill-opacity=".4" d="M132 54l-27-25 3-45z"/><circle cx="216" cy="59" r="5" fill="#e7c7c6" fill-opacity=".5"/><circle r="1" fill="#140e13" fill-opacity=".6" transform="matrix(9.95656 6.2043 -2.5042 4.0187 137.2 75)"/><circle r="1" fill="#140801" fill-opacity=".7" transform="matrix(8.93157 -2.59981 27.92869 95.94808 0 150.6)"/><ellipse cx="255" cy="51" fill="#a2a28e" fill-opacity=".2" rx="5" ry="40"/><circle r="1" fill="#fffef6" fill-opacity=".4" transform="matrix(1.67495 -5.03508 6.29262 2.09328 163.3 71.6)"/><path fill="#6a6761" fill-opacity=".5" d="M189 28l-57 17 28-20z"/><path fill="#492d17" fill-opacity=".3" d="M220.6 38l-29.3 12.9 18.3 7.8 9.9-6.4z"/><path fill="#65686a" fill-opacity=".4" d="M125.5-16h23.1l-14 27.8 39.8-6.1z"/><path fill="#b0a19d" fill-opacity=".5" d="M132 79l-10-5 8 10z"/><circle r="1" fill="#110100" fill-opacity=".5" transform="matrix(11.39522 4.37421 -9.91566 25.83118 27.4 13.9)"/><path fill="#fcece7" fill-opacity=".4" d="M176.7 45.7l38.8 23.7-11.8-14.2-24.6.2z"/><path fill="#2c2e14" fill-opacity=".5" d="M93 0L59-8l4 88z"/><path fill="#fb4c5c" fill-opacity=".2" d="M39.8 159l-1.8-9.6 5.5-11.2 37.3 4.3z"/><circle r="1" fill="#412a24" fill-opacity=".7" transform="matrix(-1.50207 -20.95492 16.20004 -1.16123 30 122.7)"/><ellipse cx="163" cy="161" fill="#851611" fill-opacity=".2" rx="26" ry="25"/><path fill="#323d40" fill-opacity=".5" d="M197 17h52v13h-52z"/><path fill="#ccc0c8" fill-opacity=".5" d="M117 85.6l8.9-32.9 1.6 20.3-17.5 1.5z"/><path fill="#fffbf4" fill-opacity=".5" d="M143 54l-11-9 15 1z"/><path fill="#916251" fill-opacity=".6" d="M101.1 129.7l-34.2 20.8L47.3 122l-5.8-25.6z"/><path fill="#180800" fill-opacity=".4" d="M151 79.3l18 8.9-10.2 25.7 62.1 32.7z"/><path fill="#826a61" fill-opacity=".4" d="M44.4 78.3l36-15.1 3.5-51.1 6.6 55.3z"/></g></svg>