<svg xmlns="http://www.w3.org/2000/svg" viewBox="0 0 300 199"><defs/><path fill="#434444" d="M0 0h300v199H0z"/><g transform="translate(.6 .6) scale(1.17188)"><circle r="1" fill="#b0b0b0" fill-opacity=".6" transform="matrix(68.61283 -38.75843 82.90887 146.77099 143.8 80.1)"/><circle cx="8" cy="112" r="20" fill="#fdfdfd" fill-opacity=".8"/><circle r="1" fill="#fff" fill-opacity=".6" transform="matrix(-22.03136 9.08067 -18.89012 -45.83086 105.7 132.9)"/><circle cx="208" cy="95" r="30" fill="#e7e7e7" fill-opacity=".6"/><circle r="1" fill="#131313" fill-opacity=".8" transform="matrix(-24.29915 6.10353 -17.27908 -68.7909 52.6 110)"/><circle r="1" fill="#282828" fill-opacity=".5" transform="rotate(-30.1 145.8 -279.9) scale(80.17901 32.29675)"/><ellipse cx="18" cy="21" fill="#b0b0b0" fill-opacity=".7" rx="51" ry="15"/><circle r="1" fill="#222" fill-opacity=".5" transform="matrix(49.25528 4.25816 -1.96788 22.76305 250.7 148.6)"/><circle r="1" fill="#888" fill-opacity=".8" transform="rotate(-55.8 202 -13) scale(21.86537 26.2318)"/><circle r="1" fill-opacity=".6" transform="matrix(-62.3181 -116.7245 13.71762 -7.3237 255 85.3)"/><path fill="#303030" fill-opacity=".6" d="M119 92h60v26h-60z"/><path fill="#a6a5a5" fill-opacity=".5" d="M1.3 157.4l-7.5-28 32.9-8.8 7.5 28z"/><circle r="1" fill="#2b2b2b" fill-opacity=".6" transform="matrix(6.60602 25.00129 -6.85659 1.8117 199 68.3)"/><path fill="#fff" fill-opacity=".5" d="M124 90l28 4-13-38z"/><circle r="1" fill="#f5f5f5" fill-opacity=".8" transform="matrix(22.69571 20.86978 -9.46629 10.2945 99.2 110)"/><circle r="1" fill="#e6e6e6" fill-opacity=".7" transform="rotate(154.2 102 57.8) scale(7.67413 27.98805)"/><circle r="1" fill="#b2b2b2" fill-opacity=".6" transform="matrix(12.67137 3.54378 -9.06907 32.42793 142.8 138.5)"/><path fill-opacity=".6" d="M122 91.8l-.3 16-17.5-6.5 8.9-10.2z"/><path fill-opacity=".4" d="M101 77l-78 42 13-47z"/><path fill="#282828" fill-opacity=".7" d="M155.1 44l-15.5 36.1 36.3-.5-13.9-13z"/><path fill="#e4e3e3" fill-opacity=".5" d="M239.1 21.4L271 86.9V-1.5l-20.5 30.3z"/><circle r="1" fill="#eaeaea" fill-opacity=".5" transform="matrix(-11.2302 2.82083 -5.36216 -21.34765 0 14)"/><circle r="1" fill="#696969" transform="matrix(-14.19683 23.19499 -26.5176 -16.23048 127.2 16.6)"/><path fill="#d0d0d0" fill-opacity=".7" d="M175.7 89.5l-1.5-32.1 19.3 16.2 7.2 66.2z"/><path fill="#e9e9e9" fill-opacity=".4" d="M246 122l-58 1 39-62z"/><ellipse cx="21" cy="55" fill="#484848" fill-opacity=".6" rx="21" ry="29"/><circle cx="21" cy="96" r="5" fill="#fff" fill-opacity=".7"/><path fill="#979797" fill-opacity=".7" d="M113.9 37.8L53.2 65.5l26.2 16.3-66.8-70z"/><path fill="#fcfcfc" fill-opacity=".5" d="M81 87h28v54H81z"/><circle cx="148" cy="45" r="8" fill-opacity=".5"/><ellipse cx="50" cy="116" fill="#090909" fill-opacity=".6" rx="24" ry="34"/><circle r="1" fill="#0d0d0d" fill-opacity=".7" transform="matrix(-24.83132 -64.5672 11.84087 -4.55378 255 102.8)"/><path fill-opacity=".4" d="M171 90l-5 27 20-4z"/><path fill="#d2d2d2" fill-opacity=".6" d="M205 160h20v7h-20z"/><path fill="#f2f2f2" fill-opacity=".4" d="M190 130h44v4h-44z"/><path fill="#e3e3e3" fill-opacity=".5" d="M143.5 54.6l5.8 4-16.8 24.8-5.8-4z"/><path fill="#f4f4f4" fill-opacity=".5" d="M127.4 118.7l18.4 18.3-34.5 3.6-6.6-8.8z"/><path fill="#fff" fill-opacity=".4" d="M19.8 93l11.7 42.3-9.7 1.7L-16 95.6z"/><path fill="#454545" fill-opacity=".6" d="M35.8 2.2l10 37.8-21-47.5-13.5 27.6z"/><path fill="#030303" fill-opacity=".5" d="M128 94h9v27h-9z"/><path fill="#262626" fill-opacity=".6" d="M98.5 60.3l-4.4 18.3 16.2-35.3-35.5 18.1z"/><path fill="#9a9a9a" fill-opacity=".5" d="M133 49L88-8l61 40z"/><path fill="#9b9b9b" fill-opacity=".5" d="M57 148h5v22h-5z"/><path fill="#d6d6d6" fill-opacity=".6" d="M58 71l3-12 6 14z"/><path fill="#9f9f9f" fill-opacity=".6" d="M145.8 38.4l19.1-28.6 12.9 24.1-2.8-27z"/><path fill="#fefefe" fill-opacity=".3" d="M175 63.4l-18.9 1.7 16 26.3-28.7-.9z"/><circle r="1" fill="#6e6d6d" fill-opacity=".3" transform="matrix(-25.85853 -20.42696 18.27895 -23.13936 10.4 154.1)"/><path fill="#0d0d0d" fill-opacity=".5" d="M192.4 11.1l-28.2 11.4L271 9.5 195.8-16z"/><circle r="1" fill="#686868" fill-opacity=".6" transform="rotate(-66.3 213.6 -63.8) scale(25.83008 21.47118)"/><path fill="#070707" fill-opacity=".5" d="M229 133h27v10h-27z"/><path fill="#d9d9d9" fill-opacity=".5" d="M36 26h29v9H36z"/><path fill="#bdbdbd" fill-opacity=".6" d="M163.6 80.6l-43.7.9 4.5 26.3 4.7-14.7z"/><path fill="#434343" fill-opacity=".6" d="M182.1 49.5l31.2-6.7-10.1-5.7-17.3 36.2z"/><path fill="#8e8e8e" fill-opacity=".4" d="M-10.7 28.3l22 .4-.6 39-22-.4z"/><path fill="#ebebeb" fill-opacity=".7" d="M238.4 99.8l-64.7 1 43.8-11.1-2-48.9z"/><path fill="#272727" fill-opacity=".6" d="M69 79h25v9H69z"/><path fill="#020202" fill-opacity=".2" d="M130.2 51.1l42.3-19.6-45.2 36L87.4-4z"/><path fill="#9c9c9c" fill-opacity=".4" d="M214.6 120.5L201 101.7l41-4.8-6.5 17z"/><path fill="#060606" fill-opacity=".4" d="M16.5 75.9l37.2-29.7 9.9 52.1-46.8-65z"/><path fill="#0f0f0f" fill-opacity=".9" d="M77.2 160.6L56 147.5 49.1 185l-21.4-79.2z"/><path fill="#717171" d="M200.1 131.6l61.2 20.5 9.7 5.4-7 2.1z"/><circle r="1" fill="#303030" fill-opacity=".4" transform="rotate(94.6 66.4 74) scale(13.71405 9.45843)"/><path fill="#888787" fill-opacity=".5" d="M75 141h48v29H75z"/><path fill="#262626" fill-opacity=".6" d="M195 78h13v10h-13z"/><path fill="#bcbcbc" fill-opacity=".4" d="M70.4 49.6l-34.7-12 9.4 11.9 9.7 2.2z"/></g></svg>