<svg xmlns="http://www.w3.org/2000/svg" viewBox="0 0 298 450"><defs/><path fill="#58372c" d="M0 0h298v450H0z"/><g transform="translate(.9 .9) scale(1.75781)"><circle r="1" fill="#ecfbff" fill-opacity=".8" transform="matrix(34.39061 12.2285 -21.9997 61.87046 169 86)"/><ellipse cx="41" cy="122" fill="#e7f6f6" fill-opacity=".7" rx="76" ry="20"/><circle cx="59" cy="43" r="62" fill="#0e0a00" fill-opacity=".6"/><circle r="1" fill="#796a60" fill-opacity=".8" transform="matrix(44.5313 -27.43384 21.58176 35.03206 56.8 166)"/><path fill="#e4f8fd" fill-opacity=".8" d="M163 71h7v148h-7z"/><path fill-opacity=".5" d="M114 0h37v73h-37z"/><ellipse cx="68" cy="237" fill="#020300" fill-opacity=".4" rx="160" ry="27"/><path fill="#faffff" fill-opacity=".6" d="M0 104h40v38H0z"/><path fill="#cbeeff" fill-opacity=".8" d="M163.5 41.9l-9.7-8.7 20.7-23 9.7 8.6z"/><path fill="#cbdbdd" fill-opacity=".5" d="M74 105h39v36H74z"/><circle r="1" fill="#34150d" fill-opacity=".4" transform="matrix(-7.35933 11.59646 -17.98205 -11.41176 61.7 127.5)"/><path fill-opacity=".6" d="M-9.3 55.6l53 2.8-2.4 46-53-2.8z"/><path fill-opacity=".5" d="M106 94h3v48h-3z"/><path fill="#ebf5f4" fill-opacity=".6" d="M130 78h40v66h-40z"/><path fill="#3f3226" fill-opacity=".6" d="M105 143h57v58h-57z"/><path fill="#170601" fill-opacity=".5" d="M55 122l26 46-3 53z"/><path fill="#bea79b" fill-opacity=".4" d="M64.3 172.5l-13.6-56.4-14.6 90.7 31.7 2.9z"/><path fill="#744437" fill-opacity=".8" d="M166.1 72.1l-35.2-1.9-6.2-9 40.1.6z"/><circle r="1" fill="#e4f9f9" fill-opacity=".6" transform="matrix(-2.74169 -.15808 .53188 -9.22452 112.6 105.6)"/><ellipse cx="80" cy="236" fill="#623f36" fill-opacity=".6" rx="128" ry="8"/><path fill="#3a2f25" fill-opacity=".9" d="M92.9 111l1.3-42.6 1.8 62-2.3 51.7z"/><ellipse cx="116" cy="93" fill="#1a1209" fill-opacity=".8" rx="3" ry="241"/><path fill="#3d1805" fill-opacity=".6" d="M57 115.5l1-10 11 1-1 10z"/><path fill="#201809" fill-opacity=".8" d="M124.3 50.6L92.8 11.7l77-62.3 31.4 38.9z"/><circle r="1" fill="#6c8b9a" fill-opacity=".5" transform="rotate(-88.6 198.7 30.5) scale(27.04549 2.64246)"/><ellipse cx="110" cy="134" fill="#58686a" fill-opacity=".5" rx="169" ry="2"/><path fill="#fdfffc" fill-opacity=".6" d="M92 108.9L70.7 103l-2 16.2 20.5 11.5z"/><path fill="#40332d" fill-opacity=".9" d="M88.3 140.5l-33.4 16.4 23.8 13.9v-42.7z"/><path fill="#f5fbfa" fill-opacity=".6" d="M31 130l-44-27h69z"/><path fill="#534841" fill-opacity=".9" d="M119 139l11 4-1-44z"/><path fill="#584034" fill-opacity=".7" d="M-3.8 211.6l29.5-62.9 14.2 30.2-10.6 32.9z"/><path fill="#e1ffff" fill-opacity=".5" d="M147.9 55.3l10.1-24 22.1 9.4-10.1 24z"/><path fill="#fff" fill-opacity=".6" d="M104.3 105.4l.4 25-9 .2-.4-25z"/><ellipse cx="16" cy="22" fill="#301f0b" fill-opacity=".9" rx="115" ry="42"/><path fill="#26170d" fill-opacity=".8" d="M92.7 251.1l92.3-38.6-35 20.9 16.1 37.6z"/><ellipse cx="72" cy="69" fill="#000100" fill-opacity=".6" rx="85" ry="4"/><path fill="#160b00" fill-opacity=".6" d="M45.7 112.3l-2.8 18.9 8.9-15.1 5.7-1.5z"/><path fill="#110c00" fill-opacity=".4" d="M0 68h109v36H0z"/><ellipse cx="15" cy="145" fill="#604b3c" fill-opacity=".6" rx="146" ry="5"/><path fill="#d6dfdd" fill-opacity=".7" d="M162.7 180.3l-1.4-33 23.7-30.5v80.1z"/><path fill="#c5b1a4" fill-opacity=".4" d="M92 161.9l-12 15.3-2.4-19.9 7.8-15z"/><path fill="#21140b" d="M45.9 210.5L-16 269.8l97.7-20.3-59.9-1.8z"/><path fill="#edf9f4" fill-opacity=".5" d="M115.4 87.6l-2.8 55-4-.2 2.8-55z"/><path fill-opacity=".4" d="M46 211h110v5H46z"/><path fill="#e9f2f4" fill-opacity=".8" d="M137 72h33v59h-33z"/><path fill="#f59879" fill-opacity=".2" d="M103.6 246l-13.1-17.9-4.4 1.3-14.8 16.4z"/><ellipse cx="124" cy="132" fill="#fefffe" fill-opacity=".3" rx="1" ry="40"/><path fill="#050c05" fill-opacity=".4" d="M145.7 67.8l-18.9 8.1 5.4-60.7-34 89.2z"/><ellipse cx="107" cy="112" fill="#0b0000" fill-opacity=".5" rx="2" ry="32"/><path fill="#471400" fill-opacity=".5" d="M65.2 169.4L45.7 211l-.9-.5L64.3 169z"/><path fill="#e8f6f7" fill-opacity=".2" d="M62.1 171.7l-1.9-13.8-14.7 28.7-8.1 29.7z"/><path fill="#8d574b" fill-opacity=".4" d="M17.7 246.7l31.7-.9 29.9-15.5-41.8-.9z"/><path fill="#26190e" fill-opacity=".9" d="M68 248.1L37.9 210l28.2 61 79.8-26.1z"/><path fill="#fff" fill-opacity=".5" d="M54 101v20l5-4z"/><ellipse cx="32" cy="220" fill="#130300" fill-opacity=".4" rx="88" ry="9"/><path fill="#74685c" fill-opacity=".5" d="M138 148h8v58h-8z"/><path fill="#b7c3c4" fill-opacity=".6" d="M157.2 219l.8-6.9 22.8 2.8-.8 7z"/><path fill="#fffee8" fill-opacity=".2" d="M3.5 147.6L9.7 171l18.9-23.1-37.9 3.9z"/><path fill="#000920" fill-opacity=".5" d="M78.7 125.3l-.4 8-11-.6.4-8z"/><path fill="#5f3a29" fill-opacity=".8" d="M63.5 220.4l-30.6-73.5 24.7 53.5 3.3 1.8z"/><path fill="#764e43" d="M115.8 65.5l-8.7-5.2-13.4 5.3 86.4.5z"/><circle r="1" fill="#bab3ac" fill-opacity=".6" transform="rotate(-111.5 84 68.7) scale(24.89396 3.27525)"/><path fill="#664a3c" fill-opacity=".9" d="M31.5 219L73 126.7l-38.5 75-8.3 50.6z"/><path fill="#daaf91" fill-opacity=".6" d="M61 142l-14-17-7 14z"/><path fill="#faf3ff" fill-opacity=".5" d="M61 121h3v13h-3z"/></g></svg>