<svg xmlns="http://www.w3.org/2000/svg" viewBox="0 0 300 199"><defs/><path fill="#443c44" d="M0 0h300v199H0z"/><g transform="translate(.6 .6) scale(1.17188)"><circle r="1" fill="#c1c6c1" fill-opacity=".6" transform="matrix(-10.34996 -18.80727 90.13005 -49.6001 81 116.2)"/><path fill="#fafdfa" fill-opacity=".7" d="M174 185v-41l-85 21z"/><circle r="1" fill="#e9f5e9" fill-opacity=".4" transform="rotate(43.7 14.7 353.4) scale(35.4668 42.31436)"/><circle r="1" fill="#010601" fill-opacity=".6" transform="matrix(-8.0807 -23.63137 28.33042 -9.68752 134.2 124.2)"/><circle r="1" fill="#bbc2bb" fill-opacity=".4" transform="matrix(14.15202 -15.6075 49.25502 44.66172 55.5 143.6)"/><path fill="#d3d3d3" fill-opacity=".9" d="M173 139.9l-7.5-28.2-8.3 73.3 16.8-31.7z"/><circle r="1" fill="#000900" fill-opacity=".5" transform="matrix(-38.1623 70.08383 -26.63951 -14.50585 19.4 38.7)"/><circle r="1" fill="#d9dbd9" fill-opacity=".7" transform="matrix(13.61566 60.2783 -4.94016 1.11588 248.2 68)"/><path fill="#cbcdcb" fill-opacity=".5" d="M123 66h48v34h-48z"/><ellipse cx="153" cy="46" fill="#070b07" fill-opacity=".7" rx="46" ry="18"/><ellipse cx="70" cy="101" fill="#bcbdbc" fill-opacity=".8" rx="4" ry="40"/><circle r="1" fill="#989f98" fill-opacity=".5" transform="rotate(-107.5 112.3 -74.2) scale(44.2495 10.65773)"/><path fill-opacity=".5" d="M164 117l16 29 91-3z"/><path fill="#3d3d3d" fill-opacity=".9" d="M146.5 123.2l-71.6 5.9L58.2 185l27.5-51.7z"/><path fill="#000400" fill-opacity=".6" d="M247-26.6l15 93.8-9 1.4-14.8-93.8z"/><path fill-opacity=".5" d="M33 96h25v16H33z"/><path fill="#4d504d" fill-opacity=".6" d="M83 30l42 47-53 37z"/><path fill="#f0f2f0" fill-opacity=".5" d="M90 130l-17 22 4 33z"/><path fill="#080c08" fill-opacity=".5" d="M-16 123l36 32-2-34z"/><path fill="#b2b2b2" fill-opacity=".9" d="M36.8 84l-17 25.1L85 130l-60.1-3.2z"/><circle r="1" fill="#fcfcfc" fill-opacity=".6" transform="rotate(74.2 -7.7 119.9) scale(10.78865 7.0886)"/><path fill="#bebebe" fill-opacity=".8" d="M45.6 154.6l24-22-10 49.5-6.9-18.8z"/><path fill="#b2bcb2" fill-opacity=".4" d="M185 150h49v8h-49z"/><circle r="1" fill="#212621" fill-opacity=".6" transform="matrix(.78648 42.4119 -18.05197 .33475 186.6 73.1)"/><path fill="#1e221e" fill-opacity=".6" d="M117.2 143.6l-10.8-13-15 3.9-11.6 43.9z"/><path fill="#111411" fill-opacity=".6" d="M-12 18l82 63-1-47z"/><path fill="#1c201c" fill-opacity=".5" d="M134.7 155.8l-1.1-8 25.7-3.6 1.1 8z"/><path fill="#f6fff6" fill-opacity=".2" d="M29.5 66.6l-7.9 13.7 37.7-2.2 27.7 31z"/><circle cx="242" cy="111" r="6" fill="#020202" fill-opacity=".7"/><path fill="#fff" fill-opacity=".6" d="M99 159l46 5-45 21z"/><ellipse cx="30" cy="166" fill="#151b15" fill-opacity=".5" rx="22" ry="10"/><path fill="#c6c7c6" fill-opacity=".5" d="M44 113h68v13H44z"/><path fill="#535653" fill-opacity=".6" d="M244 62l-53-72 19 91z"/><path fill="#ecedec" fill-opacity=".6" d="M-4.6 176.2L5.1 151l7.5 2.8L2.9 179z"/><path fill="#bdc6bd" fill-opacity=".5" d="M170-1l-23-15L89 4z"/><path fill="#c9c9c9" d="M246.5 88l16.3 81.9 8.2-45.5-32.6-88.7z"/><path fill="#c8cbc8" fill-opacity=".5" d="M192.8 125.5l-3 .5-6.6-37.5 3-.5z"/><circle r="1" fill="#0d0f0d" fill-opacity=".7" transform="matrix(-5.61314 .26565 -2.42217 -51.1792 179.1 121.3)"/><path fill="#fafafa" fill-opacity=".6" d="M214.7-12l.5 19.8 9.1 1.1 4.9-21.6z"/><path fill="#141814" fill-opacity=".6" d="M160.3 162.2l34.1-.2 76.6 15.9-89.7-9.4z"/><path fill="#171717" fill-opacity=".7" d="M93.2 152.4l36-51.1 38.7-2.9-2.7 28.7z"/><path fill="#bdbfbd" fill-opacity=".8" d="M146.4 16.8l11.5-.2.3-7.4-11.6 6.2z"/><path fill="#191b19" fill-opacity=".5" d="M120.9 94.6l-17.6-46.7 128.9 15.8L125.5 2z"/><path fill="#e6ece6" fill-opacity=".6" d="M84.1 8.4l1.3 3 2.9 5 4.4-8.2z"/><path fill="#1c1e1c" fill-opacity=".5" d="M71.6 45.4l30.6 32.2-3.3 44.4-3-27.5z"/><ellipse cx="72" cy="60" fill="#a8aca8" fill-opacity=".6" rx="3" ry="24"/><path fill="#abacab" fill-opacity=".5" d="M98.2 156.8l87.3 19-2.4-6.4-48.3-18.2z"/><path fill-opacity=".5" d="M29.9 113.2L42 91.4l6.1 3.4L36 116.6z"/><path fill="#cecfce" fill-opacity=".6" d="M122 85h46v12h-46z"/><path fill="#0e0e0e" fill-opacity=".6" d="M61.5 177l4.6 8 13.3-52.6L68 148.7z"/><ellipse cx="69" cy="95" fill="#fff" fill-opacity=".6" rx="3" ry="16"/><path fill="#d6d6d6" fill-opacity=".3" d="M218.6 108.2l18-29.1L271 107l-16.2-7.3z"/><circle r="1" fill="#d8dcd8" fill-opacity=".6" transform="rotate(93.6 55.3 59) scale(4.14567 2.37139)"/><path fill="#8c8d8c" fill-opacity=".6" d="M95.4 86.5l-6.2 6.6-14.6-13.6 6.2-6.6z"/><circle r="1" fill="#000900" fill-opacity=".5" transform="rotate(56.8 31.1 69.7) scale(23.97642 6.48792)"/><path fill="#f5f6f5" fill-opacity=".4" d="M176 157l-8-43-11 52z"/><path fill="#000400" fill-opacity=".5" d="M251.1 147.8l-79-9.7 72-5.7 8.8-20.1z"/><path fill="#5c5d5c" fill-opacity=".7" d="M66.7 22.3l-2 35.6-9.9-50.4 12 1.5z"/><path fill="#bebebe" fill-opacity=".5" d="M3 117l67-5 9 21z"/><path fill="#767876" fill-opacity=".6" d="M207 77l21 46-15 3z"/><path fill="#1d1f1d" fill-opacity=".7" d="M47 86l-11.8 9.2-4.9 20.7 37.8-7.5z"/><path fill="#7c7b7c" fill-opacity=".5" d="M14 129h18v35H14z"/><path fill="#7b7b7b" fill-opacity=".5" d="M170 62.5l1 20-21 1-1-20z"/><path fill="#313331" fill-opacity=".6" d="M154 29l14-33 76 72z"/><circle cx="40" cy="77" r="4" fill="#f2f8f2" fill-opacity=".5"/></g></svg>