<svg xmlns="http://www.w3.org/2000/svg" viewBox="0 0 298 450"><defs/><path fill="#5d3d2e" d="M0 0h298v450H0z"/><g transform="translate(.9 .9) scale(1.75781)"><circle cx="12" cy="117" r="200" fill="#dfcdb9" fill-opacity=".5"/><circle r="1" fill="#fafffb" fill-opacity=".8" transform="rotate(-74.3 38 21.5) scale(169 41.56184)"/><circle r="1" fill="#5f3320" fill-opacity=".7" transform="matrix(36.89784 8.72228 -26.24352 111.01791 88.6 165.4)"/><path fill="#895843" fill-opacity=".6" d="M100-16L18 103l132 63z"/><circle r="1" fill="#fff7e6" fill-opacity=".5" transform="rotate(167.5 80.6 18.6) scale(50.10251 19.71192)"/><circle r="1" fill="#c5d2c9" fill-opacity=".5" transform="matrix(-14.28905 -6.69348 71.68971 -153.04115 157 171)"/><path fill="#fcffff" fill-opacity=".8" d="M11 187l-12 72-15-140z"/><circle r="1" fill="#3e0c00" fill-opacity=".5" transform="rotate(-81.2 115.6 -52.1) scale(25.80987 9.85839)"/><circle r="1" fill="#301000" fill-opacity=".3" transform="matrix(-17.467 -16.98592 78.16295 -80.37673 63.4 215.3)"/><path fill="#2a0c00" fill-opacity=".5" d="M84 6l49-22 12 31z"/><circle r="1" fill="#d4cdb3" fill-opacity=".6" transform="matrix(9.56212 4.91426 -32.76696 63.75762 46.6 51.4)"/><path fill="#ae785f" fill-opacity=".6" d="M140 62l21 105-88-87z"/><path fill="#270a00" fill-opacity=".4" d="M44 93L96-16 82 61z"/><path fill="#392512" fill-opacity=".6" d="M66 137h21v114H66z"/><ellipse cx="166" cy="114" fill="#ffffeb" fill-opacity=".3" rx="6" ry="125"/><circle cx="35" cy="173" r="30" fill="#9d6f53" fill-opacity=".6"/><circle r="1" fill="#cfba93" fill-opacity=".6" transform="matrix(-17.48881 5.84828 -7.40685 -22.14959 34.7 117.4)"/><path fill="#f9ffff" fill-opacity=".6" d="M-5.4 113l-22.1-15.4L65.4-35l22.1 15.5z"/><circle r="1" fill="#9aa19a" fill-opacity=".5" transform="rotate(77.6 -86.2 205.1) scale(61.30966 30.08472)"/><circle r="1" fill="#e6c3b0" fill-opacity=".6" transform="rotate(-21.1 155.1 -320) scale(13.85084 27.95706)"/><path fill="#fff" fill-opacity=".6" d="M11.5 155L-2 141.5 18.5 121 32 134.5z"/><path fill="#be9783" d="M127.8 89.3l7.5-12 9.8-42.4L117.3 81z"/><path fill="#060910" fill-opacity=".3" d="M98.4 46.5l27 8.8-2.8 17.4L97.7 71z"/><path fill="#f1ffd2" fill-opacity=".2" d="M63 199.3l-25-23.7 2 6.8-2.6 32.8z"/><circle r="1" fill="#42332c" fill-opacity=".6" transform="rotate(172.6 73.6 119.4) scale(2.52875 15.00569)"/><circle r="1" fill="#683a25" fill-opacity=".6" transform="rotate(-120.5 113 38.4) scale(7.15308 23.65816)"/><circle r="1" fill="#2c1906" fill-opacity=".4" transform="matrix(27.69238 -20.08275 3.79056 5.22685 96.4 7.1)"/><path fill="#966b49" fill-opacity=".6" d="M126-16l12 34 18 2z"/><ellipse cy="68" fill="#f9feff" fill-opacity=".7" rx="20" ry="96"/><path fill="#ffe9bf" fill-opacity=".3" d="M156 190l-3-106 32 25z"/><path fill="#582405" fill-opacity=".3" d="M185 93.3l-.2-41.1-52.2 55.2 10-74.2z"/><path fill="#7a452e" fill-opacity=".5" d="M27 138h42v15H27z"/><path fill="#eae3d3" fill-opacity=".4" d="M179-14.3L150-16l-4.1 48.2L158.1 58z"/><path fill="#a78455" fill-opacity=".5" d="M44.4 81.5l10.2-16-33.7 22.7 40.4 50.2z"/><path fill="#feccc3" fill-opacity=".2" d="M89.9 10.4L74.7 42.2 97.9 80l-16.3 6.3z"/><path fill="#6e4c30" fill-opacity=".9" d="M23.9 264.8l3.2-21.6 42.1-5.3L89 268z"/><path fill="#1b0600" fill-opacity=".3" d="M90 143.5l-42.5-28.3 34.9 48.9 22.1 16.4z"/><path fill="#9db0b2" fill-opacity=".3" d="M86 237h80v19H86z"/><path fill="#69452d" fill-opacity=".8" d="M56.9 100.6l12.4 37.2-22.1-42.4 13.8-43z"/><path fill="#a47058" fill-opacity=".6" d="M148.6 111l-74.7 28.7-6.5-16.8 74.7-28.6z"/><path fill="#fffff9" fill-opacity=".4" d="M140.8 36.4l-28.8-14 5.2-10.8 28.8 14z"/><path fill="#281510" fill-opacity=".3" d="M155.5 208.9l2.3 13.9 8.5 27.7-6.6-58.9z"/><path fill="#feffff" fill-opacity=".6" d="M0 170h7v53H0z"/><path fill="#b58873" fill-opacity=".6" d="M126.3 43l-10 6.7L95.8 19l10-6.7z"/><path fill="#b7a480" fill-opacity=".5" d="M54.3 66.1l-6.3-3L81.7-6.1l6.3 3z"/><path fill="#724031" fill-opacity=".6" d="M129 117l8 55-44-19z"/><path fill="#a2785e" fill-opacity=".5" d="M9 189h30v52H9z"/><path fill="#201d15" fill-opacity=".6" d="M56.1 65.8L65.4 52l15 4-2.2 7.6z"/><path fill="#fffbd8" fill-opacity=".2" d="M40.1 114.7l10.1 27.2L61.5 102l16.2 23z"/><path fill="#dde6e7" fill-opacity=".7" d="M146-2l36-14-11 46z"/><circle r="1" fill="#6c483c" fill-opacity=".5" transform="rotate(-151.2 78.9 78.2) scale(10.85641 54.34746)"/><path fill="#793726" fill-opacity=".5" d="M163 179h4v9h-4z"/><circle r="1" fill="#d0dae3" fill-opacity=".4" transform="matrix(11.6292 3.78742 -4.41968 13.57054 164 161.8)"/><path fill="#c8a072" fill-opacity=".5" d="M143 144l18-62 4 61z"/><ellipse cx="148" cy="68" fill="#100500" fill-opacity=".4" rx="5" ry="9"/><path fill="#cac5b0" fill-opacity=".4" d="M67 6L19 76l32-15z"/><ellipse cx="22" fill="#eef5f7" fill-opacity=".7" rx="45" ry="27"/><path fill="#f7f9f2" fill-opacity=".5" d="M31 131.2l25.7 8.6-52.8-6.7 13.8 14.7z"/><circle r="1" fill="#996752" fill-opacity=".5" transform="matrix(23.1357 -5.61732 3.88256 15.99084 29.6 162.8)"/><path fill="#d4d1be" fill-opacity=".5" d="M31.2 114.2l-4-3 13.6-17.4 4 3z"/><circle r="1" fill="#b4aa95" fill-opacity=".6" transform="rotate(-170 28.4 104.5) scale(2.16447 33.01322)"/><path fill="#51381f" fill-opacity=".5" d="M64 178l14-40-20-22z"/><path fill="#e9cfc4" fill-opacity=".4" d="M116.8 70l15 1-.6 9-15-1z"/><path fill="#592723" fill-opacity=".4" d="M168 193h2v16h-2z"/><circle r="1" fill="#af8552" fill-opacity=".4" transform="matrix(10.15367 12.57874 -2.22507 1.7961 31.5 119.5)"/></g></svg>