<svg xmlns="http://www.w3.org/2000/svg" viewBox="0 0 300 199"><defs/><path fill="#424242" d="M0 0h300v199H0z"/><g transform="translate(.6 .6) scale(1.17188)"><circle r="1" fill="#fbfbfb" fill-opacity=".7" transform="matrix(5.99493 -114.78261 37.03315 1.93419 146.4 133.5)"/><ellipse cx="179" cy="42" fill="#999" fill-opacity=".5" rx="80" ry="44"/><circle r="1" fill-opacity=".6" transform="matrix(37.10666 -74.20629 54.3311 27.16812 48.7 121.6)"/><path fill="#ccc" fill-opacity=".7" d="M43.3 58.6l-16-.2 1.4-75 16 .2z"/><circle r="1" fill="#030303" fill-opacity=".9" transform="matrix(-30.58826 -18.45202 15.775 -26.15053 233.6 149.4)"/><path fill="#f4f4f4" fill-opacity=".7" d="M159 36.5l-30.6 119.6 36.9 20.4 30.8 8.5z"/><circle r="1" fill="#535353" fill-opacity=".6" transform="rotate(170.3 89.9 44.2) scale(16.58886 88.77607)"/><ellipse cx="61" cy="39" fill-opacity=".7" rx="17" ry="35"/><path fill="#aeaeae" fill-opacity=".8" d="M192 24h64v17h-64z"/><circle r="1" fill="#1d1d1d" fill-opacity=".7" transform="matrix(10.55935 100.46554 -24.44185 2.56894 4.6 36.5)"/><path fill="#fff" fill-opacity=".6" d="M36.3 31.4l-5-3.4 30.4-43.4 5 3.4z"/><ellipse cx="151" cy="16" fill="#fff" fill-opacity=".4" rx="9" ry="34"/><path fill="#333" fill-opacity=".7" d="M225 49h31v70h-31z"/><path fill-opacity=".6" d="M208.9 27.6l53.2-22.9L242.4-16l-46.2 53.7z"/><ellipse cx="114" cy="169" fill="#8b8b8b" fill-opacity=".6" rx="7" ry="93"/><path fill="#a4a4a4" fill-opacity=".8" d="M186.7 21.2l3.5-37.2L228-2.3l-30.7 29.7z"/><path fill-opacity=".4" d="M57.6 5.1l54.1-1.2 19.4 33.8 24-53.7z"/><circle r="1" fill="#6e6e6e" fill-opacity=".6" transform="rotate(-132.4 119.8 -1.8) scale(39.45556 18.82757)"/><path fill="#1c1c1c" fill-opacity=".3" d="M153.4 67.5l-56 3-.8-16 56-3z"/><circle r="1" fill="#030303" fill-opacity=".5" transform="matrix(9.01796 -3.18396 8.316 23.55352 175.8 6.6)"/><circle r="1" fill="#7a7a7a" fill-opacity=".6" transform="rotate(-141.7 24 17.2) scale(18.08256 9.61694)"/><path fill="#4e4e4e" fill-opacity=".7" d="M58.7 107l-53.1 8.7 47 4.8 9.5 1.7z"/><path fill="#050505" fill-opacity=".6" d="M198.5 101.1l1.8-19.6L224.4 185l-22.8-5.2z"/><ellipse cx="114" cy="21" fill="#e5e5e5" fill-opacity=".4" rx="4" ry="19"/><ellipse cx="185" cy="131" fill="#8e8e8e" fill-opacity=".3" rx="11" ry="100"/><path fill="#979797" fill-opacity=".9" d="M95 177l26 8-10-39z"/><path fill="#010101" fill-opacity=".6" d="M71.4 17.8l25 203.5-23.8 2.9-25-203.5z"/><path fill="#ddd" fill-opacity=".5" d="M130 60.4l-10.2-12.2L142 29.6l10.2 12.2z"/><path fill="#3e3e3e" fill-opacity=".5" d="M10 71h37v33H10z"/><path fill="#f6f6f6" fill-opacity=".5" d="M133 75h36v69h-36z"/><path fill="#252525" fill-opacity=".5" d="M64 4h44v34H64z"/><path fill="#e5e5e5" fill-opacity=".5" d="M27.5 28.5l20.3-11.6L44 3.1 27.1 6.4z"/><path fill="#d6d6d6" fill-opacity=".4" d="M188.7 104.4l-5.2-7.7 19.6-62.1-.7 8.3z"/><path fill="#bababa" fill-opacity=".6" d="M246.8 14.4L250 23l-34.7 12.7L212 27z"/><path fill="#3f3f3f" fill-opacity=".7" d="M91.1 46.7l41.3 39.7-21.7-14.7L122 57.4z"/><path fill="#1e1e1e" fill-opacity=".5" d="M196 90l8 21-20 33z"/><circle r="1" fill="#4a4a4a" fill-opacity=".5" transform="matrix(-12.01095 -8.4728 14.3424 -20.33164 216.4 71.8)"/><circle r="1" fill="#1e1e1e" fill-opacity=".5" transform="matrix(2.59326 1.1183 -3.61968 8.39382 198 42.8)"/><path fill="#e1e1e1" fill-opacity=".3" d="M196.2 185l3.5-34.8-1.1 4.6-43-21.4z"/><path fill="#040404" fill-opacity=".5" d="M231 18l-24 5-1-15z"/><path fill-opacity=".3" d="M44.2-4l.5 7-41 3-.4-7z"/><path fill="#7f7f7f" fill-opacity=".5" d="M15.5 41.2l-2.8 14.2 1 3.8 19.9-21.1z"/><path fill="#646464" fill-opacity=".4" d="M13.5 172.5l8.3-3.6 41.1 14.8-2.4-27.3z"/><path fill="#030303" fill-opacity=".6" d="M22 184.5l-26.7 3.8L-22 65.5l26.7-3.8z"/><path fill="#080808" fill-opacity=".9" d="M203 119h53v51h-53z"/><path fill="#2c2c2c" fill-opacity=".5" d="M115.2 39.4l13.2-17.6 6.4 4.8-13.2 17.6z"/><path fill="#8b8b8b" fill-opacity=".5" d="M140 24l-26 4 16-19z"/><path fill-opacity=".5" d="M109-6l31 6v18z"/><path fill="#575757" fill-opacity=".6" d="M94.1 148.6l9.4 7.8-8.6 28.6 21.6-61z"/><path fill="#f7f7f7" fill-opacity=".4" d="M139.1 5l5.7-2 24 70-5.6 2z"/><path fill-opacity=".5" d="M94 72h16v50H94z"/><path fill="#e0e0e0" fill-opacity=".2" d="M232.4-16l-46.3 71.1-9.8-27 15.7 7z"/><path fill="#303030" fill-opacity=".6" d="M242.6 43.1l-7.4-7.3L232 60l38.1 91.6z"/><circle r="1" fill="#626262" fill-opacity=".5" transform="matrix(-1.98423 -46.14325 3.42708 -.14737 181.8 100.9)"/><path fill="#9e9e9e" fill-opacity=".5" d="M236.3 15.3l-3 36.2-31.2-9.6L271 28.2z"/><path fill="#606060" fill-opacity=".8" d="M148.4 69.4l-6.9-19.7 9.4-.5v15.6z"/><path fill="#f6f6f6" fill-opacity=".1" d="M93.1 38.7l19.6 21L89.2 7.8l9.7.3z"/><circle r="1" fill="#0b0b0b" fill-opacity=".5" transform="matrix(10.37248 -25.52809 14.31954 5.81826 7.7 26)"/><path fill-opacity=".4" d="M251.5-16l13.4 38.4-19.7-1.5-5.6-32z"/><path fill="#8e8e8e" fill-opacity=".5" d="M51 92l-9-7 1 8z"/><ellipse cx="54" cy="34" fill="#090909" fill-opacity=".6" rx="11" ry="25"/><circle r="1" fill="#c1c1c1" fill-opacity=".6" transform="matrix(2.56614 .86347 -12.1091 35.98717 146 93.5)"/><path fill="#3f3f3f" fill-opacity=".8" d="M190 40.5h-1l3-57h1z"/><path fill="#acacac" fill-opacity=".5" d="M35.8 56L35.5-.1 37 1.2l10.3 56.1z"/><ellipse cx="29" cy="65" fill="#0c0c0c" fill-opacity=".5" rx="30" ry="8"/></g></svg>