<svg xmlns="http://www.w3.org/2000/svg" viewBox="0 0 300 199"><defs/><path fill="#623e2d" d="M0 0h300v199H0z"/><g transform="translate(.6 .6) scale(1.17188)"><ellipse cx="178" cy="111" fill="#f2f6fb" fill-opacity=".6" rx="49" ry="51"/><circle r="1" fill="#879393" fill-opacity=".6" transform="matrix(9.69595 -74.65467 72.88994 9.46675 39.4 135)"/><path fill="#150d13" fill-opacity=".7" d="M206 114h29v32h-29z"/><path fill="#dad1c2" fill-opacity=".5" d="M183 96l-2-112 54 127z"/><ellipse cx="21" cy="149" fill="#ebe8df" fill-opacity=".5" rx="21" ry="26"/><circle r="1" fill="#040800" fill-opacity=".7" transform="matrix(-10.9789 21.04256 -11.20871 -5.84812 82.1 98)"/><circle r="1" fill="#c5bdbb" fill-opacity=".6" transform="matrix(-72.97767 -73.5058 15.3554 -15.24508 200.6 158)"/><circle r="1" fill="#181e13" fill-opacity=".6" transform="matrix(-3.93805 35.67042 -24.27772 -2.68028 158 41.3)"/><circle r="1" fill="#051512" fill-opacity=".7" transform="matrix(-31.40058 45.62638 -22.28359 -15.33581 3.2 27.5)"/><circle r="1" fill="#adcbe9" fill-opacity=".3" transform="matrix(-16.57757 4.77016 -6.76744 -23.51863 50.3 33.6)"/><circle r="1" fill="#010a1c" fill-opacity=".4" transform="rotate(-174.4 6.8 53.8) scale(34.34022 17.93217)"/><path fill-opacity=".8" d="M272.5 82.6l9.4 27.5-44.4 15.3-9.4-27.5z"/><circle r="1" fill="#101713" fill-opacity=".7" transform="matrix(-12.80187 6.52288 -31.50234 -61.82682 218.8 18.3)"/><path fill="#06230f" fill-opacity=".4" d="M54 2h75v64H54z"/><path fill="#bb9f7e" fill-opacity=".6" d="M100 28h8v115h-8z"/><path fill="#c6d5dc" fill-opacity=".8" d="M184.4 42.4l-3.2-6.7L186 5.5l13.5 51.7z"/><circle r="1" fill="#b9926a" fill-opacity=".4" transform="matrix(-10.29025 16.40407 -44.04532 -27.62957 115.5 151)"/><circle r="1" fill="#531b06" fill-opacity=".6" transform="matrix(-4.2225 .64996 -10.2175 -66.37878 214 149.2)"/><path fill="#eef5ff" fill-opacity=".5" d="M248.8 144.2l-8.6 2.6-7-23 8.6-2.6z"/><path fill="#fffaf1" fill-opacity=".5" d="M102.1 102.6l-6.1 39 2.7-24.1L80 106.9z"/><path fill-opacity=".5" d="M108 99h23v31h-23z"/><path fill="#fffdff" fill-opacity=".4" d="M61 83l25-25-3 20z"/><path fill="#d5d6d8" fill-opacity=".5" d="M133 97h27v50h-27z"/><ellipse cx="63" cy="169" fill="#4b2d16" fill-opacity=".6" rx="25" ry="15"/><path fill="#a1a1b5" fill-opacity=".5" d="M40 67l8 47L74 9z"/><ellipse cx="139" fill="#918c81" fill-opacity=".7" rx="56" ry="5"/><circle r="1" fill="#00061c" fill-opacity=".6" transform="rotate(146.9 98.2 118) scale(7.49217 45.5995)"/><path fill="#a4a3a7" fill-opacity=".4" d="M48.2 23.9L59 72.7 16.2 9.2-6.5 26.8z"/><path fill="#b17017" fill-opacity=".6" d="M197 25h18v34h-18z"/><path fill="#000108" fill-opacity=".5" d="M21 25l17 49-54-31z"/><path fill="#0d0d03" fill-opacity=".7" d="M67.8 69.8l-.6-30.9 28.7 42.9L85.1-3z"/><circle r="1" fill="#020200" fill-opacity=".6" transform="matrix(101.24196 11.1466 -.55608 5.05075 72.8 7.4)"/><path fill="#3d3520" d="M169.6 43.1l-62.4 26.6 12.3 7.1 24.7 7.2z"/><path fill="#8b764f" fill-opacity=".5" d="M154 18l-47 23-39-18z"/><path fill="#80a99d" fill-opacity=".5" d="M246 17h10v43h-10z"/><path fill="#d1efff" fill-opacity=".5" d="M3 82h31v6H3z"/><ellipse cx="4" cy="71" fill="#aaa218" fill-opacity=".9" rx="17" ry="6"/><path fill="#d2c6bd" fill-opacity=".4" d="M109.4 134.4L3.8 143.6l-1.2-14 105.6-9.2z"/><path fill="#b7a8a1" fill-opacity=".6" d="M199.2 176.9l22.5-42.9 5.2 9.9-52.3 17.6z"/><path fill="#00010b" fill-opacity=".3" d="M255 24L240-5 139 14z"/><path fill="#641603" fill-opacity=".3" d="M182.9 15.1l12.4 65.3-12.7 6.4 2.6-47.3z"/><path fill="#83746a" d="M240.2 74.5l-27.7-1.1 8.6 11.3 25.7-1.3z"/><path fill="#16140a" fill-opacity=".7" d="M68.8 107.8L66.3 84l16.9-1.8 2.5 23.8z"/><path fill="#4c3726" fill-opacity=".5" d="M117.3 137l68.9 32.2-5.5 11.8-68.9-32.2z"/><path fill="#d1cdce" fill-opacity=".5" d="M223.2 178.2l-3.6-38.1 17.8 26.2-19.3 7.9z"/><path fill="#e1ecf3" fill-opacity=".7" d="M197.6 44.7l-3.3-23.9-.2-1.8-7.6 28z"/><circle cx="166" cy="90" r="23" fill="#c4b3b1" fill-opacity=".5"/><ellipse cx="151" cy="35" fill="#dbd8df" fill-opacity=".4" rx="2" ry="21"/><circle r="1" fill="#262b45" fill-opacity=".4" transform="matrix(-4.4297 -62.24284 3.3648 -.23947 40.6 105.6)"/><path fill="#f8feff" fill-opacity=".5" d="M205.8 65.8L222 87l8.2 31.4-37.3-61z"/><path fill="#251e11" fill-opacity=".6" d="M56.5 42.9L68.3 6.7 51.6 28.5l-7.4.4z"/><path fill-opacity=".5" d="M151 9h28v22h-28zM55 55l34-31-17 44z"/><path fill="#fff" fill-opacity=".4" d="M132 58h2v16h-2z"/><ellipse cx="97" cy="46" fill="#59461c" fill-opacity=".9" rx="5" ry="29"/><circle r="1" fill="#8d674a" fill-opacity=".7" transform="matrix(-12.84934 -25.43737 27.2349 -13.75734 108.2 164.5)"/><path fill="#9f822a" fill-opacity=".5" d="M67 14l-9.6 26.1 24.5-10.3-9.4-21.1z"/><path fill="#000305" fill-opacity=".7" d="M212.2 122.8l5.9-13.7 24 73.9 11.8-7.7z"/><path fill="#ffb5a2" fill-opacity=".4" d="M48.7 7.4l1.7 1.2 7.3 11.5L36 31.5z"/><path fill="#221710" fill-opacity=".6" d="M214 35h20v36h-20z"/><path fill="#785e50" fill-opacity=".9" d="M126.8 107.1L113 85.3l-12-3.5 33.3-4z"/><path fill="#4e2010" fill-opacity=".6" d="M223 177l-16-29 10-24z"/><path fill="#d2d5d9" fill-opacity=".6" d="M106.8 94.5l-4.6-64.9h1l4.6 64.8z"/><ellipse cx="124" cy="53" fill="#040900" fill-opacity=".6" rx="7" ry="20"/><path fill="#040000" fill-opacity=".6" d="M20 6h21v16H20z"/></g></svg>