<svg xmlns="http://www.w3.org/2000/svg" viewBox="0 0 300 199"><defs/><path fill="#2d4857" d="M0 0h300v199H0z"/><g transform="translate(.6 .6) scale(1.17188)"><circle r="1" fill="#b27b63" fill-opacity=".7" transform="matrix(-32.92653 -186.73563 154.6126 -27.26237 60.8 29)"/><circle r="1" fill="#e3c0b3" fill-opacity=".7" transform="matrix(-20.56885 -9.02065 37.7372 -86.0482 33.5 67)"/><path fill="#281604" fill-opacity=".5" d="M112 15l81 164 18-155z"/><circle r="1" fill="#e2ebfa" fill-opacity=".6" transform="matrix(-6.43643 -21.3386 16.96046 -5.11583 99.7 152.5)"/><path fill="#3d0900" fill-opacity=".5" d="M72 135L60.3 79.3 118 67l11.9 55.7z"/><path fill="#f7d0c7" fill-opacity=".5" d="M142 61l-17 35 61 87z"/><circle r="1" fill="#7d5447" fill-opacity=".5" transform="matrix(-11.50503 128.11435 -39.86107 -3.57964 235.5 94.1)"/><path fill="#f7ffff" fill-opacity=".6" d="M158 26h8v39h-8z"/><path fill="#001210" fill-opacity=".6" d="M64.8 72.7l5.5-54.2 15 23.7L70.7 72z"/><path fill="#cbaa9c" fill-opacity=".7" d="M16 0h50v104H16z"/><ellipse cx="255" cy="121" fill="#a4b8d8" fill-opacity=".3" rx="13" ry="90"/><circle r="1" fill="#761103" fill-opacity=".5" transform="matrix(-4.6508 -26.10946 8.2169 -1.46365 12 48.9)"/><path fill="#191d02" fill-opacity=".6" d="M117.8 44.7l3.5-27 12.1 2.9 4.2 59.2z"/><path fill="#0d0a00" fill-opacity=".6" d="M216.6 41.5l3-24.9 31.8 4-3 24.8z"/><path fill="#24120c" fill-opacity=".6" d="M246.7 95.7l-20 11.1-21.4-38.5 20-11.1z"/><path fill="#623727" fill-opacity=".5" d="M64 162l-50-17 24-42z"/><ellipse cx="188" cy="18" fill="#e9fffe" fill-opacity=".4" rx="4" ry="28"/><ellipse cx="178" cy="49" fill="#000300" fill-opacity=".6" rx="8" ry="21"/><circle r="1" fill="#e4bcb1" fill-opacity=".6" transform="matrix(13.33448 -2.76144 12.9477 62.52207 0 98.8)"/><path fill="#e9faf8" fill-opacity=".5" d="M76-16l-26 6 8 70z"/><path fill="#f4ffff" fill-opacity=".5" d="M253 21h3v50h-3z"/><ellipse cx="218" cy="169" fill="#f5f8f9" fill-opacity=".5" rx="8" ry="12"/><ellipse cx="157" cy="13" fill="#bbbeb3" fill-opacity=".4" rx="129" ry="4"/><circle r="1" fill="#83351e" fill-opacity=".7" transform="matrix(-4.75976 3.73213 -24.12467 -30.76733 140.2 136)"/><path fill="#f6b2a4" fill-opacity=".5" d="M127 162h58v8h-58z"/><path fill="#0f0000" fill-opacity=".5" d="M228.8 114.3l11.3 80.2-9 1.2-11.2-80.2z"/><path fill="#c0b1a6" fill-opacity=".4" d="M203 79l23-41-33 15z"/><path fill="#351c17" fill-opacity=".7" d="M62.9 132.7l37.3-35.1 12 16.3-38.5 29.2z"/><ellipse cx="34" cy="20" fill="#a76d57" fill-opacity=".5" rx="6" ry="74"/><path fill="#0e0200" fill-opacity=".5" d="M163.1 71.8L146 81.9l8.1 16.8-.3-54.1z"/><circle r="1" fill="#eacebe" fill-opacity=".6" transform="matrix(-4.2338 1.77973 -12.68422 -30.17457 139 94.6)"/><path fill="#7a5a3d" fill-opacity=".7" d="M117 122L73 21l38-2z"/><circle r="1" fill="#652d0e" fill-opacity=".5" transform="matrix(-56.22734 3.10951 -.50035 -9.04758 246.7 1.9)"/><ellipse cx="215" cy="42" fill="#b4d7e2" fill-opacity=".5" rx="4" ry="20"/><ellipse cx="112" fill="#421400" fill-opacity=".4" rx="41" ry="8"/><path fill="#050300" fill-opacity=".5" d="M251 43l-1 18-26-39z"/><path fill="#2f0000" fill-opacity=".4" d="M172 145l28-35-3 75z"/><circle r="1" fill="#ca918e" fill-opacity=".7" transform="matrix(-36.1339 -1.58537 .16063 -3.66115 68.2 167.4)"/><path fill="#9b867e" d="M156.6 126.7l6-6.7 14.8 13.3-6 6.7z"/><path fill="#002314" fill-opacity=".6" d="M209 47l-17-1 1-21 17 1z"/><ellipse cx="161" cy="35" fill="#ddf8ff" fill-opacity=".4" rx="3" ry="25"/><path fill="#020705" fill-opacity=".8" d="M101.1 124.2l17 2.5-9.5-17.3-8.8 4.9z"/><path fill="#c8ada4" fill-opacity=".6" d="M69.5 75.4l13.2-10.9-18.1 26.7-49.2-31.3z"/><ellipse cx="91" cy="18" fill="#eac312" fill-opacity=".4" rx="24" ry="4"/><path fill="#06110e" fill-opacity=".5" d="M83 34h47v4H83z"/><path fill="#d4d7e7" fill-opacity=".2" d="M184 185l-98.8-47.3 12.2-26.8 6.9 18.3z"/><path fill="#6b616b" fill-opacity=".7" d="M254.5 119.1l-34.3-80.3 18.6 7.5L271 90.1z"/><path fill="#100300" fill-opacity=".7" d="M214.6 105.8l-5.5-9.6 10.3-6 5.5 9.6z"/><path fill="#eed0cd" fill-opacity=".4" d="M24.9 20.7l1.8 1.1L-16-10.5 25.6.5z"/><ellipse cx="210" cy="133" fill="#240100" fill-opacity=".5" rx="3" ry="27"/><path fill="#3f4d00" fill-opacity=".3" d="M183.8 32.9L73.5 22.5l120.3-7.8-26.7 25.4z"/><circle cx="187" cy="4" r="5" fill="#ffffe1" fill-opacity=".7"/><path fill="#edbab8" fill-opacity=".2" d="M217.9 77.8l-24.8 18 9.3 18.6-3.1 57.9z"/><path fill="#cea291" fill-opacity=".5" d="M166.4 154.2l-20.2-38.5 21.1-19.2-47.9 1.6z"/><path fill="#5d1e10" fill-opacity=".5" d="M90 132.1l-9.4-51.4L93 47.4l-31.3 53.2z"/><path fill="#916969" fill-opacity=".5" d="M150.5 85.1l-4.7-32.7-17.3.3 49.9 108.9z"/><path fill="#b7acaa" fill-opacity=".4" d="M215.6 143.2l7.1-25.7H216l-2.7 5.2z"/><ellipse cx="116" cy="36" fill="#ffffd5" fill-opacity=".3" rx="2" ry="25"/><path fill="#080000" fill-opacity=".5" d="M145.2 81.7l8.6-5 9 15.6-8.6 5z"/><path fill="#9ba4ba" fill-opacity=".3" d="M271 183l-30-74-5 36z"/><path fill="#231617" fill-opacity=".5" d="M117 154v11l17-7z"/><circle r="1" fill="#17252c" fill-opacity=".5" transform="matrix(.11541 17.37245 -4.02466 .02674 68.4 54.8)"/><path fill="#b2926e" fill-opacity=".6" d="M81 40h38v12H81z"/><path fill="#d5bbaf" fill-opacity=".5" d="M59 108h6v26h-6z"/><ellipse cx="125" cy="44" fill-opacity=".6" rx="7" ry="12"/></g></svg>