<svg xmlns="http://www.w3.org/2000/svg" viewBox="0 0 300 199"><defs/><path fill="#492b26" d="M0 0h300v199H0z"/><g transform="translate(.6 .6) scale(1.17188)"><circle r="1" fill="#cbd0d5" fill-opacity=".6" transform="matrix(15.73997 44.69606 -30.53856 10.75432 147.4 111.8)"/><circle r="1" fill="#163c7c" fill-opacity=".5" transform="matrix(90.33307 15.2787 -9.16829 54.20616 52.4 132.9)"/><circle r="1" fill="#e2e3d2" fill-opacity=".5" transform="matrix(25.73647 -11.18057 13.82735 31.82909 120.3 0)"/><ellipse cx="190" cy="51" fill="#8b8ca6" fill-opacity=".6" rx="33" ry="19"/><ellipse cx="43" cy="30" fill="#000008" fill-opacity=".8" rx="39" ry="34"/><path fill="#f8fcfa" fill-opacity=".7" d="M133.6 93.5l38.8.5-22.5 51.4L129.4 88z"/><circle r="1" fill="#0f1023" fill-opacity=".8" transform="matrix(-35.45625 157.23002 -20.96352 -4.7274 239.4 71.8)"/><circle r="1" fill="#999fcd" fill-opacity=".5" transform="rotate(-85.2 96.5 25.1) scale(21.83489 14.92368)"/><path fill="#3a3b6d" fill-opacity=".5" d="M170 100h86v47h-86z"/><ellipse cx="136" cy="79" fill="#8f5f3e" fill-opacity=".6" rx="39" ry="14"/><path fill="#d5a29d" fill-opacity=".5" d="M16 72h30v18H16z"/><circle r="1" fill="#00153a" fill-opacity=".7" transform="matrix(2.69583 -57.69793 27.57143 1.28822 12.2 153.4)"/><circle r="1" fill="#868283" fill-opacity=".4" transform="rotate(34.3 -165.8 325) scale(28.85063 19.82894)"/><circle r="1" fill="#090903" fill-opacity=".7" transform="matrix(-4.4644 -8.25994 35.70518 -19.29821 92.7 67.6)"/><circle r="1" fill-opacity=".7" transform="rotate(73.8 64.3 193.9) scale(22.50428 25.61956)"/><circle r="1" fill="#00001f" fill-opacity=".5" transform="matrix(22.36827 39.74522 -7.39598 4.1624 108.9 132.5)"/><circle r="1" fill="#795f58" fill-opacity=".6" transform="matrix(14.7636 44.60517 -8.98317 2.97328 173.7 97.2)"/><path fill="#92887a" fill-opacity=".4" d="M83 0h58v39H83z"/><path fill="#9e7659" fill-opacity=".5" d="M101.5 100.7l14.1 33 9.2-61.3-39 7.8z"/><path fill="#d0c8be" fill-opacity=".9" d="M152.2 8l1.2 2.1-27.2 3.5L135.7.4z"/><circle cx="3" cy="15" r="10" fill="#9b8d77" fill-opacity=".6"/><circle r="1" fill="#03060b" fill-opacity=".5" transform="rotate(78.3 -33.8 27.6) scale(29.3624 34.69407)"/><path fill="#291a0f" fill-opacity=".8" d="M96.1 22.6l9.7-5.9-6.7 57.9 38.4-7.2z"/><circle r="1" fill="#494333" fill-opacity=".5" transform="matrix(-2.51807 13.61676 -28.32906 -5.23874 157.2 30)"/><path fill="#bcb4cb" fill-opacity=".4" d="M173.8 35l17.6 3.8-7.2 34.2-17.6-3.8z"/><circle r="1" fill="#16133b" fill-opacity=".6" transform="matrix(-3.39742 -4.3485 13.4744 -10.52736 123.9 128.2)"/><circle r="1" fill="#231832" fill-opacity=".9" transform="matrix(53.17273 20.3047 -7.2971 19.10922 254.3 155.3)"/><path fill="#141437" fill-opacity=".6" d="M65.6 109.1l31.8-3.1 56 77.5L73 119.4z"/><path fill="#e7e8e2" fill-opacity=".3" d="M127.4 133.9l19.5-21.1 26.6-14.3-11.5 40.1z"/><path fill="#c9c8e5" fill-opacity=".5" d="M54 119l13-21-2 44z"/><path fill-opacity=".5" d="M188 85l-27-13 75-2z"/><path fill="#594a4f" fill-opacity=".6" d="M152 161l59-81-32 105z"/><circle r="1" fill="#030000" fill-opacity=".6" transform="matrix(14.85191 1.80079 -6.0566 49.95142 245.8 53.6)"/><path fill="#1a3364" fill-opacity=".8" d="M42.5 185L28 88.1l37.4 29.5-17.8-36z"/><path fill="#1f7bd3" fill-opacity=".5" d="M118.7 125.4l-8-15 18.6-9.8 8 15z"/><path fill="#5f4e3e" fill-opacity=".6" d="M191 32h39v15h-39z"/><circle r="1" fill="#747499" fill-opacity=".4" transform="matrix(.21481 5.51176 -30.89052 1.20392 65 137)"/><path fill="#cfd1b4" fill-opacity=".4" d="M161 22h17v6h-17z"/><path fill="#57f" fill-opacity=".2" d="M209 96.7l56.2 17.8-71-5 11.9-28.9z"/><path fill="#0b060a" fill-opacity=".5" d="M159.1 21.7l66.2 3.9-39.1 11.5-12.7-49.3z"/><circle r="1" fill="#9d7e98" fill-opacity=".5" transform="matrix(-5.36054 -8.65335 6.97604 -4.3215 93.1 169.2)"/><path fill="#8c8e91" fill-opacity=".6" d="M130.6 60.5L121.1-16l3 10.9 10.1 57.9z"/><path fill="#000b24" fill-opacity=".5" d="M45 185l-61-27 77-14z"/><path fill="#feffff" fill-opacity=".4" d="M124.8 98.3l10.6-7.5 21.2 2.9-.7 33.1z"/><circle r="1" fill="#784137" fill-opacity=".5" transform="matrix(-6.298 -4.99174 12.6177 -15.91956 53.5 68.6)"/><path fill="#827b62" fill-opacity=".5" d="M75 60l26-28-2 22z"/><path fill-opacity=".4" d="M159.2 32l21.8-3 1.8 13-21.8 3z"/><path fill="#a0ffff" fill-opacity=".4" d="M85 95l1-5-13 3z"/><path fill="#af8556" fill-opacity=".6" d="M156 0h7v13h-7z"/><path fill="#d0c1d2" fill-opacity=".5" d="M61 173v-14l-24 26z"/><path fill="#161c3a" fill-opacity=".5" d="M88 146l-22-23 14 54z"/><path fill-opacity=".5" d="M100 22h6v23h-6z"/><path fill="#977f86" fill-opacity=".5" d="M159 46.5l-10.6 42 37.4-66.9-2.6 14.7z"/><path fill="#815b4b" fill-opacity=".7" d="M163.6 79.5l44.3 8.5-18.6 2.7-97.8 2.2z"/><path fill="#000313" fill-opacity=".6" d="M80 9L60-16-10 3z"/><path fill="#80a5e8" fill-opacity=".5" d="M43 88l7 7 6-6z"/><path fill="#200e00" fill-opacity=".5" d="M126.7 72.2l-4.7-11 31.3-13.4 4.7 11z"/><circle r="1" fill="#1f2462" fill-opacity=".4" transform="matrix(-3.78331 20.21594 -57.52525 -10.76556 249.6 122.4)"/><path fill="#01194f" fill-opacity=".5" d="M53 109h20v5H53z"/><path fill="#9a9089" fill-opacity=".5" d="M109 42.4l20.6-7.9 3-47.9-26 12.6z"/><path fill="#ffc9dd" fill-opacity=".2" d="M91.7 137.2l-18.1 8 12-10.7 11.3-8.3z"/><path fill="#3c2f5b" fill-opacity=".4" d="M213.4 70.9l-18.9.8-3.4-41.9 19.3 30.8z"/><path fill="#000406" fill-opacity=".3" d="M40-13l47 43-15 69z"/><path fill="#f7ffff" fill-opacity=".4" d="M134.4 15.2l-2.7-16.8 10-1.6 2.6 16.8z"/><path fill="#e3efaf" fill-opacity=".2" d="M247.2 11.7l-36.1 13.2 13.8-13.1 21 7.3z"/></g></svg>