<svg xmlns="http://www.w3.org/2000/svg" viewBox="0 0 300 199"><defs/><path fill="#714e33" d="M0 0h300v199H0z"/><g transform="translate(.6 .6) scale(1.17188)"><circle r="1" fill="#cec4c1" fill-opacity=".7" transform="matrix(53.32533 34.4977 -138.23173 213.67373 46.5 30.3)"/><circle r="1" fill="#100d1e" fill-opacity=".5" transform="matrix(105.4381 20.93474 -8.52646 42.94364 165.9 124.6)"/><circle r="1" fill="#fdffee" fill-opacity=".3" transform="matrix(-133.9011 -20.72898 6.59844 -42.6233 127.3 3.8)"/><circle r="1" fill="#310804" fill-opacity=".6" transform="matrix(-11.40078 7.16103 -22.64488 -36.05195 53.7 63.2)"/><circle r="1" fill="#dcd7d3" fill-opacity=".6" transform="matrix(26.7061 -2.19564 6.99035 85.02524 28.4 143.1)"/><circle r="1" fill="#00121d" fill-opacity=".6" transform="matrix(22.64641 7.31403 -11.17598 34.60417 195 78.1)"/><circle r="1" fill="#e7feff" fill-opacity=".5" transform="matrix(12.20119 -28.0151 5.7855 2.51972 172.8 54.6)"/><circle r="1" fill="#5f453f" transform="matrix(17.74015 -3.45235 5.4091 27.79506 107.7 72.8)"/><circle r="1" fill="#000019" fill-opacity=".5" transform="rotate(-107 128.4 14.5) scale(71.34657 20.51005)"/><ellipse cx="111" cy="153" fill="#ac816e" fill-opacity=".6" rx="19" ry="15"/><circle r="1" fill="#b4cfbb" fill-opacity=".3" transform="matrix(-42.78165 -82.72442 21.36068 -11.04686 255 97.6)"/><circle r="1" fill-opacity=".7" transform="rotate(153.9 29.6 76.3) scale(27.87786 11.5816)"/><ellipse cx="206" cy="129" fill="#a85540" fill-opacity=".4" rx="38" ry="18"/><path fill-opacity=".4" d="M13.8 34.7l46.9-14.2-8 13.5 3 30.3z"/><path fill="#e4e7e4" fill-opacity=".5" d="M226.7 33.2L192 38.6l-2.8-17.8 34.6-5.4z"/><path fill="#857060" d="M195.9 14.8l-87.3 32.8 38.2 21.6-51.3 30.6z"/><path fill="#6f5c41" fill-opacity=".7" d="M14.9 35.2L9.6 74.9l-25.6 40 3.6-55.1z"/><path fill="#fff" fill-opacity=".5" d="M22 32L0 133l36-66z"/><circle r="1" fill="#a48077" fill-opacity=".6" transform="matrix(12.0279 3.11063 -16.13356 62.38386 60.6 81.2)"/><circle r="1" fill="#ab7024" fill-opacity=".6" transform="matrix(-8.20377 7.73084 -47.94314 -50.87602 244 23)"/><circle r="1" fill="#ffe8f1" fill-opacity=".5" transform="matrix(7.68238 -6.12277 3.44252 4.3194 251.9 164.6)"/><path fill="#f4f1f6" fill-opacity=".6" d="M65.1-1.4L89.8-34l47.1 35.5L112.2 34z"/><path fill="#fff" fill-opacity=".5" d="M84 65l-1 34 7-12z"/><path fill="#edf6f2" fill-opacity=".5" d="M163.1 47.8l5.2 36 8.3-47.6 13.1 26.4z"/><path fill="#6b6d62" fill-opacity=".5" d="M155 10l-25 39 46 78z"/><path fill="#282e2d" fill-opacity=".4" d="M186 45h62v29h-62z"/><path fill="#e2e0da" fill-opacity=".5" d="M0 86h62v16H0z"/><path fill="#824639" fill-opacity=".5" d="M34.3 83.2l48 7.7 1-16.8-47.6-14.9z"/><ellipse cx="6" cy="20" fill="#daab70" rx="34" ry="8"/><circle r="1" fill="#aea39c" fill-opacity=".6" transform="matrix(25.51064 -8.15512 7.21878 22.58162 36.2 162)"/><path fill="#d9a38d" fill-opacity=".7" d="M113.2 97.4l-13.7-6 28-10.7 6.4-7.3z"/><path fill="#664729" fill-opacity=".6" d="M145.5 20.7L178.6 0l5.9 9.3L151.4 30z"/><path fill="#f9f4ee" fill-opacity=".6" d="M0 2h50v11H0z"/><circle r="1" fill="#b2acae" fill-opacity=".5" transform="matrix(31.75883 10.2091 -5.54467 17.24857 73.9 27.3)"/><path fill="#0d0502" fill-opacity=".6" d="M110.1 82.7l-14-37.1 19 5-32.3 55.9z"/><path fill="#987568" fill-opacity=".7" d="M117.4 83.2L56 47.5l-7.8-14.6 61.5 30.5z"/><path fill="#c8cacc" fill-opacity=".7" d="M152.1 44.7l-4.9 10.7-1.8-11.6 27.4-25.7z"/><circle r="1" fill="#1a0900" fill-opacity=".5" transform="matrix(-2.10547 -11.4718 60.22338 -11.05306 184.5 159)"/><path fill="#b3bac0" fill-opacity=".5" d="M248 76l-24 19V72z"/><circle cx="126" cy="148" r="14" fill="#ab7d5f" fill-opacity=".4"/><circle r="1" fill="#000a25" fill-opacity=".6" transform="matrix(25.89248 4.79889 -2.63807 14.23373 130.2 109.5)"/><path fill="#ffa61f" fill-opacity=".3" d="M169.2-23.8L181-13l-60.3 66.9L109 43z"/><path fill="#0f0e0f" fill-opacity=".6" d="M172 61h41v22h-41z"/><path fill="#071421" fill-opacity=".3" d="M195.4-1.2L101.5 147l56.8-112.1 28.1-20.7z"/><path fill-opacity=".5" d="M38.5 24L55 49.3 41.5 58 25 32.8z"/><path fill="#f7feff" fill-opacity=".5" d="M34 45l-3 28-14-21z"/><path fill="#ff615a" fill-opacity=".2" d="M193.1 114.9l3.2 70.1-.9-24 22-54.4z"/><path fill="#280009" fill-opacity=".3" d="M65 96l30 89-36-26z"/><path fill="#000323" fill-opacity=".5" d="M106 47l24 21-13 11z"/><path fill="#cf7600" fill-opacity=".3" d="M236.4 133.1L253 92.3 250.2 31 271 154.9z"/><path fill="#2c353f" fill-opacity=".5" d="M191.1 62.2l23.4 57-2.2 23.5 32.5-30.6z"/><circle r="1" fill="#e9eae9" fill-opacity=".6" transform="matrix(-7.7277 25.59536 -6.93316 -2.09324 10 128.6)"/><path fill="#ac6554" fill-opacity=".5" d="M74 107h31v8H74z"/><path fill="#804438" fill-opacity=".4" d="M43.3 120.3l36.4 45.3-33.4-26.1 51-53.5z"/><path fill="#868674" fill-opacity=".4" d="M271 39.8l-43.1-2.7L207.5 66l54.7-19.4z"/><path fill="#7d5442" fill-opacity=".9" d="M95.2 140.6l31.6 44.4-29.6-21.5-21.1-15.1z"/><path fill="#c3beb3" fill-opacity=".6" d="M227 21l16.5 16.9-65.5.8 19.7-26.4z"/><path fill-opacity=".5" d="M90 75h19v12H90z"/><path fill="#e0e5e3" fill-opacity=".6" d="M176.4 54.8l8.1 2.9-9.8-24.7-13.6 27.6z"/><path fill="#966524" fill-opacity=".4" d="M174-16l48 28h-59z"/><path fill="#321a11" fill-opacity=".4" d="M34.7 61.5l3.1-11.1 41 6.2 5.9-10.3z"/><path fill-opacity=".5" d="M105 98h11v42h-11z"/><path fill="#eef9ff" fill-opacity=".5" d="M111.4 66.9l3 .3-1.8 14-3-.4z"/><path fill="#a79f9e" fill-opacity=".9" d="M86.6 20l8.4 4.1 18.6 23L74.3 23z"/><ellipse cx="158" cy="157" fill="#00081b" fill-opacity=".6" rx="14" ry="54"/></g></svg>