<svg xmlns="http://www.w3.org/2000/svg" viewBox="0 0 298 450"><defs/><path fill="#3e5734" d="M0 0h298v450H0z"/><g transform="translate(.9 .9) scale(1.75781)"><circle cx="110" cy="244" r="122" fill="#fcbad2" fill-opacity=".4"/><ellipse cx="148" cy="14" fill="#e7f5f6" fill-opacity=".7" rx="29" ry="50"/><circle cx="32" cy="119" r="42" fill="#0b0700" fill-opacity=".5"/><circle r="1" fill="#c4daef" fill-opacity=".5" transform="rotate(-147.9 74.7 113.4) scale(37.66839 36.83565)"/><circle r="1" fill="#6e8c6d" fill-opacity=".6" transform="matrix(-30.04224 -58.91908 19.68194 -10.03562 118.7 38)"/><circle r="1" fill="#3d341c" fill-opacity=".5" transform="matrix(12.64171 -43.91922 28.44865 8.18866 3.6 237.7)"/><circle r="1" fill="#232b16" fill-opacity=".7" transform="rotate(-116.1 93.7 15.4) scale(44.91974 21.14225)"/><circle r="1" fill="#15250c" fill-opacity=".8" transform="matrix(30.07064 -5.2416 17.1921 98.62952 0 51.3)"/><ellipse cx="92" cy="145" fill="#bfa18f" fill-opacity=".7" rx="22" ry="28"/><circle r="1" fill="#fff" fill-opacity=".5" transform="rotate(28.8 80 312) scale(113.96771 30.09852)"/><ellipse cx="75" cy="93" fill="#9e675f" fill-opacity=".7" rx="13" ry="23"/><path fill="#d8d3d6" fill-opacity=".5" d="M69 143l-10 52 36 5z"/><path fill="#bcb2aa" fill-opacity=".8" d="M32.5 158.4l14.1 3.9-31 35.7-10.2-29.5z"/><ellipse cx="41" cy="201" fill="#5e3529" fill-opacity=".7" rx="20" ry="8"/><ellipse cx="149" cy="130" fill="#acacae" fill-opacity=".6" rx="6" ry="11"/><ellipse cx="144" cy="45" fill="#607f61" fill-opacity=".7" rx="15" ry="6"/><path fill="#0b0e00" fill-opacity=".4" d="M-16 50.1l70.8 22.7 2 45.8 23.3-77.8z"/><path fill="#615c36" fill-opacity=".6" d="M108 157h38v17h-38z"/><path fill="#1f0b0b" fill-opacity=".7" d="M75.5 120.7l28.4-30.6 14.6 52.2-17-24.2z"/><ellipse cx="42" cy="20" fill="#486234" fill-opacity=".4" rx="88" ry="19"/><path fill="#2e371f" fill-opacity=".5" d="M52 163L18 72l59 67z"/><path fill="#8aa77f" fill-opacity=".4" d="M125 93l52-57-31 65z"/><path fill="#f1f9ff" fill-opacity=".5" d="M190.9 1.1l-9.8 46-48-10.2 9.8-46z"/><path fill="#0e0e00" fill-opacity=".6" d="M45 189l-2-8-14-1z"/><path fill="#9fb19d" fill-opacity=".8" d="M101.5-2.3l8.1 14.6-8.6-.9 50.3.1z"/><circle r="1" fill="#765959" fill-opacity=".5" transform="matrix(-2.92204 22.12304 -35.17635 -4.64613 152.9 251.6)"/><path fill="#55714c" fill-opacity=".6" d="M114 90l19-41-58-23z"/><path fill="#1e0d0a" fill-opacity=".6" d="M130.5 132.4L77 68l27.3-.1 9 68.4z"/><path fill="#674b40" fill-opacity=".4" d="M87 223l33-22H69z"/><path fill="#dbd4dc" fill-opacity=".5" d="M43 172.1l3 10.5 21.5-36.2L80 156.8z"/><path fill="#050e00" fill-opacity=".5" d="M24 228l14 5 4-9z"/><path fill="#ced6e0" fill-opacity=".4" d="M56 208h27v48H56z"/><path fill="#b5d1d9" fill-opacity=".7" d="M146.3 35.8l-11.5-3.3-20.4 4.8 7.4 5.9z"/><ellipse cx="169" cy="144" fill="#564e32" fill-opacity=".6" rx="46" ry="5"/><path fill="#ebd4c6" fill-opacity=".4" d="M100 116l6 19-34-9z"/><circle r="1" fill="#c4b488" fill-opacity=".5" transform="matrix(.33625 -3.92215 37.71841 3.2336 151.6 153.3)"/><path fill="#f0f3f3" fill-opacity=".8" d="M169.9 24.4L148.5-16 118.4 9 93.2-16z"/><ellipse cx="4" cy="215" fill="#c9bc77" fill-opacity=".3" rx="43" ry="8"/><path fill="#eef2f4" fill-opacity=".5" d="M140 82l8-9 7 12z"/><path fill="#99a7ad" fill-opacity=".5" d="M89 212h23v41H89z"/><circle r="1" fill="#463940" fill-opacity=".5" transform="matrix(11.74755 7.12696 -14.45062 23.81932 11 248.2)"/><path fill="#bf8d82" fill-opacity=".5" d="M94 90l-34 3 23 8z"/><path fill="#1b0000" fill-opacity=".4" d="M105 74.8l-25.5 18-20.4-17.1L55 92.5z"/><path fill="#d3d3d5" fill-opacity=".4" d="M4.4 174.1l18 3.2 7.8 23.3.3-43.2z"/><path fill="#8f6954" fill-opacity=".5" d="M92.2 194l-21.6-57.6 18.8 15.3 3.4 22.2z"/><path fill="#4d774e" fill-opacity=".3" d="M131.1 30.8L91.8-13l59.1 48.2-11.2-21z"/><circle r="1" fill="#486138" transform="matrix(31.65894 -38.67967 17.74297 14.52245 76.2 4.2)"/><circle cx="165" cy="119" r="7" fill="#010f07" fill-opacity=".6"/><path fill="#37562d" fill-opacity=".5" d="M139.3 79.2l18.1 46.2-63.1-54.3 70.9 10.3z"/><path fill="#584d40" fill-opacity=".6" d="M77 137l-27 22-28-13z"/><path fill="#939194" fill-opacity=".8" d="M57.1 211.7l.6-.6-18.3 58L27.5 249z"/><path fill="#e2ecf5" fill-opacity=".5" d="M134 56h23v5h-23z"/><ellipse cx="2" cy="172" fill="#6f614f" fill-opacity=".6" rx="6" ry="25"/><path fill="#a38578" fill-opacity=".8" d="M27.5 165.1l26.5-4.3 9.3 4.8 2.3 38.6z"/><path fill="#4c2e27" fill-opacity=".4" d="M46.2 183.2L44.3 225l14.1-19.3-28.2-22.5z"/><path fill="#aa816e" fill-opacity=".5" d="M87 145h30v60H87z"/><ellipse cy="68" fill="#000f00" fill-opacity=".3" rx="12" ry="64"/><path fill="#dbb3b6" fill-opacity=".6" d="M39.8 175.6l15.8-1.5 2.4-7.7-5.2-3.6z"/><path fill="#544f47" fill-opacity=".4" d="M69.5 200.3L63 184.2l-.5-17.9-12.2-13.8z"/><path fill="#546f52" fill-opacity=".5" d="M150.4 34.3L146 54.1l39 104-45.5-106.2z"/><path fill="#040000" fill-opacity=".4" d="M13 166l10-10-7-27z"/><path fill="#3a542c" fill-opacity=".5" d="M58 109L27 88l18-43z"/><path fill="#160700" fill-opacity=".4" d="M68.5 140.7l-26.4-30.4 17.6-10.8 17.7 23z"/><circle r="1" fill="#a08380" fill-opacity=".6" transform="matrix(9.32343 26.46952 -46.2582 16.29366 169 184)"/><path fill="#223423" fill-opacity=".7" d="M185 84l-30.6-7.9 13 27.4-10.3 40.9z"/></g></svg>