<svg xmlns="http://www.w3.org/2000/svg" viewBox="0 0 300 199"><defs/><path fill="#614435" d="M0 0h300v199H0z"/><g transform="translate(.6 .6) scale(1.17188)"><circle r="1" fill="#cadadf" fill-opacity=".5" transform="matrix(-85.71391 40.77197 -8.6178 -18.117 51.4 120.7)"/><circle cx="228" r="83" fill="#0a0600" fill-opacity=".7"/><circle r="1" fill="#000817" fill-opacity=".7" transform="rotate(-90.9 33.3 21) scale(58.48911 42.41858)"/><ellipse cx="159" cy="114" fill="#abc4c7" fill-opacity=".4" rx="22" ry="49"/><path fill="#9fcbe2" fill-opacity=".4" d="M75.2 14.9L42.4 45.7l111.5 4-12.5 20.9z"/><circle r="1" fill="#d5dedf" fill-opacity=".4" transform="matrix(1.48845 47.36318 -12.65615 .39774 101 111.3)"/><path fill="#fdfcfa" fill-opacity=".6" d="M53 99l68 3-7-24z"/><circle r="1" fill="#706458" fill-opacity=".8" transform="matrix(-22.40889 8.45356 -10.24915 -27.16866 71.4 132.3)"/><circle cx="188" cy="73" r="21" fill="#00000a" fill-opacity=".5"/><circle r="1" fill="#321f0e" fill-opacity=".6" transform="matrix(-2.43835 -49.8556 6.00927 -.2939 127 124.1)"/><circle cx="81" cy="34" r="9" fill="#d9eefb" fill-opacity=".8"/><circle r="1" fill="#9a9a8f" fill-opacity=".4" transform="matrix(15.70068 -13.31385 21.5039 25.35899 173.4 142.7)"/><path fill="#93969b" fill-opacity=".7" d="M240 106l23 23-21 10z"/><circle r="1" fill="#cfd1c8" fill-opacity=".5" transform="matrix(-.45624 -3.42189 22.42503 -2.9899 202.1 95.3)"/><path fill="#edf8ff" fill-opacity=".4" d="M53.7 126.2l-4-20.6-15.6 2.1-22.9 20.4z"/><ellipse cx="51" cy="29" fill="#3f3f44" fill-opacity=".7" rx="14" ry="73"/><path fill="#d26c04" fill-opacity=".4" d="M200.5 28.7l33 11.3-21.7-29-12.6 4.6z"/><circle r="1" fill="#6c635d" fill-opacity=".6" transform="matrix(39.38218 51.8841 -9.80858 7.44512 126.2 70.3)"/><path fill="#001029" fill-opacity=".5" d="M99 0h32v25H99z"/><path fill="#f7f2e6" fill-opacity=".4" d="M75.2 87l1.3-5.8-29.2 5 48 27.5z"/><circle r="1" fill="#707072" fill-opacity=".6" transform="matrix(66.32288 4.63775 -1.12652 16.10992 0 143.3)"/><ellipse cx="126" cy="128" fill="#251b0c" fill-opacity=".7" rx="13" ry="22"/><path fill="#0e0400" fill-opacity=".5" d="M276.5 153l2.3 16-71.3 10-2.3-16z"/><circle r="1" fill="#424550" fill-opacity=".5" transform="rotate(81.9 2.5 82.9) scale(22.23551 15.34239)"/><path fill="#8c8374" fill-opacity=".3" d="M176.4 46.1L147.5 21 127-16l4.5 137.1z"/><ellipse cx="107" cy="43" fill="#fecda5" fill-opacity=".5" rx="3" ry="21"/><path fill="#c3c9c6" fill-opacity=".4" d="M140 126l-2 25 35-17z"/><path fill="#3c1c0d" fill-opacity=".7" d="M255.5 66l18.6 48.5-19.6 7.5L236 73.5z"/><ellipse cx="70" cy="169" fill="#1f130e" fill-opacity=".4" rx="56" ry="10"/><path fill="#8a837d" d="M94.7 130.3l-4.9-10.2 10.3-15.1 21.8 3z"/><ellipse cx="61" cy="10" fill="#162f42" fill-opacity=".5" rx="20" ry="15"/><path fill="#ffc651" fill-opacity=".4" d="M217 86l-5-13-7 22z"/><path fill="#000006" fill-opacity=".5" d="M215 0h41v30h-41z"/><path fill="#331d0c" fill-opacity=".8" d="M209 73l28 31-13-68z"/><ellipse cx="3" cy="71" fill="#090a0e" fill-opacity=".6" rx="24" ry="46"/><ellipse cx="238" cy="89" fill="#ffd2bd" fill-opacity=".3" rx="4" ry="12"/><path fill="#010a02" fill-opacity=".3" d="M125.6 120.7L161 89.1l32.9-.3-28.6 13.8z"/><path fill="#c1af84" fill-opacity=".4" d="M135.5-3.5l12 9-9 12-12-9z"/><path fill="#291e25" fill-opacity=".5" d="M128 53l-6-69-13 68z"/><path fill="#300d02" fill-opacity=".4" d="M114 74.3l38.6 3.7-7.9-21.9L122.5 89z"/><path fill="#111418" fill-opacity=".7" d="M185.7 20.5l67-31-84.8-5.5-35 39.7z"/><path fill="#6b594b" fill-opacity=".5" d="M82 149h125v13H82z"/><path fill="#59c5ff" fill-opacity=".1" d="M33.6 29.1l71.2-20.9L91.2 55l-48.7-2.5z"/><path fill="#b9cdd7" fill-opacity=".5" d="M102 134l11 24-3-38z"/><path fill="#b3a99d" fill-opacity=".6" d="M184.1 88l-17.2-2.4-20.2-8.9-16.4 7.5z"/><path fill="#ced6e2" fill-opacity=".3" d="M55.3 104.3l-39.8 14.4-3.1 29.4 23-9.3z"/><circle cx="204" cy="40" r="2" fill="#ffe" fill-opacity=".6"/><circle r="1" fill="#342e33" fill-opacity=".6" transform="rotate(-8.6 467 -409.6) scale(38.97467 9.43809)"/><path fill="#e2e8eb" fill-opacity=".5" d="M105 87h15v21h-15z"/><ellipse cx="207" cy="16" fill="#ff9a27" fill-opacity=".5" rx="9" ry="4"/><path fill="#ada98e" fill-opacity=".5" d="M117.5 70l-2.7-4.1 27.7-18 2.7 4.2z"/><path fill="#8d837a" fill-opacity=".9" d="M49.7 106.7l9.4-28.9-16.5 26.1 47.5-4.3z"/><path fill="#4b3325" fill-opacity=".8" d="M117 175l-5-58 40 58z"/><path fill="#151111" fill-opacity=".5" d="M205 90l-48-11 55-33z"/><path fill="#0b0807" fill-opacity=".7" d="M271 51.7l-59.5 8.1 7.5-8.6L268.1-16z"/><path fill="#30464f" fill-opacity=".5" d="M89 49l14-31 2 51z"/><path fill="#483427" fill-opacity=".6" d="M210.3 145l-26.6-36.9 22.9-.6L243 114z"/><path fill="#867359" fill-opacity=".5" d="M105 30h49v8h-49z"/><path fill="#4a3623" fill-opacity=".4" d="M72 112h13v20H72z"/><path fill="#f68f0e" fill-opacity=".5" d="M221 30h8v8h-8z"/><path fill="#795240" fill-opacity=".5" d="M115.3 86.1l51.3-36.7-83.5 39.4 24.7-19.2z"/><path fill="#181513" fill-opacity=".9" d="M178.3 84.3L172.9 99l37.6-23-37.2-92z"/><ellipse cx="153" cy="71" fill="#538cfd" fill-opacity=".5" rx="4" ry="7"/><path fill="#4b3024" fill-opacity=".4" d="M226.6 54.8L269.3 159l-34.6 4.9 26.2-60.2z"/><path fill="#a78a75" fill-opacity=".2" d="M166.7 61.8l25.2 62 .8 10.9-38.9-47z"/></g></svg>