<svg xmlns="http://www.w3.org/2000/svg" viewBox="0 0 300 199"><defs/><path fill="#442b24" d="M0 0h300v199H0z"/><g transform="translate(.6 .6) scale(1.17188)"><circle cx="90" r="199" fill="#fbedd6" fill-opacity=".5"/><circle cx="121" cy="169" r="98" fill="#776053"/><circle r="1" fill="#d8cebe" fill-opacity=".8" transform="matrix(-83.29044 118.5103 -31.37103 -22.04793 30.1 59.5)"/><circle r="1" fill="#e2ccb7" fill-opacity=".5" transform="matrix(80.18487 12.707 -11.26116 71.0612 226.4 58.6)"/><circle r="1" fill="#d7d8d8" fill-opacity=".6" transform="rotate(-88.9 109.4 3.8) scale(26.14103 14.74276)"/><ellipse cx="140" cy="116" fill="#040512" fill-opacity=".5" rx="22" ry="30"/><circle r="1" fill="#190100" fill-opacity=".5" transform="rotate(-20.8 449.4 -86.7) scale(44.01486 19.77818)"/><circle r="1" fill="#31150e" fill-opacity=".6" transform="rotate(7.3 -995.1 1561) scale(44.8422 11.16017)"/><ellipse cx="154" cy="169" fill="#fbbe70" fill-opacity=".4" rx="71" ry="23"/><path fill="#090000" fill-opacity=".5" d="M80 54h36v10H80z"/><path fill="#d6b2a4" fill-opacity=".5" d="M86.9 101.1L50 137.9l-17-17 37-36.8z"/><ellipse cx="86" cy="12" fill="#c3af99" fill-opacity=".7" rx="162" ry="26"/><path fill="#100310" fill-opacity=".5" d="M126 73l-15-34 7 72z"/><path fill="#000108" fill-opacity=".6" d="M65.8 116l21.6-3.8 2.8 15.8-21.6 3.8z"/><ellipse cx="22" cy="79" fill="#e3e7e8" fill-opacity=".5" rx="24" ry="32"/><path fill="#3f2415" fill-opacity=".8" d="M108.3 45.8l-25-2 14.9-6.3 20.5 9.3z"/><circle r="1" fill="#efe3d6" fill-opacity=".5" transform="matrix(16.23969 34.0715 -6.05887 2.88787 103.5 96.2)"/><path fill="#442514" fill-opacity=".4" d="M66 95l-6-30 47 44z"/><path fill="#351c14" fill-opacity=".5" d="M73 136h100v11H73z"/><path fill="#77635e" d="M143.9 129.6l-6.7-13.8 1.3-54.6 11.3 8.4z"/><path fill="#664732" fill-opacity=".6" d="M193 149l52-28-5 61z"/><ellipse cy="132" fill="#a05d02" fill-opacity=".5" rx="3" ry="52"/><path fill="#e7d1a8" fill-opacity=".6" d="M114.6 65.1l-.8 16.6-8.4 13.1 1.3-30.1z"/><path fill="#cfd0bd" fill-opacity=".7" d="M180.8 113.8l-21 1.4-.6-9 21-1.4z"/><ellipse cx="83" cy="68" fill="#31120b" fill-opacity=".5" rx="3" ry="27"/><path fill="#ffffe0" fill-opacity=".5" d="M111 54H84l18-10z"/><path fill="#e2dece" fill-opacity=".5" d="M64 9h16v65H64z"/><path fill="#be9a82" fill-opacity=".5" d="M45 14h20v127H45z"/><path fill="#c6ac92" fill-opacity=".7" d="M117.1 68.5l17.3 35.4-24.3-74.7 95.3 12.7z"/><path fill="#fffffb" fill-opacity=".5" d="M32 27h11v75H32z"/><path fill="#ced0d8" fill-opacity=".5" d="M92 115l31-1-34 26z"/><path fill="#b6a097" fill-opacity=".8" d="M85 97l3.8 18-80.1-6.4 72.6-8.8z"/><path fill="#1b1622" fill-opacity=".7" d="M110.7 49.3l-1.5-17.5 14.5 103.8 18.3-4.1z"/><circle r="1" fill="#f1f9fc" fill-opacity=".5" transform="matrix(3.15972 34.06077 -3.51767 .32632 7.2 121.3)"/><path fill="#511700" fill-opacity=".3" d="M167 75h11v20h-11z"/><circle r="1" fill="#ae8f73" fill-opacity=".5" transform="matrix(41.60895 .53975 -.19407 14.96098 41 0)"/><path fill="#cfd9d8" fill-opacity=".4" d="M63 12h51v21H63z"/><path fill="#020a2c" fill-opacity=".5" d="M132 77l10 14-16 21z"/><path fill="#e8d5bd" fill-opacity=".5" d="M76 120h5v14h-5z"/><path fill="#382924" fill-opacity=".9" d="M34.3 125.2l-8.4 53.9-41.4-2.4 51.4-15.5z"/><path fill="#e3d3c9" fill-opacity=".3" d="M129.7 72.7l39.3 24L147-9.5l6.5 114.5z"/><path fill="#402016" fill-opacity=".6" d="M97.7 79.9L95.5 70l8.8-2 2.2 9.8z"/><path fill="#181210" fill-opacity=".7" d="M87.6 149.9l2.7-36.5-10.6 22.2-16.5 1.9z"/><path fill="#100" fill-opacity=".5" d="M85.2 49l-1.6-2.5L98.8 37l1.6 2.5z"/><path fill="#472b22" fill-opacity=".6" d="M33 141l110-3-125 47z"/><circle r="1" fill="#c0b8af" fill-opacity=".5" transform="rotate(67.9 61.9 216.5) scale(48.65394 42.52672)"/><path fill="#432215" fill-opacity=".6" d="M91.8 57l28.5-.7-8.9 42.4 3.2-31z"/><path fill="#a58f7e" fill-opacity=".9" d="M187.9 97.2l-15.7 36.7 10.9-7.1 24.2-14.2z"/><path fill="#1b0100" fill-opacity=".5" d="M95 94l-9-11 4 23z"/><ellipse cx="20" cy="140" fill="#a6b2c1" fill-opacity=".4" rx="9" ry="24"/><path fill="#9a6938" fill-opacity=".7" d="M218 156l53 25-97 1z"/><path fill="#c7c5c3" fill-opacity=".3" d="M110.9 122.5l6.8 16.7 4.6-33.7L82 70.4z"/><path fill="#32263d" fill-opacity=".3" d="M110.9 90.8l14.4 41.4-3.8-65.1 18.6-3.5z"/><path fill="#060a10" fill-opacity=".5" d="M144 95h7v40h-7z"/><path fill="#997363" fill-opacity=".4" d="M64.8 151.6l1.5-40.1-16.8-20.4-21.1 24.2z"/><path fill="#c39b79" fill-opacity=".5" d="M164 10l2 83 30-97z"/><ellipse cx="20" cy="83" fill="#c4c3bb" fill-opacity=".5" rx="11" ry="56"/><path fill="#0a0000" fill-opacity=".5" d="M250.7 152.4l-59.8-27.9.4-.9 59.8 27.9z"/><circle r="1" fill="#bfadaa" fill-opacity=".5" transform="matrix(2.09551 -.55366 5.16421 19.54577 124.8 75.4)"/><path fill="#2b2118" fill-opacity=".5" d="M229.5 129l23.6 56 13.2-20.6-8.1-29.9z"/><path fill="#b0a7a0" fill-opacity=".6" d="M235.2 142.2l13.2-1.3-24.4-5.5-1.2-17.3z"/><path fill="#aa8147" fill-opacity=".6" d="M.3 215.8l-22-88.3 21.4-5.3 22 88.3z"/><ellipse cx="131" cy="169" fill="#c4a88e" fill-opacity=".3" rx="53" ry="10"/><path fill="#010809" fill-opacity=".4" d="M168.8 116.2l-.4.1 30-6-26.4 9.6z"/><path fill="#c4b096" fill-opacity=".6" d="M63 48l9 11 18-23z"/></g></svg>