<svg xmlns="http://www.w3.org/2000/svg" viewBox="0 0 300 199"><defs/><path fill="#4f6035" d="M0 0h300v199H0z"/><g transform="translate(.6 .6) scale(1.17188)"><circle cx="148" cy="79" r="181" fill="#2d1215" fill-opacity=".6"/><circle r="1" fill="#9d837f" fill-opacity=".5" transform="matrix(8.37115 33.10699 -66.04606 16.69984 154.2 122.3)"/><circle r="1" fill="#a2a1a2" fill-opacity=".6" transform="matrix(30.85116 10.30406 -7.2788 21.79329 14.3 99.6)"/><circle r="1" fill="#180a00" fill-opacity=".8" transform="rotate(93.1 45.4 45.5) scale(31.8325 218.01733)"/><circle r="1" fill="#050000" fill-opacity=".7" transform="matrix(24.35554 -19.16592 29.90065 37.99695 241 156.5)"/><circle r="1" fill="#c1b3b4" fill-opacity=".4" transform="matrix(2.46125 12.31735 -49.99064 9.98911 131.7 121.1)"/><circle r="1" fill="#040004" fill-opacity=".6" transform="matrix(-11.61643 25.48993 -66.63072 -30.36537 33.5 158.4)"/><ellipse cx="3" cy="102" fill="#fcf3e8" fill-opacity=".7" rx="25" ry="5"/><path fill="#544242" d="M61.2 146.1l74.7-10.2-.7-19.9 86.1 45.4z"/><path fill="#0c1200" fill-opacity=".7" d="M267 32.4l-2 59-50-1.8 2-59z"/><path fill="#280700" fill-opacity=".6" d="M187.6 70.8l6.7 95.7-10 .7-6.6-95.7z"/><path fill="#cbaea3" fill-opacity=".6" d="M100 154h100v5H100z"/><path fill="#f2e5e9" fill-opacity=".5" d="M154.8 134.6l-3.2-13.6 15.6-3.6 3.2 13.6z"/><path fill="#cea19a" fill-opacity=".8" d="M122.4 116.2l-12.2.1 14.5 42.7 3.8-14.3z"/><path fill-opacity=".6" d="M6 138.5v-33h10v33z"/><path fill="#f3cbc0" fill-opacity=".4" d="M192 106h5v47h-5z"/><path fill="#d7d968" fill-opacity=".6" d="M143 89.4l-3.2-8.5 11.2-4.3 3.2 8.5z"/><path fill="#b1d826" fill-opacity=".3" d="M163.1 59.2l.2-20.9 14.9 3.2-12.4 42.2z"/><circle r="1" fill="#533c31" transform="matrix(-5.44787 -16.76681 18.8998 -6.14092 74.5 124)"/><ellipse cx="21" cy="107" fill="#e8e0cf" fill-opacity=".6" rx="5" ry="16"/><path fill="#fff0e6" fill-opacity=".2" d="M25.2 56.4L41 41.1l-7.3 68.1-.4-46z"/><ellipse cx="86" cy="124" fill="#d1b8b3" fill-opacity=".5" rx="2" ry="41"/><path fill-opacity=".5" d="M37 82h39v19H37z"/><path fill="#010100" fill-opacity=".7" d="M97.8 137.7l9.3-.4 4.3-2.9-3.1 23.9z"/><path fill="#200a04" fill-opacity=".5" d="M27 83h5v82h-5z"/><ellipse cx="31" cy="25" fill="#000600" fill-opacity=".7" rx="43" ry="12"/><path fill="#0a1b00" fill-opacity=".5" d="M114 19h41v61h-41z"/><path fill="#000034" fill-opacity=".4" d="M146 150l-8-40-9 44z"/><path fill="#764721" fill-opacity=".3" d="M60 6l61-3-28 38z"/><path fill="#1c0200" fill-opacity=".7" d="M191 185l27-27-125 4z"/><path fill="#010400" fill-opacity=".4" d="M209.4 87.6l-16.7 24.6-1.3-29.1-27.6-67z"/><circle r="1" fill="#493815" fill-opacity=".6" transform="matrix(43.43909 -9.29508 1.12066 5.23723 146.8 94.2)"/><path fill="#26180e" fill-opacity=".7" d="M177.6 128.9l15.4 13.5-30.9 10.9-5.6-9.3z"/><ellipse cx="82" cy="84" fill="#370e00" fill-opacity=".5" rx="4" ry="169"/><ellipse cx="88" cy="76" fill="#ffedf8" fill-opacity=".3" rx="2" ry="23"/><path fill="#7c7255" fill-opacity=".5" d="M189 97h62v13h-62z"/><path fill="#958002" fill-opacity=".5" d="M213.5 82.2L197.2 64l19.9-13.7L207 84z"/><path fill="#281309" fill-opacity=".9" d="M194.3 160.1l76.7-6.9-86.5 20.1 1.9-63.4z"/><path fill="#48585f" fill-opacity=".7" d="M33 78.3l-4.2 15.5L-9 83.7l4.1-15.5z"/><path fill="#bdff96" fill-opacity=".3" d="M215.9 31.4L194 42.3l-1.3-1.5-9.2-4z"/><path fill="#feb7c7" fill-opacity=".2" d="M38.7 146.5l-9-14 31.7-8.5 3.7-28.7z"/><path fill="#190d00" fill-opacity=".5" d="M89 60l19 35-19 37z"/><path fill="#656715" fill-opacity=".5" d="M96 55l2 40 26-45z"/><ellipse cx="150" cy="129" fill="#968e84" fill-opacity=".4" rx="7" ry="30"/><circle r="1" fill="#315502" fill-opacity=".5" transform="matrix(-16.664 -7.23961 5.37523 -12.37259 215.3 45.5)"/><path fill="#fadfb8" fill-opacity=".8" d="M106.3 21.8l-5-.6.4-3 5 .6z"/><path fill="#be9a89" fill-opacity=".5" d="M75.8 125.9l2.4-34 2 .2-2.4 34z"/><path fill="#676568" fill-opacity=".6" d="M30.3 141l7.9-16.8 13.7-15.6-16.5-12z"/><path fill="#c2b1a7" fill-opacity=".5" d="M87 138l43-14-29-12z"/><circle r="1" fill="#0f1100" fill-opacity=".5" transform="rotate(83.3 -.2 69.4) scale(43.65906 7.37503)"/><path fill="#ad937d" fill-opacity=".6" d="M205.4 99.7l-2.3 17.3-9.7 18.4-3.4-21.7z"/><path fill="#8f6a55" fill-opacity=".5" d="M60 156h53v4H60z"/><circle cx="177" cy="153" r="6" fill="#eaefee" fill-opacity=".3"/><path fill="#3c5904" fill-opacity=".5" d="M137 33h27v33h-27z"/><path fill="#665129" fill-opacity=".6" d="M138.6 119.8L122.2 76l-15.3 26.6 14.3 9.1z"/><path fill="#120d06" fill-opacity=".8" d="M15.1 117l-31.1-5.5 30.2.1-30.2 71.6z"/><path fill="#ad9081" fill-opacity=".6" d="M27.3 91.6l-28.8-5.2-7 12.8 42-.4z"/><path fill="#d0e3ef" fill-opacity=".5" d="M81.8 56.8L73.3 54l.9-2.8 8.5 2.8z"/><path fill="#625c37" fill-opacity=".6" d="M52.4 62L22.1 46.7 27.6 36l30.3 15.5z"/><circle r="1" fill="#fcd686" fill-opacity=".6" transform="matrix(.02443 -.9997 5.73062 .14005 102.1 56)"/><path fill="#edd1a6" fill-opacity=".5" d="M90 36l2-7 3 6z"/><path fill="#fff" fill-opacity=".2" d="M239 155v1l-84 3v-1z"/><path fill="#9a7b64" fill-opacity=".5" d="M161 95h20v23h-20z"/><circle r="1" fill-opacity=".5" transform="matrix(-2.34845 -8.0216 54.17952 -15.8619 249.2 138.8)"/><path fill="#4c3929" fill-opacity=".5" d="M187 131l-6 22-18-52z"/></g></svg>