<svg xmlns="http://www.w3.org/2000/svg" viewBox="0 0 300 199"><defs/><path fill="#753b23" d="M0 0h300v199H0z"/><g transform="translate(.6 .6) scale(1.17188)"><circle cx="111" cy="69" r="197" fill="#dbedf5" fill-opacity=".8"/><circle r="1" fill="#fff" fill-opacity=".7" transform="matrix(-10.35644 148.10397 -27.81308 -1.94488 236.9 95.3)"/><path fill="#9f6139" fill-opacity=".5" d="M181 17l-40 18 3 79z"/><circle r="1" fill="#93989f" fill-opacity=".5" transform="rotate(122.7 2.9 33.1) scale(144.87729 55.51945)"/><circle r="1" fill="#9a8f87" fill-opacity=".5" transform="rotate(-164.7 91.4 73.8) scale(48.30964 24.50574)"/><path fill="#f6e7dd" fill-opacity=".6" d="M183 57l-9 107-17-92z"/><path fill="#fafbfb" fill-opacity=".6" d="M72.9 147.1l20 22.3L69.1 191l-20-22.3z"/><path fill="#68360f" fill-opacity=".5" d="M145.4 77.4l-5.4-2.5 12.6-28.3 5.4 2.5z"/><circle r="1" fill="#dde0e3" fill-opacity=".5" transform="matrix(-16.22813 31.03555 -15.1335 -7.91313 121.4 113)"/><path fill="#ffd6c0" fill-opacity=".5" d="M159.5 28.9l10.4 3.4-7.4 22.8-10.4-3.4z"/><circle r="1" fill="#8d9093" fill-opacity=".5" transform="matrix(-13.42213 3.53077 -15.57591 -59.21134 7.2 34.6)"/><circle r="1" fill="#989593" fill-opacity=".6" transform="matrix(-5.91035 -63.71161 4.60775 -.42745 148.5 134.6)"/><ellipse cx="199" cy="114" fill="#5a5d56" fill-opacity=".2" rx="7" ry="51"/><circle r="1" fill="#b5b7bc" fill-opacity=".5" transform="rotate(-37.6 165.3 -79.2) scale(75.59212 32.86306)"/><path fill="#bec1c3" fill-opacity=".8" d="M168.6 19l41.9 80.1L216.6-16 89.8 8.4z"/><path fill="#e3b597" fill-opacity=".6" d="M151.6 122.8l31-50.8 16.4 8.8-21.7 18.1z"/><path fill="#edeae8" fill-opacity=".5" d="M192.2 143.4L161.6 185l17-35-20-78.8z"/><path fill="#5b2b05" fill-opacity=".4" d="M148 28l20-9 4 7z"/><path fill="#885d3c" fill-opacity=".5" d="M139 71l12 21 6-61z"/><path fill="#f0faf9" fill-opacity=".5" d="M177.6 91.4L160 98.2l-7.5-19.6 17.7-6.8z"/><path fill="#fff" fill-opacity=".4" d="M127.7 91.6L143 96l-4.7 16.4L123 108z"/><path fill="#ac6e5e" fill-opacity=".5" d="M158 111l3-10 11 10z"/><path fill="#83563a" fill-opacity=".7" d="M155 42.3l-10.2-2.9L159.9 61l-16.3 13z"/><path fill="#ffc99b" fill-opacity=".4" d="M139 75l-12-8 20-25z"/><path fill="#f5f3ff" fill-opacity=".1" d="M44.7 65.5L23.6-16l-8 33.9 17.5 57.2z"/><path fill="#878184" fill-opacity=".2" d="M184.2 137.3l-32.9 37.4L107 185l60.4-59.4z"/><circle r="1" fill="#b3b7bb" fill-opacity=".6" transform="matrix(-13.62411 -12.75937 83.84772 -89.53035 35 129.6)"/><path fill="#f0f2f3" fill-opacity=".8" d="M207.9 122l26.5 48L271-3.7l-70.1 171.5z"/><path fill="#9b6949" fill-opacity=".5" d="M173 31l4 13-20 18z"/><path fill="#c4af9a" fill-opacity=".5" d="M125.2 58.4l4.4 21 13.6-43.6 10.4 25.9z"/><path fill="#b78f7a" fill-opacity=".4" d="M170 62l20 23-16-8z"/><path fill="#ecf1f3" fill-opacity=".5" d="M159.3 127l20.5-4.6-3.6-16.1-22.4 10.4z"/><ellipse cx="235" cy="63" fill="#eff4f7" fill-opacity=".4" rx="25" ry="98"/><path fill="#fbfdfe" fill-opacity=".3" d="M147.4 141.7l-9.8 12.8-58.2-41.4 54.4 30.7z"/><ellipse cx="93" cy="169" fill="#cccdce" fill-opacity=".6" rx="17" ry="44"/><path fill="#afb0ae" fill-opacity=".6" d="M207 107l-15-23 18-52z"/><path fill="#8e8780" fill-opacity=".3" d="M200 185l5-56-39 56z"/><circle r="1" fill="#acaead" fill-opacity=".4" transform="matrix(5.37485 -5.84628 11.67412 10.73275 105.5 143)"/><ellipse cx="121" cy="20" fill="#bbbec2" fill-opacity=".6" rx="24" ry="47"/><path fill="#fedac3" fill-opacity=".6" d="M168 29l-14-1 14 10z"/><circle r="1" fill="#9ea4a7" fill-opacity=".3" transform="matrix(-59.32597 31.68852 -7.58315 -14.19687 35.8 83)"/><path fill="#e4d6ca" fill-opacity=".3" d="M161 53.4l35.9 36.3-19.6-56.8-25.5 97.9z"/><path fill="#ceae84" fill-opacity=".5" d="M159 32l-17 9 12-16z"/><path fill="#b4b3af" fill-opacity=".4" d="M154.6 67.4l-3.3 24 8.8 2.4.6-23.7z"/><path fill="#fbffff" fill-opacity=".3" d="M79.2 141.2l31.6-15.7-15.5-1.5-8.6 18.3z"/><path fill="#fffdf5" fill-opacity=".4" d="M131.5 184.8l-3 2.8-32-34.4 3-2.8z"/><path fill="#aaa8a9" fill-opacity=".5" d="M137 116l13-19-2 63z"/><ellipse cx="182" cy="9" fill="#c7cacc" fill-opacity=".5" rx="13" ry="32"/><path fill="#c1c3c8" fill-opacity=".5" d="M114 79l18 63-48-34z"/><path fill="#71442a" fill-opacity=".5" d="M143.2 70.2l-3-6.3 4.6-2.1 3 6.3z"/><path fill="#f7f8f7" fill-opacity=".5" d="M171 158h5v12h-5z"/><path fill="#aba092" fill-opacity=".5" d="M149.9 78.2l-12.4-2.1L118 60.6l29.1 29.5z"/><circle r="1" fill="#b2b3b7" fill-opacity=".5" transform="rotate(106.7 39.5 49.4) scale(66.45312 15.84813)"/><path fill="#835b47" fill-opacity=".3" d="M140.7 54l-12.6 16.7-.8-.6 12.6-16.8z"/><path fill="#ffc295" fill-opacity=".4" d="M192.3 74.3l-18.1-3.4 24.6 14.4-19.2 11.6z"/><path fill="#b67f63" fill-opacity=".5" d="M171.3 48l-17.5 3 17.1 6.6-21.1 10.7z"/><path fill="#ffdacc" fill-opacity=".5" d="M158.2 37.4l.3 1-6.7 2.2-.3-1z"/><path fill="#ffe1cd" fill-opacity=".2" d="M145.4 43.9l-5.1 3.8-15.6 41.1 20.5-32.1z"/><path fill="#f8f0e9" fill-opacity=".5" d="M171 60l18 14-6-14z"/><path fill="#cec7c3" fill-opacity=".8" d="M175.2 92.9l-3.9 3.7 7.5-26.6 3.9 15z"/><circle cx="153" cy="53" r="3" fill="#321201" fill-opacity=".5"/><path fill="#f5f3ef" fill-opacity=".6" d="M173 58l-2 31-14 14z"/><path fill="#754831" fill-opacity=".8" d="M148.6 39.8l5.7 25.9.5-3.8-4-23.8z"/><circle r="1" fill="#847c77" fill-opacity=".4" transform="matrix(3.5385 32.57243 -.99415 .108 150.7 140)"/><path fill="#a3a3a8" fill-opacity=".5" d="M43 1l34-16-15 90z"/></g></svg>