<svg xmlns="http://www.w3.org/2000/svg" viewBox="0 0 298 450"><defs/><path fill="#4b5f39" d="M0 0h298v450H0z"/><g transform="translate(.9 .9) scale(1.75781)"><circle r="1" fill="#fbcfd2" fill-opacity=".6" transform="rotate(87.9 -70.3 124.7) scale(117.51526 33.58333)"/><ellipse cx="153" cy="47" fill="#0d050b" fill-opacity=".9" rx="61" ry="97"/><ellipse cx="23" cy="113" fill="#daa791" fill-opacity=".9" rx="14" ry="35"/><circle r="1" fill="#0f0711" fill-opacity=".8" transform="matrix(-20.54916 52.62883 -27.9549 -10.91511 15.8 35.4)"/><ellipse cx="119" cy="167" fill="#aaab90" fill-opacity=".7" rx="50" ry="20"/><ellipse cx="74" cy="118" fill="#fad8d9" fill-opacity=".5" rx="37" ry="24"/><ellipse cx="11" cy="206" fill="#05000c" fill-opacity=".7" rx="17" ry="51"/><circle r="1" fill="#180009" fill-opacity=".6" transform="matrix(-21.03865 -43.13563 23.5949 -11.508 147.4 232.7)"/><path fill="#fc958a" fill-opacity=".5" d="M94 25L57 82l-1-47z"/><path fill="#756957" fill-opacity=".6" d="M71 127h43v129H71z"/><ellipse cx="38" cy="240" fill="#edecec" fill-opacity=".7" rx="13" ry="46"/><circle cx="79" cy="82" r="24" fill="#5d0000" fill-opacity=".4"/><ellipse cy="147" fill="#15161a" fill-opacity=".9" rx="11" ry="67"/><ellipse cx="150" cy="168" fill="#cac7be" fill-opacity=".5" rx="10" ry="26"/><circle r="1" fill="#160207" fill-opacity=".6" transform="rotate(-152 37.5 -7.8) scale(49.60142 13.28021)"/><path fill="#bec2a7" fill-opacity=".7" d="M119.6 197.1l10-53.7-3.3 35.3-86.4-24.2z"/><circle r="1" fill="#1d240e" fill-opacity=".6" transform="rotate(22.3 -321.9 360.3) scale(5.74655 65.6659)"/><path fill="#c39581" fill-opacity=".9" d="M14.5 141.6l7.1 30.7 30 34.6L32.5 64.4z"/><path fill="#3d0705" fill-opacity=".6" d="M56.8 34.3L52 80.1l-22.8-2.4L34 31.9z"/><path fill="#ede7df" fill-opacity=".5" d="M44 142.5l-9.4-64.6 46.7 44.7L54 167z"/><path fill="#0f0f12" fill-opacity=".8" d="M146 36l-33 105 29 11z"/><path fill="#3f3520" fill-opacity=".5" d="M100 214l49-6-8-42z"/><path fill="#65664f" d="M164.1 169.3l-17.7-14 18.1-3.6 20.5 26.8z"/><path fill="#fbffee" fill-opacity=".5" d="M151 155l-33-5 1 16z"/><path fill="#a0848a" fill-opacity=".7" d="M63.4 11.7l-9.6 33.7-4.4-23.7.1-12.5z"/><path fill="#c7b1a2" fill-opacity=".5" d="M113 131l-36 47 18-84z"/><path fill="#1d1715" fill-opacity=".7" d="M148.2 196l31.6-35.1.6 109.5-59.1-4.6z"/><path fill="#27130a" d="M68.7 76.7l23.2-16 15 .3-1.1 32.4z"/><path fill="#2b2e1f" fill-opacity=".4" d="M78.9 180.4l-13 18.4 53 22.3 1.5-18.8z"/><path fill="#825743" fill-opacity=".5" d="M38.4 167.4l39.7 36.9-30.9-38.9-11.9-62.8z"/><path fill="#ebf7cf" fill-opacity=".5" d="M95.6 169.2l8.3 3.9L84.8 185l-7.2-11.8z"/><path fill="#904439" fill-opacity=".5" d="M59 85.2l30.7-61.9 13.4 4.9-10.9 29z"/><path fill="#f2cab4" fill-opacity=".5" d="M21.3 82l8.4 68.6-11 1.3-8.4-68.5z"/><path fill="#01070d" fill-opacity=".5" d="M33.6 187l-6.8 12.2L8.4 189l6.8-12.2z"/><path fill="#746455" fill-opacity=".7" d="M77.9 216.5L54.6 201l48.5 70 20.5-53.1z"/><circle r="1" fill="#bcbeac" fill-opacity=".7" transform="matrix(7.4475 .56135 -.40388 5.35837 116 191)"/><circle r="1" fill="#d7aa91" fill-opacity=".5" transform="matrix(-8.93363 -1.83862 2.74841 -13.35422 68.6 51.4)"/><path fill="#efedd9" fill-opacity=".2" d="M143 174.3l-11.4 44.6 20.1-33.7 15-38z"/><path fill="#341b1a" fill-opacity=".6" d="M58.9 36l6.3 1.7L104-3.2 64.3 2.7z"/><path fill="#ecc0ad" fill-opacity=".5" d="M18 163.2l48.8 48.5L24.2 144 20 128.7z"/><ellipse cx="7" cy="252" fill="#191919" fill-opacity=".8" rx="18" ry="116"/><path fill="#320c0b" fill-opacity=".5" d="M167.5 149.9l-1.7 48.7L185 65.4l-35.7 94.8z"/><path fill="#536035" fill-opacity=".9" d="M115.1 149.8L78 172l22.5-5 15.1 8.1z"/><path fill="#d0cccc" fill-opacity=".5" d="M45 199l1 68 24-41z"/><path fill="#ae7d62" fill-opacity=".3" d="M60.5 61.4l62.8 112.2-71.9-82.7L12.5 104z"/><path fill="#fcffed" fill-opacity=".3" d="M148.6 142.2l6.8 37.4-14.2-13.6-8.6 6z"/><path fill="#d7eacc" fill-opacity=".5" d="M155 145l15 12-13-1z"/><path fill="#011a00" fill-opacity=".2" d="M115.5 176.7l32.7-10.4-48.7 50.6 55.2-36.8z"/><path fill="#b88d7d" fill-opacity=".7" d="M84.8 224.9l3.2-14.7L30.4 186l9.2 11.6z"/><path fill="#e9e9de" fill-opacity=".6" d="M111 190.5l-6-8 12-9 6 8z"/><path fill="#ded0d1" fill-opacity=".5" d="M96.2 122l-4.1-19.5 11.7-2.5 4.1 19.5z"/><path fill="#2b1913" fill-opacity=".5" d="M181.8 172.9L89.7 72l95.3 89.8-39.9-4.3z"/><path fill="#a6a784" fill-opacity=".5" d="M135 177h27v9h-27z"/><path fill="#121314" fill-opacity=".7" d="M111 54l74-52.9-57.9 136.6-10.9 19.7z"/><path fill="#120000" fill-opacity=".6" d="M56 50L44 73l1-44z"/><path fill="#dbe2ee" fill-opacity=".5" d="M54 11l8 7-3-12z"/><circle r="1" fill="#675845" transform="rotate(-99.7 162.7 81) scale(28.0914 16.31841)"/><path fill="#121e0d" fill-opacity=".6" d="M122.6 185.9l6.1-4.9 9.5 3.2-10 23.8z"/><path fill="#04030c" fill-opacity=".5" d="M59.1-4.5l-5.5 17-24.7-8 5.5-17z"/><path fill="#e3baa1" fill-opacity=".6" d="M10 89h11v34H10z"/><path fill="#e5dfd8" fill-opacity=".5" d="M48 154l33-43-39-26z"/><path fill="#c8d7fc" fill-opacity=".4" d="M138 271h-19l-1-24z"/><path fill="#ccc1bb" fill-opacity=".6" d="M48 169l6-22 22 42z"/><path fill="#d7d9ca" fill-opacity=".6" d="M115 163l17 2-4-20z"/><path fill="#1c3414" fill-opacity=".6" d="M76 192l3-11 24 11z"/></g></svg>