<svg xmlns="http://www.w3.org/2000/svg" viewBox="0 0 300 199"><defs/><path fill="#7e5243" d="M0 0h300v199H0z"/><g transform="translate(.6 .6) scale(1.17188)"><circle cx="122" cy="67" r="169" fill="#eaf5f8" fill-opacity=".8"/><circle r="1" fill="#feffff" fill-opacity=".7" transform="rotate(-127.3 117 -53.4) scale(53.97163 43.28605)"/><path fill="#9f9a8f" fill-opacity=".4" d="M186 65h70v37h-70z"/><path fill="#6f3916" fill-opacity=".3" d="M195.1 25.1l13.4 30.1-13.7 13.5-5.6-20.8z"/><path fill="#e7e9e8" fill-opacity=".6" d="M130 12.9l48 90-38 20.2-48-90z"/><circle r="1" fill="#b8bcbb" fill-opacity=".4" transform="matrix(56.16388 -3.19127 11.28215 198.55727 14.3 101.9)"/><circle r="1" fill="#ebedef" fill-opacity=".5" transform="rotate(103.1 64.9 153.2) scale(26.46056 35.54635)"/><path fill="#66341c" fill-opacity=".5" d="M193 32h7v13h-7z"/><path fill="#fafdfd" fill-opacity=".5" d="M230.3 38.4l-51.4-8.2 4.8-30.6 51.4 8.2z"/><path fill="#b3ada2" fill-opacity=".3" d="M143 53.1l128 49.6-91 8-1.9-24.2z"/><path fill="#f3f5f6" fill-opacity=".7" d="M248.7-16l-22.6 85.8-4.8-4.8-22.2-24.8z"/><circle r="1" fill="#855c48" fill-opacity=".5" transform="rotate(96.1 78.4 107.5) scale(9.00936 4.32619)"/><circle r="1" fill="#fffffd" fill-opacity=".5" transform="matrix(-5.21955 6.77937 -13.8298 -10.64779 148.9 91)"/><path fill="#d2d1cc" fill-opacity=".4" d="M235 65l-48-19 18 41z"/><circle r="1" fill="#dcdfde" fill-opacity=".7" transform="matrix(-26.692 -6.70457 16.2741 -64.78991 120.4 44.9)"/><ellipse cy="15" fill="#bfc1c1" fill-opacity=".4" rx="22" ry="169"/><circle r="1" fill="#d9dbdc" fill-opacity=".6" transform="matrix(-75.34629 -25.7968 6.97177 -20.36287 175.7 132.8)"/><path fill="#9aadbc" fill-opacity=".1" d="M242 16h14v91h-14z"/><path fill="#fbf9f8" fill-opacity=".4" d="M224 124.5l15.2-4.8 23.8-13.9-76.3 11.9z"/><circle r="1" fill="#d0d2d1" fill-opacity=".5" transform="matrix(-11.08623 -126.71622 18.88852 -1.65253 68.5 122.6)"/><ellipse cx="206" cy="53" fill="#8c3a1d" fill-opacity=".4" rx="2" ry="6"/><ellipse cx="185" cy="27" fill="#eeede8" fill-opacity=".4" rx="5" ry="54"/><circle r="1" fill="#bc9988" fill-opacity=".7" transform="rotate(1.9 -1121.5 5670.5) scale(5.3161 1.62943)"/><path fill="#875a40" fill-opacity=".1" d="M177.9 100.1l30.8 7.4-2.9-8.9-21.4-7.5z"/><ellipse cx="159" cy="12" fill="#c3c5c3" fill-opacity=".4" rx="5" ry="70"/><path fill="#a5a59f" fill-opacity=".4" d="M234 77l-19 14 56 10z"/><path fill="#d8d8d7" fill-opacity=".6" d="M212.2 94.7L198 59.4l15.2 49 57.8 8.1z"/><path fill="#f6f8f8" fill-opacity=".7" d="M271-12.9L199.7-16l-18.9 56.3 2.2-1.2z"/><path fill="#f3f2ef" fill-opacity=".3" d="M178 101.3l1.5-12.6-68.1-20 33 34.1z"/><path fill="#b2ada5" fill-opacity=".5" d="M189 63l11 15-1-36z"/><path fill="#f7f8fa" fill-opacity=".5" d="M236 52.7l-25.9 8-4-13.4 25.8-8z"/><circle r="1" fill="#cdcdcd" fill-opacity=".4" transform="matrix(5.02647 -16.97643 112.79343 33.39647 95.8 166.2)"/><path fill="#47200d" fill-opacity=".5" d="M191 43h5v3h-5z"/><circle r="1" fill="#d6d9d8" fill-opacity=".4" transform="rotate(-59.7 95.4 -48.4) scale(49.78663 24.31583)"/><path fill="#c5c8c7" fill-opacity=".5" d="M271 87l-46-28 35 1z"/><path fill="#afaea8" fill-opacity=".4" d="M179.2 85.3l-11-5.1 2.6-5.5 11 5.1z"/><path fill="#d7d7d7" fill-opacity=".8" d="M181.4 98.3l-104.9 34 181.4-32.4-88.1 8.1z"/><circle r="1" fill="#fff" fill-opacity=".5" transform="matrix(10.3165 .18888 -.02645 1.44472 245 128.7)"/><path fill="#dfcbc0" fill-opacity=".6" d="M199.6 63.7l-3.5-2 6.3-11.4 3.5 2z"/><path fill="#baa596" fill-opacity=".6" d="M190 57.4l.7 2.2 8.2.9 11.8-4z"/><circle cx="195" cy="36" r="4" fill="#714f3e" fill-opacity=".5"/><circle r="1" fill="#b5826e" fill-opacity=".4" transform="matrix(-.87462 -3.19705 5.83201 -1.59546 191.2 39.9)"/><circle r="1" fill="#cfd1d9" fill-opacity=".5" transform="matrix(-10.21325 -2.89441 7.7327 -27.28569 247.4 161.1)"/><circle r="1" fill="#c8cccc" fill-opacity=".4" transform="matrix(-34.4042 3.64927 -2.11869 -19.97436 55.4 6.2)"/><ellipse cx="184" cy="72" fill="#d1cdc7" fill-opacity=".4" rx="8" ry="11"/><path fill="#d8d9d6" fill-opacity=".5" d="M144 38l3 36 29 15z"/><circle r="1" fill="#bdc0c2" fill-opacity=".5" transform="matrix(-10.25431 -3.91273 20.74608 -54.37038 0 20.3)"/><path fill="#dbdad8" fill-opacity=".5" d="M200 59h19v8h-19z"/><circle r="1" fill="#d0d1d0" fill-opacity=".4" transform="rotate(70.7 -36 67.4) scale(18.37327 40.12559)"/><path fill="#f2f5f5" fill-opacity=".8" d="M230 52.1l-1.6 8.4 25.1-13.8-71-23.8z"/><path fill="#e1e2e0" fill-opacity=".4" d="M201.7-16l-23.6 38.6 14.2 23.8L176.8-16z"/><path fill="#e2e2e1" fill-opacity=".5" d="M104.6 94l23.3 7.4 45.3-3.2-53.7-8z"/><circle r="1" fill="#d9dae0" fill-opacity=".5" transform="matrix(15.15801 7.99633 -15.6219 29.61319 224 160.6)"/><path fill="#b9b8b3" fill-opacity=".5" d="M211.1 95.5l-12.3 3.1 33.6-14.1-28-15.9z"/><path fill="#afa095" fill-opacity=".4" d="M208 101l-12-8-2 12z"/><path fill="#f2f2f2" fill-opacity=".6" d="M255.2 125.3l8.2 23.2-3.7-11.7-21.2-9.5z"/><ellipse cx="19" cy="115" fill="#c3c6c6" fill-opacity=".4" rx="43" ry="11"/><path fill="#e7eae9" fill-opacity=".6" d="M180 51l9 7-9-33z"/><circle cx="167" cy="169" r="34" fill="#d1d5d5" fill-opacity=".5"/><path fill="#cac8c6" fill-opacity=".5" d="M162 55h13v21h-13z"/><circle r="1" fill="#b49783" fill-opacity=".5" transform="matrix(-.9202 5.6815 -.98714 -.15988 199.6 41)"/><circle cx="203" cy="54" r="2" fill="#fffff9" fill-opacity=".5"/><path fill="#d5d6d5" fill-opacity=".4" d="M188 118l62-16-33-9z"/><path fill="#fffefd" fill-opacity=".3" d="M237.7 118.1l-24.2-4.6 18-4.1 39.5 11.4z"/><path fill="#a0a097" fill-opacity=".4" d="M236.9 81.4l2 11.8-7.8 1.4-2-11.8z"/></g></svg>