<svg xmlns="http://www.w3.org/2000/svg" viewBox="0 0 298 450"><defs/><path fill="#5d382b" d="M0 0h298v450H0z"/><g transform="translate(.9 .9) scale(1.75781)"><ellipse cx="45" cy="120" fill="#05090c" fill-opacity=".8" rx="82" ry="255"/><circle r="1" fill="#e9dbcc" fill-opacity=".5" transform="rotate(-103.8 131.4 5.2) scale(63.61594 31.29421)"/><ellipse cx="74" cy="77" fill="#f1bfaa" fill-opacity=".7" rx="15" ry="30"/><circle r="1" fill="#010000" fill-opacity=".5" transform="matrix(162.95618 44.79154 -9.7969 35.6421 133.5 28.7)"/><path fill="#ad978b" fill-opacity=".5" d="M122 124h63l-84-57z"/><path fill-opacity=".5" d="M158 121L42 268l79-38z"/><path fill="#debeaf" fill-opacity=".6" d="M143 213l-14-18 41-57z"/><circle r="1" fill="#000917" fill-opacity=".7" transform="matrix(-9.756 -26.4799 12.33232 -4.5436 139.4 237.2)"/><path fill="#fffae9" fill-opacity=".5" d="M170.3 76.7l-16.5 53-13.1 8.2 9.9-55.4z"/><path fill="#3a1209" fill-opacity=".5" d="M119 153l31-83-5 55z"/><path fill="#030100" fill-opacity=".7" d="M168 56h2v115h-2z"/><ellipse cx="32" cy="73" fill-opacity=".7" rx="29" ry="68"/><path fill="#fff0e0" fill-opacity=".6" d="M39 252h16v4H39z"/><circle r="1" fill="#f5d7c7" fill-opacity=".5" transform="matrix(-2.26246 -23.8891 6.04801 -.57279 79.1 72.1)"/><circle r="1" fill="#f1ceb2" fill-opacity=".6" transform="matrix(1.04574 31.6243 -3.65194 .12076 165.5 127.4)"/><circle cx="169" cy="186" r="12" fill="#e9f3f0" fill-opacity=".5"/><path fill="#9b8b8b" fill-opacity=".5" d="M133 233l-24 31 1-33z"/><circle r="1" fill-opacity=".5" transform="matrix(3.54384 -.05567 .33824 21.53094 137.4 66.6)"/><path fill="#000206" fill-opacity=".5" d="M104.2 67.2L74.7 101l-19 106.4 72.8 28z"/><path fill="#3c1e16" fill-opacity=".7" d="M74.3 72.1l-22.7-3.8 17.9 13.4L79.9 70z"/><circle cx="169" cy="164" r="7" fill-opacity=".7"/><path fill="#150500" fill-opacity=".5" d="M130.2 70.5l8.8-83.4-57.2 65.1 56.5 51.7z"/><ellipse cx="163" cy="38" fill="#ffcc84" fill-opacity=".2" rx="4" ry="127"/><path fill="#232e42" fill-opacity=".5" d="M51 196l30-46-93-23z"/><path fill="#ffdac1" fill-opacity=".6" d="M60 124.5l3.3 6.1-5.2 3-3.4-6.2z"/><circle r="1" fill="#000001" fill-opacity=".9" transform="matrix(23.28984 4.07855 -4.66926 26.66301 25.8 211.8)"/><path fill="#00050d" fill-opacity=".5" d="M146.3 206.9l7.5-15.3 35.9 17.5-7.5 15.3z"/><path fill="#fdb9ac" fill-opacity=".4" d="M61 105.8l14 7.2-17.5-32.8 15.8.3z"/><path fill="#6c473e" fill-opacity=".6" d="M147.8 170.5l9.1 29.8-28.3-44.9 35.1-34.8z"/><circle cx="69" cy="222" r="11" fill="#595958" fill-opacity=".5"/><path fill="#e8b9a3" fill-opacity=".3" d="M78.7 41.5l13.8 25.9-.6 15.6-28.2-17.1z"/><circle r="1" fill-opacity=".6" transform="matrix(.33595 10.1272 -18.52385 .6145 141 250.5)"/><path fill="#4f3125" d="M50.3 69.2l32.5-33.8-19.6 25.1-.9 8.6z"/><path fill="#e18659" fill-opacity=".2" d="M137.5 44.6L178 15.3l-4.8 38.4-33.7-63.6z"/><path fill="#48464a" fill-opacity=".5" d="M180.6 222.9l-50.7-25.8 33.2 61.9 21.2-14.8z"/><path fill="#ecd0ba" fill-opacity=".6" d="M152 161l5 27 8-50z"/><path fill="#ecf1ed" fill-opacity=".5" d="M153.5 73.2l5.6 40.6-12.6 9.5-.5-28.1z"/><path fill="#fbd7c3" fill-opacity=".1" d="M105.3 77.7l41.2 13-10.7 30-41.5-28.4z"/><path fill="#fafafa" fill-opacity=".2" d="M137.5 163.4l22.4 23.4-21.9-50.9-12.5 8.1z"/><path fill-opacity=".4" d="M55.2 177.5l94.8-29-1.8-16.7L106.7 271z"/><circle r="1" fill="#050000" fill-opacity=".7" transform="matrix(-9.1754 43.33831 -30.88139 -6.53808 108.4 9.4)"/><path fill="#65412d" fill-opacity=".6" d="M86.8 106.1l-21.7 23.3 9.5-45.8-7.4 5.6z"/><ellipse cx="145" cy="59" fill="#0c0000" fill-opacity=".6" rx="12" ry="16"/><path fill="#090e17" fill-opacity=".5" d="M134 186L86 87l42 39z"/><path fill="#a48374" fill-opacity=".5" d="M137 29l13-21-8-2z"/><path fill="#3d0f00" fill-opacity=".3" d="M137.4 4.9L171 58.6l-8.5 20.9-3.8 21.3z"/><path fill="#ffcfcb" fill-opacity=".3" d="M132.5 183.7l15.9 4.7-10.1 35.5 8.9-20.5z"/><path fill="#e1e8e3" fill-opacity=".5" d="M121 122l16-16-5 14z"/><path fill="#252b3e" fill-opacity=".6" d="M130 243l-8-19 22-24z"/><ellipse cx="145" cy="85" fill="#1e0000" fill-opacity=".6" rx="3" ry="13"/><path fill-opacity=".6" d="M59.8 103.6L53 142l-76.8-13.6L-17 90z"/><path fill="#1f2b41" fill-opacity=".5" d="M41 252l-7 11-57-37 7-11z"/><path fill="#ecbb9d" fill-opacity=".5" d="M135 93l9 9-5-28z"/><path fill="#333642" fill-opacity=".7" d="M110.4 89.2l18.3 54.4 18.7 40-18.4-20.5z"/><path fill="#462214" fill-opacity=".5" d="M99 63l34 34-3-46z"/><path fill="#100400" fill-opacity=".6" d="M154 26.6l-22.8-11.9 29.6-2.6-10.4-22.4z"/><path fill="#e8f0ee" fill-opacity=".4" d="M156 122l-21 21 13-29z"/><path fill="#080707" fill-opacity=".9" d="M70.1 244.1l-2.5-22.8L44 249.4l18 7.5z"/><path fill="#e5bcae" fill-opacity=".6" d="M38 262l4-13 20 8z"/><path fill-opacity=".6" d="M176.7 142l-13.6 26.8-1.8-.9 13.6-26.7z"/><path fill="#1d1311" fill-opacity=".5" d="M79 118l42-8-34-28z"/><path fill="#e6ac6b" fill-opacity=".3" d="M58.8 228l10.4-13.5-2-3.5-10.6 6.7z"/><path fill="#bca5a0" fill-opacity=".5" d="M127 237l-16 34 7-39z"/><path fill="#040000" fill-opacity=".7" d="M169 26h1v109h-1z"/><path fill="#fff5e3" fill-opacity=".5" d="M143 28l-5-4 2-5z"/></g></svg>