<svg xmlns="http://www.w3.org/2000/svg" viewBox="0 0 300 199"><defs/><path fill="#5d402f" d="M0 0h300v199H0z"/><g transform="translate(.6 .6) scale(1.17188)"><circle r="1" fill="#f4ecd2" fill-opacity=".6" transform="matrix(10.07283 41.07699 -23.8211 5.84137 74.2 39.3)"/><circle r="1" fill="#18120e" fill-opacity=".7" transform="matrix(14.5133 -49.36253 243.61594 71.62657 127.1 154.6)"/><circle cx="194" cy="9" r="12" fill="#fff7cd" fill-opacity=".7"/><circle r="1" fill="#180700" fill-opacity=".6" transform="rotate(-36 202.2 -331.7) scale(27.82546 48.14304)"/><circle r="1" fill="#180900" fill-opacity=".6" transform="matrix(16.276 -3.28147 7.87018 39.03592 119.4 18.8)"/><circle r="1" fill="#8e6b60" fill-opacity=".5" transform="matrix(16.095 -1.00216 2.15017 34.53238 119 97)"/><ellipse cx="55" cy="37" fill="#d4ceb8" fill-opacity=".8" rx="6" ry="42"/><path fill="#a0a7ad" fill-opacity=".6" d="M158.3 49.7L184 38.3l9.8 22L168 71.7z"/><ellipse cy="43" fill="#0b1311" fill-opacity=".7" rx="14" ry="75"/><path fill="#d0effa" fill-opacity=".5" d="M45.2 49.3L32 53l-9.3-7.4 9.7-7.5z"/><circle r="1" fill="#2c3030" fill-opacity=".5" transform="rotate(-79.3 164.9 -61.5) scale(24.59434 61.78927)"/><path fill="#050405" fill-opacity=".8" d="M44.5 54.1l18.2 57.4-11.9 27.1L29.6 75z"/><ellipse cx="53" cy="168" fill="#040000" fill-opacity=".7" rx="49" ry="17"/><circle r="1" fill="#0a0200" fill-opacity=".7" transform="rotate(135.4 98 67.7) scale(23.58464 16.2345)"/><ellipse cx="97" cy="132" fill="#55301e" fill-opacity=".7" rx="33" ry="22"/><path fill="#443121" fill-opacity=".8" d="M185.5 52.7l-33.5 7L71.6-5.4l73.9 90z"/><ellipse cx="21" cy="51" fill="#f8c965" fill-opacity=".2" rx="7" ry="66"/><circle cx="166" cy="1" r="25" fill="#7f7a70" fill-opacity=".4"/><circle r="1" fill="#ddd9c8" fill-opacity=".4" transform="matrix(-8.10022 2.90676 -13.67727 -38.11422 82 44.9)"/><path fill="#fdf1f2" fill-opacity=".5" d="M108 98h6v16h-6z"/><ellipse cx="239" cy="9" fill="#5d2a08" fill-opacity=".7" rx="35" ry="21"/><circle r="1" fill="#e6f5fb" fill-opacity=".4" transform="matrix(-12.37242 9.85248 -2.20918 -2.77421 170 70.5)"/><path fill="#282018" fill-opacity=".6" d="M143 26h51v17h-51z"/><path fill="#778076" fill-opacity=".6" d="M7 179l-6-69-17 55z"/><path fill="#180f0c" fill-opacity=".3" d="M-5 153l18-72 83-9z"/><path fill="#8d693f" fill-opacity=".7" d="M106.9 43.5l2.8 14.2-12 8.2-6-58.3z"/><path fill="#998f86" fill-opacity=".6" d="M19.7 113.5l18.3 6 1.5-1.5.6-5.9z"/><path fill="#504943" fill-opacity=".6" d="M148 71l32 5-39 107z"/><path fill-opacity=".6" d="M99-5l18-11-5 75z"/><circle r="1" fill="#856040" fill-opacity=".5" transform="matrix(-19.73275 -8.71612 2.56778 -5.8133 76 6)"/><path fill="#281a09" fill-opacity=".5" d="M27 0h23v34H27z"/><ellipse cx="125" cy="52" fill="#ffcc63" fill-opacity=".2" rx="4" ry="30"/><ellipse cx="230" fill="#e67420" fill-opacity=".3" rx="11" ry="22"/><ellipse cx="166" cy="50" fill="#fbeeef" fill-opacity=".3" rx="17" ry="5"/><path fill="#e0d7db" fill-opacity=".1" d="M224.4 107l39.8-88.9-40.6 60.8-10.4-4.2z"/><ellipse cx="212" fill="#140401" fill-opacity=".6" rx="7" ry="71"/><ellipse cx="11" cy="147" fill="#070708" fill-opacity=".8" rx="7" ry="54"/><ellipse cx="135" cy="66" fill="#060501" fill-opacity=".5" rx="3" ry="35"/><path fill="#f5e8c8" fill-opacity=".8" d="M184 6.1l21 2-5.7 10.7-11.2-.1z"/><path fill="#3d3026" fill-opacity=".9" d="M118 76.1l-9.1-16.2 40.1 33 4.9-17.8z"/><path fill="#6f4d2a" fill-opacity=".8" d="M183.2-.6l18.6-3.7 1 5-18.6 3.6z"/><circle r="1" fill="#1d1512" fill-opacity=".4" transform="matrix(-22.64814 -11.2036 13.79352 -27.88368 224.1 140.5)"/><path fill="#7b878d" fill-opacity=".5" d="M264 172l-13-27 4-30z"/><path fill="#c3b194" fill-opacity=".5" d="M49.6 15.6l1.5 67.2 28.3-23.5L105 88.5z"/><path fill="#fcebf8" fill-opacity=".3" d="M139.5 59.5l-.4 14.5 4.7 2.7.1-9.6z"/><path fill="#2d1b0f" fill-opacity=".7" d="M100.7 59.5l8.7 7.2-1 12.8.3 25.3z"/><path fill="#371e06" fill-opacity=".9" d="M244-11l27 70-17 49z"/><path fill="#050304" fill-opacity=".7" d="M142.2 173.1l-38.3-5.2 32.6-14.4 8.2-67.9z"/><path fill="#a98b63" fill-opacity=".5" d="M67 71h32v13H67z"/><path fill="#4d2e18" fill-opacity=".6" d="M21.5 141.5l-1.1 23.8 113.8-42.9-121.3 18.8z"/><path fill="#e7e5d9" fill-opacity=".5" d="M87 28h9v43h-9z"/><path fill="#86837b" fill-opacity=".5" d="M147 120.2l-4.8-1.3 6.7-25.1 4.9 1.3z"/><path fill="#fff" fill-opacity=".5" d="M168 71l8-12h12z"/><circle cx="188" cy="47" r="6" fill="#998d89" fill-opacity=".7"/><path fill="#f8fdff" fill-opacity=".6" d="M35.6 49.4l-6.3-4.9 3-4 6.4 5z"/><path fill="#7b7367" fill-opacity=".8" d="M190.5 65.2l-13.6-3.7 20.8 6.1-30.6 15.7z"/><path fill="#060202" fill-opacity=".4" d="M85 122l5-36-49-1z"/><circle r="1" fill="#886b53" fill-opacity=".6" transform="rotate(176.7 31.1 15) scale(1 59.19522)"/><path fill="#b3a1a1" fill-opacity=".3" d="M243.7 78l-1.4-24.6 4.1-11.5-11.2 11.3z"/><ellipse cx="122" cy="64" fill="#f9b95c" fill-opacity=".5" rx="7" ry="4"/><path fill="#2e1408" fill-opacity=".6" d="M260.8 113.8l-39.6-58.5-37.5 11.8 10-12.5z"/><path fill="#000001" fill-opacity=".8" d="M-11 181l85 4 6-43z"/><path fill="#82959e" fill-opacity=".5" d="M227 92l-7-15-13-1z"/><path fill="#6d6962" fill-opacity=".7" d="M148 79l-15.1 38.7-5.8 14.2 5.9-27.3z"/><circle r="1" fill="#261200" fill-opacity=".4" transform="matrix(34.0756 6.89903 -2.12025 10.47231 104.8 1.6)"/></g></svg>