<svg xmlns="http://www.w3.org/2000/svg" viewBox="0 0 298 450"><defs/><path fill="#6b4334" d="M0 0h298v450H0z"/><g transform="translate(.9 .9) scale(1.75781)"><circle cx="35" cy="207" r="114" fill="#b0998c" fill-opacity=".5"/><circle cy="30" r="56" fill="#020603" fill-opacity=".8"/><circle r="1" fill="#180c01" fill-opacity=".5" transform="matrix(5.30569 71.36755 -22.34587 1.66126 72.4 163)"/><circle r="1" fill="#ffdfca" fill-opacity=".4" transform="rotate(43.4 -26.7 154.8) scale(23.21784 42.14211)"/><path fill="#e1dfdb" fill-opacity=".5" d="M9.5 121.8l57.8 92.4-28.8 18-57.8-92.4z"/><circle r="1" fill="#000a03" fill-opacity=".5" transform="matrix(20.2094 -71.95627 26.12964 7.33868 146.9 74.4)"/><circle r="1" fill="#020d0d" fill-opacity=".6" transform="matrix(-5.00199 -17.00385 43.89338 -12.91202 115.8 9.1)"/><ellipse cx="89" cy="166" fill="#76523f" rx="18" ry="37"/><circle r="1" fill="#d1a58c" fill-opacity=".6" transform="matrix(-16.6019 -11.20897 24.88792 -36.86216 24 114.4)"/><circle r="1" fill="#ffe7d5" fill-opacity=".4" transform="matrix(1.42531 -17.19807 19.17057 1.58878 104.4 206)"/><path fill="#e0eaec" fill-opacity=".6" d="M116.4 256.1l23.4-20.3 15.8 18-23.4 20.4z"/><path fill="#ffe4d0" fill-opacity=".4" d="M120.5 173.9l-24.9-45.5 9.3-17.7 50 91.7z"/><path fill="#1e1b19" fill-opacity=".9" d="M62.5 155.2l23.2 63.7-19.7 11-19.4-81.8z"/><ellipse cx="66" cy="48" fill="#ac7f6c" fill-opacity=".7" rx="8" ry="38"/><circle r="1" fill="#6e392b" fill-opacity=".5" transform="matrix(-53.76062 18.1698 -7.1547 -21.16928 40.5 255)"/><circle r="1" fill="#304a41" fill-opacity=".5" transform="matrix(-23.40456 2.41863 -10.78455 -104.35995 167.7 172.8)"/><circle r="1" fill="#b68e7c" fill-opacity=".6" transform="matrix(-8.79646 -23.27915 26.47168 -10.00281 105.7 49)"/><path fill="#030000" fill-opacity=".5" d="M93 116l23-45 59-31z"/><path fill="#3f1501" fill-opacity=".4" d="M177.6 240.6l-45.3-18.3-5.2-50.1-8.5 62.5z"/><path fill="#1f0100" fill-opacity=".5" d="M112.9 54.8l1.1 13-16.9 1.4-1.1-13z"/><circle r="1" fill="#d5d6d9" fill-opacity=".5" transform="matrix(13.47287 -2.495 4.3374 23.4218 43.4 192.3)"/><path fill="#1d0800" fill-opacity=".5" d="M72 95l-14 39 50 20z"/><circle r="1" fill="#b78b76" fill-opacity=".8" transform="matrix(-8.88328 -56.09921 16.29935 -2.581 0 171.6)"/><path fill="#3e2113" fill-opacity=".8" d="M117.7 149.7l-10.9-60.3-23.5 7.7 67.4 21.5z"/><circle r="1" fill="#ca9c8d" fill-opacity=".6" transform="rotate(148.3 16.3 114.7) scale(7.16959 24.81139)"/><path fill="#3c1503" fill-opacity=".6" d="M93 144h13v47H93z"/><path fill="#8099a5" fill-opacity=".7" d="M63 16l21-8 2-24z"/><path fill-opacity=".5" d="M94 33l9-49-36 52z"/><path fill="#d59470" fill-opacity=".5" d="M135.2 250.1l-5.9-109.7 26.5 61.4-20.9 41.1z"/><path fill="#99846a" fill-opacity=".6" d="M83 155.3l6.3 16.9-27-10.1 48.2-55.8z"/><ellipse cx="108" cy="132" fill="#eef6f5" fill-opacity=".6" rx="5" ry="17"/><path fill-opacity=".5" d="M151 40l-11 65-13-121z"/><path fill="#905c47" fill-opacity=".5" d="M23 83l91 7-64-39z"/><path fill="#8f5b48" fill-opacity=".7" d="M63 111L47 57l-4 110z"/><path fill="#331a0d" fill-opacity=".5" d="M148.6 220.8l-53.5 20.5-33.8 19.4L84 238.6z"/><path fill="#eab3a2" fill-opacity=".4" d="M113 232l23 12-73 24z"/><path fill="#1a1410" fill-opacity=".7" d="M56.9 228l21.8-26.9 8.7 20.4L17 244.3z"/><circle r="1" fill="#15110b" fill-opacity=".8" transform="matrix(18.33155 18.67957 -55.58509 54.5495 0 65.4)"/><path fill="#fcd4c3" fill-opacity=".3" d="M114.7 91.4L92 57.9 81.4 41.8l5.7 34z"/><circle r="1" fill="#b2856f" fill-opacity=".5" transform="rotate(-32.2 451.6 -9) scale(46.04664 6.68935)"/><path fill="#3b3934" fill-opacity=".9" d="M166.9 268.7l18.1-13.1-26.7-47.3-19.3 26.2z"/><path fill="#ffe2d8" fill-opacity=".3" d="M125.7 171.3l10.1-13.7-19.1-7.8-11.4 23.9z"/><path fill="#2f1f1a" fill-opacity=".6" d="M82.5 179.9l-21.4-.4-16.2-15.2 1.2-25.1z"/><path fill="#60463f" fill-opacity=".3" d="M17 264.7l-2.3-93.8-6.8-3.6 32.7 61.8z"/><circle r="1" fill="#ffd5bd" fill-opacity=".2" transform="matrix(-2.02896 -12.64608 24.98775 -4.00909 111.5 46.7)"/><path fill="#d1cccc" fill-opacity=".6" d="M61.6 224.3l-1.4-15.6-33.7-50 21.3 71.2z"/><circle r="1" fill="#823806" fill-opacity=".4" transform="matrix(-21.61422 6.34434 -2.30354 -7.84783 106.5 186.5)"/><path fill="#defcff" fill-opacity=".3" d="M124.1 212.4l-15 15.6 8.1-49.1 2.2 4.7z"/><path fill="#fce1c3" fill-opacity=".4" d="M80.4 154.8l-.3 9.5 12-9-6.8-3.3z"/><path fill="#b28878" fill-opacity=".6" d="M64 11.4l8.4 27L61.3 50l-6.2-15.8z"/><path fill="#5c3a3b" fill-opacity=".5" d="M94.6 109.9l10.3 19.9-3 10.2-54.2-68.3z"/><path fill="#6c4838" fill-opacity=".5" d="M125.3 128.1L109.8 153l31.2-7.2 12.2-5.4z"/><path fill="#cec6c0" fill-opacity=".9" d="M7.6 132.8l-19.2-40.7 16.7 23.5L61 223.1z"/><path fill="#1c0500" fill-opacity=".4" d="M140.1 93l-16.2 17.2-36.7-16.5 4.4-7.7z"/><circle r="1" fill="#25434c" fill-opacity=".6" transform="matrix(6.7372 7.05009 -13.22997 12.64283 64.1 0)"/><path fill="#583020" fill-opacity=".6" d="M33.7 232l-23.3 29-26.4-92.7 3 102.7z"/><path fill="#3f200c" fill-opacity=".4" d="M85.3 102.8l-6.1 28.7-24.3-85.8-1.2 58.7z"/><path fill="#f5ffeb" fill-opacity=".1" d="M82.1 142.9l17.7-20.4-7.1-23.9 22.8 11.7z"/><path fill="#2e2e25" fill-opacity=".8" d="M207 99.5l-29.8 11.4L130.9-9.5l30-11.4z"/><path fill="#0d0700" fill-opacity=".5" d="M69.1 137.4l7.6-34.5-23.6 37.6 20.1 1.4z"/><path fill="#c99882" fill-opacity=".2" d="M45.7 56.4l16.2 61.9-29.5 33.9-34.6-11.9z"/><path fill="#f7d9c9" fill-opacity=".5" d="M111 68l-8 4 5 16z"/><path fill="#0f0e09" fill-opacity=".5" d="M118.8-.9L43.3 21.8 58.9 9.6l30 22.8z"/><path fill="#3f1800" fill-opacity=".4" d="M132.4 233.1L121.6 219l-17.4 22.4-28-2.1z"/><path fill="#a2acb4" fill-opacity=".3" d="M44.1 236.2l-16.5-3.4-18.1-87 45.3 80.7z"/></g></svg>