<svg xmlns="http://www.w3.org/2000/svg" viewBox="0 0 300 199"><defs/><path fill="#563f34" d="M0 0h300v199H0z"/><g transform="translate(.6 .6) scale(1.17188)"><circle cx="40" cy="115" r="60" fill="#aca094" fill-opacity=".5"/><circle cx="241" cy="123" r="47" fill="#020000" fill-opacity=".8"/><path fill="#ffede9" fill-opacity=".6" d="M156 46h52v23h-52z"/><circle r="1" fill="#020100" fill-opacity=".5" transform="rotate(-97.3 75.6 -55.5) scale(19.60443 193.89142)"/><ellipse cx="172" cy="99" fill="#211712" rx="79" ry="16"/><ellipse cx="54" cy="69" fill="#fff" fill-opacity=".5" rx="11" ry="22"/><path fill="#c4c0b5" fill-opacity=".7" d="M80.5 116.5l32-16.4 11 21.4-32 16.4z"/><path fill="#a7afaa" fill-opacity=".5" d="M190.9 136.2l18.4 33.3-40.2 22.3-18.4-33.3z"/><path fill-opacity=".6" d="M99 101l36-14L98-13z"/><path fill="#20130b" fill-opacity=".7" d="M8.7 115.2L-16 65.5l29.9 10.3L84.4-16z"/><ellipse cx="248" cy="76" fill-opacity=".7" rx="13" ry="154"/><path fill="#fff5e2" fill-opacity=".6" d="M132 71.5l8.6-5 11.5 20-8.7 5z"/><path fill="#c09a86" fill-opacity=".6" d="M235 59l-24 45-1-41z"/><circle cx="77" cy="51" r="26" fill="#bd9579" fill-opacity=".3"/><path fill="#c6b8a7" fill-opacity=".7" d="M22 185l71-58-89 38z"/><path fill="#cdc6c1" fill-opacity=".6" d="M33 83l-3 59-14-54z"/><path fill="#efeef3" fill-opacity=".6" d="M4 148l9-32-29-5z"/><circle r="1" fill="#361a0f" fill-opacity=".6" transform="matrix(10.98594 52.58672 -6.05287 1.26451 39.7 92)"/><path fill="#150100" fill-opacity=".5" d="M5 161l44-19-29-7z"/><circle r="1" fill="#f6ccbd" fill-opacity=".4" transform="matrix(-13.33546 26.05977 -7.84305 -4.0135 182.8 57.6)"/><path fill="#1e0500" fill-opacity=".6" d="M115.3 88.7l-49.9 2.6-.7-14 49.9-2.6z"/><path fill="#8a624c" fill-opacity=".9" d="M94 73.4l-10.3-76-8.5 9.9 7.9 55.3z"/><circle r="1" fill="#060203" fill-opacity=".4" transform="matrix(-16.59965 36.36377 -17.76455 -8.10932 185.1 102.1)"/><path fill="#fbc1af" fill-opacity=".4" d="M20.7 21.9L1.4 9.8-16 49.2l26.1-28.3z"/><circle r="1" fill="#31221b" fill-opacity=".8" transform="rotate(1.8 -3194.4 545) scale(8.57667 9.8497)"/><ellipse cx="170" cy="27" fill="#1c0000" fill-opacity=".6" rx="7" ry="25"/><path fill="#010300" fill-opacity=".4" d="M90.1 45.4L78.9 66.1 15.8 11.7l15.3 49.2z"/><path fill="#6c5c50" fill-opacity=".7" d="M195 107.7l-79 56.5 68.7-5.6-13.3-53.7z"/><circle r="1" fill="#f6c7a3" fill-opacity=".3" transform="matrix(12.74051 -1.27435 1.64592 16.45527 16.7 59.4)"/><circle r="1" fill="#3c2d1e" fill-opacity=".5" transform="matrix(43.78697 -21.88483 2.69974 5.40161 56 169)"/><path fill="#e2957b" fill-opacity=".5" d="M212 36h20v12h-20z"/><path fill="#edf1e9" fill-opacity=".4" d="M68 62l-27-4 22 50z"/><path fill="#190c07" fill-opacity=".6" d="M171.2 82.8L74 103.7l-8.5-4.8 1 14.8z"/><ellipse cx="116" cy="17" fill="#070a04" fill-opacity=".6" rx="28" ry="27"/><path fill="#ab8d7e" fill-opacity=".5" d="M132.4 57.9l-13-3.7 27.3-19.6 9.9-4.7z"/><path fill="#a3928b" fill-opacity=".7" d="M95.5 61.2l.5-27.6-38.8 63 1.1-31.3z"/><path fill="#111a06" fill-opacity=".5" d="M43 3l54 54L-2 5z"/><ellipse cx="160" cy="97" fill-opacity=".6" rx="9" ry="24"/><ellipse cx="44" cy="116" fill="#5a3023" fill-opacity=".6" rx="11" ry="30"/><circle r="1" fill="#eceae7" fill-opacity=".5" transform="matrix(.65042 -2.8569 17.24801 3.9268 106.4 111)"/><path fill="#e7cdc4" fill-opacity=".4" d="M195 52l-28.4 42.2 8.6-61.3 15.9 35.6z"/><path fill="#ffd6c3" fill-opacity=".5" d="M134 76l8-24 1 34z"/><path fill="#483226" d="M215.2 64.6L210 23.1l-35.9-6.9 17.1 11.1z"/><path fill="#8c8d88" fill-opacity=".4" d="M150 157h71v13h-71z"/><path fill="#aa8170" fill-opacity=".6" d="M235 71l-1-32-20 50z"/><path fill="#1c140e" fill-opacity=".5" d="M15.6 89.6l21.9-71.8 3.7 51.7-24.3-12.8z"/><path fill="#9e8f7f" fill-opacity=".7" d="M115.9 103.2l-84.6 56.7 34.6.9 41.3-30.6z"/><path fill="#ced2d0" fill-opacity=".6" d="M24.8 111.7l10.9 25.8-6.5 2.8-10.9-25.8z"/><path fill="#e5d6d1" fill-opacity=".5" d="M157 42h6v32h-6z"/><path fill="#c79276" fill-opacity=".6" d="M50 38h9v20h-9z"/><path fill="#a06d56" fill-opacity=".7" d="M184.6 27.3l-1.5-9.3 21.8 29-20.4 3.3z"/><path fill="#060201" fill-opacity=".4" d="M182 74h27v67h-27z"/><path fill="#060000" fill-opacity=".6" d="M115 58h18v48h-18z"/><path fill="#fffff9" fill-opacity=".2" d="M74 78h6v42h-6z"/><path fill="#dbb6a5" fill-opacity=".3" d="M42.8 120.4L13.2 88.6l21.3-6.8-17.3-45.6z"/><path fill="#ffead1" fill-opacity=".5" d="M7 62h9v14H7z"/><path fill="#2c190d" fill-opacity=".6" d="M212 0h39v34h-39z"/><path fill="#1d120b" fill-opacity=".7" d="M-21.5 174.3l49.7-33.6 3.3 5-49.7 33.6z"/><path fill="#391f16" fill-opacity=".7" d="M158.3 66.4l-2.3 7.1-14-31.8 10.2-.8z"/><path fill="#22130f" fill-opacity=".6" d="M-11.6 72.1l13.7-6 19.5 43.8-13.7 6z"/><path fill="#1b0800" fill-opacity=".6" d="M179.2 11.9L267.5-16 163.2 7.7l5 54.7z"/><path fill="#8b6357" fill-opacity=".4" d="M210.3 122.9l.2-23.6-14.8-64.5 25.1 80.8z"/><path fill="#b38876" fill-opacity=".5" d="M14 0h4v28h-4z"/><path fill="#f7fffb" fill-opacity=".4" d="M34 58.9l37 16.3 1.2-7.2 7.7-.8z"/><path fill="#c9b7ad" fill-opacity=".5" d="M10.2 153.1l6.3-9.7-32.5-35v28.7z"/></g></svg>