<svg xmlns="http://www.w3.org/2000/svg" viewBox="0 0 300 199"><defs/><path fill="#364a2e" d="M0 0h300v199H0z"/><g transform="translate(.6 .6) scale(1.17188)"><circle r="1" fill="#c29fa2" fill-opacity=".6" transform="matrix(33.27871 -17.07935 20.1253 39.21367 100.2 140.2)"/><circle r="1" fill="#c4e8ba" fill-opacity=".5" transform="matrix(31.61784 37.5474 -31.19268 26.26668 245 19.5)"/><circle r="1" fill="#150000" fill-opacity=".3" transform="matrix(-116.46727 -77.91624 26.49343 -39.60172 79.5 45.1)"/><path fill="#ffe5d6" fill-opacity=".4" d="M111.7 210.1L87 215 66.2 108l24.8-5z"/><circle r="1" fill="#eeeef7" fill-opacity=".6" transform="matrix(69.75074 59.07193 -12.41519 14.65956 255 .3)"/><circle r="1" fill="#5f4f51" fill-opacity=".7" transform="rotate(70.4 -37.1 140.3) scale(55.59779 9.0229)"/><circle r="1" fill="#5f7e52" fill-opacity=".6" transform="rotate(138.8 104.4 63.6) scale(21.09664 63.76416)"/><ellipse cx="128" cy="124" fill="#d9c0b9" fill-opacity=".7" rx="11" ry="8"/><path fill="#b5836e" fill-opacity=".6" d="M112.7 113.9L81.9 93.3l12.5-8.5 13.1 2.6z"/><circle r="1" fill="#16000d" fill-opacity=".4" transform="rotate(-16.8 548.5 -31.8) scale(22.95916 45.69801)"/><path fill="#b69e90" d="M96.8 135.9L44.9 123l67.9 26.5 19.2-2.4z"/><path fill="#9ab288" fill-opacity=".5" d="M13.3 95.4l33.4 7.8 2.3-28-5.3 6.3z"/><path fill="#0a0d0e" fill-opacity=".4" d="M164 166l41-56-111 65z"/><path fill="#0c1c2a" fill-opacity=".6" d="M109 106.1l-7.9 32.2 36.7-33.8 15.9 2.8z"/><path fill="#c2c1c1" fill-opacity=".8" d="M76.5 155.3l-11.3 15 37.3 14.7-21.4-63.5z"/><path fill="#647957" fill-opacity=".5" d="M58.8 57.2l-27.4-3-32.6 3.7 36-23.3z"/><circle r="1" fill="#221707" fill-opacity=".5" transform="matrix(4.4599 -.69236 4.96866 32.00585 89.2 86.7)"/><path fill="#252218" fill-opacity=".8" d="M63.4 142.5l-30.8 27.7-34.8-18.8 76.1 8.1z"/><circle r="1" fill="#94765b" fill-opacity=".9" transform="matrix(5.6843 9.6184 -7.1285 4.21282 64.2 127.8)"/><path fill="#121e0d" fill-opacity=".5" d="M214 148l57-14-28 51z"/><ellipse cx="131" cy="162" fill="#fcfff6" fill-opacity=".6" rx="2" ry="15"/><circle r="1" fill="#191b0f" fill-opacity=".5" transform="matrix(-12.19618 16.4249 -46.70968 -34.68392 84.2 50.8)"/><path fill="#94ae81" fill-opacity=".5" d="M-14.7 76.2l26.9-.6 25-5.9L25 64.9z"/><circle r="1" fill="#697c59" fill-opacity=".5" transform="matrix(-28.42431 9.63555 -3.26534 -9.63256 255 117.3)"/><circle r="1" fill="#170d09" fill-opacity=".5" transform="matrix(-29.00596 6.35078 -1.45619 -6.65085 18.3 81)"/><path fill="#677d56" fill-opacity=".4" d="M188 185l10-47 42 47z"/><path fill="#d1e6fc" fill-opacity=".4" d="M113.1 107l-.5 1.5-5-10.8-6.2 22.4z"/><path fill="#9dbf8d" fill-opacity=".5" d="M21.1 92.1l35.1 10.8.7 2.5-.3 4.3z"/><ellipse cx="153" cy="120" fill="#1d1e12" fill-opacity=".5" rx="15" ry="39"/><path fill="#23271a" fill-opacity=".3" d="M231 49.9l-38.2 53.3 60.7 16.4-10.7-15z"/><path fill="#021539" fill-opacity=".4" d="M127.1 151.6l-28.5-2.7 9.8 6.8 22 29.3z"/><path fill="#a3be93" fill-opacity=".5" d="M49.7 88l-52 17.8-1.4-3.7 52-18z"/><path fill="#53724b" fill-opacity=".3" d="M156.7 92.6l55.1-89L222.3 30l-33.7 74.1z"/><path fill="#dbb59f" fill-opacity=".4" d="M123 137l15 1 8 16z"/><path fill="#c89d8d" fill-opacity=".6" d="M77.5 111.2l5.8-14.9 28.6 65.4-10.5 23z"/><path fill="#161806" fill-opacity=".4" d="M170.7 35.4L101-23.1l10.3-12.3L181 23.1z"/><path fill="#161e0e" fill-opacity=".7" d="M134 148h6v22h-6z"/><path fill="#23000c" fill-opacity=".3" d="M17.9 105.3l52.8-.5 3.6-49.5L45 129.6z"/><path fill="#4f5a5d" fill-opacity=".5" d="M19 151l-27-7 13-29z"/><path fill="#5d766e" fill-opacity=".6" d="M143.4 91.7l-15.2-.2 5.5-8.6 12.2 4.9z"/><path fill="#ddfa9c" fill-opacity=".1" d="M159.7 25.5l-16.5 22.1-10-22.8 2.9-5z"/><path fill="#ff8a72" fill-opacity=".2" d="M68.9 100.8l27.4-18.6 7.6.1 7.5 16.5z"/><path fill="#b9b6cb" fill-opacity=".5" d="M63.1 166.7l3.9-6.9-4.2-.9-3.9 1.8z"/><path fill="#99af97" fill-opacity=".7" d="M254.4 14L221.1-1.4 271 56.4 247 9.9z"/><ellipse cy="25" fill="#0a0a0b" fill-opacity=".5" rx="10" ry="36"/><circle r="1" fill-opacity=".5" transform="matrix(.4131 2.27731 -11.934 2.16483 38.3 47.9)"/><path fill="#00020a" fill-opacity=".5" d="M115 138l-9 1 6-14z"/><path fill="#5f7bb8" fill-opacity=".2" d="M42.6 150.7l12.3-57.5 3.1 48.3-10.7 13.3z"/><path fill="#a6c198" fill-opacity=".5" d="M29 50l4 5 16-5z"/><path fill="#cbffcb" fill-opacity=".2" d="M34 37.3L31.7 47 22 44.7l2.3-9.7z"/><path fill="#452216" fill-opacity=".4" d="M123 149l-17 4-17-7z"/><path fill="#25261b" fill-opacity=".9" d="M54.8 135.9l-58.2-8.1L5.9 138l25.9 5.8z"/><path fill="#40473d" fill-opacity=".4" d="M70.7 89.9l-8.2-46.5L43.6 89 13 102.3z"/><path fill="#2d3323" fill-opacity=".4" d="M246.2 81.8l-48.4 96.1-68.6-45.5 15.1-7z"/><path fill="#7b916c" fill-opacity=".5" d="M259.3 80l-17.6 3.7-3-13.7 17.6-3.7z"/><path fill="#181f1b" fill-opacity=".5" d="M153 106l-42-4-2 19z"/><path fill="#29251c" fill-opacity=".7" d="M73.8 151l-9.2 27.3.2-19.5L-16 169z"/><path fill="#caae9a" fill-opacity=".5" d="M134 141l-24-22 19 37z"/><ellipse cx="36" cy="60" fill="#1a1a0e" fill-opacity=".5" rx="27" ry="7"/><path fill="#f5f1f9" fill-opacity=".5" d="M225-1.4l5.2-13L269 1.4l-5.3 13z"/><path fill="#607853" fill-opacity=".5" d="M191 37l-42 13 14-12z"/><circle cx="90" cy="48" r="5" fill="#53655d" fill-opacity=".6"/><path fill="#bdb9bf" fill-opacity=".5" d="M95 110h3v19h-3z"/><path fill="#23231e" d="M93.1 185L8.4 159.2 151 185l-37.9-21.2z"/><path fill="#282f1e" d="M24.2 93.9L87.7 8.8 36 88.1l-8.3 1.7z"/></g></svg>