<svg xmlns="http://www.w3.org/2000/svg" viewBox="0 0 298 450"><defs/><path fill="#573a35" d="M0 0h298v450H0z"/><g transform="translate(.9 .9) scale(1.75781)"><circle r="1" fill="#ebefe8" fill-opacity=".6" transform="matrix(62.68473 -80.24631 59.89108 46.78416 17.4 173)"/><circle r="1" fill="#9e837b" fill-opacity=".7" transform="matrix(32.94896 60.68444 -91.67527 49.7756 156 56)"/><circle r="1" fill="#000c1f" fill-opacity=".7" transform="matrix(93.1237 -68.39067 26.85715 36.56986 133.3 228)"/><circle r="1" fill="#f7dcca" fill-opacity=".5" transform="rotate(19.1 -220.3 65.4) scale(19.16935 32.9793)"/><path fill="#ddecf6" fill-opacity=".7" d="M-38.5 194.5l66.3-19 28.7 100-66.3 19z"/><path fill="#d2e4ff" fill-opacity=".7" d="M173.6 93.5L185 58.8l-28.7 4.9-14.8 94.6z"/><circle r="1" fill="#0f0400" fill-opacity=".5" transform="matrix(-36.69507 13.89369 -4.68943 -12.3854 105.4 71.6)"/><path fill="#060613" fill-opacity=".6" d="M106 128L96 238l61-157z"/><path fill="#102001" fill-opacity=".7" d="M56-16l-72 41 124 10z"/><path fill="#fdd5c0" fill-opacity=".5" d="M100.8 122.5L90.2 98l13.4-33.6 33 42.3z"/><path fill="#8f8373" fill-opacity=".5" d="M27 128h75v88H27z"/><path fill="#010" fill-opacity=".5" d="M12 139l39-10-31 22z"/><circle r="1" fill="#faf3f0" fill-opacity=".6" transform="rotate(86.3 -33.1 68.7) scale(13.77645 21.4625)"/><circle r="1" fill="#d19c85" fill-opacity=".4" transform="matrix(34.91883 20.98135 -11.48745 19.11833 133.8 26.4)"/><path fill="#0b0000" fill-opacity=".4" d="M76 73L53 6 23 85z"/><path fill="#011324" fill-opacity=".6" d="M96 236l79-139v153z"/><path fill="#0c000a" fill-opacity=".5" d="M138 75.7l-26-30.6 45.6 39.8-18.7 51.5z"/><ellipse cx="48" cy="211" fill="#c9ddee" fill-opacity=".4" rx="45" ry="13"/><path fill="#111500" fill-opacity=".6" d="M33 186h19v9H33z"/><path fill="#e7e0ce" fill-opacity=".5" d="M64.4 101.3l14.7 10.3-31.5 45-14.7-10.2z"/><path fill="#501b03" fill-opacity=".3" d="M96.7 111.1l-22.3 52.5-11-4.7 22.2-52.5z"/><path fill="#23130b" fill-opacity=".8" d="M66.9 56.3l5.6 27.3L78 98l16.2-9.2z"/><path fill="#daa18f" fill-opacity=".4" d="M65.2 61.4l29 15.1L88 31.8l-15.4-2.3z"/><path fill="#c1d1ef" fill-opacity=".5" d="M185 45.8l-39.5 74-13.8 30.2 9.5-1.6z"/><path fill-opacity=".6" d="M93 57l32 19 7-20z"/><path fill="#8b6747" fill-opacity=".4" d="M-16 127l12 41 59-4z"/><path fill="#7f6557" fill-opacity=".6" d="M69 208l35-63-5 61z"/><path fill="#e4f4ff" fill-opacity=".5" d="M163 93l22-31-39 9z"/><path fill="#6a5965" fill-opacity=".6" d="M119.8 185l-11.2-75.5 24 67.9-12.2 14.4z"/><circle r="1" fill="#d9baca" fill-opacity=".8" transform="matrix(25.52647 -13.34088 5.2002 9.95008 20.9 120.7)"/><circle r="1" fill="#0e0908" fill-opacity=".5" transform="rotate(43.8 27 109.4) scale(9.65363 64.60555)"/><path fill="#cdb3a4" fill-opacity=".5" d="M101.3 91.8l17 5.5-25.6 79-17-5.6z"/><path fill="#264f11" fill-opacity=".4" d="M0 0h43v50H0z"/><path fill="#1a1200" fill-opacity=".4" d="M63.5 108.6l58.1-65.5-32.1 45.2L58 96.5z"/><ellipse cx="30" cy="178" fill="#bfd0cd" fill-opacity=".6" rx="22" ry="9"/><path fill="#dbc6b8" fill-opacity=".3" d="M37.6 63.1L18.1 36.9 8.8 57.4l9.3 42.9z"/><path fill="#000c16" fill-opacity=".6" d="M47.8 244.7L54 271l71.4-3.5-66.5-36.6z"/><path fill="#d4dade" fill-opacity=".8" d="M23.7 174.5L-16 271l71.8-36.7 1.4 11.2z"/><path fill="#a28795" fill-opacity=".5" d="M83 244h38v3H83z"/><path fill="#4b0400" fill-opacity=".2" d="M136 92.6l-25.3-.3 47.9-41.7-75.3-25.9z"/><path fill="#bfc6da" fill-opacity=".6" d="M175.9 84.8l-19.7 46-1.8-1.7-5.1-40.2z"/><path fill="#482213" fill-opacity=".5" d="M120 8.1l-4.9 5L94-8.1l5-5z"/><path fill="#738c9e" fill-opacity=".5" d="M61.1 228.4l4.6-18.5 36-15.1 4 11.3z"/><path fill="#2f496c" fill-opacity=".4" d="M193.3 138.4l-23.5 32.4-29.1-21.2 23.5-32.4z"/><path fill="#f0dcd3" fill-opacity=".4" d="M85.8 116.3L57.6 131l16-32 8.2-1.4z"/><path fill="#1d2200" fill-opacity=".4" d="M44 127l-19 28-8-11z"/><path fill="#ab7f66" fill-opacity=".5" d="M185 49.2l-33 24.3-54.5-46 27.8 26.9z"/><path fill="#1a0003" fill-opacity=".5" d="M151.2 90l-28.8 68.9 18.8-76.4-10.1-32.9z"/><path fill="#dcc8cd" fill-opacity=".4" d="M44 78h21v17H44z"/><path fill="#3a200f" fill-opacity=".6" d="M32 75.7l-4 .5-2-15.9 4-.5z"/><path fill="#6c3e21" fill-opacity=".4" d="M47 108l9 25-11 1z"/><path fill="#301601" fill-opacity=".5" d="M154 8l-8-8 32-2z"/><circle r="1" fill="#daa18e" fill-opacity=".5" transform="matrix(6.2916 1.95961 -3.30171 10.60059 131.8 95.8)"/><path fill="#c1d3d1" fill-opacity=".6" d="M37.1 158.4l-2.3-5.6 42-21.7-14 16.7z"/><path fill="#0b111b" fill-opacity=".9" d="M150.6 153.1l-37.9 47.7-65.3 48.3L185 194.4z"/><path fill="#101417" fill-opacity=".6" d="M115.3 236.6l-4.8-62.5 4.7-68-16.7 83.5z"/><path fill="#d8aab8" fill-opacity=".9" d="M7.1 107.6l26-2.8 11.4 37.6 5-18.9z"/><path fill="#ca8673" fill-opacity=".3" d="M117.1 37.9L45.5 84.1 60.7 58l30.4 19.9z"/><path fill="#251712" fill-opacity=".9" d="M101.6 26.4l-1.5 17.2-6.5-8.6L54.3 6.9z"/><path fill="#ced7db" fill-opacity=".5" d="M32 228h37v5H32z"/><path fill="#d4f2d9" fill-opacity=".3" d="M-9 98.2l-5.2-110.3L-9.7 127l41.5 16z"/><path fill="#b99788" fill-opacity=".6" d="M107.1 70.1l-39.5 49.7 25.7-10.7 25.6-34.9z"/><ellipse cx="125" cy="64" fill="#000307" fill-opacity=".7" rx="16" ry="7"/><path fill="#1a120a" fill-opacity=".5" d="M36 84l5-62 60-37z"/><path fill="#7a6050" fill-opacity=".7" d="M72.1 125.8l2 14.4-8.8 36.1 26.7-48z"/></g></svg>