<svg xmlns="http://www.w3.org/2000/svg" viewBox="0 0 298 450"><defs/><path fill="#3f5138" d="M0 0h298v450H0z"/><g transform="translate(.9 .9) scale(1.75781)"><circle r="1" fill="#ffebfa" fill-opacity=".6" transform="matrix(-46.26458 -5.353 9.52518 -82.3237 120.8 155.6)"/><circle r="1" fill="#bb817d" fill-opacity=".6" transform="matrix(-41.2032 14.40362 -47.41318 -135.63085 0 184)"/><circle r="1" fill="#7d6962" transform="matrix(-7.70038 100.07537 -20.56176 -1.58214 169 181.2)"/><path fill="#eeedf4" fill-opacity=".6" d="M89 80h36v153H89z"/><ellipse cx="63" cy="26" fill="#949087" fill-opacity=".4" rx="38" ry="59"/><ellipse cx="64" cy="124" fill="#04002a" fill-opacity=".3" rx="29" ry="63"/><circle r="1" fill="#363826" fill-opacity=".6" transform="rotate(141.3 58.4 54.1) scale(32.76136 37.47824)"/><ellipse cx="131" cy="251" fill="#7b5952" fill-opacity=".9" rx="92" ry="20"/><circle cx="148" cy="100" r="31" fill="#c7b69c" fill-opacity=".4"/><circle r="1" fill="#c8cddb" fill-opacity=".6" transform="matrix(17.96685 -7.14988 10.80497 27.15169 135.8 203.3)"/><ellipse cx="49" cy="69" fill="#a5858c" fill-opacity=".8" rx="8" ry="27"/><circle r="1" fill="#3e2517" fill-opacity=".3" transform="matrix(-10.98393 -35.5826 14.2029 -4.38427 160.7 161.6)"/><ellipse cx="29" cy="109" fill="#fff" fill-opacity=".5" rx="4" ry="12"/><path fill="#ddd4c3" fill-opacity=".5" d="M0 93h14v33H0z"/><ellipse cx="153" cy="32" fill="#122208" fill-opacity=".4" rx="47" ry="32"/><path fill="#93a295" fill-opacity=".7" d="M11.9-16l23.3 42.5L65.6-9.8 4.8 10.3z"/><path fill="#936864" fill-opacity=".7" d="M71 157l-2 101 27-4z"/><path fill="#0f082e" fill-opacity=".5" d="M54.2 215L24.5 59.8l51.7 166.3-24.7 13.6z"/><circle r="1" fill="#dab6a5" fill-opacity=".6" transform="matrix(9.09915 -16.99419 7.4794 4.00468 97.9 91.1)"/><path fill="#968a70" fill-opacity=".6" d="M8.7 31.5l2.6 50-20 1-2.6-50z"/><path fill="#cfbcaf" fill-opacity=".8" d="M135 97h35v27h-35z"/><circle r="1" fill="#282300" fill-opacity=".3" transform="matrix(13.57858 -9.3323 20.38901 29.6662 64.2 53)"/><path fill="#06031a" fill-opacity=".5" d="M82.5 83.4l6.7 42.5-29.7 4.7L52.8 88z"/><path fill="#180100" fill-opacity=".5" d="M138 77.2l-6.9 2.2L120 44.8l-7.7 39.9z"/><path fill="#000021" fill-opacity=".6" d="M17 90l-2 26 24 29z"/><path fill="#000101" fill-opacity=".3" d="M129.8 249.9l-5.4-39.5-4.3 23.2-47.2 2.6z"/><circle r="1" fill="#92a693" fill-opacity=".5" transform="matrix(-16.39982 -21.24198 5.18271 -4.0013 85.2 25)"/><path fill="#b09d98" fill-opacity=".5" d="M90.6 183.8l-7.5 18.9-10.2-98L96 152.1z"/><path fill="#a27c8b" fill-opacity=".7" d="M43.6 133l.6 6.6 9.4-12.7-3.2-8.6z"/><path fill="#344e23" fill-opacity=".4" d="M130 80h40v17h-40z"/><ellipse cx="44" cy="73" fill="#e8f4ff" fill-opacity=".6" rx="3" ry="12"/><path fill="#edf6ff" fill-opacity=".3" d="M106 113L87 235l34-6z"/><path fill="#252f39" fill-opacity=".6" d="M19 40h22v58H19z"/><path fill="#879ea4" fill-opacity=".3" d="M139.4 65.4l-14.8 8.2 33.2 13.6 8.6-17.9z"/><circle r="1" fill="#a6b6a3" fill-opacity=".5" transform="rotate(105.9 8.2 24.9) scale(11.39524 9.10302)"/><path fill="#1d2524" fill-opacity=".6" d="M25 107.9l7.1-23.2L-16 96.6V49z"/><path fill="#020000" fill-opacity=".5" d="M50.5 92l-3-23.8 2-.2 3 23.8z"/><path fill="#8f5448" fill-opacity=".6" d="M120.1 63.8l-6.5-1.2-12.3 5.5 9.6 16.5z"/><circle r="1" fill="#e2e3e9" fill-opacity=".5" transform="matrix(11.33799 -8.66855 14.85525 19.42986 114.9 125.4)"/><ellipse cx="95" cy="116" fill="#c6b8b1" fill-opacity=".6" rx="6" ry="40"/><ellipse cx="56" cy="158" fill="#000729" fill-opacity=".4" rx="15" ry="29"/><path fill="#c68775" fill-opacity=".5" d="M41 53l22-14-1 14z"/><path fill="#a3a18e" fill-opacity=".6" d="M-16 137l43-2-32-47z"/><path fill="#b5897d" fill-opacity=".6" d="M127 156l18-47 1 54z"/><ellipse cx="93" cy="26" fill="#fff" fill-opacity=".7" rx="2" ry="4"/><path fill="#59433b" fill-opacity=".5" d="M159 133h11v101h-11z"/><path fill="#a1aea9" fill-opacity=".9" d="M5.5 4.8l15 1L24.3-16l-26 6.2z"/><path fill="#4a593d" fill-opacity=".8" d="M102.8 51.4l14.4-23.3 16 63.1-3.7-43.6z"/><path fill="#030f05" fill-opacity=".4" d="M185 37l-48.1 34 6.2-36.9 31.9-10z"/><circle r="1" fill="#836a57" fill-opacity=".9" transform="matrix(18.62418 -20.5038 22.39668 20.34354 12.6 165.2)"/><path fill="#deeea1" fill-opacity=".1" d="M158.2 16.7L-6.3-16 185 15.9 86.8 47.2z"/><path fill="#47573f" fill-opacity=".8" d="M47 29.9l42.1-4.1L82.8 38 43.2 5.2z"/><path fill="#341b11" fill-opacity=".6" d="M66.6 37.6L38.3 48.2l.9-7.2 2.5-6z"/><path fill="#171922" fill-opacity=".6" d="M28 140.7L90.8 75l-1.4 20.8-14.3-25.9z"/><path fill="#8b553a" fill-opacity=".4" d="M75 133l12 5-11 36z"/><path fill="#bebfc6" fill-opacity=".6" d="M150.9 180l-29.5-35.2 9.7 89.1 17.6-7.7z"/><path fill="#161c2b" fill-opacity=".7" d="M69.3 161.8l-49.9-33.1 12.4-56.9-18.9 31.7z"/><ellipse cx="59" cy="185" fill="#28385a" fill-opacity=".5" rx="6" ry="40"/><path fill="#ffebd6" fill-opacity=".3" d="M-6.6 23l.1 14.8L-16 42l30.7 1.1z"/><path fill="#13162b" fill-opacity=".5" d="M61.4 128.2L42 154.4l43.8-32.2-67.2-37z"/><path fill="#382318" fill-opacity=".8" d="M63.8 215.2L68 229l-8.9 13.4-9-15.2z"/><path fill="#0e180c" fill-opacity=".5" d="M165 54h5v42h-5z"/><path fill="#b0bac9" fill-opacity=".4" d="M99 160.8l-1.5-45.6L82.3 157l6.3 86.7z"/><path fill="#2c1100" fill-opacity=".1" d="M132.8 96.4l1.8 34 50.4 39.4-72.7-75.7z"/><path fill="#49563d" fill-opacity=".6" d="M22 80.4L5.7 59.1l33.6-39.2-47.4 34.8z"/></g></svg>