<svg xmlns="http://www.w3.org/2000/svg" viewBox="0 0 300 199"><defs/><path fill="#513b2b" d="M0 0h300v199H0z"/><g transform="translate(.6 .6) scale(1.17188)"><circle r="1" fill="#e0d0bb" fill-opacity=".4" transform="rotate(-17.8 561.9 -484.9) scale(61.23254 129.72216)"/><circle r="1" fill="#070b0b" fill-opacity=".8" transform="matrix(-58.79992 -6.59547 6.39186 -56.98473 49.3 124)"/><circle r="1" fill="#51463c" fill-opacity=".9" transform="rotate(84.3 52 162.2) scale(18.74836 66.7464)"/><circle r="1" fill="#f6d0ac" fill-opacity=".5" transform="matrix(-43.0552 -8.72739 4.78068 -23.58472 165 139.8)"/><circle r="1" fill="#7b6858" transform="matrix(-7.32902 23.104 -15.38209 -4.87949 113.3 152)"/><ellipse cx="132" cy="77" fill="#fffff6" fill-opacity=".4" rx="41" ry="9"/><circle r="1" fill="#303b33" fill-opacity=".5" transform="rotate(-16.3 195.8 -439) scale(126.95789 20.34812)"/><circle r="1" fill="#aa8b77" fill-opacity=".5" transform="matrix(-10.39257 -45.74309 8.77612 -1.99389 230.5 102)"/><ellipse cx="255" cy="18" fill="#d3fa9a" fill-opacity=".6" rx="15" ry="12"/><path fill="#a1998f" fill-opacity=".5" d="M13.9 157.7l16.7 8.1 3.1-30.3-36.3 29.2z"/><circle r="1" fill-opacity=".6" transform="matrix(-6.09504 -16.56583 8.41559 -3.09633 196.8 100.9)"/><path fill="#d9dd8b" fill-opacity=".5" d="M72 24L94 6l-2 24z"/><circle r="1" fill="#1a1802" fill-opacity=".7" transform="matrix(10.01926 -2.08428 12.05979 57.97207 31.4 43)"/><circle r="1" fill="#c7bdbc" fill-opacity=".6" transform="matrix(19.00165 -8.47385 4.8496 10.87469 129.7 114.6)"/><ellipse cx="111" cy="4" fill="#03090d" fill-opacity=".5" rx="21" ry="26"/><circle r="1" fill="#b47d4b" fill-opacity=".4" transform="matrix(-3.76043 -15.69164 140.61634 -33.69804 239.3 155.4)"/><circle r="1" fill="#000004" fill-opacity=".8" transform="matrix(24.01686 -.79672 3.01038 90.7469 71.2 166)"/><path fill="#bf9979" fill-opacity=".6" d="M104 185l-9-51 20 3z"/><path fill="#64706b" fill-opacity=".5" d="M157-2l80 87-104-53z"/><path fill="#040203" fill-opacity=".4" d="M157 32.8l64.8 7.9L157.2-16h54.9z"/><path fill="#000606" fill-opacity=".6" d="M223 67l27-42 4 33z"/><path fill="#9c8d50" fill-opacity=".4" d="M227.4-12.9l12.5 60.4-20.1 5.7 2.5-19.6z"/><circle r="1" fill="#f2d2ad" fill-opacity=".3" transform="rotate(-35.8 315 -164.3) scale(31.96662 16.30055)"/><ellipse cx="156" cy="55" fill="#69a7dc" fill-opacity=".4" rx="44" ry="6"/><path fill="#b0c2bf" fill-opacity=".5" d="M222 68h11v23h-11z"/><path fill="#17360d" fill-opacity=".5" d="M198 84l25 37-3-50z"/><path fill="#1a191c" fill-opacity=".8" d="M106 144.6l7.1-13.2L68.7 29.2l39.4 116.1z"/><path fill="#000a16" fill-opacity=".4" d="M109.3 164.5l17.5.2-8-58.1-1.5 38.5z"/><ellipse cx="177" cy="79" fill="#fff4e7" fill-opacity=".3" rx="20" ry="4"/><path fill="#9d8263" fill-opacity=".5" d="M89.8 55.1l-3.2-11.6L126.2 33l3.2 11.6z"/><path fill="#997767" fill-opacity=".7" d="M222.8 135l7.8-26.3 40.4 19.2-50.6-48.7z"/><circle r="1" fill="#68534f" fill-opacity=".7" transform="rotate(-154.4 64.2 33.9) scale(17.48747 8.36705)"/><ellipse cx="77" fill="#030f0b" fill-opacity=".6" rx="32" ry="10"/><path fill="#d9ba99" fill-opacity=".5" d="M215 117l-100 25 110 8z"/><path fill="#8a2200" fill-opacity=".3" d="M152.7 76.2l59.6-16.5-82.9 1.8-23.1-3.1z"/><path fill="#b29285" fill-opacity=".5" d="M44 7l-9 21 15 8z"/><path fill="#f2eff4" fill-opacity=".5" d="M221 39h2v50h-2z"/><path fill="#867e68" fill-opacity=".5" d="M-16 138l30-17-27-12z"/><path fill="#ffc087" fill-opacity=".4" d="M158.8 20.5L173 9.1l-3 12.4-6.4 8.4z"/><path fill="#150900" fill-opacity=".4" d="M164.9 30.9l-9.2-14.8 1.8 41.7 3.9-4.7z"/><path fill="#171814" fill-opacity=".7" d="M250.8 84.1l9.1 8.4-26.7-4 1.1-15.1z"/><path fill="#b0917c" fill-opacity=".6" d="M14 10h4v46h-4z"/><ellipse cx="193" cy="106" fill="#000001" fill-opacity=".5" rx="28" ry="5"/><path fill="#311607" fill-opacity=".5" d="M173.2 72.4l5 .2-1.4 25-5-.2z"/><path fill="#bd9888" fill-opacity=".6" d="M177.1 69.8l20.5-6-22 38.7 11.5-4.1z"/><path fill="#fcffff" fill-opacity=".5" d="M19 68l10 2v-5z"/><path fill="#1a0500" fill-opacity=".5" d="M239 125l-6-14 35 18z"/><path fill="#70725c" fill-opacity=".3" d="M19 142h29v28H19z"/><path fill="#030402" fill-opacity=".7" d="M20 120l15 28 62-91z"/><path fill="#a9adae" fill-opacity=".6" d="M151 35l-25 2 31-15z"/><path fill="#676a54" fill-opacity=".4" d="M51 67h27v12H51z"/><path fill="#010c00" fill-opacity=".5" d="M27.6 26.1L-1.6 96.4l6.9-2.6L33 48.9z"/><path fill="#8f6e66" fill-opacity=".4" d="M162.9 65.4l-21 57.3 39.9 2.7-37.9-39.5z"/><path fill="#f8ead9" fill-opacity=".4" d="M98 69l17-7 13 22z"/><path fill="#adb2b6" fill-opacity=".5" d="M108 20.5l13.8 32.2-1.9.8-13.7-32.2z"/><path fill="#3c2d2b" fill-opacity=".4" d="M85.5 98.8l5.7-38.5 13.1-21.1L118.2 54z"/><path fill="#140b0a" fill-opacity=".6" d="M256 1l-53 10 22-27z"/><path fill="#78a02d" fill-opacity=".5" d="M244.3 7.5l-14.8 24.8 41.5 4.4-28.9-13.8z"/><path fill="#000e12" fill-opacity=".5" d="M220 38.6l-.1 11.4-17.4 8.7-2.7-12z"/><path fill="#996a58" fill-opacity=".5" d="M-8.7 14.1l17-1.2 2.4 35-17 1.2z"/><circle cx="24" cy="147" r="5" fill="#ffebf8" fill-opacity=".3"/><path fill="#5f7a7c" fill-opacity=".5" d="M271 92.5l-42.2-23.7 16.8-2.9L271 75z"/><path fill="#726e31" fill-opacity=".6" d="M66.9 43.3l22-7.4L90 23.5l-23.4-4.3z"/><path fill="#1d0f0c" fill-opacity=".7" d="M209.9 119.8L197.5 83 181 87.1l23.6 31.7z"/><path fill="#cdceda" fill-opacity=".5" d="M207 110h10v11h-10z"/></g></svg>