<svg xmlns="http://www.w3.org/2000/svg" viewBox="0 0 300 199"><defs/><path fill="#4d3623" d="M0 0h300v199H0z"/><g transform="translate(.6 .6) scale(1.17188)"><circle r="1" fill="#b6b5ae" fill-opacity=".7" transform="matrix(-82.19444 -28.6402 40.1293 -115.16701 161.7 98.7)"/><ellipse cx="103" cy="154" fill="#cfdcf0" fill-opacity=".5" rx="23" ry="113"/><ellipse cx="65" cy="84" fill="#69594d" fill-opacity=".8" rx="20" ry="93"/><circle r="1" fill="#766a57" fill-opacity=".7" transform="matrix(16.21524 -197.22977 32.87401 2.70274 244.7 88.7)"/><path fill="#322118" fill-opacity=".5" d="M95 76h17v49H95z"/><path fill="#5e432e" fill-opacity=".7" d="M62.1-2.8L127-16l4.1 65.1-96.8-6.8z"/><path fill="#fff" fill-opacity=".5" d="M83 43h38v21H83z"/><circle r="1" fill="#311302" fill-opacity=".6" transform="matrix(5.6217 -87.78871 27.2922 1.7477 15.8 148.9)"/><ellipse cx="126" cy="75" fill="#623f29" fill-opacity=".7" rx="5" ry="55"/><ellipse cx="57" cy="66" fill="#c0d8e7" fill-opacity=".6" rx="4" ry="20"/><circle cx="144" cy="70" r="8" fill="#140700" fill-opacity=".6"/><circle r="1" fill="#d1c5af" fill-opacity=".3" transform="matrix(29.2318 44.50116 -21.02594 13.81146 141 14)"/><path fill="#000516" fill-opacity=".5" d="M104.5 54.2l3.6 21.2-14.2 7.2 2.4 54.2z"/><path fill="#fff" fill-opacity=".4" d="M96 164l-4-82-15 63z"/><path fill="#2e1b12" fill-opacity=".6" d="M40 64h83v3H40z"/><path fill="#120700" fill-opacity=".5" d="M138 92h14v17h-14z"/><path fill="#92d0ff" fill-opacity=".1" d="M45.6 110.1L146 168.6 41.1 185l4.3-5.6z"/><ellipse cx="118" cy="124" fill="#ecf1f2" fill-opacity=".6" rx="4" ry="58"/><path fill="#482f20" fill-opacity=".6" d="M54 79h70v4H54z"/><circle r="1" fill="#1a180e" fill-opacity=".6" transform="matrix(4.78873 .54682 -3.37399 29.54737 54.6 22.7)"/><path fill="#b1a395" fill-opacity=".5" d="M100 83h17v52h-17z"/><ellipse cx="73" cy="94" fill="#5f3b25" fill-opacity=".6" rx="8" ry="46"/><circle r="1" fill="#eae8e5" fill-opacity=".8" transform="rotate(-124.6 66.5 12.8) scale(4.3273 8.33118)"/><path fill="#361d05" fill-opacity=".5" d="M69 47.9v-1l52-2.8v1z"/><circle r="1" fill="#4f5351" fill-opacity=".3" transform="rotate(-102.4 166 2.5) scale(21.93523 75.63997)"/><path fill="#57473c" fill-opacity=".4" d="M115 111.9l.9 14.8-10.4 18.6-1.4-18z"/><ellipse cx="82" cy="78" fill="#fff8f0" fill-opacity=".5" rx="1" ry="37"/><path fill="#fff" fill-opacity=".5" d="M87 48h35v16H87z"/><path fill="#d8ebfb" fill-opacity=".5" d="M104 142l-2-40-11 45z"/><path fill="#796e5f" d="M45.8 73.8l.1 3.3 15.5-3.9-6.6 75.2z"/><circle cx="112" cy="72" r="6" fill="#fff" fill-opacity=".6"/><path fill-opacity=".5" d="M94 85l3 21 8-11z"/><path fill="#574a37" fill-opacity=".8" d="M151.5 62.1l22.3-.2-2.3 2.3-38.5 4.3z"/><ellipse cx="92" cy="30" fill="#52311c" fill-opacity=".5" rx="39" ry="12"/><circle r="1" fill="#a79884" fill-opacity=".3" transform="rotate(-142.3 111.6 9.3) scale(36.42019 49.11583)"/><path fill-opacity=".5" d="M84 67h4v13h-4z"/><ellipse cx="95" cy="6" fill="#7f7464" fill-opacity=".4" rx="36" ry="8"/><circle r="1" fill="#7d6753" fill-opacity=".4" transform="matrix(-79.16356 -181.72686 16.5443 -7.207 216.3 0)"/><circle r="1" fill="#4a2c18" fill-opacity=".7" transform="matrix(-18.4289 -10.76027 21.04341 -36.04061 25.4 63.9)"/><path fill="#fafdfa" fill-opacity=".6" d="M86 85h8v64h-8z"/><path fill="#fff" fill-opacity=".5" d="M113 83h8v17h-8z"/><circle r="1" fill="#4b362b" fill-opacity=".4" transform="rotate(-174.3 53.6 19) scale(1 39.30122)"/><path fill="#5e422e" fill-opacity=".7" d="M105 120.3H80.9L67.2-3.7l-8.6 128.8z"/><path fill="#f6f0f5" fill-opacity=".5" d="M97 82l5 6 15-2z"/><ellipse cx="84" cy="67" fill="#4c3c33" fill-opacity=".7" rx="1" ry="55"/><path fill="#f7f9f3" fill-opacity=".5" d="M119 83h4v60h-4z"/><path fill="#b7d1e8" fill-opacity=".5" d="M58 71l4-25-9 1z"/><path fill="#b1cff7" fill-opacity=".4" d="M126 124l-25 61 29-26z"/><path fill="#fff" fill-opacity=".6" d="M89 68h12v10H89z"/><path fill-opacity=".4" d="M92.6 121.8l.2-1 14.6 3.4-.2 1z"/><path fill="#4c3928" fill-opacity=".4" d="M62 100h71v2H62z"/><path fill="#aca9a1" fill-opacity=".6" d="M132 7h11v59h-11z"/><ellipse cx="119" cy="1" fill="#9c7652" fill-opacity=".5" rx="11" ry="28"/><path fill="#1d0700" fill-opacity=".5" d="M102 66h5v12h-5z"/><circle r="1" fill="#240f03" fill-opacity=".5" transform="matrix(-22.74746 -16.43442 14.05167 -19.44941 17 162)"/><path fill="#8a90a5" fill-opacity=".5" d="M72.8 166l9.9-57.2 1.7 73.1-4.7 3.1z"/><path fill="#2e2322" fill-opacity=".6" d="M120.1 82.4l-1-.3 4.8-22.5 1 .3z"/><circle r="1" fill="#5c4232" fill-opacity=".7" transform="matrix(-3.20234 .42728 -2.32902 -17.45517 128 110.7)"/><path fill="#98948d" fill-opacity=".6" d="M173.3 78l18 14-40.6 52-18-14z"/><circle r="1" fill="#90806e" fill-opacity=".4" transform="matrix(17.28863 .849 -3.90036 79.4251 213.7 86)"/><path fill="#2e1a08" fill-opacity=".3" d="M52 13h59v11H52z"/><path fill="#a2a59e" fill-opacity=".4" d="M161 96l-29-12 48-18z"/><path fill="#360c00" fill-opacity=".4" d="M105 99l6-9-1-9z"/><path fill="#dbb795" fill-opacity=".4" d="M81 42h43v3H81z"/><ellipse cx="100" cy="66" fill="#030000" fill-opacity=".3" rx="19" ry="2"/></g></svg>