<svg xmlns="http://www.w3.org/2000/svg" viewBox="0 0 300 199"><defs/><path fill="#444344" d="M0 0h300v199H0z"/><g transform="translate(.6 .6) scale(1.17188)"><ellipse cx="224" cy="50" fill="#fff" fill-opacity=".7" rx="31" ry="28"/><circle r="1" fill="#ebeceb" fill-opacity=".6" transform="matrix(10.65552 43.32638 -18.87233 4.64139 10.5 120)"/><path fill="#030303" fill-opacity=".7" d="M195.5 68.8L122.2 156 42.5 89.2 115.8 2z"/><circle r="1" fill="#f2f3f2" fill-opacity=".5" transform="matrix(-14.84127 4.56253 -12.81694 -41.69168 183.6 150.9)"/><circle r="1" fill="#dee0de" fill-opacity=".5" transform="matrix(15.28895 -4.83055 17.8543 56.5099 71.3 163)"/><circle r="1" fill-opacity=".7" transform="rotate(-84 22 -3.6) scale(67.8761 23.37477)"/><ellipse cx="223" cy="104" fill-opacity=".6" rx="37" ry="27"/><path fill="#8e8e8e" fill-opacity=".8" d="M43.3 42.6l15.1 42.1L75.3 45l-7.9-32.8z"/><ellipse cx="138" cy="169" fill="#0d0d0d" fill-opacity=".9" rx="27" ry="81"/><path fill="#fff" fill-opacity=".5" d="M92 68L82 89l5 27z"/><circle r="1" fill="#c0c1c0" fill-opacity=".6" transform="matrix(24.38368 -8.9124 3.89126 10.64623 162 4.9)"/><path fill="#2f2f2f" d="M249 87l-8-45 14 28z"/><ellipse cx="253" cy="142" fill="#acadac" fill-opacity=".5" rx="12" ry="26"/><path fill="#818181" d="M198.3 184l14.6-11.7-2.8-47-4.4-19.6z"/><path fill-opacity=".7" d="M255.5 41.2l-54.8-70.1 15.8-12.3 54.8 70.1z"/><ellipse cx="234" cy="134" fill-opacity=".7" rx="7" ry="55"/><path fill="#f9f9f9" fill-opacity=".6" d="M240.2 74.5l-32.9 2.9-3.5-39.9 32.9-2.9z"/><circle cx="27" cy="155" r="8" fill="#f4f4f4" fill-opacity=".6"/><circle r="1" fill="#fff" fill-opacity=".6" transform="matrix(11.82382 14.09108 -7.00304 5.87625 5.3 92.2)"/><path fill="#656565" d="M247.6 56.1L211.9-16l2.8 54.7 19.2-19.2z"/><path fill="#aaa" fill-opacity=".8" d="M158.6 122.9l4-22.2 31.1 20.3-11.5 19.7z"/><path fill-opacity=".5" d="M46 0h40v28H46z"/><circle r="1" fill="#0b0b0b" fill-opacity=".5" transform="matrix(-91.77643 98.45631 -8.8897 -8.28657 171.4 44)"/><circle r="1" fill="#7d7d7d" fill-opacity=".8" transform="matrix(-9.24638 .04841 -.07208 -13.76566 54.9 105.5)"/><circle r="1" fill="#797979" fill-opacity=".7" transform="matrix(-7.58731 -3.25004 28.50413 -66.54368 0 169)"/><ellipse cx="37" cy="92" fill="#222322" fill-opacity=".6" rx="11" ry="52"/><path fill="#7d7d7d" fill-opacity=".9" d="M244.3 45.2l26.7 9.1V39.6l-15.8 43.6z"/><path fill="#666" fill-opacity=".8" d="M174.9-16l19.9 79.4 15.6-9.8-12.7 38.3z"/><path fill="#070807" fill-opacity=".7" d="M157.1 84.3l38.1 17.8-6.3 13.6-38.1-17.8z"/><path fill="#0c0c0c" fill-opacity=".7" d="M156.4 40.9l-21.1-29.4-63.6 15.9 43.3 99.7z"/><path fill="#d6d7d6" fill-opacity=".5" d="M106 146l-18 1 9-14z"/><path fill="#9c9d9c" fill-opacity=".6" d="M226 114l3 .3-5 47.7-3-.3z"/><path fill="#8f8f8f" fill-opacity=".7" d="M167.2 185l-.6-40.3 57.1 19.8 33.5 10.2z"/><path fill-opacity=".6" d="M212 81h9v76h-9z"/><path fill="#f9f9f9" fill-opacity=".4" d="M187 56l24-30 28 23z"/><path fill="#cacbca" fill-opacity=".5" d="M64 9h7v32h-7z"/><circle r="1" fill="#5d5d5d" fill-opacity=".6" transform="matrix(15.96799 -14.08574 10.44211 11.83747 176 11.9)"/><path fill="#b9b9b9" fill-opacity=".3" d="M190.6 92.8l-22.3-13.9 6.2 12.9 7.6 7.7z"/><circle r="1" fill-opacity=".6" transform="matrix(4.39632 15.51177 -4.03076 1.1424 198.2 132.7)"/><path fill="#0f0f0f" fill-opacity=".7" d="M96.4 138.9L41 52.3l39.7 88.9 41.2-21.6z"/><circle r="1" fill="#6c6c6c" fill-opacity=".6" transform="rotate(-5.7 1455.6 -434.6) scale(9.62788 35.95438)"/><ellipse cx="92" fill="#d9dbd9" fill-opacity=".4" rx="4" ry="23"/><ellipse cx="50" cy="45" fill="#959695" fill-opacity=".4" rx="13" ry="16"/><path fill="#dbdbdb" fill-opacity=".4" d="M131.8 7.5l22.5 16.1-12.8-4.1L167.2-1z"/><path fill="#0d0d0d" fill-opacity=".9" d="M261.2 121.4l-14.1-51.3-13.7 8.2-42.1 14.8z"/><ellipse cx="162" cy="53" fill="#171717" fill-opacity=".5" rx="29" ry="25"/><ellipse cx="5" cy="161" fill="#7c7c7c" fill-opacity=".6" rx="22" ry="9"/><path fill="#3e3e3e" fill-opacity=".9" d="M101-16l-3 38 82-38z"/><path fill="#f9f9f9" fill-opacity=".5" d="M22 129h8v19h-8z"/><path fill="#0d0d0d" fill-opacity=".4" d="M71.7 42l-11.1 7.1 108.9 95.4-42.3-118.9z"/><circle r="1" fill="#ccc" fill-opacity=".5" transform="rotate(-84 91.3 -9.1) scale(10.67106 2.29893)"/><path fill="#989898" fill-opacity=".8" d="M215 140l-57 45 19-36z"/><path fill="#222" d="M187.2 58.1L197 92l-28.6-11.3L165 45z"/><path fill="#0c0c0c" fill-opacity=".8" d="M1.4-16l-6.7 92.8 59.4-12.7L52 92.4z"/><path fill="#b4b4b4" fill-opacity=".7" d="M65.9 38.5l-20.1 1.3L71.2 27l5.4 11.7z"/><path fill="#1d1d1d" fill-opacity=".5" d="M193.8 11.1l39 20.8-17.7-6.1-53.5 20z"/><circle cx="66" cy="60" r="5" fill="#e9e9e9" fill-opacity=".4"/><path fill="#fff" fill-opacity=".5" d="M237.6 22l11.5 11.1-2.7 2.9-11.5-11.1z"/><path fill="#8e8e8e" fill-opacity=".6" d="M227 6.7l2.5 10.7-16.5 3.9-2.5-10.7z"/><circle r="1" fill="#a1a0a1" fill-opacity=".5" transform="rotate(-103.3 100.4 48.8) scale(30.39807 11.01161)"/><path fill="#111" fill-opacity=".9" d="M113.4 185l-7.7-30.7-12.6-6.9L185 185z"/><path fill="#fff" fill-opacity=".1" d="M201 102.7l9.6 13.1-48.5 9.2-10.2-13.8z"/><path fill="#8b8b8b" fill-opacity=".7" d="M192 58.4l4-.5 4 31.7-4 .5z"/><path fill="#cacaca" fill-opacity=".7" d="M226.2 79.1l-21.6-2.6 2.4-31.4 1.8 4.3z"/><path fill="#999" fill-opacity=".6" d="M57.6 86.6l8.2 25.7 19.8 40.5L57 115.4z"/></g></svg>