<svg xmlns="http://www.w3.org/2000/svg" viewBox="0 0 300 199"><defs/><path fill="#50442f" d="M0 0h300v199H0z"/><g transform="translate(.6 .6) scale(1.17188)"><circle r="1" fill="#ffcbbe" fill-opacity=".4" transform="matrix(23.49688 53.48182 -78.34673 34.42111 195.3 106.4)"/><path fill="#fe986a" fill-opacity=".3" d="M-16 131L32-16l55 201z"/><circle r="1" fill="#a3ced1" fill-opacity=".7" transform="matrix(12.70544 -9.52104 19.71382 26.30729 87.4 4.8)"/><ellipse cx="213" cy="144" fill="#191511" fill-opacity=".8" rx="11" ry="35"/><circle r="1" fill="#ecf5ff" fill-opacity=".4" transform="matrix(18.87687 -25.8413 20.75782 15.16343 227.7 84.6)"/><circle r="1" fill-opacity=".6" transform="matrix(11.5046 -1.28123 9.99456 89.74447 86.1 127.3)"/><path fill="#d3dee9" fill-opacity=".4" d="M144 98L85 81l58-16z"/><circle r="1" fill="#f7d0da" fill-opacity=".6" transform="matrix(7.19401 .87521 -8.1166 66.71632 231.7 138.5)"/><circle r="1" fill="#0d1117" fill-opacity=".5" transform="matrix(-92.81586 43.64179 -5.78716 -12.30793 125.7 31.9)"/><circle r="1" fill="#975f4f" fill-opacity=".8" transform="matrix(24.50901 11.2211 -18.06415 39.45553 32 14.3)"/><circle cx="255" cy="52" r="14" fill="#ebe4db" fill-opacity=".7"/><circle r="1" fill="#412e00" fill-opacity=".4" transform="matrix(-14.70796 -18.82897 33.87752 -26.46291 221 30.4)"/><circle r="1" fill="#743f2c" fill-opacity=".4" transform="matrix(-5.35608 -15.93275 46.44892 -15.61465 138.6 131.3)"/><path fill="#fcc7ba" fill-opacity=".4" d="M140.9 100.3l8.6-72.6-16.9 20 2.2 42.7z"/><path fill="#fec319" fill-opacity=".5" d="M239.7-13.8L200.5 8.1l1.6 11.4 12.9-3.7z"/><path fill="#c09d90" fill-opacity=".6" d="M95.2 104l-8.3-20.4 14-5.6 8.2 20.4z"/><circle r="1" fill="#c0ac99" fill-opacity=".4" transform="matrix(-6.5957 1.0677 -6.30562 -38.95317 65.2 116.4)"/><path fill="#111112" fill-opacity=".7" d="M63.7 97l12.1-59.7 59.7 44.4-4.9-37.3z"/><path fill="#d4b5a4" fill-opacity=".5" d="M150 138l39 43 4-53z"/><path fill="#2a2521" fill-opacity=".6" d="M200 109h24v48h-24z"/><circle r="1" fill="#8c5844" fill-opacity=".6" transform="matrix(7.71305 -12.4026 29.29925 18.2209 120.7 157.5)"/><ellipse cx="112" cy="111" fill="#2b262e" fill-opacity=".4" rx="14" ry="31"/><path fill="#c9caca" fill-opacity=".7" d="M110.1 93.5L98.5 81.1l1.2 3.2 18.2 37.4z"/><path fill="#878189" fill-opacity=".7" d="M77.4 31L66.9 46.5l-7.9 47 .9 2z"/><path fill="#650000" fill-opacity=".3" d="M239 185l14-116 18 81z"/><circle r="1" fill="#9c6f39" fill-opacity=".6" transform="matrix(-19.15235 15.29281 -15.6841 -19.64238 185.2 58.7)"/><path fill="#f3e4de" fill-opacity=".5" d="M184 57l-5 42-7-41z"/><circle r="1" fill="#7f4c24" fill-opacity=".7" transform="rotate(171.9 1.7 66.4) scale(14.5154 143.97201)"/><circle r="1" fill="#2b1f0c" fill-opacity=".7" transform="matrix(3.21298 -12.33483 55.58308 14.4783 171.6 16)"/><path fill="#a6cdfb" fill-opacity=".3" d="M85.7 36.7l17.5-6.5 20.5-37.3-41.6 29.7z"/><path fill="#b8c2b8" fill-opacity=".6" d="M45 0h8v25h-8z"/><path fill="#dcbaa0" fill-opacity=".6" d="M167 109l47-35-70 26z"/><ellipse cx="50" cy="142" fill="#9b7758" fill-opacity=".6" rx="25" ry="60"/><circle r="1" fill="#1c2423" fill-opacity=".6" transform="matrix(4.20534 -8.91798 13.52742 6.37896 48.5 72.3)"/><circle r="1" fill="#161504" fill-opacity=".5" transform="matrix(9.67367 14.61533 -36.37437 24.07567 255 5.1)"/><path fill="#a6381a" fill-opacity=".4" d="M173 90l-37-42 17 50z"/><path fill="#dad2d2" fill-opacity=".7" d="M209.6 57.2l-11.2 37.9 41.7-16.6 5.2 42z"/><path fill="#0f3a65" fill-opacity=".5" d="M54 15h28v24H54z"/><path fill="#ffd" fill-opacity=".5" d="M144 7h7v5h-7z"/><path fill="#6b3b15" fill-opacity=".4" d="M189.3 105.4l28.2-7.7-34.1-10.2 37.7-74.1z"/><circle r="1" fill="#bd7a3a" fill-opacity=".5" transform="matrix(30.7982 8.749 -3.3132 11.66314 19.3 81)"/><path fill="#060000" fill-opacity=".5" d="M110 104.9l7.6 55.3-26-57.6L72.8 185z"/><path fill="#312a1c" fill-opacity=".8" d="M94.5-6.7l7.1 15.6L134.5-16l16.1 38.3z"/><path fill="#0a1e11" fill-opacity=".6" d="M90.6 31.4h-1l-4.2-48.8h1z"/><circle r="1" fill="#d0d5d5" fill-opacity=".5" transform="matrix(-21.95726 -9.82281 1.42359 -3.1822 124.7 83.7)"/><path fill="#2d2b2b" fill-opacity=".7" d="M119.1 118.2l5.9-33.8-19.7.4 17.1 38z"/><path fill="#330703" fill-opacity=".5" d="M160.7 34.6l4.6 15.3-11.9 20.7-7.2-25.7z"/><path fill="#7e896e" fill-opacity=".5" d="M215 48h18v28h-18z"/><ellipse cx="198" cy="169" fill="#916344" rx="6" ry="28"/><path fill="#f3ffbd" fill-opacity=".6" d="M83 0h4v29h-4z"/><circle r="1" fill="#f5f0ed" fill-opacity=".5" transform="matrix(-1.19295 -2.22485 5.57253 -2.98796 57.3 85.5)"/><ellipse cx="229" cy="115" fill="#ece2e4" fill-opacity=".7" rx="4" ry="30"/><path fill="#162637" fill-opacity=".5" d="M110 12h22v62h-22z"/><path fill="#3c3539" fill-opacity=".5" d="M215 122l10-32-1 41z"/><path fill="#cdaeae" fill-opacity=".5" d="M271 109l-30 11-39-21z"/><path fill="#cec4b9" fill-opacity=".5" d="M139.5 67.2l-7.8-13.8 10.6-17.8-9.9 34.6z"/><path fill="#fbffff" fill-opacity=".6" d="M158.4 75.8L156.7 65l5-.8 1.6 10.8z"/><path fill="#040000" fill-opacity=".5" d="M90 83l20-45-32-3z"/><path fill="#c07059" fill-opacity=".5" d="M89 142l38 30-24-40z"/><path fill="#734d2a" fill-opacity=".7" d="M164.7 69.8l17.4-12.2L175-2.7l-2.7 96.1z"/><path fill-opacity=".5" d="M85 173l26-5-37-21z"/><path fill="#6a3421" fill-opacity=".4" d="M129.3 121.4l50-18.4 8 19.7-14.1-5.2z"/><path fill="#a8cae9" fill-opacity=".5" d="M95 6h14v25H95z"/><path fill="#cb8865" fill-opacity=".3" d="M101.6 121.2L81.7 69.3l20.6 31.6.9 23.3z"/><path fill="#c2aca0" fill-opacity=".5" d="M174.8 121.5l-5.7 2-5.9-17 5.7-2z"/></g></svg>