<svg xmlns="http://www.w3.org/2000/svg" viewBox="0 0 300 199"><defs/><path fill="#4a2c23" d="M0 0h300v199H0z"/><g transform="translate(.6 .6) scale(1.17188)"><circle r="1" fill="#e5dbc6" fill-opacity=".7" transform="matrix(-48.79006 -203.72074 130.78522 -31.32238 203.6 87.2)"/><ellipse cx="54" cy="29" fill="#947356" fill-opacity=".9" rx="72" ry="43"/><circle r="1" fill="#5a3c28" fill-opacity=".8" transform="matrix(-36.78192 -43.31849 22.08865 -18.75557 183 159.1)"/><circle r="1" fill="#f6feff" fill-opacity=".7" transform="rotate(6.3 -461.8 2201.8) scale(33.93334 80.00199)"/><circle r="1" fill="#f5ffff" fill-opacity=".4" transform="rotate(-167.6 70.4 45.7) scale(28.11167 112.93381)"/><circle r="1" fill="#876447" fill-opacity=".8" transform="matrix(-15.82526 -1.1228 5.26411 -74.19472 77.5 116.9)"/><ellipse cx="182" cy="30" fill="#b57a2f" fill-opacity=".8" rx="16" ry="119"/><ellipse cx="38" cy="108" fill="#001548" fill-opacity=".7" rx="26" ry="50"/><path fill="#523f38" fill-opacity=".5" d="M271 172l-137-72 20 73z"/><path fill-opacity=".6" d="M103 59.3l-9.8-8.5L109 32.7l9.8 8.5z"/><path fill="#e9f0fd" fill-opacity=".5" d="M143 185l-56-42 37-78z"/><path fill="#3e2e2a" fill-opacity=".6" d="M61 82h29v36H61z"/><circle r="1" fill="#a29683" fill-opacity=".6" transform="matrix(66.83786 31.89337 -4.2846 8.9791 200.7 136.6)"/><circle r="1" fill="#d6a364" fill-opacity=".4" transform="matrix(-12.57158 36.23099 -9.59369 -3.32886 19.2 47.1)"/><path fill="#ad8e6d" fill-opacity=".7" d="M129.3 46.8l-.4 33.8-28.6-75.8L134.5-16z"/><ellipse cx="76" cy="65" fill="#a88b75" fill-opacity=".9" rx="22" ry="15"/><path fill-opacity=".5" d="M50.4 36.3L67.7 44l-6 13.7L44.2 50z"/><path fill="#dfb673" fill-opacity=".6" d="M204.1 16l-5.3 100.8-13-.7 5.4-100.9z"/><path fill="#bb8b4a" fill-opacity=".5" d="M29 152l-45 4 36 29z"/><path fill="#fefffe" fill-opacity=".6" d="M203 61h13v74h-13z"/><path fill="#c08f5c" fill-opacity=".8" d="M-5.9 34l133.8-12.9-.7 14-35.3 4.4z"/><ellipse cx="182" cy="169" fill="#47281d" fill-opacity=".7" rx="37" ry="23"/><path fill="#000929" fill-opacity=".8" d="M56 184l-28.9-2 2.8-40 29 2z"/><path fill="#060000" fill-opacity=".6" d="M-16 148L1 52l12 97z"/><path fill="#fff" fill-opacity=".5" d="M95 78h31v13H95z"/><ellipse cx="69" fill="#1e160d" fill-opacity=".5" rx="28" ry="6"/><path fill="#29120b" fill-opacity=".5" d="M144 134l31 6-38-32z"/><circle r="1" fill="#e6f4f2" fill-opacity=".3" transform="matrix(-16.37091 3.0494 -9.46254 -50.80044 148.5 54.7)"/><ellipse cx="74" cy="162" fill="#c08f51" fill-opacity=".5" rx="17" ry="41"/><path fill="#a66e2c" fill-opacity=".5" d="M198 135l-27 8-2-100z"/><path fill="#26120e" fill-opacity=".5" d="M112.5 60.6l-7.8-22.8-9.8 3.8-4.1 19.9z"/><path fill="#dfe0da" fill-opacity=".7" d="M204.1 47.8L207.9-7l18 1.3-3.8 54.9z"/><circle cx="82" cy="43" r="6" fill="#3c0000" fill-opacity=".6"/><path fill="#a7806f" fill-opacity=".5" d="M63 91h44v14H63z"/><circle r="1" fill="#93979e" fill-opacity=".5" transform="rotate(-161.3 130.7 55.7) scale(45.75698 13.47686)"/><path fill="#2a2d4e" fill-opacity=".6" d="M92.9 90.2l-60.3-3.4-20.8-3.4 10.9-25.2z"/><path fill="#b58e83" fill-opacity=".6" d="M58 52l8 34-23-32z"/><ellipse cx="107" cy="169" fill="#dde0e9" fill-opacity=".5" rx="21" ry="59"/><path fill="#b8957a" fill-opacity=".7" d="M85 83l27-11-53-33z"/><path fill="#d5d8d3" fill-opacity=".8" d="M271 154l-34-18 13-51z"/><ellipse cx="201" cy="55" fill="#7b4d2b" fill-opacity=".4" rx="2" ry="65"/><path fill="#140912" fill-opacity=".5" d="M63 102l-7 16 42-2z"/><circle r="1" fill="#bb8a56" fill-opacity=".7" transform="rotate(105.7 -3 27) scale(18.52942 22.94512)"/><ellipse cx="9" cy="62" fill="#a37b51" fill-opacity=".6" rx="6" ry="33"/><path fill="#9e9b8f" fill-opacity=".4" d="M98.7 22.4L28.3 1.8l50.3 4.8L167.9-16z"/><path fill="#d8aa72" fill-opacity=".6" d="M107.8 33.4l-13.4-16-6 40.1-4.4-3z"/><path fill="#291400" fill-opacity=".4" d="M72.8 76.8L57 90.3l7.8 1.4 17.3 8.6z"/><ellipse cx="178" cy="20" fill="#a46d32" fill-opacity=".5" rx="11" ry="117"/><path fill="#936a3f" fill-opacity=".5" d="M13 185l17-25-12-26z"/><path fill="#e5e7e8" fill-opacity=".5" d="M121 147l-10-98 32 45z"/><path fill="#feffff" fill-opacity=".4" d="M226 21h13v110h-13z"/><path fill="#2f201a" fill-opacity=".7" d="M53 49.3l-3.2 6.1-8.9-4.7 3.3-6.1z"/><path fill="#b6aba5" fill-opacity=".4" d="M141 185l-9-47.9 47.7 14.8-28.8-16z"/><path fill="#82440b" fill-opacity=".4" d="M138.4-2.5l-22.6 28.7-2.8 18.1-5.4-15.8z"/><path fill="#cdb2ad" fill-opacity=".5" d="M72 106l-4-8h18z"/><path fill="#b98a46" fill-opacity=".6" d="M181 98h13v49h-13z"/><path fill="#caabaa" fill-opacity=".6" d="M55.5 57.6l-24-5 20.9 11.8.2-2.7z"/><path fill="#271a13" fill-opacity=".6" d="M193.6 141.3L211 155l17.1 19.6-34.1-24.7z"/><path fill="#321304" fill-opacity=".6" d="M66.3 64.1l5-.2.4 8-5 .2z"/><path fill="#f3d39a" fill-opacity=".4" d="M188 51h12v30h-12z"/><path fill="#7a7b7f" fill-opacity=".5" d="M208 150h63l-24 35z"/><path fill="#9d5f45" fill-opacity=".4" d="M71.8 128.9l32-27.1-.2 11.5-19.8 19.9z"/><path fill="#a37a67" fill-opacity=".9" d="M94.9 81.9l11.6-19.3-6.8-8-7.4 14z"/><path fill="#c2c5bc" fill-opacity=".3" d="M154 0h14v125h-14z"/><ellipse cx="88" cy="86" fill-opacity=".6" rx="5" ry="2"/></g></svg>