<svg xmlns="http://www.w3.org/2000/svg" viewBox="0 0 300 199"><defs/><path fill="#5e392e" d="M0 0h300v199H0z"/><g transform="translate(.6 .6) scale(1.17188)"><circle r="1" fill="#faffff" fill-opacity=".8" transform="rotate(160.7 74.6 20) scale(26.41315 65.4854)"/><ellipse cx="58" cy="12" fill="#fffcee" fill-opacity=".7" rx="11" ry="117"/><circle cx="126" cy="169" r="70" fill="#010502" fill-opacity=".8"/><circle cx="255" cy="42" r="57"/><path fill="#fff" fill-opacity=".6" d="M200 144l27-20-33-85z"/><circle r="1" fill="#e1ffff" fill-opacity=".4" transform="matrix(-65.5076 5.96166 -3.22303 -35.41511 119.6 0)"/><circle r="1" fill="#010000" fill-opacity=".9" transform="matrix(9.84202 223.13948 -24.80726 1.09417 0 81)"/><circle r="1" fill="#030303" fill-opacity=".9" transform="rotate(-23.4 405.2 -528.2) scale(17.0067 138.15064)"/><path fill="#2a231c" fill-opacity=".6" d="M140 134l9-94L97 3z"/><path fill="#faffff" fill-opacity=".6" d="M114.5 34.5v-29h67v29z"/><path fill="#b5def2" fill-opacity=".6" d="M234.6 184.2l-39-9 5.8-25.4 39 9z"/><ellipse cx="81" cy="66" fill="#000100" fill-opacity=".8" rx="14" ry="30"/><circle r="1" fill="#080000" fill-opacity=".9" transform="matrix(-16.01828 24.63727 -13.92467 -9.05332 46.4 155.1)"/><path fill="#341c18" fill-opacity=".9" d="M112.1 8.3L11.5 57.1 132-16l-26.7 34.5z"/><path fill="#e7efe7" fill-opacity=".6" d="M195 54l39 82-29 1z"/><path fill="#e6e7e7" fill-opacity=".6" d="M185.9 92.7l-2.7-69.3L136.1 62l49.3 25.2z"/><path fill="#0b1214" fill-opacity=".8" d="M193.9 131.6l-.1-79.3-24.9 96.3 101.7 5.5z"/><path fill="#eceff2" fill-opacity=".8" d="M72.5-3l-.6-6.8 63.8-6.2-65.6 35.4z"/><path fill="#998d83" d="M68.3 117.6l6.4-19.9-35.1 25.2 37.6 11.8z"/><path fill="#ffe4c8" fill-opacity=".4" d="M83.8 86.9l22.9-7.6.3 14.2.5 23.6z"/><path fill="#fff" fill-opacity=".5" d="M102 31l-41 7 41-24z"/><path fill="#090502" fill-opacity=".9" d="M66.7 76.3l16.8-41.7L94.8 185l-17.5-55.7z"/><path fill-opacity=".6" d="M105 36.4l-3-31.9 11-1 2.8 32z"/><ellipse cx="37" cy="60" fill="#b85f5d" fill-opacity=".7" rx="4" ry="85"/><path fill="#230c06" fill-opacity=".5" d="M125 32h19v57h-19z"/><ellipse cx="167" cy="105" fill="#4c7b5e" fill-opacity=".3" rx="34" ry="23"/><ellipse cx="188" cy="33" fill-opacity=".6" rx="5" ry="43"/><path fill="#320003" fill-opacity=".6" d="M36.1 63.5l-.7 88.1L18.3-14.3l11.8 3.1z"/><path fill="#060401" fill-opacity=".7" d="M149.1 185l-22.5-66.8-85.9-4.3 51 16.2z"/><path fill="#f3ebd9" fill-opacity=".6" d="M69.2 96.4l2.1 21.1-18.9-5.6-2.1-8.6z"/><path fill="#000808" fill-opacity=".7" d="M155.8 87.4l-39.7 10.4 38.5-31.4 4.6 15.6z"/><ellipse cx="49" cy="11" fill="#e8ebe5" fill-opacity=".6" rx="4" ry="22"/><path fill="#15170f" fill-opacity=".6" d="M108 67h10v59h-10z"/><ellipse cx="156" cy="9" fill="#ebf0f6" fill-opacity=".7" rx="26" ry="30"/><circle r="1" fill="#030203" fill-opacity=".9" transform="matrix(19.46033 2.97785 -4.67284 30.53717 203.2 3.3)"/><path fill="#dbfefe" fill-opacity=".4" d="M126.2 87.4l-8.5 5.8-.4-25.4-.2 4.9z"/><path fill="#020405" fill-opacity=".8" d="M271 147.6L184.7 134l54.2 25 3.6 26z"/><path fill="#fddacb" fill-opacity=".3" d="M132.2 49.9l-1.4 13.2 34.4 18.2 13.3 18.2z"/><path fill="#f6fdff" fill-opacity=".5" d="M115 3h18v28h-18z"/><circle r="1" fill="#d1b3a7" fill-opacity=".5" transform="matrix(-2.88603 .23728 -1.32875 -16.1619 107.7 55)"/><path fill="#e3dcd3" fill-opacity=".8" d="M76 29.6l28.4-9.4-44.6 28.6-8.8 51.5z"/><circle r="1" fill="#0e0c0a" fill-opacity=".7" transform="matrix(11.70813 244.88192 -1.95384 .09342 47.6 85.5)"/><ellipse cx="42" cy="92" fill="#c07770" fill-opacity=".6" rx="2" ry="36"/><path fill="#d7d6aa" fill-opacity=".2" d="M150.1 106.5l-63-6.7 43.1 11.2 11.4-25.1z"/><path fill="#e5eeed" fill-opacity=".4" d="M229.5 139.6l-34.1-5.7 22.9-34.8 17.1 40.2z"/><path fill="#000001" fill-opacity=".6" d="M158 138h41v32h-41z"/><circle r="1" fill-opacity=".5" transform="rotate(-168.6 40.3 44) scale(9.07264 3.30103)"/><path fill="#acb0a9" fill-opacity=".4" d="M191 28l30 79-26-24z"/><path fill="#473f3b" fill-opacity=".6" d="M110 76L92 31l-14 5z"/><circle r="1" fill="#1d1a17" fill-opacity=".7" transform="rotate(-91.7 35.8 -33.2) scale(123.20113 1)"/><path fill="#1a0504" fill-opacity=".5" d="M123.3-7.3l3.1 5.1-55.7 33.5-3.1-5.1z"/><path fill="#e9ecef" fill-opacity=".6" d="M137.7 10.7l13.1 39.9 35.5 35.7-4.8-88.2z"/><path fill="#f1ddc1" fill-opacity=".6" d="M69 66L48 44l10 67z"/><path fill="#22232c" fill-opacity=".7" d="M174.5 106.1l25.5 51-3-51.6-1.2-28.5z"/><path fill="#100000" fill-opacity=".5" d="M156 93l-31-10-20-57z"/><path fill="#d6c7b7" fill-opacity=".5" d="M93.6 95.9L106 79.1l.2 24.1-6.8-2.9z"/><path fill="#bbfed3" fill-opacity=".2" d="M179.4 95.3l-18.6-18.7-16.1 31.7-10-16.5z"/><path fill="#eac2aa" fill-opacity=".5" d="M0 80l-1 30-15-44z"/><path fill="#e7ecf0" fill-opacity=".9" d="M115.4 37.7l5.2-36.1L174.8-16l-10.4 26.8z"/><path fill="#fdfff9" fill-opacity=".3" d="M47.2 125.5L79.7 136l-10.2-10.6-21.4-7.6z"/><path fill="#100505" fill-opacity=".4" d="M103.8 15.7l3.9 13.9L120.6-16 83.8 24.5z"/><circle r="1" fill="#030000" fill-opacity=".6" transform="rotate(-115.1 98.2 49.6) scale(33.20679 49.03957)"/><path fill="#505c65" fill-opacity=".6" d="M190.9 148.2l30.3 9.6 27.4.7-42.8-10.4z"/><path fill="#7e553e" fill-opacity=".3" d="M94.4 56.6l-7.1 38.5 43.4 28.3-35-7.4z"/><path fill="#011308" fill-opacity=".3" d="M189.6 110.3l-43.1-37.1 26.7 6.6-35.4 1.9z"/></g></svg>