<svg xmlns="http://www.w3.org/2000/svg" viewBox="0 0 298 450"><defs/><path fill="#3e3e3e" d="M0 0h298v450H0z"/><g transform="translate(.9 .9) scale(1.75781)"><circle r="1" fill-opacity=".7" transform="rotate(59.7 -144.6 197.9) scale(61.80448 168.07915)"/><path fill="#eaeaea" fill-opacity=".5" d="M35 137h30v38H35z"/><path fill="silver" fill-opacity=".6" d="M25.1 75.1l-4 24.3 35.4 2L53 92z"/><circle r="1" fill="#1a1a1a" fill-opacity=".5" transform="rotate(-127.7 87.3 25) scale(87.48534 33.96076)"/><ellipse cy="145" fill="#0d0d0d" fill-opacity=".7" rx="22" ry="201"/><circle r="1" fill="#080808" fill-opacity=".6" transform="rotate(46.9 49 189) scale(23.04464 39.41424)"/><path fill="#f9f9f9" fill-opacity=".5" d="M102.7 155l-13.3-13.4-13.9-21.9 35.1 29.9z"/><path fill-opacity=".6" d="M47 118h7v66h-7z"/><path fill="#161616" fill-opacity=".9" d="M19 104l35 1-19 46z"/><path fill="#e3e3e3" fill-opacity=".5" d="M54 126h9v51h-9z"/><circle r="1" fill="#fff" fill-opacity=".5" transform="matrix(2.9907 -23.02713 5.39993 .70133 42 156.1)"/><path fill="#9d9d9d" fill-opacity=".5" d="M164 80h6v94h-6z"/><path fill="#868686" fill-opacity=".5" d="M33 27L79 5l36 20z"/><path fill="#707070" fill-opacity=".6" d="M115 90.9l4.6-14.5 48.7-51.1-25.7 42.8z"/><path fill="#dadada" fill-opacity=".3" d="M28.1 164l6.6-33.7-6.8 15.2-15.7 32.9z"/><ellipse cx="119" cy="73" fill="#878787" fill-opacity=".8" rx="2" ry="40"/><ellipse cx="147" cy="128" fill="#050505" fill-opacity=".5" rx="20" ry="36"/><path fill="#f0f0f0" fill-opacity=".5" d="M46 171.8l-.6-39.4-15.7 41.8 19.7 4.1z"/><path fill="#f5f5f5" fill-opacity=".4" d="M68.2-11l44.7 20.8L98.8-16h22.7z"/><path fill="#0f0f0f" fill-opacity=".6" d="M19 177h151v79H19z"/><path fill="#e2e2e2" fill-opacity=".5" d="M2 78l1 23-19-23z"/><ellipse cx="76" cy="77" fill="#838383" fill-opacity=".3" rx="22" ry="16"/><path fill="#060606" fill-opacity=".7" d="M35 52l24-1-5 35z"/><path fill="#fff" fill-opacity=".4" d="M18-16l7 23 22-23z"/><path fill="#141414" fill-opacity=".7" d="M139 80l41-52-19 58z"/><path fill="#fff" fill-opacity=".4" d="M53 93l-14-3 7 13z"/><ellipse cx="100" cy="58" fill-opacity=".3" rx="34" ry="13"/><ellipse cx="70" cy="148" fill="#282828" fill-opacity=".6" rx="7" ry="71"/><path fill="#bfbfbf" fill-opacity=".5" d="M54.6 144l8-27.9 6.8 2-8 27.8z"/><path fill="#050505" fill-opacity=".5" d="M130.6 34.9L81.1 5.7 46.8 8.1 60.2-16z"/><path fill="#f5f5f5" fill-opacity=".4" d="M138.6 83.5l-.2 9h-5l.2-9z"/><path fill="#6e6e6e" fill-opacity=".5" d="M21 63h17v31H21z"/><path fill="#5b5b5b" fill-opacity=".6" d="M121-16l23 25-39 25z"/><circle r="1" fill="#040404" fill-opacity=".5" transform="rotate(115.8 -43.2 79.6) scale(38.02233 11.13561)"/><path fill-opacity=".5" d="M99.5 135.5l6.6-19.1 29.5 35.8-29.8-9.1z"/><path fill="#fff" fill-opacity=".3" d="M80.4 119.6l-1.8 7.3 5.7 9.5 21.7 9.4z"/><path fill="#232323" fill-opacity=".6" d="M56 155l-29 62 22 4z"/><circle cx="169" cy="97" r="9" fill="#a0a0a0" fill-opacity=".6"/><path fill="#b3b3b3" fill-opacity=".4" d="M66.2 67l-5.6 19.3-4.8-1.4 5.6-19.2z"/><circle r="1" fill="#696969" fill-opacity=".8" transform="matrix(.25422 3.08794 -5.348 .44028 163.2 165.6)"/><path fill="#c3c3c3" fill-opacity=".9" d="M62.3 153.2l-3.5-16.1L48.4 166l-4.5-2.3z"/><path fill="#282828" fill-opacity=".6" d="M67.1 151.8l56.9-.4 50.3 24.9-76.8-4.5z"/><path fill="#232323" fill-opacity=".8" d="M72.8 131.9l11.6-35.6-40.9 39.1 21.5-57z"/><path fill="#d4d4d4" fill-opacity=".5" d="M119 50h1v58h-1z"/><path fill-opacity=".4" d="M103.7 95.8l19.2-23.9 38.3 76.8L96.4 43z"/><path fill="#2e2e2e" d="M-5.2 15.4L18-16l12.8 65-18-25.1z"/><path fill="#6a6a6a" fill-opacity=".4" d="M75.3 29.3l45.4 4L44 5.5 16.8 27.8z"/><ellipse cx="51" cy="165" fill-opacity=".5" rx="2" ry="37"/><path fill="#101010" fill-opacity=".8" d="M152-16l-22 45 55-4z"/><path fill="#0e0e0e" d="M31.7 154l-5.3 117-20.5-17.4L22 186.3z"/><path fill="#9e9e9e" fill-opacity=".5" d="M148 62l-25 19 11-16z"/><path fill="#fff" fill-opacity=".5" d="M38 147l11-9-7 32z"/><ellipse cx="64" cy="184" fill="#656565" fill-opacity=".3" rx="4" ry="17"/><path fill="#cbcbcb" fill-opacity=".5" d="M58 126l4 13-12-12z"/><ellipse cx="136" cy="104" fill="#151515" fill-opacity=".4" rx="17" ry="14"/><path fill="#1b1b1b" fill-opacity=".4" d="M142.5 65L185 20.9 141.2 56l-2.4 72.3z"/><path fill="#111" fill-opacity=".6" d="M53 130l-12-27-56 47z"/><path fill="#ababab" fill-opacity=".4" d="M196 1.4l.6.7-62.5 60.5-.7-.7z"/><circle cx="104" cy="97" r="3" fill="#b7b7b7" fill-opacity=".5"/><path fill="#bfbfbf" fill-opacity=".6" d="M132.8 11.2l-1-.4 5.4-14 1 .4z"/><path fill="#bababa" fill-opacity=".5" d="M33 158h7v19h-7z"/><path fill="#0d0d0d" fill-opacity=".7" d="M122.3 64.9l-1.9-38.6 14.8-5.1 1 37.8z"/><path fill="#fff" fill-opacity=".4" d="M40 89h8v9h-8z"/><path fill="#5d5d5d" d="M62.9 105.1l5 6-38.2-16.2 18.2 10.8z"/><path fill="#6c6c6c" fill-opacity=".6" d="M62.1 83.6l-24.5 8.3-9.7-23.6 29.8 33.1z"/></g></svg>