<svg xmlns="http://www.w3.org/2000/svg" viewBox="0 0 300 199"><defs/><path fill="#493431" d="M0 0h300v199H0z"/><g transform="translate(.6 .6) scale(1.17188)"><circle r="1" fill="#847e83" fill-opacity=".8" transform="matrix(20.27986 -33.83112 85.52453 51.26716 113.3 112)"/><circle r="1" fill="#000407" fill-opacity=".6" transform="matrix(38.71983 -56.3377 162.03438 111.36314 201.6 31.4)"/><circle r="1" fill="#000304" fill-opacity=".8" transform="rotate(-50.9 176.2 43.2) scale(29.45193 52.38772)"/><circle r="1" fill="#aaa5c5" fill-opacity=".4" transform="rotate(-51.9 214.7 -121.7) scale(23.48836 33.40981)"/><circle r="1" fill="#b19468" fill-opacity=".6" transform="matrix(-18.43366 7.86262 -16.23792 -38.06926 14 3.7)"/><ellipse cx="30" cy="90" fill="#75564f" rx="31" ry="22"/><circle r="1" fill="#9596ba" fill-opacity=".6" transform="matrix(-4.74033 -20.07704 28.03265 -6.61871 81 75)"/><path fill="#dbe1ea" fill-opacity=".6" d="M146.9 185l31.2-31.7-33.2 8.1-8.3 23.6z"/><circle r="1" fill="#3d3523" fill-opacity=".5" transform="matrix(12.34548 12.76474 -18.38793 17.78398 119.3 136.3)"/><path fill="#050400" fill-opacity=".7" d="M212 63h44v79h-44z"/><path fill="#9f879a" fill-opacity=".4" d="M179 68l58-25-76 67z"/><circle r="1" fill="#101111" fill-opacity=".6" transform="matrix(-5.53992 10.7994 -19.86674 -10.19132 201 163.2)"/><path fill="#2e2725" fill-opacity=".5" d="M108 24h83v63h-83z"/><circle r="1" fill="#7b555b" fill-opacity=".9" transform="matrix(-9.37427 .44037 -1.0398 -22.13452 78.3 46.3)"/><path fill="#00000d" fill-opacity=".4" d="M72.7 96.7L52 110.6 35.2 86.9l7.2-12z"/><path fill="#a6aab3" fill-opacity=".5" d="M33 67l112 46-86-67z"/><path fill="#010703" fill-opacity=".6" d="M-16 40.9v53.6l44.7-46.2-17.1-17.4z"/><path fill="#1d1615" fill-opacity=".6" d="M44.5 148.5l49.5-9.8-6.6-8.3L-16 97z"/><path fill="#cfb582" fill-opacity=".5" d="M115 129.3l10.9 22.9-24.5-36 19.3-42.6z"/><path fill="#282901" fill-opacity=".5" d="M128.3 143l29.4-6.6-9.1-21.9-8 15.7z"/><path fill="#080d10" fill-opacity=".7" d="M87.2 50.8l13.5-24.5 34.1 19-13.5 24.4z"/><path fill="#36282f" fill-opacity=".7" d="M33.7 18.3l57.6 38.6-38.6 42.4 25.6-34.9z"/><ellipse cx="197" cy="10" fill="#020506" fill-opacity=".6" rx="128" ry="14"/><path fill="#1a1838" fill-opacity=".5" d="M193.1 80.9L168 75.3l38.2 34.9-34.5 11z"/><path fill="#2a2600" fill-opacity=".4" d="M117.4 150.9l-23.8 12.4L106.9 78l-25.1 26.8z"/><path fill="#0a0906" fill-opacity=".9" d="M256 184l1-97-15 53z"/><path fill="#676a98" fill-opacity=".5" d="M76 161h67v9H76z"/><path fill="#827576" fill-opacity=".5" d="M156.7 26.3l-16.2 9.2 33.1-3.2 31.2-7.5z"/><path fill="#0d1a00" fill-opacity=".6" d="M119 109h14v16h-14z"/><circle cx="145" cy="80" r="24" fill="#4f3423" fill-opacity=".4"/><path fill="#fed7c3" fill-opacity=".3" d="M57 114L34 89l14 32z"/><path fill="#d2c3bf" fill-opacity=".6" d="M65 84.6l25.9-7-3.3 20.6-11.5 1.3z"/><circle cx="12" cy="85" r="16" fill="#c87b65" fill-opacity=".4"/><path fill="#d3a6a0" fill-opacity=".4" d="M181 105l-2-21-53 44z"/><path fill="#996640" fill-opacity=".5" d="M221.5 170l2-24 23 2-2 24z"/><path fill="#0a0300" fill-opacity=".6" d="M43 30h24v18H43z"/><path fill="#aba58d" fill-opacity=".3" d="M34.7 38.1V-16l4.6 71.9L-16 16.5z"/><path fill="#c0b7ad" fill-opacity=".5" d="M97 118l-1 23-22-29z"/><path fill="#8eb5e8" fill-opacity=".2" d="M214.4 139.6l-9.3 10.5-46.2-8.2 44.1-33.1z"/><path fill="#e6e3c7" fill-opacity=".5" d="M98 88l31 11v12z"/><path fill="#6a6b95" fill-opacity=".6" d="M116 138l-1 27 66-10z"/><ellipse cx="67" fill="#b8a867" fill-opacity=".5" rx="4" ry="17"/><path fill="#7c6c54" d="M141.9 130.1l32.2-9.3-19-.8L99 134.5z"/><circle r="1" fill="#9c885e" fill-opacity=".5" transform="matrix(-4.05277 -.09905 .70013 -28.64757 53.8 0)"/><circle r="1" fill="#010616" fill-opacity=".5" transform="matrix(-.75241 -.65869 22.79213 -26.03524 69 78.1)"/><path fill="#b6b2c8" fill-opacity=".5" d="M49 48l9 45 7-45z"/><path fill="#bf9f68" fill-opacity=".7" d="M94.5 103.9l23.4 8.7-4.3 14.4-25.5-22.7z"/><path fill="#140600" fill-opacity=".3" d="M99 126.9l-113.1 14.5 71 .1 80.6-18.6z"/><path fill="#281c16" d="M109.2 140.9l2.4 12.4-22.4 2.5 5.1-11.2z"/><path fill="#cd1101" fill-opacity=".4" d="M169.7 112.6l-4.4-6.4 2.4-1.4 16.9-.5z"/><path fill="#76403c" fill-opacity=".5" d="M165.8 66.8l3.8-17.6 18.6 4-3.8 17.6z"/><path fill="#121415" fill-opacity=".4" d="M107 0h28v76h-28z"/><path fill="#ae6f6d" fill-opacity=".4" d="M92.6 36.6L81.2 63.3l-13.8-5.9 11.4-26.7z"/><path fill="#64524c" fill-opacity=".7" d="M156.9 103.9l50.3-36-21.4 15.6-77.4 9z"/><path fill="#8082bb" fill-opacity=".7" d="M93.7 54.5l.5-.3L114.4 87 73.7 76.3z"/><ellipse cx="204" cy="61" fill="#484347" fill-opacity=".5" rx="4" ry="39"/><path fill="#f1f0ef" fill-opacity=".7" d="M170 178l-6.1-11.9-21.5-.8 7.5 19.7z"/><path fill="#000107" fill-opacity=".6" d="M164.5 39.2l32.9 26.1 2.8-23.9-19.9-12z"/><circle r="1" fill="#8f836f" fill-opacity=".5" transform="matrix(-.94674 -1.31952 20.14743 -14.4555 219.9 55.2)"/><circle r="1" fill="#040604" fill-opacity=".6" transform="rotate(-19.6 285.6 -654.9) scale(26.75837 7.79776)"/><path fill="#2f303f" fill-opacity=".5" d="M73 155h57v7H73z"/><path fill="#7f5d54" fill-opacity=".8" d="M30.2 46.9L11.4 94.1 4.2 71.4l35.2 11.5z"/><path fill="#43342b" fill-opacity=".7" d="M-.8 103.5l36.3 20.1 30.2 9.8-36.8-27.8z"/><path fill="#3d393a" fill-opacity=".4" d="M206.6 141.1l-40.9-9.8 60.6 22.7-62.2 11.1z"/><path fill="#061000" fill-opacity=".4" d="M131 132h22v8h-22z"/></g></svg>