<svg xmlns="http://www.w3.org/2000/svg" viewBox="0 0 300 199"><defs/><path fill="#434444" d="M0 0h300v199H0z"/><g transform="translate(.6 .6) scale(1.17188)"><path fill="#f9f9f9" fill-opacity=".7" d="M-16 2l66 149L171-16z"/><circle r="1" fill="#cfcece" fill-opacity=".4" transform="matrix(73.01273 105.4756 -27.16555 18.80464 215 84.5)"/><ellipse cx="68" cy="140" fill="#909090" fill-opacity=".7" rx="30" ry="116"/><circle r="1" fill-opacity=".6" transform="matrix(19.16485 -.24759 .55656 43.08182 17.7 116)"/><ellipse cx="95" cy="8" fill="#fff" fill-opacity=".8" rx="63" ry="20"/><circle r="1" fill="#ddd" transform="rotate(168.9 5 22.7) scale(29.62403 28.76706)"/><path fill="#fbfbfb" fill-opacity=".5" d="M245.8 44.6l-12.4 58.8L168.3-16l3.9 71.8z"/><ellipse cx="57" cy="37" fill="#040404" fill-opacity=".7" rx="17" ry="9"/><circle r="1" fill-opacity=".7" transform="rotate(53.9 100.1 241.9) scale(19.24121 38.0519)"/><circle r="1" fill="#010101" fill-opacity=".8" transform="matrix(5.96129 -24.641 11.18243 2.70531 255 129.2)"/><path fill="#111010" fill-opacity=".5" d="M108 187.3L93 91.5l81-12.8 15 95.8z"/><circle r="1" fill="#dbdbdb" fill-opacity=".6" transform="matrix(5.67442 -27.40073 10.56202 2.18729 43.6 112.7)"/><circle r="1" fill="#040404" fill-opacity=".8" transform="matrix(-18.75325 -99.0631 26.9527 -5.10231 13.7 169)"/><circle r="1" fill="#c6c6c6" fill-opacity=".5" transform="matrix(45.59966 14.72829 -4.29152 13.2868 84.2 69.7)"/><circle r="1" fill-opacity=".5" transform="rotate(176.2 30.4 78.6) scale(7.15185 42.80843)"/><circle r="1" fill="#737373" fill-opacity=".9" transform="matrix(-18.81574 -.89851 .7925 -16.5958 148 33)"/><path fill-opacity=".6" d="M194 75l10-32 35-27z"/><ellipse cx="211" cy="157" fill="#636363" rx="28" ry="44"/><circle r="1" fill="#bebebe" fill-opacity=".6" transform="rotate(174.4 39.5 65) scale(12.22428 27.60778)"/><path fill="#232323" fill-opacity=".6" d="M179 76l-21-20 5-59z"/><circle r="1" fill="#100f0f" fill-opacity=".8" transform="matrix(-11.21217 12.67306 -34.54947 -30.56679 237 24.6)"/><path fill="#fff" fill-opacity=".5" d="M131-15L91 8l22 68z"/><path fill="#101010" fill-opacity=".5" d="M91 87l10 48 9-69z"/><circle r="1" fill="#f0f0f0" fill-opacity=".8" transform="matrix(-3.12908 -5.06641 12.28313 -7.58621 181 4.6)"/><path fill="#1b1b1b" fill-opacity=".5" d="M206 64l-27 9 36 45z"/><circle cx="187" cy="15" r="8" fill="#020202" fill-opacity=".5"/><path fill="#fcfcfc" fill-opacity=".5" d="M171 36l25 34-22-86z"/><circle r="1" fill="#bcbcbc" fill-opacity=".8" transform="rotate(48.4 -63.6 361.9) scale(13.60092 15.39644)"/><path fill="#141414" fill-opacity=".9" d="M33.3 106.8l3.4-10.1-10.6-17.2L-16 67z"/><path fill="#313131" fill-opacity=".4" d="M80.7 38.6L68 19 51 41.6l-8.7 15.7z"/><path fill="#1a1a1a" fill-opacity=".5" d="M56.8 90.8l49.3-8.2-28 10.3-14.3 6.8z"/><path fill="#bcbcbc" fill-opacity=".6" d="M64.2 127.1l-14.8-20.8-26.8 2.3L37 134.4z"/><path fill="#fcfcfc" fill-opacity=".4" d="M180.6 95.2l-5.5-21.9 15.7 18.3 19.8 23.9z"/><ellipse cx="230" cy="80" fill="#b4b4b4" fill-opacity=".4" rx="21" ry="39"/><circle r="1" fill="#fff" fill-opacity=".2" transform="matrix(15.11382 11.35355 -14.33838 19.08723 68.6 61.5)"/><ellipse cx="125" cy="130" fill="#595959" fill-opacity=".4" rx="13" ry="88"/><circle cx="166" cy="116" r="24" fill="#101010" fill-opacity=".5"/><ellipse cx="29" cy="21" fill="#e4e4e4" fill-opacity=".6" rx="13" ry="62"/><path fill="#e1e1e1" fill-opacity=".4" d="M170 25h40v11h-40z"/><path fill="#f4f4f4" fill-opacity=".8" d="M19.7 26.4L149.4-15l-10.9 52.4-.4-13.5z"/><path fill="#323232" fill-opacity=".8" d="M176.9 48.5l-55.1 80.4 15.8-103.6L117 70.5z"/><path fill="#a2a2a2" fill-opacity=".6" d="M65 48l30-15 13 54z"/><ellipse cx="168" cy="73" fill="#7b7b7b" rx="13" ry="5"/><path fill="#151515" fill-opacity=".4" d="M69 129l-34 56h40z"/><path fill="#f3f3f3" fill-opacity=".6" d="M128 87l-9-8 1 14z"/><ellipse cx="104" cy="54" fill="#ccc" fill-opacity=".5" rx="25" ry="6"/><path fill="#050505" fill-opacity=".5" d="M52.8 85.2l-6.1-.2-2.4-6.5 10.2.9z"/><circle r="1" fill="#fff" fill-opacity=".7" transform="matrix(-4.31382 26.3429 -30.55978 -5.00436 90 6.1)"/><path fill="#fff" fill-opacity=".6" d="M110 68h4v18h-4z"/><path fill="#232323" fill-opacity=".6" d="M141.2 36.6l-5.8.8-6.7-13.9 4.7-2.2z"/><path fill="#5d5d5d" fill-opacity=".5" d="M244 123l-7-38 21-9z"/><circle r="1" fill="#9f9f9f" fill-opacity=".5" transform="matrix(6.6967 21.66712 -7.65976 2.36742 92.6 147.6)"/><path fill="#676767" fill-opacity=".7" d="M68.7 93l-26.3 24.4 16.9-5.5-.2 73.1z"/><path fill="#020202" fill-opacity=".4" d="M81.4 34.2l-38.4-4 23 23.6-.7-30.6z"/><path fill="#a0a0a0" fill-opacity=".7" d="M159.2 16.7l-20.8 34.5 2.4-23.2 19.7 12.7z"/><circle r="1" fill="#292828" fill-opacity=".5" transform="matrix(-3.99796 5.4219 -14.4992 -10.6913 210.4 137.6)"/><path fill-opacity=".5" d="M117 99l-16 23 16-47z"/><path fill="#5e5e5e" fill-opacity=".6" d="M239.8 127h6l.4 26h-6z"/><path fill="#909090" fill-opacity=".8" d="M67.5 38.9l28-5.8 8.2 3.8-36.8 19.8z"/><path fill="#040404" fill-opacity=".5" d="M115 59l11 16 6-22z"/><path fill="#d7d7d7" d="M61.3 28.4l-7.6 3.4-10.6-42.3-46.5 34.2z"/><path fill="#262626" fill-opacity=".6" d="M160 8l41-23-45-1z"/><path fill="#6e6e6e" d="M45.1 57.2l3.8 3L57 40.1l-12.2 3.8z"/><path fill="#f6f6f6" fill-opacity=".4" d="M114.3 19.7l7.4 39.6-43.5-16.5-3.7 34.5z"/><path fill="#9f9f9f" fill-opacity=".5" d="M217.5 47.1l-14.8 14.1 16.7-.1L181.2 99z"/></g></svg>