<svg xmlns="http://www.w3.org/2000/svg" viewBox="0 0 300 199"><defs/><path fill="#532d28" d="M0 0h300v199H0z"/><g transform="translate(.6 .6) scale(1.17188)"><circle r="1" fill="#fafaf8" fill-opacity=".5" transform="matrix(-35.51398 -9.32783 15.30448 -58.26897 24 120.5)"/><circle r="1" fill="#00060a" fill-opacity=".8" transform="matrix(36.79502 12.16879 -41.35088 125.0335 232.1 122.5)"/><ellipse cx="69" cy="44" fill="#72575b" fill-opacity=".6" rx="30" ry="150"/><path fill="#a6a88a" fill-opacity=".5" d="M119 120l92-38-17-24z"/><circle r="1" fill="#020201" fill-opacity=".6" transform="matrix(-58.4725 10.31028 -4.08008 -23.1393 120 168.9)"/><circle r="1" fill="#0b0200" fill-opacity=".5" transform="matrix(-62.81585 -66.59168 22.25632 -20.99436 213.5 17.5)"/><circle r="1" fill="#e3d6b8" fill-opacity=".4" transform="rotate(154.5 47.4 12) scale(8.72676 49.04722)"/><path fill="#dacdbd" fill-opacity=".6" d="M70 135L4 124l13-48z"/><path fill="#e3beab" fill-opacity=".6" d="M80 114h10v44H80z"/><ellipse cx="135" cy="37" fill="#090600" fill-opacity=".6" rx="18" ry="29"/><circle r="1" fill="#7a5747" fill-opacity=".5" transform="rotate(105 33.7 98.5) scale(29.93677 44.52546)"/><path fill="#57372b" fill-opacity=".6" d="M37.8 123.2l2 6.1L90.9 185l-62.1-40.9z"/><path fill="#0d0c12" fill-opacity=".4" d="M54.3 46.8l25.5-25.5 33.9 34-25.5 25.4z"/><circle r="1" fill="#e0e5c1" fill-opacity=".5" transform="rotate(167.8 24.5 7.6) scale(3.75984 32.26594)"/><circle r="1" fill="#0e0000" fill-opacity=".6" transform="rotate(139.9 .5 8.8) scale(34.91943 17.19142)"/><path fill="#272222" fill-opacity=".8" d="M157 135l66-70-37 120z"/><circle r="1" fill="#160c07" fill-opacity=".7" transform="rotate(-172.2 60.4 63.5) scale(14.00952 26.89451)"/><path fill="#c4bdb4" fill-opacity=".8" d="M3.9 131.2l15.6-8.6L38.2 185l-38.7-7.7z"/><path fill="#8ea3b1" fill-opacity=".5" d="M161.9 131.4l-27.2-17 7.4-11.8 27.2 17z"/><ellipse cx="142" cy="56" fill="#21120a" fill-opacity=".6" rx="82" ry="8"/><path fill="#b4b2ab" fill-opacity=".5" d="M202 86l-30-2 36-25z"/><path fill="#b0a5a0" fill-opacity=".3" d="M187.4 181.2l-20-40.8 3.9-8.8 23.3 36.5z"/><circle r="1" fill="#a67160" fill-opacity=".5" transform="matrix(-33.41506 15.5274 -4.17149 -8.97706 18.7 66)"/><ellipse cx="60" cy="88" fill="#674d6c" fill-opacity=".8" rx="20" ry="25"/><path fill="#664039" fill-opacity=".7" d="M141 156l26-34-38 10z"/><path fill="#e9cebc" fill-opacity=".5" d="M94 118l3 18-16-8z"/><path fill="#393039" fill-opacity=".8" d="M59.7 48.2L49.9-16l22.6 37.9.5 55.3z"/><ellipse cx="46" cy="169" fill="#655048" fill-opacity=".6" rx="12" ry="42"/><ellipse cx="29" cy="90" fill="#d1b9a8" fill-opacity=".6" rx="10" ry="33"/><path fill="#f2a87e" fill-opacity=".5" d="M72.3-11.5L76.6 16l-8.9 1.4L63.4-10z"/><path fill="#52342d" d="M104.9 92.3l-3 35.3L80.8 112l-21.6 4.8z"/><path fill="#694634" fill-opacity=".6" d="M-14.7 102l17.8 4.3 3.1 24.4-22.2 16z"/><path fill="#100000" fill-opacity=".4" d="M209 126l-30-25-32 42z"/><path fill="#573e3c" d="M103.6 35.8L93.4 61 75.7 29.7l42.9-7z"/><path fill="#38150c" fill-opacity=".6" d="M39.4 41l28.9 23.2-23-35.8L17.9-16z"/><path fill="#51180a" fill-opacity=".4" d="M60.7 112.1l47.4 39.3-30.5-17.7-7.3 51.3z"/><path fill="#dfccc0" fill-opacity=".5" d="M181 101l15 11-8-12z"/><path fill="#825b49" fill-opacity=".6" d="M178.4 47.3L154.3 1.9l-1.9 31.9 19.3 13.8z"/><path fill="#ccd7db" fill-opacity=".5" d="M64.8 126.5l-8.7 9.7-20.9-18.7 8.7-9.7z"/><path fill="#241003" fill-opacity=".5" d="M132.4 5.8l44.4 61.4-66.5-38.5-3.7-35.3z"/><path fill="#bec5c7" fill-opacity=".7" d="M39.8 137.9l-3.8 8.4-52 24.5 49.9-10.5z"/><path fill="#633932" fill-opacity=".8" d="M10.6 73l10 .8 14.2-55L8 53z"/><path fill="#7f5639" fill-opacity=".7" d="M168 107l-42-15 57-28z"/><path fill="#150602" fill-opacity=".5" d="M89 136h42v33H89z"/><path fill="#b4ae9c" fill-opacity=".4" d="M209 88h5v15h-5z"/><path fill="#251d16" fill-opacity=".9" d="M198.8 93.9l-29-3.2 29.4 19.9L260.3-16z"/><path fill="#050405" fill-opacity=".9" d="M163 139.7l28.6 45.3h-55.8l22.9-46z"/><path fill="#724747" fill-opacity=".6" d="M32.9 61.1l6.3 15.6 104.5 8.9-95.6-29.9z"/><circle cx="95" cy="5" r="10" fill="#b99b91" fill-opacity=".6"/><path fill="#aa6d5f" fill-opacity=".4" d="M44.1 158.7L75 113.3l23.8 26.5-38.8-3z"/><path fill="#381811" fill-opacity=".7" d="M41.8 173.5l35.3-19.2 36.6 21.8L89 185z"/><circle r="1" fill="#4e423a" fill-opacity=".5" transform="matrix(5.32581 2.02902 -6.71517 17.62608 231.7 25.5)"/><circle r="1" fill="#3e191a" fill-opacity=".5" transform="matrix(-1.80259 -3.66487 41.63823 -20.48003 138.4 82.6)"/><circle r="1" fill="#3c1404" fill-opacity=".5" transform="matrix(6.1139 -4.33748 2.34516 3.30563 31.5 141.6)"/><path fill="#c6afa1" fill-opacity=".7" d="M40 83l1.7 51.9L-16 57.1l22 57.5z"/><path fill-opacity=".6" d="M129.4 108.2l-1.6-2.5 12.8-8 1.6 2.6z"/><path fill="#b08a4c" fill-opacity=".5" d="M111 27h9v24h-9z"/><path fill="#893112" fill-opacity=".5" d="M90.5 23.9l-12.8 2.4-8.2-42.2 12.8-2.4z"/><path fill="#120912" fill-opacity=".5" d="M72 115l-4 9-17-13z"/><path fill="#54362f" fill-opacity=".5" d="M185.7 69.5L182.3 56l30-7.5 3.4 13.5z"/><path fill="#c8ab9e" fill-opacity=".6" d="M54 10l-12 6 4-32z"/><circle r="1" fill-opacity=".6" transform="matrix(19.3614 3.3791 -11.17832 64.04891 248.3 145.4)"/><path fill="#19090f" fill-opacity=".4" d="M166.1 97.2L241 164l-93.8-60.7 15.4-1.7z"/><path fill="#858f96" fill-opacity=".5" d="M160.1 125.2l15.2-4.5-50.1-8.7 19.3-9.6z"/><path fill="#a47569" fill-opacity=".4" d="M124.9 103.6l17 49.2-4.8 1.6-17-49.2z"/></g></svg>