<svg xmlns="http://www.w3.org/2000/svg" viewBox="0 0 300 199"><defs/><path fill="#4d423e" d="M0 0h300v199H0z"/><g transform="translate(.6 .6) scale(1.17188)"><circle r="1" fill="#b9c5cd" fill-opacity=".6" transform="matrix(66.21082 95.97805 -37.62902 25.95852 138.9 99.9)"/><circle r="1" fill="#000412" fill-opacity=".7" transform="matrix(-74.29405 19.26632 -9.45369 -36.45496 59.9 114.7)"/><path fill="#b3bdcd" fill-opacity=".7" d="M41 175l173 10-35-88z"/><circle r="1" fill="#fefffe" fill-opacity=".8" transform="rotate(32.5 -43.6 153.6) scale(14.94796 28.66441)"/><circle r="1" fill-opacity=".5" transform="matrix(-3.38894 27.60071 -59.642 -7.32312 172.6 25.3)"/><circle cx="21" cy="78" r="41" fill="#010918" fill-opacity=".9"/><path fill="#fffdff" fill-opacity=".5" d="M37.3 15l-8.6 12.3L-3.3 5 5.3-7.3z"/><path fill="#777372" fill-opacity=".9" d="M87.6 108.5l-3.3-67.1-.4 3.3 52.6 39.7z"/><ellipse cx="25" cy="161" fill="#030610" fill-opacity=".9" rx="34" ry="68"/><ellipse cx="175" cy="85" fill="#b1a0a3" fill-opacity=".6" rx="34" ry="21"/><circle r="1" fill="#93949b" fill-opacity=".9" transform="matrix(11.57517 -7.63242 9.348 14.177 73.7 156.8)"/><path fill="#270000" fill-opacity=".5" d="M73.1-12.2L87.5-8 75 36.2 60.5 32z"/><path fill="#fff" fill-opacity=".4" d="M98-16l16 23-65 51z"/><path fill="#9dbeb2" fill-opacity=".6" d="M218 14l30-21 2 35z"/><path fill="#0b0c04" fill-opacity=".8" d="M198 72l29-80-75-7z"/><path fill="#c7efe0" fill-opacity=".5" d="M239.4 69.9l8.8-8.3 5.1-15.3-9.3-.4z"/><circle r="1" fill="#0a1d00" fill-opacity=".5" transform="matrix(5.27968 8.4013 -47.56394 29.89092 243.2 85.4)"/><path fill="#1e4700" fill-opacity=".5" d="M98.8 37.1l47.9 4.3-7.7-55.3L73.3 86.3z"/><path fill="#14210a" d="M224.6 66.3L240.8 41l30.2 3.5-65.9-22.8z"/><path fill="#fff" fill-opacity=".6" d="M67 72l41-50-57 26z"/><path fill="#956f5a" fill-opacity=".6" d="M213 88l-26.8 33.2 19.1-75.1 12.1-2.1z"/><path fill="#6c463b" fill-opacity=".6" d="M74.4 8.7l2 22.8-36.1 9.8L10.1-3.2z"/><path fill="#001530" fill-opacity=".6" d="M-16 38l76 22L7 11z"/><path fill="#6a665c" fill-opacity=".7" d="M251.2 92.5l-23.1 3.7-25.7 47 50.3-30.6z"/><ellipse cx="2" fill="#feffff" fill-opacity=".7" rx="11" ry="10"/><path fill="#000005" fill-opacity=".4" d="M-14 138l162-50-46 54z"/><path fill="#9a817a" fill-opacity=".8" d="M167.4 55.4l-29.8-16.3 51.5 71.6 20.1-27.2z"/><path fill="#f5f9f6" fill-opacity=".7" d="M63.3 74.6L91.2-16l1.1 31.3 8.5 23.6z"/><path fill="#405932" fill-opacity=".5" d="M140 39.9L99.8 17.6l9.7-28.9-16.3 31.4z"/><path fill="#050710" fill-opacity=".5" d="M53 136l15-66 27-1z"/><path fill="#9aa6b7" fill-opacity=".5" d="M164.2 74.4l70 110.6-43.7-15.2-73.4-127.7z"/><path fill="#ffece8" fill-opacity=".3" d="M125.9 64L70 68.7l64.6-22.4L124 33.9z"/><circle cx="96" cy="92" r="12" fill="#879ea6" fill-opacity=".6"/><path fill="#a69290" fill-opacity=".4" d="M38 39v-54H0z"/><circle r="1" fill="#934c3d" fill-opacity=".3" transform="matrix(-6.7862 -18.4123 12.43408 -4.58281 168.6 44.2)"/><circle r="1" fill="#b0b8c4" fill-opacity=".5" transform="matrix(-22.2725 -18.53325 35.03491 -42.10352 138.4 148)"/><path fill="#d9f8f5" fill-opacity=".3" d="M235.3 23.9L220.2 2.7l20.5 4.6-9.8 30.3z"/><path fill="#082310" fill-opacity=".4" d="M256 13l-20 6 22-35z"/><path fill="#101100" fill-opacity=".4" d="M208.6 140.8L193 110.1l38.7-19.4-28.5 29.2z"/><path fill="#270f04" fill-opacity=".3" d="M84.9-16l-11.2 3.9-44.3 62.8 44.4-18.5z"/><path fill="#2e1519" fill-opacity=".4" d="M146.2 91.3l-33.3 10.9-3-9.5L143 81.8z"/><path fill="#002a0b" fill-opacity=".5" d="M92.3 9.7l-.7-.7 14.1-12.7.7.7z"/><path fill="#9699a0" fill-opacity=".8" d="M103 148.9l-45-9.4 6.8 2-1.4 43.5z"/><path fill="#50582d" fill-opacity=".6" d="M125 42l-6-40-6 51z"/><path fill="#e9afa6" fill-opacity=".5" d="M119.6 42.4L86.1 70.8l20.1-31.5 6.7-.3z"/><path fill="#f3f7f7" fill-opacity=".4" d="M83.2 55.2l-21 23.4-7.7-37 19.1-7.5z"/><path fill="azure" fill-opacity=".5" d="M226 62h6v6h-6z"/><path fill="#3f5a40" fill-opacity=".6" d="M233 27L222 6l-16 6z"/><path fill="#2c4461" fill-opacity=".6" d="M4 55l17-21-37-15z"/><path fill="#346322" fill-opacity=".5" d="M82 53h10v8H82z"/><path fill="#a6b0b1" fill-opacity=".7" d="M125.6 63.8l21.5-29.9-4.4 6.1-23.3 6.3z"/><path fill="#082300" fill-opacity=".5" d="M271 66l-15 26-27-26z"/><path fill="#dff9e9" fill-opacity=".2" d="M249.3 4.4l-9.7 17.7 9.6 31-1.3-24.5z"/><path fill="#61494e" fill-opacity=".6" d="M100.1 66.6l-30.7 2.5 14.2 8.4 44.1 1.3z"/><path fill="#fff" fill-opacity=".6" d="M76 19h19v17H76z"/><path fill="#976c60" fill-opacity=".6" d="M146.4 85.3l-8.5-10.4-19.5 5.6 24.8 20z"/><path fill="#0d2901" fill-opacity=".5" d="M133.8 45.4L165.1-16l-46.5 59.3 9.7-6.6z"/><circle cx="107" cy="9" r="5" fill="#fbffff" fill-opacity=".6"/><circle r="1" fill="#bec6d1" fill-opacity=".7" transform="rotate(-68.3 177.5 -30.2) scale(34.22861 7.35875)"/><path fill="#0a1e05" fill-opacity=".4" d="M224.9 69.3l23.6-51.9-13.1 13.5-24.1 46.2z"/><path fill="#050300" fill-opacity=".4" d="M201.4 77.5L214.9-16h-30.8l-.4 72.6z"/><path fill="#81736d" fill-opacity=".8" d="M133.4 64.8l-7-1.4L144.2 46l21.3.6z"/><path fill="#121f0c" fill-opacity=".8" d="M271 36.3l-31.7 5.3L271 15.5 240.1-16z"/><path fill="#4c5d4f" d="M239.9 41l-7.5 19.4 15.9-7.3-14.8-19.6z"/><path fill="#e2fbf0" fill-opacity=".4" d="M253 54l-6-6-11 20z"/></g></svg>