<svg xmlns="http://www.w3.org/2000/svg" viewBox="0 0 300 199"><defs/><path fill="#333920" d="M0 0h300v199H0z"/><g transform="translate(.6 .6) scale(1.17188)"><circle r="1" fill="#efeef2" fill-opacity=".6" transform="rotate(-166.7 69.2 29.1) scale(172.86962 152.40376)"/><circle r="1" fill="#49480d" fill-opacity=".7" transform="rotate(-90.7 134.5 -32.8) scale(35.20079 44.59448)"/><circle r="1" fill="#ecf3f9" fill-opacity=".8" transform="matrix(10.9686 -51.99414 54.63768 11.52628 45.2 34.4)"/><ellipse cx="255" cy="59" fill="#e3f1fe" fill-opacity=".8" rx="14" ry="97"/><circle r="1" fill-opacity=".7" transform="matrix(-4.63396 -1.75431 7.578 -20.01702 181.5 164)"/><circle cx="39" cy="93" r="41" fill="#bdc5cd" fill-opacity=".9"/><circle r="1" fill="#3c1700" fill-opacity=".2" transform="matrix(32.72013 -12.03866 38.08009 103.49864 144.5 99.7)"/><path fill="#151b18" fill-opacity=".5" d="M120 91l-58-2 55-17z"/><path fill="#361403" fill-opacity=".6" d="M11.3 91.1l31 4-28.4-14.7-8 3z"/><path fill="#6b4d44" fill-opacity=".5" d="M53.9 117.3l31.4 19.6L74 154.7l-31.4-19.6z"/><circle r="1" fill="#828976" fill-opacity=".5" transform="rotate(-159.8 113.6 19.6) scale(27.6031 46.18844)"/><path fill="#4d210f" fill-opacity=".6" d="M115.6 163.4l38.3 18.6-38.7 3-39.1-18.1z"/><ellipse cx="244" cy="131" fill="#b9cadb" fill-opacity=".8" rx="19" ry="32"/><circle r="1" fill="#d5e9ff" fill-opacity=".6" transform="matrix(28.77915 49.66614 -8.42676 4.8829 32.3 138)"/><ellipse cx="45" cy="63" fill="#081921" fill-opacity=".4" rx="16" ry="4"/><path fill="#ceccc8" fill-opacity=".4" d="M66 91h69v34H66z"/><circle r="1" fill="#2f3f6d" fill-opacity=".5" transform="matrix(9.9192 3.92729 -5.5258 13.95659 3.3 127.3)"/><path fill="#9a9772" fill-opacity=".9" d="M135.4 78.4l48.7-55.2-8.7 9.8 24.7 28z"/><path fill="#152402" fill-opacity=".6" d="M176 89l-25.8 35.7-16.2-11.8 25.8-35.6z"/><circle r="1" fill="#fefefd" fill-opacity=".7" transform="rotate(-131.2 30.8 -.8) scale(37.09339 27.62039)"/><circle r="1" fill="#805b3b" fill-opacity=".5" transform="matrix(-13.73827 2.05788 -5.49777 -36.70273 118 3.8)"/><path fill="#ac9074" fill-opacity=".5" d="M142 185l-44-44 119-25z"/><ellipse cx="87" cy="66" fill="#baccda" fill-opacity=".5" rx="38" ry="12"/><path fill="#fffefc" fill-opacity=".8" d="M35 96l-50-7-1 31z"/><circle r="1" fill="#9db5d8" fill-opacity=".5" transform="rotate(-88 96.4 65.8) scale(21.3237 53.40643)"/><path fill="#fffff7" fill-opacity=".3" d="M191 74l24 7-19-30z"/><path fill="#feffff" fill-opacity=".5" d="M243 64.8l23.7 4.1-7.8 44.3-23.6-4.1z"/><path fill="#717091" fill-opacity=".6" d="M244.8 41.3l-45.8.4 37.3 39.8-1.1 36.7z"/><circle r="1" fill="#4f667f" fill-opacity=".5" transform="rotate(64.1 -77.1 93.6) scale(27.92427 1.86326)"/><path fill="#66751f" fill-opacity=".5" d="M218 103l-55-36 64 21z"/><circle r="1" fill="#bac8e0" fill-opacity=".4" transform="matrix(8.31669 -26.49164 16.5246 5.18767 205.4 159)"/><circle r="1" fill="#c4cdaf" fill-opacity=".4" transform="matrix(-13.43463 48.72874 -5.23166 -1.44238 157.5 36)"/><path fill="#788a9a" fill-opacity=".7" d="M28.7 54.2L-3.7-51.9l1-.3L29.7 53.9z"/><path fill="#d1d9e2" fill-opacity=".7" d="M2.5 75.6l70-13.1-13.7 22.2 51.3 33.5z"/><circle r="1" fill="#fff" fill-opacity=".5" transform="matrix(18.22613 48.23406 -13.65752 5.16075 0 17)"/><path fill="#b9c976" fill-opacity=".5" d="M185 86l14 6-12 21z"/><path fill="#25353a" fill-opacity=".6" d="M91 77h23v8H91z"/><path fill="#302e10" fill-opacity=".4" d="M138 71l59 51-19 9z"/><path fill="#000001" fill-opacity=".5" d="M59 144l3-7-14 1z"/><path fill="#031f30" fill-opacity=".3" d="M67.8 61.1l4.5 1L60 55.4 24.6 66.8z"/><circle r="1" fill="#563a2b" fill-opacity=".5" transform="matrix(-.91419 5.43896 -12.50486 -2.10183 17.6 89)"/><path fill="#cfd1ce" fill-opacity=".5" d="M112 55L89-11l-3 41z"/><circle r="1" fill="#918f99" fill-opacity=".5" transform="rotate(-173.1 110.5 -.7) scale(19.50135 62.87845)"/><path fill="#6c6842" fill-opacity=".6" d="M191.3 107.8l42.6-11.9 3.5 13-35.9-16.6z"/><path fill="#83684b" fill-opacity=".8" d="M172.9 46.8l22.9 29.7-26.7 2.7 19.5-22.9z"/><circle r="1" fill="#99c045" fill-opacity=".5" transform="rotate(35.3 -39.6 250) scale(17.32636 5.58816)"/><path fill="#5e5722" fill-opacity=".3" d="M224.7 156.9l-1.8-65.2-4.8 34.7 10 23.2z"/><path fill="#042603" fill-opacity=".5" d="M135 80h23v9h-23z"/><path fill="#eef6f0" fill-opacity=".3" d="M237.8 78.6L217 104.5l46.3-31.2-24.3 38.8z"/><ellipse cx="46" cy="113" fill="#d1d7df" fill-opacity=".6" rx="7" ry="17"/><ellipse cx="127" cy="95" fill="#8f9d82" fill-opacity=".5" rx="19" ry="6"/><ellipse cx="161" cy="128" fill="#99704d" fill-opacity=".6" rx="30" ry="5"/><circle r="1" fill="#eaf5f8" fill-opacity=".5" transform="matrix(.72687 5.91987 -45.8378 5.62817 37.8 54.1)"/><path fill="#fffffc" fill-opacity=".7" d="M11.7 97.7l-12.2 6.8-11.2-20.2L.5 77.5z"/><path fill="#545050" fill-opacity=".5" d="M35.3 160.8l-.8.7-35.8-44.3.8-.7z"/><circle cx="168" cy="17" r="30" fill="#c1bcbb" fill-opacity=".4"/><path fill="#c7d2c6" fill-opacity=".3" d="M192.2 108.9l11.4 41.7 18.5-1.6-1.6-23.3z"/><circle r="1" fill="#0b0111" fill-opacity=".5" transform="matrix(-.53933 -2.22933 6.40003 -1.54833 0 75.8)"/><path fill="#65422a" fill-opacity=".5" d="M146 55.9l29.6-4.7.4 3-29.6 4.6z"/><path fill="#c7c4c8" fill-opacity=".5" d="M48.7 85l57.7 12.7-14.1 43.9-71-47z"/><path fill="#3d2006" fill-opacity=".5" d="M76 89h27v3H76z"/><path fill="#00020d" fill-opacity=".5" d="M176 152h10v18h-10z"/><path fill="#99a8bc" fill-opacity=".6" d="M271 178.6L142.5 185l57.4-19.5 71.1-29.4z"/><path fill="#d2e4f2" fill-opacity=".6" d="M13 128l27 30-11-61z"/><path fill="#c5d5e0" fill-opacity=".8" d="M236.3 40.6l11.1 3.7 7.9-60.3-10.9 13.8z"/></g></svg>