<svg xmlns="http://www.w3.org/2000/svg" viewBox="0 0 298 450"><defs/><path fill="#3f2c23" d="M0 0h298v450H0z"/><g transform="translate(.9 .9) scale(1.75781)"><circle cx="92" cy="105" r="239" fill="#fffef9" fill-opacity=".7"/><ellipse cx="109" cy="71" fill="#7c4224" fill-opacity=".6" rx="31" ry="37"/><circle r="1" fill="#f2ffff" fill-opacity=".6" transform="matrix(-70.88071 41.53055 -19.24352 -32.84315 54.4 24.7)"/><path fill="#572700" fill-opacity=".5" d="M102.4 104.1L87.3 52.3l-16.4 77.2 10.9 12.9z"/><path fill="#706458" fill-opacity=".4" d="M14 162.4l62 88.5-64 44.7-62-88.5z"/><circle r="1" fill="#e3e5e4" fill-opacity=".5" transform="matrix(27.0766 78.94465 -51.04807 17.50858 125.3 210.1)"/><path fill="#2c1601" fill-opacity=".5" d="M2.4 126.3l9.1-43L-13.4 66l-1.3 34.6z"/><path fill="#fcfbf4" fill-opacity=".5" d="M112 90h22v64h-22z"/><path fill="#a03900" fill-opacity=".3" d="M202.7 152.6l-39.2 20-28.2-55.2 39.2-20z"/><path fill="#1c0600" fill-opacity=".4" d="M143 88l-15-36-11 39z"/><ellipse cx="110" cy="60" fill="#e2ae9f" fill-opacity=".6" rx="13" ry="21"/><path fill="#e5e9ed" fill-opacity=".8" d="M2 0h137v33H2z"/><circle r="1" fill="#d6dfe5" fill-opacity=".7" transform="rotate(57.7 -47.2 77.7) scale(23.99533 36.95061)"/><path fill="#c79a7d" fill-opacity=".6" d="M89 52l-14 76-33-3z"/><path fill="#665b48" fill-opacity=".5" d="M25 223l-11 27-15-40z"/><path fill="#b39a77" fill-opacity=".5" d="M187.3 123.7l-20.9 2.6-15.7-128 20.9-2.6z"/><path fill="#2e1709" fill-opacity=".3" d="M120.1 31.9l-17.3 2.4L85.2 55l6.6 6.9z"/><path fill-opacity=".4" d="M88 83h12v25H88z"/><circle r="1" fill="#cedce3" fill-opacity=".4" transform="matrix(32.30288 58.89372 -15.6308 8.57341 50.7 158.6)"/><path fill="#bcac96" fill-opacity=".5" d="M121.8 159.2l16 7.2-49.3 7.2-28.4-53.5z"/><path fill="#eaece7" fill-opacity=".4" d="M138 81l-21 23 56 6z"/><path fill="#876143" fill-opacity=".7" d="M87.5 71.1l2.3 14.7-1.1 44.2-17.9-25z"/><path fill="#e5a282" fill-opacity=".4" d="M98.8 69.3l28.8 26.1-18.5 11.7-19.6-34.5z"/><path fill="#e0e8e8" fill-opacity=".6" d="M122.6-13.8l30.1 90.3-23.2-30.2-15.3-45z"/><path fill="#483422" fill-opacity=".5" d="M98 36l25-4 6 10z"/><circle r="1" fill="#e8e7e7" fill-opacity=".5" transform="matrix(-8.2823 -15.70878 35.12163 -18.51754 158.8 204)"/><circle cx="122" cy="83" r="5" fill="#020000" fill-opacity=".5"/><ellipse cx="169" cy="5" fill="#d0cfc5" fill-opacity=".6" rx="7" ry="64"/><circle r="1" fill="#a08161" fill-opacity=".5" transform="matrix(-1.69887 .19857 -14.54892 -124.47067 157.8 21.9)"/><path fill="#c7cfd3" fill-opacity=".6" d="M0 3h71v14H0z"/><path fill="#2b271b" fill-opacity=".3" d="M12 102.7l-18.6 4-5.4-25.4 18.6-4z"/><circle r="1" fill="#bcc4c9" fill-opacity=".5" transform="matrix(-3.5479 -.63594 8.1917 -45.70142 26 232.4)"/><ellipse cx="2" cy="116" fill="#aa917e" fill-opacity=".7" rx="6" ry="13"/><circle r="1" fill="#fff" fill-opacity=".5" transform="matrix(-20.02854 -5.29204 3.62348 -13.71362 81.3 27.7)"/><path fill="#bbb9ae" fill-opacity=".6" d="M45 185l-56 2-5-87z"/><path fill="#a77960" fill-opacity=".4" d="M183 166l-27-7-25-55z"/><circle r="1" fill="#cac8c8" fill-opacity=".6" transform="matrix(35.33 4.87183 -2.26042 16.39229 79.3 216)"/><path fill="#e3e2dd" fill-opacity=".9" d="M121.4 94l-14.3 49.9 38.6-1.2-14.8-29.9z"/><path fill="#d49d8a" fill-opacity=".6" d="M104 65l5.2-7.3L128 71l-5.2 7.4z"/><path fill="#a87944" fill-opacity=".4" d="M85.2 146.7l6.6-30.5-22.5 24.4 8.1 7.3z"/><circle r="1" fill="#bc9687" fill-opacity=".8" transform="matrix(-11.86952 -1.7093 1.35687 -9.42223 111.3 49.3)"/><path fill="#190a00" fill-opacity=".5" d="M129 72l2 11-16 1z"/><circle r="1" fill="#c7cfd1" fill-opacity=".6" transform="matrix(-8.01479 5.42864 -30.87936 -45.59 15.4 76.6)"/><circle r="1" fill="#ebf0ee" fill-opacity=".5" transform="rotate(166.4 26.2 84) scale(26.96147 3.70405)"/><path fill="#c8a78e" fill-opacity=".6" d="M133 108h36v19h-36z"/><circle cx="108" cy="55" r="4" fill="#4f1f17" fill-opacity=".5"/><path fill="#a79376" fill-opacity=".5" d="M99.6 172.7l-35.8-4.4.6-5 35.8 4.4z"/><path fill="#7c8380" fill-opacity=".3" d="M32 183l22 15-70 4z"/><ellipse cx="146" cy="55" fill="#bbcdcf" fill-opacity=".4" rx="11" ry="36"/><circle r="1" fill="#d6c5b8" fill-opacity=".4" transform="matrix(3.0378 29.4397 -16.73384 1.72672 107.5 134.5)"/><path fill="#eff0f1" fill-opacity=".4" d="M95 230l10 26 31-24z"/><path fill="#501800" fill-opacity=".2" d="M44.1 122.4l15.3-25.8-8.1 22.2 4.5 8.4z"/><path fill="#dfc2b2" fill-opacity=".5" d="M82 64l-13 50-17 2z"/><path fill="#ebeff0" fill-opacity=".7" d="M125 2.1l-91.8 67L109 29.7l28.2 9.7z"/><circle r="1" fill="#bdb1a5" fill-opacity=".5" transform="matrix(2.44368 -2.38444 23.18956 23.76567 132.3 240.3)"/><path fill="#babbbb" fill-opacity=".5" d="M5.9 214l46-41-9 14.6L29 217.4z"/><path fill="#a3a7ab" fill-opacity=".9" d="M19.8 231.6l-.3 39.4-33.3-24.3 38.2-3.3z"/><path fill="#bb6005" fill-opacity=".2" d="M0 181.4L12.8 231l16.5-14-45.3 4.8z"/><circle cx="13" cy="238" r="6" fill="#324b5d" fill-opacity=".5"/><path fill="#e5e6e7" fill-opacity=".6" d="M68 173h49v12H68z"/><path fill="#a2a2a0" fill-opacity=".8" d="M7.2 259.6L-16 202.7l28.2 25.8-25.7 42.5z"/><path fill="#0c0000" fill-opacity=".5" d="M97 81l3 20-11-20z"/><path fill="#edf2f7" fill-opacity=".4" d="M76.2 56.6l-8.3-46.3L6.8 22.1l74.1 57.2z"/><path fill="#e2c0af" fill-opacity=".5" d="M114.6 56.2l11.6-2.7-3.5-8.4-15.6-4.4z"/><path fill="#994009" fill-opacity=".1" d="M141.7 74.4l-.8 55.1-7.4-11.8 7.8-62.8z"/></g></svg>