<svg xmlns="http://www.w3.org/2000/svg" viewBox="0 0 300 199"><defs/><path fill="#4c4c4c" d="M0 0h300v199H0z"/><g transform="translate(.6 .6) scale(1.17188)"><circle r="1" fill="#d3d3d3" fill-opacity=".8" transform="matrix(38.15855 -6.50937 15.80124 92.62836 118 125.3)"/><ellipse cx="58" cy="42" fill="#fefefe" fill-opacity=".6" rx="12" ry="33"/><circle r="1" fill-opacity=".4" transform="rotate(-114.8 120.4 -10.2) scale(152.63201 34.73468)"/><ellipse cx="208" cy="39" fill="#fcfcfc" fill-opacity=".4" rx="30" ry="10"/><ellipse cx="75" cy="90" fill="#404040" rx="10" ry="28"/><circle r="1" fill-opacity=".5" transform="matrix(-14.62634 -7.1218 27.75973 -57.01126 240.3 72)"/><ellipse cx="105" cy="156" fill="#c7c7c7" fill-opacity=".7" rx="32" ry="83"/><ellipse cy="153" fill="#1d1d1d" fill-opacity=".7" rx="70" ry="46"/><circle r="1" fill="#f1f1f1" fill-opacity=".4" transform="matrix(-1.12541 -17.81758 31.79768 -2.00844 130 92.5)"/><path fill="#393939" fill-opacity=".9" d="M182.2 13l8.6 42.1-70.7 14.6-1-22.7z"/><path fill="#e7e7e7" fill-opacity=".3" d="M31 43l94 9L3-16z"/><path fill-opacity=".6" d="M88.5-5.1l34.6-7.6-30.5 39.6-27.3 2.2z"/><path fill="#969696" fill-opacity=".5" d="M271 72l-29 80-23-21z"/><path fill="#141414" fill-opacity=".8" d="M163 185V37l57 95z"/><path fill="#fff" fill-opacity=".5" d="M9.5 35v18h-15V35z"/><circle r="1" fill="#adadad" fill-opacity=".3" transform="matrix(-21.0496 -10.8645 13.59457 -26.339 216.5 37.6)"/><path fill="#c9c9c9" fill-opacity=".5" d="M77 29h40v32H77z"/><path fill="#636363" fill-opacity=".6" d="M152 26h82v11h-82z"/><path fill="#dedede" fill-opacity=".4" d="M159 121.6l6.9 65.6-30.9 3.2-6.9-65.6z"/><path fill="#c7c7c7" fill-opacity=".6" d="M54.5 62.6l1 16.7 22.7-9.1L37.4.6z"/><path fill-opacity=".5" d="M21 38h9v64h-9z"/><path fill="#6d6d6d" fill-opacity=".4" d="M105.9 146.9L98.1 128l-32.5-21.6 64.3 15z"/><ellipse cy="14" fill-opacity=".6" rx="11" ry="20"/><ellipse cx="44" cy="129" fill="#565656" fill-opacity=".7" rx="8" ry="100"/><ellipse cx="76" cy="94" fill="#101010" fill-opacity=".3" rx="7" ry="42"/><path fill="#737373" fill-opacity=".6" d="M33 125.2l-9.3 3.6-10.7-28 9.3-3.6z"/><path fill="#d0d0d0" fill-opacity=".6" d="M129.6 137.1L93.4 61.9l7.3-5.1L152 81.9z"/><path fill="#121212" fill-opacity=".6" d="M124 46l41-3-13 47z"/><path fill="#858585" fill-opacity=".7" d="M81 1l-3-16-34 37z"/><path fill="#111" fill-opacity=".6" d="M1.7 90l27.8 47.4 16.2 44-61.7-67.9z"/><path fill="#fefefe" fill-opacity=".2" d="M144.1 22.9l28.8 5.1 1 25.4-4.8-16.3z"/><path fill="#494949" fill-opacity=".7" d="M195 162.8l72.8-52.9 5.3 7.3-72.9 52.9z"/><path fill="#1b1b1b" fill-opacity=".9" d="M154 .2l-40.9 31.1 20.4 7.1 69.1-51.1z"/><path fill="#191919" d="M265.2 72.1l-7-88.1L221 123.1l10-5.2z"/><path fill="#191919" fill-opacity=".6" d="M46.7 103.1L69.9 185 47.4 79.2l26.9-4.5z"/><path fill="#fff" fill-opacity=".6" d="M140-15l-22-1 7 20z"/><ellipse cx="90" cy="167" fill="#fbfbfb" fill-opacity=".2" rx="22" ry="30"/><path fill="#d6d6d6" fill-opacity=".7" d="M108.6 45.2l12.2-.7-6.3-14.2-.8-14.5z"/><path fill="#333" fill-opacity=".6" d="M69 35.4l55.9-43.6-36.8 42.8L63.4 6.7z"/><path fill-opacity=".5" d="M246 149h10v17h-10z"/><path fill="#272727" fill-opacity=".5" d="M41 6l23 11-11-30z"/><path fill="#cbcbcb" fill-opacity=".5" d="M185.9 39.1l8.4 10.9 36-3.9 5.7-11.2z"/><path fill="#c9c9c9" fill-opacity=".2" d="M11.1 92.5l-27.1-24L34.1-1 13.2 8.7z"/><path fill="#222" fill-opacity=".5" d="M92 67h4v12h-4z"/><circle r="1" fill="#3d3d3d" fill-opacity=".5" transform="matrix(16.08333 -26.04113 15.67654 9.68203 66.7 102.4)"/><path fill="#9b9b9b" fill-opacity=".6" d="M160.4 131.9l2-14.8-14.8 19.8 13.9 47.5z"/><path fill="#cacaca" fill-opacity=".6" d="M64.5 45.7L31-4l2.5-1.7L67 44z"/><ellipse cx="38" cy="86" fill="#8e8e8e" fill-opacity=".3" rx="10" ry="26"/><circle cx="1" cy="142" r="5" fill="#a5a5a5" fill-opacity=".6"/><circle r="1" fill="#1a1a1a" fill-opacity=".7" transform="matrix(14.6429 -12.04567 17.09541 20.78146 197.6 85.5)"/><path fill="#070707" fill-opacity=".3" d="M145.1 100.4l20.3 33.9 23.5-30.3-39.8-9.4z"/><path fill="#0f0f0f" fill-opacity=".4" d="M197.8 18.4L194.2 34l-36-8.4 3.6-15.6z"/><path fill="#646464" fill-opacity=".7" d="M182 39l66-14-7-41z"/><path fill="#a9a9a9" fill-opacity=".5" d="M236 128l16-24-32 22z"/><path fill="#101010" fill-opacity=".6" d="M72 34.7l11 62-3 .6-11-62z"/><path fill="#282828" fill-opacity=".7" d="M-3.7-.6l33.3 3L-16 17.6l27.7 13.5z"/><path fill="#575757" fill-opacity=".5" d="M95.6 138l12 6.4-2-.3 14.8-9.3z"/><path fill="#848484" fill-opacity=".3" d="M131.2 72.3L168 91.4l-47.9-36.3-3.7 99.9z"/><path fill="#838383" fill-opacity=".3" d="M109.7 22.1l19.2-14.8 34.9 7.9L129.1-2z"/><path fill="#050505" fill-opacity=".5" d="M73 135l-11 49-3-46z"/><ellipse cx="105" cy="85" fill="#f2f2f2" fill-opacity=".5" rx="8" ry="25"/><path fill="#585858" fill-opacity=".5" d="M36.1 7.5L39-4.6l15 78.8-43.8-50.1z"/><path fill="#696969" fill-opacity=".7" d="M50.6 90.7l56 37 6.6-4.7-8.3 8.7z"/><ellipse cx="136" cy="153" fill="#e3e3e3" fill-opacity=".4" rx="12" ry="60"/><circle cx="159" cy="29" r="4" fill="#fefefe" fill-opacity=".4"/></g></svg>