<svg xmlns="http://www.w3.org/2000/svg" viewBox="0 0 300 199"><defs/><path fill="#58313a" d="M0 0h300v199H0z"/><g transform="translate(.6 .6) scale(1.17188)"><circle r="1" fill="#e8f8fa" fill-opacity=".7" transform="rotate(71.2 11.6 29.2) scale(19.82573 100.79856)"/><circle r="1" fill="#cacda2" fill-opacity=".6" transform="matrix(-16.83912 34.98736 -64.73264 -31.15527 186 169)"/><circle r="1" fill="#8c9a81" fill-opacity=".6" transform="rotate(140.3 73.4 38.3) scale(86.50067 55.25586)"/><path fill="#002b0b" fill-opacity=".6" d="M217.1 12.6l90.7 42.2-47 100.6-90.6-42.2z"/><path fill="#e5fcfb" fill-opacity=".5" d="M32 6.5v57H12v-57z"/><ellipse cx="135" cy="112" fill="#e4f7fe" fill-opacity=".6" rx="6" ry="16"/><circle r="1" fill="#086523" fill-opacity=".4" transform="matrix(-20.90279 -67.3275 87.32438 -27.1111 35.6 134.5)"/><path fill="#0c2716" fill-opacity=".5" d="M61 131L51 13 22 28z"/><path fill="#d9f3f3" fill-opacity=".7" d="M261.6 22.7L271-16l-.7 6.1-31.8 17.5z"/><ellipse cx="146" cy="17" fill="#c7cecf" fill-opacity=".7" rx="11" ry="16"/><path fill="#1e1a1e" fill-opacity=".7" d="M157.3 57.3l-23.9 11.5 13.3 50.8 5.7-7.3z"/><path fill="#8a9474" fill-opacity=".5" d="M189 14l-37 82 62-24z"/><path fill="#bcab9f" fill-opacity=".4" d="M125 74l-10-59-55 71z"/><circle r="1" fill="#7b8c6a" fill-opacity=".4" transform="matrix(-77.27584 2.01465 -.26032 -9.98495 75.3 126.5)"/><circle r="1" fill="#f9fafc" fill-opacity=".8" transform="rotate(-142.5 8.7 -1.2) scale(21.98436 30.10838)"/><circle r="1" fill="#001105" fill-opacity=".5" transform="matrix(-53.84644 -8.63773 2.90097 -18.08422 221.5 103.1)"/><circle r="1" fill="#082312" fill-opacity=".5" transform="matrix(-25.90706 13.1496 -6.30728 -12.42647 102.8 98.1)"/><path fill="#dbe7ff" fill-opacity=".6" d="M203.8-13.5L227.5-3l-7.3 16.4L196.5 3z"/><circle r="1" fill="#151912" fill-opacity=".6" transform="rotate(29.4 -162 97.8) scale(39.19193 16.26511)"/><circle r="1" fill="#28281e" fill-opacity=".5" transform="matrix(58.62453 22.91998 -2.77297 7.09268 185.5 7.5)"/><path fill="#9c8e7b" fill-opacity=".7" d="M114.9 185l108.5-54.8-76.8-3.9-21.7-16.7z"/><path fill="#231b2a" fill-opacity=".5" d="M141.7-26l.5.9L10.2 42l-.4-.9z"/><path fill="#1d351d" fill-opacity=".4" d="M90 14l-3 56-63-15z"/><path fill="#94786f" fill-opacity=".5" d="M78.2 101.1l6.6-61-23.5 75.4 23.6 6.6z"/><path fill="#272425" fill-opacity=".6" d="M166 20h4v100h-4z"/><path fill="#9b9fa4" fill-opacity=".8" d="M22.7 35.8l16.6-13.2L-.4 34.8l43.1 21.6z"/><circle r="1" fill="#243420" fill-opacity=".9" transform="matrix(-8.41706 17.34309 -32.33242 -15.69179 250 140.5)"/><path fill="#bfb9b1" fill-opacity=".5" d="M129 54h6v59h-6z"/><path fill="#a09381" fill-opacity=".6" d="M136.5 57.5l26.1-69.1-6.3 123.5 12.8-46.6z"/><path fill="#58584d" fill-opacity=".7" d="M45 27l101-43-22 32z"/><path fill="#918877" fill-opacity=".9" d="M173.3 16l13.6 9.3 19.2 46.1-32.6-4.7z"/><path fill="#20281b" fill-opacity=".4" d="M40 15.3l3.3-20.2 23.8 121.4-47 1.9z"/><circle cx="115" cy="162" r="21" fill="#1f2f0b" fill-opacity=".3"/><ellipse cx="184" cy="35" fill="#1f1a26" fill-opacity=".5" rx="100" ry="2"/><path fill="#1a0c18" fill-opacity=".5" d="M124 36h4v49h-4z"/><path fill="#2e5434" fill-opacity=".5" d="M166 72h77v14h-77z"/><path fill="#e7fefa" fill-opacity=".3" d="M31 63.5l-20.3 3 22.2-34.7L7.1 49.2z"/><path fill="#9f8e7e" fill-opacity=".3" d="M128.9 4l-8.8 37.9L53 69l11.9 10.9z"/><path fill="#fff" fill-opacity=".6" d="M95-13L49 13l-2-28z"/><path fill="#81675a" fill-opacity=".8" d="M257.9 185H249l8.8-18.1-45.7-26.3z"/><path fill="#1e2d1d" fill-opacity=".7" d="M245.8 48.7L201 37.6l21.1-13 12.6-37.4z"/><circle r="1" fill="#9ab9ba" fill-opacity=".4" transform="rotate(-22.6 87.8 -122.5) scale(30.42618 1)"/><path fill="#2b2324" fill-opacity=".6" d="M137 62h18v36h-18z"/><path fill="#948474" fill-opacity=".5" d="M-.1 91.7L-16 97.6v11.1l31.8.5z"/><path fill="#192a1c" fill-opacity=".5" d="M79.4 88.1l52.7 6.6-1.1 12.9-52.5 7.4z"/><path fill="#2d252a" fill-opacity=".6" d="M83 31h4v69h-4z"/><path fill="#ccd2de" fill-opacity=".4" d="M130 109l15 31-5-45z"/><path fill="#fff" fill-opacity=".5" d="M25 42l13 8-21-6z"/><path fill="#a09787" fill-opacity=".6" d="M130 24h81v9h-81z"/><path fill="#bdb8ae" fill-opacity=".3" d="M158.6 101.5l6.1-.3-1.1-41.2-5.2-12z"/><path fill="#e8f3ff" fill-opacity=".3" d="M269.9 45.4L241.6-16 271 37.4l-31.6 11.5z"/><path fill="#2c2026" fill-opacity=".5" d="M146.4 122.6l-8.3-18.9 29.4-1.4 6.4 16z"/><path fill="#69736d" fill-opacity=".6" d="M33.2 79.9L7.6 53.3 42 47.2 3.9 63.8z"/><path fill="#b5b1a7" fill-opacity=".5" d="M96.7 75.6L92.9 58l26.4-5.6 3.8 17.6z"/><circle r="1" fill="#a99c85" fill-opacity=".5" transform="matrix(-6.1493 12.95041 -44.91968 -21.32943 167 148)"/><path fill="#80776a" fill-opacity=".7" d="M193.6 150.1l-4.2-8.2-22.9-45.2 1.6 11.4z"/><path fill="#191300" fill-opacity=".6" d="M80.3 45L65 56.3 59.7 49 75 37.8z"/><path fill="#435737" fill-opacity=".5" d="M122.3 102.9L136 121 19.3 135.4l79.5 24.3z"/><path fill="#fff" fill-opacity=".5" d="M15 57h15v6H15z"/><path fill="#062d23" fill-opacity=".3" d="M10.9 64.7l-13-43 3.7 5.1-17.5 120z"/><path fill="#d3fff2" fill-opacity=".1" d="M27 144.4l43.7-19.8-17.6.1-13.7-6.6z"/><path fill="#cde0f6" fill-opacity=".4" d="M154.6 20.4l-3.9-14.8L138 1.9l1 22.9z"/><path fill="#443622" fill-opacity=".2" d="M203 31l6-21-70-14z"/><path fill="#0c0000" fill-opacity=".5" d="M137 61h18v5h-18z"/><path fill="#1b2724" fill-opacity=".4" d="M10 38.1L-16 107 6 39.6l43.4 27.2z"/></g></svg>