<svg xmlns="http://www.w3.org/2000/svg" viewBox="0 0 300 199"><defs/><path fill="#543e32" d="M0 0h300v199H0z"/><g transform="translate(.6 .6) scale(1.17188)"><circle r="1" fill="#fffff7" fill-opacity=".6" transform="matrix(-6.46815 84.01488 -14.73238 -1.13422 84.1 128.2)"/><ellipse cx="25" cy="26" fill="#110801" fill-opacity=".9" rx="46" ry="169"/><circle r="1" fill="#94867d" fill-opacity=".7" transform="matrix(31.17136 -4.10379 8.10562 61.56833 196.5 123.9)"/><circle r="1" fill="#171210" fill-opacity=".8" transform="matrix(28.3279 120.87269 -25.20002 5.90591 255 69.5)"/><circle r="1" fill="#080300" fill-opacity=".6" transform="rotate(-118.6 57 -20.7) scale(41.64701 22.24264)"/><ellipse cx="154" cy="143" fill="#d8cbba" fill-opacity=".8" rx="15" ry="7"/><circle r="1" fill="#372521" fill-opacity=".8" transform="matrix(-34.60493 -1.31955 .75625 -19.83247 145.3 114.6)"/><ellipse cx="156" cy="59" fill="#9d826a" fill-opacity=".6" rx="7" ry="52"/><circle r="1" fill="#fff" fill-opacity=".4" transform="matrix(-8.14544 -1.55383 8.24048 -43.19813 80.4 97.6)"/><path fill="#fff" fill-opacity=".5" d="M171 73h13v26h-13z"/><circle r="1" fill="#705f4e" fill-opacity=".6" transform="matrix(-10.37605 -4.36169 20.32448 -48.35002 94.6 159.9)"/><circle r="1" fill="#aea198" fill-opacity=".5" transform="rotate(24.8 -229.2 536) scale(14.78515 55.5964)"/><path fill="#624a3f" fill-opacity=".8" d="M200.6 66.2l28.7-49.3.1 72.4-49 41.6z"/><circle cx="135" cy="51" r="7" fill="#ffdfcd" fill-opacity=".5"/><path fill="#1c1400" fill-opacity=".5" d="M158 72L271 8l-96 24z"/><path fill="#000004" fill-opacity=".5" d="M147 71l-27 44 13 62z"/><ellipse cx="69" cy="38" fill="#1b0e00" fill-opacity=".6" rx="15" ry="42"/><path fill="#ffece3" fill-opacity=".3" d="M60 86l38 41-27-53z"/><circle r="1" fill="#b8b6ab" fill-opacity=".6" transform="matrix(8.9567 1.02148 -4.61386 40.45608 73.3 151.2)"/><ellipse cx="146" cy="22" fill="#927054" fill-opacity=".5" rx="25" ry="11"/><path fill="#0f1717" fill-opacity=".5" d="M219 121h37v20h-37z"/><ellipse cx="99" cy="98" fill="#a8856b" fill-opacity=".5" rx="5" ry="40"/><circle r="1" fill="#3b1a04" fill-opacity=".6" transform="rotate(-57 169.2 46.6) scale(41.29246 19.05358)"/><path fill="#060000" fill-opacity=".5" d="M95 21h28v39H95z"/><path fill="#392e13" d="M158.8 30.5l-4 15.9-1.3-1.6-33-6.2z"/><path fill="#fcdcc8" fill-opacity=".3" d="M152.6 83.3l-7.4 1.9 3.2-30.7 13.4-8.6z"/><path fill="#322309" fill-opacity=".7" d="M215.6-8.4L119.8 8.8 146.6-16l46.8 35.4z"/><circle r="1" fill="#656664" fill-opacity=".5" transform="matrix(-10.46204 8.38103 -21.00966 -26.22636 237 162.5)"/><path fill="#38354a" fill-opacity=".7" d="M146.1 54.9l-4.7 60.8-5.9.2-25.2-54.2z"/><path fill="#d1a18e" fill-opacity=".6" d="M193 116h27v16h-27z"/><path fill="#eeaa53" fill-opacity=".2" d="M99.4 17.8L79.4 43l16-38.6 59.4 48.3z"/><path fill="#2d1b1a" fill-opacity=".9" d="M116.4 70.9l40.1 17.4-21.9 18.4 5-39.9z"/><path fill="#a08b82" fill-opacity=".9" d="M188.7 73.4l13.6 6.7-17.5 17.8-4.5-39.9z"/><circle r="1" fill="#413624" fill-opacity=".7" transform="rotate(159.7 94.8 47.1) scale(11.6611 17.02501)"/><path fill="#543c2f" fill-opacity=".5" d="M146 95l5 43 52-30z"/><path fill="#fffffc" fill-opacity=".5" d="M95.6 44.4L84 72l-5.5-2.4L90 42z"/><path fill="#6f4c3c" fill-opacity=".9" d="M204.9 43.2l13.5-4.2 21.1 6.6-25.3 19.1z"/><path fill="#52608d" fill-opacity=".6" d="M122.2 62.6L117 73l38.3-16.1-11.8-3.8z"/><path fill="#170903" fill-opacity=".5" d="M225.3 76.4l5.4-21.4-13.9-14.8 11.5 42.3z"/><path fill="#ed7d11" fill-opacity=".4" d="M18 5h12v7H18z"/><path fill="#906e6a" fill-opacity=".6" d="M214 54l-11 38 29-11z"/><path fill="#6c453e" fill-opacity=".5" d="M73 101l-11 22 3-56z"/><circle r="1" fill="#000103" fill-opacity=".7" transform="matrix(3.3499 -22.29547 40.8949 6.14448 18 104.6)"/><path fill="#422f22" fill-opacity=".5" d="M88 155h93v15H88z"/><circle r="1" fill="#270f0a" fill-opacity=".5" transform="matrix(18.15182 -42.76301 1.96854 .8356 148 98.9)"/><path fill="#f7f3e6" fill-opacity=".5" d="M70.3 92l.4-11 27 1-.4 11z"/><path fill="#bfbcba" fill-opacity=".5" d="M206 102h24v11h-24z"/><path fill="#000002" fill-opacity=".5" d="M113-1L36 32v-48z"/><path fill="#000009" fill-opacity=".5" d="M147 113l-29-7 11 50z"/><path fill="#fff8e1" fill-opacity=".5" d="M139 42l4 3-12 14z"/><path fill="#e1ae9f" fill-opacity=".4" d="M85 21h4v15h-4z"/><path fill="#8e8270" fill-opacity=".4" d="M77 185l36-67-69 67z"/><ellipse cx="157" cy="92" fill="#fff9ef" fill-opacity=".5" rx="4" ry="5"/><path fill="#6a594e" fill-opacity=".6" d="M204 144l-40-61 17 53z"/><path fill="#0d0402" fill-opacity=".7" d="M231.6 35.5L250.5-3l27.9 13.6L259.5 49z"/><path fill="#7f726b" fill-opacity=".6" d="M244.4 113l-28.8 13.3-11-12.4 39.9-5.9z"/><path fill="#fbd7cf" fill-opacity=".3" d="M148.7 53.8l19.9 5.6-1.1-6-19-4.2z"/><path fill="#bcae9f" fill-opacity=".6" d="M146 139.4l35.9 12.5-21.8-3.2-26.4-.3z"/><path fill="#fdd9c7" fill-opacity=".6" d="M159 64.8l-10.3 19.4-1.7-1 10.3-19.4z"/><path fill="#120300" fill-opacity=".3" d="M166.6 107.9l50.8 9.8-40.1-17.6-12.4 47.5z"/><path fill="#5679c8" fill-opacity=".3" d="M129.2 76.1l-14.4 3.8-1.5-.8 26.2 13.4z"/><ellipse cx="116" cy="13" fill="#0a0500" fill-opacity=".5" rx="7" ry="54"/><path fill="#9b7b68" fill-opacity=".7" d="M152 31.8l-27.1.5 16-6.5 37.3.4z"/><circle r="1" fill="#2b2213" fill-opacity=".5" transform="matrix(-21.37885 -5.3312 3.6252 -14.53756 60 63.6)"/><path fill="#1c1d06" fill-opacity=".6" d="M165 81l38-56-27 3z"/></g></svg>