<svg xmlns="http://www.w3.org/2000/svg" viewBox="0 0 298 450"><defs/><path fill="#3a251a" d="M0 0h298v450H0z"/><g transform="translate(.9 .9) scale(1.75781)"><ellipse cx="112" cy="150" fill="#ffe7d3" fill-opacity=".6" rx="126" ry="206"/><circle r="1" fill="#3e1802" fill-opacity=".6" transform="rotate(-29.3 243 -127.1) scale(21.84017 53.42084)"/><circle r="1" fill="#47230f" fill-opacity=".5" transform="matrix(12.88531 2.458 -9.7511 51.11709 79.3 30.3)"/><circle r="1" fill="#e6eff6" fill-opacity=".5" transform="matrix(132.07163 -105.44233 16.39151 20.53117 156.7 231.4)"/><circle r="1" fill="#250b00" fill-opacity=".6" transform="matrix(1.62227 -11.78432 30.19055 4.15615 115.3 112.4)"/><path fill="#bcc2bf" fill-opacity=".6" d="M81 222L44-16l-60 278z"/><circle r="1" fill="#50240d" fill-opacity=".7" transform="matrix(13.57743 32.14227 -6.04872 2.55508 138.3 22.8)"/><ellipse cx="113" cy="56" fill="#ffc0ab" fill-opacity=".4" rx="28" ry="46"/><circle r="1" fill="#d2dcdc" fill-opacity=".7" transform="matrix(8.49483 37.4516 -21.9873 4.9872 43.3 0)"/><circle r="1" fill="#5e4838" fill-opacity=".6" transform="rotate(-83 23.7 15) scale(45.82236 18.01674)"/><circle r="1" fill="#c37446" fill-opacity=".4" transform="matrix(-39.76917 -25.1497 20.22616 -31.98359 107.8 190)"/><circle r="1" fill="#feefef" fill-opacity=".4" transform="matrix(11.49794 11.78118 -44.1259 43.06502 169 117)"/><path fill="#230b00" fill-opacity=".5" d="M98.9-16l14 27.3 46-27.3-88.5 34.4z"/><path fill="#884c2a" fill-opacity=".5" d="M140 12h16v102h-16z"/><path fill="#080000" fill-opacity=".5" d="M125 117L71 65l26 66z"/><path fill="#def8ff" fill-opacity=".4" d="M129.9-16H185l-14.6 154.9-7.2-114.5z"/><path fill="#946a42" fill-opacity=".5" d="M117.3 145.9L51.2 60.7l28.1 72.8 48.2 50.6z"/><path fill="#1f0904" fill-opacity=".3" d="M122.4 40.3l-1.5 5.1L77.6 65 65.1 49.7z"/><circle r="1" fill="#858072" fill-opacity=".5" transform="matrix(-1.0993 -9.972 49.18963 -5.42264 22.6 168.7)"/><path fill="#fdd3bf" fill-opacity=".6" d="M146 67l-42 10-11-32z"/><circle r="1" fill="#b8734f" fill-opacity=".5" transform="matrix(-40.3135 31.7236 -9.59966 -12.19899 75.5 242.3)"/><circle r="1" fill="#96734c" fill-opacity=".6" transform="matrix(-10.36077 23.98448 -5.54293 -2.39443 61.4 76.1)"/><circle r="1" fill="#deb786" fill-opacity=".4" transform="matrix(23.73696 7.5298 -8.76995 27.6464 83.1 162.2)"/><ellipse cx="8" cy="120" fill="#b7b5ad" fill-opacity=".7" rx="60" ry="31"/><circle r="1" fill="#d09d90" fill-opacity=".4" transform="matrix(-12.88986 -10.97013 15.84302 -18.61548 100.4 27.7)"/><path fill="#92684e" fill-opacity=".7" d="M67.6 201.3l-11.1-21.6 33.7 47.4 11.9-44.7z"/><path fill="#faffff" fill-opacity=".4" d="M69.5 200l7.1 11-20.1 13-7.1-11z"/><path fill="#d7d9d8" fill-opacity=".6" d="M187.1 169.6l-26.4 37.7-9.8-6.9 26.4-37.7z"/><path fill="#c1c3ba" fill-opacity=".4" d="M13.1 46.7l29.3 24.5L86.5-16l-74 52.4z"/><path fill="#f5cebd" fill-opacity=".4" d="M79.9 65.2l60-23.2-15.7 14.9-37.8 22.7z"/><circle r="1" fill="#d19178" fill-opacity=".5" transform="rotate(102.3 7.7 143.8) scale(29.8197 15.8793)"/><circle r="1" fill="#754028" fill-opacity=".4" transform="rotate(49.4 -53.5 201) scale(13.59028 27.50707)"/><ellipse cx="114" cy="157" fill="#5f2e10" fill-opacity=".5" rx="6" ry="11"/><path fill="#9fa1a5" fill-opacity=".8" d="M57 235l-65-2 24 38z"/><path fill="#6f4c36" fill-opacity=".7" d="M56-16l93 35-16-34z"/><circle r="1" fill="#8c7568" fill-opacity=".4" transform="rotate(-65.9 238.3 -3.8) scale(4.10276 24.79093)"/><path fill="#251307" fill-opacity=".7" d="M89 129.5l36.3-28.9 9.8 19.5-46.8-28.8z"/><path fill="#52341a" fill-opacity=".3" d="M95 64.4L59.8 50.1l3.8-43 33.7 55.2z"/><circle cx="30" cy="211" r="36" fill="#b7bfc9" fill-opacity=".3"/><path fill="#433e34" fill-opacity=".7" d="M-16 46l26.2-62 19.2 46.1-2.2-3.1z"/><circle r="1" fill="#9b664c" fill-opacity=".5" transform="rotate(130.6 -13 35.8) scale(36.34154 10.74157)"/><path fill="#c6c9ce" fill-opacity=".5" d="M120.9 138.5l3-10.5 19.2 5.5-3 10.5z"/><path fill="#c8c4b4" fill-opacity=".4" d="M30.5 150.2l33.1-70.8 6.3 12.2 7.1 7.7z"/><ellipse cx="26" cy="152" fill="#e1b788" fill-opacity=".5" rx="52" ry="8"/><path fill="#fccaa3" fill-opacity=".5" d="M73 175h37v9H73z"/><path fill="#dfe2e3" fill-opacity=".4" d="M187.5 272.3l-63.3-14.6 8.3-36 63.3 14.6z"/><path fill="#edf4ef" fill-opacity=".4" d="M185 98.4l-34.5 20 12.2-25.5 22.3 5.7z"/><path fill="#331c10" fill-opacity=".5" d="M72 15h6v59h-6z"/><path fill="#f1bea3" fill-opacity=".5" d="M124 26l19 48-29 30z"/><path fill="#a3794f" fill-opacity=".7" d="M85.5 152l8.7-16.1-10.3-31.5-11.3 27z"/><circle r="1" fill="#cac7bd" fill-opacity=".5" transform="rotate(-31.1 258.7 -44.4) scale(8.32393 32.69008)"/><path fill="#c39f85" fill-opacity=".5" d="M142.3 190.9l-29.5-43.6-3.2-11.3 6.7 1.4z"/><circle r="1" fill="#be906e" fill-opacity=".4" transform="matrix(-7.45386 9.5749 -23.54058 -18.32584 155.7 75.9)"/><path fill="#734e44" fill-opacity=".5" d="M112.6 36l7.5 10.6-10.7 7.5-7.5-10.7z"/><path fill="#290b01" fill-opacity=".3" d="M107.2 142.3l-12.6-15.4.7-60.4 20.6 53.2z"/><path fill="#4c4f50" fill-opacity=".2" d="M16 203l-1 68-25-6z"/><path fill="#a86b49" fill-opacity=".4" d="M141.1 119l-16.6-14.4L147 79l16.6 14.4z"/><path fill="#422504" fill-opacity=".1" d="M15.7 95.6l45.3 7.1-6.7-17.5L-16 73.3z"/><path fill="#75411d" fill-opacity=".3" d="M122.4 271H15.9l81.9-65.9L30.2 271z"/><path fill="#201517" fill-opacity=".5" d="M93.6 51.3l-.2 6-17-.6.2-6z"/><path fill="#7e5129" fill-opacity=".5" d="M97.6 98.4l1.6 48.2-9.7 27.9 7.9 1.7z"/><circle r="1" fill="#5a0000" fill-opacity=".4" transform="matrix(-8.34985 2.53933 -.51644 -1.69816 117.7 181.6)"/><path fill="#544030" fill-opacity=".7" d="M-15.9 36.1L5.3 5.7l7.2 52.1-2.7 6.7z"/><path fill="#bd7b6d" fill-opacity=".6" d="M96.2 84.1l9-20.5 1.4 14.4 16.8 5z"/><path fill="#150900" fill-opacity=".3" d="M101.5 97.7L77.7 73.5l-3 23.3 71.4 28.4z"/></g></svg>