<svg xmlns="http://www.w3.org/2000/svg" viewBox="0 0 300 199"><defs/><path fill="#63392f" d="M0 0h300v199H0z"/><g transform="translate(.6 .6) scale(1.17188)"><ellipse cx="124" cy="18" fill="#f5f8f8" fill-opacity=".9" rx="23" ry="58"/><circle cy="105" r="104" fill="#030002" fill-opacity=".8"/><circle r="1" fill="azure" fill-opacity=".3" transform="matrix(-30.42683 -73.82103 19.06878 -7.85958 163.5 23.8)"/><circle r="1" fill="#020606" fill-opacity=".7" transform="matrix(13.89683 61.15393 -28.46885 6.46936 227 25.7)"/><path fill="#160904" fill-opacity=".6" d="M159.4 60.6l-21.6 7.8-11.2-31 21.6-7.8z"/><ellipse cx="172" cy="10" fill="#fff" fill-opacity=".8" rx="6" ry="35"/><path fill="#7b8d9c" fill-opacity=".7" d="M106 119L84 41l52 50z"/><circle r="1" fill="#030603" fill-opacity=".6" transform="matrix(-46.75134 15.22721 -8.36644 -25.68705 111.5 169)"/><path fill="#fff" fill-opacity=".4" d="M86 0h67v31H86z"/><circle cx="34" cy="9" r="46" fill="#120607" fill-opacity=".9"/><ellipse cx="157" cy="13" fill="#000b17" fill-opacity=".5" rx="8" ry="37"/><path fill="#fbf9f4" fill-opacity=".6" d="M174.8 19.6L171.9-16l-7.1 59.2 35.7.3z"/><circle r="1" fill="#765f56" fill-opacity=".8" transform="rotate(86.9 48.6 148.8) scale(37.02374 23.89417)"/><circle r="1" fill-opacity=".5" transform="matrix(-4.71198 -32.31477 2.1713 -.3166 104.9 54.3)"/><path fill="#fff" fill-opacity=".7" d="M110 0h12v77h-12z"/><path fill="#fbfafc" fill-opacity=".5" d="M150.7 37l-.6 3.9-17.6-50.4 23.9 36.7z"/><path fill="#cfd9e1" fill-opacity=".5" d="M119.1 140.6l-6.8 4.5-5.4-38.2 8.4 22.9z"/><circle r="1" fill="#8e887a" fill-opacity=".5" transform="matrix(-14.22958 -24.94711 12.95864 -7.39148 178.9 169)"/><path fill="#271107" fill-opacity=".5" d="M126 29.1l22.7 28-4.7 3.8-22.7-28z"/><path fill-opacity=".5" d="M75-16l20 4 4 27z"/><path fill="#060608" fill-opacity=".7" d="M51 109h57v61H51z"/><circle r="1" fill="#462e22" fill-opacity=".6" transform="rotate(104.3 27 114) scale(27.01088 33.15888)"/><path fill="#fafffb" fill-opacity=".3" d="M168.8 100l2.4-3.5 19-24.1 14.8 3.7z"/><path fill="#e0e9fb" fill-opacity=".4" d="M132.5 91.8l-33.6 1.4 21.4 19.4-18.2-34.7z"/><circle r="1" fill="#48241b" fill-opacity=".5" transform="rotate(143.1 83.2 66.2) scale(49.4789 6.5909)"/><path fill="#937367" fill-opacity=".6" d="M215.4 121.2l12.4 21.8 8.1 6 3.3-32.3z"/><circle r="1" fill="#997b6d" fill-opacity=".8" transform="rotate(22.8 -65 448.3) scale(9.94376 20.09161)"/><circle cx="123" cy="6" r="25" fill="#fff" fill-opacity=".6"/><path fill="#f9fcf2" fill-opacity=".5" d="M85.1 4.1l4.7-.2 7 12.5.4 24z"/><circle r="1" fill="#fff" fill-opacity=".5" transform="rotate(80.8 27.2 102) scale(17.86046 14.72592)"/><path fill="#5f433a" fill-opacity=".5" d="M232.3 91.4l-52.8-68-4.6-6 4.4-33.4z"/><path fill="#161417" fill-opacity=".7" d="M43-16l29.9 91.9 15.8-54.6L110.8 74z"/><ellipse cx="251" cy="85" fill="#532e24" fill-opacity=".8" rx="14" ry="35"/><path fill="#41322d" fill-opacity=".7" d="M147.2 70.1l16.8 3.2-44.8 14.8-7.4-7.6z"/><path fill="#e7d0cd" fill-opacity=".7" d="M117.1 116.4l1.5-3.6-16.5-102.2 12.1 90.3z"/><path fill="#a8c9e9" fill-opacity=".5" d="M86 54l15 6-19-21z"/><path fill="#e7e3e2" fill-opacity=".6" d="M154 27.2l12-6.7-35.9 4.8 3.5 10.7z"/><circle r="1" fill="#16222d" fill-opacity=".7" transform="rotate(75.5 -6.6 102.5) scale(36.95812 2.37631)"/><path fill="#201816" fill-opacity=".5" d="M152 103l-6-55 42 93z"/><path fill="#fff" fill-opacity=".5" d="M195.7 33.3l-.5 5-18.9-1.6.5-5z"/><circle cx="221" r="34" fill="#080f12" fill-opacity=".5"/><path fill="#3c2431" fill-opacity=".5" d="M101.5 15.8l9 61.8-23.2-90.7 9.1 8.3z"/><circle r="1" fill="#362011" fill-opacity=".6" transform="rotate(143.3 46 96) scale(14.78158 29.78143)"/><path fill="#fff" fill-opacity=".7" d="M126.3 85.5l.8 2.9-13.4 4-.8-2.8z"/><path fill="#f1f4f3" fill-opacity=".7" d="M165.4-.9l3.2 50.9-9.3-6.9 22-15.9z"/><path fill="#775342" fill-opacity=".7" d="M147.8 115.6l-16-44.9-5.4 30.1L142 125z"/><path fill="#00000e" fill-opacity=".5" d="M105.7 67l-6.9 13.8-4.2-19.7 18.7 26.6z"/><circle r="1" fill="#282421" fill-opacity=".5" transform="rotate(130.8 60.5 54.7) scale(5.04837 18.37388)"/><circle r="1" fill="#481f17" fill-opacity=".5" transform="matrix(-62.54409 109.42851 -20.26504 -11.58252 255 160.6)"/><ellipse cx="153" cy="1" fill="#152942" fill-opacity=".5" rx="5" ry="22"/><path fill="#795348" fill-opacity=".9" d="M137 109.9l45.8-68.6-9.5 6.7 10.4.9z"/><path fill="#f1ebe0" fill-opacity=".5" d="M155 72l15-18-5 16z"/><circle r="1" fill="#ffe3d7" fill-opacity=".3" transform="matrix(-4.09393 3.21005 -4.6525 -5.93355 112.3 134.2)"/><path fill="#160e09" fill-opacity=".5" d="M206.2 20.4l44.5-2-21.1 85.8-3.9-4.2z"/><path fill="#4a3f3c" fill-opacity=".9" d="M92.4 45.3L75.2-.5l18.9 8.1L80.3-16z"/><path fill="#754b3c" fill-opacity=".6" d="M188 158l-29-52-10 23z"/><circle r="1" fill="#63514b" fill-opacity=".6" transform="rotate(-97.7 152.3 -38) scale(27.48644 19.13927)"/><circle r="1" fill="#8ca7c3" fill-opacity=".6" transform="rotate(-109.1 86.8 11.6) scale(26.72158 1)"/><path fill="#35241a" fill-opacity=".5" d="M163.4 28.9l-11.7 48-19.8 8.9 10.5-47.6z"/><path fill="#f3fff8" fill-opacity=".1" d="M179 126.7l-8.4-26.5 20.7-33.4 5.9 57.8z"/><path fill="#e4f9ff" fill-opacity=".6" d="M102.4 68.9l-.9.4-7.9-16.2.9-.4z"/><path fill="#1d1618" fill-opacity=".9" d="M89.7 44.1l16.4 21.8-9.3-44.1 2.3 17.3z"/><circle r="1" fill="#fff" fill-opacity=".6" transform="matrix(-4.43566 19.21296 -7.65652 -1.76765 121.5 57.2)"/><circle r="1" fill="#3a221a" fill-opacity=".5" transform="matrix(-26.90597 -11.12244 2.14316 -5.18445 202.3 141.7)"/><path fill="#5c4b4a" fill-opacity=".8" d="M149.3 36.1l-3.3-7-17.3 27.8 30.2-27.1z"/></g></svg>