<svg xmlns="http://www.w3.org/2000/svg" viewBox="0 0 300 199"><defs/><path fill="#564430" d="M0 0h300v199H0z"/><g transform="translate(.6 .6) scale(1.17188)"><path fill="#eff9f7" fill-opacity=".8" d="M6.7 58.2L.9-7.5l168.4-14.7 5.8 65.7z"/><circle r="1" fill="#dddbd8" fill-opacity=".8" transform="matrix(16.66791 3.14943 -12.6341 66.86406 235.2 8)"/><circle r="1" fill="#c9def0" fill-opacity=".7" transform="rotate(-99.9 94 56.3) scale(60.01713 22.60903)"/><circle r="1" fill="#9a8682" fill-opacity=".8" transform="matrix(-29.7075 9.5239 -33.1969 -103.54978 205.3 143.2)"/><circle r="1" fill="#2c391d" fill-opacity=".8" transform="matrix(-8.49641 -19.72845 16.13417 -6.94847 79.4 43.2)"/><ellipse cx="131" cy="130" fill="#071111" fill-opacity=".7" rx="48" ry="27"/><circle r="1" fill="#b7cba3" fill-opacity=".5" transform="rotate(143.7 54.4 57) scale(17.37309 46.82654)"/><circle r="1" fill="#d6e1e2" fill-opacity=".7" transform="matrix(53.62684 14.7713 -6.05825 21.99435 10 37)"/><path fill="#f8f8f9" fill-opacity=".8" d="M133.1 49.2l-19.2-23 59-49.4L192-.2z"/><circle r="1" fill="#8d796f" fill-opacity=".7" transform="rotate(160.2 110.8 52) scale(81.97434 20.8241)"/><ellipse cx="195" cy="28" fill="#000003" fill-opacity=".7" rx="22" ry="23"/><path fill="#fff" fill-opacity=".4" d="M260 27l-35.6 13-16.5-45 35.7-13z"/><path fill="#011125" fill-opacity=".6" d="M99 68h25v102H99z"/><ellipse cx="34" cy="161" fill="#9fa99e" fill-opacity=".4" rx="75" ry="31"/><path fill="#94a47c" fill-opacity=".4" d="M119 53L-3 96l82 10z"/><circle cx="208" cy="164" r="34" fill="#a7999b" fill-opacity=".8"/><ellipse cx="255" cy="120" fill="#00180a" fill-opacity=".6" rx="23" ry="37"/><circle r="1" fill="#f7f6f5" fill-opacity=".5" transform="matrix(53.70887 40.68181 -17.30447 22.84568 104.5 3.1)"/><path fill="#6f4f3d" fill-opacity=".6" d="M197 138l50-55-128 19z"/><circle r="1" fill="#e1e6e7" fill-opacity=".9" transform="matrix(-53.69346 25.6936 -12.11162 -25.31038 17.1 21.7)"/><circle r="1" fill="#01190d" fill-opacity=".6" transform="rotate(-162.3 49.6 52) scale(16.06125 15.14462)"/><path fill="#12291a" fill-opacity=".4" d="M9 74l21-25 31 27z"/><path fill="#cdc8a4" fill-opacity=".3" d="M132.6 67.5l92.1.6-101.3 37.2-2.3-6.1z"/><path fill="#000b01" fill-opacity=".6" d="M0 103h33v15H0z"/><path fill="#586742" fill-opacity=".5" d="M215.3 65.4l-166-22.6 28.7-29-4.8 21.8z"/><path fill="#050000" fill-opacity=".5" d="M165 105h11v51h-11z"/><path fill="#172b19" fill-opacity=".5" d="M93 52L69 27l-12 73z"/><path fill="#efd0b8" fill-opacity=".5" d="M28 56h5v27h-5z"/><path fill="#9d8279" fill-opacity=".9" d="M202 60l31 31.5 5.7.2-23.6-57.3z"/><path fill="#405e3c" fill-opacity=".3" d="M236 27h20v92h-20z"/><path fill="#517a52" fill-opacity=".5" d="M183.5 65L154 82l-15.5-27L168 38z"/><path fill="#0c231d" fill-opacity=".4" d="M48.5 98.2l69-9.7 3.9-48.4 18 24.7z"/><path fill="#c2c9cc" fill-opacity=".7" d="M86 165l-41-49 11-17z"/><path fill="#e2e4e2" fill-opacity=".4" d="M170 10h7v53h-7z"/><circle cx="110" cy="57" r="9" fill="#e2c3a9" fill-opacity=".5"/><path fill="#a2b48e" fill-opacity=".4" d="M34 95h62v8H34z"/><circle r="1" fill="#fff" fill-opacity=".5" transform="rotate(-163.5 116.2 -7.5) scale(10.78883 20.93251)"/><path fill="#150d10" fill-opacity=".5" d="M222 0l-49 19 8 40z"/><path fill="#979f7b" fill-opacity=".5" d="M59 10l46 40-21-33z"/><path fill="#99a0aa" fill-opacity=".7" d="M26 185l57-25-53-31z"/><path fill="#d5e7ec" fill-opacity=".4" d="M30 55l34-16-4 23z"/><path fill="#000301" fill-opacity=".6" d="M275.6 160.9l-18 10.8-23.2-38.6 18-10.8z"/><circle r="1" fill="#fef3fe" fill-opacity=".5" transform="matrix(8.38819 .72792 -.26243 3.0241 208.4 0)"/><path fill="#edeeed" fill-opacity=".8" d="M116.4 28.3l52.1 12.6L183.1-16H-1.7z"/><ellipse cx="204" cy="136" fill="#a4908d" fill-opacity=".4" rx="30" ry="17"/><path fill="#040a06" fill-opacity=".3" d="M56 100l24 45 98-1z"/><path fill="#7a7560" fill-opacity=".9" d="M245.5 47L271 21.3 243.4-1.6 264.1-16z"/><path fill="#cec598" fill-opacity=".5" d="M154.7 72.5l2.1 11.8-29.5 5.2-2.1-11.8z"/><path fill="#ac9376" fill-opacity=".5" d="M66.1 87.4l10.2-3.9L45 79 30.6 91.4z"/><path fill="#040407" fill-opacity=".5" d="M48 64L38 87l-4-30z"/><path fill="#525440" fill-opacity=".6" d="M228.2 46.1l4.2-7.7L271 54.3l-11.9 28.3z"/><path fill="#131018" fill-opacity=".2" d="M170.2 22.3l24.4 39.5L223.1-.1l-41.6 6.5z"/><path fill="#040c23" fill-opacity=".4" d="M96 70h26v50H96z"/><path fill="#5f703f" fill-opacity=".5" d="M160.7 79l-11.4 28.9-22 6.4-5.8-7.1z"/><path fill="#1d4323" fill-opacity=".5" d="M-8.1 67.5l31.5-5.6 4.7 26.6-31.5 5.6z"/><circle r="1" fill="#505649" fill-opacity=".5" transform="matrix(-33.8597 -17.07725 4.48716 -8.89686 153 167.4)"/><path fill="#2a351c" fill-opacity=".6" d="M59 97l13-3-16-33z"/><path fill="#4b180f" fill-opacity=".5" d="M219 102l-4-30 17 19z"/><path fill="#edeeed" fill-opacity=".8" d="M209.9-14.4L111.6-16 95.5 42.2l36.9 2.2z"/><path fill="#bec4b8" fill-opacity=".9" d="M141 67.3l-13.6 5 19.1 1.1-.8 4.5z"/><path fill="#696243" fill-opacity=".5" d="M99 136l18 49H62z"/><path fill="#ebece2" fill-opacity=".5" d="M77 31V13l12-9z"/><path fill="#ecd8c8" fill-opacity=".1" d="M50.3 79.1l-11 .2-5 26.3 64.3-41.2z"/><circle r="1" fill="#070c00" fill-opacity=".6" transform="matrix(5.4837 -10.92766 25.00652 12.54872 150 135.6)"/><path fill="#948f6a" fill-opacity=".4" d="M15 77L2 78l25 11z"/></g></svg>