<svg xmlns="http://www.w3.org/2000/svg" viewBox="0 0 298 450"><defs/><path fill="#4a3b25" d="M0 0h298v450H0z"/><g transform="translate(.9 .9) scale(1.75781)"><circle r="1" fill="#f8fff1" fill-opacity=".6" transform="matrix(50.8017 9.44454 -18.43108 99.13982 143.8 139)"/><circle r="1" fill="#917c6c" transform="matrix(26.07603 -8.02203 10.21215 33.19511 100.7 108.7)"/><circle r="1" fill="#827e6e" fill-opacity=".9" transform="rotate(161.5 12.3 132.9) scale(89.95881 24.06495)"/><circle r="1" fill="#000b25" fill-opacity=".7" transform="rotate(-73.3 148.7 51.3) scale(57.56295 38.6333)"/><ellipse cx="133" cy="78" fill="#f7fffc" fill-opacity=".6" rx="28" ry="21"/><ellipse cx="10" cy="65" fill="#747354" fill-opacity=".9" rx="13" ry="200"/><circle r="1" fill="#f0e7df" fill-opacity=".5" transform="matrix(-19.30522 -21.21616 33.0479 -30.07128 128.5 191.6)"/><circle r="1" fill="#243217" fill-opacity=".5" transform="matrix(-6.30206 .35585 -4.16746 -73.80584 165.7 63.2)"/><path fill-opacity=".5" d="M128 146l-26-58 24 14z"/><ellipse cx="46" cy="111" fill="#101313" fill-opacity=".6" rx="24" ry="54"/><path fill="#e8d9c9" fill-opacity=".5" d="M93 138L67.4 99.8 79 92l25.8 38.2z"/><circle r="1" fill="#5d5c44" fill-opacity=".8" transform="matrix(27.56635 -19.99462 13.60351 18.75501 148.8 245.1)"/><circle r="1" fill="#77613d" fill-opacity=".5" transform="matrix(-16.90475 -10.87437 22.69162 -35.27525 110.7 39.4)"/><path fill="#e2eede" fill-opacity=".5" d="M106 73l49-35 9 87z"/><path fill="#16180a" fill-opacity=".6" d="M5.7 271L98 243.2l-16 26.3 53 1.5z"/><path fill="#c2d1fc" fill-opacity=".3" d="M94 147h15v109H94z"/><path fill="#9e8978" fill-opacity=".5" d="M185 216.3l-69.2-29.9 9.9 25.9 5.6 23z"/><path fill="#bebaba" fill-opacity=".5" d="M101.6 224.9l4.4-8.4-92 36.9 79.8-17.7z"/><ellipse cx="139" cy="145" fill="#829459" fill-opacity=".6" rx="35" ry="11"/><path fill="#19171d" fill-opacity=".9" d="M87.3 132.7l10.8 6.4-8.5 20-19.2-11.7z"/><path fill="#e0c9bd" fill-opacity=".7" d="M82.2 103l10.1-25 7.5 3-10.1 25z"/><path fill="#948191" fill-opacity=".6" d="M82 199.4l6.6-22.9 7.3 22.7-14.9-2.6z"/><path fill="#c5d1b7" fill-opacity=".7" d="M157 18.8l.3 14.4L141 43.9l24.5 105.3z"/><path fill="#071023" fill-opacity=".6" d="M66 229.9L6.3 242.8l85.6-41.2 1.8 23.1z"/><path fill="#f3edd5" fill-opacity=".5" d="M110 156h57v21h-57z"/><path fill="#251900" fill-opacity=".6" d="M24 79h64v13H24z"/><path fill="#dbb8a5" fill-opacity=".7" d="M123.1 131.8l-4.4 7.6-21.4-4 6.3-8.3z"/><path fill="#5c6249" fill-opacity=".8" d="M163.1 102.8l5.5-87.5L185 262.7 170.2 194z"/><circle r="1" fill="#151300" fill-opacity=".6" transform="rotate(-74.7 29.4 -15.2) scale(36.19003 6.18188)"/><circle r="1" fill-opacity=".5" transform="rotate(79.9 -97.7 114.2) scale(41.53001 7.93585)"/><path fill="#190000" fill-opacity=".5" d="M93 94.4l11.2-10 4.7 5.2-11.1 10z"/><path fill="#c2afa1" fill-opacity=".5" d="M16 66h4v75h-4z"/><ellipse cx="2" cy="245" fill="#5b5940" fill-opacity=".8" rx="17" ry="75"/><path fill="#2a1911" fill-opacity=".5" d="M114 94h8v35h-8z"/><path fill="#393002" fill-opacity=".2" d="M129.1 225.5l40.8 4.7-48.9 20-33.7-13.6z"/><circle cx="57" cy="120" r="19" fill="#1b233c" fill-opacity=".7"/><path fill="#abaaa7" fill-opacity=".3" d="M74.9 228.5L25.3 239l-2.1 14.5 53.6-13.8z"/><path fill="#d3dacc" fill-opacity=".8" d="M104.2 79.2l-2.9-5.5 61.3 12.6-25.3 24.8z"/><path fill="#d59474" fill-opacity=".5" d="M110 122l8-11-13-6z"/><path fill="#23273a" fill-opacity=".8" d="M90.4 161.3l5.8 17-24.6 8.4-5.8-17z"/><path fill="#124b01" fill-opacity=".2" d="M123.2 154.6l3.8-10.5 32.6 9.6-52.2 8.3z"/><path fill="#a2ce8e" fill-opacity=".4" d="M130 112h34v36h-34z"/><circle r="1" fill="#7d6946" fill-opacity=".6" transform="rotate(-68.6 85 -56.6) scale(23.32974 9.91147)"/><path fill="#000003" fill-opacity=".5" d="M125.3 55.3L102.5 73l-1.8-2.4L123.5 53z"/><path fill="#d8cea2" fill-opacity=".4" d="M185 225l-99-66 80 21z"/><path fill="#c0c8dd" fill-opacity=".4" d="M96 148h19v72H96z"/><ellipse cx="15" cy="162" fill="#c2afa0" fill-opacity=".5" rx="2" ry="38"/><path fill="#8dac71" fill-opacity=".5" d="M108.9 87.9l7.2 10.8 1.4-5.2L117 69z"/><path fill="#4b3d1b" fill-opacity=".6" d="M34 69l58-85-6 103z"/><path fill="#070c0e" fill-opacity=".5" d="M59 184l-40 61 5-110z"/><path fill="#2f2816" fill-opacity=".6" d="M99 66h4v18h-4z"/><path fill="#3c3514" fill-opacity=".4" d="M0 251h96v5H0z"/><path fill="#dfe2da" fill-opacity=".5" d="M125 58l30-24-2 86z"/><ellipse cx="118" cy="255" fill="#96968c" rx="2" ry="20"/><path fill="#e0ddf2" fill-opacity=".4" d="M72 100l5 22 8 1z"/><path fill="#351f0f" fill-opacity=".4" d="M100 124l27-16-2 21z"/><path fill="#332e1e" fill-opacity=".7" d="M138.5 47.5l35-63.5 6 30.5-91 65.2z"/><path fill="#423f20" fill-opacity=".6" d="M110 239h8v17h-8z"/><path fill="#524048" fill-opacity=".5" d="M71.6 134.7l45.3 7.8-4.7 5.6-61.3-42.7z"/><path fill="#e2b6b9" fill-opacity=".5" d="M87 177h3v19h-3z"/><path fill="#211c05" fill-opacity=".4" d="M71 81l-49 75 3-110z"/><path fill="#897541" fill-opacity=".3" d="M53.9 32.3l13.2 1.8-18.2 30.2L31.2 42z"/><path fill="#1a1503" fill-opacity=".4" d="M105.8-16L81.6 8 50.2 73.1l28.1-40.5z"/><path fill="#7c371c" fill-opacity=".5" d="M103 95l3 11-16 6z"/><path fill="#4a492b" fill-opacity=".4" d="M39.4 110.4l-20.1-1.2-1.4 52.8 17.8-37.6z"/></g></svg>