<svg xmlns="http://www.w3.org/2000/svg" viewBox="0 0 298 450"><defs/><path fill="#6b483c" d="M0 0h298v450H0z"/><g transform="translate(.9 .9) scale(1.75781)"><circle r="1" fill="#ffffec" fill-opacity=".4" transform="matrix(26.14663 -38.76677 59.97676 40.45191 105.5 206.9)"/><path fill="#000001" fill-opacity=".6" d="M-16-5L9 257 162-16z"/><circle r="1" fill="#fdb999" fill-opacity=".4" transform="matrix(-42.69336 -26.1444 11.69655 -19.10026 83.5 85.1)"/><circle r="1" fill="#000100" fill-opacity=".5" transform="rotate(-167.9 82 24.7) scale(31.25006 94.64441)"/><circle r="1" fill="#000001" fill-opacity=".6" transform="matrix(45.08445 -26.66287 18.9096 31.9744 27 255)"/><circle r="1" fill="#c3a18a" fill-opacity=".7" transform="matrix(9.7991 -26.11728 29.28928 10.98922 67 184)"/><ellipse cx="18" cy="70" fill="#030406" fill-opacity=".8" rx="21" ry="191"/><path fill="#1c110b" d="M107.3 152.7l31.2 8.7 17.1-61.5-44.6 38.7z"/><ellipse cx="54" cy="198" fill="#a67963" fill-opacity=".8" rx="10" ry="36"/><path fill="#b8886d" fill-opacity=".6" d="M132.2 90l-36.8 79-23.6-11 36.8-79z"/><path fill="#b6ab9e" fill-opacity=".7" d="M64.4 271h74l21.1-88.3-13.9-26.1z"/><path fill="#af7c6c" fill-opacity=".5" d="M94.9 91.2l-54.1 8.9-9.6-8.8 54.2-41.6z"/><circle r="1" fill="#7a4835" fill-opacity=".6" transform="rotate(-124 145.6 70) scale(29.28329 12.93264)"/><circle r="1" fill="#c0a77f" fill-opacity=".5" transform="matrix(-2.84782 -2.2815 9.44537 -11.78997 47.8 43.9)"/><circle r="1" fill="#151e1a" fill-opacity=".6" transform="matrix(-7.18343 -9.9968 26.1844 -18.8154 118.4 63.5)"/><path fill="#d6fff2" fill-opacity=".4" d="M-16 176.4l17.7 19.7 7.4 30.5-25.1-8.7z"/><circle r="1" fill="#030000" fill-opacity=".7" transform="matrix(-93.14644 59.11253 -10.76497 -16.96288 52.3 12)"/><path fill="#090400" fill-opacity=".5" d="M58 69l32-50-48 40z"/><path fill="#c8cbc3" fill-opacity=".6" d="M106.4 213.5l-41-21 12.2-24 41 21z"/><circle r="1" fill="#090705" fill-opacity=".6" transform="matrix(-17.55995 -10.47674 17.30856 -29.01071 61.7 126.9)"/><ellipse cx="153" cy="29" fill="#161c19" fill-opacity=".7" rx="81" ry="48"/><circle r="1" fill="#05090b" fill-opacity=".7" transform="rotate(-105.3 109.7 110.3) scale(51.89999 21.6227)"/><path fill="#54514f" fill-opacity=".6" d="M64.7 89.7l-84.9 49-2.5-4.4 84.9-49z"/><circle cx="119" cy="169" r="17" fill="#8a2200" fill-opacity=".2"/><ellipse cx="110" cy="107" fill="#a57968" fill-opacity=".5" rx="21" ry="20"/><path fill-opacity=".3" d="M59 188h8v65h-8z"/><circle r="1" fill="#7f4e2f" fill-opacity=".4" transform="rotate(114.5 47.7 92.4) scale(13.56521 18.43655)"/><path fill="#c3988a" fill-opacity=".5" d="M94.9 61.6L91 71 65 60.5l4-9.5z"/><path fill="#120000" fill-opacity=".4" d="M130.8 141.3l-3 6.4-70.6-33 3-6.4z"/><path fill="#010506" fill-opacity=".6" d="M134 101l-12 37 63-12z"/><circle r="1" fill="#b48d73" transform="rotate(15.6 -605.7 292) scale(16.07718 14.42919)"/><circle r="1" fill="#a77c62" fill-opacity=".5" transform="matrix(9.18752 32.906 -3.22309 .8999 49 86.8)"/><path fill="#4e3023" fill-opacity=".5" d="M103.4 99.6l-65.7-.3 58.5-10.4 50.6 37z"/><path fill="#ba8d70" fill-opacity=".6" d="M140 204l-75-48 28-25z"/><path fill="#aea69a" fill-opacity=".4" d="M67.6 242.7l1.6-12.5-6.6-46.1 99.6 21.2z"/><path fill="#150500" fill-opacity=".6" d="M99.5 72.4l.6 3-21.6 4.2-.6-3z"/><path fill="#cc907a" fill-opacity=".3" d="M129.4 131.8L87 120.3 72.9 46 62.1 92.1z"/><circle r="1" fill="#4e3131" fill-opacity=".9" transform="matrix(9.21735 15.27977 -10.73105 6.47338 161 149)"/><path fill="#b4aca1" fill-opacity=".8" d="M163 256l-60 15 31-95z"/><path fill="#9b6b57" fill-opacity=".6" d="M56.2 241.9l6.3-.1-24.1-69.2-2.4 23.6z"/><path fill="#a47866" fill-opacity=".5" d="M160 185l11 39-30-10z"/><ellipse cx="169" cy="22" fill-opacity=".7" rx="7" ry="56"/><path fill="#070b10" fill-opacity=".6" d="M4 201l-20-82 91 12z"/><path fill="#ddcba1" fill-opacity=".4" d="M39 45h4v20h-4z"/><path fill="#694534" fill-opacity=".6" d="M184 240l-12 23-23-49z"/><path fill="#030000" fill-opacity=".7" d="M52.7 6l-25 87.5L-12.8 82l25-87.4z"/><path fill="#442b20" fill-opacity=".6" d="M60 86l-11 27 12 14z"/><path fill="#000202" fill-opacity=".7" d="M66.3 256.9l-5.7-35.2 14.7 29.9 7 19.4z"/><circle r="1" fill="#030406" fill-opacity=".7" transform="rotate(-175 6 122) scale(60.10006 14.20615)"/><path fill="#ffcbb8" fill-opacity=".5" d="M63 252l-34 19 50-6z"/><path fill="#020000" fill-opacity=".6" d="M39 71L4 82l42 6z"/><path fill="#b5dbe9" fill-opacity=".2" d="M-3 122.4l16.7 1.8 6.1-15.2-2.6 4z"/><path fill="#1d1307" fill-opacity=".5" d="M44.4 70.4l-3.2-13.3 45.5-44.2 11.4 25.8z"/><path fill="#cf8f6d" fill-opacity=".3" d="M95.5 85.1l16-4.7-1.5-5.5-43.3 14.3z"/><path fill="#bcb4a9" fill-opacity=".8" d="M147.6 172.5l4.8 35.2-24.7-11.4 13.7-28.9z"/><circle r="1" fill="#75402b" fill-opacity=".4" transform="rotate(60 -106.2 202.4) scale(8.51758 3.28273)"/><path fill="#be8f78" fill-opacity=".6" d="M91.9 112.8l3.8-18 9.3 5.8 12 1.6z"/><path fill="#4f3133" fill-opacity=".6" d="M185 242.8l-5.8-137.1-24.3 62.8 10.4 37.4z"/><path fill="#af997b" fill-opacity=".5" d="M54 31l10 1-23 16z"/><path fill="#232524" fill-opacity=".5" d="M98 14h65v62H98z"/><path fill="#b7917a" fill-opacity=".6" d="M110 98l12-16 9 17z"/><path fill="#5f4133" fill-opacity=".6" d="M62.9 75.7l-1.7 5-11.5-20.9 21.6-4.7z"/><path fill="#150b02" fill-opacity=".5" d="M128 165l-20-32 36-9z"/><path fill="#0c0000" fill-opacity=".5" d="M104.6 81.2l-16.4 20.2-.8-.6 16.4-20.2z"/><circle r="1" fill="#d0bba1" fill-opacity=".5" transform="matrix(.98583 -.16773 1.19139 7.00227 46.1 91.6)"/></g></svg>