<svg xmlns="http://www.w3.org/2000/svg" viewBox="0 0 300 199"><defs/><path fill="#3c4443" d="M0 0h300v199H0z"/><g transform="translate(.6 .6) scale(1.17188)"><circle cx="80" cy="48" r="165" fill="#f5f0f1" fill-opacity=".6"/><ellipse cx="158" cy="49" fill="#141514" fill-opacity=".7" rx="23" ry="37"/><ellipse cx="79" cy="86" fill="#fff" fill-opacity=".5" rx="63" ry="61"/><path fill="#454544" fill-opacity=".6" d="M232 170L167 61l-15 57z"/><circle r="1" fill-opacity=".6" transform="rotate(-117.1 113.9 -69.7) scale(9.6232 28.02341)"/><circle r="1" fill="#fcfdfc" fill-opacity=".5" transform="matrix(62.44575 31.8177 -13.08519 25.68112 152.6 155)"/><path fill="#2f2f2f" fill-opacity=".5" d="M211 38l-62 31-14-85z"/><ellipse cx="255" cy="136" fill="#0a0607" fill-opacity=".7" rx="30" ry="48"/><path fill="#fff" fill-opacity=".5" d="M196 99l66-39-59 64z"/><circle r="1" fill="#535553" fill-opacity=".5" transform="rotate(-79.1 131.7 49) scale(15.21119 70.26554)"/><path fill="#e3e3e3" fill-opacity=".7" d="M151.2 71.9l4.9 8.4-23.9 76.4L12.1 98.9z"/><path fill="#d2d3d2" fill-opacity=".4" d="M192 19L13 72-5-16z"/><circle r="1" fill="#868685" fill-opacity=".6" transform="matrix(-7.0928 -23.07382 30.59502 -9.4048 229.7 52)"/><path fill-opacity=".5" d="M155.1 74.6l-28.8-8.4 21.9-36.7 38.1-4.9z"/><ellipse cx="91" cy="169" fill-opacity=".3" rx="13" ry="31"/><path fill="#a5a5a5" fill-opacity=".8" d="M188.1 46.8l-3.6 84.1-10.2-71.6L187 28.1z"/><path fill-opacity=".6" d="M247-14L206 3l1 19z"/><path fill="#595959" d="M228.5 98.4l-9.1 10-14.2 65.6 5-18.6z"/><path fill-opacity=".7" d="M290 47l-19.6 12-50.5-84 19.7-12z"/><path fill="#242624" fill-opacity=".3" d="M-10.7 145.5l5.4-103.8 16 .8-5.4 103.8z"/><path fill="#010201" fill-opacity=".3" d="M35.3 116.9l.2 27 3.6 18.3 1.7-38.3z"/><circle r="1" fill="#252525" fill-opacity=".6" transform="matrix(-10.0242 -18.61695 5.97722 -3.2184 201.6 134.6)"/><path fill="#fff" fill-opacity=".5" d="M215.9 137.3l3.9.7-3.7 20.7-3.9-.7z"/><circle r="1" fill="#dfdfdf" fill-opacity=".7" transform="matrix(3.9532 -80.82924 4.75206 .23241 68.7 130)"/><path fill="#b4b3b3" fill-opacity=".6" d="M136 156h77v14h-77z"/><path fill="#fff" fill-opacity=".5" d="M114 124h52v38h-52z"/><path fill="#1c1c1c" fill-opacity=".9" d="M239 167.3L210.1 185l13.1-56.5L271 35.6z"/><path fill="#cecece" fill-opacity=".9" d="M134.7-5.4l-80 33.7 107.4 61-29.2-22.7z"/><path fill="#eaeaeb" fill-opacity=".5" d="M156 61h9l-1 12z"/><circle r="1" fill="#f1f0f0" fill-opacity=".5" transform="matrix(14.17898 -16.27647 3.84195 3.34685 236 86)"/><path fill="#939393" fill-opacity=".7" d="M187.8 107.4l26.9-34.6L155 95.5l-9.1 28.6z"/><path fill-opacity=".5" d="M194 25l-13-2 25 18z"/><path fill="#e9e9e9" fill-opacity=".6" d="M201 80l31-3-22 58z"/><path fill="#707070" fill-opacity=".9" d="M196.4-16l-31.2 28.7-15.3 24.7-14.5-41.1z"/><path fill-opacity=".5" d="M17 164h16v6H17z"/><path fill="#1a1a1a" fill-opacity=".5" d="M177.4 71.1L161.5 95l-13.3-27.8L180 81.8z"/><path fill="#858585" fill-opacity=".8" d="M240.3 4.3L211.4 87l-5.9-25.6 44.1-33.8z"/><path fill="#f2f3f2" fill-opacity=".4" d="M7 134l18 5-11-70z"/><circle r="1" fill="#d0d1d0" fill-opacity=".5" transform="matrix(-3.50133 -10.16795 17.94761 -6.18025 185.5 13.1)"/><path fill="#cecfce" fill-opacity=".5" d="M44 129h44v30H44z"/><path fill="#6b6e6b" fill-opacity=".2" d="M51.5 142.9l-3.7-25.1-25.7-11.7-4.6 8.7z"/><path fill="#e2e3e2" fill-opacity=".5" d="M141.9 40.4L135.4 13l-3 65.8-123 13z"/><path fill="#101010" fill-opacity=".7" d="M164.7 23.9l16.4 3.6-47.5 43.4 4.4-28.2z"/><path fill="#363637" fill-opacity=".4" d="M231.8 82.9l-5.7-5.7 14.1-14.1 5.7 5.7z"/><path fill="#ebeceb" fill-opacity=".4" d="M195 57l-19-5 12 39z"/><path fill="#636363" fill-opacity=".5" d="M153 163h16v7h-16z"/><path fill="#474747" fill-opacity=".8" d="M201.9 17.2l.5-3.3 17.1-.1-11.3 11.4z"/><path fill="#ededed" fill-opacity=".8" d="M111.2 162.4L90.3 185h33.9l25.1-112.9z"/><path fill-opacity=".4" d="M58 160l-5 13 13-9z"/><path fill="#e5e5e5" fill-opacity=".8" d="M243.4 82.2l-15.3 32.9-1.7-22.9-14.8-18.3z"/><path fill="#898b89" fill-opacity=".4" d="M123.7-16h31.8L-16 56.3 120.3-16z"/><path fill="#e3e4e5" fill-opacity=".3" d="M222 39L178 6l54.4 51.3 13.3-19.6z"/><path fill="#aeaeae" fill-opacity=".7" d="M207.8 165.5l-18.4-10.2 4.8-8.8 18.4 10.2z"/><path fill="#e4e6e4" fill-opacity=".3" d="M224.6 31.2l-24 6 .9-3.2 31.9-31.5z"/><circle r="1" fill="#a0a0a0" transform="rotate(62.7 -138.4 85) scale(28.34849 15.10422)"/><path fill="#030303" fill-opacity=".3" d="M196.4 52.2l4.3 14.7-8.7-26.2-9.1 7.3z"/><path fill="#eeefee" fill-opacity=".6" d="M193.4 113.2l8.6-27.1 6.3-5 2.6 47.7z"/><path fill="#3a3a3a" fill-opacity=".5" d="M15 140l-3 18 11-3z"/><path fill="#333" fill-opacity=".4" d="M187.1 115.7l43.2 69.3-36.7-71.4 8.8-38.5z"/><path fill="#5c5c5c" fill-opacity=".6" d="M167.8 131.8l13-22.6 29.4 17-13 22.6z"/><path fill-opacity=".6" d="M214.3 139.2l-1-.3 12.4-40.1 1 .3z"/><path fill="#2b2b2b" fill-opacity=".3" d="M77.5 158.8l-7.4 4.3 2.7 21.9 29.6-30.3z"/><path fill="#dedede" d="M194.8 177.4l-19.3 3.9-16-40 45.4 43.7z"/><path fill="#0d0d0d" fill-opacity=".6" d="M143 76l18-19-14-18z"/><path fill="#fefdfd" fill-opacity=".4" d="M228.2 101.2l1.9.5-14.3 53.1-1.9-.5z"/></g></svg>