<svg xmlns="http://www.w3.org/2000/svg" viewBox="0 0 300 199"><defs/><path fill="#3c2e53" d="M0 0h300v199H0z"/><g transform="translate(.6 .6) scale(1.17188)"><ellipse cx="41" cy="123" fill="#181009" fill-opacity=".8" rx="135" ry="128"/><path fill="#fceecc" fill-opacity=".6" d="M231.1 101L193 150.6l1-1.5-29.4-54.5z"/><circle r="1" fill="#1b0e00" fill-opacity=".7" transform="rotate(-168.1 116.3 23.4) scale(60.62708 30.77357)"/><circle r="1" fill="#110b00" fill-opacity=".9" transform="matrix(-18.06461 -20.92805 104.18292 -89.92828 232.2 151.5)"/><path fill="#8b64ca" fill-opacity=".6" d="M69.4 7.8L82 62.4l-25.4 5.8L44 13.6z"/><ellipse cx="185" cy="26" fill="#daae4c" fill-opacity=".4" rx="28" ry="25"/><ellipse cx="19" cy="148" fill-opacity=".8" rx="49" ry="105"/><path fill="#5c464c" d="M104.6 67.9l22.8-80.1 47.1 69.6-82.6-45.8z"/><path fill="#ffe198" fill-opacity=".4" d="M218.4 148.6l1-55.6 11.4 29.4-33.9 17.8z"/><ellipse cx="164" cy="53" fill="#ffd785" fill-opacity=".5" rx="4" ry="29"/><circle r="1" fill="#000100" fill-opacity=".7" transform="matrix(-43.10545 -123.84052 8.44118 -2.93814 234.1 64.3)"/><path fill="#897b6f" fill-opacity=".8" d="M75.9 71.5l-.5-24.3 14.2 43.9-18.2-12.3z"/><path fill="#2a0f00" fill-opacity=".6" d="M193 36l35 23-93 69z"/><path fill="#e1dfde" fill-opacity=".6" d="M223 100l-24-7-5 50z"/><path fill="#130a00" fill-opacity=".6" d="M67 130h116v40H67z"/><path fill="#a69b8e" fill-opacity=".6" d="M150.9 105.9l7.1 1.5 16.7 19.8-4.5 5.8z"/><circle r="1" fill="#665837" fill-opacity=".6" transform="matrix(-14.26848 3.03286 -6.55195 -30.8245 246 26.5)"/><path fill="#280800" fill-opacity=".5" d="M202 133l45-4-35-10z"/><path fill="#5a6273" fill-opacity=".5" d="M89 69h47v12H89z"/><path fill="#431c00" fill-opacity=".5" d="M168 39h30v61h-30z"/><path fill="#f5d3b1" fill-opacity=".5" d="M205.7 43.1l-9.3-13 15.9-7.6L211 37z"/><path fill="#a1908a" fill-opacity=".5" d="M212 73h23v7h-23z"/><path fill="#cd8df8" fill-opacity=".4" d="M110 26l1 19-17 4z"/><path fill="#0a060e" fill-opacity=".9" d="M11.1 62.2l25.5 2 28.6-22.8 19 2.5z"/><path fill="#525238" fill-opacity=".6" d="M66 138l43-45 9 25z"/><path fill="#4d3106" fill-opacity=".4" d="M143 0h17v71h-17z"/><circle r="1" fill="#070000" fill-opacity=".6" transform="rotate(-101.3 14.6 -5.5) scale(20.48747 37.81571)"/><path fill="#a58f87" fill-opacity=".5" d="M204.7 93.3l-40 4.7-.7 9.2 48.8 6.4z"/><path fill="#f1be6e" fill-opacity=".5" d="M159 0h5v43h-5z"/><path fill="#4a312d" d="M91 4l28-13.2 8 17.3-28 13z"/><path fill="#231813" fill-opacity=".8" d="M173.9 23.6l42.9-5.8 22.2-2.2-75.9 14z"/><path fill="#080000" fill-opacity=".5" d="M127.6 125.3L82.8-11.2 61.4-16l28.7 65.1z"/><path fill="#030000" fill-opacity=".6" d="M271 121V80l-93-2z"/><circle r="1" fill="#eef4f2" fill-opacity=".5" transform="matrix(3.36631 -11.22672 4.05845 1.21692 221.4 108.5)"/><circle cx="60" cy="34" r="10" fill="#8a5eff" fill-opacity=".4"/><circle r="1" fill="#190700" fill-opacity=".7" transform="rotate(-151.7 132.4 -14.2) scale(5.29763 14.06543)"/><path fill="#b88e67" fill-opacity=".5" d="M220 132l3 15-22-13z"/><path fill-opacity=".7" d="M119.3 35.4l-5.9.9-4.7-33.7 5.9-.9z"/><circle r="1" fill="#040201" fill-opacity=".9" transform="rotate(19.5 -333.9 791.3) scale(27.64171 28.07167)"/><path fill="#766f84" fill-opacity=".5" d="M128.8 60.3l7.3 16.5-11 4.9-7.2-16.5z"/><path fill="#a6a2a6" fill-opacity=".5" d="M167.5 28.4l35.9-2.4-38.3 17.5 3.6-10.6z"/><path fill="#c68df8" fill-opacity=".4" d="M55.8 56.7L68 45l4.2 4.4L60 61z"/><circle cx="71" cy="132" r="7" fill="#225b3d" fill-opacity=".8"/><path fill="#52371e" fill-opacity=".5" d="M242 105l-8 32-8-42z"/><ellipse cx="156" cy="63" fill="#4c322d" fill-opacity=".7" rx="6" ry="19"/><path fill="#2b1b16" fill-opacity=".6" d="M142 135h47v35h-47z"/><path fill="#0f0a09" fill-opacity=".9" d="M176.4 171.7l-2.6-57.1 5.6 6.9 2.9 9.9z"/><path fill="#1d0c06" fill-opacity=".6" d="M166.8 65.2l15.9 33.5.7-6.6 74.3 15.4z"/><path fill="#917c7c" d="M181.2 109.5l10.9-4.3-11 27.9 18.8-11.1z"/><path fill="#3a1c3c" fill-opacity=".7" d="M59.9 58.1L36.7 18l-4.6 35.4 10.7-4.5z"/><path fill="#060000" fill-opacity=".5" d="M177.5 90.5l-2.2-50.7-10 4.5 3.5 14.5z"/><path fill="#fff4c2" fill-opacity=".5" d="M205 32h8v8h-8z"/><path fill="#f1f1ec" fill-opacity=".5" d="M183 129h19v6h-19z"/><circle r="1" fill="#0c0908" fill-opacity=".8" transform="matrix(24.13986 25.8887 -16.68373 15.5567 44 85.2)"/><path fill-opacity=".6" d="M198 44h41v22h-41z"/><path fill="#5a4c44" fill-opacity=".9" d="M216.9-2.2l32.8-4.5-3.4 71.9-15.9-40.4z"/><path fill="#6653a5" fill-opacity=".4" d="M104 168l-12-9 3 26z"/><path fill="#291b00" fill-opacity=".7" d="M169.5 4.3l-4.5 7.4L162.9.1l56.9-7.2z"/><path fill="#0a0200" fill-opacity=".4" d="M123 46l30 60-7-80z"/><path fill="#795a70" fill-opacity=".5" d="M20.9 34.9l-1.8 13.2-3.5-8.5-5.3-8.2z"/><path fill="#713903" fill-opacity=".5" d="M179 42h19v31h-19z"/><path fill="#fcd6d8" fill-opacity=".2" d="M89.3 71.4l-28.2 6.2 15 6.1-2 19.3z"/><path fill="#686869" fill-opacity=".5" d="M118 34l24-5-1-45z"/><ellipse cx="101" cy="21" fill="#75454a" fill-opacity=".5" rx="10" ry="12"/><path fill="#634c4e" fill-opacity=".4" d="M194.8 185.5l-54.3-27.7 2.7-5.3 54.3 27.7z"/></g></svg>