<svg xmlns="http://www.w3.org/2000/svg" viewBox="0 0 300 199"><defs/><path fill="#412b22" d="M0 0h300v199H0z"/><g transform="translate(.6 .6) scale(1.17188)"><circle cx="129" cy="70" r="169" fill="#f5f7f4" fill-opacity=".8"/><ellipse cx="208" cy="70" fill="#6f4832" fill-opacity=".6" rx="12" ry="28"/><circle r="1" fill="#755740" fill-opacity=".4" transform="matrix(16.53306 48.3836 -15.72382 5.37295 41.8 100.3)"/><ellipse cx="240" cy="36" fill="#fafeff" fill-opacity=".8" rx="24" ry="51"/><ellipse cx="144" cy="71" fill="#f2f8fc" fill-opacity=".5" rx="37" ry="82"/><circle r="1" fill="#f9fdff" fill-opacity=".8" transform="matrix(-22.71482 58.5623 -26.04058 -10.10047 0 41)"/><path fill="#9f6d3d" fill-opacity=".7" d="M93 3.3l7.3-13 5.2 53.5 3.4 141.2z"/><path fill="#b2a9a1" fill-opacity=".6" d="M188 55l83 107-105 23z"/><ellipse cx="19" cy="133" fill="#b1aba2" fill-opacity=".9" rx="47" ry="29"/><path fill="#915a20" fill-opacity=".4" d="M44 181l94-7-29-25z"/><path fill="#421a07" fill-opacity=".3" d="M23.3 50.3l15.3 8.3-3.9 44.2-16.5-20.2z"/><path fill="#fff" fill-opacity=".5" d="M67 105h35v36H67z"/><path fill="#390c00" fill-opacity=".4" d="M217 45l-11 2-4 34z"/><path fill="#ebeff0" fill-opacity=".5" d="M55 93L1-8l34-2z"/><circle cx="154" cy="121" r="19" fill="#fff" fill-opacity=".6"/><path fill="#ac9c90" fill-opacity=".6" d="M193 75h21v85h-21z"/><circle r="1" fill="#c4c4c2" fill-opacity=".7" transform="matrix(22.90161 -25.34572 37.2377 33.64684 253 121.8)"/><circle r="1" fill="#d3d3d0" fill-opacity=".7" transform="matrix(-3.49462 -22.94072 17.11292 -2.60686 183.2 60.3)"/><ellipse cx="106" cy="133" fill="#ae855c" fill-opacity=".5" rx="4" ry="49"/><ellipse cx="91" cy="60" fill="#f6ffff" fill-opacity=".3" rx="6" ry="63"/><circle r="1" fill="#a2a09c" fill-opacity=".5" transform="rotate(103 80.1 161) scale(23.71025 15.5724)"/><path fill="#c1c2ba" fill-opacity=".4" d="M6.6 59.6l52.2 38.8 29.6 11.8-35.9 6.4z"/><path fill="#8c7d6f" fill-opacity=".5" d="M251.1 168l-1 3.8-51.2-13.7 1-3.9z"/><path fill="#522f1d" fill-opacity=".4" d="M25 54h13v24H25z"/><circle r="1" fill="#f8fbfa" fill-opacity=".7" transform="matrix(10.1225 -12.1494 14.47025 12.05616 20.9 36.5)"/><path fill="#7f4c3b" fill-opacity=".3" d="M211.6 99l-19.1 15.8 23.2-42.4-4.2 34.5z"/><path fill="#f4f8f7" fill-opacity=".7" d="M23 65.9L12.1 89.1l-6.5-4.5L-1.7-16z"/><path fill="#cecfce" fill-opacity=".7" d="M112 138l138 37-94 10z"/><path fill="#bbb1a7" fill-opacity=".5" d="M174 103v35l47-76z"/><path fill="#fbfbff" fill-opacity=".2" d="M271 72.5l-52.2 40.8-9-8.8 20.5-53.4z"/><path fill="#bebeb7" fill-opacity=".6" d="M37 163l28-26 42 28z"/><path fill="#834636" fill-opacity=".4" d="M206.6 98.4l15.1-22.6 2.6-12.6-26.9 41.3z"/><ellipse cx="122" fill="#dadbdb" fill-opacity=".6" rx="18" ry="157"/><circle r="1" fill="#816c53" fill-opacity=".3" transform="matrix(30.22791 -3.4744 .29341 2.55273 36.3 154.6)"/><path fill="#d2d6da" fill-opacity=".4" d="M104 0h119v44H104z"/><path fill="#6d4036" fill-opacity=".5" d="M178.4 101.5l18.4-19.7.8.7-18.4 19.7z"/><path fill="#563210" fill-opacity=".3" d="M213.5 66.9l-3.2-26.2L192.7 58l24.1-8.8z"/><circle cy="122" r="34" fill="#b6b7b3" fill-opacity=".6"/><ellipse cx="59" cy="64" fill="#d0d4d1" fill-opacity=".5" rx="19" ry="25"/><path fill="#dfd7ce" fill-opacity=".6" d="M217 39h4v30h-4z"/><circle r="1" fill="#adb9bd" fill-opacity=".3" transform="matrix(3.3928 -22.07033 29.67898 4.56245 51.8 0)"/><path fill="#87675b" fill-opacity=".6" d="M56.9 99.4l4.3-5-13-1.5-20.8-39.6z"/><path fill="#9c9a95" fill-opacity=".5" d="M10.8 106.8l8.4 27.7-22 6.7-8.4-27.7z"/><path fill="#eef2f2" fill-opacity=".4" d="M10.6 71.6l20.1 32.9L-16 72.2l47.8-7.3z"/><path fill="#773a2c" fill-opacity=".3" d="M24 82l13.4 28.1-20.8-30.6 1.8-11.7z"/><ellipse cx="99" cy="20" fill="#9a6c48" fill-opacity=".4" rx="4" ry="31"/><path fill="#f3f6f4" fill-opacity=".4" d="M79 85h21v44H79z"/><circle r="1" fill="#381907" fill-opacity=".5" transform="matrix(4.66198 1.86644 -.99388 2.4825 206.5 64.3)"/><path fill="#dededd" fill-opacity=".5" d="M186.6 83.5l-6 21.1-21.2-6 6-21.2z"/><path fill="#edfcff" fill-opacity=".4" d="M121 165l-8-7v8z"/><path fill="#b6926e" fill-opacity=".6" d="M74.9 182.7l37.2-31-2.5-27.6-2.1 22.5z"/><ellipse cx="37" cy="124" fill="#7a3e13" fill-opacity=".1" rx="9" ry="32"/><path fill="#dededd" fill-opacity=".2" d="M186.1 93.3l58.8 73.7L219 96.1l-1.7 59.5z"/><path fill="#e7dfda" fill-opacity=".4" d="M55.5 100.3l-12.8-16-3 3 15.8 17z"/><path fill="#f4f5f5" fill-opacity=".5" d="M19 41l23 18-8-47z"/><ellipse cx="104" cy="95" fill="#b18459" fill-opacity=".4" rx="4" ry="32"/><path fill="#f8f8f7" fill-opacity=".7" d="M170.2 148.8l-24.8-56.7-10.1 32.3 37.2-20.1z"/><path fill="#ccd1d2" fill-opacity=".5" d="M13 159h78v7H13z"/><path fill="#b29679" fill-opacity=".4" d="M41.2 64.4l-14 5 12.1-14.2 10.3 14.7z"/><path fill="#ab7d55" fill-opacity=".5" d="M68 167h33v3H68z"/><ellipse cx="108" cy="160" fill="#7d664c" fill-opacity=".5" rx="4" ry="8"/><path fill="#f7f2ee" fill-opacity=".1" d="M36.6 131.4L-16 169.7l37.3-41.9-11.2-71.4z"/><ellipse cx="88" cy="58" fill="#d8dad9" fill-opacity=".6" rx="9" ry="52"/><path fill="#aca69e" fill-opacity=".6" d="M189.5 113l19.6-43.1 9.7-6.6-10.1 26.6z"/><ellipse cx="187" fill="#b9baba" fill-opacity=".4" rx="6" ry="58"/></g></svg>