<svg xmlns="http://www.w3.org/2000/svg" viewBox="0 0 300 199"><defs/><path fill="#4b3028" d="M0 0h300v199H0z"/><g transform="translate(.6 .6) scale(1.17188)"><circle r="1" fill="#9fa4a5" fill-opacity=".6" transform="matrix(-50.78874 23.96273 -9.42705 -19.98053 121.7 55.8)"/><circle r="1" fill="#abc1e4" fill-opacity=".4" transform="matrix(10.9318 -16.898 72.73099 47.05179 193.5 169)"/><path fill="#00040a" fill-opacity=".8" d="M-5.3 171.3L1 112.7l114.4 12-6.2 58.6z"/><path fill="#7063b7" fill-opacity=".6" d="M219.6-6l81.2 17.2L290.4 60l-81.2-17.3z"/><circle r="1" fill="#000005" fill-opacity=".6" transform="matrix(22.1088 -6.07158 15.4187 56.145 248 98.4)"/><path fill="#806454" fill-opacity=".8" d="M133 124L53 69l19-54z"/><ellipse cx="153" cy="11" fill="#020100" fill-opacity=".8" rx="47" ry="13"/><path fill="#ffbcb1" fill-opacity=".4" d="M54.3 93.3l-2.8 19.8-34.1 3.8L30.5 93z"/><path fill="#454769" fill-opacity=".5" d="M155 70h77v90h-77z"/><path fill="#b1b7bd" fill-opacity=".6" d="M138.3 31.6l40.4 24.1-52.3 11-42.5 26.2z"/><circle r="1" fill="#9f8e6f" fill-opacity=".5" transform="rotate(135.6 42.3 94.7) scale(34.44963 15.69029)"/><circle r="1" fill="#070b0c" fill-opacity=".7" transform="rotate(-109.7 36.7 37.7) scale(15.55999 41.03917)"/><circle r="1" fill="#0c0906" transform="matrix(-2.74842 -97.13445 21.01774 -.5947 254.5 169)"/><path fill="#daa79d" fill-opacity=".4" d="M206.5 160.7l-1.1-46 32.8-2.1-19.8 11z"/><circle r="1" fill-opacity=".5" transform="rotate(83 57.5 133) scale(29.57969 7.28662)"/><circle r="1" fill="#283138" fill-opacity=".6" transform="matrix(-5.8223 26.08482 -18.73287 -4.1813 137.9 89.9)"/><circle r="1" fill="#a98989" fill-opacity=".5" transform="matrix(1.94477 4.3648 -27.446 12.22875 83.1 108.2)"/><path fill="#e3a994" fill-opacity=".4" d="M16 48l5.7 11.6L-8 74.1l-5.7-11.7z"/><path fill="#00011b" fill-opacity=".6" d="M170.1 135.6l35.6 1.2-.7-15-42.2-9.1z"/><circle r="1" fill="#573d28" fill-opacity=".5" transform="rotate(-41.1 122 -92) scale(40.99992 10.70185)"/><path fill="#cd9a8c" fill-opacity=".6" d="M156.5 83l18.1 8.4-2.5-9.5L157.8 66z"/><path fill="#ffde82" fill-opacity=".5" d="M81 40l-4 19-14-22z"/><path fill="#8e9ac9" fill-opacity=".4" d="M83 74h40v19H83z"/><path fill="#00010e" fill-opacity=".4" d="M231.5 95.8l-1.3 15-75.7-6.6 1.3-15z"/><path fill="#5d5699" fill-opacity=".7" d="M147 185l49-51 31 16z"/><path fill="#a28a9f" fill-opacity=".6" d="M194 116l-4-12-41 3z"/><path fill="#3f363e" fill-opacity=".8" d="M155.7 165.5L144 149.6l-26.8-1L70.6 185z"/><circle r="1" fill="#1f181f" fill-opacity=".8" transform="rotate(170.4 39 65.9) scale(30.29252 11.86358)"/><path fill="#8b75c6" fill-opacity=".5" d="M242.7 41.9l-28.5-15.7 52.6 17.2L268 81z"/><path fill="#9c8e78" fill-opacity=".5" d="M189.8 75.8l1.9 8.7 6.8 13.8-9.7-69.5z"/><path fill="#6d5ba5" fill-opacity=".7" d="M208.6 52.7l36.2-12.8-35.7-13.5 5.2-5.8z"/><path fill="#352d00" fill-opacity=".5" d="M154.2 133.5l.4 16 7.7 7.6 23 1.2z"/><path fill="#978986" fill-opacity=".7" d="M149 107.9l-4.8 1.4-5.2-17.2 4.8-1.4z"/><path fill="#ae807b" fill-opacity=".4" d="M79.3 132.4L48 118.2l-35-10.1 27.1-14z"/><path fill="#9a989a" fill-opacity=".5" d="M122 25h51v35h-51z"/><path fill="#d5e7ff" fill-opacity=".3" d="M130.6 118.4l5.2 25.2-6.5 3.1-14.3 2.1z"/><circle r="1" fill="#311f11" fill-opacity=".6" transform="rotate(-141.8 9.7 6) scale(20.429 51.63838)"/><path fill="#f4fffb" fill-opacity=".5" d="M124.7 70.9l-10.9-10.3 14.7-7.7 3.1 3.5z"/><path fill="#382733" fill-opacity=".6" d="M192-16l64 54-62-28z"/><circle cx="163" cy="164" r="6" fill="#d6e4ef" fill-opacity=".5"/><path fill="#fff385" fill-opacity=".5" d="M58 64h11v5H58z"/><path fill-opacity=".5" d="M190 76L179 1l-11 79z"/><ellipse cx="81" cy="40" fill="#4e3025" fill-opacity=".8" rx="3" ry="46"/><path fill="#080709" fill-opacity=".8" d="M2 175.9l-18-81.6 48.6 25.3L94 168.4z"/><path fill="#5d4e59" fill-opacity=".8" d="M144.9 102.6l-61.3-.4L103.1 75l-1.4 43.7z"/><path fill="#4b4523" fill-opacity=".6" d="M133.3 142.8l3.5-28.8 10 1.2-3.6 28.8z"/><path fill="#210a00" fill-opacity=".6" d="M65.3 71.5l11.8 5-29.1 42 26.9-17.8z"/><path fill="#0b030d" fill-opacity=".6" d="M220.8 83.5l-10-30.5 32.4-10.5 10 30.5z"/><path fill="#ffe79e" fill-opacity=".3" d="M138.4 131.6l-.1 10.6 27-20-15 28.3z"/><path fill="#9786b9" fill-opacity=".5" d="M245.6 177.1l-77.3-31.2 13.4.7 28.5 38.4z"/><path fill="#f4801b" fill-opacity=".3" d="M57.4 30.4l-14.5 6 25 13.2 13.3-13z"/><ellipse cx="50" cy="50" fill-opacity=".5" rx="13" ry="7"/><path fill="#a38367" fill-opacity=".5" d="M84 42h19v23H84z"/><path fill="#0e1616" fill-opacity=".5" d="M131 97l36-40-47 16z"/><path fill="#403025" fill-opacity=".6" d="M123.7 51L-16-2 90.6-16 122 32.5z"/><path fill="#cd8b7c" fill-opacity=".1" d="M166.5 85.5l61.1-24.3 16.8 91.5-25.9-56.1z"/><path fill="#b9643c" fill-opacity=".4" d="M61.8 84.7L66 58.5l-4.3-2.6-21 2.7z"/><path fill="#121e37" fill-opacity=".3" d="M189.2 151.2l53.4 30.8-11.9-60-20 29.5z"/><path fill="#bb721f" fill-opacity=".5" d="M25.1 39.3L24 42 3 32.7 4 30z"/><circle cx="75" cy="51" r="4" fill="#fffff8" fill-opacity=".6"/><path fill="#000001" fill-opacity=".5" d="M82 68h15v5H82z"/><path fill="#797287" fill-opacity=".5" d="M97 97l24 12-11-55z"/><path fill="#0a0b0f" fill-opacity=".4" d="M26.6 55.8L12.2 75.5l46.1 2.9-10.7 20.3z"/><path fill="#95b9e0" fill-opacity=".2" d="M101.7 185l-3.4-21.2 36.2 1.6-20.1-18.2z"/><circle r="1" fill="#000e13" fill-opacity=".3" transform="matrix(1.46015 -10.5227 17.29285 2.39958 109.9 129.4)"/></g></svg>