<svg xmlns="http://www.w3.org/2000/svg" viewBox="0 0 300 199"><defs/><path fill="#544935" d="M0 0h300v199H0z"/><g transform="translate(.6 .6) scale(1.17188)"><path fill="#fce1d1" fill-opacity=".5" d="M0 0h217v44H0z"/><ellipse cx="59" cy="153" fill="#230400" fill-opacity=".6" rx="255" ry="37"/><path fill="#dcc3c3" fill-opacity=".5" d="M131 0h83v70h-83z"/><circle cx="77" cy="70" r="61" fill="#552407" fill-opacity=".4"/><circle r="1" fill="#cebdb5" fill-opacity=".4" transform="matrix(33.46186 12.57749 -3.67153 9.76796 146.3 112.5)"/><path fill="#0b1e28" fill-opacity=".5" d="M143.5-.4l2.1 2.6 13.8 39.6-18.5 1.8z"/><ellipse cx="92" cy="18" fill="#866c52" fill-opacity=".9" rx="24" ry="42"/><ellipse cx="175" fill="#fdfff9" fill-opacity=".6" rx="21" ry="33"/><circle r="1" fill="#887166" fill-opacity=".5" transform="matrix(-10.60235 3.55158 -17.47265 -52.16021 163.7 152.5)"/><ellipse cx="37" cy="9" fill="#f1d8c1" fill-opacity=".4" rx="37" ry="24"/><circle r="1" fill="#5c2326" fill-opacity=".4" transform="matrix(-16.36636 -1.46069 4.56647 -51.16533 184.2 82)"/><circle cx="5" cy="118" r="48" fill="#300c00" fill-opacity=".5"/><ellipse cx="232" cy="10" fill="#8f514f" fill-opacity=".5" rx="25" ry="44"/><path fill="#fff" fill-opacity=".5" d="M113 96l31 13-14 2z"/><circle cx="239" cy="160" r="42" fill="#010106" fill-opacity=".5"/><circle r="1" fill="#251206" fill-opacity=".7" transform="matrix(7.69953 32.07086 -30.35808 7.28833 119 144)"/><path fill="#2a1c1c" fill-opacity=".6" d="M114 22l32 84-49-17z"/><path fill="#e7c6ad" fill-opacity=".5" d="M137 45h32v23h-32z"/><path fill="#64542c" fill-opacity=".8" d="M74 34l-90 9L94 75z"/><path fill="#e6afc4" fill-opacity=".3" d="M202.5 80.8l-4.8-2.8 33.5-3.1 5.8 20z"/><path fill="#c7a487" fill-opacity=".6" d="M100 110.9l21.5-12-19.6 1.9-8.3 13.5z"/><path fill="#ffe0a5" fill-opacity=".6" d="M239 0h17v6h-17z"/><path fill="#8b5739" fill-opacity=".5" d="M56 149h22v21H56z"/><path fill="#3d1919" fill-opacity=".7" d="M271-13.9l-31.9 148.8 1.5-105.3-5.6 50.1z"/><path fill="#131400" fill-opacity=".6" d="M2 57l36-26-22 33z"/><path fill="#ffdeac" fill-opacity=".2" d="M144.8 148.7l-14.4-52.3 31.2 40.1-5.4-6.6z"/><path fill="#e7d5cc" fill-opacity=".7" d="M203.7 23.9L185.8 8.4l13.6 40.2 14.4-.1z"/><path fill="#6d4d42" fill-opacity=".5" d="M200.1 160.4l-2.1-23-47.5 25.6 9.9 12.3z"/><ellipse cx="214" cy="99" fill="#3c1d1e" fill-opacity=".6" rx="56" ry="9"/><circle cx="131" r="16" fill="#eef0d2" fill-opacity=".4"/><ellipse cx="65" cy="101" fill="#502915" fill-opacity=".8" rx="29" ry="23"/><path fill="#803c3b" fill-opacity=".4" d="M117 68h101v21H117z"/><path fill="#b1947b" fill-opacity=".7" d="M32 15.3l16.5-9.5L64 32.7l-16.5 9.5z"/><path fill="#ffdff0" fill-opacity=".4" d="M208.9 114.4l-4.9-7.2-5 1.8-2.5 8.2z"/><circle r="1" fill="#af9c73" fill-opacity=".3" transform="matrix(-4.0019 -7.10186 31.04977 -17.49656 96.2 44.6)"/><path fill="#a3664a" fill-opacity=".5" d="M39 39L21 58l28 16z"/><path fill="#c9bbb9" fill-opacity=".5" d="M158 101l-4 11 17-1z"/><path fill="#fffff5" fill-opacity=".5" d="M131 101l14 16-33-18z"/><path fill="#9d896b" fill-opacity=".8" d="M68.1 30.4l33.1 21.8L80.7 7 53.3 23.5z"/><path fill="#6b4a37" fill-opacity=".5" d="M114.5-3.5l2.9 27.9-29.9 3L84.6-.3z"/><path fill="#27241b" fill-opacity=".5" d="M83 95.3l35.4-11.5 37.3 41.5-12.4-23.3z"/><path fill="#00090e" fill-opacity=".5" d="M103.2 51.3L126 37l4.7 7.7L108 59z"/><path fill="#2e231f" fill-opacity=".7" d="M239.1 108.7l-87.4-3.8L206 93l.3 31.1z"/><path fill="#070600" fill-opacity=".5" d="M187.5 111.3l.6 3-25.6 4.4-.6-3z"/><path fill="#6f4740" fill-opacity=".6" d="M200 97l-15.2-58.6L153.7 78l-40-.1z"/><path fill="#253f47" fill-opacity=".4" d="M149 50l2-39-16 11z"/><circle r="1" fill="#433c17" fill-opacity=".5" transform="matrix(-22.47553 -29.61042 5.23636 -3.97462 55.8 60.9)"/><ellipse cx="169" cy="132" fill="#341b15" fill-opacity=".7" rx="17" ry="6"/><path fill="#240700" fill-opacity=".5" d="M182 178l-2-20-19 4z"/><path fill="#b9aca6" fill-opacity=".5" d="M157.7 166.6l13.5-11.1-8.2-1.1-8 7.2z"/><path fill="#b66f4c" fill-opacity=".5" d="M19 65l-27-8 8 19z"/><path fill="#c3aa98" fill-opacity=".7" d="M8.7 48.9L-16-2.4l56.8 32L-16 47.3z"/><path fill="#c2b4ae" fill-opacity=".5" d="M201.5-16L179 33.2l46.2-16.4-6.6 14.4z"/><path fill="#683833" fill-opacity=".6" d="M237-16l6 97-33-10z"/><path fill="#ad8b80" fill-opacity=".6" d="M202.2 42.2L220 58.5l-10.2 3-49.9-29.9z"/><path fill="#834544" fill-opacity=".2" d="M215 102l53-43-38 87z"/><path fill="#eaddcc" fill-opacity=".4" d="M175 60l-16-15-1-32z"/><path fill="#252b00" fill-opacity=".6" d="M35.8 71L7.1 78.1l11.2-12.5 17.3-5.9z"/><path fill="#723832" fill-opacity=".6" d="M127.3 37.2l6.7 15.1 9.1-.8-21.5 39.1z"/><path fill="#3e434e" fill-opacity=".4" d="M208.3.9l21.5-8.3 7.9 20.5-21.5 8.3z"/><path fill="#d1c7c5" fill-opacity=".5" d="M262 52l5 33-15-7z"/><path fill="#000606" fill-opacity=".7" d="M239.9 145.6l-40.3-2.8 4-6-12.5 48.2z"/><circle r="1" fill="#833b24" fill-opacity=".5" transform="matrix(-.9136 -4.92936 20.99593 -3.89137 25.6 169)"/><path fill="#bfb7b6" fill-opacity=".6" d="M148.1 95.5h4l-.2 13h-4z"/><path fill="#d4aa8b" fill-opacity=".5" d="M118 6h13v33h-13z"/></g></svg>