<svg xmlns="http://www.w3.org/2000/svg" viewBox="0 0 298 450"><defs/><path fill="#484229" d="M0 0h298v450H0z"/><g transform="translate(.9 .9) scale(1.75781)"><ellipse cx="69" cy="151" fill="#f0dfd2" fill-opacity=".7" rx="134" ry="206"/><circle r="1" fill="#896e4a" fill-opacity=".6" transform="rotate(11.2 -524.2 819.5) scale(26.38746 103.44245)"/><circle r="1" fill="#ebf6ff" fill-opacity=".5" transform="rotate(-125 25.6 -1) scale(38.69821 169)"/><circle r="1" fill="#7a2600" fill-opacity=".4" transform="matrix(-13.38058 -2.86596 8.28812 -38.69549 43.9 97.4)"/><circle r="1" fill="#e6e7e7" fill-opacity=".7" transform="matrix(83.9731 49.67348 -7.6124 12.86878 147 243.3)"/><path fill="#440101" fill-opacity=".6" d="M120.6 109.2l-11.2 3.7-19.2-2 .3-15.7z"/><ellipse cx="83" cy="171" fill="#dfd9d1" fill-opacity=".8" rx="22" ry="33"/><ellipse cx="160" cy="24" fill="#988769" fill-opacity=".8" rx="29" ry="160"/><path fill="#b69270" fill-opacity=".7" d="M-5.3 205.6l75-20.3-27.5-23.6-6-83.6z"/><circle r="1" fill="#b77c0b" fill-opacity=".4" transform="matrix(1.1027 -19.10588 18.0017 1.03898 91 52.6)"/><ellipse cx="108" cy="123" fill="#dad3ca" rx="31" ry="6"/><path fill="#dee0e1" fill-opacity=".5" d="M61 70h69v29H61z"/><circle r="1" fill="#d5d5d4" fill-opacity=".7" transform="matrix(11.85674 -2.23283 10.3426 54.92106 115.6 22.8)"/><ellipse cx="169" cy="93" fill="#314716" fill-opacity=".5" rx="11" ry="35"/><circle r="1" fill="#e1e5e3" fill-opacity=".6" transform="matrix(25.13495 13.38946 -19.92378 37.4013 3.9 81.8)"/><circle cx="91" cy="53" r="9" fill="#f6ffff" fill-opacity=".5"/><path fill="#4f4e30" fill-opacity=".6" d="M23.7 112.1L-16 150.8l15.2 45.1-1.1-69.4z"/><circle r="1" fill="#d0cfc9" fill-opacity=".5" transform="rotate(-159.8 36.5 120.2) scale(135.89833 26.76644)"/><circle r="1" fill="#9f584c" fill-opacity=".4" transform="matrix(3.98559 -6.18442 30.22768 19.48041 124.7 199.8)"/><circle r="1" fill="#dbcdbd" fill-opacity=".5" transform="matrix(4.94627 -7.7641 22.78804 14.51758 148.7 198.4)"/><path fill="#eae7e0" fill-opacity=".8" d="M56.2 124.7l6.3-9 57.7 65-20.7-1.1z"/><ellipse cx="71" cy="104" fill="#383231" fill-opacity=".4" rx="4" ry="12"/><circle r="1" fill="#f5c289" fill-opacity=".4" transform="rotate(-53.7 167.4 31.7) scale(19.49364 28.28558)"/><circle r="1" fill="#dddedd" fill-opacity=".6" transform="rotate(-76.8 232.7 22.3) scale(22.23166 56.71415)"/><path fill="#363932" fill-opacity=".7" d="M-16 176.3l23.1 1.8-23.1 73.8 12.5-56.5z"/><ellipse cx="77" cy="114" fill="#943200" fill-opacity=".2" rx="46" ry="6"/><path fill="#4f3d2a" fill-opacity=".6" d="M121 159h11v22h-11z"/><path fill="#340e00" fill-opacity=".4" d="M43.6 92.4l9.3-2.3-11.2 33.1-7.4 2.4z"/><path fill="#dcdad6" fill-opacity=".9" d="M45.4 52l31.4 29.1.1-12.2-8.2-27.6z"/><path fill="#cddfe2" fill-opacity=".4" d="M0 138h16v38H0z"/><path fill="#b9ac95" fill-opacity=".4" d="M180 14l-41-1 4 82z"/><path fill="#ae8f6e" fill-opacity=".7" d="M66.9 131.1l99.1 22.3 9.2-30.9-54.6 6.2z"/><path fill="#a7731f" fill-opacity=".4" d="M72.9 59l38.5 3.2L98 74.5l-17.8-4.9z"/><path fill="#967566" fill-opacity=".4" d="M94 182l22 35 47 2z"/><path fill="#98775f" fill-opacity=".5" d="M37 150l3 32-43 18z"/><path fill="#5f3b25" fill-opacity=".5" d="M134 130h5v32h-5z"/><path fill="#d4d3d2" fill-opacity=".6" d="M24 0h108v35H24z"/><path fill="#a26900" fill-opacity=".3" d="M105.6 39.3l7.6 9.8-6.8 16.4-15.9-34.9z"/><path fill="#c09076" fill-opacity=".9" d="M62.2 109.6l-47.4 77.1L42.1 133l14.7-42.6z"/><path fill="#662f2a" fill-opacity=".5" d="M117.6 110.2l-1.8-9.9-34.7 10.2 32 3.4z"/><path fill="#c5b8a6" fill-opacity=".7" d="M142 181l1 27 42-28z"/><path fill="#ae8166" fill-opacity=".4" d="M34.6 80.4l3.7 41.9-15 1.3-3.6-41.9z"/><circle r="1" fill="#947055" fill-opacity=".6" transform="matrix(-10.4982 -1.69136 1.36887 -8.49655 48.8 69.2)"/><ellipse cx="80" cy="190" fill="#d6cec3" fill-opacity=".6" rx="20" ry="26"/><path fill="#051e03" fill-opacity=".5" d="M10.2 119.9L-16 139.5l18.4-7.8-2.1 7.1z"/><path fill="#cfcbc7" fill-opacity=".6" d="M131.3 124l7.1-8.3L93.9 92l35.4-68.3z"/><path fill="#a5701f" fill-opacity=".5" d="M75 45h10v15H75z"/><path fill="#c7c2b9" fill-opacity=".4" d="M132.5 233.5l-20.3-38-.3 3.4 32.6 17.8z"/><path fill="#ebe9e5" fill-opacity=".6" d="M89 180l16 48 35 17z"/><path fill="#806f53" fill-opacity=".5" d="M136 166h34v16h-34z"/><path fill="#ffc88b" fill-opacity=".5" d="M128.7 137.2l3-.3 3.6 33.9-3 .3z"/><path fill="#bbaea0" fill-opacity=".8" d="M103.1 155.3l-27.8-20.6 35-2.5 11.5 40.3z"/><path fill="#97604d" fill-opacity=".7" d="M101.4 196.9l27.2 7.1-19.7-23.7 21.1 13.6z"/><path fill="#3f7328" fill-opacity=".4" d="M148.4 63.8l-4.4-1.4h29.6l11.4 48.7z"/><path fill="#8e7456" fill-opacity=".7" d="M163.1 122.6l-33.7-25.4 8.5 29.7 29.2-51z"/><path fill="#fff2e1" fill-opacity=".4" d="M62 99l7 52-12-27z"/><ellipse cy="64" fill="#e2e8ea" fill-opacity=".5" rx="13" ry="62"/><path fill="#b3987d" fill-opacity=".8" d="M9.9 117.8l23.4-18.6-19.9 27.6 3.1 37.2z"/><path fill="#e7dfd0" fill-opacity=".4" d="M10.9 126.6l8.2-5.4 31.6 26.3-7.8-7.7z"/><path fill="#8e4106" fill-opacity=".2" d="M81.5 219.4l-6-1.8 14.7 4.1-21.6 16.7z"/><path fill="#63503e" fill-opacity=".5" d="M132 31h2v79h-2z"/><circle cx="95" cy="104" r="6" fill="#350000" fill-opacity=".5"/><path fill="#e8edf1" fill-opacity=".4" d="M161 209h9v47h-9z"/><path fill="#ded2c9" fill-opacity=".6" d="M54.1 78.9l.8-10.5 22.4 18L69.5 64z"/><circle r="1" fill="#d6d3c3" fill-opacity=".4" transform="matrix(13.56267 7.3347 -8.26921 15.29067 24.8 75)"/></g></svg>