<svg xmlns="http://www.w3.org/2000/svg" viewBox="0 0 300 199"><defs/><path fill="#6d3e36" d="M0 0h300v199H0z"/><g transform="translate(.6 .6) scale(1.17188)"><path fill="#b6c8f6" fill-opacity=".5" d="M142.5 207l-7.9-149.8 81-4.2 7.8 149.8z"/><circle r="1" fill="#000308" fill-opacity=".8" transform="matrix(-6.06665 -29.11932 69.13946 -14.40435 72.3 167.2)"/><circle r="1" fill="#b38652" fill-opacity=".7" transform="matrix(-68.58945 -49.19098 25.54725 -35.62182 89.8 17.7)"/><circle r="1" fill="#000c38" fill-opacity=".7" transform="matrix(-26.54198 11.20492 -24.1228 -57.14157 249.6 145)"/><circle r="1" fill="#5b7c94" fill-opacity=".7" transform="rotate(-74.6 79.9 46.3) scale(50.57343 26.51607)"/><ellipse cx="102" cy="93" fill="#000300" fill-opacity=".5" rx="58" ry="15"/><circle r="1" fill="#f3cbeb" fill-opacity=".5" transform="rotate(162.2 91.6 50.8) scale(35.45116 20.86271)"/><ellipse cx="246" cy="23" fill="#09050a" fill-opacity=".7" rx="54" ry="17"/><path fill="#cec0a8" fill-opacity=".4" d="M168.1 121.3l-93.9 20-4.3-20.6 93.9-20z"/><ellipse cx="23" cy="43" fill="#020000" fill-opacity=".6" rx="24" ry="22"/><circle r="1" fill="#020122" fill-opacity=".6" transform="matrix(-6.17729 -.76117 4.05193 -32.8837 156.2 64)"/><path fill="#3c0300" fill-opacity=".6" d="M92.8 7.4l25-.8 1.4 38-25 .8z"/><ellipse cx="186" cy="104" fill="#993100" fill-opacity=".5" rx="31" ry="10"/><circle r="1" fill="#ae797d" fill-opacity=".7" transform="rotate(125.2 73 45.9) scale(18.20855 38.46913)"/><path fill="#040000" fill-opacity=".6" d="M53 54.3L71 48l20 57.6-18 6.2z"/><circle r="1" fill="#ffffa8" fill-opacity=".6" transform="matrix(-.15654 -4.1133 40.18772 -1.52942 249.5 1.3)"/><circle r="1" fill="#232d38" fill-opacity=".5" transform="matrix(-2.83267 -37.03284 25.43417 -1.94548 40.8 133)"/><circle r="1" fill="#91aedd" fill-opacity=".5" transform="rotate(-168.6 94.8 56.5) scale(49.35607 16.41319)"/><circle r="1" fill="#ddd8ce" fill-opacity=".5" transform="matrix(1.42277 22.19668 -4.42345 .28354 60 93.7)"/><path fill="#cca27b" fill-opacity=".5" d="M78 52h73v23H78z"/><path fill="#ffd3c2" fill-opacity=".3" d="M28.7 103.6l17.7 48L41.6 67 6.4 74.2z"/><path fill="#120509" fill-opacity=".7" d="M167-5l47 44-9-55z"/><circle r="1" fill="#5a4b72" fill-opacity=".6" transform="rotate(-111.4 145.7 -35.7) scale(13.7807 31.49519)"/><circle r="1" fill="#010201" fill-opacity=".8" transform="matrix(-15.25347 -6.72758 7.77368 -17.62529 123.4 150)"/><path fill="#c29461" fill-opacity=".5" d="M141 106L116-16l39 74z"/><path fill="#3c2320" d="M22.8 95.6l-23.6-.5L8.4-16-16 54.6z"/><path fill="#0f071e" fill-opacity=".6" d="M176 51l-28 30 19-59z"/><circle cx="225" cy="38" r="12" fill="#e8acd2" fill-opacity=".3"/><circle r="1" fill="#daa96f" fill-opacity=".3" transform="matrix(-14.45615 30.45626 -20.82048 -9.8825 68.7 22.8)"/><circle r="1" fill="#7cbbf3" fill-opacity=".5" transform="matrix(.86262 -26.8278 13.41665 .4314 152.8 147.5)"/><circle r="1" fill="#030415" fill-opacity=".9" transform="matrix(11.98133 -17.05705 18.62382 13.08187 244.1 161.4)"/><path fill="#080000" fill-opacity=".5" d="M238 9h18v56h-18z"/><ellipse cx="4" cy="129" fill="#2ab1ee" fill-opacity=".4" rx="9" ry="36"/><path fill-opacity=".5" d="M21 22h23v30H21z"/><path fill="#a46448" fill-opacity=".7" d="M180.8 111.9l-34.9 8.5 3.5-15.2 42.6-18z"/><path fill-opacity=".5" d="M104 76h30v22h-30z"/><path fill="#030202" fill-opacity=".8" d="M41.1 150.1l17.9-32L90.5 185l42.3-54.2z"/><circle r="1" fill="#ffd954" fill-opacity=".6" transform="matrix(7.2117 .02821 -.04767 12.18473 215.6 0)"/><circle r="1" fill="#bb8950" fill-opacity=".5" transform="matrix(-10.9841 -17.34365 19.91516 -12.6127 27.8 3)"/><ellipse cx="234" cy="108" fill="#1b1e46" fill-opacity=".5" rx="33" ry="20"/><ellipse cx="178" cy="162" fill="#51545f" fill-opacity=".4" rx="10" ry="42"/><path fill-opacity=".6" d="M39 51l37 1v33z"/><path fill="#c8cff6" fill-opacity=".7" d="M153.2 98.5L138 131.1l-10.3-8.5 4.1-8.4z"/><path fill="#6d3c43" fill-opacity=".6" d="M170.2 40.2l25.7-15.5 14 23.1L184 63.3z"/><path fill="#a37d5c" fill-opacity=".6" d="M110.8 100.5l-6.4 2.9 21.4 27.7-1.5-29.4z"/><path fill="#32180f" fill-opacity=".9" d="M119.1 95l-20-17.8-30.8 28.1-10.1 17.3z"/><circle r="1" fill-opacity=".5" transform="matrix(-4.42262 17.6072 -4.39157 -1.10309 51.6 103.6)"/><path fill="#b68a63" fill-opacity=".7" d="M79.9 78.2l-1.4-61.4 25.9 56.8 16.8 3.6z"/><circle r="1" fill="#221851" fill-opacity=".3" transform="matrix(.0201 -5.50306 37.61302 .13742 205.5 160)"/><path fill="#dac0da" fill-opacity=".7" d="M215.8 45.9l-21.6 53.4-25.6-41.9-8.1 44.7z"/><path fill="#ba90af" fill-opacity=".4" d="M261.2 66.2l-13.8 24.7-22.6.5 38.5-28.3z"/><path fill="#442f31" fill-opacity=".6" d="M17 104h24v27H17z"/><path fill="#e0a3ce" fill-opacity=".6" d="M143 8.8l17.4-7.7 4.5 10-17.3 7.8z"/><path fill="#83b2e1" fill-opacity=".5" d="M227 185l-52.7-43.6 46.6-14.3-48.5 53.1z"/><path fill="#6a2e00" fill-opacity=".5" d="M93 6h28v43H93z"/><path fill="#1b0802" fill-opacity=".6" d="M138.7 108.7l5.7-5.7L94 79.6l35.6 29.3z"/><path fill="#271228" fill-opacity=".4" d="M151.5 65.2l27-73-32.4 53.6 38.9 6.7z"/><circle r="1" fill="#00121b" fill-opacity=".6" transform="matrix(-19.83655 5.31519 -2.69112 -10.0434 14 167.2)"/><path fill="#ffd6c4" fill-opacity=".2" d="M6.3 50.6l16.2-10.7-7.2 52.4 25.5 11.3z"/><path fill="#c78db3" fill-opacity=".4" d="M152 141l71-35-53 10z"/><path fill="#fffbeb" fill-opacity=".9" d="M257-2.1v6L245 4v-6z"/><path fill="#a18e84" fill-opacity=".6" d="M63.7 79.9l2.7 26.7-9.1 15.7-5-7z"/><path fill="#8f603d" fill-opacity=".5" d="M105 133l-39 10 19-45z"/><path fill="#5f3938" fill-opacity=".6" d="M239.9 37.1l-20 17.7 9.8 31.1 20.1-21.4z"/><path fill="#0f0000" fill-opacity=".5" d="M72.8 84.1L89 94.6l42.8-5.6 4.5-16.7z"/></g></svg>