<svg xmlns="http://www.w3.org/2000/svg" viewBox="0 0 300 199"><defs/><path fill="#444443" d="M0 0h300v199H0z"/><g transform="translate(.6 .6) scale(1.17188)"><circle r="1" fill="#fafafb" fill-opacity=".5" transform="rotate(-31.7 94 -118.3) scale(70.607 160.56173)"/><circle r="1" fill="#dededf" fill-opacity=".6" transform="matrix(18.20894 18.52955 -12.40917 12.19446 201.2 62.7)"/><circle r="1" fill="#474747" fill-opacity=".9" transform="rotate(-49.6 192 -17.8) scale(36.88031 29.29605)"/><circle r="1" fill="#fff" fill-opacity=".6" transform="rotate(-50.7 267.5 -103.5) scale(20.13044 82.4374)"/><ellipse cx="157" cy="36" fill="#767676" fill-opacity=".9" rx="40" ry="41"/><circle r="1" fill-opacity=".6" transform="rotate(-41.1 258.7 -212.8) scale(42.53455 22.73537)"/><path fill="#fff" fill-opacity=".5" d="M11 49h34v35H11z"/><ellipse cx="98" cy="15" fill="#e8e8e8" fill-opacity=".3" rx="67" ry="32"/><path fill="#d6d6d6" fill-opacity=".5" d="M81 117l20 9-43 45z"/><ellipse cx="117" cy="66" fill="#555" fill-opacity=".6" rx="76" ry="11"/><path fill="#0d0d0d" fill-opacity=".6" d="M7.5 106l38.4-31.4-13.4 77.1-23.8 18.1z"/><circle r="1" fill="#808081" fill-opacity=".5" transform="matrix(-15.93099 22.67545 -79.70713 -55.99948 223.5 7.5)"/><path fill="#fff" fill-opacity=".5" d="M85 75h23v33H85z"/><path fill-opacity=".5" d="M16 130h55v24H16z"/><path fill="#0c0c0c" fill-opacity=".7" d="M174.5 87.5L209.7 76l15.8 48.5-35.2 11.5z"/><path fill-opacity=".5" d="M102.4 165.6L86.8 162l12.8-55.6 15.6 3.6z"/><path fill="#fff" fill-opacity=".5" d="M207 94.8l7.7-14 4.4 2.4-7.8 14z"/><circle cx="135" cy="131" r="25" fill="#f1f1f1" fill-opacity=".6"/><path fill="#cacaca" fill-opacity=".5" d="M-2.3 87l-24.5-11.5 43.1-92.4L40.8-5.5z"/><path fill="#848484" fill-opacity=".7" d="M188.1 157.7l8.5-23.2 49.8 50.5-71.3-4.7z"/><path fill="#fbfbfb" fill-opacity=".5" d="M195.8 38.3l20 9.6 4.8 33.3-30.9-6.7z"/><path fill="#e2e2e2" fill-opacity=".5" d="M42 90h13v39H42z"/><path fill="#d6d6d6" fill-opacity=".7" d="M20.9 97.2l-9.7-26.3L93.8 7.3 28.5 85.5z"/><path fill="#aaa" fill-opacity=".5" d="M90.5 162.4L76.3 90.9l-7 86.5 126.8-10.9z"/><path fill="#2b2b2b" fill-opacity=".5" d="M191 38l-49 37-20-20z"/><path fill="#f6f6f6" fill-opacity=".5" d="M56 107l67-24-74 5z"/><circle r="1" fill="#979798" fill-opacity=".5" transform="matrix(-4.68974 -18.95038 12.04066 -2.97976 253.3 116.4)"/><ellipse cx="32" cy="35" fill="#232323" fill-opacity=".5" rx="8" ry="11"/><path fill-opacity=".7" d="M189 83.7l-6-.7 4-32.7 6 .7z"/><path fill="#f4f4f4" fill-opacity=".4" d="M178.8 81.3l-26.1-20.7 6.5-4.1-6.2 45.4z"/><path fill="#191919" fill-opacity=".3" d="M110.6 87.1l-9.9 97.9 19.3-82.1 27.2-1.7z"/><circle r="1" fill-opacity=".5" transform="matrix(7.35304 -19.05585 8.79271 3.39283 61.2 133.2)"/><ellipse cx="226" cy="72" fill-opacity=".5" rx="6" ry="28"/><path fill="#bdbdbd" fill-opacity=".5" d="M115 33L5-7l75 78z"/><path fill="#686868" fill-opacity=".8" d="M56.4 53.8L88 69l-8.3 17.1L48 71z"/><path fill="#0a0a0a" fill-opacity=".5" d="M103.7 121l7.2 28.5-8 13.8-24-11.8z"/><path fill="#111" fill-opacity=".7" d="M218 155.8l.3-31.2-59.2 6.6 42.8 10z"/><path fill="#505050" d="M26.7 104.6l-4.4-.9 4.9-22.3 8.5 22.5z"/><path fill="#f8f8f8" fill-opacity=".4" d="M177.2 50.9l7.3-2.7 2.3.3-5.3 30z"/><path fill="#747475" fill-opacity=".6" d="M246.4 188.5l-35.9-27 15-20 36 27z"/><path fill="#1e1e1f" fill-opacity=".7" d="M265 169l-30-53-19 8z"/><circle r="1" fill="#d9d9da" fill-opacity=".5" transform="matrix(2.45835 21.95821 -8.4943 .95098 117.2 162)"/><path fill="#727273" fill-opacity=".5" d="M1 91l3-51 15 1z"/><path fill="#020202" fill-opacity=".3" d="M70.8 57.4l-17.7-2 .4 23.9-40.1 25.1z"/><path fill-opacity=".2" d="M136 32.3l-23.3 51.1 19.6-15.8 14.5 6.4z"/><path fill="#868686" fill-opacity=".5" d="M40 68h63v14H40z"/><path fill="#a3a3a3" fill-opacity=".5" d="M116.2 17.2l24.3 17.6-24.7 34-24.3-17.6z"/><path fill="#2c2c2c" fill-opacity=".6" d="M172.2 34.7l2.6 38-9 .6-2.6-38z"/><path fill="#d3d3d3" fill-opacity=".6" d="M209.3 91.8l6.8 3.7 6.2-24.5-5.3-15z"/><path fill="#e1e1e1" fill-opacity=".5" d="M141 170.1l-12.1-72.6 29.6 30 29.1 29z"/><path fill="#8e8e8f" fill-opacity=".3" d="M-11.4 172.5l79.1-19.4 26 27.5.6 4.4z"/><path fill="#eee" fill-opacity=".4" d="M109.4 69.9l-9.6 43.6 11-28.3 17.9 24.2z"/><path fill-opacity=".5" d="M91 58h11v7H91z"/><path fill-opacity=".4" d="M90.8 124.5L73.9 77.9l4.3-2.1 8 43.7z"/><path fill="#656565" fill-opacity=".5" d="M21 116h5v32h-5z"/><path fill="#0f0f0f" fill-opacity=".6" d="M167.2 138.7l-6.1-13.3 45.2 14.1 4.1-65.3z"/><path fill="#aeaeae" fill-opacity=".7" d="M171.1 135.8l-9.4-18.8-21.3 11.2 36.7-17.8z"/><path fill="#6b6b6b" fill-opacity=".5" d="M170 84h10v23h-10z"/><path fill="#131314" fill-opacity=".6" d="M220 32l-19 2 36 33z"/><path fill="#0d0d0d" fill-opacity=".6" d="M110 108l-10 21-18-20z"/><path fill="#dbdbdb" fill-opacity=".3" d="M134.8 86.4L174.4 74l4.5 9.2-15.8 18.4z"/><path fill="#141414" fill-opacity=".8" d="M59.7 118.2l20 1.3-33.9 39.1H29.1z"/><path fill="#e1e1e1" fill-opacity=".7" d="M88.9 107.1l14.4 2.2-13.6-32.7-11.2 4.6z"/><path fill="#050505" fill-opacity=".3" d="M106.2 75.3l35 16-13.3-14.5-8-4.9z"/><path fill="#dedede" fill-opacity=".4" d="M16.7 25.3l7.6 68.6-16.5-7.3L45.5 83z"/></g></svg>