<svg xmlns="http://www.w3.org/2000/svg" viewBox="0 0 300 199"><defs/><path fill="#5c3a2b" d="M0 0h300v199H0z"/><g transform="translate(.6 .6) scale(1.17188)"><circle r="1" fill="#a78769" fill-opacity=".7" transform="matrix(22.1333 102.37058 -67.7003 14.63732 107.1 79)"/><circle r="1" fill="#050000" fill-opacity=".8" transform="matrix(25.23262 -39.72833 46.9835 29.8406 221 61.8)"/><path fill="#fff" fill-opacity=".4" d="M192-19.1L208.4 1 154 45l-16.4-20z"/><ellipse cx="196" cy="139" fill="#ffd0b0" fill-opacity=".4" rx="14" ry="42"/><path fill="#e5cbba" fill-opacity=".5" d="M0 3h13v107H0z"/><path fill="#d7cec2" fill-opacity=".7" d="M77.2 164.1l49.2-27.3 19.2 11.9-8.7 9.2z"/><circle r="1" fill="#fffff5" fill-opacity=".6" transform="rotate(-59.4 113.7 -9.5) scale(21.55045 7.7645)"/><circle r="1" fill="#0c0604" fill-opacity=".8" transform="matrix(-13.24298 -5.85256 9.5077 -21.51371 21.6 109.1)"/><ellipse cx="94" cy="79" fill="#4b1b00" fill-opacity=".6" rx="16" ry="29"/><circle r="1" fill="#ffe4ce" fill-opacity=".5" transform="matrix(41.13225 -16.92938 1.76958 4.29944 73.4 52.8)"/><path fill="#2c1700" fill-opacity=".7" d="M174 82.8l-28.9 7.7-5.2-19.3 29-7.7z"/><ellipse cx="130" cy="16" fill="#cdafac" fill-opacity=".6" rx="28" ry="11"/><circle r="1" fill="#5f4330" fill-opacity=".5" transform="matrix(15.42435 18.08899 -59.98847 51.15173 53.6 26.1)"/><path fill="#fffff7" fill-opacity=".5" d="M-3 115l14.5-36.2 5.6 2.2-14.6 36.2z"/><circle r="1" fill="#100601" fill-opacity=".8" transform="matrix(32.74008 18.67461 -10.45808 18.33496 247.1 110.6)"/><circle r="1" fill="#ba7d48" fill-opacity=".5" transform="matrix(96.55773 50.90911 -7.05217 13.37563 196 126.8)"/><path fill="#100306" fill-opacity=".6" d="M45.8 73l21.8-10 4.6 10-21.8 10z"/><circle r="1" fill="#491800" fill-opacity=".6" transform="matrix(46.93509 9.0939 -.78643 4.05891 118 106)"/><path fill="#d2cdc1" fill-opacity=".6" d="M187 139h23v17h-23z"/><path fill="#f7aa8a" fill-opacity=".3" d="M3.6 86.5l-5.7-30 48.9 3.3 54.1-11.3z"/><path fill="#300c04" fill-opacity=".6" d="M96 93l-45 32 20-26z"/><path fill="#ffdb6e" fill-opacity=".5" d="M121 87h31v14h-31z"/><circle r="1" fill="#2f4100" fill-opacity=".5" transform="rotate(102.4 20.8 129.9) scale(6.40907 25.80664)"/><ellipse cx="39" cy="2" fill="#4d4f4a" fill-opacity=".8" rx="34" ry="16"/><path fill="#bfa689" fill-opacity=".6" d="M76 150l21-43 41 4z"/><circle r="1" fill="#f4e0c3" fill-opacity=".5" transform="matrix(-2.21861 -7.76892 6.7495 -1.9275 163.4 123.5)"/><circle r="1" fill="#7a4431" fill-opacity=".9" transform="rotate(-122.3 54 59.6) scale(15.57502 29.95883)"/><path fill="#e1c4b0" fill-opacity=".7" d="M97.5 48.9L50.3 66.4l59.5-38.7 2 15.4z"/><path fill="#fff" fill-opacity=".5" d="M164-16l24 30-16 1z"/><path fill="#ffe1d5" fill-opacity=".5" d="M17 25L-5-2l16 41z"/><ellipse cx="229" cy="34" fill="#0a0100" fill-opacity=".5" rx="55" ry="27"/><path fill="#0f1115" fill-opacity=".6" d="M32.8 28.5l7.6 16.3-27.2 12.7-7.6-16.3z"/><path fill="#fff" fill-opacity=".6" d="M148 26h24v8h-24z"/><path fill="#070800" fill-opacity=".4" d="M129.1-13.8L126.7 12l-21.1-2.5 3.8-9.4z"/><circle r="1" fill="#7c3727" fill-opacity=".4" transform="matrix(-13.47863 12.37261 -23.33051 -25.41608 189.8 110.9)"/><path fill="#663728" fill-opacity=".5" d="M150-5.1l12.7-3 7.2 31.2-12.6 3z"/><ellipse cx="76" cy="169" fill="#755444" rx="23" ry="9"/><path fill="#472f20" fill-opacity=".6" d="M108 23L43 6l40 33z"/><path fill="#ffd0ba" fill-opacity=".5" d="M48.1 93.5l16.5-16.7 12.5 18.7-33.4 12.9z"/><path fill="#663b2c" fill-opacity=".7" d="M127.9 124.2l13.6 1.6-46.7 25.7-9.2-6z"/><path fill="#251108" fill-opacity=".9" d="M195.1 102.2l-27-65.3-6.3 16.1.1-2z"/><path fill="#c4b1a8" fill-opacity=".8" d="M58.7 131.3l31.5 3.1-11.6 2.4-18.3-17z"/><path fill="#590100" fill-opacity=".4" d="M118.9 24.3l-4.5-.9 2.4 19.5 26.9-.3z"/><path fill="#dcc6ba" fill-opacity=".7" d="M-13.6 185L-16 82.3l18.7 4.6 9.4-6.7z"/><path fill="#070b1c" fill-opacity=".5" d="M176-2l14 2 4 13z"/><path fill="#baa398" fill-opacity=".8" d="M157.4 12L90.5 9l39.2 18.7.4-31.3z"/><path fill="#43271f" fill-opacity=".5" d="M78 67l19-21 35 36z"/><path fill="#050a09" fill-opacity=".5" d="M220.6 158.4l-22.1 11 15.5-19.5h5z"/><path fill="#8e8180" fill-opacity=".5" d="M123.5 37.6l-21.8 18.7 28.4 19.9L170.5 65z"/><path fill="#ce9a7f" fill-opacity=".5" d="M43 37l16-25-24 18z"/><path fill="#edd1a0" fill-opacity=".4" d="M178 86l11 31-19-18z"/><circle r="1" fill="#886956" fill-opacity=".5" transform="matrix(-27.85708 7.82114 -3.12962 -11.14697 171.5 158)"/><path fill="#90694e" fill-opacity=".6" d="M231.7 151.3l9.5 16.4-32.9 19-9.5-16.4z"/><path fill-opacity=".6" d="M16 80h15v38H16z"/><path fill="#000003" fill-opacity=".5" d="M184.1 120l-17.4-7.5 21.7 1.1v6.6z"/><path fill="#443d00" fill-opacity=".5" d="M177.5 145.9l23.3-12.7-7.5-4-24.7 3.8z"/><path fill="#290000" fill-opacity=".2" d="M48 130l-25 55 66-46z"/><path fill="#622600" fill-opacity=".5" d="M125.2 117.2l5.9-8.8-8.7-11.5-29.5 1.8z"/><circle r="1" fill="#cac4be" fill-opacity=".6" transform="rotate(40.4 -128 340.5) scale(13.36328 2.48633)"/><path fill="#7e4f37" fill-opacity=".6" d="M-16 44.1L-1.1 3.5l7.3 25.1-9.7 77.7z"/><circle r="1" fill="#888e9e" fill-opacity=".6" transform="rotate(51.3 101 210.2) scale(10.17699 13.41078)"/><path fill="#f3f7e8" fill-opacity=".5" d="M212 151l-18-3 7 13z"/><path fill="#dabfaf" fill-opacity=".7" d="M118.2 31.5L83.7 56.2 66.2 65l39.3-31.9z"/><path fill="#fffff7" fill-opacity=".5" d="M62.6 175l-.2-12h5l.2 12z"/><path fill="#ac725a" fill-opacity=".5" d="M43 116l-9-29 20-8z"/></g></svg>