<svg xmlns="http://www.w3.org/2000/svg" viewBox="0 0 300 199"><defs/><path fill="#3b3b3b" d="M0 0h300v199H0z"/><g transform="translate(.6 .6) scale(1.17188)"><path fill="#ebebeb" fill-opacity=".4" d="M65.4 223.1l-32-57.7 145.2-80.5 32 57.7z"/><circle r="1" fill-opacity=".8" transform="matrix(56.5493 54.37645 -80.41532 83.62865 34.2 59)"/><path fill="#f9f9f9" fill-opacity=".6" d="M171.5 52.8l20.3 5.4-15.3 57-20.3-5.4z"/><circle r="1" fill="#020202" fill-opacity=".7" transform="matrix(32.41841 8.8358 -17.05836 62.58686 227 51.8)"/><circle r="1" fill="#111" fill-opacity=".6" transform="matrix(23.42778 -16.67335 20.32154 28.55387 130 98.4)"/><ellipse cx="158" cy="50" fill="#868686" fill-opacity=".6" rx="36" ry="14"/><path fill="#010101" fill-opacity=".6" d="M181 136l90 22-96 20z"/><circle r="1" fill="#c7c7c7" fill-opacity=".3" transform="matrix(-3.2932 -28.0641 62.30175 -7.31085 84 169)"/><ellipse cx="161" cy="36" fill="#fff" fill-opacity=".6" rx="3" ry="16"/><path fill-opacity=".5" d="M138.3-18.3l97.2 49.5-11.8 23.1-97.2-49.5z"/><path fill="#e7e7e7" fill-opacity=".5" d="M161 64h14v72h-14z"/><path fill="#fff" fill-opacity=".4" d="M202.3 15.4l-1.6-17.9 11-1 1.6 18z"/><path fill="#141414" fill-opacity=".7" d="M49.9 48.9l118 20L154 36.3l-53.2 99.6z"/><path fill="#fff" fill-opacity=".3" d="M142.5 102.2l7.5-3.6-28.6-58.5 28 34.4z"/><path fill="#030303" fill-opacity=".9" d="M195.4-13.5l25.2 131.1-4.8 67.4-6.9-39.2z"/><path fill="#888" fill-opacity=".5" d="M208 151h-14v-30h14z"/><path fill="#181818" fill-opacity=".7" d="M53 0h105v39H53z"/><circle r="1" fill="#202020" fill-opacity=".4" transform="matrix(-4.09428 -.79585 3.97737 -20.4618 182.2 102.1)"/><path fill="#333" fill-opacity=".7" d="M144.2 161.8l6.8-32.5 3.9-87.7-14.1 99.6z"/><path fill="#666" fill-opacity=".6" d="M138.7 115.1l4 13.4-99.4 30.4-4-13.4z"/><path fill="#fff" fill-opacity=".5" d="M131 44h7v19h-7z"/><circle cx="255" cy="78" r="35" fill="#1e1e1e" fill-opacity=".9"/><circle r="1" fill-opacity=".6" transform="matrix(-21.38098 73.8594 -27.89903 -8.07627 20.3 97.1)"/><path fill="#d2d2d2" fill-opacity=".3" d="M166.9 70.9L154.4-16l25.8 98.7-12.9 73.4z"/><ellipse cx="183" cy="50" fill="#7b7b7b" fill-opacity=".8" rx="9" ry="16"/><circle r="1" fill="#343434" fill-opacity=".6" transform="matrix(3.26017 .7853 -3.14116 13.04066 172.9 148.9)"/><path fill="#9c9c9c" fill-opacity=".7" d="M32.6 161l139 .4 18.6-62.7-18.9 86.3z"/><path fill-opacity=".6" d="M192 137l-13 1 6 40z"/><ellipse cx="129" cy="87" fill="#090909" fill-opacity=".5" rx="14" ry="26"/><path fill="#616161" fill-opacity=".4" d="M219 103h18v46h-18z"/><path fill="#080808" fill-opacity=".5" d="M166 0h33v35h-33z"/><ellipse cx="196" cy="169" fill="#858585" fill-opacity=".6" rx="15" ry="3"/><circle cx="182" cy="53" r="5" fill="#040404" fill-opacity=".5"/><path fill="#c8c8c8" fill-opacity=".5" d="M193 52l-7-17 3 35z"/><path fill="#efefef" fill-opacity=".5" d="M143 69h3v26h-3z"/><path fill="#141414" fill-opacity=".6" d="M151 67h9v46h-9z"/><circle cx="92" cy="44" r="32" fill="#1a1a1a" fill-opacity=".5"/><path fill="#010101" fill-opacity=".5" d="M234 32.6l-40.9 96.2 2.8-46.1-6.4-48.3z"/><path fill="#747474" fill-opacity=".6" d="M192 118h14v34h-14z"/><path fill="#2d2d2d" fill-opacity=".5" d="M-14.3 167.8l128.3-44 43.8-17.5-64.6 9z"/><path fill-opacity=".4" d="M139 49h17v16h-17z"/><path fill="#d0d0d0" fill-opacity=".4" d="M137.2 47.9l15.3-6.1v-6.4l-30.9 15z"/><path fill="#090909" fill-opacity=".5" d="M271 137.1l-107.3 34.1 67.5-8.6 26.5 9.2z"/><path fill="#393939" fill-opacity=".5" d="M142 154h22v7h-22z"/><path fill="#d5d5d5" fill-opacity=".6" d="M159.9 102.2l.4 29.2 30.2-66.1-28.3 12.1z"/><path fill="#a4a4a4" fill-opacity=".4" d="M127.2 121.5l18.5 11.5 4.3-4.5L69.4 185z"/><path fill="#4e4e4e" fill-opacity=".7" d="M157.7 137.6l2.4-27.2-100.1 34 53.3-32.2z"/><path fill="#b7b7b7" fill-opacity=".6" d="M191 136.7l-9.3-5.1 8-23.2.9 8.4z"/><path fill="#121212" fill-opacity=".5" d="M139 60l-87 73 94-25z"/><path fill="#757575" fill-opacity=".9" d="M161.9 50.6l-3.7-.2-2.8 6.5 31.9 5.3z"/><path fill="#eaeaea" fill-opacity=".5" d="M201 1h9v8h-9z"/><path fill="#323232" fill-opacity=".4" d="M162.8 117.2l1-.2 9.4 37.8-1 .2z"/><path fill="#b6b6b6" fill-opacity=".5" d="M147 140h22v11h-22z"/><circle r="1" fill-opacity=".5" transform="rotate(171.7 11.3 11) scale(23.11872 128.23403)"/><ellipse cx="145" cy="91" fill="#fff" fill-opacity=".3" rx="2" ry="12"/><path fill="#3c3c3c" fill-opacity=".5" d="M4 57h5v33H4z"/><circle r="1" fill="#3e3e3e" fill-opacity=".5" transform="rotate(-132.8 116.3 25) scale(1.60374 8.54966)"/><path fill="#777" fill-opacity=".5" d="M156 17l11-7-5 14z"/><path fill="#212121" fill-opacity=".5" d="M174-8.2l48.3 35.9-98.1-42.4 6.1 65z"/><path fill="#383838" fill-opacity=".4" d="M193 76l-18 25 33 13z"/><ellipse cx="171" cy="148" fill-opacity=".4" rx="2" ry="12"/><ellipse cx="252" cy="22" fill="#1a1a1a" fill-opacity=".9" rx="21" ry="83"/><path fill="#e5e5e5" fill-opacity=".5" d="M177 37h6v6h-6z"/><ellipse cx="184" cy="48" fill="#151515" fill-opacity=".3" rx="3" ry="23"/><path fill="#acacac" fill-opacity=".6" d="M20 172l65-19 28 17z"/></g></svg>