<svg xmlns="http://www.w3.org/2000/svg" viewBox="0 0 298 450"><defs/><path fill="#533f31" d="M0 0h298v450H0z"/><g transform="translate(.9 .9) scale(1.75781)"><ellipse cx="70" cy="119" fill="#e8ebe2" fill-opacity=".6" rx="92" ry="224"/><circle r="1" fill="#fefef8" fill-opacity=".7" transform="matrix(-6.0877 104.28003 -25.71 -1.5009 42.8 180.5)"/><ellipse cx="159" cy="40" fill="#8b8371" rx="35" ry="128"/><circle r="1" fill="#8c8476" fill-opacity=".8" transform="matrix(166.99393 -13.1427 4.1145 52.27962 34.3 23)"/><ellipse cx="86" cy="97" fill="#feffff" fill-opacity=".8" rx="12" ry="30"/><ellipse cx="117" cy="138" fill="#f8fdfc" fill-opacity=".6" rx="11" ry="70"/><ellipse cx="106" cy="255" fill="#c6c6c8" fill-opacity=".5" rx="169" ry="23"/><path fill-opacity=".5" d="M69 60h5v127h-5z"/><ellipse cy="100" fill="#66604c" fill-opacity=".5" rx="17" ry="144"/><path fill="#211700" fill-opacity=".4" d="M101 219.8l27.2-9.3 8.8-85.2 3.6 92.8z"/><path fill="#221e0c" fill-opacity=".6" d="M151 165h19v60h-19z"/><path fill="#fffffc" fill-opacity=".6" d="M73 146h10v60H73z"/><path fill="#fbf9f3" fill-opacity=".6" d="M75.4 232.3l-86.1 18.5 3.9-8.4 87.1-38.8z"/><path fill="#7d6c4c" fill-opacity=".4" d="M21 60h16v86H21z"/><path fill="#835b46" fill-opacity=".8" d="M81.1 131.7l9-10.3 5.5 15.6 1.6 26.8z"/><path fill="#5e513b" fill-opacity=".7" d="M139.2 63.6l-49.2-4L131.5 76l5.8 136z"/><path fill="#ebede9" d="M61.4 243.8l2.4-169.2-5.2-2.4-20.2 4z"/><ellipse cx="146" cy="157" fill="#e8f9ff" fill-opacity=".3" rx="5" ry="65"/><path fill="#cdcfc9" fill-opacity=".5" d="M-.5 96.9l12 .2-1 58-12-.2z"/><path fill="#958879" fill-opacity=".6" d="M86.4 190.1l-15.1 66.5 64.8-62.5-33.4 7.4z"/><path fill="#746a56" d="M0 175h12v60H0z"/><path fill="#f4f6f5" d="M97.6 127.8L75.8 85.2l-.3-14.8 22-2.8z"/><path fill="#fff" fill-opacity=".6" d="M108 74h20v21h-20z"/><circle r="1" fill="#9c988c" fill-opacity=".7" transform="matrix(1.34547 0 0 110.92452 117.6 112.9)"/><path fill="#847863" fill-opacity=".6" d="M98 59h10v81H98z"/><ellipse cx="25" cy="212" fill="#735735" fill-opacity=".5" rx="5" ry="6"/><path fill="#5e5643" fill-opacity=".6" d="M11 44h6v130h-6z"/><path fill="#2a200e" fill-opacity=".5" d="M136 85l4-27-16 3z"/><ellipse cx="27" cy="144" fill="#d9d4c4" fill-opacity=".5" rx="11" ry="48"/><path fill="#f0f0e8" fill-opacity=".6" d="M75 67h8v130h-8z"/><path fill="#050500" fill-opacity=".4" d="M135.3 205.9l-1-2 11.4 17-19.9-5.5z"/><path fill="#230b00" fill-opacity=".6" d="M70 74h3v70h-3z"/><path fill="#fcfbf6" fill-opacity=".5" d="M38 144h30v69H38z"/><path fill="#fff" fill-opacity=".5" d="M127.3 169.3l.4 27-21 .4-.4-27z"/><path fill="#6d4230" fill-opacity=".5" d="M92 187l-7-8 10-14z"/><path fill="#d2d8e5" fill-opacity=".5" d="M122 254l12-32-31 2z"/><circle r="1" fill="#9e9990" fill-opacity=".4" transform="rotate(86 21.8 55.7) scale(30.30498 73.8753)"/><path fill="#6f4a2f" fill-opacity=".5" d="M69 152h4v53h-4z"/><ellipse cx="50" cy="67" fill="#9b968a" fill-opacity=".6" rx="2" ry="46"/><path fill="#75634c" fill-opacity=".6" d="M151 153h19v20h-19z"/><path fill="#6f5f47" fill-opacity=".4" d="M12 83.3l9.2-25.4L40 64.7l-9.2 25.4z"/><path fill="#fff" fill-opacity=".5" d="M96 170h2v32h-2z"/><circle r="1" fill="#a09d9b" fill-opacity=".6" transform="matrix(13.58382 -7.68536 7.93052 14.01714 146.7 247.8)"/><path fill="#a49d91" fill-opacity=".7" d="M116.6 241.9L41.2 251l16-7.9 27.3 14.5z"/><path fill="#6d5c41" fill-opacity=".6" d="M152 48h4v87h-4z"/><path fill="#8a826a" fill-opacity=".4" d="M127 111h18v41h-18z"/><path fill="#eee6d6" fill-opacity=".5" d="M25 58h72v2H25z"/><path fill="#816a4d" fill-opacity=".5" d="M40 211l-5 6-13-4z"/><ellipse cx="19" cy="171" fill="#f5f9f7" fill-opacity=".4" rx="3" ry="69"/><ellipse cx="160" cy="108" fill="#aaa595" fill-opacity=".3" rx="22" ry="33"/><path fill="#372517" fill-opacity=".4" d="M71 62h4v71h-4z"/><ellipse cx="4" cy="86" fill="#9b988b" fill-opacity=".6" rx="7" ry="39"/><path fill="#a46c4b" fill-opacity=".7" d="M79.2 133.3l-1.9.6-4.5-13.2 1.9-.6z"/><ellipse cx="23" cy="117" fill="#8c806a" fill-opacity=".2" rx="5" ry="53"/><path fill="#82654e" fill-opacity=".6" d="M86 148h19v8H86z"/><path fill="#e4e5e0" fill-opacity=".4" d="M140 150h10v30h-10z"/><path fill="#82745f" fill-opacity=".5" d="M150 175h4v55h-4z"/><ellipse cx="110" cy="132" fill="#f9fdfc" fill-opacity=".5" rx="3" ry="65"/><ellipse cx="72" cy="134" fill="#4e3424" fill-opacity=".5" rx="2" ry="41"/><path fill="#090a03" fill-opacity=".5" d="M157 178l-3 47 14-1z"/><ellipse cx="96" cy="130" fill="#fdffff" fill-opacity=".5" rx="2" ry="14"/><path fill="#402014" fill-opacity=".5" d="M88.8 140l-4-15.2 8.3.6.3 7.9z"/><path fill="#a09a82" fill-opacity=".4" d="M127.4 72.1l7.2 77.5 8.8 12.3-14.3 47.9z"/><path fill="#fff" fill-opacity=".5" d="M107 71h9v28h-9z"/><path fill="#311911" fill-opacity=".4" d="M99 61h1v88h-1z"/></g></svg>