<svg xmlns="http://www.w3.org/2000/svg" viewBox="0 0 298 450"><defs/><path fill="#2b3c51" d="M0 0h298v450H0z"/><g transform="translate(.9 .9) scale(1.75781)"><ellipse cx="76" cy="224" fill="#ffccc1" fill-opacity=".5" rx="52" ry="120"/><circle r="1" fill="#a45f38" fill-opacity=".4" transform="rotate(-123.2 78.7 29.8) scale(169 65.10668)"/><path fill="#fbffff" fill-opacity=".5" d="M31 145h57v71H31z"/><circle r="1" fill="#451c00" fill-opacity=".5" transform="matrix(61.40102 -58.2277 77.98445 82.23448 125 23)"/><circle r="1" fill="#9b9991" fill-opacity=".7" transform="matrix(-13.68569 8.70977 -29.60122 -46.51246 15.5 56.8)"/><circle r="1" fill="#824761" fill-opacity=".7" transform="rotate(154.9 25.8 139.6) scale(95.60602 48.45185)"/><circle r="1" fill="#e5fdff" fill-opacity=".5" transform="rotate(-100.8 95.6 36.4) scale(41.31191 11.10825)"/><circle r="1" fill="#ffe0c3" fill-opacity=".4" transform="matrix(-14.41907 -12.26496 15.58113 -18.31767 24.5 230)"/><circle r="1" fill="#332c29" fill-opacity=".8" transform="matrix(14.25572 -11.05787 8.52659 10.9924 48.2 130)"/><circle r="1" fill="#453638" fill-opacity=".6" transform="matrix(22.47646 -6.99771 8.6025 27.63101 114.6 169.4)"/><path fill="#bfb8be" fill-opacity=".5" d="M156.3 141.5l-26.2 10-10.4-27 26.2-10z"/><circle r="1" fill="#b68f56" fill-opacity=".6" transform="matrix(-12.40624 39.96156 -6.798 -2.11047 62.8 61.2)"/><ellipse cx="14" cy="202" fill="#c4bebd" fill-opacity=".7" rx="3" ry="38"/><ellipse cx="156" cy="32" fill="#070200" fill-opacity=".7" rx="17" ry="53"/><ellipse cx="47" fill="#000013" fill-opacity=".6" rx="14" ry="71"/><path fill="#faf3ea" fill-opacity=".4" d="M49.4 89.9L26 92.8-6.9 82.1l43.3-4.6z"/><ellipse cx="34" cy="204" fill="#faffff" fill-opacity=".6" rx="6" ry="44"/><path fill="#2a1205" fill-opacity=".7" d="M180.4 199.8L139 188l8.5-29.8L189 170z"/><circle r="1" fill="#7f482b" fill-opacity=".5" transform="matrix(-16.33559 33.94284 -31.7075 -15.25979 108.3 59.1)"/><path fill="#392110" fill-opacity=".6" d="M106.3 126.2l-21.8-2.6 3.2-25.8 21.8 2.6z"/><path fill="#511400" fill-opacity=".5" d="M29 225l-13-27v65z"/><circle r="1" fill="#936961" fill-opacity=".8" transform="matrix(-5.285 -25.74656 18.79129 -3.8573 59.7 236.5)"/><ellipse cx="12" cy="255" fill="#572927" fill-opacity=".8" rx="92" ry="4"/><path fill="#f8d267" fill-opacity=".4" d="M151 128l-.1 20.4 8.2 5.3 8.2-9.6z"/><path fill="#a9a6a6" fill-opacity=".6" d="M71.5 82.3l18.6 63.4 32.6-14.6-65.5-9.4z"/><path fill="#d1d3d3" fill-opacity=".6" d="M87 218.8L84.7 98.2l-11.8 8.3-15.4 39.8z"/><ellipse cx="141" cy="100" fill="#756959" fill-opacity=".5" rx="9" ry="30"/><circle r="1" fill="#7e5075" fill-opacity=".6" transform="rotate(63.9 -129.8 220.8) scale(68.88129 26.28023)"/><path fill="#090e0c" fill-opacity=".6" d="M56.5 120.8l-6.7-2 9.7-33.6 6.7 2z"/><path fill="#4f413f" d="M14.1 65.9L16.7 76 1.4 84.3-16 71.6z"/><path fill="#9d9d99" fill-opacity=".5" d="M23 79l-1-67-38 18z"/><path fill="#030008" fill-opacity=".5" d="M.4 146l19.4 5-8.2 33-19.4-5z"/><path fill="#583f23" fill-opacity=".5" d="M23 21h20v52H23z"/><path fill="#f7f8f3" fill-opacity=".5" d="M26 210l7-65 20 25z"/><path fill="#1e0f07" fill-opacity=".2" d="M70.4 151.9l-55.2-41.8 37.6-22.6-26 65.9z"/><path fill="#a8603e" fill-opacity=".5" d="M-.8 210.9l9.7 26.9 25.6 14.7-50.5-3.1z"/><path fill="#271b16" fill-opacity=".7" d="M130.6 147.4l-43.5.1 32.4 7.6-4.7-.9z"/><path fill="#3b2117" fill-opacity=".5" d="M115 97.8l-72.5-1.2 7-.1 1.4 10z"/><path fill="#dcdfee" fill-opacity=".5" d="M25 246l4-24 21 27z"/><path fill="#293043" fill-opacity=".5" d="M28.4 192.6l3.6-25.8-4.9-40.3-15.9 108.6z"/><path fill-opacity=".3" d="M165 75h5v181h-5z"/><path fill="#bfb8b6" fill-opacity=".5" d="M128.4 129.6l11 .8-1.8 24-11-.8z"/><path fill="#cfc0c8" fill-opacity=".5" d="M13.3 241.4l-8.5-2.8 5.9-18 8.5 2.8z"/><circle r="1" fill="#340900" fill-opacity=".3" transform="matrix(31.09184 -22.34673 19.01141 26.45128 96.5 4.1)"/><ellipse cx="78" cy="164" fill="#dadfe3" fill-opacity=".6" rx="12" ry="33"/><path fill="#8a9090" fill-opacity=".4" d="M119 116.6l-19.7 32.9-35.2-36.4-14.3 11.3z"/><path fill="#324f74" fill-opacity=".5" d="M24.4 85L9.7 103.6l60.2 24.1-32.7-6.1z"/><path fill="#faffff" fill-opacity=".5" d="M31 77h11v12H31z"/><path fill="#8c6025" fill-opacity=".4" d="M137 15l10 86-33-76z"/><path fill="#5b352e" fill-opacity=".7" d="M166 219l19-16-73-45z"/><path fill="#3d140e" fill-opacity=".4" d="M12 214L2 247l-12-72z"/><ellipse cx="65" cy="182" fill="#2d3725" fill-opacity=".2" rx="3" ry="67"/><path fill="#ffeca9" fill-opacity=".6" d="M151 91l-2-5 6 1z"/><path fill="#f0d4c7" fill-opacity=".5" d="M68 111l-10 7-1 10z"/><path fill="#b69467" fill-opacity=".5" d="M48 101l18-28-4-47z"/><path fill="#2f2a2e" fill-opacity=".6" d="M137.5 142.6l7.1-3.7 9.9 18.5-7.1 3.7z"/><path fill="#322210" fill-opacity=".6" d="M185 91L166-5l-16 135z"/><ellipse cx="30" cy="30" fill="#8c6c47" fill-opacity=".5" rx="5" ry="44"/><path fill="#272724" fill-opacity=".3" d="M125.9 157.3l-5.5-31.1 6.5-72.7 11.7 43.3z"/><path fill="#443839" d="M15.1 14.1L68.4-.3 48.5-16-11 29.1z"/><path fill="#685c52" fill-opacity=".8" d="M151.8 107.9l-1.5 21.6-2.2.1-28.5-26.5z"/><ellipse cx="149" cy="6" fill-opacity=".6" rx="10" ry="77"/><path fill="#090914" fill-opacity=".4" d="M62.8 17.1l-10.9 64L35 65.3l.8-64.1z"/><path fill="#c6c3d1" fill-opacity=".5" d="M129 131h25v9h-25z"/><path fill="#f8e47f" fill-opacity=".4" d="M94.9 252.5l50.4 1.3 39.7 8.3-82-9z"/></g></svg>