<svg xmlns="http://www.w3.org/2000/svg" viewBox="0 0 298 450"><defs/><path fill="#53322a" d="M0 0h298v450H0z"/><g transform="translate(.9 .9) scale(1.75781)"><circle r="1" fill="#ebe0d8" fill-opacity=".5" transform="matrix(168.30446 -15.3169 7.33229 80.5683 125.3 178.7)"/><circle r="1" fill="#b68d7e" fill-opacity=".7" transform="matrix(-4.1654 -37.31957 26.22343 -2.9269 71.5 61.6)"/><circle r="1" fill="#aea99a" fill-opacity=".9" transform="matrix(-34.11888 -26.53652 12.08996 -15.54446 169 99.4)"/><circle r="1" fill="#110700" fill-opacity=".7" transform="rotate(-40.4 190.3 -87.6) scale(26.55766 8.79864)"/><circle r="1" fill="#f5eaf7" fill-opacity=".4" transform="rotate(-162.9 30.4 67.7) scale(36.57201 27.90002)"/><ellipse cx="21" cy="219" fill="#806b63" fill-opacity=".8" rx="64" ry="38"/><path fill="#38a76f" fill-opacity=".4" d="M125.2 83.9L106.3 2l60.5-13.9L185.7 70z"/><circle cx="120" cy="129" r="26" fill="#ffeed9" fill-opacity=".5"/><ellipse cx="22" cy="32" fill="#013710" fill-opacity=".5" rx="31" ry="52"/><path fill="#30251c" fill-opacity=".9" d="M152.6 118.3l-38-64.8-19.9 23.7 59.7 42.2z"/><path fill="#2a230c" fill-opacity=".5" d="M113 81l-55 54-1-26z"/><path fill-opacity=".6" d="M43.1 73.5l16.6 23.8L41 110.5 24.3 86.7z"/><path fill="#c5f8ff" fill-opacity=".5" d="M149 214l19 47-29 10z"/><path fill="#281a12" fill-opacity=".8" d="M118.9 34.7l-35.2 69.1 1.7 30.1 32.1-46.3z"/><circle r="1" fill="#597a5f" fill-opacity=".5" transform="matrix(-14.2251 26.92328 -17.38379 -9.18485 8.5 103.3)"/><circle r="1" fill="#d0ac99" fill-opacity=".6" transform="matrix(-4.01104 7.30324 -36.39718 -19.98983 86.3 229.2)"/><path fill="#0c1203" fill-opacity=".5" d="M45.9 169.3l-21.3 18.2L97.2 214l-52.9-14.3z"/><circle r="1" fill="#6a8668" fill-opacity=".6" transform="matrix(-7.6338 6.56813 -29.64548 -34.4554 107.6 10)"/><path fill="#c8ae9f" fill-opacity=".5" d="M60 17h16v24H60z"/><path fill="#000100" fill-opacity=".5" d="M105.7 48.4L77.4 26.2 90.3 9.6l28.3 22.2z"/><circle r="1" fill="#c2a798" fill-opacity=".7" transform="matrix(56.6528 -26.41764 8.56405 18.36566 151.9 133.8)"/><circle r="1" fill="#251600" fill-opacity=".5" transform="matrix(5.28778 .18417 -.30648 8.79948 84.3 149)"/><path fill="#f1c8b6" fill-opacity=".4" d="M98 44l7.7 12.9-31.7 19-7.7-12.8z"/><path fill="#466641" fill-opacity=".6" d="M26 44.8l-25.8-8L16-14.7l25.8 8z"/><path fill="#0c0000" fill-opacity=".6" d="M29 97l3-81 24-5z"/><path fill="#261309" fill-opacity=".6" d="M66 51.1l4.2-10 13.9 5.8-4.3 10z"/><path fill="#ebfef5" fill-opacity=".4" d="M-16 151.9l26.3-22.6 41-5.5 4.7 13.9z"/><path fill="#dffdff" fill-opacity=".5" d="M8.3 169l7-4 10.4 18-7 4z"/><circle r="1" fill="#fdfdfb" fill-opacity=".4" transform="matrix(11.60654 -10.11629 6.53722 7.50023 121.6 112.9)"/><path fill="#16170a" fill-opacity=".5" d="M44 142l7 15 2-8z"/><path fill="#9d664b" fill-opacity=".4" d="M107 214h36v42h-36z"/><circle r="1" fill="#b59c9e" fill-opacity=".5" transform="matrix(-2.83115 7.18963 -21.9649 -8.64938 55.7 120.7)"/><ellipse cx="60" cy="117" fill="#6a6853" fill-opacity=".7" rx="7" ry="21"/><path fill="#c1c0b2" fill-opacity=".5" d="M66.3 162.7L77 174.6l-25.3 22.7L41 185.4z"/><path fill="#deaca0" fill-opacity=".5" d="M42 59h26v12H42z"/><path fill="#614f3f" fill-opacity=".5" d="M77 172l9 45-32-13z"/><circle r="1" fill="#1d3020" fill-opacity=".5" transform="rotate(100.3 54 91.7) scale(19.80949 9.6995)"/><path fill="#9ea3a5" fill-opacity=".8" d="M63 230l53 41H57z"/><path fill="#b6a8a4" fill-opacity=".5" d="M163.9 177.3L185 64.1l-31.1 12.4-17.7-15.9z"/><ellipse cx="9" cy="156" fill="#bf839d" fill-opacity=".7" rx="24" ry="10"/><path fill="#1d1109" fill-opacity=".5" d="M109.3 76.3L92.8 89.6l53.4 8.3-.6 22z"/><path fill="#1f0000" fill-opacity=".4" d="M56.7 61.3l-12-.6.6-12 12 .6z"/><path fill="#7a9398" fill-opacity=".3" d="M145-16H92L49 31z"/><path fill="#c7fbf8" fill-opacity=".3" d="M55 147.5l41.7 27.8-4.5 25.8-21.1-74.3z"/><path fill="#be9274" fill-opacity=".4" d="M121 248L85 132l74 22z"/><path fill="#8b5d4c" fill-opacity=".6" d="M50 74l52-13-5 22z"/><path fill="#bd9987" fill-opacity=".5" d="M55.5 101.7l29.1-24.8-5.8 23-4.5 1.1z"/><circle r="1" fill="#402119" fill-opacity=".8" transform="matrix(-4.98497 .4816 -.44431 -4.59902 0 173)"/><path fill="#360b00" fill-opacity=".5" d="M54 162h4v9h-4z"/><path fill="#60270c" fill-opacity=".2" d="M109.9 175.8l-34.2-43.4 15.6 37.9 17.7 65.3z"/><path fill="#ebe3d2" fill-opacity=".4" d="M53.3 136.3l32.2-2.6-14.1-19.5-.3 43.3z"/><circle r="1" fill="#825c4c" fill-opacity=".6" transform="matrix(-24.58387 -15.99621 1.6664 -2.56102 94.2 249.9)"/><path fill="#2f3729" fill-opacity=".7" d="M160 50l-51.5 34.7-4.4-6.7 51.4-34.7z"/><path fill="#6b6c4e" fill-opacity=".9" d="M33.9 112.3l-49.9 7.1V146l48-31.6z"/><path fill="#7b5b39" fill-opacity=".5" d="M8 158l2-15 8 23z"/><circle r="1" fill="#7f9b83" fill-opacity=".5" transform="matrix(-5.53048 .37703 -1.97932 -29.03368 169 5.6)"/><path fill="#7e6e70" fill-opacity=".7" d="M185 208.3l-23.6 14.4 3.8 48.3 16.8-54.1z"/><path fill="#f4bff2" fill-opacity=".5" d="M31 145h15v17H31z"/><path fill="#68564b" fill-opacity=".5" d="M137 72l10 30-38-32z"/><circle cx="44" cy="95" r="14" fill="#0c0300" fill-opacity=".5"/><path fill="#ded1d8" fill-opacity=".3" d="M-16 177.2l79.4-59.1-28.3-9.5.9 21.1z"/><path fill="#9ca0a3" fill-opacity=".9" d="M161.7 188.2l-18.6 7.8 4.8 34.2 23.5-68.7z"/><path fill-opacity=".5" d="M57 144l-3-2 2-3z"/><path fill="#203624" fill-opacity=".5" d="M142 33l-18-3 18-30z"/><path fill="#ded8cb" fill-opacity=".4" d="M140 113.8l19.6 42.5-47.2-45.7 6.2-18.5z"/></g></svg>