<svg xmlns="http://www.w3.org/2000/svg" viewBox="0 0 300 199"><defs/><path fill="#4f4733" d="M0 0h300v199H0z"/><g transform="translate(.6 .6) scale(1.17188)"><circle r="1" fill="#bbafab" fill-opacity=".6" transform="rotate(95.3 6.4 132.2) scale(60.99281 233.24594)"/><circle r="1" fill="#bee3ff" fill-opacity=".7" transform="matrix(-65.14109 6.57456 -2.25285 -22.3213 227.4 .7)"/><circle r="1" fill="#d7eaf7" fill-opacity=".7" transform="matrix(-14.92958 -20.11882 23.94927 -17.77205 6.2 23.7)"/><circle r="1" fill="#e0e5f1" fill-opacity=".5" transform="matrix(21.80128 -67.93902 17.81034 5.71525 192.1 138)"/><path fill="#4b3e3b" fill-opacity=".7" d="M175 125L78 78l142-68z"/><circle r="1" fill="#71544c" transform="matrix(22.56063 -6.00292 9.21782 34.6431 255.5 114.6)"/><circle r="1" fill="#000c0a" fill-opacity=".5" transform="rotate(69.7 -23 42) scale(23.71826 7.76826)"/><circle r="1" fill="#947e79" fill-opacity=".7" transform="matrix(24.29477 30.3027 -10.29265 8.252 206 81.5)"/><path fill="#c1cbd1" d="M28.3-1l-39.7-14.3 43.3 58.5 6.4-3.3z"/><path fill="#c2def6" fill-opacity=".6" d="M192-16l-31 29 19 18z"/><circle r="1" fill="#e3d8ba" fill-opacity=".4" transform="matrix(-.00199 17.01116 -86.3912 -.01008 0 93.8)"/><circle cx="206" cy="38" r="17" fill="#000401" fill-opacity=".6"/><path fill="#a7c0cd" fill-opacity=".7" d="M220.5 36.8l8.5 6.8 3.2-15.9 7.3-43.7z"/><circle r="1" fill="#999aa6" fill-opacity=".9" transform="rotate(-101.2 165 -21) scale(42.14399 20.21127)"/><path fill="#000005" fill-opacity=".6" d="M187 69.2L184 97l-21-2.2 3-27.8z"/><path fill="#fffdf7" fill-opacity=".5" d="M195 78l-33 88 30 9z"/><circle cx="90" cy="18" r="50" fill="#525650" fill-opacity=".7"/><circle r="1" fill="#000e05" fill-opacity=".6" transform="matrix(34.65388 -18.24931 3.40868 6.4728 255 64.1)"/><path fill="#b07b70" fill-opacity=".5" d="M141 88l23-3-11-44z"/><path fill="#faf0de" fill-opacity=".4" d="M231 43l16-2-23 19z"/><circle r="1" fill="#796b56" fill-opacity=".5" transform="matrix(35.624 28.0559 -17.35687 22.0389 26 169)"/><path fill="#a7c4dd" fill-opacity=".5" d="M182.9-16l14.9 39.3 65.5-31.6-9 37.4z"/><path fill="#b88f82" fill-opacity=".7" d="M171.4 59.3l20.2-6.9-16 11.3-55.1-6.9z"/><path fill="#0d0e0c" fill-opacity=".5" d="M108 72V44l43 29z"/><path fill="#dcbca9" fill-opacity=".5" d="M186 68h8v26h-8z"/><path fill="#212719" fill-opacity=".4" d="M18 34l-2 41 60 4z"/><path fill="#121c16" fill-opacity=".6" d="M157.1 58.5l63.6-43.3 2.3 32.9-4.7.4z"/><path fill="#0e171a" fill-opacity=".6" d="M137 21h5v80h-5z"/><path fill="#826b60" fill-opacity=".7" d="M100.9 96.8l4.7-24.6 25.5 5-4.7 24.6z"/><path fill="#7e5c51" d="M150.2 65.1l-21.4-18.7-5.5 14.2 27.3 2.7z"/><path fill="#27251e" fill-opacity=".3" d="M271 112l-39-7 25 80z"/><path fill="#a56b62" fill-opacity=".6" d="M256.2 108l-32-2.1 1.6-22 32 2.2z"/><path fill="#806453" fill-opacity=".8" d="M228.5 57.7l-16 25.5-11-7 16-25.4z"/><path fill="#5a5749" d="M146.6 9.6l18.1 45.7-.4-44.7-.6-21.6z"/><path fill="#000001" fill-opacity=".6" d="M162 92h5v27h-5z"/><path fill="#b48581" fill-opacity=".5" d="M91 48l15 13-19 7z"/><circle r="1" fill="#f9fdff" fill-opacity=".4" transform="matrix(-9.80586 -.86867 3.14468 -35.4982 0 13.9)"/><path fill="#ac9b76" fill-opacity=".5" d="M5 72h81v4H5z"/><ellipse cx="76" cy="112" fill="#a59b87" fill-opacity=".7" rx="54" ry="17"/><path fill="#283324" d="M248.4 63.6l.9-16.9-13-21.5L271 40.7z"/><path fill="#10140b" fill-opacity=".5" d="M88 57L78 70l-8-25z"/><path fill="#96a29f" fill-opacity=".9" d="M20.9 26.2L10.8 49.4l-6.7 4.8 4.5-33.6z"/><path fill="#66675b" fill-opacity=".4" d="M36.6 38.7L3.7 42.9l80.9 6.9L28.3-2.9z"/><path fill="#9d9281" fill-opacity=".4" d="M173.9 86.9l9.5 30.6-16.3 14.4 2.2-36.8z"/><path fill="#4e4a38" fill-opacity=".5" d="M183 20h11v21h-11z"/><path fill="#0a1c15" fill-opacity=".4" d="M45 52l-61 12 68 9z"/><path fill="#968d78" fill-opacity=".6" d="M158.3 185L19.7 152.7l124.2-43.3 28 12.2z"/><circle r="1" fill="#d9dcd4" fill-opacity=".5" transform="matrix(-4.28074 -7.27558 2.91837 -1.71708 192.1 78.2)"/><path fill="#b7cade" fill-opacity=".3" d="M268.7 18.2l-58 10.5L271 2.8 127.4-5.8z"/><path fill="#262110" fill-opacity=".6" d="M112-11L72 4l44 1z"/><path fill="#a6c2d9" fill-opacity=".9" d="M196.2 4.4l-18.9 28.1L163 1.4l96.7 18.5z"/><path fill="#1e2f24" fill-opacity=".7" d="M226.3 56.2l-10.4-44.4-2-.3-9.8 18.6z"/><path fill="#200c05" fill-opacity=".4" d="M100 65.2l7.8 17.9-44.6-3.6 77.4-10z"/><circle r="1" fill="#77110a" fill-opacity=".5" transform="rotate(16.6 -257.4 887) scale(15.97932 4.92303)"/><path fill="#282221" fill-opacity=".6" d="M184.6 104.1l-3.5-38.5 7.5-6.4-10.1 46.4z"/><path fill="#0e1717" fill-opacity=".5" d="M136.3 86.3L150 69.4l1.9-7.1-19.4 8.6z"/><path fill="#b0a7a0" d="M179.8 111.6l19.8-30.8-4.4-4.6L158 178.1z"/><path fill="#0f0000" fill-opacity=".4" d="M209.3 36.7l8.2 31.1-30.3-29.7 19.7-8.9z"/><path fill="#e2ebe3" fill-opacity=".3" d="M37.6 42.9L26.8 16.2l-1.9 20.9 8 11.2z"/><path fill="#975f55" fill-opacity=".5" d="M183 78h8v19h-8z"/><path fill="#2b0000" fill-opacity=".5" d="M103 80h13v3h-13z"/><ellipse cx="193" cy="63" fill="#895d47" fill-opacity=".5" rx="43" ry="4"/><path fill="#55645c" fill-opacity=".6" d="M170.4 20.5l6.9 11.9 5.1 8-60.5-25.8z"/><path fill="#989aa4" fill-opacity=".7" d="M258.1 185l-37.5-95.3-17.7 4.3-7.6 91z"/><path fill="#16251d" fill-opacity=".3" d="M7.1 12.7l30.5 60.8-14.9-47.4-6.2 11z"/></g></svg>