<svg xmlns="http://www.w3.org/2000/svg" viewBox="0 0 300 199"><defs/><path fill="#33496a" d="M0 0h300v199H0z"/><g transform="translate(.6 .6) scale(1.17188)"><circle r="1" fill="#f4d7a6" fill-opacity=".5" transform="rotate(143.8 94.6 55.5) scale(89.122 87.42806)"/><circle r="1" fill="#1e140a" fill-opacity=".9" transform="matrix(-68.67914 23.88911 -83.20781 -239.21533 44.7 91.7)"/><circle r="1" fill="#100c08" fill-opacity=".6" transform="matrix(-2.0404 32.43115 -128.98312 -8.11493 216.7 161.5)"/><path fill="#4c4c4b" fill-opacity=".9" d="M134.6 119.7L115 123 97.4 12.3 117 9z"/><circle r="1" fill="#dbd0c9" fill-opacity=".3" transform="matrix(-.59998 -21.575 74.69891 -2.0773 196.6 49.5)"/><circle r="1" fill="#4b4b25" fill-opacity=".6" transform="matrix(87.54623 -8.00858 .64326 7.03182 221 19.1)"/><path fill="#9ab6d2" fill-opacity=".5" d="M258 3L117 23l3-39z"/><ellipse cx="205" cy="115" fill="#7b7873" fill-opacity=".7" rx="74" ry="16"/><circle r="1" fill-opacity=".6" transform="matrix(-1.29827 5.44955 -75.58563 -18.00704 197.4 153.7)"/><circle r="1" fill-opacity=".7" transform="matrix(-8.4358 1.92215 -26.2508 -115.20777 82.6 70)"/><ellipse cx="147" cy="167" fill="#484a4e" fill-opacity=".5" rx="26" ry="21"/><ellipse cx="217" cy="129" fill="#002965" fill-opacity=".6" rx="17" ry="6"/><path fill="#8c8277" fill-opacity=".6" d="M252 76l-125-5 7 46z"/><circle r="1" fill="#302822" fill-opacity=".6" transform="matrix(17.37565 78.3765 -22.42567 4.97165 53 101.9)"/><ellipse cx="235" cy="49" fill="#ffe7b3" fill-opacity=".3" rx="107" ry="5"/><path fill="#889298" fill-opacity=".2" d="M211.9 146.4l-29-70.6 88.1 53-136.8.8z"/><circle r="1" fill-opacity=".8" transform="matrix(-15.45297 -40.98316 12.71375 -4.7938 0 152.5)"/><path fill="#9e9da2" d="M206.8 24.9l-35.2 3.9L124.2 46 271 29.8z"/><path fill="#474234" fill-opacity=".5" d="M263.3 39L106.7 50v-1l156.6-11z"/><path fill="#34380d" fill-opacity=".6" d="M235 14l36 15-18-23z"/><ellipse cx="249" cy="56" fill="#343946" fill-opacity=".5" rx="29" ry="2"/><circle r="1" fill="#9e9588" fill-opacity=".3" transform="matrix(-26.96237 -15.79693 7.69594 -13.13552 255 126.3)"/><path fill="#2a2727" fill-opacity=".8" d="M85 0h12v38H85z"/><circle r="1" fill="#9c9587" fill-opacity=".6" transform="matrix(-11.3647 -74.17836 .98847 -.15144 103.7 38.3)"/><path fill="#424447" fill-opacity=".5" d="M255.5 179.5l-3.8 12.5-129.2-39.5 3.8-12.5z"/><path fill="#050000" fill-opacity=".3" d="M131.5 127.4l40.1 2.5-93.9-28.2L98.9 185z"/><circle r="1" fill="#010000" fill-opacity=".4" transform="rotate(16 -474.1 981.8) scale(168.73144 8.89015)"/><path fill="#444648" fill-opacity=".7" d="M223 110l-18 4-4-8z"/><path fill="#d0c7c4" fill-opacity=".4" d="M200.5 116.1l-.8 6.2 11-18.4-18.8 13.4z"/><path fill="#37383c" fill-opacity=".5" d="M98-16l30.3 51.9V25.2l-20.7 33.6z"/><path fill="#99a5b0" d="M143.3 21.7l-25.4-35.8-1.1 11.6 3.3 15z"/><path fill="#a5a3ab" fill-opacity=".6" d="M253 53l17 19h-54z"/><ellipse cx="225" cy="115" fill="#bac4ca" fill-opacity=".6" rx="11" ry="3"/><path fill="#575750" fill-opacity=".4" d="M155 55h57v3h-57z"/><path fill="#ffd583" fill-opacity=".1" d="M90.1 57.3l17.8-7.4 1.6 22-14.9-3.1z"/><path fill="#cdc2ac" fill-opacity=".6" d="M124 47h50v9h-50z"/><circle r="1" fill="#4e4e3f" fill-opacity=".5" transform="rotate(5 -1086.2 2991) scale(50.16643 1)"/><path fill="#3d4b2b" fill-opacity=".3" d="M173 29.8l6.4-8.5-14.7-7.3-33.4 21.3z"/><path fill="#002959" fill-opacity=".5" d="M214.1 153.9l2.2-14.7 39.1-3.6-38.5-12.7z"/><path fill="#7e7970" fill-opacity=".6" d="M199.7 81.2L271 70.6l-16.5 67.6L233 87.8z"/><path fill="#e5e2d7" fill-opacity=".5" d="M225 101.7l-21-6.5 1-2.9 21 6.5z"/><path fill="#3d4a5b" fill-opacity=".9" d="M123.1 120.7l27.7-8.5-18.7 16.2 100.8 21.8z"/><path fill="#8497b0" fill-opacity=".4" d="M195.5-16H271L259.3 1.4l-52.5 20z"/><circle r="1" fill-opacity=".7" transform="rotate(167.3 35.7 14.1) scale(8.16756 74.53019)"/><path fill="#9b9588" fill-opacity=".6" d="M131 106l-1-18 31 34z"/><path fill="#0c1623" fill-opacity=".4" d="M206.4 127.9l56.7 27-83.6-19.5 58.3-3.6z"/><path fill="#3c3705" fill-opacity=".4" d="M193 14h12v11h-12z"/><path fill="#b5c4cf" fill-opacity=".4" d="M93.2-11l1-.2 8.6 40.1-1 .3z"/><path fill="#331e24" fill-opacity=".6" d="M195 105h11v3h-11z"/><path fill="#486592" fill-opacity=".4" d="M135.2 128.4l.4-2 143.2 33.2-.4 2z"/><path fill="#001524" fill-opacity=".2" d="M227.7 122.1l.7-13.7-21.4 2.1 41.5 8.3z"/><path fill="#655b35" fill-opacity=".7" d="M243.1 24.4l27.9-2.2V10.9l-58.2 16.5z"/><path fill="#bbb9ae" fill-opacity=".6" d="M127.7 47.6l9 19.7 4.9-4.2-16.4 5.9z"/><path fill="#a1a0a7" d="M191.5 31.6l63.1-7.6 16.4-7.4v22.7z"/><path fill="#3a3b3c" fill-opacity=".9" d="M211.6 108.2l-6.4 10.2-.8-.6 6.4-10.2z"/><circle r="1" fill="#2a2821" fill-opacity=".5" transform="matrix(35.53511 221.85311 -1.2627 .20225 111.1 68.7)"/><path fill="#434a55" fill-opacity=".6" d="M123.7 45.4l-7.9 1.4-9.5-54.2 7.9-1.4z"/><path fill="#c2b9a8" d="M168.8 66.4l-3.8-2.3-1.3-18.5 5.2 4z"/><path fill="#d0c4b1" fill-opacity=".5" d="M191 50l5 18 5-23z"/><path fill="#887e70" fill-opacity=".5" d="M144 119l50-31 4 46z"/><path fill="#b9d5f5" fill-opacity=".2" d="M128.9 116.8l10.4-8.9-1.3 10.7-10-3.4z"/><path fill="#ba8c81" fill-opacity=".5" d="M224 18h12v5h-12z"/><path fill="#252324" d="M90.2-16l6.7 48.1-83.3-1.9 87.5 2z"/><path fill="#fef6ff" fill-opacity=".2" d="M203.5 127.3l-4.4-16.5 20.6-7.9-15.5 9.7z"/><path fill="#cbd1d3" fill-opacity=".6" d="M231.2 118.1l-4.7-1.6 2.3-6.6 4.7 1.6z"/></g></svg>