<svg xmlns="http://www.w3.org/2000/svg" viewBox="0 0 300 199"><defs/><path fill="#292758" d="M0 0h300v199H0z"/><g transform="translate(.6 .6) scale(1.17188)"><circle r="1" fill="#26110b" transform="matrix(-76.75425 -81.6898 185.83883 -174.6108 101.8 58)"/><circle r="1" fill="#f77193" fill-opacity=".3" transform="matrix(.7893 -22.2991 55.44242 1.96242 169.4 114.7)"/><path fill="#ac4d1c" fill-opacity=".5" d="M0 86h77v34H0z"/><circle r="1" fill="#1a0b05" fill-opacity=".9" transform="matrix(-232.24553 -26.85294 2.6749 -23.13468 124.7 161)"/><circle r="1" fill="#85b4fd" fill-opacity=".6" transform="matrix(2.7244 15.55573 -11.5292 2.0192 209.1 119.6)"/><ellipse cx="255" cy="92" fill="#150906" rx="14" ry="169"/><ellipse cx="58" cy="27" fill="#080704" fill-opacity=".8" rx="151" ry="54"/><path fill="#00ff96" fill-opacity=".5" d="M221 139h17v18h-17z"/><circle cx="163" cy="118" r="13" fill="#ff0618" fill-opacity=".6"/><path fill="#59747a" fill-opacity=".7" d="M179.3 87.2l11.4-4.9 12.2 3.5-24.2 25.1z"/><path fill="#200902" fill-opacity=".7" d="M210 167l-29 18-4-89z"/><path fill="#ab7b2f" fill-opacity=".6" d="M101 41v15l-27-6z"/><path fill="#faad1f" fill-opacity=".5" d="M208 28.9l20.8-7.2L232 31l-20.8 7.2z"/><path fill="#f32d28" fill-opacity=".5" d="M137.8 148l-15.2-49.7 7.6-2.3 15.2 49.7z"/><path fill="#000300" fill-opacity=".5" d="M133 73h39v32h-39z"/><path fill="#0073ca" fill-opacity=".5" d="M243 99l1 22-27-11z"/><path fill="#ff9b22" fill-opacity=".4" d="M76.5 98.7L49 104.3l3.5-15.2 28.1.1z"/><path fill="#053950" fill-opacity=".7" d="M140.8 145.9l-.9-45.3 12.2 4.1-7.2 55.6z"/><path fill="#ef284a" fill-opacity=".5" d="M96.2 111h8l-.4 22h-8z"/><path fill="#271916" fill-opacity=".7" d="M229 46l-45 62 70-13z"/><path fill="#002016" fill-opacity=".8" d="M219 119.4l40.4 4.7-2.2 3.8-35.7 16.1z"/><path fill="#1e0902" fill-opacity=".6" d="M21 122.2l-1-64 19-.4 1 64z"/><path fill="#825419" fill-opacity=".6" d="M138.6 22.7l-8.8-2.5.9-17.7 12.2 9.5z"/><circle cx="171" cy="63" r="5" fill="#e8aa1b" fill-opacity=".5"/><path fill="#01000e" fill-opacity=".8" d="M281.8 22.4l-131 2.2-.6-35 131-2.2z"/><circle r="1" fill="#62569d" fill-opacity=".7" transform="matrix(6.31643 -6.42765 7.97889 7.84083 208.3 135)"/><path fill="#07baff" fill-opacity=".4" d="M153 102l-10 19-1-17z"/><path fill="#420b09" d="M71.4 99.6l-3.5 9.2-4.5 43.4 21-50.7z"/><circle r="1" fill="#6d0009" fill-opacity=".5" transform="rotate(122.9 45.5 110.5) scale(9.94423 22.89238)"/><circle r="1" fill="#966731" fill-opacity=".6" transform="matrix(.76311 -3.15077 10.10004 2.44621 229.2 55)"/><path fill="#bbcdff" fill-opacity=".5" d="M197 108h21v12h-21z"/><ellipse cx="32" cy="102" fill="#ff842c" fill-opacity=".4" rx="2" ry="21"/><circle r="1" fill="#2f1f0f" fill-opacity=".5" transform="matrix(-6.3195 7.62338 -31.12677 -25.80297 84.2 55.1)"/><path fill="#a54c22" fill-opacity=".4" d="M-4 82.3l19.8 1.2 7.9 8.4-16.1 44.4z"/><circle r="1" fill="#0a060e" fill-opacity=".8" transform="matrix(-13.91384 -31.8884 11.96433 -5.22039 200.2 47.4)"/><path fill="#d21e15" fill-opacity=".5" d="M126 87h5v44h-5z"/><ellipse cx="146" cy="139" fill="#171219" fill-opacity=".8" rx="6" ry="22"/><path fill="#943376" fill-opacity=".3" d="M219 157l-23-56-3 40z"/><path fill-opacity=".4" d="M126 125L-16 23 88 60z"/><ellipse cx="238" cy="89" fill="#6c6d72" fill-opacity=".7" rx="3" ry="10"/><path fill="#98741e" fill-opacity=".5" d="M185 63h12v7h-12z"/><path fill="#290e06" fill-opacity=".7" d="M155.1 95l20.6 16.6 7.6 16.4 11.8-16.4z"/><path fill="#e13528" fill-opacity=".4" d="M136.6 105.1l7.1 26.5-30.2-28.5 8.6-2.2z"/><path fill="#005b4f" fill-opacity=".5" d="M213 102l20 15 8 35z"/><circle cx="96" cy="46" r="5" fill="#eac16a" fill-opacity=".4"/><path fill="#e6b125" fill-opacity=".5" d="M132 61l3 2v5z"/><path fill="#664c57" fill-opacity=".4" d="M140 141l-7 9 31 3z"/><circle r="1" fill="#d2e297" fill-opacity=".5" transform="rotate(-48.6 193.4 -143.5) scale(2.05647 4.64709)"/><path fill="#110903" fill-opacity=".7" d="M239 122h17v48h-17z"/><circle r="1" fill-opacity=".5" transform="rotate(-98.2 25.4 -22) scale(28.73749 98.39486)"/><circle r="1" fill="#1c0b00" fill-opacity=".5" transform="matrix(16.54641 -2.28424 7.05346 51.09323 255 79.6)"/><ellipse cx="154" cy="70" fill="#d09f27" fill-opacity=".6" rx="4" ry="3"/><path fill="#080507" fill-opacity=".8" d="M180.7 89.4l-5.8-35.3L212.7 25l-23.2 33.2z"/><path fill="#473b4c" fill-opacity=".6" d="M194.9 82.7h6.2l18.3 31.3 9.1-12.1z"/><circle cx="85" cy="135" r="15" fill="#000101" fill-opacity=".5"/><path fill="#00d58d" fill-opacity=".5" d="M235 135l5 16-17 4z"/><path fill="#ff1829" fill-opacity=".3" d="M164 101.8l15 22.4-15 10-15-22.4z"/><path fill="#6b2913" fill-opacity=".4" d="M130.8 134.1l-17.4-3.7-3.5-29.2 26.7 16.5z"/><circle r="1" fill="#943e22" fill-opacity=".6" transform="matrix(10.73644 10.80537 -6.45115 6.41 52.8 104.7)"/><circle cx="201" cy="99" r="8" fill="#00001c" fill-opacity=".5"/><path fill="#24130d" fill-opacity=".9" d="M131 104.5l3.2-21.3 4.7 29.6 23.6-45.2z"/><path fill="#6d591d" fill-opacity=".5" d="M94 48h4v31h-4z"/><path fill="#d0c2ee" fill-opacity=".4" d="M194 106h22v7h-22z"/><path fill="#074c5a" fill-opacity=".4" d="M227.3 157.7l-4.6-15.2-3.9-1.9-19.6 16.2z"/><path fill="#6c8390" fill-opacity=".5" d="M180 90h8v19h-8z"/></g></svg>