<svg xmlns="http://www.w3.org/2000/svg" viewBox="0 0 300 199"><defs/><path fill="#38241b" d="M0 0h300v199H0z"/><g transform="translate(.6 .6) scale(1.17188)"><circle r="1" fill="#cdcdca" fill-opacity=".9" transform="matrix(-95.37663 -149.71133 137.57932 -87.6477 141.4 104.6)"/><circle r="1" fill="#5b6669" fill-opacity=".5" transform="matrix(32.85602 19.23199 -62.29127 106.41871 0 56.7)"/><circle cx="183" cy="8" r="36" fill="#eef6fe" fill-opacity=".5"/><circle r="1" fill="#f4f7fb" fill-opacity=".6" transform="matrix(-17.2986 -25.97425 14.6817 -9.77787 235.6 79.8)"/><circle r="1" fill="#f0fafe" fill-opacity=".4" transform="rotate(122.8 26.4 51.4) scale(84.18533 25.03968)"/><ellipse cx="116" cy="78" fill="#6b2800" fill-opacity=".5" rx="12" ry="16"/><circle r="1" fill="#905b3f" fill-opacity=".5" transform="matrix(-10.53187 -6.66475 12.55415 -19.8385 187 73.9)"/><path fill="#95693d" fill-opacity=".6" d="M140-11l-4 64 17-2z"/><path fill="#edeef3" fill-opacity=".6" d="M217 144l37 41-20-75z"/><circle r="1" fill="#7f8280" fill-opacity=".5" transform="matrix(12.03767 3.84171 -15.76437 49.39629 0 157.7)"/><circle r="1" fill="#c6ccd2" fill-opacity=".7" transform="matrix(-5.00156 33.87052 -38.5244 -5.68879 231.8 38.7)"/><path fill="#8d2200" fill-opacity=".3" d="M217 78l-8 47h18z"/><circle r="1" fill="#fff" fill-opacity=".4" transform="matrix(3.78436 -61.7114 7.2879 .44692 75.7 128.1)"/><circle r="1" fill="#9da6a6" fill-opacity=".4" transform="matrix(-29.27723 59.21257 -15.03836 -7.4356 52.4 48.5)"/><circle cx="119" cy="169" r="39" fill="#a19d94" fill-opacity=".5"/><circle r="1" fill="#785036" fill-opacity=".5" transform="matrix(4.94352 1.5739 -6.41791 20.15812 185.5 64.5)"/><path fill="#dfe4e4" fill-opacity=".5" d="M90.6 3.5l38.5-11 14.3 50-38.5 11z"/><path fill="#9f3f07" fill-opacity=".4" d="M92.4 89.4l1.3 6.9-3.9 31.6-8.3-8.7z"/><circle r="1" fill="#ad8861" fill-opacity=".6" transform="rotate(-97.5 99 -41.3) scale(4.40688 43.34956)"/><circle cx="205" cy="162" r="22" fill="#929398" fill-opacity=".5"/><path fill="#fff" fill-opacity=".5" d="M209 102l-15-29 15 3z"/><path fill="#998c7f" fill-opacity=".6" d="M57.3 179.7l-37 2.6-1.6-24 37-2.6z"/><path fill="#ebedee" d="M153.4 11.6l63 8.9-15.2-30.4-44.8-6.1z"/><path fill="#fffff3" fill-opacity=".3" d="M53.9 109.8l55.3-13.4.9-14.4-21.6-5.7z"/><path fill="#4c3823" fill-opacity=".5" d="M134 86l-4.1-4.3-15.3-22.9 1.8 22.8z"/><path fill="#e6ded0" fill-opacity=".5" d="M128 61h48v17h-48z"/><circle r="1" fill="#b3bcbe" fill-opacity=".3" transform="matrix(-7.44443 -11.86743 104.01876 -65.25085 35.2 90.5)"/><path fill="#d7ae7e" fill-opacity=".5" d="M144 54h10v116h-10z"/><path fill="#885222" fill-opacity=".5" d="M145 24l-7-33-5 10z"/><path fill="#e1ded8" fill-opacity=".6" d="M44.7 149.7l-3.8-4.6 48.4-16.5L79 155.8z"/><path fill="#c1c4c7" fill-opacity=".7" d="M269.3 30.8l-16.6 17.7-89-3-18.6-29.2z"/><ellipse cx="85" fill="#fff" fill-opacity=".6" rx="3" ry="20"/><path fill="#fff" fill-opacity=".5" d="M119.6 9l7 13.2L106.5 33l-7-13.2z"/><path fill="#7f7168" fill-opacity=".5" d="M92.5 162l-6 6.7-35.2-.7 60.9 6.7z"/><circle r="1" fill="#fdfdfc" fill-opacity=".6" transform="matrix(3.74755 -8.14014 22.69983 10.45052 239.3 85.5)"/><path fill="#d5ad9e" fill-opacity=".6" d="M189 56h8v36h-8z"/><path fill="#f3f6fd" fill-opacity=".5" d="M219.9-15.9l38.4 44.4 12.7-8.9-26.1 7.3z"/><path fill="#bd9785" fill-opacity=".7" d="M118.4 76.1l-8.5-14.4v-9.5l-7.7 46z"/><path fill="#89909a" fill-opacity=".5" d="M261-16l10 62-44-62z"/><circle r="1" fill="#838685" fill-opacity=".7" transform="matrix(36.40315 4.28072 -4.8332 41.1015 23.4 3.1)"/><ellipse cx="126" cy="92" fill="#998774" fill-opacity=".4" rx="12" ry="11"/><path fill="#aa8c6e" fill-opacity=".7" d="M104.9 60.5l21.6-5.7 18.3-18.3 40 14z"/><circle cx="55" cy="157" r="7" fill="#8f6d51" fill-opacity=".4"/><path fill="#b1785a" fill-opacity=".3" d="M90.6 89.3l4.6-8.8-1.8 42.5-14.4 7.8z"/><path fill="#311600" fill-opacity=".5" d="M179 64h4v15h-4z"/><path fill="#1a0c00" fill-opacity=".7" d="M201 68.6l-1.3 3.8-2.8-1 1.4-3.8z"/><path fill="#bbbcbd" fill-opacity=".6" d="M153 91h61v45h-61z"/><path fill="#aaa49e" fill-opacity=".5" d="M48 117.7l9.2 7.5-25.1 31.1-9.3-7.5z"/><path fill="#ab4604" fill-opacity=".2" d="M218.5 125.9l-8.6-48.6 2.9-4.3 7.9 38.6z"/><path fill="#fcfdfd" fill-opacity=".4" d="M17.7 151l-3.3 4.5.5 8.7 17.6-18z"/><path fill="#ecebe3" fill-opacity=".5" d="M36.1 161.2l23.6-24.5 2.2 2.1-23.6 24.5z"/><path fill="#ffe9d7" fill-opacity=".3" d="M211.4 53.4l28.9 60.2-41.2-38.7-18.4 27.1z"/><path fill="#feffff" fill-opacity=".4" d="M175 59l-5 19-5-19z"/><path fill="#fbf8f3" fill-opacity=".5" d="M47 101l-24 35 16-12z"/><path fill="#f0f2f3" fill-opacity=".4" d="M243 185l-29-61 20 5z"/><circle r="1" fill="#c9c8ca" fill-opacity=".5" transform="matrix(-19.6874 -52.37382 6.84594 -2.5734 248.4 150)"/><ellipse cx="94" cy="17" fill="#bcbebd" fill-opacity=".5" rx="7" ry="15"/><path fill="#9c7a58" fill-opacity=".5" d="M155.5 56.4L139.3-16l6.6 69.5 19.3-5.9z"/><path fill="#c2c9c9" fill-opacity=".3" d="M143.6 146.9l-62.7-8.8 33.9-5.6 17.1-34.7z"/><circle r="1" fill="#fdfbfb" fill-opacity=".4" transform="matrix(-17.73122 16.55206 -3.7489 -4.01596 74.2 99)"/><path fill="#a5a7a5" fill-opacity=".6" d="M9 85h17v64H9z"/><path fill="#ada59b" fill-opacity=".4" d="M61 133l10-23 6 31z"/><path fill="#a2a5a8" fill-opacity=".3" d="M212 114l25 69-92-19z"/><path fill="#edeae7" fill-opacity=".6" d="M85.7 128.5l-23 36.7 15.3-2.6-2.2-35.5z"/><path fill="#b0aca8" fill-opacity=".7" d="M196 106.1l-38.7-11.3 15-13.3 22.9 24.9z"/></g></svg>