<svg xmlns="http://www.w3.org/2000/svg" viewBox="0 0 298 450"><defs/><path fill="#3f3f3f" d="M0 0h298v450H0z"/><g transform="translate(.9 .9) scale(1.75781)"><circle r="1" fill="#cdcdcd" fill-opacity=".6" transform="rotate(76.5 -42.6 125.2) scale(153.06237 169)"/><ellipse cx="68" cy="185" fill="#070707" fill-opacity=".5" rx="23" ry="136"/><circle r="1" fill="#fff" fill-opacity=".8" transform="matrix(-27.45328 -145.29236 34.60846 -6.53934 168.9 69)"/><circle r="1" fill="#fff" fill-opacity=".6" transform="matrix(-21.17605 6.08063 -17.90888 -62.36846 34.3 230.6)"/><circle r="1" fill="#fff" fill-opacity=".7" transform="matrix(-1.74162 16.64266 -68.82464 -7.20237 30.8 35.3)"/><circle r="1" fill="#050505" fill-opacity=".6" transform="rotate(-157 13.2 37.4) scale(16.07971 33.07743)"/><circle r="1" fill="#fff" fill-opacity=".6" transform="matrix(8.67882 5.0715 -11.63078 19.9037 84.1 83.3)"/><path fill="#474747" fill-opacity=".9" d="M35 157l56 114L53 36z"/><circle r="1" fill="#e4e4e4" fill-opacity=".6" transform="matrix(-19.9347 -5.29911 3.01194 -11.33061 65.9 147)"/><circle r="1" fill="#121212" fill-opacity=".6" transform="rotate(-82.5 83.7 -41) scale(15.4381 17.84708)"/><circle r="1" fill-opacity=".5" transform="matrix(5.49267 -1.1929 7.3866 34.0114 138.8 137)"/><path fill="#fff" fill-opacity=".7" d="M87 14h83v18H87z"/><circle r="1" fill-opacity=".6" transform="matrix(-7.86367 56.68247 -11.06478 -1.53504 79 213.1)"/><path fill="#1d1d1d" fill-opacity=".6" d="M74.1 23.2L57.6-4.2l28.3-17 16.5 27.4z"/><path fill="#141414" fill-opacity=".6" d="M116 138l-68-8L8 82z"/><path fill="#363636" fill-opacity=".8" d="M-16 172.5L3 77.6l8.3 91.6 15.2-12.3z"/><path fill="#fff" fill-opacity=".5" d="M12 111h24v45H12z"/><ellipse cx="39" cy="50" fill="#fff" fill-opacity=".7" rx="6" ry="48"/><path fill="#060606" fill-opacity=".5" d="M30 18l49-31-91-2z"/><circle r="1" fill="#cecece" fill-opacity=".7" transform="matrix(-4.01674 71.13478 -15.04382 -.84947 164.3 182.2)"/><path fill="#fff" fill-opacity=".6" d="M96 53L57 1l32 85z"/><circle r="1" fill="#3c3c3c" fill-opacity=".7" transform="matrix(-3.9953 17.35963 -18.99179 -4.37094 62.3 67.3)"/><path fill="#373737" fill-opacity=".6" d="M144.3 214.7l.3-59.8-15.3 58 4.1 15.4z"/><path fill="#e4e4e4" fill-opacity=".5" d="M109.2 96.6l-2.8 66.3 29.4 35.9 3.1-37.2z"/><path fill="#111" fill-opacity=".4" d="M122.6 77l-27-33.5 5.5 34.7-33 53.6z"/><circle r="1" fill="#fff" fill-opacity=".6" transform="matrix(17.0203 7.597 -9.5988 21.50516 4 29.6)"/><circle r="1" fill="#292929" fill-opacity=".6" transform="matrix(16.38336 37.22464 -6.20098 2.72918 70 0)"/><ellipse cx="28" cy="250" fill="#e4e4e4" fill-opacity=".8" rx="23" ry="71"/><path fill="#fff" fill-opacity=".5" d="M185 105L167-16 117 87z"/><path fill="#f8f8f8" fill-opacity=".5" d="M64 41L39 0 24 69z"/><path fill="#e4e4e4" fill-opacity=".9" d="M50 29.2l-9.6 68.6 12.5-7.6-14.3-14.5z"/><path fill="#5a5a5a" fill-opacity=".4" d="M133.3 117L146 93.1l3.4 49.5 26.4-7.2z"/><circle r="1" fill="#fff" fill-opacity=".6" transform="matrix(2.05218 -30.4002 3.1282 .21117 .5 57.7)"/><path fill="#686868" d="M69.2 204l5.2-54.1-16.8 14 .8 49.2z"/><path fill="#363636" fill-opacity=".5" d="M113.5 200.1l6 1-15 94.8-6-1z"/><path fill="#fefefe" fill-opacity=".5" d="M89.5 8.5L64.8-16l36.5 52.4L76.5 100z"/><path fill-opacity=".5" d="M-3 100L9 47l22 3z"/><path fill="#0c0c0c" fill-opacity=".3" d="M91.3 205L4.7 159.8l-13.8-6.3 1.5-15.5z"/><path fill="#f5f5f5" fill-opacity=".8" d="M94.2 34.1L107 1.6l78 78.5-67.1-49.3z"/><path fill="#6b6b6b" fill-opacity=".6" d="M107.8 124.6L92.5 242.4l-4.3-119.8 4.2-40.7z"/><path fill="#e0e0e0" fill-opacity=".5" d="M31.2 113.8L15 92.2l-8.1 1.5 32.9 75z"/><path fill="#080808" fill-opacity=".4" d="M103 271l-55-84 8 49z"/><path fill="#e4e4e4" fill-opacity=".6" d="M62.6 163.2l-.8-19.5-3.8-9.6 21.7.4z"/><path fill-opacity=".6" d="M54.1 28.4l3-8.5 4.8 1.7-3 8.5z"/><path fill="#232323" fill-opacity=".5" d="M48.1 132.4L22.2 98.3l13.4-20.7-1.8 17.3z"/><path fill="#f8f8f8" fill-opacity=".8" d="M90.4 100.7l-14.2-5.8-3.6 2.1 27.1-78.6z"/><path fill="#ccc" fill-opacity=".5" d="M107 45h12v11h-12z"/><path fill="#010101" fill-opacity=".4" d="M98.1 37.8l-2.7 11.4 24.7-7 .4-13.2z"/><path fill="#757575" fill-opacity=".7" d="M35 63.5L30.1 51 17.6 76.3l6.5 27.9z"/><path fill="#fff" fill-opacity=".6" d="M-16 30l47-10 19 39z"/><path fill="#191919" fill-opacity=".5" d="M44.1 63.2l.7 13.8 37.9-10.7-26.9-19.2z"/><path fill="#f3f3f3" fill-opacity=".9" d="M103.1 82.9l-14.3-5.3L55.3-4.9l47.9 83.7z"/><path fill="#1a1a1a" fill-opacity=".4" d="M60.3 196.8l-26.9-51.9 26.2-63.3-15.9 61.3z"/><path fill="#ededed" fill-opacity=".4" d="M158 193l-19 78-2-42z"/><path fill="#292929" fill-opacity=".7" d="M72.3 112.6l5-15.2 12.4 4-5 15.2z"/><path fill="#6d6d6d" fill-opacity=".6" d="M66.5 97.4l-16.7-6.7 9.7-24.1 16.7 6.7z"/><path fill-opacity=".5" d="M26 20l4-30-26-5z"/><path fill="#0e0e0e" fill-opacity=".6" d="M130 142l5-27 8 35z"/><circle r="1" fill-opacity=".3" transform="matrix(.55516 5.95057 -5.83272 .54417 125 9.2)"/><circle r="1" fill="#979797" fill-opacity=".5" transform="matrix(16.83707 22.18202 -5.777 4.38499 134.9 102.7)"/><path fill="#cecece" fill-opacity=".9" d="M63 28.5L56.2 6.4 52 12.1l22.8 5.8z"/><path fill="#050505" fill-opacity=".5" d="M77 128l5-28 8 57z"/><path fill="#a1a1a1" d="M0 169h10v37H0z"/><ellipse cx="83" cy="233" fill="#080808" fill-opacity=".6" rx="5" ry="76"/><path fill="#0b0b0b" fill-opacity=".3" d="M144 218.1l-9.2-26.6-8 22.2 7.5 7.5z"/></g></svg>