<svg xmlns="http://www.w3.org/2000/svg" viewBox="0 0 300 199"><defs/><path fill="#2b4429" d="M0 0h300v199H0z"/><g transform="translate(.6 .6) scale(1.17188)"><circle r="1" fill="#f7cee3" fill-opacity=".4" transform="matrix(-121.62687 14.50313 -7.80476 -65.45271 88.2 131.4)"/><circle r="1" fill="#e2a1a8" fill-opacity=".6" transform="rotate(-11.2 324.4 -1054) scale(38.2003 23.42363)"/><circle r="1" fill="#ece2d8" fill-opacity=".4" transform="matrix(-116.17119 .2904 -.04238 -16.95378 90.2 107.7)"/><ellipse cx="73" cy="15" fill="#3f5639" fill-opacity=".8" rx="114" ry="78"/><circle r="1" fill="#0a1c53" fill-opacity=".7" transform="rotate(-158.2 130.3 42) scale(47.4149 57.93239)"/><path fill="#d9ebff" fill-opacity=".7" d="M177.8 186.2L157.9 117l18.3-5.2 19.9 69.2z"/><circle r="1" fill="#5c484a" fill-opacity=".5" transform="matrix(-1.93574 -28.67087 97.36805 -6.57388 47.2 159.1)"/><path fill="#c7a9a2" fill-opacity=".6" d="M178-16l44 83 23-28z"/><circle r="1" fill="#729c61" fill-opacity=".4" transform="matrix(-54.4904 40.46814 -14.25633 -19.19616 28.5 18.6)"/><path fill-opacity=".6" d="M187.6 79.5l13.6-29 17.2 8-13.6 29z"/><path fill="#ffe3f0" fill-opacity=".3" d="M174 50l-3 70 37-12z"/><circle r="1" fill="#405a8d" fill-opacity=".5" transform="rotate(125.3 89.2 99.3) scale(47.05094 12.65781)"/><path fill="#351b16" fill-opacity=".7" d="M146.8 72.9h9l10.4-59.5 6.2 84z"/><path fill="#e8ccb6" fill-opacity=".4" d="M-16 96l40 1 10-29z"/><path fill="#c2a89e" fill-opacity=".6" d="M139 183l30-47-21-81z"/><path fill="#587a68" fill-opacity=".7" d="M125 56h31v32h-31z"/><ellipse cx="133" cy="19" fill="#1b2f1b" fill-opacity=".6" rx="27" ry="41"/><path fill="#341312" fill-opacity=".5" d="M216.2-15.6L261-10l-5.1 41.7L211 26z"/><circle r="1" fill="#000003" fill-opacity=".6" transform="matrix(17.4421 1.77495 -4.05579 39.85542 251.6 151.8)"/><path fill="#fff5f2" fill-opacity=".3" d="M211.8 87.7l10.7-53.9L271 48.6l-17.9-25.7z"/><path fill="#a6cabe" fill-opacity=".4" d="M98-16l7 47-15-17z"/><path fill="#d1ebff" fill-opacity=".5" d="M171.9 100.1l21.2 5.7-7 26-21.2-5.6z"/><ellipse cx="67" cy="87" fill="#000501" fill-opacity=".6" rx="35" ry="3"/><path fill="#3c4331" d="M191.7-14.7l6.1 29.3L171.1 51l-35-67z"/><path fill="#2d1e1c" fill-opacity=".5" d="M172 161l-5 23-9-41z"/><path fill="#243e1f" fill-opacity=".5" d="M0 61l108-32-5 59z"/><ellipse cx="215" cy="138" fill="#122946" fill-opacity=".5" rx="30" ry="32"/><circle r="1" fill="#e6d0c7" fill-opacity=".5" transform="matrix(-12.36107 12.0016 -4.42282 -4.5553 147.1 96.4)"/><circle r="1" fill="#544a3f" fill-opacity=".7" transform="matrix(-12.96273 18.37584 -19.2671 -13.59144 -.1 156)"/><path fill="#c2bdb1" fill-opacity=".5" d="M46 91h106v15H46z"/><path fill="#98554b" fill-opacity=".5" d="M214 40l5-28-26-28z"/><circle r="1" fill="#1c3163" fill-opacity=".5" transform="matrix(20.8512 -17.87163 9.14213 10.6663 244 60.9)"/><path fill="#c3d1e0" fill-opacity=".8" d="M193.2 161.9l-1.9-4.9-30.8-39.8 21.3 66.7z"/><path fill="#d7fbff" fill-opacity=".6" d="M247 40l-31 22 19-23z"/><ellipse cx="180" cy="64" fill="#be665c" fill-opacity=".4" rx="10" ry="27"/><path fill="#7a8c67" fill-opacity=".7" d="M28 32l15-21L6-5z"/><ellipse cx="65" cy="128" fill="#8c8480" fill-opacity=".4" rx="65" ry="13"/><circle r="1" fill="#977265" fill-opacity=".6" transform="matrix(-3.21987 30.76937 -2.90013 -.30348 159.8 112.5)"/><path fill="#e9c2af" fill-opacity=".5" d="M202 47l-6-34 14 13z"/><circle cx="151" cy="62" r="8" fill="#bfceff" fill-opacity=".3"/><path fill="#1c3026" fill-opacity=".5" d="M12 28.4L-21.4 1.3l9.4-11.7 33.4 27.1z"/><path fill="#916d69" fill-opacity=".4" d="M50.5 83.7l1.7-12.8 24.1-6.4L80 85.4z"/><circle r="1" fill="#124b21" fill-opacity=".5" transform="matrix(-15.17813 .18545 -.04017 -3.28755 138.1 84.2)"/><path fill="#b4b1a9" fill-opacity=".9" d="M62 94l-45 11-33-21z"/><path fill="#e6c6b9" fill-opacity=".6" d="M146.3 176.2l-6-.7 5.4-51.7 6 .7z"/><path fill="#0a130d" fill-opacity=".5" d="M39 85l19-25-22-9z"/><path fill="#eff" fill-opacity=".5" d="M201 100h4v11h-4z"/><path fill="#363219" fill-opacity=".6" d="M203 45l-10 8 30 24z"/><path fill="#1a0000" fill-opacity=".3" d="M157.5 34.7l23.7 28.9-30.8 11.1L171 89.3z"/><path fill="#c7a194" fill-opacity=".5" d="M190 83l15 11-46 2z"/><path fill="#110d08" fill-opacity=".4" d="M156.1 39.2l44.3-1.9-68.3 19.2 26.6-40.2z"/><path fill="#587a50" fill-opacity=".4" d="M186 8l-63 23-22 11.5 3.1-18.9z"/><ellipse cx="220" cy="103" fill="#406da4" fill-opacity=".2" rx="12" ry="19"/><path fill="#78734e" fill-opacity=".6" d="M7 86l-21.9 7.3 44.6-25.2 8.6 21.1z"/><path fill="#655b5b" fill-opacity=".8" d="M141.7 134.5l-27.4-3.3 22.9 53.8 5.3-36.6z"/><circle r="1" fill="#a6b2c2" fill-opacity=".6" transform="rotate(146.8 69.3 90.8) scale(12.46422 9.17742)"/><ellipse cx="188" cy="46" fill="#fbbfb8" fill-opacity=".4" rx="17" ry="3"/><circle r="1" fill="#225328" fill-opacity=".4" transform="rotate(24.7 -23 183.1) scale(33.66174 14.5422)"/><path fill="#1d0a08" fill-opacity=".4" d="M221 7l33 33-9-56z"/><circle r="1" fill="#68503c" fill-opacity=".5" transform="matrix(-1.5911 .03889 -.90203 -36.90855 196.4 33.8)"/><circle r="1" fill="#00060e" fill-opacity=".5" transform="matrix(-.9413 -.33757 7.9823 -22.25812 193.6 120.6)"/><path fill="#f3ffff" fill-opacity=".5" d="M94.3 6.7l5.8-3.9 1.6 2.5L96 9.2z"/><path fill="#18321b" fill-opacity=".5" d="M103.1 21.2l90.1-16.8-72.7-1.3-29 9.5z"/><path fill="#150700" fill-opacity=".3" d="M215.1 49.1L205 53.9l-20.9 27.7 22.2 9.6z"/><path fill="#101105" fill-opacity=".5" d="M24 73L5 72l15-12z"/></g></svg>