<svg xmlns="http://www.w3.org/2000/svg" viewBox="0 0 300 199"><defs/><path fill="#444" d="M0 0h300v199H0z"/><g transform="translate(.6 .6) scale(1.17188)"><circle r="1" fill="#f4f4f4" fill-opacity=".6" transform="matrix(80.604 35.38268 -38.5922 87.9155 83.9 61)"/><path fill="#fff" fill-opacity=".8" d="M249.8-30.6L272 58.7l-39.8 9.9L210-20.7z"/><circle r="1" fill="#fff" fill-opacity=".7" transform="matrix(19.18247 -60.83903 42.92659 13.5347 124.9 7.7)"/><path fill-opacity=".7" d="M168.6 48.7L199.8 185l15.7-167.9L119.8 48z"/><circle cx="26" cy="40" r="31" fill="#fff" fill-opacity=".6"/><circle r="1" fill="#050505" fill-opacity=".5" transform="matrix(11.05958 -.48287 1.9457 44.56391 70.7 31.6)"/><circle r="1" fill="#acacac" fill-opacity=".5" transform="matrix(25.24232 -5.4475 9.24113 42.82096 236.7 126.8)"/><circle r="1" fill="#9f9f9f" fill-opacity=".7" transform="matrix(31.81248 -11.80315 14.1277 38.07775 150.5 123)"/><ellipse cx="87" cy="80" fill="#050505" fill-opacity=".3" rx="193" ry="13"/><path fill-opacity=".7" d="M52.3 4.6L-5.2 17.8l-5.1-22.4 57.5-13.2z"/><ellipse cx="47" cy="128" fill="#8a8a8a" fill-opacity=".7" rx="83" ry="31"/><path fill-opacity=".7" d="M10.9 3h3L17 95h-3z"/><path fill="#f6f6f6" fill-opacity=".7" d="M195.2-16l34.9 54.6-14.7 33.8L271 37.1z"/><path fill="#fff" fill-opacity=".6" d="M111 66.6l22.6.5 39.1-1.5 5-25.7z"/><circle cx="197" cy="40" r="30" fill="#060606" fill-opacity=".5"/><ellipse cx="47" cy="82" fill="#fff" fill-opacity=".2" rx="29" ry="44"/><path fill="#303030" fill-opacity=".6" d="M104 98.1l-13 5.5-21-49.7 12.8-5.5z"/><ellipse cx="79" cy="169" fill-opacity=".6" rx="48" ry="13"/><path fill="#fff" fill-opacity=".4" d="M200-11L73 23l79 16z"/><circle r="1" fill="#fff" fill-opacity=".6" transform="matrix(1.13214 -7.57532 2.67193 .39932 213.3 47.5)"/><ellipse cy="97" fill="#050505" fill-opacity=".8" rx="4" ry="26"/><path fill-opacity=".7" d="M170.1-9l3.8 53.9-2 .1L168-8.9z"/><path fill="#1a1a1a" fill-opacity=".7" d="M228.2 74.9L271 64.4l-56.8.3 14.3 52.8z"/><path fill="#fbfbfb" fill-opacity=".7" d="M38 61L63-3 17 25z"/><ellipse cx="197" cy="147" fill="#0a0a0a" fill-opacity=".8" rx="13" ry="135"/><path fill="#afafaf" fill-opacity=".5" d="M118 83h54v56h-54z"/><path fill-opacity=".6" d="M14 79h4v41h-4z"/><ellipse cx="115" cy="81" fill-opacity=".5" rx="4" ry="15"/><path fill="#141414" fill-opacity=".7" d="M171 51h4v64h-4z"/><path fill-opacity=".5" d="M0 70h51v3H0z"/><circle r="1" fill-opacity=".5" transform="matrix(6.77762 4.2719 -7.85327 12.4597 72.3 3.5)"/><path fill-opacity=".5" d="M131 46l15 4 24-17z"/><path fill="#fff" fill-opacity=".5" d="M9.5 11.6l2 63.4-16.7-10.3-10.6-35.9z"/><path fill="#c8c8c8" fill-opacity=".4" d="M6.4 136.4l18.2 28.2 12.1-33.8 21.1-63.5z"/><ellipse cx="156" cy="80" fill="#020202" fill-opacity=".4" rx="63" ry="3"/><path fill="#adadad" fill-opacity=".6" d="M210 88h13v41h-13z"/><path fill="#f4f4f4" fill-opacity=".6" d="M17 11h38v59H17z"/><ellipse cx="248" cy="98" fill="#c6c6c6" fill-opacity=".5" rx="18" ry="10"/><path fill="#0a0a0a" fill-opacity=".6" d="M226 45l-67-61 59 30z"/><ellipse cx="233" cy="5" fill="#fff" fill-opacity=".6" rx="28" ry="9"/><ellipse cx="122" cy="151" fill="#5f5f5f" fill-opacity=".5" rx="62" ry="10"/><ellipse cx="78" cy="110" fill="#8d8d8d" fill-opacity=".6" rx="36" ry="20"/><path fill="#fff" fill-opacity=".5" d="M174 42h3v17h-3z"/><circle r="1" fill="#363636" fill-opacity=".5" transform="matrix(7.7428 4.286 -8.03416 14.51395 64.2 27.2)"/><path fill="#3b3b3b" d="M207.6 114.2l-5.4 19.5-1.7-23.6 70.2-1.2z"/><path fill="#f8f8f8" fill-opacity=".6" d="M90 0h29v68H90z"/><path fill="#565656" fill-opacity=".6" d="M269.3 163.8l-15.4 31.4-51.2-25 15.4-31.4z"/><path fill="#f0f0f0" fill-opacity=".9" d="M217.1 65.9l2.2-.8 50.8-1.7L255-5.4z"/><path fill="#0a0a0a" fill-opacity=".6" d="M156 42l26-32h36z"/><path fill="#dcdcdc" fill-opacity=".5" d="M120 72h42v4h-42z"/><circle r="1" fill="#0c0c0c" fill-opacity=".6" transform="rotate(77 20 25.1) scale(6.35589 31.69446)"/><ellipse cx="137" cy="69" fill="#141414" fill-opacity=".5" rx="45" ry="2"/><path fill="#f7f7f7" fill-opacity=".6" d="M172.9 16.4l10-4.6L170.6-8l2.9-8z"/><path fill="#ddd" fill-opacity=".6" d="M100.2 88.2l3.6-3.5 32 33.1-3.6 3.5z"/><path fill="#161616" fill-opacity=".6" d="M135 113h46v2h-46z"/><path fill="#0b0b0b" fill-opacity=".7" d="M211.2 83.3l-63.9-1.9 49.1-11.5 29.9-32.4z"/><path fill-opacity=".6" d="M224 70h6v42h-6z"/><path fill="#c1c1c1" fill-opacity=".5" d="M3 74h11v18H3z"/><path fill="#f5f5f5" fill-opacity=".8" d="M129 68.7l40.8-25.5 1.3 8.3-4.8 13.9z"/><path fill="#bebebe" fill-opacity=".3" d="M194.1 16.6L181.2 11 188-4.6 200.8 1z"/><path fill="#9e9e9e" d="M169.7 87.4l-34.6-5.3 5.8 22 31.8.3z"/><ellipse cx="110" cy="22" fill="#f0f0f0" fill-opacity=".6" rx="34" ry="20"/><path fill="#efefef" fill-opacity=".8" d="M55.6-16l116.2 1.5-12.2 51.9-19.6 5z"/><path fill="#565656" fill-opacity=".5" d="M139 45l-14 1 1-10z"/><circle r="1" fill="#474747" fill-opacity=".6" transform="matrix(12.35064 14.91561 -9.2359 7.64764 83.6 75.2)"/></g></svg>