<svg xmlns="http://www.w3.org/2000/svg" viewBox="0 0 300 199"><defs/><path fill="#523c2f" d="M0 0h300v199H0z"/><g transform="translate(.6 .6) scale(1.17188)"><circle r="1" fill="#fff" fill-opacity=".8" transform="rotate(-94.8 119 -36.3) scale(242.08594 106.13578)"/><circle r="1" fill="#b4aa9d" transform="matrix(-176.86776 36.27625 -4.45873 -21.7389 26.2 124)"/><ellipse cx="86" cy="13" fill="#e3e4e4" fill-opacity=".8" rx="255" ry="15"/><circle r="1" fill="#a09888" transform="matrix(-20.06103 2.3609 -27.83386 -236.50921 .4 102.2)"/><circle r="1" fill="#744328" fill-opacity=".6" transform="matrix(3.88895 33.88342 -15.88778 1.8235 139 76.6)"/><circle r="1" fill="#8b8c7e" fill-opacity=".6" transform="matrix(-13.89862 -15.27439 46.24712 -42.08164 68 146.6)"/><circle cx="228" cy="88" r="60" fill="#fdffff" fill-opacity=".4"/><ellipse cx="155" cy="150" fill="#9d7b6a" fill-opacity=".4" rx="23" ry="81"/><path fill="#0a180f" fill-opacity=".7" d="M82.7 104.2l11.2-2.4 24.9 10.3-17.7 10.7z"/><ellipse cx="37" cy="66" fill="#00010d" fill-opacity=".5" rx="23" ry="33"/><path fill="#f1f8fc" fill-opacity=".6" d="M61 27h65v78H61z"/><path fill="#e3e8e8" fill-opacity=".6" d="M31 100h34v41H31z"/><path fill="#fcffff" fill-opacity=".4" d="M114 96l9 53 26-45z"/><path fill="#040911" fill-opacity=".4" d="M26.9 96.8l6.1 55.8-49 16.7 37.5-18z"/><circle r="1" fill="#c7cbcf" fill-opacity=".6" transform="matrix(-33.4314 -2.04752 .42493 -6.93823 53.8 169)"/><path fill="#824229" fill-opacity=".5" d="M190.7 99.9l3.5-27.9-14.1 20.6-47.5 14.3z"/><path fill="#270a00" fill-opacity=".5" d="M123 56l15 28-1-40z"/><path fill="#782107" fill-opacity=".5" d="M168 109h7v49h-7z"/><ellipse cx="215" cy="135" fill="#e9eef1" fill-opacity=".6" rx="39" ry="53"/><path fill="#00000e" fill-opacity=".3" d="M87.2 136.9l-12.8 19.6-25.9 4.7-7.3-15.1z"/><path fill="#e3e5e3" fill-opacity=".5" d="M129 113l2 42-64-25z"/><circle cx="187" cy="38" r="39" fill="#eaecec" fill-opacity=".7"/><ellipse cx="78" cy="118" fill="#ce9d24" fill-opacity=".4" rx="20" ry="10"/><path fill="#121b1c" fill-opacity=".5" d="M19 33h40v65H19z"/><path fill="#b6b0a1" fill-opacity=".7" d="M25.5 133.8l4.1-14.2L-16 18.5l5.7 83.2z"/><path fill="#172119" fill-opacity=".9" d="M94.7 102.3l-12.6 12.2 31.8-8.9 1.7 12.2z"/><path fill="#080b09" fill-opacity=".5" d="M30.8 145.8l-12.9-21.1 1.6 2.9 7.2 35z"/><path fill="#f4f5f4" fill-opacity=".7" d="M118 36l11 41-18 20z"/><path fill="#dee0e0" fill-opacity=".6" d="M12 28l102-4-92-40z"/><path fill="#171919" fill-opacity=".6" d="M14 29h44v28H14z"/><path fill="#c6c3c0" fill-opacity=".6" d="M168.4 159l-23 .9-1.8-53 23-.8z"/><path fill="#272828" fill-opacity=".6" d="M43 72h17v27H43z"/><circle r="1" fill="#926042" fill-opacity=".6" transform="matrix(-6.59715 3.42281 -12.06589 -23.25587 147.7 89.2)"/><path fill="#f9feff" fill-opacity=".6" d="M112 70l8 62 15-12z"/><path fill="#0f0e0c" fill-opacity=".4" d="M19.6 149.8l18.3 5.9 17.5-13L66.3 156z"/><ellipse cx="83" cy="66" fill="#dee0df" fill-opacity=".6" rx="25" ry="37"/><path fill="#acabac" fill-opacity=".6" d="M32 185l-1.9-28.7 1.5-2 17.3-.9z"/><path fill="#8c8d83" fill-opacity=".6" d="M26.4 72.5L22 61.8l6 1.9 2.9 5z"/><path fill="#aba094" fill-opacity=".6" d="M125 96l30 10-15 19z"/><path fill="#e9edf1" fill-opacity=".5" d="M28 99h22v21H28z"/><path fill="#f1f3f1" fill-opacity=".6" d="M108 28h44v16h-44z"/><path fill="#e4d5c8" fill-opacity=".4" d="M143 44l39 47-22 2z"/><path fill="#634b3a" fill-opacity=".5" d="M10 143l-20 31 29-19z"/><path fill="#8e543f" fill-opacity=".7" d="M133.2 101.8l-10.4-10 .6-6.6 52.1 14.3z"/><path fill="#c2bcab" fill-opacity=".5" d="M1 55l10-31 8 75z"/><path fill="#c2c1bd" fill-opacity=".5" d="M75 136l-29 6 6-38z"/><path fill="#353635" fill-opacity=".5" d="M45 27h12v56H45z"/><path fill="#000001" fill-opacity=".5" d="M30 126.1l-9-42 1-.2 9 42z"/><circle r="1" fill="#273f3a" fill-opacity=".5" transform="rotate(80.3 -16.8 106.7) scale(3.10122 8.62181)"/><path fill="#000502" fill-opacity=".5" d="M97 106h16v12H97z"/><path fill="#7f3524" fill-opacity=".4" d="M167 146h12v8h-12z"/><path fill="#7c756d" fill-opacity=".9" d="M18.4 152.4l25.6-8.1-21.7-21.6 27 21.5z"/><ellipse cx="133" cy="54" fill="#311b08" fill-opacity=".5" rx="6" ry="10"/><path fill="#828083" fill-opacity=".5" d="M34.8 145.7l46-3.3 9.4 18.3 1.2-27.8z"/><path fill="#bca15c" fill-opacity=".7" d="M79.5 129.6l-22.1-13.4 6-10.7 35.2 10.4z"/><circle r="1" fill="#dce9ee" fill-opacity=".3" transform="rotate(-89.8 134 30.7) scale(22.00421 27.15795)"/><path fill="#cbcaca" fill-opacity=".4" d="M89 47l9-63 17 119z"/><path fill="#b8b2a5" fill-opacity=".6" d="M25.4 98.1l-14.8 28L28 163.7l-11.3 11.7z"/><path fill="#e1ebff" fill-opacity=".2" d="M23.8 98l1 32.2 7.9 33.8-5.7-40.9z"/><path fill="#440200" fill-opacity=".1" d="M188.4 78.2l13.9 18.5-22.4 1.2 9.6-23.6z"/><path fill="#956b52" fill-opacity=".5" d="M151 50l-28 41 27-1z"/><path fill="#eaeceb" fill-opacity=".5" d="M81.4 111.9l10.5-17.6L62.7 105 55.3-4.7z"/><path fill="#060704" fill-opacity=".5" d="M15.6 73.8l23.4-5 5.4 25.4-23.4 5z"/><ellipse cx="144" cy="157" fill="#b2ada7" fill-opacity=".6" rx="14" ry="42"/><path fill="#e8e9e9" fill-opacity=".5" d="M174 103h82v28h-82z"/></g></svg>