<svg xmlns="http://www.w3.org/2000/svg" viewBox="0 0 300 199"><defs/><path fill="#54592e" d="M0 0h300v199H0z"/><g transform="translate(.6 .6) scale(1.17188)"><circle r="1" fill="#ffd6c2" fill-opacity=".7" transform="matrix(-14.10108 -42.0738 150.04582 -50.28803 106.2 150.9)"/><circle r="1" fill="#f3dad9" fill-opacity=".7" transform="matrix(16.38486 .7897 -8.1005 168.06967 202.4 76.2)"/><circle r="1" fill="#140000" fill-opacity=".7" transform="matrix(-21.9236 -5.84508 35.33866 -132.54756 17.7 16.5)"/><ellipse cx="230" cy="19" fill="#c19fbd" fill-opacity=".4" rx="84" ry="30"/><circle r="1" fill="#ae6347" fill-opacity=".6" transform="rotate(61.6 -87 90.8) scale(15.64562 53.09945)"/><ellipse cx="109" fill="#f1a775" fill-opacity=".5" rx="9" ry="51"/><ellipse cx="210" cy="2" fill="#f8e5d8" fill-opacity=".9" rx="8" ry="113"/><path fill="#3b3021" fill-opacity=".5" d="M183 0h17v49h-17z"/><ellipse cx="136" cy="74" fill="#370010" fill-opacity=".4" rx="27" ry="30"/><path fill="#64362a" fill-opacity=".9" d="M217.9 128.3l-4.3 32.6-13.4 19.7 66.8-14.5z"/><path fill="#eae2f4" fill-opacity=".6" d="M175.2 76.6l8.2-26.7 11.4 3.5-8.2 26.7z"/><path fill="#7e926a" fill-opacity=".9" d="M35.6 24l5.6 10.3L57 46.1 67-7.5z"/><path fill="#604847" fill-opacity=".9" d="M252.4 22.3l-22.9 77-12.4-3.5 2.9-80.3z"/><circle cx="5" cy="85" r="43" fill="#5c2b10" fill-opacity=".6"/><path fill="#7b4b3e" fill-opacity=".9" d="M246.9 107.3l-2 3.7-17.5 66.6 43.6-67.9z"/><circle r="1" fill="#9e6368" fill-opacity=".4" transform="rotate(-57 127.3 -31.9) scale(40.93352 23.15629)"/><path fill="#ffeacf" fill-opacity=".6" d="M184.5 104.7l3.3 18.8-112.3 19.8-3.3-18.8z"/><path fill="#2f0000" fill-opacity=".3" d="M126 88l79-11v22z"/><ellipse cx="98" cy="169" fill="#b17c4e" fill-opacity=".5" rx="56" ry="14"/><path fill="#bed1fd" fill-opacity=".5" d="M267 6l-35-22 9 38z"/><ellipse cx="97" cy="94" fill="#290200" fill-opacity=".6" rx="23" ry="8"/><path fill="#fcffff" fill-opacity=".6" d="M261 106l-36-3 43-20z"/><ellipse cx="19" cy="49" fill="#fffff3" fill-opacity=".5" rx="7" ry="4"/><path fill="#cfd8ff" fill-opacity=".3" d="M139.4-16l-3.9 31.3-35.6 13.1L113.6 12z"/><circle r="1" fill="#a9794d" fill-opacity=".6" transform="matrix(-2.08769 -7.076 81.34395 -23.99954 89.8 111.7)"/><path fill="#fdc694" fill-opacity=".4" d="M157.8 18.6l2.7 26.2 11.9-34.9-44-21.3z"/><circle r="1" fill-opacity=".6" transform="rotate(54.7 -.2 14.8) scale(27.70612 48.04821)"/><path fill="#c6bcaf" fill-opacity=".6" d="M70.2 113.4l6.6 31.3L73 95.2l-20.5 1.3z"/><path fill="#000105" fill-opacity=".4" d="M116 22l24-5 19 78z"/><path fill="#dfebd4" fill-opacity=".6" d="M51.7 63.9l4.1.3L52.5 76l-8.2-11.2z"/><path fill="#ad7a6c" fill-opacity=".6" d="M231 79h25v16h-25z"/><path fill="#dcac9e" fill-opacity=".4" d="M126.9 82.3l1.3-11 18.9 2.4-1.3 11z"/><path fill="#f7d9b9" fill-opacity=".5" d="M87.6 121.8l8.6 21.3-91.8 37.1-8.6-21.3z"/><path fill="#ffe7fd" fill-opacity=".3" d="M216.8 64.7L196 76.3l-32.2.5 4.6-10.1z"/><path fill="#130e00" fill-opacity=".5" d="M34.1 58.2L6.4 26.6l58.1 24.7-6.2 11z"/><path fill="#778f91" fill-opacity=".6" d="M78.5 18.6L87.4-16h-.5l1.6 66.7z"/><circle r="1" fill="#1b1e4a" fill-opacity=".6" transform="rotate(-94.1 156 -84.2) scale(13.01121 21.28827)"/><path fill="#1b0005" fill-opacity=".5" d="M87 6.1l9-1 5 48.8-9 1z"/><path fill="#ffedec" fill-opacity=".4" d="M222 99h20v37h-20z"/><path fill-opacity=".4" d="M75 76v29l11 4z"/><path fill="#decdbc" fill-opacity=".6" d="M178 90h31v80h-31z"/><path fill="#76544b" fill-opacity=".7" d="M162.1 80.5l24.8-17.7-25.7-23L150.5-16z"/><ellipse cx="219" cy="138" fill="#200600" fill-opacity=".5" rx="2" ry="37"/><path fill="#0e0405" fill-opacity=".5" d="M68.5 100.7L127 94l86.1-15.4-28.3.9z"/><path fill="#bda39b" fill-opacity=".5" d="M62 78h48v6H62z"/><path fill="#6f3e1a" fill-opacity=".9" d="M57.6 74.3l-7.3 24.3 12.9 19.6-70.4 12.1z"/><path fill="#311215" fill-opacity=".5" d="M75 24h6v87h-6z"/><ellipse cx="144" cy="169" fill="#c7a183" fill-opacity=".6" rx="49" ry="26"/><path fill="#fff4dc" fill-opacity=".5" d="M191.6 30.5h-1l1.8-53h1z"/><path fill="#afdcb2" fill-opacity=".4" d="M43 14.6l-8.5 8.2 27.7 15.6-20.1 2z"/><path fill="#cfbbbe" fill-opacity=".5" d="M252 0h4v49h-4z"/><path fill="#5e350b" fill-opacity=".5" d="M94.5-14h15v30h-15z"/><path fill="#000003" fill-opacity=".5" d="M162 85l-9-35-7 36z"/><path fill="#c39fa6" fill-opacity=".5" d="M83 56h29L81 68z"/><path fill="#a68886" fill-opacity=".5" d="M107 51.3l-1.1-4.9 31-7.7 1.2 4.9z"/><path fill="#3d2a26" fill-opacity=".6" d="M124.6 56.1l80.5-20.7-19.5 12.2-13.3.7z"/><path fill="#aa7e55" fill-opacity=".9" d="M47.6 136.3l-28.8-11.2-34.8 43.6 25.9-19.3z"/><path fill="#240000" fill-opacity=".5" d="M191.3 52.2l1.8-1 5.6 10.6-1.8 1z"/><path fill="#454e69" fill-opacity=".5" d="M243 10h9v53h-9z"/><path fill="#faeac2" fill-opacity=".4" d="M159.3 2.6l7.9 16.5-1.8 18.4-7.4-12.3z"/><ellipse cy="64" fill="#232213" fill-opacity=".5" rx="17" ry="30"/><circle r="1" fill="#d7ced1" fill-opacity=".6" transform="rotate(162.1 94.2 40.6) scale(15.92663 4.0733)"/><path fill="#401c13" fill-opacity=".7" d="M55.5 7.9L40.9-16l39.8 41.4-9-12.7z"/><path fill="#0b1e30" fill-opacity=".5" d="M232 13h7v24h-7z"/><path fill="#825b36" fill-opacity=".4" d="M205.7 10l-.1-22.9-37.2 29.1L104.5-16z"/></g></svg>