<svg xmlns="http://www.w3.org/2000/svg" viewBox="0 0 300 199"><defs/><path fill="#5c4534" d="M0 0h300v199H0z"/><g transform="translate(.6 .6) scale(1.17188)"><circle r="1" fill="#f4f5ec" fill-opacity=".6" transform="matrix(-41.62954 9.00063 -13.3901 -61.93166 0 62.4)"/><circle r="1" fill="#ffd6ce" fill-opacity=".6" transform="matrix(8.80881 -17.66774 26.05819 12.99213 88.3 143.9)"/><circle r="1" fill="#877766" fill-opacity=".6" transform="matrix(-80.28405 -73.82497 30.47474 -33.14103 180.9 136.7)"/><circle r="1" fill="#ebecef" fill-opacity=".6" transform="matrix(2.87547 -68.60664 7.95612 .33346 8.2 95.7)"/><circle r="1" fill="#180b00" fill-opacity=".6" transform="rotate(146.8 107.5 71) scale(27.11243 43.75145)"/><circle r="1" fill="#050005" fill-opacity=".5" transform="rotate(53.9 -117.2 110.8) scale(41.35265 17.6614)"/><ellipse cx="145" cy="10" fill="#a06a4b" fill-opacity=".6" rx="131" ry="26"/><path fill-opacity=".6" d="M113 36l88-2-25 48z"/><path fill="#f6f1ff" fill-opacity=".5" d="M222.7 110l-22.8-12.9 14.5 36.1 7.2-8.3z"/><path fill-opacity=".6" d="M216.7 128.7l28.7 14-6 12.6-28.8-14z"/><path fill="#cdaca4" fill-opacity=".6" d="M271 124l-12 61-21-81z"/><path fill="#bdb4a7" fill-opacity=".9" d="M44.8 59.5L16 74l43.6 24-10.2 10z"/><circle r="1" fill="#080000" fill-opacity=".6" transform="rotate(131.8 -10.2 77.3) scale(41.67393 9.78125)"/><path fill="#b7cdff" fill-opacity=".3" d="M213.4 75.5L198 91.3l-19.5-18.8L194 56.7z"/><circle r="1" fill="#79a5ab" fill-opacity=".5" transform="matrix(12.41148 -.8832 2.10311 29.55472 114 71.2)"/><path fill="#b6b5b4" fill-opacity=".7" d="M101.8 30.1H271L74.3 35.3l-56.9-1.8z"/><ellipse cx="148" cy="162" fill="#a37c57" fill-opacity=".6" rx="61" ry="22"/><circle r="1" fill="#020000" fill-opacity=".7" transform="matrix(-10.58823 -.31425 .69102 -23.28305 229.8 97.4)"/><path fill="#f4ffd3" fill-opacity=".3" d="M132.7 71.2l16.2 19.6 27.2 10.4-9.8-34.3z"/><ellipse cx="125" cy="112" fill="#594332" fill-opacity=".6" rx="41" ry="25"/><path fill="#ffdbc6" fill-opacity=".5" d="M89.4 120l3.9 15-22.5 23.4-20-7.7z"/><circle r="1" fill="#4c3d17" fill-opacity=".3" transform="matrix(-11.607 25.62123 -9.95446 -4.5096 31.4 46.3)"/><path fill="#d3cfcc" fill-opacity=".9" d="M-16 27.3L8.6 164.6l7.3-92.4-5-88.2z"/><path fill="#451600" fill-opacity=".4" d="M173 86l25 55-18 16z"/><circle r="1" fill="#fff6f6" fill-opacity=".5" transform="matrix(4.14291 .7529 -3.58722 19.73921 102.5 163)"/><path fill="#634122" fill-opacity=".9" d="M143.7 147l-26.6 8.2 14.1-.3 63.2 26.7z"/><path fill="#b29192" fill-opacity=".6" d="M76.8 102.4l16.6 7.7-3.5 2 .6-28.7z"/><path fill="#f3d678" fill-opacity=".5" d="M170 137l18 30-35-10z"/><path fill="#000a2b" fill-opacity=".5" d="M21 151l71 8 13 26z"/><path fill="#090300" fill-opacity=".6" d="M121.6 57.2l-6.1 3.3 135.7-25.9-127.7 1.5z"/><path fill="#8d786b" fill-opacity=".6" d="M12.8 108.6l15.7-23.2 20.7 14-15.7 23.2z"/><circle r="1" fill="#284144" fill-opacity=".5" transform="rotate(-146.1 46.1 20.1) scale(45.98986 13.9174)"/><path fill="#8dbde2" fill-opacity=".6" d="M36 153l12 31-17-20z"/><circle r="1" fill="#0c060b" fill-opacity=".4" transform="matrix(-9.34173 -18.23455 6.60468 -3.38364 182.3 82)"/><path fill="#c0c9bc" fill-opacity=".4" d="M109.1 65.5l19 1-1.2 24-19-1z"/><path fill="#a9e4ff" fill-opacity=".5" d="M229 122h6v13h-6z"/><circle r="1" fill="#a3a7ae" fill-opacity=".5" transform="matrix(.16424 2.47274 -58.50313 3.88577 246.8 30.3)"/><path fill="#ffe1b1" fill-opacity=".3" d="M197.9 148.8l73.1 28.8-36-23.4-71.9 4.1z"/><path fill="#a3b0c3" fill-opacity=".4" d="M175.9 137.4l-5.6 8.3-28.2-19 5.6-8.4z"/><path fill="#2d1c16" fill-opacity=".6" d="M57 81h15v46H57z"/><path fill="#eacdba" fill-opacity=".7" d="M78 162l-5-16-10 4z"/><path fill="#d4bab0" fill-opacity=".7" d="M253.4 118.3l-8.8-11.3 2 23.6 5.2 8.1z"/><path fill="#bfbeb3" fill-opacity=".6" d="M39.6 87.4l7.8-42.5-7.7 14.4-14.1-41z"/><ellipse cx="99" cy="10" fill="#774830" fill-opacity=".6" rx="43" ry="21"/><path fill="#0b0000" fill-opacity=".5" d="M202 89l34 35 3-24z"/><path fill-opacity=".5" d="M221 122l26 33-25-8z"/><path fill="#f5efff" fill-opacity=".3" d="M224 110.4l-5.1 21.7 6.7-1.4-35.5 5.8z"/><path fill="#4f3316" d="M259 74l12-41h-38z"/><path fill="#ffb862" fill-opacity=".3" d="M50.3 1.8L59.2 32l-3.5 7-28.3-28.4z"/><path fill="#41474b" d="M113.3 46.5l28.1 22.7 1.8-3.2-37.1-8.7z"/><path fill="#deafb5" fill-opacity=".4" d="M192 112.8l-27.3-12.2 3.2-7.4 27.4 12.2z"/><path fill="#2e1c20" fill-opacity=".5" d="M112.9 140.1l5.7 44.9 21.7-26.5-33 17.9z"/><path fill="#000e14" fill-opacity=".5" d="M126.4 89.1l-6.6 16.7 24.4-18.1-13.9-2.3z"/><circle r="1" fill="#bb958b" fill-opacity=".6" transform="rotate(-136 54.7 32.3) scale(4.76845 3.75842)"/><path fill="#3f3932" d="M99.5 88.4l-9.7-17 3.2 62.9 5.3-5.2z"/><path fill="#ddb4b0" fill-opacity=".5" d="M190 50h6v20h-6z"/><path fill="#4a351d" fill-opacity=".7" d="M183.4 135.2l17.8-34.3-10.3 49.8-20.1-2.3z"/><path fill="#3d2213" fill-opacity=".4" d="M58.5 163.4l-29.4-7.1L70 144 34.7 94.1z"/><path fill="#786e54" fill-opacity=".9" d="M131.1 56.8L158.7 81l4.2-4.4-8-15.1z"/><path fill="#ddb6a2" fill-opacity=".5" d="M113.7 18.9l-.2 1L52.3 1l.2-1z"/><path fill="#e9c3b9" fill-opacity=".5" d="M103.4 131.9l-40.2 3.4 26.3-20.5-4.5 52.7z"/><circle cy="153" r="12" fill="#c4c2bc" fill-opacity=".6"/><ellipse cx="17" cy="141" fill="#431100" fill-opacity=".5" rx="5" ry="36"/><ellipse cx="33" cy="98" fill="#bcb6ae" fill-opacity=".8" rx="3" ry="23"/><path fill="#64341d" fill-opacity=".6" d="M241-16L122.2 2.4l110.5.9L271 16.6z"/></g></svg>