<svg xmlns="http://www.w3.org/2000/svg" viewBox="0 0 300 199"><defs/><path fill="#3d552d" d="M0 0h300v199H0z"/><g transform="translate(.6 .6) scale(1.17188)"><circle r="1" fill="#f6ccef" fill-opacity=".5" transform="matrix(-134.09024 2.34055 -.54678 -31.32497 108.3 148.5)"/><circle r="1" fill="#d1e4ec" fill-opacity=".7" transform="matrix(54.64726 -79.51226 12.964 8.9099 226.1 3.4)"/><path fill="#fff" fill-opacity=".5" d="M156 17l-26 15 2 58z"/><ellipse cx="94" cy="31" fill="#000400" fill-opacity=".5" rx="40" ry="59"/><ellipse cx="35" cy="94" fill="#75786c" rx="18" ry="35"/><circle r="1" fill="#6b6960" fill-opacity=".7" transform="matrix(-4.38411 34.70383 -48.57216 -6.1361 154.3 100)"/><path fill-opacity=".5" d="M205 4l-60-20 14 73z"/><circle r="1" fill="#f2eaf9" fill-opacity=".6" transform="rotate(112.5 6.8 8.2) scale(4.51811 14.03136)"/><path fill="#e2ffff" fill-opacity=".6" d="M227.8 27.8l-31.9 25.8-15.7-19.4 31.9-25.8z"/><path fill="#fff" fill-opacity=".5" d="M139 21h12v31h-12z"/><path fill="#1d300b" fill-opacity=".7" d="M225.3 14l-10.7-9 14.1-17 10.7 9z"/><ellipse cx="233" cy="136" fill="#9d9c90" fill-opacity=".9" rx="31" ry="8"/><path fill="#1e2c13" fill-opacity=".8" d="M22.3 75.1l-38.3 17 14.2-64.4L87.3-16z"/><path fill="#b4d6e1" fill-opacity=".8" d="M245.3 55.6l6.2 1.5 19.5-25-23.7 12.7z"/><path fill="#fcf1f3" fill-opacity=".4" d="M63.3 57.5l-23.2 5.6 1.8-16.7 13.2-4.9z"/><path fill="#071000" fill-opacity=".5" d="M56.6 65.5l38.6 30.2-17.8 22.8-38.6-30.2z"/><path fill="#788b7b" d="M241.9 62.4l-45.3-8 25.9 18.8 24.8-21.7z"/><path fill="#05001c" fill-opacity=".4" d="M151 113h35v19h-35z"/><circle r="1" fill="#cab0ba" fill-opacity=".3" transform="matrix(-10.86895 -13.94434 30.0289 -23.4061 95.4 122.4)"/><circle r="1" fill="#30402a" fill-opacity=".7" transform="matrix(2.38253 1.48986 -7.64191 12.22068 180 51)"/><path fill="#091302" fill-opacity=".8" d="M194-16L75 2l37 39z"/><path fill="#000604" fill-opacity=".5" d="M257.5 19.3l-19 40.7-20-9.3 19-40.7z"/><path fill="#081a01" fill-opacity=".5" d="M237 61h19v66h-19z"/><path fill="#ced2c0" fill-opacity=".5" d="M173.9 52.6l7 16.9-61.6 19.9 50.4-20.7z"/><circle r="1" fill="#616355" transform="rotate(-118.6 36.6 46.5) scale(19.39951 14.8141)"/><path fill="#0e1907" fill-opacity=".9" d="M97.3 22.2l37.8 21.1 3.5 7.3-37.3 20.5z"/><path fill="#fefff1" fill-opacity=".2" d="M127.5 92.5l1-35.8L176.6 79l61-58.7z"/><path fill="#2c2a2b" fill-opacity=".7" d="M127.8 119.5l3.2 18.2-16.5-27.4 30.7 7.7z"/><path fill="#eeedf0" fill-opacity=".5" d="M152.6 19.6l-15.8 4-5.8 17.3 19.1 10z"/><circle r="1" fill="#3e4c33" fill-opacity=".9" transform="matrix(13.41335 .16388 -.13377 10.949 248.3 161.5)"/><path fill="#28391a" fill-opacity=".5" d="M247.7 68.7l-26.3 1.1-34.3-8.3 2.7 43z"/><path fill="#d3e8fd" fill-opacity=".5" d="M34 26.8l2 3.4-12 7-2-3.4z"/><path fill="#f4f5ff" fill-opacity=".4" d="M184 105l-11-2 2 22z"/><path fill="#000700" fill-opacity=".6" d="M167 6l53-22-79 85z"/><path fill="#edf7c7" fill-opacity=".3" d="M79.5 87.3l-3-11.4 9-6.4 7.3 2.6z"/><path fill="#a19792" fill-opacity=".8" d="M57 134h161v36H57z"/><path fill="#beddeb" fill-opacity=".8" d="M193.1 26.9l-20.8 14.3 57-11.1-4.8-20.4z"/><path fill="#fff9e8" fill-opacity=".3" d="M31.6 66.9l3.1-12.2 12.4 21-18 19.5z"/><path fill="#18000a" fill-opacity=".6" d="M152 106h21v13h-21z"/><path fill="#959a9a" fill-opacity=".5" d="M54 78.5l-7.9 17.8-35 14.5 42.2 6.6z"/><path fill="#172b11" fill-opacity=".4" d="M225.2 8.6l22.3 40.6-43.6 18.3L271 8.3z"/><ellipse cx="140" cy="128" fill="#c4b9bf" fill-opacity=".5" rx="11" ry="9"/><path fill="#e2e2e0" fill-opacity=".6" d="M137 35l13.2-19 2.9 3.2-15.7 48.2z"/><path fill="#828e76" d="M199 19.6l9.5-8.2L237-16 206-4.6z"/><path fill="#010" fill-opacity=".4" d="M142 52h30v13h-30z"/><path fill="#e9f4f3" fill-opacity=".5" d="M199 59l7-51-28 56z"/><path fill="#eff2ec" fill-opacity=".6" d="M29.4 7.9L25 13.3 8.6.1 13-5.3z"/><path fill="#47522c" fill-opacity=".6" d="M37.1 118.5l.4 6.2-53.5 11.9 39.7-23z"/><path fill="#dee9e5" fill-opacity=".6" d="M171 39h4v10h-4z"/><path fill="#45563e" fill-opacity=".9" d="M-9.5.1L5.8.3l20.3 39.6-6.5-32.2z"/><path fill="#83946a" fill-opacity=".5" d="M178.5 94.4l35.4-45.2-34 18.4-10.6 13.2z"/><path fill="#060f00" fill-opacity=".6" d="M66 71l-18 31 20 1z"/><path fill="#fff" fill-opacity=".5" d="M223 61h5v7h-5z"/><path fill="#a1ac94" fill-opacity=".5" d="M147 64h9v31h-9z"/><path fill="#213421" fill-opacity=".7" d="M271-16l-52 80.3-4.1-22.7 13.6-12.8z"/><ellipse cx="142" cy="88" fill="#1b5600" fill-opacity=".1" rx="33" ry="18"/><path fill="#212e15" fill-opacity=".5" d="M217.4 77.4l-20.2 55.4 20.9-13-30.2-39.6z"/><path fill="#0a1805" fill-opacity=".6" d="M157.2 72.2L174 39.4l19.4-15.3-41.7-20.6z"/><circle cx="134" cy="58" r="5" fill="#fffffe" fill-opacity=".7"/><path fill="#031500" fill-opacity=".5" d="M177 40h11l-9 19z"/><path fill="#b1cfd1" fill-opacity=".3" d="M211 26.7L134.4-16 168.5-.4l48.3 39.3z"/><path fill="#c6b4ab" fill-opacity=".4" d="M135.1 111.8l-33.5-18.7 14.5-5.9 8.1 27.3z"/><path fill="#0a1507" fill-opacity=".7" d="M149.3 24.7l-.3-1.9 8.3 22.6 57-52.9z"/><path fill="#9b9695" fill-opacity=".7" d="M69.4 135.3l13.2-28.2 12.6 4.2-105.5 29.2z"/><path fill="#22340f" fill-opacity=".5" d="M108.4 21.9L18.3-16 58 45.1l-20.4 56.6z"/></g></svg>