<svg xmlns="http://www.w3.org/2000/svg" viewBox="0 0 300 199"><defs/><path fill="#503530" d="M0 0h300v199H0z"/><g transform="translate(.6 .6) scale(1.17188)"><circle r="1" fill="#9c9b96" fill-opacity=".7" transform="matrix(-80.45117 69.19892 -166.28509 -193.32425 156.7 48.7)"/><ellipse cx="157" cy="107" fill="#040a23" fill-opacity=".7" rx="15" ry="58"/><ellipse cx="214" cy="135" fill="#000514" fill-opacity=".8" rx="13" ry="48"/><path fill="#fdfbff" fill-opacity=".6" d="M193 40h49v48h-49z"/><circle r="1" fill="#d6ccc9" fill-opacity=".6" transform="matrix(19.171 -1.44148 4.9535 65.87935 123.1 114.4)"/><circle r="1" fill="#02060d" fill-opacity=".8" transform="rotate(15.9 -379.6 361.4) scale(12.37288 27.44257)"/><path fill="#a8cbb1" fill-opacity=".4" d="M69.8 127.8l1.4 77-81 1.4-1.4-77z"/><ellipse cx="72" cy="74" fill="#dbe1f4" fill-opacity=".7" rx="14" ry="20"/><ellipse cx="169" cy="113" fill="#14121e" fill-opacity=".8" rx="24" ry="13"/><ellipse cx="10" cy="90" fill="#05180a" fill-opacity=".7" rx="23" ry="35"/><ellipse cx="57" cy="27" fill="#82705a" fill-opacity=".8" rx="131" ry="29"/><path fill="#aca697" fill-opacity=".7" d="M54 185l45-30 93 17z"/><circle r="1" fill="#c5b0a8" fill-opacity=".5" transform="matrix(-32.31518 47.0071 -16.82566 -11.56685 202.8 46.8)"/><path fill="#121933" fill-opacity=".6" d="M163.9 32.9l18.8 11.9-42 71.7-1.2-39.1z"/><circle r="1" fill="#b7c1bf" fill-opacity=".4" transform="matrix(-3.45937 -93.22084 11.65197 -.4324 239.5 122.8)"/><path fill="#000005" fill-opacity=".5" d="M200 88h25v31h-25z"/><circle r="1" fill="#0f1913" fill-opacity=".3" transform="matrix(-24.8644 14.7634 -7.98778 -13.45295 91.2 143)"/><path fill="#9fb5c8" fill-opacity=".6" d="M159.1 134.3l-1.5 26.8-3.8-13.4 2.4-30.5z"/><ellipse cx="186" cy="152" fill="#9a8a81" fill-opacity=".8" rx="20" ry="27"/><path fill="#dbbcb5" fill-opacity=".6" d="M93 59h46v26H93z"/><ellipse cx="157" cy="10" fill="#a29783" fill-opacity=".6" rx="44" ry="22"/><path fill="#cedfee" fill-opacity=".5" d="M69 72.3L62.9 66l.3 59.9 10.6-19z"/><path fill="#59665d" fill-opacity=".6" d="M-7.5 106.2l87.6 7.2-31.9-22.1-23.1 9z"/><path fill="#e3c6c1" fill-opacity=".5" d="M180 89h19v17h-19z"/><path fill="#10111f" fill-opacity=".5" d="M155.5 148.3L138.9 32l7.8 129.4-19.8-1.9z"/><path fill="#d3e4ea" fill-opacity=".4" d="M136.1 160.9l3.7-95.1-12.9-.6-11 89.4z"/><circle r="1" fill="#654a32" fill-opacity=".5" transform="matrix(4.68093 -48.50893 9.41153 .90818 102.6 15.3)"/><path fill="#0a0e18" fill-opacity=".6" d="M73 93h15v71H73z"/><path fill="#4b4f3f" fill-opacity=".5" d="M28 56h33v91H28z"/><path fill="#987662" fill-opacity=".6" d="M169 51l35-35 7 30z"/><path fill="#857e70" fill-opacity=".9" d="M87 168l-58 17-45-48z"/><path fill="#e0dee8" fill-opacity=".6" d="M228 47h10v60h-10z"/><ellipse cx="91" cy="83" fill="#150122" fill-opacity=".6" rx="3" ry="11"/><path fill="#a78076" fill-opacity=".5" d="M99.4 106.1l28.8-27.8-26.6-51.8 23.3 90z"/><path fill="#49382f" fill-opacity=".7" d="M138.3 39.5l3.6 27.1 11.6-43.5L123.7 37z"/><path fill="#969382" fill-opacity=".7" d="M243 56l-60-72h60z"/><path fill="#c5bfca" fill-opacity=".5" d="M142 79l5 4V63z"/><path fill-opacity=".5" d="M195 163h27v6h-27z"/><circle r="1" fill="#6f5f4f" fill-opacity=".7" transform="matrix(-1.14924 13.00584 -11.87004 -1.04888 102 146.5)"/><path fill="#554a29" fill-opacity=".5" d="M252 0h4v116h-4z"/><path fill="#e79a86" fill-opacity=".4" d="M153 95h9v12h-9z"/><path fill="#c4c6d2" fill-opacity=".9" d="M87.8 77.8l.9 13.3-27.6 4.5 12.7-47z"/><path fill="#e2e0e9" fill-opacity=".5" d="M238.6 56.8l-29.9 25-17.3-20.6 29.9-25z"/><path fill="#e6e3ff" fill-opacity=".4" d="M93.4 56.8l2.3 21-15.1-27.7 36.8 19.3z"/><circle cx="105" cy="115" r="9" fill="#edcfca" fill-opacity=".5"/><path fill="#19190f" fill-opacity=".5" d="M23 117l33 8-25-43z"/><path fill="#fdffff" fill-opacity=".5" d="M17 102h8v5h-8z"/><path fill="#ffd8ea" fill-opacity=".3" d="M159.4 35.6l-6.5-8-8.3 37.1 1.6 3.6z"/><path fill="#070914" fill-opacity=".5" d="M198 105l34-23-23 55z"/><path fill="#070700" fill-opacity=".3" d="M171 104l5.9 23.7 39.1-4.5 18.2 9.6z"/><path fill="#c9a192" fill-opacity=".5" d="M169 127h10v43h-10z"/><path fill="#f7eefe" fill-opacity=".3" d="M202.8 41.5l-22.4 32-7.1-22.9-1.4 15.5z"/><ellipse cx="156" cy="131" fill="#cde4fd" fill-opacity=".5" rx="2" ry="18"/><path fill="#fcf3fe" fill-opacity=".5" d="M69 93l7.8 17.3-1.8.8-7.8-17.4z"/><path fill="#0b0f1b" fill-opacity=".4" d="M198 82l13 103 18-72z"/><path fill="#001" fill-opacity=".5" d="M146 87h8v69h-8z"/><path fill="#b9b7ba" fill-opacity=".5" d="M185 94.1l-4.9 7.6-15.1-9.8 4.9-7.6z"/><circle r="1" fill="#0b0222" fill-opacity=".4" transform="matrix(2.05594 -.77809 5.99995 15.85361 88.4 70.2)"/><path fill="#141527" fill-opacity=".9" d="M156.6 121.7l12.1-48.5-29.1 15.9 40.1 11.4z"/><path fill="#a7b0b6" fill-opacity=".5" d="M229 118h27v20h-27z"/><path fill="#f7b6a5" fill-opacity=".6" d="M182 30h7v18h-7z"/><path fill="#131419" fill-opacity=".9" d="M87.5 158.5l-16.4-2.4-2.8-45.7 27.9 11.4z"/><path fill="#000012" fill-opacity=".4" d="M159 104h8v58h-8z"/><path fill="#8b7a70" fill-opacity=".5" d="M223 104h28v13h-28z"/><circle r="1" fill="#7d7c61" fill-opacity=".5" transform="matrix(-4.96491 1.6902 -4.87445 -14.3186 196.8 123.2)"/></g></svg>