<svg xmlns="http://www.w3.org/2000/svg" viewBox="0 0 300 199"><defs/><path fill="#352f55" d="M0 0h300v199H0z"/><g transform="translate(.6 .6) scale(1.17188)"><circle r="1" fill="#ffdcbc" fill-opacity=".7" transform="matrix(-8.26133 125.93617 -75.4955 -4.95245 172.2 33.6)"/><ellipse cx="78" cy="3" fill="#fffce9" fill-opacity=".3" rx="95" ry="36"/><circle r="1" fill="#c49089" transform="rotate(6.8 -839 2043.8) scale(16.65958 29.42065)"/><circle r="1" fill="#101226" fill-opacity=".8" transform="matrix(145.55622 81.27065 -24.49137 43.86419 45.6 154.7)"/><circle r="1" fill="#8c4c31" fill-opacity=".7" transform="matrix(70.72044 -24.54032 7.38257 21.27515 197 164.5)"/><circle r="1" fill="#a1887b" transform="matrix(10.53184 20.8495 -48.73521 24.61793 242.3 20.6)"/><circle r="1" fill="#fff" fill-opacity=".5" transform="rotate(-151.8 83.5 51.1) scale(25.78792 9.63645)"/><path fill="ivory" fill-opacity=".8" d="M-3 27l46-43L-9 2z"/><circle r="1" fill="#ac7967" transform="matrix(-17.38099 -19.2115 18.0768 -16.3544 85 7.3)"/><circle cx="38" cy="41" r="38" fill="#1e2f6d" fill-opacity=".6"/><circle r="1" fill="#8f3a17" fill-opacity=".3" transform="rotate(-177.6 82 24.4) scale(33.27147 24.47433)"/><path fill="#22254f" fill-opacity=".7" d="M117 179L102 51-16 61z"/><circle r="1" fill="#fff6d8" fill-opacity=".6" transform="matrix(-19.53701 -39.44565 9.95783 -4.932 116.8 67.2)"/><ellipse cx="207" cy="1" fill="#fffee9" fill-opacity=".7" rx="20" ry="12"/><circle r="1" fill="#fdffff" fill-opacity=".7" transform="matrix(-9.11254 -2.7212 7.65217 -25.625 146.7 9.5)"/><ellipse cx="158" cy="109" fill="#f4bec3" fill-opacity=".5" rx="23" ry="45"/><path fill="#ffd7dc" fill-opacity=".4" d="M243.5 84.8l-41.9-51.5-19.6 17 4.6 35.4z"/><ellipse cx="214" cy="147" fill="#9f6662" fill-opacity=".6" rx="18" ry="31"/><path fill="#070200" fill-opacity=".5" d="M262 24l-26 47 35 53z"/><path fill="#2d1a0c" fill-opacity=".8" d="M235 177.3l-2.6-32.1-7.4-8.5 45.9 30.1z"/><ellipse cx="119" cy="63" fill="#f2debd" fill-opacity=".6" rx="15" ry="50"/><path fill="#0c0a0d" fill-opacity=".5" d="M155.2 56l3.6 4.9-20 15-3.6-4.8z"/><path fill="#4d667b" d="M222.6 33.6l-13.1 17.8 20.9 6.5-12.5-20.1z"/><path fill="#4b1b00" fill-opacity=".3" d="M208.1 1.1l23.4 29.2L162.1 10 205 40.7z"/><circle r="1" fill="#f4ede0" fill-opacity=".9" transform="matrix(.20542 -6.86748 11.62187 .34763 101.3 35.9)"/><path fill="#f7e6e4" fill-opacity=".5" d="M199 138l-95-15 48 34z"/><circle r="1" fill="#f5ba9b" fill-opacity=".5" transform="rotate(112.2 35.4 23.8) scale(14.38534 25.71676)"/><path fill="#633500" fill-opacity=".3" d="M143.4 105.6l-27.7 7.6-.9 9 26.7.8z"/><circle cx="139" cy="38" r="5" fill-opacity=".5"/><path fill="#1e0d04" fill-opacity=".5" d="M103.8 13.9L84.5-16l25.8 23.8L115 6z"/><circle r="1" fill="#bd888e" fill-opacity=".6" transform="matrix(4.71452 -9.0565 29.27907 15.24172 174 126.8)"/><circle cx="73" cy="61" r="29" fill="#2b2d58" fill-opacity=".6"/><path fill="#785c49" fill-opacity=".5" d="M149.8 22.6l8.5 21.1 12-12.7-14.2-16.5z"/><path fill="#b9ad9f" fill-opacity=".5" d="M227 26l17 45 8-50z"/><ellipse cx="25" cy="155" fill="#070815" fill-opacity=".6" rx="27" ry="42"/><path fill="#622d22" fill-opacity=".8" d="M139 163l44-16-26 38z"/><circle r="1" fill="#37457e" fill-opacity=".7" transform="matrix(-5.96905 -28.5722 19.41 -4.05496 37 27.4)"/><circle cx="218" cy="17" r="5" fill="#290800" fill-opacity=".6"/><path fill="#000318" fill-opacity=".5" d="M146 55h15v7h-15z"/><ellipse cx="229" cy="8" fill="#57260f" fill-opacity=".5" rx="3" ry="19"/><path fill="#fff" fill-opacity=".5" d="M151 46l6 10-13-8z"/><path fill="#5b3109" fill-opacity=".5" d="M144.9 155.2l26 29.8-44.9-22.6-11.5-27.7z"/><path fill="#fcffff" fill-opacity=".6" d="M205-1l-71-15-1 24z"/><path fill="#6bceff" fill-opacity=".5" d="M202 51l-1-14 23 3z"/><circle r="1" fill="#e8b2b5" fill-opacity=".5" transform="matrix(7.54135 24.6855 -8.04179 2.45674 239.1 98.3)"/><path fill="#f1e4cf" fill-opacity=".4" d="M140.9 34.6l16.7 9.3L116.5-16l-16.3 74z"/><circle r="1" fill="#f9f6eb" fill-opacity=".8" transform="matrix(-1.89876 10.44822 -4.67721 -.85 201.8 12)"/><path fill="#161314" fill-opacity=".8" d="M271 50.1L257.7 131l-11.2-70.5-4.6-7.5z"/><circle r="1" fill="#fccac8" fill-opacity=".5" transform="matrix(-30.29055 26.33117 -5.90455 -6.7924 186.5 81.5)"/><path fill="#b25a37" fill-opacity=".5" d="M165 60h29v13h-29z"/><path fill="#362612" fill-opacity=".6" d="M136.4 68.7l-.1-15.3 7.7 16.1-8.7 4.7z"/><path fill="#d2aa99" fill-opacity=".5" d="M249 113l2 19-47 2z"/><path fill="#b1955d" fill-opacity=".5" d="M242.9 140.2l19.8 2.7-1.6 11-19.8-2.8z"/><path fill="#807666" fill-opacity=".4" d="M162.7 8.7l12.2-6.1 22.7 15.1-9 1.7z"/><path fill="#e6c9aa" fill-opacity=".7" d="M117.9 49.7l-3.5 64.9 43.1-43.4-21.7 2z"/><circle cx="74" cy="75" r="32" fill="#292954" fill-opacity=".6"/><path fill="#f9e6d6" fill-opacity=".4" d="M115 122.8l39.6.2-29.4 21.6-16.2-17.2z"/><path fill="#242348" fill-opacity=".6" d="M64 108h47v28H64z"/><path fill="#1e1212" fill-opacity=".8" d="M266.1 49.8l-16.5 86.7-.3 3 21.7-30.3z"/><path fill="#713d32" fill-opacity=".5" d="M229.8 127.2l6.2 14.7-25.8 11L204 138z"/><circle r="1" fill="#171409" fill-opacity=".7" transform="matrix(-2.95189 2.97257 -2.38351 -2.36693 142 38.7)"/><path fill="#c28c87" fill-opacity=".5" d="M226 147h7v23h-7z"/><path fill="#904d37" fill-opacity=".6" d="M70 21h36v7H70z"/><path fill="#e7d3cf" fill-opacity=".5" d="M150.9 160.4l31.6-13.4-39.5-25.7-30.6 8z"/><path fill="#5f2025" fill-opacity=".2" d="M243.6 102.4l-12 21.7-21.6-6.5-5.5 17.7z"/></g></svg>