<svg xmlns="http://www.w3.org/2000/svg" viewBox="0 0 298 450"><defs/><path fill="#545454" d="M0 0h298v450H0z"/><g transform="translate(.9 .9) scale(1.75781)"><circle r="1" fill="#eee" fill-opacity=".7" transform="matrix(152.85093 -8.71761 9.38004 164.46568 91.9 137.8)"/><circle r="1" fill-opacity=".5" transform="matrix(6.00151 2.34594 -7.33268 18.75886 80.2 80)"/><circle r="1" fill="#fbfbfb" fill-opacity=".6" transform="matrix(20.56752 8.81469 -46.75823 109.1021 137.4 130.5)"/><path fill-opacity=".7" d="M178.9 178.1l-9.3 3.8-10.5-26 9.3-3.8z"/><ellipse cx="63" cy="252" fill="#5f5f5f" fill-opacity=".4" rx="59" ry="21"/><ellipse cy="33" fill="#9e9e9e" fill-opacity=".5" rx="85" ry="46"/><path fill="#333" fill-opacity=".4" d="M69.3 77l25.3-27 16 15-25.2 27z"/><ellipse cx="96" cy="105" fill="#fff" fill-opacity=".6" rx="12" ry="17"/><path fill-opacity=".3" d="M115.8 95.1l-.8-12.9 20.5-11.9 10.7 8.1z"/><circle r="1" fill="#e6e6e6" fill-opacity=".6" transform="matrix(-50.36899 41.66885 -15.62895 -18.89216 161.8 28.8)"/><circle r="1" fill="#9b9b9b" fill-opacity=".5" transform="matrix(-18.58221 -2.11966 6.7809 -59.44542 156.3 234.9)"/><circle r="1" fill="#dedede" fill-opacity=".5" transform="rotate(94.7 -47.4 105) scale(59.28037 21.01695)"/><ellipse cx="74" cy="255" fill="#232323" fill-opacity=".2" rx="6" ry="88"/><path fill="#131313" fill-opacity=".4" d="M76.8 39.2l-2.1-13.5 19.7-.7-11.2 11.5z"/><circle r="1" fill="#fdfdfd" fill-opacity=".5" transform="matrix(9.5751 -59.98504 10.85823 1.73324 104 186.3)"/><path fill="#ddd" fill-opacity=".6" d="M90.1 86.9l4.6-23.2 8.3.3-3.4 20.5z"/><path fill="#7e7e7e" fill-opacity=".4" d="M70.1 200.6l26.2-71.9-29.7-38.5 15.8 41.9z"/><path fill="#050505" fill-opacity=".6" d="M108 72l-4-6-4 13z"/><circle r="1" fill="#b1b1b1" fill-opacity=".6" transform="matrix(-72.05803 16.9554 -4.06371 -17.2702 18 239.1)"/><path fill="#ededed" fill-opacity=".6" d="M80 180.4l-2 44.2 12.1-37.4 5.8-45.1z"/><path fill="#e2e2e2" fill-opacity=".6" d="M96 11L64 86l45-57z"/><path fill="#d1d1d1" fill-opacity=".7" d="M110 91l26 1-9 80z"/><path fill-opacity=".4" d="M167 146l1 21 11-40z"/><path fill="#313131" fill-opacity=".5" d="M90.4 57.6L111.8 70l-4.9-.3-15.4-23.6z"/><path fill="#d8d8d8" fill-opacity=".4" d="M10.6 62l87.8-82 13 14-87.8 81.8z"/><path fill="#fdfdfd" fill-opacity=".6" d="M136.1 243.5L116.5 271H111l26-48.4z"/><path fill="#212121" fill-opacity=".1" d="M95.7 240.5l22.7-39.7-7 70.2H.1z"/><circle r="1" fill="#b8b8b8" fill-opacity=".6" transform="rotate(124.4 25.3 129.7) scale(26.87817 14.88315)"/><path fill="#050505" fill-opacity=".6" d="M90.2 84.8l-3.6 3.3-8.1.5-1.8-16.3z"/><circle r="1" fill="#9e9e9e" fill-opacity=".5" transform="rotate(86.6 42.2 100) scale(22.69627 3.40294)"/><path fill="#e0e0e0" fill-opacity=".8" d="M38.9 200.2l47.8-64.1-6.3-13L28 189.6z"/><circle r="1" fill="#a8a8a8" fill-opacity=".2" transform="rotate(5 -932 40.9) scale(53.02125 150.22608)"/><path fill="#818181" fill-opacity=".6" d="M174 48l-5 20-3-17z"/><circle r="1" fill="#f5f5f5" fill-opacity=".3" transform="matrix(-10.28985 -.10776 1.24808 -119.17873 153.8 44)"/><path fill="#636363" fill-opacity=".5" d="M68.6 92.5l11.7-2.7 3.1 13.7-11.7 2.7z"/><circle r="1" fill="#f8f8f8" fill-opacity=".6" transform="matrix(9.55668 3.6897 -1.33561 3.45935 6.1 234.8)"/><path fill="#9c9c9c" fill-opacity=".5" d="M146 127l5 18-8 7z"/><path fill="#6f6f6f" fill-opacity=".5" d="M107 105h6v16h-6z"/><path fill="#e2e2e2" fill-opacity=".4" d="M81.3 37.4L137.4 149 84.8 59.6l-22.4 3.5z"/><path fill="#f8f8f8" fill-opacity=".6" d="M101 127h22v62h-22z"/><path fill="#eee" fill-opacity=".4" d="M75.8 86l-6-25-5.7 48.5-10.9-13.3z"/><circle r="1" fill="#cecece" fill-opacity=".8" transform="matrix(4.30237 -21.53124 10.7571 2.14948 169 116.5)"/><path fill="#fff" fill-opacity=".5" d="M84 97l30-4-24 34z"/><path fill="#333" fill-opacity=".4" d="M120 80l14-6-1 8z"/><path fill="#8b8b8b" fill-opacity=".4" d="M50 43l16.5 4L58 81l-16.5-4z"/><circle cx="60" cy="201" r="6" fill="#fff" fill-opacity=".5"/><circle r="1" fill="#d8d8d8" fill-opacity=".5" transform="matrix(-12.15423 2.7022 -7.07402 -31.8183 113.7 47)"/><circle r="1" fill="#919191" fill-opacity=".4" transform="rotate(121.3 .3 8.8) scale(70.61887 12.27751)"/><path fill="#969696" fill-opacity=".4" d="M185 230l-42-79 26 119z"/><path fill="#fcfcfc" fill-opacity=".4" d="M149 95h9v68h-9z"/><path fill="#151515" fill-opacity=".4" d="M74 28l9-4 13 6z"/><path fill="#1a1a1a" fill-opacity=".4" d="M72.9 77.8l22.9-25.7-4.5-2.6-14.4 35.3z"/><path fill="#c7c7c7" fill-opacity=".6" d="M21 53h21v72H21z"/><circle r="1" fill="#868686" fill-opacity=".5" transform="matrix(2.52468 .64883 -6.82087 26.54096 72.4 217.1)"/><ellipse cx="43" cy="225" fill="#bdbdbd" fill-opacity=".5" rx="15" ry="29"/><path fill="#dbdbdb" fill-opacity=".4" d="M88.6 254.9l-3.1-27.8 28.4-18.6L98 249z"/><path fill="#727272" d="M92.7 68.5l2.2 1.7-9.2 11.3-1.2-18z"/><path fill="#b4b4b4" fill-opacity=".4" d="M80.9 149.5l-30.3-3.4L70.1 88l4.5 57.7z"/><path fill="#959595" fill-opacity=".2" d="M133.2 216.3l-12.9-71.1 17.8-67.5-10.4 87.6z"/><path fill="#d4d4d4" fill-opacity=".7" d="M123.6 29.2l-22.5 62.3 53.1-43.3-9.2 47.5z"/><path fill="#fafafa" fill-opacity=".5" d="M48.6 134.7l.9 46.2-11.3-8.1 1.8-10.5z"/><path fill="#f6f6f6" fill-opacity=".5" d="M112.1 125.6l1.8-26 10 .8-1.8 26z"/><path fill="#dedede" fill-opacity=".6" d="M67.3 26L88 22l8.6-4.2L73.7 5.3z"/><path fill="#b5b5b5" fill-opacity=".4" d="M49 155l7 38 23-1z"/><circle r="1" fill="#f5f5f5" fill-opacity=".6" transform="matrix(5.64224 1.55389 -14.04627 51.00265 143.3 121.3)"/></g></svg>