<svg xmlns="http://www.w3.org/2000/svg" viewBox="0 0 300 199"><defs/><path fill="#5f3d30" d="M0 0h300v199H0z"/><g transform="translate(.6 .6) scale(1.17188)"><circle r="1" fill="#dee4dc" fill-opacity=".6" transform="matrix(74.1859 239.64411 -72.6368 22.48595 102.1 67.6)"/><circle r="1" fill="#8f715f" fill-opacity=".9" transform="rotate(-72.9 198.5 -79.5) scale(209.06695 73.15293)"/><circle r="1" fill="#e3e4e6" fill-opacity=".6" transform="rotate(5.1 -148.8 518.2) scale(110.61922 29.2051)"/><ellipse cx="145" cy="98" fill="#322815" fill-opacity=".6" rx="42" ry="9"/><ellipse cx="178" cy="24" fill="#271a1c" rx="9" ry="29"/><circle r="1" fill="#c6c5ce" fill-opacity=".5" transform="matrix(16.4222 4.43105 -9.14828 33.90502 204 1.5)"/><path fill="#55392b" fill-opacity=".6" d="M11 26l6 53 50 30z"/><circle r="1" fill="#fff" fill-opacity=".8" transform="matrix(-36.52906 -4.07873 2.3208 -20.785 78.4 5.6)"/><path fill="#36200c" fill-opacity=".5" d="M145 155h111v15H145z"/><path fill="#14180d" fill-opacity=".5" d="M78 57l-35-7 68-5z"/><path fill="#030300" fill-opacity=".8" d="M122 185H71l-4-28z"/><circle r="1" fill="#d6bb97" fill-opacity=".4" transform="matrix(-.08074 11.11144 -160.17772 -1.1639 221.5 130.4)"/><ellipse cx="79" cy="73" fill="#c2beb6" fill-opacity=".8" rx="52" ry="13"/><circle r="1" fill="#9b918c" fill-opacity=".5" transform="matrix(-17.14429 17.08484 -34.16633 -34.2852 15.7 27.8)"/><circle r="1" fill="#f3fbfe" fill-opacity=".6" transform="matrix(-4.81394 1.69526 -10.85226 -30.81666 51.5 130.6)"/><path fill="#b3ada6" fill-opacity=".6" d="M115 0h54v89h-54z"/><circle r="1" fill="#560c00" fill-opacity=".4" transform="matrix(-15.86089 19.44737 -7.37024 -6.01102 215.4 29.1)"/><path fill="#814c31" fill-opacity=".7" d="M95.4 146.9L75.5 131l-6.4 12.7 27 15.8z"/><circle r="1" fill="#1d5884" fill-opacity=".4" transform="matrix(-4.78494 13.02424 -23.23317 -8.53557 156.1 148.6)"/><circle r="1" fill="#d3c8ba" fill-opacity=".5" transform="matrix(-14.30138 10.54388 -28.09889 -38.1124 92.4 114.2)"/><path fill="#ab734f" fill-opacity=".4" d="M248-16l23 159-100 42z"/><circle r="1" fill="#0d100f" fill-opacity=".5" transform="matrix(-2.24252 .58925 -11.88212 -45.22026 59.1 126.5)"/><ellipse cx="161" cy="73" fill="#a2a49a" fill-opacity=".9" rx="39" ry="11"/><path fill="#fffffa" fill-opacity=".6" d="M150 19l6 26-35-15z"/><path fill="#040402" fill-opacity=".9" d="M271 144l-30 37-1-21z"/><circle r="1" fill="#393b34" fill-opacity=".5" transform="matrix(-7.52912 -49.78396 23.4601 -3.548 25 147.6)"/><circle r="1" fill="#251107" fill-opacity=".5" transform="matrix(-2.91653 3.58364 -18.72446 -15.2388 29.4 82)"/><path fill="#fbffff" fill-opacity=".5" d="M73 121l-15-18 9 45z"/><path fill="#f7fbfc" fill-opacity=".5" d="M-6.8 16.6l17.7 2.2L-4.7 2.4l42.4 42.5z"/><path fill="#ced2d3" fill-opacity=".8" d="M64.6 157.4L48 132l7 36.5L67.4 185z"/><path fill="#66402d" fill-opacity=".7" d="M263.5 107.9l-17.6-14.2-43.8 20.5 49.5-3.8z"/><path fill="#927264" fill-opacity=".6" d="M121.3 38.4l-8-1.2 5.4-33.6 8 1.2z"/><circle cx="42" cy="102" r="7" fill="#fff" fill-opacity=".6"/><path fill="#b7a6a7" fill-opacity=".4" d="M217 48l21-23 33 27z"/><path fill="#be9e7b" fill-opacity=".5" d="M139 108l98.3 31.7-51.1 16.5 16.8 21.6z"/><circle cx="252" cy="87" r="8" fill="#e7dbdc" fill-opacity=".5"/><path fill="#5e3624" fill-opacity=".4" d="M25.5 45.9L12.3 33.3 8.6 60l44.6-19.8z"/><path fill="#dbd5ce" fill-opacity=".6" d="M86 74l43-9-4-26z"/><circle r="1" fill="#2a2218" fill-opacity=".6" transform="rotate(139 42.2 103.5) scale(1.67179 21.84062)"/><path fill="#0c0007" fill-opacity=".2" d="M199.6 15l-85.8 15.1 41.4-19.9 25.3 47.5z"/><circle r="1" fill="#572931" fill-opacity=".3" transform="rotate(172.4 116.8 41.7) scale(35.85787 14.70185)"/><path fill="#929284" fill-opacity=".5" d="M115 100L95 78l60-23z"/><path fill="#c8c4c6" fill-opacity=".5" d="M205 28l-3-44h39z"/><path fill="#4b4736" fill-opacity=".4" d="M131.5 110.4l-20.3-7.9 103.1-28.1-67.9 35.7z"/><path fill="#585546" fill-opacity=".5" d="M84 44h23v14H84z"/><path fill="#8d8a7d" fill-opacity=".8" d="M206.1 93.1l-3.3-21.3-41.4 22.4 29.4-9.5z"/><circle r="1" fill="#2c150b" fill-opacity=".6" transform="matrix(12.33297 -4.95782 2.66227 6.62262 15.4 70)"/><path fill="#ebfaff" fill-opacity=".5" d="M81.6 165.4L68 150.7l4.4-4L86 161.2z"/><ellipse cx="145" cy="132" fill="#b6cfe3" fill-opacity=".3" rx="11" ry="18"/><ellipse cy="35" fill="#b0b3b9" fill-opacity=".5" rx="11" ry="19"/><circle r="1" fill="#704a2c" fill-opacity=".4" transform="matrix(4.03392 -4.13015 14.304 13.97072 53.6 96.4)"/><path fill="#8e5f3a" fill-opacity=".6" d="M233 166l-53-8 91-30z"/><path fill="#965945" fill-opacity=".6" d="M214 92l-54 14 27 18z"/><path fill="#bfb3a6" fill-opacity=".8" d="M24.6 53.8l5.4-6 61.6 81-56.8-58.7z"/><path fill="#d9dfde" fill-opacity=".6" d="M60.1 51.5l56.4-15.4-7.1-14L56 24.2z"/><path fill="#8d654f" d="M73.9 126.5l2.1 17.2 11 17.8 8.8-14.3z"/><path fill="#9f9094" fill-opacity=".6" d="M138 13l24 12 18-40z"/><path fill="#1d1a10" fill-opacity=".6" d="M183.5 156.4l-11.4 2.7-20.9 5.6 5.8 10.5z"/><path fill="#ccdce1" fill-opacity=".5" d="M134 79h23v10h-23z"/><path fill="#ffd8c9" fill-opacity=".2" d="M210.1 54.2l-24.7 2.4.9-10.7 39.5 34.5z"/><path fill="#451c15" fill-opacity=".6" d="M269 36l-32-52 34 20z"/><circle r="1" fill="#b8a592" fill-opacity=".7" transform="matrix(24.25662 10.04395 -7.27853 17.578 117.8 165.5)"/><path fill="#2c0e00" fill-opacity=".4" d="M216.3 72.2l-2 4.6-24.6-11 2-4.6z"/><path fill="#897b7b" fill-opacity=".4" d="M36.4 19.3l-6 13.8L-9.4-2.6 9.9.7z"/><ellipse cx="66" cy="38" fill="#1e1a1a" fill-opacity=".1" rx="24" ry="3"/></g></svg>