<svg xmlns="http://www.w3.org/2000/svg" viewBox="0 0 298 450"><defs/><path fill="#2c3549" d="M0 0h298v450H0z"/><g transform="translate(.9 .9) scale(1.75781)"><circle cx="70" cy="125" r="170" fill="#e4dfc4" fill-opacity=".5"/><circle r="1" fill="#111c00" fill-opacity=".7" transform="rotate(-107.4 97.1 -19) scale(27.46834 72.51719)"/><circle r="1" fill="#e2f0fa" fill-opacity=".6" transform="matrix(-138.0564 66.44206 -19.69851 -40.93049 72.7 13.8)"/><path fill="#000014" fill-opacity=".6" d="M59.2 263.7l-30-1.6 7.6-145.8 30 1.6z"/><circle r="1" fill="#fcf2ff" fill-opacity=".4" transform="matrix(-27.2809 -2.6296 5.05753 -52.46949 119.8 162.2)"/><path fill="#2a2e40" fill-opacity=".6" d="M90 132.2l-29 38.3-115-86.7 29-38.3z"/><path fill="#28190b" fill-opacity=".6" d="M127 225h38v24h-38z"/><path fill="#a19c93" d="M12.7 113.7l19.9 105.5L48.7 271-16 248.9z"/><circle r="1" fill="#faf6f0" fill-opacity=".6" transform="matrix(30.68693 12.46067 -6.85048 16.8707 43.4 57)"/><ellipse cx="77" cy="208" fill="#a5a094" fill-opacity=".8" rx="21" ry="41"/><path fill="#000018" fill-opacity=".5" d="M74 116L45 254l-19-75z"/><circle r="1" fill="#c29fb0" fill-opacity=".6" transform="rotate(-87.5 84.6 29.8) scale(24.0159 6.21845)"/><ellipse cx="64" cy="89" fill="#2f2512" fill-opacity=".4" rx="39" ry="11"/><path fill="ivory" fill-opacity=".4" d="M50 77L10 52v37z"/><path fill="#171d2c" fill-opacity=".9" d="M68.3 133.2l32.5 10.6-15.9 4.2-55.9-4.5z"/><path fill="#403617" fill-opacity=".4" d="M5.3 103.9l7.2-52.2 4.7-1.8-30.3-17.6z"/><circle r="1" fill="#b6c6d4" fill-opacity=".8" transform="matrix(-1.44949 11.84636 -146.18374 -17.88666 145.2 16)"/><path fill="#c0ab9d" fill-opacity=".5" d="M75 108h95v31H75z"/><path fill="#674b41" d="M139.9 111.3l-21.2-.4 7.2-30.6 15.7 25.4z"/><path fill="#5b6a3e" fill-opacity=".6" d="M94.5 48.7l74.9-20.9-73 45.7-55.1 48.3z"/><path fill="#e3c1b9" fill-opacity=".6" d="M12.3 151.1l24.8-3 2.6 20.8-24.8 3z"/><path fill="#243233" fill-opacity=".5" d="M77 49l4-23-12 2z"/><circle r="1" fill="#1b250e" fill-opacity=".9" transform="matrix(-6.93754 21.18273 -28.27523 -9.2604 157 70.7)"/><path fill="#111e39" fill-opacity=".7" d="M16.6 147.1l1.8-26 25 1.8-1.8 26z"/><path fill="#00040d" fill-opacity=".5" d="M38 228l74 43-67-5z"/><path fill="#c1c6d4" fill-opacity=".5" d="M97 145h51v73H97z"/><path fill="#b9b19b" fill-opacity=".5" d="M65 150h35v28H65z"/><path fill="#110300" fill-opacity=".4" d="M159 204h11v16h-11z"/><path fill="#dad7d4" fill-opacity=".4" d="M103.9 134.9l41.2-17.6-78-11.6 52.4-7.7z"/><path fill="#875955" fill-opacity=".4" d="M158.4 137.9l-25.6-9.1-27.9 5.1-4.9 6.7z"/><path fill="#a09a93" fill-opacity=".6" d="M127.2 202.4l15.2-46.6 30.4 9.8-15.2 46.6z"/><path fill="#5c503e" fill-opacity=".4" d="M111 239l23-17-92-9z"/><circle r="1" fill="#0e1829" fill-opacity=".9" transform="rotate(-7.8 1660 -269.9) scale(7.74983 17.83941)"/><path fill="#ecf4ff" fill-opacity=".5" d="M46 92h4v34h-4z"/><path fill="#253548" fill-opacity=".4" d="M48.3 92.9l-8.6-14.4-44.2 20.7 48.4 28.6z"/><circle r="1" fill="#122300" fill-opacity=".4" transform="matrix(-8.11096 -13.21063 27.93714 -17.15264 104.3 80.7)"/><path fill="#000617" fill-opacity=".5" d="M73 147l3-31-16-12z"/><path fill="#9f9e95" d="M-16 133.6v15.6l28.1-7.3 9.3-22z"/><path fill="#d2cbb8" fill-opacity=".4" d="M140 95h30v13h-30z"/><path fill="#b88fa6" fill-opacity=".5" d="M53 169l-12-16 8-2z"/><path fill="#68766c" fill-opacity=".9" d="M76 40l6.7 51-6.4-2.7-2.5-37.8z"/><path fill="#384f18" fill-opacity=".4" d="M123.8 34.6l12-7.5 16.4 26.3-12 7.5z"/><path fill="#77766d" fill-opacity=".9" d="M-8.4 237.6l47.7 4.8 4.3 8.2-47.9-8.3z"/><path fill="#d3cac2" fill-opacity=".4" d="M59.2 226.5l61.6 16.2-60.6-1-.4-16.6z"/><ellipse cx="147" cy="255" fill="#807b70" fill-opacity=".7" rx="62" ry="11"/><path fill="#fea09e" fill-opacity=".3" d="M57.9 113.9l19.2-11.4-30.7-20-.2 11.6z"/><path fill="#dddfde" fill-opacity=".3" d="M79.3 35.7L49.1 81.2l-35.5 11-5.9-75.4z"/><path fill="#edb5ab" fill-opacity=".5" d="M123 94l5 23 3-23z"/><path fill="#54452c" fill-opacity=".5" d="M151.6 190.7l36.2 7.7-1.4 6.9-36.2-7.7z"/><circle r="1" fill="#998878" fill-opacity=".6" transform="matrix(3.30133 .59995 -4.05946 22.33776 97.3 150.7)"/><path fill="#091525" fill-opacity=".6" d="M26.8 183.4l3.6 22.1 7.3-12.3 9.4-44.3z"/><circle r="1" fill="#cad1dd" fill-opacity=".6" transform="matrix(-18.63425 21.20573 -13.63674 -11.9831 120.5 161.4)"/><path fill="#463d3b" fill-opacity=".4" d="M88 103L75 82l-55-5z"/><path fill="#56553f" fill-opacity=".6" d="M-13 40l30 7-33 9z"/><path fill="#150c00" fill-opacity=".3" d="M137.3 111.9L140 72l-13.6 37.8-56-41.4z"/><path fill="#aba797" fill-opacity=".5" d="M65 146h4v104h-4z"/><path fill="#a7a59a" fill-opacity=".6" d="M76 105h24v33H76z"/><path fill="#b9b7aa" fill-opacity=".4" d="M41 248l-19-80-20 43z"/><path fill="#3a2218" fill-opacity=".3" d="M115.9 209.7l14 23.5-10.2 15.6 31.7-8.6z"/><path fill="#50632c" fill-opacity=".4" d="M138.1 52.6L71.3 89.2l7.8-12.8 28.8-37.3z"/><path fill="#cbc8ee" fill-opacity=".5" d="M55 108h4v16h-4z"/><path fill="#c2d0b7" fill-opacity=".5" d="M77 51h8v21h-8z"/><path fill="#aba9b5" fill-opacity=".7" d="M124.9 206.7l11.3-33.5 19.5 32-17.8 25.1z"/><path fill="#05102a" fill-opacity=".5" d="M21 150l14-40-20 24z"/><path fill="#c6d1d7" fill-opacity=".7" d="M96.3 53.6l17.9-22.1-5.9-2.4-39.8-17.4z"/></g></svg>