<svg xmlns="http://www.w3.org/2000/svg" viewBox="0 0 300 199"><defs/><path fill="#593c28" d="M0 0h300v199H0z"/><g transform="translate(.6 .6) scale(1.17188)"><circle r="1" fill="#b39884" fill-opacity=".6" transform="matrix(32.84188 -48.0785 51.49208 35.17366 129 48)"/><circle cy="121" r="88" fill="#000004" fill-opacity=".7"/><circle r="1" fill="#bc917e" fill-opacity=".5" transform="rotate(7.3 -743.4 2048.8) scale(39.78449 63.77465)"/><path fill="#cebda6" fill-opacity=".6" d="M236 55L82 24l33 39z"/><path fill="ivory" fill-opacity=".5" d="M110.8 100L80.7 86.6 87.2 72l30.1 13.4z"/><circle cx="50" cy="13" r="44" fill="#414756" fill-opacity=".7"/><path fill="#572a1b" fill-opacity=".7" d="M186.9 185L137.4 69.4 61 35.9l51.4 50.6z"/><circle r="1" fill="#563521" fill-opacity=".8" transform="rotate(-149.1 94.1 -12.9) scale(29.791 19.54496)"/><path fill="#d1c8b9" fill-opacity=".8" d="M132 23L96-8l22 46z"/><path fill="#3a1100" fill-opacity=".3" d="M135.7 52.4l-23.3.4L142 84.6l127.8 13.5z"/><circle r="1" fill="ivory" fill-opacity=".5" transform="matrix(-.17473 -8.01038 18.45938 -.40265 147 0)"/><path fill="#d9bfa9" fill-opacity=".4" d="M245 138l-4 34-41-50z"/><path fill="#3c1002" fill-opacity=".4" d="M155 111h92v16h-92z"/><circle cx="186" cy="169" r="41" fill="#330d07" fill-opacity=".4"/><circle r="1" fill="#242124" fill-opacity=".9" transform="matrix(-25.8154 -27.54965 12.70032 -11.90083 5 32.9)"/><circle r="1" fill="#fffff6" fill-opacity=".8" transform="rotate(-71.1 82.1 -22.5) scale(2.95009 5.47442)"/><path fill="#ffcca3" fill-opacity=".4" d="M192 106l-54-22 29 22z"/><path fill="#e3d5c5" fill-opacity=".3" d="M243.9 82.6l-37-20.8 13.7-12.2-128-10.4z"/><path fill="#e4d2a8" fill-opacity=".4" d="M105.6 38.3l18.9 39.3-23.8-21.4-24.6-33.8z"/><path fill="#52301c" fill-opacity=".5" d="M159 10l-29-3-3 41z"/><path fill="#7e6252" fill-opacity=".8" d="M229.2-6l29.2.4-16.2 46.5L271 56.3z"/><circle r="1" fill="#888f96" fill-opacity=".4" transform="rotate(-128.5 36.6 4.3) scale(24.30476 6.87244)"/><path fill="#b59984" fill-opacity=".6" d="M222.4 50.1l29.2 4.9-.2-24L271 96.7z"/><path fill="#dec0a5" fill-opacity=".5" d="M182.3 62.5l-4.8 7.4-7.2 12.7-10-8.7z"/><path fill="#220d00" fill-opacity=".5" d="M160 92l16-14 46 13z"/><ellipse cx="111" cy="120" fill="#6a3a28" fill-opacity=".6" rx="31" ry="20"/><path fill="#cebca9" fill-opacity=".8" d="M90.7 94.7L79.3 71.5l17.7-.2 24.3 27.9z"/><path fill="#b9b7ba" fill-opacity=".5" d="M159.8 22.8l3.4 8.3-25 10.1-3.4-8.3z"/><path fill="#664a38" fill-opacity=".7" d="M80.7 22.3l35.8 5.3-9.7-11.6L84.7-4.7z"/><path fill="#c67a5c" fill-opacity=".6" d="M192 107h35v7h-35z"/><path fill="#996c52" fill-opacity=".5" d="M185 0h19v18h-19z"/><path fill="#5c290f" fill-opacity=".5" d="M205 79h19v29h-19z"/><circle r="1" fill="#030000" fill-opacity=".5" transform="matrix(32.48509 7.32083 -13.96035 61.94695 4.7 122.3)"/><path fill="#422b24" fill-opacity=".5" d="M133.9 99.2l-58-73.7L47.3 135l13.5-90.2z"/><path fill="#462c18" fill-opacity=".4" d="M212.7 66.5l-31-7.6 49.1-3.6-.5 22.2z"/><path fill="#afc4ca" fill-opacity=".6" d="M139 42h9v25h-9z"/><path fill="#e69e3c" fill-opacity=".5" d="M106.4-1.8l8.3-8.6 20.9 20.2-8.3 8.6z"/><path fill="#fff" fill-opacity=".5" d="M102 94l19 7-6-7z"/><path fill="#98704b" fill-opacity=".5" d="M174 53l-40 4-2 19z"/><circle r="1" fill="#3d0300" fill-opacity=".2" transform="rotate(119.7 5.8 116.3) scale(29.87091 42.16065)"/><path fill="#ffffec" fill-opacity=".4" d="M232.8 93l-9.8 20.8-1.8-.8 9.8-20.8z"/><path fill="#441b0d" fill-opacity=".5" d="M202.8 42.1l5.5 6.3 46.8 7L226 17.8z"/><path fill="#420a01" fill-opacity=".4" d="M170 78l-53-1 11 14z"/><path fill="#110d0b" d="M73.5 71.8L67 51.6 50.8 62.2-16 59.6z"/><circle r="1" fill="#8c6651" fill-opacity=".5" transform="rotate(46.6 88.8 264) scale(3.03974 49.05993)"/><path fill="#281003" fill-opacity=".6" d="M189 42l-17 1 13-23z"/><path fill="#4e2505" fill-opacity=".6" d="M176 13l-48 4 73-27z"/><path fill="#6b241e" fill-opacity=".5" d="M271 103l-23.4-24.5-24.8 53.1 12.7-44.1z"/><path fill="#170000" fill-opacity=".5" d="M124 37l11 1-2-10z"/><path fill="#c8bfa9" fill-opacity=".5" d="M101.2 56.2l-23-26.7 53.9 15 15.8-12.8z"/><circle cx="211" cy="75" r="7" fill="#fffb7a" fill-opacity=".2"/><path fill="#4a2719" fill-opacity=".6" d="M157 104h23v66h-23z"/><path fill="#e8dbd1" fill-opacity=".5" d="M182.6 60.4l-1.4-5.8 30.2-7 1.4 5.8z"/><path fill="#e3dbc5" fill-opacity=".4" d="M124.9 28.1l11.8-3.8-17.6-12.6L104.6 47z"/><path fill="#070000" fill-opacity=".5" d="M161 112h41v4h-41z"/><path fill="#77787d" fill-opacity=".5" d="M74 47L41 28l13 23z"/><path fill="#e2e5dd" fill-opacity=".5" d="M88 74h15v13H88z"/><circle r="1" fill="#a8673f" fill-opacity=".5" transform="matrix(-4.29318 1.24513 -5.26896 -18.1672 137 61.5)"/><path fill="#9f7648" fill-opacity=".8" d="M104.3 51.4l39 8.3-31.1 9.4-.2-.2z"/><path fill="#c6c3c9" fill-opacity=".3" d="M238.1 73.5l7.9 18.9 14.7 7.3-20.1-3.2z"/><path fill="#ffe" fill-opacity=".4" d="M71 64.3l5.7-8.2 8.2 5.6-5.6 8.2z"/><circle r="1" fill="#464b5b" fill-opacity=".7" transform="matrix(3.5693 -29.9331 10.91575 1.30162 73.2 15)"/><path fill="#261f1a" fill-opacity=".6" d="M54.1 77.6l-11.6 51.2 36.7-52.3 10.6 8.1z"/><path fill="#ffb293" fill-opacity=".1" d="M116.6 69.3l35.5 27.2-14 18.4 39.3-21.4z"/><path fill="#dccfc7" fill-opacity=".5" d="M242 103l22 18-12-3z"/></g></svg>