<svg xmlns="http://www.w3.org/2000/svg" viewBox="0 0 299 449"><defs/><path fill="#55382a" d="M0 0h299v449H0z"/><g transform="translate(.9 .9) scale(1.7539)"><circle r="1" fill="#f9ece0" fill-opacity=".7" transform="matrix(-64.32822 -157.35908 102.79783 -42.02364 60.7 145.8)"/><circle r="1" fill="#a1775c" fill-opacity=".8" transform="matrix(-62.47806 -23.25414 28.21143 -75.79707 127.1 108.5)"/><path fill="#fbffff" fill-opacity=".7" d="M29.8 248.4L-48 234.7-3.8-16.4 74-2.7z"/><circle r="1" fill="#986953" fill-opacity=".6" transform="matrix(35.44513 .43307 -.7529 61.62253 121.2 6.7)"/><circle r="1" fill="#56321e" fill-opacity=".6" transform="rotate(37.1 -114.2 200.6) scale(28.45959 11.76442)"/><circle r="1" fill="#b29986" fill-opacity=".8" transform="matrix(79.53986 -2.08282 .5091 19.442 124.4 172)"/><path fill="#f8f6f1" fill-opacity=".4" d="M0 29h90v44H0z"/><circle cx="71" cy="117" r="33" fill="#8a5507" fill-opacity=".2"/><circle r="1" fill="#e8e4dc" fill-opacity=".5" transform="matrix(-46.30383 -10.18056 2.48444 -11.29986 72.1 204.8)"/><circle r="1" fill="#995e44" fill-opacity=".4" transform="matrix(3.51652 6.64154 -21.0572 11.14921 47.8 222.6)"/><ellipse cx="135" cy="156" fill="#ab8677" fill-opacity=".7" rx="18" ry="67"/><circle r="1" fill="#c8c6c0" fill-opacity=".5" transform="matrix(9.32633 3.24698 -17.70981 50.86804 95.7 182.6)"/><path fill="#ffded2" fill-opacity=".4" d="M101.2 95.4l-11.7 2.5-6.7-31.3 11.7-2.5z"/><ellipse cx="137" cy="255" fill="#90a1b4" fill-opacity=".4" rx="81" ry="31"/><path fill="#cfccc8" fill-opacity=".5" d="M20.3 14.3L96.4 10l26.7-26L-16-3.6z"/><circle r="1" fill="#ac7d4d" fill-opacity=".6" transform="matrix(-4.924 -7.06732 29.37166 -20.46409 75.1 165.5)"/><path fill="#6a4834" fill-opacity=".9" d="M76.3 75.2l4.9-1.6 17.9 42.6-32.3-29.4z"/><circle r="1" fill="#c9cdd6" fill-opacity=".6" transform="rotate(73.3 -169.3 130.3) scale(11.62153 124.46201)"/><path fill="#684132" fill-opacity=".5" d="M145-2L73 24l96 21z"/><path fill="#f4f3f1" fill-opacity=".6" d="M37.2 128.5L6 2.9-7.3 271l63.6-115.2z"/><path fill="#b38d73" d="M117.6 70.2l5.9 27L186 38.4 165.3 50z"/><ellipse cx="57" cy="128" fill="#daaf7b" fill-opacity=".5" rx="8" ry="44"/><path fill="#664330" fill-opacity=".8" d="M113.9 94.5l-21.4 7.2-4.6 23.8 30.1-13.9z"/><path fill="#b3b5b2" fill-opacity=".7" d="M164 127h7v129h-7z"/><ellipse cx="89" cy="29" fill="#c29c87" fill-opacity=".8" rx="4" ry="38"/><path fill="#847673" fill-opacity=".5" d="M63 275l5.1-41.6 13 1.5-5.2 41.7z"/><path fill="#e5d4c4" fill-opacity=".3" d="M82 183l-98 88 40-93z"/><circle r="1" fill="#f5f6f4" fill-opacity=".6" transform="matrix(15.45263 9.54374 -33.211 53.77318 33.3 91.8)"/><path fill="#ba9177" fill-opacity=".6" d="M91.8 46.7l37.7 3-24.7-22.9L73 52z"/><path fill="#eddab7" fill-opacity=".3" d="M127.2 75.9L77.8 68l1-6 49.4 7.8z"/><path fill="#642913" fill-opacity=".2" d="M57.7 224.6l-43.5 1.9 19.7 9 31.4-28.6z"/><path fill="#7d5436" fill-opacity=".5" d="M79 157.4l-17.8-33.6 9.7-5.2 17.9 33.6z"/><circle r="1" fill="#a05d48" fill-opacity=".4" transform="matrix(24.15359 -.26651 .05883 5.33166 114 77.9)"/><path fill="#ddc5a6" fill-opacity=".5" d="M65 103l-10 48-26-24z"/><path fill="#cfa289" fill-opacity=".6" d="M131 118.4L115.1 93l11.9-7.4 15.9 25.4z"/><circle r="1" fill="#4c2b1c" fill-opacity=".4" transform="matrix(11.38343 2.09667 -5.09446 27.65934 155.8 20)"/><path fill="#d7d6d9" fill-opacity=".7" d="M-16 257.5l13.4-18.4 75.3-4-16.2 8.5z"/><path fill="#b4875a" fill-opacity=".6" d="M82 166l-41 28 33-56z"/><path fill="#debd9c" fill-opacity=".4" d="M91.2 55.8l-13 18.9-18.6-40.2 54.8 27z"/><path fill="#b58d67" fill-opacity=".5" d="M56.5 87l25.6 19.2-6.6 8.8-25.6-19.2z"/><path fill="#a48174" fill-opacity=".4" d="M100.5 121.6l9.8-8.7 57.5 12.3-19.8 93.4z"/><path fill="#fcfbff" fill-opacity=".3" d="M57.1 203.7l62.1 20.4-69.1-31.8-61 38.3z"/><path fill="#c3c0ba" fill-opacity=".6" d="M98 188h26v53H98z"/><circle r="1" fill="#815b4a" fill-opacity=".7" transform="matrix(-17.7459 24.43841 -12.89302 -9.36224 117.1 2)"/><path fill="#a9aba5" fill-opacity=".5" d="M148.1 191.1L128.6 271l57.4-95.9-35.6-14z"/><path fill="#a77a51" fill-opacity=".5" d="M129.6 78.6l23.2 51.6 23.8-5.3-24.4-59.5z"/><path fill="#e7e7e1" fill-opacity=".4" d="M78 66L25-16 48 90z"/><path fill="#9d634b" fill-opacity=".5" d="M134.7 62l15.7-39.3-14.6.7L94.7 63z"/><path fill="#cdb08c" fill-opacity=".5" d="M83 118h5v25h-5z"/><ellipse cx="30" cy="9" fill="#dadee0" fill-opacity=".4" rx="45" ry="25"/><path fill="#cea97f" fill-opacity=".6" d="M59.3 162l4 3.6 9.9-12.1-28.4-36.1z"/><path fill="#2c2424" fill-opacity=".5" d="M73 25l14-1-4-5z"/><path fill="#c5b9a8" fill-opacity=".6" d="M96.4 156.4l-23.2 36.1 24.4 9.5 17.7-4.6z"/><path fill="#896458" fill-opacity=".6" d="M154 142l12 23-17-10z"/><circle r="1" fill="#c9d6e9" fill-opacity=".3" transform="matrix(-1.69567 -7.06295 25.09763 -6.0254 151.8 255)"/><path fill="#c4b6ac" fill-opacity=".6" d="M112.1 171l-1.6-5.7 15.4-4.4 1.6 5.8z"/><circle r="1" fill="#bfb8bc" fill-opacity=".7" transform="matrix(-11.275 2.78733 -2.2729 -9.19411 72.7 220.4)"/><ellipse cx="74" cy="111" fill="#d1bda1" fill-opacity=".6" rx="2" ry="9"/><path fill="#9f9a9b" fill-opacity=".6" d="M186 239.6l-44.3-10.5-26.7 38.4-34.3-13z"/><path fill="#9a5b44" fill-opacity=".4" d="M109.6 46.1L86 58.6l17.7 6.6-22.1-24z"/><path fill="#efe4d0" fill-opacity=".5" d="M-16 196.3l56.3-26.1 17-25.8L41 193z"/><path fill="#d7a38c" fill-opacity=".5" d="M120.6 93.4l-24.4 5.2-.8-4 24.4-5.2z"/><ellipse cx="101" cy="118" fill="#422b1a" fill-opacity=".3" rx="3" ry="21"/><path fill="#bcb9ae" fill-opacity=".7" d="M162.4 149.9l22.2 8.3h-24.8l-1-7.2z"/><circle r="1" fill="#e7e2db" fill-opacity=".7" transform="matrix(-5.70624 25.73918 -5.27088 -1.16853 34.1 128.2)"/></g></svg>