<svg xmlns="http://www.w3.org/2000/svg" viewBox="0 0 298 450"><defs/><path fill="#432e23" d="M0 0h298v450H0z"/><g transform="translate(.9 .9) scale(1.75781)"><circle r="1" fill="#dad0c5" fill-opacity=".8" transform="matrix(12.61659 168.28143 -160.5315 12.03555 103.2 127.1)"/><circle r="1" fill="#471b00" fill-opacity=".6" transform="rotate(135.1 61.5 65.6) scale(32.00911 36.11088)"/><circle r="1" fill="#f7ffff" fill-opacity=".7" transform="matrix(-157.11442 29.47194 -5.31538 -28.3362 76.3 18.3)"/><ellipse cx="37" cy="66" fill="#e9f4fb" fill-opacity=".6" rx="26" ry="101"/><path fill="#936f57" fill-opacity=".6" d="M65 68h74v89H65z"/><circle r="1" fill="#8f7365" fill-opacity=".6" transform="matrix(27.6647 -21.68274 13.4918 17.21398 64 179)"/><circle r="1" fill="#ecf0f3" fill-opacity=".7" transform="matrix(-49.28909 28.18091 -8.69962 -15.21583 158.1 248.8)"/><circle r="1" fill="#7e5e36" fill-opacity=".4" transform="matrix(28.94618 -10.94273 17.0923 45.21328 0 230)"/><circle r="1" fill="#6d422a" fill-opacity=".5" transform="matrix(-8.80564 -31.01366 11.96404 -3.39692 86.3 75.2)"/><circle r="1" fill="#e5eff4" fill-opacity=".6" transform="matrix(-6.26781 .20792 -1.19407 -35.99476 107 55.6)"/><path fill="#591500" fill-opacity=".3" d="M95.5 157.9l37.7-58.3 45.9 8.5-53.8 22.3z"/><circle r="1" fill="#ccd2d9" fill-opacity=".6" transform="matrix(15.4335 1.3774 -3.28441 36.80113 149.7 164.5)"/><circle r="1" fill="#9b5c41" fill-opacity=".6" transform="rotate(-83.7 172.3 -15.8) scale(58.07015 6.85228)"/><path fill="#d8ddd4" fill-opacity=".5" d="M107 117l-8 23-61-61z"/><circle cx="138" cy="43" r="15" fill="#1f0e00" fill-opacity=".4"/><ellipse cx="139" cy="214" fill="#8d7260" fill-opacity=".5" rx="20" ry="19"/><ellipse cx="2" cy="46" fill="#ceb395" fill-opacity=".9" rx="8" ry="48"/><path fill="#f0fef6" fill-opacity=".5" d="M107.8 114.2l1.2-26.4-1.4 4.3 17.5 22.7z"/><path fill="#915134" fill-opacity=".5" d="M102 201l-21-4-2-72z"/><path fill="#301b01" fill-opacity=".4" d="M62 118.1l45.7-32.2L93 80.3 60.4 113z"/><path fill="#eef7fc" fill-opacity=".6" d="M134 14l42 2 3 36z"/><path fill="#dce2e6" fill-opacity=".7" d="M109.1 66.3L86.5 46.6l16.4-18.9 22.6 19.7z"/><path fill="#bfc0b9" fill-opacity=".7" d="M128.3 128.5l-32.9 39.9 3.5 39.4 9.6-11.3z"/><ellipse cx="40" cy="7" fill="#eef1f4" fill-opacity=".5" rx="34" ry="77"/><path fill="#01333f" fill-opacity=".1" d="M116.7 214.8l33.1 11.1-108.3 19.2-17.9-14.5z"/><path fill="#78391e" fill-opacity=".3" d="M56 171.5l-25.4 32.9 29.3-5 6.8-93.8z"/><path fill="#afb4ab" fill-opacity=".5" d="M60 209l10-79 23 83z"/><path fill="#482a16" fill-opacity=".7" d="M157.8 69.7l26.7 41.1-8.3 5.5-26.7-41.1z"/><circle r="1" fill="#a37d6e" transform="rotate(-174.5 39.5 35) scale(11.80584 19.37476)"/><ellipse cx="36" cy="140" fill="#c1c7c5" fill-opacity=".5" rx="21" ry="42"/><path fill="#4b2e1b" fill-opacity=".7" d="M132.9 109l7.8 17.3-18.2.2-1.7-5.6z"/><circle r="1" fill="#b67f66" fill-opacity=".4" transform="matrix(24.55457 13.54584 -8.50966 15.42548 138.8 94.2)"/><path fill="#001107" fill-opacity=".2" d="M14 238L1 99l-17 95z"/><circle r="1" fill="#d0ad87" fill-opacity=".6" transform="matrix(5.47734 -.39143 8.2003 114.7488 12.6 129.5)"/><path fill="#d9d1c3" fill-opacity=".5" d="M102 115l-8 52-4-32z"/><path fill="#5d2610" fill-opacity=".5" d="M162 126h8v18h-8z"/><path fill="#765b55" fill-opacity=".3" d="M140.9 222.3L114.2 184l10.4-39.4 5.7 102.7z"/><path fill="#faf9f5" fill-opacity=".6" d="M53 156l4-18-36 23z"/><circle r="1" fill="#adb9c2" fill-opacity=".5" transform="rotate(-98.8 149 87.8) scale(13.47818 52.81246)"/><path fill="#f4ac83" fill-opacity=".6" d="M143.9 228.4l41.1-46.5-2.4-8.1 2.4 53.3z"/><path fill="#e2eeec" fill-opacity=".5" d="M129 102l-23 19 7-19z"/><path fill="#9e5831" fill-opacity=".4" d="M140.1 239.7l19.5-49.6 25.4-51.5-27.5 76.6z"/><circle r="1" fill="#d5d7d9" fill-opacity=".6" transform="rotate(-154.4 95.5 70) scale(11.39817 17.29299)"/><path fill="#923a13" fill-opacity=".3" d="M72.5 133l16.8-2.7 4.2 26.7-16.8 2.7z"/><path fill="#e0e3e6" fill-opacity=".8" d="M79 12.5L58.9 76.6l14.9 26.3-62.6-50.6z"/><path fill="#100000" fill-opacity=".2" d="M65.2 85.2L79.5 100l12.2-29.2 8.6 28.5z"/><path fill="#bd9884" fill-opacity=".6" d="M139.6 95.6l46.1 13.2-3.3 11.6-46.1-13.2z"/><circle r="1" fill="#c3aa82" fill-opacity=".6" transform="matrix(-4.19061 1.80355 -7.94243 -18.4545 101 80.3)"/><circle cx="78" cy="51" r="4" fill="#050100" fill-opacity=".5"/><circle r="1" fill="#a79792" fill-opacity=".5" transform="matrix(16.31888 -26.87 7.22696 4.38913 132.9 146.3)"/><path fill="#c6a482" fill-opacity=".7" d="M127 215l-68.2 10.8L57 215l68.1-10.8z"/><path fill="#7f511f" fill-opacity=".5" d="M112 153l-11-9 10-24z"/><path fill="#aec0c6" fill-opacity=".3" d="M139.4 229l-15.7-45.3 10.2-35.5 21.6 58.1z"/><ellipse cx="36" cy="6" fill="#f5f7f7" fill-opacity=".7" rx="29" ry="25"/><path fill="#b7b5ab" fill-opacity=".6" d="M56 151l20-48 14 11z"/><path fill="#9d6f5d" fill-opacity=".8" d="M129 102.2l-11.7-48.1-5 18.1 1.2 29.2z"/><path fill="#826034" fill-opacity=".3" d="M86.3 87.8L54.1 130l11.7 7.1 3.5-29.7z"/><path fill="#cca47b" fill-opacity=".5" d="M32 249l-15 2.2-11-78.3 15-2z"/><path fill="#a4a5a4" fill-opacity=".5" d="M27 208l32-51-40 11z"/><path fill="#4e3426" fill-opacity=".5" d="M129 40l9 44-17-22z"/><path fill="#492b15" fill-opacity=".4" d="M185 116.2l-38.2-70.9 20 53.5-26.8-9.7z"/><path fill="#8191a0" fill-opacity=".5" d="M5.4 220.2l12.8 55.5-17.6 4-12.8-55.4z"/><path fill="#927358" fill-opacity=".8" d="M183.6 57l-19.8-16.7-6.6 11.4L185 93.3z"/><path fill="#601c02" fill-opacity=".3" d="M138.8 219.3l1.3 6.4-12.2-14.8 6.4 31.1z"/><path fill="#d7cfba" fill-opacity=".5" d="M25 208h52v7H25z"/></g></svg>