<svg xmlns="http://www.w3.org/2000/svg" viewBox="0 0 298 450"><defs/><path fill="#485835" d="M0 0h298v450H0z"/><g transform="translate(.9 .9) scale(1.75781)"><circle r="1" fill="#f9c5c4" fill-opacity=".6" transform="rotate(46.3 -96 153.9) scale(25.05916 32.14065)"/><ellipse cx="24" cy="169" fill="#00000d" fill-opacity=".8" rx="32" ry="255"/><circle r="1" fill="#010011" fill-opacity=".7" transform="rotate(-86.8 158.2 -9.1) scale(169 49.16179)"/><circle r="1" fill="#d1adb6" fill-opacity=".7" transform="matrix(16.06731 -1.94436 7.6992 63.62278 73.4 228)"/><circle r="1" fill="#0b0c15" fill-opacity=".9" transform="matrix(11.51767 29.84873 -129.94993 50.1435 70.4 27.3)"/><path fill="#160005" fill-opacity=".7" d="M91.7 52.9l29.4 20.9-4.6 23.5-31.4-3.6z"/><circle r="1" fill="#dbcfbb" fill-opacity=".4" transform="matrix(-14.86722 30.4716 -16.74844 -8.17163 71.4 129.3)"/><path fill="#825f54" fill-opacity=".7" d="M88.2 155.2L84 120.5l29.8-3.7 4.2 34.7z"/><circle r="1" fill="#604942" fill-opacity=".7" transform="matrix(33.8316 35.97849 -5.8684 5.51823 75.2 175)"/><path fill="#ff919d" fill-opacity=".4" d="M96.8 78.6l-17.4 7.7-10.2-22.9 17.4-7.7z"/><path fill="#0d0b18" fill-opacity=".7" d="M66 58.8l13.6 27.9L50 101.2 36.4 73.3z"/><path fill="#c47a7e" fill-opacity=".6" d="M107 45h20v19h-20z"/><path fill="#c1afaa" fill-opacity=".6" d="M91 206l-33-41v94z"/><ellipse cx="124" cy="231" fill-opacity=".6" rx="16" ry="126"/><circle r="1" fill="#815e6c" fill-opacity=".5" transform="rotate(-79.6 175.2 48.6) scale(46.39224 11.14251)"/><path fill="#4d332d" fill-opacity=".8" d="M100.8 147.5l28.5-.6-41.6 29.7-10.1-39.3z"/><circle r="1" fill="#d7b8ae" fill-opacity=".7" transform="matrix(13.48122 -7.09477 8.5109 16.17212 72.4 111.4)"/><ellipse cx="107" cy="120" fill="#d59986" fill-opacity=".6" rx="5" ry="27"/><circle r="1" fill="#25292e" fill-opacity=".5" transform="matrix(18.14818 -1.0554 4.87567 83.83957 157.7 224.3)"/><path fill="#4d5b40" fill-opacity=".5" d="M58 179l-23-33 15-17z"/><ellipse cx="100" cy="124" fill="#0f0100" fill-opacity=".6" rx="2" ry="17"/><path fill="#faf8ef" fill-opacity=".4" d="M67 156l4-25 11 22z"/><ellipse cx="27" cy="208" fill="#07090e" fill-opacity=".7" rx="30" ry="32"/><path fill="#b4a28b" d="M55.3 115.3l15.5 18.2-4.5 9.8-13.1 1.6z"/><circle r="1" fill="#452f3b" fill-opacity=".4" transform="rotate(-84.2 193.3 66.5) scale(30.16151 17.66547)"/><path fill="#0b0900" fill-opacity=".5" d="M77 170l-19-16-10 7z"/><path fill="#100c00" fill-opacity=".5" d="M76 177h6v17h-6z"/><path fill="#1c1d1d" fill-opacity=".8" d="M1 255l56 16v-54z"/><path fill="#cd917f" fill-opacity=".5" d="M77 56h7v47h-7z"/><path fill="#11141a" fill-opacity=".9" d="M131 50l47-42L32-2z"/><ellipse cx="63" cy="235" fill="#684f49" fill-opacity=".5" rx="3" ry="18"/><path fill="#0a080d" fill-opacity=".6" d="M81.5 45.2l60.7 106.4-42.5-99.5 43.9 7.3z"/><ellipse cx="36" cy="18" fill="#000203" fill-opacity=".7" rx="8" ry="124"/><ellipse cx="60" cy="189" fill="#e6d7cf" fill-opacity=".4" rx="4" ry="23"/><circle cx="39" cy="146" r="3" fill="#efeeaf" fill-opacity=".5"/><path fill="#715a4f" fill-opacity=".5" d="M99.1 89.8l-13 80.2 15-14.6-1.2-37.3z"/><path fill="#b4a5a1" fill-opacity=".5" d="M61 203l27-17-5 62z"/><path fill="#d5d2cc" fill-opacity=".5" d="M84.2 134.7l10.2-8.9-25.4-7.3 26.6-20.7z"/><path fill="#112500" fill-opacity=".4" d="M90 140.4l-29.3 12.8-8.8 4.1 47.9-16.6z"/><circle r="1" fill="#4a2d1f" fill-opacity=".6" transform="matrix(1.36284 -20.7157 1.37854 .0907 72 173)"/><path fill="#180d0b" fill-opacity=".5" d="M79 66h26v4H79z"/><path fill="#e9ada5" fill-opacity=".4" d="M112 41l8 6-18 10z"/><path fill="#1e2801" fill-opacity=".2" d="M73.8 119.6L50 143.2 73.2 131l-21.3 52.4z"/><path fill="#111315" fill-opacity=".6" d="M54.4 122.6L51.7 141l-7.5-1.1-60.2 21.5z"/><circle r="1" fill="#00030c" fill-opacity=".5" transform="matrix(10.04642 -31.01192 15.06546 4.8805 139 126.6)"/><path fill="#191820" fill-opacity=".5" d="M67.6 102.3l16-78.9-59 94.4 51-29.5z"/><path fill="#000206" fill-opacity=".5" d="M106.7 263.7l10.1-88.6-18.6-16 42.2-3.3z"/><path fill-opacity=".5" d="M101 129h3v16h-3z"/><path fill="#080604" fill-opacity=".7" d="M92.5 86.4l2.3-18.8 32.7 4-2.3 18.8z"/><path fill="#090c12" fill-opacity=".6" d="M57 156.5v75h-2v-75z"/><path fill="#69413a" fill-opacity=".7" d="M107.4 66.9l8.2 4.6 13.7-9-2.4-11.8z"/><path fill="#1a3611" fill-opacity=".4" d="M94.6 133.6l-9.2-3.9 9 21.2-19.8-3.1z"/><path fill-opacity=".4" d="M27 148h16v78H27z"/><path fill="#e3f5ab" fill-opacity=".5" d="M52.4 149.5l6.2 3.3-1 1.7-6.2-3.3z"/><path fill="#070206" fill-opacity=".5" d="M77.6 159.1l-14.1 11.1 10.7-14.4 15.4-2.6z"/><path fill="#d99f9f" fill-opacity=".2" d="M86.2 168.5l-8.8-10.7-4.7 14.3-14.8 19.1z"/><path fill="#d2baab" fill-opacity=".4" d="M91.2 87.4l-27.1 48.3 35.8-7.7-45-8.9z"/><path fill="#9a6555" fill-opacity=".5" d="M109 105h5v40h-5z"/><path fill="#727066" fill-opacity=".3" d="M80.3 122.1l23.2-16.4-25.3 34.8-4.1 15.7z"/><path fill="#525a4e" fill-opacity=".3" d="M53.7 150.8l-3.1-7.3 6.2 34.7-21.7-8.2z"/><path fill="#371c10" fill-opacity=".5" d="M90.3 94l-2.5-12.6 15.4-17.9-1.7 35.3z"/><path fill="#e5e3d1" fill-opacity=".5" d="M64 154h9v4h-9z"/><ellipse cx="117" cy="239" fill="#363f34" fill-opacity=".4" rx="4" ry="28"/><path fill="#e6d9d3" fill-opacity=".6" d="M63 102l-8 22 14-7z"/><circle r="1" fill="#1d242d" fill-opacity=".5" transform="matrix(-10.3225 -57.93077 9.9038 -1.76473 169 130)"/></g></svg>