<svg xmlns="http://www.w3.org/2000/svg" viewBox="0 0 300 199"><defs/><path fill="#593934" d="M0 0h300v199H0z"/><g transform="translate(.6 .6) scale(1.17188)"><ellipse cx="232" cy="133" fill="#0b0902" fill-opacity=".6" rx="28" ry="107"/><circle r="1" fill="#c5c8c8" fill-opacity=".5" transform="matrix(-20.23188 6.81306 -5.9304 -17.61077 53.5 114.8)"/><circle r="1" fill="#080500" fill-opacity=".7" transform="rotate(-171.5 3.7 50) scale(36.66991 118.8799)"/><path fill="#281001" fill-opacity=".7" d="M186.7 173.5l-65.8 24-39.6-109 65.8-24z"/><circle r="1" fill="#120a01" fill-opacity=".6" transform="matrix(4.66214 23.95396 -37.46965 7.29269 187 42.7)"/><ellipse cx="129" cy="38" fill="#f19b3e" fill-opacity=".6" rx="13" ry="22"/><ellipse cx="195" fill="#ab9d86" fill-opacity=".6" rx="50" ry="8"/><path fill="#060000" fill-opacity=".5" d="M61 167l210-39-13 57z"/><path fill="#ab754c" fill-opacity=".5" d="M49 126h62v22H49z"/><ellipse cx="100" cy="26" fill="#909182" fill-opacity=".5" rx="10" ry="27"/><path fill="#925650" fill-opacity=".5" d="M197 148l-45-45-1 49z"/><ellipse cx="218" cy="83" fill="#6a5747" fill-opacity=".4" rx="63" ry="24"/><path fill="#a1aaa5" fill-opacity=".5" d="M76.9 52.3l16.5 4.1L87 81.7l-16.5-4.1z"/><path fill="#312017" fill-opacity=".6" d="M18 0h45v99H18z"/><circle cx="129" cy="37" r="7" fill="#fffff2" fill-opacity=".5"/><circle r="1" fill="#0c0300" fill-opacity=".5" transform="matrix(61.97846 37.05712 -9.46344 15.82771 21.6 159)"/><path fill="#fffddb" fill-opacity=".3" d="M143.2 71.7l31.5-2.8.8 15.6-8.5-.6z"/><ellipse cx="201" cy="115" fill="#f9ffff" fill-opacity=".3" rx="5" ry="14"/><circle r="1" fill="#807c9c" fill-opacity=".5" transform="matrix(-7.06273 -7.27933 5.56896 -5.40325 235.9 104.8)"/><path fill="#160f06" fill-opacity=".5" d="M43 35h55v19H43z"/><ellipse cx="137" fill="#391000" fill-opacity=".4" rx="29" ry="30"/><circle r="1" fill="#211001" fill-opacity=".5" transform="matrix(-3.84928 -4.63648 89.17855 -74.03746 190.7 77)"/><path fill="#a29b99" fill-opacity=".5" d="M54 56h50v7H54z"/><ellipse cx="129" cy="87" fill="#793d06" fill-opacity=".4" rx="13" ry="41"/><path fill-opacity=".7" d="M153 164l-42 3-2-29 42-3z"/><path fill="#edfff6" fill-opacity=".2" d="M26.3 80.2L58.4 108l-1.9 21.3-22.8 3.4z"/><path fill="#fde0b5" fill-opacity=".6" d="M106.6 50.3l-3 1.6-7.7-10.6 14.1-2.8z"/><path fill="#a09fb1" fill-opacity=".4" d="M223.1 83.8L191.6 82l-1.1 22.6-9.2-4.2z"/><circle r="1" fill="#7d6d78" transform="matrix(11.34312 1.09222 -1.49897 15.5674 69.3 111.9)"/><ellipse cx="113" cy="54" fill="#120000" fill-opacity=".6" rx="4" ry="98"/><path fill-opacity=".7" d="M254.1-4l16.6 13-14.8 19-16.6-13z"/><circle r="1" fill="#617a7a" fill-opacity=".4" transform="matrix(-15.37311 -7.48592 6.9004 -14.17068 225.3 16)"/><path fill="#c2b29f" fill-opacity=".5" d="M150 3h54v6h-54z"/><ellipse cx="255" cy="96" fill="#040000" fill-opacity=".8" rx="3" ry="50"/><path fill="#1d110c" d="M57.9 99.4L82 82.3 36.5 89 18.4-10.8z"/><path fill="#050000" fill-opacity=".5" d="M230.7 121.9l5.3 13-41.7 3.4 30.5-51.9z"/><ellipse cx="146" cy="43" fill="#160000" fill-opacity=".5" rx="5" ry="116"/><path fill="#21140a" fill-opacity=".6" d="M163 11h42v48h-42z"/><path fill="#dceff2" fill-opacity=".5" d="M88.8 66.3L65.5 77.4l-1.4 6 18.7-10z"/><circle r="1" fill="#6e6a61" fill-opacity=".3" transform="matrix(28.87867 12.73701 -13.11314 29.73148 78.6 4.4)"/><path fill="#190c04" fill-opacity=".5" d="M87 124L76 88l53 13z"/><path fill="#3a2923" fill-opacity=".8" d="M29.8 9.4l33.4 63.9 35.6-10.7-48.6 2.5z"/><path fill="#afa09e" fill-opacity=".4" d="M198.6 86.6l-19 9-9.4-3.6 12.8 14.1z"/><path fill="#b6a17a" fill-opacity=".5" d="M150 26h14v7h-14z"/><path fill="#281011" fill-opacity=".5" d="M33 95h14v10H33z"/><path fill="#090603" fill-opacity=".8" d="M19 171l-34 12L12 53z"/><path fill="#070000" fill-opacity=".6" d="M156.8-2.8l26-1.4.4 7-26 1.4z"/><path fill="#ddb179" fill-opacity=".4" d="M245 62h3v33h-3z"/><path fill="#9f4b23" fill-opacity=".6" d="M116 11h25v19h-25z"/><path fill="#6f4f1b" fill-opacity=".5" d="M0 36h14v18H0z"/><circle r="1" fill="#0a1111" fill-opacity=".5" transform="matrix(-2.37058 -.4564 4.31384 -22.40598 194.1 110.8)"/><ellipse cx="209" cy="63" fill="#715140" fill-opacity=".7" rx="51" ry="2"/><path fill="#a6938f" fill-opacity=".7" d="M210 104.9l-12.7 20.9 1.1-16.2 5.5-10.4z"/><path fill="#4c2605" fill-opacity=".4" d="M23 185l-3-46 97 17z"/><path fill="#2e1d0e" fill-opacity=".6" d="M61.7 99.2l16.9-23.3 43.1-3.7-30.3-5z"/><circle r="1" fill="#dc7507" fill-opacity=".4" transform="matrix(5.65301 .18192 -.46384 14.41374 137.8 51.5)"/><path fill="#250f0f" fill-opacity=".5" d="M91 125l13-15-42 18z"/><path fill="#734846" fill-opacity=".5" d="M150 114h38v29h-38z"/><path fill="#ced2d2" fill-opacity=".6" d="M160 70h5v12h-5z"/><path fill="#855434" fill-opacity=".4" d="M38 130h72v25H38z"/><path fill="#2c0807" fill-opacity=".5" d="M183 118l-24-4 21-15z"/><path fill="#4a2418" fill-opacity=".4" d="M160.1 167.5l2.4-11 59.3-46.8-23.2 52.7z"/><path fill="#cbc6ad" fill-opacity=".3" d="M54.7 116.8l20.9-23.3 4.8-4.6-51.7 26.6z"/><path fill="#ffd3d9" fill-opacity=".5" d="M36.6 88.4l1.8.9-3 6.3-1.8-.9z"/><path fill="#f5b471" fill-opacity=".5" d="M191 70h6v6h-6z"/></g></svg>