<svg xmlns="http://www.w3.org/2000/svg" viewBox="0 0 300 199"><defs/><path fill="#444" d="M0 0h300v199H0z"/><g transform="translate(.6 .6) scale(1.17188)"><circle cx="68" cy="26" r="76" fill="#ededed" fill-opacity=".4"/><circle r="1" fill="#e7e7e7" fill-opacity=".5" transform="matrix(-18.63253 -.553 2.43832 -82.15542 217.8 52)"/><ellipse cx="134" cy="146" fill="#adadad" fill-opacity=".5" rx="71" ry="31"/><circle r="1" fill-opacity=".8" transform="rotate(30.3 -44.7 338) scale(31.29969 47.95508)"/><circle r="1" fill="#ededed" fill-opacity=".5" transform="matrix(14.55343 25.71538 -44.59307 25.23711 45 13)"/><circle r="1" fill="#4a4a4a" fill-opacity=".6" transform="rotate(-162.5 55.9 15) scale(20.31181 74.80283)"/><circle r="1" fill="#fff" fill-opacity=".4" transform="matrix(.1457 16.6954 -34.78318 .30355 221.3 104.8)"/><path fill="#fff" fill-opacity=".6" d="M34 119l-7 38-11-43z"/><path fill-opacity=".6" d="M31.2 52.1l-10.8-5.7-5.3 68.9 33 1.8z"/><circle r="1" fill="#dcdcdc" fill-opacity=".6" transform="matrix(-50.81799 -14.46528 1.4824 -5.20784 86.8 103.3)"/><path fill="#f1f1f1" fill-opacity=".7" d="M193.8 12.2L172.1-13l29.8 9.9 7.4 31.3z"/><path fill="#f6f6f6" fill-opacity=".8" d="M136.9 4.7l-8 56.1L158.7 18l-22.6 6.8z"/><path fill-opacity=".6" d="M189.8 33.6l14-11.4 16.4 20.2-14 11.4z"/><path fill="#0d0d0d" fill-opacity=".6" d="M206.7 144.8l1.2 11-70.6 7.4-1.2-11z"/><circle r="1" fill="#030303" fill-opacity=".5" transform="rotate(109.4 9.9 72.9) scale(6.49235 54.83701)"/><path fill="#343434" fill-opacity=".7" d="M227.3 89l16.9-1.1L271 9.1 215.5 73z"/><path fill-opacity=".6" d="M99.2 20.6l9.5 40.1-23.6-24.9-9.9-8.6z"/><path fill="#fff" fill-opacity=".5" d="M208 56h11v62h-11z"/><path fill="#040404" fill-opacity=".6" d="M151 124l11-134 24 130z"/><circle r="1" fill="#575757" transform="matrix(11.0739 39.53788 -17.93287 5.0227 218.6 159.5)"/><path fill="#535353" fill-opacity=".5" d="M60 15L28-16l43 87z"/><path fill="#fff" fill-opacity=".2" d="M70.5 25.8l-6.1 44.6-25.2 32.2 68.7-41.2z"/><path fill="#f6f6f6" fill-opacity=".6" d="M54 68L19 38l33-16z"/><path fill="#b8b8b8" fill-opacity=".5" d="M60 127h141v13H60z"/><path fill-opacity=".7" d="M48.3 151l-.4-3.9 47.8-4.2.4 4z"/><path fill="#fff" fill-opacity=".6" d="M172-8l-1 18-19-26z"/><ellipse cx="9" cy="35" fill="#9a9a9a" rx="6" ry="50"/><path fill="#a6a6a6" fill-opacity=".6" d="M236.5 6.7l14.4 30.8-25.4 11.8-14.4-30.8z"/><path fill="#232323" fill-opacity=".5" d="M56 36h11v39H56z"/><circle r="1" fill="#2b2b2b" fill-opacity=".5" transform="rotate(-158.2 64 13.3) scale(7.16207 35.94893)"/><ellipse cx="75" cy="159" fill="#999" fill-opacity=".7" rx="32" ry="6"/><path fill-opacity=".5" d="M150 75.8l-13.4 36.6-22.5-8.2 13.3-36.6z"/><path fill="#fff" fill-opacity=".5" d="M73.8 12.7L79 59 51.3-4.7l52.1 8.9z"/><path fill="#f5f5f5" fill-opacity=".5" d="M128.4 67.2l-2.8 4.1-11.6-4.6 49.8-59.8z"/><path fill-opacity=".4" d="M-16 146l71 4-42 35z"/><ellipse cx="197" cy="79" fill="#6d6d6d" fill-opacity=".6" rx="5" ry="41"/><path fill="#eee" fill-opacity=".6" d="M20 121l2 32 13-18z"/><path fill="#595959" d="M25.2 124.8l12.9 22.4 67.8-46.7-22.1 7.6z"/><path fill="#0d0d0d" fill-opacity=".8" d="M14.8 142.7l.1-32.8L42 91.6 24.2 71.3z"/><path fill="#dcdcdc" fill-opacity=".5" d="M100 80l10 16 10-17z"/><path fill="#fff" fill-opacity=".5" d="M98 108L54 84 43 98z"/><ellipse cx="229" cy="163" fill="#686868" fill-opacity=".8" rx="69" ry="12"/><path fill="#3c3c3c" fill-opacity=".7" d="M209.4 15.2l8.7 4.6-24.2 45.4 12.4-10.1z"/><circle r="1" fill="#131313" fill-opacity=".9" transform="rotate(-96.2 98.2 -61.6) scale(16.0788 17.47406)"/><path fill="#fff" fill-opacity=".7" d="M143 165h15v5h-15z"/><path fill="#fff" fill-opacity=".5" d="M16 119l26-3-7 6z"/><path fill="#0f0f0f" fill-opacity=".5" d="M265 134l-65-2 59 20z"/><path fill="#7f7f7f" fill-opacity=".6" d="M271 57.3l-42 49.5-5.4 20.6 33.9-10.8z"/><path fill="#e2e2e2" fill-opacity=".5" d="M9.2 119.8l3.6 25.8-4 .6-3.6-25.8z"/><circle r="1" fill="#fff" fill-opacity=".6" transform="rotate(-117.3 7.7 -2.1) scale(20.88321 4.09317)"/><path fill-opacity=".6" d="M0 57h5v26H0z"/><circle r="1" fill="#838383" fill-opacity=".8" transform="rotate(-152.7 75.5 47) scale(25.53169 12.86121)"/><path fill="#e7e7e7" fill-opacity=".8" d="M200.2 113.7l30.7-21.3-16-17.4-9.8 8.3z"/><path fill="#f3f3f3" fill-opacity=".3" d="M101.4 37.7l12-15.5 9.2-5.6-10.5 39.1z"/><path fill="#828282" fill-opacity=".6" d="M33 64l18-31-14 59z"/><path fill="#e7e7e7" fill-opacity=".8" d="M219.5 62.8l-17.8 56.8 10.2-64.5 14.7-17.4z"/><path fill="#0d0d0d" fill-opacity=".9" d="M148.6 116.9l10.2 3.6 31.3-18.6 7.3-46.9z"/><ellipse cx="126" cy="166" fill="#bdbdbd" fill-opacity=".7" rx="7" ry="21"/><path fill="#252525" fill-opacity=".5" d="M43.3 102.7l1.1 43.9 11.4 9 12.8-30.1z"/><path fill="#070707" fill-opacity=".5" d="M51 83l44-3 12 19z"/><path fill="#fbfbfb" fill-opacity=".4" d="M163.8 128.6l1.5-5.9 34.9 8.7-1.5 5.9z"/><circle r="1" fill="#010101" fill-opacity=".5" transform="matrix(-7.07134 -5.58307 11.53997 -14.61616 252.8 4.4)"/><path fill="#2e2e2e" fill-opacity=".4" d="M113 15L84 59l-8-34z"/><path fill="#a6a6a6" fill-opacity=".6" d="M144 4l-28 2 19 17z"/><path fill="#898989" d="M188.8 105.3L200.5 58l55.2-40.7-39 30.1z"/></g></svg>