<svg xmlns="http://www.w3.org/2000/svg" viewBox="0 0 298 450"><defs/><path fill="#51362d" d="M0 0h298v450H0z"/><g transform="translate(.9 .9) scale(1.75781)"><circle r="1" fill="#ede7e1" fill-opacity=".7" transform="matrix(-36.7823 -3.0522 2.05332 -24.74465 54.7 249.2)"/><path fill="#fbf6de" fill-opacity=".5" d="M61 93l48 43-125 34z"/><circle r="1" fill="#02070d" fill-opacity=".7" transform="matrix(-2.73037 126.60988 -30.17614 -.65075 141.6 159)"/><ellipse cx="3" cy="166" fill="#dfffe2" fill-opacity=".5" rx="37" ry="20"/><circle r="1" fill="#f2c9b5" fill-opacity=".6" transform="matrix(-9.4536 -.48778 1.31861 -25.55598 61 71.9)"/><path fill="#ecc0b3" fill-opacity=".5" d="M94.1 57.9l19.1-27.7 18.9 13.2L121 68.7z"/><circle r="1" fill-opacity=".5" transform="matrix(-25.66128 -45.54143 15.07103 -8.49209 102.7 86)"/><path fill="#ac8974" fill-opacity=".5" d="M10 206h75v32H10z"/><ellipse cx="15" cy="44" fill="#1c303e" fill-opacity=".7" rx="32" ry="98"/><path fill="#e2a590" fill-opacity=".5" d="M103.2 202.4L85.6 115l14.3 1.2 14.1 74.5z"/><circle r="1" fill="#2c2525" fill-opacity=".7" transform="matrix(10.9161 -7.02517 10.44556 16.2309 43.3 96.6)"/><ellipse cx="155" cy="38" fill="#2b3038" fill-opacity=".9" rx="27" ry="53"/><circle r="1" fill="#29343e" fill-opacity=".7" transform="matrix(-5.64948 -24.52344 64.83687 -14.9365 70.9 21.5)"/><path fill="#fffffb" fill-opacity=".6" d="M22 271l16-42 71 42z"/><path fill="#0d0a0b" d="M166.2 184.5l-65.1 31.1 3.1 13L115 271z"/><circle r="1" fill="#403929" fill-opacity=".5" transform="matrix(-3.96644 -9.38062 29.99181 -12.68155 65.8 151.3)"/><path fill="#ffe5dc" fill-opacity=".4" d="M32 114h48v22H32z"/><circle r="1" fill="#132000" fill-opacity=".5" transform="rotate(112.8 -50.6 86.5) scale(11.02015 4.75807)"/><path fill="#807565" fill-opacity=".5" d="M57 252l-1-42-37-45z"/><circle r="1" fill="#fcdfd2" fill-opacity=".7" transform="matrix(-4.32546 -5.78145 6.76158 -5.05875 114.8 42)"/><path fill="#f9fff9" fill-opacity=".3" d="M16.9 158.5l-11-21.3 21.4 14.3-19.9 75.3z"/><circle r="1" fill="#270f04" fill-opacity=".4" transform="rotate(56 -35.3 132.9) scale(24.53446 32.4516)"/><path fill="#fdeadd" fill-opacity=".3" d="M72 53.4L53.3 83.8l-8.9-23.6 22.3-12.4z"/><path fill="#857660" fill-opacity=".6" d="M28 211l-33-41 34 83z"/><circle r="1" fill="#664d45" fill-opacity=".6" transform="rotate(67.9 -141.3 199) scale(70.08021 7.58833)"/><circle r="1" fill="#0b2b38" fill-opacity=".5" transform="rotate(-8.6 1504.5 113) scale(12.44119 71.49248)"/><path fill="#333a45" fill-opacity=".9" d="M163.9 255l9.3 16 11.8-92.2-30.9 26.2z"/><path fill="#000500" fill-opacity=".6" d="M28 183l2 14-29 5z"/><path fill="#8c5545" fill-opacity=".8" d="M20.6 224l91.7-40.1 4.6 3.5L104 202z"/><path fill="#001800" fill-opacity=".4" d="M46 134l11 25-18 35z"/><path fill="#744838" fill-opacity=".6" d="M61.5 73.6L57 68l19.4-15.7L81 58z"/><path fill="#292c17" fill-opacity=".6" d="M45 157.3l16.1 1.6-44.4 12.8 8.2-5.9z"/><path fill="#41130e" fill-opacity=".6" d="M88 127.1l-1 28-5-.2 1-28z"/><circle r="1" fill="#39170b" fill-opacity=".5" transform="matrix(.02755 3.94688 -13.62754 .09514 124.3 53.7)"/><ellipse cx="132" cy="130" fill="#020000" fill-opacity=".4" rx="25" ry="53"/><path fill="#2e1d16" fill-opacity=".5" d="M97.9 167.2l-.5 25.1-64.9 16.8 60.2-55.7z"/><path fill="#320100" fill-opacity=".4" d="M38.7 131.2l12-31.5 6.9-12-1.8 20.6z"/><circle r="1" fill="#fbfff2" fill-opacity=".4" transform="matrix(10.56873 -4.9917 2.1112 4.46994 23.9 176)"/><circle r="1" fill="#843d23" fill-opacity=".4" transform="matrix(-7.32792 -44.96172 4.42031 -.72043 111.3 167.9)"/><path fill="#292e34" fill-opacity=".9" d="M0 70h31v68H0z"/><ellipse cx="35" cy="191" fill="#74d7ba" fill-opacity=".4" rx="6" ry="11"/><path fill="#f49d91" fill-opacity=".4" d="M9.7 217.4l-.8-19.7 22 17.5-11.9 8.4z"/><path fill="#3c0c03" fill-opacity=".3" d="M52.3 216.5l89.9-22.5-90 38.5-10-14.7z"/><path fill="#d1c0c0" fill-opacity=".3" d="M75 153l14-45-37 44z"/><path fill="#e0c7c2" fill-opacity=".3" d="M87.4 233.5l-8.5-14.4-11.5 3.4-23.5 42.7z"/><path fill="#d2b2a2" fill-opacity=".5" d="M92.2 149.7l1.6-30 10 .6-1.6 30z"/><path fill="#a18489" fill-opacity=".2" d="M134.2 66.8l-35.8 2.8-12.5-29.9 9.8 6.8z"/><path fill="#f3f5e4" fill-opacity=".5" d="M34 115h6v37h-6z"/><circle r="1" fill="#eaf5e6" fill-opacity=".6" transform="matrix(-.26288 13.69074 -2.95786 -.0568 25.5 151.6)"/><path fill="#0e0500" fill-opacity=".6" d="M136.2 44.3l-14-11.3 7.6-9.3 14 11.3z"/><path fill="#fff" fill-opacity=".4" d="M40 222h7v34h-7z"/><path fill="#fdfffb" fill-opacity=".6" d="M-8 155l10 3 12-15z"/><path fill="#fff" fill-opacity=".5" d="M16 150h9v17h-9z"/><path fill="#384c45" fill-opacity=".5" d="M24 222h5v29h-5z"/><path fill="#e1ffea" fill-opacity=".5" d="M28.1 271h-5.7l-4.6-29.6.4-15.2z"/><path fill="#033905" fill-opacity=".3" d="M46.9 132.9l-1 6.7 17.3-2.4-10 9.6z"/><path fill="#074c00" fill-opacity=".5" d="M19 138h3v11h-3z"/><path fill="#13320e" fill-opacity=".4" d="M46.3 163.3l-3.3 2.4-15.3-21 3.3-2.4z"/><path fill="#d5e8cf" fill-opacity=".5" d="M24.8 158.5l19.8-7.5 2.6-5.1-4.4-5.7z"/><path fill="#4e5932" fill-opacity=".7" d="M15.3 174.9l.4-20.4-25.4 38.2-4-12.5z"/><path fill="#75503a" fill-opacity=".6" d="M76.7 196.4l-57.9 17.3 19.1 20.7-22.4-5.8z"/><path fill="#513831" fill-opacity=".4" d="M91 141l-25-1-5 65z"/><path fill="#2d3134" fill-opacity=".8" d="M55.3 89L31 120.5l-47 45.8L43.3 64.1z"/><path fill="#ffddc8" fill-opacity=".4" d="M46.7 118l-4.3 2.6-5.1-8.6 4.3-2.6z"/><circle r="1" fill="#0a0705" fill-opacity=".7" transform="matrix(-16.3327 10.92487 -9.38769 -14.03461 113.5 95.9)"/></g></svg>