<svg xmlns="http://www.w3.org/2000/svg" viewBox="0 0 300 199"><defs/><path fill="#2c2544" d="M0 0h300v199H0z"/><g transform="translate(.6 .6) scale(1.17188)"><ellipse cx="141" cy="19" fill="#d29579" fill-opacity=".6" rx="63" ry="75"/><path fill="#492500" fill-opacity=".6" d="M0 0h94v170H0z"/><circle r="1" fill="#301800" fill-opacity=".5" transform="rotate(99 76 142.9) scale(105.64872 43.47427)"/><path fill="#bd7529" fill-opacity=".5" d="M0 78h76v22H0z"/><circle r="1" fill="#000003" fill-opacity=".5" transform="matrix(-4.3858 44.72989 -69.4567 -6.81029 37 151)"/><circle cx="173" cy="48" r="14" fill="#c5e4ff" fill-opacity=".6"/><circle r="1" fill="#90535e" fill-opacity=".4" transform="matrix(-30.47394 32.6793 -52.8611 -49.29377 114.9 54.5)"/><circle r="1" fill="#c0d7f2" fill-opacity=".7" transform="matrix(-6.50115 -10.3619 11.77493 -7.38769 110.7 49.7)"/><path fill="#c68827" fill-opacity=".7" d="M236-16L71-6l133 36z"/><path fill="#e0861b" fill-opacity=".6" d="M15 61h14v32H15z"/><path fill="#e1a416" fill-opacity=".3" d="M180-2L55 1l31 34z"/><ellipse cx="141" cy="25" fill="#041323" fill-opacity=".6" rx="11" ry="9"/><path fill="#b26620" fill-opacity=".5" d="M241.4 116.2l1-16.7-39.2-15.1 7.5 18.5z"/><circle r="1" fill="#872c6f" fill-opacity=".6" transform="matrix(-.24006 -27.8032 29.14857 -.25167 143.4 75.6)"/><ellipse cx="239" cy="145" fill="#08090a" fill-opacity=".6" rx="60" ry="26"/><ellipse cx="131" cy="139" fill="#0099a6" fill-opacity=".7" rx="6" ry="14"/><path fill="#211421" fill-opacity=".7" d="M31 45h16v106H31z"/><path fill="#273031" fill-opacity=".5" d="M165 67h43v77h-43z"/><path fill="#00002e" fill-opacity=".5" d="M199-4.2l.7 1.8L119 30.2l-.7-1.8z"/><circle r="1" fill="#4c3835" fill-opacity=".6" transform="matrix(20.93303 -34.56454 10.56184 6.39648 97.7 99.9)"/><path fill="#c97f24" fill-opacity=".9" d="M61.8 86.7l5.8 16.8-19.4-2.9-.4-7.6z"/><circle r="1" fill="#210d00" fill-opacity=".6" transform="rotate(-63.2 26.4 -3.3) scale(124.85634 17.58658)"/><path fill="#3a303d" fill-opacity=".9" d="M47.5-16l131.2 48.8 50.5 18.7L47-10.1z"/><circle r="1" fill="#594648" fill-opacity=".5" transform="rotate(5.3 -133.7 2165.4) scale(7.96318 63.76461)"/><path fill="#ffdd5d" fill-opacity=".7" d="M7 88l-23 12 22-1z"/><path fill="#6e2e1d" fill-opacity=".5" d="M72 91h107v21H72z"/><circle r="1" fill="#1e1107" fill-opacity=".5" transform="rotate(97.5 7 115.3) scale(30.49211 7.62096)"/><path fill="#fc4ac8" fill-opacity=".6" d="M120 76l5 13 7-30z"/><path fill="#04536c" fill-opacity=".8" d="M171.1 137.2l7.2 4.4 12.4-14.8-24.2-5.7z"/><ellipse cx="156" cy="52" fill="#1ec1ff" fill-opacity=".1" rx="79" ry="20"/><circle cx="18" cy="82" r="5" fill="#f3ffa9" fill-opacity=".5"/><path fill="#f4ef7b" fill-opacity=".5" d="M164 12h17v9h-17z"/><path fill="#001b0a" fill-opacity=".4" d="M220.5 160.7l-72.7-14-11.4 23.8.5-53.4z"/><path fill="#fbe970" fill-opacity=".5" d="M104.6 29.2l17.3-13.8-11.6-2.6-6.8-2.7z"/><path fill="#d7a57e" fill-opacity=".6" d="M106 37h74v5h-74z"/><path fill="#2d08b2" fill-opacity=".2" d="M156.5 153.8l35.7 5.8 78.8 24.5-223-15.6z"/><circle r="1" fill="#006588" fill-opacity=".6" transform="matrix(3.56933 2.17019 -5.7889 9.52106 107.2 132.2)"/><ellipse cx="79" cy="71" fill="#493131" fill-opacity=".6" rx="16" ry="37"/><path fill="#411600" fill-opacity=".5" d="M9 88h14v63H9z"/><path fill="#ffbc3c" fill-opacity=".6" d="M233 106l1.3-9.7 3.5.2 3.5 7.3z"/><circle r="1" fill="#000506" fill-opacity=".4" transform="rotate(81.6 -65.4 103.4) scale(14.90922 63.73565)"/><path fill="#fdfeff" fill-opacity=".4" d="M180.9 56.4l-17 1.2-.8-12 17-1.2z"/><path fill="#b3345c" fill-opacity=".4" d="M129 62h29v43h-29z"/><path fill="#1d1c6b" fill-opacity=".2" d="M158.3 46.3l-8.9 19.6-34.5-23.2 28.3-2.4z"/><circle r="1" fill="#66321e" fill-opacity=".5" transform="matrix(4.70686 -.44708 5.92731 62.40344 242.5 5.8)"/><path fill="#20120d" fill-opacity=".6" d="M156 106h71v17h-71z"/><ellipse cx="98" cy="89" fill="#95505b" fill-opacity=".6" rx="4" ry="27"/><path fill="#ffb346" fill-opacity=".3" d="M94-12.9l92.1-3.1-41.2 35.9-6-2.1z"/><ellipse cx="56" cy="47" fill="#5a2e27" fill-opacity=".5" rx="20" ry="39"/><path fill="#772800" fill-opacity=".4" d="M33.3 77.5L-16 79.2l29-.1L23.2 2.8z"/><path fill="#000003" fill-opacity=".6" d="M255 73l-6-89 22 49z"/><path fill="#f1eee7" fill-opacity=".6" d="M103 43h11v14h-11z"/><path fill="#ea9500" fill-opacity=".6" d="M33.4 84.7l-10.3-12-3 17.8 11.3-1.3z"/><path fill="#406f7b" fill-opacity=".4" d="M200 142l12-11-21-4z"/><path fill="#1c1030" fill-opacity=".6" d="M211 37h31v42h-31z"/><circle cx="173" cy="102" r="5" fill="#c37a38" fill-opacity=".5"/><path fill="#1f7979" fill-opacity=".5" d="M146 109l9 10h-30z"/><path fill="#5a76a2" fill-opacity=".3" d="M89.8 39.7l-3.9 19.2 25 18.1L99 33.5z"/><ellipse cx="186" cy="26" fill="#c18d5a" fill-opacity=".4" rx="20" ry="8"/><ellipse cx="89" cy="136" fill="#001628" fill-opacity=".3" rx="5" ry="54"/><path fill="#3f3040" fill-opacity=".6" d="M220.7-16h15.7L111.5 35.4l1.9-3z"/><path fill="#deab84" fill-opacity=".5" d="M76.7 94.5l2 .6-3.4 10.4-2-.6z"/><circle r="1" fill="#757ac0" fill-opacity=".6" transform="matrix(2.91738 1.53816 -5.39848 10.23912 122.6 54.4)"/><path fill="#0e000a" fill-opacity=".2" d="M78 22l25-17-17-21z"/><path fill="#351e32" fill-opacity=".5" d="M168 71l2 28 60-20z"/></g></svg>