<svg xmlns="http://www.w3.org/2000/svg" viewBox="0 0 300 199"><defs/><path fill="#5c3a2e" d="M0 0h300v199H0z"/><g transform="translate(.6 .6) scale(1.17188)"><path fill="#bbb8b9" fill-opacity=".5" d="M93 74l123-37-5 94z"/><circle r="1" fill="#0a0e06" fill-opacity=".7" transform="matrix(17.9248 51.82839 -240.99414 83.3476 67 13.8)"/><ellipse cx="107" cy="113" fill="#aa7d73" fill-opacity=".8" rx="14" ry="45"/><circle r="1" fill="#94a6b8" fill-opacity=".6" transform="rotate(-106.4 154.7 -3.5) scale(43.81029 13.8727)"/><circle r="1" fill="#000a06" fill-opacity=".7" transform="rotate(-78 196 -92) scale(60.1481 15.67714)"/><path fill="#fef5f4" fill-opacity=".5" d="M34 77h16v41H34z"/><path fill="#01060a" fill-opacity=".8" d="M215.2 83.1l5.9 8.1-24.3 17.7-5.9-8.1z"/><path fill="#00030b" fill-opacity=".7" d="M151.6 110l25 2.2-4.2 47.8-25-2.2z"/><circle r="1" fill="#080300" fill-opacity=".5" transform="matrix(25.01825 -85.8216 15.5277 4.52655 10.5 117.4)"/><path fill="#fff9f0" fill-opacity=".6" d="M149.8 77.7l-5.6 45.6-8-1 5.6-45.6z"/><path fill-opacity=".6" d="M80.6 135.8L77.4 75l14-.7 3.2 60.9z"/><circle cx="230" r="38" fill="#24211e" fill-opacity=".9"/><path fill="#523625" fill-opacity=".6" d="M189 70l-83-21 79-38z"/><path fill="#958785" fill-opacity=".6" d="M235.4 66.6l-9.5 7.4-33.3-42.6 9.5-7.4z"/><path fill="#bd9a88" fill-opacity=".5" d="M109 58h72v35h-72z"/><path fill="#858287" fill-opacity=".7" d="M182.5 174.8l-8.7-33.8 67.6-71.8L163.5 185z"/><ellipse cx="128" cy="120" fill-opacity=".5" rx="8" ry="28"/><circle r="1" fill="#2e4a60" fill-opacity=".5" transform="matrix(-4.82045 59.91252 -10.92797 -.87924 225.3 106.5)"/><circle r="1" fill="#814d39" fill-opacity=".7" transform="matrix(62.5993 .68618 -.21629 19.73194 90.8 169)"/><circle r="1" fill="#f4fdfc" fill-opacity=".7" transform="matrix(5.18518 1.60508 -1.76918 5.7153 201.8 64)"/><path fill="#d1eaf7" fill-opacity=".3" d="M137.2 101.5l2.5-18 29.9-24.1-1.3 43.5z"/><path fill="#382419" fill-opacity=".6" d="M43 58h52v28H43z"/><path fill="#522105" fill-opacity=".3" d="M139.1 86.7l34.3-61 4.8 46.4L55.9 61.2z"/><path fill="#480f13" fill-opacity=".5" d="M51 142l8-60 45 67z"/><path fill="#080c13" fill-opacity=".4" d="M167 185l16-69-41-20z"/><path fill-opacity=".5" d="M69-16l-3 58 45 30z"/><path fill="#6c6c75" fill-opacity=".7" d="M222.3 94.6l2.4 35.4-38.8-26.7 16.7.5z"/><path fill="#7b869a" fill-opacity=".4" d="M153 85l79-26-68 57z"/><path fill="#ccb4ad" fill-opacity=".3" d="M51.9 136L30.7 91.6l30.4 2.8-7.7-21z"/><path fill="#c38f6f" fill-opacity=".3" d="M193.2 25.5l-1.1 8.2 16.1 13.4 62.8 22z"/><path fill="#252825" fill-opacity=".8" d="M99.8 36.5l30.9 5.6 98.5-19.9L245.4-16z"/><path fill="#000e01" fill-opacity=".4" d="M254 167l17-69-44-53z"/><path fill="#622c12" fill-opacity=".3" d="M167.5 48.2l20.5-16 18.5 23.6-20.5 16z"/><circle r="1" fill="#e0c7a8" fill-opacity=".6" transform="matrix(-.51108 3.2899 -17.68664 -2.74757 131.1 63)"/><path fill="#1a0903" fill-opacity=".7" d="M-12 126l10.5 22.4 36.8-25.9-2.4-12z"/><circle r="1" fill="#a58966" fill-opacity=".5" transform="matrix(-.48913 -27.84854 .99985 -.01756 94.6 11)"/><path fill-opacity=".5" d="M183 154v21l11-22z"/><ellipse cx="63" cy="77" fill="#7b442c" fill-opacity=".5" rx="3" ry="123"/><path fill="#fffff8" fill-opacity=".3" d="M177.4 34.3l26.2-6.5 1 3.9-26.2 6.5z"/><path fill="#000002" fill-opacity=".3" d="M221.4 81.9l-10.1 25-16.7-6.8 10.1-25z"/><path fill="#091218" fill-opacity=".4" d="M228.9 185l-16.6-87.4 6.9 63.5-4.6 6.5z"/><path fill="#d6c2b7" fill-opacity=".4" d="M170.1 63.1l-23.9 31.8 1.2 51.2-10-57.9z"/><path fill="#9999a1" fill-opacity=".4" d="M186 105h24v47h-24z"/><path fill="#0f0b08" fill-opacity=".5" d="M138.2 150.7l3.6-16.5-25.9-36.4 18.7-7.6z"/><path fill-opacity=".7" d="M45.4 70.2l1.2-35 14 .6-1.2 35z"/><path fill="#592f16" fill-opacity=".6" d="M3 185l8-58 39-11z"/><ellipse cx="2" cy="115" fill="#c8b69f" fill-opacity=".4" rx="17" ry="3"/><path fill="#c0afaf" fill-opacity=".6" d="M183 116l-27-17 31 2z"/><path fill-opacity=".6" d="M81 135.9L78 91l13-.9 3 44.9z"/><path fill="#a97d76" fill-opacity=".6" d="M93.6 76.7l24.7 8.1-4.3 40.8-16.4 11.1z"/><path fill="#e1b384" fill-opacity=".5" d="M241 58.7l12.6-3.2 1.4 5.8-12.6 3.2z"/><path fill="#6a412d" fill-opacity=".9" d="M136 128l-18 27 25 16z"/><path fill="#4a2413" fill-opacity=".5" d="M39.3 37.1l-82.7-14.6L-39.3-1l82.7 14.6z"/><path fill="#210901" fill-opacity=".5" d="M229 16.1l-.4 16.3-37.3 5.8 6.6-2.9z"/><path fill="#ccbaae" fill-opacity=".6" d="M164.5 59.8l-7 23.8 26.1-4.6-10.4-.9z"/><path fill-opacity=".6" d="M131 68h7v4h-7z"/><ellipse cx="178" cy="127" fill="#00020e" fill-opacity=".7" rx="4" ry="12"/><path fill="#d99673" fill-opacity=".4" d="M176 139h6v31h-6z"/><path fill="#cdb9a7" fill-opacity=".5" d="M123 66l-3 25 12-29z"/><path fill="#fee5a7" fill-opacity=".8" d="M255.3 44.9l-2.7-1.3 2.1-4.5 2.7 1.3z"/><path fill-opacity=".8" d="M30.6-15.7L58-3.5l-8.6 19.2L22 3.5z"/><path fill="#50321a" fill-opacity=".6" d="M13 136h93v13H13z"/><circle r="1" fill="#887163" fill-opacity=".5" transform="rotate(80.1 48.9 109.2) scale(1 55.33882)"/><path fill="#6c5044" fill-opacity=".6" d="M271 20l-30-3-11 10z"/><path fill="#091123" fill-opacity=".5" d="M146 103h16v19h-16z"/></g></svg>