<svg xmlns="http://www.w3.org/2000/svg" viewBox="0 0 300 199"><defs/><path fill="#444c4c" d="M0 0h300v199H0z"/><g transform="translate(.6 .6) scale(1.17188)"><ellipse cx="110" cy="129" fill="#050202" fill-opacity=".7" rx="255" ry="75"/><circle r="1" fill="#0a0808" fill-opacity=".8" transform="rotate(-35.2 125.4 -345.9) scale(35.32985 125.63005)"/><circle r="1" fill="#fffefe" fill-opacity=".5" transform="rotate(-96.1 121 -53) scale(35.90764 5.88448)"/><circle r="1" fill="#f2ecec" fill-opacity=".6" transform="rotate(140.5 21.8 25) scale(28.23732 9.80943)"/><circle r="1" fill="#f6f6f6" fill-opacity=".6" transform="matrix(-1.04393 5.8606 -20.30916 -3.61761 101.6 87.9)"/><circle r="1" fill-opacity=".8" transform="rotate(-128.4 11.4 -5.5) scale(30.78964 90.18454)"/><path fill="#e9e9e9" fill-opacity=".5" d="M116.8 126.1l-20.1-20.2-5.8 31.7 26.3-17.2z"/><circle r="1" fill-opacity=".8" transform="matrix(-37.3308 27.42977 -40.35915 -54.92715 36.6 109.7)"/><path fill="#e1d9d9" fill-opacity=".5" d="M76 54l46-2-37-16z"/><ellipse cx="132" fill="#0b0606" fill-opacity=".6" rx="65" ry="17"/><ellipse cx="173" cy="30" fill="#a69e9e" fill-opacity=".5" rx="30" ry="15"/><circle r="1" fill="#cfcdcd" fill-opacity=".6" transform="matrix(-13.74687 -14.89734 5.25263 -4.84699 41.3 42.7)"/><circle r="1" fill="#181818" transform="rotate(49.2 40.2 251.6) scale(17.2313 15.98164)"/><path fill="#3c3c3c" d="M91.7 106.8l72.6 2.6-32-16.2-43.7-.3z"/><path fill="#fffefe" fill-opacity=".4" d="M188 32.4l.9 56.5 16.5-3-29.9-29.7z"/><path fill="#e0e0e0" fill-opacity=".5" d="M92.3 48.9l-5.2-10.5-16.4 29.8-9.2-8.3z"/><circle r="1" fill="#080303" fill-opacity=".6" transform="rotate(-156.6 38.5 14.6) scale(10.86613 14.94642)"/><ellipse cx="100" cy="37" fill="#1d1a1a" fill-opacity=".6" rx="7" ry="15"/><path fill="#fff" fill-opacity=".4" d="M85 26V10L71 22z"/><path fill="#0b0909" fill-opacity=".6" d="M152.8 33.8l17.5-46.1-17.9 80.4 28.7-10.4z"/><path fill="#fff" fill-opacity=".5" d="M121 46l-19 13 7-16z"/><path fill="#fefefe" fill-opacity=".4" d="M92.6 95.9l11.5-9.9-3.1-11.2-18.6 11.9z"/><path fill="#bdbdbd" fill-opacity=".7" d="M37.4 28.2l25.2-9.8-8.4 45-19.6-25.5z"/><path fill="#bab7b7" fill-opacity=".5" d="M110-23l3.9-.6 6.2 50.7-4 .5z"/><path fill="#060000" fill-opacity=".3" d="M146 69.5l-22.5-35.7 61.1 3-2.8-41.2z"/><path fill="#fff" fill-opacity=".5" d="M168 31l-4 16 16-9z"/><path fill="#fff" fill-opacity=".6" d="M155 40l-4-13-9 1z"/><path fill="#d8d8d8" fill-opacity=".4" d="M148.3 99.6l-1.5 12.2 3.8 6.4 4-23.1z"/><circle r="1" fill="#131010" fill-opacity=".5" transform="matrix(-4.53779 -12.28765 3.59788 -1.32868 59.8 12)"/><path fill="#505050" fill-opacity=".5" d="M98.3 47.3l31.3 52-29.3-20.4-2 .8z"/><circle r="1" fill="#010101" fill-opacity=".5" transform="matrix(-152.65181 -16.04435 2.53343 -24.104 115.5 162)"/><circle r="1" fill="#fff" fill-opacity=".5" transform="matrix(-2.17997 1.26369 -4.3402 -7.48725 98.7 112.8)"/><path fill="#121111" fill-opacity=".5" d="M157 78l-37 96 17-163z"/><path fill="#2e2e2e" d="M89.6 42.5l35.8-14.6-2.2 29.9-6.4-16.9z"/><ellipse cx="153" cy="38" fill="#fff" fill-opacity=".4" rx="2" ry="17"/><path fill="#1b1b1b" fill-opacity=".7" d="M174 7h47v16h-47z"/><path fill="#a3a4a4" fill-opacity=".7" d="M187.9 46.7l-4.7-13.8-3.8-9.3 26.6 6.1z"/><path fill="#101010" fill-opacity=".6" d="M150 179l36-108-30-38z"/><path fill="#fafbfb" fill-opacity=".3" d="M186.5 57.6l14.7 34.3-22.1-37.3-6.4 13.4z"/><path fill="#181818" fill-opacity=".7" d="M188.7 40.8l12.1-44.7-2.1 22.9-6.3 18.4z"/><path fill="#040404" fill-opacity=".8" d="M120.5 137.3l-5.6-39-18.8 80.2-25.2 6.5z"/><path fill="#fbf5f5" fill-opacity=".3" d="M80.2 29.8L64.8 18.5l-.7-9.7L66.9.5z"/><path fill="#f9f9f9" fill-opacity=".3" d="M94.5 135.5l12.5-7-10.6-2.5-8.8 5.8z"/><path fill="#aaa" fill-opacity=".5" d="M173 12l4.2 11.3-12.1 4.6-4.3-11.2z"/><path fill="#070707" fill-opacity=".7" d="M80.6 77.9l17.3 44.8-28.8 28.6L27.8 46.6z"/><path fill="#fff" fill-opacity=".5" d="M84 36h8v7h-8z"/><path fill="#bab9b9" fill-opacity=".4" d="M59.3 14.8l5.3 17.6-19.5 17.3-25.2-4.8z"/><path fill="#6a6969" fill-opacity=".9" d="M101.5 29.7l35.7-3.8-9.6-5.8-35.7 11.5z"/><path fill="#fbeeee" fill-opacity=".3" d="M124.5 51.2l4.2-17.5.2 18.8 8.8-5.9z"/><ellipse cx="167" cy="30" fill="#1f2020" fill-opacity=".6" rx="14" ry="4"/><path fill="#050202" fill-opacity=".5" d="M89 21.1l-.9-15 25-1.2.8 15z"/><circle r="1" fill="#bcbcbc" fill-opacity=".5" transform="matrix(-5.71267 -1.98936 .75993 -2.18223 122.7 93)"/><path fill="#121212" fill-opacity=".7" d="M267.4 153.8L256-16 198 85l-34.1 91.7z"/><path fill="#3f3d3d" fill-opacity=".6" d="M73.3-19.3l19.5 29-14 9.6-19.6-29z"/><path fill="#fff" fill-opacity=".4" d="M187 39l-8 23 8 2z"/><circle r="1" fill="#070505" fill-opacity=".5" transform="matrix(-13.51738 -17.8971 29.7408 -22.46273 2.5 27.7)"/><path fill="#d6d7d7" fill-opacity=".5" d="M185 95l14-13-8-11z"/><path fill="#020101" fill-opacity=".6" d="M177.4 45.6l-60.6 40.3-1.7-27 65-.6z"/><path fill="#1c1c1c" fill-opacity=".6" d="M36.4 93.6l77.1-41.9 8.7 9.5-35.1-9.1z"/><path fill="#0f0e0e" fill-opacity=".6" d="M184-12L118 5l37 16z"/><path fill="#d5d5d5" fill-opacity=".4" d="M101 102h11v4h-11z"/><path fill="#f8f8f8" fill-opacity=".4" d="M96.7 46.9l-10.8 6 4.4-2 8.4 6.9z"/><path fill="#121212" fill-opacity=".3" d="M132.3 110l-6.7-9.4-29.7 2.7 6.6-18.1z"/><path fill="#ebe2e2" fill-opacity=".2" d="M134.2 10.9l9.4 20.7 12.9 10.2-6.1-19.6z"/><path fill="#ededed" fill-opacity=".5" d="M163 38h20v5h-20z"/></g></svg>