<svg xmlns="http://www.w3.org/2000/svg" viewBox="0 0 300 199"><defs/><path fill="#3f3157" d="M0 0h300v199H0z"/><g transform="translate(.6 .6) scale(1.17188)"><ellipse cx="160" cy="131" fill="#7f8380" fill-opacity=".7" rx="144" ry="41"/><circle cx="144" cy="67" r="75" fill="#54433b" fill-opacity=".8"/><circle r="1" fill="#1d1701" fill-opacity=".6" transform="rotate(-80 145.2 -118.3) scale(52.72027 41.37087)"/><circle r="1" fill="#f5ffff" fill-opacity=".4" transform="matrix(-2.44356 -15.08697 44.78285 -7.25324 243 111.6)"/><path fill="#cb9a85" fill-opacity=".5" d="M165 97l57 14-41-63z"/><path fill-opacity=".7" d="M130.2 57.2l-19.6-68.3 21.2-6L151.4 51z"/><ellipse cx="49" cy="127" fill="#a19fa4" fill-opacity=".7" rx="31" ry="18"/><circle r="1" fill="#b9b589" fill-opacity=".5" transform="matrix(-6.92582 -11.54562 23.68225 -14.20617 11.7 66.7)"/><ellipse cx="13" cy="14" fill="#000600" fill-opacity=".5" rx="12" ry="52"/><circle r="1" fill="#a4b8c1" fill-opacity=".5" transform="matrix(4.72106 6.52189 -70.97211 51.37524 84 169.1)"/><circle r="1" fill="#071215" fill-opacity=".8" transform="matrix(14.6092 14.35642 -20.0512 20.40426 2.1 111.2)"/><circle r="1" fill="#5175d6" fill-opacity=".5" transform="matrix(46.79544 -22.00085 10.63927 22.62955 185.2 164)"/><path fill="#bca364" fill-opacity=".4" d="M162 2h26v47h-26z"/><path fill="#000810" fill-opacity=".7" d="M258 147.5l-46.1-16.2 13-7 39.5 17.9z"/><path fill="#040c02" fill-opacity=".5" d="M121 165l12-33 44 6z"/><circle r="1" fill="#281d13" fill-opacity=".5" transform="matrix(-14.20949 20.83033 -25.24397 -17.22027 126 98.2)"/><circle r="1" fill="#9f86bd" fill-opacity=".5" transform="matrix(-5.82511 28.63134 -7.74329 -1.57539 33.2 33.8)"/><path fill="#d5c4aa" fill-opacity=".5" d="M45 118l14-17-2-26z"/><path fill="#95b1b2" fill-opacity=".5" d="M23 162l-7-20-32 43z"/><ellipse cx="44" cy="155" fill="#121621" fill-opacity=".6" rx="21" ry="9"/><circle r="1" fill="#d7d3b6" fill-opacity=".5" transform="rotate(84.3 67.4 90.1) scale(41.20056 1.53429)"/><path fill="#9ab4d8" fill-opacity=".3" d="M188 147L51 167l49 18z"/><ellipse cx="84" cy="36" fill="#4b3477" fill-opacity=".6" rx="39" ry="28"/><path fill-opacity=".6" d="M194 122l-13 8-1-37z"/><path fill="#ffcd83" fill-opacity=".3" d="M105.2 26.4l31.3 36.5 2.2 22-20.6-22.6z"/><path fill="#a59e7a" fill-opacity=".5" d="M168 134l26-61-29-9z"/><path fill="#f6bb57" fill-opacity=".7" d="M226-9L203 7l-10-23z"/><circle r="1" fill="#a6abbd" fill-opacity=".7" transform="matrix(7.90093 5.51177 -9.64465 13.82528 203.8 124)"/><path fill-opacity=".5" d="M48 83l-5-52-12 47z"/><path fill="#9ea3b1" fill-opacity=".5" d="M158 96l-2-35-12-6z"/><ellipse cx="255" cy="114" fill="#afbabb" fill-opacity=".6" rx="23" ry="21"/><ellipse cx="127" cy="94" fill="#070300" fill-opacity=".7" rx="7" ry="21"/><circle r="1" fill="#373d68" fill-opacity=".4" transform="matrix(18.23047 -11.69209 15.30116 23.85778 228.3 164.3)"/><path fill="#c1b69f" fill-opacity=".5" d="M172 111.7l2.5 6.6-38.6 14-2.4-6.6z"/><path fill="#000001" fill-opacity=".5" d="M167 50h13v17h-13z"/><circle r="1" fill="#f2ffe9" fill-opacity=".2" transform="matrix(11.15598 -.35306 .6785 21.4391 2.6 62.3)"/><circle r="1" fill="#a3b8dc" fill-opacity=".4" transform="matrix(.19578 26.28474 -4.09448 .0305 182.4 65.6)"/><path fill="#893f3b" fill-opacity=".5" d="M225 100.9L190.3 115l.6-63 35.7 52z"/><path fill="#63533d" fill-opacity=".7" d="M134.6 61.6l20.6 69.7 23.4-42.2-45.5 29.9z"/><circle r="1" fill="#95a0c3" fill-opacity=".6" transform="rotate(-26.8 410.7 -217.2) scale(68.18329 2.76635)"/><path fill="#21170a" fill-opacity=".5" d="M157 151l-47 15 42-29z"/><path fill="#d0d7d5" fill-opacity=".5" d="M56.4 162.7l5.4-4.5 13.8 17.1-5.4 4.5z"/><path fill="#271005" fill-opacity=".5" d="M54 73l9 24 32 3z"/><path fill="#c8d9df" fill-opacity=".5" d="M265.9 167.5l-5.7 4-16.1-23 5.7-4z"/><path fill="#aaa691" fill-opacity=".7" d="M86.2 86.3l14.4-4.4 1.2 3.8-14.4 4.4z"/><path fill="#101008" fill-opacity=".6" d="M154 0h6v37h-6z"/><path fill="#9c7779" fill-opacity=".5" d="M122 102l-4 9-12-21z"/><path fill="#8b807b" fill-opacity=".9" d="M21.2 120.6l39.9-25.2 3.3 22.2-36.1-6.5z"/><path fill="#202324" fill-opacity=".6" d="M53.3 100.7l-10.1 5.6-38.9-6.7 47.3-11.5z"/><path fill="#c5bdc0" fill-opacity=".4" d="M150 9h3v50h-3z"/><path fill="#44342a" d="M149.8 60.2l6.7 64.6-20.9-49-9.5 8z"/><path fill="#9d7f81" fill-opacity=".6" d="M39 81h6v17h-6z"/><path fill="#080b21" fill-opacity=".3" d="M1.2 133.5l3.5-5.9 25.4 10.5 21.2 22.6z"/><path fill="#858ca2" fill-opacity=".7" d="M78 148h34v22H78z"/><path fill="#87755b" fill-opacity=".5" d="M24 37L14 82l16 11z"/><ellipse cx="3" cy="6" fill="#0f0a08" fill-opacity=".6" rx="24" ry="23"/><path fill="#2a140b" fill-opacity=".4" d="M80.6 91.7l32.3 12.7-21.2-21.7 3.1 51.6z"/><ellipse cx="86" cy="33" fill="#2b1840" fill-opacity=".5" rx="8" ry="54"/><path fill="#120e0b" fill-opacity=".5" d="M159 80h7v30h-7z"/><path fill="#6f6572" d="M67.9 139.8l-25.7 13.4 51.1-9.2-5.2-36z"/><path fill="#9da797" fill-opacity=".5" d="M156 95h3v43h-3z"/><path fill="#d8cac0" fill-opacity=".5" d="M53 83l1 25 7-16z"/><ellipse cx="60" cy="30" fill="#281931" fill-opacity=".5" rx="5" ry="65"/><path fill="#4b498f" fill-opacity=".5" d="M141 52h20v14h-20z"/><path fill="#fffaa6" fill-opacity=".4" d="M130 60h7v7h-7z"/></g></svg>