<svg xmlns="http://www.w3.org/2000/svg" viewBox="0 0 300 199"><defs/><path fill="#3c444c" d="M0 0h300v199H0z"/><g transform="translate(.6 .6) scale(1.17188)"><circle r="1" fill="#ecc6a9" fill-opacity=".6" transform="matrix(69.60527 39.27277 -120.34196 213.2886 70.5 158)"/><ellipse cx="147" cy="18" fill="#fffff8" fill-opacity=".7" rx="64" ry="33"/><circle r="1" fill="#180000" fill-opacity=".7" transform="matrix(10.39831 51.56988 -20.08288 4.04942 61.3 26.7)"/><ellipse cx="231" cy="146" fill="#1b0700" fill-opacity=".8" rx="41" ry="160"/><ellipse cx="120" cy="141" fill="#896855" rx="69" ry="47"/><circle r="1" fill="#1e0400" fill-opacity=".7" transform="matrix(-48.62568 95.26855 -32.70766 -16.6942 0 41.7)"/><path fill="#fffffd" fill-opacity=".3" d="M177 18l-13 167 32-65z"/><ellipse cx="157" cy="67" fill="#692610" fill-opacity=".6" rx="17" ry="21"/><circle r="1" fill="#151f00" fill-opacity=".7" transform="matrix(20.07654 -.80176 .65228 16.33344 111.5 124.1)"/><circle r="1" fill="#dddecf" fill-opacity=".5" transform="rotate(-154.6 23.4 44.3) scale(11.40982 53.70126)"/><path fill="#f5fceb" fill-opacity=".5" d="M116 104l-104-2 79-24z"/><path fill="#472e20" fill-opacity=".6" d="M109.7 41.4l5.7 66.9 22.5-27.1-41.5 5.9z"/><ellipse cx="212" cy="62" fill="#482915" fill-opacity=".8" rx="21" ry="38"/><path fill="#ddc9ac" fill-opacity=".9" d="M124 0h16v78h-16z"/><circle r="1" fill="#fff" fill-opacity=".6" transform="matrix(1.95894 53.42326 -33.42096 1.2255 176.9 -.1)"/><path fill="#ebf1ff" fill-opacity=".6" d="M107 165l22-32-8 42z"/><path fill-opacity=".5" d="M52 20l23 28-22 33z"/><path fill-opacity=".6" d="M295.5 163.9l-71.8 30.5-33.2-78.3 71.8-30.5z"/><circle r="1" fill="#d6ccbe" fill-opacity=".7" transform="rotate(123 46.2 42) scale(29.76518 19.73451)"/><path fill="#edc3bb" fill-opacity=".4" d="M191 110l-31 18-42-67z"/><path fill="#e0d5d2" fill-opacity=".4" d="M91.5 127.6l1.7-63.3-18.8 90.5 27.7-8.5z"/><path fill="#010306" fill-opacity=".5" d="M100.1 60.5l29.5-1.7 2.3 1.3-25-11.4z"/><path fill="#785141" d="M77.7 31l11.8 49.8-46-6 42.8-13.3z"/><path fill="#d8d2c9" fill-opacity=".7" d="M78-16L93 88l29-104z"/><path fill="#fff" fill-opacity=".5" d="M189.6 34.3l1.8 51-15 .4-1.8-51z"/><circle r="1" fill="#bebeaf" fill-opacity=".4" transform="rotate(140.1 -15.3 76.2) scale(39.45025 24.64128)"/><path fill="#8f3d29" fill-opacity=".5" d="M56 103h24v67H56z"/><path fill="#6c3f24" fill-opacity=".5" d="M208 44l-25 19 36-67z"/><path fill="#5d3712" fill-opacity=".3" d="M121.4 88.4L95.8 76.3 148.7 179l47.4-.9z"/><path fill="#1f100b" d="M75.9 44l-48.8 9.1L6 110.3-16-16z"/><ellipse cx="131" fill="#ca790d" fill-opacity=".4" rx="5" ry="41"/><ellipse cx="175" cy="130" fill="#b1867c" fill-opacity=".5" rx="17" ry="36"/><path fill="#edfeff" fill-opacity=".4" d="M120 71l18 15 3-51z"/><path fill="#fdffff" fill-opacity=".4" d="M138.5 46.8l-2.5-61 80 19.7-4.6 14.7z"/><path fill-opacity=".6" d="M133 181l-5-29-10 30z"/><path fill="#3b2922" fill-opacity=".7" d="M35 0h46v27H35z"/><path fill="#fceedc" fill-opacity=".5" d="M190 109l-24-33 23-9z"/><path fill="#49231a" fill-opacity=".6" d="M62 162h44v8H62z"/><path fill="#c4beb1" fill-opacity=".5" d="M57.8 53.4l-15.4-4.6L28.7 61l-44.4 112.6z"/><ellipse cx="124" cy="89" fill="#001214" fill-opacity=".4" rx="9" ry="11"/><ellipse cx="241" cy="13" fill="#391b0a" fill-opacity=".7" rx="29" ry="50"/><path fill="#432917" fill-opacity=".5" d="M202.1 23.8l-15.4 65.6 35.1 13.1 16.8-43.4z"/><path fill="#a9966c" fill-opacity=".8" d="M160.4 104.4l-76.8-5.3 23.3 9.5 76.4-3.3z"/><circle r="1" fill="#cec8b9" fill-opacity=".7" transform="matrix(-3.1478 -10.27677 26.29099 -8.05297 39.3 97.2)"/><path fill="#ffebe3" fill-opacity=".4" d="M154.4 105l-20.6-32.5-18.2 15.2 3.2-27.4z"/><path fill="#763e2a" fill-opacity=".5" d="M144 46h23v41h-23z"/><path fill="#a49391" d="M113.1 137.4l5.6 9.4-3.4 21.7-7.4-24.5z"/><circle r="1" fill="#020409" fill-opacity=".6" transform="matrix(-.659 -19.7189 33.48048 -1.1189 213 169)"/><path fill="#222508" fill-opacity=".8" d="M90 125.3l2.8-4.2 44.6 1-34.9 22.2z"/><path fill="#0c0f0e" fill-opacity=".6" d="M122.1 56.3l-12.9-1.6.7-5 12.9 1.6z"/><path fill="#010000" fill-opacity=".4" d="M73 55L62 27 48 78z"/><path fill="#0f0000" fill-opacity=".5" d="M1 80h4v42H1z"/><path fill="#0e0f14" fill-opacity=".6" d="M192 87h23v77h-23z"/><ellipse cx="65" cy="79" fill="#b0755b" fill-opacity=".7" rx="19" ry="5"/><path fill="#c78370" fill-opacity=".5" d="M117 58l-3 25-24-4z"/><path fill="#dfdddb" fill-opacity=".6" d="M101.5 75.8l-12 26.2 2 10.7-23.4-19.3z"/><path fill="#dbd6ca" fill-opacity=".9" d="M99.1 46.2l3.7-7.2 51.5 4.9-23.4 9.7z"/><path fill="#e2d4be" fill-opacity=".3" d="M191.7 62.4l-39.2-25.1 25.7 31.8 8.3 88.2z"/><path fill="#9d644e" fill-opacity=".7" d="M86.5 106.1l-43.3 1 10.2 13.6 4.3 33.4z"/><path fill-opacity=".5" d="M103 86h15v4h-15z"/><path fill="#642920" fill-opacity=".5" d="M145.3 156.7l-16-1.6 3.4-31.8 16 1.6z"/><ellipse cx="92" cy="149" fill="#d0b8b9" fill-opacity=".3" rx="7" ry="21"/><circle r="1" fill="#9c7667" fill-opacity=".5" transform="matrix(-8.28238 -30.78982 11.58682 -3.11683 167.8 142.7)"/><path fill="#9f6c58" fill-opacity=".6" d="M136.9 74.6l17.4-33.7L140.5 51l9.3 37.2z"/><path fill="#c9c0b7" fill-opacity=".8" d="M-16 155l26 1-14-60z"/></g></svg>