<svg xmlns="http://www.w3.org/2000/svg" viewBox="0 0 300 199"><defs/><path fill="#5d4739" d="M0 0h300v199H0z"/><g transform="translate(.6 .6) scale(1.17188)"><circle r="1" fill="#b8a596" fill-opacity=".8" transform="rotate(152.2 35.3 27) scale(114.9296 178.40088)"/><circle r="1" fill="#dde0de" fill-opacity=".5" transform="matrix(31.04867 -35.97022 29.43868 25.41079 163.5 23.9)"/><circle r="1" fill="#8a6847" fill-opacity=".6" transform="rotate(-106.1 136.3 5.6) scale(62.54964 129.9007)"/><path fill="#ebfcff" fill-opacity=".5" d="M-5 17.7l31-7.8 29 116.4-31 7.8z"/><circle r="1" fill="#371c06" fill-opacity=".4" transform="rotate(91.7 94.5 143.5) scale(60.90299 39.13326)"/><circle r="1" fill="#0f0d03" fill-opacity=".5" transform="matrix(-5.38797 -26.2038 4.3468 -.89378 6.7 85.9)"/><path fill="#904b3f" fill-opacity=".4" d="M35 0h51v63H35z"/><path fill="#63332b" fill-opacity=".8" d="M42 9.4l-55-3.8 1-15 55 3.8z"/><path fill="#edf9f8" fill-opacity=".4" d="M82.6 100.7l-6.2-8.9-24.6-12.3 19.5 46.2z"/><ellipse cx="146" cy="8" fill="#edf8f6" fill-opacity=".3" rx="13" ry="84"/><ellipse cx="2" cy="116" fill="#bbddfe" fill-opacity=".6" rx="6" ry="19"/><ellipse cx="180" cy="144" fill="#ac8d6e" fill-opacity=".4" rx="57" ry="28"/><path fill="#752306" fill-opacity=".6" d="M56 110L41 81l15 5z"/><path fill="#b4a89c" d="M202.9 77.9l-12-93.9h-21.6l-4.4 79.1z"/><path fill="#462e24" fill-opacity=".6" d="M72.5 44.5l14.2-4.9 6.8 19.9-14.2 4.9z"/><path fill="#babeb6" fill-opacity=".5" d="M108 54.2l18.4 32-30.3 17.6-18.5-32z"/><path fill="#725843" fill-opacity=".5" d="M213.2 121.7L96.1 102l51.4-9.4 14.9-35.3z"/><path fill="#dcc7ba" fill-opacity=".5" d="M67-3l24 32-18 8z"/><path fill="#372d1b" fill-opacity=".5" d="M18.4 149.1L-.3 68.2 5.6 67l18.7 80.9z"/><path fill="#e0d7cf" fill-opacity=".9" d="M32.7 57.2l-.6 37.7-5.3-83.8 7.9 1.5z"/><path fill="#040000" fill-opacity=".2" d="M-12 147l1 38 87-40z"/><ellipse cx="219" cy="92" fill="#815c38" fill-opacity=".6" rx="17" ry="34"/><path fill="#bed8ed" fill-opacity=".1" d="M60.2 98.3l42.5 1.8 71.1 44.8-189.8-5.6z"/><circle r="1" fill="#23150c" fill-opacity=".4" transform="matrix(-23.96609 4.01055 -5.96643 -35.65398 255 22.8)"/><path fill="#b8aea2" fill-opacity=".6" d="M173.9 98.2l32.8-10.3-25.5 16.8-8.9-2.6z"/><path fill="#a6958f" fill-opacity=".5" d="M-16 43.2l49.2-5.6-17.9-12.5 7.4-40.5z"/><path fill="#ccd4dd" fill-opacity=".4" d="M5 52l68 79-56-24z"/><path fill="#a08676" fill-opacity=".6" d="M201 40l-29-50 40-6z"/><path fill="#898179" fill-opacity=".9" d="M125-13.5l-4.3 80.4-16.1-38.8.9 9.9z"/><path fill="#724c2a" fill-opacity=".6" d="M228 81l37 41-85-17z"/><path fill="#a6a199" fill-opacity=".7" d="M100-7l12 100-34-75z"/><path fill="#b4c4d6" fill-opacity=".5" d="M1 85l-17 38 31 15z"/><path fill="#7d6e5e" fill-opacity=".6" d="M123.7 71.2l25.1-4.9 23.8 12.9-48.2-21.6z"/><path fill="#ac7463" fill-opacity=".5" d="M46 38h30v47H46z"/><path fill="#d7d9d6" fill-opacity=".5" d="M120 40h26v16h-26z"/><circle r="1" fill="#64271c" fill-opacity=".6" transform="matrix(-6.96929 -12.9759 4.0635 -2.18248 75.8 .3)"/><path fill="#5c4535" fill-opacity=".5" d="M173.1 83.4l5.3 11.8-25.5 11.4-5.3-11.8z"/><path fill="#9e806a" fill-opacity=".6" d="M67.5 113.9l-20-17.3 26.7 49.1 44.3-47.1z"/><path fill="#bfb7ae" fill-opacity=".7" d="M141.1 72.1l21.4-59.4 40.6 79.7-7-50.9z"/><path fill="#8a5336" fill-opacity=".6" d="M90 99L64 80l27 8z"/><path fill="#3e3936" fill-opacity=".6" d="M4 55l-9 40-6-76z"/><circle r="1" fill="#341d0c" fill-opacity=".4" transform="matrix(7.0992 3.55501 -12.2528 24.46828 4 162.2)"/><ellipse cx="69" cy="169" fill="#886e58" fill-opacity=".6" rx="33" ry="34"/><path fill="#60483c" fill-opacity=".5" d="M206 18l-6 58 35-6z"/><path fill="#783326" fill-opacity=".5" d="M200 88.2l-8.4 3.2-7.6-19.6 8.4-3.2z"/><path fill="#e5d9d2" fill-opacity=".8" d="M46.4 84.3L45 81.9 24.6 50.8l10.2 4.1z"/><path fill="#aea699" fill-opacity=".3" d="M186 90.2L167.7-16l-4.8 83.3 2.1 11.5z"/><path fill="#a2b2b7" fill-opacity=".3" d="M23.3 161.2l-4.2-49.6 32.1-5.1 4.5 15.5z"/><path fill="#080000" fill-opacity=".3" d="M5.5-6.6l-2 24-9-.8 2-24z"/><path fill="#6a5d4e" fill-opacity=".6" d="M4 60.3l19.9 74.4-3.9 1L.1 61.3z"/><path fill="#8b432e" fill-opacity=".5" d="M21 31h8v5h-8z"/><path fill="#724638" fill-opacity=".4" d="M75 26h8v31h-8z"/><path fill="#a3998a" fill-opacity=".7" d="M97 68h46v12H97z"/><path fill="#e3f2f7" fill-opacity=".4" d="M139 87h8v5h-8z"/><path fill="#c1c1bc" fill-opacity=".5" d="M80 83l22 13-24-36z"/><path fill="#977a59" fill-opacity=".5" d="M221.5 86.9l-20.8-3 1.8-12.8 20.8 3z"/><path fill="#8e8d7f" fill-opacity=".7" d="M60.7 163.3l-16.4 19.4-7.4-28.3 7 6z"/><path fill="#302010" fill-opacity=".2" d="M223.9 179.7l47.1-6.3L251.5 1l-3.6 148.2z"/><path fill="#dddcd8" fill-opacity=".6" d="M132 11h13v51h-13z"/><circle r="1" fill="#e1c6ba" fill-opacity=".6" transform="matrix(-4.41851 .5347 -.83556 -6.90472 71.6 10.7)"/><path fill="#5a211c" fill-opacity=".5" d="M157.2 84.2l7-9-4.1-5.8-3.9 1.2z"/><ellipse cx="74" cy="34" fill="#c7a997" fill-opacity=".5" rx="3" ry="18"/><path fill="#926b44" fill-opacity=".4" d="M160 114l87 29-25-40z"/><circle r="1" fill="#a85e39" fill-opacity=".6" transform="matrix(2.23935 -.57951 3.24311 12.53202 59 106.2)"/><path fill="#c0b9a8" fill-opacity=".8" d="M103.1 95.3l-13.6 10 8.2-24.1 35-1.1z"/></g></svg>