<svg xmlns="http://www.w3.org/2000/svg" viewBox="0 0 300 199"><defs/><path fill="#4c2a27" d="M0 0h300v199H0z"/><g transform="translate(.6 .6) scale(1.17188)"><ellipse cx="144" cy="25" fill="#f6fcfc" fill-opacity=".9" rx="14" ry="37"/><circle r="1" fill-opacity=".9" transform="matrix(-14.79268 142.4774 -69.78718 -7.24564 229.6 42.2)"/><ellipse cx="69" cy="20" fill="#fdfaf0" fill-opacity=".9" rx="23" ry="9"/><circle r="1" fill="#060a08" fill-opacity=".8" transform="rotate(-178 17.6 49.7) scale(112.68829 69.93481)"/><circle r="1" fill="#92eaff" fill-opacity=".3" transform="matrix(31.69115 42.21421 -22.9881 17.25768 138.9 169)"/><path fill="#fff" fill-opacity=".5" d="M114 26h12v41h-12z"/><circle r="1" fill="#0b0b0b" transform="matrix(1.00594 9.5709 -136.70482 14.36826 79.2 0)"/><path fill="#c9c8c6" fill-opacity=".8" d="M132 62.4l-1-15 27-1.8 1 15z"/><path fill-opacity=".6" d="M184 104l-49 28 6-82z"/><path fill="#7d6348" fill-opacity=".5" d="M19.3 30.2l7.3 66.7 10.6-82.3L85 36.4z"/><path fill="#fcffff" fill-opacity=".3" d="M167.9 5.1l-49.5-8.4 5.3 18.4 31.2 65.4z"/><circle cx="93" cy="58" r="24" fill-opacity=".6"/><path fill="#c6e2f3" fill-opacity=".4" d="M156.3 155.4l1.3 25-44 2.2-1.2-25z"/><path fill-opacity=".6" d="M112 39h46v3h-46z"/><ellipse cx="137" cy="134" fill="#2e3738" fill-opacity=".5" rx="58" ry="16"/><path fill="#fffff3" fill-opacity=".4" d="M87 34l7-21-55-3z"/><path fill="#f7ffff" fill-opacity=".5" d="M125.9 86.3L122 64.4l6-39-15.9 9z"/><ellipse cx="5" cy="4" fill="#050200" fill-opacity=".8" rx="16" ry="120"/><path fill-opacity=".8" d="M125 22L52 1l65-10z"/><path fill="#fffef6" fill-opacity=".5" d="M60.8 29L42.3 13.9l53.7-.4L75.7 33z"/><ellipse cx="124" fill="#fbffff" fill-opacity=".5" rx="3" ry="22"/><path fill-opacity=".6" d="M28 39h101v4H28z"/><path fill="#fff" fill-opacity=".5" d="M153 46h5v27h-5z"/><path fill-opacity=".5" d="M72.3 57.1L176 90.8l-12.3 38L60 95.3z"/><path fill="#020403" fill-opacity=".6" d="M145.9 120l-.3-30.9-5.1-40.4L154 64.8z"/><path fill="#120f0b" fill-opacity=".7" d="M113.5 30.9L111.4-16l15.1 41-.7 2.2z"/><path fill="#48393d" fill-opacity=".5" d="M194 119h29v21h-29z"/><circle r="1" fill="#2c3031" fill-opacity=".7" transform="matrix(-12.9666 -11.37241 18.60291 -21.21068 98 146.8)"/><ellipse cx="128" fill="#0b0d0f" fill-opacity=".9" rx="2" ry="61"/><path fill="#090604" fill-opacity=".7" d="M11.9-1.5l71.6.6-52.2 20.7L-16 76z"/><ellipse cx="27" cy="63" fill="#abb1a1" fill-opacity=".5" rx="2" ry="37"/><path fill="#8a592f" fill-opacity=".6" d="M97 11.2l6.9 21.1-28.8 4.2 27-28.5z"/><ellipse cx="57" cy="148" fill-opacity=".5" rx="26" ry="41"/><path fill="#010102" fill-opacity=".8" d="M271-5L164-9l-4 127z"/><path fill="#030000" fill-opacity=".5" d="M28 22h6v58h-6z"/><path fill="#1d1e22" d="M201.4-1.3l-86 1.5-4.5 1 43 .7z"/><ellipse cx="161" cy="10" fill="#fff" fill-opacity=".7" rx="1" ry="20"/><circle r="1" fill="#fff" fill-opacity=".8" transform="matrix(8.98647 5.01553 -9.8695 17.68348 144.8 19.9)"/><circle r="1" fill="#232623" fill-opacity=".7" transform="rotate(-121.5 43.6 73.7) scale(21.5708 32.3431)"/><ellipse cx="144" cy="47" fill="#fff" fill-opacity=".6" rx="14" ry="6"/><path fill="#fff" fill-opacity=".6" d="M119 39l-7-8 15-3z"/><path fill="#21373f" fill-opacity=".5" d="M200 192.2l-19.4 8.2-26.6-62.6 19.4-8.2z"/><circle r="1" fill="#010000" fill-opacity=".4" transform="matrix(20.37918 -18.02998 21.7582 24.59317 89.8 64.3)"/><path fill="#653515" fill-opacity=".5" d="M44.4 14.2l26.3 27.6-12.5-11.4-49.1-7.5z"/><path fill="#040609" fill-opacity=".7" d="M158 0h2v99h-2z"/><path fill="#362f29" fill-opacity=".7" d="M145.1 61.8l-23 17 5.9-41.5 12.7 45.1z"/><path fill="#f3f6f3" fill-opacity=".5" d="M140.1 47.4l-3.4 24.3-3-21.4-3.8-8.1z"/><path fill="#020302" fill-opacity=".5" d="M110.1-16L55.8 11.5l52.1 4.1 12.5 1.8z"/><path fill="#fff" fill-opacity=".4" d="M131 2h14v20h-14z"/><ellipse cx="161" cy="40" fill="#060403" fill-opacity=".9" rx="131" ry="1"/><path fill="#fff" fill-opacity=".5" d="M123.5 73.1l-8-30 1-.2 8 30z"/><path fill="#312019" fill-opacity=".6" d="M47.6 89.2l-9.8 23.5 54.1-4.7-9.8-13.1z"/><path fill-opacity=".5" d="M229 119l-156-2 143-70z"/><path fill="#0b0300" fill-opacity=".5" d="M49 34h64v39H49z"/><path fill="#586773" fill-opacity=".4" d="M114 140h48v18h-48z"/><path fill="#fdfdf8" fill-opacity=".6" d="M118 43h7v19h-7z"/><ellipse cx="109" cy="42" fill-opacity=".4" rx="21" ry="2"/><path fill="#020203" fill-opacity=".7" d="M157 64h99v55h-99z"/><path fill="#1a110b" fill-opacity=".6" d="M125 43h6v46h-6z"/><path fill="#fff" fill-opacity=".5" d="M132 2h26v27h-26z"/><path fill="#fff" fill-opacity=".3" d="M45.1 10.6l53 7-23.5 12.3-11.7.5z"/><path fill="#fff" fill-opacity=".6" d="M124 2h2v21h-2z"/><ellipse cx="46" cy="3" fill-opacity=".8" rx="26" ry="9"/><ellipse cx="133" cy="62" fill="#ffe6d1" fill-opacity=".3" rx="5" ry="4"/><path fill="#a76834" fill-opacity=".4" d="M81.1 35.2l-17.2-1.1 43.8-16-1.8 11.4z"/></g></svg>