<svg xmlns="http://www.w3.org/2000/svg" viewBox="0 0 298 450"><defs/><path fill="#8f674d" d="M0 0h298v450H0z"/><g transform="translate(.9 .9) scale(1.75781)"><circle r="1" fill="#dbe4e9" fill-opacity=".6" transform="rotate(-148.9 32 38) scale(142.11084 169)"/><circle r="1" fill="#9c8577" transform="rotate(-34.4 373.3 -123.7) scale(56.35862 101.04734)"/><circle r="1" fill="#f7f9f9" fill-opacity=".7" transform="matrix(-57.99594 44.66043 -28.18347 -36.599 34.5 70)"/><path fill="#371602" fill-opacity=".6" d="M72.1 124.6l41.9 42-16 17.5-32.8-40.7z"/><circle r="1" fill="#a49a90" fill-opacity=".9" transform="rotate(37.2 -356.2 193.4) scale(38.46408 61.92175)"/><ellipse cx="95" cy="129" fill="#ffc6ad" fill-opacity=".6" rx="11" ry="26"/><path fill="#cdd6dc" fill-opacity=".7" d="M41.4 208.5l-54.6-6.7 11.8-96.3 54.6 6.7z"/><path fill="#4c2804" fill-opacity=".5" d="M148.2 141.5l-15-1 2.6-36 15 1z"/><path fill="#d6cec6" fill-opacity=".9" d="M79.5 1.6l46 139.6 6.9-25.9-10.9-70z"/><circle r="1" fill="#65290a" fill-opacity=".3" transform="matrix(13.19884 -3.7847 6.75793 23.5677 73 107)"/><circle r="1" fill="#fff" fill-opacity=".5" transform="matrix(-38.0392 -85.73756 21.89449 -9.71393 9.1 39.3)"/><path fill="#a7aba8" fill-opacity=".7" d="M158.6 123.4l56.5 30-35.7 67.2-56.5-30z"/><circle r="1" fill="#744332" fill-opacity=".5" transform="matrix(-8.4329 -5.40183 15.00233 -23.4204 109.2 223)"/><circle r="1" fill="#ffedd8" fill-opacity=".4" transform="matrix(-7.8728 34.88933 -3.81365 -.86055 118.3 152)"/><path fill="#3f2515" fill-opacity=".9" d="M113.3 151.7l-34.1 4.4 17.2 26.3 10.6-2.1z"/><path fill="#815937" fill-opacity=".6" d="M0 263l38-49-54 39z"/><path fill="#c6cace" fill-opacity=".8" d="M87 186l-100 13-2-103z"/><circle r="1" fill="#cdcecd" fill-opacity=".6" transform="rotate(-82.5 28 -18.6) scale(27.34545 41.96236)"/><circle r="1" fill="#7c4d25" fill-opacity=".4" transform="rotate(-143 73.2 111.7) scale(50.65763 3.61213)"/><path fill-opacity=".4" d="M72 133l10-33 5 19z"/><path fill="#d0e3f0" fill-opacity=".4" d="M36 228l21 34-46-21z"/><ellipse cx="60" cy="134" fill="#c38567" fill-opacity=".4" rx="10" ry="34"/><path fill="#9ca9ae" fill-opacity=".4" d="M123 0h47v110h-47z"/><path fill="#949391" fill-opacity=".8" d="M102.6 277.4l12.8-55.6 38 8.8-12.8 55.6z"/><circle r="1" fill="#b8c1c8" fill-opacity=".6" transform="matrix(-16.31728 -15.9297 6.2207 -6.37205 73.4 235.8)"/><path fill="#a77d4e" fill-opacity=".5" d="M117 223l-44-36-18 11z"/><path fill="#fefefd" fill-opacity=".5" d="M122 189l15-16-6 22z"/><path fill="#858074" fill-opacity=".5" d="M140.5 214.5v-81h13v81z"/><path fill="#582e1f" fill-opacity=".6" d="M120.1 129.7l-12.6-36.1 7.9 32.8L107 176z"/><path fill="#e1b199" fill-opacity=".5" d="M82 123h14v28H82z"/><ellipse cx="98" cy="91" fill="#bd9f92" fill-opacity=".9" rx="6" ry="19"/><path fill="#cebcaf" fill-opacity=".4" d="M56.5 113.8l14.8 15.8 20.3-68-34.5 16.9z"/><circle r="1" fill="#fbfbfb" fill-opacity=".7" transform="matrix(-23.22115 -14.87704 18.72415 -29.226 33 73.2)"/><path fill="#190600" fill-opacity=".5" d="M111.7 113.3l-5.6-7.4 2.4-3.6 9.5 12.2z"/><path fill="#7a4e22" fill-opacity=".5" d="M124 171l8-37 7 28z"/><path fill="#8a6d57" d="M-15.9 233l59 27.4-59.1 3.9.2-146.1z"/><circle r="1" fill="#c0c8ce" fill-opacity=".6" transform="rotate(50.8 -211.4 127.7) scale(11.14978 38.89851)"/><circle r="1" fill="#f0bca4" fill-opacity=".4" transform="matrix(13.73767 -52.04523 4.39843 1.161 120 154.2)"/><path fill="#c5a37c" fill-opacity=".6" d="M126.4 224.6l3-11.7 58.2 14.5-3 11.7z"/><path fill="#b4c0c4" fill-opacity=".5" d="M81 198l1-20 16 19z"/><path fill="#754823" fill-opacity=".3" d="M45.8 224l56.2 47-71.9-58.9L59.9 271z"/><path fill="#a9927f" fill-opacity=".6" d="M133 72l16 35-24-6z"/><path fill="#573211" fill-opacity=".5" d="M137 123h22v5h-22z"/><ellipse cx="164" cy="131" fill="#c0c2bf" fill-opacity=".3" rx="12" ry="50"/><path fill="#421200" fill-opacity=".6" d="M118.4 208.7l5 3.2-5.8 9.4-5-3.2z"/><path fill="#eaeeeb" fill-opacity=".4" d="M107.8 42.2l23.4 5.4-7 30.2-23.4-5.4z"/><circle r="1" fill="#d4d8db" fill-opacity=".5" transform="matrix(-8.43725 16.20232 -8.5247 -4.43918 169 29.5)"/><path fill="#7a7f7e" fill-opacity=".6" d="M138.7 229.4l42.9 10-6.3 27.2-42.9-10z"/><path fill="#f1cab5" fill-opacity=".5" d="M103 110l-25 25 33-61z"/><path fill="#8e5543" fill-opacity=".3" d="M113.1 250.8l-17.5-3.9 2.9-67.9 12.2-9.5z"/><path fill="#e9efec" fill-opacity=".3" d="M97.9 72.8l-26.4 37.6L70.4 29l24.5-7.2z"/><path fill="#3b2213" fill-opacity=".4" d="M79.6 124l7.7 41.7L68.5 149 67 134.3z"/><path fill="#754c3e" fill-opacity=".5" d="M117 132l-26-2 13-5z"/><path fill="#001837" fill-opacity=".5" d="M71 189h8v5h-8z"/><path fill="#8c6658" fill-opacity=".5" d="M96.3 98l-2-.3L99.7 54l2 .3z"/><path fill="#afbac3" fill-opacity=".4" d="M148.6 6.9l-30.9 36.7L69.4 3.1l30.9-36.7z"/><path fill="#8c6d4f" fill-opacity=".6" d="M33.8 222.8l-2.8-2.9 17.2-16.7 2.8 2.9z"/><path fill="#cde1ee" fill-opacity=".4" d="M63 271l10-12-19-18z"/><circle r="1" fill="#caccce" fill-opacity=".7" transform="rotate(135.1 -21.4 61.4) scale(16.38884 68.35221)"/><path fill="#cbf6ff" fill-opacity=".4" d="M94.4 267.4l-1-.1 4.2-26.7 1 .1z"/><path fill="#efd8c9" fill-opacity=".4" d="M107.7 102.1l21.2 18.8-18.2-2.2 23.4-16.1z"/><circle r="1" fill="#764531" fill-opacity=".4" transform="matrix(-1.8172 -4.47027 16.78098 -6.82159 99 153.7)"/><path fill="#bcb5ab" fill-opacity=".6" d="M30.3-9.1l-9 42.2 22.1-20-20-7.8z"/><path fill="#c7a18b" fill-opacity=".5" d="M70 102l-15 14 8-49z"/><path fill="#a17a65" fill-opacity=".5" d="M58.7 160.2l-8.2-6.3.2-15 17.5 23.4z"/></g></svg>