<svg xmlns="http://www.w3.org/2000/svg" viewBox="0 0 300 199"><defs/><path fill="#434344" d="M0 0h300v199H0z"/><g transform="translate(.6 .6) scale(1.17188)"><circle r="1" fill="#e6e6e5" fill-opacity=".7" transform="matrix(5.33118 -53.06638 253.72284 25.48964 91.6 0)"/><circle r="1" fill="#ccc" fill-opacity=".7" transform="matrix(-16.58054 29.42572 -25.2492 -14.2272 246.3 76.5)"/><path fill="#828282" fill-opacity=".9" d="M117.2 10.6l12 42.3-162.4 46.5-12-42.3z"/><ellipse cx="194" cy="125" fill="#101010" fill-opacity=".7" rx="29" ry="79"/><ellipse cx="159" cy="14" fill="#fbfbfb" fill-opacity=".6" rx="49" ry="22"/><circle r="1" fill="#828280" fill-opacity=".4" transform="matrix(78.36345 86.72655 -15.71144 14.19638 118.8 145.8)"/><path fill="#030302" fill-opacity=".4" d="M114 34h38v95h-38z"/><ellipse cx="7" cy="41" fill="#fff" fill-opacity=".2" rx="16" ry="94"/><circle r="1" fill-opacity=".6" transform="matrix(-21.3181 -6.44713 10.52816 -34.81243 210.1 138.5)"/><circle r="1" fill="#fff" fill-opacity=".3" transform="matrix(-15.2319 -40.31004 5.65931 -2.13848 172 65.2)"/><ellipse cx="102" cy="1" fill-opacity=".3" rx="8" ry="95"/><path fill="#9d9d9d" fill-opacity=".4" d="M138 83l-28 8-1-44z"/><circle r="1" fill="#f0f0f0" fill-opacity=".5" transform="matrix(1.65548 79.0319 -9.71982 .2036 243 9.7)"/><ellipse cx="155" cy="73" fill-opacity=".6" rx="12" ry="17"/><circle r="1" fill="#fff" fill-opacity=".5" transform="matrix(-6.68769 -19.13722 44.53759 -15.5641 21.5 2)"/><path fill="#8f8f8f" fill-opacity=".4" d="M232.9 52.6l14 38.5-33.8 12.3-14-38.5z"/><circle r="1" fill-opacity=".5" transform="matrix(-7.8236 13.21225 -28.04529 -16.60693 139.2 112)"/><circle r="1" fill="#d3d3d3" fill-opacity=".5" transform="matrix(8.73327 5.41486 -16.00722 25.817 83 22.5)"/><circle cx="47" cy="84" r="34" fill="#545454" fill-opacity=".5"/><path fill="#959594" fill-opacity=".6" d="M37 163.5l-6.5 20-27.5-9 6.5-20z"/><path fill="#010101" fill-opacity=".6" d="M87.3 71.4L81.9 84l15.3-37.4 9.2 52.4z"/><path fill="#111110" fill-opacity=".5" d="M47 164l-30-37 43-11z"/><path fill="#c1c1c1" fill-opacity=".9" d="M219 86.9l47.5 21.2-14.9-25.4-37.4 17.1z"/><circle r="1" fill="#e8e8e7" fill-opacity=".6" transform="matrix(-2.5614 -4.73498 3.23278 -1.74879 155.7 141.5)"/><path fill="#8b8b8b" d="M32.8 96l-6.7 11.5.6 2.3L-16 98.2z"/><path fill="#e0e0e0" fill-opacity=".7" d="M116.5 22l21.3 16.6-4.3 5.5-21.3-16.7z"/><path fill="#292929" fill-opacity=".5" d="M184 35.8l38.6 70.7-42.8-11.6-.3-45.9z"/><path fill="#e1e1e1" fill-opacity=".5" d="M258.9 29.3L123.3 59.7 200.7 17l54-6.8z"/><ellipse cx="98" cy="144" fill="#686868" fill-opacity=".5" rx="41" ry="33"/><path fill="#4a4a4a" fill-opacity=".3" d="M213.7-16L206 36.1l10.3-23.5 22.6 2.2z"/><path fill="#3c3c3c" fill-opacity=".9" d="M177.3 121.2l-67.4-93.6 23.7 70.6L174 80.4z"/><path fill="#6e6e6e" fill-opacity=".8" d="M41.3 97.2l-7.4 19.3 5.1 20.1 6.4.2z"/><path fill="#e9e9e9" fill-opacity=".5" d="M29 45l-5-12-40 27z"/><path fill="#0d0d0b" fill-opacity=".4" d="M67.2 150l3.4-62.4 8.5 75.8 14.7-33.5z"/><path fill="#0b0b0b" fill-opacity=".5" d="M74.5 101.4l-25.9-11 8.5 86.5-2-88.6z"/><path fill-opacity=".7" d="M33 124.9l-8-.9 2-18.9 8 .9z"/><path fill="#0a0a0a" fill-opacity=".6" d="M142.4 96.2l-47.5 14.7 73.3 11.4 7.5 62.7z"/><path fill="#a5a5a5" fill-opacity=".6" d="M102.4 64.2l5.8-25.7-22 22.5.4-40.8z"/><path fill="#909090" fill-opacity=".6" d="M167.3 57.9l-.6 29.5 15.7-18.6-2-26.9z"/><path fill="#4b4b4b" fill-opacity=".5" d="M216 38l-17 11 33-8z"/><path fill="#2d2d2c" fill-opacity=".5" d="M218 147l28 38 2-85z"/><path fill="#060606" fill-opacity=".6" d="M52 49.3l-.5 17 1.1 7.1-7.4 2.8z"/><path fill="#050505" fill-opacity=".4" d="M180 79h58v4h-58z"/><path fill-opacity=".5" d="M98 133l18-5 2 8z"/><path fill="#080808" fill-opacity=".7" d="M152.3 56.7l16.7 5.8-4.7 18.1-19.9 20.6z"/><path fill="#e8e8e8" fill-opacity=".7" d="M125 1l43 60 2-65z"/><path fill="#888" fill-opacity=".6" d="M97.9 142.3l-9-1 5.2-49.6 9 1z"/><path fill="#eaeaea" fill-opacity=".5" d="M231.3 110.7l-15.4-43 13-1.6-12.9 28z"/><path fill="#8b8b8b" fill-opacity=".4" d="M46 73h37v19H46z"/><path fill="#b8b8b8" fill-opacity=".7" d="M22.4 29.2l26.7 16.3 4.5-1.3L25.7-16z"/><path fill="#777" fill-opacity=".6" d="M167 158l-1 25-76-52z"/><path fill-opacity=".5" d="M119 39h8v24h-8z"/><path fill="#000001" fill-opacity=".4" d="M150.3 45l-13.8-2 1.2-8 13.8 2.2z"/><path fill="#111" fill-opacity=".5" d="M254 30h2v22h-2z"/><path fill="#6b6b6b" fill-opacity=".5" d="M218 41l-14-22-5 6z"/><path fill="#5e5e5e" fill-opacity=".5" d="M219.8 144.8l19.1-4.1-33.6 37.9 24.6 6.4z"/><path fill="#f3f3f2" fill-opacity=".5" d="M251 128h5v6h-5z"/><path fill="#3e3e3e" fill-opacity=".5" d="M227 13L213 2l-12 2z"/><circle r="1" fill-opacity=".6" transform="rotate(-117.8 144.7 -6) scale(22.51311 14.51515)"/><path fill="#b4b4b2" fill-opacity=".3" d="M15.9 115.2l-8 54 7.6-17.5 5.4-1.3z"/><path fill="#c6c6c5" fill-opacity=".5" d="M111 66h5v21h-5z"/><path fill="#626262" fill-opacity=".6" d="M172 106l-18-19 48 13z"/><path fill-opacity=".5" d="M89.1 82.5l7.7-15.2 16 8.2-7.6 15.2z"/><path fill="#686868" fill-opacity=".5" d="M215 56h22v11h-22z"/><path fill="#9f9f9f" fill-opacity=".6" d="M32.9 64.2l4-13.4L24 68.3 38.8 78z"/></g></svg>