<svg xmlns="http://www.w3.org/2000/svg" viewBox="0 0 300 199"><defs/><path fill="#5a3c30" d="M0 0h300v199H0z"/><g transform="translate(.6 .6) scale(1.17188)"><circle cx="74" cy="49" r="160" fill="#939394" fill-opacity=".8"/><circle r="1" fill="#f4edee" fill-opacity=".6" transform="matrix(-14.15853 62.319 -39.66825 -9.0124 78.4 137.2)"/><ellipse cx="215" cy="119" fill="#183264" rx="31" ry="60"/><path fill="#00042f" fill-opacity=".7" d="M154.7 62l7.5 107.7-32.9 2.3-7.5-107.7z"/><circle r="1" fill="#200e04" fill-opacity=".8" transform="matrix(16.37313 -9.52456 10.50234 18.05399 53.2 38.3)"/><ellipse cx="173" cy="105" fill="#eaf0ff" fill-opacity=".6" rx="13" ry="75"/><path fill="#092011" fill-opacity=".7" d="M21.5 93.3l9.2 52.2-52.2 9.2-9.2-52.2z"/><path fill="#cbcaaf" fill-opacity=".5" d="M296.8 129l-42 16.1L207.2 21l42-16.1z"/><path fill="#97948f" fill-opacity=".6" d="M107 116h27v54h-27z"/><circle r="1" fill="#c4bdae" fill-opacity=".8" transform="rotate(81.3 80.4 137.5) scale(19.39589 24.77207)"/><path fill="#302319" fill-opacity=".8" d="M153.4 8.6l12.2-14.5 23 19.3-12.2 14.5z"/><circle r="1" fill="#ddebf4" fill-opacity=".7" transform="matrix(-9.5262 10.50594 -56.48554 -51.21796 82.9 155.5)"/><circle r="1" fill="#c4947b" fill-opacity=".6" transform="matrix(-10.15528 -26.13582 33.17036 -12.8886 68.1 88.7)"/><circle r="1" fill="#947247" fill-opacity=".6" transform="matrix(34.8064 81.15878 -23.98291 10.2855 91.5 0)"/><circle r="1" fill="#05163f" transform="matrix(-9.5478 4.61779 -29.35562 -60.69609 253.6 169)"/><circle r="1" fill="#d4d6cf" fill-opacity=".5" transform="matrix(3.62386 -1.24076 13.494 39.41158 234.8 167.6)"/><circle r="1" fill="#001b52" fill-opacity=".7" transform="matrix(13.16389 13.03047 -10.40023 10.50671 206.7 73.6)"/><path fill="#e3f8ff" fill-opacity=".5" d="M249 52l22 65-17 33z"/><path fill="#c5e4ff" fill-opacity=".6" d="M172.5 148l13.2-4.6 7.8 22.7-13.2 4.5z"/><circle r="1" fill="#eaf7ff" fill-opacity=".7" transform="rotate(-147.1 65.4 46.6) scale(12.15847 37.8768)"/><path fill="#cda384" fill-opacity=".5" d="M164.2 14.6l13.4 36.7-49.8 18-13.4-36.6z"/><path fill="#b29a93" d="M29.7 115.3l27.4 38.5-72.7 31.2 50.3-34.6z"/><circle r="1" fill="#684237" fill-opacity=".4" transform="rotate(107.5 14.4 103.3) scale(24.9516 9.02974)"/><ellipse cx="240" cy="36" fill="#67492a" fill-opacity=".6" rx="8" ry="63"/><ellipse cx="177" cy="68" fill="#cfc5c9" fill-opacity=".8" rx="13" ry="32"/><path fill="#d3e8f8" fill-opacity=".6" d="M109 140l19 38-144-4z"/><circle r="1" fill="#957c54" fill-opacity=".6" transform="matrix(-21.23638 -.5762 2.28877 -84.35605 12.7 32.2)"/><path fill="#cfe4ff" fill-opacity=".5" d="M158 69h29v48h-29z"/><path fill="#f5bdad" fill-opacity=".5" d="M88.2 52.4l-8.8 38.1-13.1-39.3L78 26.1z"/><path fill="#000c36" fill-opacity=".5" d="M164 130.4l-29.6 9.6-16.3-50.4 29.5-9.6z"/><path fill="#361e11" fill-opacity=".5" d="M46 17h25v49H46z"/><path fill="#160000" fill-opacity=".5" d="M147 21l-3-8 27-11z"/><path fill="#e6ebe0" fill-opacity=".6" d="M249 7h4v53h-4z"/><path fill="#000f3a" fill-opacity=".5" d="M122 88l37-32-12 119z"/><path fill="#a96f57" fill-opacity=".4" d="M187 63l-17 10-38-62z"/><path fill="#8a6e4d" fill-opacity=".8" d="M0 0h121v19H0z"/><path fill="#d5ab66" fill-opacity=".4" d="M213 26l-67-42 89 22z"/><path fill="#cae1de" fill-opacity=".5" d="M44.5 84.1l12-6.2L37.4 46l6.1 32.4z"/><ellipse cx="59" cy="27" fill-opacity=".4" rx="24" ry="6"/><path fill="#6f6854" fill-opacity=".9" d="M46.7 80.7l-48.3 9.1 26.7 21.5 6.1-11.4z"/><path fill="#493229" fill-opacity=".4" d="M186.4 49.4l-9.9-53-8.8 44.6 21.4-32.9z"/><circle r="1" fill="#1056ae" fill-opacity=".5" transform="matrix(-24.11914 -66.23692 2.53878 -.92446 247.9 130.7)"/><path fill="#001c57" fill-opacity=".6" d="M188.2 89.8l3.7-34.8 11.9 1.2-3.7 34.8z"/><path fill="#000f3a" fill-opacity=".5" d="M206.6 80.5l-8.4 53.3-14.8-2.3 8.4-53.3z"/><path fill="#c18879" fill-opacity=".4" d="M48.8 46.2l26.8 18.9-1.3-35.5L57 68.5z"/><path fill="#bdcbe5" fill-opacity=".8" d="M164.6 126l-3.9 38.8 25.4 18.3-7.4-81.7z"/><path fill="#726669" fill-opacity=".5" d="M43 139l-59 14 69 5z"/><path fill="#c5c3bc" fill-opacity=".8" d="M226.9 63.5l-39.3-12.4-18.6 5.3 43.4-30.8z"/><ellipse cx="118" cy="38" fill="#7c6041" fill-opacity=".5" rx="9" ry="55"/><path fill="#9f9688" fill-opacity=".5" d="M107 141l31 44-10-78z"/><path fill="#b0a488" fill-opacity=".6" d="M125.5 64V4h21v60z"/><path fill="#001504" fill-opacity=".5" d="M-6.3 119l20-6.6 8.6 26.7-20 6.5z"/><path fill="#abb0b4" fill-opacity=".6" d="M227 139l3 31 22 15z"/><path fill="#e0e7e7" fill-opacity=".5" d="M71 141l-46-24 7-22z"/><path fill="#001742" fill-opacity=".5" d="M164 142l-21-78-8 121z"/><circle r="1" fill="#a6987d" fill-opacity=".4" transform="matrix(-30.1988 3.97575 -3.35045 -25.44921 16.2 64.7)"/><path fill="#070b23" fill-opacity=".7" d="M229.5 113.5l20.1 71.5-33.3-71.7 7.7-26.7z"/><path fill="#1c1f2a" fill-opacity=".5" d="M106 128l16 6-9-14z"/><path fill="#160f09" fill-opacity=".8" d="M31.3 41.7l15.8 9.2 30.2-27.6-42.6 5.6z"/><path fill="#c19d8c" fill-opacity=".9" d="M75 126.6L27 98.9l21.3-7.2 37.9 18.9z"/><path fill="#012d83" fill-opacity=".5" d="M218.3 121.8l13.2 49.3-33.8 9-13.2-49.2z"/><path fill="#685c4c" fill-opacity=".8" d="M271 7l-20-18 5 87z"/><path fill="#eff9ff" fill-opacity=".5" d="M92 128l28-31-12-17z"/><path fill="#a18a6b" fill-opacity=".9" d="M122.2 11l98.2-18.4 10.2 24.6-98.9-32.8z"/><path fill="#dfbcae" fill-opacity=".6" d="M162 45l30 24-30-55z"/></g></svg>