<svg xmlns="http://www.w3.org/2000/svg" viewBox="0 0 300 199"><defs/><path fill="#5c473a" d="M0 0h300v199H0z"/><g transform="translate(.6 .6) scale(1.17188)"><circle r="1" fill="#def2fe" fill-opacity=".8" transform="rotate(179.3 73.4 .5) scale(148.02831 50.22249)"/><circle r="1" fill="#bbcef5" fill-opacity=".6" transform="matrix(-14.57681 24.6996 -24.59966 -14.51783 223.6 92)"/><ellipse cx="45" cy="30" fill="#d4e3eb" fill-opacity=".9" rx="21" ry="34"/><circle r="1" fill="#000408" fill-opacity=".5" transform="rotate(18.4 -238.7 62.3) scale(133.45873 27.73252)"/><ellipse cx="230" cy="148" fill="#000301" fill-opacity=".8" rx="26" ry="28"/><circle r="1" fill="#aba393" fill-opacity=".5" transform="rotate(-118.7 68.8 58.2) scale(26.12592 33.16384)"/><ellipse cx="110" cy="76" fill="#202f28" fill-opacity=".7" rx="66" ry="34"/><circle r="1" fill="#000700" fill-opacity=".6" transform="matrix(-12.2635 -2.25461 6.48704 -35.28496 255 44.3)"/><ellipse cx="159" cy="145" fill="#b5a687" fill-opacity=".4" rx="32" ry="36"/><path fill="#00000f" fill-opacity=".7" d="M127.8 133.1L131 169l-44.8 3.9L83 137z"/><path fill="#dbeaf1" fill-opacity=".6" d="M148 0h53v59h-53z"/><path fill="#e8b5c3" fill-opacity=".5" d="M105 70L82 54l22 59z"/><circle r="1" fill="#0f1d10" fill-opacity=".7" transform="rotate(74.2 -61.9 62.3) scale(27.2065 73.25809)"/><circle r="1" fill="#001d0b" fill-opacity=".5" transform="rotate(-101.8 22.4 16.4) scale(33.41889 9.66291)"/><path fill="#cae0ec" fill-opacity=".5" d="M44.3 77.1l-36.6-58 151.7-33.4L60 53.4z"/><path fill="#d4e1ec" fill-opacity=".8" d="M103 0h136v44H103z"/><path fill="#19221d" fill-opacity=".4" d="M127 51l-41 87 147-80z"/><circle r="1" fill="#4a3427" fill-opacity=".6" transform="matrix(11.77162 .69936 -2.82778 47.597 252.8 142.8)"/><ellipse cx="85" cy="46" fill="#274622" fill-opacity=".6" rx="16" ry="6"/><path fill="#767751" fill-opacity=".5" d="M165 85l37 5 7 89z"/><circle r="1" fill="#817466" fill-opacity=".7" transform="rotate(178.3 20.8 84.3) scale(42.75615 44.50722)"/><path fill="#040e05" fill-opacity=".8" d="M247 30l24-43-15 109z"/><path fill="#01190f" fill-opacity=".3" d="M26.2 35.2L41.4 61 6 167-10.9 28.1z"/><path fill="#713e3d" fill-opacity=".5" d="M203 42h14v30h-14z"/><path fill="#d3e0ea" fill-opacity=".8" d="M16.7 20.5L42-16l165.5 67.1-32.6 2.2z"/><path fill="#141b20" d="M127.6 107.6l-6.5 74.5L101 49l24.2 18.9z"/><path fill="#cf8e93" fill-opacity=".3" d="M82 126.7l-2.3-2.6 39.4 1.6-20.8 17.8z"/><path fill="#ccd7e1" fill-opacity=".7" d="M143.6 46l89-5.3 10.7 3 18.4-56.5z"/><path fill-opacity=".5" d="M207 122h33v48h-33z"/><path fill="#a9b0c4" fill-opacity=".6" d="M244 66l-37 54-6-47z"/><path fill="#b5cdee" fill-opacity=".5" d="M98 80l11-9-8 33z"/><path fill="#74534f" fill-opacity=".7" d="M99.7 70.3L82.3 49l-2.5 17.6 14.6 37.3z"/><path fill="#5a6f72" fill-opacity=".5" d="M141 52h50v10h-50z"/><path fill="#8b7e6e" fill-opacity=".9" d="M47.4 122.1L65.2 180l26.2 5-22.2-70.7z"/><path fill="#122518" fill-opacity=".7" d="M228.8 52.8l-12.2-12.6L271 70.6 226.1 64z"/><path fill="#051307" fill-opacity=".5" d="M57 51h23v64H57z"/><path fill="#0b1029" fill-opacity=".6" d="M73 84h26v40H73z"/><path fill="#495842" fill-opacity=".5" d="M54.4 107.6l-50.2 9.5 48.1-32.5L-12.3-16z"/><ellipse cx="118" cy="15" fill="#c8e1f2" fill-opacity=".6" rx="34" ry="31"/><path fill="#080d0f" fill-opacity=".6" d="M134.5 117l31-27.6-59.1 14.8-11 25z"/><circle r="1" fill="#a3b0be" fill-opacity=".5" transform="rotate(69.1 63.4 222.3) scale(15.58486 2.60672)"/><path fill="#b69bab" fill-opacity=".4" d="M166 86.8l42.7 4.5-.6 6-42.8-4.6z"/><circle r="1" fill="#947d6a" fill-opacity=".7" transform="matrix(-4.71125 18.64158 -15.68794 -3.96479 143.4 133.9)"/><path fill="#2d303d" fill-opacity=".6" d="M105 71h11v34h-11z"/><path fill="#4e5730" fill-opacity=".4" d="M152 97h53v26h-53z"/><path fill="#dfe6eb" fill-opacity=".6" d="M193.9 61.1L170.7-16l-47 47 80.7 20.8z"/><path fill-opacity=".1" d="M182 50.2l49.1 39.7 13 22.8 11.1-14.8z"/><path fill="#dce5eb" fill-opacity=".5" d="M75 44.3l-49.8 7.6 21.5-67.1 44.8 8.6z"/><path fill="#0c0b0d" fill-opacity=".5" d="M189 51l7 12-19 11z"/><path fill="#d2e3ec" fill-opacity=".5" d="M34 13l11 58 27-44z"/><ellipse cx="222" cy="116" fill="#8f94a8" fill-opacity=".8" rx="18" ry="5"/><path fill="#afb0c0" fill-opacity=".5" d="M218.6 59.6l6.1 2.8 22 8.5-24.3 17.9z"/><path fill="#766663" fill-opacity=".6" d="M207.4 39.8l-4.8.7-5.2 27.4L219 44.5z"/><path fill="#000815" fill-opacity=".6" d="M84 133l-3 22 59 19z"/><path fill="#505238" fill-opacity=".4" d="M139.5 85.1l-4.8-46 61.5 59-88.4-55.8z"/><path fill="#14280a" fill-opacity=".4" d="M138.6 66.2l.1-23.1-39 15.9 6.6 23.3z"/><path fill="#d3d0d2" fill-opacity=".3" d="M104.4 15.3l-89-12.4-9.6 29.9 62.8-22.3z"/><path fill="#ffd7c2" fill-opacity=".3" d="M114 131h-10v-6h10z"/><path fill="#6f8281" fill-opacity=".6" d="M160.7 84.4L156 39.1l5.6-.8-2.3 28.8z"/><path fill="#675d44" fill-opacity=".6" d="M174.2 173.7l.6-30 33 .6-.6 30z"/><path fill="#141b13" fill-opacity=".8" d="M23.5 45.1l-1.4-6.3L8.7 156.2-13.9 10.4z"/><ellipse cx="89" cy="64" fill="#df9885" fill-opacity=".3" rx="11" ry="7"/><circle r="1" fill="#354931" fill-opacity=".5" transform="matrix(-2.05107 -7.28641 25.97198 -7.31093 80.4 52)"/><path fill="#907c81" fill-opacity=".6" d="M92.4 65l3 .1-1.8 36-3-.2z"/><path fill="#251a14" fill-opacity=".3" d="M223.2 74.8l-6.1-8.9-27.6-6.7-34.1 6.2z"/></g></svg>