<svg xmlns="http://www.w3.org/2000/svg" viewBox="0 0 300 199"><defs/><path fill="#72453c" d="M0 0h300v199H0z"/><g transform="translate(.6 .6) scale(1.17188)"><ellipse cx="116" cy="57" fill="#def2f2" fill-opacity=".6" rx="38" ry="52"/><ellipse cx="209" cy="78" fill="#030303" rx="58" ry="169"/><ellipse cx="30" cy="96" fill-opacity=".9" rx="51" ry="169"/><path fill="#fff" fill-opacity=".6" d="M130 15h21v136h-21z"/><path fill="#030b0c" fill-opacity=".7" d="M112.7 3.5L129 144.3l.5 40.7h-18.2z"/><circle r="1" fill="#fff" fill-opacity=".6" transform="matrix(-3.60184 -36.73441 8.3688 -.82057 91 114)"/><ellipse cx="84" fill="#060e0f" fill-opacity=".7" rx="94" ry="14"/><path fill="#feffff" fill-opacity=".7" d="M80.3 14.7l32 .6-.6 32-32-.6z"/><ellipse cx="129" cy="60" fill="#090402" fill-opacity=".9" rx="56" ry="2"/><path fill="#1f1d1c" fill-opacity=".7" d="M118.9 116.1l-52.6-7.4 67.5-6 .2 20.5z"/><circle r="1" fill="#070606" transform="matrix(-115.0548 -5.82843 .3185 -6.2872 146.3 168.9)"/><path fill="#dee4df" fill-opacity=".8" d="M83.9 108.3v41.3l2.6 3 17-2.4z"/><path fill="#f6f7f5" fill-opacity=".7" d="M138 66.1l1 25-21 .8-1-25z"/><path fill="#fff" fill-opacity=".5" d="M129 122h19v32h-19z"/><path fill="#f7f9f9" fill-opacity=".6" d="M118 13h32v44h-32z"/><path fill-opacity=".7" d="M112 0h5v63h-5z"/><path fill="#201308" fill-opacity=".6" d="M102 93h7v55h-7z"/><path fill="#070607" fill-opacity=".7" d="M182 119.6l-34-84.5 99.8 77.3-126.9-5.8z"/><path fill="#0c0d0d" fill-opacity=".6" d="M127.3 89l-13.6 8.1 20 15.4-12 56.3z"/><path fill="#fffef1" fill-opacity=".4" d="M105 63h8v47h-8z"/><path fill="#8a8a87" fill-opacity=".6" d="M81 4h66v5H81z"/><path fill="#f9ffff" fill-opacity=".4" d="M142 79h10v77h-10z"/><path fill="#000001" fill-opacity=".8" d="M83 123L54 81l28 89z"/><ellipse cx="154" cy="113" fill="#0b0c0d" fill-opacity=".8" rx="3" ry="169"/><path fill="#090a00" fill-opacity=".6" d="M104 78.7l-7.8 6.1-4.3-5.5 7.9-6.1z"/><path fill="#f8fcf9" fill-opacity=".6" d="M82 63h12v45H82z"/><path fill="#050707" fill-opacity=".8" d="M238.3 162.1L43.6 151.9v-2l194.8 10.2z"/><path fill="#f4faf3" fill-opacity=".5" d="M98.5 150.9l4.2-41.3-18.4 9.5.7 26.2z"/><path fill="#b4e7f7" fill-opacity=".5" d="M128 159h28v3h-28z"/><path fill="#2b1c17" fill-opacity=".8" d="M98.8 108.2l6.2-16.6 4.4 11.8-95.7 27.9z"/><path fill="#eaeded" fill-opacity=".6" d="M150.2 11.5l1.6 30-20 1-1.6-30z"/><circle r="1" fill="#eff1f0" fill-opacity=".7" transform="matrix(-3.94727 -11.88844 8.71144 -2.89242 135 94.2)"/><ellipse cx="121" cy="109" fill="#080405" fill-opacity=".6" rx="75" ry="2"/><path fill="#0c0806" d="M17 0h62v80H17z"/><path fill="#cdc6be" fill-opacity=".5" d="M80 34h32v26H80z"/><path fill="#fff" fill-opacity=".5" d="M80 14h30v17H80z"/><path fill="#f0fefb" fill-opacity=".4" d="M133 116h19v39h-19z"/><path fill="#fffef4" fill-opacity=".5" d="M109 83L86 62h26z"/><path fill="#ddf6f1" fill-opacity=".4" d="M112 127.5l-4.8 28 3.7-4.9.9 2.5z"/><path fill-opacity=".5" d="M98 8h91v4H98z"/><path fill="#020000" fill-opacity=".6" d="M113 62h5v44h-5z"/><ellipse cx="94" fill-opacity=".7" rx="46" ry="5"/><path fill="#f5f5f0" fill-opacity=".6" d="M118 64h29v14h-29z"/><path fill="#e2e5e2" fill-opacity=".7" d="M153 152.4l-24.4.7-.1-21.6 11.3-21.9z"/><path fill="#000001" fill-opacity=".6" d="M121 91l13 23-8 22z"/><path fill="#bebbb9" fill-opacity=".5" d="M129 34h23v25h-23z"/><path fill="#141011" fill-opacity=".5" d="M151 31h5v44h-5z"/><path fill="#050404" fill-opacity=".7" d="M153 61h82v109h-82z"/><ellipse cx="146" cy="4" fill="#bbc1c4" fill-opacity=".4" rx="9" ry="3"/><path fill="#855541" fill-opacity=".5" d="M98 97h12v14H98z"/><path fill="#f5f2f1" fill-opacity=".7" d="M98.7 86.6l1.8 11.7 11.2-16.1-4.3-1.4z"/><path fill="#070000" fill-opacity=".5" d="M80 107h23v5H80z"/><ellipse cx="113" cy="17" fill-opacity=".3" rx="3" ry="60"/><path fill="#65403e" fill-opacity=".5" d="M79 30h2v57h-2z"/><path fill="#010709" fill-opacity=".5" d="M51 151h55v6H51z"/><path fill="#c6cbcd" fill-opacity=".5" d="M119 147v9l2-4z"/><path fill="#040304" fill-opacity=".7" d="M38 110h45v60H38z"/><path fill="#fff" fill-opacity=".5" d="M85 147h19v4H85z"/><path fill="#e5e5e0" fill-opacity=".7" d="M103.3 152.1l-11.8-4.9 11.4-35-15.9 1.6z"/><path fill="#100f0d" fill-opacity=".5" d="M126.8 143.8l-30.4-48 9.1 29.7 23-26.8z"/><ellipse cx="177" cy="58" fill="#050101" fill-opacity=".3" rx="47" ry="1"/><path fill="#f4ffff" fill-opacity=".5" d="M84 90l20 18-21-6z"/><path fill="#fff" fill-opacity=".4" d="M119 13h32v19h-32z"/><path fill="#f7fffe" fill-opacity=".3" d="M151.4 82.1l-3.2 23.8-18.2 3.5 20.4-47.7z"/><path fill="#7b7a7c" fill-opacity=".6" d="M154 13h1v34h-1z"/></g></svg>