<svg xmlns="http://www.w3.org/2000/svg" viewBox="0 0 298 450"><defs/><path fill="#444343" d="M0 0h298v450H0z"/><g transform="translate(.9 .9) scale(1.75781)"><circle r="1" fill="#afafaf" fill-opacity=".7" transform="rotate(-14.6 144.3 -331.7) scale(86.26577 63.75683)"/><circle r="1" fill="#dfe0e0" fill-opacity=".5" transform="matrix(20.8707 45.44976 -28.15859 12.93053 85.6 204)"/><circle r="1" fill="#bcbdbd" fill-opacity=".6" transform="matrix(6.02128 -21.34218 39.79938 11.22862 134.6 134.1)"/><circle r="1" fill="#0b0b0b" fill-opacity=".8" transform="matrix(-6.83227 -104.01669 24.26306 -1.5937 26.3 183.5)"/><circle r="1" fill="#9b9b9b" fill-opacity=".8" transform="matrix(15.78635 -11.2008 22.10376 31.15294 94.7 88.9)"/><circle r="1" fill-opacity=".7" transform="rotate(-171.3 85.1 84.4) scale(41.71389 23.59446)"/><path fill-opacity=".7" d="M120.3 60.8l33-.6.4 19-33 .6z"/><path fill="#0d0d0d" fill-opacity=".8" d="M31.5 72l58 40.9 20.7 53.4-34-11.7z"/><circle r="1" fill="#989999" fill-opacity=".6" transform="rotate(-60.7 255.4 -8) scale(18.11651 25.83849)"/><ellipse cx="165" cy="65" fill="#929292" fill-opacity=".8" rx="7" ry="92"/><path fill="#9f9f9f" fill-opacity=".7" d="M5 1h63v76H5z"/><circle r="1" fill="#8e8e8e" fill-opacity=".6" transform="matrix(-39.1222 -47.798 18.02013 -14.7493 91.8 255)"/><path fill-opacity=".7" d="M121 239h49v17h-49z"/><path fill-opacity=".5" d="M12 77h41v32H12z"/><path fill="#171818" fill-opacity=".5" d="M122 63h34v57h-34z"/><path fill="#eef0f0" fill-opacity=".4" d="M46.6 141.7l20.5-4.6-11.7-10.4-12.5-8.1z"/><ellipse cx="63" cy="173" fill="#d4d4d4" fill-opacity=".6" rx="12" ry="15"/><ellipse cy="199" fill="#676868" fill-opacity=".5" rx="32" ry="16"/><path fill="#989898" fill-opacity=".7" d="M51.4 98.1l71.3-26.8-11.3 99.8L68.6 28.7z"/><ellipse cx="1" cy="25" fill="#141414" fill-opacity=".9" rx="3" ry="173"/><path fill="#080808" d="M173.5 258.4l-31.2-94.2 26.6-5.7 16.1-18.4z"/><ellipse cx="102" cy="184" fill="#777878" fill-opacity=".8" rx="15" ry="19"/><path fill="#050505" fill-opacity=".8" d="M56.7 152.2l35.7-24.4-63.8 61.3 1.1-69.7z"/><path fill="#9d9d9d" fill-opacity=".6" d="M108 122h62v36h-62z"/><path fill="#787878" fill-opacity=".9" d="M106.6 246.8l8.2-48.2L162 250l.8-25z"/><path fill="#b2b2b2" fill-opacity=".4" d="M129.9 268.1L78.5 271l11.6-118.7-27.6 13.2z"/><path fill="#dfdfdf" fill-opacity=".5" d="M65 213l5-34-21 16z"/><circle r="1" fill="#020202" fill-opacity=".7" transform="matrix(6.4572 -34.35753 21.51425 4.04341 30.4 244.7)"/><path fill="#4a4b4b" fill-opacity=".5" d="M21 117l-17 4 2 56z"/><circle r="1" fill-opacity=".5" transform="matrix(13.20355 -4.6417 1.70011 4.83606 45.1 209.2)"/><path fill="#646464" fill-opacity=".5" d="M144 80l14 11-43 27z"/><path fill="#2e2e2e" fill-opacity=".5" d="M117 56h3v63h-3z"/><ellipse cx="162" cy="91" fill="#2f2f2f" fill-opacity=".6" rx="2" ry="33"/><path fill="#5d5d5d" fill-opacity=".6" d="M71 180h6v62h-6z"/><path fill="#050606" fill-opacity=".6" d="M93.1 171.1l-22-75.3 12 10.9 26.6 55.4z"/><path fill="#0c0c0c" fill-opacity=".9" d="M116.9 177.8l-6.2-20.1 34.7 3.6-27.4 43.6z"/><path fill="#959595" fill-opacity=".8" d="M6 0h164v60H6z"/><circle r="1" fill="#060606" fill-opacity=".5" transform="matrix(-5.1648 -11.21498 38.72657 -17.83462 14 98.4)"/><path fill="#6d6d6d" fill-opacity=".9" d="M27.4 202.7l-8.2-.9-35.2 5.9 2.2 12.3z"/><circle cx="43" cy="185" r="10" fill-opacity=".5"/><path fill="#3a3a3a" fill-opacity=".5" d="M40 271l33-26-12-19z"/><path fill="#0b0b0b" fill-opacity=".5" d="M63 116h32v42H63z"/><path fill="#626363" fill-opacity=".5" d="M135.8 177.2L123 205.7l27.2 8.4-11-18.2z"/><circle r="1" fill="#393a3a" fill-opacity=".7" transform="matrix(12.92743 -13.59158 5.446 5.17989 54.6 108.2)"/><path fill="#c9c9c9" fill-opacity=".4" d="M87.3 156.1l7 36.3-17.6 3.5-7-36.3z"/><path fill="#090909" fill-opacity=".5" d="M123 66h14v48h-14z"/><path fill="#adadad" fill-opacity=".4" d="M4.4 84.1l6.8-67.9 27.1 62.6L13 76.4z"/><path fill="#9a9a9a" fill-opacity=".7" d="M92.6 121.4L94.1 77 64.6 91.5l18.1 8.9z"/><path fill="#9b9c9c" fill-opacity=".7" d="M28.7 170.5l-6.9 1.5 2-.4-2 6.6z"/><circle r="1" fill="#111" fill-opacity=".6" transform="matrix(-5.29344 -9.99203 6.08662 -3.22449 9.1 193.4)"/><path fill-opacity=".5" d="M139 110l17-16 5 17z"/><path fill="#dedede" fill-opacity=".5" d="M56.3 130l-4.6 7.7-6-3.6 4.6-7.8z"/><path fill="#808181" fill-opacity=".3" d="M181 269l-22-50 3 27z"/><path fill="#575757" fill-opacity=".4" d="M114.5 195.5l3.3 4.1-26.4 9.4-17.8-6.8z"/><path fill="#0a0a0a" fill-opacity=".9" d="M27.6 85l-6.3 81.4-13.2-17.3 46.4-62.4z"/><path fill-opacity=".5" d="M120 240h36v16h-36z"/><circle cx="51" cy="215" r="5" fill="#aeaeae" fill-opacity=".5"/><path fill="#323232" fill-opacity=".5" d="M113 60h50v5h-50z"/><path fill="#131313" fill-opacity=".5" d="M8 77h46v25H8z"/><path fill="#8c8c8c" fill-opacity=".5" d="M118 213h40v26h-40z"/><path fill="#5c5d5d" fill-opacity=".5" d="M-16 222l7 24 28-14z"/><path fill="#6e6e6e" fill-opacity=".5" d="M148.1 83.9l-8.6 22.4-5.6-2.2 8.6-22.4z"/><path fill="#f4f5f5" fill-opacity=".2" d="M-9.7 83.3l18.9-1.1v3.5l-12.6 5.2z"/><circle r="1" fill="#5f5f5f" fill-opacity=".4" transform="matrix(-3.24285 -2.27267 11.85521 -16.91606 105.9 235.2)"/><path fill="#ccc" fill-opacity=".5" d="M53 163h10v38H53z"/></g></svg>