<svg xmlns="http://www.w3.org/2000/svg" viewBox="0 0 300 199"><defs/><path fill="#394231" d="M0 0h300v199H0z"/><g transform="translate(.6 .6) scale(1.17188)"><circle r="1" fill="#e6ffff" fill-opacity=".8" transform="matrix(-21.2062 -19.93541 39.11737 -41.61092 143.7 0)"/><circle r="1" fill="#ddd6e1" fill-opacity=".6" transform="rotate(172.8 53.8 76.6) scale(17.55125 67.71877)"/><circle r="1" fill="#000c00" fill-opacity=".7" transform="matrix(-35.13572 60.51567 -44.87 -26.05176 33.4 39.8)"/><ellipse cx="183" cy="93" fill="#5d82b3" fill-opacity=".7" rx="25" ry="37"/><circle r="1" fill="#031001" fill-opacity=".9" transform="rotate(65.3 86 201) scale(46.25912 41.98214)"/><circle r="1" fill="#080716" fill-opacity=".6" transform="matrix(51.64602 5.6749 -4.29511 39.08889 42.9 153.1)"/><circle r="1" fill="#c9b1bc" fill-opacity=".5" transform="matrix(-17.313 -19.75334 5.32951 -4.6711 132.8 60.4)"/><path fill="#f8a59f" fill-opacity=".4" d="M80 122l-17-10 12-59z"/><circle r="1" fill="#191409" fill-opacity=".5" transform="matrix(-73.41245 -6.87007 1.90073 -20.31086 249.7 126.4)"/><path fill="#6a816f" d="M88.5 5.8l17-15.1-11.2 68.9 20-37.1z"/><path fill="#000018" fill-opacity=".6" d="M164 117l-11 68-30-82z"/><path fill="#c0c0cc" fill-opacity=".5" d="M101.3 185h-7.1l3-52.6 38.6-59.3z"/><path fill="#dcf7ff" fill-opacity=".3" d="M102-1l123-15-103 70z"/><circle r="1" fill="#000551" fill-opacity=".5" transform="matrix(11.43754 2.30132 -8.45923 42.04228 86.5 136.8)"/><circle r="1" fill="#666741" fill-opacity=".5" transform="matrix(-28.02362 25.49954 -8.13636 -8.94175 153 40)"/><path fill-opacity=".6" d="M116.9-6.5l3.5 4.8-11.3 8.2-3.5-4.8z"/><path fill="#010912" fill-opacity=".6" d="M176 62h4v55h-4z"/><path fill="#9e7b69" fill-opacity=".6" d="M99 128l24-81-29 43z"/><path fill="#000100" fill-opacity=".6" d="M77 98L26 38l-42 52z"/><path fill="#0a1803" fill-opacity=".6" d="M113.5 61L96.8 82.3 64.5 57l16.7-21.3z"/><ellipse cx="167" cy="88" fill="#66aff2" fill-opacity=".4" rx="10" ry="22"/><path fill="#7699c1" fill-opacity=".7" d="M207.3 92.6l-9.9 30.4-4.7-1.6 9.9-30.4z"/><circle r="1" fill="#091c02" fill-opacity=".5" transform="matrix(10.47251 -1.28586 2.85127 23.2217 183.9 29.5)"/><path fill="#00002a" fill-opacity=".4" d="M130 82h28v26h-28z"/><circle r="1" fill="#395029" fill-opacity=".5" transform="matrix(35.73685 39.6898 -7.61321 6.85497 19.8 0)"/><circle r="1" fill="#6e4f49" transform="rotate(114.6 68.6 85.6) scale(8.43903 8.30631)"/><circle r="1" fill="#d9f1f9" fill-opacity=".4" transform="matrix(5.41202 -2.01762 9.87273 26.48239 120 122)"/><path fill="#0b000e" fill-opacity=".4" d="M127 42h6v43h-6z"/><path fill="#6da4d7" fill-opacity=".6" d="M181 71h13v38h-13z"/><path fill="#030d00" fill-opacity=".5" d="M251 72l-17 53 32 21z"/><path fill="#9c7586" fill-opacity=".5" d="M133 51h14v36h-14z"/><path fill="#b69481" fill-opacity=".6" d="M79 109L55 95l16 27z"/><path fill="#748a59" fill-opacity=".5" d="M92.8 33.3l26.9 12-17.2 12.2-10.2-8.4z"/><path fill="#0f1b07" fill-opacity=".5" d="M8.9 185l69-154.6 33.8-8-49.2-38.3z"/><path fill="#000f3a" fill-opacity=".5" d="M65.1 185l12.7-54.2 5-61.8 21.4 42z"/><path fill="#e5eff0" fill-opacity=".7" d="M118.2 42.6l-12.6-12.5 31.4-9.9-14.1 39.4z"/><path fill="#b2fdff" fill-opacity=".2" d="M200.2 13.8l-29.9-15 12-14.8 25.6 28.3z"/><path fill="#aa9bab" fill-opacity=".4" d="M156 72.7l-56.1 27.6 33.2-9.5-1.5-17.8z"/><path fill="#8c8e95" fill-opacity=".5" d="M146.2 192.4l-23.4 5-11-51.8 23.4-5z"/><path fill="#819c68" fill-opacity=".5" d="M164 51l-24-14 22-15z"/><ellipse cx="102" cy="145" fill="#b9d5e9" fill-opacity=".4" rx="5" ry="30"/><path fill="#d8f0ff" fill-opacity=".5" d="M137 32l61-48L98 10z"/><path fill="#ae86a0" fill-opacity=".5" d="M145 101h7v12h-7z"/><path fill="#aa7b6e" fill-opacity=".5" d="M81 73l-5 38-9-49z"/><ellipse cx="151" cy="160" fill="#00000c" fill-opacity=".5" rx="11" ry="33"/><path fill="#0c192c" fill-opacity=".5" d="M143 87l-22 20 27 41z"/><path fill="#071107" fill-opacity=".9" d="M271 82.7l-73.4-28.6 11.2 32.3 14.6-6.8z"/><path fill="#03001e" fill-opacity=".4" d="M178.8 71.5l-21.8-17-60.8 23.4 48.3-14.5z"/><path fill="#7e6037" fill-opacity=".3" d="M128.1 151L92.2 96.7l10 1.4 11 58.3z"/><circle r="1" fill="#3d3530" fill-opacity=".5" transform="matrix(22.48862 15.57186 -5.42345 7.83245 195.4 125.9)"/><path fill="#181625" fill-opacity=".5" d="M156 109l-18-43 3 27z"/><path fill="#c49eb4" fill-opacity=".4" d="M164 106l19 42-4-25z"/><path fill="#352a29" fill-opacity=".5" d="M160 136h96v34h-96z"/><ellipse cx="50" cy="136" fill="#393421" fill-opacity=".5" rx="15" ry="44"/><path fill="#cbdaf7" fill-opacity=".6" d="M144.2 81.2l-2.7-14.4 8.9 6.4-.3 3.7z"/><circle cx="12" cy="106" r="8" fill="#3e4437" fill-opacity=".9"/><path fill="#b37d6a" fill-opacity=".5" d="M194 76l4-16-11-6z"/><path fill="#00021b" fill-opacity=".6" d="M125.3 86l-9.6-2.7 5-17.3 9.6 2.7z"/><circle r="1" fill="#221e00" fill-opacity=".4" transform="rotate(-30.6 289 53.2) scale(24.27384 109.38597)"/><path fill="#fcc8c5" fill-opacity=".2" d="M127.2 52l18.5-4.4-18.6 14.7L92.8 93z"/><path fill="#140907" fill-opacity=".6" d="M129 42h17v7h-17z"/><path fill="#060b06" fill-opacity=".8" d="M71.3 93.1l.2 10.9L-16 46.7l70.4 17.2z"/><path fill="#0d1b0b" fill-opacity=".8" d="M186.1 69l-4.6-13.9 54 1.8-45.7-40.6z"/><path fill="#131c0a" fill-opacity=".6" d="M70 35l50.6 46.3-17.8-8-19.2 17.1z"/><path fill="#c1a18f" fill-opacity=".5" d="M72 93h6v30h-6z"/></g></svg>