<svg xmlns="http://www.w3.org/2000/svg" viewBox="0 0 300 199"><defs/><path fill="#513e29" d="M0 0h300v199H0z"/><g transform="translate(.6 .6) scale(1.17188)"><ellipse cx="119" cy="62" fill="#cee8f4" fill-opacity=".7" rx="73" ry="36"/><circle r="1" fill="#cfecf8" fill-opacity=".6" transform="matrix(16.6597 -6.6297 13.73613 34.51738 166.8 31.7)"/><ellipse cx="231" cy="110" fill="#00120e" fill-opacity=".7" rx="48" ry="111"/><path fill="#7f8c8d" fill-opacity=".8" d="M27 6l61 25-63 59z"/><circle r="1" fill="#7c727b" fill-opacity=".6" transform="rotate(82.7 -.4 118.2) scale(21.99982 62.71184)"/><path fill="#0b251e" fill-opacity=".6" d="M58 0h79v34H58z"/><path fill="#bccbcf" fill-opacity=".6" d="M209 12L104 95l46-76z"/><circle r="1" fill="#060e1f" fill-opacity=".5" transform="matrix(.9935 28.45036 -64.70658 2.2596 5.8 146.6)"/><circle cx="92" cy="55" r="29" fill="#f7ffff" fill-opacity=".3"/><path fill="#000e10" fill-opacity=".6" d="M55.9 41.7L.1 73.1-16 5l51.5 68z"/><path fill="#d5e7ed" fill-opacity=".5" d="M30 16l30 11-15 22z"/><ellipse cx="134" cy="82" fill="#00000c" fill-opacity=".7" rx="4" ry="11"/><path fill="#ddeff6" fill-opacity=".3" d="M182.9 36.3l17.9 15.3-16 44.2L66.7 42.4z"/><ellipse cx="16" cy="111" fill="#8b746a" fill-opacity=".8" rx="136" ry="6"/><path fill="#73858a" fill-opacity=".7" d="M225.2 26.6l4.7-11.2 6.3 10-10.9 34.3z"/><ellipse cx="159" cy="32" fill="#223f39" fill-opacity=".5" rx="79" ry="3"/><ellipse cx="39" fill="#000600" fill-opacity=".7" rx="68" ry="9"/><path fill="#000e0a" fill-opacity=".6" d="M164 20l83-36h-63z"/><ellipse cx="110" cy="145" fill="#4f434a" fill-opacity=".7" rx="65" ry="28"/><path fill="#877b89" fill-opacity=".5" d="M17 64h44v25H17z"/><path fill="#0d1303" fill-opacity=".5" d="M271 159l-118-52 71-37z"/><circle r="1" fill="#81a0ac" fill-opacity=".5" transform="matrix(3.25935 3.81877 -31.40347 26.8031 0 32.5)"/><path fill="#6f92a4" fill-opacity=".4" d="M231 101l34-6-24-21z"/><path fill="#24293f" fill-opacity=".6" d="M0 88h79v16H0z"/><circle r="1" fill="#30311f" fill-opacity=".7" transform="matrix(11.67378 -31.38985 23.81926 8.8583 186.5 144)"/><path fill="#ced7dc" fill-opacity=".7" d="M130.1 101.2l-9.6-67.9 22.5 1.8-27.5 66.4z"/><path fill="#799dae" fill-opacity=".5" d="M194 31.3l-7.3-15.4 59-31.9-36.5 29z"/><path fill="#6f7974" fill-opacity=".8" d="M25.4 50.9L60.5 59l9-13.9-54.2-6.8z"/><path fill="#7d8a8d" fill-opacity=".6" d="M177 45l32 4-13 11z"/><circle cx="250" cy="156" r="44" fill="#030200" fill-opacity=".6"/><path fill="#79635f" fill-opacity=".4" d="M81.8 185l28.5-7.9 65.4-60.9L138 86.5z"/><path fill="#2d3628" fill-opacity=".5" d="M60.2 99.2l-3.1-44 13.3-43.1-8 44.8z"/><path fill="#ebffff" fill-opacity=".5" d="M50 55h8v26h-8z"/><path fill="#0d150a" fill-opacity=".9" d="M271 44.9l-14.5 27.4-67.5 3.3.6-10.8z"/><path fill="#091307" fill-opacity=".5" d="M36 0h63v21H36z"/><path fill="#cedee5" fill-opacity=".6" d="M165.9 35.6L161.4-16l-6.1 29.3-15.3-.9z"/><path fill="#b8ced3" fill-opacity=".3" d="M162.8 109L98.5-16l23.8 1-3.9 26.9z"/><path fill="#09100e" fill-opacity=".7" d="M6.7 83.6l-22.7 13L0 37l22 49.3z"/><path fill="#c6d5d9" fill-opacity=".4" d="M82.4 25L112 96.5 85.1 55 67.7 26z"/><path fill="#f7feff" fill-opacity=".5" d="M29 6h6v15h-6z"/><path fill="#8bb5cd" fill-opacity=".6" d="M248.7-16l.9 21.2 13.6 14.3-4.8-35.5z"/><path fill="#151d17" fill-opacity=".5" d="M111.4 37.4l-9.1-26.5 12.3-4.3 9.1 26.5z"/><path fill="#8598a3" fill-opacity=".4" d="M216 29l36-17-9 15z"/><ellipse cx="172" cy="82" fill="#a0eafb" fill-opacity=".3" rx="35" ry="4"/><path fill="#060d08" fill-opacity=".5" d="M-7.7 52.4l40.4 12.7 19.8 3L6.7 39.2z"/><path fill="#32363a" fill-opacity=".4" d="M91 98l4-13-42 3z"/><path fill="#020b03" fill-opacity=".7" d="M204.6-15.9l21.5 56-4.7 1.8-21.5-56z"/><path fill-opacity=".5" d="M121 71h3v6h-3z"/><circle r="1" fill="#352e31" fill-opacity=".6" transform="rotate(-62.3 152.8 26.2) scale(34.11737 27.72294)"/><path fill="#04190a" fill-opacity=".4" d="M134 31l18-1-34-46z"/><path fill="#cfdde1" fill-opacity=".4" d="M104 85l25-23-40-43z"/><path fill="#040902" fill-opacity=".7" d="M240.2 11.5L258-16 225 2.7l-38.2 41.4z"/><path fill="#55615d" fill-opacity=".9" d="M34.6 46.3l-45.5-17 51.4 5.1-6.2-8.4z"/><path fill="#edfefd" fill-opacity=".3" d="M12.5 34.6l51 .5-31 17.8 8-19.8z"/><path fill="#111c17" fill-opacity=".8" d="M28.9 23.6l-42.3 60.8 27.1-39.7L20 16.6z"/><path fill="#272630" fill-opacity=".6" d="M132.9 104.1L130 67.9l2.6 2.5 4.8 31.8z"/><path fill="#020e10" fill-opacity=".7" d="M-16 1.6L3.9 24.7l5.5-9.3L12.7-.5z"/><path fill="#767d80" fill-opacity=".6" d="M145.9 86l12.8-.4 37.6.6-65.9 26.4z"/><path fill="#bce6fb" fill-opacity=".3" d="M199.2-16L220 14l3.8-30-83.5 28z"/><path fill="#9a716e" fill-opacity=".5" d="M71 102h83v16H71z"/><path fill="#c4d8dc" fill-opacity=".6" d="M61 65h59v20H61z"/><path fill="#bcd7d5" fill-opacity=".4" d="M17 70h41v4H17z"/><path fill="#1c2319" fill-opacity=".7" d="M89.7 10.6L3.8.9 72 18.5l19.9 16.3z"/><path fill="#30473c" fill-opacity=".4" d="M209.1 58.8l-19.7 1-8.2 19.3 29.5 5.2z"/><path fill="#a2b2b1" fill-opacity=".7" d="M36.2 40.6l20.7-22.8 6.5 32.7-21.8-16.9z"/></g></svg>