<svg xmlns="http://www.w3.org/2000/svg" viewBox="0 0 300 199"><defs/><path fill="#4d352f" d="M0 0h300v199H0z"/><g transform="translate(.6 .6) scale(1.17188)"><ellipse cx="23" cy="27" fill="#e7f4fe" fill-opacity=".9" rx="51" ry="35"/><circle r="1" fill="#ecf3f6" fill-opacity=".9" transform="rotate(174.5 64.7 21.3) scale(28.85038 33.03437)"/><ellipse cx="236" cy="84" fill="#c5eefd" fill-opacity=".4" rx="81" ry="69"/><ellipse cx="202" cy="42" fill="#f1ffff" fill-opacity=".7" rx="19" ry="30"/><ellipse cx="77" cy="109" fill="#e3dacf" fill-opacity=".5" rx="43" ry="14"/><circle r="1" fill="#34302e" fill-opacity=".8" transform="matrix(16.76584 -5.19271 15.60246 50.37608 210 135.8)"/><path fill="#e5feff" fill-opacity=".6" d="M243 78.2l24.8 25.5-10.2 81.3-37.4-67z"/><circle r="1" fill="#060302" fill-opacity=".8" transform="rotate(114.7 106.4 103.1) scale(176.9252 5.37043)"/><circle r="1" fill="#010000" fill-opacity=".6" transform="rotate(60.4 46 174) scale(60.61748 7.81309)"/><path fill="#f4fafa" fill-opacity=".8" d="M184.8 8.8L170.5 5l-12.1 1.1 12.5 18.6z"/><circle r="1" fill-opacity=".6" transform="matrix(26.29009 -48.01983 26.60971 14.5684 6.5 111)"/><path fill="#d0f0ff" fill-opacity=".7" d="M180 35l33 67 21-51z"/><path fill="#e9efef" fill-opacity=".9" d="M104.9 2.7L87.6 13.9 81.9-7 99-16z"/><path fill="#d2d8d7" fill-opacity=".5" d="M137 108l36-50 21 45z"/><path fill="#0d0c0d" fill-opacity=".9" d="M223.6 13L271 7.1 196.9-6.2 271 115.5z"/><ellipse cx="82" cy="78" fill="#070500" fill-opacity=".7" rx="74" ry="15"/><circle r="1" fill="#d4eefd" fill-opacity=".7" transform="rotate(-5.2 700.8 -903.5) scale(8.3951 7.62855)"/><circle r="1" fill="#7a5a4e" fill-opacity=".8" transform="matrix(.94115 23.46514 -30.55664 1.22557 172.7 121)"/><path fill="#f3f6f6" fill-opacity=".7" d="M137-16L96.5 35.4 147 70.6l1.2-52.5z"/><path fill-opacity=".6" d="M50 84l89-100-58 36z"/><circle r="1" fill="#000200" fill-opacity=".5" transform="rotate(12.8 -665 633.6) scale(30.42067 48.20344)"/><path fill="#140b03" fill-opacity=".8" d="M120 93l62-61-65 112z"/><circle r="1" fill="#9ce2ff" fill-opacity=".5" transform="rotate(-110.7 169 5.6) scale(23.7126 4.75254)"/><ellipse cx="160" cy="72" fill="#160c02" fill-opacity=".7" rx="46" ry="3"/><circle r="1" fill="#110a06" fill-opacity=".9" transform="matrix(10.8506 -5.17848 40.06146 83.94181 38.5 169)"/><path fill="#dde4e9" fill-opacity=".9" d="M48.7 64.1l-21.8-4.8L53.5-16l26 46z"/><path fill="#fff" fill-opacity=".5" d="M241 42l-19-29 27 7z"/><ellipse cx="69" cy="120" fill="#846c60" fill-opacity=".8" rx="44" ry="10"/><path fill="#0f0c0b" fill-opacity=".9" d="M158.2 77.1l34.6-66.9 78.2 11L189.7-16z"/><path fill="#f4ffff" fill-opacity=".5" d="M202 5l-19 27 52 24z"/><circle r="1" fill="#110c09" fill-opacity=".7" transform="matrix(38.03654 68.61974 -5.0955 2.82448 227 145)"/><path fill="#fff" fill-opacity=".5" d="M43 97h70v4H43z"/><circle r="1" fill="#070400" fill-opacity=".6" transform="matrix(7.50738 -3.92476 25.40144 48.58847 89.5 33.2)"/><path fill="#faffff" fill-opacity=".4" d="M153 81l29-7 12 26z"/><path fill="#493125" fill-opacity=".6" d="M182.1 98.8l-5.9 6.8L162 93.2l5.9-6.8z"/><path fill="#eef4f7" fill-opacity=".6" d="M222 116l46-11-28-31z"/><path fill="#4280a6" fill-opacity=".5" d="M251.2 180l-16.7-34.2 24.3-11.8 16.7 34.2z"/><path fill="#f1f4f6" fill-opacity=".5" d="M146 59.3l19.8-20.4L134.5.6 99.2 28.5z"/><path fill="#141212" fill-opacity=".8" d="M271 96l-32.4-28.3L208.5-.4 232.9 34z"/><ellipse cx="101" cy="169" fill="#101a19" fill-opacity=".6" rx="117" ry="17"/><path fill="#0d0800" fill-opacity=".6" d="M60 65h45v32H60z"/><ellipse cx="74" cy="145" fill="#d78378" fill-opacity=".4" rx="27" ry="5"/><path fill="#e1f9ff" fill-opacity=".7" d="M249 56l20 31-4-67z"/><path fill="#050404" fill-opacity=".7" d="M216.2 13.5L135.5-.7l2.3-12.8L218.5.7z"/><path fill="#d3eaf7" fill-opacity=".6" d="M71.7 65l23-3.3 1.8 9.7-10.2-24.9z"/><circle cx="127" cy="141" r="6" fill="#de988c" fill-opacity=".5"/><circle r="1" fill="#e1eeef" fill-opacity=".5" transform="matrix(3.71517 2.54383 -12.65152 18.47708 152.5 95.9)"/><path fill="#130000" fill-opacity=".6" d="M143.2 133.3l-.2-2 65.8-4.6.2 2z"/><path fill="#120d0b" fill-opacity=".6" d="M146.3 69.1l36.8-19.5-45.9-61.4 25.7 50.4z"/><path fill="#def1fc" fill-opacity=".5" d="M147 64l-31 2-17-32z"/><path fill="#c8b8af" fill-opacity=".6" d="M55 100l-22 12 64-2z"/><path fill="#17120d" fill-opacity=".7" d="M113.3-16L35.5 114.7l30.4-72 48.7-30.2z"/><path fill="#1a130e" fill-opacity=".7" d="M33.1 146.3L19.8 60.8l-23.5.1 4.4 37z"/><path fill="#fff" fill-opacity=".5" d="M88 0h7v14h-7z"/><circle r="1" fill="#cbe5fe" fill-opacity=".5" transform="matrix(-14.71095 -.64897 1.0718 -24.29592 215.1 61)"/><path fill="#8fc1eb" fill-opacity=".5" d="M18 23L8-1l44 31z"/><path fill="#b07871" fill-opacity=".5" d="M151 134h47v8h-47z"/><circle r="1" fill="#180c06" fill-opacity=".6" transform="rotate(-26.3 324.7 -223.3) scale(7.09561 95.19346)"/><path fill="#d6edff" fill-opacity=".4" d="M220.2 12.5l6.8 4.7 25.4 4.6-13.2 22.3z"/><path fill="#f3f7f8" fill-opacity=".5" d="M52 60l16-28-84 28z"/><ellipse cx="183" cy="92" fill="#fff" fill-opacity=".3" rx="6" ry="12"/><path fill="#050000" fill-opacity=".5" d="M42 135h54v4H42z"/><ellipse cx="79" cy="99" fill="#eafbff" fill-opacity=".6" rx="35" ry="2"/><path fill="#7e6559" fill-opacity=".5" d="M32 112h78v21H32z"/><path fill="#e4edf8" fill-opacity=".6" d="M178.3 43.7l19.4-34.6 14.4 10.6-24.8 31.2z"/></g></svg>