<svg xmlns="http://www.w3.org/2000/svg" viewBox="0 0 300 199"><defs/><path fill="#6a3e33" d="M0 0h300v199H0z"/><g transform="translate(.6 .6) scale(1.17188)"><circle r="1" fill="#dfcabc" fill-opacity=".8" transform="rotate(136.2 24.8 60.6) scale(37.77873 27.73529)"/><circle r="1" fill="#000509" fill-opacity=".8" transform="matrix(-57.2072 133.6941 -70.85433 -30.3183 198.5 112.2)"/><ellipse cx="10" cy="26" fill="#070e11" fill-opacity=".8" rx="76" ry="58"/><circle r="1" fill="#b3d0b6" fill-opacity=".6" transform="matrix(-15.10111 -13.9327 21.53294 -23.33871 22.6 149.8)"/><path fill="#e9c5b1" fill-opacity=".6" d="M86 0h23v148H86z"/><circle r="1" fill-opacity=".7" transform="rotate(-94.9 94 -28.4) scale(64.73144 9.4721)"/><path fill="#fbd3c0" fill-opacity=".5" d="M134 0h22v31h-22z"/><ellipse cx="57" cy="138" fill="#0c2c0e" fill-opacity=".5" rx="17" ry="36"/><circle r="1" fill="#b18c7c" fill-opacity=".7" transform="rotate(20.5 -293.3 321.9) scale(19.77596 32.45968)"/><path fill="#bbffe7" fill-opacity=".3" d="M115.1 77.7L-.2 105.2l45.4 34.7-10-33.1z"/><path fill="#000303" fill-opacity=".8" d="M25 74L9-16l-25 164z"/><path fill="#e5e8da" fill-opacity=".5" d="M15.9 126.8l-18.1 13.7 72.1 4.4-70.8 19z"/><path fill="#5a3428" fill-opacity=".6" d="M165 0h16v74h-16z"/><path fill="#252e20" fill-opacity=".7" d="M16.4 139l27.3.5-16.5-8.9L49.7.6z"/><path fill="#ebd7d0" fill-opacity=".6" d="M68 53l-18 52 50-20z"/><path fill="#040305" fill-opacity=".5" d="M159 104l108 64-200 2z"/><path fill="#060000" fill-opacity=".6" d="M98.3 49.8l46.7 6.1-8.4-25.8-35.4 8.6z"/><path fill="#dab09c" fill-opacity=".7" d="M95 45l5 95 19-86z"/><path fill="#151305" fill-opacity=".6" d="M44.9 185l-18.2-29.3L12.3 185l66.5-42.6z"/><path fill="#fff" fill-opacity=".5" d="M9 102h14v10H9z"/><path fill="#e7c0ad" fill-opacity=".6" d="M80.5 69.8L99-4.9l18 14.2-1.7-22.2z"/><path fill="#002a00" fill-opacity=".6" d="M10.4 137.4l-21.8-3 3-21.8 21.8 3z"/><path fill="#163d28" fill-opacity=".4" d="M13 91l34-3 3 40z"/><path fill="#be8d7d" fill-opacity=".3" d="M171.2 70.5l-8.5-9.1 26.1-6.1L173 79.4z"/><path fill="#d7ac99" fill-opacity=".7" d="M117.4 25.4l.2-15.8L104 39 87.8 24.7z"/><path fill="#2a2b2e" fill-opacity=".7" d="M52.4-16l44.5 26.6-.1-20.1-19.9 28.4z"/><path fill="#c57a71" fill-opacity=".5" d="M169 10h12v12h-12z"/><path fill-opacity=".5" d="M-3 180l23 5-13-27z"/><circle r="1" fill="#2a1d16" fill-opacity=".5" transform="matrix(.29772 -24.36518 7.80288 .09534 80.4 30.8)"/><path fill="#8a442e" fill-opacity=".5" d="M115.2 68l5 .3-5.4 75.8-5-.4z"/><path fill="#8b7067" fill-opacity=".5" d="M98.1 127.5L57 117.3l32.7-14.8 11.8-37.9z"/><circle cx="23" cy="89" r="4" fill="#f8ffcb" fill-opacity=".5"/><path fill="#ddd5bf" fill-opacity=".5" d="M19.8 131.7l19.5-19.8-3.8 29 9.1-13z"/><path fill="#0e0803" fill-opacity=".7" d="M243.9-16l-82.1 27.6-2.6-10.2L189.4-16z"/><ellipse cx="129" cy="10" fill="#090300" fill-opacity=".6" rx="6" ry="20"/><path fill="#e6edf0" fill-opacity=".4" d="M79.1 115l-29-32.9-1.5 26.4 57.6-53.2z"/><path fill="#141c00" fill-opacity=".4" d="M36.3 142.9l21.5-4.9-24.7 12.5 29.8 33.3z"/><path fill="#332c11" fill-opacity=".4" d="M44.1 135.6l13.7-39.8 3.7 10.3 20.1 43.8z"/><path fill="#e3e7de" fill-opacity=".6" d="M8.9 159.9l20-11.8-22.8-12.2-.7 3.5z"/><circle cx="233" cy="12" r="45" fill="#1b2228" fill-opacity=".5"/><path fill="#c8b5ad" fill-opacity=".5" d="M84 0h5v18h-5z"/><path fill="#2c1a11" d="M120.9 172.1l-6-36.4-38.7 42.5L57 153.6z"/><path fill="#e8f4bc" fill-opacity=".3" d="M-15.7 185H50l-24.1-60.1 6.3 41.4z"/><path fill="#060907" fill-opacity=".7" d="M.5 106.1l14-46 9 43.2 1.5-5.2z"/><path fill="#6d3d2b" fill-opacity=".4" d="M75.3 75.5l1.6-42.4-11.3 44.3 17.2-29.2z"/><path fill="#a3705e" fill-opacity=".4" d="M167.3 25.4l-38.6.5 17.1 19.6 8.9-9z"/><path fill="#090300" fill-opacity=".5" d="M120 62l67-47-63 141z"/><path fill="#fff" fill-opacity=".5" d="M62 167h7v3h-7z"/><path fill="#d9aa95" fill-opacity=".4" d="M105.7 136.5l-23.1 22.6-7.5-4.7L119 84.8z"/><path fill="#a8b591" fill-opacity=".5" d="M43.8 88.4l-29 35-4-13.7L47 89.2z"/><path fill="#6d4947" fill-opacity=".9" d="M44 106.2l10.8-26.3 3-7.7-20.9 2.1z"/><path fill="#181c00" fill-opacity=".4" d="M-9.9 112.9L16 138.2l18.7-37.8L22.9 145z"/><path fill="#fffbf3" fill-opacity=".3" d="M64.6 55.5l6.7 4.6-28.2 44.7 19.1-15.9z"/><path fill="#835540" fill-opacity=".6" d="M159 16l1-15-22 15z"/><path fill="#130300" fill-opacity=".4" d="M131.7-8l.9 76.4L120.1 55l-18-3.2z"/><path fill="#f6d8ca" fill-opacity=".5" d="M138.2-13.3l14.6 3.1-5 23.5-14.6-3.1z"/><path fill="#a5a384" fill-opacity=".5" d="M59.5 138.8l8.3 7.9L51 152l-6.4 1.9z"/><circle cx="237" cy="122" r="42" fill="#000206" fill-opacity=".5"/><path fill="#18191a" fill-opacity=".8" d="M39.1 84.9L37.1-16 18.2 66.7l23.6 36.4z"/><path fill="#eae3de" fill-opacity=".5" d="M66.5 112.9l-.3 2.7-4.6-17.2 49.5-44.6z"/><path fill="#181a29" fill-opacity=".4" d="M234 46l-74 139 6-88z"/><path fill="#908866" fill-opacity=".7" d="M51.1 128.6l3.3 8.5-20.1 7.6-3.7 12.8z"/><path fill="#735a51" fill-opacity=".5" d="M131.2 174.9l-21.2-2.5-.2-12.6L64.6 185z"/><path fill="#e5e5d7" fill-opacity=".4" d="M18.5 152.1l16.8-15.2 4.6-1.3-12.4 22.9z"/><path fill="#191605" fill-opacity=".7" d="M44.3 103.9l-5 18.9 37.3 20.3-7.7 10.3z"/></g></svg>