<svg xmlns="http://www.w3.org/2000/svg" viewBox="0 0 300 199"><defs/><path fill="#4c4c4c" d="M0 0h300v199H0z"/><g transform="translate(.6 .6) scale(1.17188)"><circle r="1" fill="#010101" fill-opacity=".7" transform="matrix(36.11515 11.66488 -24.6453 76.3033 50.8 78.3)"/><circle r="1" fill="#f6f6f6" fill-opacity=".5" transform="matrix(13.85742 5.1663 -26.77285 71.81196 84.6 140.9)"/><circle r="1" fill="#f8f8f8" fill-opacity=".9" transform="rotate(80.9 -1 .8) scale(60.11022 15.43731)"/><circle r="1" fill="#696969" fill-opacity=".6" transform="matrix(9.5253 62.98316 -126.16764 19.08106 204.2 48.5)"/><circle r="1" fill="#a1a1a1" fill-opacity=".9" transform="matrix(-1.62995 -15.00393 56.663 -6.15557 45.1 169)"/><path fill-opacity=".5" d="M196 0h20v57h-20z"/><circle r="1" fill="#cecece" fill-opacity=".5" transform="rotate(-92.2 128.5 -60.8) scale(6.9721 42.83735)"/><circle r="1" fill-opacity=".6" transform="matrix(-.95943 -61.07405 35.86907 -.56348 52.2 17.6)"/><path fill="#fff" fill-opacity=".4" d="M155 101l-68 3-20 39z"/><circle r="1" fill="#010101" fill-opacity=".6" transform="matrix(-32.96329 16.87538 -6.19564 -12.10216 227.6 144)"/><circle r="1" fill="#b7b7b7" fill-opacity=".6" transform="rotate(-38.9 302.4 -190.5) scale(23.97067 8.24613)"/><circle r="1" fill-opacity=".5" transform="matrix(9.18377 -1.22056 5.0421 37.93782 122 31.2)"/><circle r="1" fill="#bababa" fill-opacity=".5" transform="rotate(-77.9 66.5 -38.1) scale(38.48515 4.4746)"/><circle r="1" fill="#0c0c0c" fill-opacity=".5" transform="matrix(53.14164 -2.29016 .49473 11.48 202 108.7)"/><circle r="1" fill="#0c0c0c" fill-opacity=".8" transform="matrix(-61.9942 29.16353 -13.48762 -28.67123 26.1 114.3)"/><path fill="#e2e2e2" fill-opacity=".6" d="M269.5 117.2l20.3 10.8-49.3 92.8-20.3-10.8z"/><circle r="1" fill="#111" fill-opacity=".6" transform="matrix(6.31518 -5.7868 16.26006 17.74475 108.8 54.3)"/><circle r="1" fill="#909090" fill-opacity=".6" transform="rotate(69.7 60.4 191.3) scale(11.86093 35.74991)"/><path fill="#fff" fill-opacity=".4" d="M84.2 56l10.4 36.6-4.8 1.4-10.4-36.6z"/><ellipse cx="130" cy="161" fill="#363636" fill-opacity=".8" rx="21" ry="53"/><circle r="1" fill="#cbcbcb" fill-opacity=".6" transform="matrix(-6.35032 -4.9335 4.01507 -5.16813 226 122.8)"/><path fill="#2e2e2e" fill-opacity=".9" d="M195.2 134.8l-14.4-61-12.4-3.9-4 78.1z"/><path fill="#d4d4d4" fill-opacity=".4" d="M153 62h12v41h-12z"/><path fill="#fff" fill-opacity=".4" d="M96 128l-41 55 25-71z"/><path fill-opacity=".6" d="M80 100L9 137l57 12z"/><circle r="1" fill="#2d2d2d" fill-opacity=".6" transform="matrix(-29.3831 -8.87128 10.71376 -35.4857 .7 94.1)"/><circle r="1" fill="#878787" fill-opacity=".5" transform="rotate(-81.4 134.3 -15.6) scale(10.77456 38.15039)"/><path fill-opacity=".5" d="M140.3 75.8l11.5-3.5 7.9 25.9-11.5 3.5z"/><path fill="#fefefe" fill-opacity=".6" d="M8-6l12 65H2z"/><path fill="#111" fill-opacity=".6" d="M235 92h16v67h-16z"/><circle r="1" fill="#0b0b0b" fill-opacity=".7" transform="matrix(41.55722 -53.69214 16.90307 13.08282 68.3 6)"/><circle r="1" fill="#8c8c8c" fill-opacity=".6" transform="rotate(178.5 12.8 26.8) scale(1 35.87125)"/><circle r="1" fill="#737373" fill-opacity=".7" transform="matrix(-1.13822 12.18026 -19.81836 -1.85198 170 156.7)"/><path fill="silver" fill-opacity=".2" d="M175 0h22v69h-22z"/><circle r="1" fill="#3f3f3f" fill-opacity=".5" transform="rotate(99.6 -6.6 115.7) scale(17.42442 12.80052)"/><path fill="#464646" fill-opacity=".9" d="M141.3 90.9l1.2 10.8h-41.3l1.3-12.5z"/><path fill="#ababab" fill-opacity=".8" d="M102.6 75.3l5.5 16.5 10.6-14-20.8-20.6z"/><circle r="1" fill-opacity=".6" transform="matrix(7.89322 -.48991 3.09168 49.81153 203.2 6.7)"/><ellipse cx="112" cy="33" fill="#fff" fill-opacity=".2" rx="10" ry="16"/><path fill="#fff" fill-opacity=".5" d="M194 130h11v12h-11z"/><path fill="#939393" fill-opacity=".5" d="M143 79.6l-23.3 8.3L151 24.8 127.5-16z"/><path fill-opacity=".5" d="M129 185l-2-39 24-33z"/><path fill="#4f4f4f" d="M141.4 108.9l-36.5 5.9 42.1 12.8-30.1 26.2z"/><ellipse cx="161" cy="137" fill="#0e0e0e" fill-opacity=".7" rx="23" ry="6"/><ellipse cx="58" cy="23" fill="#070707" fill-opacity=".6" rx="31" ry="49"/><path fill="#777" fill-opacity=".7" d="M100.8 173.1l6.9-19.7L61.9 185l16.8-36.2z"/><path fill="#ededed" fill-opacity=".5" d="M112 103h39v5h-39z"/><path fill="#6f6f6f" fill-opacity=".7" d="M220.3-16l31.2 65.8-37.2-3.5.3-62.3z"/><path fill="#fff" fill-opacity=".5" d="M98 120h25v4H98z"/><path fill="#737373" fill-opacity=".7" d="M67 153.6l-.8-2.9-23.7-1.3-58.5 17.3z"/><path fill="#010101" fill-opacity=".3" d="M152.9 56l-8.7 26.6-12.5-43.2L82.2 54z"/><path fill="#c3c3c3" fill-opacity=".5" d="M101-4l-5 36-7-15z"/><path fill="#a4a4a4" fill-opacity=".6" d="M238 53l-38 5-3 34z"/><path fill="#cdcdcd" fill-opacity=".6" d="M154 125l14 4-18 1z"/><circle r="1" fill="#1f1f1f" fill-opacity=".5" transform="matrix(3.85617 -40.794 2.19726 .2077 193.4 106)"/><path fill="#9c9c9c" fill-opacity=".4" d="M217 108l13 19 20 3z"/><ellipse cx="57" cy="86" fill="#020202" fill-opacity=".6" rx="28" ry="35"/><path fill="#a5a5a5" fill-opacity=".4" d="M215.5 164.1l10.6-10.6 6.4 6.4-10.6 10.6z"/><path fill-opacity=".5" d="M104 10l23 8-9-24z"/><path fill="#0a0a0a" fill-opacity=".3" d="M243.8 131.3l-110.9-27.9 90.7 35 15.2 41.2z"/><path fill="#c8c8c8" fill-opacity=".6" d="M7 164h64v6H7z"/><path fill="#818181" fill-opacity=".6" d="M129.7 128.6l-7.9 50.7-1.6-7.6 4.3-42.8z"/><path fill-opacity=".5" d="M106 45L91 62l5-30z"/><path fill="#bbb" fill-opacity=".5" d="M151.4 100.4l3.5 2-10.3 17.2-3.5-2z"/><path fill="#0f0f0f" fill-opacity=".6" d="M291.2 44.8l-88.1 12.4-.3-2 88.1-12.4z"/></g></svg>