<svg xmlns="http://www.w3.org/2000/svg" viewBox="0 0 300 199"><defs/><path fill="#3c4444" d="M0 0h300v199H0z"/><g transform="translate(.6 .6) scale(1.17188)"><circle cx="236" cy="75" r="95" fill-opacity=".9"/><path fill="#fff" fill-opacity=".7" d="M114.6 82l7-66.6 23.8 2.5-7 66.7z"/><circle r="1" fill="#010000" fill-opacity=".8" transform="matrix(-70.78835 41.86411 -122.86097 -207.74655 40.8 107.6)"/><ellipse cx="200" cy="2" fill-opacity=".9" rx="131" ry="11"/><circle r="1" fill="#1b1b1b" fill-opacity=".7" transform="rotate(23.4 -235 439.8) scale(97.17775 31.26822)"/><circle r="1" fill="#f0eeee" fill-opacity=".5" transform="matrix(2.35248 -9.724 16.78902 4.0617 130.2 77.4)"/><circle r="1" fill="#090808" fill-opacity=".8" transform="matrix(13.9407 26.12215 -25.3963 13.55333 91.5 48.1)"/><circle r="1" fill="#e6e4e4" fill-opacity=".7" transform="matrix(-17.68638 -.69014 .39553 -10.13631 132.6 23.5)"/><circle r="1" fill="#bababa" fill-opacity=".9" transform="rotate(110.9 108.2 114) scale(3.88842 7.55283)"/><path fill="#fff" fill-opacity=".7" d="M4.5 41.3L-8.4 36l4-9.2L8.3 32z"/><path fill-opacity=".7" d="M183.7-16l69.6 201L143.1 74.1l-7-24z"/><path fill="#fef3f3" fill-opacity=".4" d="M94.2 7.6l13.1.2 4.3 15.3-33.4-9.8z"/><path fill="#4f4f4f" fill-opacity=".6" d="M68 116l1-33 53 22z"/><circle r="1" fill="#fefefe" fill-opacity=".7" transform="rotate(-34.1 128.4 -193) scale(11.15858 12.68694)"/><path fill="#383737" fill-opacity=".6" d="M125 140l60-35 10 54z"/><circle r="1" fill-opacity=".6" transform="matrix(-65.59504 40.44007 -12.90898 -20.93876 80 150.3)"/><path fill="#fff" fill-opacity=".4" d="M112 66l20-16 14 35z"/><path fill="#020202" fill-opacity=".7" d="M237.6 77.2L271-6 150.2 51.7l-36.9-3.2z"/><ellipse cx="52" cy="7" fill-opacity=".7" rx="29" ry="103"/><circle r="1" fill="#010101" fill-opacity=".9" transform="matrix(3.68582 82.18597 -27.12093 1.2163 222.9 142)"/><ellipse cx="113" cy="25" fill="#030202" fill-opacity=".7" rx="3" ry="44"/><circle cx="2" cy="130" r="10" fill="#565656" fill-opacity=".5"/><path fill="#bcbbbb" fill-opacity=".6" d="M80 22.1l20.5-12.7 13 13.4L82.6 7.7z"/><path fill="#454545" fill-opacity=".9" d="M-12.9 21.5l21.5 11-8 9.8 22.9-1.1z"/><path fill="#fafafa" fill-opacity=".4" d="M151.4 26.4l-37.7-2.5 23.3 32 13.4-40.7z"/><path fill="#0e0e0e" fill-opacity=".9" d="M155 185l-6-52 35 50z"/><path fill="#4b4b4b" fill-opacity=".4" d="M172.7 125l-45.5 27 9.1-33 40.3 44.7z"/><path fill="#eee" fill-opacity=".6" d="M115 70.1l19.5-17.9 9.3 33 3.3-11.5z"/><path fill="#676363" fill-opacity=".4" d="M150.4 19.4l-22.3-.1L64.3 2.5l88.1 13.8z"/><ellipse cx="148" cy="92" fill-opacity=".6" rx="26" ry="6"/><circle r="1" fill="#444" fill-opacity=".6" transform="matrix(-19.3624 -7.75887 1.4466 -3.61 162.4 109.5)"/><circle r="1" fill-opacity=".6" transform="rotate(177.3 17.3 56) scale(24.61017 69.96484)"/><path fill="#0a0909" fill-opacity=".6" d="M-1 28l104-11 19 41z"/><circle r="1" fill="#161515" fill-opacity=".6" transform="matrix(17.038 3.31185 -2.61507 13.45338 110 91.9)"/><path fill="#464646" fill-opacity=".6" d="M62.2 108.3l39.9 8.1 6.9 3.7 2.7-19.5z"/><path fill-opacity=".8" d="M271 18.2l-57.4 13.2L65.9-7.3l37.5-8.7z"/><path fill="#2e2e2e" fill-opacity=".8" d="M137.5 93.8l12.3-11.2.3 8 1.5-19.6z"/><path fill="#fff" fill-opacity=".6" d="M271 41l-21 10 21 26z"/><path fill-opacity=".5" d="M54 115h121v11H54z"/><path fill="#f0eeee" fill-opacity=".4" d="M103 12h8v8h-8z"/><path fill="#c1bbbb" fill-opacity=".5" d="M155 16h3v9h-3z"/><path fill="#fff" fill-opacity=".5" d="M119 48h20l-10-16z"/><ellipse cx="15" cy="166" fill="#7d7d7d" fill-opacity=".5" rx="2" ry="9"/><path fill="#f6f5f5" fill-opacity=".6" d="M140.9 59.4l-15-7.3-10 13.9-3.2 12.8z"/><ellipse cx="132" cy="51" fill="#161616" fill-opacity=".7" rx="12" ry="1"/><circle r="1" fill="#e8e8e8" fill-opacity=".5" transform="matrix(6.13216 -4.1501 9.6375 14.24033 128.2 27.5)"/><path fill="#fff" fill-opacity=".5" d="M7 31l-13-1-10 27z"/><circle r="1" fill="#0c0c0c" fill-opacity=".6" transform="matrix(2.7845 -19.354 13.6848 1.96886 154.3 47.7)"/><ellipse cx="6" cy="1" fill="#010101" fill-opacity=".8" rx="76" ry="29"/><path fill="#1b1818" fill-opacity=".4" d="M112.2 22.8l8.1 8.9-.6 10.7-31.5-27.6z"/><path fill="#0c0c0c" d="M139.4 52.3l8.3 26.6 8.5-74.6L141.5 72z"/><path fill-opacity=".7" d="M17 119h111v51H17z"/><path fill="#cbcbcb" fill-opacity=".6" d="M128 16l23 2v9z"/><path fill="#010101" d="M112.1 20.2l.4-20.6 83.6 26.8L138.5-16z"/><path fill="#171717" fill-opacity=".5" d="M111.6 50l44.9 3v1l-45-3z"/><path fill="#383838" fill-opacity=".6" d="M29 36V24l-8-12z"/><path fill="#313131" fill-opacity=".5" d="M152 122.2l-10 30.5-9.1 7.2-6.8-35.6z"/><path fill="#030303" fill-opacity=".7" d="M42.9 68.2L1.9 42l21 50.5L79 105.2z"/><path fill-opacity=".4" d="M111.5 34.4l11-69.1 2 .3-11 69.1z"/><path fill="#dfdfdf" fill-opacity=".6" d="M113 76l7.1-9.6 4.9 3.5-7.1 9.7z"/><path fill="#3b3b3b" fill-opacity=".5" d="M236 52h13v5h-13z"/><circle cx="149" cy="81" r="2" fill="#fffefe" fill-opacity=".3"/><path fill="#0f0d0d" fill-opacity=".6" d="M177 172l-1-34 10 30z"/><ellipse cx="97" cy="15" fill="#e4e3e3" fill-opacity=".3" rx="15" ry="2"/><circle r="1" fill="#434343" fill-opacity=".4" transform="matrix(-2.47807 .5215 -5.89619 -28.01777 184.6 136.5)"/></g></svg>