<svg xmlns="http://www.w3.org/2000/svg" viewBox="0 0 298 450"><defs/><path fill="#523929" d="M0 0h298v450H0z"/><g transform="translate(.9 .9) scale(1.75781)"><circle r="1" fill="#ddc0a2" fill-opacity=".7" transform="matrix(16.73583 -53.62653 24.41419 7.6192 68.8 204.2)"/><circle cx="162" cy="176" r="62" fill="#010a17" fill-opacity=".8"/><circle r="1" fill="#536067" fill-opacity=".7" transform="matrix(54.39931 14.67806 -13.65966 50.62496 92.3 79.5)"/><ellipse cx="86" cy="10" fill="#001320" fill-opacity=".6" rx="169" ry="31"/><ellipse cx="61" cy="176" fill="#f6baa7" fill-opacity=".4" rx="21" ry="43"/><circle r="1" fill="#000413" fill-opacity=".5" transform="matrix(19.52543 -1.10271 4.8892 86.57188 163.4 74)"/><path fill="#140200" fill-opacity=".6" d="M0 199h45v35H0z"/><path fill="#d3cd94" fill-opacity=".5" d="M17.9 269.5l-9-27.6 35.2-11.4 9 27.6z"/><path fill="#f2b9ab" fill-opacity=".4" d="M123.4 251.7l26.5-15.2-28.4-6.9L62 169.3z"/><path fill="#0f1017" fill-opacity=".5" d="M75.3 114.3l41 1.4-1.6 46-41-1.4z"/><circle cx="9" cy="155" r="18" fill="#000d15" fill-opacity=".7"/><circle r="1" fill="#41545c" fill-opacity=".6" transform="matrix(69.75633 -27.3372 10.32635 26.34974 72.6 57)"/><path fill="#e6b6a8" fill-opacity=".3" d="M87.8 136.2l2.3 4.7 38-48.8-42.3-.7z"/><circle r="1" fill="#68522d" fill-opacity=".6" transform="matrix(17.03096 -2.18725 3.26496 25.42252 87.4 232.3)"/><path fill="#c08771" fill-opacity=".5" d="M60 98h16v63H60z"/><path fill="#dbaba0" fill-opacity=".6" d="M121 96l11 21-10 21z"/><path fill-opacity=".5" d="M103 76h27v15h-27z"/><ellipse cx="162" cy="255" fill="#130f12" fill-opacity=".8" rx="21" ry="33"/><path fill="#425050" fill-opacity=".7" d="M-16 112.2l62.8-1.9-2.3 55.9-52.7-48.6z"/><path fill="#62818d" fill-opacity=".5" d="M69.8 90.7L144 29.1l-2.3 94.5-17.3-54.2z"/><path fill-opacity=".6" d="M54 107V87l22-2z"/><path fill="#bc8400" fill-opacity=".5" d="M0 99h49v8H0z"/><circle r="1" fill="#2c3438" fill-opacity=".6" transform="rotate(164 15.1 24.4) scale(109.8473 15.52157)"/><ellipse cy="179" fill="#2b3e45" fill-opacity=".6" rx="41" ry="20"/><path fill="#b5e4ff" fill-opacity=".2" d="M63.4 207.7l-3.7-53 35-2.4 3.6 53z"/><path fill="#eeeca2" fill-opacity=".4" d="M76.3 230.9l-32 3.7L83 246.5l-12.7 8.4z"/><ellipse cx="66" cy="251" fill="#2a4a00" fill-opacity=".6" rx="6" ry="7"/><path fill="#cf8158" fill-opacity=".6" d="M59 167.1l5 47.8-19 2-5-47.8z"/><path fill="#2c170f" fill-opacity=".6" d="M-16 271L.8 210.7l9.6 36.2 28.7 13.3z"/><path fill="#000100" fill-opacity=".5" d="M8.3 166.9l-2.8 1.3 28.1.2-21.6-50z"/><path fill="#491b06" fill-opacity=".3" d="M81.2 90.3l7.8 37.2-.4 45-23.2-16.1z"/><circle r="1" fill="#00010f" fill-opacity=".5" transform="matrix(-9.88584 -2.63838 6.06186 -22.71342 105.5 144.3)"/><path fill="#cb8f82" fill-opacity=".5" d="M101 112l1-24 27 18z"/><circle r="1" fill="#11455e" fill-opacity=".4" transform="rotate(7.8 -532.5 1270.1) scale(8.64354 46.0249)"/><path fill="#c58877" fill-opacity=".9" d="M137.4 244.9l-17.4-8 15.2-6.7 6.6 5.7z"/><circle r="1" fill="#000100" fill-opacity=".5" transform="matrix(-5.69668 -1.88646 3.98568 -12.03584 51.4 130.5)"/><path fill="#1c1100" fill-opacity=".4" d="M118 262.4L86.8 273 78 247.6l31.2-10.7z"/><circle r="1" fill="#050706" fill-opacity=".5" transform="matrix(1.9626 13.61947 -51.72342 7.45346 19.6 9.7)"/><path fill="#e79584" fill-opacity=".4" d="M102 222h4v23h-4z"/><ellipse cx="150" cy="11" fill-opacity=".4" rx="9" ry="122"/><path fill="#080000" fill-opacity=".5" d="M114 72l17 36V85z"/><path fill="#3a2104" fill-opacity=".3" d="M53.5 244.8l-14.9-40.7 50 28.1L-9.7 194z"/><path fill="#ffd8a8" fill-opacity=".3" d="M71.1 244.2L43.2 236l9-55.7 11.4 62z"/><path fill="#120a04" fill-opacity=".8" d="M79.7 90.9L85 123l-.2-20.6-15.6-12.5z"/><circle r="1" fill="#1f0700" fill-opacity=".5" transform="matrix(-7.25888 7.18326 -5.30444 -5.36028 111.2 121.5)"/><path fill-opacity=".5" d="M21 239h9v4h-9z"/><circle r="1" fill="#d2c1a7" fill-opacity=".6" transform="rotate(-175.5 17 122.8) scale(16.22893 2.11921)"/><path fill-opacity=".4" d="M121 76l-20 2-8 14z"/><circle r="1" fill="#59676b" fill-opacity=".5" transform="matrix(-27.69346 25.9544 -12.10538 -12.9165 100.9 59.6)"/><ellipse cx="55" cy="235" fill="#e1cda9" fill-opacity=".6" rx="26" ry="2"/><path fill="#6a4433" fill-opacity=".6" d="M80 202l12 8-12 33z"/><ellipse cx="5" cy="75" fill="#3d4b51" fill-opacity=".6" rx="68" ry="23"/><path fill="#5f4b41" fill-opacity=".7" d="M59.6 154.4l-33.9 26 17.9-35.6 9.4.6z"/><path fill="#a97462" fill-opacity=".6" d="M61 96h17v30H61z"/><path fill="#13141c" fill-opacity=".5" d="M99 151h71v59H99z"/><path fill="#0c0f16" d="M133.6 109.8l28.4 32.3-2.2 48.8-29-21z"/><path fill="#f2b094" fill-opacity=".3" d="M61.1 193.7l30.6 27.6 10.3 4-44.6-9.7z"/><path fill="#e3f3d1" fill-opacity=".5" d="M6 124h4v12H6z"/><path fill="#5b6e75" fill-opacity=".9" d="M141.9 47.2l1.5 76.2-12.8-37.9-21.9-23.4z"/><path fill="#c2c092" fill-opacity=".6" d="M64.3 248.9l-9.4-5.7-25.3 26.3 27.5 1.5z"/><ellipse cx="58" cy="168" fill="#7a5547" fill-opacity=".5" rx="2" ry="42"/><path fill="#3b3e00" fill-opacity=".6" d="M52.6 246l-5.5-4.4 4.3-5.5 5.5 4.3z"/><path fill="#131d13" fill-opacity=".6" d="M-3.4 144.3L9.3 98.8v12.1L.4 149.6z"/><path fill="#bfada7" fill-opacity=".5" d="M118 123l12-1-11 11z"/><path fill="#151e00" fill-opacity=".7" d="M24 271l16-21 10 14z"/></g></svg>