<svg xmlns="http://www.w3.org/2000/svg" viewBox="0 0 298 450"><defs/><path fill="#40314d" d="M0 0h298v450H0z"/><g transform="translate(.9 .9) scale(1.75781)"><circle r="1" fill="#9d957f" fill-opacity=".6" transform="rotate(64.5 -56.6 64.1) scale(108.95427 56.25952)"/><ellipse cx="60" cy="108" fill="#bec5d6" fill-opacity=".5" rx="40" ry="24"/><circle r="1" fill="#301f13" fill-opacity=".5" transform="matrix(-29.80606 53.9936 -15.37292 -8.4863 21.2 72.5)"/><circle r="1" fill="#f4fcf5" fill-opacity=".6" transform="rotate(-155.7 .8 3.9) scale(33.28973 14.45663)"/><circle cx="153" cy="102" r="50" fill="#231300" fill-opacity=".7"/><ellipse cx="80" cy="20" fill="#000200" fill-opacity=".7" rx="11" ry="53"/><path fill="#effccd" fill-opacity=".3" d="M103.9 159l-.6 40.5 19.3-65.1-69.1 19.1z"/><path fill="#bebfec" fill-opacity=".5" d="M-15.1 229.4l7.6-39.2 22.6 4.4-7.6 39.2z"/><ellipse cx="75" cy="220" fill="#8285cf" fill-opacity=".5" rx="35" ry="8"/><circle r="1" fill="#383128" transform="matrix(-11.52988 9.89147 -9.66013 -11.26022 82.8 176.2)"/><path fill="#aea7c9" fill-opacity=".4" d="M141.3 270.7L185 115.4l-25.4 53.3-15.8 66.6z"/><path fill="#100e0e" fill-opacity=".5" d="M16 68h53v15H16z"/><ellipse cx="25" cy="160" fill="#af8b9a" fill-opacity=".5" rx="26" ry="17"/><circle r="1" fill="#99917a" fill-opacity=".5" transform="matrix(17.62057 13.42328 -8.1758 10.73227 93 89.2)"/><ellipse cx="57" cy="138" fill="#130500" fill-opacity=".4" rx="35" ry="8"/><path fill="#110f1e" fill-opacity=".9" d="M42.9 266.2l85.8-32.9 13.8 20-12.1 4z"/><circle r="1" fill="#40271e" fill-opacity=".6" transform="matrix(-59.41288 2.15306 -1.8326 -50.57025 146.4 49.7)"/><circle r="1" fill="#200" fill-opacity=".5" transform="rotate(-101.9 101.2 92.8) scale(35.44567 10.78742)"/><circle r="1" fill="#7d787e" fill-opacity=".5" transform="rotate(-116.8 108.5 63.4) scale(6.82595 49.27261)"/><circle r="1" fill="#907963" fill-opacity=".5" transform="matrix(-6.139 -3.07418 29.63212 -59.17398 55.8 17.8)"/><path fill="#100d0a" fill-opacity=".6" d="M43.8 43l65.6 6.9-25.7 25.7 3-77.9z"/><path fill="#322113" fill-opacity=".5" d="M1 38h22v80H1z"/><path fill="#88121c" fill-opacity=".9" d="M9 157.8l14.8-1.6 1.3 12-15 1.6z"/><circle r="1" fill="#332021" fill-opacity=".6" transform="rotate(128.8 14.6 132) scale(22.6718 24.74451)"/><path fill="#9b99a4" fill-opacity=".9" d="M59.9 95.2l-40.8-9.8 36.1 55.8L32 187.5z"/><path fill="#03020b" fill-opacity=".9" d="M6 268l-22 3 36-54z"/><circle r="1" fill="#e3d2c8" fill-opacity=".6" transform="matrix(-1.55049 9.95209 -5.54928 -.86455 110 146.4)"/><path fill="#6765b6" fill-opacity=".6" d="M118 223.6l-1 20-23-1.2 1-20z"/><path fill="#a28b88" fill-opacity=".5" d="M128.5 135.8l9.6-1-5.8-31.8-4.9 31.4z"/><path fill="#8282ac" fill-opacity=".7" d="M45.7 206.7l30.7 20.4-3.3-5.9-27.9 14.2z"/><path fill="#b0ae87" fill-opacity=".5" d="M136 55l30-15-23-1z"/><circle r="1" fill="#c09a72" fill-opacity=".6" transform="matrix(-29.73154 -16.98826 4.97949 -8.71471 0 128.9)"/><circle r="1" fill="#110b0b" fill-opacity=".6" transform="matrix(6.77627 -.90668 9.38821 70.16476 114.8 78)"/><path fill="#494833" fill-opacity=".7" d="M105.2 162.7l-16.4-28.1 3.8-20.3 12.4-11.2z"/><circle r="1" fill="#0d0500" fill-opacity=".8" transform="rotate(124.4 42.7 108.3) scale(18.85565 17.05565)"/><path fill="#c4c99c" fill-opacity=".5" d="M48 45h27v8H48z"/><path fill="#f1d4b7" fill-opacity=".6" d="M34.9 25.7l9-7.7 2.9-.9L-16 4z"/><path fill="#2f1a1a" fill-opacity=".8" d="M-3.2 221.7l6.3-6.6 38.5-21.4 23.4 6.7z"/><path fill="#6668bc" fill-opacity=".5" d="M35.8 256.9L25 238.2l-4.5-14.4-7.2 21.5z"/><path fill="#250707" fill-opacity=".6" d="M33 203l32 68-28-3z"/><ellipse cx="73" cy="235" fill="#281900" fill-opacity=".5" rx="20" ry="10"/><path fill="#70695d" d="M91.5 94.1L76.9 89 85 74.8l22.9-10.1z"/><path fill="#1d0e03" fill-opacity=".6" d="M-16 117l40-34-8 36z"/><ellipse cx="10" cy="59" fill="#b7936e" fill-opacity=".3" rx="6" ry="38"/><path fill="#150b1b" d="M9.9 175.4l22.2 10.2-48.1.3 12-10.7z"/><ellipse cx="129" cy="172" fill="#cac7d5" fill-opacity=".5" rx="7" ry="5"/><path fill="#b5daf4" fill-opacity=".3" d="M38.8 152.2l-25.7 24.6 48.8 3.3-59.8-42.7z"/><path fill="#a8a6b2" fill-opacity=".6" d="M22 90h78v14H22z"/><path fill-opacity=".5" d="M66 60H53v10z"/><path fill="#2d212d" fill-opacity=".4" d="M78 218l50 6 40-76z"/><path fill="#bebdd6" fill-opacity=".5" d="M29 52h6v18h-6z"/><ellipse cx="46" fill="#342e30" fill-opacity=".8" rx="5" ry="46"/><path fill="#624b3e" fill-opacity=".5" d="M147 65h12v53h-12z"/><path fill="#f7ffff" fill-opacity=".6" d="M7.8 5l13.6 3.4L18.2 21 4.6 17.6z"/><circle cx="79" cy="151" r="8" fill="#dad3d5" fill-opacity=".5"/><path fill="#4c0209" fill-opacity=".2" d="M-7.8 154.3l-8.2-15.9 24 6.4 24.9 36z"/><path fill="#1c0d02" fill-opacity=".6" d="M43 140l-21.5-9.7 6.8-1.6 21.8 4.6z"/><circle r="1" fill="#73707a" fill-opacity=".7" transform="matrix(1.18819 -23.28854 13.36794 .68204 55.3 173.6)"/><circle r="1" fill="#030605" fill-opacity=".6" transform="matrix(10.45442 -9.6809 7.45562 8.05134 113 117.6)"/><path fill="#b0baca" fill-opacity=".5" d="M1 68l-17 35 19-6z"/><path fill="#a09ea5" fill-opacity=".5" d="M106 98L27 82l-6 48z"/><path fill="#92a5e5" fill-opacity=".6" d="M11 170.5L0 175l-3-7.5L8 163z"/><path fill="#414f34" fill-opacity=".5" d="M88 172l38 17-35-43z"/><ellipse cx="70" cy="248" fill="#6a66c1" fill-opacity=".4" rx="16" ry="4"/><path fill="#c0ceff" fill-opacity=".2" d="M185 174.9l-18.7.5-17.7-18.2 33 5.5z"/></g></svg>