<svg xmlns="http://www.w3.org/2000/svg" viewBox="0 0 300 199"><defs/><path fill="#444e28" d="M0 0h300v199H0z"/><g transform="translate(.6 .6) scale(1.17188)"><circle r="1" fill="#cca7a6" fill-opacity=".6" transform="matrix(254.6024 -14.23448 4.38958 78.51344 155.5 36.5)"/><path fill="#d4cfcd" fill-opacity=".9" d="M108 37l29 131-68 17z"/><ellipse cx="159" cy="100" fill="#090621" fill-opacity=".7" rx="32" ry="59"/><circle cx="255" cy="14" r="104" fill="#fff0cc" fill-opacity=".3"/><path fill="#3e2014" fill-opacity=".7" d="M88 84L35 30 15 77z"/><ellipse cx="64" cy="14" fill="#300700" fill-opacity=".7" rx="35" ry="9"/><circle r="1" fill="#ab7565" fill-opacity=".8" transform="matrix(-8.78866 -24.41144 28.30217 -10.1894 0 130.6)"/><circle r="1" fill="#f8eccf" fill-opacity=".5" transform="matrix(.89515 15.52472 -44.3069 2.55472 144.3 9.7)"/><circle r="1" fill="#1a0a0e" fill-opacity=".8" transform="matrix(-23.04847 3.16751 -5.3818 -39.16075 52.8 148.8)"/><circle r="1" fill="#fff9d6" fill-opacity=".4" transform="matrix(22.90217 5.8348 -10.11228 39.69165 7.1 27.6)"/><ellipse cx="236" cy="124" fill="#e3adab" fill-opacity=".5" rx="29" ry="8"/><ellipse cx="95" cy="23" fill="#2a0300" fill-opacity=".7" rx="5" ry="30"/><ellipse cx="174" cy="64" fill="#00052d" fill-opacity=".7" rx="8" ry="21"/><path fill="#fff" fill-opacity=".5" d="M73 22l4 32 13-26z"/><path fill="#7a674b" fill-opacity=".5" d="M72 141l-7-81 36 76z"/><circle r="1" fill="#f6e4b8" fill-opacity=".7" transform="matrix(1.92736 -9.6347 10.61963 2.12439 51.7 33.6)"/><path fill="#541100" fill-opacity=".4" d="M101.6 61.3l7.4-33.8 19.6 1.4-3.2 27.4z"/><path fill="#fffbda" fill-opacity=".8" d="M87.3-4.8l-.6 12-44-2.4.6-12z"/><path fill="#350312" fill-opacity=".5" d="M133 132h123v34H133z"/><path fill="#f1e7db" fill-opacity=".5" d="M15 100l61-4-60-13z"/><path fill="#d49c8d" fill-opacity=".6" d="M151.1 101.2l-4.4 5.4L115 80.8l4.4-5.4z"/><ellipse cx="165" cy="67" fill="#edf9ff" fill-opacity=".4" rx="3" ry="22"/><ellipse cx="38" fill="#532114" fill-opacity=".6" rx="7" ry="40"/><path fill="#752e0d" fill-opacity=".4" d="M213.2 87l-22.4-15 10-15 22.4 15z"/><circle r="1" fill="#dfceb9" fill-opacity=".5" transform="matrix(20.64197 -1.09247 2.60029 49.13182 242.9 35.4)"/><circle cx="163" cy="31" r="9" fill="#4d180f" fill-opacity=".5"/><path fill="#dcd1d0" fill-opacity=".4" d="M94 55h35v102H94z"/><path fill="#151527" fill-opacity=".8" d="M181.4 71.4l-50.2 49.9L163 118l30.9-16.8z"/><path fill="#0d0300" fill-opacity=".5" d="M57 71L23 38l6 35z"/><path fill-opacity=".6" d="M205.2 115l10.7-12 9 8-10.8 12z"/><path fill="#a0755e" fill-opacity=".6" d="M93.8 69.8L20.7 54.7l5.1-6.8 17.4-9.6z"/><ellipse cx="191" cy="168" fill="#da854b" fill-opacity=".6" rx="37" ry="3"/><path fill="#fffff3" fill-opacity=".5" d="M17 0h15v39H17z"/><path fill="#301b15" fill-opacity=".7" d="M79.9 83.1l-4.1-27-2 47.6 11.7-35.1z"/><path fill="#070000" fill-opacity=".6" d="M0 157h20v13H0z"/><path fill="#0b1438" fill-opacity=".7" d="M165.1 78.1L155 132l-13.4-87.4 19 7.2z"/><path fill="#bb9a8c" fill-opacity=".6" d="M195.5 95.7l25.3 42-4.3 2.6-25.3-42z"/><path fill="#5e230f" fill-opacity=".6" d="M65.4 8.3l9 .5-1.8 33-9-.6z"/><path fill="#786f4e" d="M83 109.8l17.5 24.3-33.5 7.1 13-39.3z"/><path fill="#1e1311" fill-opacity=".6" d="M126 89l13 96 27-56z"/><path fill="#c58d6b" fill-opacity=".5" d="M176.5 124.1l-1-28 6-.2 1 28z"/><ellipse cx="24" cy="136" fill="#8c5145" fill-opacity=".6" rx="9" ry="30"/><path fill="#1e0a00" fill-opacity=".4" d="M64.1 84l-52.3-5.8L45 83.1l5.2-48.3z"/><path fill="#938065" fill-opacity=".6" d="M47.2 123.8l6.4-2.5 4 8.6-8.3 9z"/><circle r="1" fill="#b5907c" fill-opacity=".5" transform="rotate(35.5 -51.4 435) scale(73.19521 13.44166)"/><ellipse cx="112" cy="58" fill="#bf836c" fill-opacity=".7" rx="10" ry="13"/><path fill="#fff7c2" fill-opacity=".2" d="M69.2 61.8l26.2-35.3-41 16 13.3 41.9z"/><path fill="#000002" fill-opacity=".5" d="M72 124l-18-19-29 11z"/><path fill="#150a00" fill-opacity=".4" d="M142.4 36.7l-32.9.3 3.8-12.8L131 40.5z"/><ellipse cx="105" cy="11" fill="#e4d3b4" fill-opacity=".5" rx="5" ry="30"/><path fill="#2b1600" fill-opacity=".5" d="M129 57h9v10h-9z"/><path fill="#d8c5af" fill-opacity=".6" d="M171 0h25v45h-25z"/><path fill="#3a1a0d" fill-opacity=".6" d="M77 10h24v15H77z"/><ellipse cx="239" cy="159" fill="#543026" fill-opacity=".6" rx="17" ry="31"/><path fill="#c48860" fill-opacity=".5" d="M42 89V72l-58 19z"/><path fill-opacity=".6" d="M23.6 48L20 44.3l6.3-6.3 3.5 3.5z"/><path fill="#e0d8c6" fill-opacity=".3" d="M9.9 137.8L-16 152.6l4-19.1 31.8-14z"/><path fill="#e3d8c9" fill-opacity=".4" d="M129.1 66.6L92 106 42.6 81.9l25.6 28.6z"/><path fill="#471300" fill-opacity=".5" d="M84 40h9v11h-9z"/><path fill="#cccdce" fill-opacity=".5" d="M135 166l-58-17 50-47z"/><path fill="#f0e7d2" fill-opacity=".8" d="M60.8 44L54 47.7l-3.5-21.6 10.7-4z"/><path fill="#c5b8b1" fill-opacity=".7" d="M57.6 97.1L13.2 80.3l42.2 30.1-26.1-2.5z"/><path fill="#b57755" fill-opacity=".3" d="M5-14l21.2 87.6L-16 70l26.1 30.5z"/><path fill-opacity=".5" d="M175.1 140.6l1-8.9 34.8 3.7-1 8.9z"/><path fill="#d2c1a8" fill-opacity=".9" d="M105.8 31.5L185.9-16H95.2l9.2 43.4z"/></g></svg>