<svg xmlns="http://www.w3.org/2000/svg" viewBox="0 0 298 450"><defs/><path fill="#25334e" d="M0 0h298v450H0z"/><g transform="translate(.9 .9) scale(1.75781)"><circle r="1" fill="#f5d0a6" fill-opacity=".5" transform="rotate(-21.8 125.7 -111.4) scale(134.17439 86.18954)"/><circle r="1" fill="#25140d" fill-opacity=".7" transform="rotate(-122.5 48.8 -11.5) scale(25.63676 33.39802)"/><circle cx="86" cy="199" r="74" fill="#060609" fill-opacity=".6"/><path fill="#fff" fill-opacity=".6" d="M117 0h39v41h-39z"/><ellipse cx="18" cy="3" fill="#f6fffd" fill-opacity=".6" rx="43" ry="21"/><path fill="#f1bca0" fill-opacity=".6" d="M-10.4 258.7l3.9-43.8 26.9 2.4-3.9 43.8z"/><circle r="1" fill="#be977a" fill-opacity=".5" transform="matrix(11.2088 -4.95961 36.44612 82.3688 159 123.8)"/><path fill="#202f4d" fill-opacity=".7" d="M90.5 82.7l56.4 17.3-11.4 37.3L79.1 120z"/><circle r="1" fill="#160000" fill-opacity=".6" transform="rotate(-114.8 100.9 -14.9) scale(33.77958 7.25515)"/><path fill="#e3dacf" fill-opacity=".5" d="M59 75L45-16 20 111z"/><path fill="#183800" fill-opacity=".4" d="M-16 77.2v-1.4L12.7 13l22.4 12.8z"/><path fill="#6f5e59" d="M2.5 121.9l11.8-3.1 62.3 5.9-92.6 30.1z"/><circle r="1" fill="#e5cab3" fill-opacity=".5" transform="matrix(57.84231 34.75652 -2.56035 4.26097 127 87.4)"/><path fill="#fdfeef" fill-opacity=".5" d="M154.9 271l-16.3-23.9 25 2.4 21.4-9.1z"/><path fill="#384904" fill-opacity=".8" d="M10.8 62.7l2 23.8L-8 95.6l-8-3.9z"/><path fill="#ecedea" fill-opacity=".7" d="M124-16l-9 76 32-35z"/><circle r="1" fill="#10121a" fill-opacity=".8" transform="rotate(-110.2 70.7 91.7) scale(30.73867 15.1478)"/><path fill="#e1dfdc" d="M52 44.6l-7.8-2.7L10.7-5.8 52.6-16z"/><path fill="#e1e0db" fill-opacity=".8" d="M103.9.6l51 45.8-7.8-39.8L185-11.7z"/><circle r="1" fill="#111621" fill-opacity=".9" transform="matrix(-2.69878 23.14201 -14.5223 -1.69356 160.5 227.7)"/><path fill="#cdb1c1" fill-opacity=".7" d="M84 81.8l-28.2 5.1 31.3 22.7 2.3-5.9z"/><path fill="#878372" d="M185 80.5l-22.9-63.6-9.6-5.7 7.8 45.5z"/><circle r="1" fill="#00264e" fill-opacity=".5" transform="matrix(8.15979 29.82715 -5.19957 1.42244 153 130.8)"/><path fill="#1f1200" fill-opacity=".7" d="M170 107.5L149.5 97 164 68.5 184.5 79z"/><path fill="#ad9386" d="M15.2 78.6l3.2-46.3h-.8l54.3 21.6z"/><path fill="#ceaf7e" fill-opacity=".5" d="M164 102h6v71h-6z"/><path fill="#9c6350" fill-opacity=".7" d="M116.3 39.7l-14.5 25.1-18.1-10.5 14.5-25.1z"/><path fill="#25242e" fill-opacity=".6" d="M15.5 137.5l5.1 124.4 19.8-144.7-19.6 11.3z"/><circle r="1" fill="#ad9e98" fill-opacity=".4" transform="matrix(3.73605 15.92874 -3.2998 .77396 14.7 152.4)"/><path fill="#0f0000" fill-opacity=".6" d="M129.9 50.4l-1.4-5.9 11.6-2.9 1.4 5.9z"/><ellipse cx="122" cy="236" fill-opacity=".5" rx="13" ry="80"/><path fill="#dde0dd" fill-opacity=".7" d="M11.2 4L8.7 31.7-11.2 30l2.5-28z"/><path fill="#312621" fill-opacity=".7" d="M121.5 23.3L96.7-9.4 56.3 34.9l31.3 3.3z"/><path fill="#141926" fill-opacity=".7" d="M78.1 117.2l17.2-10.5 62.1 44.6-136 42.8z"/><path fill="#1e2d00" fill-opacity=".6" d="M7.8 50L-16 28.9l31 11.6 5.8 5.5z"/><path fill="#c6bc8e" fill-opacity=".3" d="M5.2 78.4l68 49.9-48.7 10.2 17.6-13.9z"/><path fill="#3d1700" fill-opacity=".3" d="M163.9 51.3L176.3 93 101 54.7l37.6 10z"/><path fill="#212500" fill-opacity=".4" d="M26.9 68.1l-5.3 6.1-1.7 13.7 18.9-23.1z"/><path fill="#d0d3cb" fill-opacity=".4" d="M19.8 58.1l5.4 11.1-21.3-11 64.4-59z"/><path fill="#955e69" fill-opacity=".8" d="M59 115.7l30.2-2.2L77.1 100l-40.6 8.4z"/><path fill="#a1a7aa" fill-opacity=".6" d="M169.7 247.2l11.1 23.8-39.8-32.1.9 19z"/><path fill="#ccf1fe" fill-opacity=".4" d="M4.1 149.7l15.6-18.9-34 23.4 2.1-26.1z"/><path fill="#d8c7b8" fill-opacity=".4" d="M77.5 68.1l-47.4 2.4 108.2 8.9-86.9-34.5z"/><path fill="#3c5576" fill-opacity=".5" d="M142 116.6l-45.2-13 5.2-18.2 45.2 13z"/><path fill="#1a263c" fill-opacity=".4" d="M185 210l-97-78 1-55z"/><path fill="#001f47" fill-opacity=".5" d="M-16 151v-46l28 29z"/><path fill="#d8977d" fill-opacity=".4" d="M19.9 117.1L3 89.8l-4 30.3 28.2 16.6z"/><ellipse cx="32" cy="253" fill="#161b2a" fill-opacity=".7" rx="16" ry="43"/><path fill="#cc8b73" fill-opacity=".3" d="M100 52l20 44 41-11z"/><path fill="#e2bc96" fill-opacity=".4" d="M169.6 107.7l-17.4-6.2-4-.3 13.1 28.6z"/><path fill="#d9fefd" fill-opacity=".4" d="M10 91H-2l6 14z"/><circle r="1" fill="#505849" fill-opacity=".5" transform="matrix(-15.04343 22.83234 -3.84415 -2.53278 169.9 2.8)"/><circle cx="44" cy="93" r="9" fill="#ab5f3f" fill-opacity=".4"/><path fill="#ffabf9" fill-opacity=".2" d="M61.1 91.2l-4.7 22.3 18.7-12.7-4.5-23.2z"/><path fill="#e1dfdc" fill-opacity=".9" d="M118.9 56l.8-42.5 22.3-27 18.4 17.6z"/><path fill="#b2b4a6" d="M17.3 90.8l2.1 22.2H28l16-50z"/><path fill="#664638" fill-opacity=".8" d="M65.7 50.9l47.8-19.2-14-7.4-14.2 31.2z"/><path fill="#bdb9b0" fill-opacity=".7" d="M21.2 55l-3 10.5L2.8 61l3-10.6z"/><path fill="#1e2e45" fill-opacity=".5" d="M156.6 94.5l-9.3.3L185 271l-66.2-154.6z"/><path fill="#435506" fill-opacity=".4" d="M19.8 98.4L.9 86.3l14.4-20.9-5.3 45.4z"/><path fill="#161c2c" fill-opacity=".7" d="M19 138h23v118H19z"/><path fill="#4f4403" fill-opacity=".3" d="M44.3 51.3l27.4 14.2-10.3 31 2.1-28.6z"/><path fill="#1f170e" fill-opacity=".9" d="M185 94.6l-20.5 10.5-14.4-6.9 14.6-23.7z"/><path fill="#824026" fill-opacity=".4" d="M66.6 132L9 116l12.5-1.5 11.5 24z"/><path fill="#d2c0b2" fill-opacity=".7" d="M126.3 78.4L92.1 59.8 135 91.5l22.2 12.6z"/></g></svg>