<svg xmlns="http://www.w3.org/2000/svg" viewBox="0 0 298 450"><defs/><path fill="#5f392c" d="M0 0h298v450H0z"/><g transform="translate(.9 .9) scale(1.75781)"><ellipse cx="76" cy="149" fill="#f0f5e5" fill-opacity=".5" rx="119" ry="164"/><circle r="1" fill="#fff" fill-opacity=".7" transform="matrix(-36.73611 21.8123 -31.43404 -52.94096 96.6 62.7)"/><circle r="1" fill="#3c312a" fill-opacity=".5" transform="matrix(52.15158 11.1025 -6.98475 32.80932 68.1 201.3)"/><circle r="1" fill="#00041b" fill-opacity=".4" transform="matrix(-14.95749 23.56923 -17.28216 -10.9676 80.7 119.8)"/><circle r="1" fill="#7f5635" fill-opacity=".6" transform="matrix(-29.63579 2.03755 -8.05667 -117.18297 169 104.9)"/><path fill="#fff" fill-opacity=".6" d="M100 15h38v116h-38z"/><path fill="#fff" fill-opacity=".7" d="M59 40l9 62-19 19z"/><circle r="1" fill="#997554" fill-opacity=".6" transform="matrix(-23.66126 -3.07262 20.54373 -158.2005 9.5 98.1)"/><ellipse cx="85" cy="60" fill="#8d6740" fill-opacity=".4" rx="20" ry="13"/><circle r="1" fill="#8c7d70" fill-opacity=".8" transform="rotate(73.4 -132 133.8) scale(24.15306 47.71938)"/><circle r="1" fill="#dfd9e0" fill-opacity=".6" transform="rotate(61 -112.7 106) scale(12.63615 26.38036)"/><path fill="#1b1113" fill-opacity=".6" d="M42.2 157.5l20.9 26.3-54.5 16.6 56.1-41.1z"/><path fill="#fffffd" fill-opacity=".6" d="M79 71l1 31 17 21z"/><path fill="#0c1931" fill-opacity=".5" d="M87.5 110l-28.7 1.5-1.8 26.8 24.8 11.3z"/><path fill="#291202" fill-opacity=".5" d="M127.5 167.4l-38.3 8.3 29.8 47.4-44.3-18.2z"/><path fill="#907551" fill-opacity=".5" d="M85-16l80 25-172 6z"/><path fill="#aa8d7e" fill-opacity=".7" d="M91 124h60v44H91z"/><ellipse cx="76" cy="31" fill="#fff" fill-opacity=".7" rx="29" ry="16"/><path fill="#491600" fill-opacity=".5" d="M45 60h9v44h-9z"/><path fill="#d0d4d0" fill-opacity=".4" d="M118 180h19v76h-19z"/><path fill="#756766" fill-opacity=".9" d="M70.4 93h6l-.8 46h-6z"/><path fill="#fafdfe" fill-opacity=".6" d="M53.8 133.5l16.6-54.9-24.2 32.8 6.9 25.1z"/><ellipse cx="42" cy="73" fill="#fff" fill-opacity=".6" rx="2" ry="56"/><circle r="1" fill="#aca7a1" fill-opacity=".6" transform="matrix(9.70254 -1.3404 5.55633 40.21963 57.4 226.8)"/><path fill="#523626" fill-opacity=".8" d="M30.4 132.4l-1.8-13.1-12.2 5.3 3 19.9z"/><ellipse cx="115" cy="33" fill="#fff" fill-opacity=".3" rx="29" ry="28"/><path fill-opacity=".5" d="M29 178h15v19H29z"/><path fill="#463e3a" fill-opacity=".8" d="M80.7 193.5L78.5 180l-32.6-20.4 17.3 42.9z"/><path fill="#cfb79f" fill-opacity=".5" d="M57 165l26 2 12 27z"/><ellipse cx="169" cy="255" fill="#b1aa9e" rx="71" ry="29"/><path fill="#1b1b10" fill-opacity=".5" d="M106 228v-19l-43 20z"/><circle r="1" fill="#2e2225" fill-opacity=".5" transform="matrix(-9.02141 16.01947 -1.832 -1.0317 112.1 150.2)"/><path fill="#876d55" fill-opacity=".8" d="M-7 181l63 28.1L41 243l-63-28z"/><path fill="#653e23" fill-opacity=".5" d="M152 128h14v66h-14z"/><path fill="#b49a98" fill-opacity=".6" d="M6.8 176.9l45.9.4-9.9-23.8L25.2 186z"/><path fill="#ac9079" fill-opacity=".7" d="M142.6 43.3L154 225l-19.2-53 2.7-121.6z"/><path fill="#b0876e" fill-opacity=".8" d="M125.3 212.4l-10.5 15.8-6.6-64.1-4.7 33.4z"/><path fill="#b9a490" fill-opacity=".6" d="M112.5 130.3l-17.1 5.5-5.9-18 17.1-5.6z"/><ellipse cx="94" cy="100" fill="#150000" fill-opacity=".5" rx="5" ry="6"/><path fill="#f2f8ff" fill-opacity=".3" d="M118.5 152.3l15.9-40.1-5.3 40.6 32 9z"/><path fill="#d7ccc6" fill-opacity=".5" d="M57.6 226l-2-.3 6.8-63.6 2 .2z"/><path fill="#00041a" fill-opacity=".3" d="M56.6 130.3l2.5-24 33.2 43.2-35.2-14.3z"/><path fill="#010000" fill-opacity=".5" d="M75 172h5v30h-5z"/><path fill="#7b6657" fill-opacity=".6" d="M76 153h47v14H76z"/><path fill="#90573f" fill-opacity=".6" d="M115.8 123.2l10.1-.9 3.2 6.8-14.2 9.7z"/><ellipse cx="46" cy="11" fill="#815c46" fill-opacity=".9" rx="2" ry="127"/><path fill="#000d11" fill-opacity=".5" d="M66 197h3v38h-3z"/><path fill="#fff2ec" fill-opacity=".5" d="M111 184h22v8h-22z"/><ellipse cx="72" cy="120" fill="#f4f6fd" fill-opacity=".4" rx="2" ry="14"/><path fill="#0c0b0c" fill-opacity=".6" d="M59 158l2 23-12-17z"/><path fill="#815b3f" fill-opacity=".8" d="M170 40l-33-56 28 135z"/><path fill="#c4dae5" fill-opacity=".5" d="M78.2 192.1l2.8-15.8 8.8 1.6-2.8 15.8z"/><path fill="#bae0ff" fill-opacity=".3" d="M75 220.4l-.7-30.1L59.2 228l-.9-32.5z"/><path fill="#17181b" fill-opacity=".7" d="M15.2 194.5l26.6 3.5 12.9-16.6-24.4-1.3z"/><path fill="#fcffff" fill-opacity=".7" d="M110 68v74l21-67z"/><path fill="#020c21" fill-opacity=".5" d="M91.5 132.4l1.4 19.5L78 108.4l5.3-2.3z"/><path fill="#81422e" fill-opacity=".6" d="M40 123h10v11H40z"/><path fill="#fff" fill-opacity=".5" d="M53 70h29v23H53z"/><path fill="#feffff" fill-opacity=".4" d="M50 60l55-30L57 7z"/><path fill="#916541" d="M89.1 172.1l-32.3.2 8.7 3.2 61.8 4.2z"/><path fill="#f5f8f7" fill-opacity=".6" d="M80.2 108.6l41-45.5 13.8 69.4-58.6-62.3z"/><path fill="#834b29" fill-opacity=".6" d="M134.8 126.6l9.8 2.2-3.4 14.6-9.8-2.2z"/><path fill="#8b7365" d="M64.5 160.4l-1.8-1.1 22.2-7.1-45.3 5z"/><path fill="#fff" fill-opacity=".5" d="M51 110h5v28h-5z"/><ellipse cx="81" cy="255" fill="#a7a899" fill-opacity=".4" rx="19" ry="28"/></g></svg>