<svg xmlns="http://www.w3.org/2000/svg" viewBox="0 0 300 199"><defs/><path fill="#292e44" d="M0 0h300v199H0z"/><g transform="translate(.6 .6) scale(1.17188)"><circle r="1" fill="#deaf8c" fill-opacity=".5" transform="rotate(-60.4 150.9 -3.3) scale(49.83729 79.71293)"/><circle r="1" fill="#ffdac3" fill-opacity=".6" transform="matrix(2.17452 -28.26046 18.19505 1.40003 113.4 73.1)"/><circle r="1" fill="#00020f" fill-opacity=".7" transform="matrix(-11.71152 -2.98523 16.23023 -63.67374 136 107.9)"/><circle r="1" fill="#cd997b" fill-opacity=".6" transform="matrix(28.25378 4.8295 -2.18016 12.75447 190.1 11.4)"/><circle r="1" fill="#000001" fill-opacity=".5" transform="matrix(42.87082 18.10934 -23.81779 56.3846 200 113)"/><circle r="1" fill="#790000" fill-opacity=".5" transform="matrix(-16.07609 -54.84205 26.8711 -7.87684 21.3 149)"/><circle r="1" fill="#111c00" fill-opacity=".6" transform="matrix(58.184 31.99278 -20.22674 36.78557 38.5 25)"/><circle r="1" fill="#e0ddd5" fill-opacity=".4" transform="matrix(-17.1953 54.87026 -20.45282 -6.40953 90.2 155)"/><circle r="1" fill="#ffd19f" fill-opacity=".3" transform="matrix(-52.95433 -22.47778 7.83977 -18.46934 2.2 79.6)"/><path fill="#cbc09d" fill-opacity=".5" d="M236 129l22 55 13-51z"/><circle r="1" fill="#061200" fill-opacity=".9" transform="matrix(-25.62023 17.80653 -28.04608 -40.35302 253.9 7.8)"/><circle r="1" fill="#5e5e46" fill-opacity=".9" transform="matrix(16.71094 12.63422 -15.19568 20.09892 77.7 91.8)"/><circle r="1" fill="#b1b29b" fill-opacity=".6" transform="matrix(-1.47637 38.23697 -8.09352 -.3125 145.7 153)"/><circle r="1" fill="#2e4000" fill-opacity=".4" transform="matrix(55.75955 -.26732 .14491 30.22714 113 21.5)"/><path fill="#ecffff" fill-opacity=".6" d="M49.8 142.4L42 123.9l10.2-4.3 7.8 18.5z"/><path fill="#caaaa9" fill-opacity=".5" d="M99 35h17v135H99z"/><path fill="#596278" d="M242.2 53.8l28.8 42-27.6-55.7-56.7-8.3z"/><path fill="#140600" fill-opacity=".6" d="M22.2 83.1l-13-7.5L17.9 61l13 7.5z"/><ellipse cx="42" cy="90" fill="#f4fff5" fill-opacity=".2" rx="16" ry="22"/><path fill="#d4bcb1" fill-opacity=".6" d="M138.2 56.4l-11.4 17L81 89.6l27.4-36.5z"/><path fill="#390002" fill-opacity=".6" d="M-16 98v87l77-12z"/><path fill="#101121" fill-opacity=".6" d="M117 124.5l-1.8 29.9 17.7 30.6-1.6-115.3z"/><circle r="1" fill="#484f71" fill-opacity=".6" transform="matrix(-28.82015 14.59776 -4.43972 -8.76527 161.6 48.2)"/><path fill="#ccdde5" fill-opacity=".7" d="M74.2 158l-14.5 26.3-8-4.4 14.6-26.2z"/><ellipse cx="241" cy="104" fill="#0c0c14" fill-opacity=".7" rx="97" ry="26"/><circle r="1" fill="#051303" fill-opacity=".5" transform="matrix(-20.53384 -21.7188 21.25472 -20.09507 70.6 46)"/><path fill="#cb6e5c" fill-opacity=".4" d="M28 137l-44-42 28-45z"/><path fill="#ccb1a2" fill-opacity=".8" d="M223 20.2l-12.5 3.4-1.6-5.8 12.6-3.4z"/><path fill="#6b905d" fill-opacity=".4" d="M147.4 22.3l-29.7-8.7-32.4-9.7 16.6 21.4z"/><path fill="#00080e" fill-opacity=".5" d="M72 140.6L40.1 151l40.5-22.2-9.3 7.2z"/><circle r="1" fill="#1f2317" fill-opacity=".5" transform="matrix(-4.26691 -6.62 12.28329 -7.91718 64.6 105.3)"/><ellipse cx="185" cy="72" fill="#1c1d2f" fill-opacity=".5" rx="50" ry="26"/><circle r="1" fill="#39381e" fill-opacity=".6" transform="matrix(-60.14904 -1.99535 .58664 -17.68393 3.4 37)"/><ellipse cx="135" cy="34" fill="#101700" fill-opacity=".6" rx="27" ry="10"/><circle r="1" fill="#99837d" fill-opacity=".5" transform="matrix(2.08075 9.16437 -35.39333 8.03597 89.3 115.7)"/><path fill-opacity=".5" d="M126 185l23-92-29 48z"/><path fill="#d4e5f0" fill-opacity=".4" d="M55 136l-25-30 21 12z"/><path fill="#222b17" fill-opacity=".8" d="M224.1-16l6.9 55.3-12.4-30.9-16.9 6z"/><path fill="#171d2a" fill-opacity=".5" d="M153 134h91v36h-91z"/><path fill="#1f110b" fill-opacity=".6" d="M15 50h27v23H15z"/><path fill="#a97c6f" fill-opacity=".7" d="M207.7 17.7l-39.9 6L214.4-16 207 7.1z"/><ellipse cx="141" cy="162" fill="#afa89d" fill-opacity=".6" rx="7" ry="29"/><path fill="#32395a" fill-opacity=".6" d="M191.2 18.6l-22.1 8.9L227 69.6l-16.8-42.2z"/><path fill="#bc8c6f" fill-opacity=".6" d="M85.6 77.8L117 44.4 73.3 106l20.8-16.7z"/><path fill="#b6725e" fill-opacity=".4" d="M118 39l-24-8 17 32z"/><path fill="#c9d0bf" fill-opacity=".5" d="M28 73h37v7H28z"/><ellipse cx="4" cy="45" fill="#4c1e04" fill-opacity=".7" rx="8" ry="17"/><path fill="#0c1c00" fill-opacity=".6" d="M120 48l11 6 24-17z"/><path fill="#c3b3af" d="M113.9 88.4l-5.5 14.9-15 22 7-38.3z"/><path fill="#88111d" fill-opacity=".5" d="M-14.5 93.5l20.2-5.8 8.8 30.8-20.2 5.8z"/><path fill="#362e24" fill-opacity=".6" d="M94 116l-9-16 11-15z"/><path fill="#041105" fill-opacity=".6" d="M69.3 63.4L27.2 27.6l39.3 48.8L82 80.9z"/><circle r="1" fill="#092000" fill-opacity=".5" transform="rotate(-22.5 102 -379.2) scale(9.5154 27.67721)"/><path fill="#d5e7de" fill-opacity=".4" d="M229.4 37.4l16.5 4.4-1.3 4.8-16.5-4.4z"/><path fill="#eec2a2" fill-opacity=".5" d="M54 146l-1 18-5-11z"/><path fill="#080a02" fill-opacity=".6" d="M92.2 39.2l22.4-17.8-79.9 46.5 71.5-15.5z"/><path fill="#878478" fill-opacity=".6" d="M239.6 135l-3.4-10 34.8 17-18.2 43z"/><path fill="#b9b389" fill-opacity=".5" d="M253 51h3v24h-3z"/><path fill="#000c00" fill-opacity=".5" d="M82 31L18 10l45-8z"/><circle r="1" fill="#0d0f00" fill-opacity=".5" transform="matrix(.77507 -5.9565 22.32859 2.90544 228 30.7)"/><path fill="#0b0a11" fill-opacity=".7" d="M217.5 136.5l-57.7-64.8-19 1.8 12.9 52.4z"/><path fill="#590716" fill-opacity=".4" d="M19.3 92.4l-19 2.4 3.2-11.9 46.4 56.5z"/><path fill="#1b4219" fill-opacity=".3" d="M60.1 88.4l-16.9 13.8 9.6-3.6-7-14z"/><path fill="#b09f9f" fill-opacity=".6" d="M114.9 137.2l3.3 29.5-34.8-13.2 42-60.1z"/><path fill="#3c5737" fill-opacity=".8" d="M59.6 49.1L24.2 15.8l-1.5 12 26-1.5z"/></g></svg>