<svg xmlns="http://www.w3.org/2000/svg" viewBox="0 0 298 450"><defs/><path fill="#653b2c" d="M0 0h298v450H0z"/><g transform="translate(.9 .9) scale(1.75781)"><circle cx="63" cy="98" r="175" fill="#d7ccbf" fill-opacity=".6"/><circle r="1" fill="#f8faf9" fill-opacity=".9" transform="rotate(-62.1 42.7 -4) scale(162.26727 36.4474)"/><circle r="1" fill="#471500" fill-opacity=".6" transform="matrix(-34.34983 -14.36884 47.74704 -114.14298 75 184.6)"/><path fill="#eeefeb" fill-opacity=".5" d="M160.4 127.3l42.4 26.5-49.2 78.9-42.4-26.5z"/><ellipse cy="198" fill="#f2fbff" fill-opacity=".7" rx="18" ry="60"/><circle r="1" fill="#f6ffff" fill-opacity=".6" transform="rotate(-52.9 87.7 -160.4) scale(27.93728 116.94571)"/><circle cx="89" cy="86" r="48" fill="#945f4c" fill-opacity=".7"/><ellipse cx="44" cy="153" fill="#5e2d16" fill-opacity=".4" rx="39" ry="24"/><ellipse cx="72" cy="215" fill="#1c1000" fill-opacity=".4" rx="22" ry="63"/><path fill="#f9fbfa" fill-opacity=".8" d="M0 0h40v122H0z"/><path fill="#f8d8c5" fill-opacity=".5" d="M113.1 19.9L138 30.4l-21.1 49.7L92 69.6z"/><path fill="#f5fcfd" fill-opacity=".7" d="M102.6-27.4l15.5 22.1-46.7 32.7L55.9 5.3z"/><circle cx="118" cy="139" r="27" fill="#78452e" fill-opacity=".6"/><path fill="#a88570" fill-opacity=".5" d="M51 216l-53 55 58-156z"/><path fill="#290803" fill-opacity=".5" d="M79 43h32v12H79z"/><circle r="1" fill="#bab8b3" fill-opacity=".5" transform="matrix(-28.08033 14.74603 -11.77783 -22.4281 127.7 200.5)"/><circle r="1" fill="#441d05" fill-opacity=".5" transform="matrix(-1.04527 -4.48887 14.7703 -3.4394 98.7 16.8)"/><path fill="#511b00" fill-opacity=".4" d="M148.4 57.1l-27.8 46.2 5.9-55 43.1 33.5z"/><path fill="#fff3d7" fill-opacity=".4" d="M138 44l44-10 3 57z"/><path fill="#dac9ac" fill-opacity=".5" d="M35 64h15v65H35z"/><path fill="#744135" fill-opacity=".6" d="M98.6 75.9l-15 27.1-34.2-18.9 15-27.1z"/><path fill="#6b310a" fill-opacity=".4" d="M145.2 21.5l-36.1-8 28.4 21.6L159 53z"/><path fill="#68554a" fill-opacity=".8" d="M131 211.7l14 59.3-57-14.5 41.1 14.5z"/><ellipse cx="169" cy="175" fill="#fff" fill-opacity=".4" rx="7" ry="75"/><circle cx="25" cy="137" r="18" fill="#936350" fill-opacity=".7"/><circle r="1" fill="#e3c7b7" fill-opacity=".5" transform="matrix(38.14233 14.3764 -1.20069 3.18558 82.3 57.8)"/><path fill="#e2ded3" fill-opacity=".7" d="M81.5-1.6L23 98.1 100.4-8.5 185 36.4z"/><ellipse cy="149" fill="#feffff" fill-opacity=".7" rx="8" ry="63"/><path fill="#5a3122" fill-opacity=".5" d="M37 142.7l34.7 17.7-8.6 17-34.8-17.8z"/><circle r="1" fill="#c7985c" fill-opacity=".3" transform="matrix(-1.06987 48.3024 -23.30372 -.51616 152.4 108)"/><path fill="#633828" fill-opacity=".7" d="M162 249l-21 19 24-44z"/><path fill="#c98c72" fill-opacity=".5" d="M95 70l30-3-20 36z"/><path fill="#ebfcfa" fill-opacity=".3" d="M35.2 219.5l-30-45.7-14.3-24.3L29 183.7z"/><path fill="#e8cab9" fill-opacity=".5" d="M139.5 35.8L107.2 53l6.2-33.1-30.6.8z"/><path fill="#815441" fill-opacity=".5" d="M62 35h38v12H62z"/><path fill="#eae9e5" fill-opacity=".6" d="M143.6 163.3l41.4 66.9v-76.1l-54.3 7.9z"/><ellipse cx="103" cy="61" fill="#f8e1d3" fill-opacity=".6" rx="16" ry="5"/><path fill="#fcfffb" fill-opacity=".4" d="M36.6 124.5l22.8 21.9L20.5 83-16 95.6z"/><circle r="1" fill="#614029" transform="matrix(20.45565 -1.93516 2.97478 31.4449 60.6 255)"/><path fill="#451f13" fill-opacity=".3" d="M136 136l3.7 15.4-11.2 15.5-101.7 66.2z"/><path fill="#e0e2e0" fill-opacity=".9" d="M185 111.1l-31.4-90.5L54.5-16 179.3 9.4z"/><path fill="#432a1a" d="M56.3 164.5l27.1 35.6L70.7 141l-4.1-16.3z"/><path fill="#895645" fill-opacity=".5" d="M44 63l114 90-84-5z"/><path fill="#44251b" fill-opacity=".4" d="M110.4 55.5l-27.8 3-1-10 27.8-3z"/><path fill="#412216" fill-opacity=".6" d="M127 61h8v27h-8z"/><path fill="#aca49f" fill-opacity=".7" d="M134.5 221.7l32.8-11.8-27.6 60.3.9-28.5z"/><circle cx="13" cy="157" r="8" fill="#9a735c" fill-opacity=".8"/><path fill="#fff7e1" fill-opacity=".2" d="M116 124.7l22.3-42.6-2.2-14.4 14.4 16.2z"/><path fill="#96a8a3" fill-opacity=".3" d="M109 185l-20 53 58 33z"/><path fill="#edd8cc" fill-opacity=".4" d="M68 51l6 11 1-23z"/><path fill="#b4baba" fill-opacity=".5" d="M-9 241l34-19-27 43z"/><circle r="1" fill="#9a745e" fill-opacity=".6" transform="matrix(-15.8587 -34.47928 6.47953 -2.98025 24.8 159.3)"/><ellipse cx="165" cy="238" fill="#a4a19f" fill-opacity=".5" rx="2" ry="20"/><path fill="#724d36" fill-opacity=".5" d="M145.6 54.7l6.1 17.4 2.1 23.7-9.6-40.4z"/><path fill="#956d59" fill-opacity=".4" d="M11.3 250.8l48.9-126.9-24.6 139.6-51.6-11.7z"/><path fill="#e3c9b6" fill-opacity=".6" d="M104.3 37.8l5.5 13.2 6-30.2 41.8 33.6z"/><path fill="#592f11" fill-opacity=".4" d="M77 26l13-15 23-4z"/><circle r="1" fill="#eef0f0" fill-opacity=".6" transform="matrix(-17.9814 22.18794 -13.72803 -11.12537 80 0)"/><path fill="#b39880" fill-opacity=".5" d="M38 85l1-17 26 9z"/><ellipse cx="22" cy="215" fill="#977661" fill-opacity=".8" rx="4" ry="18"/><path fill="#1a0000" fill-opacity=".4" d="M129 222.9l16.9 43.9-1 .3-16.8-43.9z"/><path fill="#6d4835" fill-opacity=".6" d="M126.1 19.2l6.8 12 16 9.9 1.9-3.3z"/><ellipse cx="122" cy="219" fill="#eef1ff" fill-opacity=".2" rx="6" ry="21"/><path fill="#814f30" fill-opacity=".4" d="M156.5 58.9l-7.9-5.5 18.9 45-1.6-9.6z"/><path fill="#461715" fill-opacity=".5" d="M75.7 77.1l-1.2-2.4-19.1-6.8 24.3 18.4z"/></g></svg>