<svg xmlns="http://www.w3.org/2000/svg" viewBox="0 0 298 450"><defs/><path fill="#5e4033" d="M0 0h298v450H0z"/><g transform="translate(.9 .9) scale(1.75781)"><circle r="1" fill="#f1e2d7" fill-opacity=".5" transform="matrix(43.13284 -13.5359 35.69537 113.74508 83.7 187.8)"/><circle r="1" fill-opacity=".6" transform="matrix(-37.2763 -65.08808 41.59003 -23.81883 94.8 43.8)"/><circle r="1" fill="#d1c1b8" fill-opacity=".7" transform="matrix(-79.0253 130.44322 -17.14173 -10.38483 136.9 170.2)"/><circle r="1" fill="#a7a5ac" fill-opacity=".9" transform="matrix(-17.09906 14.8041 -16.0197 -18.5031 19 181.7)"/><ellipse cx="159" cy="226" fill="#253113" rx="35" ry="23"/><circle cx="85" cy="255" r="48" fill="#cef5ff" fill-opacity=".5"/><circle r="1" fill="#1c0f00" fill-opacity=".5" transform="matrix(33.38183 3.74437 -2.52262 22.48967 20.2 134.8)"/><ellipse cx="29" cy="64" fill="#dfe2f2" fill-opacity=".5" rx="7" ry="39"/><circle r="1" fill="#00090e" fill-opacity=".8" transform="matrix(-26.31494 21.30942 -11.7062 -14.45596 5 229.2)"/><path fill="#342615" fill-opacity=".7" d="M175-16L86 144l57-13z"/><path fill="#845244" fill-opacity=".8" d="M193.7 134.5L157 183.2l-20.7-15.7 36.7-48.7z"/><ellipse cx="59" cy="198" fill="#725f4f" fill-opacity=".6" rx="56" ry="13"/><path fill="#e0b19d" fill-opacity=".6" d="M48 143l42 31 95-38z"/><path fill="#fff5e4" fill-opacity=".6" d="M159 80h10v39h-10z"/><path fill="#e2c2b3" fill-opacity=".7" d="M59.6 72.2l-32.5-4.8 8 15.3 39.3 33.6z"/><circle r="1" fill="#6e8b90" fill-opacity=".5" transform="matrix(38.74768 -51.49368 17.7271 13.3392 30.4 255)"/><circle r="1" fill="#091001" fill-opacity=".4" transform="matrix(90.4538 -25.93721 17.76686 61.9604 122.6 15.3)"/><path fill="#f3fbff" fill-opacity=".7" d="M123 279.7l-27.1-36 23.1-17.4 27.1 36z"/><path fill="#b29a82" fill-opacity=".5" d="M0 25h10v48H0z"/><circle r="1" fill="#533425" fill-opacity=".6" transform="matrix(1.48738 13.26027 -28.6982 3.21902 96.2 87.6)"/><path fill="#d5dff9" fill-opacity=".4" d="M24.5 38.3l10.4 7.9-2.7-21.7-34.5 21.6z"/><path fill="#9a5234" fill-opacity=".5" d="M96.1 124.7l-40.7 23.5-7.5-13 40.7-23.4z"/><ellipse cx="162" cy="250" fill="#213611" fill-opacity=".7" rx="25" ry="71"/><circle r="1" fill="#674f45" fill-opacity=".3" transform="matrix(2.31138 69.67575 -6.81182 .22597 146.3 59)"/><path fill="#c79985" fill-opacity=".5" d="M105.6 204.9l-2.5-69.1 11.7-17.2 14.3 70.8z"/><path fill="#dfb3a8" fill-opacity=".7" d="M175 158l-29 3 30 9z"/><path fill="#c5d0e3" fill-opacity=".6" d="M-16 170.6l34.7 8.7 13.1-20.5-9.6-1.1z"/><path fill="#0b0908" fill-opacity=".8" d="M35.5 56.3l.1-24.7 76.5 31.8-74.4 6.8z"/><path fill="#d5f4ff" fill-opacity=".5" d="M124 219l32-38-56 29z"/><path fill="#270c06" fill-opacity=".5" d="M138.5 147.5l-36.2-39.4 40.8-20.9 4.3 23z"/><ellipse cx="9" cy="143" fill="#19160d" fill-opacity=".6" rx="31" ry="16"/><path fill="#e0b18e" fill-opacity=".3" d="M12 78l84 25-48 33z"/><path fill="#1a0c14" fill-opacity=".7" d="M30 44.8l-5.3 2-9.2 37.6-5.1-42.9z"/><ellipse cx="160" cy="152" fill="#2f0300" fill-opacity=".5" rx="10" ry="7"/><path fill="#57280e" fill-opacity=".5" d="M149 166l15 8-35 10z"/><path fill="#afbfcb" fill-opacity=".4" d="M67 255l-76 16 40-30z"/><path fill="#523715" fill-opacity=".4" d="M39 164l-54-49 48-25z"/><circle r="1" fill="#f78846" fill-opacity=".1" transform="matrix(23.36421 25.05505 -9.5224 8.87979 37.2 17.4)"/><path fill="#213404" fill-opacity=".7" d="M154 71l31 25-30-112z"/><ellipse cx="1" cy="64" fill="#92755e" fill-opacity=".6" rx="9" ry="46"/><path fill="#906a55" fill-opacity=".5" d="M25 184h84v20H25z"/><path fill-opacity=".1" d="M-8 263l-1-88 72 59z"/><path fill-opacity=".6" d="M65 0h24v79H65z"/><path fill="#0d1400" fill-opacity=".6" d="M126.1 229.1l-4.7-5.1 20.5-19.1 4.7 5.1z"/><path fill="#eac2af" fill-opacity=".5" d="M138 171l-24-38 16 56z"/><path fill="#d5997c" fill-opacity=".4" d="M22 157h66v28H22z"/><path fill="#3d0400" fill-opacity=".5" d="M92 124h11v19H92z"/><path fill="#b1775a" fill-opacity=".3" d="M96.3 79.8l11.9 14.5.6 7.1L86 158z"/><circle r="1" fill="#b3b7be" fill-opacity=".5" transform="matrix(11.44811 -11.16954 17.16652 17.59466 74 224.4)"/><circle cx="169" cy="132" r="6" fill="#240000" fill-opacity=".6"/><circle cx="137" cy="65" r="29" fill="#eec2c8" fill-opacity=".1"/><path fill="#2f2910" fill-opacity=".5" d="M47 198h46v3H47z"/><path fill="#2c3b17" fill-opacity=".9" d="M153 178l-5 93 36-89z"/><path fill="#190000" fill-opacity=".5" d="M65 91l25 7-24-19z"/><path fill="#000406" fill-opacity=".7" d="M-16 188.3l26.2 18.2 29.1-1.2L-16 271z"/><circle r="1" fill="#a67360" fill-opacity=".5" transform="rotate(-9.4 1113.1 -553.4) scale(37.56237 4.32395)"/><path fill="#80a2c3" fill-opacity=".4" d="M10.6 200.3L-16 152.6 41.1 204l26.9 5.6z"/><path fill="#bb8e74" fill-opacity=".5" d="M72 78h8v11h-8z"/><path fill="#070d00" fill-opacity=".6" d="M144 218l-17 7 24 46z"/><path fill="#dde5ef" fill-opacity=".4" d="M106.7 228l-40.6 42.1 81.4-7.3-16.1-25.7z"/><path fill="#3e2114" fill-opacity=".9" d="M5.1 13.6L41.8-16l2.9 23.9L-4-16z"/><path fill="#ae776f" fill-opacity=".4" d="M38-15L7 18l23 5z"/><ellipse cx="133" cy="13" fill="#0b0400" fill-opacity=".5" rx="8" ry="52"/><path fill="#a2765a" fill-opacity=".4" d="M71.5 196.2L27.6 68.8l30.7 1.9-43.9 7.1z"/><path fill="#c69377" fill-opacity=".4" d="M114.2 148.5l50.9-15.3-33.8-12.6 24.8 47.3z"/></g></svg>