<svg xmlns="http://www.w3.org/2000/svg" viewBox="0 0 300 199"><defs/><path fill="#3f3f3f" d="M0 0h300v199H0z"/><g transform="translate(.6 .6) scale(1.17188)"><circle r="1" fill="#fff" fill-opacity=".7" transform="rotate(-68.2 216.3 -107.4) scale(87.84799 41.0379)"/><circle cx="118" cy="81" r="103" fill="#b3b3b3" fill-opacity=".3"/><path fill="#fdfdfd" fill-opacity=".7" d="M121-14l-46 4 20 42z"/><circle r="1" fill="#929292" fill-opacity=".6" transform="matrix(-9.85711 17.64633 -86.61842 -48.38443 218.1 84.7)"/><ellipse cx="94" cy="89" fill="#0f0f0f" fill-opacity=".5" rx="29" ry="56"/><circle r="1" fill="#080808" fill-opacity=".5" transform="rotate(-172.1 82.2 36) scale(30.39229 18.94297)"/><circle r="1" fill="#f4f4f4" fill-opacity=".5" transform="matrix(-9.11291 8.52116 -15.8786 -16.98128 166.6 3.9)"/><ellipse cx="33" fill="#ccc" fill-opacity=".5" rx="45" ry="15"/><path fill="#d0d0d0" fill-opacity=".5" d="M69 145L59 52l-14 66z"/><path fill="#fff" fill-opacity=".6" d="M237.4 107.5l29.6 53.3-46.4 25.7-29.6-53.3z"/><ellipse cx="48" cy="33" fill="#0a0a0a" fill-opacity=".6" rx="40" ry="10"/><path fill="#8e8e8e" d="M258.7 46.5l-17.2-25.9 2.5 80.9-17.8-33.7z"/><circle r="1" fill="#8e8e8e" fill-opacity=".6" transform="matrix(43.4233 4.5026 -2.0868 20.1253 144.9 161.4)"/><path fill-opacity=".6" d="M250.2 108.4l18 27.7-8.4 5.5-18-27.7z"/><path fill="#1f1f1f" fill-opacity=".5" d="M16-16L-3 185l48-91z"/><path fill="#b0b0b0" fill-opacity=".6" d="M104 27L88 58l17 16z"/><circle r="1" fill="#090909" fill-opacity=".7" transform="rotate(-17.1 236.2 -731.3) scale(13.46325 31.91017)"/><circle r="1" fill="#bebebe" fill-opacity=".4" transform="matrix(-22.45142 7.1234 -9.89545 -31.18832 211.2 86.7)"/><path fill="#dadada" fill-opacity=".4" d="M124 61h7v74h-7z"/><path fill="#8f8f8f" fill-opacity=".7" d="M55 70l-64-1 3-22z"/><ellipse cx="141" cy="97" fill="#080808" fill-opacity=".5" rx="11" ry="37"/><path fill="#b3b3b3" fill-opacity=".4" d="M174 119l-23-39 3 60z"/><path fill="#1f1f1f" fill-opacity=".4" d="M174 43h13v109h-13z"/><path fill="#fff" fill-opacity=".5" d="M159 40l-11 19-2-32z"/><path fill="#9f9f9f" fill-opacity=".4" d="M129.5 102.9l-36.4 3.6 7.3-37.2 26.9 90.7z"/><ellipse cx="141" cy="108" fill="#f3f3f3" fill-opacity=".5" rx="2" ry="25"/><path fill="#fdfdfd" fill-opacity=".4" d="M158.4 80.9l12.8-43.3 18.1 4.1-9.5-21.5z"/><path fill="#e5e5e5" fill-opacity=".4" d="M142 66.8l-16.8-9.2 2.5-14.6 12.9-11.6z"/><path fill="#1c1c1c" fill-opacity=".6" d="M66 71h28v59H66z"/><path fill="#191919" fill-opacity=".7" d="M212.5 58.8l-8.7-15.7L267.5-16l-50.9 76.3z"/><path fill="#2c2c2c" fill-opacity=".5" d="M95.9 22.4L48.5 6.3l-.7 40.1L74 26z"/><circle r="1" fill="#7d7d7d" fill-opacity=".6" transform="rotate(-149.4 49 77.4) scale(12.07526 45.23412)"/><circle r="1" fill="#fff" fill-opacity=".4" transform="matrix(-11.01146 -7.11174 1.2919 -2.00031 97.9 33)"/><path fill="#323232" d="M-16 48.1L46-16l12.1 1.1L13.7 3.8z"/><path fill="#b6b6b6" fill-opacity=".6" d="M44 26.6L15.2-11.9l12.1 16 22.4 6z"/><path fill-opacity=".4" d="M-11 126l59 18-64 40z"/><path fill="#e2e2e2" fill-opacity=".5" d="M199 94l30 29 21-29z"/><path fill-opacity=".5" d="M7 60h54v4H7z"/><path fill="#fefefe" fill-opacity=".2" d="M69.4 66.1L57.3 93.8 36.8 56.4l-.1-6.4z"/><path fill="#282828" fill-opacity=".7" d="M177.7-14.4l39 56.7-37-31.6L203.3-15z"/><ellipse cx="144" cy="50" fill="#0e0e0e" fill-opacity=".6" rx="2" ry="35"/><path fill="#1f1f1f" fill-opacity=".4" d="M127.2 82.3l-20.9-70.9-4.1 127.4 10.2 6.5z"/><path fill="#fbfbfb" fill-opacity=".5" d="M-16 82l25 1-25 21z"/><path fill="#fff" fill-opacity=".3" d="M78-3L35-16l35 35z"/><circle r="1" fill="#3e3e3e" fill-opacity=".5" transform="matrix(-4.23073 6.18558 -35.75515 -24.45534 133.1 14)"/><path fill="#6a6a6a" fill-opacity=".5" d="M257 62l-15 55 19-7z"/><circle r="1" fill="#464646" fill-opacity=".5" transform="rotate(-92.2 147 -46) scale(26.61629 2.11306)"/><path fill="#fff" fill-opacity=".5" d="M245 40h11v6h-11z"/><path fill="#afafaf" fill-opacity=".6" d="M100 29l12-25-36 28z"/><circle r="1" fill="#050505" fill-opacity=".5" transform="matrix(-.2763 7.75368 -13.5186 -.48174 86.3 40.2)"/><path fill="#d4d4d4" fill-opacity=".4" d="M203.3 53.3l-14.6 9.1 38-4.7-9.3 27.6z"/><path fill="#080808" fill-opacity=".5" d="M4.6 111.3l17.9 4.3 26 6.9L30.4 105z"/><path fill="#fff" fill-opacity=".2" d="M66 55.3l.3-7.6.1-7.3 27.7 20.9z"/><path fill="#454545" fill-opacity=".6" d="M145.2 21.4l13-14 22.6 21.2-13 14z"/><path fill="#f7f7f7" fill-opacity=".3" d="M179 15.8L189.8-16H144l37.3 45.9z"/><path fill="#bababa" fill-opacity=".5" d="M-16.4 0l13.1-15L16.4 2 3.3 17z"/><path fill="#3a3a3a" fill-opacity=".9" d="M139.9 33.4L128 39.5l-12 47.2 5.4-56.5z"/><ellipse cx="22" cy="132" fill="#888" fill-opacity=".6" rx="11" ry="4"/><path fill="#909090" fill-opacity=".6" d="M73.2 101.8l-39.5 22.5-4 16.7 16.5-44.6z"/><path fill="#555" fill-opacity=".5" d="M-.9 101.6l-3.9-11.3L53 70.4l3.9 11.3z"/><ellipse cx="135" cy="108" fill="#080808" fill-opacity=".6" rx="4" ry="29"/><path fill="#333" fill-opacity=".6" d="M170 50l34 2-38 10z"/><path fill="#c1c1c1" fill-opacity=".9" d="M179.9 28.7l5.6 12.4 5-9.4-20.7 9z"/><path fill="#010101" fill-opacity=".4" d="M36.8 68.6l-33 15.8L-16 66.3v6.8z"/><path fill="#909090" fill-opacity=".6" d="M50.9 147.3l6.5-5.1 29.9-5-40.1-14.6z"/></g></svg>