<svg xmlns="http://www.w3.org/2000/svg" viewBox="0 0 300 199"><defs/><path fill="#62493e" d="M0 0h300v199H0z"/><g transform="translate(.6 .6) scale(1.17188)"><circle r="1" fill="#c5cbc9" fill-opacity=".4" transform="matrix(3.01798 -15.24191 115.15667 22.80163 98.6 126.8)"/><ellipse cx="70" cy="40" fill="#000808" fill-opacity=".7" rx="20" ry="62"/><path fill="#9a9d9a" fill-opacity=".6" d="M86.4 12.2l51.1-54.9 54.1 50.5-51.1 54.9z"/><circle r="1" fill="#24231a" fill-opacity=".7" transform="matrix(-69.9374 37.92 -9.68623 -17.86472 233.7 24.2)"/><circle r="1" fill="#b8bbbd" fill-opacity=".4" transform="matrix(60.8879 -23.57275 4.6977 12.13404 76 120)"/><path fill="#f3f8ed" fill-opacity=".5" d="M147 163l-40 10 53-39z"/><path fill="#cbafd7" fill-opacity=".5" d="M176 97h27v24h-27z"/><circle r="1" fill="#140b00" fill-opacity=".5" transform="matrix(-29.03904 -53.51522 14.14304 -7.67446 239 145.5)"/><circle r="1" fill="#081904" fill-opacity=".7" transform="rotate(88.4 -34.2 128.5) scale(22.62633 14.6878)"/><ellipse cx="22" cy="80" fill="#1b2826" fill-opacity=".5" rx="118" ry="26"/><circle r="1" fill="#03172a" fill-opacity=".6" transform="matrix(17.3876 -1.39112 1.81075 22.63254 158.6 99.7)"/><path fill="#332e2b" d="M143.7 27.5l58.4 43.3-10.4 29.2-23-78z"/><circle r="1" fill="#bec2c8" fill-opacity=".4" transform="matrix(-9.27913 -6.49062 19.21909 -27.47601 117 27.5)"/><path fill="#dfe9c3" fill-opacity=".6" d="M212.8 5.4l-36.9 8.2-19.7-3.6 27.2-4.9z"/><path fill="#f3ffd8" fill-opacity=".2" d="M47 85.8l11.2 39 109.8 56-98-79.4z"/><ellipse cx="142" cy="19" fill="#100800" fill-opacity=".6" rx="3" ry="36"/><path fill="#fff8e2" fill-opacity=".4" d="M35.9 114.9l-1.7-20.6-15.3 2.4 7.7 17.4z"/><path fill="#001400" fill-opacity=".3" d="M50 111l-20 66v-54z"/><ellipse cx="255" cy="26" fill="#000200" fill-opacity=".7" rx="5" ry="63"/><circle r="1" fill="#5c3f4b" fill-opacity=".5" transform="matrix(-54.6838 -29.3212 4.1198 -7.68338 156.5 139)"/><circle r="1" fill="#997f4e" fill-opacity=".5" transform="matrix(2.86346 -54.30276 4.45047 .23468 243.3 19.3)"/><path fill="#ac9fa6" fill-opacity=".5" d="M87 94h49v12H87z"/><path fill="#152127" fill-opacity=".6" d="M114 45h18v47h-18z"/><path fill="#0c0b00" fill-opacity=".4" d="M241 4l-95-1 36-19z"/><path fill="#ab9fa7" fill-opacity=".6" d="M130-16l5.4 87.1 9.1 16 2.1-9.6z"/><path fill="#abc8de" fill-opacity=".5" d="M19.4 177l-20 1-.8-17 20-1z"/><circle r="1" fill="#9aa49c" fill-opacity=".5" transform="matrix(9.65208 4.41907 -6.34078 13.84947 52.3 138.9)"/><ellipse cx="199" cy="124" fill="#8c738d" fill-opacity=".5" rx="8" ry="43"/><path fill="#171308" fill-opacity=".6" d="M22.3 97.3l-1.1 15.8-24.3-21.3 15.9-31.6z"/><path fill="#c0b59c" fill-opacity=".6" d="M177.2 38.6L155.7 7.9 197.1 20 166.8-4.3z"/><ellipse cx="255" cy="110" fill="#d47a37" fill-opacity=".3" rx="30" ry="21"/><path fill="#524841" d="M244.4 44l-15.5 58.5-30.5-29.9-9.7-21.9z"/><path fill="#a392a4" fill-opacity=".5" d="M138.6 142.2l65.3-33.1-72.1 51.9 3-29.3z"/><path fill="#b09976" fill-opacity=".6" d="M5 96l6 25-27 41z"/><path fill="#fff" fill-opacity=".5" d="M49 105l7 10 17-8z"/><path fill="#fac6db" fill-opacity=".3" d="M178.8 85.3l-11.4-7.5-5.3-10.1 15.9-5.5z"/><ellipse cx="75" cy="155" fill="#242d1c" fill-opacity=".5" rx="69" ry="5"/><ellipse cx="92" cy="9" fill="#6c553c" fill-opacity=".9" rx="7" ry="24"/><path fill="#868171" d="M104.3 137.4l25.2 44-8.9-40.2-13.1 14z"/><path fill="#322521" fill-opacity=".6" d="M221.9 134.7L205.2 185l-.5-30.3 35.1-115.5z"/><path fill="#86807a" fill-opacity=".5" d="M8.8 139.2l1.5 35.1 46.2-63.2 27.3 17.7z"/><path fill="#060c0f" fill-opacity=".3" d="M62 66h51v34H62z"/><path fill="#170a03" fill-opacity=".5" d="M207 4l33-17-4 66z"/><path fill="#3a2420" fill-opacity=".5" d="M159 141h30v9h-30z"/><path fill="#544330" fill-opacity=".7" d="M180.4-4.2l-43.7-2.4 5.1 32.8 13.7-14.7z"/><path fill="#000300" fill-opacity=".5" d="M261 135l13.4 36.7L249 181l-13.4-36.6z"/><ellipse cx="33" cy="54" fill="#524438" fill-opacity=".7" rx="22" ry="35"/><path fill="#c1b1b2" fill-opacity=".5" d="M102 107l-22 43 10-57z"/><path fill="#131c00" fill-opacity=".5" d="M137.5 199.1l-6.8 4.2L90.5 139l6.8-4.2z"/><path fill="#191a19" fill-opacity=".7" d="M87.6 111.4L95 27.6 57 47.8l5.7 44.8z"/><path fill="#aeadad" fill-opacity=".4" d="M52 83h9v17h-9z"/><path fill="#989187" fill-opacity=".5" d="M39 0h11v20H39z"/><path fill="#2a3515" fill-opacity=".3" d="M110 142.4L29.7 185l42.4-44.1-11.3-14.4z"/><circle r="1" fill="#9c9ca0" fill-opacity=".5" transform="rotate(70.9 52.4 87.4) scale(34.45247 19.22045)"/><path fill="#fdf8f5" fill-opacity=".5" d="M156.3 134.4l-8.2 27.3L132 168l12.6-13.6z"/><path fill="#464030" fill-opacity=".6" d="M6.9 113.2l16.4 15.5L55.9 115l-38.8 27.7z"/><path fill="#380b01" fill-opacity=".3" d="M106.9 108.4l41.6 31.5-13.3-32.6-34.9 26.2z"/><path fill="#ab98bc" fill-opacity=".4" d="M195.1 102.9L165.4 130l14.5-31.5 18.3 55.9z"/><ellipse cx="75" cy="165" fill="#dec6b2" fill-opacity=".5" rx="6" ry="5"/><path fill="#b8beaf" fill-opacity=".7" d="M16.8 110.3l27.5-3.6 2.3 3.1-25.1 9.6z"/><path fill="#816fa4" fill-opacity=".4" d="M217 184l-4-36 19 6z"/><path fill="#3d2d2d" fill-opacity=".5" d="M204.6 89.8L271 74.2l-76.2 46 54.8 64.8z"/><path fill="#001500" fill-opacity=".4" d="M4 138h5v27H4z"/><path fill="#fffff7" fill-opacity=".5" d="M158.3 8.4l4.2 12.3-2.8 1-4.2-12.4z"/><path fill="#b78caa" fill-opacity=".5" d="M121 116l19-14-29-13z"/></g></svg>