<svg xmlns="http://www.w3.org/2000/svg" viewBox="0 0 300 199"><defs/><path fill="#7b4f3d" d="M0 0h300v199H0z"/><g transform="translate(.6 .6) scale(1.17188)"><circle r="1" fill="#f5f8f5" fill-opacity=".9" transform="matrix(-58.24517 -6.05208 20.58363 -198.09678 28.4 106)"/><circle r="1" fill="#ebeae4" fill-opacity=".9" transform="rotate(90.2 94 143.5) scale(181.39678 53.35006)"/><path fill="#ebfbff" fill-opacity=".5" d="M142 108L94 71l43 114z"/><circle r="1" fill="#e8e9d5" fill-opacity=".6" transform="matrix(28.0483 2.64748 -1.15267 12.21181 139.6 16)"/><circle r="1" fill="#040b16" fill-opacity=".7" transform="matrix(7.09145 37.77297 -22.1775 4.16358 166.7 139.3)"/><path fill="#00000b" fill-opacity=".6" d="M87.8 177.3l8.6-69.5 23.8 3-8.6 69.4z"/><ellipse cx="97" cy="169" fill="#423a34" fill-opacity=".8" rx="59" ry="6"/><path fill="#463a35" d="M98 158l82.9 9.2 33.7-4.8L266 185z"/><path fill="#dad4c5" fill-opacity=".8" d="M157.8 77l5.3 3.4 2.6 19.5 32.7-9.9z"/><path fill="#e5e0d8" d="M173.7 1.3l65.1 121.5L219.5 4.2 136.2-16z"/><path fill="#fff" fill-opacity=".5" d="M95 86h12v21H95z"/><path fill="#e6f4f8" fill-opacity=".5" d="M116 120h27v37h-27z"/><path fill="#efede8" fill-opacity=".8" d="M84.4 161L-16 36.8 111.3-16 83.9 25.7z"/><path fill="#5e4433" fill-opacity=".6" d="M87 26h71v58H87z"/><path fill="#20232f" fill-opacity=".5" d="M138 100h51v26h-51z"/><path fill="#fff7ff" fill-opacity=".2" d="M145.8 16.6l.4 22-42 .8-.4-22z"/><path fill="#fbe3be" fill-opacity=".2" d="M160.6 134.6l-2.8 23.6-1.3-67.9 21-45.7z"/><path fill-opacity=".5" d="M96 39h86v6H96z"/><circle r="1" fill="#391a1b" fill-opacity=".5" transform="matrix(-15.94319 -18.76032 5.13734 -4.36589 169.4 13.4)"/><path fill="#0f0e1a" fill-opacity=".7" d="M135.5 85.3l13.5 77.5 15.6 3.5-20.4-77.8z"/><path fill="#ae8784" fill-opacity=".6" d="M86 53h7v55h-7z"/><path fill="#e4e0d9" fill-opacity=".9" d="M192.7 164.8L271 60l-83.7 24.9 3.2 63.7z"/><path fill="#2c1806" fill-opacity=".6" d="M135.2 82.5l18.1-13-26.3-4.4-26.7 6.6z"/><path fill="#f8eae4" fill-opacity=".4" d="M142.6 104L132 89.6l-29.1 17.8-9.6-20.1z"/><circle r="1" fill="#562313" fill-opacity=".6" transform="rotate(-75.8 130 -22.4) scale(12.08432 2.70537)"/><path fill="#cce0f4" fill-opacity=".5" d="M149 110l-3-20 6 2z"/><path fill="#00030e" fill-opacity=".3" d="M84.6 124.1l-3 54.7 36.6-9.3-10-64.5z"/><ellipse cx="131" cy="150" fill="#d5dbd7" fill-opacity=".3" rx="14" ry="39"/><path fill="#e5dcd3" fill-opacity=".5" d="M134.4 108l-22.2 21.3-3.9-26.2 25.1 56.7z"/><path fill="#5e2f24" fill-opacity=".5" d="M189 102.3h-1l-7-78.6h1z"/><path fill="#41332d" fill-opacity=".8" d="M56 164h62v6H56z"/><path fill="#c2aa90" fill-opacity=".5" d="M152 128l11 1 3 14z"/><path fill="#2c1a14" fill-opacity=".4" d="M144.6 174.6l56.7-.3-18-27.5-56.5 15.4z"/><path fill="#15151a" fill-opacity=".7" d="M164.4 139.9l-4.5-26.3 12.8-18.4 15.9 89.8z"/><path fill="#e6d1c9" fill-opacity=".4" d="M167.4 101.1l2.7-27.8-8.2-4 2.1 41.4z"/><path fill="#2d0d15" fill-opacity=".4" d="M89.4 30.7L116.2-16l2.6 21.2-35.9 26.4z"/><path fill="#d3ccbb" fill-opacity=".7" d="M107 24l67 1-28-13z"/><path fill="#070c10" fill-opacity=".6" d="M116 145l-24-42v63z"/><circle r="1" fill="#e5e2dc" fill-opacity=".5" transform="matrix(8.77666 -31.45824 16.62277 4.63765 54.7 136.6)"/><circle cx="115" cy="90" r="5" fill="#ebcee4" fill-opacity=".7"/><path fill="#f1e9e1" fill-opacity=".5" d="M100.4 108.8l-2.8-6.8 1.7-17.9 11.5-10z"/><ellipse cx="153" cy="110" fill="#080b22" fill-opacity=".5" rx="3" ry="26"/><path fill="#906861" fill-opacity=".6" d="M88.8 151.3l10.1-94.6-9.8-35.5-4.1 91.4z"/><path fill="#f1ece4" fill-opacity=".5" d="M180.4 13.9l44.2 74.7-45.2 5.9 17.2-30.4z"/><path fill="#b58c84" fill-opacity=".5" d="M113 38l-20 1 17-26z"/><path fill="#855453" fill-opacity=".5" d="M89 26h74v14H89z"/><path fill="#1d1b1a" fill-opacity=".5" d="M131.9 105.2l5.3-4.5 51.4 50.4-22.2-20.3z"/><ellipse cx="174" cy="70" fill="#cbbda2" fill-opacity=".5" rx="2" ry="23"/><path fill="#6b411f" fill-opacity=".4" d="M99 51l11 46 5-41z"/><path fill="#f1efec" fill-opacity=".6" d="M65 39h18v124H65z"/><ellipse cx="176" cy="81" fill="#2a1b1d" fill-opacity=".7" rx="6" ry="2"/><path fill-opacity=".5" d="M88 40h90v4H88z"/><circle r="1" fill="#d2cfca" fill-opacity=".4" transform="rotate(150.2 -14.4 81.5) scale(18.15571 64.44732)"/><circle cx="158" cy="146" r="10" fill="#0e0100" fill-opacity=".5"/><circle r="1" fill="#b4b5b4" fill-opacity=".5" transform="matrix(6.27713 -1.58836 3.30953 13.07915 139.4 143)"/><path fill="#e9f6f0" fill-opacity=".5" d="M126 3h22v5h-22z"/><circle cx="160" cy="130" r="4" fill="#e4deb9" fill-opacity=".5"/><ellipse cx="185" cy="124" fill="#7e3525" fill-opacity=".5" rx="3" ry="31"/><path fill="#907870" fill-opacity=".6" d="M156 97l-13-9.1 25.7 8-9.7 21z"/><ellipse cx="160" cy="20" fill="#b77527" fill-opacity=".6" rx="3" ry="5"/><circle r="1" fill="#c4c1b6" fill-opacity=".6" transform="rotate(10 -838.6 1542.2) scale(18.95266 31.11712)"/><path fill="#4b2726" fill-opacity=".4" d="M175.7 65.5l8.7-47.4L157.6-16l27.3 98.4z"/><path fill="#745835" fill-opacity=".5" d="M115 44h59v23h-59z"/><path fill="#210500" fill-opacity=".6" d="M123 92.6l-3-2.5 9-10.7 3 2.5z"/><path fill="#6f462c" fill-opacity=".8" d="M161 71.5l-24.3 4.4 26 21.9.4-10z"/></g></svg>