<svg xmlns="http://www.w3.org/2000/svg" viewBox="0 0 300 199"><defs/><path fill="#503d2f" d="M0 0h300v199H0z"/><g transform="translate(.6 .6) scale(1.17188)"><ellipse cx="158" cy="111" fill="#c6c3ae" fill-opacity=".6" rx="160" ry="63"/><circle r="1" fill="#000500" fill-opacity=".7" transform="matrix(-25.5183 -26.17864 7.6577 -7.46454 34.2 102)"/><circle r="1" fill="#dedfb8" fill-opacity=".6" transform="matrix(5.29007 -18.98236 52.86085 14.73143 95 71.2)"/><circle r="1" fill="#16140f" fill-opacity=".6" transform="matrix(-82.11954 30.5369 -12.48337 -33.57017 150.8 13.7)"/><circle r="1" fill="#c3d4c1" fill-opacity=".6" transform="matrix(-.10768 14.25719 -16.7738 -.1267 30 37.3)"/><circle r="1" fill="#6c4302" fill-opacity=".4" transform="matrix(11.57251 53.92126 -23.08592 4.95467 132.2 138.7)"/><circle r="1" fill="#fffde2" fill-opacity=".6" transform="matrix(26.60399 -8.49042 4.02532 12.613 143.5 71.6)"/><circle r="1" fill="#c1b9b1" fill-opacity=".6" transform="matrix(-17.75043 84.23181 -22.03381 -4.64325 182.1 143.6)"/><ellipse cx="243" cy="169" fill="#6b6b73" fill-opacity=".8" rx="33" ry="127"/><circle r="1" fill="#cbd2b9" fill-opacity=".5" transform="matrix(-13.40848 43.26664 -17.84023 -5.52875 79.4 92.4)"/><circle r="1" fill="#040300" fill-opacity=".7" transform="matrix(4.26128 18.05048 -101.62042 23.99012 21.6 5.4)"/><circle r="1" fill="#210b00" fill-opacity=".7" transform="rotate(113 51.7 98.3) scale(13.48744 8.35477)"/><ellipse cx="241" cy="13" fill="#15110e" fill-opacity=".7" rx="125" ry="16"/><circle r="1" fill="#87705e" fill-opacity=".8" transform="matrix(-47.34092 19.99759 -6.89974 -16.33397 46.9 159.3)"/><path fill="#bebdc2" fill-opacity=".3" d="M109.5 4.8L84.1 24.7l6.7 4.8 32.2-1.4z"/><circle r="1" fill="#001334" fill-opacity=".7" transform="matrix(6.96241 .40607 -1.0916 18.71625 140.1 159.2)"/><path fill="#040b00" fill-opacity=".8" d="M27.2 101.8l15.2 6.4 22.3-18.1-13.2 1z"/><circle r="1" fill="#362d0e" fill-opacity=".5" transform="matrix(23.05839 -16.96322 3.54799 4.82284 107.7 61)"/><path fill="#9fbbcf" fill-opacity=".6" d="M35 121l-51-55 38 76z"/><circle r="1" fill="#502b02" fill-opacity=".4" transform="rotate(-100.4 140 -26.3) scale(29.75934 4.3652)"/><path fill="#eff" fill-opacity=".4" d="M87 100l-36 38-1 39z"/><circle r="1" fill-opacity=".6" transform="matrix(-10.81793 .33997 -.74847 -23.81668 0 138.6)"/><path fill="#f6d072" fill-opacity=".5" d="M155.6 84.4l-7.3 41-24.4-40.3 34.8-5.7z"/><path fill="#271507" fill-opacity=".5" d="M70 131h13v26H70z"/><circle r="1" fill="#2f282a" fill-opacity=".4" transform="rotate(52.3 -56.9 318.7) scale(18.0121 103.24655)"/><circle r="1" fill="#8d919e" fill-opacity=".7" transform="rotate(170.2 110.5 39.6) scale(31.82668 12.19016)"/><path fill="#64493d" fill-opacity=".7" d="M24.5 185l10.2-15.7 24-58.7-48.8 38.6z"/><circle r="1" fill="#bebcb7" fill-opacity=".4" transform="matrix(14.97484 -6.74585 13.50147 29.97136 209.8 98)"/><path fill="#bdc4ab" fill-opacity=".5" d="M51 43l54 16-77 13z"/><path fill="#fbc4a3" fill-opacity=".5" d="M90 122h22v16H90z"/><path fill="#f8fdfd" fill-opacity=".3" d="M169.4 98.2l7.6 2.7 14.1 54.6-23.3 8.2z"/><circle r="1" fill="#25252b" fill-opacity=".5" transform="matrix(-56.1346 21.66054 -7.32739 -18.98937 222.8 25.9)"/><path fill="#3a2b0a" fill-opacity=".7" d="M221 85.1l-4.5-6.6 20.5-6.2 1.9 9.3z"/><path fill-opacity=".5" d="M60 127L20 65 10 88z"/><circle r="1" fill="#908c63" transform="matrix(15.54584 -.10496 .04872 7.21681 49.4 74.4)"/><ellipse cx="110" cy="115" fill="#98641b" fill-opacity=".6" rx="30" ry="7"/><path fill="#ecdeb2" fill-opacity=".4" d="M67 84h44v22H67z"/><path fill="#714931" fill-opacity=".5" d="M180 125l22 12-9-27z"/><path fill="#fff" fill-opacity=".7" d="M95 20l2.4 3.2L91 28l-2.4-3.2z"/><path fill="#655e40" d="M-16 24.2l11.7 26.7 39.5-3L-16 98.1z"/><ellipse cx="166" cy="64" fill="#f1cfb5" fill-opacity=".3" rx="40" ry="11"/><path fill="#9d5c3f" fill-opacity=".6" d="M99 141l-18-37 9 81z"/><path fill="#e6fdf9" fill-opacity=".2" d="M52.2 103.3l-38.1 38.8 96.7-62.5-38.5 56.8z"/><path fill="#0f1c04" fill-opacity=".4" d="M61.4 115.8L57 136.2 25.7 72.9l-6.2 43.3z"/><path fill="#a18a50" fill-opacity=".6" d="M167.5 104.1l.3-8.3-22.9-1.6 16.5 66.1z"/><path fill="#110b02" fill-opacity=".5" d="M9.8 2.5l6.7-12.3 99.7 55.3-6.7 12.3z"/><path fill="#110901" fill-opacity=".7" d="M176.3 79.7l-19.1 16.2 5-21.9 9 1.8z"/><path fill="#0b0804" fill-opacity=".8" d="M-5.9 13.9L55-16 15.3 24.1-16 77.4z"/><path fill="#8f6f2a" fill-opacity=".6" d="M134.9 99.9l25.1 40-68.1-46.5 3.6 18z"/><path fill="#bc9175" fill-opacity=".5" d="M134 132l-84 34 53-4z"/><path fill="#afab8a" d="M96.8 51.5l14.4 24.3-33.3-20.2 1.4-6z"/><path fill="#bfcec8" fill-opacity=".3" d="M29.8 20l37.9 38.9L81 75.5 12.2 30z"/><path fill="#152806" fill-opacity=".5" d="M46.6 55.9l-14.9 8.2-17.9 36.5 19-55z"/><path fill="#a7c6ff" fill-opacity=".4" d="M2 158l27 17-22-4z"/><path fill="#382a1c" fill-opacity=".6" d="M103.5 63.9l1.8 1.3 14-11.3L93.4-11z"/><path fill="#fff" fill-opacity=".5" d="M139 81.3l-34.4-9.1 12.6-7.1 23.4 4.6z"/><path fill="#6f4737" fill-opacity=".6" d="M138 165l-30-10-2 30z"/><path fill="#525000" fill-opacity=".3" d="M58.1 103.8L46.8 86.6l10.9-17.5 10.2 45.1z"/><path fill="#a9bbc2" fill-opacity=".5" d="M19 119h26v13H19z"/><ellipse cx="46" cy="150" fill="#181300" fill-opacity=".5" rx="2" ry="13"/><circle r="1" fill="#8f8c8b" fill-opacity=".5" transform="rotate(124.5 78.2 115.9) scale(41.35223 13.64914)"/><path fill="#2b3326" fill-opacity=".5" d="M78.7 52.2l-5.2-9.6L67.2 9 44.1 44.1z"/><path fill="#423c38" fill-opacity=".4" d="M271 15.8l-86.4 37.6 5.9 25.4-29.2-51z"/><circle r="1" fill="#070200" fill-opacity=".5" transform="matrix(-3.13 -9.35456 33.55742 -11.22816 239 4)"/><path fill="#223c0d" fill-opacity=".3" d="M145.1 145.8l6-27.6 5.2-2.5-1.5 35.8z"/></g></svg>