<svg xmlns="http://www.w3.org/2000/svg" viewBox="0 0 300 199"><defs/><path fill="#53382d" d="M0 0h300v199H0z"/><g transform="translate(.6 .6) scale(1.17188)"><circle r="1" fill="#fff" fill-opacity=".5" transform="matrix(11.25115 -3.64001 21.19427 65.51077 89.7 59.1)"/><ellipse cx="175" cy="109" fill="#b0aaa2" fill-opacity=".5" rx="57" ry="40"/><circle r="1" fill="#060400" fill-opacity=".7" transform="rotate(79.9 -38.6 58.4) scale(205.17957 40.80882)"/><path fill="#fffffb" fill-opacity=".5" d="M125 133h124v11H125z"/><ellipse cx="203" cy="14" fill="#151b14" fill-opacity=".7" rx="123" ry="26"/><path fill="#000203" fill-opacity=".7" d="M225 55h31v76h-31z"/><circle r="1" fill="#fff" fill-opacity=".6" transform="rotate(-119.8 65.9 3.4) scale(30.05192 7.65302)"/><circle r="1" fill-opacity=".5" transform="matrix(2.19701 -13.93478 69.40716 10.943 217 160.5)"/><circle r="1" fill="#efdcd5" fill-opacity=".4" transform="matrix(.32276 -20.54601 10.17865 .1599 97.3 118.2)"/><path fill="#010001" fill-opacity=".6" d="M135.7 134.3l-39.4 13.6 16.7-36.6 31.6 2.6z"/><path fill="#d9bab1" fill-opacity=".5" d="M232 27l11-10 15 50z"/><circle r="1" fill="#3d2b22" fill-opacity=".5" transform="matrix(23.89332 -5.72996 15.56493 64.9041 67 81.1)"/><path fill="#e8d4cf" fill-opacity=".6" d="M157.2 105.4l-7-.8-6.5-28.6 31.9 16.9z"/><circle r="1" fill="#513022" fill-opacity=".8" transform="matrix(1.11791 21.1006 -34.57257 1.83165 174.8 62)"/><path fill="#feded7" fill-opacity=".5" d="M131.9 112.5l-2.5-36-10.5 17.8 2.5 23.1z"/><path fill="#bdb6ac" fill-opacity=".6" d="M199 79h30v21h-30z"/><path fill-opacity=".7" d="M0 121h86v33H0z"/><path fill="#fafeff" fill-opacity=".5" d="M106.8 70L85.4 22.7l-37.2-8.6L61.3 1.9z"/><ellipse cx="189" cy="109" fill="#312922" fill-opacity=".5" rx="57" ry="6"/><path fill="#81615a" fill-opacity=".5" d="M62 84.2l33-8.3 9 36-33 8.2z"/><path fill="#fefffe" fill-opacity=".5" d="M105.4 68.5l-2.7-4.1-5.4 85.1 14.4-41z"/><circle r="1" fill="#0e0400" fill-opacity=".5" transform="matrix(-9.19346 29.88622 -12.29203 -3.78122 107.8 156)"/><path fill="#310f00" fill-opacity=".5" d="M107.6 56.2l43.7 69-17.9-55.6L163 51.1z"/><ellipse cx="187" cy="127" fill="#1b120c" fill-opacity=".6" rx="22" ry="4"/><path fill="#0b0200" fill-opacity=".7" d="M265 185l-10-37-113 1z"/><ellipse cx="226" cy="52" fill="#220e05" fill-opacity=".5" rx="15" ry="31"/><circle r="1" fill="#0a130d" fill-opacity=".5" transform="matrix(16.26055 -5.8572 12.6695 35.1726 101.5 13)"/><path fill="#000103" fill-opacity=".7" d="M234 45l7 88 30 7z"/><ellipse cx="224" cy="137" fill="#cdc0ab" fill-opacity=".6" rx="20" ry="7"/><path fill="#f8ffff" fill-opacity=".5" d="M112 84L79 60l2-48z"/><path fill="#2d170a" fill-opacity=".4" d="M89 93L78 32 7 48z"/><path fill="#486c6e" fill-opacity=".2" d="M124.4 55l-33-20.4 61-15.7 82.4 22.9z"/><path fill="#fff4d9" fill-opacity=".3" d="M125 131l-12.3 27.8 7.3-16.3 91.8-.9z"/><path fill="#38170c" fill-opacity=".5" d="M170 90h26v8h-26z"/><path fill="#fff" fill-opacity=".5" d="M143 119h4v23h-4z"/><path fill="#febeac" fill-opacity=".5" d="M204 60h8v11h-8z"/><ellipse cx="77" cy="9" fill="#eed2c5" fill-opacity=".8" rx="4" ry="12"/><path fill="#120801" fill-opacity=".7" d="M57.2-16l-71 53.2L71.5-6.2l-3.1 19.8z"/><path fill="#6b5746" fill-opacity=".6" d="M122 142h59v6h-59z"/><path fill="#a48c86" fill-opacity=".5" d="M173 67h19v10h-19z"/><circle r="1" fill="#3f5067" fill-opacity=".5" transform="matrix(-14.12209 7.3202 -5.44584 -10.5061 77.8 165)"/><circle r="1" fill="#030000" fill-opacity=".5" transform="rotate(-164 114.6 -16) scale(47.38683 16.70224)"/><circle cx="26" cy="78" r="40" fill="#321f12" fill-opacity=".7"/><path fill="#c79d8b" fill-opacity=".5" d="M251 31l-10 14-7-29z"/><path fill="#bbb3a3" fill-opacity=".7" d="M258.5 139.8l-1.4 5.8-13.6-3.4 1.4-5.8z"/><circle r="1" fill="#000102" fill-opacity=".6" transform="matrix(-52.5339 35.03576 -10.7626 -16.13783 29.4 161.1)"/><path fill="#f6e2d5" fill-opacity=".2" d="M136.8 133.7l31-19.4-30.3-29.7 34.2 16.7z"/><circle r="1" fill="#87929c" fill-opacity=".5" transform="matrix(3.61 -1.26915 5.57997 15.8718 255 61)"/><path fill="#a88677" fill-opacity=".4" d="M92 88.8l-11.2 37.4 16.4 27.1 6.9-61.6z"/><ellipse cx="114" cy="130" fill="#110b03" fill-opacity=".6" rx="6" ry="25"/><path fill="#fee" fill-opacity=".4" d="M121.4 94.6l12.9-2.4-6.7 27.6.5-44.1z"/><path fill="#c3baba" fill-opacity=".7" d="M39.5 11.6L68.6 10l-5.3 21.6 16.3-18.9z"/><ellipse cx="217" cy="50" fill="#0f0500" fill-opacity=".5" rx="32" ry="5"/><ellipse cx="97" cy="10" fill="#110a00" fill-opacity=".5" rx="16" ry="19"/><path fill="#452315" fill-opacity=".7" d="M160.8 69.1l12.8 30.9-26.8-40.9 43.9-15.6z"/><path fill="#1e1716" fill-opacity=".5" d="M147.4 109.2l-46.2 31.5L144 120l15.1.3z"/><path fill="#887f77" fill-opacity=".6" d="M231.3 106.8l-4.6-18.5-72.4 20.7 66.8-5.5z"/><path fill="#b29d8f" fill-opacity=".6" d="M159 116h57v5h-57z"/><path fill="#2e160a" fill-opacity=".6" d="M108 97.6l13.5-30.1 6.4 2.9-13.4 30.1z"/><path fill="#0c0402" fill-opacity=".6" d="M222 112h29v19h-29z"/><path fill="#3f281b" fill-opacity=".5" d="M85 100l10-23-33-31z"/><path fill="#080000" fill-opacity=".5" d="M134.2 101l3 .6-5.4 23.4-3-.6z"/><path fill="#380f01" fill-opacity=".5" d="M150 78l10-27 19 30z"/><ellipse cx="209" cy="86" fill="#b5b0a8" fill-opacity=".8" rx="6" ry="11"/><path fill="#ffefe9" fill-opacity=".3" d="M162.4 81.3l-19.5 1 .9-12.2 11.2 36.8z"/></g></svg>