<svg xmlns="http://www.w3.org/2000/svg" viewBox="0 0 300 199"><defs/><path fill="#4d3428" d="M0 0h300v199H0z"/><g transform="translate(.6 .6) scale(1.17188)"><circle r="1" fill="#050000" fill-opacity=".7" transform="matrix(93.18014 -4.0642 1.8868 43.25886 83.8 143)"/><ellipse cx="115" cy="9" fill="#a09186" fill-opacity=".5" rx="50" ry="24"/><path fill="#d9def0" fill-opacity=".4" d="M216.2 67.4l-53.4-4.1 51.8 41.6 4.9-5.1z"/><path fill="#fffff1" fill-opacity=".6" d="M163 99h15v17h-15z"/><circle r="1" fill="#94b5ce" fill-opacity=".4" transform="matrix(4.69604 10.96521 -30.4727 13.05046 105 68.7)"/><path fill="#958a61" fill-opacity=".6" d="M25 35h27v69H25z"/><ellipse cx="244" cy="114" fill="#160a00" fill-opacity=".5" rx="25" ry="68"/><path fill="#e7c58c" fill-opacity=".5" d="M203 6h11v38h-11z"/><path fill="#17130b" fill-opacity=".8" d="M-16 37l45 12-34 123z"/><ellipse cx="122" cy="42" fill="#050808" fill-opacity=".9" rx="28" ry="9"/><path fill="#b2b48c" fill-opacity=".6" d="M.8 32.4l3-8.5 45.4 15.7-3 8.5z"/><circle r="1" fill="#040000" fill-opacity=".7" transform="matrix(14.27083 -10.98909 13.32074 17.2988 18 7)"/><path fill="#070600" fill-opacity=".6" d="M210.9 69.9l30.4 1.9-8.9-30.5-37.3 2.8z"/><path fill="#080403" fill-opacity=".8" d="M159.2 88.5L128.5 92l-75.6 69.6 69.5 11.7z"/><circle r="1" fill="#fcffff" fill-opacity=".4" transform="matrix(2.41741 -.23841 2.06847 20.97358 179.4 122)"/><path fill="#3655a7" fill-opacity=".3" d="M181 42l-71 56 95-23z"/><path fill="#3e3332" d="M158.6 28.4l-34.8-5.6-29 2.1 28.1-15.6z"/><path fill-opacity=".5" d="M179 86h26v29h-26z"/><circle r="1" fill="#32180d" fill-opacity=".7" transform="rotate(92.9 9.7 170) scale(27.44196 61.24244)"/><path fill="#00020a" fill-opacity=".5" d="M60 54L50-16l31 47z"/><path fill="#877b75" fill-opacity=".8" d="M117.7 105.1L83.6 63.4l-4 27.8 33.8-5.8z"/><path fill="#e9ca8d" fill-opacity=".5" d="M205 68h12v35h-12z"/><ellipse cx="43" cy="123" fill="#1a0905" fill-opacity=".8" rx="3" ry="62"/><path fill="#7c7c52" fill-opacity=".8" d="M271 12.5l-69.6 31.2 35.7-10.1L271 55z"/><ellipse cx="4" cy="127" fill="#87735d" fill-opacity=".6" rx="2" ry="52"/><path fill="#1d1c23" fill-opacity=".5" d="M137 30h35v46h-35z"/><path fill="#8ea682" fill-opacity=".4" d="M3.3 40.3l54.5 18.8 11.6-.6-.4-9.6z"/><ellipse cx="35" cy="133" fill="#91775c" fill-opacity=".5" rx="2" ry="71"/><ellipse cx="17" cy="143" fill="#887c63" fill-opacity=".9" rx="1" ry="56"/><path fill="#bd9e84" fill-opacity=".5" d="M128.9-6.7L89 20.8l-15 2.1L88.9 6.6z"/><path fill="#251a16" d="M82.1 82.6l-31 5.9 25.8 32.2-24.3-1.3z"/><path fill="#cba86e" fill-opacity=".5" d="M47 0h5v45h-5z"/><path fill="#1b1c1a" fill-opacity=".5" d="M136.9 84.3L97.5 86l12.2-39.9L49.2 40z"/><path fill="#7f79c3" fill-opacity=".3" d="M169 107l23-28-21-46z"/><path fill="#ebbd85" fill-opacity=".4" d="M160.3 29.9L147.4 3.3l-17.7 10.4 32.9 4.9z"/><ellipse cx="25" cy="119" fill="#8f7a64" fill-opacity=".5" rx="2" ry="51"/><path fill="#ebc174" fill-opacity=".5" d="M148.2 127.9L147 122l8.8-1.9 1.2 5.9z"/><ellipse cx="158" cy="66" fill="#948b93" fill-opacity=".6" rx="2" ry="23"/><path fill="#2c331d" fill-opacity=".8" d="M24.8 46L-.4 19.4l44 41.3-46.3-9.8z"/><path fill="#d2dbe1" fill-opacity=".5" d="M87 70h12v9H87z"/><path fill="#a09b94" fill-opacity=".6" d="M168 20l5-16 14-10z"/><path fill="#92886e" fill-opacity=".7" d="M20.9 31.2L5.2 43.8l-9.9-18.4 23 .7z"/><path fill="#a7a2b0" fill-opacity=".5" d="M130 64h5v15h-5z"/><path fill="#ffa36f" fill-opacity=".1" d="M193.6 119.4l-20.3-10.2 11.2 34.9 78.5-17.2z"/><path fill="#b8bda1" fill-opacity=".6" d="M41.1 64.6l3.4-5.1 4.8-23.7-11.9 4.4z"/><circle r="1" fill="#091c25" fill-opacity=".3" transform="matrix(11.3954 18.5461 -28.9347 17.77853 242.4 0)"/><path fill="#080001" fill-opacity=".4" d="M182.8 103.5l32.9-2.1 3.5 19.2-37.4-9.2z"/><path fill="#010000" fill-opacity=".5" d="M43 0h5v32h-5z"/><path fill="#000100" fill-opacity=".4" d="M14-3l30 34-11 9z"/><path fill="#c3a781" fill-opacity=".5" d="M201 38l15-1-3-23z"/><path fill="#110b01" fill-opacity=".7" d="M-12.2 57.2l33.1-24.4-33.7 54.9 43.4-18.3z"/><path fill="#927f64" fill-opacity=".5" d="M234 80h2v45h-2z"/><path fill="#937759" fill-opacity=".5" d="M47.4 49.7l6.5 25.8 31.9-6.9L47.1 89z"/><path fill="#2d1e1a" fill-opacity=".7" d="M174.8 85.3l11.1 6.2-24.6-8.2-1.1-36z"/><path fill="#0b070b" fill-opacity=".5" d="M114 18l-1.3-2.8L158-5.9l1.3 2.7z"/><ellipse cx="39" fill="#bd9a59" fill-opacity=".4" rx="3" ry="26"/><path fill="#758392" fill-opacity=".4" d="M59.4 7.1L57.8-16l35.8 61.4-3.4-35.7z"/><path fill="#e8ccc2" fill-opacity=".3" d="M166-16L123 9 74-16z"/><path fill="#6e5f4e" fill-opacity=".6" d="M206.8 59.8l-5.8 42-8.3-12.5.3-28.4z"/><path fill="#473f21" d="M249.4 25.3l3-1.6L232.2 46l15.1 25.6z"/><circle r="1" fill="#d5be8f" fill-opacity=".4" transform="matrix(-2.96095 -1.62038 8.76193 -16.01084 169.2 102.9)"/><ellipse cx="18" cy="113" fill="#ffd" fill-opacity=".3" rx="1" ry="26"/><path fill="#d5d1cb" fill-opacity=".2" d="M89 26h70v4H89z"/><path fill="#6384a8" fill-opacity=".5" d="M151.5 84.3l-2.3 3.7-17 3.4 5.7-13.1z"/><path fill="#7e8291" fill-opacity=".5" d="M105 53h20v19h-20z"/></g></svg>