<svg xmlns="http://www.w3.org/2000/svg" viewBox="0 0 299 449"><defs/><path fill="#625e47" d="M0 0h299v449H0z"/><g transform="translate(.9 .9) scale(1.7539)"><circle r="1" fill="#ffe9e5" fill-opacity=".6" transform="rotate(40.1 -132.2 241.1) scale(126.91272 170)"/><circle r="1" fill="#441600" fill-opacity=".5" transform="matrix(18.50387 -58.96838 15.3811 4.82648 41.6 69.2)"/><circle r="1" fill="#a7532d" fill-opacity=".5" transform="matrix(41.6396 -36.25838 17.90044 20.5571 97.7 154.8)"/><path fill="#dad4d3" fill-opacity=".7" d="M-16 143V26l44 23z"/><circle r="1" fill="#e8f3fb" fill-opacity=".6" transform="matrix(33.76024 31.72089 -116.40793 123.89186 144.5 221.5)"/><circle cx="107" cy="20" r="32" fill="#dad0c9" fill-opacity=".9"/><circle r="1" fill="#ecf6f9" fill-opacity=".6" transform="matrix(11.3698 -1.40412 9.00163 72.89047 151 93.2)"/><ellipse cx="35" cy="131" fill="#b5876a" fill-opacity=".9" rx="21" ry="22"/><path fill="#b76435" fill-opacity=".4" d="M113 48l-3 84-34-92z"/><path fill="#120000" fill-opacity=".5" d="M50 58L-1-6l72 27z"/><path fill="#fafffd" fill-opacity=".4" d="M70 21l-20 94 47 17z"/><ellipse cy="226" fill="#cfcdd0" fill-opacity=".9" rx="122" ry="33"/><ellipse cx="80" cy="150" fill="#8e5134" fill-opacity=".5" rx="41" ry="8"/><circle r="1" fill="#e4a47c" fill-opacity=".5" transform="rotate(34.4 -101.6 229) scale(20.42982 33.87202)"/><path fill="#ad6d61" fill-opacity=".8" d="M68 17l10.3-33L42.9 9.8 55.1 19z"/><circle r="1" fill="#997659" fill-opacity=".6" transform="matrix(21.21331 36.15721 -7.52106 4.41258 17.1 48.7)"/><circle r="1" fill="#93a7ad" fill-opacity=".6" transform="matrix(-5.79247 -26.34566 16.10566 -3.54106 160 20.6)"/><circle r="1" fill="#ddaa87" fill-opacity=".5" transform="matrix(-10.54702 -6.3844 36.82577 -60.83613 79.8 134.8)"/><circle r="1" fill="#a46a51" fill-opacity=".4" transform="matrix(17.437 -12.62228 12.28008 16.96426 116.4 160.9)"/><path fill="#5d402a" fill-opacity=".5" d="M30 35h29v39H30z"/><ellipse cy="79" fill="#c7c6c4" rx="18" ry="27"/><circle cx="92" cy="57" r="12" fill="#835a49" fill-opacity=".5"/><circle r="1" fill="#bec0c1" fill-opacity=".5" transform="matrix(-5.4 -1.49755 7.57513 -27.31502 68.4 39.9)"/><path fill="#d8b498" d="M133.5 34.6l2 37.7-4.4 8.7-20.8-74.8z"/><circle r="1" fill="#d8dbdc" fill-opacity=".7" transform="rotate(16 -407.8 655) scale(25.24085 27.87764)"/><ellipse cx="7" cy="123" fill="#b7aea3" fill-opacity=".4" rx="21" ry="36"/><path fill="#5d3724" fill-opacity=".6" d="M7 1l26-5L8 52z"/><circle r="1" fill="#f5c19e" fill-opacity=".5" transform="rotate(75.7 -102 104.7) scale(9.48883 61.46901)"/><ellipse cx="87" cy="154" fill="#340000" fill-opacity=".2" rx="32" ry="4"/><circle r="1" fill="#f5f8f5" fill-opacity=".4" transform="matrix(11.22325 19.9996 -56.38922 31.64415 131.9 246.8)"/><circle r="1" fill="#9a888c" fill-opacity=".5" transform="matrix(.15274 -7.71451 51.56159 1.02087 70.3 188.9)"/><path fill="#f1f9ff" fill-opacity=".2" d="M24.6 70.3l-4.9-10.2 13.2-10.9L11 33.8z"/><path fill="#fffae5" fill-opacity=".3" d="M0 170h17v46H0z"/><path fill="#110906" fill-opacity=".4" d="M71 14L59 43 28 18z"/><path fill="#e7e8e5" fill-opacity=".6" d="M62.1 138.4l22-35 14-11.8-31.5-36.7z"/><path fill="#e9eeee" fill-opacity=".5" d="M144.5 58.1L141 175.5l25.3-110 16.1-20.4z"/><path fill="#eef9fb" fill-opacity=".5" d="M152 61l-17-50-35-27z"/><path fill="#91584a" fill-opacity=".6" d="M122.9 125.7l-5.7-2.1 10-27.3 5.6 2.1z"/><path fill="#826557" fill-opacity=".3" d="M11.1 129.4l77.5 36L20.1 144l-36.1 5.8z"/><circle r="1" fill="#b08661" fill-opacity=".6" transform="matrix(-5.13316 -.78423 6.12111 -40.06586 41.7 103.5)"/><ellipse cx="59" cy="139" fill="#d7a37f" fill-opacity=".7" rx="22" ry="8"/><circle r="1" fill="#deb098" fill-opacity=".6" transform="rotate(-90.8 126.2 -7.5) scale(18.09767 8.26089)"/><path fill="#6d473d" d="M55.6 22.4L16.8-5.8l-.4 18.7L37.5-16z"/><path fill="#855651" fill-opacity=".5" d="M90 112l7 9 2-26z"/><path fill="#d0c5bf" fill-opacity=".4" d="M75.2 37.7l34.6 24.1 33.4-3.1-23.7-9.4z"/><path fill="#92683f" fill-opacity=".4" d="M32 50L16 87l23 45z"/><circle r="1" fill="#dee4e7" fill-opacity=".5" transform="matrix(10.92398 -3.22526 8.97941 30.41333 99.3 11)"/><ellipse cx="16" cy="156" fill="#b1c2d6" fill-opacity=".4" rx="30" ry="9"/><path fill="#c9b8ae" d="M77.1 7.5l-6.2 13L90.6 6.7 83.3 30z"/><circle r="1" fill="#481d17" fill-opacity=".5" transform="matrix(22.13956 -29.48712 1.85902 1.3958 81 0)"/><path fill="#c8c6c2" fill-opacity=".5" d="M5.3 25.2L-6.4 134.4l24.3-20.7-26.7-94.4z"/><path fill="#130904" fill-opacity=".5" d="M26 24L23 2l45 26z"/><path fill="#5b2102" fill-opacity=".3" d="M63.2 134.8l-30.1-11.5 2.7-1.3 14-1z"/><path fill="#001d34" fill-opacity=".1" d="M162 92h9v31h-9z"/><path fill="#c89178" fill-opacity=".5" d="M25 192l8-29-15 3z"/><circle r="1" fill="#c3bdc2" fill-opacity=".5" transform="matrix(-46.69046 -14.0078 4.7554 -15.85057 32.6 241.2)"/><path fill="#903101" fill-opacity=".2" d="M123.7 64.1l-14.2-4L71.1 44l52.8 38z"/><circle r="1" fill="#f5dabc" fill-opacity=".3" transform="rotate(-129.6 80.4 26.4) scale(7.14279 49.046)"/><path fill="#c5c4ca" fill-opacity=".4" d="M39 194l87 31-7-34z"/><path fill="#d7b39b" fill-opacity=".4" d="M76.7 101.4l31.4 46.8 5.3 1.8 5.7-8.3z"/><path fill="#ddded7" fill-opacity=".5" d="M83 96l-45 5 29 33z"/><path fill="#5c4130" fill-opacity=".5" d="M34 40h27v27H34z"/><path fill="#e1b693" fill-opacity=".5" d="M0 122h32v10H0z"/><path fill="#c39276" fill-opacity=".5" d="M86-9l-25-7-4 35z"/><circle r="1" fill="#a76e50" fill-opacity=".5" transform="rotate(-109.2 96.6 37.3) scale(6.17398 10.36058)"/></g></svg>