<svg xmlns="http://www.w3.org/2000/svg" viewBox="0 0 298 450"><defs/><path fill="#4d3b28" d="M0 0h298v450H0z"/><g transform="translate(.9 .9) scale(1.75781)"><ellipse cx="46" cy="195" fill="#eef1eb" fill-opacity=".8" rx="81" ry="255"/><circle r="1" fill="#f4fafa" fill-opacity=".8" transform="matrix(3.95333 18.44062 -135.76481 29.10545 93.6 14)"/><circle r="1" fill="#a6826d" fill-opacity=".8" transform="matrix(-37.31204 27.10879 -71.0969 -97.85648 150.4 156.3)"/><circle cx="134" cy="58" r="37" fill-opacity=".6"/><ellipse cx="23" cy="74" fill="#e7ecee" rx="45" ry="76"/><circle r="1" fill="#001900" fill-opacity=".4" transform="matrix(14.14109 -32.2143 9.70587 4.26058 77.4 121.6)"/><circle r="1" fill="#949970" fill-opacity=".8" transform="matrix(13.52147 13.47919 -39.55356 39.67763 101.3 245.8)"/><circle r="1" fill="#6c5e4a" fill-opacity=".5" transform="matrix(12.35825 -23.36825 27.57604 14.58354 5.7 241)"/><path fill="#e7eae6" fill-opacity=".7" d="M185 50.2L108.2-16 17.8 63.6 185 5z"/><circle cx="110" cy="170" r="46" fill="#fffffc" fill-opacity=".3"/><path fill="#e0ebe9" fill-opacity=".7" d="M185 61l-28 50 13 20z"/><circle r="1" fill="#fff" fill-opacity=".6" transform="matrix(-8.30587 12.03804 -29.18727 -20.1383 86.6 186)"/><path fill="#1f0a01" fill-opacity=".5" d="M133.8 133.5l5.9-120.3-58 62.9 16.1-30.4z"/><circle cx="153" cy="255" r="31" fill="#021302" fill-opacity=".4"/><circle r="1" fill="#0b3900" fill-opacity=".6" transform="matrix(2.4617 .34597 -3.10478 22.09167 76.3 69)"/><circle r="1" fill="#cb9072" fill-opacity=".5" transform="matrix(-45.07882 -25.8897 15.74227 -27.41024 133.2 164.1)"/><path fill="#fffff9" fill-opacity=".6" d="M185 61h-21l21 60z"/><path fill="#213b00" fill-opacity=".6" d="M112 271l-6-23H76z"/><circle r="1" fill="#253409" fill-opacity=".5" transform="matrix(-15.97356 17.12136 -5.02525 -4.68836 80.2 128.5)"/><circle r="1" fill="#effafc" fill-opacity=".6" transform="matrix(6.85218 -45.84899 3.85336 .57589 88.2 36.7)"/><circle r="1" fill="#ffd3c2" fill-opacity=".4" transform="matrix(10.90736 -14.69557 8.91635 6.6179 110.5 109.6)"/><path fill="#6d4636" d="M125.9 93.1l-19.9-.3 54.9 10.4-5.9-24.9z"/><path fill="#eaf2f3" fill-opacity=".7" d="M88.9 113.2L36.8 32.8l-28.5 105 78.1-42.9z"/><path fill="#2d421e" fill-opacity=".5" d="M87.5 122.8l-26.4 41.5L50.2 176l31.7-67.1z"/><path fill="#c3c3c3" fill-opacity=".6" d="M160 227l-3-37 28 21z"/><path fill="#f7f8ee" fill-opacity=".4" d="M131.3 251.5l1.7-12.7-20.8-5.2-5.1-55z"/><path fill="#000300" fill-opacity=".5" d="M153 243l-2 28-32-63z"/><ellipse cx="96" cy="77" fill="#ffedd8" fill-opacity=".6" rx="6" ry="15"/><circle r="1" fill="#e5f2f6" fill-opacity=".6" transform="matrix(13.1072 7.09652 -9.15661 16.91217 47.7 139.7)"/><path fill="#ebfaff" fill-opacity=".5" d="M86 166l71 53-45-14z"/><ellipse cx="61" cy="214" fill="#e6f2ff" fill-opacity=".4" rx="14" ry="46"/><circle r="1" fill="#b2a999" fill-opacity=".7" transform="matrix(16.80327 -10.41847 17.62161 28.42075 17.4 208.7)"/><path fill="#a38b58" fill-opacity=".5" d="M102 232l-26 15 4-55z"/><circle r="1" fill="#020000" fill-opacity=".6" transform="matrix(-6.39052 18.24846 -4.20257 -1.47172 160.1 89.2)"/><circle cx="141" cy="49" r="30" fill="#0e0805" fill-opacity=".5"/><circle cx="91" cy="144" r="14" fill="#d7cac4" fill-opacity=".6"/><path fill="#032800" fill-opacity=".5" d="M74 63h5v29h-5z"/><path fill="#1a0801" fill-opacity=".4" d="M82.6 92.6l8-8.2.3-33L84.3 83z"/><circle r="1" fill="#d1957e" fill-opacity=".6" transform="rotate(111.1 43 97.6) scale(11.81734 4.51704)"/><circle r="1" fill="#340" fill-opacity=".5" transform="matrix(-20.78061 -19.92789 1.77562 -1.8516 103.7 254.9)"/><ellipse cx="157" cy="11" fill="#d6d6cd" fill-opacity=".5" rx="24" ry="12"/><path fill="#24150d" fill-opacity=".5" d="M105 35h33v60h-33z"/><path fill="#5b774b" fill-opacity=".5" d="M72.9 60.9l2.5 15.8-21.8-14.2 13 15.3z"/><path fill="#804632" fill-opacity=".4" d="M114.5 152l-4 1.2-12.8-26.6 32.8 29.6z"/><circle r="1" fill="#534b3a" fill-opacity=".5" transform="matrix(4.90876 -7.44136 55.0083 36.28672 10.9 255)"/><ellipse cx="61" cy="123" fill="#a6b7af" fill-opacity=".5" rx="13" ry="11"/><path fill="#d7ceae" fill-opacity=".6" d="M90.5 240.8l30.8 13.4-13.7-19.9 10 .3z"/><path fill="#7b6351" fill-opacity=".4" d="M142.7 172l22.9 67.2-26.9-6.1-1.5-14.4z"/><ellipse cx="79" cy="53" fill="#1a3f00" fill-opacity=".5" rx="2" ry="16"/><path fill="#ebf1f2" fill-opacity=".6" d="M77.4 60.9l-35.8 3.7-9-85.5 35.8-3.7z"/><path fill="#ffd6bb" fill-opacity=".3" d="M148.8 115.4l-3.5 13 1.7 24-35.6-14.2z"/><path fill="#d8f0f4" fill-opacity=".4" d="M81 31h3v82h-3z"/><path fill="#792c0f" fill-opacity=".3" d="M120.1 108.8l33-36.4-10.1 44.9-12.2 22.6z"/><circle cx="169" cy="35" r="4" fill="#f9f9ef" fill-opacity=".5"/><circle cx="169" cy="113" r="14" fill="#caccc4" fill-opacity=".7"/><ellipse cx="92" cy="27" fill="#eceeeb" fill-opacity=".6" rx="11" ry="25"/><path fill="#fdffff" fill-opacity=".5" d="M68 154l-12 22 74 21z"/><path fill="#e1b49e" fill-opacity=".6" d="M121.8 149.7l.8-37-19.7-29.5-9.5 16.7z"/><path fill="#aa663e" fill-opacity=".4" d="M149 125h21v48h-21z"/><path fill="#1a2500" fill-opacity=".4" d="M68.3 117.2l5.3-9.6 20.1 11.2-5.3 9.6z"/><path fill="#1e1109" fill-opacity=".4" d="M133 102l1-84-41 37z"/><path fill="#356209" fill-opacity=".4" d="M103.7 234l.4 2.9-25.8 3.2-.4-3z"/><path fill="#d0d6eb" fill-opacity=".6" d="M75.8 247.2l6.7 10-8.3 5.6-6.7-10z"/><path fill="#0a1400" fill-opacity=".5" d="M161.2 244l-59.3 27 33.2-29.9 2.8-10.9z"/><path fill="#92543f" fill-opacity=".5" d="M101 76l14 14-13-28z"/></g></svg>