<svg xmlns="http://www.w3.org/2000/svg" viewBox="0 0 300 199"><defs/><path fill="#434343" d="M0 0h300v199H0z"/><g transform="translate(.6 .6) scale(1.17188)"><ellipse cx="234" cy="130" fill-opacity=".7" rx="41" ry="169"/><path fill="#e6e6e6" fill-opacity=".5" d="M120 4L54 59 39-16z"/><circle r="1" fill="#020202" fill-opacity=".6" transform="matrix(-64.27059 10.04295 -3.92832 -25.13955 32 117.1)"/><circle cx="162" cy="14" r="24" fill="#bababa" fill-opacity=".6"/><ellipse cx="151" cy="75" fill-opacity=".5" rx="27" ry="49"/><path fill="#979797" fill-opacity=".4" d="M69 175l61-59-115 32z"/><path fill="#080808" fill-opacity=".5" d="M0 13h43v86H0z"/><path fill="#f9f9f9" fill-opacity=".4" d="M51 12h57v15H51z"/><ellipse cx="65" cy="8" fill="#252525" fill-opacity=".9" rx="49" ry="3"/><path fill="#666" fill-opacity=".7" d="M65 23h27v43H65z"/><path fill="#fff" fill-opacity=".5" d="M97 129l17-12 7 20z"/><path fill="gray" fill-opacity=".5" d="M24 51h33v27H24z"/><path fill="#fff" fill-opacity=".6" d="M141 0h7v32h-7z"/><path fill="#f8f8f8" fill-opacity=".3" d="M160.3 56.4l8.3 2.1 26.1.3-29.2 13z"/><path fill="#e8e8e8" fill-opacity=".5" d="M94 70l-7-30-10 12z"/><path fill="#efefef" fill-opacity=".5" d="M66.2 8.2l-6.8 52.7-15.2-45-.4 20.8z"/><ellipse cx="212" cy="31" fill="#212121" fill-opacity=".8" rx="23" ry="63"/><path fill-opacity=".6" d="M73.2 143.6l2.2 5.6-42.6 17.2-2.2-5.6z"/><circle r="1" fill="#212121" fill-opacity=".6" transform="rotate(-99.4 157.7 1.3) scale(25.91766 48.72828)"/><circle r="1" fill="#2e2e2e" transform="matrix(2.99265 -11.48897 8.00847 2.08605 100.2 144.7)"/><circle r="1" fill="#6d6d6d" fill-opacity=".6" transform="matrix(9.0052 8.11779 -22.55474 25.02036 122.6 151)"/><path fill="#939393" fill-opacity=".7" d="M185.7 96.7l-22.3-14.8 35.9 5-4.5-23.3z"/><path fill="#aeaeae" fill-opacity=".5" d="M81.3 52.6l5-6.2 10.6 72.1 3.9-29.6z"/><path fill="#9d9d9d" fill-opacity=".7" d="M62.7 157.5l-34.6 14.4 63.6-10.1-6.7-5.7z"/><ellipse cx="91" cy="37" fill-opacity=".3" rx="22" ry="10"/><path fill-opacity=".5" d="M23 36h30v15H23z"/><path fill="#b0b0b0" fill-opacity=".5" d="M126 21l-13 2 1 30z"/><circle r="1" fill="#1f1f1f" fill-opacity=".7" transform="matrix(-27.37459 -4.04233 3.6075 -24.43 69.2 100.9)"/><circle r="1" fill-opacity=".5" transform="matrix(-46.21133 -.52178 .30346 -26.87574 233.5 123.5)"/><path fill-opacity=".4" d="M126.9 93.2l-57.5 58.9 78.5-115-3 90.4z"/><path fill="#070707" fill-opacity=".5" d="M135 14L115 2l27 56z"/><path fill="#adadad" fill-opacity=".5" d="M-13-9h26v20h-26z"/><path fill="#e3e3e3" fill-opacity=".1" d="M152.6 103.4l-12-24.5 22.6 66.4 31.6-35.2z"/><path fill-opacity=".5" d="M148 0h3v24h-3z"/><path fill="#0e0e0e" fill-opacity=".6" d="M121.2 59.4l2.2-12.2 67.9 26.9-3.6 9.1z"/><path fill="#c3c3c3" fill-opacity=".3" d="M44.2 29.6l30.2 17.6-11.1 36.9 17.1-10.9z"/><ellipse cx="175" cy="39" fill="#b3b3b3" fill-opacity=".5" rx="4" ry="9"/><circle r="1" fill="#0f0f0f" fill-opacity=".5" transform="rotate(-100.2 20.4 -7.6) scale(56.7995 9.70003)"/><path fill="#b8b8b8" fill-opacity=".4" d="M110.2 9.3l-53.5 1.2-12.1.6 67 18z"/><path fill="#afafaf" fill-opacity=".5" d="M55.1 137.9l-18.2 20.2 42.2-28.2-6.7 16.9z"/><path fill="#0f0f0f" fill-opacity=".4" d="M42.5 56.7l-50.7 96.5 51.4 12.2-20.1 1.6z"/><ellipse cx="113" cy="133" fill="#bcbcbc" fill-opacity=".3" rx="32" ry="4"/><path fill="#fefefe" fill-opacity=".1" d="M190.9 57.9L163 60.1l73.7 22.4L218 94.6z"/><path fill="#1b1b1b" fill-opacity=".4" d="M70 41l17-21-8 47z"/><path fill="#2c2c2c" fill-opacity=".8" d="M185.6 58.2l-9-24.1 2.3-13.2 30.9 8.7z"/><path fill="#d0d0d0" fill-opacity=".3" d="M16.2 44.1L50 78.7l11.6-38.3-26.1 28.8z"/><path fill="#353535" fill-opacity=".9" d="M75.7 132.2l16.5 14.7 10.5-18.9 8.8 15z"/><path fill="#141414" fill-opacity=".7" d="M-10.5 75l-5.5 52.5 45.4-56.1 18.7-10.7z"/><path fill="#b6b6b6" fill-opacity=".7" d="M106.2 119l-.4-5 10-1 .4 5z"/><path fill="#ddd" fill-opacity=".4" d="M31.4 142.2l16.3.7-15.5 7.5-3.2 6z"/><path fill="#fefefe" fill-opacity=".2" d="M33.9 66.6L-16 59l34.5 2.5 17.7-14.4z"/><path fill="#161616" fill-opacity=".5" d="M125.4 116l-7.8-25.6-1.9 15.4 6.3 40.3z"/><path fill="#020202" fill-opacity=".4" d="M54 166h56v4H54z"/><path fill="#262626" fill-opacity=".8" d="M143.3 61.6l52.4 51.3L207 78.7l-39.2 39.1z"/><ellipse cx="112" cy="1" fill="#686868" rx="4" ry="23"/><path fill="#bababa" fill-opacity=".1" d="M147.1 91.2L73.5 20.5l67.7 56.9 39.9 6.4z"/><path fill-opacity=".6" d="M136 123l21 2-17-49z"/><path fill="#262626" fill-opacity=".9" d="M111.4 26.7L91.8 63.1 88.7 50 91 33.7z"/><path fill="#696969" fill-opacity=".6" d="M148.9 30.8l-38.4 4 32.9-5.7L164 62.9z"/><path fill="#373737" fill-opacity=".7" d="M76.7 124.9L61.6 37.5 66 53.9l-13.6 1.4z"/><circle cx="46" cy="31" r="3" fill="#fff" fill-opacity=".7"/><path fill-opacity=".4" d="M46 23.7l-90.6 9.5-1.3-13 90.5-9.4z"/><path fill="#111" fill-opacity=".6" d="M164.2 26.6l-11.6 4.3 35.8 24-29.9 1.7z"/><path fill="#afafaf" fill-opacity=".5" d="M77.7 48.1L90.6 37l-.6 4.3-1.6 22.4z"/><path fill="#e9e9e9" fill-opacity=".5" d="M145.1 125.8l-2.4 7.6-3.8-1.2 2.4-7.6z"/></g></svg>