<svg xmlns="http://www.w3.org/2000/svg" viewBox="0 0 300 199"><defs/><path fill="#4c4c4c" d="M0 0h300v199H0z"/><g transform="translate(.6 .6) scale(1.17188)"><path fill="#f2f2f2" fill-opacity=".6" d="M175 62.7l40.7-8.3-15.2-66.3-26.3-4.1z"/><circle r="1" fill="#d9d9d9" fill-opacity=".6" transform="rotate(-22.4 395.8 -321.7) scale(13.98447 52.38449)"/><ellipse cx="226" cy="156" fill-opacity=".8" rx="50" ry="48"/><ellipse cx="235" cy="27" fill="#010101" fill-opacity=".5" rx="28" ry="52"/><circle r="1" fill="#bbb" fill-opacity=".6" transform="rotate(-18 410.2 -623) scale(31.90066 14.74379)"/><circle r="1" fill-opacity=".6" transform="matrix(-11.36021 3.96669 -42.41506 -121.47264 131.2 146)"/><circle r="1" fill="#c9c9c9" fill-opacity=".4" transform="rotate(85.4 8.4 68.4) scale(57.41529 17.28157)"/><path fill="silver" fill-opacity=".5" d="M122.2 55.2l.6-37 29 .6-.6 37z"/><circle r="1" fill-opacity=".5" transform="rotate(172.4 18.4 62) scale(60.51247 11.12311)"/><path fill="#afafaf" fill-opacity=".5" d="M104 109L54 93l30-41z"/><circle r="1" fill="#161616" fill-opacity=".5" transform="matrix(24.8249 2.21513 -6.64533 74.47405 0 35.5)"/><ellipse cx="100" cy="7" fill="#0b0b0b" fill-opacity=".6" rx="13" ry="80"/><path fill="#bdbdbd" fill-opacity=".9" d="M168.7 73.1l32.9-17.4-26.4-64.9 1.8 45.8z"/><path fill-opacity=".5" d="M154.1-16l23.3 42-7.9 35.2L150.9 98z"/><circle cx="131" cy="153" r="20" fill-opacity=".7"/><path fill-opacity=".5" d="M170 121l40-64-44 21z"/><path fill="#8d8d8d" fill-opacity=".7" d="M194 79h62v27h-62z"/><path fill="#1e1e1e" fill-opacity=".9" d="M174 116h36v23h-36z"/><path fill="#535353" fill-opacity=".8" d="M32.5 93.4L2.2 76.5 63.7-2.8l19.7 57.7z"/><path fill="#c2c2c2" fill-opacity=".4" d="M134.1 66.9l2.2-12.9-19.1 11.9 62.5 47.9z"/><circle r="1" fill="#919191" fill-opacity=".5" transform="matrix(-6.87857 -4.42905 14.53515 -22.57392 100.7 155.5)"/><path fill="#dcdcdc" fill-opacity=".7" d="M130.5 114.8l18.3 24L131 57.9l12.7 42.7z"/><path fill-opacity=".6" d="M-2 145l70-31-76 9z"/><path fill="#c4c4c4" fill-opacity=".8" d="M82.3 19.9l6.4 45.5-5 .7-6.4-45.5z"/><path fill="#cfcfcf" fill-opacity=".8" d="M154.1 128.4l.4 47.9 8.2 8.7-3.6-50.7z"/><ellipse cx="237" cy="96" fill="#2f2f2f" fill-opacity=".5" rx="36" ry="4"/><path fill="#141414" fill-opacity=".7" d="M210 59l61 16-96 3z"/><circle r="1" fill="#7e7e7e" fill-opacity=".4" transform="matrix(7.2649 12.81197 -30.9481 17.54881 47.1 159.6)"/><path fill="#323232" fill-opacity=".7" d="M117 38.1l23.9-15.2L178 12.3l-46.2 7.6z"/><path fill="#7d7d7d" fill-opacity=".6" d="M205 52l35-4-19 13z"/><path fill="#191919" fill-opacity=".6" d="M125 55h6v91h-6z"/><path fill="#fff" fill-opacity=".5" d="M123.2 28.5l-1.5-1.3 17-19.7 1.6 1.3z"/><circle r="1" fill="#0a0a0a" fill-opacity=".6" transform="matrix(-16.9364 -26.51616 31.70274 -20.24919 249 137.7)"/><ellipse cx="31" cy="89" fill="#f4f4f4" fill-opacity=".5" rx="4" ry="6"/><path fill="#f7f7f7" fill-opacity=".3" d="M179.9 148.7l-14.3-28.2-1 10.2 10.5 23.7z"/><path fill="#cfcfcf" fill-opacity=".5" d="M201 77l-11 19 31-3z"/><path fill="#898989" d="M106.6 112.6L53.4 90l1-13.8 46.5 21.5z"/><path fill="#1a1a1a" fill-opacity=".8" d="M184.2 99.5l-26.8 4.7 34 60.2-4.5 17.7z"/><path fill="#bcbcbc" fill-opacity=".5" d="M271 96.8l-77.2 7-7.5-9.6-1.7 20.7z"/><path fill="#181818" fill-opacity=".5" d="M151.6-.3L96.4 28l-10-19.6L141.6-20z"/><path fill="#a6a6a6" fill-opacity=".5" d="M140.7 58.1l-18.6-7.3 26.8-27.5 4.8 48.3z"/><path fill="#e4e4e4" fill-opacity=".5" d="M105 114.6l9 24.4-1 .4-9-24.4z"/><path fill="#080808" fill-opacity=".4" d="M-13.1 13l66.2 71.3-34.6-22.5L-16 44.5z"/><path fill="#282828" fill-opacity=".9" d="M148.6 68.6l-7.9-14.1-.8 22 59.3 3.6z"/><circle r="1" fill="#1e1e1e" fill-opacity=".5" transform="matrix(-3.8101 -4.1231 15.38675 -14.21874 93.2 144.8)"/><path fill="#b4b4b4" fill-opacity=".4" d="M132.3 25.3l-13.6-10.1-3.3 46.7.2-39.7z"/><path fill="#a1a1a1" fill-opacity=".5" d="M70 42l18-22-6-36z"/><path fill="#d8d8d8" fill-opacity=".5" d="M100 102L84 73l6 30z"/><circle r="1" fill="#9c9c9c" fill-opacity=".7" transform="matrix(1.1839 -5.87122 5.55206 1.11954 133.6 78.6)"/><path fill="#f4f4f4" fill-opacity=".5" d="M120 58l5 7-6 7z"/><path fill="#0c0c0c" fill-opacity=".3" d="M40.3 92l28 2.6-23.7 44.8-18.3-2z"/><path fill="#b4b4b4" fill-opacity=".4" d="M108 122h4v48h-4z"/><path fill="#1c1c1c" fill-opacity=".6" d="M152.9 146.3L108.8 114l32-18.5-29.8-.7z"/><path fill="#2b2b2b" fill-opacity=".6" d="M192.6 134.9l-4.5-19.5 27.3-6.3 4.5 19.5z"/><path fill="#f1f1f1" fill-opacity=".5" d="M132 102h10v15h-10z"/><circle r="1" fill="#1d1d1d" fill-opacity=".5" transform="matrix(7.88049 38.77254 -11.28311 2.29328 162.1 16.6)"/><path fill="#9a9a9a" fill-opacity=".6" d="M202 20h8v38h-8z"/><path fill="#121212" fill-opacity=".5" d="M119 41l9-16h-11z"/><path fill="#232323" fill-opacity=".5" d="M87 42h36v19H87z"/><ellipse cx="149" cy="123" fill="#141414" fill-opacity=".2" rx="3" ry="18"/><ellipse cx="132" cy="161" fill="#0d0d0d" fill-opacity=".7" rx="20" ry="27"/><circle r="1" fill="#fbfbfb" fill-opacity=".2" transform="matrix(6.44406 -.7456 .67359 5.82166 163.6 96.7)"/><circle cx="61" cy="89" r="4" fill="#fefefe" fill-opacity=".5"/><path fill="#c3c3c3" fill-opacity=".7" d="M181.4 17.6l12.9-29.5 11-4.1h-46.5z"/><path fill="#262626" fill-opacity=".5" d="M77 90h7v9h-7z"/></g></svg>