<svg xmlns="http://www.w3.org/2000/svg" viewBox="0 0 300 199"><defs/><path fill="#503425" d="M0 0h300v199H0z"/><g transform="translate(.6 .6) scale(1.17188)"><ellipse cx="181" cy="104" fill="#b39681" fill-opacity=".4" rx="242" ry="149"/><circle r="1" fill="#d6bab4" fill-opacity=".4" transform="matrix(33.0571 1.65018 -2.0131 40.32709 226 63.2)"/><ellipse cx="158" cy="159" fill="#f9d3a8" fill-opacity=".4" rx="73" ry="16"/><circle r="1" fill="#1b0804" fill-opacity=".6" transform="matrix(-29.834 -16.33606 10.45972 -19.10223 173.2 108.2)"/><ellipse cx="96" cy="132" fill="#050000" fill-opacity=".5" rx="30" ry="18"/><ellipse cx="44" cy="48" fill="#000c04" fill-opacity=".6" rx="33" ry="10"/><path fill="#190000" fill-opacity=".6" d="M237 102h19v54h-19z"/><circle cx="25" cy="114" r="41" fill="#342715" fill-opacity=".4"/><circle r="1" fill="#050200" fill-opacity=".5" transform="matrix(7.04893 3.45324 -15.34997 31.33318 106.4 81.3)"/><ellipse cx="58" cy="147" fill="#a8978f" fill-opacity=".6" rx="17" ry="21"/><path fill="#fff" fill-opacity=".5" d="M90 91H67l7 20z"/><path fill="#dadce7" fill-opacity=".4" d="M44.9 79.8L46.5 67 89 72.2 87.5 85z"/><path fill="#cbc5ba" fill-opacity=".5" d="M177.1 71.6l-22.8-2.4 2.6-24.8 22.8 2.4z"/><path fill="#fff" fill-opacity=".5" d="M134 59l-7 17-2-39z"/><ellipse cx="227" cy="110" fill="#ebabae" fill-opacity=".6" rx="9" ry="19"/><ellipse cx="125" cy="14" fill="#8e5a3a" fill-opacity=".6" rx="148" ry="30"/><path fill="#fffafd" fill-opacity=".3" d="M159.6 112l-17.5-6.3-13.2-78.3.5 92.8z"/><path fill-opacity=".7" d="M57 169l29 3 1-15z"/><path fill="#1c1d16" fill-opacity=".7" d="M153 46l-23-8 25 62z"/><path fill="#1b090c" fill-opacity=".5" d="M103.5 157.2l-75-56.1 55.2-17.7-46.5-3.9z"/><path fill="#c0def7" fill-opacity=".3" d="M127.6 185l7.3-50.5-24.2 18.5-53-2.2z"/><path fill-opacity=".5" d="M202 50h10v13h-10z"/><path fill="#eafbfa" fill-opacity=".4" d="M-.5 132.8l30.3-16.6-5.8 10.7-5.8 3.5z"/><ellipse cx="28" cy="165" fill="#a99d98" fill-opacity=".5" rx="23" ry="8"/><path fill="#00090e" fill-opacity=".5" d="M54 42l-44-6 35 33z"/><path fill="#d9cdd7" fill-opacity=".6" d="M201 63h8v38h-8z"/><circle r="1" fill="#babebb" fill-opacity=".5" transform="matrix(.17546 -2.44805 55.80745 3.99986 74.3 38.7)"/><path fill="#b9b2a3" fill-opacity=".5" d="M271 43l-41 32-38-47z"/><path fill="#5f0200" fill-opacity=".3" d="M261 165l-53-76-13 43z"/><circle r="1" fill="#282e1d" fill-opacity=".4" transform="matrix(-6.103 11.08734 -32.1098 -17.67475 97.8 63.2)"/><path fill="#5c3e32" fill-opacity=".6" d="M272.2 85.8l-16.8 25-21.6-14.6 16.8-25z"/><path fill="#2d0700" fill-opacity=".5" d="M171 105l32 30-67-13z"/><ellipse cy="65" fill="#3a9396" fill-opacity=".3" rx="39" ry="21"/><path fill-opacity=".6" d="M72 81h6v14h-6z"/><ellipse cx="188" cy="155" fill="#a95b1b" fill-opacity=".2" rx="59" ry="29"/><ellipse cx="99" cy="118" fill="#57382f" fill-opacity=".8" rx="33" ry="7"/><path fill="#3d1c00" fill-opacity=".4" d="M9.8 74.6l3.5 63.7 40.2 11.6-69.5 17.4z"/><path fill="#553a2e" fill-opacity=".7" d="M183 112l-40-33 47-8z"/><ellipse cx="7" cy="45" fill="#e0ffa8" fill-opacity=".5" rx="5" ry="8"/><path fill="#a6897d" fill-opacity=".5" d="M36 102l31-13-45 3z"/><path fill="#270d01" fill-opacity=".7" d="M271 143.5l-48.1-2.7 8.9-12.7 39.2-4.8z"/><path fill="#d69148" fill-opacity=".5" d="M98-16h26L97 34z"/><circle r="1" fill="#d59c61" fill-opacity=".5" transform="matrix(-6.31207 7.28686 -5.43645 -4.7092 173.3 20.3)"/><path fill="#2c2220" fill-opacity=".9" d="M23 92.6l25-5.1 15.4 22.4-38.3-39z"/><path fill="#aa805c" fill-opacity=".6" d="M130 171l2-39 139 36z"/><path fill="#fdd2d6" fill-opacity=".5" d="M236.5 116.3l-13-30.9-9.7-11.4 18 9z"/><path fill="#000009" fill-opacity=".5" d="M146 107l-4-23 26 9z"/><path fill="#947875" fill-opacity=".5" d="M99 124l15 7-4-47z"/><path fill="#283238" fill-opacity=".7" d="M8.5 46.8l10.3 22.3-34.1-15.4 110.9 7.1z"/><path fill="#b6aba2" fill-opacity=".8" d="M127.7 173.7l6.5-41.1-4.5-8.7-11.4 61.1z"/><path fill="#bcb1b3" fill-opacity=".3" d="M67.5 57.4l20.3 49.1L86.3 37l10.3 48.8z"/><circle cx="71" cy="125" r="8" fill-opacity=".5"/><path fill="#d9c8ad" fill-opacity=".4" d="M223.8-.9l-13.1-13.9 9.2 28.9-13.8-4.2z"/><path fill="#463021" fill-opacity=".5" d="M222 36l-2-11 37 3z"/><path fill="#723022" fill-opacity=".6" d="M211.1 139.9l5.4 5.8 3.4-62-13.6 16.3z"/><path fill="#110706" fill-opacity=".6" d="M73 126.1l-1.6-11.9L85 153.9l21.3-5.3z"/><ellipse cx="27" cy="9" fill="#66402c" fill-opacity=".5" rx="58" ry="14"/><path fill="#c08f86" fill-opacity=".5" d="M220 52h5v92h-5z"/><circle r="1" fill="#1e100e" fill-opacity=".5" transform="matrix(22.4931 -2.18137 .45023 4.64249 112 77.4)"/><path fill="#8c4e27" fill-opacity=".5" d="M183.3 24l18.4 37.7-17 8.3-18.4-37.7z"/><path fill="#a3765f" fill-opacity=".6" d="M-10.5 176.4L-16 165l37.9-15.1-37.9-.8z"/><path fill="#1a2218" fill-opacity=".5" d="M111 45h15v20h-15z"/><path fill="#aea4a1" fill-opacity=".7" d="M44.9 71.2l1.7-5.9 33.8 2.9-6.1 5.3z"/><path fill="#ffa73f" fill-opacity=".2" d="M2.2 141.8L66 128.3l-82 7.1 23.4 5.1z"/><path fill="#4d3b32" fill-opacity=".5" d="M62 58h3v69h-3z"/></g></svg>