<svg xmlns="http://www.w3.org/2000/svg" viewBox="0 0 300 199"><defs/><path fill="#543531" d="M0 0h300v199H0z"/><g transform="translate(.6 .6) scale(1.17188)"><ellipse cx="190" cy="35" fill="#b49d82" fill-opacity=".6" rx="69" ry="138"/><circle r="1" fill="#030613" fill-opacity=".8" transform="matrix(41.05303 -13.9555 30.79855 90.60035 34 139.6)"/><ellipse cx="255" cy="29" fill="#bfc3b8" fill-opacity=".7" rx="46" ry="54"/><circle r="1" fill="#fff4e3" fill-opacity=".5" transform="matrix(-11.69063 -5.87897 10.44695 -20.7743 81.3 77.3)"/><ellipse cx="153" cy="110" fill="#633314" fill-opacity=".9" rx="23" ry="45"/><circle r="1" fill-opacity=".5" transform="matrix(12.06576 -11.45083 26.61019 28.03921 234.8 94.8)"/><path fill="#ffeac3" fill-opacity=".5" d="M123 32l25 10-21 92z"/><path fill="#fdffff" fill-opacity=".4" d="M206 113l24 31 1-50z"/><path fill="#ffe6a4" fill-opacity=".5" d="M206 75l-76-31 74-2z"/><path fill="#768eae" fill-opacity=".7" d="M90 185l-10-80 24 15z"/><ellipse cx="127" cy="123" fill="#f2efe0" fill-opacity=".7" rx="4" ry="37"/><circle r="1" fill="#0f0400" fill-opacity=".7" transform="rotate(-116.5 41 14) scale(16.09165 49.98325)"/><circle r="1" fill="#000006" fill-opacity=".4" transform="matrix(106.72225 66.20517 -4.58813 7.39603 255 166.7)"/><path fill="#8a4a0a" fill-opacity=".7" d="M131.5 152l-1.2-68.6 5.2-27.5 24.6 32.4z"/><circle r="1" fill="#1e0e00" fill-opacity=".7" transform="rotate(35.8 -35.8 353.2) scale(14.16634 7.06309)"/><circle r="1" fill="#98a0f1" fill-opacity=".4" transform="rotate(-153.7 106.7 54.2) scale(8.36614 45.90956)"/><ellipse cx="126" cy="11" fill="#ece4d1" fill-opacity=".6" rx="4" ry="102"/><circle r="1" fill="#934902" fill-opacity=".4" transform="matrix(-39.27853 -.00851 .00738 -34.03853 171.5 16.6)"/><path fill="#bb8b6f" fill-opacity=".6" d="M14 115l-3-22 16-8z"/><path fill="#eaf0f0" fill-opacity=".7" d="M223 159l-8-7-1 33z"/><path fill="#fffffa" fill-opacity=".5" d="M180 55h10v37h-10z"/><circle r="1" fill="#0b0404" fill-opacity=".5" transform="matrix(10.82153 6.81468 -16.45914 26.13667 248.5 111)"/><ellipse cx="206" cy="30" fill-opacity=".6" rx="3" ry="41"/><path fill="#220a02" fill-opacity=".6" d="M63 185h97l7-47z"/><path fill="#c8c4bb" fill-opacity=".6" d="M239 34l-4 66 29-37z"/><circle r="1" fill="#140200" fill-opacity=".7" transform="matrix(-8.75355 -3.14182 6.66062 -18.55737 225 84.9)"/><path fill="#c1c2d0" fill-opacity=".4" d="M34.2 82.2l48.3 4.7-9.4 19.5L55 74.6z"/><ellipse cx="103" cy="75" fill="#946b43" fill-opacity=".4" rx="12" ry="96"/><path fill="#dadeff" fill-opacity=".4" d="M203.9 133.7l6.2-38.4 1-14.4 19.4 56.8z"/><ellipse cx="171" cy="38" fill="#290b02" fill-opacity=".7" rx="36" ry="3"/><ellipse cx="119" cy="107" fill="#0e0100" fill-opacity=".7" rx="4" ry="146"/><circle r="1" fill="#281730" fill-opacity=".5" transform="matrix(3.89659 .0272 -.34525 49.45254 188.6 142.5)"/><path fill="#c8c6b9" fill-opacity=".6" d="M209 67l1-72 31 65z"/><path fill="#000103" fill-opacity=".6" d="M234.6 138l27.2 12.7-16.4 35.3-27.2-12.7z"/><path fill="#b99f6e" fill-opacity=".5" d="M68 5h12v27H68z"/><path fill="#eed2ea" fill-opacity=".4" d="M89 119h21v9H89z"/><path fill="#b9b5f1" fill-opacity=".5" d="M195 93.8l11.5 3.5-7.6 24.9-11.4-3.5z"/><path fill="#2f2224" fill-opacity=".8" d="M191.2 102.6L157.3 154l20.8-39.6 23.4-30.7z"/><circle cx="43" cy="140" r="43" fill="#00051f" fill-opacity=".4"/><path fill="#dee6e2" fill-opacity=".5" d="M92 76l-8-1.4L88 52l8 1.4z"/><path fill="#b88348" fill-opacity=".5" d="M201 31l-76 7 59-53z"/><path fill="#cd9e7e" fill-opacity=".5" d="M191 40l-73 27 46-1z"/><ellipse cx="20" cy="28" fill="#442b2a" fill-opacity=".8" rx="38" ry="27"/><path fill="#130400" fill-opacity=".5" d="M78.8 76.3l-16-55-38 80-.2-47.9z"/><circle r="1" fill="#81644f" fill-opacity=".5" transform="matrix(8.99145 -7.40017 10.528 12.79186 248.5 134.2)"/><path fill="#793e4c" fill-opacity=".6" d="M171 60l28 82-42-60z"/><path fill="#260701" fill-opacity=".5" d="M97.3 145.8l2.7 34.5-6.3-47.9 18.3-6.9z"/><ellipse cy="100" fill="#4d1a0f" fill-opacity=".6" rx="14" ry="29"/><ellipse cx="84" fill="#090000" fill-opacity=".6" rx="4" ry="46"/><path fill="#030000" fill-opacity=".6" d="M242 86h14v34h-14z"/><ellipse cx="211" cy="65" fill="#c6bfa9" fill-opacity=".6" rx="2" ry="24"/><path fill="#397aff" fill-opacity=".1" d="M159.1 110.8l-11.2 42.8L264 185l-75.6-51.1z"/><circle r="1" fill="#e2e5eb" fill-opacity=".4" transform="matrix(-3.46417 -6.50365 7.66478 -4.08265 139.5 45.7)"/><path fill="#afb9c0" fill-opacity=".3" d="M60.2 81.3l34-8.3-14.1 33.9-21-7.9z"/><path fill="#2f1f20" d="M204.7 182.5l3.2 2.5-.3-50.8-4.1 15.1z"/><path fill="#98917a" fill-opacity=".5" d="M269-13.1l-9.6 38.8-50.5-12.6 9.7-38.8z"/><circle r="1" fill="#5987ad" fill-opacity=".4" transform="matrix(7.29388 -.49113 3.67348 54.55589 90.5 169)"/><circle r="1" fill="#001d48" fill-opacity=".3" transform="matrix(4.16744 -20.48733 25.69879 5.22753 49.9 106.5)"/><path fill="#64372a" fill-opacity=".7" d="M37.8 76.9l33.5 3.9L77.9 49l19.4 1.6z"/><path fill="#e8b282" fill-opacity=".4" d="M162 43h44v20h-44z"/><path fill-opacity=".6" d="M106 159h10v11h-10z"/><path fill="#462800" fill-opacity=".4" d="M199.3 67.1l-7.9 39.3-.5-34.9 33.7 39z"/><path fill="#000722" fill-opacity=".5" d="M152 102h17v15h-17z"/><path fill="#fff" fill-opacity=".5" d="M227 99h3v17h-3z"/><circle r="1" fill="#000200" fill-opacity=".6" transform="rotate(-158.8 107.5 26.4) scale(9.48256 5.17676)"/></g></svg>