<svg xmlns="http://www.w3.org/2000/svg" viewBox="0 0 300 199"><defs/><path fill="#593b37" d="M0 0h300v199H0z"/><g transform="translate(.6 .6) scale(1.17188)"><circle cx="155" cy="61" r="79" fill="#ebb868" fill-opacity=".4"/><path fill="#acb9e9" fill-opacity=".8" d="M215.2 138l-61-1 .6-29 61 1z"/><circle r="1" fill="#ffb24a" fill-opacity=".3" transform="matrix(-100.75942 -18.49281 4.3586 -23.74818 33.8 58.9)"/><path fill="#00011d" fill-opacity=".4" d="M105 87l53 42-146 46z"/><ellipse cx="146" cy="167" fill="#b180a4" fill-opacity=".5" rx="73" ry="15"/><path fill="#180000" fill-opacity=".5" d="M137 18h18v60h-18z"/><ellipse cx="248" cy="19" fill="#1b0900" fill-opacity=".8" rx="21" ry="49"/><ellipse cx="193" cy="33" fill="#e79b00" fill-opacity=".4" rx="35" ry="50"/><circle r="1" fill="#2f111f" fill-opacity=".5" transform="matrix(-5.99667 -1.66825 11.85012 -42.5964 156.8 102.2)"/><circle r="1" fill="#a36e6f" fill-opacity=".7" transform="matrix(18.86688 -33.0982 21.47445 12.24102 90.5 6.9)"/><circle r="1" fill="#2b0d02" fill-opacity=".7" transform="matrix(-25.96913 -4.5817 3.44358 -19.51829 21 107.7)"/><circle r="1" fill="#2b0004" fill-opacity=".4" transform="rotate(-48.7 268.5 -217.7) scale(32.179 47.47473)"/><path fill="#508ad4" fill-opacity=".5" d="M0 146h35v17H0z"/><path fill="#633900" fill-opacity=".4" d="M221-16L121 22l109 2z"/><path fill="#da9363" fill-opacity=".5" d="M174 98l82-24-89-40z"/><path fill="#e7d0c0" fill-opacity=".3" d="M100.7 72.7L126 21.1l2.4 39.3 1.1 54z"/><path fill="#e7b66d" fill-opacity=".7" d="M40.6 64.2l1.5 17.1-7.9-.6L-16 65.2z"/><ellipse cx="60" cy="73" fill="#19000a" fill-opacity=".6" rx="3" ry="84"/><path fill="#b5b1d3" fill-opacity=".5" d="M-16 140l31-4-2-18z"/><path fill="#0386a0" fill-opacity=".8" d="M228 157.7l-4.9-1.4 14.1-3.4 14.6 32.1z"/><path fill="#5a5363" fill-opacity=".8" d="M166.3 135.7l-49.5-4.3 20.4-50.6 19.5 65.4z"/><path fill="#301b0b" fill-opacity=".9" d="M144.6 32.2l6.7 46.3 9.1-63.6-9-1.6z"/><path fill="#070000" fill-opacity=".5" d="M9 168l30-53-16-14z"/><path fill="#fdde54" fill-opacity=".5" d="M157.4 82.1l-6.7-1.8L162.6 36l6.7 1.8z"/><ellipse cx="51" cy="25" fill="#9c6a3a" fill-opacity=".7" rx="6" ry="106"/><path fill="#ae7d65" fill-opacity=".8" d="M101.9 69.8L77.2 22.9l5.6 92.5 7.2 1.1z"/><ellipse cx="75" cy="22" fill="#1b001d" fill-opacity=".6" rx="2" ry="136"/><path fill="#100605" fill-opacity=".7" d="M228.7 75.2l.8 50.8 12.8-19.8L228.8 66z"/><path fill="#180404" fill-opacity=".5" d="M45.1 28.5L-16 27 24.3 9.6l22.3 55.8z"/><circle r="1" fill="#070409" fill-opacity=".5" transform="matrix(-5.3899 -1.23425 4.8712 -21.27222 100.7 105.6)"/><path fill="#371504" fill-opacity=".9" d="M-.4 53.3L-3.8 57l6.3 2.6 26.1 1.1z"/><ellipse cx="59" cy="140" fill-opacity=".5" rx="16" ry="11"/><path fill="#aca8ca" fill-opacity=".6" d="M174 106h44v33h-44z"/><path fill="#2f1710" fill-opacity=".8" d="M152.4 99.2L168.5 54l-.6 5.6 2 28z"/><path fill="#d48014" fill-opacity=".5" d="M6 37h34v20H6z"/><circle r="1" fill="#774648" fill-opacity=".4" transform="rotate(63.1 -85.5 152.9) scale(14.49055 45.77283)"/><ellipse cx="192" cy="29" fill="#ce8e05" fill-opacity=".5" rx="34" ry="14"/><path fill="#b57215" fill-opacity=".5" d="M15 59l-1 40-30-36z"/><path fill="#664e53" fill-opacity=".5" d="M188 109h36v7h-36z"/><path fill="#a0641b" fill-opacity=".5" d="M256.5 68l-40.7-2.8L242.7 89l-1.2 25.7z"/><ellipse cx="105" fill="#bc8a73" fill-opacity=".5" rx="30" ry="29"/><path fill="#a5a3b9" fill-opacity=".5" d="M19 144h13v20H19z"/><path fill="#b2c3f0" fill-opacity=".5" d="M154 116h48v19h-48z"/><ellipse cx="136" cy="54" fill="#965908" fill-opacity=".4" rx="9" ry="37"/><path fill="#4b343a" fill-opacity=".6" d="M182.2 98.9l-67.3 38.2 39.6 6.9-2.1-45.6z"/><path fill="#928b94" fill-opacity=".5" d="M112.5 113.7l-4.6-3.9-9.2 13.7 9.3 4z"/><path fill="#e3ad7d" fill-opacity=".5" d="M184 39h15v56h-15z"/><circle r="1" fill="#c1934c" fill-opacity=".4" transform="rotate(-88.5 84.9 15.5) scale(29.00967 2.97424)"/><path fill="#001d70" fill-opacity=".4" d="M12.7 138l8.4 53.3L3.3 194-5 140.7z"/><path fill="#422226" fill-opacity=".5" d="M71.2 34.6l3-6.4 32.6 15.2-3 6.4z"/><path fill="#43040d" fill-opacity=".4" d="M84.4 70.8l-14.1 61.7-1.4-24.6 20-21.9z"/><path fill="#130702" fill-opacity=".9" d="M233.1 51.7l8.4 22.8 5.2-70.4-22.4-5z"/><path fill="#c0c2fc" fill-opacity=".3" d="M155.8 90.5l25.3 4.4-16.9 3.9-2.9 1z"/><path fill="#261213" d="M36.5 19.9l-40.6 2.5 45.5 15-1.5-1.8z"/><circle r="1" fill="#e9b455" fill-opacity=".6" transform="matrix(-3.6934 4.08756 -3.6504 -3.2984 144.8 78.3)"/><path fill="#f7f5e4" fill-opacity=".6" d="M29 73h11v8H29z"/><path fill="#3a1c0b" fill-opacity=".8" d="M271 24l-15 82-13-122z"/><path fill="#b68c33" fill-opacity=".6" d="M144.1 21.8l-8.6-12.3L166-11.8 174.5.5z"/><ellipse cx="43" cy="63" fill="#1f0004" fill-opacity=".5" rx="2" ry="69"/><path fill="#624454" fill-opacity=".5" d="M130 130l79 10-26 16z"/><path fill="#7284a0" fill-opacity=".5" d="M42 150v-29l-9 6z"/><path fill="#1e010f" fill-opacity=".6" d="M74 147l22-18-27-27z"/><path fill="#c39437" fill-opacity=".5" d="M203.1 72.5l-8-30 33.8-9 8 30z"/><path fill="#5b2100" fill-opacity=".6" d="M4 76l38 7-4 18z"/><path fill="#60314d" fill-opacity=".3" d="M227.2 58.6l4.3 17.2-17.4 108.3 2.2-100.5z"/></g></svg>