<svg xmlns="http://www.w3.org/2000/svg" viewBox="0 0 300 199"><defs/><path fill="#46412e" d="M0 0h300v199H0z"/><g transform="translate(.6 .6) scale(1.17188)"><circle r="1" fill="#f2f4ec" fill-opacity=".8" transform="matrix(4.80288 -43.07354 108.36714 12.0834 136.5 0)"/><ellipse cx="125" cy="91" fill="#8a6649" fill-opacity=".6" rx="61" ry="58"/><circle r="1" fill="#9aad72" fill-opacity=".6" transform="matrix(-74.77588 -18.7824 4.2408 -16.88335 26.1 18.2)"/><path fill="#7b8066" fill-opacity=".8" d="M204.1 35l50.5-40.8L278 22.9l-50.5 41z"/><circle r="1" fill="#feffff" fill-opacity=".7" transform="rotate(-85.3 67.8 -72.8) scale(32.00188 75.46518)"/><ellipse cx="125" cy="131" fill="#d1ebff" fill-opacity=".5" rx="10" ry="21"/><circle cy="108" r="65" fill="#1e1900" fill-opacity=".5"/><circle r="1" fill="#83757c" fill-opacity=".5" transform="matrix(-5.28003 -20.35795 40.08655 -10.39682 174.7 55.3)"/><ellipse cx="241" cy="99" fill="#191818" fill-opacity=".4" rx="25" ry="58"/><path fill="#202a1e" fill-opacity=".6" d="M176.1 145.5l-36.8 3.8-3.4-32.8 36.8-3.8z"/><path fill="#35341e" fill-opacity=".7" d="M26 116h88v54H26z"/><ellipse cx="86" cy="88" fill="#8c501e" fill-opacity=".6" rx="36" ry="29"/><ellipse cx="64" cy="52" fill="#000600" fill-opacity=".3" rx="82" ry="9"/><path fill="#e3eed8" fill-opacity=".4" d="M-26.8 35.4l-.4-13 54-1.8.4 13z"/><ellipse cx="248" cy="38" fill="#9e9a9e" fill-opacity=".6" rx="202" ry="6"/><circle r="1" fill="#9d673c" fill-opacity=".6" transform="rotate(108.5 45.2 93.6) scale(16.44042 30.72827)"/><ellipse cx="49" cy="29" fill="#707b45" fill-opacity=".5" rx="26" ry="15"/><path fill="#000c19" fill-opacity=".4" d="M131 93h11v35h-11z"/><circle r="1" fill="#44443c" fill-opacity=".6" transform="matrix(-30.7618 23.06465 -12.17436 -16.23719 209.2 70)"/><circle r="1" fill="#36332c" fill-opacity=".6" transform="rotate(172.3 104.5 86) scale(169.48612 22.97896)"/><path fill="#a5a6a7" fill-opacity=".6" d="M125 99l-14 46 29 2z"/><ellipse cx="9" cy="10" fill="#395217" fill-opacity=".5" rx="24" ry="7"/><circle r="1" fill="#a19f93" fill-opacity=".6" transform="matrix(10.22306 -19.45781 2.89254 1.51973 215.7 13.4)"/><path fill="#a29684" fill-opacity=".6" d="M81 22l46 20H65z"/><path fill="#7f8087" fill-opacity=".5" d="M133 43h67v9h-67z"/><path fill="#1a1708" fill-opacity=".7" d="M15.5 54.2l-9 103.6-22-2 9-103.6z"/><path fill="#434025" fill-opacity=".5" d="M16 108l105 4-22 73z"/><path fill="#939e71" fill-opacity=".6" d="M239 30l14-37-21 14z"/><path fill="#ebecfd" fill-opacity=".2" d="M33.1 28.9L3.6 18l15.1 15.3h17z"/><path fill="#70743d" fill-opacity=".7" d="M0 27h10v13H0z"/><path fill="#70645d" fill-opacity=".6" d="M41 33L11 43h55z"/><path fill="#815028" fill-opacity=".5" d="M53 115l11-59 53 56z"/><path fill="#f2f2f0" fill-opacity=".5" d="M103 1h104v33H103z"/><path fill="#1f3830" fill-opacity=".5" d="M177.8 139.2l-6.8-1.4 9.2-43 6.8 1.4z"/><path fill="#3a391e" fill-opacity=".6" d="M32 61h24v83H32z"/><path fill="#949c93" fill-opacity=".5" d="M174 67h3v40h-3z"/><path fill="#88735f" fill-opacity=".6" d="M119.6 101.9l13.4 24 6.1-4.1-17.8-24z"/><path fill="#e0d7cd" fill-opacity=".6" d="M101 25H76l-5-12z"/><path fill="#bcbd91" fill-opacity=".7" d="M225.1 33.6l-8.3-16.4 19.9-3.8-34.4 19.4z"/><path fill="#c2beb5" fill-opacity=".4" d="M183.8 19.9l4.9 13.7-16 10.6-33-3z"/><path fill="#d3e0e1" fill-opacity=".8" d="M105.6-16L54.5 14.2 33.2-16 206.3-5.1z"/><path fill="#68764b" fill-opacity=".7" d="M271-8.3v48.2L219.7 31l15.4 4.9z"/><path fill="#885e38" fill-opacity=".5" d="M98 57h44l-49 64z"/><ellipse cx="158" cy="102" fill="#86502b" fill-opacity=".5" rx="18" ry="13"/><ellipse cx="167" cy="55" fill="#05071e" fill-opacity=".2" rx="181" ry="3"/><path fill="#504e3f" fill-opacity=".5" d="M116 44h24v16h-24z"/><path fill="#bdc2ce" fill-opacity=".5" d="M15 12h6v18h-6z"/><path fill="#4e4e3b" fill-opacity=".5" d="M177 67h44v48h-44z"/><path fill="#2c2a1f" fill-opacity=".6" d="M271 63l-55-3 15 96z"/><path fill="#667a39" fill-opacity=".7" d="M-13.2-16h49.1l-5.5 39.8 35.4 7.4z"/><ellipse cx="113" cy="36" fill="#555355" fill-opacity=".3" rx="49" ry="2"/><path fill="#8ea35e" fill-opacity=".6" d="M29.4 12.3l67.2 25.3L33.1 4.2 27.5-16z"/><path fill="#21231c" fill-opacity=".5" d="M159 123l-30-27 2 17z"/><path fill="#2b2810" fill-opacity=".4" d="M21 35h34v3H21z"/><circle cx="125" cy="101" r="3" fill="#c7ada3" fill-opacity=".6"/><path fill="#faf9fb" fill-opacity=".5" d="M225.9 4.8l9.8-.9-8.4 15.3-3.4-5.7z"/><path fill="#4c4842" fill-opacity=".6" d="M221.8 43l46.5.6 2.5 21.5-73.1-21.5z"/><path fill="#70716b" fill-opacity=".5" d="M217.8 4.7L227-7.1l3.2 2.4L221 7.1z"/><path fill="#2c271b" fill-opacity=".6" d="M-16 141l27 44 73-42z"/><ellipse cx="217" cy="155" fill="#39352c" fill-opacity=".5" rx="84" ry="29"/><path fill="#031609" fill-opacity=".2" d="M21.7 24.2L7.9 17.4-8.2-9.5l34.7 33.4z"/><path fill="#a5a2a6" fill-opacity=".4" d="M192 37h50v6h-50z"/><path fill="#f1f2ef" fill-opacity=".9" d="M214.2 10.1l1.5-25.4L199.4 31l-95-47z"/><path fill="#232216" fill-opacity=".5" d="M123 94l-7 2 5-11z"/><path fill="#a0a5a7" fill-opacity=".5" d="M122.3 105.7l-.3 6 18 37.7-28-1.5z"/></g></svg>