<svg xmlns="http://www.w3.org/2000/svg" viewBox="0 0 300 199"><defs/><path fill="#402a21" d="M0 0h300v199H0z"/><g transform="translate(.6 .6) scale(1.17188)"><circle r="1" fill="#c1b9bc" fill-opacity=".6" transform="matrix(21.60854 -126.41515 251.35437 42.96479 162.5 115.5)"/><ellipse cx="3" fill="#fcfefb" fill-opacity=".8" rx="59" ry="50"/><circle r="1" fill="#03000c" fill-opacity=".6" transform="rotate(141.7 47.6 35) scale(31.4003 72.15328)"/><circle cx="78" cy="121" r="67" fill="#ffebd1" fill-opacity=".3"/><circle r="1" fill="#090e03" fill-opacity=".7" transform="matrix(-20.65484 -6.84755 5.24447 -15.81935 183.1 115)"/><circle r="1" fill="#1d120b" fill-opacity=".8" transform="rotate(149.2 35 29.8) scale(27.08521 21.71553)"/><circle r="1" fill="#bf0003" fill-opacity=".6" transform="matrix(-3.50166 17.86495 -35.77024 -7.01122 246 91.2)"/><circle r="1" fill="#210900" fill-opacity=".5" transform="matrix(25.45847 12.26993 -6.02028 12.49128 170.7 157.9)"/><circle r="1" fill="#fee8fb" fill-opacity=".3" transform="matrix(-6.6769 15.21742 -36.36695 -15.95662 234.7 125.2)"/><circle r="1" fill="#253a1d" fill-opacity=".6" transform="matrix(10.98599 -4.27397 10.837 27.85586 256 45.3)"/><circle r="1" fill="#afc0cc" fill-opacity=".5" transform="matrix(13.62165 -19.00634 52.88983 37.9056 106 157.9)"/><path fill="#061838" fill-opacity=".6" d="M215 89l5-45-23-45z"/><path fill="#7a5243" fill-opacity=".7" d="M147-16l20 53-91 30z"/><circle r="1" fill="#adaea0" fill-opacity=".8" transform="matrix(22.22236 -25.58483 17.16935 14.91288 11 91.4)"/><path fill="#000f63" fill-opacity=".6" d="M154 86L94 52l68-7z"/><path fill="#abcfe2" fill-opacity=".5" d="M202-16l35 29-16 55z"/><circle r="1" fill="#0c1600" fill-opacity=".4" transform="matrix(-4.85804 -7.74123 20.5985 -12.92668 51.8 46.8)"/><ellipse cx="183" cy="46" fill="#91a2ae" fill-opacity=".5" rx="22" ry="41"/><path fill="#ebebe8" fill-opacity=".9" d="M-16 24.9L71.5-16 56.8 18.4 27.4 53.9z"/><ellipse cx="95" fill="#151410" fill-opacity=".7" rx="30" ry="33"/><path fill="#f0d8c4" fill-opacity=".5" d="M135.8 119.9l-5.6-7.1 52-40.7 5.6 7.1z"/><path fill-opacity=".4" d="M207 156l-34-55 27 1z"/><path fill="#150021" fill-opacity=".3" d="M162.5 63.9l-37.9 33.2-4.8 8 18.6 3.3z"/><path fill="#00054e" fill-opacity=".6" d="M156 144l-4 11-25-20z"/><path fill="#591416" fill-opacity=".6" d="M198.1 103.4l27.1-4.4-36.1-14.6 26.1 1.8z"/><circle r="1" fill="#493325" fill-opacity=".8" transform="rotate(170.9 42.3 31) scale(14.89796 12.39261)"/><path fill="#bab0c7" fill-opacity=".4" d="M198 152l52-5-13 26z"/><path fill="#a07e6c" fill-opacity=".5" d="M18 49l81 87 70 6z"/><path fill="#e8f3f3" fill-opacity=".5" d="M118.3 101L94.5 84.4l5.2-7.4 23.8 16.6z"/><circle r="1" fill="#9d7867" fill-opacity=".4" transform="matrix(-20.83147 21.42147 -29.09573 -28.29436 43.7 162.6)"/><path fill="#bd9f81" fill-opacity=".6" d="M106 50l13-28 6 18z"/><circle r="1" fill="#b88061" fill-opacity=".7" transform="matrix(4.92562 -5.5284 9.44243 8.4129 121.4 76.5)"/><path fill="#040000" fill-opacity=".6" d="M202 167h26v3h-26z"/><path fill="#692329" fill-opacity=".6" d="M235.1 133.4l4.4 9-12.6 6.2-4.4-9z"/><path fill="#ff948c" fill-opacity=".4" d="M214.9 78.6l9.3-16.5 22.7.8 14.8 10.3z"/><path fill="#574128" fill-opacity=".4" d="M181 128l-29-5 27-39z"/><path fill="#372419" fill-opacity=".4" d="M166.7-16l-61.2 27.9 99.1-20.3-3.9 33.5z"/><path fill="#a0a692" fill-opacity=".6" d="M19.7 51.3l36.2-28 6.6-17.8L58.8 35z"/><path fill="#b08577" fill-opacity=".6" d="M163 18.5l-28.3 6.6L131 9.5l28.2-6.6z"/><path fill="#91171d" fill-opacity=".9" d="M248.2 89.1l-13.6 13 11.9 11.5H271z"/><path fill="#af9581" fill-opacity=".5" d="M182 182.3l-14.7-6.3 8.6-20.3 14.8 6.3z"/><path fill="#1f1916" fill-opacity=".7" d="M118.4 24.8L49.1 60.3l-2.8.8 18.4-46.7z"/><path fill="#250700" fill-opacity=".5" d="M127 54l10-17-15-18z"/><path fill="#967d68" fill-opacity=".6" d="M31.8 126.3L54.6 23.2 33.7 92.9l48.2 7.9z"/><path fill="#c3b0a0" fill-opacity=".4" d="M68.5 55.6l84 74.3-95.6-61.1-61.8-1.4z"/><path fill="#b3c3d1" fill-opacity=".4" d="M39 185l94-47 20 26z"/><circle r="1" fill="#819eab" fill-opacity=".5" transform="matrix(8.64536 -3.9705 10.04295 21.8675 235 50.5)"/><path fill="#5f563e" fill-opacity=".5" d="M40 76l5-50 11 15z"/><path fill="#3e6740" fill-opacity=".4" d="M34 59L-8 41l-8 27z"/><circle r="1" fill="#7c5853" fill-opacity=".5" transform="matrix(2.86608 -7.34544 24.92262 9.72444 161.2 44.6)"/><path fill="#14282e" fill-opacity=".7" d="M102.5 64.6l-3.1-.8 11.1 17.8-1.5-20.9z"/><path fill="#677565" d="M202.5 127.6l3.7 15.4-8.4-29.8 17.5 2.4z"/><path fill="#650a42" fill-opacity=".6" d="M270.6 185l-16.2-10.6-10.8-6.2 4.9-11.5z"/><path fill="#f53c39" fill-opacity=".4" d="M234.9 76.7l-23 32.5 3-33.7L230.2 58z"/><ellipse cx="144" cy="73" fill="#001556" fill-opacity=".7" rx="11" ry="22"/><path fill="#ec9f6e" fill-opacity=".3" d="M121.6 76.1l6.9 23.7 25.4 35.4 1.2-25.7z"/><circle r="1" fill="#a0acb4" fill-opacity=".5" transform="rotate(-136.1 98.7 -23) scale(25.77013 11.32395)"/><ellipse cx="228" cy="118" fill="#c5b1bf" fill-opacity=".5" rx="17" ry="15"/><path fill="#e1f8f1" fill-opacity=".4" d="M-16 146l47.8-32.3-6.8 15.1-35 2.4z"/><path fill="#000f26" fill-opacity=".5" d="M218.2 67.8L197.8-5.9l11.4 63.4.9 37.5z"/><path fill="#f2f0ee" fill-opacity=".6" d="M0 0h59v29H0z"/><path fill="#4e2509" fill-opacity=".5" d="M169.6 178.6l-17.8-2.5 4.6-32.7 17.8 2.5z"/><path fill="#abb5a7" fill-opacity=".5" d="M208.7 140.7l16.8 3-4.2 23.6-16.8-3z"/><path fill="#9a8c79" fill-opacity=".6" d="M199 137.3l-26.8-11.9 13.3 30.9 13.7-2.3z"/><path fill="#161a21" fill-opacity=".5" d="M180 85h29v3h-29z"/></g></svg>