<svg xmlns="http://www.w3.org/2000/svg" viewBox="0 0 300 199"><defs/><path fill="#524b2b" d="M0 0h300v199H0z"/><g transform="translate(.6 .6) scale(1.17188)"><circle r="1" fill="#c4dffe" fill-opacity=".8" transform="matrix(-36.04553 -243.48737 46.23463 -6.8445 18.8 69.5)"/><circle r="1" fill="#fcd1dc" fill-opacity=".5" transform="rotate(-86.5 148 -5.5) scale(33.24472 42.03646)"/><circle r="1" fill="#ff896e" fill-opacity=".4" transform="matrix(.77631 37.06079 -131.89893 2.76289 163.2 20)"/><ellipse cx="252" cy="142" fill="#d7989a" fill-opacity=".4" rx="55" ry="40"/><path fill="#c8adaa" fill-opacity=".7" d="M158 107.4l-14.3 11-3.8-25.6 26.4-40.5z"/><circle r="1" fill="#b7764c" fill-opacity=".6" transform="matrix(-13.8177 1.1603 -4.32478 -51.50238 69.2 52.3)"/><circle r="1" fill="#1c152a" fill-opacity=".6" transform="matrix(77.96236 -44.44422 11.83467 20.75993 234.7 73.7)"/><path fill="#fbe4e9" fill-opacity=".5" d="M174 70h9v69h-9z"/><circle cx="36" r="36" fill="#e6e1db" fill-opacity=".7"/><circle r="1" fill="#5a90bd" fill-opacity=".7" transform="matrix(12.05626 -23.35858 41.31283 21.32314 0 147.7)"/><path fill="#1b0005" fill-opacity=".4" d="M139 137l3-87-61 13z"/><circle r="1" fill="#cfb2ad" fill-opacity=".6" transform="matrix(5.41755 -6.88448 35.88876 28.24167 117.5 142.3)"/><circle r="1" fill="#cdeeff" fill-opacity=".4" transform="matrix(18.67208 -5.30808 19.34529 68.05038 42.2 88.4)"/><circle r="1" fill="#e5c1ba" fill-opacity=".8" transform="rotate(145 70.2 93.3) scale(8.61425 9.03006)"/><circle r="1" fill="#edd7ca" fill-opacity=".7" transform="matrix(8.35877 -.9236 4.36216 39.47885 125.6 155)"/><path fill="#120227" fill-opacity=".4" d="M170 152.2l36.5-26.4-9.3 20.1-17.8 25z"/><path fill="#000300" fill-opacity=".3" d="M73 130.1L87.3 185l28.2-27-5-19.9z"/><path fill="#3b1f11" fill-opacity=".5" d="M234 147l-23-5 13-48z"/><path fill="#c9c4c1" fill-opacity=".8" d="M141.7 135.8l18.8-17.9 6.4 53.4 23.3 10.5z"/><path fill="#8f441b" fill-opacity=".5" d="M51 44h88v13H51z"/><path fill="#f8bd67" fill-opacity=".5" d="M178.8 27.6l-17.3-18 13.7-13.2 17.3 18z"/><path fill="#20182b" fill-opacity=".6" d="M176.7 69.1L152.1 119l51.8-8-42.9 18.6z"/><path fill="#2f1415" fill-opacity=".5" d="M153 83l-78 34-10-25z"/><path fill="#bfc0d5" fill-opacity=".5" d="M154 63h24v9h-24z"/><path fill="#d3a6a3" fill-opacity=".5" d="M229.7 96.7l31.4 11.1 2.1 65.2-18.4-48.2z"/><ellipse cx="220" cy="67" fill="#060000" fill-opacity=".2" rx="15" ry="50"/><path fill="#a39d97" fill-opacity=".6" d="M207.6 60.1l-19.3.7 2.1-18.2 15.1 10.5z"/><path fill="#c4a587" fill-opacity=".5" d="M193.7 154.8l10.4-10.6 25.8 3.1L270 172z"/><path fill="#8a6345" fill-opacity=".9" d="M91.1 71.5l-6.8 32.3-19.9-15-6.1-24.2z"/><ellipse cx="195" cy="103" fill="#03113f" fill-opacity=".6" rx="15" ry="21"/><path fill="#835541" fill-opacity=".6" d="M161 112.5l41.1 61.1-34.8-22.6-4.1-9.9z"/><ellipse cx="234" fill="#f7f1e0" fill-opacity=".6" rx="21" ry="3"/><path fill="#471a0f" fill-opacity=".5" d="M78 8h65v6H78z"/><circle r="1" fill="#fefcfa" fill-opacity=".4" transform="rotate(-42.2 205.9 -149.3) scale(9.17475 5.33321)"/><circle r="1" fill="#471f12" fill-opacity=".6" transform="rotate(-93.1 129.9 1.7) scale(15.68588 2.68881)"/><circle r="1" fill="#4c1d00" fill-opacity=".4" transform="matrix(11.60818 -73.75126 10.90672 1.71668 255 33.5)"/><path fill="#0e0614" fill-opacity=".4" d="M135.8 55.5l29.6 40.1 3.2 61.4 1.5-76.3z"/><path fill="#649cca" fill-opacity=".5" d="M65 144h13v26H65z"/><path fill="#753a23" fill-opacity=".5" d="M74 28h54v30H74z"/><path fill="#dacbb7" fill-opacity=".4" d="M214 14h37v4h-37z"/><path fill="#d2ddd9" fill-opacity=".5" d="M203 81h12v4h-12z"/><circle r="1" fill="#010400" fill-opacity=".4" transform="matrix(1.14151 5.45826 -40.58954 8.4887 225 59.9)"/><circle r="1" fill="#17110b" fill-opacity=".5" transform="rotate(-103.4 86.2 9.7) scale(29.98531 4.78164)"/><path fill="#cfced7" fill-opacity=".6" d="M181.9 77.1l3.3-5.6-8.9 47.4-3.3-35.8z"/><path fill="#713a26" fill-opacity=".7" d="M252 12.8L150.4-16l5.6 4 61.6 27.9z"/><ellipse cx="66" cy="47" fill="#ba783a" fill-opacity=".6" rx="10" ry="30"/><path fill="#947f6d" fill-opacity=".6" d="M141 106l14 79-21-12z"/><path fill="#000012" fill-opacity=".5" d="M176 54l10-2 4 27z"/><path fill="#894c2f" fill-opacity=".5" d="M133 39h123v12H133z"/><ellipse cx="234" cy="29" fill="#f7be69" fill-opacity=".5" rx="6" ry="10"/><circle r="1" fill="#8cb9dd" fill-opacity=".4" transform="matrix(32.76708 36.90645 -13.86227 12.3075 14 115)"/><path fill="#030f3b" fill-opacity=".5" d="M189 80h10v70h-10z"/><path fill="#d5c1ba" fill-opacity=".8" d="M50.6 4.6l68-6L-8.3-16-16 12z"/><circle cx="200" cy="73" r="4" fill="#c9b400" fill-opacity=".6"/><ellipse cx="103" cy="16" fill="#dfbfac" fill-opacity=".5" rx="19" ry="2"/><path fill="#502e25" fill-opacity=".5" d="M240 150l-3-39 19 51z"/><path fill="#cda791" fill-opacity=".7" d="M140 8.9l-19.8-1.7-18.5-5.6 36.9 4.1z"/><circle cx="210" cy="124" r="12" fill="#897a6d" fill-opacity=".5"/><path fill="#000029" fill-opacity=".5" d="M178 154h7v16h-7z"/><path fill="#d9bab1" fill-opacity=".4" d="M114 111h12v59h-12z"/><path fill="#c8965f" fill-opacity=".4" d="M246.6 82.1l-6-.3.8-16 6 .4z"/><path fill="#c1c8ce" fill-opacity=".7" d="M164 148l-13 35 3-58z"/><circle cx="77" cy="125" r="7" fill="#dfaac7" fill-opacity=".3"/><path fill="#632d1c" fill-opacity=".7" d="M151.5 9.9L78.4-16l67.9 4.2 10.2 10.3z"/><path fill="#f0b99b" fill-opacity=".5" d="M170 121h5v49h-5z"/></g></svg>