<svg xmlns="http://www.w3.org/2000/svg" viewBox="0 0 298 450"><defs/><path fill="#4c444c" d="M0 0h298v450H0z"/><g transform="translate(.9 .9) scale(1.75781)"><circle r="1" fill="#c1c7c1" fill-opacity=".6" transform="rotate(80.7 -23.5 84.5) scale(169 64.25436)"/><circle r="1" fill="#939393" fill-opacity=".9" transform="matrix(-37.47816 -27.50588 69.80136 -95.1079 113.4 61.3)"/><circle r="1" fill="#fdfdfd" fill-opacity=".6" transform="matrix(-28.00101 -2.15456 6.45974 -83.95187 87.4 245.4)"/><ellipse cx="128" cy="155" fill="#080a08" fill-opacity=".6" rx="24" ry="48"/><circle r="1" fill="#090b09" fill-opacity=".6" transform="matrix(17.42942 8.996 -23.21015 44.96884 35.6 232.2)"/><path fill="#a5aca5" fill-opacity=".5" d="M166.6 278.3l-28.7-4 21.5-152.6 28.7 4z"/><path fill="#070907" fill-opacity=".7" d="M171 112l-9-35-59 88z"/><path fill="#282828" fill-opacity=".7" d="M89.6 91.8l-22.9 5.4-10.4 41 3.6-3.7z"/><circle r="1" fill="#737573" fill-opacity=".6" transform="matrix(-67.28786 -23.82788 12.13936 -34.2805 7 163)"/><path fill="#f4f4f4" fill-opacity=".5" d="M67.9 158.2l31.4 9.9-9.4-30.9-25.2-9.9z"/><circle r="1" fill-opacity=".5" transform="matrix(19.62024 -47.30233 6.28334 2.60623 139.6 212.4)"/><circle cx="115" cy="215" r="14" fill="#a2a2a2" fill-opacity=".9"/><path fill="#bbb" fill-opacity=".5" d="M111.2 49.6L93 97.2 38.8 76.4 57 28.8z"/><path fill="#bdbfbd" fill-opacity=".5" d="M201.9 82.7L194.6 96l-80.5-44.6 7.3-13.2z"/><path fill-opacity=".6" d="M86.8 114.1l-.7 20-7-.2.8-20zM146 72l11 44 6-39z"/><ellipse cx="85" cy="217" fill="#fcfcfc" fill-opacity=".5" rx="11" ry="42"/><path fill="#848484" d="M113.5 118l11.2-5.2L155 99.1l-53.9-31.3z"/><path fill="#000400" fill-opacity=".4" d="M99 227l33 7 9 26z"/><circle r="1" fill="#0e100e" fill-opacity=".7" transform="matrix(27.70135 -28.1891 17.42438 17.1229 20.9 255.2)"/><ellipse cx="164" cy="146" fill="#8b8b8b" rx="14" ry="25"/><ellipse cx="9" cy="70" fill="#4f4f4f" fill-opacity=".5" rx="27" ry="12"/><circle r="1" fill="#949494" fill-opacity=".6" transform="rotate(118.6 -27.7 66.7) scale(51.54924 24.22813)"/><path fill="#fff" fill-opacity=".6" d="M133 120l-4-6-5 11z"/><path fill="silver" fill-opacity=".8" d="M96.1 211.8l-10.8-55.6 35.6 29.4-5.5-21.8z"/><path fill="#171717" fill-opacity=".4" d="M124.9 195.9l-24.5 31.3 8.9-20.9 59.3-110.9z"/><circle r="1" fill="#3b3c3b" fill-opacity=".7" transform="rotate(144.8 -21.3 111.3) scale(32.9276 16.59453)"/><ellipse cx="84" cy="255" fill="#dadbda" fill-opacity=".4" rx="33" ry="35"/><path fill="#010101" fill-opacity=".4" d="M142.9 87.9l-26.1-10.7-11.6 18.4-.8-12.5z"/><path fill="#6b6b6b" fill-opacity=".6" d="M109.4 118.6l11.9 5.3-16.7 37.5-11.9-5.3z"/><path fill="#b3b3b3" fill-opacity=".7" d="M102.4 135.4l-30.2-28.1-8 37.2 38.3-53.9z"/><path fill="#232423" fill-opacity=".6" d="M117 111l46 69-31 33z"/><path fill="#868686" fill-opacity=".9" d="M66.9 189.2l-6.4 64.3L43.7 271l4.4-4.9z"/><path fill="#b8b8b8" fill-opacity=".4" d="M155.8 103.5L95.9 105l17.6-19 7.7-1.8z"/><ellipse cx="148" cy="241" fill="#8a8a8a" fill-opacity=".8" rx="11" ry="19"/><path fill="#838383" d="M158 53l23 93 4-162z"/><path fill="#fafbfa" fill-opacity=".3" d="M109.3 220.1l18.3-20.3 3 15.7-15.4 13.6z"/><path fill="#6a696a" fill-opacity=".5" d="M0 147h65v29H0z"/><circle r="1" fill="#050505" fill-opacity=".5" transform="matrix(1.9 .57434 -5.57701 18.4495 64 124.3)"/><circle r="1" fill="#c0bfc0" fill-opacity=".4" transform="matrix(-19.27935 6.84096 -1.7984 -5.06828 43 184.4)"/><circle r="1" fill="#7e7e7e" fill-opacity=".6" transform="rotate(18.2 28 280.8) scale(53.35782 17.93966)"/><path fill="#181818" fill-opacity=".6" d="M113.8 202.8l-1.5-43.6-12.4 4.2 31.7 35.3z"/><path fill="#0d0d0d" fill-opacity=".7" d="M9.6 263.7l52.6-60.9-5.6 26-8.9 40.3z"/><path fill="#020202" fill-opacity=".3" d="M73.4 89.2l18.1 10.5-13.5 4.5-21.1 21.5z"/><path fill="#bbb" fill-opacity=".6" d="M79.5 79.3l-18.7 32.9-26.4-3.4 62.2-24.1z"/><path fill="#1a1b1a" fill-opacity=".8" d="M157.3 171.4l-27.9 95.7-13.4-15.7 5.5-21.4z"/><path fill="#a4a4a4" fill-opacity=".7" d="M91.3 195l7.1-6.7 25.2 19.3-24.5-.4z"/><path fill="#1a1a1a" fill-opacity=".6" d="M127.4 110.7l11.5-6.2 21.8-5.9-13.3 65.7z"/><path fill="#5c5c5c" fill-opacity=".6" d="M76 168l-13-22 1 60z"/><path fill="#fff" fill-opacity=".3" d="M106 226l-27-63-8 38z"/><path fill="#8c8c8c" fill-opacity=".7" d="M153.9 189.5l13.8-.9-24.7 69.1-6.5-13.2z"/><path fill="#c7c7c7" fill-opacity=".8" d="M106.1 111L86.2 76.4l-19.4-1.9 38.2 32.1z"/><path fill="#989998" fill-opacity=".5" d="M139.5 88.9l-16 38.1 24.7-41.1 5.7 24.5z"/><path fill="#2a2a2a" fill-opacity=".5" d="M110 208h9v6h-9z"/><path fill="#818181" fill-opacity=".8" d="M155 166l22 61-8-113z"/><path fill="#373837" fill-opacity=".4" d="M-9.3 195.2l-6.7-38.9L18.9 181l51.2-11.6z"/><path fill="#2f2f2f" fill-opacity=".4" d="M106 221l-1 8.5 5.9-4.8-9.7-24.4z"/><path fill="#999b99" fill-opacity=".6" d="M25.6 195.9l-37.7 10-1.5-5.8 37.7-10z"/><path fill="#fefefe" fill-opacity=".3" d="M74.1 125.2l25.9 54.1 10.2 10.9-24.3-52.6z"/><circle r="1" fill="#797979" fill-opacity=".5" transform="matrix(-1.77684 1.01892 -7.89184 -13.76217 82.1 164)"/><path fill-opacity=".2" d="M108.2 87.1l3.8-10.7 61.4 44.8L119 83.4z"/><path fill="#212121" fill-opacity=".7" d="M103.5 133.7l2.2 9 14.4-18.5 33.9 8.4z"/><circle r="1" fill="#b5b4b5" fill-opacity=".4" transform="rotate(-7.9 1025.7 -757.7) scale(1.11668 16.83286)"/><path fill="#616161" fill-opacity=".5" d="M145 46h25v11h-25z"/><path fill="#a7a7a7" fill-opacity=".7" d="M125.3 114l4.7-11.1-38.5 39.4-2.3-34.9z"/></g></svg>