<svg xmlns="http://www.w3.org/2000/svg" viewBox="0 0 298 450"><defs/><path fill="#663a31" d="M0 0h298v450H0z"/><g transform="translate(.9 .9) scale(1.75781)"><path fill="#f3ffff" fill-opacity=".6" d="M164 156L19 106 94-16z"/><circle cx="37" cy="223" r="116" fill="#000301" fill-opacity=".6"/><circle cx="76" cy="36" r="45" fill="#e1edf0" fill-opacity=".6"/><circle r="1" fill-opacity=".8" transform="rotate(78 60.5 100.3) scale(143.45303 27.21963)"/><path fill="#f7ffff" fill-opacity=".7" d="M129 69l-22 66 51 34z"/><ellipse cx="89" cy="72" fill="#1f1a16" fill-opacity=".7" rx="4" ry="244"/><ellipse cx="14" cy="105" fill="#241411" rx="17" ry="255"/><circle r="1" fill="#655044" fill-opacity=".7" transform="matrix(-25.35225 -.04425 .07971 -45.67068 85 137.3)"/><circle r="1" fill="#010000" fill-opacity=".6" transform="matrix(43.91849 -35.4286 2.68382 3.32696 101.6 79.3)"/><circle cx="86" cy="255" r="69" fill="#000100" fill-opacity=".8"/><ellipse cx="44" cy="101" fill="#080200" fill-opacity=".8" rx="2" ry="208"/><circle r="1" fill="#f7ffff" fill-opacity=".5" transform="matrix(-5.12379 .7932 -4.51904 -29.1912 153 177)"/><ellipse cx="11" cy="126" fill="#e6e2cf" fill-opacity=".6" rx="2" ry="62"/><ellipse cx="102" cy="10" fill="#fff" fill-opacity=".5" rx="13" ry="59"/><ellipse cx="69" cy="80" fill="#fff" fill-opacity=".3" rx="20" ry="45"/><ellipse cx="169" cy="114" fill="#000303" fill-opacity=".7" rx="15" ry="107"/><ellipse cx="114" cy="95" fill="#faffff" fill-opacity=".7" rx="19" ry="16"/><ellipse cx="89" cy="131" fill="#240a05" fill-opacity=".7" rx="12" ry="26"/><path fill="#ffd3bd" fill-opacity=".4" d="M46 171.3l24.8-22.1-3.3-53.3 18.3 69.3z"/><path fill="#f4fffb" fill-opacity=".4" d="M85.7-14.8L45.9 53.8l-1.5-24.1L46.3-16z"/><path fill-opacity=".9" d="M122 42l63-35-77-23z"/><ellipse cx="35" cy="90" fill="#eb9481" fill-opacity=".5" rx="8" ry="35"/><path fill="#ace3fe" fill-opacity=".6" d="M154 221h11v22h-11z"/><path fill="#c5504c" fill-opacity=".6" d="M37 200l-15-40 2 62z"/><path fill="#4c5546" fill-opacity=".7" d="M144.1 161.3l-18.3 38.5-24.2-33.6 28.9-18.2z"/><circle r="1" fill="#a9b4b1" fill-opacity=".6" transform="rotate(-8.4 1355 -1055.3) scale(2.20839 19.42386)"/><path fill="#2e0000" fill-opacity=".5" d="M90 90l-28 25-2-12z"/><path fill="#200e09" fill-opacity=".5" d="M66 129.4h-1L58-1.4h1z"/><path fill="#e8eef3" fill-opacity=".9" d="M122.3 45.3l1.6 12.1L94 65.3l9.8-81.3z"/><path fill="#180b01" fill-opacity=".5" d="M46.1 57.2l34-63.4 12.5 15L79 4.7z"/><ellipse cx="91" cy="93" fill="#020000" fill-opacity=".5" rx="4" ry="33"/><path fill="#ffffe8" fill-opacity=".5" d="M77 167l12-12-18-2z"/><path fill="#000101" d="M108 237.1l4.1-10.2L216 269l-4.1 10.2z"/><path fill="#000300" fill-opacity=".5" d="M0 0h22v95H0z"/><path fill-opacity=".8" d="M18.3 186l10 82.3-46.6 5.8-10-82.4z"/><path fill="#fffef0" fill-opacity=".3" d="M59.6 131.1l31-28.7L30.3 119l26.6-19.5z"/><ellipse cx="43" cy="39" fill="#1e0b00" fill-opacity=".7" rx="2" ry="56"/><path fill="#691e1c" fill-opacity=".6" d="M22 63h10v114H22z"/><circle cx="93" cy="122" r="18" fill="#49271e" fill-opacity=".5"/><path fill="#020202" fill-opacity=".6" d="M75.6 95.2l7.2-1.4 60.3-57 41.9-4z"/><path fill="#ecf6fe" fill-opacity=".6" d="M154 143L98 89l29-24z"/><path fill="#f3faff" fill-opacity=".5" d="M91.1 82.4L68.5 99.8l-7-45.6L79.6 0z"/><path fill="#a48f8b" fill-opacity=".7" d="M125.1 145.8l4 19.5-23.5-43.3-7.4 15.6z"/><path fill="#0e0d06" fill-opacity=".9" d="M117 155.1l9.4 24.1-26.1-39.9L90 162.8z"/><ellipse cx="154" cy="183" fill="#fbfff6" fill-opacity=".5" rx="4" ry="22"/><path fill="#16191b" d="M137.5 195.9l-19.4 5.2 66.2 29.4.7-10.3z"/><ellipse cx="39" cy="154" fill="#050303" fill-opacity=".8" rx="9" ry="37"/><path fill="#ffbfa5" fill-opacity=".4" d="M33 6h7v112h-7z"/><path fill="#f3ddc1" fill-opacity=".2" d="M12.6 175L5.4 62.2-8.1 79.1l23.5-27z"/><path fill-opacity=".5" d="M89.8 6l1.4 37.9-5 .2-1.4-38z"/><path fill="#6c513f" fill-opacity=".8" d="M74.4 175.1L72.8 141l4-12-25.3 47.9z"/><path fill="#e9ddce" fill-opacity=".6" d="M48 54h13v57H48z"/><path fill="#821c1f" fill-opacity=".4" d="M27 18h8v39h-8z"/><path fill-opacity=".4" d="M44 65h3v63h-3z"/><path fill="#f3f8f9" fill-opacity=".6" d="M95 75l19-14L90-4z"/><path fill="#0c1307" fill-opacity=".5" d="M112.3 200.2l-75.7 6.7-3.1-31.7 95.1 3.4z"/><path fill="#e6e8ee" fill-opacity=".8" d="M86.7 80.9L74 87.7l7.8-98.2 5 46.9z"/><path fill="#120909" fill-opacity=".5" d="M88 28h4v54h-4z"/><path fill="#527994" fill-opacity=".6" d="M163 221h7v27h-7z"/><path fill="#634b48" fill-opacity=".5" d="M105 247l-8-22 6-16z"/><path fill="#020202" fill-opacity=".7" d="M134.5 86.6l30.4 79.4L185-16l-65.4 51z"/><path fill="#f5f9ff" fill-opacity=".5" d="M60.8 118.2l26.8-18.1-9.6 11.6-2.9 12.6z"/><path fill="#371702" fill-opacity=".5" d="M40.5 65.9l24.2-40.3.8.5-24.2 40.3z"/><path fill="#b5dcdb" fill-opacity=".2" d="M122.5 186.3l.1 19.9-.4-11.7 31.4 3z"/><ellipse cx="17" cy="166" fill-opacity=".8" rx="4" ry="253"/></g></svg>