<svg xmlns="http://www.w3.org/2000/svg" viewBox="0 0 298 450"><defs/><path fill="#6b443a" d="M0 0h298v450H0z"/><g transform="translate(.9 .9) scale(1.75781)"><circle r="1" fill="#feffff" fill-opacity=".6" transform="matrix(-43.86637 15.94573 -34.60654 -95.20192 3.4 185.7)"/><circle r="1" fill="#030200" fill-opacity=".8" transform="matrix(-162.28963 47.1495 -14.2728 -49.12727 43.2 40.7)"/><circle r="1" fill="#061521" fill-opacity=".8" transform="rotate(151.6 48.5 97.1) scale(83.7576 28.5298)"/><path fill="#cfa591" fill-opacity=".8" d="M85.4 57.7l22.1-8.6 23.8 18.8-14.8 58.1z"/><circle r="1" fill="#050300" fill-opacity=".9" transform="matrix(-38.45147 23.79703 -15.4673 -24.9922 169 72.9)"/><path fill="#dee3dd" fill-opacity=".6" d="M32 271l34-103-35-35z"/><path fill="#e7bca7" fill-opacity=".6" d="M120.2 184.9l4.5 24.7-14.2 26.2-30.8-5.1z"/><path fill-opacity=".5" d="M16 77h29v55H16z"/><ellipse cx="73" cy="224" fill="#000912" fill-opacity=".6" rx="12" ry="108"/><path fill="#e2f8fd" fill-opacity=".7" d="M185 141.9l-33.1-35.2 23.6 3.4L166 139z"/><path fill="#f1f8f1" fill-opacity=".5" d="M65 143.4l-.2-9.8 19.9-29.4-34-3.2z"/><circle r="1" fill="#071927" fill-opacity=".7" transform="matrix(-28.57954 35.91082 -13.6179 -10.83777 155.3 187)"/><path fill="#dee7ff" fill-opacity=".5" d="M79 143l18-26-9 54z"/><path fill="#f4ffff" fill-opacity=".8" d="M-16 120.8L12.6 99l.6 45.8-21.4 33.4z"/><path fill="#161a20" fill-opacity=".9" d="M54.5 205.4l-.1 12.7 30.8 4.8 73.4-129z"/><circle r="1" fill="#0a0d0f" fill-opacity=".5" transform="matrix(40.35961 -6.10382 2.72414 18.01253 109.2 254.3)"/><ellipse cx="18" cy="191" fill="#9b4105" fill-opacity=".3" rx="8" ry="73"/><path fill="#d6eeff" fill-opacity=".6" d="M107.6 117.3l-2.4 13.9 25.3-34.3-2.8-6.2z"/><path fill="#0b0600" fill-opacity=".8" d="M98.9 105.2L24.8-16l22.3 74.4 22.4 44.3z"/><path fill="#030a0f" fill-opacity=".7" d="M90.2 108.7l-16.6 68.7L59 144.5l19.9-29.2z"/><path fill="#faffff" fill-opacity=".6" d="M65 103l33 3-27 7z"/><path fill="#091724" fill-opacity=".4" d="M96 117h71v75H96z"/><path fill="#ae7d64" fill-opacity=".5" d="M69 105L57 81l-20 81z"/><path fill="#d7cac2" fill-opacity=".3" d="M14.9 170.8l42.3-20.1 13.6 26.4L26 271z"/><path fill="#18140d" fill-opacity=".7" d="M54 94l-38 44 4-79z"/><path fill="#fff" fill-opacity=".5" d="M110 149h6v5h-6zm37-41h23v5h-23z"/><path fill="#2a0f00" fill-opacity=".5" d="M42 158l10-7-14-31z"/><ellipse cx="103" cy="67" fill="#d79476" fill-opacity=".3" rx="20" ry="21"/><circle r="1" fill="#040100" fill-opacity=".6" transform="matrix(6.89407 41.19732 -123.04164 20.59011 105.5 9.8)"/><path fill="#111c23" fill-opacity=".7" d="M113.7 118.9l-29.2 98.7 35.9-91.8 38.2-59.6z"/><path fill="#00050f" fill-opacity=".5" d="M90.1 118.7l-5.8 23.2-18.4-4.6 5.8-23.2z"/><path fill="#e9f0f2" fill-opacity=".5" d="M52.4 271l-26.3-57 33-49.2-19.5-14.4z"/><path fill="#e9fdff" fill-opacity=".5" d="M61.8 147.7l.3-26 14.7-11.4-9.4 15z"/><path fill="#202934" fill-opacity=".9" d="M177.4 182.3L164.8 118l-19.3-8.7-18.8-17.4z"/><path fill="#946457" fill-opacity=".5" d="M81 244.9l30.9-7.2-17.6-26.1-17.6 26.1z"/><circle r="1" fill="#debaa8" fill-opacity=".5" transform="matrix(9.54329 3.45398 -5.19336 14.34918 114 210.2)"/><path fill="#001220" fill-opacity=".3" d="M131.8 259.1l-53.9-21.5-20.3-52.5-2.6 75.4z"/><path fill="#140e08" d="M33.6 9.4l-43.7 92.7 24.7.6L42.9 141z"/><path fill="#000714" fill-opacity=".5" d="M110 115l-40 4 26-13z"/><ellipse cx="100" cy="69" fill="#512418" fill-opacity=".5" rx="13" ry="4"/><circle r="1" fill="#9a9fae" fill-opacity=".5" transform="matrix(-8.94991 15.98013 -2.16706 -1.2137 93.5 121.8)"/><path fill="#e9f1fc" fill-opacity=".5" d="M102.6 132.3l27-36.3-24.3 16 9.6 7.9z"/><path fill="#889a98" fill-opacity=".8" d="M-16 174.2v-19.4l23.3 11.8-.7 48.1z"/><ellipse cx="28" cy="153" fill="#d6a88b" fill-opacity=".4" rx="16" ry="23"/><ellipse cx="1" cy="237" fill="#ddebec" fill-opacity=".5" rx="10" ry="28"/><path fill="#7b4c3c" fill-opacity=".5" d="M84 60.3l19.3 52.3 17.6-20.9-12.8-.2z"/><path fill="#0c0701" fill-opacity=".8" d="M130.1 65l12.3 45L185-9.1l-61.6 75.6z"/><path fill="#5c3d33" fill-opacity=".7" d="M120 221.5l22.8 2.4-6.8 64.6-22.8-2.4z"/><path fill-opacity=".4" d="M56 117h4v30h-4z"/><path fill="#f9ffff" fill-opacity=".7" d="M-16 86l34 35-24 31z"/><path fill="#c8c3c5" fill-opacity=".7" d="M105.4 120.8l11.1-4.5 12.6-34.1-22.6 52.2z"/><path fill="#ffe0cd" fill-opacity=".3" d="M111.8 83.3l6 7.5L131 77.7l-25.6-27.4z"/><circle r="1" fill="#7b817c" fill-opacity=".3" transform="rotate(145.5 -2.5 103.3) scale(10.55123 17.04648)"/><path fill="#040304" fill-opacity=".5" d="M159 145l-4 35-62 14z"/><path fill="#ccc4d2" fill-opacity=".2" d="M82.1 159.2l-6.9-9.9 26.3-44.6-10.4 49.9z"/><ellipse cx="134" cy="114" fill="#ae9178" fill-opacity=".7" rx="4" ry="7"/><path fill="#e8f0ef" fill-opacity=".6" d="M7.3 181.1L-16 217.4l30.8-115.1-30.8 47.2z"/><path fill="#2e3c43" fill-opacity=".3" d="M172 179l-54 6 60 86z"/><path fill="#fff" fill-opacity=".6" d="M169 110h1v33h-1z"/><ellipse cx="60" cy="106" fill="#bc8874" fill-opacity=".6" rx="10" ry="13"/><circle r="1" fill="#ffc085" fill-opacity=".2" transform="matrix(-.63616 -10.39557 9.45287 -.57847 108 48.5)"/><path fill="#b28b7c" fill-opacity=".6" d="M5.2 271l21.5-61.3 4.9 50.8 43.6 9.3z"/><path fill="#211f24" fill-opacity=".6" d="M83.8 183.7l-30.1-53.3L87.3 164l61.4-96.1z"/><path fill="#fff" fill-opacity=".4" d="M185 108v17l-36-16z"/></g></svg>