<svg xmlns="http://www.w3.org/2000/svg" viewBox="0 0 300 199"><defs/><path fill="#323f5f" d="M0 0h300v199H0z"/><g transform="translate(.6 .6) scale(1.17188)"><circle r="1" fill="#ffffe1" fill-opacity=".7" transform="matrix(177.54396 0 0 40.28406 165.2 16.9)"/><ellipse cx="115" cy="159" fill="#f9eede" fill-opacity=".7" rx="19" ry="91"/><ellipse cx="207" cy="169" fill="#c69780" fill-opacity=".8" rx="16" ry="136"/><ellipse cx="16" cy="76" fill="#9ea06f" fill-opacity=".7" rx="26" ry="83"/><circle r="1" fill="#012500" fill-opacity=".6" transform="matrix(55.4569 2.80933 -.57088 11.26931 110.7 4.8)"/><circle r="1" fill="#f7f6f5" fill-opacity=".9" transform="rotate(-134.8 121.3 -40.1) scale(160.41784 22.5917)"/><circle r="1" fill="#3b0f00" fill-opacity=".6" transform="rotate(-162 49.7 53.6) scale(19.49125 60.09487)"/><path fill="#fff8ea" fill-opacity=".5" d="M74 18h34v51H74z"/><path fill="#6b5d3a" fill-opacity=".6" d="M0 45h96v28H0z"/><circle r="1" fill="#fff" fill-opacity=".7" transform="matrix(-40.7282 11.10763 -3.74138 -13.71846 184.1 23.2)"/><ellipse cx="255" cy="156" fill="#fff7a8" fill-opacity=".5" rx="9" ry="109"/><path fill="#fff" fill-opacity=".5" d="M141 28L31 9 21 52z"/><path fill="#140000" fill-opacity=".4" d="M228 165L215 18l37 67z"/><ellipse cx="169" cy="67" fill="#8b7d74" fill-opacity=".8" rx="11" ry="36"/><path fill="#eadab4" fill-opacity=".7" d="M38.5 105l-54.5 3.8v21.1l53.2-2.9z"/><path fill="#ffebae" fill-opacity=".5" d="M151 120h9v50h-9z"/><ellipse cx="125" cy="70" fill="#866146" fill-opacity=".5" rx="19" ry="36"/><path fill="#61522b" fill-opacity=".8" d="M57.4 200.2L-6 192.4l6.7-54.6 63.5 7.8z"/><circle r="1" fill="#d2d8d9" fill-opacity=".4" transform="rotate(-93.9 130.3 25.2) scale(49.7154 24.41928)"/><circle r="1" fill="#5a3100" fill-opacity=".3" transform="matrix(8.90005 -45.091 35.19424 6.94663 164 119)"/><path fill="#0d1312" fill-opacity=".7" d="M36.9 84.4L38 69.8l20.1 26.8-17 57.5z"/><path fill="#ffdbc3" fill-opacity=".4" d="M236.4 173.3l-25 1.3-1.8-34 25-1.2z"/><path fill="#27401f" fill-opacity=".8" d="M16.6 38.6l-3.3 46.9-29.9-2.1 3.3-46.9z"/><path fill="#47170a" fill-opacity=".6" d="M203 30.3l7.7 11.8-11.8 7.6-7.6-11.8z"/><path fill="#695143" fill-opacity=".9" d="M47.7 45.7l9.2 35.6L74 36.6h.5z"/><path fill="#fcf1ef" fill-opacity=".4" d="M11.6 60.9l8.7 6.9 31-1.5-27.7 22.3z"/><path fill="#415e39" fill-opacity=".4" d="M3-3l141 29 36-41z"/><path fill="#fff" fill-opacity=".7" d="M174 51l18-67 3 73z"/><path fill="#fffff9" fill-opacity=".4" d="M77.2-1L125 87.3 90 62.6l7.3-3.9z"/><path fill="#002f1b" fill-opacity=".4" d="M6.3 2.7l18 33.3-11.4-10.5 27.7-2.3z"/><ellipse cx="188" cy="144" fill="#7d593c" fill-opacity=".4" rx="21" ry="87"/><path fill="#000702" fill-opacity=".5" d="M162.6 128.6l-29.1-54.7 15.9-8.5 29.1 54.7z"/><path fill="#250000" fill-opacity=".5" d="M101 100L82 42 68 183z"/><circle r="1" fill="#201e29" fill-opacity=".7" transform="rotate(-152.7 124.4 8.5) scale(10.93273 25.62359)"/><path fill="#f2f4f4" fill-opacity=".8" d="M244.9 53.5L171.3-16h90.9l8.8 163.1z"/><path fill="#fff" fill-opacity=".5" d="M138 32h24v23h-24z"/><path fill="#fff2ee" fill-opacity=".4" d="M210 93h10v52h-10z"/><path fill="#97ac97" fill-opacity=".7" d="M-3.4 22.2l60.8 23.4-30 12.8-37.7-37z"/><path fill="#ab9d98" fill-opacity=".7" d="M112.9 79.2l-20.6 43.1 40.2-43L144 98.7z"/><ellipse cx="112" cy="55" fill="#2c1e11" fill-opacity=".9" rx="4" ry="11"/><path fill="#001300" fill-opacity=".4" d="M64 13l-18-1L34-7z"/><path fill="#fff" fill-opacity=".5" d="M47 20h78v20H47z"/><path fill="#4b5620" fill-opacity=".5" d="M250.9 114.5L224 143.1l2.2 13 44.8-30.4z"/><path fill="#f1f5f5" fill-opacity=".6" d="M73 9l25 6-23 43z"/><path fill="#feded0" fill-opacity=".3" d="M162.4 185l-12.8-57.8 6.8-14.2 6.1 33.9z"/><path fill="#bbbbc8" fill-opacity=".5" d="M174.8 54.8l-10 34.6-7.6-2.2 10-34.6z"/><path fill="#000008" fill-opacity=".5" d="M151 129l-26-42 23 96z"/><path fill="#2d2d31" fill-opacity=".7" d="M143.9 81.1l-21.8 2.7 44.7-32.2 6.3 2.4z"/><path fill="#220b05" fill-opacity=".4" d="M231.7 82.2L250.3 185 209.4 75 172 100.9z"/><path fill="#eff5f1" fill-opacity=".7" d="M193-16l-33.4 44.5-12-28.1L193.1 47z"/><path fill="#160000" fill-opacity=".4" d="M97 52L87 42 76 55z"/><path fill="#8e3e26" fill-opacity=".4" d="M218 28h13v27h-13z"/><path fill="#340800" fill-opacity=".5" d="M137.3 113.4L128 92.3l-61 10.9 7.3-37.3z"/><path fill="#2e4c20" fill-opacity=".7" d="M144 29l-3-45-21 14z"/><path fill="#f6f6f5" fill-opacity=".8" d="M233.3-3.4L207 52.9l11.2 13.4L197.5-16z"/><circle cx="131" cy="39" r="7" fill="#63351f" fill-opacity=".6"/><circle r="1" fill="#3f6e34" fill-opacity=".6" transform="matrix(.87658 -3.20338 3.70896 1.01493 166.2 16.6)"/><path fill="#d8cdbe" fill-opacity=".6" d="M176.9 163.1l-2 .3-5.8-36.5 2-.3z"/><path fill="#926959" fill-opacity=".9" d="M207.6 52.5l-11.5 21.8-8.5 5L204 34.7z"/><path fill="#283c1f" fill-opacity=".7" d="M39.7 10.8L98.5-.5l14.1 27.4.3-39.1z"/><path fill="#dce6e3" fill-opacity=".6" d="M13.1 28.6L-8 34.5l18.8-18.6 7.2-4.4z"/><path fill="#feffff" fill-opacity=".4" d="M28-7l25 24-7 33z"/><path fill="#16421b" fill-opacity=".4" d="M-16 50l57.7 22.3-.3-10.8-44.5-24.2z"/><path fill="#edeae2" fill-opacity=".5" d="M136 49l-9-42 24 38z"/><path fill="#e6d6d5" fill-opacity=".5" d="M36 70l-1 18-24-18z"/></g></svg>