<svg xmlns="http://www.w3.org/2000/svg" viewBox="0 0 300 199"><defs/><path fill="#526239" d="M0 0h300v199H0z"/><g transform="translate(.6 .6) scale(1.17188)"><circle r="1" fill="#200704" fill-opacity=".9" transform="matrix(-31.63412 -114.03485 62.83974 -17.43221 217.1 118.4)"/><circle cx="27" cy="117" r="152" fill="#55211e" fill-opacity=".6"/><circle r="1" fill="#908078" fill-opacity=".5" transform="rotate(165.7 34 64.4) scale(78.2897 18.81585)"/><circle r="1" fill-opacity=".9" transform="matrix(-1.65898 -16.34694 59.88639 -6.0776 32.4 169)"/><path fill="#a54704" fill-opacity=".5" d="M249.6 20.3L131 28.6l-2.5-36.9L247-16.6z"/><circle r="1" fill="#0c0402" fill-opacity=".5" transform="matrix(-1.82192 -11.63451 76.64846 -12.00283 38.6 63)"/><path fill="#f69321" fill-opacity=".6" d="M18 0h16v27H18z"/><path fill="#7f9882" fill-opacity=".5" d="M126 83L45 73l15 31z"/><path fill="#73d0e4" fill-opacity=".5" d="M110 37l24 24-8-23z"/><circle r="1" fill="#00130e" fill-opacity=".4" transform="matrix(-.1005 28.792 -52.50276 -.18327 159.3 66.5)"/><path fill="#1a0200" fill-opacity=".6" d="M132.7 34.6L93 40.2l-3.8-26.8L129 7.8z"/><circle r="1" fill="#000203" fill-opacity=".8" transform="matrix(32.38916 -2.56173 7.28845 92.15118 255 155.3)"/><circle r="1" fill="#74270d" fill-opacity=".5" transform="rotate(-156.5 99.7 40.7) scale(21.61794 37.63119)"/><path fill="#91b3ff" fill-opacity=".4" d="M149.6 39.3l-1.1-12.6 4.7-5.3 17.1 5.3z"/><path fill="#879aa0" fill-opacity=".6" d="M4.3 92.8L23 89.5l2.7 15.7L7 108.5z"/><ellipse cx="12" cy="57" fill="#3a0600" fill-opacity=".6" rx="22" ry="34"/><ellipse cx="81" cy="30" fill="#b34f10" fill-opacity=".5" rx="12" ry="24"/><circle r="1" fill="#a99c8a" fill-opacity=".4" transform="matrix(-71.31716 13.76492 -1.3224 -6.85142 31.6 132.3)"/><path fill="#341000" fill-opacity=".4" d="M14.9 103.4l95.4-7.2-57.9 22.5-35.7 7.6z"/><path fill="#4c0b01" fill-opacity=".5" d="M99 120h79v33H99z"/><path fill-opacity=".4" d="M166 9h31v69h-31z"/><path fill="#ffca75" fill-opacity=".6" d="M47 71h9v12h-9z"/><path fill="#4be5ff" fill-opacity=".1" d="M101.3 32.4L150.8 66 102 109.3 137.2 29z"/><path fill="#cdedff" fill-opacity=".2" d="M115.2 110.7l6 8.7 71-15.8-15-6.1z"/><ellipse cx="128" cy="169" fill="#9b433f" fill-opacity=".5" rx="30" ry="17"/><path fill="#240a04" fill-opacity=".7" d="M223.3 25.7l30.1-7.1-16.5 62.9-7.4-79.3z"/><ellipse cx="61" cy="11" fill="#2d1700" fill-opacity=".6" rx="9" ry="39"/><path fill="#813006" fill-opacity=".7" d="M16.9-16l4.8 75.6 18-35.3L-16 28z"/><path fill="#ddffba" fill-opacity=".3" d="M226.3 14.6l20.1-3L223.3-16h37.4z"/><path fill="#222c1f" fill-opacity=".7" d="M93.7 16.2l16.2 67.7 69.7-.5-24.4 24.5z"/><path fill="#fff" fill-opacity=".2" d="M63.8 135.9l25-10.1 3.4 8.3-25 10.1z"/><path fill="#5b2413" fill-opacity=".6" d="M158.1 175.4l-71.7-73.9L104.5 83l2.5 27.7z"/><path fill="#664027" d="M76.5 148.8l-24.4-16.4-13 7L-16 156z"/><circle r="1" fill="#000203" fill-opacity=".5" transform="matrix(66.70186 45.84292 -8.70892 12.67155 215 82.6)"/><path fill="#ae4d00" fill-opacity=".5" d="M191-9L117 3l39 17z"/><path fill="#5d1d09" fill-opacity=".6" d="M159.7 87.8l-11.3-30.1 78.4 61.7-23.5 8z"/><path fill="#203226" fill-opacity=".6" d="M34 53l32 29 38-10z"/><path fill-opacity=".5" d="M233 135l-52 9-35 36z"/><circle r="1" fill="#2a0600" fill-opacity=".6" transform="matrix(45.08228 -1.95983 .2206 5.07441 95.5 0)"/><path fill="#87a69d" fill-opacity=".5" d="M121.2 99.6l-.4-8 24-1.2.4 8z"/><path fill="#88726c" fill-opacity=".6" d="M250 16h4v34h-4z"/><path fill="#140e08" fill-opacity=".7" d="M29.9 105.1L8.3 115.2l21.7 6.5 6.4-3.2z"/><path fill="#5baea3" fill-opacity=".5" d="M125 40h5v27h-5z"/><path fill="#a0afb4" fill-opacity=".6" d="M144.7 103.9l-3.4 5-7.4 4.2-24.1-.2z"/><path fill="#000700" fill-opacity=".5" d="M67 88h12v6H67z"/><path fill="#804f35" fill-opacity=".5" d="M40 73l69 60-47-16z"/><path fill="#684c21" fill-opacity=".5" d="M51.9 60.2l-14.5-4L48.2-16 60 54.9z"/><path fill="#385a10" fill-opacity=".4" d="M110.8 83.8l20.1-38.6-12.8 1.7-49.4 30.5z"/><circle r="1" fill="#572100" fill-opacity=".5" transform="matrix(20.79806 -22.70686 6.95517 6.3705 200 169)"/><path fill="#292006" fill-opacity=".6" d="M139.8 100.5l-27.2 1.4 5.9 6.1 13.2-1.8z"/><path fill="#162643" fill-opacity=".7" d="M60 57L22.4 71.6l12.1 4.8 24.3-6.5z"/><path fill="#6a3f17" fill-opacity=".6" d="M188.6 25.5l-3.1-35.9 35.9-3.1 3.1 35.9z"/><path fill="#fff1c1" fill-opacity=".8" d="M16.2 6.5l-.2-1 7.8-2 .2 1z"/><path fill="#8bd0d4" fill-opacity=".5" d="M65.3 88l-.7-3 28.1-7 .7 3z"/><circle r="1" fill="#fec941" fill-opacity=".6" transform="matrix(-5.0356 .90516 -.7554 -4.20242 27.7 18)"/><path fill="#7b98a3" fill-opacity=".5" d="M133.8 60.7L129.1 45l-18.6.2-.1-15z"/><path fill="#3c0f00" fill-opacity=".6" d="M38.5-8.5l1.9 44-56.4.4L33.6 44z"/><path fill="#030300" fill-opacity=".6" d="M12.2 65.1L-.6 62l5.7-24.3.7-2.4z"/><circle r="1" fill="#0f171c" fill-opacity=".5" transform="matrix(-7.5638 6.99872 -13.01418 -14.06497 149.1 84.2)"/><path fill="#793320" fill-opacity=".4" d="M115 134l28-26 49-7z"/><path fill="#0a0704" fill-opacity=".6" d="M263 110l-65-1 17-57z"/><path fill="#a1e7ff" fill-opacity=".2" d="M117 111.3l-.5-18.2-5.3-11.4-8.1 28.6z"/><path fill="#451107" fill-opacity=".6" d="M134.7 126.6l-52 56.4L93 147.8l69.9-8.1z"/><path fill="#120b00" fill-opacity=".3" d="M63.7 130.2l-53.1 18.6 9.6.8 26.9-6.3z"/><ellipse cx="157" cy="26" fill="#b7d9ff" fill-opacity=".5" rx="5" ry="4"/></g></svg>