<svg xmlns="http://www.w3.org/2000/svg" viewBox="0 0 300 199"><defs/><path fill="#2c455a" d="M0 0h300v199H0z"/><g transform="translate(.6 .6) scale(1.17188)"><circle r="1" fill="#cfaf98" fill-opacity=".9" transform="rotate(-85.8 69 19.8) scale(87.93295 176.33596)"/><ellipse cx="191" cy="135" fill="#201c1d" rx="52" ry="18"/><path fill="#dac9ba" fill-opacity=".7" d="M241 65l30 69L78 67z"/><circle r="1" fill="#f3ead8" fill-opacity=".7" transform="rotate(-139.9 20.6 -7.5) scale(48.02721 118.30395)"/><circle r="1" fill="#6b2701" fill-opacity=".4" transform="matrix(-89.65053 18.40261 -5.48354 -26.71372 166.3 19.1)"/><circle r="1" fill="#ad826e" transform="rotate(104.4 8.1 137.1) scale(22.315 29.16544)"/><path fill="#ffe4a9" fill-opacity=".5" d="M207.4 173.8l-8.9-24.5 14.1-5 8.9 24.4z"/><circle r="1" fill="#040000" fill-opacity=".5" transform="matrix(-11.07346 11.23557 -39.843 -39.26816 235.2 150.7)"/><path fill="#a4725a" fill-opacity=".8" d="M111 99L59 74l56-90z"/><circle cx="156" cy="96" r="29" fill="#dde1ec" fill-opacity=".5"/><ellipse cx="2" cy="36" fill="#feffff" fill-opacity=".7" rx="25" ry="39"/><circle r="1" fill="#120c0d" fill-opacity=".9" transform="rotate(57.9 -55.8 252.4) scale(25.12508 14.26206)"/><circle r="1" fill="#747453" fill-opacity=".5" transform="matrix(-24.59325 -93.08171 10.57397 -2.79376 242.8 66.5)"/><circle r="1" fill="#a9563e" fill-opacity=".5" transform="matrix(23.32269 27.8347 -9.783 8.19718 82 135.7)"/><path fill="#342620" fill-opacity=".9" d="M174 42.9l46.1.9L160.8-16 112 1.2z"/><path fill="#ece2d2" fill-opacity=".5" d="M206 53l-50 48 37-72z"/><ellipse cy="141" fill="#e6e4be" fill-opacity=".5" rx="60" ry="23"/><path fill="#fcf7d6" fill-opacity=".4" d="M107 42h31v26h-31z"/><path fill="#8a8176" fill-opacity=".5" d="M201-1l16 51 48-19z"/><circle r="1" fill="#d4bc9c" fill-opacity=".7" transform="matrix(-12.74654 95.76595 -20.48001 -2.72591 53.3 33.8)"/><path fill="#020602" fill-opacity=".7" d="M117 20l34-9-31-27z"/><path fill="#813a1e" fill-opacity=".3" d="M118 151l38 2-45-80z"/><path fill="#251100" fill-opacity=".6" d="M207.1 55.7L239 41.2l-1.1 25.3-36.1-3.3z"/><path fill="#0d8381" fill-opacity=".7" d="M238.4 33.9L236 72.3l35 5.2-10.9-36.2z"/><circle r="1" fill="#110200" fill-opacity=".5" transform="matrix(-30.61275 34.90887 -20.12142 -17.64514 255 153.3)"/><path fill="#b27863" fill-opacity=".7" d="M160 14.1l11.1 55.1-47.4-16.1 24.3-24z"/><path fill="#d6d6d9" fill-opacity=".6" d="M248 73l-72-20-29 37z"/><ellipse cx="195" cy="130" fill="#0f0f11" fill-opacity=".8" rx="29" ry="16"/><path fill="#c5a37e" fill-opacity=".6" d="M271 75l-82 12 33 38z"/><path fill="#e5f2f4" fill-opacity=".5" d="M137 30l2-14-27 10z"/><path fill="#cebba7" fill-opacity=".7" d="M99.6 29.1l-30 2.6L66.5-5l30-2.6z"/><circle r="1" fill="#0b0100" fill-opacity=".8" transform="matrix(5.52143 -1.50014 6.73621 24.79339 207.5 36.8)"/><path fill="#100300" fill-opacity=".4" d="M103 30l32 11H95z"/><path fill="#957162" fill-opacity=".6" d="M254.4 1.9L187.5-16l-5.9 30.1 25.3-4.4z"/><circle cx="136" cy="167" r="13" fill="#f2e4d9" fill-opacity=".5"/><path fill="#7c6020" fill-opacity=".4" d="M16 161h61v7H16z"/><path fill="#f6d4d4" fill-opacity=".4" d="M56.9 98.1l29.7 12.1 13.2 18.3L104 86z"/><path fill="#d4d3d5" fill-opacity=".7" d="M205 115.6l-5.2-8.6-7.5-42.7-50.5 45z"/><circle cx="133" cy="76" r="20" fill="#d6d1ce" fill-opacity=".7"/><ellipse cx="18" cy="86" fill="#d7c4a4" fill-opacity=".8" rx="19" ry="16"/><path fill="#191217" fill-opacity=".4" d="M194.5-7.8L250 24l-25.9 6.1-.5-23.9z"/><path fill="#593325" fill-opacity=".7" d="M99 0h5v46h-5z"/><path fill="#6a3524" fill-opacity=".4" d="M271.2 89.7L259 102.8l-24.1-22.5L247 67.2z"/><path fill="#dbc8ae" fill-opacity=".5" d="M194 147h21v6h-21z"/><path fill="#f8e4c9" fill-opacity=".4" d="M234.1 40.8l-20.3 10.4 21.3-25.3 1.3-.1z"/><path fill="#ffe6b6" fill-opacity=".4" d="M254 130h2v40h-2z"/><path fill="#231a15" fill-opacity=".9" d="M167.7-13.6l-20.8 45.4-27.2-43.6 69.1 40.9z"/><path fill="#431a00" fill-opacity=".4" d="M114.5 148.4l24.5-2.3-19.7 17.6-1.7-.3z"/><path fill="#755309" fill-opacity=".4" d="M3 103.3l33.7 10.4-15 6.3.8-2.8z"/><path fill="#ac6655" fill-opacity=".5" d="M149-3l29 34-18-7z"/><path fill="#d2c2a4" fill-opacity=".6" d="M232.5 124.2l-23.7-23 18.7-19.4 23.7 23z"/><path fill="#d0bb99" fill-opacity=".6" d="M112 41h27v20h-27z"/><path fill="#715330" fill-opacity=".4" d="M68.6 64.6l41.7-26.8-19.9-6.7L68 41z"/><path fill="#e5967b" fill-opacity=".5" d="M116-2L96-16l17 47z"/><path fill="#040000" fill-opacity=".5" d="M165 27h20v15h-20z"/><path fill="#151212" fill-opacity=".5" d="M186.3 160.4l24.9-50.6-77.5 22.9-17.8-5.3z"/><path fill="#977759" fill-opacity=".7" d="M243.1 121.5l25.7-89.4L251 129l-50.5-12.1z"/><path fill="#ccd0c6" fill-opacity=".8" d="M25 213.2l-22.5 4.7L-25 89l22.5-5z"/><path fill="#a2584b" fill-opacity=".5" d="M140 51l28-5-4 26z"/><path fill="#bf8260" fill-opacity=".5" d="M44 103h39v26H44z"/><path fill="#917e65" fill-opacity=".4" d="M197 107l2-25 31 38z"/><path fill="#ceb18d" fill-opacity=".6" d="M168.2 42.9l38.2 4.8-6.6 14.5-33.3-12.6z"/><path fill="#1f0a00" fill-opacity=".3" d="M250.1 71.6l-67.7-41L206.1 47l-8.3 13.8z"/><path fill="#e4c9c0" fill-opacity=".6" d="M102.2 171.6l2.3 13.4 13-38.2-4.8-6.8z"/><ellipse cx="138" cy="122" fill="#af9d9c" fill-opacity=".5" rx="22" ry="6"/></g></svg>