<svg xmlns="http://www.w3.org/2000/svg" viewBox="0 0 300 199"><defs/><path fill="#664d41" d="M0 0h300v199H0z"/><g transform="translate(.6 .6) scale(1.17188)"><circle r="1" fill="#ddd6da" fill-opacity=".6" transform="rotate(77.2 -44.1 110.1) scale(44.72005 83.97145)"/><circle r="1" fill="#cfd7c8" fill-opacity=".5" transform="matrix(17.77442 -34.29033 23.96499 12.42227 226.3 102.8)"/><path fill-opacity=".9" d="M-13.7 107.1l-19.7-101 47.1-9.2 19.7 101z"/><path fill="#0a1d2e" fill-opacity=".6" d="M218-16L58 5l102 93z"/><path fill="#ffdede" fill-opacity=".5" d="M29 56h21v101H29z"/><path fill="#000d06" fill-opacity=".7" d="M213.2 63.2l11.2-70.1L272.8.8l-11.2 70.1z"/><path fill="#cff0f7" fill-opacity=".6" d="M167 92h16v44h-16z"/><path fill="#e8f9d2" fill-opacity=".5" d="M221.7 33.8l-38 43.2 11.9-46.5 24-9.4z"/><circle r="1" fill="#826257" fill-opacity=".8" transform="matrix(46.9941 113.1756 -9.1131 3.78405 65 76.9)"/><path fill="#080a0e" fill-opacity=".9" d="M194.8 75l2.2 81-13.7-35.1-3.9-48.5z"/><ellipse cx="158" cy="79" fill="#020509" fill-opacity=".8" rx="8" ry="66"/><ellipse cx="111" cy="50" fill="#3a414a" fill-opacity=".8" rx="41" ry="36"/><path fill="#a3bebf" fill-opacity=".6" d="M123 78h29v81h-29z"/><circle r="1" fill="#010507" fill-opacity=".8" transform="matrix(14.41244 22.0494 -28.54407 18.65764 194 0)"/><path fill="#e19c67" fill-opacity=".6" d="M252.3 97.7l-69-26.6 6.4-16.8 69 26.6z"/><ellipse cx="7" cy="123" fill="#e5cbcf" fill-opacity=".6" rx="74" ry="16"/><ellipse cx="160" cy="162" fill="#667b79" fill-opacity=".6" rx="77" ry="16"/><path fill="#8e6255" fill-opacity=".6" d="M22-14l73 99-40 38z"/><path fill="#001212" fill-opacity=".5" d="M256 129.9l2.5 19.8-68.5 8.4-2.5-19.8z"/><path fill="#fdfff3" fill-opacity=".5" d="M199.3 38.4l-1.8-20.8 30.9 17-7.7-.4z"/><path fill="#fff5f6" fill-opacity=".5" d="M31.7 75.2L2.4-62.8l2-.4 29.2 138z"/><path fill="#cee0db" fill-opacity=".6" d="M109.8 93.6l10.7 42.7-24.3 6-10.7-42.6z"/><path fill="#260903" fill-opacity=".5" d="M55.8 112.4l-3.2-.3 4.3 19 17.4 29.8z"/><path fill-opacity=".5" d="M83 0h9v86h-9z"/><ellipse cx="157" cy="143" fill="#020c0d" fill-opacity=".7" rx="13" ry="6"/><path fill="#dbc4bc" fill-opacity=".7" d="M35.7 25.3L36 46 27.1 1.8l7-11.6z"/><path fill="#080a00" fill-opacity=".7" d="M198 46l55 21 18-42z"/><path fill="#593d32" fill-opacity=".6" d="M96.2 151.7l-9.8 2-16.6-85.4 9.8-2z"/><path fill="#dfeae6" fill-opacity=".6" d="M58.1 111.2l12.5-6.3L88 138.8 75.4 145z"/><path fill-opacity=".5" d="M120 120l-7-21 7-3z"/><ellipse cx="172" cy="159" fill="#7d857f" fill-opacity=".8" rx="19" ry="17"/><path fill="#525866" fill-opacity=".6" d="M105.9-14.3l-.7 51.9 62-46.8L149.8 50z"/><path fill-opacity=".5" d="M197 30l-47 37 31-79z"/><path fill="#0b1915" fill-opacity=".5" d="M18.2 106.2L15 86.5l16.8-2.7 3.2 19.7z"/><circle r="1" fill="#daaab1" fill-opacity=".5" transform="matrix(-49.85824 12.06198 -9.03035 -37.32699 19.1 169)"/><path fill="#7c98a3" fill-opacity=".4" d="M198 92h53v45h-53z"/><circle r="1" fill="#bdc8c8" fill-opacity=".6" transform="matrix(5.00573 -14.1441 6.26227 2.21628 171 119.6)"/><path fill="#2b372e" fill-opacity=".7" d="M254.5 31.1L231.4-8.8l-28.1 36.3 18.3-3.2z"/><path fill="#4a4540" fill-opacity=".6" d="M136 185l-55-47 112 47z"/><path fill="#210000" fill-opacity=".5" d="M33.7 41.5l-8 1.4L18.4.5l8-1.4z"/><path fill="#f5e8e4" fill-opacity=".5" d="M39.6 68l.5 50.5-4.9-9.4-8.5-59.6z"/><path fill="#ffebf7" fill-opacity=".4" d="M132.6-.5l.9.6-24.1 34.4-.9-.6z"/><path fill-opacity=".6" d="M125 11l31-17-34 33z"/><path fill="#e4cacd" fill-opacity=".7" d="M46.3 102.6L-8.8 111l73.4 47.3-5-23.3z"/><path fill="#b5bfa7" fill-opacity=".8" d="M189.4 37.1l10.3 25.7 8.7-10.1-21-3.8z"/><path fill-opacity=".6" d="M198 119.8l-11 .4-1-32 11-.4z"/><path fill="#0d0c0a" fill-opacity=".7" d="M-16 116.6l44.5-19.8 3.2-12.3L26 48.7z"/><path fill="#94b7bd" fill-opacity=".4" d="M182 96l-10-22-7 16z"/><path fill="#83643c" fill-opacity=".5" d="M191 73l-25-6 34-28z"/><path fill="#0c0900" fill-opacity=".5" d="M70 155l10-6-14-4z"/><path fill="#f9fff1" fill-opacity=".6" d="M198.3 30.3l-10.6 17.8 29.3-27-7.8 22.9z"/><path fill="#c88168" fill-opacity=".4" d="M113.3 35.6L53.5-8l1.2-1.7L114.5 34z"/><ellipse cx="252" cy="82" fill="#d4a273" fill-opacity=".9" rx="19" ry="13"/><ellipse cx="171" cy="139" fill="#000106" fill-opacity=".5" rx="26" ry="3"/><path fill="#000407" fill-opacity=".5" d="M220.5 142.7l-21.7 18.1-19.4-40 16.9 19.4z"/><path fill="#a4b2b3" fill-opacity=".5" d="M199.3 88.6l29.4 22.2-34.9 19.7 5.2 11.7z"/><path fill="#3f4f5b" fill-opacity=".6" d="M82.1 87.7l72.1-8-1.4-9.3-12-39.6z"/><path fill="#7e7867" fill-opacity=".5" d="M112 118h31v11h-31z"/><circle r="1" fill="#795244" fill-opacity=".6" transform="rotate(76.5 7.8 53.5) scale(67.4771 17.23058)"/><path fill="#56564b" fill-opacity=".4" d="M271 140.6l-18.2 6.5 9.1-46.7-61.9 38.9z"/><path fill="#9db4b8" fill-opacity=".5" d="M91 84h60v13H91z"/><path fill="#c89186" fill-opacity=".5" d="M38.1 102.7l19.3 12.7-.2-31.3-19.9-34.5z"/><path fill="#62343c" fill-opacity=".5" d="M21 139l3 6-24 2z"/><path fill="#d9e9dd" fill-opacity=".2" d="M113.9 157.9L90.2 125l45 4 14.4 24.6z"/><path fill="#2d0600" fill-opacity=".5" d="M97 141l-21-28 7-8z"/></g></svg>