<svg xmlns="http://www.w3.org/2000/svg" viewBox="0 0 300 199"><defs/><path fill="#5a3c34" d="M0 0h300v199H0z"/><g transform="translate(.6 .6) scale(1.17188)"><circle r="1" fill="#c4d0da" fill-opacity=".6" transform="matrix(99.17304 1.47394 -1.01126 68.04212 177.4 116.1)"/><circle r="1" fill="#bca" fill-opacity=".5" transform="rotate(-49.8 163.7 45.1) scale(44.44126 34.29591)"/><ellipse cx="129" cy="64" fill="#6b635e" rx="17" ry="107"/><circle r="1" fill="#cfe5f7" fill-opacity=".5" transform="matrix(22.95286 2.67103 -4.3046 36.99059 105.5 112.7)"/><circle r="1" fill="#f4dbc4" fill-opacity=".4" transform="matrix(9.60711 1.68141 -13.0057 74.31083 205.8 63.8)"/><path fill="#3a1019" fill-opacity=".6" d="M268 143l-50-5-3-36z"/><path fill="#efffff" fill-opacity=".6" d="M51.8-3L22 13.5 16.2 3 46-13.5z"/><circle r="1" fill="#cfd1d6" fill-opacity=".5" transform="rotate(-40.9 244.6 -195.7) scale(63.18514 20.65011)"/><circle r="1" fill="#6e5440" fill-opacity=".5" transform="matrix(-1.5545 11.20265 -65.45504 -9.08264 171.8 53.8)"/><path fill="#d7f3e2" fill-opacity=".6" d="M121 9l-11-25L87 0z"/><path fill="#020708" fill-opacity=".7" d="M130.4 139.3l.4 40.2-2.8-5.5-16.2-39.7z"/><circle r="1" fill="#310900" fill-opacity=".5" transform="matrix(19.0052 11.32938 -19.99521 33.54228 247.4 31.9)"/><circle r="1" fill="#053612" fill-opacity=".5" transform="rotate(106.1 28.8 42.8) scale(21.35661 42.15604)"/><path fill="#02220f" fill-opacity=".4" d="M120 87l82-103 6 43z"/><path fill="#e0f1ff" fill-opacity=".3" d="M160.2 36.4l22.8 99.2-1.3-58.2 1.1-25.2z"/><path fill="#000003" fill-opacity=".5" d="M97.3 168.4l-15.7 2.8-5-27.6 15.8-2.8z"/><circle r="1" fill="#2a5236" fill-opacity=".5" transform="matrix(19.85086 -25.25299 49.24367 38.70945 27.9 73.4)"/><circle r="1" fill="#2a2223" fill-opacity=".6" transform="matrix(8.62936 -3.74728 9.48476 21.84178 136.6 97.2)"/><path fill="#cfafa9" fill-opacity=".5" d="M153 30l-33 21-8 37z"/><path fill="#5a6147" d="M186.5 85.8l12.1-8.1-3.5-17.6-9.8-18.3z"/><path fill="#c3ccd3" fill-opacity=".7" d="M82.5 122.9l1.1-32.8 37.8 94.9-13.1-5.7z"/><path fill="#875244" fill-opacity=".5" d="M181 134h28v36h-28z"/><path fill="#baa7a2" fill-opacity=".6" d="M197.7 59.1L209.3 185l7.6-173.3-29 38.6z"/><ellipse cx="74" cy="105" fill="#1a2633" fill-opacity=".7" rx="7" ry="46"/><path fill="#654538" fill-opacity=".7" d="M147.8 100.4l26.5 1.8-8.6 10.3-22.8-3.3z"/><circle r="1" fill="#909fb0" fill-opacity=".7" transform="matrix(3.20637 21.9789 -9.59779 1.40017 244.1 157.7)"/><circle r="1" fill="#61726c" fill-opacity=".6" transform="matrix(21.42039 24.15424 -10.4116 9.23318 9 10.2)"/><circle r="1" fill="#6e7445" fill-opacity=".6" transform="matrix(4.70631 12.0091 -34.66579 13.58537 35.9 99.4)"/><path fill="#192818" fill-opacity=".5" d="M164 67l-27-46 29-11z"/><path fill="#cfd3d7" fill-opacity=".8" d="M186.1 117.9l-15 9.2 47.4 8.5-7.9-21.6z"/><path fill="#bde6d7" fill-opacity=".5" d="M132.2 1.2l16 .6-.4 11-16-.6z"/><path fill="#fff7dd" fill-opacity=".3" d="M120.9 27.7L89.6 136.5l-12.3 13.7-2.2-3.5z"/><path fill="#b5c1d8" fill-opacity=".6" d="M145.9 73.9l35.3-10.8-9.2 36.7-38.6-40.6z"/><ellipse cx="22" cy="77" fill="#010" fill-opacity=".6" rx="9" ry="12"/><circle r="1" fill="#d5bdba" fill-opacity=".5" transform="matrix(-31.25247 2.23042 -1.17711 -16.4936 230.8 81.9)"/><path fill="#6d685b" fill-opacity=".7" d="M43.1 57.9L32.8 68.8l31.1 1.8 25.4-18.7z"/><ellipse cx="116" cy="116" fill="#909cae" fill-opacity=".6" rx="15" ry="21"/><path fill="#012318" fill-opacity=".2" d="M271 156.2l-72.8-74.7 6.9 27.3-3.4-6.9z"/><path fill="#e5ebd5" fill-opacity=".3" d="M127 142l11.3-4 16.7 46-11.3 4z"/><path fill="#280000" fill-opacity=".5" d="M104 69l-28 6 38-48z"/><path fill="#484c35" d="M66.5 59.3L61 45.1l44-16.6.3-34.2z"/><circle cx="52" cy="169" r="11" fill="#937f7f" fill-opacity=".7"/><path fill="#74bf9d" fill-opacity=".4" d="M159.7 5.8l6.9-18.8 19.7 7.2-6.9 18.8z"/><circle r="1" fill="#ac5e32" fill-opacity=".4" transform="matrix(8.1549 .41311 -2.44729 48.31015 225.6 18)"/><path fill="#818fad" fill-opacity=".6" d="M152.6 130.1L140.1 185l33.6-6.8-1.1-54.1z"/><path fill="#aba296" fill-opacity=".3" d="M28 160l-41-26 91-25z"/><path fill="#001318" fill-opacity=".5" d="M87.6 192L70 148.2l20.4-8.2 17.6 43.6z"/><path fill="#293319" fill-opacity=".4" d="M89.5 63.9l38.3-74.8-.7 34.9 24.5-6.3z"/><path fill="#eefff9" fill-opacity=".5" d="M43.8 10.6L27.4-16 20.9 8.9l24-8.8z"/><path fill="#f3f7f5" fill-opacity=".5" d="M109.3 77.3L90.6 98l-6-5.4L103.5 72z"/><path fill="#b25412" fill-opacity=".5" d="M116 73l4-31-18 22z"/><path fill="#3b3e3a" fill-opacity=".4" d="M154.2 99.1L134.1 161l-3-41.8-6.1-35.7z"/><path fill="#31422c" fill-opacity=".8" d="M155.5-9.1l35.9 59.6-28.7-12.8L134.8-16z"/><path fill="#8b6361" fill-opacity=".5" d="M138 30h15v73h-15z"/><path fill="#0c1e0c" fill-opacity=".5" d="M34 11h11v42H34z"/><path fill="#37493d" fill-opacity=".6" d="M78.8 185l3.1-78.7-23.2 20.1-4.7 32.4z"/><path fill="#011100" fill-opacity=".3" d="M187 29.6l4.9-45.6 16.8 8.2-2 44.4z"/><path fill="#e8ddd7" fill-opacity=".6" d="M186 86.6l-19.3 29.7 46.4-35.6 12.2-15.4z"/><path fill="#5b3026" fill-opacity=".5" d="M192.9 138.7l19.6 18.7-17.8-.7 8.5-22.6z"/><circle r="1" fill="#c1d2da" fill-opacity=".8" transform="matrix(6.82403 -1.4795 1.28383 5.92155 228 100.8)"/><path fill="#dde5ed" fill-opacity=".3" d="M141.8 138l11.1-33.9 3.5 17.5-24.1 63.4z"/><path fill="#ebf8ee" fill-opacity=".6" d="M125-16l-13 26-17-26z"/><path fill="#230000" fill-opacity=".3" d="M165.1 67.2l-27.4-21.1-2.1 12 31.2-2.7z"/><path fill="#cbd1d6" fill-opacity=".8" d="M82.8 147.4l-1-44.1 39.6-26.5-13.1-4.2z"/><path fill="#76666d" fill-opacity=".5" d="M237 159v-21l-34-6z"/></g></svg>