<svg xmlns="http://www.w3.org/2000/svg" viewBox="0 0 300 199"><defs/><path fill="#633e35" d="M0 0h300v199H0z"/><g transform="translate(.6 .6) scale(1.17188)"><circle r="1" fill="#c9e9f5" fill-opacity=".6" transform="matrix(142.48361 38.7949 -22.56983 82.89314 85 113.7)"/><circle r="1" fill="#eff" fill-opacity=".4" transform="matrix(-21.11925 20.39462 -54.18613 -56.11138 82.4 66.7)"/><circle cx="208" cy="88" r="76" fill="#686575" fill-opacity=".6"/><path fill="#a4dac2" fill-opacity=".5" d="M161 26l6-42L7-14z"/><circle r="1" fill="#000761" fill-opacity=".7" transform="matrix(-18.2479 -55.99849 11.32426 -3.69017 237 133.6)"/><circle r="1" fill="#cebdab" fill-opacity=".6" transform="matrix(30.50261 -9.62778 7.53785 23.88133 187.5 88.8)"/><circle r="1" fill="#012a95" fill-opacity=".9" transform="matrix(4.5789 17.20874 -25.0368 6.66178 247.1 39.7)"/><circle r="1" fill="#0b1e0e" fill-opacity=".9" transform="matrix(-11.31999 -15.7092 23.83565 -17.17589 0 14.7)"/><path fill="#030d1f" fill-opacity=".6" d="M135.7 86.3l-3.3-31.9 25.9-2.7 3.3 31.9z"/><ellipse cx="167" cy="138" fill="#552b00" fill-opacity=".4" rx="20" ry="30"/><ellipse cx="207" cy="163" fill="#afbec8" fill-opacity=".8" rx="26" ry="24"/><path fill="#4e3d28" fill-opacity=".6" d="M69.7 29l9.8-22 44.8 20-9.8 22z"/><circle r="1" fill="#d1e6ed" fill-opacity=".4" transform="matrix(22.06092 -40.2951 24.4413 13.38122 38.5 45.6)"/><circle r="1" fill="#cba178" fill-opacity=".6" transform="matrix(-19.34097 -21.48032 10.44078 -9.40092 245 79.9)"/><circle r="1" fill="#c7bfc5" fill-opacity=".6" transform="rotate(22.3 -305.2 400) scale(16.44197 65.42127)"/><circle cx="54" cy="169" r="58" fill="#5d6f76" fill-opacity=".3"/><path fill="#031100" fill-opacity=".5" d="M163.5 14.2L177 7.4l23.6 46.4-13.4 6.8z"/><circle r="1" fill="#a58c72" fill-opacity=".7" transform="matrix(12.32922 36.58658 -9.46637 3.19005 171.1 60.8)"/><path fill="#bf8c6c" fill-opacity=".5" d="M192 5h24v38h-24z"/><circle r="1" fill="#b6c0c6" fill-opacity=".8" transform="matrix(99.53565 35.09744 -8.57265 24.31187 40.4 75)"/><circle r="1" fill="#1a0a00" fill-opacity=".5" transform="matrix(-23.8926 30.80215 -9.1811 -7.1216 243.2 0)"/><path fill="#38414a" fill-opacity=".4" d="M88 95h11v75H88z"/><path fill="#e3e8f7" fill-opacity=".3" d="M217.3 75l-10.8-22.2 14.1 44.9-121.9.4z"/><path fill="#070503" fill-opacity=".4" d="M126 14.6l-7.9 5.1 42.1 28.1-11.8-33.5z"/><path fill="#8a6f53" fill-opacity=".7" d="M118 15L78 25 25-16z"/><circle r="1" fill="#e8f3f8" fill-opacity=".5" transform="matrix(3.75445 -9.1543 31.67379 12.99037 97.9 53)"/><ellipse cx="219" cy="88" fill="#00115d" fill-opacity=".5" rx="4" ry="49"/><path fill="#411d19" fill-opacity=".4" d="M183.1 108.8L162 140.2l-2.4 43.8-15.5-60.7z"/><path fill="#bbcdc0" fill-opacity=".7" d="M151.1 18.8l-9-14.2L80.3.9l86.3-4.6z"/><path fill="#b5b6ad" fill-opacity=".5" d="M192 57h22v71h-22z"/><path fill="#00115a" fill-opacity=".9" d="M237.1 133.2l-9.7 51.8 43.6-17-49.3-73.5z"/><path fill="#7d6254" d="M219.9 126.3l-47.2 8.6 54.4 7.3-8-18.1z"/><ellipse cx="184" cy="6" fill="#2c1a07" fill-opacity=".5" rx="6" ry="69"/><path fill="#af7648" fill-opacity=".6" d="M250 135l-21-52 40 27z"/><ellipse cx="29" cy="19" fill="#031c2c" fill-opacity=".6" rx="13" ry="2"/><path fill="#988b78" fill-opacity=".9" d="M178.2 146l-18.8-5.3 4.8 44.3 21.1-19.7z"/><path fill="#161e1c" fill-opacity=".5" d="M117.1-2.7l-12.5 21 8 30.2L90 18.8z"/><path fill="#c3cdcf" fill-opacity=".5" d="M112 136l10-102 37 151z"/><path fill="#937061" fill-opacity=".6" d="M175 83l-18-8 32-26z"/><path fill-opacity=".4" d="M214.7 45.4L231 92.7l-5.7 2L209 47.2z"/><ellipse cx="149" cy="109" fill="#c67a8d" fill-opacity=".6" rx="11" ry="14"/><path fill="#c9d1d6" fill-opacity=".7" d="M119.5 34.1l19.7 69.5L-16 34.2l157.9 22.4z"/><path fill="#97a2a6" fill-opacity=".4" d="M100 84l-116 48 143 13z"/><path fill="#c1937d" fill-opacity=".5" d="M216 33l4-23-37 20z"/><path fill="#3c2812" fill-opacity=".7" d="M189.4-7.4l74.9 12.2-47.2 29.6L229 21.3z"/><path fill="#00136a" fill-opacity=".6" d="M240 163l-15-88-10 36z"/><path fill="#977d77" fill-opacity=".6" d="M135.4 77.2l2.3-45.6 23.1 19.5-36.7 6.2z"/><path fill="#396436" fill-opacity=".5" d="M180-16l-22 36 14 16z"/><ellipse cx="98" fill="#e3ffff" fill-opacity=".6" rx="10" ry="5"/><path fill="#0e111c" fill-opacity=".3" d="M156.2 73.6l-24.9 27.1 13.9-39.8-5.1-19.1z"/><path fill="#c6a686" fill-opacity=".5" d="M176 125h45v6h-45z"/><circle r="1" fill="#331e15" fill-opacity=".5" transform="rotate(87.4 93 113.8) scale(4.81379 4.92103)"/><ellipse cx="116" cy="10" fill="#25887b" fill-opacity=".3" rx="29" ry="9"/><path fill="#2a221f" fill-opacity=".5" d="M112.8 41.5l8.2 9.1-26.3-12.4 2.6-20.6z"/><ellipse cx="95" cy="155" fill="#2b2f3a" fill-opacity=".4" rx="3" ry="30"/><path fill="#002592" fill-opacity=".6" d="M218.7 51.4l2-7.7 70.6 18.9-2 7.7z"/><path fill="#bfe4f0" fill-opacity=".4" d="M23.3 19l.4-11 33 1-.4 11z"/><path fill="#ad674a" fill-opacity=".5" d="M18.1 9.7l28.4-3.3 36.3 16.1L97.2-16z"/><path fill="#040800" fill-opacity=".5" d="M177.3 4.9l22.5-14.7-31.1 47.6 20 3z"/><path fill="#1a1e03" fill-opacity=".6" d="M183 149l5.8-.2 1.5-8-12.3 4.4z"/><path fill="#e8c8c3" fill-opacity=".5" d="M176.7 86.2l-30.3.6 13.8 26.7 17.5-24z"/><path fill="#c0dbef" fill-opacity=".5" d="M218 96l-34-10 32-8z"/><path fill="#8d7562" fill-opacity=".5" d="M214.2 73.3l-38.5 11.8-20.7-8 3.7-12.6z"/><path fill="#aac4d6" fill-opacity=".4" d="M235.6 159.4L208.9 185h9.9l11.2-42.5z"/><path fill="#0a1e1b" fill-opacity=".4" d="M16.7 27.2L36 16.8l-52 14.7v16z"/></g></svg>