<svg xmlns="http://www.w3.org/2000/svg" viewBox="0 0 300 199"><defs/><path fill="#40332e" d="M0 0h300v199H0z"/><g transform="translate(.6 .6) scale(1.17188)"><circle cx="148" cy="84" r="206" fill="#e6e3dd" fill-opacity=".8"/><circle r="1" fill="#e4e8eb" fill-opacity=".6" transform="matrix(-67.358 10.74196 -6.20623 -38.91646 221.9 129.3)"/><circle cx="8" cy="73" r="97" fill="#a3a39f" fill-opacity=".5"/><ellipse cx="115" cy="66" fill="#fff" fill-opacity=".6" rx="12" ry="32"/><path fill="#96583a" fill-opacity=".5" d="M183 60l70 20-71 9z"/><ellipse cx="130" cy="27" fill="#733f23" fill-opacity=".4" rx="5" ry="58"/><circle r="1" fill="#f9fbf6" fill-opacity=".6" transform="rotate(109.9 71.9 75.5) scale(23.22323 10.7437)"/><path fill="#995917" fill-opacity=".4" d="M148.8 137.3l.6 3.2-75.9-40.1 31.8-4.2z"/><path fill="#a28e82" d="M202.7 11.4L176.2-16l15.9 111.2-5.3-78.9z"/><ellipse cx="149" cy="110" fill="#ebe7df" fill-opacity=".5" rx="29" ry="19"/><ellipse cx="1" cy="50" fill="#9e9d9b" fill-opacity=".8" rx="24" ry="57"/><circle r="1" fill="#895c28" fill-opacity=".5" transform="matrix(1.97256 -.43009 13.35621 61.25713 93 44.7)"/><ellipse cx="213" cy="40" fill="#dfdad9" fill-opacity=".5" rx="17" ry="31"/><path fill="#c9cdcf" fill-opacity=".5" d="M87 185l-63-58 247 37z"/><path fill="#c5c4c1" fill-opacity=".6" d="M42 59l58 28L75-16z"/><circle r="1" fill="#a28369" fill-opacity=".4" transform="rotate(-146.3 130.2 -19) scale(5.56181 52.78766)"/><path fill="#935948" fill-opacity=".5" d="M181.8 104.3L195 49.4l-12.1 37.3-8.8 11.8z"/><path fill="#ebe9e4" fill-opacity=".6" d="M133.3 106.5l-11.8-76-22.7 4.9 4 25.7z"/><path fill="#e2e1dd" fill-opacity=".6" d="M255 71l-24 6 38-55z"/><path fill="#6a543b" fill-opacity=".6" d="M146 133l1 12 7-12z"/><path fill="#6b2310" fill-opacity=".5" d="M198 87l5-19 7 8z"/><path fill="#714228" fill-opacity=".3" d="M133.4 12.2l-10 3.9 16.9-27.4 1.3 19.6z"/><circle r="1" fill="#cad2d6" fill-opacity=".5" transform="matrix(7.35734 24.0148 -9.37618 2.87255 28.6 12)"/><path fill="#94795a" fill-opacity=".5" d="M115.3 121.5l-13.1-33.6-18.4 30.5-8.6-17.4z"/><path fill="#d0c3af" fill-opacity=".7" d="M135 24l53 51-57 24z"/><circle r="1" fill="#decfc7" fill-opacity=".5" transform="matrix(-9.92905 36.94363 -4.25405 -1.14333 195.5 73.2)"/><circle r="1" fill="#926d5c" fill-opacity=".5" transform="matrix(-3.30267 -28.76603 2.8915 -.33198 127.7 49.5)"/><circle r="1" fill="#dfbe97" fill-opacity=".6" transform="matrix(-19.48313 -90.88068 2.33385 -.50033 98.6 45.3)"/><ellipse cx="187" cy="53" fill="#9a8271" fill-opacity=".4" rx="7" ry="24"/><path fill="#edede7" fill-opacity=".4" d="M144-12l33 58-21 20z"/><path fill="#8a5a43" fill-opacity=".5" d="M188.1 6.3L183 23.9l-3.3-19.5-3.2-9.1z"/><path fill="#bcb6aa" fill-opacity=".5" d="M132 8h12v61h-12z"/><circle r="1" fill="#bdbebd" fill-opacity=".6" transform="matrix(-11.87815 29.78708 -34.99939 -13.95665 64.4 149)"/><path fill="#dddcd7" fill-opacity=".9" d="M113.6-16l6.2 72.4.8-32.2 6.9-40.2z"/><path fill="#a0948c" fill-opacity=".5" d="M229-16l42 7-37 23z"/><circle r="1" fill="#aaaba8" fill-opacity=".5" transform="matrix(30.46225 11.03743 -23.91898 66.01407 0 118.7)"/><path fill="#aea99d" fill-opacity=".6" d="M93.7 109.6l45 39.4-61-31.7-2.7-7.1z"/><path fill="#a97957" fill-opacity=".3" d="M154.8 51.8l72.8 23.8-32.1 5.2-4.6-26.3z"/><path fill="#5a0c00" fill-opacity=".2" d="M126.4 39.6l1.6 25.9 6.6-16.2 4.1-10.8z"/><path fill="#decdb9" fill-opacity=".6" d="M122.6 117.4l-11.2-16.6 24-16.2 11.2 16.6z"/><path fill="#83694a" fill-opacity=".5" d="M81 3l5-19 4 43z"/><path fill="#ccaf91" fill-opacity=".7" d="M154.8 72.4l-22 18.3 16.7-5.5 39-23.7z"/><path fill="#dbdbda" fill-opacity=".8" d="M128.6 113.6l121.5 34 20.9-68-34.9 10.3z"/><circle r="1" fill="#d6d2d0" fill-opacity=".5" transform="matrix(-26.47604 22.0299 -7.55495 -9.07972 219 38.7)"/><ellipse cx="188" cy="160" fill="#ced0cf" fill-opacity=".6" rx="69" ry="15"/><path fill="#b0ab9f" fill-opacity=".6" d="M129.3-16l-7.9 45.2 19.1-16.9-16.6 36.9z"/><circle r="1" fill="#7e5e41" fill-opacity=".4" transform="matrix(.42911 -2.61568 9.83363 1.61325 243 81.6)"/><path fill="#caaa8d" fill-opacity=".8" d="M136.8 130l16.8 7.6.7-2.4-31.6-18.4z"/><path fill="#0e1b16" fill-opacity=".5" d="M78.8 104.2l1-.2 1.4 5.8-1 .2z"/><path fill="#dcd8c9" fill-opacity=".4" d="M187 71.4l-16 5.3-6-18.1 16.2-5.3z"/><path fill="#c3c2c0" fill-opacity=".5" d="M212 17l-14 28-14-34z"/><path fill="#9e5e49" fill-opacity=".6" d="M173 101l15-16-5 13z"/><circle r="1" fill="#919391" fill-opacity=".5" transform="matrix(-.1538 36.9685 -16.6319 -.0692 0 11.7)"/><path fill="#c2b5a8" fill-opacity=".7" d="M228.1 46.1l-10.7 23.8 22.4 14.2-3.6 5.4z"/><path fill="#c3c0bb" fill-opacity=".5" d="M81-1L55 89l41 12z"/><circle cx="129" cy="83" r="3" fill="#7a4238" fill-opacity=".4"/><path fill="#ebeeed" fill-opacity=".4" d="M179.9-12.7l-1-2.7.8 32.7-19.4 31.9z"/><circle r="1" fill="#dbd7d3" fill-opacity=".6" transform="matrix(-6.75364 -5.46899 10.09402 -12.46508 208.2 54.3)"/><path fill="#9b9b98" fill-opacity=".6" d="M201.1 19.4l-22.3-32 4-2.8 22.4 32z"/><path fill="#465154" fill-opacity=".5" d="M145 137h4v10h-4z"/><path fill="#7e8382" fill-opacity=".2" d="M54.9 9.3L39.5 26.6l-1.6 15.7 9.4 12z"/><circle r="1" fill="#e3e1dc" fill-opacity=".4" transform="rotate(114.9 24 110.3) scale(2.8606 13.54214)"/><circle r="1" fill="#ecefed" fill-opacity=".6" transform="matrix(10.82319 28.1781 -6.98596 2.6833 114.3 67.5)"/><path fill="#956559" fill-opacity=".6" d="M186 56h5v22h-5z"/><path fill="#946842" fill-opacity=".3" d="M70.9 95.3l59.8 34.4-32.9-47.8 18.9 33.6z"/></g></svg>