<svg xmlns="http://www.w3.org/2000/svg" viewBox="0 0 300 199"><defs/><path fill="#434344" d="M0 0h300v199H0z"/><g transform="translate(.6 .6) scale(1.17188)"><circle r="1" fill="#cececd" fill-opacity=".6" transform="matrix(-85.8418 153.50597 -65.45112 -36.6008 52.5 127.4)"/><ellipse cx="125" cy="111" fill-opacity=".6" rx="54" ry="13"/><circle r="1" fill="#e4e4e4" fill-opacity=".7" transform="matrix(38.29322 51.31655 -33.3399 24.87876 0 128.6)"/><path fill="#b8b8b7" fill-opacity=".7" d="M159.1 152.8l-45 53.6L89 185.2l45-53.6z"/><path fill="#161616" fill-opacity=".6" d="M41 12h18v75H41z"/><path fill="#aeaead" fill-opacity=".3" d="M249 98l-59-77-21 138z"/><circle r="1" fill="#0e0e0e" fill-opacity=".6" transform="rotate(101.2 42.2 114.1) scale(46.37089 18.9383)"/><circle r="1" fill="#646464" fill-opacity=".8" transform="matrix(61.03287 30.07266 -11.58061 23.50301 154.8 0)"/><circle r="1" fill="#cacaca" fill-opacity=".6" transform="matrix(11.57986 7.44995 -44.1476 68.621 69.2 89.5)"/><path fill="#e7e7e6" fill-opacity=".6" d="M229 167.7l-4.6 8.9-19.5-10.3 4.7-8.9z"/><circle r="1" fill="#0f0f0e" fill-opacity=".6" transform="matrix(18.17613 -7.78707 28.58322 66.71727 255 29)"/><circle r="1" fill="#3c3c3c" fill-opacity=".5" transform="matrix(-14.74067 27.72317 -7.94954 -4.22684 80.6 116.6)"/><path fill="#b5b5b5" fill-opacity=".5" d="M63 18h103v32H63z"/><circle r="1" fill="#737373" fill-opacity=".6" transform="matrix(13.2193 7.2074 -30.10855 55.223 36.2 7.8)"/><path fill="#b3b3b3" fill-opacity=".6" d="M41.8-3.3l68.4 107.6 30.6 3.8-1.9-50.5z"/><path fill="#fff" fill-opacity=".4" d="M92 167v-53l-26 63z"/><circle r="1" fill="#9c9c9b" fill-opacity=".5" transform="rotate(111.5 60.6 143.2) scale(5.45971 56.61228)"/><path fill="#fefefe" fill-opacity=".4" d="M44 59.1L23.5 73.4l-13.2 3.8L30.7 36z"/><circle r="1" fill="#f3f3f3" fill-opacity=".5" transform="rotate(-123.3 49 52.7) scale(13.06963 41.81694)"/><path fill="#060606" fill-opacity=".6" d="M4.5 114.9v-11.2L-16 98.2v57.3z"/><path fill="#1a1a1a" fill-opacity=".7" d="M119.8-16l51.4 32.9L155.4-16l-32.5 35.5z"/><path fill-opacity=".6" d="M60.3 40l-14.7 8.1-3.2-37.9 16.8 14.4zm61.7 64l-20 16 50 6z"/><path fill="silver" fill-opacity=".6" d="M51 51h64v14H51z"/><circle r="1" fill="#545454" fill-opacity=".6" transform="rotate(-133.5 70 25.8) scale(21.59193 8.23892)"/><circle r="1" fill="#303030" fill-opacity=".4" transform="matrix(-22.52202 34.86585 -12.07 -7.79677 227.8 67.1)"/><circle r="1" fill="#959595" transform="rotate(38.4 -161.5 248.4) scale(19.54967 29.01601)"/><path fill="#737373" fill-opacity=".6" d="M68 80l-44 32 19-64z"/><path fill="#7c7c7c" fill-opacity=".4" d="M83 120l-53 42 4-28z"/><path fill="#030302" fill-opacity=".5" d="M178 101l7-58-49 54z"/><path fill="#fff" fill-opacity=".5" d="M239 131.3l5-58.7h1l-5 58.8z"/><path fill="#f0f0f0" fill-opacity=".4" d="M156 15h6v37h-6z"/><path fill="#a1a1a1" fill-opacity=".7" d="M256.5 67.8L68 181l-.5-.9L256 67z"/><path fill="#fdfdfd" fill-opacity=".5" d="M124 150.8l26.6 33.4-10.7-2.4-15.4-17.2z"/><path fill="#606060" fill-opacity=".5" d="M141.6 20.2L140 27 48.4 5.8 50-1z"/><circle r="1" fill="#bfbfbe" fill-opacity=".3" transform="matrix(-19.75847 -12.95325 3.41357 -5.20694 187.2 150)"/><path fill-opacity=".6" d="M164 128h6v34h-6z"/><path fill="#8d8d8d" fill-opacity=".6" d="M148.6-3.6l8 34.1-2.7 46L129.1 26z"/><path fill="#fbfbfc" fill-opacity=".2" d="M169 124.8L226.7 94l-5.1 12.8-35.7 27.1z"/><circle r="1" fill="#fbfbfb" fill-opacity=".6" transform="rotate(131.4 40.4 108.2) scale(3.54126 7.26801)"/><path fill="#070706" fill-opacity=".5" d="M170.9 31.4l14 7.7-9.8 17.5-14-7.7z"/><path fill="#c2c2c2" fill-opacity=".8" d="M64 79.4l55.4-14.5-81.3 37.9 63.2-9.9z"/><path fill="#ababab" fill-opacity=".6" d="M89 116h12v54H89z"/><circle r="1" fill="#767676" fill-opacity=".6" transform="matrix(-9.87407 9.32997 -19.792 -20.94622 195 33)"/><path fill="#f8f8f8" fill-opacity=".7" d="M-6.4 65l25 29.8-12.2 10.3-25-29.9z"/><path fill="#676767" fill-opacity=".5" d="M10 7h15v53H10z"/><path fill="#262626" fill-opacity=".4" d="M64.6 107.2l33.2 3-13.4 16.9-15.1-32.9z"/><path fill="#0a0a09" fill-opacity=".6" d="M47 12L35 7 24 20z"/><path fill="#a4a4a4" d="M30.7 20.6l8.1-3.4-.6 3.3-11.5 21.1z"/><circle cx="34" cy="31" r="4" fill-opacity=".5"/><path fill="#959594" fill-opacity=".4" d="M189.1 118l2.7-8.7 107 32.8-2.6 8.6z"/><path fill="#2c2c2b" fill-opacity=".5" d="M178.6 163.7L151.9 117l6.8 51-21.7-16.5z"/><path fill="#aeaeae" fill-opacity=".7" d="M49.7 11.6l45.7 56.1L42.8-6.8 36 6.6z"/><path fill="#e2e2e2" fill-opacity=".4" d="M70.6 122.1l-28.9 6-3.8-39 28.4 8.1z"/><path fill="#f7f7f7" fill-opacity=".5" d="M155 48l10-11-11 22z"/><path fill="#7f7f7e" fill-opacity=".5" d="M160.1 120.1l-6.4 7.2 27.1-13.8-64.3 43.8z"/><circle r="1" fill="#101010" fill-opacity=".7" transform="matrix(-.17185 7.83571 -2.73542 -.06 170 19.2)"/><path fill="#5c5c5c" fill-opacity=".4" d="M105 144h11v26h-11z"/><path fill-opacity=".6" d="M118 109h21v12h-21z"/><path fill="#fff" fill-opacity=".4" d="M142.3 83.4l-14.7 10.1 18.7-3.2 1.1-4.9z"/><path fill="#3a3a39" fill-opacity=".3" d="M181 152.5l31.6-37.9L242.2 94l-3.5 33.8z"/><circle r="1" fill="#bbb" fill-opacity=".8" transform="rotate(-71.9 135.9 43.4) scale(18.82531 6.16102)"/><path fill="#b8b8b8" fill-opacity=".5" d="M161 134h2v24h-2z"/><path fill-opacity=".5" d="M162 132l-3 17-15-11z"/><path fill="#b6b6b6" fill-opacity=".7" d="M24.5 113.9l22.7.2-19.8-18.5L8 110.5z"/></g></svg>