<svg xmlns="http://www.w3.org/2000/svg" viewBox="0 0 298 450"><defs/><path fill="#4e3531" d="M0 0h298v450H0z"/><g transform="translate(.9 .9) scale(1.75781)"><circle r="1" fill="#f1f0ec" fill-opacity=".8" transform="matrix(-75.37092 34.4018 -70.17317 -153.7424 55.6 165)"/><circle r="1" fill="#dbd0c8" fill-opacity=".5" transform="matrix(31.36846 16.33673 -73.22762 140.60575 109.2 60.6)"/><circle r="1" fill="#212b4e" fill-opacity=".9" transform="matrix(14.3823 -13.68632 17.49524 18.3849 137 158.6)"/><circle cx="69" cy="40" r="40" fill="#935b3e" fill-opacity=".6"/><path fill="#000001" fill-opacity=".5" d="M120 56l35-42-21 68z"/><circle r="1" fill="#eff6f9" fill-opacity=".6" transform="matrix(-36.43808 38.13027 -48.33643 -46.1913 87 221.4)"/><circle r="1" fill="#b27660" fill-opacity=".6" transform="rotate(164.3 57.7 70.7) scale(57.29245 18.62417)"/><circle r="1" fill="#dedfd8" fill-opacity=".7" transform="matrix(-22.39041 2.65514 -11.23737 -94.76326 18.7 70)"/><circle r="1" fill="#feffff" fill-opacity=".6" transform="matrix(-7.05924 -22.25355 42.59476 -13.51186 83.7 98.8)"/><ellipse cx="3" cy="228" fill="#968675" fill-opacity=".8" rx="6" ry="78"/><path fill="#f0f5e6" fill-opacity=".4" d="M185 9.2l-81.4-21.9L114.7 65 130 29.8z"/><circle r="1" fill="#8b9ba8" fill-opacity=".7" transform="matrix(-7.37858 1.36622 -14.07887 -76.03625 158.8 246.6)"/><circle r="1" fill="#000a2b" fill-opacity=".7" transform="rotate(99 40.3 109.8) scale(32.37316 10.81689)"/><path fill-opacity=".6" d="M28.7 23.9L31.4-6l23.9 2.1L52.6 26z"/><circle r="1" fill="#c39b82" fill-opacity=".7" transform="matrix(13.8186 7.91399 -18.45526 32.2247 51.9 47.9)"/><path fill="#d1ddf9" fill-opacity=".6" d="M161-16l-20 81 32-57z"/><ellipse cx="169" cy="183" fill="#001c55" fill-opacity=".7" rx="13" ry="53"/><circle r="1" fill="#693729" fill-opacity=".4" transform="matrix(-32.55514 -8.05658 2.67187 -10.79651 88.2 57.7)"/><path fill="#c89280" fill-opacity=".5" d="M65.1 138.9l21 35.4 33.7-79.9 34 41.9z"/><ellipse cx="169" cy="98" fill="#f8b58d" fill-opacity=".5" rx="6" ry="32"/><path fill="#0c1533" fill-opacity=".8" d="M147.6 24.5L140.8 74l-.3 10-14.2-8.5z"/><path fill="#705f4d" fill-opacity=".4" d="M50 158l-5-36 14 8z"/><path fill="#001041" fill-opacity=".5" d="M151 57l21-49-9 90z"/><circle r="1" fill="#fcfffe" fill-opacity=".6" transform="matrix(38.86875 .7294 -.37646 20.06106 61 105.3)"/><path fill="#b0bfdf" fill-opacity=".6" d="M141.1 68.1l.8 54.8-1.1-28.5 15.4-62.5z"/><path fill="#081c45" fill-opacity=".5" d="M125 139h45v42h-45z"/><path fill="#653a31" fill-opacity=".3" d="M175.7-16L153.3-4.1l-32 49.1-9.2 44.2z"/><ellipse cx="61" cy="34" fill="#d79f85" fill-opacity=".5" rx="6" ry="54"/><path fill="#ccc1b3" fill-opacity=".7" d="M34 53.1L15.1 32.3 30 18.9l18.7 20.8z"/><path fill="#0b1c49" fill-opacity=".5" d="M139.8 142.2l-.7 13-27-1.4.8-13z"/><path fill="#eef3f4" fill-opacity=".4" d="M113.4 149.2L60.5 271l92.1-95.8-28.6 7.1z"/><ellipse cx="90" cy="149" fill="#d0a99d" fill-opacity=".8" rx="21" ry="16"/><ellipse cx="27" cy="163" fill="#dbdfde" fill-opacity=".5" rx="16" ry="105"/><path fill="#2e1513" fill-opacity=".5" d="M88 47l-8-59-20-4z"/><circle r="1" fill="#a9b0b9" fill-opacity=".5" transform="matrix(13.80841 7.09656 -5.92356 11.526 119.8 83.7)"/><path fill="#774a35" fill-opacity=".6" d="M103.2-3.5l2.5 20.9-16.9 2-2.5-20.8z"/><path fill="#f4f6f2" fill-opacity=".6" d="M40.5 75.1l-4.6 26.5L96 144.5l-34.3-10.8z"/><path fill="#cfceca" fill-opacity=".7" d="M23-7l11 68-50-41z"/><path fill="#7c594a" fill-opacity=".4" d="M140 103l-37 11 39-28z"/><ellipse cx="59" cy="73" fill="#cf977d" fill-opacity=".5" rx="19" ry="11"/><path fill="#f2f5f4" fill-opacity=".5" d="M73 165h46v69H73z"/><circle r="1" fill="#928272" fill-opacity=".7" transform="matrix(-11.95594 .83604 -4.55037 -65.0733 -.1 255)"/><path fill="#d7def0" fill-opacity=".5" d="M164 19l-11 28-1-50z"/><path fill="#050002" fill-opacity=".4" d="M146.9 111.7l-8.4.2 12.5-31 7.4 44.3z"/><path fill="#d5dade" fill-opacity=".8" d="M160.5 271l-9.6-34-27.8-66.1 7.2 80.7z"/><circle r="1" fill="#132145" fill-opacity=".6" transform="matrix(27.70897 12.56935 -10.2618 22.622 165.8 159.3)"/><path fill="#dddfdc" fill-opacity=".7" d="M59.1 137.6l-37.7 76L62.9 271l12.5-113.1z"/><path fill="#1c2a4e" fill-opacity=".8" d="M126.1 177.7l-3.6-6.5 60.2-17.9-52.9 29.7z"/><path fill="#110500" fill-opacity=".4" d="M32.6 20.9l.1-24.5 25.5 7L56 23.5z"/><path fill="#eff" fill-opacity=".1" d="M89 51l26 11 31-70z"/><path fill="#d0d3d5" fill-opacity=".8" d="M132.4 91.5L90.9 74.4l22 33.2 7.7-4.5z"/><path fill="#6e463d" fill-opacity=".5" d="M134 73.4l-53.6-7L60.2-7.7l37.6 63z"/><path fill="#b88474" fill-opacity=".6" d="M139.8 139.6l-30.9 3-32.3-10.3-4.1-8.8z"/><path fill="#050f2d" fill-opacity=".5" d="M136 86l13-63-16 17z"/><path fill="#af7a61" fill-opacity=".6" d="M176.8 132.9l-7.6-79.8-11 74.2-18.1-3.8z"/><ellipse cx="23" cy="247" fill="#a7b3bb" fill-opacity=".3" rx="13" ry="46"/><circle r="1" fill="#8c969f" fill-opacity=".6" transform="matrix(-4.30115 .62747 -5.16507 -35.4053 156.5 224.2)"/><path fill="#ba917a" fill-opacity=".9" d="M47.6 80.4l-10.3-6.8L35.5 57 69 4.5z"/><path fill="#d9ad93" fill-opacity=".6" d="M75.6 38.3l-8.9 6.4-12.3-17 8.9-6.4z"/><path fill="#f7f9f6" fill-opacity=".6" d="M33 121l6-45 68 32z"/><path fill="#8f644a" fill-opacity=".4" d="M124.9 65.6l28.9-64.5-22 26.4L115.1 62z"/><path fill="#a16f57" fill-opacity=".4" d="M79 73L57 62l20-49z"/><path fill="#b98f61" fill-opacity=".3" d="M-2.8 43.7l-7.7-2 21.3-85.4 7.7 2z"/><path fill="#724236" fill-opacity=".8" d="M142.3 103.4l-14.8-5.1 33.3 37.2-.7-4.7z"/><path fill="#959398" fill-opacity=".4" d="M141.6 91.6l-9.1-12.4-7.9-7.8-43.1-.3z"/></g></svg>