<svg xmlns="http://www.w3.org/2000/svg" viewBox="0 0 300 199"><defs/><path fill="#673e38" d="M0 0h300v199H0z"/><g transform="translate(.6 .6) scale(1.17188)"><ellipse cx="115" cy="36" fill="#e6f7eb" fill-opacity=".6" rx="255" ry="79"/><circle r="1" fill="#3f2918" fill-opacity=".7" transform="rotate(161 103.5 54.4) scale(14.18182 32.57569)"/><circle cx="146" cy="154" r="51" fill="#00070b" fill-opacity=".6"/><circle r="1" fill="#f1f4f0" fill-opacity=".7" transform="rotate(-19.3 308.6 -524.2) scale(8.0552 111.04413)"/><path fill="#b0b1aa" fill-opacity=".7" d="M19.3 102.7l39-24.4 24.4 39-39 24.4z"/><circle r="1" fill="#e8e5df" fill-opacity=".6" transform="matrix(-34.75112 -11.47555 18.82213 -56.99857 172.3 27.8)"/><circle r="1" fill="#efb5b6" fill-opacity=".6" transform="rotate(-80.4 141 35) scale(32.43672 13.44623)"/><ellipse cx="34" cy="26" fill="#726b5f" fill-opacity=".6" rx="52" ry="20"/><ellipse cx="170" cy="116" fill="#261106" fill-opacity=".7" rx="15" ry="23"/><circle r="1" fill="#dbd8ce" fill-opacity=".5" transform="matrix(13.66664 8.80755 -14.91648 23.14584 255.2 111.1)"/><ellipse cx="251" cy="151" fill="#000308" fill-opacity=".8" rx="30" ry="16"/><ellipse cx="212" cy="165" fill="#dddbd3" fill-opacity=".7" rx="7" ry="57"/><circle r="1" fill="#0c161f" fill-opacity=".8" transform="matrix(19.36066 -22.1155 40.09864 35.1037 0 163)"/><circle r="1" fill="#461203" fill-opacity=".7" transform="matrix(8.95168 -9.55239 5.44263 5.10037 129.2 86)"/><path fill="#ffd6c3" fill-opacity=".6" d="M159.7 94.5l-7.9 21.6-23.5-8.6 7.9-21.6z"/><path fill="#f4f3ee" fill-opacity=".6" d="M172 86l47 52-23-121z"/><path fill="#c09381" fill-opacity=".6" d="M118.4 185l47.4-31.5 8.5 7.2-3.9 16z"/><path fill="#271802" fill-opacity=".5" d="M50.3 17.7l30.9 8.1-9.5 9.2-22.3-7.6z"/><path fill="#27313b" fill-opacity=".7" d="M55.2 94.3l29.2-2.7L94 75.1l-.4 22.2z"/><path fill="#4f4d4d" fill-opacity=".7" d="M0 106h37v33H0z"/><path fill="#190a05" fill-opacity=".7" d="M226.1 89.5l-13.9-47.6 16.3 17 9.6 42.3z"/><circle r="1" fill="#e8e9e7" fill-opacity=".6" transform="matrix(-77.07987 -19.59748 1.16646 -4.58787 54.6 2.8)"/><path fill="#01070c" fill-opacity=".5" d="M100 127h105v28H100z"/><path fill="#113e56" fill-opacity=".6" d="M234 185l-11.4-28.1-8.8-45.5 22.8 17.7z"/><path fill="#fffdf1" fill-opacity=".4" d="M195.4 64.2l28.7.8-47.5-37.3L210.9-16z"/><path fill="#232321" fill-opacity=".7" d="M59 93l1.7-20.8 4.3 3.2-1.8 18.5z"/><path fill="#d6ba97" fill-opacity=".5" d="M231 107l-16-10 10-14z"/><path fill="#c19688" fill-opacity=".6" d="M109.4 107.3L91 149l-20.1 36 24.2-70.3z"/><circle r="1" fill="#cdc7c0" fill-opacity=".6" transform="matrix(-26.09494 5.66252 -12.2323 -56.3709 155.3 38.4)"/><ellipse cx="64" cy="109" fill="#cac8c1" fill-opacity=".6" rx="27" ry="12"/><path fill="#71594a" d="M73.4 131.8l-4.2-8.2-4.8-5.5-35 41.7z"/><path fill="#c7a998" fill-opacity=".6" d="M225.9 167l-24 14.4L192 165l24-14.5z"/><circle r="1" fill="#918b84" fill-opacity=".9" transform="matrix(-5.13986 26.19807 -33.51648 -6.57567 14.5 24.5)"/><ellipse cx="214" cy="8" fill="#f5eeda" fill-opacity=".3" rx="31" ry="34"/><path fill="#7e432e" fill-opacity=".5" d="M145.7 84.3L125 103.1l-6.6-7.4L139 76.9z"/><path fill-opacity=".6" d="M202 43h11v8h-11z"/><path fill="#180000" fill-opacity=".5" d="M207 66h20v14h-20z"/><circle r="1" fill="#332720" fill-opacity=".6" transform="rotate(-51.6 218 -123.5) scale(17.25186 31.67889)"/><path fill="#a2ceff" fill-opacity=".5" d="M67 76h23v16H67z"/><path fill="#6e6b5f" fill-opacity=".2" d="M130.9 58l-59-11.5L77.2 20l59 11.5z"/><path fill="#eec1b3" fill-opacity=".5" d="M139 113l20 4-24-31z"/><path fill="#d2d0c5" fill-opacity=".5" d="M55 50h54v23H55z"/><path fill="#4a0122" fill-opacity=".7" d="M46.7 185h19.6l3.4-42.9-14.9 9.3z"/><path fill="#c8ccc3" fill-opacity=".4" d="M37 56h14v89H37z"/><path fill="#c9baab" fill-opacity=".5" d="M271 86.4l-39.9-12 36.8 45.5-44 1z"/><path fill="#16141a" fill-opacity=".9" d="M163.7 151.2l-31.5-43.1-12.4 1.3L91.6 185z"/><circle r="1" fill="#1b2016" fill-opacity=".5" transform="matrix(2.1609 8.03774 -6.82965 1.8361 78.3 134.9)"/><path fill="#00001a" fill-opacity=".4" d="M63 74h30v3H63z"/><path fill="#050100" fill-opacity=".7" d="M186.4 145.1l-55.2 19.2 2.3 20.7 34.7-68z"/><path fill="#9a978d" fill-opacity=".7" d="M-14 27.7l25.9 27.6-5.2 37.1-7.8 55.6z"/><path fill="#525d68" fill-opacity=".7" d="M49.6 146.9l.6-5.4-15.4 21.2L19 135.9z"/><path fill="#040a10" fill-opacity=".7" d="M94 91h-4V75h4z"/><path fill="#100000" fill-opacity=".5" d="M22 126h11v10H22z"/><path fill="#e7e0d8" fill-opacity=".7" d="M150 113.3l6-12.1-16.4-86.5-7.5-17.1z"/><path fill="#f7f5f1" fill-opacity=".5" d="M213.4 91.6L196 99.1l-11.3-26.7 17.5-7.5z"/><path fill="#7c6049" fill-opacity=".8" d="M219.4 100.5l.7-19.6-11.2-1.3 6.1 22.7z"/><path fill="#190e06" fill-opacity=".7" d="M175 160.9l17.9-9.3 14-11.3-5.2 23z"/><path fill="#947164" fill-opacity=".6" d="M149.5 157.5l-6.8 9.2 11.1 10.7 23.4-9.3z"/><path fill="#d1d5d3" fill-opacity=".3" d="M86 20L24 8 148-7z"/><path fill="#3b1e0f" fill-opacity=".4" d="M127 74l-8 11 6 27z"/><path fill="#827f7b" fill-opacity=".8" d="M16.7 117.1l-3.3-24.5 16-.4L4.7 120z"/><path fill="#e3e0cd" fill-opacity=".6" d="M224 100h20v4h-20z"/><path fill="#464341" fill-opacity=".5" d="M246.8 104.3l-13.8 9.8 4.6 50.1-20.6-57.1z"/><ellipse cx="245" cy="156" fill-opacity=".3" rx="22" ry="21"/><path fill="#c3b7a5" fill-opacity=".9" d="M271 121.1l-31.7-22.4-5.9-21.3-3.2-63.3z"/></g></svg>