<svg xmlns="http://www.w3.org/2000/svg" viewBox="0 0 300 199"><defs/><path fill="#3c3c3c" d="M0 0h300v199H0z"/><g transform="translate(.6 .6) scale(1.17188)"><circle r="1" fill="#e6e6e6" fill-opacity=".7" transform="matrix(-112.22916 -116.85874 68.20986 -65.5076 185.8 69)"/><circle r="1" fill="#fff" fill-opacity=".7" transform="matrix(-14.5853 128.37765 -32.88748 -3.73643 243 0)"/><circle cx="28" cy="112" r="61" fill-opacity=".7"/><ellipse cx="167" cy="43" fill="#676767" fill-opacity=".6" rx="42" ry="51"/><path fill-opacity=".5" d="M137.7 98.5l19 23-22.3 34.3L33 185z"/><circle r="1" fill="#393939" fill-opacity=".5" transform="matrix(6.45863 51.22408 -18.67721 2.35493 192.7 131.3)"/><ellipse cx="99" cy="4" fill="#fff" fill-opacity=".8" rx="35" ry="21"/><path fill-opacity=".5" d="M87 25h12v44H87z"/><circle r="1" fill="#fcfcfc" fill-opacity=".7" transform="rotate(107.7 20.6 79.9) scale(15.9895 23.40106)"/><ellipse cx="71" cy="43" fill="#fff" fill-opacity=".8" rx="17" ry="10"/><path fill="#1e1e1e" fill-opacity=".6" d="M271 162.2L245.7 132l-12.4-19.2 6-5.7z"/><ellipse cx="148" cy="169" fill="#e1e1e1" fill-opacity=".5" rx="36" ry="15"/><path fill-opacity=".5" d="M62 26h79v7H62z"/><ellipse cx="46" cy="21" fill="#767676" fill-opacity=".7" rx="21" ry="23"/><circle cx="138" cy="49" r="15" fill="#292929" fill-opacity=".7"/><path fill="#0d0d0d" fill-opacity=".7" d="M-16 77.5L1.9 21.4l72.5 41.1 88-1.6z"/><path fill="#fff" fill-opacity=".7" d="M124.8 60.6l-23-1.2 1.4-26 23 1.2z"/><path fill="#fff" fill-opacity=".5" d="M241.7 133.5l-28.1-99.2-4.6 95.6 19.7 55.1z"/><path fill="#fff" fill-opacity=".4" d="M115.9 85.4l-15.2-20.1-4.9 52.7 19.3 18z"/><ellipse cx="181" cy="68" fill="#8d8d8d" fill-opacity=".8" rx="28" ry="41"/><circle cx="38" cy="164" r="72" fill="#030303" fill-opacity=".5"/><path fill="#fff" fill-opacity=".7" d="M133.3 4.9l.4 20-17 .2-.4-20z"/><path fill="#fff" fill-opacity=".6" d="M70.1 61.7l-.2-17 18-.4.2 17z"/><path fill="#fff" fill-opacity=".5" d="M127 82L78 69l61-3z"/><path fill="#f7f7f7" fill-opacity=".5" d="M139 0h6v36h-6z"/><ellipse cx="91" cy="18" fill="#121212" fill-opacity=".4" rx="2" ry="49"/><path fill="#1e1e1e" fill-opacity=".5" d="M80.8 132.6l35.6 32.9 24.1-17.9 2.7-23.2z"/><circle r="1" fill="#020202" fill-opacity=".7" transform="matrix(-1.8745 -18.511 14.4775 -1.46606 8.8 0)"/><path fill="#cfcfcf" fill-opacity=".4" d="M184 184L150 47l-10 138z"/><path fill="#3a3a3a" fill-opacity=".6" d="M99 131h-1l-5-98h1z"/><ellipse cx="255" cy="101" fill="#fff" fill-opacity=".6" rx="12" ry="27"/><circle r="1" fill="#5e5e5e" fill-opacity=".6" transform="rotate(-30.6 341 -269.4) scale(12.65778 26.51223)"/><path fill="#757575" fill-opacity=".5" d="M120.3 86.4l-5.3 34.3 52.9 4.9-23.6-21.8z"/><path fill="#4d4d4d" fill-opacity=".5" d="M130.4 65.7l32 22-39.8-46.8 2.1 25.2z"/><path fill="#757575" fill-opacity=".6" d="M135.2 185l23.7-65.3-48.6 65.3-.9-20.8z"/><path fill="#f7f7f7" fill-opacity=".3" d="M138.1 85.8l41 28.6L83.6 90l13.8 31.9z"/><path fill-opacity=".4" d="M135 0h3v43h-3z"/><path fill="#303030" fill-opacity=".6" d="M262.2 136.6L236 112.3l2.4 13.7 6.3 10.8z"/><path fill="#fff" fill-opacity=".6" d="M264.8-3l1.3 25-59 3L206 0z"/><path fill="#fff" fill-opacity=".4" d="M23.5 28.5l1.2-1.6 23.8 16.6-1.2 1.6z"/><circle r="1" fill="#282828" fill-opacity=".5" transform="matrix(-9.53862 3.06814 -8.79874 -27.35461 67.7 77.4)"/><path fill="gray" d="M126.6-5l78.3-8.1 2 28.5-.5 8.2z"/><ellipse cx="97" cy="27" fill="#232323" fill-opacity=".5" rx="39" ry="3"/><circle cx="9" cy="62" r="36" fill="#040404" fill-opacity=".5"/><path fill="#d4d4d4" fill-opacity=".8" d="M210 163.6l26.6-47.6 8.7 69 6.1-47.8z"/><path fill="#fff" fill-opacity=".6" d="M70 2h21v23H70zm40.3 30.6l2.4 27.9-11 1-2.4-28z"/><path fill="#373737" fill-opacity=".5" d="M77 124.1l33.4 13.5-37-67.6 2.3-6z"/><path fill="#5c5c5c" fill-opacity=".5" d="M150.1 84.9L117 86.7l17-6.3 14.5-38.1z"/><path fill="#828282" fill-opacity=".6" d="M0 23h27v4H0z"/><path fill="#1e1e1e" fill-opacity=".5" d="M36 2l30 2-15-20z"/><path fill="#fefefe" fill-opacity=".5" d="M211 29h15v111h-15z"/><path fill="#fff" fill-opacity=".2" d="M164.9 91.4l18.6 93.6-18.1-25.4L151 73.4z"/><path fill="#3a3a3a" fill-opacity=".5" d="M130 103l-13-2 3 26z"/><circle r="1" fill="#f8f8f8" fill-opacity=".8" transform="matrix(4.87453 -2.89688 1.492 2.51056 124.8 37)"/><path fill="#2f2f2f" fill-opacity=".4" d="M258.8 107.5l-2.6 5.4-9-4.4 2.6-5.4z"/><path fill="#131313" fill-opacity=".5" d="M135 33l14 3 11 26z"/><ellipse cx="203" cy="136" fill="#6e6e6e" fill-opacity=".5" rx="7" ry="83"/><path fill="#343434" fill-opacity=".5" d="M96 57l1 10 22-2z"/><path fill="#f6f6f6" fill-opacity=".7" d="M208 32h48v23h-48z"/><path fill="#fff" fill-opacity=".5" d="M107 109h8v15h-8z"/><path fill="#717171" fill-opacity=".4" d="M108.5 133.3l-21.8-32.8-13.3-21.3 51.3 58.4z"/><circle r="1" fill="#676767" fill-opacity=".6" transform="rotate(-147.5 113.4 39.6) scale(24.23014 13.04898)"/><path fill-opacity=".2" d="M253 142.5l-9.4 36.8 6.2-5.6 2.5-14.2z"/><path fill="#0a0a0a" fill-opacity=".1" d="M228.6 59.7l-14-2 18.6 4 .7-42.7z"/></g></svg>