<svg xmlns="http://www.w3.org/2000/svg" viewBox="0 0 300 199"><defs/><path fill="#4e332a" d="M0 0h300v199H0z"/><g transform="translate(.6 .6) scale(1.17188)"><path fill="#c4cac3" fill-opacity=".6" d="M134 10l10 175-98-97z"/><circle r="1" fill="#c1c2bd" fill-opacity=".6" transform="rotate(151.7 108 29.7) scale(65.51388 46.20285)"/><circle cx="230" cy="134" r="85" fill="#00070a" fill-opacity=".8"/><path fill="#0f0908" fill-opacity=".7" d="M103.7 167.8l-10-88.4 24.4 61.2-8.9 20.3z"/><path fill="#b4c9d4" fill-opacity=".9" d="M150.6 184.2l-7.8-29-16.5-40.8-22.2 69z"/><ellipse cx="69" cy="97" fill="#956f4a" fill-opacity=".8" rx="17" ry="50"/><circle r="1" fill="#e3f0f4" fill-opacity=".7" transform="matrix(.93995 15.29671 -13.41382 .82425 117.6 57)"/><circle r="1" fill="#000811" fill-opacity=".6" transform="rotate(6.3 -99 76.5) scale(45.35218 29.53753)"/><circle r="1" fill="#0c0800" fill-opacity=".5" transform="matrix(-46.26463 18.37072 -14.18348 -35.71954 17.8 160.3)"/><path fill="#febb5c" fill-opacity=".7" d="M16.2 74.7L-16 76l4.6 10.9 30.2-.5z"/><path fill="#958c87" fill-opacity=".9" d="M270.9 47.6l-34.4.1-78.9 12.2L173.4-16z"/><circle r="1" fill="#293947" fill-opacity=".6" transform="matrix(13.47643 154.86233 -13.5543 1.17952 152 90.4)"/><path fill="#c8c5c1" fill-opacity=".3" d="M118 155L102-14l50 123z"/><ellipse cx="94" cy="141" fill="#a6aba4" fill-opacity=".7" rx="6" ry="18"/><path fill="#1d1c2a" fill-opacity=".5" d="M94 77h19v26H94z"/><path fill="#0d0602" fill-opacity=".6" d="M52.5 77.1l3 57-16 .8-3-57z"/><path fill="#51555c" fill-opacity=".5" d="M136 11L85 64 15 46z"/><path fill="#8d887a" fill-opacity=".4" d="M21 76l18 6-9 61z"/><path fill="#ffcd9f" fill-opacity=".5" d="M59 72h36v11H59z"/><path fill="#423431" fill-opacity=".9" d="M87 132.8L75 19.4l2-.2 12 113.4z"/><path fill="#aba7a9" fill-opacity=".5" d="M74 61L37 49l29 1z"/><ellipse cx="244" cy="78" fill="#060304" fill-opacity=".5" rx="92" ry="29"/><path fill="#142637" fill-opacity=".7" d="M142.3 144.4l6.8 40.6 34-42.2-51.9-17.8z"/><path fill="#000200" fill-opacity=".4" d="M106 185l9-40L6 185z"/><path fill="#8d6b4a" fill-opacity=".4" d="M98 0h38v37H98z"/><path fill="#13221f" fill-opacity=".5" d="M36.3 21.3L51-7.2l50.8 25.9L87 47.2z"/><path fill-opacity=".5" d="M159 31.3l-16.8 2-5.3-42.6 17-2z"/><path fill="#785f41" fill-opacity=".6" d="M61 115h24v44H61z"/><path fill="#cecac2" fill-opacity=".5" d="M114.8 135l-11.7-27.7 10.1-4.3 11.7 27.7z"/><path fill="#6a6e74" fill-opacity=".7" d="M136.3 107.4L133 40.3l12.3 5.9-4.7 60.5z"/><path fill="#bde3d6" fill-opacity=".3" d="M87.2 7.7l-2.4 2.2-51.5-25.7L85.5-1.2z"/><ellipse cx="10" cy="67" fill="#c58235" fill-opacity=".6" rx="12" ry="3"/><path fill="#dbc0aa" fill-opacity=".5" d="M86 70h7v46h-7z"/><path fill="#b6b1b1" fill-opacity=".6" d="M96.5 54.2l47 68.5-12.9-7.8 8-30.5z"/><path fill="#5a494d" fill-opacity=".5" d="M66.1 73.1l23.6-48.7L74 10.3l26.7 57.4z"/><path fill="#493a38" fill-opacity=".5" d="M94.3 78.4l37.2 34.3-8.9-22.3-27.5 24.9z"/><path fill="#0f0600" fill-opacity=".3" d="M122.3 133.8l-22.5-14.3 2.9 64.3 6.3-32.1z"/><ellipse cx="12" cy="79" fill="#fff" fill-opacity=".5" rx="5" ry="4"/><ellipse cx="71" cy="65" fill="#ffb078" fill-opacity=".3" rx="26" ry="3"/><path fill="#b15a09" fill-opacity=".6" d="M11 91l-27 9L2 72z"/><path fill="#feffff" fill-opacity=".5" d="M117.9 70L106 57.7l10-9.7 12 12.3z"/><path fill="#3c373c" fill-opacity=".7" d="M88.1 63.8L76.4 16.6l-6.9 24.6L7.1 16.6z"/><ellipse cx="31" cy="99" fill="#b99981" fill-opacity=".6" rx="5" ry="7"/><circle r="1" fill="#030201" fill-opacity=".6" transform="matrix(4.10132 29.06734 -31.79874 4.48672 251.6 75.6)"/><circle r="1" fill="#1d1b20" fill-opacity=".5" transform="matrix(-3.44082 -20.39447 20.73848 -3.49886 175.3 77.5)"/><path fill-opacity=".5" d="M21 89h29v3H21z"/><path fill="#9d5d22" fill-opacity=".3" d="M187 171l84-8-17 22z"/><path fill="#a1998e" fill-opacity=".6" d="M90.4 157.9l3.6 1 6.1-40.8-16.3-34.7z"/><ellipse cx="7" cy="37" fill="#2d2930" fill-opacity=".6" rx="33" ry="10"/><path fill="#8d8d91" fill-opacity=".5" d="M180.8 57.8l-18.9 2-6.7-63.6 18.9-2z"/><circle cx="65" cy="76" r="5" fill="#ffffd2" fill-opacity=".6"/><path fill="#797870" fill-opacity=".4" d="M63 17L46 1l20 5z"/><path fill="#c0e4ef" fill-opacity=".2" d="M63.8 40.1l1.7-3.8-32.8-9.5 17.5 9.3z"/><circle cx="25" r="25" fill="#0b0b0b" fill-opacity=".6"/><path fill="#0a0706" fill-opacity=".6" d="M17.5 144.3l41.1-4.2-16.3-32.4 5 17.6z"/><ellipse cx="37" cy="70" fill="#050000" fill-opacity=".5" rx="24" ry="2"/><circle r="1" fill="#947e71" fill-opacity=".6" transform="matrix(1.40626 -6.37746 10.09515 2.22603 136 121.6)"/><path fill="#0e0601" fill-opacity=".5" d="M0 154h43v16H0z"/><path fill="#c1d7dd" fill-opacity=".5" d="M144.2 185l-24.7-79.4-.6 78.6-5.2.8z"/><circle r="1" fill="#522b15" fill-opacity=".6" transform="rotate(13.2 -472.4 105.6) scale(11.08279 27.18336)"/><ellipse cx="201" cy="40" fill="#9b9790" fill-opacity=".5" rx="43" ry="12"/><path fill="#7b7169" fill-opacity=".4" d="M40.8 124.6l-4.4-8.3-7.5-1.8-1.2 21.2z"/><ellipse cx="118" cy="4" fill="#010533" fill-opacity=".2" rx="3" ry="42"/><circle cx="101" cy="5" r="12" fill="#7a5b3f" fill-opacity=".7"/><path fill="#95a7a6" fill-opacity=".3" d="M126.6 46.7L91.5 60.5 110 23.8l2.8-2.6z"/></g></svg>