<svg xmlns="http://www.w3.org/2000/svg" viewBox="0 0 300 199"><defs/><path fill="#4c3f31" d="M0 0h300v199H0z"/><g transform="translate(.6 .6) scale(1.17188)"><circle r="1" fill="#f4e7d6" fill-opacity=".6" transform="rotate(139.2 16.7 59.9) scale(60.63068 47.57155)"/><circle r="1" fill="#f4f1e4" fill-opacity=".6" transform="rotate(-94.5 120.1 -45.5) scale(11.07725 102.11876)"/><circle r="1" fill="#020200" fill-opacity=".7" transform="matrix(-119.45085 30.82959 -14.08089 -54.55714 175.1 153.3)"/><ellipse cx="136" fill="#060000" fill-opacity=".8" rx="38" ry="55"/><path fill="#fff" fill-opacity=".6" d="M34 136L11 56l33-5z"/><circle cx="16" cy="12" r="41" fill="#100600" fill-opacity=".9"/><circle r="1" fill="#4b270d" fill-opacity=".6" transform="matrix(-23.62073 28.4513 -6.89766 -5.72655 70.1 65.5)"/><path fill="#fffdf0" fill-opacity=".5" d="M31 95h44v59H31z"/><ellipse cx="217" fill="#251200" fill-opacity=".9" rx="47" ry="39"/><circle r="1" fill="#8e5b2a" fill-opacity=".5" transform="matrix(-2.67656 -20.3589 37.61244 -4.94486 70.8 38.6)"/><path fill="#f5f9f7" fill-opacity=".5" d="M145.7 64.1l27.7-1.1-6.4 30.1-58.2-29.8z"/><circle r="1" fill="#693600" fill-opacity=".7" transform="rotate(138.4 86.4 52.5) scale(34.73227 22.9429)"/><circle r="1" fill="#f1eee4" fill-opacity=".6" transform="matrix(-9.61006 -6.31569 29.4152 -44.75867 74.2 110.4)"/><circle r="1" fill="#625230" fill-opacity=".5" transform="matrix(-29.8547 24.46347 -8.81479 -10.75738 100.6 125.9)"/><path fill="#241401" fill-opacity=".3" d="M-16 161l73 24L8 75z"/><ellipse cx="125" fill="#030000" fill-opacity=".5" rx="215" ry="24"/><circle r="1" fill="#49351a" fill-opacity=".6" transform="matrix(-11.80942 4.30768 -1.12126 -3.07392 28 73.5)"/><circle r="1" fill="#625838" fill-opacity=".4" transform="matrix(-61.2561 21.60722 -4.99417 -14.1584 206.2 86.2)"/><ellipse cx="62" cy="33" fill="#e4baa3" fill-opacity=".6" rx="8" ry="11"/><path fill="#bdb0a2" fill-opacity=".4" d="M-16 145.3l53.1 9.1 63.1-98.6L-8 155.9z"/><path fill="#dac1a0" fill-opacity=".4" d="M248.6 83.2l-57.4-35 27.1 6.2 33 1.2z"/><path fill="#fcffff" fill-opacity=".5" d="M17 53l-4 21 47-14z"/><ellipse cx="114" cy="72" fill="#8c836c" fill-opacity=".4" rx="8" ry="50"/><circle r="1" fill="#020200" fill-opacity=".8" transform="matrix(73.9492 -9.45228 5.58021 43.65636 220 164.6)"/><circle r="1" fill="#776f5c" fill-opacity=".5" transform="rotate(-11.2 380.7 -22.3) scale(6.88026 32.5373)"/><path fill="#231306" fill-opacity=".5" d="M48.4 81.8L36.6 93.6l6.3.3 50.7-29.3z"/><ellipse cx="137" cy="106" fill="#090f00" fill-opacity=".5" rx="10" ry="28"/><path fill="#552c00" fill-opacity=".7" d="M59.7 49.2L46 7.2l-12.2 47L54 55.6z"/><ellipse cx="193" cy="31" fill="#653702" fill-opacity=".5" rx="34" ry="26"/><path fill-opacity=".6" d="M212-6l37-10-11 75z"/><path fill="#eceaee" fill-opacity=".3" d="M139 76L59 51l37 27z"/><path fill="#767165" fill-opacity=".7" d="M199.1 74l-22.2-.6-15.1 14.8-21.2 28z"/><path fill="#150000" fill-opacity=".5" d="M152 63l-37-2 30-29z"/><path fill="#fef8ef" fill-opacity=".4" d="M225 53.2l24.8 11.1-126.7 4.5 97.5-11.7z"/><circle r="1" fill="#957b60" fill-opacity=".6" transform="matrix(-7.39973 -12.46256 24.47718 -14.53349 252.7 63.4)"/><path fill-opacity=".5" d="M77 139l7 46 9-64z"/><ellipse cx="64" cy="73" fill="#150700" fill-opacity=".4" rx="16" ry="5"/><path fill="#f8f8f2" fill-opacity=".6" d="M63.3 58.3L21.3 95l29-12.5-4.5-17z"/><circle r="1" fill="#1d1800" fill-opacity=".4" transform="matrix(3.68803 19.9364 -64.69576 11.96805 208.1 106.3)"/><circle r="1" fill="#2f210f" fill-opacity=".6" transform="rotate(168.5 -1.9 52.5) scale(9.33922 45.01901)"/><path fill="#a18971" fill-opacity=".6" d="M70.2 131.1l14.1-19 28 26.7-4.3-48.6z"/><path fill="#080000" fill-opacity=".5" d="M0 158h45v12H0z"/><path fill="#e8effd" fill-opacity=".5" d="M10.4 151.5l.7-8.5-10 1.5-14.7-11.5z"/><path fill="#f9fef1" fill-opacity=".6" d="M249.9 27l11.8 7.4-1.6 2.6-11.8-7.4z"/><path fill="#89725d" fill-opacity=".5" d="M102 24L55 62l57-10z"/><path fill="#5a2d00" fill-opacity=".6" d="M81.2 3.7l4.2 58.2-14.3-36.4-38.1-5z"/><path fill="#dac8b2" fill-opacity=".4" d="M70.1 107l18.8 25.4-53 15.9 28.8 11.5z"/><path fill="#c2b984" fill-opacity=".5" d="M145 150h6v6h-6z"/><circle cx="80" cy="89" r="14" fill="#fdfcf8" fill-opacity=".4"/><circle r="1" fill-opacity=".4" transform="matrix(4.98012 -18.17287 53.25753 14.59477 103.2 3.4)"/><path fill="#e9f0ea" fill-opacity=".5" d="M144 64h24v23h-24z"/><path fill="#4b6021" fill-opacity=".5" d="M113 82h45v10h-45z"/><path fill="#d7d1c6" fill-opacity=".5" d="M109 105.6l.8 4.7 17.7-16.8-6.1-4z"/><path fill="#191402" fill-opacity=".9" d="M123.2 88.2l29.9 6.4-50.9 90.4 35.1-101.6z"/><path fill="#cec6be" fill-opacity=".5" d="M85 48l36 5-16 14z"/><path fill="#3c2d1f" fill-opacity=".5" d="M109 18l8 35-12 1z"/><path fill="#282101" fill-opacity=".5" d="M247.3 62.7l3.3-2.1 19.6 50.5.8-74.7z"/><path fill="#3e2a0d" fill-opacity=".3" d="M133 146l-45-29-41 54z"/><ellipse cx="7" cy="29" fill="#000001" fill-opacity=".4" rx="33" ry="27"/><circle r="1" fill="#9d7a67" fill-opacity=".8" transform="matrix(-9.9979 1.1568 -2.01277 -17.39588 68.2 48.3)"/><path fill="#9e9fa4" fill-opacity=".6" d="M81.1 2.3l12.3 8.6-.5.8-12.3-8.6z"/><ellipse cx="33" cy="142" fill="#a28b75" fill-opacity=".5" rx="7" ry="16"/><path fill="#f8f9f4" fill-opacity=".6" d="M24.4 109.7l-3-31.1 26.5 20.9-21.4 17.7z"/><ellipse cx="2" cy="107" fill="#0f0600" fill-opacity=".5" rx="5" ry="28"/><path fill="#040000" fill-opacity=".5" d="M112 125h41v26h-41z"/></g></svg>