<svg xmlns="http://www.w3.org/2000/svg" xmlns:xlink="http://www.w3.org/1999/xlink" width="100%" height="100%" viewBox="0 0 100% 100%">
  <g stroke="rgba(0, 0, 0, 0.5)">
      <line x1="0" y1="6.29629%" x2="100%" y2="6.29629%"/>
      <line x1="0" y1="25%" x2="100%" y2="25%"/>
      <line x1="0" y1="33.33333%" x2="100%" y2="33.33333%"/>
      <line x1="0" y1="50%" x2="100%" y2="50%"/>
      <line x1="0" y1="66.66666%" x2="100%" y2="66.66666%"/>
      <line x1="0" y1="75%" x2="100%" y2="75%"/>
      <line x1="0" y1="93.7037%" x2="100%" y2="93.7037%"/>
      <line x1="3.125%" y1="0" x2="3.125%" y2="100%"/>
      <line x1="6.25%" y1="0" x2="6.25%" y2="100%"/>
      <line x1="12.5%" y1="0" x2="12.5%" y2="100%"/>
      <line x1="16.66666%" y1="0" x2="16.66666%" y2="100%"/>
      <line x1="20%" y1="0" x2="20%" y2="100%"/>
      <line x1="25%" y1="0" x2="25%" y2="100%"/>
      <line x1="40%" y1="0" x2="40%" y2="100%"/>
      <line x1="50%" y1="0" x2="50%" y2="100%"/>
      <line x1="60%" y1="0" x2="60%" y2="100%"/>
      <line x1="75%" y1="0" x2="75%" y2="100%"/>
      <line x1="80%" y1="0" x2="80%" y2="100%"/>
      <line x1="83.33333%" y1="0" x2="83.33333%" y2="100%"/>
      <line x1="87.5%" y1="0" x2="87.5%" y2="100%"/>
      <line x1="93.75%" y1="0" x2="93.75%" y2="100%"/>
      <line x1="96.875%" y1="0" x2="96.875%" y2="100%"/>
      <line x1="0" y1="0" x2="100%" y2="50%"/>
      <line x1="0" y1="0" x2="100%" y2="100%"/>
      <line x1="0" y1="0" x2="50%" y2="100%"/>
      <line x1="0" y1="0" x2="25%" y2="100%"/>
      <line x1="0" y1="50%" x2="100%" y2="0"/>
      <line x1="0" y1="100%" x2="100%" y2="0"/>
      <line x1="50%" y1="100%" x2="100%" y2="0"/>
      <line x1="75%" y1="100%" x2="100%" y2="0"/>
      <line x1="0" y1="100%" x2="25%" y2="0"/>
      <line x1="0" y1="100%" x2="100%" y2="50%"/>
      <line x1="0" y1="100%" x2="50%" y2="0"/>
      <line x1="0" y1="50%" x2="100%" y2="100%"/>
      <line x1="50%" y1="0" x2="100%" y2="100%"/>
      <line x1="75%" y1="0" x2="100%" y2="100%"/>
  </g>
</svg>