<!-- Generator: Adobe Illustrator 25.0.1, SVG Export Plug-In  -->
<svg version="1.1" xmlns="http://www.w3.org/2000/svg" xmlns:xlink="http://www.w3.org/1999/xlink" x="0px" y="0px"
	 width="577.99px" height="158.2px" viewBox="0 0 577.99 158.2" style="overflow:visible;enable-background:new 0 0 577.99 158.2;"
	 xml:space="preserve">
<style type="text/css">
	.st0{fill:none;stroke:#FFFFFF;stroke-miterlimit:10;}
	.st1{fill:none;}
</style>
<defs>
</defs>
<g>
	<path class="st0" d="M74.5,7c-7.6-4.33-16.33-6.5-26.2-6.5h-40c-2.27,0-4.13,0.73-5.6,2.2C1.23,4.17,0.5,6.03,0.5,8.3v140.6
		c0,2.27,0.73,4.13,2.2,5.6c1.47,1.47,3.33,2.2,5.6,2.2c2.27,0,4.13-0.73,5.6-2.2c1.47-1.47,2.2-3.33,2.2-5.6v-47.4h32.2
		c9.87,0,18.6-2.17,26.2-6.5c7.6-4.33,13.53-10.27,17.8-17.8c4.27-7.53,6.4-16.17,6.4-25.9c0-10-2.13-18.8-6.4-26.4
		C88.03,17.3,82.1,11.33,74.5,7z M79,69.5C76,74.83,71.83,79,66.5,82c-5.33,3-11.4,4.5-18.2,4.5H16.1v-71h32.2
		c6.8,0,12.87,1.53,18.2,4.6c5.33,3.07,9.5,7.27,12.5,12.6c3,5.33,4.5,11.53,4.5,18.6C83.5,58.1,82,64.17,79,69.5z"/>
	<path class="st0" d="M198.1,52c-7.47-3.93-15.93-5.9-25.4-5.9c-8.67,0-16.53,1.9-23.6,5.7c-4.96,2.67-9.22,6.04-12.8,10.09V55.1
		V8.3c0-2.4-0.7-4.3-2.1-5.7c-1.4-1.4-3.23-2.1-5.5-2.1c-2.4,0-4.3,0.7-5.7,2.1s-2.1,3.3-2.1,5.7v46.8v49.2v44.8
		c0,2.27,0.7,4.1,2.1,5.5c1.4,1.4,3.3,2.1,5.7,2.1c2.27,0,4.1-0.7,5.5-2.1c1.4-1.4,2.1-3.23,2.1-5.5v-44.8V89.9
		c0-5.6,1.53-10.6,4.6-15c3.07-4.4,7.23-7.87,12.5-10.4c5.27-2.53,11.17-3.8,17.7-3.8c6.8,0,12.9,1.33,18.3,4
		c5.4,2.67,9.67,6.67,12.8,12c3.13,5.33,4.7,12.13,4.7,20.4v52c0,2.13,0.73,3.93,2.2,5.4c1.47,1.47,3.33,2.2,5.6,2.2
		c2.13,0,3.93-0.73,5.4-2.2c1.47-1.47,2.2-3.27,2.2-5.4v-52c0-10.93-2.17-20.2-6.5-27.8C211.47,61.7,205.57,55.93,198.1,52z"/>
	<path class="st1" d="M334.6,53.5c-8.33-4.8-17.83-7.2-28.5-7.2c-10.67,0-20.2,2.4-28.6,7.2c-8.4,4.8-15,11.4-19.8,19.8
		c-4.8,8.4-7.2,18-7.2,28.8c0,10.67,2.4,20.2,7.2,28.6c4.8,8.4,11.4,15,19.8,19.8c8.4,4.8,17.93,7.2,28.6,7.2
		c10.67,0,20.17-2.4,28.5-7.2c8.33-4.8,14.93-11.4,19.8-19.8c4.87-8.4,7.3-17.93,7.3-28.6c-0.13-10.8-2.6-20.4-7.4-28.8
		S342.93,58.3,334.6,53.5z M341.3,123.5c-3.47,6.27-8.27,11.2-14.4,14.8c-6.13,3.6-13.07,5.4-20.8,5.4c-7.73,0-14.67-1.8-20.8-5.4
		c-6.13-3.6-10.97-8.53-14.5-14.8c-3.53-6.27-5.3-13.4-5.3-21.4c0-8,1.77-15.17,5.3-21.5c3.53-6.33,8.37-11.3,14.5-14.9
		c6.13-3.6,13.06-5.4,20.8-5.4c7.73,0,14.67,1.8,20.8,5.4c6.13,3.6,10.93,8.57,14.4,14.9c3.47,6.33,5.2,13.5,5.2,21.5
		C346.5,110.1,344.76,117.23,341.3,123.5z"/>
	<path class="st0" d="M439.89,141.3h-5.4c-6.27,0-11.4-2.17-15.4-6.5c-4-4.33-6-9.9-6-16.7V64.7h22.6c2,0,3.67-0.63,5-1.9
		c1.33-1.27,2-2.83,2-4.7c0-2-0.67-3.63-2-4.9c-1.33-1.27-3-1.9-5-1.9h-22.6v-31c0-2.27-0.73-4.13-2.2-5.6
		c-1.47-1.47-3.33-2.2-5.6-2.2c-2.27,0-4.1,0.73-5.5,2.2c-1.4,1.47-2.1,3.33-2.1,5.6v31h-13c-2,0-3.67,0.63-5,1.9
		c-1.33,1.27-2,2.9-2,4.9c0,1.87,0.67,3.43,2,4.7c1.33,1.27,3,1.9,5,1.9h13v53.4c0,7.47,1.6,14.1,4.8,19.9
		c3.2,5.8,7.57,10.37,13.1,13.7c5.53,3.33,11.83,5,18.9,5h4.2c2.4,0,4.4-0.7,6-2.1c1.6-1.4,2.4-3.23,2.4-5.5c0-2.27-0.67-4.13-2-5.6
		C443.76,142.03,442.03,141.3,439.89,141.3z"/>
	<path class="st0" d="M570.09,73.3c-4.8-8.4-11.37-15-19.7-19.8c-8.33-4.8-17.83-7.2-28.5-7.2c-10.67,0-20.2,2.4-28.6,7.2
		c-8.4,4.8-15,11.4-19.8,19.8s-7.2,18-7.2,28.8c0,10.67,2.4,20.2,7.2,28.6c4.8,8.4,11.4,15,19.8,19.8s17.93,7.2,28.6,7.2
		c10.67,0,20.17-2.4,28.5-7.2c8.33-4.8,14.93-11.4,19.8-19.8c4.87-8.4,7.3-17.93,7.3-28.6C577.36,91.3,574.89,81.7,570.09,73.3z
		 M557.09,123.5c-3.47,6.27-8.27,11.2-14.4,14.8c-6.13,3.6-13.07,5.4-20.8,5.4c-7.73,0-14.67-1.8-20.8-5.4
		c-6.13-3.6-10.97-8.53-14.5-14.8c-3.53-6.27-5.3-13.4-5.3-21.4c0-8,1.77-15.17,5.3-21.5c3.53-6.33,8.37-11.3,14.5-14.9
		c6.13-3.6,13.07-5.4,20.8-5.4c7.73,0,14.67,1.8,20.8,5.4c6.13,3.6,10.93,8.57,14.4,14.9c3.47,6.33,5.2,13.5,5.2,21.5
		C562.29,110.1,560.56,117.23,557.09,123.5z"/>
</g>
</svg>
