<!-- Generator: Adobe Illustrator 25.0.1, SVG Export Plug-In  -->
<svg version="1.1" xmlns="http://www.w3.org/2000/svg" xmlns:xlink="http://www.w3.org/1999/xlink" x="0px" y="0px" width="41.5px"
	 height="345.59px" viewBox="0 0 41.5 345.59" style="overflow:visible;enable-background:new 0 0 41.5 345.59;"
	 xml:space="preserve">
<style type="text/css">
	.st0{fill:none;stroke:#FFFFFF;stroke-miterlimit:10;}
	.st1{fill:none;}
</style>
<defs>
</defs>
<g>
	<path class="st0" d="M8.46,56.73c0.82,0,1.49-0.26,2.02-0.79c0.53-0.53,0.79-1.2,0.79-2.02V36.86h11.59c3.55,0,6.7-0.78,9.43-2.34
		c2.74-1.56,4.87-3.7,6.41-6.41c1.54-2.71,2.3-5.82,2.3-9.32c0-3.6-0.77-6.77-2.3-9.5c-1.54-2.74-3.67-4.88-6.41-6.44
		c-2.74-1.56-5.88-2.34-9.43-2.34H8.46c-0.82,0-1.49,0.26-2.02,0.79c-0.53,0.53-0.79,1.2-0.79,2.02v50.62
		c0,0.82,0.26,1.49,0.79,2.02C6.97,56.47,7.64,56.73,8.46,56.73z M11.26,5.9h11.59c2.45,0,4.63,0.55,6.55,1.66
		c1.92,1.1,3.42,2.62,4.5,4.54c1.08,1.92,1.62,4.15,1.62,6.7c0,2.45-0.54,4.63-1.62,6.55c-1.08,1.92-2.58,3.42-4.5,4.5
		c-1.92,1.08-4.1,1.62-6.55,1.62H11.26V5.9z"/>
	<path class="st0" d="M5.4,128.73c0.82,0,1.48-0.25,1.98-0.76s0.76-1.16,0.76-1.98v-16.13v-5.18c0-2.02,0.55-3.82,1.66-5.4
		c1.1-1.58,2.6-2.83,4.5-3.74c1.9-0.91,4.02-1.37,6.37-1.37c2.45,0,4.64,0.48,6.59,1.44c1.94,0.96,3.48,2.4,4.61,4.32
		c1.13,1.92,1.69,4.37,1.69,7.34V126c0,0.77,0.26,1.42,0.79,1.94c0.53,0.53,1.2,0.79,2.02,0.79c0.77,0,1.42-0.26,1.94-0.79
		c0.53-0.53,0.79-1.18,0.79-1.94v-18.72c0-3.94-0.78-7.27-2.34-10.01c-1.56-2.74-3.68-4.81-6.37-6.23
		c-2.69-1.42-5.74-2.12-9.14-2.12c-3.12,0-5.95,0.68-8.5,2.05c-1.79,0.96-3.32,2.19-4.61,3.65v-2.46V75.31
		c0-0.86-0.25-1.55-0.76-2.05S6.21,72.5,5.4,72.5c-0.86,0-1.55,0.25-2.05,0.76c-0.5,0.5-0.76,1.19-0.76,2.05v16.85v17.71V126
		c0,0.82,0.25,1.48,0.76,1.98C3.85,128.48,4.53,128.73,5.4,128.73z"/>
	<path class="st1" d="M30.78,163.58c-3-1.73-6.42-2.59-10.26-2.59c-3.84,0-7.27,0.86-10.3,2.59c-3.02,1.73-5.4,4.1-7.13,7.13
		s-2.59,6.48-2.59,10.37c0,3.84,0.86,7.27,2.59,10.3s4.1,5.4,7.13,7.13c3.02,1.73,6.46,2.59,10.3,2.59c3.84,0,7.26-0.86,10.26-2.59
		c3-1.73,5.38-4.1,7.13-7.13c1.75-3.02,2.63-6.46,2.63-10.3c-0.05-3.89-0.94-7.34-2.66-10.37
		C36.14,167.68,33.78,165.31,30.78,163.58z M33.19,188.78c-1.25,2.26-2.98,4.03-5.18,5.33c-2.21,1.3-4.7,1.94-7.49,1.94
		c-2.78,0-5.28-0.65-7.49-1.94c-2.21-1.3-3.95-3.07-5.22-5.33c-1.27-2.26-1.91-4.82-1.91-7.7c0-2.88,0.64-5.46,1.91-7.74
		c1.27-2.28,3.01-4.07,5.22-5.36c2.21-1.3,4.7-1.94,7.49-1.94c2.78,0,5.28,0.65,7.49,1.94c2.21,1.3,3.94,3.08,5.18,5.36
		c1.25,2.28,1.87,4.86,1.87,7.74C35.06,183.96,34.44,186.52,33.19,188.78z"/>
	<path class="st0" d="M19.4,221.61c-0.53-0.53-1.2-0.79-2.02-0.79c-0.82,0-1.48,0.26-1.98,0.79c-0.5,0.53-0.76,1.2-0.76,2.02v11.16
		H9.97c-0.72,0-1.32,0.23-1.8,0.68c-0.48,0.46-0.72,1.04-0.72,1.76c0,0.67,0.24,1.24,0.72,1.69c0.48,0.46,1.08,0.68,1.8,0.68h4.68
		v19.22c0,2.69,0.58,5.08,1.73,7.16c1.15,2.09,2.72,3.73,4.72,4.93c1.99,1.2,4.26,1.8,6.8,1.8h1.51c0.86,0,1.58-0.25,2.16-0.76
		s0.86-1.16,0.86-1.98c0-0.82-0.24-1.49-0.72-2.02c-0.48-0.53-1.1-0.79-1.87-0.79H27.9c-2.26,0-4.1-0.78-5.54-2.34
		c-1.44-1.56-2.16-3.56-2.16-6.01v-19.22h8.14c0.72,0,1.32-0.23,1.8-0.68c0.48-0.46,0.72-1.02,0.72-1.69c0-0.72-0.24-1.31-0.72-1.76
		c-0.48-0.46-1.08-0.68-1.8-0.68h-8.14v-11.16C20.19,222.81,19.93,222.14,19.4,221.61z"/>
	<path class="st0" d="M30.78,307.58c-3-1.73-6.42-2.59-10.26-2.59c-3.84,0-7.27,0.86-10.3,2.59c-3.02,1.73-5.4,4.1-7.13,7.13
		c-1.73,3.02-2.59,6.48-2.59,10.37c0,3.84,0.86,7.27,2.59,10.3c1.73,3.02,4.1,5.4,7.13,7.13c3.02,1.73,6.46,2.59,10.3,2.59
		c3.84,0,7.26-0.86,10.26-2.59c3-1.73,5.38-4.1,7.13-7.13c1.75-3.02,2.63-6.46,2.63-10.3c-0.05-3.89-0.94-7.34-2.66-10.37
		C36.14,311.68,33.78,309.31,30.78,307.58z M33.19,332.78c-1.25,2.26-2.98,4.03-5.18,5.33c-2.21,1.3-4.7,1.94-7.49,1.94
		c-2.78,0-5.28-0.65-7.49-1.94c-2.21-1.3-3.95-3.07-5.22-5.33c-1.27-2.26-1.91-4.82-1.91-7.7s0.64-5.46,1.91-7.74
		c1.27-2.28,3.01-4.07,5.22-5.36c2.21-1.3,4.7-1.94,7.49-1.94c2.78,0,5.28,0.65,7.49,1.94c2.21,1.3,3.94,3.08,5.18,5.36
		c1.25,2.28,1.87,4.86,1.87,7.74S34.44,330.52,33.19,332.78z"/>
</g>
</svg>
