 <svg
      xmlns="http://www.w3.org/2000/svg"
      width="100%"
      viewBox="0 0 1101.81 161.2">
      <path
        fill="white"
        d="M58.7 69.9a75.3 75.3 0 01-22.3-6.1c-5.5-2.7-9.5-6-11.9-9.8A23 23 0 0121 41.5c0-8.5 3.2-15 9.6-19.5A43.5 43.5 0 0156 15.3c6 .1 11.2 1 15.4 2.6 4.3 1.6 8 3.8 11 6.5a45 45 0 017.4 8.7 8 8 0 004.7 3.8 8 8 0 006.1-.4 7 7 0 003.5-4.6c.5-2 0-4-1.3-6.2A53 53 0 0076.1 4 65.8 65.8 0 0030 5.4 41.9 41.9 0 0012 19.3c-4.3 6-6.5 13-6.5 21.2 0 11.3 4.4 20.9 13.2 28.7 8.8 7.8 21 12.6 36.6 14.5a48 48 0 0128.2 11.2c6 5.9 9 12.9 9 21 0 6.4-1.5 11.8-4.7 16.3A29.4 29.4 0 0175 142.4a58.7 58.7 0 01-36.4 1c-5.3-1.7-9.9-4-13.8-7.1-3.8-3-6.8-6.5-8.8-10.4a9.2 9.2 0 00-4-4.2 7.3 7.3 0 00-5.6-.6c-2.4.7-4 1.9-5 3.7s-1 3.8 0 5.9c2.8 6 6.9 11.3 12.2 15.8 5.4 4.5 11.7 8 19 10.5a73.2 73.2 0 0044 .7c6.3-2 11.8-4.9 16.5-8.7 4.8-3.8 8.4-8.5 11-14.1 2.6-5.6 4-12 4-19.2 0-12.5-4.1-22.7-12.2-30.5-8-7.8-20.4-12.9-37-15.3zm0 0a75.3 75.3 0 01-22.3-6.1c-5.5-2.7-9.5-6-11.9-9.8A23 23 0 0121 41.5c0-8.5 3.2-15 9.6-19.5A43.5 43.5 0 0156 15.3c6 .1 11.2 1 15.4 2.6 4.3 1.6 8 3.8 11 6.5a45 45 0 017.4 8.7 8 8 0 004.7 3.8 8 8 0 006.1-.4 7 7 0 003.5-4.6c.5-2 0-4-1.3-6.2A53 53 0 0076.1 4 65.8 65.8 0 0030 5.4 41.9 41.9 0 0012 19.3c-4.3 6-6.5 13-6.5 21.2 0 11.3 4.4 20.9 13.2 28.7 8.8 7.8 21 12.6 36.6 14.5a48 48 0 0128.2 11.2c6 5.9 9 12.9 9 21 0 6.4-1.5 11.8-4.7 16.3A29.4 29.4 0 0175 142.4a58.7 58.7 0 01-36.4 1c-5.3-1.7-9.9-4-13.8-7.1-3.8-3-6.8-6.5-8.8-10.4a9.2 9.2 0 00-4-4.2 7.3 7.3 0 00-5.6-.6c-2.4.7-4 1.9-5 3.7s-1 3.8 0 5.9c2.8 6 6.9 11.3 12.2 15.8 5.4 4.5 11.7 8 19 10.5a73.2 73.2 0 0044 .7c6.3-2 11.8-4.9 16.5-8.7 4.8-3.8 8.4-8.5 11-14.1 2.6-5.6 4-12 4-19.2 0-12.5-4.1-22.7-12.2-30.5-8-7.8-20.4-12.9-37-15.3zm165-20a8 8 0 00-5.7-.3c-2 .6-3.3 1.8-4 3.7l-38 83.3-38.5-83.3c-1-1.7-2.2-3-4-3.6a6.5 6.5 0 00-5.4.4c-2 1-3.3 2.3-4 4-.6 1.7-.6 3.5.2 5.2l44.4 94.2c1.6 3.5 4 5.2 7.2 5.2 3.5 0 6-1.7 7.6-5.2l43.8-94.4c.8-1.6.9-3.3.2-5.1-.7-1.8-2-3.2-3.8-4.1zm103.7 5.6a56 56 0 00-28.5-7.2 56.6 56.6 0 00-28.6 7.2 52.3 52.3 0 00-19.8 19.8 57 57 0 00-7.2 28.8c0 10.7 2.4 20.2 7.2 28.6 4.8 8.4 11.4 15 19.8 19.8 8.4 4.8 18 7.2 28.6 7.2a53.3 53.3 0 0048.3-27 56 56 0 007.3-28.6c-.1-10.8-2.6-20.4-7.4-28.8s-11.4-15-19.7-19.8zm6.7 70a38.4 38.4 0 01-14.4 14.8c-6.1 3.6-13 5.4-20.8 5.4a39.1 39.1 0 01-35.3-20.2 42.9 42.9 0 01-5.3-21.4c0-8 1.8-15.2 5.3-21.5A39 39 0 01299 62.3c7.8 0 14.7 1.8 20.8 5.4 6.2 3.6 11 8.6 14.4 14.9a44 44 0 015.2 21.5c0 8-1.7 15.1-5.2 21.4zm135.2-69.9a52.7 52.7 0 00-27.6-7.3c-9 0-17 1.9-24.3 5.7A48.2 48.2 0 00400 69.1V10.3c0-2.4-.7-4.3-2-5.7a7.4 7.4 0 00-5.6-2.1c-2.4 0-4.3.7-5.7 2.1s-2 3.3-2 5.7v94.4a56 56 0 007.4 28.1 53.5 53.5 0 0048 26.9 53.8 53.8 0 0055.8-55.8c0-10.5-2.5-20-7.2-28.4a53.2 53.2 0 00-19.3-19.9zm6 69.7a39.9 39.9 0 01-35.4 20.4 39.3 39.3 0 01-35-20.4 43.4 43.4 0 01-5.2-21.4c0-7.9 1.8-15 5.2-21.3a38.3 38.3 0 0114.4-14.9 40 40 0 0120.6-5.4 39 39 0 0135.3 20.3 43 43 0 015.3 21.3c0 8-1.8 15.1-5.3 21.4zm129-69.8a56 56 0 00-28.6-7.2 56.6 56.6 0 00-28.6 7.2 52.3 52.3 0 00-19.8 19.8 57 57 0 00-7.2 28.8c0 10.7 2.4 20.2 7.2 28.6 4.8 8.4 11.4 15 19.8 19.8 8.4 4.8 18 7.2 28.6 7.2a53.3 53.3 0 0048.3-27 56 56 0 007.3-28.6c-.1-10.8-2.6-20.4-7.4-28.8s-11.4-15-19.7-19.8zm6.6 70a38.4 38.4 0 01-14.4 14.8c-6.1 3.6-13 5.4-20.8 5.4a39.1 39.1 0 01-35.3-20.2 42.9 42.9 0 01-5.3-21.4c0-8 1.8-15.2 5.3-21.5a39 39 0 0135.3-20.3c7.7 0 14.7 1.8 20.8 5.4 6.1 3.6 11 8.6 14.4 14.9a44 44 0 015.2 21.5c0 8-1.7 15.1-5.2 21.4zm148-123c-2.3 0-4.1.7-5.6 2.1a7.5 7.5 0 00-2.2 5.7v58.8a51 51 0 00-41.6-20.8 52.7 52.7 0 00-46.9 27.2 56.9 56.9 0 00-7 28.4 53.8 53.8 0 0055.6 55.8 53.5 53.5 0 0047.9-26.9 57.7 57.7 0 007.6-28.1V10.3c0-2.4-.7-4.3-2.2-5.7a7.8 7.8 0 00-5.6-2.1zm-12.7 122.8a39.2 39.2 0 01-35.1 20.4 39.3 39.3 0 01-35.2-20.4 42.2 42.2 0 01-5.4-21.4c0-7.9 1.8-15 5.4-21.3a39.7 39.7 0 0135.2-20.3 39.1 39.1 0 0135.1 20.3 43 43 0 015.3 21.3c0 8-1.8 15.1-5.3 21.4zm75-115.7a11.3 11.3 0 00-15.2 0 10 10 0 00-3.3 7.9c0 3 1 5.7 3.2 7.8 2.1 2.1 4.7 3.2 7.6 3.2 3 0 5.7-1 7.8-3.2 2.1-2.1 3.2-4.7 3.2-7.8 0-3.3-1-6-3.3-7.9zm-7.5 39.7c-2.4 0-4.3.7-5.7 2.1a7.7 7.7 0 00-2 5.7v93.8c0 2.4.6 4.3 2 5.7a7.7 7.7 0 005.7 2.1c2.3 0 4.1-.7 5.5-2.1a7.7 7.7 0 002.1-5.7V57.1c0-2.4-.7-4.3-2-5.7a7.4 7.4 0 00-5.6-2.1zm124 4.7c-7.5-4-16-5.9-25.4-5.9A49 49 0 00876 63.9V57c0-2.4-.7-4.3-2-5.7a7.4 7.4 0 00-5.6-2.1c-2.4 0-4.3.7-5.7 2.1a7.7 7.7 0 00-2 5.7v94c0 2.3.6 4.1 2 5.5a7.7 7.7 0 005.7 2.1c2.3 0 4.1-.7 5.5-2.1a7.4 7.4 0 002.1-5.5V91.9c0-5.6 1.5-10.6 4.6-15 3-4.4 7.2-7.9 12.5-10.4a40.4 40.4 0 0117.7-3.8c6.8 0 13 1.3 18.3 4a30 30 0 0112.8 12 39.8 39.8 0 014.7 20.4v52a7.6 7.6 0 007.8 7.6c2.1 0 4-.7 5.4-2.2a7.3 7.3 0 002.2-5.4v-52c0-11-2.2-20.2-6.5-27.8A43.4 43.4 0 00937.7 54zm156.1 21.5a54 54 0 00-48-27.2 53.7 53.7 0 00-55.6 55.8c0 10.5 2.3 20 7 28.4a53.2 53.2 0 0073 20.5 49.5 49.5 0 0015.5-14v12c0 2.4.7 4.2 2.2 5.6a7.8 7.8 0 005.6 2c2.3 0 4.1-.6 5.6-2a7.2 7.2 0 002.2-5.5v-47a57.6 57.6 0 00-7.5-28.6zm-27.4 64.8c-6 3.6-13 5.4-20.7 5.4a40 40 0 01-40.6-41.6 40.7 40.7 0 0120-36.3c6.1-3.7 13-5.5 20.6-5.5a39.2 39.2 0 0135.1 20.4 42.9 42.9 0 015.3 21.4 43 43 0 01-5.3 21.3 39.3 39.3 0 01-14.4 14.9z" />
    </svg>