<!-- Generator: Adobe Illustrator 25.0.1, SVG Export Plug-In  -->
<svg version="1.1" xmlns="http://www.w3.org/2000/svg" xmlns:xlink="http://www.w3.org/1999/xlink" x="0px" y="0px" width="43.12px"
	 height="634.31px" viewBox="0 0 43.12 634.31" style="overflow:visible;enable-background:new 0 0 43.12 634.31;"
	 xml:space="preserve">
<style type="text/css">
	.st0{fill:#FFFFFF;stroke:none;stroke-miterlimit:10;}
</style>
<defs>
</defs>
<g>
	<path class="st0" d="M6.87,53.06c1.92,1.63,4.19,2.89,6.8,3.78c2.62,0.89,5.46,1.33,8.53,1.33c2.59,0,5.03-0.36,7.31-1.08
		c2.28-0.72,4.27-1.76,5.98-3.13c1.7-1.37,3.02-3.06,3.96-5.08c0.94-2.02,1.4-4.32,1.4-6.91c0-4.51-1.45-8.17-4.36-10.98
		c-2.91-2.81-7.36-4.64-13.36-5.51c-3.36-0.48-6.04-1.21-8.03-2.2c-1.99-0.98-3.42-2.16-4.28-3.53c-0.86-1.37-1.3-2.87-1.3-4.5
		c0-3.07,1.15-5.41,3.46-7.02c2.3-1.61,5.35-2.41,9.14-2.41c2.16,0.05,4.01,0.36,5.54,0.94c1.54,0.58,2.84,1.36,3.92,2.34
		c1.08,0.98,1.98,2.03,2.7,3.13c0.38,0.67,0.95,1.13,1.69,1.37c0.74,0.24,1.48,0.19,2.2-0.14c0.67-0.38,1.09-0.94,1.26-1.66
		c0.17-0.72,0.01-1.46-0.47-2.23c-1.01-1.63-2.32-3.13-3.92-4.5c-1.61-1.37-3.49-2.47-5.65-3.31c-2.16-0.84-4.56-1.26-7.2-1.26
		c-3.55,0-6.7,0.59-9.43,1.76c-2.74,1.18-4.88,2.84-6.44,5c-1.56,2.16-2.34,4.7-2.34,7.63c0,4.08,1.58,7.52,4.75,10.33
		c3.17,2.81,7.56,4.55,13.18,5.22c4.61,0.58,7.99,1.92,10.15,4.03c2.16,2.11,3.24,4.63,3.24,7.56c0,2.3-0.56,4.26-1.69,5.87
		c-1.13,1.61-2.68,2.83-4.64,3.67c-1.97,0.84-4.22,1.26-6.77,1.26c-2.3,0-4.42-0.3-6.34-0.9c-1.92-0.6-3.58-1.45-4.97-2.56
		c-1.39-1.1-2.45-2.35-3.17-3.74c-0.34-0.67-0.83-1.18-1.48-1.51c-0.65-0.34-1.31-0.41-1.98-0.22c-0.86,0.24-1.48,0.68-1.84,1.33
		C2.08,45.9,2.1,46.6,2.48,47.37C3.49,49.53,4.95,51.43,6.87,53.06z"/>
	<path class="st0" d="M38.8,90.28c-0.67-0.29-1.36-0.32-2.05-0.11c-0.7,0.22-1.19,0.66-1.48,1.33l-13.65,29.97L7.77,91.51
		c-0.34-0.62-0.82-1.06-1.44-1.3c-0.62-0.24-1.27-0.19-1.94,0.14c-0.72,0.34-1.2,0.82-1.44,1.44c-0.24,0.62-0.22,1.25,0.07,1.87
		L19,127.58c0.58,1.25,1.44,1.87,2.59,1.87c1.25,0,2.16-0.62,2.74-1.87L40.1,93.6c0.29-0.58,0.31-1.19,0.07-1.84
		S39.48,90.62,38.8,90.28z"/>
	<path class="st0" d="M11.3,199.22c3.02,1.73,6.46,2.59,10.3,2.59c3.84,0,7.26-0.86,10.26-2.59c3-1.73,5.38-4.1,7.13-7.13
		c1.75-3.02,2.63-6.46,2.63-10.3c-0.05-3.89-0.94-7.34-2.66-10.37s-4.09-5.4-7.09-7.13c-3-1.73-6.42-2.59-10.26-2.59
		c-3.84,0-7.27,0.86-10.3,2.59c-3.02,1.73-5.4,4.1-7.13,7.13s-2.59,6.48-2.59,10.37c0,3.84,0.86,7.27,2.59,10.3
		S8.28,197.49,11.3,199.22z M8.89,174.06c1.27-2.28,3.01-4.07,5.22-5.36c2.21-1.3,4.7-1.94,7.49-1.94c2.78,0,5.28,0.65,7.49,1.94
		c2.21,1.3,3.94,3.08,5.18,5.36c1.25,2.28,1.87,4.86,1.87,7.74c0,2.88-0.62,5.45-1.87,7.7c-1.25,2.26-2.98,4.03-5.18,5.33
		c-2.21,1.3-4.7,1.94-7.49,1.94c-2.78,0-5.28-0.65-7.49-1.94c-2.21-1.3-3.95-3.07-5.22-5.33c-1.27-2.26-1.91-4.82-1.91-7.7
		C6.98,178.92,7.62,176.34,8.89,174.06z"/>
	<path class="st0" d="M7.38,217.98c-0.5-0.5-1.16-0.76-1.98-0.76c-0.86,0-1.55,0.25-2.05,0.76c-0.5,0.5-0.76,1.19-0.76,2.05v33.98
		c0.05,3.74,0.95,7.12,2.7,10.12c1.75,3,4.13,5.36,7.13,7.09c3,1.73,6.37,2.59,10.12,2.59c3.84,0,7.27-0.88,10.3-2.63
		c3.02-1.75,5.41-4.14,7.16-7.16c1.75-3.02,2.63-6.46,2.63-10.3c0-3.79-0.85-7.2-2.56-10.22c-1.71-3.02-4.02-5.41-6.95-7.16
		c-2.93-1.75-6.24-2.63-9.94-2.63c-3.22,0-6.13,0.68-8.75,2.05c-2.62,1.37-4.72,3.18-6.3,5.44v-21.17
		C8.13,219.16,7.88,218.48,7.38,217.98z M9.93,246.06c1.25-2.28,2.98-4.07,5.18-5.36c2.21-1.3,4.68-1.94,7.42-1.94
		c2.78,0,5.28,0.65,7.49,1.94c2.21,1.3,3.95,3.08,5.22,5.36c1.27,2.28,1.91,4.84,1.91,7.67c0,2.88-0.64,5.45-1.91,7.7
		c-1.27,2.26-3.01,4.04-5.22,5.36c-2.21,1.32-4.71,1.98-7.49,1.98c-2.74,0-5.21-0.66-7.42-1.98c-2.21-1.32-3.94-3.11-5.18-5.36
		c-1.25-2.26-1.87-4.82-1.87-7.7C8.06,250.89,8.68,248.34,9.93,246.06z"/>
	<path class="st0" d="M31.86,308.3c-3-1.73-6.42-2.59-10.26-2.59c-3.84,0-7.27,0.86-10.3,2.59c-3.02,1.73-5.4,4.1-7.13,7.13
		s-2.59,6.48-2.59,10.37c0,3.84,0.86,7.27,2.59,10.3c1.73,3.02,4.1,5.4,7.13,7.13c3.02,1.73,6.46,2.59,10.3,2.59
		c3.84,0,7.26-0.86,10.26-2.59c3-1.73,5.38-4.1,7.13-7.13c1.75-3.02,2.63-6.46,2.63-10.3c-0.05-3.89-0.94-7.34-2.66-10.37
		S34.85,310.03,31.86,308.3z M34.27,333.5c-1.25,2.26-2.98,4.03-5.18,5.33c-2.21,1.3-4.7,1.94-7.49,1.94
		c-2.78,0-5.28-0.65-7.49-1.94c-2.21-1.3-3.95-3.07-5.22-5.33c-1.27-2.26-1.91-4.82-1.91-7.7s0.64-5.46,1.91-7.74
		c1.27-2.28,3.01-4.07,5.22-5.36c2.21-1.3,4.7-1.94,7.49-1.94c2.78,0,5.28,0.65,7.49,1.94c2.21,1.3,3.94,3.08,5.18,5.36
		c1.25,2.28,1.87,4.86,1.87,7.74S35.52,331.24,34.27,333.5z"/>
	<path class="st0" d="M40.53,364.03c0-0.86-0.26-1.55-0.79-2.05c-0.53-0.5-1.2-0.76-2.02-0.76c-0.82,0-1.49,0.25-2.02,0.76
		c-0.53,0.5-0.79,1.19-0.79,2.05v21.17c-1.58-2.26-3.67-4.07-6.26-5.44s-5.5-2.05-8.71-2.05c-3.7,0-7.01,0.88-9.94,2.63
		c-2.93,1.75-5.24,4.14-6.95,7.16c-1.7,3.02-2.56,6.43-2.56,10.22c0,3.84,0.88,7.27,2.63,10.3c1.75,3.02,4.14,5.41,7.16,7.16
		c3.02,1.75,6.43,2.63,10.22,2.63c3.74,0,7.12-0.86,10.12-2.59c3-1.73,5.38-4.09,7.13-7.09c1.75-3,2.68-6.37,2.77-10.12V364.03z
		 M33.15,405.43c-1.27,2.26-3,4.04-5.18,5.36c-2.18,1.32-4.67,1.98-7.45,1.98c-2.74,0-5.21-0.66-7.42-1.98
		c-2.21-1.32-3.96-3.11-5.26-5.36c-1.3-2.26-1.94-4.82-1.94-7.7c0-2.83,0.65-5.39,1.94-7.67c1.3-2.28,3.05-4.07,5.26-5.36
		c2.21-1.3,4.68-1.94,7.42-1.94c2.78,0,5.27,0.65,7.45,1.94c2.18,1.3,3.91,3.08,5.18,5.36c1.27,2.28,1.91,4.84,1.91,7.67
		C35.06,400.6,34.42,403.17,33.15,405.43z"/>
	<path class="st0" d="M19.54,450.82c-0.5,0.5-0.76,1.19-0.76,2.05v33.77c0,0.86,0.25,1.55,0.76,2.05c0.5,0.5,1.19,0.76,2.05,0.76
		c0.82,0,1.48-0.25,1.98-0.76s0.76-1.19,0.76-2.05v-33.77c0-0.86-0.25-1.55-0.76-2.05s-1.16-0.76-1.98-0.76
		C20.73,450.07,20.05,450.32,19.54,450.82z"/>
	<path class="st0" d="M25.48,438.62c0-1.2-0.4-2.15-1.19-2.84c-0.79-0.7-1.69-1.04-2.7-1.04c-1.06,0-1.98,0.35-2.77,1.04
		c-0.79,0.7-1.19,1.64-1.19,2.84c0,1.1,0.38,2.04,1.15,2.81c0.77,0.77,1.68,1.15,2.74,1.15c1.1,0,2.04-0.38,2.81-1.15
		C25.1,440.66,25.48,439.72,25.48,438.62z"/>
	<path class="st0" d="M35.42,560.66c0.53,0.53,1.2,0.79,2.02,0.79c0.77,0,1.42-0.26,1.94-0.79c0.53-0.53,0.79-1.18,0.79-1.94V540
		c0-3.94-0.78-7.27-2.34-10.01c-1.56-2.74-3.68-4.81-6.37-6.23c-2.69-1.42-5.74-2.12-9.14-2.12c-3.12,0-5.95,0.68-8.5,2.05
		c-1.79,0.96-3.32,2.19-4.61,3.65v-2.46c0-0.86-0.25-1.55-0.76-2.05s-1.16-0.76-1.98-0.76c-0.86,0-1.55,0.25-2.05,0.76
		c-0.5,0.5-0.76,1.19-0.76,2.05v33.84c0,0.82,0.25,1.48,0.76,1.98c0.5,0.5,1.19,0.76,2.05,0.76c0.82,0,1.48-0.25,1.98-0.76
		s0.76-1.16,0.76-1.98V537.4c0-2.02,0.55-3.82,1.66-5.4c1.1-1.58,2.6-2.83,4.5-3.74c1.9-0.91,4.02-1.37,6.37-1.37
		c2.45,0,4.64,0.48,6.59,1.44c1.94,0.96,3.48,2.4,4.61,4.32c1.13,1.92,1.69,4.37,1.69,7.34v18.72
		C34.63,559.48,34.89,560.13,35.42,560.66z"/>
	<path class="st0" d="M31.78,596.34c-3-1.75-6.4-2.63-10.19-2.63c-3.79,0-7.2,0.88-10.22,2.63c-3.02,1.75-5.41,4.14-7.16,7.16
		c-1.75,3.02-2.63,6.46-2.63,10.3c0,3.79,0.85,7.2,2.56,10.22c1.7,3.02,4.02,5.41,6.95,7.16c2.93,1.75,6.24,2.63,9.94,2.63
		c3.5,0,6.63-0.8,9.4-2.41c2.25-1.31,4.1-3.02,5.58-5.1v4.42c0,0.82,0.26,1.48,0.79,1.98c0.53,0.5,1.2,0.76,2.02,0.76
		c0.82,0,1.49-0.25,2.02-0.76c0.53-0.5,0.79-1.16,0.79-1.98V613.8c-0.05-3.84-0.95-7.27-2.7-10.3
		C37.16,600.48,34.78,598.09,31.78,596.34z M29.05,626.83c-2.18,1.3-4.67,1.94-7.45,1.94c-2.74,0-5.21-0.65-7.42-1.94
		c-2.21-1.3-3.96-3.08-5.26-5.36c-1.3-2.28-1.94-4.83-1.94-7.67c0-2.88,0.65-5.45,1.94-7.7c1.3-2.25,3.05-4.04,5.26-5.36
		c2.21-1.32,4.68-1.98,7.42-1.98c2.78,0,5.27,0.66,7.45,1.98c2.18,1.32,3.91,3.11,5.18,5.36c1.27,2.26,1.91,4.82,1.91,7.7
		c0,2.83-0.64,5.39-1.91,7.67C32.96,623.74,31.23,625.53,29.05,626.83z"/>
</g>
</svg>
