<svg
        class="block_start_headline shadow"
        version="1.1"
        xmlns="http://www.w3.org/2000/svg"
        x="0px"
        y="0px"
        width="90vw"
        height="auto"
        viewBox="0 0 914.9 133.8"
        style="enable-background:new 0 0 914.9 133.8;"
        xml:space="preserve"
      >
        <g>
          <path
            id="path"
            class="st0"
            d="M71.5,19.5c8.2,10.6,12.2,24.1,12.2,40.6c0,1.8-0.1,3.6-0.2,5.4c-0.1,1.8-0.3,3.5-0.5,5.3
             c12,7.4,18,15.4,18,23.9c0,8.2-5.3,15.9-15.8,23.3c-9.6,6.7-20.6,11-33.1,13c-6,0.9-11.5,1.3-16.7,1.3c-10.6,0-18.9-1.8-25.1-5.3
             c-5.8-3.5-8.6-7.9-8.6-13.2c0-4.6,2.1-9.1,6.2-13.5c3.4-3.6,9.4-7.3,18-11.1c9.5-4,18.1-6,25.8-6c5,0,9.1,0.9,12.4,2.7
             c0.7,0.4,1,0.7,1,1c0,0.8-1,0.9-3,0.4c-2.4-0.5-4.8-0.7-7.2-0.7C47.3,86.5,39,88.3,30,92c-4.2,1.7-7.8,3.5-10.6,5.4
             c-2.8,1.9-5.1,3.7-6.8,5.5c-1.7,1.8-3,3.6-3.7,5.4c-0.8,1.8-1.2,3.4-1.2,5c0,4,2.4,7.1,7.1,9.3c4.8,2.2,11.4,3.2,19.8,3.2
             c2.8,0,5.6-0.1,8.6-0.4c2.9-0.2,6-0.6,9.1-1.1c12-1.8,21.6-5.6,28.8-11.4c6.6-5.3,9.9-11.4,9.9-18.3c0-6.3-3-12.2-9.1-17.7
             c-2.5,12.3-7.2,22.4-14.3,30.2c-7.9,8.7-17.5,13.5-28.9,14.4c-0.5,0.1-0.8-0.1-1-0.7c0-0.5,0.3-0.8,0.9-1
             c11.6-0.9,21.1-5.7,28.4-14.4c6.6-7.8,10.9-17.9,12.8-30.4c-1.1-0.8-2.2-1.6-3.3-2.4c-1.2-0.8-2.4-1.6-3.7-2.4
             c-7.6-4.1-13-7.8-16.3-10.9c-5.5-5.2-8.2-10.9-8.2-17.1c0-8.6,5.5-16.8,16.6-24.3C57.2,10,48.1,6,37.5,6c-6.1,0-12.2,1.4-18.3,4.3
             c-4.8,2.2-8.6,5.8-11.4,10.7c-2.8,5-4.2,10-4.2,15.1c0,4.2,1,7.9,2.9,10.9c3.6,5.6,8.9,8.4,16.1,8.4c6.4,0,11.3-2.4,14.7-7.3
             c0.3-0.4,0.6-0.5,1-0.4c0.4,0.1,0.6,0.4,0.6,0.9c0,2.3-2.2,4.4-6.6,6.2c-4,1.6-7.3,2.4-9.9,2.4c-7.9,0-13.8-3-17.9-9.1
             c-2-3.3-3-7.1-3-11.5C1.5,31,3,25.6,6.1,20.2c3.2-5.4,7.3-9.2,12.4-11.5C25.2,5.6,32.1,4,39.1,4c11.7,0,21.5,3.9,29.2,11.8
             C79.7,8.7,90.3,4.6,99.9,3.5c0.6-0.1,1.2-0.1,1.7-0.1c0.6,0,1.1,0,1.6,0c9.7,0,15.2,3.5,16.4,10.5c0.1,0.4,0.1,0.9,0,1.6
             c-0.1,0.5-0.1,0.9-0.1,1.3c0,0.3,0.1,0.3,0.4,0.1c0.5-0.4,1-0.7,1.5-1c0.5-0.3,1.1-0.6,1.8-1c2-0.1,3,0.6,3,2.2
             c0,1.8-0.8,3.8-2.4,6c-7.1,7.7-11.5,11.5-13.1,11.5c-0.5,0-0.7-0.3-0.7-0.9c0-1.5,1.5-5.1,4.5-10.8c1.2-2.3,1.7-4.3,1.7-6
             c0-4.8-4-7.2-12.1-7.2c-0.8,0-1.5,0-2.3,0.1c-0.8,0-1.6,0.1-2.4,0.2C89.1,11,79.8,14.1,71.5,19.5z M80.6,69.3
             c0.1-1.1,0.1-2.1,0.1-3.1c0-1,0-2,0-3.1c0-16.6-4.2-30.4-12.5-41.3c-8.4,6.4-12.7,13.4-12.7,20.9c0,9.4,6.8,17.5,20.4,24.2
             C77.4,67.6,78.9,68.4,80.6,69.3z"
          ></path>
          <path
            id="path1"
            class="st0"
            d="M171.4,100.7c-3.8,4.4-8.4,6.6-13.7,6.6c-3.6,0-6.9-1.1-9.9-3.2c-2.9-2.2-4.9-4.9-6-8.3
             c-3.2,7-7.1,12.7-11.8,17.1c-4.8,4.3-8.9,6.1-12.2,5.5c-4.4-0.9-6.6-4.4-6.6-10.5c0-3.8,1-7.8,2.9-11.8l-1.3,1.4
             c-1,1-2.8,2.6-5.5,5c-0.6,0.6-1.1,0.9-1.6,0.9c-0.7,0-1-0.3-1-1c0.2-0.8,0.7-1.5,1.6-2.3c5.9-5.4,11.1-11.1,15.7-17.1
             c1-1.4,2.3-2.2,4-2.2c1.9,0,2.9,0.8,2.9,2.4c0,0.6-1.4,3.2-4.2,7.9c-1.6,2.7-2.9,4.8-3.7,6.3c-0.9,1.5-1.4,2.4-1.6,2.8
             c-1.6,3.5-2.4,6.7-2.4,9.6c0,2.5,0.6,3.9,1.9,4.2c0.3,0.1,0.8,0.1,1.4,0.1c3.2,0,6.7-2.1,10.5-6.2c1.9-2.1,3.7-4.4,5.3-7
             c1.6-2.5,3.1-5.3,4.5-8.3c-0.5-6.9,0.3-12.4,2.4-16.4c1.7-3.4,3.8-5,6.2-5c2.5,0,3.7,1.6,3.7,4.9c0,0.5,0,0.9-0.1,1.4
             c0,0.4-0.1,0.9-0.2,1.4c-1.2,4.8-3.9,9-8.4,12.5c0.2,3.5,1.5,6.6,4,9.4c2.7,2.9,5.9,4.3,9.5,4.3c4.2,0,8.3-2.1,12.1-6.2
             c1-1.2,1.6-1.4,2-0.7C172.4,99,172.2,99.8,171.4,100.7z"
          ></path>
          <path
            id="path2"
            class="st0"
            d="M196.8,73.2l-0.6,0.6c3.5,1.2,6.3,3.2,8.6,6c2.3,2.9,3.5,6,3.5,9.5c0,6.1-1.6,12-4.9,17.6l-0.3,0.6
             c8.9-0.3,16.2-3.3,21.9-8.9c0.5-0.5,1-0.7,1.4-0.7c0.6,0,0.9,0.3,0.9,1c0,1-0.5,1.8-1.4,2.4c-7.1,6.2-15.4,9.4-24.9,9.4
             c-2.6,3.3-5.7,5.9-9.2,8c-3.6,2.1-6.9,3.1-9.9,3.1c-6.5,0-9.7-3.8-9.5-11.5c0-5.3,1.4-11.6,4.2-18.9c-0.1-0.8-0.2-1.6-0.2-2.4
             c0-0.9-0.1-1.7-0.1-2.6c0-8,3.9-12.4,11.7-13.2c2.1-2.4,4-3.6,5.6-3.6c2.7,0,4,0.8,4,2.3C197.5,72.3,197.2,72.8,196.8,73.2z
            M180.5,101.6v0.1c-0.8,3.4-1.2,6-1.2,8.1c0,5.2,1.9,7.8,5.6,7.8c4.4,0,8.3-2.4,11.5-7.1C189.4,109.5,184,106.5,180.5,101.6z
            M194,76c-4.5,5-8.2,10.9-10.9,17.7c1.8,7.9,7,12.4,15.4,13.5c3.4-6.5,5-12.6,5-18.1c0-3.6-0.8-6.6-2.5-9.1
             C199.3,77.5,197,76.2,194,76z"
          ></path>
          <path
            id="path3"
            class="st0"
            d="M265.4,110.5c7.8-1.2,14.9-5.2,21.3-11.8c0.7-0.5,1.2-0.7,1.4-0.7c0.6,0,0.9,0.3,0.9,1c0,0.9-0.5,1.6-1.4,2.3
             c-8.2,7.3-16.4,11.5-24.8,12.5c-5.8,6.1-11.9,9.2-18.3,9.2c-7.4,0-11.1-3.8-11.1-11.4c0-2.5,0.4-5.4,1.3-8.8
             c-5.3-5.9-7.9-12.5-7.9-19.9c0-4.9,1.4-9,4.2-12.2c3.2-3.5,7.5-5.2,13-5.2c1.1,0,2.2,0.1,3.3,0.2c1.2,0.1,2.3,0.3,3.5,0.5
             c11.9-22.1,21.9-37,30-44.8c1-0.9,2.4-1.3,4.2-1.3c3.5,0,5.2,0.8,5.2,2.4c0,0.5-0.2,1-0.7,1.4c-7.8,7.4-18.2,22.1-31.4,44.2
             c9.9,4.6,14.8,12.1,14.8,22.6C272.8,97.4,270.3,103.9,265.4,110.5z M249.3,69.2c-5.3-0.4-9.5,0.9-12.5,3.7
             c-2.6,2.6-3.9,6.1-3.9,10.7c0,4.2,1.2,8.5,3.7,13c2.1-6.3,5.9-14.5,11.2-24.6L249.3,69.2z M254.6,113.7c-5.1-0.7-9.9-2.6-14.4-5.9
             c-0.4,1.6-0.6,3.4-0.6,5.2c0,4.7,1.5,7.1,4.5,7.1C247.1,120,250.6,117.9,254.6,113.7z M241.5,102.6c4.7,4.5,10,7.2,15.8,8.1
             c0.8-1.1,1.5-2.1,2.2-3.1c0.7-1,1.3-2,1.8-3.1c3.2-6.4,4.8-12.4,4.8-17.9c0-8.3-3.2-13.5-9.5-15.7c-2,3.4-4,6.8-5.8,10.4
             c-1.9,3.6-3.6,7.2-5.3,10.8C243.9,95.7,242.6,99.2,241.5,102.6z"
          ></path>
          <path
            id="path4"
            class="st0"
            d="M313.8,73.2l-0.6,0.6c3.5,1.2,6.3,3.2,8.6,6c2.3,2.9,3.5,6,3.5,9.5c0,6.1-1.6,12-4.9,17.6l-0.3,0.6
             c8.9-0.3,16.2-3.3,21.9-8.9c0.5-0.5,1-0.7,1.4-0.7c0.6,0,0.9,0.3,0.9,1c0,1-0.5,1.8-1.4,2.4c-7.1,6.2-15.4,9.4-24.9,9.4
             c-2.6,3.3-5.7,5.9-9.2,8c-3.6,2.1-6.9,3.1-9.9,3.1c-6.5,0-9.7-3.8-9.5-11.5c0-5.3,1.4-11.6,4.2-18.9c-0.1-0.8-0.2-1.6-0.2-2.4
             c0-0.9-0.1-1.7-0.1-2.6c0-8,3.9-12.4,11.7-13.2c2.1-2.4,4-3.6,5.6-3.6c2.7,0,4,0.8,4,2.3C314.6,72.3,314.3,72.8,313.8,73.2z
            M297.6,101.6v0.1c-0.8,3.4-1.2,6-1.2,8.1c0,5.2,1.9,7.8,5.6,7.8c4.4,0,8.3-2.4,11.5-7.1C306.4,109.5,301.1,106.5,297.6,101.6z
            M311.1,76c-4.5,5-8.2,10.9-10.9,17.7c1.8,7.9,7,12.4,15.4,13.5c3.4-6.5,5-12.6,5-18.1c0-3.6-0.8-6.6-2.5-9.1
             C316.4,77.5,314.1,76.2,311.1,76z"
          ></path>
          <path
            id="path5"
            class="st0"
            d="M421.8,25.6c0,8-4.8,18-14.5,30c-3.4,4.3-7.2,8.6-11.4,12.7c-4.2,4.2-8.8,8.4-13.8,12.7
             c-3.6,9.4-5.7,17.2-6,23.3c0.7,6.1,3.5,9.2,8.5,9.2c6,0,13.4-4.8,22.3-14.3c0.7-0.9,1.3-1.3,2-1.3c0.5,0,0.7,0.3,0.7,1
             c0,0.8-0.3,1.4-0.9,2c-11.2,11.9-20.8,17.4-28.7,16.6c-2.6-0.3-5-1.9-7.2-4.8c-2.2-3.3-3.6-7.3-4-12.2c-1.8,2.5-3.7,4.8-5.5,6.8
             c-1.9,2.1-3.9,4-6,5.7c-3.8,3.1-7,4.6-9.5,4.6c-3.6,0-5.3-2.3-5.3-6.8c0-3.8,1.3-7.8,4-12c1.6-2.4,3.5-4.8,5.5-7.1
             c2.1-2.4,4.4-4.6,7-6.8c6.6-5.6,12.1-8.2,16.4-7.8c2-5.6,4.1-10.9,6.3-16.1c2.2-5.1,4.6-10.1,7.1-14.8
             c6.7-13.2,12.8-21.6,18.3-25.2c2.7-1.7,5.4-2.6,8.2-2.6C419.7,18.7,421.8,21,421.8,25.6z M374,82c-4-0.1-8.2,1.5-12.5,4.9
             c-1.9,1.5-3.6,3.3-5.1,5.3c-1.5,2-2.9,4.2-4.1,6.6c-1.6,3.1-2.4,5.8-2.4,8.2c0,2.6,0.9,3.9,2.7,3.9c1.7,0,4-1.2,6.8-3.5
             c2.5-2.1,4.6-4.2,6.2-6.3c1.6-2.1,2.8-4.2,3.6-6.3C371.9,87.1,373.5,82.9,374,82z M417.5,25.9c0.4-2.6-0.2-3.9-1.9-3.9
             c-3.1,0-6.2,2.8-9.4,8.5c-4.2,7.4-8.2,14.9-11.9,22.5c-3.7,7.6-7.2,15.4-10.4,23.5c7.4-7.2,14.3-15.4,20.7-24.5
             C412.4,41.1,416.6,32.4,417.5,25.9z"
          ></path>
          <path
            id="path6"
            class="st0"
            d="M453.1,100.7c-10.8,11.5-20.2,17.1-27.9,16.8c-8.8-0.2-12.8-6.3-12-18.4c0.5-5.8,3.3-12.4,8.5-20
             c1.1-1.6,3.1-2.4,6.2-2.4c2.3,0,3.5,0.6,3.5,1.9c0,0.2-0.1,0.6-0.3,1.2c-1.6,3-3,5.3-4,6.9c-1,1.6-1.6,2.6-1.8,3
             c-1.1,2-1.9,3.8-2.5,5.5c-0.6,1.6-1,3.1-1.2,4.5c-0.3,1.7-0.4,3.4-0.4,4.9c0,6.3,2.3,9.5,6.8,9.5c6.1,0,13.8-4.9,22.9-14.7
             c1-1,1.7-1.4,2.3-1.4c0.5,0.2,0.7,0.5,0.7,1C453.8,99.4,453.6,100.1,453.1,100.7z M447,52.8c0,4.8-2.1,7.2-6.3,7.2
             c-1.4,0-2.7-0.6-3.8-1.7c-1.1-1.2-1.7-2.4-1.7-3.7c0-1.8,0.8-3.4,2.4-4.8c1.5-1.1,2.9-1.6,4.2-1.6C445.3,48.2,447,49.7,447,52.8z"
          ></path>
          <path
            id="path7"
            class="st0"
            d="M455.8,116.4c-0.4,1-1.1,1.4-2,1.4s-1.8-0.5-2.7-1.4c-0.8-0.9-1.1-1.7-0.9-2.4c0.7-1.4,1.6-3.5,2.7-6.1
             c1.2-2.6,2.5-5.9,4.2-9.7c4-9.3,6-15,6-17c0.3-0.6,1.8-1.5,4.6-2.9c3.1-1.4,4.6-1.1,4.6,1.2c-2,6.2-6.2,16-12.7,29.2
             c3.6-3.8,7.4-7.9,11.4-12.3c4.1-4.4,8.4-9,13-14c2.1-2.4,3.8-3.6,5-3.6c0.7,0,1,0.5,1,1.4c0,0.6-0.1,1.3-0.4,2.3
             c-3.3,10.9-4.9,18.6-4.9,23c0,5.2,1.8,7.8,5.3,7.8c3.5,0,7.3-1.7,11.7-5.2c0.8-0.7,1.9-1.8,3.5-3.3c1.6-1.5,3.5-3.5,5.8-5.9
             c0.7-0.7,1.2-1,1.7-1c0.4,0,0.7,0.3,0.9,0.9c0.2,0.6,0,1.1-0.4,1.6c-9.8,10.8-18.4,16.1-25.9,16.1c-6.7,0-10.1-5.2-10.1-15.7
             c0-2.3,0.1-4.8,0.4-7.6c-1.2,1.2-2.8,2.6-4.5,4.3c-1.8,1.7-3.9,3.7-6.4,6c-1.2,1.2-2.4,2.3-3.5,3.5c-1.1,1.2-2.1,2.4-3.1,3.6
             c-0.8,1-1.5,1.9-2.2,2.9C457.3,114.5,456.6,115.5,455.8,116.4z"
          ></path>
          <path
            id="path8"
            class="st0"
            d="M584.7,101c-11.2,11.9-20.8,17.4-28.7,16.6c-2.6-0.3-5-1.9-7.2-4.8c-2.2-3.3-3.6-7.3-4-12.2
             c-1.8,2.5-3.7,4.8-5.5,6.8c-1.9,2.1-3.9,4-6,5.7c-3.8,3.1-7,4.6-9.5,4.6c-3.6,0-5.3-2.3-5.3-6.8c0-3.8,1.3-7.8,4-12
             c6.2-9.5,13.2-16.1,21-19.7c3.4-1.5,6.5-2.3,9.4-2.3c0.8,0,1.6,0.1,2.5,0.4c0.9,0.2,1.8,0.6,2.6,1c0.8,0.4,1.5,0.9,2,1.5
             c0.5,0.6,0.8,1.2,0.8,2c0,0.3-0.2,0.6-0.5,0.8c-0.3,0.2-0.7,0.4-1.2,0.6c-0.4,0.1-0.8,0.3-1.2,0.5c-0.4,0.2-0.6,0.3-0.6,0.4
             c-3.6,6.4-5.3,12.6-5.3,18.4c0,7.3,2.8,10.9,8.5,10.9c6,0,13.4-4.8,22.3-14.3c0.7-0.9,1.3-1.3,2-1.3c0.5,0,0.7,0.3,0.7,1
             C585.6,99.8,585.3,100.5,584.7,101z M548.8,82c-8-0.2-14.8,5.4-20.6,16.7c-1.6,3.1-2.4,5.8-2.4,8.2c0,2.6,0.9,3.9,2.7,3.9
             c1.7,0,4-1.2,6.8-3.5c5-4.2,8.3-8.4,9.8-12.7C545.8,89.9,547,85.7,548.8,82z"
          ></path>
          <path
            id="path9"
            class="st0"
            d="M613.2,80.4c-6.2,13.1-9.4,22-9.4,26.9c-0.1,3.6,0.6,6.6,2,9.1c1.5,2.7,3.6,4,6.3,4c0.8,0,1.3,0,1.7-0.1
             c1.2-0.3,1.7,0.1,1.7,1.2c0,0.6-0.3,0.9-1,0.9c-4.7,0.3-8.4-0.9-11.1-3.5c-2.7-2.6-4.1-6.2-4.3-10.8c-0.1-3.3,0.5-7.3,1.7-12
             c1.2-4.8,3.2-10.3,5.9-16.6c-1.2-0.2-2.4-0.5-3.5-0.8c-1.1-0.3-2.1-0.7-3-1.1c-10.5,23.3-15.7,38.8-15.7,46.4c0,1.2,0,2.1,0.1,2.6
             c0.2,0.6,0,1-0.6,1.2c-0.6,0.2-0.9,0-1-0.6c-0.3-1.2-0.4-2.8-0.4-4.6c0-7.6,5-22.9,15-46.1c-5.6-2.7-8.4-6.3-8.4-10.8
             c0-3.5,1.8-7,5.3-10.7c3.6-3.6,8.5-6.9,15-9.6l0.7-0.3c1.6-4.8,2.9-9.1,3.8-13c0.9-3.9,1.5-7.4,1.7-10.4c-3.7,0.7-7.1,1.1-10.2,1.4
             c-3,0.2-5.7,0.3-8,0.1c-8.2-0.6-12.2-3.9-12.2-10.1c0-3,1.6-5.6,4.8-7.8c3.1-2.2,6.7-3.4,10.9-3.6c10.7-0.4,16.7,4.1,18,13.5
             l13.4-2.3c3.5-0.5,7.2-0.9,11.1-1.2c3.9-0.3,8.1-0.4,12.5-0.4c3.4,0,6.6,0.1,9.6,0.2c3.1,0.1,6,0.4,8.8,0.8
             c21.9,2.8,32.8,10,32.8,21.6c0,9.5-5.4,18.1-16.1,25.9c-9,6.5-20.6,11.8-34.8,15.8c-12.4,3.6-23.6,5.3-33.6,5.3
             C619.6,80.9,616.4,80.7,613.2,80.4z M615.9,15.5c-1-8.4-5.9-12.3-14.8-12c-1.5,0.1-3,0.4-4.4,1c-1.4,0.6-2.6,1.3-3.7,2.1
             c-1.1,0.8-2,1.7-2.6,2.7c-0.6,1-0.9,2-0.9,3.1c0,3.1,3.2,4.6,9.6,4.6C602.7,17.2,608.4,16.6,615.9,15.5z M609,48.9
             c-9,4.7-13.5,9.9-13.5,15.7c0,2.9,1.3,5.5,4,7.8c2.1-4.9,4-9.3,5.5-13.2C606.7,55.3,608,51.9,609,48.9z M608.2,76.4
             c4.5-10.3,10.2-21.2,17.1-32.7c-2.4,0.4-4.6,0.8-6.6,1.4c-2,0.5-3.8,1.1-5.4,1.8c-1.1,3.1-2.5,6.8-4.5,11.3
             c-1.9,4.5-4.2,9.7-6.9,15.8c1,0.5,1.9,0.9,3,1.4C605.9,75.8,607,76.1,608.2,76.4z M644.9,28.6c-1.9,1.9-4.7,5.5-8.2,10.8
             c1.8-0.2,3.6-0.3,5.3-0.4c1.7-0.1,3.3-0.1,5-0.1c12.8,0,20.6,2.4,23.5,7.3c0.4,0.9,0.1,1.3-0.7,1.3c-0.6,0.1-1.3-0.1-2.2-0.6
             c-5.1-3.2-13.2-4.8-24.2-4.8c-1.4,0-2.9,0-4.3,0.1c-1.4,0-2.9,0.1-4.3,0.2c-3.6,5.6-7.1,11.3-10.4,17.1c-3.3,5.9-6.5,11.9-9.6,18.1
             c1,0.1,1.9,0.2,2.8,0.2c0.9,0,1.9,0.1,3,0.1c13.9,0,27.2-2.5,39.9-7.5c11.8-4.5,21.4-10.3,28.7-17.3c7.5-7,11.2-13.6,11.2-19.9
             c0-9.6-8.6-15.4-25.8-17.3c-2.3-0.2-4.7-0.4-7.1-0.5c-2.4-0.1-5-0.2-7.7-0.2c-10.2,0-18.6,0.7-25.2,2.2c-1.6,0.4-3.7,0.8-6.1,1.4
             c-2.4,0.5-5.4,1.2-8.7,1.9c-0.3,6-2,13.5-5,22.8c3.8-1.2,8-2.2,12.5-2.9c1.5-2.5,3-4.7,4.2-6.7c1.3-2,2.5-3.8,3.7-5.4
             c1.6-2.2,4-3.3,7.2-3.3c2.4,0,3.6,0.6,3.6,1.7C645.7,27.5,645.5,28,644.9,28.6z"
          ></path>
          <path
            id="path10"
            class="st0"
            d="M755,100.7c-10.3,10.7-18.6,16-25.1,16c-2.7,0-4.8-2.2-6.2-6.6c-0.5-1.7-0.9-3.5-1.4-5.2s-0.9-3.5-1.4-5.2
             c-1.1-2.6-2.5-3.9-4.5-3.9c-1.7,0-3.7,0.9-5.9,2.7c-2.8,2.1-6,5.6-9.6,10.4c-0.8,1.1-1.6,2.2-2.4,3.3c-0.9,1.2-1.7,2.3-2.4,3.3
             c-1.7,1.2-3.2,1.7-4.3,1.7c-2.2,0-3.3-1.8-3.3-5.3c0-1.3,0.2-2.9,0.7-4.6c1.3-4.2,3.2-9.3,5.5-15.3c2.4-6,5.3-12.9,8.9-20.8
             c8.4-19.3,15.6-33.3,21.6-42c4.8-7.1,10-10.7,15.6-10.7c4.1,0,6.2,2.4,6.2,7.3c0,2.1-0.4,4.5-1.3,7.2c-4.5,13.8-17.3,29.8-38.4,48
             c-4.5,8.2-8.1,17.3-10.7,27.5l2.7-2.7c1.1-1.1,2.5-2.4,4.2-4.2c1.8-1.7,3.9-3.7,6.3-6c6-5.3,10.8-7.9,14.7-7.9c2.2,0,3.7,2,4.5,6
             c0.2,1.9,0.4,3.8,0.6,5.6c0.2,1.8,0.4,3.7,0.6,5.6c0.7,4,2.2,6,4.6,6c2.5,0,5.8-1.5,9.9-4.5c2.9-2.1,5.6-4.5,8.1-7.1
             c0.9-1,1.6-1.4,2.3-1.4c0.6,0,0.9,0.3,0.9,0.9C755.9,99.5,755.6,100.2,755,100.7z M740.9,32.5c1.2-2.7,1.7-5,1.7-6.9
             c0-2.4-0.8-3.6-2.4-3.6c-2.6,0-5.6,2.8-8.9,8.5c-4.2,7.4-8.2,14.9-11.9,22.5c-3.7,7.6-7.2,15.4-10.4,23.5c3.1-3.1,6.1-6.3,9.1-9.7
             c3-3.4,6-7,8.9-10.9c3.4-4.5,6.2-8.7,8.6-12.5C737.9,39.4,739.7,35.8,740.9,32.5z"
          ></path>
          <path
            id="path11"
            class="st0"
            d="M783.6,73.2l-0.6,0.6c3.5,1.2,6.3,3.2,8.6,6c2.3,2.9,3.5,6,3.5,9.5c0,6.1-1.6,12-4.9,17.6l-0.3,0.6
             c8.9-0.3,16.2-3.3,21.9-8.9c0.5-0.5,1-0.7,1.4-0.7c0.6,0,0.9,0.3,0.9,1c0,1-0.5,1.8-1.4,2.4c-7.1,6.2-15.4,9.4-24.9,9.4
             c-2.6,3.3-5.7,5.9-9.2,8c-3.6,2.1-6.9,3.1-9.9,3.1c-6.5,0-9.7-3.8-9.5-11.5c0-5.3,1.4-11.6,4.2-18.9c-0.1-0.8-0.2-1.6-0.2-2.4
             c0-0.9-0.1-1.7-0.1-2.6c0-8,3.9-12.4,11.7-13.2c2.1-2.4,4-3.6,5.6-3.6c2.7,0,4,0.8,4,2.3C784.3,72.3,784,72.8,783.6,73.2z
            M767.3,101.6v0.1c-0.8,3.4-1.2,6-1.2,8.1c0,5.2,1.9,7.8,5.6,7.8c4.4,0,8.3-2.4,11.5-7.1C776.2,109.5,770.8,106.5,767.3,101.6z
            M780.8,76c-4.5,5-8.2,10.9-10.9,17.7c1.8,7.9,7,12.4,15.4,13.5c3.4-6.5,5-12.6,5-18.1c0-3.6-0.8-6.6-2.5-9.1
             C786.1,77.5,783.8,76.2,780.8,76z"
          ></path>
          <path
            id="path12"
            class="st0"
            d="M816.7,77.7c0.7,0,1.4,0,2.1,0c0.7,0,1.5,0,2.2-0.1c0.5-0.1,1.1-0.1,1.8-0.1s1.5,0,2.2,0
             c0.7-1.2,1.6-3,2.9-5.3c1.2-2.3,2.8-5.2,4.8-8.6c1.1-1.9,2.3-4,3.7-6.2c1.4-2.2,3.1-4.7,4.9-7.3c1.9-1.9,4.5-2.9,7.8-2.9
             c2.8,0,4.2,0.7,4.2,2.2c0,0.3-0.1,0.6-0.4,1c-2,2.8-4.6,6.4-7.6,10.9c-3.1,4.5-6.7,10-10.8,16.4h22.5c1.4,0.5,2.2,1.1,2.2,1.9
             c0,1.4-1.7,2.4-5.2,2.7c-0.6,0.1-2.7,0.1-6.3,0.1c-3.6,0-8.9,0-15.8,0.1c-4.7,8.8-7.1,16-7.1,21.6c0,6.2,2.7,9.4,8.1,9.4
             c2.7,0,5.6-0.9,8.6-2.6c2.1-1.2,4.3-2.8,6.6-4.7c2.3-1.9,4.6-4.2,7.1-6.8c1-1,1.7-1.4,2.3-1.3c0.5,0,0.7,0.3,0.7,1
             c0,0.6-0.2,1.2-0.7,1.9c-10.8,11.4-20.2,17-27.9,16.7c-6.1-0.2-9.8-3.4-11.1-9.5c-0.2-1-0.3-1.9-0.4-2.9c-0.1-1-0.1-1.9-0.1-2.9
             c0-5.9,1.6-12.5,4.9-19.9c-2.1,0.1-3.6,0.1-4.5,0.1c-0.9,0-1.2,0-0.8,0.1c-2.2-0.3-3.4-1.2-3.6-2.9
             C813.4,78.4,814.4,77.7,816.7,77.7z"
          ></path>
          <path
            id="path13"
            class="st0"
            d="M882.9,73.2l-0.6,0.6c3.5,1.2,6.3,3.2,8.6,6c2.3,2.9,3.5,6,3.5,9.5c0,6.1-1.6,12-4.9,17.6l-0.3,0.6
             c8.9-0.3,16.2-3.3,21.9-8.9c0.5-0.5,1-0.7,1.4-0.7c0.6,0,0.9,0.3,0.9,1c0,1-0.5,1.8-1.4,2.4c-7.1,6.2-15.4,9.4-24.9,9.4
             c-2.6,3.3-5.7,5.9-9.2,8c-3.6,2.1-6.9,3.1-9.9,3.1c-6.5,0-9.7-3.8-9.5-11.5c0-5.3,1.4-11.6,4.2-18.9c-0.1-0.8-0.2-1.6-0.2-2.4
             c0-0.9-0.1-1.7-0.1-2.6c0-8,3.9-12.4,11.7-13.2c2.1-2.4,4-3.6,5.6-3.6c2.7,0,4,0.8,4,2.3C883.6,72.3,883.4,72.8,882.9,73.2z
            M866.6,101.6v0.1c-0.8,3.4-1.2,6-1.2,8.1c0,5.2,1.9,7.8,5.6,7.8c4.4,0,8.3-2.4,11.5-7.1C875.5,109.5,870.2,106.5,866.6,101.6z
            M880.2,76c-4.5,5-8.2,10.9-10.9,17.7c1.8,7.9,7,12.4,15.4,13.5c3.4-6.5,5-12.6,5-18.1c0-3.6-0.8-6.6-2.5-9.1
             C885.5,77.5,883.2,76.2,880.2,76z"
          ></path>
        </g>
      </svg>