<svg
    version="1.1"
    xmlns="http://www.w3.org/2000/svg"
    xmlns:xlink="http://www.w3.org/1999/xlink"
    x="0px"
    y="0px"
    width="1101.81px"
    height="161.2px"
    viewBox="0 0 1101.81 161.2"
    xml:space="preserve">
    <!-- <defs> -->
    <path
      class="st0"
      d="M58.73,69.9c-9.33-1.33-16.77-3.37-22.3-6.1c-5.53-2.73-9.5-6-11.9-9.8c-2.4-3.8-3.6-7.97-3.6-12.5
        c0-8.53,3.2-15.03,9.6-19.5c6.4-4.47,14.87-6.7,25.4-6.7c6,0.13,11.13,1,15.4,2.6c4.27,1.6,7.9,3.77,10.9,6.5
        c3,2.73,5.5,5.63,7.5,8.7c1.07,1.87,2.63,3.13,4.7,3.8c2.07,0.67,4.1,0.53,6.1-0.4c1.87-1.07,3.03-2.6,3.5-4.6
        c0.47-2,0.03-4.07-1.3-6.2c-2.8-4.53-6.43-8.7-10.9-12.5c-4.47-3.8-9.7-6.87-15.7-9.2c-6-2.33-12.67-3.5-20-3.5
        c-9.87,0-18.6,1.63-26.2,4.9c-7.6,3.27-13.57,7.9-17.9,13.9c-4.33,6-6.5,13.07-6.5,21.2c0,11.33,4.4,20.9,13.2,28.7
        c8.8,7.8,21,12.63,36.6,14.5c12.8,1.6,22.2,5.33,28.2,11.2c6,5.87,9,12.87,9,21c0,6.4-1.57,11.83-4.7,16.3
        c-3.13,4.47-7.43,7.87-12.9,10.2c-5.47,2.33-11.73,3.5-18.8,3.5c-6.4,0-12.27-0.83-17.6-2.5c-5.33-1.67-9.93-4.03-13.8-7.1
        c-3.87-3.07-6.8-6.53-8.8-10.4c-0.93-1.87-2.3-3.27-4.1-4.2c-1.8-0.93-3.63-1.13-5.5-0.6c-2.4,0.67-4.1,1.9-5.1,3.7
        s-0.97,3.77,0.1,5.9c2.8,6,6.87,11.27,12.2,15.8c5.33,4.53,11.63,8.03,18.9,10.5c7.27,2.47,15.17,3.7,23.7,3.7
        c7.2,0,13.97-1,20.3-3c6.33-2,11.87-4.9,16.6-8.7c4.73-3.8,8.4-8.5,11-14.1c2.6-5.6,3.9-12,3.9-19.2c0-12.53-4.03-22.7-12.1-30.5
        C87.76,77.4,75.39,72.3,58.73,69.9zM58.73,69.9c-9.33-1.33-16.77-3.37-22.3-6.1c-5.53-2.73-9.5-6-11.9-9.8c-2.4-3.8-3.6-7.97-3.6-12.5
        c0-8.53,3.2-15.03,9.6-19.5c6.4-4.47,14.87-6.7,25.4-6.7c6,0.13,11.13,1,15.4,2.6c4.27,1.6,7.9,3.77,10.9,6.5
        c3,2.73,5.5,5.63,7.5,8.7c1.07,1.87,2.63,3.13,4.7,3.8c2.07,0.67,4.1,0.53,6.1-0.4c1.87-1.07,3.03-2.6,3.5-4.6
        c0.47-2,0.03-4.07-1.3-6.2c-2.8-4.53-6.43-8.7-10.9-12.5c-4.47-3.8-9.7-6.87-15.7-9.2c-6-2.33-12.67-3.5-20-3.5
        c-9.87,0-18.6,1.63-26.2,4.9c-7.6,3.27-13.57,7.9-17.9,13.9c-4.33,6-6.5,13.07-6.5,21.2c0,11.33,4.4,20.9,13.2,28.7
        c8.8,7.8,21,12.63,36.6,14.5c12.8,1.6,22.2,5.33,28.2,11.2c6,5.87,9,12.87,9,21c0,6.4-1.57,11.83-4.7,16.3
        c-3.13,4.47-7.43,7.87-12.9,10.2c-5.47,2.33-11.73,3.5-18.8,3.5c-6.4,0-12.27-0.83-17.6-2.5c-5.33-1.67-9.93-4.03-13.8-7.1
        c-3.87-3.07-6.8-6.53-8.8-10.4c-0.93-1.87-2.3-3.27-4.1-4.2c-1.8-0.93-3.63-1.13-5.5-0.6c-2.4,0.67-4.1,1.9-5.1,3.7
        s-0.97,3.77,0.1,5.9c2.8,6,6.87,11.27,12.2,15.8c5.33,4.53,11.63,8.03,18.9,10.5c7.27,2.47,15.17,3.7,23.7,3.7
        c7.2,0,13.97-1,20.3-3c6.33-2,11.87-4.9,16.6-8.7c4.73-3.8,8.4-8.5,11-14.1c2.6-5.6,3.9-12,3.9-19.2c0-12.53-4.03-22.7-12.1-30.5
        C87.76,77.4,75.39,72.3,58.73,69.9zM223.72,49.9c-1.87-0.8-3.77-0.9-5.7-0.3c-1.93,0.6-3.3,1.83-4.1,3.7l-37.93,83.26L137.52,53.3
        c-0.93-1.73-2.27-2.93-4-3.6c-1.73-0.67-3.53-0.53-5.4,0.4c-2,0.93-3.33,2.27-4,4c-0.67,1.73-0.6,3.47,0.2,5.2l44.4,94.2
        c1.6,3.47,4,5.2,7.2,5.2c3.47,0,6-1.73,7.6-5.2l43.8-94.4c0.8-1.6,0.87-3.3,0.2-5.1C226.85,52.2,225.59,50.83,223.72,49.9zM327.42,55.5c-8.33-4.8-17.83-7.2-28.5-7.2c-10.67,0-20.2,2.4-28.6,7.2c-8.4,4.8-15,11.4-19.8,19.8
        c-4.8,8.4-7.2,18-7.2,28.8c0,10.67,2.4,20.2,7.2,28.6c4.8,8.4,11.4,15,19.8,19.8c8.4,4.8,17.93,7.2,28.6,7.2
        c10.67,0,20.17-2.4,28.5-7.2c8.33-4.8,14.93-11.4,19.8-19.8c4.87-8.4,7.3-17.93,7.3-28.6c-0.13-10.8-2.6-20.4-7.4-28.8
        S335.75,60.3,327.42,55.5z M334.12,125.5c-3.47,6.27-8.27,11.2-14.4,14.8c-6.13,3.6-13.07,5.4-20.8,5.4c-7.73,0-14.67-1.8-20.8-5.4
        c-6.13-3.6-10.97-8.53-14.5-14.8c-3.53-6.27-5.3-13.4-5.3-21.4c0-8,1.77-15.17,5.3-21.5c3.53-6.33,8.37-11.3,14.5-14.9
        c6.13-3.6,13.07-5.4,20.8-5.4c7.73,0,14.67,1.8,20.8,5.4c6.13,3.6,10.93,8.57,14.4,14.9c3.47,6.33,5.2,13.5,5.2,21.5
        C339.32,112.1,337.59,119.23,334.12,125.5zM469.32,55.6c-8.13-4.87-17.33-7.3-27.6-7.3c-8.93,0-17.03,1.9-24.3,5.7c-7.27,3.8-13.1,8.83-17.5,15.1V10.3
        c0-2.4-0.7-4.3-2.1-5.7c-1.4-1.4-3.23-2.1-5.5-2.1c-2.4,0-4.3,0.7-5.7,2.1s-2.1,3.3-2.1,5.7v94.4c0.13,10.4,2.63,19.77,7.5,28.1
        c4.87,8.33,11.47,14.9,19.8,19.7c8.33,4.8,17.7,7.2,28.1,7.2c10.67,0,20.2-2.43,28.6-7.3c8.4-4.87,15.03-11.5,19.9-19.9
        c4.87-8.4,7.3-17.93,7.3-28.6c0-10.53-2.37-20-7.1-28.4C483.89,67.1,477.45,60.47,469.32,55.6z M475.22,125.3
        c-3.53,6.27-8.37,11.23-14.5,14.9c-6.13,3.67-13.07,5.5-20.8,5.5c-7.6,0-14.47-1.83-20.6-5.5c-6.13-3.67-10.93-8.63-14.4-14.9
        c-3.47-6.27-5.2-13.4-5.2-21.4c0-7.87,1.73-14.97,5.2-21.3c3.47-6.33,8.27-11.3,14.4-14.9c6.13-3.6,13-5.4,20.6-5.4
        c7.73,0,14.67,1.8,20.8,5.4c6.13,3.6,10.97,8.57,14.5,14.9c3.53,6.33,5.3,13.43,5.3,21.3C480.52,111.9,478.75,119.03,475.22,125.3zM604.22,55.5c-8.33-4.8-17.83-7.2-28.5-7.2c-10.67,0-20.2,2.4-28.6,7.2c-8.4,4.8-15,11.4-19.8,19.8
        c-4.8,8.4-7.2,18-7.2,28.8c0,10.67,2.4,20.2,7.2,28.6c4.8,8.4,11.4,15,19.8,19.8c8.4,4.8,17.93,7.2,28.6,7.2
        c10.67,0,20.17-2.4,28.5-7.2c8.33-4.8,14.93-11.4,19.8-19.8c4.87-8.4,7.3-17.93,7.3-28.6c-0.13-10.8-2.6-20.4-7.4-28.8
        S612.55,60.3,604.22,55.5z M610.92,125.5c-3.47,6.27-8.27,11.2-14.4,14.8c-6.13,3.6-13.07,5.4-20.8,5.4c-7.73,0-14.67-1.8-20.8-5.4
        c-6.13-3.6-10.97-8.53-14.5-14.8c-3.53-6.27-5.3-13.4-5.3-21.4c0-8,1.77-15.17,5.3-21.5c3.53-6.33,8.37-11.3,14.5-14.9
        c6.13-3.6,13.07-5.4,20.8-5.4c7.73,0,14.67,1.8,20.8,5.4c6.13,3.6,10.93,8.57,14.4,14.9c3.47,6.33,5.2,13.5,5.2,21.5
        C616.12,112.1,614.38,119.23,610.92,125.5zM758.91,2.5c-2.27,0-4.13,0.7-5.6,2.1c-1.47,1.4-2.2,3.3-2.2,5.7v58.8c-4.4-6.27-10.2-11.3-17.4-15.1
        c-7.2-3.8-15.27-5.7-24.2-5.7c-10.27,0-19.47,2.43-27.6,7.3c-8.13,4.87-14.57,11.5-19.3,19.9c-4.73,8.4-7.1,17.87-7.1,28.4
        c0,10.67,2.43,20.2,7.3,28.6c4.87,8.4,11.5,15.03,19.9,19.9c8.4,4.87,17.87,7.3,28.4,7.3c10.4,0,19.77-2.4,28.1-7.2
        c8.33-4.8,14.93-11.37,19.8-19.7c4.87-8.33,7.43-17.7,7.7-28.1V10.3c0-2.4-0.73-4.3-2.2-5.7C763.05,3.2,761.18,2.5,758.91,2.5z
         M746.21,125.3c-3.53,6.27-8.33,11.23-14.4,14.9c-6.07,3.67-12.97,5.5-20.7,5.5c-7.6,0-14.47-1.83-20.6-5.5
        c-6.13-3.67-11-8.63-14.6-14.9c-3.6-6.27-5.4-13.4-5.4-21.4c0-7.87,1.8-14.97,5.4-21.3c3.6-6.33,8.47-11.3,14.6-14.9
        c6.13-3.6,13-5.4,20.6-5.4c7.73,0,14.63,1.8,20.7,5.4c6.07,3.6,10.87,8.57,14.4,14.9c3.53,6.33,5.3,13.43,5.3,21.3
        C751.51,111.9,749.75,119.03,746.21,125.3zM821.21,9.6c-2.2-1.93-4.7-2.9-7.5-2.9c-2.93,0-5.5,0.97-7.7,2.9c-2.2,1.93-3.3,4.57-3.3,7.9
        c0,3.07,1.07,5.67,3.2,7.8c2.13,2.13,4.67,3.2,7.6,3.2c3.07,0,5.67-1.07,7.8-3.2c2.13-2.13,3.2-4.73,3.2-7.8
        C824.51,14.17,823.41,11.53,821.21,9.6zM813.71,49.3c-2.4,0-4.3,0.7-5.7,2.1c-1.4,1.4-2.1,3.3-2.1,5.7v93.8c0,2.4,0.7,4.3,2.1,5.7
        c1.4,1.4,3.3,2.1,5.7,2.1c2.27,0,4.1-0.7,5.5-2.1c1.4-1.4,2.1-3.3,2.1-5.7V57.1c0-2.4-0.7-4.3-2.1-5.7
        C817.81,50,815.98,49.3,813.71,49.3zM937.71,54c-7.47-3.93-15.93-5.9-25.4-5.9c-8.67,0-16.53,1.9-23.6,5.7c-4.96,2.67-9.22,6.04-12.8,10.09V57.1
        c0-2.4-0.7-4.3-2.1-5.7c-1.4-1.4-3.23-2.1-5.5-2.1c-2.4,0-4.3,0.7-5.7,2.1c-1.4,1.4-2.1,3.3-2.1,5.7v94c0,2.27,0.7,4.1,2.1,5.5
        c1.4,1.4,3.3,2.1,5.7,2.1c2.27,0,4.1-0.7,5.5-2.1c1.4-1.4,2.1-3.23,2.1-5.5V91.9c0-5.6,1.53-10.6,4.6-15
        c3.07-4.4,7.23-7.87,12.5-10.4c5.27-2.53,11.17-3.8,17.7-3.8c6.8,0,12.9,1.33,18.3,4c5.4,2.67,9.67,6.67,12.8,12
        c3.13,5.33,4.7,12.13,4.7,20.4v52c0,2.13,0.73,3.93,2.2,5.4c1.47,1.47,3.33,2.2,5.6,2.2c2.13,0,3.93-0.73,5.4-2.2
        c1.47-1.47,2.2-3.27,2.2-5.4v-52c0-10.93-2.17-20.2-6.5-27.8C951.07,63.7,945.17,57.93,937.71,54zM1093.81,75.5c-4.87-8.4-11.47-15.03-19.8-19.9c-8.33-4.87-17.77-7.3-28.3-7.3c-10.53,0-20,2.43-28.4,7.3
        c-8.4,4.87-15.04,11.5-19.9,19.9c-4.87,8.4-7.3,17.93-7.3,28.6c0,10.54,2.37,20,7.1,28.4c4.73,8.4,11.17,15.03,19.3,19.9
        c8.13,4.87,17.33,7.3,27.6,7.3c9.73,0,18.43-2.23,26.1-6.7c6.23-3.63,11.38-8.33,15.5-14.08v12.17c0,2.27,0.73,4.1,2.2,5.5
        c1.47,1.4,3.33,2.1,5.6,2.1c2.27,0,4.13-0.7,5.6-2.1c1.47-1.4,2.2-3.23,2.2-5.5v-47C1101.17,93.43,1098.67,83.9,1093.81,75.5z
         M1066.41,140.3c-6.07,3.6-12.97,5.4-20.7,5.4c-7.6,0-14.47-1.8-20.6-5.4c-6.13-3.6-11-8.57-14.6-14.9
        c-3.6-6.33-5.4-13.43-5.4-21.3c0-8,1.8-15.13,5.4-21.4c3.6-6.27,8.47-11.23,14.6-14.9c6.13-3.67,13-5.5,20.6-5.5
        c7.73,0,14.63,1.83,20.7,5.5c6.07,3.67,10.87,8.63,14.4,14.9c3.53,6.27,5.3,13.4,5.3,21.4c0,7.87-1.77,14.97-5.3,21.3
        C1077.27,131.73,1072.47,136.7,1066.41,140.3z" />
    <!-- </defs> -->
  </svg>